<?xml version="1.0" encoding="utf-8" standalone="no"?>
<!DOCTYPE svg PUBLIC "-//W3C//DTD SVG 1.1//EN"
  "http://www.w3.org/Graphics/SVG/1.1/DTD/svg11.dtd">
<svg xmlns:xlink="http://www.w3.org/1999/xlink" width="855.55125pt" height="494.729687pt" viewBox="0 0 855.55125 494.729687" xmlns="http://www.w3.org/2000/svg" version="1.1">
 <metadata>
  <rdf:RDF xmlns:dc="http://purl.org/dc/elements/1.1/" xmlns:cc="http://creativecommons.org/ns#" xmlns:rdf="http://www.w3.org/1999/02/22-rdf-syntax-ns#">
   <cc:Work>
    <dc:type rdf:resource="http://purl.org/dc/dcmitype/StillImage"/>
    <dc:date>2026-07-23T08:48:46.873964</dc:date>
    <dc:format>image/svg+xml</dc:format>
    <dc:creator>
     <cc:Agent>
      <dc:title>Matplotlib v3.10.7, https://matplotlib.org/</dc:title>
     </cc:Agent>
    </dc:creator>
   </cc:Work>
  </rdf:RDF>
 </metadata>
 <defs>
  <style type="text/css">*{stroke-linejoin: round; stroke-linecap: butt}</style>
 </defs>
 <g id="figure_1">
  <g id="patch_1">
   <path d="M 0 494.729687 
L 855.55125 494.729687 
L 855.55125 0 
L 0 0 
z
" style="fill: #ffffff"/>
  </g>
  <g id="axes_1">
   <g id="patch_2">
    <path d="M 48.90125 455.237812 
L 848.35125 455.237812 
L 848.35125 38.397812 
L 48.90125 38.397812 
z
" style="fill: #ffffff"/>
   </g>
   <g id="matplotlib.axis_1">
    <g id="xtick_1">
     <g id="line2d_1">
      <path d="M 85.892296 455.237812 
L 85.892296 38.397812 
" clip-path="url(#pd44239c1b0)" style="fill: none; stroke: #d0d7de; stroke-opacity: 0.25; stroke-width: 0.5; stroke-linecap: square"/>
     </g>
     <g id="line2d_2">
      <defs>
       <path id="m0af32b5384" d="M 0 0 
L 0 3.5 
" style="stroke: #24292f; stroke-width: 0.8"/>
      </defs>
      <g>
       <use xlink:href="#m0af32b5384" x="85.892296" y="455.237812" style="fill: #24292f; stroke: #24292f; stroke-width: 0.8"/>
      </g>
     </g>
     <g id="text_1">
      <!-- Sep -->
      <g style="fill: #24292f" transform="translate(76.467296 469.83625) scale(0.1 -0.1)">
       <defs>
        <path id="DejaVuSans-53" d="M 3425 4513 
L 3425 3897 
Q 3066 4069 2747 4153 
Q 2428 4238 2131 4238 
Q 1616 4238 1336 4038 
Q 1056 3838 1056 3469 
Q 1056 3159 1242 3001 
Q 1428 2844 1947 2747 
L 2328 2669 
Q 3034 2534 3370 2195 
Q 3706 1856 3706 1288 
Q 3706 609 3251 259 
Q 2797 -91 1919 -91 
Q 1588 -91 1214 -16 
Q 841 59 441 206 
L 441 856 
Q 825 641 1194 531 
Q 1563 422 1919 422 
Q 2459 422 2753 634 
Q 3047 847 3047 1241 
Q 3047 1584 2836 1778 
Q 2625 1972 2144 2069 
L 1759 2144 
Q 1053 2284 737 2584 
Q 422 2884 422 3419 
Q 422 4038 858 4394 
Q 1294 4750 2059 4750 
Q 2388 4750 2728 4690 
Q 3069 4631 3425 4513 
z
" transform="scale(0.015625)"/>
        <path id="DejaVuSans-65" d="M 3597 1894 
L 3597 1613 
L 953 1613 
Q 991 1019 1311 708 
Q 1631 397 2203 397 
Q 2534 397 2845 478 
Q 3156 559 3463 722 
L 3463 178 
Q 3153 47 2828 -22 
Q 2503 -91 2169 -91 
Q 1331 -91 842 396 
Q 353 884 353 1716 
Q 353 2575 817 3079 
Q 1281 3584 2069 3584 
Q 2775 3584 3186 3129 
Q 3597 2675 3597 1894 
z
M 3022 2063 
Q 3016 2534 2758 2815 
Q 2500 3097 2075 3097 
Q 1594 3097 1305 2825 
Q 1016 2553 972 2059 
L 3022 2063 
z
" transform="scale(0.015625)"/>
        <path id="DejaVuSans-70" d="M 1159 525 
L 1159 -1331 
L 581 -1331 
L 581 3500 
L 1159 3500 
L 1159 2969 
Q 1341 3281 1617 3432 
Q 1894 3584 2278 3584 
Q 2916 3584 3314 3078 
Q 3713 2572 3713 1747 
Q 3713 922 3314 415 
Q 2916 -91 2278 -91 
Q 1894 -91 1617 61 
Q 1341 213 1159 525 
z
M 3116 1747 
Q 3116 2381 2855 2742 
Q 2594 3103 2138 3103 
Q 1681 3103 1420 2742 
Q 1159 2381 1159 1747 
Q 1159 1113 1420 752 
Q 1681 391 2138 391 
Q 2594 391 2855 752 
Q 3116 1113 3116 1747 
z
" transform="scale(0.015625)"/>
       </defs>
       <use xlink:href="#DejaVuSans-53"/>
       <use xlink:href="#DejaVuSans-65" transform="translate(63.476562 0)"/>
       <use xlink:href="#DejaVuSans-70" transform="translate(125 0)"/>
      </g>
     </g>
    </g>
    <g id="xtick_2">
     <g id="line2d_3">
      <path d="M 222.025684 455.237812 
L 222.025684 38.397812 
" clip-path="url(#pd44239c1b0)" style="fill: none; stroke: #d0d7de; stroke-opacity: 0.25; stroke-width: 0.5; stroke-linecap: square"/>
     </g>
     <g id="line2d_4">
      <g>
       <use xlink:href="#m0af32b5384" x="222.025684" y="455.237812" style="fill: #24292f; stroke: #24292f; stroke-width: 0.8"/>
      </g>
     </g>
     <g id="text_2">
      <!-- Nov -->
      <g style="fill: #24292f" transform="translate(212.266309 469.83625) scale(0.1 -0.1)">
       <defs>
        <path id="DejaVuSans-4e" d="M 628 4666 
L 1478 4666 
L 3547 763 
L 3547 4666 
L 4159 4666 
L 4159 0 
L 3309 0 
L 1241 3903 
L 1241 0 
L 628 0 
L 628 4666 
z
" transform="scale(0.015625)"/>
        <path id="DejaVuSans-6f" d="M 1959 3097 
Q 1497 3097 1228 2736 
Q 959 2375 959 1747 
Q 959 1119 1226 758 
Q 1494 397 1959 397 
Q 2419 397 2687 759 
Q 2956 1122 2956 1747 
Q 2956 2369 2687 2733 
Q 2419 3097 1959 3097 
z
M 1959 3584 
Q 2709 3584 3137 3096 
Q 3566 2609 3566 1747 
Q 3566 888 3137 398 
Q 2709 -91 1959 -91 
Q 1206 -91 779 398 
Q 353 888 353 1747 
Q 353 2609 779 3096 
Q 1206 3584 1959 3584 
z
" transform="scale(0.015625)"/>
        <path id="DejaVuSans-76" d="M 191 3500 
L 800 3500 
L 1894 563 
L 2988 3500 
L 3597 3500 
L 2284 0 
L 1503 0 
L 191 3500 
z
" transform="scale(0.015625)"/>
       </defs>
       <use xlink:href="#DejaVuSans-4e"/>
       <use xlink:href="#DejaVuSans-6f" transform="translate(74.804688 0)"/>
       <use xlink:href="#DejaVuSans-76" transform="translate(135.986328 0)"/>
      </g>
     </g>
    </g>
    <g id="xtick_3">
     <g id="line2d_5">
      <path d="M 358.159073 455.237812 
L 358.159073 38.397812 
" clip-path="url(#pd44239c1b0)" style="fill: none; stroke: #d0d7de; stroke-opacity: 0.25; stroke-width: 0.5; stroke-linecap: square"/>
     </g>
     <g id="line2d_6">
      <g>
       <use xlink:href="#m0af32b5384" x="358.159073" y="455.237812" style="fill: #24292f; stroke: #24292f; stroke-width: 0.8"/>
      </g>
     </g>
     <g id="text_3">
      <!-- 2026 -->
      <g style="fill: #24292f" transform="translate(345.434073 469.83625) scale(0.1 -0.1)">
       <defs>
        <path id="DejaVuSans-32" d="M 1228 531 
L 3431 531 
L 3431 0 
L 469 0 
L 469 531 
Q 828 903 1448 1529 
Q 2069 2156 2228 2338 
Q 2531 2678 2651 2914 
Q 2772 3150 2772 3378 
Q 2772 3750 2511 3984 
Q 2250 4219 1831 4219 
Q 1534 4219 1204 4116 
Q 875 4013 500 3803 
L 500 4441 
Q 881 4594 1212 4672 
Q 1544 4750 1819 4750 
Q 2544 4750 2975 4387 
Q 3406 4025 3406 3419 
Q 3406 3131 3298 2873 
Q 3191 2616 2906 2266 
Q 2828 2175 2409 1742 
Q 1991 1309 1228 531 
z
" transform="scale(0.015625)"/>
        <path id="DejaVuSans-30" d="M 2034 4250 
Q 1547 4250 1301 3770 
Q 1056 3291 1056 2328 
Q 1056 1369 1301 889 
Q 1547 409 2034 409 
Q 2525 409 2770 889 
Q 3016 1369 3016 2328 
Q 3016 3291 2770 3770 
Q 2525 4250 2034 4250 
z
M 2034 4750 
Q 2819 4750 3233 4129 
Q 3647 3509 3647 2328 
Q 3647 1150 3233 529 
Q 2819 -91 2034 -91 
Q 1250 -91 836 529 
Q 422 1150 422 2328 
Q 422 3509 836 4129 
Q 1250 4750 2034 4750 
z
" transform="scale(0.015625)"/>
        <path id="DejaVuSans-36" d="M 2113 2584 
Q 1688 2584 1439 2293 
Q 1191 2003 1191 1497 
Q 1191 994 1439 701 
Q 1688 409 2113 409 
Q 2538 409 2786 701 
Q 3034 994 3034 1497 
Q 3034 2003 2786 2293 
Q 2538 2584 2113 2584 
z
M 3366 4563 
L 3366 3988 
Q 3128 4100 2886 4159 
Q 2644 4219 2406 4219 
Q 1781 4219 1451 3797 
Q 1122 3375 1075 2522 
Q 1259 2794 1537 2939 
Q 1816 3084 2150 3084 
Q 2853 3084 3261 2657 
Q 3669 2231 3669 1497 
Q 3669 778 3244 343 
Q 2819 -91 2113 -91 
Q 1303 -91 875 529 
Q 447 1150 447 2328 
Q 447 3434 972 4092 
Q 1497 4750 2381 4750 
Q 2619 4750 2861 4703 
Q 3103 4656 3366 4563 
z
" transform="scale(0.015625)"/>
       </defs>
       <use xlink:href="#DejaVuSans-32"/>
       <use xlink:href="#DejaVuSans-30" transform="translate(63.623047 0)"/>
       <use xlink:href="#DejaVuSans-32" transform="translate(127.246094 0)"/>
       <use xlink:href="#DejaVuSans-36" transform="translate(190.869141 0)"/>
      </g>
     </g>
    </g>
    <g id="xtick_4">
     <g id="line2d_7">
      <path d="M 489.829072 455.237812 
L 489.829072 38.397812 
" clip-path="url(#pd44239c1b0)" style="fill: none; stroke: #d0d7de; stroke-opacity: 0.25; stroke-width: 0.5; stroke-linecap: square"/>
     </g>
     <g id="line2d_8">
      <g>
       <use xlink:href="#m0af32b5384" x="489.829072" y="455.237812" style="fill: #24292f; stroke: #24292f; stroke-width: 0.8"/>
      </g>
     </g>
     <g id="text_4">
      <!-- Mar -->
      <g style="fill: #24292f" transform="translate(480.395478 469.83625) scale(0.1 -0.1)">
       <defs>
        <path id="DejaVuSans-4d" d="M 628 4666 
L 1569 4666 
L 2759 1491 
L 3956 4666 
L 4897 4666 
L 4897 0 
L 4281 0 
L 4281 4097 
L 3078 897 
L 2444 897 
L 1241 4097 
L 1241 0 
L 628 0 
L 628 4666 
z
" transform="scale(0.015625)"/>
        <path id="DejaVuSans-61" d="M 2194 1759 
Q 1497 1759 1228 1600 
Q 959 1441 959 1056 
Q 959 750 1161 570 
Q 1363 391 1709 391 
Q 2188 391 2477 730 
Q 2766 1069 2766 1631 
L 2766 1759 
L 2194 1759 
z
M 3341 1997 
L 3341 0 
L 2766 0 
L 2766 531 
Q 2569 213 2275 61 
Q 1981 -91 1556 -91 
Q 1019 -91 701 211 
Q 384 513 384 1019 
Q 384 1609 779 1909 
Q 1175 2209 1959 2209 
L 2766 2209 
L 2766 2266 
Q 2766 2663 2505 2880 
Q 2244 3097 1772 3097 
Q 1472 3097 1187 3025 
Q 903 2953 641 2809 
L 641 3341 
Q 956 3463 1253 3523 
Q 1550 3584 1831 3584 
Q 2591 3584 2966 3190 
Q 3341 2797 3341 1997 
z
" transform="scale(0.015625)"/>
        <path id="DejaVuSans-72" d="M 2631 2963 
Q 2534 3019 2420 3045 
Q 2306 3072 2169 3072 
Q 1681 3072 1420 2755 
Q 1159 2438 1159 1844 
L 1159 0 
L 581 0 
L 581 3500 
L 1159 3500 
L 1159 2956 
Q 1341 3275 1631 3429 
Q 1922 3584 2338 3584 
Q 2397 3584 2469 3576 
Q 2541 3569 2628 3553 
L 2631 2963 
z
" transform="scale(0.015625)"/>
       </defs>
       <use xlink:href="#DejaVuSans-4d"/>
       <use xlink:href="#DejaVuSans-61" transform="translate(86.279297 0)"/>
       <use xlink:href="#DejaVuSans-72" transform="translate(147.558594 0)"/>
      </g>
     </g>
    </g>
    <g id="xtick_5">
     <g id="line2d_9">
      <path d="M 625.962461 455.237812 
L 625.962461 38.397812 
" clip-path="url(#pd44239c1b0)" style="fill: none; stroke: #d0d7de; stroke-opacity: 0.25; stroke-width: 0.5; stroke-linecap: square"/>
     </g>
     <g id="line2d_10">
      <g>
       <use xlink:href="#m0af32b5384" x="625.962461" y="455.237812" style="fill: #24292f; stroke: #24292f; stroke-width: 0.8"/>
      </g>
     </g>
     <g id="text_5">
      <!-- May -->
      <g style="fill: #24292f" transform="translate(615.624961 469.83625) scale(0.1 -0.1)">
       <defs>
        <path id="DejaVuSans-79" d="M 2059 -325 
Q 1816 -950 1584 -1140 
Q 1353 -1331 966 -1331 
L 506 -1331 
L 506 -850 
L 844 -850 
Q 1081 -850 1212 -737 
Q 1344 -625 1503 -206 
L 1606 56 
L 191 3500 
L 800 3500 
L 1894 763 
L 2988 3500 
L 3597 3500 
L 2059 -325 
z
" transform="scale(0.015625)"/>
       </defs>
       <use xlink:href="#DejaVuSans-4d"/>
       <use xlink:href="#DejaVuSans-61" transform="translate(86.279297 0)"/>
       <use xlink:href="#DejaVuSans-79" transform="translate(147.558594 0)"/>
      </g>
     </g>
    </g>
    <g id="xtick_6">
     <g id="line2d_11">
      <path d="M 762.09585 455.237812 
L 762.09585 38.397812 
" clip-path="url(#pd44239c1b0)" style="fill: none; stroke: #d0d7de; stroke-opacity: 0.25; stroke-width: 0.5; stroke-linecap: square"/>
     </g>
     <g id="line2d_12">
      <g>
       <use xlink:href="#m0af32b5384" x="762.09585" y="455.237812" style="fill: #24292f; stroke: #24292f; stroke-width: 0.8"/>
      </g>
     </g>
     <g id="text_6">
      <!-- Jul -->
      <g style="fill: #24292f" transform="translate(756.063037 469.83625) scale(0.1 -0.1)">
       <defs>
        <path id="DejaVuSans-4a" d="M 628 4666 
L 1259 4666 
L 1259 325 
Q 1259 -519 939 -900 
Q 619 -1281 -91 -1281 
L -331 -1281 
L -331 -750 
L -134 -750 
Q 284 -750 456 -515 
Q 628 -281 628 325 
L 628 4666 
z
" transform="scale(0.015625)"/>
        <path id="DejaVuSans-75" d="M 544 1381 
L 544 3500 
L 1119 3500 
L 1119 1403 
Q 1119 906 1312 657 
Q 1506 409 1894 409 
Q 2359 409 2629 706 
Q 2900 1003 2900 1516 
L 2900 3500 
L 3475 3500 
L 3475 0 
L 2900 0 
L 2900 538 
Q 2691 219 2414 64 
Q 2138 -91 1772 -91 
Q 1169 -91 856 284 
Q 544 659 544 1381 
z
M 1991 3584 
L 1991 3584 
z
" transform="scale(0.015625)"/>
        <path id="DejaVuSans-6c" d="M 603 4863 
L 1178 4863 
L 1178 0 
L 603 0 
L 603 4863 
z
" transform="scale(0.015625)"/>
       </defs>
       <use xlink:href="#DejaVuSans-4a"/>
       <use xlink:href="#DejaVuSans-75" transform="translate(29.492188 0)"/>
       <use xlink:href="#DejaVuSans-6c" transform="translate(92.871094 0)"/>
      </g>
     </g>
    </g>
    <g id="text_7">
     <!-- Date -->
     <g style="fill: #24292f" transform="translate(434.285313 485.034062) scale(0.12 -0.12)">
      <defs>
       <path id="DejaVuSans-44" d="M 1259 4147 
L 1259 519 
L 2022 519 
Q 2988 519 3436 956 
Q 3884 1394 3884 2338 
Q 3884 3275 3436 3711 
Q 2988 4147 2022 4147 
L 1259 4147 
z
M 628 4666 
L 1925 4666 
Q 3281 4666 3915 4102 
Q 4550 3538 4550 2338 
Q 4550 1131 3912 565 
Q 3275 0 1925 0 
L 628 0 
L 628 4666 
z
" transform="scale(0.015625)"/>
       <path id="DejaVuSans-74" d="M 1172 4494 
L 1172 3500 
L 2356 3500 
L 2356 3053 
L 1172 3053 
L 1172 1153 
Q 1172 725 1289 603 
Q 1406 481 1766 481 
L 2356 481 
L 2356 0 
L 1766 0 
Q 1100 0 847 248 
Q 594 497 594 1153 
L 594 3053 
L 172 3053 
L 172 3500 
L 594 3500 
L 594 4494 
L 1172 4494 
z
" transform="scale(0.015625)"/>
      </defs>
      <use xlink:href="#DejaVuSans-44"/>
      <use xlink:href="#DejaVuSans-61" transform="translate(77.001953 0)"/>
      <use xlink:href="#DejaVuSans-74" transform="translate(138.28125 0)"/>
      <use xlink:href="#DejaVuSans-65" transform="translate(177.490234 0)"/>
     </g>
    </g>
   </g>
   <g id="matplotlib.axis_2">
    <g id="ytick_1">
     <g id="line2d_13">
      <path d="M 48.90125 455.237812 
L 848.35125 455.237812 
" clip-path="url(#pd44239c1b0)" style="fill: none; stroke: #d0d7de; stroke-opacity: 0.25; stroke-width: 0.5; stroke-linecap: square"/>
     </g>
     <g id="line2d_14">
      <defs>
       <path id="m7fc12d0efa" d="M 0 0 
L -3.5 0 
" style="stroke: #24292f; stroke-width: 0.8"/>
      </defs>
      <g>
       <use xlink:href="#m7fc12d0efa" x="48.90125" y="455.237812" style="fill: #24292f; stroke: #24292f; stroke-width: 0.8"/>
      </g>
     </g>
     <g id="text_8">
      <!-- 0 -->
      <g style="fill: #24292f" transform="translate(35.53875 459.037031) scale(0.1 -0.1)">
       <use xlink:href="#DejaVuSans-30"/>
      </g>
     </g>
    </g>
    <g id="ytick_2">
     <g id="line2d_15">
      <path d="M 48.90125 399.659146 
L 848.35125 399.659146 
" clip-path="url(#pd44239c1b0)" style="fill: none; stroke: #d0d7de; stroke-opacity: 0.25; stroke-width: 0.5; stroke-linecap: square"/>
     </g>
     <g id="line2d_16">
      <g>
       <use xlink:href="#m7fc12d0efa" x="48.90125" y="399.659146" style="fill: #24292f; stroke: #24292f; stroke-width: 0.8"/>
      </g>
     </g>
     <g id="text_9">
      <!-- 100 -->
      <g style="fill: #24292f" transform="translate(22.81375 403.458365) scale(0.1 -0.1)">
       <defs>
        <path id="DejaVuSans-31" d="M 794 531 
L 1825 531 
L 1825 4091 
L 703 3866 
L 703 4441 
L 1819 4666 
L 2450 4666 
L 2450 531 
L 3481 531 
L 3481 0 
L 794 0 
L 794 531 
z
" transform="scale(0.015625)"/>
       </defs>
       <use xlink:href="#DejaVuSans-31"/>
       <use xlink:href="#DejaVuSans-30" transform="translate(63.623047 0)"/>
       <use xlink:href="#DejaVuSans-30" transform="translate(127.246094 0)"/>
      </g>
     </g>
    </g>
    <g id="ytick_3">
     <g id="line2d_17">
      <path d="M 48.90125 344.080479 
L 848.35125 344.080479 
" clip-path="url(#pd44239c1b0)" style="fill: none; stroke: #d0d7de; stroke-opacity: 0.25; stroke-width: 0.5; stroke-linecap: square"/>
     </g>
     <g id="line2d_18">
      <g>
       <use xlink:href="#m7fc12d0efa" x="48.90125" y="344.080479" style="fill: #24292f; stroke: #24292f; stroke-width: 0.8"/>
      </g>
     </g>
     <g id="text_10">
      <!-- 200 -->
      <g style="fill: #24292f" transform="translate(22.81375 347.879698) scale(0.1 -0.1)">
       <use xlink:href="#DejaVuSans-32"/>
       <use xlink:href="#DejaVuSans-30" transform="translate(63.623047 0)"/>
       <use xlink:href="#DejaVuSans-30" transform="translate(127.246094 0)"/>
      </g>
     </g>
    </g>
    <g id="ytick_4">
     <g id="line2d_19">
      <path d="M 48.90125 288.501812 
L 848.35125 288.501812 
" clip-path="url(#pd44239c1b0)" style="fill: none; stroke: #d0d7de; stroke-opacity: 0.25; stroke-width: 0.5; stroke-linecap: square"/>
     </g>
     <g id="line2d_20">
      <g>
       <use xlink:href="#m7fc12d0efa" x="48.90125" y="288.501812" style="fill: #24292f; stroke: #24292f; stroke-width: 0.8"/>
      </g>
     </g>
     <g id="text_11">
      <!-- 300 -->
      <g style="fill: #24292f" transform="translate(22.81375 292.301031) scale(0.1 -0.1)">
       <defs>
        <path id="DejaVuSans-33" d="M 2597 2516 
Q 3050 2419 3304 2112 
Q 3559 1806 3559 1356 
Q 3559 666 3084 287 
Q 2609 -91 1734 -91 
Q 1441 -91 1130 -33 
Q 819 25 488 141 
L 488 750 
Q 750 597 1062 519 
Q 1375 441 1716 441 
Q 2309 441 2620 675 
Q 2931 909 2931 1356 
Q 2931 1769 2642 2001 
Q 2353 2234 1838 2234 
L 1294 2234 
L 1294 2753 
L 1863 2753 
Q 2328 2753 2575 2939 
Q 2822 3125 2822 3475 
Q 2822 3834 2567 4026 
Q 2313 4219 1838 4219 
Q 1578 4219 1281 4162 
Q 984 4106 628 3988 
L 628 4550 
Q 988 4650 1302 4700 
Q 1616 4750 1894 4750 
Q 2613 4750 3031 4423 
Q 3450 4097 3450 3541 
Q 3450 3153 3228 2886 
Q 3006 2619 2597 2516 
z
" transform="scale(0.015625)"/>
       </defs>
       <use xlink:href="#DejaVuSans-33"/>
       <use xlink:href="#DejaVuSans-30" transform="translate(63.623047 0)"/>
       <use xlink:href="#DejaVuSans-30" transform="translate(127.246094 0)"/>
      </g>
     </g>
    </g>
    <g id="ytick_5">
     <g id="line2d_21">
      <path d="M 48.90125 232.923146 
L 848.35125 232.923146 
" clip-path="url(#pd44239c1b0)" style="fill: none; stroke: #d0d7de; stroke-opacity: 0.25; stroke-width: 0.5; stroke-linecap: square"/>
     </g>
     <g id="line2d_22">
      <g>
       <use xlink:href="#m7fc12d0efa" x="48.90125" y="232.923146" style="fill: #24292f; stroke: #24292f; stroke-width: 0.8"/>
      </g>
     </g>
     <g id="text_12">
      <!-- 400 -->
      <g style="fill: #24292f" transform="translate(22.81375 236.722365) scale(0.1 -0.1)">
       <defs>
        <path id="DejaVuSans-34" d="M 2419 4116 
L 825 1625 
L 2419 1625 
L 2419 4116 
z
M 2253 4666 
L 3047 4666 
L 3047 1625 
L 3713 1625 
L 3713 1100 
L 3047 1100 
L 3047 0 
L 2419 0 
L 2419 1100 
L 313 1100 
L 313 1709 
L 2253 4666 
z
" transform="scale(0.015625)"/>
       </defs>
       <use xlink:href="#DejaVuSans-34"/>
       <use xlink:href="#DejaVuSans-30" transform="translate(63.623047 0)"/>
       <use xlink:href="#DejaVuSans-30" transform="translate(127.246094 0)"/>
      </g>
     </g>
    </g>
    <g id="ytick_6">
     <g id="line2d_23">
      <path d="M 48.90125 177.344479 
L 848.35125 177.344479 
" clip-path="url(#pd44239c1b0)" style="fill: none; stroke: #d0d7de; stroke-opacity: 0.25; stroke-width: 0.5; stroke-linecap: square"/>
     </g>
     <g id="line2d_24">
      <g>
       <use xlink:href="#m7fc12d0efa" x="48.90125" y="177.344479" style="fill: #24292f; stroke: #24292f; stroke-width: 0.8"/>
      </g>
     </g>
     <g id="text_13">
      <!-- 500 -->
      <g style="fill: #24292f" transform="translate(22.81375 181.143698) scale(0.1 -0.1)">
       <defs>
        <path id="DejaVuSans-35" d="M 691 4666 
L 3169 4666 
L 3169 4134 
L 1269 4134 
L 1269 2991 
Q 1406 3038 1543 3061 
Q 1681 3084 1819 3084 
Q 2600 3084 3056 2656 
Q 3513 2228 3513 1497 
Q 3513 744 3044 326 
Q 2575 -91 1722 -91 
Q 1428 -91 1123 -41 
Q 819 9 494 109 
L 494 744 
Q 775 591 1075 516 
Q 1375 441 1709 441 
Q 2250 441 2565 725 
Q 2881 1009 2881 1497 
Q 2881 1984 2565 2268 
Q 2250 2553 1709 2553 
Q 1456 2553 1204 2497 
Q 953 2441 691 2322 
L 691 4666 
z
" transform="scale(0.015625)"/>
       </defs>
       <use xlink:href="#DejaVuSans-35"/>
       <use xlink:href="#DejaVuSans-30" transform="translate(63.623047 0)"/>
       <use xlink:href="#DejaVuSans-30" transform="translate(127.246094 0)"/>
      </g>
     </g>
    </g>
    <g id="ytick_7">
     <g id="line2d_25">
      <path d="M 48.90125 121.765812 
L 848.35125 121.765812 
" clip-path="url(#pd44239c1b0)" style="fill: none; stroke: #d0d7de; stroke-opacity: 0.25; stroke-width: 0.5; stroke-linecap: square"/>
     </g>
     <g id="line2d_26">
      <g>
       <use xlink:href="#m7fc12d0efa" x="48.90125" y="121.765812" style="fill: #24292f; stroke: #24292f; stroke-width: 0.8"/>
      </g>
     </g>
     <g id="text_14">
      <!-- 600 -->
      <g style="fill: #24292f" transform="translate(22.81375 125.565031) scale(0.1 -0.1)">
       <use xlink:href="#DejaVuSans-36"/>
       <use xlink:href="#DejaVuSans-30" transform="translate(63.623047 0)"/>
       <use xlink:href="#DejaVuSans-30" transform="translate(127.246094 0)"/>
      </g>
     </g>
    </g>
    <g id="ytick_8">
     <g id="line2d_27">
      <path d="M 48.90125 66.187146 
L 848.35125 66.187146 
" clip-path="url(#pd44239c1b0)" style="fill: none; stroke: #d0d7de; stroke-opacity: 0.25; stroke-width: 0.5; stroke-linecap: square"/>
     </g>
     <g id="line2d_28">
      <g>
       <use xlink:href="#m7fc12d0efa" x="48.90125" y="66.187146" style="fill: #24292f; stroke: #24292f; stroke-width: 0.8"/>
      </g>
     </g>
     <g id="text_15">
      <!-- 700 -->
      <g style="fill: #24292f" transform="translate(22.81375 69.986365) scale(0.1 -0.1)">
       <defs>
        <path id="DejaVuSans-37" d="M 525 4666 
L 3525 4666 
L 3525 4397 
L 1831 0 
L 1172 0 
L 2766 4134 
L 525 4134 
L 525 4666 
z
" transform="scale(0.015625)"/>
       </defs>
       <use xlink:href="#DejaVuSans-37"/>
       <use xlink:href="#DejaVuSans-30" transform="translate(63.623047 0)"/>
       <use xlink:href="#DejaVuSans-30" transform="translate(127.246094 0)"/>
      </g>
     </g>
    </g>
    <g id="text_16">
     <!-- Count -->
     <g style="fill: #24292f" transform="translate(16.318125 264.635937) rotate(-90) scale(0.12 -0.12)">
      <defs>
       <path id="DejaVuSans-43" d="M 4122 4306 
L 4122 3641 
Q 3803 3938 3442 4084 
Q 3081 4231 2675 4231 
Q 1875 4231 1450 3742 
Q 1025 3253 1025 2328 
Q 1025 1406 1450 917 
Q 1875 428 2675 428 
Q 3081 428 3442 575 
Q 3803 722 4122 1019 
L 4122 359 
Q 3791 134 3420 21 
Q 3050 -91 2638 -91 
Q 1578 -91 968 557 
Q 359 1206 359 2328 
Q 359 3453 968 4101 
Q 1578 4750 2638 4750 
Q 3056 4750 3426 4639 
Q 3797 4528 4122 4306 
z
" transform="scale(0.015625)"/>
       <path id="DejaVuSans-6e" d="M 3513 2113 
L 3513 0 
L 2938 0 
L 2938 2094 
Q 2938 2591 2744 2837 
Q 2550 3084 2163 3084 
Q 1697 3084 1428 2787 
Q 1159 2491 1159 1978 
L 1159 0 
L 581 0 
L 581 3500 
L 1159 3500 
L 1159 2956 
Q 1366 3272 1645 3428 
Q 1925 3584 2291 3584 
Q 2894 3584 3203 3211 
Q 3513 2838 3513 2113 
z
" transform="scale(0.015625)"/>
      </defs>
      <use xlink:href="#DejaVuSans-43"/>
      <use xlink:href="#DejaVuSans-6f" transform="translate(69.824219 0)"/>
      <use xlink:href="#DejaVuSans-75" transform="translate(131.005859 0)"/>
      <use xlink:href="#DejaVuSans-6e" transform="translate(194.384766 0)"/>
      <use xlink:href="#DejaVuSans-74" transform="translate(257.763672 0)"/>
     </g>
    </g>
   </g>
   <g id="line2d_29">
    <path d="M 85.239886 454.682026 
L 85.282635 454.682026 
L 85.385773 454.126239 
L 85.44389 454.126239 
L 85.586806 257.933546 
L 87.384586 257.933546 
L 87.3928 261.268266 
L 89.567773 261.268266 
L 89.723217 260.712479 
L 89.97498 260.712479 
L 90.219691 260.156692 
L 91.73603 259.600906 
L 91.765967 260.156692 
L 91.838652 259.600906 
L 96.534303 259.600906 
L 99.367109 260.712479 
L 99.7886 259.600906 
L 100.096362 259.600906 
L 100.872031 259.045119 
L 101.196557 256.821972 
L 101.828457 256.821972 
L 102.749289 260.712479 
L 102.809034 256.821972 
L 103.515634 256.266186 
L 105.354586 256.266186 
L 105.987029 255.710399 
L 106.560141 255.710399 
L 106.796613 254.598826 
L 111.244143 254.598826 
L 111.571691 253.487252 
L 111.58848 252.375679 
L 113.002636 252.375679 
L 115.087876 251.264106 
L 116.181742 251.264106 
L 116.198299 250.708319 
L 118.710402 250.708319 
L 119.333572 247.929386 
L 121.305755 247.929386 
L 121.319445 247.373599 
L 132.364655 247.373599 
L 134.429283 246.817812 
L 134.499773 247.373599 
L 136.641063 246.817812 
L 144.092574 246.817812 
L 147.704226 246.262026 
L 147.773992 245.706239 
L 147.945554 245.150452 
L 149.983008 245.150452 
L 150.850167 244.594666 
L 154.426225 244.594666 
L 154.561987 247.373599 
L 154.568651 245.150452 
L 154.742511 245.150452 
L 155.709966 242.927306 
L 159.83279 242.927306 
L 163.072338 242.371519 
L 166.672883 242.371519 
L 166.830884 241.815732 
L 176.186878 241.815732 
L 176.586181 241.259946 
L 178.857938 241.259946 
L 178.873952 240.148372 
L 183.202459 240.148372 
L 183.290254 236.257866 
L 191.124614 236.257866 
L 191.126964 235.702079 
L 191.353853 235.702079 
L 192.341275 235.146292 
L 193.344737 235.146292 
L 193.66389 234.590506 
L 193.695816 235.146292 
L 194.426644 234.590506 
L 194.429976 234.034719 
L 194.44705 234.590506 
L 194.869212 234.034719 
L 198.71483 234.034719 
L 199.910466 233.478932 
L 201.329194 233.478932 
L 203.738882 232.923146 
L 206.020092 232.923146 
L 207.782563 231.811572 
L 211.639624 231.811572 
L 213.883304 230.699999 
L 214.515463 231.255786 
L 217.647042 231.255786 
L 221.179603 229.032639 
L 226.447979 229.032639 
L 228.081895 228.476852 
L 257.200218 228.476852 
L 257.435372 227.921066 
L 268.054159 227.921066 
L 268.231584 227.365279 
L 286.300486 227.365279 
L 290.279206 226.809492 
L 290.30222 227.365279 
L 293.150395 225.697919 
L 297.330251 225.697919 
L 299.612598 225.142132 
L 299.616343 224.586346 
L 304.378481 224.586346 
L 306.087664 225.142132 
L 306.702078 224.586346 
L 314.67176 224.586346 
L 315.010931 225.142132 
L 315.632241 224.586346 
L 315.84575 222.363199 
L 319.498007 222.363199 
L 319.501158 221.807412 
L 330.67699 221.807412 
L 331.327798 221.251626 
L 333.475598 221.251626 
L 333.685129 220.695839 
L 344.15852 220.695839 
L 344.172752 220.140052 
L 346.792307 220.140052 
L 346.796207 219.584266 
L 347.431853 219.584266 
L 347.465044 219.028479 
L 348.45213 219.028479 
L 348.607212 218.472692 
L 350.719883 218.472692 
L 351.041025 217.361119 
L 352.204064 215.137972 
L 355.01649 215.137972 
L 355.327016 212.359039 
L 356.167208 212.359039 
L 356.630052 211.247466 
L 359.015073 211.247466 
L 359.797664 210.691679 
L 362.037831 210.691679 
L 362.338077 210.135892 
L 368.422571 210.135892 
L 368.572487 209.580106 
L 369.135241 209.580106 
L 370.008934 209.024319 
L 379.850192 209.024319 
L 379.938607 208.468532 
L 380.254144 208.468532 
L 380.912856 207.356959 
L 381.836374 207.356959 
L 382.058433 206.801172 
L 382.272381 206.801172 
L 382.353565 206.245386 
L 384.823307 206.245386 
L 385.243764 205.689599 
L 387.393475 205.689599 
L 387.531303 205.133812 
L 388.708832 205.133812 
L 388.849062 204.578026 
L 392.44377 204.578026 
L 392.522448 204.022239 
L 394.656713 204.022239 
L 395.369563 201.799092 
L 396.159904 201.799092 
L 396.16073 201.243306 
L 399.369825 201.243306 
L 399.95815 200.687519 
L 402.415313 200.687519 
L 402.899286 200.131732 
L 403.081335 200.131732 
L 403.554227 199.575946 
L 404.762183 199.575946 
L 404.901794 199.020159 
L 407.931345 199.020159 
L 408.712258 198.464372 
L 408.769135 197.908586 
L 409.021957 197.908586 
L 409.819943 195.685439 
L 412.294722 195.685439 
L 412.312545 195.129652 
L 414.667809 195.129652 
L 414.892244 194.573866 
L 415.159996 194.573866 
L 415.429323 194.018079 
L 415.485503 194.573866 
L 415.687182 194.018079 
L 416.583218 194.018079 
L 416.591794 193.462292 
L 416.829738 193.462292 
L 416.933935 192.906506 
L 417.653915 192.350719 
L 422.663244 192.350719 
L 423.446197 191.794932 
L 423.970309 191.794932 
L 424.395519 191.239146 
L 424.825663 191.794932 
L 426.596735 191.794932 
L 426.673114 190.683359 
L 429.215619 190.683359 
L 430.20211 189.015999 
L 440.909777 189.015999 
L 441.532095 188.460212 
L 458.059965 188.460212 
L 458.161502 187.904426 
L 482.447483 187.904426 
L 482.562141 186.792852 
L 482.569761 187.348639 
L 486.1094 187.348639 
L 486.9086 186.792852 
L 500.853567 186.792852 
L 503.723129 186.237066 
L 503.751025 185.681279 
L 503.988582 185.681279 
L 504.732687 185.125492 
L 527.113436 185.125492 
L 527.330664 184.569706 
L 547.233198 184.569706 
L 549.787817 184.013919 
L 551.350443 184.013919 
L 551.520016 183.458132 
L 552.606107 182.902346 
L 555.65188 182.902346 
L 556.934639 182.346559 
L 558.276911 182.346559 
L 558.381444 181.790772 
L 560.589221 181.790772 
L 560.852943 181.234986 
L 560.905145 180.679199 
L 564.835898 180.679199 
L 564.851138 180.123412 
L 568.197983 180.123412 
L 568.20537 179.567626 
L 569.33935 179.011839 
L 571.352473 179.011839 
L 572.801164 178.456052 
L 574.097639 178.456052 
L 576.008476 175.121332 
L 578.239344 175.121332 
L 578.249676 172.342399 
L 589.466552 172.342399 
L 589.467714 171.786612 
L 589.661722 171.230826 
L 590.736087 171.230826 
L 590.969769 170.675039 
L 594.493755 170.675039 
L 595.308401 170.119252 
L 595.442432 170.675039 
L 601.745472 170.675039 
L 601.746892 170.119252 
L 604.291773 170.119252 
L 605.332844 167.340319 
L 611.715104 167.340319 
L 611.783268 166.228746 
L 613.226276 164.561386 
L 614.674192 164.561386 
L 614.828421 164.005599 
L 620.915059 164.005599 
L 621.02698 163.449812 
L 627.138647 163.449812 
L 627.271773 162.894026 
L 628.956187 161.226666 
L 629.086705 160.670879 
L 645.67995 160.670879 
L 647.250945 157.891946 
L 650.99952 157.891946 
L 651.24369 157.336159 
L 654.059965 157.336159 
L 655.10819 156.224586 
L 669.952293 156.224586 
L 670.140489 155.668799 
L 672.313498 155.668799 
L 672.546276 155.113012 
L 686.861075 155.113012 
L 686.868411 153.445652 
L 687.313019 153.445652 
L 687.49016 152.889866 
L 689.940065 152.889866 
L 690.299306 152.334079 
L 690.30145 152.889866 
L 696.767579 152.889866 
L 698.327467 152.334079 
L 727.42944 152.334079 
L 727.432307 151.778292 
L 739.02046 151.778292 
L 740.470907 151.222506 
L 765.537154 151.222506 
L 765.696782 150.110932 
L 772.350772 150.110932 
L 773.85745 148.999359 
L 781.201043 148.999359 
L 792.632126 148.443572 
L 794.155232 147.887786 
L 796.383672 146.776212 
L 797.755622 146.776212 
L 798.941778 146.220426 
L 799.395479 146.220426 
L 802.894022 145.664639 
L 810.842885 145.664639 
L 811.016384 145.108852 
L 812.012614 145.108852 
L 812.012614 145.108852 
" clip-path="url(#pd44239c1b0)" style="fill: none; stroke: #1a7f37; stroke-width: 2; stroke-linecap: square"/>
   </g>
   <g id="line2d_30">
    <path d="M 85.239886 455.237812 
L 85.309756 453.570452 
L 85.385773 453.570452 
L 85.504564 372.981386 
L 86.49772 372.981386 
L 86.519391 370.758239 
L 87.605715 370.758239 
L 87.885607 369.090879 
L 88.266442 370.758239 
L 88.269257 369.090879 
L 88.584381 369.090879 
L 88.706168 367.979306 
L 91.818169 367.979306 
L 91.821139 367.423519 
L 91.838652 367.979306 
L 91.991822 367.423519 
L 92.03674 367.979306 
L 92.244851 367.423519 
L 93.248597 367.423519 
L 93.461357 366.311946 
L 94.694343 366.311946 
L 96.097469 365.756159 
L 96.146856 365.200372 
L 96.526089 364.644586 
L 96.534303 364.088799 
L 99.367109 367.979306 
L 99.7886 366.311946 
L 100.096362 363.533012 
L 101.828457 363.533012 
L 102.749289 367.979306 
L 102.809034 363.533012 
L 119.635626 363.533012 
L 120.151963 362.977226 
L 121.319445 362.977226 
L 124.50803 362.421439 
L 125.284733 361.865652 
L 136.351511 361.865652 
L 136.641063 361.309866 
L 138.128705 360.754079 
L 139.074231 360.754079 
L 140.122301 360.198292 
L 140.150533 359.086719 
L 140.870978 358.530932 
L 141.355183 357.975146 
L 148.025729 357.975146 
L 149.355448 357.419359 
L 149.757437 357.419359 
L 149.983008 356.863572 
L 150.850167 356.863572 
L 151.711668 356.307786 
L 154.426225 356.307786 
L 154.561987 358.530932 
L 154.568651 356.307786 
L 155.605846 356.307786 
L 155.709966 355.751999 
L 157.178081 355.751999 
L 158.622509 355.196212 
L 158.65756 354.640426 
L 163.072338 354.640426 
L 164.934434 354.084639 
L 164.939135 353.528852 
L 171.135602 353.528852 
L 173.72039 352.973066 
L 175.65964 352.973066 
L 176.186878 352.417279 
L 179.146999 352.417279 
L 180.835338 351.861492 
L 180.927886 351.305706 
L 182.573942 351.305706 
L 182.764979 350.749919 
L 183.290254 350.194132 
L 184.46285 350.194132 
L 185.203183 349.638346 
L 186.560565 349.638346 
L 187.446476 349.082559 
L 189.336391 349.082559 
L 189.98025 347.970986 
L 194.869212 347.970986 
L 196.261542 347.415199 
L 197.894192 347.415199 
L 198.26237 346.859412 
L 198.374962 346.303626 
L 198.71483 345.747839 
L 204.337048 345.747839 
L 205.366418 345.192052 
L 206.020092 344.636266 
L 222.007526 344.636266 
L 225.596319 344.080479 
L 225.639196 343.524692 
L 228.081895 343.524692 
L 230.169718 342.968906 
L 233.859918 342.968906 
L 234.171735 342.413119 
L 240.456307 342.413119 
L 245.375903 341.857332 
L 245.42312 341.301546 
L 246.066282 341.301546 
L 247.369369 340.745759 
L 247.442055 339.078399 
L 247.499397 338.522612 
L 250.221315 337.966826 
L 250.384301 337.411039 
L 250.449263 336.299466 
L 250.695783 335.743679 
L 259.553184 335.743679 
L 262.06942 335.187892 
L 263.671177 334.632106 
L 264.925989 334.632106 
L 267.835381 334.076319 
L 268.054159 331.853172 
L 268.231584 331.853172 
L 268.649898 330.741599 
L 274.168409 330.185812 
L 274.344052 329.630026 
L 274.395866 329.074239 
L 275.561746 329.074239 
L 276.66269 328.518452 
L 276.803565 327.406879 
L 276.875166 326.851092 
L 277.603902 326.295306 
L 277.657395 325.739519 
L 278.98701 325.183732 
L 280.734758 324.627946 
L 280.859051 324.072159 
L 280.861686 323.516372 
L 281.213229 322.960586 
L 281.275324 322.404799 
L 283.810597 321.849012 
L 284.265098 321.293226 
L 294.938153 321.293226 
L 296.708114 320.737439 
L 296.869189 320.181652 
L 304.102877 320.181652 
L 304.378481 319.070079 
L 307.392379 319.070079 
L 308.302312 318.514292 
L 308.346765 317.402719 
L 308.580421 316.846932 
L 310.1276 316.291146 
L 310.162445 315.735359 
L 310.349194 315.179572 
L 310.540567 312.956426 
L 310.753741 312.956426 
L 310.761593 312.400639 
L 312.053212 311.844852 
L 312.561 311.289066 
L 312.683873 310.733279 
L 315.010931 310.177492 
L 316.725875 310.177492 
L 317.321381 309.621706 
L 323.769145 309.621706 
L 325.905244 309.065919 
L 325.913742 308.510132 
L 326.297909 307.954346 
L 331.327798 307.954346 
L 332.739087 307.398559 
L 333.320464 306.842772 
L 333.475598 305.731199 
L 337.544256 305.731199 
L 337.821462 305.175412 
L 340.055688 305.175412 
L 341.125326 304.619626 
L 344.172752 304.619626 
L 346.015062 304.063839 
L 349.840947 304.063839 
L 350.311178 303.508052 
L 352.204064 303.508052 
L 352.719291 302.952266 
L 352.942796 302.396479 
L 353.052883 301.840692 
L 354.611014 301.840692 
L 354.655312 300.729119 
L 355.224136 300.729119 
L 355.597609 299.061759 
L 356.952976 299.061759 
L 357.121309 298.505972 
L 357.251982 298.505972 
L 357.900723 297.950186 
L 358.977284 297.950186 
L 359.015073 297.394399 
L 359.797664 297.394399 
L 359.987746 296.838612 
L 360.723301 296.838612 
L 361.849506 295.727039 
L 362.338077 295.727039 
L 364.227656 294.615466 
L 364.230497 294.059679 
L 364.591262 293.503892 
L 365.511733 292.948106 
L 365.654856 292.392319 
L 366.572589 291.836532 
L 368.072784 291.836532 
L 368.572487 290.724959 
L 370.402115 290.724959 
L 370.454059 290.169172 
L 370.975304 290.169172 
L 371.015315 289.613386 
L 371.301354 289.057599 
L 372.296628 289.057599 
L 372.372335 288.501812 
L 372.542837 288.501812 
L 372.656256 287.390239 
L 374.055818 287.390239 
L 374.332972 286.834452 
L 374.565698 286.834452 
L 374.704792 286.278666 
L 375.060003 286.278666 
L 375.325947 285.722879 
L 375.382023 285.167092 
L 375.458041 285.167092 
L 376.794914 284.611306 
L 377.795328 284.611306 
L 377.871061 284.055519 
L 381.817441 284.055519 
L 381.836374 283.499732 
L 382.058433 283.499732 
L 382.58097 282.388159 
L 383.913814 282.388159 
L 384.037409 280.720799 
L 384.073468 279.609226 
L 384.306427 279.053439 
L 385.243764 279.053439 
L 385.685841 278.497652 
L 386.114332 278.497652 
L 386.252496 277.941866 
L 386.916709 277.386079 
L 387.531303 277.386079 
L 388.766872 276.830292 
L 388.849062 276.274506 
L 389.161861 276.274506 
L 389.224447 275.718719 
L 390.322808 275.718719 
L 390.353313 275.162932 
L 395.67996 275.162932 
L 395.79919 274.607146 
L 395.92072 274.607146 
L 395.990977 273.495572 
L 396.676861 273.495572 
L 396.822826 272.939786 
L 397.297887 272.383999 
L 397.417298 271.828212 
L 397.635483 271.828212 
L 397.820114 271.272426 
L 397.880298 270.716639 
L 400.556808 270.716639 
L 401.232386 270.160852 
L 401.365823 269.049279 
L 401.530255 268.493492 
L 401.804749 268.493492 
L 401.972048 267.937706 
L 405.813146 267.937706 
L 406.066718 266.270346 
L 406.591553 266.270346 
L 406.668604 265.714559 
L 408.719464 265.714559 
L 408.769135 264.602986 
L 411.232316 264.602986 
L 411.257836 264.047199 
L 412.444406 264.047199 
L 412.452387 263.491412 
L 413.0302 263.491412 
L 413.126028 262.935626 
L 414.804759 262.935626 
L 415.0037 262.379839 
L 415.159996 261.824052 
L 415.477264 261.824052 
L 415.485503 261.268266 
L 415.687182 261.268266 
L 416.071917 260.712479 
L 419.179449 260.712479 
L 419.405305 260.156692 
L 420.327351 260.156692 
L 420.329056 259.600906 
L 427.378681 259.600906 
L 428.575195 259.045119 
L 428.609884 258.489332 
L 429.215619 257.933546 
L 430.136684 257.933546 
L 430.423162 256.266186 
L 432.884251 256.266186 
L 433.325993 255.710399 
L 437.55725 255.710399 
L 437.570268 255.154612 
L 438.95224 255.154612 
L 439.542838 254.598826 
L 446.047403 254.598826 
L 446.128586 253.487252 
L 448.686718 253.487252 
L 449.195539 252.931466 
L 449.740419 252.931466 
L 450.406517 252.375679 
L 454.80944 252.375679 
L 455.23106 251.819892 
L 455.596396 251.819892 
L 455.775526 251.264106 
L 457.178136 250.708319 
L 457.864744 250.708319 
L 458.161502 250.152532 
L 460.132032 249.596746 
L 463.760163 249.596746 
L 464.044085 249.040959 
L 478.047686 249.040959 
L 478.559349 248.485172 
L 481.797708 248.485172 
L 481.914743 247.929386 
L 482.125101 247.929386 
L 482.188513 247.373599 
L 500.273378 247.373599 
L 500.853567 246.817812 
L 505.171613 246.817812 
L 506.109622 246.262026 
L 506.172492 245.706239 
L 508.419142 245.706239 
L 508.512362 245.150452 
L 515.789495 245.150452 
L 515.804399 244.594666 
L 521.947501 244.594666 
L 522.013625 244.038879 
L 522.412618 243.483092 
L 523.920097 243.483092 
L 523.923558 242.927306 
L 524.354141 242.371519 
L 526.493288 242.371519 
L 527.241061 241.815732 
L 532.067411 241.815732 
L 532.101403 240.704159 
L 562.69466 240.704159 
L 564.851138 240.148372 
L 567.564249 240.148372 
L 567.654395 239.592586 
L 579.682894 239.592586 
L 579.703093 239.036799 
L 592.26441 239.036799 
L 592.393895 238.481012 
L 593.141229 238.481012 
L 593.160704 237.925226 
L 593.329605 237.369439 
L 593.986638 236.257866 
L 594.083216 235.146292 
L 594.139034 234.034719 
L 594.307315 233.478932 
L 594.493755 232.367359 
L 595.442432 232.367359 
L 595.565924 231.255786 
L 595.921678 230.699999 
L 601.746892 230.699999 
L 602.374763 229.588426 
L 620.748405 229.588426 
L 620.905735 229.032639 
L 632.080146 229.032639 
L 632.345754 227.921066 
L 633.548415 227.921066 
L 633.709516 227.365279 
L 640.854891 227.365279 
L 641.033453 226.809492 
L 643.842031 226.809492 
L 644.592128 226.253706 
L 644.662669 225.697919 
L 648.876621 225.697919 
L 649.007888 224.586346 
L 649.551528 224.030559 
L 650.060039 224.030559 
L 650.99952 223.474772 
L 653.700285 223.474772 
L 653.741457 222.918986 
L 654.059965 222.363199 
L 656.263686 222.363199 
L 658.598932 221.807412 
L 670.140489 221.807412 
L 671.504715 221.251626 
L 672.009791 220.695839 
L 672.313498 219.584266 
L 673.937624 219.584266 
L 680.555039 218.472692 
L 682.215508 218.472692 
L 682.398434 217.361119 
L 682.623076 217.361119 
L 682.737037 216.805332 
L 692.03667 216.805332 
L 692.04757 216.249546 
L 707.587632 216.249546 
L 709.653138 215.693759 
L 709.776733 214.582186 
L 709.855101 214.582186 
L 709.942431 213.470612 
L 710.06458 213.470612 
L 710.081163 212.914826 
L 711.477677 212.914826 
L 711.616461 212.359039 
L 711.695087 211.803252 
L 711.999827 211.247466 
L 712.224417 211.247466 
L 712.678298 210.691679 
L 722.732962 210.691679 
L 722.761375 210.135892 
L 727.289546 210.135892 
L 727.360138 209.580106 
L 727.432307 209.580106 
L 728.113878 209.024319 
L 730.481024 209.024319 
L 732.036882 208.468532 
L 739.011988 208.468532 
L 739.02046 207.356959 
L 740.996698 207.356959 
L 741.055513 206.801172 
L 741.736283 206.245386 
L 741.790293 205.689599 
L 742.688783 205.689599 
L 742.719236 205.133812 
L 745.191742 205.133812 
L 745.300847 204.022239 
L 747.365088 204.022239 
L 747.398124 202.354879 
L 747.512602 201.799092 
L 747.79815 201.799092 
L 747.852186 201.243306 
L 749.432582 201.243306 
L 749.443199 200.687519 
L 749.868176 200.687519 
L 751.686129 194.573866 
L 752.926761 194.573866 
L 752.94355 194.018079 
L 759.215413 194.018079 
L 759.46325 192.350719 
L 764.406687 192.350719 
L 765.2203 191.239146 
L 765.408263 185.681279 
L 765.537154 185.125492 
L 773.85745 185.125492 
L 774.453189 182.902346 
L 774.45541 179.567626 
L 797.165385 179.567626 
L 797.429831 179.011839 
L 810.182572 179.011839 
L 810.214756 172.342399 
L 812.012614 172.342399 
L 812.012614 172.342399 
" clip-path="url(#pd44239c1b0)" style="fill: none; stroke: #0969da; stroke-width: 2; stroke-linecap: square"/>
   </g>
   <g id="line2d_31">
    <path d="M 85.239886 455.237812 
L 87.384586 455.237812 
L 87.3928 454.126239 
L 89.163382 454.126239 
L 89.567773 453.570452 
L 198.71483 453.570452 
L 199.910466 453.014666 
L 230.169718 453.014666 
L 231.00947 452.458879 
L 259.553184 452.458879 
L 262.06942 451.903092 
L 268.649898 451.903092 
L 274.395866 450.235732 
L 275.561746 449.124159 
L 277.657395 449.124159 
L 278.98701 448.568372 
L 280.861686 448.012586 
L 281.275324 448.012586 
L 283.810597 447.456799 
L 284.265098 446.901012 
L 286.300486 446.345226 
L 290.279206 445.789439 
L 290.30222 446.345226 
L 296.869189 446.345226 
L 297.330251 445.789439 
L 306.702078 445.789439 
L 307.392379 445.233652 
L 310.540567 445.233652 
L 310.761593 444.677866 
L 314.67176 444.677866 
L 315.010931 444.122079 
L 329.335235 444.122079 
L 330.67699 443.566292 
L 331.240906 443.566292 
L 331.327798 443.010506 
L 335.150841 443.010506 
L 335.154483 442.454719 
L 344.15852 442.454719 
L 344.172752 441.898932 
L 346.796207 441.898932 
L 347.465044 441.343146 
L 348.4504 440.787359 
L 348.45213 440.231572 
L 348.607212 440.231572 
L 349.840947 438.564212 
L 350.672047 438.564212 
L 350.719883 436.896852 
L 351.041025 436.896852 
L 352.204064 437.452639 
L 353.040484 437.452639 
L 353.052883 435.229492 
L 356.167208 435.229492 
L 356.630052 434.673706 
L 357.121309 434.673706 
L 357.251982 434.117919 
L 368.422571 434.117919 
L 368.572487 433.562132 
L 369.135241 433.562132 
L 370.008934 433.006346 
L 373.863541 433.006346 
L 374.055818 432.450559 
L 375.382023 432.450559 
L 375.458041 431.894772 
L 379.850192 431.894772 
L 379.938607 431.338986 
L 380.254144 431.338986 
L 380.574175 430.783199 
L 380.893897 430.783199 
L 380.912856 430.227412 
L 382.272381 430.227412 
L 382.353565 429.671626 
L 388.665051 429.671626 
L 388.784281 429.115839 
L 388.949308 428.560052 
L 389.224447 428.560052 
L 390.011378 428.004266 
L 393.087939 428.004266 
L 393.090652 427.448479 
L 393.678512 427.448479 
L 393.700881 426.892692 
L 395.369563 426.892692 
L 395.778397 426.336906 
L 397.943839 426.336906 
L 398.588809 425.781119 
L 399.84313 425.781119 
L 399.954121 424.669546 
L 399.95815 424.669546 
L 400.086163 424.113759 
L 402.103961 424.113759 
L 402.415313 423.557972 
L 402.899286 423.557972 
L 403.081335 423.002186 
L 404.262635 423.002186 
L 404.427584 422.446399 
L 404.429702 421.890612 
L 404.762183 421.890612 
L 404.901794 421.334826 
L 417.626897 421.334826 
L 417.653915 420.223252 
L 419.405305 420.223252 
L 419.909373 419.667466 
L 420.329056 419.667466 
L 422.297829 419.111679 
L 422.663244 419.111679 
L 423.446197 418.555892 
L 423.970309 418.555892 
L 424.395519 418.000106 
L 424.825663 418.555892 
L 426.210373 418.555892 
L 426.58692 418.000106 
L 426.673114 416.888532 
L 427.373954 416.332746 
L 427.378681 415.221172 
L 430.438066 415.221172 
L 431.107135 414.665386 
L 431.174938 412.998026 
L 431.843672 412.442239 
L 432.213503 411.886452 
L 435.376569 411.886452 
L 435.510781 410.219092 
L 435.672114 410.219092 
L 435.791731 409.663306 
L 436.564766 409.107519 
L 437.781582 409.107519 
L 438.03226 408.551732 
L 438.089292 407.995946 
L 438.217201 407.995946 
L 438.95224 406.884372 
L 439.739765 406.884372 
L 439.998347 406.328586 
L 440.906781 406.328586 
L 440.909777 405.217012 
L 441.532095 405.217012 
L 442.358261 404.661226 
L 444.547053 403.549652 
L 444.840712 402.993866 
L 449.195539 402.993866 
L 449.740419 401.882292 
L 458.059965 401.882292 
L 458.161502 400.770719 
L 462.210969 400.770719 
L 462.829697 400.214932 
L 464.707291 400.214932 
L 464.812676 399.659146 
L 476.363841 399.659146 
L 476.548214 399.103359 
L 477.692371 399.103359 
L 478.047686 398.547572 
L 480.183036 398.547572 
L 480.584638 397.991786 
L 480.587272 397.435999 
L 481.046578 396.880212 
L 482.447483 396.880212 
L 482.55447 396.324426 
L 482.562141 395.212852 
L 482.569761 395.768639 
L 483.511154 395.212852 
L 486.9086 395.212852 
L 487.578754 394.101279 
L 493.708812 394.101279 
L 494.182763 393.545492 
L 495.669862 393.545492 
L 495.788911 392.989706 
L 495.805288 392.433919 
L 500.853567 392.433919 
L 503.988582 391.322346 
L 504.732687 391.322346 
L 505.171613 390.766559 
L 511.665432 390.766559 
L 512.463624 390.210772 
L 513.452673 390.210772 
L 514.410571 389.654986 
L 522.412618 389.654986 
L 522.632223 389.099199 
L 522.633411 388.543412 
L 527.113436 388.543412 
L 527.330664 387.987626 
L 547.233198 387.987626 
L 549.787817 387.431839 
L 555.65188 387.431839 
L 556.934639 386.876052 
L 558.063299 386.876052 
L 558.381444 386.320266 
L 560.905145 386.320266 
L 561.349108 385.764479 
L 561.934643 385.764479 
L 562.69466 385.208692 
L 564.51641 385.208692 
L 564.851138 384.652906 
L 565.075367 384.652906 
L 565.891692 384.097119 
L 573.778331 384.097119 
L 573.80039 382.429759 
L 580.681914 382.429759 
L 583.600036 381.873972 
L 583.602412 381.318186 
L 587.024241 381.318186 
L 587.16788 380.762399 
L 587.278019 380.206612 
L 588.770594 380.206612 
L 589.467714 379.650826 
L 589.96641 379.650826 
L 590.736087 379.095039 
L 591.562046 379.095039 
L 591.704782 377.983466 
L 592.393895 377.983466 
L 592.531232 377.427679 
L 594.081873 377.427679 
L 594.139034 376.871892 
L 596.583153 376.871892 
L 598.353812 376.316106 
L 598.934595 376.316106 
L 599.504736 375.760319 
L 600.682498 375.204532 
L 600.687535 374.648746 
L 601.012318 372.981386 
L 601.309103 372.425599 
L 601.746892 371.869812 
L 602.920133 371.869812 
L 603.631641 370.202452 
L 605.332844 370.202452 
L 605.793467 368.535092 
L 607.665404 368.535092 
L 607.863622 367.979306 
L 609.220384 367.979306 
L 609.515231 366.867732 
L 610.026119 366.311946 
L 611.783268 366.311946 
L 614.828421 365.200372 
L 616.780819 364.644586 
L 616.913455 364.088799 
L 618.760156 364.088799 
L 618.878302 363.533012 
L 620.905735 363.533012 
L 620.915059 362.977226 
L 621.295119 362.977226 
L 621.37842 362.421439 
L 627.138647 362.421439 
L 627.271773 361.865652 
L 629.086705 361.309866 
L 632.071596 361.309866 
L 632.080146 360.754079 
L 643.030846 360.754079 
L 643.842031 358.530932 
L 648.335951 358.530932 
L 648.342589 357.419359 
L 654.059965 357.419359 
L 655.105968 355.751999 
L 655.10819 355.196212 
L 659.149675 355.196212 
L 660.509485 354.084639 
L 660.57034 353.528852 
L 685.978058 353.528852 
L 686.991128 352.973066 
L 689.661568 352.973066 
L 689.940065 351.861492 
L 716.914334 351.861492 
L 717.414838 349.638346 
L 739.02046 349.638346 
L 740.470907 349.082559 
L 749.866807 349.082559 
L 749.868176 344.636266 
L 765.537154 344.636266 
L 765.696782 344.080479 
L 781.201043 344.080479 
L 792.632126 343.524692 
L 794.155232 342.968906 
L 797.755622 342.968906 
L 798.941778 342.413119 
L 799.395479 341.857332 
L 810.842885 341.857332 
L 811.016384 341.301546 
L 812.012614 341.301546 
L 812.012614 341.301546 
" clip-path="url(#pd44239c1b0)" style="fill: none; stroke: #bf8700; stroke-width: 2; stroke-linecap: square"/>
   </g>
   <g id="line2d_32">
    <path d="M 85.239886 454.682026 
L 85.42333 454.682026 
L 85.504564 432.450559 
L 85.929103 426.892692 
L 86.171696 425.781119 
L 86.294775 426.336906 
L 86.519391 425.781119 
L 86.89927 425.225332 
L 87.3928 423.002186 
L 87.605715 421.334826 
L 87.885607 421.334826 
L 88.266442 420.779039 
L 88.269257 420.223252 
L 88.575883 419.667466 
L 88.660424 419.111679 
L 88.706168 419.111679 
L 89.490051 418.000106 
L 89.567773 411.886452 
L 89.621525 412.442239 
L 89.883517 404.661226 
L 89.97498 402.993866 
L 91.821139 402.993866 
L 91.991822 399.659146 
L 92.03674 402.438079 
L 92.244851 397.991786 
L 92.347912 397.435999 
L 93.115755 396.880212 
L 93.248597 395.768639 
L 93.461357 395.768639 
L 93.856786 395.212852 
L 94.068022 394.657066 
L 94.424112 391.878132 
L 94.622588 392.433919 
L 94.694343 390.766559 
L 96.534303 390.766559 
L 99.367109 402.993866 
L 99.7886 390.210772 
L 100.096362 389.654986 
L 101.196557 389.654986 
L 101.397797 389.099199 
L 101.828457 388.543412 
L 102.749289 402.993866 
L 102.809034 387.987626 
L 103.515634 387.431839 
L 105.026703 386.876052 
L 105.134465 387.431839 
L 105.354586 385.764479 
L 105.839644 385.764479 
L 105.987029 385.208692 
L 106.265397 384.652906 
L 106.288489 383.541332 
L 106.545263 382.429759 
L 106.560141 382.985546 
L 106.712872 382.985546 
L 107.088283 378.539252 
L 107.419008 376.871892 
L 107.58065 377.983466 
L 108.723568 374.648746 
L 109.024511 375.760319 
L 110.262998 373.537172 
L 111.244143 377.427679 
L 111.58848 373.537172 
L 113.002636 371.869812 
L 115.087876 371.869812 
L 115.363273 371.314026 
L 115.582439 369.646666 
L 116.198299 371.314026 
L 118.710402 371.869812 
L 119.333572 369.646666 
L 119.635626 367.979306 
L 120.151963 369.646666 
L 121.319445 367.979306 
L 125.284733 367.979306 
L 129.454257 367.423519 
L 129.732314 366.867732 
L 132.364655 366.311946 
L 134.105274 366.311946 
L 134.429283 365.756159 
L 134.499773 366.311946 
L 136.351511 364.644586 
L 138.088385 364.644586 
L 138.128705 364.088799 
L 139.074231 363.533012 
L 141.355183 363.533012 
L 142.361357 359.642506 
L 143.110241 359.086719 
L 144.073873 358.530932 
L 144.092574 357.975146 
L 147.704226 357.975146 
L 147.773992 354.084639 
L 147.907661 354.084639 
L 148.025729 352.973066 
L 149.355448 352.973066 
L 149.757437 352.417279 
L 151.711668 352.417279 
L 154.426225 351.861492 
L 154.561987 363.533012 
L 154.568651 352.417279 
L 154.742511 351.861492 
L 155.709966 351.861492 
L 157.178081 351.305706 
L 158.65756 351.305706 
L 159.83279 350.749919 
L 163.072338 349.638346 
L 164.939135 349.638346 
L 166.439434 349.082559 
L 166.672883 346.303626 
L 166.830884 346.303626 
L 167.110466 345.747839 
L 168.568791 345.192052 
L 168.905896 342.968906 
L 170.921421 341.857332 
L 170.945701 342.413119 
L 171.135602 341.857332 
L 173.72039 340.745759 
L 175.65964 340.189972 
L 176.586181 340.189972 
L 177.407413 339.634186 
L 178.119102 338.522612 
L 178.873952 337.966826 
L 179.146999 337.411039 
L 180.927886 337.966826 
L 182.573942 336.855252 
L 182.764979 337.411039 
L 183.202459 337.411039 
L 183.290254 336.855252 
L 184.46285 336.299466 
L 185.203183 336.855252 
L 186.560565 335.743679 
L 187.446476 335.743679 
L 189.336391 335.187892 
L 189.649784 335.743679 
L 189.98025 334.076319 
L 191.126964 334.076319 
L 191.353853 333.520532 
L 192.341275 331.297386 
L 192.620263 330.185812 
L 193.344737 330.741599 
L 193.66389 329.630026 
L 193.695816 329.074239 
L 196.261542 329.074239 
L 197.561013 328.518452 
L 197.894192 327.962666 
L 199.910466 327.962666 
L 201.329194 327.406879 
L 203.738882 327.406879 
L 204.337048 326.851092 
L 210.963271 326.851092 
L 211.343821 326.295306 
L 211.381946 325.739519 
L 211.639624 325.183732 
L 214.515463 325.183732 
L 214.694696 324.627946 
L 215.426376 324.072159 
L 215.553097 323.516372 
L 216.765342 322.960586 
L 217.647042 322.404799 
L 221.179603 322.404799 
L 222.007526 321.293226 
L 225.639196 321.293226 
L 226.447979 320.737439 
L 229.832561 320.737439 
L 230.169718 320.181652 
L 231.00947 319.625866 
L 231.259451 319.070079 
L 231.344328 318.514292 
L 233.859918 317.958506 
L 234.171735 318.514292 
L 237.483349 317.402719 
L 240.10169 316.291146 
L 240.456307 315.735359 
L 245.42312 315.735359 
L 246.066282 315.179572 
L 250.695783 315.179572 
L 255.05668 314.623786 
L 255.605202 314.067999 
L 257.435372 313.512212 
L 259.270709 312.956426 
L 259.553184 312.400639 
L 263.671177 312.400639 
L 264.925989 311.844852 
L 274.395866 311.844852 
L 275.561746 311.289066 
L 283.384121 311.289066 
L 283.810597 310.733279 
L 284.265098 311.289066 
L 286.300486 310.733279 
L 293.150395 310.733279 
L 294.068334 310.177492 
L 308.559034 310.177492 
L 308.580421 309.621706 
L 317.529879 309.621706 
L 319.496121 309.065919 
L 319.501158 308.510132 
L 329.33087 308.510132 
L 329.335235 307.398559 
L 335.154483 307.398559 
L 337.821462 306.842772 
L 341.125326 306.842772 
L 344.172752 305.731199 
L 350.311178 305.731199 
L 350.672047 305.175412 
L 350.719883 304.619626 
L 353.040484 304.619626 
L 353.052883 304.063839 
L 353.293849 304.063839 
L 353.677964 303.508052 
L 357.121309 303.508052 
L 357.251982 302.952266 
L 361.849506 302.952266 
L 362.037831 302.396479 
L 373.265736 302.396479 
L 373.862689 300.729119 
L 373.863541 300.173332 
L 375.454244 300.173332 
L 375.458041 299.617546 
L 380.15005 299.617546 
L 380.254144 299.061759 
L 382.500278 299.061759 
L 382.58097 298.505972 
L 390.925236 298.505972 
L 391.195106 297.950186 
L 393.022513 297.950186 
L 393.090652 297.394399 
L 393.700881 296.838612 
L 409.021957 296.838612 
L 409.819943 295.727039 
L 411.014416 295.727039 
L 411.257836 295.171252 
L 412.452387 295.171252 
L 412.629425 294.615466 
L 415.45177 294.615466 
L 415.485503 294.059679 
L 431.105818 294.059679 
L 431.174938 292.948106 
L 450.699712 292.948106 
L 451.206802 292.392319 
L 484.543158 292.392319 
L 486.1094 291.836532 
L 500.197594 291.836532 
L 500.273378 291.280746 
L 506.580629 291.280746 
L 506.887202 290.724959 
L 631.71964 290.724959 
L 632.080146 290.169172 
L 647.929855 290.169172 
L 648.342589 289.613386 
L 654.059965 289.613386 
L 655.095869 289.057599 
L 655.10819 285.167092 
L 660.506463 285.167092 
L 660.57034 282.388159 
L 728.113878 282.388159 
L 728.550324 281.832372 
L 760.777109 281.832372 
L 764.406687 281.276586 
L 777.453423 281.276586 
L 777.458615 280.720799 
L 798.941778 280.720799 
L 799.395479 279.053439 
L 812.012614 279.053439 
L 812.012614 279.053439 
" clip-path="url(#pd44239c1b0)" style="fill: none; stroke: #cf222e; stroke-width: 2; stroke-linecap: square"/>
   </g>
   <g id="line2d_33">
    <path d="M 85.239886 454.682026 
L 85.25448 454.126239 
L 85.369541 -1 
M 85.472958 -1 
L 85.586806 101.201706 
L 87.384586 101.201706 
L 87.3928 97.866986 
L 89.567773 97.866986 
L 89.723217 98.422772 
L 89.97498 98.422772 
L 90.219691 98.978559 
L 91.73603 99.534346 
L 91.765967 98.978559 
L 91.838652 99.534346 
L 96.534303 99.534346 
L 99.367109 98.422772 
L 99.7886 99.534346 
L 100.096362 98.978559 
L 100.872031 99.534346 
L 101.196557 96.755412 
L 101.828457 96.755412 
L 102.749289 98.422772 
L 102.809034 95.643839 
L 103.515634 96.199626 
L 105.354586 96.199626 
L 105.839644 95.088052 
L 106.560141 95.088052 
L 106.796613 91.197546 
L 111.244143 91.197546 
L 111.58848 86.751252 
L 113.002636 86.751252 
L 115.087876 82.860746 
L 116.181742 82.860746 
L 116.198299 83.416532 
L 118.710402 83.416532 
L 119.333572 80.081812 
L 121.305755 80.081812 
L 121.319445 80.637599 
L 132.364655 80.637599 
L 134.429283 81.193386 
L 134.499773 80.637599 
L 136.641063 81.193386 
L 144.092574 81.193386 
L 147.704226 81.749172 
L 147.773992 74.523946 
L 147.945554 75.079732 
L 149.983008 75.079732 
L 150.850167 75.635519 
L 154.426225 75.635519 
L 154.561987 80.637599 
L 154.568651 71.745012 
L 154.742511 71.745012 
L 155.709966 73.968159 
L 159.83279 73.968159 
L 163.072338 70.077652 
L 166.672883 70.077652 
L 166.830884 68.410292 
L 176.186878 68.410292 
L 176.586181 68.966079 
L 178.857938 68.966079 
L 178.873952 70.077652 
L 183.202459 70.077652 
L 183.290254 73.412372 
L 189.98025 73.412372 
L 190.140033 68.410292 
L 191.124614 67.298719 
L 191.126964 67.854506 
L 191.353853 67.854506 
L 192.162223 65.075572 
L 193.344737 65.075572 
L 193.66389 65.631359 
L 193.695816 65.075572 
L 194.426644 65.631359 
L 194.429976 66.187146 
L 194.44705 65.631359 
L 194.869212 63.408212 
L 198.71483 63.408212 
L 199.910466 63.963999 
L 201.329194 63.963999 
L 203.738882 64.519786 
L 206.020092 64.519786 
L 207.782563 65.631359 
L 211.381946 65.075572 
L 211.639624 65.075572 
L 213.883304 66.187146 
L 214.515463 65.631359 
L 217.647042 65.631359 
L 221.177692 67.854506 
L 221.179603 67.298719 
L 226.447979 67.298719 
L 228.081895 67.854506 
L 257.200218 67.854506 
L 257.435372 68.410292 
L 259.257613 68.410292 
L 259.270709 66.742932 
L 268.054159 66.742932 
L 268.231584 67.298719 
L 286.300486 67.298719 
L 290.279206 67.854506 
L 290.30222 67.298719 
L 293.150395 68.966079 
L 294.068334 68.966079 
L 294.938153 68.410292 
L 297.330251 68.410292 
L 299.612598 68.966079 
L 299.616343 69.521866 
L 306.087664 67.854506 
L 306.702078 68.410292 
L 314.67176 68.410292 
L 315.010931 67.854506 
L 315.632241 68.410292 
L 315.84575 70.633439 
L 319.498007 70.633439 
L 319.501158 71.189226 
L 330.67699 71.189226 
L 331.327798 71.745012 
L 333.475598 71.745012 
L 333.685129 72.300799 
L 344.15852 72.300799 
L 344.172752 72.856586 
L 346.015062 72.856586 
L 346.792307 73.412372 
L 346.796207 73.968159 
L 347.431853 73.412372 
L 347.465044 73.968159 
L 348.45213 73.968159 
L 348.607212 74.523946 
L 350.672047 74.523946 
L 350.719883 73.412372 
L 351.041025 74.523946 
L 352.204064 72.856586 
L 355.01649 72.856586 
L 355.327016 71.189226 
L 356.167208 71.189226 
L 356.630052 72.300799 
L 359.015073 72.300799 
L 359.797664 72.856586 
L 359.987746 72.856586 
L 360.723301 70.077652 
L 362.037831 70.077652 
L 362.338077 70.633439 
L 368.422571 70.633439 
L 368.572487 71.189226 
L 369.135241 71.189226 
L 370.008934 71.745012 
L 379.850192 71.745012 
L 379.938607 72.300799 
L 380.254144 72.300799 
L 380.912856 73.412372 
L 381.836374 73.412372 
L 382.058433 72.856586 
L 382.272381 72.856586 
L 382.353565 73.412372 
L 384.823307 73.412372 
L 385.243764 73.968159 
L 387.393475 73.968159 
L 387.531303 74.523946 
L 388.708832 74.523946 
L 388.849062 75.079732 
L 392.44377 75.079732 
L 392.522448 75.635519 
L 394.656713 75.635519 
L 395.369563 77.858666 
L 396.159904 77.858666 
L 396.16073 78.414452 
L 399.369825 78.414452 
L 399.95815 78.970239 
L 402.415313 78.970239 
L 402.899286 79.526026 
L 404.762183 79.526026 
L 404.901794 80.081812 
L 407.931345 80.081812 
L 408.712258 80.637599 
L 408.769135 81.193386 
L 409.021957 81.193386 
L 409.819943 60.629279 
L 412.294722 60.629279 
L 412.312545 61.185066 
L 412.452387 61.185066 
L 412.629425 60.629279 
L 414.667809 60.629279 
L 414.892244 61.185066 
L 415.159996 61.185066 
L 415.429323 61.740852 
L 415.485503 61.185066 
L 416.583218 61.185066 
L 416.591794 61.740852 
L 416.829738 61.740852 
L 416.933935 62.296639 
L 417.653915 62.852426 
L 422.663244 62.852426 
L 423.446197 63.408212 
L 423.970309 63.408212 
L 424.395519 63.963999 
L 424.825663 63.408212 
L 426.596735 63.408212 
L 426.673114 64.519786 
L 429.215619 64.519786 
L 430.20211 66.187146 
L 440.909777 66.187146 
L 441.532095 66.742932 
L 458.059965 66.742932 
L 458.161502 67.298719 
L 482.447483 67.298719 
L 482.562141 68.410292 
L 482.569761 67.854506 
L 486.1094 67.854506 
L 486.9086 68.410292 
L 500.853567 68.410292 
L 503.988582 68.966079 
L 504.726514 69.521866 
L 504.732687 67.854506 
L 527.113436 67.854506 
L 527.330664 68.410292 
L 547.233198 68.410292 
L 549.787817 68.966079 
L 551.350443 68.966079 
L 551.520016 69.521866 
L 552.606107 70.077652 
L 555.65188 70.077652 
L 556.934639 70.633439 
L 558.276911 70.633439 
L 558.381444 71.189226 
L 560.589221 71.189226 
L 560.852943 71.745012 
L 560.905145 72.300799 
L 564.835898 72.300799 
L 564.851138 72.856586 
L 567.654395 72.856586 
L 568.197983 72.300799 
L 568.20537 72.856586 
L 569.33935 73.412372 
L 571.352473 73.412372 
L 572.801164 73.968159 
L 574.097639 73.968159 
L 576.008476 61.740852 
L 578.239344 61.740852 
L 578.249676 64.519786 
L 589.466552 64.519786 
L 589.467714 65.075572 
L 589.661722 65.631359 
L 590.736087 65.631359 
L 590.969769 66.187146 
L 594.493755 66.187146 
L 595.308401 66.742932 
L 595.442432 66.187146 
L 601.745472 66.187146 
L 601.746892 66.742932 
L 611.715104 66.742932 
L 611.783268 67.854506 
L 613.226276 69.521866 
L 614.674192 69.521866 
L 614.828421 70.077652 
L 620.915059 70.077652 
L 621.02698 70.633439 
L 627.138647 70.633439 
L 627.271773 71.189226 
L 628.956187 72.856586 
L 629.086705 73.412372 
L 645.67995 73.412372 
L 647.250945 76.191306 
L 650.99952 76.191306 
L 651.24369 76.747092 
L 654.059965 76.747092 
L 655.10819 77.858666 
L 669.952293 77.858666 
L 670.140489 78.414452 
L 672.313498 78.414452 
L 672.546276 78.970239 
L 686.861075 78.970239 
L 686.868411 80.637599 
L 687.313019 80.637599 
L 687.49016 81.193386 
L 689.940065 81.193386 
L 690.299306 81.749172 
L 690.30145 81.193386 
L 696.767579 81.193386 
L 698.327467 81.749172 
L 727.42944 81.749172 
L 727.432307 82.304959 
L 739.02046 82.304959 
L 740.470907 82.860746 
L 765.537154 82.860746 
L 765.696782 83.972319 
L 772.350772 83.972319 
L 773.85745 85.083892 
L 781.201043 85.083892 
L 792.632126 85.639679 
L 794.155232 86.195466 
L 796.383672 87.307039 
L 797.755622 87.307039 
L 798.941778 87.862826 
L 799.395479 87.862826 
L 802.894022 88.418612 
L 810.842885 88.418612 
L 811.016384 88.974399 
L 812.012614 88.974399 
L 812.012614 88.974399 
" clip-path="url(#pd44239c1b0)" style="fill: none; stroke: #9467bd; stroke-width: 2; stroke-linecap: square"/>
   </g>
   <g id="patch_3">
    <path d="M 48.90125 455.237812 
L 48.90125 38.397812 
" style="fill: none; stroke: #d0d7de; stroke-width: 0.8; stroke-linejoin: miter; stroke-linecap: square"/>
   </g>
   <g id="patch_4">
    <path d="M 848.35125 455.237812 
L 848.35125 38.397812 
" style="fill: none; stroke: #d0d7de; stroke-width: 0.8; stroke-linejoin: miter; stroke-linecap: square"/>
   </g>
   <g id="patch_5">
    <path d="M 48.90125 455.237812 
L 848.35125 455.237812 
" style="fill: none; stroke: #d0d7de; stroke-width: 0.8; stroke-linejoin: miter; stroke-linecap: square"/>
   </g>
   <g id="patch_6">
    <path d="M 48.90125 38.397812 
L 848.35125 38.397812 
" style="fill: none; stroke: #d0d7de; stroke-width: 0.8; stroke-linejoin: miter; stroke-linecap: square"/>
   </g>
   <g id="text_17">
    <!-- 558 -->
    <g style="fill: #1a7f37" transform="translate(817.012614 147.59229) scale(0.09 -0.09)">
     <defs>
      <path id="DejaVuSans-Bold-35" d="M 678 4666 
L 3669 4666 
L 3669 3781 
L 1638 3781 
L 1638 3059 
Q 1775 3097 1914 3117 
Q 2053 3138 2203 3138 
Q 3056 3138 3531 2711 
Q 4006 2284 4006 1522 
Q 4006 766 3489 337 
Q 2972 -91 2053 -91 
Q 1656 -91 1267 -14 
Q 878 63 494 219 
L 494 1166 
Q 875 947 1217 837 
Q 1559 728 1863 728 
Q 2300 728 2551 942 
Q 2803 1156 2803 1522 
Q 2803 1891 2551 2103 
Q 2300 2316 1863 2316 
Q 1603 2316 1309 2248 
Q 1016 2181 678 2041 
L 678 4666 
z
" transform="scale(0.015625)"/>
      <path id="DejaVuSans-Bold-38" d="M 2228 2088 
Q 1891 2088 1709 1903 
Q 1528 1719 1528 1375 
Q 1528 1031 1709 848 
Q 1891 666 2228 666 
Q 2563 666 2741 848 
Q 2919 1031 2919 1375 
Q 2919 1722 2741 1905 
Q 2563 2088 2228 2088 
z
M 1350 2484 
Q 925 2613 709 2878 
Q 494 3144 494 3541 
Q 494 4131 934 4440 
Q 1375 4750 2228 4750 
Q 3075 4750 3515 4442 
Q 3956 4134 3956 3541 
Q 3956 3144 3739 2878 
Q 3522 2613 3097 2484 
Q 3572 2353 3814 2058 
Q 4056 1763 4056 1313 
Q 4056 619 3595 264 
Q 3134 -91 2228 -91 
Q 1319 -91 855 264 
Q 391 619 391 1313 
Q 391 1763 633 2058 
Q 875 2353 1350 2484 
z
M 1631 3419 
Q 1631 3141 1786 2991 
Q 1941 2841 2228 2841 
Q 2509 2841 2662 2991 
Q 2816 3141 2816 3419 
Q 2816 3697 2662 3845 
Q 2509 3994 2228 3994 
Q 1941 3994 1786 3844 
Q 1631 3694 1631 3419 
z
" transform="scale(0.015625)"/>
     </defs>
     <use xlink:href="#DejaVuSans-Bold-35"/>
     <use xlink:href="#DejaVuSans-Bold-35" transform="translate(69.580078 0)"/>
     <use xlink:href="#DejaVuSans-Bold-38" transform="translate(139.160156 0)"/>
    </g>
   </g>
   <g id="text_18">
    <!-- 509 -->
    <g style="fill: #0969da" transform="translate(817.012614 174.825837) scale(0.09 -0.09)">
     <defs>
      <path id="DejaVuSans-Bold-30" d="M 2944 2338 
Q 2944 3213 2780 3570 
Q 2616 3928 2228 3928 
Q 1841 3928 1675 3570 
Q 1509 3213 1509 2338 
Q 1509 1453 1675 1090 
Q 1841 728 2228 728 
Q 2613 728 2778 1090 
Q 2944 1453 2944 2338 
z
M 4147 2328 
Q 4147 1169 3647 539 
Q 3147 -91 2228 -91 
Q 1306 -91 806 539 
Q 306 1169 306 2328 
Q 306 3491 806 4120 
Q 1306 4750 2228 4750 
Q 3147 4750 3647 4120 
Q 4147 3491 4147 2328 
z
" transform="scale(0.015625)"/>
      <path id="DejaVuSans-Bold-39" d="M 641 103 
L 641 966 
Q 928 831 1190 764 
Q 1453 697 1709 697 
Q 2247 697 2547 995 
Q 2847 1294 2900 1881 
Q 2688 1725 2447 1647 
Q 2206 1569 1925 1569 
Q 1209 1569 770 1986 
Q 331 2403 331 3084 
Q 331 3838 820 4291 
Q 1309 4744 2131 4744 
Q 3044 4744 3544 4128 
Q 4044 3513 4044 2388 
Q 4044 1231 3459 570 
Q 2875 -91 1856 -91 
Q 1528 -91 1228 -42 
Q 928 6 641 103 
z
M 2125 2350 
Q 2441 2350 2600 2554 
Q 2759 2759 2759 3169 
Q 2759 3575 2600 3781 
Q 2441 3988 2125 3988 
Q 1809 3988 1650 3781 
Q 1491 3575 1491 3169 
Q 1491 2759 1650 2554 
Q 1809 2350 2125 2350 
z
" transform="scale(0.015625)"/>
     </defs>
     <use xlink:href="#DejaVuSans-Bold-35"/>
     <use xlink:href="#DejaVuSans-Bold-30" transform="translate(69.580078 0)"/>
     <use xlink:href="#DejaVuSans-Bold-39" transform="translate(139.160156 0)"/>
    </g>
   </g>
   <g id="text_19">
    <!-- 205 -->
    <g style="fill: #bf8700" transform="translate(817.012614 343.784983) scale(0.09 -0.09)">
     <defs>
      <path id="DejaVuSans-Bold-32" d="M 1844 884 
L 3897 884 
L 3897 0 
L 506 0 
L 506 884 
L 2209 2388 
Q 2438 2594 2547 2791 
Q 2656 2988 2656 3200 
Q 2656 3528 2436 3728 
Q 2216 3928 1850 3928 
Q 1569 3928 1234 3808 
Q 900 3688 519 3450 
L 519 4475 
Q 925 4609 1322 4679 
Q 1719 4750 2100 4750 
Q 2938 4750 3402 4381 
Q 3866 4013 3866 3353 
Q 3866 2972 3669 2642 
Q 3472 2313 2841 1759 
L 1844 884 
z
" transform="scale(0.015625)"/>
     </defs>
     <use xlink:href="#DejaVuSans-Bold-32"/>
     <use xlink:href="#DejaVuSans-Bold-30" transform="translate(69.580078 0)"/>
     <use xlink:href="#DejaVuSans-Bold-35" transform="translate(139.160156 0)"/>
    </g>
   </g>
   <g id="text_20">
    <!-- 317 -->
    <g style="fill: #cf222e" transform="translate(817.012614 281.536877) scale(0.09 -0.09)">
     <defs>
      <path id="DejaVuSans-Bold-33" d="M 2981 2516 
Q 3453 2394 3698 2092 
Q 3944 1791 3944 1325 
Q 3944 631 3412 270 
Q 2881 -91 1863 -91 
Q 1503 -91 1142 -33 
Q 781 25 428 141 
L 428 1069 
Q 766 900 1098 814 
Q 1431 728 1753 728 
Q 2231 728 2486 893 
Q 2741 1059 2741 1369 
Q 2741 1688 2480 1852 
Q 2219 2016 1709 2016 
L 1228 2016 
L 1228 2791 
L 1734 2791 
Q 2188 2791 2409 2933 
Q 2631 3075 2631 3366 
Q 2631 3634 2415 3781 
Q 2200 3928 1806 3928 
Q 1516 3928 1219 3862 
Q 922 3797 628 3669 
L 628 4550 
Q 984 4650 1334 4700 
Q 1684 4750 2022 4750 
Q 2931 4750 3382 4451 
Q 3834 4153 3834 3553 
Q 3834 3144 3618 2883 
Q 3403 2622 2981 2516 
z
" transform="scale(0.015625)"/>
      <path id="DejaVuSans-Bold-31" d="M 750 831 
L 1813 831 
L 1813 3847 
L 722 3622 
L 722 4441 
L 1806 4666 
L 2950 4666 
L 2950 831 
L 4013 831 
L 4013 0 
L 750 0 
L 750 831 
z
" transform="scale(0.015625)"/>
      <path id="DejaVuSans-Bold-37" d="M 428 4666 
L 3944 4666 
L 3944 3988 
L 2125 0 
L 953 0 
L 2675 3781 
L 428 3781 
L 428 4666 
z
" transform="scale(0.015625)"/>
     </defs>
     <use xlink:href="#DejaVuSans-Bold-33"/>
     <use xlink:href="#DejaVuSans-Bold-31" transform="translate(69.580078 0)"/>
     <use xlink:href="#DejaVuSans-Bold-37" transform="translate(139.160156 0)"/>
    </g>
   </g>
   <g id="text_21">
    <!-- 659 -->
    <g style="fill: #9467bd" transform="translate(817.012614 91.457837) scale(0.09 -0.09)">
     <defs>
      <path id="DejaVuSans-Bold-36" d="M 2316 2303 
Q 2000 2303 1842 2098 
Q 1684 1894 1684 1484 
Q 1684 1075 1842 870 
Q 2000 666 2316 666 
Q 2634 666 2792 870 
Q 2950 1075 2950 1484 
Q 2950 1894 2792 2098 
Q 2634 2303 2316 2303 
z
M 3803 4544 
L 3803 3681 
Q 3506 3822 3243 3889 
Q 2981 3956 2731 3956 
Q 2194 3956 1894 3657 
Q 1594 3359 1544 2772 
Q 1750 2925 1990 3001 
Q 2231 3078 2516 3078 
Q 3231 3078 3670 2659 
Q 4109 2241 4109 1563 
Q 4109 813 3618 361 
Q 3128 -91 2303 -91 
Q 1394 -91 895 523 
Q 397 1138 397 2266 
Q 397 3422 980 4083 
Q 1563 4744 2578 4744 
Q 2900 4744 3203 4694 
Q 3506 4644 3803 4544 
z
" transform="scale(0.015625)"/>
     </defs>
     <use xlink:href="#DejaVuSans-Bold-36"/>
     <use xlink:href="#DejaVuSans-Bold-35" transform="translate(69.580078 0)"/>
     <use xlink:href="#DejaVuSans-Bold-39" transform="translate(139.160156 0)"/>
    </g>
   </g>
   <g id="text_22">
    <!-- Erdős Problems Progress -->
    <g style="fill: #24292f" transform="translate(349.588281 18.397812) scale(0.14 -0.14)">
     <defs>
      <path id="DejaVuSans-Bold-45" d="M 588 4666 
L 3834 4666 
L 3834 3756 
L 1791 3756 
L 1791 2888 
L 3713 2888 
L 3713 1978 
L 1791 1978 
L 1791 909 
L 3903 909 
L 3903 0 
L 588 0 
L 588 4666 
z
" transform="scale(0.015625)"/>
      <path id="DejaVuSans-Bold-72" d="M 3138 2547 
Q 2991 2616 2845 2648 
Q 2700 2681 2553 2681 
Q 2122 2681 1889 2404 
Q 1656 2128 1656 1613 
L 1656 0 
L 538 0 
L 538 3500 
L 1656 3500 
L 1656 2925 
Q 1872 3269 2151 3426 
Q 2431 3584 2822 3584 
Q 2878 3584 2943 3579 
Q 3009 3575 3134 3559 
L 3138 2547 
z
" transform="scale(0.015625)"/>
      <path id="DejaVuSans-Bold-64" d="M 2919 2988 
L 2919 4863 
L 4044 4863 
L 4044 0 
L 2919 0 
L 2919 506 
Q 2688 197 2409 53 
Q 2131 -91 1766 -91 
Q 1119 -91 703 423 
Q 288 938 288 1747 
Q 288 2556 703 3070 
Q 1119 3584 1766 3584 
Q 2128 3584 2408 3439 
Q 2688 3294 2919 2988 
z
M 2181 722 
Q 2541 722 2730 984 
Q 2919 1247 2919 1747 
Q 2919 2247 2730 2509 
Q 2541 2772 2181 2772 
Q 1825 2772 1636 2509 
Q 1447 2247 1447 1747 
Q 1447 1247 1636 984 
Q 1825 722 2181 722 
z
" transform="scale(0.015625)"/>
      <path id="DejaVuSans-Bold-151" d="M 1881 5119 
L 2560 5119 
L 1785 3944 
L 1275 3944 
L 1881 5119 
z
M 3016 5119 
L 3738 5119 
L 2888 3944 
L 2344 3944 
L 3016 5119 
z
M 2203 2784 
Q 1831 2784 1636 2517 
Q 1441 2250 1441 1747 
Q 1441 1244 1636 976 
Q 1831 709 2203 709 
Q 2569 709 2762 976 
Q 2956 1244 2956 1747 
Q 2956 2250 2762 2517 
Q 2569 2784 2203 2784 
z
M 2203 3584 
Q 3106 3584 3614 3096 
Q 4122 2609 4122 1747 
Q 4122 884 3614 396 
Q 3106 -91 2203 -91 
Q 1297 -91 786 396 
Q 275 884 275 1747 
Q 275 2609 786 3096 
Q 1297 3584 2203 3584 
z
" transform="scale(0.015625)"/>
      <path id="DejaVuSans-Bold-73" d="M 3272 3391 
L 3272 2541 
Q 2913 2691 2578 2766 
Q 2244 2841 1947 2841 
Q 1628 2841 1473 2761 
Q 1319 2681 1319 2516 
Q 1319 2381 1436 2309 
Q 1553 2238 1856 2203 
L 2053 2175 
Q 2913 2066 3209 1816 
Q 3506 1566 3506 1031 
Q 3506 472 3093 190 
Q 2681 -91 1863 -91 
Q 1516 -91 1145 -36 
Q 775 19 384 128 
L 384 978 
Q 719 816 1070 734 
Q 1422 653 1784 653 
Q 2113 653 2278 743 
Q 2444 834 2444 1013 
Q 2444 1163 2330 1236 
Q 2216 1309 1875 1350 
L 1678 1375 
Q 931 1469 631 1722 
Q 331 1975 331 2491 
Q 331 3047 712 3315 
Q 1094 3584 1881 3584 
Q 2191 3584 2531 3537 
Q 2872 3491 3272 3391 
z
" transform="scale(0.015625)"/>
      <path id="DejaVuSans-Bold-20" transform="scale(0.015625)"/>
      <path id="DejaVuSans-Bold-50" d="M 588 4666 
L 2584 4666 
Q 3475 4666 3951 4270 
Q 4428 3875 4428 3144 
Q 4428 2409 3951 2014 
Q 3475 1619 2584 1619 
L 1791 1619 
L 1791 0 
L 588 0 
L 588 4666 
z
M 1791 3794 
L 1791 2491 
L 2456 2491 
Q 2806 2491 2997 2661 
Q 3188 2831 3188 3144 
Q 3188 3456 2997 3625 
Q 2806 3794 2456 3794 
L 1791 3794 
z
" transform="scale(0.015625)"/>
      <path id="DejaVuSans-Bold-6f" d="M 2203 2784 
Q 1831 2784 1636 2517 
Q 1441 2250 1441 1747 
Q 1441 1244 1636 976 
Q 1831 709 2203 709 
Q 2569 709 2762 976 
Q 2956 1244 2956 1747 
Q 2956 2250 2762 2517 
Q 2569 2784 2203 2784 
z
M 2203 3584 
Q 3106 3584 3614 3096 
Q 4122 2609 4122 1747 
Q 4122 884 3614 396 
Q 3106 -91 2203 -91 
Q 1297 -91 786 396 
Q 275 884 275 1747 
Q 275 2609 786 3096 
Q 1297 3584 2203 3584 
z
" transform="scale(0.015625)"/>
      <path id="DejaVuSans-Bold-62" d="M 2400 722 
Q 2759 722 2948 984 
Q 3138 1247 3138 1747 
Q 3138 2247 2948 2509 
Q 2759 2772 2400 2772 
Q 2041 2772 1848 2508 
Q 1656 2244 1656 1747 
Q 1656 1250 1848 986 
Q 2041 722 2400 722 
z
M 1656 2988 
Q 1888 3294 2169 3439 
Q 2450 3584 2816 3584 
Q 3463 3584 3878 3070 
Q 4294 2556 4294 1747 
Q 4294 938 3878 423 
Q 3463 -91 2816 -91 
Q 2450 -91 2169 54 
Q 1888 200 1656 506 
L 1656 0 
L 538 0 
L 538 4863 
L 1656 4863 
L 1656 2988 
z
" transform="scale(0.015625)"/>
      <path id="DejaVuSans-Bold-6c" d="M 538 4863 
L 1656 4863 
L 1656 0 
L 538 0 
L 538 4863 
z
" transform="scale(0.015625)"/>
      <path id="DejaVuSans-Bold-65" d="M 4031 1759 
L 4031 1441 
L 1416 1441 
Q 1456 1047 1700 850 
Q 1944 653 2381 653 
Q 2734 653 3104 758 
Q 3475 863 3866 1075 
L 3866 213 
Q 3469 63 3072 -14 
Q 2675 -91 2278 -91 
Q 1328 -91 801 392 
Q 275 875 275 1747 
Q 275 2603 792 3093 
Q 1309 3584 2216 3584 
Q 3041 3584 3536 3087 
Q 4031 2591 4031 1759 
z
M 2881 2131 
Q 2881 2450 2695 2645 
Q 2509 2841 2209 2841 
Q 1884 2841 1681 2658 
Q 1478 2475 1428 2131 
L 2881 2131 
z
" transform="scale(0.015625)"/>
      <path id="DejaVuSans-Bold-6d" d="M 3781 2919 
Q 3994 3244 4286 3414 
Q 4578 3584 4928 3584 
Q 5531 3584 5847 3212 
Q 6163 2841 6163 2131 
L 6163 0 
L 5038 0 
L 5038 1825 
Q 5041 1866 5042 1909 
Q 5044 1953 5044 2034 
Q 5044 2406 4934 2573 
Q 4825 2741 4581 2741 
Q 4263 2741 4089 2478 
Q 3916 2216 3909 1719 
L 3909 0 
L 2784 0 
L 2784 1825 
Q 2784 2406 2684 2573 
Q 2584 2741 2328 2741 
Q 2006 2741 1831 2477 
Q 1656 2213 1656 1722 
L 1656 0 
L 531 0 
L 531 3500 
L 1656 3500 
L 1656 2988 
Q 1863 3284 2130 3434 
Q 2397 3584 2719 3584 
Q 3081 3584 3359 3409 
Q 3638 3234 3781 2919 
z
" transform="scale(0.015625)"/>
      <path id="DejaVuSans-Bold-67" d="M 2919 594 
Q 2688 288 2409 144 
Q 2131 0 1766 0 
Q 1125 0 706 504 
Q 288 1009 288 1791 
Q 288 2575 706 3076 
Q 1125 3578 1766 3578 
Q 2131 3578 2409 3434 
Q 2688 3291 2919 2981 
L 2919 3500 
L 4044 3500 
L 4044 353 
Q 4044 -491 3511 -936 
Q 2978 -1381 1966 -1381 
Q 1638 -1381 1331 -1331 
Q 1025 -1281 716 -1178 
L 716 -306 
Q 1009 -475 1290 -558 
Q 1572 -641 1856 -641 
Q 2406 -641 2662 -400 
Q 2919 -159 2919 353 
L 2919 594 
z
M 2181 2772 
Q 1834 2772 1640 2515 
Q 1447 2259 1447 1791 
Q 1447 1309 1634 1061 
Q 1822 813 2181 813 
Q 2531 813 2725 1069 
Q 2919 1325 2919 1791 
Q 2919 2259 2725 2515 
Q 2531 2772 2181 2772 
z
" transform="scale(0.015625)"/>
     </defs>
     <use xlink:href="#DejaVuSans-Bold-45"/>
     <use xlink:href="#DejaVuSans-Bold-72" transform="translate(68.310547 0)"/>
     <use xlink:href="#DejaVuSans-Bold-64" transform="translate(117.626953 0)"/>
     <use xlink:href="#DejaVuSans-Bold-151" transform="translate(189.208984 0)"/>
     <use xlink:href="#DejaVuSans-Bold-73" transform="translate(257.910156 0)"/>
     <use xlink:href="#DejaVuSans-Bold-20" transform="translate(317.431641 0)"/>
     <use xlink:href="#DejaVuSans-Bold-50" transform="translate(352.246094 0)"/>
     <use xlink:href="#DejaVuSans-Bold-72" transform="translate(425.537109 0)"/>
     <use xlink:href="#DejaVuSans-Bold-6f" transform="translate(474.853516 0)"/>
     <use xlink:href="#DejaVuSans-Bold-62" transform="translate(543.554688 0)"/>
     <use xlink:href="#DejaVuSans-Bold-6c" transform="translate(615.136719 0)"/>
     <use xlink:href="#DejaVuSans-Bold-65" transform="translate(649.414062 0)"/>
     <use xlink:href="#DejaVuSans-Bold-6d" transform="translate(717.236328 0)"/>
     <use xlink:href="#DejaVuSans-Bold-73" transform="translate(821.435547 0)"/>
     <use xlink:href="#DejaVuSans-Bold-20" transform="translate(880.957031 0)"/>
     <use xlink:href="#DejaVuSans-Bold-50" transform="translate(915.771484 0)"/>
     <use xlink:href="#DejaVuSans-Bold-72" transform="translate(989.0625 0)"/>
     <use xlink:href="#DejaVuSans-Bold-6f" transform="translate(1038.378906 0)"/>
     <use xlink:href="#DejaVuSans-Bold-67" transform="translate(1107.080078 0)"/>
     <use xlink:href="#DejaVuSans-Bold-72" transform="translate(1178.662109 0)"/>
     <use xlink:href="#DejaVuSans-Bold-65" transform="translate(1227.978516 0)"/>
     <use xlink:href="#DejaVuSans-Bold-73" transform="translate(1295.800781 0)"/>
     <use xlink:href="#DejaVuSans-Bold-73" transform="translate(1355.322266 0)"/>
    </g>
   </g>
   <g id="legend_1">
    <g id="patch_7">
     <path d="M 55.90125 119.788437 
L 213.771563 119.788437 
Q 215.771563 119.788437 215.771563 117.788437 
L 215.771563 45.397812 
Q 215.771563 43.397812 213.771563 43.397812 
L 55.90125 43.397812 
Q 53.90125 43.397812 53.90125 45.397812 
L 53.90125 117.788437 
Q 53.90125 119.788437 55.90125 119.788437 
z
" style="fill: #f6f8fa; opacity: 0.8; stroke: #d0d7de; stroke-linejoin: miter"/>
    </g>
    <g id="line2d_34">
     <path d="M 57.90125 51.49625 
L 67.90125 51.49625 
L 77.90125 51.49625 
" style="fill: none; stroke: #1a7f37; stroke-width: 2; stroke-linecap: square"/>
    </g>
    <g id="text_23">
     <!-- Solved -->
     <g style="fill: #24292f" transform="translate(85.90125 54.99625) scale(0.1 -0.1)">
      <defs>
       <path id="DejaVuSans-64" d="M 2906 2969 
L 2906 4863 
L 3481 4863 
L 3481 0 
L 2906 0 
L 2906 525 
Q 2725 213 2448 61 
Q 2172 -91 1784 -91 
Q 1150 -91 751 415 
Q 353 922 353 1747 
Q 353 2572 751 3078 
Q 1150 3584 1784 3584 
Q 2172 3584 2448 3432 
Q 2725 3281 2906 2969 
z
M 947 1747 
Q 947 1113 1208 752 
Q 1469 391 1925 391 
Q 2381 391 2643 752 
Q 2906 1113 2906 1747 
Q 2906 2381 2643 2742 
Q 2381 3103 1925 3103 
Q 1469 3103 1208 2742 
Q 947 2381 947 1747 
z
" transform="scale(0.015625)"/>
      </defs>
      <use xlink:href="#DejaVuSans-53"/>
      <use xlink:href="#DejaVuSans-6f" transform="translate(63.476562 0)"/>
      <use xlink:href="#DejaVuSans-6c" transform="translate(124.658203 0)"/>
      <use xlink:href="#DejaVuSans-76" transform="translate(152.441406 0)"/>
      <use xlink:href="#DejaVuSans-65" transform="translate(211.621094 0)"/>
      <use xlink:href="#DejaVuSans-64" transform="translate(273.144531 0)"/>
     </g>
    </g>
    <g id="line2d_35">
     <path d="M 57.90125 66.174375 
L 67.90125 66.174375 
L 77.90125 66.174375 
" style="fill: none; stroke: #0969da; stroke-width: 2; stroke-linecap: square"/>
    </g>
    <g id="text_24">
     <!-- Lean Formalized Problem -->
     <g style="fill: #24292f" transform="translate(85.90125 69.674375) scale(0.1 -0.1)">
      <defs>
       <path id="DejaVuSans-4c" d="M 628 4666 
L 1259 4666 
L 1259 531 
L 3531 531 
L 3531 0 
L 628 0 
L 628 4666 
z
" transform="scale(0.015625)"/>
       <path id="DejaVuSans-20" transform="scale(0.015625)"/>
       <path id="DejaVuSans-46" d="M 628 4666 
L 3309 4666 
L 3309 4134 
L 1259 4134 
L 1259 2759 
L 3109 2759 
L 3109 2228 
L 1259 2228 
L 1259 0 
L 628 0 
L 628 4666 
z
" transform="scale(0.015625)"/>
       <path id="DejaVuSans-6d" d="M 3328 2828 
Q 3544 3216 3844 3400 
Q 4144 3584 4550 3584 
Q 5097 3584 5394 3201 
Q 5691 2819 5691 2113 
L 5691 0 
L 5113 0 
L 5113 2094 
Q 5113 2597 4934 2840 
Q 4756 3084 4391 3084 
Q 3944 3084 3684 2787 
Q 3425 2491 3425 1978 
L 3425 0 
L 2847 0 
L 2847 2094 
Q 2847 2600 2669 2842 
Q 2491 3084 2119 3084 
Q 1678 3084 1418 2786 
Q 1159 2488 1159 1978 
L 1159 0 
L 581 0 
L 581 3500 
L 1159 3500 
L 1159 2956 
Q 1356 3278 1631 3431 
Q 1906 3584 2284 3584 
Q 2666 3584 2933 3390 
Q 3200 3197 3328 2828 
z
" transform="scale(0.015625)"/>
       <path id="DejaVuSans-69" d="M 603 3500 
L 1178 3500 
L 1178 0 
L 603 0 
L 603 3500 
z
M 603 4863 
L 1178 4863 
L 1178 4134 
L 603 4134 
L 603 4863 
z
" transform="scale(0.015625)"/>
       <path id="DejaVuSans-7a" d="M 353 3500 
L 3084 3500 
L 3084 2975 
L 922 459 
L 3084 459 
L 3084 0 
L 275 0 
L 275 525 
L 2438 3041 
L 353 3041 
L 353 3500 
z
" transform="scale(0.015625)"/>
       <path id="DejaVuSans-50" d="M 1259 4147 
L 1259 2394 
L 2053 2394 
Q 2494 2394 2734 2622 
Q 2975 2850 2975 3272 
Q 2975 3691 2734 3919 
Q 2494 4147 2053 4147 
L 1259 4147 
z
M 628 4666 
L 2053 4666 
Q 2838 4666 3239 4311 
Q 3641 3956 3641 3272 
Q 3641 2581 3239 2228 
Q 2838 1875 2053 1875 
L 1259 1875 
L 1259 0 
L 628 0 
L 628 4666 
z
" transform="scale(0.015625)"/>
       <path id="DejaVuSans-62" d="M 3116 1747 
Q 3116 2381 2855 2742 
Q 2594 3103 2138 3103 
Q 1681 3103 1420 2742 
Q 1159 2381 1159 1747 
Q 1159 1113 1420 752 
Q 1681 391 2138 391 
Q 2594 391 2855 752 
Q 3116 1113 3116 1747 
z
M 1159 2969 
Q 1341 3281 1617 3432 
Q 1894 3584 2278 3584 
Q 2916 3584 3314 3078 
Q 3713 2572 3713 1747 
Q 3713 922 3314 415 
Q 2916 -91 2278 -91 
Q 1894 -91 1617 61 
Q 1341 213 1159 525 
L 1159 0 
L 581 0 
L 581 4863 
L 1159 4863 
L 1159 2969 
z
" transform="scale(0.015625)"/>
      </defs>
      <use xlink:href="#DejaVuSans-4c"/>
      <use xlink:href="#DejaVuSans-65" transform="translate(53.962891 0)"/>
      <use xlink:href="#DejaVuSans-61" transform="translate(115.486328 0)"/>
      <use xlink:href="#DejaVuSans-6e" transform="translate(176.765625 0)"/>
      <use xlink:href="#DejaVuSans-20" transform="translate(240.144531 0)"/>
      <use xlink:href="#DejaVuSans-46" transform="translate(271.931641 0)"/>
      <use xlink:href="#DejaVuSans-6f" transform="translate(325.826172 0)"/>
      <use xlink:href="#DejaVuSans-72" transform="translate(387.007812 0)"/>
      <use xlink:href="#DejaVuSans-6d" transform="translate(426.371094 0)"/>
      <use xlink:href="#DejaVuSans-61" transform="translate(523.783203 0)"/>
      <use xlink:href="#DejaVuSans-6c" transform="translate(585.0625 0)"/>
      <use xlink:href="#DejaVuSans-69" transform="translate(612.845703 0)"/>
      <use xlink:href="#DejaVuSans-7a" transform="translate(640.628906 0)"/>
      <use xlink:href="#DejaVuSans-65" transform="translate(693.119141 0)"/>
      <use xlink:href="#DejaVuSans-64" transform="translate(754.642578 0)"/>
      <use xlink:href="#DejaVuSans-20" transform="translate(818.119141 0)"/>
      <use xlink:href="#DejaVuSans-50" transform="translate(849.90625 0)"/>
      <use xlink:href="#DejaVuSans-72" transform="translate(908.458984 0)"/>
      <use xlink:href="#DejaVuSans-6f" transform="translate(947.322266 0)"/>
      <use xlink:href="#DejaVuSans-62" transform="translate(1008.503906 0)"/>
      <use xlink:href="#DejaVuSans-6c" transform="translate(1071.980469 0)"/>
      <use xlink:href="#DejaVuSans-65" transform="translate(1099.763672 0)"/>
      <use xlink:href="#DejaVuSans-6d" transform="translate(1161.287109 0)"/>
     </g>
    </g>
    <g id="line2d_36">
     <path d="M 57.90125 80.8525 
L 67.90125 80.8525 
L 77.90125 80.8525 
" style="fill: none; stroke: #bf8700; stroke-width: 2; stroke-linecap: square"/>
    </g>
    <g id="text_25">
     <!-- Lean Formalized Solution -->
     <g style="fill: #24292f" transform="translate(85.90125 84.3525) scale(0.1 -0.1)">
      <use xlink:href="#DejaVuSans-4c"/>
      <use xlink:href="#DejaVuSans-65" transform="translate(53.962891 0)"/>
      <use xlink:href="#DejaVuSans-61" transform="translate(115.486328 0)"/>
      <use xlink:href="#DejaVuSans-6e" transform="translate(176.765625 0)"/>
      <use xlink:href="#DejaVuSans-20" transform="translate(240.144531 0)"/>
      <use xlink:href="#DejaVuSans-46" transform="translate(271.931641 0)"/>
      <use xlink:href="#DejaVuSans-6f" transform="translate(325.826172 0)"/>
      <use xlink:href="#DejaVuSans-72" transform="translate(387.007812 0)"/>
      <use xlink:href="#DejaVuSans-6d" transform="translate(426.371094 0)"/>
      <use xlink:href="#DejaVuSans-61" transform="translate(523.783203 0)"/>
      <use xlink:href="#DejaVuSans-6c" transform="translate(585.0625 0)"/>
      <use xlink:href="#DejaVuSans-69" transform="translate(612.845703 0)"/>
      <use xlink:href="#DejaVuSans-7a" transform="translate(640.628906 0)"/>
      <use xlink:href="#DejaVuSans-65" transform="translate(693.119141 0)"/>
      <use xlink:href="#DejaVuSans-64" transform="translate(754.642578 0)"/>
      <use xlink:href="#DejaVuSans-20" transform="translate(818.119141 0)"/>
      <use xlink:href="#DejaVuSans-53" transform="translate(849.90625 0)"/>
      <use xlink:href="#DejaVuSans-6f" transform="translate(913.382812 0)"/>
      <use xlink:href="#DejaVuSans-6c" transform="translate(974.564453 0)"/>
      <use xlink:href="#DejaVuSans-75" transform="translate(1002.347656 0)"/>
      <use xlink:href="#DejaVuSans-74" transform="translate(1065.726562 0)"/>
      <use xlink:href="#DejaVuSans-69" transform="translate(1104.935547 0)"/>
      <use xlink:href="#DejaVuSans-6f" transform="translate(1132.71875 0)"/>
      <use xlink:href="#DejaVuSans-6e" transform="translate(1193.900391 0)"/>
     </g>
    </g>
    <g id="line2d_37">
     <path d="M 57.90125 95.530625 
L 67.90125 95.530625 
L 77.90125 95.530625 
" style="fill: none; stroke: #cf222e; stroke-width: 2; stroke-linecap: square"/>
    </g>
    <g id="text_26">
     <!-- OEIS Linked -->
     <g style="fill: #24292f" transform="translate(85.90125 99.030625) scale(0.1 -0.1)">
      <defs>
       <path id="DejaVuSans-4f" d="M 2522 4238 
Q 1834 4238 1429 3725 
Q 1025 3213 1025 2328 
Q 1025 1447 1429 934 
Q 1834 422 2522 422 
Q 3209 422 3611 934 
Q 4013 1447 4013 2328 
Q 4013 3213 3611 3725 
Q 3209 4238 2522 4238 
z
M 2522 4750 
Q 3503 4750 4090 4092 
Q 4678 3434 4678 2328 
Q 4678 1225 4090 567 
Q 3503 -91 2522 -91 
Q 1538 -91 948 565 
Q 359 1222 359 2328 
Q 359 3434 948 4092 
Q 1538 4750 2522 4750 
z
" transform="scale(0.015625)"/>
       <path id="DejaVuSans-45" d="M 628 4666 
L 3578 4666 
L 3578 4134 
L 1259 4134 
L 1259 2753 
L 3481 2753 
L 3481 2222 
L 1259 2222 
L 1259 531 
L 3634 531 
L 3634 0 
L 628 0 
L 628 4666 
z
" transform="scale(0.015625)"/>
       <path id="DejaVuSans-49" d="M 628 4666 
L 1259 4666 
L 1259 0 
L 628 0 
L 628 4666 
z
" transform="scale(0.015625)"/>
       <path id="DejaVuSans-6b" d="M 581 4863 
L 1159 4863 
L 1159 1991 
L 2875 3500 
L 3609 3500 
L 1753 1863 
L 3688 0 
L 2938 0 
L 1159 1709 
L 1159 0 
L 581 0 
L 581 4863 
z
" transform="scale(0.015625)"/>
      </defs>
      <use xlink:href="#DejaVuSans-4f"/>
      <use xlink:href="#DejaVuSans-45" transform="translate(78.710938 0)"/>
      <use xlink:href="#DejaVuSans-49" transform="translate(141.894531 0)"/>
      <use xlink:href="#DejaVuSans-53" transform="translate(171.386719 0)"/>
      <use xlink:href="#DejaVuSans-20" transform="translate(234.863281 0)"/>
      <use xlink:href="#DejaVuSans-4c" transform="translate(266.650391 0)"/>
      <use xlink:href="#DejaVuSans-69" transform="translate(322.363281 0)"/>
      <use xlink:href="#DejaVuSans-6e" transform="translate(350.146484 0)"/>
      <use xlink:href="#DejaVuSans-6b" transform="translate(413.525391 0)"/>
      <use xlink:href="#DejaVuSans-65" transform="translate(467.810547 0)"/>
      <use xlink:href="#DejaVuSans-64" transform="translate(529.333984 0)"/>
     </g>
    </g>
    <g id="line2d_38">
     <path d="M 57.90125 110.20875 
L 67.90125 110.20875 
L 77.90125 110.20875 
" style="fill: none; stroke: #9467bd; stroke-width: 2; stroke-linecap: square"/>
    </g>
    <g id="text_27">
     <!-- Open Problems -->
     <g style="fill: #24292f" transform="translate(85.90125 113.70875) scale(0.1 -0.1)">
      <defs>
       <path id="DejaVuSans-73" d="M 2834 3397 
L 2834 2853 
Q 2591 2978 2328 3040 
Q 2066 3103 1784 3103 
Q 1356 3103 1142 2972 
Q 928 2841 928 2578 
Q 928 2378 1081 2264 
Q 1234 2150 1697 2047 
L 1894 2003 
Q 2506 1872 2764 1633 
Q 3022 1394 3022 966 
Q 3022 478 2636 193 
Q 2250 -91 1575 -91 
Q 1294 -91 989 -36 
Q 684 19 347 128 
L 347 722 
Q 666 556 975 473 
Q 1284 391 1588 391 
Q 1994 391 2212 530 
Q 2431 669 2431 922 
Q 2431 1156 2273 1281 
Q 2116 1406 1581 1522 
L 1381 1569 
Q 847 1681 609 1914 
Q 372 2147 372 2553 
Q 372 3047 722 3315 
Q 1072 3584 1716 3584 
Q 2034 3584 2315 3537 
Q 2597 3491 2834 3397 
z
" transform="scale(0.015625)"/>
      </defs>
      <use xlink:href="#DejaVuSans-4f"/>
      <use xlink:href="#DejaVuSans-70" transform="translate(78.710938 0)"/>
      <use xlink:href="#DejaVuSans-65" transform="translate(142.1875 0)"/>
      <use xlink:href="#DejaVuSans-6e" transform="translate(203.710938 0)"/>
      <use xlink:href="#DejaVuSans-20" transform="translate(267.089844 0)"/>
      <use xlink:href="#DejaVuSans-50" transform="translate(298.876953 0)"/>
      <use xlink:href="#DejaVuSans-72" transform="translate(357.429688 0)"/>
      <use xlink:href="#DejaVuSans-6f" transform="translate(396.292969 0)"/>
      <use xlink:href="#DejaVuSans-62" transform="translate(457.474609 0)"/>
      <use xlink:href="#DejaVuSans-6c" transform="translate(520.951172 0)"/>
      <use xlink:href="#DejaVuSans-65" transform="translate(548.734375 0)"/>
      <use xlink:href="#DejaVuSans-6d" transform="translate(610.257812 0)"/>
      <use xlink:href="#DejaVuSans-73" transform="translate(707.669922 0)"/>
     </g>
    </g>
   </g>
  </g>
 </g>
 <defs>
  <clipPath id="pd44239c1b0">
   <rect x="48.90125" y="38.397812" width="799.45" height="416.84"/>
  </clipPath>
 </defs>
</svg>
