<?xml version="1.0" encoding="utf-8" standalone="no"?>
<!DOCTYPE svg PUBLIC "-//W3C//DTD SVG 1.1//EN"
  "http://www.w3.org/Graphics/SVG/1.1/DTD/svg11.dtd">
<svg xmlns:xlink="http://www.w3.org/1999/xlink" width="855.55125pt" height="494.729687pt" viewBox="0 0 855.55125 494.729687" xmlns="http://www.w3.org/2000/svg" version="1.1">
 <metadata>
  <rdf:RDF xmlns:dc="http://purl.org/dc/elements/1.1/" xmlns:cc="http://creativecommons.org/ns#" xmlns:rdf="http://www.w3.org/1999/02/22-rdf-syntax-ns#">
   <cc:Work>
    <dc:type rdf:resource="http://purl.org/dc/dcmitype/StillImage"/>
    <dc:date>2026-01-20T08:10:41.713585</dc:date>
    <dc:format>image/svg+xml</dc:format>
    <dc:creator>
     <cc:Agent>
      <dc:title>Matplotlib v3.10.7, https://matplotlib.org/</dc:title>
     </cc:Agent>
    </dc:creator>
   </cc:Work>
  </rdf:RDF>
 </metadata>
 <defs>
  <style type="text/css">*{stroke-linejoin: round; stroke-linecap: butt}</style>
 </defs>
 <g id="figure_1">
  <g id="patch_1">
   <path d="M 0 494.729687 
L 855.55125 494.729687 
L 855.55125 0 
L 0 0 
z
" style="fill: #0d1117"/>
  </g>
  <g id="axes_1">
   <g id="patch_2">
    <path d="M 48.90125 455.237812 
L 848.35125 455.237812 
L 848.35125 38.397812 
L 48.90125 38.397812 
z
" style="fill: #0d1117"/>
   </g>
   <g id="matplotlib.axis_1">
    <g id="xtick_1">
     <g id="line2d_1">
      <path d="M 86.739983 455.237812 
L 86.739983 38.397812 
" clip-path="url(#p096e73cac3)" style="fill: none; stroke: #30363d; stroke-opacity: 0.25; stroke-width: 0.5; stroke-linecap: square"/>
     </g>
     <g id="line2d_2">
      <defs>
       <path id="mf9db2ff2a9" d="M 0 0 
L 0 3.5 
" style="stroke: #c9d1d9; stroke-width: 0.8"/>
      </defs>
      <g>
       <use xlink:href="#mf9db2ff2a9" x="86.739983" y="455.237812" style="fill: #c9d1d9; stroke: #c9d1d9; stroke-width: 0.8"/>
      </g>
     </g>
     <g id="text_1">
      <!-- Sep -->
      <g style="fill: #c9d1d9" transform="translate(77.314983 469.83625) scale(0.1 -0.1)">
       <defs>
        <path id="DejaVuSans-53" d="M 3425 4513 
L 3425 3897 
Q 3066 4069 2747 4153 
Q 2428 4238 2131 4238 
Q 1616 4238 1336 4038 
Q 1056 3838 1056 3469 
Q 1056 3159 1242 3001 
Q 1428 2844 1947 2747 
L 2328 2669 
Q 3034 2534 3370 2195 
Q 3706 1856 3706 1288 
Q 3706 609 3251 259 
Q 2797 -91 1919 -91 
Q 1588 -91 1214 -16 
Q 841 59 441 206 
L 441 856 
Q 825 641 1194 531 
Q 1563 422 1919 422 
Q 2459 422 2753 634 
Q 3047 847 3047 1241 
Q 3047 1584 2836 1778 
Q 2625 1972 2144 2069 
L 1759 2144 
Q 1053 2284 737 2584 
Q 422 2884 422 3419 
Q 422 4038 858 4394 
Q 1294 4750 2059 4750 
Q 2388 4750 2728 4690 
Q 3069 4631 3425 4513 
z
" transform="scale(0.015625)"/>
        <path id="DejaVuSans-65" d="M 3597 1894 
L 3597 1613 
L 953 1613 
Q 991 1019 1311 708 
Q 1631 397 2203 397 
Q 2534 397 2845 478 
Q 3156 559 3463 722 
L 3463 178 
Q 3153 47 2828 -22 
Q 2503 -91 2169 -91 
Q 1331 -91 842 396 
Q 353 884 353 1716 
Q 353 2575 817 3079 
Q 1281 3584 2069 3584 
Q 2775 3584 3186 3129 
Q 3597 2675 3597 1894 
z
M 3022 2063 
Q 3016 2534 2758 2815 
Q 2500 3097 2075 3097 
Q 1594 3097 1305 2825 
Q 1016 2553 972 2059 
L 3022 2063 
z
" transform="scale(0.015625)"/>
        <path id="DejaVuSans-70" d="M 1159 525 
L 1159 -1331 
L 581 -1331 
L 581 3500 
L 1159 3500 
L 1159 2969 
Q 1341 3281 1617 3432 
Q 1894 3584 2278 3584 
Q 2916 3584 3314 3078 
Q 3713 2572 3713 1747 
Q 3713 922 3314 415 
Q 2916 -91 2278 -91 
Q 1894 -91 1617 61 
Q 1341 213 1159 525 
z
M 3116 1747 
Q 3116 2381 2855 2742 
Q 2594 3103 2138 3103 
Q 1681 3103 1420 2742 
Q 1159 2381 1159 1747 
Q 1159 1113 1420 752 
Q 1681 391 2138 391 
Q 2594 391 2855 752 
Q 3116 1113 3116 1747 
z
" transform="scale(0.015625)"/>
       </defs>
       <use xlink:href="#DejaVuSans-53"/>
       <use xlink:href="#DejaVuSans-65" transform="translate(63.476562 0)"/>
       <use xlink:href="#DejaVuSans-70" transform="translate(125 0)"/>
      </g>
     </g>
    </g>
    <g id="xtick_2">
     <g id="line2d_3">
      <path d="M 240.681281 455.237812 
L 240.681281 38.397812 
" clip-path="url(#p096e73cac3)" style="fill: none; stroke: #30363d; stroke-opacity: 0.25; stroke-width: 0.5; stroke-linecap: square"/>
     </g>
     <g id="line2d_4">
      <g>
       <use xlink:href="#mf9db2ff2a9" x="240.681281" y="455.237812" style="fill: #c9d1d9; stroke: #c9d1d9; stroke-width: 0.8"/>
      </g>
     </g>
     <g id="text_2">
      <!-- Oct -->
      <g style="fill: #c9d1d9" transform="translate(232.035968 469.83625) scale(0.1 -0.1)">
       <defs>
        <path id="DejaVuSans-4f" d="M 2522 4238 
Q 1834 4238 1429 3725 
Q 1025 3213 1025 2328 
Q 1025 1447 1429 934 
Q 1834 422 2522 422 
Q 3209 422 3611 934 
Q 4013 1447 4013 2328 
Q 4013 3213 3611 3725 
Q 3209 4238 2522 4238 
z
M 2522 4750 
Q 3503 4750 4090 4092 
Q 4678 3434 4678 2328 
Q 4678 1225 4090 567 
Q 3503 -91 2522 -91 
Q 1538 -91 948 565 
Q 359 1222 359 2328 
Q 359 3434 948 4092 
Q 1538 4750 2522 4750 
z
" transform="scale(0.015625)"/>
        <path id="DejaVuSans-63" d="M 3122 3366 
L 3122 2828 
Q 2878 2963 2633 3030 
Q 2388 3097 2138 3097 
Q 1578 3097 1268 2742 
Q 959 2388 959 1747 
Q 959 1106 1268 751 
Q 1578 397 2138 397 
Q 2388 397 2633 464 
Q 2878 531 3122 666 
L 3122 134 
Q 2881 22 2623 -34 
Q 2366 -91 2075 -91 
Q 1284 -91 818 406 
Q 353 903 353 1747 
Q 353 2603 823 3093 
Q 1294 3584 2113 3584 
Q 2378 3584 2631 3529 
Q 2884 3475 3122 3366 
z
" transform="scale(0.015625)"/>
        <path id="DejaVuSans-74" d="M 1172 4494 
L 1172 3500 
L 2356 3500 
L 2356 3053 
L 1172 3053 
L 1172 1153 
Q 1172 725 1289 603 
Q 1406 481 1766 481 
L 2356 481 
L 2356 0 
L 1766 0 
Q 1100 0 847 248 
Q 594 497 594 1153 
L 594 3053 
L 172 3053 
L 172 3500 
L 594 3500 
L 594 4494 
L 1172 4494 
z
" transform="scale(0.015625)"/>
       </defs>
       <use xlink:href="#DejaVuSans-4f"/>
       <use xlink:href="#DejaVuSans-63" transform="translate(78.710938 0)"/>
       <use xlink:href="#DejaVuSans-74" transform="translate(133.691406 0)"/>
      </g>
     </g>
    </g>
    <g id="xtick_3">
     <g id="line2d_5">
      <path d="M 399.753956 455.237812 
L 399.753956 38.397812 
" clip-path="url(#p096e73cac3)" style="fill: none; stroke: #30363d; stroke-opacity: 0.25; stroke-width: 0.5; stroke-linecap: square"/>
     </g>
     <g id="line2d_6">
      <g>
       <use xlink:href="#mf9db2ff2a9" x="399.753956" y="455.237812" style="fill: #c9d1d9; stroke: #c9d1d9; stroke-width: 0.8"/>
      </g>
     </g>
     <g id="text_3">
      <!-- Nov -->
      <g style="fill: #c9d1d9" transform="translate(389.994581 469.83625) scale(0.1 -0.1)">
       <defs>
        <path id="DejaVuSans-4e" d="M 628 4666 
L 1478 4666 
L 3547 763 
L 3547 4666 
L 4159 4666 
L 4159 0 
L 3309 0 
L 1241 3903 
L 1241 0 
L 628 0 
L 628 4666 
z
" transform="scale(0.015625)"/>
        <path id="DejaVuSans-6f" d="M 1959 3097 
Q 1497 3097 1228 2736 
Q 959 2375 959 1747 
Q 959 1119 1226 758 
Q 1494 397 1959 397 
Q 2419 397 2687 759 
Q 2956 1122 2956 1747 
Q 2956 2369 2687 2733 
Q 2419 3097 1959 3097 
z
M 1959 3584 
Q 2709 3584 3137 3096 
Q 3566 2609 3566 1747 
Q 3566 888 3137 398 
Q 2709 -91 1959 -91 
Q 1206 -91 779 398 
Q 353 888 353 1747 
Q 353 2609 779 3096 
Q 1206 3584 1959 3584 
z
" transform="scale(0.015625)"/>
        <path id="DejaVuSans-76" d="M 191 3500 
L 800 3500 
L 1894 563 
L 2988 3500 
L 3597 3500 
L 2284 0 
L 1503 0 
L 191 3500 
z
" transform="scale(0.015625)"/>
       </defs>
       <use xlink:href="#DejaVuSans-4e"/>
       <use xlink:href="#DejaVuSans-6f" transform="translate(74.804688 0)"/>
       <use xlink:href="#DejaVuSans-76" transform="translate(135.986328 0)"/>
      </g>
     </g>
    </g>
    <g id="xtick_4">
     <g id="line2d_7">
      <path d="M 553.695254 455.237812 
L 553.695254 38.397812 
" clip-path="url(#p096e73cac3)" style="fill: none; stroke: #30363d; stroke-opacity: 0.25; stroke-width: 0.5; stroke-linecap: square"/>
     </g>
     <g id="line2d_8">
      <g>
       <use xlink:href="#mf9db2ff2a9" x="553.695254" y="455.237812" style="fill: #c9d1d9; stroke: #c9d1d9; stroke-width: 0.8"/>
      </g>
     </g>
     <g id="text_4">
      <!-- Dec -->
      <g style="fill: #c9d1d9" transform="translate(544.019473 469.83625) scale(0.1 -0.1)">
       <defs>
        <path id="DejaVuSans-44" d="M 1259 4147 
L 1259 519 
L 2022 519 
Q 2988 519 3436 956 
Q 3884 1394 3884 2338 
Q 3884 3275 3436 3711 
Q 2988 4147 2022 4147 
L 1259 4147 
z
M 628 4666 
L 1925 4666 
Q 3281 4666 3915 4102 
Q 4550 3538 4550 2338 
Q 4550 1131 3912 565 
Q 3275 0 1925 0 
L 628 0 
L 628 4666 
z
" transform="scale(0.015625)"/>
       </defs>
       <use xlink:href="#DejaVuSans-44"/>
       <use xlink:href="#DejaVuSans-65" transform="translate(77.001953 0)"/>
       <use xlink:href="#DejaVuSans-63" transform="translate(138.525391 0)"/>
      </g>
     </g>
    </g>
    <g id="xtick_5">
     <g id="line2d_9">
      <path d="M 712.76793 455.237812 
L 712.76793 38.397812 
" clip-path="url(#p096e73cac3)" style="fill: none; stroke: #30363d; stroke-opacity: 0.25; stroke-width: 0.5; stroke-linecap: square"/>
     </g>
     <g id="line2d_10">
      <g>
       <use xlink:href="#mf9db2ff2a9" x="712.76793" y="455.237812" style="fill: #c9d1d9; stroke: #c9d1d9; stroke-width: 0.8"/>
      </g>
     </g>
     <g id="text_5">
      <!-- 2026 -->
      <g style="fill: #c9d1d9" transform="translate(700.04293 469.83625) scale(0.1 -0.1)">
       <defs>
        <path id="DejaVuSans-32" d="M 1228 531 
L 3431 531 
L 3431 0 
L 469 0 
L 469 531 
Q 828 903 1448 1529 
Q 2069 2156 2228 2338 
Q 2531 2678 2651 2914 
Q 2772 3150 2772 3378 
Q 2772 3750 2511 3984 
Q 2250 4219 1831 4219 
Q 1534 4219 1204 4116 
Q 875 4013 500 3803 
L 500 4441 
Q 881 4594 1212 4672 
Q 1544 4750 1819 4750 
Q 2544 4750 2975 4387 
Q 3406 4025 3406 3419 
Q 3406 3131 3298 2873 
Q 3191 2616 2906 2266 
Q 2828 2175 2409 1742 
Q 1991 1309 1228 531 
z
" transform="scale(0.015625)"/>
        <path id="DejaVuSans-30" d="M 2034 4250 
Q 1547 4250 1301 3770 
Q 1056 3291 1056 2328 
Q 1056 1369 1301 889 
Q 1547 409 2034 409 
Q 2525 409 2770 889 
Q 3016 1369 3016 2328 
Q 3016 3291 2770 3770 
Q 2525 4250 2034 4250 
z
M 2034 4750 
Q 2819 4750 3233 4129 
Q 3647 3509 3647 2328 
Q 3647 1150 3233 529 
Q 2819 -91 2034 -91 
Q 1250 -91 836 529 
Q 422 1150 422 2328 
Q 422 3509 836 4129 
Q 1250 4750 2034 4750 
z
" transform="scale(0.015625)"/>
        <path id="DejaVuSans-36" d="M 2113 2584 
Q 1688 2584 1439 2293 
Q 1191 2003 1191 1497 
Q 1191 994 1439 701 
Q 1688 409 2113 409 
Q 2538 409 2786 701 
Q 3034 994 3034 1497 
Q 3034 2003 2786 2293 
Q 2538 2584 2113 2584 
z
M 3366 4563 
L 3366 3988 
Q 3128 4100 2886 4159 
Q 2644 4219 2406 4219 
Q 1781 4219 1451 3797 
Q 1122 3375 1075 2522 
Q 1259 2794 1537 2939 
Q 1816 3084 2150 3084 
Q 2853 3084 3261 2657 
Q 3669 2231 3669 1497 
Q 3669 778 3244 343 
Q 2819 -91 2113 -91 
Q 1303 -91 875 529 
Q 447 1150 447 2328 
Q 447 3434 972 4092 
Q 1497 4750 2381 4750 
Q 2619 4750 2861 4703 
Q 3103 4656 3366 4563 
z
" transform="scale(0.015625)"/>
       </defs>
       <use xlink:href="#DejaVuSans-32"/>
       <use xlink:href="#DejaVuSans-30" transform="translate(63.623047 0)"/>
       <use xlink:href="#DejaVuSans-32" transform="translate(127.246094 0)"/>
       <use xlink:href="#DejaVuSans-36" transform="translate(190.869141 0)"/>
      </g>
     </g>
    </g>
    <g id="text_6">
     <!-- Date -->
     <g style="fill: #c9d1d9" transform="translate(434.285313 485.034062) scale(0.12 -0.12)">
      <defs>
       <path id="DejaVuSans-61" d="M 2194 1759 
Q 1497 1759 1228 1600 
Q 959 1441 959 1056 
Q 959 750 1161 570 
Q 1363 391 1709 391 
Q 2188 391 2477 730 
Q 2766 1069 2766 1631 
L 2766 1759 
L 2194 1759 
z
M 3341 1997 
L 3341 0 
L 2766 0 
L 2766 531 
Q 2569 213 2275 61 
Q 1981 -91 1556 -91 
Q 1019 -91 701 211 
Q 384 513 384 1019 
Q 384 1609 779 1909 
Q 1175 2209 1959 2209 
L 2766 2209 
L 2766 2266 
Q 2766 2663 2505 2880 
Q 2244 3097 1772 3097 
Q 1472 3097 1187 3025 
Q 903 2953 641 2809 
L 641 3341 
Q 956 3463 1253 3523 
Q 1550 3584 1831 3584 
Q 2591 3584 2966 3190 
Q 3341 2797 3341 1997 
z
" transform="scale(0.015625)"/>
      </defs>
      <use xlink:href="#DejaVuSans-44"/>
      <use xlink:href="#DejaVuSans-61" transform="translate(77.001953 0)"/>
      <use xlink:href="#DejaVuSans-74" transform="translate(138.28125 0)"/>
      <use xlink:href="#DejaVuSans-65" transform="translate(177.490234 0)"/>
     </g>
    </g>
   </g>
   <g id="matplotlib.axis_2">
    <g id="ytick_1">
     <g id="line2d_11">
      <path d="M 48.90125 455.237812 
L 848.35125 455.237812 
" clip-path="url(#p096e73cac3)" style="fill: none; stroke: #30363d; stroke-opacity: 0.25; stroke-width: 0.5; stroke-linecap: square"/>
     </g>
     <g id="line2d_12">
      <defs>
       <path id="m5e227e5f42" d="M 0 0 
L -3.5 0 
" style="stroke: #c9d1d9; stroke-width: 0.8"/>
      </defs>
      <g>
       <use xlink:href="#m5e227e5f42" x="48.90125" y="455.237812" style="fill: #c9d1d9; stroke: #c9d1d9; stroke-width: 0.8"/>
      </g>
     </g>
     <g id="text_7">
      <!-- 0 -->
      <g style="fill: #c9d1d9" transform="translate(35.53875 459.037031) scale(0.1 -0.1)">
       <use xlink:href="#DejaVuSans-30"/>
      </g>
     </g>
    </g>
    <g id="ytick_2">
     <g id="line2d_13">
      <path d="M 48.90125 399.659146 
L 848.35125 399.659146 
" clip-path="url(#p096e73cac3)" style="fill: none; stroke: #30363d; stroke-opacity: 0.25; stroke-width: 0.5; stroke-linecap: square"/>
     </g>
     <g id="line2d_14">
      <g>
       <use xlink:href="#m5e227e5f42" x="48.90125" y="399.659146" style="fill: #c9d1d9; stroke: #c9d1d9; stroke-width: 0.8"/>
      </g>
     </g>
     <g id="text_8">
      <!-- 100 -->
      <g style="fill: #c9d1d9" transform="translate(22.81375 403.458365) scale(0.1 -0.1)">
       <defs>
        <path id="DejaVuSans-31" d="M 794 531 
L 1825 531 
L 1825 4091 
L 703 3866 
L 703 4441 
L 1819 4666 
L 2450 4666 
L 2450 531 
L 3481 531 
L 3481 0 
L 794 0 
L 794 531 
z
" transform="scale(0.015625)"/>
       </defs>
       <use xlink:href="#DejaVuSans-31"/>
       <use xlink:href="#DejaVuSans-30" transform="translate(63.623047 0)"/>
       <use xlink:href="#DejaVuSans-30" transform="translate(127.246094 0)"/>
      </g>
     </g>
    </g>
    <g id="ytick_3">
     <g id="line2d_15">
      <path d="M 48.90125 344.080479 
L 848.35125 344.080479 
" clip-path="url(#p096e73cac3)" style="fill: none; stroke: #30363d; stroke-opacity: 0.25; stroke-width: 0.5; stroke-linecap: square"/>
     </g>
     <g id="line2d_16">
      <g>
       <use xlink:href="#m5e227e5f42" x="48.90125" y="344.080479" style="fill: #c9d1d9; stroke: #c9d1d9; stroke-width: 0.8"/>
      </g>
     </g>
     <g id="text_9">
      <!-- 200 -->
      <g style="fill: #c9d1d9" transform="translate(22.81375 347.879698) scale(0.1 -0.1)">
       <use xlink:href="#DejaVuSans-32"/>
       <use xlink:href="#DejaVuSans-30" transform="translate(63.623047 0)"/>
       <use xlink:href="#DejaVuSans-30" transform="translate(127.246094 0)"/>
      </g>
     </g>
    </g>
    <g id="ytick_4">
     <g id="line2d_17">
      <path d="M 48.90125 288.501812 
L 848.35125 288.501812 
" clip-path="url(#p096e73cac3)" style="fill: none; stroke: #30363d; stroke-opacity: 0.25; stroke-width: 0.5; stroke-linecap: square"/>
     </g>
     <g id="line2d_18">
      <g>
       <use xlink:href="#m5e227e5f42" x="48.90125" y="288.501812" style="fill: #c9d1d9; stroke: #c9d1d9; stroke-width: 0.8"/>
      </g>
     </g>
     <g id="text_10">
      <!-- 300 -->
      <g style="fill: #c9d1d9" transform="translate(22.81375 292.301031) scale(0.1 -0.1)">
       <defs>
        <path id="DejaVuSans-33" d="M 2597 2516 
Q 3050 2419 3304 2112 
Q 3559 1806 3559 1356 
Q 3559 666 3084 287 
Q 2609 -91 1734 -91 
Q 1441 -91 1130 -33 
Q 819 25 488 141 
L 488 750 
Q 750 597 1062 519 
Q 1375 441 1716 441 
Q 2309 441 2620 675 
Q 2931 909 2931 1356 
Q 2931 1769 2642 2001 
Q 2353 2234 1838 2234 
L 1294 2234 
L 1294 2753 
L 1863 2753 
Q 2328 2753 2575 2939 
Q 2822 3125 2822 3475 
Q 2822 3834 2567 4026 
Q 2313 4219 1838 4219 
Q 1578 4219 1281 4162 
Q 984 4106 628 3988 
L 628 4550 
Q 988 4650 1302 4700 
Q 1616 4750 1894 4750 
Q 2613 4750 3031 4423 
Q 3450 4097 3450 3541 
Q 3450 3153 3228 2886 
Q 3006 2619 2597 2516 
z
" transform="scale(0.015625)"/>
       </defs>
       <use xlink:href="#DejaVuSans-33"/>
       <use xlink:href="#DejaVuSans-30" transform="translate(63.623047 0)"/>
       <use xlink:href="#DejaVuSans-30" transform="translate(127.246094 0)"/>
      </g>
     </g>
    </g>
    <g id="ytick_5">
     <g id="line2d_19">
      <path d="M 48.90125 232.923146 
L 848.35125 232.923146 
" clip-path="url(#p096e73cac3)" style="fill: none; stroke: #30363d; stroke-opacity: 0.25; stroke-width: 0.5; stroke-linecap: square"/>
     </g>
     <g id="line2d_20">
      <g>
       <use xlink:href="#m5e227e5f42" x="48.90125" y="232.923146" style="fill: #c9d1d9; stroke: #c9d1d9; stroke-width: 0.8"/>
      </g>
     </g>
     <g id="text_11">
      <!-- 400 -->
      <g style="fill: #c9d1d9" transform="translate(22.81375 236.722365) scale(0.1 -0.1)">
       <defs>
        <path id="DejaVuSans-34" d="M 2419 4116 
L 825 1625 
L 2419 1625 
L 2419 4116 
z
M 2253 4666 
L 3047 4666 
L 3047 1625 
L 3713 1625 
L 3713 1100 
L 3047 1100 
L 3047 0 
L 2419 0 
L 2419 1100 
L 313 1100 
L 313 1709 
L 2253 4666 
z
" transform="scale(0.015625)"/>
       </defs>
       <use xlink:href="#DejaVuSans-34"/>
       <use xlink:href="#DejaVuSans-30" transform="translate(63.623047 0)"/>
       <use xlink:href="#DejaVuSans-30" transform="translate(127.246094 0)"/>
      </g>
     </g>
    </g>
    <g id="ytick_6">
     <g id="line2d_21">
      <path d="M 48.90125 177.344479 
L 848.35125 177.344479 
" clip-path="url(#p096e73cac3)" style="fill: none; stroke: #30363d; stroke-opacity: 0.25; stroke-width: 0.5; stroke-linecap: square"/>
     </g>
     <g id="line2d_22">
      <g>
       <use xlink:href="#m5e227e5f42" x="48.90125" y="177.344479" style="fill: #c9d1d9; stroke: #c9d1d9; stroke-width: 0.8"/>
      </g>
     </g>
     <g id="text_12">
      <!-- 500 -->
      <g style="fill: #c9d1d9" transform="translate(22.81375 181.143698) scale(0.1 -0.1)">
       <defs>
        <path id="DejaVuSans-35" d="M 691 4666 
L 3169 4666 
L 3169 4134 
L 1269 4134 
L 1269 2991 
Q 1406 3038 1543 3061 
Q 1681 3084 1819 3084 
Q 2600 3084 3056 2656 
Q 3513 2228 3513 1497 
Q 3513 744 3044 326 
Q 2575 -91 1722 -91 
Q 1428 -91 1123 -41 
Q 819 9 494 109 
L 494 744 
Q 775 591 1075 516 
Q 1375 441 1709 441 
Q 2250 441 2565 725 
Q 2881 1009 2881 1497 
Q 2881 1984 2565 2268 
Q 2250 2553 1709 2553 
Q 1456 2553 1204 2497 
Q 953 2441 691 2322 
L 691 4666 
z
" transform="scale(0.015625)"/>
       </defs>
       <use xlink:href="#DejaVuSans-35"/>
       <use xlink:href="#DejaVuSans-30" transform="translate(63.623047 0)"/>
       <use xlink:href="#DejaVuSans-30" transform="translate(127.246094 0)"/>
      </g>
     </g>
    </g>
    <g id="ytick_7">
     <g id="line2d_23">
      <path d="M 48.90125 121.765812 
L 848.35125 121.765812 
" clip-path="url(#p096e73cac3)" style="fill: none; stroke: #30363d; stroke-opacity: 0.25; stroke-width: 0.5; stroke-linecap: square"/>
     </g>
     <g id="line2d_24">
      <g>
       <use xlink:href="#m5e227e5f42" x="48.90125" y="121.765812" style="fill: #c9d1d9; stroke: #c9d1d9; stroke-width: 0.8"/>
      </g>
     </g>
     <g id="text_13">
      <!-- 600 -->
      <g style="fill: #c9d1d9" transform="translate(22.81375 125.565031) scale(0.1 -0.1)">
       <use xlink:href="#DejaVuSans-36"/>
       <use xlink:href="#DejaVuSans-30" transform="translate(63.623047 0)"/>
       <use xlink:href="#DejaVuSans-30" transform="translate(127.246094 0)"/>
      </g>
     </g>
    </g>
    <g id="ytick_8">
     <g id="line2d_25">
      <path d="M 48.90125 66.187146 
L 848.35125 66.187146 
" clip-path="url(#p096e73cac3)" style="fill: none; stroke: #30363d; stroke-opacity: 0.25; stroke-width: 0.5; stroke-linecap: square"/>
     </g>
     <g id="line2d_26">
      <g>
       <use xlink:href="#m5e227e5f42" x="48.90125" y="66.187146" style="fill: #c9d1d9; stroke: #c9d1d9; stroke-width: 0.8"/>
      </g>
     </g>
     <g id="text_14">
      <!-- 700 -->
      <g style="fill: #c9d1d9" transform="translate(22.81375 69.986365) scale(0.1 -0.1)">
       <defs>
        <path id="DejaVuSans-37" d="M 525 4666 
L 3525 4666 
L 3525 4397 
L 1831 0 
L 1172 0 
L 2766 4134 
L 525 4134 
L 525 4666 
z
" transform="scale(0.015625)"/>
       </defs>
       <use xlink:href="#DejaVuSans-37"/>
       <use xlink:href="#DejaVuSans-30" transform="translate(63.623047 0)"/>
       <use xlink:href="#DejaVuSans-30" transform="translate(127.246094 0)"/>
      </g>
     </g>
    </g>
    <g id="text_15">
     <!-- Count -->
     <g style="fill: #c9d1d9" transform="translate(16.318125 264.635937) rotate(-90) scale(0.12 -0.12)">
      <defs>
       <path id="DejaVuSans-43" d="M 4122 4306 
L 4122 3641 
Q 3803 3938 3442 4084 
Q 3081 4231 2675 4231 
Q 1875 4231 1450 3742 
Q 1025 3253 1025 2328 
Q 1025 1406 1450 917 
Q 1875 428 2675 428 
Q 3081 428 3442 575 
Q 3803 722 4122 1019 
L 4122 359 
Q 3791 134 3420 21 
Q 3050 -91 2638 -91 
Q 1578 -91 968 557 
Q 359 1206 359 2328 
Q 359 3453 968 4101 
Q 1578 4750 2638 4750 
Q 3056 4750 3426 4639 
Q 3797 4528 4122 4306 
z
" transform="scale(0.015625)"/>
       <path id="DejaVuSans-75" d="M 544 1381 
L 544 3500 
L 1119 3500 
L 1119 1403 
Q 1119 906 1312 657 
Q 1506 409 1894 409 
Q 2359 409 2629 706 
Q 2900 1003 2900 1516 
L 2900 3500 
L 3475 3500 
L 3475 0 
L 2900 0 
L 2900 538 
Q 2691 219 2414 64 
Q 2138 -91 1772 -91 
Q 1169 -91 856 284 
Q 544 659 544 1381 
z
M 1991 3584 
L 1991 3584 
z
" transform="scale(0.015625)"/>
       <path id="DejaVuSans-6e" d="M 3513 2113 
L 3513 0 
L 2938 0 
L 2938 2094 
Q 2938 2591 2744 2837 
Q 2550 3084 2163 3084 
Q 1697 3084 1428 2787 
Q 1159 2491 1159 1978 
L 1159 0 
L 581 0 
L 581 3500 
L 1159 3500 
L 1159 2956 
Q 1366 3272 1645 3428 
Q 1925 3584 2291 3584 
Q 2894 3584 3203 3211 
Q 3513 2838 3513 2113 
z
" transform="scale(0.015625)"/>
      </defs>
      <use xlink:href="#DejaVuSans-43"/>
      <use xlink:href="#DejaVuSans-6f" transform="translate(69.824219 0)"/>
      <use xlink:href="#DejaVuSans-75" transform="translate(131.005859 0)"/>
      <use xlink:href="#DejaVuSans-6e" transform="translate(194.384766 0)"/>
      <use xlink:href="#DejaVuSans-74" transform="translate(257.763672 0)"/>
     </g>
    </g>
   </g>
   <g id="line2d_27">
    <path d="M 85.239886 454.682026 
L 85.338178 454.682026 
L 85.400539 454.126239 
L 85.708956 454.126239 
L 85.848465 257.933546 
L 90.171234 257.933546 
L 90.190121 261.268266 
L 95.191075 261.268266 
L 95.314667 260.712479 
L 96.127373 260.712479 
L 96.690043 260.156692 
L 100.176587 259.600906 
L 100.245421 260.156692 
L 100.412547 259.600906 
L 111.209344 259.600906 
L 117.722866 260.712479 
L 118.692008 259.600906 
L 119.399651 259.600906 
L 121.18316 259.045119 
L 121.929348 256.821972 
L 123.382288 256.821972 
L 125.499574 260.712479 
L 125.636946 256.821972 
L 127.261644 256.266186 
L 131.489982 256.266186 
L 132.605284 255.710399 
L 134.261935 255.710399 
L 134.706001 254.598826 
L 145.031946 254.598826 
L 145.785082 253.487252 
L 145.823686 252.375679 
L 149.07528 252.375679 
L 153.869911 251.264106 
L 156.385057 251.264106 
L 156.423127 250.708319 
L 162.199251 250.708319 
L 163.632117 247.929386 
L 168.166793 247.929386 
L 168.19827 247.373599 
L 193.594724 247.373599 
L 198.34196 246.817812 
L 198.504038 247.373599 
L 203.427546 246.817812 
L 220.560939 246.817812 
L 228.865277 246.262026 
L 229.0093 245.706239 
L 229.025692 245.706239 
L 229.420166 245.150452 
L 234.104923 245.150452 
L 236.098795 244.594666 
L 244.321292 244.594666 
L 244.633451 247.373599 
L 244.648773 245.150452 
L 245.048534 245.150452 
L 247.033616 242.927306 
L 256.752705 242.927306 
L 264.201456 242.371519 
L 272.480256 242.371519 
L 272.84355 241.815732 
L 294.355955 241.815732 
L 295.27408 241.259946 
L 300.497572 241.259946 
L 300.534394 240.148372 
L 310.487008 240.148372 
L 310.688878 236.257866 
L 328.702564 236.257866 
L 328.707968 235.702079 
L 329.229658 235.702079 
L 331.088357 235.146292 
L 333.807333 235.146292 
L 334.541167 234.590506 
L 334.614575 235.146292 
L 336.294982 234.590506 
L 336.302643 234.034719 
L 336.3419 234.590506 
L 337.312586 234.034719 
L 346.154886 234.034719 
L 348.904033 233.478932 
L 352.166139 233.478932 
L 357.706779 232.923146 
L 362.952008 232.923146 
L 367.004489 231.811572 
L 375.873099 231.811572 
L 381.032033 230.699999 
L 382.485567 231.255786 
L 389.686064 231.255786 
L 397.808547 229.032639 
L 409.922218 229.032639 
L 413.679111 228.476852 
L 480.6314 228.476852 
L 481.172095 227.921066 
L 505.588064 227.921066 
L 505.99602 227.365279 
L 547.542176 227.365279 
L 556.690517 226.809492 
L 556.743435 227.365279 
L 563.292295 225.697919 
L 572.903114 225.697919 
L 578.150956 225.142132 
L 578.159568 224.586346 
L 589.109236 224.586346 
L 593.039194 225.142132 
L 594.451926 224.586346 
L 612.776761 224.586346 
L 613.556623 225.142132 
L 614.985213 224.586346 
L 615.476138 222.363199 
L 623.873838 222.363199 
L 623.881083 221.807412 
L 649.577877 221.807412 
L 651.074291 221.251626 
L 656.012766 221.251626 
L 656.494545 220.695839 
L 680.576203 220.695839 
L 680.608927 220.140052 
L 686.632118 220.140052 
L 686.641086 219.584266 
L 688.102637 219.584266 
L 688.178955 219.028479 
L 690.448579 219.028479 
L 690.805162 218.472692 
L 695.662866 218.472692 
L 696.401273 217.361119 
L 699.075469 215.137972 
L 705.542132 215.137972 
L 706.019575 212.359039 
L 708.187998 212.359039 
L 709.252224 211.247466 
L 714.736145 211.247466 
L 716.535572 210.691679 
L 721.686428 210.691679 
L 722.376789 210.135892 
L 736.366976 210.135892 
L 736.711681 209.580106 
L 738.005631 209.580106 
L 740.01453 209.024319 
L 762.642713 209.024319 
L 762.846008 208.468532 
L 763.571528 208.468532 
L 765.086115 207.356959 
L 767.209579 207.356959 
L 767.720162 206.801172 
L 768.212097 206.801172 
L 768.398763 206.245386 
L 774.077487 206.245386 
L 775.044252 205.689599 
L 779.987122 205.689599 
L 780.304032 205.133812 
L 783.011546 205.133812 
L 783.185027 204.578026 
L 791.599356 204.578026 
L 791.780261 204.022239 
L 796.687615 204.022239 
L 798.056813 202.354879 
L 798.326686 201.799092 
L 800.14393 201.799092 
L 800.14583 201.243306 
L 807.52456 201.243306 
L 808.643425 200.687519 
L 812.012614 200.687519 
L 812.012614 200.687519 
" clip-path="url(#p096e73cac3)" style="fill: none; stroke: #3fb950; stroke-width: 2; stroke-linecap: square"/>
   </g>
   <g id="line2d_28">
    <path d="M 85.239886 455.237812 
L 85.338178 453.570452 
L 85.575326 453.570452 
L 85.708956 372.981386 
L 88.132047 372.981386 
L 88.181876 370.758239 
L 90.67968 370.758239 
L 91.32324 369.090879 
L 92.1989 370.758239 
L 92.205374 369.090879 
L 92.929943 369.090879 
L 93.209971 367.979306 
L 100.36545 367.979306 
L 100.37228 367.423519 
L 100.412547 367.979306 
L 100.764736 367.423519 
L 100.868016 367.979306 
L 101.143472 367.423519 
L 103.654461 367.423519 
L 103.785834 366.867732 
L 104.143664 366.311946 
L 106.97869 366.311946 
L 110.204924 365.756159 
L 110.31848 365.200372 
L 111.190458 364.644586 
L 111.209344 364.088799 
L 117.722866 367.979306 
L 118.692008 366.311946 
L 119.399651 363.533012 
L 123.382288 363.533012 
L 125.499574 367.979306 
L 125.636946 363.533012 
L 164.326635 363.533012 
L 165.513859 362.977226 
L 168.19827 362.977226 
L 175.529843 362.421439 
L 177.315729 361.865652 
L 202.761774 361.865652 
L 203.427546 361.309866 
L 206.848108 360.754079 
L 209.022172 360.754079 
L 211.432019 360.198292 
L 211.496933 359.086719 
L 213.153465 358.530932 
L 214.266807 357.975146 
L 229.604516 357.975146 
L 232.661961 357.419359 
L 233.586262 357.419359 
L 234.104923 356.863572 
L 236.098795 356.863572 
L 238.079661 356.307786 
L 244.321292 356.307786 
L 244.633451 358.530932 
L 244.648773 356.307786 
L 247.033616 356.307786 
L 247.273021 355.751999 
L 250.648683 355.751999 
L 253.969883 355.196212 
L 254.050477 354.640426 
L 264.201456 354.640426 
L 268.483008 354.084639 
L 268.493817 353.528852 
L 282.741465 353.528852 
L 288.684715 352.973066 
L 293.143668 352.973066 
L 294.355955 352.417279 
L 301.162216 352.417279 
L 305.044245 351.861492 
L 305.257042 351.305706 
L 309.041848 351.305706 
L 309.481104 350.749919 
L 310.688878 350.194132 
L 313.385048 350.194132 
L 315.087311 349.638346 
L 318.208364 349.638346 
L 320.245354 349.082559 
L 324.59087 349.082559 
L 326.071308 347.970986 
L 337.312586 347.970986 
L 340.513995 347.415199 
L 344.267977 347.415199 
L 345.114535 346.859412 
L 345.37342 346.303626 
L 346.154886 345.747839 
L 359.082154 345.747839 
L 361.449002 345.192052 
L 362.952008 344.636266 
L 399.712204 344.636266 
L 407.96398 344.080479 
L 408.062569 343.524692 
L 413.679111 343.524692 
L 418.47968 342.968906 
L 426.964625 342.968906 
L 427.681592 342.413119 
L 442.131822 342.413119 
L 453.443538 341.857332 
L 453.552104 341.301546 
L 455.030939 341.301546 
L 458.027152 340.745759 
L 458.045088 339.634186 
L 458.326126 338.522612 
L 464.584683 337.966826 
L 464.95944 337.411039 
L 464.976841 336.855252 
L 465.108808 336.299466 
L 465.675635 335.743679 
L 486.041617 335.743679 
L 491.827244 335.187892 
L 495.510195 334.632106 
L 498.395406 334.632106 
L 505.085023 334.076319 
L 505.588064 331.853172 
L 505.99602 331.853172 
L 506.387407 331.297386 
L 506.957857 330.741599 
L 519.64667 330.185812 
L 520.050528 329.630026 
L 520.169667 329.074239 
L 522.850395 329.074239 
L 525.381815 328.518452 
L 525.672771 327.962666 
L 525.705733 327.406879 
L 525.870365 326.851092 
L 527.545961 326.295306 
L 527.66896 325.739519 
L 530.726167 325.183732 
L 534.744796 324.627946 
L 535.030585 324.072159 
L 535.036643 323.516372 
L 535.844953 322.960586 
L 535.987729 322.404799 
L 540.836524 321.849012 
L 541.817127 321.849012 
L 542.86217 321.293226 
L 567.402919 321.293226 
L 571.472624 320.737439 
L 571.842986 320.181652 
L 588.475535 320.181652 
L 589.109236 319.070079 
L 596.039149 319.070079 
L 598.131372 318.514292 
L 598.233584 317.402719 
L 598.770835 316.846932 
L 602.328292 316.291146 
L 602.40841 315.735359 
L 602.837807 315.179572 
L 602.91555 313.512212 
L 603.277834 312.956426 
L 603.767988 312.956426 
L 603.786043 312.400639 
L 606.755886 311.844852 
L 607.923452 311.289066 
L 608.205975 310.733279 
L 613.556623 310.177492 
L 617.499825 310.177492 
L 618.869083 309.621706 
L 633.694544 309.621706 
L 638.606115 309.065919 
L 638.625655 308.510132 
L 639.508976 307.954346 
L 651.074291 307.954346 
L 654.319293 307.398559 
L 655.656064 306.842772 
L 656.012766 305.731199 
L 665.367907 305.731199 
L 666.005291 305.175412 
L 671.142487 305.175412 
L 673.601925 304.619626 
L 680.608927 304.619626 
L 684.844985 304.063839 
L 693.641911 304.063839 
L 694.723123 303.508052 
L 699.075469 303.508052 
L 700.26014 302.952266 
L 700.774049 302.396479 
L 701.027174 301.840692 
L 704.609813 301.840692 
L 704.711668 300.729119 
L 706.019575 300.729119 
L 706.386552 299.617546 
L 706.878309 299.061759 
L 709.994729 299.061759 
L 710.38178 298.505972 
L 710.682239 298.505972 
L 712.173901 297.950186 
L 714.649256 297.950186 
L 714.736145 297.394399 
L 716.535572 297.394399 
L 716.972629 296.838612 
L 718.663905 296.838612 
L 721.253409 295.727039 
L 722.376789 295.727039 
L 726.721532 294.615466 
L 726.728065 294.059679 
L 727.557578 293.503892 
L 729.674034 292.948106 
L 730.003119 292.392319 
L 732.113279 291.836532 
L 735.562704 291.836532 
L 736.071447 291.280746 
L 736.366976 290.724959 
L 740.918578 290.724959 
L 741.038014 290.169172 
L 742.236523 290.169172 
L 742.328519 289.613386 
L 742.986214 289.057599 
L 745.274666 289.057599 
L 745.448741 288.501812 
L 745.84078 288.501812 
L 745.938181 287.946026 
L 746.096221 287.946026 
L 746.101566 287.390239 
L 749.319604 287.390239 
L 749.956869 286.834452 
L 750.491981 286.834452 
L 750.811801 286.278666 
L 751.628545 286.278666 
L 752.240034 285.722879 
L 752.368972 285.167092 
L 752.54376 285.167092 
L 755.617656 284.611306 
L 757.917926 284.611306 
L 758.092061 284.055519 
L 767.166045 284.055519 
L 767.209579 283.499732 
L 767.720162 283.499732 
L 768.212097 282.943946 
L 768.398763 282.943946 
L 768.736104 282.388159 
L 771.986272 282.388159 
L 772.184579 281.276586 
L 772.353368 279.609226 
L 772.889015 279.053439 
L 775.044252 279.053439 
L 776.060728 278.497652 
L 777.045964 278.497652 
L 777.363646 277.941866 
L 778.890884 277.386079 
L 780.304032 277.386079 
L 783.144997 276.830292 
L 783.185027 276.274506 
L 784.053203 276.274506 
L 784.197108 275.718719 
L 786.722588 275.718719 
L 786.792729 275.162932 
L 799.040387 275.162932 
L 799.132621 274.607146 
L 799.59397 274.607146 
L 799.60757 273.495572 
L 801.33258 273.495572 
L 801.459795 272.939786 
L 801.668198 272.939786 
L 802.760516 272.383999 
L 803.03508 271.828212 
L 803.536755 271.828212 
L 803.961282 271.272426 
L 803.988364 270.716639 
L 810.253811 270.716639 
L 811.80718 270.160852 
L 812.012614 269.049279 
L 812.012614 269.049279 
" clip-path="url(#p096e73cac3)" style="fill: none; stroke: #58a6ff; stroke-width: 2; stroke-linecap: square"/>
   </g>
   <g id="line2d_29">
    <path d="M 85.239886 455.237812 
L 90.171234 455.237812 
L 90.190121 454.126239 
L 94.26125 454.126239 
L 95.191075 453.570452 
L 346.154886 453.570452 
L 348.904033 453.014666 
L 418.47968 453.014666 
L 420.410538 452.458879 
L 486.041617 452.458879 
L 491.827244 451.903092 
L 506.957857 451.903092 
L 520.169667 450.235732 
L 522.850395 449.124159 
L 527.66896 449.124159 
L 530.726167 448.568372 
L 535.036643 448.012586 
L 535.987729 448.012586 
L 540.836524 447.456799 
L 541.817127 447.456799 
L 542.86217 446.901012 
L 547.542176 446.345226 
L 556.690517 445.789439 
L 556.743435 446.345226 
L 571.842986 446.345226 
L 572.903114 445.789439 
L 594.451926 445.789439 
L 596.039149 445.233652 
L 603.277834 445.233652 
L 603.786043 444.677866 
L 612.776761 444.677866 
L 613.556623 444.122079 
L 646.492756 444.122079 
L 649.577877 443.566292 
L 650.8745 443.566292 
L 651.074291 443.010506 
L 659.864684 443.010506 
L 659.873058 442.454719 
L 680.576203 442.454719 
L 680.608927 441.898932 
L 686.641086 441.898932 
L 688.178955 441.343146 
L 690.4446 440.787359 
L 690.448579 440.231572 
L 690.805162 440.231572 
L 693.641911 438.564212 
L 695.552874 438.564212 
L 695.662866 436.896852 
L 696.401273 436.896852 
L 699.075469 437.452639 
L 700.998666 437.452639 
L 701.027174 435.229492 
L 708.187998 435.229492 
L 709.252224 434.673706 
L 710.38178 434.673706 
L 710.682239 434.117919 
L 736.366976 434.117919 
L 736.711681 433.562132 
L 738.005631 433.562132 
L 740.01453 433.006346 
L 748.877498 433.006346 
L 749.319604 432.450559 
L 752.368972 432.450559 
L 752.54376 431.894772 
L 762.642713 431.894772 
L 762.846008 431.338986 
L 763.571528 431.338986 
L 764.307381 430.783199 
L 765.042522 430.783199 
L 765.086115 430.227412 
L 768.212097 430.227412 
L 768.398763 429.671626 
L 782.910878 429.671626 
L 783.011546 429.115839 
L 783.185027 429.115839 
L 783.333979 428.560052 
L 784.197108 428.560052 
L 786.006512 428.004266 
L 793.080507 428.004266 
L 793.086743 427.448479 
L 794.438421 427.448479 
L 794.489853 426.892692 
L 798.326686 426.892692 
L 799.132621 426.336906 
L 804.245764 426.336906 
L 805.728756 425.781119 
L 808.612839 425.781119 
L 808.643425 424.669546 
L 808.877307 424.669546 
L 809.171648 424.113759 
L 812.012614 424.113759 
L 812.012614 424.113759 
" clip-path="url(#p096e73cac3)" style="fill: none; stroke: #d29922; stroke-width: 2; stroke-linecap: square"/>
   </g>
   <g id="line2d_30">
    <path d="M 85.239886 454.682026 
L 85.661681 454.682026 
L 85.708956 433.006346 
L 86.037566 431.338986 
L 86.15225 430.227412 
L 86.824615 426.892692 
L 87.382414 425.781119 
L 87.665412 426.336906 
L 88.181876 425.781119 
L 89.055338 425.225332 
L 89.661363 424.113759 
L 90.171234 423.557972 
L 90.190121 423.002186 
L 90.67968 421.334826 
L 91.32324 421.334826 
L 92.1989 420.779039 
L 92.205374 420.223252 
L 92.910404 419.667466 
L 92.929943 419.111679 
L 93.209971 419.111679 
L 94.26125 418.555892 
L 95.012367 418.000106 
L 95.191075 411.886452 
L 95.314667 412.442239 
L 95.548489 410.219092 
L 95.784865 406.328586 
L 95.793239 407.995946 
L 95.881257 405.217012 
L 96.127373 402.993866 
L 100.37228 402.993866 
L 100.412547 402.438079 
L 100.764736 399.659146 
L 100.868016 402.438079 
L 101.346529 397.991786 
L 101.583499 397.435999 
L 103.349013 396.880212 
L 103.402287 396.324426 
L 103.654461 395.768639 
L 104.143664 395.768639 
L 105.05288 395.212852 
L 105.538579 394.657066 
L 105.736707 394.101279 
L 105.758563 393.545492 
L 105.892371 392.989706 
L 106.346117 392.433919 
L 106.357342 391.878132 
L 106.813702 392.433919 
L 106.94359 391.878132 
L 106.959566 392.433919 
L 106.97869 390.766559 
L 111.209344 390.766559 
L 117.722866 402.993866 
L 118.692008 390.210772 
L 119.197127 389.654986 
L 121.929348 389.654986 
L 122.392063 389.099199 
L 123.382288 388.543412 
L 125.499574 402.993866 
L 125.636946 387.987626 
L 127.261644 387.431839 
L 130.736073 386.876052 
L 130.983852 387.431839 
L 131.438133 386.320266 
L 131.489982 385.764479 
L 132.605284 385.764479 
L 132.944169 385.208692 
L 133.584225 384.652906 
L 133.63732 383.541332 
L 134.227725 382.429759 
L 134.261935 382.985546 
L 134.613113 382.985546 
L 134.805659 381.873972 
L 135.39838 379.650826 
L 135.476301 378.539252 
L 136.236742 376.871892 
L 136.608411 377.983466 
L 138.007305 376.316106 
L 139.236341 374.648746 
L 139.928305 375.760319 
L 142.775981 373.537172 
L 145.031946 377.427679 
L 145.823686 373.537172 
L 149.07528 371.869812 
L 153.869911 371.869812 
L 154.503137 371.314026 
L 155.007069 369.646666 
L 156.423127 371.314026 
L 162.199251 371.869812 
L 163.632117 369.646666 
L 164.326635 367.979306 
L 165.513859 369.646666 
L 168.19827 367.979306 
L 177.315729 367.979306 
L 186.902791 367.423519 
L 187.542135 366.867732 
L 193.594724 366.311946 
L 197.59696 366.311946 
L 198.34196 365.756159 
L 198.504038 366.311946 
L 202.761774 364.644586 
L 206.755398 364.644586 
L 206.848108 364.088799 
L 209.022172 363.533012 
L 214.266807 363.533012 
L 216.580322 359.642506 
L 218.302243 359.086719 
L 220.51794 358.530932 
L 220.560939 357.975146 
L 228.865277 357.975146 
L 229.025692 354.084639 
L 229.33304 354.084639 
L 229.604516 352.973066 
L 232.661961 352.973066 
L 233.586262 352.417279 
L 238.079661 352.417279 
L 244.321292 351.861492 
L 244.633451 363.533012 
L 244.648773 352.417279 
L 245.048534 351.861492 
L 247.273021 351.861492 
L 250.648683 351.305706 
L 254.050477 351.305706 
L 256.752705 350.749919 
L 264.201456 349.638346 
L 268.493817 349.638346 
L 271.94348 349.082559 
L 272.480256 346.303626 
L 272.84355 346.303626 
L 273.486397 345.747839 
L 276.83955 345.192052 
L 277.614661 342.968906 
L 282.248995 341.857332 
L 282.304822 342.413119 
L 282.741465 341.857332 
L 288.684715 340.745759 
L 293.143668 340.189972 
L 295.27408 340.189972 
L 297.162355 339.634186 
L 298.798754 338.522612 
L 300.534394 337.966826 
L 301.162216 337.411039 
L 305.257042 337.966826 
L 309.041848 336.855252 
L 309.481104 337.411039 
L 310.487008 337.411039 
L 310.688878 336.855252 
L 313.385048 336.299466 
L 315.087311 336.855252 
L 318.208364 335.743679 
L 320.245354 335.743679 
L 324.59087 335.187892 
L 325.31146 335.743679 
L 326.071308 334.076319 
L 328.707968 334.076319 
L 329.229658 333.520532 
L 331.088357 331.853172 
L 331.500055 331.297386 
L 332.141536 330.185812 
L 333.807333 330.741599 
L 334.541167 329.630026 
L 334.614575 329.074239 
L 340.513995 329.074239 
L 343.501893 328.518452 
L 344.267977 327.962666 
L 348.904033 327.962666 
L 352.166139 327.406879 
L 357.706779 327.406879 
L 359.082154 326.851092 
L 374.317948 326.851092 
L 375.192954 326.295306 
L 375.280615 325.739519 
L 375.873099 325.183732 
L 382.485567 325.183732 
L 382.897681 324.627946 
L 384.580048 324.072159 
L 384.87142 323.516372 
L 387.658755 322.960586 
L 389.686064 322.404799 
L 397.808547 322.404799 
L 399.712204 321.293226 
L 408.062569 321.293226 
L 409.922218 320.737439 
L 417.70445 320.737439 
L 418.47968 320.181652 
L 420.410538 319.625866 
L 420.985324 319.070079 
L 421.180482 318.514292 
L 426.964625 317.958506 
L 427.681592 318.514292 
L 435.296044 317.402719 
L 441.316444 316.291146 
L 442.131822 315.735359 
L 453.552104 315.735359 
L 455.030939 315.179572 
L 465.675635 315.179572 
L 475.702725 314.623786 
L 476.963951 314.067999 
L 481.172095 313.512212 
L 485.392118 312.956426 
L 486.041617 312.400639 
L 495.510195 312.400639 
L 498.395406 311.844852 
L 520.169667 311.844852 
L 522.850395 311.289066 
L 540.836524 311.289066 
L 541.817127 310.733279 
L 542.86217 311.289066 
L 547.542176 310.733279 
L 563.292295 310.733279 
L 565.40293 310.177492 
L 598.721659 310.177492 
L 598.770835 309.621706 
L 619.348486 309.621706 
L 623.869502 309.065919 
L 623.881083 308.510132 
L 646.482719 308.510132 
L 646.492756 307.398559 
L 659.873058 307.398559 
L 666.005291 306.842772 
L 673.601925 306.842772 
L 680.608927 305.731199 
L 694.723123 305.731199 
L 695.552874 305.175412 
L 695.662866 304.619626 
L 700.998666 304.619626 
L 701.027174 304.063839 
L 701.581232 304.063839 
L 702.464434 303.508052 
L 710.38178 303.508052 
L 710.682239 302.952266 
L 721.253409 302.952266 
L 721.686428 302.396479 
L 747.502954 302.396479 
L 748.875538 300.729119 
L 748.877498 300.173332 
L 752.535029 300.173332 
L 752.54376 299.617546 
L 763.332182 299.617546 
L 763.571528 299.061759 
L 768.736104 299.061759 
L 768.921641 298.505972 
L 788.107763 298.505972 
L 788.4767 297.950186 
L 792.930069 297.950186 
L 793.086743 297.394399 
L 794.489853 296.838612 
L 812.012614 296.838612 
L 812.012614 296.838612 
" clip-path="url(#p096e73cac3)" style="fill: none; stroke: #f85149; stroke-width: 2; stroke-linecap: square"/>
   </g>
   <g id="line2d_31">
    <path d="M 85.239886 454.682026 
L 85.273442 454.126239 
L 85.538004 -1 
M 85.775791 -1 
L 85.848465 101.201706 
L 90.171234 101.201706 
L 90.190121 97.866986 
L 95.191075 97.866986 
L 95.314667 98.422772 
L 96.127373 98.422772 
L 96.690043 98.978559 
L 100.176587 99.534346 
L 100.245421 98.978559 
L 100.412547 99.534346 
L 111.209344 99.534346 
L 117.722866 98.422772 
L 118.692008 99.534346 
L 119.197127 98.978559 
L 119.399651 98.978559 
L 121.18316 99.534346 
L 121.929348 96.755412 
L 123.382288 96.755412 
L 125.499574 98.422772 
L 125.636946 95.643839 
L 127.261644 96.199626 
L 131.489982 96.199626 
L 132.605284 95.088052 
L 134.261935 95.088052 
L 134.706001 91.197546 
L 145.031946 91.197546 
L 145.785082 87.862826 
L 145.823686 86.751252 
L 149.07528 86.751252 
L 153.869911 82.860746 
L 156.385057 82.860746 
L 156.423127 83.416532 
L 162.199251 83.416532 
L 163.632117 80.081812 
L 168.166793 80.081812 
L 168.19827 80.637599 
L 193.594724 80.637599 
L 198.34196 81.193386 
L 198.504038 80.637599 
L 203.427546 81.193386 
L 220.560939 81.193386 
L 228.865277 81.749172 
L 229.0093 74.523946 
L 229.025692 74.523946 
L 229.420166 75.079732 
L 234.104923 75.079732 
L 236.098795 75.635519 
L 244.321292 75.635519 
L 244.633451 80.637599 
L 244.648773 71.745012 
L 245.048534 71.745012 
L 247.033616 73.968159 
L 256.752705 73.968159 
L 264.201456 70.077652 
L 272.480256 70.077652 
L 272.84355 68.410292 
L 294.355955 68.410292 
L 295.27408 68.966079 
L 300.497572 68.966079 
L 300.534394 70.077652 
L 310.487008 70.077652 
L 310.688878 73.412372 
L 326.071308 73.412372 
L 326.4387 68.410292 
L 328.702564 67.298719 
L 328.707968 67.854506 
L 329.229658 67.854506 
L 331.088357 65.075572 
L 333.807333 65.075572 
L 334.541167 65.631359 
L 334.614575 65.075572 
L 336.294982 65.631359 
L 336.302643 66.187146 
L 336.3419 65.631359 
L 337.312586 63.408212 
L 346.154886 63.408212 
L 348.904033 63.963999 
L 352.166139 63.963999 
L 357.706779 64.519786 
L 362.952008 64.519786 
L 367.004489 65.631359 
L 375.280615 65.075572 
L 375.873099 65.075572 
L 381.032033 66.187146 
L 382.485567 65.631359 
L 389.686064 65.631359 
L 397.804152 67.854506 
L 397.808547 67.298719 
L 409.922218 67.298719 
L 413.679111 67.854506 
L 480.6314 67.854506 
L 481.172095 68.410292 
L 485.362007 68.410292 
L 485.392118 66.742932 
L 505.588064 66.742932 
L 505.99602 67.298719 
L 547.542176 67.298719 
L 556.690517 67.854506 
L 556.743435 67.298719 
L 563.292295 68.966079 
L 565.40293 68.966079 
L 567.402919 68.410292 
L 572.903114 68.410292 
L 578.150956 68.966079 
L 578.159568 69.521866 
L 593.039194 67.854506 
L 594.451926 68.410292 
L 612.776761 68.410292 
L 613.556623 67.854506 
L 614.985213 68.410292 
L 615.476138 70.633439 
L 623.873838 70.633439 
L 623.881083 71.189226 
L 649.577877 71.189226 
L 651.074291 71.745012 
L 656.012766 71.745012 
L 656.494545 72.300799 
L 680.576203 72.300799 
L 680.608927 72.856586 
L 684.844985 72.856586 
L 686.632118 73.412372 
L 686.641086 73.968159 
L 688.102637 73.412372 
L 688.178955 73.968159 
L 690.448579 73.968159 
L 690.805162 74.523946 
L 695.552874 74.523946 
L 695.662866 73.412372 
L 696.401273 74.523946 
L 699.075469 72.856586 
L 705.542132 72.856586 
L 706.019575 71.189226 
L 708.187998 71.189226 
L 709.252224 72.300799 
L 714.736145 72.300799 
L 716.535572 72.856586 
L 716.972629 72.856586 
L 718.663905 70.077652 
L 721.686428 70.077652 
L 722.376789 70.633439 
L 736.366976 70.633439 
L 736.711681 71.189226 
L 738.005631 71.189226 
L 740.01453 71.745012 
L 762.642713 71.745012 
L 762.846008 72.300799 
L 763.571528 72.300799 
L 765.086115 73.412372 
L 767.209579 73.412372 
L 767.720162 72.856586 
L 768.212097 72.856586 
L 768.398763 73.412372 
L 774.077487 73.412372 
L 775.044252 73.968159 
L 779.987122 73.968159 
L 780.304032 74.523946 
L 783.011546 74.523946 
L 783.185027 75.079732 
L 791.599356 75.079732 
L 791.780261 75.635519 
L 796.687615 75.635519 
L 798.056813 77.302879 
L 798.326686 77.858666 
L 800.14393 77.858666 
L 800.14583 78.414452 
L 807.52456 78.414452 
L 808.643425 78.970239 
L 812.012614 78.970239 
L 812.012614 78.970239 
" clip-path="url(#p096e73cac3)" style="fill: none; stroke: #9467bd; stroke-width: 2; stroke-linecap: square"/>
   </g>
   <g id="patch_3">
    <path d="M 48.90125 455.237812 
L 48.90125 38.397812 
" style="fill: none; stroke: #30363d; stroke-width: 0.8; stroke-linejoin: miter; stroke-linecap: square"/>
   </g>
   <g id="patch_4">
    <path d="M 848.35125 455.237812 
L 848.35125 38.397812 
" style="fill: none; stroke: #30363d; stroke-width: 0.8; stroke-linejoin: miter; stroke-linecap: square"/>
   </g>
   <g id="patch_5">
    <path d="M 48.90125 455.237812 
L 848.35125 455.237812 
" style="fill: none; stroke: #30363d; stroke-width: 0.8; stroke-linejoin: miter; stroke-linecap: square"/>
   </g>
   <g id="patch_6">
    <path d="M 48.90125 38.397812 
L 848.35125 38.397812 
" style="fill: none; stroke: #30363d; stroke-width: 0.8; stroke-linejoin: miter; stroke-linecap: square"/>
   </g>
   <g id="text_16">
    <!-- 458 -->
    <g style="fill: #3fb950" transform="translate(817.012614 203.170957) scale(0.09 -0.09)">
     <defs>
      <path id="DejaVuSans-Bold-34" d="M 2356 3675 
L 1038 1722 
L 2356 1722 
L 2356 3675 
z
M 2156 4666 
L 3494 4666 
L 3494 1722 
L 4159 1722 
L 4159 850 
L 3494 850 
L 3494 0 
L 2356 0 
L 2356 850 
L 288 850 
L 288 1881 
L 2156 4666 
z
" transform="scale(0.015625)"/>
      <path id="DejaVuSans-Bold-35" d="M 678 4666 
L 3669 4666 
L 3669 3781 
L 1638 3781 
L 1638 3059 
Q 1775 3097 1914 3117 
Q 2053 3138 2203 3138 
Q 3056 3138 3531 2711 
Q 4006 2284 4006 1522 
Q 4006 766 3489 337 
Q 2972 -91 2053 -91 
Q 1656 -91 1267 -14 
Q 878 63 494 219 
L 494 1166 
Q 875 947 1217 837 
Q 1559 728 1863 728 
Q 2300 728 2551 942 
Q 2803 1156 2803 1522 
Q 2803 1891 2551 2103 
Q 2300 2316 1863 2316 
Q 1603 2316 1309 2248 
Q 1016 2181 678 2041 
L 678 4666 
z
" transform="scale(0.015625)"/>
      <path id="DejaVuSans-Bold-38" d="M 2228 2088 
Q 1891 2088 1709 1903 
Q 1528 1719 1528 1375 
Q 1528 1031 1709 848 
Q 1891 666 2228 666 
Q 2563 666 2741 848 
Q 2919 1031 2919 1375 
Q 2919 1722 2741 1905 
Q 2563 2088 2228 2088 
z
M 1350 2484 
Q 925 2613 709 2878 
Q 494 3144 494 3541 
Q 494 4131 934 4440 
Q 1375 4750 2228 4750 
Q 3075 4750 3515 4442 
Q 3956 4134 3956 3541 
Q 3956 3144 3739 2878 
Q 3522 2613 3097 2484 
Q 3572 2353 3814 2058 
Q 4056 1763 4056 1313 
Q 4056 619 3595 264 
Q 3134 -91 2228 -91 
Q 1319 -91 855 264 
Q 391 619 391 1313 
Q 391 1763 633 2058 
Q 875 2353 1350 2484 
z
M 1631 3419 
Q 1631 3141 1786 2991 
Q 1941 2841 2228 2841 
Q 2509 2841 2662 2991 
Q 2816 3141 2816 3419 
Q 2816 3697 2662 3845 
Q 2509 3994 2228 3994 
Q 1941 3994 1786 3844 
Q 1631 3694 1631 3419 
z
" transform="scale(0.015625)"/>
     </defs>
     <use xlink:href="#DejaVuSans-Bold-34"/>
     <use xlink:href="#DejaVuSans-Bold-35" transform="translate(69.580078 0)"/>
     <use xlink:href="#DejaVuSans-Bold-38" transform="translate(139.160156 0)"/>
    </g>
   </g>
   <g id="text_17">
    <!-- 335 -->
    <g style="fill: #58a6ff" transform="translate(817.012614 271.532717) scale(0.09 -0.09)">
     <defs>
      <path id="DejaVuSans-Bold-33" d="M 2981 2516 
Q 3453 2394 3698 2092 
Q 3944 1791 3944 1325 
Q 3944 631 3412 270 
Q 2881 -91 1863 -91 
Q 1503 -91 1142 -33 
Q 781 25 428 141 
L 428 1069 
Q 766 900 1098 814 
Q 1431 728 1753 728 
Q 2231 728 2486 893 
Q 2741 1059 2741 1369 
Q 2741 1688 2480 1852 
Q 2219 2016 1709 2016 
L 1228 2016 
L 1228 2791 
L 1734 2791 
Q 2188 2791 2409 2933 
Q 2631 3075 2631 3366 
Q 2631 3634 2415 3781 
Q 2200 3928 1806 3928 
Q 1516 3928 1219 3862 
Q 922 3797 628 3669 
L 628 4550 
Q 984 4650 1334 4700 
Q 1684 4750 2022 4750 
Q 2931 4750 3382 4451 
Q 3834 4153 3834 3553 
Q 3834 3144 3618 2883 
Q 3403 2622 2981 2516 
z
" transform="scale(0.015625)"/>
     </defs>
     <use xlink:href="#DejaVuSans-Bold-33"/>
     <use xlink:href="#DejaVuSans-Bold-33" transform="translate(69.580078 0)"/>
     <use xlink:href="#DejaVuSans-Bold-35" transform="translate(139.160156 0)"/>
    </g>
   </g>
   <g id="text_18">
    <!-- 56 -->
    <g style="fill: #d29922" transform="translate(817.012614 426.597197) scale(0.09 -0.09)">
     <defs>
      <path id="DejaVuSans-Bold-36" d="M 2316 2303 
Q 2000 2303 1842 2098 
Q 1684 1894 1684 1484 
Q 1684 1075 1842 870 
Q 2000 666 2316 666 
Q 2634 666 2792 870 
Q 2950 1075 2950 1484 
Q 2950 1894 2792 2098 
Q 2634 2303 2316 2303 
z
M 3803 4544 
L 3803 3681 
Q 3506 3822 3243 3889 
Q 2981 3956 2731 3956 
Q 2194 3956 1894 3657 
Q 1594 3359 1544 2772 
Q 1750 2925 1990 3001 
Q 2231 3078 2516 3078 
Q 3231 3078 3670 2659 
Q 4109 2241 4109 1563 
Q 4109 813 3618 361 
Q 3128 -91 2303 -91 
Q 1394 -91 895 523 
Q 397 1138 397 2266 
Q 397 3422 980 4083 
Q 1563 4744 2578 4744 
Q 2900 4744 3203 4694 
Q 3506 4644 3803 4544 
z
" transform="scale(0.015625)"/>
     </defs>
     <use xlink:href="#DejaVuSans-Bold-35"/>
     <use xlink:href="#DejaVuSans-Bold-36" transform="translate(69.580078 0)"/>
    </g>
   </g>
   <g id="text_19">
    <!-- 285 -->
    <g style="fill: #f85149" transform="translate(817.012614 299.32205) scale(0.09 -0.09)">
     <defs>
      <path id="DejaVuSans-Bold-32" d="M 1844 884 
L 3897 884 
L 3897 0 
L 506 0 
L 506 884 
L 2209 2388 
Q 2438 2594 2547 2791 
Q 2656 2988 2656 3200 
Q 2656 3528 2436 3728 
Q 2216 3928 1850 3928 
Q 1569 3928 1234 3808 
Q 900 3688 519 3450 
L 519 4475 
Q 925 4609 1322 4679 
Q 1719 4750 2100 4750 
Q 2938 4750 3402 4381 
Q 3866 4013 3866 3353 
Q 3866 2972 3669 2642 
Q 3472 2313 2841 1759 
L 1844 884 
z
" transform="scale(0.015625)"/>
     </defs>
     <use xlink:href="#DejaVuSans-Bold-32"/>
     <use xlink:href="#DejaVuSans-Bold-38" transform="translate(69.580078 0)"/>
     <use xlink:href="#DejaVuSans-Bold-35" transform="translate(139.160156 0)"/>
    </g>
   </g>
   <g id="text_20">
    <!-- 677 -->
    <g style="fill: #9467bd" transform="translate(817.012614 81.453677) scale(0.09 -0.09)">
     <defs>
      <path id="DejaVuSans-Bold-37" d="M 428 4666 
L 3944 4666 
L 3944 3988 
L 2125 0 
L 953 0 
L 2675 3781 
L 428 3781 
L 428 4666 
z
" transform="scale(0.015625)"/>
     </defs>
     <use xlink:href="#DejaVuSans-Bold-36"/>
     <use xlink:href="#DejaVuSans-Bold-37" transform="translate(69.580078 0)"/>
     <use xlink:href="#DejaVuSans-Bold-37" transform="translate(139.160156 0)"/>
    </g>
   </g>
   <g id="text_21">
    <!-- Erds Problems Progress -->
    <g style="fill: #c9d1d9" transform="translate(349.588281 18.397812) scale(0.14 -0.14)">
     <defs>
      <path id="DejaVuSans-Bold-45" d="M 588 4666 
L 3834 4666 
L 3834 3756 
L 1791 3756 
L 1791 2888 
L 3713 2888 
L 3713 1978 
L 1791 1978 
L 1791 909 
L 3903 909 
L 3903 0 
L 588 0 
L 588 4666 
z
" transform="scale(0.015625)"/>
      <path id="DejaVuSans-Bold-72" d="M 3138 2547 
Q 2991 2616 2845 2648 
Q 2700 2681 2553 2681 
Q 2122 2681 1889 2404 
Q 1656 2128 1656 1613 
L 1656 0 
L 538 0 
L 538 3500 
L 1656 3500 
L 1656 2925 
Q 1872 3269 2151 3426 
Q 2431 3584 2822 3584 
Q 2878 3584 2943 3579 
Q 3009 3575 3134 3559 
L 3138 2547 
z
" transform="scale(0.015625)"/>
      <path id="DejaVuSans-Bold-64" d="M 2919 2988 
L 2919 4863 
L 4044 4863 
L 4044 0 
L 2919 0 
L 2919 506 
Q 2688 197 2409 53 
Q 2131 -91 1766 -91 
Q 1119 -91 703 423 
Q 288 938 288 1747 
Q 288 2556 703 3070 
Q 1119 3584 1766 3584 
Q 2128 3584 2408 3439 
Q 2688 3294 2919 2988 
z
M 2181 722 
Q 2541 722 2730 984 
Q 2919 1247 2919 1747 
Q 2919 2247 2730 2509 
Q 2541 2772 2181 2772 
Q 1825 2772 1636 2509 
Q 1447 2247 1447 1747 
Q 1447 1247 1636 984 
Q 1825 722 2181 722 
z
" transform="scale(0.015625)"/>
      <path id="DejaVuSans-Bold-151" d="M 1881 5119 
L 2560 5119 
L 1785 3944 
L 1275 3944 
L 1881 5119 
z
M 3016 5119 
L 3738 5119 
L 2888 3944 
L 2344 3944 
L 3016 5119 
z
M 2203 2784 
Q 1831 2784 1636 2517 
Q 1441 2250 1441 1747 
Q 1441 1244 1636 976 
Q 1831 709 2203 709 
Q 2569 709 2762 976 
Q 2956 1244 2956 1747 
Q 2956 2250 2762 2517 
Q 2569 2784 2203 2784 
z
M 2203 3584 
Q 3106 3584 3614 3096 
Q 4122 2609 4122 1747 
Q 4122 884 3614 396 
Q 3106 -91 2203 -91 
Q 1297 -91 786 396 
Q 275 884 275 1747 
Q 275 2609 786 3096 
Q 1297 3584 2203 3584 
z
" transform="scale(0.015625)"/>
      <path id="DejaVuSans-Bold-73" d="M 3272 3391 
L 3272 2541 
Q 2913 2691 2578 2766 
Q 2244 2841 1947 2841 
Q 1628 2841 1473 2761 
Q 1319 2681 1319 2516 
Q 1319 2381 1436 2309 
Q 1553 2238 1856 2203 
L 2053 2175 
Q 2913 2066 3209 1816 
Q 3506 1566 3506 1031 
Q 3506 472 3093 190 
Q 2681 -91 1863 -91 
Q 1516 -91 1145 -36 
Q 775 19 384 128 
L 384 978 
Q 719 816 1070 734 
Q 1422 653 1784 653 
Q 2113 653 2278 743 
Q 2444 834 2444 1013 
Q 2444 1163 2330 1236 
Q 2216 1309 1875 1350 
L 1678 1375 
Q 931 1469 631 1722 
Q 331 1975 331 2491 
Q 331 3047 712 3315 
Q 1094 3584 1881 3584 
Q 2191 3584 2531 3537 
Q 2872 3491 3272 3391 
z
" transform="scale(0.015625)"/>
      <path id="DejaVuSans-Bold-20" transform="scale(0.015625)"/>
      <path id="DejaVuSans-Bold-50" d="M 588 4666 
L 2584 4666 
Q 3475 4666 3951 4270 
Q 4428 3875 4428 3144 
Q 4428 2409 3951 2014 
Q 3475 1619 2584 1619 
L 1791 1619 
L 1791 0 
L 588 0 
L 588 4666 
z
M 1791 3794 
L 1791 2491 
L 2456 2491 
Q 2806 2491 2997 2661 
Q 3188 2831 3188 3144 
Q 3188 3456 2997 3625 
Q 2806 3794 2456 3794 
L 1791 3794 
z
" transform="scale(0.015625)"/>
      <path id="DejaVuSans-Bold-6f" d="M 2203 2784 
Q 1831 2784 1636 2517 
Q 1441 2250 1441 1747 
Q 1441 1244 1636 976 
Q 1831 709 2203 709 
Q 2569 709 2762 976 
Q 2956 1244 2956 1747 
Q 2956 2250 2762 2517 
Q 2569 2784 2203 2784 
z
M 2203 3584 
Q 3106 3584 3614 3096 
Q 4122 2609 4122 1747 
Q 4122 884 3614 396 
Q 3106 -91 2203 -91 
Q 1297 -91 786 396 
Q 275 884 275 1747 
Q 275 2609 786 3096 
Q 1297 3584 2203 3584 
z
" transform="scale(0.015625)"/>
      <path id="DejaVuSans-Bold-62" d="M 2400 722 
Q 2759 722 2948 984 
Q 3138 1247 3138 1747 
Q 3138 2247 2948 2509 
Q 2759 2772 2400 2772 
Q 2041 2772 1848 2508 
Q 1656 2244 1656 1747 
Q 1656 1250 1848 986 
Q 2041 722 2400 722 
z
M 1656 2988 
Q 1888 3294 2169 3439 
Q 2450 3584 2816 3584 
Q 3463 3584 3878 3070 
Q 4294 2556 4294 1747 
Q 4294 938 3878 423 
Q 3463 -91 2816 -91 
Q 2450 -91 2169 54 
Q 1888 200 1656 506 
L 1656 0 
L 538 0 
L 538 4863 
L 1656 4863 
L 1656 2988 
z
" transform="scale(0.015625)"/>
      <path id="DejaVuSans-Bold-6c" d="M 538 4863 
L 1656 4863 
L 1656 0 
L 538 0 
L 538 4863 
z
" transform="scale(0.015625)"/>
      <path id="DejaVuSans-Bold-65" d="M 4031 1759 
L 4031 1441 
L 1416 1441 
Q 1456 1047 1700 850 
Q 1944 653 2381 653 
Q 2734 653 3104 758 
Q 3475 863 3866 1075 
L 3866 213 
Q 3469 63 3072 -14 
Q 2675 -91 2278 -91 
Q 1328 -91 801 392 
Q 275 875 275 1747 
Q 275 2603 792 3093 
Q 1309 3584 2216 3584 
Q 3041 3584 3536 3087 
Q 4031 2591 4031 1759 
z
M 2881 2131 
Q 2881 2450 2695 2645 
Q 2509 2841 2209 2841 
Q 1884 2841 1681 2658 
Q 1478 2475 1428 2131 
L 2881 2131 
z
" transform="scale(0.015625)"/>
      <path id="DejaVuSans-Bold-6d" d="M 3781 2919 
Q 3994 3244 4286 3414 
Q 4578 3584 4928 3584 
Q 5531 3584 5847 3212 
Q 6163 2841 6163 2131 
L 6163 0 
L 5038 0 
L 5038 1825 
Q 5041 1866 5042 1909 
Q 5044 1953 5044 2034 
Q 5044 2406 4934 2573 
Q 4825 2741 4581 2741 
Q 4263 2741 4089 2478 
Q 3916 2216 3909 1719 
L 3909 0 
L 2784 0 
L 2784 1825 
Q 2784 2406 2684 2573 
Q 2584 2741 2328 2741 
Q 2006 2741 1831 2477 
Q 1656 2213 1656 1722 
L 1656 0 
L 531 0 
L 531 3500 
L 1656 3500 
L 1656 2988 
Q 1863 3284 2130 3434 
Q 2397 3584 2719 3584 
Q 3081 3584 3359 3409 
Q 3638 3234 3781 2919 
z
" transform="scale(0.015625)"/>
      <path id="DejaVuSans-Bold-67" d="M 2919 594 
Q 2688 288 2409 144 
Q 2131 0 1766 0 
Q 1125 0 706 504 
Q 288 1009 288 1791 
Q 288 2575 706 3076 
Q 1125 3578 1766 3578 
Q 2131 3578 2409 3434 
Q 2688 3291 2919 2981 
L 2919 3500 
L 4044 3500 
L 4044 353 
Q 4044 -491 3511 -936 
Q 2978 -1381 1966 -1381 
Q 1638 -1381 1331 -1331 
Q 1025 -1281 716 -1178 
L 716 -306 
Q 1009 -475 1290 -558 
Q 1572 -641 1856 -641 
Q 2406 -641 2662 -400 
Q 2919 -159 2919 353 
L 2919 594 
z
M 2181 2772 
Q 1834 2772 1640 2515 
Q 1447 2259 1447 1791 
Q 1447 1309 1634 1061 
Q 1822 813 2181 813 
Q 2531 813 2725 1069 
Q 2919 1325 2919 1791 
Q 2919 2259 2725 2515 
Q 2531 2772 2181 2772 
z
" transform="scale(0.015625)"/>
     </defs>
     <use xlink:href="#DejaVuSans-Bold-45"/>
     <use xlink:href="#DejaVuSans-Bold-72" transform="translate(68.310547 0)"/>
     <use xlink:href="#DejaVuSans-Bold-64" transform="translate(117.626953 0)"/>
     <use xlink:href="#DejaVuSans-Bold-151" transform="translate(189.208984 0)"/>
     <use xlink:href="#DejaVuSans-Bold-73" transform="translate(257.910156 0)"/>
     <use xlink:href="#DejaVuSans-Bold-20" transform="translate(317.431641 0)"/>
     <use xlink:href="#DejaVuSans-Bold-50" transform="translate(352.246094 0)"/>
     <use xlink:href="#DejaVuSans-Bold-72" transform="translate(425.537109 0)"/>
     <use xlink:href="#DejaVuSans-Bold-6f" transform="translate(474.853516 0)"/>
     <use xlink:href="#DejaVuSans-Bold-62" transform="translate(543.554688 0)"/>
     <use xlink:href="#DejaVuSans-Bold-6c" transform="translate(615.136719 0)"/>
     <use xlink:href="#DejaVuSans-Bold-65" transform="translate(649.414062 0)"/>
     <use xlink:href="#DejaVuSans-Bold-6d" transform="translate(717.236328 0)"/>
     <use xlink:href="#DejaVuSans-Bold-73" transform="translate(821.435547 0)"/>
     <use xlink:href="#DejaVuSans-Bold-20" transform="translate(880.957031 0)"/>
     <use xlink:href="#DejaVuSans-Bold-50" transform="translate(915.771484 0)"/>
     <use xlink:href="#DejaVuSans-Bold-72" transform="translate(989.0625 0)"/>
     <use xlink:href="#DejaVuSans-Bold-6f" transform="translate(1038.378906 0)"/>
     <use xlink:href="#DejaVuSans-Bold-67" transform="translate(1107.080078 0)"/>
     <use xlink:href="#DejaVuSans-Bold-72" transform="translate(1178.662109 0)"/>
     <use xlink:href="#DejaVuSans-Bold-65" transform="translate(1227.978516 0)"/>
     <use xlink:href="#DejaVuSans-Bold-73" transform="translate(1295.800781 0)"/>
     <use xlink:href="#DejaVuSans-Bold-73" transform="translate(1355.322266 0)"/>
    </g>
   </g>
   <g id="legend_1">
    <g id="patch_7">
     <path d="M 55.90125 119.788437 
L 213.771563 119.788437 
Q 215.771563 119.788437 215.771563 117.788437 
L 215.771563 45.397812 
Q 215.771563 43.397812 213.771563 43.397812 
L 55.90125 43.397812 
Q 53.90125 43.397812 53.90125 45.397812 
L 53.90125 117.788437 
Q 53.90125 119.788437 55.90125 119.788437 
z
" style="fill: #161b22; opacity: 0.8; stroke: #30363d; stroke-linejoin: miter"/>
    </g>
    <g id="line2d_32">
     <path d="M 57.90125 51.49625 
L 67.90125 51.49625 
L 77.90125 51.49625 
" style="fill: none; stroke: #3fb950; stroke-width: 2; stroke-linecap: square"/>
    </g>
    <g id="text_22">
     <!-- Solved -->
     <g style="fill: #c9d1d9" transform="translate(85.90125 54.99625) scale(0.1 -0.1)">
      <defs>
       <path id="DejaVuSans-6c" d="M 603 4863 
L 1178 4863 
L 1178 0 
L 603 0 
L 603 4863 
z
" transform="scale(0.015625)"/>
       <path id="DejaVuSans-64" d="M 2906 2969 
L 2906 4863 
L 3481 4863 
L 3481 0 
L 2906 0 
L 2906 525 
Q 2725 213 2448 61 
Q 2172 -91 1784 -91 
Q 1150 -91 751 415 
Q 353 922 353 1747 
Q 353 2572 751 3078 
Q 1150 3584 1784 3584 
Q 2172 3584 2448 3432 
Q 2725 3281 2906 2969 
z
M 947 1747 
Q 947 1113 1208 752 
Q 1469 391 1925 391 
Q 2381 391 2643 752 
Q 2906 1113 2906 1747 
Q 2906 2381 2643 2742 
Q 2381 3103 1925 3103 
Q 1469 3103 1208 2742 
Q 947 2381 947 1747 
z
" transform="scale(0.015625)"/>
      </defs>
      <use xlink:href="#DejaVuSans-53"/>
      <use xlink:href="#DejaVuSans-6f" transform="translate(63.476562 0)"/>
      <use xlink:href="#DejaVuSans-6c" transform="translate(124.658203 0)"/>
      <use xlink:href="#DejaVuSans-76" transform="translate(152.441406 0)"/>
      <use xlink:href="#DejaVuSans-65" transform="translate(211.621094 0)"/>
      <use xlink:href="#DejaVuSans-64" transform="translate(273.144531 0)"/>
     </g>
    </g>
    <g id="line2d_33">
     <path d="M 57.90125 66.174375 
L 67.90125 66.174375 
L 77.90125 66.174375 
" style="fill: none; stroke: #58a6ff; stroke-width: 2; stroke-linecap: square"/>
    </g>
    <g id="text_23">
     <!-- Lean Formalized Problem -->
     <g style="fill: #c9d1d9" transform="translate(85.90125 69.674375) scale(0.1 -0.1)">
      <defs>
       <path id="DejaVuSans-4c" d="M 628 4666 
L 1259 4666 
L 1259 531 
L 3531 531 
L 3531 0 
L 628 0 
L 628 4666 
z
" transform="scale(0.015625)"/>
       <path id="DejaVuSans-20" transform="scale(0.015625)"/>
       <path id="DejaVuSans-46" d="M 628 4666 
L 3309 4666 
L 3309 4134 
L 1259 4134 
L 1259 2759 
L 3109 2759 
L 3109 2228 
L 1259 2228 
L 1259 0 
L 628 0 
L 628 4666 
z
" transform="scale(0.015625)"/>
       <path id="DejaVuSans-72" d="M 2631 2963 
Q 2534 3019 2420 3045 
Q 2306 3072 2169 3072 
Q 1681 3072 1420 2755 
Q 1159 2438 1159 1844 
L 1159 0 
L 581 0 
L 581 3500 
L 1159 3500 
L 1159 2956 
Q 1341 3275 1631 3429 
Q 1922 3584 2338 3584 
Q 2397 3584 2469 3576 
Q 2541 3569 2628 3553 
L 2631 2963 
z
" transform="scale(0.015625)"/>
       <path id="DejaVuSans-6d" d="M 3328 2828 
Q 3544 3216 3844 3400 
Q 4144 3584 4550 3584 
Q 5097 3584 5394 3201 
Q 5691 2819 5691 2113 
L 5691 0 
L 5113 0 
L 5113 2094 
Q 5113 2597 4934 2840 
Q 4756 3084 4391 3084 
Q 3944 3084 3684 2787 
Q 3425 2491 3425 1978 
L 3425 0 
L 2847 0 
L 2847 2094 
Q 2847 2600 2669 2842 
Q 2491 3084 2119 3084 
Q 1678 3084 1418 2786 
Q 1159 2488 1159 1978 
L 1159 0 
L 581 0 
L 581 3500 
L 1159 3500 
L 1159 2956 
Q 1356 3278 1631 3431 
Q 1906 3584 2284 3584 
Q 2666 3584 2933 3390 
Q 3200 3197 3328 2828 
z
" transform="scale(0.015625)"/>
       <path id="DejaVuSans-69" d="M 603 3500 
L 1178 3500 
L 1178 0 
L 603 0 
L 603 3500 
z
M 603 4863 
L 1178 4863 
L 1178 4134 
L 603 4134 
L 603 4863 
z
" transform="scale(0.015625)"/>
       <path id="DejaVuSans-7a" d="M 353 3500 
L 3084 3500 
L 3084 2975 
L 922 459 
L 3084 459 
L 3084 0 
L 275 0 
L 275 525 
L 2438 3041 
L 353 3041 
L 353 3500 
z
" transform="scale(0.015625)"/>
       <path id="DejaVuSans-50" d="M 1259 4147 
L 1259 2394 
L 2053 2394 
Q 2494 2394 2734 2622 
Q 2975 2850 2975 3272 
Q 2975 3691 2734 3919 
Q 2494 4147 2053 4147 
L 1259 4147 
z
M 628 4666 
L 2053 4666 
Q 2838 4666 3239 4311 
Q 3641 3956 3641 3272 
Q 3641 2581 3239 2228 
Q 2838 1875 2053 1875 
L 1259 1875 
L 1259 0 
L 628 0 
L 628 4666 
z
" transform="scale(0.015625)"/>
       <path id="DejaVuSans-62" d="M 3116 1747 
Q 3116 2381 2855 2742 
Q 2594 3103 2138 3103 
Q 1681 3103 1420 2742 
Q 1159 2381 1159 1747 
Q 1159 1113 1420 752 
Q 1681 391 2138 391 
Q 2594 391 2855 752 
Q 3116 1113 3116 1747 
z
M 1159 2969 
Q 1341 3281 1617 3432 
Q 1894 3584 2278 3584 
Q 2916 3584 3314 3078 
Q 3713 2572 3713 1747 
Q 3713 922 3314 415 
Q 2916 -91 2278 -91 
Q 1894 -91 1617 61 
Q 1341 213 1159 525 
L 1159 0 
L 581 0 
L 581 4863 
L 1159 4863 
L 1159 2969 
z
" transform="scale(0.015625)"/>
      </defs>
      <use xlink:href="#DejaVuSans-4c"/>
      <use xlink:href="#DejaVuSans-65" transform="translate(53.962891 0)"/>
      <use xlink:href="#DejaVuSans-61" transform="translate(115.486328 0)"/>
      <use xlink:href="#DejaVuSans-6e" transform="translate(176.765625 0)"/>
      <use xlink:href="#DejaVuSans-20" transform="translate(240.144531 0)"/>
      <use xlink:href="#DejaVuSans-46" transform="translate(271.931641 0)"/>
      <use xlink:href="#DejaVuSans-6f" transform="translate(325.826172 0)"/>
      <use xlink:href="#DejaVuSans-72" transform="translate(387.007812 0)"/>
      <use xlink:href="#DejaVuSans-6d" transform="translate(426.371094 0)"/>
      <use xlink:href="#DejaVuSans-61" transform="translate(523.783203 0)"/>
      <use xlink:href="#DejaVuSans-6c" transform="translate(585.0625 0)"/>
      <use xlink:href="#DejaVuSans-69" transform="translate(612.845703 0)"/>
      <use xlink:href="#DejaVuSans-7a" transform="translate(640.628906 0)"/>
      <use xlink:href="#DejaVuSans-65" transform="translate(693.119141 0)"/>
      <use xlink:href="#DejaVuSans-64" transform="translate(754.642578 0)"/>
      <use xlink:href="#DejaVuSans-20" transform="translate(818.119141 0)"/>
      <use xlink:href="#DejaVuSans-50" transform="translate(849.90625 0)"/>
      <use xlink:href="#DejaVuSans-72" transform="translate(908.458984 0)"/>
      <use xlink:href="#DejaVuSans-6f" transform="translate(947.322266 0)"/>
      <use xlink:href="#DejaVuSans-62" transform="translate(1008.503906 0)"/>
      <use xlink:href="#DejaVuSans-6c" transform="translate(1071.980469 0)"/>
      <use xlink:href="#DejaVuSans-65" transform="translate(1099.763672 0)"/>
      <use xlink:href="#DejaVuSans-6d" transform="translate(1161.287109 0)"/>
     </g>
    </g>
    <g id="line2d_34">
     <path d="M 57.90125 80.8525 
L 67.90125 80.8525 
L 77.90125 80.8525 
" style="fill: none; stroke: #d29922; stroke-width: 2; stroke-linecap: square"/>
    </g>
    <g id="text_24">
     <!-- Lean Formalized Solution -->
     <g style="fill: #c9d1d9" transform="translate(85.90125 84.3525) scale(0.1 -0.1)">
      <use xlink:href="#DejaVuSans-4c"/>
      <use xlink:href="#DejaVuSans-65" transform="translate(53.962891 0)"/>
      <use xlink:href="#DejaVuSans-61" transform="translate(115.486328 0)"/>
      <use xlink:href="#DejaVuSans-6e" transform="translate(176.765625 0)"/>
      <use xlink:href="#DejaVuSans-20" transform="translate(240.144531 0)"/>
      <use xlink:href="#DejaVuSans-46" transform="translate(271.931641 0)"/>
      <use xlink:href="#DejaVuSans-6f" transform="translate(325.826172 0)"/>
      <use xlink:href="#DejaVuSans-72" transform="translate(387.007812 0)"/>
      <use xlink:href="#DejaVuSans-6d" transform="translate(426.371094 0)"/>
      <use xlink:href="#DejaVuSans-61" transform="translate(523.783203 0)"/>
      <use xlink:href="#DejaVuSans-6c" transform="translate(585.0625 0)"/>
      <use xlink:href="#DejaVuSans-69" transform="translate(612.845703 0)"/>
      <use xlink:href="#DejaVuSans-7a" transform="translate(640.628906 0)"/>
      <use xlink:href="#DejaVuSans-65" transform="translate(693.119141 0)"/>
      <use xlink:href="#DejaVuSans-64" transform="translate(754.642578 0)"/>
      <use xlink:href="#DejaVuSans-20" transform="translate(818.119141 0)"/>
      <use xlink:href="#DejaVuSans-53" transform="translate(849.90625 0)"/>
      <use xlink:href="#DejaVuSans-6f" transform="translate(913.382812 0)"/>
      <use xlink:href="#DejaVuSans-6c" transform="translate(974.564453 0)"/>
      <use xlink:href="#DejaVuSans-75" transform="translate(1002.347656 0)"/>
      <use xlink:href="#DejaVuSans-74" transform="translate(1065.726562 0)"/>
      <use xlink:href="#DejaVuSans-69" transform="translate(1104.935547 0)"/>
      <use xlink:href="#DejaVuSans-6f" transform="translate(1132.71875 0)"/>
      <use xlink:href="#DejaVuSans-6e" transform="translate(1193.900391 0)"/>
     </g>
    </g>
    <g id="line2d_35">
     <path d="M 57.90125 95.530625 
L 67.90125 95.530625 
L 77.90125 95.530625 
" style="fill: none; stroke: #f85149; stroke-width: 2; stroke-linecap: square"/>
    </g>
    <g id="text_25">
     <!-- OEIS Linked -->
     <g style="fill: #c9d1d9" transform="translate(85.90125 99.030625) scale(0.1 -0.1)">
      <defs>
       <path id="DejaVuSans-45" d="M 628 4666 
L 3578 4666 
L 3578 4134 
L 1259 4134 
L 1259 2753 
L 3481 2753 
L 3481 2222 
L 1259 2222 
L 1259 531 
L 3634 531 
L 3634 0 
L 628 0 
L 628 4666 
z
" transform="scale(0.015625)"/>
       <path id="DejaVuSans-49" d="M 628 4666 
L 1259 4666 
L 1259 0 
L 628 0 
L 628 4666 
z
" transform="scale(0.015625)"/>
       <path id="DejaVuSans-6b" d="M 581 4863 
L 1159 4863 
L 1159 1991 
L 2875 3500 
L 3609 3500 
L 1753 1863 
L 3688 0 
L 2938 0 
L 1159 1709 
L 1159 0 
L 581 0 
L 581 4863 
z
" transform="scale(0.015625)"/>
      </defs>
      <use xlink:href="#DejaVuSans-4f"/>
      <use xlink:href="#DejaVuSans-45" transform="translate(78.710938 0)"/>
      <use xlink:href="#DejaVuSans-49" transform="translate(141.894531 0)"/>
      <use xlink:href="#DejaVuSans-53" transform="translate(171.386719 0)"/>
      <use xlink:href="#DejaVuSans-20" transform="translate(234.863281 0)"/>
      <use xlink:href="#DejaVuSans-4c" transform="translate(266.650391 0)"/>
      <use xlink:href="#DejaVuSans-69" transform="translate(322.363281 0)"/>
      <use xlink:href="#DejaVuSans-6e" transform="translate(350.146484 0)"/>
      <use xlink:href="#DejaVuSans-6b" transform="translate(413.525391 0)"/>
      <use xlink:href="#DejaVuSans-65" transform="translate(467.810547 0)"/>
      <use xlink:href="#DejaVuSans-64" transform="translate(529.333984 0)"/>
     </g>
    </g>
    <g id="line2d_36">
     <path d="M 57.90125 110.20875 
L 67.90125 110.20875 
L 77.90125 110.20875 
" style="fill: none; stroke: #9467bd; stroke-width: 2; stroke-linecap: square"/>
    </g>
    <g id="text_26">
     <!-- Open Problems -->
     <g style="fill: #c9d1d9" transform="translate(85.90125 113.70875) scale(0.1 -0.1)">
      <defs>
       <path id="DejaVuSans-73" d="M 2834 3397 
L 2834 2853 
Q 2591 2978 2328 3040 
Q 2066 3103 1784 3103 
Q 1356 3103 1142 2972 
Q 928 2841 928 2578 
Q 928 2378 1081 2264 
Q 1234 2150 1697 2047 
L 1894 2003 
Q 2506 1872 2764 1633 
Q 3022 1394 3022 966 
Q 3022 478 2636 193 
Q 2250 -91 1575 -91 
Q 1294 -91 989 -36 
Q 684 19 347 128 
L 347 722 
Q 666 556 975 473 
Q 1284 391 1588 391 
Q 1994 391 2212 530 
Q 2431 669 2431 922 
Q 2431 1156 2273 1281 
Q 2116 1406 1581 1522 
L 1381 1569 
Q 847 1681 609 1914 
Q 372 2147 372 2553 
Q 372 3047 722 3315 
Q 1072 3584 1716 3584 
Q 2034 3584 2315 3537 
Q 2597 3491 2834 3397 
z
" transform="scale(0.015625)"/>
      </defs>
      <use xlink:href="#DejaVuSans-4f"/>
      <use xlink:href="#DejaVuSans-70" transform="translate(78.710938 0)"/>
      <use xlink:href="#DejaVuSans-65" transform="translate(142.1875 0)"/>
      <use xlink:href="#DejaVuSans-6e" transform="translate(203.710938 0)"/>
      <use xlink:href="#DejaVuSans-20" transform="translate(267.089844 0)"/>
      <use xlink:href="#DejaVuSans-50" transform="translate(298.876953 0)"/>
      <use xlink:href="#DejaVuSans-72" transform="translate(357.429688 0)"/>
      <use xlink:href="#DejaVuSans-6f" transform="translate(396.292969 0)"/>
      <use xlink:href="#DejaVuSans-62" transform="translate(457.474609 0)"/>
      <use xlink:href="#DejaVuSans-6c" transform="translate(520.951172 0)"/>
      <use xlink:href="#DejaVuSans-65" transform="translate(548.734375 0)"/>
      <use xlink:href="#DejaVuSans-6d" transform="translate(610.257812 0)"/>
      <use xlink:href="#DejaVuSans-73" transform="translate(707.669922 0)"/>
     </g>
    </g>
   </g>
  </g>
 </g>
 <defs>
  <clipPath id="p096e73cac3">
   <rect x="48.90125" y="38.397812" width="799.45" height="416.84"/>
  </clipPath>
 </defs>
</svg>
