<?xml version="1.0" encoding="utf-8" standalone="no"?>
<!DOCTYPE svg PUBLIC "-//W3C//DTD SVG 1.1//EN"
  "http://www.w3.org/Graphics/SVG/1.1/DTD/svg11.dtd">
<svg xmlns:xlink="http://www.w3.org/1999/xlink" width="855.55125pt" height="494.729687pt" viewBox="0 0 855.55125 494.729687" xmlns="http://www.w3.org/2000/svg" version="1.1">
 <metadata>
  <rdf:RDF xmlns:dc="http://purl.org/dc/elements/1.1/" xmlns:cc="http://creativecommons.org/ns#" xmlns:rdf="http://www.w3.org/1999/02/22-rdf-syntax-ns#">
   <cc:Work>
    <dc:type rdf:resource="http://purl.org/dc/dcmitype/StillImage"/>
    <dc:date>2026-03-31T17:13:23.860787</dc:date>
    <dc:format>image/svg+xml</dc:format>
    <dc:creator>
     <cc:Agent>
      <dc:title>Matplotlib v3.10.7, https://matplotlib.org/</dc:title>
     </cc:Agent>
    </dc:creator>
   </cc:Work>
  </rdf:RDF>
 </metadata>
 <defs>
  <style type="text/css">*{stroke-linejoin: round; stroke-linecap: butt}</style>
 </defs>
 <g id="figure_1">
  <g id="patch_1">
   <path d="M 0 494.729687 
L 855.55125 494.729687 
L 855.55125 0 
L 0 0 
z
" style="fill: #0d1117"/>
  </g>
  <g id="axes_1">
   <g id="patch_2">
    <path d="M 48.90125 455.237812 
L 848.35125 455.237812 
L 848.35125 38.397812 
L 48.90125 38.397812 
z
" style="fill: #0d1117"/>
   </g>
   <g id="matplotlib.axis_1">
    <g id="xtick_1">
     <g id="line2d_1">
      <path d="M 86.242024 455.237812 
L 86.242024 38.397812 
" clip-path="url(#pf89fb1bbc3)" style="fill: none; stroke: #30363d; stroke-opacity: 0.25; stroke-width: 0.5; stroke-linecap: square"/>
     </g>
     <g id="line2d_2">
      <defs>
       <path id="m252617a119" d="M 0 0 
L 0 3.5 
" style="stroke: #c9d1d9; stroke-width: 0.8"/>
      </defs>
      <g>
       <use xlink:href="#m252617a119" x="86.242024" y="455.237812" style="fill: #c9d1d9; stroke: #c9d1d9; stroke-width: 0.8"/>
      </g>
     </g>
     <g id="text_1">
      <!-- Sep -->
      <g style="fill: #c9d1d9" transform="translate(76.817024 469.83625) scale(0.1 -0.1)">
       <defs>
        <path id="DejaVuSans-53" d="M 3425 4513 
L 3425 3897 
Q 3066 4069 2747 4153 
Q 2428 4238 2131 4238 
Q 1616 4238 1336 4038 
Q 1056 3838 1056 3469 
Q 1056 3159 1242 3001 
Q 1428 2844 1947 2747 
L 2328 2669 
Q 3034 2534 3370 2195 
Q 3706 1856 3706 1288 
Q 3706 609 3251 259 
Q 2797 -91 1919 -91 
Q 1588 -91 1214 -16 
Q 841 59 441 206 
L 441 856 
Q 825 641 1194 531 
Q 1563 422 1919 422 
Q 2459 422 2753 634 
Q 3047 847 3047 1241 
Q 3047 1584 2836 1778 
Q 2625 1972 2144 2069 
L 1759 2144 
Q 1053 2284 737 2584 
Q 422 2884 422 3419 
Q 422 4038 858 4394 
Q 1294 4750 2059 4750 
Q 2388 4750 2728 4690 
Q 3069 4631 3425 4513 
z
" transform="scale(0.015625)"/>
        <path id="DejaVuSans-65" d="M 3597 1894 
L 3597 1613 
L 953 1613 
Q 991 1019 1311 708 
Q 1631 397 2203 397 
Q 2534 397 2845 478 
Q 3156 559 3463 722 
L 3463 178 
Q 3153 47 2828 -22 
Q 2503 -91 2169 -91 
Q 1331 -91 842 396 
Q 353 884 353 1716 
Q 353 2575 817 3079 
Q 1281 3584 2069 3584 
Q 2775 3584 3186 3129 
Q 3597 2675 3597 1894 
z
M 3022 2063 
Q 3016 2534 2758 2815 
Q 2500 3097 2075 3097 
Q 1594 3097 1305 2825 
Q 1016 2553 972 2059 
L 3022 2063 
z
" transform="scale(0.015625)"/>
        <path id="DejaVuSans-70" d="M 1159 525 
L 1159 -1331 
L 581 -1331 
L 581 3500 
L 1159 3500 
L 1159 2969 
Q 1341 3281 1617 3432 
Q 1894 3584 2278 3584 
Q 2916 3584 3314 3078 
Q 3713 2572 3713 1747 
Q 3713 922 3314 415 
Q 2916 -91 2278 -91 
Q 1894 -91 1617 61 
Q 1341 213 1159 525 
z
M 3116 1747 
Q 3116 2381 2855 2742 
Q 2594 3103 2138 3103 
Q 1681 3103 1420 2742 
Q 1159 2381 1159 1747 
Q 1159 1113 1420 752 
Q 1681 391 2138 391 
Q 2594 391 2855 752 
Q 3116 1113 3116 1747 
z
" transform="scale(0.015625)"/>
       </defs>
       <use xlink:href="#DejaVuSans-53"/>
       <use xlink:href="#DejaVuSans-65" transform="translate(63.476562 0)"/>
       <use xlink:href="#DejaVuSans-70" transform="translate(125 0)"/>
      </g>
     </g>
    </g>
    <g id="xtick_2">
     <g id="line2d_3">
      <path d="M 189.082388 455.237812 
L 189.082388 38.397812 
" clip-path="url(#pf89fb1bbc3)" style="fill: none; stroke: #30363d; stroke-opacity: 0.25; stroke-width: 0.5; stroke-linecap: square"/>
     </g>
     <g id="line2d_4">
      <g>
       <use xlink:href="#m252617a119" x="189.082388" y="455.237812" style="fill: #c9d1d9; stroke: #c9d1d9; stroke-width: 0.8"/>
      </g>
     </g>
     <g id="text_2">
      <!-- Oct -->
      <g style="fill: #c9d1d9" transform="translate(180.437075 469.83625) scale(0.1 -0.1)">
       <defs>
        <path id="DejaVuSans-4f" d="M 2522 4238 
Q 1834 4238 1429 3725 
Q 1025 3213 1025 2328 
Q 1025 1447 1429 934 
Q 1834 422 2522 422 
Q 3209 422 3611 934 
Q 4013 1447 4013 2328 
Q 4013 3213 3611 3725 
Q 3209 4238 2522 4238 
z
M 2522 4750 
Q 3503 4750 4090 4092 
Q 4678 3434 4678 2328 
Q 4678 1225 4090 567 
Q 3503 -91 2522 -91 
Q 1538 -91 948 565 
Q 359 1222 359 2328 
Q 359 3434 948 4092 
Q 1538 4750 2522 4750 
z
" transform="scale(0.015625)"/>
        <path id="DejaVuSans-63" d="M 3122 3366 
L 3122 2828 
Q 2878 2963 2633 3030 
Q 2388 3097 2138 3097 
Q 1578 3097 1268 2742 
Q 959 2388 959 1747 
Q 959 1106 1268 751 
Q 1578 397 2138 397 
Q 2388 397 2633 464 
Q 2878 531 3122 666 
L 3122 134 
Q 2881 22 2623 -34 
Q 2366 -91 2075 -91 
Q 1284 -91 818 406 
Q 353 903 353 1747 
Q 353 2603 823 3093 
Q 1294 3584 2113 3584 
Q 2378 3584 2631 3529 
Q 2884 3475 3122 3366 
z
" transform="scale(0.015625)"/>
        <path id="DejaVuSans-74" d="M 1172 4494 
L 1172 3500 
L 2356 3500 
L 2356 3053 
L 1172 3053 
L 1172 1153 
Q 1172 725 1289 603 
Q 1406 481 1766 481 
L 2356 481 
L 2356 0 
L 1766 0 
Q 1100 0 847 248 
Q 594 497 594 1153 
L 594 3053 
L 172 3053 
L 172 3500 
L 594 3500 
L 594 4494 
L 1172 4494 
z
" transform="scale(0.015625)"/>
       </defs>
       <use xlink:href="#DejaVuSans-4f"/>
       <use xlink:href="#DejaVuSans-63" transform="translate(78.710938 0)"/>
       <use xlink:href="#DejaVuSans-74" transform="translate(133.691406 0)"/>
      </g>
     </g>
    </g>
    <g id="xtick_3">
     <g id="line2d_5">
      <path d="M 295.350763 455.237812 
L 295.350763 38.397812 
" clip-path="url(#pf89fb1bbc3)" style="fill: none; stroke: #30363d; stroke-opacity: 0.25; stroke-width: 0.5; stroke-linecap: square"/>
     </g>
     <g id="line2d_6">
      <g>
       <use xlink:href="#m252617a119" x="295.350763" y="455.237812" style="fill: #c9d1d9; stroke: #c9d1d9; stroke-width: 0.8"/>
      </g>
     </g>
     <g id="text_3">
      <!-- Nov -->
      <g style="fill: #c9d1d9" transform="translate(285.591388 469.83625) scale(0.1 -0.1)">
       <defs>
        <path id="DejaVuSans-4e" d="M 628 4666 
L 1478 4666 
L 3547 763 
L 3547 4666 
L 4159 4666 
L 4159 0 
L 3309 0 
L 1241 3903 
L 1241 0 
L 628 0 
L 628 4666 
z
" transform="scale(0.015625)"/>
        <path id="DejaVuSans-6f" d="M 1959 3097 
Q 1497 3097 1228 2736 
Q 959 2375 959 1747 
Q 959 1119 1226 758 
Q 1494 397 1959 397 
Q 2419 397 2687 759 
Q 2956 1122 2956 1747 
Q 2956 2369 2687 2733 
Q 2419 3097 1959 3097 
z
M 1959 3584 
Q 2709 3584 3137 3096 
Q 3566 2609 3566 1747 
Q 3566 888 3137 398 
Q 2709 -91 1959 -91 
Q 1206 -91 779 398 
Q 353 888 353 1747 
Q 353 2609 779 3096 
Q 1206 3584 1959 3584 
z
" transform="scale(0.015625)"/>
        <path id="DejaVuSans-76" d="M 191 3500 
L 800 3500 
L 1894 563 
L 2988 3500 
L 3597 3500 
L 2284 0 
L 1503 0 
L 191 3500 
z
" transform="scale(0.015625)"/>
       </defs>
       <use xlink:href="#DejaVuSans-4e"/>
       <use xlink:href="#DejaVuSans-6f" transform="translate(74.804688 0)"/>
       <use xlink:href="#DejaVuSans-76" transform="translate(135.986328 0)"/>
      </g>
     </g>
    </g>
    <g id="xtick_4">
     <g id="line2d_7">
      <path d="M 398.191126 455.237812 
L 398.191126 38.397812 
" clip-path="url(#pf89fb1bbc3)" style="fill: none; stroke: #30363d; stroke-opacity: 0.25; stroke-width: 0.5; stroke-linecap: square"/>
     </g>
     <g id="line2d_8">
      <g>
       <use xlink:href="#m252617a119" x="398.191126" y="455.237812" style="fill: #c9d1d9; stroke: #c9d1d9; stroke-width: 0.8"/>
      </g>
     </g>
     <g id="text_4">
      <!-- Dec -->
      <g style="fill: #c9d1d9" transform="translate(388.515345 469.83625) scale(0.1 -0.1)">
       <defs>
        <path id="DejaVuSans-44" d="M 1259 4147 
L 1259 519 
L 2022 519 
Q 2988 519 3436 956 
Q 3884 1394 3884 2338 
Q 3884 3275 3436 3711 
Q 2988 4147 2022 4147 
L 1259 4147 
z
M 628 4666 
L 1925 4666 
Q 3281 4666 3915 4102 
Q 4550 3538 4550 2338 
Q 4550 1131 3912 565 
Q 3275 0 1925 0 
L 628 0 
L 628 4666 
z
" transform="scale(0.015625)"/>
       </defs>
       <use xlink:href="#DejaVuSans-44"/>
       <use xlink:href="#DejaVuSans-65" transform="translate(77.001953 0)"/>
       <use xlink:href="#DejaVuSans-63" transform="translate(138.525391 0)"/>
      </g>
     </g>
    </g>
    <g id="xtick_5">
     <g id="line2d_9">
      <path d="M 504.459501 455.237812 
L 504.459501 38.397812 
" clip-path="url(#pf89fb1bbc3)" style="fill: none; stroke: #30363d; stroke-opacity: 0.25; stroke-width: 0.5; stroke-linecap: square"/>
     </g>
     <g id="line2d_10">
      <g>
       <use xlink:href="#m252617a119" x="504.459501" y="455.237812" style="fill: #c9d1d9; stroke: #c9d1d9; stroke-width: 0.8"/>
      </g>
     </g>
     <g id="text_5">
      <!-- 2026 -->
      <g style="fill: #c9d1d9" transform="translate(491.734501 469.83625) scale(0.1 -0.1)">
       <defs>
        <path id="DejaVuSans-32" d="M 1228 531 
L 3431 531 
L 3431 0 
L 469 0 
L 469 531 
Q 828 903 1448 1529 
Q 2069 2156 2228 2338 
Q 2531 2678 2651 2914 
Q 2772 3150 2772 3378 
Q 2772 3750 2511 3984 
Q 2250 4219 1831 4219 
Q 1534 4219 1204 4116 
Q 875 4013 500 3803 
L 500 4441 
Q 881 4594 1212 4672 
Q 1544 4750 1819 4750 
Q 2544 4750 2975 4387 
Q 3406 4025 3406 3419 
Q 3406 3131 3298 2873 
Q 3191 2616 2906 2266 
Q 2828 2175 2409 1742 
Q 1991 1309 1228 531 
z
" transform="scale(0.015625)"/>
        <path id="DejaVuSans-30" d="M 2034 4250 
Q 1547 4250 1301 3770 
Q 1056 3291 1056 2328 
Q 1056 1369 1301 889 
Q 1547 409 2034 409 
Q 2525 409 2770 889 
Q 3016 1369 3016 2328 
Q 3016 3291 2770 3770 
Q 2525 4250 2034 4250 
z
M 2034 4750 
Q 2819 4750 3233 4129 
Q 3647 3509 3647 2328 
Q 3647 1150 3233 529 
Q 2819 -91 2034 -91 
Q 1250 -91 836 529 
Q 422 1150 422 2328 
Q 422 3509 836 4129 
Q 1250 4750 2034 4750 
z
" transform="scale(0.015625)"/>
        <path id="DejaVuSans-36" d="M 2113 2584 
Q 1688 2584 1439 2293 
Q 1191 2003 1191 1497 
Q 1191 994 1439 701 
Q 1688 409 2113 409 
Q 2538 409 2786 701 
Q 3034 994 3034 1497 
Q 3034 2003 2786 2293 
Q 2538 2584 2113 2584 
z
M 3366 4563 
L 3366 3988 
Q 3128 4100 2886 4159 
Q 2644 4219 2406 4219 
Q 1781 4219 1451 3797 
Q 1122 3375 1075 2522 
Q 1259 2794 1537 2939 
Q 1816 3084 2150 3084 
Q 2853 3084 3261 2657 
Q 3669 2231 3669 1497 
Q 3669 778 3244 343 
Q 2819 -91 2113 -91 
Q 1303 -91 875 529 
Q 447 1150 447 2328 
Q 447 3434 972 4092 
Q 1497 4750 2381 4750 
Q 2619 4750 2861 4703 
Q 3103 4656 3366 4563 
z
" transform="scale(0.015625)"/>
       </defs>
       <use xlink:href="#DejaVuSans-32"/>
       <use xlink:href="#DejaVuSans-30" transform="translate(63.623047 0)"/>
       <use xlink:href="#DejaVuSans-32" transform="translate(127.246094 0)"/>
       <use xlink:href="#DejaVuSans-36" transform="translate(190.869141 0)"/>
      </g>
     </g>
    </g>
    <g id="xtick_6">
     <g id="line2d_11">
      <path d="M 610.727876 455.237812 
L 610.727876 38.397812 
" clip-path="url(#pf89fb1bbc3)" style="fill: none; stroke: #30363d; stroke-opacity: 0.25; stroke-width: 0.5; stroke-linecap: square"/>
     </g>
     <g id="line2d_12">
      <g>
       <use xlink:href="#m252617a119" x="610.727876" y="455.237812" style="fill: #c9d1d9; stroke: #c9d1d9; stroke-width: 0.8"/>
      </g>
     </g>
     <g id="text_6">
      <!-- Feb -->
      <g style="fill: #c9d1d9" transform="translate(601.876314 469.83625) scale(0.1 -0.1)">
       <defs>
        <path id="DejaVuSans-46" d="M 628 4666 
L 3309 4666 
L 3309 4134 
L 1259 4134 
L 1259 2759 
L 3109 2759 
L 3109 2228 
L 1259 2228 
L 1259 0 
L 628 0 
L 628 4666 
z
" transform="scale(0.015625)"/>
        <path id="DejaVuSans-62" d="M 3116 1747 
Q 3116 2381 2855 2742 
Q 2594 3103 2138 3103 
Q 1681 3103 1420 2742 
Q 1159 2381 1159 1747 
Q 1159 1113 1420 752 
Q 1681 391 2138 391 
Q 2594 391 2855 752 
Q 3116 1113 3116 1747 
z
M 1159 2969 
Q 1341 3281 1617 3432 
Q 1894 3584 2278 3584 
Q 2916 3584 3314 3078 
Q 3713 2572 3713 1747 
Q 3713 922 3314 415 
Q 2916 -91 2278 -91 
Q 1894 -91 1617 61 
Q 1341 213 1159 525 
L 1159 0 
L 581 0 
L 581 4863 
L 1159 4863 
L 1159 2969 
z
" transform="scale(0.015625)"/>
       </defs>
       <use xlink:href="#DejaVuSans-46"/>
       <use xlink:href="#DejaVuSans-65" transform="translate(52.019531 0)"/>
       <use xlink:href="#DejaVuSans-62" transform="translate(113.542969 0)"/>
      </g>
     </g>
    </g>
    <g id="xtick_7">
     <g id="line2d_13">
      <path d="M 706.712215 455.237812 
L 706.712215 38.397812 
" clip-path="url(#pf89fb1bbc3)" style="fill: none; stroke: #30363d; stroke-opacity: 0.25; stroke-width: 0.5; stroke-linecap: square"/>
     </g>
     <g id="line2d_14">
      <g>
       <use xlink:href="#m252617a119" x="706.712215" y="455.237812" style="fill: #c9d1d9; stroke: #c9d1d9; stroke-width: 0.8"/>
      </g>
     </g>
     <g id="text_7">
      <!-- Mar -->
      <g style="fill: #c9d1d9" transform="translate(697.278622 469.83625) scale(0.1 -0.1)">
       <defs>
        <path id="DejaVuSans-4d" d="M 628 4666 
L 1569 4666 
L 2759 1491 
L 3956 4666 
L 4897 4666 
L 4897 0 
L 4281 0 
L 4281 4097 
L 3078 897 
L 2444 897 
L 1241 4097 
L 1241 0 
L 628 0 
L 628 4666 
z
" transform="scale(0.015625)"/>
        <path id="DejaVuSans-61" d="M 2194 1759 
Q 1497 1759 1228 1600 
Q 959 1441 959 1056 
Q 959 750 1161 570 
Q 1363 391 1709 391 
Q 2188 391 2477 730 
Q 2766 1069 2766 1631 
L 2766 1759 
L 2194 1759 
z
M 3341 1997 
L 3341 0 
L 2766 0 
L 2766 531 
Q 2569 213 2275 61 
Q 1981 -91 1556 -91 
Q 1019 -91 701 211 
Q 384 513 384 1019 
Q 384 1609 779 1909 
Q 1175 2209 1959 2209 
L 2766 2209 
L 2766 2266 
Q 2766 2663 2505 2880 
Q 2244 3097 1772 3097 
Q 1472 3097 1187 3025 
Q 903 2953 641 2809 
L 641 3341 
Q 956 3463 1253 3523 
Q 1550 3584 1831 3584 
Q 2591 3584 2966 3190 
Q 3341 2797 3341 1997 
z
" transform="scale(0.015625)"/>
        <path id="DejaVuSans-72" d="M 2631 2963 
Q 2534 3019 2420 3045 
Q 2306 3072 2169 3072 
Q 1681 3072 1420 2755 
Q 1159 2438 1159 1844 
L 1159 0 
L 581 0 
L 581 3500 
L 1159 3500 
L 1159 2956 
Q 1341 3275 1631 3429 
Q 1922 3584 2338 3584 
Q 2397 3584 2469 3576 
Q 2541 3569 2628 3553 
L 2631 2963 
z
" transform="scale(0.015625)"/>
       </defs>
       <use xlink:href="#DejaVuSans-4d"/>
       <use xlink:href="#DejaVuSans-61" transform="translate(86.279297 0)"/>
       <use xlink:href="#DejaVuSans-72" transform="translate(147.558594 0)"/>
      </g>
     </g>
    </g>
    <g id="xtick_8">
     <g id="line2d_15">
      <path d="M 812.980591 455.237812 
L 812.980591 38.397812 
" clip-path="url(#pf89fb1bbc3)" style="fill: none; stroke: #30363d; stroke-opacity: 0.25; stroke-width: 0.5; stroke-linecap: square"/>
     </g>
     <g id="line2d_16">
      <g>
       <use xlink:href="#m252617a119" x="812.980591" y="455.237812" style="fill: #c9d1d9; stroke: #c9d1d9; stroke-width: 0.8"/>
      </g>
     </g>
     <g id="text_8">
      <!-- Apr -->
      <g style="fill: #c9d1d9" transform="translate(804.330591 469.83625) scale(0.1 -0.1)">
       <defs>
        <path id="DejaVuSans-41" d="M 2188 4044 
L 1331 1722 
L 3047 1722 
L 2188 4044 
z
M 1831 4666 
L 2547 4666 
L 4325 0 
L 3669 0 
L 3244 1197 
L 1141 1197 
L 716 0 
L 50 0 
L 1831 4666 
z
" transform="scale(0.015625)"/>
       </defs>
       <use xlink:href="#DejaVuSans-41"/>
       <use xlink:href="#DejaVuSans-70" transform="translate(68.408203 0)"/>
       <use xlink:href="#DejaVuSans-72" transform="translate(131.884766 0)"/>
      </g>
     </g>
    </g>
    <g id="text_9">
     <!-- Date -->
     <g style="fill: #c9d1d9" transform="translate(434.285313 485.034062) scale(0.12 -0.12)">
      <use xlink:href="#DejaVuSans-44"/>
      <use xlink:href="#DejaVuSans-61" transform="translate(77.001953 0)"/>
      <use xlink:href="#DejaVuSans-74" transform="translate(138.28125 0)"/>
      <use xlink:href="#DejaVuSans-65" transform="translate(177.490234 0)"/>
     </g>
    </g>
   </g>
   <g id="matplotlib.axis_2">
    <g id="ytick_1">
     <g id="line2d_17">
      <path d="M 48.90125 455.237812 
L 848.35125 455.237812 
" clip-path="url(#pf89fb1bbc3)" style="fill: none; stroke: #30363d; stroke-opacity: 0.25; stroke-width: 0.5; stroke-linecap: square"/>
     </g>
     <g id="line2d_18">
      <defs>
       <path id="m3d3f5a5e7d" d="M 0 0 
L -3.5 0 
" style="stroke: #c9d1d9; stroke-width: 0.8"/>
      </defs>
      <g>
       <use xlink:href="#m3d3f5a5e7d" x="48.90125" y="455.237812" style="fill: #c9d1d9; stroke: #c9d1d9; stroke-width: 0.8"/>
      </g>
     </g>
     <g id="text_10">
      <!-- 0 -->
      <g style="fill: #c9d1d9" transform="translate(35.53875 459.037031) scale(0.1 -0.1)">
       <use xlink:href="#DejaVuSans-30"/>
      </g>
     </g>
    </g>
    <g id="ytick_2">
     <g id="line2d_19">
      <path d="M 48.90125 399.659146 
L 848.35125 399.659146 
" clip-path="url(#pf89fb1bbc3)" style="fill: none; stroke: #30363d; stroke-opacity: 0.25; stroke-width: 0.5; stroke-linecap: square"/>
     </g>
     <g id="line2d_20">
      <g>
       <use xlink:href="#m3d3f5a5e7d" x="48.90125" y="399.659146" style="fill: #c9d1d9; stroke: #c9d1d9; stroke-width: 0.8"/>
      </g>
     </g>
     <g id="text_11">
      <!-- 100 -->
      <g style="fill: #c9d1d9" transform="translate(22.81375 403.458365) scale(0.1 -0.1)">
       <defs>
        <path id="DejaVuSans-31" d="M 794 531 
L 1825 531 
L 1825 4091 
L 703 3866 
L 703 4441 
L 1819 4666 
L 2450 4666 
L 2450 531 
L 3481 531 
L 3481 0 
L 794 0 
L 794 531 
z
" transform="scale(0.015625)"/>
       </defs>
       <use xlink:href="#DejaVuSans-31"/>
       <use xlink:href="#DejaVuSans-30" transform="translate(63.623047 0)"/>
       <use xlink:href="#DejaVuSans-30" transform="translate(127.246094 0)"/>
      </g>
     </g>
    </g>
    <g id="ytick_3">
     <g id="line2d_21">
      <path d="M 48.90125 344.080479 
L 848.35125 344.080479 
" clip-path="url(#pf89fb1bbc3)" style="fill: none; stroke: #30363d; stroke-opacity: 0.25; stroke-width: 0.5; stroke-linecap: square"/>
     </g>
     <g id="line2d_22">
      <g>
       <use xlink:href="#m3d3f5a5e7d" x="48.90125" y="344.080479" style="fill: #c9d1d9; stroke: #c9d1d9; stroke-width: 0.8"/>
      </g>
     </g>
     <g id="text_12">
      <!-- 200 -->
      <g style="fill: #c9d1d9" transform="translate(22.81375 347.879698) scale(0.1 -0.1)">
       <use xlink:href="#DejaVuSans-32"/>
       <use xlink:href="#DejaVuSans-30" transform="translate(63.623047 0)"/>
       <use xlink:href="#DejaVuSans-30" transform="translate(127.246094 0)"/>
      </g>
     </g>
    </g>
    <g id="ytick_4">
     <g id="line2d_23">
      <path d="M 48.90125 288.501812 
L 848.35125 288.501812 
" clip-path="url(#pf89fb1bbc3)" style="fill: none; stroke: #30363d; stroke-opacity: 0.25; stroke-width: 0.5; stroke-linecap: square"/>
     </g>
     <g id="line2d_24">
      <g>
       <use xlink:href="#m3d3f5a5e7d" x="48.90125" y="288.501812" style="fill: #c9d1d9; stroke: #c9d1d9; stroke-width: 0.8"/>
      </g>
     </g>
     <g id="text_13">
      <!-- 300 -->
      <g style="fill: #c9d1d9" transform="translate(22.81375 292.301031) scale(0.1 -0.1)">
       <defs>
        <path id="DejaVuSans-33" d="M 2597 2516 
Q 3050 2419 3304 2112 
Q 3559 1806 3559 1356 
Q 3559 666 3084 287 
Q 2609 -91 1734 -91 
Q 1441 -91 1130 -33 
Q 819 25 488 141 
L 488 750 
Q 750 597 1062 519 
Q 1375 441 1716 441 
Q 2309 441 2620 675 
Q 2931 909 2931 1356 
Q 2931 1769 2642 2001 
Q 2353 2234 1838 2234 
L 1294 2234 
L 1294 2753 
L 1863 2753 
Q 2328 2753 2575 2939 
Q 2822 3125 2822 3475 
Q 2822 3834 2567 4026 
Q 2313 4219 1838 4219 
Q 1578 4219 1281 4162 
Q 984 4106 628 3988 
L 628 4550 
Q 988 4650 1302 4700 
Q 1616 4750 1894 4750 
Q 2613 4750 3031 4423 
Q 3450 4097 3450 3541 
Q 3450 3153 3228 2886 
Q 3006 2619 2597 2516 
z
" transform="scale(0.015625)"/>
       </defs>
       <use xlink:href="#DejaVuSans-33"/>
       <use xlink:href="#DejaVuSans-30" transform="translate(63.623047 0)"/>
       <use xlink:href="#DejaVuSans-30" transform="translate(127.246094 0)"/>
      </g>
     </g>
    </g>
    <g id="ytick_5">
     <g id="line2d_25">
      <path d="M 48.90125 232.923146 
L 848.35125 232.923146 
" clip-path="url(#pf89fb1bbc3)" style="fill: none; stroke: #30363d; stroke-opacity: 0.25; stroke-width: 0.5; stroke-linecap: square"/>
     </g>
     <g id="line2d_26">
      <g>
       <use xlink:href="#m3d3f5a5e7d" x="48.90125" y="232.923146" style="fill: #c9d1d9; stroke: #c9d1d9; stroke-width: 0.8"/>
      </g>
     </g>
     <g id="text_14">
      <!-- 400 -->
      <g style="fill: #c9d1d9" transform="translate(22.81375 236.722365) scale(0.1 -0.1)">
       <defs>
        <path id="DejaVuSans-34" d="M 2419 4116 
L 825 1625 
L 2419 1625 
L 2419 4116 
z
M 2253 4666 
L 3047 4666 
L 3047 1625 
L 3713 1625 
L 3713 1100 
L 3047 1100 
L 3047 0 
L 2419 0 
L 2419 1100 
L 313 1100 
L 313 1709 
L 2253 4666 
z
" transform="scale(0.015625)"/>
       </defs>
       <use xlink:href="#DejaVuSans-34"/>
       <use xlink:href="#DejaVuSans-30" transform="translate(63.623047 0)"/>
       <use xlink:href="#DejaVuSans-30" transform="translate(127.246094 0)"/>
      </g>
     </g>
    </g>
    <g id="ytick_6">
     <g id="line2d_27">
      <path d="M 48.90125 177.344479 
L 848.35125 177.344479 
" clip-path="url(#pf89fb1bbc3)" style="fill: none; stroke: #30363d; stroke-opacity: 0.25; stroke-width: 0.5; stroke-linecap: square"/>
     </g>
     <g id="line2d_28">
      <g>
       <use xlink:href="#m3d3f5a5e7d" x="48.90125" y="177.344479" style="fill: #c9d1d9; stroke: #c9d1d9; stroke-width: 0.8"/>
      </g>
     </g>
     <g id="text_15">
      <!-- 500 -->
      <g style="fill: #c9d1d9" transform="translate(22.81375 181.143698) scale(0.1 -0.1)">
       <defs>
        <path id="DejaVuSans-35" d="M 691 4666 
L 3169 4666 
L 3169 4134 
L 1269 4134 
L 1269 2991 
Q 1406 3038 1543 3061 
Q 1681 3084 1819 3084 
Q 2600 3084 3056 2656 
Q 3513 2228 3513 1497 
Q 3513 744 3044 326 
Q 2575 -91 1722 -91 
Q 1428 -91 1123 -41 
Q 819 9 494 109 
L 494 744 
Q 775 591 1075 516 
Q 1375 441 1709 441 
Q 2250 441 2565 725 
Q 2881 1009 2881 1497 
Q 2881 1984 2565 2268 
Q 2250 2553 1709 2553 
Q 1456 2553 1204 2497 
Q 953 2441 691 2322 
L 691 4666 
z
" transform="scale(0.015625)"/>
       </defs>
       <use xlink:href="#DejaVuSans-35"/>
       <use xlink:href="#DejaVuSans-30" transform="translate(63.623047 0)"/>
       <use xlink:href="#DejaVuSans-30" transform="translate(127.246094 0)"/>
      </g>
     </g>
    </g>
    <g id="ytick_7">
     <g id="line2d_29">
      <path d="M 48.90125 121.765812 
L 848.35125 121.765812 
" clip-path="url(#pf89fb1bbc3)" style="fill: none; stroke: #30363d; stroke-opacity: 0.25; stroke-width: 0.5; stroke-linecap: square"/>
     </g>
     <g id="line2d_30">
      <g>
       <use xlink:href="#m3d3f5a5e7d" x="48.90125" y="121.765812" style="fill: #c9d1d9; stroke: #c9d1d9; stroke-width: 0.8"/>
      </g>
     </g>
     <g id="text_16">
      <!-- 600 -->
      <g style="fill: #c9d1d9" transform="translate(22.81375 125.565031) scale(0.1 -0.1)">
       <use xlink:href="#DejaVuSans-36"/>
       <use xlink:href="#DejaVuSans-30" transform="translate(63.623047 0)"/>
       <use xlink:href="#DejaVuSans-30" transform="translate(127.246094 0)"/>
      </g>
     </g>
    </g>
    <g id="ytick_8">
     <g id="line2d_31">
      <path d="M 48.90125 66.187146 
L 848.35125 66.187146 
" clip-path="url(#pf89fb1bbc3)" style="fill: none; stroke: #30363d; stroke-opacity: 0.25; stroke-width: 0.5; stroke-linecap: square"/>
     </g>
     <g id="line2d_32">
      <g>
       <use xlink:href="#m3d3f5a5e7d" x="48.90125" y="66.187146" style="fill: #c9d1d9; stroke: #c9d1d9; stroke-width: 0.8"/>
      </g>
     </g>
     <g id="text_17">
      <!-- 700 -->
      <g style="fill: #c9d1d9" transform="translate(22.81375 69.986365) scale(0.1 -0.1)">
       <defs>
        <path id="DejaVuSans-37" d="M 525 4666 
L 3525 4666 
L 3525 4397 
L 1831 0 
L 1172 0 
L 2766 4134 
L 525 4134 
L 525 4666 
z
" transform="scale(0.015625)"/>
       </defs>
       <use xlink:href="#DejaVuSans-37"/>
       <use xlink:href="#DejaVuSans-30" transform="translate(63.623047 0)"/>
       <use xlink:href="#DejaVuSans-30" transform="translate(127.246094 0)"/>
      </g>
     </g>
    </g>
    <g id="text_18">
     <!-- Count -->
     <g style="fill: #c9d1d9" transform="translate(16.318125 264.635937) rotate(-90) scale(0.12 -0.12)">
      <defs>
       <path id="DejaVuSans-43" d="M 4122 4306 
L 4122 3641 
Q 3803 3938 3442 4084 
Q 3081 4231 2675 4231 
Q 1875 4231 1450 3742 
Q 1025 3253 1025 2328 
Q 1025 1406 1450 917 
Q 1875 428 2675 428 
Q 3081 428 3442 575 
Q 3803 722 4122 1019 
L 4122 359 
Q 3791 134 3420 21 
Q 3050 -91 2638 -91 
Q 1578 -91 968 557 
Q 359 1206 359 2328 
Q 359 3453 968 4101 
Q 1578 4750 2638 4750 
Q 3056 4750 3426 4639 
Q 3797 4528 4122 4306 
z
" transform="scale(0.015625)"/>
       <path id="DejaVuSans-75" d="M 544 1381 
L 544 3500 
L 1119 3500 
L 1119 1403 
Q 1119 906 1312 657 
Q 1506 409 1894 409 
Q 2359 409 2629 706 
Q 2900 1003 2900 1516 
L 2900 3500 
L 3475 3500 
L 3475 0 
L 2900 0 
L 2900 538 
Q 2691 219 2414 64 
Q 2138 -91 1772 -91 
Q 1169 -91 856 284 
Q 544 659 544 1381 
z
M 1991 3584 
L 1991 3584 
z
" transform="scale(0.015625)"/>
       <path id="DejaVuSans-6e" d="M 3513 2113 
L 3513 0 
L 2938 0 
L 2938 2094 
Q 2938 2591 2744 2837 
Q 2550 3084 2163 3084 
Q 1697 3084 1428 2787 
Q 1159 2491 1159 1978 
L 1159 0 
L 581 0 
L 581 3500 
L 1159 3500 
L 1159 2956 
Q 1366 3272 1645 3428 
Q 1925 3584 2291 3584 
Q 2894 3584 3203 3211 
Q 3513 2838 3513 2113 
z
" transform="scale(0.015625)"/>
      </defs>
      <use xlink:href="#DejaVuSans-43"/>
      <use xlink:href="#DejaVuSans-6f" transform="translate(69.824219 0)"/>
      <use xlink:href="#DejaVuSans-75" transform="translate(131.005859 0)"/>
      <use xlink:href="#DejaVuSans-6e" transform="translate(194.384766 0)"/>
      <use xlink:href="#DejaVuSans-74" transform="translate(257.763672 0)"/>
     </g>
    </g>
   </g>
   <g id="line2d_33">
    <path d="M 85.239886 454.682026 
L 85.30555 454.682026 
L 85.34721 454.126239 
L 85.553248 454.126239 
L 85.646447 257.933546 
L 88.534269 257.933546 
L 88.546886 261.268266 
L 91.88777 261.268266 
L 92.04945 260.712479 
L 92.513263 260.712479 
L 92.889154 260.156692 
L 95.218338 259.600906 
L 95.264322 260.156692 
L 95.375971 259.600906 
L 102.588762 259.600906 
L 106.940116 260.712479 
L 107.58755 259.600906 
L 108.06029 259.600906 
L 109.251762 259.045119 
L 109.750252 256.821972 
L 110.720888 256.821972 
L 112.135339 260.712479 
L 112.22711 256.821972 
L 113.312488 256.266186 
L 116.137226 256.266186 
L 116.882303 255.710399 
L 117.989027 255.710399 
L 118.285685 254.598826 
L 125.183925 254.598826 
L 125.687057 253.487252 
L 125.712846 252.375679 
L 127.885071 252.375679 
L 131.08812 251.264106 
L 132.768362 251.264106 
L 132.793794 250.708319 
L 136.652529 250.708319 
L 137.609754 247.929386 
L 140.639141 247.929386 
L 140.660169 247.373599 
L 157.62625 247.373599 
L 160.797638 246.817812 
L 160.905914 247.373599 
L 164.195059 246.817812 
L 175.641009 246.817812 
L 181.188715 246.262026 
L 181.29588 245.706239 
L 181.559409 245.150452 
L 184.689057 245.150452 
L 186.021062 244.594666 
L 191.514094 244.594666 
L 191.722631 247.373599 
L 191.732868 245.150452 
L 191.999927 245.150452 
L 193.32606 242.927306 
L 199.81889 242.927306 
L 204.795022 242.371519 
L 210.325667 242.371519 
L 210.568366 241.815732 
L 224.939712 241.815732 
L 225.553064 241.259946 
L 229.042614 241.259946 
L 229.067213 240.148372 
L 235.716049 240.148372 
L 235.850907 236.257866 
L 247.884936 236.257866 
L 247.888547 235.702079 
L 248.237061 235.702079 
L 249.478763 235.146292 
L 251.295173 235.146292 
L 251.785411 234.590506 
L 251.83445 235.146292 
L 252.957045 234.590506 
L 252.962163 234.034719 
L 252.988389 234.590506 
L 253.636855 234.034719 
L 259.543946 234.034719 
L 261.380512 233.478932 
L 263.559759 233.478932 
L 267.261179 232.923146 
L 270.76525 232.923146 
L 273.472507 231.811572 
L 279.397175 231.811572 
L 282.843597 230.699999 
L 283.814629 231.255786 
L 288.624916 231.255786 
L 294.051134 229.032639 
L 302.143662 229.032639 
L 304.653451 228.476852 
L 349.380876 228.476852 
L 349.742087 227.921066 
L 366.053155 227.921066 
L 366.32569 227.365279 
L 394.080566 227.365279 
L 400.192109 226.809492 
L 400.22746 227.365279 
L 404.602421 225.697919 
L 411.022921 225.697919 
L 414.528738 225.142132 
L 414.534491 224.586346 
L 421.849409 224.586346 
L 424.474814 225.142132 
L 425.418588 224.586346 
L 437.66048 224.586346 
L 438.181466 225.142132 
L 439.135834 224.586346 
L 439.463797 222.363199 
L 445.073873 222.363199 
L 445.078714 221.807412 
L 462.245437 221.807412 
L 463.245115 221.251626 
L 466.544259 221.251626 
L 466.866111 220.695839 
L 482.953843 220.695839 
L 482.975705 220.140052 
L 486.999493 220.140052 
L 487.005484 219.584266 
L 487.981872 219.584266 
L 488.032856 219.028479 
L 489.549077 219.028479 
L 489.787292 218.472692 
L 493.032477 218.472692 
L 493.525769 217.361119 
L 495.312264 215.137972 
L 499.632313 215.137972 
L 499.951269 212.359039 
L 501.399881 212.359039 
L 502.110837 211.247466 
L 505.774366 211.247466 
L 506.976471 210.691679 
L 510.417497 210.691679 
L 510.878692 210.135892 
L 520.224826 210.135892 
L 520.455106 209.580106 
L 521.319528 209.580106 
L 522.661571 209.024319 
L 537.778311 209.024319 
L 537.914122 208.468532 
L 538.398805 208.468532 
L 539.410624 207.356959 
L 540.829202 207.356959 
L 541.170297 206.801172 
L 541.498934 206.801172 
L 541.623636 206.245386 
L 545.417303 206.245386 
L 546.06315 205.689599 
L 549.36523 205.689599 
L 549.576941 205.133812 
L 551.385694 205.133812 
L 551.501588 204.578026 
L 557.122774 204.578026 
L 557.243627 204.022239 
L 560.521981 204.022239 
L 561.616961 201.799092 
L 562.830969 201.799092 
L 562.832239 201.243306 
L 567.761593 201.243306 
L 568.665295 200.687519 
L 572.43964 200.687519 
L 573.18305 200.131732 
L 573.462687 200.131732 
L 574.189076 199.575946 
L 576.044567 199.575946 
L 576.259016 199.020159 
L 580.912582 199.020159 
L 582.112109 198.464372 
L 582.199476 197.908586 
L 582.587825 197.908586 
L 583.813577 195.685439 
L 587.614981 195.685439 
L 587.642357 195.129652 
L 591.26018 195.129652 
L 591.470542 194.573866 
L 592.016207 194.573866 
L 592.42991 194.018079 
L 592.516205 194.573866 
L 592.825996 194.018079 
L 594.202359 194.018079 
L 594.215531 193.462292 
L 594.581027 193.462292 
L 594.74108 192.906506 
L 595.847011 192.350719 
L 603.541628 192.350719 
L 604.744289 191.794932 
L 605.549356 191.794932 
L 606.202504 191.239146 
L 606.863229 191.794932 
L 609.583698 191.794932 
L 609.70102 190.683359 
L 613.606454 190.683359 
L 615.121763 189.015999 
L 631.569357 189.015999 
L 632.525272 188.460212 
L 657.913035 188.460212 
L 657.957075 187.904426 
L 695.373669 187.904426 
L 695.538007 187.348639 
L 695.549791 186.792852 
L 695.561495 187.348639 
L 700.998584 187.348639 
L 702.226201 186.792852 
L 723.646476 186.792852 
L 728.054289 186.237066 
L 728.097139 185.681279 
L 728.46204 185.681279 
L 729.605028 185.125492 
L 763.983149 185.125492 
L 764.179188 184.569706 
L 794.888265 184.569706 
L 798.812307 184.013919 
L 801.21259 184.013919 
L 801.473063 183.458132 
L 803.141363 182.902346 
L 807.819845 182.902346 
L 809.790238 182.346559 
L 811.852045 182.346559 
L 812.012614 181.790772 
L 812.012614 181.790772 
" clip-path="url(#pf89fb1bbc3)" style="fill: none; stroke: #3fb950; stroke-width: 2; stroke-linecap: square"/>
   </g>
   <g id="line2d_34">
    <path d="M 85.239886 455.237812 
L 85.34721 453.570452 
L 85.463977 453.570452 
L 85.553248 372.981386 
L 87.171992 372.981386 
L 87.20528 370.758239 
L 88.873936 370.758239 
L 89.303866 369.090879 
L 89.88885 370.758239 
L 89.893175 369.090879 
L 90.377223 369.090879 
L 90.564295 367.979306 
L 95.344508 367.979306 
L 95.34907 367.423519 
L 95.375971 367.979306 
L 95.61125 367.423519 
L 95.680246 367.979306 
L 95.864264 367.423519 
L 97.541728 367.423519 
L 97.629492 366.867732 
L 97.86854 366.311946 
L 99.762477 366.311946 
L 101.91776 365.756159 
L 101.993621 365.200372 
L 102.576145 364.644586 
L 102.588762 364.088799 
L 106.940116 367.979306 
L 107.58755 366.311946 
L 108.06029 363.533012 
L 110.720888 363.533012 
L 112.135339 367.979306 
L 112.22711 363.533012 
L 138.073726 363.533012 
L 138.866851 362.977226 
L 140.660169 362.977226 
L 145.558021 362.421439 
L 146.75108 361.865652 
L 163.750291 361.865652 
L 164.195059 361.309866 
L 166.480163 360.754079 
L 167.932545 360.754079 
L 169.542441 360.198292 
L 169.585807 359.086719 
L 170.692452 358.530932 
L 171.436219 357.975146 
L 181.682563 357.975146 
L 183.725087 357.419359 
L 184.342566 357.419359 
L 184.689057 356.863572 
L 186.021062 356.863572 
L 187.344378 356.307786 
L 191.514094 356.307786 
L 191.722631 358.530932 
L 191.732868 356.307786 
L 193.32606 356.307786 
L 193.485994 355.751999 
L 195.741103 355.751999 
L 197.959828 355.196212 
L 198.013668 354.640426 
L 204.795022 354.640426 
L 207.65531 354.084639 
L 207.662531 353.528852 
L 217.18066 353.528852 
L 221.151044 352.973066 
L 224.129844 352.973066 
L 224.939712 352.417279 
L 229.486628 352.417279 
L 232.080015 351.861492 
L 232.222174 351.305706 
L 234.750611 351.305706 
L 235.044055 350.749919 
L 235.850907 350.194132 
L 237.652082 350.194132 
L 238.789277 349.638346 
L 240.874294 349.638346 
L 242.235104 349.082559 
L 245.138122 349.082559 
L 246.127128 347.970986 
L 253.636855 347.970986 
L 255.775553 347.415199 
L 258.283398 347.415199 
L 258.848941 346.859412 
L 259.021889 346.303626 
L 259.543946 345.747839 
L 268.179998 345.747839 
L 269.761168 345.192052 
L 270.76525 344.636266 
L 295.322871 344.636266 
L 300.835463 344.080479 
L 300.901325 343.524692 
L 304.653451 343.524692 
L 307.860468 342.968906 
L 313.528829 342.968906 
L 314.007798 342.413119 
L 323.661263 342.413119 
L 331.218046 341.857332 
L 331.290573 341.301546 
L 332.278507 341.301546 
L 334.280125 340.745759 
L 334.391774 339.078399 
L 334.479855 338.522612 
L 338.660879 337.966826 
L 338.911235 337.411039 
L 339.01102 336.299466 
L 339.389688 335.743679 
L 352.995167 335.743679 
L 356.860251 335.187892 
L 359.320643 334.632106 
L 361.248106 334.632106 
L 365.717099 334.076319 
L 366.053155 331.853172 
L 366.32569 331.853172 
L 366.968244 330.741599 
L 375.444996 330.185812 
L 375.714793 329.630026 
L 375.794383 329.074239 
L 377.585242 329.074239 
L 379.276355 328.518452 
L 379.470728 327.962666 
L 379.60273 326.851092 
L 380.722111 326.295306 
L 380.80428 325.739519 
L 382.846645 325.183732 
L 385.531287 324.627946 
L 385.722208 324.072159 
L 385.726255 323.516372 
L 386.266246 322.960586 
L 386.361628 322.404799 
L 390.255952 321.849012 
L 390.954092 321.293226 
L 407.348521 321.293226 
L 410.067283 320.737439 
L 410.314703 320.181652 
L 421.426065 320.181652 
L 421.849409 319.070079 
L 426.478931 319.070079 
L 427.87664 318.514292 
L 427.944922 317.402719 
L 428.303832 316.846932 
L 430.680388 316.291146 
L 430.733911 315.735359 
L 431.020769 315.179572 
L 431.072705 313.512212 
L 431.314729 312.956426 
L 431.642176 312.956426 
L 431.654237 312.400639 
L 433.638239 311.844852 
L 434.418231 311.289066 
L 434.60697 310.733279 
L 438.181466 310.177492 
L 440.815719 310.177492 
L 441.730451 309.621706 
L 451.634589 309.621706 
L 454.91576 309.065919 
L 454.928813 308.510132 
L 455.518915 307.954346 
L 463.245115 307.954346 
L 465.412936 307.398559 
L 466.305965 306.842772 
L 466.544259 305.731199 
L 472.793954 305.731199 
L 473.219757 305.175412 
L 476.651657 305.175412 
L 478.294683 304.619626 
L 482.975705 304.619626 
L 485.8056 304.063839 
L 491.68238 304.063839 
L 492.404682 303.508052 
L 495.312264 303.508052 
L 496.103682 302.952266 
L 496.446999 302.396479 
L 496.616098 301.840692 
L 499.009478 301.840692 
L 499.077522 300.729119 
L 499.951269 300.729119 
L 500.524945 299.061759 
L 502.606867 299.061759 
L 502.865436 298.505972 
L 503.066157 298.505972 
L 504.062661 297.950186 
L 505.71632 297.950186 
L 505.774366 297.394399 
L 506.976471 297.394399 
L 507.268448 296.838612 
L 508.398303 296.838612 
L 510.128219 295.727039 
L 510.878692 295.727039 
L 513.781195 294.615466 
L 513.785559 294.059679 
L 514.339715 293.503892 
L 515.753611 292.948106 
L 515.973456 292.392319 
L 517.383147 291.836532 
L 519.687532 291.836532 
L 520.027398 291.280746 
L 520.224826 290.724959 
L 523.26552 290.724959 
L 523.345309 290.169172 
L 524.145972 290.169172 
L 524.20743 289.613386 
L 524.646803 289.057599 
L 526.175601 289.057599 
L 526.291891 288.501812 
L 526.553793 288.501812 
L 526.618862 287.946026 
L 526.72444 287.946026 
L 526.728011 287.390239 
L 528.877819 287.390239 
L 529.303543 286.834452 
L 529.661024 286.834452 
L 529.87468 286.278666 
L 530.420305 286.278666 
L 530.82881 285.722879 
L 530.914947 285.167092 
L 531.031713 285.167092 
L 533.085227 284.611306 
L 534.621921 284.611306 
L 534.738251 284.055519 
L 540.800119 284.055519 
L 540.829202 283.499732 
L 541.170297 283.499732 
L 541.848996 282.388159 
L 544.020269 282.388159 
L 544.210119 280.720799 
L 544.265506 279.609226 
L 544.623345 279.053439 
L 546.06315 279.053439 
L 546.742205 278.497652 
L 547.400392 278.497652 
L 547.612619 277.941866 
L 548.632889 277.386079 
L 549.576941 277.386079 
L 551.474846 276.830292 
L 551.501588 276.274506 
L 552.081572 276.274506 
L 552.177707 275.718719 
L 553.864853 275.718719 
L 553.91171 275.162932 
L 562.093748 275.162932 
L 562.220156 274.607146 
L 562.463569 274.607146 
L 562.571488 273.495572 
L 563.625046 273.495572 
L 563.710032 272.939786 
L 563.849255 272.939786 
L 564.578978 272.383999 
L 564.7624 271.828212 
L 565.097544 271.828212 
L 565.381148 271.272426 
L 565.473594 270.716639 
L 569.584867 270.716639 
L 570.622595 270.160852 
L 570.827561 269.049279 
L 571.080139 268.493492 
L 571.501777 268.493492 
L 571.758759 267.937706 
L 577.658907 267.937706 
L 578.048407 266.270346 
L 578.854585 266.270346 
L 578.972939 265.714559 
L 582.123179 265.714559 
L 582.199476 264.602986 
L 585.983065 264.602986 
L 586.022265 264.047199 
L 587.844904 264.047199 
L 587.857164 263.491412 
L 588.744717 263.491412 
L 588.768721 262.935626 
L 591.470542 262.935626 
L 591.604925 262.379839 
L 591.776127 262.379839 
L 592.016207 261.824052 
L 592.503548 261.824052 
L 592.516205 261.268266 
L 592.825996 261.268266 
L 593.416971 260.712479 
L 598.190319 260.712479 
L 598.537246 260.156692 
L 599.953563 260.156692 
L 599.956182 259.600906 
L 610.784812 259.600906 
L 612.622726 259.045119 
L 612.676011 258.489332 
L 613.606454 257.933546 
L 615.021263 257.933546 
L 615.121763 256.821972 
L 615.377673 256.821972 
L 615.484204 256.266186 
L 619.241686 256.266186 
L 619.920226 255.710399 
L 626.419681 255.710399 
L 626.439678 255.154612 
L 628.562467 255.154612 
L 629.46966 254.598826 
L 639.461045 254.598826 
L 639.585747 253.487252 
L 643.515186 253.487252 
L 644.296764 252.931466 
L 645.133731 252.931466 
L 646.156897 252.375679 
L 652.92004 252.375679 
L 653.567672 251.819892 
L 654.128851 251.819892 
L 654.404004 251.264106 
L 656.558494 250.708319 
L 657.613163 250.708319 
L 657.957075 250.152532 
L 658.069001 250.152532 
L 661.095849 249.596746 
L 666.668868 249.596746 
L 667.104987 249.040959 
L 688.615327 249.040959 
L 689.40127 248.485172 
L 694.375577 248.485172 
L 694.55535 247.929386 
L 694.878472 247.929386 
L 694.975876 247.373599 
L 722.755272 247.373599 
L 723.646476 246.817812 
L 730.279243 246.817812 
L 731.720079 246.262026 
L 731.816651 245.706239 
L 735.267636 245.706239 
L 735.410826 245.150452 
L 746.588923 245.150452 
L 746.611816 244.594666 
L 756.047975 244.594666 
L 756.149546 244.038879 
L 756.762422 243.483092 
L 759.077997 243.483092 
L 759.083313 242.927306 
L 759.553871 242.371519 
L 763.030566 242.371519 
L 764.179188 241.815732 
L 771.59274 241.815732 
L 771.644954 240.704159 
L 812.012614 240.704159 
L 812.012614 240.704159 
" clip-path="url(#pf89fb1bbc3)" style="fill: none; stroke: #58a6ff; stroke-width: 2; stroke-linecap: square"/>
   </g>
   <g id="line2d_35">
    <path d="M 85.239886 455.237812 
L 88.534269 455.237812 
L 88.546886 454.126239 
L 91.266601 454.126239 
L 91.88777 453.570452 
L 259.543946 453.570452 
L 261.380512 453.014666 
L 307.860468 453.014666 
L 309.150376 452.458879 
L 352.995167 452.458879 
L 356.860251 451.903092 
L 366.968244 451.903092 
L 375.794383 450.235732 
L 377.585242 449.124159 
L 380.80428 449.124159 
L 382.846645 448.568372 
L 385.726255 448.012586 
L 386.361628 448.012586 
L 390.255952 447.456799 
L 390.954092 446.901012 
L 394.080566 446.345226 
L 400.192109 445.789439 
L 400.22746 446.345226 
L 410.314703 446.345226 
L 411.022921 445.789439 
L 425.418588 445.789439 
L 426.478931 445.233652 
L 431.314729 445.233652 
L 431.654237 444.677866 
L 437.66048 444.677866 
L 438.181466 444.122079 
L 460.184424 444.122079 
L 462.245437 443.566292 
L 463.111644 443.566292 
L 463.245115 443.010506 
L 469.11753 443.010506 
L 469.123124 442.454719 
L 482.953843 442.454719 
L 482.975705 441.898932 
L 487.005484 441.898932 
L 488.032856 441.343146 
L 489.546419 440.787359 
L 489.549077 440.231572 
L 489.787292 440.231572 
L 491.68238 438.564212 
L 492.958997 438.564212 
L 493.032477 436.896852 
L 493.525769 436.896852 
L 495.312264 437.452639 
L 496.597054 437.452639 
L 496.616098 435.229492 
L 501.399881 435.229492 
L 502.110837 434.673706 
L 502.865436 434.673706 
L 503.066157 434.117919 
L 520.224826 434.117919 
L 520.455106 433.562132 
L 521.319528 433.562132 
L 522.661571 433.006346 
L 528.58247 433.006346 
L 528.877819 432.450559 
L 530.914947 432.450559 
L 531.031713 431.894772 
L 537.778311 431.894772 
L 537.914122 431.338986 
L 538.398805 431.338986 
L 538.890391 430.783199 
L 539.381502 430.783199 
L 539.410624 430.227412 
L 541.498934 430.227412 
L 541.623636 429.671626 
L 551.318443 429.671626 
L 551.385694 429.115839 
L 551.501588 429.115839 
L 551.601095 428.560052 
L 552.177707 428.560052 
L 553.386478 428.004266 
L 558.112255 428.004266 
L 558.116421 427.448479 
L 559.019409 427.448479 
L 559.053768 426.892692 
L 561.616961 426.892692 
L 562.155365 426.336906 
L 565.571197 426.336906 
L 566.561908 425.781119 
L 568.488618 425.781119 
L 568.509051 424.669546 
L 568.665295 424.669546 
L 568.86193 424.113759 
L 571.961384 424.113759 
L 572.43964 423.557972 
L 573.18305 423.557972 
L 573.462687 423.002186 
L 575.277232 423.002186 
L 575.530603 422.446399 
L 575.533857 421.890612 
L 576.044567 421.890612 
L 576.259016 421.334826 
L 595.80551 421.334826 
L 595.847011 420.223252 
L 598.537246 420.223252 
L 599.311525 419.667466 
L 599.956182 419.667466 
L 602.980331 419.111679 
L 603.541628 419.111679 
L 604.744289 418.555892 
L 605.549356 418.555892 
L 606.202504 418.000106 
L 606.863229 418.555892 
L 608.990223 418.555892 
L 609.568621 418.000106 
L 609.70102 416.888532 
L 610.777551 416.332746 
L 610.784812 415.221172 
L 615.484204 415.221172 
L 616.511933 414.665386 
L 616.616082 412.998026 
L 617.643296 412.442239 
L 618.211378 411.886452 
L 623.070029 411.886452 
L 623.276186 410.219092 
L 623.524003 410.219092 
L 623.707743 409.663306 
L 624.895168 409.107519 
L 626.764268 409.107519 
L 627.149324 408.551732 
L 627.236929 407.995946 
L 627.433405 407.995946 
L 628.562467 406.884372 
L 629.77215 406.884372 
L 630.169347 406.328586 
L 631.564754 406.328586 
L 631.569357 405.217012 
L 632.525272 405.217012 
L 633.794311 404.661226 
L 637.156421 403.549652 
L 637.456571 402.993866 
L 644.296764 402.993866 
L 645.133731 401.882292 
L 657.913035 401.882292 
L 658.069001 400.770719 
L 664.289217 400.770719 
L 665.239617 400.214932 
L 668.12371 400.214932 
L 668.285588 399.659146 
L 686.028844 399.659146 
L 686.312052 399.103359 
L 688.069543 399.103359 
L 688.615327 398.547572 
L 691.895347 398.547572 
L 692.512231 397.991786 
L 692.516278 397.435999 
L 693.221797 396.880212 
L 695.373669 396.880212 
L 695.538007 396.324426 
L 695.549791 395.212852 
L 695.561495 395.768639 
L 697.007529 395.212852 
L 702.226201 395.212852 
L 703.255597 394.101279 
L 712.671719 394.101279 
L 713.399735 393.545492 
L 715.684005 393.545492 
L 715.866872 392.989706 
L 715.892027 392.433919 
L 723.646476 392.433919 
L 728.46204 391.322346 
L 729.605028 391.322346 
L 730.279243 390.766559 
L 740.254124 390.766559 
L 741.480193 390.210772 
L 742.99943 390.210772 
L 744.470816 389.654986 
L 756.762422 389.654986 
L 757.099748 389.099199 
L 757.101573 388.543412 
L 763.983149 388.543412 
L 764.179188 387.987626 
L 794.888265 387.987626 
L 798.812307 387.431839 
L 807.819845 387.431839 
L 809.790238 386.876052 
L 811.523924 386.876052 
L 811.852045 386.320266 
L 812.012614 386.320266 
L 812.012614 386.320266 
" clip-path="url(#pf89fb1bbc3)" style="fill: none; stroke: #d29922; stroke-width: 2; stroke-linecap: square"/>
   </g>
   <g id="line2d_36">
    <path d="M 85.239886 454.682026 
L 85.521666 454.682026 
L 85.646447 432.450559 
L 86.298563 426.892692 
L 86.6712 425.781119 
L 86.860257 426.336906 
L 87.20528 425.781119 
L 87.788796 425.225332 
L 88.19365 424.113759 
L 88.534269 423.557972 
L 88.546886 423.002186 
L 88.873936 421.334826 
L 89.303866 421.334826 
L 89.88885 420.779039 
L 89.893175 420.223252 
L 90.364169 419.667466 
L 90.377223 419.111679 
L 90.564295 419.111679 
L 91.266601 418.555892 
L 91.768385 418.000106 
L 91.88777 411.886452 
L 91.970336 412.442239 
L 92.172208 408.551732 
L 92.513263 402.993866 
L 95.34907 402.993866 
L 95.375971 402.438079 
L 95.61125 399.659146 
L 95.680246 402.438079 
L 95.999916 397.991786 
L 96.158224 397.435999 
L 97.337674 396.880212 
L 97.373264 396.324426 
L 97.629492 395.768639 
L 97.86854 395.768639 
L 98.475941 395.212852 
L 98.800412 394.657066 
L 98.932771 394.101279 
L 99.036762 392.989706 
L 99.339887 392.433919 
L 99.347386 391.878132 
L 99.652257 392.433919 
L 99.739029 391.878132 
L 99.749701 392.433919 
L 99.762477 390.766559 
L 102.588762 390.766559 
L 106.940116 402.993866 
L 107.58755 390.210772 
L 107.924995 389.654986 
L 109.750252 389.654986 
L 110.059368 389.099199 
L 110.720888 388.543412 
L 112.135339 402.993866 
L 112.22711 387.987626 
L 113.312488 387.431839 
L 115.633578 386.876052 
L 115.799107 387.431839 
L 116.102589 386.320266 
L 116.137226 385.764479 
L 116.882303 385.764479 
L 117.108694 385.208692 
L 117.536283 384.652906 
L 117.571754 383.541332 
L 117.966174 382.429759 
L 117.989027 382.985546 
L 118.223632 382.985546 
L 118.352261 381.873972 
L 118.748229 379.650826 
L 118.800284 378.539252 
L 119.308296 376.871892 
L 119.556589 377.983466 
L 121.312175 374.648746 
L 121.774441 375.760319 
L 123.676829 373.537172 
L 125.183925 377.427679 
L 125.712846 373.537172 
L 127.885071 371.869812 
L 131.08812 371.869812 
L 131.511146 371.314026 
L 131.847798 369.646666 
L 132.793794 371.314026 
L 136.652529 371.869812 
L 137.609754 369.646666 
L 138.073726 367.979306 
L 138.866851 369.646666 
L 140.660169 367.979306 
L 146.75108 367.979306 
L 153.15571 367.423519 
L 153.582823 366.867732 
L 157.62625 366.311946 
L 160.299941 366.311946 
L 160.797638 365.756159 
L 160.905914 366.311946 
L 163.750291 364.644586 
L 166.418228 364.644586 
L 166.480163 364.088799 
L 167.932545 363.533012 
L 171.436219 363.533012 
L 172.981761 359.642506 
L 174.132089 359.086719 
L 175.612284 358.530932 
L 175.641009 357.975146 
L 181.188715 357.975146 
L 181.29588 354.084639 
L 181.501204 354.084639 
L 181.682563 352.973066 
L 183.725087 352.973066 
L 184.342566 352.417279 
L 187.344378 352.417279 
L 191.514094 351.861492 
L 191.722631 363.533012 
L 191.732868 352.417279 
L 191.999927 351.861492 
L 193.485994 351.861492 
L 195.741103 351.305706 
L 198.013668 351.305706 
L 199.81889 350.749919 
L 204.795022 349.638346 
L 207.662531 349.638346 
L 209.967075 349.082559 
L 210.325667 346.303626 
L 210.568366 346.303626 
L 210.99782 345.747839 
L 213.237891 345.192052 
L 213.755703 342.968906 
L 216.851666 341.857332 
L 216.888962 342.413119 
L 217.18066 341.857332 
L 221.151044 340.745759 
L 224.129844 340.189972 
L 225.553064 340.189972 
L 226.814525 339.634186 
L 227.907719 338.522612 
L 229.067213 337.966826 
L 229.486628 337.411039 
L 232.222174 337.966826 
L 234.750611 336.855252 
L 235.044055 337.411039 
L 235.716049 337.411039 
L 235.850907 336.855252 
L 237.652082 336.299466 
L 238.789277 336.855252 
L 240.874294 335.743679 
L 242.235104 335.743679 
L 245.138122 335.187892 
L 245.619512 335.743679 
L 246.127128 334.076319 
L 247.888547 334.076319 
L 248.237061 333.520532 
L 249.478763 331.853172 
L 250.182339 330.185812 
L 251.295173 330.741599 
L 251.785411 329.630026 
L 251.83445 329.074239 
L 255.775553 329.074239 
L 257.771617 328.518452 
L 258.283398 327.962666 
L 261.380512 327.962666 
L 263.559759 327.406879 
L 267.261179 327.406879 
L 268.179998 326.851092 
L 278.358258 326.851092 
L 278.942805 326.295306 
L 279.001367 325.739519 
L 279.397175 325.183732 
L 283.814629 325.183732 
L 284.089941 324.627946 
L 285.213845 324.072159 
L 285.408496 323.516372 
L 287.270573 322.960586 
L 288.624916 322.404799 
L 294.051134 322.404799 
L 295.322871 321.293226 
L 300.901325 321.293226 
L 302.143662 320.737439 
L 307.342576 320.737439 
L 307.860468 320.181652 
L 309.150376 319.625866 
L 309.534361 319.070079 
L 309.664737 318.514292 
L 313.528829 317.958506 
L 314.007798 318.514292 
L 319.094627 317.402719 
L 323.11655 316.291146 
L 323.661263 315.735359 
L 331.290573 315.735359 
L 332.278507 315.179572 
L 339.389688 315.179572 
L 346.088278 314.623786 
L 346.930839 314.067999 
L 349.742087 313.512212 
L 352.561269 312.956426 
L 352.995167 312.400639 
L 359.320643 312.400639 
L 361.248106 311.844852 
L 375.794383 311.844852 
L 377.585242 311.289066 
L 389.600861 311.289066 
L 390.255952 310.733279 
L 390.954092 311.289066 
L 394.080566 310.733279 
L 404.602421 310.733279 
L 406.012429 310.177492 
L 428.27098 310.177492 
L 428.303832 309.621706 
L 442.050716 309.621706 
L 445.070977 309.065919 
L 445.078714 308.510132 
L 460.177718 308.510132 
L 460.184424 307.398559 
L 469.123124 307.398559 
L 473.219757 306.842772 
L 478.294683 306.842772 
L 482.975705 305.731199 
L 492.404682 305.731199 
L 492.958997 305.175412 
L 493.032477 304.619626 
L 496.597054 304.619626 
L 496.616098 304.063839 
L 496.986236 304.063839 
L 497.576259 303.508052 
L 502.865436 303.508052 
L 503.066157 302.952266 
L 510.128219 302.952266 
L 510.417497 302.396479 
L 527.664207 302.396479 
L 528.581161 300.729119 
L 528.58247 300.173332 
L 531.025881 300.173332 
L 531.031713 299.617546 
L 538.23891 299.617546 
L 538.398805 299.061759 
L 541.848996 299.061759 
L 541.972944 298.505972 
L 554.790218 298.505972 
L 555.036685 297.950186 
L 558.011756 297.950186 
L 558.116421 297.394399 
L 559.053768 296.838612 
L 582.587825 296.838612 
L 583.813577 295.727039 
L 585.648357 295.727039 
L 586.022265 295.171252 
L 587.857164 295.171252 
L 588.129103 294.615466 
L 592.464388 294.615466 
L 592.516205 294.059679 
L 616.509909 294.059679 
L 616.616082 292.948106 
L 646.60726 292.948106 
L 647.386181 292.392319 
L 698.592747 292.392319 
L 700.998584 291.836532 
L 722.638863 291.836532 
L 722.755272 291.280746 
L 732.443573 291.280746 
L 732.914488 290.724959 
L 812.012614 290.724959 
L 812.012614 290.724959 
" clip-path="url(#pf89fb1bbc3)" style="fill: none; stroke: #f85149; stroke-width: 2; stroke-linecap: square"/>
   </g>
   <g id="line2d_37">
    <path d="M 85.239886 454.682026 
L 85.262303 454.126239 
L 85.439044 -1 
M 85.597897 -1 
L 85.646447 101.201706 
L 88.534269 101.201706 
L 88.546886 97.866986 
L 91.88777 97.866986 
L 92.04945 98.422772 
L 92.513263 98.422772 
L 92.889154 98.978559 
L 95.218338 99.534346 
L 95.264322 98.978559 
L 95.375971 99.534346 
L 102.588762 99.534346 
L 106.940116 98.422772 
L 107.58755 99.534346 
L 107.924995 98.978559 
L 108.06029 98.978559 
L 109.251762 99.534346 
L 109.750252 96.755412 
L 110.720888 96.755412 
L 112.135339 98.422772 
L 112.22711 95.643839 
L 113.312488 96.199626 
L 116.137226 96.199626 
L 116.882303 95.088052 
L 117.989027 95.088052 
L 118.285685 91.197546 
L 125.183925 91.197546 
L 125.687057 87.862826 
L 125.712846 86.751252 
L 127.885071 86.751252 
L 131.08812 82.860746 
L 132.768362 82.860746 
L 132.793794 83.416532 
L 136.652529 83.416532 
L 137.609754 80.081812 
L 140.639141 80.081812 
L 140.660169 80.637599 
L 157.62625 80.637599 
L 160.797638 81.193386 
L 160.905914 80.637599 
L 164.195059 81.193386 
L 175.641009 81.193386 
L 181.188715 81.749172 
L 181.29588 74.523946 
L 181.559409 75.079732 
L 184.689057 75.079732 
L 186.021062 75.635519 
L 191.514094 75.635519 
L 191.722631 80.637599 
L 191.732868 71.745012 
L 191.999927 71.745012 
L 193.32606 73.968159 
L 199.81889 73.968159 
L 204.795022 70.077652 
L 210.325667 70.077652 
L 210.568366 68.410292 
L 224.939712 68.410292 
L 225.553064 68.966079 
L 229.042614 68.966079 
L 229.067213 70.077652 
L 235.716049 70.077652 
L 235.850907 73.412372 
L 246.127128 73.412372 
L 246.372564 68.410292 
L 247.884936 67.298719 
L 247.888547 67.854506 
L 248.237061 67.854506 
L 249.478763 65.075572 
L 251.295173 65.075572 
L 251.785411 65.631359 
L 251.83445 65.075572 
L 252.957045 65.631359 
L 252.962163 66.187146 
L 252.988389 65.631359 
L 253.636855 63.408212 
L 259.543946 63.408212 
L 261.380512 63.963999 
L 263.559759 63.963999 
L 267.261179 64.519786 
L 270.76525 64.519786 
L 273.472507 65.631359 
L 279.001367 65.075572 
L 279.397175 65.075572 
L 282.843597 66.187146 
L 283.814629 65.631359 
L 288.624916 65.631359 
L 294.048198 67.854506 
L 294.051134 67.298719 
L 302.143662 67.298719 
L 304.653451 67.854506 
L 349.380876 67.854506 
L 349.742087 68.410292 
L 352.541154 68.410292 
L 352.561269 66.742932 
L 366.053155 66.742932 
L 366.32569 67.298719 
L 394.080566 67.298719 
L 400.192109 67.854506 
L 400.22746 67.298719 
L 404.602421 68.966079 
L 406.012429 68.966079 
L 407.348521 68.410292 
L 411.022921 68.410292 
L 414.528738 68.966079 
L 414.534491 69.521866 
L 424.474814 67.854506 
L 425.418588 68.410292 
L 437.66048 68.410292 
L 438.181466 67.854506 
L 439.135834 68.410292 
L 439.463797 70.633439 
L 445.073873 70.633439 
L 445.078714 71.189226 
L 462.245437 71.189226 
L 463.245115 71.745012 
L 466.544259 71.745012 
L 466.866111 72.300799 
L 482.953843 72.300799 
L 482.975705 72.856586 
L 485.8056 72.856586 
L 486.999493 73.412372 
L 487.005484 73.968159 
L 487.981872 73.412372 
L 488.032856 73.968159 
L 489.549077 73.968159 
L 489.787292 74.523946 
L 492.958997 74.523946 
L 493.032477 73.412372 
L 493.525769 74.523946 
L 495.312264 72.856586 
L 499.632313 72.856586 
L 499.951269 71.189226 
L 501.399881 71.189226 
L 502.110837 72.300799 
L 505.774366 72.300799 
L 506.976471 72.856586 
L 507.268448 72.856586 
L 508.398303 70.077652 
L 510.417497 70.077652 
L 510.878692 70.633439 
L 520.224826 70.633439 
L 520.455106 71.189226 
L 521.319528 71.189226 
L 522.661571 71.745012 
L 537.778311 71.745012 
L 537.914122 72.300799 
L 538.398805 72.300799 
L 539.410624 73.412372 
L 540.829202 73.412372 
L 541.170297 72.856586 
L 541.498934 72.856586 
L 541.623636 73.412372 
L 545.417303 73.412372 
L 546.06315 73.968159 
L 549.36523 73.968159 
L 549.576941 74.523946 
L 551.385694 74.523946 
L 551.501588 75.079732 
L 557.122774 75.079732 
L 557.243627 75.635519 
L 560.521981 75.635519 
L 561.616961 77.858666 
L 562.830969 77.858666 
L 562.832239 78.414452 
L 567.761593 78.414452 
L 568.665295 78.970239 
L 572.43964 78.970239 
L 573.18305 79.526026 
L 576.044567 79.526026 
L 576.259016 80.081812 
L 580.912582 80.081812 
L 582.112109 80.637599 
L 582.199476 81.193386 
L 582.587825 81.193386 
L 583.813577 60.629279 
L 587.614981 60.629279 
L 587.642357 61.185066 
L 587.857164 61.185066 
L 588.129103 60.629279 
L 591.26018 60.629279 
L 591.470542 61.185066 
L 592.016207 61.185066 
L 592.42991 61.740852 
L 592.516205 61.185066 
L 594.202359 61.185066 
L 594.215531 61.740852 
L 594.581027 61.740852 
L 594.74108 62.296639 
L 595.847011 62.852426 
L 603.541628 62.852426 
L 604.744289 63.408212 
L 605.549356 63.408212 
L 606.202504 63.963999 
L 606.863229 63.408212 
L 609.583698 63.408212 
L 609.70102 64.519786 
L 613.606454 64.519786 
L 615.121763 66.187146 
L 631.569357 66.187146 
L 632.525272 66.742932 
L 657.913035 66.742932 
L 657.957075 67.298719 
L 695.373669 67.298719 
L 695.538007 67.854506 
L 695.549791 68.410292 
L 695.561495 67.854506 
L 700.998584 67.854506 
L 702.226201 68.410292 
L 723.646476 68.410292 
L 728.46204 68.966079 
L 729.595545 69.521866 
L 729.605028 67.854506 
L 763.983149 67.854506 
L 764.179188 68.410292 
L 794.888265 68.410292 
L 798.812307 68.966079 
L 801.21259 68.966079 
L 801.473063 69.521866 
L 803.141363 70.077652 
L 807.819845 70.077652 
L 809.790238 70.633439 
L 811.852045 70.633439 
L 812.012614 71.189226 
L 812.012614 71.189226 
" clip-path="url(#pf89fb1bbc3)" style="fill: none; stroke: #9467bd; stroke-width: 2; stroke-linecap: square"/>
   </g>
   <g id="patch_3">
    <path d="M 48.90125 455.237812 
L 48.90125 38.397812 
" style="fill: none; stroke: #30363d; stroke-width: 0.8; stroke-linejoin: miter; stroke-linecap: square"/>
   </g>
   <g id="patch_4">
    <path d="M 848.35125 455.237812 
L 848.35125 38.397812 
" style="fill: none; stroke: #30363d; stroke-width: 0.8; stroke-linejoin: miter; stroke-linecap: square"/>
   </g>
   <g id="patch_5">
    <path d="M 48.90125 455.237812 
L 848.35125 455.237812 
" style="fill: none; stroke: #30363d; stroke-width: 0.8; stroke-linejoin: miter; stroke-linecap: square"/>
   </g>
   <g id="patch_6">
    <path d="M 48.90125 38.397812 
L 848.35125 38.397812 
" style="fill: none; stroke: #30363d; stroke-width: 0.8; stroke-linejoin: miter; stroke-linecap: square"/>
   </g>
   <g id="text_19">
    <!-- 492 -->
    <g style="fill: #3fb950" transform="translate(817.012614 184.27421) scale(0.09 -0.09)">
     <defs>
      <path id="DejaVuSans-Bold-34" d="M 2356 3675 
L 1038 1722 
L 2356 1722 
L 2356 3675 
z
M 2156 4666 
L 3494 4666 
L 3494 1722 
L 4159 1722 
L 4159 850 
L 3494 850 
L 3494 0 
L 2356 0 
L 2356 850 
L 288 850 
L 288 1881 
L 2156 4666 
z
" transform="scale(0.015625)"/>
      <path id="DejaVuSans-Bold-39" d="M 641 103 
L 641 966 
Q 928 831 1190 764 
Q 1453 697 1709 697 
Q 2247 697 2547 995 
Q 2847 1294 2900 1881 
Q 2688 1725 2447 1647 
Q 2206 1569 1925 1569 
Q 1209 1569 770 1986 
Q 331 2403 331 3084 
Q 331 3838 820 4291 
Q 1309 4744 2131 4744 
Q 3044 4744 3544 4128 
Q 4044 3513 4044 2388 
Q 4044 1231 3459 570 
Q 2875 -91 1856 -91 
Q 1528 -91 1228 -42 
Q 928 6 641 103 
z
M 2125 2350 
Q 2441 2350 2600 2554 
Q 2759 2759 2759 3169 
Q 2759 3575 2600 3781 
Q 2441 3988 2125 3988 
Q 1809 3988 1650 3781 
Q 1491 3575 1491 3169 
Q 1491 2759 1650 2554 
Q 1809 2350 2125 2350 
z
" transform="scale(0.015625)"/>
      <path id="DejaVuSans-Bold-32" d="M 1844 884 
L 3897 884 
L 3897 0 
L 506 0 
L 506 884 
L 2209 2388 
Q 2438 2594 2547 2791 
Q 2656 2988 2656 3200 
Q 2656 3528 2436 3728 
Q 2216 3928 1850 3928 
Q 1569 3928 1234 3808 
Q 900 3688 519 3450 
L 519 4475 
Q 925 4609 1322 4679 
Q 1719 4750 2100 4750 
Q 2938 4750 3402 4381 
Q 3866 4013 3866 3353 
Q 3866 2972 3669 2642 
Q 3472 2313 2841 1759 
L 1844 884 
z
" transform="scale(0.015625)"/>
     </defs>
     <use xlink:href="#DejaVuSans-Bold-34"/>
     <use xlink:href="#DejaVuSans-Bold-39" transform="translate(69.580078 0)"/>
     <use xlink:href="#DejaVuSans-Bold-32" transform="translate(139.160156 0)"/>
    </g>
   </g>
   <g id="text_20">
    <!-- 386 -->
    <g style="fill: #58a6ff" transform="translate(817.012614 243.187597) scale(0.09 -0.09)">
     <defs>
      <path id="DejaVuSans-Bold-33" d="M 2981 2516 
Q 3453 2394 3698 2092 
Q 3944 1791 3944 1325 
Q 3944 631 3412 270 
Q 2881 -91 1863 -91 
Q 1503 -91 1142 -33 
Q 781 25 428 141 
L 428 1069 
Q 766 900 1098 814 
Q 1431 728 1753 728 
Q 2231 728 2486 893 
Q 2741 1059 2741 1369 
Q 2741 1688 2480 1852 
Q 2219 2016 1709 2016 
L 1228 2016 
L 1228 2791 
L 1734 2791 
Q 2188 2791 2409 2933 
Q 2631 3075 2631 3366 
Q 2631 3634 2415 3781 
Q 2200 3928 1806 3928 
Q 1516 3928 1219 3862 
Q 922 3797 628 3669 
L 628 4550 
Q 984 4650 1334 4700 
Q 1684 4750 2022 4750 
Q 2931 4750 3382 4451 
Q 3834 4153 3834 3553 
Q 3834 3144 3618 2883 
Q 3403 2622 2981 2516 
z
" transform="scale(0.015625)"/>
      <path id="DejaVuSans-Bold-38" d="M 2228 2088 
Q 1891 2088 1709 1903 
Q 1528 1719 1528 1375 
Q 1528 1031 1709 848 
Q 1891 666 2228 666 
Q 2563 666 2741 848 
Q 2919 1031 2919 1375 
Q 2919 1722 2741 1905 
Q 2563 2088 2228 2088 
z
M 1350 2484 
Q 925 2613 709 2878 
Q 494 3144 494 3541 
Q 494 4131 934 4440 
Q 1375 4750 2228 4750 
Q 3075 4750 3515 4442 
Q 3956 4134 3956 3541 
Q 3956 3144 3739 2878 
Q 3522 2613 3097 2484 
Q 3572 2353 3814 2058 
Q 4056 1763 4056 1313 
Q 4056 619 3595 264 
Q 3134 -91 2228 -91 
Q 1319 -91 855 264 
Q 391 619 391 1313 
Q 391 1763 633 2058 
Q 875 2353 1350 2484 
z
M 1631 3419 
Q 1631 3141 1786 2991 
Q 1941 2841 2228 2841 
Q 2509 2841 2662 2991 
Q 2816 3141 2816 3419 
Q 2816 3697 2662 3845 
Q 2509 3994 2228 3994 
Q 1941 3994 1786 3844 
Q 1631 3694 1631 3419 
z
" transform="scale(0.015625)"/>
      <path id="DejaVuSans-Bold-36" d="M 2316 2303 
Q 2000 2303 1842 2098 
Q 1684 1894 1684 1484 
Q 1684 1075 1842 870 
Q 2000 666 2316 666 
Q 2634 666 2792 870 
Q 2950 1075 2950 1484 
Q 2950 1894 2792 2098 
Q 2634 2303 2316 2303 
z
M 3803 4544 
L 3803 3681 
Q 3506 3822 3243 3889 
Q 2981 3956 2731 3956 
Q 2194 3956 1894 3657 
Q 1594 3359 1544 2772 
Q 1750 2925 1990 3001 
Q 2231 3078 2516 3078 
Q 3231 3078 3670 2659 
Q 4109 2241 4109 1563 
Q 4109 813 3618 361 
Q 3128 -91 2303 -91 
Q 1394 -91 895 523 
Q 397 1138 397 2266 
Q 397 3422 980 4083 
Q 1563 4744 2578 4744 
Q 2900 4744 3203 4694 
Q 3506 4644 3803 4544 
z
" transform="scale(0.015625)"/>
     </defs>
     <use xlink:href="#DejaVuSans-Bold-33"/>
     <use xlink:href="#DejaVuSans-Bold-38" transform="translate(69.580078 0)"/>
     <use xlink:href="#DejaVuSans-Bold-36" transform="translate(139.160156 0)"/>
    </g>
   </g>
   <g id="text_21">
    <!-- 124 -->
    <g style="fill: #d29922" transform="translate(817.012614 388.803703) scale(0.09 -0.09)">
     <defs>
      <path id="DejaVuSans-Bold-31" d="M 750 831 
L 1813 831 
L 1813 3847 
L 722 3622 
L 722 4441 
L 1806 4666 
L 2950 4666 
L 2950 831 
L 4013 831 
L 4013 0 
L 750 0 
L 750 831 
z
" transform="scale(0.015625)"/>
     </defs>
     <use xlink:href="#DejaVuSans-Bold-31"/>
     <use xlink:href="#DejaVuSans-Bold-32" transform="translate(69.580078 0)"/>
     <use xlink:href="#DejaVuSans-Bold-34" transform="translate(139.160156 0)"/>
    </g>
   </g>
   <g id="text_22">
    <!-- 296 -->
    <g style="fill: #f85149" transform="translate(817.012614 293.208397) scale(0.09 -0.09)">
     <use xlink:href="#DejaVuSans-Bold-32"/>
     <use xlink:href="#DejaVuSans-Bold-39" transform="translate(69.580078 0)"/>
     <use xlink:href="#DejaVuSans-Bold-36" transform="translate(139.160156 0)"/>
    </g>
   </g>
   <g id="text_23">
    <!-- 691 -->
    <g style="fill: #9467bd" transform="translate(817.012614 73.672663) scale(0.09 -0.09)">
     <use xlink:href="#DejaVuSans-Bold-36"/>
     <use xlink:href="#DejaVuSans-Bold-39" transform="translate(69.580078 0)"/>
     <use xlink:href="#DejaVuSans-Bold-31" transform="translate(139.160156 0)"/>
    </g>
   </g>
   <g id="text_24">
    <!-- Erdős Problems Progress -->
    <g style="fill: #c9d1d9" transform="translate(349.588281 18.397812) scale(0.14 -0.14)">
     <defs>
      <path id="DejaVuSans-Bold-45" d="M 588 4666 
L 3834 4666 
L 3834 3756 
L 1791 3756 
L 1791 2888 
L 3713 2888 
L 3713 1978 
L 1791 1978 
L 1791 909 
L 3903 909 
L 3903 0 
L 588 0 
L 588 4666 
z
" transform="scale(0.015625)"/>
      <path id="DejaVuSans-Bold-72" d="M 3138 2547 
Q 2991 2616 2845 2648 
Q 2700 2681 2553 2681 
Q 2122 2681 1889 2404 
Q 1656 2128 1656 1613 
L 1656 0 
L 538 0 
L 538 3500 
L 1656 3500 
L 1656 2925 
Q 1872 3269 2151 3426 
Q 2431 3584 2822 3584 
Q 2878 3584 2943 3579 
Q 3009 3575 3134 3559 
L 3138 2547 
z
" transform="scale(0.015625)"/>
      <path id="DejaVuSans-Bold-64" d="M 2919 2988 
L 2919 4863 
L 4044 4863 
L 4044 0 
L 2919 0 
L 2919 506 
Q 2688 197 2409 53 
Q 2131 -91 1766 -91 
Q 1119 -91 703 423 
Q 288 938 288 1747 
Q 288 2556 703 3070 
Q 1119 3584 1766 3584 
Q 2128 3584 2408 3439 
Q 2688 3294 2919 2988 
z
M 2181 722 
Q 2541 722 2730 984 
Q 2919 1247 2919 1747 
Q 2919 2247 2730 2509 
Q 2541 2772 2181 2772 
Q 1825 2772 1636 2509 
Q 1447 2247 1447 1747 
Q 1447 1247 1636 984 
Q 1825 722 2181 722 
z
" transform="scale(0.015625)"/>
      <path id="DejaVuSans-Bold-151" d="M 1881 5119 
L 2560 5119 
L 1785 3944 
L 1275 3944 
L 1881 5119 
z
M 3016 5119 
L 3738 5119 
L 2888 3944 
L 2344 3944 
L 3016 5119 
z
M 2203 2784 
Q 1831 2784 1636 2517 
Q 1441 2250 1441 1747 
Q 1441 1244 1636 976 
Q 1831 709 2203 709 
Q 2569 709 2762 976 
Q 2956 1244 2956 1747 
Q 2956 2250 2762 2517 
Q 2569 2784 2203 2784 
z
M 2203 3584 
Q 3106 3584 3614 3096 
Q 4122 2609 4122 1747 
Q 4122 884 3614 396 
Q 3106 -91 2203 -91 
Q 1297 -91 786 396 
Q 275 884 275 1747 
Q 275 2609 786 3096 
Q 1297 3584 2203 3584 
z
" transform="scale(0.015625)"/>
      <path id="DejaVuSans-Bold-73" d="M 3272 3391 
L 3272 2541 
Q 2913 2691 2578 2766 
Q 2244 2841 1947 2841 
Q 1628 2841 1473 2761 
Q 1319 2681 1319 2516 
Q 1319 2381 1436 2309 
Q 1553 2238 1856 2203 
L 2053 2175 
Q 2913 2066 3209 1816 
Q 3506 1566 3506 1031 
Q 3506 472 3093 190 
Q 2681 -91 1863 -91 
Q 1516 -91 1145 -36 
Q 775 19 384 128 
L 384 978 
Q 719 816 1070 734 
Q 1422 653 1784 653 
Q 2113 653 2278 743 
Q 2444 834 2444 1013 
Q 2444 1163 2330 1236 
Q 2216 1309 1875 1350 
L 1678 1375 
Q 931 1469 631 1722 
Q 331 1975 331 2491 
Q 331 3047 712 3315 
Q 1094 3584 1881 3584 
Q 2191 3584 2531 3537 
Q 2872 3491 3272 3391 
z
" transform="scale(0.015625)"/>
      <path id="DejaVuSans-Bold-20" transform="scale(0.015625)"/>
      <path id="DejaVuSans-Bold-50" d="M 588 4666 
L 2584 4666 
Q 3475 4666 3951 4270 
Q 4428 3875 4428 3144 
Q 4428 2409 3951 2014 
Q 3475 1619 2584 1619 
L 1791 1619 
L 1791 0 
L 588 0 
L 588 4666 
z
M 1791 3794 
L 1791 2491 
L 2456 2491 
Q 2806 2491 2997 2661 
Q 3188 2831 3188 3144 
Q 3188 3456 2997 3625 
Q 2806 3794 2456 3794 
L 1791 3794 
z
" transform="scale(0.015625)"/>
      <path id="DejaVuSans-Bold-6f" d="M 2203 2784 
Q 1831 2784 1636 2517 
Q 1441 2250 1441 1747 
Q 1441 1244 1636 976 
Q 1831 709 2203 709 
Q 2569 709 2762 976 
Q 2956 1244 2956 1747 
Q 2956 2250 2762 2517 
Q 2569 2784 2203 2784 
z
M 2203 3584 
Q 3106 3584 3614 3096 
Q 4122 2609 4122 1747 
Q 4122 884 3614 396 
Q 3106 -91 2203 -91 
Q 1297 -91 786 396 
Q 275 884 275 1747 
Q 275 2609 786 3096 
Q 1297 3584 2203 3584 
z
" transform="scale(0.015625)"/>
      <path id="DejaVuSans-Bold-62" d="M 2400 722 
Q 2759 722 2948 984 
Q 3138 1247 3138 1747 
Q 3138 2247 2948 2509 
Q 2759 2772 2400 2772 
Q 2041 2772 1848 2508 
Q 1656 2244 1656 1747 
Q 1656 1250 1848 986 
Q 2041 722 2400 722 
z
M 1656 2988 
Q 1888 3294 2169 3439 
Q 2450 3584 2816 3584 
Q 3463 3584 3878 3070 
Q 4294 2556 4294 1747 
Q 4294 938 3878 423 
Q 3463 -91 2816 -91 
Q 2450 -91 2169 54 
Q 1888 200 1656 506 
L 1656 0 
L 538 0 
L 538 4863 
L 1656 4863 
L 1656 2988 
z
" transform="scale(0.015625)"/>
      <path id="DejaVuSans-Bold-6c" d="M 538 4863 
L 1656 4863 
L 1656 0 
L 538 0 
L 538 4863 
z
" transform="scale(0.015625)"/>
      <path id="DejaVuSans-Bold-65" d="M 4031 1759 
L 4031 1441 
L 1416 1441 
Q 1456 1047 1700 850 
Q 1944 653 2381 653 
Q 2734 653 3104 758 
Q 3475 863 3866 1075 
L 3866 213 
Q 3469 63 3072 -14 
Q 2675 -91 2278 -91 
Q 1328 -91 801 392 
Q 275 875 275 1747 
Q 275 2603 792 3093 
Q 1309 3584 2216 3584 
Q 3041 3584 3536 3087 
Q 4031 2591 4031 1759 
z
M 2881 2131 
Q 2881 2450 2695 2645 
Q 2509 2841 2209 2841 
Q 1884 2841 1681 2658 
Q 1478 2475 1428 2131 
L 2881 2131 
z
" transform="scale(0.015625)"/>
      <path id="DejaVuSans-Bold-6d" d="M 3781 2919 
Q 3994 3244 4286 3414 
Q 4578 3584 4928 3584 
Q 5531 3584 5847 3212 
Q 6163 2841 6163 2131 
L 6163 0 
L 5038 0 
L 5038 1825 
Q 5041 1866 5042 1909 
Q 5044 1953 5044 2034 
Q 5044 2406 4934 2573 
Q 4825 2741 4581 2741 
Q 4263 2741 4089 2478 
Q 3916 2216 3909 1719 
L 3909 0 
L 2784 0 
L 2784 1825 
Q 2784 2406 2684 2573 
Q 2584 2741 2328 2741 
Q 2006 2741 1831 2477 
Q 1656 2213 1656 1722 
L 1656 0 
L 531 0 
L 531 3500 
L 1656 3500 
L 1656 2988 
Q 1863 3284 2130 3434 
Q 2397 3584 2719 3584 
Q 3081 3584 3359 3409 
Q 3638 3234 3781 2919 
z
" transform="scale(0.015625)"/>
      <path id="DejaVuSans-Bold-67" d="M 2919 594 
Q 2688 288 2409 144 
Q 2131 0 1766 0 
Q 1125 0 706 504 
Q 288 1009 288 1791 
Q 288 2575 706 3076 
Q 1125 3578 1766 3578 
Q 2131 3578 2409 3434 
Q 2688 3291 2919 2981 
L 2919 3500 
L 4044 3500 
L 4044 353 
Q 4044 -491 3511 -936 
Q 2978 -1381 1966 -1381 
Q 1638 -1381 1331 -1331 
Q 1025 -1281 716 -1178 
L 716 -306 
Q 1009 -475 1290 -558 
Q 1572 -641 1856 -641 
Q 2406 -641 2662 -400 
Q 2919 -159 2919 353 
L 2919 594 
z
M 2181 2772 
Q 1834 2772 1640 2515 
Q 1447 2259 1447 1791 
Q 1447 1309 1634 1061 
Q 1822 813 2181 813 
Q 2531 813 2725 1069 
Q 2919 1325 2919 1791 
Q 2919 2259 2725 2515 
Q 2531 2772 2181 2772 
z
" transform="scale(0.015625)"/>
     </defs>
     <use xlink:href="#DejaVuSans-Bold-45"/>
     <use xlink:href="#DejaVuSans-Bold-72" transform="translate(68.310547 0)"/>
     <use xlink:href="#DejaVuSans-Bold-64" transform="translate(117.626953 0)"/>
     <use xlink:href="#DejaVuSans-Bold-151" transform="translate(189.208984 0)"/>
     <use xlink:href="#DejaVuSans-Bold-73" transform="translate(257.910156 0)"/>
     <use xlink:href="#DejaVuSans-Bold-20" transform="translate(317.431641 0)"/>
     <use xlink:href="#DejaVuSans-Bold-50" transform="translate(352.246094 0)"/>
     <use xlink:href="#DejaVuSans-Bold-72" transform="translate(425.537109 0)"/>
     <use xlink:href="#DejaVuSans-Bold-6f" transform="translate(474.853516 0)"/>
     <use xlink:href="#DejaVuSans-Bold-62" transform="translate(543.554688 0)"/>
     <use xlink:href="#DejaVuSans-Bold-6c" transform="translate(615.136719 0)"/>
     <use xlink:href="#DejaVuSans-Bold-65" transform="translate(649.414062 0)"/>
     <use xlink:href="#DejaVuSans-Bold-6d" transform="translate(717.236328 0)"/>
     <use xlink:href="#DejaVuSans-Bold-73" transform="translate(821.435547 0)"/>
     <use xlink:href="#DejaVuSans-Bold-20" transform="translate(880.957031 0)"/>
     <use xlink:href="#DejaVuSans-Bold-50" transform="translate(915.771484 0)"/>
     <use xlink:href="#DejaVuSans-Bold-72" transform="translate(989.0625 0)"/>
     <use xlink:href="#DejaVuSans-Bold-6f" transform="translate(1038.378906 0)"/>
     <use xlink:href="#DejaVuSans-Bold-67" transform="translate(1107.080078 0)"/>
     <use xlink:href="#DejaVuSans-Bold-72" transform="translate(1178.662109 0)"/>
     <use xlink:href="#DejaVuSans-Bold-65" transform="translate(1227.978516 0)"/>
     <use xlink:href="#DejaVuSans-Bold-73" transform="translate(1295.800781 0)"/>
     <use xlink:href="#DejaVuSans-Bold-73" transform="translate(1355.322266 0)"/>
    </g>
   </g>
   <g id="legend_1">
    <g id="patch_7">
     <path d="M 55.90125 119.788437 
L 213.771563 119.788437 
Q 215.771563 119.788437 215.771563 117.788437 
L 215.771563 45.397812 
Q 215.771563 43.397812 213.771563 43.397812 
L 55.90125 43.397812 
Q 53.90125 43.397812 53.90125 45.397812 
L 53.90125 117.788437 
Q 53.90125 119.788437 55.90125 119.788437 
z
" style="fill: #161b22; opacity: 0.8; stroke: #30363d; stroke-linejoin: miter"/>
    </g>
    <g id="line2d_38">
     <path d="M 57.90125 51.49625 
L 67.90125 51.49625 
L 77.90125 51.49625 
" style="fill: none; stroke: #3fb950; stroke-width: 2; stroke-linecap: square"/>
    </g>
    <g id="text_25">
     <!-- Solved -->
     <g style="fill: #c9d1d9" transform="translate(85.90125 54.99625) scale(0.1 -0.1)">
      <defs>
       <path id="DejaVuSans-6c" d="M 603 4863 
L 1178 4863 
L 1178 0 
L 603 0 
L 603 4863 
z
" transform="scale(0.015625)"/>
       <path id="DejaVuSans-64" d="M 2906 2969 
L 2906 4863 
L 3481 4863 
L 3481 0 
L 2906 0 
L 2906 525 
Q 2725 213 2448 61 
Q 2172 -91 1784 -91 
Q 1150 -91 751 415 
Q 353 922 353 1747 
Q 353 2572 751 3078 
Q 1150 3584 1784 3584 
Q 2172 3584 2448 3432 
Q 2725 3281 2906 2969 
z
M 947 1747 
Q 947 1113 1208 752 
Q 1469 391 1925 391 
Q 2381 391 2643 752 
Q 2906 1113 2906 1747 
Q 2906 2381 2643 2742 
Q 2381 3103 1925 3103 
Q 1469 3103 1208 2742 
Q 947 2381 947 1747 
z
" transform="scale(0.015625)"/>
      </defs>
      <use xlink:href="#DejaVuSans-53"/>
      <use xlink:href="#DejaVuSans-6f" transform="translate(63.476562 0)"/>
      <use xlink:href="#DejaVuSans-6c" transform="translate(124.658203 0)"/>
      <use xlink:href="#DejaVuSans-76" transform="translate(152.441406 0)"/>
      <use xlink:href="#DejaVuSans-65" transform="translate(211.621094 0)"/>
      <use xlink:href="#DejaVuSans-64" transform="translate(273.144531 0)"/>
     </g>
    </g>
    <g id="line2d_39">
     <path d="M 57.90125 66.174375 
L 67.90125 66.174375 
L 77.90125 66.174375 
" style="fill: none; stroke: #58a6ff; stroke-width: 2; stroke-linecap: square"/>
    </g>
    <g id="text_26">
     <!-- Lean Formalized Problem -->
     <g style="fill: #c9d1d9" transform="translate(85.90125 69.674375) scale(0.1 -0.1)">
      <defs>
       <path id="DejaVuSans-4c" d="M 628 4666 
L 1259 4666 
L 1259 531 
L 3531 531 
L 3531 0 
L 628 0 
L 628 4666 
z
" transform="scale(0.015625)"/>
       <path id="DejaVuSans-20" transform="scale(0.015625)"/>
       <path id="DejaVuSans-6d" d="M 3328 2828 
Q 3544 3216 3844 3400 
Q 4144 3584 4550 3584 
Q 5097 3584 5394 3201 
Q 5691 2819 5691 2113 
L 5691 0 
L 5113 0 
L 5113 2094 
Q 5113 2597 4934 2840 
Q 4756 3084 4391 3084 
Q 3944 3084 3684 2787 
Q 3425 2491 3425 1978 
L 3425 0 
L 2847 0 
L 2847 2094 
Q 2847 2600 2669 2842 
Q 2491 3084 2119 3084 
Q 1678 3084 1418 2786 
Q 1159 2488 1159 1978 
L 1159 0 
L 581 0 
L 581 3500 
L 1159 3500 
L 1159 2956 
Q 1356 3278 1631 3431 
Q 1906 3584 2284 3584 
Q 2666 3584 2933 3390 
Q 3200 3197 3328 2828 
z
" transform="scale(0.015625)"/>
       <path id="DejaVuSans-69" d="M 603 3500 
L 1178 3500 
L 1178 0 
L 603 0 
L 603 3500 
z
M 603 4863 
L 1178 4863 
L 1178 4134 
L 603 4134 
L 603 4863 
z
" transform="scale(0.015625)"/>
       <path id="DejaVuSans-7a" d="M 353 3500 
L 3084 3500 
L 3084 2975 
L 922 459 
L 3084 459 
L 3084 0 
L 275 0 
L 275 525 
L 2438 3041 
L 353 3041 
L 353 3500 
z
" transform="scale(0.015625)"/>
       <path id="DejaVuSans-50" d="M 1259 4147 
L 1259 2394 
L 2053 2394 
Q 2494 2394 2734 2622 
Q 2975 2850 2975 3272 
Q 2975 3691 2734 3919 
Q 2494 4147 2053 4147 
L 1259 4147 
z
M 628 4666 
L 2053 4666 
Q 2838 4666 3239 4311 
Q 3641 3956 3641 3272 
Q 3641 2581 3239 2228 
Q 2838 1875 2053 1875 
L 1259 1875 
L 1259 0 
L 628 0 
L 628 4666 
z
" transform="scale(0.015625)"/>
      </defs>
      <use xlink:href="#DejaVuSans-4c"/>
      <use xlink:href="#DejaVuSans-65" transform="translate(53.962891 0)"/>
      <use xlink:href="#DejaVuSans-61" transform="translate(115.486328 0)"/>
      <use xlink:href="#DejaVuSans-6e" transform="translate(176.765625 0)"/>
      <use xlink:href="#DejaVuSans-20" transform="translate(240.144531 0)"/>
      <use xlink:href="#DejaVuSans-46" transform="translate(271.931641 0)"/>
      <use xlink:href="#DejaVuSans-6f" transform="translate(325.826172 0)"/>
      <use xlink:href="#DejaVuSans-72" transform="translate(387.007812 0)"/>
      <use xlink:href="#DejaVuSans-6d" transform="translate(426.371094 0)"/>
      <use xlink:href="#DejaVuSans-61" transform="translate(523.783203 0)"/>
      <use xlink:href="#DejaVuSans-6c" transform="translate(585.0625 0)"/>
      <use xlink:href="#DejaVuSans-69" transform="translate(612.845703 0)"/>
      <use xlink:href="#DejaVuSans-7a" transform="translate(640.628906 0)"/>
      <use xlink:href="#DejaVuSans-65" transform="translate(693.119141 0)"/>
      <use xlink:href="#DejaVuSans-64" transform="translate(754.642578 0)"/>
      <use xlink:href="#DejaVuSans-20" transform="translate(818.119141 0)"/>
      <use xlink:href="#DejaVuSans-50" transform="translate(849.90625 0)"/>
      <use xlink:href="#DejaVuSans-72" transform="translate(908.458984 0)"/>
      <use xlink:href="#DejaVuSans-6f" transform="translate(947.322266 0)"/>
      <use xlink:href="#DejaVuSans-62" transform="translate(1008.503906 0)"/>
      <use xlink:href="#DejaVuSans-6c" transform="translate(1071.980469 0)"/>
      <use xlink:href="#DejaVuSans-65" transform="translate(1099.763672 0)"/>
      <use xlink:href="#DejaVuSans-6d" transform="translate(1161.287109 0)"/>
     </g>
    </g>
    <g id="line2d_40">
     <path d="M 57.90125 80.8525 
L 67.90125 80.8525 
L 77.90125 80.8525 
" style="fill: none; stroke: #d29922; stroke-width: 2; stroke-linecap: square"/>
    </g>
    <g id="text_27">
     <!-- Lean Formalized Solution -->
     <g style="fill: #c9d1d9" transform="translate(85.90125 84.3525) scale(0.1 -0.1)">
      <use xlink:href="#DejaVuSans-4c"/>
      <use xlink:href="#DejaVuSans-65" transform="translate(53.962891 0)"/>
      <use xlink:href="#DejaVuSans-61" transform="translate(115.486328 0)"/>
      <use xlink:href="#DejaVuSans-6e" transform="translate(176.765625 0)"/>
      <use xlink:href="#DejaVuSans-20" transform="translate(240.144531 0)"/>
      <use xlink:href="#DejaVuSans-46" transform="translate(271.931641 0)"/>
      <use xlink:href="#DejaVuSans-6f" transform="translate(325.826172 0)"/>
      <use xlink:href="#DejaVuSans-72" transform="translate(387.007812 0)"/>
      <use xlink:href="#DejaVuSans-6d" transform="translate(426.371094 0)"/>
      <use xlink:href="#DejaVuSans-61" transform="translate(523.783203 0)"/>
      <use xlink:href="#DejaVuSans-6c" transform="translate(585.0625 0)"/>
      <use xlink:href="#DejaVuSans-69" transform="translate(612.845703 0)"/>
      <use xlink:href="#DejaVuSans-7a" transform="translate(640.628906 0)"/>
      <use xlink:href="#DejaVuSans-65" transform="translate(693.119141 0)"/>
      <use xlink:href="#DejaVuSans-64" transform="translate(754.642578 0)"/>
      <use xlink:href="#DejaVuSans-20" transform="translate(818.119141 0)"/>
      <use xlink:href="#DejaVuSans-53" transform="translate(849.90625 0)"/>
      <use xlink:href="#DejaVuSans-6f" transform="translate(913.382812 0)"/>
      <use xlink:href="#DejaVuSans-6c" transform="translate(974.564453 0)"/>
      <use xlink:href="#DejaVuSans-75" transform="translate(1002.347656 0)"/>
      <use xlink:href="#DejaVuSans-74" transform="translate(1065.726562 0)"/>
      <use xlink:href="#DejaVuSans-69" transform="translate(1104.935547 0)"/>
      <use xlink:href="#DejaVuSans-6f" transform="translate(1132.71875 0)"/>
      <use xlink:href="#DejaVuSans-6e" transform="translate(1193.900391 0)"/>
     </g>
    </g>
    <g id="line2d_41">
     <path d="M 57.90125 95.530625 
L 67.90125 95.530625 
L 77.90125 95.530625 
" style="fill: none; stroke: #f85149; stroke-width: 2; stroke-linecap: square"/>
    </g>
    <g id="text_28">
     <!-- OEIS Linked -->
     <g style="fill: #c9d1d9" transform="translate(85.90125 99.030625) scale(0.1 -0.1)">
      <defs>
       <path id="DejaVuSans-45" d="M 628 4666 
L 3578 4666 
L 3578 4134 
L 1259 4134 
L 1259 2753 
L 3481 2753 
L 3481 2222 
L 1259 2222 
L 1259 531 
L 3634 531 
L 3634 0 
L 628 0 
L 628 4666 
z
" transform="scale(0.015625)"/>
       <path id="DejaVuSans-49" d="M 628 4666 
L 1259 4666 
L 1259 0 
L 628 0 
L 628 4666 
z
" transform="scale(0.015625)"/>
       <path id="DejaVuSans-6b" d="M 581 4863 
L 1159 4863 
L 1159 1991 
L 2875 3500 
L 3609 3500 
L 1753 1863 
L 3688 0 
L 2938 0 
L 1159 1709 
L 1159 0 
L 581 0 
L 581 4863 
z
" transform="scale(0.015625)"/>
      </defs>
      <use xlink:href="#DejaVuSans-4f"/>
      <use xlink:href="#DejaVuSans-45" transform="translate(78.710938 0)"/>
      <use xlink:href="#DejaVuSans-49" transform="translate(141.894531 0)"/>
      <use xlink:href="#DejaVuSans-53" transform="translate(171.386719 0)"/>
      <use xlink:href="#DejaVuSans-20" transform="translate(234.863281 0)"/>
      <use xlink:href="#DejaVuSans-4c" transform="translate(266.650391 0)"/>
      <use xlink:href="#DejaVuSans-69" transform="translate(322.363281 0)"/>
      <use xlink:href="#DejaVuSans-6e" transform="translate(350.146484 0)"/>
      <use xlink:href="#DejaVuSans-6b" transform="translate(413.525391 0)"/>
      <use xlink:href="#DejaVuSans-65" transform="translate(467.810547 0)"/>
      <use xlink:href="#DejaVuSans-64" transform="translate(529.333984 0)"/>
     </g>
    </g>
    <g id="line2d_42">
     <path d="M 57.90125 110.20875 
L 67.90125 110.20875 
L 77.90125 110.20875 
" style="fill: none; stroke: #9467bd; stroke-width: 2; stroke-linecap: square"/>
    </g>
    <g id="text_29">
     <!-- Open Problems -->
     <g style="fill: #c9d1d9" transform="translate(85.90125 113.70875) scale(0.1 -0.1)">
      <defs>
       <path id="DejaVuSans-73" d="M 2834 3397 
L 2834 2853 
Q 2591 2978 2328 3040 
Q 2066 3103 1784 3103 
Q 1356 3103 1142 2972 
Q 928 2841 928 2578 
Q 928 2378 1081 2264 
Q 1234 2150 1697 2047 
L 1894 2003 
Q 2506 1872 2764 1633 
Q 3022 1394 3022 966 
Q 3022 478 2636 193 
Q 2250 -91 1575 -91 
Q 1294 -91 989 -36 
Q 684 19 347 128 
L 347 722 
Q 666 556 975 473 
Q 1284 391 1588 391 
Q 1994 391 2212 530 
Q 2431 669 2431 922 
Q 2431 1156 2273 1281 
Q 2116 1406 1581 1522 
L 1381 1569 
Q 847 1681 609 1914 
Q 372 2147 372 2553 
Q 372 3047 722 3315 
Q 1072 3584 1716 3584 
Q 2034 3584 2315 3537 
Q 2597 3491 2834 3397 
z
" transform="scale(0.015625)"/>
      </defs>
      <use xlink:href="#DejaVuSans-4f"/>
      <use xlink:href="#DejaVuSans-70" transform="translate(78.710938 0)"/>
      <use xlink:href="#DejaVuSans-65" transform="translate(142.1875 0)"/>
      <use xlink:href="#DejaVuSans-6e" transform="translate(203.710938 0)"/>
      <use xlink:href="#DejaVuSans-20" transform="translate(267.089844 0)"/>
      <use xlink:href="#DejaVuSans-50" transform="translate(298.876953 0)"/>
      <use xlink:href="#DejaVuSans-72" transform="translate(357.429688 0)"/>
      <use xlink:href="#DejaVuSans-6f" transform="translate(396.292969 0)"/>
      <use xlink:href="#DejaVuSans-62" transform="translate(457.474609 0)"/>
      <use xlink:href="#DejaVuSans-6c" transform="translate(520.951172 0)"/>
      <use xlink:href="#DejaVuSans-65" transform="translate(548.734375 0)"/>
      <use xlink:href="#DejaVuSans-6d" transform="translate(610.257812 0)"/>
      <use xlink:href="#DejaVuSans-73" transform="translate(707.669922 0)"/>
     </g>
    </g>
   </g>
  </g>
 </g>
 <defs>
  <clipPath id="pf89fb1bbc3">
   <rect x="48.90125" y="38.397812" width="799.45" height="416.84"/>
  </clipPath>
 </defs>
</svg>
