<?xml version="1.0" encoding="utf-8" standalone="no"?>
<!DOCTYPE svg PUBLIC "-//W3C//DTD SVG 1.1//EN"
  "http://www.w3.org/Graphics/SVG/1.1/DTD/svg11.dtd">
<svg xmlns:xlink="http://www.w3.org/1999/xlink" width="855.55125pt" height="494.729687pt" viewBox="0 0 855.55125 494.729687" xmlns="http://www.w3.org/2000/svg" version="1.1">
 <metadata>
  <rdf:RDF xmlns:dc="http://purl.org/dc/elements/1.1/" xmlns:cc="http://creativecommons.org/ns#" xmlns:rdf="http://www.w3.org/1999/02/22-rdf-syntax-ns#">
   <cc:Work>
    <dc:type rdf:resource="http://purl.org/dc/dcmitype/StillImage"/>
    <dc:date>2026-03-07T05:25:08.774882</dc:date>
    <dc:format>image/svg+xml</dc:format>
    <dc:creator>
     <cc:Agent>
      <dc:title>Matplotlib v3.10.7, https://matplotlib.org/</dc:title>
     </cc:Agent>
    </dc:creator>
   </cc:Work>
  </rdf:RDF>
 </metadata>
 <defs>
  <style type="text/css">*{stroke-linejoin: round; stroke-linecap: butt}</style>
 </defs>
 <g id="figure_1">
  <g id="patch_1">
   <path d="M 0 494.729687 
L 855.55125 494.729687 
L 855.55125 0 
L 0 0 
z
" style="fill: #ffffff"/>
  </g>
  <g id="axes_1">
   <g id="patch_2">
    <path d="M 48.90125 455.237812 
L 848.35125 455.237812 
L 848.35125 38.397812 
L 48.90125 38.397812 
z
" style="fill: #ffffff"/>
   </g>
   <g id="matplotlib.axis_1">
    <g id="xtick_1">
     <g id="line2d_1">
      <path d="M 86.372914 455.237812 
L 86.372914 38.397812 
" clip-path="url(#p68006cb47a)" style="fill: none; stroke: #d0d7de; stroke-opacity: 0.25; stroke-width: 0.5; stroke-linecap: square"/>
     </g>
     <g id="line2d_2">
      <defs>
       <path id="ma9a7b017dd" d="M 0 0 
L 0 3.5 
" style="stroke: #24292f; stroke-width: 0.8"/>
      </defs>
      <g>
       <use xlink:href="#ma9a7b017dd" x="86.372914" y="455.237812" style="fill: #24292f; stroke: #24292f; stroke-width: 0.8"/>
      </g>
     </g>
     <g id="text_1">
      <!-- Sep -->
      <g style="fill: #24292f" transform="translate(76.947914 469.83625) scale(0.1 -0.1)">
       <defs>
        <path id="DejaVuSans-53" d="M 3425 4513 
L 3425 3897 
Q 3066 4069 2747 4153 
Q 2428 4238 2131 4238 
Q 1616 4238 1336 4038 
Q 1056 3838 1056 3469 
Q 1056 3159 1242 3001 
Q 1428 2844 1947 2747 
L 2328 2669 
Q 3034 2534 3370 2195 
Q 3706 1856 3706 1288 
Q 3706 609 3251 259 
Q 2797 -91 1919 -91 
Q 1588 -91 1214 -16 
Q 841 59 441 206 
L 441 856 
Q 825 641 1194 531 
Q 1563 422 1919 422 
Q 2459 422 2753 634 
Q 3047 847 3047 1241 
Q 3047 1584 2836 1778 
Q 2625 1972 2144 2069 
L 1759 2144 
Q 1053 2284 737 2584 
Q 422 2884 422 3419 
Q 422 4038 858 4394 
Q 1294 4750 2059 4750 
Q 2388 4750 2728 4690 
Q 3069 4631 3425 4513 
z
" transform="scale(0.015625)"/>
        <path id="DejaVuSans-65" d="M 3597 1894 
L 3597 1613 
L 953 1613 
Q 991 1019 1311 708 
Q 1631 397 2203 397 
Q 2534 397 2845 478 
Q 3156 559 3463 722 
L 3463 178 
Q 3153 47 2828 -22 
Q 2503 -91 2169 -91 
Q 1331 -91 842 396 
Q 353 884 353 1716 
Q 353 2575 817 3079 
Q 1281 3584 2069 3584 
Q 2775 3584 3186 3129 
Q 3597 2675 3597 1894 
z
M 3022 2063 
Q 3016 2534 2758 2815 
Q 2500 3097 2075 3097 
Q 1594 3097 1305 2825 
Q 1016 2553 972 2059 
L 3022 2063 
z
" transform="scale(0.015625)"/>
        <path id="DejaVuSans-70" d="M 1159 525 
L 1159 -1331 
L 581 -1331 
L 581 3500 
L 1159 3500 
L 1159 2969 
Q 1341 3281 1617 3432 
Q 1894 3584 2278 3584 
Q 2916 3584 3314 3078 
Q 3713 2572 3713 1747 
Q 3713 922 3314 415 
Q 2916 -91 2278 -91 
Q 1894 -91 1617 61 
Q 1341 213 1159 525 
z
M 3116 1747 
Q 3116 2381 2855 2742 
Q 2594 3103 2138 3103 
Q 1681 3103 1420 2742 
Q 1159 2381 1159 1747 
Q 1159 1113 1420 752 
Q 1681 391 2138 391 
Q 2594 391 2855 752 
Q 3116 1113 3116 1747 
z
" transform="scale(0.015625)"/>
       </defs>
       <use xlink:href="#DejaVuSans-53"/>
       <use xlink:href="#DejaVuSans-65" transform="translate(63.476562 0)"/>
       <use xlink:href="#DejaVuSans-70" transform="translate(125 0)"/>
      </g>
     </g>
    </g>
    <g id="xtick_2">
     <g id="line2d_3">
      <path d="M 202.645311 455.237812 
L 202.645311 38.397812 
" clip-path="url(#p68006cb47a)" style="fill: none; stroke: #d0d7de; stroke-opacity: 0.25; stroke-width: 0.5; stroke-linecap: square"/>
     </g>
     <g id="line2d_4">
      <g>
       <use xlink:href="#ma9a7b017dd" x="202.645311" y="455.237812" style="fill: #24292f; stroke: #24292f; stroke-width: 0.8"/>
      </g>
     </g>
     <g id="text_2">
      <!-- Oct -->
      <g style="fill: #24292f" transform="translate(193.999998 469.83625) scale(0.1 -0.1)">
       <defs>
        <path id="DejaVuSans-4f" d="M 2522 4238 
Q 1834 4238 1429 3725 
Q 1025 3213 1025 2328 
Q 1025 1447 1429 934 
Q 1834 422 2522 422 
Q 3209 422 3611 934 
Q 4013 1447 4013 2328 
Q 4013 3213 3611 3725 
Q 3209 4238 2522 4238 
z
M 2522 4750 
Q 3503 4750 4090 4092 
Q 4678 3434 4678 2328 
Q 4678 1225 4090 567 
Q 3503 -91 2522 -91 
Q 1538 -91 948 565 
Q 359 1222 359 2328 
Q 359 3434 948 4092 
Q 1538 4750 2522 4750 
z
" transform="scale(0.015625)"/>
        <path id="DejaVuSans-63" d="M 3122 3366 
L 3122 2828 
Q 2878 2963 2633 3030 
Q 2388 3097 2138 3097 
Q 1578 3097 1268 2742 
Q 959 2388 959 1747 
Q 959 1106 1268 751 
Q 1578 397 2138 397 
Q 2388 397 2633 464 
Q 2878 531 3122 666 
L 3122 134 
Q 2881 22 2623 -34 
Q 2366 -91 2075 -91 
Q 1284 -91 818 406 
Q 353 903 353 1747 
Q 353 2603 823 3093 
Q 1294 3584 2113 3584 
Q 2378 3584 2631 3529 
Q 2884 3475 3122 3366 
z
" transform="scale(0.015625)"/>
        <path id="DejaVuSans-74" d="M 1172 4494 
L 1172 3500 
L 2356 3500 
L 2356 3053 
L 1172 3053 
L 1172 1153 
Q 1172 725 1289 603 
Q 1406 481 1766 481 
L 2356 481 
L 2356 0 
L 1766 0 
Q 1100 0 847 248 
Q 594 497 594 1153 
L 594 3053 
L 172 3053 
L 172 3500 
L 594 3500 
L 594 4494 
L 1172 4494 
z
" transform="scale(0.015625)"/>
       </defs>
       <use xlink:href="#DejaVuSans-4f"/>
       <use xlink:href="#DejaVuSans-63" transform="translate(78.710938 0)"/>
       <use xlink:href="#DejaVuSans-74" transform="translate(133.691406 0)"/>
      </g>
     </g>
    </g>
    <g id="xtick_3">
     <g id="line2d_5">
      <path d="M 322.793454 455.237812 
L 322.793454 38.397812 
" clip-path="url(#p68006cb47a)" style="fill: none; stroke: #d0d7de; stroke-opacity: 0.25; stroke-width: 0.5; stroke-linecap: square"/>
     </g>
     <g id="line2d_6">
      <g>
       <use xlink:href="#ma9a7b017dd" x="322.793454" y="455.237812" style="fill: #24292f; stroke: #24292f; stroke-width: 0.8"/>
      </g>
     </g>
     <g id="text_3">
      <!-- Nov -->
      <g style="fill: #24292f" transform="translate(313.034079 469.83625) scale(0.1 -0.1)">
       <defs>
        <path id="DejaVuSans-4e" d="M 628 4666 
L 1478 4666 
L 3547 763 
L 3547 4666 
L 4159 4666 
L 4159 0 
L 3309 0 
L 1241 3903 
L 1241 0 
L 628 0 
L 628 4666 
z
" transform="scale(0.015625)"/>
        <path id="DejaVuSans-6f" d="M 1959 3097 
Q 1497 3097 1228 2736 
Q 959 2375 959 1747 
Q 959 1119 1226 758 
Q 1494 397 1959 397 
Q 2419 397 2687 759 
Q 2956 1122 2956 1747 
Q 2956 2369 2687 2733 
Q 2419 3097 1959 3097 
z
M 1959 3584 
Q 2709 3584 3137 3096 
Q 3566 2609 3566 1747 
Q 3566 888 3137 398 
Q 2709 -91 1959 -91 
Q 1206 -91 779 398 
Q 353 888 353 1747 
Q 353 2609 779 3096 
Q 1206 3584 1959 3584 
z
" transform="scale(0.015625)"/>
        <path id="DejaVuSans-76" d="M 191 3500 
L 800 3500 
L 1894 563 
L 2988 3500 
L 3597 3500 
L 2284 0 
L 1503 0 
L 191 3500 
z
" transform="scale(0.015625)"/>
       </defs>
       <use xlink:href="#DejaVuSans-4e"/>
       <use xlink:href="#DejaVuSans-6f" transform="translate(74.804688 0)"/>
       <use xlink:href="#DejaVuSans-76" transform="translate(135.986328 0)"/>
      </g>
     </g>
    </g>
    <g id="xtick_4">
     <g id="line2d_7">
      <path d="M 439.065851 455.237812 
L 439.065851 38.397812 
" clip-path="url(#p68006cb47a)" style="fill: none; stroke: #d0d7de; stroke-opacity: 0.25; stroke-width: 0.5; stroke-linecap: square"/>
     </g>
     <g id="line2d_8">
      <g>
       <use xlink:href="#ma9a7b017dd" x="439.065851" y="455.237812" style="fill: #24292f; stroke: #24292f; stroke-width: 0.8"/>
      </g>
     </g>
     <g id="text_4">
      <!-- Dec -->
      <g style="fill: #24292f" transform="translate(429.39007 469.83625) scale(0.1 -0.1)">
       <defs>
        <path id="DejaVuSans-44" d="M 1259 4147 
L 1259 519 
L 2022 519 
Q 2988 519 3436 956 
Q 3884 1394 3884 2338 
Q 3884 3275 3436 3711 
Q 2988 4147 2022 4147 
L 1259 4147 
z
M 628 4666 
L 1925 4666 
Q 3281 4666 3915 4102 
Q 4550 3538 4550 2338 
Q 4550 1131 3912 565 
Q 3275 0 1925 0 
L 628 0 
L 628 4666 
z
" transform="scale(0.015625)"/>
       </defs>
       <use xlink:href="#DejaVuSans-44"/>
       <use xlink:href="#DejaVuSans-65" transform="translate(77.001953 0)"/>
       <use xlink:href="#DejaVuSans-63" transform="translate(138.525391 0)"/>
      </g>
     </g>
    </g>
    <g id="xtick_5">
     <g id="line2d_9">
      <path d="M 559.213994 455.237812 
L 559.213994 38.397812 
" clip-path="url(#p68006cb47a)" style="fill: none; stroke: #d0d7de; stroke-opacity: 0.25; stroke-width: 0.5; stroke-linecap: square"/>
     </g>
     <g id="line2d_10">
      <g>
       <use xlink:href="#ma9a7b017dd" x="559.213994" y="455.237812" style="fill: #24292f; stroke: #24292f; stroke-width: 0.8"/>
      </g>
     </g>
     <g id="text_5">
      <!-- 2026 -->
      <g style="fill: #24292f" transform="translate(546.488994 469.83625) scale(0.1 -0.1)">
       <defs>
        <path id="DejaVuSans-32" d="M 1228 531 
L 3431 531 
L 3431 0 
L 469 0 
L 469 531 
Q 828 903 1448 1529 
Q 2069 2156 2228 2338 
Q 2531 2678 2651 2914 
Q 2772 3150 2772 3378 
Q 2772 3750 2511 3984 
Q 2250 4219 1831 4219 
Q 1534 4219 1204 4116 
Q 875 4013 500 3803 
L 500 4441 
Q 881 4594 1212 4672 
Q 1544 4750 1819 4750 
Q 2544 4750 2975 4387 
Q 3406 4025 3406 3419 
Q 3406 3131 3298 2873 
Q 3191 2616 2906 2266 
Q 2828 2175 2409 1742 
Q 1991 1309 1228 531 
z
" transform="scale(0.015625)"/>
        <path id="DejaVuSans-30" d="M 2034 4250 
Q 1547 4250 1301 3770 
Q 1056 3291 1056 2328 
Q 1056 1369 1301 889 
Q 1547 409 2034 409 
Q 2525 409 2770 889 
Q 3016 1369 3016 2328 
Q 3016 3291 2770 3770 
Q 2525 4250 2034 4250 
z
M 2034 4750 
Q 2819 4750 3233 4129 
Q 3647 3509 3647 2328 
Q 3647 1150 3233 529 
Q 2819 -91 2034 -91 
Q 1250 -91 836 529 
Q 422 1150 422 2328 
Q 422 3509 836 4129 
Q 1250 4750 2034 4750 
z
" transform="scale(0.015625)"/>
        <path id="DejaVuSans-36" d="M 2113 2584 
Q 1688 2584 1439 2293 
Q 1191 2003 1191 1497 
Q 1191 994 1439 701 
Q 1688 409 2113 409 
Q 2538 409 2786 701 
Q 3034 994 3034 1497 
Q 3034 2003 2786 2293 
Q 2538 2584 2113 2584 
z
M 3366 4563 
L 3366 3988 
Q 3128 4100 2886 4159 
Q 2644 4219 2406 4219 
Q 1781 4219 1451 3797 
Q 1122 3375 1075 2522 
Q 1259 2794 1537 2939 
Q 1816 3084 2150 3084 
Q 2853 3084 3261 2657 
Q 3669 2231 3669 1497 
Q 3669 778 3244 343 
Q 2819 -91 2113 -91 
Q 1303 -91 875 529 
Q 447 1150 447 2328 
Q 447 3434 972 4092 
Q 1497 4750 2381 4750 
Q 2619 4750 2861 4703 
Q 3103 4656 3366 4563 
z
" transform="scale(0.015625)"/>
       </defs>
       <use xlink:href="#DejaVuSans-32"/>
       <use xlink:href="#DejaVuSans-30" transform="translate(63.623047 0)"/>
       <use xlink:href="#DejaVuSans-32" transform="translate(127.246094 0)"/>
       <use xlink:href="#DejaVuSans-36" transform="translate(190.869141 0)"/>
      </g>
     </g>
    </g>
    <g id="xtick_6">
     <g id="line2d_11">
      <path d="M 679.362137 455.237812 
L 679.362137 38.397812 
" clip-path="url(#p68006cb47a)" style="fill: none; stroke: #d0d7de; stroke-opacity: 0.25; stroke-width: 0.5; stroke-linecap: square"/>
     </g>
     <g id="line2d_12">
      <g>
       <use xlink:href="#ma9a7b017dd" x="679.362137" y="455.237812" style="fill: #24292f; stroke: #24292f; stroke-width: 0.8"/>
      </g>
     </g>
     <g id="text_6">
      <!-- Feb -->
      <g style="fill: #24292f" transform="translate(670.510575 469.83625) scale(0.1 -0.1)">
       <defs>
        <path id="DejaVuSans-46" d="M 628 4666 
L 3309 4666 
L 3309 4134 
L 1259 4134 
L 1259 2759 
L 3109 2759 
L 3109 2228 
L 1259 2228 
L 1259 0 
L 628 0 
L 628 4666 
z
" transform="scale(0.015625)"/>
        <path id="DejaVuSans-62" d="M 3116 1747 
Q 3116 2381 2855 2742 
Q 2594 3103 2138 3103 
Q 1681 3103 1420 2742 
Q 1159 2381 1159 1747 
Q 1159 1113 1420 752 
Q 1681 391 2138 391 
Q 2594 391 2855 752 
Q 3116 1113 3116 1747 
z
M 1159 2969 
Q 1341 3281 1617 3432 
Q 1894 3584 2278 3584 
Q 2916 3584 3314 3078 
Q 3713 2572 3713 1747 
Q 3713 922 3314 415 
Q 2916 -91 2278 -91 
Q 1894 -91 1617 61 
Q 1341 213 1159 525 
L 1159 0 
L 581 0 
L 581 4863 
L 1159 4863 
L 1159 2969 
z
" transform="scale(0.015625)"/>
       </defs>
       <use xlink:href="#DejaVuSans-46"/>
       <use xlink:href="#DejaVuSans-65" transform="translate(52.019531 0)"/>
       <use xlink:href="#DejaVuSans-62" transform="translate(113.542969 0)"/>
      </g>
     </g>
    </g>
    <g id="xtick_7">
     <g id="line2d_13">
      <path d="M 787.883041 455.237812 
L 787.883041 38.397812 
" clip-path="url(#p68006cb47a)" style="fill: none; stroke: #d0d7de; stroke-opacity: 0.25; stroke-width: 0.5; stroke-linecap: square"/>
     </g>
     <g id="line2d_14">
      <g>
       <use xlink:href="#ma9a7b017dd" x="787.883041" y="455.237812" style="fill: #24292f; stroke: #24292f; stroke-width: 0.8"/>
      </g>
     </g>
     <g id="text_7">
      <!-- Mar -->
      <g style="fill: #24292f" transform="translate(778.449447 469.83625) scale(0.1 -0.1)">
       <defs>
        <path id="DejaVuSans-4d" d="M 628 4666 
L 1569 4666 
L 2759 1491 
L 3956 4666 
L 4897 4666 
L 4897 0 
L 4281 0 
L 4281 4097 
L 3078 897 
L 2444 897 
L 1241 4097 
L 1241 0 
L 628 0 
L 628 4666 
z
" transform="scale(0.015625)"/>
        <path id="DejaVuSans-61" d="M 2194 1759 
Q 1497 1759 1228 1600 
Q 959 1441 959 1056 
Q 959 750 1161 570 
Q 1363 391 1709 391 
Q 2188 391 2477 730 
Q 2766 1069 2766 1631 
L 2766 1759 
L 2194 1759 
z
M 3341 1997 
L 3341 0 
L 2766 0 
L 2766 531 
Q 2569 213 2275 61 
Q 1981 -91 1556 -91 
Q 1019 -91 701 211 
Q 384 513 384 1019 
Q 384 1609 779 1909 
Q 1175 2209 1959 2209 
L 2766 2209 
L 2766 2266 
Q 2766 2663 2505 2880 
Q 2244 3097 1772 3097 
Q 1472 3097 1187 3025 
Q 903 2953 641 2809 
L 641 3341 
Q 956 3463 1253 3523 
Q 1550 3584 1831 3584 
Q 2591 3584 2966 3190 
Q 3341 2797 3341 1997 
z
" transform="scale(0.015625)"/>
        <path id="DejaVuSans-72" d="M 2631 2963 
Q 2534 3019 2420 3045 
Q 2306 3072 2169 3072 
Q 1681 3072 1420 2755 
Q 1159 2438 1159 1844 
L 1159 0 
L 581 0 
L 581 3500 
L 1159 3500 
L 1159 2956 
Q 1341 3275 1631 3429 
Q 1922 3584 2338 3584 
Q 2397 3584 2469 3576 
Q 2541 3569 2628 3553 
L 2631 2963 
z
" transform="scale(0.015625)"/>
       </defs>
       <use xlink:href="#DejaVuSans-4d"/>
       <use xlink:href="#DejaVuSans-61" transform="translate(86.279297 0)"/>
       <use xlink:href="#DejaVuSans-72" transform="translate(147.558594 0)"/>
      </g>
     </g>
    </g>
    <g id="text_8">
     <!-- Date -->
     <g style="fill: #24292f" transform="translate(434.285313 485.034062) scale(0.12 -0.12)">
      <use xlink:href="#DejaVuSans-44"/>
      <use xlink:href="#DejaVuSans-61" transform="translate(77.001953 0)"/>
      <use xlink:href="#DejaVuSans-74" transform="translate(138.28125 0)"/>
      <use xlink:href="#DejaVuSans-65" transform="translate(177.490234 0)"/>
     </g>
    </g>
   </g>
   <g id="matplotlib.axis_2">
    <g id="ytick_1">
     <g id="line2d_15">
      <path d="M 48.90125 455.237812 
L 848.35125 455.237812 
" clip-path="url(#p68006cb47a)" style="fill: none; stroke: #d0d7de; stroke-opacity: 0.25; stroke-width: 0.5; stroke-linecap: square"/>
     </g>
     <g id="line2d_16">
      <defs>
       <path id="m9a4bda2434" d="M 0 0 
L -3.5 0 
" style="stroke: #24292f; stroke-width: 0.8"/>
      </defs>
      <g>
       <use xlink:href="#m9a4bda2434" x="48.90125" y="455.237812" style="fill: #24292f; stroke: #24292f; stroke-width: 0.8"/>
      </g>
     </g>
     <g id="text_9">
      <!-- 0 -->
      <g style="fill: #24292f" transform="translate(35.53875 459.037031) scale(0.1 -0.1)">
       <use xlink:href="#DejaVuSans-30"/>
      </g>
     </g>
    </g>
    <g id="ytick_2">
     <g id="line2d_17">
      <path d="M 48.90125 399.659146 
L 848.35125 399.659146 
" clip-path="url(#p68006cb47a)" style="fill: none; stroke: #d0d7de; stroke-opacity: 0.25; stroke-width: 0.5; stroke-linecap: square"/>
     </g>
     <g id="line2d_18">
      <g>
       <use xlink:href="#m9a4bda2434" x="48.90125" y="399.659146" style="fill: #24292f; stroke: #24292f; stroke-width: 0.8"/>
      </g>
     </g>
     <g id="text_10">
      <!-- 100 -->
      <g style="fill: #24292f" transform="translate(22.81375 403.458365) scale(0.1 -0.1)">
       <defs>
        <path id="DejaVuSans-31" d="M 794 531 
L 1825 531 
L 1825 4091 
L 703 3866 
L 703 4441 
L 1819 4666 
L 2450 4666 
L 2450 531 
L 3481 531 
L 3481 0 
L 794 0 
L 794 531 
z
" transform="scale(0.015625)"/>
       </defs>
       <use xlink:href="#DejaVuSans-31"/>
       <use xlink:href="#DejaVuSans-30" transform="translate(63.623047 0)"/>
       <use xlink:href="#DejaVuSans-30" transform="translate(127.246094 0)"/>
      </g>
     </g>
    </g>
    <g id="ytick_3">
     <g id="line2d_19">
      <path d="M 48.90125 344.080479 
L 848.35125 344.080479 
" clip-path="url(#p68006cb47a)" style="fill: none; stroke: #d0d7de; stroke-opacity: 0.25; stroke-width: 0.5; stroke-linecap: square"/>
     </g>
     <g id="line2d_20">
      <g>
       <use xlink:href="#m9a4bda2434" x="48.90125" y="344.080479" style="fill: #24292f; stroke: #24292f; stroke-width: 0.8"/>
      </g>
     </g>
     <g id="text_11">
      <!-- 200 -->
      <g style="fill: #24292f" transform="translate(22.81375 347.879698) scale(0.1 -0.1)">
       <use xlink:href="#DejaVuSans-32"/>
       <use xlink:href="#DejaVuSans-30" transform="translate(63.623047 0)"/>
       <use xlink:href="#DejaVuSans-30" transform="translate(127.246094 0)"/>
      </g>
     </g>
    </g>
    <g id="ytick_4">
     <g id="line2d_21">
      <path d="M 48.90125 288.501812 
L 848.35125 288.501812 
" clip-path="url(#p68006cb47a)" style="fill: none; stroke: #d0d7de; stroke-opacity: 0.25; stroke-width: 0.5; stroke-linecap: square"/>
     </g>
     <g id="line2d_22">
      <g>
       <use xlink:href="#m9a4bda2434" x="48.90125" y="288.501812" style="fill: #24292f; stroke: #24292f; stroke-width: 0.8"/>
      </g>
     </g>
     <g id="text_12">
      <!-- 300 -->
      <g style="fill: #24292f" transform="translate(22.81375 292.301031) scale(0.1 -0.1)">
       <defs>
        <path id="DejaVuSans-33" d="M 2597 2516 
Q 3050 2419 3304 2112 
Q 3559 1806 3559 1356 
Q 3559 666 3084 287 
Q 2609 -91 1734 -91 
Q 1441 -91 1130 -33 
Q 819 25 488 141 
L 488 750 
Q 750 597 1062 519 
Q 1375 441 1716 441 
Q 2309 441 2620 675 
Q 2931 909 2931 1356 
Q 2931 1769 2642 2001 
Q 2353 2234 1838 2234 
L 1294 2234 
L 1294 2753 
L 1863 2753 
Q 2328 2753 2575 2939 
Q 2822 3125 2822 3475 
Q 2822 3834 2567 4026 
Q 2313 4219 1838 4219 
Q 1578 4219 1281 4162 
Q 984 4106 628 3988 
L 628 4550 
Q 988 4650 1302 4700 
Q 1616 4750 1894 4750 
Q 2613 4750 3031 4423 
Q 3450 4097 3450 3541 
Q 3450 3153 3228 2886 
Q 3006 2619 2597 2516 
z
" transform="scale(0.015625)"/>
       </defs>
       <use xlink:href="#DejaVuSans-33"/>
       <use xlink:href="#DejaVuSans-30" transform="translate(63.623047 0)"/>
       <use xlink:href="#DejaVuSans-30" transform="translate(127.246094 0)"/>
      </g>
     </g>
    </g>
    <g id="ytick_5">
     <g id="line2d_23">
      <path d="M 48.90125 232.923146 
L 848.35125 232.923146 
" clip-path="url(#p68006cb47a)" style="fill: none; stroke: #d0d7de; stroke-opacity: 0.25; stroke-width: 0.5; stroke-linecap: square"/>
     </g>
     <g id="line2d_24">
      <g>
       <use xlink:href="#m9a4bda2434" x="48.90125" y="232.923146" style="fill: #24292f; stroke: #24292f; stroke-width: 0.8"/>
      </g>
     </g>
     <g id="text_13">
      <!-- 400 -->
      <g style="fill: #24292f" transform="translate(22.81375 236.722365) scale(0.1 -0.1)">
       <defs>
        <path id="DejaVuSans-34" d="M 2419 4116 
L 825 1625 
L 2419 1625 
L 2419 4116 
z
M 2253 4666 
L 3047 4666 
L 3047 1625 
L 3713 1625 
L 3713 1100 
L 3047 1100 
L 3047 0 
L 2419 0 
L 2419 1100 
L 313 1100 
L 313 1709 
L 2253 4666 
z
" transform="scale(0.015625)"/>
       </defs>
       <use xlink:href="#DejaVuSans-34"/>
       <use xlink:href="#DejaVuSans-30" transform="translate(63.623047 0)"/>
       <use xlink:href="#DejaVuSans-30" transform="translate(127.246094 0)"/>
      </g>
     </g>
    </g>
    <g id="ytick_6">
     <g id="line2d_25">
      <path d="M 48.90125 177.344479 
L 848.35125 177.344479 
" clip-path="url(#p68006cb47a)" style="fill: none; stroke: #d0d7de; stroke-opacity: 0.25; stroke-width: 0.5; stroke-linecap: square"/>
     </g>
     <g id="line2d_26">
      <g>
       <use xlink:href="#m9a4bda2434" x="48.90125" y="177.344479" style="fill: #24292f; stroke: #24292f; stroke-width: 0.8"/>
      </g>
     </g>
     <g id="text_14">
      <!-- 500 -->
      <g style="fill: #24292f" transform="translate(22.81375 181.143698) scale(0.1 -0.1)">
       <defs>
        <path id="DejaVuSans-35" d="M 691 4666 
L 3169 4666 
L 3169 4134 
L 1269 4134 
L 1269 2991 
Q 1406 3038 1543 3061 
Q 1681 3084 1819 3084 
Q 2600 3084 3056 2656 
Q 3513 2228 3513 1497 
Q 3513 744 3044 326 
Q 2575 -91 1722 -91 
Q 1428 -91 1123 -41 
Q 819 9 494 109 
L 494 744 
Q 775 591 1075 516 
Q 1375 441 1709 441 
Q 2250 441 2565 725 
Q 2881 1009 2881 1497 
Q 2881 1984 2565 2268 
Q 2250 2553 1709 2553 
Q 1456 2553 1204 2497 
Q 953 2441 691 2322 
L 691 4666 
z
" transform="scale(0.015625)"/>
       </defs>
       <use xlink:href="#DejaVuSans-35"/>
       <use xlink:href="#DejaVuSans-30" transform="translate(63.623047 0)"/>
       <use xlink:href="#DejaVuSans-30" transform="translate(127.246094 0)"/>
      </g>
     </g>
    </g>
    <g id="ytick_7">
     <g id="line2d_27">
      <path d="M 48.90125 121.765812 
L 848.35125 121.765812 
" clip-path="url(#p68006cb47a)" style="fill: none; stroke: #d0d7de; stroke-opacity: 0.25; stroke-width: 0.5; stroke-linecap: square"/>
     </g>
     <g id="line2d_28">
      <g>
       <use xlink:href="#m9a4bda2434" x="48.90125" y="121.765812" style="fill: #24292f; stroke: #24292f; stroke-width: 0.8"/>
      </g>
     </g>
     <g id="text_15">
      <!-- 600 -->
      <g style="fill: #24292f" transform="translate(22.81375 125.565031) scale(0.1 -0.1)">
       <use xlink:href="#DejaVuSans-36"/>
       <use xlink:href="#DejaVuSans-30" transform="translate(63.623047 0)"/>
       <use xlink:href="#DejaVuSans-30" transform="translate(127.246094 0)"/>
      </g>
     </g>
    </g>
    <g id="ytick_8">
     <g id="line2d_29">
      <path d="M 48.90125 66.187146 
L 848.35125 66.187146 
" clip-path="url(#p68006cb47a)" style="fill: none; stroke: #d0d7de; stroke-opacity: 0.25; stroke-width: 0.5; stroke-linecap: square"/>
     </g>
     <g id="line2d_30">
      <g>
       <use xlink:href="#m9a4bda2434" x="48.90125" y="66.187146" style="fill: #24292f; stroke: #24292f; stroke-width: 0.8"/>
      </g>
     </g>
     <g id="text_16">
      <!-- 700 -->
      <g style="fill: #24292f" transform="translate(22.81375 69.986365) scale(0.1 -0.1)">
       <defs>
        <path id="DejaVuSans-37" d="M 525 4666 
L 3525 4666 
L 3525 4397 
L 1831 0 
L 1172 0 
L 2766 4134 
L 525 4134 
L 525 4666 
z
" transform="scale(0.015625)"/>
       </defs>
       <use xlink:href="#DejaVuSans-37"/>
       <use xlink:href="#DejaVuSans-30" transform="translate(63.623047 0)"/>
       <use xlink:href="#DejaVuSans-30" transform="translate(127.246094 0)"/>
      </g>
     </g>
    </g>
    <g id="text_17">
     <!-- Count -->
     <g style="fill: #24292f" transform="translate(16.318125 264.635937) rotate(-90) scale(0.12 -0.12)">
      <defs>
       <path id="DejaVuSans-43" d="M 4122 4306 
L 4122 3641 
Q 3803 3938 3442 4084 
Q 3081 4231 2675 4231 
Q 1875 4231 1450 3742 
Q 1025 3253 1025 2328 
Q 1025 1406 1450 917 
Q 1875 428 2675 428 
Q 3081 428 3442 575 
Q 3803 722 4122 1019 
L 4122 359 
Q 3791 134 3420 21 
Q 3050 -91 2638 -91 
Q 1578 -91 968 557 
Q 359 1206 359 2328 
Q 359 3453 968 4101 
Q 1578 4750 2638 4750 
Q 3056 4750 3426 4639 
Q 3797 4528 4122 4306 
z
" transform="scale(0.015625)"/>
       <path id="DejaVuSans-75" d="M 544 1381 
L 544 3500 
L 1119 3500 
L 1119 1403 
Q 1119 906 1312 657 
Q 1506 409 1894 409 
Q 2359 409 2629 706 
Q 2900 1003 2900 1516 
L 2900 3500 
L 3475 3500 
L 3475 0 
L 2900 0 
L 2900 538 
Q 2691 219 2414 64 
Q 2138 -91 1772 -91 
Q 1169 -91 856 284 
Q 544 659 544 1381 
z
M 1991 3584 
L 1991 3584 
z
" transform="scale(0.015625)"/>
       <path id="DejaVuSans-6e" d="M 3513 2113 
L 3513 0 
L 2938 0 
L 2938 2094 
Q 2938 2591 2744 2837 
Q 2550 3084 2163 3084 
Q 1697 3084 1428 2787 
Q 1159 2491 1159 1978 
L 1159 0 
L 581 0 
L 581 3500 
L 1159 3500 
L 1159 2956 
Q 1366 3272 1645 3428 
Q 1925 3584 2291 3584 
Q 2894 3584 3203 3211 
Q 3513 2838 3513 2113 
z
" transform="scale(0.015625)"/>
      </defs>
      <use xlink:href="#DejaVuSans-43"/>
      <use xlink:href="#DejaVuSans-6f" transform="translate(69.824219 0)"/>
      <use xlink:href="#DejaVuSans-75" transform="translate(131.005859 0)"/>
      <use xlink:href="#DejaVuSans-6e" transform="translate(194.384766 0)"/>
      <use xlink:href="#DejaVuSans-74" transform="translate(257.763672 0)"/>
     </g>
    </g>
   </g>
   <g id="line2d_31">
    <path d="M 85.239886 454.682026 
L 85.314127 454.682026 
L 85.361228 454.126239 
L 85.594176 454.126239 
L 85.699548 257.933546 
L 88.964551 257.933546 
L 88.978815 261.268266 
L 92.756053 261.268266 
L 92.938851 260.712479 
L 93.463243 260.712479 
L 93.888229 260.156692 
L 96.521628 259.600906 
L 96.573619 260.156692 
L 96.69985 259.600906 
L 104.854708 259.600906 
L 109.774394 260.712479 
L 110.50639 259.600906 
L 111.040875 259.600906 
L 112.387966 259.045119 
L 112.951564 256.821972 
L 114.048974 256.821972 
L 115.648168 260.712479 
L 115.751925 256.821972 
L 116.979066 256.266186 
L 120.172744 256.266186 
L 121.015135 255.710399 
L 122.266409 255.710399 
L 122.601814 254.598826 
L 130.401036 254.598826 
L 130.969883 253.487252 
L 130.999041 252.375679 
L 133.454981 252.375679 
L 137.076382 251.264106 
L 138.976081 251.264106 
L 139.004835 250.708319 
L 143.367562 250.708319 
L 144.44981 247.929386 
L 147.874867 247.929386 
L 147.898641 247.373599 
L 167.080671 247.373599 
L 170.666275 246.817812 
L 170.788693 247.373599 
L 174.507436 246.817812 
L 187.448347 246.817812 
L 193.720642 246.262026 
L 193.841804 245.706239 
L 194.139752 245.150452 
L 197.678165 245.150452 
L 199.184144 244.594666 
L 205.394624 244.594666 
L 205.630398 247.373599 
L 205.641972 245.150452 
L 205.943912 245.150452 
L 207.443252 242.927306 
L 214.784113 242.927306 
L 220.410181 242.371519 
L 226.663187 242.371519 
L 226.937584 241.815732 
L 243.185979 241.815732 
L 243.879441 241.259946 
L 247.824763 241.259946 
L 247.852575 240.148372 
L 255.369819 240.148372 
L 255.522292 236.257866 
L 269.128091 236.257866 
L 269.132173 235.702079 
L 269.526207 235.702079 
L 270.930089 235.146292 
L 272.983741 235.146292 
L 273.538009 234.590506 
L 273.593453 235.146292 
L 274.862671 234.590506 
L 274.868457 234.034719 
L 274.898109 234.590506 
L 275.631271 234.034719 
L 282.309891 234.034719 
L 284.386331 233.478932 
L 286.850211 233.478932 
L 291.035076 232.923146 
L 294.996815 232.923146 
L 298.057668 231.811572 
L 304.75616 231.811572 
L 308.652721 230.699999 
L 309.75058 231.255786 
L 315.189141 231.255786 
L 321.32408 229.032639 
L 330.473578 229.032639 
L 333.311172 228.476852 
L 383.880468 228.476852 
L 384.288857 227.921066 
L 402.730323 227.921066 
L 403.038454 227.365279 
L 434.418409 227.365279 
L 441.328183 226.809492 
L 441.368152 227.365279 
L 446.314529 225.697919 
L 453.573614 225.697919 
L 457.537327 225.142132 
L 457.543831 224.586346 
L 465.814154 224.586346 
L 468.782465 225.142132 
L 469.849506 224.586346 
L 483.690318 224.586346 
L 484.27935 225.142132 
L 485.358369 224.586346 
L 485.729167 222.363199 
L 492.071978 222.363199 
L 492.077451 221.807412 
L 511.486328 221.807412 
L 512.616575 221.251626 
L 516.346622 221.251626 
L 516.710512 220.695839 
L 534.899471 220.695839 
L 534.924188 220.140052 
L 539.473525 220.140052 
L 539.480299 219.584266 
L 540.584213 219.584266 
L 540.641856 219.028479 
L 542.356111 219.028479 
L 542.62544 218.472692 
L 546.29448 218.472692 
L 546.852202 217.361119 
L 548.872031 215.137972 
L 553.756324 215.137972 
L 554.116939 212.359039 
L 555.754756 212.359039 
L 556.558569 211.247466 
L 560.700594 211.247466 
L 562.059707 210.691679 
L 565.950167 210.691679 
L 566.471599 210.135892 
L 577.038436 210.135892 
L 577.298793 209.580106 
L 578.276118 209.580106 
L 579.793446 209.024319 
L 596.884591 209.024319 
L 597.03814 208.468532 
L 597.586128 208.468532 
L 598.730101 207.356959 
L 600.33396 207.356959 
L 600.719606 206.801172 
L 601.091167 206.801172 
L 601.232156 206.245386 
L 605.521315 206.245386 
L 606.251517 205.689599 
L 609.984883 205.689599 
L 610.224247 205.133812 
L 612.269241 205.133812 
L 612.400272 204.578026 
L 618.755644 204.578026 
L 618.892282 204.022239 
L 622.598824 204.022239 
L 623.632984 202.354879 
L 623.83682 201.799092 
L 625.20939 201.799092 
L 625.210826 201.243306 
L 630.784006 201.243306 
L 631.798742 200.687519 
L 636.073054 200.687519 
L 636.913562 200.131732 
L 637.229722 200.131732 
L 638.050985 199.575946 
L 640.148823 199.575946 
L 640.391281 199.020159 
L 645.652652 199.020159 
L 647.00885 198.464372 
L 647.107627 197.908586 
L 647.546699 197.908586 
L 648.932548 195.685439 
L 653.230455 195.685439 
L 653.261407 195.129652 
L 657.351755 195.129652 
L 657.589593 194.573866 
L 658.206527 194.573866 
L 658.674264 194.018079 
L 658.77183 194.573866 
L 659.122083 194.018079 
L 660.678213 194.018079 
L 660.693106 193.462292 
L 661.106339 193.462292 
L 661.287297 192.906506 
L 662.537674 192.350719 
L 671.23729 192.350719 
L 672.597031 191.794932 
L 673.507248 191.794932 
L 674.245703 191.239146 
L 674.992727 191.794932 
L 678.068517 191.794932 
L 678.201163 190.683359 
L 682.616688 190.683359 
L 684.329911 189.015999 
L 702.925734 189.015999 
L 704.006502 188.460212 
L 732.710174 188.460212 
L 732.759966 187.904426 
L 775.063561 187.904426 
L 775.249363 187.348639 
L 775.262686 186.792852 
L 775.275919 187.348639 
L 781.423149 187.348639 
L 782.811106 186.792852 
L 807.029094 186.792852 
L 812.012614 186.237066 
L 812.012614 186.237066 
" clip-path="url(#p68006cb47a)" style="fill: none; stroke: #1a7f37; stroke-width: 2; stroke-linecap: square"/>
   </g>
   <g id="line2d_32">
    <path d="M 85.239886 455.237812 
L 85.361228 453.570452 
L 85.493245 453.570452 
L 85.594176 372.981386 
L 87.424345 372.981386 
L 87.461981 370.758239 
L 89.348581 370.758239 
L 89.834665 369.090879 
L 90.496054 370.758239 
L 90.500943 369.090879 
L 91.048213 369.090879 
L 91.259719 367.979306 
L 96.664277 367.979306 
L 96.669436 367.423519 
L 96.69985 367.979306 
L 96.965859 367.423519 
L 97.043867 367.979306 
L 97.251919 367.423519 
L 99.148478 367.423519 
L 99.247705 366.867732 
L 99.517975 366.311946 
L 101.65928 366.311946 
L 104.096066 365.756159 
L 104.181835 365.200372 
L 104.840443 364.644586 
L 104.854708 364.088799 
L 109.774394 367.979306 
L 110.50639 366.311946 
L 111.040875 363.533012 
L 114.048974 363.533012 
L 115.648168 367.979306 
L 115.751925 363.533012 
L 144.974382 363.533012 
L 145.871097 362.977226 
L 147.898641 362.977226 
L 153.436204 362.421439 
L 154.785089 361.865652 
L 174.004576 361.865652 
L 174.507436 361.309866 
L 177.090998 360.754079 
L 178.733076 360.754079 
L 180.553242 360.198292 
L 180.602272 359.086719 
L 181.853456 358.530932 
L 182.694367 357.975146 
L 194.278992 357.975146 
L 196.588291 357.419359 
L 197.286418 357.419359 
L 197.678165 356.863572 
L 199.184144 356.863572 
L 200.680298 356.307786 
L 205.394624 356.307786 
L 205.630398 358.530932 
L 205.641972 356.307786 
L 207.443252 356.307786 
L 207.624075 355.751999 
L 210.173724 355.751999 
L 212.682238 355.196212 
L 212.743111 354.640426 
L 220.410181 354.640426 
L 223.644052 354.084639 
L 223.652216 353.528852 
L 234.413514 353.528852 
L 238.902471 352.973066 
L 242.270334 352.973066 
L 243.185979 352.417279 
L 248.326771 352.417279 
L 251.258881 351.861492 
L 251.419608 351.305706 
L 254.278285 351.305706 
L 254.610056 350.749919 
L 255.522292 350.194132 
L 257.558718 350.194132 
L 258.844443 349.638346 
L 261.201786 349.638346 
L 262.740331 349.082559 
L 266.022514 349.082559 
L 267.140694 347.970986 
L 275.631271 347.970986 
L 278.049306 347.415199 
L 280.884702 347.415199 
L 281.52411 346.859412 
L 281.719647 346.303626 
L 282.309891 345.747839 
L 292.073901 345.747839 
L 293.861589 345.192052 
L 294.996815 344.636266 
L 322.761919 344.636266 
L 328.994514 344.080479 
L 329.068979 343.524692 
L 333.311172 343.524692 
L 336.937058 342.968906 
L 343.345767 342.968906 
L 343.887295 342.413119 
L 354.801603 342.413119 
L 363.345381 341.857332 
L 363.427382 341.301546 
L 364.544351 341.301546 
L 366.807401 340.745759 
L 366.933632 339.078399 
L 367.033217 338.522612 
L 371.760327 337.966826 
L 372.043382 337.411039 
L 372.1562 336.299466 
L 372.584327 335.743679 
L 387.966824 335.743679 
L 392.336728 335.187892 
L 395.118474 334.632106 
L 397.297684 334.632106 
L 402.350374 334.076319 
L 402.730323 331.853172 
L 403.038454 331.853172 
L 403.334069 331.297386 
L 403.764932 330.741599 
L 413.348837 330.185812 
L 413.653873 329.630026 
L 413.743858 329.074239 
L 415.768622 329.074239 
L 417.680612 328.518452 
L 417.900372 327.962666 
L 418.049615 326.851092 
L 419.315199 326.295306 
L 419.4081 325.739519 
L 421.71722 325.183732 
L 424.752504 324.627946 
L 424.968361 324.072159 
L 424.972937 323.516372 
L 425.583456 322.960586 
L 425.691295 322.404799 
L 429.353607 321.849012 
L 430.09426 321.849012 
L 430.883585 321.293226 
L 449.419298 321.293226 
L 452.493159 320.737439 
L 452.772895 320.181652 
L 465.335517 320.181652 
L 465.814154 319.070079 
L 471.048341 319.070079 
L 472.628605 318.514292 
L 472.705806 317.402719 
L 473.111593 316.846932 
L 475.798553 316.291146 
L 475.859067 315.735359 
L 476.183391 315.179572 
L 476.242111 313.512212 
L 476.515745 312.956426 
L 476.88596 312.956426 
L 476.899597 312.400639 
L 479.14273 311.844852 
L 480.024597 311.289066 
L 480.237987 310.733279 
L 484.27935 310.177492 
L 487.257664 310.177492 
L 488.291869 309.621706 
L 499.489592 309.621706 
L 503.199318 309.065919 
L 503.214077 308.510132 
L 503.881252 307.954346 
L 512.616575 307.954346 
L 515.067536 307.398559 
L 516.077204 306.842772 
L 516.346622 305.731199 
L 523.412593 305.731199 
L 523.894011 305.175412 
L 527.774153 305.175412 
L 529.631775 304.619626 
L 534.924188 304.619626 
L 538.123698 304.063839 
L 544.768046 304.063839 
L 545.584689 303.508052 
L 548.872031 303.508052 
L 549.766817 302.952266 
L 550.154975 302.396479 
L 550.34616 301.840692 
L 553.05214 301.840692 
L 553.129072 300.729119 
L 554.116939 300.729119 
L 554.765543 299.061759 
L 557.119386 299.061759 
L 557.411727 298.505972 
L 557.638665 298.505972 
L 558.765323 297.950186 
L 560.634967 297.950186 
L 560.700594 297.394399 
L 562.059707 297.394399 
L 562.389819 296.838612 
L 563.667245 296.838612 
L 565.623106 295.727039 
L 566.471599 295.727039 
L 569.753199 294.615466 
L 569.758133 294.059679 
L 570.384667 293.503892 
L 571.983233 292.948106 
L 572.231792 292.392319 
L 573.825604 291.836532 
L 576.430966 291.836532 
L 576.815222 291.280746 
L 577.038436 290.724959 
L 580.476277 290.724959 
L 580.566487 290.169172 
L 581.471725 290.169172 
L 581.54121 289.613386 
L 582.03797 289.057599 
L 583.766445 289.057599 
L 583.897924 288.501812 
L 584.194033 288.501812 
L 584.2676 287.946026 
L 584.386968 287.946026 
L 584.391005 287.390239 
L 586.821601 287.390239 
L 587.302929 286.834452 
L 587.707101 286.834452 
L 587.948662 286.278666 
L 588.565552 286.278666 
L 589.027412 285.722879 
L 589.124799 285.167092 
L 589.256817 285.167092 
L 591.578541 284.611306 
L 593.315943 284.611306 
L 593.447468 284.055519 
L 600.301079 284.055519 
L 600.33396 283.499732 
L 600.719606 283.499732 
L 601.091167 282.943946 
L 601.232156 282.943946 
L 601.48695 282.388159 
L 603.941814 282.388159 
L 604.15646 280.720799 
L 604.219082 279.609226 
L 604.623658 279.053439 
L 606.251517 279.053439 
L 607.019264 278.497652 
L 607.763417 278.497652 
L 608.003363 277.941866 
L 609.156891 277.386079 
L 610.224247 277.386079 
L 612.370038 276.830292 
L 612.400272 276.274506 
L 613.056009 276.274506 
L 613.1647 275.718719 
L 615.072204 275.718719 
L 615.125182 275.162932 
L 624.37588 275.162932 
L 624.445545 274.607146 
L 624.794003 274.607146 
L 624.916018 273.495572 
L 626.107182 273.495572 
L 626.203268 272.939786 
L 626.360675 272.939786 
L 627.185707 272.383999 
L 627.393086 271.828212 
L 627.772003 271.828212 
L 628.092649 271.272426 
L 628.197169 270.716639 
L 632.845418 270.716639 
L 634.018684 270.160852 
L 634.250421 269.049279 
L 634.535988 268.493492 
L 635.012696 268.493492 
L 635.303243 267.937706 
L 641.974013 267.937706 
L 642.23908 266.270346 
L 643.325859 266.270346 
L 643.459671 265.714559 
L 647.021365 265.714559 
L 647.107627 264.602986 
L 651.385393 264.602986 
L 651.429713 264.047199 
L 653.490408 264.047199 
L 653.504269 263.491412 
L 654.507746 263.491412 
L 654.534885 262.935626 
L 657.589593 262.935626 
L 657.741527 262.379839 
L 657.93509 262.379839 
L 658.206527 261.824052 
L 658.75752 261.824052 
L 658.77183 261.268266 
L 659.122083 261.268266 
L 659.790245 260.712479 
L 665.187043 260.712479 
L 665.579283 260.156692 
L 667.180585 260.156692 
L 667.183546 259.600906 
L 679.426509 259.600906 
L 681.504474 259.045119 
L 681.564719 258.489332 
L 682.616688 257.933546 
L 684.216286 257.933546 
L 684.329911 256.821972 
L 684.619247 256.821972 
L 684.713808 256.266186 
L 688.98794 256.266186 
L 689.755104 255.710399 
L 697.103457 255.710399 
L 697.126065 255.154612 
L 699.526113 255.154612 
L 700.551795 254.598826 
L 711.848161 254.598826 
L 711.98915 253.487252 
L 716.431814 253.487252 
L 717.315475 252.931466 
L 718.261759 252.931466 
L 719.418561 252.375679 
L 727.065041 252.375679 
L 727.797261 251.819892 
L 728.431735 251.819892 
L 728.742827 251.264106 
L 731.178716 250.708319 
L 732.371136 250.708319 
L 732.759966 250.152532 
L 732.886511 250.152532 
L 736.308697 249.596746 
L 742.609611 249.596746 
L 743.102692 249.040959 
L 767.422508 249.040959 
L 768.311104 248.485172 
L 773.935108 248.485172 
L 774.138361 247.929386 
L 774.503686 247.929386 
L 774.613813 247.373599 
L 806.02149 247.373599 
L 807.029094 246.817812 
L 812.012614 246.817812 
L 812.012614 246.817812 
" clip-path="url(#p68006cb47a)" style="fill: none; stroke: #0969da; stroke-width: 2; stroke-linecap: square"/>
   </g>
   <g id="line2d_33">
    <path d="M 85.239886 455.237812 
L 88.964551 455.237812 
L 88.978815 454.126239 
L 92.053754 454.126239 
L 92.756053 453.570452 
L 282.309891 453.570452 
L 284.386331 453.014666 
L 336.937058 453.014666 
L 338.395442 452.458879 
L 387.966824 452.458879 
L 392.336728 451.903092 
L 403.764932 451.903092 
L 413.743858 450.235732 
L 415.768622 449.124159 
L 419.4081 449.124159 
L 421.71722 448.568372 
L 424.972937 448.012586 
L 425.691295 448.012586 
L 429.353607 447.456799 
L 430.09426 447.456799 
L 430.883585 446.901012 
L 434.418409 446.345226 
L 441.328183 445.789439 
L 441.368152 446.345226 
L 452.772895 446.345226 
L 453.573614 445.789439 
L 469.849506 445.789439 
L 471.048341 445.233652 
L 476.515745 445.233652 
L 476.899597 444.677866 
L 483.690318 444.677866 
L 484.27935 444.122079 
L 509.156126 444.122079 
L 511.486328 443.566292 
L 512.465672 443.566292 
L 512.616575 443.010506 
L 519.255989 443.010506 
L 519.262314 442.454719 
L 534.899471 442.454719 
L 534.924188 441.898932 
L 539.480299 441.898932 
L 540.641856 441.343146 
L 542.353106 440.787359 
L 542.356111 440.231572 
L 542.62544 440.231572 
L 544.768046 438.564212 
L 546.211403 438.564212 
L 546.29448 436.896852 
L 546.852202 436.896852 
L 548.872031 437.452639 
L 550.324628 437.452639 
L 550.34616 435.229492 
L 555.754756 435.229492 
L 556.558569 434.673706 
L 557.411727 434.673706 
L 557.638665 434.117919 
L 577.038436 434.117919 
L 577.298793 433.562132 
L 578.276118 433.562132 
L 579.793446 433.006346 
L 586.487676 433.006346 
L 586.821601 432.450559 
L 589.124799 432.450559 
L 589.256817 431.894772 
L 596.884591 431.894772 
L 597.03814 431.338986 
L 597.586128 431.338986 
L 598.141921 430.783199 
L 598.697175 430.783199 
L 598.730101 430.227412 
L 601.091167 430.227412 
L 601.232156 429.671626 
L 612.193207 429.671626 
L 612.269241 429.115839 
L 612.400272 429.115839 
L 612.512776 428.560052 
L 613.1647 428.560052 
L 614.531349 428.004266 
L 619.874362 428.004266 
L 619.879072 427.448479 
L 620.9 427.448479 
L 620.938847 426.892692 
L 623.83682 426.892692 
L 624.445545 426.336906 
L 628.30752 426.336906 
L 629.427629 425.781119 
L 631.605987 425.781119 
L 631.629089 424.669546 
L 631.80574 424.669546 
L 632.028057 424.113759 
L 635.532333 424.113759 
L 636.073054 423.557972 
L 636.913562 423.557972 
L 637.229722 423.002186 
L 639.281266 423.002186 
L 639.56773 422.446399 
L 639.571409 421.890612 
L 640.148823 421.890612 
L 640.391281 421.334826 
L 662.490752 421.334826 
L 662.537674 420.223252 
L 665.579283 420.223252 
L 666.45469 419.667466 
L 667.183546 419.667466 
L 670.602681 419.111679 
L 671.23729 419.111679 
L 672.597031 418.555892 
L 673.507248 418.555892 
L 674.245703 418.000106 
L 674.992727 418.555892 
L 677.397529 418.555892 
L 678.051471 418.000106 
L 678.15294 417.444319 
L 678.201163 416.888532 
L 679.4183 416.332746 
L 679.426509 415.221172 
L 684.739691 415.221172 
L 685.901652 414.665386 
L 686.019405 412.998026 
L 687.180783 412.442239 
L 687.823063 411.886452 
L 693.316305 411.886452 
L 693.549388 410.219092 
L 693.829573 410.219092 
L 694.037311 409.663306 
L 695.379826 409.107519 
L 697.49305 409.107519 
L 697.928399 408.551732 
L 698.027446 407.995946 
L 698.249583 407.995946 
L 699.526113 406.884372 
L 700.893794 406.884372 
L 701.342869 406.328586 
L 702.920531 406.328586 
L 702.925734 405.217012 
L 704.006502 405.217012 
L 705.441291 404.661226 
L 709.242528 403.549652 
L 709.581881 402.993866 
L 717.315475 402.993866 
L 718.261759 401.882292 
L 732.710174 401.882292 
L 732.886511 400.770719 
L 739.919152 400.770719 
L 740.993685 400.214932 
L 744.254471 400.214932 
L 744.437492 399.659146 
L 764.498204 399.659146 
L 764.818401 399.103359 
L 766.805439 399.103359 
L 767.422508 398.547572 
L 771.130934 398.547572 
L 771.828389 397.991786 
L 771.832964 397.435999 
L 772.630633 396.880212 
L 775.063561 396.880212 
L 775.249363 396.324426 
L 775.262686 395.212852 
L 775.275919 395.768639 
L 776.91082 395.212852 
L 782.811106 395.212852 
L 783.974952 394.101279 
L 794.620919 394.101279 
L 795.444021 393.545492 
L 798.026641 393.545492 
L 798.233393 392.989706 
L 798.261833 392.433919 
L 807.029094 392.433919 
L 812.012614 391.322346 
L 812.012614 391.322346 
" clip-path="url(#p68006cb47a)" style="fill: none; stroke: #bf8700; stroke-width: 2; stroke-linecap: square"/>
   </g>
   <g id="line2d_34">
    <path d="M 85.239886 454.682026 
L 85.558469 454.682026 
L 85.699548 432.450559 
L 86.436837 426.892692 
L 86.858145 425.781119 
L 87.071894 426.336906 
L 87.461981 425.781119 
L 88.12171 425.225332 
L 88.579443 424.113759 
L 88.964551 423.557972 
L 88.978815 423.002186 
L 89.348581 421.334826 
L 89.834665 421.334826 
L 90.496054 420.779039 
L 90.500943 420.223252 
L 91.033455 419.667466 
L 91.048213 419.111679 
L 91.259719 419.111679 
L 92.053754 418.555892 
L 92.621075 418.000106 
L 92.756053 411.886452 
L 92.849403 412.442239 
L 93.077642 408.551732 
L 93.463243 402.993866 
L 96.669436 402.993866 
L 96.69985 402.438079 
L 96.965859 399.659146 
L 97.043867 402.438079 
L 97.40529 397.991786 
L 97.584274 397.435999 
L 98.917773 396.880212 
L 98.958011 396.324426 
L 99.247705 395.768639 
L 99.517975 395.768639 
L 100.204709 395.212852 
L 100.571559 394.657066 
L 100.721206 394.101279 
L 100.838779 392.989706 
L 101.181496 392.433919 
L 101.189974 391.878132 
L 101.534664 392.433919 
L 101.632769 391.878132 
L 101.644836 392.433919 
L 101.65928 390.766559 
L 104.854708 390.766559 
L 109.774394 402.993866 
L 110.50639 390.210772 
L 110.887908 389.654986 
L 112.951564 389.654986 
L 113.301054 389.099199 
L 114.048974 388.543412 
L 115.648168 402.993866 
L 115.751925 387.987626 
L 116.979066 387.431839 
L 119.603314 386.876052 
L 119.790462 387.431839 
L 120.133583 386.320266 
L 120.172744 385.764479 
L 121.015135 385.764479 
L 121.271096 385.208692 
L 121.754533 384.652906 
L 121.794636 383.541332 
L 122.240571 382.429759 
L 122.266409 382.985546 
L 122.531656 382.985546 
L 122.677086 381.873972 
L 123.124771 379.650826 
L 123.183625 378.539252 
L 123.757989 376.871892 
L 124.038711 377.983466 
L 126.023596 374.648746 
L 126.546238 375.760319 
L 128.697098 373.537172 
L 130.401036 377.427679 
L 130.999041 373.537172 
L 133.454981 371.869812 
L 137.076382 371.869812 
L 137.55466 371.314026 
L 137.935281 369.646666 
L 139.004835 371.314026 
L 143.367562 371.869812 
L 144.44981 369.646666 
L 144.974382 367.979306 
L 145.871097 369.646666 
L 147.898641 367.979306 
L 154.785089 367.979306 
L 162.026231 367.423519 
L 162.509129 366.867732 
L 167.080671 366.311946 
L 170.103574 366.311946 
L 170.666275 365.756159 
L 170.788693 366.311946 
L 174.004576 364.644586 
L 177.020974 364.644586 
L 177.090998 364.088799 
L 178.733076 363.533012 
L 182.694367 363.533012 
L 184.441773 359.642506 
L 185.742346 359.086719 
L 187.41587 358.530932 
L 187.448347 357.975146 
L 193.720642 357.975146 
L 193.841804 354.084639 
L 194.073945 354.084639 
L 194.278992 352.973066 
L 196.588291 352.973066 
L 197.286418 352.417279 
L 200.680298 352.417279 
L 205.394624 351.861492 
L 205.630398 363.533012 
L 205.641972 352.417279 
L 205.943912 351.861492 
L 207.624075 351.861492 
L 210.173724 351.305706 
L 212.743111 351.305706 
L 214.784113 350.749919 
L 220.410181 349.638346 
L 223.652216 349.638346 
L 226.257759 349.082559 
L 226.663187 346.303626 
L 226.937584 346.303626 
L 227.423129 345.747839 
L 229.955777 345.192052 
L 230.541221 342.968906 
L 234.04155 341.857332 
L 234.083716 342.413119 
L 234.413514 341.857332 
L 238.902471 340.745759 
L 242.270334 340.189972 
L 243.879441 340.189972 
L 245.305662 339.634186 
L 246.54164 338.522612 
L 247.852575 337.966826 
L 248.326771 337.411039 
L 251.419608 337.966826 
L 254.278285 336.855252 
L 254.610056 337.411039 
L 255.369819 337.411039 
L 255.522292 336.855252 
L 257.558718 336.299466 
L 258.844443 336.855252 
L 261.201786 335.743679 
L 262.740331 335.743679 
L 266.022514 335.187892 
L 266.566779 335.743679 
L 267.140694 334.076319 
L 269.132173 334.076319 
L 269.526207 333.520532 
L 270.930089 331.853172 
L 271.241046 331.297386 
L 271.725559 330.185812 
L 272.983741 330.741599 
L 273.538009 329.630026 
L 273.593453 329.074239 
L 278.049306 329.074239 
L 280.306076 328.518452 
L 280.884702 327.962666 
L 284.386331 327.962666 
L 286.850211 327.406879 
L 291.035076 327.406879 
L 292.073901 326.851092 
L 303.581549 326.851092 
L 304.242444 326.295306 
L 304.308655 325.739519 
L 304.75616 325.183732 
L 309.75058 325.183732 
L 310.061851 324.627946 
L 311.332549 324.072159 
L 311.552623 323.516372 
L 313.657907 322.960586 
L 315.189141 322.404799 
L 321.32408 322.404799 
L 322.761919 321.293226 
L 329.068979 321.293226 
L 330.473578 320.737439 
L 336.351524 320.737439 
L 336.937058 320.181652 
L 338.395442 319.625866 
L 338.82958 319.070079 
L 338.976984 318.514292 
L 343.345767 317.958506 
L 343.887295 318.514292 
L 349.638517 317.402719 
L 354.185745 316.291146 
L 354.801603 315.735359 
L 363.427382 315.735359 
L 364.544351 315.179572 
L 372.584327 315.179572 
L 380.157823 314.623786 
L 381.110431 314.067999 
L 384.288857 313.512212 
L 387.476255 312.956426 
L 387.966824 312.400639 
L 395.118474 312.400639 
L 397.297684 311.844852 
L 413.743858 311.844852 
L 415.768622 311.289066 
L 429.353607 311.289066 
L 430.09426 310.733279 
L 430.883585 311.289066 
L 434.418409 310.733279 
L 446.314529 310.733279 
L 447.908699 310.177492 
L 473.07445 310.177492 
L 473.111593 309.621706 
L 488.653965 309.621706 
L 492.068704 309.065919 
L 492.077451 308.510132 
L 509.148545 308.510132 
L 509.156126 307.398559 
L 519.262314 307.398559 
L 523.894011 306.842772 
L 529.631775 306.842772 
L 534.924188 305.731199 
L 545.584689 305.731199 
L 546.211403 305.175412 
L 546.29448 304.619626 
L 550.324628 304.619626 
L 550.34616 304.063839 
L 550.764642 304.063839 
L 551.431728 303.508052 
L 557.411727 303.508052 
L 557.638665 302.952266 
L 565.623106 302.952266 
L 565.950167 302.396479 
L 585.449479 302.396479 
L 586.486196 300.729119 
L 586.487676 300.173332 
L 589.250222 300.173332 
L 589.256817 299.617546 
L 597.405349 299.617546 
L 597.586128 299.061759 
L 601.48695 299.061759 
L 601.627087 298.505972 
L 616.118432 298.505972 
L 616.397091 297.950186 
L 619.760736 297.950186 
L 619.879072 297.394399 
L 620.938847 296.838612 
L 647.546699 296.838612 
L 648.932548 295.727039 
L 651.006969 295.727039 
L 651.429713 295.171252 
L 653.504269 295.171252 
L 653.811727 294.615466 
L 658.713245 294.615466 
L 658.77183 294.059679 
L 685.899364 294.059679 
L 685.901652 293.503892 
L 686.016758 293.503892 
L 686.019405 292.948106 
L 719.927746 292.948106 
L 720.808402 292.392319 
L 778.703084 292.392319 
L 781.255066 291.836532 
L 805.889876 291.836532 
L 806.02149 291.280746 
L 812.012614 291.280746 
L 812.012614 291.280746 
" clip-path="url(#p68006cb47a)" style="fill: none; stroke: #cf222e; stroke-width: 2; stroke-linecap: square"/>
   </g>
   <g id="line2d_35">
    <path d="M 85.239886 454.682026 
L 85.265231 454.126239 
L 85.465056 -1 
M 85.644657 -1 
L 85.699548 101.201706 
L 88.964551 101.201706 
L 88.978815 97.866986 
L 92.756053 97.866986 
L 92.938851 98.422772 
L 93.463243 98.422772 
L 93.888229 98.978559 
L 96.521628 99.534346 
L 96.573619 98.978559 
L 96.69985 99.534346 
L 104.854708 99.534346 
L 109.774394 98.422772 
L 110.50639 99.534346 
L 110.887908 98.978559 
L 111.040875 98.978559 
L 112.387966 99.534346 
L 112.951564 96.755412 
L 114.048974 96.755412 
L 115.648168 98.422772 
L 115.751925 95.643839 
L 116.979066 96.199626 
L 120.172744 96.199626 
L 121.015135 95.088052 
L 122.266409 95.088052 
L 122.601814 91.197546 
L 130.401036 91.197546 
L 130.969883 87.862826 
L 130.999041 86.751252 
L 133.454981 86.751252 
L 137.076382 82.860746 
L 138.976081 82.860746 
L 139.004835 83.416532 
L 143.367562 83.416532 
L 144.44981 80.081812 
L 147.874867 80.081812 
L 147.898641 80.637599 
L 167.080671 80.637599 
L 170.666275 81.193386 
L 170.788693 80.637599 
L 174.507436 81.193386 
L 187.448347 81.193386 
L 193.720642 81.749172 
L 193.841804 74.523946 
L 194.139752 75.079732 
L 197.678165 75.079732 
L 199.184144 75.635519 
L 205.394624 75.635519 
L 205.630398 80.637599 
L 205.641972 71.745012 
L 205.943912 71.745012 
L 207.443252 73.968159 
L 214.784113 73.968159 
L 220.410181 70.077652 
L 226.663187 70.077652 
L 226.937584 68.410292 
L 243.185979 68.410292 
L 243.879441 68.966079 
L 247.824763 68.966079 
L 247.852575 70.077652 
L 255.369819 70.077652 
L 255.522292 73.412372 
L 267.140694 73.412372 
L 267.418187 68.410292 
L 269.128091 67.298719 
L 269.132173 67.854506 
L 269.526207 67.854506 
L 270.930089 65.075572 
L 272.983741 65.075572 
L 273.538009 65.631359 
L 273.593453 65.075572 
L 274.862671 65.631359 
L 274.868457 66.187146 
L 274.898109 65.631359 
L 275.631271 63.408212 
L 282.309891 63.408212 
L 284.386331 63.963999 
L 286.850211 63.963999 
L 291.035076 64.519786 
L 294.996815 64.519786 
L 298.057668 65.631359 
L 304.308655 65.075572 
L 304.75616 65.075572 
L 308.652721 66.187146 
L 309.75058 65.631359 
L 315.189141 65.631359 
L 321.32076 67.854506 
L 321.32408 67.298719 
L 330.473578 67.298719 
L 333.311172 67.854506 
L 383.880468 67.854506 
L 384.288857 68.410292 
L 387.453512 68.410292 
L 387.476255 66.742932 
L 402.730323 66.742932 
L 403.038454 67.298719 
L 434.418409 67.298719 
L 441.328183 67.854506 
L 441.368152 67.298719 
L 446.314529 68.966079 
L 447.908699 68.966079 
L 449.419298 68.410292 
L 453.573614 68.410292 
L 457.537327 68.966079 
L 457.543831 69.521866 
L 468.782465 67.854506 
L 469.849506 68.410292 
L 483.690318 68.410292 
L 484.27935 67.854506 
L 485.358369 68.410292 
L 485.729167 70.633439 
L 492.071978 70.633439 
L 492.077451 71.189226 
L 511.486328 71.189226 
L 512.616575 71.745012 
L 516.346622 71.745012 
L 516.710512 72.300799 
L 534.899471 72.300799 
L 534.924188 72.856586 
L 538.123698 72.856586 
L 539.473525 73.412372 
L 539.480299 73.968159 
L 540.584213 73.412372 
L 540.641856 73.968159 
L 542.356111 73.968159 
L 542.62544 74.523946 
L 546.211403 74.523946 
L 546.29448 73.412372 
L 546.852202 74.523946 
L 548.872031 72.856586 
L 553.756324 72.856586 
L 554.116939 71.189226 
L 555.754756 71.189226 
L 556.558569 72.300799 
L 560.700594 72.300799 
L 562.059707 72.856586 
L 562.389819 72.856586 
L 563.667245 70.077652 
L 565.950167 70.077652 
L 566.471599 70.633439 
L 577.038436 70.633439 
L 577.298793 71.189226 
L 578.276118 71.189226 
L 579.793446 71.745012 
L 596.884591 71.745012 
L 597.03814 72.300799 
L 597.586128 72.300799 
L 598.730101 73.412372 
L 600.33396 73.412372 
L 600.719606 72.856586 
L 601.091167 72.856586 
L 601.232156 73.412372 
L 605.521315 73.412372 
L 606.251517 73.968159 
L 609.984883 73.968159 
L 610.224247 74.523946 
L 612.269241 74.523946 
L 612.400272 75.079732 
L 618.755644 75.079732 
L 618.892282 75.635519 
L 622.598824 75.635519 
L 623.632984 77.302879 
L 623.83682 77.858666 
L 625.20939 77.858666 
L 625.210826 78.414452 
L 630.784006 78.414452 
L 631.798742 78.970239 
L 636.073054 78.970239 
L 636.913562 79.526026 
L 640.148823 79.526026 
L 640.391281 80.081812 
L 645.652652 80.081812 
L 647.00885 80.637599 
L 647.107627 81.193386 
L 647.546699 81.193386 
L 648.932548 60.629279 
L 653.230455 60.629279 
L 653.261407 61.185066 
L 653.504269 61.185066 
L 653.811727 60.629279 
L 657.351755 60.629279 
L 657.589593 61.185066 
L 658.206527 61.185066 
L 658.674264 61.740852 
L 658.77183 61.185066 
L 660.678213 61.185066 
L 660.693106 61.740852 
L 661.106339 61.740852 
L 661.287297 62.296639 
L 662.537674 62.852426 
L 671.23729 62.852426 
L 672.597031 63.408212 
L 673.507248 63.408212 
L 674.245703 63.963999 
L 674.992727 63.408212 
L 678.068517 63.408212 
L 678.201163 64.519786 
L 682.616688 64.519786 
L 684.329911 66.187146 
L 702.925734 66.187146 
L 704.006502 66.742932 
L 732.710174 66.742932 
L 732.759966 67.298719 
L 775.063561 67.298719 
L 775.249363 67.854506 
L 775.262686 68.410292 
L 775.275919 67.854506 
L 781.423149 67.854506 
L 782.811106 68.410292 
L 807.029094 68.410292 
L 812.012614 68.966079 
L 812.012614 68.966079 
" clip-path="url(#p68006cb47a)" style="fill: none; stroke: #9467bd; stroke-width: 2; stroke-linecap: square"/>
   </g>
   <g id="patch_3">
    <path d="M 48.90125 455.237812 
L 48.90125 38.397812 
" style="fill: none; stroke: #d0d7de; stroke-width: 0.8; stroke-linejoin: miter; stroke-linecap: square"/>
   </g>
   <g id="patch_4">
    <path d="M 848.35125 455.237812 
L 848.35125 38.397812 
" style="fill: none; stroke: #d0d7de; stroke-width: 0.8; stroke-linejoin: miter; stroke-linecap: square"/>
   </g>
   <g id="patch_5">
    <path d="M 48.90125 455.237812 
L 848.35125 455.237812 
" style="fill: none; stroke: #d0d7de; stroke-width: 0.8; stroke-linejoin: miter; stroke-linecap: square"/>
   </g>
   <g id="patch_6">
    <path d="M 48.90125 38.397812 
L 848.35125 38.397812 
" style="fill: none; stroke: #d0d7de; stroke-width: 0.8; stroke-linejoin: miter; stroke-linecap: square"/>
   </g>
   <g id="text_18">
    <!-- 484 -->
    <g style="fill: #1a7f37" transform="translate(817.012614 188.720503) scale(0.09 -0.09)">
     <defs>
      <path id="DejaVuSans-Bold-34" d="M 2356 3675 
L 1038 1722 
L 2356 1722 
L 2356 3675 
z
M 2156 4666 
L 3494 4666 
L 3494 1722 
L 4159 1722 
L 4159 850 
L 3494 850 
L 3494 0 
L 2356 0 
L 2356 850 
L 288 850 
L 288 1881 
L 2156 4666 
z
" transform="scale(0.015625)"/>
      <path id="DejaVuSans-Bold-38" d="M 2228 2088 
Q 1891 2088 1709 1903 
Q 1528 1719 1528 1375 
Q 1528 1031 1709 848 
Q 1891 666 2228 666 
Q 2563 666 2741 848 
Q 2919 1031 2919 1375 
Q 2919 1722 2741 1905 
Q 2563 2088 2228 2088 
z
M 1350 2484 
Q 925 2613 709 2878 
Q 494 3144 494 3541 
Q 494 4131 934 4440 
Q 1375 4750 2228 4750 
Q 3075 4750 3515 4442 
Q 3956 4134 3956 3541 
Q 3956 3144 3739 2878 
Q 3522 2613 3097 2484 
Q 3572 2353 3814 2058 
Q 4056 1763 4056 1313 
Q 4056 619 3595 264 
Q 3134 -91 2228 -91 
Q 1319 -91 855 264 
Q 391 619 391 1313 
Q 391 1763 633 2058 
Q 875 2353 1350 2484 
z
M 1631 3419 
Q 1631 3141 1786 2991 
Q 1941 2841 2228 2841 
Q 2509 2841 2662 2991 
Q 2816 3141 2816 3419 
Q 2816 3697 2662 3845 
Q 2509 3994 2228 3994 
Q 1941 3994 1786 3844 
Q 1631 3694 1631 3419 
z
" transform="scale(0.015625)"/>
     </defs>
     <use xlink:href="#DejaVuSans-Bold-34"/>
     <use xlink:href="#DejaVuSans-Bold-38" transform="translate(69.580078 0)"/>
     <use xlink:href="#DejaVuSans-Bold-34" transform="translate(139.160156 0)"/>
    </g>
   </g>
   <g id="text_19">
    <!-- 375 -->
    <g style="fill: #0969da" transform="translate(817.012614 249.30125) scale(0.09 -0.09)">
     <defs>
      <path id="DejaVuSans-Bold-33" d="M 2981 2516 
Q 3453 2394 3698 2092 
Q 3944 1791 3944 1325 
Q 3944 631 3412 270 
Q 2881 -91 1863 -91 
Q 1503 -91 1142 -33 
Q 781 25 428 141 
L 428 1069 
Q 766 900 1098 814 
Q 1431 728 1753 728 
Q 2231 728 2486 893 
Q 2741 1059 2741 1369 
Q 2741 1688 2480 1852 
Q 2219 2016 1709 2016 
L 1228 2016 
L 1228 2791 
L 1734 2791 
Q 2188 2791 2409 2933 
Q 2631 3075 2631 3366 
Q 2631 3634 2415 3781 
Q 2200 3928 1806 3928 
Q 1516 3928 1219 3862 
Q 922 3797 628 3669 
L 628 4550 
Q 984 4650 1334 4700 
Q 1684 4750 2022 4750 
Q 2931 4750 3382 4451 
Q 3834 4153 3834 3553 
Q 3834 3144 3618 2883 
Q 3403 2622 2981 2516 
z
" transform="scale(0.015625)"/>
      <path id="DejaVuSans-Bold-37" d="M 428 4666 
L 3944 4666 
L 3944 3988 
L 2125 0 
L 953 0 
L 2675 3781 
L 428 3781 
L 428 4666 
z
" transform="scale(0.015625)"/>
      <path id="DejaVuSans-Bold-35" d="M 678 4666 
L 3669 4666 
L 3669 3781 
L 1638 3781 
L 1638 3059 
Q 1775 3097 1914 3117 
Q 2053 3138 2203 3138 
Q 3056 3138 3531 2711 
Q 4006 2284 4006 1522 
Q 4006 766 3489 337 
Q 2972 -91 2053 -91 
Q 1656 -91 1267 -14 
Q 878 63 494 219 
L 494 1166 
Q 875 947 1217 837 
Q 1559 728 1863 728 
Q 2300 728 2551 942 
Q 2803 1156 2803 1522 
Q 2803 1891 2551 2103 
Q 2300 2316 1863 2316 
Q 1603 2316 1309 2248 
Q 1016 2181 678 2041 
L 678 4666 
z
" transform="scale(0.015625)"/>
     </defs>
     <use xlink:href="#DejaVuSans-Bold-33"/>
     <use xlink:href="#DejaVuSans-Bold-37" transform="translate(69.580078 0)"/>
     <use xlink:href="#DejaVuSans-Bold-35" transform="translate(139.160156 0)"/>
    </g>
   </g>
   <g id="text_20">
    <!-- 115 -->
    <g style="fill: #bf8700" transform="translate(817.012614 393.805783) scale(0.09 -0.09)">
     <defs>
      <path id="DejaVuSans-Bold-31" d="M 750 831 
L 1813 831 
L 1813 3847 
L 722 3622 
L 722 4441 
L 1806 4666 
L 2950 4666 
L 2950 831 
L 4013 831 
L 4013 0 
L 750 0 
L 750 831 
z
" transform="scale(0.015625)"/>
     </defs>
     <use xlink:href="#DejaVuSans-Bold-31"/>
     <use xlink:href="#DejaVuSans-Bold-31" transform="translate(69.580078 0)"/>
     <use xlink:href="#DejaVuSans-Bold-35" transform="translate(139.160156 0)"/>
    </g>
   </g>
   <g id="text_21">
    <!-- 295 -->
    <g style="fill: #cf222e" transform="translate(817.012614 293.764183) scale(0.09 -0.09)">
     <defs>
      <path id="DejaVuSans-Bold-32" d="M 1844 884 
L 3897 884 
L 3897 0 
L 506 0 
L 506 884 
L 2209 2388 
Q 2438 2594 2547 2791 
Q 2656 2988 2656 3200 
Q 2656 3528 2436 3728 
Q 2216 3928 1850 3928 
Q 1569 3928 1234 3808 
Q 900 3688 519 3450 
L 519 4475 
Q 925 4609 1322 4679 
Q 1719 4750 2100 4750 
Q 2938 4750 3402 4381 
Q 3866 4013 3866 3353 
Q 3866 2972 3669 2642 
Q 3472 2313 2841 1759 
L 1844 884 
z
" transform="scale(0.015625)"/>
      <path id="DejaVuSans-Bold-39" d="M 641 103 
L 641 966 
Q 928 831 1190 764 
Q 1453 697 1709 697 
Q 2247 697 2547 995 
Q 2847 1294 2900 1881 
Q 2688 1725 2447 1647 
Q 2206 1569 1925 1569 
Q 1209 1569 770 1986 
Q 331 2403 331 3084 
Q 331 3838 820 4291 
Q 1309 4744 2131 4744 
Q 3044 4744 3544 4128 
Q 4044 3513 4044 2388 
Q 4044 1231 3459 570 
Q 2875 -91 1856 -91 
Q 1528 -91 1228 -42 
Q 928 6 641 103 
z
M 2125 2350 
Q 2441 2350 2600 2554 
Q 2759 2759 2759 3169 
Q 2759 3575 2600 3781 
Q 2441 3988 2125 3988 
Q 1809 3988 1650 3781 
Q 1491 3575 1491 3169 
Q 1491 2759 1650 2554 
Q 1809 2350 2125 2350 
z
" transform="scale(0.015625)"/>
     </defs>
     <use xlink:href="#DejaVuSans-Bold-32"/>
     <use xlink:href="#DejaVuSans-Bold-39" transform="translate(69.580078 0)"/>
     <use xlink:href="#DejaVuSans-Bold-35" transform="translate(139.160156 0)"/>
    </g>
   </g>
   <g id="text_22">
    <!-- 695 -->
    <g style="fill: #9467bd" transform="translate(817.012614 71.449517) scale(0.09 -0.09)">
     <defs>
      <path id="DejaVuSans-Bold-36" d="M 2316 2303 
Q 2000 2303 1842 2098 
Q 1684 1894 1684 1484 
Q 1684 1075 1842 870 
Q 2000 666 2316 666 
Q 2634 666 2792 870 
Q 2950 1075 2950 1484 
Q 2950 1894 2792 2098 
Q 2634 2303 2316 2303 
z
M 3803 4544 
L 3803 3681 
Q 3506 3822 3243 3889 
Q 2981 3956 2731 3956 
Q 2194 3956 1894 3657 
Q 1594 3359 1544 2772 
Q 1750 2925 1990 3001 
Q 2231 3078 2516 3078 
Q 3231 3078 3670 2659 
Q 4109 2241 4109 1563 
Q 4109 813 3618 361 
Q 3128 -91 2303 -91 
Q 1394 -91 895 523 
Q 397 1138 397 2266 
Q 397 3422 980 4083 
Q 1563 4744 2578 4744 
Q 2900 4744 3203 4694 
Q 3506 4644 3803 4544 
z
" transform="scale(0.015625)"/>
     </defs>
     <use xlink:href="#DejaVuSans-Bold-36"/>
     <use xlink:href="#DejaVuSans-Bold-39" transform="translate(69.580078 0)"/>
     <use xlink:href="#DejaVuSans-Bold-35" transform="translate(139.160156 0)"/>
    </g>
   </g>
   <g id="text_23">
    <!-- Erdős Problems Progress -->
    <g style="fill: #24292f" transform="translate(349.588281 18.397812) scale(0.14 -0.14)">
     <defs>
      <path id="DejaVuSans-Bold-45" d="M 588 4666 
L 3834 4666 
L 3834 3756 
L 1791 3756 
L 1791 2888 
L 3713 2888 
L 3713 1978 
L 1791 1978 
L 1791 909 
L 3903 909 
L 3903 0 
L 588 0 
L 588 4666 
z
" transform="scale(0.015625)"/>
      <path id="DejaVuSans-Bold-72" d="M 3138 2547 
Q 2991 2616 2845 2648 
Q 2700 2681 2553 2681 
Q 2122 2681 1889 2404 
Q 1656 2128 1656 1613 
L 1656 0 
L 538 0 
L 538 3500 
L 1656 3500 
L 1656 2925 
Q 1872 3269 2151 3426 
Q 2431 3584 2822 3584 
Q 2878 3584 2943 3579 
Q 3009 3575 3134 3559 
L 3138 2547 
z
" transform="scale(0.015625)"/>
      <path id="DejaVuSans-Bold-64" d="M 2919 2988 
L 2919 4863 
L 4044 4863 
L 4044 0 
L 2919 0 
L 2919 506 
Q 2688 197 2409 53 
Q 2131 -91 1766 -91 
Q 1119 -91 703 423 
Q 288 938 288 1747 
Q 288 2556 703 3070 
Q 1119 3584 1766 3584 
Q 2128 3584 2408 3439 
Q 2688 3294 2919 2988 
z
M 2181 722 
Q 2541 722 2730 984 
Q 2919 1247 2919 1747 
Q 2919 2247 2730 2509 
Q 2541 2772 2181 2772 
Q 1825 2772 1636 2509 
Q 1447 2247 1447 1747 
Q 1447 1247 1636 984 
Q 1825 722 2181 722 
z
" transform="scale(0.015625)"/>
      <path id="DejaVuSans-Bold-151" d="M 1881 5119 
L 2560 5119 
L 1785 3944 
L 1275 3944 
L 1881 5119 
z
M 3016 5119 
L 3738 5119 
L 2888 3944 
L 2344 3944 
L 3016 5119 
z
M 2203 2784 
Q 1831 2784 1636 2517 
Q 1441 2250 1441 1747 
Q 1441 1244 1636 976 
Q 1831 709 2203 709 
Q 2569 709 2762 976 
Q 2956 1244 2956 1747 
Q 2956 2250 2762 2517 
Q 2569 2784 2203 2784 
z
M 2203 3584 
Q 3106 3584 3614 3096 
Q 4122 2609 4122 1747 
Q 4122 884 3614 396 
Q 3106 -91 2203 -91 
Q 1297 -91 786 396 
Q 275 884 275 1747 
Q 275 2609 786 3096 
Q 1297 3584 2203 3584 
z
" transform="scale(0.015625)"/>
      <path id="DejaVuSans-Bold-73" d="M 3272 3391 
L 3272 2541 
Q 2913 2691 2578 2766 
Q 2244 2841 1947 2841 
Q 1628 2841 1473 2761 
Q 1319 2681 1319 2516 
Q 1319 2381 1436 2309 
Q 1553 2238 1856 2203 
L 2053 2175 
Q 2913 2066 3209 1816 
Q 3506 1566 3506 1031 
Q 3506 472 3093 190 
Q 2681 -91 1863 -91 
Q 1516 -91 1145 -36 
Q 775 19 384 128 
L 384 978 
Q 719 816 1070 734 
Q 1422 653 1784 653 
Q 2113 653 2278 743 
Q 2444 834 2444 1013 
Q 2444 1163 2330 1236 
Q 2216 1309 1875 1350 
L 1678 1375 
Q 931 1469 631 1722 
Q 331 1975 331 2491 
Q 331 3047 712 3315 
Q 1094 3584 1881 3584 
Q 2191 3584 2531 3537 
Q 2872 3491 3272 3391 
z
" transform="scale(0.015625)"/>
      <path id="DejaVuSans-Bold-20" transform="scale(0.015625)"/>
      <path id="DejaVuSans-Bold-50" d="M 588 4666 
L 2584 4666 
Q 3475 4666 3951 4270 
Q 4428 3875 4428 3144 
Q 4428 2409 3951 2014 
Q 3475 1619 2584 1619 
L 1791 1619 
L 1791 0 
L 588 0 
L 588 4666 
z
M 1791 3794 
L 1791 2491 
L 2456 2491 
Q 2806 2491 2997 2661 
Q 3188 2831 3188 3144 
Q 3188 3456 2997 3625 
Q 2806 3794 2456 3794 
L 1791 3794 
z
" transform="scale(0.015625)"/>
      <path id="DejaVuSans-Bold-6f" d="M 2203 2784 
Q 1831 2784 1636 2517 
Q 1441 2250 1441 1747 
Q 1441 1244 1636 976 
Q 1831 709 2203 709 
Q 2569 709 2762 976 
Q 2956 1244 2956 1747 
Q 2956 2250 2762 2517 
Q 2569 2784 2203 2784 
z
M 2203 3584 
Q 3106 3584 3614 3096 
Q 4122 2609 4122 1747 
Q 4122 884 3614 396 
Q 3106 -91 2203 -91 
Q 1297 -91 786 396 
Q 275 884 275 1747 
Q 275 2609 786 3096 
Q 1297 3584 2203 3584 
z
" transform="scale(0.015625)"/>
      <path id="DejaVuSans-Bold-62" d="M 2400 722 
Q 2759 722 2948 984 
Q 3138 1247 3138 1747 
Q 3138 2247 2948 2509 
Q 2759 2772 2400 2772 
Q 2041 2772 1848 2508 
Q 1656 2244 1656 1747 
Q 1656 1250 1848 986 
Q 2041 722 2400 722 
z
M 1656 2988 
Q 1888 3294 2169 3439 
Q 2450 3584 2816 3584 
Q 3463 3584 3878 3070 
Q 4294 2556 4294 1747 
Q 4294 938 3878 423 
Q 3463 -91 2816 -91 
Q 2450 -91 2169 54 
Q 1888 200 1656 506 
L 1656 0 
L 538 0 
L 538 4863 
L 1656 4863 
L 1656 2988 
z
" transform="scale(0.015625)"/>
      <path id="DejaVuSans-Bold-6c" d="M 538 4863 
L 1656 4863 
L 1656 0 
L 538 0 
L 538 4863 
z
" transform="scale(0.015625)"/>
      <path id="DejaVuSans-Bold-65" d="M 4031 1759 
L 4031 1441 
L 1416 1441 
Q 1456 1047 1700 850 
Q 1944 653 2381 653 
Q 2734 653 3104 758 
Q 3475 863 3866 1075 
L 3866 213 
Q 3469 63 3072 -14 
Q 2675 -91 2278 -91 
Q 1328 -91 801 392 
Q 275 875 275 1747 
Q 275 2603 792 3093 
Q 1309 3584 2216 3584 
Q 3041 3584 3536 3087 
Q 4031 2591 4031 1759 
z
M 2881 2131 
Q 2881 2450 2695 2645 
Q 2509 2841 2209 2841 
Q 1884 2841 1681 2658 
Q 1478 2475 1428 2131 
L 2881 2131 
z
" transform="scale(0.015625)"/>
      <path id="DejaVuSans-Bold-6d" d="M 3781 2919 
Q 3994 3244 4286 3414 
Q 4578 3584 4928 3584 
Q 5531 3584 5847 3212 
Q 6163 2841 6163 2131 
L 6163 0 
L 5038 0 
L 5038 1825 
Q 5041 1866 5042 1909 
Q 5044 1953 5044 2034 
Q 5044 2406 4934 2573 
Q 4825 2741 4581 2741 
Q 4263 2741 4089 2478 
Q 3916 2216 3909 1719 
L 3909 0 
L 2784 0 
L 2784 1825 
Q 2784 2406 2684 2573 
Q 2584 2741 2328 2741 
Q 2006 2741 1831 2477 
Q 1656 2213 1656 1722 
L 1656 0 
L 531 0 
L 531 3500 
L 1656 3500 
L 1656 2988 
Q 1863 3284 2130 3434 
Q 2397 3584 2719 3584 
Q 3081 3584 3359 3409 
Q 3638 3234 3781 2919 
z
" transform="scale(0.015625)"/>
      <path id="DejaVuSans-Bold-67" d="M 2919 594 
Q 2688 288 2409 144 
Q 2131 0 1766 0 
Q 1125 0 706 504 
Q 288 1009 288 1791 
Q 288 2575 706 3076 
Q 1125 3578 1766 3578 
Q 2131 3578 2409 3434 
Q 2688 3291 2919 2981 
L 2919 3500 
L 4044 3500 
L 4044 353 
Q 4044 -491 3511 -936 
Q 2978 -1381 1966 -1381 
Q 1638 -1381 1331 -1331 
Q 1025 -1281 716 -1178 
L 716 -306 
Q 1009 -475 1290 -558 
Q 1572 -641 1856 -641 
Q 2406 -641 2662 -400 
Q 2919 -159 2919 353 
L 2919 594 
z
M 2181 2772 
Q 1834 2772 1640 2515 
Q 1447 2259 1447 1791 
Q 1447 1309 1634 1061 
Q 1822 813 2181 813 
Q 2531 813 2725 1069 
Q 2919 1325 2919 1791 
Q 2919 2259 2725 2515 
Q 2531 2772 2181 2772 
z
" transform="scale(0.015625)"/>
     </defs>
     <use xlink:href="#DejaVuSans-Bold-45"/>
     <use xlink:href="#DejaVuSans-Bold-72" transform="translate(68.310547 0)"/>
     <use xlink:href="#DejaVuSans-Bold-64" transform="translate(117.626953 0)"/>
     <use xlink:href="#DejaVuSans-Bold-151" transform="translate(189.208984 0)"/>
     <use xlink:href="#DejaVuSans-Bold-73" transform="translate(257.910156 0)"/>
     <use xlink:href="#DejaVuSans-Bold-20" transform="translate(317.431641 0)"/>
     <use xlink:href="#DejaVuSans-Bold-50" transform="translate(352.246094 0)"/>
     <use xlink:href="#DejaVuSans-Bold-72" transform="translate(425.537109 0)"/>
     <use xlink:href="#DejaVuSans-Bold-6f" transform="translate(474.853516 0)"/>
     <use xlink:href="#DejaVuSans-Bold-62" transform="translate(543.554688 0)"/>
     <use xlink:href="#DejaVuSans-Bold-6c" transform="translate(615.136719 0)"/>
     <use xlink:href="#DejaVuSans-Bold-65" transform="translate(649.414062 0)"/>
     <use xlink:href="#DejaVuSans-Bold-6d" transform="translate(717.236328 0)"/>
     <use xlink:href="#DejaVuSans-Bold-73" transform="translate(821.435547 0)"/>
     <use xlink:href="#DejaVuSans-Bold-20" transform="translate(880.957031 0)"/>
     <use xlink:href="#DejaVuSans-Bold-50" transform="translate(915.771484 0)"/>
     <use xlink:href="#DejaVuSans-Bold-72" transform="translate(989.0625 0)"/>
     <use xlink:href="#DejaVuSans-Bold-6f" transform="translate(1038.378906 0)"/>
     <use xlink:href="#DejaVuSans-Bold-67" transform="translate(1107.080078 0)"/>
     <use xlink:href="#DejaVuSans-Bold-72" transform="translate(1178.662109 0)"/>
     <use xlink:href="#DejaVuSans-Bold-65" transform="translate(1227.978516 0)"/>
     <use xlink:href="#DejaVuSans-Bold-73" transform="translate(1295.800781 0)"/>
     <use xlink:href="#DejaVuSans-Bold-73" transform="translate(1355.322266 0)"/>
    </g>
   </g>
   <g id="legend_1">
    <g id="patch_7">
     <path d="M 55.90125 119.788437 
L 213.771563 119.788437 
Q 215.771563 119.788437 215.771563 117.788437 
L 215.771563 45.397812 
Q 215.771563 43.397812 213.771563 43.397812 
L 55.90125 43.397812 
Q 53.90125 43.397812 53.90125 45.397812 
L 53.90125 117.788437 
Q 53.90125 119.788437 55.90125 119.788437 
z
" style="fill: #f6f8fa; opacity: 0.8; stroke: #d0d7de; stroke-linejoin: miter"/>
    </g>
    <g id="line2d_36">
     <path d="M 57.90125 51.49625 
L 67.90125 51.49625 
L 77.90125 51.49625 
" style="fill: none; stroke: #1a7f37; stroke-width: 2; stroke-linecap: square"/>
    </g>
    <g id="text_24">
     <!-- Solved -->
     <g style="fill: #24292f" transform="translate(85.90125 54.99625) scale(0.1 -0.1)">
      <defs>
       <path id="DejaVuSans-6c" d="M 603 4863 
L 1178 4863 
L 1178 0 
L 603 0 
L 603 4863 
z
" transform="scale(0.015625)"/>
       <path id="DejaVuSans-64" d="M 2906 2969 
L 2906 4863 
L 3481 4863 
L 3481 0 
L 2906 0 
L 2906 525 
Q 2725 213 2448 61 
Q 2172 -91 1784 -91 
Q 1150 -91 751 415 
Q 353 922 353 1747 
Q 353 2572 751 3078 
Q 1150 3584 1784 3584 
Q 2172 3584 2448 3432 
Q 2725 3281 2906 2969 
z
M 947 1747 
Q 947 1113 1208 752 
Q 1469 391 1925 391 
Q 2381 391 2643 752 
Q 2906 1113 2906 1747 
Q 2906 2381 2643 2742 
Q 2381 3103 1925 3103 
Q 1469 3103 1208 2742 
Q 947 2381 947 1747 
z
" transform="scale(0.015625)"/>
      </defs>
      <use xlink:href="#DejaVuSans-53"/>
      <use xlink:href="#DejaVuSans-6f" transform="translate(63.476562 0)"/>
      <use xlink:href="#DejaVuSans-6c" transform="translate(124.658203 0)"/>
      <use xlink:href="#DejaVuSans-76" transform="translate(152.441406 0)"/>
      <use xlink:href="#DejaVuSans-65" transform="translate(211.621094 0)"/>
      <use xlink:href="#DejaVuSans-64" transform="translate(273.144531 0)"/>
     </g>
    </g>
    <g id="line2d_37">
     <path d="M 57.90125 66.174375 
L 67.90125 66.174375 
L 77.90125 66.174375 
" style="fill: none; stroke: #0969da; stroke-width: 2; stroke-linecap: square"/>
    </g>
    <g id="text_25">
     <!-- Lean Formalized Problem -->
     <g style="fill: #24292f" transform="translate(85.90125 69.674375) scale(0.1 -0.1)">
      <defs>
       <path id="DejaVuSans-4c" d="M 628 4666 
L 1259 4666 
L 1259 531 
L 3531 531 
L 3531 0 
L 628 0 
L 628 4666 
z
" transform="scale(0.015625)"/>
       <path id="DejaVuSans-20" transform="scale(0.015625)"/>
       <path id="DejaVuSans-6d" d="M 3328 2828 
Q 3544 3216 3844 3400 
Q 4144 3584 4550 3584 
Q 5097 3584 5394 3201 
Q 5691 2819 5691 2113 
L 5691 0 
L 5113 0 
L 5113 2094 
Q 5113 2597 4934 2840 
Q 4756 3084 4391 3084 
Q 3944 3084 3684 2787 
Q 3425 2491 3425 1978 
L 3425 0 
L 2847 0 
L 2847 2094 
Q 2847 2600 2669 2842 
Q 2491 3084 2119 3084 
Q 1678 3084 1418 2786 
Q 1159 2488 1159 1978 
L 1159 0 
L 581 0 
L 581 3500 
L 1159 3500 
L 1159 2956 
Q 1356 3278 1631 3431 
Q 1906 3584 2284 3584 
Q 2666 3584 2933 3390 
Q 3200 3197 3328 2828 
z
" transform="scale(0.015625)"/>
       <path id="DejaVuSans-69" d="M 603 3500 
L 1178 3500 
L 1178 0 
L 603 0 
L 603 3500 
z
M 603 4863 
L 1178 4863 
L 1178 4134 
L 603 4134 
L 603 4863 
z
" transform="scale(0.015625)"/>
       <path id="DejaVuSans-7a" d="M 353 3500 
L 3084 3500 
L 3084 2975 
L 922 459 
L 3084 459 
L 3084 0 
L 275 0 
L 275 525 
L 2438 3041 
L 353 3041 
L 353 3500 
z
" transform="scale(0.015625)"/>
       <path id="DejaVuSans-50" d="M 1259 4147 
L 1259 2394 
L 2053 2394 
Q 2494 2394 2734 2622 
Q 2975 2850 2975 3272 
Q 2975 3691 2734 3919 
Q 2494 4147 2053 4147 
L 1259 4147 
z
M 628 4666 
L 2053 4666 
Q 2838 4666 3239 4311 
Q 3641 3956 3641 3272 
Q 3641 2581 3239 2228 
Q 2838 1875 2053 1875 
L 1259 1875 
L 1259 0 
L 628 0 
L 628 4666 
z
" transform="scale(0.015625)"/>
      </defs>
      <use xlink:href="#DejaVuSans-4c"/>
      <use xlink:href="#DejaVuSans-65" transform="translate(53.962891 0)"/>
      <use xlink:href="#DejaVuSans-61" transform="translate(115.486328 0)"/>
      <use xlink:href="#DejaVuSans-6e" transform="translate(176.765625 0)"/>
      <use xlink:href="#DejaVuSans-20" transform="translate(240.144531 0)"/>
      <use xlink:href="#DejaVuSans-46" transform="translate(271.931641 0)"/>
      <use xlink:href="#DejaVuSans-6f" transform="translate(325.826172 0)"/>
      <use xlink:href="#DejaVuSans-72" transform="translate(387.007812 0)"/>
      <use xlink:href="#DejaVuSans-6d" transform="translate(426.371094 0)"/>
      <use xlink:href="#DejaVuSans-61" transform="translate(523.783203 0)"/>
      <use xlink:href="#DejaVuSans-6c" transform="translate(585.0625 0)"/>
      <use xlink:href="#DejaVuSans-69" transform="translate(612.845703 0)"/>
      <use xlink:href="#DejaVuSans-7a" transform="translate(640.628906 0)"/>
      <use xlink:href="#DejaVuSans-65" transform="translate(693.119141 0)"/>
      <use xlink:href="#DejaVuSans-64" transform="translate(754.642578 0)"/>
      <use xlink:href="#DejaVuSans-20" transform="translate(818.119141 0)"/>
      <use xlink:href="#DejaVuSans-50" transform="translate(849.90625 0)"/>
      <use xlink:href="#DejaVuSans-72" transform="translate(908.458984 0)"/>
      <use xlink:href="#DejaVuSans-6f" transform="translate(947.322266 0)"/>
      <use xlink:href="#DejaVuSans-62" transform="translate(1008.503906 0)"/>
      <use xlink:href="#DejaVuSans-6c" transform="translate(1071.980469 0)"/>
      <use xlink:href="#DejaVuSans-65" transform="translate(1099.763672 0)"/>
      <use xlink:href="#DejaVuSans-6d" transform="translate(1161.287109 0)"/>
     </g>
    </g>
    <g id="line2d_38">
     <path d="M 57.90125 80.8525 
L 67.90125 80.8525 
L 77.90125 80.8525 
" style="fill: none; stroke: #bf8700; stroke-width: 2; stroke-linecap: square"/>
    </g>
    <g id="text_26">
     <!-- Lean Formalized Solution -->
     <g style="fill: #24292f" transform="translate(85.90125 84.3525) scale(0.1 -0.1)">
      <use xlink:href="#DejaVuSans-4c"/>
      <use xlink:href="#DejaVuSans-65" transform="translate(53.962891 0)"/>
      <use xlink:href="#DejaVuSans-61" transform="translate(115.486328 0)"/>
      <use xlink:href="#DejaVuSans-6e" transform="translate(176.765625 0)"/>
      <use xlink:href="#DejaVuSans-20" transform="translate(240.144531 0)"/>
      <use xlink:href="#DejaVuSans-46" transform="translate(271.931641 0)"/>
      <use xlink:href="#DejaVuSans-6f" transform="translate(325.826172 0)"/>
      <use xlink:href="#DejaVuSans-72" transform="translate(387.007812 0)"/>
      <use xlink:href="#DejaVuSans-6d" transform="translate(426.371094 0)"/>
      <use xlink:href="#DejaVuSans-61" transform="translate(523.783203 0)"/>
      <use xlink:href="#DejaVuSans-6c" transform="translate(585.0625 0)"/>
      <use xlink:href="#DejaVuSans-69" transform="translate(612.845703 0)"/>
      <use xlink:href="#DejaVuSans-7a" transform="translate(640.628906 0)"/>
      <use xlink:href="#DejaVuSans-65" transform="translate(693.119141 0)"/>
      <use xlink:href="#DejaVuSans-64" transform="translate(754.642578 0)"/>
      <use xlink:href="#DejaVuSans-20" transform="translate(818.119141 0)"/>
      <use xlink:href="#DejaVuSans-53" transform="translate(849.90625 0)"/>
      <use xlink:href="#DejaVuSans-6f" transform="translate(913.382812 0)"/>
      <use xlink:href="#DejaVuSans-6c" transform="translate(974.564453 0)"/>
      <use xlink:href="#DejaVuSans-75" transform="translate(1002.347656 0)"/>
      <use xlink:href="#DejaVuSans-74" transform="translate(1065.726562 0)"/>
      <use xlink:href="#DejaVuSans-69" transform="translate(1104.935547 0)"/>
      <use xlink:href="#DejaVuSans-6f" transform="translate(1132.71875 0)"/>
      <use xlink:href="#DejaVuSans-6e" transform="translate(1193.900391 0)"/>
     </g>
    </g>
    <g id="line2d_39">
     <path d="M 57.90125 95.530625 
L 67.90125 95.530625 
L 77.90125 95.530625 
" style="fill: none; stroke: #cf222e; stroke-width: 2; stroke-linecap: square"/>
    </g>
    <g id="text_27">
     <!-- OEIS Linked -->
     <g style="fill: #24292f" transform="translate(85.90125 99.030625) scale(0.1 -0.1)">
      <defs>
       <path id="DejaVuSans-45" d="M 628 4666 
L 3578 4666 
L 3578 4134 
L 1259 4134 
L 1259 2753 
L 3481 2753 
L 3481 2222 
L 1259 2222 
L 1259 531 
L 3634 531 
L 3634 0 
L 628 0 
L 628 4666 
z
" transform="scale(0.015625)"/>
       <path id="DejaVuSans-49" d="M 628 4666 
L 1259 4666 
L 1259 0 
L 628 0 
L 628 4666 
z
" transform="scale(0.015625)"/>
       <path id="DejaVuSans-6b" d="M 581 4863 
L 1159 4863 
L 1159 1991 
L 2875 3500 
L 3609 3500 
L 1753 1863 
L 3688 0 
L 2938 0 
L 1159 1709 
L 1159 0 
L 581 0 
L 581 4863 
z
" transform="scale(0.015625)"/>
      </defs>
      <use xlink:href="#DejaVuSans-4f"/>
      <use xlink:href="#DejaVuSans-45" transform="translate(78.710938 0)"/>
      <use xlink:href="#DejaVuSans-49" transform="translate(141.894531 0)"/>
      <use xlink:href="#DejaVuSans-53" transform="translate(171.386719 0)"/>
      <use xlink:href="#DejaVuSans-20" transform="translate(234.863281 0)"/>
      <use xlink:href="#DejaVuSans-4c" transform="translate(266.650391 0)"/>
      <use xlink:href="#DejaVuSans-69" transform="translate(322.363281 0)"/>
      <use xlink:href="#DejaVuSans-6e" transform="translate(350.146484 0)"/>
      <use xlink:href="#DejaVuSans-6b" transform="translate(413.525391 0)"/>
      <use xlink:href="#DejaVuSans-65" transform="translate(467.810547 0)"/>
      <use xlink:href="#DejaVuSans-64" transform="translate(529.333984 0)"/>
     </g>
    </g>
    <g id="line2d_40">
     <path d="M 57.90125 110.20875 
L 67.90125 110.20875 
L 77.90125 110.20875 
" style="fill: none; stroke: #9467bd; stroke-width: 2; stroke-linecap: square"/>
    </g>
    <g id="text_28">
     <!-- Open Problems -->
     <g style="fill: #24292f" transform="translate(85.90125 113.70875) scale(0.1 -0.1)">
      <defs>
       <path id="DejaVuSans-73" d="M 2834 3397 
L 2834 2853 
Q 2591 2978 2328 3040 
Q 2066 3103 1784 3103 
Q 1356 3103 1142 2972 
Q 928 2841 928 2578 
Q 928 2378 1081 2264 
Q 1234 2150 1697 2047 
L 1894 2003 
Q 2506 1872 2764 1633 
Q 3022 1394 3022 966 
Q 3022 478 2636 193 
Q 2250 -91 1575 -91 
Q 1294 -91 989 -36 
Q 684 19 347 128 
L 347 722 
Q 666 556 975 473 
Q 1284 391 1588 391 
Q 1994 391 2212 530 
Q 2431 669 2431 922 
Q 2431 1156 2273 1281 
Q 2116 1406 1581 1522 
L 1381 1569 
Q 847 1681 609 1914 
Q 372 2147 372 2553 
Q 372 3047 722 3315 
Q 1072 3584 1716 3584 
Q 2034 3584 2315 3537 
Q 2597 3491 2834 3397 
z
" transform="scale(0.015625)"/>
      </defs>
      <use xlink:href="#DejaVuSans-4f"/>
      <use xlink:href="#DejaVuSans-70" transform="translate(78.710938 0)"/>
      <use xlink:href="#DejaVuSans-65" transform="translate(142.1875 0)"/>
      <use xlink:href="#DejaVuSans-6e" transform="translate(203.710938 0)"/>
      <use xlink:href="#DejaVuSans-20" transform="translate(267.089844 0)"/>
      <use xlink:href="#DejaVuSans-50" transform="translate(298.876953 0)"/>
      <use xlink:href="#DejaVuSans-72" transform="translate(357.429688 0)"/>
      <use xlink:href="#DejaVuSans-6f" transform="translate(396.292969 0)"/>
      <use xlink:href="#DejaVuSans-62" transform="translate(457.474609 0)"/>
      <use xlink:href="#DejaVuSans-6c" transform="translate(520.951172 0)"/>
      <use xlink:href="#DejaVuSans-65" transform="translate(548.734375 0)"/>
      <use xlink:href="#DejaVuSans-6d" transform="translate(610.257812 0)"/>
      <use xlink:href="#DejaVuSans-73" transform="translate(707.669922 0)"/>
     </g>
    </g>
   </g>
  </g>
 </g>
 <defs>
  <clipPath id="p68006cb47a">
   <rect x="48.90125" y="38.397812" width="799.45" height="416.84"/>
  </clipPath>
 </defs>
</svg>
