<?xml version="1.0" encoding="utf-8" standalone="no"?>
<!DOCTYPE svg PUBLIC "-//W3C//DTD SVG 1.1//EN"
  "http://www.w3.org/Graphics/SVG/1.1/DTD/svg11.dtd">
<svg xmlns:xlink="http://www.w3.org/1999/xlink" width="855.248988pt" height="494.729687pt" viewBox="0 0 855.248988 494.729687" xmlns="http://www.w3.org/2000/svg" version="1.1">
 <metadata>
  <rdf:RDF xmlns:dc="http://purl.org/dc/elements/1.1/" xmlns:cc="http://creativecommons.org/ns#" xmlns:rdf="http://www.w3.org/1999/02/22-rdf-syntax-ns#">
   <cc:Work>
    <dc:type rdf:resource="http://purl.org/dc/dcmitype/StillImage"/>
    <dc:date>2026-04-19T22:52:26.688138</dc:date>
    <dc:format>image/svg+xml</dc:format>
    <dc:creator>
     <cc:Agent>
      <dc:title>Matplotlib v3.10.7, https://matplotlib.org/</dc:title>
     </cc:Agent>
    </dc:creator>
   </cc:Work>
  </rdf:RDF>
 </metadata>
 <defs>
  <style type="text/css">*{stroke-linejoin: round; stroke-linecap: butt}</style>
 </defs>
 <g id="figure_1">
  <g id="patch_1">
   <path d="M 0 494.729687 
L 855.248988 494.729687 
L 855.248988 0 
L 0 0 
z
" style="fill: #0d1117"/>
  </g>
  <g id="axes_1">
   <g id="patch_2">
    <path d="M 48.90125 455.237812 
L 839.312849 455.237812 
L 839.312849 38.397812 
L 48.90125 38.397812 
z
" style="fill: #0d1117"/>
   </g>
   <g id="matplotlib.axis_1">
    <g id="xtick_1">
     <g id="line2d_1">
      <path d="M 85.737441 455.237812 
L 85.737441 38.397812 
" clip-path="url(#pc0c4b9a394)" style="fill: none; stroke: #30363d; stroke-opacity: 0.25; stroke-width: 0.5; stroke-linecap: square"/>
     </g>
     <g id="line2d_2">
      <defs>
       <path id="mdb3a4b338d" d="M 0 0 
L 0 3.5 
" style="stroke: #c9d1d9; stroke-width: 0.8"/>
      </defs>
      <g>
       <use xlink:href="#mdb3a4b338d" x="85.737441" y="455.237812" style="fill: #c9d1d9; stroke: #c9d1d9; stroke-width: 0.8"/>
      </g>
     </g>
     <g id="text_1">
      <!-- Sep -->
      <g style="fill: #c9d1d9" transform="translate(76.312441 469.83625) scale(0.1 -0.1)">
       <defs>
        <path id="DejaVuSans-53" d="M 3425 4513 
L 3425 3897 
Q 3066 4069 2747 4153 
Q 2428 4238 2131 4238 
Q 1616 4238 1336 4038 
Q 1056 3838 1056 3469 
Q 1056 3159 1242 3001 
Q 1428 2844 1947 2747 
L 2328 2669 
Q 3034 2534 3370 2195 
Q 3706 1856 3706 1288 
Q 3706 609 3251 259 
Q 2797 -91 1919 -91 
Q 1588 -91 1214 -16 
Q 841 59 441 206 
L 441 856 
Q 825 641 1194 531 
Q 1563 422 1919 422 
Q 2459 422 2753 634 
Q 3047 847 3047 1241 
Q 3047 1584 2836 1778 
Q 2625 1972 2144 2069 
L 1759 2144 
Q 1053 2284 737 2584 
Q 422 2884 422 3419 
Q 422 4038 858 4394 
Q 1294 4750 2059 4750 
Q 2388 4750 2728 4690 
Q 3069 4631 3425 4513 
z
" transform="scale(0.015625)"/>
        <path id="DejaVuSans-65" d="M 3597 1894 
L 3597 1613 
L 953 1613 
Q 991 1019 1311 708 
Q 1631 397 2203 397 
Q 2534 397 2845 478 
Q 3156 559 3463 722 
L 3463 178 
Q 3153 47 2828 -22 
Q 2503 -91 2169 -91 
Q 1331 -91 842 396 
Q 353 884 353 1716 
Q 353 2575 817 3079 
Q 1281 3584 2069 3584 
Q 2775 3584 3186 3129 
Q 3597 2675 3597 1894 
z
M 3022 2063 
Q 3016 2534 2758 2815 
Q 2500 3097 2075 3097 
Q 1594 3097 1305 2825 
Q 1016 2553 972 2059 
L 3022 2063 
z
" transform="scale(0.015625)"/>
        <path id="DejaVuSans-70" d="M 1159 525 
L 1159 -1331 
L 581 -1331 
L 581 3500 
L 1159 3500 
L 1159 2969 
Q 1341 3281 1617 3432 
Q 1894 3584 2278 3584 
Q 2916 3584 3314 3078 
Q 3713 2572 3713 1747 
Q 3713 922 3314 415 
Q 2916 -91 2278 -91 
Q 1894 -91 1617 61 
Q 1341 213 1159 525 
z
M 3116 1747 
Q 3116 2381 2855 2742 
Q 2594 3103 2138 3103 
Q 1681 3103 1420 2742 
Q 1159 2381 1159 1747 
Q 1159 1113 1420 752 
Q 1681 391 2138 391 
Q 2594 391 2855 752 
Q 3116 1113 3116 1747 
z
" transform="scale(0.015625)"/>
       </defs>
       <use xlink:href="#DejaVuSans-53"/>
       <use xlink:href="#DejaVuSans-65" transform="translate(63.476562 0)"/>
       <use xlink:href="#DejaVuSans-70" transform="translate(125 0)"/>
      </g>
     </g>
    </g>
    <g id="xtick_2">
     <g id="line2d_3">
      <path d="M 178.957364 455.237812 
L 178.957364 38.397812 
" clip-path="url(#pc0c4b9a394)" style="fill: none; stroke: #30363d; stroke-opacity: 0.25; stroke-width: 0.5; stroke-linecap: square"/>
     </g>
     <g id="line2d_4">
      <g>
       <use xlink:href="#mdb3a4b338d" x="178.957364" y="455.237812" style="fill: #c9d1d9; stroke: #c9d1d9; stroke-width: 0.8"/>
      </g>
     </g>
     <g id="text_2">
      <!-- Oct -->
      <g style="fill: #c9d1d9" transform="translate(170.312051 469.83625) scale(0.1 -0.1)">
       <defs>
        <path id="DejaVuSans-4f" d="M 2522 4238 
Q 1834 4238 1429 3725 
Q 1025 3213 1025 2328 
Q 1025 1447 1429 934 
Q 1834 422 2522 422 
Q 3209 422 3611 934 
Q 4013 1447 4013 2328 
Q 4013 3213 3611 3725 
Q 3209 4238 2522 4238 
z
M 2522 4750 
Q 3503 4750 4090 4092 
Q 4678 3434 4678 2328 
Q 4678 1225 4090 567 
Q 3503 -91 2522 -91 
Q 1538 -91 948 565 
Q 359 1222 359 2328 
Q 359 3434 948 4092 
Q 1538 4750 2522 4750 
z
" transform="scale(0.015625)"/>
        <path id="DejaVuSans-63" d="M 3122 3366 
L 3122 2828 
Q 2878 2963 2633 3030 
Q 2388 3097 2138 3097 
Q 1578 3097 1268 2742 
Q 959 2388 959 1747 
Q 959 1106 1268 751 
Q 1578 397 2138 397 
Q 2388 397 2633 464 
Q 2878 531 3122 666 
L 3122 134 
Q 2881 22 2623 -34 
Q 2366 -91 2075 -91 
Q 1284 -91 818 406 
Q 353 903 353 1747 
Q 353 2603 823 3093 
Q 1294 3584 2113 3584 
Q 2378 3584 2631 3529 
Q 2884 3475 3122 3366 
z
" transform="scale(0.015625)"/>
        <path id="DejaVuSans-74" d="M 1172 4494 
L 1172 3500 
L 2356 3500 
L 2356 3053 
L 1172 3053 
L 1172 1153 
Q 1172 725 1289 603 
Q 1406 481 1766 481 
L 2356 481 
L 2356 0 
L 1766 0 
Q 1100 0 847 248 
Q 594 497 594 1153 
L 594 3053 
L 172 3053 
L 172 3500 
L 594 3500 
L 594 4494 
L 1172 4494 
z
" transform="scale(0.015625)"/>
       </defs>
       <use xlink:href="#DejaVuSans-4f"/>
       <use xlink:href="#DejaVuSans-63" transform="translate(78.710938 0)"/>
       <use xlink:href="#DejaVuSans-74" transform="translate(133.691406 0)"/>
      </g>
     </g>
    </g>
    <g id="xtick_3">
     <g id="line2d_5">
      <path d="M 275.284618 455.237812 
L 275.284618 38.397812 
" clip-path="url(#pc0c4b9a394)" style="fill: none; stroke: #30363d; stroke-opacity: 0.25; stroke-width: 0.5; stroke-linecap: square"/>
     </g>
     <g id="line2d_6">
      <g>
       <use xlink:href="#mdb3a4b338d" x="275.284618" y="455.237812" style="fill: #c9d1d9; stroke: #c9d1d9; stroke-width: 0.8"/>
      </g>
     </g>
     <g id="text_3">
      <!-- Nov -->
      <g style="fill: #c9d1d9" transform="translate(265.525243 469.83625) scale(0.1 -0.1)">
       <defs>
        <path id="DejaVuSans-4e" d="M 628 4666 
L 1478 4666 
L 3547 763 
L 3547 4666 
L 4159 4666 
L 4159 0 
L 3309 0 
L 1241 3903 
L 1241 0 
L 628 0 
L 628 4666 
z
" transform="scale(0.015625)"/>
        <path id="DejaVuSans-6f" d="M 1959 3097 
Q 1497 3097 1228 2736 
Q 959 2375 959 1747 
Q 959 1119 1226 758 
Q 1494 397 1959 397 
Q 2419 397 2687 759 
Q 2956 1122 2956 1747 
Q 2956 2369 2687 2733 
Q 2419 3097 1959 3097 
z
M 1959 3584 
Q 2709 3584 3137 3096 
Q 3566 2609 3566 1747 
Q 3566 888 3137 398 
Q 2709 -91 1959 -91 
Q 1206 -91 779 398 
Q 353 888 353 1747 
Q 353 2609 779 3096 
Q 1206 3584 1959 3584 
z
" transform="scale(0.015625)"/>
        <path id="DejaVuSans-76" d="M 191 3500 
L 800 3500 
L 1894 563 
L 2988 3500 
L 3597 3500 
L 2284 0 
L 1503 0 
L 191 3500 
z
" transform="scale(0.015625)"/>
       </defs>
       <use xlink:href="#DejaVuSans-4e"/>
       <use xlink:href="#DejaVuSans-6f" transform="translate(74.804688 0)"/>
       <use xlink:href="#DejaVuSans-76" transform="translate(135.986328 0)"/>
      </g>
     </g>
    </g>
    <g id="xtick_4">
     <g id="line2d_7">
      <path d="M 368.504541 455.237812 
L 368.504541 38.397812 
" clip-path="url(#pc0c4b9a394)" style="fill: none; stroke: #30363d; stroke-opacity: 0.25; stroke-width: 0.5; stroke-linecap: square"/>
     </g>
     <g id="line2d_8">
      <g>
       <use xlink:href="#mdb3a4b338d" x="368.504541" y="455.237812" style="fill: #c9d1d9; stroke: #c9d1d9; stroke-width: 0.8"/>
      </g>
     </g>
     <g id="text_4">
      <!-- Dec -->
      <g style="fill: #c9d1d9" transform="translate(358.82876 469.83625) scale(0.1 -0.1)">
       <defs>
        <path id="DejaVuSans-44" d="M 1259 4147 
L 1259 519 
L 2022 519 
Q 2988 519 3436 956 
Q 3884 1394 3884 2338 
Q 3884 3275 3436 3711 
Q 2988 4147 2022 4147 
L 1259 4147 
z
M 628 4666 
L 1925 4666 
Q 3281 4666 3915 4102 
Q 4550 3538 4550 2338 
Q 4550 1131 3912 565 
Q 3275 0 1925 0 
L 628 0 
L 628 4666 
z
" transform="scale(0.015625)"/>
       </defs>
       <use xlink:href="#DejaVuSans-44"/>
       <use xlink:href="#DejaVuSans-65" transform="translate(77.001953 0)"/>
       <use xlink:href="#DejaVuSans-63" transform="translate(138.525391 0)"/>
      </g>
     </g>
    </g>
    <g id="xtick_5">
     <g id="line2d_9">
      <path d="M 464.831795 455.237812 
L 464.831795 38.397812 
" clip-path="url(#pc0c4b9a394)" style="fill: none; stroke: #30363d; stroke-opacity: 0.25; stroke-width: 0.5; stroke-linecap: square"/>
     </g>
     <g id="line2d_10">
      <g>
       <use xlink:href="#mdb3a4b338d" x="464.831795" y="455.237812" style="fill: #c9d1d9; stroke: #c9d1d9; stroke-width: 0.8"/>
      </g>
     </g>
     <g id="text_5">
      <!-- 2026 -->
      <g style="fill: #c9d1d9" transform="translate(452.106795 469.83625) scale(0.1 -0.1)">
       <defs>
        <path id="DejaVuSans-32" d="M 1228 531 
L 3431 531 
L 3431 0 
L 469 0 
L 469 531 
Q 828 903 1448 1529 
Q 2069 2156 2228 2338 
Q 2531 2678 2651 2914 
Q 2772 3150 2772 3378 
Q 2772 3750 2511 3984 
Q 2250 4219 1831 4219 
Q 1534 4219 1204 4116 
Q 875 4013 500 3803 
L 500 4441 
Q 881 4594 1212 4672 
Q 1544 4750 1819 4750 
Q 2544 4750 2975 4387 
Q 3406 4025 3406 3419 
Q 3406 3131 3298 2873 
Q 3191 2616 2906 2266 
Q 2828 2175 2409 1742 
Q 1991 1309 1228 531 
z
" transform="scale(0.015625)"/>
        <path id="DejaVuSans-30" d="M 2034 4250 
Q 1547 4250 1301 3770 
Q 1056 3291 1056 2328 
Q 1056 1369 1301 889 
Q 1547 409 2034 409 
Q 2525 409 2770 889 
Q 3016 1369 3016 2328 
Q 3016 3291 2770 3770 
Q 2525 4250 2034 4250 
z
M 2034 4750 
Q 2819 4750 3233 4129 
Q 3647 3509 3647 2328 
Q 3647 1150 3233 529 
Q 2819 -91 2034 -91 
Q 1250 -91 836 529 
Q 422 1150 422 2328 
Q 422 3509 836 4129 
Q 1250 4750 2034 4750 
z
" transform="scale(0.015625)"/>
        <path id="DejaVuSans-36" d="M 2113 2584 
Q 1688 2584 1439 2293 
Q 1191 2003 1191 1497 
Q 1191 994 1439 701 
Q 1688 409 2113 409 
Q 2538 409 2786 701 
Q 3034 994 3034 1497 
Q 3034 2003 2786 2293 
Q 2538 2584 2113 2584 
z
M 3366 4563 
L 3366 3988 
Q 3128 4100 2886 4159 
Q 2644 4219 2406 4219 
Q 1781 4219 1451 3797 
Q 1122 3375 1075 2522 
Q 1259 2794 1537 2939 
Q 1816 3084 2150 3084 
Q 2853 3084 3261 2657 
Q 3669 2231 3669 1497 
Q 3669 778 3244 343 
Q 2819 -91 2113 -91 
Q 1303 -91 875 529 
Q 447 1150 447 2328 
Q 447 3434 972 4092 
Q 1497 4750 2381 4750 
Q 2619 4750 2861 4703 
Q 3103 4656 3366 4563 
z
" transform="scale(0.015625)"/>
       </defs>
       <use xlink:href="#DejaVuSans-32"/>
       <use xlink:href="#DejaVuSans-30" transform="translate(63.623047 0)"/>
       <use xlink:href="#DejaVuSans-32" transform="translate(127.246094 0)"/>
       <use xlink:href="#DejaVuSans-36" transform="translate(190.869141 0)"/>
      </g>
     </g>
    </g>
    <g id="xtick_6">
     <g id="line2d_11">
      <path d="M 561.159049 455.237812 
L 561.159049 38.397812 
" clip-path="url(#pc0c4b9a394)" style="fill: none; stroke: #30363d; stroke-opacity: 0.25; stroke-width: 0.5; stroke-linecap: square"/>
     </g>
     <g id="line2d_12">
      <g>
       <use xlink:href="#mdb3a4b338d" x="561.159049" y="455.237812" style="fill: #c9d1d9; stroke: #c9d1d9; stroke-width: 0.8"/>
      </g>
     </g>
     <g id="text_6">
      <!-- Feb -->
      <g style="fill: #c9d1d9" transform="translate(552.307486 469.83625) scale(0.1 -0.1)">
       <defs>
        <path id="DejaVuSans-46" d="M 628 4666 
L 3309 4666 
L 3309 4134 
L 1259 4134 
L 1259 2759 
L 3109 2759 
L 3109 2228 
L 1259 2228 
L 1259 0 
L 628 0 
L 628 4666 
z
" transform="scale(0.015625)"/>
        <path id="DejaVuSans-62" d="M 3116 1747 
Q 3116 2381 2855 2742 
Q 2594 3103 2138 3103 
Q 1681 3103 1420 2742 
Q 1159 2381 1159 1747 
Q 1159 1113 1420 752 
Q 1681 391 2138 391 
Q 2594 391 2855 752 
Q 3116 1113 3116 1747 
z
M 1159 2969 
Q 1341 3281 1617 3432 
Q 1894 3584 2278 3584 
Q 2916 3584 3314 3078 
Q 3713 2572 3713 1747 
Q 3713 922 3314 415 
Q 2916 -91 2278 -91 
Q 1894 -91 1617 61 
Q 1341 213 1159 525 
L 1159 0 
L 581 0 
L 581 4863 
L 1159 4863 
L 1159 2969 
z
" transform="scale(0.015625)"/>
       </defs>
       <use xlink:href="#DejaVuSans-46"/>
       <use xlink:href="#DejaVuSans-65" transform="translate(52.019531 0)"/>
       <use xlink:href="#DejaVuSans-62" transform="translate(113.542969 0)"/>
      </g>
     </g>
    </g>
    <g id="xtick_7">
     <g id="line2d_13">
      <path d="M 648.16431 455.237812 
L 648.16431 38.397812 
" clip-path="url(#pc0c4b9a394)" style="fill: none; stroke: #30363d; stroke-opacity: 0.25; stroke-width: 0.5; stroke-linecap: square"/>
     </g>
     <g id="line2d_14">
      <g>
       <use xlink:href="#mdb3a4b338d" x="648.16431" y="455.237812" style="fill: #c9d1d9; stroke: #c9d1d9; stroke-width: 0.8"/>
      </g>
     </g>
     <g id="text_7">
      <!-- Mar -->
      <g style="fill: #c9d1d9" transform="translate(638.730717 469.83625) scale(0.1 -0.1)">
       <defs>
        <path id="DejaVuSans-4d" d="M 628 4666 
L 1569 4666 
L 2759 1491 
L 3956 4666 
L 4897 4666 
L 4897 0 
L 4281 0 
L 4281 4097 
L 3078 897 
L 2444 897 
L 1241 4097 
L 1241 0 
L 628 0 
L 628 4666 
z
" transform="scale(0.015625)"/>
        <path id="DejaVuSans-61" d="M 2194 1759 
Q 1497 1759 1228 1600 
Q 959 1441 959 1056 
Q 959 750 1161 570 
Q 1363 391 1709 391 
Q 2188 391 2477 730 
Q 2766 1069 2766 1631 
L 2766 1759 
L 2194 1759 
z
M 3341 1997 
L 3341 0 
L 2766 0 
L 2766 531 
Q 2569 213 2275 61 
Q 1981 -91 1556 -91 
Q 1019 -91 701 211 
Q 384 513 384 1019 
Q 384 1609 779 1909 
Q 1175 2209 1959 2209 
L 2766 2209 
L 2766 2266 
Q 2766 2663 2505 2880 
Q 2244 3097 1772 3097 
Q 1472 3097 1187 3025 
Q 903 2953 641 2809 
L 641 3341 
Q 956 3463 1253 3523 
Q 1550 3584 1831 3584 
Q 2591 3584 2966 3190 
Q 3341 2797 3341 1997 
z
" transform="scale(0.015625)"/>
        <path id="DejaVuSans-72" d="M 2631 2963 
Q 2534 3019 2420 3045 
Q 2306 3072 2169 3072 
Q 1681 3072 1420 2755 
Q 1159 2438 1159 1844 
L 1159 0 
L 581 0 
L 581 3500 
L 1159 3500 
L 1159 2956 
Q 1341 3275 1631 3429 
Q 1922 3584 2338 3584 
Q 2397 3584 2469 3576 
Q 2541 3569 2628 3553 
L 2631 2963 
z
" transform="scale(0.015625)"/>
       </defs>
       <use xlink:href="#DejaVuSans-4d"/>
       <use xlink:href="#DejaVuSans-61" transform="translate(86.279297 0)"/>
       <use xlink:href="#DejaVuSans-72" transform="translate(147.558594 0)"/>
      </g>
     </g>
    </g>
    <g id="xtick_8">
     <g id="line2d_15">
      <path d="M 744.491564 455.237812 
L 744.491564 38.397812 
" clip-path="url(#pc0c4b9a394)" style="fill: none; stroke: #30363d; stroke-opacity: 0.25; stroke-width: 0.5; stroke-linecap: square"/>
     </g>
     <g id="line2d_16">
      <g>
       <use xlink:href="#mdb3a4b338d" x="744.491564" y="455.237812" style="fill: #c9d1d9; stroke: #c9d1d9; stroke-width: 0.8"/>
      </g>
     </g>
     <g id="text_8">
      <!-- Apr -->
      <g style="fill: #c9d1d9" transform="translate(735.841564 469.83625) scale(0.1 -0.1)">
       <defs>
        <path id="DejaVuSans-41" d="M 2188 4044 
L 1331 1722 
L 3047 1722 
L 2188 4044 
z
M 1831 4666 
L 2547 4666 
L 4325 0 
L 3669 0 
L 3244 1197 
L 1141 1197 
L 716 0 
L 50 0 
L 1831 4666 
z
" transform="scale(0.015625)"/>
       </defs>
       <use xlink:href="#DejaVuSans-41"/>
       <use xlink:href="#DejaVuSans-70" transform="translate(68.408203 0)"/>
       <use xlink:href="#DejaVuSans-72" transform="translate(131.884766 0)"/>
      </g>
     </g>
    </g>
    <g id="xtick_9">
     <g id="line2d_17">
      <path d="M 837.711488 455.237812 
L 837.711488 38.397812 
" clip-path="url(#pc0c4b9a394)" style="fill: none; stroke: #30363d; stroke-opacity: 0.25; stroke-width: 0.5; stroke-linecap: square"/>
     </g>
     <g id="line2d_18">
      <g>
       <use xlink:href="#mdb3a4b338d" x="837.711488" y="455.237812" style="fill: #c9d1d9; stroke: #c9d1d9; stroke-width: 0.8"/>
      </g>
     </g>
     <g id="text_9">
      <!-- May -->
      <g style="fill: #c9d1d9" transform="translate(827.373988 469.83625) scale(0.1 -0.1)">
       <defs>
        <path id="DejaVuSans-79" d="M 2059 -325 
Q 1816 -950 1584 -1140 
Q 1353 -1331 966 -1331 
L 506 -1331 
L 506 -850 
L 844 -850 
Q 1081 -850 1212 -737 
Q 1344 -625 1503 -206 
L 1606 56 
L 191 3500 
L 800 3500 
L 1894 763 
L 2988 3500 
L 3597 3500 
L 2059 -325 
z
" transform="scale(0.015625)"/>
       </defs>
       <use xlink:href="#DejaVuSans-4d"/>
       <use xlink:href="#DejaVuSans-61" transform="translate(86.279297 0)"/>
       <use xlink:href="#DejaVuSans-79" transform="translate(147.558594 0)"/>
      </g>
     </g>
    </g>
    <g id="text_10">
     <!-- Date -->
     <g style="fill: #c9d1d9" transform="translate(429.766112 485.034062) scale(0.12 -0.12)">
      <use xlink:href="#DejaVuSans-44"/>
      <use xlink:href="#DejaVuSans-61" transform="translate(77.001953 0)"/>
      <use xlink:href="#DejaVuSans-74" transform="translate(138.28125 0)"/>
      <use xlink:href="#DejaVuSans-65" transform="translate(177.490234 0)"/>
     </g>
    </g>
   </g>
   <g id="matplotlib.axis_2">
    <g id="ytick_1">
     <g id="line2d_19">
      <path d="M 48.90125 455.237812 
L 839.312849 455.237812 
" clip-path="url(#pc0c4b9a394)" style="fill: none; stroke: #30363d; stroke-opacity: 0.25; stroke-width: 0.5; stroke-linecap: square"/>
     </g>
     <g id="line2d_20">
      <defs>
       <path id="m22b315cd54" d="M 0 0 
L -3.5 0 
" style="stroke: #c9d1d9; stroke-width: 0.8"/>
      </defs>
      <g>
       <use xlink:href="#m22b315cd54" x="48.90125" y="455.237812" style="fill: #c9d1d9; stroke: #c9d1d9; stroke-width: 0.8"/>
      </g>
     </g>
     <g id="text_11">
      <!-- 0 -->
      <g style="fill: #c9d1d9" transform="translate(35.53875 459.037031) scale(0.1 -0.1)">
       <use xlink:href="#DejaVuSans-30"/>
      </g>
     </g>
    </g>
    <g id="ytick_2">
     <g id="line2d_21">
      <path d="M 48.90125 399.659146 
L 839.312849 399.659146 
" clip-path="url(#pc0c4b9a394)" style="fill: none; stroke: #30363d; stroke-opacity: 0.25; stroke-width: 0.5; stroke-linecap: square"/>
     </g>
     <g id="line2d_22">
      <g>
       <use xlink:href="#m22b315cd54" x="48.90125" y="399.659146" style="fill: #c9d1d9; stroke: #c9d1d9; stroke-width: 0.8"/>
      </g>
     </g>
     <g id="text_12">
      <!-- 100 -->
      <g style="fill: #c9d1d9" transform="translate(22.81375 403.458365) scale(0.1 -0.1)">
       <defs>
        <path id="DejaVuSans-31" d="M 794 531 
L 1825 531 
L 1825 4091 
L 703 3866 
L 703 4441 
L 1819 4666 
L 2450 4666 
L 2450 531 
L 3481 531 
L 3481 0 
L 794 0 
L 794 531 
z
" transform="scale(0.015625)"/>
       </defs>
       <use xlink:href="#DejaVuSans-31"/>
       <use xlink:href="#DejaVuSans-30" transform="translate(63.623047 0)"/>
       <use xlink:href="#DejaVuSans-30" transform="translate(127.246094 0)"/>
      </g>
     </g>
    </g>
    <g id="ytick_3">
     <g id="line2d_23">
      <path d="M 48.90125 344.080479 
L 839.312849 344.080479 
" clip-path="url(#pc0c4b9a394)" style="fill: none; stroke: #30363d; stroke-opacity: 0.25; stroke-width: 0.5; stroke-linecap: square"/>
     </g>
     <g id="line2d_24">
      <g>
       <use xlink:href="#m22b315cd54" x="48.90125" y="344.080479" style="fill: #c9d1d9; stroke: #c9d1d9; stroke-width: 0.8"/>
      </g>
     </g>
     <g id="text_13">
      <!-- 200 -->
      <g style="fill: #c9d1d9" transform="translate(22.81375 347.879698) scale(0.1 -0.1)">
       <use xlink:href="#DejaVuSans-32"/>
       <use xlink:href="#DejaVuSans-30" transform="translate(63.623047 0)"/>
       <use xlink:href="#DejaVuSans-30" transform="translate(127.246094 0)"/>
      </g>
     </g>
    </g>
    <g id="ytick_4">
     <g id="line2d_25">
      <path d="M 48.90125 288.501812 
L 839.312849 288.501812 
" clip-path="url(#pc0c4b9a394)" style="fill: none; stroke: #30363d; stroke-opacity: 0.25; stroke-width: 0.5; stroke-linecap: square"/>
     </g>
     <g id="line2d_26">
      <g>
       <use xlink:href="#m22b315cd54" x="48.90125" y="288.501812" style="fill: #c9d1d9; stroke: #c9d1d9; stroke-width: 0.8"/>
      </g>
     </g>
     <g id="text_14">
      <!-- 300 -->
      <g style="fill: #c9d1d9" transform="translate(22.81375 292.301031) scale(0.1 -0.1)">
       <defs>
        <path id="DejaVuSans-33" d="M 2597 2516 
Q 3050 2419 3304 2112 
Q 3559 1806 3559 1356 
Q 3559 666 3084 287 
Q 2609 -91 1734 -91 
Q 1441 -91 1130 -33 
Q 819 25 488 141 
L 488 750 
Q 750 597 1062 519 
Q 1375 441 1716 441 
Q 2309 441 2620 675 
Q 2931 909 2931 1356 
Q 2931 1769 2642 2001 
Q 2353 2234 1838 2234 
L 1294 2234 
L 1294 2753 
L 1863 2753 
Q 2328 2753 2575 2939 
Q 2822 3125 2822 3475 
Q 2822 3834 2567 4026 
Q 2313 4219 1838 4219 
Q 1578 4219 1281 4162 
Q 984 4106 628 3988 
L 628 4550 
Q 988 4650 1302 4700 
Q 1616 4750 1894 4750 
Q 2613 4750 3031 4423 
Q 3450 4097 3450 3541 
Q 3450 3153 3228 2886 
Q 3006 2619 2597 2516 
z
" transform="scale(0.015625)"/>
       </defs>
       <use xlink:href="#DejaVuSans-33"/>
       <use xlink:href="#DejaVuSans-30" transform="translate(63.623047 0)"/>
       <use xlink:href="#DejaVuSans-30" transform="translate(127.246094 0)"/>
      </g>
     </g>
    </g>
    <g id="ytick_5">
     <g id="line2d_27">
      <path d="M 48.90125 232.923146 
L 839.312849 232.923146 
" clip-path="url(#pc0c4b9a394)" style="fill: none; stroke: #30363d; stroke-opacity: 0.25; stroke-width: 0.5; stroke-linecap: square"/>
     </g>
     <g id="line2d_28">
      <g>
       <use xlink:href="#m22b315cd54" x="48.90125" y="232.923146" style="fill: #c9d1d9; stroke: #c9d1d9; stroke-width: 0.8"/>
      </g>
     </g>
     <g id="text_15">
      <!-- 400 -->
      <g style="fill: #c9d1d9" transform="translate(22.81375 236.722365) scale(0.1 -0.1)">
       <defs>
        <path id="DejaVuSans-34" d="M 2419 4116 
L 825 1625 
L 2419 1625 
L 2419 4116 
z
M 2253 4666 
L 3047 4666 
L 3047 1625 
L 3713 1625 
L 3713 1100 
L 3047 1100 
L 3047 0 
L 2419 0 
L 2419 1100 
L 313 1100 
L 313 1709 
L 2253 4666 
z
" transform="scale(0.015625)"/>
       </defs>
       <use xlink:href="#DejaVuSans-34"/>
       <use xlink:href="#DejaVuSans-30" transform="translate(63.623047 0)"/>
       <use xlink:href="#DejaVuSans-30" transform="translate(127.246094 0)"/>
      </g>
     </g>
    </g>
    <g id="ytick_6">
     <g id="line2d_29">
      <path d="M 48.90125 177.344479 
L 839.312849 177.344479 
" clip-path="url(#pc0c4b9a394)" style="fill: none; stroke: #30363d; stroke-opacity: 0.25; stroke-width: 0.5; stroke-linecap: square"/>
     </g>
     <g id="line2d_30">
      <g>
       <use xlink:href="#m22b315cd54" x="48.90125" y="177.344479" style="fill: #c9d1d9; stroke: #c9d1d9; stroke-width: 0.8"/>
      </g>
     </g>
     <g id="text_16">
      <!-- 500 -->
      <g style="fill: #c9d1d9" transform="translate(22.81375 181.143698) scale(0.1 -0.1)">
       <defs>
        <path id="DejaVuSans-35" d="M 691 4666 
L 3169 4666 
L 3169 4134 
L 1269 4134 
L 1269 2991 
Q 1406 3038 1543 3061 
Q 1681 3084 1819 3084 
Q 2600 3084 3056 2656 
Q 3513 2228 3513 1497 
Q 3513 744 3044 326 
Q 2575 -91 1722 -91 
Q 1428 -91 1123 -41 
Q 819 9 494 109 
L 494 744 
Q 775 591 1075 516 
Q 1375 441 1709 441 
Q 2250 441 2565 725 
Q 2881 1009 2881 1497 
Q 2881 1984 2565 2268 
Q 2250 2553 1709 2553 
Q 1456 2553 1204 2497 
Q 953 2441 691 2322 
L 691 4666 
z
" transform="scale(0.015625)"/>
       </defs>
       <use xlink:href="#DejaVuSans-35"/>
       <use xlink:href="#DejaVuSans-30" transform="translate(63.623047 0)"/>
       <use xlink:href="#DejaVuSans-30" transform="translate(127.246094 0)"/>
      </g>
     </g>
    </g>
    <g id="ytick_7">
     <g id="line2d_31">
      <path d="M 48.90125 121.765812 
L 839.312849 121.765812 
" clip-path="url(#pc0c4b9a394)" style="fill: none; stroke: #30363d; stroke-opacity: 0.25; stroke-width: 0.5; stroke-linecap: square"/>
     </g>
     <g id="line2d_32">
      <g>
       <use xlink:href="#m22b315cd54" x="48.90125" y="121.765812" style="fill: #c9d1d9; stroke: #c9d1d9; stroke-width: 0.8"/>
      </g>
     </g>
     <g id="text_17">
      <!-- 600 -->
      <g style="fill: #c9d1d9" transform="translate(22.81375 125.565031) scale(0.1 -0.1)">
       <use xlink:href="#DejaVuSans-36"/>
       <use xlink:href="#DejaVuSans-30" transform="translate(63.623047 0)"/>
       <use xlink:href="#DejaVuSans-30" transform="translate(127.246094 0)"/>
      </g>
     </g>
    </g>
    <g id="ytick_8">
     <g id="line2d_33">
      <path d="M 48.90125 66.187146 
L 839.312849 66.187146 
" clip-path="url(#pc0c4b9a394)" style="fill: none; stroke: #30363d; stroke-opacity: 0.25; stroke-width: 0.5; stroke-linecap: square"/>
     </g>
     <g id="line2d_34">
      <g>
       <use xlink:href="#m22b315cd54" x="48.90125" y="66.187146" style="fill: #c9d1d9; stroke: #c9d1d9; stroke-width: 0.8"/>
      </g>
     </g>
     <g id="text_18">
      <!-- 700 -->
      <g style="fill: #c9d1d9" transform="translate(22.81375 69.986365) scale(0.1 -0.1)">
       <defs>
        <path id="DejaVuSans-37" d="M 525 4666 
L 3525 4666 
L 3525 4397 
L 1831 0 
L 1172 0 
L 2766 4134 
L 525 4134 
L 525 4666 
z
" transform="scale(0.015625)"/>
       </defs>
       <use xlink:href="#DejaVuSans-37"/>
       <use xlink:href="#DejaVuSans-30" transform="translate(63.623047 0)"/>
       <use xlink:href="#DejaVuSans-30" transform="translate(127.246094 0)"/>
      </g>
     </g>
    </g>
    <g id="text_19">
     <!-- Count -->
     <g style="fill: #c9d1d9" transform="translate(16.318125 264.635937) rotate(-90) scale(0.12 -0.12)">
      <defs>
       <path id="DejaVuSans-43" d="M 4122 4306 
L 4122 3641 
Q 3803 3938 3442 4084 
Q 3081 4231 2675 4231 
Q 1875 4231 1450 3742 
Q 1025 3253 1025 2328 
Q 1025 1406 1450 917 
Q 1875 428 2675 428 
Q 3081 428 3442 575 
Q 3803 722 4122 1019 
L 4122 359 
Q 3791 134 3420 21 
Q 3050 -91 2638 -91 
Q 1578 -91 968 557 
Q 359 1206 359 2328 
Q 359 3453 968 4101 
Q 1578 4750 2638 4750 
Q 3056 4750 3426 4639 
Q 3797 4528 4122 4306 
z
" transform="scale(0.015625)"/>
       <path id="DejaVuSans-75" d="M 544 1381 
L 544 3500 
L 1119 3500 
L 1119 1403 
Q 1119 906 1312 657 
Q 1506 409 1894 409 
Q 2359 409 2629 706 
Q 2900 1003 2900 1516 
L 2900 3500 
L 3475 3500 
L 3475 0 
L 2900 0 
L 2900 538 
Q 2691 219 2414 64 
Q 2138 -91 1772 -91 
Q 1169 -91 856 284 
Q 544 659 544 1381 
z
M 1991 3584 
L 1991 3584 
z
" transform="scale(0.015625)"/>
       <path id="DejaVuSans-6e" d="M 3513 2113 
L 3513 0 
L 2938 0 
L 2938 2094 
Q 2938 2591 2744 2837 
Q 2550 3084 2163 3084 
Q 1697 3084 1428 2787 
Q 1159 2491 1159 1978 
L 1159 0 
L 581 0 
L 581 3500 
L 1159 3500 
L 1159 2956 
Q 1366 3272 1645 3428 
Q 1925 3584 2291 3584 
Q 2894 3584 3203 3211 
Q 3513 2838 3513 2113 
z
" transform="scale(0.015625)"/>
      </defs>
      <use xlink:href="#DejaVuSans-43"/>
      <use xlink:href="#DejaVuSans-6f" transform="translate(69.824219 0)"/>
      <use xlink:href="#DejaVuSans-75" transform="translate(131.005859 0)"/>
      <use xlink:href="#DejaVuSans-6e" transform="translate(194.384766 0)"/>
      <use xlink:href="#DejaVuSans-74" transform="translate(257.763672 0)"/>
     </g>
    </g>
   </g>
   <g id="line2d_35">
    <path d="M 84.82905 454.682026 
L 84.888571 454.682026 
L 85.032177 454.126239 
L 85.113097 454.126239 
L 85.197578 257.933546 
L 87.815252 257.933546 
L 87.826689 261.268266 
L 90.855042 261.268266 
L 91.001597 260.712479 
L 91.422022 260.712479 
L 91.762749 260.156692 
L 93.874044 259.600906 
L 93.915727 260.156692 
L 94.016931 259.600906 
L 100.554985 259.600906 
L 104.499281 260.712479 
L 105.086149 259.600906 
L 105.514666 259.600906 
L 106.594679 259.045119 
L 107.046537 256.821972 
L 107.926372 256.821972 
L 109.208505 260.712479 
L 109.291691 256.821972 
L 110.275536 256.266186 
L 112.836026 256.266186 
L 113.511403 255.710399 
L 114.514596 255.710399 
L 114.783503 254.598826 
L 121.036431 254.598826 
L 121.492496 253.487252 
L 121.515873 252.375679 
L 123.484892 252.375679 
L 126.388304 251.264106 
L 127.911364 251.264106 
L 127.934417 250.708319 
L 131.432178 250.708319 
L 132.299857 247.929386 
L 135.045853 247.929386 
L 135.064914 247.373599 
L 150.443864 247.373599 
L 153.318576 246.817812 
L 153.416723 247.373599 
L 156.398178 246.817812 
L 166.77339 246.817812 
L 171.802123 246.262026 
L 171.899263 245.706239 
L 172.138139 245.150452 
L 174.975017 245.150452 
L 176.182417 244.594666 
L 181.161591 244.594666 
L 181.35062 247.373599 
L 181.359899 245.150452 
L 181.601976 245.150452 
L 182.804052 242.927306 
L 188.689495 242.927306 
L 193.200124 242.371519 
L 198.213392 242.371519 
L 198.433387 241.815732 
L 211.460331 241.815732 
L 212.016306 241.259946 
L 215.179418 241.259946 
L 215.201716 240.148372 
L 221.228571 240.148372 
L 221.350814 236.257866 
L 232.259092 236.257866 
L 232.262365 235.702079 
L 232.578276 235.702079 
L 233.953126 235.146292 
L 235.35031 235.146292 
L 235.794688 234.590506 
L 235.83914 235.146292 
L 236.856719 234.590506 
L 236.861358 234.034719 
L 236.88513 234.590506 
L 237.472934 234.034719 
L 242.827433 234.034719 
L 244.492193 233.478932 
L 246.467577 233.478932 
L 249.822739 232.923146 
L 252.999014 232.923146 
L 255.453014 231.811572 
L 260.823446 231.811572 
L 263.947464 230.699999 
L 264.827659 231.255786 
L 269.187956 231.255786 
L 274.106565 229.032639 
L 281.44206 229.032639 
L 283.717065 228.476852 
L 324.260359 228.476852 
L 324.587779 227.921066 
L 339.372991 227.921066 
L 339.620031 227.365279 
L 364.778513 227.365279 
L 370.318337 226.809492 
L 370.350382 227.365279 
L 374.316077 225.697919 
L 380.135956 225.697919 
L 383.313813 225.142132 
L 383.319028 224.586346 
L 389.949655 224.586346 
L 392.32946 225.142132 
L 393.184947 224.586346 
L 404.281643 224.586346 
L 404.753892 225.142132 
L 405.618982 224.586346 
L 405.916264 222.363199 
L 411.001533 222.363199 
L 411.005921 221.807412 
L 426.566743 221.807412 
L 427.472904 221.251626 
L 430.463422 221.251626 
L 430.755166 220.695839 
L 445.337934 220.695839 
L 445.35775 220.140052 
L 449.005124 220.140052 
L 449.010554 219.584266 
L 449.895604 219.584266 
L 449.941818 219.028479 
L 451.316201 219.028479 
L 451.532132 218.472692 
L 454.473738 218.472692 
L 454.920884 217.361119 
L 456.540257 215.137972 
L 460.456177 215.137972 
L 460.745295 212.359039 
L 462.058394 212.359039 
L 462.702842 211.247466 
L 466.023658 211.247466 
L 467.113309 210.691679 
L 470.232437 210.691679 
L 470.650488 210.135892 
L 479.122316 210.135892 
L 479.331053 209.580106 
L 480.114612 209.580106 
L 481.33111 209.024319 
L 495.033719 209.024319 
L 495.156826 208.468532 
L 495.596168 208.468532 
L 496.513334 207.356959 
L 497.799208 207.356959 
L 498.108394 206.801172 
L 498.406288 206.801172 
L 498.519324 206.245386 
L 501.958104 206.245386 
L 502.543534 205.689599 
L 505.536713 205.689599 
L 505.72862 205.133812 
L 507.368168 205.133812 
L 507.47322 204.578026 
L 512.56856 204.578026 
L 512.678107 204.022239 
L 515.64978 204.022239 
L 516.642328 201.799092 
L 517.742769 201.799092 
L 517.74392 201.243306 
L 522.212146 201.243306 
L 523.031309 200.687519 
L 526.452574 200.687519 
L 527.12644 200.131732 
L 527.379918 200.131732 
L 528.038355 199.575946 
L 529.72027 199.575946 
L 529.914658 199.020159 
L 534.132896 199.020159 
L 535.22021 198.464372 
L 535.299403 197.908586 
L 535.651424 197.908586 
L 536.76251 195.685439 
L 540.208303 195.685439 
L 540.233118 195.129652 
L 543.512503 195.129652 
L 543.703187 194.573866 
L 544.197806 194.573866 
L 544.572808 194.018079 
L 544.65103 194.573866 
L 544.931841 194.018079 
L 546.179449 194.018079 
L 546.191389 193.462292 
L 546.522694 193.462292 
L 546.667774 192.906506 
L 547.670248 192.350719 
L 554.645055 192.350719 
L 555.73521 191.794932 
L 556.464965 191.794932 
L 557.057013 191.239146 
L 557.655929 191.794932 
L 560.121905 191.794932 
L 560.228252 190.683359 
L 563.768344 190.683359 
L 565.141899 189.015999 
L 580.050865 189.015999 
L 580.917357 188.460212 
L 603.930162 188.460212 
L 604.071539 187.904426 
L 637.886454 187.904426 
L 638.035419 187.348639 
L 638.046101 186.792852 
L 638.05671 187.348639 
L 642.985174 187.348639 
L 644.097951 186.792852 
L 663.514417 186.792852 
L 667.50989 186.237066 
L 667.548732 185.681279 
L 667.879497 185.681279 
L 668.915562 185.125492 
L 700.077702 185.125492 
L 700.255402 184.569706 
L 728.091727 184.569706 
L 731.648686 184.013919 
L 733.824429 184.013919 
L 734.060536 183.458132 
L 735.57277 182.902346 
L 739.813593 182.902346 
L 741.599661 182.346559 
L 743.468591 182.346559 
L 743.614139 181.790772 
L 746.688167 181.790772 
L 747.055364 181.234986 
L 747.128048 180.679199 
L 752.601086 180.679199 
L 752.622305 180.123412 
L 757.282331 180.123412 
L 757.292616 179.567626 
L 758.871529 179.011839 
L 761.674528 179.011839 
L 763.691632 178.456052 
L 765.496797 178.456052 
L 768.157377 175.121332 
L 771.263557 175.121332 
L 771.277943 172.342399 
L 786.895912 172.342399 
L 786.89753 171.786612 
L 787.16766 171.230826 
L 788.663566 171.230826 
L 788.988937 170.675039 
L 793.895606 170.675039 
L 795.02989 170.119252 
L 795.216509 170.675039 
L 803.385049 170.675039 
L 803.385049 170.675039 
" clip-path="url(#pc0c4b9a394)" style="fill: none; stroke: #3fb950; stroke-width: 2; stroke-linecap: square"/>
   </g>
   <g id="line2d_36">
    <path d="M 84.82905 455.237812 
L 84.926334 453.570452 
L 85.032177 453.570452 
L 85.113097 372.981386 
L 86.580412 372.981386 
L 86.610586 370.758239 
L 88.123144 370.758239 
L 88.512855 369.090879 
L 89.043116 370.758239 
L 89.047036 369.090879 
L 89.485802 369.090879 
L 89.655375 367.979306 
L 93.988411 367.979306 
L 93.992547 367.423519 
L 94.016931 367.979306 
L 94.2302 367.423519 
L 94.292742 367.979306 
L 94.459546 367.423519 
L 95.980088 367.423519 
L 96.059641 366.867732 
L 96.276327 366.311946 
L 97.993091 366.311946 
L 99.946754 365.756159 
L 100.015518 365.200372 
L 100.543548 364.644586 
L 100.554985 364.088799 
L 104.499281 367.979306 
L 105.086149 366.311946 
L 105.514666 363.533012 
L 107.926372 363.533012 
L 109.208505 367.979306 
L 109.291691 363.533012 
L 132.720426 363.533012 
L 133.439356 362.977226 
L 135.064914 362.977226 
L 139.504585 362.421439 
L 140.586037 361.865652 
L 155.995017 361.865652 
L 156.398178 361.309866 
L 158.469516 360.754079 
L 159.786032 360.754079 
L 161.245327 360.198292 
L 161.284636 359.086719 
L 162.287757 358.530932 
L 162.961947 357.975146 
L 172.249773 357.975146 
L 174.101224 357.419359 
L 174.66094 357.419359 
L 174.975017 356.863572 
L 176.182417 356.863572 
L 177.38194 356.307786 
L 181.161591 356.307786 
L 181.35062 358.530932 
L 181.359899 356.307786 
L 182.804052 356.307786 
L 182.949025 355.751999 
L 184.993174 355.751999 
L 187.004344 355.196212 
L 187.053147 354.640426 
L 193.200124 354.640426 
L 195.792839 354.084639 
L 195.799384 353.528852 
L 204.427118 353.528852 
L 208.026084 352.973066 
L 210.726225 352.973066 
L 211.460331 352.417279 
L 215.581896 352.417279 
L 217.932678 351.861492 
L 218.061539 351.305706 
L 220.353447 351.305706 
L 220.619441 350.749919 
L 221.350814 350.194132 
L 222.983494 350.194132 
L 224.014307 349.638346 
L 225.904277 349.638346 
L 227.137786 349.082559 
L 229.769235 349.082559 
L 230.665722 347.970986 
L 237.472934 347.970986 
L 239.411563 347.415199 
L 241.684806 347.415199 
L 242.197443 346.859412 
L 242.354212 346.303626 
L 242.827433 345.747839 
L 250.655605 345.747839 
L 252.088861 345.192052 
L 252.999014 344.636266 
L 275.259335 344.636266 
L 280.256239 344.080479 
L 280.31594 343.524692 
L 283.717065 343.524692 
L 286.624073 342.968906 
L 291.762174 342.968906 
L 292.196337 342.413119 
L 300.946746 342.413119 
L 307.796612 341.857332 
L 307.862356 341.301546 
L 308.757871 341.301546 
L 310.572243 340.745759 
L 310.673447 339.078399 
L 310.753288 338.522612 
L 314.543189 337.966826 
L 314.770124 337.411039 
L 314.860575 336.299466 
L 315.20382 335.743679 
L 327.536543 335.743679 
L 331.040058 335.187892 
L 333.270287 334.632106 
L 335.017441 334.632106 
L 339.068372 334.076319 
L 339.372991 331.853172 
L 339.620031 331.853172 
L 340.202476 330.741599 
L 347.88625 330.185812 
L 348.130809 329.630026 
L 348.202954 329.074239 
L 349.826282 329.074239 
L 351.359196 328.518452 
L 351.535386 327.962666 
L 351.65504 326.851092 
L 352.669706 326.295306 
L 352.744188 325.739519 
L 354.595495 325.183732 
L 357.028996 324.627946 
L 357.202057 324.072159 
L 357.205725 323.516372 
L 357.695202 322.960586 
L 357.78166 322.404799 
L 361.311682 321.849012 
L 361.944513 321.293226 
L 376.805286 321.293226 
L 379.269716 320.737439 
L 379.49399 320.181652 
L 389.565914 320.181652 
L 389.949655 319.070079 
L 394.146098 319.070079 
L 395.413054 318.514292 
L 395.474949 317.402719 
L 395.800284 316.846932 
L 397.95452 316.291146 
L 398.003036 315.735359 
L 398.263059 315.179572 
L 398.310137 313.512212 
L 398.52952 312.956426 
L 398.826335 312.956426 
L 398.837268 312.400639 
L 400.635672 311.844852 
L 401.342697 311.289066 
L 401.513781 310.733279 
L 404.753892 310.177492 
L 407.141718 310.177492 
L 407.970879 309.621706 
L 416.948511 309.621706 
L 419.922737 309.065919 
L 419.93457 308.510132 
L 420.469469 307.954346 
L 427.472904 307.954346 
L 429.437931 307.398559 
L 430.247419 306.842772 
L 430.463422 305.731199 
L 436.128474 305.731199 
L 436.514445 305.175412 
L 439.6253 305.175412 
L 441.114625 304.619626 
L 445.35775 304.619626 
L 447.922916 304.063839 
L 453.249939 304.063839 
L 453.904672 303.508052 
L 456.540257 303.508052 
L 457.25764 302.952266 
L 457.568841 302.396479 
L 457.722121 301.840692 
L 459.891607 301.840692 
L 459.953286 300.729119 
L 460.745295 300.729119 
L 461.265306 299.061759 
L 463.15247 299.061759 
L 463.38685 298.505972 
L 463.568794 298.505972 
L 464.472078 297.950186 
L 465.971042 297.950186 
L 466.023658 297.394399 
L 467.113309 297.394399 
L 467.377972 296.838612 
L 468.402132 296.838612 
L 469.97022 295.727039 
L 470.650488 295.727039 
L 473.281469 294.615466 
L 473.285425 294.059679 
L 473.787741 293.503892 
L 475.069371 292.948106 
L 475.26865 292.392319 
L 476.546468 291.836532 
L 478.635285 291.836532 
L 478.943356 291.280746 
L 479.122316 290.724959 
L 481.878561 290.724959 
L 481.950886 290.169172 
L 482.676649 290.169172 
L 482.732358 289.613386 
L 483.130628 289.057599 
L 484.516412 289.057599 
L 484.621824 288.501812 
L 484.859225 288.501812 
L 484.980857 287.946026 
L 485.013908 287.946026 
L 485.127196 287.390239 
L 486.965844 287.390239 
L 487.351743 286.834452 
L 487.675783 286.834452 
L 487.869452 286.278666 
L 488.364035 286.278666 
L 488.734325 285.722879 
L 488.812404 285.167092 
L 488.918248 285.167092 
L 490.779661 284.611306 
L 492.172601 284.611306 
L 492.278049 284.055519 
L 497.772846 284.055519 
L 497.799208 283.499732 
L 498.108394 283.499732 
L 498.723603 282.388159 
L 500.691759 282.388159 
L 500.863849 280.720799 
L 500.914055 279.609226 
L 501.238419 279.053439 
L 502.543534 279.053439 
L 503.159066 278.497652 
L 503.75568 278.497652 
L 503.948054 277.941866 
L 504.872881 277.386079 
L 505.72862 277.386079 
L 507.44898 276.830292 
L 507.563419 276.274506 
L 507.998949 276.274506 
L 508.086091 275.718719 
L 509.615408 275.718719 
L 509.657883 275.162932 
L 517.074513 275.162932 
L 517.189096 274.607146 
L 517.409738 274.607146 
L 517.507561 273.495572 
L 518.462562 273.495572 
L 518.539598 272.939786 
L 518.665797 272.939786 
L 519.327256 272.383999 
L 519.493519 271.828212 
L 519.797311 271.828212 
L 520.054385 271.272426 
L 520.138183 270.716639 
L 523.864858 270.716639 
L 524.805509 270.160852 
L 524.991301 269.049279 
L 525.220251 268.493492 
L 525.602445 268.493492 
L 525.835387 267.937706 
L 531.183593 267.937706 
L 531.536656 266.270346 
L 532.267418 266.270346 
L 532.3747 265.714559 
L 535.230244 265.714559 
L 535.299403 264.602986 
L 538.729048 264.602986 
L 538.764581 264.047199 
L 540.416717 264.047199 
L 540.42783 263.491412 
L 541.232355 263.491412 
L 541.254114 262.935626 
L 543.703187 262.935626 
L 543.824998 262.379839 
L 543.980185 262.379839 
L 544.197806 261.824052 
L 544.639558 261.824052 
L 544.65103 261.268266 
L 544.931841 261.268266 
L 545.467532 260.712479 
L 549.794346 260.712479 
L 550.10882 260.156692 
L 551.392644 260.156692 
L 551.395017 259.600906 
L 561.210658 259.600906 
L 562.87664 259.045119 
L 562.924941 258.489332 
L 563.768344 257.933546 
L 565.050801 257.933546 
L 565.141899 256.821972 
L 565.37387 256.821972 
L 565.470434 256.266186 
L 568.876414 256.266186 
L 569.491479 255.710399 
L 575.382927 255.710399 
L 575.401054 255.154612 
L 577.325261 255.154612 
L 578.147589 254.598826 
L 587.204307 254.598826 
L 587.317343 253.487252 
L 590.879193 253.487252 
L 591.587657 252.931466 
L 592.346328 252.931466 
L 593.27378 252.375679 
L 599.404249 252.375679 
L 599.991297 251.819892 
L 600.499978 251.819892 
L 600.749392 251.264106 
L 602.702335 250.708319 
L 603.658343 250.708319 
L 603.970083 250.152532 
L 604.071539 250.152532 
L 606.815233 249.596746 
L 611.866911 249.596746 
L 612.262232 249.040959 
L 631.760337 249.040959 
L 632.472758 248.485172 
L 636.981732 248.485172 
L 637.144687 247.929386 
L 637.437582 247.929386 
L 637.525874 247.373599 
L 662.706583 247.373599 
L 663.514417 246.817812 
L 669.526706 246.817812 
L 670.832756 246.262026 
L 670.920294 245.706239 
L 674.048448 245.706239 
L 674.178244 245.150452 
L 684.310659 245.150452 
L 684.331411 244.594666 
L 692.884842 244.594666 
L 692.976911 244.038879 
L 693.532455 243.483092 
L 695.631413 243.483092 
L 695.636233 242.927306 
L 696.062771 242.371519 
L 699.214231 242.371519 
L 700.255402 241.815732 
L 706.975437 241.815732 
L 707.022766 240.704159 
L 749.619703 240.704159 
L 752.622305 240.148372 
L 756.399942 240.148372 
L 756.525458 239.592586 
L 773.273503 239.592586 
L 773.301628 239.036799 
L 790.791548 239.036799 
L 790.971838 238.481012 
L 792.012398 238.481012 
L 792.039516 237.925226 
L 792.274687 237.369439 
L 793.189516 236.257866 
L 793.323987 235.146292 
L 793.401706 234.034719 
L 793.636015 233.478932 
L 793.690213 232.923146 
L 793.895606 232.367359 
L 795.216509 232.367359 
L 795.380723 231.811572 
L 795.388456 231.255786 
L 795.883794 230.699999 
L 803.385049 230.699999 
L 803.385049 230.699999 
" clip-path="url(#pc0c4b9a394)" style="fill: none; stroke: #58a6ff; stroke-width: 2; stroke-linecap: square"/>
   </g>
   <g id="line2d_37">
    <path d="M 84.82905 455.237812 
L 87.815252 455.237812 
L 87.826689 454.126239 
L 90.291982 454.126239 
L 90.855042 453.570452 
L 242.827433 453.570452 
L 244.492193 453.014666 
L 286.624073 453.014666 
L 287.793315 452.458879 
L 327.536543 452.458879 
L 331.040058 451.903092 
L 340.202476 451.903092 
L 348.202954 450.235732 
L 349.826282 449.124159 
L 352.744188 449.124159 
L 354.595495 448.568372 
L 357.205725 448.012586 
L 357.78166 448.012586 
L 361.311682 447.456799 
L 361.944513 446.901012 
L 364.778513 446.345226 
L 370.318337 445.789439 
L 370.350382 446.345226 
L 379.49399 446.345226 
L 380.135956 445.789439 
L 393.184947 445.789439 
L 394.146098 445.233652 
L 398.52952 445.233652 
L 398.837268 444.677866 
L 404.281643 444.677866 
L 404.753892 444.122079 
L 424.698532 444.122079 
L 426.566743 443.566292 
L 427.351919 443.566292 
L 427.472904 443.010506 
L 432.79597 443.010506 
L 432.801041 442.454719 
L 445.337934 442.454719 
L 445.35775 441.898932 
L 449.010554 441.898932 
L 449.941818 441.343146 
L 451.313791 440.787359 
L 451.316201 440.231572 
L 451.532132 440.231572 
L 453.249939 438.564212 
L 454.407132 438.564212 
L 454.473738 436.896852 
L 454.920884 436.896852 
L 456.540257 437.452639 
L 457.704858 437.452639 
L 457.722121 435.229492 
L 462.058394 435.229492 
L 462.702842 434.673706 
L 463.38685 434.673706 
L 463.568794 434.117919 
L 479.122316 434.117919 
L 479.331053 433.562132 
L 480.114612 433.562132 
L 481.33111 433.006346 
L 486.698125 433.006346 
L 486.965844 432.450559 
L 488.812404 432.450559 
L 488.918248 431.894772 
L 495.033719 431.894772 
L 495.156826 431.338986 
L 495.596168 431.338986 
L 496.041768 430.783199 
L 496.486936 430.783199 
L 496.513334 430.227412 
L 498.406288 430.227412 
L 498.519324 429.671626 
L 507.307208 429.671626 
L 507.427006 429.115839 
L 507.47322 429.115839 
L 507.563419 428.560052 
L 508.086091 428.560052 
L 509.181785 428.004266 
L 513.465478 428.004266 
L 513.469254 427.448479 
L 514.287769 427.448479 
L 514.318915 426.892692 
L 516.642328 426.892692 
L 517.130366 426.336906 
L 520.226655 426.336906 
L 521.124688 425.781119 
L 522.871159 425.781119 
L 522.889681 424.669546 
L 523.031309 424.669546 
L 523.209549 424.113759 
L 526.019058 424.113759 
L 526.452574 423.557972 
L 527.12644 423.557972 
L 527.379918 423.002186 
L 529.024717 423.002186 
L 529.254386 422.446399 
L 529.257335 421.890612 
L 529.72027 421.890612 
L 529.914658 421.334826 
L 547.632629 421.334826 
L 547.670248 420.223252 
L 550.10882 420.223252 
L 550.810666 419.667466 
L 551.395017 419.667466 
L 554.136266 419.111679 
L 554.645055 419.111679 
L 555.73521 418.555892 
L 556.464965 418.555892 
L 557.057013 418.000106 
L 557.655929 418.555892 
L 559.583949 418.555892 
L 560.108239 418.000106 
L 560.228252 416.888532 
L 561.204076 416.332746 
L 561.210658 415.221172 
L 565.470434 415.221172 
L 566.402022 414.665386 
L 566.496429 412.998026 
L 567.427549 412.442239 
L 567.942489 411.886452 
L 572.346626 411.886452 
L 572.533498 410.219092 
L 572.758132 410.219092 
L 572.924684 409.663306 
L 574.001028 409.107519 
L 575.695279 409.107519 
L 576.044314 408.551732 
L 576.123724 407.995946 
L 576.30182 407.995946 
L 577.325261 406.884372 
L 578.421782 406.884372 
L 578.781822 406.328586 
L 580.046693 406.328586 
L 580.050865 405.217012 
L 580.917357 405.217012 
L 582.067681 404.661226 
L 585.115274 403.549652 
L 585.387346 402.993866 
L 591.587657 402.993866 
L 592.346328 401.882292 
L 603.930162 401.882292 
L 604.071539 400.770719 
L 609.709869 400.770719 
L 610.571362 400.214932 
L 613.185656 400.214932 
L 613.332391 399.659146 
L 629.415813 399.659146 
L 629.672528 399.103359 
L 631.26561 399.103359 
L 631.760337 398.547572 
L 634.733521 398.547572 
L 635.292696 397.991786 
L 635.296365 397.435999 
L 635.935885 396.880212 
L 637.886454 396.880212 
L 638.035419 396.324426 
L 638.046101 395.212852 
L 638.05671 395.768639 
L 639.367471 395.212852 
L 644.097951 395.212852 
L 645.031049 394.101279 
L 653.566319 394.101279 
L 654.226231 393.545492 
L 656.296814 393.545492 
L 656.462574 392.989706 
L 656.485375 392.433919 
L 663.514417 392.433919 
L 667.879497 391.322346 
L 668.915562 391.322346 
L 669.526706 390.766559 
L 678.568463 390.766559 
L 679.679837 390.210772 
L 681.056953 390.210772 
L 682.390696 389.654986 
L 693.532455 389.654986 
L 693.838225 389.099199 
L 693.839879 388.543412 
L 700.077702 388.543412 
L 700.255402 387.987626 
L 728.091727 387.987626 
L 731.648686 387.431839 
L 739.813593 387.431839 
L 741.599661 386.876052 
L 743.171165 386.876052 
L 743.468591 386.320266 
L 747.128048 386.320266 
L 747.746206 385.764479 
L 748.561484 385.764479 
L 749.619703 385.208692 
L 752.156242 385.208692 
L 752.622305 384.652906 
L 752.934513 384.652906 
L 754.071134 384.097119 
L 765.052204 384.097119 
L 765.082918 382.429759 
L 774.664501 382.429759 
L 778.727588 381.873972 
L 778.730897 381.318186 
L 783.495327 381.318186 
L 783.695325 380.762399 
L 783.698274 380.206612 
L 785.926885 380.206612 
L 786.89753 379.650826 
L 787.591897 379.650826 
L 788.663566 379.095039 
L 789.813602 379.095039 
L 790.012342 377.983466 
L 790.971838 377.983466 
L 791.163061 377.427679 
L 793.322117 377.427679 
L 793.401706 376.871892 
L 796.804809 376.871892 
L 799.270209 376.316106 
L 800.078871 376.316106 
L 800.872715 375.760319 
L 802.512587 375.204532 
L 802.5196 374.648746 
L 802.971817 372.981386 
L 803.385049 372.425599 
L 803.385049 372.425599 
" clip-path="url(#pc0c4b9a394)" style="fill: none; stroke: #d29922; stroke-width: 2; stroke-linecap: square"/>
   </g>
   <g id="line2d_38">
    <path d="M 84.82905 454.682026 
L 85.08447 454.682026 
L 85.197578 432.450559 
L 85.78869 426.892692 
L 86.126468 425.781119 
L 86.297839 426.336906 
L 86.610586 425.781119 
L 87.139516 425.225332 
L 87.506497 424.113759 
L 87.815252 423.557972 
L 87.826689 423.002186 
L 88.123144 421.334826 
L 88.512855 421.334826 
L 89.043116 420.779039 
L 89.047036 420.223252 
L 89.47397 419.667466 
L 89.591682 419.111679 
L 89.655375 419.111679 
L 90.291982 418.555892 
L 90.746825 418.000106 
L 90.855042 411.886452 
L 90.929884 412.442239 
L 91.214615 406.328586 
L 91.219686 407.995946 
L 91.422022 402.993866 
L 93.992547 402.993866 
L 94.2302 399.659146 
L 94.292742 402.438079 
L 94.582508 397.991786 
L 94.726006 397.435999 
L 95.795122 396.880212 
L 95.827382 396.324426 
L 96.059641 395.768639 
L 96.276327 395.768639 
L 96.826907 395.212852 
L 97.121025 394.657066 
L 97.254237 393.545492 
L 97.335265 392.989706 
L 97.610034 392.433919 
L 97.616831 391.878132 
L 97.893182 392.433919 
L 97.971836 391.878132 
L 97.981511 392.433919 
L 97.993091 390.766559 
L 100.554985 390.766559 
L 104.499281 402.993866 
L 105.086149 390.210772 
L 105.514666 389.654986 
L 107.046537 389.654986 
L 107.326736 389.099199 
L 107.926372 388.543412 
L 109.208505 402.993866 
L 109.291691 387.987626 
L 110.275536 387.431839 
L 112.379493 386.876052 
L 112.529537 387.431839 
L 112.836026 385.764479 
L 113.511403 385.764479 
L 113.716617 385.208692 
L 114.104206 384.652906 
L 114.136358 383.541332 
L 114.493881 382.429759 
L 114.514596 382.985546 
L 114.727254 382.985546 
L 114.843851 381.873972 
L 115.202777 379.650826 
L 115.249962 378.539252 
L 115.710451 376.871892 
L 115.935517 377.983466 
L 117.526873 374.648746 
L 117.945895 375.760319 
L 119.67032 373.537172 
L 121.036431 377.427679 
L 121.515873 373.537172 
L 123.484892 371.869812 
L 126.388304 371.869812 
L 126.771758 371.314026 
L 127.076916 369.646666 
L 127.934417 371.314026 
L 131.432178 371.869812 
L 132.299857 369.646666 
L 132.720426 367.979306 
L 133.439356 369.646666 
L 135.064914 367.979306 
L 140.586037 367.979306 
L 146.39153 367.423519 
L 146.778688 366.867732 
L 150.443864 366.311946 
L 152.867438 366.311946 
L 153.318576 365.756159 
L 153.416723 366.311946 
L 155.995017 364.644586 
L 158.413376 364.644586 
L 158.469516 364.088799 
L 159.786032 363.533012 
L 162.961947 363.533012 
L 164.362907 359.642506 
L 165.405625 359.086719 
L 166.747352 358.530932 
L 166.77339 357.975146 
L 171.802123 357.975146 
L 171.899263 354.084639 
L 172.08538 354.084639 
L 172.249773 352.973066 
L 174.101224 352.973066 
L 174.66094 352.417279 
L 177.38194 352.417279 
L 181.161591 351.861492 
L 181.35062 363.533012 
L 181.359899 352.417279 
L 181.601976 351.861492 
L 182.949025 351.861492 
L 184.993174 351.305706 
L 187.053147 351.305706 
L 188.689495 350.749919 
L 193.200124 349.638346 
L 195.799384 349.638346 
L 197.888345 349.082559 
L 198.213392 346.303626 
L 198.433387 346.303626 
L 198.822666 345.747839 
L 200.853185 345.192052 
L 201.322557 342.968906 
L 204.128901 341.857332 
L 204.162708 342.413119 
L 204.427118 341.857332 
L 208.026084 340.745759 
L 210.726225 340.189972 
L 212.016306 340.189972 
L 213.159761 339.634186 
L 214.15069 338.522612 
L 215.201716 337.966826 
L 215.581896 337.411039 
L 218.061539 337.966826 
L 220.353447 336.855252 
L 220.619441 337.411039 
L 221.228571 337.411039 
L 221.350814 336.855252 
L 222.983494 336.299466 
L 224.014307 336.855252 
L 225.904277 335.743679 
L 227.137786 335.743679 
L 229.769235 335.187892 
L 230.205592 335.743679 
L 230.665722 334.076319 
L 232.262365 334.076319 
L 232.578276 333.520532 
L 233.953126 331.297386 
L 234.341579 330.185812 
L 235.35031 330.741599 
L 235.794688 329.630026 
L 235.83914 329.074239 
L 239.411563 329.074239 
L 241.2209 328.518452 
L 241.684806 327.962666 
L 244.492193 327.962666 
L 246.467577 327.406879 
L 249.822739 327.406879 
L 250.655605 326.851092 
L 259.881716 326.851092 
L 260.41158 326.295306 
L 260.464664 325.739519 
L 260.823446 325.183732 
L 264.827659 325.183732 
L 265.077216 324.627946 
L 266.095982 324.072159 
L 266.272423 323.516372 
L 267.960308 322.960586 
L 269.187956 322.404799 
L 274.106565 322.404799 
L 275.259335 321.293226 
L 280.31594 321.293226 
L 281.44206 320.737439 
L 286.154629 320.737439 
L 286.624073 320.181652 
L 287.793315 319.625866 
L 288.141379 319.070079 
L 288.259558 318.514292 
L 291.762174 317.958506 
L 292.196337 318.514292 
L 296.807307 317.402719 
L 300.45299 316.291146 
L 300.946746 315.735359 
L 307.862356 315.735359 
L 308.757871 315.179572 
L 315.20382 315.179572 
L 321.275775 314.623786 
L 322.039516 314.067999 
L 324.587779 313.512212 
L 327.143235 312.956426 
L 327.536543 312.400639 
L 333.270287 312.400639 
L 335.017441 311.844852 
L 348.202954 311.844852 
L 349.826282 311.289066 
L 360.717872 311.289066 
L 361.311682 310.733279 
L 361.944513 311.289066 
L 364.778513 310.733279 
L 374.316077 310.733279 
L 375.594182 310.177492 
L 395.770505 310.177492 
L 395.800284 309.621706 
L 408.261184 309.621706 
L 410.998908 309.065919 
L 411.005921 308.510132 
L 424.692454 308.510132 
L 424.698532 307.398559 
L 432.801041 307.398559 
L 436.514445 306.842772 
L 441.114625 306.842772 
L 445.35775 305.731199 
L 453.904672 305.731199 
L 454.407132 305.175412 
L 454.473738 304.619626 
L 457.704858 304.619626 
L 457.722121 304.063839 
L 458.057634 304.063839 
L 458.592462 303.508052 
L 463.38685 303.508052 
L 463.568794 302.952266 
L 469.97022 302.952266 
L 470.232437 302.396479 
L 485.865763 302.396479 
L 486.696938 300.729119 
L 486.698125 300.173332 
L 488.912961 300.173332 
L 488.918248 299.617546 
L 495.451231 299.617546 
L 495.596168 299.061759 
L 498.723603 299.061759 
L 498.835956 298.505972 
L 510.454208 298.505972 
L 510.677619 297.950186 
L 513.37438 297.950186 
L 513.469254 297.394399 
L 514.318915 296.838612 
L 535.651424 296.838612 
L 536.76251 295.727039 
L 538.425651 295.727039 
L 538.764581 295.171252 
L 540.42783 295.171252 
L 540.67433 294.615466 
L 544.604061 294.615466 
L 544.65103 294.059679 
L 566.400188 294.059679 
L 566.496429 292.948106 
L 593.682013 292.948106 
L 594.388067 292.392319 
L 640.804396 292.392319 
L 642.985174 291.836532 
L 662.601063 291.836532 
L 662.706583 291.280746 
L 671.488568 291.280746 
L 671.915431 290.724959 
L 803.385049 290.724959 
L 803.385049 290.724959 
" clip-path="url(#pc0c4b9a394)" style="fill: none; stroke: #f85149; stroke-width: 2; stroke-linecap: square"/>
   </g>
   <g id="line2d_39">
    <path d="M 84.82905 454.682026 
L 84.84937 454.126239 
L 85.009577 -1 
M 85.15357 -1 
L 85.197578 101.201706 
L 87.815252 101.201706 
L 87.826689 97.866986 
L 90.855042 97.866986 
L 91.001597 98.422772 
L 91.422022 98.422772 
L 91.762749 98.978559 
L 93.874044 99.534346 
L 93.915727 98.978559 
L 94.016931 99.534346 
L 100.554985 99.534346 
L 104.499281 98.422772 
L 105.086149 99.534346 
L 105.514666 98.978559 
L 106.594679 99.534346 
L 107.046537 96.755412 
L 107.926372 96.755412 
L 109.208505 98.422772 
L 109.291691 95.643839 
L 110.275536 96.199626 
L 112.836026 96.199626 
L 113.511403 95.088052 
L 114.514596 95.088052 
L 114.783503 91.197546 
L 121.036431 91.197546 
L 121.492496 87.862826 
L 121.515873 86.751252 
L 123.484892 86.751252 
L 126.388304 82.860746 
L 127.911364 82.860746 
L 127.934417 83.416532 
L 131.432178 83.416532 
L 132.299857 80.081812 
L 135.045853 80.081812 
L 135.064914 80.637599 
L 150.443864 80.637599 
L 153.318576 81.193386 
L 153.416723 80.637599 
L 156.398178 81.193386 
L 166.77339 81.193386 
L 171.802123 81.749172 
L 171.899263 74.523946 
L 172.138139 75.079732 
L 174.975017 75.079732 
L 176.182417 75.635519 
L 181.161591 75.635519 
L 181.35062 80.637599 
L 181.359899 71.745012 
L 181.601976 71.745012 
L 182.804052 73.968159 
L 188.689495 73.968159 
L 193.200124 70.077652 
L 198.213392 70.077652 
L 198.433387 68.410292 
L 211.460331 68.410292 
L 212.016306 68.966079 
L 215.179418 68.966079 
L 215.201716 70.077652 
L 221.228571 70.077652 
L 221.350814 73.412372 
L 230.665722 73.412372 
L 230.888198 68.410292 
L 232.259092 67.298719 
L 232.262365 67.854506 
L 232.578276 67.854506 
L 233.703821 65.075572 
L 235.35031 65.075572 
L 235.794688 65.631359 
L 235.83914 65.075572 
L 236.856719 65.631359 
L 236.861358 66.187146 
L 236.88513 65.631359 
L 237.472934 63.408212 
L 242.827433 63.408212 
L 244.492193 63.963999 
L 246.467577 63.963999 
L 249.822739 64.519786 
L 252.999014 64.519786 
L 255.453014 65.631359 
L 260.464664 65.075572 
L 260.823446 65.075572 
L 263.947464 66.187146 
L 264.827659 65.631359 
L 269.187956 65.631359 
L 274.103904 67.854506 
L 274.106565 67.298719 
L 281.44206 67.298719 
L 283.717065 67.854506 
L 324.260359 67.854506 
L 324.587779 68.410292 
L 327.125001 68.410292 
L 327.143235 66.742932 
L 339.372991 66.742932 
L 339.620031 67.298719 
L 364.778513 67.298719 
L 370.318337 67.854506 
L 370.350382 67.298719 
L 374.316077 68.966079 
L 375.594182 68.966079 
L 376.805286 68.410292 
L 380.135956 68.410292 
L 383.313813 68.966079 
L 383.319028 69.521866 
L 392.32946 67.854506 
L 393.184947 68.410292 
L 404.281643 68.410292 
L 404.753892 67.854506 
L 405.618982 68.410292 
L 405.916264 70.633439 
L 411.001533 70.633439 
L 411.005921 71.189226 
L 426.566743 71.189226 
L 427.472904 71.745012 
L 430.463422 71.745012 
L 430.755166 72.300799 
L 445.337934 72.300799 
L 445.35775 72.856586 
L 447.922916 72.856586 
L 449.005124 73.412372 
L 449.010554 73.968159 
L 449.895604 73.412372 
L 449.941818 73.968159 
L 451.316201 73.968159 
L 451.532132 74.523946 
L 454.407132 74.523946 
L 454.473738 73.412372 
L 454.920884 74.523946 
L 456.540257 72.856586 
L 460.456177 72.856586 
L 460.745295 71.189226 
L 462.058394 71.189226 
L 462.702842 72.300799 
L 466.023658 72.300799 
L 467.113309 72.856586 
L 467.377972 72.856586 
L 468.402132 70.077652 
L 470.232437 70.077652 
L 470.650488 70.633439 
L 479.122316 70.633439 
L 479.331053 71.189226 
L 480.114612 71.189226 
L 481.33111 71.745012 
L 495.033719 71.745012 
L 495.156826 72.300799 
L 495.596168 72.300799 
L 496.513334 73.412372 
L 497.799208 73.412372 
L 498.108394 72.856586 
L 498.406288 72.856586 
L 498.519324 73.412372 
L 501.958104 73.412372 
L 502.543534 73.968159 
L 505.536713 73.968159 
L 505.72862 74.523946 
L 507.368168 74.523946 
L 507.47322 75.079732 
L 512.56856 75.079732 
L 512.678107 75.635519 
L 515.64978 75.635519 
L 516.642328 77.858666 
L 517.742769 77.858666 
L 517.74392 78.414452 
L 522.212146 78.414452 
L 523.031309 78.970239 
L 526.452574 78.970239 
L 527.12644 79.526026 
L 529.72027 79.526026 
L 529.914658 80.081812 
L 534.132896 80.081812 
L 535.22021 80.637599 
L 535.299403 81.193386 
L 535.651424 81.193386 
L 536.76251 60.629279 
L 540.208303 60.629279 
L 540.233118 61.185066 
L 540.42783 61.185066 
L 540.67433 60.629279 
L 543.512503 60.629279 
L 543.703187 61.185066 
L 544.197806 61.185066 
L 544.572808 61.740852 
L 544.65103 61.185066 
L 546.179449 61.185066 
L 546.191389 61.740852 
L 546.522694 61.740852 
L 546.667774 62.296639 
L 547.670248 62.852426 
L 554.645055 62.852426 
L 555.73521 63.408212 
L 556.464965 63.408212 
L 557.057013 63.963999 
L 557.655929 63.408212 
L 560.121905 63.408212 
L 560.228252 64.519786 
L 563.768344 64.519786 
L 565.141899 66.187146 
L 580.050865 66.187146 
L 580.917357 66.742932 
L 603.930162 66.742932 
L 604.071539 67.298719 
L 637.886454 67.298719 
L 638.035419 67.854506 
L 638.046101 68.410292 
L 638.05671 67.854506 
L 642.985174 67.854506 
L 644.097951 68.410292 
L 663.514417 68.410292 
L 667.879497 68.966079 
L 668.906966 69.521866 
L 668.915562 67.854506 
L 700.077702 67.854506 
L 700.255402 68.410292 
L 728.091727 68.410292 
L 731.648686 68.966079 
L 733.824429 68.966079 
L 734.060536 69.521866 
L 735.57277 70.077652 
L 739.813593 70.077652 
L 741.599661 70.633439 
L 743.468591 70.633439 
L 743.614139 71.189226 
L 746.688167 71.189226 
L 747.055364 71.745012 
L 747.128048 72.300799 
L 752.601086 72.300799 
L 752.622305 72.856586 
L 756.525458 72.856586 
L 757.282331 72.300799 
L 757.292616 72.856586 
L 758.871529 73.412372 
L 761.674528 73.412372 
L 763.691632 73.968159 
L 765.496797 73.968159 
L 768.157377 61.740852 
L 771.263557 61.740852 
L 771.277943 64.519786 
L 786.895912 64.519786 
L 786.89753 65.075572 
L 787.16766 65.631359 
L 788.663566 65.631359 
L 788.988937 66.187146 
L 793.895606 66.187146 
L 795.02989 66.742932 
L 795.216509 66.187146 
L 803.385049 66.187146 
L 803.385049 66.187146 
" clip-path="url(#pc0c4b9a394)" style="fill: none; stroke: #9467bd; stroke-width: 2; stroke-linecap: square"/>
   </g>
   <g id="patch_3">
    <path d="M 48.90125 455.237812 
L 48.90125 38.397812 
" style="fill: none; stroke: #30363d; stroke-width: 0.8; stroke-linejoin: miter; stroke-linecap: square"/>
   </g>
   <g id="patch_4">
    <path d="M 839.312849 455.237812 
L 839.312849 38.397812 
" style="fill: none; stroke: #30363d; stroke-width: 0.8; stroke-linejoin: miter; stroke-linecap: square"/>
   </g>
   <g id="patch_5">
    <path d="M 48.90125 455.237812 
L 839.312849 455.237812 
" style="fill: none; stroke: #30363d; stroke-width: 0.8; stroke-linejoin: miter; stroke-linecap: square"/>
   </g>
   <g id="patch_6">
    <path d="M 48.90125 38.397812 
L 839.312849 38.397812 
" style="fill: none; stroke: #30363d; stroke-width: 0.8; stroke-linejoin: miter; stroke-linecap: square"/>
   </g>
   <g id="text_20">
    <!-- 512 -->
    <g style="fill: #3fb950" transform="translate(808.385049 173.158477) scale(0.09 -0.09)">
     <defs>
      <path id="DejaVuSans-Bold-35" d="M 678 4666 
L 3669 4666 
L 3669 3781 
L 1638 3781 
L 1638 3059 
Q 1775 3097 1914 3117 
Q 2053 3138 2203 3138 
Q 3056 3138 3531 2711 
Q 4006 2284 4006 1522 
Q 4006 766 3489 337 
Q 2972 -91 2053 -91 
Q 1656 -91 1267 -14 
Q 878 63 494 219 
L 494 1166 
Q 875 947 1217 837 
Q 1559 728 1863 728 
Q 2300 728 2551 942 
Q 2803 1156 2803 1522 
Q 2803 1891 2551 2103 
Q 2300 2316 1863 2316 
Q 1603 2316 1309 2248 
Q 1016 2181 678 2041 
L 678 4666 
z
" transform="scale(0.015625)"/>
      <path id="DejaVuSans-Bold-31" d="M 750 831 
L 1813 831 
L 1813 3847 
L 722 3622 
L 722 4441 
L 1806 4666 
L 2950 4666 
L 2950 831 
L 4013 831 
L 4013 0 
L 750 0 
L 750 831 
z
" transform="scale(0.015625)"/>
      <path id="DejaVuSans-Bold-32" d="M 1844 884 
L 3897 884 
L 3897 0 
L 506 0 
L 506 884 
L 2209 2388 
Q 2438 2594 2547 2791 
Q 2656 2988 2656 3200 
Q 2656 3528 2436 3728 
Q 2216 3928 1850 3928 
Q 1569 3928 1234 3808 
Q 900 3688 519 3450 
L 519 4475 
Q 925 4609 1322 4679 
Q 1719 4750 2100 4750 
Q 2938 4750 3402 4381 
Q 3866 4013 3866 3353 
Q 3866 2972 3669 2642 
Q 3472 2313 2841 1759 
L 1844 884 
z
" transform="scale(0.015625)"/>
     </defs>
     <use xlink:href="#DejaVuSans-Bold-35"/>
     <use xlink:href="#DejaVuSans-Bold-31" transform="translate(69.580078 0)"/>
     <use xlink:href="#DejaVuSans-Bold-32" transform="translate(139.160156 0)"/>
    </g>
   </g>
   <g id="text_21">
    <!-- 404 -->
    <g style="fill: #58a6ff" transform="translate(808.385049 233.183437) scale(0.09 -0.09)">
     <defs>
      <path id="DejaVuSans-Bold-34" d="M 2356 3675 
L 1038 1722 
L 2356 1722 
L 2356 3675 
z
M 2156 4666 
L 3494 4666 
L 3494 1722 
L 4159 1722 
L 4159 850 
L 3494 850 
L 3494 0 
L 2356 0 
L 2356 850 
L 288 850 
L 288 1881 
L 2156 4666 
z
" transform="scale(0.015625)"/>
      <path id="DejaVuSans-Bold-30" d="M 2944 2338 
Q 2944 3213 2780 3570 
Q 2616 3928 2228 3928 
Q 1841 3928 1675 3570 
Q 1509 3213 1509 2338 
Q 1509 1453 1675 1090 
Q 1841 728 2228 728 
Q 2613 728 2778 1090 
Q 2944 1453 2944 2338 
z
M 4147 2328 
Q 4147 1169 3647 539 
Q 3147 -91 2228 -91 
Q 1306 -91 806 539 
Q 306 1169 306 2328 
Q 306 3491 806 4120 
Q 1306 4750 2228 4750 
Q 3147 4750 3647 4120 
Q 4147 3491 4147 2328 
z
" transform="scale(0.015625)"/>
     </defs>
     <use xlink:href="#DejaVuSans-Bold-34"/>
     <use xlink:href="#DejaVuSans-Bold-30" transform="translate(69.580078 0)"/>
     <use xlink:href="#DejaVuSans-Bold-34" transform="translate(139.160156 0)"/>
    </g>
   </g>
   <g id="text_22">
    <!-- 149 -->
    <g style="fill: #d29922" transform="translate(808.385049 374.909037) scale(0.09 -0.09)">
     <defs>
      <path id="DejaVuSans-Bold-39" d="M 641 103 
L 641 966 
Q 928 831 1190 764 
Q 1453 697 1709 697 
Q 2247 697 2547 995 
Q 2847 1294 2900 1881 
Q 2688 1725 2447 1647 
Q 2206 1569 1925 1569 
Q 1209 1569 770 1986 
Q 331 2403 331 3084 
Q 331 3838 820 4291 
Q 1309 4744 2131 4744 
Q 3044 4744 3544 4128 
Q 4044 3513 4044 2388 
Q 4044 1231 3459 570 
Q 2875 -91 1856 -91 
Q 1528 -91 1228 -42 
Q 928 6 641 103 
z
M 2125 2350 
Q 2441 2350 2600 2554 
Q 2759 2759 2759 3169 
Q 2759 3575 2600 3781 
Q 2441 3988 2125 3988 
Q 1809 3988 1650 3781 
Q 1491 3575 1491 3169 
Q 1491 2759 1650 2554 
Q 1809 2350 2125 2350 
z
" transform="scale(0.015625)"/>
     </defs>
     <use xlink:href="#DejaVuSans-Bold-31"/>
     <use xlink:href="#DejaVuSans-Bold-34" transform="translate(69.580078 0)"/>
     <use xlink:href="#DejaVuSans-Bold-39" transform="translate(139.160156 0)"/>
    </g>
   </g>
   <g id="text_23">
    <!-- 296 -->
    <g style="fill: #f85149" transform="translate(808.385049 293.208397) scale(0.09 -0.09)">
     <defs>
      <path id="DejaVuSans-Bold-36" d="M 2316 2303 
Q 2000 2303 1842 2098 
Q 1684 1894 1684 1484 
Q 1684 1075 1842 870 
Q 2000 666 2316 666 
Q 2634 666 2792 870 
Q 2950 1075 2950 1484 
Q 2950 1894 2792 2098 
Q 2634 2303 2316 2303 
z
M 3803 4544 
L 3803 3681 
Q 3506 3822 3243 3889 
Q 2981 3956 2731 3956 
Q 2194 3956 1894 3657 
Q 1594 3359 1544 2772 
Q 1750 2925 1990 3001 
Q 2231 3078 2516 3078 
Q 3231 3078 3670 2659 
Q 4109 2241 4109 1563 
Q 4109 813 3618 361 
Q 3128 -91 2303 -91 
Q 1394 -91 895 523 
Q 397 1138 397 2266 
Q 397 3422 980 4083 
Q 1563 4744 2578 4744 
Q 2900 4744 3203 4694 
Q 3506 4644 3803 4544 
z
" transform="scale(0.015625)"/>
     </defs>
     <use xlink:href="#DejaVuSans-Bold-32"/>
     <use xlink:href="#DejaVuSans-Bold-39" transform="translate(69.580078 0)"/>
     <use xlink:href="#DejaVuSans-Bold-36" transform="translate(139.160156 0)"/>
    </g>
   </g>
   <g id="text_24">
    <!-- 700 -->
    <g style="fill: #9467bd" transform="translate(808.385049 68.670583) scale(0.09 -0.09)">
     <defs>
      <path id="DejaVuSans-Bold-37" d="M 428 4666 
L 3944 4666 
L 3944 3988 
L 2125 0 
L 953 0 
L 2675 3781 
L 428 3781 
L 428 4666 
z
" transform="scale(0.015625)"/>
     </defs>
     <use xlink:href="#DejaVuSans-Bold-37"/>
     <use xlink:href="#DejaVuSans-Bold-30" transform="translate(69.580078 0)"/>
     <use xlink:href="#DejaVuSans-Bold-30" transform="translate(139.160156 0)"/>
    </g>
   </g>
   <g id="text_25">
    <!-- Erdős Problems Progress -->
    <g style="fill: #c9d1d9" transform="translate(345.069081 18.397812) scale(0.14 -0.14)">
     <defs>
      <path id="DejaVuSans-Bold-45" d="M 588 4666 
L 3834 4666 
L 3834 3756 
L 1791 3756 
L 1791 2888 
L 3713 2888 
L 3713 1978 
L 1791 1978 
L 1791 909 
L 3903 909 
L 3903 0 
L 588 0 
L 588 4666 
z
" transform="scale(0.015625)"/>
      <path id="DejaVuSans-Bold-72" d="M 3138 2547 
Q 2991 2616 2845 2648 
Q 2700 2681 2553 2681 
Q 2122 2681 1889 2404 
Q 1656 2128 1656 1613 
L 1656 0 
L 538 0 
L 538 3500 
L 1656 3500 
L 1656 2925 
Q 1872 3269 2151 3426 
Q 2431 3584 2822 3584 
Q 2878 3584 2943 3579 
Q 3009 3575 3134 3559 
L 3138 2547 
z
" transform="scale(0.015625)"/>
      <path id="DejaVuSans-Bold-64" d="M 2919 2988 
L 2919 4863 
L 4044 4863 
L 4044 0 
L 2919 0 
L 2919 506 
Q 2688 197 2409 53 
Q 2131 -91 1766 -91 
Q 1119 -91 703 423 
Q 288 938 288 1747 
Q 288 2556 703 3070 
Q 1119 3584 1766 3584 
Q 2128 3584 2408 3439 
Q 2688 3294 2919 2988 
z
M 2181 722 
Q 2541 722 2730 984 
Q 2919 1247 2919 1747 
Q 2919 2247 2730 2509 
Q 2541 2772 2181 2772 
Q 1825 2772 1636 2509 
Q 1447 2247 1447 1747 
Q 1447 1247 1636 984 
Q 1825 722 2181 722 
z
" transform="scale(0.015625)"/>
      <path id="DejaVuSans-Bold-151" d="M 1881 5119 
L 2560 5119 
L 1785 3944 
L 1275 3944 
L 1881 5119 
z
M 3016 5119 
L 3738 5119 
L 2888 3944 
L 2344 3944 
L 3016 5119 
z
M 2203 2784 
Q 1831 2784 1636 2517 
Q 1441 2250 1441 1747 
Q 1441 1244 1636 976 
Q 1831 709 2203 709 
Q 2569 709 2762 976 
Q 2956 1244 2956 1747 
Q 2956 2250 2762 2517 
Q 2569 2784 2203 2784 
z
M 2203 3584 
Q 3106 3584 3614 3096 
Q 4122 2609 4122 1747 
Q 4122 884 3614 396 
Q 3106 -91 2203 -91 
Q 1297 -91 786 396 
Q 275 884 275 1747 
Q 275 2609 786 3096 
Q 1297 3584 2203 3584 
z
" transform="scale(0.015625)"/>
      <path id="DejaVuSans-Bold-73" d="M 3272 3391 
L 3272 2541 
Q 2913 2691 2578 2766 
Q 2244 2841 1947 2841 
Q 1628 2841 1473 2761 
Q 1319 2681 1319 2516 
Q 1319 2381 1436 2309 
Q 1553 2238 1856 2203 
L 2053 2175 
Q 2913 2066 3209 1816 
Q 3506 1566 3506 1031 
Q 3506 472 3093 190 
Q 2681 -91 1863 -91 
Q 1516 -91 1145 -36 
Q 775 19 384 128 
L 384 978 
Q 719 816 1070 734 
Q 1422 653 1784 653 
Q 2113 653 2278 743 
Q 2444 834 2444 1013 
Q 2444 1163 2330 1236 
Q 2216 1309 1875 1350 
L 1678 1375 
Q 931 1469 631 1722 
Q 331 1975 331 2491 
Q 331 3047 712 3315 
Q 1094 3584 1881 3584 
Q 2191 3584 2531 3537 
Q 2872 3491 3272 3391 
z
" transform="scale(0.015625)"/>
      <path id="DejaVuSans-Bold-20" transform="scale(0.015625)"/>
      <path id="DejaVuSans-Bold-50" d="M 588 4666 
L 2584 4666 
Q 3475 4666 3951 4270 
Q 4428 3875 4428 3144 
Q 4428 2409 3951 2014 
Q 3475 1619 2584 1619 
L 1791 1619 
L 1791 0 
L 588 0 
L 588 4666 
z
M 1791 3794 
L 1791 2491 
L 2456 2491 
Q 2806 2491 2997 2661 
Q 3188 2831 3188 3144 
Q 3188 3456 2997 3625 
Q 2806 3794 2456 3794 
L 1791 3794 
z
" transform="scale(0.015625)"/>
      <path id="DejaVuSans-Bold-6f" d="M 2203 2784 
Q 1831 2784 1636 2517 
Q 1441 2250 1441 1747 
Q 1441 1244 1636 976 
Q 1831 709 2203 709 
Q 2569 709 2762 976 
Q 2956 1244 2956 1747 
Q 2956 2250 2762 2517 
Q 2569 2784 2203 2784 
z
M 2203 3584 
Q 3106 3584 3614 3096 
Q 4122 2609 4122 1747 
Q 4122 884 3614 396 
Q 3106 -91 2203 -91 
Q 1297 -91 786 396 
Q 275 884 275 1747 
Q 275 2609 786 3096 
Q 1297 3584 2203 3584 
z
" transform="scale(0.015625)"/>
      <path id="DejaVuSans-Bold-62" d="M 2400 722 
Q 2759 722 2948 984 
Q 3138 1247 3138 1747 
Q 3138 2247 2948 2509 
Q 2759 2772 2400 2772 
Q 2041 2772 1848 2508 
Q 1656 2244 1656 1747 
Q 1656 1250 1848 986 
Q 2041 722 2400 722 
z
M 1656 2988 
Q 1888 3294 2169 3439 
Q 2450 3584 2816 3584 
Q 3463 3584 3878 3070 
Q 4294 2556 4294 1747 
Q 4294 938 3878 423 
Q 3463 -91 2816 -91 
Q 2450 -91 2169 54 
Q 1888 200 1656 506 
L 1656 0 
L 538 0 
L 538 4863 
L 1656 4863 
L 1656 2988 
z
" transform="scale(0.015625)"/>
      <path id="DejaVuSans-Bold-6c" d="M 538 4863 
L 1656 4863 
L 1656 0 
L 538 0 
L 538 4863 
z
" transform="scale(0.015625)"/>
      <path id="DejaVuSans-Bold-65" d="M 4031 1759 
L 4031 1441 
L 1416 1441 
Q 1456 1047 1700 850 
Q 1944 653 2381 653 
Q 2734 653 3104 758 
Q 3475 863 3866 1075 
L 3866 213 
Q 3469 63 3072 -14 
Q 2675 -91 2278 -91 
Q 1328 -91 801 392 
Q 275 875 275 1747 
Q 275 2603 792 3093 
Q 1309 3584 2216 3584 
Q 3041 3584 3536 3087 
Q 4031 2591 4031 1759 
z
M 2881 2131 
Q 2881 2450 2695 2645 
Q 2509 2841 2209 2841 
Q 1884 2841 1681 2658 
Q 1478 2475 1428 2131 
L 2881 2131 
z
" transform="scale(0.015625)"/>
      <path id="DejaVuSans-Bold-6d" d="M 3781 2919 
Q 3994 3244 4286 3414 
Q 4578 3584 4928 3584 
Q 5531 3584 5847 3212 
Q 6163 2841 6163 2131 
L 6163 0 
L 5038 0 
L 5038 1825 
Q 5041 1866 5042 1909 
Q 5044 1953 5044 2034 
Q 5044 2406 4934 2573 
Q 4825 2741 4581 2741 
Q 4263 2741 4089 2478 
Q 3916 2216 3909 1719 
L 3909 0 
L 2784 0 
L 2784 1825 
Q 2784 2406 2684 2573 
Q 2584 2741 2328 2741 
Q 2006 2741 1831 2477 
Q 1656 2213 1656 1722 
L 1656 0 
L 531 0 
L 531 3500 
L 1656 3500 
L 1656 2988 
Q 1863 3284 2130 3434 
Q 2397 3584 2719 3584 
Q 3081 3584 3359 3409 
Q 3638 3234 3781 2919 
z
" transform="scale(0.015625)"/>
      <path id="DejaVuSans-Bold-67" d="M 2919 594 
Q 2688 288 2409 144 
Q 2131 0 1766 0 
Q 1125 0 706 504 
Q 288 1009 288 1791 
Q 288 2575 706 3076 
Q 1125 3578 1766 3578 
Q 2131 3578 2409 3434 
Q 2688 3291 2919 2981 
L 2919 3500 
L 4044 3500 
L 4044 353 
Q 4044 -491 3511 -936 
Q 2978 -1381 1966 -1381 
Q 1638 -1381 1331 -1331 
Q 1025 -1281 716 -1178 
L 716 -306 
Q 1009 -475 1290 -558 
Q 1572 -641 1856 -641 
Q 2406 -641 2662 -400 
Q 2919 -159 2919 353 
L 2919 594 
z
M 2181 2772 
Q 1834 2772 1640 2515 
Q 1447 2259 1447 1791 
Q 1447 1309 1634 1061 
Q 1822 813 2181 813 
Q 2531 813 2725 1069 
Q 2919 1325 2919 1791 
Q 2919 2259 2725 2515 
Q 2531 2772 2181 2772 
z
" transform="scale(0.015625)"/>
     </defs>
     <use xlink:href="#DejaVuSans-Bold-45"/>
     <use xlink:href="#DejaVuSans-Bold-72" transform="translate(68.310547 0)"/>
     <use xlink:href="#DejaVuSans-Bold-64" transform="translate(117.626953 0)"/>
     <use xlink:href="#DejaVuSans-Bold-151" transform="translate(189.208984 0)"/>
     <use xlink:href="#DejaVuSans-Bold-73" transform="translate(257.910156 0)"/>
     <use xlink:href="#DejaVuSans-Bold-20" transform="translate(317.431641 0)"/>
     <use xlink:href="#DejaVuSans-Bold-50" transform="translate(352.246094 0)"/>
     <use xlink:href="#DejaVuSans-Bold-72" transform="translate(425.537109 0)"/>
     <use xlink:href="#DejaVuSans-Bold-6f" transform="translate(474.853516 0)"/>
     <use xlink:href="#DejaVuSans-Bold-62" transform="translate(543.554688 0)"/>
     <use xlink:href="#DejaVuSans-Bold-6c" transform="translate(615.136719 0)"/>
     <use xlink:href="#DejaVuSans-Bold-65" transform="translate(649.414062 0)"/>
     <use xlink:href="#DejaVuSans-Bold-6d" transform="translate(717.236328 0)"/>
     <use xlink:href="#DejaVuSans-Bold-73" transform="translate(821.435547 0)"/>
     <use xlink:href="#DejaVuSans-Bold-20" transform="translate(880.957031 0)"/>
     <use xlink:href="#DejaVuSans-Bold-50" transform="translate(915.771484 0)"/>
     <use xlink:href="#DejaVuSans-Bold-72" transform="translate(989.0625 0)"/>
     <use xlink:href="#DejaVuSans-Bold-6f" transform="translate(1038.378906 0)"/>
     <use xlink:href="#DejaVuSans-Bold-67" transform="translate(1107.080078 0)"/>
     <use xlink:href="#DejaVuSans-Bold-72" transform="translate(1178.662109 0)"/>
     <use xlink:href="#DejaVuSans-Bold-65" transform="translate(1227.978516 0)"/>
     <use xlink:href="#DejaVuSans-Bold-73" transform="translate(1295.800781 0)"/>
     <use xlink:href="#DejaVuSans-Bold-73" transform="translate(1355.322266 0)"/>
    </g>
   </g>
   <g id="legend_1">
    <g id="patch_7">
     <path d="M 55.90125 119.788437 
L 213.771563 119.788437 
Q 215.771563 119.788437 215.771563 117.788437 
L 215.771563 45.397812 
Q 215.771563 43.397812 213.771563 43.397812 
L 55.90125 43.397812 
Q 53.90125 43.397812 53.90125 45.397812 
L 53.90125 117.788437 
Q 53.90125 119.788437 55.90125 119.788437 
z
" style="fill: #161b22; opacity: 0.8; stroke: #30363d; stroke-linejoin: miter"/>
    </g>
    <g id="line2d_40">
     <path d="M 57.90125 51.49625 
L 67.90125 51.49625 
L 77.90125 51.49625 
" style="fill: none; stroke: #3fb950; stroke-width: 2; stroke-linecap: square"/>
    </g>
    <g id="text_26">
     <!-- Solved -->
     <g style="fill: #c9d1d9" transform="translate(85.90125 54.99625) scale(0.1 -0.1)">
      <defs>
       <path id="DejaVuSans-6c" d="M 603 4863 
L 1178 4863 
L 1178 0 
L 603 0 
L 603 4863 
z
" transform="scale(0.015625)"/>
       <path id="DejaVuSans-64" d="M 2906 2969 
L 2906 4863 
L 3481 4863 
L 3481 0 
L 2906 0 
L 2906 525 
Q 2725 213 2448 61 
Q 2172 -91 1784 -91 
Q 1150 -91 751 415 
Q 353 922 353 1747 
Q 353 2572 751 3078 
Q 1150 3584 1784 3584 
Q 2172 3584 2448 3432 
Q 2725 3281 2906 2969 
z
M 947 1747 
Q 947 1113 1208 752 
Q 1469 391 1925 391 
Q 2381 391 2643 752 
Q 2906 1113 2906 1747 
Q 2906 2381 2643 2742 
Q 2381 3103 1925 3103 
Q 1469 3103 1208 2742 
Q 947 2381 947 1747 
z
" transform="scale(0.015625)"/>
      </defs>
      <use xlink:href="#DejaVuSans-53"/>
      <use xlink:href="#DejaVuSans-6f" transform="translate(63.476562 0)"/>
      <use xlink:href="#DejaVuSans-6c" transform="translate(124.658203 0)"/>
      <use xlink:href="#DejaVuSans-76" transform="translate(152.441406 0)"/>
      <use xlink:href="#DejaVuSans-65" transform="translate(211.621094 0)"/>
      <use xlink:href="#DejaVuSans-64" transform="translate(273.144531 0)"/>
     </g>
    </g>
    <g id="line2d_41">
     <path d="M 57.90125 66.174375 
L 67.90125 66.174375 
L 77.90125 66.174375 
" style="fill: none; stroke: #58a6ff; stroke-width: 2; stroke-linecap: square"/>
    </g>
    <g id="text_27">
     <!-- Lean Formalized Problem -->
     <g style="fill: #c9d1d9" transform="translate(85.90125 69.674375) scale(0.1 -0.1)">
      <defs>
       <path id="DejaVuSans-4c" d="M 628 4666 
L 1259 4666 
L 1259 531 
L 3531 531 
L 3531 0 
L 628 0 
L 628 4666 
z
" transform="scale(0.015625)"/>
       <path id="DejaVuSans-20" transform="scale(0.015625)"/>
       <path id="DejaVuSans-6d" d="M 3328 2828 
Q 3544 3216 3844 3400 
Q 4144 3584 4550 3584 
Q 5097 3584 5394 3201 
Q 5691 2819 5691 2113 
L 5691 0 
L 5113 0 
L 5113 2094 
Q 5113 2597 4934 2840 
Q 4756 3084 4391 3084 
Q 3944 3084 3684 2787 
Q 3425 2491 3425 1978 
L 3425 0 
L 2847 0 
L 2847 2094 
Q 2847 2600 2669 2842 
Q 2491 3084 2119 3084 
Q 1678 3084 1418 2786 
Q 1159 2488 1159 1978 
L 1159 0 
L 581 0 
L 581 3500 
L 1159 3500 
L 1159 2956 
Q 1356 3278 1631 3431 
Q 1906 3584 2284 3584 
Q 2666 3584 2933 3390 
Q 3200 3197 3328 2828 
z
" transform="scale(0.015625)"/>
       <path id="DejaVuSans-69" d="M 603 3500 
L 1178 3500 
L 1178 0 
L 603 0 
L 603 3500 
z
M 603 4863 
L 1178 4863 
L 1178 4134 
L 603 4134 
L 603 4863 
z
" transform="scale(0.015625)"/>
       <path id="DejaVuSans-7a" d="M 353 3500 
L 3084 3500 
L 3084 2975 
L 922 459 
L 3084 459 
L 3084 0 
L 275 0 
L 275 525 
L 2438 3041 
L 353 3041 
L 353 3500 
z
" transform="scale(0.015625)"/>
       <path id="DejaVuSans-50" d="M 1259 4147 
L 1259 2394 
L 2053 2394 
Q 2494 2394 2734 2622 
Q 2975 2850 2975 3272 
Q 2975 3691 2734 3919 
Q 2494 4147 2053 4147 
L 1259 4147 
z
M 628 4666 
L 2053 4666 
Q 2838 4666 3239 4311 
Q 3641 3956 3641 3272 
Q 3641 2581 3239 2228 
Q 2838 1875 2053 1875 
L 1259 1875 
L 1259 0 
L 628 0 
L 628 4666 
z
" transform="scale(0.015625)"/>
      </defs>
      <use xlink:href="#DejaVuSans-4c"/>
      <use xlink:href="#DejaVuSans-65" transform="translate(53.962891 0)"/>
      <use xlink:href="#DejaVuSans-61" transform="translate(115.486328 0)"/>
      <use xlink:href="#DejaVuSans-6e" transform="translate(176.765625 0)"/>
      <use xlink:href="#DejaVuSans-20" transform="translate(240.144531 0)"/>
      <use xlink:href="#DejaVuSans-46" transform="translate(271.931641 0)"/>
      <use xlink:href="#DejaVuSans-6f" transform="translate(325.826172 0)"/>
      <use xlink:href="#DejaVuSans-72" transform="translate(387.007812 0)"/>
      <use xlink:href="#DejaVuSans-6d" transform="translate(426.371094 0)"/>
      <use xlink:href="#DejaVuSans-61" transform="translate(523.783203 0)"/>
      <use xlink:href="#DejaVuSans-6c" transform="translate(585.0625 0)"/>
      <use xlink:href="#DejaVuSans-69" transform="translate(612.845703 0)"/>
      <use xlink:href="#DejaVuSans-7a" transform="translate(640.628906 0)"/>
      <use xlink:href="#DejaVuSans-65" transform="translate(693.119141 0)"/>
      <use xlink:href="#DejaVuSans-64" transform="translate(754.642578 0)"/>
      <use xlink:href="#DejaVuSans-20" transform="translate(818.119141 0)"/>
      <use xlink:href="#DejaVuSans-50" transform="translate(849.90625 0)"/>
      <use xlink:href="#DejaVuSans-72" transform="translate(908.458984 0)"/>
      <use xlink:href="#DejaVuSans-6f" transform="translate(947.322266 0)"/>
      <use xlink:href="#DejaVuSans-62" transform="translate(1008.503906 0)"/>
      <use xlink:href="#DejaVuSans-6c" transform="translate(1071.980469 0)"/>
      <use xlink:href="#DejaVuSans-65" transform="translate(1099.763672 0)"/>
      <use xlink:href="#DejaVuSans-6d" transform="translate(1161.287109 0)"/>
     </g>
    </g>
    <g id="line2d_42">
     <path d="M 57.90125 80.8525 
L 67.90125 80.8525 
L 77.90125 80.8525 
" style="fill: none; stroke: #d29922; stroke-width: 2; stroke-linecap: square"/>
    </g>
    <g id="text_28">
     <!-- Lean Formalized Solution -->
     <g style="fill: #c9d1d9" transform="translate(85.90125 84.3525) scale(0.1 -0.1)">
      <use xlink:href="#DejaVuSans-4c"/>
      <use xlink:href="#DejaVuSans-65" transform="translate(53.962891 0)"/>
      <use xlink:href="#DejaVuSans-61" transform="translate(115.486328 0)"/>
      <use xlink:href="#DejaVuSans-6e" transform="translate(176.765625 0)"/>
      <use xlink:href="#DejaVuSans-20" transform="translate(240.144531 0)"/>
      <use xlink:href="#DejaVuSans-46" transform="translate(271.931641 0)"/>
      <use xlink:href="#DejaVuSans-6f" transform="translate(325.826172 0)"/>
      <use xlink:href="#DejaVuSans-72" transform="translate(387.007812 0)"/>
      <use xlink:href="#DejaVuSans-6d" transform="translate(426.371094 0)"/>
      <use xlink:href="#DejaVuSans-61" transform="translate(523.783203 0)"/>
      <use xlink:href="#DejaVuSans-6c" transform="translate(585.0625 0)"/>
      <use xlink:href="#DejaVuSans-69" transform="translate(612.845703 0)"/>
      <use xlink:href="#DejaVuSans-7a" transform="translate(640.628906 0)"/>
      <use xlink:href="#DejaVuSans-65" transform="translate(693.119141 0)"/>
      <use xlink:href="#DejaVuSans-64" transform="translate(754.642578 0)"/>
      <use xlink:href="#DejaVuSans-20" transform="translate(818.119141 0)"/>
      <use xlink:href="#DejaVuSans-53" transform="translate(849.90625 0)"/>
      <use xlink:href="#DejaVuSans-6f" transform="translate(913.382812 0)"/>
      <use xlink:href="#DejaVuSans-6c" transform="translate(974.564453 0)"/>
      <use xlink:href="#DejaVuSans-75" transform="translate(1002.347656 0)"/>
      <use xlink:href="#DejaVuSans-74" transform="translate(1065.726562 0)"/>
      <use xlink:href="#DejaVuSans-69" transform="translate(1104.935547 0)"/>
      <use xlink:href="#DejaVuSans-6f" transform="translate(1132.71875 0)"/>
      <use xlink:href="#DejaVuSans-6e" transform="translate(1193.900391 0)"/>
     </g>
    </g>
    <g id="line2d_43">
     <path d="M 57.90125 95.530625 
L 67.90125 95.530625 
L 77.90125 95.530625 
" style="fill: none; stroke: #f85149; stroke-width: 2; stroke-linecap: square"/>
    </g>
    <g id="text_29">
     <!-- OEIS Linked -->
     <g style="fill: #c9d1d9" transform="translate(85.90125 99.030625) scale(0.1 -0.1)">
      <defs>
       <path id="DejaVuSans-45" d="M 628 4666 
L 3578 4666 
L 3578 4134 
L 1259 4134 
L 1259 2753 
L 3481 2753 
L 3481 2222 
L 1259 2222 
L 1259 531 
L 3634 531 
L 3634 0 
L 628 0 
L 628 4666 
z
" transform="scale(0.015625)"/>
       <path id="DejaVuSans-49" d="M 628 4666 
L 1259 4666 
L 1259 0 
L 628 0 
L 628 4666 
z
" transform="scale(0.015625)"/>
       <path id="DejaVuSans-6b" d="M 581 4863 
L 1159 4863 
L 1159 1991 
L 2875 3500 
L 3609 3500 
L 1753 1863 
L 3688 0 
L 2938 0 
L 1159 1709 
L 1159 0 
L 581 0 
L 581 4863 
z
" transform="scale(0.015625)"/>
      </defs>
      <use xlink:href="#DejaVuSans-4f"/>
      <use xlink:href="#DejaVuSans-45" transform="translate(78.710938 0)"/>
      <use xlink:href="#DejaVuSans-49" transform="translate(141.894531 0)"/>
      <use xlink:href="#DejaVuSans-53" transform="translate(171.386719 0)"/>
      <use xlink:href="#DejaVuSans-20" transform="translate(234.863281 0)"/>
      <use xlink:href="#DejaVuSans-4c" transform="translate(266.650391 0)"/>
      <use xlink:href="#DejaVuSans-69" transform="translate(322.363281 0)"/>
      <use xlink:href="#DejaVuSans-6e" transform="translate(350.146484 0)"/>
      <use xlink:href="#DejaVuSans-6b" transform="translate(413.525391 0)"/>
      <use xlink:href="#DejaVuSans-65" transform="translate(467.810547 0)"/>
      <use xlink:href="#DejaVuSans-64" transform="translate(529.333984 0)"/>
     </g>
    </g>
    <g id="line2d_44">
     <path d="M 57.90125 110.20875 
L 67.90125 110.20875 
L 77.90125 110.20875 
" style="fill: none; stroke: #9467bd; stroke-width: 2; stroke-linecap: square"/>
    </g>
    <g id="text_30">
     <!-- Open Problems -->
     <g style="fill: #c9d1d9" transform="translate(85.90125 113.70875) scale(0.1 -0.1)">
      <defs>
       <path id="DejaVuSans-73" d="M 2834 3397 
L 2834 2853 
Q 2591 2978 2328 3040 
Q 2066 3103 1784 3103 
Q 1356 3103 1142 2972 
Q 928 2841 928 2578 
Q 928 2378 1081 2264 
Q 1234 2150 1697 2047 
L 1894 2003 
Q 2506 1872 2764 1633 
Q 3022 1394 3022 966 
Q 3022 478 2636 193 
Q 2250 -91 1575 -91 
Q 1294 -91 989 -36 
Q 684 19 347 128 
L 347 722 
Q 666 556 975 473 
Q 1284 391 1588 391 
Q 1994 391 2212 530 
Q 2431 669 2431 922 
Q 2431 1156 2273 1281 
Q 2116 1406 1581 1522 
L 1381 1569 
Q 847 1681 609 1914 
Q 372 2147 372 2553 
Q 372 3047 722 3315 
Q 1072 3584 1716 3584 
Q 2034 3584 2315 3537 
Q 2597 3491 2834 3397 
z
" transform="scale(0.015625)"/>
      </defs>
      <use xlink:href="#DejaVuSans-4f"/>
      <use xlink:href="#DejaVuSans-70" transform="translate(78.710938 0)"/>
      <use xlink:href="#DejaVuSans-65" transform="translate(142.1875 0)"/>
      <use xlink:href="#DejaVuSans-6e" transform="translate(203.710938 0)"/>
      <use xlink:href="#DejaVuSans-20" transform="translate(267.089844 0)"/>
      <use xlink:href="#DejaVuSans-50" transform="translate(298.876953 0)"/>
      <use xlink:href="#DejaVuSans-72" transform="translate(357.429688 0)"/>
      <use xlink:href="#DejaVuSans-6f" transform="translate(396.292969 0)"/>
      <use xlink:href="#DejaVuSans-62" transform="translate(457.474609 0)"/>
      <use xlink:href="#DejaVuSans-6c" transform="translate(520.951172 0)"/>
      <use xlink:href="#DejaVuSans-65" transform="translate(548.734375 0)"/>
      <use xlink:href="#DejaVuSans-6d" transform="translate(610.257812 0)"/>
      <use xlink:href="#DejaVuSans-73" transform="translate(707.669922 0)"/>
     </g>
    </g>
   </g>
  </g>
 </g>
 <defs>
  <clipPath id="pc0c4b9a394">
   <rect x="48.90125" y="38.397812" width="790.411599" height="416.84"/>
  </clipPath>
 </defs>
</svg>
