<?xml version="1.0" encoding="utf-8" standalone="no"?>
<!DOCTYPE svg PUBLIC "-//W3C//DTD SVG 1.1//EN"
  "http://www.w3.org/Graphics/SVG/1.1/DTD/svg11.dtd">
<svg xmlns:xlink="http://www.w3.org/1999/xlink" width="855.55125pt" height="494.729687pt" viewBox="0 0 855.55125 494.729687" xmlns="http://www.w3.org/2000/svg" version="1.1">
 <metadata>
  <rdf:RDF xmlns:dc="http://purl.org/dc/elements/1.1/" xmlns:cc="http://creativecommons.org/ns#" xmlns:rdf="http://www.w3.org/1999/02/22-rdf-syntax-ns#">
   <cc:Work>
    <dc:type rdf:resource="http://purl.org/dc/dcmitype/StillImage"/>
    <dc:date>2026-04-30T10:48:32.025639</dc:date>
    <dc:format>image/svg+xml</dc:format>
    <dc:creator>
     <cc:Agent>
      <dc:title>Matplotlib v3.10.7, https://matplotlib.org/</dc:title>
     </cc:Agent>
    </dc:creator>
   </cc:Work>
  </rdf:RDF>
 </metadata>
 <defs>
  <style type="text/css">*{stroke-linejoin: round; stroke-linecap: butt}</style>
 </defs>
 <g id="figure_1">
  <g id="patch_1">
   <path d="M 0 494.729687 
L 855.55125 494.729687 
L 855.55125 0 
L 0 0 
z
" style="fill: #ffffff"/>
  </g>
  <g id="axes_1">
   <g id="patch_2">
    <path d="M 48.90125 455.237812 
L 848.35125 455.237812 
L 848.35125 38.397812 
L 48.90125 38.397812 
z
" style="fill: #ffffff"/>
   </g>
   <g id="matplotlib.axis_1">
    <g id="xtick_1">
     <g id="line2d_1">
      <path d="M 86.118768 455.237812 
L 86.118768 38.397812 
" clip-path="url(#p85ea04ebf0)" style="fill: none; stroke: #d0d7de; stroke-opacity: 0.25; stroke-width: 0.5; stroke-linecap: square"/>
     </g>
     <g id="line2d_2">
      <defs>
       <path id="m3b746885ed" d="M 0 0 
L 0 3.5 
" style="stroke: #24292f; stroke-width: 0.8"/>
      </defs>
      <g>
       <use xlink:href="#m3b746885ed" x="86.118768" y="455.237812" style="fill: #24292f; stroke: #24292f; stroke-width: 0.8"/>
      </g>
     </g>
     <g id="text_1">
      <!-- Sep -->
      <g style="fill: #24292f" transform="translate(76.693768 469.83625) scale(0.1 -0.1)">
       <defs>
        <path id="DejaVuSans-53" d="M 3425 4513 
L 3425 3897 
Q 3066 4069 2747 4153 
Q 2428 4238 2131 4238 
Q 1616 4238 1336 4038 
Q 1056 3838 1056 3469 
Q 1056 3159 1242 3001 
Q 1428 2844 1947 2747 
L 2328 2669 
Q 3034 2534 3370 2195 
Q 3706 1856 3706 1288 
Q 3706 609 3251 259 
Q 2797 -91 1919 -91 
Q 1588 -91 1214 -16 
Q 841 59 441 206 
L 441 856 
Q 825 641 1194 531 
Q 1563 422 1919 422 
Q 2459 422 2753 634 
Q 3047 847 3047 1241 
Q 3047 1584 2836 1778 
Q 2625 1972 2144 2069 
L 1759 2144 
Q 1053 2284 737 2584 
Q 422 2884 422 3419 
Q 422 4038 858 4394 
Q 1294 4750 2059 4750 
Q 2388 4750 2728 4690 
Q 3069 4631 3425 4513 
z
" transform="scale(0.015625)"/>
        <path id="DejaVuSans-65" d="M 3597 1894 
L 3597 1613 
L 953 1613 
Q 991 1019 1311 708 
Q 1631 397 2203 397 
Q 2534 397 2845 478 
Q 3156 559 3463 722 
L 3463 178 
Q 3153 47 2828 -22 
Q 2503 -91 2169 -91 
Q 1331 -91 842 396 
Q 353 884 353 1716 
Q 353 2575 817 3079 
Q 1281 3584 2069 3584 
Q 2775 3584 3186 3129 
Q 3597 2675 3597 1894 
z
M 3022 2063 
Q 3016 2534 2758 2815 
Q 2500 3097 2075 3097 
Q 1594 3097 1305 2825 
Q 1016 2553 972 2059 
L 3022 2063 
z
" transform="scale(0.015625)"/>
        <path id="DejaVuSans-70" d="M 1159 525 
L 1159 -1331 
L 581 -1331 
L 581 3500 
L 1159 3500 
L 1159 2969 
Q 1341 3281 1617 3432 
Q 1894 3584 2278 3584 
Q 2916 3584 3314 3078 
Q 3713 2572 3713 1747 
Q 3713 922 3314 415 
Q 2916 -91 2278 -91 
Q 1894 -91 1617 61 
Q 1341 213 1159 525 
z
M 3116 1747 
Q 3116 2381 2855 2742 
Q 2594 3103 2138 3103 
Q 1681 3103 1420 2742 
Q 1159 2381 1159 1747 
Q 1159 1113 1420 752 
Q 1681 391 2138 391 
Q 2594 391 2855 752 
Q 3116 1113 3116 1747 
z
" transform="scale(0.015625)"/>
       </defs>
       <use xlink:href="#DejaVuSans-53"/>
       <use xlink:href="#DejaVuSans-65" transform="translate(63.476562 0)"/>
       <use xlink:href="#DejaVuSans-70" transform="translate(125 0)"/>
      </g>
     </g>
    </g>
    <g id="xtick_2">
     <g id="line2d_3">
      <path d="M 176.310456 455.237812 
L 176.310456 38.397812 
" clip-path="url(#p85ea04ebf0)" style="fill: none; stroke: #d0d7de; stroke-opacity: 0.25; stroke-width: 0.5; stroke-linecap: square"/>
     </g>
     <g id="line2d_4">
      <g>
       <use xlink:href="#m3b746885ed" x="176.310456" y="455.237812" style="fill: #24292f; stroke: #24292f; stroke-width: 0.8"/>
      </g>
     </g>
     <g id="text_2">
      <!-- Oct -->
      <g style="fill: #24292f" transform="translate(167.665143 469.83625) scale(0.1 -0.1)">
       <defs>
        <path id="DejaVuSans-4f" d="M 2522 4238 
Q 1834 4238 1429 3725 
Q 1025 3213 1025 2328 
Q 1025 1447 1429 934 
Q 1834 422 2522 422 
Q 3209 422 3611 934 
Q 4013 1447 4013 2328 
Q 4013 3213 3611 3725 
Q 3209 4238 2522 4238 
z
M 2522 4750 
Q 3503 4750 4090 4092 
Q 4678 3434 4678 2328 
Q 4678 1225 4090 567 
Q 3503 -91 2522 -91 
Q 1538 -91 948 565 
Q 359 1222 359 2328 
Q 359 3434 948 4092 
Q 1538 4750 2522 4750 
z
" transform="scale(0.015625)"/>
        <path id="DejaVuSans-63" d="M 3122 3366 
L 3122 2828 
Q 2878 2963 2633 3030 
Q 2388 3097 2138 3097 
Q 1578 3097 1268 2742 
Q 959 2388 959 1747 
Q 959 1106 1268 751 
Q 1578 397 2138 397 
Q 2388 397 2633 464 
Q 2878 531 3122 666 
L 3122 134 
Q 2881 22 2623 -34 
Q 2366 -91 2075 -91 
Q 1284 -91 818 406 
Q 353 903 353 1747 
Q 353 2603 823 3093 
Q 1294 3584 2113 3584 
Q 2378 3584 2631 3529 
Q 2884 3475 3122 3366 
z
" transform="scale(0.015625)"/>
        <path id="DejaVuSans-74" d="M 1172 4494 
L 1172 3500 
L 2356 3500 
L 2356 3053 
L 1172 3053 
L 1172 1153 
Q 1172 725 1289 603 
Q 1406 481 1766 481 
L 2356 481 
L 2356 0 
L 1766 0 
Q 1100 0 847 248 
Q 594 497 594 1153 
L 594 3053 
L 172 3053 
L 172 3500 
L 594 3500 
L 594 4494 
L 1172 4494 
z
" transform="scale(0.015625)"/>
       </defs>
       <use xlink:href="#DejaVuSans-4f"/>
       <use xlink:href="#DejaVuSans-63" transform="translate(78.710938 0)"/>
       <use xlink:href="#DejaVuSans-74" transform="translate(133.691406 0)"/>
      </g>
     </g>
    </g>
    <g id="xtick_3">
     <g id="line2d_5">
      <path d="M 269.508533 455.237812 
L 269.508533 38.397812 
" clip-path="url(#p85ea04ebf0)" style="fill: none; stroke: #d0d7de; stroke-opacity: 0.25; stroke-width: 0.5; stroke-linecap: square"/>
     </g>
     <g id="line2d_6">
      <g>
       <use xlink:href="#m3b746885ed" x="269.508533" y="455.237812" style="fill: #24292f; stroke: #24292f; stroke-width: 0.8"/>
      </g>
     </g>
     <g id="text_3">
      <!-- Nov -->
      <g style="fill: #24292f" transform="translate(259.749158 469.83625) scale(0.1 -0.1)">
       <defs>
        <path id="DejaVuSans-4e" d="M 628 4666 
L 1478 4666 
L 3547 763 
L 3547 4666 
L 4159 4666 
L 4159 0 
L 3309 0 
L 1241 3903 
L 1241 0 
L 628 0 
L 628 4666 
z
" transform="scale(0.015625)"/>
        <path id="DejaVuSans-6f" d="M 1959 3097 
Q 1497 3097 1228 2736 
Q 959 2375 959 1747 
Q 959 1119 1226 758 
Q 1494 397 1959 397 
Q 2419 397 2687 759 
Q 2956 1122 2956 1747 
Q 2956 2369 2687 2733 
Q 2419 3097 1959 3097 
z
M 1959 3584 
Q 2709 3584 3137 3096 
Q 3566 2609 3566 1747 
Q 3566 888 3137 398 
Q 2709 -91 1959 -91 
Q 1206 -91 779 398 
Q 353 888 353 1747 
Q 353 2609 779 3096 
Q 1206 3584 1959 3584 
z
" transform="scale(0.015625)"/>
        <path id="DejaVuSans-76" d="M 191 3500 
L 800 3500 
L 1894 563 
L 2988 3500 
L 3597 3500 
L 2284 0 
L 1503 0 
L 191 3500 
z
" transform="scale(0.015625)"/>
       </defs>
       <use xlink:href="#DejaVuSans-4e"/>
       <use xlink:href="#DejaVuSans-6f" transform="translate(74.804688 0)"/>
       <use xlink:href="#DejaVuSans-76" transform="translate(135.986328 0)"/>
      </g>
     </g>
    </g>
    <g id="xtick_4">
     <g id="line2d_7">
      <path d="M 359.700221 455.237812 
L 359.700221 38.397812 
" clip-path="url(#p85ea04ebf0)" style="fill: none; stroke: #d0d7de; stroke-opacity: 0.25; stroke-width: 0.5; stroke-linecap: square"/>
     </g>
     <g id="line2d_8">
      <g>
       <use xlink:href="#m3b746885ed" x="359.700221" y="455.237812" style="fill: #24292f; stroke: #24292f; stroke-width: 0.8"/>
      </g>
     </g>
     <g id="text_4">
      <!-- Dec -->
      <g style="fill: #24292f" transform="translate(350.02444 469.83625) scale(0.1 -0.1)">
       <defs>
        <path id="DejaVuSans-44" d="M 1259 4147 
L 1259 519 
L 2022 519 
Q 2988 519 3436 956 
Q 3884 1394 3884 2338 
Q 3884 3275 3436 3711 
Q 2988 4147 2022 4147 
L 1259 4147 
z
M 628 4666 
L 1925 4666 
Q 3281 4666 3915 4102 
Q 4550 3538 4550 2338 
Q 4550 1131 3912 565 
Q 3275 0 1925 0 
L 628 0 
L 628 4666 
z
" transform="scale(0.015625)"/>
       </defs>
       <use xlink:href="#DejaVuSans-44"/>
       <use xlink:href="#DejaVuSans-65" transform="translate(77.001953 0)"/>
       <use xlink:href="#DejaVuSans-63" transform="translate(138.525391 0)"/>
      </g>
     </g>
    </g>
    <g id="xtick_5">
     <g id="line2d_9">
      <path d="M 452.898298 455.237812 
L 452.898298 38.397812 
" clip-path="url(#p85ea04ebf0)" style="fill: none; stroke: #d0d7de; stroke-opacity: 0.25; stroke-width: 0.5; stroke-linecap: square"/>
     </g>
     <g id="line2d_10">
      <g>
       <use xlink:href="#m3b746885ed" x="452.898298" y="455.237812" style="fill: #24292f; stroke: #24292f; stroke-width: 0.8"/>
      </g>
     </g>
     <g id="text_5">
      <!-- 2026 -->
      <g style="fill: #24292f" transform="translate(440.173298 469.83625) scale(0.1 -0.1)">
       <defs>
        <path id="DejaVuSans-32" d="M 1228 531 
L 3431 531 
L 3431 0 
L 469 0 
L 469 531 
Q 828 903 1448 1529 
Q 2069 2156 2228 2338 
Q 2531 2678 2651 2914 
Q 2772 3150 2772 3378 
Q 2772 3750 2511 3984 
Q 2250 4219 1831 4219 
Q 1534 4219 1204 4116 
Q 875 4013 500 3803 
L 500 4441 
Q 881 4594 1212 4672 
Q 1544 4750 1819 4750 
Q 2544 4750 2975 4387 
Q 3406 4025 3406 3419 
Q 3406 3131 3298 2873 
Q 3191 2616 2906 2266 
Q 2828 2175 2409 1742 
Q 1991 1309 1228 531 
z
" transform="scale(0.015625)"/>
        <path id="DejaVuSans-30" d="M 2034 4250 
Q 1547 4250 1301 3770 
Q 1056 3291 1056 2328 
Q 1056 1369 1301 889 
Q 1547 409 2034 409 
Q 2525 409 2770 889 
Q 3016 1369 3016 2328 
Q 3016 3291 2770 3770 
Q 2525 4250 2034 4250 
z
M 2034 4750 
Q 2819 4750 3233 4129 
Q 3647 3509 3647 2328 
Q 3647 1150 3233 529 
Q 2819 -91 2034 -91 
Q 1250 -91 836 529 
Q 422 1150 422 2328 
Q 422 3509 836 4129 
Q 1250 4750 2034 4750 
z
" transform="scale(0.015625)"/>
        <path id="DejaVuSans-36" d="M 2113 2584 
Q 1688 2584 1439 2293 
Q 1191 2003 1191 1497 
Q 1191 994 1439 701 
Q 1688 409 2113 409 
Q 2538 409 2786 701 
Q 3034 994 3034 1497 
Q 3034 2003 2786 2293 
Q 2538 2584 2113 2584 
z
M 3366 4563 
L 3366 3988 
Q 3128 4100 2886 4159 
Q 2644 4219 2406 4219 
Q 1781 4219 1451 3797 
Q 1122 3375 1075 2522 
Q 1259 2794 1537 2939 
Q 1816 3084 2150 3084 
Q 2853 3084 3261 2657 
Q 3669 2231 3669 1497 
Q 3669 778 3244 343 
Q 2819 -91 2113 -91 
Q 1303 -91 875 529 
Q 447 1150 447 2328 
Q 447 3434 972 4092 
Q 1497 4750 2381 4750 
Q 2619 4750 2861 4703 
Q 3103 4656 3366 4563 
z
" transform="scale(0.015625)"/>
       </defs>
       <use xlink:href="#DejaVuSans-32"/>
       <use xlink:href="#DejaVuSans-30" transform="translate(63.623047 0)"/>
       <use xlink:href="#DejaVuSans-32" transform="translate(127.246094 0)"/>
       <use xlink:href="#DejaVuSans-36" transform="translate(190.869141 0)"/>
      </g>
     </g>
    </g>
    <g id="xtick_6">
     <g id="line2d_11">
      <path d="M 546.096376 455.237812 
L 546.096376 38.397812 
" clip-path="url(#p85ea04ebf0)" style="fill: none; stroke: #d0d7de; stroke-opacity: 0.25; stroke-width: 0.5; stroke-linecap: square"/>
     </g>
     <g id="line2d_12">
      <g>
       <use xlink:href="#m3b746885ed" x="546.096376" y="455.237812" style="fill: #24292f; stroke: #24292f; stroke-width: 0.8"/>
      </g>
     </g>
     <g id="text_6">
      <!-- Feb -->
      <g style="fill: #24292f" transform="translate(537.244813 469.83625) scale(0.1 -0.1)">
       <defs>
        <path id="DejaVuSans-46" d="M 628 4666 
L 3309 4666 
L 3309 4134 
L 1259 4134 
L 1259 2759 
L 3109 2759 
L 3109 2228 
L 1259 2228 
L 1259 0 
L 628 0 
L 628 4666 
z
" transform="scale(0.015625)"/>
        <path id="DejaVuSans-62" d="M 3116 1747 
Q 3116 2381 2855 2742 
Q 2594 3103 2138 3103 
Q 1681 3103 1420 2742 
Q 1159 2381 1159 1747 
Q 1159 1113 1420 752 
Q 1681 391 2138 391 
Q 2594 391 2855 752 
Q 3116 1113 3116 1747 
z
M 1159 2969 
Q 1341 3281 1617 3432 
Q 1894 3584 2278 3584 
Q 2916 3584 3314 3078 
Q 3713 2572 3713 1747 
Q 3713 922 3314 415 
Q 2916 -91 2278 -91 
Q 1894 -91 1617 61 
Q 1341 213 1159 525 
L 1159 0 
L 581 0 
L 581 4863 
L 1159 4863 
L 1159 2969 
z
" transform="scale(0.015625)"/>
       </defs>
       <use xlink:href="#DejaVuSans-46"/>
       <use xlink:href="#DejaVuSans-65" transform="translate(52.019531 0)"/>
       <use xlink:href="#DejaVuSans-62" transform="translate(113.542969 0)"/>
      </g>
     </g>
    </g>
    <g id="xtick_7">
     <g id="line2d_13">
      <path d="M 630.275284 455.237812 
L 630.275284 38.397812 
" clip-path="url(#p85ea04ebf0)" style="fill: none; stroke: #d0d7de; stroke-opacity: 0.25; stroke-width: 0.5; stroke-linecap: square"/>
     </g>
     <g id="line2d_14">
      <g>
       <use xlink:href="#m3b746885ed" x="630.275284" y="455.237812" style="fill: #24292f; stroke: #24292f; stroke-width: 0.8"/>
      </g>
     </g>
     <g id="text_7">
      <!-- Mar -->
      <g style="fill: #24292f" transform="translate(620.84169 469.83625) scale(0.1 -0.1)">
       <defs>
        <path id="DejaVuSans-4d" d="M 628 4666 
L 1569 4666 
L 2759 1491 
L 3956 4666 
L 4897 4666 
L 4897 0 
L 4281 0 
L 4281 4097 
L 3078 897 
L 2444 897 
L 1241 4097 
L 1241 0 
L 628 0 
L 628 4666 
z
" transform="scale(0.015625)"/>
        <path id="DejaVuSans-61" d="M 2194 1759 
Q 1497 1759 1228 1600 
Q 959 1441 959 1056 
Q 959 750 1161 570 
Q 1363 391 1709 391 
Q 2188 391 2477 730 
Q 2766 1069 2766 1631 
L 2766 1759 
L 2194 1759 
z
M 3341 1997 
L 3341 0 
L 2766 0 
L 2766 531 
Q 2569 213 2275 61 
Q 1981 -91 1556 -91 
Q 1019 -91 701 211 
Q 384 513 384 1019 
Q 384 1609 779 1909 
Q 1175 2209 1959 2209 
L 2766 2209 
L 2766 2266 
Q 2766 2663 2505 2880 
Q 2244 3097 1772 3097 
Q 1472 3097 1187 3025 
Q 903 2953 641 2809 
L 641 3341 
Q 956 3463 1253 3523 
Q 1550 3584 1831 3584 
Q 2591 3584 2966 3190 
Q 3341 2797 3341 1997 
z
" transform="scale(0.015625)"/>
        <path id="DejaVuSans-72" d="M 2631 2963 
Q 2534 3019 2420 3045 
Q 2306 3072 2169 3072 
Q 1681 3072 1420 2755 
Q 1159 2438 1159 1844 
L 1159 0 
L 581 0 
L 581 3500 
L 1159 3500 
L 1159 2956 
Q 1341 3275 1631 3429 
Q 1922 3584 2338 3584 
Q 2397 3584 2469 3576 
Q 2541 3569 2628 3553 
L 2631 2963 
z
" transform="scale(0.015625)"/>
       </defs>
       <use xlink:href="#DejaVuSans-4d"/>
       <use xlink:href="#DejaVuSans-61" transform="translate(86.279297 0)"/>
       <use xlink:href="#DejaVuSans-72" transform="translate(147.558594 0)"/>
      </g>
     </g>
    </g>
    <g id="xtick_8">
     <g id="line2d_15">
      <path d="M 723.473361 455.237812 
L 723.473361 38.397812 
" clip-path="url(#p85ea04ebf0)" style="fill: none; stroke: #d0d7de; stroke-opacity: 0.25; stroke-width: 0.5; stroke-linecap: square"/>
     </g>
     <g id="line2d_16">
      <g>
       <use xlink:href="#m3b746885ed" x="723.473361" y="455.237812" style="fill: #24292f; stroke: #24292f; stroke-width: 0.8"/>
      </g>
     </g>
     <g id="text_8">
      <!-- Apr -->
      <g style="fill: #24292f" transform="translate(714.823361 469.83625) scale(0.1 -0.1)">
       <defs>
        <path id="DejaVuSans-41" d="M 2188 4044 
L 1331 1722 
L 3047 1722 
L 2188 4044 
z
M 1831 4666 
L 2547 4666 
L 4325 0 
L 3669 0 
L 3244 1197 
L 1141 1197 
L 716 0 
L 50 0 
L 1831 4666 
z
" transform="scale(0.015625)"/>
       </defs>
       <use xlink:href="#DejaVuSans-41"/>
       <use xlink:href="#DejaVuSans-70" transform="translate(68.408203 0)"/>
       <use xlink:href="#DejaVuSans-72" transform="translate(131.884766 0)"/>
      </g>
     </g>
    </g>
    <g id="xtick_9">
     <g id="line2d_17">
      <path d="M 813.665049 455.237812 
L 813.665049 38.397812 
" clip-path="url(#p85ea04ebf0)" style="fill: none; stroke: #d0d7de; stroke-opacity: 0.25; stroke-width: 0.5; stroke-linecap: square"/>
     </g>
     <g id="line2d_18">
      <g>
       <use xlink:href="#m3b746885ed" x="813.665049" y="455.237812" style="fill: #24292f; stroke: #24292f; stroke-width: 0.8"/>
      </g>
     </g>
     <g id="text_9">
      <!-- May -->
      <g style="fill: #24292f" transform="translate(803.327549 469.83625) scale(0.1 -0.1)">
       <defs>
        <path id="DejaVuSans-79" d="M 2059 -325 
Q 1816 -950 1584 -1140 
Q 1353 -1331 966 -1331 
L 506 -1331 
L 506 -850 
L 844 -850 
Q 1081 -850 1212 -737 
Q 1344 -625 1503 -206 
L 1606 56 
L 191 3500 
L 800 3500 
L 1894 763 
L 2988 3500 
L 3597 3500 
L 2059 -325 
z
" transform="scale(0.015625)"/>
       </defs>
       <use xlink:href="#DejaVuSans-4d"/>
       <use xlink:href="#DejaVuSans-61" transform="translate(86.279297 0)"/>
       <use xlink:href="#DejaVuSans-79" transform="translate(147.558594 0)"/>
      </g>
     </g>
    </g>
    <g id="text_10">
     <!-- Date -->
     <g style="fill: #24292f" transform="translate(434.285313 485.034062) scale(0.12 -0.12)">
      <use xlink:href="#DejaVuSans-44"/>
      <use xlink:href="#DejaVuSans-61" transform="translate(77.001953 0)"/>
      <use xlink:href="#DejaVuSans-74" transform="translate(138.28125 0)"/>
      <use xlink:href="#DejaVuSans-65" transform="translate(177.490234 0)"/>
     </g>
    </g>
   </g>
   <g id="matplotlib.axis_2">
    <g id="ytick_1">
     <g id="line2d_19">
      <path d="M 48.90125 455.237812 
L 848.35125 455.237812 
" clip-path="url(#p85ea04ebf0)" style="fill: none; stroke: #d0d7de; stroke-opacity: 0.25; stroke-width: 0.5; stroke-linecap: square"/>
     </g>
     <g id="line2d_20">
      <defs>
       <path id="m1beb3fb10e" d="M 0 0 
L -3.5 0 
" style="stroke: #24292f; stroke-width: 0.8"/>
      </defs>
      <g>
       <use xlink:href="#m1beb3fb10e" x="48.90125" y="455.237812" style="fill: #24292f; stroke: #24292f; stroke-width: 0.8"/>
      </g>
     </g>
     <g id="text_11">
      <!-- 0 -->
      <g style="fill: #24292f" transform="translate(35.53875 459.037031) scale(0.1 -0.1)">
       <use xlink:href="#DejaVuSans-30"/>
      </g>
     </g>
    </g>
    <g id="ytick_2">
     <g id="line2d_21">
      <path d="M 48.90125 399.659146 
L 848.35125 399.659146 
" clip-path="url(#p85ea04ebf0)" style="fill: none; stroke: #d0d7de; stroke-opacity: 0.25; stroke-width: 0.5; stroke-linecap: square"/>
     </g>
     <g id="line2d_22">
      <g>
       <use xlink:href="#m1beb3fb10e" x="48.90125" y="399.659146" style="fill: #24292f; stroke: #24292f; stroke-width: 0.8"/>
      </g>
     </g>
     <g id="text_12">
      <!-- 100 -->
      <g style="fill: #24292f" transform="translate(22.81375 403.458365) scale(0.1 -0.1)">
       <defs>
        <path id="DejaVuSans-31" d="M 794 531 
L 1825 531 
L 1825 4091 
L 703 3866 
L 703 4441 
L 1819 4666 
L 2450 4666 
L 2450 531 
L 3481 531 
L 3481 0 
L 794 0 
L 794 531 
z
" transform="scale(0.015625)"/>
       </defs>
       <use xlink:href="#DejaVuSans-31"/>
       <use xlink:href="#DejaVuSans-30" transform="translate(63.623047 0)"/>
       <use xlink:href="#DejaVuSans-30" transform="translate(127.246094 0)"/>
      </g>
     </g>
    </g>
    <g id="ytick_3">
     <g id="line2d_23">
      <path d="M 48.90125 344.080479 
L 848.35125 344.080479 
" clip-path="url(#p85ea04ebf0)" style="fill: none; stroke: #d0d7de; stroke-opacity: 0.25; stroke-width: 0.5; stroke-linecap: square"/>
     </g>
     <g id="line2d_24">
      <g>
       <use xlink:href="#m1beb3fb10e" x="48.90125" y="344.080479" style="fill: #24292f; stroke: #24292f; stroke-width: 0.8"/>
      </g>
     </g>
     <g id="text_13">
      <!-- 200 -->
      <g style="fill: #24292f" transform="translate(22.81375 347.879698) scale(0.1 -0.1)">
       <use xlink:href="#DejaVuSans-32"/>
       <use xlink:href="#DejaVuSans-30" transform="translate(63.623047 0)"/>
       <use xlink:href="#DejaVuSans-30" transform="translate(127.246094 0)"/>
      </g>
     </g>
    </g>
    <g id="ytick_4">
     <g id="line2d_25">
      <path d="M 48.90125 288.501812 
L 848.35125 288.501812 
" clip-path="url(#p85ea04ebf0)" style="fill: none; stroke: #d0d7de; stroke-opacity: 0.25; stroke-width: 0.5; stroke-linecap: square"/>
     </g>
     <g id="line2d_26">
      <g>
       <use xlink:href="#m1beb3fb10e" x="48.90125" y="288.501812" style="fill: #24292f; stroke: #24292f; stroke-width: 0.8"/>
      </g>
     </g>
     <g id="text_14">
      <!-- 300 -->
      <g style="fill: #24292f" transform="translate(22.81375 292.301031) scale(0.1 -0.1)">
       <defs>
        <path id="DejaVuSans-33" d="M 2597 2516 
Q 3050 2419 3304 2112 
Q 3559 1806 3559 1356 
Q 3559 666 3084 287 
Q 2609 -91 1734 -91 
Q 1441 -91 1130 -33 
Q 819 25 488 141 
L 488 750 
Q 750 597 1062 519 
Q 1375 441 1716 441 
Q 2309 441 2620 675 
Q 2931 909 2931 1356 
Q 2931 1769 2642 2001 
Q 2353 2234 1838 2234 
L 1294 2234 
L 1294 2753 
L 1863 2753 
Q 2328 2753 2575 2939 
Q 2822 3125 2822 3475 
Q 2822 3834 2567 4026 
Q 2313 4219 1838 4219 
Q 1578 4219 1281 4162 
Q 984 4106 628 3988 
L 628 4550 
Q 988 4650 1302 4700 
Q 1616 4750 1894 4750 
Q 2613 4750 3031 4423 
Q 3450 4097 3450 3541 
Q 3450 3153 3228 2886 
Q 3006 2619 2597 2516 
z
" transform="scale(0.015625)"/>
       </defs>
       <use xlink:href="#DejaVuSans-33"/>
       <use xlink:href="#DejaVuSans-30" transform="translate(63.623047 0)"/>
       <use xlink:href="#DejaVuSans-30" transform="translate(127.246094 0)"/>
      </g>
     </g>
    </g>
    <g id="ytick_5">
     <g id="line2d_27">
      <path d="M 48.90125 232.923146 
L 848.35125 232.923146 
" clip-path="url(#p85ea04ebf0)" style="fill: none; stroke: #d0d7de; stroke-opacity: 0.25; stroke-width: 0.5; stroke-linecap: square"/>
     </g>
     <g id="line2d_28">
      <g>
       <use xlink:href="#m1beb3fb10e" x="48.90125" y="232.923146" style="fill: #24292f; stroke: #24292f; stroke-width: 0.8"/>
      </g>
     </g>
     <g id="text_15">
      <!-- 400 -->
      <g style="fill: #24292f" transform="translate(22.81375 236.722365) scale(0.1 -0.1)">
       <defs>
        <path id="DejaVuSans-34" d="M 2419 4116 
L 825 1625 
L 2419 1625 
L 2419 4116 
z
M 2253 4666 
L 3047 4666 
L 3047 1625 
L 3713 1625 
L 3713 1100 
L 3047 1100 
L 3047 0 
L 2419 0 
L 2419 1100 
L 313 1100 
L 313 1709 
L 2253 4666 
z
" transform="scale(0.015625)"/>
       </defs>
       <use xlink:href="#DejaVuSans-34"/>
       <use xlink:href="#DejaVuSans-30" transform="translate(63.623047 0)"/>
       <use xlink:href="#DejaVuSans-30" transform="translate(127.246094 0)"/>
      </g>
     </g>
    </g>
    <g id="ytick_6">
     <g id="line2d_29">
      <path d="M 48.90125 177.344479 
L 848.35125 177.344479 
" clip-path="url(#p85ea04ebf0)" style="fill: none; stroke: #d0d7de; stroke-opacity: 0.25; stroke-width: 0.5; stroke-linecap: square"/>
     </g>
     <g id="line2d_30">
      <g>
       <use xlink:href="#m1beb3fb10e" x="48.90125" y="177.344479" style="fill: #24292f; stroke: #24292f; stroke-width: 0.8"/>
      </g>
     </g>
     <g id="text_16">
      <!-- 500 -->
      <g style="fill: #24292f" transform="translate(22.81375 181.143698) scale(0.1 -0.1)">
       <defs>
        <path id="DejaVuSans-35" d="M 691 4666 
L 3169 4666 
L 3169 4134 
L 1269 4134 
L 1269 2991 
Q 1406 3038 1543 3061 
Q 1681 3084 1819 3084 
Q 2600 3084 3056 2656 
Q 3513 2228 3513 1497 
Q 3513 744 3044 326 
Q 2575 -91 1722 -91 
Q 1428 -91 1123 -41 
Q 819 9 494 109 
L 494 744 
Q 775 591 1075 516 
Q 1375 441 1709 441 
Q 2250 441 2565 725 
Q 2881 1009 2881 1497 
Q 2881 1984 2565 2268 
Q 2250 2553 1709 2553 
Q 1456 2553 1204 2497 
Q 953 2441 691 2322 
L 691 4666 
z
" transform="scale(0.015625)"/>
       </defs>
       <use xlink:href="#DejaVuSans-35"/>
       <use xlink:href="#DejaVuSans-30" transform="translate(63.623047 0)"/>
       <use xlink:href="#DejaVuSans-30" transform="translate(127.246094 0)"/>
      </g>
     </g>
    </g>
    <g id="ytick_7">
     <g id="line2d_31">
      <path d="M 48.90125 121.765812 
L 848.35125 121.765812 
" clip-path="url(#p85ea04ebf0)" style="fill: none; stroke: #d0d7de; stroke-opacity: 0.25; stroke-width: 0.5; stroke-linecap: square"/>
     </g>
     <g id="line2d_32">
      <g>
       <use xlink:href="#m1beb3fb10e" x="48.90125" y="121.765812" style="fill: #24292f; stroke: #24292f; stroke-width: 0.8"/>
      </g>
     </g>
     <g id="text_17">
      <!-- 600 -->
      <g style="fill: #24292f" transform="translate(22.81375 125.565031) scale(0.1 -0.1)">
       <use xlink:href="#DejaVuSans-36"/>
       <use xlink:href="#DejaVuSans-30" transform="translate(63.623047 0)"/>
       <use xlink:href="#DejaVuSans-30" transform="translate(127.246094 0)"/>
      </g>
     </g>
    </g>
    <g id="ytick_8">
     <g id="line2d_33">
      <path d="M 48.90125 66.187146 
L 848.35125 66.187146 
" clip-path="url(#p85ea04ebf0)" style="fill: none; stroke: #d0d7de; stroke-opacity: 0.25; stroke-width: 0.5; stroke-linecap: square"/>
     </g>
     <g id="line2d_34">
      <g>
       <use xlink:href="#m1beb3fb10e" x="48.90125" y="66.187146" style="fill: #24292f; stroke: #24292f; stroke-width: 0.8"/>
      </g>
     </g>
     <g id="text_18">
      <!-- 700 -->
      <g style="fill: #24292f" transform="translate(22.81375 69.986365) scale(0.1 -0.1)">
       <defs>
        <path id="DejaVuSans-37" d="M 525 4666 
L 3525 4666 
L 3525 4397 
L 1831 0 
L 1172 0 
L 2766 4134 
L 525 4134 
L 525 4666 
z
" transform="scale(0.015625)"/>
       </defs>
       <use xlink:href="#DejaVuSans-37"/>
       <use xlink:href="#DejaVuSans-30" transform="translate(63.623047 0)"/>
       <use xlink:href="#DejaVuSans-30" transform="translate(127.246094 0)"/>
      </g>
     </g>
    </g>
    <g id="text_19">
     <!-- Count -->
     <g style="fill: #24292f" transform="translate(16.318125 264.635937) rotate(-90) scale(0.12 -0.12)">
      <defs>
       <path id="DejaVuSans-43" d="M 4122 4306 
L 4122 3641 
Q 3803 3938 3442 4084 
Q 3081 4231 2675 4231 
Q 1875 4231 1450 3742 
Q 1025 3253 1025 2328 
Q 1025 1406 1450 917 
Q 1875 428 2675 428 
Q 3081 428 3442 575 
Q 3803 722 4122 1019 
L 4122 359 
Q 3791 134 3420 21 
Q 3050 -91 2638 -91 
Q 1578 -91 968 557 
Q 359 1206 359 2328 
Q 359 3453 968 4101 
Q 1578 4750 2638 4750 
Q 3056 4750 3426 4639 
Q 3797 4528 4122 4306 
z
" transform="scale(0.015625)"/>
       <path id="DejaVuSans-75" d="M 544 1381 
L 544 3500 
L 1119 3500 
L 1119 1403 
Q 1119 906 1312 657 
Q 1506 409 1894 409 
Q 2359 409 2629 706 
Q 2900 1003 2900 1516 
L 2900 3500 
L 3475 3500 
L 3475 0 
L 2900 0 
L 2900 538 
Q 2691 219 2414 64 
Q 2138 -91 1772 -91 
Q 1169 -91 856 284 
Q 544 659 544 1381 
z
M 1991 3584 
L 1991 3584 
z
" transform="scale(0.015625)"/>
       <path id="DejaVuSans-6e" d="M 3513 2113 
L 3513 0 
L 2938 0 
L 2938 2094 
Q 2938 2591 2744 2837 
Q 2550 3084 2163 3084 
Q 1697 3084 1428 2787 
Q 1159 2491 1159 1978 
L 1159 0 
L 581 0 
L 581 3500 
L 1159 3500 
L 1159 2956 
Q 1366 3272 1645 3428 
Q 1925 3584 2291 3584 
Q 2894 3584 3203 3211 
Q 3513 2838 3513 2113 
z
" transform="scale(0.015625)"/>
      </defs>
      <use xlink:href="#DejaVuSans-43"/>
      <use xlink:href="#DejaVuSans-6f" transform="translate(69.824219 0)"/>
      <use xlink:href="#DejaVuSans-75" transform="translate(131.005859 0)"/>
      <use xlink:href="#DejaVuSans-6e" transform="translate(194.384766 0)"/>
      <use xlink:href="#DejaVuSans-74" transform="translate(257.763672 0)"/>
     </g>
    </g>
   </g>
   <g id="line2d_35">
    <path d="M 85.239886 454.682026 
L 85.297474 454.682026 
L 85.436415 454.126239 
L 85.514707 454.126239 
L 85.707234 257.933546 
L 88.129082 257.933546 
L 88.140148 261.268266 
L 91.070125 261.268266 
L 91.211919 260.712479 
L 91.618687 260.712479 
L 91.948345 260.156692 
L 93.991055 259.600906 
L 94.031384 260.156692 
L 94.101707 259.600906 
L 100.454967 259.600906 
L 104.271133 260.712479 
L 104.838937 259.600906 
L 105.253533 259.600906 
L 106.298462 259.045119 
L 106.735642 256.821972 
L 107.586895 256.821972 
L 108.827379 260.712479 
L 108.907862 256.821972 
L 109.859747 256.266186 
L 112.33706 256.266186 
L 112.990498 255.710399 
L 113.961102 255.710399 
L 114.279661 254.598826 
L 120.271076 254.598826 
L 120.712326 253.487252 
L 120.734943 252.375679 
L 122.639999 252.375679 
L 125.449094 251.264106 
L 126.922678 251.264106 
L 126.944982 250.708319 
L 130.329119 250.708319 
L 131.168611 247.929386 
L 133.825404 247.929386 
L 133.843846 247.373599 
L 148.723213 247.373599 
L 151.504541 246.817812 
L 151.599499 247.373599 
L 154.484102 246.817812 
L 164.522277 246.817812 
L 169.387652 246.262026 
L 169.481637 245.706239 
L 169.712753 245.150452 
L 172.457475 245.150452 
L 173.625653 244.594666 
L 178.443079 244.594666 
L 178.625967 247.373599 
L 178.634945 245.150452 
L 178.869158 245.150452 
L 180.032185 242.927306 
L 185.72644 242.927306 
L 190.090542 242.371519 
L 194.940955 242.371519 
L 195.153803 241.815732 
L 207.757569 241.815732 
L 208.295483 241.259946 
L 211.355842 241.259946 
L 211.377416 240.148372 
L 217.208489 240.148372 
L 217.326761 236.257866 
L 227.880685 236.257866 
L 227.883851 235.702079 
L 228.189501 235.702079 
L 229.519689 235.146292 
L 230.871486 235.146292 
L 231.301427 234.590506 
L 231.344436 235.146292 
L 232.328959 234.590506 
L 232.333447 234.034719 
L 232.356448 234.590506 
L 232.925156 234.034719 
L 238.105715 234.034719 
L 239.716395 233.478932 
L 241.62761 233.478932 
L 244.87378 232.923146 
L 247.946874 232.923146 
L 250.321156 231.811572 
L 255.51713 231.811572 
L 258.539665 230.699999 
L 259.391267 231.255786 
L 263.60992 231.255786 
L 268.36875 229.032639 
L 275.465952 229.032639 
L 277.667053 228.476852 
L 316.893304 228.476852 
L 317.210089 227.921066 
L 331.515005 227.921066 
L 331.75402 227.365279 
L 356.095233 227.365279 
L 361.455097 226.809492 
L 361.4861 227.365279 
L 365.32297 225.697919 
L 370.953791 225.697919 
L 374.028416 225.142132 
L 374.033462 224.586346 
L 380.448693 224.586346 
L 382.751191 225.142132 
L 383.578888 224.586346 
L 394.315109 224.586346 
L 394.772017 225.142132 
L 395.609005 224.586346 
L 395.89663 222.363199 
L 400.816705 222.363199 
L 400.82095 221.807412 
L 415.876281 221.807412 
L 416.753005 221.251626 
L 419.646377 221.251626 
L 419.928643 220.695839 
L 434.037692 220.695839 
L 434.056865 220.140052 
L 437.585754 220.140052 
L 437.591008 219.584266 
L 438.447307 219.584266 
L 438.49202 219.028479 
L 439.821756 219.028479 
L 440.030672 218.472692 
L 442.876721 218.472692 
L 443.309342 217.361119 
L 444.87611 215.137972 
L 448.664822 215.137972 
L 448.944548 212.359039 
L 450.214991 212.359039 
L 450.838504 211.247466 
L 454.051444 211.247466 
L 455.105698 210.691679 
L 458.123501 210.691679 
L 458.527972 210.135892 
L 466.724594 210.135892 
L 466.926551 209.580106 
L 467.684655 209.580106 
L 468.861635 209.024319 
L 482.119118 209.024319 
L 482.238225 208.468532 
L 482.663295 208.468532 
L 483.550667 207.356959 
L 484.79477 207.356959 
L 485.093912 206.801172 
L 485.382129 206.801172 
L 485.491493 206.245386 
L 488.818565 206.245386 
L 489.384977 205.689599 
L 492.280923 205.689599 
L 492.466596 205.133812 
L 494.052884 205.133812 
L 494.154523 204.578026 
L 499.084341 204.578026 
L 499.19033 204.022239 
L 502.065469 204.022239 
L 503.025774 201.799092 
L 504.090467 201.799092 
L 504.09158 201.243306 
L 508.414657 201.243306 
L 509.20721 200.687519 
L 512.517335 200.687519 
L 513.169311 200.131732 
L 513.414555 200.131732 
L 514.051603 199.575946 
L 515.678881 199.575946 
L 515.866954 199.020159 
L 519.948163 199.020159 
L 521.000156 198.464372 
L 521.076777 197.908586 
L 521.417362 197.908586 
L 522.492355 195.685439 
L 525.826211 195.685439 
L 525.850221 195.129652 
L 529.023075 195.129652 
L 529.207565 194.573866 
L 529.686116 194.573866 
L 530.048936 194.018079 
L 530.124618 194.573866 
L 530.396306 194.018079 
L 531.603386 194.018079 
L 531.614938 193.462292 
L 531.93548 193.462292 
L 532.075848 192.906506 
L 533.045757 192.350719 
L 539.793988 192.350719 
L 540.84873 191.794932 
L 541.554779 191.794932 
L 542.127593 191.239146 
L 542.707054 191.794932 
L 545.092923 191.794932 
L 545.195816 190.683359 
L 548.620908 190.683359 
L 549.949843 189.015999 
L 564.374494 189.015999 
L 565.212838 188.460212 
L 587.478076 188.460212 
L 587.614859 187.904426 
L 620.331303 187.904426 
L 620.475428 187.348639 
L 620.485763 186.792852 
L 620.496028 187.348639 
L 625.264391 187.348639 
L 626.34102 186.792852 
L 645.126744 186.792852 
L 648.992426 186.237066 
L 649.030005 185.681279 
L 649.350026 185.681279 
L 650.352434 185.125492 
L 680.502277 185.125492 
L 680.674204 184.569706 
L 707.606271 184.569706 
L 711.047682 184.013919 
L 713.152746 184.013919 
L 713.381183 183.458132 
L 714.844293 182.902346 
L 718.947353 182.902346 
L 720.675401 182.346559 
L 722.483619 182.346559 
L 722.624439 181.790772 
L 725.598608 181.790772 
L 725.953876 181.234986 
L 726.0242 180.679199 
L 731.319447 180.679199 
L 731.339977 180.123412 
L 735.848621 180.123412 
L 735.858573 179.567626 
L 737.386195 179.011839 
L 740.098139 179.011839 
L 742.049718 178.456052 
L 743.796242 178.456052 
L 746.370393 175.121332 
L 749.37567 175.121332 
L 749.389588 172.342399 
L 764.50021 172.342399 
L 764.501776 171.786612 
L 764.76313 171.230826 
L 766.210442 171.230826 
L 766.525243 170.675039 
L 771.27252 170.675039 
L 772.369957 170.119252 
L 772.550514 170.675039 
L 781.041547 170.675039 
L 781.04346 170.119252 
L 784.471754 170.119252 
L 785.874214 167.340319 
L 794.471966 167.340319 
L 794.563793 166.228746 
L 796.507716 164.561386 
L 798.45825 164.561386 
L 798.666018 164.005599 
L 806.865529 164.005599 
L 807.0163 163.449812 
L 812.012614 163.449812 
L 812.012614 163.449812 
" clip-path="url(#p85ea04ebf0)" style="fill: none; stroke: #1a7f37; stroke-width: 2; stroke-linecap: square"/>
   </g>
   <g id="line2d_36">
    <path d="M 85.239886 455.237812 
L 85.33401 453.570452 
L 85.436415 453.570452 
L 85.596443 372.981386 
L 86.934356 372.981386 
L 86.96355 370.758239 
L 88.426972 370.758239 
L 88.804024 369.090879 
L 89.317059 370.758239 
L 89.320851 369.090879 
L 89.745365 369.090879 
L 89.909429 367.979306 
L 94.101707 367.979306 
L 94.105708 367.423519 
L 94.1293 367.979306 
L 94.335642 367.423519 
L 94.396152 367.979306 
L 94.557537 367.423519 
L 96.028684 367.423519 
L 96.105653 366.867732 
L 96.3153 366.311946 
L 97.976296 366.311946 
L 99.866494 365.756159 
L 99.933024 365.200372 
L 100.443901 364.644586 
L 100.454967 364.088799 
L 104.271133 367.979306 
L 104.838937 366.311946 
L 105.253533 363.533012 
L 107.586895 363.533012 
L 108.827379 367.979306 
L 108.907862 363.533012 
L 131.575518 363.533012 
L 132.271094 362.977226 
L 133.843846 362.977226 
L 138.139295 362.421439 
L 139.185616 361.865652 
L 154.094037 361.865652 
L 154.484102 361.309866 
L 156.488153 360.754079 
L 157.761902 360.754079 
L 159.173792 360.198292 
L 159.211824 359.086719 
L 160.182359 358.530932 
L 160.834648 357.975146 
L 169.82076 357.975146 
L 171.612067 357.419359 
L 172.1536 357.419359 
L 172.457475 356.863572 
L 173.625653 356.863572 
L 174.786209 356.307786 
L 178.443079 356.307786 
L 178.625967 358.530932 
L 178.634945 356.307786 
L 180.032185 356.307786 
L 180.172449 355.751999 
L 182.150194 355.751999 
L 184.096031 355.196212 
L 184.143249 354.640426 
L 190.090542 354.640426 
L 192.599033 354.084639 
L 192.605366 353.528852 
L 200.952829 353.528852 
L 204.434883 352.973066 
L 207.04731 352.973066 
L 207.757569 352.417279 
L 211.745246 352.417279 
L 214.019663 351.861492 
L 214.144338 351.305706 
L 216.361794 351.305706 
L 216.619146 350.749919 
L 217.326761 350.194132 
L 218.906403 350.194132 
L 219.903731 349.638346 
L 221.732305 349.638346 
L 222.925744 349.082559 
L 225.471711 349.082559 
L 226.339075 347.970986 
L 232.925156 347.970986 
L 234.800809 347.415199 
L 237.000206 347.415199 
L 237.496191 346.859412 
L 237.647867 346.303626 
L 238.105715 345.747839 
L 245.67959 345.747839 
L 247.066287 345.192052 
L 247.946874 344.636266 
L 269.484072 344.636266 
L 274.318652 344.080479 
L 274.376414 343.524692 
L 277.667053 343.524692 
L 280.479628 342.968906 
L 285.450819 342.968906 
L 285.870878 342.413119 
L 294.337031 342.413119 
L 300.964381 341.857332 
L 301.027988 341.301546 
L 301.894413 341.301546 
L 303.649845 340.745759 
L 303.747761 339.078399 
L 303.825009 338.522612 
L 307.491795 337.966826 
L 307.711359 337.411039 
L 307.798871 336.299466 
L 308.130966 335.743679 
L 320.063062 335.743679 
L 323.452766 335.187892 
L 325.610547 334.632106 
L 327.300945 334.632106 
L 331.220282 334.076319 
L 331.515005 331.853172 
L 331.75402 331.853172 
L 332.317544 330.741599 
L 339.751713 330.185812 
L 339.988327 329.630026 
L 340.058128 329.074239 
L 341.628723 329.074239 
L 343.11184 328.518452 
L 343.282307 327.962666 
L 343.398073 326.851092 
L 344.379778 326.295306 
L 344.451841 325.739519 
L 346.243009 325.183732 
L 348.597457 324.627946 
L 348.764896 324.072159 
L 348.768446 323.516372 
L 349.242022 322.960586 
L 349.325672 322.404799 
L 352.741021 321.849012 
L 353.353294 321.293226 
L 367.731318 321.293226 
L 370.115691 320.737439 
L 370.33268 320.181652 
L 380.077418 320.181652 
L 380.448693 319.070079 
L 384.508816 319.070079 
L 385.734615 318.514292 
L 385.7945 317.402719 
L 386.109266 316.846932 
L 388.193522 316.291146 
L 388.240462 315.735359 
L 388.492038 315.179572 
L 388.537586 313.512212 
L 388.749843 312.956426 
L 389.037016 312.956426 
L 389.047594 312.400639 
L 390.787577 311.844852 
L 391.471635 311.289066 
L 391.63716 310.733279 
L 394.772017 310.177492 
L 397.082275 310.177492 
L 397.8845 309.621706 
L 406.570496 309.621706 
L 409.448105 309.065919 
L 409.459553 308.510132 
L 409.977076 307.954346 
L 416.753005 307.954346 
L 418.654199 307.398559 
L 419.437391 306.842772 
L 419.646377 305.731199 
L 425.127401 305.731199 
L 425.500833 305.175412 
L 428.510633 305.175412 
L 429.951577 304.619626 
L 434.056865 304.619626 
L 436.538702 304.063839 
L 441.692677 304.063839 
L 442.326141 303.508052 
L 444.87611 303.508052 
L 445.570189 302.952266 
L 445.87128 302.396479 
L 446.019581 301.840692 
L 448.118591 301.840692 
L 448.178267 300.729119 
L 448.944548 300.729119 
L 449.447666 299.061759 
L 451.273526 299.061759 
L 451.500292 298.505972 
L 451.676326 298.505972 
L 452.550267 297.950186 
L 454.000537 297.950186 
L 454.051444 297.394399 
L 455.105698 297.394399 
L 455.361763 296.838612 
L 456.352654 296.838612 
L 457.869802 295.727039 
L 458.527972 295.727039 
L 461.073486 294.615466 
L 461.077313 294.059679 
L 461.563312 293.503892 
L 462.803308 292.948106 
L 462.996114 292.392319 
L 464.232422 291.836532 
L 466.253384 291.836532 
L 466.926551 290.724959 
L 469.391303 290.724959 
L 469.461278 290.169172 
L 470.163465 290.169172 
L 470.217364 289.613386 
L 470.602697 289.057599 
L 471.943463 289.057599 
L 472.045451 288.501812 
L 472.27514 288.501812 
L 472.392821 287.946026 
L 472.424799 287.946026 
L 472.534407 287.390239 
L 474.313326 287.390239 
L 474.686689 286.834452 
L 475.000203 286.834452 
L 475.18758 286.278666 
L 475.666097 286.278666 
L 476.024359 285.722879 
L 476.099901 285.167092 
L 476.202306 285.167092 
L 478.003252 284.611306 
L 479.350943 284.611306 
L 479.452965 284.055519 
L 484.769264 284.055519 
L 484.79477 283.499732 
L 485.093912 283.499732 
L 485.689136 282.388159 
L 487.593356 282.388159 
L 487.759856 280.720799 
L 487.808432 279.609226 
L 488.122258 279.053439 
L 489.384977 279.053439 
L 489.980513 278.497652 
L 490.557747 278.497652 
L 490.743872 277.941866 
L 491.638655 277.386079 
L 492.466596 277.386079 
L 494.131071 276.830292 
L 494.241792 276.274506 
L 494.663174 276.274506 
L 494.747485 275.718719 
L 496.227123 275.718719 
L 496.268217 275.162932 
L 503.443919 275.162932 
L 503.55478 274.607146 
L 503.768254 274.607146 
L 503.8629 273.495572 
L 504.786878 273.495572 
L 504.861411 272.939786 
L 504.983511 272.939786 
L 505.623482 272.383999 
L 505.784345 271.828212 
L 506.078268 271.828212 
L 506.326991 271.272426 
L 506.408066 270.716639 
L 510.013681 270.716639 
L 510.923775 270.160852 
L 511.103532 269.049279 
L 511.325044 268.493492 
L 511.694823 268.493492 
L 511.920198 267.937706 
L 517.094668 267.937706 
L 517.436262 266.270346 
L 518.143285 266.270346 
L 518.247082 265.714559 
L 521.009864 265.714559 
L 521.076777 264.602986 
L 524.39501 264.602986 
L 524.429388 264.047199 
L 526.027855 264.047199 
L 526.038607 263.491412 
L 526.816998 263.491412 
L 526.946091 262.935626 
L 529.207565 262.935626 
L 529.325419 262.379839 
L 529.475565 262.379839 
L 529.686116 261.824052 
L 530.113518 261.824052 
L 530.124618 261.268266 
L 530.396306 261.268266 
L 530.914595 260.712479 
L 535.100854 260.712479 
L 535.405111 260.156692 
L 536.64723 260.156692 
L 536.649527 259.600906 
L 546.146308 259.600906 
L 547.758171 259.045119 
L 547.804903 258.489332 
L 548.620908 257.933546 
L 549.861705 257.933546 
L 549.949843 256.821972 
L 550.174279 256.821972 
L 550.267706 256.266186 
L 553.563043 256.266186 
L 554.158128 255.710399 
L 559.858194 255.710399 
L 559.875731 255.154612 
L 561.737431 255.154612 
L 562.533045 254.598826 
L 571.295557 254.598826 
L 571.404922 253.487252 
L 574.851065 253.487252 
L 575.536515 252.931466 
L 576.270541 252.931466 
L 577.167864 252.375679 
L 583.099186 252.375679 
L 583.667164 251.819892 
L 584.159321 251.819892 
L 584.400632 251.264106 
L 586.290134 250.708319 
L 587.215086 250.708319 
L 587.516699 250.152532 
L 587.614859 250.152532 
L 590.269425 249.596746 
L 595.157 249.596746 
L 595.53948 249.040959 
L 614.404192 249.040959 
L 615.093469 248.485172 
L 619.45597 248.485172 
L 619.613632 247.929386 
L 619.897012 247.929386 
L 619.982436 247.373599 
L 644.345153 247.373599 
L 645.126744 246.817812 
L 650.943725 246.817812 
L 652.207349 246.262026 
L 652.292042 245.706239 
L 655.318579 245.706239 
L 655.444158 245.150452 
L 665.247424 245.150452 
L 665.267502 244.594666 
L 673.543076 244.594666 
L 673.632154 244.038879 
L 674.169651 243.483092 
L 676.200425 243.483092 
L 676.205088 242.927306 
L 676.617771 242.371519 
L 679.666855 242.371519 
L 680.674204 241.815732 
L 687.175939 241.815732 
L 687.221731 240.704159 
L 728.434913 240.704159 
L 731.339977 240.148372 
L 734.994897 240.148372 
L 735.116336 239.592586 
L 751.320323 239.592586 
L 751.347534 239.036799 
L 768.269297 239.036799 
L 768.44373 238.481012 
L 769.450488 238.481012 
L 769.476724 237.925226 
L 769.704257 237.369439 
L 770.589367 236.257866 
L 770.71947 235.146292 
L 770.794664 234.034719 
L 771.021361 233.478932 
L 771.073799 232.923146 
L 771.27252 232.367359 
L 772.550514 232.367359 
L 772.709394 231.811572 
L 772.716875 231.255786 
L 773.196122 230.699999 
L 781.04346 230.699999 
L 781.889286 229.588426 
L 806.641024 229.588426 
L 806.798302 229.032639 
L 812.012614 229.032639 
L 812.012614 229.032639 
" clip-path="url(#p85ea04ebf0)" style="fill: none; stroke: #0969da; stroke-width: 2; stroke-linecap: square"/>
   </g>
   <g id="line2d_37">
    <path d="M 85.239886 455.237812 
L 88.129082 455.237812 
L 88.140148 454.126239 
L 90.525356 454.126239 
L 91.070125 453.570452 
L 238.105715 453.570452 
L 239.716395 453.014666 
L 280.479628 453.014666 
L 281.610887 452.458879 
L 320.063062 452.458879 
L 323.452766 451.903092 
L 332.317544 451.903092 
L 340.058128 450.235732 
L 341.628723 449.124159 
L 344.451841 449.124159 
L 346.243009 448.568372 
L 348.768446 448.012586 
L 349.325672 448.012586 
L 352.741021 447.456799 
L 353.353294 446.901012 
L 356.095233 446.345226 
L 361.455097 445.789439 
L 361.4861 446.345226 
L 370.33268 446.345226 
L 370.953791 445.789439 
L 383.578888 445.789439 
L 384.508816 445.233652 
L 388.749843 445.233652 
L 389.047594 444.677866 
L 394.315109 444.677866 
L 394.772017 444.122079 
L 414.068759 444.122079 
L 415.876281 443.566292 
L 416.635951 443.566292 
L 416.753005 443.010506 
L 421.903152 443.010506 
L 421.908059 442.454719 
L 434.037692 442.454719 
L 434.056865 441.898932 
L 437.591008 441.898932 
L 438.49202 441.343146 
L 439.819425 440.787359 
L 439.821756 440.231572 
L 440.030672 440.231572 
L 441.692677 438.564212 
L 442.812279 438.564212 
L 442.876721 436.896852 
L 443.309342 436.896852 
L 444.87611 437.452639 
L 446.002879 437.452639 
L 446.019581 435.229492 
L 450.214991 435.229492 
L 450.838504 434.673706 
L 451.500292 434.673706 
L 451.676326 434.117919 
L 466.724594 434.117919 
L 466.926551 433.562132 
L 467.684655 433.562132 
L 468.861635 433.006346 
L 474.054304 433.006346 
L 474.313326 432.450559 
L 476.099901 432.450559 
L 476.202306 431.894772 
L 482.119118 431.894772 
L 482.238225 431.338986 
L 482.663295 431.338986 
L 483.09442 430.783199 
L 483.525127 430.783199 
L 483.550667 430.227412 
L 485.382129 430.227412 
L 485.491493 429.671626 
L 493.993904 429.671626 
L 494.10981 429.115839 
L 494.154523 429.115839 
L 494.241792 428.560052 
L 494.747485 428.560052 
L 495.807585 428.004266 
L 499.952123 428.004266 
L 499.955777 427.448479 
L 500.747703 427.448479 
L 500.777836 426.892692 
L 503.025774 426.892692 
L 503.55478 426.336906 
L 506.493665 426.336906 
L 507.362525 425.781119 
L 509.052262 425.781119 
L 509.070182 424.669546 
L 509.20721 424.669546 
L 509.37966 424.113759 
L 512.097902 424.113759 
L 512.517335 423.557972 
L 513.169311 423.557972 
L 513.414555 423.002186 
L 515.005923 423.002186 
L 515.228131 422.446399 
L 515.230985 421.890612 
L 515.678881 421.890612 
L 515.866954 421.334826 
L 533.00936 421.334826 
L 533.045757 420.223252 
L 535.405111 420.223252 
L 536.084159 419.667466 
L 536.649527 419.667466 
L 539.301726 419.111679 
L 539.793988 419.111679 
L 540.84873 418.555892 
L 541.554779 418.555892 
L 542.127593 418.000106 
L 542.707054 418.555892 
L 544.572442 418.555892 
L 545.079701 418.000106 
L 545.195816 416.888532 
L 546.13994 416.332746 
L 546.146308 415.221172 
L 550.267706 415.221172 
L 551.169032 414.665386 
L 551.260372 412.998026 
L 552.161245 412.442239 
L 552.659456 411.886452 
L 556.920526 411.886452 
L 557.101327 410.219092 
L 557.318664 410.219092 
L 557.479805 409.663306 
L 558.521185 409.107519 
L 560.160398 409.107519 
L 560.498095 408.551732 
L 560.574925 407.995946 
L 560.747236 407.995946 
L 561.737431 406.884372 
L 562.798331 406.884372 
L 563.146676 406.328586 
L 564.370457 406.328586 
L 564.374494 405.217012 
L 565.212838 405.217012 
L 566.325794 404.661226 
L 569.274387 403.549652 
L 569.53762 402.993866 
L 575.536515 402.993866 
L 576.270541 401.882292 
L 587.478076 401.882292 
L 587.614859 400.770719 
L 593.07003 400.770719 
L 593.903538 400.214932 
L 596.432906 400.214932 
L 596.574875 399.659146 
L 612.135829 399.659146 
L 612.384204 399.103359 
L 613.925535 399.103359 
L 614.404192 398.547572 
L 617.280791 398.547572 
L 617.821802 397.991786 
L 617.825352 397.435999 
L 618.444097 396.880212 
L 620.331303 396.880212 
L 620.475428 396.324426 
L 620.485763 395.212852 
L 620.496028 395.768639 
L 621.764209 395.212852 
L 626.34102 395.212852 
L 627.243807 394.101279 
L 635.501809 394.101279 
L 636.140284 393.545492 
L 638.143604 393.545492 
L 638.30398 392.989706 
L 638.326041 392.433919 
L 645.126744 392.433919 
L 649.350026 391.322346 
L 650.352434 391.322346 
L 650.943725 390.766559 
L 659.691762 390.766559 
L 660.767034 390.210772 
L 662.099414 390.210772 
L 663.38983 389.654986 
L 674.169651 389.654986 
L 674.465488 389.099199 
L 674.467089 388.543412 
L 680.502277 388.543412 
L 680.674204 387.987626 
L 707.606271 387.987626 
L 711.047682 387.431839 
L 718.947353 387.431839 
L 720.675401 386.876052 
L 722.195855 386.876052 
L 722.483619 386.320266 
L 726.0242 386.320266 
L 726.622276 385.764479 
L 727.411071 385.764479 
L 728.434913 385.208692 
L 730.889053 385.208692 
L 731.339977 384.652906 
L 731.642042 384.652906 
L 732.74174 384.097119 
L 743.366092 384.097119 
L 743.395808 382.429759 
L 752.666135 382.429759 
L 756.597233 381.873972 
L 756.600434 381.318186 
L 761.210093 381.318186 
L 761.403594 380.762399 
L 761.406447 380.206612 
L 763.562662 380.206612 
L 764.501776 379.650826 
L 765.173586 379.650826 
L 766.210442 379.095039 
L 767.32312 379.095039 
L 767.515403 377.983466 
L 768.44373 377.983466 
L 768.628742 377.427679 
L 770.71766 377.427679 
L 770.794664 376.871892 
L 774.087218 376.871892 
L 776.47253 376.316106 
L 777.254922 376.316106 
L 778.022978 375.760319 
L 779.60958 375.204532 
L 779.616365 374.648746 
L 780.053892 372.981386 
L 780.4537 372.425599 
L 781.04346 371.869812 
L 782.623972 371.869812 
L 783.582468 370.202452 
L 785.874214 370.202452 
L 786.494734 368.535092 
L 789.016482 368.535092 
L 789.283508 367.979306 
L 791.111247 367.979306 
L 791.508445 366.867732 
L 792.196679 366.311946 
L 794.563793 366.311946 
L 798.666018 365.200372 
L 801.296157 364.644586 
L 801.474835 364.088799 
L 803.962588 364.088799 
L 804.121746 363.533012 
L 806.852967 363.533012 
L 806.865529 362.977226 
L 807.377519 362.977226 
L 807.489737 362.421439 
L 812.012614 362.421439 
L 812.012614 362.421439 
" clip-path="url(#p85ea04ebf0)" style="fill: none; stroke: #bf8700; stroke-width: 2; stroke-linecap: square"/>
   </g>
   <g id="line2d_38">
    <path d="M 85.239886 454.682026 
L 85.487009 454.682026 
L 85.596443 432.450559 
L 86.168353 426.892692 
L 86.495158 425.781119 
L 86.660962 426.336906 
L 86.96355 425.781119 
L 87.475297 425.225332 
L 87.830357 424.113759 
L 88.129082 423.557972 
L 88.140148 423.002186 
L 88.426972 421.334826 
L 88.804024 421.334826 
L 89.317059 420.779039 
L 89.320851 420.223252 
L 89.733917 419.667466 
L 89.847805 419.111679 
L 89.909429 419.111679 
L 90.525356 418.555892 
L 90.965423 418.000106 
L 91.070125 411.886452 
L 91.142536 412.442239 
L 91.418017 406.328586 
L 91.422923 407.995946 
L 91.618687 402.993866 
L 94.105708 402.993866 
L 94.335642 399.659146 
L 94.396152 402.438079 
L 94.676505 397.991786 
L 94.815342 397.435999 
L 95.849728 396.880212 
L 95.88094 396.324426 
L 96.105653 395.768639 
L 96.3153 395.768639 
L 96.847995 395.212852 
L 97.132558 394.657066 
L 97.261443 393.545492 
L 97.339839 392.989706 
L 97.605682 392.433919 
L 97.612258 391.878132 
L 97.879632 392.433919 
L 97.955731 391.878132 
L 97.965091 392.433919 
L 97.976296 390.766559 
L 100.454967 390.766559 
L 104.271133 402.993866 
L 104.838937 390.210772 
L 105.253533 389.654986 
L 106.735642 389.654986 
L 107.006739 389.099199 
L 107.586895 388.543412 
L 108.827379 402.993866 
L 108.907862 387.987626 
L 109.859747 387.431839 
L 111.895358 386.876052 
L 112.040527 387.431839 
L 112.33706 385.764479 
L 112.990498 385.764479 
L 113.189045 385.208692 
L 113.564043 384.652906 
L 113.595151 383.541332 
L 113.94106 382.429759 
L 113.961102 382.985546 
L 114.166852 382.985546 
L 114.279661 381.873972 
L 114.626927 379.650826 
L 114.67258 378.539252 
L 115.11811 376.871892 
L 115.335864 377.983466 
L 116.875526 374.648746 
L 117.280936 375.760319 
L 118.949343 373.537172 
L 120.271076 377.427679 
L 120.734943 373.537172 
L 122.639999 371.869812 
L 125.449094 371.869812 
L 125.820091 371.314026 
L 126.115337 369.646666 
L 126.944982 371.314026 
L 130.329119 371.869812 
L 131.168611 369.646666 
L 131.575518 367.979306 
L 132.271094 369.646666 
L 133.843846 367.979306 
L 139.185616 367.979306 
L 144.802519 367.423519 
L 145.1771 366.867732 
L 148.723213 366.311946 
L 151.068057 366.311946 
L 151.504541 365.756159 
L 151.599499 366.311946 
L 154.094037 364.644586 
L 156.433836 364.644586 
L 156.488153 364.088799 
L 157.761902 363.533012 
L 160.834648 363.533012 
L 162.190098 359.642506 
L 163.198944 359.086719 
L 164.497085 358.530932 
L 164.522277 357.975146 
L 169.387652 357.975146 
L 169.481637 354.084639 
L 169.661707 354.084639 
L 169.82076 352.973066 
L 171.612067 352.973066 
L 172.1536 352.417279 
L 174.786209 352.417279 
L 178.443079 351.861492 
L 178.625967 363.533012 
L 178.634945 352.417279 
L 178.869158 351.861492 
L 180.172449 351.861492 
L 182.150194 351.305706 
L 184.143249 351.305706 
L 185.72644 350.749919 
L 190.090542 349.638346 
L 192.605366 349.638346 
L 194.626467 349.082559 
L 194.940955 346.303626 
L 195.153803 346.303626 
L 195.530437 345.747839 
L 197.494994 345.192052 
L 197.949119 342.968906 
L 200.664299 341.857332 
L 200.697008 342.413119 
L 200.952829 341.857332 
L 204.434883 340.745759 
L 207.04731 340.189972 
L 208.295483 340.189972 
L 209.401793 339.634186 
L 210.360532 338.522612 
L 211.377416 337.966826 
L 211.745246 337.411039 
L 214.144338 337.966826 
L 216.361794 336.855252 
L 216.619146 337.411039 
L 217.208489 337.411039 
L 217.326761 336.855252 
L 218.906403 336.299466 
L 219.903731 336.855252 
L 221.732305 335.743679 
L 222.925744 335.743679 
L 225.471711 335.187892 
L 225.893893 335.743679 
L 226.339075 334.076319 
L 227.883851 334.076319 
L 228.189501 333.520532 
L 229.519689 331.297386 
L 229.895523 330.185812 
L 230.871486 330.741599 
L 231.301427 329.630026 
L 231.344436 329.074239 
L 234.800809 329.074239 
L 236.55137 328.518452 
L 237.000206 327.962666 
L 239.716395 327.962666 
L 241.62761 327.406879 
L 244.87378 327.406879 
L 245.67959 326.851092 
L 254.605992 326.851092 
L 255.118644 326.295306 
L 255.170003 325.739519 
L 255.51713 325.183732 
L 259.391267 325.183732 
L 259.632717 324.627946 
L 260.618389 324.072159 
L 260.789099 323.516372 
L 262.422153 322.960586 
L 263.60992 322.404799 
L 268.36875 322.404799 
L 269.484072 321.293226 
L 274.376414 321.293226 
L 275.465952 320.737439 
L 280.025434 320.737439 
L 280.479628 320.181652 
L 281.610887 319.625866 
L 281.947644 319.070079 
L 282.061984 318.514292 
L 285.450819 317.958506 
L 285.870878 318.514292 
L 290.332061 317.402719 
L 293.859315 316.291146 
L 294.337031 315.735359 
L 301.027988 315.735359 
L 301.894413 315.179572 
L 308.130966 315.179572 
L 314.005674 314.623786 
L 314.744606 314.067999 
L 317.210089 313.512212 
L 319.682531 312.956426 
L 320.063062 312.400639 
L 325.610547 312.400639 
L 327.300945 311.844852 
L 340.058128 311.844852 
L 341.628723 311.289066 
L 352.166501 311.289066 
L 352.741021 310.733279 
L 353.353294 311.289066 
L 356.095233 310.733279 
L 365.32297 310.733279 
L 366.559556 310.177492 
L 386.080455 310.177492 
L 386.109266 309.621706 
L 398.165375 309.621706 
L 400.814164 309.065919 
L 400.82095 308.510132 
L 414.062878 308.510132 
L 414.068759 307.398559 
L 421.908059 307.398559 
L 425.500833 306.842772 
L 429.951577 306.842772 
L 434.056865 305.731199 
L 442.326141 305.731199 
L 442.812279 305.175412 
L 442.876721 304.619626 
L 446.002879 304.619626 
L 446.019581 304.063839 
L 446.344195 304.063839 
L 446.861649 303.508052 
L 451.500292 303.508052 
L 451.676326 302.952266 
L 457.869802 302.952266 
L 458.123501 302.396479 
L 473.248981 302.396479 
L 474.053155 300.729119 
L 474.054304 300.173332 
L 476.197191 300.173332 
L 476.202306 299.617546 
L 482.523066 299.617546 
L 482.663295 299.061759 
L 485.689136 299.061759 
L 485.797839 298.505972 
L 497.038674 298.505972 
L 497.254828 297.950186 
L 499.863984 297.950186 
L 499.955777 297.394399 
L 500.777836 296.838612 
L 521.417362 296.838612 
L 522.492355 295.727039 
L 524.101469 295.727039 
L 524.429388 295.171252 
L 526.038607 295.171252 
L 526.2771 294.615466 
L 530.079174 294.615466 
L 530.124618 294.059679 
L 551.167257 294.059679 
L 551.260372 292.948106 
L 577.562836 292.948106 
L 578.245954 292.392319 
L 623.154456 292.392319 
L 625.264391 291.836532 
L 644.243061 291.836532 
L 644.345153 291.280746 
L 652.841857 291.280746 
L 653.254853 290.724959 
L 812.012614 290.724959 
L 812.012614 290.724959 
" clip-path="url(#p85ea04ebf0)" style="fill: none; stroke: #cf222e; stroke-width: 2; stroke-linecap: square"/>
   </g>
   <g id="line2d_39">
    <path d="M 85.239886 454.682026 
L 85.259546 454.126239 
L 85.414549 -1 
M 85.553864 -1 
L 85.707234 101.201706 
L 88.129082 101.201706 
L 88.140148 97.866986 
L 91.070125 97.866986 
L 91.211919 98.422772 
L 91.618687 98.422772 
L 91.948345 98.978559 
L 93.991055 99.534346 
L 94.031384 98.978559 
L 94.101707 99.534346 
L 100.454967 99.534346 
L 104.271133 98.422772 
L 104.838937 99.534346 
L 105.253533 98.978559 
L 106.298462 99.534346 
L 106.735642 96.755412 
L 107.586895 96.755412 
L 108.827379 98.422772 
L 108.907862 95.643839 
L 109.859747 96.199626 
L 112.33706 96.199626 
L 112.990498 95.088052 
L 113.961102 95.088052 
L 114.221273 91.197546 
L 120.271076 91.197546 
L 120.712326 87.862826 
L 120.734943 86.751252 
L 122.639999 86.751252 
L 125.449094 82.860746 
L 126.922678 82.860746 
L 126.944982 83.416532 
L 130.329119 83.416532 
L 131.168611 80.081812 
L 133.825404 80.081812 
L 133.843846 80.637599 
L 148.723213 80.637599 
L 151.504541 81.193386 
L 151.599499 80.637599 
L 154.484102 81.193386 
L 164.522277 81.193386 
L 169.387652 81.749172 
L 169.481637 74.523946 
L 169.712753 75.079732 
L 172.457475 75.079732 
L 173.625653 75.635519 
L 178.443079 75.635519 
L 178.625967 80.637599 
L 178.634945 71.745012 
L 178.869158 71.745012 
L 180.032185 73.968159 
L 185.72644 73.968159 
L 190.090542 70.077652 
L 194.940955 70.077652 
L 195.153803 68.410292 
L 207.757569 68.410292 
L 208.295483 68.966079 
L 211.355842 68.966079 
L 211.377416 70.077652 
L 217.208489 70.077652 
L 217.326761 73.412372 
L 226.339075 73.412372 
L 226.554324 68.410292 
L 227.880685 67.298719 
L 227.883851 67.854506 
L 228.189501 67.854506 
L 229.278482 65.075572 
L 230.871486 65.075572 
L 231.301427 65.631359 
L 231.344436 65.075572 
L 232.328959 65.631359 
L 232.333447 66.187146 
L 232.356448 65.631359 
L 232.925156 63.408212 
L 238.105715 63.408212 
L 239.716395 63.963999 
L 241.62761 63.963999 
L 244.87378 64.519786 
L 247.946874 64.519786 
L 250.321156 65.631359 
L 255.170003 65.075572 
L 255.51713 65.075572 
L 258.539665 66.187146 
L 259.391267 65.631359 
L 263.60992 65.631359 
L 268.366175 67.854506 
L 268.36875 67.298719 
L 275.465952 67.298719 
L 277.667053 67.854506 
L 316.893304 67.854506 
L 317.210089 68.410292 
L 319.664889 68.410292 
L 319.682531 66.742932 
L 331.515005 66.742932 
L 331.75402 67.298719 
L 356.095233 67.298719 
L 361.455097 67.854506 
L 361.4861 67.298719 
L 365.32297 68.966079 
L 366.559556 68.966079 
L 367.731318 68.410292 
L 370.953791 68.410292 
L 374.028416 68.966079 
L 374.033462 69.521866 
L 382.751191 67.854506 
L 383.578888 68.410292 
L 394.315109 68.410292 
L 394.772017 67.854506 
L 395.609005 68.410292 
L 395.89663 70.633439 
L 400.816705 70.633439 
L 400.82095 71.189226 
L 415.876281 71.189226 
L 416.753005 71.745012 
L 419.646377 71.745012 
L 419.928643 72.300799 
L 434.037692 72.300799 
L 434.056865 72.856586 
L 436.538702 72.856586 
L 437.585754 73.412372 
L 437.591008 73.968159 
L 438.447307 73.412372 
L 438.49202 73.968159 
L 439.821756 73.968159 
L 440.030672 74.523946 
L 442.812279 74.523946 
L 442.876721 73.412372 
L 443.309342 74.523946 
L 444.87611 72.856586 
L 448.664822 72.856586 
L 448.944548 71.189226 
L 450.214991 71.189226 
L 450.838504 72.300799 
L 454.051444 72.300799 
L 455.105698 72.856586 
L 455.361763 72.856586 
L 456.352654 70.077652 
L 458.123501 70.077652 
L 458.527972 70.633439 
L 466.724594 70.633439 
L 466.926551 71.189226 
L 467.684655 71.189226 
L 468.861635 71.745012 
L 482.119118 71.745012 
L 482.238225 72.300799 
L 482.663295 72.300799 
L 483.550667 73.412372 
L 484.79477 73.412372 
L 485.093912 72.856586 
L 485.382129 72.856586 
L 485.491493 73.412372 
L 488.818565 73.412372 
L 489.384977 73.968159 
L 492.280923 73.968159 
L 492.466596 74.523946 
L 494.052884 74.523946 
L 494.154523 75.079732 
L 499.084341 75.079732 
L 499.19033 75.635519 
L 502.065469 75.635519 
L 503.025774 77.858666 
L 504.090467 77.858666 
L 504.09158 78.414452 
L 508.414657 78.414452 
L 509.20721 78.970239 
L 512.517335 78.970239 
L 513.169311 79.526026 
L 515.678881 79.526026 
L 515.866954 80.081812 
L 519.948163 80.081812 
L 521.000156 80.637599 
L 521.076777 81.193386 
L 521.417362 81.193386 
L 522.492355 60.629279 
L 525.826211 60.629279 
L 525.850221 61.185066 
L 526.038607 61.185066 
L 526.2771 60.629279 
L 529.023075 60.629279 
L 529.207565 61.185066 
L 529.686116 61.185066 
L 530.048936 61.740852 
L 530.124618 61.185066 
L 531.603386 61.185066 
L 531.614938 61.740852 
L 531.93548 61.740852 
L 532.075848 62.296639 
L 533.045757 62.852426 
L 539.793988 62.852426 
L 540.84873 63.408212 
L 541.554779 63.408212 
L 542.127593 63.963999 
L 542.707054 63.408212 
L 545.092923 63.408212 
L 545.195816 64.519786 
L 548.620908 64.519786 
L 549.949843 66.187146 
L 564.374494 66.187146 
L 565.212838 66.742932 
L 587.478076 66.742932 
L 587.614859 67.298719 
L 620.331303 67.298719 
L 620.475428 67.854506 
L 620.485763 68.410292 
L 620.496028 67.854506 
L 625.264391 67.854506 
L 626.34102 68.410292 
L 645.126744 68.410292 
L 649.350026 68.966079 
L 650.344118 69.521866 
L 650.352434 67.854506 
L 680.502277 67.854506 
L 680.674204 68.410292 
L 707.606271 68.410292 
L 711.047682 68.966079 
L 713.152746 68.966079 
L 713.381183 69.521866 
L 714.844293 70.077652 
L 718.947353 70.077652 
L 720.675401 70.633439 
L 722.483619 70.633439 
L 722.624439 71.189226 
L 725.598608 71.189226 
L 725.953876 71.745012 
L 726.0242 72.300799 
L 731.319447 72.300799 
L 731.339977 72.856586 
L 735.116336 72.856586 
L 735.848621 72.300799 
L 735.858573 72.856586 
L 737.386195 73.412372 
L 740.098139 73.412372 
L 742.049718 73.968159 
L 743.796242 73.968159 
L 746.370393 61.740852 
L 749.37567 61.740852 
L 749.389588 64.519786 
L 764.50021 64.519786 
L 764.501776 65.075572 
L 764.76313 65.631359 
L 766.210442 65.631359 
L 766.525243 66.187146 
L 771.27252 66.187146 
L 772.369957 66.742932 
L 772.550514 66.187146 
L 781.041547 66.187146 
L 781.04346 66.742932 
L 794.471966 66.742932 
L 794.563793 67.854506 
L 796.507716 69.521866 
L 798.45825 69.521866 
L 798.666018 70.077652 
L 806.865529 70.077652 
L 807.0163 70.633439 
L 812.012614 70.633439 
L 812.012614 70.633439 
" clip-path="url(#p85ea04ebf0)" style="fill: none; stroke: #9467bd; stroke-width: 2; stroke-linecap: square"/>
   </g>
   <g id="patch_3">
    <path d="M 48.90125 455.237812 
L 48.90125 38.397812 
" style="fill: none; stroke: #d0d7de; stroke-width: 0.8; stroke-linejoin: miter; stroke-linecap: square"/>
   </g>
   <g id="patch_4">
    <path d="M 848.35125 455.237812 
L 848.35125 38.397812 
" style="fill: none; stroke: #d0d7de; stroke-width: 0.8; stroke-linejoin: miter; stroke-linecap: square"/>
   </g>
   <g id="patch_5">
    <path d="M 48.90125 455.237812 
L 848.35125 455.237812 
" style="fill: none; stroke: #d0d7de; stroke-width: 0.8; stroke-linejoin: miter; stroke-linecap: square"/>
   </g>
   <g id="patch_6">
    <path d="M 48.90125 38.397812 
L 848.35125 38.397812 
" style="fill: none; stroke: #d0d7de; stroke-width: 0.8; stroke-linejoin: miter; stroke-linecap: square"/>
   </g>
   <g id="text_20">
    <!-- 525 -->
    <g style="fill: #1a7f37" transform="translate(817.012614 165.93325) scale(0.09 -0.09)">
     <defs>
      <path id="DejaVuSans-Bold-35" d="M 678 4666 
L 3669 4666 
L 3669 3781 
L 1638 3781 
L 1638 3059 
Q 1775 3097 1914 3117 
Q 2053 3138 2203 3138 
Q 3056 3138 3531 2711 
Q 4006 2284 4006 1522 
Q 4006 766 3489 337 
Q 2972 -91 2053 -91 
Q 1656 -91 1267 -14 
Q 878 63 494 219 
L 494 1166 
Q 875 947 1217 837 
Q 1559 728 1863 728 
Q 2300 728 2551 942 
Q 2803 1156 2803 1522 
Q 2803 1891 2551 2103 
Q 2300 2316 1863 2316 
Q 1603 2316 1309 2248 
Q 1016 2181 678 2041 
L 678 4666 
z
" transform="scale(0.015625)"/>
      <path id="DejaVuSans-Bold-32" d="M 1844 884 
L 3897 884 
L 3897 0 
L 506 0 
L 506 884 
L 2209 2388 
Q 2438 2594 2547 2791 
Q 2656 2988 2656 3200 
Q 2656 3528 2436 3728 
Q 2216 3928 1850 3928 
Q 1569 3928 1234 3808 
Q 900 3688 519 3450 
L 519 4475 
Q 925 4609 1322 4679 
Q 1719 4750 2100 4750 
Q 2938 4750 3402 4381 
Q 3866 4013 3866 3353 
Q 3866 2972 3669 2642 
Q 3472 2313 2841 1759 
L 1844 884 
z
" transform="scale(0.015625)"/>
     </defs>
     <use xlink:href="#DejaVuSans-Bold-35"/>
     <use xlink:href="#DejaVuSans-Bold-32" transform="translate(69.580078 0)"/>
     <use xlink:href="#DejaVuSans-Bold-35" transform="translate(139.160156 0)"/>
    </g>
   </g>
   <g id="text_21">
    <!-- 407 -->
    <g style="fill: #0969da" transform="translate(817.012614 231.516077) scale(0.09 -0.09)">
     <defs>
      <path id="DejaVuSans-Bold-34" d="M 2356 3675 
L 1038 1722 
L 2356 1722 
L 2356 3675 
z
M 2156 4666 
L 3494 4666 
L 3494 1722 
L 4159 1722 
L 4159 850 
L 3494 850 
L 3494 0 
L 2356 0 
L 2356 850 
L 288 850 
L 288 1881 
L 2156 4666 
z
" transform="scale(0.015625)"/>
      <path id="DejaVuSans-Bold-30" d="M 2944 2338 
Q 2944 3213 2780 3570 
Q 2616 3928 2228 3928 
Q 1841 3928 1675 3570 
Q 1509 3213 1509 2338 
Q 1509 1453 1675 1090 
Q 1841 728 2228 728 
Q 2613 728 2778 1090 
Q 2944 1453 2944 2338 
z
M 4147 2328 
Q 4147 1169 3647 539 
Q 3147 -91 2228 -91 
Q 1306 -91 806 539 
Q 306 1169 306 2328 
Q 306 3491 806 4120 
Q 1306 4750 2228 4750 
Q 3147 4750 3647 4120 
Q 4147 3491 4147 2328 
z
" transform="scale(0.015625)"/>
      <path id="DejaVuSans-Bold-37" d="M 428 4666 
L 3944 4666 
L 3944 3988 
L 2125 0 
L 953 0 
L 2675 3781 
L 428 3781 
L 428 4666 
z
" transform="scale(0.015625)"/>
     </defs>
     <use xlink:href="#DejaVuSans-Bold-34"/>
     <use xlink:href="#DejaVuSans-Bold-30" transform="translate(69.580078 0)"/>
     <use xlink:href="#DejaVuSans-Bold-37" transform="translate(139.160156 0)"/>
    </g>
   </g>
   <g id="text_22">
    <!-- 167 -->
    <g style="fill: #bf8700" transform="translate(817.012614 364.904877) scale(0.09 -0.09)">
     <defs>
      <path id="DejaVuSans-Bold-31" d="M 750 831 
L 1813 831 
L 1813 3847 
L 722 3622 
L 722 4441 
L 1806 4666 
L 2950 4666 
L 2950 831 
L 4013 831 
L 4013 0 
L 750 0 
L 750 831 
z
" transform="scale(0.015625)"/>
      <path id="DejaVuSans-Bold-36" d="M 2316 2303 
Q 2000 2303 1842 2098 
Q 1684 1894 1684 1484 
Q 1684 1075 1842 870 
Q 2000 666 2316 666 
Q 2634 666 2792 870 
Q 2950 1075 2950 1484 
Q 2950 1894 2792 2098 
Q 2634 2303 2316 2303 
z
M 3803 4544 
L 3803 3681 
Q 3506 3822 3243 3889 
Q 2981 3956 2731 3956 
Q 2194 3956 1894 3657 
Q 1594 3359 1544 2772 
Q 1750 2925 1990 3001 
Q 2231 3078 2516 3078 
Q 3231 3078 3670 2659 
Q 4109 2241 4109 1563 
Q 4109 813 3618 361 
Q 3128 -91 2303 -91 
Q 1394 -91 895 523 
Q 397 1138 397 2266 
Q 397 3422 980 4083 
Q 1563 4744 2578 4744 
Q 2900 4744 3203 4694 
Q 3506 4644 3803 4544 
z
" transform="scale(0.015625)"/>
     </defs>
     <use xlink:href="#DejaVuSans-Bold-31"/>
     <use xlink:href="#DejaVuSans-Bold-36" transform="translate(69.580078 0)"/>
     <use xlink:href="#DejaVuSans-Bold-37" transform="translate(139.160156 0)"/>
    </g>
   </g>
   <g id="text_23">
    <!-- 296 -->
    <g style="fill: #cf222e" transform="translate(817.012614 293.208397) scale(0.09 -0.09)">
     <defs>
      <path id="DejaVuSans-Bold-39" d="M 641 103 
L 641 966 
Q 928 831 1190 764 
Q 1453 697 1709 697 
Q 2247 697 2547 995 
Q 2847 1294 2900 1881 
Q 2688 1725 2447 1647 
Q 2206 1569 1925 1569 
Q 1209 1569 770 1986 
Q 331 2403 331 3084 
Q 331 3838 820 4291 
Q 1309 4744 2131 4744 
Q 3044 4744 3544 4128 
Q 4044 3513 4044 2388 
Q 4044 1231 3459 570 
Q 2875 -91 1856 -91 
Q 1528 -91 1228 -42 
Q 928 6 641 103 
z
M 2125 2350 
Q 2441 2350 2600 2554 
Q 2759 2759 2759 3169 
Q 2759 3575 2600 3781 
Q 2441 3988 2125 3988 
Q 1809 3988 1650 3781 
Q 1491 3575 1491 3169 
Q 1491 2759 1650 2554 
Q 1809 2350 2125 2350 
z
" transform="scale(0.015625)"/>
     </defs>
     <use xlink:href="#DejaVuSans-Bold-32"/>
     <use xlink:href="#DejaVuSans-Bold-39" transform="translate(69.580078 0)"/>
     <use xlink:href="#DejaVuSans-Bold-36" transform="translate(139.160156 0)"/>
    </g>
   </g>
   <g id="text_24">
    <!-- 692 -->
    <g style="fill: #9467bd" transform="translate(817.012614 73.116877) scale(0.09 -0.09)">
     <use xlink:href="#DejaVuSans-Bold-36"/>
     <use xlink:href="#DejaVuSans-Bold-39" transform="translate(69.580078 0)"/>
     <use xlink:href="#DejaVuSans-Bold-32" transform="translate(139.160156 0)"/>
    </g>
   </g>
   <g id="text_25">
    <!-- Erdős Problems Progress -->
    <g style="fill: #24292f" transform="translate(349.588281 18.397812) scale(0.14 -0.14)">
     <defs>
      <path id="DejaVuSans-Bold-45" d="M 588 4666 
L 3834 4666 
L 3834 3756 
L 1791 3756 
L 1791 2888 
L 3713 2888 
L 3713 1978 
L 1791 1978 
L 1791 909 
L 3903 909 
L 3903 0 
L 588 0 
L 588 4666 
z
" transform="scale(0.015625)"/>
      <path id="DejaVuSans-Bold-72" d="M 3138 2547 
Q 2991 2616 2845 2648 
Q 2700 2681 2553 2681 
Q 2122 2681 1889 2404 
Q 1656 2128 1656 1613 
L 1656 0 
L 538 0 
L 538 3500 
L 1656 3500 
L 1656 2925 
Q 1872 3269 2151 3426 
Q 2431 3584 2822 3584 
Q 2878 3584 2943 3579 
Q 3009 3575 3134 3559 
L 3138 2547 
z
" transform="scale(0.015625)"/>
      <path id="DejaVuSans-Bold-64" d="M 2919 2988 
L 2919 4863 
L 4044 4863 
L 4044 0 
L 2919 0 
L 2919 506 
Q 2688 197 2409 53 
Q 2131 -91 1766 -91 
Q 1119 -91 703 423 
Q 288 938 288 1747 
Q 288 2556 703 3070 
Q 1119 3584 1766 3584 
Q 2128 3584 2408 3439 
Q 2688 3294 2919 2988 
z
M 2181 722 
Q 2541 722 2730 984 
Q 2919 1247 2919 1747 
Q 2919 2247 2730 2509 
Q 2541 2772 2181 2772 
Q 1825 2772 1636 2509 
Q 1447 2247 1447 1747 
Q 1447 1247 1636 984 
Q 1825 722 2181 722 
z
" transform="scale(0.015625)"/>
      <path id="DejaVuSans-Bold-151" d="M 1881 5119 
L 2560 5119 
L 1785 3944 
L 1275 3944 
L 1881 5119 
z
M 3016 5119 
L 3738 5119 
L 2888 3944 
L 2344 3944 
L 3016 5119 
z
M 2203 2784 
Q 1831 2784 1636 2517 
Q 1441 2250 1441 1747 
Q 1441 1244 1636 976 
Q 1831 709 2203 709 
Q 2569 709 2762 976 
Q 2956 1244 2956 1747 
Q 2956 2250 2762 2517 
Q 2569 2784 2203 2784 
z
M 2203 3584 
Q 3106 3584 3614 3096 
Q 4122 2609 4122 1747 
Q 4122 884 3614 396 
Q 3106 -91 2203 -91 
Q 1297 -91 786 396 
Q 275 884 275 1747 
Q 275 2609 786 3096 
Q 1297 3584 2203 3584 
z
" transform="scale(0.015625)"/>
      <path id="DejaVuSans-Bold-73" d="M 3272 3391 
L 3272 2541 
Q 2913 2691 2578 2766 
Q 2244 2841 1947 2841 
Q 1628 2841 1473 2761 
Q 1319 2681 1319 2516 
Q 1319 2381 1436 2309 
Q 1553 2238 1856 2203 
L 2053 2175 
Q 2913 2066 3209 1816 
Q 3506 1566 3506 1031 
Q 3506 472 3093 190 
Q 2681 -91 1863 -91 
Q 1516 -91 1145 -36 
Q 775 19 384 128 
L 384 978 
Q 719 816 1070 734 
Q 1422 653 1784 653 
Q 2113 653 2278 743 
Q 2444 834 2444 1013 
Q 2444 1163 2330 1236 
Q 2216 1309 1875 1350 
L 1678 1375 
Q 931 1469 631 1722 
Q 331 1975 331 2491 
Q 331 3047 712 3315 
Q 1094 3584 1881 3584 
Q 2191 3584 2531 3537 
Q 2872 3491 3272 3391 
z
" transform="scale(0.015625)"/>
      <path id="DejaVuSans-Bold-20" transform="scale(0.015625)"/>
      <path id="DejaVuSans-Bold-50" d="M 588 4666 
L 2584 4666 
Q 3475 4666 3951 4270 
Q 4428 3875 4428 3144 
Q 4428 2409 3951 2014 
Q 3475 1619 2584 1619 
L 1791 1619 
L 1791 0 
L 588 0 
L 588 4666 
z
M 1791 3794 
L 1791 2491 
L 2456 2491 
Q 2806 2491 2997 2661 
Q 3188 2831 3188 3144 
Q 3188 3456 2997 3625 
Q 2806 3794 2456 3794 
L 1791 3794 
z
" transform="scale(0.015625)"/>
      <path id="DejaVuSans-Bold-6f" d="M 2203 2784 
Q 1831 2784 1636 2517 
Q 1441 2250 1441 1747 
Q 1441 1244 1636 976 
Q 1831 709 2203 709 
Q 2569 709 2762 976 
Q 2956 1244 2956 1747 
Q 2956 2250 2762 2517 
Q 2569 2784 2203 2784 
z
M 2203 3584 
Q 3106 3584 3614 3096 
Q 4122 2609 4122 1747 
Q 4122 884 3614 396 
Q 3106 -91 2203 -91 
Q 1297 -91 786 396 
Q 275 884 275 1747 
Q 275 2609 786 3096 
Q 1297 3584 2203 3584 
z
" transform="scale(0.015625)"/>
      <path id="DejaVuSans-Bold-62" d="M 2400 722 
Q 2759 722 2948 984 
Q 3138 1247 3138 1747 
Q 3138 2247 2948 2509 
Q 2759 2772 2400 2772 
Q 2041 2772 1848 2508 
Q 1656 2244 1656 1747 
Q 1656 1250 1848 986 
Q 2041 722 2400 722 
z
M 1656 2988 
Q 1888 3294 2169 3439 
Q 2450 3584 2816 3584 
Q 3463 3584 3878 3070 
Q 4294 2556 4294 1747 
Q 4294 938 3878 423 
Q 3463 -91 2816 -91 
Q 2450 -91 2169 54 
Q 1888 200 1656 506 
L 1656 0 
L 538 0 
L 538 4863 
L 1656 4863 
L 1656 2988 
z
" transform="scale(0.015625)"/>
      <path id="DejaVuSans-Bold-6c" d="M 538 4863 
L 1656 4863 
L 1656 0 
L 538 0 
L 538 4863 
z
" transform="scale(0.015625)"/>
      <path id="DejaVuSans-Bold-65" d="M 4031 1759 
L 4031 1441 
L 1416 1441 
Q 1456 1047 1700 850 
Q 1944 653 2381 653 
Q 2734 653 3104 758 
Q 3475 863 3866 1075 
L 3866 213 
Q 3469 63 3072 -14 
Q 2675 -91 2278 -91 
Q 1328 -91 801 392 
Q 275 875 275 1747 
Q 275 2603 792 3093 
Q 1309 3584 2216 3584 
Q 3041 3584 3536 3087 
Q 4031 2591 4031 1759 
z
M 2881 2131 
Q 2881 2450 2695 2645 
Q 2509 2841 2209 2841 
Q 1884 2841 1681 2658 
Q 1478 2475 1428 2131 
L 2881 2131 
z
" transform="scale(0.015625)"/>
      <path id="DejaVuSans-Bold-6d" d="M 3781 2919 
Q 3994 3244 4286 3414 
Q 4578 3584 4928 3584 
Q 5531 3584 5847 3212 
Q 6163 2841 6163 2131 
L 6163 0 
L 5038 0 
L 5038 1825 
Q 5041 1866 5042 1909 
Q 5044 1953 5044 2034 
Q 5044 2406 4934 2573 
Q 4825 2741 4581 2741 
Q 4263 2741 4089 2478 
Q 3916 2216 3909 1719 
L 3909 0 
L 2784 0 
L 2784 1825 
Q 2784 2406 2684 2573 
Q 2584 2741 2328 2741 
Q 2006 2741 1831 2477 
Q 1656 2213 1656 1722 
L 1656 0 
L 531 0 
L 531 3500 
L 1656 3500 
L 1656 2988 
Q 1863 3284 2130 3434 
Q 2397 3584 2719 3584 
Q 3081 3584 3359 3409 
Q 3638 3234 3781 2919 
z
" transform="scale(0.015625)"/>
      <path id="DejaVuSans-Bold-67" d="M 2919 594 
Q 2688 288 2409 144 
Q 2131 0 1766 0 
Q 1125 0 706 504 
Q 288 1009 288 1791 
Q 288 2575 706 3076 
Q 1125 3578 1766 3578 
Q 2131 3578 2409 3434 
Q 2688 3291 2919 2981 
L 2919 3500 
L 4044 3500 
L 4044 353 
Q 4044 -491 3511 -936 
Q 2978 -1381 1966 -1381 
Q 1638 -1381 1331 -1331 
Q 1025 -1281 716 -1178 
L 716 -306 
Q 1009 -475 1290 -558 
Q 1572 -641 1856 -641 
Q 2406 -641 2662 -400 
Q 2919 -159 2919 353 
L 2919 594 
z
M 2181 2772 
Q 1834 2772 1640 2515 
Q 1447 2259 1447 1791 
Q 1447 1309 1634 1061 
Q 1822 813 2181 813 
Q 2531 813 2725 1069 
Q 2919 1325 2919 1791 
Q 2919 2259 2725 2515 
Q 2531 2772 2181 2772 
z
" transform="scale(0.015625)"/>
     </defs>
     <use xlink:href="#DejaVuSans-Bold-45"/>
     <use xlink:href="#DejaVuSans-Bold-72" transform="translate(68.310547 0)"/>
     <use xlink:href="#DejaVuSans-Bold-64" transform="translate(117.626953 0)"/>
     <use xlink:href="#DejaVuSans-Bold-151" transform="translate(189.208984 0)"/>
     <use xlink:href="#DejaVuSans-Bold-73" transform="translate(257.910156 0)"/>
     <use xlink:href="#DejaVuSans-Bold-20" transform="translate(317.431641 0)"/>
     <use xlink:href="#DejaVuSans-Bold-50" transform="translate(352.246094 0)"/>
     <use xlink:href="#DejaVuSans-Bold-72" transform="translate(425.537109 0)"/>
     <use xlink:href="#DejaVuSans-Bold-6f" transform="translate(474.853516 0)"/>
     <use xlink:href="#DejaVuSans-Bold-62" transform="translate(543.554688 0)"/>
     <use xlink:href="#DejaVuSans-Bold-6c" transform="translate(615.136719 0)"/>
     <use xlink:href="#DejaVuSans-Bold-65" transform="translate(649.414062 0)"/>
     <use xlink:href="#DejaVuSans-Bold-6d" transform="translate(717.236328 0)"/>
     <use xlink:href="#DejaVuSans-Bold-73" transform="translate(821.435547 0)"/>
     <use xlink:href="#DejaVuSans-Bold-20" transform="translate(880.957031 0)"/>
     <use xlink:href="#DejaVuSans-Bold-50" transform="translate(915.771484 0)"/>
     <use xlink:href="#DejaVuSans-Bold-72" transform="translate(989.0625 0)"/>
     <use xlink:href="#DejaVuSans-Bold-6f" transform="translate(1038.378906 0)"/>
     <use xlink:href="#DejaVuSans-Bold-67" transform="translate(1107.080078 0)"/>
     <use xlink:href="#DejaVuSans-Bold-72" transform="translate(1178.662109 0)"/>
     <use xlink:href="#DejaVuSans-Bold-65" transform="translate(1227.978516 0)"/>
     <use xlink:href="#DejaVuSans-Bold-73" transform="translate(1295.800781 0)"/>
     <use xlink:href="#DejaVuSans-Bold-73" transform="translate(1355.322266 0)"/>
    </g>
   </g>
   <g id="legend_1">
    <g id="patch_7">
     <path d="M 55.90125 119.788437 
L 213.771563 119.788437 
Q 215.771563 119.788437 215.771563 117.788437 
L 215.771563 45.397812 
Q 215.771563 43.397812 213.771563 43.397812 
L 55.90125 43.397812 
Q 53.90125 43.397812 53.90125 45.397812 
L 53.90125 117.788437 
Q 53.90125 119.788437 55.90125 119.788437 
z
" style="fill: #f6f8fa; opacity: 0.8; stroke: #d0d7de; stroke-linejoin: miter"/>
    </g>
    <g id="line2d_40">
     <path d="M 57.90125 51.49625 
L 67.90125 51.49625 
L 77.90125 51.49625 
" style="fill: none; stroke: #1a7f37; stroke-width: 2; stroke-linecap: square"/>
    </g>
    <g id="text_26">
     <!-- Solved -->
     <g style="fill: #24292f" transform="translate(85.90125 54.99625) scale(0.1 -0.1)">
      <defs>
       <path id="DejaVuSans-6c" d="M 603 4863 
L 1178 4863 
L 1178 0 
L 603 0 
L 603 4863 
z
" transform="scale(0.015625)"/>
       <path id="DejaVuSans-64" d="M 2906 2969 
L 2906 4863 
L 3481 4863 
L 3481 0 
L 2906 0 
L 2906 525 
Q 2725 213 2448 61 
Q 2172 -91 1784 -91 
Q 1150 -91 751 415 
Q 353 922 353 1747 
Q 353 2572 751 3078 
Q 1150 3584 1784 3584 
Q 2172 3584 2448 3432 
Q 2725 3281 2906 2969 
z
M 947 1747 
Q 947 1113 1208 752 
Q 1469 391 1925 391 
Q 2381 391 2643 752 
Q 2906 1113 2906 1747 
Q 2906 2381 2643 2742 
Q 2381 3103 1925 3103 
Q 1469 3103 1208 2742 
Q 947 2381 947 1747 
z
" transform="scale(0.015625)"/>
      </defs>
      <use xlink:href="#DejaVuSans-53"/>
      <use xlink:href="#DejaVuSans-6f" transform="translate(63.476562 0)"/>
      <use xlink:href="#DejaVuSans-6c" transform="translate(124.658203 0)"/>
      <use xlink:href="#DejaVuSans-76" transform="translate(152.441406 0)"/>
      <use xlink:href="#DejaVuSans-65" transform="translate(211.621094 0)"/>
      <use xlink:href="#DejaVuSans-64" transform="translate(273.144531 0)"/>
     </g>
    </g>
    <g id="line2d_41">
     <path d="M 57.90125 66.174375 
L 67.90125 66.174375 
L 77.90125 66.174375 
" style="fill: none; stroke: #0969da; stroke-width: 2; stroke-linecap: square"/>
    </g>
    <g id="text_27">
     <!-- Lean Formalized Problem -->
     <g style="fill: #24292f" transform="translate(85.90125 69.674375) scale(0.1 -0.1)">
      <defs>
       <path id="DejaVuSans-4c" d="M 628 4666 
L 1259 4666 
L 1259 531 
L 3531 531 
L 3531 0 
L 628 0 
L 628 4666 
z
" transform="scale(0.015625)"/>
       <path id="DejaVuSans-20" transform="scale(0.015625)"/>
       <path id="DejaVuSans-6d" d="M 3328 2828 
Q 3544 3216 3844 3400 
Q 4144 3584 4550 3584 
Q 5097 3584 5394 3201 
Q 5691 2819 5691 2113 
L 5691 0 
L 5113 0 
L 5113 2094 
Q 5113 2597 4934 2840 
Q 4756 3084 4391 3084 
Q 3944 3084 3684 2787 
Q 3425 2491 3425 1978 
L 3425 0 
L 2847 0 
L 2847 2094 
Q 2847 2600 2669 2842 
Q 2491 3084 2119 3084 
Q 1678 3084 1418 2786 
Q 1159 2488 1159 1978 
L 1159 0 
L 581 0 
L 581 3500 
L 1159 3500 
L 1159 2956 
Q 1356 3278 1631 3431 
Q 1906 3584 2284 3584 
Q 2666 3584 2933 3390 
Q 3200 3197 3328 2828 
z
" transform="scale(0.015625)"/>
       <path id="DejaVuSans-69" d="M 603 3500 
L 1178 3500 
L 1178 0 
L 603 0 
L 603 3500 
z
M 603 4863 
L 1178 4863 
L 1178 4134 
L 603 4134 
L 603 4863 
z
" transform="scale(0.015625)"/>
       <path id="DejaVuSans-7a" d="M 353 3500 
L 3084 3500 
L 3084 2975 
L 922 459 
L 3084 459 
L 3084 0 
L 275 0 
L 275 525 
L 2438 3041 
L 353 3041 
L 353 3500 
z
" transform="scale(0.015625)"/>
       <path id="DejaVuSans-50" d="M 1259 4147 
L 1259 2394 
L 2053 2394 
Q 2494 2394 2734 2622 
Q 2975 2850 2975 3272 
Q 2975 3691 2734 3919 
Q 2494 4147 2053 4147 
L 1259 4147 
z
M 628 4666 
L 2053 4666 
Q 2838 4666 3239 4311 
Q 3641 3956 3641 3272 
Q 3641 2581 3239 2228 
Q 2838 1875 2053 1875 
L 1259 1875 
L 1259 0 
L 628 0 
L 628 4666 
z
" transform="scale(0.015625)"/>
      </defs>
      <use xlink:href="#DejaVuSans-4c"/>
      <use xlink:href="#DejaVuSans-65" transform="translate(53.962891 0)"/>
      <use xlink:href="#DejaVuSans-61" transform="translate(115.486328 0)"/>
      <use xlink:href="#DejaVuSans-6e" transform="translate(176.765625 0)"/>
      <use xlink:href="#DejaVuSans-20" transform="translate(240.144531 0)"/>
      <use xlink:href="#DejaVuSans-46" transform="translate(271.931641 0)"/>
      <use xlink:href="#DejaVuSans-6f" transform="translate(325.826172 0)"/>
      <use xlink:href="#DejaVuSans-72" transform="translate(387.007812 0)"/>
      <use xlink:href="#DejaVuSans-6d" transform="translate(426.371094 0)"/>
      <use xlink:href="#DejaVuSans-61" transform="translate(523.783203 0)"/>
      <use xlink:href="#DejaVuSans-6c" transform="translate(585.0625 0)"/>
      <use xlink:href="#DejaVuSans-69" transform="translate(612.845703 0)"/>
      <use xlink:href="#DejaVuSans-7a" transform="translate(640.628906 0)"/>
      <use xlink:href="#DejaVuSans-65" transform="translate(693.119141 0)"/>
      <use xlink:href="#DejaVuSans-64" transform="translate(754.642578 0)"/>
      <use xlink:href="#DejaVuSans-20" transform="translate(818.119141 0)"/>
      <use xlink:href="#DejaVuSans-50" transform="translate(849.90625 0)"/>
      <use xlink:href="#DejaVuSans-72" transform="translate(908.458984 0)"/>
      <use xlink:href="#DejaVuSans-6f" transform="translate(947.322266 0)"/>
      <use xlink:href="#DejaVuSans-62" transform="translate(1008.503906 0)"/>
      <use xlink:href="#DejaVuSans-6c" transform="translate(1071.980469 0)"/>
      <use xlink:href="#DejaVuSans-65" transform="translate(1099.763672 0)"/>
      <use xlink:href="#DejaVuSans-6d" transform="translate(1161.287109 0)"/>
     </g>
    </g>
    <g id="line2d_42">
     <path d="M 57.90125 80.8525 
L 67.90125 80.8525 
L 77.90125 80.8525 
" style="fill: none; stroke: #bf8700; stroke-width: 2; stroke-linecap: square"/>
    </g>
    <g id="text_28">
     <!-- Lean Formalized Solution -->
     <g style="fill: #24292f" transform="translate(85.90125 84.3525) scale(0.1 -0.1)">
      <use xlink:href="#DejaVuSans-4c"/>
      <use xlink:href="#DejaVuSans-65" transform="translate(53.962891 0)"/>
      <use xlink:href="#DejaVuSans-61" transform="translate(115.486328 0)"/>
      <use xlink:href="#DejaVuSans-6e" transform="translate(176.765625 0)"/>
      <use xlink:href="#DejaVuSans-20" transform="translate(240.144531 0)"/>
      <use xlink:href="#DejaVuSans-46" transform="translate(271.931641 0)"/>
      <use xlink:href="#DejaVuSans-6f" transform="translate(325.826172 0)"/>
      <use xlink:href="#DejaVuSans-72" transform="translate(387.007812 0)"/>
      <use xlink:href="#DejaVuSans-6d" transform="translate(426.371094 0)"/>
      <use xlink:href="#DejaVuSans-61" transform="translate(523.783203 0)"/>
      <use xlink:href="#DejaVuSans-6c" transform="translate(585.0625 0)"/>
      <use xlink:href="#DejaVuSans-69" transform="translate(612.845703 0)"/>
      <use xlink:href="#DejaVuSans-7a" transform="translate(640.628906 0)"/>
      <use xlink:href="#DejaVuSans-65" transform="translate(693.119141 0)"/>
      <use xlink:href="#DejaVuSans-64" transform="translate(754.642578 0)"/>
      <use xlink:href="#DejaVuSans-20" transform="translate(818.119141 0)"/>
      <use xlink:href="#DejaVuSans-53" transform="translate(849.90625 0)"/>
      <use xlink:href="#DejaVuSans-6f" transform="translate(913.382812 0)"/>
      <use xlink:href="#DejaVuSans-6c" transform="translate(974.564453 0)"/>
      <use xlink:href="#DejaVuSans-75" transform="translate(1002.347656 0)"/>
      <use xlink:href="#DejaVuSans-74" transform="translate(1065.726562 0)"/>
      <use xlink:href="#DejaVuSans-69" transform="translate(1104.935547 0)"/>
      <use xlink:href="#DejaVuSans-6f" transform="translate(1132.71875 0)"/>
      <use xlink:href="#DejaVuSans-6e" transform="translate(1193.900391 0)"/>
     </g>
    </g>
    <g id="line2d_43">
     <path d="M 57.90125 95.530625 
L 67.90125 95.530625 
L 77.90125 95.530625 
" style="fill: none; stroke: #cf222e; stroke-width: 2; stroke-linecap: square"/>
    </g>
    <g id="text_29">
     <!-- OEIS Linked -->
     <g style="fill: #24292f" transform="translate(85.90125 99.030625) scale(0.1 -0.1)">
      <defs>
       <path id="DejaVuSans-45" d="M 628 4666 
L 3578 4666 
L 3578 4134 
L 1259 4134 
L 1259 2753 
L 3481 2753 
L 3481 2222 
L 1259 2222 
L 1259 531 
L 3634 531 
L 3634 0 
L 628 0 
L 628 4666 
z
" transform="scale(0.015625)"/>
       <path id="DejaVuSans-49" d="M 628 4666 
L 1259 4666 
L 1259 0 
L 628 0 
L 628 4666 
z
" transform="scale(0.015625)"/>
       <path id="DejaVuSans-6b" d="M 581 4863 
L 1159 4863 
L 1159 1991 
L 2875 3500 
L 3609 3500 
L 1753 1863 
L 3688 0 
L 2938 0 
L 1159 1709 
L 1159 0 
L 581 0 
L 581 4863 
z
" transform="scale(0.015625)"/>
      </defs>
      <use xlink:href="#DejaVuSans-4f"/>
      <use xlink:href="#DejaVuSans-45" transform="translate(78.710938 0)"/>
      <use xlink:href="#DejaVuSans-49" transform="translate(141.894531 0)"/>
      <use xlink:href="#DejaVuSans-53" transform="translate(171.386719 0)"/>
      <use xlink:href="#DejaVuSans-20" transform="translate(234.863281 0)"/>
      <use xlink:href="#DejaVuSans-4c" transform="translate(266.650391 0)"/>
      <use xlink:href="#DejaVuSans-69" transform="translate(322.363281 0)"/>
      <use xlink:href="#DejaVuSans-6e" transform="translate(350.146484 0)"/>
      <use xlink:href="#DejaVuSans-6b" transform="translate(413.525391 0)"/>
      <use xlink:href="#DejaVuSans-65" transform="translate(467.810547 0)"/>
      <use xlink:href="#DejaVuSans-64" transform="translate(529.333984 0)"/>
     </g>
    </g>
    <g id="line2d_44">
     <path d="M 57.90125 110.20875 
L 67.90125 110.20875 
L 77.90125 110.20875 
" style="fill: none; stroke: #9467bd; stroke-width: 2; stroke-linecap: square"/>
    </g>
    <g id="text_30">
     <!-- Open Problems -->
     <g style="fill: #24292f" transform="translate(85.90125 113.70875) scale(0.1 -0.1)">
      <defs>
       <path id="DejaVuSans-73" d="M 2834 3397 
L 2834 2853 
Q 2591 2978 2328 3040 
Q 2066 3103 1784 3103 
Q 1356 3103 1142 2972 
Q 928 2841 928 2578 
Q 928 2378 1081 2264 
Q 1234 2150 1697 2047 
L 1894 2003 
Q 2506 1872 2764 1633 
Q 3022 1394 3022 966 
Q 3022 478 2636 193 
Q 2250 -91 1575 -91 
Q 1294 -91 989 -36 
Q 684 19 347 128 
L 347 722 
Q 666 556 975 473 
Q 1284 391 1588 391 
Q 1994 391 2212 530 
Q 2431 669 2431 922 
Q 2431 1156 2273 1281 
Q 2116 1406 1581 1522 
L 1381 1569 
Q 847 1681 609 1914 
Q 372 2147 372 2553 
Q 372 3047 722 3315 
Q 1072 3584 1716 3584 
Q 2034 3584 2315 3537 
Q 2597 3491 2834 3397 
z
" transform="scale(0.015625)"/>
      </defs>
      <use xlink:href="#DejaVuSans-4f"/>
      <use xlink:href="#DejaVuSans-70" transform="translate(78.710938 0)"/>
      <use xlink:href="#DejaVuSans-65" transform="translate(142.1875 0)"/>
      <use xlink:href="#DejaVuSans-6e" transform="translate(203.710938 0)"/>
      <use xlink:href="#DejaVuSans-20" transform="translate(267.089844 0)"/>
      <use xlink:href="#DejaVuSans-50" transform="translate(298.876953 0)"/>
      <use xlink:href="#DejaVuSans-72" transform="translate(357.429688 0)"/>
      <use xlink:href="#DejaVuSans-6f" transform="translate(396.292969 0)"/>
      <use xlink:href="#DejaVuSans-62" transform="translate(457.474609 0)"/>
      <use xlink:href="#DejaVuSans-6c" transform="translate(520.951172 0)"/>
      <use xlink:href="#DejaVuSans-65" transform="translate(548.734375 0)"/>
      <use xlink:href="#DejaVuSans-6d" transform="translate(610.257812 0)"/>
      <use xlink:href="#DejaVuSans-73" transform="translate(707.669922 0)"/>
     </g>
    </g>
   </g>
  </g>
 </g>
 <defs>
  <clipPath id="p85ea04ebf0">
   <rect x="48.90125" y="38.397812" width="799.45" height="416.84"/>
  </clipPath>
 </defs>
</svg>
