<?xml version="1.0" encoding="utf-8" standalone="no"?>
<!DOCTYPE svg PUBLIC "-//W3C//DTD SVG 1.1//EN"
  "http://www.w3.org/Graphics/SVG/1.1/DTD/svg11.dtd">
<svg xmlns:xlink="http://www.w3.org/1999/xlink" width="855.55125pt" height="494.729687pt" viewBox="0 0 855.55125 494.729687" xmlns="http://www.w3.org/2000/svg" version="1.1">
 <metadata>
  <rdf:RDF xmlns:dc="http://purl.org/dc/elements/1.1/" xmlns:cc="http://creativecommons.org/ns#" xmlns:rdf="http://www.w3.org/1999/02/22-rdf-syntax-ns#">
   <cc:Work>
    <dc:type rdf:resource="http://purl.org/dc/dcmitype/StillImage"/>
    <dc:date>2026-01-05T22:02:23.023488</dc:date>
    <dc:format>image/svg+xml</dc:format>
    <dc:creator>
     <cc:Agent>
      <dc:title>Matplotlib v3.10.7, https://matplotlib.org/</dc:title>
     </cc:Agent>
    </dc:creator>
   </cc:Work>
  </rdf:RDF>
 </metadata>
 <defs>
  <style type="text/css">*{stroke-linejoin: round; stroke-linecap: butt}</style>
 </defs>
 <g id="figure_1">
  <g id="patch_1">
   <path d="M 0 494.729687 
L 855.55125 494.729687 
L 855.55125 0 
L 0 0 
z
" style="fill: #0d1117"/>
  </g>
  <g id="axes_1">
   <g id="patch_2">
    <path d="M 48.90125 455.237812 
L 848.35125 455.237812 
L 848.35125 38.397812 
L 48.90125 38.397812 
z
" style="fill: #0d1117"/>
   </g>
   <g id="matplotlib.axis_1">
    <g id="xtick_1">
     <g id="line2d_1">
      <path d="M 86.910055 455.237812 
L 86.910055 38.397812 
" clip-path="url(#p738ea46fe9)" style="fill: none; stroke: #30363d; stroke-opacity: 0.25; stroke-width: 0.5; stroke-linecap: square"/>
     </g>
     <g id="line2d_2">
      <defs>
       <path id="m5ebd585667" d="M 0 0 
L 0 3.5 
" style="stroke: #c9d1d9; stroke-width: 0.8"/>
      </defs>
      <g>
       <use xlink:href="#m5ebd585667" x="86.910055" y="455.237812" style="fill: #c9d1d9; stroke: #c9d1d9; stroke-width: 0.8"/>
      </g>
     </g>
     <g id="text_1">
      <!-- Sep -->
      <g style="fill: #c9d1d9" transform="translate(77.485055 469.83625) scale(0.1 -0.1)">
       <defs>
        <path id="DejaVuSans-53" d="M 3425 4513 
L 3425 3897 
Q 3066 4069 2747 4153 
Q 2428 4238 2131 4238 
Q 1616 4238 1336 4038 
Q 1056 3838 1056 3469 
Q 1056 3159 1242 3001 
Q 1428 2844 1947 2747 
L 2328 2669 
Q 3034 2534 3370 2195 
Q 3706 1856 3706 1288 
Q 3706 609 3251 259 
Q 2797 -91 1919 -91 
Q 1588 -91 1214 -16 
Q 841 59 441 206 
L 441 856 
Q 825 641 1194 531 
Q 1563 422 1919 422 
Q 2459 422 2753 634 
Q 3047 847 3047 1241 
Q 3047 1584 2836 1778 
Q 2625 1972 2144 2069 
L 1759 2144 
Q 1053 2284 737 2584 
Q 422 2884 422 3419 
Q 422 4038 858 4394 
Q 1294 4750 2059 4750 
Q 2388 4750 2728 4690 
Q 3069 4631 3425 4513 
z
" transform="scale(0.015625)"/>
        <path id="DejaVuSans-65" d="M 3597 1894 
L 3597 1613 
L 953 1613 
Q 991 1019 1311 708 
Q 1631 397 2203 397 
Q 2534 397 2845 478 
Q 3156 559 3463 722 
L 3463 178 
Q 3153 47 2828 -22 
Q 2503 -91 2169 -91 
Q 1331 -91 842 396 
Q 353 884 353 1716 
Q 353 2575 817 3079 
Q 1281 3584 2069 3584 
Q 2775 3584 3186 3129 
Q 3597 2675 3597 1894 
z
M 3022 2063 
Q 3016 2534 2758 2815 
Q 2500 3097 2075 3097 
Q 1594 3097 1305 2825 
Q 1016 2553 972 2059 
L 3022 2063 
z
" transform="scale(0.015625)"/>
        <path id="DejaVuSans-70" d="M 1159 525 
L 1159 -1331 
L 581 -1331 
L 581 3500 
L 1159 3500 
L 1159 2969 
Q 1341 3281 1617 3432 
Q 1894 3584 2278 3584 
Q 2916 3584 3314 3078 
Q 3713 2572 3713 1747 
Q 3713 922 3314 415 
Q 2916 -91 2278 -91 
Q 1894 -91 1617 61 
Q 1341 213 1159 525 
z
M 3116 1747 
Q 3116 2381 2855 2742 
Q 2594 3103 2138 3103 
Q 1681 3103 1420 2742 
Q 1159 2381 1159 1747 
Q 1159 1113 1420 752 
Q 1681 391 2138 391 
Q 2594 391 2855 752 
Q 3116 1113 3116 1747 
z
" transform="scale(0.015625)"/>
       </defs>
       <use xlink:href="#DejaVuSans-53"/>
       <use xlink:href="#DejaVuSans-65" transform="translate(63.476562 0)"/>
       <use xlink:href="#DejaVuSans-70" transform="translate(125 0)"/>
      </g>
     </g>
    </g>
    <g id="xtick_2">
     <g id="line2d_3">
      <path d="M 166.894069 455.237812 
L 166.894069 38.397812 
" clip-path="url(#p738ea46fe9)" style="fill: none; stroke: #30363d; stroke-opacity: 0.25; stroke-width: 0.5; stroke-linecap: square"/>
     </g>
     <g id="line2d_4">
      <g>
       <use xlink:href="#m5ebd585667" x="166.894069" y="455.237812" style="fill: #c9d1d9; stroke: #c9d1d9; stroke-width: 0.8"/>
      </g>
     </g>
     <g id="text_2">
      <!-- 15 -->
      <g style="fill: #c9d1d9" transform="translate(160.531569 469.83625) scale(0.1 -0.1)">
       <defs>
        <path id="DejaVuSans-31" d="M 794 531 
L 1825 531 
L 1825 4091 
L 703 3866 
L 703 4441 
L 1819 4666 
L 2450 4666 
L 2450 531 
L 3481 531 
L 3481 0 
L 794 0 
L 794 531 
z
" transform="scale(0.015625)"/>
        <path id="DejaVuSans-35" d="M 691 4666 
L 3169 4666 
L 3169 4134 
L 1269 4134 
L 1269 2991 
Q 1406 3038 1543 3061 
Q 1681 3084 1819 3084 
Q 2600 3084 3056 2656 
Q 3513 2228 3513 1497 
Q 3513 744 3044 326 
Q 2575 -91 1722 -91 
Q 1428 -91 1123 -41 
Q 819 9 494 109 
L 494 744 
Q 775 591 1075 516 
Q 1375 441 1709 441 
Q 2250 441 2565 725 
Q 2881 1009 2881 1497 
Q 2881 1984 2565 2268 
Q 2250 2553 1709 2553 
Q 1456 2553 1204 2497 
Q 953 2441 691 2322 
L 691 4666 
z
" transform="scale(0.015625)"/>
       </defs>
       <use xlink:href="#DejaVuSans-31"/>
       <use xlink:href="#DejaVuSans-35" transform="translate(63.623047 0)"/>
      </g>
     </g>
    </g>
    <g id="xtick_3">
     <g id="line2d_5">
      <path d="M 258.30437 455.237812 
L 258.30437 38.397812 
" clip-path="url(#p738ea46fe9)" style="fill: none; stroke: #30363d; stroke-opacity: 0.25; stroke-width: 0.5; stroke-linecap: square"/>
     </g>
     <g id="line2d_6">
      <g>
       <use xlink:href="#m5ebd585667" x="258.30437" y="455.237812" style="fill: #c9d1d9; stroke: #c9d1d9; stroke-width: 0.8"/>
      </g>
     </g>
     <g id="text_3">
      <!-- Oct -->
      <g style="fill: #c9d1d9" transform="translate(249.659057 469.83625) scale(0.1 -0.1)">
       <defs>
        <path id="DejaVuSans-4f" d="M 2522 4238 
Q 1834 4238 1429 3725 
Q 1025 3213 1025 2328 
Q 1025 1447 1429 934 
Q 1834 422 2522 422 
Q 3209 422 3611 934 
Q 4013 1447 4013 2328 
Q 4013 3213 3611 3725 
Q 3209 4238 2522 4238 
z
M 2522 4750 
Q 3503 4750 4090 4092 
Q 4678 3434 4678 2328 
Q 4678 1225 4090 567 
Q 3503 -91 2522 -91 
Q 1538 -91 948 565 
Q 359 1222 359 2328 
Q 359 3434 948 4092 
Q 1538 4750 2522 4750 
z
" transform="scale(0.015625)"/>
        <path id="DejaVuSans-63" d="M 3122 3366 
L 3122 2828 
Q 2878 2963 2633 3030 
Q 2388 3097 2138 3097 
Q 1578 3097 1268 2742 
Q 959 2388 959 1747 
Q 959 1106 1268 751 
Q 1578 397 2138 397 
Q 2388 397 2633 464 
Q 2878 531 3122 666 
L 3122 134 
Q 2881 22 2623 -34 
Q 2366 -91 2075 -91 
Q 1284 -91 818 406 
Q 353 903 353 1747 
Q 353 2603 823 3093 
Q 1294 3584 2113 3584 
Q 2378 3584 2631 3529 
Q 2884 3475 3122 3366 
z
" transform="scale(0.015625)"/>
        <path id="DejaVuSans-74" d="M 1172 4494 
L 1172 3500 
L 2356 3500 
L 2356 3053 
L 1172 3053 
L 1172 1153 
Q 1172 725 1289 603 
Q 1406 481 1766 481 
L 2356 481 
L 2356 0 
L 1766 0 
Q 1100 0 847 248 
Q 594 497 594 1153 
L 594 3053 
L 172 3053 
L 172 3500 
L 594 3500 
L 594 4494 
L 1172 4494 
z
" transform="scale(0.015625)"/>
       </defs>
       <use xlink:href="#DejaVuSans-4f"/>
       <use xlink:href="#DejaVuSans-63" transform="translate(78.710938 0)"/>
       <use xlink:href="#DejaVuSans-74" transform="translate(133.691406 0)"/>
      </g>
     </g>
    </g>
    <g id="xtick_4">
     <g id="line2d_7">
      <path d="M 338.288383 455.237812 
L 338.288383 38.397812 
" clip-path="url(#p738ea46fe9)" style="fill: none; stroke: #30363d; stroke-opacity: 0.25; stroke-width: 0.5; stroke-linecap: square"/>
     </g>
     <g id="line2d_8">
      <g>
       <use xlink:href="#m5ebd585667" x="338.288383" y="455.237812" style="fill: #c9d1d9; stroke: #c9d1d9; stroke-width: 0.8"/>
      </g>
     </g>
     <g id="text_4">
      <!-- 15 -->
      <g style="fill: #c9d1d9" transform="translate(331.925883 469.83625) scale(0.1 -0.1)">
       <use xlink:href="#DejaVuSans-31"/>
       <use xlink:href="#DejaVuSans-35" transform="translate(63.623047 0)"/>
      </g>
     </g>
    </g>
    <g id="xtick_5">
     <g id="line2d_9">
      <path d="M 435.411828 455.237812 
L 435.411828 38.397812 
" clip-path="url(#p738ea46fe9)" style="fill: none; stroke: #30363d; stroke-opacity: 0.25; stroke-width: 0.5; stroke-linecap: square"/>
     </g>
     <g id="line2d_10">
      <g>
       <use xlink:href="#m5ebd585667" x="435.411828" y="455.237812" style="fill: #c9d1d9; stroke: #c9d1d9; stroke-width: 0.8"/>
      </g>
     </g>
     <g id="text_5">
      <!-- Nov -->
      <g style="fill: #c9d1d9" transform="translate(425.652453 469.83625) scale(0.1 -0.1)">
       <defs>
        <path id="DejaVuSans-4e" d="M 628 4666 
L 1478 4666 
L 3547 763 
L 3547 4666 
L 4159 4666 
L 4159 0 
L 3309 0 
L 1241 3903 
L 1241 0 
L 628 0 
L 628 4666 
z
" transform="scale(0.015625)"/>
        <path id="DejaVuSans-6f" d="M 1959 3097 
Q 1497 3097 1228 2736 
Q 959 2375 959 1747 
Q 959 1119 1226 758 
Q 1494 397 1959 397 
Q 2419 397 2687 759 
Q 2956 1122 2956 1747 
Q 2956 2369 2687 2733 
Q 2419 3097 1959 3097 
z
M 1959 3584 
Q 2709 3584 3137 3096 
Q 3566 2609 3566 1747 
Q 3566 888 3137 398 
Q 2709 -91 1959 -91 
Q 1206 -91 779 398 
Q 353 888 353 1747 
Q 353 2609 779 3096 
Q 1206 3584 1959 3584 
z
" transform="scale(0.015625)"/>
        <path id="DejaVuSans-76" d="M 191 3500 
L 800 3500 
L 1894 563 
L 2988 3500 
L 3597 3500 
L 2284 0 
L 1503 0 
L 191 3500 
z
" transform="scale(0.015625)"/>
       </defs>
       <use xlink:href="#DejaVuSans-4e"/>
       <use xlink:href="#DejaVuSans-6f" transform="translate(74.804688 0)"/>
       <use xlink:href="#DejaVuSans-76" transform="translate(135.986328 0)"/>
      </g>
     </g>
    </g>
    <g id="xtick_6">
     <g id="line2d_11">
      <path d="M 515.395841 455.237812 
L 515.395841 38.397812 
" clip-path="url(#p738ea46fe9)" style="fill: none; stroke: #30363d; stroke-opacity: 0.25; stroke-width: 0.5; stroke-linecap: square"/>
     </g>
     <g id="line2d_12">
      <g>
       <use xlink:href="#m5ebd585667" x="515.395841" y="455.237812" style="fill: #c9d1d9; stroke: #c9d1d9; stroke-width: 0.8"/>
      </g>
     </g>
     <g id="text_6">
      <!-- 15 -->
      <g style="fill: #c9d1d9" transform="translate(509.033341 469.83625) scale(0.1 -0.1)">
       <use xlink:href="#DejaVuSans-31"/>
       <use xlink:href="#DejaVuSans-35" transform="translate(63.623047 0)"/>
      </g>
     </g>
    </g>
    <g id="xtick_7">
     <g id="line2d_13">
      <path d="M 606.806142 455.237812 
L 606.806142 38.397812 
" clip-path="url(#p738ea46fe9)" style="fill: none; stroke: #30363d; stroke-opacity: 0.25; stroke-width: 0.5; stroke-linecap: square"/>
     </g>
     <g id="line2d_14">
      <g>
       <use xlink:href="#m5ebd585667" x="606.806142" y="455.237812" style="fill: #c9d1d9; stroke: #c9d1d9; stroke-width: 0.8"/>
      </g>
     </g>
     <g id="text_7">
      <!-- Dec -->
      <g style="fill: #c9d1d9" transform="translate(597.130361 469.83625) scale(0.1 -0.1)">
       <defs>
        <path id="DejaVuSans-44" d="M 1259 4147 
L 1259 519 
L 2022 519 
Q 2988 519 3436 956 
Q 3884 1394 3884 2338 
Q 3884 3275 3436 3711 
Q 2988 4147 2022 4147 
L 1259 4147 
z
M 628 4666 
L 1925 4666 
Q 3281 4666 3915 4102 
Q 4550 3538 4550 2338 
Q 4550 1131 3912 565 
Q 3275 0 1925 0 
L 628 0 
L 628 4666 
z
" transform="scale(0.015625)"/>
       </defs>
       <use xlink:href="#DejaVuSans-44"/>
       <use xlink:href="#DejaVuSans-65" transform="translate(77.001953 0)"/>
       <use xlink:href="#DejaVuSans-63" transform="translate(138.525391 0)"/>
      </g>
     </g>
    </g>
    <g id="xtick_8">
     <g id="line2d_15">
      <path d="M 686.790155 455.237812 
L 686.790155 38.397812 
" clip-path="url(#p738ea46fe9)" style="fill: none; stroke: #30363d; stroke-opacity: 0.25; stroke-width: 0.5; stroke-linecap: square"/>
     </g>
     <g id="line2d_16">
      <g>
       <use xlink:href="#m5ebd585667" x="686.790155" y="455.237812" style="fill: #c9d1d9; stroke: #c9d1d9; stroke-width: 0.8"/>
      </g>
     </g>
     <g id="text_8">
      <!-- 15 -->
      <g style="fill: #c9d1d9" transform="translate(680.427655 469.83625) scale(0.1 -0.1)">
       <use xlink:href="#DejaVuSans-31"/>
       <use xlink:href="#DejaVuSans-35" transform="translate(63.623047 0)"/>
      </g>
     </g>
    </g>
    <g id="xtick_9">
     <g id="line2d_17">
      <path d="M 783.9136 455.237812 
L 783.9136 38.397812 
" clip-path="url(#p738ea46fe9)" style="fill: none; stroke: #30363d; stroke-opacity: 0.25; stroke-width: 0.5; stroke-linecap: square"/>
     </g>
     <g id="line2d_18">
      <g>
       <use xlink:href="#m5ebd585667" x="783.9136" y="455.237812" style="fill: #c9d1d9; stroke: #c9d1d9; stroke-width: 0.8"/>
      </g>
     </g>
     <g id="text_9">
      <!-- Jan -->
      <g style="fill: #c9d1d9" transform="translate(776.205788 469.83625) scale(0.1 -0.1)">
       <defs>
        <path id="DejaVuSans-4a" d="M 628 4666 
L 1259 4666 
L 1259 325 
Q 1259 -519 939 -900 
Q 619 -1281 -91 -1281 
L -331 -1281 
L -331 -750 
L -134 -750 
Q 284 -750 456 -515 
Q 628 -281 628 325 
L 628 4666 
z
" transform="scale(0.015625)"/>
        <path id="DejaVuSans-61" d="M 2194 1759 
Q 1497 1759 1228 1600 
Q 959 1441 959 1056 
Q 959 750 1161 570 
Q 1363 391 1709 391 
Q 2188 391 2477 730 
Q 2766 1069 2766 1631 
L 2766 1759 
L 2194 1759 
z
M 3341 1997 
L 3341 0 
L 2766 0 
L 2766 531 
Q 2569 213 2275 61 
Q 1981 -91 1556 -91 
Q 1019 -91 701 211 
Q 384 513 384 1019 
Q 384 1609 779 1909 
Q 1175 2209 1959 2209 
L 2766 2209 
L 2766 2266 
Q 2766 2663 2505 2880 
Q 2244 3097 1772 3097 
Q 1472 3097 1187 3025 
Q 903 2953 641 2809 
L 641 3341 
Q 956 3463 1253 3523 
Q 1550 3584 1831 3584 
Q 2591 3584 2966 3190 
Q 3341 2797 3341 1997 
z
" transform="scale(0.015625)"/>
        <path id="DejaVuSans-6e" d="M 3513 2113 
L 3513 0 
L 2938 0 
L 2938 2094 
Q 2938 2591 2744 2837 
Q 2550 3084 2163 3084 
Q 1697 3084 1428 2787 
Q 1159 2491 1159 1978 
L 1159 0 
L 581 0 
L 581 3500 
L 1159 3500 
L 1159 2956 
Q 1366 3272 1645 3428 
Q 1925 3584 2291 3584 
Q 2894 3584 3203 3211 
Q 3513 2838 3513 2113 
z
" transform="scale(0.015625)"/>
       </defs>
       <use xlink:href="#DejaVuSans-4a"/>
       <use xlink:href="#DejaVuSans-61" transform="translate(29.492188 0)"/>
       <use xlink:href="#DejaVuSans-6e" transform="translate(90.771484 0)"/>
      </g>
     </g>
    </g>
    <g id="text_10">
     <!-- Date -->
     <g style="fill: #c9d1d9" transform="translate(434.285312 485.034062) scale(0.12 -0.12)">
      <use xlink:href="#DejaVuSans-44"/>
      <use xlink:href="#DejaVuSans-61" transform="translate(77.001953 0)"/>
      <use xlink:href="#DejaVuSans-74" transform="translate(138.28125 0)"/>
      <use xlink:href="#DejaVuSans-65" transform="translate(177.490234 0)"/>
     </g>
    </g>
    <g id="text_11">
     <!-- 2026-Jan -->
     <g style="fill: #c9d1d9" transform="translate(803.315312 482.514375) scale(0.1 -0.1)">
      <defs>
       <path id="DejaVuSans-32" d="M 1228 531 
L 3431 531 
L 3431 0 
L 469 0 
L 469 531 
Q 828 903 1448 1529 
Q 2069 2156 2228 2338 
Q 2531 2678 2651 2914 
Q 2772 3150 2772 3378 
Q 2772 3750 2511 3984 
Q 2250 4219 1831 4219 
Q 1534 4219 1204 4116 
Q 875 4013 500 3803 
L 500 4441 
Q 881 4594 1212 4672 
Q 1544 4750 1819 4750 
Q 2544 4750 2975 4387 
Q 3406 4025 3406 3419 
Q 3406 3131 3298 2873 
Q 3191 2616 2906 2266 
Q 2828 2175 2409 1742 
Q 1991 1309 1228 531 
z
" transform="scale(0.015625)"/>
       <path id="DejaVuSans-30" d="M 2034 4250 
Q 1547 4250 1301 3770 
Q 1056 3291 1056 2328 
Q 1056 1369 1301 889 
Q 1547 409 2034 409 
Q 2525 409 2770 889 
Q 3016 1369 3016 2328 
Q 3016 3291 2770 3770 
Q 2525 4250 2034 4250 
z
M 2034 4750 
Q 2819 4750 3233 4129 
Q 3647 3509 3647 2328 
Q 3647 1150 3233 529 
Q 2819 -91 2034 -91 
Q 1250 -91 836 529 
Q 422 1150 422 2328 
Q 422 3509 836 4129 
Q 1250 4750 2034 4750 
z
" transform="scale(0.015625)"/>
       <path id="DejaVuSans-36" d="M 2113 2584 
Q 1688 2584 1439 2293 
Q 1191 2003 1191 1497 
Q 1191 994 1439 701 
Q 1688 409 2113 409 
Q 2538 409 2786 701 
Q 3034 994 3034 1497 
Q 3034 2003 2786 2293 
Q 2538 2584 2113 2584 
z
M 3366 4563 
L 3366 3988 
Q 3128 4100 2886 4159 
Q 2644 4219 2406 4219 
Q 1781 4219 1451 3797 
Q 1122 3375 1075 2522 
Q 1259 2794 1537 2939 
Q 1816 3084 2150 3084 
Q 2853 3084 3261 2657 
Q 3669 2231 3669 1497 
Q 3669 778 3244 343 
Q 2819 -91 2113 -91 
Q 1303 -91 875 529 
Q 447 1150 447 2328 
Q 447 3434 972 4092 
Q 1497 4750 2381 4750 
Q 2619 4750 2861 4703 
Q 3103 4656 3366 4563 
z
" transform="scale(0.015625)"/>
       <path id="DejaVuSans-2d" d="M 313 2009 
L 1997 2009 
L 1997 1497 
L 313 1497 
L 313 2009 
z
" transform="scale(0.015625)"/>
      </defs>
      <use xlink:href="#DejaVuSans-32"/>
      <use xlink:href="#DejaVuSans-30" transform="translate(63.623047 0)"/>
      <use xlink:href="#DejaVuSans-32" transform="translate(127.246094 0)"/>
      <use xlink:href="#DejaVuSans-36" transform="translate(190.869141 0)"/>
      <use xlink:href="#DejaVuSans-2d" transform="translate(254.492188 0)"/>
      <use xlink:href="#DejaVuSans-4a" transform="translate(296.201172 0)"/>
      <use xlink:href="#DejaVuSans-61" transform="translate(325.693359 0)"/>
      <use xlink:href="#DejaVuSans-6e" transform="translate(386.972656 0)"/>
     </g>
    </g>
   </g>
   <g id="matplotlib.axis_2">
    <g id="ytick_1">
     <g id="line2d_19">
      <path d="M 48.90125 455.237812 
L 848.35125 455.237812 
" clip-path="url(#p738ea46fe9)" style="fill: none; stroke: #30363d; stroke-opacity: 0.25; stroke-width: 0.5; stroke-linecap: square"/>
     </g>
     <g id="line2d_20">
      <defs>
       <path id="m0dbf2a2888" d="M 0 0 
L -3.5 0 
" style="stroke: #c9d1d9; stroke-width: 0.8"/>
      </defs>
      <g>
       <use xlink:href="#m0dbf2a2888" x="48.90125" y="455.237812" style="fill: #c9d1d9; stroke: #c9d1d9; stroke-width: 0.8"/>
      </g>
     </g>
     <g id="text_12">
      <!-- 0 -->
      <g style="fill: #c9d1d9" transform="translate(35.53875 459.037031) scale(0.1 -0.1)">
       <use xlink:href="#DejaVuSans-30"/>
      </g>
     </g>
    </g>
    <g id="ytick_2">
     <g id="line2d_21">
      <path d="M 48.90125 399.659146 
L 848.35125 399.659146 
" clip-path="url(#p738ea46fe9)" style="fill: none; stroke: #30363d; stroke-opacity: 0.25; stroke-width: 0.5; stroke-linecap: square"/>
     </g>
     <g id="line2d_22">
      <g>
       <use xlink:href="#m0dbf2a2888" x="48.90125" y="399.659146" style="fill: #c9d1d9; stroke: #c9d1d9; stroke-width: 0.8"/>
      </g>
     </g>
     <g id="text_13">
      <!-- 100 -->
      <g style="fill: #c9d1d9" transform="translate(22.81375 403.458365) scale(0.1 -0.1)">
       <use xlink:href="#DejaVuSans-31"/>
       <use xlink:href="#DejaVuSans-30" transform="translate(63.623047 0)"/>
       <use xlink:href="#DejaVuSans-30" transform="translate(127.246094 0)"/>
      </g>
     </g>
    </g>
    <g id="ytick_3">
     <g id="line2d_23">
      <path d="M 48.90125 344.080479 
L 848.35125 344.080479 
" clip-path="url(#p738ea46fe9)" style="fill: none; stroke: #30363d; stroke-opacity: 0.25; stroke-width: 0.5; stroke-linecap: square"/>
     </g>
     <g id="line2d_24">
      <g>
       <use xlink:href="#m0dbf2a2888" x="48.90125" y="344.080479" style="fill: #c9d1d9; stroke: #c9d1d9; stroke-width: 0.8"/>
      </g>
     </g>
     <g id="text_14">
      <!-- 200 -->
      <g style="fill: #c9d1d9" transform="translate(22.81375 347.879698) scale(0.1 -0.1)">
       <use xlink:href="#DejaVuSans-32"/>
       <use xlink:href="#DejaVuSans-30" transform="translate(63.623047 0)"/>
       <use xlink:href="#DejaVuSans-30" transform="translate(127.246094 0)"/>
      </g>
     </g>
    </g>
    <g id="ytick_4">
     <g id="line2d_25">
      <path d="M 48.90125 288.501812 
L 848.35125 288.501812 
" clip-path="url(#p738ea46fe9)" style="fill: none; stroke: #30363d; stroke-opacity: 0.25; stroke-width: 0.5; stroke-linecap: square"/>
     </g>
     <g id="line2d_26">
      <g>
       <use xlink:href="#m0dbf2a2888" x="48.90125" y="288.501812" style="fill: #c9d1d9; stroke: #c9d1d9; stroke-width: 0.8"/>
      </g>
     </g>
     <g id="text_15">
      <!-- 300 -->
      <g style="fill: #c9d1d9" transform="translate(22.81375 292.301031) scale(0.1 -0.1)">
       <defs>
        <path id="DejaVuSans-33" d="M 2597 2516 
Q 3050 2419 3304 2112 
Q 3559 1806 3559 1356 
Q 3559 666 3084 287 
Q 2609 -91 1734 -91 
Q 1441 -91 1130 -33 
Q 819 25 488 141 
L 488 750 
Q 750 597 1062 519 
Q 1375 441 1716 441 
Q 2309 441 2620 675 
Q 2931 909 2931 1356 
Q 2931 1769 2642 2001 
Q 2353 2234 1838 2234 
L 1294 2234 
L 1294 2753 
L 1863 2753 
Q 2328 2753 2575 2939 
Q 2822 3125 2822 3475 
Q 2822 3834 2567 4026 
Q 2313 4219 1838 4219 
Q 1578 4219 1281 4162 
Q 984 4106 628 3988 
L 628 4550 
Q 988 4650 1302 4700 
Q 1616 4750 1894 4750 
Q 2613 4750 3031 4423 
Q 3450 4097 3450 3541 
Q 3450 3153 3228 2886 
Q 3006 2619 2597 2516 
z
" transform="scale(0.015625)"/>
       </defs>
       <use xlink:href="#DejaVuSans-33"/>
       <use xlink:href="#DejaVuSans-30" transform="translate(63.623047 0)"/>
       <use xlink:href="#DejaVuSans-30" transform="translate(127.246094 0)"/>
      </g>
     </g>
    </g>
    <g id="ytick_5">
     <g id="line2d_27">
      <path d="M 48.90125 232.923146 
L 848.35125 232.923146 
" clip-path="url(#p738ea46fe9)" style="fill: none; stroke: #30363d; stroke-opacity: 0.25; stroke-width: 0.5; stroke-linecap: square"/>
     </g>
     <g id="line2d_28">
      <g>
       <use xlink:href="#m0dbf2a2888" x="48.90125" y="232.923146" style="fill: #c9d1d9; stroke: #c9d1d9; stroke-width: 0.8"/>
      </g>
     </g>
     <g id="text_16">
      <!-- 400 -->
      <g style="fill: #c9d1d9" transform="translate(22.81375 236.722365) scale(0.1 -0.1)">
       <defs>
        <path id="DejaVuSans-34" d="M 2419 4116 
L 825 1625 
L 2419 1625 
L 2419 4116 
z
M 2253 4666 
L 3047 4666 
L 3047 1625 
L 3713 1625 
L 3713 1100 
L 3047 1100 
L 3047 0 
L 2419 0 
L 2419 1100 
L 313 1100 
L 313 1709 
L 2253 4666 
z
" transform="scale(0.015625)"/>
       </defs>
       <use xlink:href="#DejaVuSans-34"/>
       <use xlink:href="#DejaVuSans-30" transform="translate(63.623047 0)"/>
       <use xlink:href="#DejaVuSans-30" transform="translate(127.246094 0)"/>
      </g>
     </g>
    </g>
    <g id="ytick_6">
     <g id="line2d_29">
      <path d="M 48.90125 177.344479 
L 848.35125 177.344479 
" clip-path="url(#p738ea46fe9)" style="fill: none; stroke: #30363d; stroke-opacity: 0.25; stroke-width: 0.5; stroke-linecap: square"/>
     </g>
     <g id="line2d_30">
      <g>
       <use xlink:href="#m0dbf2a2888" x="48.90125" y="177.344479" style="fill: #c9d1d9; stroke: #c9d1d9; stroke-width: 0.8"/>
      </g>
     </g>
     <g id="text_17">
      <!-- 500 -->
      <g style="fill: #c9d1d9" transform="translate(22.81375 181.143698) scale(0.1 -0.1)">
       <use xlink:href="#DejaVuSans-35"/>
       <use xlink:href="#DejaVuSans-30" transform="translate(63.623047 0)"/>
       <use xlink:href="#DejaVuSans-30" transform="translate(127.246094 0)"/>
      </g>
     </g>
    </g>
    <g id="ytick_7">
     <g id="line2d_31">
      <path d="M 48.90125 121.765812 
L 848.35125 121.765812 
" clip-path="url(#p738ea46fe9)" style="fill: none; stroke: #30363d; stroke-opacity: 0.25; stroke-width: 0.5; stroke-linecap: square"/>
     </g>
     <g id="line2d_32">
      <g>
       <use xlink:href="#m0dbf2a2888" x="48.90125" y="121.765812" style="fill: #c9d1d9; stroke: #c9d1d9; stroke-width: 0.8"/>
      </g>
     </g>
     <g id="text_18">
      <!-- 600 -->
      <g style="fill: #c9d1d9" transform="translate(22.81375 125.565031) scale(0.1 -0.1)">
       <use xlink:href="#DejaVuSans-36"/>
       <use xlink:href="#DejaVuSans-30" transform="translate(63.623047 0)"/>
       <use xlink:href="#DejaVuSans-30" transform="translate(127.246094 0)"/>
      </g>
     </g>
    </g>
    <g id="ytick_8">
     <g id="line2d_33">
      <path d="M 48.90125 66.187146 
L 848.35125 66.187146 
" clip-path="url(#p738ea46fe9)" style="fill: none; stroke: #30363d; stroke-opacity: 0.25; stroke-width: 0.5; stroke-linecap: square"/>
     </g>
     <g id="line2d_34">
      <g>
       <use xlink:href="#m0dbf2a2888" x="48.90125" y="66.187146" style="fill: #c9d1d9; stroke: #c9d1d9; stroke-width: 0.8"/>
      </g>
     </g>
     <g id="text_19">
      <!-- 700 -->
      <g style="fill: #c9d1d9" transform="translate(22.81375 69.986365) scale(0.1 -0.1)">
       <defs>
        <path id="DejaVuSans-37" d="M 525 4666 
L 3525 4666 
L 3525 4397 
L 1831 0 
L 1172 0 
L 2766 4134 
L 525 4134 
L 525 4666 
z
" transform="scale(0.015625)"/>
       </defs>
       <use xlink:href="#DejaVuSans-37"/>
       <use xlink:href="#DejaVuSans-30" transform="translate(63.623047 0)"/>
       <use xlink:href="#DejaVuSans-30" transform="translate(127.246094 0)"/>
      </g>
     </g>
    </g>
    <g id="text_20">
     <!-- Count -->
     <g style="fill: #c9d1d9" transform="translate(16.318125 264.635937) rotate(-90) scale(0.12 -0.12)">
      <defs>
       <path id="DejaVuSans-43" d="M 4122 4306 
L 4122 3641 
Q 3803 3938 3442 4084 
Q 3081 4231 2675 4231 
Q 1875 4231 1450 3742 
Q 1025 3253 1025 2328 
Q 1025 1406 1450 917 
Q 1875 428 2675 428 
Q 3081 428 3442 575 
Q 3803 722 4122 1019 
L 4122 359 
Q 3791 134 3420 21 
Q 3050 -91 2638 -91 
Q 1578 -91 968 557 
Q 359 1206 359 2328 
Q 359 3453 968 4101 
Q 1578 4750 2638 4750 
Q 3056 4750 3426 4639 
Q 3797 4528 4122 4306 
z
" transform="scale(0.015625)"/>
       <path id="DejaVuSans-75" d="M 544 1381 
L 544 3500 
L 1119 3500 
L 1119 1403 
Q 1119 906 1312 657 
Q 1506 409 1894 409 
Q 2359 409 2629 706 
Q 2900 1003 2900 1516 
L 2900 3500 
L 3475 3500 
L 3475 0 
L 2900 0 
L 2900 538 
Q 2691 219 2414 64 
Q 2138 -91 1772 -91 
Q 1169 -91 856 284 
Q 544 659 544 1381 
z
M 1991 3584 
L 1991 3584 
z
" transform="scale(0.015625)"/>
      </defs>
      <use xlink:href="#DejaVuSans-43"/>
      <use xlink:href="#DejaVuSans-6f" transform="translate(69.824219 0)"/>
      <use xlink:href="#DejaVuSans-75" transform="translate(131.005859 0)"/>
      <use xlink:href="#DejaVuSans-6e" transform="translate(194.384766 0)"/>
      <use xlink:href="#DejaVuSans-74" transform="translate(257.763672 0)"/>
     </g>
    </g>
   </g>
   <g id="line2d_35">
    <path d="M 85.239886 454.682026 
L 85.349322 454.682026 
L 85.418753 454.126239 
L 85.762136 454.126239 
L 85.917463 257.933546 
L 90.730323 257.933546 
L 90.751351 261.268266 
L 96.319286 261.268266 
L 96.45689 260.712479 
L 97.361736 260.712479 
L 97.988198 260.156692 
L 101.870028 259.600906 
L 101.946666 260.156692 
L 102.13274 259.600906 
L 114.153618 259.600906 
L 121.405608 260.712479 
L 122.484625 259.600906 
L 123.272496 259.600906 
L 125.258211 259.045119 
L 126.088997 256.821972 
L 127.706663 256.821972 
L 130.063996 260.712479 
L 130.216942 256.821972 
L 132.025839 256.266186 
L 136.733562 256.266186 
L 137.975312 255.710399 
L 139.819784 255.710399 
L 140.314196 254.598826 
L 151.81084 254.598826 
L 152.649363 253.487252 
L 152.692344 252.375679 
L 156.312586 252.375679 
L 161.650804 251.264106 
L 164.451104 251.264106 
L 164.49349 250.708319 
L 170.92448 250.708319 
L 172.519796 247.929386 
L 177.568588 247.929386 
L 177.603634 247.373599 
L 205.879398 247.373599 
L 211.16485 246.817812 
L 211.345303 247.373599 
L 216.827012 246.817812 
L 235.902895 246.817812 
L 245.148732 246.262026 
L 245.309083 245.706239 
L 245.327334 245.706239 
L 245.766532 245.150452 
L 250.98242 245.150452 
L 253.202347 244.594666 
L 262.357065 244.594666 
L 262.704614 247.373599 
L 262.721674 245.150452 
L 263.166757 245.150452 
L 265.376898 242.927306 
L 276.197883 242.927306 
L 284.491133 242.371519 
L 293.708537 242.371519 
L 294.113019 241.815732 
L 318.064383 241.815732 
L 319.086599 241.259946 
L 324.902302 241.259946 
L 324.943299 240.148372 
L 336.024285 240.148372 
L 336.249042 236.257866 
L 356.30502 236.257866 
L 356.311037 235.702079 
L 356.891874 235.702079 
L 358.961301 235.146292 
L 361.98854 235.146292 
L 362.805573 234.590506 
L 362.887302 235.146292 
L 364.758225 234.590506 
L 364.766755 234.034719 
L 364.810463 234.590506 
L 365.891199 234.034719 
L 375.735991 234.034719 
L 378.796821 233.478932 
L 382.428767 233.478932 
L 388.597574 232.923146 
L 394.437478 232.923146 
L 398.949407 231.811572 
L 408.823491 231.811572 
L 414.567317 230.699999 
L 416.185644 231.255786 
L 424.202494 231.255786 
L 433.245859 229.032639 
L 446.732911 229.032639 
L 450.915739 228.476852 
L 525.458711 228.476852 
L 526.060707 227.921066 
L 553.244824 227.921066 
L 553.699032 227.365279 
L 599.955461 227.365279 
L 610.140991 226.809492 
L 610.199908 227.365279 
L 617.491242 225.697919 
L 628.191682 225.697919 
L 634.034496 225.142132 
L 634.044084 224.586346 
L 646.235166 224.586346 
L 650.61068 225.142132 
L 652.18358 224.586346 
L 672.585984 224.586346 
L 673.454263 225.142132 
L 675.044818 224.586346 
L 675.591402 222.363199 
L 684.941186 222.363199 
L 684.949254 221.807412 
L 713.559408 221.807412 
L 715.225477 221.251626 
L 720.723849 221.251626 
L 721.26025 220.695839 
L 748.072153 220.695839 
L 748.108587 220.140052 
L 754.814654 220.140052 
L 754.824639 219.584266 
L 756.451893 219.584266 
L 756.536863 219.028479 
L 759.063805 219.028479 
L 759.460816 218.472692 
L 764.869259 218.472692 
L 765.691383 217.361119 
L 768.668764 215.137972 
L 775.868581 215.137972 
L 776.400155 212.359039 
L 778.814421 212.359039 
L 779.999303 211.247466 
L 786.104961 211.247466 
L 788.108397 210.691679 
L 793.843229 210.691679 
L 794.611859 210.135892 
L 810.188177 210.135892 
L 810.571962 209.580106 
L 812.012614 209.580106 
L 812.012614 209.580106 
" clip-path="url(#p738ea46fe9)" style="fill: none; stroke: #3fb950; stroke-width: 2; stroke-linecap: square"/>
   </g>
   <g id="line2d_36">
    <path d="M 85.239886 455.237812 
L 85.349322 453.570452 
L 85.613357 453.570452 
L 85.762136 372.981386 
L 88.459944 372.981386 
L 88.515422 370.758239 
L 91.296414 370.758239 
L 92.012937 369.090879 
L 92.987875 370.758239 
L 92.995082 369.090879 
L 93.801799 369.090879 
L 94.113576 367.979306 
L 102.080303 367.979306 
L 102.087908 367.423519 
L 102.13274 367.979306 
L 102.524857 367.423519 
L 102.639848 367.979306 
L 102.946532 367.423519 
L 105.742204 367.423519 
L 105.888471 366.867732 
L 106.28687 366.311946 
L 109.443316 366.311946 
L 113.035323 365.756159 
L 113.161753 365.200372 
L 114.13259 364.644586 
L 114.153618 364.088799 
L 121.405608 367.979306 
L 122.484625 366.311946 
L 123.272496 363.533012 
L 127.706663 363.533012 
L 130.063996 367.979306 
L 130.216942 363.533012 
L 173.293054 363.533012 
L 174.61488 362.977226 
L 177.603634 362.977226 
L 185.766421 362.421439 
L 187.75478 361.865652 
L 216.085758 361.865652 
L 216.827012 361.309866 
L 220.635377 360.754079 
L 223.055925 360.754079 
L 225.738987 360.198292 
L 225.811261 359.086719 
L 227.655601 358.530932 
L 228.895168 357.975146 
L 245.971782 357.975146 
L 249.375863 357.419359 
L 250.404956 357.419359 
L 250.98242 356.863572 
L 253.202347 356.863572 
L 255.407792 356.307786 
L 262.357065 356.307786 
L 262.704614 358.530932 
L 262.721674 356.307786 
L 265.376898 356.307786 
L 265.643445 355.751999 
L 269.401821 355.751999 
L 273.099561 355.196212 
L 273.189291 354.640426 
L 284.491133 354.640426 
L 289.258103 354.084639 
L 289.270138 353.528852 
L 305.133105 353.528852 
L 311.750169 352.973066 
L 316.714653 352.973066 
L 318.064383 352.417279 
L 325.642299 352.417279 
L 329.964451 351.861492 
L 330.201375 351.305706 
L 334.415281 351.305706 
L 334.904337 350.749919 
L 336.249042 350.194132 
L 339.250889 350.194132 
L 341.146145 349.638346 
L 344.621046 349.638346 
L 346.888979 349.082559 
L 351.727165 349.082559 
L 353.375447 347.970986 
L 365.891199 347.970986 
L 369.455566 347.415199 
L 373.635154 347.415199 
L 374.577691 346.859412 
L 374.865927 346.303626 
L 375.735991 345.747839 
L 390.128881 345.747839 
L 392.764069 345.192052 
L 394.437478 344.636266 
L 435.365342 344.636266 
L 444.552659 344.080479 
L 444.662426 343.524692 
L 450.915739 343.524692 
L 456.260571 342.968906 
L 465.707492 342.968906 
L 466.505745 342.413119 
L 482.594262 342.413119 
L 495.188438 341.857332 
L 495.309314 341.301546 
L 496.95581 341.301546 
L 500.291717 340.745759 
L 500.311687 339.634186 
L 500.624587 338.522612 
L 507.592705 337.966826 
L 508.00995 337.411039 
L 508.029324 336.855252 
L 508.176252 336.299466 
L 508.807343 335.743679 
L 531.482308 335.743679 
L 537.923878 335.187892 
L 542.024381 334.632106 
L 545.236702 334.632106 
L 552.68475 334.076319 
L 553.146827 332.408959 
L 553.244824 331.853172 
L 553.699032 331.853172 
L 554.134791 331.297386 
L 554.769916 330.741599 
L 568.897317 330.185812 
L 569.346962 329.630026 
L 569.479608 329.074239 
L 572.464263 329.074239 
L 575.282681 328.518452 
L 575.606624 327.962666 
L 575.643323 327.406879 
L 575.82662 326.851092 
L 577.692186 326.295306 
L 577.82913 325.739519 
L 581.232947 325.183732 
L 585.707185 324.627946 
L 586.025375 324.072159 
L 586.03212 323.516372 
L 586.932072 322.960586 
L 587.091035 322.404799 
L 592.489559 321.849012 
L 593.581338 321.849012 
L 594.744862 321.293226 
L 622.067906 321.293226 
L 626.599011 320.737439 
L 627.011363 320.181652 
L 645.529619 320.181652 
L 646.235166 319.070079 
L 653.950754 319.070079 
L 656.280182 318.514292 
L 656.393982 317.402719 
L 656.992143 316.846932 
L 660.952925 316.291146 
L 661.042127 315.735359 
L 661.520206 315.179572 
L 661.600018 314.067999 
L 661.606763 313.512212 
L 662.010122 312.956426 
L 662.555846 312.956426 
L 662.575948 312.400639 
L 665.882496 311.844852 
L 667.182434 311.289066 
L 667.496988 310.733279 
L 673.454263 310.177492 
L 677.844523 310.177492 
L 679.36902 309.621706 
L 695.87531 309.621706 
L 701.343728 309.065919 
L 701.365483 308.510132 
L 702.34895 307.954346 
L 715.225477 307.954346 
L 718.838379 307.398559 
L 720.326706 306.842772 
L 720.723849 305.731199 
L 731.139625 305.731199 
L 731.849271 305.175412 
L 737.568895 305.175412 
L 740.30717 304.619626 
L 748.108587 304.619626 
L 752.824907 304.063839 
L 762.619179 304.063839 
L 763.822973 303.508052 
L 768.668764 303.508052 
L 769.987746 302.952266 
L 770.55992 302.396479 
L 770.841742 301.840692 
L 774.830561 301.840692 
L 774.943964 300.729119 
L 776.400155 300.729119 
L 776.808737 299.617546 
L 777.356247 299.061759 
L 780.82599 299.061759 
L 781.256922 298.505972 
L 781.591445 298.505972 
L 783.252224 297.950186 
L 786.008221 297.950186 
L 786.104961 297.394399 
L 788.108397 297.394399 
L 788.595006 296.838612 
L 790.478029 296.838612 
L 793.361117 295.727039 
L 794.611859 295.727039 
L 799.449186 294.615466 
L 799.456459 294.059679 
L 800.380018 293.503892 
L 802.736425 292.948106 
L 803.10282 292.392319 
L 805.452219 291.836532 
L 809.292721 291.836532 
L 809.859142 291.280746 
L 810.188177 290.724959 
L 812.012614 290.724959 
L 812.012614 290.724959 
" clip-path="url(#p738ea46fe9)" style="fill: none; stroke: #58a6ff; stroke-width: 2; stroke-linecap: square"/>
   </g>
   <g id="line2d_37">
    <path d="M 85.239886 455.237812 
L 90.730323 455.237812 
L 90.751351 454.126239 
L 95.284043 454.126239 
L 96.319286 453.570452 
L 375.735991 453.570452 
L 378.796821 453.014666 
L 456.260571 453.014666 
L 458.410339 452.458879 
L 531.482308 452.458879 
L 537.923878 451.903092 
L 554.769916 451.903092 
L 569.479608 450.235732 
L 572.464263 449.124159 
L 577.82913 449.124159 
L 581.232947 448.568372 
L 586.03212 448.012586 
L 587.091035 448.012586 
L 592.489559 447.456799 
L 593.581338 447.456799 
L 594.744862 446.901012 
L 599.955461 446.345226 
L 610.140991 445.789439 
L 610.199908 446.345226 
L 627.011363 446.345226 
L 628.191682 445.789439 
L 652.18358 445.789439 
L 653.950754 445.233652 
L 662.010122 445.233652 
L 662.575948 444.677866 
L 672.585984 444.677866 
L 673.454263 444.122079 
L 710.124513 444.122079 
L 713.559408 443.566292 
L 715.003035 443.566292 
L 715.225477 443.010506 
L 725.012476 443.010506 
L 725.0218 442.454719 
L 748.072153 442.454719 
L 748.108587 441.898932 
L 754.824639 441.898932 
L 756.536863 441.343146 
L 759.059375 440.787359 
L 759.063805 440.231572 
L 759.460816 440.231572 
L 762.619179 438.564212 
L 764.746796 438.564212 
L 764.869259 436.896852 
L 765.691383 436.896852 
L 768.668764 437.452639 
L 770.810002 437.452639 
L 770.841742 435.229492 
L 778.814421 435.229492 
L 779.999303 434.673706 
L 781.256922 434.673706 
L 781.591445 434.117919 
L 810.188177 434.117919 
L 810.571962 433.562132 
L 812.012614 433.562132 
L 812.012614 433.562132 
" clip-path="url(#p738ea46fe9)" style="fill: none; stroke: #d29922; stroke-width: 2; stroke-linecap: square"/>
   </g>
   <g id="line2d_38">
    <path d="M 85.239886 454.682026 
L 85.709501 454.682026 
L 85.762136 433.006346 
L 86.128003 431.338986 
L 86.255689 430.227412 
L 87.004282 426.892692 
L 87.625322 425.781119 
L 87.940405 426.336906 
L 88.515422 425.781119 
L 89.487913 425.225332 
L 90.162646 424.113759 
L 90.730323 423.557972 
L 90.751351 423.002186 
L 91.296414 421.334826 
L 92.012937 421.334826 
L 92.987875 420.779039 
L 92.995082 420.223252 
L 93.780044 419.667466 
L 93.801799 419.111679 
L 94.113576 419.111679 
L 95.284043 418.555892 
L 96.120317 418.000106 
L 96.319286 411.886452 
L 96.45689 412.442239 
L 96.717222 410.219092 
L 96.980397 406.328586 
L 96.98972 407.995946 
L 97.143393 404.105439 
L 97.361736 402.993866 
L 102.087908 402.993866 
L 102.13274 402.438079 
L 102.524857 399.659146 
L 102.639848 402.438079 
L 102.946532 399.103359 
L 103.172612 397.991786 
L 103.436448 397.435999 
L 105.402126 396.880212 
L 105.46144 396.324426 
L 105.742204 395.768639 
L 106.28687 395.768639 
L 107.299168 395.212852 
L 107.839933 394.657066 
L 108.060524 394.101279 
L 108.084857 393.545492 
L 108.233835 392.989706 
L 108.739026 392.433919 
L 108.751523 391.878132 
L 109.259623 392.433919 
L 109.404236 391.878132 
L 109.422024 392.433919 
L 109.443316 390.766559 
L 114.153618 390.766559 
L 121.405608 402.993866 
L 122.484625 390.210772 
L 123.047012 389.654986 
L 126.088997 389.654986 
L 126.604172 389.099199 
L 127.706663 388.543412 
L 130.063996 402.993866 
L 130.216942 387.987626 
L 132.025839 387.431839 
L 135.89418 386.876052 
L 136.170051 387.431839 
L 136.675836 386.320266 
L 136.733562 385.764479 
L 137.975312 385.764479 
L 138.352617 385.208692 
L 139.065239 384.652906 
L 139.124354 383.541332 
L 139.781697 382.429759 
L 139.819784 382.985546 
L 140.210777 382.985546 
L 140.425153 381.873972 
L 141.085074 379.650826 
L 141.171829 378.539252 
L 142.018485 376.871892 
L 142.432291 377.983466 
L 143.989784 376.316106 
L 145.358161 374.648746 
L 146.128576 375.760319 
L 149.299106 373.537172 
L 151.81084 377.427679 
L 152.692344 373.537172 
L 156.312586 371.869812 
L 161.650804 371.869812 
L 162.355822 371.314026 
L 162.916887 369.646666 
L 164.49349 371.314026 
L 170.92448 371.869812 
L 172.519796 369.646666 
L 173.293054 367.979306 
L 174.61488 369.646666 
L 177.603634 367.979306 
L 187.75478 367.979306 
L 198.428771 367.423519 
L 199.1406 366.867732 
L 205.879398 366.311946 
L 210.335386 366.311946 
L 211.16485 365.756159 
L 211.345303 366.311946 
L 216.085758 364.644586 
L 220.532157 364.644586 
L 220.635377 364.088799 
L 223.055925 363.533012 
L 228.895168 363.533012 
L 231.470976 359.642506 
L 233.388119 359.086719 
L 235.855021 358.530932 
L 235.902895 357.975146 
L 245.148732 357.975146 
L 245.327334 354.084639 
L 245.669527 354.084639 
L 245.971782 352.973066 
L 249.375863 352.973066 
L 250.404956 352.417279 
L 255.407792 352.417279 
L 262.357065 351.861492 
L 262.704614 363.533012 
L 262.721674 352.417279 
L 263.166757 351.861492 
L 265.643445 351.861492 
L 269.401821 351.305706 
L 273.189291 351.305706 
L 276.197883 350.749919 
L 284.491133 349.638346 
L 289.270138 349.638346 
L 293.110905 349.082559 
L 293.708537 346.303626 
L 294.113019 346.303626 
L 294.828749 345.747839 
L 298.562064 345.192052 
L 299.425053 342.968906 
L 304.584802 341.857332 
L 304.646959 342.413119 
L 305.133105 341.857332 
L 311.750169 340.745759 
L 316.714653 340.189972 
L 319.086599 340.189972 
L 321.188957 339.634186 
L 323.010881 338.522612 
L 324.943299 337.966826 
L 325.642299 337.411039 
L 330.201375 337.966826 
L 334.415281 336.855252 
L 334.904337 337.411039 
L 336.024285 337.411039 
L 336.249042 336.855252 
L 339.250889 336.299466 
L 341.146145 336.855252 
L 344.621046 335.743679 
L 346.888979 335.743679 
L 351.727165 335.187892 
L 352.529452 335.743679 
L 353.375447 334.076319 
L 356.311037 334.076319 
L 356.891874 333.520532 
L 358.961301 331.853172 
L 359.419675 331.297386 
L 360.133884 330.185812 
L 361.98854 330.741599 
L 362.805573 329.630026 
L 362.887302 329.074239 
L 369.455566 329.074239 
L 372.782216 328.518452 
L 373.635154 327.962666 
L 378.796821 327.962666 
L 382.428767 327.406879 
L 388.597574 327.406879 
L 390.128881 326.851092 
L 407.092025 326.851092 
L 408.066235 326.295306 
L 408.163835 325.739519 
L 408.823491 325.183732 
L 416.185644 325.183732 
L 416.644481 324.627946 
L 418.517585 324.072159 
L 418.841991 323.516372 
L 421.945339 322.960586 
L 424.202494 322.404799 
L 433.245859 322.404799 
L 435.365342 321.293226 
L 444.662426 321.293226 
L 446.732911 320.737439 
L 455.39745 320.737439 
L 456.260571 320.181652 
L 458.410339 319.625866 
L 459.050291 319.070079 
L 459.267575 318.514292 
L 465.707492 317.958506 
L 466.505745 318.514292 
L 474.983482 317.402719 
L 481.686441 316.291146 
L 482.594262 315.735359 
L 495.309314 315.735359 
L 496.95581 315.179572 
L 508.807343 315.179572 
L 519.971249 314.623786 
L 521.375466 314.067999 
L 526.060707 313.512212 
L 530.759172 312.956426 
L 531.482308 312.400639 
L 542.024381 312.400639 
L 545.236702 311.844852 
L 569.479608 311.844852 
L 572.464263 311.289066 
L 592.489559 311.289066 
L 593.581338 310.733279 
L 594.744862 311.289066 
L 599.955461 310.733279 
L 617.491242 310.733279 
L 619.841169 310.177492 
L 656.937392 310.177492 
L 656.992143 309.621706 
L 679.902775 309.621706 
L 684.936359 309.065919 
L 684.949254 308.510132 
L 710.113338 308.510132 
L 710.124513 307.398559 
L 725.0218 307.398559 
L 731.849271 306.842772 
L 740.30717 306.842772 
L 748.108587 305.731199 
L 763.822973 305.731199 
L 764.746796 305.175412 
L 764.869259 304.619626 
L 770.810002 304.619626 
L 770.841742 304.063839 
L 771.458616 304.063839 
L 772.441951 303.508052 
L 781.256922 303.508052 
L 781.591445 302.952266 
L 793.361117 302.952266 
L 793.843229 302.396479 
L 812.012614 302.396479 
L 812.012614 302.396479 
" clip-path="url(#p738ea46fe9)" style="fill: none; stroke: #f85149; stroke-width: 2; stroke-linecap: square"/>
   </g>
   <g id="line2d_39">
    <path d="M 85.239886 454.682026 
L 85.277247 454.126239 
L 85.571803 -1 
M 85.836549 -1 
L 85.917463 101.201706 
L 90.730323 101.201706 
L 90.751351 97.866986 
L 96.319286 97.866986 
L 96.45689 98.422772 
L 97.361736 98.422772 
L 97.988198 98.978559 
L 101.870028 99.534346 
L 101.946666 98.978559 
L 102.13274 99.534346 
L 114.153618 99.534346 
L 121.405608 98.422772 
L 122.484625 99.534346 
L 123.047012 98.978559 
L 123.272496 98.978559 
L 125.258211 99.534346 
L 126.088997 96.755412 
L 127.706663 96.755412 
L 130.063996 98.422772 
L 130.216942 95.643839 
L 132.025839 96.199626 
L 136.733562 96.199626 
L 137.975312 95.088052 
L 139.819784 95.088052 
L 140.314196 91.197546 
L 151.81084 91.197546 
L 152.649363 87.862826 
L 152.692344 86.751252 
L 156.312586 86.751252 
L 161.650804 82.860746 
L 164.451104 82.860746 
L 164.49349 83.416532 
L 170.92448 83.416532 
L 172.519796 80.081812 
L 177.568588 80.081812 
L 177.603634 80.637599 
L 205.879398 80.637599 
L 211.16485 81.193386 
L 211.345303 80.637599 
L 216.827012 81.193386 
L 235.902895 81.193386 
L 245.148732 81.749172 
L 245.309083 74.523946 
L 245.327334 74.523946 
L 245.766532 75.079732 
L 250.98242 75.079732 
L 253.202347 75.635519 
L 262.357065 75.635519 
L 262.704614 80.637599 
L 262.721674 71.745012 
L 263.166757 71.745012 
L 265.376898 73.968159 
L 276.197883 73.968159 
L 284.491133 70.077652 
L 293.708537 70.077652 
L 294.113019 68.410292 
L 318.064383 68.410292 
L 319.086599 68.966079 
L 324.902302 68.966079 
L 324.943299 70.077652 
L 336.024285 70.077652 
L 336.249042 73.412372 
L 353.375447 73.412372 
L 353.784492 68.410292 
L 356.30502 67.298719 
L 356.311037 67.854506 
L 356.891874 67.854506 
L 358.961301 65.075572 
L 361.98854 65.075572 
L 362.805573 65.631359 
L 362.887302 65.075572 
L 364.758225 65.631359 
L 364.766755 66.187146 
L 364.810463 65.631359 
L 365.891199 63.408212 
L 375.735991 63.408212 
L 378.796821 63.963999 
L 382.428767 63.963999 
L 388.597574 64.519786 
L 394.437478 64.519786 
L 398.949407 65.631359 
L 408.163835 65.075572 
L 408.823491 65.075572 
L 414.567317 66.187146 
L 416.185644 65.631359 
L 424.202494 65.631359 
L 433.240965 67.854506 
L 433.245859 67.298719 
L 446.732911 67.298719 
L 450.915739 67.854506 
L 525.458711 67.854506 
L 526.060707 68.410292 
L 530.725647 68.410292 
L 530.759172 66.742932 
L 553.244824 66.742932 
L 553.699032 67.298719 
L 599.955461 67.298719 
L 610.140991 67.854506 
L 610.199908 67.298719 
L 617.491242 68.966079 
L 619.841169 68.966079 
L 622.067906 68.410292 
L 628.191682 68.410292 
L 634.034496 68.966079 
L 634.044084 69.521866 
L 650.61068 67.854506 
L 652.18358 68.410292 
L 672.585984 68.410292 
L 673.454263 67.854506 
L 675.044818 68.410292 
L 675.591402 70.633439 
L 684.941186 70.633439 
L 684.949254 71.189226 
L 713.559408 71.189226 
L 715.225477 71.745012 
L 720.723849 71.745012 
L 721.26025 72.300799 
L 748.072153 72.300799 
L 748.108587 72.856586 
L 752.824907 72.856586 
L 754.814654 73.412372 
L 754.824639 73.968159 
L 756.451893 73.412372 
L 756.536863 73.968159 
L 759.063805 73.968159 
L 759.460816 74.523946 
L 764.746796 74.523946 
L 764.869259 73.412372 
L 765.691383 74.523946 
L 768.668764 72.856586 
L 775.868581 72.856586 
L 776.400155 71.189226 
L 778.814421 71.189226 
L 779.999303 72.300799 
L 786.104961 72.300799 
L 788.108397 72.856586 
L 788.595006 72.856586 
L 790.478029 70.077652 
L 793.843229 70.077652 
L 794.611859 70.633439 
L 810.188177 70.633439 
L 810.571962 71.189226 
L 812.012614 71.189226 
L 812.012614 71.189226 
" clip-path="url(#p738ea46fe9)" style="fill: none; stroke: #9467bd; stroke-width: 2; stroke-linecap: square"/>
   </g>
   <g id="patch_3">
    <path d="M 48.90125 455.237812 
L 48.90125 38.397812 
" style="fill: none; stroke: #30363d; stroke-width: 0.8; stroke-linejoin: miter; stroke-linecap: square"/>
   </g>
   <g id="patch_4">
    <path d="M 848.35125 455.237812 
L 848.35125 38.397812 
" style="fill: none; stroke: #30363d; stroke-width: 0.8; stroke-linejoin: miter; stroke-linecap: square"/>
   </g>
   <g id="patch_5">
    <path d="M 48.90125 455.237812 
L 848.35125 455.237812 
" style="fill: none; stroke: #30363d; stroke-width: 0.8; stroke-linejoin: miter; stroke-linecap: square"/>
   </g>
   <g id="patch_6">
    <path d="M 48.90125 38.397812 
L 848.35125 38.397812 
" style="fill: none; stroke: #30363d; stroke-width: 0.8; stroke-linejoin: miter; stroke-linecap: square"/>
   </g>
   <g id="text_21">
    <!-- 442 -->
    <g style="fill: #3fb950" transform="translate(817.012614 212.063543) scale(0.09 -0.09)">
     <defs>
      <path id="DejaVuSans-Bold-34" d="M 2356 3675 
L 1038 1722 
L 2356 1722 
L 2356 3675 
z
M 2156 4666 
L 3494 4666 
L 3494 1722 
L 4159 1722 
L 4159 850 
L 3494 850 
L 3494 0 
L 2356 0 
L 2356 850 
L 288 850 
L 288 1881 
L 2156 4666 
z
" transform="scale(0.015625)"/>
      <path id="DejaVuSans-Bold-32" d="M 1844 884 
L 3897 884 
L 3897 0 
L 506 0 
L 506 884 
L 2209 2388 
Q 2438 2594 2547 2791 
Q 2656 2988 2656 3200 
Q 2656 3528 2436 3728 
Q 2216 3928 1850 3928 
Q 1569 3928 1234 3808 
Q 900 3688 519 3450 
L 519 4475 
Q 925 4609 1322 4679 
Q 1719 4750 2100 4750 
Q 2938 4750 3402 4381 
Q 3866 4013 3866 3353 
Q 3866 2972 3669 2642 
Q 3472 2313 2841 1759 
L 1844 884 
z
" transform="scale(0.015625)"/>
     </defs>
     <use xlink:href="#DejaVuSans-Bold-34"/>
     <use xlink:href="#DejaVuSans-Bold-34" transform="translate(69.580078 0)"/>
     <use xlink:href="#DejaVuSans-Bold-32" transform="translate(139.160156 0)"/>
    </g>
   </g>
   <g id="text_22">
    <!-- 296 -->
    <g style="fill: #58a6ff" transform="translate(817.012614 293.208397) scale(0.09 -0.09)">
     <defs>
      <path id="DejaVuSans-Bold-39" d="M 641 103 
L 641 966 
Q 928 831 1190 764 
Q 1453 697 1709 697 
Q 2247 697 2547 995 
Q 2847 1294 2900 1881 
Q 2688 1725 2447 1647 
Q 2206 1569 1925 1569 
Q 1209 1569 770 1986 
Q 331 2403 331 3084 
Q 331 3838 820 4291 
Q 1309 4744 2131 4744 
Q 3044 4744 3544 4128 
Q 4044 3513 4044 2388 
Q 4044 1231 3459 570 
Q 2875 -91 1856 -91 
Q 1528 -91 1228 -42 
Q 928 6 641 103 
z
M 2125 2350 
Q 2441 2350 2600 2554 
Q 2759 2759 2759 3169 
Q 2759 3575 2600 3781 
Q 2441 3988 2125 3988 
Q 1809 3988 1650 3781 
Q 1491 3575 1491 3169 
Q 1491 2759 1650 2554 
Q 1809 2350 2125 2350 
z
" transform="scale(0.015625)"/>
      <path id="DejaVuSans-Bold-36" d="M 2316 2303 
Q 2000 2303 1842 2098 
Q 1684 1894 1684 1484 
Q 1684 1075 1842 870 
Q 2000 666 2316 666 
Q 2634 666 2792 870 
Q 2950 1075 2950 1484 
Q 2950 1894 2792 2098 
Q 2634 2303 2316 2303 
z
M 3803 4544 
L 3803 3681 
Q 3506 3822 3243 3889 
Q 2981 3956 2731 3956 
Q 2194 3956 1894 3657 
Q 1594 3359 1544 2772 
Q 1750 2925 1990 3001 
Q 2231 3078 2516 3078 
Q 3231 3078 3670 2659 
Q 4109 2241 4109 1563 
Q 4109 813 3618 361 
Q 3128 -91 2303 -91 
Q 1394 -91 895 523 
Q 397 1138 397 2266 
Q 397 3422 980 4083 
Q 1563 4744 2578 4744 
Q 2900 4744 3203 4694 
Q 3506 4644 3803 4544 
z
" transform="scale(0.015625)"/>
     </defs>
     <use xlink:href="#DejaVuSans-Bold-32"/>
     <use xlink:href="#DejaVuSans-Bold-39" transform="translate(69.580078 0)"/>
     <use xlink:href="#DejaVuSans-Bold-36" transform="translate(139.160156 0)"/>
    </g>
   </g>
   <g id="text_23">
    <!-- 39 -->
    <g style="fill: #d29922" transform="translate(817.012614 436.04557) scale(0.09 -0.09)">
     <defs>
      <path id="DejaVuSans-Bold-33" d="M 2981 2516 
Q 3453 2394 3698 2092 
Q 3944 1791 3944 1325 
Q 3944 631 3412 270 
Q 2881 -91 1863 -91 
Q 1503 -91 1142 -33 
Q 781 25 428 141 
L 428 1069 
Q 766 900 1098 814 
Q 1431 728 1753 728 
Q 2231 728 2486 893 
Q 2741 1059 2741 1369 
Q 2741 1688 2480 1852 
Q 2219 2016 1709 2016 
L 1228 2016 
L 1228 2791 
L 1734 2791 
Q 2188 2791 2409 2933 
Q 2631 3075 2631 3366 
Q 2631 3634 2415 3781 
Q 2200 3928 1806 3928 
Q 1516 3928 1219 3862 
Q 922 3797 628 3669 
L 628 4550 
Q 984 4650 1334 4700 
Q 1684 4750 2022 4750 
Q 2931 4750 3382 4451 
Q 3834 4153 3834 3553 
Q 3834 3144 3618 2883 
Q 3403 2622 2981 2516 
z
" transform="scale(0.015625)"/>
     </defs>
     <use xlink:href="#DejaVuSans-Bold-33"/>
     <use xlink:href="#DejaVuSans-Bold-39" transform="translate(69.580078 0)"/>
    </g>
   </g>
   <g id="text_24">
    <!-- 275 -->
    <g style="fill: #f85149" transform="translate(817.012614 304.879917) scale(0.09 -0.09)">
     <defs>
      <path id="DejaVuSans-Bold-37" d="M 428 4666 
L 3944 4666 
L 3944 3988 
L 2125 0 
L 953 0 
L 2675 3781 
L 428 3781 
L 428 4666 
z
" transform="scale(0.015625)"/>
      <path id="DejaVuSans-Bold-35" d="M 678 4666 
L 3669 4666 
L 3669 3781 
L 1638 3781 
L 1638 3059 
Q 1775 3097 1914 3117 
Q 2053 3138 2203 3138 
Q 3056 3138 3531 2711 
Q 4006 2284 4006 1522 
Q 4006 766 3489 337 
Q 2972 -91 2053 -91 
Q 1656 -91 1267 -14 
Q 878 63 494 219 
L 494 1166 
Q 875 947 1217 837 
Q 1559 728 1863 728 
Q 2300 728 2551 942 
Q 2803 1156 2803 1522 
Q 2803 1891 2551 2103 
Q 2300 2316 1863 2316 
Q 1603 2316 1309 2248 
Q 1016 2181 678 2041 
L 678 4666 
z
" transform="scale(0.015625)"/>
     </defs>
     <use xlink:href="#DejaVuSans-Bold-32"/>
     <use xlink:href="#DejaVuSans-Bold-37" transform="translate(69.580078 0)"/>
     <use xlink:href="#DejaVuSans-Bold-35" transform="translate(139.160156 0)"/>
    </g>
   </g>
   <g id="text_25">
    <!-- 691 -->
    <g style="fill: #9467bd" transform="translate(817.012614 73.672663) scale(0.09 -0.09)">
     <defs>
      <path id="DejaVuSans-Bold-31" d="M 750 831 
L 1813 831 
L 1813 3847 
L 722 3622 
L 722 4441 
L 1806 4666 
L 2950 4666 
L 2950 831 
L 4013 831 
L 4013 0 
L 750 0 
L 750 831 
z
" transform="scale(0.015625)"/>
     </defs>
     <use xlink:href="#DejaVuSans-Bold-36"/>
     <use xlink:href="#DejaVuSans-Bold-39" transform="translate(69.580078 0)"/>
     <use xlink:href="#DejaVuSans-Bold-31" transform="translate(139.160156 0)"/>
    </g>
   </g>
   <g id="text_26">
    <!-- Erds Problems Progress -->
    <g style="fill: #c9d1d9" transform="translate(349.588281 18.397812) scale(0.14 -0.14)">
     <defs>
      <path id="DejaVuSans-Bold-45" d="M 588 4666 
L 3834 4666 
L 3834 3756 
L 1791 3756 
L 1791 2888 
L 3713 2888 
L 3713 1978 
L 1791 1978 
L 1791 909 
L 3903 909 
L 3903 0 
L 588 0 
L 588 4666 
z
" transform="scale(0.015625)"/>
      <path id="DejaVuSans-Bold-72" d="M 3138 2547 
Q 2991 2616 2845 2648 
Q 2700 2681 2553 2681 
Q 2122 2681 1889 2404 
Q 1656 2128 1656 1613 
L 1656 0 
L 538 0 
L 538 3500 
L 1656 3500 
L 1656 2925 
Q 1872 3269 2151 3426 
Q 2431 3584 2822 3584 
Q 2878 3584 2943 3579 
Q 3009 3575 3134 3559 
L 3138 2547 
z
" transform="scale(0.015625)"/>
      <path id="DejaVuSans-Bold-64" d="M 2919 2988 
L 2919 4863 
L 4044 4863 
L 4044 0 
L 2919 0 
L 2919 506 
Q 2688 197 2409 53 
Q 2131 -91 1766 -91 
Q 1119 -91 703 423 
Q 288 938 288 1747 
Q 288 2556 703 3070 
Q 1119 3584 1766 3584 
Q 2128 3584 2408 3439 
Q 2688 3294 2919 2988 
z
M 2181 722 
Q 2541 722 2730 984 
Q 2919 1247 2919 1747 
Q 2919 2247 2730 2509 
Q 2541 2772 2181 2772 
Q 1825 2772 1636 2509 
Q 1447 2247 1447 1747 
Q 1447 1247 1636 984 
Q 1825 722 2181 722 
z
" transform="scale(0.015625)"/>
      <path id="DejaVuSans-Bold-151" d="M 1881 5119 
L 2560 5119 
L 1785 3944 
L 1275 3944 
L 1881 5119 
z
M 3016 5119 
L 3738 5119 
L 2888 3944 
L 2344 3944 
L 3016 5119 
z
M 2203 2784 
Q 1831 2784 1636 2517 
Q 1441 2250 1441 1747 
Q 1441 1244 1636 976 
Q 1831 709 2203 709 
Q 2569 709 2762 976 
Q 2956 1244 2956 1747 
Q 2956 2250 2762 2517 
Q 2569 2784 2203 2784 
z
M 2203 3584 
Q 3106 3584 3614 3096 
Q 4122 2609 4122 1747 
Q 4122 884 3614 396 
Q 3106 -91 2203 -91 
Q 1297 -91 786 396 
Q 275 884 275 1747 
Q 275 2609 786 3096 
Q 1297 3584 2203 3584 
z
" transform="scale(0.015625)"/>
      <path id="DejaVuSans-Bold-73" d="M 3272 3391 
L 3272 2541 
Q 2913 2691 2578 2766 
Q 2244 2841 1947 2841 
Q 1628 2841 1473 2761 
Q 1319 2681 1319 2516 
Q 1319 2381 1436 2309 
Q 1553 2238 1856 2203 
L 2053 2175 
Q 2913 2066 3209 1816 
Q 3506 1566 3506 1031 
Q 3506 472 3093 190 
Q 2681 -91 1863 -91 
Q 1516 -91 1145 -36 
Q 775 19 384 128 
L 384 978 
Q 719 816 1070 734 
Q 1422 653 1784 653 
Q 2113 653 2278 743 
Q 2444 834 2444 1013 
Q 2444 1163 2330 1236 
Q 2216 1309 1875 1350 
L 1678 1375 
Q 931 1469 631 1722 
Q 331 1975 331 2491 
Q 331 3047 712 3315 
Q 1094 3584 1881 3584 
Q 2191 3584 2531 3537 
Q 2872 3491 3272 3391 
z
" transform="scale(0.015625)"/>
      <path id="DejaVuSans-Bold-20" transform="scale(0.015625)"/>
      <path id="DejaVuSans-Bold-50" d="M 588 4666 
L 2584 4666 
Q 3475 4666 3951 4270 
Q 4428 3875 4428 3144 
Q 4428 2409 3951 2014 
Q 3475 1619 2584 1619 
L 1791 1619 
L 1791 0 
L 588 0 
L 588 4666 
z
M 1791 3794 
L 1791 2491 
L 2456 2491 
Q 2806 2491 2997 2661 
Q 3188 2831 3188 3144 
Q 3188 3456 2997 3625 
Q 2806 3794 2456 3794 
L 1791 3794 
z
" transform="scale(0.015625)"/>
      <path id="DejaVuSans-Bold-6f" d="M 2203 2784 
Q 1831 2784 1636 2517 
Q 1441 2250 1441 1747 
Q 1441 1244 1636 976 
Q 1831 709 2203 709 
Q 2569 709 2762 976 
Q 2956 1244 2956 1747 
Q 2956 2250 2762 2517 
Q 2569 2784 2203 2784 
z
M 2203 3584 
Q 3106 3584 3614 3096 
Q 4122 2609 4122 1747 
Q 4122 884 3614 396 
Q 3106 -91 2203 -91 
Q 1297 -91 786 396 
Q 275 884 275 1747 
Q 275 2609 786 3096 
Q 1297 3584 2203 3584 
z
" transform="scale(0.015625)"/>
      <path id="DejaVuSans-Bold-62" d="M 2400 722 
Q 2759 722 2948 984 
Q 3138 1247 3138 1747 
Q 3138 2247 2948 2509 
Q 2759 2772 2400 2772 
Q 2041 2772 1848 2508 
Q 1656 2244 1656 1747 
Q 1656 1250 1848 986 
Q 2041 722 2400 722 
z
M 1656 2988 
Q 1888 3294 2169 3439 
Q 2450 3584 2816 3584 
Q 3463 3584 3878 3070 
Q 4294 2556 4294 1747 
Q 4294 938 3878 423 
Q 3463 -91 2816 -91 
Q 2450 -91 2169 54 
Q 1888 200 1656 506 
L 1656 0 
L 538 0 
L 538 4863 
L 1656 4863 
L 1656 2988 
z
" transform="scale(0.015625)"/>
      <path id="DejaVuSans-Bold-6c" d="M 538 4863 
L 1656 4863 
L 1656 0 
L 538 0 
L 538 4863 
z
" transform="scale(0.015625)"/>
      <path id="DejaVuSans-Bold-65" d="M 4031 1759 
L 4031 1441 
L 1416 1441 
Q 1456 1047 1700 850 
Q 1944 653 2381 653 
Q 2734 653 3104 758 
Q 3475 863 3866 1075 
L 3866 213 
Q 3469 63 3072 -14 
Q 2675 -91 2278 -91 
Q 1328 -91 801 392 
Q 275 875 275 1747 
Q 275 2603 792 3093 
Q 1309 3584 2216 3584 
Q 3041 3584 3536 3087 
Q 4031 2591 4031 1759 
z
M 2881 2131 
Q 2881 2450 2695 2645 
Q 2509 2841 2209 2841 
Q 1884 2841 1681 2658 
Q 1478 2475 1428 2131 
L 2881 2131 
z
" transform="scale(0.015625)"/>
      <path id="DejaVuSans-Bold-6d" d="M 3781 2919 
Q 3994 3244 4286 3414 
Q 4578 3584 4928 3584 
Q 5531 3584 5847 3212 
Q 6163 2841 6163 2131 
L 6163 0 
L 5038 0 
L 5038 1825 
Q 5041 1866 5042 1909 
Q 5044 1953 5044 2034 
Q 5044 2406 4934 2573 
Q 4825 2741 4581 2741 
Q 4263 2741 4089 2478 
Q 3916 2216 3909 1719 
L 3909 0 
L 2784 0 
L 2784 1825 
Q 2784 2406 2684 2573 
Q 2584 2741 2328 2741 
Q 2006 2741 1831 2477 
Q 1656 2213 1656 1722 
L 1656 0 
L 531 0 
L 531 3500 
L 1656 3500 
L 1656 2988 
Q 1863 3284 2130 3434 
Q 2397 3584 2719 3584 
Q 3081 3584 3359 3409 
Q 3638 3234 3781 2919 
z
" transform="scale(0.015625)"/>
      <path id="DejaVuSans-Bold-67" d="M 2919 594 
Q 2688 288 2409 144 
Q 2131 0 1766 0 
Q 1125 0 706 504 
Q 288 1009 288 1791 
Q 288 2575 706 3076 
Q 1125 3578 1766 3578 
Q 2131 3578 2409 3434 
Q 2688 3291 2919 2981 
L 2919 3500 
L 4044 3500 
L 4044 353 
Q 4044 -491 3511 -936 
Q 2978 -1381 1966 -1381 
Q 1638 -1381 1331 -1331 
Q 1025 -1281 716 -1178 
L 716 -306 
Q 1009 -475 1290 -558 
Q 1572 -641 1856 -641 
Q 2406 -641 2662 -400 
Q 2919 -159 2919 353 
L 2919 594 
z
M 2181 2772 
Q 1834 2772 1640 2515 
Q 1447 2259 1447 1791 
Q 1447 1309 1634 1061 
Q 1822 813 2181 813 
Q 2531 813 2725 1069 
Q 2919 1325 2919 1791 
Q 2919 2259 2725 2515 
Q 2531 2772 2181 2772 
z
" transform="scale(0.015625)"/>
     </defs>
     <use xlink:href="#DejaVuSans-Bold-45"/>
     <use xlink:href="#DejaVuSans-Bold-72" transform="translate(68.310547 0)"/>
     <use xlink:href="#DejaVuSans-Bold-64" transform="translate(117.626953 0)"/>
     <use xlink:href="#DejaVuSans-Bold-151" transform="translate(189.208984 0)"/>
     <use xlink:href="#DejaVuSans-Bold-73" transform="translate(257.910156 0)"/>
     <use xlink:href="#DejaVuSans-Bold-20" transform="translate(317.431641 0)"/>
     <use xlink:href="#DejaVuSans-Bold-50" transform="translate(352.246094 0)"/>
     <use xlink:href="#DejaVuSans-Bold-72" transform="translate(425.537109 0)"/>
     <use xlink:href="#DejaVuSans-Bold-6f" transform="translate(474.853516 0)"/>
     <use xlink:href="#DejaVuSans-Bold-62" transform="translate(543.554688 0)"/>
     <use xlink:href="#DejaVuSans-Bold-6c" transform="translate(615.136719 0)"/>
     <use xlink:href="#DejaVuSans-Bold-65" transform="translate(649.414062 0)"/>
     <use xlink:href="#DejaVuSans-Bold-6d" transform="translate(717.236328 0)"/>
     <use xlink:href="#DejaVuSans-Bold-73" transform="translate(821.435547 0)"/>
     <use xlink:href="#DejaVuSans-Bold-20" transform="translate(880.957031 0)"/>
     <use xlink:href="#DejaVuSans-Bold-50" transform="translate(915.771484 0)"/>
     <use xlink:href="#DejaVuSans-Bold-72" transform="translate(989.0625 0)"/>
     <use xlink:href="#DejaVuSans-Bold-6f" transform="translate(1038.378906 0)"/>
     <use xlink:href="#DejaVuSans-Bold-67" transform="translate(1107.080078 0)"/>
     <use xlink:href="#DejaVuSans-Bold-72" transform="translate(1178.662109 0)"/>
     <use xlink:href="#DejaVuSans-Bold-65" transform="translate(1227.978516 0)"/>
     <use xlink:href="#DejaVuSans-Bold-73" transform="translate(1295.800781 0)"/>
     <use xlink:href="#DejaVuSans-Bold-73" transform="translate(1355.322266 0)"/>
    </g>
   </g>
   <g id="legend_1">
    <g id="patch_7">
     <path d="M 55.90125 119.788437 
L 213.771563 119.788437 
Q 215.771563 119.788437 215.771563 117.788437 
L 215.771563 45.397812 
Q 215.771563 43.397812 213.771563 43.397812 
L 55.90125 43.397812 
Q 53.90125 43.397812 53.90125 45.397812 
L 53.90125 117.788437 
Q 53.90125 119.788437 55.90125 119.788437 
z
" style="fill: #161b22; opacity: 0.8; stroke: #30363d; stroke-linejoin: miter"/>
    </g>
    <g id="line2d_40">
     <path d="M 57.90125 51.49625 
L 67.90125 51.49625 
L 77.90125 51.49625 
" style="fill: none; stroke: #3fb950; stroke-width: 2; stroke-linecap: square"/>
    </g>
    <g id="text_27">
     <!-- Solved -->
     <g style="fill: #c9d1d9" transform="translate(85.90125 54.99625) scale(0.1 -0.1)">
      <defs>
       <path id="DejaVuSans-6c" d="M 603 4863 
L 1178 4863 
L 1178 0 
L 603 0 
L 603 4863 
z
" transform="scale(0.015625)"/>
       <path id="DejaVuSans-64" d="M 2906 2969 
L 2906 4863 
L 3481 4863 
L 3481 0 
L 2906 0 
L 2906 525 
Q 2725 213 2448 61 
Q 2172 -91 1784 -91 
Q 1150 -91 751 415 
Q 353 922 353 1747 
Q 353 2572 751 3078 
Q 1150 3584 1784 3584 
Q 2172 3584 2448 3432 
Q 2725 3281 2906 2969 
z
M 947 1747 
Q 947 1113 1208 752 
Q 1469 391 1925 391 
Q 2381 391 2643 752 
Q 2906 1113 2906 1747 
Q 2906 2381 2643 2742 
Q 2381 3103 1925 3103 
Q 1469 3103 1208 2742 
Q 947 2381 947 1747 
z
" transform="scale(0.015625)"/>
      </defs>
      <use xlink:href="#DejaVuSans-53"/>
      <use xlink:href="#DejaVuSans-6f" transform="translate(63.476562 0)"/>
      <use xlink:href="#DejaVuSans-6c" transform="translate(124.658203 0)"/>
      <use xlink:href="#DejaVuSans-76" transform="translate(152.441406 0)"/>
      <use xlink:href="#DejaVuSans-65" transform="translate(211.621094 0)"/>
      <use xlink:href="#DejaVuSans-64" transform="translate(273.144531 0)"/>
     </g>
    </g>
    <g id="line2d_41">
     <path d="M 57.90125 66.174375 
L 67.90125 66.174375 
L 77.90125 66.174375 
" style="fill: none; stroke: #58a6ff; stroke-width: 2; stroke-linecap: square"/>
    </g>
    <g id="text_28">
     <!-- Lean Formalized Problem -->
     <g style="fill: #c9d1d9" transform="translate(85.90125 69.674375) scale(0.1 -0.1)">
      <defs>
       <path id="DejaVuSans-4c" d="M 628 4666 
L 1259 4666 
L 1259 531 
L 3531 531 
L 3531 0 
L 628 0 
L 628 4666 
z
" transform="scale(0.015625)"/>
       <path id="DejaVuSans-20" transform="scale(0.015625)"/>
       <path id="DejaVuSans-46" d="M 628 4666 
L 3309 4666 
L 3309 4134 
L 1259 4134 
L 1259 2759 
L 3109 2759 
L 3109 2228 
L 1259 2228 
L 1259 0 
L 628 0 
L 628 4666 
z
" transform="scale(0.015625)"/>
       <path id="DejaVuSans-72" d="M 2631 2963 
Q 2534 3019 2420 3045 
Q 2306 3072 2169 3072 
Q 1681 3072 1420 2755 
Q 1159 2438 1159 1844 
L 1159 0 
L 581 0 
L 581 3500 
L 1159 3500 
L 1159 2956 
Q 1341 3275 1631 3429 
Q 1922 3584 2338 3584 
Q 2397 3584 2469 3576 
Q 2541 3569 2628 3553 
L 2631 2963 
z
" transform="scale(0.015625)"/>
       <path id="DejaVuSans-6d" d="M 3328 2828 
Q 3544 3216 3844 3400 
Q 4144 3584 4550 3584 
Q 5097 3584 5394 3201 
Q 5691 2819 5691 2113 
L 5691 0 
L 5113 0 
L 5113 2094 
Q 5113 2597 4934 2840 
Q 4756 3084 4391 3084 
Q 3944 3084 3684 2787 
Q 3425 2491 3425 1978 
L 3425 0 
L 2847 0 
L 2847 2094 
Q 2847 2600 2669 2842 
Q 2491 3084 2119 3084 
Q 1678 3084 1418 2786 
Q 1159 2488 1159 1978 
L 1159 0 
L 581 0 
L 581 3500 
L 1159 3500 
L 1159 2956 
Q 1356 3278 1631 3431 
Q 1906 3584 2284 3584 
Q 2666 3584 2933 3390 
Q 3200 3197 3328 2828 
z
" transform="scale(0.015625)"/>
       <path id="DejaVuSans-69" d="M 603 3500 
L 1178 3500 
L 1178 0 
L 603 0 
L 603 3500 
z
M 603 4863 
L 1178 4863 
L 1178 4134 
L 603 4134 
L 603 4863 
z
" transform="scale(0.015625)"/>
       <path id="DejaVuSans-7a" d="M 353 3500 
L 3084 3500 
L 3084 2975 
L 922 459 
L 3084 459 
L 3084 0 
L 275 0 
L 275 525 
L 2438 3041 
L 353 3041 
L 353 3500 
z
" transform="scale(0.015625)"/>
       <path id="DejaVuSans-50" d="M 1259 4147 
L 1259 2394 
L 2053 2394 
Q 2494 2394 2734 2622 
Q 2975 2850 2975 3272 
Q 2975 3691 2734 3919 
Q 2494 4147 2053 4147 
L 1259 4147 
z
M 628 4666 
L 2053 4666 
Q 2838 4666 3239 4311 
Q 3641 3956 3641 3272 
Q 3641 2581 3239 2228 
Q 2838 1875 2053 1875 
L 1259 1875 
L 1259 0 
L 628 0 
L 628 4666 
z
" transform="scale(0.015625)"/>
       <path id="DejaVuSans-62" d="M 3116 1747 
Q 3116 2381 2855 2742 
Q 2594 3103 2138 3103 
Q 1681 3103 1420 2742 
Q 1159 2381 1159 1747 
Q 1159 1113 1420 752 
Q 1681 391 2138 391 
Q 2594 391 2855 752 
Q 3116 1113 3116 1747 
z
M 1159 2969 
Q 1341 3281 1617 3432 
Q 1894 3584 2278 3584 
Q 2916 3584 3314 3078 
Q 3713 2572 3713 1747 
Q 3713 922 3314 415 
Q 2916 -91 2278 -91 
Q 1894 -91 1617 61 
Q 1341 213 1159 525 
L 1159 0 
L 581 0 
L 581 4863 
L 1159 4863 
L 1159 2969 
z
" transform="scale(0.015625)"/>
      </defs>
      <use xlink:href="#DejaVuSans-4c"/>
      <use xlink:href="#DejaVuSans-65" transform="translate(53.962891 0)"/>
      <use xlink:href="#DejaVuSans-61" transform="translate(115.486328 0)"/>
      <use xlink:href="#DejaVuSans-6e" transform="translate(176.765625 0)"/>
      <use xlink:href="#DejaVuSans-20" transform="translate(240.144531 0)"/>
      <use xlink:href="#DejaVuSans-46" transform="translate(271.931641 0)"/>
      <use xlink:href="#DejaVuSans-6f" transform="translate(325.826172 0)"/>
      <use xlink:href="#DejaVuSans-72" transform="translate(387.007812 0)"/>
      <use xlink:href="#DejaVuSans-6d" transform="translate(426.371094 0)"/>
      <use xlink:href="#DejaVuSans-61" transform="translate(523.783203 0)"/>
      <use xlink:href="#DejaVuSans-6c" transform="translate(585.0625 0)"/>
      <use xlink:href="#DejaVuSans-69" transform="translate(612.845703 0)"/>
      <use xlink:href="#DejaVuSans-7a" transform="translate(640.628906 0)"/>
      <use xlink:href="#DejaVuSans-65" transform="translate(693.119141 0)"/>
      <use xlink:href="#DejaVuSans-64" transform="translate(754.642578 0)"/>
      <use xlink:href="#DejaVuSans-20" transform="translate(818.119141 0)"/>
      <use xlink:href="#DejaVuSans-50" transform="translate(849.90625 0)"/>
      <use xlink:href="#DejaVuSans-72" transform="translate(908.458984 0)"/>
      <use xlink:href="#DejaVuSans-6f" transform="translate(947.322266 0)"/>
      <use xlink:href="#DejaVuSans-62" transform="translate(1008.503906 0)"/>
      <use xlink:href="#DejaVuSans-6c" transform="translate(1071.980469 0)"/>
      <use xlink:href="#DejaVuSans-65" transform="translate(1099.763672 0)"/>
      <use xlink:href="#DejaVuSans-6d" transform="translate(1161.287109 0)"/>
     </g>
    </g>
    <g id="line2d_42">
     <path d="M 57.90125 80.8525 
L 67.90125 80.8525 
L 77.90125 80.8525 
" style="fill: none; stroke: #d29922; stroke-width: 2; stroke-linecap: square"/>
    </g>
    <g id="text_29">
     <!-- Lean Formalized Solution -->
     <g style="fill: #c9d1d9" transform="translate(85.90125 84.3525) scale(0.1 -0.1)">
      <use xlink:href="#DejaVuSans-4c"/>
      <use xlink:href="#DejaVuSans-65" transform="translate(53.962891 0)"/>
      <use xlink:href="#DejaVuSans-61" transform="translate(115.486328 0)"/>
      <use xlink:href="#DejaVuSans-6e" transform="translate(176.765625 0)"/>
      <use xlink:href="#DejaVuSans-20" transform="translate(240.144531 0)"/>
      <use xlink:href="#DejaVuSans-46" transform="translate(271.931641 0)"/>
      <use xlink:href="#DejaVuSans-6f" transform="translate(325.826172 0)"/>
      <use xlink:href="#DejaVuSans-72" transform="translate(387.007812 0)"/>
      <use xlink:href="#DejaVuSans-6d" transform="translate(426.371094 0)"/>
      <use xlink:href="#DejaVuSans-61" transform="translate(523.783203 0)"/>
      <use xlink:href="#DejaVuSans-6c" transform="translate(585.0625 0)"/>
      <use xlink:href="#DejaVuSans-69" transform="translate(612.845703 0)"/>
      <use xlink:href="#DejaVuSans-7a" transform="translate(640.628906 0)"/>
      <use xlink:href="#DejaVuSans-65" transform="translate(693.119141 0)"/>
      <use xlink:href="#DejaVuSans-64" transform="translate(754.642578 0)"/>
      <use xlink:href="#DejaVuSans-20" transform="translate(818.119141 0)"/>
      <use xlink:href="#DejaVuSans-53" transform="translate(849.90625 0)"/>
      <use xlink:href="#DejaVuSans-6f" transform="translate(913.382812 0)"/>
      <use xlink:href="#DejaVuSans-6c" transform="translate(974.564453 0)"/>
      <use xlink:href="#DejaVuSans-75" transform="translate(1002.347656 0)"/>
      <use xlink:href="#DejaVuSans-74" transform="translate(1065.726562 0)"/>
      <use xlink:href="#DejaVuSans-69" transform="translate(1104.935547 0)"/>
      <use xlink:href="#DejaVuSans-6f" transform="translate(1132.71875 0)"/>
      <use xlink:href="#DejaVuSans-6e" transform="translate(1193.900391 0)"/>
     </g>
    </g>
    <g id="line2d_43">
     <path d="M 57.90125 95.530625 
L 67.90125 95.530625 
L 77.90125 95.530625 
" style="fill: none; stroke: #f85149; stroke-width: 2; stroke-linecap: square"/>
    </g>
    <g id="text_30">
     <!-- OEIS Linked -->
     <g style="fill: #c9d1d9" transform="translate(85.90125 99.030625) scale(0.1 -0.1)">
      <defs>
       <path id="DejaVuSans-45" d="M 628 4666 
L 3578 4666 
L 3578 4134 
L 1259 4134 
L 1259 2753 
L 3481 2753 
L 3481 2222 
L 1259 2222 
L 1259 531 
L 3634 531 
L 3634 0 
L 628 0 
L 628 4666 
z
" transform="scale(0.015625)"/>
       <path id="DejaVuSans-49" d="M 628 4666 
L 1259 4666 
L 1259 0 
L 628 0 
L 628 4666 
z
" transform="scale(0.015625)"/>
       <path id="DejaVuSans-6b" d="M 581 4863 
L 1159 4863 
L 1159 1991 
L 2875 3500 
L 3609 3500 
L 1753 1863 
L 3688 0 
L 2938 0 
L 1159 1709 
L 1159 0 
L 581 0 
L 581 4863 
z
" transform="scale(0.015625)"/>
      </defs>
      <use xlink:href="#DejaVuSans-4f"/>
      <use xlink:href="#DejaVuSans-45" transform="translate(78.710938 0)"/>
      <use xlink:href="#DejaVuSans-49" transform="translate(141.894531 0)"/>
      <use xlink:href="#DejaVuSans-53" transform="translate(171.386719 0)"/>
      <use xlink:href="#DejaVuSans-20" transform="translate(234.863281 0)"/>
      <use xlink:href="#DejaVuSans-4c" transform="translate(266.650391 0)"/>
      <use xlink:href="#DejaVuSans-69" transform="translate(322.363281 0)"/>
      <use xlink:href="#DejaVuSans-6e" transform="translate(350.146484 0)"/>
      <use xlink:href="#DejaVuSans-6b" transform="translate(413.525391 0)"/>
      <use xlink:href="#DejaVuSans-65" transform="translate(467.810547 0)"/>
      <use xlink:href="#DejaVuSans-64" transform="translate(529.333984 0)"/>
     </g>
    </g>
    <g id="line2d_44">
     <path d="M 57.90125 110.20875 
L 67.90125 110.20875 
L 77.90125 110.20875 
" style="fill: none; stroke: #9467bd; stroke-width: 2; stroke-linecap: square"/>
    </g>
    <g id="text_31">
     <!-- Open Problems -->
     <g style="fill: #c9d1d9" transform="translate(85.90125 113.70875) scale(0.1 -0.1)">
      <defs>
       <path id="DejaVuSans-73" d="M 2834 3397 
L 2834 2853 
Q 2591 2978 2328 3040 
Q 2066 3103 1784 3103 
Q 1356 3103 1142 2972 
Q 928 2841 928 2578 
Q 928 2378 1081 2264 
Q 1234 2150 1697 2047 
L 1894 2003 
Q 2506 1872 2764 1633 
Q 3022 1394 3022 966 
Q 3022 478 2636 193 
Q 2250 -91 1575 -91 
Q 1294 -91 989 -36 
Q 684 19 347 128 
L 347 722 
Q 666 556 975 473 
Q 1284 391 1588 391 
Q 1994 391 2212 530 
Q 2431 669 2431 922 
Q 2431 1156 2273 1281 
Q 2116 1406 1581 1522 
L 1381 1569 
Q 847 1681 609 1914 
Q 372 2147 372 2553 
Q 372 3047 722 3315 
Q 1072 3584 1716 3584 
Q 2034 3584 2315 3537 
Q 2597 3491 2834 3397 
z
" transform="scale(0.015625)"/>
      </defs>
      <use xlink:href="#DejaVuSans-4f"/>
      <use xlink:href="#DejaVuSans-70" transform="translate(78.710938 0)"/>
      <use xlink:href="#DejaVuSans-65" transform="translate(142.1875 0)"/>
      <use xlink:href="#DejaVuSans-6e" transform="translate(203.710938 0)"/>
      <use xlink:href="#DejaVuSans-20" transform="translate(267.089844 0)"/>
      <use xlink:href="#DejaVuSans-50" transform="translate(298.876953 0)"/>
      <use xlink:href="#DejaVuSans-72" transform="translate(357.429688 0)"/>
      <use xlink:href="#DejaVuSans-6f" transform="translate(396.292969 0)"/>
      <use xlink:href="#DejaVuSans-62" transform="translate(457.474609 0)"/>
      <use xlink:href="#DejaVuSans-6c" transform="translate(520.951172 0)"/>
      <use xlink:href="#DejaVuSans-65" transform="translate(548.734375 0)"/>
      <use xlink:href="#DejaVuSans-6d" transform="translate(610.257812 0)"/>
      <use xlink:href="#DejaVuSans-73" transform="translate(707.669922 0)"/>
     </g>
    </g>
   </g>
  </g>
 </g>
 <defs>
  <clipPath id="p738ea46fe9">
   <rect x="48.90125" y="38.397812" width="799.45" height="416.84"/>
  </clipPath>
 </defs>
</svg>
