<?xml version="1.0" encoding="utf-8" standalone="no"?>
<!DOCTYPE svg PUBLIC "-//W3C//DTD SVG 1.1//EN"
  "http://www.w3.org/Graphics/SVG/1.1/DTD/svg11.dtd">
<svg xmlns:xlink="http://www.w3.org/1999/xlink" width="855.315746pt" height="494.729687pt" viewBox="0 0 855.315746 494.729687" xmlns="http://www.w3.org/2000/svg" version="1.1">
 <metadata>
  <rdf:RDF xmlns:dc="http://purl.org/dc/elements/1.1/" xmlns:cc="http://creativecommons.org/ns#" xmlns:rdf="http://www.w3.org/1999/02/22-rdf-syntax-ns#">
   <cc:Work>
    <dc:type rdf:resource="http://purl.org/dc/dcmitype/StillImage"/>
    <dc:date>2026-04-19T19:40:56.590214</dc:date>
    <dc:format>image/svg+xml</dc:format>
    <dc:creator>
     <cc:Agent>
      <dc:title>Matplotlib v3.10.7, https://matplotlib.org/</dc:title>
     </cc:Agent>
    </dc:creator>
   </cc:Work>
  </rdf:RDF>
 </metadata>
 <defs>
  <style type="text/css">*{stroke-linejoin: round; stroke-linecap: butt}</style>
 </defs>
 <g id="figure_1">
  <g id="patch_1">
   <path d="M 0 494.729687 
L 855.315746 494.729687 
L 855.315746 0 
L 0 0 
z
" style="fill: #0d1117"/>
  </g>
  <g id="axes_1">
   <g id="patch_2">
    <path d="M 48.90125 455.237812 
L 838.945844 455.237812 
L 838.945844 38.397812 
L 48.90125 38.397812 
z
" style="fill: #0d1117"/>
   </g>
   <g id="matplotlib.axis_1">
    <g id="xtick_1">
     <g id="line2d_1">
      <path d="M 85.720859 455.237812 
L 85.720859 38.397812 
" clip-path="url(#pf959624a11)" style="fill: none; stroke: #30363d; stroke-opacity: 0.25; stroke-width: 0.5; stroke-linecap: square"/>
     </g>
     <g id="line2d_2">
      <defs>
       <path id="m25046146d0" d="M 0 0 
L 0 3.5 
" style="stroke: #c9d1d9; stroke-width: 0.8"/>
      </defs>
      <g>
       <use xlink:href="#m25046146d0" x="85.720859" y="455.237812" style="fill: #c9d1d9; stroke: #c9d1d9; stroke-width: 0.8"/>
      </g>
     </g>
     <g id="text_1">
      <!-- Sep -->
      <g style="fill: #c9d1d9" transform="translate(76.295859 469.83625) scale(0.1 -0.1)">
       <defs>
        <path id="DejaVuSans-53" d="M 3425 4513 
L 3425 3897 
Q 3066 4069 2747 4153 
Q 2428 4238 2131 4238 
Q 1616 4238 1336 4038 
Q 1056 3838 1056 3469 
Q 1056 3159 1242 3001 
Q 1428 2844 1947 2747 
L 2328 2669 
Q 3034 2534 3370 2195 
Q 3706 1856 3706 1288 
Q 3706 609 3251 259 
Q 2797 -91 1919 -91 
Q 1588 -91 1214 -16 
Q 841 59 441 206 
L 441 856 
Q 825 641 1194 531 
Q 1563 422 1919 422 
Q 2459 422 2753 634 
Q 3047 847 3047 1241 
Q 3047 1584 2836 1778 
Q 2625 1972 2144 2069 
L 1759 2144 
Q 1053 2284 737 2584 
Q 422 2884 422 3419 
Q 422 4038 858 4394 
Q 1294 4750 2059 4750 
Q 2388 4750 2728 4690 
Q 3069 4631 3425 4513 
z
" transform="scale(0.015625)"/>
        <path id="DejaVuSans-65" d="M 3597 1894 
L 3597 1613 
L 953 1613 
Q 991 1019 1311 708 
Q 1631 397 2203 397 
Q 2534 397 2845 478 
Q 3156 559 3463 722 
L 3463 178 
Q 3153 47 2828 -22 
Q 2503 -91 2169 -91 
Q 1331 -91 842 396 
Q 353 884 353 1716 
Q 353 2575 817 3079 
Q 1281 3584 2069 3584 
Q 2775 3584 3186 3129 
Q 3597 2675 3597 1894 
z
M 3022 2063 
Q 3016 2534 2758 2815 
Q 2500 3097 2075 3097 
Q 1594 3097 1305 2825 
Q 1016 2553 972 2059 
L 3022 2063 
z
" transform="scale(0.015625)"/>
        <path id="DejaVuSans-70" d="M 1159 525 
L 1159 -1331 
L 581 -1331 
L 581 3500 
L 1159 3500 
L 1159 2969 
Q 1341 3281 1617 3432 
Q 1894 3584 2278 3584 
Q 2916 3584 3314 3078 
Q 3713 2572 3713 1747 
Q 3713 922 3314 415 
Q 2916 -91 2278 -91 
Q 1894 -91 1617 61 
Q 1341 213 1159 525 
z
M 3116 1747 
Q 3116 2381 2855 2742 
Q 2594 3103 2138 3103 
Q 1681 3103 1420 2742 
Q 1159 2381 1159 1747 
Q 1159 1113 1420 752 
Q 1681 391 2138 391 
Q 2594 391 2855 752 
Q 3116 1113 3116 1747 
z
" transform="scale(0.015625)"/>
       </defs>
       <use xlink:href="#DejaVuSans-53"/>
       <use xlink:href="#DejaVuSans-65" transform="translate(63.476562 0)"/>
       <use xlink:href="#DejaVuSans-70" transform="translate(125 0)"/>
      </g>
     </g>
    </g>
    <g id="xtick_2">
     <g id="line2d_3">
      <path d="M 178.951114 455.237812 
L 178.951114 38.397812 
" clip-path="url(#pf959624a11)" style="fill: none; stroke: #30363d; stroke-opacity: 0.25; stroke-width: 0.5; stroke-linecap: square"/>
     </g>
     <g id="line2d_4">
      <g>
       <use xlink:href="#m25046146d0" x="178.951114" y="455.237812" style="fill: #c9d1d9; stroke: #c9d1d9; stroke-width: 0.8"/>
      </g>
     </g>
     <g id="text_2">
      <!-- Oct -->
      <g style="fill: #c9d1d9" transform="translate(170.305801 469.83625) scale(0.1 -0.1)">
       <defs>
        <path id="DejaVuSans-4f" d="M 2522 4238 
Q 1834 4238 1429 3725 
Q 1025 3213 1025 2328 
Q 1025 1447 1429 934 
Q 1834 422 2522 422 
Q 3209 422 3611 934 
Q 4013 1447 4013 2328 
Q 4013 3213 3611 3725 
Q 3209 4238 2522 4238 
z
M 2522 4750 
Q 3503 4750 4090 4092 
Q 4678 3434 4678 2328 
Q 4678 1225 4090 567 
Q 3503 -91 2522 -91 
Q 1538 -91 948 565 
Q 359 1222 359 2328 
Q 359 3434 948 4092 
Q 1538 4750 2522 4750 
z
" transform="scale(0.015625)"/>
        <path id="DejaVuSans-63" d="M 3122 3366 
L 3122 2828 
Q 2878 2963 2633 3030 
Q 2388 3097 2138 3097 
Q 1578 3097 1268 2742 
Q 959 2388 959 1747 
Q 959 1106 1268 751 
Q 1578 397 2138 397 
Q 2388 397 2633 464 
Q 2878 531 3122 666 
L 3122 134 
Q 2881 22 2623 -34 
Q 2366 -91 2075 -91 
Q 1284 -91 818 406 
Q 353 903 353 1747 
Q 353 2603 823 3093 
Q 1294 3584 2113 3584 
Q 2378 3584 2631 3529 
Q 2884 3475 3122 3366 
z
" transform="scale(0.015625)"/>
        <path id="DejaVuSans-74" d="M 1172 4494 
L 1172 3500 
L 2356 3500 
L 2356 3053 
L 1172 3053 
L 1172 1153 
Q 1172 725 1289 603 
Q 1406 481 1766 481 
L 2356 481 
L 2356 0 
L 1766 0 
Q 1100 0 847 248 
Q 594 497 594 1153 
L 594 3053 
L 172 3053 
L 172 3500 
L 594 3500 
L 594 4494 
L 1172 4494 
z
" transform="scale(0.015625)"/>
       </defs>
       <use xlink:href="#DejaVuSans-4f"/>
       <use xlink:href="#DejaVuSans-63" transform="translate(78.710938 0)"/>
       <use xlink:href="#DejaVuSans-74" transform="translate(133.691406 0)"/>
      </g>
     </g>
    </g>
    <g id="xtick_3">
     <g id="line2d_5">
      <path d="M 275.289044 455.237812 
L 275.289044 38.397812 
" clip-path="url(#pf959624a11)" style="fill: none; stroke: #30363d; stroke-opacity: 0.25; stroke-width: 0.5; stroke-linecap: square"/>
     </g>
     <g id="line2d_6">
      <g>
       <use xlink:href="#m25046146d0" x="275.289044" y="455.237812" style="fill: #c9d1d9; stroke: #c9d1d9; stroke-width: 0.8"/>
      </g>
     </g>
     <g id="text_3">
      <!-- Nov -->
      <g style="fill: #c9d1d9" transform="translate(265.529669 469.83625) scale(0.1 -0.1)">
       <defs>
        <path id="DejaVuSans-4e" d="M 628 4666 
L 1478 4666 
L 3547 763 
L 3547 4666 
L 4159 4666 
L 4159 0 
L 3309 0 
L 1241 3903 
L 1241 0 
L 628 0 
L 628 4666 
z
" transform="scale(0.015625)"/>
        <path id="DejaVuSans-6f" d="M 1959 3097 
Q 1497 3097 1228 2736 
Q 959 2375 959 1747 
Q 959 1119 1226 758 
Q 1494 397 1959 397 
Q 2419 397 2687 759 
Q 2956 1122 2956 1747 
Q 2956 2369 2687 2733 
Q 2419 3097 1959 3097 
z
M 1959 3584 
Q 2709 3584 3137 3096 
Q 3566 2609 3566 1747 
Q 3566 888 3137 398 
Q 2709 -91 1959 -91 
Q 1206 -91 779 398 
Q 353 888 353 1747 
Q 353 2609 779 3096 
Q 1206 3584 1959 3584 
z
" transform="scale(0.015625)"/>
        <path id="DejaVuSans-76" d="M 191 3500 
L 800 3500 
L 1894 563 
L 2988 3500 
L 3597 3500 
L 2284 0 
L 1503 0 
L 191 3500 
z
" transform="scale(0.015625)"/>
       </defs>
       <use xlink:href="#DejaVuSans-4e"/>
       <use xlink:href="#DejaVuSans-6f" transform="translate(74.804688 0)"/>
       <use xlink:href="#DejaVuSans-76" transform="translate(135.986328 0)"/>
      </g>
     </g>
    </g>
    <g id="xtick_4">
     <g id="line2d_7">
      <path d="M 368.519298 455.237812 
L 368.519298 38.397812 
" clip-path="url(#pf959624a11)" style="fill: none; stroke: #30363d; stroke-opacity: 0.25; stroke-width: 0.5; stroke-linecap: square"/>
     </g>
     <g id="line2d_8">
      <g>
       <use xlink:href="#m25046146d0" x="368.519298" y="455.237812" style="fill: #c9d1d9; stroke: #c9d1d9; stroke-width: 0.8"/>
      </g>
     </g>
     <g id="text_4">
      <!-- Dec -->
      <g style="fill: #c9d1d9" transform="translate(358.843517 469.83625) scale(0.1 -0.1)">
       <defs>
        <path id="DejaVuSans-44" d="M 1259 4147 
L 1259 519 
L 2022 519 
Q 2988 519 3436 956 
Q 3884 1394 3884 2338 
Q 3884 3275 3436 3711 
Q 2988 4147 2022 4147 
L 1259 4147 
z
M 628 4666 
L 1925 4666 
Q 3281 4666 3915 4102 
Q 4550 3538 4550 2338 
Q 4550 1131 3912 565 
Q 3275 0 1925 0 
L 628 0 
L 628 4666 
z
" transform="scale(0.015625)"/>
       </defs>
       <use xlink:href="#DejaVuSans-44"/>
       <use xlink:href="#DejaVuSans-65" transform="translate(77.001953 0)"/>
       <use xlink:href="#DejaVuSans-63" transform="translate(138.525391 0)"/>
      </g>
     </g>
    </g>
    <g id="xtick_5">
     <g id="line2d_9">
      <path d="M 464.857228 455.237812 
L 464.857228 38.397812 
" clip-path="url(#pf959624a11)" style="fill: none; stroke: #30363d; stroke-opacity: 0.25; stroke-width: 0.5; stroke-linecap: square"/>
     </g>
     <g id="line2d_10">
      <g>
       <use xlink:href="#m25046146d0" x="464.857228" y="455.237812" style="fill: #c9d1d9; stroke: #c9d1d9; stroke-width: 0.8"/>
      </g>
     </g>
     <g id="text_5">
      <!-- 2026 -->
      <g style="fill: #c9d1d9" transform="translate(452.132228 469.83625) scale(0.1 -0.1)">
       <defs>
        <path id="DejaVuSans-32" d="M 1228 531 
L 3431 531 
L 3431 0 
L 469 0 
L 469 531 
Q 828 903 1448 1529 
Q 2069 2156 2228 2338 
Q 2531 2678 2651 2914 
Q 2772 3150 2772 3378 
Q 2772 3750 2511 3984 
Q 2250 4219 1831 4219 
Q 1534 4219 1204 4116 
Q 875 4013 500 3803 
L 500 4441 
Q 881 4594 1212 4672 
Q 1544 4750 1819 4750 
Q 2544 4750 2975 4387 
Q 3406 4025 3406 3419 
Q 3406 3131 3298 2873 
Q 3191 2616 2906 2266 
Q 2828 2175 2409 1742 
Q 1991 1309 1228 531 
z
" transform="scale(0.015625)"/>
        <path id="DejaVuSans-30" d="M 2034 4250 
Q 1547 4250 1301 3770 
Q 1056 3291 1056 2328 
Q 1056 1369 1301 889 
Q 1547 409 2034 409 
Q 2525 409 2770 889 
Q 3016 1369 3016 2328 
Q 3016 3291 2770 3770 
Q 2525 4250 2034 4250 
z
M 2034 4750 
Q 2819 4750 3233 4129 
Q 3647 3509 3647 2328 
Q 3647 1150 3233 529 
Q 2819 -91 2034 -91 
Q 1250 -91 836 529 
Q 422 1150 422 2328 
Q 422 3509 836 4129 
Q 1250 4750 2034 4750 
z
" transform="scale(0.015625)"/>
        <path id="DejaVuSans-36" d="M 2113 2584 
Q 1688 2584 1439 2293 
Q 1191 2003 1191 1497 
Q 1191 994 1439 701 
Q 1688 409 2113 409 
Q 2538 409 2786 701 
Q 3034 994 3034 1497 
Q 3034 2003 2786 2293 
Q 2538 2584 2113 2584 
z
M 3366 4563 
L 3366 3988 
Q 3128 4100 2886 4159 
Q 2644 4219 2406 4219 
Q 1781 4219 1451 3797 
Q 1122 3375 1075 2522 
Q 1259 2794 1537 2939 
Q 1816 3084 2150 3084 
Q 2853 3084 3261 2657 
Q 3669 2231 3669 1497 
Q 3669 778 3244 343 
Q 2819 -91 2113 -91 
Q 1303 -91 875 529 
Q 447 1150 447 2328 
Q 447 3434 972 4092 
Q 1497 4750 2381 4750 
Q 2619 4750 2861 4703 
Q 3103 4656 3366 4563 
z
" transform="scale(0.015625)"/>
       </defs>
       <use xlink:href="#DejaVuSans-32"/>
       <use xlink:href="#DejaVuSans-30" transform="translate(63.623047 0)"/>
       <use xlink:href="#DejaVuSans-32" transform="translate(127.246094 0)"/>
       <use xlink:href="#DejaVuSans-36" transform="translate(190.869141 0)"/>
      </g>
     </g>
    </g>
    <g id="xtick_6">
     <g id="line2d_11">
      <path d="M 561.195158 455.237812 
L 561.195158 38.397812 
" clip-path="url(#pf959624a11)" style="fill: none; stroke: #30363d; stroke-opacity: 0.25; stroke-width: 0.5; stroke-linecap: square"/>
     </g>
     <g id="line2d_12">
      <g>
       <use xlink:href="#m25046146d0" x="561.195158" y="455.237812" style="fill: #c9d1d9; stroke: #c9d1d9; stroke-width: 0.8"/>
      </g>
     </g>
     <g id="text_6">
      <!-- Feb -->
      <g style="fill: #c9d1d9" transform="translate(552.343595 469.83625) scale(0.1 -0.1)">
       <defs>
        <path id="DejaVuSans-46" d="M 628 4666 
L 3309 4666 
L 3309 4134 
L 1259 4134 
L 1259 2759 
L 3109 2759 
L 3109 2228 
L 1259 2228 
L 1259 0 
L 628 0 
L 628 4666 
z
" transform="scale(0.015625)"/>
        <path id="DejaVuSans-62" d="M 3116 1747 
Q 3116 2381 2855 2742 
Q 2594 3103 2138 3103 
Q 1681 3103 1420 2742 
Q 1159 2381 1159 1747 
Q 1159 1113 1420 752 
Q 1681 391 2138 391 
Q 2594 391 2855 752 
Q 3116 1113 3116 1747 
z
M 1159 2969 
Q 1341 3281 1617 3432 
Q 1894 3584 2278 3584 
Q 2916 3584 3314 3078 
Q 3713 2572 3713 1747 
Q 3713 922 3314 415 
Q 2916 -91 2278 -91 
Q 1894 -91 1617 61 
Q 1341 213 1159 525 
L 1159 0 
L 581 0 
L 581 4863 
L 1159 4863 
L 1159 2969 
z
" transform="scale(0.015625)"/>
       </defs>
       <use xlink:href="#DejaVuSans-46"/>
       <use xlink:href="#DejaVuSans-65" transform="translate(52.019531 0)"/>
       <use xlink:href="#DejaVuSans-62" transform="translate(113.542969 0)"/>
      </g>
     </g>
    </g>
    <g id="xtick_7">
     <g id="line2d_13">
      <path d="M 648.210062 455.237812 
L 648.210062 38.397812 
" clip-path="url(#pf959624a11)" style="fill: none; stroke: #30363d; stroke-opacity: 0.25; stroke-width: 0.5; stroke-linecap: square"/>
     </g>
     <g id="line2d_14">
      <g>
       <use xlink:href="#m25046146d0" x="648.210062" y="455.237812" style="fill: #c9d1d9; stroke: #c9d1d9; stroke-width: 0.8"/>
      </g>
     </g>
     <g id="text_7">
      <!-- Mar -->
      <g style="fill: #c9d1d9" transform="translate(638.776468 469.83625) scale(0.1 -0.1)">
       <defs>
        <path id="DejaVuSans-4d" d="M 628 4666 
L 1569 4666 
L 2759 1491 
L 3956 4666 
L 4897 4666 
L 4897 0 
L 4281 0 
L 4281 4097 
L 3078 897 
L 2444 897 
L 1241 4097 
L 1241 0 
L 628 0 
L 628 4666 
z
" transform="scale(0.015625)"/>
        <path id="DejaVuSans-61" d="M 2194 1759 
Q 1497 1759 1228 1600 
Q 959 1441 959 1056 
Q 959 750 1161 570 
Q 1363 391 1709 391 
Q 2188 391 2477 730 
Q 2766 1069 2766 1631 
L 2766 1759 
L 2194 1759 
z
M 3341 1997 
L 3341 0 
L 2766 0 
L 2766 531 
Q 2569 213 2275 61 
Q 1981 -91 1556 -91 
Q 1019 -91 701 211 
Q 384 513 384 1019 
Q 384 1609 779 1909 
Q 1175 2209 1959 2209 
L 2766 2209 
L 2766 2266 
Q 2766 2663 2505 2880 
Q 2244 3097 1772 3097 
Q 1472 3097 1187 3025 
Q 903 2953 641 2809 
L 641 3341 
Q 956 3463 1253 3523 
Q 1550 3584 1831 3584 
Q 2591 3584 2966 3190 
Q 3341 2797 3341 1997 
z
" transform="scale(0.015625)"/>
        <path id="DejaVuSans-72" d="M 2631 2963 
Q 2534 3019 2420 3045 
Q 2306 3072 2169 3072 
Q 1681 3072 1420 2755 
Q 1159 2438 1159 1844 
L 1159 0 
L 581 0 
L 581 3500 
L 1159 3500 
L 1159 2956 
Q 1341 3275 1631 3429 
Q 1922 3584 2338 3584 
Q 2397 3584 2469 3576 
Q 2541 3569 2628 3553 
L 2631 2963 
z
" transform="scale(0.015625)"/>
       </defs>
       <use xlink:href="#DejaVuSans-4d"/>
       <use xlink:href="#DejaVuSans-61" transform="translate(86.279297 0)"/>
       <use xlink:href="#DejaVuSans-72" transform="translate(147.558594 0)"/>
      </g>
     </g>
    </g>
    <g id="xtick_8">
     <g id="line2d_15">
      <path d="M 744.547992 455.237812 
L 744.547992 38.397812 
" clip-path="url(#pf959624a11)" style="fill: none; stroke: #30363d; stroke-opacity: 0.25; stroke-width: 0.5; stroke-linecap: square"/>
     </g>
     <g id="line2d_16">
      <g>
       <use xlink:href="#m25046146d0" x="744.547992" y="455.237812" style="fill: #c9d1d9; stroke: #c9d1d9; stroke-width: 0.8"/>
      </g>
     </g>
     <g id="text_8">
      <!-- Apr -->
      <g style="fill: #c9d1d9" transform="translate(735.897992 469.83625) scale(0.1 -0.1)">
       <defs>
        <path id="DejaVuSans-41" d="M 2188 4044 
L 1331 1722 
L 3047 1722 
L 2188 4044 
z
M 1831 4666 
L 2547 4666 
L 4325 0 
L 3669 0 
L 3244 1197 
L 1141 1197 
L 716 0 
L 50 0 
L 1831 4666 
z
" transform="scale(0.015625)"/>
       </defs>
       <use xlink:href="#DejaVuSans-41"/>
       <use xlink:href="#DejaVuSans-70" transform="translate(68.408203 0)"/>
       <use xlink:href="#DejaVuSans-72" transform="translate(131.884766 0)"/>
      </g>
     </g>
    </g>
    <g id="xtick_9">
     <g id="line2d_17">
      <path d="M 837.778246 455.237812 
L 837.778246 38.397812 
" clip-path="url(#pf959624a11)" style="fill: none; stroke: #30363d; stroke-opacity: 0.25; stroke-width: 0.5; stroke-linecap: square"/>
     </g>
     <g id="line2d_18">
      <g>
       <use xlink:href="#m25046146d0" x="837.778246" y="455.237812" style="fill: #c9d1d9; stroke: #c9d1d9; stroke-width: 0.8"/>
      </g>
     </g>
     <g id="text_9">
      <!-- May -->
      <g style="fill: #c9d1d9" transform="translate(827.440746 469.83625) scale(0.1 -0.1)">
       <defs>
        <path id="DejaVuSans-79" d="M 2059 -325 
Q 1816 -950 1584 -1140 
Q 1353 -1331 966 -1331 
L 506 -1331 
L 506 -850 
L 844 -850 
Q 1081 -850 1212 -737 
Q 1344 -625 1503 -206 
L 1606 56 
L 191 3500 
L 800 3500 
L 1894 763 
L 2988 3500 
L 3597 3500 
L 2059 -325 
z
" transform="scale(0.015625)"/>
       </defs>
       <use xlink:href="#DejaVuSans-4d"/>
       <use xlink:href="#DejaVuSans-61" transform="translate(86.279297 0)"/>
       <use xlink:href="#DejaVuSans-79" transform="translate(147.558594 0)"/>
      </g>
     </g>
    </g>
    <g id="text_10">
     <!-- Date -->
     <g style="fill: #c9d1d9" transform="translate(429.582609 485.034062) scale(0.12 -0.12)">
      <use xlink:href="#DejaVuSans-44"/>
      <use xlink:href="#DejaVuSans-61" transform="translate(77.001953 0)"/>
      <use xlink:href="#DejaVuSans-74" transform="translate(138.28125 0)"/>
      <use xlink:href="#DejaVuSans-65" transform="translate(177.490234 0)"/>
     </g>
    </g>
   </g>
   <g id="matplotlib.axis_2">
    <g id="ytick_1">
     <g id="line2d_19">
      <path d="M 48.90125 455.237812 
L 838.945844 455.237812 
" clip-path="url(#pf959624a11)" style="fill: none; stroke: #30363d; stroke-opacity: 0.25; stroke-width: 0.5; stroke-linecap: square"/>
     </g>
     <g id="line2d_20">
      <defs>
       <path id="m8900dd0c26" d="M 0 0 
L -3.5 0 
" style="stroke: #c9d1d9; stroke-width: 0.8"/>
      </defs>
      <g>
       <use xlink:href="#m8900dd0c26" x="48.90125" y="455.237812" style="fill: #c9d1d9; stroke: #c9d1d9; stroke-width: 0.8"/>
      </g>
     </g>
     <g id="text_11">
      <!-- 0 -->
      <g style="fill: #c9d1d9" transform="translate(35.53875 459.037031) scale(0.1 -0.1)">
       <use xlink:href="#DejaVuSans-30"/>
      </g>
     </g>
    </g>
    <g id="ytick_2">
     <g id="line2d_21">
      <path d="M 48.90125 399.659146 
L 838.945844 399.659146 
" clip-path="url(#pf959624a11)" style="fill: none; stroke: #30363d; stroke-opacity: 0.25; stroke-width: 0.5; stroke-linecap: square"/>
     </g>
     <g id="line2d_22">
      <g>
       <use xlink:href="#m8900dd0c26" x="48.90125" y="399.659146" style="fill: #c9d1d9; stroke: #c9d1d9; stroke-width: 0.8"/>
      </g>
     </g>
     <g id="text_12">
      <!-- 100 -->
      <g style="fill: #c9d1d9" transform="translate(22.81375 403.458365) scale(0.1 -0.1)">
       <defs>
        <path id="DejaVuSans-31" d="M 794 531 
L 1825 531 
L 1825 4091 
L 703 3866 
L 703 4441 
L 1819 4666 
L 2450 4666 
L 2450 531 
L 3481 531 
L 3481 0 
L 794 0 
L 794 531 
z
" transform="scale(0.015625)"/>
       </defs>
       <use xlink:href="#DejaVuSans-31"/>
       <use xlink:href="#DejaVuSans-30" transform="translate(63.623047 0)"/>
       <use xlink:href="#DejaVuSans-30" transform="translate(127.246094 0)"/>
      </g>
     </g>
    </g>
    <g id="ytick_3">
     <g id="line2d_23">
      <path d="M 48.90125 344.080479 
L 838.945844 344.080479 
" clip-path="url(#pf959624a11)" style="fill: none; stroke: #30363d; stroke-opacity: 0.25; stroke-width: 0.5; stroke-linecap: square"/>
     </g>
     <g id="line2d_24">
      <g>
       <use xlink:href="#m8900dd0c26" x="48.90125" y="344.080479" style="fill: #c9d1d9; stroke: #c9d1d9; stroke-width: 0.8"/>
      </g>
     </g>
     <g id="text_13">
      <!-- 200 -->
      <g style="fill: #c9d1d9" transform="translate(22.81375 347.879698) scale(0.1 -0.1)">
       <use xlink:href="#DejaVuSans-32"/>
       <use xlink:href="#DejaVuSans-30" transform="translate(63.623047 0)"/>
       <use xlink:href="#DejaVuSans-30" transform="translate(127.246094 0)"/>
      </g>
     </g>
    </g>
    <g id="ytick_4">
     <g id="line2d_25">
      <path d="M 48.90125 288.501812 
L 838.945844 288.501812 
" clip-path="url(#pf959624a11)" style="fill: none; stroke: #30363d; stroke-opacity: 0.25; stroke-width: 0.5; stroke-linecap: square"/>
     </g>
     <g id="line2d_26">
      <g>
       <use xlink:href="#m8900dd0c26" x="48.90125" y="288.501812" style="fill: #c9d1d9; stroke: #c9d1d9; stroke-width: 0.8"/>
      </g>
     </g>
     <g id="text_14">
      <!-- 300 -->
      <g style="fill: #c9d1d9" transform="translate(22.81375 292.301031) scale(0.1 -0.1)">
       <defs>
        <path id="DejaVuSans-33" d="M 2597 2516 
Q 3050 2419 3304 2112 
Q 3559 1806 3559 1356 
Q 3559 666 3084 287 
Q 2609 -91 1734 -91 
Q 1441 -91 1130 -33 
Q 819 25 488 141 
L 488 750 
Q 750 597 1062 519 
Q 1375 441 1716 441 
Q 2309 441 2620 675 
Q 2931 909 2931 1356 
Q 2931 1769 2642 2001 
Q 2353 2234 1838 2234 
L 1294 2234 
L 1294 2753 
L 1863 2753 
Q 2328 2753 2575 2939 
Q 2822 3125 2822 3475 
Q 2822 3834 2567 4026 
Q 2313 4219 1838 4219 
Q 1578 4219 1281 4162 
Q 984 4106 628 3988 
L 628 4550 
Q 988 4650 1302 4700 
Q 1616 4750 1894 4750 
Q 2613 4750 3031 4423 
Q 3450 4097 3450 3541 
Q 3450 3153 3228 2886 
Q 3006 2619 2597 2516 
z
" transform="scale(0.015625)"/>
       </defs>
       <use xlink:href="#DejaVuSans-33"/>
       <use xlink:href="#DejaVuSans-30" transform="translate(63.623047 0)"/>
       <use xlink:href="#DejaVuSans-30" transform="translate(127.246094 0)"/>
      </g>
     </g>
    </g>
    <g id="ytick_5">
     <g id="line2d_27">
      <path d="M 48.90125 232.923146 
L 838.945844 232.923146 
" clip-path="url(#pf959624a11)" style="fill: none; stroke: #30363d; stroke-opacity: 0.25; stroke-width: 0.5; stroke-linecap: square"/>
     </g>
     <g id="line2d_28">
      <g>
       <use xlink:href="#m8900dd0c26" x="48.90125" y="232.923146" style="fill: #c9d1d9; stroke: #c9d1d9; stroke-width: 0.8"/>
      </g>
     </g>
     <g id="text_15">
      <!-- 400 -->
      <g style="fill: #c9d1d9" transform="translate(22.81375 236.722365) scale(0.1 -0.1)">
       <defs>
        <path id="DejaVuSans-34" d="M 2419 4116 
L 825 1625 
L 2419 1625 
L 2419 4116 
z
M 2253 4666 
L 3047 4666 
L 3047 1625 
L 3713 1625 
L 3713 1100 
L 3047 1100 
L 3047 0 
L 2419 0 
L 2419 1100 
L 313 1100 
L 313 1709 
L 2253 4666 
z
" transform="scale(0.015625)"/>
       </defs>
       <use xlink:href="#DejaVuSans-34"/>
       <use xlink:href="#DejaVuSans-30" transform="translate(63.623047 0)"/>
       <use xlink:href="#DejaVuSans-30" transform="translate(127.246094 0)"/>
      </g>
     </g>
    </g>
    <g id="ytick_6">
     <g id="line2d_29">
      <path d="M 48.90125 177.344479 
L 838.945844 177.344479 
" clip-path="url(#pf959624a11)" style="fill: none; stroke: #30363d; stroke-opacity: 0.25; stroke-width: 0.5; stroke-linecap: square"/>
     </g>
     <g id="line2d_30">
      <g>
       <use xlink:href="#m8900dd0c26" x="48.90125" y="177.344479" style="fill: #c9d1d9; stroke: #c9d1d9; stroke-width: 0.8"/>
      </g>
     </g>
     <g id="text_16">
      <!-- 500 -->
      <g style="fill: #c9d1d9" transform="translate(22.81375 181.143698) scale(0.1 -0.1)">
       <defs>
        <path id="DejaVuSans-35" d="M 691 4666 
L 3169 4666 
L 3169 4134 
L 1269 4134 
L 1269 2991 
Q 1406 3038 1543 3061 
Q 1681 3084 1819 3084 
Q 2600 3084 3056 2656 
Q 3513 2228 3513 1497 
Q 3513 744 3044 326 
Q 2575 -91 1722 -91 
Q 1428 -91 1123 -41 
Q 819 9 494 109 
L 494 744 
Q 775 591 1075 516 
Q 1375 441 1709 441 
Q 2250 441 2565 725 
Q 2881 1009 2881 1497 
Q 2881 1984 2565 2268 
Q 2250 2553 1709 2553 
Q 1456 2553 1204 2497 
Q 953 2441 691 2322 
L 691 4666 
z
" transform="scale(0.015625)"/>
       </defs>
       <use xlink:href="#DejaVuSans-35"/>
       <use xlink:href="#DejaVuSans-30" transform="translate(63.623047 0)"/>
       <use xlink:href="#DejaVuSans-30" transform="translate(127.246094 0)"/>
      </g>
     </g>
    </g>
    <g id="ytick_7">
     <g id="line2d_31">
      <path d="M 48.90125 121.765812 
L 838.945844 121.765812 
" clip-path="url(#pf959624a11)" style="fill: none; stroke: #30363d; stroke-opacity: 0.25; stroke-width: 0.5; stroke-linecap: square"/>
     </g>
     <g id="line2d_32">
      <g>
       <use xlink:href="#m8900dd0c26" x="48.90125" y="121.765812" style="fill: #c9d1d9; stroke: #c9d1d9; stroke-width: 0.8"/>
      </g>
     </g>
     <g id="text_17">
      <!-- 600 -->
      <g style="fill: #c9d1d9" transform="translate(22.81375 125.565031) scale(0.1 -0.1)">
       <use xlink:href="#DejaVuSans-36"/>
       <use xlink:href="#DejaVuSans-30" transform="translate(63.623047 0)"/>
       <use xlink:href="#DejaVuSans-30" transform="translate(127.246094 0)"/>
      </g>
     </g>
    </g>
    <g id="ytick_8">
     <g id="line2d_33">
      <path d="M 48.90125 66.187146 
L 838.945844 66.187146 
" clip-path="url(#pf959624a11)" style="fill: none; stroke: #30363d; stroke-opacity: 0.25; stroke-width: 0.5; stroke-linecap: square"/>
     </g>
     <g id="line2d_34">
      <g>
       <use xlink:href="#m8900dd0c26" x="48.90125" y="66.187146" style="fill: #c9d1d9; stroke: #c9d1d9; stroke-width: 0.8"/>
      </g>
     </g>
     <g id="text_18">
      <!-- 700 -->
      <g style="fill: #c9d1d9" transform="translate(22.81375 69.986365) scale(0.1 -0.1)">
       <defs>
        <path id="DejaVuSans-37" d="M 525 4666 
L 3525 4666 
L 3525 4397 
L 1831 0 
L 1172 0 
L 2766 4134 
L 525 4134 
L 525 4666 
z
" transform="scale(0.015625)"/>
       </defs>
       <use xlink:href="#DejaVuSans-37"/>
       <use xlink:href="#DejaVuSans-30" transform="translate(63.623047 0)"/>
       <use xlink:href="#DejaVuSans-30" transform="translate(127.246094 0)"/>
      </g>
     </g>
    </g>
    <g id="text_19">
     <!-- Count -->
     <g style="fill: #c9d1d9" transform="translate(16.318125 264.635937) rotate(-90) scale(0.12 -0.12)">
      <defs>
       <path id="DejaVuSans-43" d="M 4122 4306 
L 4122 3641 
Q 3803 3938 3442 4084 
Q 3081 4231 2675 4231 
Q 1875 4231 1450 3742 
Q 1025 3253 1025 2328 
Q 1025 1406 1450 917 
Q 1875 428 2675 428 
Q 3081 428 3442 575 
Q 3803 722 4122 1019 
L 4122 359 
Q 3791 134 3420 21 
Q 3050 -91 2638 -91 
Q 1578 -91 968 557 
Q 359 1206 359 2328 
Q 359 3453 968 4101 
Q 1578 4750 2638 4750 
Q 3056 4750 3426 4639 
Q 3797 4528 4122 4306 
z
" transform="scale(0.015625)"/>
       <path id="DejaVuSans-75" d="M 544 1381 
L 544 3500 
L 1119 3500 
L 1119 1403 
Q 1119 906 1312 657 
Q 1506 409 1894 409 
Q 2359 409 2629 706 
Q 2900 1003 2900 1516 
L 2900 3500 
L 3475 3500 
L 3475 0 
L 2900 0 
L 2900 538 
Q 2691 219 2414 64 
Q 2138 -91 1772 -91 
Q 1169 -91 856 284 
Q 544 659 544 1381 
z
M 1991 3584 
L 1991 3584 
z
" transform="scale(0.015625)"/>
       <path id="DejaVuSans-6e" d="M 3513 2113 
L 3513 0 
L 2938 0 
L 2938 2094 
Q 2938 2591 2744 2837 
Q 2550 3084 2163 3084 
Q 1697 3084 1428 2787 
Q 1159 2491 1159 1978 
L 1159 0 
L 581 0 
L 581 3500 
L 1159 3500 
L 1159 2956 
Q 1366 3272 1645 3428 
Q 1925 3584 2291 3584 
Q 2894 3584 3203 3211 
Q 3513 2838 3513 2113 
z
" transform="scale(0.015625)"/>
      </defs>
      <use xlink:href="#DejaVuSans-43"/>
      <use xlink:href="#DejaVuSans-6f" transform="translate(69.824219 0)"/>
      <use xlink:href="#DejaVuSans-75" transform="translate(131.005859 0)"/>
      <use xlink:href="#DejaVuSans-6e" transform="translate(194.384766 0)"/>
      <use xlink:href="#DejaVuSans-74" transform="translate(257.763672 0)"/>
     </g>
    </g>
   </g>
   <g id="line2d_35">
    <path d="M 84.812368 454.682026 
L 84.871896 454.682026 
L 85.015518 454.126239 
L 85.096447 454.126239 
L 85.180937 257.933546 
L 87.798901 257.933546 
L 87.810339 261.268266 
L 90.839028 261.268266 
L 90.985599 260.712479 
L 91.40607 260.712479 
L 91.746836 260.156692 
L 93.858364 259.600906 
L 93.900052 260.156692 
L 94.001267 259.600906 
L 100.540046 259.600906 
L 104.484779 260.712479 
L 105.071712 259.600906 
L 105.500276 259.600906 
L 106.580409 259.045119 
L 107.032317 256.821972 
L 107.91225 256.821972 
L 109.194525 260.712479 
L 109.27772 256.821972 
L 110.261674 256.266186 
L 112.822448 256.266186 
L 113.4979 255.710399 
L 114.501204 255.710399 
L 114.770141 254.598826 
L 121.023761 254.598826 
L 121.479877 253.487252 
L 121.503257 252.375679 
L 123.472494 252.375679 
L 126.376228 251.264106 
L 127.899457 251.264106 
L 127.922512 250.708319 
L 131.420661 250.708319 
L 132.288436 247.929386 
L 135.034736 247.929386 
L 135.0538 247.373599 
L 150.434454 247.373599 
L 153.309485 246.817812 
L 153.407643 247.373599 
L 156.389428 246.817812 
L 166.76579 246.817812 
L 171.79508 246.262026 
L 171.892231 245.706239 
L 172.131134 245.150452 
L 174.968326 245.150452 
L 176.175859 244.594666 
L 181.155585 244.594666 
L 181.344635 247.373599 
L 181.353915 245.150452 
L 181.596019 245.150452 
L 182.798229 242.927306 
L 188.684324 242.927306 
L 193.195452 242.371519 
L 198.209276 242.371519 
L 198.429295 241.815732 
L 211.457684 241.815732 
L 212.01372 241.259946 
L 215.177182 241.259946 
L 215.199483 240.148372 
L 221.227006 240.148372 
L 221.349263 236.257866 
L 232.258749 236.257866 
L 232.262022 235.702079 
L 232.577969 235.702079 
L 233.952972 235.146292 
L 235.35031 235.146292 
L 235.794737 234.590506 
L 235.839194 235.146292 
L 236.856885 234.590506 
L 236.861525 234.034719 
L 236.885301 234.590506 
L 237.473169 234.034719 
L 242.828262 234.034719 
L 244.493206 233.478932 
L 246.46881 233.478932 
L 249.824343 232.923146 
L 253.00097 232.923146 
L 255.455242 231.811572 
L 260.826269 231.811572 
L 263.950633 230.699999 
L 264.830925 231.255786 
L 269.191706 231.255786 
L 274.110861 229.032639 
L 281.447168 229.032639 
L 283.722425 228.476852 
L 324.270212 228.476852 
L 324.597669 227.921066 
L 339.38452 227.921066 
L 339.631587 227.365279 
L 364.792858 227.365279 
L 370.333296 226.809492 
L 370.365344 227.365279 
L 374.331478 225.697919 
L 380.152003 225.697919 
L 383.330212 225.142132 
L 383.335427 224.586346 
L 389.966789 224.586346 
L 392.346858 225.142132 
L 393.20244 224.586346 
L 404.300365 224.586346 
L 404.772667 225.142132 
L 405.637852 224.586346 
L 405.935168 222.363199 
L 411.021 222.363199 
L 411.025388 221.807412 
L 426.587935 221.807412 
L 427.494196 221.251626 
L 430.485046 221.251626 
L 430.776822 220.695839 
L 445.361206 220.695839 
L 445.381025 220.140052 
L 449.028803 220.140052 
L 449.034234 219.584266 
L 449.919382 219.584266 
L 449.965601 219.028479 
L 451.340136 219.028479 
L 451.556091 218.472692 
L 454.498023 218.472692 
L 454.945219 217.361119 
L 456.564771 215.137972 
L 460.481125 215.137972 
L 460.770275 212.359039 
L 462.08352 212.359039 
L 462.728039 211.247466 
L 466.049223 211.247466 
L 467.138995 210.691679 
L 470.258468 210.691679 
L 470.676566 210.135892 
L 479.149333 210.135892 
L 479.358093 209.580106 
L 480.141738 209.580106 
L 481.358372 209.024319 
L 495.0625 209.024319 
L 495.18562 208.468532 
L 495.62501 208.468532 
L 496.542278 207.356959 
L 497.828295 207.356959 
L 498.137515 206.801172 
L 498.435442 206.801172 
L 498.548491 206.245386 
L 501.987652 206.245386 
L 502.573146 205.689599 
L 505.566657 205.689599 
L 505.758585 205.133812 
L 507.398315 205.133812 
L 507.503379 204.578026 
L 512.599283 204.578026 
L 512.708843 204.022239 
L 515.680845 204.022239 
L 516.673503 201.799092 
L 517.774066 201.799092 
L 517.775217 201.243306 
L 522.243939 201.243306 
L 523.063192 200.687519 
L 526.484836 200.687519 
L 527.158777 200.131732 
L 527.412283 200.131732 
L 528.070794 199.575946 
L 529.752895 199.575946 
L 529.947304 199.020159 
L 534.166009 199.020159 
L 535.253444 198.464372 
L 535.332646 197.908586 
L 535.684706 197.908586 
L 536.795915 195.685439 
L 540.24209 195.685439 
L 540.266908 195.129652 
L 543.546656 195.129652 
L 543.737361 194.573866 
L 544.232035 194.573866 
L 544.607078 194.018079 
L 544.68531 194.573866 
L 544.966152 194.018079 
L 546.213897 194.018079 
L 546.225839 193.462292 
L 546.557181 193.462292 
L 546.702277 192.906506 
L 547.704862 192.350719 
L 554.680442 192.350719 
L 555.770718 191.794932 
L 556.500554 191.794932 
L 557.092667 191.239146 
L 557.69165 191.794932 
L 560.157899 191.794932 
L 560.264258 190.683359 
L 563.804742 190.683359 
L 565.178449 189.015999 
L 580.089067 189.015999 
L 580.955656 188.460212 
L 603.971011 188.460212 
L 604.112403 187.904426 
L 637.931067 187.904426 
L 638.080048 187.348639 
L 638.090731 186.792852 
L 638.101341 187.348639 
L 643.030352 187.348639 
L 644.143252 186.792852 
L 663.561869 186.792852 
L 667.557786 186.237066 
L 667.596632 185.681279 
L 667.927434 185.681279 
L 668.963613 185.125492 
L 700.129207 185.125492 
L 700.306927 184.569706 
L 728.146337 184.569706 
L 731.70369 184.013919 
L 733.879674 184.013919 
L 734.115807 183.458132 
L 735.628209 182.902346 
L 739.869502 182.902346 
L 741.655768 182.346559 
L 743.524905 182.346559 
L 743.670469 181.790772 
L 746.744838 181.790772 
L 747.112076 181.234986 
L 747.184768 180.679199 
L 752.658412 180.679199 
L 752.679634 180.123412 
L 757.340175 180.123412 
L 757.350462 179.567626 
L 758.92955 179.011839 
L 761.73286 179.011839 
L 763.750187 178.456052 
L 765.555552 178.456052 
L 768.216427 175.121332 
L 771.322951 175.121332 
L 771.337339 172.342399 
L 786.957039 172.342399 
L 786.958658 171.786612 
L 787.228817 171.230826 
L 788.724889 171.230826 
L 789.050296 170.675039 
L 793.957509 170.675039 
L 795.091918 170.119252 
L 795.278559 170.675039 
L 803.034726 170.675039 
L 803.034726 170.675039 
" clip-path="url(#pf959624a11)" style="fill: none; stroke: #3fb950; stroke-width: 2; stroke-linecap: square"/>
   </g>
   <g id="line2d_36">
    <path d="M 84.812368 455.237812 
L 84.909663 453.570452 
L 85.015518 453.570452 
L 85.096447 372.981386 
L 86.563924 372.981386 
L 86.594102 370.758239 
L 88.106827 370.758239 
L 88.496582 369.090879 
L 89.026901 370.758239 
L 89.030821 369.090879 
L 89.469636 369.090879 
L 89.639228 367.979306 
L 93.972744 367.979306 
L 93.97688 367.423519 
L 94.001267 367.979306 
L 94.21456 367.423519 
L 94.277109 367.979306 
L 94.443931 367.423519 
L 95.964641 367.423519 
L 96.044204 366.867732 
L 96.260914 366.311946 
L 97.977868 366.311946 
L 99.931747 365.756159 
L 100.000519 365.200372 
L 100.528608 364.644586 
L 100.540046 364.088799 
L 104.484779 367.979306 
L 105.071712 366.311946 
L 105.500276 363.533012 
L 107.91225 363.533012 
L 109.194525 367.979306 
L 109.27772 363.533012 
L 132.709052 363.533012 
L 133.428061 362.977226 
L 135.0538 362.977226 
L 139.493962 362.421439 
L 140.575534 361.865652 
L 155.986222 361.865652 
L 156.389428 361.309866 
L 158.460996 360.754079 
L 159.777657 360.754079 
L 161.237114 360.198292 
L 161.276427 359.086719 
L 162.27966 358.530932 
L 162.953924 357.975146 
L 172.24278 357.975146 
L 174.094436 357.419359 
L 174.654213 357.419359 
L 174.968326 356.863572 
L 176.175859 356.863572 
L 177.375515 356.307786 
L 181.155585 356.307786 
L 181.344635 358.530932 
L 181.353915 356.307786 
L 182.798229 356.307786 
L 182.943218 355.751999 
L 184.987593 355.751999 
L 186.998985 355.196212 
L 187.047795 354.640426 
L 193.195452 354.640426 
L 195.788455 354.084639 
L 195.795001 353.528852 
L 204.423691 353.528852 
L 208.023055 352.973066 
L 210.723496 352.973066 
L 211.457684 352.417279 
L 215.579706 352.417279 
L 217.930748 351.861492 
L 218.059623 351.305706 
L 220.351785 351.305706 
L 220.617808 350.749919 
L 221.349263 350.194132 
L 222.982123 350.194132 
L 224.013051 349.638346 
L 225.90323 349.638346 
L 227.136876 349.082559 
L 229.768617 349.082559 
L 230.665202 347.970986 
L 237.473169 347.970986 
L 239.412013 347.415199 
L 241.685508 347.415199 
L 242.198202 346.859412 
L 242.354989 346.303626 
L 242.828262 345.747839 
L 250.657301 345.747839 
L 252.090716 345.192052 
L 253.00097 344.636266 
L 275.263758 344.636266 
L 280.261216 344.080479 
L 280.320924 343.524692 
L 283.722425 343.524692 
L 286.629756 342.968906 
L 291.768426 342.968906 
L 292.202638 342.413119 
L 300.954016 342.413119 
L 307.804642 341.857332 
L 307.870392 341.301546 
L 308.766007 341.301546 
L 310.58058 340.745759 
L 310.681795 339.078399 
L 310.761645 338.522612 
L 314.551965 337.966826 
L 314.778926 337.411039 
L 314.869387 336.299466 
L 315.21267 335.743679 
L 327.546759 335.743679 
L 331.050663 335.187892 
L 333.281139 334.632106 
L 335.028487 334.632106 
L 339.079867 334.076319 
L 339.38452 331.853172 
L 339.631587 331.853172 
L 340.214097 330.741599 
L 347.898723 330.185812 
L 348.143308 329.630026 
L 348.215461 329.074239 
L 349.838969 329.074239 
L 351.372053 328.518452 
L 351.548263 327.962666 
L 351.66793 326.851092 
L 352.682708 326.295306 
L 352.757199 325.739519 
L 354.608711 325.183732 
L 357.042481 324.627946 
L 357.215562 324.072159 
L 357.21923 323.516372 
L 357.708761 322.960586 
L 357.795229 322.404799 
L 361.325642 321.849012 
L 361.958543 321.293226 
L 376.820963 321.293226 
L 379.285666 320.737439 
L 379.509966 320.181652 
L 389.583005 320.181652 
L 389.966789 319.070079 
L 394.163697 319.070079 
L 395.430794 318.514292 
L 395.492696 317.402719 
L 395.818066 316.846932 
L 397.972541 316.291146 
L 398.021063 315.735359 
L 398.281115 315.179572 
L 398.328197 313.512212 
L 398.547605 312.956426 
L 398.844453 312.956426 
L 398.855387 312.400639 
L 400.65399 311.844852 
L 401.361094 311.289066 
L 401.532196 310.733279 
L 404.772667 310.177492 
L 407.160757 310.177492 
L 407.99001 309.621706 
L 416.968637 309.621706 
L 419.943193 309.065919 
L 419.955027 308.510132 
L 420.489986 307.954346 
L 427.494196 307.954346 
L 429.459441 307.398559 
L 430.269019 306.842772 
L 430.485046 305.731199 
L 436.150726 305.731199 
L 436.53674 305.175412 
L 439.64794 305.175412 
L 441.13743 304.619626 
L 445.381025 304.619626 
L 447.946476 304.063839 
L 453.274088 304.063839 
L 453.928894 303.508052 
L 456.564771 303.508052 
L 457.282234 302.952266 
L 457.593469 302.396479 
L 457.746767 301.840692 
L 459.916492 301.840692 
L 459.978178 300.729119 
L 460.770275 300.729119 
L 461.290343 299.061759 
L 463.177717 299.061759 
L 463.412123 298.505972 
L 463.594088 298.505972 
L 464.497471 297.950186 
L 465.996601 297.950186 
L 466.049223 297.394399 
L 467.138995 297.394399 
L 467.403687 296.838612 
L 468.427961 296.838612 
L 469.996222 295.727039 
L 470.676566 295.727039 
L 473.307838 294.615466 
L 473.311795 294.059679 
L 473.814166 293.503892 
L 475.095939 292.948106 
L 475.29524 292.392319 
L 476.573199 291.836532 
L 478.662248 291.836532 
L 478.970353 291.280746 
L 479.149333 290.724959 
L 481.905884 290.724959 
L 481.978216 290.169172 
L 482.70406 290.169172 
L 482.759775 289.613386 
L 483.15809 289.057599 
L 484.544026 289.057599 
L 484.64945 288.501812 
L 484.886878 288.501812 
L 485.008523 287.946026 
L 485.041578 287.946026 
L 485.154879 287.390239 
L 486.99373 287.390239 
L 487.379672 286.834452 
L 487.703748 286.834452 
L 487.897438 286.278666 
L 488.392076 286.278666 
L 488.762408 285.722879 
L 488.840495 285.167092 
L 488.94635 285.167092 
L 490.80797 284.611306 
L 492.201065 284.611306 
L 492.306524 284.055519 
L 497.80193 284.055519 
L 497.828295 283.499732 
L 498.137515 283.499732 
L 498.752792 282.388159 
L 500.721166 282.388159 
L 500.893275 280.720799 
L 500.943487 279.609226 
L 501.267887 279.053439 
L 502.573146 279.053439 
L 503.188746 278.497652 
L 503.785427 278.497652 
L 503.977823 277.941866 
L 504.902752 277.386079 
L 505.758585 277.386079 
L 507.479137 276.830292 
L 507.593588 276.274506 
L 508.029166 276.274506 
L 508.116318 275.718719 
L 509.645805 275.718719 
L 509.688284 275.162932 
L 517.105736 275.162932 
L 517.220331 274.607146 
L 517.440998 274.607146 
L 517.538832 273.495572 
L 518.493939 273.495572 
L 518.570983 272.939786 
L 518.697196 272.939786 
L 519.358728 272.383999 
L 519.525011 271.828212 
L 519.828836 271.828212 
L 520.085939 271.272426 
L 520.169745 270.716639 
L 523.896833 270.716639 
L 524.837589 270.160852 
L 525.023402 269.049279 
L 525.252377 268.493492 
L 525.634614 268.493492 
L 525.867581 267.937706 
L 531.21638 267.937706 
L 531.569482 266.270346 
L 532.300325 266.270346 
L 532.407619 265.714559 
L 535.263479 265.714559 
L 535.332646 264.602986 
L 538.762671 264.602986 
L 538.798208 264.047199 
L 540.450527 264.047199 
L 540.461641 263.491412 
L 541.266256 263.491412 
L 541.288017 262.935626 
L 543.737361 262.935626 
L 543.859186 262.379839 
L 544.01439 262.379839 
L 544.232035 261.824052 
L 544.673836 261.824052 
L 544.68531 261.268266 
L 544.966152 261.268266 
L 545.501902 260.712479 
L 549.829196 260.712479 
L 550.143704 260.156692 
L 551.42767 260.156692 
L 551.430044 259.600906 
L 561.246772 259.600906 
L 562.91294 259.045119 
L 562.961245 258.489332 
L 563.804742 257.933546 
L 565.087341 257.933546 
L 565.178449 256.821972 
L 565.410446 256.821972 
L 565.507021 256.266186 
L 568.913378 256.266186 
L 569.528511 255.710399 
L 575.420613 255.710399 
L 575.438741 255.154612 
L 577.363161 255.154612 
L 578.18558 254.598826 
L 587.243302 254.598826 
L 587.356351 253.487252 
L 590.918596 253.487252 
L 591.627139 252.931466 
L 592.385893 252.931466 
L 593.313448 252.375679 
L 599.444596 252.375679 
L 600.031709 251.819892 
L 600.540447 251.819892 
L 600.789889 251.264106 
L 602.743048 250.708319 
L 603.699162 250.708319 
L 604.010936 250.152532 
L 604.112403 250.152532 
L 606.856401 249.596746 
L 611.90864 249.596746 
L 612.304005 249.040959 
L 631.804271 249.040959 
L 632.51677 248.485172 
L 637.026244 248.485172 
L 637.189217 247.929386 
L 637.482144 247.929386 
L 637.570447 247.373599 
L 662.753946 247.373599 
L 663.561869 246.817812 
L 669.574825 246.817812 
L 670.88102 246.262026 
L 670.968567 245.706239 
L 674.097068 245.706239 
L 674.226878 245.150452 
L 684.360417 245.150452 
L 684.381171 244.594666 
L 692.93555 244.594666 
L 693.027629 244.038879 
L 693.583234 243.483092 
L 695.682426 243.483092 
L 695.687245 242.927306 
L 696.113831 242.371519 
L 699.26564 242.371519 
L 700.306927 241.815732 
L 707.027706 241.815732 
L 707.075041 240.704159 
L 749.676699 240.704159 
L 752.679634 240.148372 
L 756.457689 240.148372 
L 756.583219 239.592586 
L 773.333121 239.592586 
L 773.361248 239.036799 
L 790.853107 239.036799 
L 791.033417 238.481012 
L 792.074092 238.481012 
L 792.101213 237.925226 
L 792.33641 237.369439 
L 793.25134 236.257866 
L 793.385826 235.146292 
L 793.463554 234.034719 
L 793.697889 233.478932 
L 793.752093 232.923146 
L 793.957509 232.367359 
L 795.278559 232.367359 
L 795.442791 231.811572 
L 795.450524 231.255786 
L 795.945917 230.699999 
L 803.034726 230.699999 
L 803.034726 230.699999 
" clip-path="url(#pf959624a11)" style="fill: none; stroke: #58a6ff; stroke-width: 2; stroke-linecap: square"/>
   </g>
   <g id="line2d_37">
    <path d="M 84.812368 455.237812 
L 87.798901 455.237812 
L 87.810339 454.126239 
L 90.275905 454.126239 
L 90.839028 453.570452 
L 242.828262 453.570452 
L 244.493206 453.014666 
L 286.629756 453.014666 
L 287.799127 452.458879 
L 327.546759 452.458879 
L 331.050663 451.903092 
L 340.214097 451.903092 
L 348.215461 450.235732 
L 349.838969 449.124159 
L 352.757199 449.124159 
L 354.608711 448.568372 
L 357.21923 448.012586 
L 357.795229 448.012586 
L 361.325642 447.456799 
L 361.958543 446.901012 
L 364.792858 446.345226 
L 370.333296 445.789439 
L 370.365344 446.345226 
L 379.509966 446.345226 
L 380.152003 445.789439 
L 393.20244 445.789439 
L 394.163697 445.233652 
L 398.547605 445.233652 
L 398.855387 444.677866 
L 404.300365 444.677866 
L 404.772667 444.122079 
L 424.719517 444.122079 
L 426.587935 443.566292 
L 427.373198 443.566292 
L 427.494196 443.010506 
L 432.817853 443.010506 
L 432.822924 442.454719 
L 445.361206 442.454719 
L 445.381025 441.898932 
L 449.034234 441.898932 
L 449.965601 441.343146 
L 451.337726 440.787359 
L 451.340136 440.231572 
L 451.556091 440.231572 
L 453.274088 438.564212 
L 454.431409 438.564212 
L 454.498023 436.896852 
L 454.945219 436.896852 
L 456.564771 437.452639 
L 457.729502 437.452639 
L 457.746767 435.229492 
L 462.08352 435.229492 
L 462.728039 434.673706 
L 463.412123 434.673706 
L 463.594088 434.117919 
L 479.149333 434.117919 
L 479.358093 433.562132 
L 480.141738 433.562132 
L 481.358372 433.006346 
L 486.725981 433.006346 
L 486.99373 432.450559 
L 488.840495 432.450559 
L 488.94635 431.894772 
L 495.0625 431.894772 
L 495.18562 431.338986 
L 495.62501 431.338986 
L 496.07066 430.783199 
L 496.515877 430.783199 
L 496.542278 430.227412 
L 498.435442 430.227412 
L 498.548491 429.671626 
L 507.337349 429.671626 
L 507.45716 429.115839 
L 507.503379 429.115839 
L 507.593588 428.560052 
L 508.116318 428.560052 
L 509.212133 428.004266 
L 513.496301 428.004266 
L 513.500077 427.448479 
L 514.318684 427.448479 
L 514.349832 426.892692 
L 516.673503 426.892692 
L 517.161595 426.336906 
L 520.258228 426.336906 
L 521.15636 425.781119 
L 522.903025 425.781119 
L 522.921549 424.669546 
L 523.063192 424.669546 
L 523.241452 424.113759 
L 526.051272 424.113759 
L 526.484836 423.557972 
L 527.158777 423.557972 
L 527.412283 423.002186 
L 529.057265 423.002186 
L 529.286959 422.446399 
L 529.289909 421.890612 
L 529.752895 421.890612 
L 529.947304 421.334826 
L 547.667239 421.334826 
L 547.704862 420.223252 
L 550.143704 420.223252 
L 550.845628 419.667466 
L 551.430044 419.667466 
L 554.171596 419.111679 
L 554.680442 419.111679 
L 555.770718 418.555892 
L 556.500554 418.555892 
L 557.092667 418.000106 
L 557.69165 418.555892 
L 559.619883 418.555892 
L 560.144231 418.000106 
L 560.264258 416.888532 
L 561.24019 416.332746 
L 561.246772 415.221172 
L 565.507021 415.221172 
L 566.438712 414.665386 
L 566.533129 412.998026 
L 567.464353 412.442239 
L 567.979349 411.886452 
L 572.383975 411.886452 
L 572.570867 410.219092 
L 572.795526 410.219092 
L 572.962096 409.663306 
L 574.038561 409.107519 
L 575.732999 409.107519 
L 576.082073 408.551732 
L 576.161491 407.995946 
L 576.339607 407.995946 
L 577.363161 406.884372 
L 578.459804 406.884372 
L 578.819884 406.328586 
L 580.084895 406.328586 
L 580.089067 405.217012 
L 580.955656 405.217012 
L 582.106107 404.661226 
L 585.154038 403.549652 
L 585.42614 402.993866 
L 591.627139 402.993866 
L 592.385893 401.882292 
L 603.971011 401.882292 
L 604.112403 400.770719 
L 609.751359 400.770719 
L 610.612948 400.214932 
L 613.227531 400.214932 
L 613.374282 399.659146 
L 629.459487 399.659146 
L 629.71623 399.103359 
L 631.309489 399.103359 
L 631.804271 398.547572 
L 634.777784 398.547572 
L 635.337021 397.991786 
L 635.34069 397.435999 
L 635.980281 396.880212 
L 637.931067 396.880212 
L 638.080048 396.324426 
L 638.090731 395.212852 
L 638.101341 395.768639 
L 639.412248 395.212852 
L 644.143252 395.212852 
L 645.076454 394.101279 
L 653.612669 394.101279 
L 654.272654 393.545492 
L 656.343467 393.545492 
L 656.509245 392.989706 
L 656.532049 392.433919 
L 663.561869 392.433919 
L 667.927434 391.322346 
L 668.963613 391.322346 
L 669.574825 390.766559 
L 678.617584 390.766559 
L 679.729082 390.210772 
L 681.10635 390.210772 
L 682.440241 389.654986 
L 693.583234 389.654986 
L 693.889038 389.099199 
L 693.890693 388.543412 
L 700.129207 388.543412 
L 700.306927 387.987626 
L 728.146337 387.987626 
L 731.70369 387.431839 
L 739.869502 387.431839 
L 741.655768 386.876052 
L 743.227446 386.876052 
L 743.524905 386.320266 
L 747.184768 386.320266 
L 747.802994 385.764479 
L 748.618363 385.764479 
L 749.676699 385.208692 
L 752.213519 385.208692 
L 752.679634 384.652906 
L 752.991876 384.652906 
L 754.128623 384.097119 
L 765.11091 384.097119 
L 765.141627 382.429759 
L 774.724273 382.429759 
L 778.78781 381.873972 
L 778.791119 381.318186 
L 783.556077 381.318186 
L 783.756098 380.762399 
L 783.759047 380.206612 
L 785.987905 380.206612 
L 786.958658 379.650826 
L 787.653101 379.650826 
L 788.724889 379.095039 
L 789.875052 379.095039 
L 790.073814 377.983466 
L 791.033417 377.983466 
L 791.224661 377.427679 
L 793.383956 377.427679 
L 793.463554 376.871892 
L 796.867034 376.871892 
L 799.332708 376.316106 
L 800.141459 376.316106 
L 800.935391 375.760319 
L 802.575445 375.204532 
L 802.582458 374.648746 
L 803.034726 372.981386 
L 803.034726 372.981386 
" clip-path="url(#pf959624a11)" style="fill: none; stroke: #d29922; stroke-width: 2; stroke-linecap: square"/>
   </g>
   <g id="line2d_38">
    <path d="M 84.812368 454.682026 
L 85.067816 454.682026 
L 85.180937 432.450559 
L 85.772114 426.892692 
L 86.10993 425.781119 
L 86.28132 426.336906 
L 86.594102 425.781119 
L 87.12309 425.225332 
L 87.490112 424.113759 
L 87.798901 423.557972 
L 87.810339 423.002186 
L 88.106827 421.334826 
L 88.496582 421.334826 
L 89.026901 420.779039 
L 89.030821 420.223252 
L 89.457803 419.667466 
L 89.575528 419.111679 
L 89.639228 419.111679 
L 90.275905 418.555892 
L 90.730799 418.000106 
L 90.839028 411.886452 
L 90.913878 412.442239 
L 91.19864 406.328586 
L 91.203712 407.995946 
L 91.40607 402.993866 
L 93.97688 402.993866 
L 94.21456 399.659146 
L 94.277109 402.438079 
L 94.566907 397.991786 
L 94.710421 397.435999 
L 95.779656 396.880212 
L 95.811919 396.324426 
L 96.044204 395.768639 
L 96.260914 395.768639 
L 96.811555 395.212852 
L 97.105705 394.657066 
L 97.238932 393.545492 
L 97.319969 392.989706 
L 97.594768 392.433919 
L 97.601566 391.878132 
L 97.877948 392.433919 
L 97.956611 391.878132 
L 97.966286 392.433919 
L 97.977868 390.766559 
L 100.540046 390.766559 
L 104.484779 402.993866 
L 105.071712 390.210772 
L 105.500276 389.654986 
L 107.032317 389.654986 
L 107.312547 389.099199 
L 107.91225 388.543412 
L 109.194525 402.993866 
L 109.27772 387.987626 
L 110.261674 387.431839 
L 112.365865 386.876052 
L 112.515925 387.431839 
L 112.822448 385.764479 
L 113.4979 385.764479 
L 113.703136 385.208692 
L 114.090768 384.652906 
L 114.122924 383.541332 
L 114.480487 382.429759 
L 114.501204 382.985546 
L 114.713886 382.985546 
L 114.830496 381.873972 
L 115.189461 379.650826 
L 115.236652 378.539252 
L 115.697192 376.871892 
L 115.922282 377.983466 
L 117.513815 374.648746 
L 117.932883 375.760319 
L 119.657499 373.537172 
L 121.023761 377.427679 
L 121.503257 373.537172 
L 123.472494 371.869812 
L 126.376228 371.869812 
L 126.759724 371.314026 
L 127.064916 369.646666 
L 127.922512 371.314026 
L 131.420661 371.869812 
L 132.288436 369.646666 
L 132.709052 367.979306 
L 133.428061 369.646666 
L 135.0538 367.979306 
L 140.575534 367.979306 
L 146.381671 367.423519 
L 146.768872 366.867732 
L 150.434454 366.311946 
L 152.858296 366.311946 
L 153.309485 365.756159 
L 153.407643 366.311946 
L 155.986222 364.644586 
L 158.404849 364.644586 
L 158.460996 364.088799 
L 159.777657 363.533012 
L 162.953924 363.533012 
L 164.35504 359.642506 
L 165.397874 359.086719 
L 166.739749 358.530932 
L 166.76579 357.975146 
L 171.79508 357.975146 
L 171.892231 354.084639 
L 172.078368 354.084639 
L 172.24278 352.973066 
L 174.094436 352.973066 
L 174.654213 352.417279 
L 177.375515 352.417279 
L 181.155585 351.861492 
L 181.344635 363.533012 
L 181.353915 352.417279 
L 181.596019 351.861492 
L 182.943218 351.861492 
L 184.987593 351.305706 
L 187.047795 351.305706 
L 188.684324 350.749919 
L 193.195452 349.638346 
L 195.795001 349.638346 
L 197.884193 349.082559 
L 198.209276 346.303626 
L 198.429295 346.303626 
L 198.818618 345.747839 
L 200.849361 345.192052 
L 201.318786 342.968906 
L 204.125441 341.857332 
L 204.159251 342.413119 
L 204.423691 341.857332 
L 208.023055 340.745759 
L 210.723496 340.189972 
L 212.01372 340.189972 
L 213.157302 339.634186 
L 214.148341 338.522612 
L 215.199483 337.966826 
L 215.579706 337.411039 
L 218.059623 337.966826 
L 220.351785 336.855252 
L 220.617808 337.411039 
L 221.227006 337.411039 
L 221.349263 336.855252 
L 222.982123 336.299466 
L 224.013051 336.855252 
L 225.90323 335.743679 
L 227.136876 335.743679 
L 229.768617 335.187892 
L 230.205022 335.743679 
L 230.665202 334.076319 
L 232.262022 334.076319 
L 232.577969 333.520532 
L 233.952972 331.297386 
L 234.341467 330.185812 
L 235.35031 330.741599 
L 235.794737 329.630026 
L 235.839194 329.074239 
L 239.412013 329.074239 
L 241.22155 328.518452 
L 241.685508 327.962666 
L 244.493206 327.962666 
L 246.46881 327.406879 
L 249.824343 327.406879 
L 250.657301 326.851092 
L 259.884435 326.851092 
L 260.414358 326.295306 
L 260.467447 325.739519 
L 260.826269 325.183732 
L 264.830925 325.183732 
L 265.080511 324.627946 
L 266.099389 324.072159 
L 266.275851 323.516372 
L 267.963922 322.960586 
L 269.191706 322.404799 
L 274.110861 322.404799 
L 275.263758 321.293226 
L 280.320924 321.293226 
L 281.447168 320.737439 
L 286.16026 320.737439 
L 286.629756 320.181652 
L 287.799127 319.625866 
L 288.147229 319.070079 
L 288.265422 318.514292 
L 291.768426 317.958506 
L 292.202638 318.514292 
L 296.814118 317.402719 
L 300.460205 316.291146 
L 300.954016 315.735359 
L 307.870392 315.735359 
L 308.766007 315.179572 
L 315.21267 315.179572 
L 321.285298 314.623786 
L 322.049124 314.067999 
L 324.597669 313.512212 
L 327.153408 312.956426 
L 327.546759 312.400639 
L 333.281139 312.400639 
L 335.028487 311.844852 
L 348.215461 311.844852 
L 349.838969 311.289066 
L 360.731766 311.289066 
L 361.325642 310.733279 
L 361.958543 311.289066 
L 364.792858 310.733279 
L 374.331478 310.733279 
L 375.609725 310.177492 
L 395.788284 310.177492 
L 395.818066 309.621706 
L 408.280347 309.621706 
L 411.018375 309.065919 
L 411.025388 308.510132 
L 424.713439 308.510132 
L 424.719517 307.398559 
L 432.822924 307.398559 
L 436.53674 306.842772 
L 441.13743 306.842772 
L 445.381025 305.731199 
L 453.928894 305.731199 
L 454.431409 305.175412 
L 454.498023 304.619626 
L 457.729502 304.619626 
L 457.746767 304.063839 
L 458.082316 304.063839 
L 458.617203 303.508052 
L 463.412123 303.508052 
L 463.594088 302.952266 
L 469.996222 302.952266 
L 470.258468 302.396479 
L 485.893527 302.396479 
L 486.724794 300.729119 
L 486.725981 300.173332 
L 488.941063 300.173332 
L 488.94635 299.617546 
L 495.480058 299.617546 
L 495.62501 299.061759 
L 498.752792 299.061759 
L 498.865157 298.505972 
L 510.484697 298.505972 
L 510.708133 297.950186 
L 513.405193 297.950186 
L 513.500077 297.394399 
L 514.349832 296.838612 
L 535.684706 296.838612 
L 536.795915 295.727039 
L 538.459241 295.727039 
L 538.798208 295.171252 
L 540.461641 295.171252 
L 540.708169 294.615466 
L 544.638335 294.615466 
L 544.68531 294.059679 
L 566.436878 294.059679 
L 566.533129 292.948106 
L 593.721726 292.948106 
L 594.427859 292.392319 
L 640.849332 292.392319 
L 643.030352 291.836532 
L 662.648414 291.836532 
L 662.753946 291.280746 
L 671.536905 291.280746 
L 671.963814 290.724959 
L 803.034726 290.724959 
L 803.034726 290.724959 
" clip-path="url(#pf959624a11)" style="fill: none; stroke: #f85149; stroke-width: 2; stroke-linecap: square"/>
   </g>
   <g id="line2d_39">
    <path d="M 84.812368 454.682026 
L 84.83269 454.126239 
L 84.992915 -1 
M 85.136924 -1 
L 85.180937 101.201706 
L 87.798901 101.201706 
L 87.810339 97.866986 
L 90.839028 97.866986 
L 90.985599 98.422772 
L 91.40607 98.422772 
L 91.746836 98.978559 
L 93.858364 99.534346 
L 93.900052 98.978559 
L 94.001267 99.534346 
L 100.540046 99.534346 
L 104.484779 98.422772 
L 105.071712 99.534346 
L 105.500276 98.978559 
L 106.580409 99.534346 
L 107.032317 96.755412 
L 107.91225 96.755412 
L 109.194525 98.422772 
L 109.27772 95.643839 
L 110.261674 96.199626 
L 112.822448 96.199626 
L 113.4979 95.088052 
L 114.501204 95.088052 
L 114.770141 91.197546 
L 121.023761 91.197546 
L 121.479877 87.862826 
L 121.503257 86.751252 
L 123.472494 86.751252 
L 126.376228 82.860746 
L 127.899457 82.860746 
L 127.922512 83.416532 
L 131.420661 83.416532 
L 132.288436 80.081812 
L 135.034736 80.081812 
L 135.0538 80.637599 
L 150.434454 80.637599 
L 153.309485 81.193386 
L 153.407643 80.637599 
L 156.389428 81.193386 
L 166.76579 81.193386 
L 171.79508 81.749172 
L 171.892231 74.523946 
L 172.131134 75.079732 
L 174.968326 75.079732 
L 176.175859 75.635519 
L 181.155585 75.635519 
L 181.344635 80.637599 
L 181.353915 71.745012 
L 181.596019 71.745012 
L 182.798229 73.968159 
L 188.684324 73.968159 
L 193.195452 70.077652 
L 198.209276 70.077652 
L 198.429295 68.410292 
L 211.457684 68.410292 
L 212.01372 68.966079 
L 215.177182 68.966079 
L 215.199483 70.077652 
L 221.227006 70.077652 
L 221.349263 73.412372 
L 230.665202 73.412372 
L 230.887703 68.410292 
L 232.258749 67.298719 
L 232.262022 67.854506 
L 232.577969 67.854506 
L 233.703638 65.075572 
L 235.35031 65.075572 
L 235.794737 65.631359 
L 235.839194 65.075572 
L 236.856885 65.631359 
L 236.861525 66.187146 
L 236.885301 65.631359 
L 237.473169 63.408212 
L 242.828262 63.408212 
L 244.493206 63.963999 
L 246.46881 63.963999 
L 249.824343 64.519786 
L 253.00097 64.519786 
L 255.455242 65.631359 
L 260.467447 65.075572 
L 260.826269 65.075572 
L 263.950633 66.187146 
L 264.830925 65.631359 
L 269.191706 65.631359 
L 274.108199 67.854506 
L 274.110861 67.298719 
L 281.447168 67.298719 
L 283.722425 67.854506 
L 324.270212 67.854506 
L 324.597669 68.410292 
L 327.135172 68.410292 
L 327.153408 66.742932 
L 339.38452 66.742932 
L 339.631587 67.298719 
L 364.792858 67.298719 
L 370.333296 67.854506 
L 370.365344 67.298719 
L 374.331478 68.966079 
L 375.609725 68.966079 
L 376.820963 68.410292 
L 380.152003 68.410292 
L 383.330212 68.966079 
L 383.335427 69.521866 
L 392.346858 67.854506 
L 393.20244 68.410292 
L 404.300365 68.410292 
L 404.772667 67.854506 
L 405.637852 68.410292 
L 405.935168 70.633439 
L 411.021 70.633439 
L 411.025388 71.189226 
L 426.587935 71.189226 
L 427.494196 71.745012 
L 430.485046 71.745012 
L 430.776822 72.300799 
L 445.361206 72.300799 
L 445.381025 72.856586 
L 447.946476 72.856586 
L 449.028803 73.412372 
L 449.034234 73.968159 
L 449.919382 73.412372 
L 449.965601 73.968159 
L 451.340136 73.968159 
L 451.556091 74.523946 
L 454.431409 74.523946 
L 454.498023 73.412372 
L 454.945219 74.523946 
L 456.564771 72.856586 
L 460.481125 72.856586 
L 460.770275 71.189226 
L 462.08352 71.189226 
L 462.728039 72.300799 
L 466.049223 72.300799 
L 467.138995 72.856586 
L 467.403687 72.856586 
L 468.427961 70.077652 
L 470.258468 70.077652 
L 470.676566 70.633439 
L 479.149333 70.633439 
L 479.358093 71.189226 
L 480.141738 71.189226 
L 481.358372 71.745012 
L 495.0625 71.745012 
L 495.18562 72.300799 
L 495.62501 72.300799 
L 496.542278 73.412372 
L 497.828295 73.412372 
L 498.137515 72.856586 
L 498.435442 72.856586 
L 498.548491 73.412372 
L 501.987652 73.412372 
L 502.573146 73.968159 
L 505.566657 73.968159 
L 505.758585 74.523946 
L 507.398315 74.523946 
L 507.503379 75.079732 
L 512.599283 75.079732 
L 512.708843 75.635519 
L 515.680845 75.635519 
L 516.673503 77.858666 
L 517.774066 77.858666 
L 517.775217 78.414452 
L 522.243939 78.414452 
L 523.063192 78.970239 
L 526.484836 78.970239 
L 527.158777 79.526026 
L 529.752895 79.526026 
L 529.947304 80.081812 
L 534.166009 80.081812 
L 535.253444 80.637599 
L 535.332646 81.193386 
L 535.684706 81.193386 
L 536.795915 60.629279 
L 540.24209 60.629279 
L 540.266908 61.185066 
L 540.461641 61.185066 
L 540.708169 60.629279 
L 543.546656 60.629279 
L 543.737361 61.185066 
L 544.232035 61.185066 
L 544.607078 61.740852 
L 544.68531 61.185066 
L 546.213897 61.185066 
L 546.225839 61.740852 
L 546.557181 61.740852 
L 546.702277 62.296639 
L 547.704862 62.852426 
L 554.680442 62.852426 
L 555.770718 63.408212 
L 556.500554 63.408212 
L 557.092667 63.963999 
L 557.69165 63.408212 
L 560.157899 63.408212 
L 560.264258 64.519786 
L 563.804742 64.519786 
L 565.178449 66.187146 
L 580.089067 66.187146 
L 580.955656 66.742932 
L 603.971011 66.742932 
L 604.112403 67.298719 
L 637.931067 67.298719 
L 638.080048 67.854506 
L 638.090731 68.410292 
L 638.101341 67.854506 
L 643.030352 67.854506 
L 644.143252 68.410292 
L 663.561869 68.410292 
L 667.927434 68.966079 
L 668.955017 69.521866 
L 668.963613 67.854506 
L 700.129207 67.854506 
L 700.306927 68.410292 
L 728.146337 68.410292 
L 731.70369 68.966079 
L 733.879674 68.966079 
L 734.115807 69.521866 
L 735.628209 70.077652 
L 739.869502 70.077652 
L 741.655768 70.633439 
L 743.524905 70.633439 
L 743.670469 71.189226 
L 746.744838 71.189226 
L 747.112076 71.745012 
L 747.184768 72.300799 
L 752.658412 72.300799 
L 752.679634 72.856586 
L 756.583219 72.856586 
L 757.340175 72.300799 
L 757.350462 72.856586 
L 758.92955 73.412372 
L 761.73286 73.412372 
L 763.750187 73.968159 
L 765.555552 73.968159 
L 768.216427 61.740852 
L 771.322951 61.740852 
L 771.337339 64.519786 
L 786.957039 64.519786 
L 786.958658 65.075572 
L 787.228817 65.631359 
L 788.724889 65.631359 
L 789.050296 66.187146 
L 793.957509 66.187146 
L 795.091918 66.742932 
L 795.278559 66.187146 
L 803.034726 66.187146 
L 803.034726 66.187146 
" clip-path="url(#pf959624a11)" style="fill: none; stroke: #9467bd; stroke-width: 2; stroke-linecap: square"/>
   </g>
   <g id="patch_3">
    <path d="M 48.90125 455.237812 
L 48.90125 38.397812 
" style="fill: none; stroke: #30363d; stroke-width: 0.8; stroke-linejoin: miter; stroke-linecap: square"/>
   </g>
   <g id="patch_4">
    <path d="M 838.945844 455.237812 
L 838.945844 38.397812 
" style="fill: none; stroke: #30363d; stroke-width: 0.8; stroke-linejoin: miter; stroke-linecap: square"/>
   </g>
   <g id="patch_5">
    <path d="M 48.90125 455.237812 
L 838.945844 455.237812 
" style="fill: none; stroke: #30363d; stroke-width: 0.8; stroke-linejoin: miter; stroke-linecap: square"/>
   </g>
   <g id="patch_6">
    <path d="M 48.90125 38.397812 
L 838.945844 38.397812 
" style="fill: none; stroke: #30363d; stroke-width: 0.8; stroke-linejoin: miter; stroke-linecap: square"/>
   </g>
   <g id="text_20">
    <!-- 512 -->
    <g style="fill: #3fb950" transform="translate(808.034726 173.158477) scale(0.09 -0.09)">
     <defs>
      <path id="DejaVuSans-Bold-35" d="M 678 4666 
L 3669 4666 
L 3669 3781 
L 1638 3781 
L 1638 3059 
Q 1775 3097 1914 3117 
Q 2053 3138 2203 3138 
Q 3056 3138 3531 2711 
Q 4006 2284 4006 1522 
Q 4006 766 3489 337 
Q 2972 -91 2053 -91 
Q 1656 -91 1267 -14 
Q 878 63 494 219 
L 494 1166 
Q 875 947 1217 837 
Q 1559 728 1863 728 
Q 2300 728 2551 942 
Q 2803 1156 2803 1522 
Q 2803 1891 2551 2103 
Q 2300 2316 1863 2316 
Q 1603 2316 1309 2248 
Q 1016 2181 678 2041 
L 678 4666 
z
" transform="scale(0.015625)"/>
      <path id="DejaVuSans-Bold-31" d="M 750 831 
L 1813 831 
L 1813 3847 
L 722 3622 
L 722 4441 
L 1806 4666 
L 2950 4666 
L 2950 831 
L 4013 831 
L 4013 0 
L 750 0 
L 750 831 
z
" transform="scale(0.015625)"/>
      <path id="DejaVuSans-Bold-32" d="M 1844 884 
L 3897 884 
L 3897 0 
L 506 0 
L 506 884 
L 2209 2388 
Q 2438 2594 2547 2791 
Q 2656 2988 2656 3200 
Q 2656 3528 2436 3728 
Q 2216 3928 1850 3928 
Q 1569 3928 1234 3808 
Q 900 3688 519 3450 
L 519 4475 
Q 925 4609 1322 4679 
Q 1719 4750 2100 4750 
Q 2938 4750 3402 4381 
Q 3866 4013 3866 3353 
Q 3866 2972 3669 2642 
Q 3472 2313 2841 1759 
L 1844 884 
z
" transform="scale(0.015625)"/>
     </defs>
     <use xlink:href="#DejaVuSans-Bold-35"/>
     <use xlink:href="#DejaVuSans-Bold-31" transform="translate(69.580078 0)"/>
     <use xlink:href="#DejaVuSans-Bold-32" transform="translate(139.160156 0)"/>
    </g>
   </g>
   <g id="text_21">
    <!-- 404 -->
    <g style="fill: #58a6ff" transform="translate(808.034726 233.183437) scale(0.09 -0.09)">
     <defs>
      <path id="DejaVuSans-Bold-34" d="M 2356 3675 
L 1038 1722 
L 2356 1722 
L 2356 3675 
z
M 2156 4666 
L 3494 4666 
L 3494 1722 
L 4159 1722 
L 4159 850 
L 3494 850 
L 3494 0 
L 2356 0 
L 2356 850 
L 288 850 
L 288 1881 
L 2156 4666 
z
" transform="scale(0.015625)"/>
      <path id="DejaVuSans-Bold-30" d="M 2944 2338 
Q 2944 3213 2780 3570 
Q 2616 3928 2228 3928 
Q 1841 3928 1675 3570 
Q 1509 3213 1509 2338 
Q 1509 1453 1675 1090 
Q 1841 728 2228 728 
Q 2613 728 2778 1090 
Q 2944 1453 2944 2338 
z
M 4147 2328 
Q 4147 1169 3647 539 
Q 3147 -91 2228 -91 
Q 1306 -91 806 539 
Q 306 1169 306 2328 
Q 306 3491 806 4120 
Q 1306 4750 2228 4750 
Q 3147 4750 3647 4120 
Q 4147 3491 4147 2328 
z
" transform="scale(0.015625)"/>
     </defs>
     <use xlink:href="#DejaVuSans-Bold-34"/>
     <use xlink:href="#DejaVuSans-Bold-30" transform="translate(69.580078 0)"/>
     <use xlink:href="#DejaVuSans-Bold-34" transform="translate(139.160156 0)"/>
    </g>
   </g>
   <g id="text_22">
    <!-- 148 -->
    <g style="fill: #d29922" transform="translate(808.034726 375.464823) scale(0.09 -0.09)">
     <defs>
      <path id="DejaVuSans-Bold-38" d="M 2228 2088 
Q 1891 2088 1709 1903 
Q 1528 1719 1528 1375 
Q 1528 1031 1709 848 
Q 1891 666 2228 666 
Q 2563 666 2741 848 
Q 2919 1031 2919 1375 
Q 2919 1722 2741 1905 
Q 2563 2088 2228 2088 
z
M 1350 2484 
Q 925 2613 709 2878 
Q 494 3144 494 3541 
Q 494 4131 934 4440 
Q 1375 4750 2228 4750 
Q 3075 4750 3515 4442 
Q 3956 4134 3956 3541 
Q 3956 3144 3739 2878 
Q 3522 2613 3097 2484 
Q 3572 2353 3814 2058 
Q 4056 1763 4056 1313 
Q 4056 619 3595 264 
Q 3134 -91 2228 -91 
Q 1319 -91 855 264 
Q 391 619 391 1313 
Q 391 1763 633 2058 
Q 875 2353 1350 2484 
z
M 1631 3419 
Q 1631 3141 1786 2991 
Q 1941 2841 2228 2841 
Q 2509 2841 2662 2991 
Q 2816 3141 2816 3419 
Q 2816 3697 2662 3845 
Q 2509 3994 2228 3994 
Q 1941 3994 1786 3844 
Q 1631 3694 1631 3419 
z
" transform="scale(0.015625)"/>
     </defs>
     <use xlink:href="#DejaVuSans-Bold-31"/>
     <use xlink:href="#DejaVuSans-Bold-34" transform="translate(69.580078 0)"/>
     <use xlink:href="#DejaVuSans-Bold-38" transform="translate(139.160156 0)"/>
    </g>
   </g>
   <g id="text_23">
    <!-- 296 -->
    <g style="fill: #f85149" transform="translate(808.034726 293.208397) scale(0.09 -0.09)">
     <defs>
      <path id="DejaVuSans-Bold-39" d="M 641 103 
L 641 966 
Q 928 831 1190 764 
Q 1453 697 1709 697 
Q 2247 697 2547 995 
Q 2847 1294 2900 1881 
Q 2688 1725 2447 1647 
Q 2206 1569 1925 1569 
Q 1209 1569 770 1986 
Q 331 2403 331 3084 
Q 331 3838 820 4291 
Q 1309 4744 2131 4744 
Q 3044 4744 3544 4128 
Q 4044 3513 4044 2388 
Q 4044 1231 3459 570 
Q 2875 -91 1856 -91 
Q 1528 -91 1228 -42 
Q 928 6 641 103 
z
M 2125 2350 
Q 2441 2350 2600 2554 
Q 2759 2759 2759 3169 
Q 2759 3575 2600 3781 
Q 2441 3988 2125 3988 
Q 1809 3988 1650 3781 
Q 1491 3575 1491 3169 
Q 1491 2759 1650 2554 
Q 1809 2350 2125 2350 
z
" transform="scale(0.015625)"/>
      <path id="DejaVuSans-Bold-36" d="M 2316 2303 
Q 2000 2303 1842 2098 
Q 1684 1894 1684 1484 
Q 1684 1075 1842 870 
Q 2000 666 2316 666 
Q 2634 666 2792 870 
Q 2950 1075 2950 1484 
Q 2950 1894 2792 2098 
Q 2634 2303 2316 2303 
z
M 3803 4544 
L 3803 3681 
Q 3506 3822 3243 3889 
Q 2981 3956 2731 3956 
Q 2194 3956 1894 3657 
Q 1594 3359 1544 2772 
Q 1750 2925 1990 3001 
Q 2231 3078 2516 3078 
Q 3231 3078 3670 2659 
Q 4109 2241 4109 1563 
Q 4109 813 3618 361 
Q 3128 -91 2303 -91 
Q 1394 -91 895 523 
Q 397 1138 397 2266 
Q 397 3422 980 4083 
Q 1563 4744 2578 4744 
Q 2900 4744 3203 4694 
Q 3506 4644 3803 4544 
z
" transform="scale(0.015625)"/>
     </defs>
     <use xlink:href="#DejaVuSans-Bold-32"/>
     <use xlink:href="#DejaVuSans-Bold-39" transform="translate(69.580078 0)"/>
     <use xlink:href="#DejaVuSans-Bold-36" transform="translate(139.160156 0)"/>
    </g>
   </g>
   <g id="text_24">
    <!-- 700 -->
    <g style="fill: #9467bd" transform="translate(808.034726 68.670583) scale(0.09 -0.09)">
     <defs>
      <path id="DejaVuSans-Bold-37" d="M 428 4666 
L 3944 4666 
L 3944 3988 
L 2125 0 
L 953 0 
L 2675 3781 
L 428 3781 
L 428 4666 
z
" transform="scale(0.015625)"/>
     </defs>
     <use xlink:href="#DejaVuSans-Bold-37"/>
     <use xlink:href="#DejaVuSans-Bold-30" transform="translate(69.580078 0)"/>
     <use xlink:href="#DejaVuSans-Bold-30" transform="translate(139.160156 0)"/>
    </g>
   </g>
   <g id="text_25">
    <!-- Erdős Problems Progress -->
    <g style="fill: #c9d1d9" transform="translate(344.885578 18.397812) scale(0.14 -0.14)">
     <defs>
      <path id="DejaVuSans-Bold-45" d="M 588 4666 
L 3834 4666 
L 3834 3756 
L 1791 3756 
L 1791 2888 
L 3713 2888 
L 3713 1978 
L 1791 1978 
L 1791 909 
L 3903 909 
L 3903 0 
L 588 0 
L 588 4666 
z
" transform="scale(0.015625)"/>
      <path id="DejaVuSans-Bold-72" d="M 3138 2547 
Q 2991 2616 2845 2648 
Q 2700 2681 2553 2681 
Q 2122 2681 1889 2404 
Q 1656 2128 1656 1613 
L 1656 0 
L 538 0 
L 538 3500 
L 1656 3500 
L 1656 2925 
Q 1872 3269 2151 3426 
Q 2431 3584 2822 3584 
Q 2878 3584 2943 3579 
Q 3009 3575 3134 3559 
L 3138 2547 
z
" transform="scale(0.015625)"/>
      <path id="DejaVuSans-Bold-64" d="M 2919 2988 
L 2919 4863 
L 4044 4863 
L 4044 0 
L 2919 0 
L 2919 506 
Q 2688 197 2409 53 
Q 2131 -91 1766 -91 
Q 1119 -91 703 423 
Q 288 938 288 1747 
Q 288 2556 703 3070 
Q 1119 3584 1766 3584 
Q 2128 3584 2408 3439 
Q 2688 3294 2919 2988 
z
M 2181 722 
Q 2541 722 2730 984 
Q 2919 1247 2919 1747 
Q 2919 2247 2730 2509 
Q 2541 2772 2181 2772 
Q 1825 2772 1636 2509 
Q 1447 2247 1447 1747 
Q 1447 1247 1636 984 
Q 1825 722 2181 722 
z
" transform="scale(0.015625)"/>
      <path id="DejaVuSans-Bold-151" d="M 1881 5119 
L 2560 5119 
L 1785 3944 
L 1275 3944 
L 1881 5119 
z
M 3016 5119 
L 3738 5119 
L 2888 3944 
L 2344 3944 
L 3016 5119 
z
M 2203 2784 
Q 1831 2784 1636 2517 
Q 1441 2250 1441 1747 
Q 1441 1244 1636 976 
Q 1831 709 2203 709 
Q 2569 709 2762 976 
Q 2956 1244 2956 1747 
Q 2956 2250 2762 2517 
Q 2569 2784 2203 2784 
z
M 2203 3584 
Q 3106 3584 3614 3096 
Q 4122 2609 4122 1747 
Q 4122 884 3614 396 
Q 3106 -91 2203 -91 
Q 1297 -91 786 396 
Q 275 884 275 1747 
Q 275 2609 786 3096 
Q 1297 3584 2203 3584 
z
" transform="scale(0.015625)"/>
      <path id="DejaVuSans-Bold-73" d="M 3272 3391 
L 3272 2541 
Q 2913 2691 2578 2766 
Q 2244 2841 1947 2841 
Q 1628 2841 1473 2761 
Q 1319 2681 1319 2516 
Q 1319 2381 1436 2309 
Q 1553 2238 1856 2203 
L 2053 2175 
Q 2913 2066 3209 1816 
Q 3506 1566 3506 1031 
Q 3506 472 3093 190 
Q 2681 -91 1863 -91 
Q 1516 -91 1145 -36 
Q 775 19 384 128 
L 384 978 
Q 719 816 1070 734 
Q 1422 653 1784 653 
Q 2113 653 2278 743 
Q 2444 834 2444 1013 
Q 2444 1163 2330 1236 
Q 2216 1309 1875 1350 
L 1678 1375 
Q 931 1469 631 1722 
Q 331 1975 331 2491 
Q 331 3047 712 3315 
Q 1094 3584 1881 3584 
Q 2191 3584 2531 3537 
Q 2872 3491 3272 3391 
z
" transform="scale(0.015625)"/>
      <path id="DejaVuSans-Bold-20" transform="scale(0.015625)"/>
      <path id="DejaVuSans-Bold-50" d="M 588 4666 
L 2584 4666 
Q 3475 4666 3951 4270 
Q 4428 3875 4428 3144 
Q 4428 2409 3951 2014 
Q 3475 1619 2584 1619 
L 1791 1619 
L 1791 0 
L 588 0 
L 588 4666 
z
M 1791 3794 
L 1791 2491 
L 2456 2491 
Q 2806 2491 2997 2661 
Q 3188 2831 3188 3144 
Q 3188 3456 2997 3625 
Q 2806 3794 2456 3794 
L 1791 3794 
z
" transform="scale(0.015625)"/>
      <path id="DejaVuSans-Bold-6f" d="M 2203 2784 
Q 1831 2784 1636 2517 
Q 1441 2250 1441 1747 
Q 1441 1244 1636 976 
Q 1831 709 2203 709 
Q 2569 709 2762 976 
Q 2956 1244 2956 1747 
Q 2956 2250 2762 2517 
Q 2569 2784 2203 2784 
z
M 2203 3584 
Q 3106 3584 3614 3096 
Q 4122 2609 4122 1747 
Q 4122 884 3614 396 
Q 3106 -91 2203 -91 
Q 1297 -91 786 396 
Q 275 884 275 1747 
Q 275 2609 786 3096 
Q 1297 3584 2203 3584 
z
" transform="scale(0.015625)"/>
      <path id="DejaVuSans-Bold-62" d="M 2400 722 
Q 2759 722 2948 984 
Q 3138 1247 3138 1747 
Q 3138 2247 2948 2509 
Q 2759 2772 2400 2772 
Q 2041 2772 1848 2508 
Q 1656 2244 1656 1747 
Q 1656 1250 1848 986 
Q 2041 722 2400 722 
z
M 1656 2988 
Q 1888 3294 2169 3439 
Q 2450 3584 2816 3584 
Q 3463 3584 3878 3070 
Q 4294 2556 4294 1747 
Q 4294 938 3878 423 
Q 3463 -91 2816 -91 
Q 2450 -91 2169 54 
Q 1888 200 1656 506 
L 1656 0 
L 538 0 
L 538 4863 
L 1656 4863 
L 1656 2988 
z
" transform="scale(0.015625)"/>
      <path id="DejaVuSans-Bold-6c" d="M 538 4863 
L 1656 4863 
L 1656 0 
L 538 0 
L 538 4863 
z
" transform="scale(0.015625)"/>
      <path id="DejaVuSans-Bold-65" d="M 4031 1759 
L 4031 1441 
L 1416 1441 
Q 1456 1047 1700 850 
Q 1944 653 2381 653 
Q 2734 653 3104 758 
Q 3475 863 3866 1075 
L 3866 213 
Q 3469 63 3072 -14 
Q 2675 -91 2278 -91 
Q 1328 -91 801 392 
Q 275 875 275 1747 
Q 275 2603 792 3093 
Q 1309 3584 2216 3584 
Q 3041 3584 3536 3087 
Q 4031 2591 4031 1759 
z
M 2881 2131 
Q 2881 2450 2695 2645 
Q 2509 2841 2209 2841 
Q 1884 2841 1681 2658 
Q 1478 2475 1428 2131 
L 2881 2131 
z
" transform="scale(0.015625)"/>
      <path id="DejaVuSans-Bold-6d" d="M 3781 2919 
Q 3994 3244 4286 3414 
Q 4578 3584 4928 3584 
Q 5531 3584 5847 3212 
Q 6163 2841 6163 2131 
L 6163 0 
L 5038 0 
L 5038 1825 
Q 5041 1866 5042 1909 
Q 5044 1953 5044 2034 
Q 5044 2406 4934 2573 
Q 4825 2741 4581 2741 
Q 4263 2741 4089 2478 
Q 3916 2216 3909 1719 
L 3909 0 
L 2784 0 
L 2784 1825 
Q 2784 2406 2684 2573 
Q 2584 2741 2328 2741 
Q 2006 2741 1831 2477 
Q 1656 2213 1656 1722 
L 1656 0 
L 531 0 
L 531 3500 
L 1656 3500 
L 1656 2988 
Q 1863 3284 2130 3434 
Q 2397 3584 2719 3584 
Q 3081 3584 3359 3409 
Q 3638 3234 3781 2919 
z
" transform="scale(0.015625)"/>
      <path id="DejaVuSans-Bold-67" d="M 2919 594 
Q 2688 288 2409 144 
Q 2131 0 1766 0 
Q 1125 0 706 504 
Q 288 1009 288 1791 
Q 288 2575 706 3076 
Q 1125 3578 1766 3578 
Q 2131 3578 2409 3434 
Q 2688 3291 2919 2981 
L 2919 3500 
L 4044 3500 
L 4044 353 
Q 4044 -491 3511 -936 
Q 2978 -1381 1966 -1381 
Q 1638 -1381 1331 -1331 
Q 1025 -1281 716 -1178 
L 716 -306 
Q 1009 -475 1290 -558 
Q 1572 -641 1856 -641 
Q 2406 -641 2662 -400 
Q 2919 -159 2919 353 
L 2919 594 
z
M 2181 2772 
Q 1834 2772 1640 2515 
Q 1447 2259 1447 1791 
Q 1447 1309 1634 1061 
Q 1822 813 2181 813 
Q 2531 813 2725 1069 
Q 2919 1325 2919 1791 
Q 2919 2259 2725 2515 
Q 2531 2772 2181 2772 
z
" transform="scale(0.015625)"/>
     </defs>
     <use xlink:href="#DejaVuSans-Bold-45"/>
     <use xlink:href="#DejaVuSans-Bold-72" transform="translate(68.310547 0)"/>
     <use xlink:href="#DejaVuSans-Bold-64" transform="translate(117.626953 0)"/>
     <use xlink:href="#DejaVuSans-Bold-151" transform="translate(189.208984 0)"/>
     <use xlink:href="#DejaVuSans-Bold-73" transform="translate(257.910156 0)"/>
     <use xlink:href="#DejaVuSans-Bold-20" transform="translate(317.431641 0)"/>
     <use xlink:href="#DejaVuSans-Bold-50" transform="translate(352.246094 0)"/>
     <use xlink:href="#DejaVuSans-Bold-72" transform="translate(425.537109 0)"/>
     <use xlink:href="#DejaVuSans-Bold-6f" transform="translate(474.853516 0)"/>
     <use xlink:href="#DejaVuSans-Bold-62" transform="translate(543.554688 0)"/>
     <use xlink:href="#DejaVuSans-Bold-6c" transform="translate(615.136719 0)"/>
     <use xlink:href="#DejaVuSans-Bold-65" transform="translate(649.414062 0)"/>
     <use xlink:href="#DejaVuSans-Bold-6d" transform="translate(717.236328 0)"/>
     <use xlink:href="#DejaVuSans-Bold-73" transform="translate(821.435547 0)"/>
     <use xlink:href="#DejaVuSans-Bold-20" transform="translate(880.957031 0)"/>
     <use xlink:href="#DejaVuSans-Bold-50" transform="translate(915.771484 0)"/>
     <use xlink:href="#DejaVuSans-Bold-72" transform="translate(989.0625 0)"/>
     <use xlink:href="#DejaVuSans-Bold-6f" transform="translate(1038.378906 0)"/>
     <use xlink:href="#DejaVuSans-Bold-67" transform="translate(1107.080078 0)"/>
     <use xlink:href="#DejaVuSans-Bold-72" transform="translate(1178.662109 0)"/>
     <use xlink:href="#DejaVuSans-Bold-65" transform="translate(1227.978516 0)"/>
     <use xlink:href="#DejaVuSans-Bold-73" transform="translate(1295.800781 0)"/>
     <use xlink:href="#DejaVuSans-Bold-73" transform="translate(1355.322266 0)"/>
    </g>
   </g>
   <g id="legend_1">
    <g id="patch_7">
     <path d="M 55.90125 119.788437 
L 213.771563 119.788437 
Q 215.771563 119.788437 215.771563 117.788437 
L 215.771563 45.397812 
Q 215.771563 43.397812 213.771563 43.397812 
L 55.90125 43.397812 
Q 53.90125 43.397812 53.90125 45.397812 
L 53.90125 117.788437 
Q 53.90125 119.788437 55.90125 119.788437 
z
" style="fill: #161b22; opacity: 0.8; stroke: #30363d; stroke-linejoin: miter"/>
    </g>
    <g id="line2d_40">
     <path d="M 57.90125 51.49625 
L 67.90125 51.49625 
L 77.90125 51.49625 
" style="fill: none; stroke: #3fb950; stroke-width: 2; stroke-linecap: square"/>
    </g>
    <g id="text_26">
     <!-- Solved -->
     <g style="fill: #c9d1d9" transform="translate(85.90125 54.99625) scale(0.1 -0.1)">
      <defs>
       <path id="DejaVuSans-6c" d="M 603 4863 
L 1178 4863 
L 1178 0 
L 603 0 
L 603 4863 
z
" transform="scale(0.015625)"/>
       <path id="DejaVuSans-64" d="M 2906 2969 
L 2906 4863 
L 3481 4863 
L 3481 0 
L 2906 0 
L 2906 525 
Q 2725 213 2448 61 
Q 2172 -91 1784 -91 
Q 1150 -91 751 415 
Q 353 922 353 1747 
Q 353 2572 751 3078 
Q 1150 3584 1784 3584 
Q 2172 3584 2448 3432 
Q 2725 3281 2906 2969 
z
M 947 1747 
Q 947 1113 1208 752 
Q 1469 391 1925 391 
Q 2381 391 2643 752 
Q 2906 1113 2906 1747 
Q 2906 2381 2643 2742 
Q 2381 3103 1925 3103 
Q 1469 3103 1208 2742 
Q 947 2381 947 1747 
z
" transform="scale(0.015625)"/>
      </defs>
      <use xlink:href="#DejaVuSans-53"/>
      <use xlink:href="#DejaVuSans-6f" transform="translate(63.476562 0)"/>
      <use xlink:href="#DejaVuSans-6c" transform="translate(124.658203 0)"/>
      <use xlink:href="#DejaVuSans-76" transform="translate(152.441406 0)"/>
      <use xlink:href="#DejaVuSans-65" transform="translate(211.621094 0)"/>
      <use xlink:href="#DejaVuSans-64" transform="translate(273.144531 0)"/>
     </g>
    </g>
    <g id="line2d_41">
     <path d="M 57.90125 66.174375 
L 67.90125 66.174375 
L 77.90125 66.174375 
" style="fill: none; stroke: #58a6ff; stroke-width: 2; stroke-linecap: square"/>
    </g>
    <g id="text_27">
     <!-- Lean Formalized Problem -->
     <g style="fill: #c9d1d9" transform="translate(85.90125 69.674375) scale(0.1 -0.1)">
      <defs>
       <path id="DejaVuSans-4c" d="M 628 4666 
L 1259 4666 
L 1259 531 
L 3531 531 
L 3531 0 
L 628 0 
L 628 4666 
z
" transform="scale(0.015625)"/>
       <path id="DejaVuSans-20" transform="scale(0.015625)"/>
       <path id="DejaVuSans-6d" d="M 3328 2828 
Q 3544 3216 3844 3400 
Q 4144 3584 4550 3584 
Q 5097 3584 5394 3201 
Q 5691 2819 5691 2113 
L 5691 0 
L 5113 0 
L 5113 2094 
Q 5113 2597 4934 2840 
Q 4756 3084 4391 3084 
Q 3944 3084 3684 2787 
Q 3425 2491 3425 1978 
L 3425 0 
L 2847 0 
L 2847 2094 
Q 2847 2600 2669 2842 
Q 2491 3084 2119 3084 
Q 1678 3084 1418 2786 
Q 1159 2488 1159 1978 
L 1159 0 
L 581 0 
L 581 3500 
L 1159 3500 
L 1159 2956 
Q 1356 3278 1631 3431 
Q 1906 3584 2284 3584 
Q 2666 3584 2933 3390 
Q 3200 3197 3328 2828 
z
" transform="scale(0.015625)"/>
       <path id="DejaVuSans-69" d="M 603 3500 
L 1178 3500 
L 1178 0 
L 603 0 
L 603 3500 
z
M 603 4863 
L 1178 4863 
L 1178 4134 
L 603 4134 
L 603 4863 
z
" transform="scale(0.015625)"/>
       <path id="DejaVuSans-7a" d="M 353 3500 
L 3084 3500 
L 3084 2975 
L 922 459 
L 3084 459 
L 3084 0 
L 275 0 
L 275 525 
L 2438 3041 
L 353 3041 
L 353 3500 
z
" transform="scale(0.015625)"/>
       <path id="DejaVuSans-50" d="M 1259 4147 
L 1259 2394 
L 2053 2394 
Q 2494 2394 2734 2622 
Q 2975 2850 2975 3272 
Q 2975 3691 2734 3919 
Q 2494 4147 2053 4147 
L 1259 4147 
z
M 628 4666 
L 2053 4666 
Q 2838 4666 3239 4311 
Q 3641 3956 3641 3272 
Q 3641 2581 3239 2228 
Q 2838 1875 2053 1875 
L 1259 1875 
L 1259 0 
L 628 0 
L 628 4666 
z
" transform="scale(0.015625)"/>
      </defs>
      <use xlink:href="#DejaVuSans-4c"/>
      <use xlink:href="#DejaVuSans-65" transform="translate(53.962891 0)"/>
      <use xlink:href="#DejaVuSans-61" transform="translate(115.486328 0)"/>
      <use xlink:href="#DejaVuSans-6e" transform="translate(176.765625 0)"/>
      <use xlink:href="#DejaVuSans-20" transform="translate(240.144531 0)"/>
      <use xlink:href="#DejaVuSans-46" transform="translate(271.931641 0)"/>
      <use xlink:href="#DejaVuSans-6f" transform="translate(325.826172 0)"/>
      <use xlink:href="#DejaVuSans-72" transform="translate(387.007812 0)"/>
      <use xlink:href="#DejaVuSans-6d" transform="translate(426.371094 0)"/>
      <use xlink:href="#DejaVuSans-61" transform="translate(523.783203 0)"/>
      <use xlink:href="#DejaVuSans-6c" transform="translate(585.0625 0)"/>
      <use xlink:href="#DejaVuSans-69" transform="translate(612.845703 0)"/>
      <use xlink:href="#DejaVuSans-7a" transform="translate(640.628906 0)"/>
      <use xlink:href="#DejaVuSans-65" transform="translate(693.119141 0)"/>
      <use xlink:href="#DejaVuSans-64" transform="translate(754.642578 0)"/>
      <use xlink:href="#DejaVuSans-20" transform="translate(818.119141 0)"/>
      <use xlink:href="#DejaVuSans-50" transform="translate(849.90625 0)"/>
      <use xlink:href="#DejaVuSans-72" transform="translate(908.458984 0)"/>
      <use xlink:href="#DejaVuSans-6f" transform="translate(947.322266 0)"/>
      <use xlink:href="#DejaVuSans-62" transform="translate(1008.503906 0)"/>
      <use xlink:href="#DejaVuSans-6c" transform="translate(1071.980469 0)"/>
      <use xlink:href="#DejaVuSans-65" transform="translate(1099.763672 0)"/>
      <use xlink:href="#DejaVuSans-6d" transform="translate(1161.287109 0)"/>
     </g>
    </g>
    <g id="line2d_42">
     <path d="M 57.90125 80.8525 
L 67.90125 80.8525 
L 77.90125 80.8525 
" style="fill: none; stroke: #d29922; stroke-width: 2; stroke-linecap: square"/>
    </g>
    <g id="text_28">
     <!-- Lean Formalized Solution -->
     <g style="fill: #c9d1d9" transform="translate(85.90125 84.3525) scale(0.1 -0.1)">
      <use xlink:href="#DejaVuSans-4c"/>
      <use xlink:href="#DejaVuSans-65" transform="translate(53.962891 0)"/>
      <use xlink:href="#DejaVuSans-61" transform="translate(115.486328 0)"/>
      <use xlink:href="#DejaVuSans-6e" transform="translate(176.765625 0)"/>
      <use xlink:href="#DejaVuSans-20" transform="translate(240.144531 0)"/>
      <use xlink:href="#DejaVuSans-46" transform="translate(271.931641 0)"/>
      <use xlink:href="#DejaVuSans-6f" transform="translate(325.826172 0)"/>
      <use xlink:href="#DejaVuSans-72" transform="translate(387.007812 0)"/>
      <use xlink:href="#DejaVuSans-6d" transform="translate(426.371094 0)"/>
      <use xlink:href="#DejaVuSans-61" transform="translate(523.783203 0)"/>
      <use xlink:href="#DejaVuSans-6c" transform="translate(585.0625 0)"/>
      <use xlink:href="#DejaVuSans-69" transform="translate(612.845703 0)"/>
      <use xlink:href="#DejaVuSans-7a" transform="translate(640.628906 0)"/>
      <use xlink:href="#DejaVuSans-65" transform="translate(693.119141 0)"/>
      <use xlink:href="#DejaVuSans-64" transform="translate(754.642578 0)"/>
      <use xlink:href="#DejaVuSans-20" transform="translate(818.119141 0)"/>
      <use xlink:href="#DejaVuSans-53" transform="translate(849.90625 0)"/>
      <use xlink:href="#DejaVuSans-6f" transform="translate(913.382812 0)"/>
      <use xlink:href="#DejaVuSans-6c" transform="translate(974.564453 0)"/>
      <use xlink:href="#DejaVuSans-75" transform="translate(1002.347656 0)"/>
      <use xlink:href="#DejaVuSans-74" transform="translate(1065.726562 0)"/>
      <use xlink:href="#DejaVuSans-69" transform="translate(1104.935547 0)"/>
      <use xlink:href="#DejaVuSans-6f" transform="translate(1132.71875 0)"/>
      <use xlink:href="#DejaVuSans-6e" transform="translate(1193.900391 0)"/>
     </g>
    </g>
    <g id="line2d_43">
     <path d="M 57.90125 95.530625 
L 67.90125 95.530625 
L 77.90125 95.530625 
" style="fill: none; stroke: #f85149; stroke-width: 2; stroke-linecap: square"/>
    </g>
    <g id="text_29">
     <!-- OEIS Linked -->
     <g style="fill: #c9d1d9" transform="translate(85.90125 99.030625) scale(0.1 -0.1)">
      <defs>
       <path id="DejaVuSans-45" d="M 628 4666 
L 3578 4666 
L 3578 4134 
L 1259 4134 
L 1259 2753 
L 3481 2753 
L 3481 2222 
L 1259 2222 
L 1259 531 
L 3634 531 
L 3634 0 
L 628 0 
L 628 4666 
z
" transform="scale(0.015625)"/>
       <path id="DejaVuSans-49" d="M 628 4666 
L 1259 4666 
L 1259 0 
L 628 0 
L 628 4666 
z
" transform="scale(0.015625)"/>
       <path id="DejaVuSans-6b" d="M 581 4863 
L 1159 4863 
L 1159 1991 
L 2875 3500 
L 3609 3500 
L 1753 1863 
L 3688 0 
L 2938 0 
L 1159 1709 
L 1159 0 
L 581 0 
L 581 4863 
z
" transform="scale(0.015625)"/>
      </defs>
      <use xlink:href="#DejaVuSans-4f"/>
      <use xlink:href="#DejaVuSans-45" transform="translate(78.710938 0)"/>
      <use xlink:href="#DejaVuSans-49" transform="translate(141.894531 0)"/>
      <use xlink:href="#DejaVuSans-53" transform="translate(171.386719 0)"/>
      <use xlink:href="#DejaVuSans-20" transform="translate(234.863281 0)"/>
      <use xlink:href="#DejaVuSans-4c" transform="translate(266.650391 0)"/>
      <use xlink:href="#DejaVuSans-69" transform="translate(322.363281 0)"/>
      <use xlink:href="#DejaVuSans-6e" transform="translate(350.146484 0)"/>
      <use xlink:href="#DejaVuSans-6b" transform="translate(413.525391 0)"/>
      <use xlink:href="#DejaVuSans-65" transform="translate(467.810547 0)"/>
      <use xlink:href="#DejaVuSans-64" transform="translate(529.333984 0)"/>
     </g>
    </g>
    <g id="line2d_44">
     <path d="M 57.90125 110.20875 
L 67.90125 110.20875 
L 77.90125 110.20875 
" style="fill: none; stroke: #9467bd; stroke-width: 2; stroke-linecap: square"/>
    </g>
    <g id="text_30">
     <!-- Open Problems -->
     <g style="fill: #c9d1d9" transform="translate(85.90125 113.70875) scale(0.1 -0.1)">
      <defs>
       <path id="DejaVuSans-73" d="M 2834 3397 
L 2834 2853 
Q 2591 2978 2328 3040 
Q 2066 3103 1784 3103 
Q 1356 3103 1142 2972 
Q 928 2841 928 2578 
Q 928 2378 1081 2264 
Q 1234 2150 1697 2047 
L 1894 2003 
Q 2506 1872 2764 1633 
Q 3022 1394 3022 966 
Q 3022 478 2636 193 
Q 2250 -91 1575 -91 
Q 1294 -91 989 -36 
Q 684 19 347 128 
L 347 722 
Q 666 556 975 473 
Q 1284 391 1588 391 
Q 1994 391 2212 530 
Q 2431 669 2431 922 
Q 2431 1156 2273 1281 
Q 2116 1406 1581 1522 
L 1381 1569 
Q 847 1681 609 1914 
Q 372 2147 372 2553 
Q 372 3047 722 3315 
Q 1072 3584 1716 3584 
Q 2034 3584 2315 3537 
Q 2597 3491 2834 3397 
z
" transform="scale(0.015625)"/>
      </defs>
      <use xlink:href="#DejaVuSans-4f"/>
      <use xlink:href="#DejaVuSans-70" transform="translate(78.710938 0)"/>
      <use xlink:href="#DejaVuSans-65" transform="translate(142.1875 0)"/>
      <use xlink:href="#DejaVuSans-6e" transform="translate(203.710938 0)"/>
      <use xlink:href="#DejaVuSans-20" transform="translate(267.089844 0)"/>
      <use xlink:href="#DejaVuSans-50" transform="translate(298.876953 0)"/>
      <use xlink:href="#DejaVuSans-72" transform="translate(357.429688 0)"/>
      <use xlink:href="#DejaVuSans-6f" transform="translate(396.292969 0)"/>
      <use xlink:href="#DejaVuSans-62" transform="translate(457.474609 0)"/>
      <use xlink:href="#DejaVuSans-6c" transform="translate(520.951172 0)"/>
      <use xlink:href="#DejaVuSans-65" transform="translate(548.734375 0)"/>
      <use xlink:href="#DejaVuSans-6d" transform="translate(610.257812 0)"/>
      <use xlink:href="#DejaVuSans-73" transform="translate(707.669922 0)"/>
     </g>
    </g>
   </g>
  </g>
 </g>
 <defs>
  <clipPath id="pf959624a11">
   <rect x="48.90125" y="38.397812" width="790.044594" height="416.84"/>
  </clipPath>
 </defs>
</svg>
