<?xml version="1.0" encoding="utf-8" standalone="no"?>
<!DOCTYPE svg PUBLIC "-//W3C//DTD SVG 1.1//EN"
  "http://www.w3.org/Graphics/SVG/1.1/DTD/svg11.dtd">
<svg xmlns:xlink="http://www.w3.org/1999/xlink" width="855.55125pt" height="494.729687pt" viewBox="0 0 855.55125 494.729687" xmlns="http://www.w3.org/2000/svg" version="1.1">
 <metadata>
  <rdf:RDF xmlns:dc="http://purl.org/dc/elements/1.1/" xmlns:cc="http://creativecommons.org/ns#" xmlns:rdf="http://www.w3.org/1999/02/22-rdf-syntax-ns#">
   <cc:Work>
    <dc:type rdf:resource="http://purl.org/dc/dcmitype/StillImage"/>
    <dc:date>2026-06-26T21:23:39.369864</dc:date>
    <dc:format>image/svg+xml</dc:format>
    <dc:creator>
     <cc:Agent>
      <dc:title>Matplotlib v3.10.7, https://matplotlib.org/</dc:title>
     </cc:Agent>
    </dc:creator>
   </cc:Work>
  </rdf:RDF>
 </metadata>
 <defs>
  <style type="text/css">*{stroke-linejoin: round; stroke-linecap: butt}</style>
 </defs>
 <g id="figure_1">
  <g id="patch_1">
   <path d="M 0 494.729687 
L 855.55125 494.729687 
L 855.55125 0 
L 0 0 
z
" style="fill: #0d1117"/>
  </g>
  <g id="axes_1">
   <g id="patch_2">
    <path d="M 48.90125 455.237812 
L 848.35125 455.237812 
L 848.35125 38.397812 
L 48.90125 38.397812 
z
" style="fill: #0d1117"/>
   </g>
   <g id="matplotlib.axis_1">
    <g id="xtick_1">
     <g id="line2d_1">
      <path d="M 85.950029 455.237812 
L 85.950029 38.397812 
" clip-path="url(#p76c8e2a07b)" style="fill: none; stroke: #30363d; stroke-opacity: 0.25; stroke-width: 0.5; stroke-linecap: square"/>
     </g>
     <g id="line2d_2">
      <defs>
       <path id="ma5a2114ffc" d="M 0 0 
L 0 3.5 
" style="stroke: #c9d1d9; stroke-width: 0.8"/>
      </defs>
      <g>
       <use xlink:href="#ma5a2114ffc" x="85.950029" y="455.237812" style="fill: #c9d1d9; stroke: #c9d1d9; stroke-width: 0.8"/>
      </g>
     </g>
     <g id="text_1">
      <!-- Sep -->
      <g style="fill: #c9d1d9" transform="translate(76.525029 469.83625) scale(0.1 -0.1)">
       <defs>
        <path id="DejaVuSans-53" d="M 3425 4513 
L 3425 3897 
Q 3066 4069 2747 4153 
Q 2428 4238 2131 4238 
Q 1616 4238 1336 4038 
Q 1056 3838 1056 3469 
Q 1056 3159 1242 3001 
Q 1428 2844 1947 2747 
L 2328 2669 
Q 3034 2534 3370 2195 
Q 3706 1856 3706 1288 
Q 3706 609 3251 259 
Q 2797 -91 1919 -91 
Q 1588 -91 1214 -16 
Q 841 59 441 206 
L 441 856 
Q 825 641 1194 531 
Q 1563 422 1919 422 
Q 2459 422 2753 634 
Q 3047 847 3047 1241 
Q 3047 1584 2836 1778 
Q 2625 1972 2144 2069 
L 1759 2144 
Q 1053 2284 737 2584 
Q 422 2884 422 3419 
Q 422 4038 858 4394 
Q 1294 4750 2059 4750 
Q 2388 4750 2728 4690 
Q 3069 4631 3425 4513 
z
" transform="scale(0.015625)"/>
        <path id="DejaVuSans-65" d="M 3597 1894 
L 3597 1613 
L 953 1613 
Q 991 1019 1311 708 
Q 1631 397 2203 397 
Q 2534 397 2845 478 
Q 3156 559 3463 722 
L 3463 178 
Q 3153 47 2828 -22 
Q 2503 -91 2169 -91 
Q 1331 -91 842 396 
Q 353 884 353 1716 
Q 353 2575 817 3079 
Q 1281 3584 2069 3584 
Q 2775 3584 3186 3129 
Q 3597 2675 3597 1894 
z
M 3022 2063 
Q 3016 2534 2758 2815 
Q 2500 3097 2075 3097 
Q 1594 3097 1305 2825 
Q 1016 2553 972 2059 
L 3022 2063 
z
" transform="scale(0.015625)"/>
        <path id="DejaVuSans-70" d="M 1159 525 
L 1159 -1331 
L 581 -1331 
L 581 3500 
L 1159 3500 
L 1159 2969 
Q 1341 3281 1617 3432 
Q 1894 3584 2278 3584 
Q 2916 3584 3314 3078 
Q 3713 2572 3713 1747 
Q 3713 922 3314 415 
Q 2916 -91 2278 -91 
Q 1894 -91 1617 61 
Q 1341 213 1159 525 
z
M 3116 1747 
Q 3116 2381 2855 2742 
Q 2594 3103 2138 3103 
Q 1681 3103 1420 2742 
Q 1159 2381 1159 1747 
Q 1159 1113 1420 752 
Q 1681 391 2138 391 
Q 2594 391 2855 752 
Q 3116 1113 3116 1747 
z
" transform="scale(0.015625)"/>
       </defs>
       <use xlink:href="#DejaVuSans-53"/>
       <use xlink:href="#DejaVuSans-65" transform="translate(63.476562 0)"/>
       <use xlink:href="#DejaVuSans-70" transform="translate(125 0)"/>
      </g>
     </g>
    </g>
    <g id="xtick_2">
     <g id="line2d_3">
      <path d="M 234.130319 455.237812 
L 234.130319 38.397812 
" clip-path="url(#p76c8e2a07b)" style="fill: none; stroke: #30363d; stroke-opacity: 0.25; stroke-width: 0.5; stroke-linecap: square"/>
     </g>
     <g id="line2d_4">
      <g>
       <use xlink:href="#ma5a2114ffc" x="234.130319" y="455.237812" style="fill: #c9d1d9; stroke: #c9d1d9; stroke-width: 0.8"/>
      </g>
     </g>
     <g id="text_2">
      <!-- Nov -->
      <g style="fill: #c9d1d9" transform="translate(224.370944 469.83625) scale(0.1 -0.1)">
       <defs>
        <path id="DejaVuSans-4e" d="M 628 4666 
L 1478 4666 
L 3547 763 
L 3547 4666 
L 4159 4666 
L 4159 0 
L 3309 0 
L 1241 3903 
L 1241 0 
L 628 0 
L 628 4666 
z
" transform="scale(0.015625)"/>
        <path id="DejaVuSans-6f" d="M 1959 3097 
Q 1497 3097 1228 2736 
Q 959 2375 959 1747 
Q 959 1119 1226 758 
Q 1494 397 1959 397 
Q 2419 397 2687 759 
Q 2956 1122 2956 1747 
Q 2956 2369 2687 2733 
Q 2419 3097 1959 3097 
z
M 1959 3584 
Q 2709 3584 3137 3096 
Q 3566 2609 3566 1747 
Q 3566 888 3137 398 
Q 2709 -91 1959 -91 
Q 1206 -91 779 398 
Q 353 888 353 1747 
Q 353 2609 779 3096 
Q 1206 3584 1959 3584 
z
" transform="scale(0.015625)"/>
        <path id="DejaVuSans-76" d="M 191 3500 
L 800 3500 
L 1894 563 
L 2988 3500 
L 3597 3500 
L 2284 0 
L 1503 0 
L 191 3500 
z
" transform="scale(0.015625)"/>
       </defs>
       <use xlink:href="#DejaVuSans-4e"/>
       <use xlink:href="#DejaVuSans-6f" transform="translate(74.804688 0)"/>
       <use xlink:href="#DejaVuSans-76" transform="translate(135.986328 0)"/>
      </g>
     </g>
    </g>
    <g id="xtick_3">
     <g id="line2d_5">
      <path d="M 382.310608 455.237812 
L 382.310608 38.397812 
" clip-path="url(#p76c8e2a07b)" style="fill: none; stroke: #30363d; stroke-opacity: 0.25; stroke-width: 0.5; stroke-linecap: square"/>
     </g>
     <g id="line2d_6">
      <g>
       <use xlink:href="#ma5a2114ffc" x="382.310608" y="455.237812" style="fill: #c9d1d9; stroke: #c9d1d9; stroke-width: 0.8"/>
      </g>
     </g>
     <g id="text_3">
      <!-- 2026 -->
      <g style="fill: #c9d1d9" transform="translate(369.585608 469.83625) scale(0.1 -0.1)">
       <defs>
        <path id="DejaVuSans-32" d="M 1228 531 
L 3431 531 
L 3431 0 
L 469 0 
L 469 531 
Q 828 903 1448 1529 
Q 2069 2156 2228 2338 
Q 2531 2678 2651 2914 
Q 2772 3150 2772 3378 
Q 2772 3750 2511 3984 
Q 2250 4219 1831 4219 
Q 1534 4219 1204 4116 
Q 875 4013 500 3803 
L 500 4441 
Q 881 4594 1212 4672 
Q 1544 4750 1819 4750 
Q 2544 4750 2975 4387 
Q 3406 4025 3406 3419 
Q 3406 3131 3298 2873 
Q 3191 2616 2906 2266 
Q 2828 2175 2409 1742 
Q 1991 1309 1228 531 
z
" transform="scale(0.015625)"/>
        <path id="DejaVuSans-30" d="M 2034 4250 
Q 1547 4250 1301 3770 
Q 1056 3291 1056 2328 
Q 1056 1369 1301 889 
Q 1547 409 2034 409 
Q 2525 409 2770 889 
Q 3016 1369 3016 2328 
Q 3016 3291 2770 3770 
Q 2525 4250 2034 4250 
z
M 2034 4750 
Q 2819 4750 3233 4129 
Q 3647 3509 3647 2328 
Q 3647 1150 3233 529 
Q 2819 -91 2034 -91 
Q 1250 -91 836 529 
Q 422 1150 422 2328 
Q 422 3509 836 4129 
Q 1250 4750 2034 4750 
z
" transform="scale(0.015625)"/>
        <path id="DejaVuSans-36" d="M 2113 2584 
Q 1688 2584 1439 2293 
Q 1191 2003 1191 1497 
Q 1191 994 1439 701 
Q 1688 409 2113 409 
Q 2538 409 2786 701 
Q 3034 994 3034 1497 
Q 3034 2003 2786 2293 
Q 2538 2584 2113 2584 
z
M 3366 4563 
L 3366 3988 
Q 3128 4100 2886 4159 
Q 2644 4219 2406 4219 
Q 1781 4219 1451 3797 
Q 1122 3375 1075 2522 
Q 1259 2794 1537 2939 
Q 1816 3084 2150 3084 
Q 2853 3084 3261 2657 
Q 3669 2231 3669 1497 
Q 3669 778 3244 343 
Q 2819 -91 2113 -91 
Q 1303 -91 875 529 
Q 447 1150 447 2328 
Q 447 3434 972 4092 
Q 1497 4750 2381 4750 
Q 2619 4750 2861 4703 
Q 3103 4656 3366 4563 
z
" transform="scale(0.015625)"/>
       </defs>
       <use xlink:href="#DejaVuSans-32"/>
       <use xlink:href="#DejaVuSans-30" transform="translate(63.623047 0)"/>
       <use xlink:href="#DejaVuSans-32" transform="translate(127.246094 0)"/>
       <use xlink:href="#DejaVuSans-36" transform="translate(190.869141 0)"/>
      </g>
     </g>
    </g>
    <g id="xtick_4">
     <g id="line2d_7">
      <path d="M 525.632527 455.237812 
L 525.632527 38.397812 
" clip-path="url(#p76c8e2a07b)" style="fill: none; stroke: #30363d; stroke-opacity: 0.25; stroke-width: 0.5; stroke-linecap: square"/>
     </g>
     <g id="line2d_8">
      <g>
       <use xlink:href="#ma5a2114ffc" x="525.632527" y="455.237812" style="fill: #c9d1d9; stroke: #c9d1d9; stroke-width: 0.8"/>
      </g>
     </g>
     <g id="text_4">
      <!-- Mar -->
      <g style="fill: #c9d1d9" transform="translate(516.198934 469.83625) scale(0.1 -0.1)">
       <defs>
        <path id="DejaVuSans-4d" d="M 628 4666 
L 1569 4666 
L 2759 1491 
L 3956 4666 
L 4897 4666 
L 4897 0 
L 4281 0 
L 4281 4097 
L 3078 897 
L 2444 897 
L 1241 4097 
L 1241 0 
L 628 0 
L 628 4666 
z
" transform="scale(0.015625)"/>
        <path id="DejaVuSans-61" d="M 2194 1759 
Q 1497 1759 1228 1600 
Q 959 1441 959 1056 
Q 959 750 1161 570 
Q 1363 391 1709 391 
Q 2188 391 2477 730 
Q 2766 1069 2766 1631 
L 2766 1759 
L 2194 1759 
z
M 3341 1997 
L 3341 0 
L 2766 0 
L 2766 531 
Q 2569 213 2275 61 
Q 1981 -91 1556 -91 
Q 1019 -91 701 211 
Q 384 513 384 1019 
Q 384 1609 779 1909 
Q 1175 2209 1959 2209 
L 2766 2209 
L 2766 2266 
Q 2766 2663 2505 2880 
Q 2244 3097 1772 3097 
Q 1472 3097 1187 3025 
Q 903 2953 641 2809 
L 641 3341 
Q 956 3463 1253 3523 
Q 1550 3584 1831 3584 
Q 2591 3584 2966 3190 
Q 3341 2797 3341 1997 
z
" transform="scale(0.015625)"/>
        <path id="DejaVuSans-72" d="M 2631 2963 
Q 2534 3019 2420 3045 
Q 2306 3072 2169 3072 
Q 1681 3072 1420 2755 
Q 1159 2438 1159 1844 
L 1159 0 
L 581 0 
L 581 3500 
L 1159 3500 
L 1159 2956 
Q 1341 3275 1631 3429 
Q 1922 3584 2338 3584 
Q 2397 3584 2469 3576 
Q 2541 3569 2628 3553 
L 2631 2963 
z
" transform="scale(0.015625)"/>
       </defs>
       <use xlink:href="#DejaVuSans-4d"/>
       <use xlink:href="#DejaVuSans-61" transform="translate(86.279297 0)"/>
       <use xlink:href="#DejaVuSans-72" transform="translate(147.558594 0)"/>
      </g>
     </g>
    </g>
    <g id="xtick_5">
     <g id="line2d_9">
      <path d="M 673.812817 455.237812 
L 673.812817 38.397812 
" clip-path="url(#p76c8e2a07b)" style="fill: none; stroke: #30363d; stroke-opacity: 0.25; stroke-width: 0.5; stroke-linecap: square"/>
     </g>
     <g id="line2d_10">
      <g>
       <use xlink:href="#ma5a2114ffc" x="673.812817" y="455.237812" style="fill: #c9d1d9; stroke: #c9d1d9; stroke-width: 0.8"/>
      </g>
     </g>
     <g id="text_5">
      <!-- May -->
      <g style="fill: #c9d1d9" transform="translate(663.475317 469.83625) scale(0.1 -0.1)">
       <defs>
        <path id="DejaVuSans-79" d="M 2059 -325 
Q 1816 -950 1584 -1140 
Q 1353 -1331 966 -1331 
L 506 -1331 
L 506 -850 
L 844 -850 
Q 1081 -850 1212 -737 
Q 1344 -625 1503 -206 
L 1606 56 
L 191 3500 
L 800 3500 
L 1894 763 
L 2988 3500 
L 3597 3500 
L 2059 -325 
z
" transform="scale(0.015625)"/>
       </defs>
       <use xlink:href="#DejaVuSans-4d"/>
       <use xlink:href="#DejaVuSans-61" transform="translate(86.279297 0)"/>
       <use xlink:href="#DejaVuSans-79" transform="translate(147.558594 0)"/>
      </g>
     </g>
    </g>
    <g id="xtick_6">
     <g id="line2d_11">
      <path d="M 821.993106 455.237812 
L 821.993106 38.397812 
" clip-path="url(#p76c8e2a07b)" style="fill: none; stroke: #30363d; stroke-opacity: 0.25; stroke-width: 0.5; stroke-linecap: square"/>
     </g>
     <g id="line2d_12">
      <g>
       <use xlink:href="#ma5a2114ffc" x="821.993106" y="455.237812" style="fill: #c9d1d9; stroke: #c9d1d9; stroke-width: 0.8"/>
      </g>
     </g>
     <g id="text_6">
      <!-- Jul -->
      <g style="fill: #c9d1d9" transform="translate(815.960294 469.83625) scale(0.1 -0.1)">
       <defs>
        <path id="DejaVuSans-4a" d="M 628 4666 
L 1259 4666 
L 1259 325 
Q 1259 -519 939 -900 
Q 619 -1281 -91 -1281 
L -331 -1281 
L -331 -750 
L -134 -750 
Q 284 -750 456 -515 
Q 628 -281 628 325 
L 628 4666 
z
" transform="scale(0.015625)"/>
        <path id="DejaVuSans-75" d="M 544 1381 
L 544 3500 
L 1119 3500 
L 1119 1403 
Q 1119 906 1312 657 
Q 1506 409 1894 409 
Q 2359 409 2629 706 
Q 2900 1003 2900 1516 
L 2900 3500 
L 3475 3500 
L 3475 0 
L 2900 0 
L 2900 538 
Q 2691 219 2414 64 
Q 2138 -91 1772 -91 
Q 1169 -91 856 284 
Q 544 659 544 1381 
z
M 1991 3584 
L 1991 3584 
z
" transform="scale(0.015625)"/>
        <path id="DejaVuSans-6c" d="M 603 4863 
L 1178 4863 
L 1178 0 
L 603 0 
L 603 4863 
z
" transform="scale(0.015625)"/>
       </defs>
       <use xlink:href="#DejaVuSans-4a"/>
       <use xlink:href="#DejaVuSans-75" transform="translate(29.492188 0)"/>
       <use xlink:href="#DejaVuSans-6c" transform="translate(92.871094 0)"/>
      </g>
     </g>
    </g>
    <g id="text_7">
     <!-- Date -->
     <g style="fill: #c9d1d9" transform="translate(434.285312 485.034062) scale(0.12 -0.12)">
      <defs>
       <path id="DejaVuSans-44" d="M 1259 4147 
L 1259 519 
L 2022 519 
Q 2988 519 3436 956 
Q 3884 1394 3884 2338 
Q 3884 3275 3436 3711 
Q 2988 4147 2022 4147 
L 1259 4147 
z
M 628 4666 
L 1925 4666 
Q 3281 4666 3915 4102 
Q 4550 3538 4550 2338 
Q 4550 1131 3912 565 
Q 3275 0 1925 0 
L 628 0 
L 628 4666 
z
" transform="scale(0.015625)"/>
       <path id="DejaVuSans-74" d="M 1172 4494 
L 1172 3500 
L 2356 3500 
L 2356 3053 
L 1172 3053 
L 1172 1153 
Q 1172 725 1289 603 
Q 1406 481 1766 481 
L 2356 481 
L 2356 0 
L 1766 0 
Q 1100 0 847 248 
Q 594 497 594 1153 
L 594 3053 
L 172 3053 
L 172 3500 
L 594 3500 
L 594 4494 
L 1172 4494 
z
" transform="scale(0.015625)"/>
      </defs>
      <use xlink:href="#DejaVuSans-44"/>
      <use xlink:href="#DejaVuSans-61" transform="translate(77.001953 0)"/>
      <use xlink:href="#DejaVuSans-74" transform="translate(138.28125 0)"/>
      <use xlink:href="#DejaVuSans-65" transform="translate(177.490234 0)"/>
     </g>
    </g>
   </g>
   <g id="matplotlib.axis_2">
    <g id="ytick_1">
     <g id="line2d_13">
      <path d="M 48.90125 455.237812 
L 848.35125 455.237812 
" clip-path="url(#p76c8e2a07b)" style="fill: none; stroke: #30363d; stroke-opacity: 0.25; stroke-width: 0.5; stroke-linecap: square"/>
     </g>
     <g id="line2d_14">
      <defs>
       <path id="m3bc5c179fa" d="M 0 0 
L -3.5 0 
" style="stroke: #c9d1d9; stroke-width: 0.8"/>
      </defs>
      <g>
       <use xlink:href="#m3bc5c179fa" x="48.90125" y="455.237812" style="fill: #c9d1d9; stroke: #c9d1d9; stroke-width: 0.8"/>
      </g>
     </g>
     <g id="text_8">
      <!-- 0 -->
      <g style="fill: #c9d1d9" transform="translate(35.53875 459.037031) scale(0.1 -0.1)">
       <use xlink:href="#DejaVuSans-30"/>
      </g>
     </g>
    </g>
    <g id="ytick_2">
     <g id="line2d_15">
      <path d="M 48.90125 399.659146 
L 848.35125 399.659146 
" clip-path="url(#p76c8e2a07b)" style="fill: none; stroke: #30363d; stroke-opacity: 0.25; stroke-width: 0.5; stroke-linecap: square"/>
     </g>
     <g id="line2d_16">
      <g>
       <use xlink:href="#m3bc5c179fa" x="48.90125" y="399.659146" style="fill: #c9d1d9; stroke: #c9d1d9; stroke-width: 0.8"/>
      </g>
     </g>
     <g id="text_9">
      <!-- 100 -->
      <g style="fill: #c9d1d9" transform="translate(22.81375 403.458365) scale(0.1 -0.1)">
       <defs>
        <path id="DejaVuSans-31" d="M 794 531 
L 1825 531 
L 1825 4091 
L 703 3866 
L 703 4441 
L 1819 4666 
L 2450 4666 
L 2450 531 
L 3481 531 
L 3481 0 
L 794 0 
L 794 531 
z
" transform="scale(0.015625)"/>
       </defs>
       <use xlink:href="#DejaVuSans-31"/>
       <use xlink:href="#DejaVuSans-30" transform="translate(63.623047 0)"/>
       <use xlink:href="#DejaVuSans-30" transform="translate(127.246094 0)"/>
      </g>
     </g>
    </g>
    <g id="ytick_3">
     <g id="line2d_17">
      <path d="M 48.90125 344.080479 
L 848.35125 344.080479 
" clip-path="url(#p76c8e2a07b)" style="fill: none; stroke: #30363d; stroke-opacity: 0.25; stroke-width: 0.5; stroke-linecap: square"/>
     </g>
     <g id="line2d_18">
      <g>
       <use xlink:href="#m3bc5c179fa" x="48.90125" y="344.080479" style="fill: #c9d1d9; stroke: #c9d1d9; stroke-width: 0.8"/>
      </g>
     </g>
     <g id="text_10">
      <!-- 200 -->
      <g style="fill: #c9d1d9" transform="translate(22.81375 347.879698) scale(0.1 -0.1)">
       <use xlink:href="#DejaVuSans-32"/>
       <use xlink:href="#DejaVuSans-30" transform="translate(63.623047 0)"/>
       <use xlink:href="#DejaVuSans-30" transform="translate(127.246094 0)"/>
      </g>
     </g>
    </g>
    <g id="ytick_4">
     <g id="line2d_19">
      <path d="M 48.90125 288.501812 
L 848.35125 288.501812 
" clip-path="url(#p76c8e2a07b)" style="fill: none; stroke: #30363d; stroke-opacity: 0.25; stroke-width: 0.5; stroke-linecap: square"/>
     </g>
     <g id="line2d_20">
      <g>
       <use xlink:href="#m3bc5c179fa" x="48.90125" y="288.501812" style="fill: #c9d1d9; stroke: #c9d1d9; stroke-width: 0.8"/>
      </g>
     </g>
     <g id="text_11">
      <!-- 300 -->
      <g style="fill: #c9d1d9" transform="translate(22.81375 292.301031) scale(0.1 -0.1)">
       <defs>
        <path id="DejaVuSans-33" d="M 2597 2516 
Q 3050 2419 3304 2112 
Q 3559 1806 3559 1356 
Q 3559 666 3084 287 
Q 2609 -91 1734 -91 
Q 1441 -91 1130 -33 
Q 819 25 488 141 
L 488 750 
Q 750 597 1062 519 
Q 1375 441 1716 441 
Q 2309 441 2620 675 
Q 2931 909 2931 1356 
Q 2931 1769 2642 2001 
Q 2353 2234 1838 2234 
L 1294 2234 
L 1294 2753 
L 1863 2753 
Q 2328 2753 2575 2939 
Q 2822 3125 2822 3475 
Q 2822 3834 2567 4026 
Q 2313 4219 1838 4219 
Q 1578 4219 1281 4162 
Q 984 4106 628 3988 
L 628 4550 
Q 988 4650 1302 4700 
Q 1616 4750 1894 4750 
Q 2613 4750 3031 4423 
Q 3450 4097 3450 3541 
Q 3450 3153 3228 2886 
Q 3006 2619 2597 2516 
z
" transform="scale(0.015625)"/>
       </defs>
       <use xlink:href="#DejaVuSans-33"/>
       <use xlink:href="#DejaVuSans-30" transform="translate(63.623047 0)"/>
       <use xlink:href="#DejaVuSans-30" transform="translate(127.246094 0)"/>
      </g>
     </g>
    </g>
    <g id="ytick_5">
     <g id="line2d_21">
      <path d="M 48.90125 232.923146 
L 848.35125 232.923146 
" clip-path="url(#p76c8e2a07b)" style="fill: none; stroke: #30363d; stroke-opacity: 0.25; stroke-width: 0.5; stroke-linecap: square"/>
     </g>
     <g id="line2d_22">
      <g>
       <use xlink:href="#m3bc5c179fa" x="48.90125" y="232.923146" style="fill: #c9d1d9; stroke: #c9d1d9; stroke-width: 0.8"/>
      </g>
     </g>
     <g id="text_12">
      <!-- 400 -->
      <g style="fill: #c9d1d9" transform="translate(22.81375 236.722365) scale(0.1 -0.1)">
       <defs>
        <path id="DejaVuSans-34" d="M 2419 4116 
L 825 1625 
L 2419 1625 
L 2419 4116 
z
M 2253 4666 
L 3047 4666 
L 3047 1625 
L 3713 1625 
L 3713 1100 
L 3047 1100 
L 3047 0 
L 2419 0 
L 2419 1100 
L 313 1100 
L 313 1709 
L 2253 4666 
z
" transform="scale(0.015625)"/>
       </defs>
       <use xlink:href="#DejaVuSans-34"/>
       <use xlink:href="#DejaVuSans-30" transform="translate(63.623047 0)"/>
       <use xlink:href="#DejaVuSans-30" transform="translate(127.246094 0)"/>
      </g>
     </g>
    </g>
    <g id="ytick_6">
     <g id="line2d_23">
      <path d="M 48.90125 177.344479 
L 848.35125 177.344479 
" clip-path="url(#p76c8e2a07b)" style="fill: none; stroke: #30363d; stroke-opacity: 0.25; stroke-width: 0.5; stroke-linecap: square"/>
     </g>
     <g id="line2d_24">
      <g>
       <use xlink:href="#m3bc5c179fa" x="48.90125" y="177.344479" style="fill: #c9d1d9; stroke: #c9d1d9; stroke-width: 0.8"/>
      </g>
     </g>
     <g id="text_13">
      <!-- 500 -->
      <g style="fill: #c9d1d9" transform="translate(22.81375 181.143698) scale(0.1 -0.1)">
       <defs>
        <path id="DejaVuSans-35" d="M 691 4666 
L 3169 4666 
L 3169 4134 
L 1269 4134 
L 1269 2991 
Q 1406 3038 1543 3061 
Q 1681 3084 1819 3084 
Q 2600 3084 3056 2656 
Q 3513 2228 3513 1497 
Q 3513 744 3044 326 
Q 2575 -91 1722 -91 
Q 1428 -91 1123 -41 
Q 819 9 494 109 
L 494 744 
Q 775 591 1075 516 
Q 1375 441 1709 441 
Q 2250 441 2565 725 
Q 2881 1009 2881 1497 
Q 2881 1984 2565 2268 
Q 2250 2553 1709 2553 
Q 1456 2553 1204 2497 
Q 953 2441 691 2322 
L 691 4666 
z
" transform="scale(0.015625)"/>
       </defs>
       <use xlink:href="#DejaVuSans-35"/>
       <use xlink:href="#DejaVuSans-30" transform="translate(63.623047 0)"/>
       <use xlink:href="#DejaVuSans-30" transform="translate(127.246094 0)"/>
      </g>
     </g>
    </g>
    <g id="ytick_7">
     <g id="line2d_25">
      <path d="M 48.90125 121.765812 
L 848.35125 121.765812 
" clip-path="url(#p76c8e2a07b)" style="fill: none; stroke: #30363d; stroke-opacity: 0.25; stroke-width: 0.5; stroke-linecap: square"/>
     </g>
     <g id="line2d_26">
      <g>
       <use xlink:href="#m3bc5c179fa" x="48.90125" y="121.765812" style="fill: #c9d1d9; stroke: #c9d1d9; stroke-width: 0.8"/>
      </g>
     </g>
     <g id="text_14">
      <!-- 600 -->
      <g style="fill: #c9d1d9" transform="translate(22.81375 125.565031) scale(0.1 -0.1)">
       <use xlink:href="#DejaVuSans-36"/>
       <use xlink:href="#DejaVuSans-30" transform="translate(63.623047 0)"/>
       <use xlink:href="#DejaVuSans-30" transform="translate(127.246094 0)"/>
      </g>
     </g>
    </g>
    <g id="ytick_8">
     <g id="line2d_27">
      <path d="M 48.90125 66.187146 
L 848.35125 66.187146 
" clip-path="url(#p76c8e2a07b)" style="fill: none; stroke: #30363d; stroke-opacity: 0.25; stroke-width: 0.5; stroke-linecap: square"/>
     </g>
     <g id="line2d_28">
      <g>
       <use xlink:href="#m3bc5c179fa" x="48.90125" y="66.187146" style="fill: #c9d1d9; stroke: #c9d1d9; stroke-width: 0.8"/>
      </g>
     </g>
     <g id="text_15">
      <!-- 700 -->
      <g style="fill: #c9d1d9" transform="translate(22.81375 69.986365) scale(0.1 -0.1)">
       <defs>
        <path id="DejaVuSans-37" d="M 525 4666 
L 3525 4666 
L 3525 4397 
L 1831 0 
L 1172 0 
L 2766 4134 
L 525 4134 
L 525 4666 
z
" transform="scale(0.015625)"/>
       </defs>
       <use xlink:href="#DejaVuSans-37"/>
       <use xlink:href="#DejaVuSans-30" transform="translate(63.623047 0)"/>
       <use xlink:href="#DejaVuSans-30" transform="translate(127.246094 0)"/>
      </g>
     </g>
    </g>
    <g id="text_16">
     <!-- Count -->
     <g style="fill: #c9d1d9" transform="translate(16.318125 264.635937) rotate(-90) scale(0.12 -0.12)">
      <defs>
       <path id="DejaVuSans-43" d="M 4122 4306 
L 4122 3641 
Q 3803 3938 3442 4084 
Q 3081 4231 2675 4231 
Q 1875 4231 1450 3742 
Q 1025 3253 1025 2328 
Q 1025 1406 1450 917 
Q 1875 428 2675 428 
Q 3081 428 3442 575 
Q 3803 722 4122 1019 
L 4122 359 
Q 3791 134 3420 21 
Q 3050 -91 2638 -91 
Q 1578 -91 968 557 
Q 359 1206 359 2328 
Q 359 3453 968 4101 
Q 1578 4750 2638 4750 
Q 3056 4750 3426 4639 
Q 3797 4528 4122 4306 
z
" transform="scale(0.015625)"/>
       <path id="DejaVuSans-6e" d="M 3513 2113 
L 3513 0 
L 2938 0 
L 2938 2094 
Q 2938 2591 2744 2837 
Q 2550 3084 2163 3084 
Q 1697 3084 1428 2787 
Q 1159 2491 1159 1978 
L 1159 0 
L 581 0 
L 581 3500 
L 1159 3500 
L 1159 2956 
Q 1366 3272 1645 3428 
Q 1925 3584 2291 3584 
Q 2894 3584 3203 3211 
Q 3513 2838 3513 2113 
z
" transform="scale(0.015625)"/>
      </defs>
      <use xlink:href="#DejaVuSans-43"/>
      <use xlink:href="#DejaVuSans-6f" transform="translate(69.824219 0)"/>
      <use xlink:href="#DejaVuSans-75" transform="translate(131.005859 0)"/>
      <use xlink:href="#DejaVuSans-6e" transform="translate(194.384766 0)"/>
      <use xlink:href="#DejaVuSans-74" transform="translate(257.763672 0)"/>
     </g>
    </g>
   </g>
   <g id="line2d_29">
    <path d="M 85.239886 454.682026 
L 85.286418 454.682026 
L 85.398683 454.126239 
L 85.461943 454.126239 
L 85.617507 257.933546 
L 87.574378 257.933546 
L 87.583319 261.268266 
L 89.950762 261.268266 
L 90.119962 260.712479 
L 90.394004 260.712479 
L 90.660371 260.156692 
L 92.310895 259.600906 
L 92.343481 260.156692 
L 92.403536 259.600906 
L 97.533784 259.600906 
L 100.617275 260.712479 
L 101.076064 259.600906 
L 101.411061 259.600906 
L 102.255372 259.045119 
L 102.608616 256.821972 
L 103.296435 256.821972 
L 104.298755 260.712479 
L 104.363786 256.821972 
L 105.132916 256.266186 
L 107.134604 256.266186 
L 107.662586 255.710399 
L 108.446842 255.710399 
L 108.70424 254.598826 
L 113.545347 254.598826 
L 113.90188 253.487252 
L 113.920156 252.375679 
L 115.459455 252.375679 
L 117.729225 251.264106 
L 118.919891 251.264106 
L 118.937913 250.708319 
L 121.67232 250.708319 
L 122.350637 247.929386 
L 124.497345 247.929386 
L 124.512246 247.373599 
L 136.534884 247.373599 
L 138.782218 246.817812 
L 138.858945 247.373599 
L 141.189726 246.817812 
L 149.300646 246.817812 
L 153.231905 246.262026 
L 153.307845 245.706239 
L 153.494589 245.150452 
L 155.712345 245.150452 
L 156.656241 244.594666 
L 160.548757 244.594666 
L 160.696532 247.373599 
L 160.703786 245.150452 
L 160.893032 245.150452 
L 161.9461 242.927306 
L 166.433767 242.927306 
L 169.959993 242.371519 
L 173.879163 242.371519 
L 174.051146 241.815732 
L 184.235082 241.815732 
L 184.669721 241.259946 
L 187.142513 241.259946 
L 187.159945 240.148372 
L 191.871495 240.148372 
L 191.96706 236.257866 
L 200.494709 236.257866 
L 200.497267 235.702079 
L 200.744235 235.702079 
L 201.819036 235.146292 
L 202.911298 235.146292 
L 203.258694 234.590506 
L 203.293445 235.146292 
L 204.088947 234.590506 
L 204.092574 234.034719 
L 204.111158 234.590506 
L 204.570679 234.034719 
L 208.756609 234.034719 
L 210.058051 233.478932 
L 211.602326 233.478932 
L 214.225256 232.923146 
L 216.708338 232.923146 
L 218.626776 231.811572 
L 222.825161 231.811572 
L 225.267392 230.699999 
L 225.955492 231.255786 
L 229.364196 231.255786 
L 233.209365 229.032639 
L 238.943957 229.032639 
L 240.722464 228.476852 
L 272.417565 228.476852 
L 272.673529 227.921066 
L 284.232008 227.921066 
L 284.425134 227.365279 
L 304.093014 227.365279 
L 308.423823 226.809492 
L 308.448874 227.365279 
L 311.549094 225.697919 
L 316.098839 225.697919 
L 318.583159 225.142132 
L 318.587236 224.586346 
L 323.77079 224.586346 
L 325.631226 225.142132 
L 326.300011 224.586346 
L 334.974957 224.586346 
L 335.344142 225.142132 
L 336.020434 224.586346 
L 336.252837 222.363199 
L 340.228294 222.363199 
L 340.231724 221.807412 
L 352.396544 221.807412 
L 353.104943 221.251626 
L 355.442809 221.251626 
L 355.670883 220.695839 
L 367.071099 220.695839 
L 367.08659 220.140052 
L 369.937959 220.140052 
L 369.942204 219.584266 
L 370.6341 219.584266 
L 370.670229 219.028479 
L 371.744665 219.028479 
L 371.913471 218.472692 
L 374.2131 218.472692 
L 374.56266 217.361119 
L 375.82862 215.137972 
L 378.889928 215.137972 
L 379.115949 212.359039 
L 380.142476 212.359039 
L 380.646279 211.247466 
L 383.242358 211.247466 
L 384.094204 210.691679 
L 386.53261 210.691679 
L 386.859426 210.135892 
L 393.482357 210.135892 
L 393.64554 209.580106 
L 394.258094 209.580106 
L 395.209103 209.024319 
L 405.921247 209.024319 
L 406.017486 208.468532 
L 406.360946 208.468532 
L 407.077949 207.356959 
L 408.083193 207.356959 
L 408.324903 206.801172 
L 408.557784 206.801172 
L 408.646151 206.245386 
L 411.334449 206.245386 
L 411.792115 205.689599 
L 414.132061 205.689599 
L 414.282086 205.133812 
L 415.563818 205.133812 
L 415.716458 204.578026 
L 419.629273 204.578026 
L 419.714913 204.022239 
L 422.038046 204.022239 
L 422.81398 201.799092 
L 423.67426 201.799092 
L 423.67516 201.243306 
L 427.168238 201.243306 
L 427.808626 200.687519 
L 430.483232 200.687519 
L 431.010033 200.131732 
L 431.208192 200.131732 
L 431.722932 199.575946 
L 433.037784 199.575946 
L 433.189749 199.020159 
L 436.487396 199.020159 
L 437.337414 198.464372 
L 437.399324 197.908586 
L 437.674519 197.908586 
L 438.543122 195.685439 
L 441.236902 195.685439 
L 441.256302 195.129652 
L 443.819992 195.129652 
L 444.064288 194.573866 
L 444.355734 194.573866 
L 444.648895 194.018079 
L 444.710047 194.573866 
L 444.929573 194.018079 
L 445.904902 194.018079 
L 445.914236 193.462292 
L 446.173237 193.462292 
L 446.286655 192.906506 
L 447.070349 192.350719 
L 452.522969 192.350719 
L 453.375208 191.794932 
L 453.945701 191.794932 
L 454.40854 191.239146 
L 454.876748 191.794932 
L 456.804549 191.794932 
L 456.887686 190.683359 
L 459.655186 190.683359 
L 460.728976 189.015999 
L 472.3842 189.015999 
L 473.061589 188.460212 
L 491.052066 188.460212 
L 491.162588 187.904426 
L 517.597717 187.904426 
L 517.722522 186.792852 
L 517.730816 187.348639 
L 521.583689 187.348639 
L 522.453613 186.792852 
L 537.632617 186.792852 
L 540.756116 186.237066 
L 540.786481 185.681279 
L 541.04506 185.681279 
L 541.855013 185.125492 
L 566.216309 185.125492 
L 566.452761 184.569706 
L 588.116537 184.569706 
L 590.897223 184.013919 
L 592.598131 184.013919 
L 592.78271 183.458132 
L 593.964913 182.902346 
L 597.280216 182.902346 
L 598.676492 182.346559 
L 600.137545 182.346559 
L 600.251329 181.790772 
L 602.654479 181.790772 
L 602.941539 181.234986 
L 602.998361 180.679199 
L 607.27696 180.679199 
L 607.293548 180.123412 
L 610.936566 180.123412 
L 610.944607 179.567626 
L 612.178937 179.011839 
L 614.370208 179.011839 
L 615.947098 178.456052 
L 617.358303 178.456052 
L 619.438236 175.121332 
L 621.866521 175.121332 
L 621.877768 172.342399 
L 634.087262 172.342399 
L 634.088528 171.786612 
L 634.299704 171.230826 
L 635.469143 171.230826 
L 635.723504 170.675039 
L 639.559339 170.675039 
L 640.446076 170.119252 
L 640.591968 170.675039 
L 647.452785 170.675039 
L 647.454331 170.119252 
L 650.224417 170.119252 
L 651.357615 167.340319 
L 658.304663 167.340319 
L 658.37886 166.228746 
L 659.949564 164.561386 
L 661.525611 164.561386 
L 661.693489 164.005599 
L 668.318754 164.005599 
L 668.440578 163.449812 
L 675.093087 163.449812 
L 675.237995 162.894026 
L 677.071467 161.226666 
L 677.213535 160.670879 
L 695.275173 160.670879 
L 696.98519 157.891946 
L 701.06549 157.891946 
L 701.331266 157.336159 
L 704.396763 157.336159 
L 705.537749 156.224586 
L 721.695456 156.224586 
L 721.900306 155.668799 
L 724.265613 155.668799 
L 724.51899 155.113012 
L 740.100554 155.113012 
L 740.108539 153.445652 
L 740.592492 153.445652 
L 740.785309 152.889866 
L 743.452014 152.889866 
L 743.843045 152.334079 
L 743.845379 152.889866 
L 750.883718 152.889866 
L 752.581645 152.334079 
L 784.258949 152.334079 
L 784.26207 151.778292 
L 796.875698 151.778292 
L 798.4545 151.222506 
L 812.012614 151.222506 
L 812.012614 151.222506 
" clip-path="url(#p76c8e2a07b)" style="fill: none; stroke: #3fb950; stroke-width: 2; stroke-linecap: square"/>
   </g>
   <g id="line2d_30">
    <path d="M 85.239886 455.237812 
L 85.315939 453.570452 
L 85.398683 453.570452 
L 85.527987 372.981386 
L 86.60903 372.981386 
L 86.632619 370.758239 
L 87.815076 370.758239 
L 88.119736 369.090879 
L 88.534272 370.758239 
L 88.537336 369.090879 
L 88.880346 369.090879 
L 89.012911 367.979306 
L 92.400303 367.979306 
L 92.403536 367.423519 
L 92.422599 367.979306 
L 92.589324 367.423519 
L 92.638217 367.979306 
L 92.864744 367.423519 
L 93.957315 367.423519 
L 94.188903 366.311946 
L 95.531 366.311946 
L 97.058293 365.756159 
L 97.11205 365.200372 
L 97.524843 364.644586 
L 97.533784 364.088799 
L 100.617275 367.979306 
L 101.076064 366.311946 
L 101.411061 363.533012 
L 103.296435 363.533012 
L 104.298755 367.979306 
L 104.363786 363.533012 
L 122.67942 363.533012 
L 123.24145 362.977226 
L 124.512246 362.977226 
L 127.983 362.421439 
L 128.828435 361.865652 
L 140.874551 361.865652 
L 141.189726 361.309866 
L 142.809014 360.754079 
L 143.838213 360.754079 
L 144.97903 360.198292 
L 145.00976 359.086719 
L 145.79396 358.530932 
L 146.321014 357.975146 
L 153.581859 357.975146 
L 155.029249 357.419359 
L 155.466811 357.419359 
L 155.712345 356.863572 
L 156.656241 356.863572 
L 157.593979 356.307786 
L 160.548757 356.307786 
L 160.696532 358.530932 
L 160.703786 356.307786 
L 161.832766 356.307786 
L 161.9461 355.751999 
L 163.544133 355.751999 
L 165.116384 355.196212 
L 165.154536 354.640426 
L 169.959993 354.640426 
L 171.986873 354.084639 
L 171.99199 353.528852 
L 178.736802 353.528852 
L 181.550327 352.973066 
L 183.661187 352.973066 
L 184.235082 352.417279 
L 187.457155 352.417279 
L 189.2949 351.861492 
L 189.395639 351.305706 
L 191.187359 351.305706 
L 191.395302 350.749919 
L 191.96706 350.194132 
L 193.243423 350.194132 
L 194.049271 349.638346 
L 195.526772 349.638346 
L 196.49108 349.082559 
L 198.54824 349.082559 
L 199.249077 347.970986 
L 204.570679 347.970986 
L 206.086221 347.415199 
L 207.863349 347.415199 
L 208.264109 346.859412 
L 208.386664 346.303626 
L 208.756609 345.747839 
L 214.876356 345.747839 
L 215.996818 345.192052 
L 216.708338 344.636266 
L 234.110554 344.636266 
L 238.016931 344.080479 
L 238.063602 343.524692 
L 240.722464 343.524692 
L 242.995045 342.968906 
L 247.011804 342.968906 
L 247.351215 342.413119 
L 254.191929 342.413119 
L 259.546877 341.857332 
L 259.598272 341.301546 
L 260.298349 341.301546 
L 261.716752 340.745759 
L 261.795869 339.078399 
L 261.858285 338.522612 
L 264.821076 337.966826 
L 264.998485 337.411039 
L 265.069196 336.299466 
L 265.337531 335.743679 
L 274.978753 335.743679 
L 277.717659 335.187892 
L 279.461161 334.632106 
L 280.827016 334.632106 
L 283.993869 334.076319 
L 284.232008 331.853172 
L 284.425134 331.853172 
L 284.880465 330.741599 
L 290.887328 330.185812 
L 291.078514 329.630026 
L 291.134914 329.074239 
L 292.403966 329.074239 
L 293.602336 328.518452 
L 293.740074 327.962666 
L 293.833615 326.851092 
L 294.626839 326.295306 
L 294.685067 325.739519 
L 296.132344 325.183732 
L 298.034755 324.627946 
L 298.170048 324.072159 
L 298.172915 323.516372 
L 298.555568 322.960586 
L 298.623158 322.404799 
L 301.382785 321.849012 
L 301.877507 321.293226 
L 313.495056 321.293226 
L 315.421648 320.737439 
L 315.596976 320.181652 
L 323.470797 320.181652 
L 323.77079 319.070079 
L 327.051399 319.070079 
L 328.041854 318.514292 
L 328.090241 317.402719 
L 328.344575 316.846932 
L 330.028669 316.291146 
L 330.066597 315.735359 
L 330.269873 315.179572 
L 330.478181 312.956426 
L 330.710219 312.956426 
L 330.718766 312.400639 
L 332.124685 311.844852 
L 332.677409 311.289066 
L 332.811155 310.733279 
L 335.344142 310.177492 
L 337.210847 310.177492 
L 337.859052 309.621706 
L 344.8774 309.621706 
L 347.20253 309.065919 
L 347.21178 308.510132 
L 347.629943 307.954346 
L 353.104943 307.954346 
L 354.641122 307.398559 
L 355.273947 306.842772 
L 355.442809 305.731199 
L 359.871517 305.731199 
L 360.173253 305.175412 
L 362.605194 305.175412 
L 363.769488 304.619626 
L 367.08659 304.619626 
L 369.091933 304.063839 
L 373.256383 304.063839 
L 373.768227 303.508052 
L 375.82862 303.508052 
L 376.389441 302.952266 
L 376.632725 302.396479 
L 376.752554 301.840692 
L 378.448569 301.840692 
L 378.496788 300.729119 
L 379.115949 300.729119 
L 379.522472 299.061759 
L 380.99778 299.061759 
L 381.181009 298.505972 
L 381.323246 298.505972 
L 382.029396 297.950186 
L 383.201225 297.950186 
L 383.242358 297.394399 
L 384.094204 297.394399 
L 384.301106 296.838612 
L 385.101753 296.838612 
L 386.32762 295.727039 
L 386.859426 295.727039 
L 388.91622 294.615466 
L 388.919313 294.059679 
L 389.312003 293.503892 
L 390.313929 292.948106 
L 390.469718 292.392319 
L 391.468664 291.836532 
L 393.101616 291.836532 
L 393.64554 290.724959 
L 395.637078 290.724959 
L 395.693618 290.169172 
L 396.260991 290.169172 
L 396.304542 289.613386 
L 396.615893 289.057599 
L 397.699242 289.057599 
L 397.781649 288.501812 
L 397.96724 288.501812 
L 398.090696 287.390239 
L 399.614109 287.390239 
L 399.91579 286.834452 
L 400.169111 286.834452 
L 400.320513 286.278666 
L 400.707158 286.278666 
L 400.996636 285.722879 
L 401.057675 285.167092 
L 401.140419 285.167092 
L 402.595597 284.611306 
L 403.684541 284.611306 
L 403.766976 284.055519 
L 408.062585 284.055519 
L 408.083193 283.499732 
L 408.324903 283.499732 
L 408.893681 282.388159 
L 410.344472 282.388159 
L 410.479005 280.720799 
L 410.518255 279.609226 
L 410.771829 279.053439 
L 411.792115 279.053439 
L 412.273313 278.497652 
L 412.739722 278.497652 
L 412.890112 277.941866 
L 413.613104 277.386079 
L 414.282086 277.386079 
L 415.626994 276.830292 
L 415.716458 276.274506 
L 416.056937 276.274506 
L 416.125061 275.718719 
L 417.320619 275.718719 
L 417.353824 275.162932 
L 423.151844 275.162932 
L 423.258993 274.607146 
L 423.41391 274.607146 
L 423.490384 273.495572 
L 424.236965 273.495572 
L 424.395846 272.939786 
L 424.912947 272.383999 
L 425.042926 271.828212 
L 425.280418 271.828212 
L 425.481388 271.272426 
L 425.546897 270.716639 
L 428.46026 270.716639 
L 429.195623 270.160852 
L 429.340868 269.049279 
L 429.519852 268.493492 
L 429.818636 268.493492 
L 430.000741 267.937706 
L 434.18175 267.937706 
L 434.457761 266.270346 
L 435.029041 266.270346 
L 435.11291 265.714559 
L 437.345258 265.714559 
L 437.399324 264.602986 
L 440.080481 264.602986 
L 440.108259 264.047199 
L 441.399832 264.047199 
L 441.40852 263.491412 
L 442.037465 263.491412 
L 442.141774 262.935626 
L 443.969061 262.935626 
L 444.064288 262.379839 
L 444.185607 262.379839 
L 444.355734 261.824052 
L 444.701078 261.824052 
L 444.710047 261.268266 
L 444.929573 261.268266 
L 445.348354 260.712479 
L 448.730882 260.712479 
L 448.976725 260.156692 
L 449.980366 260.156692 
L 449.982222 259.600906 
L 457.655691 259.600906 
L 458.958089 259.045119 
L 458.995848 258.489332 
L 459.655186 257.933546 
L 460.657759 257.933546 
L 460.728976 256.821972 
L 460.910321 256.821972 
L 460.985812 256.266186 
L 463.648468 256.266186 
L 464.129301 255.710399 
L 468.734996 255.710399 
L 468.749166 255.154612 
L 470.253434 255.154612 
L 470.896296 254.598826 
L 477.976471 254.598826 
L 478.064838 253.487252 
L 480.849348 253.487252 
L 481.403196 252.931466 
L 481.996294 252.931466 
L 482.721339 252.375679 
L 487.51389 252.375679 
L 487.972821 251.819892 
L 488.370487 251.819892 
L 488.565469 251.264106 
L 490.0922 250.708319 
L 490.839568 250.708319 
L 491.162588 250.152532 
L 493.307497 249.596746 
L 497.256694 249.596746 
L 497.56574 249.040959 
L 512.808567 249.040959 
L 513.365508 248.485172 
L 516.890441 248.485172 
L 517.017833 247.929386 
L 517.246806 247.929386 
L 517.31583 247.373599 
L 537.001085 247.373599 
L 537.632617 246.817812 
L 542.332781 246.817812 
L 543.353798 246.262026 
L 543.422231 245.706239 
L 545.867695 245.706239 
L 545.969164 245.150452 
L 553.890276 245.150452 
L 553.906498 244.594666 
L 560.593224 244.594666 
L 560.6652 244.038879 
L 561.099501 243.483092 
L 562.740382 243.483092 
L 562.744149 242.927306 
L 563.0776 242.371519 
L 565.541283 242.371519 
L 566.355228 241.815732 
L 571.608679 241.815732 
L 571.645679 240.704159 
L 604.946235 240.704159 
L 607.293548 240.148372 
L 610.246751 240.148372 
L 610.344874 239.592586 
L 623.437816 239.592586 
L 623.459803 239.036799 
L 637.132713 239.036799 
L 637.273656 238.481012 
L 638.087124 238.481012 
L 638.108323 237.925226 
L 638.29217 237.369439 
L 639.007346 236.257866 
L 639.11247 235.146292 
L 639.173228 234.034719 
L 639.356401 233.478932 
L 639.398771 232.923146 
L 639.559339 232.367359 
L 640.591968 232.367359 
L 640.720343 231.811572 
L 640.726388 231.255786 
L 641.113624 230.699999 
L 647.454331 230.699999 
L 648.137764 229.588426 
L 668.137352 229.588426 
L 668.264434 229.032639 
L 680.471877 229.032639 
L 680.760989 227.921066 
L 682.070078 227.921066 
L 682.245435 227.365279 
L 690.023129 227.365279 
L 690.217491 226.809492 
L 693.27461 226.809492 
L 694.091086 226.253706 
L 694.167869 225.697919 
L 698.754727 225.697919 
L 698.897611 224.586346 
L 699.489359 224.030559 
L 700.04287 224.030559 
L 701.06549 223.474772 
L 704.005254 223.474772 
L 704.05007 222.918986 
L 704.396763 222.363199 
L 706.795499 222.363199 
L 709.337399 221.807412 
L 721.900306 221.807412 
L 723.385258 221.251626 
L 723.93503 220.695839 
L 724.265613 219.584266 
L 726.033464 219.584266 
L 733.236475 218.472692 
L 735.043885 218.472692 
L 735.242999 217.361119 
L 735.48752 217.361119 
L 735.611566 216.805332 
L 745.734155 216.805332 
L 745.746019 216.249546 
L 762.661273 216.249546 
L 764.909562 215.693759 
L 765.044095 214.582186 
L 765.129398 214.582186 
L 765.224457 213.470612 
L 765.357415 213.470612 
L 765.375465 212.914826 
L 766.895562 212.914826 
L 767.046627 212.359039 
L 767.13221 211.803252 
L 767.463918 211.247466 
L 767.708383 211.247466 
L 768.20243 210.691679 
L 779.146864 210.691679 
L 779.177791 210.135892 
L 784.106675 210.135892 
L 784.183515 209.580106 
L 784.26207 209.580106 
L 785.003956 209.024319 
L 787.580579 209.024319 
L 789.27412 208.468532 
L 796.866476 208.468532 
L 796.875698 207.356959 
L 799.02682 207.356959 
L 799.090839 206.801172 
L 799.831853 206.245386 
L 799.890643 205.689599 
L 800.868643 205.689599 
L 800.901791 205.133812 
L 803.593098 205.133812 
L 803.59574 204.578026 
L 803.711858 204.022239 
L 805.95877 204.022239 
L 805.994729 202.354879 
L 806.119338 201.799092 
L 806.430155 201.799092 
L 806.488973 201.243306 
L 808.209224 201.243306 
L 808.220779 200.687519 
L 808.683365 200.687519 
L 810.662195 194.573866 
L 812.012614 194.573866 
L 812.012614 194.573866 
" clip-path="url(#p76c8e2a07b)" style="fill: none; stroke: #58a6ff; stroke-width: 2; stroke-linecap: square"/>
   </g>
   <g id="line2d_31">
    <path d="M 85.239886 455.237812 
L 87.574378 455.237812 
L 87.583319 454.126239 
L 89.510585 454.126239 
L 89.950762 453.570452 
L 208.756609 453.570452 
L 210.058051 453.014666 
L 242.995045 453.014666 
L 243.90911 452.458879 
L 274.978753 452.458879 
L 277.717659 451.903092 
L 284.880465 451.903092 
L 291.134914 450.235732 
L 292.403966 449.124159 
L 294.685067 449.124159 
L 296.132344 448.568372 
L 298.172915 448.012586 
L 298.623158 448.012586 
L 301.382785 447.456799 
L 301.877507 446.901012 
L 304.093014 446.345226 
L 308.423823 445.789439 
L 308.448874 446.345226 
L 315.596976 446.345226 
L 316.098839 445.789439 
L 326.300011 445.789439 
L 327.051399 445.233652 
L 330.478181 445.233652 
L 330.718766 444.677866 
L 334.974957 444.677866 
L 335.344142 444.122079 
L 350.936052 444.122079 
L 352.396544 443.566292 
L 353.010363 443.566292 
L 353.104943 443.010506 
L 357.2663 443.010506 
L 357.270265 442.454719 
L 367.071099 442.454719 
L 367.08659 441.898932 
L 369.942204 441.898932 
L 370.670229 441.343146 
L 371.742781 440.787359 
L 371.744665 440.231572 
L 371.913471 440.231572 
L 373.256383 438.564212 
L 374.16103 438.564212 
L 374.2131 436.896852 
L 374.56266 436.896852 
L 375.82862 437.452639 
L 376.739058 437.452639 
L 376.752554 435.229492 
L 380.142476 435.229492 
L 380.646279 434.673706 
L 381.181009 434.673706 
L 381.323246 434.117919 
L 393.482357 434.117919 
L 393.64554 433.562132 
L 394.258094 433.562132 
L 395.209103 433.006346 
L 399.404817 433.006346 
L 399.614109 432.450559 
L 401.057675 432.450559 
L 401.140419 431.894772 
L 405.921247 431.894772 
L 406.017486 431.338986 
L 406.360946 431.338986 
L 406.709298 430.783199 
L 407.057312 430.783199 
L 407.077949 430.227412 
L 408.557784 430.227412 
L 408.646151 429.671626 
L 415.516162 429.671626 
L 415.630761 429.115839 
L 415.645944 429.115839 
L 415.825574 428.560052 
L 416.125061 428.560052 
L 416.98163 428.004266 
L 420.330447 428.004266 
L 420.333399 427.448479 
L 420.973282 427.448479 
L 420.99763 426.892692 
L 422.81398 426.892692 
L 423.258993 426.336906 
L 425.616062 426.336906 
L 426.318107 425.781119 
L 427.683427 425.781119 
L 427.697907 424.669546 
L 427.808626 424.669546 
L 427.947967 424.113759 
L 430.144327 424.113759 
L 430.483232 423.557972 
L 431.010033 423.557972 
L 431.208192 423.002186 
L 432.494029 423.002186 
L 432.673575 422.446399 
L 432.675881 421.890612 
L 433.037784 421.890612 
L 433.189749 421.334826 
L 447.04094 421.334826 
L 447.070349 420.223252 
L 448.976725 420.223252 
L 449.5254 419.667466 
L 449.982222 419.667466 
L 452.125218 419.111679 
L 452.522969 419.111679 
L 453.375208 418.555892 
L 453.945701 418.555892 
L 454.40854 418.000106 
L 454.876748 418.555892 
L 456.383996 418.555892 
L 456.793865 418.000106 
L 456.887686 416.888532 
L 457.650546 416.332746 
L 457.655691 415.221172 
L 460.985812 415.221172 
L 461.714089 414.665386 
L 461.787892 412.998026 
L 462.515804 412.442239 
L 462.918363 411.886452 
L 466.361339 411.886452 
L 466.507428 410.219092 
L 466.683038 410.219092 
L 466.813241 409.663306 
L 467.654684 409.107519 
L 468.97918 409.107519 
L 469.252042 408.551732 
L 469.314121 407.995946 
L 469.453349 407.995946 
L 470.253434 406.884372 
L 471.110649 406.884372 
L 471.392114 406.328586 
L 472.380939 406.328586 
L 472.3842 405.217012 
L 473.061589 405.217012 
L 473.960865 404.661226 
L 476.34335 403.549652 
L 476.662996 402.993866 
L 481.403196 402.993866 
L 481.996294 401.882292 
L 491.052066 401.882292 
L 491.162588 400.770719 
L 495.570406 400.770719 
L 496.243886 400.214932 
L 498.287635 400.214932 
L 498.402347 399.659146 
L 510.975713 399.659146 
L 511.176402 399.103359 
L 512.421809 399.103359 
L 512.808567 398.547572 
L 515.132881 398.547572 
L 515.570022 397.991786 
L 515.57289 397.435999 
L 516.072841 396.880212 
L 517.597717 396.880212 
L 517.714171 396.324426 
L 517.722522 395.212852 
L 517.730816 395.768639 
L 518.755516 395.212852 
L 522.453613 395.212852 
L 523.183071 394.101279 
L 529.855598 394.101279 
L 530.371491 393.545492 
L 531.990188 393.545492 
L 532.119773 392.989706 
L 532.137598 392.433919 
L 537.632617 392.433919 
L 541.04506 391.322346 
L 541.855013 391.322346 
L 542.332781 390.766559 
L 549.40126 390.766559 
L 550.270087 390.210772 
L 551.34666 390.210772 
L 552.389326 389.654986 
L 561.099501 389.654986 
L 561.33854 389.099199 
L 561.339833 388.543412 
L 566.216309 388.543412 
L 566.452761 387.987626 
L 588.116537 387.987626 
L 590.897223 387.431839 
L 597.280216 387.431839 
L 598.676492 386.876052 
L 599.90503 386.876052 
L 600.251329 386.320266 
L 602.998361 386.320266 
L 603.481611 385.764479 
L 604.118963 385.764479 
L 604.946235 385.208692 
L 606.929198 385.208692 
L 607.293548 384.652906 
L 607.537619 384.652906 
L 608.426183 384.097119 
L 617.010738 384.097119 
L 617.034749 382.429759 
L 624.525242 382.429759 
L 627.701598 381.873972 
L 627.704185 381.318186 
L 631.428823 381.318186 
L 631.585174 380.762399 
L 631.693306 380.206612 
L 633.329716 380.206612 
L 634.088528 379.650826 
L 634.631355 379.650826 
L 635.469143 379.095039 
L 636.368194 379.095039 
L 636.523561 377.983466 
L 637.273656 377.983466 
L 637.423146 377.427679 
L 639.111008 377.427679 
L 639.173228 376.871892 
L 641.833636 376.871892 
L 643.760986 376.316106 
L 644.393164 376.316106 
L 645.013759 375.760319 
L 646.295745 375.204532 
L 646.301227 374.648746 
L 646.654753 372.981386 
L 646.9778 372.425599 
L 647.454331 371.869812 
L 648.731396 371.869812 
L 649.505868 370.202452 
L 651.357615 370.202452 
L 651.859 368.535092 
L 653.896592 368.535092 
L 654.112351 367.979306 
L 655.589177 367.979306 
L 655.910116 366.867732 
L 656.466214 366.311946 
L 658.37886 366.311946 
L 661.693489 365.200372 
L 663.81866 364.644586 
L 663.963034 364.088799 
L 665.973156 364.088799 
L 666.101757 363.533012 
L 668.308604 363.533012 
L 668.318754 362.977226 
L 668.732446 362.977226 
L 668.823119 362.421439 
L 675.093087 362.421439 
L 675.237995 361.865652 
L 677.213535 361.309866 
L 680.46257 361.309866 
L 680.471877 360.754079 
L 692.39164 360.754079 
L 693.27461 358.530932 
L 698.166212 358.530932 
L 698.173438 357.419359 
L 704.396763 357.419359 
L 705.535331 355.751999 
L 705.537749 355.196212 
L 709.936879 355.196212 
L 711.417023 354.084639 
L 711.483264 353.528852 
L 739.139395 353.528852 
L 740.242116 352.973066 
L 743.148872 352.973066 
L 743.452014 351.861492 
L 772.813326 351.861492 
L 773.358122 349.638346 
L 796.875698 349.638346 
L 798.4545 349.082559 
L 808.681875 349.082559 
L 808.683365 344.636266 
L 812.012614 344.636266 
L 812.012614 344.636266 
" clip-path="url(#p76c8e2a07b)" style="fill: none; stroke: #d29922; stroke-width: 2; stroke-linecap: square"/>
   </g>
   <g id="line2d_32">
    <path d="M 85.239886 454.682026 
L 85.439563 454.682026 
L 85.527987 432.450559 
L 85.990094 426.892692 
L 86.254155 425.781119 
L 86.388126 426.336906 
L 86.632619 425.781119 
L 87.046115 425.225332 
L 87.583319 423.002186 
L 87.815076 421.334826 
L 88.119736 421.334826 
L 88.534272 420.779039 
L 88.537336 420.223252 
L 88.871096 419.667466 
L 88.963119 419.111679 
L 89.012911 419.111679 
L 89.866162 418.000106 
L 89.950762 411.886452 
L 90.009271 412.442239 
L 90.294447 404.661226 
L 90.394004 402.993866 
L 92.403536 402.993866 
L 92.589324 399.659146 
L 92.638217 402.438079 
L 92.864744 397.991786 
L 92.976925 397.435999 
L 93.812717 396.880212 
L 93.957315 395.768639 
L 94.188903 395.768639 
L 94.619324 395.212852 
L 94.849253 394.657066 
L 94.953393 393.545492 
L 95.016738 392.989706 
L 95.231541 392.433919 
L 95.236855 391.878132 
L 95.452895 392.433919 
L 95.531 390.766559 
L 97.533784 390.766559 
L 100.617275 402.993866 
L 101.076064 390.210772 
L 101.411061 389.654986 
L 102.608616 389.654986 
L 102.827664 389.099199 
L 103.296435 388.543412 
L 104.298755 402.993866 
L 104.363786 387.987626 
L 105.132916 387.431839 
L 106.777705 386.876052 
L 106.895003 387.431839 
L 107.134604 385.764479 
L 107.662586 385.764479 
L 107.823013 385.208692 
L 108.126015 384.652906 
L 108.15115 383.541332 
L 108.430647 382.429759 
L 108.446842 382.985546 
L 108.613089 382.985546 
L 109.021721 378.539252 
L 109.381712 376.871892 
L 109.55766 377.983466 
L 110.801717 374.648746 
L 111.129292 375.760319 
L 112.477377 373.537172 
L 113.545347 377.427679 
L 113.920156 373.537172 
L 115.459455 371.869812 
L 117.729225 371.869812 
L 118.028993 371.314026 
L 118.267553 369.646666 
L 118.937913 371.314026 
L 121.67232 371.869812 
L 122.350637 369.646666 
L 122.67942 367.979306 
L 123.24145 369.646666 
L 124.512246 367.979306 
L 128.828435 367.979306 
L 133.366935 367.423519 
L 133.669599 366.867732 
L 136.534884 366.311946 
L 138.429536 366.311946 
L 138.782218 365.756159 
L 138.858945 366.311946 
L 140.874551 364.644586 
L 142.765126 364.644586 
L 142.809014 364.088799 
L 143.838213 363.533012 
L 146.321014 363.533012 
L 147.416228 359.642506 
L 148.231382 359.086719 
L 149.28029 358.530932 
L 149.300646 357.975146 
L 153.231905 357.975146 
L 153.307845 354.084639 
L 153.453343 354.084639 
L 153.581859 352.973066 
L 155.029249 352.973066 
L 155.466811 352.417279 
L 157.593979 352.417279 
L 160.548757 351.861492 
L 160.696532 363.533012 
L 160.703786 352.417279 
L 160.893032 351.861492 
L 161.9461 351.861492 
L 163.544133 351.305706 
L 165.154536 351.305706 
L 166.433767 350.749919 
L 169.959993 349.638346 
L 171.99199 349.638346 
L 173.625054 349.082559 
L 173.879163 346.303626 
L 174.051146 346.303626 
L 174.355469 345.747839 
L 175.942845 345.192052 
L 176.309782 342.968906 
L 178.503668 341.857332 
L 178.530096 342.413119 
L 178.736802 341.857332 
L 181.550327 340.745759 
L 183.661187 340.189972 
L 184.669721 340.189972 
L 185.563627 339.634186 
L 186.338295 338.522612 
L 187.159945 337.966826 
L 187.457155 337.411039 
L 189.395639 337.966826 
L 191.187359 336.855252 
L 191.395302 337.411039 
L 191.871495 337.411039 
L 191.96706 336.855252 
L 193.243423 336.299466 
L 194.049271 336.855252 
L 195.526772 335.743679 
L 196.49108 335.743679 
L 198.54824 335.187892 
L 198.889366 335.743679 
L 199.249077 334.076319 
L 200.497267 334.076319 
L 200.744235 333.520532 
L 201.819036 331.297386 
L 202.122713 330.185812 
L 202.911298 330.741599 
L 203.258694 329.630026 
L 203.293445 329.074239 
L 206.086221 329.074239 
L 207.500687 328.518452 
L 207.863349 327.962666 
L 210.058051 327.962666 
L 211.602326 327.406879 
L 214.225256 327.406879 
L 214.876356 326.851092 
L 222.088955 326.851092 
L 222.503182 326.295306 
L 222.54468 325.739519 
L 222.825161 325.183732 
L 225.955492 325.183732 
L 226.150586 324.627946 
L 226.947016 324.072159 
L 227.084951 323.516372 
L 228.404471 322.960586 
L 229.364196 322.404799 
L 233.209365 322.404799 
L 234.110554 321.293226 
L 238.063602 321.293226 
L 238.943957 320.737439 
L 242.628052 320.737439 
L 242.995045 320.181652 
L 243.90911 319.625866 
L 244.181213 319.070079 
L 244.2736 318.514292 
L 247.011804 317.958506 
L 247.351215 318.514292 
L 250.955884 317.402719 
L 253.805931 316.291146 
L 254.191929 315.735359 
L 259.598272 315.735359 
L 260.298349 315.179572 
L 265.337531 315.179572 
L 270.084338 314.623786 
L 270.681401 314.067999 
L 272.673529 313.512212 
L 274.671281 312.956426 
L 274.978753 312.400639 
L 279.461161 312.400639 
L 280.827016 311.844852 
L 291.134914 311.844852 
L 292.403966 311.289066 
L 300.918569 311.289066 
L 301.382785 310.733279 
L 301.877507 311.289066 
L 304.093014 310.733279 
L 311.549094 310.733279 
L 312.548265 310.177492 
L 328.321295 310.177492 
L 328.344575 309.621706 
L 338.086001 309.621706 
L 340.226242 309.065919 
L 340.231724 308.510132 
L 350.931301 308.510132 
L 350.936052 307.398559 
L 357.270265 307.398559 
L 360.173253 306.842772 
L 363.769488 306.842772 
L 367.08659 305.731199 
L 373.768227 305.731199 
L 374.16103 305.175412 
L 374.2131 304.619626 
L 376.739058 304.619626 
L 376.752554 304.063839 
L 377.014844 304.063839 
L 377.432951 303.508052 
L 381.181009 303.508052 
L 381.323246 302.952266 
L 386.32762 302.952266 
L 386.53261 302.396479 
L 398.75411 302.396479 
L 399.403889 300.729119 
L 399.404817 300.173332 
L 401.136286 300.173332 
L 401.140419 299.617546 
L 406.24764 299.617546 
L 406.360946 299.061759 
L 408.805848 299.061759 
L 408.893681 298.505972 
L 417.976359 298.505972 
L 418.265612 297.950186 
L 420.25923 297.950186 
L 420.333399 297.394399 
L 420.99763 296.838612 
L 437.674519 296.838612 
L 438.543122 295.727039 
L 439.843298 295.727039 
L 440.108259 295.171252 
L 441.40852 295.171252 
L 441.601224 294.615466 
L 444.673328 294.615466 
L 444.710047 294.059679 
L 461.712655 294.059679 
L 461.787892 292.948106 
L 483.040478 292.948106 
L 483.592443 292.392319 
L 519.878845 292.392319 
L 521.583689 291.836532 
L 536.918594 291.836532 
L 537.001085 291.280746 
L 543.866485 291.280746 
L 544.200189 290.724959 
L 680.079468 290.724959 
L 680.471877 290.169172 
L 697.724179 290.169172 
L 698.173438 289.613386 
L 704.396763 289.613386 
L 705.524338 289.057599 
L 705.537749 285.167092 
L 711.413734 285.167092 
L 711.483264 282.388159 
L 785.003956 282.388159 
L 785.479024 281.832372 
L 812.012614 281.832372 
L 812.012614 281.832372 
" clip-path="url(#p76c8e2a07b)" style="fill: none; stroke: #f85149; stroke-width: 2; stroke-linecap: square"/>
   </g>
   <g id="line2d_33">
    <path d="M 85.239886 454.682026 
L 85.255772 454.126239 
L 85.381015 -1 
M 85.493583 -1 
L 85.617507 101.201706 
L 87.574378 101.201706 
L 87.583319 97.866986 
L 89.950762 97.866986 
L 90.119962 98.422772 
L 90.394004 98.422772 
L 90.660371 98.978559 
L 92.310895 99.534346 
L 92.343481 98.978559 
L 92.403536 99.534346 
L 97.533784 99.534346 
L 100.617275 98.422772 
L 101.076064 99.534346 
L 101.411061 98.978559 
L 102.255372 99.534346 
L 102.608616 96.755412 
L 103.296435 96.755412 
L 104.298755 98.422772 
L 104.363786 95.643839 
L 105.132916 96.199626 
L 107.134604 96.199626 
L 107.662586 95.088052 
L 108.446842 95.088052 
L 108.70424 91.197546 
L 113.545347 91.197546 
L 113.920156 86.751252 
L 115.459455 86.751252 
L 117.729225 82.860746 
L 118.919891 82.860746 
L 118.937913 83.416532 
L 121.67232 83.416532 
L 122.350637 80.081812 
L 124.497345 80.081812 
L 124.512246 80.637599 
L 136.534884 80.637599 
L 138.782218 81.193386 
L 138.858945 80.637599 
L 141.189726 81.193386 
L 149.300646 81.193386 
L 153.231905 81.749172 
L 153.307845 74.523946 
L 153.494589 75.079732 
L 155.712345 75.079732 
L 156.656241 75.635519 
L 160.548757 75.635519 
L 160.696532 80.637599 
L 160.703786 71.745012 
L 160.893032 71.745012 
L 161.9461 73.968159 
L 166.433767 73.968159 
L 169.959993 70.077652 
L 173.879163 70.077652 
L 174.051146 68.410292 
L 184.235082 68.410292 
L 184.669721 68.966079 
L 187.142513 68.966079 
L 187.159945 70.077652 
L 191.871495 70.077652 
L 191.96706 73.412372 
L 199.249077 73.412372 
L 199.423 68.410292 
L 200.494709 67.298719 
L 200.497267 67.854506 
L 200.744235 67.854506 
L 201.624139 65.075572 
L 202.911298 65.075572 
L 203.258694 65.631359 
L 203.293445 65.075572 
L 204.088947 65.631359 
L 204.092574 66.187146 
L 204.111158 65.631359 
L 204.570679 63.408212 
L 208.756609 63.408212 
L 210.058051 63.963999 
L 211.602326 63.963999 
L 214.225256 64.519786 
L 216.708338 64.519786 
L 218.626776 65.631359 
L 222.54468 65.075572 
L 222.825161 65.075572 
L 225.267392 66.187146 
L 225.955492 65.631359 
L 229.364196 65.631359 
L 233.207285 67.854506 
L 233.209365 67.298719 
L 238.943957 67.298719 
L 240.722464 67.854506 
L 272.417565 67.854506 
L 272.673529 68.410292 
L 274.657026 68.410292 
L 274.671281 66.742932 
L 284.232008 66.742932 
L 284.425134 67.298719 
L 304.093014 67.298719 
L 308.423823 67.854506 
L 308.448874 67.298719 
L 311.549094 68.966079 
L 312.548265 68.966079 
L 313.495056 68.410292 
L 316.098839 68.410292 
L 318.583159 68.966079 
L 318.587236 69.521866 
L 325.631226 67.854506 
L 326.300011 68.410292 
L 334.974957 68.410292 
L 335.344142 67.854506 
L 336.020434 68.410292 
L 336.252837 70.633439 
L 340.228294 70.633439 
L 340.231724 71.189226 
L 352.396544 71.189226 
L 353.104943 71.745012 
L 355.442809 71.745012 
L 355.670883 72.300799 
L 367.071099 72.300799 
L 367.08659 72.856586 
L 369.091933 72.856586 
L 369.937959 73.412372 
L 369.942204 73.968159 
L 370.6341 73.412372 
L 370.670229 73.968159 
L 371.744665 73.968159 
L 371.913471 74.523946 
L 374.16103 74.523946 
L 374.2131 73.412372 
L 374.56266 74.523946 
L 375.82862 72.856586 
L 378.889928 72.856586 
L 379.227933 71.189226 
L 380.142476 71.189226 
L 380.646279 72.300799 
L 383.242358 72.300799 
L 384.094204 72.856586 
L 384.301106 72.856586 
L 385.101753 70.077652 
L 386.53261 70.077652 
L 386.859426 70.633439 
L 393.482357 70.633439 
L 393.64554 71.189226 
L 394.258094 71.189226 
L 395.209103 71.745012 
L 405.921247 71.745012 
L 406.017486 72.300799 
L 406.360946 72.300799 
L 407.077949 73.412372 
L 408.083193 73.412372 
L 408.324903 72.856586 
L 408.557784 72.856586 
L 408.646151 73.412372 
L 411.334449 73.412372 
L 411.792115 73.968159 
L 414.132061 73.968159 
L 414.282086 74.523946 
L 415.563818 74.523946 
L 415.716458 75.079732 
L 419.629273 75.079732 
L 419.714913 75.635519 
L 422.038046 75.635519 
L 422.81398 77.858666 
L 423.67426 77.858666 
L 423.67516 78.414452 
L 427.168238 78.414452 
L 427.808626 78.970239 
L 430.483232 78.970239 
L 431.010033 79.526026 
L 433.037784 79.526026 
L 433.189749 80.081812 
L 436.487396 80.081812 
L 437.337414 80.637599 
L 437.399324 81.193386 
L 437.674519 81.193386 
L 438.543122 60.629279 
L 441.236902 60.629279 
L 441.256302 61.185066 
L 441.40852 61.185066 
L 441.601224 60.629279 
L 443.819992 60.629279 
L 444.064288 61.185066 
L 444.355734 61.185066 
L 444.648895 61.740852 
L 444.710047 61.185066 
L 445.904902 61.185066 
L 445.914236 61.740852 
L 446.173237 61.740852 
L 446.286655 62.296639 
L 447.070349 62.852426 
L 452.522969 62.852426 
L 453.375208 63.408212 
L 453.945701 63.408212 
L 454.40854 63.963999 
L 454.876748 63.408212 
L 456.804549 63.408212 
L 456.887686 64.519786 
L 459.655186 64.519786 
L 460.728976 66.187146 
L 472.3842 66.187146 
L 473.061589 66.742932 
L 491.052066 66.742932 
L 491.162588 67.298719 
L 517.597717 67.298719 
L 517.722522 68.410292 
L 517.730816 67.854506 
L 521.583689 67.854506 
L 522.453613 68.410292 
L 537.632617 68.410292 
L 541.04506 68.966079 
L 541.848294 69.521866 
L 541.855013 67.854506 
L 566.216309 67.854506 
L 566.452761 68.410292 
L 588.116537 68.410292 
L 590.897223 68.966079 
L 592.598131 68.966079 
L 592.78271 69.521866 
L 593.964913 70.077652 
L 597.280216 70.077652 
L 598.676492 70.633439 
L 600.137545 70.633439 
L 600.251329 71.189226 
L 602.654479 71.189226 
L 602.941539 71.745012 
L 602.998361 72.300799 
L 607.27696 72.300799 
L 607.293548 72.856586 
L 610.344874 72.856586 
L 610.936566 72.300799 
L 610.944607 72.856586 
L 612.178937 73.412372 
L 614.370208 73.412372 
L 615.947098 73.968159 
L 617.358303 73.968159 
L 619.438236 61.740852 
L 621.866521 61.740852 
L 621.877768 64.519786 
L 634.087262 64.519786 
L 634.088528 65.075572 
L 634.299704 65.631359 
L 635.469143 65.631359 
L 635.723504 66.187146 
L 639.559339 66.187146 
L 640.446076 66.742932 
L 640.591968 66.187146 
L 647.452785 66.187146 
L 647.454331 66.742932 
L 658.304663 66.742932 
L 658.37886 67.854506 
L 659.949564 69.521866 
L 661.525611 69.521866 
L 661.693489 70.077652 
L 668.318754 70.077652 
L 668.440578 70.633439 
L 675.093087 70.633439 
L 675.237995 71.189226 
L 677.071467 72.856586 
L 677.213535 73.412372 
L 695.275173 73.412372 
L 696.98519 76.191306 
L 701.06549 76.191306 
L 701.331266 76.747092 
L 704.396763 76.747092 
L 705.537749 77.858666 
L 721.695456 77.858666 
L 721.900306 78.414452 
L 724.265613 78.414452 
L 724.51899 78.970239 
L 740.100554 78.970239 
L 740.108539 80.637599 
L 740.592492 80.637599 
L 740.785309 81.193386 
L 743.452014 81.193386 
L 743.843045 81.749172 
L 743.845379 81.193386 
L 750.883718 81.193386 
L 752.581645 81.749172 
L 784.258949 81.749172 
L 784.26207 82.304959 
L 796.875698 82.304959 
L 798.4545 82.860746 
L 812.012614 82.860746 
L 812.012614 82.860746 
" clip-path="url(#p76c8e2a07b)" style="fill: none; stroke: #9467bd; stroke-width: 2; stroke-linecap: square"/>
   </g>
   <g id="patch_3">
    <path d="M 48.90125 455.237812 
L 48.90125 38.397812 
" style="fill: none; stroke: #30363d; stroke-width: 0.8; stroke-linejoin: miter; stroke-linecap: square"/>
   </g>
   <g id="patch_4">
    <path d="M 848.35125 455.237812 
L 848.35125 38.397812 
" style="fill: none; stroke: #30363d; stroke-width: 0.8; stroke-linejoin: miter; stroke-linecap: square"/>
   </g>
   <g id="patch_5">
    <path d="M 48.90125 455.237812 
L 848.35125 455.237812 
" style="fill: none; stroke: #30363d; stroke-width: 0.8; stroke-linejoin: miter; stroke-linecap: square"/>
   </g>
   <g id="patch_6">
    <path d="M 48.90125 38.397812 
L 848.35125 38.397812 
" style="fill: none; stroke: #30363d; stroke-width: 0.8; stroke-linejoin: miter; stroke-linecap: square"/>
   </g>
   <g id="text_17">
    <!-- 547 -->
    <g style="fill: #3fb950" transform="translate(817.012614 153.705943) scale(0.09 -0.09)">
     <defs>
      <path id="DejaVuSans-Bold-35" d="M 678 4666 
L 3669 4666 
L 3669 3781 
L 1638 3781 
L 1638 3059 
Q 1775 3097 1914 3117 
Q 2053 3138 2203 3138 
Q 3056 3138 3531 2711 
Q 4006 2284 4006 1522 
Q 4006 766 3489 337 
Q 2972 -91 2053 -91 
Q 1656 -91 1267 -14 
Q 878 63 494 219 
L 494 1166 
Q 875 947 1217 837 
Q 1559 728 1863 728 
Q 2300 728 2551 942 
Q 2803 1156 2803 1522 
Q 2803 1891 2551 2103 
Q 2300 2316 1863 2316 
Q 1603 2316 1309 2248 
Q 1016 2181 678 2041 
L 678 4666 
z
" transform="scale(0.015625)"/>
      <path id="DejaVuSans-Bold-34" d="M 2356 3675 
L 1038 1722 
L 2356 1722 
L 2356 3675 
z
M 2156 4666 
L 3494 4666 
L 3494 1722 
L 4159 1722 
L 4159 850 
L 3494 850 
L 3494 0 
L 2356 0 
L 2356 850 
L 288 850 
L 288 1881 
L 2156 4666 
z
" transform="scale(0.015625)"/>
      <path id="DejaVuSans-Bold-37" d="M 428 4666 
L 3944 4666 
L 3944 3988 
L 2125 0 
L 953 0 
L 2675 3781 
L 428 3781 
L 428 4666 
z
" transform="scale(0.015625)"/>
     </defs>
     <use xlink:href="#DejaVuSans-Bold-35"/>
     <use xlink:href="#DejaVuSans-Bold-34" transform="translate(69.580078 0)"/>
     <use xlink:href="#DejaVuSans-Bold-37" transform="translate(139.160156 0)"/>
    </g>
   </g>
   <g id="text_18">
    <!-- 469 -->
    <g style="fill: #58a6ff" transform="translate(817.012614 197.057303) scale(0.09 -0.09)">
     <defs>
      <path id="DejaVuSans-Bold-36" d="M 2316 2303 
Q 2000 2303 1842 2098 
Q 1684 1894 1684 1484 
Q 1684 1075 1842 870 
Q 2000 666 2316 666 
Q 2634 666 2792 870 
Q 2950 1075 2950 1484 
Q 2950 1894 2792 2098 
Q 2634 2303 2316 2303 
z
M 3803 4544 
L 3803 3681 
Q 3506 3822 3243 3889 
Q 2981 3956 2731 3956 
Q 2194 3956 1894 3657 
Q 1594 3359 1544 2772 
Q 1750 2925 1990 3001 
Q 2231 3078 2516 3078 
Q 3231 3078 3670 2659 
Q 4109 2241 4109 1563 
Q 4109 813 3618 361 
Q 3128 -91 2303 -91 
Q 1394 -91 895 523 
Q 397 1138 397 2266 
Q 397 3422 980 4083 
Q 1563 4744 2578 4744 
Q 2900 4744 3203 4694 
Q 3506 4644 3803 4544 
z
" transform="scale(0.015625)"/>
      <path id="DejaVuSans-Bold-39" d="M 641 103 
L 641 966 
Q 928 831 1190 764 
Q 1453 697 1709 697 
Q 2247 697 2547 995 
Q 2847 1294 2900 1881 
Q 2688 1725 2447 1647 
Q 2206 1569 1925 1569 
Q 1209 1569 770 1986 
Q 331 2403 331 3084 
Q 331 3838 820 4291 
Q 1309 4744 2131 4744 
Q 3044 4744 3544 4128 
Q 4044 3513 4044 2388 
Q 4044 1231 3459 570 
Q 2875 -91 1856 -91 
Q 1528 -91 1228 -42 
Q 928 6 641 103 
z
M 2125 2350 
Q 2441 2350 2600 2554 
Q 2759 2759 2759 3169 
Q 2759 3575 2600 3781 
Q 2441 3988 2125 3988 
Q 1809 3988 1650 3781 
Q 1491 3575 1491 3169 
Q 1491 2759 1650 2554 
Q 1809 2350 2125 2350 
z
" transform="scale(0.015625)"/>
     </defs>
     <use xlink:href="#DejaVuSans-Bold-34"/>
     <use xlink:href="#DejaVuSans-Bold-36" transform="translate(69.580078 0)"/>
     <use xlink:href="#DejaVuSans-Bold-39" transform="translate(139.160156 0)"/>
    </g>
   </g>
   <g id="text_19">
    <!-- 199 -->
    <g style="fill: #d29922" transform="translate(817.012614 347.119703) scale(0.09 -0.09)">
     <defs>
      <path id="DejaVuSans-Bold-31" d="M 750 831 
L 1813 831 
L 1813 3847 
L 722 3622 
L 722 4441 
L 1806 4666 
L 2950 4666 
L 2950 831 
L 4013 831 
L 4013 0 
L 750 0 
L 750 831 
z
" transform="scale(0.015625)"/>
     </defs>
     <use xlink:href="#DejaVuSans-Bold-31"/>
     <use xlink:href="#DejaVuSans-Bold-39" transform="translate(69.580078 0)"/>
     <use xlink:href="#DejaVuSans-Bold-39" transform="translate(139.160156 0)"/>
    </g>
   </g>
   <g id="text_20">
    <!-- 312 -->
    <g style="fill: #f85149" transform="translate(817.012614 284.31581) scale(0.09 -0.09)">
     <defs>
      <path id="DejaVuSans-Bold-33" d="M 2981 2516 
Q 3453 2394 3698 2092 
Q 3944 1791 3944 1325 
Q 3944 631 3412 270 
Q 2881 -91 1863 -91 
Q 1503 -91 1142 -33 
Q 781 25 428 141 
L 428 1069 
Q 766 900 1098 814 
Q 1431 728 1753 728 
Q 2231 728 2486 893 
Q 2741 1059 2741 1369 
Q 2741 1688 2480 1852 
Q 2219 2016 1709 2016 
L 1228 2016 
L 1228 2791 
L 1734 2791 
Q 2188 2791 2409 2933 
Q 2631 3075 2631 3366 
Q 2631 3634 2415 3781 
Q 2200 3928 1806 3928 
Q 1516 3928 1219 3862 
Q 922 3797 628 3669 
L 628 4550 
Q 984 4650 1334 4700 
Q 1684 4750 2022 4750 
Q 2931 4750 3382 4451 
Q 3834 4153 3834 3553 
Q 3834 3144 3618 2883 
Q 3403 2622 2981 2516 
z
" transform="scale(0.015625)"/>
      <path id="DejaVuSans-Bold-32" d="M 1844 884 
L 3897 884 
L 3897 0 
L 506 0 
L 506 884 
L 2209 2388 
Q 2438 2594 2547 2791 
Q 2656 2988 2656 3200 
Q 2656 3528 2436 3728 
Q 2216 3928 1850 3928 
Q 1569 3928 1234 3808 
Q 900 3688 519 3450 
L 519 4475 
Q 925 4609 1322 4679 
Q 1719 4750 2100 4750 
Q 2938 4750 3402 4381 
Q 3866 4013 3866 3353 
Q 3866 2972 3669 2642 
Q 3472 2313 2841 1759 
L 1844 884 
z
" transform="scale(0.015625)"/>
     </defs>
     <use xlink:href="#DejaVuSans-Bold-33"/>
     <use xlink:href="#DejaVuSans-Bold-31" transform="translate(69.580078 0)"/>
     <use xlink:href="#DejaVuSans-Bold-32" transform="translate(139.160156 0)"/>
    </g>
   </g>
   <g id="text_21">
    <!-- 670 -->
    <g style="fill: #9467bd" transform="translate(817.012614 85.344183) scale(0.09 -0.09)">
     <defs>
      <path id="DejaVuSans-Bold-30" d="M 2944 2338 
Q 2944 3213 2780 3570 
Q 2616 3928 2228 3928 
Q 1841 3928 1675 3570 
Q 1509 3213 1509 2338 
Q 1509 1453 1675 1090 
Q 1841 728 2228 728 
Q 2613 728 2778 1090 
Q 2944 1453 2944 2338 
z
M 4147 2328 
Q 4147 1169 3647 539 
Q 3147 -91 2228 -91 
Q 1306 -91 806 539 
Q 306 1169 306 2328 
Q 306 3491 806 4120 
Q 1306 4750 2228 4750 
Q 3147 4750 3647 4120 
Q 4147 3491 4147 2328 
z
" transform="scale(0.015625)"/>
     </defs>
     <use xlink:href="#DejaVuSans-Bold-36"/>
     <use xlink:href="#DejaVuSans-Bold-37" transform="translate(69.580078 0)"/>
     <use xlink:href="#DejaVuSans-Bold-30" transform="translate(139.160156 0)"/>
    </g>
   </g>
   <g id="text_22">
    <!-- Erdős Problems Progress -->
    <g style="fill: #c9d1d9" transform="translate(349.588281 18.397812) scale(0.14 -0.14)">
     <defs>
      <path id="DejaVuSans-Bold-45" d="M 588 4666 
L 3834 4666 
L 3834 3756 
L 1791 3756 
L 1791 2888 
L 3713 2888 
L 3713 1978 
L 1791 1978 
L 1791 909 
L 3903 909 
L 3903 0 
L 588 0 
L 588 4666 
z
" transform="scale(0.015625)"/>
      <path id="DejaVuSans-Bold-72" d="M 3138 2547 
Q 2991 2616 2845 2648 
Q 2700 2681 2553 2681 
Q 2122 2681 1889 2404 
Q 1656 2128 1656 1613 
L 1656 0 
L 538 0 
L 538 3500 
L 1656 3500 
L 1656 2925 
Q 1872 3269 2151 3426 
Q 2431 3584 2822 3584 
Q 2878 3584 2943 3579 
Q 3009 3575 3134 3559 
L 3138 2547 
z
" transform="scale(0.015625)"/>
      <path id="DejaVuSans-Bold-64" d="M 2919 2988 
L 2919 4863 
L 4044 4863 
L 4044 0 
L 2919 0 
L 2919 506 
Q 2688 197 2409 53 
Q 2131 -91 1766 -91 
Q 1119 -91 703 423 
Q 288 938 288 1747 
Q 288 2556 703 3070 
Q 1119 3584 1766 3584 
Q 2128 3584 2408 3439 
Q 2688 3294 2919 2988 
z
M 2181 722 
Q 2541 722 2730 984 
Q 2919 1247 2919 1747 
Q 2919 2247 2730 2509 
Q 2541 2772 2181 2772 
Q 1825 2772 1636 2509 
Q 1447 2247 1447 1747 
Q 1447 1247 1636 984 
Q 1825 722 2181 722 
z
" transform="scale(0.015625)"/>
      <path id="DejaVuSans-Bold-151" d="M 1881 5119 
L 2560 5119 
L 1785 3944 
L 1275 3944 
L 1881 5119 
z
M 3016 5119 
L 3738 5119 
L 2888 3944 
L 2344 3944 
L 3016 5119 
z
M 2203 2784 
Q 1831 2784 1636 2517 
Q 1441 2250 1441 1747 
Q 1441 1244 1636 976 
Q 1831 709 2203 709 
Q 2569 709 2762 976 
Q 2956 1244 2956 1747 
Q 2956 2250 2762 2517 
Q 2569 2784 2203 2784 
z
M 2203 3584 
Q 3106 3584 3614 3096 
Q 4122 2609 4122 1747 
Q 4122 884 3614 396 
Q 3106 -91 2203 -91 
Q 1297 -91 786 396 
Q 275 884 275 1747 
Q 275 2609 786 3096 
Q 1297 3584 2203 3584 
z
" transform="scale(0.015625)"/>
      <path id="DejaVuSans-Bold-73" d="M 3272 3391 
L 3272 2541 
Q 2913 2691 2578 2766 
Q 2244 2841 1947 2841 
Q 1628 2841 1473 2761 
Q 1319 2681 1319 2516 
Q 1319 2381 1436 2309 
Q 1553 2238 1856 2203 
L 2053 2175 
Q 2913 2066 3209 1816 
Q 3506 1566 3506 1031 
Q 3506 472 3093 190 
Q 2681 -91 1863 -91 
Q 1516 -91 1145 -36 
Q 775 19 384 128 
L 384 978 
Q 719 816 1070 734 
Q 1422 653 1784 653 
Q 2113 653 2278 743 
Q 2444 834 2444 1013 
Q 2444 1163 2330 1236 
Q 2216 1309 1875 1350 
L 1678 1375 
Q 931 1469 631 1722 
Q 331 1975 331 2491 
Q 331 3047 712 3315 
Q 1094 3584 1881 3584 
Q 2191 3584 2531 3537 
Q 2872 3491 3272 3391 
z
" transform="scale(0.015625)"/>
      <path id="DejaVuSans-Bold-20" transform="scale(0.015625)"/>
      <path id="DejaVuSans-Bold-50" d="M 588 4666 
L 2584 4666 
Q 3475 4666 3951 4270 
Q 4428 3875 4428 3144 
Q 4428 2409 3951 2014 
Q 3475 1619 2584 1619 
L 1791 1619 
L 1791 0 
L 588 0 
L 588 4666 
z
M 1791 3794 
L 1791 2491 
L 2456 2491 
Q 2806 2491 2997 2661 
Q 3188 2831 3188 3144 
Q 3188 3456 2997 3625 
Q 2806 3794 2456 3794 
L 1791 3794 
z
" transform="scale(0.015625)"/>
      <path id="DejaVuSans-Bold-6f" d="M 2203 2784 
Q 1831 2784 1636 2517 
Q 1441 2250 1441 1747 
Q 1441 1244 1636 976 
Q 1831 709 2203 709 
Q 2569 709 2762 976 
Q 2956 1244 2956 1747 
Q 2956 2250 2762 2517 
Q 2569 2784 2203 2784 
z
M 2203 3584 
Q 3106 3584 3614 3096 
Q 4122 2609 4122 1747 
Q 4122 884 3614 396 
Q 3106 -91 2203 -91 
Q 1297 -91 786 396 
Q 275 884 275 1747 
Q 275 2609 786 3096 
Q 1297 3584 2203 3584 
z
" transform="scale(0.015625)"/>
      <path id="DejaVuSans-Bold-62" d="M 2400 722 
Q 2759 722 2948 984 
Q 3138 1247 3138 1747 
Q 3138 2247 2948 2509 
Q 2759 2772 2400 2772 
Q 2041 2772 1848 2508 
Q 1656 2244 1656 1747 
Q 1656 1250 1848 986 
Q 2041 722 2400 722 
z
M 1656 2988 
Q 1888 3294 2169 3439 
Q 2450 3584 2816 3584 
Q 3463 3584 3878 3070 
Q 4294 2556 4294 1747 
Q 4294 938 3878 423 
Q 3463 -91 2816 -91 
Q 2450 -91 2169 54 
Q 1888 200 1656 506 
L 1656 0 
L 538 0 
L 538 4863 
L 1656 4863 
L 1656 2988 
z
" transform="scale(0.015625)"/>
      <path id="DejaVuSans-Bold-6c" d="M 538 4863 
L 1656 4863 
L 1656 0 
L 538 0 
L 538 4863 
z
" transform="scale(0.015625)"/>
      <path id="DejaVuSans-Bold-65" d="M 4031 1759 
L 4031 1441 
L 1416 1441 
Q 1456 1047 1700 850 
Q 1944 653 2381 653 
Q 2734 653 3104 758 
Q 3475 863 3866 1075 
L 3866 213 
Q 3469 63 3072 -14 
Q 2675 -91 2278 -91 
Q 1328 -91 801 392 
Q 275 875 275 1747 
Q 275 2603 792 3093 
Q 1309 3584 2216 3584 
Q 3041 3584 3536 3087 
Q 4031 2591 4031 1759 
z
M 2881 2131 
Q 2881 2450 2695 2645 
Q 2509 2841 2209 2841 
Q 1884 2841 1681 2658 
Q 1478 2475 1428 2131 
L 2881 2131 
z
" transform="scale(0.015625)"/>
      <path id="DejaVuSans-Bold-6d" d="M 3781 2919 
Q 3994 3244 4286 3414 
Q 4578 3584 4928 3584 
Q 5531 3584 5847 3212 
Q 6163 2841 6163 2131 
L 6163 0 
L 5038 0 
L 5038 1825 
Q 5041 1866 5042 1909 
Q 5044 1953 5044 2034 
Q 5044 2406 4934 2573 
Q 4825 2741 4581 2741 
Q 4263 2741 4089 2478 
Q 3916 2216 3909 1719 
L 3909 0 
L 2784 0 
L 2784 1825 
Q 2784 2406 2684 2573 
Q 2584 2741 2328 2741 
Q 2006 2741 1831 2477 
Q 1656 2213 1656 1722 
L 1656 0 
L 531 0 
L 531 3500 
L 1656 3500 
L 1656 2988 
Q 1863 3284 2130 3434 
Q 2397 3584 2719 3584 
Q 3081 3584 3359 3409 
Q 3638 3234 3781 2919 
z
" transform="scale(0.015625)"/>
      <path id="DejaVuSans-Bold-67" d="M 2919 594 
Q 2688 288 2409 144 
Q 2131 0 1766 0 
Q 1125 0 706 504 
Q 288 1009 288 1791 
Q 288 2575 706 3076 
Q 1125 3578 1766 3578 
Q 2131 3578 2409 3434 
Q 2688 3291 2919 2981 
L 2919 3500 
L 4044 3500 
L 4044 353 
Q 4044 -491 3511 -936 
Q 2978 -1381 1966 -1381 
Q 1638 -1381 1331 -1331 
Q 1025 -1281 716 -1178 
L 716 -306 
Q 1009 -475 1290 -558 
Q 1572 -641 1856 -641 
Q 2406 -641 2662 -400 
Q 2919 -159 2919 353 
L 2919 594 
z
M 2181 2772 
Q 1834 2772 1640 2515 
Q 1447 2259 1447 1791 
Q 1447 1309 1634 1061 
Q 1822 813 2181 813 
Q 2531 813 2725 1069 
Q 2919 1325 2919 1791 
Q 2919 2259 2725 2515 
Q 2531 2772 2181 2772 
z
" transform="scale(0.015625)"/>
     </defs>
     <use xlink:href="#DejaVuSans-Bold-45"/>
     <use xlink:href="#DejaVuSans-Bold-72" transform="translate(68.310547 0)"/>
     <use xlink:href="#DejaVuSans-Bold-64" transform="translate(117.626953 0)"/>
     <use xlink:href="#DejaVuSans-Bold-151" transform="translate(189.208984 0)"/>
     <use xlink:href="#DejaVuSans-Bold-73" transform="translate(257.910156 0)"/>
     <use xlink:href="#DejaVuSans-Bold-20" transform="translate(317.431641 0)"/>
     <use xlink:href="#DejaVuSans-Bold-50" transform="translate(352.246094 0)"/>
     <use xlink:href="#DejaVuSans-Bold-72" transform="translate(425.537109 0)"/>
     <use xlink:href="#DejaVuSans-Bold-6f" transform="translate(474.853516 0)"/>
     <use xlink:href="#DejaVuSans-Bold-62" transform="translate(543.554688 0)"/>
     <use xlink:href="#DejaVuSans-Bold-6c" transform="translate(615.136719 0)"/>
     <use xlink:href="#DejaVuSans-Bold-65" transform="translate(649.414062 0)"/>
     <use xlink:href="#DejaVuSans-Bold-6d" transform="translate(717.236328 0)"/>
     <use xlink:href="#DejaVuSans-Bold-73" transform="translate(821.435547 0)"/>
     <use xlink:href="#DejaVuSans-Bold-20" transform="translate(880.957031 0)"/>
     <use xlink:href="#DejaVuSans-Bold-50" transform="translate(915.771484 0)"/>
     <use xlink:href="#DejaVuSans-Bold-72" transform="translate(989.0625 0)"/>
     <use xlink:href="#DejaVuSans-Bold-6f" transform="translate(1038.378906 0)"/>
     <use xlink:href="#DejaVuSans-Bold-67" transform="translate(1107.080078 0)"/>
     <use xlink:href="#DejaVuSans-Bold-72" transform="translate(1178.662109 0)"/>
     <use xlink:href="#DejaVuSans-Bold-65" transform="translate(1227.978516 0)"/>
     <use xlink:href="#DejaVuSans-Bold-73" transform="translate(1295.800781 0)"/>
     <use xlink:href="#DejaVuSans-Bold-73" transform="translate(1355.322266 0)"/>
    </g>
   </g>
   <g id="legend_1">
    <g id="patch_7">
     <path d="M 55.90125 119.788437 
L 213.771563 119.788437 
Q 215.771563 119.788437 215.771563 117.788437 
L 215.771563 45.397812 
Q 215.771563 43.397812 213.771563 43.397812 
L 55.90125 43.397812 
Q 53.90125 43.397812 53.90125 45.397812 
L 53.90125 117.788437 
Q 53.90125 119.788437 55.90125 119.788437 
z
" style="fill: #161b22; opacity: 0.8; stroke: #30363d; stroke-linejoin: miter"/>
    </g>
    <g id="line2d_34">
     <path d="M 57.90125 51.49625 
L 67.90125 51.49625 
L 77.90125 51.49625 
" style="fill: none; stroke: #3fb950; stroke-width: 2; stroke-linecap: square"/>
    </g>
    <g id="text_23">
     <!-- Solved -->
     <g style="fill: #c9d1d9" transform="translate(85.90125 54.99625) scale(0.1 -0.1)">
      <defs>
       <path id="DejaVuSans-64" d="M 2906 2969 
L 2906 4863 
L 3481 4863 
L 3481 0 
L 2906 0 
L 2906 525 
Q 2725 213 2448 61 
Q 2172 -91 1784 -91 
Q 1150 -91 751 415 
Q 353 922 353 1747 
Q 353 2572 751 3078 
Q 1150 3584 1784 3584 
Q 2172 3584 2448 3432 
Q 2725 3281 2906 2969 
z
M 947 1747 
Q 947 1113 1208 752 
Q 1469 391 1925 391 
Q 2381 391 2643 752 
Q 2906 1113 2906 1747 
Q 2906 2381 2643 2742 
Q 2381 3103 1925 3103 
Q 1469 3103 1208 2742 
Q 947 2381 947 1747 
z
" transform="scale(0.015625)"/>
      </defs>
      <use xlink:href="#DejaVuSans-53"/>
      <use xlink:href="#DejaVuSans-6f" transform="translate(63.476562 0)"/>
      <use xlink:href="#DejaVuSans-6c" transform="translate(124.658203 0)"/>
      <use xlink:href="#DejaVuSans-76" transform="translate(152.441406 0)"/>
      <use xlink:href="#DejaVuSans-65" transform="translate(211.621094 0)"/>
      <use xlink:href="#DejaVuSans-64" transform="translate(273.144531 0)"/>
     </g>
    </g>
    <g id="line2d_35">
     <path d="M 57.90125 66.174375 
L 67.90125 66.174375 
L 77.90125 66.174375 
" style="fill: none; stroke: #58a6ff; stroke-width: 2; stroke-linecap: square"/>
    </g>
    <g id="text_24">
     <!-- Lean Formalized Problem -->
     <g style="fill: #c9d1d9" transform="translate(85.90125 69.674375) scale(0.1 -0.1)">
      <defs>
       <path id="DejaVuSans-4c" d="M 628 4666 
L 1259 4666 
L 1259 531 
L 3531 531 
L 3531 0 
L 628 0 
L 628 4666 
z
" transform="scale(0.015625)"/>
       <path id="DejaVuSans-20" transform="scale(0.015625)"/>
       <path id="DejaVuSans-46" d="M 628 4666 
L 3309 4666 
L 3309 4134 
L 1259 4134 
L 1259 2759 
L 3109 2759 
L 3109 2228 
L 1259 2228 
L 1259 0 
L 628 0 
L 628 4666 
z
" transform="scale(0.015625)"/>
       <path id="DejaVuSans-6d" d="M 3328 2828 
Q 3544 3216 3844 3400 
Q 4144 3584 4550 3584 
Q 5097 3584 5394 3201 
Q 5691 2819 5691 2113 
L 5691 0 
L 5113 0 
L 5113 2094 
Q 5113 2597 4934 2840 
Q 4756 3084 4391 3084 
Q 3944 3084 3684 2787 
Q 3425 2491 3425 1978 
L 3425 0 
L 2847 0 
L 2847 2094 
Q 2847 2600 2669 2842 
Q 2491 3084 2119 3084 
Q 1678 3084 1418 2786 
Q 1159 2488 1159 1978 
L 1159 0 
L 581 0 
L 581 3500 
L 1159 3500 
L 1159 2956 
Q 1356 3278 1631 3431 
Q 1906 3584 2284 3584 
Q 2666 3584 2933 3390 
Q 3200 3197 3328 2828 
z
" transform="scale(0.015625)"/>
       <path id="DejaVuSans-69" d="M 603 3500 
L 1178 3500 
L 1178 0 
L 603 0 
L 603 3500 
z
M 603 4863 
L 1178 4863 
L 1178 4134 
L 603 4134 
L 603 4863 
z
" transform="scale(0.015625)"/>
       <path id="DejaVuSans-7a" d="M 353 3500 
L 3084 3500 
L 3084 2975 
L 922 459 
L 3084 459 
L 3084 0 
L 275 0 
L 275 525 
L 2438 3041 
L 353 3041 
L 353 3500 
z
" transform="scale(0.015625)"/>
       <path id="DejaVuSans-50" d="M 1259 4147 
L 1259 2394 
L 2053 2394 
Q 2494 2394 2734 2622 
Q 2975 2850 2975 3272 
Q 2975 3691 2734 3919 
Q 2494 4147 2053 4147 
L 1259 4147 
z
M 628 4666 
L 2053 4666 
Q 2838 4666 3239 4311 
Q 3641 3956 3641 3272 
Q 3641 2581 3239 2228 
Q 2838 1875 2053 1875 
L 1259 1875 
L 1259 0 
L 628 0 
L 628 4666 
z
" transform="scale(0.015625)"/>
       <path id="DejaVuSans-62" d="M 3116 1747 
Q 3116 2381 2855 2742 
Q 2594 3103 2138 3103 
Q 1681 3103 1420 2742 
Q 1159 2381 1159 1747 
Q 1159 1113 1420 752 
Q 1681 391 2138 391 
Q 2594 391 2855 752 
Q 3116 1113 3116 1747 
z
M 1159 2969 
Q 1341 3281 1617 3432 
Q 1894 3584 2278 3584 
Q 2916 3584 3314 3078 
Q 3713 2572 3713 1747 
Q 3713 922 3314 415 
Q 2916 -91 2278 -91 
Q 1894 -91 1617 61 
Q 1341 213 1159 525 
L 1159 0 
L 581 0 
L 581 4863 
L 1159 4863 
L 1159 2969 
z
" transform="scale(0.015625)"/>
      </defs>
      <use xlink:href="#DejaVuSans-4c"/>
      <use xlink:href="#DejaVuSans-65" transform="translate(53.962891 0)"/>
      <use xlink:href="#DejaVuSans-61" transform="translate(115.486328 0)"/>
      <use xlink:href="#DejaVuSans-6e" transform="translate(176.765625 0)"/>
      <use xlink:href="#DejaVuSans-20" transform="translate(240.144531 0)"/>
      <use xlink:href="#DejaVuSans-46" transform="translate(271.931641 0)"/>
      <use xlink:href="#DejaVuSans-6f" transform="translate(325.826172 0)"/>
      <use xlink:href="#DejaVuSans-72" transform="translate(387.007812 0)"/>
      <use xlink:href="#DejaVuSans-6d" transform="translate(426.371094 0)"/>
      <use xlink:href="#DejaVuSans-61" transform="translate(523.783203 0)"/>
      <use xlink:href="#DejaVuSans-6c" transform="translate(585.0625 0)"/>
      <use xlink:href="#DejaVuSans-69" transform="translate(612.845703 0)"/>
      <use xlink:href="#DejaVuSans-7a" transform="translate(640.628906 0)"/>
      <use xlink:href="#DejaVuSans-65" transform="translate(693.119141 0)"/>
      <use xlink:href="#DejaVuSans-64" transform="translate(754.642578 0)"/>
      <use xlink:href="#DejaVuSans-20" transform="translate(818.119141 0)"/>
      <use xlink:href="#DejaVuSans-50" transform="translate(849.90625 0)"/>
      <use xlink:href="#DejaVuSans-72" transform="translate(908.458984 0)"/>
      <use xlink:href="#DejaVuSans-6f" transform="translate(947.322266 0)"/>
      <use xlink:href="#DejaVuSans-62" transform="translate(1008.503906 0)"/>
      <use xlink:href="#DejaVuSans-6c" transform="translate(1071.980469 0)"/>
      <use xlink:href="#DejaVuSans-65" transform="translate(1099.763672 0)"/>
      <use xlink:href="#DejaVuSans-6d" transform="translate(1161.287109 0)"/>
     </g>
    </g>
    <g id="line2d_36">
     <path d="M 57.90125 80.8525 
L 67.90125 80.8525 
L 77.90125 80.8525 
" style="fill: none; stroke: #d29922; stroke-width: 2; stroke-linecap: square"/>
    </g>
    <g id="text_25">
     <!-- Lean Formalized Solution -->
     <g style="fill: #c9d1d9" transform="translate(85.90125 84.3525) scale(0.1 -0.1)">
      <use xlink:href="#DejaVuSans-4c"/>
      <use xlink:href="#DejaVuSans-65" transform="translate(53.962891 0)"/>
      <use xlink:href="#DejaVuSans-61" transform="translate(115.486328 0)"/>
      <use xlink:href="#DejaVuSans-6e" transform="translate(176.765625 0)"/>
      <use xlink:href="#DejaVuSans-20" transform="translate(240.144531 0)"/>
      <use xlink:href="#DejaVuSans-46" transform="translate(271.931641 0)"/>
      <use xlink:href="#DejaVuSans-6f" transform="translate(325.826172 0)"/>
      <use xlink:href="#DejaVuSans-72" transform="translate(387.007812 0)"/>
      <use xlink:href="#DejaVuSans-6d" transform="translate(426.371094 0)"/>
      <use xlink:href="#DejaVuSans-61" transform="translate(523.783203 0)"/>
      <use xlink:href="#DejaVuSans-6c" transform="translate(585.0625 0)"/>
      <use xlink:href="#DejaVuSans-69" transform="translate(612.845703 0)"/>
      <use xlink:href="#DejaVuSans-7a" transform="translate(640.628906 0)"/>
      <use xlink:href="#DejaVuSans-65" transform="translate(693.119141 0)"/>
      <use xlink:href="#DejaVuSans-64" transform="translate(754.642578 0)"/>
      <use xlink:href="#DejaVuSans-20" transform="translate(818.119141 0)"/>
      <use xlink:href="#DejaVuSans-53" transform="translate(849.90625 0)"/>
      <use xlink:href="#DejaVuSans-6f" transform="translate(913.382812 0)"/>
      <use xlink:href="#DejaVuSans-6c" transform="translate(974.564453 0)"/>
      <use xlink:href="#DejaVuSans-75" transform="translate(1002.347656 0)"/>
      <use xlink:href="#DejaVuSans-74" transform="translate(1065.726562 0)"/>
      <use xlink:href="#DejaVuSans-69" transform="translate(1104.935547 0)"/>
      <use xlink:href="#DejaVuSans-6f" transform="translate(1132.71875 0)"/>
      <use xlink:href="#DejaVuSans-6e" transform="translate(1193.900391 0)"/>
     </g>
    </g>
    <g id="line2d_37">
     <path d="M 57.90125 95.530625 
L 67.90125 95.530625 
L 77.90125 95.530625 
" style="fill: none; stroke: #f85149; stroke-width: 2; stroke-linecap: square"/>
    </g>
    <g id="text_26">
     <!-- OEIS Linked -->
     <g style="fill: #c9d1d9" transform="translate(85.90125 99.030625) scale(0.1 -0.1)">
      <defs>
       <path id="DejaVuSans-4f" d="M 2522 4238 
Q 1834 4238 1429 3725 
Q 1025 3213 1025 2328 
Q 1025 1447 1429 934 
Q 1834 422 2522 422 
Q 3209 422 3611 934 
Q 4013 1447 4013 2328 
Q 4013 3213 3611 3725 
Q 3209 4238 2522 4238 
z
M 2522 4750 
Q 3503 4750 4090 4092 
Q 4678 3434 4678 2328 
Q 4678 1225 4090 567 
Q 3503 -91 2522 -91 
Q 1538 -91 948 565 
Q 359 1222 359 2328 
Q 359 3434 948 4092 
Q 1538 4750 2522 4750 
z
" transform="scale(0.015625)"/>
       <path id="DejaVuSans-45" d="M 628 4666 
L 3578 4666 
L 3578 4134 
L 1259 4134 
L 1259 2753 
L 3481 2753 
L 3481 2222 
L 1259 2222 
L 1259 531 
L 3634 531 
L 3634 0 
L 628 0 
L 628 4666 
z
" transform="scale(0.015625)"/>
       <path id="DejaVuSans-49" d="M 628 4666 
L 1259 4666 
L 1259 0 
L 628 0 
L 628 4666 
z
" transform="scale(0.015625)"/>
       <path id="DejaVuSans-6b" d="M 581 4863 
L 1159 4863 
L 1159 1991 
L 2875 3500 
L 3609 3500 
L 1753 1863 
L 3688 0 
L 2938 0 
L 1159 1709 
L 1159 0 
L 581 0 
L 581 4863 
z
" transform="scale(0.015625)"/>
      </defs>
      <use xlink:href="#DejaVuSans-4f"/>
      <use xlink:href="#DejaVuSans-45" transform="translate(78.710938 0)"/>
      <use xlink:href="#DejaVuSans-49" transform="translate(141.894531 0)"/>
      <use xlink:href="#DejaVuSans-53" transform="translate(171.386719 0)"/>
      <use xlink:href="#DejaVuSans-20" transform="translate(234.863281 0)"/>
      <use xlink:href="#DejaVuSans-4c" transform="translate(266.650391 0)"/>
      <use xlink:href="#DejaVuSans-69" transform="translate(322.363281 0)"/>
      <use xlink:href="#DejaVuSans-6e" transform="translate(350.146484 0)"/>
      <use xlink:href="#DejaVuSans-6b" transform="translate(413.525391 0)"/>
      <use xlink:href="#DejaVuSans-65" transform="translate(467.810547 0)"/>
      <use xlink:href="#DejaVuSans-64" transform="translate(529.333984 0)"/>
     </g>
    </g>
    <g id="line2d_38">
     <path d="M 57.90125 110.20875 
L 67.90125 110.20875 
L 77.90125 110.20875 
" style="fill: none; stroke: #9467bd; stroke-width: 2; stroke-linecap: square"/>
    </g>
    <g id="text_27">
     <!-- Open Problems -->
     <g style="fill: #c9d1d9" transform="translate(85.90125 113.70875) scale(0.1 -0.1)">
      <defs>
       <path id="DejaVuSans-73" d="M 2834 3397 
L 2834 2853 
Q 2591 2978 2328 3040 
Q 2066 3103 1784 3103 
Q 1356 3103 1142 2972 
Q 928 2841 928 2578 
Q 928 2378 1081 2264 
Q 1234 2150 1697 2047 
L 1894 2003 
Q 2506 1872 2764 1633 
Q 3022 1394 3022 966 
Q 3022 478 2636 193 
Q 2250 -91 1575 -91 
Q 1294 -91 989 -36 
Q 684 19 347 128 
L 347 722 
Q 666 556 975 473 
Q 1284 391 1588 391 
Q 1994 391 2212 530 
Q 2431 669 2431 922 
Q 2431 1156 2273 1281 
Q 2116 1406 1581 1522 
L 1381 1569 
Q 847 1681 609 1914 
Q 372 2147 372 2553 
Q 372 3047 722 3315 
Q 1072 3584 1716 3584 
Q 2034 3584 2315 3537 
Q 2597 3491 2834 3397 
z
" transform="scale(0.015625)"/>
      </defs>
      <use xlink:href="#DejaVuSans-4f"/>
      <use xlink:href="#DejaVuSans-70" transform="translate(78.710938 0)"/>
      <use xlink:href="#DejaVuSans-65" transform="translate(142.1875 0)"/>
      <use xlink:href="#DejaVuSans-6e" transform="translate(203.710938 0)"/>
      <use xlink:href="#DejaVuSans-20" transform="translate(267.089844 0)"/>
      <use xlink:href="#DejaVuSans-50" transform="translate(298.876953 0)"/>
      <use xlink:href="#DejaVuSans-72" transform="translate(357.429688 0)"/>
      <use xlink:href="#DejaVuSans-6f" transform="translate(396.292969 0)"/>
      <use xlink:href="#DejaVuSans-62" transform="translate(457.474609 0)"/>
      <use xlink:href="#DejaVuSans-6c" transform="translate(520.951172 0)"/>
      <use xlink:href="#DejaVuSans-65" transform="translate(548.734375 0)"/>
      <use xlink:href="#DejaVuSans-6d" transform="translate(610.257812 0)"/>
      <use xlink:href="#DejaVuSans-73" transform="translate(707.669922 0)"/>
     </g>
    </g>
   </g>
  </g>
 </g>
 <defs>
  <clipPath id="p76c8e2a07b">
   <rect x="48.90125" y="38.397812" width="799.45" height="416.84"/>
  </clipPath>
 </defs>
</svg>
