<?xml version="1.0" encoding="utf-8" standalone="no"?>
<!DOCTYPE svg PUBLIC "-//W3C//DTD SVG 1.1//EN"
  "http://www.w3.org/Graphics/SVG/1.1/DTD/svg11.dtd">
<svg xmlns:xlink="http://www.w3.org/1999/xlink" width="855.55125pt" height="494.729687pt" viewBox="0 0 855.55125 494.729687" xmlns="http://www.w3.org/2000/svg" version="1.1">
 <metadata>
  <rdf:RDF xmlns:dc="http://purl.org/dc/elements/1.1/" xmlns:cc="http://creativecommons.org/ns#" xmlns:rdf="http://www.w3.org/1999/02/22-rdf-syntax-ns#">
   <cc:Work>
    <dc:type rdf:resource="http://purl.org/dc/dcmitype/StillImage"/>
    <dc:date>2026-04-15T22:59:54.399966</dc:date>
    <dc:format>image/svg+xml</dc:format>
    <dc:creator>
     <cc:Agent>
      <dc:title>Matplotlib v3.10.7, https://matplotlib.org/</dc:title>
     </cc:Agent>
    </dc:creator>
   </cc:Work>
  </rdf:RDF>
 </metadata>
 <defs>
  <style type="text/css">*{stroke-linejoin: round; stroke-linecap: butt}</style>
 </defs>
 <g id="figure_1">
  <g id="patch_1">
   <path d="M 0 494.729687 
L 855.55125 494.729687 
L 855.55125 0 
L 0 0 
z
" style="fill: #ffffff"/>
  </g>
  <g id="axes_1">
   <g id="patch_2">
    <path d="M 48.90125 455.237812 
L 848.35125 455.237812 
L 848.35125 38.397812 
L 48.90125 38.397812 
z
" style="fill: #ffffff"/>
   </g>
   <g id="matplotlib.axis_1">
    <g id="xtick_1">
     <g id="line2d_1">
      <path d="M 86.174816 455.237812 
L 86.174816 38.397812 
" clip-path="url(#p473b193ced)" style="fill: none; stroke: #d0d7de; stroke-opacity: 0.25; stroke-width: 0.5; stroke-linecap: square"/>
     </g>
     <g id="line2d_2">
      <defs>
       <path id="maf1c8ceee3" d="M 0 0 
L 0 3.5 
" style="stroke: #24292f; stroke-width: 0.8"/>
      </defs>
      <g>
       <use xlink:href="#maf1c8ceee3" x="86.174816" y="455.237812" style="fill: #24292f; stroke: #24292f; stroke-width: 0.8"/>
      </g>
     </g>
     <g id="text_1">
      <!-- Sep -->
      <g style="fill: #24292f" transform="translate(76.749816 469.83625) scale(0.1 -0.1)">
       <defs>
        <path id="DejaVuSans-53" d="M 3425 4513 
L 3425 3897 
Q 3066 4069 2747 4153 
Q 2428 4238 2131 4238 
Q 1616 4238 1336 4038 
Q 1056 3838 1056 3469 
Q 1056 3159 1242 3001 
Q 1428 2844 1947 2747 
L 2328 2669 
Q 3034 2534 3370 2195 
Q 3706 1856 3706 1288 
Q 3706 609 3251 259 
Q 2797 -91 1919 -91 
Q 1588 -91 1214 -16 
Q 841 59 441 206 
L 441 856 
Q 825 641 1194 531 
Q 1563 422 1919 422 
Q 2459 422 2753 634 
Q 3047 847 3047 1241 
Q 3047 1584 2836 1778 
Q 2625 1972 2144 2069 
L 1759 2144 
Q 1053 2284 737 2584 
Q 422 2884 422 3419 
Q 422 4038 858 4394 
Q 1294 4750 2059 4750 
Q 2388 4750 2728 4690 
Q 3069 4631 3425 4513 
z
" transform="scale(0.015625)"/>
        <path id="DejaVuSans-65" d="M 3597 1894 
L 3597 1613 
L 953 1613 
Q 991 1019 1311 708 
Q 1631 397 2203 397 
Q 2534 397 2845 478 
Q 3156 559 3463 722 
L 3463 178 
Q 3153 47 2828 -22 
Q 2503 -91 2169 -91 
Q 1331 -91 842 396 
Q 353 884 353 1716 
Q 353 2575 817 3079 
Q 1281 3584 2069 3584 
Q 2775 3584 3186 3129 
Q 3597 2675 3597 1894 
z
M 3022 2063 
Q 3016 2534 2758 2815 
Q 2500 3097 2075 3097 
Q 1594 3097 1305 2825 
Q 1016 2553 972 2059 
L 3022 2063 
z
" transform="scale(0.015625)"/>
        <path id="DejaVuSans-70" d="M 1159 525 
L 1159 -1331 
L 581 -1331 
L 581 3500 
L 1159 3500 
L 1159 2969 
Q 1341 3281 1617 3432 
Q 1894 3584 2278 3584 
Q 2916 3584 3314 3078 
Q 3713 2572 3713 1747 
Q 3713 922 3314 415 
Q 2916 -91 2278 -91 
Q 1894 -91 1617 61 
Q 1341 213 1159 525 
z
M 3116 1747 
Q 3116 2381 2855 2742 
Q 2594 3103 2138 3103 
Q 1681 3103 1420 2742 
Q 1159 2381 1159 1747 
Q 1159 1113 1420 752 
Q 1681 391 2138 391 
Q 2594 391 2855 752 
Q 3116 1113 3116 1747 
z
" transform="scale(0.015625)"/>
       </defs>
       <use xlink:href="#DejaVuSans-53"/>
       <use xlink:href="#DejaVuSans-65" transform="translate(63.476562 0)"/>
       <use xlink:href="#DejaVuSans-70" transform="translate(125 0)"/>
      </g>
     </g>
    </g>
    <g id="xtick_2">
     <g id="line2d_3">
      <path d="M 182.118156 455.237812 
L 182.118156 38.397812 
" clip-path="url(#p473b193ced)" style="fill: none; stroke: #d0d7de; stroke-opacity: 0.25; stroke-width: 0.5; stroke-linecap: square"/>
     </g>
     <g id="line2d_4">
      <g>
       <use xlink:href="#maf1c8ceee3" x="182.118156" y="455.237812" style="fill: #24292f; stroke: #24292f; stroke-width: 0.8"/>
      </g>
     </g>
     <g id="text_2">
      <!-- Oct -->
      <g style="fill: #24292f" transform="translate(173.472843 469.83625) scale(0.1 -0.1)">
       <defs>
        <path id="DejaVuSans-4f" d="M 2522 4238 
Q 1834 4238 1429 3725 
Q 1025 3213 1025 2328 
Q 1025 1447 1429 934 
Q 1834 422 2522 422 
Q 3209 422 3611 934 
Q 4013 1447 4013 2328 
Q 4013 3213 3611 3725 
Q 3209 4238 2522 4238 
z
M 2522 4750 
Q 3503 4750 4090 4092 
Q 4678 3434 4678 2328 
Q 4678 1225 4090 567 
Q 3503 -91 2522 -91 
Q 1538 -91 948 565 
Q 359 1222 359 2328 
Q 359 3434 948 4092 
Q 1538 4750 2522 4750 
z
" transform="scale(0.015625)"/>
        <path id="DejaVuSans-63" d="M 3122 3366 
L 3122 2828 
Q 2878 2963 2633 3030 
Q 2388 3097 2138 3097 
Q 1578 3097 1268 2742 
Q 959 2388 959 1747 
Q 959 1106 1268 751 
Q 1578 397 2138 397 
Q 2388 397 2633 464 
Q 2878 531 3122 666 
L 3122 134 
Q 2881 22 2623 -34 
Q 2366 -91 2075 -91 
Q 1284 -91 818 406 
Q 353 903 353 1747 
Q 353 2603 823 3093 
Q 1294 3584 2113 3584 
Q 2378 3584 2631 3529 
Q 2884 3475 3122 3366 
z
" transform="scale(0.015625)"/>
        <path id="DejaVuSans-74" d="M 1172 4494 
L 1172 3500 
L 2356 3500 
L 2356 3053 
L 1172 3053 
L 1172 1153 
Q 1172 725 1289 603 
Q 1406 481 1766 481 
L 2356 481 
L 2356 0 
L 1766 0 
Q 1100 0 847 248 
Q 594 497 594 1153 
L 594 3053 
L 172 3053 
L 172 3500 
L 594 3500 
L 594 4494 
L 1172 4494 
z
" transform="scale(0.015625)"/>
       </defs>
       <use xlink:href="#DejaVuSans-4f"/>
       <use xlink:href="#DejaVuSans-63" transform="translate(78.710938 0)"/>
       <use xlink:href="#DejaVuSans-74" transform="translate(133.691406 0)"/>
      </g>
     </g>
    </g>
    <g id="xtick_3">
     <g id="line2d_5">
      <path d="M 281.259608 455.237812 
L 281.259608 38.397812 
" clip-path="url(#p473b193ced)" style="fill: none; stroke: #d0d7de; stroke-opacity: 0.25; stroke-width: 0.5; stroke-linecap: square"/>
     </g>
     <g id="line2d_6">
      <g>
       <use xlink:href="#maf1c8ceee3" x="281.259608" y="455.237812" style="fill: #24292f; stroke: #24292f; stroke-width: 0.8"/>
      </g>
     </g>
     <g id="text_3">
      <!-- Nov -->
      <g style="fill: #24292f" transform="translate(271.500233 469.83625) scale(0.1 -0.1)">
       <defs>
        <path id="DejaVuSans-4e" d="M 628 4666 
L 1478 4666 
L 3547 763 
L 3547 4666 
L 4159 4666 
L 4159 0 
L 3309 0 
L 1241 3903 
L 1241 0 
L 628 0 
L 628 4666 
z
" transform="scale(0.015625)"/>
        <path id="DejaVuSans-6f" d="M 1959 3097 
Q 1497 3097 1228 2736 
Q 959 2375 959 1747 
Q 959 1119 1226 758 
Q 1494 397 1959 397 
Q 2419 397 2687 759 
Q 2956 1122 2956 1747 
Q 2956 2369 2687 2733 
Q 2419 3097 1959 3097 
z
M 1959 3584 
Q 2709 3584 3137 3096 
Q 3566 2609 3566 1747 
Q 3566 888 3137 398 
Q 2709 -91 1959 -91 
Q 1206 -91 779 398 
Q 353 888 353 1747 
Q 353 2609 779 3096 
Q 1206 3584 1959 3584 
z
" transform="scale(0.015625)"/>
        <path id="DejaVuSans-76" d="M 191 3500 
L 800 3500 
L 1894 563 
L 2988 3500 
L 3597 3500 
L 2284 0 
L 1503 0 
L 191 3500 
z
" transform="scale(0.015625)"/>
       </defs>
       <use xlink:href="#DejaVuSans-4e"/>
       <use xlink:href="#DejaVuSans-6f" transform="translate(74.804688 0)"/>
       <use xlink:href="#DejaVuSans-76" transform="translate(135.986328 0)"/>
      </g>
     </g>
    </g>
    <g id="xtick_4">
     <g id="line2d_7">
      <path d="M 377.202948 455.237812 
L 377.202948 38.397812 
" clip-path="url(#p473b193ced)" style="fill: none; stroke: #d0d7de; stroke-opacity: 0.25; stroke-width: 0.5; stroke-linecap: square"/>
     </g>
     <g id="line2d_8">
      <g>
       <use xlink:href="#maf1c8ceee3" x="377.202948" y="455.237812" style="fill: #24292f; stroke: #24292f; stroke-width: 0.8"/>
      </g>
     </g>
     <g id="text_4">
      <!-- Dec -->
      <g style="fill: #24292f" transform="translate(367.527167 469.83625) scale(0.1 -0.1)">
       <defs>
        <path id="DejaVuSans-44" d="M 1259 4147 
L 1259 519 
L 2022 519 
Q 2988 519 3436 956 
Q 3884 1394 3884 2338 
Q 3884 3275 3436 3711 
Q 2988 4147 2022 4147 
L 1259 4147 
z
M 628 4666 
L 1925 4666 
Q 3281 4666 3915 4102 
Q 4550 3538 4550 2338 
Q 4550 1131 3912 565 
Q 3275 0 1925 0 
L 628 0 
L 628 4666 
z
" transform="scale(0.015625)"/>
       </defs>
       <use xlink:href="#DejaVuSans-44"/>
       <use xlink:href="#DejaVuSans-65" transform="translate(77.001953 0)"/>
       <use xlink:href="#DejaVuSans-63" transform="translate(138.525391 0)"/>
      </g>
     </g>
    </g>
    <g id="xtick_5">
     <g id="line2d_9">
      <path d="M 476.344399 455.237812 
L 476.344399 38.397812 
" clip-path="url(#p473b193ced)" style="fill: none; stroke: #d0d7de; stroke-opacity: 0.25; stroke-width: 0.5; stroke-linecap: square"/>
     </g>
     <g id="line2d_10">
      <g>
       <use xlink:href="#maf1c8ceee3" x="476.344399" y="455.237812" style="fill: #24292f; stroke: #24292f; stroke-width: 0.8"/>
      </g>
     </g>
     <g id="text_5">
      <!-- 2026 -->
      <g style="fill: #24292f" transform="translate(463.619399 469.83625) scale(0.1 -0.1)">
       <defs>
        <path id="DejaVuSans-32" d="M 1228 531 
L 3431 531 
L 3431 0 
L 469 0 
L 469 531 
Q 828 903 1448 1529 
Q 2069 2156 2228 2338 
Q 2531 2678 2651 2914 
Q 2772 3150 2772 3378 
Q 2772 3750 2511 3984 
Q 2250 4219 1831 4219 
Q 1534 4219 1204 4116 
Q 875 4013 500 3803 
L 500 4441 
Q 881 4594 1212 4672 
Q 1544 4750 1819 4750 
Q 2544 4750 2975 4387 
Q 3406 4025 3406 3419 
Q 3406 3131 3298 2873 
Q 3191 2616 2906 2266 
Q 2828 2175 2409 1742 
Q 1991 1309 1228 531 
z
" transform="scale(0.015625)"/>
        <path id="DejaVuSans-30" d="M 2034 4250 
Q 1547 4250 1301 3770 
Q 1056 3291 1056 2328 
Q 1056 1369 1301 889 
Q 1547 409 2034 409 
Q 2525 409 2770 889 
Q 3016 1369 3016 2328 
Q 3016 3291 2770 3770 
Q 2525 4250 2034 4250 
z
M 2034 4750 
Q 2819 4750 3233 4129 
Q 3647 3509 3647 2328 
Q 3647 1150 3233 529 
Q 2819 -91 2034 -91 
Q 1250 -91 836 529 
Q 422 1150 422 2328 
Q 422 3509 836 4129 
Q 1250 4750 2034 4750 
z
" transform="scale(0.015625)"/>
        <path id="DejaVuSans-36" d="M 2113 2584 
Q 1688 2584 1439 2293 
Q 1191 2003 1191 1497 
Q 1191 994 1439 701 
Q 1688 409 2113 409 
Q 2538 409 2786 701 
Q 3034 994 3034 1497 
Q 3034 2003 2786 2293 
Q 2538 2584 2113 2584 
z
M 3366 4563 
L 3366 3988 
Q 3128 4100 2886 4159 
Q 2644 4219 2406 4219 
Q 1781 4219 1451 3797 
Q 1122 3375 1075 2522 
Q 1259 2794 1537 2939 
Q 1816 3084 2150 3084 
Q 2853 3084 3261 2657 
Q 3669 2231 3669 1497 
Q 3669 778 3244 343 
Q 2819 -91 2113 -91 
Q 1303 -91 875 529 
Q 447 1150 447 2328 
Q 447 3434 972 4092 
Q 1497 4750 2381 4750 
Q 2619 4750 2861 4703 
Q 3103 4656 3366 4563 
z
" transform="scale(0.015625)"/>
       </defs>
       <use xlink:href="#DejaVuSans-32"/>
       <use xlink:href="#DejaVuSans-30" transform="translate(63.623047 0)"/>
       <use xlink:href="#DejaVuSans-32" transform="translate(127.246094 0)"/>
       <use xlink:href="#DejaVuSans-36" transform="translate(190.869141 0)"/>
      </g>
     </g>
    </g>
    <g id="xtick_6">
     <g id="line2d_11">
      <path d="M 575.485851 455.237812 
L 575.485851 38.397812 
" clip-path="url(#p473b193ced)" style="fill: none; stroke: #d0d7de; stroke-opacity: 0.25; stroke-width: 0.5; stroke-linecap: square"/>
     </g>
     <g id="line2d_12">
      <g>
       <use xlink:href="#maf1c8ceee3" x="575.485851" y="455.237812" style="fill: #24292f; stroke: #24292f; stroke-width: 0.8"/>
      </g>
     </g>
     <g id="text_6">
      <!-- Feb -->
      <g style="fill: #24292f" transform="translate(566.634289 469.83625) scale(0.1 -0.1)">
       <defs>
        <path id="DejaVuSans-46" d="M 628 4666 
L 3309 4666 
L 3309 4134 
L 1259 4134 
L 1259 2759 
L 3109 2759 
L 3109 2228 
L 1259 2228 
L 1259 0 
L 628 0 
L 628 4666 
z
" transform="scale(0.015625)"/>
        <path id="DejaVuSans-62" d="M 3116 1747 
Q 3116 2381 2855 2742 
Q 2594 3103 2138 3103 
Q 1681 3103 1420 2742 
Q 1159 2381 1159 1747 
Q 1159 1113 1420 752 
Q 1681 391 2138 391 
Q 2594 391 2855 752 
Q 3116 1113 3116 1747 
z
M 1159 2969 
Q 1341 3281 1617 3432 
Q 1894 3584 2278 3584 
Q 2916 3584 3314 3078 
Q 3713 2572 3713 1747 
Q 3713 922 3314 415 
Q 2916 -91 2278 -91 
Q 1894 -91 1617 61 
Q 1341 213 1159 525 
L 1159 0 
L 581 0 
L 581 4863 
L 1159 4863 
L 1159 2969 
z
" transform="scale(0.015625)"/>
       </defs>
       <use xlink:href="#DejaVuSans-46"/>
       <use xlink:href="#DejaVuSans-65" transform="translate(52.019531 0)"/>
       <use xlink:href="#DejaVuSans-62" transform="translate(113.542969 0)"/>
      </g>
     </g>
    </g>
    <g id="xtick_7">
     <g id="line2d_13">
      <path d="M 665.032969 455.237812 
L 665.032969 38.397812 
" clip-path="url(#p473b193ced)" style="fill: none; stroke: #d0d7de; stroke-opacity: 0.25; stroke-width: 0.5; stroke-linecap: square"/>
     </g>
     <g id="line2d_14">
      <g>
       <use xlink:href="#maf1c8ceee3" x="665.032969" y="455.237812" style="fill: #24292f; stroke: #24292f; stroke-width: 0.8"/>
      </g>
     </g>
     <g id="text_7">
      <!-- Mar -->
      <g style="fill: #24292f" transform="translate(655.599375 469.83625) scale(0.1 -0.1)">
       <defs>
        <path id="DejaVuSans-4d" d="M 628 4666 
L 1569 4666 
L 2759 1491 
L 3956 4666 
L 4897 4666 
L 4897 0 
L 4281 0 
L 4281 4097 
L 3078 897 
L 2444 897 
L 1241 4097 
L 1241 0 
L 628 0 
L 628 4666 
z
" transform="scale(0.015625)"/>
        <path id="DejaVuSans-61" d="M 2194 1759 
Q 1497 1759 1228 1600 
Q 959 1441 959 1056 
Q 959 750 1161 570 
Q 1363 391 1709 391 
Q 2188 391 2477 730 
Q 2766 1069 2766 1631 
L 2766 1759 
L 2194 1759 
z
M 3341 1997 
L 3341 0 
L 2766 0 
L 2766 531 
Q 2569 213 2275 61 
Q 1981 -91 1556 -91 
Q 1019 -91 701 211 
Q 384 513 384 1019 
Q 384 1609 779 1909 
Q 1175 2209 1959 2209 
L 2766 2209 
L 2766 2266 
Q 2766 2663 2505 2880 
Q 2244 3097 1772 3097 
Q 1472 3097 1187 3025 
Q 903 2953 641 2809 
L 641 3341 
Q 956 3463 1253 3523 
Q 1550 3584 1831 3584 
Q 2591 3584 2966 3190 
Q 3341 2797 3341 1997 
z
" transform="scale(0.015625)"/>
        <path id="DejaVuSans-72" d="M 2631 2963 
Q 2534 3019 2420 3045 
Q 2306 3072 2169 3072 
Q 1681 3072 1420 2755 
Q 1159 2438 1159 1844 
L 1159 0 
L 581 0 
L 581 3500 
L 1159 3500 
L 1159 2956 
Q 1341 3275 1631 3429 
Q 1922 3584 2338 3584 
Q 2397 3584 2469 3576 
Q 2541 3569 2628 3553 
L 2631 2963 
z
" transform="scale(0.015625)"/>
       </defs>
       <use xlink:href="#DejaVuSans-4d"/>
       <use xlink:href="#DejaVuSans-61" transform="translate(86.279297 0)"/>
       <use xlink:href="#DejaVuSans-72" transform="translate(147.558594 0)"/>
      </g>
     </g>
    </g>
    <g id="xtick_8">
     <g id="line2d_15">
      <path d="M 764.17442 455.237812 
L 764.17442 38.397812 
" clip-path="url(#p473b193ced)" style="fill: none; stroke: #d0d7de; stroke-opacity: 0.25; stroke-width: 0.5; stroke-linecap: square"/>
     </g>
     <g id="line2d_16">
      <g>
       <use xlink:href="#maf1c8ceee3" x="764.17442" y="455.237812" style="fill: #24292f; stroke: #24292f; stroke-width: 0.8"/>
      </g>
     </g>
     <g id="text_8">
      <!-- Apr -->
      <g style="fill: #24292f" transform="translate(755.52442 469.83625) scale(0.1 -0.1)">
       <defs>
        <path id="DejaVuSans-41" d="M 2188 4044 
L 1331 1722 
L 3047 1722 
L 2188 4044 
z
M 1831 4666 
L 2547 4666 
L 4325 0 
L 3669 0 
L 3244 1197 
L 1141 1197 
L 716 0 
L 50 0 
L 1831 4666 
z
" transform="scale(0.015625)"/>
       </defs>
       <use xlink:href="#DejaVuSans-41"/>
       <use xlink:href="#DejaVuSans-70" transform="translate(68.408203 0)"/>
       <use xlink:href="#DejaVuSans-72" transform="translate(131.884766 0)"/>
      </g>
     </g>
    </g>
    <g id="text_9">
     <!-- Date -->
     <g style="fill: #24292f" transform="translate(434.285313 485.034062) scale(0.12 -0.12)">
      <use xlink:href="#DejaVuSans-44"/>
      <use xlink:href="#DejaVuSans-61" transform="translate(77.001953 0)"/>
      <use xlink:href="#DejaVuSans-74" transform="translate(138.28125 0)"/>
      <use xlink:href="#DejaVuSans-65" transform="translate(177.490234 0)"/>
     </g>
    </g>
   </g>
   <g id="matplotlib.axis_2">
    <g id="ytick_1">
     <g id="line2d_17">
      <path d="M 48.90125 455.237812 
L 848.35125 455.237812 
" clip-path="url(#p473b193ced)" style="fill: none; stroke: #d0d7de; stroke-opacity: 0.25; stroke-width: 0.5; stroke-linecap: square"/>
     </g>
     <g id="line2d_18">
      <defs>
       <path id="m3dd5582d03" d="M 0 0 
L -3.5 0 
" style="stroke: #24292f; stroke-width: 0.8"/>
      </defs>
      <g>
       <use xlink:href="#m3dd5582d03" x="48.90125" y="455.237812" style="fill: #24292f; stroke: #24292f; stroke-width: 0.8"/>
      </g>
     </g>
     <g id="text_10">
      <!-- 0 -->
      <g style="fill: #24292f" transform="translate(35.53875 459.037031) scale(0.1 -0.1)">
       <use xlink:href="#DejaVuSans-30"/>
      </g>
     </g>
    </g>
    <g id="ytick_2">
     <g id="line2d_19">
      <path d="M 48.90125 399.659146 
L 848.35125 399.659146 
" clip-path="url(#p473b193ced)" style="fill: none; stroke: #d0d7de; stroke-opacity: 0.25; stroke-width: 0.5; stroke-linecap: square"/>
     </g>
     <g id="line2d_20">
      <g>
       <use xlink:href="#m3dd5582d03" x="48.90125" y="399.659146" style="fill: #24292f; stroke: #24292f; stroke-width: 0.8"/>
      </g>
     </g>
     <g id="text_11">
      <!-- 100 -->
      <g style="fill: #24292f" transform="translate(22.81375 403.458365) scale(0.1 -0.1)">
       <defs>
        <path id="DejaVuSans-31" d="M 794 531 
L 1825 531 
L 1825 4091 
L 703 3866 
L 703 4441 
L 1819 4666 
L 2450 4666 
L 2450 531 
L 3481 531 
L 3481 0 
L 794 0 
L 794 531 
z
" transform="scale(0.015625)"/>
       </defs>
       <use xlink:href="#DejaVuSans-31"/>
       <use xlink:href="#DejaVuSans-30" transform="translate(63.623047 0)"/>
       <use xlink:href="#DejaVuSans-30" transform="translate(127.246094 0)"/>
      </g>
     </g>
    </g>
    <g id="ytick_3">
     <g id="line2d_21">
      <path d="M 48.90125 344.080479 
L 848.35125 344.080479 
" clip-path="url(#p473b193ced)" style="fill: none; stroke: #d0d7de; stroke-opacity: 0.25; stroke-width: 0.5; stroke-linecap: square"/>
     </g>
     <g id="line2d_22">
      <g>
       <use xlink:href="#m3dd5582d03" x="48.90125" y="344.080479" style="fill: #24292f; stroke: #24292f; stroke-width: 0.8"/>
      </g>
     </g>
     <g id="text_12">
      <!-- 200 -->
      <g style="fill: #24292f" transform="translate(22.81375 347.879698) scale(0.1 -0.1)">
       <use xlink:href="#DejaVuSans-32"/>
       <use xlink:href="#DejaVuSans-30" transform="translate(63.623047 0)"/>
       <use xlink:href="#DejaVuSans-30" transform="translate(127.246094 0)"/>
      </g>
     </g>
    </g>
    <g id="ytick_4">
     <g id="line2d_23">
      <path d="M 48.90125 288.501812 
L 848.35125 288.501812 
" clip-path="url(#p473b193ced)" style="fill: none; stroke: #d0d7de; stroke-opacity: 0.25; stroke-width: 0.5; stroke-linecap: square"/>
     </g>
     <g id="line2d_24">
      <g>
       <use xlink:href="#m3dd5582d03" x="48.90125" y="288.501812" style="fill: #24292f; stroke: #24292f; stroke-width: 0.8"/>
      </g>
     </g>
     <g id="text_13">
      <!-- 300 -->
      <g style="fill: #24292f" transform="translate(22.81375 292.301031) scale(0.1 -0.1)">
       <defs>
        <path id="DejaVuSans-33" d="M 2597 2516 
Q 3050 2419 3304 2112 
Q 3559 1806 3559 1356 
Q 3559 666 3084 287 
Q 2609 -91 1734 -91 
Q 1441 -91 1130 -33 
Q 819 25 488 141 
L 488 750 
Q 750 597 1062 519 
Q 1375 441 1716 441 
Q 2309 441 2620 675 
Q 2931 909 2931 1356 
Q 2931 1769 2642 2001 
Q 2353 2234 1838 2234 
L 1294 2234 
L 1294 2753 
L 1863 2753 
Q 2328 2753 2575 2939 
Q 2822 3125 2822 3475 
Q 2822 3834 2567 4026 
Q 2313 4219 1838 4219 
Q 1578 4219 1281 4162 
Q 984 4106 628 3988 
L 628 4550 
Q 988 4650 1302 4700 
Q 1616 4750 1894 4750 
Q 2613 4750 3031 4423 
Q 3450 4097 3450 3541 
Q 3450 3153 3228 2886 
Q 3006 2619 2597 2516 
z
" transform="scale(0.015625)"/>
       </defs>
       <use xlink:href="#DejaVuSans-33"/>
       <use xlink:href="#DejaVuSans-30" transform="translate(63.623047 0)"/>
       <use xlink:href="#DejaVuSans-30" transform="translate(127.246094 0)"/>
      </g>
     </g>
    </g>
    <g id="ytick_5">
     <g id="line2d_25">
      <path d="M 48.90125 232.923146 
L 848.35125 232.923146 
" clip-path="url(#p473b193ced)" style="fill: none; stroke: #d0d7de; stroke-opacity: 0.25; stroke-width: 0.5; stroke-linecap: square"/>
     </g>
     <g id="line2d_26">
      <g>
       <use xlink:href="#m3dd5582d03" x="48.90125" y="232.923146" style="fill: #24292f; stroke: #24292f; stroke-width: 0.8"/>
      </g>
     </g>
     <g id="text_14">
      <!-- 400 -->
      <g style="fill: #24292f" transform="translate(22.81375 236.722365) scale(0.1 -0.1)">
       <defs>
        <path id="DejaVuSans-34" d="M 2419 4116 
L 825 1625 
L 2419 1625 
L 2419 4116 
z
M 2253 4666 
L 3047 4666 
L 3047 1625 
L 3713 1625 
L 3713 1100 
L 3047 1100 
L 3047 0 
L 2419 0 
L 2419 1100 
L 313 1100 
L 313 1709 
L 2253 4666 
z
" transform="scale(0.015625)"/>
       </defs>
       <use xlink:href="#DejaVuSans-34"/>
       <use xlink:href="#DejaVuSans-30" transform="translate(63.623047 0)"/>
       <use xlink:href="#DejaVuSans-30" transform="translate(127.246094 0)"/>
      </g>
     </g>
    </g>
    <g id="ytick_6">
     <g id="line2d_27">
      <path d="M 48.90125 177.344479 
L 848.35125 177.344479 
" clip-path="url(#p473b193ced)" style="fill: none; stroke: #d0d7de; stroke-opacity: 0.25; stroke-width: 0.5; stroke-linecap: square"/>
     </g>
     <g id="line2d_28">
      <g>
       <use xlink:href="#m3dd5582d03" x="48.90125" y="177.344479" style="fill: #24292f; stroke: #24292f; stroke-width: 0.8"/>
      </g>
     </g>
     <g id="text_15">
      <!-- 500 -->
      <g style="fill: #24292f" transform="translate(22.81375 181.143698) scale(0.1 -0.1)">
       <defs>
        <path id="DejaVuSans-35" d="M 691 4666 
L 3169 4666 
L 3169 4134 
L 1269 4134 
L 1269 2991 
Q 1406 3038 1543 3061 
Q 1681 3084 1819 3084 
Q 2600 3084 3056 2656 
Q 3513 2228 3513 1497 
Q 3513 744 3044 326 
Q 2575 -91 1722 -91 
Q 1428 -91 1123 -41 
Q 819 9 494 109 
L 494 744 
Q 775 591 1075 516 
Q 1375 441 1709 441 
Q 2250 441 2565 725 
Q 2881 1009 2881 1497 
Q 2881 1984 2565 2268 
Q 2250 2553 1709 2553 
Q 1456 2553 1204 2497 
Q 953 2441 691 2322 
L 691 4666 
z
" transform="scale(0.015625)"/>
       </defs>
       <use xlink:href="#DejaVuSans-35"/>
       <use xlink:href="#DejaVuSans-30" transform="translate(63.623047 0)"/>
       <use xlink:href="#DejaVuSans-30" transform="translate(127.246094 0)"/>
      </g>
     </g>
    </g>
    <g id="ytick_7">
     <g id="line2d_29">
      <path d="M 48.90125 121.765812 
L 848.35125 121.765812 
" clip-path="url(#p473b193ced)" style="fill: none; stroke: #d0d7de; stroke-opacity: 0.25; stroke-width: 0.5; stroke-linecap: square"/>
     </g>
     <g id="line2d_30">
      <g>
       <use xlink:href="#m3dd5582d03" x="48.90125" y="121.765812" style="fill: #24292f; stroke: #24292f; stroke-width: 0.8"/>
      </g>
     </g>
     <g id="text_16">
      <!-- 600 -->
      <g style="fill: #24292f" transform="translate(22.81375 125.565031) scale(0.1 -0.1)">
       <use xlink:href="#DejaVuSans-36"/>
       <use xlink:href="#DejaVuSans-30" transform="translate(63.623047 0)"/>
       <use xlink:href="#DejaVuSans-30" transform="translate(127.246094 0)"/>
      </g>
     </g>
    </g>
    <g id="ytick_8">
     <g id="line2d_31">
      <path d="M 48.90125 66.187146 
L 848.35125 66.187146 
" clip-path="url(#p473b193ced)" style="fill: none; stroke: #d0d7de; stroke-opacity: 0.25; stroke-width: 0.5; stroke-linecap: square"/>
     </g>
     <g id="line2d_32">
      <g>
       <use xlink:href="#m3dd5582d03" x="48.90125" y="66.187146" style="fill: #24292f; stroke: #24292f; stroke-width: 0.8"/>
      </g>
     </g>
     <g id="text_17">
      <!-- 700 -->
      <g style="fill: #24292f" transform="translate(22.81375 69.986365) scale(0.1 -0.1)">
       <defs>
        <path id="DejaVuSans-37" d="M 525 4666 
L 3525 4666 
L 3525 4397 
L 1831 0 
L 1172 0 
L 2766 4134 
L 525 4134 
L 525 4666 
z
" transform="scale(0.015625)"/>
       </defs>
       <use xlink:href="#DejaVuSans-37"/>
       <use xlink:href="#DejaVuSans-30" transform="translate(63.623047 0)"/>
       <use xlink:href="#DejaVuSans-30" transform="translate(127.246094 0)"/>
      </g>
     </g>
    </g>
    <g id="text_18">
     <!-- Count -->
     <g style="fill: #24292f" transform="translate(16.318125 264.635937) rotate(-90) scale(0.12 -0.12)">
      <defs>
       <path id="DejaVuSans-43" d="M 4122 4306 
L 4122 3641 
Q 3803 3938 3442 4084 
Q 3081 4231 2675 4231 
Q 1875 4231 1450 3742 
Q 1025 3253 1025 2328 
Q 1025 1406 1450 917 
Q 1875 428 2675 428 
Q 3081 428 3442 575 
Q 3803 722 4122 1019 
L 4122 359 
Q 3791 134 3420 21 
Q 3050 -91 2638 -91 
Q 1578 -91 968 557 
Q 359 1206 359 2328 
Q 359 3453 968 4101 
Q 1578 4750 2638 4750 
Q 3056 4750 3426 4639 
Q 3797 4528 4122 4306 
z
" transform="scale(0.015625)"/>
       <path id="DejaVuSans-75" d="M 544 1381 
L 544 3500 
L 1119 3500 
L 1119 1403 
Q 1119 906 1312 657 
Q 1506 409 1894 409 
Q 2359 409 2629 706 
Q 2900 1003 2900 1516 
L 2900 3500 
L 3475 3500 
L 3475 0 
L 2900 0 
L 2900 538 
Q 2691 219 2414 64 
Q 2138 -91 1772 -91 
Q 1169 -91 856 284 
Q 544 659 544 1381 
z
M 1991 3584 
L 1991 3584 
z
" transform="scale(0.015625)"/>
       <path id="DejaVuSans-6e" d="M 3513 2113 
L 3513 0 
L 2938 0 
L 2938 2094 
Q 2938 2591 2744 2837 
Q 2550 3084 2163 3084 
Q 1697 3084 1428 2787 
Q 1159 2491 1159 1978 
L 1159 0 
L 581 0 
L 581 3500 
L 1159 3500 
L 1159 2956 
Q 1366 3272 1645 3428 
Q 1925 3584 2291 3584 
Q 2894 3584 3203 3211 
Q 3513 2838 3513 2113 
z
" transform="scale(0.015625)"/>
      </defs>
      <use xlink:href="#DejaVuSans-43"/>
      <use xlink:href="#DejaVuSans-6f" transform="translate(69.824219 0)"/>
      <use xlink:href="#DejaVuSans-75" transform="translate(131.005859 0)"/>
      <use xlink:href="#DejaVuSans-6e" transform="translate(194.384766 0)"/>
      <use xlink:href="#DejaVuSans-74" transform="translate(257.763672 0)"/>
     </g>
    </g>
   </g>
   <g id="line2d_33">
    <path d="M 85.239886 454.682026 
L 85.301146 454.682026 
L 85.448948 454.126239 
L 85.532232 454.126239 
L 85.619181 257.933546 
L 88.313331 257.933546 
L 88.325101 261.268266 
L 91.441927 261.268266 
L 91.592764 260.712479 
L 92.025472 260.712479 
L 92.376153 260.156692 
L 94.549129 259.600906 
L 94.59203 260.156692 
L 94.696191 259.600906 
L 101.425254 259.600906 
L 105.484783 260.712479 
L 106.088796 259.600906 
L 106.529832 259.600906 
L 107.641398 259.045119 
L 108.106456 256.821972 
L 109.011996 256.821972 
L 110.331587 260.712479 
L 110.417203 256.821972 
L 111.42979 256.266186 
L 114.065086 256.266186 
L 114.760194 255.710399 
L 115.792695 255.710399 
L 116.069458 254.598826 
L 122.505064 254.598826 
L 122.974454 253.487252 
L 122.998514 252.375679 
L 125.025058 252.375679 
L 128.013293 251.264106 
L 129.580849 251.264106 
L 129.604576 250.708319 
L 133.204524 250.708319 
L 134.097552 247.929386 
L 136.923772 247.929386 
L 136.94339 247.373599 
L 152.771635 247.373599 
L 155.730332 246.817812 
L 155.831346 247.373599 
L 158.899905 246.817812 
L 169.578228 246.817812 
L 174.753875 246.262026 
L 174.853853 245.706239 
L 175.099708 245.150452 
L 178.019465 245.150452 
L 179.262139 244.594666 
L 184.386779 244.594666 
L 184.581331 247.373599 
L 184.590881 245.150452 
L 184.84003 245.150452 
L 186.077225 242.927306 
L 192.134611 242.927306 
L 196.777018 242.371519 
L 201.936748 242.371519 
L 202.16317 241.815732 
L 215.570697 241.815732 
L 216.142914 241.259946 
L 219.398436 241.259946 
L 219.421386 240.148372 
L 225.624315 240.148372 
L 225.75013 236.257866 
L 236.977092 236.257866 
L 236.980461 235.702079 
L 237.305602 235.702079 
L 238.720618 235.146292 
L 240.158621 235.146292 
L 240.61598 234.590506 
L 240.661731 235.146292 
L 241.709038 234.590506 
L 241.713813 234.034719 
L 241.73828 234.590506 
L 242.343256 234.034719 
L 247.854187 234.034719 
L 249.567583 233.478932 
L 251.600678 233.478932 
L 255.053861 232.923146 
L 258.322931 232.923146 
L 260.848624 231.811572 
L 266.375953 231.811572 
L 269.591239 230.699999 
L 270.497149 231.255786 
L 274.984832 231.255786 
L 280.047138 229.032639 
L 287.596939 229.032639 
L 289.938408 228.476852 
L 331.666173 228.476852 
L 332.003159 227.921066 
L 347.220321 227.921066 
L 347.474578 227.365279 
L 373.368064 227.365279 
L 379.069734 226.809492 
L 379.102715 227.365279 
L 383.184267 225.697919 
L 389.174174 225.697919 
L 392.444873 225.142132 
L 392.45024 224.586346 
L 399.27458 224.586346 
L 401.723911 225.142132 
L 402.604391 224.586346 
L 414.025276 224.586346 
L 414.511323 225.142132 
L 415.401686 224.586346 
L 415.707653 222.363199 
L 420.941488 222.363199 
L 420.946004 221.807412 
L 436.961435 221.807412 
L 437.894069 221.251626 
L 440.971955 221.251626 
L 441.272223 220.695839 
L 456.281026 220.695839 
L 456.301421 220.140052 
L 460.055352 220.140052 
L 460.060942 219.584266 
L 460.971848 219.584266 
L 461.019413 219.028479 
L 462.433948 219.028479 
L 462.656187 218.472692 
L 465.683732 218.472692 
L 466.143942 217.361119 
L 467.810624 215.137972 
L 471.840948 215.137972 
L 472.138513 212.359039 
L 473.489974 212.359039 
L 474.153249 211.247466 
L 477.571082 211.247466 
L 478.692568 210.691679 
L 481.902821 210.691679 
L 482.333085 210.135892 
L 491.052417 210.135892 
L 491.267253 209.580106 
L 492.073703 209.580106 
L 493.325741 209.024319 
L 507.428672 209.024319 
L 507.555375 208.468532 
L 508.007552 208.468532 
L 508.951514 207.356959 
L 510.274954 207.356959 
L 510.593174 206.801172 
L 510.89977 206.801172 
L 511.016109 206.245386 
L 514.555352 206.245386 
L 515.157885 205.689599 
L 518.238511 205.689599 
L 518.436024 205.133812 
L 520.123471 205.133812 
L 520.231593 204.578026 
L 525.475792 204.578026 
L 525.58854 204.022239 
L 528.64703 204.022239 
L 529.668575 201.799092 
L 530.801166 201.799092 
L 530.80235 201.243306 
L 535.401116 201.243306 
L 536.244211 200.687519 
L 539.765427 200.687519 
L 540.458981 200.131732 
L 540.719864 200.131732 
L 541.397538 199.575946 
L 543.128589 199.575946 
L 543.328656 199.020159 
L 547.67013 199.020159 
L 548.789209 198.464372 
L 548.870717 197.908586 
L 549.233021 197.908586 
L 550.376568 195.685439 
L 553.92303 195.685439 
L 553.94857 195.129652 
L 557.323762 195.129652 
L 557.520016 194.573866 
L 558.029086 194.573866 
L 558.415043 194.018079 
L 558.495551 194.573866 
L 558.784566 194.018079 
L 560.068622 194.018079 
L 560.080911 193.462292 
L 560.421895 193.462292 
L 560.571215 192.906506 
L 561.602976 192.350719 
L 568.781551 192.350719 
L 569.903555 191.794932 
L 570.65463 191.794932 
L 571.263974 191.239146 
L 571.880388 191.794932 
L 574.418407 191.794932 
L 574.527861 190.683359 
L 578.171376 190.683359 
L 579.58506 189.015999 
L 594.929591 189.015999 
L 595.821397 188.460212 
L 619.506521 188.460212 
L 619.652028 187.904426 
L 654.454845 187.904426 
L 654.608162 187.348639 
L 654.619156 186.792852 
L 654.630075 187.348639 
L 659.702524 187.348639 
L 660.847811 186.792852 
L 680.831528 186.792852 
L 684.943729 186.237066 
L 684.983705 185.681279 
L 685.324134 185.681279 
L 686.390467 185.125492 
L 718.463008 185.125492 
L 718.6459 184.569706 
L 747.295462 184.569706 
L 750.956337 184.013919 
L 753.195645 184.013919 
L 753.438649 183.458132 
L 754.995063 182.902346 
L 759.359782 182.902346 
L 761.19803 182.346559 
L 763.121561 182.346559 
L 763.271361 181.790772 
L 766.435196 181.790772 
L 766.813121 181.234986 
L 766.887929 180.679199 
L 772.520862 180.679199 
L 772.542701 180.123412 
L 777.338868 180.123412 
L 777.349454 179.567626 
L 778.974495 179.011839 
L 781.859384 179.011839 
L 783.935417 178.456052 
L 785.79332 178.456052 
L 788.531629 175.121332 
L 791.728555 175.121332 
L 791.743362 172.342399 
L 807.81761 172.342399 
L 807.819275 171.786612 
L 808.097296 171.230826 
L 809.636906 171.230826 
L 809.971782 170.675039 
L 812.012614 170.675039 
L 812.012614 170.675039 
" clip-path="url(#p473b193ced)" style="fill: none; stroke: #1a7f37; stroke-width: 2; stroke-linecap: square"/>
   </g>
   <g id="line2d_34">
    <path d="M 85.239886 455.237812 
L 85.340012 453.570452 
L 85.448948 453.570452 
L 85.532232 372.981386 
L 87.042414 372.981386 
L 87.07347 370.758239 
L 88.630218 370.758239 
L 89.031314 369.090879 
L 89.577066 370.758239 
L 89.5811 369.090879 
L 90.032686 369.090879 
L 90.207212 367.979306 
L 94.666838 367.979306 
L 94.671095 367.423519 
L 94.696191 367.979306 
L 94.915691 367.423519 
L 94.98006 367.979306 
L 95.151737 367.423519 
L 96.716701 367.423519 
L 96.798579 366.867732 
L 97.021595 366.311946 
L 98.788515 366.311946 
L 100.799253 365.756159 
L 100.870026 365.200372 
L 101.413483 364.644586 
L 101.425254 364.088799 
L 105.484783 367.979306 
L 106.088796 366.311946 
L 106.529832 363.533012 
L 109.011996 363.533012 
L 110.331587 367.979306 
L 110.417203 363.533012 
L 134.530407 363.533012 
L 135.270341 362.977226 
L 136.94339 362.977226 
L 141.512765 362.421439 
L 142.625812 361.865652 
L 158.484965 361.865652 
L 158.899905 361.309866 
L 161.031757 360.754079 
L 162.386734 360.754079 
L 163.888662 360.198292 
L 163.92912 359.086719 
L 164.961547 358.530932 
L 165.655434 357.975146 
L 175.214603 357.975146 
L 177.120145 357.419359 
L 177.696212 357.419359 
L 178.019465 356.863572 
L 179.262139 356.863572 
L 180.496706 356.307786 
L 184.386779 356.307786 
L 184.581331 358.530932 
L 184.590881 356.307786 
L 186.077225 356.307786 
L 186.226434 355.751999 
L 188.330302 355.751999 
L 190.400228 355.196212 
L 190.450458 354.640426 
L 196.777018 354.640426 
L 199.445479 354.084639 
L 199.452216 353.528852 
L 208.332009 353.528852 
L 212.036117 352.973066 
L 214.815143 352.973066 
L 215.570697 352.417279 
L 219.812673 352.417279 
L 222.232133 351.861492 
L 222.364759 351.305706 
L 224.723625 351.305706 
L 224.997389 350.749919 
L 225.75013 350.194132 
L 227.430508 350.194132 
L 228.491437 349.638346 
L 230.436621 349.638346 
L 231.706168 349.082559 
L 234.414494 349.082559 
L 235.337172 347.970986 
L 242.343256 347.970986 
L 244.338523 347.415199 
L 246.678178 347.415199 
L 247.205792 346.859412 
L 247.367141 346.303626 
L 247.854187 345.747839 
L 255.911059 345.747839 
L 257.386188 345.192052 
L 258.322931 344.636266 
L 281.233586 344.636266 
L 286.376475 344.080479 
L 286.43792 343.524692 
L 289.938408 343.524692 
L 292.930345 342.968906 
L 298.218555 342.968906 
L 298.665403 342.413119 
L 307.671454 342.413119 
L 314.721439 341.857332 
L 314.789103 341.301546 
L 315.710781 341.301546 
L 317.57816 340.745759 
L 317.68232 339.078399 
L 317.764494 338.522612 
L 321.665116 337.966826 
L 321.898682 337.411039 
L 321.991775 336.299466 
L 322.345048 335.743679 
L 335.038071 335.743679 
L 338.643941 335.187892 
L 340.939326 334.632106 
L 342.737524 334.632106 
L 346.906802 334.076319 
L 347.220321 331.853172 
L 347.474578 331.853172 
L 348.074039 330.741599 
L 355.982295 330.185812 
L 356.233998 329.630026 
L 356.30825 329.074239 
L 357.979004 329.074239 
L 359.556702 328.518452 
L 359.73804 327.962666 
L 359.861189 326.851092 
L 360.905498 326.295306 
L 360.982157 325.739519 
L 362.88755 325.183732 
L 365.392145 324.627946 
L 365.570262 324.072159 
L 365.574038 323.516372 
L 366.077814 322.960586 
L 366.166799 322.404799 
L 369.799949 321.849012 
L 370.451268 321.293226 
L 385.746199 321.293226 
L 388.282627 320.737439 
L 388.513454 320.181652 
L 398.879628 320.181652 
L 399.27458 319.070079 
L 403.593622 319.070079 
L 404.897593 318.514292 
L 404.961296 317.402719 
L 405.296135 316.846932 
L 407.513307 316.291146 
L 407.563241 315.735359 
L 407.83086 315.179572 
L 407.879313 313.512212 
L 408.105106 312.956426 
L 408.410592 312.956426 
L 408.421845 312.400639 
L 410.272789 311.844852 
L 411.00047 311.289066 
L 411.176551 310.733279 
L 414.511323 310.177492 
L 416.968908 310.177492 
L 417.822293 309.621706 
L 427.062207 309.621706 
L 430.123325 309.065919 
L 430.135503 308.510132 
L 430.68603 307.954346 
L 437.894069 307.954346 
L 439.916505 307.398559 
L 440.749642 306.842772 
L 440.971955 305.731199 
L 446.802512 305.731199 
L 447.199759 305.175412 
L 450.401498 305.175412 
L 451.934333 304.619626 
L 456.301421 304.619626 
L 458.941529 304.063839 
L 464.42418 304.063839 
L 465.098041 303.508052 
L 467.810624 303.508052 
L 468.548966 302.952266 
L 468.869258 302.396479 
L 469.027017 301.840692 
L 471.259884 301.840692 
L 471.323365 300.729119 
L 472.138513 300.729119 
L 472.673715 299.061759 
L 474.616013 299.061759 
L 474.857241 298.505972 
L 475.0445 298.505972 
L 475.974174 297.950186 
L 477.516929 297.950186 
L 477.571082 297.394399 
L 478.692568 297.394399 
L 478.964963 296.838612 
L 480.019044 296.838612 
L 481.632943 295.727039 
L 482.333085 295.727039 
L 485.04093 294.615466 
L 485.045002 294.059679 
L 485.561993 293.503892 
L 486.881066 292.948106 
L 487.086167 292.392319 
L 488.401316 291.836532 
L 490.551158 291.836532 
L 490.86823 291.280746 
L 491.052417 290.724959 
L 493.889186 290.724959 
L 493.963624 290.169172 
L 494.71059 290.169172 
L 494.767927 289.613386 
L 495.177833 289.057599 
L 496.604102 289.057599 
L 496.712593 288.501812 
L 496.95693 288.501812 
L 497.017635 287.946026 
L 497.116133 287.946026 
L 497.119464 287.390239 
L 499.125094 287.390239 
L 499.522267 286.834452 
L 499.855774 286.834452 
L 500.055101 286.278666 
L 500.564133 286.278666 
L 500.945242 285.722879 
L 501.025602 285.167092 
L 501.134537 285.167092 
L 503.050332 284.611306 
L 504.483967 284.611306 
L 504.592495 284.055519 
L 510.247822 284.055519 
L 510.274954 283.499732 
L 510.593174 283.499732 
L 511.226355 282.388159 
L 513.252011 282.388159 
L 513.429129 280.720799 
L 513.480802 279.609226 
L 513.814642 279.053439 
L 515.157885 279.053439 
L 515.7914 278.497652 
L 516.405445 278.497652 
L 516.603439 277.941866 
L 517.555284 277.386079 
L 518.436024 277.386079 
L 520.206645 276.830292 
L 520.231593 276.274506 
L 520.772681 276.274506 
L 520.862368 275.718719 
L 522.436365 275.718719 
L 522.48008 275.162932 
L 530.113387 275.162932 
L 530.231317 274.607146 
L 530.458405 274.607146 
L 530.559086 273.495572 
L 531.541987 273.495572 
L 531.621274 272.939786 
L 531.75116 272.939786 
L 532.431943 272.383999 
L 532.603065 271.828212 
L 532.915732 271.828212 
L 533.180316 271.272426 
L 533.266562 270.716639 
L 537.102111 270.716639 
L 538.070243 270.160852 
L 538.261464 269.049279 
L 538.497102 268.493492 
L 538.890463 268.493492 
L 539.13021 267.937706 
L 544.634663 267.937706 
L 544.998041 266.270346 
L 545.750152 266.270346 
L 545.860569 265.714559 
L 548.799537 265.714559 
L 548.870717 264.602986 
L 552.400558 264.602986 
L 552.437129 264.047199 
L 554.137532 264.047199 
L 554.14897 263.491412 
L 554.977 263.491412 
L 554.999394 262.935626 
L 557.520016 262.935626 
L 557.645387 262.379839 
L 557.805107 262.379839 
L 558.029086 261.824052 
L 558.483744 261.824052 
L 558.495551 261.268266 
L 558.784566 261.268266 
L 559.335907 260.712479 
L 563.789129 260.712479 
L 564.11279 260.156692 
L 565.43412 260.156692 
L 565.436563 259.600906 
L 575.538968 259.600906 
L 577.253622 259.045119 
L 577.303333 258.489332 
L 578.171376 257.933546 
L 579.4913 257.933546 
L 579.58506 256.821972 
L 579.823808 256.821972 
L 579.923194 256.266186 
L 583.428679 256.266186 
L 584.061712 255.710399 
L 590.12528 255.710399 
L 590.143935 255.154612 
L 592.124358 255.154612 
L 592.97071 254.598826 
L 602.292021 254.598826 
L 602.408359 253.487252 
L 606.074268 253.487252 
L 606.80343 252.931466 
L 607.584266 252.931466 
L 608.538813 252.375679 
L 614.848383 252.375679 
L 615.452582 251.819892 
L 615.976125 251.819892 
L 616.232825 251.264106 
L 618.242823 250.708319 
L 619.22676 250.708319 
L 619.547608 250.152532 
L 619.652028 250.152532 
L 622.475879 249.596746 
L 627.675142 249.596746 
L 628.082012 249.040959 
L 648.149754 249.040959 
L 648.882988 248.485172 
L 653.523691 248.485172 
L 653.691407 247.929386 
L 653.992859 247.929386 
L 654.083731 247.373599 
L 680.000093 247.373599 
L 680.831528 246.817812 
L 687.019466 246.817812 
L 688.363672 246.262026 
L 688.453767 245.706239 
L 691.67331 245.706239 
L 691.806898 245.150452 
L 702.235332 245.150452 
L 702.25669 244.594666 
L 711.060009 244.594666 
L 711.154768 244.038879 
L 711.726542 243.483092 
L 713.886821 243.483092 
L 713.891782 242.927306 
L 714.330782 242.371519 
L 717.57431 242.371519 
L 718.6459 241.815732 
L 725.56226 241.815732 
L 725.610972 240.704159 
L 769.452377 240.704159 
L 772.542701 240.148372 
L 776.430701 240.148372 
L 776.559884 239.592586 
L 793.797223 239.592586 
L 793.826169 239.036799 
L 811.827057 239.036799 
L 812.012614 238.481012 
L 812.012614 238.481012 
" clip-path="url(#p473b193ced)" style="fill: none; stroke: #0969da; stroke-width: 2; stroke-linecap: square"/>
   </g>
   <g id="line2d_35">
    <path d="M 85.239886 455.237812 
L 88.313331 455.237812 
L 88.325101 454.126239 
L 90.862418 454.126239 
L 91.441927 453.570452 
L 247.854187 453.570452 
L 249.567583 453.014666 
L 292.930345 453.014666 
L 294.133745 452.458879 
L 335.038071 452.458879 
L 338.643941 451.903092 
L 348.074039 451.903092 
L 356.30825 450.235732 
L 357.979004 449.124159 
L 360.982157 449.124159 
L 362.88755 448.568372 
L 365.574038 448.012586 
L 366.166799 448.012586 
L 369.799949 447.456799 
L 370.451268 446.901012 
L 373.368064 446.345226 
L 379.069734 445.789439 
L 379.102715 446.345226 
L 388.513454 446.345226 
L 389.174174 445.789439 
L 402.604391 445.789439 
L 403.593622 445.233652 
L 408.105106 445.233652 
L 408.421845 444.677866 
L 414.025276 444.677866 
L 414.511323 444.122079 
L 435.038645 444.122079 
L 436.961435 443.566292 
L 437.76955 443.566292 
L 437.894069 443.010506 
L 443.372649 443.010506 
L 443.377868 442.454719 
L 456.281026 442.454719 
L 456.301421 441.898932 
L 460.060942 441.898932 
L 461.019413 441.343146 
L 462.431468 440.787359 
L 462.433948 440.231572 
L 462.656187 440.231572 
L 464.42418 438.564212 
L 465.61518 438.564212 
L 465.683732 436.896852 
L 466.143942 436.896852 
L 467.810624 437.452639 
L 469.00925 437.452639 
L 469.027017 435.229492 
L 473.489974 435.229492 
L 474.153249 434.673706 
L 474.857241 434.673706 
L 475.0445 434.117919 
L 491.052417 434.117919 
L 491.267253 433.562132 
L 492.073703 433.562132 
L 493.325741 433.006346 
L 498.849553 433.006346 
L 499.125094 432.450559 
L 501.025602 432.450559 
L 501.134537 431.894772 
L 507.428672 431.894772 
L 507.555375 431.338986 
L 508.007552 431.338986 
L 508.466171 430.783199 
L 508.924344 430.783199 
L 508.951514 430.227412 
L 510.89977 430.227412 
L 511.016109 429.671626 
L 520.060731 429.671626 
L 520.184028 429.115839 
L 520.231593 429.115839 
L 520.324427 428.560052 
L 520.862368 428.560052 
L 521.990073 428.004266 
L 526.398914 428.004266 
L 526.4028 427.448479 
L 527.245229 427.448479 
L 527.277284 426.892692 
L 529.668575 426.892692 
L 530.170871 426.336906 
L 533.357619 426.336906 
L 534.281888 425.781119 
L 536.079382 425.781119 
L 536.098445 424.669546 
L 536.244211 424.669546 
L 536.427658 424.113759 
L 539.319246 424.113759 
L 539.765427 423.557972 
L 540.458981 423.557972 
L 540.719864 423.002186 
L 542.412716 423.002186 
L 542.649095 422.446399 
L 542.65213 421.890612 
L 543.128589 421.890612 
L 543.328656 421.334826 
L 561.564258 421.334826 
L 561.602976 420.223252 
L 564.11279 420.223252 
L 564.835141 419.667466 
L 565.436563 419.667466 
L 568.257897 419.111679 
L 568.781551 419.111679 
L 569.903555 418.555892 
L 570.65463 418.555892 
L 571.263974 418.000106 
L 571.880388 418.555892 
L 573.864734 418.555892 
L 574.404342 418.000106 
L 574.527861 416.888532 
L 575.532194 416.332746 
L 575.538968 415.221172 
L 579.923194 415.221172 
L 580.881998 414.665386 
L 580.979163 412.998026 
L 581.937485 412.442239 
L 582.467469 411.886452 
L 587.000273 411.886452 
L 587.192604 410.219092 
L 587.423801 410.219092 
L 587.595218 409.663306 
L 588.703009 409.107519 
L 590.446757 409.107519 
L 590.805989 408.551732 
L 590.887718 407.995946 
L 591.071018 407.995946 
L 592.124358 406.884372 
L 593.252914 406.884372 
L 593.623473 406.328586 
L 594.925297 406.328586 
L 594.929591 405.217012 
L 595.821397 405.217012 
L 597.005328 404.661226 
L 600.141957 403.549652 
L 600.421977 402.993866 
L 606.80343 402.993866 
L 607.584266 401.882292 
L 619.506521 401.882292 
L 619.652028 400.770719 
L 625.455082 400.770719 
L 626.341744 400.214932 
L 629.032414 400.214932 
L 629.183436 399.659146 
L 645.736734 399.659146 
L 646.000949 399.103359 
L 647.640573 399.103359 
L 648.149754 398.547572 
L 651.209799 398.547572 
L 651.785311 397.991786 
L 651.789086 397.435999 
L 652.44729 396.880212 
L 654.454845 396.880212 
L 654.608162 396.324426 
L 654.619156 395.212852 
L 654.630075 395.768639 
L 655.97913 395.212852 
L 660.847811 395.212852 
L 661.808169 394.101279 
L 670.592796 394.101279 
L 671.271988 393.545492 
L 673.403063 393.545492 
L 673.573666 392.989706 
L 673.597133 392.433919 
L 680.831528 392.433919 
L 685.324134 391.322346 
L 686.390467 391.322346 
L 687.019466 390.766559 
L 696.325378 390.766559 
L 697.469221 390.210772 
L 698.886569 390.210772 
L 700.259277 389.654986 
L 711.726542 389.654986 
L 712.041245 389.099199 
L 712.042947 388.543412 
L 718.463008 388.543412 
L 718.6459 387.987626 
L 747.295462 387.987626 
L 750.956337 387.431839 
L 759.359782 387.431839 
L 761.19803 386.876052 
L 762.815445 386.876052 
L 763.121561 386.320266 
L 766.887929 386.320266 
L 767.524146 385.764479 
L 768.363243 385.764479 
L 769.452377 385.208692 
L 772.063021 385.208692 
L 772.542701 384.652906 
L 772.864029 384.652906 
L 774.033857 384.097119 
L 785.335738 384.097119 
L 785.367349 382.429759 
L 795.228859 382.429759 
L 799.410648 381.873972 
L 799.414054 381.318186 
L 804.317676 381.318186 
L 804.523518 380.762399 
L 804.526553 380.206612 
L 806.820273 380.206612 
L 807.819275 379.650826 
L 808.533927 379.650826 
L 809.636906 379.095039 
L 810.82054 379.095039 
L 811.025086 377.983466 
L 812.012614 377.983466 
L 812.012614 377.983466 
" clip-path="url(#p473b193ced)" style="fill: none; stroke: #bf8700; stroke-width: 2; stroke-linecap: square"/>
   </g>
   <g id="line2d_36">
    <path d="M 85.239886 454.682026 
L 85.502768 454.682026 
L 85.619181 432.450559 
L 86.227562 426.892692 
L 86.575209 425.781119 
L 86.751586 426.336906 
L 87.07347 425.781119 
L 87.617852 425.225332 
L 87.995555 424.113759 
L 88.313331 423.557972 
L 88.325101 423.002186 
L 88.630218 421.334826 
L 89.031314 421.334826 
L 89.577066 420.779039 
L 89.5811 420.223252 
L 90.020508 419.667466 
L 90.141658 419.111679 
L 90.207212 419.111679 
L 90.862418 418.555892 
L 91.330549 418.000106 
L 91.441927 411.886452 
L 91.518956 412.442239 
L 91.707289 408.551732 
L 92.025472 402.993866 
L 94.671095 402.993866 
L 94.915691 399.659146 
L 94.98006 402.438079 
L 95.278291 397.991786 
L 95.425982 397.435999 
L 96.526332 396.880212 
L 96.559535 396.324426 
L 96.798579 395.768639 
L 97.021595 395.768639 
L 97.588261 395.212852 
L 97.890971 394.657066 
L 98.028075 393.545492 
L 98.11147 392.989706 
L 98.394266 392.433919 
L 98.401262 391.878132 
L 98.685687 392.433919 
L 98.766639 391.878132 
L 98.776596 392.433919 
L 98.788515 390.766559 
L 101.425254 390.766559 
L 105.484783 402.993866 
L 106.088796 390.210772 
L 106.529832 389.654986 
L 108.106456 389.654986 
L 108.394842 389.099199 
L 109.011996 388.543412 
L 110.331587 402.993866 
L 110.417203 387.987626 
L 111.42979 387.431839 
L 113.595215 386.876052 
L 113.749642 387.431839 
L 114.065086 385.764479 
L 114.760194 385.764479 
L 114.971402 385.208692 
L 115.370315 384.652906 
L 115.403407 383.541332 
L 115.771374 382.429759 
L 115.792695 382.985546 
L 116.011566 382.985546 
L 116.131569 381.873972 
L 116.500981 379.650826 
L 116.549544 378.539252 
L 117.023487 376.871892 
L 117.255128 377.983466 
L 118.892975 374.648746 
L 119.324239 375.760319 
L 121.099043 373.537172 
L 122.505064 377.427679 
L 122.998514 373.537172 
L 125.025058 371.869812 
L 128.013293 371.869812 
L 128.407949 371.314026 
L 128.722023 369.646666 
L 129.604576 371.314026 
L 133.204524 371.869812 
L 134.097552 369.646666 
L 134.530407 367.979306 
L 135.270341 369.646666 
L 136.94339 367.979306 
L 142.625812 367.979306 
L 148.600913 367.423519 
L 148.999381 366.867732 
L 152.771635 366.311946 
L 155.266014 366.311946 
L 155.730332 365.756159 
L 155.831346 366.311946 
L 158.484965 364.644586 
L 160.973976 364.644586 
L 161.031757 364.088799 
L 162.386734 363.533012 
L 165.655434 363.533012 
L 167.097323 359.642506 
L 168.170504 359.086719 
L 169.551429 358.530932 
L 169.578228 357.975146 
L 174.753875 357.975146 
L 174.853853 354.084639 
L 175.045407 354.084639 
L 175.214603 352.973066 
L 177.120145 352.973066 
L 177.696212 352.417279 
L 180.496706 352.417279 
L 184.386779 351.861492 
L 184.581331 363.533012 
L 184.590881 352.417279 
L 184.84003 351.861492 
L 186.226434 351.861492 
L 188.330302 351.305706 
L 190.450458 351.305706 
L 192.134611 350.749919 
L 196.777018 349.638346 
L 199.452216 349.638346 
L 201.602205 349.082559 
L 201.936748 346.303626 
L 202.16317 346.303626 
L 202.563822 345.747839 
L 204.653662 345.192052 
L 205.136747 342.968906 
L 208.025079 341.857332 
L 208.059873 342.413119 
L 208.332009 341.857332 
L 212.036117 340.745759 
L 214.815143 340.189972 
L 216.142914 340.189972 
L 217.319775 339.634186 
L 218.339654 338.522612 
L 219.421386 337.966826 
L 219.812673 337.411039 
L 222.364759 337.966826 
L 224.723625 336.855252 
L 224.997389 337.411039 
L 225.624315 337.411039 
L 225.75013 336.855252 
L 227.430508 336.299466 
L 228.491437 336.855252 
L 230.436621 335.743679 
L 231.706168 335.743679 
L 234.414494 335.187892 
L 234.8636 335.743679 
L 235.337172 334.076319 
L 236.980461 334.076319 
L 237.305602 333.520532 
L 238.720618 331.297386 
L 239.120419 330.185812 
L 240.158621 330.741599 
L 240.61598 329.630026 
L 240.661731 329.074239 
L 244.338523 329.074239 
L 246.200719 328.518452 
L 246.678178 327.962666 
L 249.567583 327.962666 
L 251.600678 327.406879 
L 255.053861 327.406879 
L 255.911059 326.851092 
L 265.40671 326.851092 
L 265.952055 326.295306 
L 266.006689 325.739519 
L 266.375953 325.183732 
L 270.497149 325.183732 
L 270.753997 324.627946 
L 271.802526 324.072159 
L 271.984122 323.516372 
L 273.721319 322.960586 
L 274.984832 322.404799 
L 280.047138 322.404799 
L 281.233586 321.293226 
L 286.43792 321.293226 
L 287.596939 320.737439 
L 292.447186 320.737439 
L 292.930345 320.181652 
L 294.133745 319.625866 
L 294.491978 319.070079 
L 294.61361 318.514292 
L 298.218555 317.958506 
L 298.665403 318.514292 
L 303.411081 317.402719 
L 307.163273 316.291146 
L 307.671454 315.735359 
L 314.789103 315.735359 
L 315.710781 315.179572 
L 322.345048 315.179572 
L 328.594395 314.623786 
L 329.380449 314.067999 
L 332.003159 313.512212 
L 334.633273 312.956426 
L 335.038071 312.400639 
L 340.939326 312.400639 
L 342.737524 311.844852 
L 356.30825 311.844852 
L 357.979004 311.289066 
L 369.188792 311.289066 
L 369.799949 310.733279 
L 370.451268 311.289066 
L 373.368064 310.733279 
L 383.184267 310.733279 
L 384.499713 310.177492 
L 405.265487 310.177492 
L 405.296135 309.621706 
L 418.12108 309.621706 
L 420.938786 309.065919 
L 420.946004 308.510132 
L 435.032389 308.510132 
L 435.038645 307.398559 
L 443.377868 307.398559 
L 447.199759 306.842772 
L 451.934333 306.842772 
L 456.301421 305.731199 
L 465.098041 305.731199 
L 465.61518 305.175412 
L 465.683732 304.619626 
L 469.00925 304.619626 
L 469.027017 304.063839 
L 469.372332 304.063839 
L 469.922784 303.508052 
L 474.857241 303.508052 
L 475.0445 302.952266 
L 481.632943 302.952266 
L 481.902821 302.396479 
L 497.992874 302.396479 
L 498.848332 300.729119 
L 498.849553 300.173332 
L 501.129096 300.173332 
L 501.134537 299.617546 
L 507.858381 299.617546 
L 508.007552 299.061759 
L 511.226355 299.061759 
L 511.341991 298.505972 
L 523.29967 298.505972 
L 523.529608 297.950186 
L 526.305154 297.950186 
L 526.4028 297.394399 
L 527.277284 296.838612 
L 549.233021 296.838612 
L 550.376568 295.727039 
L 552.088298 295.727039 
L 552.437129 295.171252 
L 554.14897 295.171252 
L 554.402672 294.615466 
L 558.44721 294.615466 
L 558.495551 294.059679 
L 580.88011 294.059679 
L 580.979163 292.948106 
L 608.958972 292.948106 
L 609.685654 292.392319 
L 657.458035 292.392319 
L 659.702524 291.836532 
L 679.89149 291.836532 
L 680.000093 291.280746 
L 689.038644 291.280746 
L 689.477977 290.724959 
L 812.012614 290.724959 
L 812.012614 290.724959 
" clip-path="url(#p473b193ced)" style="fill: none; stroke: #cf222e; stroke-width: 2; stroke-linecap: square"/>
   </g>
   <g id="line2d_37">
    <path d="M 85.239886 454.682026 
L 85.2608 454.126239 
L 85.425687 -1 
M 85.573887 -1 
L 85.619181 101.201706 
L 88.313331 101.201706 
L 88.325101 97.866986 
L 91.441927 97.866986 
L 91.592764 98.422772 
L 92.025472 98.422772 
L 92.376153 98.978559 
L 94.549129 99.534346 
L 94.59203 98.978559 
L 94.696191 99.534346 
L 101.425254 99.534346 
L 105.484783 98.422772 
L 106.088796 99.534346 
L 106.529832 98.978559 
L 107.641398 99.534346 
L 108.106456 96.755412 
L 109.011996 96.755412 
L 110.331587 98.422772 
L 110.417203 95.643839 
L 111.42979 96.199626 
L 114.065086 96.199626 
L 114.760194 95.088052 
L 115.792695 95.088052 
L 116.069458 91.197546 
L 122.505064 91.197546 
L 122.974454 87.862826 
L 122.998514 86.751252 
L 125.025058 86.751252 
L 128.013293 82.860746 
L 129.580849 82.860746 
L 129.604576 83.416532 
L 133.204524 83.416532 
L 134.097552 80.081812 
L 136.923772 80.081812 
L 136.94339 80.637599 
L 152.771635 80.637599 
L 155.730332 81.193386 
L 155.831346 80.637599 
L 158.899905 81.193386 
L 169.578228 81.193386 
L 174.753875 81.749172 
L 174.853853 74.523946 
L 175.099708 75.079732 
L 178.019465 75.079732 
L 179.262139 75.635519 
L 184.386779 75.635519 
L 184.581331 80.637599 
L 184.590881 71.745012 
L 184.84003 71.745012 
L 186.077225 73.968159 
L 192.134611 73.968159 
L 196.777018 70.077652 
L 201.936748 70.077652 
L 202.16317 68.410292 
L 215.570697 68.410292 
L 216.142914 68.966079 
L 219.398436 68.966079 
L 219.421386 70.077652 
L 225.624315 70.077652 
L 225.75013 73.412372 
L 235.337172 73.412372 
L 235.566148 68.410292 
L 236.977092 67.298719 
L 236.980461 67.854506 
L 237.305602 67.854506 
L 238.464029 65.075572 
L 240.158621 65.075572 
L 240.61598 65.631359 
L 240.661731 65.075572 
L 241.709038 65.631359 
L 241.713813 66.187146 
L 241.73828 65.631359 
L 242.343256 63.408212 
L 247.854187 63.408212 
L 249.567583 63.963999 
L 251.600678 63.963999 
L 255.053861 64.519786 
L 258.322931 64.519786 
L 260.848624 65.631359 
L 266.006689 65.075572 
L 266.375953 65.075572 
L 269.591239 66.187146 
L 270.497149 65.631359 
L 274.984832 65.631359 
L 280.044399 67.854506 
L 280.047138 67.298719 
L 287.596939 67.298719 
L 289.938408 67.854506 
L 331.666173 67.854506 
L 332.003159 68.410292 
L 334.614506 68.410292 
L 334.633273 66.742932 
L 347.220321 66.742932 
L 347.474578 67.298719 
L 373.368064 67.298719 
L 379.069734 67.854506 
L 379.102715 67.298719 
L 383.184267 68.966079 
L 384.499713 68.966079 
L 385.746199 68.410292 
L 389.174174 68.410292 
L 392.444873 68.966079 
L 392.45024 69.521866 
L 401.723911 67.854506 
L 402.604391 68.410292 
L 414.025276 68.410292 
L 414.511323 67.854506 
L 415.401686 68.410292 
L 415.707653 70.633439 
L 420.941488 70.633439 
L 420.946004 71.189226 
L 436.961435 71.189226 
L 437.894069 71.745012 
L 440.971955 71.745012 
L 441.272223 72.300799 
L 456.281026 72.300799 
L 456.301421 72.856586 
L 458.941529 72.856586 
L 460.055352 73.412372 
L 460.060942 73.968159 
L 460.971848 73.412372 
L 461.019413 73.968159 
L 462.433948 73.968159 
L 462.656187 74.523946 
L 465.61518 74.523946 
L 465.683732 73.412372 
L 466.143942 74.523946 
L 467.810624 72.856586 
L 471.840948 72.856586 
L 472.138513 71.189226 
L 473.489974 71.189226 
L 474.153249 72.300799 
L 477.571082 72.300799 
L 478.692568 72.856586 
L 478.964963 72.856586 
L 480.019044 70.077652 
L 481.902821 70.077652 
L 482.333085 70.633439 
L 491.052417 70.633439 
L 491.267253 71.189226 
L 492.073703 71.189226 
L 493.325741 71.745012 
L 507.428672 71.745012 
L 507.555375 72.300799 
L 508.007552 72.300799 
L 508.951514 73.412372 
L 510.274954 73.412372 
L 510.593174 72.856586 
L 510.89977 72.856586 
L 511.016109 73.412372 
L 514.555352 73.412372 
L 515.157885 73.968159 
L 518.238511 73.968159 
L 518.436024 74.523946 
L 520.123471 74.523946 
L 520.231593 75.079732 
L 525.475792 75.079732 
L 525.58854 75.635519 
L 528.64703 75.635519 
L 529.668575 77.858666 
L 530.801166 77.858666 
L 530.80235 78.414452 
L 535.401116 78.414452 
L 536.244211 78.970239 
L 539.765427 78.970239 
L 540.458981 79.526026 
L 543.128589 79.526026 
L 543.328656 80.081812 
L 547.67013 80.081812 
L 548.789209 80.637599 
L 548.870717 81.193386 
L 549.233021 81.193386 
L 550.376568 60.629279 
L 553.92303 60.629279 
L 553.94857 61.185066 
L 554.14897 61.185066 
L 554.402672 60.629279 
L 557.323762 60.629279 
L 557.520016 61.185066 
L 558.029086 61.185066 
L 558.415043 61.740852 
L 558.495551 61.185066 
L 560.068622 61.185066 
L 560.080911 61.740852 
L 560.421895 61.740852 
L 560.571215 62.296639 
L 561.602976 62.852426 
L 568.781551 62.852426 
L 569.903555 63.408212 
L 570.65463 63.408212 
L 571.263974 63.963999 
L 571.880388 63.408212 
L 574.418407 63.408212 
L 574.527861 64.519786 
L 578.171376 64.519786 
L 579.58506 66.187146 
L 594.929591 66.187146 
L 595.821397 66.742932 
L 619.506521 66.742932 
L 619.652028 67.298719 
L 654.454845 67.298719 
L 654.608162 67.854506 
L 654.619156 68.410292 
L 654.630075 67.854506 
L 659.702524 67.854506 
L 660.847811 68.410292 
L 680.831528 68.410292 
L 685.324134 68.966079 
L 686.38162 69.521866 
L 686.390467 67.854506 
L 718.463008 67.854506 
L 718.6459 68.410292 
L 747.295462 68.410292 
L 750.956337 68.966079 
L 753.195645 68.966079 
L 753.438649 69.521866 
L 754.995063 70.077652 
L 759.359782 70.077652 
L 761.19803 70.633439 
L 763.121561 70.633439 
L 763.271361 71.189226 
L 766.435196 71.189226 
L 766.813121 71.745012 
L 766.887929 72.300799 
L 772.520862 72.300799 
L 772.542701 72.856586 
L 776.559884 72.856586 
L 777.338868 72.300799 
L 777.349454 72.856586 
L 778.974495 73.412372 
L 781.859384 73.412372 
L 783.935417 73.968159 
L 785.79332 73.968159 
L 788.531629 61.740852 
L 791.728555 61.740852 
L 791.743362 64.519786 
L 807.81761 64.519786 
L 807.819275 65.075572 
L 808.097296 65.631359 
L 809.636906 65.631359 
L 809.971782 66.187146 
L 812.012614 66.187146 
L 812.012614 66.187146 
" clip-path="url(#p473b193ced)" style="fill: none; stroke: #9467bd; stroke-width: 2; stroke-linecap: square"/>
   </g>
   <g id="patch_3">
    <path d="M 48.90125 455.237812 
L 48.90125 38.397812 
" style="fill: none; stroke: #d0d7de; stroke-width: 0.8; stroke-linejoin: miter; stroke-linecap: square"/>
   </g>
   <g id="patch_4">
    <path d="M 848.35125 455.237812 
L 848.35125 38.397812 
" style="fill: none; stroke: #d0d7de; stroke-width: 0.8; stroke-linejoin: miter; stroke-linecap: square"/>
   </g>
   <g id="patch_5">
    <path d="M 48.90125 455.237812 
L 848.35125 455.237812 
" style="fill: none; stroke: #d0d7de; stroke-width: 0.8; stroke-linejoin: miter; stroke-linecap: square"/>
   </g>
   <g id="patch_6">
    <path d="M 48.90125 38.397812 
L 848.35125 38.397812 
" style="fill: none; stroke: #d0d7de; stroke-width: 0.8; stroke-linejoin: miter; stroke-linecap: square"/>
   </g>
   <g id="text_19">
    <!-- 512 -->
    <g style="fill: #1a7f37" transform="translate(817.012614 173.158477) scale(0.09 -0.09)">
     <defs>
      <path id="DejaVuSans-Bold-35" d="M 678 4666 
L 3669 4666 
L 3669 3781 
L 1638 3781 
L 1638 3059 
Q 1775 3097 1914 3117 
Q 2053 3138 2203 3138 
Q 3056 3138 3531 2711 
Q 4006 2284 4006 1522 
Q 4006 766 3489 337 
Q 2972 -91 2053 -91 
Q 1656 -91 1267 -14 
Q 878 63 494 219 
L 494 1166 
Q 875 947 1217 837 
Q 1559 728 1863 728 
Q 2300 728 2551 942 
Q 2803 1156 2803 1522 
Q 2803 1891 2551 2103 
Q 2300 2316 1863 2316 
Q 1603 2316 1309 2248 
Q 1016 2181 678 2041 
L 678 4666 
z
" transform="scale(0.015625)"/>
      <path id="DejaVuSans-Bold-31" d="M 750 831 
L 1813 831 
L 1813 3847 
L 722 3622 
L 722 4441 
L 1806 4666 
L 2950 4666 
L 2950 831 
L 4013 831 
L 4013 0 
L 750 0 
L 750 831 
z
" transform="scale(0.015625)"/>
      <path id="DejaVuSans-Bold-32" d="M 1844 884 
L 3897 884 
L 3897 0 
L 506 0 
L 506 884 
L 2209 2388 
Q 2438 2594 2547 2791 
Q 2656 2988 2656 3200 
Q 2656 3528 2436 3728 
Q 2216 3928 1850 3928 
Q 1569 3928 1234 3808 
Q 900 3688 519 3450 
L 519 4475 
Q 925 4609 1322 4679 
Q 1719 4750 2100 4750 
Q 2938 4750 3402 4381 
Q 3866 4013 3866 3353 
Q 3866 2972 3669 2642 
Q 3472 2313 2841 1759 
L 1844 884 
z
" transform="scale(0.015625)"/>
     </defs>
     <use xlink:href="#DejaVuSans-Bold-35"/>
     <use xlink:href="#DejaVuSans-Bold-31" transform="translate(69.580078 0)"/>
     <use xlink:href="#DejaVuSans-Bold-32" transform="translate(139.160156 0)"/>
    </g>
   </g>
   <g id="text_20">
    <!-- 390 -->
    <g style="fill: #0969da" transform="translate(817.012614 240.96445) scale(0.09 -0.09)">
     <defs>
      <path id="DejaVuSans-Bold-33" d="M 2981 2516 
Q 3453 2394 3698 2092 
Q 3944 1791 3944 1325 
Q 3944 631 3412 270 
Q 2881 -91 1863 -91 
Q 1503 -91 1142 -33 
Q 781 25 428 141 
L 428 1069 
Q 766 900 1098 814 
Q 1431 728 1753 728 
Q 2231 728 2486 893 
Q 2741 1059 2741 1369 
Q 2741 1688 2480 1852 
Q 2219 2016 1709 2016 
L 1228 2016 
L 1228 2791 
L 1734 2791 
Q 2188 2791 2409 2933 
Q 2631 3075 2631 3366 
Q 2631 3634 2415 3781 
Q 2200 3928 1806 3928 
Q 1516 3928 1219 3862 
Q 922 3797 628 3669 
L 628 4550 
Q 984 4650 1334 4700 
Q 1684 4750 2022 4750 
Q 2931 4750 3382 4451 
Q 3834 4153 3834 3553 
Q 3834 3144 3618 2883 
Q 3403 2622 2981 2516 
z
" transform="scale(0.015625)"/>
      <path id="DejaVuSans-Bold-39" d="M 641 103 
L 641 966 
Q 928 831 1190 764 
Q 1453 697 1709 697 
Q 2247 697 2547 995 
Q 2847 1294 2900 1881 
Q 2688 1725 2447 1647 
Q 2206 1569 1925 1569 
Q 1209 1569 770 1986 
Q 331 2403 331 3084 
Q 331 3838 820 4291 
Q 1309 4744 2131 4744 
Q 3044 4744 3544 4128 
Q 4044 3513 4044 2388 
Q 4044 1231 3459 570 
Q 2875 -91 1856 -91 
Q 1528 -91 1228 -42 
Q 928 6 641 103 
z
M 2125 2350 
Q 2441 2350 2600 2554 
Q 2759 2759 2759 3169 
Q 2759 3575 2600 3781 
Q 2441 3988 2125 3988 
Q 1809 3988 1650 3781 
Q 1491 3575 1491 3169 
Q 1491 2759 1650 2554 
Q 1809 2350 2125 2350 
z
" transform="scale(0.015625)"/>
      <path id="DejaVuSans-Bold-30" d="M 2944 2338 
Q 2944 3213 2780 3570 
Q 2616 3928 2228 3928 
Q 1841 3928 1675 3570 
Q 1509 3213 1509 2338 
Q 1509 1453 1675 1090 
Q 1841 728 2228 728 
Q 2613 728 2778 1090 
Q 2944 1453 2944 2338 
z
M 4147 2328 
Q 4147 1169 3647 539 
Q 3147 -91 2228 -91 
Q 1306 -91 806 539 
Q 306 1169 306 2328 
Q 306 3491 806 4120 
Q 1306 4750 2228 4750 
Q 3147 4750 3647 4120 
Q 4147 3491 4147 2328 
z
" transform="scale(0.015625)"/>
     </defs>
     <use xlink:href="#DejaVuSans-Bold-33"/>
     <use xlink:href="#DejaVuSans-Bold-39" transform="translate(69.580078 0)"/>
     <use xlink:href="#DejaVuSans-Bold-30" transform="translate(139.160156 0)"/>
    </g>
   </g>
   <g id="text_21">
    <!-- 139 -->
    <g style="fill: #bf8700" transform="translate(817.012614 380.466903) scale(0.09 -0.09)">
     <use xlink:href="#DejaVuSans-Bold-31"/>
     <use xlink:href="#DejaVuSans-Bold-33" transform="translate(69.580078 0)"/>
     <use xlink:href="#DejaVuSans-Bold-39" transform="translate(139.160156 0)"/>
    </g>
   </g>
   <g id="text_22">
    <!-- 296 -->
    <g style="fill: #cf222e" transform="translate(817.012614 293.208397) scale(0.09 -0.09)">
     <defs>
      <path id="DejaVuSans-Bold-36" d="M 2316 2303 
Q 2000 2303 1842 2098 
Q 1684 1894 1684 1484 
Q 1684 1075 1842 870 
Q 2000 666 2316 666 
Q 2634 666 2792 870 
Q 2950 1075 2950 1484 
Q 2950 1894 2792 2098 
Q 2634 2303 2316 2303 
z
M 3803 4544 
L 3803 3681 
Q 3506 3822 3243 3889 
Q 2981 3956 2731 3956 
Q 2194 3956 1894 3657 
Q 1594 3359 1544 2772 
Q 1750 2925 1990 3001 
Q 2231 3078 2516 3078 
Q 3231 3078 3670 2659 
Q 4109 2241 4109 1563 
Q 4109 813 3618 361 
Q 3128 -91 2303 -91 
Q 1394 -91 895 523 
Q 397 1138 397 2266 
Q 397 3422 980 4083 
Q 1563 4744 2578 4744 
Q 2900 4744 3203 4694 
Q 3506 4644 3803 4544 
z
" transform="scale(0.015625)"/>
     </defs>
     <use xlink:href="#DejaVuSans-Bold-32"/>
     <use xlink:href="#DejaVuSans-Bold-39" transform="translate(69.580078 0)"/>
     <use xlink:href="#DejaVuSans-Bold-36" transform="translate(139.160156 0)"/>
    </g>
   </g>
   <g id="text_23">
    <!-- 700 -->
    <g style="fill: #9467bd" transform="translate(817.012614 68.670583) scale(0.09 -0.09)">
     <defs>
      <path id="DejaVuSans-Bold-37" d="M 428 4666 
L 3944 4666 
L 3944 3988 
L 2125 0 
L 953 0 
L 2675 3781 
L 428 3781 
L 428 4666 
z
" transform="scale(0.015625)"/>
     </defs>
     <use xlink:href="#DejaVuSans-Bold-37"/>
     <use xlink:href="#DejaVuSans-Bold-30" transform="translate(69.580078 0)"/>
     <use xlink:href="#DejaVuSans-Bold-30" transform="translate(139.160156 0)"/>
    </g>
   </g>
   <g id="text_24">
    <!-- Erdős Problems Progress -->
    <g style="fill: #24292f" transform="translate(349.588281 18.397812) scale(0.14 -0.14)">
     <defs>
      <path id="DejaVuSans-Bold-45" d="M 588 4666 
L 3834 4666 
L 3834 3756 
L 1791 3756 
L 1791 2888 
L 3713 2888 
L 3713 1978 
L 1791 1978 
L 1791 909 
L 3903 909 
L 3903 0 
L 588 0 
L 588 4666 
z
" transform="scale(0.015625)"/>
      <path id="DejaVuSans-Bold-72" d="M 3138 2547 
Q 2991 2616 2845 2648 
Q 2700 2681 2553 2681 
Q 2122 2681 1889 2404 
Q 1656 2128 1656 1613 
L 1656 0 
L 538 0 
L 538 3500 
L 1656 3500 
L 1656 2925 
Q 1872 3269 2151 3426 
Q 2431 3584 2822 3584 
Q 2878 3584 2943 3579 
Q 3009 3575 3134 3559 
L 3138 2547 
z
" transform="scale(0.015625)"/>
      <path id="DejaVuSans-Bold-64" d="M 2919 2988 
L 2919 4863 
L 4044 4863 
L 4044 0 
L 2919 0 
L 2919 506 
Q 2688 197 2409 53 
Q 2131 -91 1766 -91 
Q 1119 -91 703 423 
Q 288 938 288 1747 
Q 288 2556 703 3070 
Q 1119 3584 1766 3584 
Q 2128 3584 2408 3439 
Q 2688 3294 2919 2988 
z
M 2181 722 
Q 2541 722 2730 984 
Q 2919 1247 2919 1747 
Q 2919 2247 2730 2509 
Q 2541 2772 2181 2772 
Q 1825 2772 1636 2509 
Q 1447 2247 1447 1747 
Q 1447 1247 1636 984 
Q 1825 722 2181 722 
z
" transform="scale(0.015625)"/>
      <path id="DejaVuSans-Bold-151" d="M 1881 5119 
L 2560 5119 
L 1785 3944 
L 1275 3944 
L 1881 5119 
z
M 3016 5119 
L 3738 5119 
L 2888 3944 
L 2344 3944 
L 3016 5119 
z
M 2203 2784 
Q 1831 2784 1636 2517 
Q 1441 2250 1441 1747 
Q 1441 1244 1636 976 
Q 1831 709 2203 709 
Q 2569 709 2762 976 
Q 2956 1244 2956 1747 
Q 2956 2250 2762 2517 
Q 2569 2784 2203 2784 
z
M 2203 3584 
Q 3106 3584 3614 3096 
Q 4122 2609 4122 1747 
Q 4122 884 3614 396 
Q 3106 -91 2203 -91 
Q 1297 -91 786 396 
Q 275 884 275 1747 
Q 275 2609 786 3096 
Q 1297 3584 2203 3584 
z
" transform="scale(0.015625)"/>
      <path id="DejaVuSans-Bold-73" d="M 3272 3391 
L 3272 2541 
Q 2913 2691 2578 2766 
Q 2244 2841 1947 2841 
Q 1628 2841 1473 2761 
Q 1319 2681 1319 2516 
Q 1319 2381 1436 2309 
Q 1553 2238 1856 2203 
L 2053 2175 
Q 2913 2066 3209 1816 
Q 3506 1566 3506 1031 
Q 3506 472 3093 190 
Q 2681 -91 1863 -91 
Q 1516 -91 1145 -36 
Q 775 19 384 128 
L 384 978 
Q 719 816 1070 734 
Q 1422 653 1784 653 
Q 2113 653 2278 743 
Q 2444 834 2444 1013 
Q 2444 1163 2330 1236 
Q 2216 1309 1875 1350 
L 1678 1375 
Q 931 1469 631 1722 
Q 331 1975 331 2491 
Q 331 3047 712 3315 
Q 1094 3584 1881 3584 
Q 2191 3584 2531 3537 
Q 2872 3491 3272 3391 
z
" transform="scale(0.015625)"/>
      <path id="DejaVuSans-Bold-20" transform="scale(0.015625)"/>
      <path id="DejaVuSans-Bold-50" d="M 588 4666 
L 2584 4666 
Q 3475 4666 3951 4270 
Q 4428 3875 4428 3144 
Q 4428 2409 3951 2014 
Q 3475 1619 2584 1619 
L 1791 1619 
L 1791 0 
L 588 0 
L 588 4666 
z
M 1791 3794 
L 1791 2491 
L 2456 2491 
Q 2806 2491 2997 2661 
Q 3188 2831 3188 3144 
Q 3188 3456 2997 3625 
Q 2806 3794 2456 3794 
L 1791 3794 
z
" transform="scale(0.015625)"/>
      <path id="DejaVuSans-Bold-6f" d="M 2203 2784 
Q 1831 2784 1636 2517 
Q 1441 2250 1441 1747 
Q 1441 1244 1636 976 
Q 1831 709 2203 709 
Q 2569 709 2762 976 
Q 2956 1244 2956 1747 
Q 2956 2250 2762 2517 
Q 2569 2784 2203 2784 
z
M 2203 3584 
Q 3106 3584 3614 3096 
Q 4122 2609 4122 1747 
Q 4122 884 3614 396 
Q 3106 -91 2203 -91 
Q 1297 -91 786 396 
Q 275 884 275 1747 
Q 275 2609 786 3096 
Q 1297 3584 2203 3584 
z
" transform="scale(0.015625)"/>
      <path id="DejaVuSans-Bold-62" d="M 2400 722 
Q 2759 722 2948 984 
Q 3138 1247 3138 1747 
Q 3138 2247 2948 2509 
Q 2759 2772 2400 2772 
Q 2041 2772 1848 2508 
Q 1656 2244 1656 1747 
Q 1656 1250 1848 986 
Q 2041 722 2400 722 
z
M 1656 2988 
Q 1888 3294 2169 3439 
Q 2450 3584 2816 3584 
Q 3463 3584 3878 3070 
Q 4294 2556 4294 1747 
Q 4294 938 3878 423 
Q 3463 -91 2816 -91 
Q 2450 -91 2169 54 
Q 1888 200 1656 506 
L 1656 0 
L 538 0 
L 538 4863 
L 1656 4863 
L 1656 2988 
z
" transform="scale(0.015625)"/>
      <path id="DejaVuSans-Bold-6c" d="M 538 4863 
L 1656 4863 
L 1656 0 
L 538 0 
L 538 4863 
z
" transform="scale(0.015625)"/>
      <path id="DejaVuSans-Bold-65" d="M 4031 1759 
L 4031 1441 
L 1416 1441 
Q 1456 1047 1700 850 
Q 1944 653 2381 653 
Q 2734 653 3104 758 
Q 3475 863 3866 1075 
L 3866 213 
Q 3469 63 3072 -14 
Q 2675 -91 2278 -91 
Q 1328 -91 801 392 
Q 275 875 275 1747 
Q 275 2603 792 3093 
Q 1309 3584 2216 3584 
Q 3041 3584 3536 3087 
Q 4031 2591 4031 1759 
z
M 2881 2131 
Q 2881 2450 2695 2645 
Q 2509 2841 2209 2841 
Q 1884 2841 1681 2658 
Q 1478 2475 1428 2131 
L 2881 2131 
z
" transform="scale(0.015625)"/>
      <path id="DejaVuSans-Bold-6d" d="M 3781 2919 
Q 3994 3244 4286 3414 
Q 4578 3584 4928 3584 
Q 5531 3584 5847 3212 
Q 6163 2841 6163 2131 
L 6163 0 
L 5038 0 
L 5038 1825 
Q 5041 1866 5042 1909 
Q 5044 1953 5044 2034 
Q 5044 2406 4934 2573 
Q 4825 2741 4581 2741 
Q 4263 2741 4089 2478 
Q 3916 2216 3909 1719 
L 3909 0 
L 2784 0 
L 2784 1825 
Q 2784 2406 2684 2573 
Q 2584 2741 2328 2741 
Q 2006 2741 1831 2477 
Q 1656 2213 1656 1722 
L 1656 0 
L 531 0 
L 531 3500 
L 1656 3500 
L 1656 2988 
Q 1863 3284 2130 3434 
Q 2397 3584 2719 3584 
Q 3081 3584 3359 3409 
Q 3638 3234 3781 2919 
z
" transform="scale(0.015625)"/>
      <path id="DejaVuSans-Bold-67" d="M 2919 594 
Q 2688 288 2409 144 
Q 2131 0 1766 0 
Q 1125 0 706 504 
Q 288 1009 288 1791 
Q 288 2575 706 3076 
Q 1125 3578 1766 3578 
Q 2131 3578 2409 3434 
Q 2688 3291 2919 2981 
L 2919 3500 
L 4044 3500 
L 4044 353 
Q 4044 -491 3511 -936 
Q 2978 -1381 1966 -1381 
Q 1638 -1381 1331 -1331 
Q 1025 -1281 716 -1178 
L 716 -306 
Q 1009 -475 1290 -558 
Q 1572 -641 1856 -641 
Q 2406 -641 2662 -400 
Q 2919 -159 2919 353 
L 2919 594 
z
M 2181 2772 
Q 1834 2772 1640 2515 
Q 1447 2259 1447 1791 
Q 1447 1309 1634 1061 
Q 1822 813 2181 813 
Q 2531 813 2725 1069 
Q 2919 1325 2919 1791 
Q 2919 2259 2725 2515 
Q 2531 2772 2181 2772 
z
" transform="scale(0.015625)"/>
     </defs>
     <use xlink:href="#DejaVuSans-Bold-45"/>
     <use xlink:href="#DejaVuSans-Bold-72" transform="translate(68.310547 0)"/>
     <use xlink:href="#DejaVuSans-Bold-64" transform="translate(117.626953 0)"/>
     <use xlink:href="#DejaVuSans-Bold-151" transform="translate(189.208984 0)"/>
     <use xlink:href="#DejaVuSans-Bold-73" transform="translate(257.910156 0)"/>
     <use xlink:href="#DejaVuSans-Bold-20" transform="translate(317.431641 0)"/>
     <use xlink:href="#DejaVuSans-Bold-50" transform="translate(352.246094 0)"/>
     <use xlink:href="#DejaVuSans-Bold-72" transform="translate(425.537109 0)"/>
     <use xlink:href="#DejaVuSans-Bold-6f" transform="translate(474.853516 0)"/>
     <use xlink:href="#DejaVuSans-Bold-62" transform="translate(543.554688 0)"/>
     <use xlink:href="#DejaVuSans-Bold-6c" transform="translate(615.136719 0)"/>
     <use xlink:href="#DejaVuSans-Bold-65" transform="translate(649.414062 0)"/>
     <use xlink:href="#DejaVuSans-Bold-6d" transform="translate(717.236328 0)"/>
     <use xlink:href="#DejaVuSans-Bold-73" transform="translate(821.435547 0)"/>
     <use xlink:href="#DejaVuSans-Bold-20" transform="translate(880.957031 0)"/>
     <use xlink:href="#DejaVuSans-Bold-50" transform="translate(915.771484 0)"/>
     <use xlink:href="#DejaVuSans-Bold-72" transform="translate(989.0625 0)"/>
     <use xlink:href="#DejaVuSans-Bold-6f" transform="translate(1038.378906 0)"/>
     <use xlink:href="#DejaVuSans-Bold-67" transform="translate(1107.080078 0)"/>
     <use xlink:href="#DejaVuSans-Bold-72" transform="translate(1178.662109 0)"/>
     <use xlink:href="#DejaVuSans-Bold-65" transform="translate(1227.978516 0)"/>
     <use xlink:href="#DejaVuSans-Bold-73" transform="translate(1295.800781 0)"/>
     <use xlink:href="#DejaVuSans-Bold-73" transform="translate(1355.322266 0)"/>
    </g>
   </g>
   <g id="legend_1">
    <g id="patch_7">
     <path d="M 55.90125 119.788437 
L 213.771563 119.788437 
Q 215.771563 119.788437 215.771563 117.788437 
L 215.771563 45.397812 
Q 215.771563 43.397812 213.771563 43.397812 
L 55.90125 43.397812 
Q 53.90125 43.397812 53.90125 45.397812 
L 53.90125 117.788437 
Q 53.90125 119.788437 55.90125 119.788437 
z
" style="fill: #f6f8fa; opacity: 0.8; stroke: #d0d7de; stroke-linejoin: miter"/>
    </g>
    <g id="line2d_38">
     <path d="M 57.90125 51.49625 
L 67.90125 51.49625 
L 77.90125 51.49625 
" style="fill: none; stroke: #1a7f37; stroke-width: 2; stroke-linecap: square"/>
    </g>
    <g id="text_25">
     <!-- Solved -->
     <g style="fill: #24292f" transform="translate(85.90125 54.99625) scale(0.1 -0.1)">
      <defs>
       <path id="DejaVuSans-6c" d="M 603 4863 
L 1178 4863 
L 1178 0 
L 603 0 
L 603 4863 
z
" transform="scale(0.015625)"/>
       <path id="DejaVuSans-64" d="M 2906 2969 
L 2906 4863 
L 3481 4863 
L 3481 0 
L 2906 0 
L 2906 525 
Q 2725 213 2448 61 
Q 2172 -91 1784 -91 
Q 1150 -91 751 415 
Q 353 922 353 1747 
Q 353 2572 751 3078 
Q 1150 3584 1784 3584 
Q 2172 3584 2448 3432 
Q 2725 3281 2906 2969 
z
M 947 1747 
Q 947 1113 1208 752 
Q 1469 391 1925 391 
Q 2381 391 2643 752 
Q 2906 1113 2906 1747 
Q 2906 2381 2643 2742 
Q 2381 3103 1925 3103 
Q 1469 3103 1208 2742 
Q 947 2381 947 1747 
z
" transform="scale(0.015625)"/>
      </defs>
      <use xlink:href="#DejaVuSans-53"/>
      <use xlink:href="#DejaVuSans-6f" transform="translate(63.476562 0)"/>
      <use xlink:href="#DejaVuSans-6c" transform="translate(124.658203 0)"/>
      <use xlink:href="#DejaVuSans-76" transform="translate(152.441406 0)"/>
      <use xlink:href="#DejaVuSans-65" transform="translate(211.621094 0)"/>
      <use xlink:href="#DejaVuSans-64" transform="translate(273.144531 0)"/>
     </g>
    </g>
    <g id="line2d_39">
     <path d="M 57.90125 66.174375 
L 67.90125 66.174375 
L 77.90125 66.174375 
" style="fill: none; stroke: #0969da; stroke-width: 2; stroke-linecap: square"/>
    </g>
    <g id="text_26">
     <!-- Lean Formalized Problem -->
     <g style="fill: #24292f" transform="translate(85.90125 69.674375) scale(0.1 -0.1)">
      <defs>
       <path id="DejaVuSans-4c" d="M 628 4666 
L 1259 4666 
L 1259 531 
L 3531 531 
L 3531 0 
L 628 0 
L 628 4666 
z
" transform="scale(0.015625)"/>
       <path id="DejaVuSans-20" transform="scale(0.015625)"/>
       <path id="DejaVuSans-6d" d="M 3328 2828 
Q 3544 3216 3844 3400 
Q 4144 3584 4550 3584 
Q 5097 3584 5394 3201 
Q 5691 2819 5691 2113 
L 5691 0 
L 5113 0 
L 5113 2094 
Q 5113 2597 4934 2840 
Q 4756 3084 4391 3084 
Q 3944 3084 3684 2787 
Q 3425 2491 3425 1978 
L 3425 0 
L 2847 0 
L 2847 2094 
Q 2847 2600 2669 2842 
Q 2491 3084 2119 3084 
Q 1678 3084 1418 2786 
Q 1159 2488 1159 1978 
L 1159 0 
L 581 0 
L 581 3500 
L 1159 3500 
L 1159 2956 
Q 1356 3278 1631 3431 
Q 1906 3584 2284 3584 
Q 2666 3584 2933 3390 
Q 3200 3197 3328 2828 
z
" transform="scale(0.015625)"/>
       <path id="DejaVuSans-69" d="M 603 3500 
L 1178 3500 
L 1178 0 
L 603 0 
L 603 3500 
z
M 603 4863 
L 1178 4863 
L 1178 4134 
L 603 4134 
L 603 4863 
z
" transform="scale(0.015625)"/>
       <path id="DejaVuSans-7a" d="M 353 3500 
L 3084 3500 
L 3084 2975 
L 922 459 
L 3084 459 
L 3084 0 
L 275 0 
L 275 525 
L 2438 3041 
L 353 3041 
L 353 3500 
z
" transform="scale(0.015625)"/>
       <path id="DejaVuSans-50" d="M 1259 4147 
L 1259 2394 
L 2053 2394 
Q 2494 2394 2734 2622 
Q 2975 2850 2975 3272 
Q 2975 3691 2734 3919 
Q 2494 4147 2053 4147 
L 1259 4147 
z
M 628 4666 
L 2053 4666 
Q 2838 4666 3239 4311 
Q 3641 3956 3641 3272 
Q 3641 2581 3239 2228 
Q 2838 1875 2053 1875 
L 1259 1875 
L 1259 0 
L 628 0 
L 628 4666 
z
" transform="scale(0.015625)"/>
      </defs>
      <use xlink:href="#DejaVuSans-4c"/>
      <use xlink:href="#DejaVuSans-65" transform="translate(53.962891 0)"/>
      <use xlink:href="#DejaVuSans-61" transform="translate(115.486328 0)"/>
      <use xlink:href="#DejaVuSans-6e" transform="translate(176.765625 0)"/>
      <use xlink:href="#DejaVuSans-20" transform="translate(240.144531 0)"/>
      <use xlink:href="#DejaVuSans-46" transform="translate(271.931641 0)"/>
      <use xlink:href="#DejaVuSans-6f" transform="translate(325.826172 0)"/>
      <use xlink:href="#DejaVuSans-72" transform="translate(387.007812 0)"/>
      <use xlink:href="#DejaVuSans-6d" transform="translate(426.371094 0)"/>
      <use xlink:href="#DejaVuSans-61" transform="translate(523.783203 0)"/>
      <use xlink:href="#DejaVuSans-6c" transform="translate(585.0625 0)"/>
      <use xlink:href="#DejaVuSans-69" transform="translate(612.845703 0)"/>
      <use xlink:href="#DejaVuSans-7a" transform="translate(640.628906 0)"/>
      <use xlink:href="#DejaVuSans-65" transform="translate(693.119141 0)"/>
      <use xlink:href="#DejaVuSans-64" transform="translate(754.642578 0)"/>
      <use xlink:href="#DejaVuSans-20" transform="translate(818.119141 0)"/>
      <use xlink:href="#DejaVuSans-50" transform="translate(849.90625 0)"/>
      <use xlink:href="#DejaVuSans-72" transform="translate(908.458984 0)"/>
      <use xlink:href="#DejaVuSans-6f" transform="translate(947.322266 0)"/>
      <use xlink:href="#DejaVuSans-62" transform="translate(1008.503906 0)"/>
      <use xlink:href="#DejaVuSans-6c" transform="translate(1071.980469 0)"/>
      <use xlink:href="#DejaVuSans-65" transform="translate(1099.763672 0)"/>
      <use xlink:href="#DejaVuSans-6d" transform="translate(1161.287109 0)"/>
     </g>
    </g>
    <g id="line2d_40">
     <path d="M 57.90125 80.8525 
L 67.90125 80.8525 
L 77.90125 80.8525 
" style="fill: none; stroke: #bf8700; stroke-width: 2; stroke-linecap: square"/>
    </g>
    <g id="text_27">
     <!-- Lean Formalized Solution -->
     <g style="fill: #24292f" transform="translate(85.90125 84.3525) scale(0.1 -0.1)">
      <use xlink:href="#DejaVuSans-4c"/>
      <use xlink:href="#DejaVuSans-65" transform="translate(53.962891 0)"/>
      <use xlink:href="#DejaVuSans-61" transform="translate(115.486328 0)"/>
      <use xlink:href="#DejaVuSans-6e" transform="translate(176.765625 0)"/>
      <use xlink:href="#DejaVuSans-20" transform="translate(240.144531 0)"/>
      <use xlink:href="#DejaVuSans-46" transform="translate(271.931641 0)"/>
      <use xlink:href="#DejaVuSans-6f" transform="translate(325.826172 0)"/>
      <use xlink:href="#DejaVuSans-72" transform="translate(387.007812 0)"/>
      <use xlink:href="#DejaVuSans-6d" transform="translate(426.371094 0)"/>
      <use xlink:href="#DejaVuSans-61" transform="translate(523.783203 0)"/>
      <use xlink:href="#DejaVuSans-6c" transform="translate(585.0625 0)"/>
      <use xlink:href="#DejaVuSans-69" transform="translate(612.845703 0)"/>
      <use xlink:href="#DejaVuSans-7a" transform="translate(640.628906 0)"/>
      <use xlink:href="#DejaVuSans-65" transform="translate(693.119141 0)"/>
      <use xlink:href="#DejaVuSans-64" transform="translate(754.642578 0)"/>
      <use xlink:href="#DejaVuSans-20" transform="translate(818.119141 0)"/>
      <use xlink:href="#DejaVuSans-53" transform="translate(849.90625 0)"/>
      <use xlink:href="#DejaVuSans-6f" transform="translate(913.382812 0)"/>
      <use xlink:href="#DejaVuSans-6c" transform="translate(974.564453 0)"/>
      <use xlink:href="#DejaVuSans-75" transform="translate(1002.347656 0)"/>
      <use xlink:href="#DejaVuSans-74" transform="translate(1065.726562 0)"/>
      <use xlink:href="#DejaVuSans-69" transform="translate(1104.935547 0)"/>
      <use xlink:href="#DejaVuSans-6f" transform="translate(1132.71875 0)"/>
      <use xlink:href="#DejaVuSans-6e" transform="translate(1193.900391 0)"/>
     </g>
    </g>
    <g id="line2d_41">
     <path d="M 57.90125 95.530625 
L 67.90125 95.530625 
L 77.90125 95.530625 
" style="fill: none; stroke: #cf222e; stroke-width: 2; stroke-linecap: square"/>
    </g>
    <g id="text_28">
     <!-- OEIS Linked -->
     <g style="fill: #24292f" transform="translate(85.90125 99.030625) scale(0.1 -0.1)">
      <defs>
       <path id="DejaVuSans-45" d="M 628 4666 
L 3578 4666 
L 3578 4134 
L 1259 4134 
L 1259 2753 
L 3481 2753 
L 3481 2222 
L 1259 2222 
L 1259 531 
L 3634 531 
L 3634 0 
L 628 0 
L 628 4666 
z
" transform="scale(0.015625)"/>
       <path id="DejaVuSans-49" d="M 628 4666 
L 1259 4666 
L 1259 0 
L 628 0 
L 628 4666 
z
" transform="scale(0.015625)"/>
       <path id="DejaVuSans-6b" d="M 581 4863 
L 1159 4863 
L 1159 1991 
L 2875 3500 
L 3609 3500 
L 1753 1863 
L 3688 0 
L 2938 0 
L 1159 1709 
L 1159 0 
L 581 0 
L 581 4863 
z
" transform="scale(0.015625)"/>
      </defs>
      <use xlink:href="#DejaVuSans-4f"/>
      <use xlink:href="#DejaVuSans-45" transform="translate(78.710938 0)"/>
      <use xlink:href="#DejaVuSans-49" transform="translate(141.894531 0)"/>
      <use xlink:href="#DejaVuSans-53" transform="translate(171.386719 0)"/>
      <use xlink:href="#DejaVuSans-20" transform="translate(234.863281 0)"/>
      <use xlink:href="#DejaVuSans-4c" transform="translate(266.650391 0)"/>
      <use xlink:href="#DejaVuSans-69" transform="translate(322.363281 0)"/>
      <use xlink:href="#DejaVuSans-6e" transform="translate(350.146484 0)"/>
      <use xlink:href="#DejaVuSans-6b" transform="translate(413.525391 0)"/>
      <use xlink:href="#DejaVuSans-65" transform="translate(467.810547 0)"/>
      <use xlink:href="#DejaVuSans-64" transform="translate(529.333984 0)"/>
     </g>
    </g>
    <g id="line2d_42">
     <path d="M 57.90125 110.20875 
L 67.90125 110.20875 
L 77.90125 110.20875 
" style="fill: none; stroke: #9467bd; stroke-width: 2; stroke-linecap: square"/>
    </g>
    <g id="text_29">
     <!-- Open Problems -->
     <g style="fill: #24292f" transform="translate(85.90125 113.70875) scale(0.1 -0.1)">
      <defs>
       <path id="DejaVuSans-73" d="M 2834 3397 
L 2834 2853 
Q 2591 2978 2328 3040 
Q 2066 3103 1784 3103 
Q 1356 3103 1142 2972 
Q 928 2841 928 2578 
Q 928 2378 1081 2264 
Q 1234 2150 1697 2047 
L 1894 2003 
Q 2506 1872 2764 1633 
Q 3022 1394 3022 966 
Q 3022 478 2636 193 
Q 2250 -91 1575 -91 
Q 1294 -91 989 -36 
Q 684 19 347 128 
L 347 722 
Q 666 556 975 473 
Q 1284 391 1588 391 
Q 1994 391 2212 530 
Q 2431 669 2431 922 
Q 2431 1156 2273 1281 
Q 2116 1406 1581 1522 
L 1381 1569 
Q 847 1681 609 1914 
Q 372 2147 372 2553 
Q 372 3047 722 3315 
Q 1072 3584 1716 3584 
Q 2034 3584 2315 3537 
Q 2597 3491 2834 3397 
z
" transform="scale(0.015625)"/>
      </defs>
      <use xlink:href="#DejaVuSans-4f"/>
      <use xlink:href="#DejaVuSans-70" transform="translate(78.710938 0)"/>
      <use xlink:href="#DejaVuSans-65" transform="translate(142.1875 0)"/>
      <use xlink:href="#DejaVuSans-6e" transform="translate(203.710938 0)"/>
      <use xlink:href="#DejaVuSans-20" transform="translate(267.089844 0)"/>
      <use xlink:href="#DejaVuSans-50" transform="translate(298.876953 0)"/>
      <use xlink:href="#DejaVuSans-72" transform="translate(357.429688 0)"/>
      <use xlink:href="#DejaVuSans-6f" transform="translate(396.292969 0)"/>
      <use xlink:href="#DejaVuSans-62" transform="translate(457.474609 0)"/>
      <use xlink:href="#DejaVuSans-6c" transform="translate(520.951172 0)"/>
      <use xlink:href="#DejaVuSans-65" transform="translate(548.734375 0)"/>
      <use xlink:href="#DejaVuSans-6d" transform="translate(610.257812 0)"/>
      <use xlink:href="#DejaVuSans-73" transform="translate(707.669922 0)"/>
     </g>
    </g>
   </g>
  </g>
 </g>
 <defs>
  <clipPath id="p473b193ced">
   <rect x="48.90125" y="38.397812" width="799.45" height="416.84"/>
  </clipPath>
 </defs>
</svg>
