<?xml version="1.0" encoding="utf-8" standalone="no"?>
<!DOCTYPE svg PUBLIC "-//W3C//DTD SVG 1.1//EN"
  "http://www.w3.org/Graphics/SVG/1.1/DTD/svg11.dtd">
<svg xmlns:xlink="http://www.w3.org/1999/xlink" width="855.55125pt" height="494.729687pt" viewBox="0 0 855.55125 494.729687" xmlns="http://www.w3.org/2000/svg" version="1.1">
 <metadata>
  <rdf:RDF xmlns:dc="http://purl.org/dc/elements/1.1/" xmlns:cc="http://creativecommons.org/ns#" xmlns:rdf="http://www.w3.org/1999/02/22-rdf-syntax-ns#">
   <cc:Work>
    <dc:type rdf:resource="http://purl.org/dc/dcmitype/StillImage"/>
    <dc:date>2026-04-15T14:00:53.464931</dc:date>
    <dc:format>image/svg+xml</dc:format>
    <dc:creator>
     <cc:Agent>
      <dc:title>Matplotlib v3.10.7, https://matplotlib.org/</dc:title>
     </cc:Agent>
    </dc:creator>
   </cc:Work>
  </rdf:RDF>
 </metadata>
 <defs>
  <style type="text/css">*{stroke-linejoin: round; stroke-linecap: butt}</style>
 </defs>
 <g id="figure_1">
  <g id="patch_1">
   <path d="M 0 494.729687 
L 855.55125 494.729687 
L 855.55125 0 
L 0 0 
z
" style="fill: #0d1117"/>
  </g>
  <g id="axes_1">
   <g id="patch_2">
    <path d="M 48.90125 455.237812 
L 848.35125 455.237812 
L 848.35125 38.397812 
L 48.90125 38.397812 
z
" style="fill: #0d1117"/>
   </g>
   <g id="matplotlib.axis_1">
    <g id="xtick_1">
     <g id="line2d_1">
      <path d="M 86.176358 455.237812 
L 86.176358 38.397812 
" clip-path="url(#pa0972f45d9)" style="fill: none; stroke: #30363d; stroke-opacity: 0.25; stroke-width: 0.5; stroke-linecap: square"/>
     </g>
     <g id="line2d_2">
      <defs>
       <path id="m36ab0093d1" d="M 0 0 
L 0 3.5 
" style="stroke: #c9d1d9; stroke-width: 0.8"/>
      </defs>
      <g>
       <use xlink:href="#m36ab0093d1" x="86.176358" y="455.237812" style="fill: #c9d1d9; stroke: #c9d1d9; stroke-width: 0.8"/>
      </g>
     </g>
     <g id="text_1">
      <!-- Sep -->
      <g style="fill: #c9d1d9" transform="translate(76.751358 469.83625) scale(0.1 -0.1)">
       <defs>
        <path id="DejaVuSans-53" d="M 3425 4513 
L 3425 3897 
Q 3066 4069 2747 4153 
Q 2428 4238 2131 4238 
Q 1616 4238 1336 4038 
Q 1056 3838 1056 3469 
Q 1056 3159 1242 3001 
Q 1428 2844 1947 2747 
L 2328 2669 
Q 3034 2534 3370 2195 
Q 3706 1856 3706 1288 
Q 3706 609 3251 259 
Q 2797 -91 1919 -91 
Q 1588 -91 1214 -16 
Q 841 59 441 206 
L 441 856 
Q 825 641 1194 531 
Q 1563 422 1919 422 
Q 2459 422 2753 634 
Q 3047 847 3047 1241 
Q 3047 1584 2836 1778 
Q 2625 1972 2144 2069 
L 1759 2144 
Q 1053 2284 737 2584 
Q 422 2884 422 3419 
Q 422 4038 858 4394 
Q 1294 4750 2059 4750 
Q 2388 4750 2728 4690 
Q 3069 4631 3425 4513 
z
" transform="scale(0.015625)"/>
        <path id="DejaVuSans-65" d="M 3597 1894 
L 3597 1613 
L 953 1613 
Q 991 1019 1311 708 
Q 1631 397 2203 397 
Q 2534 397 2845 478 
Q 3156 559 3463 722 
L 3463 178 
Q 3153 47 2828 -22 
Q 2503 -91 2169 -91 
Q 1331 -91 842 396 
Q 353 884 353 1716 
Q 353 2575 817 3079 
Q 1281 3584 2069 3584 
Q 2775 3584 3186 3129 
Q 3597 2675 3597 1894 
z
M 3022 2063 
Q 3016 2534 2758 2815 
Q 2500 3097 2075 3097 
Q 1594 3097 1305 2825 
Q 1016 2553 972 2059 
L 3022 2063 
z
" transform="scale(0.015625)"/>
        <path id="DejaVuSans-70" d="M 1159 525 
L 1159 -1331 
L 581 -1331 
L 581 3500 
L 1159 3500 
L 1159 2969 
Q 1341 3281 1617 3432 
Q 1894 3584 2278 3584 
Q 2916 3584 3314 3078 
Q 3713 2572 3713 1747 
Q 3713 922 3314 415 
Q 2916 -91 2278 -91 
Q 1894 -91 1617 61 
Q 1341 213 1159 525 
z
M 3116 1747 
Q 3116 2381 2855 2742 
Q 2594 3103 2138 3103 
Q 1681 3103 1420 2742 
Q 1159 2381 1159 1747 
Q 1159 1113 1420 752 
Q 1681 391 2138 391 
Q 2594 391 2855 752 
Q 3116 1113 3116 1747 
z
" transform="scale(0.015625)"/>
       </defs>
       <use xlink:href="#DejaVuSans-53"/>
       <use xlink:href="#DejaVuSans-65" transform="translate(63.476562 0)"/>
       <use xlink:href="#DejaVuSans-70" transform="translate(125 0)"/>
      </g>
     </g>
    </g>
    <g id="xtick_2">
     <g id="line2d_3">
      <path d="M 182.277993 455.237812 
L 182.277993 38.397812 
" clip-path="url(#pa0972f45d9)" style="fill: none; stroke: #30363d; stroke-opacity: 0.25; stroke-width: 0.5; stroke-linecap: square"/>
     </g>
     <g id="line2d_4">
      <g>
       <use xlink:href="#m36ab0093d1" x="182.277993" y="455.237812" style="fill: #c9d1d9; stroke: #c9d1d9; stroke-width: 0.8"/>
      </g>
     </g>
     <g id="text_2">
      <!-- Oct -->
      <g style="fill: #c9d1d9" transform="translate(173.63268 469.83625) scale(0.1 -0.1)">
       <defs>
        <path id="DejaVuSans-4f" d="M 2522 4238 
Q 1834 4238 1429 3725 
Q 1025 3213 1025 2328 
Q 1025 1447 1429 934 
Q 1834 422 2522 422 
Q 3209 422 3611 934 
Q 4013 1447 4013 2328 
Q 4013 3213 3611 3725 
Q 3209 4238 2522 4238 
z
M 2522 4750 
Q 3503 4750 4090 4092 
Q 4678 3434 4678 2328 
Q 4678 1225 4090 567 
Q 3503 -91 2522 -91 
Q 1538 -91 948 565 
Q 359 1222 359 2328 
Q 359 3434 948 4092 
Q 1538 4750 2522 4750 
z
" transform="scale(0.015625)"/>
        <path id="DejaVuSans-63" d="M 3122 3366 
L 3122 2828 
Q 2878 2963 2633 3030 
Q 2388 3097 2138 3097 
Q 1578 3097 1268 2742 
Q 959 2388 959 1747 
Q 959 1106 1268 751 
Q 1578 397 2138 397 
Q 2388 397 2633 464 
Q 2878 531 3122 666 
L 3122 134 
Q 2881 22 2623 -34 
Q 2366 -91 2075 -91 
Q 1284 -91 818 406 
Q 353 903 353 1747 
Q 353 2603 823 3093 
Q 1294 3584 2113 3584 
Q 2378 3584 2631 3529 
Q 2884 3475 3122 3366 
z
" transform="scale(0.015625)"/>
        <path id="DejaVuSans-74" d="M 1172 4494 
L 1172 3500 
L 2356 3500 
L 2356 3053 
L 1172 3053 
L 1172 1153 
Q 1172 725 1289 603 
Q 1406 481 1766 481 
L 2356 481 
L 2356 0 
L 1766 0 
Q 1100 0 847 248 
Q 594 497 594 1153 
L 594 3053 
L 172 3053 
L 172 3500 
L 594 3500 
L 594 4494 
L 1172 4494 
z
" transform="scale(0.015625)"/>
       </defs>
       <use xlink:href="#DejaVuSans-4f"/>
       <use xlink:href="#DejaVuSans-63" transform="translate(78.710938 0)"/>
       <use xlink:href="#DejaVuSans-74" transform="translate(133.691406 0)"/>
      </g>
     </g>
    </g>
    <g id="xtick_3">
     <g id="line2d_5">
      <path d="M 281.583015 455.237812 
L 281.583015 38.397812 
" clip-path="url(#pa0972f45d9)" style="fill: none; stroke: #30363d; stroke-opacity: 0.25; stroke-width: 0.5; stroke-linecap: square"/>
     </g>
     <g id="line2d_6">
      <g>
       <use xlink:href="#m36ab0093d1" x="281.583015" y="455.237812" style="fill: #c9d1d9; stroke: #c9d1d9; stroke-width: 0.8"/>
      </g>
     </g>
     <g id="text_3">
      <!-- Nov -->
      <g style="fill: #c9d1d9" transform="translate(271.82364 469.83625) scale(0.1 -0.1)">
       <defs>
        <path id="DejaVuSans-4e" d="M 628 4666 
L 1478 4666 
L 3547 763 
L 3547 4666 
L 4159 4666 
L 4159 0 
L 3309 0 
L 1241 3903 
L 1241 0 
L 628 0 
L 628 4666 
z
" transform="scale(0.015625)"/>
        <path id="DejaVuSans-6f" d="M 1959 3097 
Q 1497 3097 1228 2736 
Q 959 2375 959 1747 
Q 959 1119 1226 758 
Q 1494 397 1959 397 
Q 2419 397 2687 759 
Q 2956 1122 2956 1747 
Q 2956 2369 2687 2733 
Q 2419 3097 1959 3097 
z
M 1959 3584 
Q 2709 3584 3137 3096 
Q 3566 2609 3566 1747 
Q 3566 888 3137 398 
Q 2709 -91 1959 -91 
Q 1206 -91 779 398 
Q 353 888 353 1747 
Q 353 2609 779 3096 
Q 1206 3584 1959 3584 
z
" transform="scale(0.015625)"/>
        <path id="DejaVuSans-76" d="M 191 3500 
L 800 3500 
L 1894 563 
L 2988 3500 
L 3597 3500 
L 2284 0 
L 1503 0 
L 191 3500 
z
" transform="scale(0.015625)"/>
       </defs>
       <use xlink:href="#DejaVuSans-4e"/>
       <use xlink:href="#DejaVuSans-6f" transform="translate(74.804688 0)"/>
       <use xlink:href="#DejaVuSans-76" transform="translate(135.986328 0)"/>
      </g>
     </g>
    </g>
    <g id="xtick_4">
     <g id="line2d_7">
      <path d="M 377.68465 455.237812 
L 377.68465 38.397812 
" clip-path="url(#pa0972f45d9)" style="fill: none; stroke: #30363d; stroke-opacity: 0.25; stroke-width: 0.5; stroke-linecap: square"/>
     </g>
     <g id="line2d_8">
      <g>
       <use xlink:href="#m36ab0093d1" x="377.68465" y="455.237812" style="fill: #c9d1d9; stroke: #c9d1d9; stroke-width: 0.8"/>
      </g>
     </g>
     <g id="text_4">
      <!-- Dec -->
      <g style="fill: #c9d1d9" transform="translate(368.008869 469.83625) scale(0.1 -0.1)">
       <defs>
        <path id="DejaVuSans-44" d="M 1259 4147 
L 1259 519 
L 2022 519 
Q 2988 519 3436 956 
Q 3884 1394 3884 2338 
Q 3884 3275 3436 3711 
Q 2988 4147 2022 4147 
L 1259 4147 
z
M 628 4666 
L 1925 4666 
Q 3281 4666 3915 4102 
Q 4550 3538 4550 2338 
Q 4550 1131 3912 565 
Q 3275 0 1925 0 
L 628 0 
L 628 4666 
z
" transform="scale(0.015625)"/>
       </defs>
       <use xlink:href="#DejaVuSans-44"/>
       <use xlink:href="#DejaVuSans-65" transform="translate(77.001953 0)"/>
       <use xlink:href="#DejaVuSans-63" transform="translate(138.525391 0)"/>
      </g>
     </g>
    </g>
    <g id="xtick_5">
     <g id="line2d_9">
      <path d="M 476.989672 455.237812 
L 476.989672 38.397812 
" clip-path="url(#pa0972f45d9)" style="fill: none; stroke: #30363d; stroke-opacity: 0.25; stroke-width: 0.5; stroke-linecap: square"/>
     </g>
     <g id="line2d_10">
      <g>
       <use xlink:href="#m36ab0093d1" x="476.989672" y="455.237812" style="fill: #c9d1d9; stroke: #c9d1d9; stroke-width: 0.8"/>
      </g>
     </g>
     <g id="text_5">
      <!-- 2026 -->
      <g style="fill: #c9d1d9" transform="translate(464.264672 469.83625) scale(0.1 -0.1)">
       <defs>
        <path id="DejaVuSans-32" d="M 1228 531 
L 3431 531 
L 3431 0 
L 469 0 
L 469 531 
Q 828 903 1448 1529 
Q 2069 2156 2228 2338 
Q 2531 2678 2651 2914 
Q 2772 3150 2772 3378 
Q 2772 3750 2511 3984 
Q 2250 4219 1831 4219 
Q 1534 4219 1204 4116 
Q 875 4013 500 3803 
L 500 4441 
Q 881 4594 1212 4672 
Q 1544 4750 1819 4750 
Q 2544 4750 2975 4387 
Q 3406 4025 3406 3419 
Q 3406 3131 3298 2873 
Q 3191 2616 2906 2266 
Q 2828 2175 2409 1742 
Q 1991 1309 1228 531 
z
" transform="scale(0.015625)"/>
        <path id="DejaVuSans-30" d="M 2034 4250 
Q 1547 4250 1301 3770 
Q 1056 3291 1056 2328 
Q 1056 1369 1301 889 
Q 1547 409 2034 409 
Q 2525 409 2770 889 
Q 3016 1369 3016 2328 
Q 3016 3291 2770 3770 
Q 2525 4250 2034 4250 
z
M 2034 4750 
Q 2819 4750 3233 4129 
Q 3647 3509 3647 2328 
Q 3647 1150 3233 529 
Q 2819 -91 2034 -91 
Q 1250 -91 836 529 
Q 422 1150 422 2328 
Q 422 3509 836 4129 
Q 1250 4750 2034 4750 
z
" transform="scale(0.015625)"/>
        <path id="DejaVuSans-36" d="M 2113 2584 
Q 1688 2584 1439 2293 
Q 1191 2003 1191 1497 
Q 1191 994 1439 701 
Q 1688 409 2113 409 
Q 2538 409 2786 701 
Q 3034 994 3034 1497 
Q 3034 2003 2786 2293 
Q 2538 2584 2113 2584 
z
M 3366 4563 
L 3366 3988 
Q 3128 4100 2886 4159 
Q 2644 4219 2406 4219 
Q 1781 4219 1451 3797 
Q 1122 3375 1075 2522 
Q 1259 2794 1537 2939 
Q 1816 3084 2150 3084 
Q 2853 3084 3261 2657 
Q 3669 2231 3669 1497 
Q 3669 778 3244 343 
Q 2819 -91 2113 -91 
Q 1303 -91 875 529 
Q 447 1150 447 2328 
Q 447 3434 972 4092 
Q 1497 4750 2381 4750 
Q 2619 4750 2861 4703 
Q 3103 4656 3366 4563 
z
" transform="scale(0.015625)"/>
       </defs>
       <use xlink:href="#DejaVuSans-32"/>
       <use xlink:href="#DejaVuSans-30" transform="translate(63.623047 0)"/>
       <use xlink:href="#DejaVuSans-32" transform="translate(127.246094 0)"/>
       <use xlink:href="#DejaVuSans-36" transform="translate(190.869141 0)"/>
      </g>
     </g>
    </g>
    <g id="xtick_6">
     <g id="line2d_11">
      <path d="M 576.294695 455.237812 
L 576.294695 38.397812 
" clip-path="url(#pa0972f45d9)" style="fill: none; stroke: #30363d; stroke-opacity: 0.25; stroke-width: 0.5; stroke-linecap: square"/>
     </g>
     <g id="line2d_12">
      <g>
       <use xlink:href="#m36ab0093d1" x="576.294695" y="455.237812" style="fill: #c9d1d9; stroke: #c9d1d9; stroke-width: 0.8"/>
      </g>
     </g>
     <g id="text_6">
      <!-- Feb -->
      <g style="fill: #c9d1d9" transform="translate(567.443132 469.83625) scale(0.1 -0.1)">
       <defs>
        <path id="DejaVuSans-46" d="M 628 4666 
L 3309 4666 
L 3309 4134 
L 1259 4134 
L 1259 2759 
L 3109 2759 
L 3109 2228 
L 1259 2228 
L 1259 0 
L 628 0 
L 628 4666 
z
" transform="scale(0.015625)"/>
        <path id="DejaVuSans-62" d="M 3116 1747 
Q 3116 2381 2855 2742 
Q 2594 3103 2138 3103 
Q 1681 3103 1420 2742 
Q 1159 2381 1159 1747 
Q 1159 1113 1420 752 
Q 1681 391 2138 391 
Q 2594 391 2855 752 
Q 3116 1113 3116 1747 
z
M 1159 2969 
Q 1341 3281 1617 3432 
Q 1894 3584 2278 3584 
Q 2916 3584 3314 3078 
Q 3713 2572 3713 1747 
Q 3713 922 3314 415 
Q 2916 -91 2278 -91 
Q 1894 -91 1617 61 
Q 1341 213 1159 525 
L 1159 0 
L 581 0 
L 581 4863 
L 1159 4863 
L 1159 2969 
z
" transform="scale(0.015625)"/>
       </defs>
       <use xlink:href="#DejaVuSans-46"/>
       <use xlink:href="#DejaVuSans-65" transform="translate(52.019531 0)"/>
       <use xlink:href="#DejaVuSans-62" transform="translate(113.542969 0)"/>
      </g>
     </g>
    </g>
    <g id="xtick_7">
     <g id="line2d_13">
      <path d="M 665.989554 455.237812 
L 665.989554 38.397812 
" clip-path="url(#pa0972f45d9)" style="fill: none; stroke: #30363d; stroke-opacity: 0.25; stroke-width: 0.5; stroke-linecap: square"/>
     </g>
     <g id="line2d_14">
      <g>
       <use xlink:href="#m36ab0093d1" x="665.989554" y="455.237812" style="fill: #c9d1d9; stroke: #c9d1d9; stroke-width: 0.8"/>
      </g>
     </g>
     <g id="text_7">
      <!-- Mar -->
      <g style="fill: #c9d1d9" transform="translate(656.55596 469.83625) scale(0.1 -0.1)">
       <defs>
        <path id="DejaVuSans-4d" d="M 628 4666 
L 1569 4666 
L 2759 1491 
L 3956 4666 
L 4897 4666 
L 4897 0 
L 4281 0 
L 4281 4097 
L 3078 897 
L 2444 897 
L 1241 4097 
L 1241 0 
L 628 0 
L 628 4666 
z
" transform="scale(0.015625)"/>
        <path id="DejaVuSans-61" d="M 2194 1759 
Q 1497 1759 1228 1600 
Q 959 1441 959 1056 
Q 959 750 1161 570 
Q 1363 391 1709 391 
Q 2188 391 2477 730 
Q 2766 1069 2766 1631 
L 2766 1759 
L 2194 1759 
z
M 3341 1997 
L 3341 0 
L 2766 0 
L 2766 531 
Q 2569 213 2275 61 
Q 1981 -91 1556 -91 
Q 1019 -91 701 211 
Q 384 513 384 1019 
Q 384 1609 779 1909 
Q 1175 2209 1959 2209 
L 2766 2209 
L 2766 2266 
Q 2766 2663 2505 2880 
Q 2244 3097 1772 3097 
Q 1472 3097 1187 3025 
Q 903 2953 641 2809 
L 641 3341 
Q 956 3463 1253 3523 
Q 1550 3584 1831 3584 
Q 2591 3584 2966 3190 
Q 3341 2797 3341 1997 
z
" transform="scale(0.015625)"/>
        <path id="DejaVuSans-72" d="M 2631 2963 
Q 2534 3019 2420 3045 
Q 2306 3072 2169 3072 
Q 1681 3072 1420 2755 
Q 1159 2438 1159 1844 
L 1159 0 
L 581 0 
L 581 3500 
L 1159 3500 
L 1159 2956 
Q 1341 3275 1631 3429 
Q 1922 3584 2338 3584 
Q 2397 3584 2469 3576 
Q 2541 3569 2628 3553 
L 2631 2963 
z
" transform="scale(0.015625)"/>
       </defs>
       <use xlink:href="#DejaVuSans-4d"/>
       <use xlink:href="#DejaVuSans-61" transform="translate(86.279297 0)"/>
       <use xlink:href="#DejaVuSans-72" transform="translate(147.558594 0)"/>
      </g>
     </g>
    </g>
    <g id="xtick_8">
     <g id="line2d_15">
      <path d="M 765.294576 455.237812 
L 765.294576 38.397812 
" clip-path="url(#pa0972f45d9)" style="fill: none; stroke: #30363d; stroke-opacity: 0.25; stroke-width: 0.5; stroke-linecap: square"/>
     </g>
     <g id="line2d_16">
      <g>
       <use xlink:href="#m36ab0093d1" x="765.294576" y="455.237812" style="fill: #c9d1d9; stroke: #c9d1d9; stroke-width: 0.8"/>
      </g>
     </g>
     <g id="text_8">
      <!-- Apr -->
      <g style="fill: #c9d1d9" transform="translate(756.644576 469.83625) scale(0.1 -0.1)">
       <defs>
        <path id="DejaVuSans-41" d="M 2188 4044 
L 1331 1722 
L 3047 1722 
L 2188 4044 
z
M 1831 4666 
L 2547 4666 
L 4325 0 
L 3669 0 
L 3244 1197 
L 1141 1197 
L 716 0 
L 50 0 
L 1831 4666 
z
" transform="scale(0.015625)"/>
       </defs>
       <use xlink:href="#DejaVuSans-41"/>
       <use xlink:href="#DejaVuSans-70" transform="translate(68.408203 0)"/>
       <use xlink:href="#DejaVuSans-72" transform="translate(131.884766 0)"/>
      </g>
     </g>
    </g>
    <g id="text_9">
     <!-- Date -->
     <g style="fill: #c9d1d9" transform="translate(434.285313 485.034062) scale(0.12 -0.12)">
      <use xlink:href="#DejaVuSans-44"/>
      <use xlink:href="#DejaVuSans-61" transform="translate(77.001953 0)"/>
      <use xlink:href="#DejaVuSans-74" transform="translate(138.28125 0)"/>
      <use xlink:href="#DejaVuSans-65" transform="translate(177.490234 0)"/>
     </g>
    </g>
   </g>
   <g id="matplotlib.axis_2">
    <g id="ytick_1">
     <g id="line2d_17">
      <path d="M 48.90125 455.237812 
L 848.35125 455.237812 
" clip-path="url(#pa0972f45d9)" style="fill: none; stroke: #30363d; stroke-opacity: 0.25; stroke-width: 0.5; stroke-linecap: square"/>
     </g>
     <g id="line2d_18">
      <defs>
       <path id="m0a8d2daf51" d="M 0 0 
L -3.5 0 
" style="stroke: #c9d1d9; stroke-width: 0.8"/>
      </defs>
      <g>
       <use xlink:href="#m0a8d2daf51" x="48.90125" y="455.237812" style="fill: #c9d1d9; stroke: #c9d1d9; stroke-width: 0.8"/>
      </g>
     </g>
     <g id="text_10">
      <!-- 0 -->
      <g style="fill: #c9d1d9" transform="translate(35.53875 459.037031) scale(0.1 -0.1)">
       <use xlink:href="#DejaVuSans-30"/>
      </g>
     </g>
    </g>
    <g id="ytick_2">
     <g id="line2d_19">
      <path d="M 48.90125 399.659146 
L 848.35125 399.659146 
" clip-path="url(#pa0972f45d9)" style="fill: none; stroke: #30363d; stroke-opacity: 0.25; stroke-width: 0.5; stroke-linecap: square"/>
     </g>
     <g id="line2d_20">
      <g>
       <use xlink:href="#m0a8d2daf51" x="48.90125" y="399.659146" style="fill: #c9d1d9; stroke: #c9d1d9; stroke-width: 0.8"/>
      </g>
     </g>
     <g id="text_11">
      <!-- 100 -->
      <g style="fill: #c9d1d9" transform="translate(22.81375 403.458365) scale(0.1 -0.1)">
       <defs>
        <path id="DejaVuSans-31" d="M 794 531 
L 1825 531 
L 1825 4091 
L 703 3866 
L 703 4441 
L 1819 4666 
L 2450 4666 
L 2450 531 
L 3481 531 
L 3481 0 
L 794 0 
L 794 531 
z
" transform="scale(0.015625)"/>
       </defs>
       <use xlink:href="#DejaVuSans-31"/>
       <use xlink:href="#DejaVuSans-30" transform="translate(63.623047 0)"/>
       <use xlink:href="#DejaVuSans-30" transform="translate(127.246094 0)"/>
      </g>
     </g>
    </g>
    <g id="ytick_3">
     <g id="line2d_21">
      <path d="M 48.90125 344.080479 
L 848.35125 344.080479 
" clip-path="url(#pa0972f45d9)" style="fill: none; stroke: #30363d; stroke-opacity: 0.25; stroke-width: 0.5; stroke-linecap: square"/>
     </g>
     <g id="line2d_22">
      <g>
       <use xlink:href="#m0a8d2daf51" x="48.90125" y="344.080479" style="fill: #c9d1d9; stroke: #c9d1d9; stroke-width: 0.8"/>
      </g>
     </g>
     <g id="text_12">
      <!-- 200 -->
      <g style="fill: #c9d1d9" transform="translate(22.81375 347.879698) scale(0.1 -0.1)">
       <use xlink:href="#DejaVuSans-32"/>
       <use xlink:href="#DejaVuSans-30" transform="translate(63.623047 0)"/>
       <use xlink:href="#DejaVuSans-30" transform="translate(127.246094 0)"/>
      </g>
     </g>
    </g>
    <g id="ytick_4">
     <g id="line2d_23">
      <path d="M 48.90125 288.501812 
L 848.35125 288.501812 
" clip-path="url(#pa0972f45d9)" style="fill: none; stroke: #30363d; stroke-opacity: 0.25; stroke-width: 0.5; stroke-linecap: square"/>
     </g>
     <g id="line2d_24">
      <g>
       <use xlink:href="#m0a8d2daf51" x="48.90125" y="288.501812" style="fill: #c9d1d9; stroke: #c9d1d9; stroke-width: 0.8"/>
      </g>
     </g>
     <g id="text_13">
      <!-- 300 -->
      <g style="fill: #c9d1d9" transform="translate(22.81375 292.301031) scale(0.1 -0.1)">
       <defs>
        <path id="DejaVuSans-33" d="M 2597 2516 
Q 3050 2419 3304 2112 
Q 3559 1806 3559 1356 
Q 3559 666 3084 287 
Q 2609 -91 1734 -91 
Q 1441 -91 1130 -33 
Q 819 25 488 141 
L 488 750 
Q 750 597 1062 519 
Q 1375 441 1716 441 
Q 2309 441 2620 675 
Q 2931 909 2931 1356 
Q 2931 1769 2642 2001 
Q 2353 2234 1838 2234 
L 1294 2234 
L 1294 2753 
L 1863 2753 
Q 2328 2753 2575 2939 
Q 2822 3125 2822 3475 
Q 2822 3834 2567 4026 
Q 2313 4219 1838 4219 
Q 1578 4219 1281 4162 
Q 984 4106 628 3988 
L 628 4550 
Q 988 4650 1302 4700 
Q 1616 4750 1894 4750 
Q 2613 4750 3031 4423 
Q 3450 4097 3450 3541 
Q 3450 3153 3228 2886 
Q 3006 2619 2597 2516 
z
" transform="scale(0.015625)"/>
       </defs>
       <use xlink:href="#DejaVuSans-33"/>
       <use xlink:href="#DejaVuSans-30" transform="translate(63.623047 0)"/>
       <use xlink:href="#DejaVuSans-30" transform="translate(127.246094 0)"/>
      </g>
     </g>
    </g>
    <g id="ytick_5">
     <g id="line2d_25">
      <path d="M 48.90125 232.923146 
L 848.35125 232.923146 
" clip-path="url(#pa0972f45d9)" style="fill: none; stroke: #30363d; stroke-opacity: 0.25; stroke-width: 0.5; stroke-linecap: square"/>
     </g>
     <g id="line2d_26">
      <g>
       <use xlink:href="#m0a8d2daf51" x="48.90125" y="232.923146" style="fill: #c9d1d9; stroke: #c9d1d9; stroke-width: 0.8"/>
      </g>
     </g>
     <g id="text_14">
      <!-- 400 -->
      <g style="fill: #c9d1d9" transform="translate(22.81375 236.722365) scale(0.1 -0.1)">
       <defs>
        <path id="DejaVuSans-34" d="M 2419 4116 
L 825 1625 
L 2419 1625 
L 2419 4116 
z
M 2253 4666 
L 3047 4666 
L 3047 1625 
L 3713 1625 
L 3713 1100 
L 3047 1100 
L 3047 0 
L 2419 0 
L 2419 1100 
L 313 1100 
L 313 1709 
L 2253 4666 
z
" transform="scale(0.015625)"/>
       </defs>
       <use xlink:href="#DejaVuSans-34"/>
       <use xlink:href="#DejaVuSans-30" transform="translate(63.623047 0)"/>
       <use xlink:href="#DejaVuSans-30" transform="translate(127.246094 0)"/>
      </g>
     </g>
    </g>
    <g id="ytick_6">
     <g id="line2d_27">
      <path d="M 48.90125 177.344479 
L 848.35125 177.344479 
" clip-path="url(#pa0972f45d9)" style="fill: none; stroke: #30363d; stroke-opacity: 0.25; stroke-width: 0.5; stroke-linecap: square"/>
     </g>
     <g id="line2d_28">
      <g>
       <use xlink:href="#m0a8d2daf51" x="48.90125" y="177.344479" style="fill: #c9d1d9; stroke: #c9d1d9; stroke-width: 0.8"/>
      </g>
     </g>
     <g id="text_15">
      <!-- 500 -->
      <g style="fill: #c9d1d9" transform="translate(22.81375 181.143698) scale(0.1 -0.1)">
       <defs>
        <path id="DejaVuSans-35" d="M 691 4666 
L 3169 4666 
L 3169 4134 
L 1269 4134 
L 1269 2991 
Q 1406 3038 1543 3061 
Q 1681 3084 1819 3084 
Q 2600 3084 3056 2656 
Q 3513 2228 3513 1497 
Q 3513 744 3044 326 
Q 2575 -91 1722 -91 
Q 1428 -91 1123 -41 
Q 819 9 494 109 
L 494 744 
Q 775 591 1075 516 
Q 1375 441 1709 441 
Q 2250 441 2565 725 
Q 2881 1009 2881 1497 
Q 2881 1984 2565 2268 
Q 2250 2553 1709 2553 
Q 1456 2553 1204 2497 
Q 953 2441 691 2322 
L 691 4666 
z
" transform="scale(0.015625)"/>
       </defs>
       <use xlink:href="#DejaVuSans-35"/>
       <use xlink:href="#DejaVuSans-30" transform="translate(63.623047 0)"/>
       <use xlink:href="#DejaVuSans-30" transform="translate(127.246094 0)"/>
      </g>
     </g>
    </g>
    <g id="ytick_7">
     <g id="line2d_29">
      <path d="M 48.90125 121.765812 
L 848.35125 121.765812 
" clip-path="url(#pa0972f45d9)" style="fill: none; stroke: #30363d; stroke-opacity: 0.25; stroke-width: 0.5; stroke-linecap: square"/>
     </g>
     <g id="line2d_30">
      <g>
       <use xlink:href="#m0a8d2daf51" x="48.90125" y="121.765812" style="fill: #c9d1d9; stroke: #c9d1d9; stroke-width: 0.8"/>
      </g>
     </g>
     <g id="text_16">
      <!-- 600 -->
      <g style="fill: #c9d1d9" transform="translate(22.81375 125.565031) scale(0.1 -0.1)">
       <use xlink:href="#DejaVuSans-36"/>
       <use xlink:href="#DejaVuSans-30" transform="translate(63.623047 0)"/>
       <use xlink:href="#DejaVuSans-30" transform="translate(127.246094 0)"/>
      </g>
     </g>
    </g>
    <g id="ytick_8">
     <g id="line2d_31">
      <path d="M 48.90125 66.187146 
L 848.35125 66.187146 
" clip-path="url(#pa0972f45d9)" style="fill: none; stroke: #30363d; stroke-opacity: 0.25; stroke-width: 0.5; stroke-linecap: square"/>
     </g>
     <g id="line2d_32">
      <g>
       <use xlink:href="#m0a8d2daf51" x="48.90125" y="66.187146" style="fill: #c9d1d9; stroke: #c9d1d9; stroke-width: 0.8"/>
      </g>
     </g>
     <g id="text_17">
      <!-- 700 -->
      <g style="fill: #c9d1d9" transform="translate(22.81375 69.986365) scale(0.1 -0.1)">
       <defs>
        <path id="DejaVuSans-37" d="M 525 4666 
L 3525 4666 
L 3525 4397 
L 1831 0 
L 1172 0 
L 2766 4134 
L 525 4134 
L 525 4666 
z
" transform="scale(0.015625)"/>
       </defs>
       <use xlink:href="#DejaVuSans-37"/>
       <use xlink:href="#DejaVuSans-30" transform="translate(63.623047 0)"/>
       <use xlink:href="#DejaVuSans-30" transform="translate(127.246094 0)"/>
      </g>
     </g>
    </g>
    <g id="text_18">
     <!-- Count -->
     <g style="fill: #c9d1d9" transform="translate(16.318125 264.635937) rotate(-90) scale(0.12 -0.12)">
      <defs>
       <path id="DejaVuSans-43" d="M 4122 4306 
L 4122 3641 
Q 3803 3938 3442 4084 
Q 3081 4231 2675 4231 
Q 1875 4231 1450 3742 
Q 1025 3253 1025 2328 
Q 1025 1406 1450 917 
Q 1875 428 2675 428 
Q 3081 428 3442 575 
Q 3803 722 4122 1019 
L 4122 359 
Q 3791 134 3420 21 
Q 3050 -91 2638 -91 
Q 1578 -91 968 557 
Q 359 1206 359 2328 
Q 359 3453 968 4101 
Q 1578 4750 2638 4750 
Q 3056 4750 3426 4639 
Q 3797 4528 4122 4306 
z
" transform="scale(0.015625)"/>
       <path id="DejaVuSans-75" d="M 544 1381 
L 544 3500 
L 1119 3500 
L 1119 1403 
Q 1119 906 1312 657 
Q 1506 409 1894 409 
Q 2359 409 2629 706 
Q 2900 1003 2900 1516 
L 2900 3500 
L 3475 3500 
L 3475 0 
L 2900 0 
L 2900 538 
Q 2691 219 2414 64 
Q 2138 -91 1772 -91 
Q 1169 -91 856 284 
Q 544 659 544 1381 
z
M 1991 3584 
L 1991 3584 
z
" transform="scale(0.015625)"/>
       <path id="DejaVuSans-6e" d="M 3513 2113 
L 3513 0 
L 2938 0 
L 2938 2094 
Q 2938 2591 2744 2837 
Q 2550 3084 2163 3084 
Q 1697 3084 1428 2787 
Q 1159 2491 1159 1978 
L 1159 0 
L 581 0 
L 581 3500 
L 1159 3500 
L 1159 2956 
Q 1366 3272 1645 3428 
Q 1925 3584 2291 3584 
Q 2894 3584 3203 3211 
Q 3513 2838 3513 2113 
z
" transform="scale(0.015625)"/>
      </defs>
      <use xlink:href="#DejaVuSans-43"/>
      <use xlink:href="#DejaVuSans-6f" transform="translate(69.824219 0)"/>
      <use xlink:href="#DejaVuSans-75" transform="translate(131.005859 0)"/>
      <use xlink:href="#DejaVuSans-6e" transform="translate(194.384766 0)"/>
      <use xlink:href="#DejaVuSans-74" transform="translate(257.763672 0)"/>
     </g>
    </g>
   </g>
   <g id="line2d_33">
    <path d="M 85.239886 454.682026 
L 85.301248 454.682026 
L 85.449293 454.126239 
L 85.532715 454.126239 
L 85.619807 257.933546 
L 88.318401 257.933546 
L 88.330192 261.268266 
L 91.45216 261.268266 
L 91.603246 260.712479 
L 92.036667 260.712479 
L 92.387927 260.156692 
L 94.564489 259.600906 
L 94.60746 260.156692 
L 94.711792 259.600906 
L 101.451958 259.600906 
L 105.518184 260.712479 
L 106.123194 259.600906 
L 106.564958 259.600906 
L 107.678357 259.045119 
L 108.144183 256.821972 
L 109.051217 256.821972 
L 110.372985 260.712479 
L 110.458742 256.821972 
L 111.473 256.266186 
L 114.112644 256.266186 
L 114.808899 255.710399 
L 115.843103 255.710399 
L 116.120322 254.598826 
L 122.566547 254.598826 
L 123.036711 253.487252 
L 123.060811 252.375679 
L 125.090698 252.375679 
L 128.083864 251.264106 
L 129.654006 251.264106 
L 129.677772 250.708319 
L 133.283659 250.708319 
L 134.178161 247.929386 
L 137.009044 247.929386 
L 137.028694 247.373599 
L 152.883054 247.373599 
L 155.846632 246.817812 
L 155.947813 247.373599 
L 159.021434 246.817812 
L 169.717376 246.817812 
L 174.901562 246.262026 
L 175.001705 245.706239 
L 175.247965 245.150452 
L 178.17254 245.150452 
L 179.417264 244.594666 
L 184.550359 244.594666 
L 184.745232 247.373599 
L 184.754797 245.150452 
L 185.004358 245.150452 
L 186.243594 242.927306 
L 192.310974 242.927306 
L 196.96104 242.371519 
L 202.129283 242.371519 
L 202.356079 241.815732 
L 215.785726 241.815732 
L 216.358888 241.259946 
L 219.619781 241.259946 
L 219.642768 240.148372 
L 225.855932 240.148372 
L 225.981954 236.257866 
L 237.227439 236.257866 
L 237.230813 235.702079 
L 237.556491 235.702079 
L 238.973842 235.146292 
L 240.414217 235.146292 
L 240.872331 234.590506 
L 240.918157 235.146292 
L 241.967193 234.590506 
L 241.971976 234.034719 
L 241.996483 234.590506 
L 242.602457 234.034719 
L 248.12248 234.034719 
L 249.838703 233.478932 
L 251.875153 233.478932 
L 255.334033 232.923146 
L 258.608496 232.923146 
L 261.138357 231.811572 
L 266.674804 231.811572 
L 269.895396 230.699999 
L 270.8028 231.255786 
L 275.297887 231.255786 
L 280.368546 229.032639 
L 287.930803 229.032639 
L 290.276135 228.476852 
L 332.072745 228.476852 
L 332.410287 227.921066 
L 347.652555 227.921066 
L 347.907232 227.365279 
L 373.843439 227.365279 
L 379.554516 226.809492 
L 379.587551 227.365279 
L 383.675838 225.697919 
L 389.675628 225.697919 
L 392.951722 225.142132 
L 392.957098 224.586346 
L 399.792697 224.586346 
L 402.24607 225.142132 
L 403.128003 224.586346 
L 414.567731 224.586346 
L 415.054579 225.142132 
L 415.946411 224.586346 
L 416.252883 222.363199 
L 421.495353 222.363199 
L 421.499877 221.807412 
L 437.541731 221.807412 
L 438.475904 221.251626 
L 441.558868 221.251626 
L 441.859631 220.695839 
L 456.893197 220.695839 
L 456.913626 220.140052 
L 460.67375 220.140052 
L 460.679349 219.584266 
L 461.591758 219.584266 
L 461.639401 219.028479 
L 463.05627 219.028479 
L 463.278876 218.472692 
L 466.311416 218.472692 
L 466.772385 217.361119 
L 468.441818 215.137972 
L 472.478791 215.137972 
L 472.776847 212.359039 
L 474.130537 212.359039 
L 474.794907 211.247466 
L 478.218379 211.247466 
L 479.341715 210.691679 
L 482.557264 210.691679 
L 482.988239 210.135892 
L 491.721957 210.135892 
L 491.937147 209.580106 
L 492.744927 209.580106 
L 493.999031 209.024319 
L 508.12523 209.024319 
L 508.252142 208.468532 
L 508.705066 208.468532 
L 509.650584 207.356959 
L 510.976208 207.356959 
L 511.294953 206.801172 
L 511.602055 206.801172 
L 511.718586 206.245386 
L 515.263668 206.245386 
L 515.867196 205.689599 
L 518.952903 205.689599 
L 519.150742 205.133812 
L 520.840974 205.133812 
L 520.949274 204.578026 
L 526.202126 204.578026 
L 526.31506 204.022239 
L 529.378596 204.022239 
L 530.401826 201.799092 
L 531.536285 201.799092 
L 531.537472 201.243306 
L 536.143825 201.243306 
L 536.988311 200.687519 
L 540.515337 200.687519 
L 541.210035 200.131732 
L 541.471348 200.131732 
L 542.15014 199.575946 
L 543.884048 199.575946 
L 544.084445 199.020159 
L 548.433081 199.020159 
L 549.554007 198.464372 
L 549.635649 197.908586 
L 549.998551 197.908586 
L 551.143985 195.685439 
L 554.696297 195.685439 
L 554.72188 195.129652 
L 558.102641 195.129652 
L 558.299219 194.573866 
L 558.809128 194.573866 
L 559.195722 194.018079 
L 559.276363 194.573866 
L 559.565855 194.018079 
L 560.85203 194.018079 
L 560.864339 193.462292 
L 561.205885 193.462292 
L 561.355451 192.906506 
L 562.388914 192.350719 
L 569.579334 192.350719 
L 570.703189 191.794932 
L 571.455503 191.794932 
L 572.065852 191.239146 
L 572.683283 191.794932 
L 575.22549 191.794932 
L 575.335124 190.683359 
L 578.984651 190.683359 
L 580.400667 189.015999 
L 595.770514 189.015999 
L 596.663792 188.460212 
L 620.387993 188.460212 
L 620.53374 187.904426 
L 655.393978 187.904426 
L 655.547548 187.348639 
L 655.558559 186.792852 
L 655.569497 187.348639 
L 660.650315 187.348639 
L 661.797491 186.792852 
L 681.814178 186.792852 
L 685.933164 186.237066 
L 685.973206 185.681279 
L 686.314197 185.681279 
L 687.382289 185.125492 
L 719.507746 185.125492 
L 719.69094 184.569706 
L 748.38777 184.569706 
L 752.054685 184.013919 
L 754.297687 184.013919 
L 754.541092 183.458132 
L 756.100075 182.902346 
L 760.471994 182.902346 
L 762.313275 182.346559 
L 764.239979 182.346559 
L 764.390027 181.790772 
L 767.559082 181.790772 
L 767.937631 181.234986 
L 768.012562 180.679199 
L 773.654788 180.679199 
L 773.676663 180.123412 
L 778.480744 180.123412 
L 778.491348 179.567626 
L 780.119069 179.011839 
L 783.008718 179.011839 
L 785.088176 178.456052 
L 786.949144 178.456052 
L 789.691971 175.121332 
L 792.894172 175.121332 
L 792.909003 172.342399 
L 809.009771 172.342399 
L 809.01144 171.786612 
L 809.289919 171.230826 
L 810.832069 171.230826 
L 811.167498 170.675039 
L 812.012614 170.675039 
L 812.012614 170.675039 
" clip-path="url(#pa0972f45d9)" style="fill: none; stroke: #3fb950; stroke-width: 2; stroke-linecap: square"/>
   </g>
   <g id="line2d_34">
    <path d="M 85.239886 455.237812 
L 85.340178 453.570452 
L 85.449293 453.570452 
L 85.532715 372.981386 
L 87.045388 372.981386 
L 87.076495 370.758239 
L 88.635811 370.758239 
L 89.037569 369.090879 
L 89.584222 370.758239 
L 89.588263 369.090879 
L 90.040593 369.090879 
L 90.215408 367.979306 
L 94.682391 367.979306 
L 94.686655 367.423519 
L 94.711792 367.979306 
L 94.931655 367.423519 
L 94.99613 367.979306 
L 95.16809 367.423519 
L 96.735637 367.423519 
L 96.817649 366.867732 
L 97.041034 366.311946 
L 98.810868 366.311946 
L 100.824924 365.756159 
L 100.895814 365.200372 
L 101.440168 364.644586 
L 101.451958 364.088799 
L 105.518184 367.979306 
L 106.123194 366.311946 
L 106.564958 363.533012 
L 109.051217 363.533012 
L 110.372985 367.979306 
L 110.458742 363.533012 
L 134.61173 363.533012 
L 135.352885 362.977226 
L 137.028694 362.977226 
L 141.605608 362.421439 
L 142.720491 361.865652 
L 158.60581 361.865652 
L 159.021434 361.309866 
L 161.156804 360.754079 
L 162.514017 360.754079 
L 164.018423 360.198292 
L 164.058947 359.086719 
L 165.093078 358.530932 
L 165.788109 357.975146 
L 175.36305 357.975146 
L 177.271735 357.419359 
L 177.848753 357.419359 
L 178.17254 356.863572 
L 179.417264 356.863572 
L 180.653868 356.307786 
L 184.550359 356.307786 
L 184.745232 358.530932 
L 184.754797 356.307786 
L 186.243594 356.307786 
L 186.393049 355.751999 
L 188.500388 355.751999 
L 190.573729 355.196212 
L 190.624042 354.640426 
L 196.96104 354.640426 
L 199.633904 354.084639 
L 199.640651 353.528852 
L 208.535095 353.528852 
L 212.245315 352.973066 
L 215.028926 352.973066 
L 215.785726 352.417279 
L 220.034701 352.417279 
L 222.458153 351.861492 
L 222.590997 351.305706 
L 224.953755 351.305706 
L 225.227971 350.749919 
L 225.981954 350.194132 
L 227.665104 350.194132 
L 228.727784 349.638346 
L 230.676178 349.638346 
L 231.947819 349.082559 
L 234.660614 349.082559 
L 235.584813 347.970986 
L 242.602457 347.970986 
L 244.601015 347.415199 
L 246.944531 347.415199 
L 247.473016 346.859412 
L 247.634631 346.303626 
L 248.12248 345.747839 
L 256.192645 345.747839 
L 257.670207 345.192052 
L 258.608496 344.636266 
L 281.556951 344.636266 
L 286.708325 344.080479 
L 286.769871 343.524692 
L 290.276135 343.524692 
L 293.273008 342.968906 
L 298.569943 342.968906 
L 299.017528 342.413119 
L 308.038438 342.413119 
L 315.100055 341.857332 
L 315.16783 341.301546 
L 316.091029 341.301546 
L 317.961488 340.745759 
L 318.065821 339.078399 
L 318.14813 338.522612 
L 322.055188 337.966826 
L 322.289139 337.411039 
L 322.382386 336.299466 
L 322.736242 335.743679 
L 335.450206 335.743679 
L 339.062026 335.187892 
L 341.361198 334.632106 
L 343.162362 334.632106 
L 347.33852 334.076319 
L 347.652555 331.853172 
L 347.907232 331.853172 
L 348.507682 330.741599 
L 356.428985 330.185812 
L 356.681104 329.630026 
L 356.755479 329.074239 
L 358.428989 329.074239 
L 360.00929 328.518452 
L 360.190927 327.962666 
L 360.314279 326.851092 
L 361.360312 326.295306 
L 361.437097 325.739519 
L 363.345633 325.183732 
L 365.854361 324.627946 
L 366.032772 324.072159 
L 366.036553 323.516372 
L 366.541161 322.960586 
L 366.630292 322.404799 
L 370.269437 321.849012 
L 370.921831 321.293226 
L 386.241996 321.293226 
L 388.782609 320.737439 
L 389.013817 320.181652 
L 399.397094 320.181652 
L 399.792697 319.070079 
L 404.118865 319.070079 
L 405.424987 318.514292 
L 405.488796 317.402719 
L 405.824187 316.846932 
L 408.045018 316.291146 
L 408.095033 315.735359 
L 408.363095 315.179572 
L 408.411627 313.512212 
L 408.637793 312.956426 
L 408.943783 312.956426 
L 408.955054 312.400639 
L 410.809052 311.844852 
L 411.537934 311.289066 
L 411.714305 310.733279 
L 415.054579 310.177492 
L 417.516219 310.177492 
L 418.371012 309.621706 
L 427.62617 309.621706 
L 430.692339 309.065919 
L 430.704537 308.510132 
L 431.255972 307.954346 
L 438.475904 307.954346 
L 440.501676 307.398559 
L 441.336188 306.842772 
L 441.558868 305.731199 
L 447.399045 305.731199 
L 447.796947 305.175412 
L 451.003968 305.175412 
L 452.539333 304.619626 
L 456.913626 304.619626 
L 459.558089 304.063839 
L 465.049786 304.063839 
L 465.724759 303.508052 
L 468.441818 303.508052 
L 469.181377 302.952266 
L 469.502198 302.396479 
L 469.660217 301.840692 
L 471.896768 301.840692 
L 471.960353 300.729119 
L 472.776847 300.729119 
L 473.312932 299.061759 
L 475.258434 299.061759 
L 475.50006 298.505972 
L 475.687629 298.505972 
L 476.618836 297.950186 
L 478.164137 297.950186 
L 478.218379 297.394399 
L 479.341715 297.394399 
L 479.614559 296.838612 
L 480.67038 296.838612 
L 482.286941 295.727039 
L 482.988239 295.727039 
L 485.700551 294.615466 
L 485.70463 294.059679 
L 486.222474 293.503892 
L 487.543723 292.948106 
L 487.749162 292.392319 
L 489.066482 291.836532 
L 491.21987 291.836532 
L 491.537465 291.280746 
L 491.721957 290.724959 
L 494.563406 290.724959 
L 494.637966 290.169172 
L 495.386165 290.169172 
L 495.443596 289.613386 
L 495.854179 289.057599 
L 497.282801 289.057599 
L 497.391471 288.501812 
L 497.636211 288.501812 
L 497.697016 287.946026 
L 497.795676 287.946026 
L 497.799013 287.390239 
L 499.807953 287.390239 
L 500.205781 286.834452 
L 500.539838 286.834452 
L 500.739493 286.278666 
L 501.249366 286.278666 
L 501.631103 285.722879 
L 501.711595 285.167092 
L 501.820711 285.167092 
L 503.739666 284.611306 
L 505.175666 284.611306 
L 505.284374 284.055519 
L 510.949031 284.055519 
L 510.976208 283.499732 
L 511.294953 283.499732 
L 511.929179 282.388159 
L 513.958177 282.388159 
L 514.135587 280.720799 
L 514.187345 279.609226 
L 514.521736 279.053439 
L 515.867196 279.053439 
L 516.501756 278.497652 
L 517.116813 278.497652 
L 517.315134 277.941866 
L 518.26855 277.386079 
L 519.150742 277.386079 
L 520.924285 276.830292 
L 520.949274 276.274506 
L 521.491255 276.274506 
L 521.58109 275.718719 
L 523.157684 275.718719 
L 523.201471 275.162932 
L 530.847372 275.162932 
L 530.965497 274.607146 
L 531.192959 274.607146 
L 531.293807 273.495572 
L 532.278329 273.495572 
L 532.357747 272.939786 
L 532.487847 272.939786 
L 533.169754 272.383999 
L 533.341157 271.828212 
L 533.65434 271.828212 
L 533.919361 271.272426 
L 534.005749 270.716639 
L 537.847627 270.716639 
L 538.817356 270.160852 
L 539.008892 269.049279 
L 539.244919 268.493492 
L 539.638929 268.493492 
L 539.879071 267.937706 
L 545.392606 267.937706 
L 545.756584 266.270346 
L 546.509936 266.270346 
L 546.620534 265.714559 
L 549.564351 265.714559 
L 549.635649 264.602986 
L 553.171314 264.602986 
L 553.207946 264.047199 
L 554.911154 264.047199 
L 554.922611 263.491412 
L 555.752006 263.491412 
L 555.774438 262.935626 
L 558.299219 262.935626 
L 558.424796 262.379839 
L 558.58478 262.379839 
L 558.809128 261.824052 
L 559.264536 261.824052 
L 559.276363 261.268266 
L 559.565855 261.268266 
L 560.118105 260.712479 
L 564.578675 260.712479 
L 564.902869 260.156692 
L 566.22638 260.156692 
L 566.228827 259.600906 
L 576.347899 259.600906 
L 578.065382 259.045119 
L 578.115176 258.489332 
L 578.984651 257.933546 
L 580.306753 257.933546 
L 580.400667 256.821972 
L 580.639809 256.821972 
L 580.739358 256.266186 
L 584.250627 256.266186 
L 584.884705 255.710399 
L 590.958277 255.710399 
L 590.976963 255.154612 
L 592.960654 255.154612 
L 593.808402 254.598826 
L 603.145091 254.598826 
L 603.261622 253.487252 
L 606.933579 253.487252 
L 607.663944 252.931466 
L 608.446068 252.931466 
L 609.40219 252.375679 
L 615.72217 252.375679 
L 616.327366 251.819892 
L 616.851772 251.819892 
L 617.108896 251.264106 
L 619.12221 250.708319 
L 620.107771 250.708319 
L 620.429148 250.152532 
L 620.53374 250.152532 
L 623.36225 249.596746 
L 628.570091 249.596746 
L 628.977633 249.040959 
L 649.078484 249.040959 
L 649.812927 248.485172 
L 654.461288 248.485172 
L 654.62928 247.929386 
L 654.931229 247.929386 
L 655.022251 247.373599 
L 680.981372 247.373599 
L 681.814178 246.817812 
L 688.012326 246.817812 
L 689.35875 246.262026 
L 689.448994 245.706239 
L 692.673848 245.706239 
L 692.807657 245.150452 
L 703.253296 245.150452 
L 703.274689 244.594666 
L 712.092533 244.594666 
L 712.187449 244.038879 
L 712.760165 243.483092 
L 714.924009 243.483092 
L 714.928978 242.927306 
L 715.368702 242.371519 
L 718.617582 242.371519 
L 719.69094 241.815732 
L 726.618711 241.815732 
L 726.667503 240.704159 
L 770.581241 240.704159 
L 773.676663 240.148372 
L 777.571078 240.148372 
L 777.700474 239.592586 
L 794.966253 239.592586 
L 794.995246 239.036799 
L 812.012614 239.036799 
L 812.012614 239.036799 
" clip-path="url(#pa0972f45d9)" style="fill: none; stroke: #58a6ff; stroke-width: 2; stroke-linecap: square"/>
   </g>
   <g id="line2d_35">
    <path d="M 85.239886 455.237812 
L 88.318401 455.237812 
L 88.330192 454.126239 
L 90.871694 454.126239 
L 91.45216 453.570452 
L 248.12248 453.570452 
L 249.838703 453.014666 
L 293.273008 453.014666 
L 294.478394 452.458879 
L 335.450206 452.458879 
L 339.062026 451.903092 
L 348.507682 451.903092 
L 356.755479 450.235732 
L 358.428989 449.124159 
L 361.437097 449.124159 
L 363.345633 448.568372 
L 366.036553 448.012586 
L 366.630292 448.012586 
L 370.269437 447.456799 
L 370.921831 446.901012 
L 373.843439 446.345226 
L 379.554516 445.789439 
L 379.587551 446.345226 
L 389.013817 446.345226 
L 389.675628 445.789439 
L 403.128003 445.789439 
L 404.118865 445.233652 
L 408.637793 445.233652 
L 408.955054 444.677866 
L 414.567731 444.677866 
L 415.054579 444.122079 
L 435.615768 444.122079 
L 437.541731 443.566292 
L 438.35118 443.566292 
L 438.475904 443.010506 
L 443.963523 443.010506 
L 443.96875 442.454719 
L 456.893197 442.454719 
L 456.913626 441.898932 
L 460.679349 441.898932 
L 461.639401 441.343146 
L 463.053786 440.787359 
L 463.05627 440.231572 
L 463.278876 440.231572 
L 465.049786 438.564212 
L 466.242751 438.564212 
L 466.311416 436.896852 
L 466.772385 436.896852 
L 468.441818 437.452639 
L 469.642421 437.452639 
L 469.660217 435.229492 
L 474.130537 435.229492 
L 474.794907 434.673706 
L 475.50006 434.673706 
L 475.687629 434.117919 
L 491.721957 434.117919 
L 491.937147 433.562132 
L 492.744927 433.562132 
L 493.999031 433.006346 
L 499.531957 433.006346 
L 499.807953 432.450559 
L 501.711595 432.450559 
L 501.820711 431.894772 
L 508.12523 431.894772 
L 508.252142 431.338986 
L 508.705066 431.338986 
L 509.16444 430.783199 
L 509.62337 430.783199 
L 509.650584 430.227412 
L 511.602055 430.227412 
L 511.718586 429.671626 
L 520.77813 429.671626 
L 520.901631 429.115839 
L 520.949274 429.115839 
L 521.042261 428.560052 
L 521.58109 428.560052 
L 522.710655 428.004266 
L 527.12677 428.004266 
L 527.130663 427.448479 
L 527.974481 427.448479 
L 528.006589 426.892692 
L 530.401826 426.892692 
L 530.904951 426.336906 
L 534.096956 426.336906 
L 535.02275 425.781119 
L 536.82321 425.781119 
L 536.842304 424.669546 
L 536.988311 424.669546 
L 537.17206 424.113759 
L 540.06842 424.113759 
L 540.515337 423.557972 
L 541.210035 423.557972 
L 541.471348 423.002186 
L 543.166993 423.002186 
L 543.403762 422.446399 
L 543.406802 421.890612 
L 543.884048 421.890612 
L 544.084445 421.334826 
L 562.350133 421.334826 
L 562.388914 420.223252 
L 564.902869 420.223252 
L 565.626412 419.667466 
L 566.228827 419.667466 
L 569.054816 419.111679 
L 569.579334 419.111679 
L 570.703189 418.555892 
L 571.455503 418.555892 
L 572.065852 418.000106 
L 572.683283 418.555892 
L 574.670903 418.555892 
L 575.211401 418.000106 
L 575.335124 416.888532 
L 576.341114 416.332746 
L 576.347899 415.221172 
L 580.739358 415.221172 
L 581.699744 414.665386 
L 581.79707 412.998026 
L 582.756974 412.442239 
L 583.287831 411.886452 
L 587.828114 411.886452 
L 588.020763 410.219092 
L 588.252341 410.219092 
L 588.424041 409.663306 
L 589.533659 409.107519 
L 591.280284 409.107519 
L 591.640109 408.551732 
L 591.721973 407.995946 
L 591.905575 407.995946 
L 592.960654 406.884372 
L 594.091071 406.884372 
L 594.462242 406.328586 
L 595.766213 406.328586 
L 595.770514 405.217012 
L 596.663792 405.217012 
L 597.849676 404.661226 
L 600.99148 403.549652 
L 601.271962 402.993866 
L 607.663944 402.993866 
L 608.446068 401.882292 
L 620.387993 401.882292 
L 620.53374 400.770719 
L 626.346369 400.770719 
L 627.234493 400.214932 
L 629.929603 400.214932 
L 630.080874 399.659146 
L 646.661483 399.659146 
L 646.926134 399.103359 
L 648.568463 399.103359 
L 649.078484 398.547572 
L 652.143577 398.547572 
L 652.720039 397.991786 
L 652.723821 397.435999 
L 653.38311 396.880212 
L 655.393978 396.880212 
L 655.547548 396.324426 
L 655.558559 395.212852 
L 655.569497 395.768639 
L 656.920778 395.212852 
L 661.797491 395.212852 
L 662.759434 394.101279 
L 671.558555 394.101279 
L 672.238867 393.545492 
L 674.373457 393.545492 
L 674.544342 392.989706 
L 674.567848 392.433919 
L 681.814178 392.433919 
L 686.314197 391.322346 
L 687.382289 391.322346 
L 688.012326 390.766559 
L 697.333591 390.766559 
L 698.479322 390.210772 
L 699.899008 390.210772 
L 701.273981 389.654986 
L 712.760165 389.654986 
L 713.075388 389.099199 
L 713.077093 388.543412 
L 719.507746 388.543412 
L 719.69094 387.987626 
L 748.38777 387.987626 
L 752.054685 387.431839 
L 760.471994 387.431839 
L 762.313275 386.876052 
L 763.933359 386.876052 
L 764.239979 386.320266 
L 768.012562 386.320266 
L 768.649828 385.764479 
L 769.49031 385.764479 
L 770.581241 385.208692 
L 773.196192 385.208692 
L 773.676663 384.652906 
L 773.998522 384.652906 
L 775.17028 384.097119 
L 786.490808 384.097119 
L 786.522471 382.429759 
L 796.400251 382.429759 
L 800.58894 381.873972 
L 800.592351 381.318186 
L 805.504064 381.318186 
L 805.710245 380.762399 
L 805.713285 380.206612 
L 808.010789 380.206612 
L 809.01144 379.650826 
L 809.727271 379.650826 
L 810.832069 379.095039 
L 812.012614 379.095039 
L 812.012614 379.095039 
" clip-path="url(#pa0972f45d9)" style="fill: none; stroke: #d29922; stroke-width: 2; stroke-linecap: square"/>
   </g>
   <g id="line2d_36">
    <path d="M 85.239886 454.682026 
L 85.503202 454.682026 
L 85.619807 432.450559 
L 86.229192 426.892692 
L 86.577412 425.781119 
L 86.75408 426.336906 
L 87.076495 425.781119 
L 87.621776 425.225332 
L 88.000102 424.113759 
L 88.318401 423.557972 
L 88.330192 423.002186 
L 88.635811 421.334826 
L 89.037569 421.334826 
L 89.584222 420.779039 
L 89.588263 420.223252 
L 90.028395 419.667466 
L 90.149746 419.111679 
L 90.215408 419.111679 
L 90.871694 418.555892 
L 91.340598 418.000106 
L 91.45216 411.886452 
L 91.529316 412.442239 
L 91.71796 408.551732 
L 92.036667 402.993866 
L 94.686655 402.993866 
L 94.931655 399.659146 
L 94.99613 402.438079 
L 95.294854 397.991786 
L 95.442788 397.435999 
L 96.544953 396.880212 
L 96.578211 396.324426 
L 96.817649 395.768639 
L 97.041034 395.768639 
L 97.608634 395.212852 
L 97.911843 394.657066 
L 98.049174 393.545492 
L 98.132707 392.989706 
L 98.415969 392.433919 
L 98.422977 391.878132 
L 98.70787 392.433919 
L 98.788956 391.878132 
L 98.79893 392.433919 
L 98.810868 390.766559 
L 101.451958 390.766559 
L 105.518184 402.993866 
L 106.123194 390.210772 
L 106.564958 389.654986 
L 108.144183 389.654986 
L 108.433044 389.099199 
L 109.051217 388.543412 
L 110.372985 402.993866 
L 110.458742 387.987626 
L 111.473 387.431839 
L 113.641998 386.876052 
L 113.79668 387.431839 
L 114.112644 385.764479 
L 114.808899 385.764479 
L 115.020456 385.208692 
L 115.420026 384.652906 
L 115.453172 383.541332 
L 115.821747 382.429759 
L 115.843103 382.985546 
L 116.062335 382.985546 
L 116.182536 381.873972 
L 116.552557 379.650826 
L 116.601201 378.539252 
L 117.075926 376.871892 
L 117.307949 377.983466 
L 118.948499 374.648746 
L 119.380474 375.760319 
L 121.158206 373.537172 
L 122.566547 377.427679 
L 123.060811 373.537172 
L 125.090698 371.869812 
L 128.083864 371.869812 
L 128.479171 371.314026 
L 128.793763 369.646666 
L 129.677772 371.314026 
L 133.283659 371.869812 
L 134.178161 369.646666 
L 134.61173 367.979306 
L 135.352885 369.646666 
L 137.028694 367.979306 
L 142.720491 367.979306 
L 148.70545 367.423519 
L 149.104576 366.867732 
L 152.883054 366.311946 
L 155.381548 366.311946 
L 155.846632 365.756159 
L 155.947813 366.311946 
L 158.60581 364.644586 
L 161.098928 364.644586 
L 161.156804 364.088799 
L 162.514017 363.533012 
L 165.788109 363.533012 
L 167.232377 359.642506 
L 168.307329 359.086719 
L 169.690533 358.530932 
L 169.717376 357.975146 
L 174.901562 357.975146 
L 175.001705 354.084639 
L 175.193575 354.084639 
L 175.36305 352.973066 
L 177.271735 352.973066 
L 177.848753 352.417279 
L 180.653868 352.417279 
L 184.550359 351.861492 
L 184.745232 363.533012 
L 184.754797 352.417279 
L 185.004358 351.861492 
L 186.393049 351.861492 
L 188.500388 351.305706 
L 190.624042 351.305706 
L 192.310974 350.749919 
L 196.96104 349.638346 
L 199.640651 349.638346 
L 201.794188 349.082559 
L 202.129283 346.303626 
L 202.356079 346.303626 
L 202.757392 345.747839 
L 204.85068 345.192052 
L 205.334562 342.968906 
L 208.227659 341.857332 
L 208.26251 342.413119 
L 208.535095 341.857332 
L 212.245315 340.745759 
L 215.028926 340.189972 
L 216.358888 340.189972 
L 217.53769 339.634186 
L 218.559252 338.522612 
L 219.642768 337.966826 
L 220.034701 337.411039 
L 222.590997 337.966826 
L 224.953755 336.855252 
L 225.227971 337.411039 
L 225.855932 337.411039 
L 225.981954 336.855252 
L 227.665104 336.299466 
L 228.727784 336.855252 
L 230.676178 335.743679 
L 231.947819 335.743679 
L 234.660614 335.187892 
L 235.11046 335.743679 
L 235.584813 334.076319 
L 237.230813 334.076319 
L 237.556491 333.520532 
L 238.973842 331.297386 
L 239.374302 330.185812 
L 240.414217 330.741599 
L 240.872331 329.630026 
L 240.918157 329.074239 
L 244.601015 329.074239 
L 246.466284 328.518452 
L 246.944531 327.962666 
L 249.838703 327.962666 
L 251.875153 327.406879 
L 255.334033 327.406879 
L 256.192645 326.851092 
L 265.703963 326.851092 
L 266.250207 326.295306 
L 266.304932 325.739519 
L 266.674804 325.183732 
L 270.8028 325.183732 
L 271.060072 324.627946 
L 272.110331 324.072159 
L 272.292227 323.516372 
L 274.032289 322.960586 
L 275.297887 322.404799 
L 280.368546 322.404799 
L 281.556951 321.293226 
L 286.769871 321.293226 
L 287.930803 320.737439 
L 292.789052 320.737439 
L 293.273008 320.181652 
L 294.478394 319.625866 
L 294.837218 319.070079 
L 294.95905 318.514292 
L 298.569943 317.958506 
L 299.017528 318.514292 
L 303.771036 317.402719 
L 307.529419 316.291146 
L 308.038438 315.735359 
L 315.16783 315.735359 
L 316.091029 315.179572 
L 322.736242 315.179572 
L 328.995899 314.623786 
L 329.78325 314.067999 
L 332.410287 313.512212 
L 335.04474 312.956426 
L 335.450206 312.400639 
L 341.361198 312.400639 
L 343.162362 311.844852 
L 356.755479 311.844852 
L 358.428989 311.289066 
L 369.657271 311.289066 
L 370.269437 310.733279 
L 370.921831 311.289066 
L 373.843439 310.733279 
L 383.675838 310.733279 
L 384.993454 310.177492 
L 405.793488 310.177492 
L 405.824187 309.621706 
L 418.670292 309.621706 
L 421.492647 309.065919 
L 421.499877 308.510132 
L 435.609502 308.510132 
L 435.615768 307.398559 
L 443.96875 307.398559 
L 447.796947 306.842772 
L 452.539333 306.842772 
L 456.913626 305.731199 
L 465.724759 305.731199 
L 466.242751 305.175412 
L 466.311416 304.619626 
L 469.642421 304.619626 
L 469.660217 304.063839 
L 470.006102 304.063839 
L 470.557462 303.508052 
L 475.50006 303.508052 
L 475.687629 302.952266 
L 482.286941 302.952266 
L 482.557264 302.396479 
L 498.673864 302.396479 
L 499.530733 300.729119 
L 499.531957 300.173332 
L 501.815261 300.173332 
L 501.820711 299.617546 
L 508.555648 299.617546 
L 508.705066 299.061759 
L 511.929179 299.061759 
L 512.045005 298.505972 
L 524.022413 298.505972 
L 524.252731 297.950186 
L 527.032856 297.950186 
L 527.130663 297.394399 
L 528.006589 296.838612 
L 549.998551 296.838612 
L 551.143985 295.727039 
L 552.858539 295.727039 
L 553.207946 295.171252 
L 554.922611 295.171252 
L 555.176731 294.615466 
L 559.227942 294.615466 
L 559.276363 294.059679 
L 581.697853 294.059679 
L 581.79707 292.948106 
L 609.823042 292.948106 
L 610.550923 292.392319 
L 658.402122 292.392319 
L 660.650315 291.836532 
L 680.87259 291.836532 
L 680.981372 291.280746 
L 690.034835 291.280746 
L 690.474893 290.724959 
L 812.012614 290.724959 
L 812.012614 290.724959 
" clip-path="url(#pa0972f45d9)" style="fill: none; stroke: #f85149; stroke-width: 2; stroke-linecap: square"/>
   </g>
   <g id="line2d_37">
    <path d="M 85.239886 454.682026 
L 85.260834 454.126239 
L 85.425994 -1 
M 85.574438 -1 
L 85.619807 101.201706 
L 88.318401 101.201706 
L 88.330192 97.866986 
L 91.45216 97.866986 
L 91.603246 98.422772 
L 92.036667 98.422772 
L 92.387927 98.978559 
L 94.564489 99.534346 
L 94.60746 98.978559 
L 94.711792 99.534346 
L 101.451958 99.534346 
L 105.518184 98.422772 
L 106.123194 99.534346 
L 106.564958 98.978559 
L 107.678357 99.534346 
L 108.144183 96.755412 
L 109.051217 96.755412 
L 110.372985 98.422772 
L 110.458742 95.643839 
L 111.473 96.199626 
L 114.112644 96.199626 
L 114.808899 95.088052 
L 115.843103 95.088052 
L 116.120322 91.197546 
L 122.566547 91.197546 
L 123.036711 87.862826 
L 123.060811 86.751252 
L 125.090698 86.751252 
L 128.083864 82.860746 
L 129.654006 82.860746 
L 129.677772 83.416532 
L 133.283659 83.416532 
L 134.178161 80.081812 
L 137.009044 80.081812 
L 137.028694 80.637599 
L 152.883054 80.637599 
L 155.846632 81.193386 
L 155.947813 80.637599 
L 159.021434 81.193386 
L 169.717376 81.193386 
L 174.901562 81.749172 
L 175.001705 74.523946 
L 175.247965 75.079732 
L 178.17254 75.079732 
L 179.417264 75.635519 
L 184.550359 75.635519 
L 184.745232 80.637599 
L 184.754797 71.745012 
L 185.004358 71.745012 
L 186.243594 73.968159 
L 192.310974 73.968159 
L 196.96104 70.077652 
L 202.129283 70.077652 
L 202.356079 68.410292 
L 215.785726 68.410292 
L 216.358888 68.966079 
L 219.619781 68.966079 
L 219.642768 70.077652 
L 225.855932 70.077652 
L 225.981954 73.412372 
L 235.584813 73.412372 
L 235.814167 68.410292 
L 237.227439 67.298719 
L 237.230813 67.854506 
L 237.556491 67.854506 
L 238.716829 65.075572 
L 240.414217 65.075572 
L 240.872331 65.631359 
L 240.918157 65.075572 
L 241.967193 65.631359 
L 241.971976 66.187146 
L 241.996483 65.631359 
L 242.602457 63.408212 
L 248.12248 63.408212 
L 249.838703 63.963999 
L 251.875153 63.963999 
L 255.334033 64.519786 
L 258.608496 64.519786 
L 261.138357 65.631359 
L 266.304932 65.075572 
L 266.674804 65.075572 
L 269.895396 66.187146 
L 270.8028 65.631359 
L 275.297887 65.631359 
L 280.365802 67.854506 
L 280.368546 67.298719 
L 287.930803 67.298719 
L 290.276135 67.854506 
L 332.072745 67.854506 
L 332.410287 68.410292 
L 335.025943 68.410292 
L 335.04474 66.742932 
L 347.652555 66.742932 
L 347.907232 67.298719 
L 373.843439 67.298719 
L 379.554516 67.854506 
L 379.587551 67.298719 
L 383.675838 68.966079 
L 384.993454 68.966079 
L 386.241996 68.410292 
L 389.675628 68.410292 
L 392.951722 68.966079 
L 392.957098 69.521866 
L 402.24607 67.854506 
L 403.128003 68.410292 
L 414.567731 68.410292 
L 415.054579 67.854506 
L 415.946411 68.410292 
L 416.252883 70.633439 
L 421.495353 70.633439 
L 421.499877 71.189226 
L 437.541731 71.189226 
L 438.475904 71.745012 
L 441.558868 71.745012 
L 441.859631 72.300799 
L 456.893197 72.300799 
L 456.913626 72.856586 
L 459.558089 72.856586 
L 460.67375 73.412372 
L 460.679349 73.968159 
L 461.591758 73.412372 
L 461.639401 73.968159 
L 463.05627 73.968159 
L 463.278876 74.523946 
L 466.242751 74.523946 
L 466.311416 73.412372 
L 466.772385 74.523946 
L 468.441818 72.856586 
L 472.478791 72.856586 
L 472.776847 71.189226 
L 474.130537 71.189226 
L 474.794907 72.300799 
L 478.218379 72.300799 
L 479.341715 72.856586 
L 479.614559 72.856586 
L 480.67038 70.077652 
L 482.557264 70.077652 
L 482.988239 70.633439 
L 491.721957 70.633439 
L 491.937147 71.189226 
L 492.744927 71.189226 
L 493.999031 71.745012 
L 508.12523 71.745012 
L 508.252142 72.300799 
L 508.705066 72.300799 
L 509.650584 73.412372 
L 510.976208 73.412372 
L 511.294953 72.856586 
L 511.602055 72.856586 
L 511.718586 73.412372 
L 515.263668 73.412372 
L 515.867196 73.968159 
L 518.952903 73.968159 
L 519.150742 74.523946 
L 520.840974 74.523946 
L 520.949274 75.079732 
L 526.202126 75.079732 
L 526.31506 75.635519 
L 529.378596 75.635519 
L 530.401826 77.858666 
L 531.536285 77.858666 
L 531.537472 78.414452 
L 536.143825 78.414452 
L 536.988311 78.970239 
L 540.515337 78.970239 
L 541.210035 79.526026 
L 543.884048 79.526026 
L 544.084445 80.081812 
L 548.433081 80.081812 
L 549.554007 80.637599 
L 549.635649 81.193386 
L 549.998551 81.193386 
L 551.143985 60.629279 
L 554.696297 60.629279 
L 554.72188 61.185066 
L 554.922611 61.185066 
L 555.176731 60.629279 
L 558.102641 60.629279 
L 558.299219 61.185066 
L 558.809128 61.185066 
L 559.195722 61.740852 
L 559.276363 61.185066 
L 560.85203 61.185066 
L 560.864339 61.740852 
L 561.205885 61.740852 
L 561.355451 62.296639 
L 562.388914 62.852426 
L 569.579334 62.852426 
L 570.703189 63.408212 
L 571.455503 63.408212 
L 572.065852 63.963999 
L 572.683283 63.408212 
L 575.22549 63.408212 
L 575.335124 64.519786 
L 578.984651 64.519786 
L 580.400667 66.187146 
L 595.770514 66.187146 
L 596.663792 66.742932 
L 620.387993 66.742932 
L 620.53374 67.298719 
L 655.393978 67.298719 
L 655.547548 67.854506 
L 655.558559 68.410292 
L 655.569497 67.854506 
L 660.650315 67.854506 
L 661.797491 68.410292 
L 681.814178 68.410292 
L 686.314197 68.966079 
L 687.373428 69.521866 
L 687.382289 67.854506 
L 719.507746 67.854506 
L 719.69094 68.410292 
L 748.38777 68.410292 
L 752.054685 68.966079 
L 754.297687 68.966079 
L 754.541092 69.521866 
L 756.100075 70.077652 
L 760.471994 70.077652 
L 762.313275 70.633439 
L 764.239979 70.633439 
L 764.390027 71.189226 
L 767.559082 71.189226 
L 767.937631 71.745012 
L 768.012562 72.300799 
L 773.654788 72.300799 
L 773.676663 72.856586 
L 777.700474 72.856586 
L 778.480744 72.300799 
L 778.491348 72.856586 
L 780.119069 73.412372 
L 783.008718 73.412372 
L 785.088176 73.968159 
L 786.949144 73.968159 
L 789.691971 61.740852 
L 792.894172 61.740852 
L 792.909003 64.519786 
L 809.009771 64.519786 
L 809.01144 65.075572 
L 809.289919 65.631359 
L 810.832069 65.631359 
L 811.167498 66.187146 
L 812.012614 66.187146 
L 812.012614 66.187146 
" clip-path="url(#pa0972f45d9)" style="fill: none; stroke: #9467bd; stroke-width: 2; stroke-linecap: square"/>
   </g>
   <g id="patch_3">
    <path d="M 48.90125 455.237812 
L 48.90125 38.397812 
" style="fill: none; stroke: #30363d; stroke-width: 0.8; stroke-linejoin: miter; stroke-linecap: square"/>
   </g>
   <g id="patch_4">
    <path d="M 848.35125 455.237812 
L 848.35125 38.397812 
" style="fill: none; stroke: #30363d; stroke-width: 0.8; stroke-linejoin: miter; stroke-linecap: square"/>
   </g>
   <g id="patch_5">
    <path d="M 48.90125 455.237812 
L 848.35125 455.237812 
" style="fill: none; stroke: #30363d; stroke-width: 0.8; stroke-linejoin: miter; stroke-linecap: square"/>
   </g>
   <g id="patch_6">
    <path d="M 48.90125 38.397812 
L 848.35125 38.397812 
" style="fill: none; stroke: #30363d; stroke-width: 0.8; stroke-linejoin: miter; stroke-linecap: square"/>
   </g>
   <g id="text_19">
    <!-- 512 -->
    <g style="fill: #3fb950" transform="translate(817.012614 173.158477) scale(0.09 -0.09)">
     <defs>
      <path id="DejaVuSans-Bold-35" d="M 678 4666 
L 3669 4666 
L 3669 3781 
L 1638 3781 
L 1638 3059 
Q 1775 3097 1914 3117 
Q 2053 3138 2203 3138 
Q 3056 3138 3531 2711 
Q 4006 2284 4006 1522 
Q 4006 766 3489 337 
Q 2972 -91 2053 -91 
Q 1656 -91 1267 -14 
Q 878 63 494 219 
L 494 1166 
Q 875 947 1217 837 
Q 1559 728 1863 728 
Q 2300 728 2551 942 
Q 2803 1156 2803 1522 
Q 2803 1891 2551 2103 
Q 2300 2316 1863 2316 
Q 1603 2316 1309 2248 
Q 1016 2181 678 2041 
L 678 4666 
z
" transform="scale(0.015625)"/>
      <path id="DejaVuSans-Bold-31" d="M 750 831 
L 1813 831 
L 1813 3847 
L 722 3622 
L 722 4441 
L 1806 4666 
L 2950 4666 
L 2950 831 
L 4013 831 
L 4013 0 
L 750 0 
L 750 831 
z
" transform="scale(0.015625)"/>
      <path id="DejaVuSans-Bold-32" d="M 1844 884 
L 3897 884 
L 3897 0 
L 506 0 
L 506 884 
L 2209 2388 
Q 2438 2594 2547 2791 
Q 2656 2988 2656 3200 
Q 2656 3528 2436 3728 
Q 2216 3928 1850 3928 
Q 1569 3928 1234 3808 
Q 900 3688 519 3450 
L 519 4475 
Q 925 4609 1322 4679 
Q 1719 4750 2100 4750 
Q 2938 4750 3402 4381 
Q 3866 4013 3866 3353 
Q 3866 2972 3669 2642 
Q 3472 2313 2841 1759 
L 1844 884 
z
" transform="scale(0.015625)"/>
     </defs>
     <use xlink:href="#DejaVuSans-Bold-35"/>
     <use xlink:href="#DejaVuSans-Bold-31" transform="translate(69.580078 0)"/>
     <use xlink:href="#DejaVuSans-Bold-32" transform="translate(139.160156 0)"/>
    </g>
   </g>
   <g id="text_20">
    <!-- 389 -->
    <g style="fill: #58a6ff" transform="translate(817.012614 241.520237) scale(0.09 -0.09)">
     <defs>
      <path id="DejaVuSans-Bold-33" d="M 2981 2516 
Q 3453 2394 3698 2092 
Q 3944 1791 3944 1325 
Q 3944 631 3412 270 
Q 2881 -91 1863 -91 
Q 1503 -91 1142 -33 
Q 781 25 428 141 
L 428 1069 
Q 766 900 1098 814 
Q 1431 728 1753 728 
Q 2231 728 2486 893 
Q 2741 1059 2741 1369 
Q 2741 1688 2480 1852 
Q 2219 2016 1709 2016 
L 1228 2016 
L 1228 2791 
L 1734 2791 
Q 2188 2791 2409 2933 
Q 2631 3075 2631 3366 
Q 2631 3634 2415 3781 
Q 2200 3928 1806 3928 
Q 1516 3928 1219 3862 
Q 922 3797 628 3669 
L 628 4550 
Q 984 4650 1334 4700 
Q 1684 4750 2022 4750 
Q 2931 4750 3382 4451 
Q 3834 4153 3834 3553 
Q 3834 3144 3618 2883 
Q 3403 2622 2981 2516 
z
" transform="scale(0.015625)"/>
      <path id="DejaVuSans-Bold-38" d="M 2228 2088 
Q 1891 2088 1709 1903 
Q 1528 1719 1528 1375 
Q 1528 1031 1709 848 
Q 1891 666 2228 666 
Q 2563 666 2741 848 
Q 2919 1031 2919 1375 
Q 2919 1722 2741 1905 
Q 2563 2088 2228 2088 
z
M 1350 2484 
Q 925 2613 709 2878 
Q 494 3144 494 3541 
Q 494 4131 934 4440 
Q 1375 4750 2228 4750 
Q 3075 4750 3515 4442 
Q 3956 4134 3956 3541 
Q 3956 3144 3739 2878 
Q 3522 2613 3097 2484 
Q 3572 2353 3814 2058 
Q 4056 1763 4056 1313 
Q 4056 619 3595 264 
Q 3134 -91 2228 -91 
Q 1319 -91 855 264 
Q 391 619 391 1313 
Q 391 1763 633 2058 
Q 875 2353 1350 2484 
z
M 1631 3419 
Q 1631 3141 1786 2991 
Q 1941 2841 2228 2841 
Q 2509 2841 2662 2991 
Q 2816 3141 2816 3419 
Q 2816 3697 2662 3845 
Q 2509 3994 2228 3994 
Q 1941 3994 1786 3844 
Q 1631 3694 1631 3419 
z
" transform="scale(0.015625)"/>
      <path id="DejaVuSans-Bold-39" d="M 641 103 
L 641 966 
Q 928 831 1190 764 
Q 1453 697 1709 697 
Q 2247 697 2547 995 
Q 2847 1294 2900 1881 
Q 2688 1725 2447 1647 
Q 2206 1569 1925 1569 
Q 1209 1569 770 1986 
Q 331 2403 331 3084 
Q 331 3838 820 4291 
Q 1309 4744 2131 4744 
Q 3044 4744 3544 4128 
Q 4044 3513 4044 2388 
Q 4044 1231 3459 570 
Q 2875 -91 1856 -91 
Q 1528 -91 1228 -42 
Q 928 6 641 103 
z
M 2125 2350 
Q 2441 2350 2600 2554 
Q 2759 2759 2759 3169 
Q 2759 3575 2600 3781 
Q 2441 3988 2125 3988 
Q 1809 3988 1650 3781 
Q 1491 3575 1491 3169 
Q 1491 2759 1650 2554 
Q 1809 2350 2125 2350 
z
" transform="scale(0.015625)"/>
     </defs>
     <use xlink:href="#DejaVuSans-Bold-33"/>
     <use xlink:href="#DejaVuSans-Bold-38" transform="translate(69.580078 0)"/>
     <use xlink:href="#DejaVuSans-Bold-39" transform="translate(139.160156 0)"/>
    </g>
   </g>
   <g id="text_21">
    <!-- 137 -->
    <g style="fill: #d29922" transform="translate(817.012614 381.578477) scale(0.09 -0.09)">
     <defs>
      <path id="DejaVuSans-Bold-37" d="M 428 4666 
L 3944 4666 
L 3944 3988 
L 2125 0 
L 953 0 
L 2675 3781 
L 428 3781 
L 428 4666 
z
" transform="scale(0.015625)"/>
     </defs>
     <use xlink:href="#DejaVuSans-Bold-31"/>
     <use xlink:href="#DejaVuSans-Bold-33" transform="translate(69.580078 0)"/>
     <use xlink:href="#DejaVuSans-Bold-37" transform="translate(139.160156 0)"/>
    </g>
   </g>
   <g id="text_22">
    <!-- 296 -->
    <g style="fill: #f85149" transform="translate(817.012614 293.208397) scale(0.09 -0.09)">
     <defs>
      <path id="DejaVuSans-Bold-36" d="M 2316 2303 
Q 2000 2303 1842 2098 
Q 1684 1894 1684 1484 
Q 1684 1075 1842 870 
Q 2000 666 2316 666 
Q 2634 666 2792 870 
Q 2950 1075 2950 1484 
Q 2950 1894 2792 2098 
Q 2634 2303 2316 2303 
z
M 3803 4544 
L 3803 3681 
Q 3506 3822 3243 3889 
Q 2981 3956 2731 3956 
Q 2194 3956 1894 3657 
Q 1594 3359 1544 2772 
Q 1750 2925 1990 3001 
Q 2231 3078 2516 3078 
Q 3231 3078 3670 2659 
Q 4109 2241 4109 1563 
Q 4109 813 3618 361 
Q 3128 -91 2303 -91 
Q 1394 -91 895 523 
Q 397 1138 397 2266 
Q 397 3422 980 4083 
Q 1563 4744 2578 4744 
Q 2900 4744 3203 4694 
Q 3506 4644 3803 4544 
z
" transform="scale(0.015625)"/>
     </defs>
     <use xlink:href="#DejaVuSans-Bold-32"/>
     <use xlink:href="#DejaVuSans-Bold-39" transform="translate(69.580078 0)"/>
     <use xlink:href="#DejaVuSans-Bold-36" transform="translate(139.160156 0)"/>
    </g>
   </g>
   <g id="text_23">
    <!-- 700 -->
    <g style="fill: #9467bd" transform="translate(817.012614 68.670583) scale(0.09 -0.09)">
     <defs>
      <path id="DejaVuSans-Bold-30" d="M 2944 2338 
Q 2944 3213 2780 3570 
Q 2616 3928 2228 3928 
Q 1841 3928 1675 3570 
Q 1509 3213 1509 2338 
Q 1509 1453 1675 1090 
Q 1841 728 2228 728 
Q 2613 728 2778 1090 
Q 2944 1453 2944 2338 
z
M 4147 2328 
Q 4147 1169 3647 539 
Q 3147 -91 2228 -91 
Q 1306 -91 806 539 
Q 306 1169 306 2328 
Q 306 3491 806 4120 
Q 1306 4750 2228 4750 
Q 3147 4750 3647 4120 
Q 4147 3491 4147 2328 
z
" transform="scale(0.015625)"/>
     </defs>
     <use xlink:href="#DejaVuSans-Bold-37"/>
     <use xlink:href="#DejaVuSans-Bold-30" transform="translate(69.580078 0)"/>
     <use xlink:href="#DejaVuSans-Bold-30" transform="translate(139.160156 0)"/>
    </g>
   </g>
   <g id="text_24">
    <!-- Erdős Problems Progress -->
    <g style="fill: #c9d1d9" transform="translate(349.588281 18.397812) scale(0.14 -0.14)">
     <defs>
      <path id="DejaVuSans-Bold-45" d="M 588 4666 
L 3834 4666 
L 3834 3756 
L 1791 3756 
L 1791 2888 
L 3713 2888 
L 3713 1978 
L 1791 1978 
L 1791 909 
L 3903 909 
L 3903 0 
L 588 0 
L 588 4666 
z
" transform="scale(0.015625)"/>
      <path id="DejaVuSans-Bold-72" d="M 3138 2547 
Q 2991 2616 2845 2648 
Q 2700 2681 2553 2681 
Q 2122 2681 1889 2404 
Q 1656 2128 1656 1613 
L 1656 0 
L 538 0 
L 538 3500 
L 1656 3500 
L 1656 2925 
Q 1872 3269 2151 3426 
Q 2431 3584 2822 3584 
Q 2878 3584 2943 3579 
Q 3009 3575 3134 3559 
L 3138 2547 
z
" transform="scale(0.015625)"/>
      <path id="DejaVuSans-Bold-64" d="M 2919 2988 
L 2919 4863 
L 4044 4863 
L 4044 0 
L 2919 0 
L 2919 506 
Q 2688 197 2409 53 
Q 2131 -91 1766 -91 
Q 1119 -91 703 423 
Q 288 938 288 1747 
Q 288 2556 703 3070 
Q 1119 3584 1766 3584 
Q 2128 3584 2408 3439 
Q 2688 3294 2919 2988 
z
M 2181 722 
Q 2541 722 2730 984 
Q 2919 1247 2919 1747 
Q 2919 2247 2730 2509 
Q 2541 2772 2181 2772 
Q 1825 2772 1636 2509 
Q 1447 2247 1447 1747 
Q 1447 1247 1636 984 
Q 1825 722 2181 722 
z
" transform="scale(0.015625)"/>
      <path id="DejaVuSans-Bold-151" d="M 1881 5119 
L 2560 5119 
L 1785 3944 
L 1275 3944 
L 1881 5119 
z
M 3016 5119 
L 3738 5119 
L 2888 3944 
L 2344 3944 
L 3016 5119 
z
M 2203 2784 
Q 1831 2784 1636 2517 
Q 1441 2250 1441 1747 
Q 1441 1244 1636 976 
Q 1831 709 2203 709 
Q 2569 709 2762 976 
Q 2956 1244 2956 1747 
Q 2956 2250 2762 2517 
Q 2569 2784 2203 2784 
z
M 2203 3584 
Q 3106 3584 3614 3096 
Q 4122 2609 4122 1747 
Q 4122 884 3614 396 
Q 3106 -91 2203 -91 
Q 1297 -91 786 396 
Q 275 884 275 1747 
Q 275 2609 786 3096 
Q 1297 3584 2203 3584 
z
" transform="scale(0.015625)"/>
      <path id="DejaVuSans-Bold-73" d="M 3272 3391 
L 3272 2541 
Q 2913 2691 2578 2766 
Q 2244 2841 1947 2841 
Q 1628 2841 1473 2761 
Q 1319 2681 1319 2516 
Q 1319 2381 1436 2309 
Q 1553 2238 1856 2203 
L 2053 2175 
Q 2913 2066 3209 1816 
Q 3506 1566 3506 1031 
Q 3506 472 3093 190 
Q 2681 -91 1863 -91 
Q 1516 -91 1145 -36 
Q 775 19 384 128 
L 384 978 
Q 719 816 1070 734 
Q 1422 653 1784 653 
Q 2113 653 2278 743 
Q 2444 834 2444 1013 
Q 2444 1163 2330 1236 
Q 2216 1309 1875 1350 
L 1678 1375 
Q 931 1469 631 1722 
Q 331 1975 331 2491 
Q 331 3047 712 3315 
Q 1094 3584 1881 3584 
Q 2191 3584 2531 3537 
Q 2872 3491 3272 3391 
z
" transform="scale(0.015625)"/>
      <path id="DejaVuSans-Bold-20" transform="scale(0.015625)"/>
      <path id="DejaVuSans-Bold-50" d="M 588 4666 
L 2584 4666 
Q 3475 4666 3951 4270 
Q 4428 3875 4428 3144 
Q 4428 2409 3951 2014 
Q 3475 1619 2584 1619 
L 1791 1619 
L 1791 0 
L 588 0 
L 588 4666 
z
M 1791 3794 
L 1791 2491 
L 2456 2491 
Q 2806 2491 2997 2661 
Q 3188 2831 3188 3144 
Q 3188 3456 2997 3625 
Q 2806 3794 2456 3794 
L 1791 3794 
z
" transform="scale(0.015625)"/>
      <path id="DejaVuSans-Bold-6f" d="M 2203 2784 
Q 1831 2784 1636 2517 
Q 1441 2250 1441 1747 
Q 1441 1244 1636 976 
Q 1831 709 2203 709 
Q 2569 709 2762 976 
Q 2956 1244 2956 1747 
Q 2956 2250 2762 2517 
Q 2569 2784 2203 2784 
z
M 2203 3584 
Q 3106 3584 3614 3096 
Q 4122 2609 4122 1747 
Q 4122 884 3614 396 
Q 3106 -91 2203 -91 
Q 1297 -91 786 396 
Q 275 884 275 1747 
Q 275 2609 786 3096 
Q 1297 3584 2203 3584 
z
" transform="scale(0.015625)"/>
      <path id="DejaVuSans-Bold-62" d="M 2400 722 
Q 2759 722 2948 984 
Q 3138 1247 3138 1747 
Q 3138 2247 2948 2509 
Q 2759 2772 2400 2772 
Q 2041 2772 1848 2508 
Q 1656 2244 1656 1747 
Q 1656 1250 1848 986 
Q 2041 722 2400 722 
z
M 1656 2988 
Q 1888 3294 2169 3439 
Q 2450 3584 2816 3584 
Q 3463 3584 3878 3070 
Q 4294 2556 4294 1747 
Q 4294 938 3878 423 
Q 3463 -91 2816 -91 
Q 2450 -91 2169 54 
Q 1888 200 1656 506 
L 1656 0 
L 538 0 
L 538 4863 
L 1656 4863 
L 1656 2988 
z
" transform="scale(0.015625)"/>
      <path id="DejaVuSans-Bold-6c" d="M 538 4863 
L 1656 4863 
L 1656 0 
L 538 0 
L 538 4863 
z
" transform="scale(0.015625)"/>
      <path id="DejaVuSans-Bold-65" d="M 4031 1759 
L 4031 1441 
L 1416 1441 
Q 1456 1047 1700 850 
Q 1944 653 2381 653 
Q 2734 653 3104 758 
Q 3475 863 3866 1075 
L 3866 213 
Q 3469 63 3072 -14 
Q 2675 -91 2278 -91 
Q 1328 -91 801 392 
Q 275 875 275 1747 
Q 275 2603 792 3093 
Q 1309 3584 2216 3584 
Q 3041 3584 3536 3087 
Q 4031 2591 4031 1759 
z
M 2881 2131 
Q 2881 2450 2695 2645 
Q 2509 2841 2209 2841 
Q 1884 2841 1681 2658 
Q 1478 2475 1428 2131 
L 2881 2131 
z
" transform="scale(0.015625)"/>
      <path id="DejaVuSans-Bold-6d" d="M 3781 2919 
Q 3994 3244 4286 3414 
Q 4578 3584 4928 3584 
Q 5531 3584 5847 3212 
Q 6163 2841 6163 2131 
L 6163 0 
L 5038 0 
L 5038 1825 
Q 5041 1866 5042 1909 
Q 5044 1953 5044 2034 
Q 5044 2406 4934 2573 
Q 4825 2741 4581 2741 
Q 4263 2741 4089 2478 
Q 3916 2216 3909 1719 
L 3909 0 
L 2784 0 
L 2784 1825 
Q 2784 2406 2684 2573 
Q 2584 2741 2328 2741 
Q 2006 2741 1831 2477 
Q 1656 2213 1656 1722 
L 1656 0 
L 531 0 
L 531 3500 
L 1656 3500 
L 1656 2988 
Q 1863 3284 2130 3434 
Q 2397 3584 2719 3584 
Q 3081 3584 3359 3409 
Q 3638 3234 3781 2919 
z
" transform="scale(0.015625)"/>
      <path id="DejaVuSans-Bold-67" d="M 2919 594 
Q 2688 288 2409 144 
Q 2131 0 1766 0 
Q 1125 0 706 504 
Q 288 1009 288 1791 
Q 288 2575 706 3076 
Q 1125 3578 1766 3578 
Q 2131 3578 2409 3434 
Q 2688 3291 2919 2981 
L 2919 3500 
L 4044 3500 
L 4044 353 
Q 4044 -491 3511 -936 
Q 2978 -1381 1966 -1381 
Q 1638 -1381 1331 -1331 
Q 1025 -1281 716 -1178 
L 716 -306 
Q 1009 -475 1290 -558 
Q 1572 -641 1856 -641 
Q 2406 -641 2662 -400 
Q 2919 -159 2919 353 
L 2919 594 
z
M 2181 2772 
Q 1834 2772 1640 2515 
Q 1447 2259 1447 1791 
Q 1447 1309 1634 1061 
Q 1822 813 2181 813 
Q 2531 813 2725 1069 
Q 2919 1325 2919 1791 
Q 2919 2259 2725 2515 
Q 2531 2772 2181 2772 
z
" transform="scale(0.015625)"/>
     </defs>
     <use xlink:href="#DejaVuSans-Bold-45"/>
     <use xlink:href="#DejaVuSans-Bold-72" transform="translate(68.310547 0)"/>
     <use xlink:href="#DejaVuSans-Bold-64" transform="translate(117.626953 0)"/>
     <use xlink:href="#DejaVuSans-Bold-151" transform="translate(189.208984 0)"/>
     <use xlink:href="#DejaVuSans-Bold-73" transform="translate(257.910156 0)"/>
     <use xlink:href="#DejaVuSans-Bold-20" transform="translate(317.431641 0)"/>
     <use xlink:href="#DejaVuSans-Bold-50" transform="translate(352.246094 0)"/>
     <use xlink:href="#DejaVuSans-Bold-72" transform="translate(425.537109 0)"/>
     <use xlink:href="#DejaVuSans-Bold-6f" transform="translate(474.853516 0)"/>
     <use xlink:href="#DejaVuSans-Bold-62" transform="translate(543.554688 0)"/>
     <use xlink:href="#DejaVuSans-Bold-6c" transform="translate(615.136719 0)"/>
     <use xlink:href="#DejaVuSans-Bold-65" transform="translate(649.414062 0)"/>
     <use xlink:href="#DejaVuSans-Bold-6d" transform="translate(717.236328 0)"/>
     <use xlink:href="#DejaVuSans-Bold-73" transform="translate(821.435547 0)"/>
     <use xlink:href="#DejaVuSans-Bold-20" transform="translate(880.957031 0)"/>
     <use xlink:href="#DejaVuSans-Bold-50" transform="translate(915.771484 0)"/>
     <use xlink:href="#DejaVuSans-Bold-72" transform="translate(989.0625 0)"/>
     <use xlink:href="#DejaVuSans-Bold-6f" transform="translate(1038.378906 0)"/>
     <use xlink:href="#DejaVuSans-Bold-67" transform="translate(1107.080078 0)"/>
     <use xlink:href="#DejaVuSans-Bold-72" transform="translate(1178.662109 0)"/>
     <use xlink:href="#DejaVuSans-Bold-65" transform="translate(1227.978516 0)"/>
     <use xlink:href="#DejaVuSans-Bold-73" transform="translate(1295.800781 0)"/>
     <use xlink:href="#DejaVuSans-Bold-73" transform="translate(1355.322266 0)"/>
    </g>
   </g>
   <g id="legend_1">
    <g id="patch_7">
     <path d="M 55.90125 119.788437 
L 213.771563 119.788437 
Q 215.771563 119.788437 215.771563 117.788437 
L 215.771563 45.397812 
Q 215.771563 43.397812 213.771563 43.397812 
L 55.90125 43.397812 
Q 53.90125 43.397812 53.90125 45.397812 
L 53.90125 117.788437 
Q 53.90125 119.788437 55.90125 119.788437 
z
" style="fill: #161b22; opacity: 0.8; stroke: #30363d; stroke-linejoin: miter"/>
    </g>
    <g id="line2d_38">
     <path d="M 57.90125 51.49625 
L 67.90125 51.49625 
L 77.90125 51.49625 
" style="fill: none; stroke: #3fb950; stroke-width: 2; stroke-linecap: square"/>
    </g>
    <g id="text_25">
     <!-- Solved -->
     <g style="fill: #c9d1d9" transform="translate(85.90125 54.99625) scale(0.1 -0.1)">
      <defs>
       <path id="DejaVuSans-6c" d="M 603 4863 
L 1178 4863 
L 1178 0 
L 603 0 
L 603 4863 
z
" transform="scale(0.015625)"/>
       <path id="DejaVuSans-64" d="M 2906 2969 
L 2906 4863 
L 3481 4863 
L 3481 0 
L 2906 0 
L 2906 525 
Q 2725 213 2448 61 
Q 2172 -91 1784 -91 
Q 1150 -91 751 415 
Q 353 922 353 1747 
Q 353 2572 751 3078 
Q 1150 3584 1784 3584 
Q 2172 3584 2448 3432 
Q 2725 3281 2906 2969 
z
M 947 1747 
Q 947 1113 1208 752 
Q 1469 391 1925 391 
Q 2381 391 2643 752 
Q 2906 1113 2906 1747 
Q 2906 2381 2643 2742 
Q 2381 3103 1925 3103 
Q 1469 3103 1208 2742 
Q 947 2381 947 1747 
z
" transform="scale(0.015625)"/>
      </defs>
      <use xlink:href="#DejaVuSans-53"/>
      <use xlink:href="#DejaVuSans-6f" transform="translate(63.476562 0)"/>
      <use xlink:href="#DejaVuSans-6c" transform="translate(124.658203 0)"/>
      <use xlink:href="#DejaVuSans-76" transform="translate(152.441406 0)"/>
      <use xlink:href="#DejaVuSans-65" transform="translate(211.621094 0)"/>
      <use xlink:href="#DejaVuSans-64" transform="translate(273.144531 0)"/>
     </g>
    </g>
    <g id="line2d_39">
     <path d="M 57.90125 66.174375 
L 67.90125 66.174375 
L 77.90125 66.174375 
" style="fill: none; stroke: #58a6ff; stroke-width: 2; stroke-linecap: square"/>
    </g>
    <g id="text_26">
     <!-- Lean Formalized Problem -->
     <g style="fill: #c9d1d9" transform="translate(85.90125 69.674375) scale(0.1 -0.1)">
      <defs>
       <path id="DejaVuSans-4c" d="M 628 4666 
L 1259 4666 
L 1259 531 
L 3531 531 
L 3531 0 
L 628 0 
L 628 4666 
z
" transform="scale(0.015625)"/>
       <path id="DejaVuSans-20" transform="scale(0.015625)"/>
       <path id="DejaVuSans-6d" d="M 3328 2828 
Q 3544 3216 3844 3400 
Q 4144 3584 4550 3584 
Q 5097 3584 5394 3201 
Q 5691 2819 5691 2113 
L 5691 0 
L 5113 0 
L 5113 2094 
Q 5113 2597 4934 2840 
Q 4756 3084 4391 3084 
Q 3944 3084 3684 2787 
Q 3425 2491 3425 1978 
L 3425 0 
L 2847 0 
L 2847 2094 
Q 2847 2600 2669 2842 
Q 2491 3084 2119 3084 
Q 1678 3084 1418 2786 
Q 1159 2488 1159 1978 
L 1159 0 
L 581 0 
L 581 3500 
L 1159 3500 
L 1159 2956 
Q 1356 3278 1631 3431 
Q 1906 3584 2284 3584 
Q 2666 3584 2933 3390 
Q 3200 3197 3328 2828 
z
" transform="scale(0.015625)"/>
       <path id="DejaVuSans-69" d="M 603 3500 
L 1178 3500 
L 1178 0 
L 603 0 
L 603 3500 
z
M 603 4863 
L 1178 4863 
L 1178 4134 
L 603 4134 
L 603 4863 
z
" transform="scale(0.015625)"/>
       <path id="DejaVuSans-7a" d="M 353 3500 
L 3084 3500 
L 3084 2975 
L 922 459 
L 3084 459 
L 3084 0 
L 275 0 
L 275 525 
L 2438 3041 
L 353 3041 
L 353 3500 
z
" transform="scale(0.015625)"/>
       <path id="DejaVuSans-50" d="M 1259 4147 
L 1259 2394 
L 2053 2394 
Q 2494 2394 2734 2622 
Q 2975 2850 2975 3272 
Q 2975 3691 2734 3919 
Q 2494 4147 2053 4147 
L 1259 4147 
z
M 628 4666 
L 2053 4666 
Q 2838 4666 3239 4311 
Q 3641 3956 3641 3272 
Q 3641 2581 3239 2228 
Q 2838 1875 2053 1875 
L 1259 1875 
L 1259 0 
L 628 0 
L 628 4666 
z
" transform="scale(0.015625)"/>
      </defs>
      <use xlink:href="#DejaVuSans-4c"/>
      <use xlink:href="#DejaVuSans-65" transform="translate(53.962891 0)"/>
      <use xlink:href="#DejaVuSans-61" transform="translate(115.486328 0)"/>
      <use xlink:href="#DejaVuSans-6e" transform="translate(176.765625 0)"/>
      <use xlink:href="#DejaVuSans-20" transform="translate(240.144531 0)"/>
      <use xlink:href="#DejaVuSans-46" transform="translate(271.931641 0)"/>
      <use xlink:href="#DejaVuSans-6f" transform="translate(325.826172 0)"/>
      <use xlink:href="#DejaVuSans-72" transform="translate(387.007812 0)"/>
      <use xlink:href="#DejaVuSans-6d" transform="translate(426.371094 0)"/>
      <use xlink:href="#DejaVuSans-61" transform="translate(523.783203 0)"/>
      <use xlink:href="#DejaVuSans-6c" transform="translate(585.0625 0)"/>
      <use xlink:href="#DejaVuSans-69" transform="translate(612.845703 0)"/>
      <use xlink:href="#DejaVuSans-7a" transform="translate(640.628906 0)"/>
      <use xlink:href="#DejaVuSans-65" transform="translate(693.119141 0)"/>
      <use xlink:href="#DejaVuSans-64" transform="translate(754.642578 0)"/>
      <use xlink:href="#DejaVuSans-20" transform="translate(818.119141 0)"/>
      <use xlink:href="#DejaVuSans-50" transform="translate(849.90625 0)"/>
      <use xlink:href="#DejaVuSans-72" transform="translate(908.458984 0)"/>
      <use xlink:href="#DejaVuSans-6f" transform="translate(947.322266 0)"/>
      <use xlink:href="#DejaVuSans-62" transform="translate(1008.503906 0)"/>
      <use xlink:href="#DejaVuSans-6c" transform="translate(1071.980469 0)"/>
      <use xlink:href="#DejaVuSans-65" transform="translate(1099.763672 0)"/>
      <use xlink:href="#DejaVuSans-6d" transform="translate(1161.287109 0)"/>
     </g>
    </g>
    <g id="line2d_40">
     <path d="M 57.90125 80.8525 
L 67.90125 80.8525 
L 77.90125 80.8525 
" style="fill: none; stroke: #d29922; stroke-width: 2; stroke-linecap: square"/>
    </g>
    <g id="text_27">
     <!-- Lean Formalized Solution -->
     <g style="fill: #c9d1d9" transform="translate(85.90125 84.3525) scale(0.1 -0.1)">
      <use xlink:href="#DejaVuSans-4c"/>
      <use xlink:href="#DejaVuSans-65" transform="translate(53.962891 0)"/>
      <use xlink:href="#DejaVuSans-61" transform="translate(115.486328 0)"/>
      <use xlink:href="#DejaVuSans-6e" transform="translate(176.765625 0)"/>
      <use xlink:href="#DejaVuSans-20" transform="translate(240.144531 0)"/>
      <use xlink:href="#DejaVuSans-46" transform="translate(271.931641 0)"/>
      <use xlink:href="#DejaVuSans-6f" transform="translate(325.826172 0)"/>
      <use xlink:href="#DejaVuSans-72" transform="translate(387.007812 0)"/>
      <use xlink:href="#DejaVuSans-6d" transform="translate(426.371094 0)"/>
      <use xlink:href="#DejaVuSans-61" transform="translate(523.783203 0)"/>
      <use xlink:href="#DejaVuSans-6c" transform="translate(585.0625 0)"/>
      <use xlink:href="#DejaVuSans-69" transform="translate(612.845703 0)"/>
      <use xlink:href="#DejaVuSans-7a" transform="translate(640.628906 0)"/>
      <use xlink:href="#DejaVuSans-65" transform="translate(693.119141 0)"/>
      <use xlink:href="#DejaVuSans-64" transform="translate(754.642578 0)"/>
      <use xlink:href="#DejaVuSans-20" transform="translate(818.119141 0)"/>
      <use xlink:href="#DejaVuSans-53" transform="translate(849.90625 0)"/>
      <use xlink:href="#DejaVuSans-6f" transform="translate(913.382812 0)"/>
      <use xlink:href="#DejaVuSans-6c" transform="translate(974.564453 0)"/>
      <use xlink:href="#DejaVuSans-75" transform="translate(1002.347656 0)"/>
      <use xlink:href="#DejaVuSans-74" transform="translate(1065.726562 0)"/>
      <use xlink:href="#DejaVuSans-69" transform="translate(1104.935547 0)"/>
      <use xlink:href="#DejaVuSans-6f" transform="translate(1132.71875 0)"/>
      <use xlink:href="#DejaVuSans-6e" transform="translate(1193.900391 0)"/>
     </g>
    </g>
    <g id="line2d_41">
     <path d="M 57.90125 95.530625 
L 67.90125 95.530625 
L 77.90125 95.530625 
" style="fill: none; stroke: #f85149; stroke-width: 2; stroke-linecap: square"/>
    </g>
    <g id="text_28">
     <!-- OEIS Linked -->
     <g style="fill: #c9d1d9" transform="translate(85.90125 99.030625) scale(0.1 -0.1)">
      <defs>
       <path id="DejaVuSans-45" d="M 628 4666 
L 3578 4666 
L 3578 4134 
L 1259 4134 
L 1259 2753 
L 3481 2753 
L 3481 2222 
L 1259 2222 
L 1259 531 
L 3634 531 
L 3634 0 
L 628 0 
L 628 4666 
z
" transform="scale(0.015625)"/>
       <path id="DejaVuSans-49" d="M 628 4666 
L 1259 4666 
L 1259 0 
L 628 0 
L 628 4666 
z
" transform="scale(0.015625)"/>
       <path id="DejaVuSans-6b" d="M 581 4863 
L 1159 4863 
L 1159 1991 
L 2875 3500 
L 3609 3500 
L 1753 1863 
L 3688 0 
L 2938 0 
L 1159 1709 
L 1159 0 
L 581 0 
L 581 4863 
z
" transform="scale(0.015625)"/>
      </defs>
      <use xlink:href="#DejaVuSans-4f"/>
      <use xlink:href="#DejaVuSans-45" transform="translate(78.710938 0)"/>
      <use xlink:href="#DejaVuSans-49" transform="translate(141.894531 0)"/>
      <use xlink:href="#DejaVuSans-53" transform="translate(171.386719 0)"/>
      <use xlink:href="#DejaVuSans-20" transform="translate(234.863281 0)"/>
      <use xlink:href="#DejaVuSans-4c" transform="translate(266.650391 0)"/>
      <use xlink:href="#DejaVuSans-69" transform="translate(322.363281 0)"/>
      <use xlink:href="#DejaVuSans-6e" transform="translate(350.146484 0)"/>
      <use xlink:href="#DejaVuSans-6b" transform="translate(413.525391 0)"/>
      <use xlink:href="#DejaVuSans-65" transform="translate(467.810547 0)"/>
      <use xlink:href="#DejaVuSans-64" transform="translate(529.333984 0)"/>
     </g>
    </g>
    <g id="line2d_42">
     <path d="M 57.90125 110.20875 
L 67.90125 110.20875 
L 77.90125 110.20875 
" style="fill: none; stroke: #9467bd; stroke-width: 2; stroke-linecap: square"/>
    </g>
    <g id="text_29">
     <!-- Open Problems -->
     <g style="fill: #c9d1d9" transform="translate(85.90125 113.70875) scale(0.1 -0.1)">
      <defs>
       <path id="DejaVuSans-73" d="M 2834 3397 
L 2834 2853 
Q 2591 2978 2328 3040 
Q 2066 3103 1784 3103 
Q 1356 3103 1142 2972 
Q 928 2841 928 2578 
Q 928 2378 1081 2264 
Q 1234 2150 1697 2047 
L 1894 2003 
Q 2506 1872 2764 1633 
Q 3022 1394 3022 966 
Q 3022 478 2636 193 
Q 2250 -91 1575 -91 
Q 1294 -91 989 -36 
Q 684 19 347 128 
L 347 722 
Q 666 556 975 473 
Q 1284 391 1588 391 
Q 1994 391 2212 530 
Q 2431 669 2431 922 
Q 2431 1156 2273 1281 
Q 2116 1406 1581 1522 
L 1381 1569 
Q 847 1681 609 1914 
Q 372 2147 372 2553 
Q 372 3047 722 3315 
Q 1072 3584 1716 3584 
Q 2034 3584 2315 3537 
Q 2597 3491 2834 3397 
z
" transform="scale(0.015625)"/>
      </defs>
      <use xlink:href="#DejaVuSans-4f"/>
      <use xlink:href="#DejaVuSans-70" transform="translate(78.710938 0)"/>
      <use xlink:href="#DejaVuSans-65" transform="translate(142.1875 0)"/>
      <use xlink:href="#DejaVuSans-6e" transform="translate(203.710938 0)"/>
      <use xlink:href="#DejaVuSans-20" transform="translate(267.089844 0)"/>
      <use xlink:href="#DejaVuSans-50" transform="translate(298.876953 0)"/>
      <use xlink:href="#DejaVuSans-72" transform="translate(357.429688 0)"/>
      <use xlink:href="#DejaVuSans-6f" transform="translate(396.292969 0)"/>
      <use xlink:href="#DejaVuSans-62" transform="translate(457.474609 0)"/>
      <use xlink:href="#DejaVuSans-6c" transform="translate(520.951172 0)"/>
      <use xlink:href="#DejaVuSans-65" transform="translate(548.734375 0)"/>
      <use xlink:href="#DejaVuSans-6d" transform="translate(610.257812 0)"/>
      <use xlink:href="#DejaVuSans-73" transform="translate(707.669922 0)"/>
     </g>
    </g>
   </g>
  </g>
 </g>
 <defs>
  <clipPath id="pa0972f45d9">
   <rect x="48.90125" y="38.397812" width="799.45" height="416.84"/>
  </clipPath>
 </defs>
</svg>
