<?xml version="1.0" encoding="utf-8" standalone="no"?>
<!DOCTYPE svg PUBLIC "-//W3C//DTD SVG 1.1//EN"
  "http://www.w3.org/Graphics/SVG/1.1/DTD/svg11.dtd">
<svg xmlns:xlink="http://www.w3.org/1999/xlink" width="855.55125pt" height="494.729687pt" viewBox="0 0 855.55125 494.729687" xmlns="http://www.w3.org/2000/svg" version="1.1">
 <metadata>
  <rdf:RDF xmlns:dc="http://purl.org/dc/elements/1.1/" xmlns:cc="http://creativecommons.org/ns#" xmlns:rdf="http://www.w3.org/1999/02/22-rdf-syntax-ns#">
   <cc:Work>
    <dc:type rdf:resource="http://purl.org/dc/dcmitype/StillImage"/>
    <dc:date>2026-03-03T14:48:46.841496</dc:date>
    <dc:format>image/svg+xml</dc:format>
    <dc:creator>
     <cc:Agent>
      <dc:title>Matplotlib v3.10.7, https://matplotlib.org/</dc:title>
     </cc:Agent>
    </dc:creator>
   </cc:Work>
  </rdf:RDF>
 </metadata>
 <defs>
  <style type="text/css">*{stroke-linejoin: round; stroke-linecap: butt}</style>
 </defs>
 <g id="figure_1">
  <g id="patch_1">
   <path d="M 0 494.729687 
L 855.55125 494.729687 
L 855.55125 0 
L 0 0 
z
" style="fill: #0d1117"/>
  </g>
  <g id="axes_1">
   <g id="patch_2">
    <path d="M 48.90125 455.237812 
L 848.35125 455.237812 
L 848.35125 38.397812 
L 48.90125 38.397812 
z
" style="fill: #0d1117"/>
   </g>
   <g id="matplotlib.axis_1">
    <g id="xtick_1">
     <g id="line2d_1">
      <path d="M 86.395146 455.237812 
L 86.395146 38.397812 
" clip-path="url(#p25142c9dca)" style="fill: none; stroke: #30363d; stroke-opacity: 0.25; stroke-width: 0.5; stroke-linecap: square"/>
     </g>
     <g id="line2d_2">
      <defs>
       <path id="m9efd6ecf38" d="M 0 0 
L 0 3.5 
" style="stroke: #c9d1d9; stroke-width: 0.8"/>
      </defs>
      <g>
       <use xlink:href="#m9efd6ecf38" x="86.395146" y="455.237812" style="fill: #c9d1d9; stroke: #c9d1d9; stroke-width: 0.8"/>
      </g>
     </g>
     <g id="text_1">
      <!-- Sep -->
      <g style="fill: #c9d1d9" transform="translate(76.970146 469.83625) scale(0.1 -0.1)">
       <defs>
        <path id="DejaVuSans-53" d="M 3425 4513 
L 3425 3897 
Q 3066 4069 2747 4153 
Q 2428 4238 2131 4238 
Q 1616 4238 1336 4038 
Q 1056 3838 1056 3469 
Q 1056 3159 1242 3001 
Q 1428 2844 1947 2747 
L 2328 2669 
Q 3034 2534 3370 2195 
Q 3706 1856 3706 1288 
Q 3706 609 3251 259 
Q 2797 -91 1919 -91 
Q 1588 -91 1214 -16 
Q 841 59 441 206 
L 441 856 
Q 825 641 1194 531 
Q 1563 422 1919 422 
Q 2459 422 2753 634 
Q 3047 847 3047 1241 
Q 3047 1584 2836 1778 
Q 2625 1972 2144 2069 
L 1759 2144 
Q 1053 2284 737 2584 
Q 422 2884 422 3419 
Q 422 4038 858 4394 
Q 1294 4750 2059 4750 
Q 2388 4750 2728 4690 
Q 3069 4631 3425 4513 
z
" transform="scale(0.015625)"/>
        <path id="DejaVuSans-65" d="M 3597 1894 
L 3597 1613 
L 953 1613 
Q 991 1019 1311 708 
Q 1631 397 2203 397 
Q 2534 397 2845 478 
Q 3156 559 3463 722 
L 3463 178 
Q 3153 47 2828 -22 
Q 2503 -91 2169 -91 
Q 1331 -91 842 396 
Q 353 884 353 1716 
Q 353 2575 817 3079 
Q 1281 3584 2069 3584 
Q 2775 3584 3186 3129 
Q 3597 2675 3597 1894 
z
M 3022 2063 
Q 3016 2534 2758 2815 
Q 2500 3097 2075 3097 
Q 1594 3097 1305 2825 
Q 1016 2553 972 2059 
L 3022 2063 
z
" transform="scale(0.015625)"/>
        <path id="DejaVuSans-70" d="M 1159 525 
L 1159 -1331 
L 581 -1331 
L 581 3500 
L 1159 3500 
L 1159 2969 
Q 1341 3281 1617 3432 
Q 1894 3584 2278 3584 
Q 2916 3584 3314 3078 
Q 3713 2572 3713 1747 
Q 3713 922 3314 415 
Q 2916 -91 2278 -91 
Q 1894 -91 1617 61 
Q 1341 213 1159 525 
z
M 3116 1747 
Q 3116 2381 2855 2742 
Q 2594 3103 2138 3103 
Q 1681 3103 1420 2742 
Q 1159 2381 1159 1747 
Q 1159 1113 1420 752 
Q 1681 391 2138 391 
Q 2594 391 2855 752 
Q 3116 1113 3116 1747 
z
" transform="scale(0.015625)"/>
       </defs>
       <use xlink:href="#DejaVuSans-53"/>
       <use xlink:href="#DejaVuSans-65" transform="translate(63.476562 0)"/>
       <use xlink:href="#DejaVuSans-70" transform="translate(125 0)"/>
      </g>
     </g>
    </g>
    <g id="xtick_2">
     <g id="line2d_3">
      <path d="M 204.948986 455.237812 
L 204.948986 38.397812 
" clip-path="url(#p25142c9dca)" style="fill: none; stroke: #30363d; stroke-opacity: 0.25; stroke-width: 0.5; stroke-linecap: square"/>
     </g>
     <g id="line2d_4">
      <g>
       <use xlink:href="#m9efd6ecf38" x="204.948986" y="455.237812" style="fill: #c9d1d9; stroke: #c9d1d9; stroke-width: 0.8"/>
      </g>
     </g>
     <g id="text_2">
      <!-- Oct -->
      <g style="fill: #c9d1d9" transform="translate(196.303673 469.83625) scale(0.1 -0.1)">
       <defs>
        <path id="DejaVuSans-4f" d="M 2522 4238 
Q 1834 4238 1429 3725 
Q 1025 3213 1025 2328 
Q 1025 1447 1429 934 
Q 1834 422 2522 422 
Q 3209 422 3611 934 
Q 4013 1447 4013 2328 
Q 4013 3213 3611 3725 
Q 3209 4238 2522 4238 
z
M 2522 4750 
Q 3503 4750 4090 4092 
Q 4678 3434 4678 2328 
Q 4678 1225 4090 567 
Q 3503 -91 2522 -91 
Q 1538 -91 948 565 
Q 359 1222 359 2328 
Q 359 3434 948 4092 
Q 1538 4750 2522 4750 
z
" transform="scale(0.015625)"/>
        <path id="DejaVuSans-63" d="M 3122 3366 
L 3122 2828 
Q 2878 2963 2633 3030 
Q 2388 3097 2138 3097 
Q 1578 3097 1268 2742 
Q 959 2388 959 1747 
Q 959 1106 1268 751 
Q 1578 397 2138 397 
Q 2388 397 2633 464 
Q 2878 531 3122 666 
L 3122 134 
Q 2881 22 2623 -34 
Q 2366 -91 2075 -91 
Q 1284 -91 818 406 
Q 353 903 353 1747 
Q 353 2603 823 3093 
Q 1294 3584 2113 3584 
Q 2378 3584 2631 3529 
Q 2884 3475 3122 3366 
z
" transform="scale(0.015625)"/>
        <path id="DejaVuSans-74" d="M 1172 4494 
L 1172 3500 
L 2356 3500 
L 2356 3053 
L 1172 3053 
L 1172 1153 
Q 1172 725 1289 603 
Q 1406 481 1766 481 
L 2356 481 
L 2356 0 
L 1766 0 
Q 1100 0 847 248 
Q 594 497 594 1153 
L 594 3053 
L 172 3053 
L 172 3500 
L 594 3500 
L 594 4494 
L 1172 4494 
z
" transform="scale(0.015625)"/>
       </defs>
       <use xlink:href="#DejaVuSans-4f"/>
       <use xlink:href="#DejaVuSans-63" transform="translate(78.710938 0)"/>
       <use xlink:href="#DejaVuSans-74" transform="translate(133.691406 0)"/>
      </g>
     </g>
    </g>
    <g id="xtick_3">
     <g id="line2d_5">
      <path d="M 327.454621 455.237812 
L 327.454621 38.397812 
" clip-path="url(#p25142c9dca)" style="fill: none; stroke: #30363d; stroke-opacity: 0.25; stroke-width: 0.5; stroke-linecap: square"/>
     </g>
     <g id="line2d_6">
      <g>
       <use xlink:href="#m9efd6ecf38" x="327.454621" y="455.237812" style="fill: #c9d1d9; stroke: #c9d1d9; stroke-width: 0.8"/>
      </g>
     </g>
     <g id="text_3">
      <!-- Nov -->
      <g style="fill: #c9d1d9" transform="translate(317.695246 469.83625) scale(0.1 -0.1)">
       <defs>
        <path id="DejaVuSans-4e" d="M 628 4666 
L 1478 4666 
L 3547 763 
L 3547 4666 
L 4159 4666 
L 4159 0 
L 3309 0 
L 1241 3903 
L 1241 0 
L 628 0 
L 628 4666 
z
" transform="scale(0.015625)"/>
        <path id="DejaVuSans-6f" d="M 1959 3097 
Q 1497 3097 1228 2736 
Q 959 2375 959 1747 
Q 959 1119 1226 758 
Q 1494 397 1959 397 
Q 2419 397 2687 759 
Q 2956 1122 2956 1747 
Q 2956 2369 2687 2733 
Q 2419 3097 1959 3097 
z
M 1959 3584 
Q 2709 3584 3137 3096 
Q 3566 2609 3566 1747 
Q 3566 888 3137 398 
Q 2709 -91 1959 -91 
Q 1206 -91 779 398 
Q 353 888 353 1747 
Q 353 2609 779 3096 
Q 1206 3584 1959 3584 
z
" transform="scale(0.015625)"/>
        <path id="DejaVuSans-76" d="M 191 3500 
L 800 3500 
L 1894 563 
L 2988 3500 
L 3597 3500 
L 2284 0 
L 1503 0 
L 191 3500 
z
" transform="scale(0.015625)"/>
       </defs>
       <use xlink:href="#DejaVuSans-4e"/>
       <use xlink:href="#DejaVuSans-6f" transform="translate(74.804688 0)"/>
       <use xlink:href="#DejaVuSans-76" transform="translate(135.986328 0)"/>
      </g>
     </g>
    </g>
    <g id="xtick_4">
     <g id="line2d_7">
      <path d="M 446.00846 455.237812 
L 446.00846 38.397812 
" clip-path="url(#p25142c9dca)" style="fill: none; stroke: #30363d; stroke-opacity: 0.25; stroke-width: 0.5; stroke-linecap: square"/>
     </g>
     <g id="line2d_8">
      <g>
       <use xlink:href="#m9efd6ecf38" x="446.00846" y="455.237812" style="fill: #c9d1d9; stroke: #c9d1d9; stroke-width: 0.8"/>
      </g>
     </g>
     <g id="text_4">
      <!-- Dec -->
      <g style="fill: #c9d1d9" transform="translate(436.332679 469.83625) scale(0.1 -0.1)">
       <defs>
        <path id="DejaVuSans-44" d="M 1259 4147 
L 1259 519 
L 2022 519 
Q 2988 519 3436 956 
Q 3884 1394 3884 2338 
Q 3884 3275 3436 3711 
Q 2988 4147 2022 4147 
L 1259 4147 
z
M 628 4666 
L 1925 4666 
Q 3281 4666 3915 4102 
Q 4550 3538 4550 2338 
Q 4550 1131 3912 565 
Q 3275 0 1925 0 
L 628 0 
L 628 4666 
z
" transform="scale(0.015625)"/>
       </defs>
       <use xlink:href="#DejaVuSans-44"/>
       <use xlink:href="#DejaVuSans-65" transform="translate(77.001953 0)"/>
       <use xlink:href="#DejaVuSans-63" transform="translate(138.525391 0)"/>
      </g>
     </g>
    </g>
    <g id="xtick_5">
     <g id="line2d_9">
      <path d="M 568.514095 455.237812 
L 568.514095 38.397812 
" clip-path="url(#p25142c9dca)" style="fill: none; stroke: #30363d; stroke-opacity: 0.25; stroke-width: 0.5; stroke-linecap: square"/>
     </g>
     <g id="line2d_10">
      <g>
       <use xlink:href="#m9efd6ecf38" x="568.514095" y="455.237812" style="fill: #c9d1d9; stroke: #c9d1d9; stroke-width: 0.8"/>
      </g>
     </g>
     <g id="text_5">
      <!-- 2026 -->
      <g style="fill: #c9d1d9" transform="translate(555.789095 469.83625) scale(0.1 -0.1)">
       <defs>
        <path id="DejaVuSans-32" d="M 1228 531 
L 3431 531 
L 3431 0 
L 469 0 
L 469 531 
Q 828 903 1448 1529 
Q 2069 2156 2228 2338 
Q 2531 2678 2651 2914 
Q 2772 3150 2772 3378 
Q 2772 3750 2511 3984 
Q 2250 4219 1831 4219 
Q 1534 4219 1204 4116 
Q 875 4013 500 3803 
L 500 4441 
Q 881 4594 1212 4672 
Q 1544 4750 1819 4750 
Q 2544 4750 2975 4387 
Q 3406 4025 3406 3419 
Q 3406 3131 3298 2873 
Q 3191 2616 2906 2266 
Q 2828 2175 2409 1742 
Q 1991 1309 1228 531 
z
" transform="scale(0.015625)"/>
        <path id="DejaVuSans-30" d="M 2034 4250 
Q 1547 4250 1301 3770 
Q 1056 3291 1056 2328 
Q 1056 1369 1301 889 
Q 1547 409 2034 409 
Q 2525 409 2770 889 
Q 3016 1369 3016 2328 
Q 3016 3291 2770 3770 
Q 2525 4250 2034 4250 
z
M 2034 4750 
Q 2819 4750 3233 4129 
Q 3647 3509 3647 2328 
Q 3647 1150 3233 529 
Q 2819 -91 2034 -91 
Q 1250 -91 836 529 
Q 422 1150 422 2328 
Q 422 3509 836 4129 
Q 1250 4750 2034 4750 
z
" transform="scale(0.015625)"/>
        <path id="DejaVuSans-36" d="M 2113 2584 
Q 1688 2584 1439 2293 
Q 1191 2003 1191 1497 
Q 1191 994 1439 701 
Q 1688 409 2113 409 
Q 2538 409 2786 701 
Q 3034 994 3034 1497 
Q 3034 2003 2786 2293 
Q 2538 2584 2113 2584 
z
M 3366 4563 
L 3366 3988 
Q 3128 4100 2886 4159 
Q 2644 4219 2406 4219 
Q 1781 4219 1451 3797 
Q 1122 3375 1075 2522 
Q 1259 2794 1537 2939 
Q 1816 3084 2150 3084 
Q 2853 3084 3261 2657 
Q 3669 2231 3669 1497 
Q 3669 778 3244 343 
Q 2819 -91 2113 -91 
Q 1303 -91 875 529 
Q 447 1150 447 2328 
Q 447 3434 972 4092 
Q 1497 4750 2381 4750 
Q 2619 4750 2861 4703 
Q 3103 4656 3366 4563 
z
" transform="scale(0.015625)"/>
       </defs>
       <use xlink:href="#DejaVuSans-32"/>
       <use xlink:href="#DejaVuSans-30" transform="translate(63.623047 0)"/>
       <use xlink:href="#DejaVuSans-32" transform="translate(127.246094 0)"/>
       <use xlink:href="#DejaVuSans-36" transform="translate(190.869141 0)"/>
      </g>
     </g>
    </g>
    <g id="xtick_6">
     <g id="line2d_11">
      <path d="M 691.01973 455.237812 
L 691.01973 38.397812 
" clip-path="url(#p25142c9dca)" style="fill: none; stroke: #30363d; stroke-opacity: 0.25; stroke-width: 0.5; stroke-linecap: square"/>
     </g>
     <g id="line2d_12">
      <g>
       <use xlink:href="#m9efd6ecf38" x="691.01973" y="455.237812" style="fill: #c9d1d9; stroke: #c9d1d9; stroke-width: 0.8"/>
      </g>
     </g>
     <g id="text_6">
      <!-- Feb -->
      <g style="fill: #c9d1d9" transform="translate(682.168167 469.83625) scale(0.1 -0.1)">
       <defs>
        <path id="DejaVuSans-46" d="M 628 4666 
L 3309 4666 
L 3309 4134 
L 1259 4134 
L 1259 2759 
L 3109 2759 
L 3109 2228 
L 1259 2228 
L 1259 0 
L 628 0 
L 628 4666 
z
" transform="scale(0.015625)"/>
        <path id="DejaVuSans-62" d="M 3116 1747 
Q 3116 2381 2855 2742 
Q 2594 3103 2138 3103 
Q 1681 3103 1420 2742 
Q 1159 2381 1159 1747 
Q 1159 1113 1420 752 
Q 1681 391 2138 391 
Q 2594 391 2855 752 
Q 3116 1113 3116 1747 
z
M 1159 2969 
Q 1341 3281 1617 3432 
Q 1894 3584 2278 3584 
Q 2916 3584 3314 3078 
Q 3713 2572 3713 1747 
Q 3713 922 3314 415 
Q 2916 -91 2278 -91 
Q 1894 -91 1617 61 
Q 1341 213 1159 525 
L 1159 0 
L 581 0 
L 581 4863 
L 1159 4863 
L 1159 2969 
z
" transform="scale(0.015625)"/>
       </defs>
       <use xlink:href="#DejaVuSans-46"/>
       <use xlink:href="#DejaVuSans-65" transform="translate(52.019531 0)"/>
       <use xlink:href="#DejaVuSans-62" transform="translate(113.542969 0)"/>
      </g>
     </g>
    </g>
    <g id="xtick_7">
     <g id="line2d_13">
      <path d="M 801.66998 455.237812 
L 801.66998 38.397812 
" clip-path="url(#p25142c9dca)" style="fill: none; stroke: #30363d; stroke-opacity: 0.25; stroke-width: 0.5; stroke-linecap: square"/>
     </g>
     <g id="line2d_14">
      <g>
       <use xlink:href="#m9efd6ecf38" x="801.66998" y="455.237812" style="fill: #c9d1d9; stroke: #c9d1d9; stroke-width: 0.8"/>
      </g>
     </g>
     <g id="text_7">
      <!-- Mar -->
      <g style="fill: #c9d1d9" transform="translate(792.236387 469.83625) scale(0.1 -0.1)">
       <defs>
        <path id="DejaVuSans-4d" d="M 628 4666 
L 1569 4666 
L 2759 1491 
L 3956 4666 
L 4897 4666 
L 4897 0 
L 4281 0 
L 4281 4097 
L 3078 897 
L 2444 897 
L 1241 4097 
L 1241 0 
L 628 0 
L 628 4666 
z
" transform="scale(0.015625)"/>
        <path id="DejaVuSans-61" d="M 2194 1759 
Q 1497 1759 1228 1600 
Q 959 1441 959 1056 
Q 959 750 1161 570 
Q 1363 391 1709 391 
Q 2188 391 2477 730 
Q 2766 1069 2766 1631 
L 2766 1759 
L 2194 1759 
z
M 3341 1997 
L 3341 0 
L 2766 0 
L 2766 531 
Q 2569 213 2275 61 
Q 1981 -91 1556 -91 
Q 1019 -91 701 211 
Q 384 513 384 1019 
Q 384 1609 779 1909 
Q 1175 2209 1959 2209 
L 2766 2209 
L 2766 2266 
Q 2766 2663 2505 2880 
Q 2244 3097 1772 3097 
Q 1472 3097 1187 3025 
Q 903 2953 641 2809 
L 641 3341 
Q 956 3463 1253 3523 
Q 1550 3584 1831 3584 
Q 2591 3584 2966 3190 
Q 3341 2797 3341 1997 
z
" transform="scale(0.015625)"/>
        <path id="DejaVuSans-72" d="M 2631 2963 
Q 2534 3019 2420 3045 
Q 2306 3072 2169 3072 
Q 1681 3072 1420 2755 
Q 1159 2438 1159 1844 
L 1159 0 
L 581 0 
L 581 3500 
L 1159 3500 
L 1159 2956 
Q 1341 3275 1631 3429 
Q 1922 3584 2338 3584 
Q 2397 3584 2469 3576 
Q 2541 3569 2628 3553 
L 2631 2963 
z
" transform="scale(0.015625)"/>
       </defs>
       <use xlink:href="#DejaVuSans-4d"/>
       <use xlink:href="#DejaVuSans-61" transform="translate(86.279297 0)"/>
       <use xlink:href="#DejaVuSans-72" transform="translate(147.558594 0)"/>
      </g>
     </g>
    </g>
    <g id="text_8">
     <!-- Date -->
     <g style="fill: #c9d1d9" transform="translate(434.285313 485.034062) scale(0.12 -0.12)">
      <use xlink:href="#DejaVuSans-44"/>
      <use xlink:href="#DejaVuSans-61" transform="translate(77.001953 0)"/>
      <use xlink:href="#DejaVuSans-74" transform="translate(138.28125 0)"/>
      <use xlink:href="#DejaVuSans-65" transform="translate(177.490234 0)"/>
     </g>
    </g>
   </g>
   <g id="matplotlib.axis_2">
    <g id="ytick_1">
     <g id="line2d_15">
      <path d="M 48.90125 455.237812 
L 848.35125 455.237812 
" clip-path="url(#p25142c9dca)" style="fill: none; stroke: #30363d; stroke-opacity: 0.25; stroke-width: 0.5; stroke-linecap: square"/>
     </g>
     <g id="line2d_16">
      <defs>
       <path id="m910213d834" d="M 0 0 
L -3.5 0 
" style="stroke: #c9d1d9; stroke-width: 0.8"/>
      </defs>
      <g>
       <use xlink:href="#m910213d834" x="48.90125" y="455.237812" style="fill: #c9d1d9; stroke: #c9d1d9; stroke-width: 0.8"/>
      </g>
     </g>
     <g id="text_9">
      <!-- 0 -->
      <g style="fill: #c9d1d9" transform="translate(35.53875 459.037031) scale(0.1 -0.1)">
       <use xlink:href="#DejaVuSans-30"/>
      </g>
     </g>
    </g>
    <g id="ytick_2">
     <g id="line2d_17">
      <path d="M 48.90125 399.659146 
L 848.35125 399.659146 
" clip-path="url(#p25142c9dca)" style="fill: none; stroke: #30363d; stroke-opacity: 0.25; stroke-width: 0.5; stroke-linecap: square"/>
     </g>
     <g id="line2d_18">
      <g>
       <use xlink:href="#m910213d834" x="48.90125" y="399.659146" style="fill: #c9d1d9; stroke: #c9d1d9; stroke-width: 0.8"/>
      </g>
     </g>
     <g id="text_10">
      <!-- 100 -->
      <g style="fill: #c9d1d9" transform="translate(22.81375 403.458365) scale(0.1 -0.1)">
       <defs>
        <path id="DejaVuSans-31" d="M 794 531 
L 1825 531 
L 1825 4091 
L 703 3866 
L 703 4441 
L 1819 4666 
L 2450 4666 
L 2450 531 
L 3481 531 
L 3481 0 
L 794 0 
L 794 531 
z
" transform="scale(0.015625)"/>
       </defs>
       <use xlink:href="#DejaVuSans-31"/>
       <use xlink:href="#DejaVuSans-30" transform="translate(63.623047 0)"/>
       <use xlink:href="#DejaVuSans-30" transform="translate(127.246094 0)"/>
      </g>
     </g>
    </g>
    <g id="ytick_3">
     <g id="line2d_19">
      <path d="M 48.90125 344.080479 
L 848.35125 344.080479 
" clip-path="url(#p25142c9dca)" style="fill: none; stroke: #30363d; stroke-opacity: 0.25; stroke-width: 0.5; stroke-linecap: square"/>
     </g>
     <g id="line2d_20">
      <g>
       <use xlink:href="#m910213d834" x="48.90125" y="344.080479" style="fill: #c9d1d9; stroke: #c9d1d9; stroke-width: 0.8"/>
      </g>
     </g>
     <g id="text_11">
      <!-- 200 -->
      <g style="fill: #c9d1d9" transform="translate(22.81375 347.879698) scale(0.1 -0.1)">
       <use xlink:href="#DejaVuSans-32"/>
       <use xlink:href="#DejaVuSans-30" transform="translate(63.623047 0)"/>
       <use xlink:href="#DejaVuSans-30" transform="translate(127.246094 0)"/>
      </g>
     </g>
    </g>
    <g id="ytick_4">
     <g id="line2d_21">
      <path d="M 48.90125 288.501812 
L 848.35125 288.501812 
" clip-path="url(#p25142c9dca)" style="fill: none; stroke: #30363d; stroke-opacity: 0.25; stroke-width: 0.5; stroke-linecap: square"/>
     </g>
     <g id="line2d_22">
      <g>
       <use xlink:href="#m910213d834" x="48.90125" y="288.501812" style="fill: #c9d1d9; stroke: #c9d1d9; stroke-width: 0.8"/>
      </g>
     </g>
     <g id="text_12">
      <!-- 300 -->
      <g style="fill: #c9d1d9" transform="translate(22.81375 292.301031) scale(0.1 -0.1)">
       <defs>
        <path id="DejaVuSans-33" d="M 2597 2516 
Q 3050 2419 3304 2112 
Q 3559 1806 3559 1356 
Q 3559 666 3084 287 
Q 2609 -91 1734 -91 
Q 1441 -91 1130 -33 
Q 819 25 488 141 
L 488 750 
Q 750 597 1062 519 
Q 1375 441 1716 441 
Q 2309 441 2620 675 
Q 2931 909 2931 1356 
Q 2931 1769 2642 2001 
Q 2353 2234 1838 2234 
L 1294 2234 
L 1294 2753 
L 1863 2753 
Q 2328 2753 2575 2939 
Q 2822 3125 2822 3475 
Q 2822 3834 2567 4026 
Q 2313 4219 1838 4219 
Q 1578 4219 1281 4162 
Q 984 4106 628 3988 
L 628 4550 
Q 988 4650 1302 4700 
Q 1616 4750 1894 4750 
Q 2613 4750 3031 4423 
Q 3450 4097 3450 3541 
Q 3450 3153 3228 2886 
Q 3006 2619 2597 2516 
z
" transform="scale(0.015625)"/>
       </defs>
       <use xlink:href="#DejaVuSans-33"/>
       <use xlink:href="#DejaVuSans-30" transform="translate(63.623047 0)"/>
       <use xlink:href="#DejaVuSans-30" transform="translate(127.246094 0)"/>
      </g>
     </g>
    </g>
    <g id="ytick_5">
     <g id="line2d_23">
      <path d="M 48.90125 232.923146 
L 848.35125 232.923146 
" clip-path="url(#p25142c9dca)" style="fill: none; stroke: #30363d; stroke-opacity: 0.25; stroke-width: 0.5; stroke-linecap: square"/>
     </g>
     <g id="line2d_24">
      <g>
       <use xlink:href="#m910213d834" x="48.90125" y="232.923146" style="fill: #c9d1d9; stroke: #c9d1d9; stroke-width: 0.8"/>
      </g>
     </g>
     <g id="text_13">
      <!-- 400 -->
      <g style="fill: #c9d1d9" transform="translate(22.81375 236.722365) scale(0.1 -0.1)">
       <defs>
        <path id="DejaVuSans-34" d="M 2419 4116 
L 825 1625 
L 2419 1625 
L 2419 4116 
z
M 2253 4666 
L 3047 4666 
L 3047 1625 
L 3713 1625 
L 3713 1100 
L 3047 1100 
L 3047 0 
L 2419 0 
L 2419 1100 
L 313 1100 
L 313 1709 
L 2253 4666 
z
" transform="scale(0.015625)"/>
       </defs>
       <use xlink:href="#DejaVuSans-34"/>
       <use xlink:href="#DejaVuSans-30" transform="translate(63.623047 0)"/>
       <use xlink:href="#DejaVuSans-30" transform="translate(127.246094 0)"/>
      </g>
     </g>
    </g>
    <g id="ytick_6">
     <g id="line2d_25">
      <path d="M 48.90125 177.344479 
L 848.35125 177.344479 
" clip-path="url(#p25142c9dca)" style="fill: none; stroke: #30363d; stroke-opacity: 0.25; stroke-width: 0.5; stroke-linecap: square"/>
     </g>
     <g id="line2d_26">
      <g>
       <use xlink:href="#m910213d834" x="48.90125" y="177.344479" style="fill: #c9d1d9; stroke: #c9d1d9; stroke-width: 0.8"/>
      </g>
     </g>
     <g id="text_14">
      <!-- 500 -->
      <g style="fill: #c9d1d9" transform="translate(22.81375 181.143698) scale(0.1 -0.1)">
       <defs>
        <path id="DejaVuSans-35" d="M 691 4666 
L 3169 4666 
L 3169 4134 
L 1269 4134 
L 1269 2991 
Q 1406 3038 1543 3061 
Q 1681 3084 1819 3084 
Q 2600 3084 3056 2656 
Q 3513 2228 3513 1497 
Q 3513 744 3044 326 
Q 2575 -91 1722 -91 
Q 1428 -91 1123 -41 
Q 819 9 494 109 
L 494 744 
Q 775 591 1075 516 
Q 1375 441 1709 441 
Q 2250 441 2565 725 
Q 2881 1009 2881 1497 
Q 2881 1984 2565 2268 
Q 2250 2553 1709 2553 
Q 1456 2553 1204 2497 
Q 953 2441 691 2322 
L 691 4666 
z
" transform="scale(0.015625)"/>
       </defs>
       <use xlink:href="#DejaVuSans-35"/>
       <use xlink:href="#DejaVuSans-30" transform="translate(63.623047 0)"/>
       <use xlink:href="#DejaVuSans-30" transform="translate(127.246094 0)"/>
      </g>
     </g>
    </g>
    <g id="ytick_7">
     <g id="line2d_27">
      <path d="M 48.90125 121.765812 
L 848.35125 121.765812 
" clip-path="url(#p25142c9dca)" style="fill: none; stroke: #30363d; stroke-opacity: 0.25; stroke-width: 0.5; stroke-linecap: square"/>
     </g>
     <g id="line2d_28">
      <g>
       <use xlink:href="#m910213d834" x="48.90125" y="121.765812" style="fill: #c9d1d9; stroke: #c9d1d9; stroke-width: 0.8"/>
      </g>
     </g>
     <g id="text_15">
      <!-- 600 -->
      <g style="fill: #c9d1d9" transform="translate(22.81375 125.565031) scale(0.1 -0.1)">
       <use xlink:href="#DejaVuSans-36"/>
       <use xlink:href="#DejaVuSans-30" transform="translate(63.623047 0)"/>
       <use xlink:href="#DejaVuSans-30" transform="translate(127.246094 0)"/>
      </g>
     </g>
    </g>
    <g id="ytick_8">
     <g id="line2d_29">
      <path d="M 48.90125 66.187146 
L 848.35125 66.187146 
" clip-path="url(#p25142c9dca)" style="fill: none; stroke: #30363d; stroke-opacity: 0.25; stroke-width: 0.5; stroke-linecap: square"/>
     </g>
     <g id="line2d_30">
      <g>
       <use xlink:href="#m910213d834" x="48.90125" y="66.187146" style="fill: #c9d1d9; stroke: #c9d1d9; stroke-width: 0.8"/>
      </g>
     </g>
     <g id="text_16">
      <!-- 700 -->
      <g style="fill: #c9d1d9" transform="translate(22.81375 69.986365) scale(0.1 -0.1)">
       <defs>
        <path id="DejaVuSans-37" d="M 525 4666 
L 3525 4666 
L 3525 4397 
L 1831 0 
L 1172 0 
L 2766 4134 
L 525 4134 
L 525 4666 
z
" transform="scale(0.015625)"/>
       </defs>
       <use xlink:href="#DejaVuSans-37"/>
       <use xlink:href="#DejaVuSans-30" transform="translate(63.623047 0)"/>
       <use xlink:href="#DejaVuSans-30" transform="translate(127.246094 0)"/>
      </g>
     </g>
    </g>
    <g id="text_17">
     <!-- Count -->
     <g style="fill: #c9d1d9" transform="translate(16.318125 264.635937) rotate(-90) scale(0.12 -0.12)">
      <defs>
       <path id="DejaVuSans-43" d="M 4122 4306 
L 4122 3641 
Q 3803 3938 3442 4084 
Q 3081 4231 2675 4231 
Q 1875 4231 1450 3742 
Q 1025 3253 1025 2328 
Q 1025 1406 1450 917 
Q 1875 428 2675 428 
Q 3081 428 3442 575 
Q 3803 722 4122 1019 
L 4122 359 
Q 3791 134 3420 21 
Q 3050 -91 2638 -91 
Q 1578 -91 968 557 
Q 359 1206 359 2328 
Q 359 3453 968 4101 
Q 1578 4750 2638 4750 
Q 3056 4750 3426 4639 
Q 3797 4528 4122 4306 
z
" transform="scale(0.015625)"/>
       <path id="DejaVuSans-75" d="M 544 1381 
L 544 3500 
L 1119 3500 
L 1119 1403 
Q 1119 906 1312 657 
Q 1506 409 1894 409 
Q 2359 409 2629 706 
Q 2900 1003 2900 1516 
L 2900 3500 
L 3475 3500 
L 3475 0 
L 2900 0 
L 2900 538 
Q 2691 219 2414 64 
Q 2138 -91 1772 -91 
Q 1169 -91 856 284 
Q 544 659 544 1381 
z
M 1991 3584 
L 1991 3584 
z
" transform="scale(0.015625)"/>
       <path id="DejaVuSans-6e" d="M 3513 2113 
L 3513 0 
L 2938 0 
L 2938 2094 
Q 2938 2591 2744 2837 
Q 2550 3084 2163 3084 
Q 1697 3084 1428 2787 
Q 1159 2491 1159 1978 
L 1159 0 
L 581 0 
L 581 3500 
L 1159 3500 
L 1159 2956 
Q 1366 3272 1645 3428 
Q 1925 3584 2291 3584 
Q 2894 3584 3203 3211 
Q 3513 2838 3513 2113 
z
" transform="scale(0.015625)"/>
      </defs>
      <use xlink:href="#DejaVuSans-43"/>
      <use xlink:href="#DejaVuSans-6f" transform="translate(69.824219 0)"/>
      <use xlink:href="#DejaVuSans-75" transform="translate(131.005859 0)"/>
      <use xlink:href="#DejaVuSans-6e" transform="translate(194.384766 0)"/>
      <use xlink:href="#DejaVuSans-74" transform="translate(257.763672 0)"/>
     </g>
    </g>
   </g>
   <g id="line2d_31">
    <path d="M 85.239886 454.682026 
L 85.315583 454.682026 
L 85.363609 454.126239 
L 85.601128 454.126239 
L 85.708567 257.933546 
L 89.037634 257.933546 
L 89.052179 261.268266 
L 92.903532 261.268266 
L 93.089916 260.712479 
L 93.624598 260.712479 
L 94.057923 260.156692 
L 96.742993 259.600906 
L 96.796004 260.156692 
L 96.924712 259.600906 
L 105.239581 259.600906 
L 110.255799 260.712479 
L 111.002157 259.600906 
L 111.54713 259.600906 
L 112.920653 259.045119 
L 113.49531 256.821972 
L 114.614253 256.821972 
L 116.244826 260.712479 
L 116.350619 256.821972 
L 117.601837 256.266186 
L 120.85818 256.266186 
L 121.717101 255.710399 
L 122.992927 255.710399 
L 123.334913 254.598826 
L 131.287167 254.598826 
L 131.867176 253.487252 
L 131.896906 252.375679 
L 134.401035 252.375679 
L 138.093493 251.264106 
L 140.030467 251.264106 
L 140.059786 250.708319 
L 144.508116 250.708319 
L 145.6116 247.929386 
L 149.103861 247.929386 
L 149.128102 247.373599 
L 168.686513 247.373599 
L 172.342472 246.817812 
L 172.467292 247.373599 
L 176.259002 246.817812 
L 189.453834 246.817812 
L 195.849201 246.262026 
L 195.97274 245.706239 
L 196.276535 245.150452 
L 199.884377 245.150452 
L 201.419905 244.594666 
L 207.752245 244.594666 
L 207.992645 247.373599 
L 208.004446 245.150452 
L 208.312311 245.150452 
L 209.84107 242.927306 
L 217.32597 242.927306 
L 223.06243 242.371519 
L 229.438129 242.371519 
L 229.717911 241.815732 
L 246.285124 241.815732 
L 246.992193 241.259946 
L 251.014928 241.259946 
L 251.043286 240.148372 
L 258.70803 240.148372 
L 258.863494 236.257866 
L 272.73626 236.257866 
L 272.740423 235.702079 
L 273.142188 235.702079 
L 274.573616 235.146292 
L 276.667564 235.146292 
L 277.232707 234.590506 
L 277.28924 235.146292 
L 278.583361 234.590506 
L 278.589262 234.034719 
L 278.619495 234.590506 
L 279.367042 234.034719 
L 286.176707 234.034719 
L 288.29389 233.478932 
L 290.806116 233.478932 
L 295.073094 232.923146 
L 299.112569 232.923146 
L 302.23348 231.811572 
L 309.063407 231.811572 
L 313.036425 230.699999 
L 314.155825 231.255786 
L 319.701099 231.255786 
L 325.956415 229.032639 
L 335.28544 229.032639 
L 338.178712 228.476852 
L 389.740256 228.476852 
L 390.156658 227.921066 
L 408.959974 227.921066 
L 409.274151 227.365279 
L 441.269829 227.365279 
L 448.315183 226.809492 
L 448.355936 227.365279 
L 453.399368 225.697919 
L 460.800888 225.697919 
L 464.842375 225.142132 
L 464.849007 224.586346 
L 473.281607 224.586346 
L 476.30816 225.142132 
L 477.396138 224.586346 
L 491.508528 224.586346 
L 492.109118 225.142132 
L 493.209309 224.586346 
L 493.587382 222.363199 
L 500.05465 222.363199 
L 500.06023 221.807412 
L 519.849939 221.807412 
L 521.002363 221.251626 
L 524.8056 221.251626 
L 525.176629 220.695839 
L 543.722484 220.695839 
L 543.747686 220.140052 
L 548.386288 220.140052 
L 548.393194 219.584266 
L 549.518769 219.584266 
L 549.577543 219.028479 
L 551.325435 219.028479 
L 551.600048 218.472692 
L 555.34108 218.472692 
L 555.909745 217.361119 
L 557.969207 215.137972 
L 562.949337 215.137972 
L 563.317028 212.359039 
L 564.986981 212.359039 
L 565.806567 211.247466 
L 570.029864 211.247466 
L 571.415645 210.691679 
L 575.382442 210.691679 
L 575.914105 210.135892 
L 586.68828 210.135892 
L 586.953745 209.580106 
L 587.950247 209.580106 
L 589.497347 209.024319 
L 606.923847 209.024319 
L 607.080409 208.468532 
L 607.639149 208.468532 
L 608.805569 207.356959 
L 610.440898 207.356959 
L 610.834111 206.801172 
L 611.212962 206.801172 
L 611.356718 206.245386 
L 615.730037 206.245386 
L 616.474566 205.689599 
L 620.281187 205.689599 
L 620.525247 205.133812 
L 622.610368 205.133812 
L 622.74397 204.578026 
L 629.224044 204.578026 
L 629.363363 204.022239 
L 633.142632 204.022239 
L 634.197085 202.354879 
L 634.40492 201.799092 
L 635.804422 201.799092 
L 635.805886 201.243306 
L 641.48842 201.243306 
L 642.523068 200.687519 
L 646.881248 200.687519 
L 647.738247 200.131732 
L 648.060611 200.131732 
L 648.897989 199.575946 
L 651.03699 199.575946 
L 651.284206 199.020159 
L 656.648813 199.020159 
L 658.031621 198.464372 
L 658.132336 197.908586 
L 658.580024 197.908586 
L 659.993065 195.685439 
L 664.375303 195.685439 
L 664.406862 195.129652 
L 668.577469 195.129652 
L 668.819974 194.573866 
L 669.449014 194.573866 
L 669.925928 194.018079 
L 670.025409 194.573866 
L 670.382534 194.018079 
L 671.969198 194.018079 
L 671.984383 193.462292 
L 672.405725 193.462292 
L 672.590233 192.906506 
L 673.865145 192.350719 
L 682.73546 192.350719 
L 684.121881 191.794932 
L 685.049958 191.794932 
L 685.802903 191.239146 
L 686.564584 191.794932 
L 689.700727 191.794932 
L 689.835975 190.683359 
L 694.338139 190.683359 
L 696.084979 189.015999 
L 715.045681 189.015999 
L 716.147655 188.460212 
L 745.414537 188.460212 
L 745.465306 187.904426 
L 788.598962 187.904426 
L 788.78841 187.348639 
L 788.801995 186.792852 
L 788.815487 187.348639 
L 795.083336 187.348639 
L 796.498526 186.792852 
L 812.012614 186.792852 
L 812.012614 186.792852 
" clip-path="url(#p25142c9dca)" style="fill: none; stroke: #3fb950; stroke-width: 2; stroke-linecap: square"/>
   </g>
   <g id="line2d_32">
    <path d="M 85.239886 455.237812 
L 85.363609 453.570452 
L 85.498217 453.570452 
L 85.601128 372.981386 
L 87.467207 372.981386 
L 87.505582 370.758239 
L 89.4292 370.758239 
L 89.924821 369.090879 
L 90.599188 370.758239 
L 90.604173 369.090879 
L 91.162181 369.090879 
L 91.377838 367.979306 
L 96.888441 367.979306 
L 96.893701 367.423519 
L 96.924712 367.979306 
L 97.19594 367.423519 
L 97.27548 367.979306 
L 97.487614 367.423519 
L 99.421386 367.423519 
L 99.52256 366.867732 
L 99.798133 366.311946 
L 101.981454 366.311946 
L 104.466053 365.756159 
L 104.553505 365.200372 
L 105.225036 364.644586 
L 105.239581 364.088799 
L 110.255799 367.979306 
L 111.002157 366.311946 
L 111.54713 363.533012 
L 114.614253 363.533012 
L 116.244826 367.979306 
L 116.350619 363.533012 
L 146.146464 363.533012 
L 147.060774 362.977226 
L 149.128102 362.977226 
L 154.774321 362.421439 
L 156.149673 361.865652 
L 175.746275 361.865652 
L 176.259002 361.309866 
L 178.893258 360.754079 
L 180.567556 360.754079 
L 182.423436 360.198292 
L 182.473428 359.086719 
L 183.749163 358.530932 
L 184.606574 357.975146 
L 196.418507 357.975146 
L 198.773118 357.419359 
L 199.484944 357.419359 
L 199.884377 356.863572 
L 201.419905 356.863572 
L 202.945417 356.307786 
L 207.752245 356.307786 
L 207.992645 358.530932 
L 208.004446 356.307786 
L 209.84107 356.307786 
L 210.025441 355.751999 
L 212.625118 355.751999 
L 215.182853 355.196212 
L 215.24492 354.640426 
L 223.06243 354.640426 
L 226.359755 354.084639 
L 226.368079 353.528852 
L 237.34053 353.528852 
L 241.917568 352.973066 
L 245.351513 352.973066 
L 246.285124 352.417279 
L 251.526786 352.417279 
L 254.516429 351.861492 
L 254.680309 351.305706 
L 257.595078 351.305706 
L 257.933359 350.749919 
L 258.863494 350.194132 
L 260.939879 350.194132 
L 262.250832 349.638346 
L 264.654429 349.638346 
L 266.223163 349.082559 
L 269.569748 349.082559 
L 270.709868 347.970986 
L 279.367042 347.970986 
L 281.832523 347.415199 
L 284.723554 347.415199 
L 285.375508 346.859412 
L 285.574882 346.303626 
L 286.176707 345.747839 
L 296.132303 345.747839 
L 297.955068 345.192052 
L 299.112569 344.636266 
L 327.422466 344.636266 
L 333.777355 344.080479 
L 333.85328 343.524692 
L 338.178712 343.524692 
L 341.875744 342.968906 
L 348.410201 342.968906 
L 348.962354 342.413119 
L 360.090819 342.413119 
L 368.802239 341.857332 
L 368.885849 341.301546 
L 370.024734 341.301546 
L 372.332189 340.745759 
L 372.460896 339.078399 
L 372.562436 338.522612 
L 377.382299 337.966826 
L 377.670908 337.411039 
L 377.78594 336.299466 
L 378.222467 335.743679 
L 393.906792 335.743679 
L 398.362441 335.187892 
L 401.198768 334.632106 
L 403.420738 334.632106 
L 408.57257 334.076319 
L 408.959974 331.853172 
L 409.274151 331.853172 
L 409.575566 331.297386 
L 410.014883 330.741599 
L 419.786839 330.185812 
L 420.09786 329.630026 
L 420.189611 329.074239 
L 422.254104 329.074239 
L 424.20361 328.518452 
L 424.427682 327.962666 
L 424.579854 326.851092 
L 425.87027 326.295306 
L 425.964995 325.739519 
L 428.319423 325.183732 
L 431.414263 324.627946 
L 431.634356 324.072159 
L 431.639022 323.516372 
L 432.261521 322.960586 
L 432.371476 322.404799 
L 436.105647 321.849012 
L 436.860833 321.849012 
L 437.665646 321.293226 
L 456.565058 321.293226 
L 459.699234 320.737439 
L 459.984458 320.181652 
L 472.793578 320.181652 
L 473.281607 319.070079 
L 478.618496 319.070079 
L 480.229767 318.514292 
L 480.308483 317.402719 
L 480.722232 316.846932 
L 483.461915 316.291146 
L 483.523616 315.735359 
L 483.854304 315.179572 
L 483.914176 313.512212 
L 484.19318 312.956426 
L 484.570658 312.956426 
L 484.584563 312.400639 
L 486.87171 311.844852 
L 487.77088 311.289066 
L 487.988458 310.733279 
L 492.109118 310.177492 
L 495.145871 310.177492 
L 496.200369 309.621706 
L 507.617808 309.621706 
L 511.400325 309.065919 
L 511.415373 308.510132 
L 512.09564 307.954346 
L 521.002363 307.954346 
L 523.501416 307.398559 
L 524.530895 306.842772 
L 524.8056 305.731199 
L 532.010215 305.731199 
L 532.501079 305.175412 
L 536.457356 305.175412 
L 538.351428 304.619626 
L 543.747686 304.619626 
L 547.009974 304.063839 
L 553.784695 304.063839 
L 554.617362 303.508052 
L 557.969207 303.508052 
L 558.88155 302.952266 
L 559.277324 302.396479 
L 559.472261 301.840692 
L 562.231336 301.840692 
L 562.309777 300.729119 
L 563.317028 300.729119 
L 563.978359 299.061759 
L 566.378388 299.061759 
L 566.676465 298.505972 
L 566.907855 298.505972 
L 568.05662 297.950186 
L 569.962949 297.950186 
L 570.029864 297.394399 
L 571.415645 297.394399 
L 571.752234 296.838612 
L 573.054725 296.838612 
L 575.048964 295.727039 
L 575.914105 295.727039 
L 579.260095 294.615466 
L 579.265126 294.059679 
L 579.903954 293.503892 
L 581.533886 292.948106 
L 581.787323 292.392319 
L 583.412407 291.836532 
L 586.068891 291.836532 
L 586.460686 291.280746 
L 586.68828 290.724959 
L 590.193577 290.724959 
L 590.285556 290.169172 
L 591.208557 290.169172 
L 591.279405 289.613386 
L 591.785912 289.057599 
L 593.548303 289.057599 
L 593.682362 288.501812 
L 593.984281 288.501812 
L 594.059292 287.946026 
L 594.181001 287.946026 
L 594.185118 287.390239 
L 596.663405 287.390239 
L 597.154178 286.834452 
L 597.566281 286.834452 
L 597.812582 286.278666 
L 598.441576 286.278666 
L 598.912498 285.722879 
L 599.011796 285.167092 
L 599.146404 285.167092 
L 601.513684 284.611306 
L 603.285177 284.611306 
L 603.419282 284.055519 
L 610.407372 284.055519 
L 610.440898 283.499732 
L 610.834111 283.499732 
L 611.212962 282.943946 
L 611.356718 282.943946 
L 611.616512 282.388159 
L 614.119544 282.388159 
L 614.272264 281.276586 
L 614.402252 279.609226 
L 614.814767 279.053439 
L 616.474566 279.053439 
L 617.257378 278.497652 
L 618.016132 278.497652 
L 618.260787 277.941866 
L 619.436949 277.386079 
L 620.525247 277.386079 
L 622.713142 276.830292 
L 622.74397 276.274506 
L 623.412573 276.274506 
L 623.523397 275.718719 
L 625.468329 275.718719 
L 625.522346 275.162932 
L 634.954558 275.162932 
L 635.025589 274.607146 
L 635.380885 274.607146 
L 635.505293 273.495572 
L 636.71983 273.495572 
L 636.817801 272.939786 
L 636.978297 272.939786 
L 637.819517 272.383999 
L 638.030966 271.828212 
L 638.417318 271.828212 
L 638.744256 271.272426 
L 638.850826 270.716639 
L 643.590281 270.716639 
L 644.786568 270.160852 
L 645.022852 269.049279 
L 645.314023 268.493492 
L 645.800084 268.493492 
L 646.096332 267.937706 
L 652.897992 267.937706 
L 653.16826 266.270346 
L 654.276364 266.270346 
L 654.412801 265.714559 
L 658.044382 265.714559 
L 658.132336 264.602986 
L 662.494038 264.602986 
L 662.539228 264.047199 
L 664.640357 264.047199 
L 664.65449 263.491412 
L 665.677657 263.491412 
L 665.705329 262.935626 
L 668.819974 262.935626 
L 668.97489 262.379839 
L 669.172251 262.379839 
L 669.449014 261.824052 
L 670.010818 261.824052 
L 670.025409 261.268266 
L 670.382534 261.268266 
L 671.063807 260.712479 
L 676.566498 260.712479 
L 676.966434 260.156692 
L 678.599157 260.156692 
L 678.602175 259.600906 
L 691.085364 259.600906 
L 693.204102 259.045119 
L 693.265529 258.489332 
L 694.338139 257.933546 
L 695.969124 257.933546 
L 696.084979 256.821972 
L 696.379992 256.821972 
L 696.476408 256.266186 
L 700.834405 256.266186 
L 701.616623 255.710399 
L 709.109161 255.710399 
L 709.132213 255.154612 
L 711.579353 255.154612 
L 712.625161 254.598826 
L 724.143179 254.598826 
L 724.286934 253.487252 
L 728.81677 253.487252 
L 729.71777 252.931466 
L 730.682621 252.931466 
L 731.862122 252.375679 
L 739.658638 252.375679 
L 740.405225 251.819892 
L 741.052149 251.819892 
L 741.369344 251.264106 
L 743.853029 250.708319 
L 745.068846 250.708319 
L 745.465306 250.152532 
L 745.594334 250.152532 
L 749.083668 249.596746 
L 755.508216 249.596746 
L 756.010972 249.040959 
L 780.807981 249.040959 
L 781.714012 248.485172 
L 787.448368 248.485172 
L 787.655608 247.929386 
L 788.028102 247.929386 
L 788.140389 247.373599 
L 812.012614 247.373599 
L 812.012614 247.373599 
" clip-path="url(#p25142c9dca)" style="fill: none; stroke: #58a6ff; stroke-width: 2; stroke-linecap: square"/>
   </g>
   <g id="line2d_33">
    <path d="M 85.239886 455.237812 
L 89.037634 455.237812 
L 89.052179 454.126239 
L 92.187452 454.126239 
L 92.903532 453.570452 
L 286.176707 453.570452 
L 288.29389 453.014666 
L 341.875744 453.014666 
L 343.362744 452.458879 
L 393.906792 452.458879 
L 398.362441 451.903092 
L 410.014883 451.903092 
L 420.189611 450.235732 
L 422.254104 449.124159 
L 425.964995 449.124159 
L 428.319423 448.568372 
L 431.639022 448.012586 
L 432.371476 448.012586 
L 436.105647 447.456799 
L 436.860833 447.456799 
L 437.665646 446.901012 
L 441.269829 446.345226 
L 448.315183 445.789439 
L 448.355936 446.345226 
L 459.984458 446.345226 
L 460.800888 445.789439 
L 477.396138 445.789439 
L 478.618496 445.233652 
L 484.19318 445.233652 
L 484.584563 444.677866 
L 491.508528 444.677866 
L 492.109118 444.122079 
L 517.474014 444.122079 
L 519.849939 443.566292 
L 520.848499 443.566292 
L 521.002363 443.010506 
L 527.772053 443.010506 
L 527.778502 442.454719 
L 543.722484 442.454719 
L 543.747686 441.898932 
L 548.393194 441.898932 
L 549.577543 441.343146 
L 551.32237 440.787359 
L 551.325435 440.231572 
L 551.600048 440.231572 
L 553.784695 438.564212 
L 555.256373 438.564212 
L 555.34108 436.896852 
L 555.909745 436.896852 
L 557.969207 437.452639 
L 559.450306 437.452639 
L 559.472261 435.229492 
L 564.986981 435.229492 
L 565.806567 434.673706 
L 566.676465 434.673706 
L 566.907855 434.117919 
L 586.68828 434.117919 
L 586.953745 433.562132 
L 587.950247 433.562132 
L 589.497347 433.006346 
L 596.322929 433.006346 
L 596.663405 432.450559 
L 599.011796 432.450559 
L 599.146404 431.894772 
L 606.923847 431.894772 
L 607.080409 431.338986 
L 607.639149 431.338986 
L 608.205848 430.783199 
L 608.771997 430.783199 
L 608.805569 430.227412 
L 611.212962 430.227412 
L 611.356718 429.671626 
L 622.532841 429.671626 
L 622.610368 429.115839 
L 622.74397 429.115839 
L 622.858681 428.560052 
L 623.523397 428.560052 
L 624.916862 428.004266 
L 630.364713 428.004266 
L 630.369515 427.448479 
L 631.410475 427.448479 
L 631.450084 426.892692 
L 634.40492 426.892692 
L 635.025589 426.336906 
L 638.963342 426.336906 
L 640.105429 425.781119 
L 642.32653 425.781119 
L 642.350085 424.669546 
L 642.530203 424.669546 
L 642.756882 424.113759 
L 646.329918 424.113759 
L 646.881248 423.557972 
L 647.738247 423.557972 
L 648.060611 423.002186 
L 650.15241 423.002186 
L 650.444495 422.446399 
L 650.448246 421.890612 
L 651.03699 421.890612 
L 651.284206 421.334826 
L 673.817302 421.334826 
L 673.865145 420.223252 
L 676.966434 420.223252 
L 677.859019 419.667466 
L 678.602175 419.667466 
L 682.088399 419.111679 
L 682.73546 419.111679 
L 684.121881 418.555892 
L 685.049958 418.555892 
L 685.802903 418.000106 
L 686.564584 418.555892 
L 689.016572 418.555892 
L 689.683346 418.000106 
L 689.786806 417.444319 
L 689.835975 416.888532 
L 691.076994 416.332746 
L 691.085364 415.221172 
L 696.502799 415.221172 
L 697.68756 414.665386 
L 697.807623 412.998026 
L 698.991789 412.442239 
L 699.646671 411.886452 
L 705.2477 411.886452 
L 705.485356 410.219092 
L 705.771038 410.219092 
L 705.982853 409.663306 
L 707.35171 409.107519 
L 709.506399 409.107519 
L 709.95029 408.551732 
L 710.05128 407.995946 
L 710.277776 407.995946 
L 711.579353 406.884372 
L 712.97387 406.884372 
L 713.431757 406.328586 
L 715.040375 406.328586 
L 715.045681 405.217012 
L 716.147655 405.217012 
L 717.610597 404.661226 
L 721.48642 403.549652 
L 721.832431 402.993866 
L 729.71777 402.993866 
L 730.682621 401.882292 
L 745.414537 401.882292 
L 745.594334 400.770719 
L 752.764966 400.770719 
L 753.860583 400.214932 
L 757.18535 400.214932 
L 757.371963 399.659146 
L 777.826297 399.659146 
L 778.152777 399.103359 
L 780.178804 399.103359 
L 780.807981 398.547572 
L 784.589171 398.547572 
L 785.300311 397.991786 
L 785.304977 397.435999 
L 786.118296 396.880212 
L 788.598962 396.880212 
L 788.78841 396.324426 
L 788.801995 395.212852 
L 788.815487 395.768639 
L 790.482468 395.212852 
L 796.498526 395.212852 
L 797.685208 394.101279 
L 808.540066 394.101279 
L 809.379319 393.545492 
L 812.012614 393.545492 
L 812.012614 393.545492 
" clip-path="url(#p25142c9dca)" style="fill: none; stroke: #d29922; stroke-width: 2; stroke-linecap: square"/>
   </g>
   <g id="line2d_34">
    <path d="M 85.239886 454.682026 
L 85.56472 454.682026 
L 85.708567 432.450559 
L 86.460323 426.892692 
L 86.889898 425.781119 
L 87.107841 426.336906 
L 87.505582 425.781119 
L 88.178256 425.225332 
L 88.64497 424.113759 
L 89.037634 423.557972 
L 89.052179 423.002186 
L 89.4292 421.334826 
L 89.924821 421.334826 
L 90.599188 420.779039 
L 90.604173 420.223252 
L 91.147133 419.667466 
L 91.162181 419.111679 
L 91.377838 419.111679 
L 92.187452 418.555892 
L 92.765905 418.000106 
L 92.903532 411.886452 
L 92.998714 412.442239 
L 93.231431 408.551732 
L 93.624598 402.993866 
L 96.893701 402.993866 
L 96.924712 402.438079 
L 97.19594 399.659146 
L 97.27548 402.438079 
L 97.643994 397.991786 
L 97.82649 397.435999 
L 99.186154 396.880212 
L 99.227181 396.324426 
L 99.52256 395.768639 
L 99.798133 395.768639 
L 100.498342 395.212852 
L 100.87239 394.657066 
L 101.024973 394.101279 
L 101.144854 392.989706 
L 101.494295 392.433919 
L 101.502939 391.878132 
L 101.854393 392.433919 
L 101.954423 391.878132 
L 101.966726 392.433919 
L 101.981454 390.766559 
L 105.239581 390.766559 
L 110.255799 402.993866 
L 111.002157 390.210772 
L 111.391162 389.654986 
L 113.49531 389.654986 
L 113.851657 389.099199 
L 114.614253 388.543412 
L 116.244826 402.993866 
L 116.350619 387.987626 
L 117.601837 387.431839 
L 120.277577 386.876052 
L 120.468398 387.431839 
L 120.81825 386.320266 
L 120.85818 385.764479 
L 121.717101 385.764479 
L 121.978084 385.208692 
L 122.471006 384.652906 
L 122.511896 383.541332 
L 122.966581 382.429759 
L 122.992927 382.985546 
L 123.263378 382.985546 
L 123.411661 381.873972 
L 123.86813 379.650826 
L 123.928139 378.539252 
L 124.513773 376.871892 
L 124.800004 377.983466 
L 126.823835 374.648746 
L 127.356733 375.760319 
L 129.549796 373.537172 
L 131.287167 377.427679 
L 131.896906 373.537172 
L 134.401035 371.869812 
L 138.093493 371.869812 
L 138.581156 371.314026 
L 138.969246 369.646666 
L 140.059786 371.314026 
L 144.508116 371.869812 
L 145.6116 369.646666 
L 146.146464 367.979306 
L 147.060774 369.646666 
L 149.128102 367.979306 
L 156.149673 367.979306 
L 163.532897 367.423519 
L 164.025271 366.867732 
L 168.686513 366.311946 
L 171.76873 366.311946 
L 172.342472 365.756159 
L 172.467292 366.311946 
L 175.746275 364.644586 
L 178.82186 364.644586 
L 178.893258 364.088799 
L 180.567556 363.533012 
L 184.606574 363.533012 
L 186.388266 359.642506 
L 187.714359 359.086719 
L 189.42072 358.530932 
L 189.453834 357.975146 
L 195.849201 357.975146 
L 195.97274 354.084639 
L 196.209436 354.084639 
L 196.418507 352.973066 
L 198.773118 352.973066 
L 199.484944 352.417279 
L 202.945417 352.417279 
L 207.752245 351.861492 
L 207.992645 363.533012 
L 208.004446 352.417279 
L 208.312311 351.861492 
L 210.025441 351.861492 
L 212.625118 351.305706 
L 215.24492 351.305706 
L 217.32597 350.749919 
L 223.06243 349.638346 
L 226.368079 349.638346 
L 229.024746 349.082559 
L 229.438129 346.303626 
L 229.717911 346.303626 
L 230.212983 345.747839 
L 232.795325 345.192052 
L 233.392257 342.968906 
L 236.961267 341.857332 
L 237.004261 342.413119 
L 237.34053 341.857332 
L 241.917568 340.745759 
L 245.351513 340.189972 
L 246.992193 340.189972 
L 248.446399 339.634186 
L 249.706628 338.522612 
L 251.043286 337.966826 
L 251.526786 337.411039 
L 254.680309 337.966826 
L 257.595078 336.855252 
L 257.933359 337.411039 
L 258.70803 337.411039 
L 258.863494 336.855252 
L 260.939879 336.299466 
L 262.250832 336.855252 
L 264.654429 335.743679 
L 266.223163 335.743679 
L 269.569748 335.187892 
L 270.124691 335.743679 
L 270.709868 334.076319 
L 272.740423 334.076319 
L 273.142188 333.520532 
L 274.573616 331.853172 
L 274.890675 331.297386 
L 275.384695 330.185812 
L 276.667564 330.741599 
L 277.232707 329.630026 
L 277.28924 329.074239 
L 281.832523 329.074239 
L 284.133575 328.518452 
L 284.723554 327.962666 
L 288.29389 327.962666 
L 290.806116 327.406879 
L 295.073094 327.406879 
L 296.132303 326.851092 
L 307.865748 326.851092 
L 308.539611 326.295306 
L 308.607121 325.739519 
L 309.063407 325.183732 
L 314.155825 325.183732 
L 314.473204 324.627946 
L 315.768834 324.072159 
L 315.993227 323.516372 
L 318.13982 322.960586 
L 319.701099 322.404799 
L 325.956415 322.404799 
L 327.422466 321.293226 
L 333.85328 321.293226 
L 335.28544 320.737439 
L 341.278721 320.737439 
L 341.875744 320.181652 
L 343.362744 319.625866 
L 343.8054 319.070079 
L 343.955696 318.514292 
L 348.410201 317.958506 
L 348.962354 318.514292 
L 354.826424 317.402719 
L 359.462877 316.291146 
L 360.090819 315.735359 
L 368.885849 315.735359 
L 370.024734 315.179572 
L 378.222467 315.179572 
L 385.944566 314.623786 
L 386.915866 314.067999 
L 390.156658 313.512212 
L 393.406597 312.956426 
L 393.906792 312.400639 
L 401.198768 312.400639 
L 403.420738 311.844852 
L 420.189611 311.844852 
L 422.254104 311.289066 
L 436.105647 311.289066 
L 436.860833 310.733279 
L 437.665646 311.289066 
L 441.269829 310.733279 
L 453.399368 310.733279 
L 455.024818 310.177492 
L 480.684361 310.177492 
L 480.722232 309.621706 
L 496.569569 309.621706 
L 500.051311 309.065919 
L 500.06023 308.510132 
L 517.466284 308.510132 
L 517.474014 307.398559 
L 527.778502 307.398559 
L 532.501079 306.842772 
L 538.351428 306.842772 
L 543.747686 305.731199 
L 554.617362 305.731199 
L 555.256373 305.175412 
L 555.34108 304.619626 
L 559.450306 304.619626 
L 559.472261 304.063839 
L 559.898954 304.063839 
L 560.579129 303.508052 
L 566.676465 303.508052 
L 566.907855 302.952266 
L 575.048964 302.952266 
L 575.382442 302.396479 
L 595.26436 302.396479 
L 596.32142 300.729119 
L 596.322929 300.173332 
L 599.13968 300.173332 
L 599.146404 299.617546 
L 607.454824 299.617546 
L 607.639149 299.061759 
L 611.616512 299.061759 
L 611.759398 298.505972 
L 626.535085 298.505972 
L 626.819212 297.950186 
L 630.248858 297.950186 
L 630.369515 297.394399 
L 631.450084 296.838612 
L 658.580024 296.838612 
L 659.993065 295.727039 
L 662.10819 295.727039 
L 662.539228 295.171252 
L 664.65449 295.171252 
L 664.967981 294.615466 
L 669.965675 294.615466 
L 670.025409 294.059679 
L 697.685227 294.059679 
L 697.68756 293.503892 
L 697.804925 293.503892 
L 697.807623 292.948106 
L 732.381298 292.948106 
L 733.279234 292.392319 
L 792.309899 292.392319 
L 794.911954 291.836532 
L 812.012614 291.836532 
L 812.012614 291.836532 
" clip-path="url(#p25142c9dca)" style="fill: none; stroke: #f85149; stroke-width: 2; stroke-linecap: square"/>
   </g>
   <g id="line2d_35">
    <path d="M 85.239886 454.682026 
L 85.265729 454.126239 
L 85.469474 -1 
M 85.652599 -1 
L 85.708567 101.201706 
L 89.037634 101.201706 
L 89.052179 97.866986 
L 92.903532 97.866986 
L 93.089916 98.422772 
L 93.624598 98.422772 
L 94.057923 98.978559 
L 96.742993 99.534346 
L 96.796004 98.978559 
L 96.924712 99.534346 
L 105.239581 99.534346 
L 110.255799 98.422772 
L 111.002157 99.534346 
L 111.391162 98.978559 
L 111.54713 98.978559 
L 112.920653 99.534346 
L 113.49531 96.755412 
L 114.614253 96.755412 
L 116.244826 98.422772 
L 116.350619 95.643839 
L 117.601837 96.199626 
L 120.85818 96.199626 
L 121.717101 95.088052 
L 122.992927 95.088052 
L 123.334913 91.197546 
L 131.287167 91.197546 
L 131.867176 87.862826 
L 131.896906 86.751252 
L 134.401035 86.751252 
L 138.093493 82.860746 
L 140.030467 82.860746 
L 140.059786 83.416532 
L 144.508116 83.416532 
L 145.6116 80.081812 
L 149.103861 80.081812 
L 149.128102 80.637599 
L 168.686513 80.637599 
L 172.342472 81.193386 
L 172.467292 80.637599 
L 176.259002 81.193386 
L 189.453834 81.193386 
L 195.849201 81.749172 
L 195.97274 74.523946 
L 196.276535 75.079732 
L 199.884377 75.079732 
L 201.419905 75.635519 
L 207.752245 75.635519 
L 207.992645 80.637599 
L 208.004446 71.745012 
L 208.312311 71.745012 
L 209.84107 73.968159 
L 217.32597 73.968159 
L 223.06243 70.077652 
L 229.438129 70.077652 
L 229.717911 68.410292 
L 246.285124 68.410292 
L 246.992193 68.966079 
L 251.014928 68.966079 
L 251.043286 70.077652 
L 258.70803 70.077652 
L 258.863494 73.412372 
L 270.709868 73.412372 
L 270.992805 68.410292 
L 272.73626 67.298719 
L 272.740423 67.854506 
L 273.142188 67.854506 
L 274.573616 65.075572 
L 276.667564 65.075572 
L 277.232707 65.631359 
L 277.28924 65.075572 
L 278.583361 65.631359 
L 278.589262 66.187146 
L 278.619495 65.631359 
L 279.367042 63.408212 
L 286.176707 63.408212 
L 288.29389 63.963999 
L 290.806116 63.963999 
L 295.073094 64.519786 
L 299.112569 64.519786 
L 302.23348 65.631359 
L 308.607121 65.075572 
L 309.063407 65.075572 
L 313.036425 66.187146 
L 314.155825 65.631359 
L 319.701099 65.631359 
L 325.95303 67.854506 
L 325.956415 67.298719 
L 335.28544 67.298719 
L 338.178712 67.854506 
L 389.740256 67.854506 
L 390.156658 68.410292 
L 393.383408 68.410292 
L 393.406597 66.742932 
L 408.959974 66.742932 
L 409.274151 67.298719 
L 441.269829 67.298719 
L 448.315183 67.854506 
L 448.355936 67.298719 
L 453.399368 68.966079 
L 455.024818 68.966079 
L 456.565058 68.410292 
L 460.800888 68.410292 
L 464.842375 68.966079 
L 464.849007 69.521866 
L 476.30816 67.854506 
L 477.396138 68.410292 
L 491.508528 68.410292 
L 492.109118 67.854506 
L 493.209309 68.410292 
L 493.587382 70.633439 
L 500.05465 70.633439 
L 500.06023 71.189226 
L 519.849939 71.189226 
L 521.002363 71.745012 
L 524.8056 71.745012 
L 525.176629 72.300799 
L 543.722484 72.300799 
L 543.747686 72.856586 
L 547.009974 72.856586 
L 548.386288 73.412372 
L 548.393194 73.968159 
L 549.518769 73.412372 
L 549.577543 73.968159 
L 551.325435 73.968159 
L 551.600048 74.523946 
L 555.256373 74.523946 
L 555.34108 73.412372 
L 555.909745 74.523946 
L 557.969207 72.856586 
L 562.949337 72.856586 
L 563.317028 71.189226 
L 564.986981 71.189226 
L 565.806567 72.300799 
L 570.029864 72.300799 
L 571.415645 72.856586 
L 571.752234 72.856586 
L 573.054725 70.077652 
L 575.382442 70.077652 
L 575.914105 70.633439 
L 586.68828 70.633439 
L 586.953745 71.189226 
L 587.950247 71.189226 
L 589.497347 71.745012 
L 606.923847 71.745012 
L 607.080409 72.300799 
L 607.639149 72.300799 
L 608.805569 73.412372 
L 610.440898 73.412372 
L 610.834111 72.856586 
L 611.212962 72.856586 
L 611.356718 73.412372 
L 615.730037 73.412372 
L 616.474566 73.968159 
L 620.281187 73.968159 
L 620.525247 74.523946 
L 622.610368 74.523946 
L 622.74397 75.079732 
L 629.224044 75.079732 
L 629.363363 75.635519 
L 633.142632 75.635519 
L 634.197085 77.302879 
L 634.40492 77.858666 
L 635.804422 77.858666 
L 635.805886 78.414452 
L 641.48842 78.414452 
L 642.523068 78.970239 
L 646.881248 78.970239 
L 647.738247 79.526026 
L 651.03699 79.526026 
L 651.284206 80.081812 
L 656.648813 80.081812 
L 658.031621 80.637599 
L 658.132336 81.193386 
L 658.580024 81.193386 
L 659.993065 60.629279 
L 664.375303 60.629279 
L 664.406862 61.185066 
L 664.65449 61.185066 
L 664.967981 60.629279 
L 668.577469 60.629279 
L 668.819974 61.185066 
L 669.449014 61.185066 
L 669.925928 61.740852 
L 670.025409 61.185066 
L 671.969198 61.185066 
L 671.984383 61.740852 
L 672.405725 61.740852 
L 672.590233 62.296639 
L 673.865145 62.852426 
L 682.73546 62.852426 
L 684.121881 63.408212 
L 685.049958 63.408212 
L 685.802903 63.963999 
L 686.564584 63.408212 
L 689.700727 63.408212 
L 689.835975 64.519786 
L 694.338139 64.519786 
L 696.084979 66.187146 
L 715.045681 66.187146 
L 716.147655 66.742932 
L 745.414537 66.742932 
L 745.465306 67.298719 
L 788.598962 67.298719 
L 788.78841 67.854506 
L 788.801995 68.410292 
L 788.815487 67.854506 
L 795.083336 67.854506 
L 796.498526 68.410292 
L 812.012614 68.410292 
L 812.012614 68.410292 
" clip-path="url(#p25142c9dca)" style="fill: none; stroke: #9467bd; stroke-width: 2; stroke-linecap: square"/>
   </g>
   <g id="patch_3">
    <path d="M 48.90125 455.237812 
L 48.90125 38.397812 
" style="fill: none; stroke: #30363d; stroke-width: 0.8; stroke-linejoin: miter; stroke-linecap: square"/>
   </g>
   <g id="patch_4">
    <path d="M 848.35125 455.237812 
L 848.35125 38.397812 
" style="fill: none; stroke: #30363d; stroke-width: 0.8; stroke-linejoin: miter; stroke-linecap: square"/>
   </g>
   <g id="patch_5">
    <path d="M 48.90125 455.237812 
L 848.35125 455.237812 
" style="fill: none; stroke: #30363d; stroke-width: 0.8; stroke-linejoin: miter; stroke-linecap: square"/>
   </g>
   <g id="patch_6">
    <path d="M 48.90125 38.397812 
L 848.35125 38.397812 
" style="fill: none; stroke: #30363d; stroke-width: 0.8; stroke-linejoin: miter; stroke-linecap: square"/>
   </g>
   <g id="text_18">
    <!-- 483 -->
    <g style="fill: #3fb950" transform="translate(817.012614 189.27629) scale(0.09 -0.09)">
     <defs>
      <path id="DejaVuSans-Bold-34" d="M 2356 3675 
L 1038 1722 
L 2356 1722 
L 2356 3675 
z
M 2156 4666 
L 3494 4666 
L 3494 1722 
L 4159 1722 
L 4159 850 
L 3494 850 
L 3494 0 
L 2356 0 
L 2356 850 
L 288 850 
L 288 1881 
L 2156 4666 
z
" transform="scale(0.015625)"/>
      <path id="DejaVuSans-Bold-38" d="M 2228 2088 
Q 1891 2088 1709 1903 
Q 1528 1719 1528 1375 
Q 1528 1031 1709 848 
Q 1891 666 2228 666 
Q 2563 666 2741 848 
Q 2919 1031 2919 1375 
Q 2919 1722 2741 1905 
Q 2563 2088 2228 2088 
z
M 1350 2484 
Q 925 2613 709 2878 
Q 494 3144 494 3541 
Q 494 4131 934 4440 
Q 1375 4750 2228 4750 
Q 3075 4750 3515 4442 
Q 3956 4134 3956 3541 
Q 3956 3144 3739 2878 
Q 3522 2613 3097 2484 
Q 3572 2353 3814 2058 
Q 4056 1763 4056 1313 
Q 4056 619 3595 264 
Q 3134 -91 2228 -91 
Q 1319 -91 855 264 
Q 391 619 391 1313 
Q 391 1763 633 2058 
Q 875 2353 1350 2484 
z
M 1631 3419 
Q 1631 3141 1786 2991 
Q 1941 2841 2228 2841 
Q 2509 2841 2662 2991 
Q 2816 3141 2816 3419 
Q 2816 3697 2662 3845 
Q 2509 3994 2228 3994 
Q 1941 3994 1786 3844 
Q 1631 3694 1631 3419 
z
" transform="scale(0.015625)"/>
      <path id="DejaVuSans-Bold-33" d="M 2981 2516 
Q 3453 2394 3698 2092 
Q 3944 1791 3944 1325 
Q 3944 631 3412 270 
Q 2881 -91 1863 -91 
Q 1503 -91 1142 -33 
Q 781 25 428 141 
L 428 1069 
Q 766 900 1098 814 
Q 1431 728 1753 728 
Q 2231 728 2486 893 
Q 2741 1059 2741 1369 
Q 2741 1688 2480 1852 
Q 2219 2016 1709 2016 
L 1228 2016 
L 1228 2791 
L 1734 2791 
Q 2188 2791 2409 2933 
Q 2631 3075 2631 3366 
Q 2631 3634 2415 3781 
Q 2200 3928 1806 3928 
Q 1516 3928 1219 3862 
Q 922 3797 628 3669 
L 628 4550 
Q 984 4650 1334 4700 
Q 1684 4750 2022 4750 
Q 2931 4750 3382 4451 
Q 3834 4153 3834 3553 
Q 3834 3144 3618 2883 
Q 3403 2622 2981 2516 
z
" transform="scale(0.015625)"/>
     </defs>
     <use xlink:href="#DejaVuSans-Bold-34"/>
     <use xlink:href="#DejaVuSans-Bold-38" transform="translate(69.580078 0)"/>
     <use xlink:href="#DejaVuSans-Bold-33" transform="translate(139.160156 0)"/>
    </g>
   </g>
   <g id="text_19">
    <!-- 374 -->
    <g style="fill: #58a6ff" transform="translate(817.012614 249.857037) scale(0.09 -0.09)">
     <defs>
      <path id="DejaVuSans-Bold-37" d="M 428 4666 
L 3944 4666 
L 3944 3988 
L 2125 0 
L 953 0 
L 2675 3781 
L 428 3781 
L 428 4666 
z
" transform="scale(0.015625)"/>
     </defs>
     <use xlink:href="#DejaVuSans-Bold-33"/>
     <use xlink:href="#DejaVuSans-Bold-37" transform="translate(69.580078 0)"/>
     <use xlink:href="#DejaVuSans-Bold-34" transform="translate(139.160156 0)"/>
    </g>
   </g>
   <g id="text_20">
    <!-- 111 -->
    <g style="fill: #d29922" transform="translate(817.012614 396.02893) scale(0.09 -0.09)">
     <defs>
      <path id="DejaVuSans-Bold-31" d="M 750 831 
L 1813 831 
L 1813 3847 
L 722 3622 
L 722 4441 
L 1806 4666 
L 2950 4666 
L 2950 831 
L 4013 831 
L 4013 0 
L 750 0 
L 750 831 
z
" transform="scale(0.015625)"/>
     </defs>
     <use xlink:href="#DejaVuSans-Bold-31"/>
     <use xlink:href="#DejaVuSans-Bold-31" transform="translate(69.580078 0)"/>
     <use xlink:href="#DejaVuSans-Bold-31" transform="translate(139.160156 0)"/>
    </g>
   </g>
   <g id="text_21">
    <!-- 294 -->
    <g style="fill: #f85149" transform="translate(817.012614 294.31997) scale(0.09 -0.09)">
     <defs>
      <path id="DejaVuSans-Bold-32" d="M 1844 884 
L 3897 884 
L 3897 0 
L 506 0 
L 506 884 
L 2209 2388 
Q 2438 2594 2547 2791 
Q 2656 2988 2656 3200 
Q 2656 3528 2436 3728 
Q 2216 3928 1850 3928 
Q 1569 3928 1234 3808 
Q 900 3688 519 3450 
L 519 4475 
Q 925 4609 1322 4679 
Q 1719 4750 2100 4750 
Q 2938 4750 3402 4381 
Q 3866 4013 3866 3353 
Q 3866 2972 3669 2642 
Q 3472 2313 2841 1759 
L 1844 884 
z
" transform="scale(0.015625)"/>
      <path id="DejaVuSans-Bold-39" d="M 641 103 
L 641 966 
Q 928 831 1190 764 
Q 1453 697 1709 697 
Q 2247 697 2547 995 
Q 2847 1294 2900 1881 
Q 2688 1725 2447 1647 
Q 2206 1569 1925 1569 
Q 1209 1569 770 1986 
Q 331 2403 331 3084 
Q 331 3838 820 4291 
Q 1309 4744 2131 4744 
Q 3044 4744 3544 4128 
Q 4044 3513 4044 2388 
Q 4044 1231 3459 570 
Q 2875 -91 1856 -91 
Q 1528 -91 1228 -42 
Q 928 6 641 103 
z
M 2125 2350 
Q 2441 2350 2600 2554 
Q 2759 2759 2759 3169 
Q 2759 3575 2600 3781 
Q 2441 3988 2125 3988 
Q 1809 3988 1650 3781 
Q 1491 3575 1491 3169 
Q 1491 2759 1650 2554 
Q 1809 2350 2125 2350 
z
" transform="scale(0.015625)"/>
     </defs>
     <use xlink:href="#DejaVuSans-Bold-32"/>
     <use xlink:href="#DejaVuSans-Bold-39" transform="translate(69.580078 0)"/>
     <use xlink:href="#DejaVuSans-Bold-34" transform="translate(139.160156 0)"/>
    </g>
   </g>
   <g id="text_22">
    <!-- 696 -->
    <g style="fill: #9467bd" transform="translate(817.012614 70.89373) scale(0.09 -0.09)">
     <defs>
      <path id="DejaVuSans-Bold-36" d="M 2316 2303 
Q 2000 2303 1842 2098 
Q 1684 1894 1684 1484 
Q 1684 1075 1842 870 
Q 2000 666 2316 666 
Q 2634 666 2792 870 
Q 2950 1075 2950 1484 
Q 2950 1894 2792 2098 
Q 2634 2303 2316 2303 
z
M 3803 4544 
L 3803 3681 
Q 3506 3822 3243 3889 
Q 2981 3956 2731 3956 
Q 2194 3956 1894 3657 
Q 1594 3359 1544 2772 
Q 1750 2925 1990 3001 
Q 2231 3078 2516 3078 
Q 3231 3078 3670 2659 
Q 4109 2241 4109 1563 
Q 4109 813 3618 361 
Q 3128 -91 2303 -91 
Q 1394 -91 895 523 
Q 397 1138 397 2266 
Q 397 3422 980 4083 
Q 1563 4744 2578 4744 
Q 2900 4744 3203 4694 
Q 3506 4644 3803 4544 
z
" transform="scale(0.015625)"/>
     </defs>
     <use xlink:href="#DejaVuSans-Bold-36"/>
     <use xlink:href="#DejaVuSans-Bold-39" transform="translate(69.580078 0)"/>
     <use xlink:href="#DejaVuSans-Bold-36" transform="translate(139.160156 0)"/>
    </g>
   </g>
   <g id="text_23">
    <!-- Erdős Problems Progress -->
    <g style="fill: #c9d1d9" transform="translate(349.588281 18.397812) scale(0.14 -0.14)">
     <defs>
      <path id="DejaVuSans-Bold-45" d="M 588 4666 
L 3834 4666 
L 3834 3756 
L 1791 3756 
L 1791 2888 
L 3713 2888 
L 3713 1978 
L 1791 1978 
L 1791 909 
L 3903 909 
L 3903 0 
L 588 0 
L 588 4666 
z
" transform="scale(0.015625)"/>
      <path id="DejaVuSans-Bold-72" d="M 3138 2547 
Q 2991 2616 2845 2648 
Q 2700 2681 2553 2681 
Q 2122 2681 1889 2404 
Q 1656 2128 1656 1613 
L 1656 0 
L 538 0 
L 538 3500 
L 1656 3500 
L 1656 2925 
Q 1872 3269 2151 3426 
Q 2431 3584 2822 3584 
Q 2878 3584 2943 3579 
Q 3009 3575 3134 3559 
L 3138 2547 
z
" transform="scale(0.015625)"/>
      <path id="DejaVuSans-Bold-64" d="M 2919 2988 
L 2919 4863 
L 4044 4863 
L 4044 0 
L 2919 0 
L 2919 506 
Q 2688 197 2409 53 
Q 2131 -91 1766 -91 
Q 1119 -91 703 423 
Q 288 938 288 1747 
Q 288 2556 703 3070 
Q 1119 3584 1766 3584 
Q 2128 3584 2408 3439 
Q 2688 3294 2919 2988 
z
M 2181 722 
Q 2541 722 2730 984 
Q 2919 1247 2919 1747 
Q 2919 2247 2730 2509 
Q 2541 2772 2181 2772 
Q 1825 2772 1636 2509 
Q 1447 2247 1447 1747 
Q 1447 1247 1636 984 
Q 1825 722 2181 722 
z
" transform="scale(0.015625)"/>
      <path id="DejaVuSans-Bold-151" d="M 1881 5119 
L 2560 5119 
L 1785 3944 
L 1275 3944 
L 1881 5119 
z
M 3016 5119 
L 3738 5119 
L 2888 3944 
L 2344 3944 
L 3016 5119 
z
M 2203 2784 
Q 1831 2784 1636 2517 
Q 1441 2250 1441 1747 
Q 1441 1244 1636 976 
Q 1831 709 2203 709 
Q 2569 709 2762 976 
Q 2956 1244 2956 1747 
Q 2956 2250 2762 2517 
Q 2569 2784 2203 2784 
z
M 2203 3584 
Q 3106 3584 3614 3096 
Q 4122 2609 4122 1747 
Q 4122 884 3614 396 
Q 3106 -91 2203 -91 
Q 1297 -91 786 396 
Q 275 884 275 1747 
Q 275 2609 786 3096 
Q 1297 3584 2203 3584 
z
" transform="scale(0.015625)"/>
      <path id="DejaVuSans-Bold-73" d="M 3272 3391 
L 3272 2541 
Q 2913 2691 2578 2766 
Q 2244 2841 1947 2841 
Q 1628 2841 1473 2761 
Q 1319 2681 1319 2516 
Q 1319 2381 1436 2309 
Q 1553 2238 1856 2203 
L 2053 2175 
Q 2913 2066 3209 1816 
Q 3506 1566 3506 1031 
Q 3506 472 3093 190 
Q 2681 -91 1863 -91 
Q 1516 -91 1145 -36 
Q 775 19 384 128 
L 384 978 
Q 719 816 1070 734 
Q 1422 653 1784 653 
Q 2113 653 2278 743 
Q 2444 834 2444 1013 
Q 2444 1163 2330 1236 
Q 2216 1309 1875 1350 
L 1678 1375 
Q 931 1469 631 1722 
Q 331 1975 331 2491 
Q 331 3047 712 3315 
Q 1094 3584 1881 3584 
Q 2191 3584 2531 3537 
Q 2872 3491 3272 3391 
z
" transform="scale(0.015625)"/>
      <path id="DejaVuSans-Bold-20" transform="scale(0.015625)"/>
      <path id="DejaVuSans-Bold-50" d="M 588 4666 
L 2584 4666 
Q 3475 4666 3951 4270 
Q 4428 3875 4428 3144 
Q 4428 2409 3951 2014 
Q 3475 1619 2584 1619 
L 1791 1619 
L 1791 0 
L 588 0 
L 588 4666 
z
M 1791 3794 
L 1791 2491 
L 2456 2491 
Q 2806 2491 2997 2661 
Q 3188 2831 3188 3144 
Q 3188 3456 2997 3625 
Q 2806 3794 2456 3794 
L 1791 3794 
z
" transform="scale(0.015625)"/>
      <path id="DejaVuSans-Bold-6f" d="M 2203 2784 
Q 1831 2784 1636 2517 
Q 1441 2250 1441 1747 
Q 1441 1244 1636 976 
Q 1831 709 2203 709 
Q 2569 709 2762 976 
Q 2956 1244 2956 1747 
Q 2956 2250 2762 2517 
Q 2569 2784 2203 2784 
z
M 2203 3584 
Q 3106 3584 3614 3096 
Q 4122 2609 4122 1747 
Q 4122 884 3614 396 
Q 3106 -91 2203 -91 
Q 1297 -91 786 396 
Q 275 884 275 1747 
Q 275 2609 786 3096 
Q 1297 3584 2203 3584 
z
" transform="scale(0.015625)"/>
      <path id="DejaVuSans-Bold-62" d="M 2400 722 
Q 2759 722 2948 984 
Q 3138 1247 3138 1747 
Q 3138 2247 2948 2509 
Q 2759 2772 2400 2772 
Q 2041 2772 1848 2508 
Q 1656 2244 1656 1747 
Q 1656 1250 1848 986 
Q 2041 722 2400 722 
z
M 1656 2988 
Q 1888 3294 2169 3439 
Q 2450 3584 2816 3584 
Q 3463 3584 3878 3070 
Q 4294 2556 4294 1747 
Q 4294 938 3878 423 
Q 3463 -91 2816 -91 
Q 2450 -91 2169 54 
Q 1888 200 1656 506 
L 1656 0 
L 538 0 
L 538 4863 
L 1656 4863 
L 1656 2988 
z
" transform="scale(0.015625)"/>
      <path id="DejaVuSans-Bold-6c" d="M 538 4863 
L 1656 4863 
L 1656 0 
L 538 0 
L 538 4863 
z
" transform="scale(0.015625)"/>
      <path id="DejaVuSans-Bold-65" d="M 4031 1759 
L 4031 1441 
L 1416 1441 
Q 1456 1047 1700 850 
Q 1944 653 2381 653 
Q 2734 653 3104 758 
Q 3475 863 3866 1075 
L 3866 213 
Q 3469 63 3072 -14 
Q 2675 -91 2278 -91 
Q 1328 -91 801 392 
Q 275 875 275 1747 
Q 275 2603 792 3093 
Q 1309 3584 2216 3584 
Q 3041 3584 3536 3087 
Q 4031 2591 4031 1759 
z
M 2881 2131 
Q 2881 2450 2695 2645 
Q 2509 2841 2209 2841 
Q 1884 2841 1681 2658 
Q 1478 2475 1428 2131 
L 2881 2131 
z
" transform="scale(0.015625)"/>
      <path id="DejaVuSans-Bold-6d" d="M 3781 2919 
Q 3994 3244 4286 3414 
Q 4578 3584 4928 3584 
Q 5531 3584 5847 3212 
Q 6163 2841 6163 2131 
L 6163 0 
L 5038 0 
L 5038 1825 
Q 5041 1866 5042 1909 
Q 5044 1953 5044 2034 
Q 5044 2406 4934 2573 
Q 4825 2741 4581 2741 
Q 4263 2741 4089 2478 
Q 3916 2216 3909 1719 
L 3909 0 
L 2784 0 
L 2784 1825 
Q 2784 2406 2684 2573 
Q 2584 2741 2328 2741 
Q 2006 2741 1831 2477 
Q 1656 2213 1656 1722 
L 1656 0 
L 531 0 
L 531 3500 
L 1656 3500 
L 1656 2988 
Q 1863 3284 2130 3434 
Q 2397 3584 2719 3584 
Q 3081 3584 3359 3409 
Q 3638 3234 3781 2919 
z
" transform="scale(0.015625)"/>
      <path id="DejaVuSans-Bold-67" d="M 2919 594 
Q 2688 288 2409 144 
Q 2131 0 1766 0 
Q 1125 0 706 504 
Q 288 1009 288 1791 
Q 288 2575 706 3076 
Q 1125 3578 1766 3578 
Q 2131 3578 2409 3434 
Q 2688 3291 2919 2981 
L 2919 3500 
L 4044 3500 
L 4044 353 
Q 4044 -491 3511 -936 
Q 2978 -1381 1966 -1381 
Q 1638 -1381 1331 -1331 
Q 1025 -1281 716 -1178 
L 716 -306 
Q 1009 -475 1290 -558 
Q 1572 -641 1856 -641 
Q 2406 -641 2662 -400 
Q 2919 -159 2919 353 
L 2919 594 
z
M 2181 2772 
Q 1834 2772 1640 2515 
Q 1447 2259 1447 1791 
Q 1447 1309 1634 1061 
Q 1822 813 2181 813 
Q 2531 813 2725 1069 
Q 2919 1325 2919 1791 
Q 2919 2259 2725 2515 
Q 2531 2772 2181 2772 
z
" transform="scale(0.015625)"/>
     </defs>
     <use xlink:href="#DejaVuSans-Bold-45"/>
     <use xlink:href="#DejaVuSans-Bold-72" transform="translate(68.310547 0)"/>
     <use xlink:href="#DejaVuSans-Bold-64" transform="translate(117.626953 0)"/>
     <use xlink:href="#DejaVuSans-Bold-151" transform="translate(189.208984 0)"/>
     <use xlink:href="#DejaVuSans-Bold-73" transform="translate(257.910156 0)"/>
     <use xlink:href="#DejaVuSans-Bold-20" transform="translate(317.431641 0)"/>
     <use xlink:href="#DejaVuSans-Bold-50" transform="translate(352.246094 0)"/>
     <use xlink:href="#DejaVuSans-Bold-72" transform="translate(425.537109 0)"/>
     <use xlink:href="#DejaVuSans-Bold-6f" transform="translate(474.853516 0)"/>
     <use xlink:href="#DejaVuSans-Bold-62" transform="translate(543.554688 0)"/>
     <use xlink:href="#DejaVuSans-Bold-6c" transform="translate(615.136719 0)"/>
     <use xlink:href="#DejaVuSans-Bold-65" transform="translate(649.414062 0)"/>
     <use xlink:href="#DejaVuSans-Bold-6d" transform="translate(717.236328 0)"/>
     <use xlink:href="#DejaVuSans-Bold-73" transform="translate(821.435547 0)"/>
     <use xlink:href="#DejaVuSans-Bold-20" transform="translate(880.957031 0)"/>
     <use xlink:href="#DejaVuSans-Bold-50" transform="translate(915.771484 0)"/>
     <use xlink:href="#DejaVuSans-Bold-72" transform="translate(989.0625 0)"/>
     <use xlink:href="#DejaVuSans-Bold-6f" transform="translate(1038.378906 0)"/>
     <use xlink:href="#DejaVuSans-Bold-67" transform="translate(1107.080078 0)"/>
     <use xlink:href="#DejaVuSans-Bold-72" transform="translate(1178.662109 0)"/>
     <use xlink:href="#DejaVuSans-Bold-65" transform="translate(1227.978516 0)"/>
     <use xlink:href="#DejaVuSans-Bold-73" transform="translate(1295.800781 0)"/>
     <use xlink:href="#DejaVuSans-Bold-73" transform="translate(1355.322266 0)"/>
    </g>
   </g>
   <g id="legend_1">
    <g id="patch_7">
     <path d="M 55.90125 119.788437 
L 213.771563 119.788437 
Q 215.771563 119.788437 215.771563 117.788437 
L 215.771563 45.397812 
Q 215.771563 43.397812 213.771563 43.397812 
L 55.90125 43.397812 
Q 53.90125 43.397812 53.90125 45.397812 
L 53.90125 117.788437 
Q 53.90125 119.788437 55.90125 119.788437 
z
" style="fill: #161b22; opacity: 0.8; stroke: #30363d; stroke-linejoin: miter"/>
    </g>
    <g id="line2d_36">
     <path d="M 57.90125 51.49625 
L 67.90125 51.49625 
L 77.90125 51.49625 
" style="fill: none; stroke: #3fb950; stroke-width: 2; stroke-linecap: square"/>
    </g>
    <g id="text_24">
     <!-- Solved -->
     <g style="fill: #c9d1d9" transform="translate(85.90125 54.99625) scale(0.1 -0.1)">
      <defs>
       <path id="DejaVuSans-6c" d="M 603 4863 
L 1178 4863 
L 1178 0 
L 603 0 
L 603 4863 
z
" transform="scale(0.015625)"/>
       <path id="DejaVuSans-64" d="M 2906 2969 
L 2906 4863 
L 3481 4863 
L 3481 0 
L 2906 0 
L 2906 525 
Q 2725 213 2448 61 
Q 2172 -91 1784 -91 
Q 1150 -91 751 415 
Q 353 922 353 1747 
Q 353 2572 751 3078 
Q 1150 3584 1784 3584 
Q 2172 3584 2448 3432 
Q 2725 3281 2906 2969 
z
M 947 1747 
Q 947 1113 1208 752 
Q 1469 391 1925 391 
Q 2381 391 2643 752 
Q 2906 1113 2906 1747 
Q 2906 2381 2643 2742 
Q 2381 3103 1925 3103 
Q 1469 3103 1208 2742 
Q 947 2381 947 1747 
z
" transform="scale(0.015625)"/>
      </defs>
      <use xlink:href="#DejaVuSans-53"/>
      <use xlink:href="#DejaVuSans-6f" transform="translate(63.476562 0)"/>
      <use xlink:href="#DejaVuSans-6c" transform="translate(124.658203 0)"/>
      <use xlink:href="#DejaVuSans-76" transform="translate(152.441406 0)"/>
      <use xlink:href="#DejaVuSans-65" transform="translate(211.621094 0)"/>
      <use xlink:href="#DejaVuSans-64" transform="translate(273.144531 0)"/>
     </g>
    </g>
    <g id="line2d_37">
     <path d="M 57.90125 66.174375 
L 67.90125 66.174375 
L 77.90125 66.174375 
" style="fill: none; stroke: #58a6ff; stroke-width: 2; stroke-linecap: square"/>
    </g>
    <g id="text_25">
     <!-- Lean Formalized Problem -->
     <g style="fill: #c9d1d9" transform="translate(85.90125 69.674375) scale(0.1 -0.1)">
      <defs>
       <path id="DejaVuSans-4c" d="M 628 4666 
L 1259 4666 
L 1259 531 
L 3531 531 
L 3531 0 
L 628 0 
L 628 4666 
z
" transform="scale(0.015625)"/>
       <path id="DejaVuSans-20" transform="scale(0.015625)"/>
       <path id="DejaVuSans-6d" d="M 3328 2828 
Q 3544 3216 3844 3400 
Q 4144 3584 4550 3584 
Q 5097 3584 5394 3201 
Q 5691 2819 5691 2113 
L 5691 0 
L 5113 0 
L 5113 2094 
Q 5113 2597 4934 2840 
Q 4756 3084 4391 3084 
Q 3944 3084 3684 2787 
Q 3425 2491 3425 1978 
L 3425 0 
L 2847 0 
L 2847 2094 
Q 2847 2600 2669 2842 
Q 2491 3084 2119 3084 
Q 1678 3084 1418 2786 
Q 1159 2488 1159 1978 
L 1159 0 
L 581 0 
L 581 3500 
L 1159 3500 
L 1159 2956 
Q 1356 3278 1631 3431 
Q 1906 3584 2284 3584 
Q 2666 3584 2933 3390 
Q 3200 3197 3328 2828 
z
" transform="scale(0.015625)"/>
       <path id="DejaVuSans-69" d="M 603 3500 
L 1178 3500 
L 1178 0 
L 603 0 
L 603 3500 
z
M 603 4863 
L 1178 4863 
L 1178 4134 
L 603 4134 
L 603 4863 
z
" transform="scale(0.015625)"/>
       <path id="DejaVuSans-7a" d="M 353 3500 
L 3084 3500 
L 3084 2975 
L 922 459 
L 3084 459 
L 3084 0 
L 275 0 
L 275 525 
L 2438 3041 
L 353 3041 
L 353 3500 
z
" transform="scale(0.015625)"/>
       <path id="DejaVuSans-50" d="M 1259 4147 
L 1259 2394 
L 2053 2394 
Q 2494 2394 2734 2622 
Q 2975 2850 2975 3272 
Q 2975 3691 2734 3919 
Q 2494 4147 2053 4147 
L 1259 4147 
z
M 628 4666 
L 2053 4666 
Q 2838 4666 3239 4311 
Q 3641 3956 3641 3272 
Q 3641 2581 3239 2228 
Q 2838 1875 2053 1875 
L 1259 1875 
L 1259 0 
L 628 0 
L 628 4666 
z
" transform="scale(0.015625)"/>
      </defs>
      <use xlink:href="#DejaVuSans-4c"/>
      <use xlink:href="#DejaVuSans-65" transform="translate(53.962891 0)"/>
      <use xlink:href="#DejaVuSans-61" transform="translate(115.486328 0)"/>
      <use xlink:href="#DejaVuSans-6e" transform="translate(176.765625 0)"/>
      <use xlink:href="#DejaVuSans-20" transform="translate(240.144531 0)"/>
      <use xlink:href="#DejaVuSans-46" transform="translate(271.931641 0)"/>
      <use xlink:href="#DejaVuSans-6f" transform="translate(325.826172 0)"/>
      <use xlink:href="#DejaVuSans-72" transform="translate(387.007812 0)"/>
      <use xlink:href="#DejaVuSans-6d" transform="translate(426.371094 0)"/>
      <use xlink:href="#DejaVuSans-61" transform="translate(523.783203 0)"/>
      <use xlink:href="#DejaVuSans-6c" transform="translate(585.0625 0)"/>
      <use xlink:href="#DejaVuSans-69" transform="translate(612.845703 0)"/>
      <use xlink:href="#DejaVuSans-7a" transform="translate(640.628906 0)"/>
      <use xlink:href="#DejaVuSans-65" transform="translate(693.119141 0)"/>
      <use xlink:href="#DejaVuSans-64" transform="translate(754.642578 0)"/>
      <use xlink:href="#DejaVuSans-20" transform="translate(818.119141 0)"/>
      <use xlink:href="#DejaVuSans-50" transform="translate(849.90625 0)"/>
      <use xlink:href="#DejaVuSans-72" transform="translate(908.458984 0)"/>
      <use xlink:href="#DejaVuSans-6f" transform="translate(947.322266 0)"/>
      <use xlink:href="#DejaVuSans-62" transform="translate(1008.503906 0)"/>
      <use xlink:href="#DejaVuSans-6c" transform="translate(1071.980469 0)"/>
      <use xlink:href="#DejaVuSans-65" transform="translate(1099.763672 0)"/>
      <use xlink:href="#DejaVuSans-6d" transform="translate(1161.287109 0)"/>
     </g>
    </g>
    <g id="line2d_38">
     <path d="M 57.90125 80.8525 
L 67.90125 80.8525 
L 77.90125 80.8525 
" style="fill: none; stroke: #d29922; stroke-width: 2; stroke-linecap: square"/>
    </g>
    <g id="text_26">
     <!-- Lean Formalized Solution -->
     <g style="fill: #c9d1d9" transform="translate(85.90125 84.3525) scale(0.1 -0.1)">
      <use xlink:href="#DejaVuSans-4c"/>
      <use xlink:href="#DejaVuSans-65" transform="translate(53.962891 0)"/>
      <use xlink:href="#DejaVuSans-61" transform="translate(115.486328 0)"/>
      <use xlink:href="#DejaVuSans-6e" transform="translate(176.765625 0)"/>
      <use xlink:href="#DejaVuSans-20" transform="translate(240.144531 0)"/>
      <use xlink:href="#DejaVuSans-46" transform="translate(271.931641 0)"/>
      <use xlink:href="#DejaVuSans-6f" transform="translate(325.826172 0)"/>
      <use xlink:href="#DejaVuSans-72" transform="translate(387.007812 0)"/>
      <use xlink:href="#DejaVuSans-6d" transform="translate(426.371094 0)"/>
      <use xlink:href="#DejaVuSans-61" transform="translate(523.783203 0)"/>
      <use xlink:href="#DejaVuSans-6c" transform="translate(585.0625 0)"/>
      <use xlink:href="#DejaVuSans-69" transform="translate(612.845703 0)"/>
      <use xlink:href="#DejaVuSans-7a" transform="translate(640.628906 0)"/>
      <use xlink:href="#DejaVuSans-65" transform="translate(693.119141 0)"/>
      <use xlink:href="#DejaVuSans-64" transform="translate(754.642578 0)"/>
      <use xlink:href="#DejaVuSans-20" transform="translate(818.119141 0)"/>
      <use xlink:href="#DejaVuSans-53" transform="translate(849.90625 0)"/>
      <use xlink:href="#DejaVuSans-6f" transform="translate(913.382812 0)"/>
      <use xlink:href="#DejaVuSans-6c" transform="translate(974.564453 0)"/>
      <use xlink:href="#DejaVuSans-75" transform="translate(1002.347656 0)"/>
      <use xlink:href="#DejaVuSans-74" transform="translate(1065.726562 0)"/>
      <use xlink:href="#DejaVuSans-69" transform="translate(1104.935547 0)"/>
      <use xlink:href="#DejaVuSans-6f" transform="translate(1132.71875 0)"/>
      <use xlink:href="#DejaVuSans-6e" transform="translate(1193.900391 0)"/>
     </g>
    </g>
    <g id="line2d_39">
     <path d="M 57.90125 95.530625 
L 67.90125 95.530625 
L 77.90125 95.530625 
" style="fill: none; stroke: #f85149; stroke-width: 2; stroke-linecap: square"/>
    </g>
    <g id="text_27">
     <!-- OEIS Linked -->
     <g style="fill: #c9d1d9" transform="translate(85.90125 99.030625) scale(0.1 -0.1)">
      <defs>
       <path id="DejaVuSans-45" d="M 628 4666 
L 3578 4666 
L 3578 4134 
L 1259 4134 
L 1259 2753 
L 3481 2753 
L 3481 2222 
L 1259 2222 
L 1259 531 
L 3634 531 
L 3634 0 
L 628 0 
L 628 4666 
z
" transform="scale(0.015625)"/>
       <path id="DejaVuSans-49" d="M 628 4666 
L 1259 4666 
L 1259 0 
L 628 0 
L 628 4666 
z
" transform="scale(0.015625)"/>
       <path id="DejaVuSans-6b" d="M 581 4863 
L 1159 4863 
L 1159 1991 
L 2875 3500 
L 3609 3500 
L 1753 1863 
L 3688 0 
L 2938 0 
L 1159 1709 
L 1159 0 
L 581 0 
L 581 4863 
z
" transform="scale(0.015625)"/>
      </defs>
      <use xlink:href="#DejaVuSans-4f"/>
      <use xlink:href="#DejaVuSans-45" transform="translate(78.710938 0)"/>
      <use xlink:href="#DejaVuSans-49" transform="translate(141.894531 0)"/>
      <use xlink:href="#DejaVuSans-53" transform="translate(171.386719 0)"/>
      <use xlink:href="#DejaVuSans-20" transform="translate(234.863281 0)"/>
      <use xlink:href="#DejaVuSans-4c" transform="translate(266.650391 0)"/>
      <use xlink:href="#DejaVuSans-69" transform="translate(322.363281 0)"/>
      <use xlink:href="#DejaVuSans-6e" transform="translate(350.146484 0)"/>
      <use xlink:href="#DejaVuSans-6b" transform="translate(413.525391 0)"/>
      <use xlink:href="#DejaVuSans-65" transform="translate(467.810547 0)"/>
      <use xlink:href="#DejaVuSans-64" transform="translate(529.333984 0)"/>
     </g>
    </g>
    <g id="line2d_40">
     <path d="M 57.90125 110.20875 
L 67.90125 110.20875 
L 77.90125 110.20875 
" style="fill: none; stroke: #9467bd; stroke-width: 2; stroke-linecap: square"/>
    </g>
    <g id="text_28">
     <!-- Open Problems -->
     <g style="fill: #c9d1d9" transform="translate(85.90125 113.70875) scale(0.1 -0.1)">
      <defs>
       <path id="DejaVuSans-73" d="M 2834 3397 
L 2834 2853 
Q 2591 2978 2328 3040 
Q 2066 3103 1784 3103 
Q 1356 3103 1142 2972 
Q 928 2841 928 2578 
Q 928 2378 1081 2264 
Q 1234 2150 1697 2047 
L 1894 2003 
Q 2506 1872 2764 1633 
Q 3022 1394 3022 966 
Q 3022 478 2636 193 
Q 2250 -91 1575 -91 
Q 1294 -91 989 -36 
Q 684 19 347 128 
L 347 722 
Q 666 556 975 473 
Q 1284 391 1588 391 
Q 1994 391 2212 530 
Q 2431 669 2431 922 
Q 2431 1156 2273 1281 
Q 2116 1406 1581 1522 
L 1381 1569 
Q 847 1681 609 1914 
Q 372 2147 372 2553 
Q 372 3047 722 3315 
Q 1072 3584 1716 3584 
Q 2034 3584 2315 3537 
Q 2597 3491 2834 3397 
z
" transform="scale(0.015625)"/>
      </defs>
      <use xlink:href="#DejaVuSans-4f"/>
      <use xlink:href="#DejaVuSans-70" transform="translate(78.710938 0)"/>
      <use xlink:href="#DejaVuSans-65" transform="translate(142.1875 0)"/>
      <use xlink:href="#DejaVuSans-6e" transform="translate(203.710938 0)"/>
      <use xlink:href="#DejaVuSans-20" transform="translate(267.089844 0)"/>
      <use xlink:href="#DejaVuSans-50" transform="translate(298.876953 0)"/>
      <use xlink:href="#DejaVuSans-72" transform="translate(357.429688 0)"/>
      <use xlink:href="#DejaVuSans-6f" transform="translate(396.292969 0)"/>
      <use xlink:href="#DejaVuSans-62" transform="translate(457.474609 0)"/>
      <use xlink:href="#DejaVuSans-6c" transform="translate(520.951172 0)"/>
      <use xlink:href="#DejaVuSans-65" transform="translate(548.734375 0)"/>
      <use xlink:href="#DejaVuSans-6d" transform="translate(610.257812 0)"/>
      <use xlink:href="#DejaVuSans-73" transform="translate(707.669922 0)"/>
     </g>
    </g>
   </g>
  </g>
 </g>
 <defs>
  <clipPath id="p25142c9dca">
   <rect x="48.90125" y="38.397812" width="799.45" height="416.84"/>
  </clipPath>
 </defs>
</svg>
