<?xml version="1.0" encoding="utf-8" standalone="no"?>
<!DOCTYPE svg PUBLIC "-//W3C//DTD SVG 1.1//EN"
  "http://www.w3.org/Graphics/SVG/1.1/DTD/svg11.dtd">
<svg xmlns:xlink="http://www.w3.org/1999/xlink" width="855.55125pt" height="494.729687pt" viewBox="0 0 855.55125 494.729687" xmlns="http://www.w3.org/2000/svg" version="1.1">
 <metadata>
  <rdf:RDF xmlns:dc="http://purl.org/dc/elements/1.1/" xmlns:cc="http://creativecommons.org/ns#" xmlns:rdf="http://www.w3.org/1999/02/22-rdf-syntax-ns#">
   <cc:Work>
    <dc:type rdf:resource="http://purl.org/dc/dcmitype/StillImage"/>
    <dc:date>2026-04-01T19:48:54.194555</dc:date>
    <dc:format>image/svg+xml</dc:format>
    <dc:creator>
     <cc:Agent>
      <dc:title>Matplotlib v3.10.7, https://matplotlib.org/</dc:title>
     </cc:Agent>
    </dc:creator>
   </cc:Work>
  </rdf:RDF>
 </metadata>
 <defs>
  <style type="text/css">*{stroke-linejoin: round; stroke-linecap: butt}</style>
 </defs>
 <g id="figure_1">
  <g id="patch_1">
   <path d="M 0 494.729687 
L 855.55125 494.729687 
L 855.55125 0 
L 0 0 
z
" style="fill: #ffffff"/>
  </g>
  <g id="axes_1">
   <g id="patch_2">
    <path d="M 48.90125 455.237812 
L 848.35125 455.237812 
L 848.35125 38.397812 
L 48.90125 38.397812 
z
" style="fill: #ffffff"/>
   </g>
   <g id="matplotlib.axis_1">
    <g id="xtick_1">
     <g id="line2d_1">
      <path d="M 86.236814 455.237812 
L 86.236814 38.397812 
" clip-path="url(#pcac8832bd3)" style="fill: none; stroke: #d0d7de; stroke-opacity: 0.25; stroke-width: 0.5; stroke-linecap: square"/>
     </g>
     <g id="line2d_2">
      <defs>
       <path id="me759090c13" d="M 0 0 
L 0 3.5 
" style="stroke: #24292f; stroke-width: 0.8"/>
      </defs>
      <g>
       <use xlink:href="#me759090c13" x="86.236814" y="455.237812" style="fill: #24292f; stroke: #24292f; stroke-width: 0.8"/>
      </g>
     </g>
     <g id="text_1">
      <!-- Sep -->
      <g style="fill: #24292f" transform="translate(76.811814 469.83625) scale(0.1 -0.1)">
       <defs>
        <path id="DejaVuSans-53" d="M 3425 4513 
L 3425 3897 
Q 3066 4069 2747 4153 
Q 2428 4238 2131 4238 
Q 1616 4238 1336 4038 
Q 1056 3838 1056 3469 
Q 1056 3159 1242 3001 
Q 1428 2844 1947 2747 
L 2328 2669 
Q 3034 2534 3370 2195 
Q 3706 1856 3706 1288 
Q 3706 609 3251 259 
Q 2797 -91 1919 -91 
Q 1588 -91 1214 -16 
Q 841 59 441 206 
L 441 856 
Q 825 641 1194 531 
Q 1563 422 1919 422 
Q 2459 422 2753 634 
Q 3047 847 3047 1241 
Q 3047 1584 2836 1778 
Q 2625 1972 2144 2069 
L 1759 2144 
Q 1053 2284 737 2584 
Q 422 2884 422 3419 
Q 422 4038 858 4394 
Q 1294 4750 2059 4750 
Q 2388 4750 2728 4690 
Q 3069 4631 3425 4513 
z
" transform="scale(0.015625)"/>
        <path id="DejaVuSans-65" d="M 3597 1894 
L 3597 1613 
L 953 1613 
Q 991 1019 1311 708 
Q 1631 397 2203 397 
Q 2534 397 2845 478 
Q 3156 559 3463 722 
L 3463 178 
Q 3153 47 2828 -22 
Q 2503 -91 2169 -91 
Q 1331 -91 842 396 
Q 353 884 353 1716 
Q 353 2575 817 3079 
Q 1281 3584 2069 3584 
Q 2775 3584 3186 3129 
Q 3597 2675 3597 1894 
z
M 3022 2063 
Q 3016 2534 2758 2815 
Q 2500 3097 2075 3097 
Q 1594 3097 1305 2825 
Q 1016 2553 972 2059 
L 3022 2063 
z
" transform="scale(0.015625)"/>
        <path id="DejaVuSans-70" d="M 1159 525 
L 1159 -1331 
L 581 -1331 
L 581 3500 
L 1159 3500 
L 1159 2969 
Q 1341 3281 1617 3432 
Q 1894 3584 2278 3584 
Q 2916 3584 3314 3078 
Q 3713 2572 3713 1747 
Q 3713 922 3314 415 
Q 2916 -91 2278 -91 
Q 1894 -91 1617 61 
Q 1341 213 1159 525 
z
M 3116 1747 
Q 3116 2381 2855 2742 
Q 2594 3103 2138 3103 
Q 1681 3103 1420 2742 
Q 1159 2381 1159 1747 
Q 1159 1113 1420 752 
Q 1681 391 2138 391 
Q 2594 391 2855 752 
Q 3116 1113 3116 1747 
z
" transform="scale(0.015625)"/>
       </defs>
       <use xlink:href="#DejaVuSans-53"/>
       <use xlink:href="#DejaVuSans-65" transform="translate(63.476562 0)"/>
       <use xlink:href="#DejaVuSans-70" transform="translate(125 0)"/>
      </g>
     </g>
    </g>
    <g id="xtick_2">
     <g id="line2d_3">
      <path d="M 188.542512 455.237812 
L 188.542512 38.397812 
" clip-path="url(#pcac8832bd3)" style="fill: none; stroke: #d0d7de; stroke-opacity: 0.25; stroke-width: 0.5; stroke-linecap: square"/>
     </g>
     <g id="line2d_4">
      <g>
       <use xlink:href="#me759090c13" x="188.542512" y="455.237812" style="fill: #24292f; stroke: #24292f; stroke-width: 0.8"/>
      </g>
     </g>
     <g id="text_2">
      <!-- Oct -->
      <g style="fill: #24292f" transform="translate(179.897199 469.83625) scale(0.1 -0.1)">
       <defs>
        <path id="DejaVuSans-4f" d="M 2522 4238 
Q 1834 4238 1429 3725 
Q 1025 3213 1025 2328 
Q 1025 1447 1429 934 
Q 1834 422 2522 422 
Q 3209 422 3611 934 
Q 4013 1447 4013 2328 
Q 4013 3213 3611 3725 
Q 3209 4238 2522 4238 
z
M 2522 4750 
Q 3503 4750 4090 4092 
Q 4678 3434 4678 2328 
Q 4678 1225 4090 567 
Q 3503 -91 2522 -91 
Q 1538 -91 948 565 
Q 359 1222 359 2328 
Q 359 3434 948 4092 
Q 1538 4750 2522 4750 
z
" transform="scale(0.015625)"/>
        <path id="DejaVuSans-63" d="M 3122 3366 
L 3122 2828 
Q 2878 2963 2633 3030 
Q 2388 3097 2138 3097 
Q 1578 3097 1268 2742 
Q 959 2388 959 1747 
Q 959 1106 1268 751 
Q 1578 397 2138 397 
Q 2388 397 2633 464 
Q 2878 531 3122 666 
L 3122 134 
Q 2881 22 2623 -34 
Q 2366 -91 2075 -91 
Q 1284 -91 818 406 
Q 353 903 353 1747 
Q 353 2603 823 3093 
Q 1294 3584 2113 3584 
Q 2378 3584 2631 3529 
Q 2884 3475 3122 3366 
z
" transform="scale(0.015625)"/>
        <path id="DejaVuSans-74" d="M 1172 4494 
L 1172 3500 
L 2356 3500 
L 2356 3053 
L 1172 3053 
L 1172 1153 
Q 1172 725 1289 603 
Q 1406 481 1766 481 
L 2356 481 
L 2356 0 
L 1766 0 
Q 1100 0 847 248 
Q 594 497 594 1153 
L 594 3053 
L 172 3053 
L 172 3500 
L 594 3500 
L 594 4494 
L 1172 4494 
z
" transform="scale(0.015625)"/>
       </defs>
       <use xlink:href="#DejaVuSans-4f"/>
       <use xlink:href="#DejaVuSans-63" transform="translate(78.710938 0)"/>
       <use xlink:href="#DejaVuSans-74" transform="translate(133.691406 0)"/>
      </g>
     </g>
    </g>
    <g id="xtick_3">
     <g id="line2d_5">
      <path d="M 294.258399 455.237812 
L 294.258399 38.397812 
" clip-path="url(#pcac8832bd3)" style="fill: none; stroke: #d0d7de; stroke-opacity: 0.25; stroke-width: 0.5; stroke-linecap: square"/>
     </g>
     <g id="line2d_6">
      <g>
       <use xlink:href="#me759090c13" x="294.258399" y="455.237812" style="fill: #24292f; stroke: #24292f; stroke-width: 0.8"/>
      </g>
     </g>
     <g id="text_3">
      <!-- Nov -->
      <g style="fill: #24292f" transform="translate(284.499024 469.83625) scale(0.1 -0.1)">
       <defs>
        <path id="DejaVuSans-4e" d="M 628 4666 
L 1478 4666 
L 3547 763 
L 3547 4666 
L 4159 4666 
L 4159 0 
L 3309 0 
L 1241 3903 
L 1241 0 
L 628 0 
L 628 4666 
z
" transform="scale(0.015625)"/>
        <path id="DejaVuSans-6f" d="M 1959 3097 
Q 1497 3097 1228 2736 
Q 959 2375 959 1747 
Q 959 1119 1226 758 
Q 1494 397 1959 397 
Q 2419 397 2687 759 
Q 2956 1122 2956 1747 
Q 2956 2369 2687 2733 
Q 2419 3097 1959 3097 
z
M 1959 3584 
Q 2709 3584 3137 3096 
Q 3566 2609 3566 1747 
Q 3566 888 3137 398 
Q 2709 -91 1959 -91 
Q 1206 -91 779 398 
Q 353 888 353 1747 
Q 353 2609 779 3096 
Q 1206 3584 1959 3584 
z
" transform="scale(0.015625)"/>
        <path id="DejaVuSans-76" d="M 191 3500 
L 800 3500 
L 1894 563 
L 2988 3500 
L 3597 3500 
L 2284 0 
L 1503 0 
L 191 3500 
z
" transform="scale(0.015625)"/>
       </defs>
       <use xlink:href="#DejaVuSans-4e"/>
       <use xlink:href="#DejaVuSans-6f" transform="translate(74.804688 0)"/>
       <use xlink:href="#DejaVuSans-76" transform="translate(135.986328 0)"/>
      </g>
     </g>
    </g>
    <g id="xtick_4">
     <g id="line2d_7">
      <path d="M 396.564096 455.237812 
L 396.564096 38.397812 
" clip-path="url(#pcac8832bd3)" style="fill: none; stroke: #d0d7de; stroke-opacity: 0.25; stroke-width: 0.5; stroke-linecap: square"/>
     </g>
     <g id="line2d_8">
      <g>
       <use xlink:href="#me759090c13" x="396.564096" y="455.237812" style="fill: #24292f; stroke: #24292f; stroke-width: 0.8"/>
      </g>
     </g>
     <g id="text_4">
      <!-- Dec -->
      <g style="fill: #24292f" transform="translate(386.888315 469.83625) scale(0.1 -0.1)">
       <defs>
        <path id="DejaVuSans-44" d="M 1259 4147 
L 1259 519 
L 2022 519 
Q 2988 519 3436 956 
Q 3884 1394 3884 2338 
Q 3884 3275 3436 3711 
Q 2988 4147 2022 4147 
L 1259 4147 
z
M 628 4666 
L 1925 4666 
Q 3281 4666 3915 4102 
Q 4550 3538 4550 2338 
Q 4550 1131 3912 565 
Q 3275 0 1925 0 
L 628 0 
L 628 4666 
z
" transform="scale(0.015625)"/>
       </defs>
       <use xlink:href="#DejaVuSans-44"/>
       <use xlink:href="#DejaVuSans-65" transform="translate(77.001953 0)"/>
       <use xlink:href="#DejaVuSans-63" transform="translate(138.525391 0)"/>
      </g>
     </g>
    </g>
    <g id="xtick_5">
     <g id="line2d_9">
      <path d="M 502.279984 455.237812 
L 502.279984 38.397812 
" clip-path="url(#pcac8832bd3)" style="fill: none; stroke: #d0d7de; stroke-opacity: 0.25; stroke-width: 0.5; stroke-linecap: square"/>
     </g>
     <g id="line2d_10">
      <g>
       <use xlink:href="#me759090c13" x="502.279984" y="455.237812" style="fill: #24292f; stroke: #24292f; stroke-width: 0.8"/>
      </g>
     </g>
     <g id="text_5">
      <!-- 2026 -->
      <g style="fill: #24292f" transform="translate(489.554984 469.83625) scale(0.1 -0.1)">
       <defs>
        <path id="DejaVuSans-32" d="M 1228 531 
L 3431 531 
L 3431 0 
L 469 0 
L 469 531 
Q 828 903 1448 1529 
Q 2069 2156 2228 2338 
Q 2531 2678 2651 2914 
Q 2772 3150 2772 3378 
Q 2772 3750 2511 3984 
Q 2250 4219 1831 4219 
Q 1534 4219 1204 4116 
Q 875 4013 500 3803 
L 500 4441 
Q 881 4594 1212 4672 
Q 1544 4750 1819 4750 
Q 2544 4750 2975 4387 
Q 3406 4025 3406 3419 
Q 3406 3131 3298 2873 
Q 3191 2616 2906 2266 
Q 2828 2175 2409 1742 
Q 1991 1309 1228 531 
z
" transform="scale(0.015625)"/>
        <path id="DejaVuSans-30" d="M 2034 4250 
Q 1547 4250 1301 3770 
Q 1056 3291 1056 2328 
Q 1056 1369 1301 889 
Q 1547 409 2034 409 
Q 2525 409 2770 889 
Q 3016 1369 3016 2328 
Q 3016 3291 2770 3770 
Q 2525 4250 2034 4250 
z
M 2034 4750 
Q 2819 4750 3233 4129 
Q 3647 3509 3647 2328 
Q 3647 1150 3233 529 
Q 2819 -91 2034 -91 
Q 1250 -91 836 529 
Q 422 1150 422 2328 
Q 422 3509 836 4129 
Q 1250 4750 2034 4750 
z
" transform="scale(0.015625)"/>
        <path id="DejaVuSans-36" d="M 2113 2584 
Q 1688 2584 1439 2293 
Q 1191 2003 1191 1497 
Q 1191 994 1439 701 
Q 1688 409 2113 409 
Q 2538 409 2786 701 
Q 3034 994 3034 1497 
Q 3034 2003 2786 2293 
Q 2538 2584 2113 2584 
z
M 3366 4563 
L 3366 3988 
Q 3128 4100 2886 4159 
Q 2644 4219 2406 4219 
Q 1781 4219 1451 3797 
Q 1122 3375 1075 2522 
Q 1259 2794 1537 2939 
Q 1816 3084 2150 3084 
Q 2853 3084 3261 2657 
Q 3669 2231 3669 1497 
Q 3669 778 3244 343 
Q 2819 -91 2113 -91 
Q 1303 -91 875 529 
Q 447 1150 447 2328 
Q 447 3434 972 4092 
Q 1497 4750 2381 4750 
Q 2619 4750 2861 4703 
Q 3103 4656 3366 4563 
z
" transform="scale(0.015625)"/>
       </defs>
       <use xlink:href="#DejaVuSans-32"/>
       <use xlink:href="#DejaVuSans-30" transform="translate(63.623047 0)"/>
       <use xlink:href="#DejaVuSans-32" transform="translate(127.246094 0)"/>
       <use xlink:href="#DejaVuSans-36" transform="translate(190.869141 0)"/>
      </g>
     </g>
    </g>
    <g id="xtick_6">
     <g id="line2d_11">
      <path d="M 607.995871 455.237812 
L 607.995871 38.397812 
" clip-path="url(#pcac8832bd3)" style="fill: none; stroke: #d0d7de; stroke-opacity: 0.25; stroke-width: 0.5; stroke-linecap: square"/>
     </g>
     <g id="line2d_12">
      <g>
       <use xlink:href="#me759090c13" x="607.995871" y="455.237812" style="fill: #24292f; stroke: #24292f; stroke-width: 0.8"/>
      </g>
     </g>
     <g id="text_6">
      <!-- Feb -->
      <g style="fill: #24292f" transform="translate(599.144308 469.83625) scale(0.1 -0.1)">
       <defs>
        <path id="DejaVuSans-46" d="M 628 4666 
L 3309 4666 
L 3309 4134 
L 1259 4134 
L 1259 2759 
L 3109 2759 
L 3109 2228 
L 1259 2228 
L 1259 0 
L 628 0 
L 628 4666 
z
" transform="scale(0.015625)"/>
        <path id="DejaVuSans-62" d="M 3116 1747 
Q 3116 2381 2855 2742 
Q 2594 3103 2138 3103 
Q 1681 3103 1420 2742 
Q 1159 2381 1159 1747 
Q 1159 1113 1420 752 
Q 1681 391 2138 391 
Q 2594 391 2855 752 
Q 3116 1113 3116 1747 
z
M 1159 2969 
Q 1341 3281 1617 3432 
Q 1894 3584 2278 3584 
Q 2916 3584 3314 3078 
Q 3713 2572 3713 1747 
Q 3713 922 3314 415 
Q 2916 -91 2278 -91 
Q 1894 -91 1617 61 
Q 1341 213 1159 525 
L 1159 0 
L 581 0 
L 581 4863 
L 1159 4863 
L 1159 2969 
z
" transform="scale(0.015625)"/>
       </defs>
       <use xlink:href="#DejaVuSans-46"/>
       <use xlink:href="#DejaVuSans-65" transform="translate(52.019531 0)"/>
       <use xlink:href="#DejaVuSans-62" transform="translate(113.542969 0)"/>
      </g>
     </g>
    </g>
    <g id="xtick_7">
     <g id="line2d_13">
      <path d="M 703.481188 455.237812 
L 703.481188 38.397812 
" clip-path="url(#pcac8832bd3)" style="fill: none; stroke: #d0d7de; stroke-opacity: 0.25; stroke-width: 0.5; stroke-linecap: square"/>
     </g>
     <g id="line2d_14">
      <g>
       <use xlink:href="#me759090c13" x="703.481188" y="455.237812" style="fill: #24292f; stroke: #24292f; stroke-width: 0.8"/>
      </g>
     </g>
     <g id="text_7">
      <!-- Mar -->
      <g style="fill: #24292f" transform="translate(694.047595 469.83625) scale(0.1 -0.1)">
       <defs>
        <path id="DejaVuSans-4d" d="M 628 4666 
L 1569 4666 
L 2759 1491 
L 3956 4666 
L 4897 4666 
L 4897 0 
L 4281 0 
L 4281 4097 
L 3078 897 
L 2444 897 
L 1241 4097 
L 1241 0 
L 628 0 
L 628 4666 
z
" transform="scale(0.015625)"/>
        <path id="DejaVuSans-61" d="M 2194 1759 
Q 1497 1759 1228 1600 
Q 959 1441 959 1056 
Q 959 750 1161 570 
Q 1363 391 1709 391 
Q 2188 391 2477 730 
Q 2766 1069 2766 1631 
L 2766 1759 
L 2194 1759 
z
M 3341 1997 
L 3341 0 
L 2766 0 
L 2766 531 
Q 2569 213 2275 61 
Q 1981 -91 1556 -91 
Q 1019 -91 701 211 
Q 384 513 384 1019 
Q 384 1609 779 1909 
Q 1175 2209 1959 2209 
L 2766 2209 
L 2766 2266 
Q 2766 2663 2505 2880 
Q 2244 3097 1772 3097 
Q 1472 3097 1187 3025 
Q 903 2953 641 2809 
L 641 3341 
Q 956 3463 1253 3523 
Q 1550 3584 1831 3584 
Q 2591 3584 2966 3190 
Q 3341 2797 3341 1997 
z
" transform="scale(0.015625)"/>
        <path id="DejaVuSans-72" d="M 2631 2963 
Q 2534 3019 2420 3045 
Q 2306 3072 2169 3072 
Q 1681 3072 1420 2755 
Q 1159 2438 1159 1844 
L 1159 0 
L 581 0 
L 581 3500 
L 1159 3500 
L 1159 2956 
Q 1341 3275 1631 3429 
Q 1922 3584 2338 3584 
Q 2397 3584 2469 3576 
Q 2541 3569 2628 3553 
L 2631 2963 
z
" transform="scale(0.015625)"/>
       </defs>
       <use xlink:href="#DejaVuSans-4d"/>
       <use xlink:href="#DejaVuSans-61" transform="translate(86.279297 0)"/>
       <use xlink:href="#DejaVuSans-72" transform="translate(147.558594 0)"/>
      </g>
     </g>
    </g>
    <g id="xtick_8">
     <g id="line2d_15">
      <path d="M 809.197076 455.237812 
L 809.197076 38.397812 
" clip-path="url(#pcac8832bd3)" style="fill: none; stroke: #d0d7de; stroke-opacity: 0.25; stroke-width: 0.5; stroke-linecap: square"/>
     </g>
     <g id="line2d_16">
      <g>
       <use xlink:href="#me759090c13" x="809.197076" y="455.237812" style="fill: #24292f; stroke: #24292f; stroke-width: 0.8"/>
      </g>
     </g>
     <g id="text_8">
      <!-- Apr -->
      <g style="fill: #24292f" transform="translate(800.547076 469.83625) scale(0.1 -0.1)">
       <defs>
        <path id="DejaVuSans-41" d="M 2188 4044 
L 1331 1722 
L 3047 1722 
L 2188 4044 
z
M 1831 4666 
L 2547 4666 
L 4325 0 
L 3669 0 
L 3244 1197 
L 1141 1197 
L 716 0 
L 50 0 
L 1831 4666 
z
" transform="scale(0.015625)"/>
       </defs>
       <use xlink:href="#DejaVuSans-41"/>
       <use xlink:href="#DejaVuSans-70" transform="translate(68.408203 0)"/>
       <use xlink:href="#DejaVuSans-72" transform="translate(131.884766 0)"/>
      </g>
     </g>
    </g>
    <g id="text_9">
     <!-- Date -->
     <g style="fill: #24292f" transform="translate(434.285313 485.034062) scale(0.12 -0.12)">
      <use xlink:href="#DejaVuSans-44"/>
      <use xlink:href="#DejaVuSans-61" transform="translate(77.001953 0)"/>
      <use xlink:href="#DejaVuSans-74" transform="translate(138.28125 0)"/>
      <use xlink:href="#DejaVuSans-65" transform="translate(177.490234 0)"/>
     </g>
    </g>
   </g>
   <g id="matplotlib.axis_2">
    <g id="ytick_1">
     <g id="line2d_17">
      <path d="M 48.90125 455.237812 
L 848.35125 455.237812 
" clip-path="url(#pcac8832bd3)" style="fill: none; stroke: #d0d7de; stroke-opacity: 0.25; stroke-width: 0.5; stroke-linecap: square"/>
     </g>
     <g id="line2d_18">
      <defs>
       <path id="m91cf1422a0" d="M 0 0 
L -3.5 0 
" style="stroke: #24292f; stroke-width: 0.8"/>
      </defs>
      <g>
       <use xlink:href="#m91cf1422a0" x="48.90125" y="455.237812" style="fill: #24292f; stroke: #24292f; stroke-width: 0.8"/>
      </g>
     </g>
     <g id="text_10">
      <!-- 0 -->
      <g style="fill: #24292f" transform="translate(35.53875 459.037031) scale(0.1 -0.1)">
       <use xlink:href="#DejaVuSans-30"/>
      </g>
     </g>
    </g>
    <g id="ytick_2">
     <g id="line2d_19">
      <path d="M 48.90125 399.659146 
L 848.35125 399.659146 
" clip-path="url(#pcac8832bd3)" style="fill: none; stroke: #d0d7de; stroke-opacity: 0.25; stroke-width: 0.5; stroke-linecap: square"/>
     </g>
     <g id="line2d_20">
      <g>
       <use xlink:href="#m91cf1422a0" x="48.90125" y="399.659146" style="fill: #24292f; stroke: #24292f; stroke-width: 0.8"/>
      </g>
     </g>
     <g id="text_11">
      <!-- 100 -->
      <g style="fill: #24292f" transform="translate(22.81375 403.458365) scale(0.1 -0.1)">
       <defs>
        <path id="DejaVuSans-31" d="M 794 531 
L 1825 531 
L 1825 4091 
L 703 3866 
L 703 4441 
L 1819 4666 
L 2450 4666 
L 2450 531 
L 3481 531 
L 3481 0 
L 794 0 
L 794 531 
z
" transform="scale(0.015625)"/>
       </defs>
       <use xlink:href="#DejaVuSans-31"/>
       <use xlink:href="#DejaVuSans-30" transform="translate(63.623047 0)"/>
       <use xlink:href="#DejaVuSans-30" transform="translate(127.246094 0)"/>
      </g>
     </g>
    </g>
    <g id="ytick_3">
     <g id="line2d_21">
      <path d="M 48.90125 344.080479 
L 848.35125 344.080479 
" clip-path="url(#pcac8832bd3)" style="fill: none; stroke: #d0d7de; stroke-opacity: 0.25; stroke-width: 0.5; stroke-linecap: square"/>
     </g>
     <g id="line2d_22">
      <g>
       <use xlink:href="#m91cf1422a0" x="48.90125" y="344.080479" style="fill: #24292f; stroke: #24292f; stroke-width: 0.8"/>
      </g>
     </g>
     <g id="text_12">
      <!-- 200 -->
      <g style="fill: #24292f" transform="translate(22.81375 347.879698) scale(0.1 -0.1)">
       <use xlink:href="#DejaVuSans-32"/>
       <use xlink:href="#DejaVuSans-30" transform="translate(63.623047 0)"/>
       <use xlink:href="#DejaVuSans-30" transform="translate(127.246094 0)"/>
      </g>
     </g>
    </g>
    <g id="ytick_4">
     <g id="line2d_23">
      <path d="M 48.90125 288.501812 
L 848.35125 288.501812 
" clip-path="url(#pcac8832bd3)" style="fill: none; stroke: #d0d7de; stroke-opacity: 0.25; stroke-width: 0.5; stroke-linecap: square"/>
     </g>
     <g id="line2d_24">
      <g>
       <use xlink:href="#m91cf1422a0" x="48.90125" y="288.501812" style="fill: #24292f; stroke: #24292f; stroke-width: 0.8"/>
      </g>
     </g>
     <g id="text_13">
      <!-- 300 -->
      <g style="fill: #24292f" transform="translate(22.81375 292.301031) scale(0.1 -0.1)">
       <defs>
        <path id="DejaVuSans-33" d="M 2597 2516 
Q 3050 2419 3304 2112 
Q 3559 1806 3559 1356 
Q 3559 666 3084 287 
Q 2609 -91 1734 -91 
Q 1441 -91 1130 -33 
Q 819 25 488 141 
L 488 750 
Q 750 597 1062 519 
Q 1375 441 1716 441 
Q 2309 441 2620 675 
Q 2931 909 2931 1356 
Q 2931 1769 2642 2001 
Q 2353 2234 1838 2234 
L 1294 2234 
L 1294 2753 
L 1863 2753 
Q 2328 2753 2575 2939 
Q 2822 3125 2822 3475 
Q 2822 3834 2567 4026 
Q 2313 4219 1838 4219 
Q 1578 4219 1281 4162 
Q 984 4106 628 3988 
L 628 4550 
Q 988 4650 1302 4700 
Q 1616 4750 1894 4750 
Q 2613 4750 3031 4423 
Q 3450 4097 3450 3541 
Q 3450 3153 3228 2886 
Q 3006 2619 2597 2516 
z
" transform="scale(0.015625)"/>
       </defs>
       <use xlink:href="#DejaVuSans-33"/>
       <use xlink:href="#DejaVuSans-30" transform="translate(63.623047 0)"/>
       <use xlink:href="#DejaVuSans-30" transform="translate(127.246094 0)"/>
      </g>
     </g>
    </g>
    <g id="ytick_5">
     <g id="line2d_25">
      <path d="M 48.90125 232.923146 
L 848.35125 232.923146 
" clip-path="url(#pcac8832bd3)" style="fill: none; stroke: #d0d7de; stroke-opacity: 0.25; stroke-width: 0.5; stroke-linecap: square"/>
     </g>
     <g id="line2d_26">
      <g>
       <use xlink:href="#m91cf1422a0" x="48.90125" y="232.923146" style="fill: #24292f; stroke: #24292f; stroke-width: 0.8"/>
      </g>
     </g>
     <g id="text_14">
      <!-- 400 -->
      <g style="fill: #24292f" transform="translate(22.81375 236.722365) scale(0.1 -0.1)">
       <defs>
        <path id="DejaVuSans-34" d="M 2419 4116 
L 825 1625 
L 2419 1625 
L 2419 4116 
z
M 2253 4666 
L 3047 4666 
L 3047 1625 
L 3713 1625 
L 3713 1100 
L 3047 1100 
L 3047 0 
L 2419 0 
L 2419 1100 
L 313 1100 
L 313 1709 
L 2253 4666 
z
" transform="scale(0.015625)"/>
       </defs>
       <use xlink:href="#DejaVuSans-34"/>
       <use xlink:href="#DejaVuSans-30" transform="translate(63.623047 0)"/>
       <use xlink:href="#DejaVuSans-30" transform="translate(127.246094 0)"/>
      </g>
     </g>
    </g>
    <g id="ytick_6">
     <g id="line2d_27">
      <path d="M 48.90125 177.344479 
L 848.35125 177.344479 
" clip-path="url(#pcac8832bd3)" style="fill: none; stroke: #d0d7de; stroke-opacity: 0.25; stroke-width: 0.5; stroke-linecap: square"/>
     </g>
     <g id="line2d_28">
      <g>
       <use xlink:href="#m91cf1422a0" x="48.90125" y="177.344479" style="fill: #24292f; stroke: #24292f; stroke-width: 0.8"/>
      </g>
     </g>
     <g id="text_15">
      <!-- 500 -->
      <g style="fill: #24292f" transform="translate(22.81375 181.143698) scale(0.1 -0.1)">
       <defs>
        <path id="DejaVuSans-35" d="M 691 4666 
L 3169 4666 
L 3169 4134 
L 1269 4134 
L 1269 2991 
Q 1406 3038 1543 3061 
Q 1681 3084 1819 3084 
Q 2600 3084 3056 2656 
Q 3513 2228 3513 1497 
Q 3513 744 3044 326 
Q 2575 -91 1722 -91 
Q 1428 -91 1123 -41 
Q 819 9 494 109 
L 494 744 
Q 775 591 1075 516 
Q 1375 441 1709 441 
Q 2250 441 2565 725 
Q 2881 1009 2881 1497 
Q 2881 1984 2565 2268 
Q 2250 2553 1709 2553 
Q 1456 2553 1204 2497 
Q 953 2441 691 2322 
L 691 4666 
z
" transform="scale(0.015625)"/>
       </defs>
       <use xlink:href="#DejaVuSans-35"/>
       <use xlink:href="#DejaVuSans-30" transform="translate(63.623047 0)"/>
       <use xlink:href="#DejaVuSans-30" transform="translate(127.246094 0)"/>
      </g>
     </g>
    </g>
    <g id="ytick_7">
     <g id="line2d_29">
      <path d="M 48.90125 121.765812 
L 848.35125 121.765812 
" clip-path="url(#pcac8832bd3)" style="fill: none; stroke: #d0d7de; stroke-opacity: 0.25; stroke-width: 0.5; stroke-linecap: square"/>
     </g>
     <g id="line2d_30">
      <g>
       <use xlink:href="#m91cf1422a0" x="48.90125" y="121.765812" style="fill: #24292f; stroke: #24292f; stroke-width: 0.8"/>
      </g>
     </g>
     <g id="text_16">
      <!-- 600 -->
      <g style="fill: #24292f" transform="translate(22.81375 125.565031) scale(0.1 -0.1)">
       <use xlink:href="#DejaVuSans-36"/>
       <use xlink:href="#DejaVuSans-30" transform="translate(63.623047 0)"/>
       <use xlink:href="#DejaVuSans-30" transform="translate(127.246094 0)"/>
      </g>
     </g>
    </g>
    <g id="ytick_8">
     <g id="line2d_31">
      <path d="M 48.90125 66.187146 
L 848.35125 66.187146 
" clip-path="url(#pcac8832bd3)" style="fill: none; stroke: #d0d7de; stroke-opacity: 0.25; stroke-width: 0.5; stroke-linecap: square"/>
     </g>
     <g id="line2d_32">
      <g>
       <use xlink:href="#m91cf1422a0" x="48.90125" y="66.187146" style="fill: #24292f; stroke: #24292f; stroke-width: 0.8"/>
      </g>
     </g>
     <g id="text_17">
      <!-- 700 -->
      <g style="fill: #24292f" transform="translate(22.81375 69.986365) scale(0.1 -0.1)">
       <defs>
        <path id="DejaVuSans-37" d="M 525 4666 
L 3525 4666 
L 3525 4397 
L 1831 0 
L 1172 0 
L 2766 4134 
L 525 4134 
L 525 4666 
z
" transform="scale(0.015625)"/>
       </defs>
       <use xlink:href="#DejaVuSans-37"/>
       <use xlink:href="#DejaVuSans-30" transform="translate(63.623047 0)"/>
       <use xlink:href="#DejaVuSans-30" transform="translate(127.246094 0)"/>
      </g>
     </g>
    </g>
    <g id="text_18">
     <!-- Count -->
     <g style="fill: #24292f" transform="translate(16.318125 264.635937) rotate(-90) scale(0.12 -0.12)">
      <defs>
       <path id="DejaVuSans-43" d="M 4122 4306 
L 4122 3641 
Q 3803 3938 3442 4084 
Q 3081 4231 2675 4231 
Q 1875 4231 1450 3742 
Q 1025 3253 1025 2328 
Q 1025 1406 1450 917 
Q 1875 428 2675 428 
Q 3081 428 3442 575 
Q 3803 722 4122 1019 
L 4122 359 
Q 3791 134 3420 21 
Q 3050 -91 2638 -91 
Q 1578 -91 968 557 
Q 359 1206 359 2328 
Q 359 3453 968 4101 
Q 1578 4750 2638 4750 
Q 3056 4750 3426 4639 
Q 3797 4528 4122 4306 
z
" transform="scale(0.015625)"/>
       <path id="DejaVuSans-75" d="M 544 1381 
L 544 3500 
L 1119 3500 
L 1119 1403 
Q 1119 906 1312 657 
Q 1506 409 1894 409 
Q 2359 409 2629 706 
Q 2900 1003 2900 1516 
L 2900 3500 
L 3475 3500 
L 3475 0 
L 2900 0 
L 2900 538 
Q 2691 219 2414 64 
Q 2138 -91 1772 -91 
Q 1169 -91 856 284 
Q 544 659 544 1381 
z
M 1991 3584 
L 1991 3584 
z
" transform="scale(0.015625)"/>
       <path id="DejaVuSans-6e" d="M 3513 2113 
L 3513 0 
L 2938 0 
L 2938 2094 
Q 2938 2591 2744 2837 
Q 2550 3084 2163 3084 
Q 1697 3084 1428 2787 
Q 1159 2491 1159 1978 
L 1159 0 
L 581 0 
L 581 3500 
L 1159 3500 
L 1159 2956 
Q 1366 3272 1645 3428 
Q 1925 3584 2291 3584 
Q 2894 3584 3203 3211 
Q 3513 2838 3513 2113 
z
" transform="scale(0.015625)"/>
      </defs>
      <use xlink:href="#DejaVuSans-43"/>
      <use xlink:href="#DejaVuSans-6f" transform="translate(69.824219 0)"/>
      <use xlink:href="#DejaVuSans-75" transform="translate(131.005859 0)"/>
      <use xlink:href="#DejaVuSans-6e" transform="translate(194.384766 0)"/>
      <use xlink:href="#DejaVuSans-74" transform="translate(257.763672 0)"/>
     </g>
    </g>
   </g>
   <g id="line2d_33">
    <path d="M 85.239886 454.682026 
L 85.305209 454.682026 
L 85.346652 454.126239 
L 85.551619 454.126239 
L 85.644333 257.933546 
L 88.517142 257.933546 
L 88.529693 261.268266 
L 91.853208 261.268266 
L 92.014047 260.712479 
L 92.475449 260.712479 
L 92.849386 260.156692 
L 95.16646 259.600906 
L 95.212205 260.156692 
L 95.323273 259.600906 
L 102.498565 259.600906 
L 106.827296 260.712479 
L 107.471364 259.600906 
L 107.941647 259.600906 
L 109.126925 259.045119 
L 109.622823 256.821972 
L 110.588412 256.821972 
L 111.99551 260.712479 
L 112.086804 256.821972 
L 113.166539 256.266186 
L 115.976591 256.266186 
L 116.717794 255.710399 
L 117.818765 255.710399 
L 118.11388 254.598826 
L 124.976256 254.598826 
L 125.476772 253.487252 
L 125.502428 252.375679 
L 127.663359 252.375679 
L 130.849756 251.264106 
L 132.521262 251.264106 
L 132.546562 250.708319 
L 136.385236 250.708319 
L 137.337484 247.929386 
L 140.351121 247.929386 
L 140.37204 247.373599 
L 157.249914 247.373599 
L 160.404814 246.817812 
L 160.512527 247.373599 
L 163.784572 246.817812 
L 175.171015 246.817812 
L 180.689878 246.262026 
L 180.796486 245.706239 
L 181.058645 245.150452 
L 184.172022 245.150452 
L 185.497102 244.594666 
L 190.961576 244.594666 
L 191.169029 247.373599 
L 191.179212 245.150452 
L 191.444883 245.150452 
L 192.764122 242.927306 
L 199.223195 242.927306 
L 204.173457 242.371519 
L 209.675348 242.371519 
L 209.916785 241.815732 
L 224.213414 241.815732 
L 224.823577 241.259946 
L 228.294985 241.259946 
L 228.319456 240.148372 
L 234.933725 240.148372 
L 235.067883 236.257866 
L 247.039346 236.257866 
L 247.042938 235.702079 
L 247.389641 235.702079 
L 248.624887 235.146292 
L 250.431854 235.146292 
L 250.919543 234.590506 
L 250.968327 235.146292 
L 252.085086 234.590506 
L 252.090177 234.034719 
L 252.116267 234.590506 
L 252.761361 234.034719 
L 258.637742 234.034719 
L 260.464759 233.478932 
L 262.632677 233.478932 
L 266.314853 232.923146 
L 269.800706 232.923146 
L 272.493888 231.811572 
L 278.387754 231.811572 
L 281.816258 230.699999 
L 282.782242 231.255786 
L 287.56752 231.255786 
L 292.965526 229.032639 
L 301.015982 229.032639 
L 303.512723 228.476852 
L 348.00761 228.476852 
L 348.366943 227.921066 
L 364.593211 227.921066 
L 364.864329 227.365279 
L 392.474908 227.365279 
L 398.554676 226.809492 
L 398.589844 227.365279 
L 402.942059 225.697919 
L 409.329179 225.697919 
L 412.816769 225.142132 
L 412.822492 224.586346 
L 420.09938 224.586346 
L 422.711135 225.142132 
L 423.650003 224.586346 
L 435.828249 224.586346 
L 436.346527 225.142132 
L 437.295933 224.586346 
L 437.622191 222.363199 
L 443.203101 222.363199 
L 443.207916 221.807412 
L 460.285389 221.807412 
L 461.27987 221.251626 
L 464.561862 221.251626 
L 464.882041 220.695839 
L 480.886133 220.695839 
L 480.907881 220.140052 
L 484.91075 220.140052 
L 484.91671 219.584266 
L 485.888022 219.584266 
L 485.93874 219.028479 
L 487.447078 219.028479 
L 487.684055 218.472692 
L 490.912368 218.472692 
L 491.403096 217.361119 
L 493.180302 215.137972 
L 497.477891 215.137972 
L 497.795189 212.359039 
L 499.236271 212.359039 
L 499.94353 211.247466 
L 503.588012 211.247466 
L 504.783868 210.691679 
L 508.207004 210.691679 
L 508.665801 210.135892 
L 517.963344 210.135892 
L 518.192427 209.580106 
L 519.052355 209.580106 
L 520.387421 209.024319 
L 535.425569 209.024319 
L 535.560674 208.468532 
L 536.042837 208.468532 
L 537.049396 207.356959 
L 538.460599 207.356959 
L 538.79992 206.801172 
L 539.126849 206.801172 
L 539.250902 206.245386 
L 543.024846 206.245386 
L 543.667335 205.689599 
L 546.952248 205.689599 
L 547.162859 205.133812 
L 548.962207 205.133812 
L 549.077499 204.578026 
L 554.66946 204.578026 
L 554.789685 204.022239 
L 558.050995 204.022239 
L 559.140282 201.799092 
L 560.347979 201.799092 
L 560.349242 201.243306 
L 565.252969 201.243306 
L 566.151972 200.687519 
L 569.906694 200.687519 
L 570.646239 200.131732 
L 570.924423 200.131732 
L 571.647035 199.575946 
L 573.49288 199.575946 
L 573.706214 199.020159 
L 578.335586 199.020159 
L 579.528876 198.464372 
L 579.615789 197.908586 
L 580.002119 197.908586 
L 581.221499 195.685439 
L 585.003139 195.685439 
L 585.030373 195.129652 
L 588.629387 195.129652 
L 588.838655 194.573866 
L 589.381483 194.573866 
L 589.793035 194.018079 
L 589.878882 194.573866 
L 590.187062 194.018079 
L 591.556269 194.018079 
L 591.569373 193.462292 
L 591.932969 193.462292 
L 592.09219 192.906506 
L 593.192371 192.350719 
L 600.846984 192.350719 
L 602.043392 191.794932 
L 602.844274 191.794932 
L 603.494025 191.239146 
L 604.151316 191.794932 
L 606.857641 191.794932 
L 606.974353 190.683359 
L 610.859483 190.683359 
L 612.366913 189.015999 
L 628.728997 189.015999 
L 629.679942 188.460212 
L 654.935714 188.460212 
L 654.979525 187.904426 
L 692.201591 187.904426 
L 692.365074 187.348639 
L 692.376797 186.792852 
L 692.38844 187.348639 
L 697.797262 187.348639 
L 699.018497 186.792852 
L 720.327408 186.792852 
L 724.712304 186.237066 
L 724.754932 185.681279 
L 725.117936 185.681279 
L 726.254981 185.125492 
L 760.454371 185.125492 
L 760.649391 184.569706 
L 791.198812 184.569706 
L 795.102453 184.013919 
L 797.490257 184.013919 
L 797.749376 183.458132 
L 799.409002 182.902346 
L 804.063161 182.902346 
L 806.02331 182.346559 
L 808.074397 182.346559 
L 808.234131 181.790772 
L 811.607772 181.790772 
L 812.010759 181.234986 
L 812.012614 180.679199 
L 812.012614 180.679199 
" clip-path="url(#pcac8832bd3)" style="fill: none; stroke: #1a7f37; stroke-width: 2; stroke-linecap: square"/>
   </g>
   <g id="line2d_34">
    <path d="M 85.239886 455.237812 
L 85.346652 453.570452 
L 85.462812 453.570452 
L 85.551619 372.981386 
L 87.161947 372.981386 
L 87.195062 370.758239 
L 88.855043 370.758239 
L 89.282738 369.090879 
L 89.86468 370.758239 
L 89.868982 369.090879 
L 90.350514 369.090879 
L 90.536614 367.979306 
L 95.291974 367.979306 
L 95.296513 367.423519 
L 95.323273 367.979306 
L 95.557329 367.423519 
L 95.625967 367.979306 
L 95.809028 367.423519 
L 97.477771 367.423519 
L 97.565078 366.867732 
L 97.802884 366.311946 
L 99.686974 366.311946 
L 101.831052 365.756159 
L 101.906519 365.200372 
L 102.486014 364.644586 
L 102.498565 364.088799 
L 106.827296 367.979306 
L 107.471364 366.311946 
L 107.941647 363.533012 
L 110.588412 363.533012 
L 111.99551 367.979306 
L 112.086804 363.533012 
L 137.799044 363.533012 
L 138.588045 362.977226 
L 140.37204 362.977226 
L 145.244428 362.421439 
L 146.431284 361.865652 
L 163.342116 361.865652 
L 163.784572 361.309866 
L 166.057796 360.754079 
L 167.502627 360.754079 
L 169.104153 360.198292 
L 169.147293 359.086719 
L 170.248185 358.530932 
L 170.988085 357.975146 
L 181.181159 357.975146 
L 183.213064 357.419359 
L 183.827332 357.419359 
L 184.172022 356.863572 
L 185.497102 356.863572 
L 186.813538 356.307786 
L 190.961576 356.307786 
L 191.169029 358.530932 
L 191.179212 356.307786 
L 192.764122 356.307786 
L 192.923224 355.751999 
L 195.166608 355.751999 
L 197.373798 355.196212 
L 197.427359 354.640426 
L 204.173457 354.640426 
L 207.018873 354.084639 
L 207.026057 353.528852 
L 216.494702 353.528852 
L 220.444444 352.973066 
L 223.407757 352.973066 
L 224.213414 352.417279 
L 228.736691 352.417279 
L 231.316595 351.861492 
L 231.458015 351.305706 
L 233.973306 351.305706 
L 234.265225 350.749919 
L 235.067883 350.194132 
L 236.859693 350.194132 
L 237.990976 349.638346 
L 240.065153 349.638346 
L 241.418888 349.082559 
L 244.306813 349.082559 
L 245.290677 347.970986 
L 252.761361 347.970986 
L 254.888941 347.415199 
L 257.383747 347.415199 
L 257.946349 346.859412 
L 258.118398 346.303626 
L 258.637742 345.747839 
L 267.228894 345.747839 
L 268.801844 345.192052 
L 269.800706 344.636266 
L 294.230652 344.636266 
L 299.714584 344.080479 
L 299.780104 343.524692 
L 303.512723 343.524692 
L 306.703066 342.968906 
L 312.341957 342.968906 
L 312.818436 342.413119 
L 322.421713 342.413119 
L 329.939208 341.857332 
L 330.011359 341.301546 
L 330.994157 341.301546 
L 332.985368 340.745759 
L 333.096436 339.078399 
L 333.184059 338.522612 
L 337.343346 337.966826 
L 337.5924 337.411039 
L 337.691667 336.299466 
L 338.068367 335.743679 
L 351.60311 335.743679 
L 355.4481 335.187892 
L 357.8957 334.632106 
L 359.813143 334.632106 
L 364.258902 334.076319 
L 364.593211 331.853172 
L 364.864329 331.853172 
L 365.503542 330.741599 
L 373.936223 330.185812 
L 374.204618 329.630026 
L 374.283794 329.074239 
L 376.065342 329.074239 
L 377.747663 328.518452 
L 377.941026 327.962666 
L 378.072341 326.851092 
L 379.185903 326.295306 
L 379.267645 325.739519 
L 381.299392 325.183732 
L 383.970075 324.627946 
L 384.160004 324.072159 
L 384.16403 323.516372 
L 384.701214 322.960586 
L 384.796099 322.404799 
L 388.670178 321.849012 
L 389.364688 321.293226 
L 405.673882 321.293226 
L 408.37851 320.737439 
L 408.624643 320.181652 
L 419.678237 320.181652 
L 420.09938 319.070079 
L 424.704833 319.070079 
L 426.095275 318.514292 
L 426.163203 317.402719 
L 426.520246 316.846932 
L 428.884447 316.291146 
L 428.937692 315.735359 
L 429.223059 315.179572 
L 429.274725 313.512212 
L 429.51549 312.956426 
L 429.841235 312.956426 
L 429.853233 312.400639 
L 431.82692 311.844852 
L 432.602857 311.289066 
L 432.790615 310.733279 
L 436.346527 310.177492 
L 438.967084 310.177492 
L 439.87706 309.621706 
L 449.729707 309.621706 
L 452.993819 309.065919 
L 453.006805 308.510132 
L 453.593839 307.954346 
L 461.27987 307.954346 
L 463.436421 307.398559 
L 464.324807 306.842772 
L 464.561862 305.731199 
L 470.779065 305.731199 
L 471.202654 305.175412 
L 474.616712 305.175412 
L 476.251196 304.619626 
L 480.907881 304.619626 
L 483.723064 304.063839 
L 489.56929 304.063839 
L 490.287838 303.508052 
L 493.180302 303.508052 
L 493.967606 302.952266 
L 494.309138 302.396479 
L 494.477359 301.840692 
L 496.858295 301.840692 
L 496.925985 300.729119 
L 497.795189 300.729119 
L 498.365883 299.061759 
L 500.436981 299.061759 
L 500.694206 298.505972 
L 500.893883 298.505972 
L 501.885207 297.950186 
L 503.530268 297.950186 
L 503.588012 297.394399 
L 504.783868 297.394399 
L 505.074326 296.838612 
L 506.198308 296.838612 
L 507.91923 295.727039 
L 508.665801 295.727039 
L 511.553214 294.615466 
L 511.557555 294.059679 
L 512.10883 293.503892 
L 513.515375 292.948106 
L 513.734077 292.392319 
L 515.136439 291.836532 
L 517.428844 291.836532 
L 517.766943 291.280746 
L 517.963344 290.724959 
L 520.98823 290.724959 
L 521.067604 290.169172 
L 521.864104 290.169172 
L 521.925243 289.613386 
L 522.362331 289.057599 
L 523.883181 289.057599 
L 523.998867 288.501812 
L 524.259407 288.501812 
L 524.324138 287.946026 
L 524.429167 287.946026 
L 524.432719 287.390239 
L 526.57135 287.390239 
L 526.994861 286.834452 
L 527.350484 286.834452 
L 527.563029 286.278666 
L 528.105817 286.278666 
L 528.512198 285.722879 
L 528.597887 285.167092 
L 528.714047 285.167092 
L 530.756885 284.611306 
L 532.285589 284.611306 
L 532.401315 284.055519 
L 538.431667 284.055519 
L 538.460599 283.499732 
L 538.79992 283.499732 
L 539.475091 282.388159 
L 541.635075 282.388159 
L 541.823938 280.720799 
L 541.879038 279.609226 
L 542.235016 279.053439 
L 543.667335 279.053439 
L 544.34286 278.497652 
L 544.997625 278.497652 
L 545.208749 277.941866 
L 546.223714 277.386079 
L 547.162859 277.386079 
L 549.050896 276.830292 
L 549.077499 276.274506 
L 549.654468 276.274506 
L 549.750103 275.718719 
L 551.428477 275.718719 
L 551.475091 275.162932 
L 559.614591 275.162932 
L 559.740342 274.607146 
L 559.982489 274.607146 
L 560.089847 273.495572 
L 561.137927 273.495572 
L 561.222472 272.939786 
L 561.360971 272.939786 
L 562.0869 272.383999 
L 562.269368 271.828212 
L 562.60277 271.828212 
L 562.8849 271.272426 
L 562.976864 270.716639 
L 567.066764 270.716639 
L 568.099096 270.160852 
L 568.302997 269.049279 
L 568.554262 268.493492 
L 568.973707 268.493492 
L 569.229353 267.937706 
L 575.098827 267.937706 
L 575.486301 266.270346 
L 576.288288 266.270346 
L 576.406027 265.714559 
L 579.539888 265.714559 
L 579.615789 264.602986 
L 583.379707 264.602986 
L 583.418703 264.047199 
L 585.231866 264.047199 
L 585.244063 263.491412 
L 586.127002 263.491412 
L 586.150881 262.935626 
L 588.838655 262.935626 
L 588.97234 262.379839 
L 589.142652 262.379839 
L 589.381483 261.824052 
L 589.866291 261.824052 
L 589.878882 261.268266 
L 590.187062 261.268266 
L 590.774964 260.712479 
L 595.523496 260.712479 
L 595.86862 260.156692 
L 597.277573 260.156692 
L 597.280178 259.600906 
L 608.05251 259.600906 
L 609.880869 259.045119 
L 609.933877 258.489332 
L 610.859483 257.933546 
L 612.266936 257.933546 
L 612.366913 256.821972 
L 612.621493 256.821972 
L 612.72747 256.266186 
L 616.465417 256.266186 
L 617.140429 255.710399 
L 623.606094 255.710399 
L 623.625987 255.154612 
L 625.737739 255.154612 
L 626.640216 254.598826 
L 636.579656 254.598826 
L 636.70371 253.487252 
L 640.612719 253.487252 
L 641.390234 252.931466 
L 642.22285 252.931466 
L 643.240697 252.375679 
L 649.968678 252.375679 
L 650.612943 251.819892 
L 651.171204 251.819892 
L 651.444927 251.264106 
L 653.588215 250.708319 
L 654.637401 250.708319 
L 654.979525 250.152532 
L 655.09087 250.152532 
L 658.101981 249.596746 
L 663.646026 249.596746 
L 664.079878 249.040959 
L 685.478385 249.040959 
L 686.260242 248.485172 
L 691.208688 248.485172 
L 691.387526 247.929386 
L 691.708968 247.929386 
L 691.805866 247.373599 
L 719.440838 247.373599 
L 720.327408 246.817812 
L 726.925691 246.817812 
L 728.359037 246.262026 
L 728.455106 245.706239 
L 731.888149 245.706239 
L 732.030596 245.150452 
L 743.150578 245.150452 
L 743.173352 244.594666 
L 752.560452 244.594666 
L 752.661495 244.038879 
L 753.271185 243.483092 
L 755.574721 243.483092 
L 755.580009 242.927306 
L 756.048121 242.371519 
L 759.506741 242.371519 
L 760.649391 241.815732 
L 768.0244 241.815732 
L 768.076343 240.704159 
L 812.012614 240.704159 
L 812.012614 240.704159 
" clip-path="url(#pcac8832bd3)" style="fill: none; stroke: #0969da; stroke-width: 2; stroke-linecap: square"/>
   </g>
   <g id="line2d_35">
    <path d="M 85.239886 455.237812 
L 88.517142 455.237812 
L 88.529693 454.126239 
L 91.235269 454.126239 
L 91.853208 453.570452 
L 258.637742 453.570452 
L 260.464759 453.014666 
L 306.703066 453.014666 
L 307.986268 452.458879 
L 351.60311 452.458879 
L 355.4481 451.903092 
L 365.503542 451.903092 
L 374.283794 450.235732 
L 376.065342 449.124159 
L 379.267645 449.124159 
L 381.299392 448.568372 
L 384.16403 448.012586 
L 384.796099 448.012586 
L 388.670178 447.456799 
L 389.364688 446.901012 
L 392.474908 446.345226 
L 398.554676 445.789439 
L 398.589844 446.345226 
L 408.624643 446.345226 
L 409.329179 445.789439 
L 423.650003 445.789439 
L 424.704833 445.233652 
L 429.51549 445.233652 
L 429.853233 444.677866 
L 435.828249 444.677866 
L 436.346527 444.122079 
L 458.235092 444.122079 
L 460.285389 443.566292 
L 461.147094 443.566292 
L 461.27987 443.010506 
L 467.121754 443.010506 
L 467.12732 442.454719 
L 480.886133 442.454719 
L 480.907881 441.898932 
L 484.91671 441.898932 
L 485.93874 441.343146 
L 487.444434 440.787359 
L 487.447078 440.231572 
L 487.684055 440.231572 
L 489.56929 438.564212 
L 490.83927 438.564212 
L 490.912368 436.896852 
L 491.403096 436.896852 
L 493.180302 437.452639 
L 494.458413 437.452639 
L 494.477359 435.229492 
L 499.236271 435.229492 
L 499.94353 434.673706 
L 500.694206 434.673706 
L 500.893883 434.117919 
L 517.963344 434.117919 
L 518.192427 433.562132 
L 519.052355 433.562132 
L 520.387421 433.006346 
L 526.277537 433.006346 
L 526.57135 432.450559 
L 528.597887 432.450559 
L 528.714047 431.894772 
L 535.425569 431.894772 
L 535.560674 431.338986 
L 536.042837 431.338986 
L 536.531868 430.783199 
L 537.020425 430.783199 
L 537.049396 430.227412 
L 539.126849 430.227412 
L 539.250902 429.671626 
L 548.895306 429.671626 
L 548.962207 429.115839 
L 549.077499 429.115839 
L 549.176489 428.560052 
L 549.750103 428.560052 
L 550.95259 428.004266 
L 555.653797 428.004266 
L 555.657942 427.448479 
L 556.556235 427.448479 
L 556.590415 426.892692 
L 559.140282 426.892692 
L 559.675887 426.336906 
L 563.07396 426.336906 
L 564.059521 425.781119 
L 565.976213 425.781119 
L 565.99654 424.669546 
L 566.151972 424.669546 
L 566.347585 424.113759 
L 569.430925 424.113759 
L 569.906694 423.557972 
L 570.646239 423.557972 
L 570.924423 423.002186 
L 572.729534 423.002186 
L 572.981588 422.446399 
L 572.984825 421.890612 
L 573.49288 421.890612 
L 573.706214 421.334826 
L 593.151085 421.334826 
L 593.192371 420.223252 
L 595.86862 420.223252 
L 596.638873 419.667466 
L 597.280178 419.667466 
L 600.288605 419.111679 
L 600.846984 419.111679 
L 602.043392 418.555892 
L 602.844274 418.555892 
L 603.494025 418.000106 
L 604.151316 418.555892 
L 606.267252 418.555892 
L 606.842642 418.000106 
L 606.974353 416.888532 
L 608.045287 416.332746 
L 608.05251 415.221172 
L 612.72747 415.221172 
L 613.749856 414.665386 
L 613.853464 412.998026 
L 614.875337 412.442239 
L 615.440465 411.886452 
L 620.273857 411.886452 
L 620.478942 410.219092 
L 620.72547 410.219092 
L 620.908255 409.663306 
L 622.089507 409.107519 
L 623.948889 409.107519 
L 624.331944 408.551732 
L 624.419093 407.995946 
L 624.614547 407.995946 
L 625.737739 406.884372 
L 626.941133 406.884372 
L 627.336266 406.328586 
L 628.724418 406.328586 
L 628.728997 405.217012 
L 629.679942 405.217012 
L 630.942384 404.661226 
L 634.287014 403.549652 
L 634.585603 402.993866 
L 641.390234 402.993866 
L 642.22285 401.882292 
L 654.935714 401.882292 
L 655.09087 400.770719 
L 661.278746 400.770719 
L 662.224206 400.214932 
L 665.093304 400.214932 
L 665.254341 399.659146 
L 682.90535 399.659146 
L 683.187085 399.103359 
L 684.935439 399.103359 
L 685.478385 398.547572 
L 688.741353 398.547572 
L 689.355029 397.991786 
L 689.359055 397.435999 
L 690.060907 396.880212 
L 692.201591 396.880212 
L 692.365074 396.324426 
L 692.376797 395.212852 
L 692.38844 395.768639 
L 693.826956 395.212852 
L 699.018497 395.212852 
L 700.042541 394.101279 
L 709.409709 394.101279 
L 710.13394 393.545492 
L 712.406334 393.545492 
L 712.58825 392.989706 
L 712.613274 392.433919 
L 720.327408 392.433919 
L 725.117936 391.322346 
L 726.254981 391.322346 
L 726.925691 390.766559 
L 736.848713 390.766559 
L 738.068408 390.210772 
L 739.579746 390.210772 
L 741.043483 389.654986 
L 753.271185 389.654986 
L 753.606757 389.099199 
L 753.608572 388.543412 
L 760.454371 388.543412 
L 760.649391 387.987626 
L 791.198812 387.987626 
L 795.102453 387.431839 
L 804.063161 387.431839 
L 806.02331 386.876052 
L 807.747982 386.876052 
L 808.074397 386.320266 
L 812.012614 386.320266 
L 812.012614 386.320266 
" clip-path="url(#pcac8832bd3)" style="fill: none; stroke: #bf8700; stroke-width: 2; stroke-linecap: square"/>
   </g>
   <g id="line2d_36">
    <path d="M 85.239886 454.682026 
L 85.520201 454.682026 
L 85.644333 432.450559 
L 86.293059 426.892692 
L 86.663759 425.781119 
L 86.851833 426.336906 
L 87.195062 425.781119 
L 87.775544 425.225332 
L 88.178294 424.113759 
L 88.517142 423.557972 
L 88.529693 423.002186 
L 88.855043 421.334826 
L 89.282738 421.334826 
L 89.86468 420.779039 
L 89.868982 420.223252 
L 90.337528 419.667466 
L 90.350514 419.111679 
L 90.536614 419.111679 
L 91.235269 418.555892 
L 91.734443 418.000106 
L 91.853208 411.886452 
L 91.935344 412.442239 
L 92.136167 408.551732 
L 92.475449 402.993866 
L 95.296513 402.993866 
L 95.323273 402.438079 
L 95.557329 399.659146 
L 95.625967 402.438079 
L 95.943975 397.991786 
L 96.10146 397.435999 
L 97.274778 396.880212 
L 97.310183 396.324426 
L 97.565078 395.768639 
L 97.802884 395.768639 
L 98.407127 395.212852 
L 98.729911 394.657066 
L 98.861582 394.101279 
L 98.965032 392.989706 
L 99.266582 392.433919 
L 99.274041 391.878132 
L 99.577327 392.433919 
L 99.663648 391.878132 
L 99.674265 392.433919 
L 99.686974 390.766559 
L 102.498565 390.766559 
L 106.827296 402.993866 
L 107.471364 390.210772 
L 107.807055 389.654986 
L 109.622823 389.654986 
L 109.930332 389.099199 
L 110.588412 388.543412 
L 111.99551 402.993866 
L 112.086804 387.987626 
L 113.166539 387.431839 
L 115.475562 386.876052 
L 115.64023 387.431839 
L 115.942134 386.320266 
L 115.976591 385.764479 
L 116.717794 385.764479 
L 116.943009 385.208692 
L 117.368375 384.652906 
L 117.403661 383.541332 
L 117.79603 382.429759 
L 117.818765 382.985546 
L 118.05215 382.985546 
L 118.180111 381.873972 
L 118.574019 379.650826 
L 118.625803 378.539252 
L 119.131175 376.871892 
L 119.378177 377.983466 
L 121.124636 374.648746 
L 121.584498 375.760319 
L 123.476996 373.537172 
L 124.976256 377.427679 
L 125.502428 373.537172 
L 127.663359 371.869812 
L 130.849756 371.869812 
L 131.270582 371.314026 
L 131.605484 369.646666 
L 132.546562 371.314026 
L 136.385236 371.869812 
L 137.337484 369.646666 
L 137.799044 367.979306 
L 138.588045 369.646666 
L 140.37204 367.979306 
L 146.431284 367.979306 
L 152.802616 367.423519 
L 153.227509 366.867732 
L 157.249914 366.311946 
L 159.909705 366.311946 
L 160.404814 365.756159 
L 160.512527 366.311946 
L 163.342116 364.644586 
L 165.996183 364.644586 
L 166.057796 364.088799 
L 167.502627 363.533012 
L 170.988085 363.533012 
L 172.525592 359.642506 
L 173.669939 359.086719 
L 175.142439 358.530932 
L 175.171015 357.975146 
L 180.689878 357.975146 
L 180.796486 354.084639 
L 181.000742 354.084639 
L 181.181159 352.973066 
L 183.213064 352.973066 
L 183.827332 352.417279 
L 186.813538 352.417279 
L 190.961576 351.861492 
L 191.169029 363.533012 
L 191.179212 352.417279 
L 191.444883 351.861492 
L 192.923224 351.861492 
L 195.166608 351.305706 
L 197.427359 351.305706 
L 199.223195 350.749919 
L 204.173457 349.638346 
L 207.026057 349.638346 
L 209.31862 349.082559 
L 209.675348 346.303626 
L 209.916785 346.303626 
L 210.344006 345.747839 
L 212.572431 345.192052 
L 213.087551 342.968906 
L 216.167418 341.857332 
L 216.20452 342.413119 
L 216.494702 341.857332 
L 220.444444 340.745759 
L 223.407757 340.189972 
L 224.823577 340.189972 
L 226.07848 339.634186 
L 227.165991 338.522612 
L 228.319456 337.966826 
L 228.736691 337.411039 
L 231.458015 337.966826 
L 233.973306 336.855252 
L 234.265225 337.411039 
L 234.933725 337.411039 
L 235.067883 336.855252 
L 236.859693 336.299466 
L 237.990976 336.855252 
L 240.065153 335.743679 
L 241.418888 335.743679 
L 244.306813 335.187892 
L 244.7857 335.743679 
L 245.290677 334.076319 
L 247.042938 334.076319 
L 247.389641 333.520532 
L 248.898492 331.297386 
L 249.324805 330.185812 
L 250.431854 330.741599 
L 250.919543 329.630026 
L 250.968327 329.074239 
L 254.888941 329.074239 
L 256.874626 328.518452 
L 257.383747 327.962666 
L 260.464759 327.962666 
L 262.632677 327.406879 
L 266.314853 327.406879 
L 267.228894 326.851092 
L 277.354238 326.851092 
L 277.935746 326.295306 
L 277.994003 325.739519 
L 278.387754 325.183732 
L 282.782242 325.183732 
L 283.056122 324.627946 
L 284.174183 324.072159 
L 284.367822 323.516372 
L 286.220218 322.960586 
L 287.56752 322.404799 
L 292.965526 322.404799 
L 294.230652 321.293226 
L 299.780104 321.293226 
L 301.015982 320.737439 
L 306.187867 320.737439 
L 306.703066 320.181652 
L 307.986268 319.625866 
L 308.368257 319.070079 
L 308.497955 318.514292 
L 312.341957 317.958506 
L 312.818436 318.514292 
L 317.878819 317.402719 
L 321.879832 316.291146 
L 322.421713 315.735359 
L 330.011359 315.735359 
L 330.994157 315.179572 
L 338.068367 315.179572 
L 344.73213 314.623786 
L 345.570311 314.067999 
L 348.366943 313.512212 
L 351.171469 312.956426 
L 351.60311 312.400639 
L 357.8957 312.400639 
L 359.813143 311.844852 
L 374.283794 311.844852 
L 376.065342 311.289066 
L 388.018492 311.289066 
L 388.670178 310.733279 
L 389.364688 311.289066 
L 392.474908 310.733279 
L 402.942059 310.733279 
L 404.344737 310.177492 
L 426.487565 310.177492 
L 426.520246 309.621706 
L 440.195661 309.621706 
L 443.200219 309.065919 
L 443.207916 308.510132 
L 458.228421 308.510132 
L 458.235092 307.398559 
L 467.12732 307.398559 
L 471.202654 306.842772 
L 476.251196 306.842772 
L 480.907881 305.731199 
L 490.287838 305.731199 
L 490.83927 305.175412 
L 490.912368 304.619626 
L 494.458413 304.619626 
L 494.477359 304.063839 
L 494.845572 304.063839 
L 495.432527 303.508052 
L 500.694206 303.508052 
L 500.893883 302.952266 
L 507.91923 302.952266 
L 508.207004 302.396479 
L 525.364048 302.396479 
L 526.276235 300.729119 
L 526.277537 300.173332 
L 528.708245 300.173332 
L 528.714047 299.617546 
L 535.883774 299.617546 
L 536.042837 299.061759 
L 539.475091 299.061759 
L 539.598394 298.505972 
L 552.349031 298.505972 
L 552.594218 297.950186 
L 555.55382 297.950186 
L 555.657942 297.394399 
L 556.590415 296.838612 
L 580.002119 296.838612 
L 581.221499 295.727039 
L 583.04674 295.727039 
L 583.418703 295.171252 
L 585.244063 295.171252 
L 585.514589 294.615466 
L 589.827334 294.615466 
L 589.878882 294.059679 
L 613.747843 294.059679 
L 613.853464 292.948106 
L 643.688718 292.948106 
L 644.463589 292.392319 
L 695.403932 292.392319 
L 697.797262 291.836532 
L 719.325033 291.836532 
L 719.440838 291.280746 
L 729.078768 291.280746 
L 729.547235 290.724959 
L 812.012614 290.724959 
L 812.012614 290.724959 
" clip-path="url(#pcac8832bd3)" style="fill: none; stroke: #cf222e; stroke-width: 2; stroke-linecap: square"/>
   </g>
   <g id="line2d_37">
    <path d="M 85.239886 454.682026 
L 85.262187 454.126239 
L 85.438009 -1 
M 85.596036 -1 
L 85.644333 101.201706 
L 88.517142 101.201706 
L 88.529693 97.866986 
L 91.853208 97.866986 
L 92.014047 98.422772 
L 92.475449 98.422772 
L 92.849386 98.978559 
L 95.16646 99.534346 
L 95.212205 98.978559 
L 95.323273 99.534346 
L 102.498565 99.534346 
L 106.827296 98.422772 
L 107.471364 99.534346 
L 107.807055 98.978559 
L 107.941647 98.978559 
L 109.126925 99.534346 
L 109.622823 96.755412 
L 110.588412 96.755412 
L 111.99551 98.422772 
L 112.086804 95.643839 
L 113.166539 96.199626 
L 115.976591 96.199626 
L 116.717794 95.088052 
L 117.818765 95.088052 
L 118.11388 91.197546 
L 124.976256 91.197546 
L 125.476772 87.862826 
L 125.502428 86.751252 
L 127.663359 86.751252 
L 130.849756 82.860746 
L 132.521262 82.860746 
L 132.546562 83.416532 
L 136.385236 83.416532 
L 137.337484 80.081812 
L 140.351121 80.081812 
L 140.37204 80.637599 
L 157.249914 80.637599 
L 160.404814 81.193386 
L 160.512527 80.637599 
L 163.784572 81.193386 
L 175.171015 81.193386 
L 180.689878 81.749172 
L 180.796486 74.523946 
L 181.058645 75.079732 
L 184.172022 75.079732 
L 185.497102 75.635519 
L 190.961576 75.635519 
L 191.169029 80.637599 
L 191.179212 71.745012 
L 191.444883 71.745012 
L 192.764122 73.968159 
L 199.223195 73.968159 
L 204.173457 70.077652 
L 209.675348 70.077652 
L 209.916785 68.410292 
L 224.213414 68.410292 
L 224.823577 68.966079 
L 228.294985 68.966079 
L 228.319456 70.077652 
L 234.933725 70.077652 
L 235.067883 73.412372 
L 245.290677 73.412372 
L 245.534837 68.410292 
L 247.039346 67.298719 
L 247.042938 67.854506 
L 247.389641 67.854506 
L 248.624887 65.075572 
L 250.431854 65.075572 
L 250.919543 65.631359 
L 250.968327 65.075572 
L 252.085086 65.631359 
L 252.090177 66.187146 
L 252.116267 65.631359 
L 252.761361 63.408212 
L 258.637742 63.408212 
L 260.464759 63.963999 
L 262.632677 63.963999 
L 266.314853 64.519786 
L 269.800706 64.519786 
L 272.493888 65.631359 
L 277.994003 65.075572 
L 278.387754 65.075572 
L 281.816258 66.187146 
L 282.782242 65.631359 
L 287.56752 65.631359 
L 292.962606 67.854506 
L 292.965526 67.298719 
L 301.015982 67.298719 
L 303.512723 67.854506 
L 348.00761 67.854506 
L 348.366943 68.410292 
L 351.151458 68.410292 
L 351.171469 66.742932 
L 364.593211 66.742932 
L 364.864329 67.298719 
L 392.474908 67.298719 
L 398.554676 67.854506 
L 398.589844 67.298719 
L 402.942059 68.966079 
L 404.344737 68.966079 
L 405.673882 68.410292 
L 409.329179 68.410292 
L 412.816769 68.966079 
L 412.822492 69.521866 
L 422.711135 67.854506 
L 423.650003 68.410292 
L 435.828249 68.410292 
L 436.346527 67.854506 
L 437.295933 68.410292 
L 437.622191 70.633439 
L 443.203101 70.633439 
L 443.207916 71.189226 
L 460.285389 71.189226 
L 461.27987 71.745012 
L 464.561862 71.745012 
L 464.882041 72.300799 
L 480.886133 72.300799 
L 480.907881 72.856586 
L 483.723064 72.856586 
L 484.91075 73.412372 
L 484.91671 73.968159 
L 485.888022 73.412372 
L 485.93874 73.968159 
L 487.447078 73.968159 
L 487.684055 74.523946 
L 490.83927 74.523946 
L 490.912368 73.412372 
L 491.403096 74.523946 
L 493.180302 72.856586 
L 497.477891 72.856586 
L 497.795189 71.189226 
L 499.236271 71.189226 
L 499.94353 72.300799 
L 503.588012 72.300799 
L 504.783868 72.856586 
L 505.074326 72.856586 
L 506.198308 70.077652 
L 508.207004 70.077652 
L 508.665801 70.633439 
L 517.963344 70.633439 
L 518.192427 71.189226 
L 519.052355 71.189226 
L 520.387421 71.745012 
L 535.425569 71.745012 
L 535.560674 72.300799 
L 536.042837 72.300799 
L 537.049396 73.412372 
L 538.460599 73.412372 
L 538.79992 72.856586 
L 539.126849 72.856586 
L 539.250902 73.412372 
L 543.024846 73.412372 
L 543.667335 73.968159 
L 546.952248 73.968159 
L 547.162859 74.523946 
L 548.962207 74.523946 
L 549.077499 75.079732 
L 554.66946 75.079732 
L 554.789685 75.635519 
L 558.050995 75.635519 
L 559.140282 77.858666 
L 560.347979 77.858666 
L 560.349242 78.414452 
L 565.252969 78.414452 
L 566.151972 78.970239 
L 569.906694 78.970239 
L 570.646239 79.526026 
L 573.49288 79.526026 
L 573.706214 80.081812 
L 578.335586 80.081812 
L 579.528876 80.637599 
L 579.615789 81.193386 
L 580.002119 81.193386 
L 581.221499 60.629279 
L 585.003139 60.629279 
L 585.030373 61.185066 
L 585.244063 61.185066 
L 585.514589 60.629279 
L 588.629387 60.629279 
L 588.838655 61.185066 
L 589.381483 61.185066 
L 589.793035 61.740852 
L 589.878882 61.185066 
L 591.556269 61.185066 
L 591.569373 61.740852 
L 591.932969 61.740852 
L 592.09219 62.296639 
L 593.192371 62.852426 
L 600.846984 62.852426 
L 602.043392 63.408212 
L 602.844274 63.408212 
L 603.494025 63.963999 
L 604.151316 63.408212 
L 606.857641 63.408212 
L 606.974353 64.519786 
L 610.859483 64.519786 
L 612.366913 66.187146 
L 628.728997 66.187146 
L 629.679942 66.742932 
L 654.935714 66.742932 
L 654.979525 67.298719 
L 692.201591 67.298719 
L 692.365074 67.854506 
L 692.376797 68.410292 
L 692.38844 67.854506 
L 697.797262 67.854506 
L 699.018497 68.410292 
L 720.327408 68.410292 
L 725.117936 68.966079 
L 726.245548 69.521866 
L 726.254981 67.854506 
L 760.454371 67.854506 
L 760.649391 68.410292 
L 791.198812 68.410292 
L 795.102453 68.966079 
L 797.490257 68.966079 
L 797.749376 69.521866 
L 799.409002 70.077652 
L 804.063161 70.077652 
L 806.02331 70.633439 
L 808.074397 70.633439 
L 808.234131 71.189226 
L 811.607772 71.189226 
L 812.010759 71.745012 
L 812.012614 72.300799 
L 812.012614 72.300799 
" clip-path="url(#pcac8832bd3)" style="fill: none; stroke: #9467bd; stroke-width: 2; stroke-linecap: square"/>
   </g>
   <g id="patch_3">
    <path d="M 48.90125 455.237812 
L 48.90125 38.397812 
" style="fill: none; stroke: #d0d7de; stroke-width: 0.8; stroke-linejoin: miter; stroke-linecap: square"/>
   </g>
   <g id="patch_4">
    <path d="M 848.35125 455.237812 
L 848.35125 38.397812 
" style="fill: none; stroke: #d0d7de; stroke-width: 0.8; stroke-linejoin: miter; stroke-linecap: square"/>
   </g>
   <g id="patch_5">
    <path d="M 48.90125 455.237812 
L 848.35125 455.237812 
" style="fill: none; stroke: #d0d7de; stroke-width: 0.8; stroke-linejoin: miter; stroke-linecap: square"/>
   </g>
   <g id="patch_6">
    <path d="M 48.90125 38.397812 
L 848.35125 38.397812 
" style="fill: none; stroke: #d0d7de; stroke-width: 0.8; stroke-linejoin: miter; stroke-linecap: square"/>
   </g>
   <g id="text_19">
    <!-- 494 -->
    <g style="fill: #1a7f37" transform="translate(817.012614 183.162637) scale(0.09 -0.09)">
     <defs>
      <path id="DejaVuSans-Bold-34" d="M 2356 3675 
L 1038 1722 
L 2356 1722 
L 2356 3675 
z
M 2156 4666 
L 3494 4666 
L 3494 1722 
L 4159 1722 
L 4159 850 
L 3494 850 
L 3494 0 
L 2356 0 
L 2356 850 
L 288 850 
L 288 1881 
L 2156 4666 
z
" transform="scale(0.015625)"/>
      <path id="DejaVuSans-Bold-39" d="M 641 103 
L 641 966 
Q 928 831 1190 764 
Q 1453 697 1709 697 
Q 2247 697 2547 995 
Q 2847 1294 2900 1881 
Q 2688 1725 2447 1647 
Q 2206 1569 1925 1569 
Q 1209 1569 770 1986 
Q 331 2403 331 3084 
Q 331 3838 820 4291 
Q 1309 4744 2131 4744 
Q 3044 4744 3544 4128 
Q 4044 3513 4044 2388 
Q 4044 1231 3459 570 
Q 2875 -91 1856 -91 
Q 1528 -91 1228 -42 
Q 928 6 641 103 
z
M 2125 2350 
Q 2441 2350 2600 2554 
Q 2759 2759 2759 3169 
Q 2759 3575 2600 3781 
Q 2441 3988 2125 3988 
Q 1809 3988 1650 3781 
Q 1491 3575 1491 3169 
Q 1491 2759 1650 2554 
Q 1809 2350 2125 2350 
z
" transform="scale(0.015625)"/>
     </defs>
     <use xlink:href="#DejaVuSans-Bold-34"/>
     <use xlink:href="#DejaVuSans-Bold-39" transform="translate(69.580078 0)"/>
     <use xlink:href="#DejaVuSans-Bold-34" transform="translate(139.160156 0)"/>
    </g>
   </g>
   <g id="text_20">
    <!-- 386 -->
    <g style="fill: #0969da" transform="translate(817.012614 243.187597) scale(0.09 -0.09)">
     <defs>
      <path id="DejaVuSans-Bold-33" d="M 2981 2516 
Q 3453 2394 3698 2092 
Q 3944 1791 3944 1325 
Q 3944 631 3412 270 
Q 2881 -91 1863 -91 
Q 1503 -91 1142 -33 
Q 781 25 428 141 
L 428 1069 
Q 766 900 1098 814 
Q 1431 728 1753 728 
Q 2231 728 2486 893 
Q 2741 1059 2741 1369 
Q 2741 1688 2480 1852 
Q 2219 2016 1709 2016 
L 1228 2016 
L 1228 2791 
L 1734 2791 
Q 2188 2791 2409 2933 
Q 2631 3075 2631 3366 
Q 2631 3634 2415 3781 
Q 2200 3928 1806 3928 
Q 1516 3928 1219 3862 
Q 922 3797 628 3669 
L 628 4550 
Q 984 4650 1334 4700 
Q 1684 4750 2022 4750 
Q 2931 4750 3382 4451 
Q 3834 4153 3834 3553 
Q 3834 3144 3618 2883 
Q 3403 2622 2981 2516 
z
" transform="scale(0.015625)"/>
      <path id="DejaVuSans-Bold-38" d="M 2228 2088 
Q 1891 2088 1709 1903 
Q 1528 1719 1528 1375 
Q 1528 1031 1709 848 
Q 1891 666 2228 666 
Q 2563 666 2741 848 
Q 2919 1031 2919 1375 
Q 2919 1722 2741 1905 
Q 2563 2088 2228 2088 
z
M 1350 2484 
Q 925 2613 709 2878 
Q 494 3144 494 3541 
Q 494 4131 934 4440 
Q 1375 4750 2228 4750 
Q 3075 4750 3515 4442 
Q 3956 4134 3956 3541 
Q 3956 3144 3739 2878 
Q 3522 2613 3097 2484 
Q 3572 2353 3814 2058 
Q 4056 1763 4056 1313 
Q 4056 619 3595 264 
Q 3134 -91 2228 -91 
Q 1319 -91 855 264 
Q 391 619 391 1313 
Q 391 1763 633 2058 
Q 875 2353 1350 2484 
z
M 1631 3419 
Q 1631 3141 1786 2991 
Q 1941 2841 2228 2841 
Q 2509 2841 2662 2991 
Q 2816 3141 2816 3419 
Q 2816 3697 2662 3845 
Q 2509 3994 2228 3994 
Q 1941 3994 1786 3844 
Q 1631 3694 1631 3419 
z
" transform="scale(0.015625)"/>
      <path id="DejaVuSans-Bold-36" d="M 2316 2303 
Q 2000 2303 1842 2098 
Q 1684 1894 1684 1484 
Q 1684 1075 1842 870 
Q 2000 666 2316 666 
Q 2634 666 2792 870 
Q 2950 1075 2950 1484 
Q 2950 1894 2792 2098 
Q 2634 2303 2316 2303 
z
M 3803 4544 
L 3803 3681 
Q 3506 3822 3243 3889 
Q 2981 3956 2731 3956 
Q 2194 3956 1894 3657 
Q 1594 3359 1544 2772 
Q 1750 2925 1990 3001 
Q 2231 3078 2516 3078 
Q 3231 3078 3670 2659 
Q 4109 2241 4109 1563 
Q 4109 813 3618 361 
Q 3128 -91 2303 -91 
Q 1394 -91 895 523 
Q 397 1138 397 2266 
Q 397 3422 980 4083 
Q 1563 4744 2578 4744 
Q 2900 4744 3203 4694 
Q 3506 4644 3803 4544 
z
" transform="scale(0.015625)"/>
     </defs>
     <use xlink:href="#DejaVuSans-Bold-33"/>
     <use xlink:href="#DejaVuSans-Bold-38" transform="translate(69.580078 0)"/>
     <use xlink:href="#DejaVuSans-Bold-36" transform="translate(139.160156 0)"/>
    </g>
   </g>
   <g id="text_21">
    <!-- 124 -->
    <g style="fill: #bf8700" transform="translate(817.012614 388.803703) scale(0.09 -0.09)">
     <defs>
      <path id="DejaVuSans-Bold-31" d="M 750 831 
L 1813 831 
L 1813 3847 
L 722 3622 
L 722 4441 
L 1806 4666 
L 2950 4666 
L 2950 831 
L 4013 831 
L 4013 0 
L 750 0 
L 750 831 
z
" transform="scale(0.015625)"/>
      <path id="DejaVuSans-Bold-32" d="M 1844 884 
L 3897 884 
L 3897 0 
L 506 0 
L 506 884 
L 2209 2388 
Q 2438 2594 2547 2791 
Q 2656 2988 2656 3200 
Q 2656 3528 2436 3728 
Q 2216 3928 1850 3928 
Q 1569 3928 1234 3808 
Q 900 3688 519 3450 
L 519 4475 
Q 925 4609 1322 4679 
Q 1719 4750 2100 4750 
Q 2938 4750 3402 4381 
Q 3866 4013 3866 3353 
Q 3866 2972 3669 2642 
Q 3472 2313 2841 1759 
L 1844 884 
z
" transform="scale(0.015625)"/>
     </defs>
     <use xlink:href="#DejaVuSans-Bold-31"/>
     <use xlink:href="#DejaVuSans-Bold-32" transform="translate(69.580078 0)"/>
     <use xlink:href="#DejaVuSans-Bold-34" transform="translate(139.160156 0)"/>
    </g>
   </g>
   <g id="text_22">
    <!-- 296 -->
    <g style="fill: #cf222e" transform="translate(817.012614 293.208397) scale(0.09 -0.09)">
     <use xlink:href="#DejaVuSans-Bold-32"/>
     <use xlink:href="#DejaVuSans-Bold-39" transform="translate(69.580078 0)"/>
     <use xlink:href="#DejaVuSans-Bold-36" transform="translate(139.160156 0)"/>
    </g>
   </g>
   <g id="text_23">
    <!-- 689 -->
    <g style="fill: #9467bd" transform="translate(817.012614 74.784237) scale(0.09 -0.09)">
     <use xlink:href="#DejaVuSans-Bold-36"/>
     <use xlink:href="#DejaVuSans-Bold-38" transform="translate(69.580078 0)"/>
     <use xlink:href="#DejaVuSans-Bold-39" transform="translate(139.160156 0)"/>
    </g>
   </g>
   <g id="text_24">
    <!-- Erdős Problems Progress -->
    <g style="fill: #24292f" transform="translate(349.588281 18.397812) scale(0.14 -0.14)">
     <defs>
      <path id="DejaVuSans-Bold-45" d="M 588 4666 
L 3834 4666 
L 3834 3756 
L 1791 3756 
L 1791 2888 
L 3713 2888 
L 3713 1978 
L 1791 1978 
L 1791 909 
L 3903 909 
L 3903 0 
L 588 0 
L 588 4666 
z
" transform="scale(0.015625)"/>
      <path id="DejaVuSans-Bold-72" d="M 3138 2547 
Q 2991 2616 2845 2648 
Q 2700 2681 2553 2681 
Q 2122 2681 1889 2404 
Q 1656 2128 1656 1613 
L 1656 0 
L 538 0 
L 538 3500 
L 1656 3500 
L 1656 2925 
Q 1872 3269 2151 3426 
Q 2431 3584 2822 3584 
Q 2878 3584 2943 3579 
Q 3009 3575 3134 3559 
L 3138 2547 
z
" transform="scale(0.015625)"/>
      <path id="DejaVuSans-Bold-64" d="M 2919 2988 
L 2919 4863 
L 4044 4863 
L 4044 0 
L 2919 0 
L 2919 506 
Q 2688 197 2409 53 
Q 2131 -91 1766 -91 
Q 1119 -91 703 423 
Q 288 938 288 1747 
Q 288 2556 703 3070 
Q 1119 3584 1766 3584 
Q 2128 3584 2408 3439 
Q 2688 3294 2919 2988 
z
M 2181 722 
Q 2541 722 2730 984 
Q 2919 1247 2919 1747 
Q 2919 2247 2730 2509 
Q 2541 2772 2181 2772 
Q 1825 2772 1636 2509 
Q 1447 2247 1447 1747 
Q 1447 1247 1636 984 
Q 1825 722 2181 722 
z
" transform="scale(0.015625)"/>
      <path id="DejaVuSans-Bold-151" d="M 1881 5119 
L 2560 5119 
L 1785 3944 
L 1275 3944 
L 1881 5119 
z
M 3016 5119 
L 3738 5119 
L 2888 3944 
L 2344 3944 
L 3016 5119 
z
M 2203 2784 
Q 1831 2784 1636 2517 
Q 1441 2250 1441 1747 
Q 1441 1244 1636 976 
Q 1831 709 2203 709 
Q 2569 709 2762 976 
Q 2956 1244 2956 1747 
Q 2956 2250 2762 2517 
Q 2569 2784 2203 2784 
z
M 2203 3584 
Q 3106 3584 3614 3096 
Q 4122 2609 4122 1747 
Q 4122 884 3614 396 
Q 3106 -91 2203 -91 
Q 1297 -91 786 396 
Q 275 884 275 1747 
Q 275 2609 786 3096 
Q 1297 3584 2203 3584 
z
" transform="scale(0.015625)"/>
      <path id="DejaVuSans-Bold-73" d="M 3272 3391 
L 3272 2541 
Q 2913 2691 2578 2766 
Q 2244 2841 1947 2841 
Q 1628 2841 1473 2761 
Q 1319 2681 1319 2516 
Q 1319 2381 1436 2309 
Q 1553 2238 1856 2203 
L 2053 2175 
Q 2913 2066 3209 1816 
Q 3506 1566 3506 1031 
Q 3506 472 3093 190 
Q 2681 -91 1863 -91 
Q 1516 -91 1145 -36 
Q 775 19 384 128 
L 384 978 
Q 719 816 1070 734 
Q 1422 653 1784 653 
Q 2113 653 2278 743 
Q 2444 834 2444 1013 
Q 2444 1163 2330 1236 
Q 2216 1309 1875 1350 
L 1678 1375 
Q 931 1469 631 1722 
Q 331 1975 331 2491 
Q 331 3047 712 3315 
Q 1094 3584 1881 3584 
Q 2191 3584 2531 3537 
Q 2872 3491 3272 3391 
z
" transform="scale(0.015625)"/>
      <path id="DejaVuSans-Bold-20" transform="scale(0.015625)"/>
      <path id="DejaVuSans-Bold-50" d="M 588 4666 
L 2584 4666 
Q 3475 4666 3951 4270 
Q 4428 3875 4428 3144 
Q 4428 2409 3951 2014 
Q 3475 1619 2584 1619 
L 1791 1619 
L 1791 0 
L 588 0 
L 588 4666 
z
M 1791 3794 
L 1791 2491 
L 2456 2491 
Q 2806 2491 2997 2661 
Q 3188 2831 3188 3144 
Q 3188 3456 2997 3625 
Q 2806 3794 2456 3794 
L 1791 3794 
z
" transform="scale(0.015625)"/>
      <path id="DejaVuSans-Bold-6f" d="M 2203 2784 
Q 1831 2784 1636 2517 
Q 1441 2250 1441 1747 
Q 1441 1244 1636 976 
Q 1831 709 2203 709 
Q 2569 709 2762 976 
Q 2956 1244 2956 1747 
Q 2956 2250 2762 2517 
Q 2569 2784 2203 2784 
z
M 2203 3584 
Q 3106 3584 3614 3096 
Q 4122 2609 4122 1747 
Q 4122 884 3614 396 
Q 3106 -91 2203 -91 
Q 1297 -91 786 396 
Q 275 884 275 1747 
Q 275 2609 786 3096 
Q 1297 3584 2203 3584 
z
" transform="scale(0.015625)"/>
      <path id="DejaVuSans-Bold-62" d="M 2400 722 
Q 2759 722 2948 984 
Q 3138 1247 3138 1747 
Q 3138 2247 2948 2509 
Q 2759 2772 2400 2772 
Q 2041 2772 1848 2508 
Q 1656 2244 1656 1747 
Q 1656 1250 1848 986 
Q 2041 722 2400 722 
z
M 1656 2988 
Q 1888 3294 2169 3439 
Q 2450 3584 2816 3584 
Q 3463 3584 3878 3070 
Q 4294 2556 4294 1747 
Q 4294 938 3878 423 
Q 3463 -91 2816 -91 
Q 2450 -91 2169 54 
Q 1888 200 1656 506 
L 1656 0 
L 538 0 
L 538 4863 
L 1656 4863 
L 1656 2988 
z
" transform="scale(0.015625)"/>
      <path id="DejaVuSans-Bold-6c" d="M 538 4863 
L 1656 4863 
L 1656 0 
L 538 0 
L 538 4863 
z
" transform="scale(0.015625)"/>
      <path id="DejaVuSans-Bold-65" d="M 4031 1759 
L 4031 1441 
L 1416 1441 
Q 1456 1047 1700 850 
Q 1944 653 2381 653 
Q 2734 653 3104 758 
Q 3475 863 3866 1075 
L 3866 213 
Q 3469 63 3072 -14 
Q 2675 -91 2278 -91 
Q 1328 -91 801 392 
Q 275 875 275 1747 
Q 275 2603 792 3093 
Q 1309 3584 2216 3584 
Q 3041 3584 3536 3087 
Q 4031 2591 4031 1759 
z
M 2881 2131 
Q 2881 2450 2695 2645 
Q 2509 2841 2209 2841 
Q 1884 2841 1681 2658 
Q 1478 2475 1428 2131 
L 2881 2131 
z
" transform="scale(0.015625)"/>
      <path id="DejaVuSans-Bold-6d" d="M 3781 2919 
Q 3994 3244 4286 3414 
Q 4578 3584 4928 3584 
Q 5531 3584 5847 3212 
Q 6163 2841 6163 2131 
L 6163 0 
L 5038 0 
L 5038 1825 
Q 5041 1866 5042 1909 
Q 5044 1953 5044 2034 
Q 5044 2406 4934 2573 
Q 4825 2741 4581 2741 
Q 4263 2741 4089 2478 
Q 3916 2216 3909 1719 
L 3909 0 
L 2784 0 
L 2784 1825 
Q 2784 2406 2684 2573 
Q 2584 2741 2328 2741 
Q 2006 2741 1831 2477 
Q 1656 2213 1656 1722 
L 1656 0 
L 531 0 
L 531 3500 
L 1656 3500 
L 1656 2988 
Q 1863 3284 2130 3434 
Q 2397 3584 2719 3584 
Q 3081 3584 3359 3409 
Q 3638 3234 3781 2919 
z
" transform="scale(0.015625)"/>
      <path id="DejaVuSans-Bold-67" d="M 2919 594 
Q 2688 288 2409 144 
Q 2131 0 1766 0 
Q 1125 0 706 504 
Q 288 1009 288 1791 
Q 288 2575 706 3076 
Q 1125 3578 1766 3578 
Q 2131 3578 2409 3434 
Q 2688 3291 2919 2981 
L 2919 3500 
L 4044 3500 
L 4044 353 
Q 4044 -491 3511 -936 
Q 2978 -1381 1966 -1381 
Q 1638 -1381 1331 -1331 
Q 1025 -1281 716 -1178 
L 716 -306 
Q 1009 -475 1290 -558 
Q 1572 -641 1856 -641 
Q 2406 -641 2662 -400 
Q 2919 -159 2919 353 
L 2919 594 
z
M 2181 2772 
Q 1834 2772 1640 2515 
Q 1447 2259 1447 1791 
Q 1447 1309 1634 1061 
Q 1822 813 2181 813 
Q 2531 813 2725 1069 
Q 2919 1325 2919 1791 
Q 2919 2259 2725 2515 
Q 2531 2772 2181 2772 
z
" transform="scale(0.015625)"/>
     </defs>
     <use xlink:href="#DejaVuSans-Bold-45"/>
     <use xlink:href="#DejaVuSans-Bold-72" transform="translate(68.310547 0)"/>
     <use xlink:href="#DejaVuSans-Bold-64" transform="translate(117.626953 0)"/>
     <use xlink:href="#DejaVuSans-Bold-151" transform="translate(189.208984 0)"/>
     <use xlink:href="#DejaVuSans-Bold-73" transform="translate(257.910156 0)"/>
     <use xlink:href="#DejaVuSans-Bold-20" transform="translate(317.431641 0)"/>
     <use xlink:href="#DejaVuSans-Bold-50" transform="translate(352.246094 0)"/>
     <use xlink:href="#DejaVuSans-Bold-72" transform="translate(425.537109 0)"/>
     <use xlink:href="#DejaVuSans-Bold-6f" transform="translate(474.853516 0)"/>
     <use xlink:href="#DejaVuSans-Bold-62" transform="translate(543.554688 0)"/>
     <use xlink:href="#DejaVuSans-Bold-6c" transform="translate(615.136719 0)"/>
     <use xlink:href="#DejaVuSans-Bold-65" transform="translate(649.414062 0)"/>
     <use xlink:href="#DejaVuSans-Bold-6d" transform="translate(717.236328 0)"/>
     <use xlink:href="#DejaVuSans-Bold-73" transform="translate(821.435547 0)"/>
     <use xlink:href="#DejaVuSans-Bold-20" transform="translate(880.957031 0)"/>
     <use xlink:href="#DejaVuSans-Bold-50" transform="translate(915.771484 0)"/>
     <use xlink:href="#DejaVuSans-Bold-72" transform="translate(989.0625 0)"/>
     <use xlink:href="#DejaVuSans-Bold-6f" transform="translate(1038.378906 0)"/>
     <use xlink:href="#DejaVuSans-Bold-67" transform="translate(1107.080078 0)"/>
     <use xlink:href="#DejaVuSans-Bold-72" transform="translate(1178.662109 0)"/>
     <use xlink:href="#DejaVuSans-Bold-65" transform="translate(1227.978516 0)"/>
     <use xlink:href="#DejaVuSans-Bold-73" transform="translate(1295.800781 0)"/>
     <use xlink:href="#DejaVuSans-Bold-73" transform="translate(1355.322266 0)"/>
    </g>
   </g>
   <g id="legend_1">
    <g id="patch_7">
     <path d="M 55.90125 119.788437 
L 213.771563 119.788437 
Q 215.771563 119.788437 215.771563 117.788437 
L 215.771563 45.397812 
Q 215.771563 43.397812 213.771563 43.397812 
L 55.90125 43.397812 
Q 53.90125 43.397812 53.90125 45.397812 
L 53.90125 117.788437 
Q 53.90125 119.788437 55.90125 119.788437 
z
" style="fill: #f6f8fa; opacity: 0.8; stroke: #d0d7de; stroke-linejoin: miter"/>
    </g>
    <g id="line2d_38">
     <path d="M 57.90125 51.49625 
L 67.90125 51.49625 
L 77.90125 51.49625 
" style="fill: none; stroke: #1a7f37; stroke-width: 2; stroke-linecap: square"/>
    </g>
    <g id="text_25">
     <!-- Solved -->
     <g style="fill: #24292f" transform="translate(85.90125 54.99625) scale(0.1 -0.1)">
      <defs>
       <path id="DejaVuSans-6c" d="M 603 4863 
L 1178 4863 
L 1178 0 
L 603 0 
L 603 4863 
z
" transform="scale(0.015625)"/>
       <path id="DejaVuSans-64" d="M 2906 2969 
L 2906 4863 
L 3481 4863 
L 3481 0 
L 2906 0 
L 2906 525 
Q 2725 213 2448 61 
Q 2172 -91 1784 -91 
Q 1150 -91 751 415 
Q 353 922 353 1747 
Q 353 2572 751 3078 
Q 1150 3584 1784 3584 
Q 2172 3584 2448 3432 
Q 2725 3281 2906 2969 
z
M 947 1747 
Q 947 1113 1208 752 
Q 1469 391 1925 391 
Q 2381 391 2643 752 
Q 2906 1113 2906 1747 
Q 2906 2381 2643 2742 
Q 2381 3103 1925 3103 
Q 1469 3103 1208 2742 
Q 947 2381 947 1747 
z
" transform="scale(0.015625)"/>
      </defs>
      <use xlink:href="#DejaVuSans-53"/>
      <use xlink:href="#DejaVuSans-6f" transform="translate(63.476562 0)"/>
      <use xlink:href="#DejaVuSans-6c" transform="translate(124.658203 0)"/>
      <use xlink:href="#DejaVuSans-76" transform="translate(152.441406 0)"/>
      <use xlink:href="#DejaVuSans-65" transform="translate(211.621094 0)"/>
      <use xlink:href="#DejaVuSans-64" transform="translate(273.144531 0)"/>
     </g>
    </g>
    <g id="line2d_39">
     <path d="M 57.90125 66.174375 
L 67.90125 66.174375 
L 77.90125 66.174375 
" style="fill: none; stroke: #0969da; stroke-width: 2; stroke-linecap: square"/>
    </g>
    <g id="text_26">
     <!-- Lean Formalized Problem -->
     <g style="fill: #24292f" transform="translate(85.90125 69.674375) scale(0.1 -0.1)">
      <defs>
       <path id="DejaVuSans-4c" d="M 628 4666 
L 1259 4666 
L 1259 531 
L 3531 531 
L 3531 0 
L 628 0 
L 628 4666 
z
" transform="scale(0.015625)"/>
       <path id="DejaVuSans-20" transform="scale(0.015625)"/>
       <path id="DejaVuSans-6d" d="M 3328 2828 
Q 3544 3216 3844 3400 
Q 4144 3584 4550 3584 
Q 5097 3584 5394 3201 
Q 5691 2819 5691 2113 
L 5691 0 
L 5113 0 
L 5113 2094 
Q 5113 2597 4934 2840 
Q 4756 3084 4391 3084 
Q 3944 3084 3684 2787 
Q 3425 2491 3425 1978 
L 3425 0 
L 2847 0 
L 2847 2094 
Q 2847 2600 2669 2842 
Q 2491 3084 2119 3084 
Q 1678 3084 1418 2786 
Q 1159 2488 1159 1978 
L 1159 0 
L 581 0 
L 581 3500 
L 1159 3500 
L 1159 2956 
Q 1356 3278 1631 3431 
Q 1906 3584 2284 3584 
Q 2666 3584 2933 3390 
Q 3200 3197 3328 2828 
z
" transform="scale(0.015625)"/>
       <path id="DejaVuSans-69" d="M 603 3500 
L 1178 3500 
L 1178 0 
L 603 0 
L 603 3500 
z
M 603 4863 
L 1178 4863 
L 1178 4134 
L 603 4134 
L 603 4863 
z
" transform="scale(0.015625)"/>
       <path id="DejaVuSans-7a" d="M 353 3500 
L 3084 3500 
L 3084 2975 
L 922 459 
L 3084 459 
L 3084 0 
L 275 0 
L 275 525 
L 2438 3041 
L 353 3041 
L 353 3500 
z
" transform="scale(0.015625)"/>
       <path id="DejaVuSans-50" d="M 1259 4147 
L 1259 2394 
L 2053 2394 
Q 2494 2394 2734 2622 
Q 2975 2850 2975 3272 
Q 2975 3691 2734 3919 
Q 2494 4147 2053 4147 
L 1259 4147 
z
M 628 4666 
L 2053 4666 
Q 2838 4666 3239 4311 
Q 3641 3956 3641 3272 
Q 3641 2581 3239 2228 
Q 2838 1875 2053 1875 
L 1259 1875 
L 1259 0 
L 628 0 
L 628 4666 
z
" transform="scale(0.015625)"/>
      </defs>
      <use xlink:href="#DejaVuSans-4c"/>
      <use xlink:href="#DejaVuSans-65" transform="translate(53.962891 0)"/>
      <use xlink:href="#DejaVuSans-61" transform="translate(115.486328 0)"/>
      <use xlink:href="#DejaVuSans-6e" transform="translate(176.765625 0)"/>
      <use xlink:href="#DejaVuSans-20" transform="translate(240.144531 0)"/>
      <use xlink:href="#DejaVuSans-46" transform="translate(271.931641 0)"/>
      <use xlink:href="#DejaVuSans-6f" transform="translate(325.826172 0)"/>
      <use xlink:href="#DejaVuSans-72" transform="translate(387.007812 0)"/>
      <use xlink:href="#DejaVuSans-6d" transform="translate(426.371094 0)"/>
      <use xlink:href="#DejaVuSans-61" transform="translate(523.783203 0)"/>
      <use xlink:href="#DejaVuSans-6c" transform="translate(585.0625 0)"/>
      <use xlink:href="#DejaVuSans-69" transform="translate(612.845703 0)"/>
      <use xlink:href="#DejaVuSans-7a" transform="translate(640.628906 0)"/>
      <use xlink:href="#DejaVuSans-65" transform="translate(693.119141 0)"/>
      <use xlink:href="#DejaVuSans-64" transform="translate(754.642578 0)"/>
      <use xlink:href="#DejaVuSans-20" transform="translate(818.119141 0)"/>
      <use xlink:href="#DejaVuSans-50" transform="translate(849.90625 0)"/>
      <use xlink:href="#DejaVuSans-72" transform="translate(908.458984 0)"/>
      <use xlink:href="#DejaVuSans-6f" transform="translate(947.322266 0)"/>
      <use xlink:href="#DejaVuSans-62" transform="translate(1008.503906 0)"/>
      <use xlink:href="#DejaVuSans-6c" transform="translate(1071.980469 0)"/>
      <use xlink:href="#DejaVuSans-65" transform="translate(1099.763672 0)"/>
      <use xlink:href="#DejaVuSans-6d" transform="translate(1161.287109 0)"/>
     </g>
    </g>
    <g id="line2d_40">
     <path d="M 57.90125 80.8525 
L 67.90125 80.8525 
L 77.90125 80.8525 
" style="fill: none; stroke: #bf8700; stroke-width: 2; stroke-linecap: square"/>
    </g>
    <g id="text_27">
     <!-- Lean Formalized Solution -->
     <g style="fill: #24292f" transform="translate(85.90125 84.3525) scale(0.1 -0.1)">
      <use xlink:href="#DejaVuSans-4c"/>
      <use xlink:href="#DejaVuSans-65" transform="translate(53.962891 0)"/>
      <use xlink:href="#DejaVuSans-61" transform="translate(115.486328 0)"/>
      <use xlink:href="#DejaVuSans-6e" transform="translate(176.765625 0)"/>
      <use xlink:href="#DejaVuSans-20" transform="translate(240.144531 0)"/>
      <use xlink:href="#DejaVuSans-46" transform="translate(271.931641 0)"/>
      <use xlink:href="#DejaVuSans-6f" transform="translate(325.826172 0)"/>
      <use xlink:href="#DejaVuSans-72" transform="translate(387.007812 0)"/>
      <use xlink:href="#DejaVuSans-6d" transform="translate(426.371094 0)"/>
      <use xlink:href="#DejaVuSans-61" transform="translate(523.783203 0)"/>
      <use xlink:href="#DejaVuSans-6c" transform="translate(585.0625 0)"/>
      <use xlink:href="#DejaVuSans-69" transform="translate(612.845703 0)"/>
      <use xlink:href="#DejaVuSans-7a" transform="translate(640.628906 0)"/>
      <use xlink:href="#DejaVuSans-65" transform="translate(693.119141 0)"/>
      <use xlink:href="#DejaVuSans-64" transform="translate(754.642578 0)"/>
      <use xlink:href="#DejaVuSans-20" transform="translate(818.119141 0)"/>
      <use xlink:href="#DejaVuSans-53" transform="translate(849.90625 0)"/>
      <use xlink:href="#DejaVuSans-6f" transform="translate(913.382812 0)"/>
      <use xlink:href="#DejaVuSans-6c" transform="translate(974.564453 0)"/>
      <use xlink:href="#DejaVuSans-75" transform="translate(1002.347656 0)"/>
      <use xlink:href="#DejaVuSans-74" transform="translate(1065.726562 0)"/>
      <use xlink:href="#DejaVuSans-69" transform="translate(1104.935547 0)"/>
      <use xlink:href="#DejaVuSans-6f" transform="translate(1132.71875 0)"/>
      <use xlink:href="#DejaVuSans-6e" transform="translate(1193.900391 0)"/>
     </g>
    </g>
    <g id="line2d_41">
     <path d="M 57.90125 95.530625 
L 67.90125 95.530625 
L 77.90125 95.530625 
" style="fill: none; stroke: #cf222e; stroke-width: 2; stroke-linecap: square"/>
    </g>
    <g id="text_28">
     <!-- OEIS Linked -->
     <g style="fill: #24292f" transform="translate(85.90125 99.030625) scale(0.1 -0.1)">
      <defs>
       <path id="DejaVuSans-45" d="M 628 4666 
L 3578 4666 
L 3578 4134 
L 1259 4134 
L 1259 2753 
L 3481 2753 
L 3481 2222 
L 1259 2222 
L 1259 531 
L 3634 531 
L 3634 0 
L 628 0 
L 628 4666 
z
" transform="scale(0.015625)"/>
       <path id="DejaVuSans-49" d="M 628 4666 
L 1259 4666 
L 1259 0 
L 628 0 
L 628 4666 
z
" transform="scale(0.015625)"/>
       <path id="DejaVuSans-6b" d="M 581 4863 
L 1159 4863 
L 1159 1991 
L 2875 3500 
L 3609 3500 
L 1753 1863 
L 3688 0 
L 2938 0 
L 1159 1709 
L 1159 0 
L 581 0 
L 581 4863 
z
" transform="scale(0.015625)"/>
      </defs>
      <use xlink:href="#DejaVuSans-4f"/>
      <use xlink:href="#DejaVuSans-45" transform="translate(78.710938 0)"/>
      <use xlink:href="#DejaVuSans-49" transform="translate(141.894531 0)"/>
      <use xlink:href="#DejaVuSans-53" transform="translate(171.386719 0)"/>
      <use xlink:href="#DejaVuSans-20" transform="translate(234.863281 0)"/>
      <use xlink:href="#DejaVuSans-4c" transform="translate(266.650391 0)"/>
      <use xlink:href="#DejaVuSans-69" transform="translate(322.363281 0)"/>
      <use xlink:href="#DejaVuSans-6e" transform="translate(350.146484 0)"/>
      <use xlink:href="#DejaVuSans-6b" transform="translate(413.525391 0)"/>
      <use xlink:href="#DejaVuSans-65" transform="translate(467.810547 0)"/>
      <use xlink:href="#DejaVuSans-64" transform="translate(529.333984 0)"/>
     </g>
    </g>
    <g id="line2d_42">
     <path d="M 57.90125 110.20875 
L 67.90125 110.20875 
L 77.90125 110.20875 
" style="fill: none; stroke: #9467bd; stroke-width: 2; stroke-linecap: square"/>
    </g>
    <g id="text_29">
     <!-- Open Problems -->
     <g style="fill: #24292f" transform="translate(85.90125 113.70875) scale(0.1 -0.1)">
      <defs>
       <path id="DejaVuSans-73" d="M 2834 3397 
L 2834 2853 
Q 2591 2978 2328 3040 
Q 2066 3103 1784 3103 
Q 1356 3103 1142 2972 
Q 928 2841 928 2578 
Q 928 2378 1081 2264 
Q 1234 2150 1697 2047 
L 1894 2003 
Q 2506 1872 2764 1633 
Q 3022 1394 3022 966 
Q 3022 478 2636 193 
Q 2250 -91 1575 -91 
Q 1294 -91 989 -36 
Q 684 19 347 128 
L 347 722 
Q 666 556 975 473 
Q 1284 391 1588 391 
Q 1994 391 2212 530 
Q 2431 669 2431 922 
Q 2431 1156 2273 1281 
Q 2116 1406 1581 1522 
L 1381 1569 
Q 847 1681 609 1914 
Q 372 2147 372 2553 
Q 372 3047 722 3315 
Q 1072 3584 1716 3584 
Q 2034 3584 2315 3537 
Q 2597 3491 2834 3397 
z
" transform="scale(0.015625)"/>
      </defs>
      <use xlink:href="#DejaVuSans-4f"/>
      <use xlink:href="#DejaVuSans-70" transform="translate(78.710938 0)"/>
      <use xlink:href="#DejaVuSans-65" transform="translate(142.1875 0)"/>
      <use xlink:href="#DejaVuSans-6e" transform="translate(203.710938 0)"/>
      <use xlink:href="#DejaVuSans-20" transform="translate(267.089844 0)"/>
      <use xlink:href="#DejaVuSans-50" transform="translate(298.876953 0)"/>
      <use xlink:href="#DejaVuSans-72" transform="translate(357.429688 0)"/>
      <use xlink:href="#DejaVuSans-6f" transform="translate(396.292969 0)"/>
      <use xlink:href="#DejaVuSans-62" transform="translate(457.474609 0)"/>
      <use xlink:href="#DejaVuSans-6c" transform="translate(520.951172 0)"/>
      <use xlink:href="#DejaVuSans-65" transform="translate(548.734375 0)"/>
      <use xlink:href="#DejaVuSans-6d" transform="translate(610.257812 0)"/>
      <use xlink:href="#DejaVuSans-73" transform="translate(707.669922 0)"/>
     </g>
    </g>
   </g>
  </g>
 </g>
 <defs>
  <clipPath id="pcac8832bd3">
   <rect x="48.90125" y="38.397812" width="799.45" height="416.84"/>
  </clipPath>
 </defs>
</svg>
