<?xml version="1.0" encoding="utf-8" standalone="no"?>
<!DOCTYPE svg PUBLIC "-//W3C//DTD SVG 1.1//EN"
  "http://www.w3.org/Graphics/SVG/1.1/DTD/svg11.dtd">
<svg xmlns:xlink="http://www.w3.org/1999/xlink" width="855.55125pt" height="494.729687pt" viewBox="0 0 855.55125 494.729687" xmlns="http://www.w3.org/2000/svg" version="1.1">
 <metadata>
  <rdf:RDF xmlns:dc="http://purl.org/dc/elements/1.1/" xmlns:cc="http://creativecommons.org/ns#" xmlns:rdf="http://www.w3.org/1999/02/22-rdf-syntax-ns#">
   <cc:Work>
    <dc:type rdf:resource="http://purl.org/dc/dcmitype/StillImage"/>
    <dc:date>2026-05-05T12:26:31.997519</dc:date>
    <dc:format>image/svg+xml</dc:format>
    <dc:creator>
     <cc:Agent>
      <dc:title>Matplotlib v3.10.7, https://matplotlib.org/</dc:title>
     </cc:Agent>
    </dc:creator>
   </cc:Work>
  </rdf:RDF>
 </metadata>
 <defs>
  <style type="text/css">*{stroke-linejoin: round; stroke-linecap: butt}</style>
 </defs>
 <g id="figure_1">
  <g id="patch_1">
   <path d="M 0 494.729687 
L 855.55125 494.729687 
L 855.55125 0 
L 0 0 
z
" style="fill: #0d1117"/>
  </g>
  <g id="axes_1">
   <g id="patch_2">
    <path d="M 48.90125 455.237812 
L 848.35125 455.237812 
L 848.35125 38.397812 
L 48.90125 38.397812 
z
" style="fill: #0d1117"/>
   </g>
   <g id="matplotlib.axis_1">
    <g id="xtick_1">
     <g id="line2d_1">
      <path d="M 86.100721 455.237812 
L 86.100721 38.397812 
" clip-path="url(#p04847da074)" style="fill: none; stroke: #30363d; stroke-opacity: 0.25; stroke-width: 0.5; stroke-linecap: square"/>
     </g>
     <g id="line2d_2">
      <defs>
       <path id="m8c145577e7" d="M 0 0 
L 0 3.5 
" style="stroke: #c9d1d9; stroke-width: 0.8"/>
      </defs>
      <g>
       <use xlink:href="#m8c145577e7" x="86.100721" y="455.237812" style="fill: #c9d1d9; stroke: #c9d1d9; stroke-width: 0.8"/>
      </g>
     </g>
     <g id="text_1">
      <!-- Sep -->
      <g style="fill: #c9d1d9" transform="translate(76.675721 469.83625) scale(0.1 -0.1)">
       <defs>
        <path id="DejaVuSans-53" d="M 3425 4513 
L 3425 3897 
Q 3066 4069 2747 4153 
Q 2428 4238 2131 4238 
Q 1616 4238 1336 4038 
Q 1056 3838 1056 3469 
Q 1056 3159 1242 3001 
Q 1428 2844 1947 2747 
L 2328 2669 
Q 3034 2534 3370 2195 
Q 3706 1856 3706 1288 
Q 3706 609 3251 259 
Q 2797 -91 1919 -91 
Q 1588 -91 1214 -16 
Q 841 59 441 206 
L 441 856 
Q 825 641 1194 531 
Q 1563 422 1919 422 
Q 2459 422 2753 634 
Q 3047 847 3047 1241 
Q 3047 1584 2836 1778 
Q 2625 1972 2144 2069 
L 1759 2144 
Q 1053 2284 737 2584 
Q 422 2884 422 3419 
Q 422 4038 858 4394 
Q 1294 4750 2059 4750 
Q 2388 4750 2728 4690 
Q 3069 4631 3425 4513 
z
" transform="scale(0.015625)"/>
        <path id="DejaVuSans-65" d="M 3597 1894 
L 3597 1613 
L 953 1613 
Q 991 1019 1311 708 
Q 1631 397 2203 397 
Q 2534 397 2845 478 
Q 3156 559 3463 722 
L 3463 178 
Q 3153 47 2828 -22 
Q 2503 -91 2169 -91 
Q 1331 -91 842 396 
Q 353 884 353 1716 
Q 353 2575 817 3079 
Q 1281 3584 2069 3584 
Q 2775 3584 3186 3129 
Q 3597 2675 3597 1894 
z
M 3022 2063 
Q 3016 2534 2758 2815 
Q 2500 3097 2075 3097 
Q 1594 3097 1305 2825 
Q 1016 2553 972 2059 
L 3022 2063 
z
" transform="scale(0.015625)"/>
        <path id="DejaVuSans-70" d="M 1159 525 
L 1159 -1331 
L 581 -1331 
L 581 3500 
L 1159 3500 
L 1159 2969 
Q 1341 3281 1617 3432 
Q 1894 3584 2278 3584 
Q 2916 3584 3314 3078 
Q 3713 2572 3713 1747 
Q 3713 922 3314 415 
Q 2916 -91 2278 -91 
Q 1894 -91 1617 61 
Q 1341 213 1159 525 
z
M 3116 1747 
Q 3116 2381 2855 2742 
Q 2594 3103 2138 3103 
Q 1681 3103 1420 2742 
Q 1159 2381 1159 1747 
Q 1159 1113 1420 752 
Q 1681 391 2138 391 
Q 2594 391 2855 752 
Q 3116 1113 3116 1747 
z
" transform="scale(0.015625)"/>
       </defs>
       <use xlink:href="#DejaVuSans-53"/>
       <use xlink:href="#DejaVuSans-65" transform="translate(63.476562 0)"/>
       <use xlink:href="#DejaVuSans-70" transform="translate(125 0)"/>
      </g>
     </g>
    </g>
    <g id="xtick_2">
     <g id="line2d_3">
      <path d="M 174.440397 455.237812 
L 174.440397 38.397812 
" clip-path="url(#p04847da074)" style="fill: none; stroke: #30363d; stroke-opacity: 0.25; stroke-width: 0.5; stroke-linecap: square"/>
     </g>
     <g id="line2d_4">
      <g>
       <use xlink:href="#m8c145577e7" x="174.440397" y="455.237812" style="fill: #c9d1d9; stroke: #c9d1d9; stroke-width: 0.8"/>
      </g>
     </g>
     <g id="text_2">
      <!-- Oct -->
      <g style="fill: #c9d1d9" transform="translate(165.795084 469.83625) scale(0.1 -0.1)">
       <defs>
        <path id="DejaVuSans-4f" d="M 2522 4238 
Q 1834 4238 1429 3725 
Q 1025 3213 1025 2328 
Q 1025 1447 1429 934 
Q 1834 422 2522 422 
Q 3209 422 3611 934 
Q 4013 1447 4013 2328 
Q 4013 3213 3611 3725 
Q 3209 4238 2522 4238 
z
M 2522 4750 
Q 3503 4750 4090 4092 
Q 4678 3434 4678 2328 
Q 4678 1225 4090 567 
Q 3503 -91 2522 -91 
Q 1538 -91 948 565 
Q 359 1222 359 2328 
Q 359 3434 948 4092 
Q 1538 4750 2522 4750 
z
" transform="scale(0.015625)"/>
        <path id="DejaVuSans-63" d="M 3122 3366 
L 3122 2828 
Q 2878 2963 2633 3030 
Q 2388 3097 2138 3097 
Q 1578 3097 1268 2742 
Q 959 2388 959 1747 
Q 959 1106 1268 751 
Q 1578 397 2138 397 
Q 2388 397 2633 464 
Q 2878 531 3122 666 
L 3122 134 
Q 2881 22 2623 -34 
Q 2366 -91 2075 -91 
Q 1284 -91 818 406 
Q 353 903 353 1747 
Q 353 2603 823 3093 
Q 1294 3584 2113 3584 
Q 2378 3584 2631 3529 
Q 2884 3475 3122 3366 
z
" transform="scale(0.015625)"/>
        <path id="DejaVuSans-74" d="M 1172 4494 
L 1172 3500 
L 2356 3500 
L 2356 3053 
L 1172 3053 
L 1172 1153 
Q 1172 725 1289 603 
Q 1406 481 1766 481 
L 2356 481 
L 2356 0 
L 1766 0 
Q 1100 0 847 248 
Q 594 497 594 1153 
L 594 3053 
L 172 3053 
L 172 3500 
L 594 3500 
L 594 4494 
L 1172 4494 
z
" transform="scale(0.015625)"/>
       </defs>
       <use xlink:href="#DejaVuSans-4f"/>
       <use xlink:href="#DejaVuSans-63" transform="translate(78.710938 0)"/>
       <use xlink:href="#DejaVuSans-74" transform="translate(133.691406 0)"/>
      </g>
     </g>
    </g>
    <g id="xtick_3">
     <g id="line2d_5">
      <path d="M 265.724728 455.237812 
L 265.724728 38.397812 
" clip-path="url(#p04847da074)" style="fill: none; stroke: #30363d; stroke-opacity: 0.25; stroke-width: 0.5; stroke-linecap: square"/>
     </g>
     <g id="line2d_6">
      <g>
       <use xlink:href="#m8c145577e7" x="265.724728" y="455.237812" style="fill: #c9d1d9; stroke: #c9d1d9; stroke-width: 0.8"/>
      </g>
     </g>
     <g id="text_3">
      <!-- Nov -->
      <g style="fill: #c9d1d9" transform="translate(255.965353 469.83625) scale(0.1 -0.1)">
       <defs>
        <path id="DejaVuSans-4e" d="M 628 4666 
L 1478 4666 
L 3547 763 
L 3547 4666 
L 4159 4666 
L 4159 0 
L 3309 0 
L 1241 3903 
L 1241 0 
L 628 0 
L 628 4666 
z
" transform="scale(0.015625)"/>
        <path id="DejaVuSans-6f" d="M 1959 3097 
Q 1497 3097 1228 2736 
Q 959 2375 959 1747 
Q 959 1119 1226 758 
Q 1494 397 1959 397 
Q 2419 397 2687 759 
Q 2956 1122 2956 1747 
Q 2956 2369 2687 2733 
Q 2419 3097 1959 3097 
z
M 1959 3584 
Q 2709 3584 3137 3096 
Q 3566 2609 3566 1747 
Q 3566 888 3137 398 
Q 2709 -91 1959 -91 
Q 1206 -91 779 398 
Q 353 888 353 1747 
Q 353 2609 779 3096 
Q 1206 3584 1959 3584 
z
" transform="scale(0.015625)"/>
        <path id="DejaVuSans-76" d="M 191 3500 
L 800 3500 
L 1894 563 
L 2988 3500 
L 3597 3500 
L 2284 0 
L 1503 0 
L 191 3500 
z
" transform="scale(0.015625)"/>
       </defs>
       <use xlink:href="#DejaVuSans-4e"/>
       <use xlink:href="#DejaVuSans-6f" transform="translate(74.804688 0)"/>
       <use xlink:href="#DejaVuSans-76" transform="translate(135.986328 0)"/>
      </g>
     </g>
    </g>
    <g id="xtick_4">
     <g id="line2d_7">
      <path d="M 354.064404 455.237812 
L 354.064404 38.397812 
" clip-path="url(#p04847da074)" style="fill: none; stroke: #30363d; stroke-opacity: 0.25; stroke-width: 0.5; stroke-linecap: square"/>
     </g>
     <g id="line2d_8">
      <g>
       <use xlink:href="#m8c145577e7" x="354.064404" y="455.237812" style="fill: #c9d1d9; stroke: #c9d1d9; stroke-width: 0.8"/>
      </g>
     </g>
     <g id="text_4">
      <!-- Dec -->
      <g style="fill: #c9d1d9" transform="translate(344.388623 469.83625) scale(0.1 -0.1)">
       <defs>
        <path id="DejaVuSans-44" d="M 1259 4147 
L 1259 519 
L 2022 519 
Q 2988 519 3436 956 
Q 3884 1394 3884 2338 
Q 3884 3275 3436 3711 
Q 2988 4147 2022 4147 
L 1259 4147 
z
M 628 4666 
L 1925 4666 
Q 3281 4666 3915 4102 
Q 4550 3538 4550 2338 
Q 4550 1131 3912 565 
Q 3275 0 1925 0 
L 628 0 
L 628 4666 
z
" transform="scale(0.015625)"/>
       </defs>
       <use xlink:href="#DejaVuSans-44"/>
       <use xlink:href="#DejaVuSans-65" transform="translate(77.001953 0)"/>
       <use xlink:href="#DejaVuSans-63" transform="translate(138.525391 0)"/>
      </g>
     </g>
    </g>
    <g id="xtick_5">
     <g id="line2d_9">
      <path d="M 445.348736 455.237812 
L 445.348736 38.397812 
" clip-path="url(#p04847da074)" style="fill: none; stroke: #30363d; stroke-opacity: 0.25; stroke-width: 0.5; stroke-linecap: square"/>
     </g>
     <g id="line2d_10">
      <g>
       <use xlink:href="#m8c145577e7" x="445.348736" y="455.237812" style="fill: #c9d1d9; stroke: #c9d1d9; stroke-width: 0.8"/>
      </g>
     </g>
     <g id="text_5">
      <!-- 2026 -->
      <g style="fill: #c9d1d9" transform="translate(432.623736 469.83625) scale(0.1 -0.1)">
       <defs>
        <path id="DejaVuSans-32" d="M 1228 531 
L 3431 531 
L 3431 0 
L 469 0 
L 469 531 
Q 828 903 1448 1529 
Q 2069 2156 2228 2338 
Q 2531 2678 2651 2914 
Q 2772 3150 2772 3378 
Q 2772 3750 2511 3984 
Q 2250 4219 1831 4219 
Q 1534 4219 1204 4116 
Q 875 4013 500 3803 
L 500 4441 
Q 881 4594 1212 4672 
Q 1544 4750 1819 4750 
Q 2544 4750 2975 4387 
Q 3406 4025 3406 3419 
Q 3406 3131 3298 2873 
Q 3191 2616 2906 2266 
Q 2828 2175 2409 1742 
Q 1991 1309 1228 531 
z
" transform="scale(0.015625)"/>
        <path id="DejaVuSans-30" d="M 2034 4250 
Q 1547 4250 1301 3770 
Q 1056 3291 1056 2328 
Q 1056 1369 1301 889 
Q 1547 409 2034 409 
Q 2525 409 2770 889 
Q 3016 1369 3016 2328 
Q 3016 3291 2770 3770 
Q 2525 4250 2034 4250 
z
M 2034 4750 
Q 2819 4750 3233 4129 
Q 3647 3509 3647 2328 
Q 3647 1150 3233 529 
Q 2819 -91 2034 -91 
Q 1250 -91 836 529 
Q 422 1150 422 2328 
Q 422 3509 836 4129 
Q 1250 4750 2034 4750 
z
" transform="scale(0.015625)"/>
        <path id="DejaVuSans-36" d="M 2113 2584 
Q 1688 2584 1439 2293 
Q 1191 2003 1191 1497 
Q 1191 994 1439 701 
Q 1688 409 2113 409 
Q 2538 409 2786 701 
Q 3034 994 3034 1497 
Q 3034 2003 2786 2293 
Q 2538 2584 2113 2584 
z
M 3366 4563 
L 3366 3988 
Q 3128 4100 2886 4159 
Q 2644 4219 2406 4219 
Q 1781 4219 1451 3797 
Q 1122 3375 1075 2522 
Q 1259 2794 1537 2939 
Q 1816 3084 2150 3084 
Q 2853 3084 3261 2657 
Q 3669 2231 3669 1497 
Q 3669 778 3244 343 
Q 2819 -91 2113 -91 
Q 1303 -91 875 529 
Q 447 1150 447 2328 
Q 447 3434 972 4092 
Q 1497 4750 2381 4750 
Q 2619 4750 2861 4703 
Q 3103 4656 3366 4563 
z
" transform="scale(0.015625)"/>
       </defs>
       <use xlink:href="#DejaVuSans-32"/>
       <use xlink:href="#DejaVuSans-30" transform="translate(63.623047 0)"/>
       <use xlink:href="#DejaVuSans-32" transform="translate(127.246094 0)"/>
       <use xlink:href="#DejaVuSans-36" transform="translate(190.869141 0)"/>
      </g>
     </g>
    </g>
    <g id="xtick_6">
     <g id="line2d_11">
      <path d="M 536.633067 455.237812 
L 536.633067 38.397812 
" clip-path="url(#p04847da074)" style="fill: none; stroke: #30363d; stroke-opacity: 0.25; stroke-width: 0.5; stroke-linecap: square"/>
     </g>
     <g id="line2d_12">
      <g>
       <use xlink:href="#m8c145577e7" x="536.633067" y="455.237812" style="fill: #c9d1d9; stroke: #c9d1d9; stroke-width: 0.8"/>
      </g>
     </g>
     <g id="text_6">
      <!-- Feb -->
      <g style="fill: #c9d1d9" transform="translate(527.781505 469.83625) scale(0.1 -0.1)">
       <defs>
        <path id="DejaVuSans-46" d="M 628 4666 
L 3309 4666 
L 3309 4134 
L 1259 4134 
L 1259 2759 
L 3109 2759 
L 3109 2228 
L 1259 2228 
L 1259 0 
L 628 0 
L 628 4666 
z
" transform="scale(0.015625)"/>
        <path id="DejaVuSans-62" d="M 3116 1747 
Q 3116 2381 2855 2742 
Q 2594 3103 2138 3103 
Q 1681 3103 1420 2742 
Q 1159 2381 1159 1747 
Q 1159 1113 1420 752 
Q 1681 391 2138 391 
Q 2594 391 2855 752 
Q 3116 1113 3116 1747 
z
M 1159 2969 
Q 1341 3281 1617 3432 
Q 1894 3584 2278 3584 
Q 2916 3584 3314 3078 
Q 3713 2572 3713 1747 
Q 3713 922 3314 415 
Q 2916 -91 2278 -91 
Q 1894 -91 1617 61 
Q 1341 213 1159 525 
L 1159 0 
L 581 0 
L 581 4863 
L 1159 4863 
L 1159 2969 
z
" transform="scale(0.015625)"/>
       </defs>
       <use xlink:href="#DejaVuSans-46"/>
       <use xlink:href="#DejaVuSans-65" transform="translate(52.019531 0)"/>
       <use xlink:href="#DejaVuSans-62" transform="translate(113.542969 0)"/>
      </g>
     </g>
    </g>
    <g id="xtick_7">
     <g id="line2d_13">
      <path d="M 619.083431 455.237812 
L 619.083431 38.397812 
" clip-path="url(#p04847da074)" style="fill: none; stroke: #30363d; stroke-opacity: 0.25; stroke-width: 0.5; stroke-linecap: square"/>
     </g>
     <g id="line2d_14">
      <g>
       <use xlink:href="#m8c145577e7" x="619.083431" y="455.237812" style="fill: #c9d1d9; stroke: #c9d1d9; stroke-width: 0.8"/>
      </g>
     </g>
     <g id="text_7">
      <!-- Mar -->
      <g style="fill: #c9d1d9" transform="translate(609.649837 469.83625) scale(0.1 -0.1)">
       <defs>
        <path id="DejaVuSans-4d" d="M 628 4666 
L 1569 4666 
L 2759 1491 
L 3956 4666 
L 4897 4666 
L 4897 0 
L 4281 0 
L 4281 4097 
L 3078 897 
L 2444 897 
L 1241 4097 
L 1241 0 
L 628 0 
L 628 4666 
z
" transform="scale(0.015625)"/>
        <path id="DejaVuSans-61" d="M 2194 1759 
Q 1497 1759 1228 1600 
Q 959 1441 959 1056 
Q 959 750 1161 570 
Q 1363 391 1709 391 
Q 2188 391 2477 730 
Q 2766 1069 2766 1631 
L 2766 1759 
L 2194 1759 
z
M 3341 1997 
L 3341 0 
L 2766 0 
L 2766 531 
Q 2569 213 2275 61 
Q 1981 -91 1556 -91 
Q 1019 -91 701 211 
Q 384 513 384 1019 
Q 384 1609 779 1909 
Q 1175 2209 1959 2209 
L 2766 2209 
L 2766 2266 
Q 2766 2663 2505 2880 
Q 2244 3097 1772 3097 
Q 1472 3097 1187 3025 
Q 903 2953 641 2809 
L 641 3341 
Q 956 3463 1253 3523 
Q 1550 3584 1831 3584 
Q 2591 3584 2966 3190 
Q 3341 2797 3341 1997 
z
" transform="scale(0.015625)"/>
        <path id="DejaVuSans-72" d="M 2631 2963 
Q 2534 3019 2420 3045 
Q 2306 3072 2169 3072 
Q 1681 3072 1420 2755 
Q 1159 2438 1159 1844 
L 1159 0 
L 581 0 
L 581 3500 
L 1159 3500 
L 1159 2956 
Q 1341 3275 1631 3429 
Q 1922 3584 2338 3584 
Q 2397 3584 2469 3576 
Q 2541 3569 2628 3553 
L 2631 2963 
z
" transform="scale(0.015625)"/>
       </defs>
       <use xlink:href="#DejaVuSans-4d"/>
       <use xlink:href="#DejaVuSans-61" transform="translate(86.279297 0)"/>
       <use xlink:href="#DejaVuSans-72" transform="translate(147.558594 0)"/>
      </g>
     </g>
    </g>
    <g id="xtick_8">
     <g id="line2d_15">
      <path d="M 710.367763 455.237812 
L 710.367763 38.397812 
" clip-path="url(#p04847da074)" style="fill: none; stroke: #30363d; stroke-opacity: 0.25; stroke-width: 0.5; stroke-linecap: square"/>
     </g>
     <g id="line2d_16">
      <g>
       <use xlink:href="#m8c145577e7" x="710.367763" y="455.237812" style="fill: #c9d1d9; stroke: #c9d1d9; stroke-width: 0.8"/>
      </g>
     </g>
     <g id="text_8">
      <!-- Apr -->
      <g style="fill: #c9d1d9" transform="translate(701.717763 469.83625) scale(0.1 -0.1)">
       <defs>
        <path id="DejaVuSans-41" d="M 2188 4044 
L 1331 1722 
L 3047 1722 
L 2188 4044 
z
M 1831 4666 
L 2547 4666 
L 4325 0 
L 3669 0 
L 3244 1197 
L 1141 1197 
L 716 0 
L 50 0 
L 1831 4666 
z
" transform="scale(0.015625)"/>
       </defs>
       <use xlink:href="#DejaVuSans-41"/>
       <use xlink:href="#DejaVuSans-70" transform="translate(68.408203 0)"/>
       <use xlink:href="#DejaVuSans-72" transform="translate(131.884766 0)"/>
      </g>
     </g>
    </g>
    <g id="xtick_9">
     <g id="line2d_17">
      <path d="M 798.707438 455.237812 
L 798.707438 38.397812 
" clip-path="url(#p04847da074)" style="fill: none; stroke: #30363d; stroke-opacity: 0.25; stroke-width: 0.5; stroke-linecap: square"/>
     </g>
     <g id="line2d_18">
      <g>
       <use xlink:href="#m8c145577e7" x="798.707438" y="455.237812" style="fill: #c9d1d9; stroke: #c9d1d9; stroke-width: 0.8"/>
      </g>
     </g>
     <g id="text_9">
      <!-- May -->
      <g style="fill: #c9d1d9" transform="translate(788.369938 469.83625) scale(0.1 -0.1)">
       <defs>
        <path id="DejaVuSans-79" d="M 2059 -325 
Q 1816 -950 1584 -1140 
Q 1353 -1331 966 -1331 
L 506 -1331 
L 506 -850 
L 844 -850 
Q 1081 -850 1212 -737 
Q 1344 -625 1503 -206 
L 1606 56 
L 191 3500 
L 800 3500 
L 1894 763 
L 2988 3500 
L 3597 3500 
L 2059 -325 
z
" transform="scale(0.015625)"/>
       </defs>
       <use xlink:href="#DejaVuSans-4d"/>
       <use xlink:href="#DejaVuSans-61" transform="translate(86.279297 0)"/>
       <use xlink:href="#DejaVuSans-79" transform="translate(147.558594 0)"/>
      </g>
     </g>
    </g>
    <g id="text_10">
     <!-- Date -->
     <g style="fill: #c9d1d9" transform="translate(434.285313 485.034062) scale(0.12 -0.12)">
      <use xlink:href="#DejaVuSans-44"/>
      <use xlink:href="#DejaVuSans-61" transform="translate(77.001953 0)"/>
      <use xlink:href="#DejaVuSans-74" transform="translate(138.28125 0)"/>
      <use xlink:href="#DejaVuSans-65" transform="translate(177.490234 0)"/>
     </g>
    </g>
   </g>
   <g id="matplotlib.axis_2">
    <g id="ytick_1">
     <g id="line2d_19">
      <path d="M 48.90125 455.237812 
L 848.35125 455.237812 
" clip-path="url(#p04847da074)" style="fill: none; stroke: #30363d; stroke-opacity: 0.25; stroke-width: 0.5; stroke-linecap: square"/>
     </g>
     <g id="line2d_20">
      <defs>
       <path id="m022cd2c15c" d="M 0 0 
L -3.5 0 
" style="stroke: #c9d1d9; stroke-width: 0.8"/>
      </defs>
      <g>
       <use xlink:href="#m022cd2c15c" x="48.90125" y="455.237812" style="fill: #c9d1d9; stroke: #c9d1d9; stroke-width: 0.8"/>
      </g>
     </g>
     <g id="text_11">
      <!-- 0 -->
      <g style="fill: #c9d1d9" transform="translate(35.53875 459.037031) scale(0.1 -0.1)">
       <use xlink:href="#DejaVuSans-30"/>
      </g>
     </g>
    </g>
    <g id="ytick_2">
     <g id="line2d_21">
      <path d="M 48.90125 399.659146 
L 848.35125 399.659146 
" clip-path="url(#p04847da074)" style="fill: none; stroke: #30363d; stroke-opacity: 0.25; stroke-width: 0.5; stroke-linecap: square"/>
     </g>
     <g id="line2d_22">
      <g>
       <use xlink:href="#m022cd2c15c" x="48.90125" y="399.659146" style="fill: #c9d1d9; stroke: #c9d1d9; stroke-width: 0.8"/>
      </g>
     </g>
     <g id="text_12">
      <!-- 100 -->
      <g style="fill: #c9d1d9" transform="translate(22.81375 403.458365) scale(0.1 -0.1)">
       <defs>
        <path id="DejaVuSans-31" d="M 794 531 
L 1825 531 
L 1825 4091 
L 703 3866 
L 703 4441 
L 1819 4666 
L 2450 4666 
L 2450 531 
L 3481 531 
L 3481 0 
L 794 0 
L 794 531 
z
" transform="scale(0.015625)"/>
       </defs>
       <use xlink:href="#DejaVuSans-31"/>
       <use xlink:href="#DejaVuSans-30" transform="translate(63.623047 0)"/>
       <use xlink:href="#DejaVuSans-30" transform="translate(127.246094 0)"/>
      </g>
     </g>
    </g>
    <g id="ytick_3">
     <g id="line2d_23">
      <path d="M 48.90125 344.080479 
L 848.35125 344.080479 
" clip-path="url(#p04847da074)" style="fill: none; stroke: #30363d; stroke-opacity: 0.25; stroke-width: 0.5; stroke-linecap: square"/>
     </g>
     <g id="line2d_24">
      <g>
       <use xlink:href="#m022cd2c15c" x="48.90125" y="344.080479" style="fill: #c9d1d9; stroke: #c9d1d9; stroke-width: 0.8"/>
      </g>
     </g>
     <g id="text_13">
      <!-- 200 -->
      <g style="fill: #c9d1d9" transform="translate(22.81375 347.879698) scale(0.1 -0.1)">
       <use xlink:href="#DejaVuSans-32"/>
       <use xlink:href="#DejaVuSans-30" transform="translate(63.623047 0)"/>
       <use xlink:href="#DejaVuSans-30" transform="translate(127.246094 0)"/>
      </g>
     </g>
    </g>
    <g id="ytick_4">
     <g id="line2d_25">
      <path d="M 48.90125 288.501812 
L 848.35125 288.501812 
" clip-path="url(#p04847da074)" style="fill: none; stroke: #30363d; stroke-opacity: 0.25; stroke-width: 0.5; stroke-linecap: square"/>
     </g>
     <g id="line2d_26">
      <g>
       <use xlink:href="#m022cd2c15c" x="48.90125" y="288.501812" style="fill: #c9d1d9; stroke: #c9d1d9; stroke-width: 0.8"/>
      </g>
     </g>
     <g id="text_14">
      <!-- 300 -->
      <g style="fill: #c9d1d9" transform="translate(22.81375 292.301031) scale(0.1 -0.1)">
       <defs>
        <path id="DejaVuSans-33" d="M 2597 2516 
Q 3050 2419 3304 2112 
Q 3559 1806 3559 1356 
Q 3559 666 3084 287 
Q 2609 -91 1734 -91 
Q 1441 -91 1130 -33 
Q 819 25 488 141 
L 488 750 
Q 750 597 1062 519 
Q 1375 441 1716 441 
Q 2309 441 2620 675 
Q 2931 909 2931 1356 
Q 2931 1769 2642 2001 
Q 2353 2234 1838 2234 
L 1294 2234 
L 1294 2753 
L 1863 2753 
Q 2328 2753 2575 2939 
Q 2822 3125 2822 3475 
Q 2822 3834 2567 4026 
Q 2313 4219 1838 4219 
Q 1578 4219 1281 4162 
Q 984 4106 628 3988 
L 628 4550 
Q 988 4650 1302 4700 
Q 1616 4750 1894 4750 
Q 2613 4750 3031 4423 
Q 3450 4097 3450 3541 
Q 3450 3153 3228 2886 
Q 3006 2619 2597 2516 
z
" transform="scale(0.015625)"/>
       </defs>
       <use xlink:href="#DejaVuSans-33"/>
       <use xlink:href="#DejaVuSans-30" transform="translate(63.623047 0)"/>
       <use xlink:href="#DejaVuSans-30" transform="translate(127.246094 0)"/>
      </g>
     </g>
    </g>
    <g id="ytick_5">
     <g id="line2d_27">
      <path d="M 48.90125 232.923146 
L 848.35125 232.923146 
" clip-path="url(#p04847da074)" style="fill: none; stroke: #30363d; stroke-opacity: 0.25; stroke-width: 0.5; stroke-linecap: square"/>
     </g>
     <g id="line2d_28">
      <g>
       <use xlink:href="#m022cd2c15c" x="48.90125" y="232.923146" style="fill: #c9d1d9; stroke: #c9d1d9; stroke-width: 0.8"/>
      </g>
     </g>
     <g id="text_15">
      <!-- 400 -->
      <g style="fill: #c9d1d9" transform="translate(22.81375 236.722365) scale(0.1 -0.1)">
       <defs>
        <path id="DejaVuSans-34" d="M 2419 4116 
L 825 1625 
L 2419 1625 
L 2419 4116 
z
M 2253 4666 
L 3047 4666 
L 3047 1625 
L 3713 1625 
L 3713 1100 
L 3047 1100 
L 3047 0 
L 2419 0 
L 2419 1100 
L 313 1100 
L 313 1709 
L 2253 4666 
z
" transform="scale(0.015625)"/>
       </defs>
       <use xlink:href="#DejaVuSans-34"/>
       <use xlink:href="#DejaVuSans-30" transform="translate(63.623047 0)"/>
       <use xlink:href="#DejaVuSans-30" transform="translate(127.246094 0)"/>
      </g>
     </g>
    </g>
    <g id="ytick_6">
     <g id="line2d_29">
      <path d="M 48.90125 177.344479 
L 848.35125 177.344479 
" clip-path="url(#p04847da074)" style="fill: none; stroke: #30363d; stroke-opacity: 0.25; stroke-width: 0.5; stroke-linecap: square"/>
     </g>
     <g id="line2d_30">
      <g>
       <use xlink:href="#m022cd2c15c" x="48.90125" y="177.344479" style="fill: #c9d1d9; stroke: #c9d1d9; stroke-width: 0.8"/>
      </g>
     </g>
     <g id="text_16">
      <!-- 500 -->
      <g style="fill: #c9d1d9" transform="translate(22.81375 181.143698) scale(0.1 -0.1)">
       <defs>
        <path id="DejaVuSans-35" d="M 691 4666 
L 3169 4666 
L 3169 4134 
L 1269 4134 
L 1269 2991 
Q 1406 3038 1543 3061 
Q 1681 3084 1819 3084 
Q 2600 3084 3056 2656 
Q 3513 2228 3513 1497 
Q 3513 744 3044 326 
Q 2575 -91 1722 -91 
Q 1428 -91 1123 -41 
Q 819 9 494 109 
L 494 744 
Q 775 591 1075 516 
Q 1375 441 1709 441 
Q 2250 441 2565 725 
Q 2881 1009 2881 1497 
Q 2881 1984 2565 2268 
Q 2250 2553 1709 2553 
Q 1456 2553 1204 2497 
Q 953 2441 691 2322 
L 691 4666 
z
" transform="scale(0.015625)"/>
       </defs>
       <use xlink:href="#DejaVuSans-35"/>
       <use xlink:href="#DejaVuSans-30" transform="translate(63.623047 0)"/>
       <use xlink:href="#DejaVuSans-30" transform="translate(127.246094 0)"/>
      </g>
     </g>
    </g>
    <g id="ytick_7">
     <g id="line2d_31">
      <path d="M 48.90125 121.765812 
L 848.35125 121.765812 
" clip-path="url(#p04847da074)" style="fill: none; stroke: #30363d; stroke-opacity: 0.25; stroke-width: 0.5; stroke-linecap: square"/>
     </g>
     <g id="line2d_32">
      <g>
       <use xlink:href="#m022cd2c15c" x="48.90125" y="121.765812" style="fill: #c9d1d9; stroke: #c9d1d9; stroke-width: 0.8"/>
      </g>
     </g>
     <g id="text_17">
      <!-- 600 -->
      <g style="fill: #c9d1d9" transform="translate(22.81375 125.565031) scale(0.1 -0.1)">
       <use xlink:href="#DejaVuSans-36"/>
       <use xlink:href="#DejaVuSans-30" transform="translate(63.623047 0)"/>
       <use xlink:href="#DejaVuSans-30" transform="translate(127.246094 0)"/>
      </g>
     </g>
    </g>
    <g id="ytick_8">
     <g id="line2d_33">
      <path d="M 48.90125 66.187146 
L 848.35125 66.187146 
" clip-path="url(#p04847da074)" style="fill: none; stroke: #30363d; stroke-opacity: 0.25; stroke-width: 0.5; stroke-linecap: square"/>
     </g>
     <g id="line2d_34">
      <g>
       <use xlink:href="#m022cd2c15c" x="48.90125" y="66.187146" style="fill: #c9d1d9; stroke: #c9d1d9; stroke-width: 0.8"/>
      </g>
     </g>
     <g id="text_18">
      <!-- 700 -->
      <g style="fill: #c9d1d9" transform="translate(22.81375 69.986365) scale(0.1 -0.1)">
       <defs>
        <path id="DejaVuSans-37" d="M 525 4666 
L 3525 4666 
L 3525 4397 
L 1831 0 
L 1172 0 
L 2766 4134 
L 525 4134 
L 525 4666 
z
" transform="scale(0.015625)"/>
       </defs>
       <use xlink:href="#DejaVuSans-37"/>
       <use xlink:href="#DejaVuSans-30" transform="translate(63.623047 0)"/>
       <use xlink:href="#DejaVuSans-30" transform="translate(127.246094 0)"/>
      </g>
     </g>
    </g>
    <g id="text_19">
     <!-- Count -->
     <g style="fill: #c9d1d9" transform="translate(16.318125 264.635937) rotate(-90) scale(0.12 -0.12)">
      <defs>
       <path id="DejaVuSans-43" d="M 4122 4306 
L 4122 3641 
Q 3803 3938 3442 4084 
Q 3081 4231 2675 4231 
Q 1875 4231 1450 3742 
Q 1025 3253 1025 2328 
Q 1025 1406 1450 917 
Q 1875 428 2675 428 
Q 3081 428 3442 575 
Q 3803 722 4122 1019 
L 4122 359 
Q 3791 134 3420 21 
Q 3050 -91 2638 -91 
Q 1578 -91 968 557 
Q 359 1206 359 2328 
Q 359 3453 968 4101 
Q 1578 4750 2638 4750 
Q 3056 4750 3426 4639 
Q 3797 4528 4122 4306 
z
" transform="scale(0.015625)"/>
       <path id="DejaVuSans-75" d="M 544 1381 
L 544 3500 
L 1119 3500 
L 1119 1403 
Q 1119 906 1312 657 
Q 1506 409 1894 409 
Q 2359 409 2629 706 
Q 2900 1003 2900 1516 
L 2900 3500 
L 3475 3500 
L 3475 0 
L 2900 0 
L 2900 538 
Q 2691 219 2414 64 
Q 2138 -91 1772 -91 
Q 1169 -91 856 284 
Q 544 659 544 1381 
z
M 1991 3584 
L 1991 3584 
z
" transform="scale(0.015625)"/>
       <path id="DejaVuSans-6e" d="M 3513 2113 
L 3513 0 
L 2938 0 
L 2938 2094 
Q 2938 2591 2744 2837 
Q 2550 3084 2163 3084 
Q 1697 3084 1428 2787 
Q 1159 2491 1159 1978 
L 1159 0 
L 581 0 
L 581 3500 
L 1159 3500 
L 1159 2956 
Q 1366 3272 1645 3428 
Q 1925 3584 2291 3584 
Q 2894 3584 3203 3211 
Q 3513 2838 3513 2113 
z
" transform="scale(0.015625)"/>
      </defs>
      <use xlink:href="#DejaVuSans-43"/>
      <use xlink:href="#DejaVuSans-6f" transform="translate(69.824219 0)"/>
      <use xlink:href="#DejaVuSans-75" transform="translate(131.005859 0)"/>
      <use xlink:href="#DejaVuSans-6e" transform="translate(194.384766 0)"/>
      <use xlink:href="#DejaVuSans-74" transform="translate(257.763672 0)"/>
     </g>
    </g>
   </g>
   <g id="line2d_35">
    <path d="M 85.239886 454.682026 
L 85.296292 454.682026 
L 85.43238 454.126239 
L 85.509063 454.126239 
L 85.697637 257.933546 
L 88.069755 257.933546 
L 88.080593 261.268266 
L 90.950406 261.268266 
L 91.089288 260.712479 
L 91.487703 260.712479 
L 91.810593 260.156692 
L 93.811357 259.600906 
L 93.850858 260.156692 
L 93.919737 259.600906 
L 100.142537 259.600906 
L 103.880342 260.712479 
L 104.436486 259.600906 
L 104.842569 259.600906 
L 105.866042 259.045119 
L 106.294244 256.821972 
L 107.128018 256.821972 
L 108.343029 260.712479 
L 108.42186 256.821972 
L 109.354198 256.266186 
L 111.780642 256.266186 
L 112.420662 255.710399 
L 113.371336 255.710399 
L 113.683353 254.598826 
L 119.551739 254.598826 
L 119.983929 253.487252 
L 120.006082 252.375679 
L 121.872019 252.375679 
L 124.623432 251.264106 
L 126.066756 251.264106 
L 126.088602 250.708319 
L 129.403249 250.708319 
L 130.225503 247.929386 
L 132.82774 247.929386 
L 132.845804 247.373599 
L 147.419635 247.373599 
L 150.14385 246.817812 
L 150.236859 247.373599 
L 153.062229 246.817812 
L 162.894278 246.817812 
L 167.659747 246.262026 
L 167.751802 245.706239 
L 167.978172 245.150452 
L 170.666534 245.150452 
L 171.810724 244.594666 
L 176.529228 244.594666 
L 176.708361 247.373599 
L 176.717154 245.150452 
L 176.946558 245.150452 
L 178.085703 242.927306 
L 183.663032 242.927306 
L 187.93752 242.371519 
L 192.688334 242.371519 
L 192.896811 241.815732 
L 205.24177 241.815732 
L 205.768638 241.259946 
L 208.766155 241.259946 
L 208.787285 240.148372 
L 214.498623 240.148372 
L 214.614466 236.257866 
L 224.951674 236.257866 
L 224.954775 235.702079 
L 225.254148 235.702079 
L 226.557022 235.146292 
L 227.881061 235.146292 
L 228.302174 234.590506 
L 228.344299 235.146292 
L 229.308606 234.590506 
L 229.313002 234.034719 
L 229.33553 234.590506 
L 229.892561 234.034719 
L 234.966741 234.034719 
L 236.544348 233.478932 
L 238.416317 233.478932 
L 241.59583 232.923146 
L 244.60582 232.923146 
L 246.931348 231.811572 
L 252.020627 231.811572 
L 254.981097 230.699999 
L 255.815212 231.255786 
L 259.947239 231.255786 
L 264.608349 229.032639 
L 271.559816 229.032639 
L 273.71572 228.476852 
L 312.136492 228.476852 
L 312.446772 227.921066 
L 326.457949 227.921066 
L 326.692056 227.365279 
L 350.533441 227.365279 
L 355.783245 226.809492 
L 355.813611 227.365279 
L 359.571694 225.697919 
L 365.086892 225.697919 
L 368.098382 225.142132 
L 368.103323 224.586346 
L 374.386824 224.586346 
L 376.642042 225.142132 
L 377.452742 224.586346 
L 387.968504 224.586346 
L 388.41603 225.142132 
L 389.23583 224.586346 
L 389.517549 222.363199 
L 394.336594 222.363199 
L 394.340752 221.807412 
L 409.086935 221.807412 
L 409.945656 221.251626 
L 412.779615 221.251626 
L 413.056085 220.695839 
L 426.875417 220.695839 
L 426.894196 220.140052 
L 430.350622 220.140052 
L 430.355768 219.584266 
L 431.194484 219.584266 
L 431.238279 219.028479 
L 432.54071 219.028479 
L 432.745336 218.472692 
L 435.532943 218.472692 
L 435.956681 217.361119 
L 437.491276 215.137972 
L 441.20219 215.137972 
L 441.476172 212.359039 
L 442.720528 212.359039 
L 443.331237 211.247466 
L 446.478202 211.247466 
L 447.510808 210.691679 
L 450.466643 210.691679 
L 450.862808 210.135892 
L 458.891119 210.135892 
L 459.088929 209.580106 
L 459.831466 209.580106 
L 460.984279 209.024319 
L 473.969529 209.024319 
L 474.086191 208.468532 
L 474.502533 208.468532 
L 475.371683 207.356959 
L 476.590239 207.356959 
L 476.883239 206.801172 
L 477.165538 206.801172 
L 477.272656 206.245386 
L 480.531409 206.245386 
L 481.08619 205.689599 
L 483.922671 205.689599 
L 484.104531 205.133812 
L 485.658245 205.133812 
L 485.757798 204.578026 
L 490.586386 204.578026 
L 490.690199 204.022239 
L 493.506299 204.022239 
L 494.446884 201.799092 
L 495.489715 201.799092 
L 495.490806 201.243306 
L 499.725112 201.243306 
L 500.50139 200.687519 
L 503.743545 200.687519 
L 504.382133 200.131732 
L 504.62234 200.131732 
L 505.246308 199.575946 
L 506.840171 199.575946 
L 507.024382 199.020159 
L 511.021786 199.020159 
L 512.052177 198.464372 
L 512.127225 197.908586 
L 512.460817 197.908586 
L 513.513736 195.685439 
L 516.779134 195.685439 
L 516.80265 195.129652 
L 519.910353 195.129652 
L 520.206488 194.573866 
L 520.559779 194.573866 
L 520.915149 194.018079 
L 520.989276 194.573866 
L 521.255386 194.018079 
L 522.437679 194.018079 
L 522.448994 193.462292 
L 522.762954 193.462292 
L 522.90044 192.906506 
L 523.850432 192.350719 
L 530.460094 192.350719 
L 531.493177 191.794932 
L 532.184728 191.794932 
L 532.745781 191.239146 
L 533.313343 191.794932 
L 535.65022 191.794932 
L 535.751 190.683359 
L 539.10576 190.683359 
L 540.407407 189.015999 
L 554.535859 189.015999 
L 555.356989 188.460212 
L 577.165028 188.460212 
L 577.299003 187.904426 
L 609.343641 187.904426 
L 609.484807 187.348639 
L 609.49493 186.792852 
L 609.504984 187.348639 
L 614.175433 187.348639 
L 615.229954 186.792852 
L 633.629929 186.792852 
L 637.416231 186.237066 
L 637.45304 185.681279 
L 637.766489 185.681279 
L 638.748313 185.125492 
L 668.279054 185.125492 
L 668.447451 184.569706 
L 694.826489 184.569706 
L 698.197234 184.013919 
L 700.259073 184.013919 
L 700.482819 183.458132 
L 701.915885 182.902346 
L 705.934692 182.902346 
L 707.627256 182.346559 
L 709.398344 182.346559 
L 709.536272 181.790772 
L 712.449369 181.790772 
L 712.797342 181.234986 
L 712.866221 180.679199 
L 718.052735 180.679199 
L 718.072843 180.123412 
L 722.488907 180.123412 
L 722.498654 179.567626 
L 723.994907 179.011839 
L 726.651164 179.011839 
L 728.562668 178.456052 
L 730.27333 178.456052 
L 732.794623 175.121332 
L 735.738188 175.121332 
L 735.751821 172.342399 
L 750.552159 172.342399 
L 750.553692 171.786612 
L 750.80968 171.230826 
L 752.227273 171.230826 
L 752.535609 170.675039 
L 757.185405 170.675039 
L 758.260307 170.119252 
L 758.437156 170.675039 
L 766.753833 170.675039 
L 766.755707 170.119252 
L 770.113603 170.119252 
L 771.487265 167.340319 
L 779.908469 167.340319 
L 779.998411 166.228746 
L 781.902417 164.561386 
L 783.812899 164.561386 
L 784.0164 164.005599 
L 792.04754 164.005599 
L 792.195216 163.449812 
L 800.259381 163.449812 
L 800.435038 162.894026 
L 802.657571 161.226666 
L 802.829786 160.670879 
L 812.012614 160.670879 
L 812.012614 160.670879 
" clip-path="url(#p04847da074)" style="fill: none; stroke: #3fb950; stroke-width: 2; stroke-linecap: square"/>
   </g>
   <g id="line2d_36">
    <path d="M 85.239886 455.237812 
L 85.332077 453.570452 
L 85.43238 453.570452 
L 85.589121 372.981386 
L 86.899561 372.981386 
L 86.928156 370.758239 
L 88.361528 370.758239 
L 88.730837 369.090879 
L 89.233337 370.758239 
L 89.237052 369.090879 
L 89.652849 369.090879 
L 89.813544 367.979306 
L 93.919737 367.979306 
L 93.923656 367.423519 
L 93.946763 367.979306 
L 94.148868 367.423519 
L 94.208136 367.979306 
L 94.366206 367.423519 
L 95.807145 367.423519 
L 95.882534 366.867732 
L 96.087876 366.311946 
L 97.714764 366.311946 
L 99.566148 365.756159 
L 99.631312 365.200372 
L 100.131699 364.644586 
L 100.142537 364.088799 
L 103.880342 367.979306 
L 104.436486 366.311946 
L 104.842569 363.533012 
L 107.128018 363.533012 
L 108.343029 367.979306 
L 108.42186 363.533012 
L 130.624054 363.533012 
L 131.305346 362.977226 
L 132.845804 362.977226 
L 137.053049 362.421439 
L 138.077884 361.865652 
L 152.680174 361.865652 
L 153.062229 361.309866 
L 155.025129 360.754079 
L 156.272722 360.754079 
L 157.65562 360.198292 
L 157.692871 359.086719 
L 158.643477 358.530932 
L 159.282372 357.975146 
L 168.083962 357.975146 
L 169.838486 357.419359 
L 170.368899 357.419359 
L 170.666534 356.863572 
L 171.810724 356.863572 
L 172.947449 356.307786 
L 176.529228 356.307786 
L 176.708361 358.530932 
L 176.717154 356.307786 
L 178.085703 356.307786 
L 178.223087 355.751999 
L 180.16022 355.751999 
L 182.066101 355.196212 
L 182.11235 354.640426 
L 187.93752 354.640426 
L 190.394501 354.084639 
L 190.400704 353.528852 
L 198.576759 353.528852 
L 201.987311 352.973066 
L 204.546095 352.973066 
L 205.24177 352.417279 
L 209.147563 352.417279 
L 211.375277 351.861492 
L 211.497391 351.305706 
L 213.669313 351.305706 
L 213.921381 350.749919 
L 214.614466 350.194132 
L 216.161671 350.194132 
L 217.13852 349.638346 
L 218.929546 349.638346 
L 220.098479 349.082559 
L 222.592166 349.082559 
L 223.44172 347.970986 
L 229.892561 347.970986 
L 231.729699 347.415199 
L 233.883933 347.415199 
L 234.369733 346.859412 
L 234.518295 346.303626 
L 234.966741 345.747839 
L 242.385093 345.747839 
L 243.743315 345.192052 
L 244.60582 344.636266 
L 265.700769 344.636266 
L 270.436075 344.080479 
L 270.492651 343.524692 
L 273.71572 343.524692 
L 276.470541 342.968906 
L 281.339652 342.968906 
L 281.751086 342.413119 
L 290.043394 342.413119 
L 296.534656 341.857332 
L 296.596957 341.301546 
L 297.44559 341.301546 
L 299.164976 340.745759 
L 299.260882 339.078399 
L 299.336543 338.522612 
L 302.928035 337.966826 
L 303.143091 337.411039 
L 303.228806 336.299466 
L 303.554081 335.743679 
L 315.241161 335.743679 
L 318.561261 335.187892 
L 320.674733 334.632106 
L 322.33042 334.632106 
L 326.169277 334.076319 
L 326.457949 331.853172 
L 326.692056 331.853172 
L 327.244008 330.741599 
L 334.525522 330.185812 
L 334.757277 329.630026 
L 334.825645 329.074239 
L 336.363989 329.074239 
L 337.816652 328.518452 
L 337.983618 327.962666 
L 338.097008 326.851092 
L 339.058554 326.295306 
L 339.129137 325.739519 
L 340.883525 325.183732 
L 343.189626 324.627946 
L 343.353627 324.072159 
L 343.357104 323.516372 
L 343.820955 322.960586 
L 343.902887 322.404799 
L 347.248105 321.849012 
L 347.847806 321.293226 
L 361.930589 321.293226 
L 364.266001 320.737439 
L 364.478534 320.181652 
L 374.023172 320.181652 
L 374.386824 319.070079 
L 378.363575 319.070079 
L 379.564204 318.514292 
L 379.622858 317.402719 
L 379.931161 316.846932 
L 381.972618 316.291146 
L 382.018595 315.735359 
L 382.265005 315.179572 
L 382.517516 312.956426 
L 382.798792 312.956426 
L 382.809153 312.400639 
L 384.513407 311.844852 
L 385.183418 311.289066 
L 385.345545 310.733279 
L 388.41603 310.177492 
L 390.678848 310.177492 
L 391.464601 309.621706 
L 399.972236 309.621706 
L 402.790756 309.065919 
L 402.801969 308.510132 
L 403.308865 307.954346 
L 409.945656 307.954346 
L 411.80781 307.398559 
L 412.57492 306.842772 
L 412.779615 305.731199 
L 418.148091 305.731199 
L 418.513855 305.175412 
L 421.461851 305.175412 
L 422.873207 304.619626 
L 426.894196 304.619626 
L 429.32507 304.063839 
L 434.373212 304.063839 
L 434.993669 303.508052 
L 437.491276 303.508052 
L 438.171103 302.952266 
L 438.466011 302.396479 
L 438.611268 301.840692 
L 440.667176 301.840692 
L 440.725626 300.729119 
L 441.476172 300.729119 
L 441.968959 299.061759 
L 443.757326 299.061759 
L 443.979437 298.505972 
L 444.151856 298.505972 
L 445.007851 297.950186 
L 446.42834 297.950186 
L 446.478202 297.394399 
L 447.510808 297.394399 
L 447.761615 296.838612 
L 448.732159 296.838612 
L 450.218153 295.727039 
L 450.862808 295.727039 
L 453.356052 294.615466 
L 453.359801 294.059679 
L 453.83582 293.503892 
L 455.050354 292.948106 
L 455.239201 292.392319 
L 456.450122 291.836532 
L 458.429585 291.836532 
L 459.088929 290.724959 
L 461.50307 290.724959 
L 461.571608 290.169172 
L 462.259376 290.169172 
L 462.312169 289.613386 
L 462.689589 289.057599 
L 464.002824 289.057599 
L 464.102717 288.501812 
L 464.32769 288.501812 
L 464.449566 287.946026 
L 464.474275 287.946026 
L 464.581633 287.390239 
L 466.324024 287.390239 
L 466.68972 286.834452 
L 466.996796 286.834452 
L 467.180325 286.278666 
L 467.649017 286.278666 
L 467.999921 285.722879 
L 468.073913 285.167092 
L 468.174215 285.167092 
L 469.93818 284.611306 
L 471.258197 284.611306 
L 471.358124 284.055519 
L 476.565257 284.055519 
L 476.590239 283.499732 
L 476.883239 283.499732 
L 477.46624 282.388159 
L 479.331359 282.388159 
L 479.49444 280.720799 
L 479.542018 279.609226 
L 479.849401 279.053439 
L 481.08619 279.053439 
L 481.669498 278.497652 
L 482.234879 278.497652 
L 482.417181 277.941866 
L 483.293591 277.386079 
L 484.104531 277.386079 
L 485.734827 276.830292 
L 485.843275 276.274506 
L 486.256004 276.274506 
L 486.338584 275.718719 
L 487.787838 275.718719 
L 487.828089 275.162932 
L 494.856444 275.162932 
L 494.965028 274.607146 
L 495.174119 274.607146 
L 495.266821 273.495572 
L 496.171826 273.495572 
L 496.244829 272.939786 
L 496.364421 272.939786 
L 496.991251 272.383999 
L 497.148811 271.828212 
L 497.436698 271.828212 
L 497.680314 271.272426 
L 497.759724 270.716639 
L 501.291301 270.716639 
L 502.182707 270.160852 
L 502.358773 269.049279 
L 502.575736 268.493492 
L 502.937922 268.493492 
L 503.158669 267.937706 
L 508.226885 267.937706 
L 508.561465 266.270346 
L 509.253971 266.270346 
L 509.355636 265.714559 
L 512.061686 265.714559 
L 512.127225 264.602986 
L 515.377321 264.602986 
L 515.410994 264.047199 
L 516.976637 264.047199 
L 516.987168 263.491412 
L 517.749575 263.491412 
L 517.876018 262.935626 
L 520.091054 262.935626 
L 520.206488 262.379839 
L 520.353551 262.379839 
L 520.559779 261.824052 
L 520.978404 261.824052 
L 520.989276 261.268266 
L 521.255386 261.268266 
L 521.763032 260.712479 
L 525.863329 260.712479 
L 526.161339 260.156692 
L 527.377952 260.156692 
L 527.380202 259.600906 
L 536.681974 259.600906 
L 538.260739 259.045119 
L 538.306511 258.489332 
L 539.10576 257.933546 
L 540.321078 257.933546 
L 540.407407 256.821972 
L 540.627234 256.821972 
L 540.718743 256.266186 
L 543.946413 256.266186 
L 544.529278 255.710399 
L 550.112297 255.710399 
L 550.129475 255.154612 
L 551.952946 255.154612 
L 552.732223 254.598826 
L 561.314804 254.598826 
L 561.421923 253.487252 
L 564.797303 253.487252 
L 565.468678 252.931466 
L 566.18763 252.931466 
L 567.066528 252.375679 
L 572.876055 252.375679 
L 573.43237 251.819892 
L 573.914421 251.819892 
L 574.150777 251.264106 
L 576.00148 250.708319 
L 576.907439 250.708319 
L 577.202859 250.152532 
L 577.299003 250.152532 
L 579.899059 249.596746 
L 584.686272 249.596746 
L 585.060898 249.040959 
L 603.538238 249.040959 
L 604.213362 248.485172 
L 608.486283 248.485172 
L 608.640707 247.929386 
L 608.918268 247.929386 
L 609.001938 247.373599 
L 632.864386 247.373599 
L 633.629929 246.817812 
L 639.327463 246.817812 
L 640.565139 246.262026 
L 640.648093 245.706239 
L 643.612483 245.706239 
L 643.735483 245.150452 
L 653.337447 245.150452 
L 653.357112 244.594666 
L 661.462755 244.594666 
L 661.550004 244.038879 
L 662.076463 243.483092 
L 664.065537 243.483092 
L 664.070104 242.927306 
L 664.474313 242.371519 
L 667.460787 242.371519 
L 668.447451 241.815732 
L 674.815678 241.815732 
L 674.86053 240.704159 
L 715.227433 240.704159 
L 718.072843 240.148372 
L 721.652713 240.148372 
L 721.771658 239.592586 
L 737.64291 239.592586 
L 737.669562 239.036799 
L 754.243851 239.036799 
L 754.414702 238.481012 
L 755.400787 238.481012 
L 755.426484 237.925226 
L 755.649344 237.369439 
L 756.51628 236.257866 
L 756.643711 235.146292 
L 756.717362 234.034719 
L 756.939404 233.478932 
L 756.990765 232.923146 
L 757.185405 232.367359 
L 758.437156 232.367359 
L 758.592773 231.811572 
L 758.600101 231.255786 
L 759.069508 230.699999 
L 766.755707 230.699999 
L 767.584164 229.588426 
L 791.827645 229.588426 
L 791.981694 229.032639 
L 806.779544 229.032639 
L 807.130006 227.921066 
L 808.716883 227.921066 
L 808.92945 227.365279 
L 812.012614 227.365279 
L 812.012614 227.365279 
" clip-path="url(#p04847da074)" style="fill: none; stroke: #58a6ff; stroke-width: 2; stroke-linecap: square"/>
   </g>
   <g id="line2d_37">
    <path d="M 85.239886 455.237812 
L 88.069755 455.237812 
L 88.080593 454.126239 
L 90.416823 454.126239 
L 90.950406 453.570452 
L 234.966741 453.570452 
L 236.544348 453.014666 
L 276.470541 453.014666 
L 277.57857 452.458879 
L 315.241161 452.458879 
L 318.561261 451.903092 
L 327.244008 451.903092 
L 334.825645 450.235732 
L 336.363989 449.124159 
L 339.129137 449.124159 
L 340.883525 448.568372 
L 343.357104 448.012586 
L 343.902887 448.012586 
L 347.248105 447.456799 
L 347.847806 446.901012 
L 350.533441 446.345226 
L 355.783245 445.789439 
L 355.813611 446.345226 
L 364.478534 446.345226 
L 365.086892 445.789439 
L 377.452742 445.789439 
L 378.363575 445.233652 
L 382.517516 445.233652 
L 382.809153 444.677866 
L 387.968504 444.677866 
L 388.41603 444.122079 
L 407.316528 444.122079 
L 409.086935 443.566292 
L 409.831006 443.566292 
L 409.945656 443.010506 
L 414.990049 443.010506 
L 414.994855 442.454719 
L 426.875417 442.454719 
L 426.894196 441.898932 
L 430.355768 441.898932 
L 431.238279 441.343146 
L 432.538426 440.787359 
L 432.54071 440.231572 
L 432.745336 440.231572 
L 434.373212 438.564212 
L 435.469824 438.564212 
L 435.532943 436.896852 
L 435.956681 436.896852 
L 437.491276 437.452639 
L 438.594908 437.452639 
L 438.611268 435.229492 
L 442.720528 435.229492 
L 443.331237 434.673706 
L 443.979437 434.673706 
L 444.151856 434.117919 
L 458.891119 434.117919 
L 459.088929 433.562132 
L 459.831466 433.562132 
L 460.984279 433.006346 
L 466.07032 433.006346 
L 466.324024 432.450559 
L 468.073913 432.450559 
L 468.174215 431.894772 
L 473.969529 431.894772 
L 474.086191 431.338986 
L 474.502533 431.338986 
L 474.924804 430.783199 
L 475.346667 430.783199 
L 475.371683 430.227412 
L 477.165538 430.227412 
L 477.272656 429.671626 
L 485.600477 429.671626 
L 485.714003 429.115839 
L 485.757798 429.115839 
L 485.843275 428.560052 
L 486.338584 428.560052 
L 487.376916 428.004266 
L 491.436349 428.004266 
L 491.439927 427.448479 
L 492.215592 427.448479 
L 492.245107 426.892692 
L 494.446884 426.892692 
L 494.965028 426.336906 
L 497.843565 426.336906 
L 498.694585 425.781119 
L 500.349624 425.781119 
L 500.367176 424.669546 
L 500.50139 424.669546 
L 500.670299 424.113759 
L 503.332724 424.113759 
L 503.743545 423.557972 
L 504.382133 423.557972 
L 504.62234 423.002186 
L 506.181031 423.002186 
L 506.398677 422.446399 
L 506.401471 421.890612 
L 506.840171 421.890612 
L 507.024382 421.334826 
L 523.814782 421.334826 
L 523.850432 420.223252 
L 526.161339 420.223252 
L 526.826443 419.667466 
L 527.380202 419.667466 
L 529.97794 419.111679 
L 530.460094 419.111679 
L 531.493177 418.555892 
L 532.184728 418.555892 
L 532.745781 418.000106 
L 533.313343 418.555892 
L 535.140427 418.555892 
L 535.637269 418.000106 
L 535.751 416.888532 
L 536.675737 416.332746 
L 536.681974 415.221172 
L 540.718743 415.221172 
L 541.60156 414.665386 
L 541.691025 412.998026 
L 542.573399 412.442239 
L 543.06138 411.886452 
L 547.234953 411.886452 
L 547.412041 410.219092 
L 547.624915 410.219092 
L 547.782747 409.663306 
L 548.802744 409.107519 
L 550.408297 409.107519 
L 550.739059 408.551732 
L 550.814312 407.995946 
L 550.983084 407.995946 
L 551.952946 406.884372 
L 552.992062 406.884372 
L 553.333253 406.328586 
L 554.531906 406.328586 
L 554.535859 405.217012 
L 555.356989 405.217012 
L 556.447091 404.661226 
L 559.335137 403.549652 
L 559.592965 402.993866 
L 565.468678 402.993866 
L 566.18763 401.882292 
L 577.165028 401.882292 
L 577.299003 400.770719 
L 582.642156 400.770719 
L 583.458548 400.214932 
L 585.935979 400.214932 
L 586.075032 399.659146 
L 601.316455 399.659146 
L 601.55973 399.103359 
L 603.069411 399.103359 
L 603.538238 398.547572 
L 606.35577 398.547572 
L 606.885671 397.991786 
L 606.889148 397.435999 
L 607.495188 396.880212 
L 609.343641 396.880212 
L 609.484807 396.324426 
L 609.49493 395.212852 
L 609.504984 395.768639 
L 610.747124 395.212852 
L 615.229954 395.212852 
L 616.114202 394.101279 
L 624.202634 394.101279 
L 624.827998 393.545492 
L 626.790182 393.545492 
L 626.947264 392.989706 
L 626.968872 392.433919 
L 633.629929 392.433919 
L 637.766489 391.322346 
L 638.748313 391.322346 
L 639.327463 390.766559 
L 647.895866 390.766559 
L 648.949058 390.210772 
L 650.254079 390.210772 
L 651.517997 389.654986 
L 662.076463 389.654986 
L 662.366225 389.099199 
L 662.367793 388.543412 
L 668.279054 388.543412 
L 668.447451 387.987626 
L 694.826489 387.987626 
L 698.197234 387.431839 
L 705.934692 387.431839 
L 707.627256 386.876052 
L 709.116488 386.876052 
L 709.398344 386.320266 
L 712.866221 386.320266 
L 713.452017 385.764479 
L 714.224614 385.764479 
L 715.227433 385.208692 
L 717.631179 385.208692 
L 718.072843 384.652906 
L 718.368706 384.652906 
L 719.445823 384.097119 
L 729.852012 384.097119 
L 729.881118 382.429759 
L 738.961087 382.429759 
L 742.811463 381.873972 
L 742.814598 381.318186 
L 747.329601 381.318186 
L 747.519129 380.762399 
L 747.521924 380.206612 
L 749.633862 380.206612 
L 750.553692 379.650826 
L 751.211707 379.650826 
L 752.227273 379.095039 
L 753.317102 379.095039 
L 753.505437 377.983466 
L 754.414702 377.983466 
L 754.595914 377.427679 
L 756.641939 377.427679 
L 756.717362 376.871892 
L 759.942305 376.871892 
L 762.278637 376.316106 
L 763.044963 376.316106 
L 763.797248 375.760319 
L 765.35127 375.204532 
L 765.357916 374.648746 
L 765.786459 372.981386 
L 766.178057 372.425599 
L 766.755707 371.869812 
L 768.303764 371.869812 
L 769.242578 370.202452 
L 771.487265 370.202452 
L 772.095043 368.535092 
L 774.565009 368.535092 
L 774.826552 367.979306 
L 776.61676 367.979306 
L 777.005802 366.867732 
L 777.679903 366.311946 
L 779.998411 366.311946 
L 784.0164 365.200372 
L 786.592531 364.644586 
L 786.76754 364.088799 
L 789.204209 364.088799 
L 789.360099 363.533012 
L 792.035237 363.533012 
L 792.04754 362.977226 
L 792.549018 362.977226 
L 792.658931 362.421439 
L 800.259381 362.421439 
L 800.435038 361.865652 
L 802.829786 361.309866 
L 806.768263 361.309866 
L 806.779544 360.754079 
L 812.012614 360.754079 
L 812.012614 360.754079 
" clip-path="url(#p04847da074)" style="fill: none; stroke: #d29922; stroke-width: 2; stroke-linecap: square"/>
   </g>
   <g id="line2d_38">
    <path d="M 85.239886 454.682026 
L 85.481934 454.682026 
L 85.589121 432.450559 
L 86.149287 426.892692 
L 86.469382 425.781119 
L 86.631782 426.336906 
L 86.928156 425.781119 
L 87.429395 425.225332 
L 87.777164 424.113759 
L 88.069755 423.557972 
L 88.080593 423.002186 
L 88.361528 421.334826 
L 88.730837 421.334826 
L 89.233337 420.779039 
L 89.237052 420.223252 
L 89.641636 419.667466 
L 89.753185 419.111679 
L 89.813544 419.111679 
L 90.416823 418.555892 
L 90.847854 418.000106 
L 90.950406 411.886452 
L 91.02133 412.442239 
L 91.291154 406.328586 
L 91.29596 407.995946 
L 91.487703 402.993866 
L 93.923656 402.993866 
L 94.148868 399.659146 
L 94.208136 402.438079 
L 94.482732 397.991786 
L 94.618718 397.435999 
L 95.631863 396.880212 
L 95.662434 396.324426 
L 95.882534 395.768639 
L 96.087876 395.768639 
L 96.609632 395.212852 
L 96.888352 394.657066 
L 97.01459 393.545492 
L 97.091376 392.989706 
L 97.35176 392.433919 
L 97.358202 391.878132 
L 97.620085 392.433919 
L 97.694622 391.878132 
L 97.70379 392.433919 
L 97.714764 390.766559 
L 100.142537 390.766559 
L 103.880342 402.993866 
L 104.436486 390.210772 
L 104.842569 389.654986 
L 106.294244 389.654986 
L 106.559774 389.099199 
L 107.128018 388.543412 
L 108.343029 402.993866 
L 108.42186 387.987626 
L 109.354198 387.431839 
L 111.34801 386.876052 
L 111.490198 387.431839 
L 111.780642 385.764479 
L 112.420662 385.764479 
L 112.615132 385.208692 
L 112.98243 384.652906 
L 113.012899 383.541332 
L 113.351705 382.429759 
L 113.371336 382.985546 
L 113.572861 382.985546 
L 113.683353 381.873972 
L 114.023488 379.650826 
L 114.068204 378.539252 
L 114.504585 376.871892 
L 114.717868 377.983466 
L 116.225914 374.648746 
L 116.622999 375.760319 
L 118.257147 373.537172 
L 119.551739 377.427679 
L 120.006082 373.537172 
L 121.872019 371.869812 
L 124.623432 371.869812 
L 124.98681 371.314026 
L 125.275993 369.646666 
L 126.088602 371.314026 
L 129.403249 371.869812 
L 130.225503 369.646666 
L 130.624054 367.979306 
L 131.305346 369.646666 
L 132.845804 367.979306 
L 138.077884 367.979306 
L 143.579449 367.423519 
L 143.946338 366.867732 
L 147.419635 366.311946 
L 149.71633 366.311946 
L 150.14385 365.756159 
L 150.236859 366.311946 
L 152.680174 364.644586 
L 154.971927 364.644586 
L 155.025129 364.088799 
L 156.272722 363.533012 
L 159.282372 363.533012 
L 160.609989 359.642506 
L 161.598119 359.086719 
L 162.869603 358.530932 
L 162.894278 357.975146 
L 167.659747 357.975146 
L 167.751802 354.084639 
L 167.928174 354.084639 
L 168.083962 352.973066 
L 169.838486 352.973066 
L 170.368899 352.417279 
L 172.947449 352.417279 
L 176.529228 351.861492 
L 176.708361 363.533012 
L 176.717154 352.417279 
L 176.946558 351.861492 
L 178.223087 351.861492 
L 180.16022 351.305706 
L 182.11235 351.305706 
L 183.663032 350.749919 
L 187.93752 349.638346 
L 190.400704 349.638346 
L 192.380304 349.082559 
L 192.688334 346.303626 
L 192.896811 346.303626 
L 193.265711 345.747839 
L 195.189928 345.192052 
L 195.634728 342.968906 
L 198.294154 341.857332 
L 198.326191 342.413119 
L 198.576759 341.857332 
L 201.987311 340.745759 
L 204.546095 340.189972 
L 205.768638 340.189972 
L 206.852231 339.634186 
L 207.791283 338.522612 
L 208.787285 337.966826 
L 209.147563 337.411039 
L 211.497391 337.966826 
L 213.669313 336.855252 
L 213.921381 337.411039 
L 214.498623 337.411039 
L 214.614466 336.855252 
L 216.161671 336.299466 
L 217.13852 336.855252 
L 218.929546 335.743679 
L 220.098479 335.743679 
L 222.592166 335.187892 
L 223.005679 335.743679 
L 223.44172 334.076319 
L 224.954775 334.076319 
L 225.254148 333.520532 
L 226.557022 331.297386 
L 226.925138 330.185812 
L 227.881061 330.741599 
L 228.302174 329.630026 
L 228.344299 329.074239 
L 231.729699 329.074239 
L 233.444313 328.518452 
L 233.883933 327.962666 
L 236.544348 327.962666 
L 238.416317 327.406879 
L 241.59583 327.406879 
L 242.385093 326.851092 
L 251.128199 326.851092 
L 251.630324 326.295306 
L 251.680628 325.739519 
L 252.020627 325.183732 
L 255.815212 325.183732 
L 256.051704 324.627946 
L 257.017136 324.072159 
L 257.18434 323.516372 
L 258.783861 322.960586 
L 259.947239 322.404799 
L 264.608349 322.404799 
L 265.700769 321.293226 
L 270.492651 321.293226 
L 271.559816 320.737439 
L 276.025673 320.737439 
L 276.470541 320.181652 
L 277.57857 319.625866 
L 277.908412 319.070079 
L 278.020405 318.514292 
L 281.339652 317.958506 
L 281.751086 318.514292 
L 286.120662 317.402719 
L 289.575486 316.291146 
L 290.043394 315.735359 
L 296.596957 315.735359 
L 297.44559 315.179572 
L 303.554081 315.179572 
L 309.308157 314.623786 
L 310.031915 314.067999 
L 312.446772 313.512212 
L 314.868444 312.956426 
L 315.241161 312.400639 
L 320.674733 312.400639 
L 322.33042 311.844852 
L 334.825645 311.844852 
L 336.363989 311.289066 
L 346.685383 311.289066 
L 347.248105 310.733279 
L 347.847806 311.289066 
L 350.533441 310.733279 
L 359.571694 310.733279 
L 360.782889 310.177492 
L 379.902941 310.177492 
L 379.931161 309.621706 
L 391.739708 309.621706 
L 394.334107 309.065919 
L 394.340752 308.510132 
L 407.310769 308.510132 
L 407.316528 307.398559 
L 414.994855 307.398559 
L 418.513855 306.842772 
L 422.873207 306.842772 
L 426.894196 305.731199 
L 434.993669 305.731199 
L 435.469824 305.175412 
L 435.532943 304.619626 
L 438.594908 304.619626 
L 438.611268 304.063839 
L 438.929215 304.063839 
L 439.436044 303.508052 
L 443.979437 303.508052 
L 444.151856 302.952266 
L 450.218153 302.952266 
L 450.466643 302.396479 
L 465.281534 302.396479 
L 466.069195 300.729119 
L 466.07032 300.173332 
L 468.169205 300.173332 
L 468.174215 299.617546 
L 474.365184 299.617546 
L 474.502533 299.061759 
L 477.46624 299.061759 
L 477.572711 298.505972 
L 488.582725 298.505972 
L 488.79444 297.950186 
L 491.35002 297.950186 
L 491.439927 297.394399 
L 492.245107 296.838612 
L 512.460817 296.838612 
L 513.513736 295.727039 
L 515.089808 295.727039 
L 515.410994 295.171252 
L 516.987168 295.171252 
L 517.220764 294.615466 
L 520.944765 294.615466 
L 520.989276 294.059679 
L 541.599822 294.059679 
L 541.691025 292.948106 
L 567.453389 292.948106 
L 568.122481 292.392319 
L 612.108823 292.392319 
L 614.175433 291.836532 
L 632.764391 291.836532 
L 632.864386 291.280746 
L 641.186618 291.280746 
L 641.591133 290.724959 
L 806.303867 290.724959 
L 806.779544 290.169172 
L 812.012614 290.169172 
L 812.012614 290.169172 
" clip-path="url(#p04847da074)" style="fill: none; stroke: #f85149; stroke-width: 2; stroke-linecap: square"/>
   </g>
   <g id="line2d_39">
    <path d="M 85.239886 454.682026 
L 85.259143 454.126239 
L 85.410962 -1 
M 85.547417 -1 
L 85.697637 101.201706 
L 88.069755 101.201706 
L 88.080593 97.866986 
L 90.950406 97.866986 
L 91.089288 98.422772 
L 91.487703 98.422772 
L 91.810593 98.978559 
L 93.811357 99.534346 
L 93.850858 98.978559 
L 93.919737 99.534346 
L 100.142537 99.534346 
L 103.880342 98.422772 
L 104.436486 99.534346 
L 104.842569 98.978559 
L 105.866042 99.534346 
L 106.294244 96.755412 
L 107.128018 96.755412 
L 108.343029 98.422772 
L 108.42186 95.643839 
L 109.354198 96.199626 
L 111.780642 96.199626 
L 112.420662 95.088052 
L 113.371336 95.088052 
L 113.683353 91.197546 
L 119.551739 91.197546 
L 119.983929 87.862826 
L 120.006082 86.751252 
L 121.872019 86.751252 
L 124.623432 82.860746 
L 126.066756 82.860746 
L 126.088602 83.416532 
L 129.403249 83.416532 
L 130.225503 80.081812 
L 132.82774 80.081812 
L 132.845804 80.637599 
L 147.419635 80.637599 
L 150.14385 81.193386 
L 150.236859 80.637599 
L 153.062229 81.193386 
L 162.894278 81.193386 
L 167.659747 81.749172 
L 167.751802 74.523946 
L 167.978172 75.079732 
L 170.666534 75.079732 
L 171.810724 75.635519 
L 176.529228 75.635519 
L 176.708361 80.637599 
L 176.717154 71.745012 
L 176.946558 71.745012 
L 178.085703 73.968159 
L 183.663032 73.968159 
L 187.93752 70.077652 
L 192.688334 70.077652 
L 192.896811 68.410292 
L 205.24177 68.410292 
L 205.768638 68.966079 
L 208.766155 68.966079 
L 208.787285 70.077652 
L 214.498623 70.077652 
L 214.614466 73.412372 
L 223.44172 73.412372 
L 223.652549 68.410292 
L 224.951674 67.298719 
L 224.954775 67.854506 
L 225.254148 67.854506 
L 226.320768 65.075572 
L 227.881061 65.075572 
L 228.302174 65.631359 
L 228.344299 65.075572 
L 229.308606 65.631359 
L 229.313002 66.187146 
L 229.33553 65.631359 
L 229.892561 63.408212 
L 234.966741 63.408212 
L 236.544348 63.963999 
L 238.416317 63.963999 
L 241.59583 64.519786 
L 244.60582 64.519786 
L 246.931348 65.631359 
L 251.680628 65.075572 
L 252.020627 65.075572 
L 254.981097 66.187146 
L 255.815212 65.631359 
L 259.947239 65.631359 
L 264.605827 67.854506 
L 264.608349 67.298719 
L 271.559816 67.298719 
L 273.71572 67.854506 
L 312.136492 67.854506 
L 312.446772 68.410292 
L 314.851165 68.410292 
L 314.868444 66.742932 
L 326.457949 66.742932 
L 326.692056 67.298719 
L 350.533441 67.298719 
L 355.783245 67.854506 
L 355.813611 67.298719 
L 359.571694 68.966079 
L 360.782889 68.966079 
L 361.930589 68.410292 
L 365.086892 68.410292 
L 368.098382 68.966079 
L 368.103323 69.521866 
L 376.642042 67.854506 
L 377.452742 68.410292 
L 387.968504 68.410292 
L 388.41603 67.854506 
L 389.23583 68.410292 
L 389.517549 70.633439 
L 394.336594 70.633439 
L 394.340752 71.189226 
L 409.086935 71.189226 
L 409.945656 71.745012 
L 412.779615 71.745012 
L 413.056085 72.300799 
L 426.875417 72.300799 
L 426.894196 72.856586 
L 429.32507 72.856586 
L 430.350622 73.412372 
L 430.355768 73.968159 
L 431.194484 73.412372 
L 431.238279 73.968159 
L 432.54071 73.968159 
L 432.745336 74.523946 
L 435.469824 74.523946 
L 435.532943 73.412372 
L 435.956681 74.523946 
L 437.491276 72.856586 
L 441.20219 72.856586 
L 441.476172 71.189226 
L 442.720528 71.189226 
L 443.331237 72.300799 
L 446.478202 72.300799 
L 447.510808 72.856586 
L 447.761615 72.856586 
L 448.732159 70.077652 
L 450.466643 70.077652 
L 450.862808 70.633439 
L 458.891119 70.633439 
L 459.088929 71.189226 
L 459.831466 71.189226 
L 460.984279 71.745012 
L 473.969529 71.745012 
L 474.086191 72.300799 
L 474.502533 72.300799 
L 475.371683 73.412372 
L 476.590239 73.412372 
L 476.883239 72.856586 
L 477.165538 72.856586 
L 477.272656 73.412372 
L 480.531409 73.412372 
L 481.08619 73.968159 
L 483.922671 73.968159 
L 484.104531 74.523946 
L 485.658245 74.523946 
L 485.757798 75.079732 
L 490.586386 75.079732 
L 490.690199 75.635519 
L 493.506299 75.635519 
L 494.446884 77.858666 
L 495.489715 77.858666 
L 495.490806 78.414452 
L 499.725112 78.414452 
L 500.50139 78.970239 
L 503.743545 78.970239 
L 504.382133 79.526026 
L 506.840171 79.526026 
L 507.024382 80.081812 
L 511.021786 80.081812 
L 512.052177 80.637599 
L 512.127225 81.193386 
L 512.460817 81.193386 
L 513.513736 60.629279 
L 516.779134 60.629279 
L 516.80265 61.185066 
L 516.987168 61.185066 
L 517.220764 60.629279 
L 519.910353 60.629279 
L 520.206488 61.185066 
L 520.559779 61.185066 
L 520.915149 61.740852 
L 520.989276 61.185066 
L 522.437679 61.185066 
L 522.448994 61.740852 
L 522.762954 61.740852 
L 522.90044 62.296639 
L 523.850432 62.852426 
L 530.460094 62.852426 
L 531.493177 63.408212 
L 532.184728 63.408212 
L 532.745781 63.963999 
L 533.313343 63.408212 
L 535.65022 63.408212 
L 535.751 64.519786 
L 539.10576 64.519786 
L 540.407407 66.187146 
L 554.535859 66.187146 
L 555.356989 66.742932 
L 577.165028 66.742932 
L 577.299003 67.298719 
L 609.343641 67.298719 
L 609.484807 67.854506 
L 609.49493 68.410292 
L 609.504984 67.854506 
L 614.175433 67.854506 
L 615.229954 68.410292 
L 633.629929 68.410292 
L 637.766489 68.966079 
L 638.740168 69.521866 
L 638.748313 67.854506 
L 668.279054 67.854506 
L 668.447451 68.410292 
L 694.826489 68.410292 
L 698.197234 68.966079 
L 700.259073 68.966079 
L 700.482819 69.521866 
L 701.915885 70.077652 
L 705.934692 70.077652 
L 707.627256 70.633439 
L 709.398344 70.633439 
L 709.536272 71.189226 
L 712.449369 71.189226 
L 712.797342 71.745012 
L 712.866221 72.300799 
L 718.052735 72.300799 
L 718.072843 72.856586 
L 721.771658 72.856586 
L 722.488907 72.300799 
L 722.498654 72.856586 
L 723.994907 73.412372 
L 726.651164 73.412372 
L 728.562668 73.968159 
L 730.27333 73.968159 
L 732.794623 61.740852 
L 735.738188 61.740852 
L 735.751821 64.519786 
L 750.552159 64.519786 
L 750.553692 65.075572 
L 750.80968 65.631359 
L 752.227273 65.631359 
L 752.535609 66.187146 
L 757.185405 66.187146 
L 758.260307 66.742932 
L 758.437156 66.187146 
L 766.753833 66.187146 
L 766.755707 66.742932 
L 779.908469 66.742932 
L 779.998411 67.854506 
L 781.902417 69.521866 
L 783.812899 69.521866 
L 784.0164 70.077652 
L 792.04754 70.077652 
L 792.195216 70.633439 
L 800.259381 70.633439 
L 800.435038 71.189226 
L 802.657571 72.856586 
L 802.829786 73.412372 
L 812.012614 73.412372 
L 812.012614 73.412372 
" clip-path="url(#p04847da074)" style="fill: none; stroke: #9467bd; stroke-width: 2; stroke-linecap: square"/>
   </g>
   <g id="patch_3">
    <path d="M 48.90125 455.237812 
L 48.90125 38.397812 
" style="fill: none; stroke: #30363d; stroke-width: 0.8; stroke-linejoin: miter; stroke-linecap: square"/>
   </g>
   <g id="patch_4">
    <path d="M 848.35125 455.237812 
L 848.35125 38.397812 
" style="fill: none; stroke: #30363d; stroke-width: 0.8; stroke-linejoin: miter; stroke-linecap: square"/>
   </g>
   <g id="patch_5">
    <path d="M 48.90125 455.237812 
L 848.35125 455.237812 
" style="fill: none; stroke: #30363d; stroke-width: 0.8; stroke-linejoin: miter; stroke-linecap: square"/>
   </g>
   <g id="patch_6">
    <path d="M 48.90125 38.397812 
L 848.35125 38.397812 
" style="fill: none; stroke: #30363d; stroke-width: 0.8; stroke-linejoin: miter; stroke-linecap: square"/>
   </g>
   <g id="text_20">
    <!-- 530 -->
    <g style="fill: #3fb950" transform="translate(817.012614 163.154317) scale(0.09 -0.09)">
     <defs>
      <path id="DejaVuSans-Bold-35" d="M 678 4666 
L 3669 4666 
L 3669 3781 
L 1638 3781 
L 1638 3059 
Q 1775 3097 1914 3117 
Q 2053 3138 2203 3138 
Q 3056 3138 3531 2711 
Q 4006 2284 4006 1522 
Q 4006 766 3489 337 
Q 2972 -91 2053 -91 
Q 1656 -91 1267 -14 
Q 878 63 494 219 
L 494 1166 
Q 875 947 1217 837 
Q 1559 728 1863 728 
Q 2300 728 2551 942 
Q 2803 1156 2803 1522 
Q 2803 1891 2551 2103 
Q 2300 2316 1863 2316 
Q 1603 2316 1309 2248 
Q 1016 2181 678 2041 
L 678 4666 
z
" transform="scale(0.015625)"/>
      <path id="DejaVuSans-Bold-33" d="M 2981 2516 
Q 3453 2394 3698 2092 
Q 3944 1791 3944 1325 
Q 3944 631 3412 270 
Q 2881 -91 1863 -91 
Q 1503 -91 1142 -33 
Q 781 25 428 141 
L 428 1069 
Q 766 900 1098 814 
Q 1431 728 1753 728 
Q 2231 728 2486 893 
Q 2741 1059 2741 1369 
Q 2741 1688 2480 1852 
Q 2219 2016 1709 2016 
L 1228 2016 
L 1228 2791 
L 1734 2791 
Q 2188 2791 2409 2933 
Q 2631 3075 2631 3366 
Q 2631 3634 2415 3781 
Q 2200 3928 1806 3928 
Q 1516 3928 1219 3862 
Q 922 3797 628 3669 
L 628 4550 
Q 984 4650 1334 4700 
Q 1684 4750 2022 4750 
Q 2931 4750 3382 4451 
Q 3834 4153 3834 3553 
Q 3834 3144 3618 2883 
Q 3403 2622 2981 2516 
z
" transform="scale(0.015625)"/>
      <path id="DejaVuSans-Bold-30" d="M 2944 2338 
Q 2944 3213 2780 3570 
Q 2616 3928 2228 3928 
Q 1841 3928 1675 3570 
Q 1509 3213 1509 2338 
Q 1509 1453 1675 1090 
Q 1841 728 2228 728 
Q 2613 728 2778 1090 
Q 2944 1453 2944 2338 
z
M 4147 2328 
Q 4147 1169 3647 539 
Q 3147 -91 2228 -91 
Q 1306 -91 806 539 
Q 306 1169 306 2328 
Q 306 3491 806 4120 
Q 1306 4750 2228 4750 
Q 3147 4750 3647 4120 
Q 4147 3491 4147 2328 
z
" transform="scale(0.015625)"/>
     </defs>
     <use xlink:href="#DejaVuSans-Bold-35"/>
     <use xlink:href="#DejaVuSans-Bold-33" transform="translate(69.580078 0)"/>
     <use xlink:href="#DejaVuSans-Bold-30" transform="translate(139.160156 0)"/>
    </g>
   </g>
   <g id="text_21">
    <!-- 410 -->
    <g style="fill: #58a6ff" transform="translate(817.012614 229.848717) scale(0.09 -0.09)">
     <defs>
      <path id="DejaVuSans-Bold-34" d="M 2356 3675 
L 1038 1722 
L 2356 1722 
L 2356 3675 
z
M 2156 4666 
L 3494 4666 
L 3494 1722 
L 4159 1722 
L 4159 850 
L 3494 850 
L 3494 0 
L 2356 0 
L 2356 850 
L 288 850 
L 288 1881 
L 2156 4666 
z
" transform="scale(0.015625)"/>
      <path id="DejaVuSans-Bold-31" d="M 750 831 
L 1813 831 
L 1813 3847 
L 722 3622 
L 722 4441 
L 1806 4666 
L 2950 4666 
L 2950 831 
L 4013 831 
L 4013 0 
L 750 0 
L 750 831 
z
" transform="scale(0.015625)"/>
     </defs>
     <use xlink:href="#DejaVuSans-Bold-34"/>
     <use xlink:href="#DejaVuSans-Bold-31" transform="translate(69.580078 0)"/>
     <use xlink:href="#DejaVuSans-Bold-30" transform="translate(139.160156 0)"/>
    </g>
   </g>
   <g id="text_22">
    <!-- 170 -->
    <g style="fill: #d29922" transform="translate(817.012614 363.237517) scale(0.09 -0.09)">
     <defs>
      <path id="DejaVuSans-Bold-37" d="M 428 4666 
L 3944 4666 
L 3944 3988 
L 2125 0 
L 953 0 
L 2675 3781 
L 428 3781 
L 428 4666 
z
" transform="scale(0.015625)"/>
     </defs>
     <use xlink:href="#DejaVuSans-Bold-31"/>
     <use xlink:href="#DejaVuSans-Bold-37" transform="translate(69.580078 0)"/>
     <use xlink:href="#DejaVuSans-Bold-30" transform="translate(139.160156 0)"/>
    </g>
   </g>
   <g id="text_23">
    <!-- 297 -->
    <g style="fill: #f85149" transform="translate(817.012614 292.65261) scale(0.09 -0.09)">
     <defs>
      <path id="DejaVuSans-Bold-32" d="M 1844 884 
L 3897 884 
L 3897 0 
L 506 0 
L 506 884 
L 2209 2388 
Q 2438 2594 2547 2791 
Q 2656 2988 2656 3200 
Q 2656 3528 2436 3728 
Q 2216 3928 1850 3928 
Q 1569 3928 1234 3808 
Q 900 3688 519 3450 
L 519 4475 
Q 925 4609 1322 4679 
Q 1719 4750 2100 4750 
Q 2938 4750 3402 4381 
Q 3866 4013 3866 3353 
Q 3866 2972 3669 2642 
Q 3472 2313 2841 1759 
L 1844 884 
z
" transform="scale(0.015625)"/>
      <path id="DejaVuSans-Bold-39" d="M 641 103 
L 641 966 
Q 928 831 1190 764 
Q 1453 697 1709 697 
Q 2247 697 2547 995 
Q 2847 1294 2900 1881 
Q 2688 1725 2447 1647 
Q 2206 1569 1925 1569 
Q 1209 1569 770 1986 
Q 331 2403 331 3084 
Q 331 3838 820 4291 
Q 1309 4744 2131 4744 
Q 3044 4744 3544 4128 
Q 4044 3513 4044 2388 
Q 4044 1231 3459 570 
Q 2875 -91 1856 -91 
Q 1528 -91 1228 -42 
Q 928 6 641 103 
z
M 2125 2350 
Q 2441 2350 2600 2554 
Q 2759 2759 2759 3169 
Q 2759 3575 2600 3781 
Q 2441 3988 2125 3988 
Q 1809 3988 1650 3781 
Q 1491 3575 1491 3169 
Q 1491 2759 1650 2554 
Q 1809 2350 2125 2350 
z
" transform="scale(0.015625)"/>
     </defs>
     <use xlink:href="#DejaVuSans-Bold-32"/>
     <use xlink:href="#DejaVuSans-Bold-39" transform="translate(69.580078 0)"/>
     <use xlink:href="#DejaVuSans-Bold-37" transform="translate(139.160156 0)"/>
    </g>
   </g>
   <g id="text_24">
    <!-- 687 -->
    <g style="fill: #9467bd" transform="translate(817.012614 75.89581) scale(0.09 -0.09)">
     <defs>
      <path id="DejaVuSans-Bold-36" d="M 2316 2303 
Q 2000 2303 1842 2098 
Q 1684 1894 1684 1484 
Q 1684 1075 1842 870 
Q 2000 666 2316 666 
Q 2634 666 2792 870 
Q 2950 1075 2950 1484 
Q 2950 1894 2792 2098 
Q 2634 2303 2316 2303 
z
M 3803 4544 
L 3803 3681 
Q 3506 3822 3243 3889 
Q 2981 3956 2731 3956 
Q 2194 3956 1894 3657 
Q 1594 3359 1544 2772 
Q 1750 2925 1990 3001 
Q 2231 3078 2516 3078 
Q 3231 3078 3670 2659 
Q 4109 2241 4109 1563 
Q 4109 813 3618 361 
Q 3128 -91 2303 -91 
Q 1394 -91 895 523 
Q 397 1138 397 2266 
Q 397 3422 980 4083 
Q 1563 4744 2578 4744 
Q 2900 4744 3203 4694 
Q 3506 4644 3803 4544 
z
" transform="scale(0.015625)"/>
      <path id="DejaVuSans-Bold-38" d="M 2228 2088 
Q 1891 2088 1709 1903 
Q 1528 1719 1528 1375 
Q 1528 1031 1709 848 
Q 1891 666 2228 666 
Q 2563 666 2741 848 
Q 2919 1031 2919 1375 
Q 2919 1722 2741 1905 
Q 2563 2088 2228 2088 
z
M 1350 2484 
Q 925 2613 709 2878 
Q 494 3144 494 3541 
Q 494 4131 934 4440 
Q 1375 4750 2228 4750 
Q 3075 4750 3515 4442 
Q 3956 4134 3956 3541 
Q 3956 3144 3739 2878 
Q 3522 2613 3097 2484 
Q 3572 2353 3814 2058 
Q 4056 1763 4056 1313 
Q 4056 619 3595 264 
Q 3134 -91 2228 -91 
Q 1319 -91 855 264 
Q 391 619 391 1313 
Q 391 1763 633 2058 
Q 875 2353 1350 2484 
z
M 1631 3419 
Q 1631 3141 1786 2991 
Q 1941 2841 2228 2841 
Q 2509 2841 2662 2991 
Q 2816 3141 2816 3419 
Q 2816 3697 2662 3845 
Q 2509 3994 2228 3994 
Q 1941 3994 1786 3844 
Q 1631 3694 1631 3419 
z
" transform="scale(0.015625)"/>
     </defs>
     <use xlink:href="#DejaVuSans-Bold-36"/>
     <use xlink:href="#DejaVuSans-Bold-38" transform="translate(69.580078 0)"/>
     <use xlink:href="#DejaVuSans-Bold-37" transform="translate(139.160156 0)"/>
    </g>
   </g>
   <g id="text_25">
    <!-- Erdős Problems Progress -->
    <g style="fill: #c9d1d9" transform="translate(349.588281 18.397812) scale(0.14 -0.14)">
     <defs>
      <path id="DejaVuSans-Bold-45" d="M 588 4666 
L 3834 4666 
L 3834 3756 
L 1791 3756 
L 1791 2888 
L 3713 2888 
L 3713 1978 
L 1791 1978 
L 1791 909 
L 3903 909 
L 3903 0 
L 588 0 
L 588 4666 
z
" transform="scale(0.015625)"/>
      <path id="DejaVuSans-Bold-72" d="M 3138 2547 
Q 2991 2616 2845 2648 
Q 2700 2681 2553 2681 
Q 2122 2681 1889 2404 
Q 1656 2128 1656 1613 
L 1656 0 
L 538 0 
L 538 3500 
L 1656 3500 
L 1656 2925 
Q 1872 3269 2151 3426 
Q 2431 3584 2822 3584 
Q 2878 3584 2943 3579 
Q 3009 3575 3134 3559 
L 3138 2547 
z
" transform="scale(0.015625)"/>
      <path id="DejaVuSans-Bold-64" d="M 2919 2988 
L 2919 4863 
L 4044 4863 
L 4044 0 
L 2919 0 
L 2919 506 
Q 2688 197 2409 53 
Q 2131 -91 1766 -91 
Q 1119 -91 703 423 
Q 288 938 288 1747 
Q 288 2556 703 3070 
Q 1119 3584 1766 3584 
Q 2128 3584 2408 3439 
Q 2688 3294 2919 2988 
z
M 2181 722 
Q 2541 722 2730 984 
Q 2919 1247 2919 1747 
Q 2919 2247 2730 2509 
Q 2541 2772 2181 2772 
Q 1825 2772 1636 2509 
Q 1447 2247 1447 1747 
Q 1447 1247 1636 984 
Q 1825 722 2181 722 
z
" transform="scale(0.015625)"/>
      <path id="DejaVuSans-Bold-151" d="M 1881 5119 
L 2560 5119 
L 1785 3944 
L 1275 3944 
L 1881 5119 
z
M 3016 5119 
L 3738 5119 
L 2888 3944 
L 2344 3944 
L 3016 5119 
z
M 2203 2784 
Q 1831 2784 1636 2517 
Q 1441 2250 1441 1747 
Q 1441 1244 1636 976 
Q 1831 709 2203 709 
Q 2569 709 2762 976 
Q 2956 1244 2956 1747 
Q 2956 2250 2762 2517 
Q 2569 2784 2203 2784 
z
M 2203 3584 
Q 3106 3584 3614 3096 
Q 4122 2609 4122 1747 
Q 4122 884 3614 396 
Q 3106 -91 2203 -91 
Q 1297 -91 786 396 
Q 275 884 275 1747 
Q 275 2609 786 3096 
Q 1297 3584 2203 3584 
z
" transform="scale(0.015625)"/>
      <path id="DejaVuSans-Bold-73" d="M 3272 3391 
L 3272 2541 
Q 2913 2691 2578 2766 
Q 2244 2841 1947 2841 
Q 1628 2841 1473 2761 
Q 1319 2681 1319 2516 
Q 1319 2381 1436 2309 
Q 1553 2238 1856 2203 
L 2053 2175 
Q 2913 2066 3209 1816 
Q 3506 1566 3506 1031 
Q 3506 472 3093 190 
Q 2681 -91 1863 -91 
Q 1516 -91 1145 -36 
Q 775 19 384 128 
L 384 978 
Q 719 816 1070 734 
Q 1422 653 1784 653 
Q 2113 653 2278 743 
Q 2444 834 2444 1013 
Q 2444 1163 2330 1236 
Q 2216 1309 1875 1350 
L 1678 1375 
Q 931 1469 631 1722 
Q 331 1975 331 2491 
Q 331 3047 712 3315 
Q 1094 3584 1881 3584 
Q 2191 3584 2531 3537 
Q 2872 3491 3272 3391 
z
" transform="scale(0.015625)"/>
      <path id="DejaVuSans-Bold-20" transform="scale(0.015625)"/>
      <path id="DejaVuSans-Bold-50" d="M 588 4666 
L 2584 4666 
Q 3475 4666 3951 4270 
Q 4428 3875 4428 3144 
Q 4428 2409 3951 2014 
Q 3475 1619 2584 1619 
L 1791 1619 
L 1791 0 
L 588 0 
L 588 4666 
z
M 1791 3794 
L 1791 2491 
L 2456 2491 
Q 2806 2491 2997 2661 
Q 3188 2831 3188 3144 
Q 3188 3456 2997 3625 
Q 2806 3794 2456 3794 
L 1791 3794 
z
" transform="scale(0.015625)"/>
      <path id="DejaVuSans-Bold-6f" d="M 2203 2784 
Q 1831 2784 1636 2517 
Q 1441 2250 1441 1747 
Q 1441 1244 1636 976 
Q 1831 709 2203 709 
Q 2569 709 2762 976 
Q 2956 1244 2956 1747 
Q 2956 2250 2762 2517 
Q 2569 2784 2203 2784 
z
M 2203 3584 
Q 3106 3584 3614 3096 
Q 4122 2609 4122 1747 
Q 4122 884 3614 396 
Q 3106 -91 2203 -91 
Q 1297 -91 786 396 
Q 275 884 275 1747 
Q 275 2609 786 3096 
Q 1297 3584 2203 3584 
z
" transform="scale(0.015625)"/>
      <path id="DejaVuSans-Bold-62" d="M 2400 722 
Q 2759 722 2948 984 
Q 3138 1247 3138 1747 
Q 3138 2247 2948 2509 
Q 2759 2772 2400 2772 
Q 2041 2772 1848 2508 
Q 1656 2244 1656 1747 
Q 1656 1250 1848 986 
Q 2041 722 2400 722 
z
M 1656 2988 
Q 1888 3294 2169 3439 
Q 2450 3584 2816 3584 
Q 3463 3584 3878 3070 
Q 4294 2556 4294 1747 
Q 4294 938 3878 423 
Q 3463 -91 2816 -91 
Q 2450 -91 2169 54 
Q 1888 200 1656 506 
L 1656 0 
L 538 0 
L 538 4863 
L 1656 4863 
L 1656 2988 
z
" transform="scale(0.015625)"/>
      <path id="DejaVuSans-Bold-6c" d="M 538 4863 
L 1656 4863 
L 1656 0 
L 538 0 
L 538 4863 
z
" transform="scale(0.015625)"/>
      <path id="DejaVuSans-Bold-65" d="M 4031 1759 
L 4031 1441 
L 1416 1441 
Q 1456 1047 1700 850 
Q 1944 653 2381 653 
Q 2734 653 3104 758 
Q 3475 863 3866 1075 
L 3866 213 
Q 3469 63 3072 -14 
Q 2675 -91 2278 -91 
Q 1328 -91 801 392 
Q 275 875 275 1747 
Q 275 2603 792 3093 
Q 1309 3584 2216 3584 
Q 3041 3584 3536 3087 
Q 4031 2591 4031 1759 
z
M 2881 2131 
Q 2881 2450 2695 2645 
Q 2509 2841 2209 2841 
Q 1884 2841 1681 2658 
Q 1478 2475 1428 2131 
L 2881 2131 
z
" transform="scale(0.015625)"/>
      <path id="DejaVuSans-Bold-6d" d="M 3781 2919 
Q 3994 3244 4286 3414 
Q 4578 3584 4928 3584 
Q 5531 3584 5847 3212 
Q 6163 2841 6163 2131 
L 6163 0 
L 5038 0 
L 5038 1825 
Q 5041 1866 5042 1909 
Q 5044 1953 5044 2034 
Q 5044 2406 4934 2573 
Q 4825 2741 4581 2741 
Q 4263 2741 4089 2478 
Q 3916 2216 3909 1719 
L 3909 0 
L 2784 0 
L 2784 1825 
Q 2784 2406 2684 2573 
Q 2584 2741 2328 2741 
Q 2006 2741 1831 2477 
Q 1656 2213 1656 1722 
L 1656 0 
L 531 0 
L 531 3500 
L 1656 3500 
L 1656 2988 
Q 1863 3284 2130 3434 
Q 2397 3584 2719 3584 
Q 3081 3584 3359 3409 
Q 3638 3234 3781 2919 
z
" transform="scale(0.015625)"/>
      <path id="DejaVuSans-Bold-67" d="M 2919 594 
Q 2688 288 2409 144 
Q 2131 0 1766 0 
Q 1125 0 706 504 
Q 288 1009 288 1791 
Q 288 2575 706 3076 
Q 1125 3578 1766 3578 
Q 2131 3578 2409 3434 
Q 2688 3291 2919 2981 
L 2919 3500 
L 4044 3500 
L 4044 353 
Q 4044 -491 3511 -936 
Q 2978 -1381 1966 -1381 
Q 1638 -1381 1331 -1331 
Q 1025 -1281 716 -1178 
L 716 -306 
Q 1009 -475 1290 -558 
Q 1572 -641 1856 -641 
Q 2406 -641 2662 -400 
Q 2919 -159 2919 353 
L 2919 594 
z
M 2181 2772 
Q 1834 2772 1640 2515 
Q 1447 2259 1447 1791 
Q 1447 1309 1634 1061 
Q 1822 813 2181 813 
Q 2531 813 2725 1069 
Q 2919 1325 2919 1791 
Q 2919 2259 2725 2515 
Q 2531 2772 2181 2772 
z
" transform="scale(0.015625)"/>
     </defs>
     <use xlink:href="#DejaVuSans-Bold-45"/>
     <use xlink:href="#DejaVuSans-Bold-72" transform="translate(68.310547 0)"/>
     <use xlink:href="#DejaVuSans-Bold-64" transform="translate(117.626953 0)"/>
     <use xlink:href="#DejaVuSans-Bold-151" transform="translate(189.208984 0)"/>
     <use xlink:href="#DejaVuSans-Bold-73" transform="translate(257.910156 0)"/>
     <use xlink:href="#DejaVuSans-Bold-20" transform="translate(317.431641 0)"/>
     <use xlink:href="#DejaVuSans-Bold-50" transform="translate(352.246094 0)"/>
     <use xlink:href="#DejaVuSans-Bold-72" transform="translate(425.537109 0)"/>
     <use xlink:href="#DejaVuSans-Bold-6f" transform="translate(474.853516 0)"/>
     <use xlink:href="#DejaVuSans-Bold-62" transform="translate(543.554688 0)"/>
     <use xlink:href="#DejaVuSans-Bold-6c" transform="translate(615.136719 0)"/>
     <use xlink:href="#DejaVuSans-Bold-65" transform="translate(649.414062 0)"/>
     <use xlink:href="#DejaVuSans-Bold-6d" transform="translate(717.236328 0)"/>
     <use xlink:href="#DejaVuSans-Bold-73" transform="translate(821.435547 0)"/>
     <use xlink:href="#DejaVuSans-Bold-20" transform="translate(880.957031 0)"/>
     <use xlink:href="#DejaVuSans-Bold-50" transform="translate(915.771484 0)"/>
     <use xlink:href="#DejaVuSans-Bold-72" transform="translate(989.0625 0)"/>
     <use xlink:href="#DejaVuSans-Bold-6f" transform="translate(1038.378906 0)"/>
     <use xlink:href="#DejaVuSans-Bold-67" transform="translate(1107.080078 0)"/>
     <use xlink:href="#DejaVuSans-Bold-72" transform="translate(1178.662109 0)"/>
     <use xlink:href="#DejaVuSans-Bold-65" transform="translate(1227.978516 0)"/>
     <use xlink:href="#DejaVuSans-Bold-73" transform="translate(1295.800781 0)"/>
     <use xlink:href="#DejaVuSans-Bold-73" transform="translate(1355.322266 0)"/>
    </g>
   </g>
   <g id="legend_1">
    <g id="patch_7">
     <path d="M 55.90125 119.788437 
L 213.771563 119.788437 
Q 215.771563 119.788437 215.771563 117.788437 
L 215.771563 45.397812 
Q 215.771563 43.397812 213.771563 43.397812 
L 55.90125 43.397812 
Q 53.90125 43.397812 53.90125 45.397812 
L 53.90125 117.788437 
Q 53.90125 119.788437 55.90125 119.788437 
z
" style="fill: #161b22; opacity: 0.8; stroke: #30363d; stroke-linejoin: miter"/>
    </g>
    <g id="line2d_40">
     <path d="M 57.90125 51.49625 
L 67.90125 51.49625 
L 77.90125 51.49625 
" style="fill: none; stroke: #3fb950; stroke-width: 2; stroke-linecap: square"/>
    </g>
    <g id="text_26">
     <!-- Solved -->
     <g style="fill: #c9d1d9" transform="translate(85.90125 54.99625) scale(0.1 -0.1)">
      <defs>
       <path id="DejaVuSans-6c" d="M 603 4863 
L 1178 4863 
L 1178 0 
L 603 0 
L 603 4863 
z
" transform="scale(0.015625)"/>
       <path id="DejaVuSans-64" d="M 2906 2969 
L 2906 4863 
L 3481 4863 
L 3481 0 
L 2906 0 
L 2906 525 
Q 2725 213 2448 61 
Q 2172 -91 1784 -91 
Q 1150 -91 751 415 
Q 353 922 353 1747 
Q 353 2572 751 3078 
Q 1150 3584 1784 3584 
Q 2172 3584 2448 3432 
Q 2725 3281 2906 2969 
z
M 947 1747 
Q 947 1113 1208 752 
Q 1469 391 1925 391 
Q 2381 391 2643 752 
Q 2906 1113 2906 1747 
Q 2906 2381 2643 2742 
Q 2381 3103 1925 3103 
Q 1469 3103 1208 2742 
Q 947 2381 947 1747 
z
" transform="scale(0.015625)"/>
      </defs>
      <use xlink:href="#DejaVuSans-53"/>
      <use xlink:href="#DejaVuSans-6f" transform="translate(63.476562 0)"/>
      <use xlink:href="#DejaVuSans-6c" transform="translate(124.658203 0)"/>
      <use xlink:href="#DejaVuSans-76" transform="translate(152.441406 0)"/>
      <use xlink:href="#DejaVuSans-65" transform="translate(211.621094 0)"/>
      <use xlink:href="#DejaVuSans-64" transform="translate(273.144531 0)"/>
     </g>
    </g>
    <g id="line2d_41">
     <path d="M 57.90125 66.174375 
L 67.90125 66.174375 
L 77.90125 66.174375 
" style="fill: none; stroke: #58a6ff; stroke-width: 2; stroke-linecap: square"/>
    </g>
    <g id="text_27">
     <!-- Lean Formalized Problem -->
     <g style="fill: #c9d1d9" transform="translate(85.90125 69.674375) scale(0.1 -0.1)">
      <defs>
       <path id="DejaVuSans-4c" d="M 628 4666 
L 1259 4666 
L 1259 531 
L 3531 531 
L 3531 0 
L 628 0 
L 628 4666 
z
" transform="scale(0.015625)"/>
       <path id="DejaVuSans-20" transform="scale(0.015625)"/>
       <path id="DejaVuSans-6d" d="M 3328 2828 
Q 3544 3216 3844 3400 
Q 4144 3584 4550 3584 
Q 5097 3584 5394 3201 
Q 5691 2819 5691 2113 
L 5691 0 
L 5113 0 
L 5113 2094 
Q 5113 2597 4934 2840 
Q 4756 3084 4391 3084 
Q 3944 3084 3684 2787 
Q 3425 2491 3425 1978 
L 3425 0 
L 2847 0 
L 2847 2094 
Q 2847 2600 2669 2842 
Q 2491 3084 2119 3084 
Q 1678 3084 1418 2786 
Q 1159 2488 1159 1978 
L 1159 0 
L 581 0 
L 581 3500 
L 1159 3500 
L 1159 2956 
Q 1356 3278 1631 3431 
Q 1906 3584 2284 3584 
Q 2666 3584 2933 3390 
Q 3200 3197 3328 2828 
z
" transform="scale(0.015625)"/>
       <path id="DejaVuSans-69" d="M 603 3500 
L 1178 3500 
L 1178 0 
L 603 0 
L 603 3500 
z
M 603 4863 
L 1178 4863 
L 1178 4134 
L 603 4134 
L 603 4863 
z
" transform="scale(0.015625)"/>
       <path id="DejaVuSans-7a" d="M 353 3500 
L 3084 3500 
L 3084 2975 
L 922 459 
L 3084 459 
L 3084 0 
L 275 0 
L 275 525 
L 2438 3041 
L 353 3041 
L 353 3500 
z
" transform="scale(0.015625)"/>
       <path id="DejaVuSans-50" d="M 1259 4147 
L 1259 2394 
L 2053 2394 
Q 2494 2394 2734 2622 
Q 2975 2850 2975 3272 
Q 2975 3691 2734 3919 
Q 2494 4147 2053 4147 
L 1259 4147 
z
M 628 4666 
L 2053 4666 
Q 2838 4666 3239 4311 
Q 3641 3956 3641 3272 
Q 3641 2581 3239 2228 
Q 2838 1875 2053 1875 
L 1259 1875 
L 1259 0 
L 628 0 
L 628 4666 
z
" transform="scale(0.015625)"/>
      </defs>
      <use xlink:href="#DejaVuSans-4c"/>
      <use xlink:href="#DejaVuSans-65" transform="translate(53.962891 0)"/>
      <use xlink:href="#DejaVuSans-61" transform="translate(115.486328 0)"/>
      <use xlink:href="#DejaVuSans-6e" transform="translate(176.765625 0)"/>
      <use xlink:href="#DejaVuSans-20" transform="translate(240.144531 0)"/>
      <use xlink:href="#DejaVuSans-46" transform="translate(271.931641 0)"/>
      <use xlink:href="#DejaVuSans-6f" transform="translate(325.826172 0)"/>
      <use xlink:href="#DejaVuSans-72" transform="translate(387.007812 0)"/>
      <use xlink:href="#DejaVuSans-6d" transform="translate(426.371094 0)"/>
      <use xlink:href="#DejaVuSans-61" transform="translate(523.783203 0)"/>
      <use xlink:href="#DejaVuSans-6c" transform="translate(585.0625 0)"/>
      <use xlink:href="#DejaVuSans-69" transform="translate(612.845703 0)"/>
      <use xlink:href="#DejaVuSans-7a" transform="translate(640.628906 0)"/>
      <use xlink:href="#DejaVuSans-65" transform="translate(693.119141 0)"/>
      <use xlink:href="#DejaVuSans-64" transform="translate(754.642578 0)"/>
      <use xlink:href="#DejaVuSans-20" transform="translate(818.119141 0)"/>
      <use xlink:href="#DejaVuSans-50" transform="translate(849.90625 0)"/>
      <use xlink:href="#DejaVuSans-72" transform="translate(908.458984 0)"/>
      <use xlink:href="#DejaVuSans-6f" transform="translate(947.322266 0)"/>
      <use xlink:href="#DejaVuSans-62" transform="translate(1008.503906 0)"/>
      <use xlink:href="#DejaVuSans-6c" transform="translate(1071.980469 0)"/>
      <use xlink:href="#DejaVuSans-65" transform="translate(1099.763672 0)"/>
      <use xlink:href="#DejaVuSans-6d" transform="translate(1161.287109 0)"/>
     </g>
    </g>
    <g id="line2d_42">
     <path d="M 57.90125 80.8525 
L 67.90125 80.8525 
L 77.90125 80.8525 
" style="fill: none; stroke: #d29922; stroke-width: 2; stroke-linecap: square"/>
    </g>
    <g id="text_28">
     <!-- Lean Formalized Solution -->
     <g style="fill: #c9d1d9" transform="translate(85.90125 84.3525) scale(0.1 -0.1)">
      <use xlink:href="#DejaVuSans-4c"/>
      <use xlink:href="#DejaVuSans-65" transform="translate(53.962891 0)"/>
      <use xlink:href="#DejaVuSans-61" transform="translate(115.486328 0)"/>
      <use xlink:href="#DejaVuSans-6e" transform="translate(176.765625 0)"/>
      <use xlink:href="#DejaVuSans-20" transform="translate(240.144531 0)"/>
      <use xlink:href="#DejaVuSans-46" transform="translate(271.931641 0)"/>
      <use xlink:href="#DejaVuSans-6f" transform="translate(325.826172 0)"/>
      <use xlink:href="#DejaVuSans-72" transform="translate(387.007812 0)"/>
      <use xlink:href="#DejaVuSans-6d" transform="translate(426.371094 0)"/>
      <use xlink:href="#DejaVuSans-61" transform="translate(523.783203 0)"/>
      <use xlink:href="#DejaVuSans-6c" transform="translate(585.0625 0)"/>
      <use xlink:href="#DejaVuSans-69" transform="translate(612.845703 0)"/>
      <use xlink:href="#DejaVuSans-7a" transform="translate(640.628906 0)"/>
      <use xlink:href="#DejaVuSans-65" transform="translate(693.119141 0)"/>
      <use xlink:href="#DejaVuSans-64" transform="translate(754.642578 0)"/>
      <use xlink:href="#DejaVuSans-20" transform="translate(818.119141 0)"/>
      <use xlink:href="#DejaVuSans-53" transform="translate(849.90625 0)"/>
      <use xlink:href="#DejaVuSans-6f" transform="translate(913.382812 0)"/>
      <use xlink:href="#DejaVuSans-6c" transform="translate(974.564453 0)"/>
      <use xlink:href="#DejaVuSans-75" transform="translate(1002.347656 0)"/>
      <use xlink:href="#DejaVuSans-74" transform="translate(1065.726562 0)"/>
      <use xlink:href="#DejaVuSans-69" transform="translate(1104.935547 0)"/>
      <use xlink:href="#DejaVuSans-6f" transform="translate(1132.71875 0)"/>
      <use xlink:href="#DejaVuSans-6e" transform="translate(1193.900391 0)"/>
     </g>
    </g>
    <g id="line2d_43">
     <path d="M 57.90125 95.530625 
L 67.90125 95.530625 
L 77.90125 95.530625 
" style="fill: none; stroke: #f85149; stroke-width: 2; stroke-linecap: square"/>
    </g>
    <g id="text_29">
     <!-- OEIS Linked -->
     <g style="fill: #c9d1d9" transform="translate(85.90125 99.030625) scale(0.1 -0.1)">
      <defs>
       <path id="DejaVuSans-45" d="M 628 4666 
L 3578 4666 
L 3578 4134 
L 1259 4134 
L 1259 2753 
L 3481 2753 
L 3481 2222 
L 1259 2222 
L 1259 531 
L 3634 531 
L 3634 0 
L 628 0 
L 628 4666 
z
" transform="scale(0.015625)"/>
       <path id="DejaVuSans-49" d="M 628 4666 
L 1259 4666 
L 1259 0 
L 628 0 
L 628 4666 
z
" transform="scale(0.015625)"/>
       <path id="DejaVuSans-6b" d="M 581 4863 
L 1159 4863 
L 1159 1991 
L 2875 3500 
L 3609 3500 
L 1753 1863 
L 3688 0 
L 2938 0 
L 1159 1709 
L 1159 0 
L 581 0 
L 581 4863 
z
" transform="scale(0.015625)"/>
      </defs>
      <use xlink:href="#DejaVuSans-4f"/>
      <use xlink:href="#DejaVuSans-45" transform="translate(78.710938 0)"/>
      <use xlink:href="#DejaVuSans-49" transform="translate(141.894531 0)"/>
      <use xlink:href="#DejaVuSans-53" transform="translate(171.386719 0)"/>
      <use xlink:href="#DejaVuSans-20" transform="translate(234.863281 0)"/>
      <use xlink:href="#DejaVuSans-4c" transform="translate(266.650391 0)"/>
      <use xlink:href="#DejaVuSans-69" transform="translate(322.363281 0)"/>
      <use xlink:href="#DejaVuSans-6e" transform="translate(350.146484 0)"/>
      <use xlink:href="#DejaVuSans-6b" transform="translate(413.525391 0)"/>
      <use xlink:href="#DejaVuSans-65" transform="translate(467.810547 0)"/>
      <use xlink:href="#DejaVuSans-64" transform="translate(529.333984 0)"/>
     </g>
    </g>
    <g id="line2d_44">
     <path d="M 57.90125 110.20875 
L 67.90125 110.20875 
L 77.90125 110.20875 
" style="fill: none; stroke: #9467bd; stroke-width: 2; stroke-linecap: square"/>
    </g>
    <g id="text_30">
     <!-- Open Problems -->
     <g style="fill: #c9d1d9" transform="translate(85.90125 113.70875) scale(0.1 -0.1)">
      <defs>
       <path id="DejaVuSans-73" d="M 2834 3397 
L 2834 2853 
Q 2591 2978 2328 3040 
Q 2066 3103 1784 3103 
Q 1356 3103 1142 2972 
Q 928 2841 928 2578 
Q 928 2378 1081 2264 
Q 1234 2150 1697 2047 
L 1894 2003 
Q 2506 1872 2764 1633 
Q 3022 1394 3022 966 
Q 3022 478 2636 193 
Q 2250 -91 1575 -91 
Q 1294 -91 989 -36 
Q 684 19 347 128 
L 347 722 
Q 666 556 975 473 
Q 1284 391 1588 391 
Q 1994 391 2212 530 
Q 2431 669 2431 922 
Q 2431 1156 2273 1281 
Q 2116 1406 1581 1522 
L 1381 1569 
Q 847 1681 609 1914 
Q 372 2147 372 2553 
Q 372 3047 722 3315 
Q 1072 3584 1716 3584 
Q 2034 3584 2315 3537 
Q 2597 3491 2834 3397 
z
" transform="scale(0.015625)"/>
      </defs>
      <use xlink:href="#DejaVuSans-4f"/>
      <use xlink:href="#DejaVuSans-70" transform="translate(78.710938 0)"/>
      <use xlink:href="#DejaVuSans-65" transform="translate(142.1875 0)"/>
      <use xlink:href="#DejaVuSans-6e" transform="translate(203.710938 0)"/>
      <use xlink:href="#DejaVuSans-20" transform="translate(267.089844 0)"/>
      <use xlink:href="#DejaVuSans-50" transform="translate(298.876953 0)"/>
      <use xlink:href="#DejaVuSans-72" transform="translate(357.429688 0)"/>
      <use xlink:href="#DejaVuSans-6f" transform="translate(396.292969 0)"/>
      <use xlink:href="#DejaVuSans-62" transform="translate(457.474609 0)"/>
      <use xlink:href="#DejaVuSans-6c" transform="translate(520.951172 0)"/>
      <use xlink:href="#DejaVuSans-65" transform="translate(548.734375 0)"/>
      <use xlink:href="#DejaVuSans-6d" transform="translate(610.257812 0)"/>
      <use xlink:href="#DejaVuSans-73" transform="translate(707.669922 0)"/>
     </g>
    </g>
   </g>
  </g>
 </g>
 <defs>
  <clipPath id="p04847da074">
   <rect x="48.90125" y="38.397812" width="799.45" height="416.84"/>
  </clipPath>
 </defs>
</svg>
