<?xml version="1.0" encoding="utf-8" standalone="no"?>
<!DOCTYPE svg PUBLIC "-//W3C//DTD SVG 1.1//EN"
  "http://www.w3.org/Graphics/SVG/1.1/DTD/svg11.dtd">
<svg xmlns:xlink="http://www.w3.org/1999/xlink" width="855.55125pt" height="494.729687pt" viewBox="0 0 855.55125 494.729687" xmlns="http://www.w3.org/2000/svg" version="1.1">
 <metadata>
  <rdf:RDF xmlns:dc="http://purl.org/dc/elements/1.1/" xmlns:cc="http://creativecommons.org/ns#" xmlns:rdf="http://www.w3.org/1999/02/22-rdf-syntax-ns#">
   <cc:Work>
    <dc:type rdf:resource="http://purl.org/dc/dcmitype/StillImage"/>
    <dc:date>2026-02-01T00:20:52.314291</dc:date>
    <dc:format>image/svg+xml</dc:format>
    <dc:creator>
     <cc:Agent>
      <dc:title>Matplotlib v3.10.7, https://matplotlib.org/</dc:title>
     </cc:Agent>
    </dc:creator>
   </cc:Work>
  </rdf:RDF>
 </metadata>
 <defs>
  <style type="text/css">*{stroke-linejoin: round; stroke-linecap: butt}</style>
 </defs>
 <g id="figure_1">
  <g id="patch_1">
   <path d="M 0 494.729687 
L 855.55125 494.729687 
L 855.55125 0 
L 0 0 
z
" style="fill: #ffffff"/>
  </g>
  <g id="axes_1">
   <g id="patch_2">
    <path d="M 48.90125 455.237812 
L 848.35125 455.237812 
L 848.35125 38.397812 
L 48.90125 38.397812 
z
" style="fill: #ffffff"/>
   </g>
   <g id="matplotlib.axis_1">
    <g id="xtick_1">
     <g id="line2d_1">
      <path d="M 86.625756 455.237812 
L 86.625756 38.397812 
" clip-path="url(#pf82ec6517b)" style="fill: none; stroke: #d0d7de; stroke-opacity: 0.25; stroke-width: 0.5; stroke-linecap: square"/>
     </g>
     <g id="line2d_2">
      <defs>
       <path id="m8009d65d60" d="M 0 0 
L 0 3.5 
" style="stroke: #24292f; stroke-width: 0.8"/>
      </defs>
      <g>
       <use xlink:href="#m8009d65d60" x="86.625756" y="455.237812" style="fill: #24292f; stroke: #24292f; stroke-width: 0.8"/>
      </g>
     </g>
     <g id="text_1">
      <!-- Sep -->
      <g style="fill: #24292f" transform="translate(77.200756 469.83625) scale(0.1 -0.1)">
       <defs>
        <path id="DejaVuSans-53" d="M 3425 4513 
L 3425 3897 
Q 3066 4069 2747 4153 
Q 2428 4238 2131 4238 
Q 1616 4238 1336 4038 
Q 1056 3838 1056 3469 
Q 1056 3159 1242 3001 
Q 1428 2844 1947 2747 
L 2328 2669 
Q 3034 2534 3370 2195 
Q 3706 1856 3706 1288 
Q 3706 609 3251 259 
Q 2797 -91 1919 -91 
Q 1588 -91 1214 -16 
Q 841 59 441 206 
L 441 856 
Q 825 641 1194 531 
Q 1563 422 1919 422 
Q 2459 422 2753 634 
Q 3047 847 3047 1241 
Q 3047 1584 2836 1778 
Q 2625 1972 2144 2069 
L 1759 2144 
Q 1053 2284 737 2584 
Q 422 2884 422 3419 
Q 422 4038 858 4394 
Q 1294 4750 2059 4750 
Q 2388 4750 2728 4690 
Q 3069 4631 3425 4513 
z
" transform="scale(0.015625)"/>
        <path id="DejaVuSans-65" d="M 3597 1894 
L 3597 1613 
L 953 1613 
Q 991 1019 1311 708 
Q 1631 397 2203 397 
Q 2534 397 2845 478 
Q 3156 559 3463 722 
L 3463 178 
Q 3153 47 2828 -22 
Q 2503 -91 2169 -91 
Q 1331 -91 842 396 
Q 353 884 353 1716 
Q 353 2575 817 3079 
Q 1281 3584 2069 3584 
Q 2775 3584 3186 3129 
Q 3597 2675 3597 1894 
z
M 3022 2063 
Q 3016 2534 2758 2815 
Q 2500 3097 2075 3097 
Q 1594 3097 1305 2825 
Q 1016 2553 972 2059 
L 3022 2063 
z
" transform="scale(0.015625)"/>
        <path id="DejaVuSans-70" d="M 1159 525 
L 1159 -1331 
L 581 -1331 
L 581 3500 
L 1159 3500 
L 1159 2969 
Q 1341 3281 1617 3432 
Q 1894 3584 2278 3584 
Q 2916 3584 3314 3078 
Q 3713 2572 3713 1747 
Q 3713 922 3314 415 
Q 2916 -91 2278 -91 
Q 1894 -91 1617 61 
Q 1341 213 1159 525 
z
M 3116 1747 
Q 3116 2381 2855 2742 
Q 2594 3103 2138 3103 
Q 1681 3103 1420 2742 
Q 1159 2381 1159 1747 
Q 1159 1113 1420 752 
Q 1681 391 2138 391 
Q 2594 391 2855 752 
Q 3116 1113 3116 1747 
z
" transform="scale(0.015625)"/>
       </defs>
       <use xlink:href="#DejaVuSans-53"/>
       <use xlink:href="#DejaVuSans-65" transform="translate(63.476562 0)"/>
       <use xlink:href="#DejaVuSans-70" transform="translate(125 0)"/>
      </g>
     </g>
    </g>
    <g id="xtick_2">
     <g id="line2d_3">
      <path d="M 228.845003 455.237812 
L 228.845003 38.397812 
" clip-path="url(#pf82ec6517b)" style="fill: none; stroke: #d0d7de; stroke-opacity: 0.25; stroke-width: 0.5; stroke-linecap: square"/>
     </g>
     <g id="line2d_4">
      <g>
       <use xlink:href="#m8009d65d60" x="228.845003" y="455.237812" style="fill: #24292f; stroke: #24292f; stroke-width: 0.8"/>
      </g>
     </g>
     <g id="text_2">
      <!-- Oct -->
      <g style="fill: #24292f" transform="translate(220.199691 469.83625) scale(0.1 -0.1)">
       <defs>
        <path id="DejaVuSans-4f" d="M 2522 4238 
Q 1834 4238 1429 3725 
Q 1025 3213 1025 2328 
Q 1025 1447 1429 934 
Q 1834 422 2522 422 
Q 3209 422 3611 934 
Q 4013 1447 4013 2328 
Q 4013 3213 3611 3725 
Q 3209 4238 2522 4238 
z
M 2522 4750 
Q 3503 4750 4090 4092 
Q 4678 3434 4678 2328 
Q 4678 1225 4090 567 
Q 3503 -91 2522 -91 
Q 1538 -91 948 565 
Q 359 1222 359 2328 
Q 359 3434 948 4092 
Q 1538 4750 2522 4750 
z
" transform="scale(0.015625)"/>
        <path id="DejaVuSans-63" d="M 3122 3366 
L 3122 2828 
Q 2878 2963 2633 3030 
Q 2388 3097 2138 3097 
Q 1578 3097 1268 2742 
Q 959 2388 959 1747 
Q 959 1106 1268 751 
Q 1578 397 2138 397 
Q 2388 397 2633 464 
Q 2878 531 3122 666 
L 3122 134 
Q 2881 22 2623 -34 
Q 2366 -91 2075 -91 
Q 1284 -91 818 406 
Q 353 903 353 1747 
Q 353 2603 823 3093 
Q 1294 3584 2113 3584 
Q 2378 3584 2631 3529 
Q 2884 3475 3122 3366 
z
" transform="scale(0.015625)"/>
        <path id="DejaVuSans-74" d="M 1172 4494 
L 1172 3500 
L 2356 3500 
L 2356 3053 
L 1172 3053 
L 1172 1153 
Q 1172 725 1289 603 
Q 1406 481 1766 481 
L 2356 481 
L 2356 0 
L 1766 0 
Q 1100 0 847 248 
Q 594 497 594 1153 
L 594 3053 
L 172 3053 
L 172 3500 
L 594 3500 
L 594 4494 
L 1172 4494 
z
" transform="scale(0.015625)"/>
       </defs>
       <use xlink:href="#DejaVuSans-4f"/>
       <use xlink:href="#DejaVuSans-63" transform="translate(78.710938 0)"/>
       <use xlink:href="#DejaVuSans-74" transform="translate(133.691406 0)"/>
      </g>
     </g>
    </g>
    <g id="xtick_3">
     <g id="line2d_5">
      <path d="M 375.804892 455.237812 
L 375.804892 38.397812 
" clip-path="url(#pf82ec6517b)" style="fill: none; stroke: #d0d7de; stroke-opacity: 0.25; stroke-width: 0.5; stroke-linecap: square"/>
     </g>
     <g id="line2d_6">
      <g>
       <use xlink:href="#m8009d65d60" x="375.804892" y="455.237812" style="fill: #24292f; stroke: #24292f; stroke-width: 0.8"/>
      </g>
     </g>
     <g id="text_3">
      <!-- Nov -->
      <g style="fill: #24292f" transform="translate(366.045517 469.83625) scale(0.1 -0.1)">
       <defs>
        <path id="DejaVuSans-4e" d="M 628 4666 
L 1478 4666 
L 3547 763 
L 3547 4666 
L 4159 4666 
L 4159 0 
L 3309 0 
L 1241 3903 
L 1241 0 
L 628 0 
L 628 4666 
z
" transform="scale(0.015625)"/>
        <path id="DejaVuSans-6f" d="M 1959 3097 
Q 1497 3097 1228 2736 
Q 959 2375 959 1747 
Q 959 1119 1226 758 
Q 1494 397 1959 397 
Q 2419 397 2687 759 
Q 2956 1122 2956 1747 
Q 2956 2369 2687 2733 
Q 2419 3097 1959 3097 
z
M 1959 3584 
Q 2709 3584 3137 3096 
Q 3566 2609 3566 1747 
Q 3566 888 3137 398 
Q 2709 -91 1959 -91 
Q 1206 -91 779 398 
Q 353 888 353 1747 
Q 353 2609 779 3096 
Q 1206 3584 1959 3584 
z
" transform="scale(0.015625)"/>
        <path id="DejaVuSans-76" d="M 191 3500 
L 800 3500 
L 1894 563 
L 2988 3500 
L 3597 3500 
L 2284 0 
L 1503 0 
L 191 3500 
z
" transform="scale(0.015625)"/>
       </defs>
       <use xlink:href="#DejaVuSans-4e"/>
       <use xlink:href="#DejaVuSans-6f" transform="translate(74.804688 0)"/>
       <use xlink:href="#DejaVuSans-76" transform="translate(135.986328 0)"/>
      </g>
     </g>
    </g>
    <g id="xtick_4">
     <g id="line2d_7">
      <path d="M 518.02414 455.237812 
L 518.02414 38.397812 
" clip-path="url(#pf82ec6517b)" style="fill: none; stroke: #d0d7de; stroke-opacity: 0.25; stroke-width: 0.5; stroke-linecap: square"/>
     </g>
     <g id="line2d_8">
      <g>
       <use xlink:href="#m8009d65d60" x="518.02414" y="455.237812" style="fill: #24292f; stroke: #24292f; stroke-width: 0.8"/>
      </g>
     </g>
     <g id="text_4">
      <!-- Dec -->
      <g style="fill: #24292f" transform="translate(508.348359 469.83625) scale(0.1 -0.1)">
       <defs>
        <path id="DejaVuSans-44" d="M 1259 4147 
L 1259 519 
L 2022 519 
Q 2988 519 3436 956 
Q 3884 1394 3884 2338 
Q 3884 3275 3436 3711 
Q 2988 4147 2022 4147 
L 1259 4147 
z
M 628 4666 
L 1925 4666 
Q 3281 4666 3915 4102 
Q 4550 3538 4550 2338 
Q 4550 1131 3912 565 
Q 3275 0 1925 0 
L 628 0 
L 628 4666 
z
" transform="scale(0.015625)"/>
       </defs>
       <use xlink:href="#DejaVuSans-44"/>
       <use xlink:href="#DejaVuSans-65" transform="translate(77.001953 0)"/>
       <use xlink:href="#DejaVuSans-63" transform="translate(138.525391 0)"/>
      </g>
     </g>
    </g>
    <g id="xtick_5">
     <g id="line2d_9">
      <path d="M 664.984029 455.237812 
L 664.984029 38.397812 
" clip-path="url(#pf82ec6517b)" style="fill: none; stroke: #d0d7de; stroke-opacity: 0.25; stroke-width: 0.5; stroke-linecap: square"/>
     </g>
     <g id="line2d_10">
      <g>
       <use xlink:href="#m8009d65d60" x="664.984029" y="455.237812" style="fill: #24292f; stroke: #24292f; stroke-width: 0.8"/>
      </g>
     </g>
     <g id="text_5">
      <!-- 2026 -->
      <g style="fill: #24292f" transform="translate(652.259029 469.83625) scale(0.1 -0.1)">
       <defs>
        <path id="DejaVuSans-32" d="M 1228 531 
L 3431 531 
L 3431 0 
L 469 0 
L 469 531 
Q 828 903 1448 1529 
Q 2069 2156 2228 2338 
Q 2531 2678 2651 2914 
Q 2772 3150 2772 3378 
Q 2772 3750 2511 3984 
Q 2250 4219 1831 4219 
Q 1534 4219 1204 4116 
Q 875 4013 500 3803 
L 500 4441 
Q 881 4594 1212 4672 
Q 1544 4750 1819 4750 
Q 2544 4750 2975 4387 
Q 3406 4025 3406 3419 
Q 3406 3131 3298 2873 
Q 3191 2616 2906 2266 
Q 2828 2175 2409 1742 
Q 1991 1309 1228 531 
z
" transform="scale(0.015625)"/>
        <path id="DejaVuSans-30" d="M 2034 4250 
Q 1547 4250 1301 3770 
Q 1056 3291 1056 2328 
Q 1056 1369 1301 889 
Q 1547 409 2034 409 
Q 2525 409 2770 889 
Q 3016 1369 3016 2328 
Q 3016 3291 2770 3770 
Q 2525 4250 2034 4250 
z
M 2034 4750 
Q 2819 4750 3233 4129 
Q 3647 3509 3647 2328 
Q 3647 1150 3233 529 
Q 2819 -91 2034 -91 
Q 1250 -91 836 529 
Q 422 1150 422 2328 
Q 422 3509 836 4129 
Q 1250 4750 2034 4750 
z
" transform="scale(0.015625)"/>
        <path id="DejaVuSans-36" d="M 2113 2584 
Q 1688 2584 1439 2293 
Q 1191 2003 1191 1497 
Q 1191 994 1439 701 
Q 1688 409 2113 409 
Q 2538 409 2786 701 
Q 3034 994 3034 1497 
Q 3034 2003 2786 2293 
Q 2538 2584 2113 2584 
z
M 3366 4563 
L 3366 3988 
Q 3128 4100 2886 4159 
Q 2644 4219 2406 4219 
Q 1781 4219 1451 3797 
Q 1122 3375 1075 2522 
Q 1259 2794 1537 2939 
Q 1816 3084 2150 3084 
Q 2853 3084 3261 2657 
Q 3669 2231 3669 1497 
Q 3669 778 3244 343 
Q 2819 -91 2113 -91 
Q 1303 -91 875 529 
Q 447 1150 447 2328 
Q 447 3434 972 4092 
Q 1497 4750 2381 4750 
Q 2619 4750 2861 4703 
Q 3103 4656 3366 4563 
z
" transform="scale(0.015625)"/>
       </defs>
       <use xlink:href="#DejaVuSans-32"/>
       <use xlink:href="#DejaVuSans-30" transform="translate(63.623047 0)"/>
       <use xlink:href="#DejaVuSans-32" transform="translate(127.246094 0)"/>
       <use xlink:href="#DejaVuSans-36" transform="translate(190.869141 0)"/>
      </g>
     </g>
    </g>
    <g id="xtick_6">
     <g id="line2d_11">
      <path d="M 811.943918 455.237812 
L 811.943918 38.397812 
" clip-path="url(#pf82ec6517b)" style="fill: none; stroke: #d0d7de; stroke-opacity: 0.25; stroke-width: 0.5; stroke-linecap: square"/>
     </g>
     <g id="line2d_12">
      <g>
       <use xlink:href="#m8009d65d60" x="811.943918" y="455.237812" style="fill: #24292f; stroke: #24292f; stroke-width: 0.8"/>
      </g>
     </g>
     <g id="text_6">
      <!-- Feb -->
      <g style="fill: #24292f" transform="translate(803.092356 469.83625) scale(0.1 -0.1)">
       <defs>
        <path id="DejaVuSans-46" d="M 628 4666 
L 3309 4666 
L 3309 4134 
L 1259 4134 
L 1259 2759 
L 3109 2759 
L 3109 2228 
L 1259 2228 
L 1259 0 
L 628 0 
L 628 4666 
z
" transform="scale(0.015625)"/>
        <path id="DejaVuSans-62" d="M 3116 1747 
Q 3116 2381 2855 2742 
Q 2594 3103 2138 3103 
Q 1681 3103 1420 2742 
Q 1159 2381 1159 1747 
Q 1159 1113 1420 752 
Q 1681 391 2138 391 
Q 2594 391 2855 752 
Q 3116 1113 3116 1747 
z
M 1159 2969 
Q 1341 3281 1617 3432 
Q 1894 3584 2278 3584 
Q 2916 3584 3314 3078 
Q 3713 2572 3713 1747 
Q 3713 922 3314 415 
Q 2916 -91 2278 -91 
Q 1894 -91 1617 61 
Q 1341 213 1159 525 
L 1159 0 
L 581 0 
L 581 4863 
L 1159 4863 
L 1159 2969 
z
" transform="scale(0.015625)"/>
       </defs>
       <use xlink:href="#DejaVuSans-46"/>
       <use xlink:href="#DejaVuSans-65" transform="translate(52.019531 0)"/>
       <use xlink:href="#DejaVuSans-62" transform="translate(113.542969 0)"/>
      </g>
     </g>
    </g>
    <g id="text_7">
     <!-- Date -->
     <g style="fill: #24292f" transform="translate(434.285313 485.034062) scale(0.12 -0.12)">
      <defs>
       <path id="DejaVuSans-61" d="M 2194 1759 
Q 1497 1759 1228 1600 
Q 959 1441 959 1056 
Q 959 750 1161 570 
Q 1363 391 1709 391 
Q 2188 391 2477 730 
Q 2766 1069 2766 1631 
L 2766 1759 
L 2194 1759 
z
M 3341 1997 
L 3341 0 
L 2766 0 
L 2766 531 
Q 2569 213 2275 61 
Q 1981 -91 1556 -91 
Q 1019 -91 701 211 
Q 384 513 384 1019 
Q 384 1609 779 1909 
Q 1175 2209 1959 2209 
L 2766 2209 
L 2766 2266 
Q 2766 2663 2505 2880 
Q 2244 3097 1772 3097 
Q 1472 3097 1187 3025 
Q 903 2953 641 2809 
L 641 3341 
Q 956 3463 1253 3523 
Q 1550 3584 1831 3584 
Q 2591 3584 2966 3190 
Q 3341 2797 3341 1997 
z
" transform="scale(0.015625)"/>
      </defs>
      <use xlink:href="#DejaVuSans-44"/>
      <use xlink:href="#DejaVuSans-61" transform="translate(77.001953 0)"/>
      <use xlink:href="#DejaVuSans-74" transform="translate(138.28125 0)"/>
      <use xlink:href="#DejaVuSans-65" transform="translate(177.490234 0)"/>
     </g>
    </g>
   </g>
   <g id="matplotlib.axis_2">
    <g id="ytick_1">
     <g id="line2d_13">
      <path d="M 48.90125 455.237812 
L 848.35125 455.237812 
" clip-path="url(#pf82ec6517b)" style="fill: none; stroke: #d0d7de; stroke-opacity: 0.25; stroke-width: 0.5; stroke-linecap: square"/>
     </g>
     <g id="line2d_14">
      <defs>
       <path id="mb08061c526" d="M 0 0 
L -3.5 0 
" style="stroke: #24292f; stroke-width: 0.8"/>
      </defs>
      <g>
       <use xlink:href="#mb08061c526" x="48.90125" y="455.237812" style="fill: #24292f; stroke: #24292f; stroke-width: 0.8"/>
      </g>
     </g>
     <g id="text_8">
      <!-- 0 -->
      <g style="fill: #24292f" transform="translate(35.53875 459.037031) scale(0.1 -0.1)">
       <use xlink:href="#DejaVuSans-30"/>
      </g>
     </g>
    </g>
    <g id="ytick_2">
     <g id="line2d_15">
      <path d="M 48.90125 399.659146 
L 848.35125 399.659146 
" clip-path="url(#pf82ec6517b)" style="fill: none; stroke: #d0d7de; stroke-opacity: 0.25; stroke-width: 0.5; stroke-linecap: square"/>
     </g>
     <g id="line2d_16">
      <g>
       <use xlink:href="#mb08061c526" x="48.90125" y="399.659146" style="fill: #24292f; stroke: #24292f; stroke-width: 0.8"/>
      </g>
     </g>
     <g id="text_9">
      <!-- 100 -->
      <g style="fill: #24292f" transform="translate(22.81375 403.458365) scale(0.1 -0.1)">
       <defs>
        <path id="DejaVuSans-31" d="M 794 531 
L 1825 531 
L 1825 4091 
L 703 3866 
L 703 4441 
L 1819 4666 
L 2450 4666 
L 2450 531 
L 3481 531 
L 3481 0 
L 794 0 
L 794 531 
z
" transform="scale(0.015625)"/>
       </defs>
       <use xlink:href="#DejaVuSans-31"/>
       <use xlink:href="#DejaVuSans-30" transform="translate(63.623047 0)"/>
       <use xlink:href="#DejaVuSans-30" transform="translate(127.246094 0)"/>
      </g>
     </g>
    </g>
    <g id="ytick_3">
     <g id="line2d_17">
      <path d="M 48.90125 344.080479 
L 848.35125 344.080479 
" clip-path="url(#pf82ec6517b)" style="fill: none; stroke: #d0d7de; stroke-opacity: 0.25; stroke-width: 0.5; stroke-linecap: square"/>
     </g>
     <g id="line2d_18">
      <g>
       <use xlink:href="#mb08061c526" x="48.90125" y="344.080479" style="fill: #24292f; stroke: #24292f; stroke-width: 0.8"/>
      </g>
     </g>
     <g id="text_10">
      <!-- 200 -->
      <g style="fill: #24292f" transform="translate(22.81375 347.879698) scale(0.1 -0.1)">
       <use xlink:href="#DejaVuSans-32"/>
       <use xlink:href="#DejaVuSans-30" transform="translate(63.623047 0)"/>
       <use xlink:href="#DejaVuSans-30" transform="translate(127.246094 0)"/>
      </g>
     </g>
    </g>
    <g id="ytick_4">
     <g id="line2d_19">
      <path d="M 48.90125 288.501812 
L 848.35125 288.501812 
" clip-path="url(#pf82ec6517b)" style="fill: none; stroke: #d0d7de; stroke-opacity: 0.25; stroke-width: 0.5; stroke-linecap: square"/>
     </g>
     <g id="line2d_20">
      <g>
       <use xlink:href="#mb08061c526" x="48.90125" y="288.501812" style="fill: #24292f; stroke: #24292f; stroke-width: 0.8"/>
      </g>
     </g>
     <g id="text_11">
      <!-- 300 -->
      <g style="fill: #24292f" transform="translate(22.81375 292.301031) scale(0.1 -0.1)">
       <defs>
        <path id="DejaVuSans-33" d="M 2597 2516 
Q 3050 2419 3304 2112 
Q 3559 1806 3559 1356 
Q 3559 666 3084 287 
Q 2609 -91 1734 -91 
Q 1441 -91 1130 -33 
Q 819 25 488 141 
L 488 750 
Q 750 597 1062 519 
Q 1375 441 1716 441 
Q 2309 441 2620 675 
Q 2931 909 2931 1356 
Q 2931 1769 2642 2001 
Q 2353 2234 1838 2234 
L 1294 2234 
L 1294 2753 
L 1863 2753 
Q 2328 2753 2575 2939 
Q 2822 3125 2822 3475 
Q 2822 3834 2567 4026 
Q 2313 4219 1838 4219 
Q 1578 4219 1281 4162 
Q 984 4106 628 3988 
L 628 4550 
Q 988 4650 1302 4700 
Q 1616 4750 1894 4750 
Q 2613 4750 3031 4423 
Q 3450 4097 3450 3541 
Q 3450 3153 3228 2886 
Q 3006 2619 2597 2516 
z
" transform="scale(0.015625)"/>
       </defs>
       <use xlink:href="#DejaVuSans-33"/>
       <use xlink:href="#DejaVuSans-30" transform="translate(63.623047 0)"/>
       <use xlink:href="#DejaVuSans-30" transform="translate(127.246094 0)"/>
      </g>
     </g>
    </g>
    <g id="ytick_5">
     <g id="line2d_21">
      <path d="M 48.90125 232.923146 
L 848.35125 232.923146 
" clip-path="url(#pf82ec6517b)" style="fill: none; stroke: #d0d7de; stroke-opacity: 0.25; stroke-width: 0.5; stroke-linecap: square"/>
     </g>
     <g id="line2d_22">
      <g>
       <use xlink:href="#mb08061c526" x="48.90125" y="232.923146" style="fill: #24292f; stroke: #24292f; stroke-width: 0.8"/>
      </g>
     </g>
     <g id="text_12">
      <!-- 400 -->
      <g style="fill: #24292f" transform="translate(22.81375 236.722365) scale(0.1 -0.1)">
       <defs>
        <path id="DejaVuSans-34" d="M 2419 4116 
L 825 1625 
L 2419 1625 
L 2419 4116 
z
M 2253 4666 
L 3047 4666 
L 3047 1625 
L 3713 1625 
L 3713 1100 
L 3047 1100 
L 3047 0 
L 2419 0 
L 2419 1100 
L 313 1100 
L 313 1709 
L 2253 4666 
z
" transform="scale(0.015625)"/>
       </defs>
       <use xlink:href="#DejaVuSans-34"/>
       <use xlink:href="#DejaVuSans-30" transform="translate(63.623047 0)"/>
       <use xlink:href="#DejaVuSans-30" transform="translate(127.246094 0)"/>
      </g>
     </g>
    </g>
    <g id="ytick_6">
     <g id="line2d_23">
      <path d="M 48.90125 177.344479 
L 848.35125 177.344479 
" clip-path="url(#pf82ec6517b)" style="fill: none; stroke: #d0d7de; stroke-opacity: 0.25; stroke-width: 0.5; stroke-linecap: square"/>
     </g>
     <g id="line2d_24">
      <g>
       <use xlink:href="#mb08061c526" x="48.90125" y="177.344479" style="fill: #24292f; stroke: #24292f; stroke-width: 0.8"/>
      </g>
     </g>
     <g id="text_13">
      <!-- 500 -->
      <g style="fill: #24292f" transform="translate(22.81375 181.143698) scale(0.1 -0.1)">
       <defs>
        <path id="DejaVuSans-35" d="M 691 4666 
L 3169 4666 
L 3169 4134 
L 1269 4134 
L 1269 2991 
Q 1406 3038 1543 3061 
Q 1681 3084 1819 3084 
Q 2600 3084 3056 2656 
Q 3513 2228 3513 1497 
Q 3513 744 3044 326 
Q 2575 -91 1722 -91 
Q 1428 -91 1123 -41 
Q 819 9 494 109 
L 494 744 
Q 775 591 1075 516 
Q 1375 441 1709 441 
Q 2250 441 2565 725 
Q 2881 1009 2881 1497 
Q 2881 1984 2565 2268 
Q 2250 2553 1709 2553 
Q 1456 2553 1204 2497 
Q 953 2441 691 2322 
L 691 4666 
z
" transform="scale(0.015625)"/>
       </defs>
       <use xlink:href="#DejaVuSans-35"/>
       <use xlink:href="#DejaVuSans-30" transform="translate(63.623047 0)"/>
       <use xlink:href="#DejaVuSans-30" transform="translate(127.246094 0)"/>
      </g>
     </g>
    </g>
    <g id="ytick_7">
     <g id="line2d_25">
      <path d="M 48.90125 121.765812 
L 848.35125 121.765812 
" clip-path="url(#pf82ec6517b)" style="fill: none; stroke: #d0d7de; stroke-opacity: 0.25; stroke-width: 0.5; stroke-linecap: square"/>
     </g>
     <g id="line2d_26">
      <g>
       <use xlink:href="#mb08061c526" x="48.90125" y="121.765812" style="fill: #24292f; stroke: #24292f; stroke-width: 0.8"/>
      </g>
     </g>
     <g id="text_14">
      <!-- 600 -->
      <g style="fill: #24292f" transform="translate(22.81375 125.565031) scale(0.1 -0.1)">
       <use xlink:href="#DejaVuSans-36"/>
       <use xlink:href="#DejaVuSans-30" transform="translate(63.623047 0)"/>
       <use xlink:href="#DejaVuSans-30" transform="translate(127.246094 0)"/>
      </g>
     </g>
    </g>
    <g id="ytick_8">
     <g id="line2d_27">
      <path d="M 48.90125 66.187146 
L 848.35125 66.187146 
" clip-path="url(#pf82ec6517b)" style="fill: none; stroke: #d0d7de; stroke-opacity: 0.25; stroke-width: 0.5; stroke-linecap: square"/>
     </g>
     <g id="line2d_28">
      <g>
       <use xlink:href="#mb08061c526" x="48.90125" y="66.187146" style="fill: #24292f; stroke: #24292f; stroke-width: 0.8"/>
      </g>
     </g>
     <g id="text_15">
      <!-- 700 -->
      <g style="fill: #24292f" transform="translate(22.81375 69.986365) scale(0.1 -0.1)">
       <defs>
        <path id="DejaVuSans-37" d="M 525 4666 
L 3525 4666 
L 3525 4397 
L 1831 0 
L 1172 0 
L 2766 4134 
L 525 4134 
L 525 4666 
z
" transform="scale(0.015625)"/>
       </defs>
       <use xlink:href="#DejaVuSans-37"/>
       <use xlink:href="#DejaVuSans-30" transform="translate(63.623047 0)"/>
       <use xlink:href="#DejaVuSans-30" transform="translate(127.246094 0)"/>
      </g>
     </g>
    </g>
    <g id="text_16">
     <!-- Count -->
     <g style="fill: #24292f" transform="translate(16.318125 264.635937) rotate(-90) scale(0.12 -0.12)">
      <defs>
       <path id="DejaVuSans-43" d="M 4122 4306 
L 4122 3641 
Q 3803 3938 3442 4084 
Q 3081 4231 2675 4231 
Q 1875 4231 1450 3742 
Q 1025 3253 1025 2328 
Q 1025 1406 1450 917 
Q 1875 428 2675 428 
Q 3081 428 3442 575 
Q 3803 722 4122 1019 
L 4122 359 
Q 3791 134 3420 21 
Q 3050 -91 2638 -91 
Q 1578 -91 968 557 
Q 359 1206 359 2328 
Q 359 3453 968 4101 
Q 1578 4750 2638 4750 
Q 3056 4750 3426 4639 
Q 3797 4528 4122 4306 
z
" transform="scale(0.015625)"/>
       <path id="DejaVuSans-75" d="M 544 1381 
L 544 3500 
L 1119 3500 
L 1119 1403 
Q 1119 906 1312 657 
Q 1506 409 1894 409 
Q 2359 409 2629 706 
Q 2900 1003 2900 1516 
L 2900 3500 
L 3475 3500 
L 3475 0 
L 2900 0 
L 2900 538 
Q 2691 219 2414 64 
Q 2138 -91 1772 -91 
Q 1169 -91 856 284 
Q 544 659 544 1381 
z
M 1991 3584 
L 1991 3584 
z
" transform="scale(0.015625)"/>
       <path id="DejaVuSans-6e" d="M 3513 2113 
L 3513 0 
L 2938 0 
L 2938 2094 
Q 2938 2591 2744 2837 
Q 2550 3084 2163 3084 
Q 1697 3084 1428 2787 
Q 1159 2491 1159 1978 
L 1159 0 
L 581 0 
L 581 3500 
L 1159 3500 
L 1159 2956 
Q 1366 3272 1645 3428 
Q 1925 3584 2291 3584 
Q 2894 3584 3203 3211 
Q 3513 2838 3513 2113 
z
" transform="scale(0.015625)"/>
      </defs>
      <use xlink:href="#DejaVuSans-43"/>
      <use xlink:href="#DejaVuSans-6f" transform="translate(69.824219 0)"/>
      <use xlink:href="#DejaVuSans-75" transform="translate(131.005859 0)"/>
      <use xlink:href="#DejaVuSans-6e" transform="translate(194.384766 0)"/>
      <use xlink:href="#DejaVuSans-74" transform="translate(257.763672 0)"/>
     </g>
    </g>
   </g>
   <g id="line2d_29">
    <path d="M 85.239886 454.682026 
L 85.330694 454.682026 
L 85.388306 454.126239 
L 85.673238 454.126239 
L 85.802124 257.933546 
L 89.795731 257.933546 
L 89.813179 261.268266 
L 94.433329 261.268266 
L 94.656918 260.712479 
L 95.298332 260.712479 
L 95.818156 260.156692 
L 99.039214 259.600906 
L 99.102806 260.156692 
L 99.257206 259.600906 
L 109.231867 259.600906 
L 115.24941 260.712479 
L 116.144754 259.600906 
L 116.798513 259.600906 
L 118.446215 259.045119 
L 119.135583 256.821972 
L 120.477887 256.821972 
L 122.433951 260.712479 
L 122.560862 256.821972 
L 124.061845 256.266186 
L 127.968211 256.266186 
L 128.998587 255.710399 
L 130.52909 255.710399 
L 130.939342 254.598826 
L 140.479005 254.598826 
L 141.174793 253.487252 
L 141.210458 252.375679 
L 144.214455 252.375679 
L 148.643992 251.264106 
L 150.96762 251.264106 
L 151.002791 250.708319 
L 156.339085 250.708319 
L 157.662843 247.929386 
L 161.852221 247.929386 
L 161.881301 247.373599 
L 185.343911 247.373599 
L 189.729662 246.817812 
L 189.879399 247.373599 
L 194.428 246.817812 
L 210.25675 246.817812 
L 217.928743 246.262026 
L 218.076943 245.706239 
L 218.44138 245.150452 
L 222.76941 245.150452 
L 224.611457 244.594666 
L 232.207841 244.594666 
L 232.49623 247.373599 
L 232.510386 245.150452 
L 232.879706 245.150452 
L 234.713632 242.927306 
L 243.692649 242.927306 
L 250.574206 242.371519 
L 258.222606 242.371519 
L 258.558236 241.815732 
L 278.432553 241.815732 
L 279.280766 241.259946 
L 284.106509 241.259946 
L 284.140527 240.148372 
L 293.335287 240.148372 
L 293.521785 236.257866 
L 310.163796 236.257866 
L 310.168789 235.702079 
L 310.650755 235.702079 
L 312.36792 235.146292 
L 314.879857 235.146292 
L 315.557812 234.590506 
L 315.62563 235.146292 
L 317.17808 234.590506 
L 317.185158 234.034719 
L 317.221426 234.590506 
L 318.118198 234.034719 
L 326.28719 234.034719 
L 328.827 233.478932 
L 331.840709 233.478932 
L 336.95945 232.923146 
L 341.805274 232.923146 
L 345.549174 231.811572 
L 353.742473 231.811572 
L 358.508574 230.699999 
L 359.851426 231.255786 
L 366.503633 231.255786 
L 374.007619 229.032639 
L 385.19888 229.032639 
L 388.669699 228.476852 
L 450.523823 228.476852 
L 451.023347 227.921066 
L 473.580131 227.921066 
L 473.957023 227.365279 
L 512.339595 227.365279 
L 520.791325 226.809492 
L 520.840213 227.365279 
L 526.890402 225.697919 
L 535.769393 225.697919 
L 540.617632 225.142132 
L 540.625588 224.586346 
L 550.74148 224.586346 
L 554.372186 225.142132 
L 555.677344 224.586346 
L 572.606812 224.586346 
L 573.327291 225.142132 
L 574.647098 224.586346 
L 575.100642 222.363199 
L 582.858888 222.363199 
L 582.865582 221.807412 
L 606.605662 221.807412 
L 607.988129 221.251626 
L 612.550558 221.251626 
L 612.995652 220.695839 
L 635.243581 220.695839 
L 635.273814 220.140052 
L 640.838361 220.140052 
L 640.846646 219.584266 
L 642.196906 219.584266 
L 642.267412 219.028479 
L 644.364213 219.028479 
L 644.693644 218.472692 
L 649.181452 218.472692 
L 649.863632 217.361119 
L 652.334198 215.137972 
L 658.308449 215.137972 
L 658.749537 212.359039 
L 660.752842 212.359039 
L 661.736031 211.247466 
L 666.802372 211.247466 
L 668.464779 210.691679 
L 673.223418 210.691679 
L 673.86121 210.135892 
L 686.786097 210.135892 
L 687.104554 209.580106 
L 688.299975 209.580106 
L 690.155903 209.024319 
L 711.061035 209.024319 
L 711.24885 208.468532 
L 711.919124 208.468532 
L 713.318382 207.356959 
L 715.280151 207.356959 
L 715.751856 206.801172 
L 716.206332 206.801172 
L 716.378784 206.245386 
L 721.625094 206.245386 
L 722.518244 205.689599 
L 727.084733 205.689599 
L 727.377511 205.133812 
L 729.878858 205.133812 
L 730.039129 204.578026 
L 737.812739 204.578026 
L 737.979869 204.022239 
L 742.513546 204.022239 
L 743.778485 202.354879 
L 744.027808 201.799092 
L 745.706675 201.799092 
L 745.708431 201.243306 
L 752.525298 201.243306 
L 753.558967 200.687519 
L 758.994628 200.687519 
L 760.0227 200.131732 
L 760.409413 200.131732 
L 761.413946 199.575946 
L 763.979928 199.575946 
L 764.276493 199.020159 
L 770.711969 199.020159 
L 772.370809 198.464372 
L 772.49163 197.908586 
L 773.028683 197.908586 
L 774.723791 195.685439 
L 779.980801 195.685439 
L 780.01866 195.129652 
L 785.021793 195.129652 
L 785.312706 194.573866 
L 786.067313 194.573866 
L 786.639427 194.018079 
L 786.758766 194.573866 
L 787.18718 194.018079 
L 789.090569 194.018079 
L 789.108785 193.462292 
L 789.614234 193.462292 
L 789.835574 192.906506 
L 791.36498 192.350719 
L 802.005964 192.350719 
L 803.669139 191.794932 
L 804.782477 191.794932 
L 805.685723 191.239146 
L 806.599448 191.794932 
L 810.361619 191.794932 
L 810.464882 190.683359 
L 812.012614 190.683359 
L 812.012614 190.683359 
" clip-path="url(#pf82ec6517b)" style="fill: none; stroke: #1a7f37; stroke-width: 2; stroke-linecap: square"/>
   </g>
   <g id="line2d_30">
    <path d="M 85.239886 455.237812 
L 85.330694 453.570452 
L 85.549784 453.570452 
L 85.673238 372.981386 
L 87.91182 372.981386 
L 87.957854 370.758239 
L 90.26546 370.758239 
L 90.860016 369.090879 
L 91.668997 370.758239 
L 91.674978 369.090879 
L 92.344374 369.090879 
L 92.603079 367.979306 
L 99.213696 367.979306 
L 99.220005 367.423519 
L 99.257206 367.979306 
L 99.582577 367.423519 
L 99.677993 367.979306 
L 99.932473 367.423519 
L 102.25226 367.423519 
L 102.373629 366.867732 
L 102.704212 366.311946 
L 105.323362 366.311946 
L 108.303931 365.756159 
L 108.408839 365.200372 
L 109.214419 364.644586 
L 109.231867 364.088799 
L 115.24941 367.979306 
L 116.144754 366.311946 
L 116.798513 363.533012 
L 120.477887 363.533012 
L 122.433951 367.979306 
L 122.560862 363.533012 
L 158.304476 363.533012 
L 159.401298 362.977226 
L 161.881301 362.977226 
L 168.654603 362.421439 
L 170.304499 361.865652 
L 193.812924 361.865652 
L 194.428 361.309866 
L 197.588099 360.754079 
L 199.596617 360.754079 
L 201.822962 360.198292 
L 201.882934 359.086719 
L 203.413327 358.530932 
L 204.441892 357.975146 
L 218.611692 357.975146 
L 221.436324 357.419359 
L 222.290243 357.419359 
L 222.76941 356.863572 
L 224.611457 356.863572 
L 226.441487 356.307786 
L 232.207841 356.307786 
L 232.49623 358.530932 
L 232.510386 356.307786 
L 234.713632 356.307786 
L 234.934807 355.751999 
L 238.053425 355.751999 
L 241.121729 355.196212 
L 241.196185 354.640426 
L 250.574206 354.640426 
L 254.529734 354.084639 
L 254.53972 353.528852 
L 267.702462 353.528852 
L 273.193157 352.973066 
L 277.312577 352.973066 
L 278.432553 352.417279 
L 284.720542 352.417279 
L 288.30697 351.861492 
L 288.503564 351.305706 
L 292.000171 351.305706 
L 292.405978 350.749919 
L 293.521785 350.194132 
L 296.012652 350.194132 
L 297.585294 349.638346 
L 300.46869 349.638346 
L 302.350572 349.082559 
L 306.365193 349.082559 
L 307.732901 347.970986 
L 318.118198 347.970986 
L 321.075831 347.415199 
L 324.543962 347.415199 
L 325.326058 346.859412 
L 325.56523 346.303626 
L 326.28719 345.747839 
L 338.230095 345.747839 
L 340.416716 345.192052 
L 341.805274 344.636266 
L 375.76632 344.636266 
L 383.389754 344.080479 
L 383.480836 343.524692 
L 388.669699 343.524692 
L 393.104723 342.968906 
L 400.943571 342.968906 
L 401.605944 342.413119 
L 414.955843 342.413119 
L 425.406214 341.857332 
L 425.506514 341.301546 
L 426.872741 341.301546 
L 429.640803 340.745759 
L 429.657374 339.634186 
L 429.917012 338.522612 
L 435.699003 337.966826 
L 436.045224 337.411039 
L 436.183218 336.299466 
L 436.706883 335.743679 
L 455.522073 335.743679 
L 460.867146 335.187892 
L 464.269654 334.632106 
L 466.935167 334.632106 
L 473.115395 334.076319 
L 473.580131 331.853172 
L 473.957023 331.853172 
L 474.318607 331.297386 
L 474.845619 330.741599 
L 486.568227 330.185812 
L 486.941333 329.630026 
L 487.0514 329.074239 
L 489.528001 329.074239 
L 491.866662 328.518452 
L 492.135463 327.962666 
L 492.165915 327.406879 
L 492.318011 326.851092 
L 493.866017 326.295306 
L 493.97965 325.739519 
L 496.804063 325.183732 
L 500.516687 324.627946 
L 500.780715 324.072159 
L 500.786311 323.516372 
L 501.533072 322.960586 
L 501.664976 322.404799 
L 506.144553 321.849012 
L 507.050488 321.849012 
L 508.015954 321.293226 
L 530.688018 321.293226 
L 534.447829 320.737439 
L 534.78999 320.181652 
L 550.156033 320.181652 
L 550.74148 319.070079 
L 557.143706 319.070079 
L 559.076615 318.514292 
L 559.171043 317.402719 
L 559.667384 316.846932 
L 562.953955 316.291146 
L 563.027972 315.735359 
L 563.424672 315.179572 
L 563.496495 313.512212 
L 563.831193 312.956426 
L 564.284023 312.956426 
L 564.300703 312.400639 
L 567.044404 311.844852 
L 568.123065 311.289066 
L 568.384074 310.733279 
L 573.327291 310.177492 
L 576.970232 310.177492 
L 578.235226 309.621706 
L 591.931785 309.621706 
L 596.469358 309.065919 
L 596.48741 308.510132 
L 597.303469 307.954346 
L 607.988129 307.954346 
L 610.986036 307.398559 
L 612.221018 306.842772 
L 612.550558 305.731199 
L 621.19334 305.731199 
L 621.782189 305.175412 
L 626.528208 305.175412 
L 628.800369 304.619626 
L 635.273814 304.619626 
L 639.187312 304.063839 
L 647.314385 304.063839 
L 648.313267 303.508052 
L 652.334198 303.508052 
L 653.42866 302.952266 
L 653.903438 302.396479 
L 654.137288 301.840692 
L 657.447122 301.840692 
L 657.541222 300.729119 
L 658.749537 300.729119 
L 659.088569 299.617546 
L 659.542881 299.061759 
L 662.421998 299.061759 
L 662.779576 298.505972 
L 663.057156 298.505972 
L 664.435234 297.950186 
L 666.7221 297.950186 
L 666.802372 297.394399 
L 668.464779 297.394399 
L 668.868557 296.838612 
L 670.431048 296.838612 
L 672.823371 295.727039 
L 673.86121 295.727039 
L 677.875118 294.615466 
L 677.881153 294.059679 
L 678.647502 293.503892 
L 680.602797 292.948106 
L 680.906824 292.392319 
L 682.856303 291.836532 
L 686.043067 291.836532 
L 686.513071 291.280746 
L 686.786097 290.724959 
L 690.991112 290.724959 
L 691.101453 290.169172 
L 692.2087 290.169172 
L 692.293691 289.613386 
L 692.901305 289.057599 
L 695.0155 289.057599 
L 695.176319 288.501812 
L 695.538507 288.501812 
L 695.628491 287.946026 
L 695.774496 287.946026 
L 695.779434 287.390239 
L 698.752431 287.390239 
L 699.341171 286.834452 
L 699.835536 286.834452 
L 700.131003 286.278666 
L 700.885555 286.278666 
L 701.450482 285.722879 
L 701.569601 285.167092 
L 701.731079 285.167092 
L 704.57091 284.611306 
L 706.696024 284.611306 
L 706.856898 284.055519 
L 715.239933 284.055519 
L 715.280151 283.499732 
L 715.751856 283.499732 
L 716.206332 282.943946 
L 716.378784 282.943946 
L 716.690437 282.388159 
L 719.693118 282.388159 
L 719.876324 281.276586 
L 720.03226 279.609226 
L 720.52712 279.053439 
L 722.518244 279.053439 
L 723.457319 278.497652 
L 724.367533 278.497652 
L 724.661025 277.941866 
L 726.071969 277.386079 
L 727.377511 277.386079 
L 730.002148 276.830292 
L 730.039129 276.274506 
L 730.841198 276.274506 
L 730.974144 275.718719 
L 733.307319 275.718719 
L 733.372119 275.162932 
L 744.687163 275.162932 
L 744.772374 274.607146 
L 745.198593 274.607146 
L 745.211158 273.495572 
L 746.804814 273.495572 
L 746.922343 272.939786 
L 747.114876 272.939786 
L 748.124019 272.383999 
L 748.377676 271.828212 
L 748.84115 271.828212 
L 749.233351 271.272426 
L 749.361194 270.716639 
L 755.046727 270.716639 
L 756.481814 270.160852 
L 756.765264 269.049279 
L 757.114558 268.493492 
L 757.697645 268.493492 
L 758.053029 267.937706 
L 766.212419 267.937706 
L 766.342458 267.381919 
L 766.353267 266.826132 
L 766.536638 266.270346 
L 767.865938 266.270346 
L 767.914606 265.714559 
L 772.386117 265.714559 
L 772.49163 264.602986 
L 777.724003 264.602986 
L 777.778213 264.047199 
L 780.298764 264.047199 
L 780.315718 263.491412 
L 781.543127 263.491412 
L 781.576323 262.935626 
L 785.312706 262.935626 
L 785.498545 262.379839 
L 785.735303 262.379839 
L 786.067313 261.824052 
L 786.741263 261.824052 
L 786.758766 261.268266 
L 787.18718 261.268266 
L 788.004446 260.712479 
L 794.60557 260.712479 
L 795.085341 260.156692 
L 797.043983 260.156692 
L 797.047604 259.600906 
L 812.012614 259.600906 
L 812.012614 259.600906 
" clip-path="url(#pf82ec6517b)" style="fill: none; stroke: #0969da; stroke-width: 2; stroke-linecap: square"/>
   </g>
   <g id="line2d_31">
    <path d="M 85.239886 455.237812 
L 89.795731 455.237812 
L 89.813179 454.126239 
L 93.574307 454.126239 
L 94.433329 453.570452 
L 326.28719 453.570452 
L 328.827 453.014666 
L 393.104723 453.014666 
L 394.888554 452.458879 
L 455.522073 452.458879 
L 460.867146 451.903092 
L 474.845619 451.903092 
L 487.0514 450.235732 
L 489.528001 449.124159 
L 493.97965 449.124159 
L 496.804063 448.568372 
L 500.786311 448.012586 
L 501.664976 448.012586 
L 506.144553 447.456799 
L 507.050488 447.456799 
L 508.015954 446.901012 
L 512.339595 446.345226 
L 520.791325 445.789439 
L 520.840213 446.345226 
L 534.78999 446.345226 
L 535.769393 445.789439 
L 555.677344 445.789439 
L 557.143706 445.233652 
L 563.831193 445.233652 
L 564.300703 444.677866 
L 572.606812 444.677866 
L 573.327291 444.122079 
L 603.755461 444.122079 
L 606.605662 443.566292 
L 607.803552 443.566292 
L 607.988129 443.010506 
L 616.109167 443.010506 
L 616.116903 442.454719 
L 635.243581 442.454719 
L 635.273814 441.898932 
L 640.846646 441.898932 
L 642.267412 441.343146 
L 644.360537 440.787359 
L 644.364213 440.231572 
L 644.693644 440.231572 
L 647.314385 438.564212 
L 649.079835 438.564212 
L 649.181452 436.896852 
L 649.863632 436.896852 
L 652.334198 437.452639 
L 654.110951 437.452639 
L 654.137288 435.229492 
L 660.752842 435.229492 
L 661.736031 434.673706 
L 662.779576 434.673706 
L 663.057156 434.117919 
L 686.786097 434.117919 
L 687.104554 433.562132 
L 688.299975 433.562132 
L 690.155903 433.006346 
L 698.34399 433.006346 
L 698.752431 432.450559 
L 701.569601 432.450559 
L 701.731079 431.894772 
L 711.061035 431.894772 
L 711.24885 431.338986 
L 711.919124 431.338986 
L 712.598945 430.783199 
L 713.278108 430.783199 
L 713.318382 430.227412 
L 716.206332 430.227412 
L 716.378784 429.671626 
L 729.785856 429.671626 
L 729.878858 429.115839 
L 730.039129 429.115839 
L 730.17674 428.560052 
L 730.974144 428.560052 
L 732.645769 428.004266 
L 739.181105 428.004266 
L 739.186867 427.448479 
L 740.43562 427.448479 
L 740.483136 426.892692 
L 744.027808 426.892692 
L 744.772374 426.336906 
L 749.496171 426.336906 
L 750.866238 425.781119 
L 753.530709 425.781119 
L 753.558967 424.669546 
L 753.775039 424.669546 
L 754.046967 424.113759 
L 758.333243 424.113759 
L 758.994628 423.557972 
L 760.0227 423.557972 
L 760.409413 423.002186 
L 762.918771 423.002186 
L 763.269161 422.446399 
L 763.273661 421.890612 
L 763.979928 421.890612 
L 764.276493 421.334826 
L 791.307587 421.334826 
L 791.36498 420.223252 
L 795.085341 420.223252 
L 796.1561 419.667466 
L 797.047604 419.667466 
L 801.229739 419.111679 
L 802.005964 419.111679 
L 803.669139 418.555892 
L 804.782477 418.555892 
L 805.685723 418.000106 
L 806.599448 418.555892 
L 809.540896 418.555892 
L 810.340769 418.000106 
L 810.464882 417.444319 
L 810.523866 416.888532 
L 812.012614 416.332746 
L 812.012614 416.332746 
" clip-path="url(#pf82ec6517b)" style="fill: none; stroke: #bf8700; stroke-width: 2; stroke-linecap: square"/>
   </g>
   <g id="line2d_32">
    <path d="M 85.239886 454.682026 
L 85.629563 454.682026 
L 85.673238 433.006346 
L 85.976826 431.338986 
L 86.082777 430.227412 
L 86.703944 426.892692 
L 87.219269 425.781119 
L 87.480717 426.336906 
L 87.957854 425.781119 
L 88.764806 425.225332 
L 89.324684 424.113759 
L 89.795731 423.557972 
L 89.813179 423.002186 
L 90.26546 421.334826 
L 90.860016 421.334826 
L 91.668997 420.779039 
L 91.674978 420.223252 
L 92.326323 419.667466 
L 92.344374 419.111679 
L 92.603079 419.111679 
L 93.574307 418.555892 
L 94.26823 418.000106 
L 94.433329 411.886452 
L 94.547511 412.442239 
L 94.826682 408.551732 
L 94.981905 406.328586 
L 94.989641 407.995946 
L 95.070956 405.217012 
L 95.298332 402.993866 
L 99.220005 402.993866 
L 99.257206 402.438079 
L 99.582577 399.659146 
L 99.677993 402.438079 
L 100.120069 397.991786 
L 100.338994 397.435999 
L 101.970071 396.880212 
L 102.019288 396.324426 
L 102.25226 395.768639 
L 102.704212 395.768639 
L 103.544195 395.212852 
L 103.99291 394.657066 
L 104.175951 394.101279 
L 104.319762 392.989706 
L 104.738957 392.433919 
L 104.749327 391.878132 
L 105.170937 392.433919 
L 105.290935 391.878132 
L 105.305694 392.433919 
L 105.323362 390.766559 
L 109.231867 390.766559 
L 115.24941 402.993866 
L 116.144754 390.210772 
L 116.611411 389.654986 
L 119.135583 389.654986 
L 119.563064 389.099199 
L 120.477887 388.543412 
L 122.433951 402.993866 
L 122.560862 387.987626 
L 124.061845 387.431839 
L 127.27171 386.876052 
L 127.500621 387.431839 
L 127.920311 386.320266 
L 127.968211 385.764479 
L 128.998587 385.764479 
L 129.311667 385.208692 
L 129.902985 384.652906 
L 129.952038 383.541332 
L 130.497486 382.429759 
L 130.52909 382.985546 
L 130.853528 382.985546 
L 131.031411 381.873972 
L 131.578999 379.650826 
L 131.650987 378.539252 
L 132.353524 376.871892 
L 132.696891 377.983466 
L 133.989265 376.316106 
L 135.124714 374.648746 
L 135.763987 375.760319 
L 138.394824 373.537172 
L 140.479005 377.427679 
L 141.210458 373.537172 
L 144.214455 371.869812 
L 148.643992 371.869812 
L 149.229001 371.314026 
L 149.69456 369.646666 
L 151.002791 371.314026 
L 156.339085 371.869812 
L 157.662843 369.646666 
L 158.304476 367.979306 
L 159.401298 369.646666 
L 161.881301 367.979306 
L 170.304499 367.979306 
L 179.161543 367.423519 
L 179.752203 366.867732 
L 185.343911 366.311946 
L 189.041391 366.311946 
L 189.729662 365.756159 
L 189.879399 366.311946 
L 193.812924 364.644586 
L 197.502449 364.644586 
L 197.588099 364.088799 
L 199.596617 363.533012 
L 204.441892 363.533012 
L 206.579241 359.642506 
L 208.170045 359.086719 
L 210.217025 358.530932 
L 210.25675 357.975146 
L 217.928743 357.975146 
L 218.076943 354.084639 
L 218.360888 354.084639 
L 218.611692 352.973066 
L 221.436324 352.973066 
L 222.290243 352.417279 
L 226.441487 352.417279 
L 232.207841 351.861492 
L 232.49623 363.533012 
L 232.510386 352.417279 
L 232.879706 351.861492 
L 234.934807 351.861492 
L 238.053425 351.305706 
L 241.196185 351.305706 
L 243.692649 350.749919 
L 250.574206 349.638346 
L 254.53972 349.638346 
L 257.726704 349.082559 
L 258.222606 346.303626 
L 258.558236 346.303626 
L 259.152134 345.747839 
L 262.249956 345.192052 
L 262.966046 342.968906 
L 267.247492 341.857332 
L 267.299069 342.413119 
L 267.702462 341.857332 
L 273.193157 340.745759 
L 277.312577 340.189972 
L 279.280766 340.189972 
L 281.025256 339.634186 
L 282.537049 338.522612 
L 284.140527 337.966826 
L 284.720542 337.411039 
L 288.503564 337.966826 
L 292.000171 336.855252 
L 292.405978 337.411039 
L 293.335287 337.411039 
L 293.521785 336.855252 
L 296.012652 336.299466 
L 297.585294 336.855252 
L 300.46869 335.743679 
L 302.350572 335.743679 
L 306.365193 335.187892 
L 307.030913 335.743679 
L 307.732901 334.076319 
L 310.168789 334.076319 
L 310.650755 333.520532 
L 312.36792 331.853172 
L 312.748269 331.297386 
L 313.340904 330.185812 
L 314.879857 330.741599 
L 315.557812 329.630026 
L 315.62563 329.074239 
L 321.075831 329.074239 
L 323.836213 328.518452 
L 324.543962 327.962666 
L 328.827 327.962666 
L 331.840709 327.406879 
L 336.95945 327.406879 
L 338.230095 326.851092 
L 352.305741 326.851092 
L 353.114119 326.295306 
L 353.195105 325.739519 
L 353.742473 325.183732 
L 359.851426 325.183732 
L 360.232159 324.627946 
L 361.78642 324.072159 
L 362.055605 323.516372 
L 364.630695 322.960586 
L 366.503633 322.404799 
L 374.007619 322.404799 
L 375.76632 321.293226 
L 383.480836 321.293226 
L 385.19888 320.737439 
L 392.388524 320.737439 
L 393.104723 320.181652 
L 394.888554 319.625866 
L 395.419571 319.070079 
L 395.599869 318.514292 
L 400.943571 317.958506 
L 401.605944 318.514292 
L 408.640584 317.402719 
L 414.202553 316.291146 
L 414.955843 315.735359 
L 425.506514 315.735359 
L 426.872741 315.179572 
L 436.706883 315.179572 
L 445.970448 314.623786 
L 447.135636 314.067999 
L 451.023347 313.512212 
L 454.922031 312.956426 
L 455.522073 312.400639 
L 464.269654 312.400639 
L 466.935167 311.844852 
L 487.0514 311.844852 
L 489.528001 311.289066 
L 506.144553 311.289066 
L 507.050488 310.733279 
L 508.015954 311.289066 
L 512.339595 310.733279 
L 526.890402 310.733279 
L 528.84032 310.177492 
L 559.621953 310.177492 
L 559.667384 309.621706 
L 578.678125 309.621706 
L 582.854883 309.065919 
L 582.865582 308.510132 
L 603.746188 308.510132 
L 603.755461 307.398559 
L 616.116903 307.398559 
L 621.782189 306.842772 
L 628.800369 306.842772 
L 635.273814 305.731199 
L 648.313267 305.731199 
L 649.079835 305.175412 
L 649.181452 304.619626 
L 654.110951 304.619626 
L 654.137288 304.063839 
L 654.649156 304.063839 
L 655.465106 303.508052 
L 662.779576 303.508052 
L 663.057156 302.952266 
L 672.823371 302.952266 
L 673.223418 302.396479 
L 697.074112 302.396479 
L 698.342179 300.729119 
L 698.34399 300.173332 
L 701.723014 300.173332 
L 701.731079 299.617546 
L 711.698004 299.617546 
L 711.919124 299.061759 
L 716.690437 299.061759 
L 716.861847 298.505972 
L 734.587018 298.505972 
L 734.927861 297.950186 
L 739.042123 297.950186 
L 739.186867 297.394399 
L 740.483136 296.838612 
L 773.028683 296.838612 
L 774.723791 295.727039 
L 777.261132 295.727039 
L 777.778213 295.171252 
L 780.315718 295.171252 
L 780.691787 294.615466 
L 786.687108 294.615466 
L 786.758766 294.059679 
L 812.012614 294.059679 
L 812.012614 294.059679 
" clip-path="url(#pf82ec6517b)" style="fill: none; stroke: #cf222e; stroke-width: 2; stroke-linecap: square"/>
   </g>
   <g id="line2d_33">
    <path d="M 85.239886 454.682026 
L 85.270887 454.126239 
L 85.515304 -1 
M 85.734984 -1 
L 85.802124 101.201706 
L 89.795731 101.201706 
L 89.813179 97.866986 
L 94.433329 97.866986 
L 94.656918 98.422772 
L 95.298332 98.422772 
L 95.818156 98.978559 
L 99.039214 99.534346 
L 99.102806 98.978559 
L 99.257206 99.534346 
L 109.231867 99.534346 
L 115.24941 98.422772 
L 116.144754 99.534346 
L 116.611411 98.978559 
L 116.798513 98.978559 
L 118.446215 99.534346 
L 119.135583 96.755412 
L 120.477887 96.755412 
L 122.433951 98.422772 
L 122.560862 95.643839 
L 124.061845 96.199626 
L 127.968211 96.199626 
L 128.998587 95.088052 
L 130.52909 95.088052 
L 130.939342 91.197546 
L 140.479005 91.197546 
L 141.174793 87.862826 
L 141.210458 86.751252 
L 144.214455 86.751252 
L 148.643992 82.860746 
L 150.96762 82.860746 
L 151.002791 83.416532 
L 156.339085 83.416532 
L 157.662843 80.081812 
L 161.852221 80.081812 
L 161.881301 80.637599 
L 185.343911 80.637599 
L 189.729662 81.193386 
L 189.879399 80.637599 
L 194.428 81.193386 
L 210.25675 81.193386 
L 217.928743 81.749172 
L 218.076943 74.523946 
L 218.44138 75.079732 
L 222.76941 75.079732 
L 224.611457 75.635519 
L 232.207841 75.635519 
L 232.49623 80.637599 
L 232.510386 71.745012 
L 232.879706 71.745012 
L 234.713632 73.968159 
L 243.692649 73.968159 
L 250.574206 70.077652 
L 258.222606 70.077652 
L 258.558236 68.410292 
L 278.432553 68.410292 
L 279.280766 68.966079 
L 284.106509 68.966079 
L 284.140527 70.077652 
L 293.335287 70.077652 
L 293.521785 73.412372 
L 307.732901 73.412372 
L 308.072317 68.410292 
L 310.163796 67.298719 
L 310.168789 67.854506 
L 310.650755 67.854506 
L 312.36792 65.075572 
L 314.879857 65.075572 
L 315.557812 65.631359 
L 315.62563 65.075572 
L 317.17808 65.631359 
L 317.185158 66.187146 
L 317.221426 65.631359 
L 318.118198 63.408212 
L 326.28719 63.408212 
L 328.827 63.963999 
L 331.840709 63.963999 
L 336.95945 64.519786 
L 341.805274 64.519786 
L 345.549174 65.631359 
L 353.195105 65.075572 
L 353.742473 65.075572 
L 358.508574 66.187146 
L 359.851426 65.631359 
L 366.503633 65.631359 
L 374.003558 67.854506 
L 374.007619 67.298719 
L 385.19888 67.298719 
L 388.669699 67.854506 
L 450.523823 67.854506 
L 451.023347 68.410292 
L 454.894212 68.410292 
L 454.922031 66.742932 
L 473.580131 66.742932 
L 473.957023 67.298719 
L 512.339595 67.298719 
L 520.791325 67.854506 
L 520.840213 67.298719 
L 526.890402 68.966079 
L 528.84032 68.966079 
L 530.688018 68.410292 
L 535.769393 68.410292 
L 540.617632 68.966079 
L 540.625588 69.521866 
L 554.372186 67.854506 
L 555.677344 68.410292 
L 572.606812 68.410292 
L 573.327291 67.854506 
L 574.647098 68.410292 
L 575.100642 70.633439 
L 582.858888 70.633439 
L 582.865582 71.189226 
L 606.605662 71.189226 
L 607.988129 71.745012 
L 612.550558 71.745012 
L 612.995652 72.300799 
L 635.243581 72.300799 
L 635.273814 72.856586 
L 639.187312 72.856586 
L 640.838361 73.412372 
L 640.846646 73.968159 
L 642.196906 73.412372 
L 642.267412 73.968159 
L 644.364213 73.968159 
L 644.693644 74.523946 
L 649.079835 74.523946 
L 649.181452 73.412372 
L 649.863632 74.523946 
L 652.334198 72.856586 
L 658.308449 72.856586 
L 658.749537 71.189226 
L 660.752842 71.189226 
L 661.736031 72.300799 
L 666.802372 72.300799 
L 668.464779 72.856586 
L 668.868557 72.856586 
L 670.431048 70.077652 
L 673.223418 70.077652 
L 673.86121 70.633439 
L 686.786097 70.633439 
L 687.104554 71.189226 
L 688.299975 71.189226 
L 690.155903 71.745012 
L 711.061035 71.745012 
L 711.24885 72.300799 
L 711.919124 72.300799 
L 713.318382 73.412372 
L 715.280151 73.412372 
L 715.751856 72.856586 
L 716.206332 72.856586 
L 716.378784 73.412372 
L 721.625094 73.412372 
L 722.518244 73.968159 
L 727.084733 73.968159 
L 727.377511 74.523946 
L 729.878858 74.523946 
L 730.039129 75.079732 
L 737.812739 75.079732 
L 737.979869 75.635519 
L 742.513546 75.635519 
L 743.778485 77.302879 
L 744.027808 77.858666 
L 745.706675 77.858666 
L 745.708431 78.414452 
L 752.525298 78.414452 
L 753.558967 78.970239 
L 758.994628 78.970239 
L 760.0227 79.526026 
L 763.979928 79.526026 
L 764.276493 80.081812 
L 770.711969 80.081812 
L 772.370809 80.637599 
L 772.49163 81.193386 
L 773.028683 81.193386 
L 774.723791 60.629279 
L 779.980801 60.629279 
L 780.01866 61.185066 
L 780.315718 61.185066 
L 780.691787 60.629279 
L 785.021793 60.629279 
L 785.312706 61.185066 
L 786.067313 61.185066 
L 786.639427 61.740852 
L 786.758766 61.185066 
L 789.090569 61.185066 
L 789.108785 61.740852 
L 789.614234 61.740852 
L 789.835574 62.296639 
L 791.36498 62.852426 
L 802.005964 62.852426 
L 803.669139 63.408212 
L 804.782477 63.408212 
L 805.685723 63.963999 
L 806.599448 63.408212 
L 810.361619 63.408212 
L 810.464882 64.519786 
L 812.012614 64.519786 
L 812.012614 64.519786 
" clip-path="url(#pf82ec6517b)" style="fill: none; stroke: #9467bd; stroke-width: 2; stroke-linecap: square"/>
   </g>
   <g id="patch_3">
    <path d="M 48.90125 455.237812 
L 48.90125 38.397812 
" style="fill: none; stroke: #d0d7de; stroke-width: 0.8; stroke-linejoin: miter; stroke-linecap: square"/>
   </g>
   <g id="patch_4">
    <path d="M 848.35125 455.237812 
L 848.35125 38.397812 
" style="fill: none; stroke: #d0d7de; stroke-width: 0.8; stroke-linejoin: miter; stroke-linecap: square"/>
   </g>
   <g id="patch_5">
    <path d="M 48.90125 455.237812 
L 848.35125 455.237812 
" style="fill: none; stroke: #d0d7de; stroke-width: 0.8; stroke-linejoin: miter; stroke-linecap: square"/>
   </g>
   <g id="patch_6">
    <path d="M 48.90125 38.397812 
L 848.35125 38.397812 
" style="fill: none; stroke: #d0d7de; stroke-width: 0.8; stroke-linejoin: miter; stroke-linecap: square"/>
   </g>
   <g id="text_17">
    <!-- 476 -->
    <g style="fill: #1a7f37" transform="translate(817.012614 193.166797) scale(0.09 -0.09)">
     <defs>
      <path id="DejaVuSans-Bold-34" d="M 2356 3675 
L 1038 1722 
L 2356 1722 
L 2356 3675 
z
M 2156 4666 
L 3494 4666 
L 3494 1722 
L 4159 1722 
L 4159 850 
L 3494 850 
L 3494 0 
L 2356 0 
L 2356 850 
L 288 850 
L 288 1881 
L 2156 4666 
z
" transform="scale(0.015625)"/>
      <path id="DejaVuSans-Bold-37" d="M 428 4666 
L 3944 4666 
L 3944 3988 
L 2125 0 
L 953 0 
L 2675 3781 
L 428 3781 
L 428 4666 
z
" transform="scale(0.015625)"/>
      <path id="DejaVuSans-Bold-36" d="M 2316 2303 
Q 2000 2303 1842 2098 
Q 1684 1894 1684 1484 
Q 1684 1075 1842 870 
Q 2000 666 2316 666 
Q 2634 666 2792 870 
Q 2950 1075 2950 1484 
Q 2950 1894 2792 2098 
Q 2634 2303 2316 2303 
z
M 3803 4544 
L 3803 3681 
Q 3506 3822 3243 3889 
Q 2981 3956 2731 3956 
Q 2194 3956 1894 3657 
Q 1594 3359 1544 2772 
Q 1750 2925 1990 3001 
Q 2231 3078 2516 3078 
Q 3231 3078 3670 2659 
Q 4109 2241 4109 1563 
Q 4109 813 3618 361 
Q 3128 -91 2303 -91 
Q 1394 -91 895 523 
Q 397 1138 397 2266 
Q 397 3422 980 4083 
Q 1563 4744 2578 4744 
Q 2900 4744 3203 4694 
Q 3506 4644 3803 4544 
z
" transform="scale(0.015625)"/>
     </defs>
     <use xlink:href="#DejaVuSans-Bold-34"/>
     <use xlink:href="#DejaVuSans-Bold-37" transform="translate(69.580078 0)"/>
     <use xlink:href="#DejaVuSans-Bold-36" transform="translate(139.160156 0)"/>
    </g>
   </g>
   <g id="text_18">
    <!-- 352 -->
    <g style="fill: #0969da" transform="translate(817.012614 262.084343) scale(0.09 -0.09)">
     <defs>
      <path id="DejaVuSans-Bold-33" d="M 2981 2516 
Q 3453 2394 3698 2092 
Q 3944 1791 3944 1325 
Q 3944 631 3412 270 
Q 2881 -91 1863 -91 
Q 1503 -91 1142 -33 
Q 781 25 428 141 
L 428 1069 
Q 766 900 1098 814 
Q 1431 728 1753 728 
Q 2231 728 2486 893 
Q 2741 1059 2741 1369 
Q 2741 1688 2480 1852 
Q 2219 2016 1709 2016 
L 1228 2016 
L 1228 2791 
L 1734 2791 
Q 2188 2791 2409 2933 
Q 2631 3075 2631 3366 
Q 2631 3634 2415 3781 
Q 2200 3928 1806 3928 
Q 1516 3928 1219 3862 
Q 922 3797 628 3669 
L 628 4550 
Q 984 4650 1334 4700 
Q 1684 4750 2022 4750 
Q 2931 4750 3382 4451 
Q 3834 4153 3834 3553 
Q 3834 3144 3618 2883 
Q 3403 2622 2981 2516 
z
" transform="scale(0.015625)"/>
      <path id="DejaVuSans-Bold-35" d="M 678 4666 
L 3669 4666 
L 3669 3781 
L 1638 3781 
L 1638 3059 
Q 1775 3097 1914 3117 
Q 2053 3138 2203 3138 
Q 3056 3138 3531 2711 
Q 4006 2284 4006 1522 
Q 4006 766 3489 337 
Q 2972 -91 2053 -91 
Q 1656 -91 1267 -14 
Q 878 63 494 219 
L 494 1166 
Q 875 947 1217 837 
Q 1559 728 1863 728 
Q 2300 728 2551 942 
Q 2803 1156 2803 1522 
Q 2803 1891 2551 2103 
Q 2300 2316 1863 2316 
Q 1603 2316 1309 2248 
Q 1016 2181 678 2041 
L 678 4666 
z
" transform="scale(0.015625)"/>
      <path id="DejaVuSans-Bold-32" d="M 1844 884 
L 3897 884 
L 3897 0 
L 506 0 
L 506 884 
L 2209 2388 
Q 2438 2594 2547 2791 
Q 2656 2988 2656 3200 
Q 2656 3528 2436 3728 
Q 2216 3928 1850 3928 
Q 1569 3928 1234 3808 
Q 900 3688 519 3450 
L 519 4475 
Q 925 4609 1322 4679 
Q 1719 4750 2100 4750 
Q 2938 4750 3402 4381 
Q 3866 4013 3866 3353 
Q 3866 2972 3669 2642 
Q 3472 2313 2841 1759 
L 1844 884 
z
" transform="scale(0.015625)"/>
     </defs>
     <use xlink:href="#DejaVuSans-Bold-33"/>
     <use xlink:href="#DejaVuSans-Bold-35" transform="translate(69.580078 0)"/>
     <use xlink:href="#DejaVuSans-Bold-32" transform="translate(139.160156 0)"/>
    </g>
   </g>
   <g id="text_19">
    <!-- 70 -->
    <g style="fill: #bf8700" transform="translate(817.012614 418.816183) scale(0.09 -0.09)">
     <defs>
      <path id="DejaVuSans-Bold-30" d="M 2944 2338 
Q 2944 3213 2780 3570 
Q 2616 3928 2228 3928 
Q 1841 3928 1675 3570 
Q 1509 3213 1509 2338 
Q 1509 1453 1675 1090 
Q 1841 728 2228 728 
Q 2613 728 2778 1090 
Q 2944 1453 2944 2338 
z
M 4147 2328 
Q 4147 1169 3647 539 
Q 3147 -91 2228 -91 
Q 1306 -91 806 539 
Q 306 1169 306 2328 
Q 306 3491 806 4120 
Q 1306 4750 2228 4750 
Q 3147 4750 3647 4120 
Q 4147 3491 4147 2328 
z
" transform="scale(0.015625)"/>
     </defs>
     <use xlink:href="#DejaVuSans-Bold-37"/>
     <use xlink:href="#DejaVuSans-Bold-30" transform="translate(69.580078 0)"/>
    </g>
   </g>
   <g id="text_20">
    <!-- 290 -->
    <g style="fill: #cf222e" transform="translate(817.012614 296.543117) scale(0.09 -0.09)">
     <defs>
      <path id="DejaVuSans-Bold-39" d="M 641 103 
L 641 966 
Q 928 831 1190 764 
Q 1453 697 1709 697 
Q 2247 697 2547 995 
Q 2847 1294 2900 1881 
Q 2688 1725 2447 1647 
Q 2206 1569 1925 1569 
Q 1209 1569 770 1986 
Q 331 2403 331 3084 
Q 331 3838 820 4291 
Q 1309 4744 2131 4744 
Q 3044 4744 3544 4128 
Q 4044 3513 4044 2388 
Q 4044 1231 3459 570 
Q 2875 -91 1856 -91 
Q 1528 -91 1228 -42 
Q 928 6 641 103 
z
M 2125 2350 
Q 2441 2350 2600 2554 
Q 2759 2759 2759 3169 
Q 2759 3575 2600 3781 
Q 2441 3988 2125 3988 
Q 1809 3988 1650 3781 
Q 1491 3575 1491 3169 
Q 1491 2759 1650 2554 
Q 1809 2350 2125 2350 
z
" transform="scale(0.015625)"/>
     </defs>
     <use xlink:href="#DejaVuSans-Bold-32"/>
     <use xlink:href="#DejaVuSans-Bold-39" transform="translate(69.580078 0)"/>
     <use xlink:href="#DejaVuSans-Bold-30" transform="translate(139.160156 0)"/>
    </g>
   </g>
   <g id="text_21">
    <!-- 703 -->
    <g style="fill: #9467bd" transform="translate(817.012614 67.003223) scale(0.09 -0.09)">
     <use xlink:href="#DejaVuSans-Bold-37"/>
     <use xlink:href="#DejaVuSans-Bold-30" transform="translate(69.580078 0)"/>
     <use xlink:href="#DejaVuSans-Bold-33" transform="translate(139.160156 0)"/>
    </g>
   </g>
   <g id="text_22">
    <!-- Erds Problems Progress -->
    <g style="fill: #24292f" transform="translate(349.588281 18.397812) scale(0.14 -0.14)">
     <defs>
      <path id="DejaVuSans-Bold-45" d="M 588 4666 
L 3834 4666 
L 3834 3756 
L 1791 3756 
L 1791 2888 
L 3713 2888 
L 3713 1978 
L 1791 1978 
L 1791 909 
L 3903 909 
L 3903 0 
L 588 0 
L 588 4666 
z
" transform="scale(0.015625)"/>
      <path id="DejaVuSans-Bold-72" d="M 3138 2547 
Q 2991 2616 2845 2648 
Q 2700 2681 2553 2681 
Q 2122 2681 1889 2404 
Q 1656 2128 1656 1613 
L 1656 0 
L 538 0 
L 538 3500 
L 1656 3500 
L 1656 2925 
Q 1872 3269 2151 3426 
Q 2431 3584 2822 3584 
Q 2878 3584 2943 3579 
Q 3009 3575 3134 3559 
L 3138 2547 
z
" transform="scale(0.015625)"/>
      <path id="DejaVuSans-Bold-64" d="M 2919 2988 
L 2919 4863 
L 4044 4863 
L 4044 0 
L 2919 0 
L 2919 506 
Q 2688 197 2409 53 
Q 2131 -91 1766 -91 
Q 1119 -91 703 423 
Q 288 938 288 1747 
Q 288 2556 703 3070 
Q 1119 3584 1766 3584 
Q 2128 3584 2408 3439 
Q 2688 3294 2919 2988 
z
M 2181 722 
Q 2541 722 2730 984 
Q 2919 1247 2919 1747 
Q 2919 2247 2730 2509 
Q 2541 2772 2181 2772 
Q 1825 2772 1636 2509 
Q 1447 2247 1447 1747 
Q 1447 1247 1636 984 
Q 1825 722 2181 722 
z
" transform="scale(0.015625)"/>
      <path id="DejaVuSans-Bold-151" d="M 1881 5119 
L 2560 5119 
L 1785 3944 
L 1275 3944 
L 1881 5119 
z
M 3016 5119 
L 3738 5119 
L 2888 3944 
L 2344 3944 
L 3016 5119 
z
M 2203 2784 
Q 1831 2784 1636 2517 
Q 1441 2250 1441 1747 
Q 1441 1244 1636 976 
Q 1831 709 2203 709 
Q 2569 709 2762 976 
Q 2956 1244 2956 1747 
Q 2956 2250 2762 2517 
Q 2569 2784 2203 2784 
z
M 2203 3584 
Q 3106 3584 3614 3096 
Q 4122 2609 4122 1747 
Q 4122 884 3614 396 
Q 3106 -91 2203 -91 
Q 1297 -91 786 396 
Q 275 884 275 1747 
Q 275 2609 786 3096 
Q 1297 3584 2203 3584 
z
" transform="scale(0.015625)"/>
      <path id="DejaVuSans-Bold-73" d="M 3272 3391 
L 3272 2541 
Q 2913 2691 2578 2766 
Q 2244 2841 1947 2841 
Q 1628 2841 1473 2761 
Q 1319 2681 1319 2516 
Q 1319 2381 1436 2309 
Q 1553 2238 1856 2203 
L 2053 2175 
Q 2913 2066 3209 1816 
Q 3506 1566 3506 1031 
Q 3506 472 3093 190 
Q 2681 -91 1863 -91 
Q 1516 -91 1145 -36 
Q 775 19 384 128 
L 384 978 
Q 719 816 1070 734 
Q 1422 653 1784 653 
Q 2113 653 2278 743 
Q 2444 834 2444 1013 
Q 2444 1163 2330 1236 
Q 2216 1309 1875 1350 
L 1678 1375 
Q 931 1469 631 1722 
Q 331 1975 331 2491 
Q 331 3047 712 3315 
Q 1094 3584 1881 3584 
Q 2191 3584 2531 3537 
Q 2872 3491 3272 3391 
z
" transform="scale(0.015625)"/>
      <path id="DejaVuSans-Bold-20" transform="scale(0.015625)"/>
      <path id="DejaVuSans-Bold-50" d="M 588 4666 
L 2584 4666 
Q 3475 4666 3951 4270 
Q 4428 3875 4428 3144 
Q 4428 2409 3951 2014 
Q 3475 1619 2584 1619 
L 1791 1619 
L 1791 0 
L 588 0 
L 588 4666 
z
M 1791 3794 
L 1791 2491 
L 2456 2491 
Q 2806 2491 2997 2661 
Q 3188 2831 3188 3144 
Q 3188 3456 2997 3625 
Q 2806 3794 2456 3794 
L 1791 3794 
z
" transform="scale(0.015625)"/>
      <path id="DejaVuSans-Bold-6f" d="M 2203 2784 
Q 1831 2784 1636 2517 
Q 1441 2250 1441 1747 
Q 1441 1244 1636 976 
Q 1831 709 2203 709 
Q 2569 709 2762 976 
Q 2956 1244 2956 1747 
Q 2956 2250 2762 2517 
Q 2569 2784 2203 2784 
z
M 2203 3584 
Q 3106 3584 3614 3096 
Q 4122 2609 4122 1747 
Q 4122 884 3614 396 
Q 3106 -91 2203 -91 
Q 1297 -91 786 396 
Q 275 884 275 1747 
Q 275 2609 786 3096 
Q 1297 3584 2203 3584 
z
" transform="scale(0.015625)"/>
      <path id="DejaVuSans-Bold-62" d="M 2400 722 
Q 2759 722 2948 984 
Q 3138 1247 3138 1747 
Q 3138 2247 2948 2509 
Q 2759 2772 2400 2772 
Q 2041 2772 1848 2508 
Q 1656 2244 1656 1747 
Q 1656 1250 1848 986 
Q 2041 722 2400 722 
z
M 1656 2988 
Q 1888 3294 2169 3439 
Q 2450 3584 2816 3584 
Q 3463 3584 3878 3070 
Q 4294 2556 4294 1747 
Q 4294 938 3878 423 
Q 3463 -91 2816 -91 
Q 2450 -91 2169 54 
Q 1888 200 1656 506 
L 1656 0 
L 538 0 
L 538 4863 
L 1656 4863 
L 1656 2988 
z
" transform="scale(0.015625)"/>
      <path id="DejaVuSans-Bold-6c" d="M 538 4863 
L 1656 4863 
L 1656 0 
L 538 0 
L 538 4863 
z
" transform="scale(0.015625)"/>
      <path id="DejaVuSans-Bold-65" d="M 4031 1759 
L 4031 1441 
L 1416 1441 
Q 1456 1047 1700 850 
Q 1944 653 2381 653 
Q 2734 653 3104 758 
Q 3475 863 3866 1075 
L 3866 213 
Q 3469 63 3072 -14 
Q 2675 -91 2278 -91 
Q 1328 -91 801 392 
Q 275 875 275 1747 
Q 275 2603 792 3093 
Q 1309 3584 2216 3584 
Q 3041 3584 3536 3087 
Q 4031 2591 4031 1759 
z
M 2881 2131 
Q 2881 2450 2695 2645 
Q 2509 2841 2209 2841 
Q 1884 2841 1681 2658 
Q 1478 2475 1428 2131 
L 2881 2131 
z
" transform="scale(0.015625)"/>
      <path id="DejaVuSans-Bold-6d" d="M 3781 2919 
Q 3994 3244 4286 3414 
Q 4578 3584 4928 3584 
Q 5531 3584 5847 3212 
Q 6163 2841 6163 2131 
L 6163 0 
L 5038 0 
L 5038 1825 
Q 5041 1866 5042 1909 
Q 5044 1953 5044 2034 
Q 5044 2406 4934 2573 
Q 4825 2741 4581 2741 
Q 4263 2741 4089 2478 
Q 3916 2216 3909 1719 
L 3909 0 
L 2784 0 
L 2784 1825 
Q 2784 2406 2684 2573 
Q 2584 2741 2328 2741 
Q 2006 2741 1831 2477 
Q 1656 2213 1656 1722 
L 1656 0 
L 531 0 
L 531 3500 
L 1656 3500 
L 1656 2988 
Q 1863 3284 2130 3434 
Q 2397 3584 2719 3584 
Q 3081 3584 3359 3409 
Q 3638 3234 3781 2919 
z
" transform="scale(0.015625)"/>
      <path id="DejaVuSans-Bold-67" d="M 2919 594 
Q 2688 288 2409 144 
Q 2131 0 1766 0 
Q 1125 0 706 504 
Q 288 1009 288 1791 
Q 288 2575 706 3076 
Q 1125 3578 1766 3578 
Q 2131 3578 2409 3434 
Q 2688 3291 2919 2981 
L 2919 3500 
L 4044 3500 
L 4044 353 
Q 4044 -491 3511 -936 
Q 2978 -1381 1966 -1381 
Q 1638 -1381 1331 -1331 
Q 1025 -1281 716 -1178 
L 716 -306 
Q 1009 -475 1290 -558 
Q 1572 -641 1856 -641 
Q 2406 -641 2662 -400 
Q 2919 -159 2919 353 
L 2919 594 
z
M 2181 2772 
Q 1834 2772 1640 2515 
Q 1447 2259 1447 1791 
Q 1447 1309 1634 1061 
Q 1822 813 2181 813 
Q 2531 813 2725 1069 
Q 2919 1325 2919 1791 
Q 2919 2259 2725 2515 
Q 2531 2772 2181 2772 
z
" transform="scale(0.015625)"/>
     </defs>
     <use xlink:href="#DejaVuSans-Bold-45"/>
     <use xlink:href="#DejaVuSans-Bold-72" transform="translate(68.310547 0)"/>
     <use xlink:href="#DejaVuSans-Bold-64" transform="translate(117.626953 0)"/>
     <use xlink:href="#DejaVuSans-Bold-151" transform="translate(189.208984 0)"/>
     <use xlink:href="#DejaVuSans-Bold-73" transform="translate(257.910156 0)"/>
     <use xlink:href="#DejaVuSans-Bold-20" transform="translate(317.431641 0)"/>
     <use xlink:href="#DejaVuSans-Bold-50" transform="translate(352.246094 0)"/>
     <use xlink:href="#DejaVuSans-Bold-72" transform="translate(425.537109 0)"/>
     <use xlink:href="#DejaVuSans-Bold-6f" transform="translate(474.853516 0)"/>
     <use xlink:href="#DejaVuSans-Bold-62" transform="translate(543.554688 0)"/>
     <use xlink:href="#DejaVuSans-Bold-6c" transform="translate(615.136719 0)"/>
     <use xlink:href="#DejaVuSans-Bold-65" transform="translate(649.414062 0)"/>
     <use xlink:href="#DejaVuSans-Bold-6d" transform="translate(717.236328 0)"/>
     <use xlink:href="#DejaVuSans-Bold-73" transform="translate(821.435547 0)"/>
     <use xlink:href="#DejaVuSans-Bold-20" transform="translate(880.957031 0)"/>
     <use xlink:href="#DejaVuSans-Bold-50" transform="translate(915.771484 0)"/>
     <use xlink:href="#DejaVuSans-Bold-72" transform="translate(989.0625 0)"/>
     <use xlink:href="#DejaVuSans-Bold-6f" transform="translate(1038.378906 0)"/>
     <use xlink:href="#DejaVuSans-Bold-67" transform="translate(1107.080078 0)"/>
     <use xlink:href="#DejaVuSans-Bold-72" transform="translate(1178.662109 0)"/>
     <use xlink:href="#DejaVuSans-Bold-65" transform="translate(1227.978516 0)"/>
     <use xlink:href="#DejaVuSans-Bold-73" transform="translate(1295.800781 0)"/>
     <use xlink:href="#DejaVuSans-Bold-73" transform="translate(1355.322266 0)"/>
    </g>
   </g>
   <g id="legend_1">
    <g id="patch_7">
     <path d="M 55.90125 119.788437 
L 213.771563 119.788437 
Q 215.771563 119.788437 215.771563 117.788437 
L 215.771563 45.397812 
Q 215.771563 43.397812 213.771563 43.397812 
L 55.90125 43.397812 
Q 53.90125 43.397812 53.90125 45.397812 
L 53.90125 117.788437 
Q 53.90125 119.788437 55.90125 119.788437 
z
" style="fill: #f6f8fa; opacity: 0.8; stroke: #d0d7de; stroke-linejoin: miter"/>
    </g>
    <g id="line2d_34">
     <path d="M 57.90125 51.49625 
L 67.90125 51.49625 
L 77.90125 51.49625 
" style="fill: none; stroke: #1a7f37; stroke-width: 2; stroke-linecap: square"/>
    </g>
    <g id="text_23">
     <!-- Solved -->
     <g style="fill: #24292f" transform="translate(85.90125 54.99625) scale(0.1 -0.1)">
      <defs>
       <path id="DejaVuSans-6c" d="M 603 4863 
L 1178 4863 
L 1178 0 
L 603 0 
L 603 4863 
z
" transform="scale(0.015625)"/>
       <path id="DejaVuSans-64" d="M 2906 2969 
L 2906 4863 
L 3481 4863 
L 3481 0 
L 2906 0 
L 2906 525 
Q 2725 213 2448 61 
Q 2172 -91 1784 -91 
Q 1150 -91 751 415 
Q 353 922 353 1747 
Q 353 2572 751 3078 
Q 1150 3584 1784 3584 
Q 2172 3584 2448 3432 
Q 2725 3281 2906 2969 
z
M 947 1747 
Q 947 1113 1208 752 
Q 1469 391 1925 391 
Q 2381 391 2643 752 
Q 2906 1113 2906 1747 
Q 2906 2381 2643 2742 
Q 2381 3103 1925 3103 
Q 1469 3103 1208 2742 
Q 947 2381 947 1747 
z
" transform="scale(0.015625)"/>
      </defs>
      <use xlink:href="#DejaVuSans-53"/>
      <use xlink:href="#DejaVuSans-6f" transform="translate(63.476562 0)"/>
      <use xlink:href="#DejaVuSans-6c" transform="translate(124.658203 0)"/>
      <use xlink:href="#DejaVuSans-76" transform="translate(152.441406 0)"/>
      <use xlink:href="#DejaVuSans-65" transform="translate(211.621094 0)"/>
      <use xlink:href="#DejaVuSans-64" transform="translate(273.144531 0)"/>
     </g>
    </g>
    <g id="line2d_35">
     <path d="M 57.90125 66.174375 
L 67.90125 66.174375 
L 77.90125 66.174375 
" style="fill: none; stroke: #0969da; stroke-width: 2; stroke-linecap: square"/>
    </g>
    <g id="text_24">
     <!-- Lean Formalized Problem -->
     <g style="fill: #24292f" transform="translate(85.90125 69.674375) scale(0.1 -0.1)">
      <defs>
       <path id="DejaVuSans-4c" d="M 628 4666 
L 1259 4666 
L 1259 531 
L 3531 531 
L 3531 0 
L 628 0 
L 628 4666 
z
" transform="scale(0.015625)"/>
       <path id="DejaVuSans-20" transform="scale(0.015625)"/>
       <path id="DejaVuSans-72" d="M 2631 2963 
Q 2534 3019 2420 3045 
Q 2306 3072 2169 3072 
Q 1681 3072 1420 2755 
Q 1159 2438 1159 1844 
L 1159 0 
L 581 0 
L 581 3500 
L 1159 3500 
L 1159 2956 
Q 1341 3275 1631 3429 
Q 1922 3584 2338 3584 
Q 2397 3584 2469 3576 
Q 2541 3569 2628 3553 
L 2631 2963 
z
" transform="scale(0.015625)"/>
       <path id="DejaVuSans-6d" d="M 3328 2828 
Q 3544 3216 3844 3400 
Q 4144 3584 4550 3584 
Q 5097 3584 5394 3201 
Q 5691 2819 5691 2113 
L 5691 0 
L 5113 0 
L 5113 2094 
Q 5113 2597 4934 2840 
Q 4756 3084 4391 3084 
Q 3944 3084 3684 2787 
Q 3425 2491 3425 1978 
L 3425 0 
L 2847 0 
L 2847 2094 
Q 2847 2600 2669 2842 
Q 2491 3084 2119 3084 
Q 1678 3084 1418 2786 
Q 1159 2488 1159 1978 
L 1159 0 
L 581 0 
L 581 3500 
L 1159 3500 
L 1159 2956 
Q 1356 3278 1631 3431 
Q 1906 3584 2284 3584 
Q 2666 3584 2933 3390 
Q 3200 3197 3328 2828 
z
" transform="scale(0.015625)"/>
       <path id="DejaVuSans-69" d="M 603 3500 
L 1178 3500 
L 1178 0 
L 603 0 
L 603 3500 
z
M 603 4863 
L 1178 4863 
L 1178 4134 
L 603 4134 
L 603 4863 
z
" transform="scale(0.015625)"/>
       <path id="DejaVuSans-7a" d="M 353 3500 
L 3084 3500 
L 3084 2975 
L 922 459 
L 3084 459 
L 3084 0 
L 275 0 
L 275 525 
L 2438 3041 
L 353 3041 
L 353 3500 
z
" transform="scale(0.015625)"/>
       <path id="DejaVuSans-50" d="M 1259 4147 
L 1259 2394 
L 2053 2394 
Q 2494 2394 2734 2622 
Q 2975 2850 2975 3272 
Q 2975 3691 2734 3919 
Q 2494 4147 2053 4147 
L 1259 4147 
z
M 628 4666 
L 2053 4666 
Q 2838 4666 3239 4311 
Q 3641 3956 3641 3272 
Q 3641 2581 3239 2228 
Q 2838 1875 2053 1875 
L 1259 1875 
L 1259 0 
L 628 0 
L 628 4666 
z
" transform="scale(0.015625)"/>
      </defs>
      <use xlink:href="#DejaVuSans-4c"/>
      <use xlink:href="#DejaVuSans-65" transform="translate(53.962891 0)"/>
      <use xlink:href="#DejaVuSans-61" transform="translate(115.486328 0)"/>
      <use xlink:href="#DejaVuSans-6e" transform="translate(176.765625 0)"/>
      <use xlink:href="#DejaVuSans-20" transform="translate(240.144531 0)"/>
      <use xlink:href="#DejaVuSans-46" transform="translate(271.931641 0)"/>
      <use xlink:href="#DejaVuSans-6f" transform="translate(325.826172 0)"/>
      <use xlink:href="#DejaVuSans-72" transform="translate(387.007812 0)"/>
      <use xlink:href="#DejaVuSans-6d" transform="translate(426.371094 0)"/>
      <use xlink:href="#DejaVuSans-61" transform="translate(523.783203 0)"/>
      <use xlink:href="#DejaVuSans-6c" transform="translate(585.0625 0)"/>
      <use xlink:href="#DejaVuSans-69" transform="translate(612.845703 0)"/>
      <use xlink:href="#DejaVuSans-7a" transform="translate(640.628906 0)"/>
      <use xlink:href="#DejaVuSans-65" transform="translate(693.119141 0)"/>
      <use xlink:href="#DejaVuSans-64" transform="translate(754.642578 0)"/>
      <use xlink:href="#DejaVuSans-20" transform="translate(818.119141 0)"/>
      <use xlink:href="#DejaVuSans-50" transform="translate(849.90625 0)"/>
      <use xlink:href="#DejaVuSans-72" transform="translate(908.458984 0)"/>
      <use xlink:href="#DejaVuSans-6f" transform="translate(947.322266 0)"/>
      <use xlink:href="#DejaVuSans-62" transform="translate(1008.503906 0)"/>
      <use xlink:href="#DejaVuSans-6c" transform="translate(1071.980469 0)"/>
      <use xlink:href="#DejaVuSans-65" transform="translate(1099.763672 0)"/>
      <use xlink:href="#DejaVuSans-6d" transform="translate(1161.287109 0)"/>
     </g>
    </g>
    <g id="line2d_36">
     <path d="M 57.90125 80.8525 
L 67.90125 80.8525 
L 77.90125 80.8525 
" style="fill: none; stroke: #bf8700; stroke-width: 2; stroke-linecap: square"/>
    </g>
    <g id="text_25">
     <!-- Lean Formalized Solution -->
     <g style="fill: #24292f" transform="translate(85.90125 84.3525) scale(0.1 -0.1)">
      <use xlink:href="#DejaVuSans-4c"/>
      <use xlink:href="#DejaVuSans-65" transform="translate(53.962891 0)"/>
      <use xlink:href="#DejaVuSans-61" transform="translate(115.486328 0)"/>
      <use xlink:href="#DejaVuSans-6e" transform="translate(176.765625 0)"/>
      <use xlink:href="#DejaVuSans-20" transform="translate(240.144531 0)"/>
      <use xlink:href="#DejaVuSans-46" transform="translate(271.931641 0)"/>
      <use xlink:href="#DejaVuSans-6f" transform="translate(325.826172 0)"/>
      <use xlink:href="#DejaVuSans-72" transform="translate(387.007812 0)"/>
      <use xlink:href="#DejaVuSans-6d" transform="translate(426.371094 0)"/>
      <use xlink:href="#DejaVuSans-61" transform="translate(523.783203 0)"/>
      <use xlink:href="#DejaVuSans-6c" transform="translate(585.0625 0)"/>
      <use xlink:href="#DejaVuSans-69" transform="translate(612.845703 0)"/>
      <use xlink:href="#DejaVuSans-7a" transform="translate(640.628906 0)"/>
      <use xlink:href="#DejaVuSans-65" transform="translate(693.119141 0)"/>
      <use xlink:href="#DejaVuSans-64" transform="translate(754.642578 0)"/>
      <use xlink:href="#DejaVuSans-20" transform="translate(818.119141 0)"/>
      <use xlink:href="#DejaVuSans-53" transform="translate(849.90625 0)"/>
      <use xlink:href="#DejaVuSans-6f" transform="translate(913.382812 0)"/>
      <use xlink:href="#DejaVuSans-6c" transform="translate(974.564453 0)"/>
      <use xlink:href="#DejaVuSans-75" transform="translate(1002.347656 0)"/>
      <use xlink:href="#DejaVuSans-74" transform="translate(1065.726562 0)"/>
      <use xlink:href="#DejaVuSans-69" transform="translate(1104.935547 0)"/>
      <use xlink:href="#DejaVuSans-6f" transform="translate(1132.71875 0)"/>
      <use xlink:href="#DejaVuSans-6e" transform="translate(1193.900391 0)"/>
     </g>
    </g>
    <g id="line2d_37">
     <path d="M 57.90125 95.530625 
L 67.90125 95.530625 
L 77.90125 95.530625 
" style="fill: none; stroke: #cf222e; stroke-width: 2; stroke-linecap: square"/>
    </g>
    <g id="text_26">
     <!-- OEIS Linked -->
     <g style="fill: #24292f" transform="translate(85.90125 99.030625) scale(0.1 -0.1)">
      <defs>
       <path id="DejaVuSans-45" d="M 628 4666 
L 3578 4666 
L 3578 4134 
L 1259 4134 
L 1259 2753 
L 3481 2753 
L 3481 2222 
L 1259 2222 
L 1259 531 
L 3634 531 
L 3634 0 
L 628 0 
L 628 4666 
z
" transform="scale(0.015625)"/>
       <path id="DejaVuSans-49" d="M 628 4666 
L 1259 4666 
L 1259 0 
L 628 0 
L 628 4666 
z
" transform="scale(0.015625)"/>
       <path id="DejaVuSans-6b" d="M 581 4863 
L 1159 4863 
L 1159 1991 
L 2875 3500 
L 3609 3500 
L 1753 1863 
L 3688 0 
L 2938 0 
L 1159 1709 
L 1159 0 
L 581 0 
L 581 4863 
z
" transform="scale(0.015625)"/>
      </defs>
      <use xlink:href="#DejaVuSans-4f"/>
      <use xlink:href="#DejaVuSans-45" transform="translate(78.710938 0)"/>
      <use xlink:href="#DejaVuSans-49" transform="translate(141.894531 0)"/>
      <use xlink:href="#DejaVuSans-53" transform="translate(171.386719 0)"/>
      <use xlink:href="#DejaVuSans-20" transform="translate(234.863281 0)"/>
      <use xlink:href="#DejaVuSans-4c" transform="translate(266.650391 0)"/>
      <use xlink:href="#DejaVuSans-69" transform="translate(322.363281 0)"/>
      <use xlink:href="#DejaVuSans-6e" transform="translate(350.146484 0)"/>
      <use xlink:href="#DejaVuSans-6b" transform="translate(413.525391 0)"/>
      <use xlink:href="#DejaVuSans-65" transform="translate(467.810547 0)"/>
      <use xlink:href="#DejaVuSans-64" transform="translate(529.333984 0)"/>
     </g>
    </g>
    <g id="line2d_38">
     <path d="M 57.90125 110.20875 
L 67.90125 110.20875 
L 77.90125 110.20875 
" style="fill: none; stroke: #9467bd; stroke-width: 2; stroke-linecap: square"/>
    </g>
    <g id="text_27">
     <!-- Open Problems -->
     <g style="fill: #24292f" transform="translate(85.90125 113.70875) scale(0.1 -0.1)">
      <defs>
       <path id="DejaVuSans-73" d="M 2834 3397 
L 2834 2853 
Q 2591 2978 2328 3040 
Q 2066 3103 1784 3103 
Q 1356 3103 1142 2972 
Q 928 2841 928 2578 
Q 928 2378 1081 2264 
Q 1234 2150 1697 2047 
L 1894 2003 
Q 2506 1872 2764 1633 
Q 3022 1394 3022 966 
Q 3022 478 2636 193 
Q 2250 -91 1575 -91 
Q 1294 -91 989 -36 
Q 684 19 347 128 
L 347 722 
Q 666 556 975 473 
Q 1284 391 1588 391 
Q 1994 391 2212 530 
Q 2431 669 2431 922 
Q 2431 1156 2273 1281 
Q 2116 1406 1581 1522 
L 1381 1569 
Q 847 1681 609 1914 
Q 372 2147 372 2553 
Q 372 3047 722 3315 
Q 1072 3584 1716 3584 
Q 2034 3584 2315 3537 
Q 2597 3491 2834 3397 
z
" transform="scale(0.015625)"/>
      </defs>
      <use xlink:href="#DejaVuSans-4f"/>
      <use xlink:href="#DejaVuSans-70" transform="translate(78.710938 0)"/>
      <use xlink:href="#DejaVuSans-65" transform="translate(142.1875 0)"/>
      <use xlink:href="#DejaVuSans-6e" transform="translate(203.710938 0)"/>
      <use xlink:href="#DejaVuSans-20" transform="translate(267.089844 0)"/>
      <use xlink:href="#DejaVuSans-50" transform="translate(298.876953 0)"/>
      <use xlink:href="#DejaVuSans-72" transform="translate(357.429688 0)"/>
      <use xlink:href="#DejaVuSans-6f" transform="translate(396.292969 0)"/>
      <use xlink:href="#DejaVuSans-62" transform="translate(457.474609 0)"/>
      <use xlink:href="#DejaVuSans-6c" transform="translate(520.951172 0)"/>
      <use xlink:href="#DejaVuSans-65" transform="translate(548.734375 0)"/>
      <use xlink:href="#DejaVuSans-6d" transform="translate(610.257812 0)"/>
      <use xlink:href="#DejaVuSans-73" transform="translate(707.669922 0)"/>
     </g>
    </g>
   </g>
  </g>
 </g>
 <defs>
  <clipPath id="pf82ec6517b">
   <rect x="48.90125" y="38.397812" width="799.45" height="416.84"/>
  </clipPath>
 </defs>
</svg>
