<?xml version="1.0" encoding="utf-8" standalone="no"?>
<!DOCTYPE svg PUBLIC "-//W3C//DTD SVG 1.1//EN"
  "http://www.w3.org/Graphics/SVG/1.1/DTD/svg11.dtd">
<svg xmlns:xlink="http://www.w3.org/1999/xlink" width="854.187515pt" height="494.729687pt" viewBox="0 0 854.187515 494.729687" xmlns="http://www.w3.org/2000/svg" version="1.1">
 <metadata>
  <rdf:RDF xmlns:dc="http://purl.org/dc/elements/1.1/" xmlns:cc="http://creativecommons.org/ns#" xmlns:rdf="http://www.w3.org/1999/02/22-rdf-syntax-ns#">
   <cc:Work>
    <dc:type rdf:resource="http://purl.org/dc/dcmitype/StillImage"/>
    <dc:date>2026-08-18T14:23:36.589150</dc:date>
    <dc:format>image/svg+xml</dc:format>
    <dc:creator>
     <cc:Agent>
      <dc:title>Matplotlib v3.10.7, https://matplotlib.org/</dc:title>
     </cc:Agent>
    </dc:creator>
   </cc:Work>
  </rdf:RDF>
 </metadata>
 <defs>
  <style type="text/css">*{stroke-linejoin: round; stroke-linecap: butt}</style>
 </defs>
 <g id="figure_1">
  <g id="patch_1">
   <path d="M 0 494.729687 
L 854.187515 494.729687 
L 854.187515 0 
L 0 0 
z
" style="fill: #ffffff"/>
  </g>
  <g id="axes_1">
   <g id="patch_2">
    <path d="M 48.90125 455.237812 
L 846.201884 455.237812 
L 846.201884 38.397812 
L 48.90125 38.397812 
z
" style="fill: #ffffff"/>
   </g>
   <g id="matplotlib.axis_1">
    <g id="xtick_1">
     <g id="line2d_1">
      <path d="M 85.744339 455.237812 
L 85.744339 38.397812 
" clip-path="url(#p417a851c90)" style="fill: none; stroke: #d0d7de; stroke-opacity: 0.25; stroke-width: 0.5; stroke-linecap: square"/>
     </g>
     <g id="line2d_2">
      <defs>
       <path id="mf81acc4d45" d="M 0 0 
L 0 3.5 
" style="stroke: #24292f; stroke-width: 0.8"/>
      </defs>
      <g>
       <use xlink:href="#mf81acc4d45" x="85.744339" y="455.237812" style="fill: #24292f; stroke: #24292f; stroke-width: 0.8"/>
      </g>
     </g>
     <g id="text_1">
      <!-- Sep -->
      <g style="fill: #24292f" transform="translate(76.319339 469.83625) scale(0.1 -0.1)">
       <defs>
        <path id="DejaVuSans-53" d="M 3425 4513 
L 3425 3897 
Q 3066 4069 2747 4153 
Q 2428 4238 2131 4238 
Q 1616 4238 1336 4038 
Q 1056 3838 1056 3469 
Q 1056 3159 1242 3001 
Q 1428 2844 1947 2747 
L 2328 2669 
Q 3034 2534 3370 2195 
Q 3706 1856 3706 1288 
Q 3706 609 3251 259 
Q 2797 -91 1919 -91 
Q 1588 -91 1214 -16 
Q 841 59 441 206 
L 441 856 
Q 825 641 1194 531 
Q 1563 422 1919 422 
Q 2459 422 2753 634 
Q 3047 847 3047 1241 
Q 3047 1584 2836 1778 
Q 2625 1972 2144 2069 
L 1759 2144 
Q 1053 2284 737 2584 
Q 422 2884 422 3419 
Q 422 4038 858 4394 
Q 1294 4750 2059 4750 
Q 2388 4750 2728 4690 
Q 3069 4631 3425 4513 
z
" transform="scale(0.015625)"/>
        <path id="DejaVuSans-65" d="M 3597 1894 
L 3597 1613 
L 953 1613 
Q 991 1019 1311 708 
Q 1631 397 2203 397 
Q 2534 397 2845 478 
Q 3156 559 3463 722 
L 3463 178 
Q 3153 47 2828 -22 
Q 2503 -91 2169 -91 
Q 1331 -91 842 396 
Q 353 884 353 1716 
Q 353 2575 817 3079 
Q 1281 3584 2069 3584 
Q 2775 3584 3186 3129 
Q 3597 2675 3597 1894 
z
M 3022 2063 
Q 3016 2534 2758 2815 
Q 2500 3097 2075 3097 
Q 1594 3097 1305 2825 
Q 1016 2553 972 2059 
L 3022 2063 
z
" transform="scale(0.015625)"/>
        <path id="DejaVuSans-70" d="M 1159 525 
L 1159 -1331 
L 581 -1331 
L 581 3500 
L 1159 3500 
L 1159 2969 
Q 1341 3281 1617 3432 
Q 1894 3584 2278 3584 
Q 2916 3584 3314 3078 
Q 3713 2572 3713 1747 
Q 3713 922 3314 415 
Q 2916 -91 2278 -91 
Q 1894 -91 1617 61 
Q 1341 213 1159 525 
z
M 3116 1747 
Q 3116 2381 2855 2742 
Q 2594 3103 2138 3103 
Q 1681 3103 1420 2742 
Q 1159 2381 1159 1747 
Q 1159 1113 1420 752 
Q 1681 391 2138 391 
Q 2594 391 2855 752 
Q 3116 1113 3116 1747 
z
" transform="scale(0.015625)"/>
       </defs>
       <use xlink:href="#DejaVuSans-53"/>
       <use xlink:href="#DejaVuSans-65" transform="translate(63.476562 0)"/>
       <use xlink:href="#DejaVuSans-70" transform="translate(125 0)"/>
      </g>
     </g>
    </g>
    <g id="xtick_2">
     <g id="line2d_3">
      <path d="M 211.390664 455.237812 
L 211.390664 38.397812 
" clip-path="url(#p417a851c90)" style="fill: none; stroke: #d0d7de; stroke-opacity: 0.25; stroke-width: 0.5; stroke-linecap: square"/>
     </g>
     <g id="line2d_4">
      <g>
       <use xlink:href="#mf81acc4d45" x="211.390664" y="455.237812" style="fill: #24292f; stroke: #24292f; stroke-width: 0.8"/>
      </g>
     </g>
     <g id="text_2">
      <!-- Nov -->
      <g style="fill: #24292f" transform="translate(201.631289 469.83625) scale(0.1 -0.1)">
       <defs>
        <path id="DejaVuSans-4e" d="M 628 4666 
L 1478 4666 
L 3547 763 
L 3547 4666 
L 4159 4666 
L 4159 0 
L 3309 0 
L 1241 3903 
L 1241 0 
L 628 0 
L 628 4666 
z
" transform="scale(0.015625)"/>
        <path id="DejaVuSans-6f" d="M 1959 3097 
Q 1497 3097 1228 2736 
Q 959 2375 959 1747 
Q 959 1119 1226 758 
Q 1494 397 1959 397 
Q 2419 397 2687 759 
Q 2956 1122 2956 1747 
Q 2956 2369 2687 2733 
Q 2419 3097 1959 3097 
z
M 1959 3584 
Q 2709 3584 3137 3096 
Q 3566 2609 3566 1747 
Q 3566 888 3137 398 
Q 2709 -91 1959 -91 
Q 1206 -91 779 398 
Q 353 888 353 1747 
Q 353 2609 779 3096 
Q 1206 3584 1959 3584 
z
" transform="scale(0.015625)"/>
        <path id="DejaVuSans-76" d="M 191 3500 
L 800 3500 
L 1894 563 
L 2988 3500 
L 3597 3500 
L 2284 0 
L 1503 0 
L 191 3500 
z
" transform="scale(0.015625)"/>
       </defs>
       <use xlink:href="#DejaVuSans-4e"/>
       <use xlink:href="#DejaVuSans-6f" transform="translate(74.804688 0)"/>
       <use xlink:href="#DejaVuSans-76" transform="translate(135.986328 0)"/>
      </g>
     </g>
    </g>
    <g id="xtick_3">
     <g id="line2d_5">
      <path d="M 337.036989 455.237812 
L 337.036989 38.397812 
" clip-path="url(#p417a851c90)" style="fill: none; stroke: #d0d7de; stroke-opacity: 0.25; stroke-width: 0.5; stroke-linecap: square"/>
     </g>
     <g id="line2d_6">
      <g>
       <use xlink:href="#mf81acc4d45" x="337.036989" y="455.237812" style="fill: #24292f; stroke: #24292f; stroke-width: 0.8"/>
      </g>
     </g>
     <g id="text_3">
      <!-- 2026 -->
      <g style="fill: #24292f" transform="translate(324.311989 469.83625) scale(0.1 -0.1)">
       <defs>
        <path id="DejaVuSans-32" d="M 1228 531 
L 3431 531 
L 3431 0 
L 469 0 
L 469 531 
Q 828 903 1448 1529 
Q 2069 2156 2228 2338 
Q 2531 2678 2651 2914 
Q 2772 3150 2772 3378 
Q 2772 3750 2511 3984 
Q 2250 4219 1831 4219 
Q 1534 4219 1204 4116 
Q 875 4013 500 3803 
L 500 4441 
Q 881 4594 1212 4672 
Q 1544 4750 1819 4750 
Q 2544 4750 2975 4387 
Q 3406 4025 3406 3419 
Q 3406 3131 3298 2873 
Q 3191 2616 2906 2266 
Q 2828 2175 2409 1742 
Q 1991 1309 1228 531 
z
" transform="scale(0.015625)"/>
        <path id="DejaVuSans-30" d="M 2034 4250 
Q 1547 4250 1301 3770 
Q 1056 3291 1056 2328 
Q 1056 1369 1301 889 
Q 1547 409 2034 409 
Q 2525 409 2770 889 
Q 3016 1369 3016 2328 
Q 3016 3291 2770 3770 
Q 2525 4250 2034 4250 
z
M 2034 4750 
Q 2819 4750 3233 4129 
Q 3647 3509 3647 2328 
Q 3647 1150 3233 529 
Q 2819 -91 2034 -91 
Q 1250 -91 836 529 
Q 422 1150 422 2328 
Q 422 3509 836 4129 
Q 1250 4750 2034 4750 
z
" transform="scale(0.015625)"/>
        <path id="DejaVuSans-36" d="M 2113 2584 
Q 1688 2584 1439 2293 
Q 1191 2003 1191 1497 
Q 1191 994 1439 701 
Q 1688 409 2113 409 
Q 2538 409 2786 701 
Q 3034 994 3034 1497 
Q 3034 2003 2786 2293 
Q 2538 2584 2113 2584 
z
M 3366 4563 
L 3366 3988 
Q 3128 4100 2886 4159 
Q 2644 4219 2406 4219 
Q 1781 4219 1451 3797 
Q 1122 3375 1075 2522 
Q 1259 2794 1537 2939 
Q 1816 3084 2150 3084 
Q 2853 3084 3261 2657 
Q 3669 2231 3669 1497 
Q 3669 778 3244 343 
Q 2819 -91 2113 -91 
Q 1303 -91 875 529 
Q 447 1150 447 2328 
Q 447 3434 972 4092 
Q 1497 4750 2381 4750 
Q 2619 4750 2861 4703 
Q 3103 4656 3366 4563 
z
" transform="scale(0.015625)"/>
       </defs>
       <use xlink:href="#DejaVuSans-32"/>
       <use xlink:href="#DejaVuSans-30" transform="translate(63.623047 0)"/>
       <use xlink:href="#DejaVuSans-32" transform="translate(127.246094 0)"/>
       <use xlink:href="#DejaVuSans-36" transform="translate(190.869141 0)"/>
      </g>
     </g>
    </g>
    <g id="xtick_4">
     <g id="line2d_7">
      <path d="M 458.563763 455.237812 
L 458.563763 38.397812 
" clip-path="url(#p417a851c90)" style="fill: none; stroke: #d0d7de; stroke-opacity: 0.25; stroke-width: 0.5; stroke-linecap: square"/>
     </g>
     <g id="line2d_8">
      <g>
       <use xlink:href="#mf81acc4d45" x="458.563763" y="455.237812" style="fill: #24292f; stroke: #24292f; stroke-width: 0.8"/>
      </g>
     </g>
     <g id="text_4">
      <!-- Mar -->
      <g style="fill: #24292f" transform="translate(449.130169 469.83625) scale(0.1 -0.1)">
       <defs>
        <path id="DejaVuSans-4d" d="M 628 4666 
L 1569 4666 
L 2759 1491 
L 3956 4666 
L 4897 4666 
L 4897 0 
L 4281 0 
L 4281 4097 
L 3078 897 
L 2444 897 
L 1241 4097 
L 1241 0 
L 628 0 
L 628 4666 
z
" transform="scale(0.015625)"/>
        <path id="DejaVuSans-61" d="M 2194 1759 
Q 1497 1759 1228 1600 
Q 959 1441 959 1056 
Q 959 750 1161 570 
Q 1363 391 1709 391 
Q 2188 391 2477 730 
Q 2766 1069 2766 1631 
L 2766 1759 
L 2194 1759 
z
M 3341 1997 
L 3341 0 
L 2766 0 
L 2766 531 
Q 2569 213 2275 61 
Q 1981 -91 1556 -91 
Q 1019 -91 701 211 
Q 384 513 384 1019 
Q 384 1609 779 1909 
Q 1175 2209 1959 2209 
L 2766 2209 
L 2766 2266 
Q 2766 2663 2505 2880 
Q 2244 3097 1772 3097 
Q 1472 3097 1187 3025 
Q 903 2953 641 2809 
L 641 3341 
Q 956 3463 1253 3523 
Q 1550 3584 1831 3584 
Q 2591 3584 2966 3190 
Q 3341 2797 3341 1997 
z
" transform="scale(0.015625)"/>
        <path id="DejaVuSans-72" d="M 2631 2963 
Q 2534 3019 2420 3045 
Q 2306 3072 2169 3072 
Q 1681 3072 1420 2755 
Q 1159 2438 1159 1844 
L 1159 0 
L 581 0 
L 581 3500 
L 1159 3500 
L 1159 2956 
Q 1341 3275 1631 3429 
Q 1922 3584 2338 3584 
Q 2397 3584 2469 3576 
Q 2541 3569 2628 3553 
L 2631 2963 
z
" transform="scale(0.015625)"/>
       </defs>
       <use xlink:href="#DejaVuSans-4d"/>
       <use xlink:href="#DejaVuSans-61" transform="translate(86.279297 0)"/>
       <use xlink:href="#DejaVuSans-72" transform="translate(147.558594 0)"/>
      </g>
     </g>
    </g>
    <g id="xtick_5">
     <g id="line2d_9">
      <path d="M 584.210088 455.237812 
L 584.210088 38.397812 
" clip-path="url(#p417a851c90)" style="fill: none; stroke: #d0d7de; stroke-opacity: 0.25; stroke-width: 0.5; stroke-linecap: square"/>
     </g>
     <g id="line2d_10">
      <g>
       <use xlink:href="#mf81acc4d45" x="584.210088" y="455.237812" style="fill: #24292f; stroke: #24292f; stroke-width: 0.8"/>
      </g>
     </g>
     <g id="text_5">
      <!-- May -->
      <g style="fill: #24292f" transform="translate(573.872588 469.83625) scale(0.1 -0.1)">
       <defs>
        <path id="DejaVuSans-79" d="M 2059 -325 
Q 1816 -950 1584 -1140 
Q 1353 -1331 966 -1331 
L 506 -1331 
L 506 -850 
L 844 -850 
Q 1081 -850 1212 -737 
Q 1344 -625 1503 -206 
L 1606 56 
L 191 3500 
L 800 3500 
L 1894 763 
L 2988 3500 
L 3597 3500 
L 2059 -325 
z
" transform="scale(0.015625)"/>
       </defs>
       <use xlink:href="#DejaVuSans-4d"/>
       <use xlink:href="#DejaVuSans-61" transform="translate(86.279297 0)"/>
       <use xlink:href="#DejaVuSans-79" transform="translate(147.558594 0)"/>
      </g>
     </g>
    </g>
    <g id="xtick_6">
     <g id="line2d_11">
      <path d="M 709.856414 455.237812 
L 709.856414 38.397812 
" clip-path="url(#p417a851c90)" style="fill: none; stroke: #d0d7de; stroke-opacity: 0.25; stroke-width: 0.5; stroke-linecap: square"/>
     </g>
     <g id="line2d_12">
      <g>
       <use xlink:href="#mf81acc4d45" x="709.856414" y="455.237812" style="fill: #24292f; stroke: #24292f; stroke-width: 0.8"/>
      </g>
     </g>
     <g id="text_6">
      <!-- Jul -->
      <g style="fill: #24292f" transform="translate(703.823601 469.83625) scale(0.1 -0.1)">
       <defs>
        <path id="DejaVuSans-4a" d="M 628 4666 
L 1259 4666 
L 1259 325 
Q 1259 -519 939 -900 
Q 619 -1281 -91 -1281 
L -331 -1281 
L -331 -750 
L -134 -750 
Q 284 -750 456 -515 
Q 628 -281 628 325 
L 628 4666 
z
" transform="scale(0.015625)"/>
        <path id="DejaVuSans-75" d="M 544 1381 
L 544 3500 
L 1119 3500 
L 1119 1403 
Q 1119 906 1312 657 
Q 1506 409 1894 409 
Q 2359 409 2629 706 
Q 2900 1003 2900 1516 
L 2900 3500 
L 3475 3500 
L 3475 0 
L 2900 0 
L 2900 538 
Q 2691 219 2414 64 
Q 2138 -91 1772 -91 
Q 1169 -91 856 284 
Q 544 659 544 1381 
z
M 1991 3584 
L 1991 3584 
z
" transform="scale(0.015625)"/>
        <path id="DejaVuSans-6c" d="M 603 4863 
L 1178 4863 
L 1178 0 
L 603 0 
L 603 4863 
z
" transform="scale(0.015625)"/>
       </defs>
       <use xlink:href="#DejaVuSans-4a"/>
       <use xlink:href="#DejaVuSans-75" transform="translate(29.492188 0)"/>
       <use xlink:href="#DejaVuSans-6c" transform="translate(92.871094 0)"/>
      </g>
     </g>
    </g>
    <g id="xtick_7">
     <g id="line2d_13">
      <path d="M 837.562515 455.237812 
L 837.562515 38.397812 
" clip-path="url(#p417a851c90)" style="fill: none; stroke: #d0d7de; stroke-opacity: 0.25; stroke-width: 0.5; stroke-linecap: square"/>
     </g>
     <g id="line2d_14">
      <g>
       <use xlink:href="#mf81acc4d45" x="837.562515" y="455.237812" style="fill: #24292f; stroke: #24292f; stroke-width: 0.8"/>
      </g>
     </g>
     <g id="text_7">
      <!-- Sep -->
      <g style="fill: #24292f" transform="translate(828.137515 469.83625) scale(0.1 -0.1)">
       <use xlink:href="#DejaVuSans-53"/>
       <use xlink:href="#DejaVuSans-65" transform="translate(63.476562 0)"/>
       <use xlink:href="#DejaVuSans-70" transform="translate(125 0)"/>
      </g>
     </g>
    </g>
    <g id="text_8">
     <!-- Date -->
     <g style="fill: #24292f" transform="translate(433.21063 485.034062) scale(0.12 -0.12)">
      <defs>
       <path id="DejaVuSans-44" d="M 1259 4147 
L 1259 519 
L 2022 519 
Q 2988 519 3436 956 
Q 3884 1394 3884 2338 
Q 3884 3275 3436 3711 
Q 2988 4147 2022 4147 
L 1259 4147 
z
M 628 4666 
L 1925 4666 
Q 3281 4666 3915 4102 
Q 4550 3538 4550 2338 
Q 4550 1131 3912 565 
Q 3275 0 1925 0 
L 628 0 
L 628 4666 
z
" transform="scale(0.015625)"/>
       <path id="DejaVuSans-74" d="M 1172 4494 
L 1172 3500 
L 2356 3500 
L 2356 3053 
L 1172 3053 
L 1172 1153 
Q 1172 725 1289 603 
Q 1406 481 1766 481 
L 2356 481 
L 2356 0 
L 1766 0 
Q 1100 0 847 248 
Q 594 497 594 1153 
L 594 3053 
L 172 3053 
L 172 3500 
L 594 3500 
L 594 4494 
L 1172 4494 
z
" transform="scale(0.015625)"/>
      </defs>
      <use xlink:href="#DejaVuSans-44"/>
      <use xlink:href="#DejaVuSans-61" transform="translate(77.001953 0)"/>
      <use xlink:href="#DejaVuSans-74" transform="translate(138.28125 0)"/>
      <use xlink:href="#DejaVuSans-65" transform="translate(177.490234 0)"/>
     </g>
    </g>
   </g>
   <g id="matplotlib.axis_2">
    <g id="ytick_1">
     <g id="line2d_15">
      <path d="M 48.90125 455.237812 
L 846.201884 455.237812 
" clip-path="url(#p417a851c90)" style="fill: none; stroke: #d0d7de; stroke-opacity: 0.25; stroke-width: 0.5; stroke-linecap: square"/>
     </g>
     <g id="line2d_16">
      <defs>
       <path id="m5c6966d624" d="M 0 0 
L -3.5 0 
" style="stroke: #24292f; stroke-width: 0.8"/>
      </defs>
      <g>
       <use xlink:href="#m5c6966d624" x="48.90125" y="455.237812" style="fill: #24292f; stroke: #24292f; stroke-width: 0.8"/>
      </g>
     </g>
     <g id="text_9">
      <!-- 0 -->
      <g style="fill: #24292f" transform="translate(35.53875 459.037031) scale(0.1 -0.1)">
       <use xlink:href="#DejaVuSans-30"/>
      </g>
     </g>
    </g>
    <g id="ytick_2">
     <g id="line2d_17">
      <path d="M 48.90125 399.659146 
L 846.201884 399.659146 
" clip-path="url(#p417a851c90)" style="fill: none; stroke: #d0d7de; stroke-opacity: 0.25; stroke-width: 0.5; stroke-linecap: square"/>
     </g>
     <g id="line2d_18">
      <g>
       <use xlink:href="#m5c6966d624" x="48.90125" y="399.659146" style="fill: #24292f; stroke: #24292f; stroke-width: 0.8"/>
      </g>
     </g>
     <g id="text_10">
      <!-- 100 -->
      <g style="fill: #24292f" transform="translate(22.81375 403.458365) scale(0.1 -0.1)">
       <defs>
        <path id="DejaVuSans-31" d="M 794 531 
L 1825 531 
L 1825 4091 
L 703 3866 
L 703 4441 
L 1819 4666 
L 2450 4666 
L 2450 531 
L 3481 531 
L 3481 0 
L 794 0 
L 794 531 
z
" transform="scale(0.015625)"/>
       </defs>
       <use xlink:href="#DejaVuSans-31"/>
       <use xlink:href="#DejaVuSans-30" transform="translate(63.623047 0)"/>
       <use xlink:href="#DejaVuSans-30" transform="translate(127.246094 0)"/>
      </g>
     </g>
    </g>
    <g id="ytick_3">
     <g id="line2d_19">
      <path d="M 48.90125 344.080479 
L 846.201884 344.080479 
" clip-path="url(#p417a851c90)" style="fill: none; stroke: #d0d7de; stroke-opacity: 0.25; stroke-width: 0.5; stroke-linecap: square"/>
     </g>
     <g id="line2d_20">
      <g>
       <use xlink:href="#m5c6966d624" x="48.90125" y="344.080479" style="fill: #24292f; stroke: #24292f; stroke-width: 0.8"/>
      </g>
     </g>
     <g id="text_11">
      <!-- 200 -->
      <g style="fill: #24292f" transform="translate(22.81375 347.879698) scale(0.1 -0.1)">
       <use xlink:href="#DejaVuSans-32"/>
       <use xlink:href="#DejaVuSans-30" transform="translate(63.623047 0)"/>
       <use xlink:href="#DejaVuSans-30" transform="translate(127.246094 0)"/>
      </g>
     </g>
    </g>
    <g id="ytick_4">
     <g id="line2d_21">
      <path d="M 48.90125 288.501812 
L 846.201884 288.501812 
" clip-path="url(#p417a851c90)" style="fill: none; stroke: #d0d7de; stroke-opacity: 0.25; stroke-width: 0.5; stroke-linecap: square"/>
     </g>
     <g id="line2d_22">
      <g>
       <use xlink:href="#m5c6966d624" x="48.90125" y="288.501812" style="fill: #24292f; stroke: #24292f; stroke-width: 0.8"/>
      </g>
     </g>
     <g id="text_12">
      <!-- 300 -->
      <g style="fill: #24292f" transform="translate(22.81375 292.301031) scale(0.1 -0.1)">
       <defs>
        <path id="DejaVuSans-33" d="M 2597 2516 
Q 3050 2419 3304 2112 
Q 3559 1806 3559 1356 
Q 3559 666 3084 287 
Q 2609 -91 1734 -91 
Q 1441 -91 1130 -33 
Q 819 25 488 141 
L 488 750 
Q 750 597 1062 519 
Q 1375 441 1716 441 
Q 2309 441 2620 675 
Q 2931 909 2931 1356 
Q 2931 1769 2642 2001 
Q 2353 2234 1838 2234 
L 1294 2234 
L 1294 2753 
L 1863 2753 
Q 2328 2753 2575 2939 
Q 2822 3125 2822 3475 
Q 2822 3834 2567 4026 
Q 2313 4219 1838 4219 
Q 1578 4219 1281 4162 
Q 984 4106 628 3988 
L 628 4550 
Q 988 4650 1302 4700 
Q 1616 4750 1894 4750 
Q 2613 4750 3031 4423 
Q 3450 4097 3450 3541 
Q 3450 3153 3228 2886 
Q 3006 2619 2597 2516 
z
" transform="scale(0.015625)"/>
       </defs>
       <use xlink:href="#DejaVuSans-33"/>
       <use xlink:href="#DejaVuSans-30" transform="translate(63.623047 0)"/>
       <use xlink:href="#DejaVuSans-30" transform="translate(127.246094 0)"/>
      </g>
     </g>
    </g>
    <g id="ytick_5">
     <g id="line2d_23">
      <path d="M 48.90125 232.923146 
L 846.201884 232.923146 
" clip-path="url(#p417a851c90)" style="fill: none; stroke: #d0d7de; stroke-opacity: 0.25; stroke-width: 0.5; stroke-linecap: square"/>
     </g>
     <g id="line2d_24">
      <g>
       <use xlink:href="#m5c6966d624" x="48.90125" y="232.923146" style="fill: #24292f; stroke: #24292f; stroke-width: 0.8"/>
      </g>
     </g>
     <g id="text_13">
      <!-- 400 -->
      <g style="fill: #24292f" transform="translate(22.81375 236.722365) scale(0.1 -0.1)">
       <defs>
        <path id="DejaVuSans-34" d="M 2419 4116 
L 825 1625 
L 2419 1625 
L 2419 4116 
z
M 2253 4666 
L 3047 4666 
L 3047 1625 
L 3713 1625 
L 3713 1100 
L 3047 1100 
L 3047 0 
L 2419 0 
L 2419 1100 
L 313 1100 
L 313 1709 
L 2253 4666 
z
" transform="scale(0.015625)"/>
       </defs>
       <use xlink:href="#DejaVuSans-34"/>
       <use xlink:href="#DejaVuSans-30" transform="translate(63.623047 0)"/>
       <use xlink:href="#DejaVuSans-30" transform="translate(127.246094 0)"/>
      </g>
     </g>
    </g>
    <g id="ytick_6">
     <g id="line2d_25">
      <path d="M 48.90125 177.344479 
L 846.201884 177.344479 
" clip-path="url(#p417a851c90)" style="fill: none; stroke: #d0d7de; stroke-opacity: 0.25; stroke-width: 0.5; stroke-linecap: square"/>
     </g>
     <g id="line2d_26">
      <g>
       <use xlink:href="#m5c6966d624" x="48.90125" y="177.344479" style="fill: #24292f; stroke: #24292f; stroke-width: 0.8"/>
      </g>
     </g>
     <g id="text_14">
      <!-- 500 -->
      <g style="fill: #24292f" transform="translate(22.81375 181.143698) scale(0.1 -0.1)">
       <defs>
        <path id="DejaVuSans-35" d="M 691 4666 
L 3169 4666 
L 3169 4134 
L 1269 4134 
L 1269 2991 
Q 1406 3038 1543 3061 
Q 1681 3084 1819 3084 
Q 2600 3084 3056 2656 
Q 3513 2228 3513 1497 
Q 3513 744 3044 326 
Q 2575 -91 1722 -91 
Q 1428 -91 1123 -41 
Q 819 9 494 109 
L 494 744 
Q 775 591 1075 516 
Q 1375 441 1709 441 
Q 2250 441 2565 725 
Q 2881 1009 2881 1497 
Q 2881 1984 2565 2268 
Q 2250 2553 1709 2553 
Q 1456 2553 1204 2497 
Q 953 2441 691 2322 
L 691 4666 
z
" transform="scale(0.015625)"/>
       </defs>
       <use xlink:href="#DejaVuSans-35"/>
       <use xlink:href="#DejaVuSans-30" transform="translate(63.623047 0)"/>
       <use xlink:href="#DejaVuSans-30" transform="translate(127.246094 0)"/>
      </g>
     </g>
    </g>
    <g id="ytick_7">
     <g id="line2d_27">
      <path d="M 48.90125 121.765812 
L 846.201884 121.765812 
" clip-path="url(#p417a851c90)" style="fill: none; stroke: #d0d7de; stroke-opacity: 0.25; stroke-width: 0.5; stroke-linecap: square"/>
     </g>
     <g id="line2d_28">
      <g>
       <use xlink:href="#m5c6966d624" x="48.90125" y="121.765812" style="fill: #24292f; stroke: #24292f; stroke-width: 0.8"/>
      </g>
     </g>
     <g id="text_15">
      <!-- 600 -->
      <g style="fill: #24292f" transform="translate(22.81375 125.565031) scale(0.1 -0.1)">
       <use xlink:href="#DejaVuSans-36"/>
       <use xlink:href="#DejaVuSans-30" transform="translate(63.623047 0)"/>
       <use xlink:href="#DejaVuSans-30" transform="translate(127.246094 0)"/>
      </g>
     </g>
    </g>
    <g id="ytick_8">
     <g id="line2d_29">
      <path d="M 48.90125 66.187146 
L 846.201884 66.187146 
" clip-path="url(#p417a851c90)" style="fill: none; stroke: #d0d7de; stroke-opacity: 0.25; stroke-width: 0.5; stroke-linecap: square"/>
     </g>
     <g id="line2d_30">
      <g>
       <use xlink:href="#m5c6966d624" x="48.90125" y="66.187146" style="fill: #24292f; stroke: #24292f; stroke-width: 0.8"/>
      </g>
     </g>
     <g id="text_16">
      <!-- 700 -->
      <g style="fill: #24292f" transform="translate(22.81375 69.986365) scale(0.1 -0.1)">
       <defs>
        <path id="DejaVuSans-37" d="M 525 4666 
L 3525 4666 
L 3525 4397 
L 1831 0 
L 1172 0 
L 2766 4134 
L 525 4134 
L 525 4666 
z
" transform="scale(0.015625)"/>
       </defs>
       <use xlink:href="#DejaVuSans-37"/>
       <use xlink:href="#DejaVuSans-30" transform="translate(63.623047 0)"/>
       <use xlink:href="#DejaVuSans-30" transform="translate(127.246094 0)"/>
      </g>
     </g>
    </g>
    <g id="text_17">
     <!-- Count -->
     <g style="fill: #24292f" transform="translate(16.318125 264.635937) rotate(-90) scale(0.12 -0.12)">
      <defs>
       <path id="DejaVuSans-43" d="M 4122 4306 
L 4122 3641 
Q 3803 3938 3442 4084 
Q 3081 4231 2675 4231 
Q 1875 4231 1450 3742 
Q 1025 3253 1025 2328 
Q 1025 1406 1450 917 
Q 1875 428 2675 428 
Q 3081 428 3442 575 
Q 3803 722 4122 1019 
L 4122 359 
Q 3791 134 3420 21 
Q 3050 -91 2638 -91 
Q 1578 -91 968 557 
Q 359 1206 359 2328 
Q 359 3453 968 4101 
Q 1578 4750 2638 4750 
Q 3056 4750 3426 4639 
Q 3797 4528 4122 4306 
z
" transform="scale(0.015625)"/>
       <path id="DejaVuSans-6e" d="M 3513 2113 
L 3513 0 
L 2938 0 
L 2938 2094 
Q 2938 2591 2744 2837 
Q 2550 3084 2163 3084 
Q 1697 3084 1428 2787 
Q 1159 2491 1159 1978 
L 1159 0 
L 581 0 
L 581 3500 
L 1159 3500 
L 1159 2956 
Q 1366 3272 1645 3428 
Q 1925 3584 2291 3584 
Q 2894 3584 3203 3211 
Q 3513 2838 3513 2113 
z
" transform="scale(0.015625)"/>
      </defs>
      <use xlink:href="#DejaVuSans-43"/>
      <use xlink:href="#DejaVuSans-6f" transform="translate(69.824219 0)"/>
      <use xlink:href="#DejaVuSans-75" transform="translate(131.005859 0)"/>
      <use xlink:href="#DejaVuSans-6e" transform="translate(194.384766 0)"/>
      <use xlink:href="#DejaVuSans-74" transform="translate(257.763672 0)"/>
     </g>
    </g>
   </g>
   <g id="line2d_31">
    <path d="M 85.142188 454.682026 
L 85.181643 454.682026 
L 85.3115 454.126239 
L 85.330476 454.126239 
L 85.462383 257.933546 
L 87.121671 257.933546 
L 87.129252 261.268266 
L 89.136675 261.268266 
L 89.280144 260.712479 
L 89.512513 260.712479 
L 89.738373 260.156692 
L 91.1379 259.600906 
L 91.16553 260.156692 
L 91.232616 259.600906 
L 95.566537 259.600906 
L 98.181117 260.712479 
L 98.570138 259.600906 
L 98.854192 259.600906 
L 99.570107 259.045119 
L 99.869633 256.821972 
L 100.452854 256.821972 
L 101.30275 260.712479 
L 101.357892 256.821972 
L 102.010059 256.266186 
L 103.707348 256.266186 
L 104.29107 255.710399 
L 104.820032 255.710399 
L 105.038287 254.598826 
L 109.143201 254.598826 
L 109.445516 253.487252 
L 109.461012 252.375679 
L 110.766228 252.375679 
L 112.690831 251.264106 
L 113.700431 251.264106 
L 113.715713 250.708319 
L 116.034296 250.708319 
L 116.609459 247.929386 
L 118.429715 247.929386 
L 118.44235 247.373599 
L 128.636691 247.373599 
L 130.54227 246.817812 
L 130.607329 247.373599 
L 132.583665 246.817812 
L 139.461147 246.817812 
L 142.794574 246.262026 
L 142.858966 245.706239 
L 143.091311 245.150452 
L 144.89781 245.150452 
L 145.698167 244.594666 
L 148.998743 244.594666 
L 149.124046 247.373599 
L 149.130197 245.150452 
L 149.290664 245.150452 
L 150.183591 242.927306 
L 153.988812 242.927306 
L 156.978801 242.371519 
L 160.301977 242.371519 
L 160.447807 241.815732 
L 169.083059 241.815732 
L 169.451602 241.259946 
L 171.548353 241.259946 
L 171.563134 240.148372 
L 175.558193 240.148372 
L 175.639226 236.257866 
L 182.870064 236.257866 
L 182.872233 235.702079 
L 183.081644 235.702079 
L 183.992999 235.146292 
L 184.919159 235.146292 
L 185.213726 234.590506 
L 185.243193 235.146292 
L 185.917721 234.590506 
L 185.920797 234.034719 
L 185.936555 234.590506 
L 186.326196 234.034719 
L 189.875566 234.034719 
L 190.979096 233.478932 
L 192.288532 233.478932 
L 194.512589 232.923146 
L 196.618066 232.923146 
L 198.244765 231.811572 
L 201.804696 231.811572 
L 203.875534 230.699999 
L 204.458994 231.255786 
L 207.349331 231.255786 
L 210.609761 229.032639 
L 215.472286 229.032639 
L 216.980333 228.476852 
L 243.85552 228.476852 
L 244.07256 227.921066 
L 253.873326 227.921066 
L 254.037083 227.365279 
L 270.714043 227.365279 
L 274.386261 226.809492 
L 274.407503 227.365279 
L 277.036268 225.697919 
L 280.894128 225.697919 
L 283.000654 225.142132 
L 283.004111 224.586346 
L 287.399396 224.586346 
L 288.976912 225.142132 
L 289.543994 224.586346 
L 296.89973 224.586346 
L 297.212773 225.142132 
L 297.786221 224.586346 
L 297.983282 222.363199 
L 301.354186 222.363199 
L 301.357095 221.807412 
L 311.671994 221.807412 
L 312.272667 221.251626 
L 314.25501 221.251626 
L 314.4484 220.695839 
L 324.114971 220.695839 
L 324.128107 220.140052 
L 326.545864 220.140052 
L 326.549464 219.584266 
L 327.136143 219.584266 
L 327.166777 219.028479 
L 328.077823 219.028479 
L 328.220958 218.472692 
L 330.170879 218.472692 
L 330.467282 217.361119 
L 331.540725 215.137972 
L 334.136496 215.137972 
L 334.4231 212.359039 
L 335.198568 212.359039 
L 335.625757 211.247466 
L 337.827047 211.247466 
L 338.549351 210.691679 
L 340.616946 210.691679 
L 340.894063 210.135892 
L 346.509836 210.135892 
L 346.648204 209.580106 
L 347.167606 209.580106 
L 347.973994 209.024319 
L 357.057128 209.024319 
L 357.138733 208.468532 
L 357.429962 208.468532 
L 358.03793 207.356959 
L 358.890305 207.356959 
L 359.095257 206.801172 
L 359.292724 206.801172 
L 359.367653 206.245386 
L 361.647138 206.245386 
L 362.035206 205.689599 
L 364.019314 205.689599 
L 364.146524 205.133812 
L 365.233342 205.133812 
L 365.362769 204.578026 
L 368.680558 204.578026 
L 368.753174 204.022239 
L 370.723026 204.022239 
L 371.380962 201.799092 
L 372.110418 201.799092 
L 372.111181 201.243306 
L 375.073062 201.243306 
L 375.616066 200.687519 
L 377.883941 200.687519 
L 378.330631 200.131732 
L 378.498655 200.131732 
L 378.935118 199.575946 
L 380.05002 199.575946 
L 380.178875 199.020159 
L 382.975044 199.020159 
L 383.695799 198.464372 
L 383.748295 197.908586 
L 383.98164 197.908586 
L 384.718153 195.685439 
L 387.002287 195.685439 
L 387.018737 195.129652 
L 389.192563 195.129652 
L 389.399709 194.573866 
L 389.646835 194.573866 
L 389.895414 194.018079 
L 389.947266 194.573866 
L 390.133409 194.018079 
L 390.960418 194.018079 
L 390.968333 193.462292 
L 391.187947 193.462292 
L 391.284118 192.906506 
L 391.948634 192.350719 
L 396.572068 192.350719 
L 397.294706 191.794932 
L 397.778443 191.794932 
L 398.170897 191.239146 
L 398.567905 191.794932 
L 400.202542 191.794932 
L 400.273037 190.683359 
L 402.619679 190.683359 
L 403.530177 189.015999 
L 413.412976 189.015999 
L 413.987353 188.460212 
L 429.241996 188.460212 
L 429.335711 187.904426 
L 451.750816 187.904426 
L 451.856642 186.792852 
L 451.863675 187.348639 
L 455.130636 187.348639 
L 455.86827 186.792852 
L 468.738984 186.792852 
L 471.387489 186.237066 
L 471.413236 185.681279 
L 471.632492 185.681279 
L 472.319275 185.125492 
L 492.975918 185.125492 
L 493.176412 184.569706 
L 511.545751 184.569706 
L 513.903574 184.013919 
L 515.345822 184.013919 
L 515.502332 183.458132 
L 516.504756 182.902346 
L 519.315897 182.902346 
L 520.499839 182.346559 
L 521.738709 182.346559 
L 521.835189 181.790772 
L 523.872889 181.790772 
L 524.116295 181.234986 
L 524.164476 180.679199 
L 527.792423 180.679199 
L 527.806489 180.123412 
L 530.895509 180.123412 
L 530.902327 179.567626 
L 531.948951 179.011839 
L 533.806992 179.011839 
L 535.144083 178.456052 
L 536.340684 178.456052 
L 538.104319 175.121332 
L 540.163332 175.121332 
L 540.172868 172.342399 
L 550.525649 172.342399 
L 550.526722 171.786612 
L 550.705784 171.230826 
L 551.697385 171.230826 
L 551.913066 170.675039 
L 555.16558 170.675039 
L 555.91747 170.119252 
L 556.150029 170.675039 
L 561.85866 170.675039 
L 561.859971 170.119252 
L 564.208807 170.119252 
L 565.169678 167.340319 
L 571.060279 167.340319 
L 571.123193 166.228746 
L 572.455038 164.561386 
L 573.791413 164.561386 
L 573.933762 164.005599 
L 579.551514 164.005599 
L 579.654813 163.449812 
L 585.295666 163.449812 
L 585.418538 162.894026 
L 586.973192 161.226666 
L 587.093655 160.670879 
L 602.408637 160.670879 
L 603.858609 157.891946 
L 607.318413 157.891946 
L 607.543772 157.336159 
L 610.143095 157.336159 
L 611.11057 156.224586 
L 624.811154 156.224586 
L 624.984853 155.668799 
L 626.990464 155.668799 
L 627.20531 155.113012 
L 640.417365 155.113012 
L 640.424136 153.445652 
L 640.834494 153.445652 
L 640.997989 152.889866 
L 643.259165 152.889866 
L 643.590731 152.334079 
L 643.59271 152.889866 
L 649.56072 152.889866 
L 651.000441 152.334079 
L 677.860538 152.334079 
L 677.863184 151.778292 
L 688.558641 151.778292 
L 689.897353 151.222506 
L 713.032617 151.222506 
L 713.179948 150.110932 
L 719.321346 150.110932 
L 720.711957 148.999359 
L 727.489835 148.999359 
L 738.040321 148.443572 
L 739.446095 147.887786 
L 741.502867 146.776212 
L 742.769128 146.776212 
L 743.863908 146.220426 
L 744.282658 146.220426 
L 747.51169 145.664639 
L 754.848211 145.664639 
L 755.008345 145.108852 
L 760.682503 145.108852 
L 760.788781 144.553066 
L 809.960947 144.553066 
L 809.960947 144.553066 
" clip-path="url(#p417a851c90)" style="fill: none; stroke: #1a7f37; stroke-width: 2; stroke-linecap: square"/>
   </g>
   <g id="line2d_32">
    <path d="M 85.142188 455.237812 
L 85.206675 453.570452 
L 85.276836 453.570452 
L 85.386476 372.981386 
L 86.303124 372.981386 
L 86.323126 370.758239 
L 87.325765 370.758239 
L 87.584095 369.090879 
L 87.935592 370.758239 
L 87.938191 369.090879 
L 88.229039 369.090879 
L 88.341444 367.979306 
L 91.213711 367.979306 
L 91.216453 367.423519 
L 91.232616 367.979306 
L 91.373987 367.423519 
L 91.415445 367.979306 
L 91.607524 367.423519 
L 92.533946 367.423519 
L 92.730316 366.311946 
L 93.868319 366.311946 
L 95.163355 365.756159 
L 95.208937 365.200372 
L 95.558956 364.644586 
L 95.566537 364.088799 
L 98.181117 367.979306 
L 98.570138 366.311946 
L 98.854192 363.533012 
L 100.452854 363.533012 
L 101.30275 367.979306 
L 101.357892 363.533012 
L 116.888244 363.533012 
L 117.364806 362.977226 
L 118.44235 362.977226 
L 121.385302 362.421439 
L 122.102171 361.865652 
L 132.316418 361.865652 
L 132.583665 361.309866 
L 133.956706 360.754079 
L 134.829393 360.754079 
L 135.796724 360.198292 
L 135.822781 359.086719 
L 136.487727 358.530932 
L 136.934631 357.975146 
L 143.091311 357.975146 
L 144.318594 357.419359 
L 144.689616 357.419359 
L 144.89781 356.863572 
L 145.698167 356.863572 
L 146.493302 356.307786 
L 148.998743 356.307786 
L 149.124046 358.530932 
L 149.130197 356.307786 
L 150.087492 356.307786 
L 150.183591 355.751999 
L 151.538609 355.751999 
L 152.871765 355.196212 
L 152.904116 354.640426 
L 156.978801 354.640426 
L 158.69745 354.084639 
L 158.701789 353.528852 
L 164.420909 353.528852 
L 166.806578 352.973066 
L 168.596437 352.973066 
L 169.083059 352.417279 
L 171.815147 352.417279 
L 173.373424 351.861492 
L 173.458843 351.305706 
L 174.978095 351.305706 
L 175.154415 350.749919 
L 175.639226 350.194132 
L 176.72149 350.194132 
L 177.404792 349.638346 
L 178.657608 349.638346 
L 179.475272 349.082559 
L 181.219597 349.082559 
L 181.813857 347.970986 
L 186.326196 347.970986 
L 187.611267 347.415199 
L 189.118146 347.415199 
L 189.457961 346.859412 
L 189.56188 346.303626 
L 189.875566 345.747839 
L 195.064676 345.747839 
L 196.014747 345.192052 
L 196.618066 344.636266 
L 211.373904 344.636266 
L 214.686234 344.080479 
L 214.725808 343.524692 
L 216.980333 343.524692 
L 218.90732 342.968906 
L 222.313245 342.968906 
L 222.601042 342.413119 
L 228.40148 342.413119 
L 232.942094 341.857332 
L 232.985673 341.301546 
L 233.579289 341.301546 
L 234.781993 340.745759 
L 234.902004 338.522612 
L 237.414239 337.966826 
L 237.564669 337.411039 
L 237.624627 336.299466 
L 237.852156 335.743679 
L 246.027225 335.743679 
L 248.349622 335.187892 
L 249.827988 334.632106 
L 250.986135 334.632106 
L 253.671401 334.076319 
L 253.873326 331.853172 
L 254.037083 331.853172 
L 254.423171 330.741599 
L 259.516563 330.185812 
L 259.726498 329.074239 
L 260.802564 329.074239 
L 261.818696 328.518452 
L 261.94872 327.406879 
L 262.014804 326.851092 
L 262.687402 326.295306 
L 262.736775 325.739519 
L 263.963963 325.183732 
L 265.577072 324.627946 
L 266.075996 322.404799 
L 268.415963 321.849012 
L 268.835452 321.293226 
L 278.686306 321.293226 
L 280.319918 320.737439 
L 280.468584 320.181652 
L 287.145023 320.181652 
L 287.399396 319.070079 
L 290.181118 319.070079 
L 291.020954 318.514292 
L 291.061982 317.402719 
L 291.277639 316.846932 
L 292.705631 316.291146 
L 292.737791 315.735359 
L 292.910154 315.179572 
L 293.086785 312.956426 
L 293.283536 312.956426 
L 293.290784 312.400639 
L 294.482903 311.844852 
L 294.951573 311.289066 
L 295.06498 310.733279 
L 297.212773 310.177492 
L 298.795606 310.177492 
L 299.345237 309.621706 
L 305.296297 309.621706 
L 307.267841 309.065919 
L 307.275684 308.510132 
L 307.630256 307.954346 
L 312.272667 307.954346 
L 313.575237 307.398559 
L 314.111827 306.842772 
L 314.25501 305.731199 
L 318.010239 305.731199 
L 318.26609 305.175412 
L 320.328202 305.175412 
L 321.31544 304.619626 
L 324.128107 304.619626 
L 325.828495 304.063839 
L 329.359652 304.063839 
L 329.793659 303.508052 
L 331.540725 303.508052 
L 332.016262 302.952266 
L 332.546559 301.840692 
L 333.762256 301.840692 
L 333.803141 300.729119 
L 334.328146 300.729119 
L 334.672848 299.061759 
L 335.923804 299.061759 
L 336.07917 298.505972 
L 336.199776 298.505972 
L 336.798542 297.950186 
L 337.792169 297.950186 
L 337.827047 297.394399 
L 338.549351 297.394399 
L 338.72479 296.838612 
L 339.403681 296.838612 
L 340.443129 295.727039 
L 340.894063 295.727039 
L 342.638078 294.615466 
L 342.6407 294.059679 
L 342.973673 293.503892 
L 343.823235 292.948106 
L 343.955333 292.392319 
L 344.802368 291.836532 
L 346.186995 291.836532 
L 346.648204 290.724959 
L 348.336886 290.724959 
L 348.384828 290.169172 
L 348.865919 290.169172 
L 348.902848 289.613386 
L 349.166852 289.057599 
L 350.085455 289.057599 
L 350.15533 288.501812 
L 350.312697 288.501812 
L 350.417379 287.390239 
L 351.709125 287.390239 
L 351.964928 286.834452 
L 352.179727 286.834452 
L 352.308105 286.278666 
L 352.635953 286.278666 
L 352.88141 285.722879 
L 353.003327 285.167092 
L 354.237214 284.611306 
L 355.160561 284.611306 
L 355.23046 284.055519 
L 358.87283 284.055519 
L 358.890305 283.499732 
L 359.095257 283.499732 
L 359.57754 282.388159 
L 360.807708 282.388159 
L 360.934966 280.165012 
L 360.955063 279.609226 
L 361.170076 279.053439 
L 362.035206 279.053439 
L 362.443227 278.497652 
L 362.838709 278.497652 
L 362.966229 277.941866 
L 363.579275 277.386079 
L 364.146524 277.386079 
L 365.28691 276.830292 
L 365.362769 276.274506 
L 365.651471 276.274506 
L 365.709236 275.718719 
L 366.722984 275.718719 
L 366.751139 275.162932 
L 371.667447 275.162932 
L 371.777493 274.607146 
L 371.88966 274.607146 
L 371.954505 273.495572 
L 372.587552 273.495572 
L 372.722272 272.939786 
L 373.160737 272.383999 
L 373.270949 271.828212 
L 373.472326 271.828212 
L 373.642734 271.272426 
L 373.756928 270.716639 
L 376.168606 270.716639 
L 376.792141 270.160852 
L 377.067064 268.493492 
L 377.320411 268.493492 
L 377.474823 267.937706 
L 381.020021 267.937706 
L 381.254059 266.270346 
L 381.738464 266.270346 
L 381.809578 265.714559 
L 383.70245 265.714559 
L 383.748295 264.602986 
L 386.021724 264.602986 
L 386.045278 264.047199 
L 387.14044 264.047199 
L 387.147807 263.491412 
L 387.681108 263.491412 
L 387.769554 262.935626 
L 389.318963 262.935626 
L 389.502579 262.379839 
L 389.646835 261.824052 
L 389.939661 261.824052 
L 389.947266 261.268266 
L 390.133409 261.268266 
L 390.488506 260.712479 
L 393.356648 260.712479 
L 393.565105 260.156692 
L 394.416122 260.156692 
L 394.417695 259.600906 
L 400.92425 259.600906 
L 402.02859 259.045119 
L 402.060608 258.489332 
L 402.619679 257.933546 
L 403.46979 257.933546 
L 403.747955 256.266186 
L 406.005698 256.266186 
L 406.41341 255.710399 
L 410.318711 255.710399 
L 410.330727 255.154612 
L 411.606238 255.154612 
L 412.15134 254.598826 
L 418.154823 254.598826 
L 418.229752 253.487252 
L 420.590818 253.487252 
L 421.060442 252.931466 
L 421.563347 252.931466 
L 422.178133 252.375679 
L 426.241875 252.375679 
L 426.631015 251.819892 
L 426.968208 251.819892 
L 427.133539 251.264106 
L 428.428098 250.708319 
L 429.061813 250.708319 
L 429.335711 250.152532 
L 431.15444 249.596746 
L 434.503078 249.596746 
L 434.765127 249.040959 
L 447.689958 249.040959 
L 448.162205 248.485172 
L 451.151097 248.485172 
L 451.259116 247.929386 
L 451.453269 247.929386 
L 451.511796 247.373599 
L 468.20349 247.373599 
L 468.738984 246.817812 
L 472.724388 246.817812 
L 473.590138 246.262026 
L 473.648164 245.706239 
L 475.721743 245.706239 
L 475.807782 245.150452 
L 482.52432 245.150452 
L 482.538075 244.594666 
L 488.207942 244.594666 
L 488.268973 244.038879 
L 488.637229 243.483092 
L 490.028579 243.483092 
L 490.031774 242.927306 
L 490.429186 242.371519 
L 492.403543 242.371519 
L 493.093711 241.815732 
L 497.548263 241.815732 
L 497.579636 240.704159 
L 525.816135 240.704159 
L 527.806489 240.148372 
L 530.310594 240.148372 
L 530.393796 239.592586 
L 541.495678 239.592586 
L 541.514321 239.036799 
L 553.107974 239.036799 
L 553.227484 238.481012 
L 553.917247 238.481012 
L 553.935222 237.925226 
L 554.354997 236.813652 
L 554.69753 236.257866 
L 554.838186 234.034719 
L 554.993503 233.478932 
L 555.16558 232.367359 
L 556.041176 232.367359 
L 556.155155 231.255786 
L 556.483503 230.699999 
L 561.859971 230.699999 
L 562.439474 229.588426 
L 579.397699 229.588426 
L 579.551514 229.032639 
L 589.856496 229.032639 
L 590.101643 227.921066 
L 591.211657 227.921066 
L 591.360347 227.365279 
L 597.955277 227.365279 
L 598.120083 226.809492 
L 600.712302 226.809492 
L 601.404615 226.253706 
L 601.469722 225.697919 
L 605.359051 225.697919 
L 605.480206 224.586346 
L 605.981966 224.030559 
L 606.451304 224.030559 
L 607.318413 223.474772 
L 609.811123 223.474772 
L 609.849124 222.918986 
L 610.143095 222.363199 
L 612.177052 222.363199 
L 614.332403 221.807412 
L 624.984853 221.807412 
L 626.243986 221.251626 
L 626.710153 220.695839 
L 626.990464 219.584266 
L 628.489475 219.584266 
L 634.597116 218.472692 
L 636.12967 218.472692 
L 636.298505 217.361119 
L 636.505842 217.361119 
L 636.611024 216.805332 
L 645.194257 216.805332 
L 645.204318 216.249546 
L 659.547247 216.249546 
L 661.453637 215.693759 
L 661.567711 214.582186 
L 661.640042 214.582186 
L 661.720645 213.470612 
L 661.833384 213.470612 
L 661.848689 212.914826 
L 663.137623 212.914826 
L 663.265715 212.359039 
L 663.338284 211.803252 
L 663.619548 211.247466 
L 663.826837 211.247466 
L 664.245753 210.691679 
L 673.525854 210.691679 
L 673.552078 210.135892 
L 677.73142 210.135892 
L 677.863184 209.580106 
L 678.49225 209.024319 
L 680.677043 209.024319 
L 682.113045 208.468532 
L 688.550822 208.468532 
L 688.558641 207.356959 
L 690.38264 207.356959 
L 690.436923 206.801172 
L 691.06525 206.245386 
L 691.1151 205.689599 
L 691.944374 205.689599 
L 691.972482 205.133812 
L 694.254518 205.133812 
L 694.355218 204.022239 
L 696.260439 204.022239 
L 696.29093 202.354879 
L 696.396589 201.799092 
L 696.66014 201.799092 
L 696.710014 201.243306 
L 698.168664 201.243306 
L 698.178462 200.687519 
L 698.570702 200.687519 
L 700.248608 194.573866 
L 701.393667 194.573866 
L 701.409163 194.018079 
L 707.197872 194.018079 
L 707.426617 192.350719 
L 711.989235 192.350719 
L 712.740171 191.239146 
L 712.913655 185.681279 
L 713.032617 185.125492 
L 720.711957 185.125492 
L 721.261802 182.902346 
L 721.263853 179.567626 
L 742.22436 179.567626 
L 742.468434 179.011839 
L 754.238766 179.011839 
L 754.26847 172.342399 
L 778.797706 172.342399 
L 778.89011 171.230826 
L 779.073178 171.230826 
L 779.4113 159.559306 
L 779.637637 153.445652 
L 780.815977 153.445652 
L 780.991463 147.887786 
L 781.07116 147.887786 
L 781.187261 143.441492 
L 781.601886 137.883626 
L 781.723852 132.325759 
L 782.609531 132.325759 
L 782.721889 131.769972 
L 782.835511 131.214186 
L 782.93819 125.656319 
L 786.652771 125.656319 
L 786.811784 122.321599 
L 786.918754 122.321599 
L 787.087851 119.542666 
L 789.318679 119.542666 
L 789.361543 118.986879 
L 791.212385 118.986879 
L 791.246667 118.431092 
L 791.83654 118.431092 
L 792.029644 117.875306 
L 793.072692 117.875306 
L 793.535712 117.319519 
L 802.349312 117.319519 
L 802.393988 116.763732 
L 809.960947 116.763732 
L 809.960947 116.763732 
" clip-path="url(#p417a851c90)" style="fill: none; stroke: #0969da; stroke-width: 2; stroke-linecap: square"/>
   </g>
   <g id="line2d_33">
    <path d="M 85.142188 455.237812 
L 87.121671 455.237812 
L 87.129252 454.126239 
L 88.763436 454.126239 
L 89.186286 453.570452 
L 189.875566 453.570452 
L 190.979096 453.014666 
L 218.90732 453.014666 
L 219.682382 452.458879 
L 246.027225 452.458879 
L 248.349622 451.903092 
L 254.423171 451.903092 
L 259.726498 450.235732 
L 260.802564 449.124159 
L 262.736775 449.124159 
L 263.963963 448.568372 
L 265.694222 448.012586 
L 266.075996 448.012586 
L 268.415963 447.456799 
L 268.835452 446.901012 
L 270.714043 446.345226 
L 274.386261 445.789439 
L 274.407503 446.345226 
L 280.468584 446.345226 
L 280.894128 445.789439 
L 289.543994 445.789439 
L 290.181118 445.233652 
L 293.086785 445.233652 
L 293.290784 444.677866 
L 296.89973 444.677866 
L 297.212773 444.122079 
L 310.433602 444.122079 
L 311.671994 443.566292 
L 312.192469 443.566292 
L 312.272667 443.010506 
L 315.801201 443.010506 
L 315.804563 442.454719 
L 324.114971 442.454719 
L 324.128107 441.898932 
L 326.549464 441.898932 
L 327.166777 441.343146 
L 328.076225 440.787359 
L 328.077823 440.231572 
L 328.220958 440.231572 
L 329.359652 438.564212 
L 330.126727 438.564212 
L 330.170879 436.896852 
L 330.467282 436.896852 
L 331.540725 437.452639 
L 332.312712 437.452639 
L 332.324155 435.229492 
L 335.198568 435.229492 
L 335.625757 434.673706 
L 336.07917 434.673706 
L 336.199776 434.117919 
L 346.509836 434.117919 
L 346.648204 433.562132 
L 347.167606 433.562132 
L 347.973994 433.006346 
L 351.53166 433.006346 
L 351.709125 432.450559 
L 352.933166 432.450559 
L 353.003327 431.894772 
L 357.057128 431.894772 
L 357.138733 431.338986 
L 357.429962 431.338986 
L 357.72534 430.783199 
L 358.020431 430.783199 
L 358.03793 430.227412 
L 359.292724 430.227412 
L 359.367653 429.671626 
L 365.192933 429.671626 
L 365.302978 429.115839 
L 365.455292 428.560052 
L 365.709236 428.560052 
L 366.435545 428.004266 
L 369.275103 428.004266 
L 369.277607 427.448479 
L 369.820181 427.448479 
L 369.840826 426.892692 
L 371.380962 426.892692 
L 371.758301 426.336906 
L 373.756928 426.336906 
L 374.352212 425.781119 
L 375.509906 425.781119 
L 375.616066 424.669546 
L 375.734217 424.113759 
L 377.596574 424.113759 
L 377.883941 423.557972 
L 378.330631 423.557972 
L 378.498655 423.002186 
L 379.588954 423.002186 
L 379.741196 422.446399 
L 379.743151 421.890612 
L 380.05002 421.890612 
L 380.178875 421.334826 
L 391.923697 421.334826 
L 391.948634 420.223252 
L 393.565105 420.223252 
L 394.030343 419.667466 
L 394.417695 419.667466 
L 396.234803 419.111679 
L 396.572068 419.111679 
L 397.294706 418.555892 
L 397.778443 418.555892 
L 398.170897 418.000106 
L 398.567905 418.555892 
L 399.845943 418.555892 
L 400.193483 418.000106 
L 400.273037 416.888532 
L 400.919888 416.332746 
L 400.92425 415.221172 
L 403.747955 415.221172 
L 404.365482 414.665386 
L 404.428062 412.998026 
L 405.04528 412.442239 
L 405.386621 411.886452 
L 408.30602 411.886452 
L 408.429892 410.219092 
L 408.578797 410.219092 
L 408.6892 409.663306 
L 409.402683 409.107519 
L 410.525762 409.107519 
L 410.757129 408.551732 
L 410.809768 407.995946 
L 410.927823 407.995946 
L 411.606238 406.884372 
L 412.333096 406.884372 
L 412.571758 406.328586 
L 413.410211 406.328586 
L 413.412976 405.217012 
L 413.987353 405.217012 
L 414.749876 404.661226 
L 416.770053 403.549652 
L 417.04109 402.993866 
L 421.060442 402.993866 
L 421.563347 401.882292 
L 429.241996 401.882292 
L 429.335711 400.770719 
L 433.073227 400.770719 
L 433.64429 400.214932 
L 435.377243 400.214932 
L 435.47451 399.659146 
L 446.135829 399.659146 
L 446.305999 399.103359 
L 447.362015 399.103359 
L 447.689958 398.547572 
L 449.660811 398.547572 
L 450.031475 397.991786 
L 450.033907 397.435999 
L 450.45783 396.880212 
L 451.750816 396.880212 
L 451.849561 396.324426 
L 451.856642 395.212852 
L 451.863675 395.768639 
L 452.732547 395.212852 
L 455.86827 395.212852 
L 456.486798 394.101279 
L 462.144626 394.101279 
L 462.582066 393.545492 
L 463.954606 393.545492 
L 464.079599 392.433919 
L 468.738984 392.433919 
L 471.632492 391.322346 
L 472.319275 391.322346 
L 472.724388 390.766559 
L 478.717954 390.766559 
L 479.454658 390.210772 
L 480.367515 390.210772 
L 481.251621 389.654986 
L 488.637229 389.654986 
L 488.839917 389.099199 
L 488.841013 388.543412 
L 492.975918 388.543412 
L 493.176412 387.987626 
L 511.545751 387.987626 
L 513.903574 387.431839 
L 519.315897 387.431839 
L 520.499839 386.876052 
L 521.541552 386.876052 
L 521.835189 386.320266 
L 524.164476 386.320266 
L 524.574238 385.764479 
L 525.114667 385.764479 
L 525.816135 385.208692 
L 527.497546 385.208692 
L 527.806489 384.652906 
L 528.013444 384.652906 
L 528.766883 384.097119 
L 536.045973 384.097119 
L 536.066333 382.429759 
L 542.417737 382.429759 
L 545.111061 381.873972 
L 545.113254 381.318186 
L 548.271482 381.318186 
L 548.404056 380.762399 
L 548.50571 380.206612 
L 549.883304 380.206612 
L 550.526722 379.650826 
L 550.987001 379.650826 
L 551.697385 379.095039 
L 552.459717 379.095039 
L 552.591457 377.983466 
L 553.227484 377.983466 
L 553.354241 377.427679 
L 554.785428 377.427679 
L 554.838186 376.871892 
L 557.094022 376.871892 
L 558.728277 376.316106 
L 559.26432 376.316106 
L 559.79054 375.760319 
L 560.877572 375.204532 
L 560.882221 374.648746 
L 561.181985 372.981386 
L 561.455907 372.425599 
L 561.859971 371.869812 
L 562.942831 371.869812 
L 563.599528 370.202452 
L 565.169678 370.202452 
L 565.594817 368.535092 
L 567.322549 368.535092 
L 567.505497 367.979306 
L 568.757741 367.979306 
L 569.029874 366.867732 
L 569.501406 366.311946 
L 571.123193 366.311946 
L 573.933762 365.200372 
L 575.735756 364.644586 
L 575.858174 364.088799 
L 577.562615 364.088799 
L 577.671659 363.533012 
L 579.542908 363.533012 
L 579.654813 362.977226 
L 579.902296 362.977226 
L 579.97918 362.421439 
L 585.295666 362.421439 
L 585.418538 361.865652 
L 587.093655 361.309866 
L 589.848605 361.309866 
L 589.856496 360.754079 
L 599.963607 360.754079 
L 600.712302 358.530932 
L 604.860032 358.530932 
L 604.866159 357.419359 
L 610.143095 357.419359 
L 611.10852 355.751999 
L 611.11057 355.196212 
L 614.840719 355.196212 
L 616.095776 354.084639 
L 616.151943 353.528852 
L 639.602371 353.528852 
L 640.5374 352.973066 
L 643.002122 352.973066 
L 643.259165 351.861492 
L 668.155465 351.861492 
L 668.617413 349.638346 
L 688.558641 349.638346 
L 689.897353 349.082559 
L 698.569438 349.082559 
L 698.570702 344.636266 
L 713.032617 344.636266 
L 713.179948 344.080479 
L 727.489835 344.080479 
L 738.040321 343.524692 
L 739.446095 342.968906 
L 742.769128 342.968906 
L 743.863908 342.413119 
L 744.282658 341.857332 
L 754.848211 341.857332 
L 755.008345 341.301546 
L 762.797253 341.301546 
L 762.992908 340.745759 
L 771.858574 340.745759 
L 771.862651 340.189972 
L 777.220333 340.189972 
L 777.740856 339.634186 
L 777.753801 338.522612 
L 809.960947 338.522612 
L 809.960947 338.522612 
" clip-path="url(#p417a851c90)" style="fill: none; stroke: #bf8700; stroke-width: 2; stroke-linecap: square"/>
   </g>
   <g id="line2d_34">
    <path d="M 85.142188 454.682026 
L 85.3115 454.682026 
L 85.386476 432.450559 
L 85.778311 426.892692 
L 86.002216 425.781119 
L 86.115813 426.336906 
L 86.323126 425.781119 
L 86.673741 425.225332 
L 87.129252 423.002186 
L 87.325765 421.334826 
L 87.584095 421.334826 
L 87.935592 420.779039 
L 87.938191 420.223252 
L 88.221195 419.667466 
L 88.299224 419.111679 
L 88.341444 419.111679 
L 89.06494 418.000106 
L 89.136675 411.886452 
L 89.186286 412.442239 
L 89.512513 402.993866 
L 91.216453 402.993866 
L 91.373987 399.659146 
L 91.415445 402.438079 
L 91.607524 397.991786 
L 91.702645 397.435999 
L 92.411337 396.880212 
L 92.533946 395.768639 
L 92.730316 395.768639 
L 93.095283 395.212852 
L 93.369777 394.101279 
L 93.432261 392.989706 
L 93.614399 392.433919 
L 93.618904 391.878132 
L 93.802091 392.433919 
L 93.868319 390.766559 
L 95.566537 390.766559 
L 98.181117 402.993866 
L 98.570138 390.210772 
L 98.854192 389.654986 
L 99.869633 389.654986 
L 100.05537 389.099199 
L 100.452854 388.543412 
L 101.30275 402.993866 
L 101.357892 387.987626 
L 102.010059 387.431839 
L 103.404723 386.876052 
L 103.504183 387.431839 
L 103.707348 385.764479 
L 104.155039 385.764479 
L 104.29107 385.208692 
L 104.547994 384.652906 
L 104.569307 383.541332 
L 104.8063 382.429759 
L 104.820032 382.985546 
L 104.960998 382.985546 
L 105.307489 378.539252 
L 105.612736 376.871892 
L 105.761927 377.983466 
L 106.816799 374.648746 
L 107.094559 375.760319 
L 108.237639 373.537172 
L 109.143201 377.427679 
L 109.461012 373.537172 
L 110.766228 371.869812 
L 112.690831 371.869812 
L 112.945013 371.314026 
L 113.147296 369.646666 
L 113.715713 371.314026 
L 116.034296 371.869812 
L 116.609459 369.646666 
L 116.888244 367.979306 
L 117.364806 369.646666 
L 118.44235 367.979306 
L 122.102171 367.979306 
L 125.950495 367.423519 
L 126.207133 366.867732 
L 128.636691 366.311946 
L 130.243221 366.311946 
L 130.54227 365.756159 
L 130.607329 366.311946 
L 132.316418 364.644586 
L 133.919491 364.644586 
L 133.956706 364.088799 
L 134.829393 363.533012 
L 136.934631 363.533012 
L 137.863294 359.642506 
L 138.554488 359.086719 
L 139.443886 358.530932 
L 139.461147 357.975146 
L 142.794574 357.975146 
L 142.858966 354.084639 
L 142.982338 354.084639 
L 143.091311 352.973066 
L 144.318594 352.973066 
L 144.689616 352.417279 
L 146.493302 352.417279 
L 148.998743 351.861492 
L 149.124046 363.533012 
L 149.130197 352.417279 
L 149.290664 351.861492 
L 150.183591 351.861492 
L 151.538609 351.305706 
L 152.904116 351.305706 
L 153.988812 350.749919 
L 156.978801 349.638346 
L 158.701789 349.638346 
L 160.086511 349.082559 
L 160.301977 346.303626 
L 160.447807 346.303626 
L 160.705851 345.747839 
L 162.051833 345.192052 
L 162.362969 342.968906 
L 164.223228 341.857332 
L 164.245638 342.413119 
L 164.420909 341.857332 
L 166.806578 340.745759 
L 168.596437 340.189972 
L 169.451602 340.189972 
L 170.209571 339.634186 
L 170.866434 338.522612 
L 171.563134 337.966826 
L 171.815147 337.411039 
L 173.458843 337.966826 
L 174.978095 336.855252 
L 175.154415 337.411039 
L 175.558193 337.411039 
L 175.639226 336.855252 
L 176.72149 336.299466 
L 177.404792 336.855252 
L 178.657608 335.743679 
L 179.475272 335.743679 
L 181.219597 335.187892 
L 181.508848 335.743679 
L 181.813857 334.076319 
L 182.872233 334.076319 
L 184.250495 330.185812 
L 184.919159 330.741599 
L 185.213726 329.630026 
L 185.243193 329.074239 
L 187.611267 329.074239 
L 188.810634 328.518452 
L 189.118146 327.962666 
L 190.979096 327.962666 
L 192.288532 327.406879 
L 194.512589 327.406879 
L 195.064676 326.851092 
L 201.180446 326.851092 
L 201.53168 326.295306 
L 201.566868 325.739519 
L 201.804696 325.183732 
L 204.458994 325.183732 
L 204.62442 324.627946 
L 205.299735 324.072159 
L 205.416694 323.516372 
L 206.535553 322.960586 
L 207.349331 322.404799 
L 210.609761 322.404799 
L 211.373904 321.293226 
L 214.725808 321.293226 
L 215.472286 320.737439 
L 218.596136 320.737439 
L 218.90732 320.181652 
L 219.682382 319.625866 
L 219.913106 319.070079 
L 219.991444 318.514292 
L 222.313245 317.958506 
L 222.601042 318.514292 
L 225.657544 317.402719 
L 228.074181 316.291146 
L 228.40148 315.735359 
L 232.985673 315.735359 
L 233.579289 315.179572 
L 237.852156 315.179572 
L 241.87711 314.623786 
L 242.383376 314.067999 
L 244.07256 313.512212 
L 245.766511 312.956426 
L 246.027225 312.400639 
L 249.827988 312.400639 
L 250.986135 311.844852 
L 259.726498 311.844852 
L 260.802564 311.289066 
L 268.022341 311.289066 
L 268.415963 310.733279 
L 268.835452 311.289066 
L 270.714043 310.733279 
L 277.036268 310.733279 
L 277.883494 310.177492 
L 291.257899 310.177492 
L 291.277639 309.621706 
L 299.537674 309.621706 
L 301.352446 309.065919 
L 301.357095 308.510132 
L 310.429573 308.510132 
L 310.433602 307.398559 
L 315.804563 307.398559 
L 318.26609 306.842772 
L 321.31544 306.842772 
L 324.128107 305.731199 
L 329.793659 305.731199 
L 330.126727 305.175412 
L 330.170879 304.619626 
L 332.312712 304.619626 
L 332.324155 304.063839 
L 332.546559 304.063839 
L 332.901083 303.508052 
L 336.07917 303.508052 
L 336.199776 302.952266 
L 340.443129 302.952266 
L 340.616946 302.396479 
L 350.979907 302.396479 
L 351.530874 300.729119 
L 351.53166 300.173332 
L 352.999823 300.173332 
L 353.003327 299.617546 
L 357.333887 299.617546 
L 357.429962 299.061759 
L 359.503064 299.061759 
L 359.57754 298.505972 
L 367.279004 298.505972 
L 367.528084 297.950186 
L 369.214717 297.950186 
L 369.277607 297.394399 
L 369.840826 296.838612 
L 383.98164 296.838612 
L 384.718153 295.727039 
L 385.82061 295.727039 
L 386.045278 295.171252 
L 387.147807 295.171252 
L 387.311206 294.615466 
L 389.916131 294.615466 
L 389.947266 294.059679 
L 404.364267 294.059679 
L 404.428062 292.948106 
L 422.448741 292.948106 
L 422.916768 292.392319 
L 453.68505 292.392319 
L 455.130636 291.836532 
L 468.133543 291.836532 
L 468.20349 291.280746 
L 474.02486 291.280746 
L 474.307817 290.724959 
L 589.523762 290.724959 
L 589.975482 290.169172 
L 604.48522 290.169172 
L 604.866159 289.613386 
L 610.143095 289.613386 
L 611.099198 289.057599 
L 611.11057 285.167092 
L 616.092986 285.167092 
L 616.151943 282.388159 
L 678.49225 282.388159 
L 678.895074 281.832372 
L 708.639262 281.832372 
L 711.989235 281.276586 
L 724.030914 281.276586 
L 724.035705 280.720799 
L 743.863908 280.720799 
L 744.282658 279.053439 
L 771.858574 279.053439 
L 771.862651 277.941866 
L 777.220333 277.941866 
L 777.753801 277.386079 
L 786.416922 277.386079 
L 786.696017 276.830292 
L 809.960947 276.830292 
L 809.960947 276.830292 
" clip-path="url(#p417a851c90)" style="fill: none; stroke: #cf222e; stroke-width: 2; stroke-linecap: square"/>
   </g>
   <g id="line2d_35">
    <path d="M 85.142188 454.682026 
L 85.155658 454.126239 
L 85.261855 -1 
M 85.357305 -1 
L 85.462383 101.201706 
L 87.121671 101.201706 
L 87.129252 97.866986 
L 89.136675 97.866986 
L 89.280144 98.422772 
L 89.512513 98.422772 
L 89.738373 98.978559 
L 91.1379 99.534346 
L 91.16553 98.978559 
L 91.232616 99.534346 
L 95.566537 99.534346 
L 98.181117 98.422772 
L 98.570138 99.534346 
L 98.854192 98.978559 
L 99.570107 99.534346 
L 99.869633 96.755412 
L 100.452854 96.755412 
L 101.30275 98.422772 
L 101.357892 95.643839 
L 102.010059 96.199626 
L 103.707348 96.199626 
L 104.155039 95.088052 
L 104.820032 95.088052 
L 105.038287 91.197546 
L 109.143201 91.197546 
L 109.461012 86.751252 
L 110.766228 86.751252 
L 112.690831 82.860746 
L 113.700431 82.860746 
L 113.715713 83.416532 
L 116.034296 83.416532 
L 116.609459 80.081812 
L 118.429715 80.081812 
L 118.44235 80.637599 
L 128.636691 80.637599 
L 130.54227 81.193386 
L 130.607329 80.637599 
L 132.583665 81.193386 
L 139.461147 81.193386 
L 142.794574 81.749172 
L 142.858966 74.523946 
L 143.091311 75.079732 
L 144.89781 75.079732 
L 145.698167 75.635519 
L 148.998743 75.635519 
L 149.124046 80.637599 
L 149.130197 71.745012 
L 149.290664 71.745012 
L 150.183591 73.968159 
L 153.988812 73.968159 
L 156.978801 70.077652 
L 160.301977 70.077652 
L 160.447807 68.410292 
L 169.083059 68.410292 
L 169.451602 68.966079 
L 171.548353 68.966079 
L 171.563134 70.077652 
L 175.558193 70.077652 
L 175.639226 73.412372 
L 181.813857 73.412372 
L 181.961331 68.410292 
L 182.870064 67.298719 
L 182.872233 67.854506 
L 183.081644 67.854506 
L 183.82774 65.075572 
L 184.919159 65.075572 
L 185.213726 65.631359 
L 185.243193 65.075572 
L 185.917721 65.631359 
L 185.920797 66.187146 
L 185.936555 65.631359 
L 186.326196 63.408212 
L 189.875566 63.408212 
L 190.979096 63.963999 
L 192.288532 63.963999 
L 194.512589 64.519786 
L 196.618066 64.519786 
L 198.244765 65.631359 
L 201.566868 65.075572 
L 201.804696 65.075572 
L 203.875534 66.187146 
L 204.458994 65.631359 
L 207.349331 65.631359 
L 210.607997 67.854506 
L 210.609761 67.298719 
L 215.472286 67.298719 
L 216.980333 67.854506 
L 243.85552 67.854506 
L 244.07256 68.410292 
L 245.754424 68.410292 
L 245.766511 66.742932 
L 253.873326 66.742932 
L 254.037083 67.298719 
L 270.714043 67.298719 
L 274.386261 67.854506 
L 274.407503 67.298719 
L 277.036268 68.966079 
L 277.883494 68.966079 
L 278.686306 68.410292 
L 280.894128 68.410292 
L 283.000654 68.966079 
L 283.004111 69.521866 
L 288.976912 67.854506 
L 289.543994 68.410292 
L 296.89973 68.410292 
L 297.212773 67.854506 
L 297.786221 68.410292 
L 297.983282 70.633439 
L 301.354186 70.633439 
L 301.357095 71.189226 
L 311.671994 71.189226 
L 312.272667 71.745012 
L 314.25501 71.745012 
L 314.4484 72.300799 
L 324.114971 72.300799 
L 324.128107 72.856586 
L 325.828495 72.856586 
L 326.545864 73.412372 
L 326.549464 73.968159 
L 327.136143 73.412372 
L 327.166777 73.968159 
L 328.077823 73.968159 
L 328.220958 74.523946 
L 330.126727 74.523946 
L 330.170879 73.412372 
L 330.467282 74.523946 
L 331.540725 72.856586 
L 334.136496 72.856586 
L 334.4231 71.189226 
L 335.198568 71.189226 
L 335.625757 72.300799 
L 337.827047 72.300799 
L 338.549351 72.856586 
L 338.72479 72.856586 
L 339.403681 70.077652 
L 340.616946 70.077652 
L 340.894063 70.633439 
L 346.509836 70.633439 
L 346.648204 71.189226 
L 347.167606 71.189226 
L 347.973994 71.745012 
L 357.057128 71.745012 
L 357.138733 72.300799 
L 357.429962 72.300799 
L 358.03793 73.412372 
L 358.890305 73.412372 
L 359.095257 72.856586 
L 359.292724 72.856586 
L 359.367653 73.412372 
L 361.647138 73.412372 
L 362.035206 73.968159 
L 364.019314 73.968159 
L 364.146524 74.523946 
L 365.233342 74.523946 
L 365.362769 75.079732 
L 368.680558 75.079732 
L 368.753174 75.635519 
L 370.723026 75.635519 
L 371.380962 77.858666 
L 372.110418 77.858666 
L 372.111181 78.414452 
L 375.073062 78.414452 
L 375.616066 78.970239 
L 377.883941 78.970239 
L 378.330631 79.526026 
L 380.05002 79.526026 
L 380.178875 80.081812 
L 382.975044 80.081812 
L 383.695799 80.637599 
L 383.748295 81.193386 
L 383.98164 81.193386 
L 384.718153 60.629279 
L 387.002287 60.629279 
L 387.018737 61.185066 
L 387.147807 61.185066 
L 387.311206 60.629279 
L 389.192563 60.629279 
L 389.399709 61.185066 
L 389.646835 61.185066 
L 389.895414 61.740852 
L 389.947266 61.185066 
L 390.960418 61.185066 
L 390.968333 61.740852 
L 391.187947 61.740852 
L 391.284118 62.296639 
L 391.948634 62.852426 
L 396.572068 62.852426 
L 397.294706 63.408212 
L 397.778443 63.408212 
L 398.170897 63.963999 
L 398.567905 63.408212 
L 400.202542 63.408212 
L 400.273037 64.519786 
L 402.619679 64.519786 
L 403.530177 66.187146 
L 413.412976 66.187146 
L 413.987353 66.742932 
L 429.241996 66.742932 
L 429.335711 67.298719 
L 451.750816 67.298719 
L 451.856642 68.410292 
L 451.863675 67.854506 
L 455.130636 67.854506 
L 455.86827 68.410292 
L 468.738984 68.410292 
L 471.632492 68.966079 
L 472.313577 69.521866 
L 472.319275 67.854506 
L 492.975918 67.854506 
L 493.176412 68.410292 
L 511.545751 68.410292 
L 513.903574 68.966079 
L 515.345822 68.966079 
L 515.502332 69.521866 
L 516.504756 70.077652 
L 519.315897 70.077652 
L 520.499839 70.633439 
L 521.738709 70.633439 
L 521.835189 71.189226 
L 523.872889 71.189226 
L 524.116295 71.745012 
L 524.164476 72.300799 
L 527.792423 72.300799 
L 527.806489 72.856586 
L 530.393796 72.856586 
L 530.895509 72.300799 
L 530.902327 72.856586 
L 531.948951 73.412372 
L 533.806992 73.412372 
L 535.144083 73.968159 
L 536.340684 73.968159 
L 538.104319 61.740852 
L 540.163332 61.740852 
L 540.172868 64.519786 
L 550.525649 64.519786 
L 550.526722 65.075572 
L 550.705784 65.631359 
L 551.697385 65.631359 
L 551.913066 66.187146 
L 555.16558 66.187146 
L 555.91747 66.742932 
L 556.150029 66.187146 
L 561.85866 66.187146 
L 561.859971 66.742932 
L 571.060279 66.742932 
L 571.123193 67.854506 
L 572.455038 69.521866 
L 573.791413 69.521866 
L 573.933762 70.077652 
L 579.551514 70.077652 
L 579.654813 70.633439 
L 585.295666 70.633439 
L 585.418538 71.189226 
L 586.973192 72.856586 
L 587.093655 73.412372 
L 602.408637 73.412372 
L 603.858609 76.191306 
L 607.318413 76.191306 
L 607.543772 76.747092 
L 610.143095 76.747092 
L 611.11057 77.858666 
L 624.811154 77.858666 
L 624.984853 78.414452 
L 626.990464 78.414452 
L 627.20531 78.970239 
L 640.417365 78.970239 
L 640.424136 80.637599 
L 640.834494 80.637599 
L 640.997989 81.193386 
L 643.259165 81.193386 
L 643.590731 81.749172 
L 643.59271 81.193386 
L 649.56072 81.193386 
L 651.000441 81.749172 
L 677.860538 81.749172 
L 677.863184 82.304959 
L 688.558641 82.304959 
L 689.897353 82.860746 
L 713.032617 82.860746 
L 713.179948 83.972319 
L 719.321346 83.972319 
L 720.711957 85.083892 
L 727.489835 85.083892 
L 738.040321 85.639679 
L 739.446095 86.195466 
L 741.502867 87.307039 
L 742.769128 87.307039 
L 743.863908 87.862826 
L 744.282658 87.862826 
L 747.51169 88.418612 
L 754.848211 88.418612 
L 755.008345 88.974399 
L 760.682503 88.974399 
L 760.788781 89.530186 
L 809.960947 89.530186 
L 809.960947 89.530186 
" clip-path="url(#p417a851c90)" style="fill: none; stroke: #9467bd; stroke-width: 2; stroke-linecap: square"/>
   </g>
   <g id="patch_3">
    <path d="M 48.90125 455.237812 
L 48.90125 38.397812 
" style="fill: none; stroke: #d0d7de; stroke-width: 0.8; stroke-linejoin: miter; stroke-linecap: square"/>
   </g>
   <g id="patch_4">
    <path d="M 846.201884 455.237812 
L 846.201884 38.397812 
" style="fill: none; stroke: #d0d7de; stroke-width: 0.8; stroke-linejoin: miter; stroke-linecap: square"/>
   </g>
   <g id="patch_5">
    <path d="M 48.90125 455.237812 
L 846.201884 455.237812 
" style="fill: none; stroke: #d0d7de; stroke-width: 0.8; stroke-linejoin: miter; stroke-linecap: square"/>
   </g>
   <g id="patch_6">
    <path d="M 48.90125 38.397812 
L 846.201884 38.397812 
" style="fill: none; stroke: #d0d7de; stroke-width: 0.8; stroke-linejoin: miter; stroke-linecap: square"/>
   </g>
   <g id="text_18">
    <!-- 559 -->
    <g style="fill: #1a7f37" transform="translate(814.960947 147.036503) scale(0.09 -0.09)">
     <defs>
      <path id="DejaVuSans-Bold-35" d="M 678 4666 
L 3669 4666 
L 3669 3781 
L 1638 3781 
L 1638 3059 
Q 1775 3097 1914 3117 
Q 2053 3138 2203 3138 
Q 3056 3138 3531 2711 
Q 4006 2284 4006 1522 
Q 4006 766 3489 337 
Q 2972 -91 2053 -91 
Q 1656 -91 1267 -14 
Q 878 63 494 219 
L 494 1166 
Q 875 947 1217 837 
Q 1559 728 1863 728 
Q 2300 728 2551 942 
Q 2803 1156 2803 1522 
Q 2803 1891 2551 2103 
Q 2300 2316 1863 2316 
Q 1603 2316 1309 2248 
Q 1016 2181 678 2041 
L 678 4666 
z
" transform="scale(0.015625)"/>
      <path id="DejaVuSans-Bold-39" d="M 641 103 
L 641 966 
Q 928 831 1190 764 
Q 1453 697 1709 697 
Q 2247 697 2547 995 
Q 2847 1294 2900 1881 
Q 2688 1725 2447 1647 
Q 2206 1569 1925 1569 
Q 1209 1569 770 1986 
Q 331 2403 331 3084 
Q 331 3838 820 4291 
Q 1309 4744 2131 4744 
Q 3044 4744 3544 4128 
Q 4044 3513 4044 2388 
Q 4044 1231 3459 570 
Q 2875 -91 1856 -91 
Q 1528 -91 1228 -42 
Q 928 6 641 103 
z
M 2125 2350 
Q 2441 2350 2600 2554 
Q 2759 2759 2759 3169 
Q 2759 3575 2600 3781 
Q 2441 3988 2125 3988 
Q 1809 3988 1650 3781 
Q 1491 3575 1491 3169 
Q 1491 2759 1650 2554 
Q 1809 2350 2125 2350 
z
" transform="scale(0.015625)"/>
     </defs>
     <use xlink:href="#DejaVuSans-Bold-35"/>
     <use xlink:href="#DejaVuSans-Bold-35" transform="translate(69.580078 0)"/>
     <use xlink:href="#DejaVuSans-Bold-39" transform="translate(139.160156 0)"/>
    </g>
   </g>
   <g id="text_19">
    <!-- 609 -->
    <g style="fill: #0969da" transform="translate(814.960947 119.24717) scale(0.09 -0.09)">
     <defs>
      <path id="DejaVuSans-Bold-36" d="M 2316 2303 
Q 2000 2303 1842 2098 
Q 1684 1894 1684 1484 
Q 1684 1075 1842 870 
Q 2000 666 2316 666 
Q 2634 666 2792 870 
Q 2950 1075 2950 1484 
Q 2950 1894 2792 2098 
Q 2634 2303 2316 2303 
z
M 3803 4544 
L 3803 3681 
Q 3506 3822 3243 3889 
Q 2981 3956 2731 3956 
Q 2194 3956 1894 3657 
Q 1594 3359 1544 2772 
Q 1750 2925 1990 3001 
Q 2231 3078 2516 3078 
Q 3231 3078 3670 2659 
Q 4109 2241 4109 1563 
Q 4109 813 3618 361 
Q 3128 -91 2303 -91 
Q 1394 -91 895 523 
Q 397 1138 397 2266 
Q 397 3422 980 4083 
Q 1563 4744 2578 4744 
Q 2900 4744 3203 4694 
Q 3506 4644 3803 4544 
z
" transform="scale(0.015625)"/>
      <path id="DejaVuSans-Bold-30" d="M 2944 2338 
Q 2944 3213 2780 3570 
Q 2616 3928 2228 3928 
Q 1841 3928 1675 3570 
Q 1509 3213 1509 2338 
Q 1509 1453 1675 1090 
Q 1841 728 2228 728 
Q 2613 728 2778 1090 
Q 2944 1453 2944 2338 
z
M 4147 2328 
Q 4147 1169 3647 539 
Q 3147 -91 2228 -91 
Q 1306 -91 806 539 
Q 306 1169 306 2328 
Q 306 3491 806 4120 
Q 1306 4750 2228 4750 
Q 3147 4750 3647 4120 
Q 4147 3491 4147 2328 
z
" transform="scale(0.015625)"/>
     </defs>
     <use xlink:href="#DejaVuSans-Bold-36"/>
     <use xlink:href="#DejaVuSans-Bold-30" transform="translate(69.580078 0)"/>
     <use xlink:href="#DejaVuSans-Bold-39" transform="translate(139.160156 0)"/>
    </g>
   </g>
   <g id="text_20">
    <!-- 210 -->
    <g style="fill: #bf8700" transform="translate(814.960947 341.00605) scale(0.09 -0.09)">
     <defs>
      <path id="DejaVuSans-Bold-32" d="M 1844 884 
L 3897 884 
L 3897 0 
L 506 0 
L 506 884 
L 2209 2388 
Q 2438 2594 2547 2791 
Q 2656 2988 2656 3200 
Q 2656 3528 2436 3728 
Q 2216 3928 1850 3928 
Q 1569 3928 1234 3808 
Q 900 3688 519 3450 
L 519 4475 
Q 925 4609 1322 4679 
Q 1719 4750 2100 4750 
Q 2938 4750 3402 4381 
Q 3866 4013 3866 3353 
Q 3866 2972 3669 2642 
Q 3472 2313 2841 1759 
L 1844 884 
z
" transform="scale(0.015625)"/>
      <path id="DejaVuSans-Bold-31" d="M 750 831 
L 1813 831 
L 1813 3847 
L 722 3622 
L 722 4441 
L 1806 4666 
L 2950 4666 
L 2950 831 
L 4013 831 
L 4013 0 
L 750 0 
L 750 831 
z
" transform="scale(0.015625)"/>
     </defs>
     <use xlink:href="#DejaVuSans-Bold-32"/>
     <use xlink:href="#DejaVuSans-Bold-31" transform="translate(69.580078 0)"/>
     <use xlink:href="#DejaVuSans-Bold-30" transform="translate(139.160156 0)"/>
    </g>
   </g>
   <g id="text_21">
    <!-- 321 -->
    <g style="fill: #cf222e" transform="translate(814.960947 279.31373) scale(0.09 -0.09)">
     <defs>
      <path id="DejaVuSans-Bold-33" d="M 2981 2516 
Q 3453 2394 3698 2092 
Q 3944 1791 3944 1325 
Q 3944 631 3412 270 
Q 2881 -91 1863 -91 
Q 1503 -91 1142 -33 
Q 781 25 428 141 
L 428 1069 
Q 766 900 1098 814 
Q 1431 728 1753 728 
Q 2231 728 2486 893 
Q 2741 1059 2741 1369 
Q 2741 1688 2480 1852 
Q 2219 2016 1709 2016 
L 1228 2016 
L 1228 2791 
L 1734 2791 
Q 2188 2791 2409 2933 
Q 2631 3075 2631 3366 
Q 2631 3634 2415 3781 
Q 2200 3928 1806 3928 
Q 1516 3928 1219 3862 
Q 922 3797 628 3669 
L 628 4550 
Q 984 4650 1334 4700 
Q 1684 4750 2022 4750 
Q 2931 4750 3382 4451 
Q 3834 4153 3834 3553 
Q 3834 3144 3618 2883 
Q 3403 2622 2981 2516 
z
" transform="scale(0.015625)"/>
     </defs>
     <use xlink:href="#DejaVuSans-Bold-33"/>
     <use xlink:href="#DejaVuSans-Bold-32" transform="translate(69.580078 0)"/>
     <use xlink:href="#DejaVuSans-Bold-31" transform="translate(139.160156 0)"/>
    </g>
   </g>
   <g id="text_22">
    <!-- 658 -->
    <g style="fill: #9467bd" transform="translate(814.960947 92.013623) scale(0.09 -0.09)">
     <defs>
      <path id="DejaVuSans-Bold-38" d="M 2228 2088 
Q 1891 2088 1709 1903 
Q 1528 1719 1528 1375 
Q 1528 1031 1709 848 
Q 1891 666 2228 666 
Q 2563 666 2741 848 
Q 2919 1031 2919 1375 
Q 2919 1722 2741 1905 
Q 2563 2088 2228 2088 
z
M 1350 2484 
Q 925 2613 709 2878 
Q 494 3144 494 3541 
Q 494 4131 934 4440 
Q 1375 4750 2228 4750 
Q 3075 4750 3515 4442 
Q 3956 4134 3956 3541 
Q 3956 3144 3739 2878 
Q 3522 2613 3097 2484 
Q 3572 2353 3814 2058 
Q 4056 1763 4056 1313 
Q 4056 619 3595 264 
Q 3134 -91 2228 -91 
Q 1319 -91 855 264 
Q 391 619 391 1313 
Q 391 1763 633 2058 
Q 875 2353 1350 2484 
z
M 1631 3419 
Q 1631 3141 1786 2991 
Q 1941 2841 2228 2841 
Q 2509 2841 2662 2991 
Q 2816 3141 2816 3419 
Q 2816 3697 2662 3845 
Q 2509 3994 2228 3994 
Q 1941 3994 1786 3844 
Q 1631 3694 1631 3419 
z
" transform="scale(0.015625)"/>
     </defs>
     <use xlink:href="#DejaVuSans-Bold-36"/>
     <use xlink:href="#DejaVuSans-Bold-35" transform="translate(69.580078 0)"/>
     <use xlink:href="#DejaVuSans-Bold-38" transform="translate(139.160156 0)"/>
    </g>
   </g>
   <g id="text_23">
    <!-- Erdős Problems Progress -->
    <g style="fill: #24292f" transform="translate(348.513598 18.397812) scale(0.14 -0.14)">
     <defs>
      <path id="DejaVuSans-Bold-45" d="M 588 4666 
L 3834 4666 
L 3834 3756 
L 1791 3756 
L 1791 2888 
L 3713 2888 
L 3713 1978 
L 1791 1978 
L 1791 909 
L 3903 909 
L 3903 0 
L 588 0 
L 588 4666 
z
" transform="scale(0.015625)"/>
      <path id="DejaVuSans-Bold-72" d="M 3138 2547 
Q 2991 2616 2845 2648 
Q 2700 2681 2553 2681 
Q 2122 2681 1889 2404 
Q 1656 2128 1656 1613 
L 1656 0 
L 538 0 
L 538 3500 
L 1656 3500 
L 1656 2925 
Q 1872 3269 2151 3426 
Q 2431 3584 2822 3584 
Q 2878 3584 2943 3579 
Q 3009 3575 3134 3559 
L 3138 2547 
z
" transform="scale(0.015625)"/>
      <path id="DejaVuSans-Bold-64" d="M 2919 2988 
L 2919 4863 
L 4044 4863 
L 4044 0 
L 2919 0 
L 2919 506 
Q 2688 197 2409 53 
Q 2131 -91 1766 -91 
Q 1119 -91 703 423 
Q 288 938 288 1747 
Q 288 2556 703 3070 
Q 1119 3584 1766 3584 
Q 2128 3584 2408 3439 
Q 2688 3294 2919 2988 
z
M 2181 722 
Q 2541 722 2730 984 
Q 2919 1247 2919 1747 
Q 2919 2247 2730 2509 
Q 2541 2772 2181 2772 
Q 1825 2772 1636 2509 
Q 1447 2247 1447 1747 
Q 1447 1247 1636 984 
Q 1825 722 2181 722 
z
" transform="scale(0.015625)"/>
      <path id="DejaVuSans-Bold-151" d="M 1881 5119 
L 2560 5119 
L 1785 3944 
L 1275 3944 
L 1881 5119 
z
M 3016 5119 
L 3738 5119 
L 2888 3944 
L 2344 3944 
L 3016 5119 
z
M 2203 2784 
Q 1831 2784 1636 2517 
Q 1441 2250 1441 1747 
Q 1441 1244 1636 976 
Q 1831 709 2203 709 
Q 2569 709 2762 976 
Q 2956 1244 2956 1747 
Q 2956 2250 2762 2517 
Q 2569 2784 2203 2784 
z
M 2203 3584 
Q 3106 3584 3614 3096 
Q 4122 2609 4122 1747 
Q 4122 884 3614 396 
Q 3106 -91 2203 -91 
Q 1297 -91 786 396 
Q 275 884 275 1747 
Q 275 2609 786 3096 
Q 1297 3584 2203 3584 
z
" transform="scale(0.015625)"/>
      <path id="DejaVuSans-Bold-73" d="M 3272 3391 
L 3272 2541 
Q 2913 2691 2578 2766 
Q 2244 2841 1947 2841 
Q 1628 2841 1473 2761 
Q 1319 2681 1319 2516 
Q 1319 2381 1436 2309 
Q 1553 2238 1856 2203 
L 2053 2175 
Q 2913 2066 3209 1816 
Q 3506 1566 3506 1031 
Q 3506 472 3093 190 
Q 2681 -91 1863 -91 
Q 1516 -91 1145 -36 
Q 775 19 384 128 
L 384 978 
Q 719 816 1070 734 
Q 1422 653 1784 653 
Q 2113 653 2278 743 
Q 2444 834 2444 1013 
Q 2444 1163 2330 1236 
Q 2216 1309 1875 1350 
L 1678 1375 
Q 931 1469 631 1722 
Q 331 1975 331 2491 
Q 331 3047 712 3315 
Q 1094 3584 1881 3584 
Q 2191 3584 2531 3537 
Q 2872 3491 3272 3391 
z
" transform="scale(0.015625)"/>
      <path id="DejaVuSans-Bold-20" transform="scale(0.015625)"/>
      <path id="DejaVuSans-Bold-50" d="M 588 4666 
L 2584 4666 
Q 3475 4666 3951 4270 
Q 4428 3875 4428 3144 
Q 4428 2409 3951 2014 
Q 3475 1619 2584 1619 
L 1791 1619 
L 1791 0 
L 588 0 
L 588 4666 
z
M 1791 3794 
L 1791 2491 
L 2456 2491 
Q 2806 2491 2997 2661 
Q 3188 2831 3188 3144 
Q 3188 3456 2997 3625 
Q 2806 3794 2456 3794 
L 1791 3794 
z
" transform="scale(0.015625)"/>
      <path id="DejaVuSans-Bold-6f" d="M 2203 2784 
Q 1831 2784 1636 2517 
Q 1441 2250 1441 1747 
Q 1441 1244 1636 976 
Q 1831 709 2203 709 
Q 2569 709 2762 976 
Q 2956 1244 2956 1747 
Q 2956 2250 2762 2517 
Q 2569 2784 2203 2784 
z
M 2203 3584 
Q 3106 3584 3614 3096 
Q 4122 2609 4122 1747 
Q 4122 884 3614 396 
Q 3106 -91 2203 -91 
Q 1297 -91 786 396 
Q 275 884 275 1747 
Q 275 2609 786 3096 
Q 1297 3584 2203 3584 
z
" transform="scale(0.015625)"/>
      <path id="DejaVuSans-Bold-62" d="M 2400 722 
Q 2759 722 2948 984 
Q 3138 1247 3138 1747 
Q 3138 2247 2948 2509 
Q 2759 2772 2400 2772 
Q 2041 2772 1848 2508 
Q 1656 2244 1656 1747 
Q 1656 1250 1848 986 
Q 2041 722 2400 722 
z
M 1656 2988 
Q 1888 3294 2169 3439 
Q 2450 3584 2816 3584 
Q 3463 3584 3878 3070 
Q 4294 2556 4294 1747 
Q 4294 938 3878 423 
Q 3463 -91 2816 -91 
Q 2450 -91 2169 54 
Q 1888 200 1656 506 
L 1656 0 
L 538 0 
L 538 4863 
L 1656 4863 
L 1656 2988 
z
" transform="scale(0.015625)"/>
      <path id="DejaVuSans-Bold-6c" d="M 538 4863 
L 1656 4863 
L 1656 0 
L 538 0 
L 538 4863 
z
" transform="scale(0.015625)"/>
      <path id="DejaVuSans-Bold-65" d="M 4031 1759 
L 4031 1441 
L 1416 1441 
Q 1456 1047 1700 850 
Q 1944 653 2381 653 
Q 2734 653 3104 758 
Q 3475 863 3866 1075 
L 3866 213 
Q 3469 63 3072 -14 
Q 2675 -91 2278 -91 
Q 1328 -91 801 392 
Q 275 875 275 1747 
Q 275 2603 792 3093 
Q 1309 3584 2216 3584 
Q 3041 3584 3536 3087 
Q 4031 2591 4031 1759 
z
M 2881 2131 
Q 2881 2450 2695 2645 
Q 2509 2841 2209 2841 
Q 1884 2841 1681 2658 
Q 1478 2475 1428 2131 
L 2881 2131 
z
" transform="scale(0.015625)"/>
      <path id="DejaVuSans-Bold-6d" d="M 3781 2919 
Q 3994 3244 4286 3414 
Q 4578 3584 4928 3584 
Q 5531 3584 5847 3212 
Q 6163 2841 6163 2131 
L 6163 0 
L 5038 0 
L 5038 1825 
Q 5041 1866 5042 1909 
Q 5044 1953 5044 2034 
Q 5044 2406 4934 2573 
Q 4825 2741 4581 2741 
Q 4263 2741 4089 2478 
Q 3916 2216 3909 1719 
L 3909 0 
L 2784 0 
L 2784 1825 
Q 2784 2406 2684 2573 
Q 2584 2741 2328 2741 
Q 2006 2741 1831 2477 
Q 1656 2213 1656 1722 
L 1656 0 
L 531 0 
L 531 3500 
L 1656 3500 
L 1656 2988 
Q 1863 3284 2130 3434 
Q 2397 3584 2719 3584 
Q 3081 3584 3359 3409 
Q 3638 3234 3781 2919 
z
" transform="scale(0.015625)"/>
      <path id="DejaVuSans-Bold-67" d="M 2919 594 
Q 2688 288 2409 144 
Q 2131 0 1766 0 
Q 1125 0 706 504 
Q 288 1009 288 1791 
Q 288 2575 706 3076 
Q 1125 3578 1766 3578 
Q 2131 3578 2409 3434 
Q 2688 3291 2919 2981 
L 2919 3500 
L 4044 3500 
L 4044 353 
Q 4044 -491 3511 -936 
Q 2978 -1381 1966 -1381 
Q 1638 -1381 1331 -1331 
Q 1025 -1281 716 -1178 
L 716 -306 
Q 1009 -475 1290 -558 
Q 1572 -641 1856 -641 
Q 2406 -641 2662 -400 
Q 2919 -159 2919 353 
L 2919 594 
z
M 2181 2772 
Q 1834 2772 1640 2515 
Q 1447 2259 1447 1791 
Q 1447 1309 1634 1061 
Q 1822 813 2181 813 
Q 2531 813 2725 1069 
Q 2919 1325 2919 1791 
Q 2919 2259 2725 2515 
Q 2531 2772 2181 2772 
z
" transform="scale(0.015625)"/>
     </defs>
     <use xlink:href="#DejaVuSans-Bold-45"/>
     <use xlink:href="#DejaVuSans-Bold-72" transform="translate(68.310547 0)"/>
     <use xlink:href="#DejaVuSans-Bold-64" transform="translate(117.626953 0)"/>
     <use xlink:href="#DejaVuSans-Bold-151" transform="translate(189.208984 0)"/>
     <use xlink:href="#DejaVuSans-Bold-73" transform="translate(257.910156 0)"/>
     <use xlink:href="#DejaVuSans-Bold-20" transform="translate(317.431641 0)"/>
     <use xlink:href="#DejaVuSans-Bold-50" transform="translate(352.246094 0)"/>
     <use xlink:href="#DejaVuSans-Bold-72" transform="translate(425.537109 0)"/>
     <use xlink:href="#DejaVuSans-Bold-6f" transform="translate(474.853516 0)"/>
     <use xlink:href="#DejaVuSans-Bold-62" transform="translate(543.554688 0)"/>
     <use xlink:href="#DejaVuSans-Bold-6c" transform="translate(615.136719 0)"/>
     <use xlink:href="#DejaVuSans-Bold-65" transform="translate(649.414062 0)"/>
     <use xlink:href="#DejaVuSans-Bold-6d" transform="translate(717.236328 0)"/>
     <use xlink:href="#DejaVuSans-Bold-73" transform="translate(821.435547 0)"/>
     <use xlink:href="#DejaVuSans-Bold-20" transform="translate(880.957031 0)"/>
     <use xlink:href="#DejaVuSans-Bold-50" transform="translate(915.771484 0)"/>
     <use xlink:href="#DejaVuSans-Bold-72" transform="translate(989.0625 0)"/>
     <use xlink:href="#DejaVuSans-Bold-6f" transform="translate(1038.378906 0)"/>
     <use xlink:href="#DejaVuSans-Bold-67" transform="translate(1107.080078 0)"/>
     <use xlink:href="#DejaVuSans-Bold-72" transform="translate(1178.662109 0)"/>
     <use xlink:href="#DejaVuSans-Bold-65" transform="translate(1227.978516 0)"/>
     <use xlink:href="#DejaVuSans-Bold-73" transform="translate(1295.800781 0)"/>
     <use xlink:href="#DejaVuSans-Bold-73" transform="translate(1355.322266 0)"/>
    </g>
   </g>
   <g id="legend_1">
    <g id="patch_7">
     <path d="M 55.90125 119.788437 
L 213.771563 119.788437 
Q 215.771563 119.788437 215.771563 117.788437 
L 215.771563 45.397812 
Q 215.771563 43.397812 213.771563 43.397812 
L 55.90125 43.397812 
Q 53.90125 43.397812 53.90125 45.397812 
L 53.90125 117.788437 
Q 53.90125 119.788437 55.90125 119.788437 
z
" style="fill: #f6f8fa; opacity: 0.8; stroke: #d0d7de; stroke-linejoin: miter"/>
    </g>
    <g id="line2d_36">
     <path d="M 57.90125 51.49625 
L 67.90125 51.49625 
L 77.90125 51.49625 
" style="fill: none; stroke: #1a7f37; stroke-width: 2; stroke-linecap: square"/>
    </g>
    <g id="text_24">
     <!-- Solved -->
     <g style="fill: #24292f" transform="translate(85.90125 54.99625) scale(0.1 -0.1)">
      <defs>
       <path id="DejaVuSans-64" d="M 2906 2969 
L 2906 4863 
L 3481 4863 
L 3481 0 
L 2906 0 
L 2906 525 
Q 2725 213 2448 61 
Q 2172 -91 1784 -91 
Q 1150 -91 751 415 
Q 353 922 353 1747 
Q 353 2572 751 3078 
Q 1150 3584 1784 3584 
Q 2172 3584 2448 3432 
Q 2725 3281 2906 2969 
z
M 947 1747 
Q 947 1113 1208 752 
Q 1469 391 1925 391 
Q 2381 391 2643 752 
Q 2906 1113 2906 1747 
Q 2906 2381 2643 2742 
Q 2381 3103 1925 3103 
Q 1469 3103 1208 2742 
Q 947 2381 947 1747 
z
" transform="scale(0.015625)"/>
      </defs>
      <use xlink:href="#DejaVuSans-53"/>
      <use xlink:href="#DejaVuSans-6f" transform="translate(63.476562 0)"/>
      <use xlink:href="#DejaVuSans-6c" transform="translate(124.658203 0)"/>
      <use xlink:href="#DejaVuSans-76" transform="translate(152.441406 0)"/>
      <use xlink:href="#DejaVuSans-65" transform="translate(211.621094 0)"/>
      <use xlink:href="#DejaVuSans-64" transform="translate(273.144531 0)"/>
     </g>
    </g>
    <g id="line2d_37">
     <path d="M 57.90125 66.174375 
L 67.90125 66.174375 
L 77.90125 66.174375 
" style="fill: none; stroke: #0969da; stroke-width: 2; stroke-linecap: square"/>
    </g>
    <g id="text_25">
     <!-- Lean Formalized Problem -->
     <g style="fill: #24292f" transform="translate(85.90125 69.674375) scale(0.1 -0.1)">
      <defs>
       <path id="DejaVuSans-4c" d="M 628 4666 
L 1259 4666 
L 1259 531 
L 3531 531 
L 3531 0 
L 628 0 
L 628 4666 
z
" transform="scale(0.015625)"/>
       <path id="DejaVuSans-20" transform="scale(0.015625)"/>
       <path id="DejaVuSans-46" d="M 628 4666 
L 3309 4666 
L 3309 4134 
L 1259 4134 
L 1259 2759 
L 3109 2759 
L 3109 2228 
L 1259 2228 
L 1259 0 
L 628 0 
L 628 4666 
z
" transform="scale(0.015625)"/>
       <path id="DejaVuSans-6d" d="M 3328 2828 
Q 3544 3216 3844 3400 
Q 4144 3584 4550 3584 
Q 5097 3584 5394 3201 
Q 5691 2819 5691 2113 
L 5691 0 
L 5113 0 
L 5113 2094 
Q 5113 2597 4934 2840 
Q 4756 3084 4391 3084 
Q 3944 3084 3684 2787 
Q 3425 2491 3425 1978 
L 3425 0 
L 2847 0 
L 2847 2094 
Q 2847 2600 2669 2842 
Q 2491 3084 2119 3084 
Q 1678 3084 1418 2786 
Q 1159 2488 1159 1978 
L 1159 0 
L 581 0 
L 581 3500 
L 1159 3500 
L 1159 2956 
Q 1356 3278 1631 3431 
Q 1906 3584 2284 3584 
Q 2666 3584 2933 3390 
Q 3200 3197 3328 2828 
z
" transform="scale(0.015625)"/>
       <path id="DejaVuSans-69" d="M 603 3500 
L 1178 3500 
L 1178 0 
L 603 0 
L 603 3500 
z
M 603 4863 
L 1178 4863 
L 1178 4134 
L 603 4134 
L 603 4863 
z
" transform="scale(0.015625)"/>
       <path id="DejaVuSans-7a" d="M 353 3500 
L 3084 3500 
L 3084 2975 
L 922 459 
L 3084 459 
L 3084 0 
L 275 0 
L 275 525 
L 2438 3041 
L 353 3041 
L 353 3500 
z
" transform="scale(0.015625)"/>
       <path id="DejaVuSans-50" d="M 1259 4147 
L 1259 2394 
L 2053 2394 
Q 2494 2394 2734 2622 
Q 2975 2850 2975 3272 
Q 2975 3691 2734 3919 
Q 2494 4147 2053 4147 
L 1259 4147 
z
M 628 4666 
L 2053 4666 
Q 2838 4666 3239 4311 
Q 3641 3956 3641 3272 
Q 3641 2581 3239 2228 
Q 2838 1875 2053 1875 
L 1259 1875 
L 1259 0 
L 628 0 
L 628 4666 
z
" transform="scale(0.015625)"/>
       <path id="DejaVuSans-62" d="M 3116 1747 
Q 3116 2381 2855 2742 
Q 2594 3103 2138 3103 
Q 1681 3103 1420 2742 
Q 1159 2381 1159 1747 
Q 1159 1113 1420 752 
Q 1681 391 2138 391 
Q 2594 391 2855 752 
Q 3116 1113 3116 1747 
z
M 1159 2969 
Q 1341 3281 1617 3432 
Q 1894 3584 2278 3584 
Q 2916 3584 3314 3078 
Q 3713 2572 3713 1747 
Q 3713 922 3314 415 
Q 2916 -91 2278 -91 
Q 1894 -91 1617 61 
Q 1341 213 1159 525 
L 1159 0 
L 581 0 
L 581 4863 
L 1159 4863 
L 1159 2969 
z
" transform="scale(0.015625)"/>
      </defs>
      <use xlink:href="#DejaVuSans-4c"/>
      <use xlink:href="#DejaVuSans-65" transform="translate(53.962891 0)"/>
      <use xlink:href="#DejaVuSans-61" transform="translate(115.486328 0)"/>
      <use xlink:href="#DejaVuSans-6e" transform="translate(176.765625 0)"/>
      <use xlink:href="#DejaVuSans-20" transform="translate(240.144531 0)"/>
      <use xlink:href="#DejaVuSans-46" transform="translate(271.931641 0)"/>
      <use xlink:href="#DejaVuSans-6f" transform="translate(325.826172 0)"/>
      <use xlink:href="#DejaVuSans-72" transform="translate(387.007812 0)"/>
      <use xlink:href="#DejaVuSans-6d" transform="translate(426.371094 0)"/>
      <use xlink:href="#DejaVuSans-61" transform="translate(523.783203 0)"/>
      <use xlink:href="#DejaVuSans-6c" transform="translate(585.0625 0)"/>
      <use xlink:href="#DejaVuSans-69" transform="translate(612.845703 0)"/>
      <use xlink:href="#DejaVuSans-7a" transform="translate(640.628906 0)"/>
      <use xlink:href="#DejaVuSans-65" transform="translate(693.119141 0)"/>
      <use xlink:href="#DejaVuSans-64" transform="translate(754.642578 0)"/>
      <use xlink:href="#DejaVuSans-20" transform="translate(818.119141 0)"/>
      <use xlink:href="#DejaVuSans-50" transform="translate(849.90625 0)"/>
      <use xlink:href="#DejaVuSans-72" transform="translate(908.458984 0)"/>
      <use xlink:href="#DejaVuSans-6f" transform="translate(947.322266 0)"/>
      <use xlink:href="#DejaVuSans-62" transform="translate(1008.503906 0)"/>
      <use xlink:href="#DejaVuSans-6c" transform="translate(1071.980469 0)"/>
      <use xlink:href="#DejaVuSans-65" transform="translate(1099.763672 0)"/>
      <use xlink:href="#DejaVuSans-6d" transform="translate(1161.287109 0)"/>
     </g>
    </g>
    <g id="line2d_38">
     <path d="M 57.90125 80.8525 
L 67.90125 80.8525 
L 77.90125 80.8525 
" style="fill: none; stroke: #bf8700; stroke-width: 2; stroke-linecap: square"/>
    </g>
    <g id="text_26">
     <!-- Lean Formalized Solution -->
     <g style="fill: #24292f" transform="translate(85.90125 84.3525) scale(0.1 -0.1)">
      <use xlink:href="#DejaVuSans-4c"/>
      <use xlink:href="#DejaVuSans-65" transform="translate(53.962891 0)"/>
      <use xlink:href="#DejaVuSans-61" transform="translate(115.486328 0)"/>
      <use xlink:href="#DejaVuSans-6e" transform="translate(176.765625 0)"/>
      <use xlink:href="#DejaVuSans-20" transform="translate(240.144531 0)"/>
      <use xlink:href="#DejaVuSans-46" transform="translate(271.931641 0)"/>
      <use xlink:href="#DejaVuSans-6f" transform="translate(325.826172 0)"/>
      <use xlink:href="#DejaVuSans-72" transform="translate(387.007812 0)"/>
      <use xlink:href="#DejaVuSans-6d" transform="translate(426.371094 0)"/>
      <use xlink:href="#DejaVuSans-61" transform="translate(523.783203 0)"/>
      <use xlink:href="#DejaVuSans-6c" transform="translate(585.0625 0)"/>
      <use xlink:href="#DejaVuSans-69" transform="translate(612.845703 0)"/>
      <use xlink:href="#DejaVuSans-7a" transform="translate(640.628906 0)"/>
      <use xlink:href="#DejaVuSans-65" transform="translate(693.119141 0)"/>
      <use xlink:href="#DejaVuSans-64" transform="translate(754.642578 0)"/>
      <use xlink:href="#DejaVuSans-20" transform="translate(818.119141 0)"/>
      <use xlink:href="#DejaVuSans-53" transform="translate(849.90625 0)"/>
      <use xlink:href="#DejaVuSans-6f" transform="translate(913.382812 0)"/>
      <use xlink:href="#DejaVuSans-6c" transform="translate(974.564453 0)"/>
      <use xlink:href="#DejaVuSans-75" transform="translate(1002.347656 0)"/>
      <use xlink:href="#DejaVuSans-74" transform="translate(1065.726562 0)"/>
      <use xlink:href="#DejaVuSans-69" transform="translate(1104.935547 0)"/>
      <use xlink:href="#DejaVuSans-6f" transform="translate(1132.71875 0)"/>
      <use xlink:href="#DejaVuSans-6e" transform="translate(1193.900391 0)"/>
     </g>
    </g>
    <g id="line2d_39">
     <path d="M 57.90125 95.530625 
L 67.90125 95.530625 
L 77.90125 95.530625 
" style="fill: none; stroke: #cf222e; stroke-width: 2; stroke-linecap: square"/>
    </g>
    <g id="text_27">
     <!-- OEIS Linked -->
     <g style="fill: #24292f" transform="translate(85.90125 99.030625) scale(0.1 -0.1)">
      <defs>
       <path id="DejaVuSans-4f" d="M 2522 4238 
Q 1834 4238 1429 3725 
Q 1025 3213 1025 2328 
Q 1025 1447 1429 934 
Q 1834 422 2522 422 
Q 3209 422 3611 934 
Q 4013 1447 4013 2328 
Q 4013 3213 3611 3725 
Q 3209 4238 2522 4238 
z
M 2522 4750 
Q 3503 4750 4090 4092 
Q 4678 3434 4678 2328 
Q 4678 1225 4090 567 
Q 3503 -91 2522 -91 
Q 1538 -91 948 565 
Q 359 1222 359 2328 
Q 359 3434 948 4092 
Q 1538 4750 2522 4750 
z
" transform="scale(0.015625)"/>
       <path id="DejaVuSans-45" d="M 628 4666 
L 3578 4666 
L 3578 4134 
L 1259 4134 
L 1259 2753 
L 3481 2753 
L 3481 2222 
L 1259 2222 
L 1259 531 
L 3634 531 
L 3634 0 
L 628 0 
L 628 4666 
z
" transform="scale(0.015625)"/>
       <path id="DejaVuSans-49" d="M 628 4666 
L 1259 4666 
L 1259 0 
L 628 0 
L 628 4666 
z
" transform="scale(0.015625)"/>
       <path id="DejaVuSans-6b" d="M 581 4863 
L 1159 4863 
L 1159 1991 
L 2875 3500 
L 3609 3500 
L 1753 1863 
L 3688 0 
L 2938 0 
L 1159 1709 
L 1159 0 
L 581 0 
L 581 4863 
z
" transform="scale(0.015625)"/>
      </defs>
      <use xlink:href="#DejaVuSans-4f"/>
      <use xlink:href="#DejaVuSans-45" transform="translate(78.710938 0)"/>
      <use xlink:href="#DejaVuSans-49" transform="translate(141.894531 0)"/>
      <use xlink:href="#DejaVuSans-53" transform="translate(171.386719 0)"/>
      <use xlink:href="#DejaVuSans-20" transform="translate(234.863281 0)"/>
      <use xlink:href="#DejaVuSans-4c" transform="translate(266.650391 0)"/>
      <use xlink:href="#DejaVuSans-69" transform="translate(322.363281 0)"/>
      <use xlink:href="#DejaVuSans-6e" transform="translate(350.146484 0)"/>
      <use xlink:href="#DejaVuSans-6b" transform="translate(413.525391 0)"/>
      <use xlink:href="#DejaVuSans-65" transform="translate(467.810547 0)"/>
      <use xlink:href="#DejaVuSans-64" transform="translate(529.333984 0)"/>
     </g>
    </g>
    <g id="line2d_40">
     <path d="M 57.90125 110.20875 
L 67.90125 110.20875 
L 77.90125 110.20875 
" style="fill: none; stroke: #9467bd; stroke-width: 2; stroke-linecap: square"/>
    </g>
    <g id="text_28">
     <!-- Open Problems -->
     <g style="fill: #24292f" transform="translate(85.90125 113.70875) scale(0.1 -0.1)">
      <defs>
       <path id="DejaVuSans-73" d="M 2834 3397 
L 2834 2853 
Q 2591 2978 2328 3040 
Q 2066 3103 1784 3103 
Q 1356 3103 1142 2972 
Q 928 2841 928 2578 
Q 928 2378 1081 2264 
Q 1234 2150 1697 2047 
L 1894 2003 
Q 2506 1872 2764 1633 
Q 3022 1394 3022 966 
Q 3022 478 2636 193 
Q 2250 -91 1575 -91 
Q 1294 -91 989 -36 
Q 684 19 347 128 
L 347 722 
Q 666 556 975 473 
Q 1284 391 1588 391 
Q 1994 391 2212 530 
Q 2431 669 2431 922 
Q 2431 1156 2273 1281 
Q 2116 1406 1581 1522 
L 1381 1569 
Q 847 1681 609 1914 
Q 372 2147 372 2553 
Q 372 3047 722 3315 
Q 1072 3584 1716 3584 
Q 2034 3584 2315 3537 
Q 2597 3491 2834 3397 
z
" transform="scale(0.015625)"/>
      </defs>
      <use xlink:href="#DejaVuSans-4f"/>
      <use xlink:href="#DejaVuSans-70" transform="translate(78.710938 0)"/>
      <use xlink:href="#DejaVuSans-65" transform="translate(142.1875 0)"/>
      <use xlink:href="#DejaVuSans-6e" transform="translate(203.710938 0)"/>
      <use xlink:href="#DejaVuSans-20" transform="translate(267.089844 0)"/>
      <use xlink:href="#DejaVuSans-50" transform="translate(298.876953 0)"/>
      <use xlink:href="#DejaVuSans-72" transform="translate(357.429688 0)"/>
      <use xlink:href="#DejaVuSans-6f" transform="translate(396.292969 0)"/>
      <use xlink:href="#DejaVuSans-62" transform="translate(457.474609 0)"/>
      <use xlink:href="#DejaVuSans-6c" transform="translate(520.951172 0)"/>
      <use xlink:href="#DejaVuSans-65" transform="translate(548.734375 0)"/>
      <use xlink:href="#DejaVuSans-6d" transform="translate(610.257812 0)"/>
      <use xlink:href="#DejaVuSans-73" transform="translate(707.669922 0)"/>
     </g>
    </g>
   </g>
  </g>
 </g>
 <defs>
  <clipPath id="p417a851c90">
   <rect x="48.90125" y="38.397812" width="797.300634" height="416.84"/>
  </clipPath>
 </defs>
</svg>
