<?xml version="1.0" encoding="utf-8" standalone="no"?>
<!DOCTYPE svg PUBLIC "-//W3C//DTD SVG 1.1//EN"
  "http://www.w3.org/Graphics/SVG/1.1/DTD/svg11.dtd">
<svg xmlns:xlink="http://www.w3.org/1999/xlink" width="855.55125pt" height="494.729687pt" viewBox="0 0 855.55125 494.729687" xmlns="http://www.w3.org/2000/svg" version="1.1">
 <metadata>
  <rdf:RDF xmlns:dc="http://purl.org/dc/elements/1.1/" xmlns:cc="http://creativecommons.org/ns#" xmlns:rdf="http://www.w3.org/1999/02/22-rdf-syntax-ns#">
   <cc:Work>
    <dc:type rdf:resource="http://purl.org/dc/dcmitype/StillImage"/>
    <dc:date>2026-03-31T16:05:56.220124</dc:date>
    <dc:format>image/svg+xml</dc:format>
    <dc:creator>
     <cc:Agent>
      <dc:title>Matplotlib v3.10.7, https://matplotlib.org/</dc:title>
     </cc:Agent>
    </dc:creator>
   </cc:Work>
  </rdf:RDF>
 </metadata>
 <defs>
  <style type="text/css">*{stroke-linejoin: round; stroke-linecap: butt}</style>
 </defs>
 <g id="figure_1">
  <g id="patch_1">
   <path d="M 0 494.729687 
L 855.55125 494.729687 
L 855.55125 0 
L 0 0 
z
" style="fill: #ffffff"/>
  </g>
  <g id="axes_1">
   <g id="patch_2">
    <path d="M 48.90125 455.237812 
L 848.35125 455.237812 
L 848.35125 38.397812 
L 48.90125 38.397812 
z
" style="fill: #ffffff"/>
   </g>
   <g id="matplotlib.axis_1">
    <g id="xtick_1">
     <g id="line2d_1">
      <path d="M 86.242246 455.237812 
L 86.242246 38.397812 
" clip-path="url(#p2371b67d55)" style="fill: none; stroke: #d0d7de; stroke-opacity: 0.25; stroke-width: 0.5; stroke-linecap: square"/>
     </g>
     <g id="line2d_2">
      <defs>
       <path id="ma0729012d5" d="M 0 0 
L 0 3.5 
" style="stroke: #24292f; stroke-width: 0.8"/>
      </defs>
      <g>
       <use xlink:href="#ma0729012d5" x="86.242246" y="455.237812" style="fill: #24292f; stroke: #24292f; stroke-width: 0.8"/>
      </g>
     </g>
     <g id="text_1">
      <!-- Sep -->
      <g style="fill: #24292f" transform="translate(76.817246 469.83625) scale(0.1 -0.1)">
       <defs>
        <path id="DejaVuSans-53" d="M 3425 4513 
L 3425 3897 
Q 3066 4069 2747 4153 
Q 2428 4238 2131 4238 
Q 1616 4238 1336 4038 
Q 1056 3838 1056 3469 
Q 1056 3159 1242 3001 
Q 1428 2844 1947 2747 
L 2328 2669 
Q 3034 2534 3370 2195 
Q 3706 1856 3706 1288 
Q 3706 609 3251 259 
Q 2797 -91 1919 -91 
Q 1588 -91 1214 -16 
Q 841 59 441 206 
L 441 856 
Q 825 641 1194 531 
Q 1563 422 1919 422 
Q 2459 422 2753 634 
Q 3047 847 3047 1241 
Q 3047 1584 2836 1778 
Q 2625 1972 2144 2069 
L 1759 2144 
Q 1053 2284 737 2584 
Q 422 2884 422 3419 
Q 422 4038 858 4394 
Q 1294 4750 2059 4750 
Q 2388 4750 2728 4690 
Q 3069 4631 3425 4513 
z
" transform="scale(0.015625)"/>
        <path id="DejaVuSans-65" d="M 3597 1894 
L 3597 1613 
L 953 1613 
Q 991 1019 1311 708 
Q 1631 397 2203 397 
Q 2534 397 2845 478 
Q 3156 559 3463 722 
L 3463 178 
Q 3153 47 2828 -22 
Q 2503 -91 2169 -91 
Q 1331 -91 842 396 
Q 353 884 353 1716 
Q 353 2575 817 3079 
Q 1281 3584 2069 3584 
Q 2775 3584 3186 3129 
Q 3597 2675 3597 1894 
z
M 3022 2063 
Q 3016 2534 2758 2815 
Q 2500 3097 2075 3097 
Q 1594 3097 1305 2825 
Q 1016 2553 972 2059 
L 3022 2063 
z
" transform="scale(0.015625)"/>
        <path id="DejaVuSans-70" d="M 1159 525 
L 1159 -1331 
L 581 -1331 
L 581 3500 
L 1159 3500 
L 1159 2969 
Q 1341 3281 1617 3432 
Q 1894 3584 2278 3584 
Q 2916 3584 3314 3078 
Q 3713 2572 3713 1747 
Q 3713 922 3314 415 
Q 2916 -91 2278 -91 
Q 1894 -91 1617 61 
Q 1341 213 1159 525 
z
M 3116 1747 
Q 3116 2381 2855 2742 
Q 2594 3103 2138 3103 
Q 1681 3103 1420 2742 
Q 1159 2381 1159 1747 
Q 1159 1113 1420 752 
Q 1681 391 2138 391 
Q 2594 391 2855 752 
Q 3116 1113 3116 1747 
z
" transform="scale(0.015625)"/>
       </defs>
       <use xlink:href="#DejaVuSans-53"/>
       <use xlink:href="#DejaVuSans-65" transform="translate(63.476562 0)"/>
       <use xlink:href="#DejaVuSans-70" transform="translate(125 0)"/>
      </g>
     </g>
    </g>
    <g id="xtick_2">
     <g id="line2d_3">
      <path d="M 189.105335 455.237812 
L 189.105335 38.397812 
" clip-path="url(#p2371b67d55)" style="fill: none; stroke: #d0d7de; stroke-opacity: 0.25; stroke-width: 0.5; stroke-linecap: square"/>
     </g>
     <g id="line2d_4">
      <g>
       <use xlink:href="#ma0729012d5" x="189.105335" y="455.237812" style="fill: #24292f; stroke: #24292f; stroke-width: 0.8"/>
      </g>
     </g>
     <g id="text_2">
      <!-- Oct -->
      <g style="fill: #24292f" transform="translate(180.460023 469.83625) scale(0.1 -0.1)">
       <defs>
        <path id="DejaVuSans-4f" d="M 2522 4238 
Q 1834 4238 1429 3725 
Q 1025 3213 1025 2328 
Q 1025 1447 1429 934 
Q 1834 422 2522 422 
Q 3209 422 3611 934 
Q 4013 1447 4013 2328 
Q 4013 3213 3611 3725 
Q 3209 4238 2522 4238 
z
M 2522 4750 
Q 3503 4750 4090 4092 
Q 4678 3434 4678 2328 
Q 4678 1225 4090 567 
Q 3503 -91 2522 -91 
Q 1538 -91 948 565 
Q 359 1222 359 2328 
Q 359 3434 948 4092 
Q 1538 4750 2522 4750 
z
" transform="scale(0.015625)"/>
        <path id="DejaVuSans-63" d="M 3122 3366 
L 3122 2828 
Q 2878 2963 2633 3030 
Q 2388 3097 2138 3097 
Q 1578 3097 1268 2742 
Q 959 2388 959 1747 
Q 959 1106 1268 751 
Q 1578 397 2138 397 
Q 2388 397 2633 464 
Q 2878 531 3122 666 
L 3122 134 
Q 2881 22 2623 -34 
Q 2366 -91 2075 -91 
Q 1284 -91 818 406 
Q 353 903 353 1747 
Q 353 2603 823 3093 
Q 1294 3584 2113 3584 
Q 2378 3584 2631 3529 
Q 2884 3475 3122 3366 
z
" transform="scale(0.015625)"/>
        <path id="DejaVuSans-74" d="M 1172 4494 
L 1172 3500 
L 2356 3500 
L 2356 3053 
L 1172 3053 
L 1172 1153 
Q 1172 725 1289 603 
Q 1406 481 1766 481 
L 2356 481 
L 2356 0 
L 1766 0 
Q 1100 0 847 248 
Q 594 497 594 1153 
L 594 3053 
L 172 3053 
L 172 3500 
L 594 3500 
L 594 4494 
L 1172 4494 
z
" transform="scale(0.015625)"/>
       </defs>
       <use xlink:href="#DejaVuSans-4f"/>
       <use xlink:href="#DejaVuSans-63" transform="translate(78.710938 0)"/>
       <use xlink:href="#DejaVuSans-74" transform="translate(133.691406 0)"/>
      </g>
     </g>
    </g>
    <g id="xtick_3">
     <g id="line2d_5">
      <path d="M 295.397194 455.237812 
L 295.397194 38.397812 
" clip-path="url(#p2371b67d55)" style="fill: none; stroke: #d0d7de; stroke-opacity: 0.25; stroke-width: 0.5; stroke-linecap: square"/>
     </g>
     <g id="line2d_6">
      <g>
       <use xlink:href="#ma0729012d5" x="295.397194" y="455.237812" style="fill: #24292f; stroke: #24292f; stroke-width: 0.8"/>
      </g>
     </g>
     <g id="text_3">
      <!-- Nov -->
      <g style="fill: #24292f" transform="translate(285.637819 469.83625) scale(0.1 -0.1)">
       <defs>
        <path id="DejaVuSans-4e" d="M 628 4666 
L 1478 4666 
L 3547 763 
L 3547 4666 
L 4159 4666 
L 4159 0 
L 3309 0 
L 1241 3903 
L 1241 0 
L 628 0 
L 628 4666 
z
" transform="scale(0.015625)"/>
        <path id="DejaVuSans-6f" d="M 1959 3097 
Q 1497 3097 1228 2736 
Q 959 2375 959 1747 
Q 959 1119 1226 758 
Q 1494 397 1959 397 
Q 2419 397 2687 759 
Q 2956 1122 2956 1747 
Q 2956 2369 2687 2733 
Q 2419 3097 1959 3097 
z
M 1959 3584 
Q 2709 3584 3137 3096 
Q 3566 2609 3566 1747 
Q 3566 888 3137 398 
Q 2709 -91 1959 -91 
Q 1206 -91 779 398 
Q 353 888 353 1747 
Q 353 2609 779 3096 
Q 1206 3584 1959 3584 
z
" transform="scale(0.015625)"/>
        <path id="DejaVuSans-76" d="M 191 3500 
L 800 3500 
L 1894 563 
L 2988 3500 
L 3597 3500 
L 2284 0 
L 1503 0 
L 191 3500 
z
" transform="scale(0.015625)"/>
       </defs>
       <use xlink:href="#DejaVuSans-4e"/>
       <use xlink:href="#DejaVuSans-6f" transform="translate(74.804688 0)"/>
       <use xlink:href="#DejaVuSans-76" transform="translate(135.986328 0)"/>
      </g>
     </g>
    </g>
    <g id="xtick_4">
     <g id="line2d_7">
      <path d="M 398.260283 455.237812 
L 398.260283 38.397812 
" clip-path="url(#p2371b67d55)" style="fill: none; stroke: #d0d7de; stroke-opacity: 0.25; stroke-width: 0.5; stroke-linecap: square"/>
     </g>
     <g id="line2d_8">
      <g>
       <use xlink:href="#ma0729012d5" x="398.260283" y="455.237812" style="fill: #24292f; stroke: #24292f; stroke-width: 0.8"/>
      </g>
     </g>
     <g id="text_4">
      <!-- Dec -->
      <g style="fill: #24292f" transform="translate(388.584502 469.83625) scale(0.1 -0.1)">
       <defs>
        <path id="DejaVuSans-44" d="M 1259 4147 
L 1259 519 
L 2022 519 
Q 2988 519 3436 956 
Q 3884 1394 3884 2338 
Q 3884 3275 3436 3711 
Q 2988 4147 2022 4147 
L 1259 4147 
z
M 628 4666 
L 1925 4666 
Q 3281 4666 3915 4102 
Q 4550 3538 4550 2338 
Q 4550 1131 3912 565 
Q 3275 0 1925 0 
L 628 0 
L 628 4666 
z
" transform="scale(0.015625)"/>
       </defs>
       <use xlink:href="#DejaVuSans-44"/>
       <use xlink:href="#DejaVuSans-65" transform="translate(77.001953 0)"/>
       <use xlink:href="#DejaVuSans-63" transform="translate(138.525391 0)"/>
      </g>
     </g>
    </g>
    <g id="xtick_5">
     <g id="line2d_9">
      <path d="M 504.552142 455.237812 
L 504.552142 38.397812 
" clip-path="url(#p2371b67d55)" style="fill: none; stroke: #d0d7de; stroke-opacity: 0.25; stroke-width: 0.5; stroke-linecap: square"/>
     </g>
     <g id="line2d_10">
      <g>
       <use xlink:href="#ma0729012d5" x="504.552142" y="455.237812" style="fill: #24292f; stroke: #24292f; stroke-width: 0.8"/>
      </g>
     </g>
     <g id="text_5">
      <!-- 2026 -->
      <g style="fill: #24292f" transform="translate(491.827142 469.83625) scale(0.1 -0.1)">
       <defs>
        <path id="DejaVuSans-32" d="M 1228 531 
L 3431 531 
L 3431 0 
L 469 0 
L 469 531 
Q 828 903 1448 1529 
Q 2069 2156 2228 2338 
Q 2531 2678 2651 2914 
Q 2772 3150 2772 3378 
Q 2772 3750 2511 3984 
Q 2250 4219 1831 4219 
Q 1534 4219 1204 4116 
Q 875 4013 500 3803 
L 500 4441 
Q 881 4594 1212 4672 
Q 1544 4750 1819 4750 
Q 2544 4750 2975 4387 
Q 3406 4025 3406 3419 
Q 3406 3131 3298 2873 
Q 3191 2616 2906 2266 
Q 2828 2175 2409 1742 
Q 1991 1309 1228 531 
z
" transform="scale(0.015625)"/>
        <path id="DejaVuSans-30" d="M 2034 4250 
Q 1547 4250 1301 3770 
Q 1056 3291 1056 2328 
Q 1056 1369 1301 889 
Q 1547 409 2034 409 
Q 2525 409 2770 889 
Q 3016 1369 3016 2328 
Q 3016 3291 2770 3770 
Q 2525 4250 2034 4250 
z
M 2034 4750 
Q 2819 4750 3233 4129 
Q 3647 3509 3647 2328 
Q 3647 1150 3233 529 
Q 2819 -91 2034 -91 
Q 1250 -91 836 529 
Q 422 1150 422 2328 
Q 422 3509 836 4129 
Q 1250 4750 2034 4750 
z
" transform="scale(0.015625)"/>
        <path id="DejaVuSans-36" d="M 2113 2584 
Q 1688 2584 1439 2293 
Q 1191 2003 1191 1497 
Q 1191 994 1439 701 
Q 1688 409 2113 409 
Q 2538 409 2786 701 
Q 3034 994 3034 1497 
Q 3034 2003 2786 2293 
Q 2538 2584 2113 2584 
z
M 3366 4563 
L 3366 3988 
Q 3128 4100 2886 4159 
Q 2644 4219 2406 4219 
Q 1781 4219 1451 3797 
Q 1122 3375 1075 2522 
Q 1259 2794 1537 2939 
Q 1816 3084 2150 3084 
Q 2853 3084 3261 2657 
Q 3669 2231 3669 1497 
Q 3669 778 3244 343 
Q 2819 -91 2113 -91 
Q 1303 -91 875 529 
Q 447 1150 447 2328 
Q 447 3434 972 4092 
Q 1497 4750 2381 4750 
Q 2619 4750 2861 4703 
Q 3103 4656 3366 4563 
z
" transform="scale(0.015625)"/>
       </defs>
       <use xlink:href="#DejaVuSans-32"/>
       <use xlink:href="#DejaVuSans-30" transform="translate(63.623047 0)"/>
       <use xlink:href="#DejaVuSans-32" transform="translate(127.246094 0)"/>
       <use xlink:href="#DejaVuSans-36" transform="translate(190.869141 0)"/>
      </g>
     </g>
    </g>
    <g id="xtick_6">
     <g id="line2d_11">
      <path d="M 610.844 455.237812 
L 610.844 38.397812 
" clip-path="url(#p2371b67d55)" style="fill: none; stroke: #d0d7de; stroke-opacity: 0.25; stroke-width: 0.5; stroke-linecap: square"/>
     </g>
     <g id="line2d_12">
      <g>
       <use xlink:href="#ma0729012d5" x="610.844" y="455.237812" style="fill: #24292f; stroke: #24292f; stroke-width: 0.8"/>
      </g>
     </g>
     <g id="text_6">
      <!-- Feb -->
      <g style="fill: #24292f" transform="translate(601.992438 469.83625) scale(0.1 -0.1)">
       <defs>
        <path id="DejaVuSans-46" d="M 628 4666 
L 3309 4666 
L 3309 4134 
L 1259 4134 
L 1259 2759 
L 3109 2759 
L 3109 2228 
L 1259 2228 
L 1259 0 
L 628 0 
L 628 4666 
z
" transform="scale(0.015625)"/>
        <path id="DejaVuSans-62" d="M 3116 1747 
Q 3116 2381 2855 2742 
Q 2594 3103 2138 3103 
Q 1681 3103 1420 2742 
Q 1159 2381 1159 1747 
Q 1159 1113 1420 752 
Q 1681 391 2138 391 
Q 2594 391 2855 752 
Q 3116 1113 3116 1747 
z
M 1159 2969 
Q 1341 3281 1617 3432 
Q 1894 3584 2278 3584 
Q 2916 3584 3314 3078 
Q 3713 2572 3713 1747 
Q 3713 922 3314 415 
Q 2916 -91 2278 -91 
Q 1894 -91 1617 61 
Q 1341 213 1159 525 
L 1159 0 
L 581 0 
L 581 4863 
L 1159 4863 
L 1159 2969 
z
" transform="scale(0.015625)"/>
       </defs>
       <use xlink:href="#DejaVuSans-46"/>
       <use xlink:href="#DejaVuSans-65" transform="translate(52.019531 0)"/>
       <use xlink:href="#DejaVuSans-62" transform="translate(113.542969 0)"/>
      </g>
     </g>
    </g>
    <g id="xtick_7">
     <g id="line2d_13">
      <path d="M 706.84955 455.237812 
L 706.84955 38.397812 
" clip-path="url(#p2371b67d55)" style="fill: none; stroke: #d0d7de; stroke-opacity: 0.25; stroke-width: 0.5; stroke-linecap: square"/>
     </g>
     <g id="line2d_14">
      <g>
       <use xlink:href="#ma0729012d5" x="706.84955" y="455.237812" style="fill: #24292f; stroke: #24292f; stroke-width: 0.8"/>
      </g>
     </g>
     <g id="text_7">
      <!-- Mar -->
      <g style="fill: #24292f" transform="translate(697.415957 469.83625) scale(0.1 -0.1)">
       <defs>
        <path id="DejaVuSans-4d" d="M 628 4666 
L 1569 4666 
L 2759 1491 
L 3956 4666 
L 4897 4666 
L 4897 0 
L 4281 0 
L 4281 4097 
L 3078 897 
L 2444 897 
L 1241 4097 
L 1241 0 
L 628 0 
L 628 4666 
z
" transform="scale(0.015625)"/>
        <path id="DejaVuSans-61" d="M 2194 1759 
Q 1497 1759 1228 1600 
Q 959 1441 959 1056 
Q 959 750 1161 570 
Q 1363 391 1709 391 
Q 2188 391 2477 730 
Q 2766 1069 2766 1631 
L 2766 1759 
L 2194 1759 
z
M 3341 1997 
L 3341 0 
L 2766 0 
L 2766 531 
Q 2569 213 2275 61 
Q 1981 -91 1556 -91 
Q 1019 -91 701 211 
Q 384 513 384 1019 
Q 384 1609 779 1909 
Q 1175 2209 1959 2209 
L 2766 2209 
L 2766 2266 
Q 2766 2663 2505 2880 
Q 2244 3097 1772 3097 
Q 1472 3097 1187 3025 
Q 903 2953 641 2809 
L 641 3341 
Q 956 3463 1253 3523 
Q 1550 3584 1831 3584 
Q 2591 3584 2966 3190 
Q 3341 2797 3341 1997 
z
" transform="scale(0.015625)"/>
        <path id="DejaVuSans-72" d="M 2631 2963 
Q 2534 3019 2420 3045 
Q 2306 3072 2169 3072 
Q 1681 3072 1420 2755 
Q 1159 2438 1159 1844 
L 1159 0 
L 581 0 
L 581 3500 
L 1159 3500 
L 1159 2956 
Q 1341 3275 1631 3429 
Q 1922 3584 2338 3584 
Q 2397 3584 2469 3576 
Q 2541 3569 2628 3553 
L 2631 2963 
z
" transform="scale(0.015625)"/>
       </defs>
       <use xlink:href="#DejaVuSans-4d"/>
       <use xlink:href="#DejaVuSans-61" transform="translate(86.279297 0)"/>
       <use xlink:href="#DejaVuSans-72" transform="translate(147.558594 0)"/>
      </g>
     </g>
    </g>
    <g id="xtick_8">
     <g id="line2d_15">
      <path d="M 813.141409 455.237812 
L 813.141409 38.397812 
" clip-path="url(#p2371b67d55)" style="fill: none; stroke: #d0d7de; stroke-opacity: 0.25; stroke-width: 0.5; stroke-linecap: square"/>
     </g>
     <g id="line2d_16">
      <g>
       <use xlink:href="#ma0729012d5" x="813.141409" y="455.237812" style="fill: #24292f; stroke: #24292f; stroke-width: 0.8"/>
      </g>
     </g>
     <g id="text_8">
      <!-- Apr -->
      <g style="fill: #24292f" transform="translate(804.491409 469.83625) scale(0.1 -0.1)">
       <defs>
        <path id="DejaVuSans-41" d="M 2188 4044 
L 1331 1722 
L 3047 1722 
L 2188 4044 
z
M 1831 4666 
L 2547 4666 
L 4325 0 
L 3669 0 
L 3244 1197 
L 1141 1197 
L 716 0 
L 50 0 
L 1831 4666 
z
" transform="scale(0.015625)"/>
       </defs>
       <use xlink:href="#DejaVuSans-41"/>
       <use xlink:href="#DejaVuSans-70" transform="translate(68.408203 0)"/>
       <use xlink:href="#DejaVuSans-72" transform="translate(131.884766 0)"/>
      </g>
     </g>
    </g>
    <g id="text_9">
     <!-- Date -->
     <g style="fill: #24292f" transform="translate(434.285313 485.034062) scale(0.12 -0.12)">
      <use xlink:href="#DejaVuSans-44"/>
      <use xlink:href="#DejaVuSans-61" transform="translate(77.001953 0)"/>
      <use xlink:href="#DejaVuSans-74" transform="translate(138.28125 0)"/>
      <use xlink:href="#DejaVuSans-65" transform="translate(177.490234 0)"/>
     </g>
    </g>
   </g>
   <g id="matplotlib.axis_2">
    <g id="ytick_1">
     <g id="line2d_17">
      <path d="M 48.90125 455.237812 
L 848.35125 455.237812 
" clip-path="url(#p2371b67d55)" style="fill: none; stroke: #d0d7de; stroke-opacity: 0.25; stroke-width: 0.5; stroke-linecap: square"/>
     </g>
     <g id="line2d_18">
      <defs>
       <path id="md23326fe65" d="M 0 0 
L -3.5 0 
" style="stroke: #24292f; stroke-width: 0.8"/>
      </defs>
      <g>
       <use xlink:href="#md23326fe65" x="48.90125" y="455.237812" style="fill: #24292f; stroke: #24292f; stroke-width: 0.8"/>
      </g>
     </g>
     <g id="text_10">
      <!-- 0 -->
      <g style="fill: #24292f" transform="translate(35.53875 459.037031) scale(0.1 -0.1)">
       <use xlink:href="#DejaVuSans-30"/>
      </g>
     </g>
    </g>
    <g id="ytick_2">
     <g id="line2d_19">
      <path d="M 48.90125 399.659146 
L 848.35125 399.659146 
" clip-path="url(#p2371b67d55)" style="fill: none; stroke: #d0d7de; stroke-opacity: 0.25; stroke-width: 0.5; stroke-linecap: square"/>
     </g>
     <g id="line2d_20">
      <g>
       <use xlink:href="#md23326fe65" x="48.90125" y="399.659146" style="fill: #24292f; stroke: #24292f; stroke-width: 0.8"/>
      </g>
     </g>
     <g id="text_11">
      <!-- 100 -->
      <g style="fill: #24292f" transform="translate(22.81375 403.458365) scale(0.1 -0.1)">
       <defs>
        <path id="DejaVuSans-31" d="M 794 531 
L 1825 531 
L 1825 4091 
L 703 3866 
L 703 4441 
L 1819 4666 
L 2450 4666 
L 2450 531 
L 3481 531 
L 3481 0 
L 794 0 
L 794 531 
z
" transform="scale(0.015625)"/>
       </defs>
       <use xlink:href="#DejaVuSans-31"/>
       <use xlink:href="#DejaVuSans-30" transform="translate(63.623047 0)"/>
       <use xlink:href="#DejaVuSans-30" transform="translate(127.246094 0)"/>
      </g>
     </g>
    </g>
    <g id="ytick_3">
     <g id="line2d_21">
      <path d="M 48.90125 344.080479 
L 848.35125 344.080479 
" clip-path="url(#p2371b67d55)" style="fill: none; stroke: #d0d7de; stroke-opacity: 0.25; stroke-width: 0.5; stroke-linecap: square"/>
     </g>
     <g id="line2d_22">
      <g>
       <use xlink:href="#md23326fe65" x="48.90125" y="344.080479" style="fill: #24292f; stroke: #24292f; stroke-width: 0.8"/>
      </g>
     </g>
     <g id="text_12">
      <!-- 200 -->
      <g style="fill: #24292f" transform="translate(22.81375 347.879698) scale(0.1 -0.1)">
       <use xlink:href="#DejaVuSans-32"/>
       <use xlink:href="#DejaVuSans-30" transform="translate(63.623047 0)"/>
       <use xlink:href="#DejaVuSans-30" transform="translate(127.246094 0)"/>
      </g>
     </g>
    </g>
    <g id="ytick_4">
     <g id="line2d_23">
      <path d="M 48.90125 288.501812 
L 848.35125 288.501812 
" clip-path="url(#p2371b67d55)" style="fill: none; stroke: #d0d7de; stroke-opacity: 0.25; stroke-width: 0.5; stroke-linecap: square"/>
     </g>
     <g id="line2d_24">
      <g>
       <use xlink:href="#md23326fe65" x="48.90125" y="288.501812" style="fill: #24292f; stroke: #24292f; stroke-width: 0.8"/>
      </g>
     </g>
     <g id="text_13">
      <!-- 300 -->
      <g style="fill: #24292f" transform="translate(22.81375 292.301031) scale(0.1 -0.1)">
       <defs>
        <path id="DejaVuSans-33" d="M 2597 2516 
Q 3050 2419 3304 2112 
Q 3559 1806 3559 1356 
Q 3559 666 3084 287 
Q 2609 -91 1734 -91 
Q 1441 -91 1130 -33 
Q 819 25 488 141 
L 488 750 
Q 750 597 1062 519 
Q 1375 441 1716 441 
Q 2309 441 2620 675 
Q 2931 909 2931 1356 
Q 2931 1769 2642 2001 
Q 2353 2234 1838 2234 
L 1294 2234 
L 1294 2753 
L 1863 2753 
Q 2328 2753 2575 2939 
Q 2822 3125 2822 3475 
Q 2822 3834 2567 4026 
Q 2313 4219 1838 4219 
Q 1578 4219 1281 4162 
Q 984 4106 628 3988 
L 628 4550 
Q 988 4650 1302 4700 
Q 1616 4750 1894 4750 
Q 2613 4750 3031 4423 
Q 3450 4097 3450 3541 
Q 3450 3153 3228 2886 
Q 3006 2619 2597 2516 
z
" transform="scale(0.015625)"/>
       </defs>
       <use xlink:href="#DejaVuSans-33"/>
       <use xlink:href="#DejaVuSans-30" transform="translate(63.623047 0)"/>
       <use xlink:href="#DejaVuSans-30" transform="translate(127.246094 0)"/>
      </g>
     </g>
    </g>
    <g id="ytick_5">
     <g id="line2d_25">
      <path d="M 48.90125 232.923146 
L 848.35125 232.923146 
" clip-path="url(#p2371b67d55)" style="fill: none; stroke: #d0d7de; stroke-opacity: 0.25; stroke-width: 0.5; stroke-linecap: square"/>
     </g>
     <g id="line2d_26">
      <g>
       <use xlink:href="#md23326fe65" x="48.90125" y="232.923146" style="fill: #24292f; stroke: #24292f; stroke-width: 0.8"/>
      </g>
     </g>
     <g id="text_14">
      <!-- 400 -->
      <g style="fill: #24292f" transform="translate(22.81375 236.722365) scale(0.1 -0.1)">
       <defs>
        <path id="DejaVuSans-34" d="M 2419 4116 
L 825 1625 
L 2419 1625 
L 2419 4116 
z
M 2253 4666 
L 3047 4666 
L 3047 1625 
L 3713 1625 
L 3713 1100 
L 3047 1100 
L 3047 0 
L 2419 0 
L 2419 1100 
L 313 1100 
L 313 1709 
L 2253 4666 
z
" transform="scale(0.015625)"/>
       </defs>
       <use xlink:href="#DejaVuSans-34"/>
       <use xlink:href="#DejaVuSans-30" transform="translate(63.623047 0)"/>
       <use xlink:href="#DejaVuSans-30" transform="translate(127.246094 0)"/>
      </g>
     </g>
    </g>
    <g id="ytick_6">
     <g id="line2d_27">
      <path d="M 48.90125 177.344479 
L 848.35125 177.344479 
" clip-path="url(#p2371b67d55)" style="fill: none; stroke: #d0d7de; stroke-opacity: 0.25; stroke-width: 0.5; stroke-linecap: square"/>
     </g>
     <g id="line2d_28">
      <g>
       <use xlink:href="#md23326fe65" x="48.90125" y="177.344479" style="fill: #24292f; stroke: #24292f; stroke-width: 0.8"/>
      </g>
     </g>
     <g id="text_15">
      <!-- 500 -->
      <g style="fill: #24292f" transform="translate(22.81375 181.143698) scale(0.1 -0.1)">
       <defs>
        <path id="DejaVuSans-35" d="M 691 4666 
L 3169 4666 
L 3169 4134 
L 1269 4134 
L 1269 2991 
Q 1406 3038 1543 3061 
Q 1681 3084 1819 3084 
Q 2600 3084 3056 2656 
Q 3513 2228 3513 1497 
Q 3513 744 3044 326 
Q 2575 -91 1722 -91 
Q 1428 -91 1123 -41 
Q 819 9 494 109 
L 494 744 
Q 775 591 1075 516 
Q 1375 441 1709 441 
Q 2250 441 2565 725 
Q 2881 1009 2881 1497 
Q 2881 1984 2565 2268 
Q 2250 2553 1709 2553 
Q 1456 2553 1204 2497 
Q 953 2441 691 2322 
L 691 4666 
z
" transform="scale(0.015625)"/>
       </defs>
       <use xlink:href="#DejaVuSans-35"/>
       <use xlink:href="#DejaVuSans-30" transform="translate(63.623047 0)"/>
       <use xlink:href="#DejaVuSans-30" transform="translate(127.246094 0)"/>
      </g>
     </g>
    </g>
    <g id="ytick_7">
     <g id="line2d_29">
      <path d="M 48.90125 121.765812 
L 848.35125 121.765812 
" clip-path="url(#p2371b67d55)" style="fill: none; stroke: #d0d7de; stroke-opacity: 0.25; stroke-width: 0.5; stroke-linecap: square"/>
     </g>
     <g id="line2d_30">
      <g>
       <use xlink:href="#md23326fe65" x="48.90125" y="121.765812" style="fill: #24292f; stroke: #24292f; stroke-width: 0.8"/>
      </g>
     </g>
     <g id="text_16">
      <!-- 600 -->
      <g style="fill: #24292f" transform="translate(22.81375 125.565031) scale(0.1 -0.1)">
       <use xlink:href="#DejaVuSans-36"/>
       <use xlink:href="#DejaVuSans-30" transform="translate(63.623047 0)"/>
       <use xlink:href="#DejaVuSans-30" transform="translate(127.246094 0)"/>
      </g>
     </g>
    </g>
    <g id="ytick_8">
     <g id="line2d_31">
      <path d="M 48.90125 66.187146 
L 848.35125 66.187146 
" clip-path="url(#p2371b67d55)" style="fill: none; stroke: #d0d7de; stroke-opacity: 0.25; stroke-width: 0.5; stroke-linecap: square"/>
     </g>
     <g id="line2d_32">
      <g>
       <use xlink:href="#md23326fe65" x="48.90125" y="66.187146" style="fill: #24292f; stroke: #24292f; stroke-width: 0.8"/>
      </g>
     </g>
     <g id="text_17">
      <!-- 700 -->
      <g style="fill: #24292f" transform="translate(22.81375 69.986365) scale(0.1 -0.1)">
       <defs>
        <path id="DejaVuSans-37" d="M 525 4666 
L 3525 4666 
L 3525 4397 
L 1831 0 
L 1172 0 
L 2766 4134 
L 525 4134 
L 525 4666 
z
" transform="scale(0.015625)"/>
       </defs>
       <use xlink:href="#DejaVuSans-37"/>
       <use xlink:href="#DejaVuSans-30" transform="translate(63.623047 0)"/>
       <use xlink:href="#DejaVuSans-30" transform="translate(127.246094 0)"/>
      </g>
     </g>
    </g>
    <g id="text_18">
     <!-- Count -->
     <g style="fill: #24292f" transform="translate(16.318125 264.635937) rotate(-90) scale(0.12 -0.12)">
      <defs>
       <path id="DejaVuSans-43" d="M 4122 4306 
L 4122 3641 
Q 3803 3938 3442 4084 
Q 3081 4231 2675 4231 
Q 1875 4231 1450 3742 
Q 1025 3253 1025 2328 
Q 1025 1406 1450 917 
Q 1875 428 2675 428 
Q 3081 428 3442 575 
Q 3803 722 4122 1019 
L 4122 359 
Q 3791 134 3420 21 
Q 3050 -91 2638 -91 
Q 1578 -91 968 557 
Q 359 1206 359 2328 
Q 359 3453 968 4101 
Q 1578 4750 2638 4750 
Q 3056 4750 3426 4639 
Q 3797 4528 4122 4306 
z
" transform="scale(0.015625)"/>
       <path id="DejaVuSans-75" d="M 544 1381 
L 544 3500 
L 1119 3500 
L 1119 1403 
Q 1119 906 1312 657 
Q 1506 409 1894 409 
Q 2359 409 2629 706 
Q 2900 1003 2900 1516 
L 2900 3500 
L 3475 3500 
L 3475 0 
L 2900 0 
L 2900 538 
Q 2691 219 2414 64 
Q 2138 -91 1772 -91 
Q 1169 -91 856 284 
Q 544 659 544 1381 
z
M 1991 3584 
L 1991 3584 
z
" transform="scale(0.015625)"/>
       <path id="DejaVuSans-6e" d="M 3513 2113 
L 3513 0 
L 2938 0 
L 2938 2094 
Q 2938 2591 2744 2837 
Q 2550 3084 2163 3084 
Q 1697 3084 1428 2787 
Q 1159 2491 1159 1978 
L 1159 0 
L 581 0 
L 581 3500 
L 1159 3500 
L 1159 2956 
Q 1366 3272 1645 3428 
Q 1925 3584 2291 3584 
Q 2894 3584 3203 3211 
Q 3513 2838 3513 2113 
z
" transform="scale(0.015625)"/>
      </defs>
      <use xlink:href="#DejaVuSans-43"/>
      <use xlink:href="#DejaVuSans-6f" transform="translate(69.824219 0)"/>
      <use xlink:href="#DejaVuSans-75" transform="translate(131.005859 0)"/>
      <use xlink:href="#DejaVuSans-6e" transform="translate(194.384766 0)"/>
      <use xlink:href="#DejaVuSans-74" transform="translate(257.763672 0)"/>
     </g>
    </g>
   </g>
   <g id="line2d_33">
    <path d="M 85.239886 454.682026 
L 85.305565 454.682026 
L 85.347234 454.126239 
L 85.553317 454.126239 
L 85.646537 257.933546 
L 88.534997 257.933546 
L 88.547617 261.268266 
L 91.889239 261.268266 
L 92.050955 260.712479 
L 92.51487 260.712479 
L 92.890845 260.156692 
L 95.220543 259.600906 
L 95.266537 260.156692 
L 95.378211 259.600906 
L 102.592596 259.600906 
L 106.944911 260.712479 
L 107.592488 259.600906 
L 108.065333 259.600906 
L 109.257068 259.045119 
L 109.755669 256.821972 
L 110.726518 256.821972 
L 112.141283 260.712479 
L 112.233074 256.821972 
L 113.318692 256.266186 
L 116.144054 256.266186 
L 116.889295 255.710399 
L 117.996264 255.710399 
L 118.292988 254.598826 
L 125.192751 254.598826 
L 125.695995 253.487252 
L 125.72179 252.375679 
L 127.894495 252.375679 
L 131.098252 251.264106 
L 132.778865 251.264106 
L 132.804303 250.708319 
L 136.663891 250.708319 
L 137.621327 247.929386 
L 140.651383 247.929386 
L 140.672416 247.373599 
L 157.642246 247.373599 
L 160.814335 246.817812 
L 160.922634 247.373599 
L 164.212507 246.817812 
L 175.660986 246.817812 
L 181.209918 246.262026 
L 181.317107 245.706239 
L 181.580694 245.150452 
L 184.711033 245.150452 
L 186.043333 244.594666 
L 191.537579 244.594666 
L 191.746162 247.373599 
L 191.756401 245.150452 
L 192.02352 245.150452 
L 193.349945 242.927306 
L 199.84421 242.927306 
L 204.821442 242.371519 
L 210.353309 242.371519 
L 210.596061 241.815732 
L 224.970583 241.815732 
L 225.584071 241.259946 
L 229.074392 241.259946 
L 229.098996 240.148372 
L 235.749301 240.148372 
L 235.88419 236.257866 
L 247.920878 236.257866 
L 247.924489 235.702079 
L 248.273081 235.702079 
L 249.515057 235.146292 
L 251.331869 235.146292 
L 251.822215 234.590506 
L 251.871265 235.146292 
L 252.994108 234.590506 
L 252.999227 234.034719 
L 253.025459 234.590506 
L 253.674068 234.034719 
L 259.582465 234.034719 
L 261.419436 233.478932 
L 263.599165 233.478932 
L 267.301403 232.923146 
L 270.806248 232.923146 
L 273.514103 231.811572 
L 279.440081 231.811572 
L 282.887264 230.699999 
L 283.858511 231.255786 
L 288.66986 231.255786 
L 294.097277 229.032639 
L 302.191594 229.032639 
L 304.701938 228.476852 
L 349.439246 228.476852 
L 349.800537 227.921066 
L 366.11521 227.921066 
L 366.387806 227.365279 
L 394.148815 227.365279 
L 400.261708 226.809492 
L 400.297067 227.365279 
L 404.672995 225.697919 
L 411.094914 225.697919 
L 414.601505 225.142132 
L 414.60726 224.586346 
L 421.923794 224.586346 
L 424.549779 225.142132 
L 425.493762 224.586346 
L 437.738359 224.586346 
L 438.25946 225.142132 
L 439.214039 224.586346 
L 439.542074 222.363199 
L 445.153391 222.363199 
L 445.158232 221.807412 
L 462.328748 221.807412 
L 463.328648 221.251626 
L 466.628521 221.251626 
L 466.950444 220.695839 
L 483.041732 220.695839 
L 483.063598 220.140052 
L 487.088275 220.140052 
L 487.094267 219.584266 
L 488.070871 219.584266 
L 488.121866 219.028479 
L 489.638422 219.028479 
L 489.87669 218.472692 
L 493.122592 218.472692 
L 493.615994 217.361119 
L 495.402883 215.137972 
L 499.723886 215.137972 
L 500.042913 212.359039 
L 501.491846 212.359039 
L 502.202958 211.247466 
L 505.867297 211.247466 
L 507.069668 210.691679 
L 510.511454 210.691679 
L 510.972751 210.135892 
L 520.32095 210.135892 
L 520.551281 209.580106 
L 521.415894 209.580106 
L 522.758234 209.024319 
L 537.878314 209.024319 
L 538.014155 208.468532 
L 538.498945 208.468532 
L 539.510988 207.356959 
L 540.92988 207.356959 
L 541.27105 206.801172 
L 541.599759 206.801172 
L 541.724489 206.245386 
L 545.518994 206.245386 
L 546.164984 205.689599 
L 549.467794 205.689599 
L 549.679552 205.133812 
L 551.488704 205.133812 
L 551.604624 204.578026 
L 557.227052 204.578026 
L 557.347932 204.022239 
L 560.62701 204.022239 
L 561.722232 201.799092 
L 562.936509 201.799092 
L 562.937779 201.243306 
L 567.868222 201.243306 
L 568.772124 200.687519 
L 572.547302 200.687519 
L 573.290877 200.131732 
L 573.570576 200.131732 
L 574.297126 199.575946 
L 576.153027 199.575946 
L 576.367523 199.020159 
L 581.022118 199.020159 
L 582.221909 198.464372 
L 582.309295 197.908586 
L 582.697731 197.908586 
L 583.923754 195.685439 
L 587.725997 195.685439 
L 587.75338 195.129652 
L 591.372002 195.129652 
L 591.582411 194.573866 
L 592.128196 194.573866 
L 592.54199 194.018079 
L 592.628305 194.573866 
L 592.938164 194.018079 
L 594.314831 194.018079 
L 594.328006 193.462292 
L 594.693583 193.462292 
L 594.853671 192.906506 
L 595.959846 192.350719 
L 603.656164 192.350719 
L 604.859091 191.794932 
L 605.664336 191.794932 
L 606.317628 191.239146 
L 606.978499 191.794932 
L 609.699569 191.794932 
L 609.816917 190.683359 
L 613.723214 190.683359 
L 615.238858 189.015999 
L 631.690086 189.015999 
L 632.646213 188.460212 
L 658.039586 188.460212 
L 658.083636 187.904426 
L 695.508498 187.904426 
L 695.672872 187.348639 
L 695.684659 186.792852 
L 695.696366 187.348639 
L 701.134656 187.348639 
L 702.362545 186.792852 
L 723.787553 186.792852 
L 728.19634 186.237066 
L 728.239199 185.681279 
L 728.604181 185.681279 
L 729.747422 185.125492 
L 764.133139 185.125492 
L 764.329222 184.569706 
L 795.045085 184.569706 
L 798.969995 184.013919 
L 801.370808 184.013919 
L 801.631339 183.458132 
L 803.300007 182.902346 
L 807.979523 182.902346 
L 809.950352 182.346559 
L 812.012614 182.346559 
L 812.012614 182.346559 
" clip-path="url(#p2371b67d55)" style="fill: none; stroke: #1a7f37; stroke-width: 2; stroke-linecap: square"/>
   </g>
   <g id="line2d_34">
    <path d="M 85.239886 455.237812 
L 85.347234 453.570452 
L 85.464026 453.570452 
L 85.553317 372.981386 
L 87.172419 372.981386 
L 87.205714 370.758239 
L 88.874739 370.758239 
L 89.304764 369.090879 
L 89.889877 370.758239 
L 89.894203 369.090879 
L 90.378358 369.090879 
L 90.565472 367.979306 
L 95.34674 367.979306 
L 95.351304 367.423519 
L 95.378211 367.979306 
L 95.613542 367.423519 
L 95.682554 367.979306 
L 95.866612 367.423519 
L 97.544447 367.423519 
L 97.63223 366.867732 
L 97.871331 366.311946 
L 99.765686 366.311946 
L 101.921446 365.756159 
L 101.997323 365.200372 
L 102.579976 364.644586 
L 102.592596 364.088799 
L 106.944911 367.979306 
L 107.592488 366.311946 
L 108.065333 363.533012 
L 110.726518 363.533012 
L 112.141283 367.979306 
L 112.233074 363.533012 
L 138.085402 363.533012 
L 138.878701 362.977226 
L 140.672416 362.977226 
L 145.57135 362.421439 
L 146.764673 361.865652 
L 163.76764 361.865652 
L 164.212507 361.309866 
L 166.498115 360.754079 
L 167.950818 360.754079 
L 169.56107 360.198292 
L 169.604446 359.086719 
L 170.711335 358.530932 
L 171.455267 357.975146 
L 181.703875 357.975146 
L 183.746851 357.419359 
L 184.364466 357.419359 
L 184.711033 356.863572 
L 186.043333 356.863572 
L 187.366941 356.307786 
L 191.537579 356.307786 
L 191.746162 358.530932 
L 191.756401 356.307786 
L 193.349945 356.307786 
L 193.509915 355.751999 
L 195.765522 355.751999 
L 197.984737 355.196212 
L 198.03859 354.640426 
L 204.821442 354.640426 
L 207.682361 354.084639 
L 207.689584 353.528852 
L 217.209817 353.528852 
L 221.181078 352.973066 
L 224.160536 352.973066 
L 224.970583 352.417279 
L 229.518505 352.417279 
L 232.112464 351.861492 
L 232.254655 351.305706 
L 234.78365 351.305706 
L 235.077159 350.749919 
L 235.88419 350.194132 
L 237.685762 350.194132 
L 238.823209 349.638346 
L 240.908687 349.638346 
L 242.269797 349.082559 
L 245.173457 349.082559 
L 246.162681 347.970986 
L 253.674068 347.970986 
L 255.813239 347.415199 
L 258.321638 347.415199 
L 258.887305 346.859412 
L 259.060292 346.303626 
L 259.582465 345.747839 
L 268.220424 345.747839 
L 269.801944 345.192052 
L 270.806248 344.636266 
L 295.369295 344.636266 
L 300.883106 344.080479 
L 300.948983 343.524692 
L 304.701938 343.524692 
L 307.909663 342.968906 
L 313.579277 342.968906 
L 314.058352 342.413119 
L 323.71395 342.413119 
L 331.272403 341.857332 
L 331.344946 341.301546 
L 332.333099 341.301546 
L 334.335159 340.745759 
L 334.446832 339.078399 
L 334.534932 338.522612 
L 338.716881 337.966826 
L 338.967292 337.411039 
L 339.067099 336.299466 
L 339.445851 335.743679 
L 353.054336 335.743679 
L 356.920274 335.187892 
L 359.38121 334.632106 
L 361.309099 334.632106 
L 365.77908 334.076319 
L 366.11521 331.853172 
L 366.387806 331.853172 
L 367.030501 330.741599 
L 375.509126 330.185812 
L 375.778983 329.630026 
L 375.858591 329.074239 
L 377.649845 329.074239 
L 379.341332 328.518452 
L 379.535748 327.962666 
L 379.66778 326.851092 
L 380.787408 326.295306 
L 380.869595 325.739519 
L 382.912412 325.183732 
L 385.597646 324.627946 
L 385.78861 324.072159 
L 385.792657 323.516372 
L 386.332768 322.960586 
L 386.42817 322.404799 
L 390.323356 321.849012 
L 391.02165 321.293226 
L 407.419701 321.293226 
L 410.139065 320.737439 
L 410.386539 320.181652 
L 421.500357 320.181652 
L 421.923794 319.070079 
L 426.554339 319.070079 
L 427.952356 318.514292 
L 428.020654 317.402719 
L 428.379643 316.846932 
L 430.756725 316.291146 
L 430.81026 315.735359 
L 431.097181 315.179572 
L 431.149129 313.512212 
L 431.391206 312.956426 
L 431.718725 312.956426 
L 431.730789 312.400639 
L 433.715229 311.844852 
L 434.495393 311.289066 
L 434.684174 310.733279 
L 438.25946 310.177492 
L 440.894295 310.177492 
L 441.809229 309.621706 
L 451.715556 309.621706 
L 454.997452 309.065919 
L 455.010508 308.510132 
L 455.60074 307.954346 
L 463.328648 307.954346 
L 465.496947 307.398559 
L 466.390174 306.842772 
L 466.628521 305.731199 
L 472.879596 305.731199 
L 473.305494 305.175412 
L 476.738153 305.175412 
L 478.381542 304.619626 
L 483.063598 304.619626 
L 485.894119 304.063839 
L 491.772197 304.063839 
L 492.494659 303.508052 
L 495.402883 303.508052 
L 496.194476 302.952266 
L 496.537869 302.396479 
L 496.707006 301.840692 
L 499.100914 301.840692 
L 499.168973 300.729119 
L 500.042913 300.729119 
L 500.616716 299.061759 
L 502.699098 299.061759 
L 502.957724 298.505972 
L 503.15849 298.505972 
L 504.155214 297.950186 
L 505.809238 297.950186 
L 505.867297 297.394399 
L 507.069668 297.394399 
L 507.361709 296.838612 
L 508.491814 296.838612 
L 510.222112 295.727039 
L 510.972751 295.727039 
L 513.875895 294.615466 
L 513.88026 294.059679 
L 514.434538 293.503892 
L 515.848747 292.948106 
L 516.068641 292.392319 
L 517.478643 291.836532 
L 519.783538 291.836532 
L 520.123478 291.280746 
L 520.32095 290.724959 
L 523.362316 290.724959 
L 523.442123 290.169172 
L 524.242962 290.169172 
L 524.304434 289.613386 
L 524.743904 289.057599 
L 526.27304 289.057599 
L 526.389356 288.501812 
L 526.651316 288.501812 
L 526.716399 287.946026 
L 526.822 287.946026 
L 526.825572 287.390239 
L 528.975855 287.390239 
L 529.401673 286.834452 
L 529.759234 286.834452 
L 529.972937 286.278666 
L 530.518682 286.278666 
L 530.927277 285.722879 
L 531.013433 285.167092 
L 531.130226 285.167092 
L 533.184194 284.611306 
L 534.721227 284.611306 
L 534.837583 284.055519 
L 540.900791 284.055519 
L 540.92988 283.499732 
L 541.27105 283.499732 
L 541.949899 282.388159 
L 544.121651 282.388159 
L 544.311543 280.720799 
L 544.366943 279.609226 
L 544.724861 279.053439 
L 546.164984 279.053439 
L 546.84419 278.497652 
L 547.502521 278.497652 
L 547.714796 277.941866 
L 548.735291 277.386079 
L 549.679552 277.386079 
L 551.577876 276.830292 
L 551.604624 276.274506 
L 552.184736 276.274506 
L 552.280893 275.718719 
L 553.968411 275.718719 
L 554.015279 275.162932 
L 562.199125 275.162932 
L 562.325561 274.607146 
L 562.569027 274.607146 
L 562.67697 273.495572 
L 563.730761 273.495572 
L 563.815766 272.939786 
L 563.95502 272.939786 
L 564.684904 272.383999 
L 564.868367 271.828212 
L 565.203584 271.828212 
L 565.487251 271.272426 
L 565.579717 270.716639 
L 569.691899 270.716639 
L 570.729856 270.160852 
L 570.934868 269.049279 
L 571.187502 268.493492 
L 571.609232 268.493492 
L 571.866271 267.937706 
L 577.767723 267.937706 
L 578.157309 266.270346 
L 578.963665 266.270346 
L 579.082045 265.714559 
L 582.232981 265.714559 
L 582.309295 264.602986 
L 586.09372 264.602986 
L 586.132929 264.047199 
L 587.955971 264.047199 
L 587.968234 263.491412 
L 588.855983 263.491412 
L 588.879993 262.935626 
L 591.582411 262.935626 
L 591.716823 262.379839 
L 591.888063 262.379839 
L 592.128196 261.824052 
L 592.615645 261.824052 
L 592.628305 261.268266 
L 592.938164 261.268266 
L 593.529269 260.712479 
L 598.303672 260.712479 
L 598.650677 260.156692 
L 600.067306 260.156692 
L 600.069925 259.600906 
L 610.900948 259.600906 
L 612.739269 259.045119 
L 612.792565 258.489332 
L 613.723214 257.933546 
L 615.138336 257.933546 
L 615.238858 256.821972 
L 615.494825 256.821972 
L 615.601379 256.266186 
L 619.359691 256.266186 
L 620.038381 255.710399 
L 626.539273 255.710399 
L 626.559274 255.154612 
L 628.682532 255.154612 
L 629.589925 254.598826 
L 639.583519 254.598826 
L 639.708248 253.487252 
L 643.638555 253.487252 
L 644.420306 252.931466 
L 645.257458 252.931466 
L 646.280851 252.375679 
L 653.045488 252.375679 
L 653.693263 251.819892 
L 654.254565 251.819892 
L 654.52978 251.264106 
L 656.684746 250.708319 
L 657.739648 250.708319 
L 658.083636 250.152532 
L 658.195587 250.152532 
L 661.223103 249.596746 
L 666.797354 249.596746 
L 667.23357 249.040959 
L 688.748663 249.040959 
L 689.53478 248.485172 
L 694.510186 248.485172 
L 694.689998 247.929386 
L 695.013191 247.929386 
L 695.110618 247.373599 
L 722.896153 247.373599 
L 723.787553 246.817812 
L 730.421786 246.817812 
L 731.862941 246.262026 
L 731.959534 245.706239 
L 735.411281 245.706239 
L 735.554503 245.150452 
L 746.73507 245.150452 
L 746.757968 244.594666 
L 756.196212 244.594666 
L 756.297806 244.038879 
L 756.910817 243.483092 
L 759.226903 243.483092 
L 759.232221 242.927306 
L 759.702883 242.371519 
L 763.180346 242.371519 
L 764.329222 241.815732 
L 771.744413 241.815732 
L 771.796638 240.704159 
L 812.012614 240.704159 
L 812.012614 240.704159 
" clip-path="url(#p2371b67d55)" style="fill: none; stroke: #0969da; stroke-width: 2; stroke-linecap: square"/>
   </g>
   <g id="line2d_35">
    <path d="M 85.239886 455.237812 
L 88.534997 455.237812 
L 88.547617 454.126239 
L 91.267933 454.126239 
L 91.889239 453.570452 
L 259.582465 453.570452 
L 261.419436 453.014666 
L 307.909663 453.014666 
L 309.199857 452.458879 
L 353.054336 452.458879 
L 356.920274 451.903092 
L 367.030501 451.903092 
L 375.858591 450.235732 
L 377.649845 449.124159 
L 380.869595 449.124159 
L 382.912412 448.568372 
L 385.792657 448.012586 
L 386.42817 448.012586 
L 390.323356 447.456799 
L 391.02165 446.901012 
L 394.148815 446.345226 
L 400.261708 445.789439 
L 400.297067 446.345226 
L 410.386539 446.345226 
L 411.094914 445.789439 
L 425.493762 445.789439 
L 426.554339 445.233652 
L 431.391206 445.233652 
L 431.730789 444.677866 
L 437.738359 444.677866 
L 438.25946 444.122079 
L 460.26728 444.122079 
L 462.328748 443.566292 
L 463.195148 443.566292 
L 463.328648 443.010506 
L 469.20236 443.010506 
L 469.207956 442.454719 
L 483.041732 442.454719 
L 483.063598 441.898932 
L 487.094267 441.898932 
L 488.121866 441.343146 
L 489.635764 440.787359 
L 489.638422 440.231572 
L 489.87669 440.231572 
L 491.772197 438.564212 
L 493.049096 438.564212 
L 493.122592 436.896852 
L 493.615994 436.896852 
L 495.402883 437.452639 
L 496.687957 437.452639 
L 496.707006 435.229492 
L 501.491846 435.229492 
L 502.202958 434.673706 
L 502.957724 434.673706 
L 503.15849 434.117919 
L 520.32095 434.117919 
L 520.551281 433.562132 
L 521.415894 433.562132 
L 522.758234 433.006346 
L 528.680441 433.006346 
L 528.975855 432.450559 
L 531.013433 432.450559 
L 531.130226 431.894772 
L 537.878314 431.894772 
L 538.014155 431.338986 
L 538.498945 431.338986 
L 538.99064 430.783199 
L 539.481859 430.783199 
L 539.510988 430.227412 
L 541.599759 430.227412 
L 541.724489 429.671626 
L 551.421438 429.671626 
L 551.488704 429.115839 
L 551.604624 429.115839 
L 551.704153 428.560052 
L 552.280893 428.560052 
L 553.489931 428.004266 
L 558.216752 428.004266 
L 558.220919 427.448479 
L 559.124106 427.448479 
L 559.158473 426.892692 
L 561.722232 426.892692 
L 562.260755 426.336906 
L 565.677342 426.336906 
L 566.668272 425.781119 
L 568.595407 425.781119 
L 568.615845 424.669546 
L 568.772124 424.669546 
L 568.968802 424.113759 
L 572.068941 424.113759 
L 572.547302 423.557972 
L 573.290877 423.557972 
L 573.570576 423.002186 
L 575.385522 423.002186 
L 575.638949 422.446399 
L 575.642204 421.890612 
L 576.153027 421.890612 
L 576.367523 421.334826 
L 595.918336 421.334826 
L 595.959846 420.223252 
L 598.650677 420.223252 
L 599.425126 419.667466 
L 600.069925 419.667466 
L 603.094743 419.111679 
L 603.656164 419.111679 
L 604.859091 418.555892 
L 605.664336 418.555892 
L 606.317628 418.000106 
L 606.978499 418.555892 
L 609.105963 418.555892 
L 609.684489 418.000106 
L 609.816917 416.888532 
L 610.893686 416.332746 
L 610.900948 415.221172 
L 615.601379 415.221172 
L 616.629335 414.665386 
L 616.733508 412.998026 
L 617.760948 412.442239 
L 618.329155 411.886452 
L 623.188881 411.886452 
L 623.395083 410.219092 
L 623.642955 410.219092 
L 623.826735 409.663306 
L 625.014423 409.107519 
L 626.883936 409.107519 
L 627.269077 408.551732 
L 627.356701 407.995946 
L 627.55322 407.995946 
L 628.682532 406.884372 
L 629.892483 406.884372 
L 630.289767 406.328586 
L 631.685483 406.328586 
L 631.690086 405.217012 
L 632.646213 405.217012 
L 633.915533 404.661226 
L 637.278386 403.549652 
L 637.578601 402.993866 
L 644.420306 402.993866 
L 645.257458 401.882292 
L 658.039586 401.882292 
L 658.195587 400.770719 
L 664.417177 400.770719 
L 665.367787 400.214932 
L 668.252517 400.214932 
L 668.414432 399.659146 
L 686.161608 399.659146 
L 686.444879 399.103359 
L 688.202758 399.103359 
L 688.748663 398.547572 
L 692.029408 398.547572 
L 692.646428 397.991786 
L 692.650476 397.435999 
L 693.356151 396.880212 
L 695.508498 396.880212 
L 695.672872 396.324426 
L 695.684659 395.212852 
L 695.696366 395.768639 
L 697.142719 395.212852 
L 702.362545 395.212852 
L 703.392168 394.101279 
L 712.810371 394.101279 
L 713.538548 393.545492 
L 715.823323 393.545492 
L 716.00623 392.989706 
L 716.031391 392.433919 
L 723.787553 392.433919 
L 728.604181 391.322346 
L 729.747422 391.322346 
L 730.421786 390.766559 
L 740.398871 390.766559 
L 741.625211 390.210772 
L 743.144783 390.210772 
L 744.616495 389.654986 
L 756.910817 389.654986 
L 757.248218 389.099199 
L 757.250043 388.543412 
L 764.133139 388.543412 
L 764.329222 387.987626 
L 795.045085 387.987626 
L 798.969995 387.431839 
L 807.979523 387.431839 
L 809.950352 386.876052 
L 811.68442 386.876052 
L 812.012614 386.320266 
L 812.012614 386.320266 
" clip-path="url(#p2371b67d55)" style="fill: none; stroke: #bf8700; stroke-width: 2; stroke-linecap: square"/>
   </g>
   <g id="line2d_36">
    <path d="M 85.239886 454.682026 
L 85.521728 454.682026 
L 85.646537 432.450559 
L 86.298797 426.892692 
L 86.671517 425.781119 
L 86.860615 426.336906 
L 87.205714 425.781119 
L 87.789359 425.225332 
L 88.194303 424.113759 
L 88.534997 423.557972 
L 88.547617 423.002186 
L 88.874739 421.334826 
L 89.304764 421.334826 
L 89.889877 420.779039 
L 89.894203 420.223252 
L 90.365302 419.667466 
L 90.378358 419.111679 
L 90.565472 419.111679 
L 91.267933 418.555892 
L 91.769827 418.000106 
L 91.889239 411.886452 
L 91.971823 412.442239 
L 92.17374 408.551732 
L 92.51487 402.993866 
L 95.351304 402.993866 
L 95.378211 402.438079 
L 95.613542 399.659146 
L 95.682554 402.438079 
L 96.002294 397.991786 
L 96.160637 397.435999 
L 97.340348 396.880212 
L 97.375945 396.324426 
L 97.63223 395.768639 
L 97.871331 395.768639 
L 98.478866 395.212852 
L 98.803409 394.657066 
L 98.935797 394.101279 
L 99.039811 392.989706 
L 99.343003 392.433919 
L 99.350504 391.878132 
L 99.655442 392.433919 
L 99.742233 391.878132 
L 99.752908 392.433919 
L 99.765686 390.766559 
L 102.592596 390.766559 
L 106.944911 402.993866 
L 107.592488 390.210772 
L 107.930008 389.654986 
L 109.755669 389.654986 
L 110.064853 389.099199 
L 110.726518 388.543412 
L 112.141283 402.993866 
L 112.233074 387.987626 
L 113.318692 387.431839 
L 115.640295 386.876052 
L 115.80586 387.431839 
L 116.109409 386.320266 
L 116.144054 385.764479 
L 116.889295 385.764479 
L 117.115737 385.208692 
L 117.54342 384.652906 
L 117.578899 383.541332 
L 117.973406 382.429759 
L 117.996264 382.985546 
L 118.23092 382.985546 
L 118.359579 381.873972 
L 118.755633 379.650826 
L 118.8077 378.539252 
L 119.315824 376.871892 
L 119.564172 377.983466 
L 121.320147 374.648746 
L 121.782515 375.760319 
L 123.685323 373.537172 
L 125.192751 377.427679 
L 125.72179 373.537172 
L 127.894495 371.869812 
L 131.098252 371.869812 
L 131.521371 371.314026 
L 131.858097 369.646666 
L 132.804303 371.314026 
L 136.663891 371.869812 
L 137.621327 369.646666 
L 138.085402 367.979306 
L 138.878701 369.646666 
L 140.672416 367.979306 
L 146.764673 367.979306 
L 153.170718 367.423519 
L 153.597925 366.867732 
L 157.642246 366.311946 
L 160.316528 366.311946 
L 160.814335 365.756159 
L 160.922634 366.311946 
L 163.76764 364.644586 
L 166.436167 364.644586 
L 166.498115 364.088799 
L 167.950818 363.533012 
L 171.455267 363.533012 
L 173.00115 359.642506 
L 174.151732 359.086719 
L 175.632255 358.530932 
L 175.660986 357.975146 
L 181.209918 357.975146 
L 181.317107 354.084639 
L 181.522476 354.084639 
L 181.703875 352.973066 
L 183.746851 352.973066 
L 184.364466 352.417279 
L 187.366941 352.417279 
L 191.537579 351.861492 
L 191.746162 363.533012 
L 191.756401 352.417279 
L 192.02352 351.861492 
L 193.509915 351.861492 
L 195.765522 351.305706 
L 198.03859 351.305706 
L 199.84421 350.749919 
L 204.821442 349.638346 
L 207.689584 349.638346 
L 209.994638 349.082559 
L 210.353309 346.303626 
L 210.596061 346.303626 
L 211.02561 345.747839 
L 213.266176 345.192052 
L 213.784103 342.968906 
L 216.88075 341.857332 
L 216.918054 342.413119 
L 217.209817 341.857332 
L 221.181078 340.745759 
L 224.160536 340.189972 
L 225.584071 340.189972 
L 226.84581 339.634186 
L 227.939247 338.522612 
L 229.098996 337.966826 
L 229.518505 337.411039 
L 232.254655 337.966826 
L 234.78365 336.855252 
L 235.077159 337.411039 
L 235.749301 337.411039 
L 235.88419 336.855252 
L 237.685762 336.299466 
L 238.823209 336.855252 
L 240.908687 335.743679 
L 242.269797 335.743679 
L 245.173457 335.187892 
L 245.654953 335.743679 
L 246.162681 334.076319 
L 247.924489 334.076319 
L 248.273081 333.520532 
L 249.515057 331.853172 
L 250.218788 330.185812 
L 251.331869 330.741599 
L 251.822215 329.630026 
L 251.871265 329.074239 
L 255.813239 329.074239 
L 257.809743 328.518452 
L 258.321638 327.962666 
L 261.419436 327.962666 
L 263.599165 327.406879 
L 267.301403 327.406879 
L 268.220424 326.851092 
L 278.400933 326.851092 
L 278.98561 326.295306 
L 279.044185 325.739519 
L 279.440081 325.183732 
L 283.858511 325.183732 
L 284.133884 324.627946 
L 285.258036 324.072159 
L 285.45273 323.516372 
L 287.315219 322.960586 
L 288.66986 322.404799 
L 294.097277 322.404799 
L 295.369295 321.293226 
L 300.948983 321.293226 
L 302.191594 320.737439 
L 307.391657 320.737439 
L 307.909663 320.181652 
L 309.199857 319.625866 
L 309.583927 319.070079 
L 309.714331 318.514292 
L 313.579277 317.958506 
L 314.058352 318.514292 
L 319.146305 317.402719 
L 323.169117 316.291146 
L 323.71395 315.735359 
L 331.344946 315.735359 
L 332.333099 315.179572 
L 339.445851 315.179572 
L 346.145921 314.623786 
L 346.988668 314.067999 
L 349.800537 313.512212 
L 352.620343 312.956426 
L 353.054336 312.400639 
L 359.38121 312.400639 
L 361.309099 311.844852 
L 375.858591 311.844852 
L 377.649845 311.289066 
L 389.66812 311.289066 
L 390.323356 310.733279 
L 391.02165 311.289066 
L 394.148815 310.733279 
L 404.672995 310.733279 
L 406.083315 310.177492 
L 428.346784 310.177492 
L 428.379643 309.621706 
L 442.129565 309.621706 
L 445.150494 309.065919 
L 445.158232 308.510132 
L 460.260573 308.510132 
L 460.26728 307.398559 
L 469.207956 307.398559 
L 473.305494 306.842772 
L 478.381542 306.842772 
L 483.063598 305.731199 
L 492.494659 305.731199 
L 493.049096 305.175412 
L 493.122592 304.619626 
L 496.687957 304.619626 
L 496.707006 304.063839 
L 497.077225 304.063839 
L 497.667379 303.508052 
L 502.957724 303.508052 
L 503.15849 302.952266 
L 510.222112 302.952266 
L 510.511454 302.396479 
L 527.761975 302.396479 
L 528.679132 300.729119 
L 528.680441 300.173332 
L 531.124392 300.173332 
L 531.130226 299.617546 
L 538.339015 299.617546 
L 538.498945 299.061759 
L 541.949899 299.061759 
L 542.073874 298.505972 
L 554.89398 298.505972 
L 555.140503 297.950186 
L 558.11623 297.950186 
L 558.220919 297.394399 
L 559.158473 296.838612 
L 582.697731 296.838612 
L 583.923754 295.727039 
L 585.758939 295.727039 
L 586.132929 295.171252 
L 587.968234 295.171252 
L 588.240233 294.615466 
L 592.576476 294.615466 
L 592.628305 294.059679 
L 616.627311 294.059679 
L 616.733508 292.948106 
L 646.731313 292.948106 
L 647.510406 292.392319 
L 698.728287 292.392319 
L 701.134656 291.836532 
L 722.779717 291.836532 
L 722.896153 291.280746 
L 732.586594 291.280746 
L 733.057613 290.724959 
L 812.012614 290.724959 
L 812.012614 290.724959 
" clip-path="url(#p2371b67d55)" style="fill: none; stroke: #cf222e; stroke-width: 2; stroke-linecap: square"/>
   </g>
   <g id="line2d_37">
    <path d="M 85.239886 454.682026 
L 85.262308 454.126239 
L 85.439088 -1 
M 85.597976 -1 
L 85.646537 101.201706 
L 88.534997 101.201706 
L 88.547617 97.866986 
L 91.889239 97.866986 
L 92.050955 98.422772 
L 92.51487 98.422772 
L 92.890845 98.978559 
L 95.220543 99.534346 
L 95.266537 98.978559 
L 95.378211 99.534346 
L 102.592596 99.534346 
L 106.944911 98.422772 
L 107.592488 99.534346 
L 107.930008 98.978559 
L 108.065333 98.978559 
L 109.257068 99.534346 
L 109.755669 96.755412 
L 110.726518 96.755412 
L 112.141283 98.422772 
L 112.233074 95.643839 
L 113.318692 96.199626 
L 116.144054 96.199626 
L 116.889295 95.088052 
L 117.996264 95.088052 
L 118.292988 91.197546 
L 125.192751 91.197546 
L 125.695995 87.862826 
L 125.72179 86.751252 
L 127.894495 86.751252 
L 131.098252 82.860746 
L 132.778865 82.860746 
L 132.804303 83.416532 
L 136.663891 83.416532 
L 137.621327 80.081812 
L 140.651383 80.081812 
L 140.672416 80.637599 
L 157.642246 80.637599 
L 160.814335 81.193386 
L 160.922634 80.637599 
L 164.212507 81.193386 
L 175.660986 81.193386 
L 181.209918 81.749172 
L 181.317107 74.523946 
L 181.580694 75.079732 
L 184.711033 75.079732 
L 186.043333 75.635519 
L 191.537579 75.635519 
L 191.746162 80.637599 
L 191.756401 71.745012 
L 192.02352 71.745012 
L 193.349945 73.968159 
L 199.84421 73.968159 
L 204.821442 70.077652 
L 210.353309 70.077652 
L 210.596061 68.410292 
L 224.970583 68.410292 
L 225.584071 68.966079 
L 229.074392 68.966079 
L 229.098996 70.077652 
L 235.749301 70.077652 
L 235.88419 73.412372 
L 246.162681 73.412372 
L 246.408171 68.410292 
L 247.920878 67.298719 
L 247.924489 67.854506 
L 248.273081 67.854506 
L 249.515057 65.075572 
L 251.331869 65.075572 
L 251.822215 65.631359 
L 251.871265 65.075572 
L 252.994108 65.631359 
L 252.999227 66.187146 
L 253.025459 65.631359 
L 253.674068 63.408212 
L 259.582465 63.408212 
L 261.419436 63.963999 
L 263.599165 63.963999 
L 267.301403 64.519786 
L 270.806248 64.519786 
L 273.514103 65.631359 
L 279.044185 65.075572 
L 279.440081 65.075572 
L 282.887264 66.187146 
L 283.858511 65.631359 
L 288.66986 65.631359 
L 294.094341 67.854506 
L 294.097277 67.298719 
L 302.191594 67.298719 
L 304.701938 67.854506 
L 349.439246 67.854506 
L 349.800537 68.410292 
L 352.600223 68.410292 
L 352.620343 66.742932 
L 366.11521 66.742932 
L 366.387806 67.298719 
L 394.148815 67.298719 
L 400.261708 67.854506 
L 400.297067 67.298719 
L 404.672995 68.966079 
L 406.083315 68.966079 
L 407.419701 68.410292 
L 411.094914 68.410292 
L 414.601505 68.966079 
L 414.60726 69.521866 
L 424.549779 67.854506 
L 425.493762 68.410292 
L 437.738359 68.410292 
L 438.25946 67.854506 
L 439.214039 68.410292 
L 439.542074 70.633439 
L 445.153391 70.633439 
L 445.158232 71.189226 
L 462.328748 71.189226 
L 463.328648 71.745012 
L 466.628521 71.745012 
L 466.950444 72.300799 
L 483.041732 72.300799 
L 483.063598 72.856586 
L 485.894119 72.856586 
L 487.088275 73.412372 
L 487.094267 73.968159 
L 488.070871 73.412372 
L 488.121866 73.968159 
L 489.638422 73.968159 
L 489.87669 74.523946 
L 493.049096 74.523946 
L 493.122592 73.412372 
L 493.615994 74.523946 
L 495.402883 72.856586 
L 499.723886 72.856586 
L 500.042913 71.189226 
L 501.491846 71.189226 
L 502.202958 72.300799 
L 505.867297 72.300799 
L 507.069668 72.856586 
L 507.361709 72.856586 
L 508.491814 70.077652 
L 510.511454 70.077652 
L 510.972751 70.633439 
L 520.32095 70.633439 
L 520.551281 71.189226 
L 521.415894 71.189226 
L 522.758234 71.745012 
L 537.878314 71.745012 
L 538.014155 72.300799 
L 538.498945 72.300799 
L 539.510988 73.412372 
L 540.92988 73.412372 
L 541.27105 72.856586 
L 541.599759 72.856586 
L 541.724489 73.412372 
L 545.518994 73.412372 
L 546.164984 73.968159 
L 549.467794 73.968159 
L 549.679552 74.523946 
L 551.488704 74.523946 
L 551.604624 75.079732 
L 557.227052 75.079732 
L 557.347932 75.635519 
L 560.62701 75.635519 
L 561.722232 77.858666 
L 562.936509 77.858666 
L 562.937779 78.414452 
L 567.868222 78.414452 
L 568.772124 78.970239 
L 572.547302 78.970239 
L 573.290877 79.526026 
L 576.153027 79.526026 
L 576.367523 80.081812 
L 581.022118 80.081812 
L 582.221909 80.637599 
L 582.309295 81.193386 
L 582.697731 81.193386 
L 583.923754 60.629279 
L 587.725997 60.629279 
L 587.75338 61.185066 
L 587.968234 61.185066 
L 588.240233 60.629279 
L 591.372002 60.629279 
L 591.582411 61.185066 
L 592.128196 61.185066 
L 592.54199 61.740852 
L 592.628305 61.185066 
L 594.314831 61.185066 
L 594.328006 61.740852 
L 594.693583 61.740852 
L 594.853671 62.296639 
L 595.959846 62.852426 
L 603.656164 62.852426 
L 604.859091 63.408212 
L 605.664336 63.408212 
L 606.317628 63.963999 
L 606.978499 63.408212 
L 609.699569 63.408212 
L 609.816917 64.519786 
L 613.723214 64.519786 
L 615.238858 66.187146 
L 631.690086 66.187146 
L 632.646213 66.742932 
L 658.039586 66.742932 
L 658.083636 67.298719 
L 695.508498 67.298719 
L 695.672872 67.854506 
L 695.684659 68.410292 
L 695.696366 67.854506 
L 701.134656 67.854506 
L 702.362545 68.410292 
L 723.787553 68.410292 
L 728.604181 68.966079 
L 729.737937 69.521866 
L 729.747422 67.854506 
L 764.133139 67.854506 
L 764.329222 68.410292 
L 795.045085 68.410292 
L 798.969995 68.966079 
L 801.370808 68.966079 
L 801.631339 69.521866 
L 803.300007 70.077652 
L 807.979523 70.077652 
L 809.950352 70.633439 
L 812.012614 70.633439 
L 812.012614 70.633439 
" clip-path="url(#p2371b67d55)" style="fill: none; stroke: #9467bd; stroke-width: 2; stroke-linecap: square"/>
   </g>
   <g id="patch_3">
    <path d="M 48.90125 455.237812 
L 48.90125 38.397812 
" style="fill: none; stroke: #d0d7de; stroke-width: 0.8; stroke-linejoin: miter; stroke-linecap: square"/>
   </g>
   <g id="patch_4">
    <path d="M 848.35125 455.237812 
L 848.35125 38.397812 
" style="fill: none; stroke: #d0d7de; stroke-width: 0.8; stroke-linejoin: miter; stroke-linecap: square"/>
   </g>
   <g id="patch_5">
    <path d="M 48.90125 455.237812 
L 848.35125 455.237812 
" style="fill: none; stroke: #d0d7de; stroke-width: 0.8; stroke-linejoin: miter; stroke-linecap: square"/>
   </g>
   <g id="patch_6">
    <path d="M 48.90125 38.397812 
L 848.35125 38.397812 
" style="fill: none; stroke: #d0d7de; stroke-width: 0.8; stroke-linejoin: miter; stroke-linecap: square"/>
   </g>
   <g id="text_19">
    <!-- 491 -->
    <g style="fill: #1a7f37" transform="translate(817.012614 184.829997) scale(0.09 -0.09)">
     <defs>
      <path id="DejaVuSans-Bold-34" d="M 2356 3675 
L 1038 1722 
L 2356 1722 
L 2356 3675 
z
M 2156 4666 
L 3494 4666 
L 3494 1722 
L 4159 1722 
L 4159 850 
L 3494 850 
L 3494 0 
L 2356 0 
L 2356 850 
L 288 850 
L 288 1881 
L 2156 4666 
z
" transform="scale(0.015625)"/>
      <path id="DejaVuSans-Bold-39" d="M 641 103 
L 641 966 
Q 928 831 1190 764 
Q 1453 697 1709 697 
Q 2247 697 2547 995 
Q 2847 1294 2900 1881 
Q 2688 1725 2447 1647 
Q 2206 1569 1925 1569 
Q 1209 1569 770 1986 
Q 331 2403 331 3084 
Q 331 3838 820 4291 
Q 1309 4744 2131 4744 
Q 3044 4744 3544 4128 
Q 4044 3513 4044 2388 
Q 4044 1231 3459 570 
Q 2875 -91 1856 -91 
Q 1528 -91 1228 -42 
Q 928 6 641 103 
z
M 2125 2350 
Q 2441 2350 2600 2554 
Q 2759 2759 2759 3169 
Q 2759 3575 2600 3781 
Q 2441 3988 2125 3988 
Q 1809 3988 1650 3781 
Q 1491 3575 1491 3169 
Q 1491 2759 1650 2554 
Q 1809 2350 2125 2350 
z
" transform="scale(0.015625)"/>
      <path id="DejaVuSans-Bold-31" d="M 750 831 
L 1813 831 
L 1813 3847 
L 722 3622 
L 722 4441 
L 1806 4666 
L 2950 4666 
L 2950 831 
L 4013 831 
L 4013 0 
L 750 0 
L 750 831 
z
" transform="scale(0.015625)"/>
     </defs>
     <use xlink:href="#DejaVuSans-Bold-34"/>
     <use xlink:href="#DejaVuSans-Bold-39" transform="translate(69.580078 0)"/>
     <use xlink:href="#DejaVuSans-Bold-31" transform="translate(139.160156 0)"/>
    </g>
   </g>
   <g id="text_20">
    <!-- 386 -->
    <g style="fill: #0969da" transform="translate(817.012614 243.187597) scale(0.09 -0.09)">
     <defs>
      <path id="DejaVuSans-Bold-33" d="M 2981 2516 
Q 3453 2394 3698 2092 
Q 3944 1791 3944 1325 
Q 3944 631 3412 270 
Q 2881 -91 1863 -91 
Q 1503 -91 1142 -33 
Q 781 25 428 141 
L 428 1069 
Q 766 900 1098 814 
Q 1431 728 1753 728 
Q 2231 728 2486 893 
Q 2741 1059 2741 1369 
Q 2741 1688 2480 1852 
Q 2219 2016 1709 2016 
L 1228 2016 
L 1228 2791 
L 1734 2791 
Q 2188 2791 2409 2933 
Q 2631 3075 2631 3366 
Q 2631 3634 2415 3781 
Q 2200 3928 1806 3928 
Q 1516 3928 1219 3862 
Q 922 3797 628 3669 
L 628 4550 
Q 984 4650 1334 4700 
Q 1684 4750 2022 4750 
Q 2931 4750 3382 4451 
Q 3834 4153 3834 3553 
Q 3834 3144 3618 2883 
Q 3403 2622 2981 2516 
z
" transform="scale(0.015625)"/>
      <path id="DejaVuSans-Bold-38" d="M 2228 2088 
Q 1891 2088 1709 1903 
Q 1528 1719 1528 1375 
Q 1528 1031 1709 848 
Q 1891 666 2228 666 
Q 2563 666 2741 848 
Q 2919 1031 2919 1375 
Q 2919 1722 2741 1905 
Q 2563 2088 2228 2088 
z
M 1350 2484 
Q 925 2613 709 2878 
Q 494 3144 494 3541 
Q 494 4131 934 4440 
Q 1375 4750 2228 4750 
Q 3075 4750 3515 4442 
Q 3956 4134 3956 3541 
Q 3956 3144 3739 2878 
Q 3522 2613 3097 2484 
Q 3572 2353 3814 2058 
Q 4056 1763 4056 1313 
Q 4056 619 3595 264 
Q 3134 -91 2228 -91 
Q 1319 -91 855 264 
Q 391 619 391 1313 
Q 391 1763 633 2058 
Q 875 2353 1350 2484 
z
M 1631 3419 
Q 1631 3141 1786 2991 
Q 1941 2841 2228 2841 
Q 2509 2841 2662 2991 
Q 2816 3141 2816 3419 
Q 2816 3697 2662 3845 
Q 2509 3994 2228 3994 
Q 1941 3994 1786 3844 
Q 1631 3694 1631 3419 
z
" transform="scale(0.015625)"/>
      <path id="DejaVuSans-Bold-36" d="M 2316 2303 
Q 2000 2303 1842 2098 
Q 1684 1894 1684 1484 
Q 1684 1075 1842 870 
Q 2000 666 2316 666 
Q 2634 666 2792 870 
Q 2950 1075 2950 1484 
Q 2950 1894 2792 2098 
Q 2634 2303 2316 2303 
z
M 3803 4544 
L 3803 3681 
Q 3506 3822 3243 3889 
Q 2981 3956 2731 3956 
Q 2194 3956 1894 3657 
Q 1594 3359 1544 2772 
Q 1750 2925 1990 3001 
Q 2231 3078 2516 3078 
Q 3231 3078 3670 2659 
Q 4109 2241 4109 1563 
Q 4109 813 3618 361 
Q 3128 -91 2303 -91 
Q 1394 -91 895 523 
Q 397 1138 397 2266 
Q 397 3422 980 4083 
Q 1563 4744 2578 4744 
Q 2900 4744 3203 4694 
Q 3506 4644 3803 4544 
z
" transform="scale(0.015625)"/>
     </defs>
     <use xlink:href="#DejaVuSans-Bold-33"/>
     <use xlink:href="#DejaVuSans-Bold-38" transform="translate(69.580078 0)"/>
     <use xlink:href="#DejaVuSans-Bold-36" transform="translate(139.160156 0)"/>
    </g>
   </g>
   <g id="text_21">
    <!-- 124 -->
    <g style="fill: #bf8700" transform="translate(817.012614 388.803703) scale(0.09 -0.09)">
     <defs>
      <path id="DejaVuSans-Bold-32" d="M 1844 884 
L 3897 884 
L 3897 0 
L 506 0 
L 506 884 
L 2209 2388 
Q 2438 2594 2547 2791 
Q 2656 2988 2656 3200 
Q 2656 3528 2436 3728 
Q 2216 3928 1850 3928 
Q 1569 3928 1234 3808 
Q 900 3688 519 3450 
L 519 4475 
Q 925 4609 1322 4679 
Q 1719 4750 2100 4750 
Q 2938 4750 3402 4381 
Q 3866 4013 3866 3353 
Q 3866 2972 3669 2642 
Q 3472 2313 2841 1759 
L 1844 884 
z
" transform="scale(0.015625)"/>
     </defs>
     <use xlink:href="#DejaVuSans-Bold-31"/>
     <use xlink:href="#DejaVuSans-Bold-32" transform="translate(69.580078 0)"/>
     <use xlink:href="#DejaVuSans-Bold-34" transform="translate(139.160156 0)"/>
    </g>
   </g>
   <g id="text_22">
    <!-- 296 -->
    <g style="fill: #cf222e" transform="translate(817.012614 293.208397) scale(0.09 -0.09)">
     <use xlink:href="#DejaVuSans-Bold-32"/>
     <use xlink:href="#DejaVuSans-Bold-39" transform="translate(69.580078 0)"/>
     <use xlink:href="#DejaVuSans-Bold-36" transform="translate(139.160156 0)"/>
    </g>
   </g>
   <g id="text_23">
    <!-- 692 -->
    <g style="fill: #9467bd" transform="translate(817.012614 73.116877) scale(0.09 -0.09)">
     <use xlink:href="#DejaVuSans-Bold-36"/>
     <use xlink:href="#DejaVuSans-Bold-39" transform="translate(69.580078 0)"/>
     <use xlink:href="#DejaVuSans-Bold-32" transform="translate(139.160156 0)"/>
    </g>
   </g>
   <g id="text_24">
    <!-- Erdős Problems Progress -->
    <g style="fill: #24292f" transform="translate(349.588281 18.397812) scale(0.14 -0.14)">
     <defs>
      <path id="DejaVuSans-Bold-45" d="M 588 4666 
L 3834 4666 
L 3834 3756 
L 1791 3756 
L 1791 2888 
L 3713 2888 
L 3713 1978 
L 1791 1978 
L 1791 909 
L 3903 909 
L 3903 0 
L 588 0 
L 588 4666 
z
" transform="scale(0.015625)"/>
      <path id="DejaVuSans-Bold-72" d="M 3138 2547 
Q 2991 2616 2845 2648 
Q 2700 2681 2553 2681 
Q 2122 2681 1889 2404 
Q 1656 2128 1656 1613 
L 1656 0 
L 538 0 
L 538 3500 
L 1656 3500 
L 1656 2925 
Q 1872 3269 2151 3426 
Q 2431 3584 2822 3584 
Q 2878 3584 2943 3579 
Q 3009 3575 3134 3559 
L 3138 2547 
z
" transform="scale(0.015625)"/>
      <path id="DejaVuSans-Bold-64" d="M 2919 2988 
L 2919 4863 
L 4044 4863 
L 4044 0 
L 2919 0 
L 2919 506 
Q 2688 197 2409 53 
Q 2131 -91 1766 -91 
Q 1119 -91 703 423 
Q 288 938 288 1747 
Q 288 2556 703 3070 
Q 1119 3584 1766 3584 
Q 2128 3584 2408 3439 
Q 2688 3294 2919 2988 
z
M 2181 722 
Q 2541 722 2730 984 
Q 2919 1247 2919 1747 
Q 2919 2247 2730 2509 
Q 2541 2772 2181 2772 
Q 1825 2772 1636 2509 
Q 1447 2247 1447 1747 
Q 1447 1247 1636 984 
Q 1825 722 2181 722 
z
" transform="scale(0.015625)"/>
      <path id="DejaVuSans-Bold-151" d="M 1881 5119 
L 2560 5119 
L 1785 3944 
L 1275 3944 
L 1881 5119 
z
M 3016 5119 
L 3738 5119 
L 2888 3944 
L 2344 3944 
L 3016 5119 
z
M 2203 2784 
Q 1831 2784 1636 2517 
Q 1441 2250 1441 1747 
Q 1441 1244 1636 976 
Q 1831 709 2203 709 
Q 2569 709 2762 976 
Q 2956 1244 2956 1747 
Q 2956 2250 2762 2517 
Q 2569 2784 2203 2784 
z
M 2203 3584 
Q 3106 3584 3614 3096 
Q 4122 2609 4122 1747 
Q 4122 884 3614 396 
Q 3106 -91 2203 -91 
Q 1297 -91 786 396 
Q 275 884 275 1747 
Q 275 2609 786 3096 
Q 1297 3584 2203 3584 
z
" transform="scale(0.015625)"/>
      <path id="DejaVuSans-Bold-73" d="M 3272 3391 
L 3272 2541 
Q 2913 2691 2578 2766 
Q 2244 2841 1947 2841 
Q 1628 2841 1473 2761 
Q 1319 2681 1319 2516 
Q 1319 2381 1436 2309 
Q 1553 2238 1856 2203 
L 2053 2175 
Q 2913 2066 3209 1816 
Q 3506 1566 3506 1031 
Q 3506 472 3093 190 
Q 2681 -91 1863 -91 
Q 1516 -91 1145 -36 
Q 775 19 384 128 
L 384 978 
Q 719 816 1070 734 
Q 1422 653 1784 653 
Q 2113 653 2278 743 
Q 2444 834 2444 1013 
Q 2444 1163 2330 1236 
Q 2216 1309 1875 1350 
L 1678 1375 
Q 931 1469 631 1722 
Q 331 1975 331 2491 
Q 331 3047 712 3315 
Q 1094 3584 1881 3584 
Q 2191 3584 2531 3537 
Q 2872 3491 3272 3391 
z
" transform="scale(0.015625)"/>
      <path id="DejaVuSans-Bold-20" transform="scale(0.015625)"/>
      <path id="DejaVuSans-Bold-50" d="M 588 4666 
L 2584 4666 
Q 3475 4666 3951 4270 
Q 4428 3875 4428 3144 
Q 4428 2409 3951 2014 
Q 3475 1619 2584 1619 
L 1791 1619 
L 1791 0 
L 588 0 
L 588 4666 
z
M 1791 3794 
L 1791 2491 
L 2456 2491 
Q 2806 2491 2997 2661 
Q 3188 2831 3188 3144 
Q 3188 3456 2997 3625 
Q 2806 3794 2456 3794 
L 1791 3794 
z
" transform="scale(0.015625)"/>
      <path id="DejaVuSans-Bold-6f" d="M 2203 2784 
Q 1831 2784 1636 2517 
Q 1441 2250 1441 1747 
Q 1441 1244 1636 976 
Q 1831 709 2203 709 
Q 2569 709 2762 976 
Q 2956 1244 2956 1747 
Q 2956 2250 2762 2517 
Q 2569 2784 2203 2784 
z
M 2203 3584 
Q 3106 3584 3614 3096 
Q 4122 2609 4122 1747 
Q 4122 884 3614 396 
Q 3106 -91 2203 -91 
Q 1297 -91 786 396 
Q 275 884 275 1747 
Q 275 2609 786 3096 
Q 1297 3584 2203 3584 
z
" transform="scale(0.015625)"/>
      <path id="DejaVuSans-Bold-62" d="M 2400 722 
Q 2759 722 2948 984 
Q 3138 1247 3138 1747 
Q 3138 2247 2948 2509 
Q 2759 2772 2400 2772 
Q 2041 2772 1848 2508 
Q 1656 2244 1656 1747 
Q 1656 1250 1848 986 
Q 2041 722 2400 722 
z
M 1656 2988 
Q 1888 3294 2169 3439 
Q 2450 3584 2816 3584 
Q 3463 3584 3878 3070 
Q 4294 2556 4294 1747 
Q 4294 938 3878 423 
Q 3463 -91 2816 -91 
Q 2450 -91 2169 54 
Q 1888 200 1656 506 
L 1656 0 
L 538 0 
L 538 4863 
L 1656 4863 
L 1656 2988 
z
" transform="scale(0.015625)"/>
      <path id="DejaVuSans-Bold-6c" d="M 538 4863 
L 1656 4863 
L 1656 0 
L 538 0 
L 538 4863 
z
" transform="scale(0.015625)"/>
      <path id="DejaVuSans-Bold-65" d="M 4031 1759 
L 4031 1441 
L 1416 1441 
Q 1456 1047 1700 850 
Q 1944 653 2381 653 
Q 2734 653 3104 758 
Q 3475 863 3866 1075 
L 3866 213 
Q 3469 63 3072 -14 
Q 2675 -91 2278 -91 
Q 1328 -91 801 392 
Q 275 875 275 1747 
Q 275 2603 792 3093 
Q 1309 3584 2216 3584 
Q 3041 3584 3536 3087 
Q 4031 2591 4031 1759 
z
M 2881 2131 
Q 2881 2450 2695 2645 
Q 2509 2841 2209 2841 
Q 1884 2841 1681 2658 
Q 1478 2475 1428 2131 
L 2881 2131 
z
" transform="scale(0.015625)"/>
      <path id="DejaVuSans-Bold-6d" d="M 3781 2919 
Q 3994 3244 4286 3414 
Q 4578 3584 4928 3584 
Q 5531 3584 5847 3212 
Q 6163 2841 6163 2131 
L 6163 0 
L 5038 0 
L 5038 1825 
Q 5041 1866 5042 1909 
Q 5044 1953 5044 2034 
Q 5044 2406 4934 2573 
Q 4825 2741 4581 2741 
Q 4263 2741 4089 2478 
Q 3916 2216 3909 1719 
L 3909 0 
L 2784 0 
L 2784 1825 
Q 2784 2406 2684 2573 
Q 2584 2741 2328 2741 
Q 2006 2741 1831 2477 
Q 1656 2213 1656 1722 
L 1656 0 
L 531 0 
L 531 3500 
L 1656 3500 
L 1656 2988 
Q 1863 3284 2130 3434 
Q 2397 3584 2719 3584 
Q 3081 3584 3359 3409 
Q 3638 3234 3781 2919 
z
" transform="scale(0.015625)"/>
      <path id="DejaVuSans-Bold-67" d="M 2919 594 
Q 2688 288 2409 144 
Q 2131 0 1766 0 
Q 1125 0 706 504 
Q 288 1009 288 1791 
Q 288 2575 706 3076 
Q 1125 3578 1766 3578 
Q 2131 3578 2409 3434 
Q 2688 3291 2919 2981 
L 2919 3500 
L 4044 3500 
L 4044 353 
Q 4044 -491 3511 -936 
Q 2978 -1381 1966 -1381 
Q 1638 -1381 1331 -1331 
Q 1025 -1281 716 -1178 
L 716 -306 
Q 1009 -475 1290 -558 
Q 1572 -641 1856 -641 
Q 2406 -641 2662 -400 
Q 2919 -159 2919 353 
L 2919 594 
z
M 2181 2772 
Q 1834 2772 1640 2515 
Q 1447 2259 1447 1791 
Q 1447 1309 1634 1061 
Q 1822 813 2181 813 
Q 2531 813 2725 1069 
Q 2919 1325 2919 1791 
Q 2919 2259 2725 2515 
Q 2531 2772 2181 2772 
z
" transform="scale(0.015625)"/>
     </defs>
     <use xlink:href="#DejaVuSans-Bold-45"/>
     <use xlink:href="#DejaVuSans-Bold-72" transform="translate(68.310547 0)"/>
     <use xlink:href="#DejaVuSans-Bold-64" transform="translate(117.626953 0)"/>
     <use xlink:href="#DejaVuSans-Bold-151" transform="translate(189.208984 0)"/>
     <use xlink:href="#DejaVuSans-Bold-73" transform="translate(257.910156 0)"/>
     <use xlink:href="#DejaVuSans-Bold-20" transform="translate(317.431641 0)"/>
     <use xlink:href="#DejaVuSans-Bold-50" transform="translate(352.246094 0)"/>
     <use xlink:href="#DejaVuSans-Bold-72" transform="translate(425.537109 0)"/>
     <use xlink:href="#DejaVuSans-Bold-6f" transform="translate(474.853516 0)"/>
     <use xlink:href="#DejaVuSans-Bold-62" transform="translate(543.554688 0)"/>
     <use xlink:href="#DejaVuSans-Bold-6c" transform="translate(615.136719 0)"/>
     <use xlink:href="#DejaVuSans-Bold-65" transform="translate(649.414062 0)"/>
     <use xlink:href="#DejaVuSans-Bold-6d" transform="translate(717.236328 0)"/>
     <use xlink:href="#DejaVuSans-Bold-73" transform="translate(821.435547 0)"/>
     <use xlink:href="#DejaVuSans-Bold-20" transform="translate(880.957031 0)"/>
     <use xlink:href="#DejaVuSans-Bold-50" transform="translate(915.771484 0)"/>
     <use xlink:href="#DejaVuSans-Bold-72" transform="translate(989.0625 0)"/>
     <use xlink:href="#DejaVuSans-Bold-6f" transform="translate(1038.378906 0)"/>
     <use xlink:href="#DejaVuSans-Bold-67" transform="translate(1107.080078 0)"/>
     <use xlink:href="#DejaVuSans-Bold-72" transform="translate(1178.662109 0)"/>
     <use xlink:href="#DejaVuSans-Bold-65" transform="translate(1227.978516 0)"/>
     <use xlink:href="#DejaVuSans-Bold-73" transform="translate(1295.800781 0)"/>
     <use xlink:href="#DejaVuSans-Bold-73" transform="translate(1355.322266 0)"/>
    </g>
   </g>
   <g id="legend_1">
    <g id="patch_7">
     <path d="M 55.90125 119.788437 
L 213.771563 119.788437 
Q 215.771563 119.788437 215.771563 117.788437 
L 215.771563 45.397812 
Q 215.771563 43.397812 213.771563 43.397812 
L 55.90125 43.397812 
Q 53.90125 43.397812 53.90125 45.397812 
L 53.90125 117.788437 
Q 53.90125 119.788437 55.90125 119.788437 
z
" style="fill: #f6f8fa; opacity: 0.8; stroke: #d0d7de; stroke-linejoin: miter"/>
    </g>
    <g id="line2d_38">
     <path d="M 57.90125 51.49625 
L 67.90125 51.49625 
L 77.90125 51.49625 
" style="fill: none; stroke: #1a7f37; stroke-width: 2; stroke-linecap: square"/>
    </g>
    <g id="text_25">
     <!-- Solved -->
     <g style="fill: #24292f" transform="translate(85.90125 54.99625) scale(0.1 -0.1)">
      <defs>
       <path id="DejaVuSans-6c" d="M 603 4863 
L 1178 4863 
L 1178 0 
L 603 0 
L 603 4863 
z
" transform="scale(0.015625)"/>
       <path id="DejaVuSans-64" d="M 2906 2969 
L 2906 4863 
L 3481 4863 
L 3481 0 
L 2906 0 
L 2906 525 
Q 2725 213 2448 61 
Q 2172 -91 1784 -91 
Q 1150 -91 751 415 
Q 353 922 353 1747 
Q 353 2572 751 3078 
Q 1150 3584 1784 3584 
Q 2172 3584 2448 3432 
Q 2725 3281 2906 2969 
z
M 947 1747 
Q 947 1113 1208 752 
Q 1469 391 1925 391 
Q 2381 391 2643 752 
Q 2906 1113 2906 1747 
Q 2906 2381 2643 2742 
Q 2381 3103 1925 3103 
Q 1469 3103 1208 2742 
Q 947 2381 947 1747 
z
" transform="scale(0.015625)"/>
      </defs>
      <use xlink:href="#DejaVuSans-53"/>
      <use xlink:href="#DejaVuSans-6f" transform="translate(63.476562 0)"/>
      <use xlink:href="#DejaVuSans-6c" transform="translate(124.658203 0)"/>
      <use xlink:href="#DejaVuSans-76" transform="translate(152.441406 0)"/>
      <use xlink:href="#DejaVuSans-65" transform="translate(211.621094 0)"/>
      <use xlink:href="#DejaVuSans-64" transform="translate(273.144531 0)"/>
     </g>
    </g>
    <g id="line2d_39">
     <path d="M 57.90125 66.174375 
L 67.90125 66.174375 
L 77.90125 66.174375 
" style="fill: none; stroke: #0969da; stroke-width: 2; stroke-linecap: square"/>
    </g>
    <g id="text_26">
     <!-- Lean Formalized Problem -->
     <g style="fill: #24292f" transform="translate(85.90125 69.674375) scale(0.1 -0.1)">
      <defs>
       <path id="DejaVuSans-4c" d="M 628 4666 
L 1259 4666 
L 1259 531 
L 3531 531 
L 3531 0 
L 628 0 
L 628 4666 
z
" transform="scale(0.015625)"/>
       <path id="DejaVuSans-20" transform="scale(0.015625)"/>
       <path id="DejaVuSans-6d" d="M 3328 2828 
Q 3544 3216 3844 3400 
Q 4144 3584 4550 3584 
Q 5097 3584 5394 3201 
Q 5691 2819 5691 2113 
L 5691 0 
L 5113 0 
L 5113 2094 
Q 5113 2597 4934 2840 
Q 4756 3084 4391 3084 
Q 3944 3084 3684 2787 
Q 3425 2491 3425 1978 
L 3425 0 
L 2847 0 
L 2847 2094 
Q 2847 2600 2669 2842 
Q 2491 3084 2119 3084 
Q 1678 3084 1418 2786 
Q 1159 2488 1159 1978 
L 1159 0 
L 581 0 
L 581 3500 
L 1159 3500 
L 1159 2956 
Q 1356 3278 1631 3431 
Q 1906 3584 2284 3584 
Q 2666 3584 2933 3390 
Q 3200 3197 3328 2828 
z
" transform="scale(0.015625)"/>
       <path id="DejaVuSans-69" d="M 603 3500 
L 1178 3500 
L 1178 0 
L 603 0 
L 603 3500 
z
M 603 4863 
L 1178 4863 
L 1178 4134 
L 603 4134 
L 603 4863 
z
" transform="scale(0.015625)"/>
       <path id="DejaVuSans-7a" d="M 353 3500 
L 3084 3500 
L 3084 2975 
L 922 459 
L 3084 459 
L 3084 0 
L 275 0 
L 275 525 
L 2438 3041 
L 353 3041 
L 353 3500 
z
" transform="scale(0.015625)"/>
       <path id="DejaVuSans-50" d="M 1259 4147 
L 1259 2394 
L 2053 2394 
Q 2494 2394 2734 2622 
Q 2975 2850 2975 3272 
Q 2975 3691 2734 3919 
Q 2494 4147 2053 4147 
L 1259 4147 
z
M 628 4666 
L 2053 4666 
Q 2838 4666 3239 4311 
Q 3641 3956 3641 3272 
Q 3641 2581 3239 2228 
Q 2838 1875 2053 1875 
L 1259 1875 
L 1259 0 
L 628 0 
L 628 4666 
z
" transform="scale(0.015625)"/>
      </defs>
      <use xlink:href="#DejaVuSans-4c"/>
      <use xlink:href="#DejaVuSans-65" transform="translate(53.962891 0)"/>
      <use xlink:href="#DejaVuSans-61" transform="translate(115.486328 0)"/>
      <use xlink:href="#DejaVuSans-6e" transform="translate(176.765625 0)"/>
      <use xlink:href="#DejaVuSans-20" transform="translate(240.144531 0)"/>
      <use xlink:href="#DejaVuSans-46" transform="translate(271.931641 0)"/>
      <use xlink:href="#DejaVuSans-6f" transform="translate(325.826172 0)"/>
      <use xlink:href="#DejaVuSans-72" transform="translate(387.007812 0)"/>
      <use xlink:href="#DejaVuSans-6d" transform="translate(426.371094 0)"/>
      <use xlink:href="#DejaVuSans-61" transform="translate(523.783203 0)"/>
      <use xlink:href="#DejaVuSans-6c" transform="translate(585.0625 0)"/>
      <use xlink:href="#DejaVuSans-69" transform="translate(612.845703 0)"/>
      <use xlink:href="#DejaVuSans-7a" transform="translate(640.628906 0)"/>
      <use xlink:href="#DejaVuSans-65" transform="translate(693.119141 0)"/>
      <use xlink:href="#DejaVuSans-64" transform="translate(754.642578 0)"/>
      <use xlink:href="#DejaVuSans-20" transform="translate(818.119141 0)"/>
      <use xlink:href="#DejaVuSans-50" transform="translate(849.90625 0)"/>
      <use xlink:href="#DejaVuSans-72" transform="translate(908.458984 0)"/>
      <use xlink:href="#DejaVuSans-6f" transform="translate(947.322266 0)"/>
      <use xlink:href="#DejaVuSans-62" transform="translate(1008.503906 0)"/>
      <use xlink:href="#DejaVuSans-6c" transform="translate(1071.980469 0)"/>
      <use xlink:href="#DejaVuSans-65" transform="translate(1099.763672 0)"/>
      <use xlink:href="#DejaVuSans-6d" transform="translate(1161.287109 0)"/>
     </g>
    </g>
    <g id="line2d_40">
     <path d="M 57.90125 80.8525 
L 67.90125 80.8525 
L 77.90125 80.8525 
" style="fill: none; stroke: #bf8700; stroke-width: 2; stroke-linecap: square"/>
    </g>
    <g id="text_27">
     <!-- Lean Formalized Solution -->
     <g style="fill: #24292f" transform="translate(85.90125 84.3525) scale(0.1 -0.1)">
      <use xlink:href="#DejaVuSans-4c"/>
      <use xlink:href="#DejaVuSans-65" transform="translate(53.962891 0)"/>
      <use xlink:href="#DejaVuSans-61" transform="translate(115.486328 0)"/>
      <use xlink:href="#DejaVuSans-6e" transform="translate(176.765625 0)"/>
      <use xlink:href="#DejaVuSans-20" transform="translate(240.144531 0)"/>
      <use xlink:href="#DejaVuSans-46" transform="translate(271.931641 0)"/>
      <use xlink:href="#DejaVuSans-6f" transform="translate(325.826172 0)"/>
      <use xlink:href="#DejaVuSans-72" transform="translate(387.007812 0)"/>
      <use xlink:href="#DejaVuSans-6d" transform="translate(426.371094 0)"/>
      <use xlink:href="#DejaVuSans-61" transform="translate(523.783203 0)"/>
      <use xlink:href="#DejaVuSans-6c" transform="translate(585.0625 0)"/>
      <use xlink:href="#DejaVuSans-69" transform="translate(612.845703 0)"/>
      <use xlink:href="#DejaVuSans-7a" transform="translate(640.628906 0)"/>
      <use xlink:href="#DejaVuSans-65" transform="translate(693.119141 0)"/>
      <use xlink:href="#DejaVuSans-64" transform="translate(754.642578 0)"/>
      <use xlink:href="#DejaVuSans-20" transform="translate(818.119141 0)"/>
      <use xlink:href="#DejaVuSans-53" transform="translate(849.90625 0)"/>
      <use xlink:href="#DejaVuSans-6f" transform="translate(913.382812 0)"/>
      <use xlink:href="#DejaVuSans-6c" transform="translate(974.564453 0)"/>
      <use xlink:href="#DejaVuSans-75" transform="translate(1002.347656 0)"/>
      <use xlink:href="#DejaVuSans-74" transform="translate(1065.726562 0)"/>
      <use xlink:href="#DejaVuSans-69" transform="translate(1104.935547 0)"/>
      <use xlink:href="#DejaVuSans-6f" transform="translate(1132.71875 0)"/>
      <use xlink:href="#DejaVuSans-6e" transform="translate(1193.900391 0)"/>
     </g>
    </g>
    <g id="line2d_41">
     <path d="M 57.90125 95.530625 
L 67.90125 95.530625 
L 77.90125 95.530625 
" style="fill: none; stroke: #cf222e; stroke-width: 2; stroke-linecap: square"/>
    </g>
    <g id="text_28">
     <!-- OEIS Linked -->
     <g style="fill: #24292f" transform="translate(85.90125 99.030625) scale(0.1 -0.1)">
      <defs>
       <path id="DejaVuSans-45" d="M 628 4666 
L 3578 4666 
L 3578 4134 
L 1259 4134 
L 1259 2753 
L 3481 2753 
L 3481 2222 
L 1259 2222 
L 1259 531 
L 3634 531 
L 3634 0 
L 628 0 
L 628 4666 
z
" transform="scale(0.015625)"/>
       <path id="DejaVuSans-49" d="M 628 4666 
L 1259 4666 
L 1259 0 
L 628 0 
L 628 4666 
z
" transform="scale(0.015625)"/>
       <path id="DejaVuSans-6b" d="M 581 4863 
L 1159 4863 
L 1159 1991 
L 2875 3500 
L 3609 3500 
L 1753 1863 
L 3688 0 
L 2938 0 
L 1159 1709 
L 1159 0 
L 581 0 
L 581 4863 
z
" transform="scale(0.015625)"/>
      </defs>
      <use xlink:href="#DejaVuSans-4f"/>
      <use xlink:href="#DejaVuSans-45" transform="translate(78.710938 0)"/>
      <use xlink:href="#DejaVuSans-49" transform="translate(141.894531 0)"/>
      <use xlink:href="#DejaVuSans-53" transform="translate(171.386719 0)"/>
      <use xlink:href="#DejaVuSans-20" transform="translate(234.863281 0)"/>
      <use xlink:href="#DejaVuSans-4c" transform="translate(266.650391 0)"/>
      <use xlink:href="#DejaVuSans-69" transform="translate(322.363281 0)"/>
      <use xlink:href="#DejaVuSans-6e" transform="translate(350.146484 0)"/>
      <use xlink:href="#DejaVuSans-6b" transform="translate(413.525391 0)"/>
      <use xlink:href="#DejaVuSans-65" transform="translate(467.810547 0)"/>
      <use xlink:href="#DejaVuSans-64" transform="translate(529.333984 0)"/>
     </g>
    </g>
    <g id="line2d_42">
     <path d="M 57.90125 110.20875 
L 67.90125 110.20875 
L 77.90125 110.20875 
" style="fill: none; stroke: #9467bd; stroke-width: 2; stroke-linecap: square"/>
    </g>
    <g id="text_29">
     <!-- Open Problems -->
     <g style="fill: #24292f" transform="translate(85.90125 113.70875) scale(0.1 -0.1)">
      <defs>
       <path id="DejaVuSans-73" d="M 2834 3397 
L 2834 2853 
Q 2591 2978 2328 3040 
Q 2066 3103 1784 3103 
Q 1356 3103 1142 2972 
Q 928 2841 928 2578 
Q 928 2378 1081 2264 
Q 1234 2150 1697 2047 
L 1894 2003 
Q 2506 1872 2764 1633 
Q 3022 1394 3022 966 
Q 3022 478 2636 193 
Q 2250 -91 1575 -91 
Q 1294 -91 989 -36 
Q 684 19 347 128 
L 347 722 
Q 666 556 975 473 
Q 1284 391 1588 391 
Q 1994 391 2212 530 
Q 2431 669 2431 922 
Q 2431 1156 2273 1281 
Q 2116 1406 1581 1522 
L 1381 1569 
Q 847 1681 609 1914 
Q 372 2147 372 2553 
Q 372 3047 722 3315 
Q 1072 3584 1716 3584 
Q 2034 3584 2315 3537 
Q 2597 3491 2834 3397 
z
" transform="scale(0.015625)"/>
      </defs>
      <use xlink:href="#DejaVuSans-4f"/>
      <use xlink:href="#DejaVuSans-70" transform="translate(78.710938 0)"/>
      <use xlink:href="#DejaVuSans-65" transform="translate(142.1875 0)"/>
      <use xlink:href="#DejaVuSans-6e" transform="translate(203.710938 0)"/>
      <use xlink:href="#DejaVuSans-20" transform="translate(267.089844 0)"/>
      <use xlink:href="#DejaVuSans-50" transform="translate(298.876953 0)"/>
      <use xlink:href="#DejaVuSans-72" transform="translate(357.429688 0)"/>
      <use xlink:href="#DejaVuSans-6f" transform="translate(396.292969 0)"/>
      <use xlink:href="#DejaVuSans-62" transform="translate(457.474609 0)"/>
      <use xlink:href="#DejaVuSans-6c" transform="translate(520.951172 0)"/>
      <use xlink:href="#DejaVuSans-65" transform="translate(548.734375 0)"/>
      <use xlink:href="#DejaVuSans-6d" transform="translate(610.257812 0)"/>
      <use xlink:href="#DejaVuSans-73" transform="translate(707.669922 0)"/>
     </g>
    </g>
   </g>
  </g>
 </g>
 <defs>
  <clipPath id="p2371b67d55">
   <rect x="48.90125" y="38.397812" width="799.45" height="416.84"/>
  </clipPath>
 </defs>
</svg>
