<?xml version="1.0" encoding="utf-8" standalone="no"?>
<!DOCTYPE svg PUBLIC "-//W3C//DTD SVG 1.1//EN"
  "http://www.w3.org/Graphics/SVG/1.1/DTD/svg11.dtd">
<svg xmlns:xlink="http://www.w3.org/1999/xlink" width="855.55125pt" height="494.729687pt" viewBox="0 0 855.55125 494.729687" xmlns="http://www.w3.org/2000/svg" version="1.1">
 <metadata>
  <rdf:RDF xmlns:dc="http://purl.org/dc/elements/1.1/" xmlns:cc="http://creativecommons.org/ns#" xmlns:rdf="http://www.w3.org/1999/02/22-rdf-syntax-ns#">
   <cc:Work>
    <dc:type rdf:resource="http://purl.org/dc/dcmitype/StillImage"/>
    <dc:date>2026-04-05T02:47:30.738641</dc:date>
    <dc:format>image/svg+xml</dc:format>
    <dc:creator>
     <cc:Agent>
      <dc:title>Matplotlib v3.10.7, https://matplotlib.org/</dc:title>
     </cc:Agent>
    </dc:creator>
   </cc:Work>
  </rdf:RDF>
 </metadata>
 <defs>
  <style type="text/css">*{stroke-linejoin: round; stroke-linecap: butt}</style>
 </defs>
 <g id="figure_1">
  <g id="patch_1">
   <path d="M 0 494.729687 
L 855.55125 494.729687 
L 855.55125 0 
L 0 0 
z
" style="fill: #ffffff"/>
  </g>
  <g id="axes_1">
   <g id="patch_2">
    <path d="M 48.90125 455.237812 
L 848.35125 455.237812 
L 848.35125 38.397812 
L 48.90125 38.397812 
z
" style="fill: #ffffff"/>
   </g>
   <g id="matplotlib.axis_1">
    <g id="xtick_1">
     <g id="line2d_1">
      <path d="M 86.221655 455.237812 
L 86.221655 38.397812 
" clip-path="url(#pb63b634b70)" style="fill: none; stroke: #d0d7de; stroke-opacity: 0.25; stroke-width: 0.5; stroke-linecap: square"/>
     </g>
     <g id="line2d_2">
      <defs>
       <path id="ma59a91dc9f" d="M 0 0 
L 0 3.5 
" style="stroke: #24292f; stroke-width: 0.8"/>
      </defs>
      <g>
       <use xlink:href="#ma59a91dc9f" x="86.221655" y="455.237812" style="fill: #24292f; stroke: #24292f; stroke-width: 0.8"/>
      </g>
     </g>
     <g id="text_1">
      <!-- Sep -->
      <g style="fill: #24292f" transform="translate(76.796655 469.83625) scale(0.1 -0.1)">
       <defs>
        <path id="DejaVuSans-53" d="M 3425 4513 
L 3425 3897 
Q 3066 4069 2747 4153 
Q 2428 4238 2131 4238 
Q 1616 4238 1336 4038 
Q 1056 3838 1056 3469 
Q 1056 3159 1242 3001 
Q 1428 2844 1947 2747 
L 2328 2669 
Q 3034 2534 3370 2195 
Q 3706 1856 3706 1288 
Q 3706 609 3251 259 
Q 2797 -91 1919 -91 
Q 1588 -91 1214 -16 
Q 841 59 441 206 
L 441 856 
Q 825 641 1194 531 
Q 1563 422 1919 422 
Q 2459 422 2753 634 
Q 3047 847 3047 1241 
Q 3047 1584 2836 1778 
Q 2625 1972 2144 2069 
L 1759 2144 
Q 1053 2284 737 2584 
Q 422 2884 422 3419 
Q 422 4038 858 4394 
Q 1294 4750 2059 4750 
Q 2388 4750 2728 4690 
Q 3069 4631 3425 4513 
z
" transform="scale(0.015625)"/>
        <path id="DejaVuSans-65" d="M 3597 1894 
L 3597 1613 
L 953 1613 
Q 991 1019 1311 708 
Q 1631 397 2203 397 
Q 2534 397 2845 478 
Q 3156 559 3463 722 
L 3463 178 
Q 3153 47 2828 -22 
Q 2503 -91 2169 -91 
Q 1331 -91 842 396 
Q 353 884 353 1716 
Q 353 2575 817 3079 
Q 1281 3584 2069 3584 
Q 2775 3584 3186 3129 
Q 3597 2675 3597 1894 
z
M 3022 2063 
Q 3016 2534 2758 2815 
Q 2500 3097 2075 3097 
Q 1594 3097 1305 2825 
Q 1016 2553 972 2059 
L 3022 2063 
z
" transform="scale(0.015625)"/>
        <path id="DejaVuSans-70" d="M 1159 525 
L 1159 -1331 
L 581 -1331 
L 581 3500 
L 1159 3500 
L 1159 2969 
Q 1341 3281 1617 3432 
Q 1894 3584 2278 3584 
Q 2916 3584 3314 3078 
Q 3713 2572 3713 1747 
Q 3713 922 3314 415 
Q 2916 -91 2278 -91 
Q 1894 -91 1617 61 
Q 1341 213 1159 525 
z
M 3116 1747 
Q 3116 2381 2855 2742 
Q 2594 3103 2138 3103 
Q 1681 3103 1420 2742 
Q 1159 2381 1159 1747 
Q 1159 1113 1420 752 
Q 1681 391 2138 391 
Q 2594 391 2855 752 
Q 3116 1113 3116 1747 
z
" transform="scale(0.015625)"/>
       </defs>
       <use xlink:href="#DejaVuSans-53"/>
       <use xlink:href="#DejaVuSans-65" transform="translate(63.476562 0)"/>
       <use xlink:href="#DejaVuSans-70" transform="translate(125 0)"/>
      </g>
     </g>
    </g>
    <g id="xtick_2">
     <g id="line2d_3">
      <path d="M 186.971699 455.237812 
L 186.971699 38.397812 
" clip-path="url(#pb63b634b70)" style="fill: none; stroke: #d0d7de; stroke-opacity: 0.25; stroke-width: 0.5; stroke-linecap: square"/>
     </g>
     <g id="line2d_4">
      <g>
       <use xlink:href="#ma59a91dc9f" x="186.971699" y="455.237812" style="fill: #24292f; stroke: #24292f; stroke-width: 0.8"/>
      </g>
     </g>
     <g id="text_2">
      <!-- Oct -->
      <g style="fill: #24292f" transform="translate(178.326387 469.83625) scale(0.1 -0.1)">
       <defs>
        <path id="DejaVuSans-4f" d="M 2522 4238 
Q 1834 4238 1429 3725 
Q 1025 3213 1025 2328 
Q 1025 1447 1429 934 
Q 1834 422 2522 422 
Q 3209 422 3611 934 
Q 4013 1447 4013 2328 
Q 4013 3213 3611 3725 
Q 3209 4238 2522 4238 
z
M 2522 4750 
Q 3503 4750 4090 4092 
Q 4678 3434 4678 2328 
Q 4678 1225 4090 567 
Q 3503 -91 2522 -91 
Q 1538 -91 948 565 
Q 359 1222 359 2328 
Q 359 3434 948 4092 
Q 1538 4750 2522 4750 
z
" transform="scale(0.015625)"/>
        <path id="DejaVuSans-63" d="M 3122 3366 
L 3122 2828 
Q 2878 2963 2633 3030 
Q 2388 3097 2138 3097 
Q 1578 3097 1268 2742 
Q 959 2388 959 1747 
Q 959 1106 1268 751 
Q 1578 397 2138 397 
Q 2388 397 2633 464 
Q 2878 531 3122 666 
L 3122 134 
Q 2881 22 2623 -34 
Q 2366 -91 2075 -91 
Q 1284 -91 818 406 
Q 353 903 353 1747 
Q 353 2603 823 3093 
Q 1294 3584 2113 3584 
Q 2378 3584 2631 3529 
Q 2884 3475 3122 3366 
z
" transform="scale(0.015625)"/>
        <path id="DejaVuSans-74" d="M 1172 4494 
L 1172 3500 
L 2356 3500 
L 2356 3053 
L 1172 3053 
L 1172 1153 
Q 1172 725 1289 603 
Q 1406 481 1766 481 
L 2356 481 
L 2356 0 
L 1766 0 
Q 1100 0 847 248 
Q 594 497 594 1153 
L 594 3053 
L 172 3053 
L 172 3500 
L 594 3500 
L 594 4494 
L 1172 4494 
z
" transform="scale(0.015625)"/>
       </defs>
       <use xlink:href="#DejaVuSans-4f"/>
       <use xlink:href="#DejaVuSans-63" transform="translate(78.710938 0)"/>
       <use xlink:href="#DejaVuSans-74" transform="translate(133.691406 0)"/>
      </g>
     </g>
    </g>
    <g id="xtick_3">
     <g id="line2d_5">
      <path d="M 291.080079 455.237812 
L 291.080079 38.397812 
" clip-path="url(#pb63b634b70)" style="fill: none; stroke: #d0d7de; stroke-opacity: 0.25; stroke-width: 0.5; stroke-linecap: square"/>
     </g>
     <g id="line2d_6">
      <g>
       <use xlink:href="#ma59a91dc9f" x="291.080079" y="455.237812" style="fill: #24292f; stroke: #24292f; stroke-width: 0.8"/>
      </g>
     </g>
     <g id="text_3">
      <!-- Nov -->
      <g style="fill: #24292f" transform="translate(281.320704 469.83625) scale(0.1 -0.1)">
       <defs>
        <path id="DejaVuSans-4e" d="M 628 4666 
L 1478 4666 
L 3547 763 
L 3547 4666 
L 4159 4666 
L 4159 0 
L 3309 0 
L 1241 3903 
L 1241 0 
L 628 0 
L 628 4666 
z
" transform="scale(0.015625)"/>
        <path id="DejaVuSans-6f" d="M 1959 3097 
Q 1497 3097 1228 2736 
Q 959 2375 959 1747 
Q 959 1119 1226 758 
Q 1494 397 1959 397 
Q 2419 397 2687 759 
Q 2956 1122 2956 1747 
Q 2956 2369 2687 2733 
Q 2419 3097 1959 3097 
z
M 1959 3584 
Q 2709 3584 3137 3096 
Q 3566 2609 3566 1747 
Q 3566 888 3137 398 
Q 2709 -91 1959 -91 
Q 1206 -91 779 398 
Q 353 888 353 1747 
Q 353 2609 779 3096 
Q 1206 3584 1959 3584 
z
" transform="scale(0.015625)"/>
        <path id="DejaVuSans-76" d="M 191 3500 
L 800 3500 
L 1894 563 
L 2988 3500 
L 3597 3500 
L 2284 0 
L 1503 0 
L 191 3500 
z
" transform="scale(0.015625)"/>
       </defs>
       <use xlink:href="#DejaVuSans-4e"/>
       <use xlink:href="#DejaVuSans-6f" transform="translate(74.804688 0)"/>
       <use xlink:href="#DejaVuSans-76" transform="translate(135.986328 0)"/>
      </g>
     </g>
    </g>
    <g id="xtick_4">
     <g id="line2d_7">
      <path d="M 391.830123 455.237812 
L 391.830123 38.397812 
" clip-path="url(#pb63b634b70)" style="fill: none; stroke: #d0d7de; stroke-opacity: 0.25; stroke-width: 0.5; stroke-linecap: square"/>
     </g>
     <g id="line2d_8">
      <g>
       <use xlink:href="#ma59a91dc9f" x="391.830123" y="455.237812" style="fill: #24292f; stroke: #24292f; stroke-width: 0.8"/>
      </g>
     </g>
     <g id="text_4">
      <!-- Dec -->
      <g style="fill: #24292f" transform="translate(382.154342 469.83625) scale(0.1 -0.1)">
       <defs>
        <path id="DejaVuSans-44" d="M 1259 4147 
L 1259 519 
L 2022 519 
Q 2988 519 3436 956 
Q 3884 1394 3884 2338 
Q 3884 3275 3436 3711 
Q 2988 4147 2022 4147 
L 1259 4147 
z
M 628 4666 
L 1925 4666 
Q 3281 4666 3915 4102 
Q 4550 3538 4550 2338 
Q 4550 1131 3912 565 
Q 3275 0 1925 0 
L 628 0 
L 628 4666 
z
" transform="scale(0.015625)"/>
       </defs>
       <use xlink:href="#DejaVuSans-44"/>
       <use xlink:href="#DejaVuSans-65" transform="translate(77.001953 0)"/>
       <use xlink:href="#DejaVuSans-63" transform="translate(138.525391 0)"/>
      </g>
     </g>
    </g>
    <g id="xtick_5">
     <g id="line2d_9">
      <path d="M 495.938502 455.237812 
L 495.938502 38.397812 
" clip-path="url(#pb63b634b70)" style="fill: none; stroke: #d0d7de; stroke-opacity: 0.25; stroke-width: 0.5; stroke-linecap: square"/>
     </g>
     <g id="line2d_10">
      <g>
       <use xlink:href="#ma59a91dc9f" x="495.938502" y="455.237812" style="fill: #24292f; stroke: #24292f; stroke-width: 0.8"/>
      </g>
     </g>
     <g id="text_5">
      <!-- 2026 -->
      <g style="fill: #24292f" transform="translate(483.213502 469.83625) scale(0.1 -0.1)">
       <defs>
        <path id="DejaVuSans-32" d="M 1228 531 
L 3431 531 
L 3431 0 
L 469 0 
L 469 531 
Q 828 903 1448 1529 
Q 2069 2156 2228 2338 
Q 2531 2678 2651 2914 
Q 2772 3150 2772 3378 
Q 2772 3750 2511 3984 
Q 2250 4219 1831 4219 
Q 1534 4219 1204 4116 
Q 875 4013 500 3803 
L 500 4441 
Q 881 4594 1212 4672 
Q 1544 4750 1819 4750 
Q 2544 4750 2975 4387 
Q 3406 4025 3406 3419 
Q 3406 3131 3298 2873 
Q 3191 2616 2906 2266 
Q 2828 2175 2409 1742 
Q 1991 1309 1228 531 
z
" transform="scale(0.015625)"/>
        <path id="DejaVuSans-30" d="M 2034 4250 
Q 1547 4250 1301 3770 
Q 1056 3291 1056 2328 
Q 1056 1369 1301 889 
Q 1547 409 2034 409 
Q 2525 409 2770 889 
Q 3016 1369 3016 2328 
Q 3016 3291 2770 3770 
Q 2525 4250 2034 4250 
z
M 2034 4750 
Q 2819 4750 3233 4129 
Q 3647 3509 3647 2328 
Q 3647 1150 3233 529 
Q 2819 -91 2034 -91 
Q 1250 -91 836 529 
Q 422 1150 422 2328 
Q 422 3509 836 4129 
Q 1250 4750 2034 4750 
z
" transform="scale(0.015625)"/>
        <path id="DejaVuSans-36" d="M 2113 2584 
Q 1688 2584 1439 2293 
Q 1191 2003 1191 1497 
Q 1191 994 1439 701 
Q 1688 409 2113 409 
Q 2538 409 2786 701 
Q 3034 994 3034 1497 
Q 3034 2003 2786 2293 
Q 2538 2584 2113 2584 
z
M 3366 4563 
L 3366 3988 
Q 3128 4100 2886 4159 
Q 2644 4219 2406 4219 
Q 1781 4219 1451 3797 
Q 1122 3375 1075 2522 
Q 1259 2794 1537 2939 
Q 1816 3084 2150 3084 
Q 2853 3084 3261 2657 
Q 3669 2231 3669 1497 
Q 3669 778 3244 343 
Q 2819 -91 2113 -91 
Q 1303 -91 875 529 
Q 447 1150 447 2328 
Q 447 3434 972 4092 
Q 1497 4750 2381 4750 
Q 2619 4750 2861 4703 
Q 3103 4656 3366 4563 
z
" transform="scale(0.015625)"/>
       </defs>
       <use xlink:href="#DejaVuSans-32"/>
       <use xlink:href="#DejaVuSans-30" transform="translate(63.623047 0)"/>
       <use xlink:href="#DejaVuSans-32" transform="translate(127.246094 0)"/>
       <use xlink:href="#DejaVuSans-36" transform="translate(190.869141 0)"/>
      </g>
     </g>
    </g>
    <g id="xtick_6">
     <g id="line2d_11">
      <path d="M 600.046881 455.237812 
L 600.046881 38.397812 
" clip-path="url(#pb63b634b70)" style="fill: none; stroke: #d0d7de; stroke-opacity: 0.25; stroke-width: 0.5; stroke-linecap: square"/>
     </g>
     <g id="line2d_12">
      <g>
       <use xlink:href="#ma59a91dc9f" x="600.046881" y="455.237812" style="fill: #24292f; stroke: #24292f; stroke-width: 0.8"/>
      </g>
     </g>
     <g id="text_6">
      <!-- Feb -->
      <g style="fill: #24292f" transform="translate(591.195318 469.83625) scale(0.1 -0.1)">
       <defs>
        <path id="DejaVuSans-46" d="M 628 4666 
L 3309 4666 
L 3309 4134 
L 1259 4134 
L 1259 2759 
L 3109 2759 
L 3109 2228 
L 1259 2228 
L 1259 0 
L 628 0 
L 628 4666 
z
" transform="scale(0.015625)"/>
        <path id="DejaVuSans-62" d="M 3116 1747 
Q 3116 2381 2855 2742 
Q 2594 3103 2138 3103 
Q 1681 3103 1420 2742 
Q 1159 2381 1159 1747 
Q 1159 1113 1420 752 
Q 1681 391 2138 391 
Q 2594 391 2855 752 
Q 3116 1113 3116 1747 
z
M 1159 2969 
Q 1341 3281 1617 3432 
Q 1894 3584 2278 3584 
Q 2916 3584 3314 3078 
Q 3713 2572 3713 1747 
Q 3713 922 3314 415 
Q 2916 -91 2278 -91 
Q 1894 -91 1617 61 
Q 1341 213 1159 525 
L 1159 0 
L 581 0 
L 581 4863 
L 1159 4863 
L 1159 2969 
z
" transform="scale(0.015625)"/>
       </defs>
       <use xlink:href="#DejaVuSans-46"/>
       <use xlink:href="#DejaVuSans-65" transform="translate(52.019531 0)"/>
       <use xlink:href="#DejaVuSans-62" transform="translate(113.542969 0)"/>
      </g>
     </g>
    </g>
    <g id="xtick_7">
     <g id="line2d_13">
      <path d="M 694.080256 455.237812 
L 694.080256 38.397812 
" clip-path="url(#pb63b634b70)" style="fill: none; stroke: #d0d7de; stroke-opacity: 0.25; stroke-width: 0.5; stroke-linecap: square"/>
     </g>
     <g id="line2d_14">
      <g>
       <use xlink:href="#ma59a91dc9f" x="694.080256" y="455.237812" style="fill: #24292f; stroke: #24292f; stroke-width: 0.8"/>
      </g>
     </g>
     <g id="text_7">
      <!-- Mar -->
      <g style="fill: #24292f" transform="translate(684.646662 469.83625) scale(0.1 -0.1)">
       <defs>
        <path id="DejaVuSans-4d" d="M 628 4666 
L 1569 4666 
L 2759 1491 
L 3956 4666 
L 4897 4666 
L 4897 0 
L 4281 0 
L 4281 4097 
L 3078 897 
L 2444 897 
L 1241 4097 
L 1241 0 
L 628 0 
L 628 4666 
z
" transform="scale(0.015625)"/>
        <path id="DejaVuSans-61" d="M 2194 1759 
Q 1497 1759 1228 1600 
Q 959 1441 959 1056 
Q 959 750 1161 570 
Q 1363 391 1709 391 
Q 2188 391 2477 730 
Q 2766 1069 2766 1631 
L 2766 1759 
L 2194 1759 
z
M 3341 1997 
L 3341 0 
L 2766 0 
L 2766 531 
Q 2569 213 2275 61 
Q 1981 -91 1556 -91 
Q 1019 -91 701 211 
Q 384 513 384 1019 
Q 384 1609 779 1909 
Q 1175 2209 1959 2209 
L 2766 2209 
L 2766 2266 
Q 2766 2663 2505 2880 
Q 2244 3097 1772 3097 
Q 1472 3097 1187 3025 
Q 903 2953 641 2809 
L 641 3341 
Q 956 3463 1253 3523 
Q 1550 3584 1831 3584 
Q 2591 3584 2966 3190 
Q 3341 2797 3341 1997 
z
" transform="scale(0.015625)"/>
        <path id="DejaVuSans-72" d="M 2631 2963 
Q 2534 3019 2420 3045 
Q 2306 3072 2169 3072 
Q 1681 3072 1420 2755 
Q 1159 2438 1159 1844 
L 1159 0 
L 581 0 
L 581 3500 
L 1159 3500 
L 1159 2956 
Q 1341 3275 1631 3429 
Q 1922 3584 2338 3584 
Q 2397 3584 2469 3576 
Q 2541 3569 2628 3553 
L 2631 2963 
z
" transform="scale(0.015625)"/>
       </defs>
       <use xlink:href="#DejaVuSans-4d"/>
       <use xlink:href="#DejaVuSans-61" transform="translate(86.279297 0)"/>
       <use xlink:href="#DejaVuSans-72" transform="translate(147.558594 0)"/>
      </g>
     </g>
    </g>
    <g id="xtick_8">
     <g id="line2d_15">
      <path d="M 798.188635 455.237812 
L 798.188635 38.397812 
" clip-path="url(#pb63b634b70)" style="fill: none; stroke: #d0d7de; stroke-opacity: 0.25; stroke-width: 0.5; stroke-linecap: square"/>
     </g>
     <g id="line2d_16">
      <g>
       <use xlink:href="#ma59a91dc9f" x="798.188635" y="455.237812" style="fill: #24292f; stroke: #24292f; stroke-width: 0.8"/>
      </g>
     </g>
     <g id="text_8">
      <!-- Apr -->
      <g style="fill: #24292f" transform="translate(789.538635 469.83625) scale(0.1 -0.1)">
       <defs>
        <path id="DejaVuSans-41" d="M 2188 4044 
L 1331 1722 
L 3047 1722 
L 2188 4044 
z
M 1831 4666 
L 2547 4666 
L 4325 0 
L 3669 0 
L 3244 1197 
L 1141 1197 
L 716 0 
L 50 0 
L 1831 4666 
z
" transform="scale(0.015625)"/>
       </defs>
       <use xlink:href="#DejaVuSans-41"/>
       <use xlink:href="#DejaVuSans-70" transform="translate(68.408203 0)"/>
       <use xlink:href="#DejaVuSans-72" transform="translate(131.884766 0)"/>
      </g>
     </g>
    </g>
    <g id="text_9">
     <!-- Date -->
     <g style="fill: #24292f" transform="translate(434.285313 485.034062) scale(0.12 -0.12)">
      <use xlink:href="#DejaVuSans-44"/>
      <use xlink:href="#DejaVuSans-61" transform="translate(77.001953 0)"/>
      <use xlink:href="#DejaVuSans-74" transform="translate(138.28125 0)"/>
      <use xlink:href="#DejaVuSans-65" transform="translate(177.490234 0)"/>
     </g>
    </g>
   </g>
   <g id="matplotlib.axis_2">
    <g id="ytick_1">
     <g id="line2d_17">
      <path d="M 48.90125 455.237812 
L 848.35125 455.237812 
" clip-path="url(#pb63b634b70)" style="fill: none; stroke: #d0d7de; stroke-opacity: 0.25; stroke-width: 0.5; stroke-linecap: square"/>
     </g>
     <g id="line2d_18">
      <defs>
       <path id="m02a489962f" d="M 0 0 
L -3.5 0 
" style="stroke: #24292f; stroke-width: 0.8"/>
      </defs>
      <g>
       <use xlink:href="#m02a489962f" x="48.90125" y="455.237812" style="fill: #24292f; stroke: #24292f; stroke-width: 0.8"/>
      </g>
     </g>
     <g id="text_10">
      <!-- 0 -->
      <g style="fill: #24292f" transform="translate(35.53875 459.037031) scale(0.1 -0.1)">
       <use xlink:href="#DejaVuSans-30"/>
      </g>
     </g>
    </g>
    <g id="ytick_2">
     <g id="line2d_19">
      <path d="M 48.90125 399.659146 
L 848.35125 399.659146 
" clip-path="url(#pb63b634b70)" style="fill: none; stroke: #d0d7de; stroke-opacity: 0.25; stroke-width: 0.5; stroke-linecap: square"/>
     </g>
     <g id="line2d_20">
      <g>
       <use xlink:href="#m02a489962f" x="48.90125" y="399.659146" style="fill: #24292f; stroke: #24292f; stroke-width: 0.8"/>
      </g>
     </g>
     <g id="text_11">
      <!-- 100 -->
      <g style="fill: #24292f" transform="translate(22.81375 403.458365) scale(0.1 -0.1)">
       <defs>
        <path id="DejaVuSans-31" d="M 794 531 
L 1825 531 
L 1825 4091 
L 703 3866 
L 703 4441 
L 1819 4666 
L 2450 4666 
L 2450 531 
L 3481 531 
L 3481 0 
L 794 0 
L 794 531 
z
" transform="scale(0.015625)"/>
       </defs>
       <use xlink:href="#DejaVuSans-31"/>
       <use xlink:href="#DejaVuSans-30" transform="translate(63.623047 0)"/>
       <use xlink:href="#DejaVuSans-30" transform="translate(127.246094 0)"/>
      </g>
     </g>
    </g>
    <g id="ytick_3">
     <g id="line2d_21">
      <path d="M 48.90125 344.080479 
L 848.35125 344.080479 
" clip-path="url(#pb63b634b70)" style="fill: none; stroke: #d0d7de; stroke-opacity: 0.25; stroke-width: 0.5; stroke-linecap: square"/>
     </g>
     <g id="line2d_22">
      <g>
       <use xlink:href="#m02a489962f" x="48.90125" y="344.080479" style="fill: #24292f; stroke: #24292f; stroke-width: 0.8"/>
      </g>
     </g>
     <g id="text_12">
      <!-- 200 -->
      <g style="fill: #24292f" transform="translate(22.81375 347.879698) scale(0.1 -0.1)">
       <use xlink:href="#DejaVuSans-32"/>
       <use xlink:href="#DejaVuSans-30" transform="translate(63.623047 0)"/>
       <use xlink:href="#DejaVuSans-30" transform="translate(127.246094 0)"/>
      </g>
     </g>
    </g>
    <g id="ytick_4">
     <g id="line2d_23">
      <path d="M 48.90125 288.501812 
L 848.35125 288.501812 
" clip-path="url(#pb63b634b70)" style="fill: none; stroke: #d0d7de; stroke-opacity: 0.25; stroke-width: 0.5; stroke-linecap: square"/>
     </g>
     <g id="line2d_24">
      <g>
       <use xlink:href="#m02a489962f" x="48.90125" y="288.501812" style="fill: #24292f; stroke: #24292f; stroke-width: 0.8"/>
      </g>
     </g>
     <g id="text_13">
      <!-- 300 -->
      <g style="fill: #24292f" transform="translate(22.81375 292.301031) scale(0.1 -0.1)">
       <defs>
        <path id="DejaVuSans-33" d="M 2597 2516 
Q 3050 2419 3304 2112 
Q 3559 1806 3559 1356 
Q 3559 666 3084 287 
Q 2609 -91 1734 -91 
Q 1441 -91 1130 -33 
Q 819 25 488 141 
L 488 750 
Q 750 597 1062 519 
Q 1375 441 1716 441 
Q 2309 441 2620 675 
Q 2931 909 2931 1356 
Q 2931 1769 2642 2001 
Q 2353 2234 1838 2234 
L 1294 2234 
L 1294 2753 
L 1863 2753 
Q 2328 2753 2575 2939 
Q 2822 3125 2822 3475 
Q 2822 3834 2567 4026 
Q 2313 4219 1838 4219 
Q 1578 4219 1281 4162 
Q 984 4106 628 3988 
L 628 4550 
Q 988 4650 1302 4700 
Q 1616 4750 1894 4750 
Q 2613 4750 3031 4423 
Q 3450 4097 3450 3541 
Q 3450 3153 3228 2886 
Q 3006 2619 2597 2516 
z
" transform="scale(0.015625)"/>
       </defs>
       <use xlink:href="#DejaVuSans-33"/>
       <use xlink:href="#DejaVuSans-30" transform="translate(63.623047 0)"/>
       <use xlink:href="#DejaVuSans-30" transform="translate(127.246094 0)"/>
      </g>
     </g>
    </g>
    <g id="ytick_5">
     <g id="line2d_25">
      <path d="M 48.90125 232.923146 
L 848.35125 232.923146 
" clip-path="url(#pb63b634b70)" style="fill: none; stroke: #d0d7de; stroke-opacity: 0.25; stroke-width: 0.5; stroke-linecap: square"/>
     </g>
     <g id="line2d_26">
      <g>
       <use xlink:href="#m02a489962f" x="48.90125" y="232.923146" style="fill: #24292f; stroke: #24292f; stroke-width: 0.8"/>
      </g>
     </g>
     <g id="text_14">
      <!-- 400 -->
      <g style="fill: #24292f" transform="translate(22.81375 236.722365) scale(0.1 -0.1)">
       <defs>
        <path id="DejaVuSans-34" d="M 2419 4116 
L 825 1625 
L 2419 1625 
L 2419 4116 
z
M 2253 4666 
L 3047 4666 
L 3047 1625 
L 3713 1625 
L 3713 1100 
L 3047 1100 
L 3047 0 
L 2419 0 
L 2419 1100 
L 313 1100 
L 313 1709 
L 2253 4666 
z
" transform="scale(0.015625)"/>
       </defs>
       <use xlink:href="#DejaVuSans-34"/>
       <use xlink:href="#DejaVuSans-30" transform="translate(63.623047 0)"/>
       <use xlink:href="#DejaVuSans-30" transform="translate(127.246094 0)"/>
      </g>
     </g>
    </g>
    <g id="ytick_6">
     <g id="line2d_27">
      <path d="M 48.90125 177.344479 
L 848.35125 177.344479 
" clip-path="url(#pb63b634b70)" style="fill: none; stroke: #d0d7de; stroke-opacity: 0.25; stroke-width: 0.5; stroke-linecap: square"/>
     </g>
     <g id="line2d_28">
      <g>
       <use xlink:href="#m02a489962f" x="48.90125" y="177.344479" style="fill: #24292f; stroke: #24292f; stroke-width: 0.8"/>
      </g>
     </g>
     <g id="text_15">
      <!-- 500 -->
      <g style="fill: #24292f" transform="translate(22.81375 181.143698) scale(0.1 -0.1)">
       <defs>
        <path id="DejaVuSans-35" d="M 691 4666 
L 3169 4666 
L 3169 4134 
L 1269 4134 
L 1269 2991 
Q 1406 3038 1543 3061 
Q 1681 3084 1819 3084 
Q 2600 3084 3056 2656 
Q 3513 2228 3513 1497 
Q 3513 744 3044 326 
Q 2575 -91 1722 -91 
Q 1428 -91 1123 -41 
Q 819 9 494 109 
L 494 744 
Q 775 591 1075 516 
Q 1375 441 1709 441 
Q 2250 441 2565 725 
Q 2881 1009 2881 1497 
Q 2881 1984 2565 2268 
Q 2250 2553 1709 2553 
Q 1456 2553 1204 2497 
Q 953 2441 691 2322 
L 691 4666 
z
" transform="scale(0.015625)"/>
       </defs>
       <use xlink:href="#DejaVuSans-35"/>
       <use xlink:href="#DejaVuSans-30" transform="translate(63.623047 0)"/>
       <use xlink:href="#DejaVuSans-30" transform="translate(127.246094 0)"/>
      </g>
     </g>
    </g>
    <g id="ytick_7">
     <g id="line2d_29">
      <path d="M 48.90125 121.765812 
L 848.35125 121.765812 
" clip-path="url(#pb63b634b70)" style="fill: none; stroke: #d0d7de; stroke-opacity: 0.25; stroke-width: 0.5; stroke-linecap: square"/>
     </g>
     <g id="line2d_30">
      <g>
       <use xlink:href="#m02a489962f" x="48.90125" y="121.765812" style="fill: #24292f; stroke: #24292f; stroke-width: 0.8"/>
      </g>
     </g>
     <g id="text_16">
      <!-- 600 -->
      <g style="fill: #24292f" transform="translate(22.81375 125.565031) scale(0.1 -0.1)">
       <use xlink:href="#DejaVuSans-36"/>
       <use xlink:href="#DejaVuSans-30" transform="translate(63.623047 0)"/>
       <use xlink:href="#DejaVuSans-30" transform="translate(127.246094 0)"/>
      </g>
     </g>
    </g>
    <g id="ytick_8">
     <g id="line2d_31">
      <path d="M 48.90125 66.187146 
L 848.35125 66.187146 
" clip-path="url(#pb63b634b70)" style="fill: none; stroke: #d0d7de; stroke-opacity: 0.25; stroke-width: 0.5; stroke-linecap: square"/>
     </g>
     <g id="line2d_32">
      <g>
       <use xlink:href="#m02a489962f" x="48.90125" y="66.187146" style="fill: #24292f; stroke: #24292f; stroke-width: 0.8"/>
      </g>
     </g>
     <g id="text_17">
      <!-- 700 -->
      <g style="fill: #24292f" transform="translate(22.81375 69.986365) scale(0.1 -0.1)">
       <defs>
        <path id="DejaVuSans-37" d="M 525 4666 
L 3525 4666 
L 3525 4397 
L 1831 0 
L 1172 0 
L 2766 4134 
L 525 4134 
L 525 4666 
z
" transform="scale(0.015625)"/>
       </defs>
       <use xlink:href="#DejaVuSans-37"/>
       <use xlink:href="#DejaVuSans-30" transform="translate(63.623047 0)"/>
       <use xlink:href="#DejaVuSans-30" transform="translate(127.246094 0)"/>
      </g>
     </g>
    </g>
    <g id="text_18">
     <!-- Count -->
     <g style="fill: #24292f" transform="translate(16.318125 264.635937) rotate(-90) scale(0.12 -0.12)">
      <defs>
       <path id="DejaVuSans-43" d="M 4122 4306 
L 4122 3641 
Q 3803 3938 3442 4084 
Q 3081 4231 2675 4231 
Q 1875 4231 1450 3742 
Q 1025 3253 1025 2328 
Q 1025 1406 1450 917 
Q 1875 428 2675 428 
Q 3081 428 3442 575 
Q 3803 722 4122 1019 
L 4122 359 
Q 3791 134 3420 21 
Q 3050 -91 2638 -91 
Q 1578 -91 968 557 
Q 359 1206 359 2328 
Q 359 3453 968 4101 
Q 1578 4750 2638 4750 
Q 3056 4750 3426 4639 
Q 3797 4528 4122 4306 
z
" transform="scale(0.015625)"/>
       <path id="DejaVuSans-75" d="M 544 1381 
L 544 3500 
L 1119 3500 
L 1119 1403 
Q 1119 906 1312 657 
Q 1506 409 1894 409 
Q 2359 409 2629 706 
Q 2900 1003 2900 1516 
L 2900 3500 
L 3475 3500 
L 3475 0 
L 2900 0 
L 2900 538 
Q 2691 219 2414 64 
Q 2138 -91 1772 -91 
Q 1169 -91 856 284 
Q 544 659 544 1381 
z
M 1991 3584 
L 1991 3584 
z
" transform="scale(0.015625)"/>
       <path id="DejaVuSans-6e" d="M 3513 2113 
L 3513 0 
L 2938 0 
L 2938 2094 
Q 2938 2591 2744 2837 
Q 2550 3084 2163 3084 
Q 1697 3084 1428 2787 
Q 1159 2491 1159 1978 
L 1159 0 
L 581 0 
L 581 3500 
L 1159 3500 
L 1159 2956 
Q 1366 3272 1645 3428 
Q 1925 3584 2291 3584 
Q 2894 3584 3203 3211 
Q 3513 2838 3513 2113 
z
" transform="scale(0.015625)"/>
      </defs>
      <use xlink:href="#DejaVuSans-43"/>
      <use xlink:href="#DejaVuSans-6f" transform="translate(69.824219 0)"/>
      <use xlink:href="#DejaVuSans-75" transform="translate(131.005859 0)"/>
      <use xlink:href="#DejaVuSans-6e" transform="translate(194.384766 0)"/>
      <use xlink:href="#DejaVuSans-74" transform="translate(257.763672 0)"/>
     </g>
    </g>
   </g>
   <g id="line2d_33">
    <path d="M 85.239886 454.682026 
L 85.304216 454.682026 
L 85.345029 454.126239 
L 85.546879 454.126239 
L 85.638183 257.933546 
L 88.467308 257.933546 
L 88.479669 261.268266 
L 91.752646 261.268266 
L 91.91104 260.712479 
L 92.365425 260.712479 
L 92.733676 260.156692 
L 95.015517 259.600906 
L 95.060567 260.156692 
L 95.169946 259.600906 
L 102.236131 259.600906 
L 106.49904 260.712479 
L 107.133314 259.600906 
L 107.596446 259.600906 
L 108.7637 259.045119 
L 109.252058 256.821972 
L 110.202964 256.821972 
L 111.588666 260.712479 
L 111.678572 256.821972 
L 112.741889 256.266186 
L 115.509211 256.266186 
L 116.239144 255.710399 
L 117.323373 255.710399 
L 117.614001 254.598826 
L 124.372028 254.598826 
L 124.864933 253.487252 
L 124.890198 252.375679 
L 127.018271 252.375679 
L 130.156215 251.264106 
L 131.802304 251.264106 
L 131.82722 250.708319 
L 135.607523 250.708319 
L 136.545292 247.929386 
L 139.513103 247.929386 
L 139.533704 247.373599 
L 156.154935 247.373599 
L 159.261861 246.817812 
L 159.367936 247.373599 
L 162.590228 246.817812 
L 173.803529 246.817812 
L 179.238473 246.262026 
L 179.34346 245.706239 
L 179.601632 245.150452 
L 182.667667 245.150452 
L 183.972598 244.594666 
L 189.353979 244.594666 
L 189.558278 247.373599 
L 189.568306 245.150452 
L 189.829938 245.150452 
L 191.129116 242.927306 
L 197.489973 242.927306 
L 202.364961 242.371519 
L 207.783191 242.371519 
L 208.020957 241.815732 
L 222.100192 241.815732 
L 222.701078 241.259946 
L 226.119699 241.259946 
L 226.143799 240.148372 
L 232.657491 240.148372 
L 232.789609 236.257866 
L 244.579035 236.257866 
L 244.582573 235.702079 
L 244.924003 235.702079 
L 246.140467 235.146292 
L 247.919957 235.146292 
L 248.40023 234.590506 
L 248.448273 235.146292 
L 249.548049 234.590506 
L 249.553064 234.034719 
L 249.578756 234.590506 
L 250.214041 234.034719 
L 256.001066 234.034719 
L 257.800302 233.478932 
L 259.935255 233.478932 
L 263.56144 232.923146 
L 266.994288 232.923146 
L 269.646517 231.811572 
L 275.450761 231.811572 
L 278.827132 230.699999 
L 279.778427 231.255786 
L 284.49094 231.255786 
L 289.806865 229.032639 
L 297.734907 229.032639 
L 300.193682 228.476852 
L 344.011983 228.476852 
L 344.365852 227.921066 
L 360.345384 227.921066 
L 360.61238 227.365279 
L 387.803114 227.365279 
L 393.790434 226.809492 
L 393.825067 227.365279 
L 398.111103 225.697919 
L 404.401101 225.697919 
L 407.835659 225.142132 
L 407.841295 224.586346 
L 415.007531 224.586346 
L 417.579572 225.142132 
L 418.504163 224.586346 
L 430.497228 224.586346 
L 431.007625 225.142132 
L 431.942595 224.586346 
L 432.263891 222.363199 
L 437.759938 222.363199 
L 437.76468 221.807412 
L 454.582474 221.807412 
L 455.561833 221.251626 
L 458.79392 221.251626 
L 459.10923 220.695839 
L 474.869965 220.695839 
L 474.891382 220.140052 
L 478.833383 220.140052 
L 478.839253 219.584266 
L 479.795795 219.584266 
L 479.845742 219.028479 
L 481.331145 219.028479 
L 481.564518 218.472692 
L 484.743742 218.472692 
L 485.227008 217.361119 
L 486.97719 215.137972 
L 491.20943 215.137972 
L 491.521903 212.359039 
L 492.941071 212.359039 
L 493.637576 211.247466 
L 497.226641 211.247466 
L 498.404313 210.691679 
L 501.775397 210.691679 
L 502.227217 210.135892 
L 511.383383 210.135892 
L 511.608982 209.580106 
L 512.455834 209.580106 
L 513.770599 209.024319 
L 528.580078 209.024319 
L 528.713129 208.468532 
L 529.18796 208.468532 
L 530.179213 207.356959 
L 531.568957 207.356959 
L 531.903119 206.801172 
L 532.225076 206.801172 
L 532.347243 206.245386 
L 536.063801 206.245386 
L 536.69652 205.689599 
L 539.931483 205.689599 
L 540.138891 205.133812 
L 541.910879 205.133812 
L 542.024417 204.578026 
L 547.531348 204.578026 
L 547.649745 204.022239 
L 550.861463 204.022239 
L 551.934187 201.799092 
L 553.12352 201.799092 
L 553.124763 201.243306 
L 557.953925 201.243306 
L 558.839258 200.687519 
L 562.536885 200.687519 
L 563.265185 200.131732 
L 563.539138 200.131732 
L 564.250763 199.575946 
L 566.06854 199.575946 
L 566.27863 199.020159 
L 570.837609 199.020159 
L 572.012754 198.464372 
L 572.098344 197.908586 
L 572.4788 197.908586 
L 573.679638 195.685439 
L 577.403775 195.685439 
L 577.430595 195.129652 
L 580.974882 195.129652 
L 581.180969 194.573866 
L 581.715543 194.573866 
L 582.120836 194.018079 
L 582.205377 194.573866 
L 582.508871 194.018079 
L 583.857258 194.018079 
L 583.870163 193.462292 
L 584.22823 193.462292 
L 584.38503 192.906506 
L 585.468482 192.350719 
L 593.0067 192.350719 
L 594.184915 191.794932 
L 594.973619 191.794932 
L 595.61349 191.239146 
L 596.260786 191.794932 
L 598.925959 191.794932 
L 599.040896 190.683359 
L 602.866949 190.683359 
L 604.351458 189.015999 
L 620.46474 189.015999 
L 621.401226 188.460212 
L 646.27296 188.460212 
L 646.316106 187.904426 
L 682.972175 187.904426 
L 683.133173 187.348639 
L 683.144717 186.792852 
L 683.156183 187.348639 
L 688.482759 187.348639 
L 689.685424 186.792852 
L 710.670313 186.792852 
L 714.988533 186.237066 
L 715.030512 185.681279 
L 715.387996 185.681279 
L 716.507752 185.125492 
L 750.187108 185.125492 
L 750.379163 184.569706 
L 780.464051 184.569706 
L 784.308334 184.013919 
L 786.659829 184.013919 
L 786.915008 183.458132 
L 788.549398 182.902346 
L 793.132786 182.902346 
L 795.063129 182.346559 
L 797.083027 182.346559 
L 797.240333 181.790772 
L 800.562674 181.790772 
L 800.959533 181.234986 
L 801.038089 180.679199 
L 806.953228 180.679199 
L 806.976161 180.123412 
L 812.012614 180.123412 
L 812.012614 180.123412 
" clip-path="url(#pb63b634b70)" style="fill: none; stroke: #1a7f37; stroke-width: 2; stroke-linecap: square"/>
   </g>
   <g id="line2d_34">
    <path d="M 85.239886 455.237812 
L 85.345029 453.570452 
L 85.459422 453.570452 
L 85.546879 372.981386 
L 87.13272 372.981386 
L 87.165332 370.758239 
L 88.800071 370.758239 
L 89.221262 369.090879 
L 89.794356 370.758239 
L 89.798593 369.090879 
L 90.272802 369.090879 
L 90.456072 367.979306 
L 95.139122 367.979306 
L 95.143592 367.423519 
L 95.169946 367.979306 
L 95.400443 367.423519 
L 95.468037 367.979306 
L 95.648314 367.423519 
L 97.291683 367.423519 
L 97.377662 366.867732 
L 97.611852 366.311946 
L 99.467293 366.311946 
L 101.578768 365.756159 
L 101.653087 365.200372 
L 102.223771 364.644586 
L 102.236131 364.088799 
L 106.49904 367.979306 
L 107.133314 366.311946 
L 107.596446 363.533012 
L 110.202964 363.533012 
L 111.588666 367.979306 
L 111.678572 363.533012 
L 136.999833 363.533012 
L 137.776837 362.977226 
L 139.533704 362.977226 
L 144.332003 362.421439 
L 145.500812 361.865652 
L 162.154499 361.865652 
L 162.590228 361.309866 
L 164.828884 360.754079 
L 166.251745 360.754079 
L 167.828919 360.198292 
L 167.871403 359.086719 
L 168.955555 358.530932 
L 169.684205 357.975146 
L 179.722283 357.975146 
L 181.723291 357.419359 
L 182.328218 357.419359 
L 182.667667 356.863572 
L 183.972598 356.863572 
L 185.269016 356.307786 
L 189.353979 356.307786 
L 189.558278 358.530932 
L 189.568306 356.307786 
L 191.129116 356.307786 
L 191.285799 355.751999 
L 193.49507 355.751999 
L 195.668698 355.196212 
L 195.721444 354.640426 
L 202.364961 354.640426 
L 205.167111 354.084639 
L 205.174185 353.528852 
L 214.49885 353.528852 
L 218.388533 352.973066 
L 221.306786 352.973066 
L 222.100192 352.417279 
L 226.554689 352.417279 
L 229.095363 351.861492 
L 229.234633 351.305706 
L 231.711677 351.305706 
L 231.999156 350.749919 
L 232.789609 350.194132 
L 234.554173 350.194132 
L 235.668254 349.638346 
L 237.710891 349.638346 
L 239.044041 349.082559 
L 241.888053 349.082559 
L 242.856956 347.970986 
L 250.214041 347.970986 
L 252.309269 347.415199 
L 254.76614 347.415199 
L 255.320187 346.859412 
L 255.48962 346.303626 
L 256.001066 345.747839 
L 264.461583 345.747839 
L 266.010614 345.192052 
L 266.994288 344.636266 
L 291.052753 344.636266 
L 296.453298 344.080479 
L 296.517821 343.524692 
L 300.193682 343.524692 
L 303.335513 342.968906 
L 308.888659 342.968906 
L 309.357893 342.413119 
L 318.815143 342.413119 
L 326.218328 341.857332 
L 326.289382 341.301546 
L 327.257235 341.301546 
L 329.218168 340.745759 
L 329.327547 339.078399 
L 329.413838 338.522612 
L 333.509879 337.966826 
L 333.755146 337.411039 
L 333.852903 336.299466 
L 334.223875 335.743679 
L 347.552811 335.743679 
L 351.339333 335.187892 
L 353.749716 334.632106 
L 355.638002 334.632106 
L 360.016158 334.076319 
L 360.345384 331.853172 
L 360.61238 331.853172 
L 361.241873 330.741599 
L 369.546328 330.185812 
L 369.810641 329.630026 
L 369.888613 329.074239 
L 371.643071 329.074239 
L 373.299811 328.518452 
L 373.490233 327.962666 
L 373.619552 326.851092 
L 374.716181 326.295306 
L 374.79668 325.739519 
L 376.797532 325.183732 
L 379.427606 324.627946 
L 379.614646 324.072159 
L 379.618611 323.516372 
L 380.147627 322.960586 
L 380.241069 322.404799 
L 384.056238 321.849012 
L 384.740188 321.293226 
L 400.801386 321.293226 
L 403.464887 320.737439 
L 403.707278 320.181652 
L 414.592792 320.181652 
L 415.007531 319.070079 
L 419.542954 319.070079 
L 420.912253 318.514292 
L 420.979147 317.402719 
L 421.330762 316.846932 
L 423.659013 316.291146 
L 423.711448 315.735359 
L 423.992475 315.179572 
L 424.043356 313.512212 
L 424.28046 312.956426 
L 424.601251 312.956426 
L 424.613068 312.400639 
L 426.556743 311.844852 
L 427.320881 311.289066 
L 427.505783 310.733279 
L 431.007625 310.177492 
L 433.588334 310.177492 
L 434.484473 309.621706 
L 444.187301 309.621706 
L 447.401779 309.065919 
L 447.414567 308.510132 
L 447.992675 307.954346 
L 455.561833 307.954346 
L 457.685591 307.398559 
L 458.560469 306.842772 
L 458.79392 305.731199 
L 464.916584 305.731199 
L 465.333732 305.175412 
L 468.695876 305.175412 
L 470.305506 304.619626 
L 474.891382 304.619626 
L 477.663758 304.063839 
L 483.421086 304.063839 
L 484.128708 303.508052 
L 486.97719 303.508052 
L 487.752522 302.952266 
L 488.088861 302.396479 
L 488.254523 301.840692 
L 490.599255 301.840692 
L 490.665916 300.729119 
L 491.521903 300.729119 
L 492.083919 299.061759 
L 494.123524 299.061759 
L 494.376837 298.505972 
L 494.573479 298.505972 
L 495.549728 297.950186 
L 497.169775 297.950186 
L 497.226641 297.394399 
L 498.404313 297.394399 
L 498.690354 296.838612 
L 499.797244 296.838612 
L 501.491998 295.727039 
L 502.227217 295.727039 
L 505.070724 294.615466 
L 505.074999 294.059679 
L 505.617891 293.503892 
L 507.003049 292.948106 
L 507.218426 292.392319 
L 508.599463 291.836532 
L 510.85701 291.836532 
L 511.189967 291.280746 
L 511.383383 290.724959 
L 514.362272 290.724959 
L 514.440439 290.169172 
L 515.224828 290.169172 
L 515.285037 289.613386 
L 515.715479 289.057599 
L 517.213203 289.057599 
L 517.32713 288.501812 
L 517.583708 288.501812 
L 517.647454 287.946026 
L 517.750886 287.946026 
L 517.754385 287.390239 
L 519.860496 287.390239 
L 520.277567 286.834452 
L 520.627782 286.834452 
L 520.837095 286.278666 
L 521.37163 286.278666 
L 521.771832 285.722879 
L 521.856218 285.167092 
L 521.970611 285.167092 
L 523.982386 284.611306 
L 525.487845 284.611306 
L 525.60181 284.055519 
L 531.540466 284.055519 
L 531.568957 283.499732 
L 531.903119 283.499732 
L 532.568023 282.388159 
L 534.695163 282.388159 
L 534.881154 280.720799 
L 534.935416 279.609226 
L 535.285981 279.053439 
L 536.69652 279.053439 
L 537.361774 278.497652 
L 538.006582 278.497652 
L 538.214495 277.941866 
L 539.214028 277.386079 
L 540.138891 277.386079 
L 541.998219 276.830292 
L 542.024417 276.274506 
L 542.592613 276.274506 
L 542.686795 275.718719 
L 544.339647 275.718719 
L 544.385552 275.162932 
L 552.401283 275.162932 
L 552.525122 274.607146 
L 552.763587 274.607146 
L 552.869312 273.495572 
L 553.901456 273.495572 
L 553.984715 272.939786 
L 554.121108 272.939786 
L 554.835998 272.383999 
L 555.015693 271.828212 
L 555.344024 271.828212 
L 555.621864 271.272426 
L 555.71243 270.716639 
L 559.740139 270.716639 
L 560.756774 270.160852 
L 560.957574 269.049279 
L 561.205018 268.493492 
L 561.618085 268.493492 
L 561.869844 267.937706 
L 567.650067 267.937706 
L 568.03165 266.270346 
L 568.821442 266.270346 
L 568.93739 265.714559 
L 572.023598 265.714559 
L 572.098344 264.602986 
L 575.805029 264.602986 
L 575.843432 264.047199 
L 577.629024 264.047199 
L 577.641035 263.491412 
L 578.510548 263.491412 
L 578.534065 262.935626 
L 581.180969 262.935626 
L 581.31262 262.379839 
L 581.480343 262.379839 
L 581.715543 261.824052 
L 582.192978 261.824052 
L 582.205377 261.268266 
L 582.508871 261.268266 
L 583.087834 260.712479 
L 587.76416 260.712479 
L 588.104036 260.156692 
L 589.491565 260.156692 
L 589.49413 259.600906 
L 600.102659 259.600906 
L 601.903216 259.045119 
L 601.955418 258.489332 
L 602.866949 257.933546 
L 604.253001 257.933546 
L 604.351458 256.821972 
L 604.602167 256.821972 
L 604.706532 256.266186 
L 608.38764 256.266186 
L 609.052388 255.710399 
L 615.419736 255.710399 
L 615.439327 255.154612 
L 617.518968 255.154612 
L 618.407721 254.598826 
L 628.196024 254.598826 
L 628.318191 253.487252 
L 632.16776 253.487252 
L 632.933452 252.931466 
L 633.753407 252.931466 
L 634.755777 252.375679 
L 641.381452 252.375679 
L 642.015921 251.819892 
L 642.565693 251.819892 
L 642.835254 251.264106 
L 644.945952 250.708319 
L 645.979184 250.708319 
L 646.316106 250.152532 
L 646.425757 250.152532 
L 649.391081 249.596746 
L 654.850824 249.596746 
L 655.278079 249.040959 
L 676.351202 249.040959 
L 677.12117 248.485172 
L 681.994371 248.485172 
L 682.170489 247.929386 
L 682.487043 247.929386 
L 682.582468 247.373599 
L 709.797224 247.373599 
L 710.670313 246.817812 
L 717.168263 246.817812 
L 718.579813 246.262026 
L 718.674422 245.706239 
L 722.055262 245.706239 
L 722.195543 245.150452 
L 733.146435 245.150452 
L 733.168863 244.594666 
L 742.413224 244.594666 
L 742.51273 244.038879 
L 743.113149 243.483092 
L 745.381657 243.483092 
L 745.386866 242.927306 
L 745.84786 242.371519 
L 749.253887 242.371519 
L 750.379163 241.815732 
L 757.642028 241.815732 
L 757.693181 240.704159 
L 803.731014 240.704159 
L 806.976161 240.148372 
L 811.058948 240.148372 
L 811.194603 239.592586 
L 812.012614 239.592586 
L 812.012614 239.592586 
" clip-path="url(#pb63b634b70)" style="fill: none; stroke: #0969da; stroke-width: 2; stroke-linecap: square"/>
   </g>
   <g id="line2d_35">
    <path d="M 85.239886 455.237812 
L 88.467308 455.237812 
L 88.479669 454.126239 
L 91.144103 454.126239 
L 91.752646 453.570452 
L 256.001066 453.570452 
L 257.800302 453.014666 
L 303.335513 453.014666 
L 304.599203 452.458879 
L 347.552811 452.458879 
L 351.339333 451.903092 
L 361.241873 451.903092 
L 369.888613 450.235732 
L 371.643071 449.124159 
L 374.79668 449.124159 
L 376.797532 448.568372 
L 379.618611 448.012586 
L 380.241069 448.012586 
L 384.056238 447.456799 
L 384.740188 446.901012 
L 387.803114 446.345226 
L 393.790434 445.789439 
L 393.825067 446.345226 
L 403.707278 446.345226 
L 404.401101 445.789439 
L 418.504163 445.789439 
L 419.542954 445.233652 
L 424.28046 445.233652 
L 424.613068 444.677866 
L 430.497228 444.677866 
L 431.007625 444.122079 
L 452.563353 444.122079 
L 454.582474 443.566292 
L 455.431076 443.566292 
L 455.561833 443.010506 
L 461.314886 443.010506 
L 461.320367 442.454719 
L 474.869965 442.454719 
L 474.891382 441.898932 
L 478.839253 441.898932 
L 479.845742 441.343146 
L 481.328541 440.787359 
L 481.331145 440.231572 
L 481.564518 440.231572 
L 483.421086 438.564212 
L 484.671755 438.564212 
L 484.743742 436.896852 
L 485.227008 436.896852 
L 486.97719 437.452639 
L 488.235866 437.452639 
L 488.254523 435.229492 
L 492.941071 435.229492 
L 493.637576 434.673706 
L 494.376837 434.673706 
L 494.573479 434.117919 
L 511.383383 434.117919 
L 511.608982 433.562132 
L 512.455834 433.562132 
L 513.770599 433.006346 
L 519.571151 433.006346 
L 519.860496 432.450559 
L 521.856218 432.450559 
L 521.970611 431.894772 
L 528.580078 431.894772 
L 528.713129 431.338986 
L 529.18796 431.338986 
L 529.669555 430.783199 
L 530.150683 430.783199 
L 530.179213 430.227412 
L 532.225076 430.227412 
L 532.347243 429.671626 
L 541.844995 429.671626 
L 541.910879 429.115839 
L 542.024417 429.115839 
L 542.121902 428.560052 
L 542.686795 428.560052 
L 543.870996 428.004266 
L 548.500717 428.004266 
L 548.504799 427.448479 
L 549.389432 427.448479 
L 549.423093 426.892692 
L 551.934187 426.892692 
L 552.461648 426.336906 
L 555.80805 426.336906 
L 556.778624 425.781119 
L 558.666171 425.781119 
L 558.686189 424.669546 
L 558.839258 424.669546 
L 559.031896 424.113759 
L 562.068351 424.113759 
L 562.536885 423.557972 
L 563.265185 423.557972 
L 563.539138 423.002186 
L 565.316801 423.002186 
L 565.565023 422.446399 
L 565.56821 421.890612 
L 566.06854 421.890612 
L 566.27863 421.334826 
L 585.427824 421.334826 
L 585.468482 420.223252 
L 588.104036 420.223252 
L 588.862577 419.667466 
L 589.49413 419.667466 
L 592.456811 419.111679 
L 593.0067 419.111679 
L 594.184915 418.555892 
L 594.973619 418.555892 
L 595.61349 418.000106 
L 596.260786 418.555892 
L 598.344547 418.555892 
L 598.911189 418.000106 
L 599.040896 416.888532 
L 600.095546 416.332746 
L 600.102659 415.221172 
L 604.706532 415.221172 
L 605.713371 414.665386 
L 605.815404 412.998026 
L 606.821738 412.442239 
L 607.378274 411.886452 
L 612.138169 411.886452 
L 612.340136 410.219092 
L 612.582915 410.219092 
L 612.76292 409.663306 
L 613.92621 409.107519 
L 615.757319 409.107519 
L 616.134549 408.551732 
L 616.220373 407.995946 
L 616.412855 407.995946 
L 617.518968 406.884372 
L 618.704063 406.884372 
L 619.093187 406.328586 
L 620.460231 406.328586 
L 620.46474 405.217012 
L 621.401226 405.217012 
L 622.644471 404.661226 
L 625.938243 403.549652 
L 626.232292 402.993866 
L 632.933452 402.993866 
L 633.753407 401.882292 
L 646.27296 401.882292 
L 646.425757 400.770719 
L 652.519541 400.770719 
L 653.450624 400.214932 
L 656.276095 400.214932 
L 656.434683 399.659146 
L 673.817292 399.659146 
L 674.094743 399.103359 
L 675.816512 399.103359 
L 676.351202 398.547572 
L 679.564553 398.547572 
L 680.168898 397.991786 
L 680.172863 397.435999 
L 680.864042 396.880212 
L 682.972175 396.880212 
L 683.133173 396.324426 
L 683.144717 395.212852 
L 683.156183 395.768639 
L 684.572825 395.212852 
L 689.685424 395.212852 
L 690.693896 394.101279 
L 699.918627 394.101279 
L 700.631846 393.545492 
L 702.869686 393.545492 
L 703.048836 392.989706 
L 703.07348 392.433919 
L 710.670313 392.433919 
L 715.387996 391.322346 
L 716.507752 391.322346 
L 717.168263 390.766559 
L 726.940396 390.766559 
L 728.141545 390.210772 
L 729.629901 390.210772 
L 731.071381 389.654986 
L 743.113149 389.654986 
L 743.443618 389.099199 
L 743.445406 388.543412 
L 750.187108 388.543412 
L 750.379163 387.987626 
L 780.464051 387.987626 
L 784.308334 387.431839 
L 793.132786 387.431839 
L 795.063129 386.876052 
L 796.761576 386.876052 
L 797.083027 386.320266 
L 801.038089 386.320266 
L 801.70618 385.764479 
L 802.587315 385.764479 
L 803.731014 385.208692 
L 806.47245 385.208692 
L 806.976161 384.652906 
L 807.313588 384.652906 
L 808.542023 384.097119 
L 812.012614 384.097119 
L 812.012614 384.097119 
" clip-path="url(#pb63b634b70)" style="fill: none; stroke: #bf8700; stroke-width: 2; stroke-linecap: square"/>
   </g>
   <g id="line2d_36">
    <path d="M 85.239886 454.682026 
L 85.515938 454.682026 
L 85.638183 432.450559 
L 86.277044 426.892692 
L 86.642108 425.781119 
L 86.827321 426.336906 
L 87.165332 425.781119 
L 87.736987 425.225332 
L 88.133613 424.113759 
L 88.467308 423.557972 
L 88.479669 423.002186 
L 88.800071 421.334826 
L 89.221262 421.334826 
L 89.794356 420.779039 
L 89.798593 420.223252 
L 90.260014 419.667466 
L 90.272802 419.111679 
L 90.456072 419.111679 
L 91.144103 418.555892 
L 91.635687 418.000106 
L 91.752646 411.886452 
L 91.833534 412.442239 
L 92.031302 408.551732 
L 92.365425 402.993866 
L 95.143592 402.993866 
L 95.169946 402.438079 
L 95.400443 399.659146 
L 95.468037 402.438079 
L 95.78121 397.991786 
L 95.936299 397.435999 
L 97.091776 396.880212 
L 97.126642 396.324426 
L 97.377662 395.768639 
L 97.611852 395.768639 
L 98.206907 395.212852 
L 98.524783 394.657066 
L 98.654452 394.101279 
L 98.756329 392.989706 
L 99.053293 392.433919 
L 99.060639 391.878132 
L 99.359313 392.433919 
L 99.444321 391.878132 
L 99.454777 392.433919 
L 99.467293 390.766559 
L 102.236131 390.766559 
L 106.49904 402.993866 
L 107.133314 390.210772 
L 107.4639 389.654986 
L 109.252058 389.654986 
L 109.554891 389.099199 
L 110.202964 388.543412 
L 111.588666 402.993866 
L 111.678572 387.987626 
L 112.741889 387.431839 
L 115.0158 386.876052 
L 115.177964 387.431839 
L 115.509211 385.764479 
L 116.239144 385.764479 
L 116.460934 385.208692 
L 116.879831 384.652906 
L 116.914581 383.541332 
L 117.300984 382.429759 
L 117.323373 382.985546 
L 117.553209 382.985546 
L 117.679224 381.873972 
L 118.067143 379.650826 
L 118.11814 378.539252 
L 118.615826 376.871892 
L 118.859072 377.983466 
L 120.578975 374.648746 
L 121.031845 375.760319 
L 122.895565 373.537172 
L 124.372028 377.427679 
L 124.890198 373.537172 
L 127.018271 371.869812 
L 130.156215 371.869812 
L 130.570643 371.314026 
L 130.900452 369.646666 
L 131.82722 371.314026 
L 135.607523 371.869812 
L 136.545292 369.646666 
L 136.999833 367.979306 
L 137.776837 369.646666 
L 139.533704 367.979306 
L 145.500812 367.979306 
L 151.775262 367.423519 
L 152.193694 366.867732 
L 156.154935 366.311946 
L 158.774281 366.311946 
L 159.261861 365.756159 
L 159.367936 366.311946 
L 162.154499 364.644586 
L 164.768209 364.644586 
L 164.828884 364.088799 
L 166.251745 363.533012 
L 169.684205 363.533012 
L 171.198332 359.642506 
L 172.325278 359.086719 
L 173.775387 358.530932 
L 173.803529 357.975146 
L 179.238473 357.975146 
L 179.34346 354.084639 
L 179.54461 354.084639 
L 179.722283 352.973066 
L 181.723291 352.973066 
L 182.328218 352.417279 
L 185.269016 352.417279 
L 189.353979 351.861492 
L 189.558278 363.533012 
L 189.568306 352.417279 
L 189.829938 351.861492 
L 191.285799 351.861492 
L 193.49507 351.305706 
L 195.721444 351.305706 
L 197.489973 350.749919 
L 202.364961 349.638346 
L 205.174185 349.638346 
L 207.431888 349.082559 
L 207.783191 346.303626 
L 208.020957 346.303626 
L 208.441682 345.747839 
L 210.636221 345.192052 
L 211.143509 342.968906 
L 214.176544 341.857332 
L 214.213081 342.413119 
L 214.49885 341.857332 
L 218.388533 340.745759 
L 221.306786 340.189972 
L 222.701078 340.189972 
L 223.936898 339.634186 
L 225.007873 338.522612 
L 226.143799 337.966826 
L 226.554689 337.411039 
L 229.234633 337.966826 
L 231.711677 336.855252 
L 231.999156 337.411039 
L 232.657491 337.411039 
L 232.789609 336.855252 
L 234.554173 336.299466 
L 235.668254 336.855252 
L 237.710891 335.743679 
L 239.044041 335.743679 
L 241.888053 335.187892 
L 242.359658 335.743679 
L 242.856956 334.076319 
L 244.582573 334.076319 
L 244.924003 333.520532 
L 246.409911 331.297386 
L 246.829742 330.185812 
L 247.919957 330.741599 
L 248.40023 329.630026 
L 248.448273 329.074239 
L 252.309269 329.074239 
L 254.264761 328.518452 
L 254.76614 327.962666 
L 257.800302 327.962666 
L 259.935255 327.406879 
L 263.56144 327.406879 
L 264.461583 326.851092 
L 274.432961 326.851092 
L 275.005627 326.295306 
L 275.062998 325.739519 
L 275.450761 325.183732 
L 279.778427 325.183732 
L 280.048143 324.627946 
L 281.149203 324.072159 
L 281.339897 323.516372 
L 283.164126 322.960586 
L 284.49094 322.404799 
L 289.806865 322.404799 
L 291.052753 321.293226 
L 296.517821 321.293226 
L 297.734907 320.737439 
L 302.828148 320.737439 
L 303.335513 320.181652 
L 304.599203 319.625866 
L 304.975383 319.070079 
L 305.103109 318.514292 
L 308.888659 317.958506 
L 309.357893 318.514292 
L 314.341328 317.402719 
L 318.281502 316.291146 
L 318.815143 315.735359 
L 326.289382 315.735359 
L 327.257235 315.179572 
L 334.223875 315.179572 
L 340.78631 314.623786 
L 341.611745 314.067999 
L 344.365852 313.512212 
L 347.127732 312.956426 
L 347.552811 312.400639 
L 353.749716 312.400639 
L 355.638002 311.844852 
L 369.888613 311.844852 
L 371.643071 311.289066 
L 383.414462 311.289066 
L 384.056238 310.733279 
L 384.740188 311.289066 
L 387.803114 310.733279 
L 398.111103 310.733279 
L 399.492451 310.177492 
L 421.298578 310.177492 
L 421.330762 309.621706 
L 434.798229 309.621706 
L 437.7571 309.065919 
L 437.76468 308.510132 
L 452.556784 308.510132 
L 452.563353 307.398559 
L 461.320367 307.398559 
L 465.333732 306.842772 
L 470.305506 306.842772 
L 474.891382 305.731199 
L 484.128708 305.731199 
L 484.671755 305.175412 
L 484.743742 304.619626 
L 488.235866 304.619626 
L 488.254523 304.063839 
L 488.617138 304.063839 
L 489.195168 303.508052 
L 494.376837 303.508052 
L 494.573479 302.952266 
L 501.491998 302.952266 
L 501.775397 302.396479 
L 518.671552 302.396479 
L 519.569868 300.729119 
L 519.571151 300.173332 
L 521.964897 300.173332 
L 521.970611 299.617546 
L 529.031315 299.617546 
L 529.18796 299.061759 
L 532.568023 299.061759 
L 532.689452 298.505972 
L 545.246203 298.505972 
L 545.487661 297.950186 
L 548.402261 297.950186 
L 548.504799 297.394399 
L 549.423093 296.838612 
L 572.4788 296.838612 
L 573.679638 295.727039 
L 575.477125 295.727039 
L 575.843432 295.171252 
L 577.641035 295.171252 
L 577.907447 294.615466 
L 582.154614 294.615466 
L 582.205377 294.059679 
L 605.711389 294.059679 
L 605.815404 292.948106 
L 635.196986 292.948106 
L 635.960074 292.392319 
L 686.125822 292.392319 
L 688.482759 291.836532 
L 709.68318 291.836532 
L 709.797224 291.280746 
L 719.288601 291.280746 
L 719.749944 290.724959 
L 812.012614 290.724959 
L 812.012614 290.724959 
" clip-path="url(#pb63b634b70)" style="fill: none; stroke: #cf222e; stroke-width: 2; stroke-linecap: square"/>
   </g>
   <g id="line2d_37">
    <path d="M 85.239886 454.682026 
L 85.261848 454.126239 
L 85.434996 -1 
M 85.59062 -1 
L 85.638183 101.201706 
L 88.467308 101.201706 
L 88.479669 97.866986 
L 91.752646 97.866986 
L 91.91104 98.422772 
L 92.365425 98.422772 
L 92.733676 98.978559 
L 95.015517 99.534346 
L 95.060567 98.978559 
L 95.169946 99.534346 
L 102.236131 99.534346 
L 106.49904 98.422772 
L 107.133314 99.534346 
L 107.4639 98.978559 
L 107.596446 98.978559 
L 108.7637 99.534346 
L 109.252058 96.755412 
L 110.202964 96.755412 
L 111.588666 98.422772 
L 111.678572 95.643839 
L 112.741889 96.199626 
L 115.509211 96.199626 
L 116.239144 95.088052 
L 117.323373 95.088052 
L 117.614001 91.197546 
L 124.372028 91.197546 
L 124.864933 87.862826 
L 124.890198 86.751252 
L 127.018271 86.751252 
L 130.156215 82.860746 
L 131.802304 82.860746 
L 131.82722 83.416532 
L 135.607523 83.416532 
L 136.545292 80.081812 
L 139.513103 80.081812 
L 139.533704 80.637599 
L 156.154935 80.637599 
L 159.261861 81.193386 
L 159.367936 80.637599 
L 162.590228 81.193386 
L 173.803529 81.193386 
L 179.238473 81.749172 
L 179.34346 74.523946 
L 179.601632 75.079732 
L 182.667667 75.079732 
L 183.972598 75.635519 
L 189.353979 75.635519 
L 189.558278 80.637599 
L 189.568306 71.745012 
L 189.829938 71.745012 
L 191.129116 73.968159 
L 197.489973 73.968159 
L 202.364961 70.077652 
L 207.783191 70.077652 
L 208.020957 68.410292 
L 222.100192 68.410292 
L 222.701078 68.966079 
L 226.119699 68.966079 
L 226.143799 70.077652 
L 232.657491 70.077652 
L 232.789609 73.412372 
L 242.856956 73.412372 
L 243.097403 68.410292 
L 244.579035 67.298719 
L 244.582573 67.854506 
L 244.924003 67.854506 
L 246.140467 65.075572 
L 247.919957 65.075572 
L 248.40023 65.631359 
L 248.448273 65.075572 
L 249.548049 65.631359 
L 249.553064 66.187146 
L 249.578756 65.631359 
L 250.214041 63.408212 
L 256.001066 63.408212 
L 257.800302 63.963999 
L 259.935255 63.963999 
L 263.56144 64.519786 
L 266.994288 64.519786 
L 269.646517 65.631359 
L 275.062998 65.075572 
L 275.450761 65.075572 
L 278.827132 66.187146 
L 279.778427 65.631359 
L 284.49094 65.631359 
L 289.803989 67.854506 
L 289.806865 67.298719 
L 297.734907 67.298719 
L 300.193682 67.854506 
L 344.011983 67.854506 
L 344.365852 68.410292 
L 347.108025 68.410292 
L 347.127732 66.742932 
L 360.345384 66.742932 
L 360.61238 67.298719 
L 387.803114 67.298719 
L 393.790434 67.854506 
L 393.825067 67.298719 
L 398.111103 68.966079 
L 399.492451 68.966079 
L 400.801386 68.410292 
L 404.401101 68.410292 
L 407.835659 68.966079 
L 407.841295 69.521866 
L 417.579572 67.854506 
L 418.504163 68.410292 
L 430.497228 68.410292 
L 431.007625 67.854506 
L 431.942595 68.410292 
L 432.263891 70.633439 
L 437.759938 70.633439 
L 437.76468 71.189226 
L 454.582474 71.189226 
L 455.561833 71.745012 
L 458.79392 71.745012 
L 459.10923 72.300799 
L 474.869965 72.300799 
L 474.891382 72.856586 
L 477.663758 72.856586 
L 478.833383 73.412372 
L 478.839253 73.968159 
L 479.795795 73.412372 
L 479.845742 73.968159 
L 481.331145 73.968159 
L 481.564518 74.523946 
L 484.671755 74.523946 
L 484.743742 73.412372 
L 485.227008 74.523946 
L 486.97719 72.856586 
L 491.20943 72.856586 
L 491.521903 71.189226 
L 492.941071 71.189226 
L 493.637576 72.300799 
L 497.226641 72.300799 
L 498.404313 72.856586 
L 498.690354 72.856586 
L 499.797244 70.077652 
L 501.775397 70.077652 
L 502.227217 70.633439 
L 511.383383 70.633439 
L 511.608982 71.189226 
L 512.455834 71.189226 
L 513.770599 71.745012 
L 528.580078 71.745012 
L 528.713129 72.300799 
L 529.18796 72.300799 
L 530.179213 73.412372 
L 531.568957 73.412372 
L 531.903119 72.856586 
L 532.225076 72.856586 
L 532.347243 73.412372 
L 536.063801 73.412372 
L 536.69652 73.968159 
L 539.931483 73.968159 
L 540.138891 74.523946 
L 541.910879 74.523946 
L 542.024417 75.079732 
L 547.531348 75.079732 
L 547.649745 75.635519 
L 550.861463 75.635519 
L 551.934187 77.858666 
L 553.12352 77.858666 
L 553.124763 78.414452 
L 557.953925 78.414452 
L 558.839258 78.970239 
L 562.536885 78.970239 
L 563.265185 79.526026 
L 566.06854 79.526026 
L 566.27863 80.081812 
L 570.837609 80.081812 
L 572.012754 80.637599 
L 572.098344 81.193386 
L 572.4788 81.193386 
L 573.679638 60.629279 
L 577.403775 60.629279 
L 577.430595 61.185066 
L 577.641035 61.185066 
L 577.907447 60.629279 
L 580.974882 60.629279 
L 581.180969 61.185066 
L 581.715543 61.185066 
L 582.120836 61.740852 
L 582.205377 61.185066 
L 583.857258 61.185066 
L 583.870163 61.740852 
L 584.22823 61.740852 
L 584.38503 62.296639 
L 585.468482 62.852426 
L 593.0067 62.852426 
L 594.184915 63.408212 
L 594.973619 63.408212 
L 595.61349 63.963999 
L 596.260786 63.408212 
L 598.925959 63.408212 
L 599.040896 64.519786 
L 602.866949 64.519786 
L 604.351458 66.187146 
L 620.46474 66.187146 
L 621.401226 66.742932 
L 646.27296 66.742932 
L 646.316106 67.298719 
L 682.972175 67.298719 
L 683.133173 67.854506 
L 683.144717 68.410292 
L 683.156183 67.854506 
L 688.482759 67.854506 
L 689.685424 68.410292 
L 710.670313 68.410292 
L 715.387996 68.966079 
L 716.498462 69.521866 
L 716.507752 67.854506 
L 750.187108 67.854506 
L 750.379163 68.410292 
L 780.464051 68.410292 
L 784.308334 68.966079 
L 786.659829 68.966079 
L 786.915008 69.521866 
L 788.549398 70.077652 
L 793.132786 70.077652 
L 795.063129 70.633439 
L 797.083027 70.633439 
L 797.240333 71.189226 
L 800.562674 71.189226 
L 800.959533 71.745012 
L 801.038089 72.300799 
L 806.953228 72.300799 
L 806.976161 72.856586 
L 811.194603 72.856586 
L 812.012614 72.300799 
L 812.012614 72.300799 
" clip-path="url(#pb63b634b70)" style="fill: none; stroke: #9467bd; stroke-width: 2; stroke-linecap: square"/>
   </g>
   <g id="patch_3">
    <path d="M 48.90125 455.237812 
L 48.90125 38.397812 
" style="fill: none; stroke: #d0d7de; stroke-width: 0.8; stroke-linejoin: miter; stroke-linecap: square"/>
   </g>
   <g id="patch_4">
    <path d="M 848.35125 455.237812 
L 848.35125 38.397812 
" style="fill: none; stroke: #d0d7de; stroke-width: 0.8; stroke-linejoin: miter; stroke-linecap: square"/>
   </g>
   <g id="patch_5">
    <path d="M 48.90125 455.237812 
L 848.35125 455.237812 
" style="fill: none; stroke: #d0d7de; stroke-width: 0.8; stroke-linejoin: miter; stroke-linecap: square"/>
   </g>
   <g id="patch_6">
    <path d="M 48.90125 38.397812 
L 848.35125 38.397812 
" style="fill: none; stroke: #d0d7de; stroke-width: 0.8; stroke-linejoin: miter; stroke-linecap: square"/>
   </g>
   <g id="text_19">
    <!-- 495 -->
    <g style="fill: #1a7f37" transform="translate(817.012614 182.60685) scale(0.09 -0.09)">
     <defs>
      <path id="DejaVuSans-Bold-34" d="M 2356 3675 
L 1038 1722 
L 2356 1722 
L 2356 3675 
z
M 2156 4666 
L 3494 4666 
L 3494 1722 
L 4159 1722 
L 4159 850 
L 3494 850 
L 3494 0 
L 2356 0 
L 2356 850 
L 288 850 
L 288 1881 
L 2156 4666 
z
" transform="scale(0.015625)"/>
      <path id="DejaVuSans-Bold-39" d="M 641 103 
L 641 966 
Q 928 831 1190 764 
Q 1453 697 1709 697 
Q 2247 697 2547 995 
Q 2847 1294 2900 1881 
Q 2688 1725 2447 1647 
Q 2206 1569 1925 1569 
Q 1209 1569 770 1986 
Q 331 2403 331 3084 
Q 331 3838 820 4291 
Q 1309 4744 2131 4744 
Q 3044 4744 3544 4128 
Q 4044 3513 4044 2388 
Q 4044 1231 3459 570 
Q 2875 -91 1856 -91 
Q 1528 -91 1228 -42 
Q 928 6 641 103 
z
M 2125 2350 
Q 2441 2350 2600 2554 
Q 2759 2759 2759 3169 
Q 2759 3575 2600 3781 
Q 2441 3988 2125 3988 
Q 1809 3988 1650 3781 
Q 1491 3575 1491 3169 
Q 1491 2759 1650 2554 
Q 1809 2350 2125 2350 
z
" transform="scale(0.015625)"/>
      <path id="DejaVuSans-Bold-35" d="M 678 4666 
L 3669 4666 
L 3669 3781 
L 1638 3781 
L 1638 3059 
Q 1775 3097 1914 3117 
Q 2053 3138 2203 3138 
Q 3056 3138 3531 2711 
Q 4006 2284 4006 1522 
Q 4006 766 3489 337 
Q 2972 -91 2053 -91 
Q 1656 -91 1267 -14 
Q 878 63 494 219 
L 494 1166 
Q 875 947 1217 837 
Q 1559 728 1863 728 
Q 2300 728 2551 942 
Q 2803 1156 2803 1522 
Q 2803 1891 2551 2103 
Q 2300 2316 1863 2316 
Q 1603 2316 1309 2248 
Q 1016 2181 678 2041 
L 678 4666 
z
" transform="scale(0.015625)"/>
     </defs>
     <use xlink:href="#DejaVuSans-Bold-34"/>
     <use xlink:href="#DejaVuSans-Bold-39" transform="translate(69.580078 0)"/>
     <use xlink:href="#DejaVuSans-Bold-35" transform="translate(139.160156 0)"/>
    </g>
   </g>
   <g id="text_20">
    <!-- 388 -->
    <g style="fill: #0969da" transform="translate(817.012614 242.076023) scale(0.09 -0.09)">
     <defs>
      <path id="DejaVuSans-Bold-33" d="M 2981 2516 
Q 3453 2394 3698 2092 
Q 3944 1791 3944 1325 
Q 3944 631 3412 270 
Q 2881 -91 1863 -91 
Q 1503 -91 1142 -33 
Q 781 25 428 141 
L 428 1069 
Q 766 900 1098 814 
Q 1431 728 1753 728 
Q 2231 728 2486 893 
Q 2741 1059 2741 1369 
Q 2741 1688 2480 1852 
Q 2219 2016 1709 2016 
L 1228 2016 
L 1228 2791 
L 1734 2791 
Q 2188 2791 2409 2933 
Q 2631 3075 2631 3366 
Q 2631 3634 2415 3781 
Q 2200 3928 1806 3928 
Q 1516 3928 1219 3862 
Q 922 3797 628 3669 
L 628 4550 
Q 984 4650 1334 4700 
Q 1684 4750 2022 4750 
Q 2931 4750 3382 4451 
Q 3834 4153 3834 3553 
Q 3834 3144 3618 2883 
Q 3403 2622 2981 2516 
z
" transform="scale(0.015625)"/>
      <path id="DejaVuSans-Bold-38" d="M 2228 2088 
Q 1891 2088 1709 1903 
Q 1528 1719 1528 1375 
Q 1528 1031 1709 848 
Q 1891 666 2228 666 
Q 2563 666 2741 848 
Q 2919 1031 2919 1375 
Q 2919 1722 2741 1905 
Q 2563 2088 2228 2088 
z
M 1350 2484 
Q 925 2613 709 2878 
Q 494 3144 494 3541 
Q 494 4131 934 4440 
Q 1375 4750 2228 4750 
Q 3075 4750 3515 4442 
Q 3956 4134 3956 3541 
Q 3956 3144 3739 2878 
Q 3522 2613 3097 2484 
Q 3572 2353 3814 2058 
Q 4056 1763 4056 1313 
Q 4056 619 3595 264 
Q 3134 -91 2228 -91 
Q 1319 -91 855 264 
Q 391 619 391 1313 
Q 391 1763 633 2058 
Q 875 2353 1350 2484 
z
M 1631 3419 
Q 1631 3141 1786 2991 
Q 1941 2841 2228 2841 
Q 2509 2841 2662 2991 
Q 2816 3141 2816 3419 
Q 2816 3697 2662 3845 
Q 2509 3994 2228 3994 
Q 1941 3994 1786 3844 
Q 1631 3694 1631 3419 
z
" transform="scale(0.015625)"/>
     </defs>
     <use xlink:href="#DejaVuSans-Bold-33"/>
     <use xlink:href="#DejaVuSans-Bold-38" transform="translate(69.580078 0)"/>
     <use xlink:href="#DejaVuSans-Bold-38" transform="translate(139.160156 0)"/>
    </g>
   </g>
   <g id="text_21">
    <!-- 128 -->
    <g style="fill: #bf8700" transform="translate(817.012614 386.580557) scale(0.09 -0.09)">
     <defs>
      <path id="DejaVuSans-Bold-31" d="M 750 831 
L 1813 831 
L 1813 3847 
L 722 3622 
L 722 4441 
L 1806 4666 
L 2950 4666 
L 2950 831 
L 4013 831 
L 4013 0 
L 750 0 
L 750 831 
z
" transform="scale(0.015625)"/>
      <path id="DejaVuSans-Bold-32" d="M 1844 884 
L 3897 884 
L 3897 0 
L 506 0 
L 506 884 
L 2209 2388 
Q 2438 2594 2547 2791 
Q 2656 2988 2656 3200 
Q 2656 3528 2436 3728 
Q 2216 3928 1850 3928 
Q 1569 3928 1234 3808 
Q 900 3688 519 3450 
L 519 4475 
Q 925 4609 1322 4679 
Q 1719 4750 2100 4750 
Q 2938 4750 3402 4381 
Q 3866 4013 3866 3353 
Q 3866 2972 3669 2642 
Q 3472 2313 2841 1759 
L 1844 884 
z
" transform="scale(0.015625)"/>
     </defs>
     <use xlink:href="#DejaVuSans-Bold-31"/>
     <use xlink:href="#DejaVuSans-Bold-32" transform="translate(69.580078 0)"/>
     <use xlink:href="#DejaVuSans-Bold-38" transform="translate(139.160156 0)"/>
    </g>
   </g>
   <g id="text_22">
    <!-- 296 -->
    <g style="fill: #cf222e" transform="translate(817.012614 293.208397) scale(0.09 -0.09)">
     <defs>
      <path id="DejaVuSans-Bold-36" d="M 2316 2303 
Q 2000 2303 1842 2098 
Q 1684 1894 1684 1484 
Q 1684 1075 1842 870 
Q 2000 666 2316 666 
Q 2634 666 2792 870 
Q 2950 1075 2950 1484 
Q 2950 1894 2792 2098 
Q 2634 2303 2316 2303 
z
M 3803 4544 
L 3803 3681 
Q 3506 3822 3243 3889 
Q 2981 3956 2731 3956 
Q 2194 3956 1894 3657 
Q 1594 3359 1544 2772 
Q 1750 2925 1990 3001 
Q 2231 3078 2516 3078 
Q 3231 3078 3670 2659 
Q 4109 2241 4109 1563 
Q 4109 813 3618 361 
Q 3128 -91 2303 -91 
Q 1394 -91 895 523 
Q 397 1138 397 2266 
Q 397 3422 980 4083 
Q 1563 4744 2578 4744 
Q 2900 4744 3203 4694 
Q 3506 4644 3803 4544 
z
" transform="scale(0.015625)"/>
     </defs>
     <use xlink:href="#DejaVuSans-Bold-32"/>
     <use xlink:href="#DejaVuSans-Bold-39" transform="translate(69.580078 0)"/>
     <use xlink:href="#DejaVuSans-Bold-36" transform="translate(139.160156 0)"/>
    </g>
   </g>
   <g id="text_23">
    <!-- 689 -->
    <g style="fill: #9467bd" transform="translate(817.012614 74.784237) scale(0.09 -0.09)">
     <use xlink:href="#DejaVuSans-Bold-36"/>
     <use xlink:href="#DejaVuSans-Bold-38" transform="translate(69.580078 0)"/>
     <use xlink:href="#DejaVuSans-Bold-39" transform="translate(139.160156 0)"/>
    </g>
   </g>
   <g id="text_24">
    <!-- Erdős Problems Progress -->
    <g style="fill: #24292f" transform="translate(349.588281 18.397812) scale(0.14 -0.14)">
     <defs>
      <path id="DejaVuSans-Bold-45" d="M 588 4666 
L 3834 4666 
L 3834 3756 
L 1791 3756 
L 1791 2888 
L 3713 2888 
L 3713 1978 
L 1791 1978 
L 1791 909 
L 3903 909 
L 3903 0 
L 588 0 
L 588 4666 
z
" transform="scale(0.015625)"/>
      <path id="DejaVuSans-Bold-72" d="M 3138 2547 
Q 2991 2616 2845 2648 
Q 2700 2681 2553 2681 
Q 2122 2681 1889 2404 
Q 1656 2128 1656 1613 
L 1656 0 
L 538 0 
L 538 3500 
L 1656 3500 
L 1656 2925 
Q 1872 3269 2151 3426 
Q 2431 3584 2822 3584 
Q 2878 3584 2943 3579 
Q 3009 3575 3134 3559 
L 3138 2547 
z
" transform="scale(0.015625)"/>
      <path id="DejaVuSans-Bold-64" d="M 2919 2988 
L 2919 4863 
L 4044 4863 
L 4044 0 
L 2919 0 
L 2919 506 
Q 2688 197 2409 53 
Q 2131 -91 1766 -91 
Q 1119 -91 703 423 
Q 288 938 288 1747 
Q 288 2556 703 3070 
Q 1119 3584 1766 3584 
Q 2128 3584 2408 3439 
Q 2688 3294 2919 2988 
z
M 2181 722 
Q 2541 722 2730 984 
Q 2919 1247 2919 1747 
Q 2919 2247 2730 2509 
Q 2541 2772 2181 2772 
Q 1825 2772 1636 2509 
Q 1447 2247 1447 1747 
Q 1447 1247 1636 984 
Q 1825 722 2181 722 
z
" transform="scale(0.015625)"/>
      <path id="DejaVuSans-Bold-151" d="M 1881 5119 
L 2560 5119 
L 1785 3944 
L 1275 3944 
L 1881 5119 
z
M 3016 5119 
L 3738 5119 
L 2888 3944 
L 2344 3944 
L 3016 5119 
z
M 2203 2784 
Q 1831 2784 1636 2517 
Q 1441 2250 1441 1747 
Q 1441 1244 1636 976 
Q 1831 709 2203 709 
Q 2569 709 2762 976 
Q 2956 1244 2956 1747 
Q 2956 2250 2762 2517 
Q 2569 2784 2203 2784 
z
M 2203 3584 
Q 3106 3584 3614 3096 
Q 4122 2609 4122 1747 
Q 4122 884 3614 396 
Q 3106 -91 2203 -91 
Q 1297 -91 786 396 
Q 275 884 275 1747 
Q 275 2609 786 3096 
Q 1297 3584 2203 3584 
z
" transform="scale(0.015625)"/>
      <path id="DejaVuSans-Bold-73" d="M 3272 3391 
L 3272 2541 
Q 2913 2691 2578 2766 
Q 2244 2841 1947 2841 
Q 1628 2841 1473 2761 
Q 1319 2681 1319 2516 
Q 1319 2381 1436 2309 
Q 1553 2238 1856 2203 
L 2053 2175 
Q 2913 2066 3209 1816 
Q 3506 1566 3506 1031 
Q 3506 472 3093 190 
Q 2681 -91 1863 -91 
Q 1516 -91 1145 -36 
Q 775 19 384 128 
L 384 978 
Q 719 816 1070 734 
Q 1422 653 1784 653 
Q 2113 653 2278 743 
Q 2444 834 2444 1013 
Q 2444 1163 2330 1236 
Q 2216 1309 1875 1350 
L 1678 1375 
Q 931 1469 631 1722 
Q 331 1975 331 2491 
Q 331 3047 712 3315 
Q 1094 3584 1881 3584 
Q 2191 3584 2531 3537 
Q 2872 3491 3272 3391 
z
" transform="scale(0.015625)"/>
      <path id="DejaVuSans-Bold-20" transform="scale(0.015625)"/>
      <path id="DejaVuSans-Bold-50" d="M 588 4666 
L 2584 4666 
Q 3475 4666 3951 4270 
Q 4428 3875 4428 3144 
Q 4428 2409 3951 2014 
Q 3475 1619 2584 1619 
L 1791 1619 
L 1791 0 
L 588 0 
L 588 4666 
z
M 1791 3794 
L 1791 2491 
L 2456 2491 
Q 2806 2491 2997 2661 
Q 3188 2831 3188 3144 
Q 3188 3456 2997 3625 
Q 2806 3794 2456 3794 
L 1791 3794 
z
" transform="scale(0.015625)"/>
      <path id="DejaVuSans-Bold-6f" d="M 2203 2784 
Q 1831 2784 1636 2517 
Q 1441 2250 1441 1747 
Q 1441 1244 1636 976 
Q 1831 709 2203 709 
Q 2569 709 2762 976 
Q 2956 1244 2956 1747 
Q 2956 2250 2762 2517 
Q 2569 2784 2203 2784 
z
M 2203 3584 
Q 3106 3584 3614 3096 
Q 4122 2609 4122 1747 
Q 4122 884 3614 396 
Q 3106 -91 2203 -91 
Q 1297 -91 786 396 
Q 275 884 275 1747 
Q 275 2609 786 3096 
Q 1297 3584 2203 3584 
z
" transform="scale(0.015625)"/>
      <path id="DejaVuSans-Bold-62" d="M 2400 722 
Q 2759 722 2948 984 
Q 3138 1247 3138 1747 
Q 3138 2247 2948 2509 
Q 2759 2772 2400 2772 
Q 2041 2772 1848 2508 
Q 1656 2244 1656 1747 
Q 1656 1250 1848 986 
Q 2041 722 2400 722 
z
M 1656 2988 
Q 1888 3294 2169 3439 
Q 2450 3584 2816 3584 
Q 3463 3584 3878 3070 
Q 4294 2556 4294 1747 
Q 4294 938 3878 423 
Q 3463 -91 2816 -91 
Q 2450 -91 2169 54 
Q 1888 200 1656 506 
L 1656 0 
L 538 0 
L 538 4863 
L 1656 4863 
L 1656 2988 
z
" transform="scale(0.015625)"/>
      <path id="DejaVuSans-Bold-6c" d="M 538 4863 
L 1656 4863 
L 1656 0 
L 538 0 
L 538 4863 
z
" transform="scale(0.015625)"/>
      <path id="DejaVuSans-Bold-65" d="M 4031 1759 
L 4031 1441 
L 1416 1441 
Q 1456 1047 1700 850 
Q 1944 653 2381 653 
Q 2734 653 3104 758 
Q 3475 863 3866 1075 
L 3866 213 
Q 3469 63 3072 -14 
Q 2675 -91 2278 -91 
Q 1328 -91 801 392 
Q 275 875 275 1747 
Q 275 2603 792 3093 
Q 1309 3584 2216 3584 
Q 3041 3584 3536 3087 
Q 4031 2591 4031 1759 
z
M 2881 2131 
Q 2881 2450 2695 2645 
Q 2509 2841 2209 2841 
Q 1884 2841 1681 2658 
Q 1478 2475 1428 2131 
L 2881 2131 
z
" transform="scale(0.015625)"/>
      <path id="DejaVuSans-Bold-6d" d="M 3781 2919 
Q 3994 3244 4286 3414 
Q 4578 3584 4928 3584 
Q 5531 3584 5847 3212 
Q 6163 2841 6163 2131 
L 6163 0 
L 5038 0 
L 5038 1825 
Q 5041 1866 5042 1909 
Q 5044 1953 5044 2034 
Q 5044 2406 4934 2573 
Q 4825 2741 4581 2741 
Q 4263 2741 4089 2478 
Q 3916 2216 3909 1719 
L 3909 0 
L 2784 0 
L 2784 1825 
Q 2784 2406 2684 2573 
Q 2584 2741 2328 2741 
Q 2006 2741 1831 2477 
Q 1656 2213 1656 1722 
L 1656 0 
L 531 0 
L 531 3500 
L 1656 3500 
L 1656 2988 
Q 1863 3284 2130 3434 
Q 2397 3584 2719 3584 
Q 3081 3584 3359 3409 
Q 3638 3234 3781 2919 
z
" transform="scale(0.015625)"/>
      <path id="DejaVuSans-Bold-67" d="M 2919 594 
Q 2688 288 2409 144 
Q 2131 0 1766 0 
Q 1125 0 706 504 
Q 288 1009 288 1791 
Q 288 2575 706 3076 
Q 1125 3578 1766 3578 
Q 2131 3578 2409 3434 
Q 2688 3291 2919 2981 
L 2919 3500 
L 4044 3500 
L 4044 353 
Q 4044 -491 3511 -936 
Q 2978 -1381 1966 -1381 
Q 1638 -1381 1331 -1331 
Q 1025 -1281 716 -1178 
L 716 -306 
Q 1009 -475 1290 -558 
Q 1572 -641 1856 -641 
Q 2406 -641 2662 -400 
Q 2919 -159 2919 353 
L 2919 594 
z
M 2181 2772 
Q 1834 2772 1640 2515 
Q 1447 2259 1447 1791 
Q 1447 1309 1634 1061 
Q 1822 813 2181 813 
Q 2531 813 2725 1069 
Q 2919 1325 2919 1791 
Q 2919 2259 2725 2515 
Q 2531 2772 2181 2772 
z
" transform="scale(0.015625)"/>
     </defs>
     <use xlink:href="#DejaVuSans-Bold-45"/>
     <use xlink:href="#DejaVuSans-Bold-72" transform="translate(68.310547 0)"/>
     <use xlink:href="#DejaVuSans-Bold-64" transform="translate(117.626953 0)"/>
     <use xlink:href="#DejaVuSans-Bold-151" transform="translate(189.208984 0)"/>
     <use xlink:href="#DejaVuSans-Bold-73" transform="translate(257.910156 0)"/>
     <use xlink:href="#DejaVuSans-Bold-20" transform="translate(317.431641 0)"/>
     <use xlink:href="#DejaVuSans-Bold-50" transform="translate(352.246094 0)"/>
     <use xlink:href="#DejaVuSans-Bold-72" transform="translate(425.537109 0)"/>
     <use xlink:href="#DejaVuSans-Bold-6f" transform="translate(474.853516 0)"/>
     <use xlink:href="#DejaVuSans-Bold-62" transform="translate(543.554688 0)"/>
     <use xlink:href="#DejaVuSans-Bold-6c" transform="translate(615.136719 0)"/>
     <use xlink:href="#DejaVuSans-Bold-65" transform="translate(649.414062 0)"/>
     <use xlink:href="#DejaVuSans-Bold-6d" transform="translate(717.236328 0)"/>
     <use xlink:href="#DejaVuSans-Bold-73" transform="translate(821.435547 0)"/>
     <use xlink:href="#DejaVuSans-Bold-20" transform="translate(880.957031 0)"/>
     <use xlink:href="#DejaVuSans-Bold-50" transform="translate(915.771484 0)"/>
     <use xlink:href="#DejaVuSans-Bold-72" transform="translate(989.0625 0)"/>
     <use xlink:href="#DejaVuSans-Bold-6f" transform="translate(1038.378906 0)"/>
     <use xlink:href="#DejaVuSans-Bold-67" transform="translate(1107.080078 0)"/>
     <use xlink:href="#DejaVuSans-Bold-72" transform="translate(1178.662109 0)"/>
     <use xlink:href="#DejaVuSans-Bold-65" transform="translate(1227.978516 0)"/>
     <use xlink:href="#DejaVuSans-Bold-73" transform="translate(1295.800781 0)"/>
     <use xlink:href="#DejaVuSans-Bold-73" transform="translate(1355.322266 0)"/>
    </g>
   </g>
   <g id="legend_1">
    <g id="patch_7">
     <path d="M 55.90125 119.788437 
L 213.771563 119.788437 
Q 215.771563 119.788437 215.771563 117.788437 
L 215.771563 45.397812 
Q 215.771563 43.397812 213.771563 43.397812 
L 55.90125 43.397812 
Q 53.90125 43.397812 53.90125 45.397812 
L 53.90125 117.788437 
Q 53.90125 119.788437 55.90125 119.788437 
z
" style="fill: #f6f8fa; opacity: 0.8; stroke: #d0d7de; stroke-linejoin: miter"/>
    </g>
    <g id="line2d_38">
     <path d="M 57.90125 51.49625 
L 67.90125 51.49625 
L 77.90125 51.49625 
" style="fill: none; stroke: #1a7f37; stroke-width: 2; stroke-linecap: square"/>
    </g>
    <g id="text_25">
     <!-- Solved -->
     <g style="fill: #24292f" transform="translate(85.90125 54.99625) scale(0.1 -0.1)">
      <defs>
       <path id="DejaVuSans-6c" d="M 603 4863 
L 1178 4863 
L 1178 0 
L 603 0 
L 603 4863 
z
" transform="scale(0.015625)"/>
       <path id="DejaVuSans-64" d="M 2906 2969 
L 2906 4863 
L 3481 4863 
L 3481 0 
L 2906 0 
L 2906 525 
Q 2725 213 2448 61 
Q 2172 -91 1784 -91 
Q 1150 -91 751 415 
Q 353 922 353 1747 
Q 353 2572 751 3078 
Q 1150 3584 1784 3584 
Q 2172 3584 2448 3432 
Q 2725 3281 2906 2969 
z
M 947 1747 
Q 947 1113 1208 752 
Q 1469 391 1925 391 
Q 2381 391 2643 752 
Q 2906 1113 2906 1747 
Q 2906 2381 2643 2742 
Q 2381 3103 1925 3103 
Q 1469 3103 1208 2742 
Q 947 2381 947 1747 
z
" transform="scale(0.015625)"/>
      </defs>
      <use xlink:href="#DejaVuSans-53"/>
      <use xlink:href="#DejaVuSans-6f" transform="translate(63.476562 0)"/>
      <use xlink:href="#DejaVuSans-6c" transform="translate(124.658203 0)"/>
      <use xlink:href="#DejaVuSans-76" transform="translate(152.441406 0)"/>
      <use xlink:href="#DejaVuSans-65" transform="translate(211.621094 0)"/>
      <use xlink:href="#DejaVuSans-64" transform="translate(273.144531 0)"/>
     </g>
    </g>
    <g id="line2d_39">
     <path d="M 57.90125 66.174375 
L 67.90125 66.174375 
L 77.90125 66.174375 
" style="fill: none; stroke: #0969da; stroke-width: 2; stroke-linecap: square"/>
    </g>
    <g id="text_26">
     <!-- Lean Formalized Problem -->
     <g style="fill: #24292f" transform="translate(85.90125 69.674375) scale(0.1 -0.1)">
      <defs>
       <path id="DejaVuSans-4c" d="M 628 4666 
L 1259 4666 
L 1259 531 
L 3531 531 
L 3531 0 
L 628 0 
L 628 4666 
z
" transform="scale(0.015625)"/>
       <path id="DejaVuSans-20" transform="scale(0.015625)"/>
       <path id="DejaVuSans-6d" d="M 3328 2828 
Q 3544 3216 3844 3400 
Q 4144 3584 4550 3584 
Q 5097 3584 5394 3201 
Q 5691 2819 5691 2113 
L 5691 0 
L 5113 0 
L 5113 2094 
Q 5113 2597 4934 2840 
Q 4756 3084 4391 3084 
Q 3944 3084 3684 2787 
Q 3425 2491 3425 1978 
L 3425 0 
L 2847 0 
L 2847 2094 
Q 2847 2600 2669 2842 
Q 2491 3084 2119 3084 
Q 1678 3084 1418 2786 
Q 1159 2488 1159 1978 
L 1159 0 
L 581 0 
L 581 3500 
L 1159 3500 
L 1159 2956 
Q 1356 3278 1631 3431 
Q 1906 3584 2284 3584 
Q 2666 3584 2933 3390 
Q 3200 3197 3328 2828 
z
" transform="scale(0.015625)"/>
       <path id="DejaVuSans-69" d="M 603 3500 
L 1178 3500 
L 1178 0 
L 603 0 
L 603 3500 
z
M 603 4863 
L 1178 4863 
L 1178 4134 
L 603 4134 
L 603 4863 
z
" transform="scale(0.015625)"/>
       <path id="DejaVuSans-7a" d="M 353 3500 
L 3084 3500 
L 3084 2975 
L 922 459 
L 3084 459 
L 3084 0 
L 275 0 
L 275 525 
L 2438 3041 
L 353 3041 
L 353 3500 
z
" transform="scale(0.015625)"/>
       <path id="DejaVuSans-50" d="M 1259 4147 
L 1259 2394 
L 2053 2394 
Q 2494 2394 2734 2622 
Q 2975 2850 2975 3272 
Q 2975 3691 2734 3919 
Q 2494 4147 2053 4147 
L 1259 4147 
z
M 628 4666 
L 2053 4666 
Q 2838 4666 3239 4311 
Q 3641 3956 3641 3272 
Q 3641 2581 3239 2228 
Q 2838 1875 2053 1875 
L 1259 1875 
L 1259 0 
L 628 0 
L 628 4666 
z
" transform="scale(0.015625)"/>
      </defs>
      <use xlink:href="#DejaVuSans-4c"/>
      <use xlink:href="#DejaVuSans-65" transform="translate(53.962891 0)"/>
      <use xlink:href="#DejaVuSans-61" transform="translate(115.486328 0)"/>
      <use xlink:href="#DejaVuSans-6e" transform="translate(176.765625 0)"/>
      <use xlink:href="#DejaVuSans-20" transform="translate(240.144531 0)"/>
      <use xlink:href="#DejaVuSans-46" transform="translate(271.931641 0)"/>
      <use xlink:href="#DejaVuSans-6f" transform="translate(325.826172 0)"/>
      <use xlink:href="#DejaVuSans-72" transform="translate(387.007812 0)"/>
      <use xlink:href="#DejaVuSans-6d" transform="translate(426.371094 0)"/>
      <use xlink:href="#DejaVuSans-61" transform="translate(523.783203 0)"/>
      <use xlink:href="#DejaVuSans-6c" transform="translate(585.0625 0)"/>
      <use xlink:href="#DejaVuSans-69" transform="translate(612.845703 0)"/>
      <use xlink:href="#DejaVuSans-7a" transform="translate(640.628906 0)"/>
      <use xlink:href="#DejaVuSans-65" transform="translate(693.119141 0)"/>
      <use xlink:href="#DejaVuSans-64" transform="translate(754.642578 0)"/>
      <use xlink:href="#DejaVuSans-20" transform="translate(818.119141 0)"/>
      <use xlink:href="#DejaVuSans-50" transform="translate(849.90625 0)"/>
      <use xlink:href="#DejaVuSans-72" transform="translate(908.458984 0)"/>
      <use xlink:href="#DejaVuSans-6f" transform="translate(947.322266 0)"/>
      <use xlink:href="#DejaVuSans-62" transform="translate(1008.503906 0)"/>
      <use xlink:href="#DejaVuSans-6c" transform="translate(1071.980469 0)"/>
      <use xlink:href="#DejaVuSans-65" transform="translate(1099.763672 0)"/>
      <use xlink:href="#DejaVuSans-6d" transform="translate(1161.287109 0)"/>
     </g>
    </g>
    <g id="line2d_40">
     <path d="M 57.90125 80.8525 
L 67.90125 80.8525 
L 77.90125 80.8525 
" style="fill: none; stroke: #bf8700; stroke-width: 2; stroke-linecap: square"/>
    </g>
    <g id="text_27">
     <!-- Lean Formalized Solution -->
     <g style="fill: #24292f" transform="translate(85.90125 84.3525) scale(0.1 -0.1)">
      <use xlink:href="#DejaVuSans-4c"/>
      <use xlink:href="#DejaVuSans-65" transform="translate(53.962891 0)"/>
      <use xlink:href="#DejaVuSans-61" transform="translate(115.486328 0)"/>
      <use xlink:href="#DejaVuSans-6e" transform="translate(176.765625 0)"/>
      <use xlink:href="#DejaVuSans-20" transform="translate(240.144531 0)"/>
      <use xlink:href="#DejaVuSans-46" transform="translate(271.931641 0)"/>
      <use xlink:href="#DejaVuSans-6f" transform="translate(325.826172 0)"/>
      <use xlink:href="#DejaVuSans-72" transform="translate(387.007812 0)"/>
      <use xlink:href="#DejaVuSans-6d" transform="translate(426.371094 0)"/>
      <use xlink:href="#DejaVuSans-61" transform="translate(523.783203 0)"/>
      <use xlink:href="#DejaVuSans-6c" transform="translate(585.0625 0)"/>
      <use xlink:href="#DejaVuSans-69" transform="translate(612.845703 0)"/>
      <use xlink:href="#DejaVuSans-7a" transform="translate(640.628906 0)"/>
      <use xlink:href="#DejaVuSans-65" transform="translate(693.119141 0)"/>
      <use xlink:href="#DejaVuSans-64" transform="translate(754.642578 0)"/>
      <use xlink:href="#DejaVuSans-20" transform="translate(818.119141 0)"/>
      <use xlink:href="#DejaVuSans-53" transform="translate(849.90625 0)"/>
      <use xlink:href="#DejaVuSans-6f" transform="translate(913.382812 0)"/>
      <use xlink:href="#DejaVuSans-6c" transform="translate(974.564453 0)"/>
      <use xlink:href="#DejaVuSans-75" transform="translate(1002.347656 0)"/>
      <use xlink:href="#DejaVuSans-74" transform="translate(1065.726562 0)"/>
      <use xlink:href="#DejaVuSans-69" transform="translate(1104.935547 0)"/>
      <use xlink:href="#DejaVuSans-6f" transform="translate(1132.71875 0)"/>
      <use xlink:href="#DejaVuSans-6e" transform="translate(1193.900391 0)"/>
     </g>
    </g>
    <g id="line2d_41">
     <path d="M 57.90125 95.530625 
L 67.90125 95.530625 
L 77.90125 95.530625 
" style="fill: none; stroke: #cf222e; stroke-width: 2; stroke-linecap: square"/>
    </g>
    <g id="text_28">
     <!-- OEIS Linked -->
     <g style="fill: #24292f" transform="translate(85.90125 99.030625) scale(0.1 -0.1)">
      <defs>
       <path id="DejaVuSans-45" d="M 628 4666 
L 3578 4666 
L 3578 4134 
L 1259 4134 
L 1259 2753 
L 3481 2753 
L 3481 2222 
L 1259 2222 
L 1259 531 
L 3634 531 
L 3634 0 
L 628 0 
L 628 4666 
z
" transform="scale(0.015625)"/>
       <path id="DejaVuSans-49" d="M 628 4666 
L 1259 4666 
L 1259 0 
L 628 0 
L 628 4666 
z
" transform="scale(0.015625)"/>
       <path id="DejaVuSans-6b" d="M 581 4863 
L 1159 4863 
L 1159 1991 
L 2875 3500 
L 3609 3500 
L 1753 1863 
L 3688 0 
L 2938 0 
L 1159 1709 
L 1159 0 
L 581 0 
L 581 4863 
z
" transform="scale(0.015625)"/>
      </defs>
      <use xlink:href="#DejaVuSans-4f"/>
      <use xlink:href="#DejaVuSans-45" transform="translate(78.710938 0)"/>
      <use xlink:href="#DejaVuSans-49" transform="translate(141.894531 0)"/>
      <use xlink:href="#DejaVuSans-53" transform="translate(171.386719 0)"/>
      <use xlink:href="#DejaVuSans-20" transform="translate(234.863281 0)"/>
      <use xlink:href="#DejaVuSans-4c" transform="translate(266.650391 0)"/>
      <use xlink:href="#DejaVuSans-69" transform="translate(322.363281 0)"/>
      <use xlink:href="#DejaVuSans-6e" transform="translate(350.146484 0)"/>
      <use xlink:href="#DejaVuSans-6b" transform="translate(413.525391 0)"/>
      <use xlink:href="#DejaVuSans-65" transform="translate(467.810547 0)"/>
      <use xlink:href="#DejaVuSans-64" transform="translate(529.333984 0)"/>
     </g>
    </g>
    <g id="line2d_42">
     <path d="M 57.90125 110.20875 
L 67.90125 110.20875 
L 77.90125 110.20875 
" style="fill: none; stroke: #9467bd; stroke-width: 2; stroke-linecap: square"/>
    </g>
    <g id="text_29">
     <!-- Open Problems -->
     <g style="fill: #24292f" transform="translate(85.90125 113.70875) scale(0.1 -0.1)">
      <defs>
       <path id="DejaVuSans-73" d="M 2834 3397 
L 2834 2853 
Q 2591 2978 2328 3040 
Q 2066 3103 1784 3103 
Q 1356 3103 1142 2972 
Q 928 2841 928 2578 
Q 928 2378 1081 2264 
Q 1234 2150 1697 2047 
L 1894 2003 
Q 2506 1872 2764 1633 
Q 3022 1394 3022 966 
Q 3022 478 2636 193 
Q 2250 -91 1575 -91 
Q 1294 -91 989 -36 
Q 684 19 347 128 
L 347 722 
Q 666 556 975 473 
Q 1284 391 1588 391 
Q 1994 391 2212 530 
Q 2431 669 2431 922 
Q 2431 1156 2273 1281 
Q 2116 1406 1581 1522 
L 1381 1569 
Q 847 1681 609 1914 
Q 372 2147 372 2553 
Q 372 3047 722 3315 
Q 1072 3584 1716 3584 
Q 2034 3584 2315 3537 
Q 2597 3491 2834 3397 
z
" transform="scale(0.015625)"/>
      </defs>
      <use xlink:href="#DejaVuSans-4f"/>
      <use xlink:href="#DejaVuSans-70" transform="translate(78.710938 0)"/>
      <use xlink:href="#DejaVuSans-65" transform="translate(142.1875 0)"/>
      <use xlink:href="#DejaVuSans-6e" transform="translate(203.710938 0)"/>
      <use xlink:href="#DejaVuSans-20" transform="translate(267.089844 0)"/>
      <use xlink:href="#DejaVuSans-50" transform="translate(298.876953 0)"/>
      <use xlink:href="#DejaVuSans-72" transform="translate(357.429688 0)"/>
      <use xlink:href="#DejaVuSans-6f" transform="translate(396.292969 0)"/>
      <use xlink:href="#DejaVuSans-62" transform="translate(457.474609 0)"/>
      <use xlink:href="#DejaVuSans-6c" transform="translate(520.951172 0)"/>
      <use xlink:href="#DejaVuSans-65" transform="translate(548.734375 0)"/>
      <use xlink:href="#DejaVuSans-6d" transform="translate(610.257812 0)"/>
      <use xlink:href="#DejaVuSans-73" transform="translate(707.669922 0)"/>
     </g>
    </g>
   </g>
  </g>
 </g>
 <defs>
  <clipPath id="pb63b634b70">
   <rect x="48.90125" y="38.397812" width="799.45" height="416.84"/>
  </clipPath>
 </defs>
</svg>
