<?xml version="1.0" encoding="utf-8" standalone="no"?>
<!DOCTYPE svg PUBLIC "-//W3C//DTD SVG 1.1//EN"
  "http://www.w3.org/Graphics/SVG/1.1/DTD/svg11.dtd">
<svg xmlns:xlink="http://www.w3.org/1999/xlink" width="855.55125pt" height="494.729687pt" viewBox="0 0 855.55125 494.729687" xmlns="http://www.w3.org/2000/svg" version="1.1">
 <metadata>
  <rdf:RDF xmlns:dc="http://purl.org/dc/elements/1.1/" xmlns:cc="http://creativecommons.org/ns#" xmlns:rdf="http://www.w3.org/1999/02/22-rdf-syntax-ns#">
   <cc:Work>
    <dc:type rdf:resource="http://purl.org/dc/dcmitype/StillImage"/>
    <dc:date>2026-06-01T12:15:48.046345</dc:date>
    <dc:format>image/svg+xml</dc:format>
    <dc:creator>
     <cc:Agent>
      <dc:title>Matplotlib v3.10.7, https://matplotlib.org/</dc:title>
     </cc:Agent>
    </dc:creator>
   </cc:Work>
  </rdf:RDF>
 </metadata>
 <defs>
  <style type="text/css">*{stroke-linejoin: round; stroke-linecap: butt}</style>
 </defs>
 <g id="figure_1">
  <g id="patch_1">
   <path d="M 0 494.729687 
L 855.55125 494.729687 
L 855.55125 0 
L 0 0 
z
" style="fill: #ffffff"/>
  </g>
  <g id="axes_1">
   <g id="patch_2">
    <path d="M 48.90125 455.237812 
L 848.35125 455.237812 
L 848.35125 38.397812 
L 48.90125 38.397812 
z
" style="fill: #ffffff"/>
   </g>
   <g id="matplotlib.axis_1">
    <g id="xtick_1">
     <g id="line2d_1">
      <path d="M 86.015857 455.237812 
L 86.015857 38.397812 
" clip-path="url(#pbe27028f9f)" style="fill: none; stroke: #d0d7de; stroke-opacity: 0.25; stroke-width: 0.5; stroke-linecap: square"/>
     </g>
     <g id="line2d_2">
      <defs>
       <path id="mc12ec27ed1" d="M 0 0 
L 0 3.5 
" style="stroke: #24292f; stroke-width: 0.8"/>
      </defs>
      <g>
       <use xlink:href="#mc12ec27ed1" x="86.015857" y="455.237812" style="fill: #24292f; stroke: #24292f; stroke-width: 0.8"/>
      </g>
     </g>
     <g id="text_1">
      <!-- Sep -->
      <g style="fill: #24292f" transform="translate(76.590857 469.83625) scale(0.1 -0.1)">
       <defs>
        <path id="DejaVuSans-53" d="M 3425 4513 
L 3425 3897 
Q 3066 4069 2747 4153 
Q 2428 4238 2131 4238 
Q 1616 4238 1336 4038 
Q 1056 3838 1056 3469 
Q 1056 3159 1242 3001 
Q 1428 2844 1947 2747 
L 2328 2669 
Q 3034 2534 3370 2195 
Q 3706 1856 3706 1288 
Q 3706 609 3251 259 
Q 2797 -91 1919 -91 
Q 1588 -91 1214 -16 
Q 841 59 441 206 
L 441 856 
Q 825 641 1194 531 
Q 1563 422 1919 422 
Q 2459 422 2753 634 
Q 3047 847 3047 1241 
Q 3047 1584 2836 1778 
Q 2625 1972 2144 2069 
L 1759 2144 
Q 1053 2284 737 2584 
Q 422 2884 422 3419 
Q 422 4038 858 4394 
Q 1294 4750 2059 4750 
Q 2388 4750 2728 4690 
Q 3069 4631 3425 4513 
z
" transform="scale(0.015625)"/>
        <path id="DejaVuSans-65" d="M 3597 1894 
L 3597 1613 
L 953 1613 
Q 991 1019 1311 708 
Q 1631 397 2203 397 
Q 2534 397 2845 478 
Q 3156 559 3463 722 
L 3463 178 
Q 3153 47 2828 -22 
Q 2503 -91 2169 -91 
Q 1331 -91 842 396 
Q 353 884 353 1716 
Q 353 2575 817 3079 
Q 1281 3584 2069 3584 
Q 2775 3584 3186 3129 
Q 3597 2675 3597 1894 
z
M 3022 2063 
Q 3016 2534 2758 2815 
Q 2500 3097 2075 3097 
Q 1594 3097 1305 2825 
Q 1016 2553 972 2059 
L 3022 2063 
z
" transform="scale(0.015625)"/>
        <path id="DejaVuSans-70" d="M 1159 525 
L 1159 -1331 
L 581 -1331 
L 581 3500 
L 1159 3500 
L 1159 2969 
Q 1341 3281 1617 3432 
Q 1894 3584 2278 3584 
Q 2916 3584 3314 3078 
Q 3713 2572 3713 1747 
Q 3713 922 3314 415 
Q 2916 -91 2278 -91 
Q 1894 -91 1617 61 
Q 1341 213 1159 525 
z
M 3116 1747 
Q 3116 2381 2855 2742 
Q 2594 3103 2138 3103 
Q 1681 3103 1420 2742 
Q 1159 2381 1159 1747 
Q 1159 1113 1420 752 
Q 1681 391 2138 391 
Q 2594 391 2855 752 
Q 3116 1113 3116 1747 
z
" transform="scale(0.015625)"/>
       </defs>
       <use xlink:href="#DejaVuSans-53"/>
       <use xlink:href="#DejaVuSans-65" transform="translate(63.476562 0)"/>
       <use xlink:href="#DejaVuSans-70" transform="translate(125 0)"/>
      </g>
     </g>
    </g>
    <g id="xtick_2">
     <g id="line2d_3">
      <path d="M 165.646679 455.237812 
L 165.646679 38.397812 
" clip-path="url(#pbe27028f9f)" style="fill: none; stroke: #d0d7de; stroke-opacity: 0.25; stroke-width: 0.5; stroke-linecap: square"/>
     </g>
     <g id="line2d_4">
      <g>
       <use xlink:href="#mc12ec27ed1" x="165.646679" y="455.237812" style="fill: #24292f; stroke: #24292f; stroke-width: 0.8"/>
      </g>
     </g>
     <g id="text_2">
      <!-- Oct -->
      <g style="fill: #24292f" transform="translate(157.001367 469.83625) scale(0.1 -0.1)">
       <defs>
        <path id="DejaVuSans-4f" d="M 2522 4238 
Q 1834 4238 1429 3725 
Q 1025 3213 1025 2328 
Q 1025 1447 1429 934 
Q 1834 422 2522 422 
Q 3209 422 3611 934 
Q 4013 1447 4013 2328 
Q 4013 3213 3611 3725 
Q 3209 4238 2522 4238 
z
M 2522 4750 
Q 3503 4750 4090 4092 
Q 4678 3434 4678 2328 
Q 4678 1225 4090 567 
Q 3503 -91 2522 -91 
Q 1538 -91 948 565 
Q 359 1222 359 2328 
Q 359 3434 948 4092 
Q 1538 4750 2522 4750 
z
" transform="scale(0.015625)"/>
        <path id="DejaVuSans-63" d="M 3122 3366 
L 3122 2828 
Q 2878 2963 2633 3030 
Q 2388 3097 2138 3097 
Q 1578 3097 1268 2742 
Q 959 2388 959 1747 
Q 959 1106 1268 751 
Q 1578 397 2138 397 
Q 2388 397 2633 464 
Q 2878 531 3122 666 
L 3122 134 
Q 2881 22 2623 -34 
Q 2366 -91 2075 -91 
Q 1284 -91 818 406 
Q 353 903 353 1747 
Q 353 2603 823 3093 
Q 1294 3584 2113 3584 
Q 2378 3584 2631 3529 
Q 2884 3475 3122 3366 
z
" transform="scale(0.015625)"/>
        <path id="DejaVuSans-74" d="M 1172 4494 
L 1172 3500 
L 2356 3500 
L 2356 3053 
L 1172 3053 
L 1172 1153 
Q 1172 725 1289 603 
Q 1406 481 1766 481 
L 2356 481 
L 2356 0 
L 1766 0 
Q 1100 0 847 248 
Q 594 497 594 1153 
L 594 3053 
L 172 3053 
L 172 3500 
L 594 3500 
L 594 4494 
L 1172 4494 
z
" transform="scale(0.015625)"/>
       </defs>
       <use xlink:href="#DejaVuSans-4f"/>
       <use xlink:href="#DejaVuSans-63" transform="translate(78.710938 0)"/>
       <use xlink:href="#DejaVuSans-74" transform="translate(133.691406 0)"/>
      </g>
     </g>
    </g>
    <g id="xtick_3">
     <g id="line2d_5">
      <path d="M 247.931862 455.237812 
L 247.931862 38.397812 
" clip-path="url(#pbe27028f9f)" style="fill: none; stroke: #d0d7de; stroke-opacity: 0.25; stroke-width: 0.5; stroke-linecap: square"/>
     </g>
     <g id="line2d_6">
      <g>
       <use xlink:href="#mc12ec27ed1" x="247.931862" y="455.237812" style="fill: #24292f; stroke: #24292f; stroke-width: 0.8"/>
      </g>
     </g>
     <g id="text_3">
      <!-- Nov -->
      <g style="fill: #24292f" transform="translate(238.172487 469.83625) scale(0.1 -0.1)">
       <defs>
        <path id="DejaVuSans-4e" d="M 628 4666 
L 1478 4666 
L 3547 763 
L 3547 4666 
L 4159 4666 
L 4159 0 
L 3309 0 
L 1241 3903 
L 1241 0 
L 628 0 
L 628 4666 
z
" transform="scale(0.015625)"/>
        <path id="DejaVuSans-6f" d="M 1959 3097 
Q 1497 3097 1228 2736 
Q 959 2375 959 1747 
Q 959 1119 1226 758 
Q 1494 397 1959 397 
Q 2419 397 2687 759 
Q 2956 1122 2956 1747 
Q 2956 2369 2687 2733 
Q 2419 3097 1959 3097 
z
M 1959 3584 
Q 2709 3584 3137 3096 
Q 3566 2609 3566 1747 
Q 3566 888 3137 398 
Q 2709 -91 1959 -91 
Q 1206 -91 779 398 
Q 353 888 353 1747 
Q 353 2609 779 3096 
Q 1206 3584 1959 3584 
z
" transform="scale(0.015625)"/>
        <path id="DejaVuSans-76" d="M 191 3500 
L 800 3500 
L 1894 563 
L 2988 3500 
L 3597 3500 
L 2284 0 
L 1503 0 
L 191 3500 
z
" transform="scale(0.015625)"/>
       </defs>
       <use xlink:href="#DejaVuSans-4e"/>
       <use xlink:href="#DejaVuSans-6f" transform="translate(74.804688 0)"/>
       <use xlink:href="#DejaVuSans-76" transform="translate(135.986328 0)"/>
      </g>
     </g>
    </g>
    <g id="xtick_4">
     <g id="line2d_7">
      <path d="M 327.562684 455.237812 
L 327.562684 38.397812 
" clip-path="url(#pbe27028f9f)" style="fill: none; stroke: #d0d7de; stroke-opacity: 0.25; stroke-width: 0.5; stroke-linecap: square"/>
     </g>
     <g id="line2d_8">
      <g>
       <use xlink:href="#mc12ec27ed1" x="327.562684" y="455.237812" style="fill: #24292f; stroke: #24292f; stroke-width: 0.8"/>
      </g>
     </g>
     <g id="text_4">
      <!-- Dec -->
      <g style="fill: #24292f" transform="translate(317.886903 469.83625) scale(0.1 -0.1)">
       <defs>
        <path id="DejaVuSans-44" d="M 1259 4147 
L 1259 519 
L 2022 519 
Q 2988 519 3436 956 
Q 3884 1394 3884 2338 
Q 3884 3275 3436 3711 
Q 2988 4147 2022 4147 
L 1259 4147 
z
M 628 4666 
L 1925 4666 
Q 3281 4666 3915 4102 
Q 4550 3538 4550 2338 
Q 4550 1131 3912 565 
Q 3275 0 1925 0 
L 628 0 
L 628 4666 
z
" transform="scale(0.015625)"/>
       </defs>
       <use xlink:href="#DejaVuSans-44"/>
       <use xlink:href="#DejaVuSans-65" transform="translate(77.001953 0)"/>
       <use xlink:href="#DejaVuSans-63" transform="translate(138.525391 0)"/>
      </g>
     </g>
    </g>
    <g id="xtick_5">
     <g id="line2d_9">
      <path d="M 409.847867 455.237812 
L 409.847867 38.397812 
" clip-path="url(#pbe27028f9f)" style="fill: none; stroke: #d0d7de; stroke-opacity: 0.25; stroke-width: 0.5; stroke-linecap: square"/>
     </g>
     <g id="line2d_10">
      <g>
       <use xlink:href="#mc12ec27ed1" x="409.847867" y="455.237812" style="fill: #24292f; stroke: #24292f; stroke-width: 0.8"/>
      </g>
     </g>
     <g id="text_5">
      <!-- 2026 -->
      <g style="fill: #24292f" transform="translate(397.122867 469.83625) scale(0.1 -0.1)">
       <defs>
        <path id="DejaVuSans-32" d="M 1228 531 
L 3431 531 
L 3431 0 
L 469 0 
L 469 531 
Q 828 903 1448 1529 
Q 2069 2156 2228 2338 
Q 2531 2678 2651 2914 
Q 2772 3150 2772 3378 
Q 2772 3750 2511 3984 
Q 2250 4219 1831 4219 
Q 1534 4219 1204 4116 
Q 875 4013 500 3803 
L 500 4441 
Q 881 4594 1212 4672 
Q 1544 4750 1819 4750 
Q 2544 4750 2975 4387 
Q 3406 4025 3406 3419 
Q 3406 3131 3298 2873 
Q 3191 2616 2906 2266 
Q 2828 2175 2409 1742 
Q 1991 1309 1228 531 
z
" transform="scale(0.015625)"/>
        <path id="DejaVuSans-30" d="M 2034 4250 
Q 1547 4250 1301 3770 
Q 1056 3291 1056 2328 
Q 1056 1369 1301 889 
Q 1547 409 2034 409 
Q 2525 409 2770 889 
Q 3016 1369 3016 2328 
Q 3016 3291 2770 3770 
Q 2525 4250 2034 4250 
z
M 2034 4750 
Q 2819 4750 3233 4129 
Q 3647 3509 3647 2328 
Q 3647 1150 3233 529 
Q 2819 -91 2034 -91 
Q 1250 -91 836 529 
Q 422 1150 422 2328 
Q 422 3509 836 4129 
Q 1250 4750 2034 4750 
z
" transform="scale(0.015625)"/>
        <path id="DejaVuSans-36" d="M 2113 2584 
Q 1688 2584 1439 2293 
Q 1191 2003 1191 1497 
Q 1191 994 1439 701 
Q 1688 409 2113 409 
Q 2538 409 2786 701 
Q 3034 994 3034 1497 
Q 3034 2003 2786 2293 
Q 2538 2584 2113 2584 
z
M 3366 4563 
L 3366 3988 
Q 3128 4100 2886 4159 
Q 2644 4219 2406 4219 
Q 1781 4219 1451 3797 
Q 1122 3375 1075 2522 
Q 1259 2794 1537 2939 
Q 1816 3084 2150 3084 
Q 2853 3084 3261 2657 
Q 3669 2231 3669 1497 
Q 3669 778 3244 343 
Q 2819 -91 2113 -91 
Q 1303 -91 875 529 
Q 447 1150 447 2328 
Q 447 3434 972 4092 
Q 1497 4750 2381 4750 
Q 2619 4750 2861 4703 
Q 3103 4656 3366 4563 
z
" transform="scale(0.015625)"/>
       </defs>
       <use xlink:href="#DejaVuSans-32"/>
       <use xlink:href="#DejaVuSans-30" transform="translate(63.623047 0)"/>
       <use xlink:href="#DejaVuSans-32" transform="translate(127.246094 0)"/>
       <use xlink:href="#DejaVuSans-36" transform="translate(190.869141 0)"/>
      </g>
     </g>
    </g>
    <g id="xtick_6">
     <g id="line2d_11">
      <path d="M 492.133051 455.237812 
L 492.133051 38.397812 
" clip-path="url(#pbe27028f9f)" style="fill: none; stroke: #d0d7de; stroke-opacity: 0.25; stroke-width: 0.5; stroke-linecap: square"/>
     </g>
     <g id="line2d_12">
      <g>
       <use xlink:href="#mc12ec27ed1" x="492.133051" y="455.237812" style="fill: #24292f; stroke: #24292f; stroke-width: 0.8"/>
      </g>
     </g>
     <g id="text_6">
      <!-- Feb -->
      <g style="fill: #24292f" transform="translate(483.281488 469.83625) scale(0.1 -0.1)">
       <defs>
        <path id="DejaVuSans-46" d="M 628 4666 
L 3309 4666 
L 3309 4134 
L 1259 4134 
L 1259 2759 
L 3109 2759 
L 3109 2228 
L 1259 2228 
L 1259 0 
L 628 0 
L 628 4666 
z
" transform="scale(0.015625)"/>
        <path id="DejaVuSans-62" d="M 3116 1747 
Q 3116 2381 2855 2742 
Q 2594 3103 2138 3103 
Q 1681 3103 1420 2742 
Q 1159 2381 1159 1747 
Q 1159 1113 1420 752 
Q 1681 391 2138 391 
Q 2594 391 2855 752 
Q 3116 1113 3116 1747 
z
M 1159 2969 
Q 1341 3281 1617 3432 
Q 1894 3584 2278 3584 
Q 2916 3584 3314 3078 
Q 3713 2572 3713 1747 
Q 3713 922 3314 415 
Q 2916 -91 2278 -91 
Q 1894 -91 1617 61 
Q 1341 213 1159 525 
L 1159 0 
L 581 0 
L 581 4863 
L 1159 4863 
L 1159 2969 
z
" transform="scale(0.015625)"/>
       </defs>
       <use xlink:href="#DejaVuSans-46"/>
       <use xlink:href="#DejaVuSans-65" transform="translate(52.019531 0)"/>
       <use xlink:href="#DejaVuSans-62" transform="translate(113.542969 0)"/>
      </g>
     </g>
    </g>
    <g id="xtick_7">
     <g id="line2d_13">
      <path d="M 566.455151 455.237812 
L 566.455151 38.397812 
" clip-path="url(#pbe27028f9f)" style="fill: none; stroke: #d0d7de; stroke-opacity: 0.25; stroke-width: 0.5; stroke-linecap: square"/>
     </g>
     <g id="line2d_14">
      <g>
       <use xlink:href="#mc12ec27ed1" x="566.455151" y="455.237812" style="fill: #24292f; stroke: #24292f; stroke-width: 0.8"/>
      </g>
     </g>
     <g id="text_7">
      <!-- Mar -->
      <g style="fill: #24292f" transform="translate(557.021558 469.83625) scale(0.1 -0.1)">
       <defs>
        <path id="DejaVuSans-4d" d="M 628 4666 
L 1569 4666 
L 2759 1491 
L 3956 4666 
L 4897 4666 
L 4897 0 
L 4281 0 
L 4281 4097 
L 3078 897 
L 2444 897 
L 1241 4097 
L 1241 0 
L 628 0 
L 628 4666 
z
" transform="scale(0.015625)"/>
        <path id="DejaVuSans-61" d="M 2194 1759 
Q 1497 1759 1228 1600 
Q 959 1441 959 1056 
Q 959 750 1161 570 
Q 1363 391 1709 391 
Q 2188 391 2477 730 
Q 2766 1069 2766 1631 
L 2766 1759 
L 2194 1759 
z
M 3341 1997 
L 3341 0 
L 2766 0 
L 2766 531 
Q 2569 213 2275 61 
Q 1981 -91 1556 -91 
Q 1019 -91 701 211 
Q 384 513 384 1019 
Q 384 1609 779 1909 
Q 1175 2209 1959 2209 
L 2766 2209 
L 2766 2266 
Q 2766 2663 2505 2880 
Q 2244 3097 1772 3097 
Q 1472 3097 1187 3025 
Q 903 2953 641 2809 
L 641 3341 
Q 956 3463 1253 3523 
Q 1550 3584 1831 3584 
Q 2591 3584 2966 3190 
Q 3341 2797 3341 1997 
z
" transform="scale(0.015625)"/>
        <path id="DejaVuSans-72" d="M 2631 2963 
Q 2534 3019 2420 3045 
Q 2306 3072 2169 3072 
Q 1681 3072 1420 2755 
Q 1159 2438 1159 1844 
L 1159 0 
L 581 0 
L 581 3500 
L 1159 3500 
L 1159 2956 
Q 1341 3275 1631 3429 
Q 1922 3584 2338 3584 
Q 2397 3584 2469 3576 
Q 2541 3569 2628 3553 
L 2631 2963 
z
" transform="scale(0.015625)"/>
       </defs>
       <use xlink:href="#DejaVuSans-4d"/>
       <use xlink:href="#DejaVuSans-61" transform="translate(86.279297 0)"/>
       <use xlink:href="#DejaVuSans-72" transform="translate(147.558594 0)"/>
      </g>
     </g>
    </g>
    <g id="xtick_8">
     <g id="line2d_15">
      <path d="M 648.740334 455.237812 
L 648.740334 38.397812 
" clip-path="url(#pbe27028f9f)" style="fill: none; stroke: #d0d7de; stroke-opacity: 0.25; stroke-width: 0.5; stroke-linecap: square"/>
     </g>
     <g id="line2d_16">
      <g>
       <use xlink:href="#mc12ec27ed1" x="648.740334" y="455.237812" style="fill: #24292f; stroke: #24292f; stroke-width: 0.8"/>
      </g>
     </g>
     <g id="text_8">
      <!-- Apr -->
      <g style="fill: #24292f" transform="translate(640.090334 469.83625) scale(0.1 -0.1)">
       <defs>
        <path id="DejaVuSans-41" d="M 2188 4044 
L 1331 1722 
L 3047 1722 
L 2188 4044 
z
M 1831 4666 
L 2547 4666 
L 4325 0 
L 3669 0 
L 3244 1197 
L 1141 1197 
L 716 0 
L 50 0 
L 1831 4666 
z
" transform="scale(0.015625)"/>
       </defs>
       <use xlink:href="#DejaVuSans-41"/>
       <use xlink:href="#DejaVuSans-70" transform="translate(68.408203 0)"/>
       <use xlink:href="#DejaVuSans-72" transform="translate(131.884766 0)"/>
      </g>
     </g>
    </g>
    <g id="xtick_9">
     <g id="line2d_17">
      <path d="M 728.371157 455.237812 
L 728.371157 38.397812 
" clip-path="url(#pbe27028f9f)" style="fill: none; stroke: #d0d7de; stroke-opacity: 0.25; stroke-width: 0.5; stroke-linecap: square"/>
     </g>
     <g id="line2d_18">
      <g>
       <use xlink:href="#mc12ec27ed1" x="728.371157" y="455.237812" style="fill: #24292f; stroke: #24292f; stroke-width: 0.8"/>
      </g>
     </g>
     <g id="text_9">
      <!-- May -->
      <g style="fill: #24292f" transform="translate(718.033657 469.83625) scale(0.1 -0.1)">
       <defs>
        <path id="DejaVuSans-79" d="M 2059 -325 
Q 1816 -950 1584 -1140 
Q 1353 -1331 966 -1331 
L 506 -1331 
L 506 -850 
L 844 -850 
Q 1081 -850 1212 -737 
Q 1344 -625 1503 -206 
L 1606 56 
L 191 3500 
L 800 3500 
L 1894 763 
L 2988 3500 
L 3597 3500 
L 2059 -325 
z
" transform="scale(0.015625)"/>
       </defs>
       <use xlink:href="#DejaVuSans-4d"/>
       <use xlink:href="#DejaVuSans-61" transform="translate(86.279297 0)"/>
       <use xlink:href="#DejaVuSans-79" transform="translate(147.558594 0)"/>
      </g>
     </g>
    </g>
    <g id="xtick_10">
     <g id="line2d_19">
      <path d="M 810.65634 455.237812 
L 810.65634 38.397812 
" clip-path="url(#pbe27028f9f)" style="fill: none; stroke: #d0d7de; stroke-opacity: 0.25; stroke-width: 0.5; stroke-linecap: square"/>
     </g>
     <g id="line2d_20">
      <g>
       <use xlink:href="#mc12ec27ed1" x="810.65634" y="455.237812" style="fill: #24292f; stroke: #24292f; stroke-width: 0.8"/>
      </g>
     </g>
     <g id="text_10">
      <!-- Jun -->
      <g style="fill: #24292f" transform="translate(802.84384 469.83625) scale(0.1 -0.1)">
       <defs>
        <path id="DejaVuSans-4a" d="M 628 4666 
L 1259 4666 
L 1259 325 
Q 1259 -519 939 -900 
Q 619 -1281 -91 -1281 
L -331 -1281 
L -331 -750 
L -134 -750 
Q 284 -750 456 -515 
Q 628 -281 628 325 
L 628 4666 
z
" transform="scale(0.015625)"/>
        <path id="DejaVuSans-75" d="M 544 1381 
L 544 3500 
L 1119 3500 
L 1119 1403 
Q 1119 906 1312 657 
Q 1506 409 1894 409 
Q 2359 409 2629 706 
Q 2900 1003 2900 1516 
L 2900 3500 
L 3475 3500 
L 3475 0 
L 2900 0 
L 2900 538 
Q 2691 219 2414 64 
Q 2138 -91 1772 -91 
Q 1169 -91 856 284 
Q 544 659 544 1381 
z
M 1991 3584 
L 1991 3584 
z
" transform="scale(0.015625)"/>
        <path id="DejaVuSans-6e" d="M 3513 2113 
L 3513 0 
L 2938 0 
L 2938 2094 
Q 2938 2591 2744 2837 
Q 2550 3084 2163 3084 
Q 1697 3084 1428 2787 
Q 1159 2491 1159 1978 
L 1159 0 
L 581 0 
L 581 3500 
L 1159 3500 
L 1159 2956 
Q 1366 3272 1645 3428 
Q 1925 3584 2291 3584 
Q 2894 3584 3203 3211 
Q 3513 2838 3513 2113 
z
" transform="scale(0.015625)"/>
       </defs>
       <use xlink:href="#DejaVuSans-4a"/>
       <use xlink:href="#DejaVuSans-75" transform="translate(29.492188 0)"/>
       <use xlink:href="#DejaVuSans-6e" transform="translate(92.871094 0)"/>
      </g>
     </g>
    </g>
    <g id="text_11">
     <!-- Date -->
     <g style="fill: #24292f" transform="translate(434.285313 485.034062) scale(0.12 -0.12)">
      <use xlink:href="#DejaVuSans-44"/>
      <use xlink:href="#DejaVuSans-61" transform="translate(77.001953 0)"/>
      <use xlink:href="#DejaVuSans-74" transform="translate(138.28125 0)"/>
      <use xlink:href="#DejaVuSans-65" transform="translate(177.490234 0)"/>
     </g>
    </g>
   </g>
   <g id="matplotlib.axis_2">
    <g id="ytick_1">
     <g id="line2d_21">
      <path d="M 48.90125 455.237812 
L 848.35125 455.237812 
" clip-path="url(#pbe27028f9f)" style="fill: none; stroke: #d0d7de; stroke-opacity: 0.25; stroke-width: 0.5; stroke-linecap: square"/>
     </g>
     <g id="line2d_22">
      <defs>
       <path id="mef23def058" d="M 0 0 
L -3.5 0 
" style="stroke: #24292f; stroke-width: 0.8"/>
      </defs>
      <g>
       <use xlink:href="#mef23def058" x="48.90125" y="455.237812" style="fill: #24292f; stroke: #24292f; stroke-width: 0.8"/>
      </g>
     </g>
     <g id="text_12">
      <!-- 0 -->
      <g style="fill: #24292f" transform="translate(35.53875 459.037031) scale(0.1 -0.1)">
       <use xlink:href="#DejaVuSans-30"/>
      </g>
     </g>
    </g>
    <g id="ytick_2">
     <g id="line2d_23">
      <path d="M 48.90125 399.659146 
L 848.35125 399.659146 
" clip-path="url(#pbe27028f9f)" style="fill: none; stroke: #d0d7de; stroke-opacity: 0.25; stroke-width: 0.5; stroke-linecap: square"/>
     </g>
     <g id="line2d_24">
      <g>
       <use xlink:href="#mef23def058" x="48.90125" y="399.659146" style="fill: #24292f; stroke: #24292f; stroke-width: 0.8"/>
      </g>
     </g>
     <g id="text_13">
      <!-- 100 -->
      <g style="fill: #24292f" transform="translate(22.81375 403.458365) scale(0.1 -0.1)">
       <defs>
        <path id="DejaVuSans-31" d="M 794 531 
L 1825 531 
L 1825 4091 
L 703 3866 
L 703 4441 
L 1819 4666 
L 2450 4666 
L 2450 531 
L 3481 531 
L 3481 0 
L 794 0 
L 794 531 
z
" transform="scale(0.015625)"/>
       </defs>
       <use xlink:href="#DejaVuSans-31"/>
       <use xlink:href="#DejaVuSans-30" transform="translate(63.623047 0)"/>
       <use xlink:href="#DejaVuSans-30" transform="translate(127.246094 0)"/>
      </g>
     </g>
    </g>
    <g id="ytick_3">
     <g id="line2d_25">
      <path d="M 48.90125 344.080479 
L 848.35125 344.080479 
" clip-path="url(#pbe27028f9f)" style="fill: none; stroke: #d0d7de; stroke-opacity: 0.25; stroke-width: 0.5; stroke-linecap: square"/>
     </g>
     <g id="line2d_26">
      <g>
       <use xlink:href="#mef23def058" x="48.90125" y="344.080479" style="fill: #24292f; stroke: #24292f; stroke-width: 0.8"/>
      </g>
     </g>
     <g id="text_14">
      <!-- 200 -->
      <g style="fill: #24292f" transform="translate(22.81375 347.879698) scale(0.1 -0.1)">
       <use xlink:href="#DejaVuSans-32"/>
       <use xlink:href="#DejaVuSans-30" transform="translate(63.623047 0)"/>
       <use xlink:href="#DejaVuSans-30" transform="translate(127.246094 0)"/>
      </g>
     </g>
    </g>
    <g id="ytick_4">
     <g id="line2d_27">
      <path d="M 48.90125 288.501812 
L 848.35125 288.501812 
" clip-path="url(#pbe27028f9f)" style="fill: none; stroke: #d0d7de; stroke-opacity: 0.25; stroke-width: 0.5; stroke-linecap: square"/>
     </g>
     <g id="line2d_28">
      <g>
       <use xlink:href="#mef23def058" x="48.90125" y="288.501812" style="fill: #24292f; stroke: #24292f; stroke-width: 0.8"/>
      </g>
     </g>
     <g id="text_15">
      <!-- 300 -->
      <g style="fill: #24292f" transform="translate(22.81375 292.301031) scale(0.1 -0.1)">
       <defs>
        <path id="DejaVuSans-33" d="M 2597 2516 
Q 3050 2419 3304 2112 
Q 3559 1806 3559 1356 
Q 3559 666 3084 287 
Q 2609 -91 1734 -91 
Q 1441 -91 1130 -33 
Q 819 25 488 141 
L 488 750 
Q 750 597 1062 519 
Q 1375 441 1716 441 
Q 2309 441 2620 675 
Q 2931 909 2931 1356 
Q 2931 1769 2642 2001 
Q 2353 2234 1838 2234 
L 1294 2234 
L 1294 2753 
L 1863 2753 
Q 2328 2753 2575 2939 
Q 2822 3125 2822 3475 
Q 2822 3834 2567 4026 
Q 2313 4219 1838 4219 
Q 1578 4219 1281 4162 
Q 984 4106 628 3988 
L 628 4550 
Q 988 4650 1302 4700 
Q 1616 4750 1894 4750 
Q 2613 4750 3031 4423 
Q 3450 4097 3450 3541 
Q 3450 3153 3228 2886 
Q 3006 2619 2597 2516 
z
" transform="scale(0.015625)"/>
       </defs>
       <use xlink:href="#DejaVuSans-33"/>
       <use xlink:href="#DejaVuSans-30" transform="translate(63.623047 0)"/>
       <use xlink:href="#DejaVuSans-30" transform="translate(127.246094 0)"/>
      </g>
     </g>
    </g>
    <g id="ytick_5">
     <g id="line2d_29">
      <path d="M 48.90125 232.923146 
L 848.35125 232.923146 
" clip-path="url(#pbe27028f9f)" style="fill: none; stroke: #d0d7de; stroke-opacity: 0.25; stroke-width: 0.5; stroke-linecap: square"/>
     </g>
     <g id="line2d_30">
      <g>
       <use xlink:href="#mef23def058" x="48.90125" y="232.923146" style="fill: #24292f; stroke: #24292f; stroke-width: 0.8"/>
      </g>
     </g>
     <g id="text_16">
      <!-- 400 -->
      <g style="fill: #24292f" transform="translate(22.81375 236.722365) scale(0.1 -0.1)">
       <defs>
        <path id="DejaVuSans-34" d="M 2419 4116 
L 825 1625 
L 2419 1625 
L 2419 4116 
z
M 2253 4666 
L 3047 4666 
L 3047 1625 
L 3713 1625 
L 3713 1100 
L 3047 1100 
L 3047 0 
L 2419 0 
L 2419 1100 
L 313 1100 
L 313 1709 
L 2253 4666 
z
" transform="scale(0.015625)"/>
       </defs>
       <use xlink:href="#DejaVuSans-34"/>
       <use xlink:href="#DejaVuSans-30" transform="translate(63.623047 0)"/>
       <use xlink:href="#DejaVuSans-30" transform="translate(127.246094 0)"/>
      </g>
     </g>
    </g>
    <g id="ytick_6">
     <g id="line2d_31">
      <path d="M 48.90125 177.344479 
L 848.35125 177.344479 
" clip-path="url(#pbe27028f9f)" style="fill: none; stroke: #d0d7de; stroke-opacity: 0.25; stroke-width: 0.5; stroke-linecap: square"/>
     </g>
     <g id="line2d_32">
      <g>
       <use xlink:href="#mef23def058" x="48.90125" y="177.344479" style="fill: #24292f; stroke: #24292f; stroke-width: 0.8"/>
      </g>
     </g>
     <g id="text_17">
      <!-- 500 -->
      <g style="fill: #24292f" transform="translate(22.81375 181.143698) scale(0.1 -0.1)">
       <defs>
        <path id="DejaVuSans-35" d="M 691 4666 
L 3169 4666 
L 3169 4134 
L 1269 4134 
L 1269 2991 
Q 1406 3038 1543 3061 
Q 1681 3084 1819 3084 
Q 2600 3084 3056 2656 
Q 3513 2228 3513 1497 
Q 3513 744 3044 326 
Q 2575 -91 1722 -91 
Q 1428 -91 1123 -41 
Q 819 9 494 109 
L 494 744 
Q 775 591 1075 516 
Q 1375 441 1709 441 
Q 2250 441 2565 725 
Q 2881 1009 2881 1497 
Q 2881 1984 2565 2268 
Q 2250 2553 1709 2553 
Q 1456 2553 1204 2497 
Q 953 2441 691 2322 
L 691 4666 
z
" transform="scale(0.015625)"/>
       </defs>
       <use xlink:href="#DejaVuSans-35"/>
       <use xlink:href="#DejaVuSans-30" transform="translate(63.623047 0)"/>
       <use xlink:href="#DejaVuSans-30" transform="translate(127.246094 0)"/>
      </g>
     </g>
    </g>
    <g id="ytick_7">
     <g id="line2d_33">
      <path d="M 48.90125 121.765812 
L 848.35125 121.765812 
" clip-path="url(#pbe27028f9f)" style="fill: none; stroke: #d0d7de; stroke-opacity: 0.25; stroke-width: 0.5; stroke-linecap: square"/>
     </g>
     <g id="line2d_34">
      <g>
       <use xlink:href="#mef23def058" x="48.90125" y="121.765812" style="fill: #24292f; stroke: #24292f; stroke-width: 0.8"/>
      </g>
     </g>
     <g id="text_18">
      <!-- 600 -->
      <g style="fill: #24292f" transform="translate(22.81375 125.565031) scale(0.1 -0.1)">
       <use xlink:href="#DejaVuSans-36"/>
       <use xlink:href="#DejaVuSans-30" transform="translate(63.623047 0)"/>
       <use xlink:href="#DejaVuSans-30" transform="translate(127.246094 0)"/>
      </g>
     </g>
    </g>
    <g id="ytick_8">
     <g id="line2d_35">
      <path d="M 48.90125 66.187146 
L 848.35125 66.187146 
" clip-path="url(#pbe27028f9f)" style="fill: none; stroke: #d0d7de; stroke-opacity: 0.25; stroke-width: 0.5; stroke-linecap: square"/>
     </g>
     <g id="line2d_36">
      <g>
       <use xlink:href="#mef23def058" x="48.90125" y="66.187146" style="fill: #24292f; stroke: #24292f; stroke-width: 0.8"/>
      </g>
     </g>
     <g id="text_19">
      <!-- 700 -->
      <g style="fill: #24292f" transform="translate(22.81375 69.986365) scale(0.1 -0.1)">
       <defs>
        <path id="DejaVuSans-37" d="M 525 4666 
L 3525 4666 
L 3525 4397 
L 1831 0 
L 1172 0 
L 2766 4134 
L 525 4134 
L 525 4666 
z
" transform="scale(0.015625)"/>
       </defs>
       <use xlink:href="#DejaVuSans-37"/>
       <use xlink:href="#DejaVuSans-30" transform="translate(63.623047 0)"/>
       <use xlink:href="#DejaVuSans-30" transform="translate(127.246094 0)"/>
      </g>
     </g>
    </g>
    <g id="text_20">
     <!-- Count -->
     <g style="fill: #24292f" transform="translate(16.318125 264.635937) rotate(-90) scale(0.12 -0.12)">
      <defs>
       <path id="DejaVuSans-43" d="M 4122 4306 
L 4122 3641 
Q 3803 3938 3442 4084 
Q 3081 4231 2675 4231 
Q 1875 4231 1450 3742 
Q 1025 3253 1025 2328 
Q 1025 1406 1450 917 
Q 1875 428 2675 428 
Q 3081 428 3442 575 
Q 3803 722 4122 1019 
L 4122 359 
Q 3791 134 3420 21 
Q 3050 -91 2638 -91 
Q 1578 -91 968 557 
Q 359 1206 359 2328 
Q 359 3453 968 4101 
Q 1578 4750 2638 4750 
Q 3056 4750 3426 4639 
Q 3797 4528 4122 4306 
z
" transform="scale(0.015625)"/>
      </defs>
      <use xlink:href="#DejaVuSans-43"/>
      <use xlink:href="#DejaVuSans-6f" transform="translate(69.824219 0)"/>
      <use xlink:href="#DejaVuSans-75" transform="translate(131.005859 0)"/>
      <use xlink:href="#DejaVuSans-6e" transform="translate(194.384766 0)"/>
      <use xlink:href="#DejaVuSans-74" transform="translate(257.763672 0)"/>
     </g>
    </g>
   </g>
   <g id="line2d_37">
    <path d="M 85.239886 454.682026 
L 85.290731 454.682026 
L 85.413403 454.126239 
L 85.482527 454.126239 
L 85.65251 257.933546 
L 87.790776 257.933546 
L 87.800546 261.268266 
L 90.387441 261.268266 
L 90.554937 260.712479 
L 90.87177 260.712479 
L 91.162828 260.156692 
L 92.96635 259.600906 
L 93.001956 260.156692 
L 93.067578 259.600906 
L 98.673379 259.600906 
L 102.042696 260.712479 
L 102.544014 259.600906 
L 102.910064 259.600906 
L 103.832639 259.045119 
L 104.218627 256.821972 
L 104.970204 256.821972 
L 106.065435 260.712479 
L 106.136495 256.821972 
L 106.97692 256.266186 
L 109.164156 256.266186 
L 109.74108 255.710399 
L 110.598033 255.710399 
L 110.879291 254.598826 
L 116.169149 254.598826 
L 116.558732 253.487252 
L 116.578701 252.375679 
L 118.260687 252.375679 
L 120.740855 251.264106 
L 122.041891 251.264106 
L 122.061584 250.708319 
L 125.04946 250.708319 
L 125.790654 247.929386 
L 128.136353 247.929386 
L 128.152635 247.373599 
L 141.289724 247.373599 
L 143.745377 246.817812 
L 143.829216 247.373599 
L 146.376051 246.817812 
L 155.23882 246.817812 
L 159.534491 246.262026 
L 159.617471 245.706239 
L 159.821525 245.150452 
L 162.244858 245.150452 
L 163.276249 244.594666 
L 167.529586 244.594666 
L 167.691059 247.373599 
L 167.698985 245.150452 
L 167.905774 245.150452 
L 168.932618 242.927306 
L 173.960112 242.927306 
L 177.813206 242.371519 
L 182.095667 242.371519 
L 182.283592 241.815732 
L 193.411538 241.815732 
L 193.886466 241.259946 
L 196.588476 241.259946 
L 196.607524 240.148372 
L 201.755816 240.148372 
L 201.860239 236.257866 
L 211.178367 236.257866 
L 211.181162 235.702079 
L 211.451022 235.702079 
L 212.625454 235.146292 
L 213.818964 235.146292 
L 214.198562 234.590506 
L 214.236534 235.146292 
L 215.105776 234.590506 
L 215.109739 234.034719 
L 215.130046 234.590506 
L 215.632163 234.034719 
L 220.206112 234.034719 
L 221.628192 233.478932 
L 223.315616 233.478932 
L 226.18168 232.923146 
L 228.894934 232.923146 
L 230.991203 231.811572 
L 235.578762 231.811572 
L 238.247378 230.699999 
L 238.999262 231.255786 
L 242.723939 231.255786 
L 246.92554 229.032639 
L 253.191705 229.032639 
L 255.135072 228.476852 
L 289.768182 228.476852 
L 290.047873 227.921066 
L 302.677776 227.921066 
L 302.888804 227.365279 
L 324.379817 227.365279 
L 329.112075 226.809492 
L 329.139448 227.365279 
L 332.527046 225.697919 
L 337.498534 225.697919 
L 340.21314 225.142132 
L 340.217595 224.586346 
L 345.881645 224.586346 
L 347.914535 225.142132 
L 348.645313 224.586346 
L 358.124392 224.586346 
L 358.527799 225.142132 
L 359.266781 224.586346 
L 359.520727 222.363199 
L 363.864693 222.363199 
L 363.868441 221.807412 
L 377.16089 221.807412 
L 377.934955 221.251626 
L 380.489532 221.251626 
L 380.738747 220.695839 
L 393.195717 220.695839 
L 393.212645 220.140052 
L 396.328323 220.140052 
L 396.332962 219.584266 
L 397.088994 219.584266 
L 397.128472 219.028479 
L 398.302504 219.028479 
L 398.486958 218.472692 
L 400.999753 218.472692 
L 401.381716 217.361119 
L 402.765025 215.137972 
L 406.110104 215.137972 
L 406.357076 212.359039 
L 407.478758 212.359039 
L 408.029262 211.247466 
L 410.865987 211.247466 
L 411.796795 210.691679 
L 414.461232 210.691679 
L 414.818342 210.135892 
L 422.055193 210.135892 
L 422.233502 209.580106 
L 422.902837 209.580106 
L 423.942001 209.024319 
L 435.647117 209.024319 
L 435.752278 208.468532 
L 436.127575 208.468532 
L 436.911041 207.356959 
L 438.009468 207.356959 
L 438.273583 206.801172 
L 438.528051 206.801172 
L 438.62461 206.245386 
L 441.562102 206.245386 
L 442.062191 205.689599 
L 444.619041 205.689599 
L 444.782972 205.133812 
L 446.183516 205.133812 
L 446.273254 204.578026 
L 450.625822 204.578026 
L 450.719401 204.022239 
L 453.257879 204.022239 
L 454.105738 201.799092 
L 455.045763 201.799092 
L 455.046746 201.243306 
L 458.863619 201.243306 
L 459.563368 200.687519 
L 462.485899 200.687519 
L 463.061533 200.131732 
L 463.27806 200.131732 
L 463.840514 199.575946 
L 465.277248 199.575946 
L 465.4433 199.020159 
L 469.046625 199.020159 
L 469.975436 198.464372 
L 470.043086 197.908586 
L 470.34379 197.908586 
L 471.292909 195.685439 
L 474.236392 195.685439 
L 474.25759 195.129652 
L 477.058924 195.129652 
L 477.325865 194.573866 
L 477.644327 194.573866 
L 477.964663 194.018079 
L 478.031483 194.573866 
L 478.271358 194.018079 
L 479.337096 194.018079 
L 479.347296 193.462292 
L 479.630305 193.462292 
L 479.754236 192.906506 
L 480.610575 192.350719 
L 486.568632 192.350719 
L 487.49987 191.794932 
L 488.123245 191.794932 
L 488.628987 191.239146 
L 489.140597 191.794932 
L 491.247096 191.794932 
L 491.33794 190.683359 
L 494.361976 190.683359 
L 495.535302 189.015999 
L 508.270919 189.015999 
L 509.011098 188.460212 
L 528.66922 188.460212 
L 528.789987 187.904426 
L 557.675546 187.904426 
L 557.802796 187.348639 
L 557.81192 186.792852 
L 557.820983 187.348639 
L 562.031002 187.348639 
L 562.981564 186.792852 
L 579.567601 186.792852 
L 582.980636 186.237066 
L 583.013816 185.681279 
L 583.296364 185.681279 
L 584.181396 185.125492 
L 610.800887 185.125492 
L 611.059257 184.569706 
L 634.731178 184.569706 
L 637.769622 184.013919 
L 639.628197 184.013919 
L 639.829885 183.458132 
L 641.121674 182.902346 
L 644.744293 182.902346 
L 646.269997 182.346559 
L 647.866484 182.346559 
L 647.990815 181.790772 
L 650.616728 181.790772 
L 650.930397 181.234986 
L 650.992486 180.679199 
L 655.667694 180.679199 
L 655.68582 180.123412 
L 659.666531 180.123412 
L 659.675318 179.567626 
L 661.024065 179.011839 
L 663.418458 179.011839 
L 665.141519 178.456052 
L 666.683537 178.456052 
L 668.956271 175.121332 
L 671.609649 175.121332 
L 671.621938 172.342399 
L 684.963203 172.342399 
L 684.964586 171.786612 
L 685.195337 171.230826 
L 686.473178 171.230826 
L 686.751118 170.675039 
L 690.94252 170.675039 
L 691.911454 170.119252 
L 692.070869 170.675039 
L 699.567656 170.675039 
L 699.569346 170.119252 
L 702.596208 170.119252 
L 703.834449 167.340319 
L 711.42546 167.340319 
L 711.506534 166.228746 
L 713.222837 164.561386 
L 714.944976 164.561386 
L 715.128416 164.005599 
L 722.367816 164.005599 
L 722.500933 163.449812 
L 729.770103 163.449812 
L 729.928443 162.894026 
L 731.931871 161.226666 
L 732.087108 160.670879 
L 751.822987 160.670879 
L 753.691516 157.891946 
L 758.150043 157.891946 
L 758.440456 157.336159 
L 761.790111 157.336159 
L 763.036862 156.224586 
L 780.692324 156.224586 
L 780.916163 155.668799 
L 783.500724 155.668799 
L 783.777589 155.113012 
L 800.8035 155.113012 
L 800.812225 153.445652 
L 801.341039 153.445652 
L 801.430439 152.889866 
L 804.465627 152.889866 
L 804.892905 152.334079 
L 804.895455 152.889866 
L 812.012614 152.889866 
L 812.012614 152.889866 
" clip-path="url(#pbe27028f9f)" style="fill: none; stroke: #1a7f37; stroke-width: 2; stroke-linecap: square"/>
   </g>
   <g id="line2d_38">
    <path d="M 85.239886 455.237812 
L 85.322989 453.570452 
L 85.413403 453.570452 
L 85.554692 372.981386 
L 86.735944 372.981386 
L 86.76172 370.758239 
L 88.053785 370.758239 
L 88.386686 369.090879 
L 88.839648 370.758239 
L 88.842997 369.090879 
L 89.217802 369.090879 
L 89.362655 367.979306 
L 93.064045 367.979306 
L 93.067578 367.423519 
L 93.088407 367.979306 
L 93.270587 367.423519 
L 93.324012 367.979306 
L 93.571538 367.423519 
L 94.765386 367.423519 
L 94.833342 366.867732 
L 95.018441 366.311946 
L 96.484944 366.311946 
L 98.153812 365.756159 
L 98.212552 365.200372 
L 98.663609 364.644586 
L 98.673379 364.088799 
L 102.042696 367.979306 
L 102.544014 366.311946 
L 102.910064 363.533012 
L 104.970204 363.533012 
L 106.065435 367.979306 
L 106.136495 363.533012 
L 126.149914 363.533012 
L 126.764042 362.977226 
L 128.152635 362.977226 
L 131.945115 362.421439 
L 132.868918 361.865652 
L 146.03166 361.865652 
L 146.376051 361.309866 
L 148.14544 360.754079 
L 149.270041 360.754079 
L 150.516608 360.198292 
L 150.550187 359.086719 
L 151.407078 358.530932 
L 151.982988 357.975146 
L 159.916885 357.975146 
L 161.498442 357.419359 
L 161.976565 357.419359 
L 162.244858 356.863572 
L 163.276249 356.863572 
L 164.300912 356.307786 
L 167.529586 356.307786 
L 167.691059 358.530932 
L 167.698985 356.307786 
L 168.932618 356.307786 
L 169.056457 355.751999 
L 170.802621 355.751999 
L 172.520613 355.196212 
L 172.562303 354.640426 
L 177.813206 354.640426 
L 180.027969 354.084639 
L 180.03356 353.528852 
L 187.403589 353.528852 
L 190.477917 352.973066 
L 192.784446 352.973066 
L 193.411538 352.417279 
L 196.932284 352.417279 
L 198.940381 351.861492 
L 199.050457 351.305706 
L 201.008263 351.305706 
L 201.235482 350.749919 
L 201.860239 350.194132 
L 203.254916 350.194132 
L 204.135463 349.638346 
L 205.749922 349.638346 
L 206.803618 349.082559 
L 209.051468 349.082559 
L 209.817269 347.970986 
L 215.632163 347.970986 
L 217.288189 347.415199 
L 219.230051 347.415199 
L 219.667959 346.859412 
L 219.801875 346.303626 
L 220.206112 345.747839 
L 226.893135 345.747839 
L 228.117459 345.192052 
L 228.894934 344.636266 
L 247.910265 344.636266 
L 252.178747 344.080479 
L 252.229745 343.524692 
L 255.135072 343.524692 
L 257.618313 342.968906 
L 262.007409 342.968906 
L 262.378282 342.413119 
L 269.853103 342.413119 
L 275.704432 341.857332 
L 275.760592 341.301546 
L 276.525564 341.301546 
L 278.075446 340.745759 
L 278.161897 339.078399 
L 278.2301 338.522612 
L 281.467529 337.966826 
L 281.661383 337.411039 
L 281.738648 336.299466 
L 282.031857 335.743679 
L 292.566781 335.743679 
L 295.559573 335.187892 
L 297.464691 334.632106 
L 298.957155 334.632106 
L 302.417563 334.076319 
L 302.677776 331.853172 
L 302.888804 331.853172 
L 303.386343 330.741599 
L 309.950018 330.185812 
L 310.158926 329.630026 
L 310.220554 329.074239 
L 311.607242 329.074239 
L 312.916696 328.518452 
L 313.067202 327.962666 
L 313.169413 326.851092 
L 314.036167 326.295306 
L 314.099791 325.739519 
L 315.681225 325.183732 
L 317.759983 324.627946 
L 317.907816 324.072159 
L 317.91095 323.516372 
L 318.329073 322.960586 
L 318.402928 322.404799 
L 321.418362 321.849012 
L 321.958942 321.293226 
L 334.653391 321.293226 
L 336.75857 320.737439 
L 336.950151 320.181652 
L 345.553843 320.181652 
L 345.881645 319.070079 
L 349.466353 319.070079 
L 350.548619 318.514292 
L 350.601491 317.402719 
L 350.8794 316.846932 
L 352.719603 316.291146 
L 352.761047 315.735359 
L 352.983165 315.179572 
L 353.210783 312.956426 
L 353.46433 312.956426 
L 353.473669 312.400639 
L 355.009911 311.844852 
L 355.61387 311.289066 
L 355.760014 310.733279 
L 358.527799 310.177492 
L 360.56754 310.177492 
L 361.275831 309.621706 
L 368.944752 309.621706 
L 371.485412 309.065919 
L 371.495519 308.510132 
L 371.952444 307.954346 
L 377.934955 307.954346 
L 379.613531 307.398559 
L 380.305017 306.842772 
L 380.489532 305.731199 
L 385.328763 305.731199 
L 385.658469 305.175412 
L 388.315841 305.175412 
L 389.58806 304.619626 
L 393.212645 304.619626 
L 395.403875 304.063839 
L 399.954352 304.063839 
L 400.513642 303.508052 
L 402.765025 303.508052 
L 403.377832 302.952266 
L 403.643668 302.396479 
L 403.774604 301.840692 
L 405.627833 301.840692 
L 405.680521 300.729119 
L 406.357076 300.729119 
L 406.801282 299.061759 
L 408.413345 299.061759 
L 408.613559 298.505972 
L 408.76898 298.505972 
L 409.540588 297.950186 
L 410.821041 297.950186 
L 410.865987 297.394399 
L 411.796795 297.394399 
L 412.022876 296.838612 
L 412.89774 296.838612 
L 414.23724 295.727039 
L 414.818342 295.727039 
L 417.065793 294.615466 
L 417.069173 294.059679 
L 417.498264 293.503892 
L 418.593064 292.948106 
L 418.763294 292.392319 
L 419.854838 291.836532 
L 421.639158 291.836532 
L 422.233502 290.724959 
L 424.409648 290.724959 
L 424.471429 290.169172 
L 425.091394 290.169172 
L 425.138982 289.613386 
L 425.479195 289.057599 
L 426.662966 289.057599 
L 426.753012 288.501812 
L 426.955806 288.501812 
L 427.065667 287.946026 
L 427.087941 287.946026 
L 427.184714 287.390239 
L 428.755334 287.390239 
L 429.084978 286.834452 
L 429.361781 286.834452 
L 429.527218 286.278666 
L 429.949704 286.278666 
L 430.266015 285.722879 
L 430.332712 285.167092 
L 430.423126 285.167092 
L 432.013193 284.611306 
L 433.203078 284.611306 
L 433.293154 284.055519 
L 437.986948 284.055519 
L 438.009468 283.499732 
L 438.273583 283.499732 
L 438.895084 282.388159 
L 440.480358 282.388159 
L 440.627362 280.720799 
L 440.670249 279.609226 
L 440.947329 279.053439 
L 442.062191 279.053439 
L 442.587994 278.497652 
L 443.097637 278.497652 
L 443.261968 277.941866 
L 444.051978 277.386079 
L 444.782972 277.386079 
L 446.252548 276.830292 
L 446.350305 276.274506 
L 446.722345 276.274506 
L 446.796784 275.718719 
L 448.103166 275.718719 
L 448.139448 275.162932 
L 454.474922 275.162932 
L 454.592003 274.607146 
L 454.76128 274.607146 
L 454.844843 273.495572 
L 455.660629 273.495572 
L 455.834237 272.939786 
L 456.399272 272.383999 
L 456.541299 271.828212 
L 456.800806 271.828212 
L 457.020405 271.272426 
L 457.091986 270.716639 
L 460.275407 270.716639 
L 461.078935 270.160852 
L 461.237643 269.049279 
L 461.433218 268.493492 
L 461.759698 268.493492 
L 461.958683 267.937706 
L 466.527256 267.937706 
L 466.828851 266.270346 
L 467.453087 266.270346 
L 467.54473 265.714559 
L 469.984008 265.714559 
L 470.043086 264.602986 
L 472.972775 264.602986 
L 473.003128 264.047199 
L 474.414425 264.047199 
L 474.423918 263.491412 
L 475.111163 263.491412 
L 475.225141 262.935626 
L 477.22181 262.935626 
L 477.325865 262.379839 
L 477.458429 262.379839 
L 477.644327 261.824052 
L 478.021682 261.824052 
L 478.031483 261.268266 
L 478.271358 261.268266 
L 478.728959 260.712479 
L 482.425033 260.712479 
L 482.693664 260.156692 
L 483.790339 260.156692 
L 483.792367 259.600906 
L 492.177136 259.600906 
L 493.600261 259.045119 
L 493.64152 258.489332 
L 494.361976 257.933546 
L 495.457484 257.933546 
L 495.535302 256.821972 
L 495.733457 256.821972 
L 495.815945 256.266186 
L 498.72542 256.266186 
L 499.250823 255.710399 
L 504.283448 255.710399 
L 504.298932 255.154612 
L 505.942639 255.154612 
L 506.645092 254.598826 
L 514.38157 254.598826 
L 514.478129 253.487252 
L 517.520751 253.487252 
L 518.12594 252.931466 
L 518.774015 252.931466 
L 519.566268 252.375679 
L 524.80307 252.375679 
L 525.304541 251.819892 
L 525.73907 251.819892 
L 525.952126 251.264106 
L 527.620379 250.708319 
L 528.437025 250.708319 
L 528.703321 250.152532 
L 528.789987 250.152532 
L 531.13372 249.596746 
L 535.448992 249.596746 
L 535.786686 249.040959 
L 552.442461 249.040959 
L 553.051029 248.485172 
L 556.902709 248.485172 
L 557.04191 247.929386 
L 557.292108 247.929386 
L 557.36753 247.373599 
L 578.877529 247.373599 
L 579.567601 246.817812 
L 584.703451 246.817812 
L 585.819112 246.262026 
L 585.893889 245.706239 
L 588.566038 245.706239 
L 588.676913 245.150452 
L 597.332279 245.150452 
L 597.350006 244.594666 
L 604.656564 244.594666 
L 604.735211 244.038879 
L 605.209771 243.483092 
L 607.002754 243.483092 
L 607.006871 242.927306 
L 607.371231 242.371519 
L 610.063288 242.371519 
L 610.952683 241.815732 
L 616.693107 241.815732 
L 616.733536 240.704159 
L 653.120921 240.704159 
L 655.68582 240.148372 
L 658.912773 240.148372 
L 659.019992 239.592586 
L 673.326597 239.592586 
L 673.350621 239.036799 
L 688.290955 239.036799 
L 688.444963 238.481012 
L 689.333836 238.481012 
L 689.357 237.925226 
L 689.55789 237.369439 
L 690.339359 236.257866 
L 690.454228 235.146292 
L 690.520618 234.034719 
L 690.72077 233.478932 
L 690.767068 232.923146 
L 690.94252 232.367359 
L 692.070869 232.367359 
L 692.211144 231.811572 
L 692.21775 231.255786 
L 692.64088 230.699999 
L 699.569346 230.699999 
L 700.31613 229.588426 
L 722.169599 229.588426 
L 722.308462 229.032639 
L 735.647485 229.032639 
L 735.963396 227.921066 
L 737.393833 227.921066 
L 737.585444 227.365279 
L 746.084099 227.365279 
L 746.296479 226.809492 
L 749.636979 226.809492 
L 750.52914 226.253706 
L 750.613041 225.697919 
L 755.625082 225.697919 
L 755.78121 224.586346 
L 756.427811 224.030559 
L 757.032631 224.030559 
L 758.150043 223.474772 
L 761.362311 223.474772 
L 761.411281 222.918986 
L 761.790111 222.363199 
L 764.411201 222.363199 
L 767.188725 221.807412 
L 780.916163 221.807412 
L 782.538764 221.251626 
L 783.139497 220.695839 
L 783.500724 219.584266 
L 785.432447 219.584266 
L 793.303149 218.472692 
L 795.278098 218.472692 
L 795.49567 217.361119 
L 795.762857 217.361119 
L 795.898401 216.805332 
L 806.959313 216.805332 
L 806.972278 216.249546 
L 812.012614 216.249546 
L 812.012614 216.249546 
" clip-path="url(#pbe27028f9f)" style="fill: none; stroke: #0969da; stroke-width: 2; stroke-linecap: square"/>
   </g>
   <g id="line2d_39">
    <path d="M 85.239886 455.237812 
L 87.790776 455.237812 
L 87.800546 454.126239 
L 89.906461 454.126239 
L 90.387441 453.570452 
L 220.206112 453.570452 
L 221.628192 453.014666 
L 257.618313 453.014666 
L 258.617108 452.458879 
L 292.566781 452.458879 
L 295.559573 451.903092 
L 303.386343 451.903092 
L 310.220554 450.235732 
L 311.607242 449.124159 
L 314.099791 449.124159 
L 315.681225 448.568372 
L 317.91095 448.012586 
L 318.402928 448.012586 
L 321.418362 447.456799 
L 321.958942 446.901012 
L 324.379817 446.345226 
L 329.112075 445.789439 
L 329.139448 446.345226 
L 336.950151 446.345226 
L 337.498534 445.789439 
L 348.645313 445.789439 
L 349.466353 445.233652 
L 353.210783 445.233652 
L 353.473669 444.677866 
L 358.124392 444.677866 
L 358.527799 444.122079 
L 375.565017 444.122079 
L 377.16089 443.566292 
L 377.831607 443.566292 
L 377.934955 443.010506 
L 382.482053 443.010506 
L 382.486385 442.454719 
L 393.195717 442.454719 
L 393.212645 441.898932 
L 396.332962 441.898932 
L 397.128472 441.343146 
L 398.300446 440.787359 
L 398.302504 440.231572 
L 398.486958 440.231572 
L 399.954352 438.564212 
L 400.942856 438.564212 
L 400.999753 436.896852 
L 401.381716 436.896852 
L 402.765025 437.452639 
L 403.759858 437.452639 
L 403.774604 435.229492 
L 407.478758 435.229492 
L 408.029262 434.673706 
L 408.613559 434.673706 
L 408.76898 434.117919 
L 422.055193 434.117919 
L 422.233502 433.562132 
L 422.902837 433.562132 
L 423.942001 433.006346 
L 428.526641 433.006346 
L 428.755334 432.450559 
L 430.332712 432.450559 
L 430.423126 431.894772 
L 435.647117 431.894772 
L 435.752278 431.338986 
L 436.127575 431.338986 
L 436.508218 430.783199 
L 436.888492 430.783199 
L 436.911041 430.227412 
L 438.528051 430.227412 
L 438.62461 429.671626 
L 446.131443 429.671626 
L 446.252548 429.115839 
L 446.273254 429.115839 
L 446.350305 428.560052 
L 446.796784 428.560052 
L 447.732753 428.004266 
L 451.391993 428.004266 
L 451.395218 427.448479 
L 452.094415 427.448479 
L 452.12102 426.892692 
L 454.105738 426.892692 
L 454.572801 426.336906 
L 457.167562 426.336906 
L 457.934685 425.781119 
L 459.426564 425.781119 
L 459.442386 424.669546 
L 459.563368 424.669546 
L 459.715625 424.113759 
L 462.115579 424.113759 
L 462.485899 423.557972 
L 463.061533 423.557972 
L 463.27806 423.002186 
L 464.68309 423.002186 
L 464.879279 422.446399 
L 464.881798 421.890612 
L 465.277248 421.890612 
L 465.4433 421.334826 
L 480.57844 421.334826 
L 480.610575 420.223252 
L 482.693664 420.223252 
L 483.2932 419.667466 
L 483.792367 419.667466 
L 486.134011 419.111679 
L 486.568632 419.111679 
L 487.49987 418.555892 
L 488.123245 418.555892 
L 488.628987 418.000106 
L 489.140597 418.555892 
L 490.78756 418.555892 
L 491.235422 418.000106 
L 491.33794 416.888532 
L 492.171514 416.332746 
L 492.177136 415.221172 
L 495.815945 415.221172 
L 496.611731 414.665386 
L 496.692376 412.998026 
L 497.487763 412.442239 
L 497.927637 411.886452 
L 501.689763 411.886452 
L 501.849393 410.219092 
L 502.041281 410.219092 
L 502.183554 409.663306 
L 503.102995 409.107519 
L 504.550267 409.107519 
L 504.848422 408.551732 
L 504.916255 407.995946 
L 505.068389 407.995946 
L 505.942639 406.884372 
L 506.879315 406.884372 
L 507.18687 406.328586 
L 508.267355 406.328586 
L 508.270919 405.217012 
L 509.011098 405.217012 
L 509.993734 404.661226 
L 512.597066 403.549652 
L 512.946342 402.993866 
L 518.12594 402.993866 
L 518.774015 401.882292 
L 528.66922 401.882292 
L 528.789987 400.770719 
L 533.606393 400.770719 
L 534.342302 400.214932 
L 536.575498 400.214932 
L 536.700843 399.659146 
L 550.439709 399.659146 
L 550.659001 399.103359 
L 552.019853 399.103359 
L 552.442461 398.547572 
L 554.98223 398.547572 
L 555.459892 397.991786 
L 555.463026 397.435999 
L 556.00932 396.880212 
L 557.675546 396.880212 
L 557.802796 396.324426 
L 557.81192 395.212852 
L 557.820983 395.768639 
L 558.940668 395.212852 
L 562.981564 395.212852 
L 563.77864 394.101279 
L 571.069684 394.101279 
L 571.633397 393.545492 
L 573.402142 393.545492 
L 573.543738 392.989706 
L 573.563216 392.433919 
L 579.567601 392.433919 
L 583.296364 391.322346 
L 584.181396 391.322346 
L 584.703451 390.766559 
L 592.42715 390.766559 
L 593.376514 390.210772 
L 594.552881 390.210772 
L 595.692198 389.654986 
L 605.209771 389.654986 
L 605.470967 389.099199 
L 605.47238 388.543412 
L 610.800887 388.543412 
L 611.059257 387.987626 
L 634.731178 387.987626 
L 637.769622 387.431839 
L 644.744293 387.431839 
L 646.269997 386.876052 
L 647.612415 386.876052 
L 647.866484 386.320266 
L 650.992486 386.320266 
L 651.520532 385.764479 
L 652.216963 385.764479 
L 653.120921 385.208692 
L 655.287696 385.208692 
L 655.68582 384.652906 
L 655.952515 384.652906 
L 656.923446 384.097119 
L 666.303754 384.097119 
L 666.32999 382.429759 
L 674.514822 382.429759 
L 677.985614 381.873972 
L 677.988441 381.318186 
L 682.058337 381.318186 
L 682.229181 380.762399 
L 682.2317 380.206612 
L 684.135436 380.206612 
L 684.964586 379.650826 
L 685.557731 379.650826 
L 686.473178 379.095039 
L 687.455568 379.095039 
L 687.625337 377.983466 
L 688.444963 377.983466 
L 688.60831 377.427679 
L 690.45263 377.427679 
L 690.520618 376.871892 
L 693.427634 376.871892 
L 695.533642 376.316106 
L 696.224421 376.316106 
L 696.902543 375.760319 
L 698.303363 375.204532 
L 698.309354 374.648746 
L 698.695649 372.981386 
L 699.048642 372.425599 
L 699.569346 371.869812 
L 700.96479 371.869812 
L 701.811052 370.202452 
L 703.834449 370.202452 
L 704.38231 368.535092 
L 706.608778 368.535092 
L 706.844537 367.979306 
L 708.458259 367.979306 
L 708.808948 366.867732 
L 709.416594 366.311946 
L 711.506534 366.311946 
L 715.128416 365.200372 
L 717.450582 364.644586 
L 717.608338 364.088799 
L 719.804791 364.088799 
L 719.945312 363.533012 
L 722.356725 363.533012 
L 722.367816 362.977226 
L 722.819856 362.977226 
L 722.918934 362.421439 
L 729.770103 362.421439 
L 729.928443 361.865652 
L 732.087108 361.309866 
L 735.637316 361.309866 
L 735.647485 360.754079 
L 748.672162 360.754079 
L 749.636979 358.530932 
L 754.982014 358.530932 
L 754.98991 357.419359 
L 761.790111 357.419359 
L 763.03422 355.751999 
L 763.036862 355.196212 
L 767.843774 355.196212 
L 769.461122 354.084639 
L 769.533502 353.528852 
L 799.753246 353.528852 
L 800.958184 352.973066 
L 804.134385 352.973066 
L 804.465627 351.861492 
L 812.012614 351.861492 
L 812.012614 351.861492 
" clip-path="url(#pbe27028f9f)" style="fill: none; stroke: #bf8700; stroke-width: 2; stroke-linecap: square"/>
   </g>
   <g id="line2d_40">
    <path d="M 85.239886 454.682026 
L 85.458072 454.682026 
L 85.554692 432.450559 
L 86.059635 426.892692 
L 86.348174 425.781119 
L 86.494563 426.336906 
L 86.76172 425.781119 
L 87.213545 425.225332 
L 87.800546 423.002186 
L 88.053785 421.334826 
L 88.386686 421.334826 
L 88.839648 420.779039 
L 88.842997 420.223252 
L 89.207695 419.667466 
L 89.308247 419.111679 
L 89.362655 419.111679 
L 90.295 418.000106 
L 90.387441 411.886452 
L 90.451373 412.442239 
L 90.744459 405.217012 
L 90.87177 402.993866 
L 93.067578 402.993866 
L 93.270587 399.659146 
L 93.324012 402.438079 
L 93.571538 397.991786 
L 93.694117 397.435999 
L 94.607383 396.880212 
L 94.765386 395.768639 
L 95.018441 395.768639 
L 95.48876 395.212852 
L 95.740003 394.657066 
L 95.853796 393.545492 
L 95.923012 392.989706 
L 96.157727 392.433919 
L 96.163533 391.878132 
L 96.399599 392.433919 
L 96.466788 391.878132 
L 96.475052 392.433919 
L 96.484944 390.766559 
L 98.673379 390.766559 
L 102.042696 402.993866 
L 102.544014 390.210772 
L 102.910064 389.654986 
L 104.218627 389.654986 
L 104.45798 389.099199 
L 104.970204 388.543412 
L 106.065435 402.993866 
L 106.136495 387.987626 
L 106.97692 387.431839 
L 108.774174 386.876052 
L 108.902345 387.431839 
L 109.164156 385.764479 
L 109.74108 385.764479 
L 109.916378 385.208692 
L 110.247467 384.652906 
L 110.274932 383.541332 
L 110.580337 382.429759 
L 110.598033 382.985546 
L 110.779691 382.985546 
L 110.879291 381.873972 
L 111.185894 379.650826 
L 111.226201 378.539252 
L 111.619562 376.871892 
L 111.811819 377.983466 
L 113.171196 374.648746 
L 113.529135 375.760319 
L 115.002183 373.537172 
L 116.169149 377.427679 
L 116.578701 373.537172 
L 118.260687 371.869812 
L 120.740855 371.869812 
L 121.068411 371.314026 
L 121.329085 369.646666 
L 122.061584 371.314026 
L 125.04946 371.869812 
L 125.790654 369.646666 
L 126.149914 367.979306 
L 126.764042 369.646666 
L 128.152635 367.979306 
L 132.868918 367.979306 
L 137.828118 367.423519 
L 138.158838 366.867732 
L 141.289724 366.311946 
L 143.360003 366.311946 
L 143.745377 365.756159 
L 143.829216 366.311946 
L 146.03166 364.644586 
L 148.097484 364.644586 
L 148.14544 364.088799 
L 149.270041 363.533012 
L 151.982988 363.533012 
L 153.179724 359.642506 
L 154.07044 359.086719 
L 155.216577 358.530932 
L 155.23882 357.975146 
L 159.534491 357.975146 
L 159.617471 354.084639 
L 159.776456 354.084639 
L 159.916885 352.973066 
L 161.498442 352.973066 
L 161.976565 352.417279 
L 164.300912 352.417279 
L 167.529586 351.861492 
L 167.691059 363.533012 
L 167.698985 352.417279 
L 167.905774 351.861492 
L 169.056457 351.861492 
L 170.802621 351.305706 
L 172.562303 351.305706 
L 173.960112 350.749919 
L 177.813206 349.638346 
L 180.03356 349.638346 
L 181.818003 349.082559 
L 182.095667 346.303626 
L 182.283592 346.303626 
L 182.616124 345.747839 
L 184.350644 345.192052 
L 184.751594 342.968906 
L 187.148844 341.857332 
L 187.177723 342.413119 
L 187.403589 341.857332 
L 190.477917 340.745759 
L 192.784446 340.189972 
L 193.886466 340.189972 
L 194.863234 339.634186 
L 195.709711 338.522612 
L 196.607524 337.966826 
L 196.932284 337.411039 
L 199.050457 337.966826 
L 201.008263 336.855252 
L 201.235482 337.411039 
L 201.755816 337.411039 
L 201.860239 336.855252 
L 203.254916 336.299466 
L 204.135463 336.855252 
L 205.749922 335.743679 
L 206.803618 335.743679 
L 209.051468 335.187892 
L 209.424215 335.743679 
L 209.817269 334.076319 
L 211.181162 334.076319 
L 211.451022 333.520532 
L 212.625454 331.297386 
L 212.95728 330.185812 
L 213.818964 330.741599 
L 214.198562 329.630026 
L 214.236534 329.074239 
L 217.288189 329.074239 
L 218.83377 328.518452 
L 219.230051 327.962666 
L 221.628192 327.962666 
L 223.315616 327.406879 
L 226.18168 327.406879 
L 226.893135 326.851092 
L 234.774313 326.851092 
L 235.226936 326.295306 
L 235.272282 325.739519 
L 235.578762 325.183732 
L 238.999262 325.183732 
L 239.212441 324.627946 
L 240.082696 324.072159 
L 240.233417 323.516372 
L 241.675251 322.960586 
L 242.723939 322.404799 
L 246.92554 322.404799 
L 247.910265 321.293226 
L 252.229745 321.293226 
L 253.191705 320.737439 
L 257.217301 320.737439 
L 257.618313 320.181652 
L 258.617108 319.625866 
L 258.914433 319.070079 
L 259.015385 318.514292 
L 262.007409 317.958506 
L 262.378282 318.514292 
L 266.317089 317.402719 
L 269.431324 316.291146 
L 269.853103 315.735359 
L 275.760592 315.735359 
L 276.525564 315.179572 
L 282.031857 315.179572 
L 287.218675 314.623786 
L 287.871082 314.067999 
L 290.047873 313.512212 
L 292.230808 312.956426 
L 292.566781 312.400639 
L 297.464691 312.400639 
L 298.957155 311.844852 
L 310.220554 311.844852 
L 311.607242 311.289066 
L 320.911114 311.289066 
L 321.418362 310.733279 
L 321.958942 311.289066 
L 324.379817 310.733279 
L 332.527046 310.733279 
L 333.618836 310.177492 
L 350.853963 310.177492 
L 350.8794 309.621706 
L 361.523817 309.621706 
L 363.86245 309.065919 
L 363.868441 308.510132 
L 375.559825 308.510132 
L 375.565017 307.398559 
L 382.486385 307.398559 
L 385.658469 306.842772 
L 389.58806 306.842772 
L 393.212645 305.731199 
L 400.513642 305.731199 
L 400.942856 305.175412 
L 400.999753 304.619626 
L 403.759858 304.619626 
L 403.774604 304.063839 
L 404.061207 304.063839 
L 404.518071 303.508052 
L 408.613559 303.508052 
L 408.76898 302.952266 
L 414.23724 302.952266 
L 414.461232 302.396479 
L 427.815616 302.396479 
L 428.525627 300.729119 
L 428.526641 300.173332 
L 430.41861 300.173332 
L 430.423126 299.617546 
L 436.003766 299.617546 
L 436.127575 299.061759 
L 438.799109 299.061759 
L 438.895084 298.505972 
L 448.81969 298.505972 
L 449.010533 297.950186 
L 451.314174 297.950186 
L 451.395218 297.394399 
L 452.12102 296.838612 
L 470.34379 296.838612 
L 471.292909 295.727039 
L 472.713606 295.727039 
L 473.003128 295.171252 
L 474.423918 295.171252 
L 474.634485 294.615466 
L 477.99136 294.615466 
L 478.031483 294.059679 
L 496.610164 294.059679 
L 496.692376 292.948106 
L 519.914991 292.948106 
L 520.518121 292.392319 
L 560.168126 292.392319 
L 562.031002 291.836532 
L 578.787391 291.836532 
L 578.877529 291.280746 
L 586.379324 291.280746 
L 586.74396 290.724959 
L 735.218701 290.724959 
L 735.647485 290.169172 
L 754.499006 290.169172 
L 754.98991 289.613386 
L 761.790111 289.613386 
L 763.022208 289.057599 
L 763.036862 285.167092 
L 769.457527 285.167092 
L 769.533502 282.388159 
L 812.012614 282.388159 
L 812.012614 282.388159 
" clip-path="url(#pbe27028f9f)" style="fill: none; stroke: #cf222e; stroke-width: 2; stroke-linecap: square"/>
   </g>
   <g id="line2d_41">
    <path d="M 85.239886 454.682026 
L 85.257244 454.126239 
L 85.394097 -1 
M 85.5171 -1 
L 85.65251 101.201706 
L 87.790776 101.201706 
L 87.800546 97.866986 
L 90.387441 97.866986 
L 90.554937 98.422772 
L 90.87177 98.422772 
L 91.162828 98.978559 
L 92.96635 99.534346 
L 93.001956 98.978559 
L 93.067578 99.534346 
L 98.673379 99.534346 
L 102.042696 98.422772 
L 102.544014 99.534346 
L 102.910064 98.978559 
L 103.832639 99.534346 
L 104.218627 96.755412 
L 104.970204 96.755412 
L 106.065435 98.422772 
L 106.136495 95.643839 
L 106.97692 96.199626 
L 109.164156 96.199626 
L 109.74108 95.088052 
L 110.598033 95.088052 
L 110.879291 91.197546 
L 116.169149 91.197546 
L 116.578701 86.751252 
L 118.260687 86.751252 
L 120.740855 82.860746 
L 122.041891 82.860746 
L 122.061584 83.416532 
L 125.04946 83.416532 
L 125.790654 80.081812 
L 128.136353 80.081812 
L 128.152635 80.637599 
L 141.289724 80.637599 
L 143.745377 81.193386 
L 143.829216 80.637599 
L 146.376051 81.193386 
L 155.23882 81.193386 
L 159.534491 81.749172 
L 159.617471 74.523946 
L 159.821525 75.079732 
L 162.244858 75.079732 
L 163.276249 75.635519 
L 167.529586 75.635519 
L 167.691059 80.637599 
L 167.698985 71.745012 
L 167.905774 71.745012 
L 168.932618 73.968159 
L 173.960112 73.968159 
L 177.813206 70.077652 
L 182.095667 70.077652 
L 182.283592 68.410292 
L 193.411538 68.410292 
L 193.886466 68.966079 
L 196.588476 68.966079 
L 196.607524 70.077652 
L 201.755816 70.077652 
L 201.860239 73.412372 
L 209.817269 73.412372 
L 210.007314 68.410292 
L 211.178367 67.298719 
L 211.181162 67.854506 
L 211.451022 67.854506 
L 212.412491 65.075572 
L 213.818964 65.075572 
L 214.198562 65.631359 
L 214.236534 65.075572 
L 215.105776 65.631359 
L 215.109739 66.187146 
L 215.130046 65.631359 
L 215.632163 63.408212 
L 220.206112 63.408212 
L 221.628192 63.963999 
L 223.315616 63.963999 
L 226.18168 64.519786 
L 228.894934 64.519786 
L 230.991203 65.631359 
L 235.272282 65.075572 
L 235.578762 65.075572 
L 238.247378 66.187146 
L 238.999262 65.631359 
L 242.723939 65.631359 
L 246.923266 67.854506 
L 246.92554 67.298719 
L 253.191705 67.298719 
L 255.135072 67.854506 
L 289.768182 67.854506 
L 290.047873 68.410292 
L 292.215232 68.410292 
L 292.230808 66.742932 
L 302.677776 66.742932 
L 302.888804 67.298719 
L 324.379817 67.298719 
L 329.112075 67.854506 
L 329.139448 67.298719 
L 332.527046 68.966079 
L 333.618836 68.966079 
L 334.653391 68.410292 
L 337.498534 68.410292 
L 340.21314 68.966079 
L 340.217595 69.521866 
L 347.914535 67.854506 
L 348.645313 68.410292 
L 358.124392 68.410292 
L 358.527799 67.854506 
L 359.266781 68.410292 
L 359.520727 70.633439 
L 363.864693 70.633439 
L 363.868441 71.189226 
L 377.16089 71.189226 
L 377.934955 71.745012 
L 380.489532 71.745012 
L 380.738747 72.300799 
L 393.195717 72.300799 
L 393.212645 72.856586 
L 395.403875 72.856586 
L 396.328323 73.412372 
L 396.332962 73.968159 
L 397.088994 73.412372 
L 397.128472 73.968159 
L 398.302504 73.968159 
L 398.486958 74.523946 
L 400.942856 74.523946 
L 400.999753 73.412372 
L 401.381716 74.523946 
L 402.765025 72.856586 
L 406.110104 72.856586 
L 406.357076 71.189226 
L 407.478758 71.189226 
L 408.029262 72.300799 
L 410.865987 72.300799 
L 411.796795 72.856586 
L 412.022876 72.856586 
L 412.89774 70.077652 
L 414.461232 70.077652 
L 414.818342 70.633439 
L 422.055193 70.633439 
L 422.233502 71.189226 
L 422.902837 71.189226 
L 423.942001 71.745012 
L 435.647117 71.745012 
L 435.752278 72.300799 
L 436.127575 72.300799 
L 436.911041 73.412372 
L 438.009468 73.412372 
L 438.273583 72.856586 
L 438.528051 72.856586 
L 438.62461 73.412372 
L 441.562102 73.412372 
L 442.062191 73.968159 
L 444.619041 73.968159 
L 444.782972 74.523946 
L 446.183516 74.523946 
L 446.273254 75.079732 
L 450.625822 75.079732 
L 450.719401 75.635519 
L 453.257879 75.635519 
L 454.105738 77.858666 
L 455.045763 77.858666 
L 455.046746 78.414452 
L 458.863619 78.414452 
L 459.563368 78.970239 
L 462.485899 78.970239 
L 463.061533 79.526026 
L 465.277248 79.526026 
L 465.4433 80.081812 
L 469.046625 80.081812 
L 469.975436 80.637599 
L 470.043086 81.193386 
L 470.34379 81.193386 
L 471.292909 60.629279 
L 474.236392 60.629279 
L 474.25759 61.185066 
L 474.423918 61.185066 
L 474.634485 60.629279 
L 477.058924 60.629279 
L 477.325865 61.185066 
L 477.644327 61.185066 
L 477.964663 61.740852 
L 478.031483 61.185066 
L 479.337096 61.185066 
L 479.347296 61.740852 
L 479.630305 61.740852 
L 479.754236 62.296639 
L 480.610575 62.852426 
L 486.568632 62.852426 
L 487.49987 63.408212 
L 488.123245 63.408212 
L 488.628987 63.963999 
L 489.140597 63.408212 
L 491.247096 63.408212 
L 491.33794 64.519786 
L 494.361976 64.519786 
L 495.535302 66.187146 
L 508.270919 66.187146 
L 509.011098 66.742932 
L 528.66922 66.742932 
L 528.789987 67.298719 
L 557.675546 67.298719 
L 557.802796 67.854506 
L 557.81192 68.410292 
L 557.820983 67.854506 
L 562.031002 67.854506 
L 562.981564 68.410292 
L 579.567601 68.410292 
L 583.296364 68.966079 
L 584.174054 69.521866 
L 584.181396 67.854506 
L 610.800887 67.854506 
L 611.059257 68.410292 
L 634.731178 68.410292 
L 637.769622 68.966079 
L 639.628197 68.966079 
L 639.829885 69.521866 
L 641.121674 70.077652 
L 644.744293 70.077652 
L 646.269997 70.633439 
L 647.866484 70.633439 
L 647.990815 71.189226 
L 650.616728 71.189226 
L 650.930397 71.745012 
L 650.992486 72.300799 
L 655.667694 72.300799 
L 655.68582 72.856586 
L 659.019992 72.856586 
L 659.666531 72.300799 
L 659.675318 72.856586 
L 661.024065 73.412372 
L 663.418458 73.412372 
L 665.141519 73.968159 
L 666.683537 73.968159 
L 668.956271 61.740852 
L 671.609649 61.740852 
L 671.621938 64.519786 
L 684.963203 64.519786 
L 684.964586 65.075572 
L 685.195337 65.631359 
L 686.473178 65.631359 
L 686.751118 66.187146 
L 690.94252 66.187146 
L 691.911454 66.742932 
L 692.070869 66.187146 
L 699.567656 66.187146 
L 699.569346 66.742932 
L 711.42546 66.742932 
L 711.506534 67.854506 
L 713.222837 69.521866 
L 714.944976 69.521866 
L 715.128416 70.077652 
L 722.367816 70.077652 
L 722.500933 70.633439 
L 729.770103 70.633439 
L 729.928443 71.189226 
L 731.931871 72.856586 
L 732.087108 73.412372 
L 751.822987 73.412372 
L 753.691516 76.191306 
L 758.150043 76.191306 
L 758.440456 76.747092 
L 761.790111 76.747092 
L 763.036862 77.858666 
L 780.692324 77.858666 
L 780.916163 78.414452 
L 783.500724 78.414452 
L 783.777589 78.970239 
L 800.8035 78.970239 
L 800.812225 80.637599 
L 801.341039 80.637599 
L 801.430439 81.193386 
L 804.465627 81.193386 
L 804.892905 81.749172 
L 804.895455 81.193386 
L 812.012614 81.193386 
L 812.012614 81.193386 
" clip-path="url(#pbe27028f9f)" style="fill: none; stroke: #9467bd; stroke-width: 2; stroke-linecap: square"/>
   </g>
   <g id="patch_3">
    <path d="M 48.90125 455.237812 
L 48.90125 38.397812 
" style="fill: none; stroke: #d0d7de; stroke-width: 0.8; stroke-linejoin: miter; stroke-linecap: square"/>
   </g>
   <g id="patch_4">
    <path d="M 848.35125 455.237812 
L 848.35125 38.397812 
" style="fill: none; stroke: #d0d7de; stroke-width: 0.8; stroke-linejoin: miter; stroke-linecap: square"/>
   </g>
   <g id="patch_5">
    <path d="M 48.90125 455.237812 
L 848.35125 455.237812 
" style="fill: none; stroke: #d0d7de; stroke-width: 0.8; stroke-linejoin: miter; stroke-linecap: square"/>
   </g>
   <g id="patch_6">
    <path d="M 48.90125 38.397812 
L 848.35125 38.397812 
" style="fill: none; stroke: #d0d7de; stroke-width: 0.8; stroke-linejoin: miter; stroke-linecap: square"/>
   </g>
   <g id="text_21">
    <!-- 544 -->
    <g style="fill: #1a7f37" transform="translate(817.012614 155.373303) scale(0.09 -0.09)">
     <defs>
      <path id="DejaVuSans-Bold-35" d="M 678 4666 
L 3669 4666 
L 3669 3781 
L 1638 3781 
L 1638 3059 
Q 1775 3097 1914 3117 
Q 2053 3138 2203 3138 
Q 3056 3138 3531 2711 
Q 4006 2284 4006 1522 
Q 4006 766 3489 337 
Q 2972 -91 2053 -91 
Q 1656 -91 1267 -14 
Q 878 63 494 219 
L 494 1166 
Q 875 947 1217 837 
Q 1559 728 1863 728 
Q 2300 728 2551 942 
Q 2803 1156 2803 1522 
Q 2803 1891 2551 2103 
Q 2300 2316 1863 2316 
Q 1603 2316 1309 2248 
Q 1016 2181 678 2041 
L 678 4666 
z
" transform="scale(0.015625)"/>
      <path id="DejaVuSans-Bold-34" d="M 2356 3675 
L 1038 1722 
L 2356 1722 
L 2356 3675 
z
M 2156 4666 
L 3494 4666 
L 3494 1722 
L 4159 1722 
L 4159 850 
L 3494 850 
L 3494 0 
L 2356 0 
L 2356 850 
L 288 850 
L 288 1881 
L 2156 4666 
z
" transform="scale(0.015625)"/>
     </defs>
     <use xlink:href="#DejaVuSans-Bold-35"/>
     <use xlink:href="#DejaVuSans-Bold-34" transform="translate(69.580078 0)"/>
     <use xlink:href="#DejaVuSans-Bold-34" transform="translate(139.160156 0)"/>
    </g>
   </g>
   <g id="text_22">
    <!-- 430 -->
    <g style="fill: #0969da" transform="translate(817.012614 218.732983) scale(0.09 -0.09)">
     <defs>
      <path id="DejaVuSans-Bold-33" d="M 2981 2516 
Q 3453 2394 3698 2092 
Q 3944 1791 3944 1325 
Q 3944 631 3412 270 
Q 2881 -91 1863 -91 
Q 1503 -91 1142 -33 
Q 781 25 428 141 
L 428 1069 
Q 766 900 1098 814 
Q 1431 728 1753 728 
Q 2231 728 2486 893 
Q 2741 1059 2741 1369 
Q 2741 1688 2480 1852 
Q 2219 2016 1709 2016 
L 1228 2016 
L 1228 2791 
L 1734 2791 
Q 2188 2791 2409 2933 
Q 2631 3075 2631 3366 
Q 2631 3634 2415 3781 
Q 2200 3928 1806 3928 
Q 1516 3928 1219 3862 
Q 922 3797 628 3669 
L 628 4550 
Q 984 4650 1334 4700 
Q 1684 4750 2022 4750 
Q 2931 4750 3382 4451 
Q 3834 4153 3834 3553 
Q 3834 3144 3618 2883 
Q 3403 2622 2981 2516 
z
" transform="scale(0.015625)"/>
      <path id="DejaVuSans-Bold-30" d="M 2944 2338 
Q 2944 3213 2780 3570 
Q 2616 3928 2228 3928 
Q 1841 3928 1675 3570 
Q 1509 3213 1509 2338 
Q 1509 1453 1675 1090 
Q 1841 728 2228 728 
Q 2613 728 2778 1090 
Q 2944 1453 2944 2338 
z
M 4147 2328 
Q 4147 1169 3647 539 
Q 3147 -91 2228 -91 
Q 1306 -91 806 539 
Q 306 1169 306 2328 
Q 306 3491 806 4120 
Q 1306 4750 2228 4750 
Q 3147 4750 3647 4120 
Q 4147 3491 4147 2328 
z
" transform="scale(0.015625)"/>
     </defs>
     <use xlink:href="#DejaVuSans-Bold-34"/>
     <use xlink:href="#DejaVuSans-Bold-33" transform="translate(69.580078 0)"/>
     <use xlink:href="#DejaVuSans-Bold-30" transform="translate(139.160156 0)"/>
    </g>
   </g>
   <g id="text_23">
    <!-- 186 -->
    <g style="fill: #bf8700" transform="translate(817.012614 354.34493) scale(0.09 -0.09)">
     <defs>
      <path id="DejaVuSans-Bold-31" d="M 750 831 
L 1813 831 
L 1813 3847 
L 722 3622 
L 722 4441 
L 1806 4666 
L 2950 4666 
L 2950 831 
L 4013 831 
L 4013 0 
L 750 0 
L 750 831 
z
" transform="scale(0.015625)"/>
      <path id="DejaVuSans-Bold-38" d="M 2228 2088 
Q 1891 2088 1709 1903 
Q 1528 1719 1528 1375 
Q 1528 1031 1709 848 
Q 1891 666 2228 666 
Q 2563 666 2741 848 
Q 2919 1031 2919 1375 
Q 2919 1722 2741 1905 
Q 2563 2088 2228 2088 
z
M 1350 2484 
Q 925 2613 709 2878 
Q 494 3144 494 3541 
Q 494 4131 934 4440 
Q 1375 4750 2228 4750 
Q 3075 4750 3515 4442 
Q 3956 4134 3956 3541 
Q 3956 3144 3739 2878 
Q 3522 2613 3097 2484 
Q 3572 2353 3814 2058 
Q 4056 1763 4056 1313 
Q 4056 619 3595 264 
Q 3134 -91 2228 -91 
Q 1319 -91 855 264 
Q 391 619 391 1313 
Q 391 1763 633 2058 
Q 875 2353 1350 2484 
z
M 1631 3419 
Q 1631 3141 1786 2991 
Q 1941 2841 2228 2841 
Q 2509 2841 2662 2991 
Q 2816 3141 2816 3419 
Q 2816 3697 2662 3845 
Q 2509 3994 2228 3994 
Q 1941 3994 1786 3844 
Q 1631 3694 1631 3419 
z
" transform="scale(0.015625)"/>
      <path id="DejaVuSans-Bold-36" d="M 2316 2303 
Q 2000 2303 1842 2098 
Q 1684 1894 1684 1484 
Q 1684 1075 1842 870 
Q 2000 666 2316 666 
Q 2634 666 2792 870 
Q 2950 1075 2950 1484 
Q 2950 1894 2792 2098 
Q 2634 2303 2316 2303 
z
M 3803 4544 
L 3803 3681 
Q 3506 3822 3243 3889 
Q 2981 3956 2731 3956 
Q 2194 3956 1894 3657 
Q 1594 3359 1544 2772 
Q 1750 2925 1990 3001 
Q 2231 3078 2516 3078 
Q 3231 3078 3670 2659 
Q 4109 2241 4109 1563 
Q 4109 813 3618 361 
Q 3128 -91 2303 -91 
Q 1394 -91 895 523 
Q 397 1138 397 2266 
Q 397 3422 980 4083 
Q 1563 4744 2578 4744 
Q 2900 4744 3203 4694 
Q 3506 4644 3803 4544 
z
" transform="scale(0.015625)"/>
     </defs>
     <use xlink:href="#DejaVuSans-Bold-31"/>
     <use xlink:href="#DejaVuSans-Bold-38" transform="translate(69.580078 0)"/>
     <use xlink:href="#DejaVuSans-Bold-36" transform="translate(139.160156 0)"/>
    </g>
   </g>
   <g id="text_24">
    <!-- 311 -->
    <g style="fill: #cf222e" transform="translate(817.012614 284.871597) scale(0.09 -0.09)">
     <use xlink:href="#DejaVuSans-Bold-33"/>
     <use xlink:href="#DejaVuSans-Bold-31" transform="translate(69.580078 0)"/>
     <use xlink:href="#DejaVuSans-Bold-31" transform="translate(139.160156 0)"/>
    </g>
   </g>
   <g id="text_25">
    <!-- 673 -->
    <g style="fill: #9467bd" transform="translate(817.012614 83.676823) scale(0.09 -0.09)">
     <defs>
      <path id="DejaVuSans-Bold-37" d="M 428 4666 
L 3944 4666 
L 3944 3988 
L 2125 0 
L 953 0 
L 2675 3781 
L 428 3781 
L 428 4666 
z
" transform="scale(0.015625)"/>
     </defs>
     <use xlink:href="#DejaVuSans-Bold-36"/>
     <use xlink:href="#DejaVuSans-Bold-37" transform="translate(69.580078 0)"/>
     <use xlink:href="#DejaVuSans-Bold-33" transform="translate(139.160156 0)"/>
    </g>
   </g>
   <g id="text_26">
    <!-- Erdős Problems Progress -->
    <g style="fill: #24292f" transform="translate(349.588281 18.397812) scale(0.14 -0.14)">
     <defs>
      <path id="DejaVuSans-Bold-45" d="M 588 4666 
L 3834 4666 
L 3834 3756 
L 1791 3756 
L 1791 2888 
L 3713 2888 
L 3713 1978 
L 1791 1978 
L 1791 909 
L 3903 909 
L 3903 0 
L 588 0 
L 588 4666 
z
" transform="scale(0.015625)"/>
      <path id="DejaVuSans-Bold-72" d="M 3138 2547 
Q 2991 2616 2845 2648 
Q 2700 2681 2553 2681 
Q 2122 2681 1889 2404 
Q 1656 2128 1656 1613 
L 1656 0 
L 538 0 
L 538 3500 
L 1656 3500 
L 1656 2925 
Q 1872 3269 2151 3426 
Q 2431 3584 2822 3584 
Q 2878 3584 2943 3579 
Q 3009 3575 3134 3559 
L 3138 2547 
z
" transform="scale(0.015625)"/>
      <path id="DejaVuSans-Bold-64" d="M 2919 2988 
L 2919 4863 
L 4044 4863 
L 4044 0 
L 2919 0 
L 2919 506 
Q 2688 197 2409 53 
Q 2131 -91 1766 -91 
Q 1119 -91 703 423 
Q 288 938 288 1747 
Q 288 2556 703 3070 
Q 1119 3584 1766 3584 
Q 2128 3584 2408 3439 
Q 2688 3294 2919 2988 
z
M 2181 722 
Q 2541 722 2730 984 
Q 2919 1247 2919 1747 
Q 2919 2247 2730 2509 
Q 2541 2772 2181 2772 
Q 1825 2772 1636 2509 
Q 1447 2247 1447 1747 
Q 1447 1247 1636 984 
Q 1825 722 2181 722 
z
" transform="scale(0.015625)"/>
      <path id="DejaVuSans-Bold-151" d="M 1881 5119 
L 2560 5119 
L 1785 3944 
L 1275 3944 
L 1881 5119 
z
M 3016 5119 
L 3738 5119 
L 2888 3944 
L 2344 3944 
L 3016 5119 
z
M 2203 2784 
Q 1831 2784 1636 2517 
Q 1441 2250 1441 1747 
Q 1441 1244 1636 976 
Q 1831 709 2203 709 
Q 2569 709 2762 976 
Q 2956 1244 2956 1747 
Q 2956 2250 2762 2517 
Q 2569 2784 2203 2784 
z
M 2203 3584 
Q 3106 3584 3614 3096 
Q 4122 2609 4122 1747 
Q 4122 884 3614 396 
Q 3106 -91 2203 -91 
Q 1297 -91 786 396 
Q 275 884 275 1747 
Q 275 2609 786 3096 
Q 1297 3584 2203 3584 
z
" transform="scale(0.015625)"/>
      <path id="DejaVuSans-Bold-73" d="M 3272 3391 
L 3272 2541 
Q 2913 2691 2578 2766 
Q 2244 2841 1947 2841 
Q 1628 2841 1473 2761 
Q 1319 2681 1319 2516 
Q 1319 2381 1436 2309 
Q 1553 2238 1856 2203 
L 2053 2175 
Q 2913 2066 3209 1816 
Q 3506 1566 3506 1031 
Q 3506 472 3093 190 
Q 2681 -91 1863 -91 
Q 1516 -91 1145 -36 
Q 775 19 384 128 
L 384 978 
Q 719 816 1070 734 
Q 1422 653 1784 653 
Q 2113 653 2278 743 
Q 2444 834 2444 1013 
Q 2444 1163 2330 1236 
Q 2216 1309 1875 1350 
L 1678 1375 
Q 931 1469 631 1722 
Q 331 1975 331 2491 
Q 331 3047 712 3315 
Q 1094 3584 1881 3584 
Q 2191 3584 2531 3537 
Q 2872 3491 3272 3391 
z
" transform="scale(0.015625)"/>
      <path id="DejaVuSans-Bold-20" transform="scale(0.015625)"/>
      <path id="DejaVuSans-Bold-50" d="M 588 4666 
L 2584 4666 
Q 3475 4666 3951 4270 
Q 4428 3875 4428 3144 
Q 4428 2409 3951 2014 
Q 3475 1619 2584 1619 
L 1791 1619 
L 1791 0 
L 588 0 
L 588 4666 
z
M 1791 3794 
L 1791 2491 
L 2456 2491 
Q 2806 2491 2997 2661 
Q 3188 2831 3188 3144 
Q 3188 3456 2997 3625 
Q 2806 3794 2456 3794 
L 1791 3794 
z
" transform="scale(0.015625)"/>
      <path id="DejaVuSans-Bold-6f" d="M 2203 2784 
Q 1831 2784 1636 2517 
Q 1441 2250 1441 1747 
Q 1441 1244 1636 976 
Q 1831 709 2203 709 
Q 2569 709 2762 976 
Q 2956 1244 2956 1747 
Q 2956 2250 2762 2517 
Q 2569 2784 2203 2784 
z
M 2203 3584 
Q 3106 3584 3614 3096 
Q 4122 2609 4122 1747 
Q 4122 884 3614 396 
Q 3106 -91 2203 -91 
Q 1297 -91 786 396 
Q 275 884 275 1747 
Q 275 2609 786 3096 
Q 1297 3584 2203 3584 
z
" transform="scale(0.015625)"/>
      <path id="DejaVuSans-Bold-62" d="M 2400 722 
Q 2759 722 2948 984 
Q 3138 1247 3138 1747 
Q 3138 2247 2948 2509 
Q 2759 2772 2400 2772 
Q 2041 2772 1848 2508 
Q 1656 2244 1656 1747 
Q 1656 1250 1848 986 
Q 2041 722 2400 722 
z
M 1656 2988 
Q 1888 3294 2169 3439 
Q 2450 3584 2816 3584 
Q 3463 3584 3878 3070 
Q 4294 2556 4294 1747 
Q 4294 938 3878 423 
Q 3463 -91 2816 -91 
Q 2450 -91 2169 54 
Q 1888 200 1656 506 
L 1656 0 
L 538 0 
L 538 4863 
L 1656 4863 
L 1656 2988 
z
" transform="scale(0.015625)"/>
      <path id="DejaVuSans-Bold-6c" d="M 538 4863 
L 1656 4863 
L 1656 0 
L 538 0 
L 538 4863 
z
" transform="scale(0.015625)"/>
      <path id="DejaVuSans-Bold-65" d="M 4031 1759 
L 4031 1441 
L 1416 1441 
Q 1456 1047 1700 850 
Q 1944 653 2381 653 
Q 2734 653 3104 758 
Q 3475 863 3866 1075 
L 3866 213 
Q 3469 63 3072 -14 
Q 2675 -91 2278 -91 
Q 1328 -91 801 392 
Q 275 875 275 1747 
Q 275 2603 792 3093 
Q 1309 3584 2216 3584 
Q 3041 3584 3536 3087 
Q 4031 2591 4031 1759 
z
M 2881 2131 
Q 2881 2450 2695 2645 
Q 2509 2841 2209 2841 
Q 1884 2841 1681 2658 
Q 1478 2475 1428 2131 
L 2881 2131 
z
" transform="scale(0.015625)"/>
      <path id="DejaVuSans-Bold-6d" d="M 3781 2919 
Q 3994 3244 4286 3414 
Q 4578 3584 4928 3584 
Q 5531 3584 5847 3212 
Q 6163 2841 6163 2131 
L 6163 0 
L 5038 0 
L 5038 1825 
Q 5041 1866 5042 1909 
Q 5044 1953 5044 2034 
Q 5044 2406 4934 2573 
Q 4825 2741 4581 2741 
Q 4263 2741 4089 2478 
Q 3916 2216 3909 1719 
L 3909 0 
L 2784 0 
L 2784 1825 
Q 2784 2406 2684 2573 
Q 2584 2741 2328 2741 
Q 2006 2741 1831 2477 
Q 1656 2213 1656 1722 
L 1656 0 
L 531 0 
L 531 3500 
L 1656 3500 
L 1656 2988 
Q 1863 3284 2130 3434 
Q 2397 3584 2719 3584 
Q 3081 3584 3359 3409 
Q 3638 3234 3781 2919 
z
" transform="scale(0.015625)"/>
      <path id="DejaVuSans-Bold-67" d="M 2919 594 
Q 2688 288 2409 144 
Q 2131 0 1766 0 
Q 1125 0 706 504 
Q 288 1009 288 1791 
Q 288 2575 706 3076 
Q 1125 3578 1766 3578 
Q 2131 3578 2409 3434 
Q 2688 3291 2919 2981 
L 2919 3500 
L 4044 3500 
L 4044 353 
Q 4044 -491 3511 -936 
Q 2978 -1381 1966 -1381 
Q 1638 -1381 1331 -1331 
Q 1025 -1281 716 -1178 
L 716 -306 
Q 1009 -475 1290 -558 
Q 1572 -641 1856 -641 
Q 2406 -641 2662 -400 
Q 2919 -159 2919 353 
L 2919 594 
z
M 2181 2772 
Q 1834 2772 1640 2515 
Q 1447 2259 1447 1791 
Q 1447 1309 1634 1061 
Q 1822 813 2181 813 
Q 2531 813 2725 1069 
Q 2919 1325 2919 1791 
Q 2919 2259 2725 2515 
Q 2531 2772 2181 2772 
z
" transform="scale(0.015625)"/>
     </defs>
     <use xlink:href="#DejaVuSans-Bold-45"/>
     <use xlink:href="#DejaVuSans-Bold-72" transform="translate(68.310547 0)"/>
     <use xlink:href="#DejaVuSans-Bold-64" transform="translate(117.626953 0)"/>
     <use xlink:href="#DejaVuSans-Bold-151" transform="translate(189.208984 0)"/>
     <use xlink:href="#DejaVuSans-Bold-73" transform="translate(257.910156 0)"/>
     <use xlink:href="#DejaVuSans-Bold-20" transform="translate(317.431641 0)"/>
     <use xlink:href="#DejaVuSans-Bold-50" transform="translate(352.246094 0)"/>
     <use xlink:href="#DejaVuSans-Bold-72" transform="translate(425.537109 0)"/>
     <use xlink:href="#DejaVuSans-Bold-6f" transform="translate(474.853516 0)"/>
     <use xlink:href="#DejaVuSans-Bold-62" transform="translate(543.554688 0)"/>
     <use xlink:href="#DejaVuSans-Bold-6c" transform="translate(615.136719 0)"/>
     <use xlink:href="#DejaVuSans-Bold-65" transform="translate(649.414062 0)"/>
     <use xlink:href="#DejaVuSans-Bold-6d" transform="translate(717.236328 0)"/>
     <use xlink:href="#DejaVuSans-Bold-73" transform="translate(821.435547 0)"/>
     <use xlink:href="#DejaVuSans-Bold-20" transform="translate(880.957031 0)"/>
     <use xlink:href="#DejaVuSans-Bold-50" transform="translate(915.771484 0)"/>
     <use xlink:href="#DejaVuSans-Bold-72" transform="translate(989.0625 0)"/>
     <use xlink:href="#DejaVuSans-Bold-6f" transform="translate(1038.378906 0)"/>
     <use xlink:href="#DejaVuSans-Bold-67" transform="translate(1107.080078 0)"/>
     <use xlink:href="#DejaVuSans-Bold-72" transform="translate(1178.662109 0)"/>
     <use xlink:href="#DejaVuSans-Bold-65" transform="translate(1227.978516 0)"/>
     <use xlink:href="#DejaVuSans-Bold-73" transform="translate(1295.800781 0)"/>
     <use xlink:href="#DejaVuSans-Bold-73" transform="translate(1355.322266 0)"/>
    </g>
   </g>
   <g id="legend_1">
    <g id="patch_7">
     <path d="M 55.90125 119.788437 
L 213.771563 119.788437 
Q 215.771563 119.788437 215.771563 117.788437 
L 215.771563 45.397812 
Q 215.771563 43.397812 213.771563 43.397812 
L 55.90125 43.397812 
Q 53.90125 43.397812 53.90125 45.397812 
L 53.90125 117.788437 
Q 53.90125 119.788437 55.90125 119.788437 
z
" style="fill: #f6f8fa; opacity: 0.8; stroke: #d0d7de; stroke-linejoin: miter"/>
    </g>
    <g id="line2d_42">
     <path d="M 57.90125 51.49625 
L 67.90125 51.49625 
L 77.90125 51.49625 
" style="fill: none; stroke: #1a7f37; stroke-width: 2; stroke-linecap: square"/>
    </g>
    <g id="text_27">
     <!-- Solved -->
     <g style="fill: #24292f" transform="translate(85.90125 54.99625) scale(0.1 -0.1)">
      <defs>
       <path id="DejaVuSans-6c" d="M 603 4863 
L 1178 4863 
L 1178 0 
L 603 0 
L 603 4863 
z
" transform="scale(0.015625)"/>
       <path id="DejaVuSans-64" d="M 2906 2969 
L 2906 4863 
L 3481 4863 
L 3481 0 
L 2906 0 
L 2906 525 
Q 2725 213 2448 61 
Q 2172 -91 1784 -91 
Q 1150 -91 751 415 
Q 353 922 353 1747 
Q 353 2572 751 3078 
Q 1150 3584 1784 3584 
Q 2172 3584 2448 3432 
Q 2725 3281 2906 2969 
z
M 947 1747 
Q 947 1113 1208 752 
Q 1469 391 1925 391 
Q 2381 391 2643 752 
Q 2906 1113 2906 1747 
Q 2906 2381 2643 2742 
Q 2381 3103 1925 3103 
Q 1469 3103 1208 2742 
Q 947 2381 947 1747 
z
" transform="scale(0.015625)"/>
      </defs>
      <use xlink:href="#DejaVuSans-53"/>
      <use xlink:href="#DejaVuSans-6f" transform="translate(63.476562 0)"/>
      <use xlink:href="#DejaVuSans-6c" transform="translate(124.658203 0)"/>
      <use xlink:href="#DejaVuSans-76" transform="translate(152.441406 0)"/>
      <use xlink:href="#DejaVuSans-65" transform="translate(211.621094 0)"/>
      <use xlink:href="#DejaVuSans-64" transform="translate(273.144531 0)"/>
     </g>
    </g>
    <g id="line2d_43">
     <path d="M 57.90125 66.174375 
L 67.90125 66.174375 
L 77.90125 66.174375 
" style="fill: none; stroke: #0969da; stroke-width: 2; stroke-linecap: square"/>
    </g>
    <g id="text_28">
     <!-- Lean Formalized Problem -->
     <g style="fill: #24292f" transform="translate(85.90125 69.674375) scale(0.1 -0.1)">
      <defs>
       <path id="DejaVuSans-4c" d="M 628 4666 
L 1259 4666 
L 1259 531 
L 3531 531 
L 3531 0 
L 628 0 
L 628 4666 
z
" transform="scale(0.015625)"/>
       <path id="DejaVuSans-20" transform="scale(0.015625)"/>
       <path id="DejaVuSans-6d" d="M 3328 2828 
Q 3544 3216 3844 3400 
Q 4144 3584 4550 3584 
Q 5097 3584 5394 3201 
Q 5691 2819 5691 2113 
L 5691 0 
L 5113 0 
L 5113 2094 
Q 5113 2597 4934 2840 
Q 4756 3084 4391 3084 
Q 3944 3084 3684 2787 
Q 3425 2491 3425 1978 
L 3425 0 
L 2847 0 
L 2847 2094 
Q 2847 2600 2669 2842 
Q 2491 3084 2119 3084 
Q 1678 3084 1418 2786 
Q 1159 2488 1159 1978 
L 1159 0 
L 581 0 
L 581 3500 
L 1159 3500 
L 1159 2956 
Q 1356 3278 1631 3431 
Q 1906 3584 2284 3584 
Q 2666 3584 2933 3390 
Q 3200 3197 3328 2828 
z
" transform="scale(0.015625)"/>
       <path id="DejaVuSans-69" d="M 603 3500 
L 1178 3500 
L 1178 0 
L 603 0 
L 603 3500 
z
M 603 4863 
L 1178 4863 
L 1178 4134 
L 603 4134 
L 603 4863 
z
" transform="scale(0.015625)"/>
       <path id="DejaVuSans-7a" d="M 353 3500 
L 3084 3500 
L 3084 2975 
L 922 459 
L 3084 459 
L 3084 0 
L 275 0 
L 275 525 
L 2438 3041 
L 353 3041 
L 353 3500 
z
" transform="scale(0.015625)"/>
       <path id="DejaVuSans-50" d="M 1259 4147 
L 1259 2394 
L 2053 2394 
Q 2494 2394 2734 2622 
Q 2975 2850 2975 3272 
Q 2975 3691 2734 3919 
Q 2494 4147 2053 4147 
L 1259 4147 
z
M 628 4666 
L 2053 4666 
Q 2838 4666 3239 4311 
Q 3641 3956 3641 3272 
Q 3641 2581 3239 2228 
Q 2838 1875 2053 1875 
L 1259 1875 
L 1259 0 
L 628 0 
L 628 4666 
z
" transform="scale(0.015625)"/>
      </defs>
      <use xlink:href="#DejaVuSans-4c"/>
      <use xlink:href="#DejaVuSans-65" transform="translate(53.962891 0)"/>
      <use xlink:href="#DejaVuSans-61" transform="translate(115.486328 0)"/>
      <use xlink:href="#DejaVuSans-6e" transform="translate(176.765625 0)"/>
      <use xlink:href="#DejaVuSans-20" transform="translate(240.144531 0)"/>
      <use xlink:href="#DejaVuSans-46" transform="translate(271.931641 0)"/>
      <use xlink:href="#DejaVuSans-6f" transform="translate(325.826172 0)"/>
      <use xlink:href="#DejaVuSans-72" transform="translate(387.007812 0)"/>
      <use xlink:href="#DejaVuSans-6d" transform="translate(426.371094 0)"/>
      <use xlink:href="#DejaVuSans-61" transform="translate(523.783203 0)"/>
      <use xlink:href="#DejaVuSans-6c" transform="translate(585.0625 0)"/>
      <use xlink:href="#DejaVuSans-69" transform="translate(612.845703 0)"/>
      <use xlink:href="#DejaVuSans-7a" transform="translate(640.628906 0)"/>
      <use xlink:href="#DejaVuSans-65" transform="translate(693.119141 0)"/>
      <use xlink:href="#DejaVuSans-64" transform="translate(754.642578 0)"/>
      <use xlink:href="#DejaVuSans-20" transform="translate(818.119141 0)"/>
      <use xlink:href="#DejaVuSans-50" transform="translate(849.90625 0)"/>
      <use xlink:href="#DejaVuSans-72" transform="translate(908.458984 0)"/>
      <use xlink:href="#DejaVuSans-6f" transform="translate(947.322266 0)"/>
      <use xlink:href="#DejaVuSans-62" transform="translate(1008.503906 0)"/>
      <use xlink:href="#DejaVuSans-6c" transform="translate(1071.980469 0)"/>
      <use xlink:href="#DejaVuSans-65" transform="translate(1099.763672 0)"/>
      <use xlink:href="#DejaVuSans-6d" transform="translate(1161.287109 0)"/>
     </g>
    </g>
    <g id="line2d_44">
     <path d="M 57.90125 80.8525 
L 67.90125 80.8525 
L 77.90125 80.8525 
" style="fill: none; stroke: #bf8700; stroke-width: 2; stroke-linecap: square"/>
    </g>
    <g id="text_29">
     <!-- Lean Formalized Solution -->
     <g style="fill: #24292f" transform="translate(85.90125 84.3525) scale(0.1 -0.1)">
      <use xlink:href="#DejaVuSans-4c"/>
      <use xlink:href="#DejaVuSans-65" transform="translate(53.962891 0)"/>
      <use xlink:href="#DejaVuSans-61" transform="translate(115.486328 0)"/>
      <use xlink:href="#DejaVuSans-6e" transform="translate(176.765625 0)"/>
      <use xlink:href="#DejaVuSans-20" transform="translate(240.144531 0)"/>
      <use xlink:href="#DejaVuSans-46" transform="translate(271.931641 0)"/>
      <use xlink:href="#DejaVuSans-6f" transform="translate(325.826172 0)"/>
      <use xlink:href="#DejaVuSans-72" transform="translate(387.007812 0)"/>
      <use xlink:href="#DejaVuSans-6d" transform="translate(426.371094 0)"/>
      <use xlink:href="#DejaVuSans-61" transform="translate(523.783203 0)"/>
      <use xlink:href="#DejaVuSans-6c" transform="translate(585.0625 0)"/>
      <use xlink:href="#DejaVuSans-69" transform="translate(612.845703 0)"/>
      <use xlink:href="#DejaVuSans-7a" transform="translate(640.628906 0)"/>
      <use xlink:href="#DejaVuSans-65" transform="translate(693.119141 0)"/>
      <use xlink:href="#DejaVuSans-64" transform="translate(754.642578 0)"/>
      <use xlink:href="#DejaVuSans-20" transform="translate(818.119141 0)"/>
      <use xlink:href="#DejaVuSans-53" transform="translate(849.90625 0)"/>
      <use xlink:href="#DejaVuSans-6f" transform="translate(913.382812 0)"/>
      <use xlink:href="#DejaVuSans-6c" transform="translate(974.564453 0)"/>
      <use xlink:href="#DejaVuSans-75" transform="translate(1002.347656 0)"/>
      <use xlink:href="#DejaVuSans-74" transform="translate(1065.726562 0)"/>
      <use xlink:href="#DejaVuSans-69" transform="translate(1104.935547 0)"/>
      <use xlink:href="#DejaVuSans-6f" transform="translate(1132.71875 0)"/>
      <use xlink:href="#DejaVuSans-6e" transform="translate(1193.900391 0)"/>
     </g>
    </g>
    <g id="line2d_45">
     <path d="M 57.90125 95.530625 
L 67.90125 95.530625 
L 77.90125 95.530625 
" style="fill: none; stroke: #cf222e; stroke-width: 2; stroke-linecap: square"/>
    </g>
    <g id="text_30">
     <!-- OEIS Linked -->
     <g style="fill: #24292f" transform="translate(85.90125 99.030625) scale(0.1 -0.1)">
      <defs>
       <path id="DejaVuSans-45" d="M 628 4666 
L 3578 4666 
L 3578 4134 
L 1259 4134 
L 1259 2753 
L 3481 2753 
L 3481 2222 
L 1259 2222 
L 1259 531 
L 3634 531 
L 3634 0 
L 628 0 
L 628 4666 
z
" transform="scale(0.015625)"/>
       <path id="DejaVuSans-49" d="M 628 4666 
L 1259 4666 
L 1259 0 
L 628 0 
L 628 4666 
z
" transform="scale(0.015625)"/>
       <path id="DejaVuSans-6b" d="M 581 4863 
L 1159 4863 
L 1159 1991 
L 2875 3500 
L 3609 3500 
L 1753 1863 
L 3688 0 
L 2938 0 
L 1159 1709 
L 1159 0 
L 581 0 
L 581 4863 
z
" transform="scale(0.015625)"/>
      </defs>
      <use xlink:href="#DejaVuSans-4f"/>
      <use xlink:href="#DejaVuSans-45" transform="translate(78.710938 0)"/>
      <use xlink:href="#DejaVuSans-49" transform="translate(141.894531 0)"/>
      <use xlink:href="#DejaVuSans-53" transform="translate(171.386719 0)"/>
      <use xlink:href="#DejaVuSans-20" transform="translate(234.863281 0)"/>
      <use xlink:href="#DejaVuSans-4c" transform="translate(266.650391 0)"/>
      <use xlink:href="#DejaVuSans-69" transform="translate(322.363281 0)"/>
      <use xlink:href="#DejaVuSans-6e" transform="translate(350.146484 0)"/>
      <use xlink:href="#DejaVuSans-6b" transform="translate(413.525391 0)"/>
      <use xlink:href="#DejaVuSans-65" transform="translate(467.810547 0)"/>
      <use xlink:href="#DejaVuSans-64" transform="translate(529.333984 0)"/>
     </g>
    </g>
    <g id="line2d_46">
     <path d="M 57.90125 110.20875 
L 67.90125 110.20875 
L 77.90125 110.20875 
" style="fill: none; stroke: #9467bd; stroke-width: 2; stroke-linecap: square"/>
    </g>
    <g id="text_31">
     <!-- Open Problems -->
     <g style="fill: #24292f" transform="translate(85.90125 113.70875) scale(0.1 -0.1)">
      <defs>
       <path id="DejaVuSans-73" d="M 2834 3397 
L 2834 2853 
Q 2591 2978 2328 3040 
Q 2066 3103 1784 3103 
Q 1356 3103 1142 2972 
Q 928 2841 928 2578 
Q 928 2378 1081 2264 
Q 1234 2150 1697 2047 
L 1894 2003 
Q 2506 1872 2764 1633 
Q 3022 1394 3022 966 
Q 3022 478 2636 193 
Q 2250 -91 1575 -91 
Q 1294 -91 989 -36 
Q 684 19 347 128 
L 347 722 
Q 666 556 975 473 
Q 1284 391 1588 391 
Q 1994 391 2212 530 
Q 2431 669 2431 922 
Q 2431 1156 2273 1281 
Q 2116 1406 1581 1522 
L 1381 1569 
Q 847 1681 609 1914 
Q 372 2147 372 2553 
Q 372 3047 722 3315 
Q 1072 3584 1716 3584 
Q 2034 3584 2315 3537 
Q 2597 3491 2834 3397 
z
" transform="scale(0.015625)"/>
      </defs>
      <use xlink:href="#DejaVuSans-4f"/>
      <use xlink:href="#DejaVuSans-70" transform="translate(78.710938 0)"/>
      <use xlink:href="#DejaVuSans-65" transform="translate(142.1875 0)"/>
      <use xlink:href="#DejaVuSans-6e" transform="translate(203.710938 0)"/>
      <use xlink:href="#DejaVuSans-20" transform="translate(267.089844 0)"/>
      <use xlink:href="#DejaVuSans-50" transform="translate(298.876953 0)"/>
      <use xlink:href="#DejaVuSans-72" transform="translate(357.429688 0)"/>
      <use xlink:href="#DejaVuSans-6f" transform="translate(396.292969 0)"/>
      <use xlink:href="#DejaVuSans-62" transform="translate(457.474609 0)"/>
      <use xlink:href="#DejaVuSans-6c" transform="translate(520.951172 0)"/>
      <use xlink:href="#DejaVuSans-65" transform="translate(548.734375 0)"/>
      <use xlink:href="#DejaVuSans-6d" transform="translate(610.257812 0)"/>
      <use xlink:href="#DejaVuSans-73" transform="translate(707.669922 0)"/>
     </g>
    </g>
   </g>
  </g>
 </g>
 <defs>
  <clipPath id="pbe27028f9f">
   <rect x="48.90125" y="38.397812" width="799.45" height="416.84"/>
  </clipPath>
 </defs>
</svg>
