<?xml version="1.0" encoding="utf-8" standalone="no"?>
<!DOCTYPE svg PUBLIC "-//W3C//DTD SVG 1.1//EN"
  "http://www.w3.org/Graphics/SVG/1.1/DTD/svg11.dtd">
<svg xmlns:xlink="http://www.w3.org/1999/xlink" width="855.55125pt" height="494.729687pt" viewBox="0 0 855.55125 494.729687" xmlns="http://www.w3.org/2000/svg" version="1.1">
 <metadata>
  <rdf:RDF xmlns:dc="http://purl.org/dc/elements/1.1/" xmlns:cc="http://creativecommons.org/ns#" xmlns:rdf="http://www.w3.org/1999/02/22-rdf-syntax-ns#">
   <cc:Work>
    <dc:type rdf:resource="http://purl.org/dc/dcmitype/StillImage"/>
    <dc:date>2026-05-11T06:25:22.297000</dc:date>
    <dc:format>image/svg+xml</dc:format>
    <dc:creator>
     <cc:Agent>
      <dc:title>Matplotlib v3.10.7, https://matplotlib.org/</dc:title>
     </cc:Agent>
    </dc:creator>
   </cc:Work>
  </rdf:RDF>
 </metadata>
 <defs>
  <style type="text/css">*{stroke-linejoin: round; stroke-linecap: butt}</style>
 </defs>
 <g id="figure_1">
  <g id="patch_1">
   <path d="M 0 494.729687 
L 855.55125 494.729687 
L 855.55125 0 
L 0 0 
z
" style="fill: #0d1117"/>
  </g>
  <g id="axes_1">
   <g id="patch_2">
    <path d="M 48.90125 455.237812 
L 848.35125 455.237812 
L 848.35125 38.397812 
L 48.90125 38.397812 
z
" style="fill: #0d1117"/>
   </g>
   <g id="matplotlib.axis_1">
    <g id="xtick_1">
     <g id="line2d_1">
      <path d="M 86.081125 455.237812 
L 86.081125 38.397812 
" clip-path="url(#p306b11f9d6)" style="fill: none; stroke: #30363d; stroke-opacity: 0.25; stroke-width: 0.5; stroke-linecap: square"/>
     </g>
     <g id="line2d_2">
      <defs>
       <path id="m86c48d97b6" d="M 0 0 
L 0 3.5 
" style="stroke: #c9d1d9; stroke-width: 0.8"/>
      </defs>
      <g>
       <use xlink:href="#m86c48d97b6" x="86.081125" y="455.237812" style="fill: #c9d1d9; stroke: #c9d1d9; stroke-width: 0.8"/>
      </g>
     </g>
     <g id="text_1">
      <!-- Sep -->
      <g style="fill: #c9d1d9" transform="translate(76.656125 469.83625) scale(0.1 -0.1)">
       <defs>
        <path id="DejaVuSans-53" d="M 3425 4513 
L 3425 3897 
Q 3066 4069 2747 4153 
Q 2428 4238 2131 4238 
Q 1616 4238 1336 4038 
Q 1056 3838 1056 3469 
Q 1056 3159 1242 3001 
Q 1428 2844 1947 2747 
L 2328 2669 
Q 3034 2534 3370 2195 
Q 3706 1856 3706 1288 
Q 3706 609 3251 259 
Q 2797 -91 1919 -91 
Q 1588 -91 1214 -16 
Q 841 59 441 206 
L 441 856 
Q 825 641 1194 531 
Q 1563 422 1919 422 
Q 2459 422 2753 634 
Q 3047 847 3047 1241 
Q 3047 1584 2836 1778 
Q 2625 1972 2144 2069 
L 1759 2144 
Q 1053 2284 737 2584 
Q 422 2884 422 3419 
Q 422 4038 858 4394 
Q 1294 4750 2059 4750 
Q 2388 4750 2728 4690 
Q 3069 4631 3425 4513 
z
" transform="scale(0.015625)"/>
        <path id="DejaVuSans-65" d="M 3597 1894 
L 3597 1613 
L 953 1613 
Q 991 1019 1311 708 
Q 1631 397 2203 397 
Q 2534 397 2845 478 
Q 3156 559 3463 722 
L 3463 178 
Q 3153 47 2828 -22 
Q 2503 -91 2169 -91 
Q 1331 -91 842 396 
Q 353 884 353 1716 
Q 353 2575 817 3079 
Q 1281 3584 2069 3584 
Q 2775 3584 3186 3129 
Q 3597 2675 3597 1894 
z
M 3022 2063 
Q 3016 2534 2758 2815 
Q 2500 3097 2075 3097 
Q 1594 3097 1305 2825 
Q 1016 2553 972 2059 
L 3022 2063 
z
" transform="scale(0.015625)"/>
        <path id="DejaVuSans-70" d="M 1159 525 
L 1159 -1331 
L 581 -1331 
L 581 3500 
L 1159 3500 
L 1159 2969 
Q 1341 3281 1617 3432 
Q 1894 3584 2278 3584 
Q 2916 3584 3314 3078 
Q 3713 2572 3713 1747 
Q 3713 922 3314 415 
Q 2916 -91 2278 -91 
Q 1894 -91 1617 61 
Q 1341 213 1159 525 
z
M 3116 1747 
Q 3116 2381 2855 2742 
Q 2594 3103 2138 3103 
Q 1681 3103 1420 2742 
Q 1159 2381 1159 1747 
Q 1159 1113 1420 752 
Q 1681 391 2138 391 
Q 2594 391 2855 752 
Q 3116 1113 3116 1747 
z
" transform="scale(0.015625)"/>
       </defs>
       <use xlink:href="#DejaVuSans-53"/>
       <use xlink:href="#DejaVuSans-65" transform="translate(63.476562 0)"/>
       <use xlink:href="#DejaVuSans-70" transform="translate(125 0)"/>
      </g>
     </g>
    </g>
    <g id="xtick_2">
     <g id="line2d_3">
      <path d="M 172.409866 455.237812 
L 172.409866 38.397812 
" clip-path="url(#p306b11f9d6)" style="fill: none; stroke: #30363d; stroke-opacity: 0.25; stroke-width: 0.5; stroke-linecap: square"/>
     </g>
     <g id="line2d_4">
      <g>
       <use xlink:href="#m86c48d97b6" x="172.409866" y="455.237812" style="fill: #c9d1d9; stroke: #c9d1d9; stroke-width: 0.8"/>
      </g>
     </g>
     <g id="text_2">
      <!-- Oct -->
      <g style="fill: #c9d1d9" transform="translate(163.764554 469.83625) scale(0.1 -0.1)">
       <defs>
        <path id="DejaVuSans-4f" d="M 2522 4238 
Q 1834 4238 1429 3725 
Q 1025 3213 1025 2328 
Q 1025 1447 1429 934 
Q 1834 422 2522 422 
Q 3209 422 3611 934 
Q 4013 1447 4013 2328 
Q 4013 3213 3611 3725 
Q 3209 4238 2522 4238 
z
M 2522 4750 
Q 3503 4750 4090 4092 
Q 4678 3434 4678 2328 
Q 4678 1225 4090 567 
Q 3503 -91 2522 -91 
Q 1538 -91 948 565 
Q 359 1222 359 2328 
Q 359 3434 948 4092 
Q 1538 4750 2522 4750 
z
" transform="scale(0.015625)"/>
        <path id="DejaVuSans-63" d="M 3122 3366 
L 3122 2828 
Q 2878 2963 2633 3030 
Q 2388 3097 2138 3097 
Q 1578 3097 1268 2742 
Q 959 2388 959 1747 
Q 959 1106 1268 751 
Q 1578 397 2138 397 
Q 2388 397 2633 464 
Q 2878 531 3122 666 
L 3122 134 
Q 2881 22 2623 -34 
Q 2366 -91 2075 -91 
Q 1284 -91 818 406 
Q 353 903 353 1747 
Q 353 2603 823 3093 
Q 1294 3584 2113 3584 
Q 2378 3584 2631 3529 
Q 2884 3475 3122 3366 
z
" transform="scale(0.015625)"/>
        <path id="DejaVuSans-74" d="M 1172 4494 
L 1172 3500 
L 2356 3500 
L 2356 3053 
L 1172 3053 
L 1172 1153 
Q 1172 725 1289 603 
Q 1406 481 1766 481 
L 2356 481 
L 2356 0 
L 1766 0 
Q 1100 0 847 248 
Q 594 497 594 1153 
L 594 3053 
L 172 3053 
L 172 3500 
L 594 3500 
L 594 4494 
L 1172 4494 
z
" transform="scale(0.015625)"/>
       </defs>
       <use xlink:href="#DejaVuSans-4f"/>
       <use xlink:href="#DejaVuSans-63" transform="translate(78.710938 0)"/>
       <use xlink:href="#DejaVuSans-74" transform="translate(133.691406 0)"/>
      </g>
     </g>
    </g>
    <g id="xtick_3">
     <g id="line2d_5">
      <path d="M 261.616232 455.237812 
L 261.616232 38.397812 
" clip-path="url(#p306b11f9d6)" style="fill: none; stroke: #30363d; stroke-opacity: 0.25; stroke-width: 0.5; stroke-linecap: square"/>
     </g>
     <g id="line2d_6">
      <g>
       <use xlink:href="#m86c48d97b6" x="261.616232" y="455.237812" style="fill: #c9d1d9; stroke: #c9d1d9; stroke-width: 0.8"/>
      </g>
     </g>
     <g id="text_3">
      <!-- Nov -->
      <g style="fill: #c9d1d9" transform="translate(251.856857 469.83625) scale(0.1 -0.1)">
       <defs>
        <path id="DejaVuSans-4e" d="M 628 4666 
L 1478 4666 
L 3547 763 
L 3547 4666 
L 4159 4666 
L 4159 0 
L 3309 0 
L 1241 3903 
L 1241 0 
L 628 0 
L 628 4666 
z
" transform="scale(0.015625)"/>
        <path id="DejaVuSans-6f" d="M 1959 3097 
Q 1497 3097 1228 2736 
Q 959 2375 959 1747 
Q 959 1119 1226 758 
Q 1494 397 1959 397 
Q 2419 397 2687 759 
Q 2956 1122 2956 1747 
Q 2956 2369 2687 2733 
Q 2419 3097 1959 3097 
z
M 1959 3584 
Q 2709 3584 3137 3096 
Q 3566 2609 3566 1747 
Q 3566 888 3137 398 
Q 2709 -91 1959 -91 
Q 1206 -91 779 398 
Q 353 888 353 1747 
Q 353 2609 779 3096 
Q 1206 3584 1959 3584 
z
" transform="scale(0.015625)"/>
        <path id="DejaVuSans-76" d="M 191 3500 
L 800 3500 
L 1894 563 
L 2988 3500 
L 3597 3500 
L 2284 0 
L 1503 0 
L 191 3500 
z
" transform="scale(0.015625)"/>
       </defs>
       <use xlink:href="#DejaVuSans-4e"/>
       <use xlink:href="#DejaVuSans-6f" transform="translate(74.804688 0)"/>
       <use xlink:href="#DejaVuSans-76" transform="translate(135.986328 0)"/>
      </g>
     </g>
    </g>
    <g id="xtick_4">
     <g id="line2d_7">
      <path d="M 347.944973 455.237812 
L 347.944973 38.397812 
" clip-path="url(#p306b11f9d6)" style="fill: none; stroke: #30363d; stroke-opacity: 0.25; stroke-width: 0.5; stroke-linecap: square"/>
     </g>
     <g id="line2d_8">
      <g>
       <use xlink:href="#m86c48d97b6" x="347.944973" y="455.237812" style="fill: #c9d1d9; stroke: #c9d1d9; stroke-width: 0.8"/>
      </g>
     </g>
     <g id="text_4">
      <!-- Dec -->
      <g style="fill: #c9d1d9" transform="translate(338.269192 469.83625) scale(0.1 -0.1)">
       <defs>
        <path id="DejaVuSans-44" d="M 1259 4147 
L 1259 519 
L 2022 519 
Q 2988 519 3436 956 
Q 3884 1394 3884 2338 
Q 3884 3275 3436 3711 
Q 2988 4147 2022 4147 
L 1259 4147 
z
M 628 4666 
L 1925 4666 
Q 3281 4666 3915 4102 
Q 4550 3538 4550 2338 
Q 4550 1131 3912 565 
Q 3275 0 1925 0 
L 628 0 
L 628 4666 
z
" transform="scale(0.015625)"/>
       </defs>
       <use xlink:href="#DejaVuSans-44"/>
       <use xlink:href="#DejaVuSans-65" transform="translate(77.001953 0)"/>
       <use xlink:href="#DejaVuSans-63" transform="translate(138.525391 0)"/>
      </g>
     </g>
    </g>
    <g id="xtick_5">
     <g id="line2d_9">
      <path d="M 437.151338 455.237812 
L 437.151338 38.397812 
" clip-path="url(#p306b11f9d6)" style="fill: none; stroke: #30363d; stroke-opacity: 0.25; stroke-width: 0.5; stroke-linecap: square"/>
     </g>
     <g id="line2d_10">
      <g>
       <use xlink:href="#m86c48d97b6" x="437.151338" y="455.237812" style="fill: #c9d1d9; stroke: #c9d1d9; stroke-width: 0.8"/>
      </g>
     </g>
     <g id="text_5">
      <!-- 2026 -->
      <g style="fill: #c9d1d9" transform="translate(424.426338 469.83625) scale(0.1 -0.1)">
       <defs>
        <path id="DejaVuSans-32" d="M 1228 531 
L 3431 531 
L 3431 0 
L 469 0 
L 469 531 
Q 828 903 1448 1529 
Q 2069 2156 2228 2338 
Q 2531 2678 2651 2914 
Q 2772 3150 2772 3378 
Q 2772 3750 2511 3984 
Q 2250 4219 1831 4219 
Q 1534 4219 1204 4116 
Q 875 4013 500 3803 
L 500 4441 
Q 881 4594 1212 4672 
Q 1544 4750 1819 4750 
Q 2544 4750 2975 4387 
Q 3406 4025 3406 3419 
Q 3406 3131 3298 2873 
Q 3191 2616 2906 2266 
Q 2828 2175 2409 1742 
Q 1991 1309 1228 531 
z
" transform="scale(0.015625)"/>
        <path id="DejaVuSans-30" d="M 2034 4250 
Q 1547 4250 1301 3770 
Q 1056 3291 1056 2328 
Q 1056 1369 1301 889 
Q 1547 409 2034 409 
Q 2525 409 2770 889 
Q 3016 1369 3016 2328 
Q 3016 3291 2770 3770 
Q 2525 4250 2034 4250 
z
M 2034 4750 
Q 2819 4750 3233 4129 
Q 3647 3509 3647 2328 
Q 3647 1150 3233 529 
Q 2819 -91 2034 -91 
Q 1250 -91 836 529 
Q 422 1150 422 2328 
Q 422 3509 836 4129 
Q 1250 4750 2034 4750 
z
" transform="scale(0.015625)"/>
        <path id="DejaVuSans-36" d="M 2113 2584 
Q 1688 2584 1439 2293 
Q 1191 2003 1191 1497 
Q 1191 994 1439 701 
Q 1688 409 2113 409 
Q 2538 409 2786 701 
Q 3034 994 3034 1497 
Q 3034 2003 2786 2293 
Q 2538 2584 2113 2584 
z
M 3366 4563 
L 3366 3988 
Q 3128 4100 2886 4159 
Q 2644 4219 2406 4219 
Q 1781 4219 1451 3797 
Q 1122 3375 1075 2522 
Q 1259 2794 1537 2939 
Q 1816 3084 2150 3084 
Q 2853 3084 3261 2657 
Q 3669 2231 3669 1497 
Q 3669 778 3244 343 
Q 2819 -91 2113 -91 
Q 1303 -91 875 529 
Q 447 1150 447 2328 
Q 447 3434 972 4092 
Q 1497 4750 2381 4750 
Q 2619 4750 2861 4703 
Q 3103 4656 3366 4563 
z
" transform="scale(0.015625)"/>
       </defs>
       <use xlink:href="#DejaVuSans-32"/>
       <use xlink:href="#DejaVuSans-30" transform="translate(63.623047 0)"/>
       <use xlink:href="#DejaVuSans-32" transform="translate(127.246094 0)"/>
       <use xlink:href="#DejaVuSans-36" transform="translate(190.869141 0)"/>
      </g>
     </g>
    </g>
    <g id="xtick_6">
     <g id="line2d_11">
      <path d="M 526.357704 455.237812 
L 526.357704 38.397812 
" clip-path="url(#p306b11f9d6)" style="fill: none; stroke: #30363d; stroke-opacity: 0.25; stroke-width: 0.5; stroke-linecap: square"/>
     </g>
     <g id="line2d_12">
      <g>
       <use xlink:href="#m86c48d97b6" x="526.357704" y="455.237812" style="fill: #c9d1d9; stroke: #c9d1d9; stroke-width: 0.8"/>
      </g>
     </g>
     <g id="text_6">
      <!-- Feb -->
      <g style="fill: #c9d1d9" transform="translate(517.506142 469.83625) scale(0.1 -0.1)">
       <defs>
        <path id="DejaVuSans-46" d="M 628 4666 
L 3309 4666 
L 3309 4134 
L 1259 4134 
L 1259 2759 
L 3109 2759 
L 3109 2228 
L 1259 2228 
L 1259 0 
L 628 0 
L 628 4666 
z
" transform="scale(0.015625)"/>
        <path id="DejaVuSans-62" d="M 3116 1747 
Q 3116 2381 2855 2742 
Q 2594 3103 2138 3103 
Q 1681 3103 1420 2742 
Q 1159 2381 1159 1747 
Q 1159 1113 1420 752 
Q 1681 391 2138 391 
Q 2594 391 2855 752 
Q 3116 1113 3116 1747 
z
M 1159 2969 
Q 1341 3281 1617 3432 
Q 1894 3584 2278 3584 
Q 2916 3584 3314 3078 
Q 3713 2572 3713 1747 
Q 3713 922 3314 415 
Q 2916 -91 2278 -91 
Q 1894 -91 1617 61 
Q 1341 213 1159 525 
L 1159 0 
L 581 0 
L 581 4863 
L 1159 4863 
L 1159 2969 
z
" transform="scale(0.015625)"/>
       </defs>
       <use xlink:href="#DejaVuSans-46"/>
       <use xlink:href="#DejaVuSans-65" transform="translate(52.019531 0)"/>
       <use xlink:href="#DejaVuSans-62" transform="translate(113.542969 0)"/>
      </g>
     </g>
    </g>
    <g id="xtick_7">
     <g id="line2d_13">
      <path d="M 606.931196 455.237812 
L 606.931196 38.397812 
" clip-path="url(#p306b11f9d6)" style="fill: none; stroke: #30363d; stroke-opacity: 0.25; stroke-width: 0.5; stroke-linecap: square"/>
     </g>
     <g id="line2d_14">
      <g>
       <use xlink:href="#m86c48d97b6" x="606.931196" y="455.237812" style="fill: #c9d1d9; stroke: #c9d1d9; stroke-width: 0.8"/>
      </g>
     </g>
     <g id="text_7">
      <!-- Mar -->
      <g style="fill: #c9d1d9" transform="translate(597.497602 469.83625) scale(0.1 -0.1)">
       <defs>
        <path id="DejaVuSans-4d" d="M 628 4666 
L 1569 4666 
L 2759 1491 
L 3956 4666 
L 4897 4666 
L 4897 0 
L 4281 0 
L 4281 4097 
L 3078 897 
L 2444 897 
L 1241 4097 
L 1241 0 
L 628 0 
L 628 4666 
z
" transform="scale(0.015625)"/>
        <path id="DejaVuSans-61" d="M 2194 1759 
Q 1497 1759 1228 1600 
Q 959 1441 959 1056 
Q 959 750 1161 570 
Q 1363 391 1709 391 
Q 2188 391 2477 730 
Q 2766 1069 2766 1631 
L 2766 1759 
L 2194 1759 
z
M 3341 1997 
L 3341 0 
L 2766 0 
L 2766 531 
Q 2569 213 2275 61 
Q 1981 -91 1556 -91 
Q 1019 -91 701 211 
Q 384 513 384 1019 
Q 384 1609 779 1909 
Q 1175 2209 1959 2209 
L 2766 2209 
L 2766 2266 
Q 2766 2663 2505 2880 
Q 2244 3097 1772 3097 
Q 1472 3097 1187 3025 
Q 903 2953 641 2809 
L 641 3341 
Q 956 3463 1253 3523 
Q 1550 3584 1831 3584 
Q 2591 3584 2966 3190 
Q 3341 2797 3341 1997 
z
" transform="scale(0.015625)"/>
        <path id="DejaVuSans-72" d="M 2631 2963 
Q 2534 3019 2420 3045 
Q 2306 3072 2169 3072 
Q 1681 3072 1420 2755 
Q 1159 2438 1159 1844 
L 1159 0 
L 581 0 
L 581 3500 
L 1159 3500 
L 1159 2956 
Q 1341 3275 1631 3429 
Q 1922 3584 2338 3584 
Q 2397 3584 2469 3576 
Q 2541 3569 2628 3553 
L 2631 2963 
z
" transform="scale(0.015625)"/>
       </defs>
       <use xlink:href="#DejaVuSans-4d"/>
       <use xlink:href="#DejaVuSans-61" transform="translate(86.279297 0)"/>
       <use xlink:href="#DejaVuSans-72" transform="translate(147.558594 0)"/>
      </g>
     </g>
    </g>
    <g id="xtick_8">
     <g id="line2d_15">
      <path d="M 696.137561 455.237812 
L 696.137561 38.397812 
" clip-path="url(#p306b11f9d6)" style="fill: none; stroke: #30363d; stroke-opacity: 0.25; stroke-width: 0.5; stroke-linecap: square"/>
     </g>
     <g id="line2d_16">
      <g>
       <use xlink:href="#m86c48d97b6" x="696.137561" y="455.237812" style="fill: #c9d1d9; stroke: #c9d1d9; stroke-width: 0.8"/>
      </g>
     </g>
     <g id="text_8">
      <!-- Apr -->
      <g style="fill: #c9d1d9" transform="translate(687.487561 469.83625) scale(0.1 -0.1)">
       <defs>
        <path id="DejaVuSans-41" d="M 2188 4044 
L 1331 1722 
L 3047 1722 
L 2188 4044 
z
M 1831 4666 
L 2547 4666 
L 4325 0 
L 3669 0 
L 3244 1197 
L 1141 1197 
L 716 0 
L 50 0 
L 1831 4666 
z
" transform="scale(0.015625)"/>
       </defs>
       <use xlink:href="#DejaVuSans-41"/>
       <use xlink:href="#DejaVuSans-70" transform="translate(68.408203 0)"/>
       <use xlink:href="#DejaVuSans-72" transform="translate(131.884766 0)"/>
      </g>
     </g>
    </g>
    <g id="xtick_9">
     <g id="line2d_17">
      <path d="M 782.466302 455.237812 
L 782.466302 38.397812 
" clip-path="url(#p306b11f9d6)" style="fill: none; stroke: #30363d; stroke-opacity: 0.25; stroke-width: 0.5; stroke-linecap: square"/>
     </g>
     <g id="line2d_18">
      <g>
       <use xlink:href="#m86c48d97b6" x="782.466302" y="455.237812" style="fill: #c9d1d9; stroke: #c9d1d9; stroke-width: 0.8"/>
      </g>
     </g>
     <g id="text_9">
      <!-- May -->
      <g style="fill: #c9d1d9" transform="translate(772.128802 469.83625) scale(0.1 -0.1)">
       <defs>
        <path id="DejaVuSans-79" d="M 2059 -325 
Q 1816 -950 1584 -1140 
Q 1353 -1331 966 -1331 
L 506 -1331 
L 506 -850 
L 844 -850 
Q 1081 -850 1212 -737 
Q 1344 -625 1503 -206 
L 1606 56 
L 191 3500 
L 800 3500 
L 1894 763 
L 2988 3500 
L 3597 3500 
L 2059 -325 
z
" transform="scale(0.015625)"/>
       </defs>
       <use xlink:href="#DejaVuSans-4d"/>
       <use xlink:href="#DejaVuSans-61" transform="translate(86.279297 0)"/>
       <use xlink:href="#DejaVuSans-79" transform="translate(147.558594 0)"/>
      </g>
     </g>
    </g>
    <g id="text_10">
     <!-- Date -->
     <g style="fill: #c9d1d9" transform="translate(434.285313 485.034062) scale(0.12 -0.12)">
      <use xlink:href="#DejaVuSans-44"/>
      <use xlink:href="#DejaVuSans-61" transform="translate(77.001953 0)"/>
      <use xlink:href="#DejaVuSans-74" transform="translate(138.28125 0)"/>
      <use xlink:href="#DejaVuSans-65" transform="translate(177.490234 0)"/>
     </g>
    </g>
   </g>
   <g id="matplotlib.axis_2">
    <g id="ytick_1">
     <g id="line2d_19">
      <path d="M 48.90125 455.237812 
L 848.35125 455.237812 
" clip-path="url(#p306b11f9d6)" style="fill: none; stroke: #30363d; stroke-opacity: 0.25; stroke-width: 0.5; stroke-linecap: square"/>
     </g>
     <g id="line2d_20">
      <defs>
       <path id="meba7aad067" d="M 0 0 
L -3.5 0 
" style="stroke: #c9d1d9; stroke-width: 0.8"/>
      </defs>
      <g>
       <use xlink:href="#meba7aad067" x="48.90125" y="455.237812" style="fill: #c9d1d9; stroke: #c9d1d9; stroke-width: 0.8"/>
      </g>
     </g>
     <g id="text_11">
      <!-- 0 -->
      <g style="fill: #c9d1d9" transform="translate(35.53875 459.037031) scale(0.1 -0.1)">
       <use xlink:href="#DejaVuSans-30"/>
      </g>
     </g>
    </g>
    <g id="ytick_2">
     <g id="line2d_21">
      <path d="M 48.90125 399.659146 
L 848.35125 399.659146 
" clip-path="url(#p306b11f9d6)" style="fill: none; stroke: #30363d; stroke-opacity: 0.25; stroke-width: 0.5; stroke-linecap: square"/>
     </g>
     <g id="line2d_22">
      <g>
       <use xlink:href="#meba7aad067" x="48.90125" y="399.659146" style="fill: #c9d1d9; stroke: #c9d1d9; stroke-width: 0.8"/>
      </g>
     </g>
     <g id="text_12">
      <!-- 100 -->
      <g style="fill: #c9d1d9" transform="translate(22.81375 403.458365) scale(0.1 -0.1)">
       <defs>
        <path id="DejaVuSans-31" d="M 794 531 
L 1825 531 
L 1825 4091 
L 703 3866 
L 703 4441 
L 1819 4666 
L 2450 4666 
L 2450 531 
L 3481 531 
L 3481 0 
L 794 0 
L 794 531 
z
" transform="scale(0.015625)"/>
       </defs>
       <use xlink:href="#DejaVuSans-31"/>
       <use xlink:href="#DejaVuSans-30" transform="translate(63.623047 0)"/>
       <use xlink:href="#DejaVuSans-30" transform="translate(127.246094 0)"/>
      </g>
     </g>
    </g>
    <g id="ytick_3">
     <g id="line2d_23">
      <path d="M 48.90125 344.080479 
L 848.35125 344.080479 
" clip-path="url(#p306b11f9d6)" style="fill: none; stroke: #30363d; stroke-opacity: 0.25; stroke-width: 0.5; stroke-linecap: square"/>
     </g>
     <g id="line2d_24">
      <g>
       <use xlink:href="#meba7aad067" x="48.90125" y="344.080479" style="fill: #c9d1d9; stroke: #c9d1d9; stroke-width: 0.8"/>
      </g>
     </g>
     <g id="text_13">
      <!-- 200 -->
      <g style="fill: #c9d1d9" transform="translate(22.81375 347.879698) scale(0.1 -0.1)">
       <use xlink:href="#DejaVuSans-32"/>
       <use xlink:href="#DejaVuSans-30" transform="translate(63.623047 0)"/>
       <use xlink:href="#DejaVuSans-30" transform="translate(127.246094 0)"/>
      </g>
     </g>
    </g>
    <g id="ytick_4">
     <g id="line2d_25">
      <path d="M 48.90125 288.501812 
L 848.35125 288.501812 
" clip-path="url(#p306b11f9d6)" style="fill: none; stroke: #30363d; stroke-opacity: 0.25; stroke-width: 0.5; stroke-linecap: square"/>
     </g>
     <g id="line2d_26">
      <g>
       <use xlink:href="#meba7aad067" x="48.90125" y="288.501812" style="fill: #c9d1d9; stroke: #c9d1d9; stroke-width: 0.8"/>
      </g>
     </g>
     <g id="text_14">
      <!-- 300 -->
      <g style="fill: #c9d1d9" transform="translate(22.81375 292.301031) scale(0.1 -0.1)">
       <defs>
        <path id="DejaVuSans-33" d="M 2597 2516 
Q 3050 2419 3304 2112 
Q 3559 1806 3559 1356 
Q 3559 666 3084 287 
Q 2609 -91 1734 -91 
Q 1441 -91 1130 -33 
Q 819 25 488 141 
L 488 750 
Q 750 597 1062 519 
Q 1375 441 1716 441 
Q 2309 441 2620 675 
Q 2931 909 2931 1356 
Q 2931 1769 2642 2001 
Q 2353 2234 1838 2234 
L 1294 2234 
L 1294 2753 
L 1863 2753 
Q 2328 2753 2575 2939 
Q 2822 3125 2822 3475 
Q 2822 3834 2567 4026 
Q 2313 4219 1838 4219 
Q 1578 4219 1281 4162 
Q 984 4106 628 3988 
L 628 4550 
Q 988 4650 1302 4700 
Q 1616 4750 1894 4750 
Q 2613 4750 3031 4423 
Q 3450 4097 3450 3541 
Q 3450 3153 3228 2886 
Q 3006 2619 2597 2516 
z
" transform="scale(0.015625)"/>
       </defs>
       <use xlink:href="#DejaVuSans-33"/>
       <use xlink:href="#DejaVuSans-30" transform="translate(63.623047 0)"/>
       <use xlink:href="#DejaVuSans-30" transform="translate(127.246094 0)"/>
      </g>
     </g>
    </g>
    <g id="ytick_5">
     <g id="line2d_27">
      <path d="M 48.90125 232.923146 
L 848.35125 232.923146 
" clip-path="url(#p306b11f9d6)" style="fill: none; stroke: #30363d; stroke-opacity: 0.25; stroke-width: 0.5; stroke-linecap: square"/>
     </g>
     <g id="line2d_28">
      <g>
       <use xlink:href="#meba7aad067" x="48.90125" y="232.923146" style="fill: #c9d1d9; stroke: #c9d1d9; stroke-width: 0.8"/>
      </g>
     </g>
     <g id="text_15">
      <!-- 400 -->
      <g style="fill: #c9d1d9" transform="translate(22.81375 236.722365) scale(0.1 -0.1)">
       <defs>
        <path id="DejaVuSans-34" d="M 2419 4116 
L 825 1625 
L 2419 1625 
L 2419 4116 
z
M 2253 4666 
L 3047 4666 
L 3047 1625 
L 3713 1625 
L 3713 1100 
L 3047 1100 
L 3047 0 
L 2419 0 
L 2419 1100 
L 313 1100 
L 313 1709 
L 2253 4666 
z
" transform="scale(0.015625)"/>
       </defs>
       <use xlink:href="#DejaVuSans-34"/>
       <use xlink:href="#DejaVuSans-30" transform="translate(63.623047 0)"/>
       <use xlink:href="#DejaVuSans-30" transform="translate(127.246094 0)"/>
      </g>
     </g>
    </g>
    <g id="ytick_6">
     <g id="line2d_29">
      <path d="M 48.90125 177.344479 
L 848.35125 177.344479 
" clip-path="url(#p306b11f9d6)" style="fill: none; stroke: #30363d; stroke-opacity: 0.25; stroke-width: 0.5; stroke-linecap: square"/>
     </g>
     <g id="line2d_30">
      <g>
       <use xlink:href="#meba7aad067" x="48.90125" y="177.344479" style="fill: #c9d1d9; stroke: #c9d1d9; stroke-width: 0.8"/>
      </g>
     </g>
     <g id="text_16">
      <!-- 500 -->
      <g style="fill: #c9d1d9" transform="translate(22.81375 181.143698) scale(0.1 -0.1)">
       <defs>
        <path id="DejaVuSans-35" d="M 691 4666 
L 3169 4666 
L 3169 4134 
L 1269 4134 
L 1269 2991 
Q 1406 3038 1543 3061 
Q 1681 3084 1819 3084 
Q 2600 3084 3056 2656 
Q 3513 2228 3513 1497 
Q 3513 744 3044 326 
Q 2575 -91 1722 -91 
Q 1428 -91 1123 -41 
Q 819 9 494 109 
L 494 744 
Q 775 591 1075 516 
Q 1375 441 1709 441 
Q 2250 441 2565 725 
Q 2881 1009 2881 1497 
Q 2881 1984 2565 2268 
Q 2250 2553 1709 2553 
Q 1456 2553 1204 2497 
Q 953 2441 691 2322 
L 691 4666 
z
" transform="scale(0.015625)"/>
       </defs>
       <use xlink:href="#DejaVuSans-35"/>
       <use xlink:href="#DejaVuSans-30" transform="translate(63.623047 0)"/>
       <use xlink:href="#DejaVuSans-30" transform="translate(127.246094 0)"/>
      </g>
     </g>
    </g>
    <g id="ytick_7">
     <g id="line2d_31">
      <path d="M 48.90125 121.765812 
L 848.35125 121.765812 
" clip-path="url(#p306b11f9d6)" style="fill: none; stroke: #30363d; stroke-opacity: 0.25; stroke-width: 0.5; stroke-linecap: square"/>
     </g>
     <g id="line2d_32">
      <g>
       <use xlink:href="#meba7aad067" x="48.90125" y="121.765812" style="fill: #c9d1d9; stroke: #c9d1d9; stroke-width: 0.8"/>
      </g>
     </g>
     <g id="text_17">
      <!-- 600 -->
      <g style="fill: #c9d1d9" transform="translate(22.81375 125.565031) scale(0.1 -0.1)">
       <use xlink:href="#DejaVuSans-36"/>
       <use xlink:href="#DejaVuSans-30" transform="translate(63.623047 0)"/>
       <use xlink:href="#DejaVuSans-30" transform="translate(127.246094 0)"/>
      </g>
     </g>
    </g>
    <g id="ytick_8">
     <g id="line2d_33">
      <path d="M 48.90125 66.187146 
L 848.35125 66.187146 
" clip-path="url(#p306b11f9d6)" style="fill: none; stroke: #30363d; stroke-opacity: 0.25; stroke-width: 0.5; stroke-linecap: square"/>
     </g>
     <g id="line2d_34">
      <g>
       <use xlink:href="#meba7aad067" x="48.90125" y="66.187146" style="fill: #c9d1d9; stroke: #c9d1d9; stroke-width: 0.8"/>
      </g>
     </g>
     <g id="text_18">
      <!-- 700 -->
      <g style="fill: #c9d1d9" transform="translate(22.81375 69.986365) scale(0.1 -0.1)">
       <defs>
        <path id="DejaVuSans-37" d="M 525 4666 
L 3525 4666 
L 3525 4397 
L 1831 0 
L 1172 0 
L 2766 4134 
L 525 4134 
L 525 4666 
z
" transform="scale(0.015625)"/>
       </defs>
       <use xlink:href="#DejaVuSans-37"/>
       <use xlink:href="#DejaVuSans-30" transform="translate(63.623047 0)"/>
       <use xlink:href="#DejaVuSans-30" transform="translate(127.246094 0)"/>
      </g>
     </g>
    </g>
    <g id="text_19">
     <!-- Count -->
     <g style="fill: #c9d1d9" transform="translate(16.318125 264.635937) rotate(-90) scale(0.12 -0.12)">
      <defs>
       <path id="DejaVuSans-43" d="M 4122 4306 
L 4122 3641 
Q 3803 3938 3442 4084 
Q 3081 4231 2675 4231 
Q 1875 4231 1450 3742 
Q 1025 3253 1025 2328 
Q 1025 1406 1450 917 
Q 1875 428 2675 428 
Q 3081 428 3442 575 
Q 3803 722 4122 1019 
L 4122 359 
Q 3791 134 3420 21 
Q 3050 -91 2638 -91 
Q 1578 -91 968 557 
Q 359 1206 359 2328 
Q 359 3453 968 4101 
Q 1578 4750 2638 4750 
Q 3056 4750 3426 4639 
Q 3797 4528 4122 4306 
z
" transform="scale(0.015625)"/>
       <path id="DejaVuSans-75" d="M 544 1381 
L 544 3500 
L 1119 3500 
L 1119 1403 
Q 1119 906 1312 657 
Q 1506 409 1894 409 
Q 2359 409 2629 706 
Q 2900 1003 2900 1516 
L 2900 3500 
L 3475 3500 
L 3475 0 
L 2900 0 
L 2900 538 
Q 2691 219 2414 64 
Q 2138 -91 1772 -91 
Q 1169 -91 856 284 
Q 544 659 544 1381 
z
M 1991 3584 
L 1991 3584 
z
" transform="scale(0.015625)"/>
       <path id="DejaVuSans-6e" d="M 3513 2113 
L 3513 0 
L 2938 0 
L 2938 2094 
Q 2938 2591 2744 2837 
Q 2550 3084 2163 3084 
Q 1697 3084 1428 2787 
Q 1159 2491 1159 1978 
L 1159 0 
L 581 0 
L 581 3500 
L 1159 3500 
L 1159 2956 
Q 1366 3272 1645 3428 
Q 1925 3584 2291 3584 
Q 2894 3584 3203 3211 
Q 3513 2838 3513 2113 
z
" transform="scale(0.015625)"/>
      </defs>
      <use xlink:href="#DejaVuSans-43"/>
      <use xlink:href="#DejaVuSans-6f" transform="translate(69.824219 0)"/>
      <use xlink:href="#DejaVuSans-75" transform="translate(131.005859 0)"/>
      <use xlink:href="#DejaVuSans-6e" transform="translate(194.384766 0)"/>
      <use xlink:href="#DejaVuSans-74" transform="translate(257.763672 0)"/>
     </g>
    </g>
   </g>
   <g id="line2d_35">
    <path d="M 85.239886 454.682026 
L 85.295008 454.682026 
L 85.427998 454.126239 
L 85.502936 454.126239 
L 85.687217 257.933546 
L 88.005337 257.933546 
L 88.015928 261.268266 
L 90.820413 261.268266 
L 90.956135 260.712479 
L 91.34548 260.712479 
L 91.661019 260.156692 
L 93.616239 259.600906 
L 93.65484 260.156692 
L 93.725982 259.600906 
L 99.803298 259.600906 
L 103.456017 260.712479 
L 103.999501 259.600906 
L 104.396341 259.600906 
L 105.396515 259.045119 
L 105.81497 256.821972 
L 106.629764 256.821972 
L 107.817117 260.712479 
L 107.894153 256.821972 
L 108.805268 256.266186 
L 111.176477 256.266186 
L 111.801928 255.710399 
L 112.730961 255.710399 
L 113.035876 254.598826 
L 118.770675 254.598826 
L 119.193027 253.487252 
L 119.214676 252.375679 
L 121.038137 252.375679 
L 123.726918 251.264106 
L 125.137387 251.264106 
L 125.158736 250.708319 
L 128.397929 250.708319 
L 129.201465 247.929386 
L 131.744466 247.929386 
L 131.762118 247.373599 
L 146.004196 247.373599 
L 148.666398 246.817812 
L 148.75729 247.373599 
L 151.518344 246.817812 
L 161.12658 246.817812 
L 165.783569 246.262026 
L 165.873528 245.706239 
L 166.094746 245.150452 
L 168.72191 245.150452 
L 169.840054 244.594666 
L 174.451148 244.594666 
L 174.626203 247.373599 
L 174.634796 245.150452 
L 174.858978 245.150452 
L 175.972192 242.927306 
L 181.42256 242.927306 
L 185.599745 242.371519 
L 190.242413 242.371519 
L 190.446145 241.815732 
L 202.510087 241.815732 
L 203.024962 241.259946 
L 205.954244 241.259946 
L 205.974894 240.148372 
L 211.55622 240.148372 
L 211.669427 236.257866 
L 221.771321 236.257866 
L 221.774352 235.702079 
L 222.066911 235.702079 
L 223.340126 235.146292 
L 224.634025 235.146292 
L 225.045552 234.590506 
L 225.086718 235.146292 
L 226.029074 234.590506 
L 226.03337 234.034719 
L 226.055385 234.590506 
L 226.599736 234.034719 
L 231.558409 234.034719 
L 233.100104 233.478932 
L 234.92946 233.478932 
L 238.036595 232.923146 
L 240.978067 232.923146 
L 243.250658 231.811572 
L 248.224086 231.811572 
L 251.117165 230.699999 
L 251.932292 231.255786 
L 255.970259 231.255786 
L 260.525266 229.032639 
L 267.318492 229.032639 
L 269.425319 228.476852 
L 306.971494 228.476852 
L 307.27471 227.921066 
L 320.966942 227.921066 
L 321.195719 227.365279 
L 344.494388 227.365279 
L 349.624686 226.809492 
L 349.654362 227.365279 
L 353.326897 225.697919 
L 358.716548 225.697919 
L 361.659486 225.142132 
L 361.664315 224.586346 
L 367.80478 224.586346 
L 370.008661 225.142132 
L 370.800907 224.586346 
L 381.077291 224.586346 
L 381.51463 225.142132 
L 382.315769 224.586346 
L 382.591075 222.363199 
L 387.300421 222.363199 
L 387.304484 221.807412 
L 401.714989 221.807412 
L 402.554163 221.251626 
L 405.32361 221.251626 
L 405.593787 220.695839 
L 419.09854 220.695839 
L 419.116891 220.140052 
L 422.494637 220.140052 
L 422.499666 219.584266 
L 423.319289 219.584266 
L 423.362087 219.028479 
L 424.63487 219.028479 
L 424.834838 218.472692 
L 427.55899 218.472692 
L 427.973081 217.361119 
L 429.472743 215.137972 
L 433.099183 215.137972 
L 433.366929 212.359039 
L 434.582959 212.359039 
L 435.179766 211.247466 
L 438.255094 211.247466 
L 439.264194 210.691679 
L 442.152743 210.691679 
L 442.539891 210.135892 
L 450.385448 210.135892 
L 450.578755 209.580106 
L 451.304389 209.580106 
L 452.430959 209.024319 
L 465.120618 209.024319 
L 465.234624 208.468532 
L 465.641488 208.468532 
L 466.490854 207.356959 
L 467.681671 207.356959 
L 467.968001 206.801172 
L 468.243874 206.801172 
L 468.348554 206.245386 
L 471.533125 206.245386 
L 472.075278 205.689599 
L 474.84719 205.689599 
L 475.02491 205.133812 
L 476.543256 205.133812 
L 476.640543 204.578026 
L 481.359214 204.578026 
L 481.460664 204.022239 
L 484.212659 204.022239 
L 485.131834 201.799092 
L 486.150926 201.799092 
L 486.151991 201.243306 
L 490.289909 201.243306 
L 491.048516 200.687519 
L 494.216868 200.687519 
L 494.840919 200.131732 
L 495.075659 200.131732 
L 495.685422 199.575946 
L 497.243003 199.575946 
L 497.423021 199.020159 
L 501.32943 199.020159 
L 502.336366 198.464372 
L 502.409705 197.908586 
L 502.735703 197.908586 
L 503.764653 195.685439 
L 506.955719 195.685439 
L 506.9787 195.129652 
L 510.01566 195.129652 
L 510.305055 194.573866 
L 510.650303 194.573866 
L 510.997583 194.018079 
L 511.070023 194.573866 
L 511.330075 194.018079 
L 512.485455 194.018079 
L 512.496512 193.462292 
L 512.803326 193.462292 
L 512.937682 192.906506 
L 513.866049 192.350719 
L 520.32525 192.350719 
L 521.334817 191.794932 
L 522.010626 191.794932 
L 522.558906 191.239146 
L 523.113549 191.794932 
L 525.39723 191.794932 
L 525.495716 190.683359 
L 528.77411 190.683359 
L 530.046126 189.015999 
L 543.852963 189.015999 
L 544.655401 188.460212 
L 565.967009 188.460212 
L 566.097934 187.904426 
L 597.413119 187.904426 
L 597.551072 187.348639 
L 597.560964 186.792852 
L 597.570789 187.348639 
L 602.134921 187.348639 
L 603.165437 186.792852 
L 621.146562 186.792852 
L 624.846674 186.237066 
L 624.882645 185.681279 
L 625.188958 185.681279 
L 626.148433 185.125492 
L 655.006945 185.125492 
L 655.287048 184.569706 
L 680.950064 184.569706 
L 684.244079 184.013919 
L 686.258982 184.013919 
L 686.477635 183.458132 
L 687.878079 182.902346 
L 691.805404 182.902346 
L 693.459439 182.346559 
L 695.19021 182.346559 
L 695.324999 181.790772 
L 698.171782 181.790772 
L 698.511835 181.234986 
L 698.579146 180.679199 
L 703.647596 180.679199 
L 703.667246 180.123412 
L 707.982784 180.123412 
L 707.992309 179.567626 
L 709.454502 179.011839 
L 712.050293 179.011839 
L 713.918284 178.456052 
L 715.590005 178.456052 
L 718.053904 175.121332 
L 720.930463 175.121332 
L 720.943785 172.342399 
L 735.407213 172.342399 
L 735.408712 171.786612 
L 735.658872 171.230826 
L 737.044195 171.230826 
L 737.345513 170.675039 
L 741.889463 170.675039 
L 742.939896 170.119252 
L 743.11272 170.675039 
L 751.240078 170.675039 
L 751.241909 170.119252 
L 754.523367 170.119252 
L 755.865759 167.340319 
L 764.095266 167.340319 
L 764.183161 166.228746 
L 766.043825 164.561386 
L 767.910817 164.561386 
L 768.109686 164.005599 
L 775.958008 164.005599 
L 776.102322 163.449812 
L 783.982917 163.449812 
L 784.154575 162.894026 
L 786.326516 161.226666 
L 786.49481 160.670879 
L 807.890716 160.670879 
L 809.916411 157.891946 
L 812.012614 157.891946 
L 812.012614 157.891946 
" clip-path="url(#p306b11f9d6)" style="fill: none; stroke: #3fb950; stroke-width: 2; stroke-linecap: square"/>
   </g>
   <g id="line2d_36">
    <path d="M 85.239886 455.237812 
L 85.329979 453.570452 
L 85.427998 453.570452 
L 85.581171 372.981386 
L 86.861781 372.981386 
L 86.889725 370.758239 
L 88.290468 370.758239 
L 88.65137 369.090879 
L 89.142432 370.758239 
L 89.146062 369.090879 
L 89.552393 369.090879 
L 89.70943 367.979306 
L 93.722151 367.979306 
L 93.725982 367.423519 
L 93.748563 367.979306 
L 93.946067 367.423519 
L 94.003985 367.979306 
L 94.272331 367.423519 
L 95.566596 367.423519 
L 95.640268 366.867732 
L 95.840936 366.311946 
L 97.43079 366.311946 
L 99.24003 365.756159 
L 99.303711 365.200372 
L 99.792707 364.644586 
L 99.803298 364.088799 
L 103.456017 367.979306 
L 103.999501 366.311946 
L 104.396341 363.533012 
L 106.629764 363.533012 
L 107.817117 367.979306 
L 107.894153 363.533012 
L 129.590944 363.533012 
L 130.256728 362.977226 
L 131.762118 362.977226 
L 135.873591 362.421439 
L 136.875098 361.865652 
L 151.144986 361.865652 
L 151.518344 361.309866 
L 153.436561 360.754079 
L 154.655755 360.754079 
L 156.007172 360.198292 
L 156.043576 359.086719 
L 156.972542 358.530932 
L 157.596893 357.975146 
L 166.198127 357.975146 
L 167.912712 357.419359 
L 168.431051 357.419359 
L 168.72191 356.863572 
L 169.840054 356.863572 
L 170.950904 356.307786 
L 174.451148 356.307786 
L 174.626203 358.530932 
L 174.634796 356.307786 
L 175.972192 356.307786 
L 176.106448 355.751999 
L 177.999486 355.751999 
L 179.861982 355.196212 
L 179.907178 354.640426 
L 185.599745 354.640426 
L 188.000797 354.084639 
L 188.006859 353.528852 
L 195.996797 353.528852 
L 199.329712 352.973066 
L 201.830248 352.973066 
L 202.510087 352.417279 
L 206.32697 352.417279 
L 208.503973 351.861492 
L 208.623308 351.305706 
L 210.745789 351.305706 
L 210.992119 350.749919 
L 211.669427 350.194132 
L 213.181412 350.194132 
L 214.136024 349.638346 
L 215.886279 349.638346 
L 217.028603 349.082559 
L 219.465525 349.082559 
L 220.295739 347.970986 
L 226.599736 347.970986 
L 228.395054 347.415199 
L 230.50025 347.415199 
L 230.974991 346.859412 
L 231.120171 346.303626 
L 231.558409 345.747839 
L 238.807892 345.747839 
L 240.135197 345.192052 
L 240.978067 344.636266 
L 261.592818 344.636266 
L 266.220332 344.080479 
L 266.275619 343.524692 
L 269.425319 343.524692 
L 272.11743 342.968906 
L 276.875703 342.968906 
L 277.277771 342.413119 
L 285.381315 342.413119 
L 291.724812 341.857332 
L 291.785696 341.301546 
L 292.615011 341.301546 
L 294.295257 340.745759 
L 294.38898 339.078399 
L 294.462919 338.522612 
L 297.972655 337.966826 
L 298.182815 337.411039 
L 298.266579 336.299466 
L 298.58445 335.743679 
L 310.00549 335.743679 
L 313.250011 335.187892 
L 315.315373 334.632106 
L 316.933371 334.632106 
L 320.684841 334.076319 
L 320.966942 331.853172 
L 321.195719 331.853172 
L 321.735107 330.741599 
L 328.850867 330.185812 
L 329.077347 329.630026 
L 329.144158 329.074239 
L 330.647484 329.074239 
L 332.067079 328.518452 
L 332.230244 327.962666 
L 332.341053 326.851092 
L 333.280711 326.295306 
L 333.349687 325.739519 
L 335.064139 325.183732 
L 337.317745 324.627946 
L 337.478013 324.072159 
L 337.48141 323.516372 
L 337.934702 322.960586 
L 338.01477 322.404799 
L 341.283838 321.849012 
L 341.869887 321.293226 
L 355.632094 321.293226 
L 357.914344 320.737439 
L 358.122039 320.181652 
L 367.449406 320.181652 
L 367.80478 319.070079 
L 371.691005 319.070079 
L 372.864303 318.514292 
L 372.921623 317.402719 
L 373.222907 316.846932 
L 375.217894 316.291146 
L 375.262824 315.735359 
L 375.503625 315.179572 
L 375.750388 312.956426 
L 376.025261 312.956426 
L 376.035386 312.400639 
L 377.700845 311.844852 
L 378.355604 311.289066 
L 378.51404 310.733279 
L 381.51463 310.177492 
L 383.725938 310.177492 
L 384.493804 309.621706 
L 392.807775 309.621706 
L 395.562134 309.065919 
L 395.573092 308.510132 
L 396.06845 307.954346 
L 402.554163 307.954346 
L 404.373928 307.398559 
L 405.123575 306.842772 
L 405.32361 305.731199 
L 410.56988 305.731199 
L 410.927318 305.175412 
L 413.808207 305.175412 
L 415.187435 304.619626 
L 419.116891 304.619626 
L 421.492431 304.063839 
L 426.425659 304.063839 
L 427.031991 303.508052 
L 429.472743 303.508052 
L 430.137095 302.952266 
L 430.42529 302.396479 
L 430.56724 301.840692 
L 432.576348 301.840692 
L 432.633468 300.729119 
L 433.366929 300.729119 
L 433.848498 299.061759 
L 435.596156 299.061759 
L 435.81321 298.505972 
L 435.981704 298.505972 
L 436.818213 297.950186 
L 438.206368 297.950186 
L 438.255094 297.394399 
L 439.264194 297.394399 
L 439.509292 296.838612 
L 440.457743 296.838612 
L 441.909911 295.727039 
L 442.539891 295.727039 
L 444.976379 294.615466 
L 444.980043 294.059679 
L 445.445226 293.503892 
L 446.632113 292.948106 
L 446.81666 292.392319 
L 448.000017 291.836532 
L 449.93442 291.836532 
L 450.578755 290.724959 
L 452.937941 290.724959 
L 453.004919 290.169172 
L 453.677031 290.169172 
L 453.728622 289.613386 
L 454.097451 289.057599 
L 455.380791 289.057599 
L 455.478411 288.501812 
L 455.698262 288.501812 
L 455.817364 287.946026 
L 455.841511 287.946026 
L 455.946424 287.390239 
L 457.649152 287.390239 
L 458.006524 286.834452 
L 458.306609 286.834452 
L 458.485961 286.278666 
L 458.943983 286.278666 
L 459.2869 285.722879 
L 459.359207 285.167092 
L 459.457226 285.167092 
L 461.181037 284.611306 
L 462.471005 284.611306 
L 462.568658 284.055519 
L 467.657258 284.055519 
L 467.681671 283.499732 
L 467.968001 283.499732 
L 468.641778 282.388159 
L 470.360393 282.388159 
L 470.519762 280.720799 
L 470.566257 279.609226 
L 470.866642 279.053439 
L 472.075278 279.053439 
L 472.645307 278.497652 
L 473.197818 278.497652 
L 473.375971 277.941866 
L 474.23243 277.386079 
L 475.02491 277.386079 
L 476.618094 276.830292 
L 476.724074 276.274506 
L 477.127407 276.274506 
L 477.208107 275.718719 
L 478.624372 275.718719 
L 478.663706 275.162932 
L 485.53207 275.162932 
L 485.638182 274.607146 
L 485.842514 274.607146 
L 485.933105 273.495572 
L 486.817509 273.495572 
L 486.88885 272.939786 
L 487.00572 272.939786 
L 487.618281 272.383999 
L 487.772254 271.828212 
L 488.053588 271.828212 
L 488.291659 271.272426 
L 488.369261 270.716639 
L 491.820446 270.716639 
L 492.69156 270.160852 
L 492.863618 269.049279 
L 493.075643 268.493492 
L 493.429584 268.493492 
L 493.645306 267.937706 
L 498.598151 267.937706 
L 498.925115 266.270346 
L 499.601856 266.270346 
L 499.701207 265.714559 
L 502.345658 265.714559 
L 502.409705 264.602986 
L 505.585817 264.602986 
L 505.618723 264.047199 
L 507.148727 264.047199 
L 507.159018 263.491412 
L 507.90407 263.491412 
L 508.027634 262.935626 
L 510.192248 262.935626 
L 510.305055 262.379839 
L 510.448769 262.379839 
L 510.650303 261.824052 
L 511.059399 261.824052 
L 511.070023 261.268266 
L 511.330075 261.268266 
L 511.826166 260.712479 
L 515.833125 260.712479 
L 516.124351 260.156692 
L 517.31327 260.156692 
L 517.315468 259.600906 
L 526.405498 259.600906 
L 527.948325 259.045119 
L 527.993054 258.489332 
L 528.77411 257.933546 
L 529.961763 257.933546 
L 530.046126 256.821972 
L 530.260949 256.821972 
L 530.350375 256.266186 
L 533.504572 256.266186 
L 534.074168 255.710399 
L 539.530098 255.710399 
L 539.546884 255.154612 
L 541.328846 255.154612 
L 542.090384 254.598826 
L 550.477595 254.598826 
L 550.582275 253.487252 
L 553.880819 253.487252 
L 554.536911 252.931466 
L 555.239497 252.931466 
L 556.098388 252.375679 
L 561.775669 252.375679 
L 562.31932 251.819892 
L 562.790398 251.819892 
L 563.021374 251.264106 
L 564.829948 250.708319 
L 565.715284 250.708319 
L 566.003979 250.152532 
L 566.097934 250.152532 
L 568.638804 249.596746 
L 573.317042 249.596746 
L 573.68314 249.040959 
L 591.739869 249.040959 
L 592.399624 248.485172 
L 596.575277 248.485172 
L 596.726186 247.929386 
L 596.997429 247.929386 
L 597.079195 247.373599 
L 620.398446 247.373599 
L 621.146562 246.817812 
L 626.714399 246.817812 
L 627.923901 246.262026 
L 628.004967 245.706239 
L 630.901876 245.706239 
L 631.022077 245.150452 
L 640.405465 245.150452 
L 640.424682 244.594666 
L 648.34581 244.594666 
L 648.431073 244.038879 
L 648.945549 243.483092 
L 650.889344 243.483092 
L 650.893807 242.927306 
L 651.288815 242.371519 
L 654.207306 242.371519 
L 655.17151 241.815732 
L 661.394773 241.815732 
L 661.438603 240.704159 
L 700.886608 240.704159 
L 703.667246 240.148372 
L 707.165625 240.148372 
L 707.281862 239.592586 
L 722.791827 239.592586 
L 722.817872 239.036799 
L 739.014869 239.036799 
L 739.181831 238.481012 
L 740.145469 238.481012 
L 740.170581 237.925226 
L 740.388368 237.369439 
L 741.235569 236.257866 
L 741.3601 235.146292 
L 741.432074 234.034719 
L 741.649061 233.478932 
L 741.699253 232.923146 
L 741.889463 232.367359 
L 743.11272 232.367359 
L 743.264794 231.811572 
L 743.271955 231.255786 
L 743.730676 230.699999 
L 751.241909 230.699999 
L 752.051508 229.588426 
L 775.743119 229.588426 
L 775.893661 229.032639 
L 790.354658 229.032639 
L 790.697142 227.921066 
L 792.247895 227.921066 
L 792.455623 227.365279 
L 801.669118 227.365279 
L 801.899362 226.809492 
L 805.520839 226.809492 
L 806.48804 226.253706 
L 806.578999 225.697919 
L 812.012614 225.697919 
L 812.012614 225.697919 
" clip-path="url(#p306b11f9d6)" style="fill: none; stroke: #58a6ff; stroke-width: 2; stroke-linecap: square"/>
   </g>
   <g id="line2d_37">
    <path d="M 85.239886 455.237812 
L 88.005337 455.237812 
L 88.015928 454.126239 
L 90.298977 454.126239 
L 90.820413 453.570452 
L 231.558409 453.570452 
L 233.100104 453.014666 
L 272.11743 453.014666 
L 273.200237 452.458879 
L 310.00549 452.458879 
L 313.250011 451.903092 
L 321.735107 451.903092 
L 329.144158 450.235732 
L 330.647484 449.124159 
L 333.349687 449.124159 
L 335.064139 448.568372 
L 337.48141 448.012586 
L 338.01477 448.012586 
L 341.283838 447.456799 
L 341.869887 446.901012 
L 344.494388 446.345226 
L 349.624686 445.789439 
L 349.654362 446.345226 
L 358.122039 446.345226 
L 358.716548 445.789439 
L 370.800907 445.789439 
L 371.691005 445.233652 
L 375.750388 445.233652 
L 376.035386 444.677866 
L 381.077291 444.677866 
L 381.51463 444.122079 
L 399.984884 444.122079 
L 401.714989 443.566292 
L 402.442122 443.566292 
L 402.554163 443.010506 
L 407.483727 443.010506 
L 407.488423 442.454719 
L 419.09854 442.454719 
L 419.116891 441.898932 
L 422.499666 441.898932 
L 423.362087 441.343146 
L 424.632639 440.787359 
L 424.63487 440.231572 
L 424.834838 440.231572 
L 426.425659 438.564212 
L 427.497307 438.564212 
L 427.55899 436.896852 
L 427.973081 436.896852 
L 429.472743 437.452639 
L 430.551253 437.452639 
L 430.56724 435.229492 
L 434.582959 435.229492 
L 435.179766 434.673706 
L 435.81321 434.673706 
L 435.981704 434.117919 
L 450.385448 434.117919 
L 450.578755 433.562132 
L 451.304389 433.562132 
L 452.430959 433.006346 
L 457.401223 433.006346 
L 457.649152 432.450559 
L 459.359207 432.450559 
L 459.457226 431.894772 
L 465.120618 431.894772 
L 465.234624 431.338986 
L 465.641488 431.338986 
L 466.054148 430.783199 
L 466.466407 430.783199 
L 466.490854 430.227412 
L 468.243874 430.227412 
L 468.348554 429.671626 
L 476.486803 429.671626 
L 476.597745 429.115839 
L 476.640543 429.115839 
L 476.724074 428.560052 
L 477.208107 428.560052 
L 478.222803 428.004266 
L 482.189829 428.004266 
L 482.193326 427.448479 
L 482.951333 427.448479 
L 482.980176 426.892692 
L 485.131834 426.892692 
L 485.638182 426.336906 
L 488.451194 426.336906 
L 489.28284 425.781119 
L 490.900205 425.781119 
L 490.917358 424.669546 
L 491.048516 424.669546 
L 491.21358 424.113759 
L 493.815399 424.113759 
L 494.216868 423.557972 
L 494.840919 423.557972 
L 495.075659 423.002186 
L 496.598868 423.002186 
L 496.811559 422.446399 
L 496.81429 421.890612 
L 497.243003 421.890612 
L 497.423021 421.334826 
L 513.831211 421.334826 
L 513.866049 420.223252 
L 516.124351 420.223252 
L 516.774315 419.667466 
L 517.315468 419.667466 
L 519.854072 419.111679 
L 520.32525 419.111679 
L 521.334817 418.555892 
L 522.010626 418.555892 
L 522.558906 418.000106 
L 523.113549 418.555892 
L 524.899042 418.555892 
L 525.384574 418.000106 
L 525.495716 416.888532 
L 526.399403 416.332746 
L 526.405498 415.221172 
L 530.350375 415.221172 
L 531.213096 414.665386 
L 531.300524 412.998026 
L 532.162812 412.442239 
L 532.639685 411.886452 
L 536.718252 411.886452 
L 536.891309 410.219092 
L 537.099338 410.219092 
L 537.253577 409.663306 
L 538.250354 409.107519 
L 539.819359 409.107519 
L 540.142592 408.551732 
L 540.216132 407.995946 
L 540.381062 407.995946 
L 541.328846 406.884372 
L 542.344308 406.884372 
L 542.677733 406.328586 
L 543.849099 406.328586 
L 543.852963 405.217012 
L 544.655401 405.217012 
L 545.720688 404.661226 
L 548.542992 403.549652 
L 548.79495 402.993866 
L 554.536911 402.993866 
L 555.239497 401.882292 
L 565.967009 401.882292 
L 566.097934 400.770719 
L 571.319458 400.770719 
L 572.117266 400.214932 
L 574.538301 400.214932 
L 574.674189 399.659146 
L 589.568661 399.659146 
L 589.806398 399.103359 
L 591.281713 399.103359 
L 591.739869 398.547572 
L 594.493262 398.547572 
L 595.011102 397.991786 
L 595.014499 397.435999 
L 595.606743 396.880212 
L 597.413119 396.880212 
L 597.551072 396.324426 
L 597.560964 395.212852 
L 597.570789 395.768639 
L 598.784653 395.212852 
L 603.165437 395.212852 
L 604.029557 394.101279 
L 611.933866 394.101279 
L 612.544995 393.545492 
L 614.462512 393.545492 
L 614.616019 392.989706 
L 614.637135 392.433919 
L 621.146562 392.433919 
L 625.188958 391.322346 
L 626.148433 391.322346 
L 626.714399 390.766559 
L 635.087754 390.766559 
L 636.116971 390.210772 
L 637.392285 390.210772 
L 638.627432 389.654986 
L 648.945549 389.654986 
L 649.228715 389.099199 
L 649.230247 388.543412 
L 655.006945 388.543412 
L 655.287048 387.987626 
L 680.950064 387.987626 
L 684.244079 387.431839 
L 691.805404 387.431839 
L 693.459439 386.876052 
L 694.914771 386.876052 
L 695.19021 386.320266 
L 698.579146 386.320266 
L 699.151607 385.764479 
L 699.906617 385.764479 
L 700.886608 385.208692 
L 703.235636 385.208692 
L 703.667246 384.652906 
L 703.956374 384.652906 
L 705.008972 384.097119 
L 715.178278 384.097119 
L 715.206721 382.429759 
L 724.079997 382.429759 
L 727.842724 381.873972 
L 727.845788 381.318186 
L 732.258013 381.318186 
L 732.443227 380.762399 
L 732.445958 380.206612 
L 734.509821 380.206612 
L 735.408712 379.650826 
L 736.051748 379.650826 
L 737.044195 379.095039 
L 738.109216 379.095039 
L 738.293264 377.983466 
L 739.181831 377.983466 
L 739.358918 377.427679 
L 741.358368 377.427679 
L 741.432074 376.871892 
L 744.583605 376.871892 
L 746.866754 376.316106 
L 747.615636 376.316106 
L 748.350796 375.760319 
L 749.869442 375.204532 
L 749.875937 374.648746 
L 750.294725 372.981386 
L 750.677409 372.425599 
L 751.241909 371.869812 
L 752.754727 371.869812 
L 753.67217 370.202452 
L 755.865759 370.202452 
L 756.459702 368.535092 
L 758.873443 368.535092 
L 759.129032 367.979306 
L 760.878488 367.979306 
L 761.258675 366.867732 
L 761.917431 366.311946 
L 764.183161 366.311946 
L 768.109686 365.200372 
L 770.627175 364.644586 
L 770.7982 364.088799 
L 773.179401 364.088799 
L 773.331742 363.533012 
L 775.945984 363.533012 
L 775.958008 362.977226 
L 776.44807 362.977226 
L 776.555481 362.421439 
L 783.982917 362.421439 
L 784.154575 361.865652 
L 786.49481 361.309866 
L 790.343633 361.309866 
L 790.354658 360.754079 
L 804.474869 360.754079 
L 805.520839 358.530932 
L 811.315456 358.530932 
L 811.324015 357.419359 
L 812.012614 357.419359 
L 812.012614 357.419359 
" clip-path="url(#p306b11f9d6)" style="fill: none; stroke: #d29922; stroke-width: 2; stroke-linecap: square"/>
   </g>
   <g id="line2d_38">
    <path d="M 85.239886 454.682026 
L 85.476424 454.682026 
L 85.581171 432.450559 
L 86.128586 426.892692 
L 86.441395 425.781119 
L 86.600097 426.336906 
L 86.889725 425.781119 
L 87.379554 425.225332 
L 88.015928 423.002186 
L 88.290468 421.334826 
L 88.65137 421.334826 
L 89.142432 420.779039 
L 89.146062 420.223252 
L 89.541436 419.667466 
L 89.650446 419.111679 
L 89.70943 419.111679 
L 90.298977 418.555892 
L 90.720196 418.000106 
L 90.820413 411.886452 
L 90.889723 412.442239 
L 91.153405 406.328586 
L 91.158101 407.995946 
L 91.34548 402.993866 
L 93.725982 402.993866 
L 93.946067 399.659146 
L 94.003985 402.438079 
L 94.272331 397.991786 
L 94.405221 397.435999 
L 95.395304 396.880212 
L 95.425179 396.324426 
L 95.640268 395.768639 
L 95.840936 395.768639 
L 96.350815 395.212852 
L 96.62319 394.657066 
L 96.746555 393.545492 
L 96.821593 392.989706 
L 97.07605 392.433919 
L 97.082344 391.878132 
L 97.338267 392.433919 
L 97.411106 391.878132 
L 97.420066 392.433919 
L 97.43079 390.766559 
L 99.803298 390.766559 
L 103.456017 402.993866 
L 103.999501 390.210772 
L 104.396341 389.654986 
L 105.81497 389.654986 
L 106.074455 389.099199 
L 106.629764 388.543412 
L 107.817117 402.993866 
L 107.894153 387.987626 
L 108.805268 387.431839 
L 110.753693 386.876052 
L 110.892645 387.431839 
L 111.176477 385.764479 
L 111.801928 385.764479 
L 111.991971 385.208692 
L 112.350908 384.652906 
L 112.380683 383.541332 
L 112.711777 382.429759 
L 112.730961 382.985546 
L 112.927898 382.985546 
L 113.035876 381.873972 
L 113.368268 379.650826 
L 113.411965 378.539252 
L 113.838413 376.871892 
L 114.046841 377.983466 
L 115.520558 374.648746 
L 115.908605 375.760319 
L 117.505553 373.537172 
L 118.770675 377.427679 
L 119.214676 373.537172 
L 121.038137 371.869812 
L 123.726918 371.869812 
L 124.082025 371.314026 
L 124.364625 369.646666 
L 125.158736 371.314026 
L 128.397929 371.869812 
L 129.201465 369.646666 
L 129.590944 367.979306 
L 130.256728 369.646666 
L 131.762118 367.979306 
L 136.875098 367.979306 
L 142.251427 367.423519 
L 142.609964 366.867732 
L 146.004196 366.311946 
L 148.24861 366.311946 
L 148.666398 365.756159 
L 148.75729 366.311946 
L 151.144986 364.644586 
L 153.38457 364.644586 
L 153.436561 364.088799 
L 154.655755 363.533012 
L 157.596893 363.533012 
L 158.894289 359.642506 
L 159.859925 359.086719 
L 161.102466 358.530932 
L 161.12658 357.975146 
L 165.783569 357.975146 
L 165.873528 354.084639 
L 166.045886 354.084639 
L 166.198127 352.973066 
L 167.912712 352.973066 
L 168.431051 352.417279 
L 170.950904 352.417279 
L 174.451148 351.861492 
L 174.626203 363.533012 
L 174.634796 352.417279 
L 174.858978 351.861492 
L 176.106448 351.861492 
L 177.999486 351.305706 
L 179.907178 351.305706 
L 181.42256 350.749919 
L 185.599745 349.638346 
L 188.006859 349.638346 
L 189.941395 349.082559 
L 190.242413 346.303626 
L 190.446145 346.303626 
L 190.806648 345.747839 
L 192.687062 345.192052 
L 193.121737 342.968906 
L 195.720625 341.857332 
L 195.751932 342.413119 
L 195.996797 341.857332 
L 199.329712 340.745759 
L 201.830248 340.189972 
L 203.024962 340.189972 
L 204.083888 339.634186 
L 205.001564 338.522612 
L 205.974894 337.966826 
L 206.32697 337.411039 
L 208.623308 337.966826 
L 210.745789 336.855252 
L 210.992119 337.411039 
L 211.55622 337.411039 
L 211.669427 336.855252 
L 213.181412 336.299466 
L 214.136024 336.855252 
L 215.886279 335.743679 
L 217.028603 335.743679 
L 219.465525 335.187892 
L 219.869624 335.743679 
L 220.295739 334.076319 
L 221.774352 334.076319 
L 222.066911 333.520532 
L 223.340126 331.297386 
L 223.699863 330.185812 
L 224.634025 330.741599 
L 225.045552 329.630026 
L 225.086718 329.074239 
L 228.395054 329.074239 
L 230.070638 328.518452 
L 230.50025 327.962666 
L 233.100104 327.962666 
L 234.92946 327.406879 
L 238.036595 327.406879 
L 238.807892 326.851092 
L 247.351973 326.851092 
L 247.842668 326.295306 
L 247.891827 325.739519 
L 248.224086 325.183732 
L 251.932292 325.183732 
L 252.163401 324.627946 
L 253.106856 324.072159 
L 253.270254 323.516372 
L 254.833364 322.960586 
L 255.970259 322.404799 
L 260.525266 322.404799 
L 261.592818 321.293226 
L 266.275619 321.293226 
L 267.318492 320.737439 
L 271.682689 320.737439 
L 272.11743 320.181652 
L 273.200237 319.625866 
L 273.522571 319.070079 
L 273.632014 318.514292 
L 276.875703 317.958506 
L 277.277771 318.514292 
L 281.54788 317.402719 
L 284.924059 316.291146 
L 285.381315 315.735359 
L 291.785696 315.735359 
L 292.615011 315.179572 
L 298.58445 315.179572 
L 304.207542 314.623786 
L 304.914825 314.067999 
L 307.27471 313.512212 
L 309.641257 312.956426 
L 310.00549 312.400639 
L 315.315373 312.400639 
L 316.933371 311.844852 
L 329.144158 311.844852 
L 330.647484 311.289066 
L 340.733925 311.289066 
L 341.283838 310.733279 
L 341.869887 311.289066 
L 344.494388 310.733279 
L 353.326897 310.733279 
L 354.51052 310.177492 
L 373.19533 310.177492 
L 373.222907 309.621706 
L 384.762649 309.621706 
L 387.297989 309.065919 
L 387.304484 308.510132 
L 399.979255 308.510132 
L 399.984884 307.398559 
L 407.488423 307.398559 
L 410.927318 306.842772 
L 415.187435 306.842772 
L 419.116891 305.731199 
L 427.031991 305.731199 
L 427.497307 305.175412 
L 427.55899 304.619626 
L 430.551253 304.619626 
L 430.56724 304.063839 
L 430.87795 304.063839 
L 431.373241 303.508052 
L 435.81321 303.508052 
L 435.981704 302.952266 
L 441.909911 302.952266 
L 442.152743 302.396479 
L 456.630393 302.396479 
L 457.400124 300.729119 
L 457.401223 300.173332 
L 459.45233 300.173332 
L 459.457226 299.617546 
L 465.507266 299.617546 
L 465.641488 299.061759 
L 468.537731 299.061759 
L 468.641778 298.505972 
L 479.401164 298.505972 
L 479.60806 297.950186 
L 482.105465 297.950186 
L 482.193326 297.394399 
L 482.980176 296.838612 
L 502.735703 296.838612 
L 503.764653 295.727039 
L 505.304849 295.727039 
L 505.618723 295.171252 
L 507.159018 295.171252 
L 507.387296 294.615466 
L 511.026526 294.615466 
L 511.070023 294.059679 
L 531.211398 294.059679 
L 531.300524 292.948106 
L 556.476443 292.948106 
L 557.130303 292.392319 
L 600.115355 292.392319 
L 602.134921 291.836532 
L 620.300727 291.836532 
L 620.398446 291.280746 
L 628.531233 291.280746 
L 628.92654 290.724959 
L 789.889808 290.724959 
L 790.354658 290.169172 
L 810.791821 290.169172 
L 811.324015 289.613386 
L 812.012614 289.613386 
L 812.012614 289.613386 
" clip-path="url(#p306b11f9d6)" style="fill: none; stroke: #f85149; stroke-width: 2; stroke-linecap: square"/>
   </g>
   <g id="line2d_39">
    <path d="M 85.239886 454.682026 
L 85.258704 454.126239 
L 85.407068 -1 
M 85.540417 -1 
L 85.687217 101.201706 
L 88.005337 101.201706 
L 88.015928 97.866986 
L 90.820413 97.866986 
L 90.956135 98.422772 
L 91.34548 98.422772 
L 91.661019 98.978559 
L 93.616239 99.534346 
L 93.65484 98.978559 
L 93.725982 99.534346 
L 99.803298 99.534346 
L 103.456017 98.422772 
L 103.999501 99.534346 
L 104.396341 98.978559 
L 105.396515 99.534346 
L 105.81497 96.755412 
L 106.629764 96.755412 
L 107.817117 98.422772 
L 107.894153 95.643839 
L 108.805268 96.199626 
L 111.176477 96.199626 
L 111.801928 95.088052 
L 112.730961 95.088052 
L 113.035876 91.197546 
L 118.770675 91.197546 
L 119.193027 87.862826 
L 119.214676 86.751252 
L 121.038137 86.751252 
L 123.726918 82.860746 
L 125.137387 82.860746 
L 125.158736 83.416532 
L 128.397929 83.416532 
L 129.201465 80.081812 
L 131.744466 80.081812 
L 131.762118 80.637599 
L 146.004196 80.637599 
L 148.666398 81.193386 
L 148.75729 80.637599 
L 151.518344 81.193386 
L 161.12658 81.193386 
L 165.783569 81.749172 
L 165.873528 74.523946 
L 166.094746 75.079732 
L 168.72191 75.079732 
L 169.840054 75.635519 
L 174.451148 75.635519 
L 174.626203 80.637599 
L 174.634796 71.745012 
L 174.858978 71.745012 
L 175.972192 73.968159 
L 181.42256 73.968159 
L 185.599745 70.077652 
L 190.242413 70.077652 
L 190.446145 68.410292 
L 202.510087 68.410292 
L 203.024962 68.966079 
L 205.954244 68.966079 
L 205.974894 70.077652 
L 211.55622 70.077652 
L 211.669427 73.412372 
L 220.295739 73.412372 
L 220.501769 68.410292 
L 221.771321 67.298719 
L 221.774352 67.854506 
L 222.066911 67.854506 
L 223.10925 65.075572 
L 224.634025 65.075572 
L 225.045552 65.631359 
L 225.086718 65.075572 
L 226.029074 65.631359 
L 226.03337 66.187146 
L 226.055385 65.631359 
L 226.599736 63.408212 
L 231.558409 63.408212 
L 233.100104 63.963999 
L 234.92946 63.963999 
L 238.036595 64.519786 
L 240.978067 64.519786 
L 243.250658 65.631359 
L 247.891827 65.075572 
L 248.224086 65.075572 
L 251.117165 66.187146 
L 251.932292 65.631359 
L 255.970259 65.631359 
L 260.522801 67.854506 
L 260.525266 67.298719 
L 267.318492 67.298719 
L 269.425319 67.854506 
L 306.971494 67.854506 
L 307.27471 68.410292 
L 309.624371 68.410292 
L 309.641257 66.742932 
L 320.966942 66.742932 
L 321.195719 67.298719 
L 344.494388 67.298719 
L 349.624686 67.854506 
L 349.654362 67.298719 
L 353.326897 68.966079 
L 354.51052 68.966079 
L 355.632094 68.410292 
L 358.716548 68.410292 
L 361.659486 68.966079 
L 361.664315 69.521866 
L 370.008661 67.854506 
L 370.800907 68.410292 
L 381.077291 68.410292 
L 381.51463 67.854506 
L 382.315769 68.410292 
L 382.591075 70.633439 
L 387.300421 70.633439 
L 387.304484 71.189226 
L 401.714989 71.189226 
L 402.554163 71.745012 
L 405.32361 71.745012 
L 405.593787 72.300799 
L 419.09854 72.300799 
L 419.116891 72.856586 
L 421.492431 72.856586 
L 422.494637 73.412372 
L 422.499666 73.968159 
L 423.319289 73.412372 
L 423.362087 73.968159 
L 424.63487 73.968159 
L 424.834838 74.523946 
L 427.497307 74.523946 
L 427.55899 73.412372 
L 427.973081 74.523946 
L 429.472743 72.856586 
L 433.099183 72.856586 
L 433.366929 71.189226 
L 434.582959 71.189226 
L 435.179766 72.300799 
L 438.255094 72.300799 
L 439.264194 72.856586 
L 439.509292 72.856586 
L 440.457743 70.077652 
L 442.152743 70.077652 
L 442.539891 70.633439 
L 450.385448 70.633439 
L 450.578755 71.189226 
L 451.304389 71.189226 
L 452.430959 71.745012 
L 465.120618 71.745012 
L 465.234624 72.300799 
L 465.641488 72.300799 
L 466.490854 73.412372 
L 467.681671 73.412372 
L 467.968001 72.856586 
L 468.243874 72.856586 
L 468.348554 73.412372 
L 471.533125 73.412372 
L 472.075278 73.968159 
L 474.84719 73.968159 
L 475.02491 74.523946 
L 476.543256 74.523946 
L 476.640543 75.079732 
L 481.359214 75.079732 
L 481.460664 75.635519 
L 484.212659 75.635519 
L 485.131834 77.858666 
L 486.150926 77.858666 
L 486.151991 78.414452 
L 490.289909 78.414452 
L 491.048516 78.970239 
L 494.216868 78.970239 
L 494.840919 79.526026 
L 497.243003 79.526026 
L 497.423021 80.081812 
L 501.32943 80.081812 
L 502.336366 80.637599 
L 502.409705 81.193386 
L 502.735703 81.193386 
L 503.764653 60.629279 
L 506.955719 60.629279 
L 506.9787 61.185066 
L 507.159018 61.185066 
L 507.387296 60.629279 
L 510.01566 60.629279 
L 510.305055 61.185066 
L 510.650303 61.185066 
L 510.997583 61.740852 
L 511.070023 61.185066 
L 512.485455 61.185066 
L 512.496512 61.740852 
L 512.803326 61.740852 
L 512.937682 62.296639 
L 513.866049 62.852426 
L 520.32525 62.852426 
L 521.334817 63.408212 
L 522.010626 63.408212 
L 522.558906 63.963999 
L 523.113549 63.408212 
L 525.39723 63.408212 
L 525.495716 64.519786 
L 528.77411 64.519786 
L 530.046126 66.187146 
L 543.852963 66.187146 
L 544.655401 66.742932 
L 565.967009 66.742932 
L 566.097934 67.298719 
L 597.413119 67.298719 
L 597.551072 67.854506 
L 597.560964 68.410292 
L 597.570789 67.854506 
L 602.134921 67.854506 
L 603.165437 68.410292 
L 621.146562 68.410292 
L 625.188958 68.966079 
L 626.140473 69.521866 
L 626.148433 67.854506 
L 655.006945 67.854506 
L 655.287048 68.410292 
L 680.950064 68.410292 
L 684.244079 68.966079 
L 686.258982 68.966079 
L 686.477635 69.521866 
L 687.878079 70.077652 
L 691.805404 70.077652 
L 693.459439 70.633439 
L 695.19021 70.633439 
L 695.324999 71.189226 
L 698.171782 71.189226 
L 698.511835 71.745012 
L 698.579146 72.300799 
L 703.647596 72.300799 
L 703.667246 72.856586 
L 707.281862 72.856586 
L 707.982784 72.300799 
L 707.992309 72.856586 
L 709.454502 73.412372 
L 712.050293 73.412372 
L 713.918284 73.968159 
L 715.590005 73.968159 
L 718.053904 61.740852 
L 720.930463 61.740852 
L 720.943785 64.519786 
L 735.407213 64.519786 
L 735.408712 65.075572 
L 735.658872 65.631359 
L 737.044195 65.631359 
L 737.345513 66.187146 
L 741.889463 66.187146 
L 742.939896 66.742932 
L 743.11272 66.187146 
L 751.240078 66.187146 
L 751.241909 66.742932 
L 764.095266 66.742932 
L 764.183161 67.854506 
L 766.043825 69.521866 
L 767.910817 69.521866 
L 768.109686 70.077652 
L 775.958008 70.077652 
L 776.102322 70.633439 
L 783.982917 70.633439 
L 784.154575 71.189226 
L 786.326516 72.856586 
L 786.49481 73.412372 
L 807.890716 73.412372 
L 809.916411 76.191306 
L 812.012614 76.191306 
L 812.012614 76.191306 
" clip-path="url(#p306b11f9d6)" style="fill: none; stroke: #9467bd; stroke-width: 2; stroke-linecap: square"/>
   </g>
   <g id="patch_3">
    <path d="M 48.90125 455.237812 
L 48.90125 38.397812 
" style="fill: none; stroke: #30363d; stroke-width: 0.8; stroke-linejoin: miter; stroke-linecap: square"/>
   </g>
   <g id="patch_4">
    <path d="M 848.35125 455.237812 
L 848.35125 38.397812 
" style="fill: none; stroke: #30363d; stroke-width: 0.8; stroke-linejoin: miter; stroke-linecap: square"/>
   </g>
   <g id="patch_5">
    <path d="M 48.90125 455.237812 
L 848.35125 455.237812 
" style="fill: none; stroke: #30363d; stroke-width: 0.8; stroke-linejoin: miter; stroke-linecap: square"/>
   </g>
   <g id="patch_6">
    <path d="M 48.90125 38.397812 
L 848.35125 38.397812 
" style="fill: none; stroke: #30363d; stroke-width: 0.8; stroke-linejoin: miter; stroke-linecap: square"/>
   </g>
   <g id="text_20">
    <!-- 535 -->
    <g style="fill: #3fb950" transform="translate(817.012614 160.375383) scale(0.09 -0.09)">
     <defs>
      <path id="DejaVuSans-Bold-35" d="M 678 4666 
L 3669 4666 
L 3669 3781 
L 1638 3781 
L 1638 3059 
Q 1775 3097 1914 3117 
Q 2053 3138 2203 3138 
Q 3056 3138 3531 2711 
Q 4006 2284 4006 1522 
Q 4006 766 3489 337 
Q 2972 -91 2053 -91 
Q 1656 -91 1267 -14 
Q 878 63 494 219 
L 494 1166 
Q 875 947 1217 837 
Q 1559 728 1863 728 
Q 2300 728 2551 942 
Q 2803 1156 2803 1522 
Q 2803 1891 2551 2103 
Q 2300 2316 1863 2316 
Q 1603 2316 1309 2248 
Q 1016 2181 678 2041 
L 678 4666 
z
" transform="scale(0.015625)"/>
      <path id="DejaVuSans-Bold-33" d="M 2981 2516 
Q 3453 2394 3698 2092 
Q 3944 1791 3944 1325 
Q 3944 631 3412 270 
Q 2881 -91 1863 -91 
Q 1503 -91 1142 -33 
Q 781 25 428 141 
L 428 1069 
Q 766 900 1098 814 
Q 1431 728 1753 728 
Q 2231 728 2486 893 
Q 2741 1059 2741 1369 
Q 2741 1688 2480 1852 
Q 2219 2016 1709 2016 
L 1228 2016 
L 1228 2791 
L 1734 2791 
Q 2188 2791 2409 2933 
Q 2631 3075 2631 3366 
Q 2631 3634 2415 3781 
Q 2200 3928 1806 3928 
Q 1516 3928 1219 3862 
Q 922 3797 628 3669 
L 628 4550 
Q 984 4650 1334 4700 
Q 1684 4750 2022 4750 
Q 2931 4750 3382 4451 
Q 3834 4153 3834 3553 
Q 3834 3144 3618 2883 
Q 3403 2622 2981 2516 
z
" transform="scale(0.015625)"/>
     </defs>
     <use xlink:href="#DejaVuSans-Bold-35"/>
     <use xlink:href="#DejaVuSans-Bold-33" transform="translate(69.580078 0)"/>
     <use xlink:href="#DejaVuSans-Bold-35" transform="translate(139.160156 0)"/>
    </g>
   </g>
   <g id="text_21">
    <!-- 413 -->
    <g style="fill: #58a6ff" transform="translate(817.012614 228.181357) scale(0.09 -0.09)">
     <defs>
      <path id="DejaVuSans-Bold-34" d="M 2356 3675 
L 1038 1722 
L 2356 1722 
L 2356 3675 
z
M 2156 4666 
L 3494 4666 
L 3494 1722 
L 4159 1722 
L 4159 850 
L 3494 850 
L 3494 0 
L 2356 0 
L 2356 850 
L 288 850 
L 288 1881 
L 2156 4666 
z
" transform="scale(0.015625)"/>
      <path id="DejaVuSans-Bold-31" d="M 750 831 
L 1813 831 
L 1813 3847 
L 722 3622 
L 722 4441 
L 1806 4666 
L 2950 4666 
L 2950 831 
L 4013 831 
L 4013 0 
L 750 0 
L 750 831 
z
" transform="scale(0.015625)"/>
     </defs>
     <use xlink:href="#DejaVuSans-Bold-34"/>
     <use xlink:href="#DejaVuSans-Bold-31" transform="translate(69.580078 0)"/>
     <use xlink:href="#DejaVuSans-Bold-33" transform="translate(139.160156 0)"/>
    </g>
   </g>
   <g id="text_22">
    <!-- 176 -->
    <g style="fill: #d29922" transform="translate(817.012614 359.902797) scale(0.09 -0.09)">
     <defs>
      <path id="DejaVuSans-Bold-37" d="M 428 4666 
L 3944 4666 
L 3944 3988 
L 2125 0 
L 953 0 
L 2675 3781 
L 428 3781 
L 428 4666 
z
" transform="scale(0.015625)"/>
      <path id="DejaVuSans-Bold-36" d="M 2316 2303 
Q 2000 2303 1842 2098 
Q 1684 1894 1684 1484 
Q 1684 1075 1842 870 
Q 2000 666 2316 666 
Q 2634 666 2792 870 
Q 2950 1075 2950 1484 
Q 2950 1894 2792 2098 
Q 2634 2303 2316 2303 
z
M 3803 4544 
L 3803 3681 
Q 3506 3822 3243 3889 
Q 2981 3956 2731 3956 
Q 2194 3956 1894 3657 
Q 1594 3359 1544 2772 
Q 1750 2925 1990 3001 
Q 2231 3078 2516 3078 
Q 3231 3078 3670 2659 
Q 4109 2241 4109 1563 
Q 4109 813 3618 361 
Q 3128 -91 2303 -91 
Q 1394 -91 895 523 
Q 397 1138 397 2266 
Q 397 3422 980 4083 
Q 1563 4744 2578 4744 
Q 2900 4744 3203 4694 
Q 3506 4644 3803 4544 
z
" transform="scale(0.015625)"/>
     </defs>
     <use xlink:href="#DejaVuSans-Bold-31"/>
     <use xlink:href="#DejaVuSans-Bold-37" transform="translate(69.580078 0)"/>
     <use xlink:href="#DejaVuSans-Bold-36" transform="translate(139.160156 0)"/>
    </g>
   </g>
   <g id="text_23">
    <!-- 298 -->
    <g style="fill: #f85149" transform="translate(817.012614 292.096823) scale(0.09 -0.09)">
     <defs>
      <path id="DejaVuSans-Bold-32" d="M 1844 884 
L 3897 884 
L 3897 0 
L 506 0 
L 506 884 
L 2209 2388 
Q 2438 2594 2547 2791 
Q 2656 2988 2656 3200 
Q 2656 3528 2436 3728 
Q 2216 3928 1850 3928 
Q 1569 3928 1234 3808 
Q 900 3688 519 3450 
L 519 4475 
Q 925 4609 1322 4679 
Q 1719 4750 2100 4750 
Q 2938 4750 3402 4381 
Q 3866 4013 3866 3353 
Q 3866 2972 3669 2642 
Q 3472 2313 2841 1759 
L 1844 884 
z
" transform="scale(0.015625)"/>
      <path id="DejaVuSans-Bold-39" d="M 641 103 
L 641 966 
Q 928 831 1190 764 
Q 1453 697 1709 697 
Q 2247 697 2547 995 
Q 2847 1294 2900 1881 
Q 2688 1725 2447 1647 
Q 2206 1569 1925 1569 
Q 1209 1569 770 1986 
Q 331 2403 331 3084 
Q 331 3838 820 4291 
Q 1309 4744 2131 4744 
Q 3044 4744 3544 4128 
Q 4044 3513 4044 2388 
Q 4044 1231 3459 570 
Q 2875 -91 1856 -91 
Q 1528 -91 1228 -42 
Q 928 6 641 103 
z
M 2125 2350 
Q 2441 2350 2600 2554 
Q 2759 2759 2759 3169 
Q 2759 3575 2600 3781 
Q 2441 3988 2125 3988 
Q 1809 3988 1650 3781 
Q 1491 3575 1491 3169 
Q 1491 2759 1650 2554 
Q 1809 2350 2125 2350 
z
" transform="scale(0.015625)"/>
      <path id="DejaVuSans-Bold-38" d="M 2228 2088 
Q 1891 2088 1709 1903 
Q 1528 1719 1528 1375 
Q 1528 1031 1709 848 
Q 1891 666 2228 666 
Q 2563 666 2741 848 
Q 2919 1031 2919 1375 
Q 2919 1722 2741 1905 
Q 2563 2088 2228 2088 
z
M 1350 2484 
Q 925 2613 709 2878 
Q 494 3144 494 3541 
Q 494 4131 934 4440 
Q 1375 4750 2228 4750 
Q 3075 4750 3515 4442 
Q 3956 4134 3956 3541 
Q 3956 3144 3739 2878 
Q 3522 2613 3097 2484 
Q 3572 2353 3814 2058 
Q 4056 1763 4056 1313 
Q 4056 619 3595 264 
Q 3134 -91 2228 -91 
Q 1319 -91 855 264 
Q 391 619 391 1313 
Q 391 1763 633 2058 
Q 875 2353 1350 2484 
z
M 1631 3419 
Q 1631 3141 1786 2991 
Q 1941 2841 2228 2841 
Q 2509 2841 2662 2991 
Q 2816 3141 2816 3419 
Q 2816 3697 2662 3845 
Q 2509 3994 2228 3994 
Q 1941 3994 1786 3844 
Q 1631 3694 1631 3419 
z
" transform="scale(0.015625)"/>
     </defs>
     <use xlink:href="#DejaVuSans-Bold-32"/>
     <use xlink:href="#DejaVuSans-Bold-39" transform="translate(69.580078 0)"/>
     <use xlink:href="#DejaVuSans-Bold-38" transform="translate(139.160156 0)"/>
    </g>
   </g>
   <g id="text_24">
    <!-- 682 -->
    <g style="fill: #9467bd" transform="translate(817.012614 78.674743) scale(0.09 -0.09)">
     <use xlink:href="#DejaVuSans-Bold-36"/>
     <use xlink:href="#DejaVuSans-Bold-38" transform="translate(69.580078 0)"/>
     <use xlink:href="#DejaVuSans-Bold-32" transform="translate(139.160156 0)"/>
    </g>
   </g>
   <g id="text_25">
    <!-- Erdős Problems Progress -->
    <g style="fill: #c9d1d9" transform="translate(349.588281 18.397812) scale(0.14 -0.14)">
     <defs>
      <path id="DejaVuSans-Bold-45" d="M 588 4666 
L 3834 4666 
L 3834 3756 
L 1791 3756 
L 1791 2888 
L 3713 2888 
L 3713 1978 
L 1791 1978 
L 1791 909 
L 3903 909 
L 3903 0 
L 588 0 
L 588 4666 
z
" transform="scale(0.015625)"/>
      <path id="DejaVuSans-Bold-72" d="M 3138 2547 
Q 2991 2616 2845 2648 
Q 2700 2681 2553 2681 
Q 2122 2681 1889 2404 
Q 1656 2128 1656 1613 
L 1656 0 
L 538 0 
L 538 3500 
L 1656 3500 
L 1656 2925 
Q 1872 3269 2151 3426 
Q 2431 3584 2822 3584 
Q 2878 3584 2943 3579 
Q 3009 3575 3134 3559 
L 3138 2547 
z
" transform="scale(0.015625)"/>
      <path id="DejaVuSans-Bold-64" d="M 2919 2988 
L 2919 4863 
L 4044 4863 
L 4044 0 
L 2919 0 
L 2919 506 
Q 2688 197 2409 53 
Q 2131 -91 1766 -91 
Q 1119 -91 703 423 
Q 288 938 288 1747 
Q 288 2556 703 3070 
Q 1119 3584 1766 3584 
Q 2128 3584 2408 3439 
Q 2688 3294 2919 2988 
z
M 2181 722 
Q 2541 722 2730 984 
Q 2919 1247 2919 1747 
Q 2919 2247 2730 2509 
Q 2541 2772 2181 2772 
Q 1825 2772 1636 2509 
Q 1447 2247 1447 1747 
Q 1447 1247 1636 984 
Q 1825 722 2181 722 
z
" transform="scale(0.015625)"/>
      <path id="DejaVuSans-Bold-151" d="M 1881 5119 
L 2560 5119 
L 1785 3944 
L 1275 3944 
L 1881 5119 
z
M 3016 5119 
L 3738 5119 
L 2888 3944 
L 2344 3944 
L 3016 5119 
z
M 2203 2784 
Q 1831 2784 1636 2517 
Q 1441 2250 1441 1747 
Q 1441 1244 1636 976 
Q 1831 709 2203 709 
Q 2569 709 2762 976 
Q 2956 1244 2956 1747 
Q 2956 2250 2762 2517 
Q 2569 2784 2203 2784 
z
M 2203 3584 
Q 3106 3584 3614 3096 
Q 4122 2609 4122 1747 
Q 4122 884 3614 396 
Q 3106 -91 2203 -91 
Q 1297 -91 786 396 
Q 275 884 275 1747 
Q 275 2609 786 3096 
Q 1297 3584 2203 3584 
z
" transform="scale(0.015625)"/>
      <path id="DejaVuSans-Bold-73" d="M 3272 3391 
L 3272 2541 
Q 2913 2691 2578 2766 
Q 2244 2841 1947 2841 
Q 1628 2841 1473 2761 
Q 1319 2681 1319 2516 
Q 1319 2381 1436 2309 
Q 1553 2238 1856 2203 
L 2053 2175 
Q 2913 2066 3209 1816 
Q 3506 1566 3506 1031 
Q 3506 472 3093 190 
Q 2681 -91 1863 -91 
Q 1516 -91 1145 -36 
Q 775 19 384 128 
L 384 978 
Q 719 816 1070 734 
Q 1422 653 1784 653 
Q 2113 653 2278 743 
Q 2444 834 2444 1013 
Q 2444 1163 2330 1236 
Q 2216 1309 1875 1350 
L 1678 1375 
Q 931 1469 631 1722 
Q 331 1975 331 2491 
Q 331 3047 712 3315 
Q 1094 3584 1881 3584 
Q 2191 3584 2531 3537 
Q 2872 3491 3272 3391 
z
" transform="scale(0.015625)"/>
      <path id="DejaVuSans-Bold-20" transform="scale(0.015625)"/>
      <path id="DejaVuSans-Bold-50" d="M 588 4666 
L 2584 4666 
Q 3475 4666 3951 4270 
Q 4428 3875 4428 3144 
Q 4428 2409 3951 2014 
Q 3475 1619 2584 1619 
L 1791 1619 
L 1791 0 
L 588 0 
L 588 4666 
z
M 1791 3794 
L 1791 2491 
L 2456 2491 
Q 2806 2491 2997 2661 
Q 3188 2831 3188 3144 
Q 3188 3456 2997 3625 
Q 2806 3794 2456 3794 
L 1791 3794 
z
" transform="scale(0.015625)"/>
      <path id="DejaVuSans-Bold-6f" d="M 2203 2784 
Q 1831 2784 1636 2517 
Q 1441 2250 1441 1747 
Q 1441 1244 1636 976 
Q 1831 709 2203 709 
Q 2569 709 2762 976 
Q 2956 1244 2956 1747 
Q 2956 2250 2762 2517 
Q 2569 2784 2203 2784 
z
M 2203 3584 
Q 3106 3584 3614 3096 
Q 4122 2609 4122 1747 
Q 4122 884 3614 396 
Q 3106 -91 2203 -91 
Q 1297 -91 786 396 
Q 275 884 275 1747 
Q 275 2609 786 3096 
Q 1297 3584 2203 3584 
z
" transform="scale(0.015625)"/>
      <path id="DejaVuSans-Bold-62" d="M 2400 722 
Q 2759 722 2948 984 
Q 3138 1247 3138 1747 
Q 3138 2247 2948 2509 
Q 2759 2772 2400 2772 
Q 2041 2772 1848 2508 
Q 1656 2244 1656 1747 
Q 1656 1250 1848 986 
Q 2041 722 2400 722 
z
M 1656 2988 
Q 1888 3294 2169 3439 
Q 2450 3584 2816 3584 
Q 3463 3584 3878 3070 
Q 4294 2556 4294 1747 
Q 4294 938 3878 423 
Q 3463 -91 2816 -91 
Q 2450 -91 2169 54 
Q 1888 200 1656 506 
L 1656 0 
L 538 0 
L 538 4863 
L 1656 4863 
L 1656 2988 
z
" transform="scale(0.015625)"/>
      <path id="DejaVuSans-Bold-6c" d="M 538 4863 
L 1656 4863 
L 1656 0 
L 538 0 
L 538 4863 
z
" transform="scale(0.015625)"/>
      <path id="DejaVuSans-Bold-65" d="M 4031 1759 
L 4031 1441 
L 1416 1441 
Q 1456 1047 1700 850 
Q 1944 653 2381 653 
Q 2734 653 3104 758 
Q 3475 863 3866 1075 
L 3866 213 
Q 3469 63 3072 -14 
Q 2675 -91 2278 -91 
Q 1328 -91 801 392 
Q 275 875 275 1747 
Q 275 2603 792 3093 
Q 1309 3584 2216 3584 
Q 3041 3584 3536 3087 
Q 4031 2591 4031 1759 
z
M 2881 2131 
Q 2881 2450 2695 2645 
Q 2509 2841 2209 2841 
Q 1884 2841 1681 2658 
Q 1478 2475 1428 2131 
L 2881 2131 
z
" transform="scale(0.015625)"/>
      <path id="DejaVuSans-Bold-6d" d="M 3781 2919 
Q 3994 3244 4286 3414 
Q 4578 3584 4928 3584 
Q 5531 3584 5847 3212 
Q 6163 2841 6163 2131 
L 6163 0 
L 5038 0 
L 5038 1825 
Q 5041 1866 5042 1909 
Q 5044 1953 5044 2034 
Q 5044 2406 4934 2573 
Q 4825 2741 4581 2741 
Q 4263 2741 4089 2478 
Q 3916 2216 3909 1719 
L 3909 0 
L 2784 0 
L 2784 1825 
Q 2784 2406 2684 2573 
Q 2584 2741 2328 2741 
Q 2006 2741 1831 2477 
Q 1656 2213 1656 1722 
L 1656 0 
L 531 0 
L 531 3500 
L 1656 3500 
L 1656 2988 
Q 1863 3284 2130 3434 
Q 2397 3584 2719 3584 
Q 3081 3584 3359 3409 
Q 3638 3234 3781 2919 
z
" transform="scale(0.015625)"/>
      <path id="DejaVuSans-Bold-67" d="M 2919 594 
Q 2688 288 2409 144 
Q 2131 0 1766 0 
Q 1125 0 706 504 
Q 288 1009 288 1791 
Q 288 2575 706 3076 
Q 1125 3578 1766 3578 
Q 2131 3578 2409 3434 
Q 2688 3291 2919 2981 
L 2919 3500 
L 4044 3500 
L 4044 353 
Q 4044 -491 3511 -936 
Q 2978 -1381 1966 -1381 
Q 1638 -1381 1331 -1331 
Q 1025 -1281 716 -1178 
L 716 -306 
Q 1009 -475 1290 -558 
Q 1572 -641 1856 -641 
Q 2406 -641 2662 -400 
Q 2919 -159 2919 353 
L 2919 594 
z
M 2181 2772 
Q 1834 2772 1640 2515 
Q 1447 2259 1447 1791 
Q 1447 1309 1634 1061 
Q 1822 813 2181 813 
Q 2531 813 2725 1069 
Q 2919 1325 2919 1791 
Q 2919 2259 2725 2515 
Q 2531 2772 2181 2772 
z
" transform="scale(0.015625)"/>
     </defs>
     <use xlink:href="#DejaVuSans-Bold-45"/>
     <use xlink:href="#DejaVuSans-Bold-72" transform="translate(68.310547 0)"/>
     <use xlink:href="#DejaVuSans-Bold-64" transform="translate(117.626953 0)"/>
     <use xlink:href="#DejaVuSans-Bold-151" transform="translate(189.208984 0)"/>
     <use xlink:href="#DejaVuSans-Bold-73" transform="translate(257.910156 0)"/>
     <use xlink:href="#DejaVuSans-Bold-20" transform="translate(317.431641 0)"/>
     <use xlink:href="#DejaVuSans-Bold-50" transform="translate(352.246094 0)"/>
     <use xlink:href="#DejaVuSans-Bold-72" transform="translate(425.537109 0)"/>
     <use xlink:href="#DejaVuSans-Bold-6f" transform="translate(474.853516 0)"/>
     <use xlink:href="#DejaVuSans-Bold-62" transform="translate(543.554688 0)"/>
     <use xlink:href="#DejaVuSans-Bold-6c" transform="translate(615.136719 0)"/>
     <use xlink:href="#DejaVuSans-Bold-65" transform="translate(649.414062 0)"/>
     <use xlink:href="#DejaVuSans-Bold-6d" transform="translate(717.236328 0)"/>
     <use xlink:href="#DejaVuSans-Bold-73" transform="translate(821.435547 0)"/>
     <use xlink:href="#DejaVuSans-Bold-20" transform="translate(880.957031 0)"/>
     <use xlink:href="#DejaVuSans-Bold-50" transform="translate(915.771484 0)"/>
     <use xlink:href="#DejaVuSans-Bold-72" transform="translate(989.0625 0)"/>
     <use xlink:href="#DejaVuSans-Bold-6f" transform="translate(1038.378906 0)"/>
     <use xlink:href="#DejaVuSans-Bold-67" transform="translate(1107.080078 0)"/>
     <use xlink:href="#DejaVuSans-Bold-72" transform="translate(1178.662109 0)"/>
     <use xlink:href="#DejaVuSans-Bold-65" transform="translate(1227.978516 0)"/>
     <use xlink:href="#DejaVuSans-Bold-73" transform="translate(1295.800781 0)"/>
     <use xlink:href="#DejaVuSans-Bold-73" transform="translate(1355.322266 0)"/>
    </g>
   </g>
   <g id="legend_1">
    <g id="patch_7">
     <path d="M 55.90125 119.788437 
L 213.771563 119.788437 
Q 215.771563 119.788437 215.771563 117.788437 
L 215.771563 45.397812 
Q 215.771563 43.397812 213.771563 43.397812 
L 55.90125 43.397812 
Q 53.90125 43.397812 53.90125 45.397812 
L 53.90125 117.788437 
Q 53.90125 119.788437 55.90125 119.788437 
z
" style="fill: #161b22; opacity: 0.8; stroke: #30363d; stroke-linejoin: miter"/>
    </g>
    <g id="line2d_40">
     <path d="M 57.90125 51.49625 
L 67.90125 51.49625 
L 77.90125 51.49625 
" style="fill: none; stroke: #3fb950; stroke-width: 2; stroke-linecap: square"/>
    </g>
    <g id="text_26">
     <!-- Solved -->
     <g style="fill: #c9d1d9" transform="translate(85.90125 54.99625) scale(0.1 -0.1)">
      <defs>
       <path id="DejaVuSans-6c" d="M 603 4863 
L 1178 4863 
L 1178 0 
L 603 0 
L 603 4863 
z
" transform="scale(0.015625)"/>
       <path id="DejaVuSans-64" d="M 2906 2969 
L 2906 4863 
L 3481 4863 
L 3481 0 
L 2906 0 
L 2906 525 
Q 2725 213 2448 61 
Q 2172 -91 1784 -91 
Q 1150 -91 751 415 
Q 353 922 353 1747 
Q 353 2572 751 3078 
Q 1150 3584 1784 3584 
Q 2172 3584 2448 3432 
Q 2725 3281 2906 2969 
z
M 947 1747 
Q 947 1113 1208 752 
Q 1469 391 1925 391 
Q 2381 391 2643 752 
Q 2906 1113 2906 1747 
Q 2906 2381 2643 2742 
Q 2381 3103 1925 3103 
Q 1469 3103 1208 2742 
Q 947 2381 947 1747 
z
" transform="scale(0.015625)"/>
      </defs>
      <use xlink:href="#DejaVuSans-53"/>
      <use xlink:href="#DejaVuSans-6f" transform="translate(63.476562 0)"/>
      <use xlink:href="#DejaVuSans-6c" transform="translate(124.658203 0)"/>
      <use xlink:href="#DejaVuSans-76" transform="translate(152.441406 0)"/>
      <use xlink:href="#DejaVuSans-65" transform="translate(211.621094 0)"/>
      <use xlink:href="#DejaVuSans-64" transform="translate(273.144531 0)"/>
     </g>
    </g>
    <g id="line2d_41">
     <path d="M 57.90125 66.174375 
L 67.90125 66.174375 
L 77.90125 66.174375 
" style="fill: none; stroke: #58a6ff; stroke-width: 2; stroke-linecap: square"/>
    </g>
    <g id="text_27">
     <!-- Lean Formalized Problem -->
     <g style="fill: #c9d1d9" transform="translate(85.90125 69.674375) scale(0.1 -0.1)">
      <defs>
       <path id="DejaVuSans-4c" d="M 628 4666 
L 1259 4666 
L 1259 531 
L 3531 531 
L 3531 0 
L 628 0 
L 628 4666 
z
" transform="scale(0.015625)"/>
       <path id="DejaVuSans-20" transform="scale(0.015625)"/>
       <path id="DejaVuSans-6d" d="M 3328 2828 
Q 3544 3216 3844 3400 
Q 4144 3584 4550 3584 
Q 5097 3584 5394 3201 
Q 5691 2819 5691 2113 
L 5691 0 
L 5113 0 
L 5113 2094 
Q 5113 2597 4934 2840 
Q 4756 3084 4391 3084 
Q 3944 3084 3684 2787 
Q 3425 2491 3425 1978 
L 3425 0 
L 2847 0 
L 2847 2094 
Q 2847 2600 2669 2842 
Q 2491 3084 2119 3084 
Q 1678 3084 1418 2786 
Q 1159 2488 1159 1978 
L 1159 0 
L 581 0 
L 581 3500 
L 1159 3500 
L 1159 2956 
Q 1356 3278 1631 3431 
Q 1906 3584 2284 3584 
Q 2666 3584 2933 3390 
Q 3200 3197 3328 2828 
z
" transform="scale(0.015625)"/>
       <path id="DejaVuSans-69" d="M 603 3500 
L 1178 3500 
L 1178 0 
L 603 0 
L 603 3500 
z
M 603 4863 
L 1178 4863 
L 1178 4134 
L 603 4134 
L 603 4863 
z
" transform="scale(0.015625)"/>
       <path id="DejaVuSans-7a" d="M 353 3500 
L 3084 3500 
L 3084 2975 
L 922 459 
L 3084 459 
L 3084 0 
L 275 0 
L 275 525 
L 2438 3041 
L 353 3041 
L 353 3500 
z
" transform="scale(0.015625)"/>
       <path id="DejaVuSans-50" d="M 1259 4147 
L 1259 2394 
L 2053 2394 
Q 2494 2394 2734 2622 
Q 2975 2850 2975 3272 
Q 2975 3691 2734 3919 
Q 2494 4147 2053 4147 
L 1259 4147 
z
M 628 4666 
L 2053 4666 
Q 2838 4666 3239 4311 
Q 3641 3956 3641 3272 
Q 3641 2581 3239 2228 
Q 2838 1875 2053 1875 
L 1259 1875 
L 1259 0 
L 628 0 
L 628 4666 
z
" transform="scale(0.015625)"/>
      </defs>
      <use xlink:href="#DejaVuSans-4c"/>
      <use xlink:href="#DejaVuSans-65" transform="translate(53.962891 0)"/>
      <use xlink:href="#DejaVuSans-61" transform="translate(115.486328 0)"/>
      <use xlink:href="#DejaVuSans-6e" transform="translate(176.765625 0)"/>
      <use xlink:href="#DejaVuSans-20" transform="translate(240.144531 0)"/>
      <use xlink:href="#DejaVuSans-46" transform="translate(271.931641 0)"/>
      <use xlink:href="#DejaVuSans-6f" transform="translate(325.826172 0)"/>
      <use xlink:href="#DejaVuSans-72" transform="translate(387.007812 0)"/>
      <use xlink:href="#DejaVuSans-6d" transform="translate(426.371094 0)"/>
      <use xlink:href="#DejaVuSans-61" transform="translate(523.783203 0)"/>
      <use xlink:href="#DejaVuSans-6c" transform="translate(585.0625 0)"/>
      <use xlink:href="#DejaVuSans-69" transform="translate(612.845703 0)"/>
      <use xlink:href="#DejaVuSans-7a" transform="translate(640.628906 0)"/>
      <use xlink:href="#DejaVuSans-65" transform="translate(693.119141 0)"/>
      <use xlink:href="#DejaVuSans-64" transform="translate(754.642578 0)"/>
      <use xlink:href="#DejaVuSans-20" transform="translate(818.119141 0)"/>
      <use xlink:href="#DejaVuSans-50" transform="translate(849.90625 0)"/>
      <use xlink:href="#DejaVuSans-72" transform="translate(908.458984 0)"/>
      <use xlink:href="#DejaVuSans-6f" transform="translate(947.322266 0)"/>
      <use xlink:href="#DejaVuSans-62" transform="translate(1008.503906 0)"/>
      <use xlink:href="#DejaVuSans-6c" transform="translate(1071.980469 0)"/>
      <use xlink:href="#DejaVuSans-65" transform="translate(1099.763672 0)"/>
      <use xlink:href="#DejaVuSans-6d" transform="translate(1161.287109 0)"/>
     </g>
    </g>
    <g id="line2d_42">
     <path d="M 57.90125 80.8525 
L 67.90125 80.8525 
L 77.90125 80.8525 
" style="fill: none; stroke: #d29922; stroke-width: 2; stroke-linecap: square"/>
    </g>
    <g id="text_28">
     <!-- Lean Formalized Solution -->
     <g style="fill: #c9d1d9" transform="translate(85.90125 84.3525) scale(0.1 -0.1)">
      <use xlink:href="#DejaVuSans-4c"/>
      <use xlink:href="#DejaVuSans-65" transform="translate(53.962891 0)"/>
      <use xlink:href="#DejaVuSans-61" transform="translate(115.486328 0)"/>
      <use xlink:href="#DejaVuSans-6e" transform="translate(176.765625 0)"/>
      <use xlink:href="#DejaVuSans-20" transform="translate(240.144531 0)"/>
      <use xlink:href="#DejaVuSans-46" transform="translate(271.931641 0)"/>
      <use xlink:href="#DejaVuSans-6f" transform="translate(325.826172 0)"/>
      <use xlink:href="#DejaVuSans-72" transform="translate(387.007812 0)"/>
      <use xlink:href="#DejaVuSans-6d" transform="translate(426.371094 0)"/>
      <use xlink:href="#DejaVuSans-61" transform="translate(523.783203 0)"/>
      <use xlink:href="#DejaVuSans-6c" transform="translate(585.0625 0)"/>
      <use xlink:href="#DejaVuSans-69" transform="translate(612.845703 0)"/>
      <use xlink:href="#DejaVuSans-7a" transform="translate(640.628906 0)"/>
      <use xlink:href="#DejaVuSans-65" transform="translate(693.119141 0)"/>
      <use xlink:href="#DejaVuSans-64" transform="translate(754.642578 0)"/>
      <use xlink:href="#DejaVuSans-20" transform="translate(818.119141 0)"/>
      <use xlink:href="#DejaVuSans-53" transform="translate(849.90625 0)"/>
      <use xlink:href="#DejaVuSans-6f" transform="translate(913.382812 0)"/>
      <use xlink:href="#DejaVuSans-6c" transform="translate(974.564453 0)"/>
      <use xlink:href="#DejaVuSans-75" transform="translate(1002.347656 0)"/>
      <use xlink:href="#DejaVuSans-74" transform="translate(1065.726562 0)"/>
      <use xlink:href="#DejaVuSans-69" transform="translate(1104.935547 0)"/>
      <use xlink:href="#DejaVuSans-6f" transform="translate(1132.71875 0)"/>
      <use xlink:href="#DejaVuSans-6e" transform="translate(1193.900391 0)"/>
     </g>
    </g>
    <g id="line2d_43">
     <path d="M 57.90125 95.530625 
L 67.90125 95.530625 
L 77.90125 95.530625 
" style="fill: none; stroke: #f85149; stroke-width: 2; stroke-linecap: square"/>
    </g>
    <g id="text_29">
     <!-- OEIS Linked -->
     <g style="fill: #c9d1d9" transform="translate(85.90125 99.030625) scale(0.1 -0.1)">
      <defs>
       <path id="DejaVuSans-45" d="M 628 4666 
L 3578 4666 
L 3578 4134 
L 1259 4134 
L 1259 2753 
L 3481 2753 
L 3481 2222 
L 1259 2222 
L 1259 531 
L 3634 531 
L 3634 0 
L 628 0 
L 628 4666 
z
" transform="scale(0.015625)"/>
       <path id="DejaVuSans-49" d="M 628 4666 
L 1259 4666 
L 1259 0 
L 628 0 
L 628 4666 
z
" transform="scale(0.015625)"/>
       <path id="DejaVuSans-6b" d="M 581 4863 
L 1159 4863 
L 1159 1991 
L 2875 3500 
L 3609 3500 
L 1753 1863 
L 3688 0 
L 2938 0 
L 1159 1709 
L 1159 0 
L 581 0 
L 581 4863 
z
" transform="scale(0.015625)"/>
      </defs>
      <use xlink:href="#DejaVuSans-4f"/>
      <use xlink:href="#DejaVuSans-45" transform="translate(78.710938 0)"/>
      <use xlink:href="#DejaVuSans-49" transform="translate(141.894531 0)"/>
      <use xlink:href="#DejaVuSans-53" transform="translate(171.386719 0)"/>
      <use xlink:href="#DejaVuSans-20" transform="translate(234.863281 0)"/>
      <use xlink:href="#DejaVuSans-4c" transform="translate(266.650391 0)"/>
      <use xlink:href="#DejaVuSans-69" transform="translate(322.363281 0)"/>
      <use xlink:href="#DejaVuSans-6e" transform="translate(350.146484 0)"/>
      <use xlink:href="#DejaVuSans-6b" transform="translate(413.525391 0)"/>
      <use xlink:href="#DejaVuSans-65" transform="translate(467.810547 0)"/>
      <use xlink:href="#DejaVuSans-64" transform="translate(529.333984 0)"/>
     </g>
    </g>
    <g id="line2d_44">
     <path d="M 57.90125 110.20875 
L 67.90125 110.20875 
L 77.90125 110.20875 
" style="fill: none; stroke: #9467bd; stroke-width: 2; stroke-linecap: square"/>
    </g>
    <g id="text_30">
     <!-- Open Problems -->
     <g style="fill: #c9d1d9" transform="translate(85.90125 113.70875) scale(0.1 -0.1)">
      <defs>
       <path id="DejaVuSans-73" d="M 2834 3397 
L 2834 2853 
Q 2591 2978 2328 3040 
Q 2066 3103 1784 3103 
Q 1356 3103 1142 2972 
Q 928 2841 928 2578 
Q 928 2378 1081 2264 
Q 1234 2150 1697 2047 
L 1894 2003 
Q 2506 1872 2764 1633 
Q 3022 1394 3022 966 
Q 3022 478 2636 193 
Q 2250 -91 1575 -91 
Q 1294 -91 989 -36 
Q 684 19 347 128 
L 347 722 
Q 666 556 975 473 
Q 1284 391 1588 391 
Q 1994 391 2212 530 
Q 2431 669 2431 922 
Q 2431 1156 2273 1281 
Q 2116 1406 1581 1522 
L 1381 1569 
Q 847 1681 609 1914 
Q 372 2147 372 2553 
Q 372 3047 722 3315 
Q 1072 3584 1716 3584 
Q 2034 3584 2315 3537 
Q 2597 3491 2834 3397 
z
" transform="scale(0.015625)"/>
      </defs>
      <use xlink:href="#DejaVuSans-4f"/>
      <use xlink:href="#DejaVuSans-70" transform="translate(78.710938 0)"/>
      <use xlink:href="#DejaVuSans-65" transform="translate(142.1875 0)"/>
      <use xlink:href="#DejaVuSans-6e" transform="translate(203.710938 0)"/>
      <use xlink:href="#DejaVuSans-20" transform="translate(267.089844 0)"/>
      <use xlink:href="#DejaVuSans-50" transform="translate(298.876953 0)"/>
      <use xlink:href="#DejaVuSans-72" transform="translate(357.429688 0)"/>
      <use xlink:href="#DejaVuSans-6f" transform="translate(396.292969 0)"/>
      <use xlink:href="#DejaVuSans-62" transform="translate(457.474609 0)"/>
      <use xlink:href="#DejaVuSans-6c" transform="translate(520.951172 0)"/>
      <use xlink:href="#DejaVuSans-65" transform="translate(548.734375 0)"/>
      <use xlink:href="#DejaVuSans-6d" transform="translate(610.257812 0)"/>
      <use xlink:href="#DejaVuSans-73" transform="translate(707.669922 0)"/>
     </g>
    </g>
   </g>
  </g>
 </g>
 <defs>
  <clipPath id="p306b11f9d6">
   <rect x="48.90125" y="38.397812" width="799.45" height="416.84"/>
  </clipPath>
 </defs>
</svg>
