<?xml version="1.0" encoding="utf-8" standalone="no"?>
<!DOCTYPE svg PUBLIC "-//W3C//DTD SVG 1.1//EN"
  "http://www.w3.org/Graphics/SVG/1.1/DTD/svg11.dtd">
<svg xmlns:xlink="http://www.w3.org/1999/xlink" width="855.55125pt" height="494.729687pt" viewBox="0 0 855.55125 494.729687" xmlns="http://www.w3.org/2000/svg" version="1.1">
 <metadata>
  <rdf:RDF xmlns:dc="http://purl.org/dc/elements/1.1/" xmlns:cc="http://creativecommons.org/ns#" xmlns:rdf="http://www.w3.org/1999/02/22-rdf-syntax-ns#">
   <cc:Work>
    <dc:type rdf:resource="http://purl.org/dc/dcmitype/StillImage"/>
    <dc:date>2026-03-03T16:16:09.977551</dc:date>
    <dc:format>image/svg+xml</dc:format>
    <dc:creator>
     <cc:Agent>
      <dc:title>Matplotlib v3.10.7, https://matplotlib.org/</dc:title>
     </cc:Agent>
    </dc:creator>
   </cc:Work>
  </rdf:RDF>
 </metadata>
 <defs>
  <style type="text/css">*{stroke-linejoin: round; stroke-linecap: butt}</style>
 </defs>
 <g id="figure_1">
  <g id="patch_1">
   <path d="M 0 494.729687 
L 855.55125 494.729687 
L 855.55125 0 
L 0 0 
z
" style="fill: #ffffff"/>
  </g>
  <g id="axes_1">
   <g id="patch_2">
    <path d="M 48.90125 455.237812 
L 848.35125 455.237812 
L 848.35125 38.397812 
L 48.90125 38.397812 
z
" style="fill: #ffffff"/>
   </g>
   <g id="matplotlib.axis_1">
    <g id="xtick_1">
     <g id="line2d_1">
      <path d="M 86.394765 455.237812 
L 86.394765 38.397812 
" clip-path="url(#pce26fb3087)" style="fill: none; stroke: #d0d7de; stroke-opacity: 0.25; stroke-width: 0.5; stroke-linecap: square"/>
     </g>
     <g id="line2d_2">
      <defs>
       <path id="medd6c9aa74" d="M 0 0 
L 0 3.5 
" style="stroke: #24292f; stroke-width: 0.8"/>
      </defs>
      <g>
       <use xlink:href="#medd6c9aa74" x="86.394765" y="455.237812" style="fill: #24292f; stroke: #24292f; stroke-width: 0.8"/>
      </g>
     </g>
     <g id="text_1">
      <!-- Sep -->
      <g style="fill: #24292f" transform="translate(76.969765 469.83625) scale(0.1 -0.1)">
       <defs>
        <path id="DejaVuSans-53" d="M 3425 4513 
L 3425 3897 
Q 3066 4069 2747 4153 
Q 2428 4238 2131 4238 
Q 1616 4238 1336 4038 
Q 1056 3838 1056 3469 
Q 1056 3159 1242 3001 
Q 1428 2844 1947 2747 
L 2328 2669 
Q 3034 2534 3370 2195 
Q 3706 1856 3706 1288 
Q 3706 609 3251 259 
Q 2797 -91 1919 -91 
Q 1588 -91 1214 -16 
Q 841 59 441 206 
L 441 856 
Q 825 641 1194 531 
Q 1563 422 1919 422 
Q 2459 422 2753 634 
Q 3047 847 3047 1241 
Q 3047 1584 2836 1778 
Q 2625 1972 2144 2069 
L 1759 2144 
Q 1053 2284 737 2584 
Q 422 2884 422 3419 
Q 422 4038 858 4394 
Q 1294 4750 2059 4750 
Q 2388 4750 2728 4690 
Q 3069 4631 3425 4513 
z
" transform="scale(0.015625)"/>
        <path id="DejaVuSans-65" d="M 3597 1894 
L 3597 1613 
L 953 1613 
Q 991 1019 1311 708 
Q 1631 397 2203 397 
Q 2534 397 2845 478 
Q 3156 559 3463 722 
L 3463 178 
Q 3153 47 2828 -22 
Q 2503 -91 2169 -91 
Q 1331 -91 842 396 
Q 353 884 353 1716 
Q 353 2575 817 3079 
Q 1281 3584 2069 3584 
Q 2775 3584 3186 3129 
Q 3597 2675 3597 1894 
z
M 3022 2063 
Q 3016 2534 2758 2815 
Q 2500 3097 2075 3097 
Q 1594 3097 1305 2825 
Q 1016 2553 972 2059 
L 3022 2063 
z
" transform="scale(0.015625)"/>
        <path id="DejaVuSans-70" d="M 1159 525 
L 1159 -1331 
L 581 -1331 
L 581 3500 
L 1159 3500 
L 1159 2969 
Q 1341 3281 1617 3432 
Q 1894 3584 2278 3584 
Q 2916 3584 3314 3078 
Q 3713 2572 3713 1747 
Q 3713 922 3314 415 
Q 2916 -91 2278 -91 
Q 1894 -91 1617 61 
Q 1341 213 1159 525 
z
M 3116 1747 
Q 3116 2381 2855 2742 
Q 2594 3103 2138 3103 
Q 1681 3103 1420 2742 
Q 1159 2381 1159 1747 
Q 1159 1113 1420 752 
Q 1681 391 2138 391 
Q 2594 391 2855 752 
Q 3116 1113 3116 1747 
z
" transform="scale(0.015625)"/>
       </defs>
       <use xlink:href="#DejaVuSans-53"/>
       <use xlink:href="#DejaVuSans-65" transform="translate(63.476562 0)"/>
       <use xlink:href="#DejaVuSans-70" transform="translate(125 0)"/>
      </g>
     </g>
    </g>
    <g id="xtick_2">
     <g id="line2d_3">
      <path d="M 204.9095 455.237812 
L 204.9095 38.397812 
" clip-path="url(#pce26fb3087)" style="fill: none; stroke: #d0d7de; stroke-opacity: 0.25; stroke-width: 0.5; stroke-linecap: square"/>
     </g>
     <g id="line2d_4">
      <g>
       <use xlink:href="#medd6c9aa74" x="204.9095" y="455.237812" style="fill: #24292f; stroke: #24292f; stroke-width: 0.8"/>
      </g>
     </g>
     <g id="text_2">
      <!-- Oct -->
      <g style="fill: #24292f" transform="translate(196.264187 469.83625) scale(0.1 -0.1)">
       <defs>
        <path id="DejaVuSans-4f" d="M 2522 4238 
Q 1834 4238 1429 3725 
Q 1025 3213 1025 2328 
Q 1025 1447 1429 934 
Q 1834 422 2522 422 
Q 3209 422 3611 934 
Q 4013 1447 4013 2328 
Q 4013 3213 3611 3725 
Q 3209 4238 2522 4238 
z
M 2522 4750 
Q 3503 4750 4090 4092 
Q 4678 3434 4678 2328 
Q 4678 1225 4090 567 
Q 3503 -91 2522 -91 
Q 1538 -91 948 565 
Q 359 1222 359 2328 
Q 359 3434 948 4092 
Q 1538 4750 2522 4750 
z
" transform="scale(0.015625)"/>
        <path id="DejaVuSans-63" d="M 3122 3366 
L 3122 2828 
Q 2878 2963 2633 3030 
Q 2388 3097 2138 3097 
Q 1578 3097 1268 2742 
Q 959 2388 959 1747 
Q 959 1106 1268 751 
Q 1578 397 2138 397 
Q 2388 397 2633 464 
Q 2878 531 3122 666 
L 3122 134 
Q 2881 22 2623 -34 
Q 2366 -91 2075 -91 
Q 1284 -91 818 406 
Q 353 903 353 1747 
Q 353 2603 823 3093 
Q 1294 3584 2113 3584 
Q 2378 3584 2631 3529 
Q 2884 3475 3122 3366 
z
" transform="scale(0.015625)"/>
        <path id="DejaVuSans-74" d="M 1172 4494 
L 1172 3500 
L 2356 3500 
L 2356 3053 
L 1172 3053 
L 1172 1153 
Q 1172 725 1289 603 
Q 1406 481 1766 481 
L 2356 481 
L 2356 0 
L 1766 0 
Q 1100 0 847 248 
Q 594 497 594 1153 
L 594 3053 
L 172 3053 
L 172 3500 
L 594 3500 
L 594 4494 
L 1172 4494 
z
" transform="scale(0.015625)"/>
       </defs>
       <use xlink:href="#DejaVuSans-4f"/>
       <use xlink:href="#DejaVuSans-63" transform="translate(78.710938 0)"/>
       <use xlink:href="#DejaVuSans-74" transform="translate(133.691406 0)"/>
      </g>
     </g>
    </g>
    <g id="xtick_3">
     <g id="line2d_5">
      <path d="M 327.374726 455.237812 
L 327.374726 38.397812 
" clip-path="url(#pce26fb3087)" style="fill: none; stroke: #d0d7de; stroke-opacity: 0.25; stroke-width: 0.5; stroke-linecap: square"/>
     </g>
     <g id="line2d_6">
      <g>
       <use xlink:href="#medd6c9aa74" x="327.374726" y="455.237812" style="fill: #24292f; stroke: #24292f; stroke-width: 0.8"/>
      </g>
     </g>
     <g id="text_3">
      <!-- Nov -->
      <g style="fill: #24292f" transform="translate(317.615351 469.83625) scale(0.1 -0.1)">
       <defs>
        <path id="DejaVuSans-4e" d="M 628 4666 
L 1478 4666 
L 3547 763 
L 3547 4666 
L 4159 4666 
L 4159 0 
L 3309 0 
L 1241 3903 
L 1241 0 
L 628 0 
L 628 4666 
z
" transform="scale(0.015625)"/>
        <path id="DejaVuSans-6f" d="M 1959 3097 
Q 1497 3097 1228 2736 
Q 959 2375 959 1747 
Q 959 1119 1226 758 
Q 1494 397 1959 397 
Q 2419 397 2687 759 
Q 2956 1122 2956 1747 
Q 2956 2369 2687 2733 
Q 2419 3097 1959 3097 
z
M 1959 3584 
Q 2709 3584 3137 3096 
Q 3566 2609 3566 1747 
Q 3566 888 3137 398 
Q 2709 -91 1959 -91 
Q 1206 -91 779 398 
Q 353 888 353 1747 
Q 353 2609 779 3096 
Q 1206 3584 1959 3584 
z
" transform="scale(0.015625)"/>
        <path id="DejaVuSans-76" d="M 191 3500 
L 800 3500 
L 1894 563 
L 2988 3500 
L 3597 3500 
L 2284 0 
L 1503 0 
L 191 3500 
z
" transform="scale(0.015625)"/>
       </defs>
       <use xlink:href="#DejaVuSans-4e"/>
       <use xlink:href="#DejaVuSans-6f" transform="translate(74.804688 0)"/>
       <use xlink:href="#DejaVuSans-76" transform="translate(135.986328 0)"/>
      </g>
     </g>
    </g>
    <g id="xtick_4">
     <g id="line2d_7">
      <path d="M 445.88946 455.237812 
L 445.88946 38.397812 
" clip-path="url(#pce26fb3087)" style="fill: none; stroke: #d0d7de; stroke-opacity: 0.25; stroke-width: 0.5; stroke-linecap: square"/>
     </g>
     <g id="line2d_8">
      <g>
       <use xlink:href="#medd6c9aa74" x="445.88946" y="455.237812" style="fill: #24292f; stroke: #24292f; stroke-width: 0.8"/>
      </g>
     </g>
     <g id="text_4">
      <!-- Dec -->
      <g style="fill: #24292f" transform="translate(436.213679 469.83625) scale(0.1 -0.1)">
       <defs>
        <path id="DejaVuSans-44" d="M 1259 4147 
L 1259 519 
L 2022 519 
Q 2988 519 3436 956 
Q 3884 1394 3884 2338 
Q 3884 3275 3436 3711 
Q 2988 4147 2022 4147 
L 1259 4147 
z
M 628 4666 
L 1925 4666 
Q 3281 4666 3915 4102 
Q 4550 3538 4550 2338 
Q 4550 1131 3912 565 
Q 3275 0 1925 0 
L 628 0 
L 628 4666 
z
" transform="scale(0.015625)"/>
       </defs>
       <use xlink:href="#DejaVuSans-44"/>
       <use xlink:href="#DejaVuSans-65" transform="translate(77.001953 0)"/>
       <use xlink:href="#DejaVuSans-63" transform="translate(138.525391 0)"/>
      </g>
     </g>
    </g>
    <g id="xtick_5">
     <g id="line2d_9">
      <path d="M 568.354686 455.237812 
L 568.354686 38.397812 
" clip-path="url(#pce26fb3087)" style="fill: none; stroke: #d0d7de; stroke-opacity: 0.25; stroke-width: 0.5; stroke-linecap: square"/>
     </g>
     <g id="line2d_10">
      <g>
       <use xlink:href="#medd6c9aa74" x="568.354686" y="455.237812" style="fill: #24292f; stroke: #24292f; stroke-width: 0.8"/>
      </g>
     </g>
     <g id="text_5">
      <!-- 2026 -->
      <g style="fill: #24292f" transform="translate(555.629686 469.83625) scale(0.1 -0.1)">
       <defs>
        <path id="DejaVuSans-32" d="M 1228 531 
L 3431 531 
L 3431 0 
L 469 0 
L 469 531 
Q 828 903 1448 1529 
Q 2069 2156 2228 2338 
Q 2531 2678 2651 2914 
Q 2772 3150 2772 3378 
Q 2772 3750 2511 3984 
Q 2250 4219 1831 4219 
Q 1534 4219 1204 4116 
Q 875 4013 500 3803 
L 500 4441 
Q 881 4594 1212 4672 
Q 1544 4750 1819 4750 
Q 2544 4750 2975 4387 
Q 3406 4025 3406 3419 
Q 3406 3131 3298 2873 
Q 3191 2616 2906 2266 
Q 2828 2175 2409 1742 
Q 1991 1309 1228 531 
z
" transform="scale(0.015625)"/>
        <path id="DejaVuSans-30" d="M 2034 4250 
Q 1547 4250 1301 3770 
Q 1056 3291 1056 2328 
Q 1056 1369 1301 889 
Q 1547 409 2034 409 
Q 2525 409 2770 889 
Q 3016 1369 3016 2328 
Q 3016 3291 2770 3770 
Q 2525 4250 2034 4250 
z
M 2034 4750 
Q 2819 4750 3233 4129 
Q 3647 3509 3647 2328 
Q 3647 1150 3233 529 
Q 2819 -91 2034 -91 
Q 1250 -91 836 529 
Q 422 1150 422 2328 
Q 422 3509 836 4129 
Q 1250 4750 2034 4750 
z
" transform="scale(0.015625)"/>
        <path id="DejaVuSans-36" d="M 2113 2584 
Q 1688 2584 1439 2293 
Q 1191 2003 1191 1497 
Q 1191 994 1439 701 
Q 1688 409 2113 409 
Q 2538 409 2786 701 
Q 3034 994 3034 1497 
Q 3034 2003 2786 2293 
Q 2538 2584 2113 2584 
z
M 3366 4563 
L 3366 3988 
Q 3128 4100 2886 4159 
Q 2644 4219 2406 4219 
Q 1781 4219 1451 3797 
Q 1122 3375 1075 2522 
Q 1259 2794 1537 2939 
Q 1816 3084 2150 3084 
Q 2853 3084 3261 2657 
Q 3669 2231 3669 1497 
Q 3669 778 3244 343 
Q 2819 -91 2113 -91 
Q 1303 -91 875 529 
Q 447 1150 447 2328 
Q 447 3434 972 4092 
Q 1497 4750 2381 4750 
Q 2619 4750 2861 4703 
Q 3103 4656 3366 4563 
z
" transform="scale(0.015625)"/>
       </defs>
       <use xlink:href="#DejaVuSans-32"/>
       <use xlink:href="#DejaVuSans-30" transform="translate(63.623047 0)"/>
       <use xlink:href="#DejaVuSans-32" transform="translate(127.246094 0)"/>
       <use xlink:href="#DejaVuSans-36" transform="translate(190.869141 0)"/>
      </g>
     </g>
    </g>
    <g id="xtick_6">
     <g id="line2d_11">
      <path d="M 690.819912 455.237812 
L 690.819912 38.397812 
" clip-path="url(#pce26fb3087)" style="fill: none; stroke: #d0d7de; stroke-opacity: 0.25; stroke-width: 0.5; stroke-linecap: square"/>
     </g>
     <g id="line2d_12">
      <g>
       <use xlink:href="#medd6c9aa74" x="690.819912" y="455.237812" style="fill: #24292f; stroke: #24292f; stroke-width: 0.8"/>
      </g>
     </g>
     <g id="text_6">
      <!-- Feb -->
      <g style="fill: #24292f" transform="translate(681.96835 469.83625) scale(0.1 -0.1)">
       <defs>
        <path id="DejaVuSans-46" d="M 628 4666 
L 3309 4666 
L 3309 4134 
L 1259 4134 
L 1259 2759 
L 3109 2759 
L 3109 2228 
L 1259 2228 
L 1259 0 
L 628 0 
L 628 4666 
z
" transform="scale(0.015625)"/>
        <path id="DejaVuSans-62" d="M 3116 1747 
Q 3116 2381 2855 2742 
Q 2594 3103 2138 3103 
Q 1681 3103 1420 2742 
Q 1159 2381 1159 1747 
Q 1159 1113 1420 752 
Q 1681 391 2138 391 
Q 2594 391 2855 752 
Q 3116 1113 3116 1747 
z
M 1159 2969 
Q 1341 3281 1617 3432 
Q 1894 3584 2278 3584 
Q 2916 3584 3314 3078 
Q 3713 2572 3713 1747 
Q 3713 922 3314 415 
Q 2916 -91 2278 -91 
Q 1894 -91 1617 61 
Q 1341 213 1159 525 
L 1159 0 
L 581 0 
L 581 4863 
L 1159 4863 
L 1159 2969 
z
" transform="scale(0.015625)"/>
       </defs>
       <use xlink:href="#DejaVuSans-46"/>
       <use xlink:href="#DejaVuSans-65" transform="translate(52.019531 0)"/>
       <use xlink:href="#DejaVuSans-62" transform="translate(113.542969 0)"/>
      </g>
     </g>
    </g>
    <g id="xtick_7">
     <g id="line2d_13">
      <path d="M 801.433665 455.237812 
L 801.433665 38.397812 
" clip-path="url(#pce26fb3087)" style="fill: none; stroke: #d0d7de; stroke-opacity: 0.25; stroke-width: 0.5; stroke-linecap: square"/>
     </g>
     <g id="line2d_14">
      <g>
       <use xlink:href="#medd6c9aa74" x="801.433665" y="455.237812" style="fill: #24292f; stroke: #24292f; stroke-width: 0.8"/>
      </g>
     </g>
     <g id="text_7">
      <!-- Mar -->
      <g style="fill: #24292f" transform="translate(792.000071 469.83625) scale(0.1 -0.1)">
       <defs>
        <path id="DejaVuSans-4d" d="M 628 4666 
L 1569 4666 
L 2759 1491 
L 3956 4666 
L 4897 4666 
L 4897 0 
L 4281 0 
L 4281 4097 
L 3078 897 
L 2444 897 
L 1241 4097 
L 1241 0 
L 628 0 
L 628 4666 
z
" transform="scale(0.015625)"/>
        <path id="DejaVuSans-61" d="M 2194 1759 
Q 1497 1759 1228 1600 
Q 959 1441 959 1056 
Q 959 750 1161 570 
Q 1363 391 1709 391 
Q 2188 391 2477 730 
Q 2766 1069 2766 1631 
L 2766 1759 
L 2194 1759 
z
M 3341 1997 
L 3341 0 
L 2766 0 
L 2766 531 
Q 2569 213 2275 61 
Q 1981 -91 1556 -91 
Q 1019 -91 701 211 
Q 384 513 384 1019 
Q 384 1609 779 1909 
Q 1175 2209 1959 2209 
L 2766 2209 
L 2766 2266 
Q 2766 2663 2505 2880 
Q 2244 3097 1772 3097 
Q 1472 3097 1187 3025 
Q 903 2953 641 2809 
L 641 3341 
Q 956 3463 1253 3523 
Q 1550 3584 1831 3584 
Q 2591 3584 2966 3190 
Q 3341 2797 3341 1997 
z
" transform="scale(0.015625)"/>
        <path id="DejaVuSans-72" d="M 2631 2963 
Q 2534 3019 2420 3045 
Q 2306 3072 2169 3072 
Q 1681 3072 1420 2755 
Q 1159 2438 1159 1844 
L 1159 0 
L 581 0 
L 581 3500 
L 1159 3500 
L 1159 2956 
Q 1341 3275 1631 3429 
Q 1922 3584 2338 3584 
Q 2397 3584 2469 3576 
Q 2541 3569 2628 3553 
L 2631 2963 
z
" transform="scale(0.015625)"/>
       </defs>
       <use xlink:href="#DejaVuSans-4d"/>
       <use xlink:href="#DejaVuSans-61" transform="translate(86.279297 0)"/>
       <use xlink:href="#DejaVuSans-72" transform="translate(147.558594 0)"/>
      </g>
     </g>
    </g>
    <g id="text_8">
     <!-- Date -->
     <g style="fill: #24292f" transform="translate(434.285313 485.034062) scale(0.12 -0.12)">
      <use xlink:href="#DejaVuSans-44"/>
      <use xlink:href="#DejaVuSans-61" transform="translate(77.001953 0)"/>
      <use xlink:href="#DejaVuSans-74" transform="translate(138.28125 0)"/>
      <use xlink:href="#DejaVuSans-65" transform="translate(177.490234 0)"/>
     </g>
    </g>
   </g>
   <g id="matplotlib.axis_2">
    <g id="ytick_1">
     <g id="line2d_15">
      <path d="M 48.90125 455.237812 
L 848.35125 455.237812 
" clip-path="url(#pce26fb3087)" style="fill: none; stroke: #d0d7de; stroke-opacity: 0.25; stroke-width: 0.5; stroke-linecap: square"/>
     </g>
     <g id="line2d_16">
      <defs>
       <path id="m8717506643" d="M 0 0 
L -3.5 0 
" style="stroke: #24292f; stroke-width: 0.8"/>
      </defs>
      <g>
       <use xlink:href="#m8717506643" x="48.90125" y="455.237812" style="fill: #24292f; stroke: #24292f; stroke-width: 0.8"/>
      </g>
     </g>
     <g id="text_9">
      <!-- 0 -->
      <g style="fill: #24292f" transform="translate(35.53875 459.037031) scale(0.1 -0.1)">
       <use xlink:href="#DejaVuSans-30"/>
      </g>
     </g>
    </g>
    <g id="ytick_2">
     <g id="line2d_17">
      <path d="M 48.90125 399.659146 
L 848.35125 399.659146 
" clip-path="url(#pce26fb3087)" style="fill: none; stroke: #d0d7de; stroke-opacity: 0.25; stroke-width: 0.5; stroke-linecap: square"/>
     </g>
     <g id="line2d_18">
      <g>
       <use xlink:href="#m8717506643" x="48.90125" y="399.659146" style="fill: #24292f; stroke: #24292f; stroke-width: 0.8"/>
      </g>
     </g>
     <g id="text_10">
      <!-- 100 -->
      <g style="fill: #24292f" transform="translate(22.81375 403.458365) scale(0.1 -0.1)">
       <defs>
        <path id="DejaVuSans-31" d="M 794 531 
L 1825 531 
L 1825 4091 
L 703 3866 
L 703 4441 
L 1819 4666 
L 2450 4666 
L 2450 531 
L 3481 531 
L 3481 0 
L 794 0 
L 794 531 
z
" transform="scale(0.015625)"/>
       </defs>
       <use xlink:href="#DejaVuSans-31"/>
       <use xlink:href="#DejaVuSans-30" transform="translate(63.623047 0)"/>
       <use xlink:href="#DejaVuSans-30" transform="translate(127.246094 0)"/>
      </g>
     </g>
    </g>
    <g id="ytick_3">
     <g id="line2d_19">
      <path d="M 48.90125 344.080479 
L 848.35125 344.080479 
" clip-path="url(#pce26fb3087)" style="fill: none; stroke: #d0d7de; stroke-opacity: 0.25; stroke-width: 0.5; stroke-linecap: square"/>
     </g>
     <g id="line2d_20">
      <g>
       <use xlink:href="#m8717506643" x="48.90125" y="344.080479" style="fill: #24292f; stroke: #24292f; stroke-width: 0.8"/>
      </g>
     </g>
     <g id="text_11">
      <!-- 200 -->
      <g style="fill: #24292f" transform="translate(22.81375 347.879698) scale(0.1 -0.1)">
       <use xlink:href="#DejaVuSans-32"/>
       <use xlink:href="#DejaVuSans-30" transform="translate(63.623047 0)"/>
       <use xlink:href="#DejaVuSans-30" transform="translate(127.246094 0)"/>
      </g>
     </g>
    </g>
    <g id="ytick_4">
     <g id="line2d_21">
      <path d="M 48.90125 288.501812 
L 848.35125 288.501812 
" clip-path="url(#pce26fb3087)" style="fill: none; stroke: #d0d7de; stroke-opacity: 0.25; stroke-width: 0.5; stroke-linecap: square"/>
     </g>
     <g id="line2d_22">
      <g>
       <use xlink:href="#m8717506643" x="48.90125" y="288.501812" style="fill: #24292f; stroke: #24292f; stroke-width: 0.8"/>
      </g>
     </g>
     <g id="text_12">
      <!-- 300 -->
      <g style="fill: #24292f" transform="translate(22.81375 292.301031) scale(0.1 -0.1)">
       <defs>
        <path id="DejaVuSans-33" d="M 2597 2516 
Q 3050 2419 3304 2112 
Q 3559 1806 3559 1356 
Q 3559 666 3084 287 
Q 2609 -91 1734 -91 
Q 1441 -91 1130 -33 
Q 819 25 488 141 
L 488 750 
Q 750 597 1062 519 
Q 1375 441 1716 441 
Q 2309 441 2620 675 
Q 2931 909 2931 1356 
Q 2931 1769 2642 2001 
Q 2353 2234 1838 2234 
L 1294 2234 
L 1294 2753 
L 1863 2753 
Q 2328 2753 2575 2939 
Q 2822 3125 2822 3475 
Q 2822 3834 2567 4026 
Q 2313 4219 1838 4219 
Q 1578 4219 1281 4162 
Q 984 4106 628 3988 
L 628 4550 
Q 988 4650 1302 4700 
Q 1616 4750 1894 4750 
Q 2613 4750 3031 4423 
Q 3450 4097 3450 3541 
Q 3450 3153 3228 2886 
Q 3006 2619 2597 2516 
z
" transform="scale(0.015625)"/>
       </defs>
       <use xlink:href="#DejaVuSans-33"/>
       <use xlink:href="#DejaVuSans-30" transform="translate(63.623047 0)"/>
       <use xlink:href="#DejaVuSans-30" transform="translate(127.246094 0)"/>
      </g>
     </g>
    </g>
    <g id="ytick_5">
     <g id="line2d_23">
      <path d="M 48.90125 232.923146 
L 848.35125 232.923146 
" clip-path="url(#pce26fb3087)" style="fill: none; stroke: #d0d7de; stroke-opacity: 0.25; stroke-width: 0.5; stroke-linecap: square"/>
     </g>
     <g id="line2d_24">
      <g>
       <use xlink:href="#m8717506643" x="48.90125" y="232.923146" style="fill: #24292f; stroke: #24292f; stroke-width: 0.8"/>
      </g>
     </g>
     <g id="text_13">
      <!-- 400 -->
      <g style="fill: #24292f" transform="translate(22.81375 236.722365) scale(0.1 -0.1)">
       <defs>
        <path id="DejaVuSans-34" d="M 2419 4116 
L 825 1625 
L 2419 1625 
L 2419 4116 
z
M 2253 4666 
L 3047 4666 
L 3047 1625 
L 3713 1625 
L 3713 1100 
L 3047 1100 
L 3047 0 
L 2419 0 
L 2419 1100 
L 313 1100 
L 313 1709 
L 2253 4666 
z
" transform="scale(0.015625)"/>
       </defs>
       <use xlink:href="#DejaVuSans-34"/>
       <use xlink:href="#DejaVuSans-30" transform="translate(63.623047 0)"/>
       <use xlink:href="#DejaVuSans-30" transform="translate(127.246094 0)"/>
      </g>
     </g>
    </g>
    <g id="ytick_6">
     <g id="line2d_25">
      <path d="M 48.90125 177.344479 
L 848.35125 177.344479 
" clip-path="url(#pce26fb3087)" style="fill: none; stroke: #d0d7de; stroke-opacity: 0.25; stroke-width: 0.5; stroke-linecap: square"/>
     </g>
     <g id="line2d_26">
      <g>
       <use xlink:href="#m8717506643" x="48.90125" y="177.344479" style="fill: #24292f; stroke: #24292f; stroke-width: 0.8"/>
      </g>
     </g>
     <g id="text_14">
      <!-- 500 -->
      <g style="fill: #24292f" transform="translate(22.81375 181.143698) scale(0.1 -0.1)">
       <defs>
        <path id="DejaVuSans-35" d="M 691 4666 
L 3169 4666 
L 3169 4134 
L 1269 4134 
L 1269 2991 
Q 1406 3038 1543 3061 
Q 1681 3084 1819 3084 
Q 2600 3084 3056 2656 
Q 3513 2228 3513 1497 
Q 3513 744 3044 326 
Q 2575 -91 1722 -91 
Q 1428 -91 1123 -41 
Q 819 9 494 109 
L 494 744 
Q 775 591 1075 516 
Q 1375 441 1709 441 
Q 2250 441 2565 725 
Q 2881 1009 2881 1497 
Q 2881 1984 2565 2268 
Q 2250 2553 1709 2553 
Q 1456 2553 1204 2497 
Q 953 2441 691 2322 
L 691 4666 
z
" transform="scale(0.015625)"/>
       </defs>
       <use xlink:href="#DejaVuSans-35"/>
       <use xlink:href="#DejaVuSans-30" transform="translate(63.623047 0)"/>
       <use xlink:href="#DejaVuSans-30" transform="translate(127.246094 0)"/>
      </g>
     </g>
    </g>
    <g id="ytick_7">
     <g id="line2d_27">
      <path d="M 48.90125 121.765812 
L 848.35125 121.765812 
" clip-path="url(#pce26fb3087)" style="fill: none; stroke: #d0d7de; stroke-opacity: 0.25; stroke-width: 0.5; stroke-linecap: square"/>
     </g>
     <g id="line2d_28">
      <g>
       <use xlink:href="#m8717506643" x="48.90125" y="121.765812" style="fill: #24292f; stroke: #24292f; stroke-width: 0.8"/>
      </g>
     </g>
     <g id="text_15">
      <!-- 600 -->
      <g style="fill: #24292f" transform="translate(22.81375 125.565031) scale(0.1 -0.1)">
       <use xlink:href="#DejaVuSans-36"/>
       <use xlink:href="#DejaVuSans-30" transform="translate(63.623047 0)"/>
       <use xlink:href="#DejaVuSans-30" transform="translate(127.246094 0)"/>
      </g>
     </g>
    </g>
    <g id="ytick_8">
     <g id="line2d_29">
      <path d="M 48.90125 66.187146 
L 848.35125 66.187146 
" clip-path="url(#pce26fb3087)" style="fill: none; stroke: #d0d7de; stroke-opacity: 0.25; stroke-width: 0.5; stroke-linecap: square"/>
     </g>
     <g id="line2d_30">
      <g>
       <use xlink:href="#m8717506643" x="48.90125" y="66.187146" style="fill: #24292f; stroke: #24292f; stroke-width: 0.8"/>
      </g>
     </g>
     <g id="text_16">
      <!-- 700 -->
      <g style="fill: #24292f" transform="translate(22.81375 69.986365) scale(0.1 -0.1)">
       <defs>
        <path id="DejaVuSans-37" d="M 525 4666 
L 3525 4666 
L 3525 4397 
L 1831 0 
L 1172 0 
L 2766 4134 
L 525 4134 
L 525 4666 
z
" transform="scale(0.015625)"/>
       </defs>
       <use xlink:href="#DejaVuSans-37"/>
       <use xlink:href="#DejaVuSans-30" transform="translate(63.623047 0)"/>
       <use xlink:href="#DejaVuSans-30" transform="translate(127.246094 0)"/>
      </g>
     </g>
    </g>
    <g id="text_17">
     <!-- Count -->
     <g style="fill: #24292f" transform="translate(16.318125 264.635937) rotate(-90) scale(0.12 -0.12)">
      <defs>
       <path id="DejaVuSans-43" d="M 4122 4306 
L 4122 3641 
Q 3803 3938 3442 4084 
Q 3081 4231 2675 4231 
Q 1875 4231 1450 3742 
Q 1025 3253 1025 2328 
Q 1025 1406 1450 917 
Q 1875 428 2675 428 
Q 3081 428 3442 575 
Q 3803 722 4122 1019 
L 4122 359 
Q 3791 134 3420 21 
Q 3050 -91 2638 -91 
Q 1578 -91 968 557 
Q 359 1206 359 2328 
Q 359 3453 968 4101 
Q 1578 4750 2638 4750 
Q 3056 4750 3426 4639 
Q 3797 4528 4122 4306 
z
" transform="scale(0.015625)"/>
       <path id="DejaVuSans-75" d="M 544 1381 
L 544 3500 
L 1119 3500 
L 1119 1403 
Q 1119 906 1312 657 
Q 1506 409 1894 409 
Q 2359 409 2629 706 
Q 2900 1003 2900 1516 
L 2900 3500 
L 3475 3500 
L 3475 0 
L 2900 0 
L 2900 538 
Q 2691 219 2414 64 
Q 2138 -91 1772 -91 
Q 1169 -91 856 284 
Q 544 659 544 1381 
z
M 1991 3584 
L 1991 3584 
z
" transform="scale(0.015625)"/>
       <path id="DejaVuSans-6e" d="M 3513 2113 
L 3513 0 
L 2938 0 
L 2938 2094 
Q 2938 2591 2744 2837 
Q 2550 3084 2163 3084 
Q 1697 3084 1428 2787 
Q 1159 2491 1159 1978 
L 1159 0 
L 581 0 
L 581 3500 
L 1159 3500 
L 1159 2956 
Q 1366 3272 1645 3428 
Q 1925 3584 2291 3584 
Q 2894 3584 3203 3211 
Q 3513 2838 3513 2113 
z
" transform="scale(0.015625)"/>
      </defs>
      <use xlink:href="#DejaVuSans-43"/>
      <use xlink:href="#DejaVuSans-6f" transform="translate(69.824219 0)"/>
      <use xlink:href="#DejaVuSans-75" transform="translate(131.005859 0)"/>
      <use xlink:href="#DejaVuSans-6e" transform="translate(194.384766 0)"/>
      <use xlink:href="#DejaVuSans-74" transform="translate(257.763672 0)"/>
     </g>
    </g>
   </g>
   <g id="line2d_31">
    <path d="M 85.239886 454.682026 
L 85.315558 454.682026 
L 85.363568 454.126239 
L 85.601009 454.126239 
L 85.708413 257.933546 
L 89.036382 257.933546 
L 89.050922 261.268266 
L 92.901004 261.268266 
L 93.087327 260.712479 
L 93.621832 260.712479 
L 94.055014 260.156692 
L 96.739199 259.600906 
L 96.792192 260.156692 
L 96.920858 259.600906 
L 105.232984 259.600906 
L 110.247547 260.712479 
L 110.993659 259.600906 
L 111.538452 259.600906 
L 112.911522 259.045119 
L 113.48599 256.821972 
L 114.604564 256.821972 
L 116.234599 260.712479 
L 116.340357 256.821972 
L 117.591163 256.266186 
L 120.846431 256.266186 
L 121.705069 255.710399 
L 122.980474 255.710399 
L 123.322347 254.598826 
L 131.271979 254.598826 
L 131.851796 253.487252 
L 131.881516 252.375679 
L 134.384819 252.375679 
L 138.07606 251.264106 
L 140.012395 251.264106 
L 140.041703 250.708319 
L 144.488566 250.708319 
L 145.591686 247.929386 
L 149.082796 247.929386 
L 149.107029 247.373599 
L 168.658988 247.373599 
L 172.313741 246.817812 
L 172.43852 247.373599 
L 176.22898 246.817812 
L 189.419459 246.817812 
L 195.812716 246.262026 
L 195.936215 245.706239 
L 196.239909 245.150452 
L 199.846561 245.150452 
L 201.381583 244.594666 
L 207.711834 244.594666 
L 207.952155 247.373599 
L 207.963952 245.150452 
L 208.271715 245.150452 
L 209.79997 242.927306 
L 217.282401 242.927306 
L 223.016969 242.371519 
L 229.390565 242.371519 
L 229.670255 241.815732 
L 246.232003 241.815732 
L 246.938839 241.259946 
L 250.960247 241.259946 
L 250.988596 240.148372 
L 258.650811 240.148372 
L 258.806224 236.257866 
L 272.674414 236.257866 
L 272.678575 235.702079 
L 273.080208 235.702079 
L 274.511164 235.146292 
L 276.604422 235.146292 
L 277.169378 234.590506 
L 277.225892 235.146292 
L 278.519587 234.590506 
L 278.525485 234.034719 
L 278.555708 234.590506 
L 279.303009 234.034719 
L 286.110428 234.034719 
L 288.226913 233.478932 
L 290.73831 233.478932 
L 295.00388 232.923146 
L 299.042022 232.923146 
L 302.161905 231.811572 
L 308.989579 231.811572 
L 312.961285 230.699999 
L 314.080317 231.255786 
L 319.623761 231.255786 
L 325.877014 229.032639 
L 335.202962 229.032639 
L 338.09528 228.476852 
L 389.639816 228.476852 
L 390.056081 227.921066 
L 408.853194 227.921066 
L 409.167267 227.365279 
L 441.152392 227.365279 
L 448.195422 226.809492 
L 448.236162 227.365279 
L 453.27793 225.697919 
L 460.677008 225.697919 
L 464.717163 225.142132 
L 464.723793 224.586346 
L 473.153611 224.586346 
L 476.179165 225.142132 
L 477.266785 224.586346 
L 491.374519 224.586346 
L 491.974912 225.142132 
L 493.074739 224.586346 
L 493.452688 222.363199 
L 499.917822 222.363199 
L 499.923401 221.807412 
L 519.706582 221.807412 
L 520.858626 221.251626 
L 524.660608 221.251626 
L 525.031515 220.695839 
L 543.571253 220.695839 
L 543.596446 220.140052 
L 548.233518 220.140052 
L 548.240422 219.584266 
L 549.365626 219.584266 
L 549.424381 219.028479 
L 551.171696 219.028479 
L 551.446218 218.472692 
L 555.186017 218.472692 
L 555.754494 217.361119 
L 557.813276 215.137972 
L 562.791764 215.137972 
L 563.159333 212.359039 
L 564.828736 212.359039 
L 565.648051 211.247466 
L 569.869956 211.247466 
L 571.25528 210.691679 
L 575.220768 210.691679 
L 575.752255 210.135892 
L 586.522876 210.135892 
L 586.788254 209.580106 
L 587.784427 209.580106 
L 589.331017 209.024319 
L 606.751769 209.024319 
L 606.908279 208.468532 
L 607.466835 208.468532 
L 608.63287 207.356959 
L 610.26766 207.356959 
L 610.660743 206.801172 
L 611.039469 206.801172 
L 611.183177 206.245386 
L 615.555054 206.245386 
L 616.299338 205.689599 
L 620.104703 205.689599 
L 620.348682 205.133812 
L 622.433115 205.133812 
L 622.566673 204.578026 
L 629.04461 204.578026 
L 629.183883 204.022239 
L 632.961906 204.022239 
L 634.01601 202.354879 
L 634.223777 201.799092 
L 635.622818 201.799092 
L 635.624281 201.243306 
L 641.304941 201.243306 
L 642.339247 200.687519 
L 646.695989 200.687519 
L 647.552706 200.131732 
L 647.874964 200.131732 
L 648.712066 199.575946 
L 650.850361 199.575946 
L 651.097495 199.020159 
L 656.460332 199.020159 
L 657.842684 198.464372 
L 657.943367 197.908586 
L 658.390906 197.908586 
L 659.803481 195.685439 
L 664.184274 195.685439 
L 664.215823 195.129652 
L 668.385055 195.129652 
L 668.627479 194.573866 
L 669.256312 194.573866 
L 669.733068 194.018079 
L 669.832516 194.573866 
L 670.189524 194.018079 
L 671.775664 194.018079 
L 671.790844 193.462292 
L 672.212047 193.462292 
L 672.396495 192.906506 
L 673.670986 192.350719 
L 682.538375 192.350719 
L 683.924339 191.794932 
L 684.85211 191.794932 
L 685.604807 191.239146 
L 686.366236 191.794932 
L 689.501344 191.794932 
L 689.636548 190.683359 
L 694.137227 190.683359 
L 695.883491 189.015999 
L 714.837938 189.015999 
L 715.939549 188.460212 
L 745.196777 188.460212 
L 745.24753 187.904426 
L 788.366958 187.904426 
L 788.556344 187.348639 
L 788.569924 186.792852 
L 788.583412 187.348639 
L 794.849193 187.348639 
L 796.263917 186.792852 
L 812.012614 186.792852 
L 812.012614 186.792852 
" clip-path="url(#pce26fb3087)" style="fill: none; stroke: #1a7f37; stroke-width: 2; stroke-linecap: square"/>
   </g>
   <g id="line2d_32">
    <path d="M 85.239886 455.237812 
L 85.363568 453.570452 
L 85.498131 453.570452 
L 85.601009 372.981386 
L 87.466473 372.981386 
L 87.504835 370.758239 
L 89.427819 370.758239 
L 89.923276 369.090879 
L 90.59742 370.758239 
L 90.602404 369.090879 
L 91.160228 369.090879 
L 91.375813 367.979306 
L 96.884599 367.979306 
L 96.889857 367.423519 
L 96.920858 367.979306 
L 97.191997 367.423519 
L 97.27151 367.979306 
L 97.483574 367.423519 
L 99.416709 367.423519 
L 99.517848 366.867732 
L 99.793331 366.311946 
L 101.975932 366.311946 
L 104.459712 365.756159 
L 104.547135 365.200372 
L 105.218444 364.644586 
L 105.232984 364.088799 
L 110.247547 367.979306 
L 110.993659 366.311946 
L 111.538452 363.533012 
L 114.604564 363.533012 
L 116.234599 367.979306 
L 116.340357 363.533012 
L 146.126374 363.533012 
L 147.040382 362.977226 
L 149.107029 362.977226 
L 154.751385 362.421439 
L 156.126283 361.865652 
L 175.716422 361.865652 
L 176.22898 361.309866 
L 178.862366 360.754079 
L 180.536112 360.754079 
L 182.39138 360.198292 
L 182.441356 359.086719 
L 183.716669 358.530932 
L 184.573798 357.975146 
L 196.381834 357.975146 
L 198.735668 357.419359 
L 199.44726 357.419359 
L 199.846561 356.863572 
L 201.381583 356.863572 
L 202.906592 356.307786 
L 207.711834 356.307786 
L 207.952155 358.530932 
L 207.963952 356.307786 
L 209.79997 356.307786 
L 209.98428 355.751999 
L 212.5831 355.751999 
L 215.139992 355.196212 
L 215.202038 354.640426 
L 223.016969 354.640426 
L 226.313206 354.084639 
L 226.321528 353.528852 
L 237.290359 353.528852 
L 241.865887 352.973066 
L 245.298699 352.973066 
L 246.232003 352.417279 
L 251.471936 352.417279 
L 254.460593 351.861492 
L 254.624419 351.305706 
L 257.538226 351.305706 
L 257.876396 350.749919 
L 258.806224 350.194132 
L 260.881924 350.194132 
L 262.192444 349.638346 
L 264.595248 349.638346 
L 266.163465 349.082559 
L 269.508946 349.082559 
L 270.64869 347.970986 
L 279.303009 347.970986 
L 281.767677 347.415199 
L 284.657754 347.415199 
L 285.309493 346.859412 
L 285.508801 346.303626 
L 286.110428 345.747839 
L 296.062739 345.747839 
L 297.884904 345.192052 
L 299.042022 344.636266 
L 327.342582 344.636266 
L 333.695374 344.080479 
L 333.771275 343.524692 
L 338.09528 343.524692 
L 341.791092 342.968906 
L 348.323394 342.968906 
L 348.875365 342.413119 
L 360.000159 342.413119 
L 368.708705 341.857332 
L 368.792288 341.301546 
L 369.930797 341.301546 
L 372.237491 340.745759 
L 372.366156 339.078399 
L 372.467662 338.522612 
L 377.285935 337.966826 
L 377.574449 337.411039 
L 377.689443 336.299466 
L 378.125826 335.743679 
L 393.804978 335.743679 
L 398.259157 335.187892 
L 401.094548 334.632106 
L 403.315785 334.632106 
L 408.465918 334.076319 
L 408.853194 331.853172 
L 409.167267 331.853172 
L 409.468584 331.297386 
L 409.907756 330.741599 
L 419.676488 330.185812 
L 419.987407 329.630026 
L 420.079128 329.074239 
L 422.142939 329.074239 
L 424.091802 328.518452 
L 424.315801 327.962666 
L 424.467922 326.851092 
L 425.757913 326.295306 
L 425.852606 325.739519 
L 428.206257 325.183732 
L 431.300077 324.627946 
L 431.520097 324.072159 
L 431.524761 323.516372 
L 432.147055 322.960586 
L 432.256974 322.404799 
L 435.989914 321.849012 
L 436.744851 321.849012 
L 437.549397 321.293226 
L 456.442576 321.293226 
L 459.575718 320.737439 
L 459.860848 320.181652 
L 472.665743 320.181652 
L 473.153611 319.070079 
L 478.48874 319.070079 
L 480.099479 318.514292 
L 480.178169 317.402719 
L 480.591782 316.846932 
L 483.33056 316.291146 
L 483.392241 315.735359 
L 483.72282 315.179572 
L 483.782672 313.512212 
L 484.061584 312.956426 
L 484.438938 312.956426 
L 484.452838 312.400639 
L 486.739231 311.844852 
L 487.638105 311.289066 
L 487.85561 310.733279 
L 491.974912 310.177492 
L 495.010663 310.177492 
L 496.064813 309.621706 
L 507.478486 309.621706 
L 511.259756 309.065919 
L 511.274799 308.510132 
L 511.954841 307.954346 
L 520.858626 307.954346 
L 523.356855 307.398559 
L 524.385994 306.842772 
L 524.660608 305.731199 
L 531.862847 305.731199 
L 532.353549 305.175412 
L 536.308521 305.175412 
L 538.201968 304.619626 
L 543.596446 304.619626 
L 546.857659 304.063839 
L 553.630145 304.063839 
L 554.462537 303.508052 
L 557.813276 303.508052 
L 558.725318 302.952266 
L 559.120962 302.396479 
L 559.315835 301.840692 
L 562.074 301.840692 
L 562.152415 300.729119 
L 563.159333 300.729119 
L 563.820446 299.061759 
L 566.219684 299.061759 
L 566.517662 298.505972 
L 566.748976 298.505972 
L 567.897362 297.950186 
L 569.803063 297.950186 
L 569.869956 297.394399 
L 571.25528 297.394399 
L 571.591757 296.838612 
L 572.893819 296.838612 
L 574.8874 295.727039 
L 575.752255 295.727039 
L 579.097142 294.615466 
L 579.102171 294.059679 
L 579.740788 293.503892 
L 581.370183 292.948106 
L 581.623536 292.392319 
L 583.248084 291.836532 
L 585.903692 291.836532 
L 586.295357 291.280746 
L 586.522876 290.724959 
L 590.027017 290.724959 
L 590.118966 290.169172 
L 591.041662 290.169172 
L 591.112487 289.613386 
L 591.618827 289.057599 
L 593.380636 289.057599 
L 593.514651 288.501812 
L 593.816471 288.501812 
L 593.891457 287.946026 
L 594.013126 287.946026 
L 594.017241 287.390239 
L 596.494712 287.390239 
L 596.985322 286.834452 
L 597.397289 286.834452 
L 597.643509 286.278666 
L 598.272295 286.278666 
L 598.743062 285.722879 
L 598.842327 285.167092 
L 598.976891 285.167092 
L 601.343391 284.611306 
L 603.114299 284.611306 
L 603.24836 284.055519 
L 610.234145 284.055519 
L 610.26766 283.499732 
L 610.660743 283.499732 
L 611.039469 282.943946 
L 611.183177 282.943946 
L 611.442885 282.388159 
L 613.945092 282.388159 
L 614.097762 281.276586 
L 614.227707 279.609226 
L 614.640086 279.053439 
L 616.299338 279.053439 
L 617.081891 278.497652 
L 617.840395 278.497652 
L 618.084969 277.941866 
L 619.260743 277.386079 
L 620.348682 277.386079 
L 622.535855 276.830292 
L 622.566673 276.274506 
L 623.235056 276.274506 
L 623.345843 275.718719 
L 625.290134 275.718719 
L 625.344133 275.162932 
L 634.773233 275.162932 
L 634.844242 274.607146 
L 635.19942 274.607146 
L 635.323787 273.495572 
L 636.537923 273.495572 
L 636.635863 272.939786 
L 636.796306 272.939786 
L 637.637248 272.383999 
L 637.848627 271.828212 
L 638.234851 271.828212 
L 638.561681 271.272426 
L 638.668216 270.716639 
L 643.406108 270.716639 
L 644.602001 270.160852 
L 644.838207 269.049279 
L 645.129281 268.493492 
L 645.615183 268.493492 
L 645.911332 267.937706 
L 652.710749 267.937706 
L 652.980928 266.270346 
L 654.088666 266.270346 
L 654.225059 265.714559 
L 657.855441 265.714559 
L 657.943367 264.602986 
L 662.30363 264.602986 
L 662.348805 264.047199 
L 664.449241 264.047199 
L 664.463369 263.491412 
L 665.486199 263.491412 
L 665.513861 262.935626 
L 668.627479 262.935626 
L 668.782344 262.379839 
L 668.97964 262.379839 
L 669.256312 261.824052 
L 669.817931 261.824052 
L 669.832516 261.268266 
L 670.189524 261.268266 
L 670.870572 260.712479 
L 676.371448 260.712479 
L 676.771252 260.156692 
L 678.403436 260.156692 
L 678.406454 259.600906 
L 690.885525 259.600906 
L 693.003565 259.045119 
L 693.064971 258.489332 
L 694.137227 257.933546 
L 695.767674 257.933546 
L 695.883491 256.821972 
L 696.178406 256.821972 
L 696.274791 256.266186 
L 700.63135 256.266186 
L 701.41331 255.710399 
L 708.903377 255.710399 
L 708.926421 255.154612 
L 711.372754 255.154612 
L 712.418217 254.598826 
L 723.932435 254.598826 
L 724.076144 253.487252 
L 728.604486 253.487252 
L 729.505188 252.931466 
L 730.469721 252.931466 
L 731.648833 252.375679 
L 739.442777 252.375679 
L 740.189118 251.819892 
L 740.835828 251.819892 
L 741.152919 251.264106 
L 743.635784 250.708319 
L 744.8512 250.708319 
L 745.24753 250.152532 
L 745.376515 250.152532 
L 748.864698 249.596746 
L 755.287127 249.596746 
L 755.789717 249.040959 
L 780.578546 249.040959 
L 781.484279 248.485172 
L 787.216743 248.485172 
L 787.423915 247.929386 
L 787.796286 247.929386 
L 787.908536 247.373599 
L 812.012614 247.373599 
L 812.012614 247.373599 
" clip-path="url(#pce26fb3087)" style="fill: none; stroke: #0969da; stroke-width: 2; stroke-linecap: square"/>
   </g>
   <g id="line2d_33">
    <path d="M 85.239886 455.237812 
L 89.036382 455.237812 
L 89.050922 454.126239 
L 92.185161 454.126239 
L 92.901004 453.570452 
L 286.110428 453.570452 
L 288.226913 453.014666 
L 341.791092 453.014666 
L 343.277602 452.458879 
L 393.804978 452.458879 
L 398.259157 451.903092 
L 409.907756 451.903092 
L 420.079128 450.235732 
L 422.142939 449.124159 
L 425.852606 449.124159 
L 428.206257 448.568372 
L 431.524761 448.012586 
L 432.256974 448.012586 
L 435.989914 447.456799 
L 436.744851 447.456799 
L 437.549397 446.901012 
L 441.152392 446.345226 
L 448.195422 445.789439 
L 448.236162 446.345226 
L 459.860848 446.345226 
L 460.677008 445.789439 
L 477.266785 445.789439 
L 478.48874 445.233652 
L 484.061584 445.233652 
L 484.452838 444.677866 
L 491.374519 444.677866 
L 491.974912 444.122079 
L 517.331441 444.122079 
L 519.706582 443.566292 
L 520.704813 443.566292 
L 520.858626 443.010506 
L 527.626083 443.010506 
L 527.63253 442.454719 
L 543.571253 442.454719 
L 543.596446 441.898932 
L 548.240422 441.898932 
L 549.424381 441.343146 
L 551.168632 440.787359 
L 551.171696 440.231572 
L 551.446218 440.231572 
L 553.630145 438.564212 
L 555.101337 438.564212 
L 555.186017 436.896852 
L 555.754494 436.896852 
L 557.813276 437.452639 
L 559.293887 437.452639 
L 559.315835 435.229492 
L 564.828736 435.229492 
L 565.648051 434.673706 
L 566.517662 434.673706 
L 566.748976 434.117919 
L 586.522876 434.117919 
L 586.788254 433.562132 
L 587.784427 433.562132 
L 589.331017 433.006346 
L 596.154347 433.006346 
L 596.494712 432.450559 
L 598.842327 432.450559 
L 598.976891 431.894772 
L 606.751769 431.894772 
L 606.908279 431.338986 
L 607.466835 431.338986 
L 608.033346 430.783199 
L 608.599309 430.783199 
L 608.63287 430.227412 
L 611.039469 430.227412 
L 611.183177 429.671626 
L 622.355614 429.671626 
L 622.433115 429.115839 
L 622.566673 429.115839 
L 622.681347 428.560052 
L 623.345843 428.560052 
L 624.738849 428.004266 
L 630.184903 428.004266 
L 630.189703 427.448479 
L 631.23032 427.448479 
L 631.269916 426.892692 
L 634.223777 426.892692 
L 634.844242 426.336906 
L 638.780696 426.336906 
L 639.922406 425.781119 
L 642.142774 425.781119 
L 642.166322 424.669546 
L 642.34638 424.669546 
L 642.572984 424.113759 
L 646.144841 424.113759 
L 646.695989 423.557972 
L 647.552706 423.557972 
L 647.874964 423.002186 
L 649.966073 423.002186 
L 650.258061 422.446399 
L 650.261811 421.890612 
L 650.850361 421.890612 
L 651.097495 421.334826 
L 673.623159 421.334826 
L 673.670986 420.223252 
L 676.771252 420.223252 
L 677.663542 419.667466 
L 678.406454 419.667466 
L 681.891528 419.111679 
L 682.538375 419.111679 
L 683.924339 418.555892 
L 684.85211 418.555892 
L 685.604807 418.000106 
L 686.366236 418.555892 
L 688.817416 418.555892 
L 689.48397 418.000106 
L 689.587396 417.444319 
L 689.636548 416.888532 
L 690.877158 416.332746 
L 690.885525 415.221172 
L 696.301173 415.221172 
L 697.485543 414.665386 
L 697.605567 412.998026 
L 698.789342 412.442239 
L 699.444008 411.886452 
L 705.043189 411.886452 
L 705.280767 410.219092 
L 705.566355 410.219092 
L 705.7781 409.663306 
L 707.146506 409.107519 
L 709.300484 409.107519 
L 709.744228 408.551732 
L 709.845185 407.995946 
L 710.071607 407.995946 
L 711.372754 406.884372 
L 712.766811 406.884372 
L 713.224547 406.328586 
L 714.832634 406.328586 
L 714.837938 405.217012 
L 715.939549 405.217012 
L 717.402008 404.661226 
L 721.276553 403.549652 
L 721.62245 402.993866 
L 729.505188 402.993866 
L 730.469721 401.882292 
L 745.196777 401.882292 
L 745.376515 400.770719 
L 752.544782 400.770719 
L 753.640037 400.214932 
L 756.963708 400.214932 
L 757.150259 399.659146 
L 777.597846 399.659146 
L 777.924219 399.103359 
L 779.949577 399.103359 
L 780.578546 398.547572 
L 784.35849 398.547572 
L 785.069395 397.991786 
L 785.074059 397.435999 
L 785.88711 396.880212 
L 788.366958 396.880212 
L 788.556344 396.324426 
L 788.569924 395.212852 
L 788.583412 395.768639 
L 790.249843 395.212852 
L 796.263917 395.212852 
L 797.450207 394.101279 
L 808.301484 394.101279 
L 809.14046 393.545492 
L 811.772886 393.545492 
L 811.983625 392.989706 
L 812.012614 392.433919 
L 812.012614 392.433919 
" clip-path="url(#pce26fb3087)" style="fill: none; stroke: #bf8700; stroke-width: 2; stroke-linecap: square"/>
   </g>
   <g id="line2d_34">
    <path d="M 85.239886 454.682026 
L 85.564613 454.682026 
L 85.708413 432.450559 
L 86.459921 426.892692 
L 86.889354 425.781119 
L 87.107225 426.336906 
L 87.504835 425.781119 
L 88.177287 425.225332 
L 88.643847 424.113759 
L 89.036382 423.557972 
L 89.050922 423.002186 
L 89.427819 421.334826 
L 89.923276 421.334826 
L 90.59742 420.779039 
L 90.602404 420.223252 
L 91.145185 419.667466 
L 91.160228 419.111679 
L 91.375813 419.111679 
L 92.185161 418.555892 
L 92.763423 418.000106 
L 92.901004 411.886452 
L 92.996155 412.442239 
L 93.228795 408.551732 
L 93.621832 402.993866 
L 96.889857 402.993866 
L 96.920858 402.438079 
L 97.191997 399.659146 
L 97.27151 402.438079 
L 97.639902 397.991786 
L 97.822338 397.435999 
L 99.181554 396.880212 
L 99.222568 396.324426 
L 99.517848 395.768639 
L 99.793331 395.768639 
L 100.493309 395.212852 
L 100.867234 394.657066 
L 101.019767 394.101279 
L 101.139607 392.989706 
L 101.488933 392.433919 
L 101.497575 391.878132 
L 101.848913 392.433919 
L 101.948909 391.878132 
L 101.961209 392.433919 
L 101.975932 390.766559 
L 105.232984 390.766559 
L 110.247547 402.993866 
L 110.993659 390.210772 
L 111.382536 389.654986 
L 113.48599 389.654986 
L 113.84222 389.099199 
L 114.604564 388.543412 
L 116.234599 402.993866 
L 116.340357 387.987626 
L 117.591163 387.431839 
L 120.26602 386.876052 
L 120.456778 387.431839 
L 120.806515 386.320266 
L 120.846431 385.764479 
L 121.705069 385.764479 
L 121.965966 385.208692 
L 122.458726 384.652906 
L 122.499602 383.541332 
L 122.954137 382.429759 
L 122.980474 382.985546 
L 123.250836 382.985546 
L 123.39907 381.873972 
L 123.855389 379.650826 
L 123.915378 378.539252 
L 124.500819 376.871892 
L 124.786955 377.983466 
L 126.810118 374.648746 
L 127.34284 375.760319 
L 129.53518 373.537172 
L 131.271979 377.427679 
L 131.881516 373.537172 
L 134.384819 371.869812 
L 138.07606 371.869812 
L 138.563561 371.314026 
L 138.951523 369.646666 
L 140.041703 371.314026 
L 144.488566 371.869812 
L 145.591686 369.646666 
L 146.126374 367.979306 
L 147.040382 369.646666 
L 149.107029 367.979306 
L 156.126283 367.979306 
L 163.507072 367.423519 
L 163.999283 366.867732 
L 168.658988 366.311946 
L 171.740188 366.311946 
L 172.313741 365.756159 
L 172.43852 366.311946 
L 175.716422 364.644586 
L 178.790992 364.644586 
L 178.862366 364.088799 
L 180.536112 363.533012 
L 184.573798 363.533012 
L 186.354902 359.642506 
L 187.680557 359.086719 
L 189.386356 358.530932 
L 189.419459 357.975146 
L 195.812716 357.975146 
L 195.936215 354.084639 
L 196.172833 354.084639 
L 196.381834 352.973066 
L 198.735668 352.973066 
L 199.44726 352.417279 
L 202.906592 352.417279 
L 207.711834 351.861492 
L 207.952155 363.533012 
L 207.963952 352.417279 
L 208.271715 351.861492 
L 209.98428 351.861492 
L 212.5831 351.305706 
L 215.202038 351.305706 
L 217.282401 350.749919 
L 223.016969 349.638346 
L 226.321528 349.638346 
L 228.977318 349.082559 
L 229.390565 346.303626 
L 229.670255 346.303626 
L 230.165163 345.747839 
L 232.746654 345.192052 
L 233.343388 342.968906 
L 236.911221 341.857332 
L 236.954201 342.413119 
L 237.290359 341.857332 
L 241.865887 340.745759 
L 245.298699 340.189972 
L 246.938839 340.189972 
L 248.392565 339.634186 
L 249.652378 338.522612 
L 250.988596 337.966826 
L 251.471936 337.411039 
L 254.624419 337.966826 
L 257.538226 336.855252 
L 257.876396 337.411039 
L 258.650811 337.411039 
L 258.806224 336.855252 
L 260.881924 336.299466 
L 262.192444 336.855252 
L 264.595248 335.743679 
L 266.163465 335.743679 
L 269.508946 335.187892 
L 270.063707 335.743679 
L 270.64869 334.076319 
L 272.678575 334.076319 
L 273.080208 333.520532 
L 274.511164 331.853172 
L 274.828118 331.297386 
L 275.321975 330.185812 
L 276.604422 330.741599 
L 277.169378 329.630026 
L 277.225892 329.074239 
L 281.767677 329.074239 
L 284.067969 328.518452 
L 284.657754 327.962666 
L 288.226913 327.962666 
L 290.73831 327.406879 
L 295.00388 327.406879 
L 296.062739 326.851092 
L 307.792315 326.851092 
L 308.465956 326.295306 
L 308.533443 325.739519 
L 308.989579 325.183732 
L 314.080317 325.183732 
L 314.397591 324.627946 
L 315.692794 324.072159 
L 315.917112 323.516372 
L 318.062997 322.960586 
L 319.623761 322.404799 
L 325.877014 322.404799 
L 327.342582 321.293226 
L 333.771275 321.293226 
L 335.202962 320.737439 
L 341.194266 320.737439 
L 341.791092 320.181652 
L 343.277602 319.625866 
L 343.720111 319.070079 
L 343.870358 318.514292 
L 348.323394 317.958506 
L 348.875365 318.514292 
L 354.737501 317.402719 
L 359.372424 316.291146 
L 360.000159 315.735359 
L 368.792288 315.735359 
L 369.930797 315.179572 
L 378.125826 315.179572 
L 385.845378 314.623786 
L 386.816358 314.067999 
L 390.056081 313.512212 
L 393.304948 312.956426 
L 393.804978 312.400639 
L 401.094548 312.400639 
L 403.315785 311.844852 
L 420.079128 311.844852 
L 422.142939 311.289066 
L 435.989914 311.289066 
L 436.744851 310.733279 
L 437.549397 311.289066 
L 441.152392 310.733279 
L 453.27793 310.733279 
L 454.902844 310.177492 
L 480.553923 310.177492 
L 480.591782 309.621706 
L 496.433891 309.621706 
L 499.914485 309.065919 
L 499.923401 308.510132 
L 517.323714 308.510132 
L 517.331441 307.398559 
L 527.63253 307.398559 
L 532.353549 306.842772 
L 538.201968 306.842772 
L 543.596446 305.731199 
L 554.462537 305.731199 
L 555.101337 305.175412 
L 555.186017 304.619626 
L 559.293887 304.619626 
L 559.315835 304.063839 
L 559.742387 304.063839 
L 560.422338 303.508052 
L 566.517662 303.508052 
L 566.748976 302.952266 
L 574.8874 302.952266 
L 575.220768 302.396479 
L 595.096128 302.396479 
L 596.152839 300.729119 
L 596.154347 300.173332 
L 598.97017 300.173332 
L 598.976891 299.617546 
L 607.28257 299.617546 
L 607.466835 299.061759 
L 611.442885 299.061759 
L 611.585725 298.505972 
L 626.356538 298.505972 
L 626.640571 297.950186 
L 630.069085 297.950186 
L 630.189703 297.394399 
L 631.269916 296.838612 
L 658.390906 296.838612 
L 659.803481 295.727039 
L 661.917909 295.727039 
L 662.348805 295.171252 
L 664.463369 295.171252 
L 664.776757 294.615466 
L 669.772802 294.615466 
L 669.832516 294.059679 
L 697.483211 294.059679 
L 697.485543 293.503892 
L 697.602869 293.503892 
L 697.605567 292.948106 
L 732.167838 292.948106 
L 733.065477 292.392319 
L 792.07667 292.392319 
L 794.677868 291.836532 
L 812.012614 291.836532 
L 812.012614 291.836532 
" clip-path="url(#pce26fb3087)" style="fill: none; stroke: #cf222e; stroke-width: 2; stroke-linecap: square"/>
   </g>
   <g id="line2d_35">
    <path d="M 85.239886 454.682026 
L 85.26572 454.126239 
L 85.469398 -1 
M 85.652463 -1 
L 85.708413 101.201706 
L 89.036382 101.201706 
L 89.050922 97.866986 
L 92.901004 97.866986 
L 93.087327 98.422772 
L 93.621832 98.422772 
L 94.055014 98.978559 
L 96.739199 99.534346 
L 96.792192 98.978559 
L 96.920858 99.534346 
L 105.232984 99.534346 
L 110.247547 98.422772 
L 110.993659 99.534346 
L 111.382536 98.978559 
L 111.538452 98.978559 
L 112.911522 99.534346 
L 113.48599 96.755412 
L 114.604564 96.755412 
L 116.234599 98.422772 
L 116.340357 95.643839 
L 117.591163 96.199626 
L 120.846431 96.199626 
L 121.705069 95.088052 
L 122.980474 95.088052 
L 123.322347 91.197546 
L 131.271979 91.197546 
L 131.851796 87.862826 
L 131.881516 86.751252 
L 134.384819 86.751252 
L 138.07606 82.860746 
L 140.012395 82.860746 
L 140.041703 83.416532 
L 144.488566 83.416532 
L 145.591686 80.081812 
L 149.082796 80.081812 
L 149.107029 80.637599 
L 168.658988 80.637599 
L 172.313741 81.193386 
L 172.43852 80.637599 
L 176.22898 81.193386 
L 189.419459 81.193386 
L 195.812716 81.749172 
L 195.936215 74.523946 
L 196.239909 75.079732 
L 199.846561 75.079732 
L 201.381583 75.635519 
L 207.711834 75.635519 
L 207.952155 80.637599 
L 207.963952 71.745012 
L 208.271715 71.745012 
L 209.79997 73.968159 
L 217.282401 73.968159 
L 223.016969 70.077652 
L 229.390565 70.077652 
L 229.670255 68.410292 
L 246.232003 68.410292 
L 246.938839 68.966079 
L 250.960247 68.966079 
L 250.988596 70.077652 
L 258.650811 70.077652 
L 258.806224 73.412372 
L 270.64869 73.412372 
L 270.931534 68.410292 
L 272.674414 67.298719 
L 272.678575 67.854506 
L 273.080208 67.854506 
L 274.511164 65.075572 
L 276.604422 65.075572 
L 277.169378 65.631359 
L 277.225892 65.075572 
L 278.519587 65.631359 
L 278.525485 66.187146 
L 278.555708 65.631359 
L 279.303009 63.408212 
L 286.110428 63.408212 
L 288.226913 63.963999 
L 290.73831 63.963999 
L 295.00388 64.519786 
L 299.042022 64.519786 
L 302.161905 65.631359 
L 308.533443 65.075572 
L 308.989579 65.075572 
L 312.961285 66.187146 
L 314.080317 65.631359 
L 319.623761 65.631359 
L 325.87363 67.854506 
L 325.877014 67.298719 
L 335.202962 67.298719 
L 338.09528 67.854506 
L 389.639816 67.854506 
L 390.056081 68.410292 
L 393.281766 68.410292 
L 393.304948 66.742932 
L 408.853194 66.742932 
L 409.167267 67.298719 
L 441.152392 67.298719 
L 448.195422 67.854506 
L 448.236162 67.298719 
L 453.27793 68.966079 
L 454.902844 68.966079 
L 456.442576 68.410292 
L 460.677008 68.410292 
L 464.717163 68.966079 
L 464.723793 69.521866 
L 476.179165 67.854506 
L 477.266785 68.410292 
L 491.374519 68.410292 
L 491.974912 67.854506 
L 493.074739 68.410292 
L 493.452688 70.633439 
L 499.917822 70.633439 
L 499.923401 71.189226 
L 519.706582 71.189226 
L 520.858626 71.745012 
L 524.660608 71.745012 
L 525.031515 72.300799 
L 543.571253 72.300799 
L 543.596446 72.856586 
L 546.857659 72.856586 
L 548.233518 73.412372 
L 548.240422 73.968159 
L 549.365626 73.412372 
L 549.424381 73.968159 
L 551.171696 73.968159 
L 551.446218 74.523946 
L 555.101337 74.523946 
L 555.186017 73.412372 
L 555.754494 74.523946 
L 557.813276 72.856586 
L 562.791764 72.856586 
L 563.159333 71.189226 
L 564.828736 71.189226 
L 565.648051 72.300799 
L 569.869956 72.300799 
L 571.25528 72.856586 
L 571.591757 72.856586 
L 572.893819 70.077652 
L 575.220768 70.077652 
L 575.752255 70.633439 
L 586.522876 70.633439 
L 586.788254 71.189226 
L 587.784427 71.189226 
L 589.331017 71.745012 
L 606.751769 71.745012 
L 606.908279 72.300799 
L 607.466835 72.300799 
L 608.63287 73.412372 
L 610.26766 73.412372 
L 610.660743 72.856586 
L 611.039469 72.856586 
L 611.183177 73.412372 
L 615.555054 73.412372 
L 616.299338 73.968159 
L 620.104703 73.968159 
L 620.348682 74.523946 
L 622.433115 74.523946 
L 622.566673 75.079732 
L 629.04461 75.079732 
L 629.183883 75.635519 
L 632.961906 75.635519 
L 634.01601 77.302879 
L 634.223777 77.858666 
L 635.622818 77.858666 
L 635.624281 78.414452 
L 641.304941 78.414452 
L 642.339247 78.970239 
L 646.695989 78.970239 
L 647.552706 79.526026 
L 650.850361 79.526026 
L 651.097495 80.081812 
L 656.460332 80.081812 
L 657.842684 80.637599 
L 657.943367 81.193386 
L 658.390906 81.193386 
L 659.803481 60.629279 
L 664.184274 60.629279 
L 664.215823 61.185066 
L 664.463369 61.185066 
L 664.776757 60.629279 
L 668.385055 60.629279 
L 668.627479 61.185066 
L 669.256312 61.185066 
L 669.733068 61.740852 
L 669.832516 61.185066 
L 671.775664 61.185066 
L 671.790844 61.740852 
L 672.212047 61.740852 
L 672.396495 62.296639 
L 673.670986 62.852426 
L 682.538375 62.852426 
L 683.924339 63.408212 
L 684.85211 63.408212 
L 685.604807 63.963999 
L 686.366236 63.408212 
L 689.501344 63.408212 
L 689.636548 64.519786 
L 694.137227 64.519786 
L 695.883491 66.187146 
L 714.837938 66.187146 
L 715.939549 66.742932 
L 745.196777 66.742932 
L 745.24753 67.298719 
L 788.366958 67.298719 
L 788.556344 67.854506 
L 788.569924 68.410292 
L 788.583412 67.854506 
L 794.849193 67.854506 
L 796.263917 68.410292 
L 812.012614 68.410292 
L 812.012614 68.410292 
" clip-path="url(#pce26fb3087)" style="fill: none; stroke: #9467bd; stroke-width: 2; stroke-linecap: square"/>
   </g>
   <g id="patch_3">
    <path d="M 48.90125 455.237812 
L 48.90125 38.397812 
" style="fill: none; stroke: #d0d7de; stroke-width: 0.8; stroke-linejoin: miter; stroke-linecap: square"/>
   </g>
   <g id="patch_4">
    <path d="M 848.35125 455.237812 
L 848.35125 38.397812 
" style="fill: none; stroke: #d0d7de; stroke-width: 0.8; stroke-linejoin: miter; stroke-linecap: square"/>
   </g>
   <g id="patch_5">
    <path d="M 48.90125 455.237812 
L 848.35125 455.237812 
" style="fill: none; stroke: #d0d7de; stroke-width: 0.8; stroke-linejoin: miter; stroke-linecap: square"/>
   </g>
   <g id="patch_6">
    <path d="M 48.90125 38.397812 
L 848.35125 38.397812 
" style="fill: none; stroke: #d0d7de; stroke-width: 0.8; stroke-linejoin: miter; stroke-linecap: square"/>
   </g>
   <g id="text_18">
    <!-- 483 -->
    <g style="fill: #1a7f37" transform="translate(817.012614 189.27629) scale(0.09 -0.09)">
     <defs>
      <path id="DejaVuSans-Bold-34" d="M 2356 3675 
L 1038 1722 
L 2356 1722 
L 2356 3675 
z
M 2156 4666 
L 3494 4666 
L 3494 1722 
L 4159 1722 
L 4159 850 
L 3494 850 
L 3494 0 
L 2356 0 
L 2356 850 
L 288 850 
L 288 1881 
L 2156 4666 
z
" transform="scale(0.015625)"/>
      <path id="DejaVuSans-Bold-38" d="M 2228 2088 
Q 1891 2088 1709 1903 
Q 1528 1719 1528 1375 
Q 1528 1031 1709 848 
Q 1891 666 2228 666 
Q 2563 666 2741 848 
Q 2919 1031 2919 1375 
Q 2919 1722 2741 1905 
Q 2563 2088 2228 2088 
z
M 1350 2484 
Q 925 2613 709 2878 
Q 494 3144 494 3541 
Q 494 4131 934 4440 
Q 1375 4750 2228 4750 
Q 3075 4750 3515 4442 
Q 3956 4134 3956 3541 
Q 3956 3144 3739 2878 
Q 3522 2613 3097 2484 
Q 3572 2353 3814 2058 
Q 4056 1763 4056 1313 
Q 4056 619 3595 264 
Q 3134 -91 2228 -91 
Q 1319 -91 855 264 
Q 391 619 391 1313 
Q 391 1763 633 2058 
Q 875 2353 1350 2484 
z
M 1631 3419 
Q 1631 3141 1786 2991 
Q 1941 2841 2228 2841 
Q 2509 2841 2662 2991 
Q 2816 3141 2816 3419 
Q 2816 3697 2662 3845 
Q 2509 3994 2228 3994 
Q 1941 3994 1786 3844 
Q 1631 3694 1631 3419 
z
" transform="scale(0.015625)"/>
      <path id="DejaVuSans-Bold-33" d="M 2981 2516 
Q 3453 2394 3698 2092 
Q 3944 1791 3944 1325 
Q 3944 631 3412 270 
Q 2881 -91 1863 -91 
Q 1503 -91 1142 -33 
Q 781 25 428 141 
L 428 1069 
Q 766 900 1098 814 
Q 1431 728 1753 728 
Q 2231 728 2486 893 
Q 2741 1059 2741 1369 
Q 2741 1688 2480 1852 
Q 2219 2016 1709 2016 
L 1228 2016 
L 1228 2791 
L 1734 2791 
Q 2188 2791 2409 2933 
Q 2631 3075 2631 3366 
Q 2631 3634 2415 3781 
Q 2200 3928 1806 3928 
Q 1516 3928 1219 3862 
Q 922 3797 628 3669 
L 628 4550 
Q 984 4650 1334 4700 
Q 1684 4750 2022 4750 
Q 2931 4750 3382 4451 
Q 3834 4153 3834 3553 
Q 3834 3144 3618 2883 
Q 3403 2622 2981 2516 
z
" transform="scale(0.015625)"/>
     </defs>
     <use xlink:href="#DejaVuSans-Bold-34"/>
     <use xlink:href="#DejaVuSans-Bold-38" transform="translate(69.580078 0)"/>
     <use xlink:href="#DejaVuSans-Bold-33" transform="translate(139.160156 0)"/>
    </g>
   </g>
   <g id="text_19">
    <!-- 374 -->
    <g style="fill: #0969da" transform="translate(817.012614 249.857037) scale(0.09 -0.09)">
     <defs>
      <path id="DejaVuSans-Bold-37" d="M 428 4666 
L 3944 4666 
L 3944 3988 
L 2125 0 
L 953 0 
L 2675 3781 
L 428 3781 
L 428 4666 
z
" transform="scale(0.015625)"/>
     </defs>
     <use xlink:href="#DejaVuSans-Bold-33"/>
     <use xlink:href="#DejaVuSans-Bold-37" transform="translate(69.580078 0)"/>
     <use xlink:href="#DejaVuSans-Bold-34" transform="translate(139.160156 0)"/>
    </g>
   </g>
   <g id="text_20">
    <!-- 113 -->
    <g style="fill: #bf8700" transform="translate(817.012614 394.917357) scale(0.09 -0.09)">
     <defs>
      <path id="DejaVuSans-Bold-31" d="M 750 831 
L 1813 831 
L 1813 3847 
L 722 3622 
L 722 4441 
L 1806 4666 
L 2950 4666 
L 2950 831 
L 4013 831 
L 4013 0 
L 750 0 
L 750 831 
z
" transform="scale(0.015625)"/>
     </defs>
     <use xlink:href="#DejaVuSans-Bold-31"/>
     <use xlink:href="#DejaVuSans-Bold-31" transform="translate(69.580078 0)"/>
     <use xlink:href="#DejaVuSans-Bold-33" transform="translate(139.160156 0)"/>
    </g>
   </g>
   <g id="text_21">
    <!-- 294 -->
    <g style="fill: #cf222e" transform="translate(817.012614 294.31997) scale(0.09 -0.09)">
     <defs>
      <path id="DejaVuSans-Bold-32" d="M 1844 884 
L 3897 884 
L 3897 0 
L 506 0 
L 506 884 
L 2209 2388 
Q 2438 2594 2547 2791 
Q 2656 2988 2656 3200 
Q 2656 3528 2436 3728 
Q 2216 3928 1850 3928 
Q 1569 3928 1234 3808 
Q 900 3688 519 3450 
L 519 4475 
Q 925 4609 1322 4679 
Q 1719 4750 2100 4750 
Q 2938 4750 3402 4381 
Q 3866 4013 3866 3353 
Q 3866 2972 3669 2642 
Q 3472 2313 2841 1759 
L 1844 884 
z
" transform="scale(0.015625)"/>
      <path id="DejaVuSans-Bold-39" d="M 641 103 
L 641 966 
Q 928 831 1190 764 
Q 1453 697 1709 697 
Q 2247 697 2547 995 
Q 2847 1294 2900 1881 
Q 2688 1725 2447 1647 
Q 2206 1569 1925 1569 
Q 1209 1569 770 1986 
Q 331 2403 331 3084 
Q 331 3838 820 4291 
Q 1309 4744 2131 4744 
Q 3044 4744 3544 4128 
Q 4044 3513 4044 2388 
Q 4044 1231 3459 570 
Q 2875 -91 1856 -91 
Q 1528 -91 1228 -42 
Q 928 6 641 103 
z
M 2125 2350 
Q 2441 2350 2600 2554 
Q 2759 2759 2759 3169 
Q 2759 3575 2600 3781 
Q 2441 3988 2125 3988 
Q 1809 3988 1650 3781 
Q 1491 3575 1491 3169 
Q 1491 2759 1650 2554 
Q 1809 2350 2125 2350 
z
" transform="scale(0.015625)"/>
     </defs>
     <use xlink:href="#DejaVuSans-Bold-32"/>
     <use xlink:href="#DejaVuSans-Bold-39" transform="translate(69.580078 0)"/>
     <use xlink:href="#DejaVuSans-Bold-34" transform="translate(139.160156 0)"/>
    </g>
   </g>
   <g id="text_22">
    <!-- 696 -->
    <g style="fill: #9467bd" transform="translate(817.012614 70.89373) scale(0.09 -0.09)">
     <defs>
      <path id="DejaVuSans-Bold-36" d="M 2316 2303 
Q 2000 2303 1842 2098 
Q 1684 1894 1684 1484 
Q 1684 1075 1842 870 
Q 2000 666 2316 666 
Q 2634 666 2792 870 
Q 2950 1075 2950 1484 
Q 2950 1894 2792 2098 
Q 2634 2303 2316 2303 
z
M 3803 4544 
L 3803 3681 
Q 3506 3822 3243 3889 
Q 2981 3956 2731 3956 
Q 2194 3956 1894 3657 
Q 1594 3359 1544 2772 
Q 1750 2925 1990 3001 
Q 2231 3078 2516 3078 
Q 3231 3078 3670 2659 
Q 4109 2241 4109 1563 
Q 4109 813 3618 361 
Q 3128 -91 2303 -91 
Q 1394 -91 895 523 
Q 397 1138 397 2266 
Q 397 3422 980 4083 
Q 1563 4744 2578 4744 
Q 2900 4744 3203 4694 
Q 3506 4644 3803 4544 
z
" transform="scale(0.015625)"/>
     </defs>
     <use xlink:href="#DejaVuSans-Bold-36"/>
     <use xlink:href="#DejaVuSans-Bold-39" transform="translate(69.580078 0)"/>
     <use xlink:href="#DejaVuSans-Bold-36" transform="translate(139.160156 0)"/>
    </g>
   </g>
   <g id="text_23">
    <!-- Erdős Problems Progress -->
    <g style="fill: #24292f" transform="translate(349.588281 18.397812) scale(0.14 -0.14)">
     <defs>
      <path id="DejaVuSans-Bold-45" d="M 588 4666 
L 3834 4666 
L 3834 3756 
L 1791 3756 
L 1791 2888 
L 3713 2888 
L 3713 1978 
L 1791 1978 
L 1791 909 
L 3903 909 
L 3903 0 
L 588 0 
L 588 4666 
z
" transform="scale(0.015625)"/>
      <path id="DejaVuSans-Bold-72" d="M 3138 2547 
Q 2991 2616 2845 2648 
Q 2700 2681 2553 2681 
Q 2122 2681 1889 2404 
Q 1656 2128 1656 1613 
L 1656 0 
L 538 0 
L 538 3500 
L 1656 3500 
L 1656 2925 
Q 1872 3269 2151 3426 
Q 2431 3584 2822 3584 
Q 2878 3584 2943 3579 
Q 3009 3575 3134 3559 
L 3138 2547 
z
" transform="scale(0.015625)"/>
      <path id="DejaVuSans-Bold-64" d="M 2919 2988 
L 2919 4863 
L 4044 4863 
L 4044 0 
L 2919 0 
L 2919 506 
Q 2688 197 2409 53 
Q 2131 -91 1766 -91 
Q 1119 -91 703 423 
Q 288 938 288 1747 
Q 288 2556 703 3070 
Q 1119 3584 1766 3584 
Q 2128 3584 2408 3439 
Q 2688 3294 2919 2988 
z
M 2181 722 
Q 2541 722 2730 984 
Q 2919 1247 2919 1747 
Q 2919 2247 2730 2509 
Q 2541 2772 2181 2772 
Q 1825 2772 1636 2509 
Q 1447 2247 1447 1747 
Q 1447 1247 1636 984 
Q 1825 722 2181 722 
z
" transform="scale(0.015625)"/>
      <path id="DejaVuSans-Bold-151" d="M 1881 5119 
L 2560 5119 
L 1785 3944 
L 1275 3944 
L 1881 5119 
z
M 3016 5119 
L 3738 5119 
L 2888 3944 
L 2344 3944 
L 3016 5119 
z
M 2203 2784 
Q 1831 2784 1636 2517 
Q 1441 2250 1441 1747 
Q 1441 1244 1636 976 
Q 1831 709 2203 709 
Q 2569 709 2762 976 
Q 2956 1244 2956 1747 
Q 2956 2250 2762 2517 
Q 2569 2784 2203 2784 
z
M 2203 3584 
Q 3106 3584 3614 3096 
Q 4122 2609 4122 1747 
Q 4122 884 3614 396 
Q 3106 -91 2203 -91 
Q 1297 -91 786 396 
Q 275 884 275 1747 
Q 275 2609 786 3096 
Q 1297 3584 2203 3584 
z
" transform="scale(0.015625)"/>
      <path id="DejaVuSans-Bold-73" d="M 3272 3391 
L 3272 2541 
Q 2913 2691 2578 2766 
Q 2244 2841 1947 2841 
Q 1628 2841 1473 2761 
Q 1319 2681 1319 2516 
Q 1319 2381 1436 2309 
Q 1553 2238 1856 2203 
L 2053 2175 
Q 2913 2066 3209 1816 
Q 3506 1566 3506 1031 
Q 3506 472 3093 190 
Q 2681 -91 1863 -91 
Q 1516 -91 1145 -36 
Q 775 19 384 128 
L 384 978 
Q 719 816 1070 734 
Q 1422 653 1784 653 
Q 2113 653 2278 743 
Q 2444 834 2444 1013 
Q 2444 1163 2330 1236 
Q 2216 1309 1875 1350 
L 1678 1375 
Q 931 1469 631 1722 
Q 331 1975 331 2491 
Q 331 3047 712 3315 
Q 1094 3584 1881 3584 
Q 2191 3584 2531 3537 
Q 2872 3491 3272 3391 
z
" transform="scale(0.015625)"/>
      <path id="DejaVuSans-Bold-20" transform="scale(0.015625)"/>
      <path id="DejaVuSans-Bold-50" d="M 588 4666 
L 2584 4666 
Q 3475 4666 3951 4270 
Q 4428 3875 4428 3144 
Q 4428 2409 3951 2014 
Q 3475 1619 2584 1619 
L 1791 1619 
L 1791 0 
L 588 0 
L 588 4666 
z
M 1791 3794 
L 1791 2491 
L 2456 2491 
Q 2806 2491 2997 2661 
Q 3188 2831 3188 3144 
Q 3188 3456 2997 3625 
Q 2806 3794 2456 3794 
L 1791 3794 
z
" transform="scale(0.015625)"/>
      <path id="DejaVuSans-Bold-6f" d="M 2203 2784 
Q 1831 2784 1636 2517 
Q 1441 2250 1441 1747 
Q 1441 1244 1636 976 
Q 1831 709 2203 709 
Q 2569 709 2762 976 
Q 2956 1244 2956 1747 
Q 2956 2250 2762 2517 
Q 2569 2784 2203 2784 
z
M 2203 3584 
Q 3106 3584 3614 3096 
Q 4122 2609 4122 1747 
Q 4122 884 3614 396 
Q 3106 -91 2203 -91 
Q 1297 -91 786 396 
Q 275 884 275 1747 
Q 275 2609 786 3096 
Q 1297 3584 2203 3584 
z
" transform="scale(0.015625)"/>
      <path id="DejaVuSans-Bold-62" d="M 2400 722 
Q 2759 722 2948 984 
Q 3138 1247 3138 1747 
Q 3138 2247 2948 2509 
Q 2759 2772 2400 2772 
Q 2041 2772 1848 2508 
Q 1656 2244 1656 1747 
Q 1656 1250 1848 986 
Q 2041 722 2400 722 
z
M 1656 2988 
Q 1888 3294 2169 3439 
Q 2450 3584 2816 3584 
Q 3463 3584 3878 3070 
Q 4294 2556 4294 1747 
Q 4294 938 3878 423 
Q 3463 -91 2816 -91 
Q 2450 -91 2169 54 
Q 1888 200 1656 506 
L 1656 0 
L 538 0 
L 538 4863 
L 1656 4863 
L 1656 2988 
z
" transform="scale(0.015625)"/>
      <path id="DejaVuSans-Bold-6c" d="M 538 4863 
L 1656 4863 
L 1656 0 
L 538 0 
L 538 4863 
z
" transform="scale(0.015625)"/>
      <path id="DejaVuSans-Bold-65" d="M 4031 1759 
L 4031 1441 
L 1416 1441 
Q 1456 1047 1700 850 
Q 1944 653 2381 653 
Q 2734 653 3104 758 
Q 3475 863 3866 1075 
L 3866 213 
Q 3469 63 3072 -14 
Q 2675 -91 2278 -91 
Q 1328 -91 801 392 
Q 275 875 275 1747 
Q 275 2603 792 3093 
Q 1309 3584 2216 3584 
Q 3041 3584 3536 3087 
Q 4031 2591 4031 1759 
z
M 2881 2131 
Q 2881 2450 2695 2645 
Q 2509 2841 2209 2841 
Q 1884 2841 1681 2658 
Q 1478 2475 1428 2131 
L 2881 2131 
z
" transform="scale(0.015625)"/>
      <path id="DejaVuSans-Bold-6d" d="M 3781 2919 
Q 3994 3244 4286 3414 
Q 4578 3584 4928 3584 
Q 5531 3584 5847 3212 
Q 6163 2841 6163 2131 
L 6163 0 
L 5038 0 
L 5038 1825 
Q 5041 1866 5042 1909 
Q 5044 1953 5044 2034 
Q 5044 2406 4934 2573 
Q 4825 2741 4581 2741 
Q 4263 2741 4089 2478 
Q 3916 2216 3909 1719 
L 3909 0 
L 2784 0 
L 2784 1825 
Q 2784 2406 2684 2573 
Q 2584 2741 2328 2741 
Q 2006 2741 1831 2477 
Q 1656 2213 1656 1722 
L 1656 0 
L 531 0 
L 531 3500 
L 1656 3500 
L 1656 2988 
Q 1863 3284 2130 3434 
Q 2397 3584 2719 3584 
Q 3081 3584 3359 3409 
Q 3638 3234 3781 2919 
z
" transform="scale(0.015625)"/>
      <path id="DejaVuSans-Bold-67" d="M 2919 594 
Q 2688 288 2409 144 
Q 2131 0 1766 0 
Q 1125 0 706 504 
Q 288 1009 288 1791 
Q 288 2575 706 3076 
Q 1125 3578 1766 3578 
Q 2131 3578 2409 3434 
Q 2688 3291 2919 2981 
L 2919 3500 
L 4044 3500 
L 4044 353 
Q 4044 -491 3511 -936 
Q 2978 -1381 1966 -1381 
Q 1638 -1381 1331 -1331 
Q 1025 -1281 716 -1178 
L 716 -306 
Q 1009 -475 1290 -558 
Q 1572 -641 1856 -641 
Q 2406 -641 2662 -400 
Q 2919 -159 2919 353 
L 2919 594 
z
M 2181 2772 
Q 1834 2772 1640 2515 
Q 1447 2259 1447 1791 
Q 1447 1309 1634 1061 
Q 1822 813 2181 813 
Q 2531 813 2725 1069 
Q 2919 1325 2919 1791 
Q 2919 2259 2725 2515 
Q 2531 2772 2181 2772 
z
" transform="scale(0.015625)"/>
     </defs>
     <use xlink:href="#DejaVuSans-Bold-45"/>
     <use xlink:href="#DejaVuSans-Bold-72" transform="translate(68.310547 0)"/>
     <use xlink:href="#DejaVuSans-Bold-64" transform="translate(117.626953 0)"/>
     <use xlink:href="#DejaVuSans-Bold-151" transform="translate(189.208984 0)"/>
     <use xlink:href="#DejaVuSans-Bold-73" transform="translate(257.910156 0)"/>
     <use xlink:href="#DejaVuSans-Bold-20" transform="translate(317.431641 0)"/>
     <use xlink:href="#DejaVuSans-Bold-50" transform="translate(352.246094 0)"/>
     <use xlink:href="#DejaVuSans-Bold-72" transform="translate(425.537109 0)"/>
     <use xlink:href="#DejaVuSans-Bold-6f" transform="translate(474.853516 0)"/>
     <use xlink:href="#DejaVuSans-Bold-62" transform="translate(543.554688 0)"/>
     <use xlink:href="#DejaVuSans-Bold-6c" transform="translate(615.136719 0)"/>
     <use xlink:href="#DejaVuSans-Bold-65" transform="translate(649.414062 0)"/>
     <use xlink:href="#DejaVuSans-Bold-6d" transform="translate(717.236328 0)"/>
     <use xlink:href="#DejaVuSans-Bold-73" transform="translate(821.435547 0)"/>
     <use xlink:href="#DejaVuSans-Bold-20" transform="translate(880.957031 0)"/>
     <use xlink:href="#DejaVuSans-Bold-50" transform="translate(915.771484 0)"/>
     <use xlink:href="#DejaVuSans-Bold-72" transform="translate(989.0625 0)"/>
     <use xlink:href="#DejaVuSans-Bold-6f" transform="translate(1038.378906 0)"/>
     <use xlink:href="#DejaVuSans-Bold-67" transform="translate(1107.080078 0)"/>
     <use xlink:href="#DejaVuSans-Bold-72" transform="translate(1178.662109 0)"/>
     <use xlink:href="#DejaVuSans-Bold-65" transform="translate(1227.978516 0)"/>
     <use xlink:href="#DejaVuSans-Bold-73" transform="translate(1295.800781 0)"/>
     <use xlink:href="#DejaVuSans-Bold-73" transform="translate(1355.322266 0)"/>
    </g>
   </g>
   <g id="legend_1">
    <g id="patch_7">
     <path d="M 55.90125 119.788437 
L 213.771563 119.788437 
Q 215.771563 119.788437 215.771563 117.788437 
L 215.771563 45.397812 
Q 215.771563 43.397812 213.771563 43.397812 
L 55.90125 43.397812 
Q 53.90125 43.397812 53.90125 45.397812 
L 53.90125 117.788437 
Q 53.90125 119.788437 55.90125 119.788437 
z
" style="fill: #f6f8fa; opacity: 0.8; stroke: #d0d7de; stroke-linejoin: miter"/>
    </g>
    <g id="line2d_36">
     <path d="M 57.90125 51.49625 
L 67.90125 51.49625 
L 77.90125 51.49625 
" style="fill: none; stroke: #1a7f37; stroke-width: 2; stroke-linecap: square"/>
    </g>
    <g id="text_24">
     <!-- Solved -->
     <g style="fill: #24292f" transform="translate(85.90125 54.99625) scale(0.1 -0.1)">
      <defs>
       <path id="DejaVuSans-6c" d="M 603 4863 
L 1178 4863 
L 1178 0 
L 603 0 
L 603 4863 
z
" transform="scale(0.015625)"/>
       <path id="DejaVuSans-64" d="M 2906 2969 
L 2906 4863 
L 3481 4863 
L 3481 0 
L 2906 0 
L 2906 525 
Q 2725 213 2448 61 
Q 2172 -91 1784 -91 
Q 1150 -91 751 415 
Q 353 922 353 1747 
Q 353 2572 751 3078 
Q 1150 3584 1784 3584 
Q 2172 3584 2448 3432 
Q 2725 3281 2906 2969 
z
M 947 1747 
Q 947 1113 1208 752 
Q 1469 391 1925 391 
Q 2381 391 2643 752 
Q 2906 1113 2906 1747 
Q 2906 2381 2643 2742 
Q 2381 3103 1925 3103 
Q 1469 3103 1208 2742 
Q 947 2381 947 1747 
z
" transform="scale(0.015625)"/>
      </defs>
      <use xlink:href="#DejaVuSans-53"/>
      <use xlink:href="#DejaVuSans-6f" transform="translate(63.476562 0)"/>
      <use xlink:href="#DejaVuSans-6c" transform="translate(124.658203 0)"/>
      <use xlink:href="#DejaVuSans-76" transform="translate(152.441406 0)"/>
      <use xlink:href="#DejaVuSans-65" transform="translate(211.621094 0)"/>
      <use xlink:href="#DejaVuSans-64" transform="translate(273.144531 0)"/>
     </g>
    </g>
    <g id="line2d_37">
     <path d="M 57.90125 66.174375 
L 67.90125 66.174375 
L 77.90125 66.174375 
" style="fill: none; stroke: #0969da; stroke-width: 2; stroke-linecap: square"/>
    </g>
    <g id="text_25">
     <!-- Lean Formalized Problem -->
     <g style="fill: #24292f" transform="translate(85.90125 69.674375) scale(0.1 -0.1)">
      <defs>
       <path id="DejaVuSans-4c" d="M 628 4666 
L 1259 4666 
L 1259 531 
L 3531 531 
L 3531 0 
L 628 0 
L 628 4666 
z
" transform="scale(0.015625)"/>
       <path id="DejaVuSans-20" transform="scale(0.015625)"/>
       <path id="DejaVuSans-6d" d="M 3328 2828 
Q 3544 3216 3844 3400 
Q 4144 3584 4550 3584 
Q 5097 3584 5394 3201 
Q 5691 2819 5691 2113 
L 5691 0 
L 5113 0 
L 5113 2094 
Q 5113 2597 4934 2840 
Q 4756 3084 4391 3084 
Q 3944 3084 3684 2787 
Q 3425 2491 3425 1978 
L 3425 0 
L 2847 0 
L 2847 2094 
Q 2847 2600 2669 2842 
Q 2491 3084 2119 3084 
Q 1678 3084 1418 2786 
Q 1159 2488 1159 1978 
L 1159 0 
L 581 0 
L 581 3500 
L 1159 3500 
L 1159 2956 
Q 1356 3278 1631 3431 
Q 1906 3584 2284 3584 
Q 2666 3584 2933 3390 
Q 3200 3197 3328 2828 
z
" transform="scale(0.015625)"/>
       <path id="DejaVuSans-69" d="M 603 3500 
L 1178 3500 
L 1178 0 
L 603 0 
L 603 3500 
z
M 603 4863 
L 1178 4863 
L 1178 4134 
L 603 4134 
L 603 4863 
z
" transform="scale(0.015625)"/>
       <path id="DejaVuSans-7a" d="M 353 3500 
L 3084 3500 
L 3084 2975 
L 922 459 
L 3084 459 
L 3084 0 
L 275 0 
L 275 525 
L 2438 3041 
L 353 3041 
L 353 3500 
z
" transform="scale(0.015625)"/>
       <path id="DejaVuSans-50" d="M 1259 4147 
L 1259 2394 
L 2053 2394 
Q 2494 2394 2734 2622 
Q 2975 2850 2975 3272 
Q 2975 3691 2734 3919 
Q 2494 4147 2053 4147 
L 1259 4147 
z
M 628 4666 
L 2053 4666 
Q 2838 4666 3239 4311 
Q 3641 3956 3641 3272 
Q 3641 2581 3239 2228 
Q 2838 1875 2053 1875 
L 1259 1875 
L 1259 0 
L 628 0 
L 628 4666 
z
" transform="scale(0.015625)"/>
      </defs>
      <use xlink:href="#DejaVuSans-4c"/>
      <use xlink:href="#DejaVuSans-65" transform="translate(53.962891 0)"/>
      <use xlink:href="#DejaVuSans-61" transform="translate(115.486328 0)"/>
      <use xlink:href="#DejaVuSans-6e" transform="translate(176.765625 0)"/>
      <use xlink:href="#DejaVuSans-20" transform="translate(240.144531 0)"/>
      <use xlink:href="#DejaVuSans-46" transform="translate(271.931641 0)"/>
      <use xlink:href="#DejaVuSans-6f" transform="translate(325.826172 0)"/>
      <use xlink:href="#DejaVuSans-72" transform="translate(387.007812 0)"/>
      <use xlink:href="#DejaVuSans-6d" transform="translate(426.371094 0)"/>
      <use xlink:href="#DejaVuSans-61" transform="translate(523.783203 0)"/>
      <use xlink:href="#DejaVuSans-6c" transform="translate(585.0625 0)"/>
      <use xlink:href="#DejaVuSans-69" transform="translate(612.845703 0)"/>
      <use xlink:href="#DejaVuSans-7a" transform="translate(640.628906 0)"/>
      <use xlink:href="#DejaVuSans-65" transform="translate(693.119141 0)"/>
      <use xlink:href="#DejaVuSans-64" transform="translate(754.642578 0)"/>
      <use xlink:href="#DejaVuSans-20" transform="translate(818.119141 0)"/>
      <use xlink:href="#DejaVuSans-50" transform="translate(849.90625 0)"/>
      <use xlink:href="#DejaVuSans-72" transform="translate(908.458984 0)"/>
      <use xlink:href="#DejaVuSans-6f" transform="translate(947.322266 0)"/>
      <use xlink:href="#DejaVuSans-62" transform="translate(1008.503906 0)"/>
      <use xlink:href="#DejaVuSans-6c" transform="translate(1071.980469 0)"/>
      <use xlink:href="#DejaVuSans-65" transform="translate(1099.763672 0)"/>
      <use xlink:href="#DejaVuSans-6d" transform="translate(1161.287109 0)"/>
     </g>
    </g>
    <g id="line2d_38">
     <path d="M 57.90125 80.8525 
L 67.90125 80.8525 
L 77.90125 80.8525 
" style="fill: none; stroke: #bf8700; stroke-width: 2; stroke-linecap: square"/>
    </g>
    <g id="text_26">
     <!-- Lean Formalized Solution -->
     <g style="fill: #24292f" transform="translate(85.90125 84.3525) scale(0.1 -0.1)">
      <use xlink:href="#DejaVuSans-4c"/>
      <use xlink:href="#DejaVuSans-65" transform="translate(53.962891 0)"/>
      <use xlink:href="#DejaVuSans-61" transform="translate(115.486328 0)"/>
      <use xlink:href="#DejaVuSans-6e" transform="translate(176.765625 0)"/>
      <use xlink:href="#DejaVuSans-20" transform="translate(240.144531 0)"/>
      <use xlink:href="#DejaVuSans-46" transform="translate(271.931641 0)"/>
      <use xlink:href="#DejaVuSans-6f" transform="translate(325.826172 0)"/>
      <use xlink:href="#DejaVuSans-72" transform="translate(387.007812 0)"/>
      <use xlink:href="#DejaVuSans-6d" transform="translate(426.371094 0)"/>
      <use xlink:href="#DejaVuSans-61" transform="translate(523.783203 0)"/>
      <use xlink:href="#DejaVuSans-6c" transform="translate(585.0625 0)"/>
      <use xlink:href="#DejaVuSans-69" transform="translate(612.845703 0)"/>
      <use xlink:href="#DejaVuSans-7a" transform="translate(640.628906 0)"/>
      <use xlink:href="#DejaVuSans-65" transform="translate(693.119141 0)"/>
      <use xlink:href="#DejaVuSans-64" transform="translate(754.642578 0)"/>
      <use xlink:href="#DejaVuSans-20" transform="translate(818.119141 0)"/>
      <use xlink:href="#DejaVuSans-53" transform="translate(849.90625 0)"/>
      <use xlink:href="#DejaVuSans-6f" transform="translate(913.382812 0)"/>
      <use xlink:href="#DejaVuSans-6c" transform="translate(974.564453 0)"/>
      <use xlink:href="#DejaVuSans-75" transform="translate(1002.347656 0)"/>
      <use xlink:href="#DejaVuSans-74" transform="translate(1065.726562 0)"/>
      <use xlink:href="#DejaVuSans-69" transform="translate(1104.935547 0)"/>
      <use xlink:href="#DejaVuSans-6f" transform="translate(1132.71875 0)"/>
      <use xlink:href="#DejaVuSans-6e" transform="translate(1193.900391 0)"/>
     </g>
    </g>
    <g id="line2d_39">
     <path d="M 57.90125 95.530625 
L 67.90125 95.530625 
L 77.90125 95.530625 
" style="fill: none; stroke: #cf222e; stroke-width: 2; stroke-linecap: square"/>
    </g>
    <g id="text_27">
     <!-- OEIS Linked -->
     <g style="fill: #24292f" transform="translate(85.90125 99.030625) scale(0.1 -0.1)">
      <defs>
       <path id="DejaVuSans-45" d="M 628 4666 
L 3578 4666 
L 3578 4134 
L 1259 4134 
L 1259 2753 
L 3481 2753 
L 3481 2222 
L 1259 2222 
L 1259 531 
L 3634 531 
L 3634 0 
L 628 0 
L 628 4666 
z
" transform="scale(0.015625)"/>
       <path id="DejaVuSans-49" d="M 628 4666 
L 1259 4666 
L 1259 0 
L 628 0 
L 628 4666 
z
" transform="scale(0.015625)"/>
       <path id="DejaVuSans-6b" d="M 581 4863 
L 1159 4863 
L 1159 1991 
L 2875 3500 
L 3609 3500 
L 1753 1863 
L 3688 0 
L 2938 0 
L 1159 1709 
L 1159 0 
L 581 0 
L 581 4863 
z
" transform="scale(0.015625)"/>
      </defs>
      <use xlink:href="#DejaVuSans-4f"/>
      <use xlink:href="#DejaVuSans-45" transform="translate(78.710938 0)"/>
      <use xlink:href="#DejaVuSans-49" transform="translate(141.894531 0)"/>
      <use xlink:href="#DejaVuSans-53" transform="translate(171.386719 0)"/>
      <use xlink:href="#DejaVuSans-20" transform="translate(234.863281 0)"/>
      <use xlink:href="#DejaVuSans-4c" transform="translate(266.650391 0)"/>
      <use xlink:href="#DejaVuSans-69" transform="translate(322.363281 0)"/>
      <use xlink:href="#DejaVuSans-6e" transform="translate(350.146484 0)"/>
      <use xlink:href="#DejaVuSans-6b" transform="translate(413.525391 0)"/>
      <use xlink:href="#DejaVuSans-65" transform="translate(467.810547 0)"/>
      <use xlink:href="#DejaVuSans-64" transform="translate(529.333984 0)"/>
     </g>
    </g>
    <g id="line2d_40">
     <path d="M 57.90125 110.20875 
L 67.90125 110.20875 
L 77.90125 110.20875 
" style="fill: none; stroke: #9467bd; stroke-width: 2; stroke-linecap: square"/>
    </g>
    <g id="text_28">
     <!-- Open Problems -->
     <g style="fill: #24292f" transform="translate(85.90125 113.70875) scale(0.1 -0.1)">
      <defs>
       <path id="DejaVuSans-73" d="M 2834 3397 
L 2834 2853 
Q 2591 2978 2328 3040 
Q 2066 3103 1784 3103 
Q 1356 3103 1142 2972 
Q 928 2841 928 2578 
Q 928 2378 1081 2264 
Q 1234 2150 1697 2047 
L 1894 2003 
Q 2506 1872 2764 1633 
Q 3022 1394 3022 966 
Q 3022 478 2636 193 
Q 2250 -91 1575 -91 
Q 1294 -91 989 -36 
Q 684 19 347 128 
L 347 722 
Q 666 556 975 473 
Q 1284 391 1588 391 
Q 1994 391 2212 530 
Q 2431 669 2431 922 
Q 2431 1156 2273 1281 
Q 2116 1406 1581 1522 
L 1381 1569 
Q 847 1681 609 1914 
Q 372 2147 372 2553 
Q 372 3047 722 3315 
Q 1072 3584 1716 3584 
Q 2034 3584 2315 3537 
Q 2597 3491 2834 3397 
z
" transform="scale(0.015625)"/>
      </defs>
      <use xlink:href="#DejaVuSans-4f"/>
      <use xlink:href="#DejaVuSans-70" transform="translate(78.710938 0)"/>
      <use xlink:href="#DejaVuSans-65" transform="translate(142.1875 0)"/>
      <use xlink:href="#DejaVuSans-6e" transform="translate(203.710938 0)"/>
      <use xlink:href="#DejaVuSans-20" transform="translate(267.089844 0)"/>
      <use xlink:href="#DejaVuSans-50" transform="translate(298.876953 0)"/>
      <use xlink:href="#DejaVuSans-72" transform="translate(357.429688 0)"/>
      <use xlink:href="#DejaVuSans-6f" transform="translate(396.292969 0)"/>
      <use xlink:href="#DejaVuSans-62" transform="translate(457.474609 0)"/>
      <use xlink:href="#DejaVuSans-6c" transform="translate(520.951172 0)"/>
      <use xlink:href="#DejaVuSans-65" transform="translate(548.734375 0)"/>
      <use xlink:href="#DejaVuSans-6d" transform="translate(610.257812 0)"/>
      <use xlink:href="#DejaVuSans-73" transform="translate(707.669922 0)"/>
     </g>
    </g>
   </g>
  </g>
 </g>
 <defs>
  <clipPath id="pce26fb3087">
   <rect x="48.90125" y="38.397812" width="799.45" height="416.84"/>
  </clipPath>
 </defs>
</svg>
