<?xml version="1.0" encoding="utf-8" standalone="no"?>
<!DOCTYPE svg PUBLIC "-//W3C//DTD SVG 1.1//EN"
  "http://www.w3.org/Graphics/SVG/1.1/DTD/svg11.dtd">
<svg xmlns:xlink="http://www.w3.org/1999/xlink" width="855.55125pt" height="494.729687pt" viewBox="0 0 855.55125 494.729687" xmlns="http://www.w3.org/2000/svg" version="1.1">
 <metadata>
  <rdf:RDF xmlns:dc="http://purl.org/dc/elements/1.1/" xmlns:cc="http://creativecommons.org/ns#" xmlns:rdf="http://www.w3.org/1999/02/22-rdf-syntax-ns#">
   <cc:Work>
    <dc:type rdf:resource="http://purl.org/dc/dcmitype/StillImage"/>
    <dc:date>2026-06-30T07:31:11.721003</dc:date>
    <dc:format>image/svg+xml</dc:format>
    <dc:creator>
     <cc:Agent>
      <dc:title>Matplotlib v3.10.7, https://matplotlib.org/</dc:title>
     </cc:Agent>
    </dc:creator>
   </cc:Work>
  </rdf:RDF>
 </metadata>
 <defs>
  <style type="text/css">*{stroke-linejoin: round; stroke-linecap: butt}</style>
 </defs>
 <g id="figure_1">
  <g id="patch_1">
   <path d="M 0 494.729687 
L 855.55125 494.729687 
L 855.55125 0 
L 0 0 
z
" style="fill: #0d1117"/>
  </g>
  <g id="axes_1">
   <g id="patch_2">
    <path d="M 48.90125 455.237812 
L 848.35125 455.237812 
L 848.35125 38.397812 
L 48.90125 38.397812 
z
" style="fill: #0d1117"/>
   </g>
   <g id="matplotlib.axis_1">
    <g id="xtick_1">
     <g id="line2d_1">
      <path d="M 85.941999 455.237812 
L 85.941999 38.397812 
" clip-path="url(#p6686212fdf)" style="fill: none; stroke: #30363d; stroke-opacity: 0.25; stroke-width: 0.5; stroke-linecap: square"/>
     </g>
     <g id="line2d_2">
      <defs>
       <path id="ma3d696e0f3" d="M 0 0 
L 0 3.5 
" style="stroke: #c9d1d9; stroke-width: 0.8"/>
      </defs>
      <g>
       <use xlink:href="#ma3d696e0f3" x="85.941999" y="455.237812" style="fill: #c9d1d9; stroke: #c9d1d9; stroke-width: 0.8"/>
      </g>
     </g>
     <g id="text_1">
      <!-- Sep -->
      <g style="fill: #c9d1d9" transform="translate(76.516999 469.83625) scale(0.1 -0.1)">
       <defs>
        <path id="DejaVuSans-53" d="M 3425 4513 
L 3425 3897 
Q 3066 4069 2747 4153 
Q 2428 4238 2131 4238 
Q 1616 4238 1336 4038 
Q 1056 3838 1056 3469 
Q 1056 3159 1242 3001 
Q 1428 2844 1947 2747 
L 2328 2669 
Q 3034 2534 3370 2195 
Q 3706 1856 3706 1288 
Q 3706 609 3251 259 
Q 2797 -91 1919 -91 
Q 1588 -91 1214 -16 
Q 841 59 441 206 
L 441 856 
Q 825 641 1194 531 
Q 1563 422 1919 422 
Q 2459 422 2753 634 
Q 3047 847 3047 1241 
Q 3047 1584 2836 1778 
Q 2625 1972 2144 2069 
L 1759 2144 
Q 1053 2284 737 2584 
Q 422 2884 422 3419 
Q 422 4038 858 4394 
Q 1294 4750 2059 4750 
Q 2388 4750 2728 4690 
Q 3069 4631 3425 4513 
z
" transform="scale(0.015625)"/>
        <path id="DejaVuSans-65" d="M 3597 1894 
L 3597 1613 
L 953 1613 
Q 991 1019 1311 708 
Q 1631 397 2203 397 
Q 2534 397 2845 478 
Q 3156 559 3463 722 
L 3463 178 
Q 3153 47 2828 -22 
Q 2503 -91 2169 -91 
Q 1331 -91 842 396 
Q 353 884 353 1716 
Q 353 2575 817 3079 
Q 1281 3584 2069 3584 
Q 2775 3584 3186 3129 
Q 3597 2675 3597 1894 
z
M 3022 2063 
Q 3016 2534 2758 2815 
Q 2500 3097 2075 3097 
Q 1594 3097 1305 2825 
Q 1016 2553 972 2059 
L 3022 2063 
z
" transform="scale(0.015625)"/>
        <path id="DejaVuSans-70" d="M 1159 525 
L 1159 -1331 
L 581 -1331 
L 581 3500 
L 1159 3500 
L 1159 2969 
Q 1341 3281 1617 3432 
Q 1894 3584 2278 3584 
Q 2916 3584 3314 3078 
Q 3713 2572 3713 1747 
Q 3713 922 3314 415 
Q 2916 -91 2278 -91 
Q 1894 -91 1617 61 
Q 1341 213 1159 525 
z
M 3116 1747 
Q 3116 2381 2855 2742 
Q 2594 3103 2138 3103 
Q 1681 3103 1420 2742 
Q 1159 2381 1159 1747 
Q 1159 1113 1420 752 
Q 1681 391 2138 391 
Q 2594 391 2855 752 
Q 3116 1113 3116 1747 
z
" transform="scale(0.015625)"/>
       </defs>
       <use xlink:href="#DejaVuSans-53"/>
       <use xlink:href="#DejaVuSans-65" transform="translate(63.476562 0)"/>
       <use xlink:href="#DejaVuSans-70" transform="translate(125 0)"/>
      </g>
     </g>
    </g>
    <g id="xtick_2">
     <g id="line2d_3">
      <path d="M 232.446649 455.237812 
L 232.446649 38.397812 
" clip-path="url(#p6686212fdf)" style="fill: none; stroke: #30363d; stroke-opacity: 0.25; stroke-width: 0.5; stroke-linecap: square"/>
     </g>
     <g id="line2d_4">
      <g>
       <use xlink:href="#ma3d696e0f3" x="232.446649" y="455.237812" style="fill: #c9d1d9; stroke: #c9d1d9; stroke-width: 0.8"/>
      </g>
     </g>
     <g id="text_2">
      <!-- Nov -->
      <g style="fill: #c9d1d9" transform="translate(222.687274 469.83625) scale(0.1 -0.1)">
       <defs>
        <path id="DejaVuSans-4e" d="M 628 4666 
L 1478 4666 
L 3547 763 
L 3547 4666 
L 4159 4666 
L 4159 0 
L 3309 0 
L 1241 3903 
L 1241 0 
L 628 0 
L 628 4666 
z
" transform="scale(0.015625)"/>
        <path id="DejaVuSans-6f" d="M 1959 3097 
Q 1497 3097 1228 2736 
Q 959 2375 959 1747 
Q 959 1119 1226 758 
Q 1494 397 1959 397 
Q 2419 397 2687 759 
Q 2956 1122 2956 1747 
Q 2956 2369 2687 2733 
Q 2419 3097 1959 3097 
z
M 1959 3584 
Q 2709 3584 3137 3096 
Q 3566 2609 3566 1747 
Q 3566 888 3137 398 
Q 2709 -91 1959 -91 
Q 1206 -91 779 398 
Q 353 888 353 1747 
Q 353 2609 779 3096 
Q 1206 3584 1959 3584 
z
" transform="scale(0.015625)"/>
        <path id="DejaVuSans-76" d="M 191 3500 
L 800 3500 
L 1894 563 
L 2988 3500 
L 3597 3500 
L 2284 0 
L 1503 0 
L 191 3500 
z
" transform="scale(0.015625)"/>
       </defs>
       <use xlink:href="#DejaVuSans-4e"/>
       <use xlink:href="#DejaVuSans-6f" transform="translate(74.804688 0)"/>
       <use xlink:href="#DejaVuSans-76" transform="translate(135.986328 0)"/>
      </g>
     </g>
    </g>
    <g id="xtick_3">
     <g id="line2d_5">
      <path d="M 378.9513 455.237812 
L 378.9513 38.397812 
" clip-path="url(#p6686212fdf)" style="fill: none; stroke: #30363d; stroke-opacity: 0.25; stroke-width: 0.5; stroke-linecap: square"/>
     </g>
     <g id="line2d_6">
      <g>
       <use xlink:href="#ma3d696e0f3" x="378.9513" y="455.237812" style="fill: #c9d1d9; stroke: #c9d1d9; stroke-width: 0.8"/>
      </g>
     </g>
     <g id="text_3">
      <!-- 2026 -->
      <g style="fill: #c9d1d9" transform="translate(366.2263 469.83625) scale(0.1 -0.1)">
       <defs>
        <path id="DejaVuSans-32" d="M 1228 531 
L 3431 531 
L 3431 0 
L 469 0 
L 469 531 
Q 828 903 1448 1529 
Q 2069 2156 2228 2338 
Q 2531 2678 2651 2914 
Q 2772 3150 2772 3378 
Q 2772 3750 2511 3984 
Q 2250 4219 1831 4219 
Q 1534 4219 1204 4116 
Q 875 4013 500 3803 
L 500 4441 
Q 881 4594 1212 4672 
Q 1544 4750 1819 4750 
Q 2544 4750 2975 4387 
Q 3406 4025 3406 3419 
Q 3406 3131 3298 2873 
Q 3191 2616 2906 2266 
Q 2828 2175 2409 1742 
Q 1991 1309 1228 531 
z
" transform="scale(0.015625)"/>
        <path id="DejaVuSans-30" d="M 2034 4250 
Q 1547 4250 1301 3770 
Q 1056 3291 1056 2328 
Q 1056 1369 1301 889 
Q 1547 409 2034 409 
Q 2525 409 2770 889 
Q 3016 1369 3016 2328 
Q 3016 3291 2770 3770 
Q 2525 4250 2034 4250 
z
M 2034 4750 
Q 2819 4750 3233 4129 
Q 3647 3509 3647 2328 
Q 3647 1150 3233 529 
Q 2819 -91 2034 -91 
Q 1250 -91 836 529 
Q 422 1150 422 2328 
Q 422 3509 836 4129 
Q 1250 4750 2034 4750 
z
" transform="scale(0.015625)"/>
        <path id="DejaVuSans-36" d="M 2113 2584 
Q 1688 2584 1439 2293 
Q 1191 2003 1191 1497 
Q 1191 994 1439 701 
Q 1688 409 2113 409 
Q 2538 409 2786 701 
Q 3034 994 3034 1497 
Q 3034 2003 2786 2293 
Q 2538 2584 2113 2584 
z
M 3366 4563 
L 3366 3988 
Q 3128 4100 2886 4159 
Q 2644 4219 2406 4219 
Q 1781 4219 1451 3797 
Q 1122 3375 1075 2522 
Q 1259 2794 1537 2939 
Q 1816 3084 2150 3084 
Q 2853 3084 3261 2657 
Q 3669 2231 3669 1497 
Q 3669 778 3244 343 
Q 2819 -91 2113 -91 
Q 1303 -91 875 529 
Q 447 1150 447 2328 
Q 447 3434 972 4092 
Q 1497 4750 2381 4750 
Q 2619 4750 2861 4703 
Q 3103 4656 3366 4563 
z
" transform="scale(0.015625)"/>
       </defs>
       <use xlink:href="#DejaVuSans-32"/>
       <use xlink:href="#DejaVuSans-30" transform="translate(63.623047 0)"/>
       <use xlink:href="#DejaVuSans-32" transform="translate(127.246094 0)"/>
       <use xlink:href="#DejaVuSans-36" transform="translate(190.869141 0)"/>
      </g>
     </g>
    </g>
    <g id="xtick_4">
     <g id="line2d_7">
      <path d="M 520.652519 455.237812 
L 520.652519 38.397812 
" clip-path="url(#p6686212fdf)" style="fill: none; stroke: #30363d; stroke-opacity: 0.25; stroke-width: 0.5; stroke-linecap: square"/>
     </g>
     <g id="line2d_8">
      <g>
       <use xlink:href="#ma3d696e0f3" x="520.652519" y="455.237812" style="fill: #c9d1d9; stroke: #c9d1d9; stroke-width: 0.8"/>
      </g>
     </g>
     <g id="text_4">
      <!-- Mar -->
      <g style="fill: #c9d1d9" transform="translate(511.218925 469.83625) scale(0.1 -0.1)">
       <defs>
        <path id="DejaVuSans-4d" d="M 628 4666 
L 1569 4666 
L 2759 1491 
L 3956 4666 
L 4897 4666 
L 4897 0 
L 4281 0 
L 4281 4097 
L 3078 897 
L 2444 897 
L 1241 4097 
L 1241 0 
L 628 0 
L 628 4666 
z
" transform="scale(0.015625)"/>
        <path id="DejaVuSans-61" d="M 2194 1759 
Q 1497 1759 1228 1600 
Q 959 1441 959 1056 
Q 959 750 1161 570 
Q 1363 391 1709 391 
Q 2188 391 2477 730 
Q 2766 1069 2766 1631 
L 2766 1759 
L 2194 1759 
z
M 3341 1997 
L 3341 0 
L 2766 0 
L 2766 531 
Q 2569 213 2275 61 
Q 1981 -91 1556 -91 
Q 1019 -91 701 211 
Q 384 513 384 1019 
Q 384 1609 779 1909 
Q 1175 2209 1959 2209 
L 2766 2209 
L 2766 2266 
Q 2766 2663 2505 2880 
Q 2244 3097 1772 3097 
Q 1472 3097 1187 3025 
Q 903 2953 641 2809 
L 641 3341 
Q 956 3463 1253 3523 
Q 1550 3584 1831 3584 
Q 2591 3584 2966 3190 
Q 3341 2797 3341 1997 
z
" transform="scale(0.015625)"/>
        <path id="DejaVuSans-72" d="M 2631 2963 
Q 2534 3019 2420 3045 
Q 2306 3072 2169 3072 
Q 1681 3072 1420 2755 
Q 1159 2438 1159 1844 
L 1159 0 
L 581 0 
L 581 3500 
L 1159 3500 
L 1159 2956 
Q 1341 3275 1631 3429 
Q 1922 3584 2338 3584 
Q 2397 3584 2469 3576 
Q 2541 3569 2628 3553 
L 2631 2963 
z
" transform="scale(0.015625)"/>
       </defs>
       <use xlink:href="#DejaVuSans-4d"/>
       <use xlink:href="#DejaVuSans-61" transform="translate(86.279297 0)"/>
       <use xlink:href="#DejaVuSans-72" transform="translate(147.558594 0)"/>
      </g>
     </g>
    </g>
    <g id="xtick_5">
     <g id="line2d_9">
      <path d="M 667.157169 455.237812 
L 667.157169 38.397812 
" clip-path="url(#p6686212fdf)" style="fill: none; stroke: #30363d; stroke-opacity: 0.25; stroke-width: 0.5; stroke-linecap: square"/>
     </g>
     <g id="line2d_10">
      <g>
       <use xlink:href="#ma3d696e0f3" x="667.157169" y="455.237812" style="fill: #c9d1d9; stroke: #c9d1d9; stroke-width: 0.8"/>
      </g>
     </g>
     <g id="text_5">
      <!-- May -->
      <g style="fill: #c9d1d9" transform="translate(656.819669 469.83625) scale(0.1 -0.1)">
       <defs>
        <path id="DejaVuSans-79" d="M 2059 -325 
Q 1816 -950 1584 -1140 
Q 1353 -1331 966 -1331 
L 506 -1331 
L 506 -850 
L 844 -850 
Q 1081 -850 1212 -737 
Q 1344 -625 1503 -206 
L 1606 56 
L 191 3500 
L 800 3500 
L 1894 763 
L 2988 3500 
L 3597 3500 
L 2059 -325 
z
" transform="scale(0.015625)"/>
       </defs>
       <use xlink:href="#DejaVuSans-4d"/>
       <use xlink:href="#DejaVuSans-61" transform="translate(86.279297 0)"/>
       <use xlink:href="#DejaVuSans-79" transform="translate(147.558594 0)"/>
      </g>
     </g>
    </g>
    <g id="xtick_6">
     <g id="line2d_11">
      <path d="M 813.661819 455.237812 
L 813.661819 38.397812 
" clip-path="url(#p6686212fdf)" style="fill: none; stroke: #30363d; stroke-opacity: 0.25; stroke-width: 0.5; stroke-linecap: square"/>
     </g>
     <g id="line2d_12">
      <g>
       <use xlink:href="#ma3d696e0f3" x="813.661819" y="455.237812" style="fill: #c9d1d9; stroke: #c9d1d9; stroke-width: 0.8"/>
      </g>
     </g>
     <g id="text_6">
      <!-- Jul -->
      <g style="fill: #c9d1d9" transform="translate(807.629007 469.83625) scale(0.1 -0.1)">
       <defs>
        <path id="DejaVuSans-4a" d="M 628 4666 
L 1259 4666 
L 1259 325 
Q 1259 -519 939 -900 
Q 619 -1281 -91 -1281 
L -331 -1281 
L -331 -750 
L -134 -750 
Q 284 -750 456 -515 
Q 628 -281 628 325 
L 628 4666 
z
" transform="scale(0.015625)"/>
        <path id="DejaVuSans-75" d="M 544 1381 
L 544 3500 
L 1119 3500 
L 1119 1403 
Q 1119 906 1312 657 
Q 1506 409 1894 409 
Q 2359 409 2629 706 
Q 2900 1003 2900 1516 
L 2900 3500 
L 3475 3500 
L 3475 0 
L 2900 0 
L 2900 538 
Q 2691 219 2414 64 
Q 2138 -91 1772 -91 
Q 1169 -91 856 284 
Q 544 659 544 1381 
z
M 1991 3584 
L 1991 3584 
z
" transform="scale(0.015625)"/>
        <path id="DejaVuSans-6c" d="M 603 4863 
L 1178 4863 
L 1178 0 
L 603 0 
L 603 4863 
z
" transform="scale(0.015625)"/>
       </defs>
       <use xlink:href="#DejaVuSans-4a"/>
       <use xlink:href="#DejaVuSans-75" transform="translate(29.492188 0)"/>
       <use xlink:href="#DejaVuSans-6c" transform="translate(92.871094 0)"/>
      </g>
     </g>
    </g>
    <g id="text_7">
     <!-- Date -->
     <g style="fill: #c9d1d9" transform="translate(434.285313 485.034062) scale(0.12 -0.12)">
      <defs>
       <path id="DejaVuSans-44" d="M 1259 4147 
L 1259 519 
L 2022 519 
Q 2988 519 3436 956 
Q 3884 1394 3884 2338 
Q 3884 3275 3436 3711 
Q 2988 4147 2022 4147 
L 1259 4147 
z
M 628 4666 
L 1925 4666 
Q 3281 4666 3915 4102 
Q 4550 3538 4550 2338 
Q 4550 1131 3912 565 
Q 3275 0 1925 0 
L 628 0 
L 628 4666 
z
" transform="scale(0.015625)"/>
       <path id="DejaVuSans-74" d="M 1172 4494 
L 1172 3500 
L 2356 3500 
L 2356 3053 
L 1172 3053 
L 1172 1153 
Q 1172 725 1289 603 
Q 1406 481 1766 481 
L 2356 481 
L 2356 0 
L 1766 0 
Q 1100 0 847 248 
Q 594 497 594 1153 
L 594 3053 
L 172 3053 
L 172 3500 
L 594 3500 
L 594 4494 
L 1172 4494 
z
" transform="scale(0.015625)"/>
      </defs>
      <use xlink:href="#DejaVuSans-44"/>
      <use xlink:href="#DejaVuSans-61" transform="translate(77.001953 0)"/>
      <use xlink:href="#DejaVuSans-74" transform="translate(138.28125 0)"/>
      <use xlink:href="#DejaVuSans-65" transform="translate(177.490234 0)"/>
     </g>
    </g>
   </g>
   <g id="matplotlib.axis_2">
    <g id="ytick_1">
     <g id="line2d_13">
      <path d="M 48.90125 455.237812 
L 848.35125 455.237812 
" clip-path="url(#p6686212fdf)" style="fill: none; stroke: #30363d; stroke-opacity: 0.25; stroke-width: 0.5; stroke-linecap: square"/>
     </g>
     <g id="line2d_14">
      <defs>
       <path id="ma6b4203190" d="M 0 0 
L -3.5 0 
" style="stroke: #c9d1d9; stroke-width: 0.8"/>
      </defs>
      <g>
       <use xlink:href="#ma6b4203190" x="48.90125" y="455.237812" style="fill: #c9d1d9; stroke: #c9d1d9; stroke-width: 0.8"/>
      </g>
     </g>
     <g id="text_8">
      <!-- 0 -->
      <g style="fill: #c9d1d9" transform="translate(35.53875 459.037031) scale(0.1 -0.1)">
       <use xlink:href="#DejaVuSans-30"/>
      </g>
     </g>
    </g>
    <g id="ytick_2">
     <g id="line2d_15">
      <path d="M 48.90125 399.659146 
L 848.35125 399.659146 
" clip-path="url(#p6686212fdf)" style="fill: none; stroke: #30363d; stroke-opacity: 0.25; stroke-width: 0.5; stroke-linecap: square"/>
     </g>
     <g id="line2d_16">
      <g>
       <use xlink:href="#ma6b4203190" x="48.90125" y="399.659146" style="fill: #c9d1d9; stroke: #c9d1d9; stroke-width: 0.8"/>
      </g>
     </g>
     <g id="text_9">
      <!-- 100 -->
      <g style="fill: #c9d1d9" transform="translate(22.81375 403.458365) scale(0.1 -0.1)">
       <defs>
        <path id="DejaVuSans-31" d="M 794 531 
L 1825 531 
L 1825 4091 
L 703 3866 
L 703 4441 
L 1819 4666 
L 2450 4666 
L 2450 531 
L 3481 531 
L 3481 0 
L 794 0 
L 794 531 
z
" transform="scale(0.015625)"/>
       </defs>
       <use xlink:href="#DejaVuSans-31"/>
       <use xlink:href="#DejaVuSans-30" transform="translate(63.623047 0)"/>
       <use xlink:href="#DejaVuSans-30" transform="translate(127.246094 0)"/>
      </g>
     </g>
    </g>
    <g id="ytick_3">
     <g id="line2d_17">
      <path d="M 48.90125 344.080479 
L 848.35125 344.080479 
" clip-path="url(#p6686212fdf)" style="fill: none; stroke: #30363d; stroke-opacity: 0.25; stroke-width: 0.5; stroke-linecap: square"/>
     </g>
     <g id="line2d_18">
      <g>
       <use xlink:href="#ma6b4203190" x="48.90125" y="344.080479" style="fill: #c9d1d9; stroke: #c9d1d9; stroke-width: 0.8"/>
      </g>
     </g>
     <g id="text_10">
      <!-- 200 -->
      <g style="fill: #c9d1d9" transform="translate(22.81375 347.879698) scale(0.1 -0.1)">
       <use xlink:href="#DejaVuSans-32"/>
       <use xlink:href="#DejaVuSans-30" transform="translate(63.623047 0)"/>
       <use xlink:href="#DejaVuSans-30" transform="translate(127.246094 0)"/>
      </g>
     </g>
    </g>
    <g id="ytick_4">
     <g id="line2d_19">
      <path d="M 48.90125 288.501812 
L 848.35125 288.501812 
" clip-path="url(#p6686212fdf)" style="fill: none; stroke: #30363d; stroke-opacity: 0.25; stroke-width: 0.5; stroke-linecap: square"/>
     </g>
     <g id="line2d_20">
      <g>
       <use xlink:href="#ma6b4203190" x="48.90125" y="288.501812" style="fill: #c9d1d9; stroke: #c9d1d9; stroke-width: 0.8"/>
      </g>
     </g>
     <g id="text_11">
      <!-- 300 -->
      <g style="fill: #c9d1d9" transform="translate(22.81375 292.301031) scale(0.1 -0.1)">
       <defs>
        <path id="DejaVuSans-33" d="M 2597 2516 
Q 3050 2419 3304 2112 
Q 3559 1806 3559 1356 
Q 3559 666 3084 287 
Q 2609 -91 1734 -91 
Q 1441 -91 1130 -33 
Q 819 25 488 141 
L 488 750 
Q 750 597 1062 519 
Q 1375 441 1716 441 
Q 2309 441 2620 675 
Q 2931 909 2931 1356 
Q 2931 1769 2642 2001 
Q 2353 2234 1838 2234 
L 1294 2234 
L 1294 2753 
L 1863 2753 
Q 2328 2753 2575 2939 
Q 2822 3125 2822 3475 
Q 2822 3834 2567 4026 
Q 2313 4219 1838 4219 
Q 1578 4219 1281 4162 
Q 984 4106 628 3988 
L 628 4550 
Q 988 4650 1302 4700 
Q 1616 4750 1894 4750 
Q 2613 4750 3031 4423 
Q 3450 4097 3450 3541 
Q 3450 3153 3228 2886 
Q 3006 2619 2597 2516 
z
" transform="scale(0.015625)"/>
       </defs>
       <use xlink:href="#DejaVuSans-33"/>
       <use xlink:href="#DejaVuSans-30" transform="translate(63.623047 0)"/>
       <use xlink:href="#DejaVuSans-30" transform="translate(127.246094 0)"/>
      </g>
     </g>
    </g>
    <g id="ytick_5">
     <g id="line2d_21">
      <path d="M 48.90125 232.923146 
L 848.35125 232.923146 
" clip-path="url(#p6686212fdf)" style="fill: none; stroke: #30363d; stroke-opacity: 0.25; stroke-width: 0.5; stroke-linecap: square"/>
     </g>
     <g id="line2d_22">
      <g>
       <use xlink:href="#ma6b4203190" x="48.90125" y="232.923146" style="fill: #c9d1d9; stroke: #c9d1d9; stroke-width: 0.8"/>
      </g>
     </g>
     <g id="text_12">
      <!-- 400 -->
      <g style="fill: #c9d1d9" transform="translate(22.81375 236.722365) scale(0.1 -0.1)">
       <defs>
        <path id="DejaVuSans-34" d="M 2419 4116 
L 825 1625 
L 2419 1625 
L 2419 4116 
z
M 2253 4666 
L 3047 4666 
L 3047 1625 
L 3713 1625 
L 3713 1100 
L 3047 1100 
L 3047 0 
L 2419 0 
L 2419 1100 
L 313 1100 
L 313 1709 
L 2253 4666 
z
" transform="scale(0.015625)"/>
       </defs>
       <use xlink:href="#DejaVuSans-34"/>
       <use xlink:href="#DejaVuSans-30" transform="translate(63.623047 0)"/>
       <use xlink:href="#DejaVuSans-30" transform="translate(127.246094 0)"/>
      </g>
     </g>
    </g>
    <g id="ytick_6">
     <g id="line2d_23">
      <path d="M 48.90125 177.344479 
L 848.35125 177.344479 
" clip-path="url(#p6686212fdf)" style="fill: none; stroke: #30363d; stroke-opacity: 0.25; stroke-width: 0.5; stroke-linecap: square"/>
     </g>
     <g id="line2d_24">
      <g>
       <use xlink:href="#ma6b4203190" x="48.90125" y="177.344479" style="fill: #c9d1d9; stroke: #c9d1d9; stroke-width: 0.8"/>
      </g>
     </g>
     <g id="text_13">
      <!-- 500 -->
      <g style="fill: #c9d1d9" transform="translate(22.81375 181.143698) scale(0.1 -0.1)">
       <defs>
        <path id="DejaVuSans-35" d="M 691 4666 
L 3169 4666 
L 3169 4134 
L 1269 4134 
L 1269 2991 
Q 1406 3038 1543 3061 
Q 1681 3084 1819 3084 
Q 2600 3084 3056 2656 
Q 3513 2228 3513 1497 
Q 3513 744 3044 326 
Q 2575 -91 1722 -91 
Q 1428 -91 1123 -41 
Q 819 9 494 109 
L 494 744 
Q 775 591 1075 516 
Q 1375 441 1709 441 
Q 2250 441 2565 725 
Q 2881 1009 2881 1497 
Q 2881 1984 2565 2268 
Q 2250 2553 1709 2553 
Q 1456 2553 1204 2497 
Q 953 2441 691 2322 
L 691 4666 
z
" transform="scale(0.015625)"/>
       </defs>
       <use xlink:href="#DejaVuSans-35"/>
       <use xlink:href="#DejaVuSans-30" transform="translate(63.623047 0)"/>
       <use xlink:href="#DejaVuSans-30" transform="translate(127.246094 0)"/>
      </g>
     </g>
    </g>
    <g id="ytick_7">
     <g id="line2d_25">
      <path d="M 48.90125 121.765812 
L 848.35125 121.765812 
" clip-path="url(#p6686212fdf)" style="fill: none; stroke: #30363d; stroke-opacity: 0.25; stroke-width: 0.5; stroke-linecap: square"/>
     </g>
     <g id="line2d_26">
      <g>
       <use xlink:href="#ma6b4203190" x="48.90125" y="121.765812" style="fill: #c9d1d9; stroke: #c9d1d9; stroke-width: 0.8"/>
      </g>
     </g>
     <g id="text_14">
      <!-- 600 -->
      <g style="fill: #c9d1d9" transform="translate(22.81375 125.565031) scale(0.1 -0.1)">
       <use xlink:href="#DejaVuSans-36"/>
       <use xlink:href="#DejaVuSans-30" transform="translate(63.623047 0)"/>
       <use xlink:href="#DejaVuSans-30" transform="translate(127.246094 0)"/>
      </g>
     </g>
    </g>
    <g id="ytick_8">
     <g id="line2d_27">
      <path d="M 48.90125 66.187146 
L 848.35125 66.187146 
" clip-path="url(#p6686212fdf)" style="fill: none; stroke: #30363d; stroke-opacity: 0.25; stroke-width: 0.5; stroke-linecap: square"/>
     </g>
     <g id="line2d_28">
      <g>
       <use xlink:href="#ma6b4203190" x="48.90125" y="66.187146" style="fill: #c9d1d9; stroke: #c9d1d9; stroke-width: 0.8"/>
      </g>
     </g>
     <g id="text_15">
      <!-- 700 -->
      <g style="fill: #c9d1d9" transform="translate(22.81375 69.986365) scale(0.1 -0.1)">
       <defs>
        <path id="DejaVuSans-37" d="M 525 4666 
L 3525 4666 
L 3525 4397 
L 1831 0 
L 1172 0 
L 2766 4134 
L 525 4134 
L 525 4666 
z
" transform="scale(0.015625)"/>
       </defs>
       <use xlink:href="#DejaVuSans-37"/>
       <use xlink:href="#DejaVuSans-30" transform="translate(63.623047 0)"/>
       <use xlink:href="#DejaVuSans-30" transform="translate(127.246094 0)"/>
      </g>
     </g>
    </g>
    <g id="text_16">
     <!-- Count -->
     <g style="fill: #c9d1d9" transform="translate(16.318125 264.635937) rotate(-90) scale(0.12 -0.12)">
      <defs>
       <path id="DejaVuSans-43" d="M 4122 4306 
L 4122 3641 
Q 3803 3938 3442 4084 
Q 3081 4231 2675 4231 
Q 1875 4231 1450 3742 
Q 1025 3253 1025 2328 
Q 1025 1406 1450 917 
Q 1875 428 2675 428 
Q 3081 428 3442 575 
Q 3803 722 4122 1019 
L 4122 359 
Q 3791 134 3420 21 
Q 3050 -91 2638 -91 
Q 1578 -91 968 557 
Q 359 1206 359 2328 
Q 359 3453 968 4101 
Q 1578 4750 2638 4750 
Q 3056 4750 3426 4639 
Q 3797 4528 4122 4306 
z
" transform="scale(0.015625)"/>
       <path id="DejaVuSans-6e" d="M 3513 2113 
L 3513 0 
L 2938 0 
L 2938 2094 
Q 2938 2591 2744 2837 
Q 2550 3084 2163 3084 
Q 1697 3084 1428 2787 
Q 1159 2491 1159 1978 
L 1159 0 
L 581 0 
L 581 3500 
L 1159 3500 
L 1159 2956 
Q 1366 3272 1645 3428 
Q 1925 3584 2291 3584 
Q 2894 3584 3203 3211 
Q 3513 2838 3513 2113 
z
" transform="scale(0.015625)"/>
      </defs>
      <use xlink:href="#DejaVuSans-43"/>
      <use xlink:href="#DejaVuSans-6f" transform="translate(69.824219 0)"/>
      <use xlink:href="#DejaVuSans-75" transform="translate(131.005859 0)"/>
      <use xlink:href="#DejaVuSans-6e" transform="translate(194.384766 0)"/>
      <use xlink:href="#DejaVuSans-74" transform="translate(257.763672 0)"/>
     </g>
    </g>
   </g>
   <g id="line2d_29">
    <path d="M 85.239886 454.682026 
L 85.285891 454.682026 
L 85.396887 454.126239 
L 85.459432 454.126239 
L 85.613236 257.933546 
L 87.54798 257.933546 
L 87.556819 261.268266 
L 89.897491 261.268266 
L 90.064777 260.712479 
L 90.335721 260.712479 
L 90.599076 260.156692 
L 92.230936 259.600906 
L 92.263153 260.156692 
L 92.341376 259.600906 
L 97.394763 259.600906 
L 100.443385 260.712479 
L 100.896987 259.600906 
L 101.228196 259.600906 
L 102.062959 259.045119 
L 102.412208 256.821972 
L 103.09225 256.821972 
L 104.083235 260.712479 
L 104.147531 256.821972 
L 104.907963 256.266186 
L 106.887016 256.266186 
L 107.409028 255.710399 
L 108.184415 255.710399 
L 108.438902 254.598826 
L 113.225266 254.598826 
L 113.577767 253.487252 
L 113.595836 252.375679 
L 115.117729 252.375679 
L 117.361832 251.264106 
L 118.539034 251.264106 
L 118.556852 250.708319 
L 121.260338 250.708319 
L 121.930984 247.929386 
L 124.053417 247.929386 
L 124.06815 247.373599 
L 135.954835 247.373599 
L 138.176755 246.817812 
L 138.252615 247.373599 
L 140.557039 246.817812 
L 148.57624 246.817812 
L 152.463044 246.262026 
L 152.538125 245.706239 
L 152.722757 245.150452 
L 154.915434 245.150452 
L 155.848657 244.594666 
L 159.697156 244.594666 
L 159.84326 247.373599 
L 159.850432 245.150452 
L 160.037538 245.150452 
L 161.078698 242.927306 
L 165.515617 242.927306 
L 169.001969 242.371519 
L 172.87682 242.371519 
L 173.046858 241.815732 
L 183.115634 241.815732 
L 183.545357 241.259946 
L 185.990187 241.259946 
L 186.007422 240.148372 
L 190.665693 240.148372 
L 190.760178 236.257866 
L 199.191395 236.257866 
L 199.193924 235.702079 
L 199.438099 235.702079 
L 200.500747 235.146292 
L 201.580657 235.146292 
L 201.924124 234.590506 
L 201.958482 235.146292 
L 202.744989 234.590506 
L 202.748574 234.034719 
L 202.766949 234.590506 
L 203.221273 234.034719 
L 207.359868 234.034719 
L 208.646593 233.478932 
L 210.173406 233.478932 
L 212.766675 232.923146 
L 215.221679 232.923146 
L 217.118422 231.811572 
L 221.269332 231.811572 
L 223.683946 230.699999 
L 224.364265 231.255786 
L 227.734422 231.255786 
L 231.53611 229.032639 
L 237.205854 229.032639 
L 238.964249 228.476852 
L 270.300939 228.476852 
L 270.554009 227.921066 
L 281.981783 227.921066 
L 282.172725 227.365279 
L 301.618198 227.365279 
L 305.900035 226.809492 
L 305.924802 227.365279 
L 308.989964 225.697919 
L 313.488261 225.697919 
L 315.944487 225.142132 
L 315.948518 224.586346 
L 321.073457 224.586346 
L 322.912854 225.142132 
L 323.574076 224.586346 
L 332.150925 224.586346 
L 332.515936 225.142132 
L 333.18458 224.586346 
L 333.414355 222.363199 
L 337.344857 222.363199 
L 337.348249 221.807412 
L 349.375507 221.807412 
L 350.075896 221.251626 
L 352.387325 221.251626 
L 352.612819 220.695839 
L 363.88412 220.695839 
L 363.899437 220.140052 
L 366.718562 220.140052 
L 366.722759 219.584266 
L 367.406831 219.584266 
L 367.442551 219.028479 
L 368.504838 219.028479 
L 368.671735 218.472692 
L 370.945359 218.472692 
L 371.290967 217.361119 
L 372.542611 215.137972 
L 375.569301 215.137972 
L 375.903484 212.359039 
L 376.807685 212.359039 
L 377.305791 211.247466 
L 379.872513 211.247466 
L 380.714726 210.691679 
L 383.125559 210.691679 
L 383.448679 210.135892 
L 389.996717 210.135892 
L 390.158055 209.580106 
L 390.763682 209.580106 
L 391.703937 209.024319 
L 402.294947 209.024319 
L 402.390098 208.468532 
L 402.729674 208.468532 
L 403.438569 207.356959 
L 404.432446 207.356959 
L 404.671422 206.801172 
L 404.90167 206.801172 
L 404.989038 206.245386 
L 407.646936 206.245386 
L 408.099426 205.689599 
L 410.412912 205.689599 
L 410.56124 205.133812 
L 411.828479 205.133812 
L 411.979392 204.578026 
L 415.847961 204.578026 
L 415.932633 204.022239 
L 418.229496 204.022239 
L 418.996655 201.799092 
L 419.847207 201.799092 
L 419.848096 201.243306 
L 423.301674 201.243306 
L 423.934821 200.687519 
L 426.579182 200.687519 
L 427.100026 200.131732 
L 427.295944 200.131732 
L 427.804863 199.575946 
L 429.104847 199.575946 
L 429.255093 199.020159 
L 432.51545 199.020159 
L 433.355856 198.464372 
L 433.417066 197.908586 
L 433.68915 197.908586 
L 434.54793 195.685439 
L 437.211249 195.685439 
L 437.230429 195.129652 
L 439.765129 195.129652 
L 440.006662 194.573866 
L 440.294813 194.573866 
L 440.584659 194.018079 
L 440.645118 194.573866 
L 440.862162 194.018079 
L 441.826462 194.018079 
L 441.835691 193.462292 
L 442.091763 193.462292 
L 442.203899 192.906506 
L 442.97873 192.350719 
L 448.369692 192.350719 
L 449.212294 191.794932 
L 449.776335 191.794932 
L 450.23394 191.239146 
L 450.696854 191.794932 
L 452.602854 191.794932 
L 452.685052 190.683359 
L 455.421257 190.683359 
L 456.482904 189.015999 
L 468.00633 189.015999 
L 468.676058 188.460212 
L 486.463097 188.460212 
L 486.572369 187.904426 
L 512.708567 187.904426 
L 512.83196 186.792852 
L 512.840161 187.348639 
L 516.649465 187.348639 
L 517.509552 186.792852 
L 532.51691 186.792852 
L 535.605089 186.237066 
L 535.63511 185.681279 
L 535.890765 185.681279 
L 536.691559 185.125492 
L 560.777375 185.125492 
L 561.011153 184.569706 
L 582.429953 184.569706 
L 585.179194 184.013919 
L 586.860868 184.013919 
L 587.043359 183.458132 
L 588.212194 182.902346 
L 591.490008 182.902346 
L 592.870494 182.346559 
L 594.315026 182.346559 
L 594.427523 181.790772 
L 596.803498 181.790772 
L 597.087312 181.234986 
L 597.143491 180.679199 
L 601.373707 180.679199 
L 601.390107 180.123412 
L 604.99193 180.123412 
L 604.99988 179.567626 
L 606.220252 179.011839 
L 608.386744 179.011839 
L 609.945802 178.456052 
L 611.341049 178.456052 
L 613.397462 175.121332 
L 615.798288 175.121332 
L 615.809407 172.342399 
L 627.880836 172.342399 
L 627.882087 171.786612 
L 628.090875 171.230826 
L 629.247089 171.230826 
L 629.498575 170.675039 
L 633.291034 170.675039 
L 634.167743 170.119252 
L 634.311985 170.675039 
L 641.095219 170.675039 
L 641.096748 170.119252 
L 643.83551 170.119252 
L 644.955894 167.340319 
L 651.824383 167.340319 
L 651.897741 166.228746 
L 653.450684 164.561386 
L 655.008908 164.561386 
L 655.174888 164.005599 
L 661.725233 164.005599 
L 661.845681 163.449812 
L 668.422962 163.449812 
L 668.566231 162.894026 
L 670.378971 161.226666 
L 670.519432 160.670879 
L 688.376827 160.670879 
L 690.067507 157.891946 
L 694.101666 157.891946 
L 694.364437 157.336159 
L 697.395269 157.336159 
L 698.523352 156.224586 
L 714.498347 156.224586 
L 714.70088 155.668799 
L 717.03944 155.668799 
L 717.289952 155.113012 
L 732.695317 155.113012 
L 732.703212 153.445652 
L 733.181692 153.445652 
L 733.372329 152.889866 
L 736.008879 152.889866 
L 736.395488 152.334079 
L 736.397795 152.889866 
L 743.356544 152.889866 
L 745.035271 152.334079 
L 776.354365 152.334079 
L 776.35745 151.778292 
L 788.828442 151.778292 
L 790.38939 151.222506 
L 812.012614 151.222506 
L 812.012614 151.222506 
" clip-path="url(#p6686212fdf)" style="fill: none; stroke: #3fb950; stroke-width: 2; stroke-linecap: square"/>
   </g>
   <g id="line2d_30">
    <path d="M 85.239886 455.237812 
L 85.315079 453.570452 
L 85.396887 453.570452 
L 85.524729 372.981386 
L 86.593548 372.981386 
L 86.61687 370.758239 
L 87.785955 370.758239 
L 88.08717 369.090879 
L 88.497019 370.758239 
L 88.500048 369.090879 
L 88.83918 369.090879 
L 88.970245 367.979306 
L 92.319332 367.979306 
L 92.322529 367.423519 
L 92.341376 367.979306 
L 92.506216 367.423519 
L 92.554556 367.979306 
L 92.778521 367.423519 
L 93.858737 367.423519 
L 94.087706 366.311946 
L 95.414627 366.311946 
L 96.92465 365.756159 
L 96.977799 365.200372 
L 97.385924 364.644586 
L 97.394763 364.088799 
L 100.443385 367.979306 
L 100.896987 366.311946 
L 101.228196 363.533012 
L 103.09225 363.533012 
L 104.083235 367.979306 
L 104.147531 363.533012 
L 122.25605 363.533012 
L 122.811724 362.977226 
L 124.06815 362.977226 
L 127.499656 362.421439 
L 128.335531 361.865652 
L 140.245428 361.865652 
L 140.557039 361.309866 
L 142.158016 360.754079 
L 143.175576 360.754079 
L 144.303493 360.198292 
L 144.333876 359.086719 
L 145.109207 358.530932 
L 145.630302 357.975146 
L 152.809041 357.975146 
L 154.240063 357.419359 
L 154.672678 357.419359 
L 154.915434 356.863572 
L 155.848657 356.863572 
L 156.775791 356.307786 
L 159.697156 356.307786 
L 159.84326 358.530932 
L 159.850432 356.307786 
L 160.966646 356.307786 
L 161.078698 355.751999 
L 162.65866 355.751999 
L 164.213131 355.196212 
L 164.250853 354.640426 
L 169.001969 354.640426 
L 171.005928 354.084639 
L 171.010987 353.528852 
L 177.679528 353.528852 
L 180.461238 352.973066 
L 182.548228 352.973066 
L 183.115634 352.417279 
L 186.30127 352.417279 
L 188.118235 351.861492 
L 188.217834 351.305706 
L 189.989294 351.305706 
L 190.194885 350.749919 
L 190.760178 350.194132 
L 192.022107 350.194132 
L 192.818843 349.638346 
L 194.279636 349.638346 
L 195.233039 349.082559 
L 197.266937 349.082559 
L 197.959848 347.970986 
L 203.221273 347.970986 
L 204.719677 347.415199 
L 206.47671 347.415199 
L 206.872937 346.859412 
L 206.994107 346.303626 
L 207.359868 345.747839 
L 213.410413 345.747839 
L 214.518204 345.192052 
L 215.221679 344.636266 
L 232.427108 344.636266 
L 236.289311 344.080479 
L 236.335455 343.524692 
L 238.964249 343.524692 
L 241.211132 342.968906 
L 245.182469 342.968906 
L 245.518042 342.413119 
L 252.281401 342.413119 
L 257.575794 341.857332 
L 257.626608 341.301546 
L 258.318769 341.301546 
L 259.721132 340.745759 
L 259.799354 339.078399 
L 259.861065 338.522612 
L 262.790352 337.966826 
L 262.965755 337.411039 
L 263.035666 336.299466 
L 263.300967 335.743679 
L 272.833165 335.743679 
L 275.541099 335.187892 
L 277.264886 334.632106 
L 278.615295 334.632106 
L 281.746337 334.076319 
L 281.981783 331.853172 
L 282.172725 331.853172 
L 282.622908 330.741599 
L 288.561844 330.185812 
L 288.750868 329.630026 
L 288.80663 329.074239 
L 290.061332 329.074239 
L 291.246151 328.518452 
L 291.382331 327.962666 
L 291.474814 326.851092 
L 292.259069 326.295306 
L 292.316638 325.739519 
L 293.747549 325.183732 
L 295.628448 324.627946 
L 295.76221 324.072159 
L 295.765045 323.516372 
L 296.143371 322.960586 
L 296.210197 322.404799 
L 298.938618 321.849012 
L 299.427745 321.293226 
L 310.913922 321.293226 
L 312.818727 320.737439 
L 312.992073 320.181652 
L 320.776856 320.181652 
L 321.073457 319.070079 
L 324.316968 319.070079 
L 325.296223 318.514292 
L 325.344063 317.402719 
L 325.59552 316.846932 
L 327.260571 316.291146 
L 327.29807 315.735359 
L 327.499047 315.179572 
L 327.704999 312.956426 
L 327.934413 312.956426 
L 327.942864 312.400639 
L 329.332884 311.844852 
L 329.879358 311.289066 
L 330.011591 310.733279 
L 332.515936 310.177492 
L 334.361532 310.177492 
L 335.002406 309.621706 
L 341.941391 309.621706 
L 344.240227 309.065919 
L 344.249373 308.510132 
L 344.662807 307.954346 
L 350.075896 307.954346 
L 351.594703 307.398559 
L 352.220372 306.842772 
L 352.387325 305.731199 
L 356.765952 305.731199 
L 357.064277 305.175412 
L 359.468716 305.175412 
L 360.619844 304.619626 
L 363.899437 304.619626 
L 365.882103 304.063839 
L 369.999461 304.063839 
L 370.505517 303.508052 
L 372.542611 303.508052 
L 373.09709 302.952266 
L 373.337623 302.396479 
L 373.456097 301.840692 
L 375.132933 301.840692 
L 375.180606 300.729119 
L 375.792766 300.729119 
L 376.194692 299.061759 
L 377.653317 299.061759 
L 377.834474 298.505972 
L 377.975102 298.505972 
L 378.673268 297.950186 
L 379.831845 297.950186 
L 379.872513 297.394399 
L 380.714726 297.394399 
L 380.919289 296.838612 
L 381.710882 296.838612 
L 382.922887 295.727039 
L 383.448679 295.727039 
L 385.482215 294.615466 
L 385.485273 294.059679 
L 385.873522 293.503892 
L 386.864119 292.948106 
L 387.018145 292.392319 
L 388.005795 291.836532 
L 389.620282 291.836532 
L 390.158055 290.724959 
L 392.127072 290.724959 
L 392.182973 290.169172 
L 392.74393 290.169172 
L 392.786988 289.613386 
L 393.094819 289.057599 
L 394.165918 289.057599 
L 394.247393 288.501812 
L 394.430885 288.501812 
L 394.552944 287.390239 
L 396.059131 287.390239 
L 396.3574 286.834452 
L 396.607856 286.834452 
L 396.757547 286.278666 
L 397.13982 286.278666 
L 397.426024 285.722879 
L 397.486373 285.167092 
L 397.568181 285.167092 
L 399.006903 284.611306 
L 400.083534 284.611306 
L 400.165036 284.055519 
L 404.41207 284.055519 
L 404.432446 283.499732 
L 404.671422 283.499732 
L 405.233768 282.388159 
L 406.668154 282.388159 
L 406.801165 280.720799 
L 406.839971 279.609226 
L 407.090678 279.053439 
L 408.099426 279.053439 
L 408.575183 278.497652 
L 409.036318 278.497652 
L 409.185007 277.941866 
L 409.899823 277.386079 
L 410.56124 277.386079 
L 411.89094 276.830292 
L 411.979392 276.274506 
L 412.316021 276.274506 
L 412.383375 275.718719 
L 413.565414 275.718719 
L 413.598243 275.162932 
L 419.330699 275.162932 
L 419.436636 274.607146 
L 419.589801 274.607146 
L 419.66541 273.495572 
L 420.403548 273.495572 
L 420.560633 272.939786 
L 421.071887 272.383999 
L 421.200395 271.828212 
L 421.435202 271.828212 
L 421.6339 271.272426 
L 421.698668 270.716639 
L 424.579087 270.716639 
L 425.306134 270.160852 
L 425.449736 269.049279 
L 425.626696 268.493492 
L 425.922102 268.493492 
L 426.102147 267.937706 
L 430.235877 267.937706 
L 430.508767 266.270346 
L 431.073587 266.270346 
L 431.156507 265.714559 
L 433.363612 265.714559 
L 433.417066 264.602986 
L 436.067904 264.602986 
L 436.095368 264.047199 
L 437.372336 264.047199 
L 437.380926 263.491412 
L 438.002759 263.491412 
L 438.105888 262.935626 
L 439.912512 262.935626 
L 440.006662 262.379839 
L 440.126609 262.379839 
L 440.294813 261.824052 
L 440.636251 261.824052 
L 440.645118 261.268266 
L 440.862162 261.268266 
L 441.276208 260.712479 
L 444.620486 260.712479 
L 444.863548 260.156692 
L 445.855841 260.156692 
L 445.857675 259.600906 
L 453.444372 259.600906 
L 454.732042 259.045119 
L 454.769374 258.489332 
L 455.421257 257.933546 
L 456.412492 257.933546 
L 456.482904 256.821972 
L 456.662199 256.821972 
L 456.736835 256.266186 
L 459.369382 256.266186 
L 459.844777 255.710399 
L 464.398391 255.710399 
L 464.412401 255.154612 
L 465.899658 255.154612 
L 466.535251 254.598826 
L 473.535362 254.598826 
L 473.62273 253.487252 
L 476.375752 253.487252 
L 476.923338 252.931466 
L 477.509729 252.931466 
L 478.226574 252.375679 
L 482.964931 252.375679 
L 483.418672 251.819892 
L 483.811842 251.819892 
L 484.004618 251.264106 
L 485.514086 250.708319 
L 486.253002 250.708319 
L 486.572369 250.152532 
L 488.693023 249.596746 
L 492.597562 249.596746 
L 492.903114 249.040959 
L 507.973573 249.040959 
L 508.524217 248.485172 
L 512.009289 248.485172 
L 512.13524 247.929386 
L 512.361624 247.929386 
L 512.429867 247.373599 
L 531.89252 247.373599 
L 532.51691 246.817812 
L 537.163924 246.817812 
L 538.173395 246.262026 
L 538.241055 245.706239 
L 540.658865 245.706239 
L 540.759187 245.150452 
L 548.590725 245.150452 
L 548.606765 244.594666 
L 555.217876 244.594666 
L 555.289038 244.038879 
L 555.718428 243.483092 
L 557.340754 243.483092 
L 557.344478 242.927306 
L 557.674158 242.371519 
L 560.109982 242.371519 
L 560.914723 241.815732 
L 566.108767 241.815732 
L 566.145348 240.704159 
L 599.069339 240.704159 
L 601.390107 240.148372 
L 604.309915 240.148372 
L 604.406929 239.592586 
L 617.351815 239.592586 
L 617.373552 239.036799 
L 630.891848 239.036799 
L 631.031197 238.481012 
L 631.835466 238.481012 
L 631.856426 237.925226 
L 632.038194 237.369439 
L 632.745283 236.257866 
L 632.849218 235.146292 
L 632.909289 234.034719 
L 633.09039 233.478932 
L 633.132281 232.923146 
L 633.291034 232.367359 
L 634.311985 232.367359 
L 634.438909 231.811572 
L 634.444886 231.255786 
L 634.827742 230.699999 
L 641.096748 230.699999 
L 641.772453 229.588426 
L 661.545883 229.588426 
L 661.713558 229.032639 
L 673.740928 229.032639 
L 674.026771 227.921066 
L 675.321056 227.921066 
L 675.49443 227.365279 
L 683.184173 227.365279 
L 683.376338 226.809492 
L 686.398886 226.809492 
L 687.206129 226.253706 
L 687.282045 225.697919 
L 691.817034 225.697919 
L 691.958302 224.586346 
L 692.543358 224.030559 
L 693.09061 224.030559 
L 694.101666 223.474772 
L 697.008187 223.474772 
L 697.052496 222.918986 
L 697.395269 222.363199 
L 699.766879 222.363199 
L 702.280036 221.807412 
L 714.70088 221.807412 
L 716.16904 221.251626 
L 716.712595 220.695839 
L 717.03944 219.584266 
L 718.787299 219.584266 
L 725.908859 218.472692 
L 727.695829 218.472692 
L 727.892692 217.361119 
L 728.134448 217.361119 
L 728.257091 216.805332 
L 738.265213 216.805332 
L 738.276943 216.249546 
L 755.000917 216.249546 
L 757.223783 215.693759 
L 757.356794 214.582186 
L 757.441132 214.582186 
L 757.535116 213.470612 
L 757.666571 213.470612 
L 757.684417 212.914826 
L 759.187324 212.914826 
L 759.336681 212.359039 
L 759.421297 211.803252 
L 759.749253 211.247466 
L 759.990954 211.247466 
L 760.479414 210.691679 
L 771.300088 210.691679 
L 771.330665 210.135892 
L 776.203813 210.135892 
L 776.279784 209.580106 
L 776.35745 209.580106 
L 777.090946 209.024319 
L 779.638433 209.024319 
L 781.312823 208.468532 
L 788.819324 208.468532 
L 788.828442 207.356959 
L 790.955239 207.356959 
L 791.018534 206.801172 
L 791.751168 206.245386 
L 791.809293 205.689599 
L 792.776234 205.689599 
L 792.809007 205.133812 
L 795.46988 205.133812 
L 795.472493 204.578026 
L 795.587297 204.022239 
L 797.808801 204.022239 
L 797.844354 202.354879 
L 797.967553 201.799092 
L 798.274856 201.799092 
L 798.333009 201.243306 
L 800.033807 201.243306 
L 800.045232 200.687519 
L 800.502586 200.687519 
L 802.459039 194.573866 
L 803.794188 194.573866 
L 803.812256 194.018079 
L 810.561939 194.018079 
L 810.828657 192.350719 
L 812.012614 192.350719 
L 812.012614 192.350719 
" clip-path="url(#p6686212fdf)" style="fill: none; stroke: #58a6ff; stroke-width: 2; stroke-linecap: square"/>
   </g>
   <g id="line2d_31">
    <path d="M 85.239886 455.237812 
L 87.54798 455.237812 
L 87.556819 454.126239 
L 89.462291 454.126239 
L 89.897491 453.570452 
L 207.359868 453.570452 
L 208.646593 453.014666 
L 241.211132 453.014666 
L 242.114861 452.458879 
L 272.833165 452.458879 
L 275.541099 451.903092 
L 282.622908 451.903092 
L 288.80663 450.235732 
L 290.061332 449.124159 
L 292.316638 449.124159 
L 293.747549 448.568372 
L 295.765045 448.012586 
L 296.210197 448.012586 
L 298.938618 447.456799 
L 299.427745 446.901012 
L 301.618198 446.345226 
L 305.900035 445.789439 
L 305.924802 446.345226 
L 312.992073 446.345226 
L 313.488261 445.789439 
L 323.574076 445.789439 
L 324.316968 445.233652 
L 327.704999 445.233652 
L 327.942864 444.677866 
L 332.150925 444.677866 
L 332.515936 444.122079 
L 347.931531 444.122079 
L 349.375507 443.566292 
L 349.982385 443.566292 
L 350.075896 443.010506 
L 354.190196 443.010506 
L 354.194115 442.454719 
L 363.88412 442.454719 
L 363.899437 441.898932 
L 366.722759 441.898932 
L 367.442551 441.343146 
L 368.502975 440.787359 
L 368.504838 440.231572 
L 368.671735 440.231572 
L 369.999461 438.564212 
L 370.893877 438.564212 
L 370.945359 436.896852 
L 371.290967 436.896852 
L 372.542611 437.452639 
L 373.442754 437.452639 
L 373.456097 435.229492 
L 376.807685 435.229492 
L 377.305791 434.673706 
L 377.834474 434.673706 
L 377.975102 434.117919 
L 389.996717 434.117919 
L 390.158055 433.562132 
L 390.763682 433.562132 
L 391.703937 433.006346 
L 395.852206 433.006346 
L 396.059131 432.450559 
L 397.486373 432.450559 
L 397.568181 431.894772 
L 402.294947 431.894772 
L 402.390098 431.338986 
L 402.729674 431.338986 
L 403.074086 430.783199 
L 403.418166 430.783199 
L 403.438569 430.227412 
L 404.90167 430.227412 
L 404.989038 429.671626 
L 411.781362 429.671626 
L 411.894665 429.115839 
L 411.909676 429.115839 
L 412.087275 428.560052 
L 412.383375 428.560052 
L 413.230258 428.004266 
L 416.541206 428.004266 
L 416.544125 427.448479 
L 417.176771 427.448479 
L 417.200844 426.892692 
L 418.996655 426.892692 
L 419.436636 426.336906 
L 421.76705 426.336906 
L 422.461157 425.781119 
L 423.811038 425.781119 
L 423.825354 424.669546 
L 423.934821 424.669546 
L 424.072586 424.113759 
L 426.244109 424.113759 
L 426.579182 423.557972 
L 427.100026 423.557972 
L 427.295944 423.002186 
L 428.567241 423.002186 
L 428.744757 422.446399 
L 428.747036 421.890612 
L 429.104847 421.890612 
L 429.255093 421.334826 
L 442.949653 421.334826 
L 442.97873 420.223252 
L 444.863548 420.223252 
L 445.406019 419.667466 
L 445.857675 419.667466 
L 447.976439 419.111679 
L 448.369692 419.111679 
L 449.212294 418.555892 
L 449.776335 418.555892 
L 450.23394 418.000106 
L 450.696854 418.555892 
L 452.187057 418.555892 
L 452.592291 418.000106 
L 452.685052 416.888532 
L 453.439285 416.332746 
L 453.444372 415.221172 
L 456.736835 415.221172 
L 457.456877 414.665386 
L 457.529846 412.998026 
L 458.249527 412.442239 
L 458.647533 411.886452 
L 462.051576 411.886452 
L 462.196013 410.219092 
L 462.369637 410.219092 
L 462.498367 409.663306 
L 463.330295 409.107519 
L 464.639814 409.107519 
L 464.90959 408.551732 
L 464.970967 407.995946 
L 465.108621 407.995946 
L 465.899658 406.884372 
L 466.74718 406.884372 
L 467.025462 406.328586 
L 468.003105 406.328586 
L 468.00633 405.217012 
L 468.676058 405.217012 
L 469.565165 404.661226 
L 471.920709 403.549652 
L 472.23674 402.993866 
L 476.923338 402.993866 
L 477.509729 401.882292 
L 486.463097 401.882292 
L 486.572369 400.770719 
L 490.930343 400.770719 
L 491.596208 400.214932 
L 493.616846 400.214932 
L 493.73026 399.659146 
L 506.161445 399.659146 
L 506.359865 399.103359 
L 507.591189 399.103359 
L 507.973573 398.547572 
L 510.271604 398.547572 
L 510.703801 397.991786 
L 510.706637 397.435999 
L 511.200934 396.880212 
L 512.708567 396.880212 
L 512.823704 396.324426 
L 512.83196 395.212852 
L 512.840161 395.768639 
L 513.853273 395.212852 
L 517.509552 395.212852 
L 518.230761 394.101279 
L 524.827835 394.101279 
L 525.337893 393.545492 
L 526.938287 393.545492 
L 527.066406 392.989706 
L 527.08403 392.433919 
L 532.51691 392.433919 
L 535.890765 391.322346 
L 536.691559 391.322346 
L 537.163924 390.766559 
L 544.152472 390.766559 
L 545.011474 390.210772 
L 546.075874 390.210772 
L 547.106749 389.654986 
L 555.718428 389.654986 
L 555.954763 389.099199 
L 555.956042 388.543412 
L 560.777375 388.543412 
L 561.011153 387.987626 
L 582.429953 387.987626 
L 585.179194 387.431839 
L 591.490008 387.431839 
L 592.870494 386.876052 
L 594.085139 386.876052 
L 594.427523 386.320266 
L 597.143491 386.320266 
L 597.621276 385.764479 
L 598.251421 385.764479 
L 599.069339 385.208692 
L 601.029878 385.208692 
L 601.390107 384.652906 
L 601.631419 384.652906 
L 602.509935 384.097119 
L 610.997415 384.097119 
L 611.021154 382.429759 
L 618.426944 382.429759 
L 621.567381 381.873972 
L 621.569939 381.318186 
L 625.252458 381.318186 
L 625.407041 380.762399 
L 625.513951 380.206612 
L 627.131856 380.206612 
L 627.882087 379.650826 
L 628.418776 379.650826 
L 629.247089 379.095039 
L 630.135974 379.095039 
L 630.289584 377.983466 
L 631.031197 377.983466 
L 631.178997 377.427679 
L 632.847773 377.427679 
L 632.909289 376.871892 
L 635.539612 376.871892 
L 637.445168 376.316106 
L 638.070197 376.316106 
L 638.683775 375.760319 
L 639.951263 375.204532 
L 639.956684 374.648746 
L 640.306211 372.981386 
L 640.625606 372.425599 
L 641.096748 371.869812 
L 642.359372 371.869812 
L 643.125086 370.202452 
L 644.955894 370.202452 
L 645.451609 368.535092 
L 647.466159 368.535092 
L 647.679478 367.979306 
L 649.139604 367.979306 
L 649.456914 366.867732 
L 650.006724 366.311946 
L 651.897741 366.311946 
L 655.174888 365.200372 
L 657.276028 364.644586 
L 657.418768 364.088799 
L 659.40616 364.088799 
L 659.533307 363.533012 
L 661.715199 363.533012 
L 661.725233 362.977226 
L 662.134248 362.977226 
L 662.223895 362.421439 
L 668.422962 362.421439 
L 668.566231 361.865652 
L 670.519432 361.309866 
L 673.731727 361.309866 
L 673.740928 360.754079 
L 685.525901 360.754079 
L 686.398886 358.530932 
L 691.235174 358.530932 
L 691.242318 357.419359 
L 697.395269 357.419359 
L 698.520962 355.751999 
L 698.523352 355.196212 
L 702.872737 355.196212 
L 704.336143 354.084639 
L 704.401634 353.528852 
L 731.745027 353.528852 
L 732.835278 352.973066 
L 735.709165 352.973066 
L 736.008879 351.861492 
L 765.03817 351.861492 
L 765.576805 349.638346 
L 788.828442 349.638346 
L 790.38939 349.082559 
L 800.501113 349.082559 
L 800.502586 344.636266 
L 812.012614 344.636266 
L 812.012614 344.636266 
" clip-path="url(#p6686212fdf)" style="fill: none; stroke: #d29922; stroke-width: 2; stroke-linecap: square"/>
   </g>
   <g id="line2d_32">
    <path d="M 85.239886 454.682026 
L 85.437305 454.682026 
L 85.524729 432.450559 
L 85.981611 426.892692 
L 86.242686 425.781119 
L 86.375142 426.336906 
L 86.61687 425.781119 
L 87.02569 425.225332 
L 87.556819 423.002186 
L 87.785955 421.334826 
L 88.08717 421.334826 
L 88.497019 420.779039 
L 88.500048 420.223252 
L 88.830034 419.667466 
L 88.921016 419.111679 
L 88.970245 419.111679 
L 89.813848 418.000106 
L 89.897491 411.886452 
L 89.955338 412.442239 
L 90.237289 404.661226 
L 90.335721 402.993866 
L 92.322529 402.993866 
L 92.506216 399.659146 
L 92.554556 402.438079 
L 92.778521 397.991786 
L 92.889434 397.435999 
L 93.715774 396.880212 
L 93.858737 395.768639 
L 94.087706 395.768639 
L 94.51326 395.212852 
L 94.74059 394.657066 
L 95.123808 391.878132 
L 95.337405 392.433919 
L 95.414627 390.766559 
L 97.394763 390.766559 
L 100.443385 402.993866 
L 100.896987 390.210772 
L 101.228196 389.654986 
L 102.412208 389.654986 
L 102.62878 389.099199 
L 103.09225 388.543412 
L 104.083235 402.993866 
L 104.147531 387.987626 
L 104.907963 387.431839 
L 106.534153 386.876052 
L 106.650124 387.431839 
L 106.887016 385.764479 
L 107.409028 385.764479 
L 107.567641 385.208692 
L 107.867216 384.652906 
L 107.892067 383.541332 
L 108.168403 382.429759 
L 108.184415 382.985546 
L 108.348782 382.985546 
L 108.752793 378.539252 
L 109.108714 376.871892 
L 109.282672 377.983466 
L 110.512661 374.648746 
L 110.836532 375.760319 
L 112.169372 373.537172 
L 113.225266 377.427679 
L 113.595836 373.537172 
L 115.117729 371.869812 
L 117.361832 371.869812 
L 117.65821 371.314026 
L 117.894073 369.646666 
L 118.556852 371.314026 
L 121.260338 371.869812 
L 121.930984 369.646666 
L 122.25605 367.979306 
L 122.811724 369.646666 
L 124.06815 367.979306 
L 128.335531 367.979306 
L 132.822709 367.423519 
L 133.12195 366.867732 
L 135.954835 366.311946 
L 137.828062 366.311946 
L 138.176755 365.756159 
L 138.252615 366.311946 
L 140.245428 364.644586 
L 142.114624 364.644586 
L 142.158016 364.088799 
L 143.175576 363.533012 
L 145.630302 363.533012 
L 146.713131 359.642506 
L 147.519068 359.086719 
L 148.556114 358.530932 
L 148.57624 357.975146 
L 152.463044 357.975146 
L 152.538125 354.084639 
L 152.681978 354.084639 
L 152.809041 352.973066 
L 154.240063 352.973066 
L 154.672678 352.417279 
L 156.775791 352.417279 
L 159.697156 351.861492 
L 159.84326 363.533012 
L 159.850432 352.417279 
L 160.037538 351.861492 
L 161.078698 351.861492 
L 162.65866 351.305706 
L 164.250853 351.305706 
L 165.515617 350.749919 
L 169.001969 349.638346 
L 171.010987 349.638346 
L 172.625585 349.082559 
L 172.87682 346.303626 
L 173.046858 346.303626 
L 173.34774 345.747839 
L 174.917166 345.192052 
L 175.279953 342.968906 
L 177.44903 341.857332 
L 177.47516 342.413119 
L 177.679528 341.857332 
L 180.461238 340.745759 
L 182.548228 340.189972 
L 183.545357 340.189972 
L 184.429155 339.634186 
L 185.195064 338.522612 
L 186.007422 337.966826 
L 186.30127 337.411039 
L 188.217834 337.966826 
L 189.989294 336.855252 
L 190.194885 337.411039 
L 190.665693 337.411039 
L 190.760178 336.855252 
L 192.022107 336.299466 
L 192.818843 336.855252 
L 194.279636 335.743679 
L 195.233039 335.743679 
L 197.266937 335.187892 
L 197.604205 335.743679 
L 197.959848 334.076319 
L 199.193924 334.076319 
L 199.438099 333.520532 
L 200.500747 331.297386 
L 200.800989 330.185812 
L 201.580657 330.741599 
L 201.924124 329.630026 
L 201.958482 329.074239 
L 204.719677 329.074239 
L 206.118148 328.518452 
L 206.47671 327.962666 
L 208.646593 327.962666 
L 210.173406 327.406879 
L 212.766675 327.406879 
L 213.410413 326.851092 
L 220.541451 326.851092 
L 220.950993 326.295306 
L 220.992023 325.739519 
L 221.269332 325.183732 
L 224.364265 325.183732 
L 224.557153 324.627946 
L 225.344576 324.072159 
L 225.480951 323.516372 
L 226.78555 322.960586 
L 227.734422 322.404799 
L 231.53611 322.404799 
L 232.427108 321.293226 
L 236.335455 321.293226 
L 237.205854 320.737439 
L 240.84829 320.737439 
L 241.211132 320.181652 
L 242.114861 319.625866 
L 242.383887 319.070079 
L 242.47523 318.514292 
L 245.182469 317.958506 
L 245.518042 318.514292 
L 249.081949 317.402719 
L 251.899767 316.291146 
L 252.281401 315.735359 
L 257.626608 315.735359 
L 258.318769 315.179572 
L 263.300967 315.179572 
L 267.994097 314.623786 
L 268.584407 314.067999 
L 270.554009 313.512212 
L 272.52917 312.956426 
L 272.833165 312.400639 
L 277.264886 312.400639 
L 278.615295 311.844852 
L 288.80663 311.844852 
L 290.061332 311.289066 
L 298.479651 311.289066 
L 298.938618 310.733279 
L 299.427745 311.289066 
L 301.618198 310.733279 
L 308.989964 310.733279 
L 309.977836 310.177492 
L 325.572504 310.177492 
L 325.59552 309.621706 
L 335.226789 309.621706 
L 337.342828 309.065919 
L 337.348249 308.510132 
L 347.926833 308.510132 
L 347.931531 307.398559 
L 354.194115 307.398559 
L 357.064277 306.842772 
L 360.619844 306.842772 
L 363.899437 305.731199 
L 370.505517 305.731199 
L 370.893877 305.175412 
L 370.945359 304.619626 
L 373.442754 304.619626 
L 373.456097 304.063839 
L 373.715421 304.063839 
L 374.128799 303.508052 
L 377.834474 303.508052 
L 377.975102 302.952266 
L 382.922887 302.952266 
L 383.125559 302.396479 
L 395.208857 302.396479 
L 395.851288 300.729119 
L 395.852206 300.173332 
L 397.564095 300.173332 
L 397.568181 299.617546 
L 402.617649 299.617546 
L 402.729674 299.061759 
L 405.146928 299.061759 
L 405.233768 298.505972 
L 414.213738 298.505972 
L 414.49972 297.950186 
L 416.470795 297.950186 
L 416.544125 297.394399 
L 417.200844 296.838612 
L 433.68915 296.838612 
L 434.54793 295.727039 
L 435.833404 295.727039 
L 436.095368 295.171252 
L 437.380926 295.171252 
L 437.571451 294.615466 
L 440.608815 294.615466 
L 440.645118 294.059679 
L 457.45546 294.059679 
L 457.529846 292.948106 
L 478.542105 292.948106 
L 479.087829 292.392319 
L 514.9639 292.392319 
L 516.649465 291.836532 
L 531.810962 291.836532 
L 531.89252 291.280746 
L 538.680285 291.280746 
L 539.010215 290.724959 
L 673.352956 290.724959 
L 673.740928 290.169172 
L 690.79814 290.169172 
L 691.242318 289.613386 
L 697.395269 289.613386 
L 698.510093 289.057599 
L 698.523352 285.167092 
L 704.332891 285.167092 
L 704.401634 282.388159 
L 777.090946 282.388159 
L 777.560643 281.832372 
L 812.012614 281.832372 
L 812.012614 281.832372 
" clip-path="url(#p6686212fdf)" style="fill: none; stroke: #f85149; stroke-width: 2; stroke-linecap: square"/>
   </g>
   <g id="line2d_33">
    <path d="M 85.239886 454.682026 
L 85.255592 454.126239 
L 85.379419 -1 
M 85.490714 -1 
L 85.613236 101.201706 
L 87.54798 101.201706 
L 87.556819 97.866986 
L 89.897491 97.866986 
L 90.064777 98.422772 
L 90.335721 98.422772 
L 90.599076 98.978559 
L 92.230936 99.534346 
L 92.263153 98.978559 
L 92.341376 99.534346 
L 97.394763 99.534346 
L 100.443385 98.422772 
L 100.896987 99.534346 
L 101.228196 98.978559 
L 102.062959 99.534346 
L 102.412208 96.755412 
L 103.09225 96.755412 
L 104.083235 98.422772 
L 104.147531 95.643839 
L 104.907963 96.199626 
L 106.887016 96.199626 
L 107.409028 95.088052 
L 108.184415 95.088052 
L 108.438902 91.197546 
L 113.225266 91.197546 
L 113.595836 86.751252 
L 115.117729 86.751252 
L 117.361832 82.860746 
L 118.539034 82.860746 
L 118.556852 83.416532 
L 121.260338 83.416532 
L 121.930984 80.081812 
L 124.053417 80.081812 
L 124.06815 80.637599 
L 135.954835 80.637599 
L 138.176755 81.193386 
L 138.252615 80.637599 
L 140.557039 81.193386 
L 148.57624 81.193386 
L 152.463044 81.749172 
L 152.538125 74.523946 
L 152.722757 75.079732 
L 154.915434 75.079732 
L 155.848657 75.635519 
L 159.697156 75.635519 
L 159.84326 80.637599 
L 159.850432 71.745012 
L 160.037538 71.745012 
L 161.078698 73.968159 
L 165.515617 73.968159 
L 169.001969 70.077652 
L 172.87682 70.077652 
L 173.046858 68.410292 
L 183.115634 68.410292 
L 183.545357 68.966079 
L 185.990187 68.966079 
L 186.007422 70.077652 
L 190.665693 70.077652 
L 190.760178 73.412372 
L 197.959848 73.412372 
L 198.131804 68.410292 
L 199.191395 67.298719 
L 199.193924 67.854506 
L 199.438099 67.854506 
L 200.308053 65.075572 
L 201.580657 65.075572 
L 201.924124 65.631359 
L 201.958482 65.075572 
L 202.744989 65.631359 
L 202.748574 66.187146 
L 202.766949 65.631359 
L 203.221273 63.408212 
L 207.359868 63.408212 
L 208.646593 63.963999 
L 210.173406 63.963999 
L 212.766675 64.519786 
L 215.221679 64.519786 
L 217.118422 65.631359 
L 220.992023 65.075572 
L 221.269332 65.075572 
L 223.683946 66.187146 
L 224.364265 65.631359 
L 227.734422 65.631359 
L 231.534053 67.854506 
L 231.53611 67.298719 
L 237.205854 67.298719 
L 238.964249 67.854506 
L 270.300939 67.854506 
L 270.554009 68.410292 
L 272.515076 68.410292 
L 272.52917 66.742932 
L 281.981783 66.742932 
L 282.172725 67.298719 
L 301.618198 67.298719 
L 305.900035 67.854506 
L 305.924802 67.298719 
L 308.989964 68.966079 
L 309.977836 68.966079 
L 310.913922 68.410292 
L 313.488261 68.410292 
L 315.944487 68.966079 
L 315.948518 69.521866 
L 322.912854 67.854506 
L 323.574076 68.410292 
L 332.150925 68.410292 
L 332.515936 67.854506 
L 333.18458 68.410292 
L 333.414355 70.633439 
L 337.344857 70.633439 
L 337.348249 71.189226 
L 349.375507 71.189226 
L 350.075896 71.745012 
L 352.387325 71.745012 
L 352.612819 72.300799 
L 363.88412 72.300799 
L 363.899437 72.856586 
L 365.882103 72.856586 
L 366.718562 73.412372 
L 366.722759 73.968159 
L 367.406831 73.412372 
L 367.442551 73.968159 
L 368.504838 73.968159 
L 368.671735 74.523946 
L 370.893877 74.523946 
L 370.945359 73.412372 
L 371.290967 74.523946 
L 372.542611 72.856586 
L 375.569301 72.856586 
L 375.903484 71.189226 
L 376.807685 71.189226 
L 377.305791 72.300799 
L 379.872513 72.300799 
L 380.714726 72.856586 
L 380.919289 72.856586 
L 381.710882 70.077652 
L 383.125559 70.077652 
L 383.448679 70.633439 
L 389.996717 70.633439 
L 390.158055 71.189226 
L 390.763682 71.189226 
L 391.703937 71.745012 
L 402.294947 71.745012 
L 402.390098 72.300799 
L 402.729674 72.300799 
L 403.438569 73.412372 
L 404.432446 73.412372 
L 404.671422 72.856586 
L 404.90167 72.856586 
L 404.989038 73.412372 
L 407.646936 73.412372 
L 408.099426 73.968159 
L 410.412912 73.968159 
L 410.56124 74.523946 
L 411.828479 74.523946 
L 411.979392 75.079732 
L 415.847961 75.079732 
L 415.932633 75.635519 
L 418.229496 75.635519 
L 418.996655 77.858666 
L 419.847207 77.858666 
L 419.848096 78.414452 
L 423.301674 78.414452 
L 423.934821 78.970239 
L 426.579182 78.970239 
L 427.100026 79.526026 
L 429.104847 79.526026 
L 429.255093 80.081812 
L 432.51545 80.081812 
L 433.355856 80.637599 
L 433.417066 81.193386 
L 433.68915 81.193386 
L 434.54793 60.629279 
L 437.211249 60.629279 
L 437.230429 61.185066 
L 437.380926 61.185066 
L 437.571451 60.629279 
L 439.765129 60.629279 
L 440.006662 61.185066 
L 440.294813 61.185066 
L 440.584659 61.740852 
L 440.645118 61.185066 
L 441.826462 61.185066 
L 441.835691 61.740852 
L 442.091763 61.740852 
L 442.203899 62.296639 
L 442.97873 62.852426 
L 448.369692 62.852426 
L 449.212294 63.408212 
L 449.776335 63.408212 
L 450.23394 63.963999 
L 450.696854 63.408212 
L 452.602854 63.408212 
L 452.685052 64.519786 
L 455.421257 64.519786 
L 456.482904 66.187146 
L 468.00633 66.187146 
L 468.676058 66.742932 
L 486.463097 66.742932 
L 486.572369 67.298719 
L 512.708567 67.298719 
L 512.83196 68.410292 
L 512.840161 67.854506 
L 516.649465 67.854506 
L 517.509552 68.410292 
L 532.51691 68.410292 
L 535.890765 68.966079 
L 536.684915 69.521866 
L 536.691559 67.854506 
L 560.777375 67.854506 
L 561.011153 68.410292 
L 582.429953 68.410292 
L 585.179194 68.966079 
L 586.860868 68.966079 
L 587.043359 69.521866 
L 588.212194 70.077652 
L 591.490008 70.077652 
L 592.870494 70.633439 
L 594.315026 70.633439 
L 594.427523 71.189226 
L 596.803498 71.189226 
L 597.087312 71.745012 
L 597.143491 72.300799 
L 601.373707 72.300799 
L 601.390107 72.856586 
L 604.406929 72.856586 
L 604.99193 72.300799 
L 604.99988 72.856586 
L 606.220252 73.412372 
L 608.386744 73.412372 
L 609.945802 73.968159 
L 611.341049 73.968159 
L 613.397462 61.740852 
L 615.798288 61.740852 
L 615.809407 64.519786 
L 627.880836 64.519786 
L 627.882087 65.075572 
L 628.090875 65.631359 
L 629.247089 65.631359 
L 629.498575 66.187146 
L 633.291034 66.187146 
L 634.167743 66.742932 
L 634.311985 66.187146 
L 641.095219 66.187146 
L 641.096748 66.742932 
L 651.824383 66.742932 
L 651.897741 67.854506 
L 653.450684 69.521866 
L 655.008908 69.521866 
L 655.174888 70.077652 
L 661.725233 70.077652 
L 661.845681 70.633439 
L 668.422962 70.633439 
L 668.566231 71.189226 
L 670.378971 72.856586 
L 670.519432 73.412372 
L 688.376827 73.412372 
L 690.067507 76.191306 
L 694.101666 76.191306 
L 694.364437 76.747092 
L 697.395269 76.747092 
L 698.523352 77.858666 
L 714.498347 77.858666 
L 714.70088 78.414452 
L 717.03944 78.414452 
L 717.289952 78.970239 
L 732.695317 78.970239 
L 732.703212 80.637599 
L 733.181692 80.637599 
L 733.372329 81.193386 
L 736.008879 81.193386 
L 736.395488 81.749172 
L 736.397795 81.193386 
L 743.356544 81.193386 
L 745.035271 81.749172 
L 776.354365 81.749172 
L 776.35745 82.304959 
L 788.828442 82.304959 
L 790.38939 82.860746 
L 812.012614 82.860746 
L 812.012614 82.860746 
" clip-path="url(#p6686212fdf)" style="fill: none; stroke: #9467bd; stroke-width: 2; stroke-linecap: square"/>
   </g>
   <g id="patch_3">
    <path d="M 48.90125 455.237812 
L 48.90125 38.397812 
" style="fill: none; stroke: #30363d; stroke-width: 0.8; stroke-linejoin: miter; stroke-linecap: square"/>
   </g>
   <g id="patch_4">
    <path d="M 848.35125 455.237812 
L 848.35125 38.397812 
" style="fill: none; stroke: #30363d; stroke-width: 0.8; stroke-linejoin: miter; stroke-linecap: square"/>
   </g>
   <g id="patch_5">
    <path d="M 48.90125 455.237812 
L 848.35125 455.237812 
" style="fill: none; stroke: #30363d; stroke-width: 0.8; stroke-linejoin: miter; stroke-linecap: square"/>
   </g>
   <g id="patch_6">
    <path d="M 48.90125 38.397812 
L 848.35125 38.397812 
" style="fill: none; stroke: #30363d; stroke-width: 0.8; stroke-linejoin: miter; stroke-linecap: square"/>
   </g>
   <g id="text_17">
    <!-- 547 -->
    <g style="fill: #3fb950" transform="translate(817.012614 153.705943) scale(0.09 -0.09)">
     <defs>
      <path id="DejaVuSans-Bold-35" d="M 678 4666 
L 3669 4666 
L 3669 3781 
L 1638 3781 
L 1638 3059 
Q 1775 3097 1914 3117 
Q 2053 3138 2203 3138 
Q 3056 3138 3531 2711 
Q 4006 2284 4006 1522 
Q 4006 766 3489 337 
Q 2972 -91 2053 -91 
Q 1656 -91 1267 -14 
Q 878 63 494 219 
L 494 1166 
Q 875 947 1217 837 
Q 1559 728 1863 728 
Q 2300 728 2551 942 
Q 2803 1156 2803 1522 
Q 2803 1891 2551 2103 
Q 2300 2316 1863 2316 
Q 1603 2316 1309 2248 
Q 1016 2181 678 2041 
L 678 4666 
z
" transform="scale(0.015625)"/>
      <path id="DejaVuSans-Bold-34" d="M 2356 3675 
L 1038 1722 
L 2356 1722 
L 2356 3675 
z
M 2156 4666 
L 3494 4666 
L 3494 1722 
L 4159 1722 
L 4159 850 
L 3494 850 
L 3494 0 
L 2356 0 
L 2356 850 
L 288 850 
L 288 1881 
L 2156 4666 
z
" transform="scale(0.015625)"/>
      <path id="DejaVuSans-Bold-37" d="M 428 4666 
L 3944 4666 
L 3944 3988 
L 2125 0 
L 953 0 
L 2675 3781 
L 428 3781 
L 428 4666 
z
" transform="scale(0.015625)"/>
     </defs>
     <use xlink:href="#DejaVuSans-Bold-35"/>
     <use xlink:href="#DejaVuSans-Bold-34" transform="translate(69.580078 0)"/>
     <use xlink:href="#DejaVuSans-Bold-37" transform="translate(139.160156 0)"/>
    </g>
   </g>
   <g id="text_18">
    <!-- 473 -->
    <g style="fill: #58a6ff" transform="translate(817.012614 194.834157) scale(0.09 -0.09)">
     <defs>
      <path id="DejaVuSans-Bold-33" d="M 2981 2516 
Q 3453 2394 3698 2092 
Q 3944 1791 3944 1325 
Q 3944 631 3412 270 
Q 2881 -91 1863 -91 
Q 1503 -91 1142 -33 
Q 781 25 428 141 
L 428 1069 
Q 766 900 1098 814 
Q 1431 728 1753 728 
Q 2231 728 2486 893 
Q 2741 1059 2741 1369 
Q 2741 1688 2480 1852 
Q 2219 2016 1709 2016 
L 1228 2016 
L 1228 2791 
L 1734 2791 
Q 2188 2791 2409 2933 
Q 2631 3075 2631 3366 
Q 2631 3634 2415 3781 
Q 2200 3928 1806 3928 
Q 1516 3928 1219 3862 
Q 922 3797 628 3669 
L 628 4550 
Q 984 4650 1334 4700 
Q 1684 4750 2022 4750 
Q 2931 4750 3382 4451 
Q 3834 4153 3834 3553 
Q 3834 3144 3618 2883 
Q 3403 2622 2981 2516 
z
" transform="scale(0.015625)"/>
     </defs>
     <use xlink:href="#DejaVuSans-Bold-34"/>
     <use xlink:href="#DejaVuSans-Bold-37" transform="translate(69.580078 0)"/>
     <use xlink:href="#DejaVuSans-Bold-33" transform="translate(139.160156 0)"/>
    </g>
   </g>
   <g id="text_19">
    <!-- 199 -->
    <g style="fill: #d29922" transform="translate(817.012614 347.119703) scale(0.09 -0.09)">
     <defs>
      <path id="DejaVuSans-Bold-31" d="M 750 831 
L 1813 831 
L 1813 3847 
L 722 3622 
L 722 4441 
L 1806 4666 
L 2950 4666 
L 2950 831 
L 4013 831 
L 4013 0 
L 750 0 
L 750 831 
z
" transform="scale(0.015625)"/>
      <path id="DejaVuSans-Bold-39" d="M 641 103 
L 641 966 
Q 928 831 1190 764 
Q 1453 697 1709 697 
Q 2247 697 2547 995 
Q 2847 1294 2900 1881 
Q 2688 1725 2447 1647 
Q 2206 1569 1925 1569 
Q 1209 1569 770 1986 
Q 331 2403 331 3084 
Q 331 3838 820 4291 
Q 1309 4744 2131 4744 
Q 3044 4744 3544 4128 
Q 4044 3513 4044 2388 
Q 4044 1231 3459 570 
Q 2875 -91 1856 -91 
Q 1528 -91 1228 -42 
Q 928 6 641 103 
z
M 2125 2350 
Q 2441 2350 2600 2554 
Q 2759 2759 2759 3169 
Q 2759 3575 2600 3781 
Q 2441 3988 2125 3988 
Q 1809 3988 1650 3781 
Q 1491 3575 1491 3169 
Q 1491 2759 1650 2554 
Q 1809 2350 2125 2350 
z
" transform="scale(0.015625)"/>
     </defs>
     <use xlink:href="#DejaVuSans-Bold-31"/>
     <use xlink:href="#DejaVuSans-Bold-39" transform="translate(69.580078 0)"/>
     <use xlink:href="#DejaVuSans-Bold-39" transform="translate(139.160156 0)"/>
    </g>
   </g>
   <g id="text_20">
    <!-- 312 -->
    <g style="fill: #f85149" transform="translate(817.012614 284.31581) scale(0.09 -0.09)">
     <defs>
      <path id="DejaVuSans-Bold-32" d="M 1844 884 
L 3897 884 
L 3897 0 
L 506 0 
L 506 884 
L 2209 2388 
Q 2438 2594 2547 2791 
Q 2656 2988 2656 3200 
Q 2656 3528 2436 3728 
Q 2216 3928 1850 3928 
Q 1569 3928 1234 3808 
Q 900 3688 519 3450 
L 519 4475 
Q 925 4609 1322 4679 
Q 1719 4750 2100 4750 
Q 2938 4750 3402 4381 
Q 3866 4013 3866 3353 
Q 3866 2972 3669 2642 
Q 3472 2313 2841 1759 
L 1844 884 
z
" transform="scale(0.015625)"/>
     </defs>
     <use xlink:href="#DejaVuSans-Bold-33"/>
     <use xlink:href="#DejaVuSans-Bold-31" transform="translate(69.580078 0)"/>
     <use xlink:href="#DejaVuSans-Bold-32" transform="translate(139.160156 0)"/>
    </g>
   </g>
   <g id="text_21">
    <!-- 670 -->
    <g style="fill: #9467bd" transform="translate(817.012614 85.344183) scale(0.09 -0.09)">
     <defs>
      <path id="DejaVuSans-Bold-36" d="M 2316 2303 
Q 2000 2303 1842 2098 
Q 1684 1894 1684 1484 
Q 1684 1075 1842 870 
Q 2000 666 2316 666 
Q 2634 666 2792 870 
Q 2950 1075 2950 1484 
Q 2950 1894 2792 2098 
Q 2634 2303 2316 2303 
z
M 3803 4544 
L 3803 3681 
Q 3506 3822 3243 3889 
Q 2981 3956 2731 3956 
Q 2194 3956 1894 3657 
Q 1594 3359 1544 2772 
Q 1750 2925 1990 3001 
Q 2231 3078 2516 3078 
Q 3231 3078 3670 2659 
Q 4109 2241 4109 1563 
Q 4109 813 3618 361 
Q 3128 -91 2303 -91 
Q 1394 -91 895 523 
Q 397 1138 397 2266 
Q 397 3422 980 4083 
Q 1563 4744 2578 4744 
Q 2900 4744 3203 4694 
Q 3506 4644 3803 4544 
z
" transform="scale(0.015625)"/>
      <path id="DejaVuSans-Bold-30" d="M 2944 2338 
Q 2944 3213 2780 3570 
Q 2616 3928 2228 3928 
Q 1841 3928 1675 3570 
Q 1509 3213 1509 2338 
Q 1509 1453 1675 1090 
Q 1841 728 2228 728 
Q 2613 728 2778 1090 
Q 2944 1453 2944 2338 
z
M 4147 2328 
Q 4147 1169 3647 539 
Q 3147 -91 2228 -91 
Q 1306 -91 806 539 
Q 306 1169 306 2328 
Q 306 3491 806 4120 
Q 1306 4750 2228 4750 
Q 3147 4750 3647 4120 
Q 4147 3491 4147 2328 
z
" transform="scale(0.015625)"/>
     </defs>
     <use xlink:href="#DejaVuSans-Bold-36"/>
     <use xlink:href="#DejaVuSans-Bold-37" transform="translate(69.580078 0)"/>
     <use xlink:href="#DejaVuSans-Bold-30" transform="translate(139.160156 0)"/>
    </g>
   </g>
   <g id="text_22">
    <!-- Erdős Problems Progress -->
    <g style="fill: #c9d1d9" transform="translate(349.588281 18.397812) scale(0.14 -0.14)">
     <defs>
      <path id="DejaVuSans-Bold-45" d="M 588 4666 
L 3834 4666 
L 3834 3756 
L 1791 3756 
L 1791 2888 
L 3713 2888 
L 3713 1978 
L 1791 1978 
L 1791 909 
L 3903 909 
L 3903 0 
L 588 0 
L 588 4666 
z
" transform="scale(0.015625)"/>
      <path id="DejaVuSans-Bold-72" d="M 3138 2547 
Q 2991 2616 2845 2648 
Q 2700 2681 2553 2681 
Q 2122 2681 1889 2404 
Q 1656 2128 1656 1613 
L 1656 0 
L 538 0 
L 538 3500 
L 1656 3500 
L 1656 2925 
Q 1872 3269 2151 3426 
Q 2431 3584 2822 3584 
Q 2878 3584 2943 3579 
Q 3009 3575 3134 3559 
L 3138 2547 
z
" transform="scale(0.015625)"/>
      <path id="DejaVuSans-Bold-64" d="M 2919 2988 
L 2919 4863 
L 4044 4863 
L 4044 0 
L 2919 0 
L 2919 506 
Q 2688 197 2409 53 
Q 2131 -91 1766 -91 
Q 1119 -91 703 423 
Q 288 938 288 1747 
Q 288 2556 703 3070 
Q 1119 3584 1766 3584 
Q 2128 3584 2408 3439 
Q 2688 3294 2919 2988 
z
M 2181 722 
Q 2541 722 2730 984 
Q 2919 1247 2919 1747 
Q 2919 2247 2730 2509 
Q 2541 2772 2181 2772 
Q 1825 2772 1636 2509 
Q 1447 2247 1447 1747 
Q 1447 1247 1636 984 
Q 1825 722 2181 722 
z
" transform="scale(0.015625)"/>
      <path id="DejaVuSans-Bold-151" d="M 1881 5119 
L 2560 5119 
L 1785 3944 
L 1275 3944 
L 1881 5119 
z
M 3016 5119 
L 3738 5119 
L 2888 3944 
L 2344 3944 
L 3016 5119 
z
M 2203 2784 
Q 1831 2784 1636 2517 
Q 1441 2250 1441 1747 
Q 1441 1244 1636 976 
Q 1831 709 2203 709 
Q 2569 709 2762 976 
Q 2956 1244 2956 1747 
Q 2956 2250 2762 2517 
Q 2569 2784 2203 2784 
z
M 2203 3584 
Q 3106 3584 3614 3096 
Q 4122 2609 4122 1747 
Q 4122 884 3614 396 
Q 3106 -91 2203 -91 
Q 1297 -91 786 396 
Q 275 884 275 1747 
Q 275 2609 786 3096 
Q 1297 3584 2203 3584 
z
" transform="scale(0.015625)"/>
      <path id="DejaVuSans-Bold-73" d="M 3272 3391 
L 3272 2541 
Q 2913 2691 2578 2766 
Q 2244 2841 1947 2841 
Q 1628 2841 1473 2761 
Q 1319 2681 1319 2516 
Q 1319 2381 1436 2309 
Q 1553 2238 1856 2203 
L 2053 2175 
Q 2913 2066 3209 1816 
Q 3506 1566 3506 1031 
Q 3506 472 3093 190 
Q 2681 -91 1863 -91 
Q 1516 -91 1145 -36 
Q 775 19 384 128 
L 384 978 
Q 719 816 1070 734 
Q 1422 653 1784 653 
Q 2113 653 2278 743 
Q 2444 834 2444 1013 
Q 2444 1163 2330 1236 
Q 2216 1309 1875 1350 
L 1678 1375 
Q 931 1469 631 1722 
Q 331 1975 331 2491 
Q 331 3047 712 3315 
Q 1094 3584 1881 3584 
Q 2191 3584 2531 3537 
Q 2872 3491 3272 3391 
z
" transform="scale(0.015625)"/>
      <path id="DejaVuSans-Bold-20" transform="scale(0.015625)"/>
      <path id="DejaVuSans-Bold-50" d="M 588 4666 
L 2584 4666 
Q 3475 4666 3951 4270 
Q 4428 3875 4428 3144 
Q 4428 2409 3951 2014 
Q 3475 1619 2584 1619 
L 1791 1619 
L 1791 0 
L 588 0 
L 588 4666 
z
M 1791 3794 
L 1791 2491 
L 2456 2491 
Q 2806 2491 2997 2661 
Q 3188 2831 3188 3144 
Q 3188 3456 2997 3625 
Q 2806 3794 2456 3794 
L 1791 3794 
z
" transform="scale(0.015625)"/>
      <path id="DejaVuSans-Bold-6f" d="M 2203 2784 
Q 1831 2784 1636 2517 
Q 1441 2250 1441 1747 
Q 1441 1244 1636 976 
Q 1831 709 2203 709 
Q 2569 709 2762 976 
Q 2956 1244 2956 1747 
Q 2956 2250 2762 2517 
Q 2569 2784 2203 2784 
z
M 2203 3584 
Q 3106 3584 3614 3096 
Q 4122 2609 4122 1747 
Q 4122 884 3614 396 
Q 3106 -91 2203 -91 
Q 1297 -91 786 396 
Q 275 884 275 1747 
Q 275 2609 786 3096 
Q 1297 3584 2203 3584 
z
" transform="scale(0.015625)"/>
      <path id="DejaVuSans-Bold-62" d="M 2400 722 
Q 2759 722 2948 984 
Q 3138 1247 3138 1747 
Q 3138 2247 2948 2509 
Q 2759 2772 2400 2772 
Q 2041 2772 1848 2508 
Q 1656 2244 1656 1747 
Q 1656 1250 1848 986 
Q 2041 722 2400 722 
z
M 1656 2988 
Q 1888 3294 2169 3439 
Q 2450 3584 2816 3584 
Q 3463 3584 3878 3070 
Q 4294 2556 4294 1747 
Q 4294 938 3878 423 
Q 3463 -91 2816 -91 
Q 2450 -91 2169 54 
Q 1888 200 1656 506 
L 1656 0 
L 538 0 
L 538 4863 
L 1656 4863 
L 1656 2988 
z
" transform="scale(0.015625)"/>
      <path id="DejaVuSans-Bold-6c" d="M 538 4863 
L 1656 4863 
L 1656 0 
L 538 0 
L 538 4863 
z
" transform="scale(0.015625)"/>
      <path id="DejaVuSans-Bold-65" d="M 4031 1759 
L 4031 1441 
L 1416 1441 
Q 1456 1047 1700 850 
Q 1944 653 2381 653 
Q 2734 653 3104 758 
Q 3475 863 3866 1075 
L 3866 213 
Q 3469 63 3072 -14 
Q 2675 -91 2278 -91 
Q 1328 -91 801 392 
Q 275 875 275 1747 
Q 275 2603 792 3093 
Q 1309 3584 2216 3584 
Q 3041 3584 3536 3087 
Q 4031 2591 4031 1759 
z
M 2881 2131 
Q 2881 2450 2695 2645 
Q 2509 2841 2209 2841 
Q 1884 2841 1681 2658 
Q 1478 2475 1428 2131 
L 2881 2131 
z
" transform="scale(0.015625)"/>
      <path id="DejaVuSans-Bold-6d" d="M 3781 2919 
Q 3994 3244 4286 3414 
Q 4578 3584 4928 3584 
Q 5531 3584 5847 3212 
Q 6163 2841 6163 2131 
L 6163 0 
L 5038 0 
L 5038 1825 
Q 5041 1866 5042 1909 
Q 5044 1953 5044 2034 
Q 5044 2406 4934 2573 
Q 4825 2741 4581 2741 
Q 4263 2741 4089 2478 
Q 3916 2216 3909 1719 
L 3909 0 
L 2784 0 
L 2784 1825 
Q 2784 2406 2684 2573 
Q 2584 2741 2328 2741 
Q 2006 2741 1831 2477 
Q 1656 2213 1656 1722 
L 1656 0 
L 531 0 
L 531 3500 
L 1656 3500 
L 1656 2988 
Q 1863 3284 2130 3434 
Q 2397 3584 2719 3584 
Q 3081 3584 3359 3409 
Q 3638 3234 3781 2919 
z
" transform="scale(0.015625)"/>
      <path id="DejaVuSans-Bold-67" d="M 2919 594 
Q 2688 288 2409 144 
Q 2131 0 1766 0 
Q 1125 0 706 504 
Q 288 1009 288 1791 
Q 288 2575 706 3076 
Q 1125 3578 1766 3578 
Q 2131 3578 2409 3434 
Q 2688 3291 2919 2981 
L 2919 3500 
L 4044 3500 
L 4044 353 
Q 4044 -491 3511 -936 
Q 2978 -1381 1966 -1381 
Q 1638 -1381 1331 -1331 
Q 1025 -1281 716 -1178 
L 716 -306 
Q 1009 -475 1290 -558 
Q 1572 -641 1856 -641 
Q 2406 -641 2662 -400 
Q 2919 -159 2919 353 
L 2919 594 
z
M 2181 2772 
Q 1834 2772 1640 2515 
Q 1447 2259 1447 1791 
Q 1447 1309 1634 1061 
Q 1822 813 2181 813 
Q 2531 813 2725 1069 
Q 2919 1325 2919 1791 
Q 2919 2259 2725 2515 
Q 2531 2772 2181 2772 
z
" transform="scale(0.015625)"/>
     </defs>
     <use xlink:href="#DejaVuSans-Bold-45"/>
     <use xlink:href="#DejaVuSans-Bold-72" transform="translate(68.310547 0)"/>
     <use xlink:href="#DejaVuSans-Bold-64" transform="translate(117.626953 0)"/>
     <use xlink:href="#DejaVuSans-Bold-151" transform="translate(189.208984 0)"/>
     <use xlink:href="#DejaVuSans-Bold-73" transform="translate(257.910156 0)"/>
     <use xlink:href="#DejaVuSans-Bold-20" transform="translate(317.431641 0)"/>
     <use xlink:href="#DejaVuSans-Bold-50" transform="translate(352.246094 0)"/>
     <use xlink:href="#DejaVuSans-Bold-72" transform="translate(425.537109 0)"/>
     <use xlink:href="#DejaVuSans-Bold-6f" transform="translate(474.853516 0)"/>
     <use xlink:href="#DejaVuSans-Bold-62" transform="translate(543.554688 0)"/>
     <use xlink:href="#DejaVuSans-Bold-6c" transform="translate(615.136719 0)"/>
     <use xlink:href="#DejaVuSans-Bold-65" transform="translate(649.414062 0)"/>
     <use xlink:href="#DejaVuSans-Bold-6d" transform="translate(717.236328 0)"/>
     <use xlink:href="#DejaVuSans-Bold-73" transform="translate(821.435547 0)"/>
     <use xlink:href="#DejaVuSans-Bold-20" transform="translate(880.957031 0)"/>
     <use xlink:href="#DejaVuSans-Bold-50" transform="translate(915.771484 0)"/>
     <use xlink:href="#DejaVuSans-Bold-72" transform="translate(989.0625 0)"/>
     <use xlink:href="#DejaVuSans-Bold-6f" transform="translate(1038.378906 0)"/>
     <use xlink:href="#DejaVuSans-Bold-67" transform="translate(1107.080078 0)"/>
     <use xlink:href="#DejaVuSans-Bold-72" transform="translate(1178.662109 0)"/>
     <use xlink:href="#DejaVuSans-Bold-65" transform="translate(1227.978516 0)"/>
     <use xlink:href="#DejaVuSans-Bold-73" transform="translate(1295.800781 0)"/>
     <use xlink:href="#DejaVuSans-Bold-73" transform="translate(1355.322266 0)"/>
    </g>
   </g>
   <g id="legend_1">
    <g id="patch_7">
     <path d="M 55.90125 119.788437 
L 213.771563 119.788437 
Q 215.771563 119.788437 215.771563 117.788437 
L 215.771563 45.397812 
Q 215.771563 43.397812 213.771563 43.397812 
L 55.90125 43.397812 
Q 53.90125 43.397812 53.90125 45.397812 
L 53.90125 117.788437 
Q 53.90125 119.788437 55.90125 119.788437 
z
" style="fill: #161b22; opacity: 0.8; stroke: #30363d; stroke-linejoin: miter"/>
    </g>
    <g id="line2d_34">
     <path d="M 57.90125 51.49625 
L 67.90125 51.49625 
L 77.90125 51.49625 
" style="fill: none; stroke: #3fb950; stroke-width: 2; stroke-linecap: square"/>
    </g>
    <g id="text_23">
     <!-- Solved -->
     <g style="fill: #c9d1d9" transform="translate(85.90125 54.99625) scale(0.1 -0.1)">
      <defs>
       <path id="DejaVuSans-64" d="M 2906 2969 
L 2906 4863 
L 3481 4863 
L 3481 0 
L 2906 0 
L 2906 525 
Q 2725 213 2448 61 
Q 2172 -91 1784 -91 
Q 1150 -91 751 415 
Q 353 922 353 1747 
Q 353 2572 751 3078 
Q 1150 3584 1784 3584 
Q 2172 3584 2448 3432 
Q 2725 3281 2906 2969 
z
M 947 1747 
Q 947 1113 1208 752 
Q 1469 391 1925 391 
Q 2381 391 2643 752 
Q 2906 1113 2906 1747 
Q 2906 2381 2643 2742 
Q 2381 3103 1925 3103 
Q 1469 3103 1208 2742 
Q 947 2381 947 1747 
z
" transform="scale(0.015625)"/>
      </defs>
      <use xlink:href="#DejaVuSans-53"/>
      <use xlink:href="#DejaVuSans-6f" transform="translate(63.476562 0)"/>
      <use xlink:href="#DejaVuSans-6c" transform="translate(124.658203 0)"/>
      <use xlink:href="#DejaVuSans-76" transform="translate(152.441406 0)"/>
      <use xlink:href="#DejaVuSans-65" transform="translate(211.621094 0)"/>
      <use xlink:href="#DejaVuSans-64" transform="translate(273.144531 0)"/>
     </g>
    </g>
    <g id="line2d_35">
     <path d="M 57.90125 66.174375 
L 67.90125 66.174375 
L 77.90125 66.174375 
" style="fill: none; stroke: #58a6ff; stroke-width: 2; stroke-linecap: square"/>
    </g>
    <g id="text_24">
     <!-- Lean Formalized Problem -->
     <g style="fill: #c9d1d9" transform="translate(85.90125 69.674375) scale(0.1 -0.1)">
      <defs>
       <path id="DejaVuSans-4c" d="M 628 4666 
L 1259 4666 
L 1259 531 
L 3531 531 
L 3531 0 
L 628 0 
L 628 4666 
z
" transform="scale(0.015625)"/>
       <path id="DejaVuSans-20" transform="scale(0.015625)"/>
       <path id="DejaVuSans-46" d="M 628 4666 
L 3309 4666 
L 3309 4134 
L 1259 4134 
L 1259 2759 
L 3109 2759 
L 3109 2228 
L 1259 2228 
L 1259 0 
L 628 0 
L 628 4666 
z
" transform="scale(0.015625)"/>
       <path id="DejaVuSans-6d" d="M 3328 2828 
Q 3544 3216 3844 3400 
Q 4144 3584 4550 3584 
Q 5097 3584 5394 3201 
Q 5691 2819 5691 2113 
L 5691 0 
L 5113 0 
L 5113 2094 
Q 5113 2597 4934 2840 
Q 4756 3084 4391 3084 
Q 3944 3084 3684 2787 
Q 3425 2491 3425 1978 
L 3425 0 
L 2847 0 
L 2847 2094 
Q 2847 2600 2669 2842 
Q 2491 3084 2119 3084 
Q 1678 3084 1418 2786 
Q 1159 2488 1159 1978 
L 1159 0 
L 581 0 
L 581 3500 
L 1159 3500 
L 1159 2956 
Q 1356 3278 1631 3431 
Q 1906 3584 2284 3584 
Q 2666 3584 2933 3390 
Q 3200 3197 3328 2828 
z
" transform="scale(0.015625)"/>
       <path id="DejaVuSans-69" d="M 603 3500 
L 1178 3500 
L 1178 0 
L 603 0 
L 603 3500 
z
M 603 4863 
L 1178 4863 
L 1178 4134 
L 603 4134 
L 603 4863 
z
" transform="scale(0.015625)"/>
       <path id="DejaVuSans-7a" d="M 353 3500 
L 3084 3500 
L 3084 2975 
L 922 459 
L 3084 459 
L 3084 0 
L 275 0 
L 275 525 
L 2438 3041 
L 353 3041 
L 353 3500 
z
" transform="scale(0.015625)"/>
       <path id="DejaVuSans-50" d="M 1259 4147 
L 1259 2394 
L 2053 2394 
Q 2494 2394 2734 2622 
Q 2975 2850 2975 3272 
Q 2975 3691 2734 3919 
Q 2494 4147 2053 4147 
L 1259 4147 
z
M 628 4666 
L 2053 4666 
Q 2838 4666 3239 4311 
Q 3641 3956 3641 3272 
Q 3641 2581 3239 2228 
Q 2838 1875 2053 1875 
L 1259 1875 
L 1259 0 
L 628 0 
L 628 4666 
z
" transform="scale(0.015625)"/>
       <path id="DejaVuSans-62" d="M 3116 1747 
Q 3116 2381 2855 2742 
Q 2594 3103 2138 3103 
Q 1681 3103 1420 2742 
Q 1159 2381 1159 1747 
Q 1159 1113 1420 752 
Q 1681 391 2138 391 
Q 2594 391 2855 752 
Q 3116 1113 3116 1747 
z
M 1159 2969 
Q 1341 3281 1617 3432 
Q 1894 3584 2278 3584 
Q 2916 3584 3314 3078 
Q 3713 2572 3713 1747 
Q 3713 922 3314 415 
Q 2916 -91 2278 -91 
Q 1894 -91 1617 61 
Q 1341 213 1159 525 
L 1159 0 
L 581 0 
L 581 4863 
L 1159 4863 
L 1159 2969 
z
" transform="scale(0.015625)"/>
      </defs>
      <use xlink:href="#DejaVuSans-4c"/>
      <use xlink:href="#DejaVuSans-65" transform="translate(53.962891 0)"/>
      <use xlink:href="#DejaVuSans-61" transform="translate(115.486328 0)"/>
      <use xlink:href="#DejaVuSans-6e" transform="translate(176.765625 0)"/>
      <use xlink:href="#DejaVuSans-20" transform="translate(240.144531 0)"/>
      <use xlink:href="#DejaVuSans-46" transform="translate(271.931641 0)"/>
      <use xlink:href="#DejaVuSans-6f" transform="translate(325.826172 0)"/>
      <use xlink:href="#DejaVuSans-72" transform="translate(387.007812 0)"/>
      <use xlink:href="#DejaVuSans-6d" transform="translate(426.371094 0)"/>
      <use xlink:href="#DejaVuSans-61" transform="translate(523.783203 0)"/>
      <use xlink:href="#DejaVuSans-6c" transform="translate(585.0625 0)"/>
      <use xlink:href="#DejaVuSans-69" transform="translate(612.845703 0)"/>
      <use xlink:href="#DejaVuSans-7a" transform="translate(640.628906 0)"/>
      <use xlink:href="#DejaVuSans-65" transform="translate(693.119141 0)"/>
      <use xlink:href="#DejaVuSans-64" transform="translate(754.642578 0)"/>
      <use xlink:href="#DejaVuSans-20" transform="translate(818.119141 0)"/>
      <use xlink:href="#DejaVuSans-50" transform="translate(849.90625 0)"/>
      <use xlink:href="#DejaVuSans-72" transform="translate(908.458984 0)"/>
      <use xlink:href="#DejaVuSans-6f" transform="translate(947.322266 0)"/>
      <use xlink:href="#DejaVuSans-62" transform="translate(1008.503906 0)"/>
      <use xlink:href="#DejaVuSans-6c" transform="translate(1071.980469 0)"/>
      <use xlink:href="#DejaVuSans-65" transform="translate(1099.763672 0)"/>
      <use xlink:href="#DejaVuSans-6d" transform="translate(1161.287109 0)"/>
     </g>
    </g>
    <g id="line2d_36">
     <path d="M 57.90125 80.8525 
L 67.90125 80.8525 
L 77.90125 80.8525 
" style="fill: none; stroke: #d29922; stroke-width: 2; stroke-linecap: square"/>
    </g>
    <g id="text_25">
     <!-- Lean Formalized Solution -->
     <g style="fill: #c9d1d9" transform="translate(85.90125 84.3525) scale(0.1 -0.1)">
      <use xlink:href="#DejaVuSans-4c"/>
      <use xlink:href="#DejaVuSans-65" transform="translate(53.962891 0)"/>
      <use xlink:href="#DejaVuSans-61" transform="translate(115.486328 0)"/>
      <use xlink:href="#DejaVuSans-6e" transform="translate(176.765625 0)"/>
      <use xlink:href="#DejaVuSans-20" transform="translate(240.144531 0)"/>
      <use xlink:href="#DejaVuSans-46" transform="translate(271.931641 0)"/>
      <use xlink:href="#DejaVuSans-6f" transform="translate(325.826172 0)"/>
      <use xlink:href="#DejaVuSans-72" transform="translate(387.007812 0)"/>
      <use xlink:href="#DejaVuSans-6d" transform="translate(426.371094 0)"/>
      <use xlink:href="#DejaVuSans-61" transform="translate(523.783203 0)"/>
      <use xlink:href="#DejaVuSans-6c" transform="translate(585.0625 0)"/>
      <use xlink:href="#DejaVuSans-69" transform="translate(612.845703 0)"/>
      <use xlink:href="#DejaVuSans-7a" transform="translate(640.628906 0)"/>
      <use xlink:href="#DejaVuSans-65" transform="translate(693.119141 0)"/>
      <use xlink:href="#DejaVuSans-64" transform="translate(754.642578 0)"/>
      <use xlink:href="#DejaVuSans-20" transform="translate(818.119141 0)"/>
      <use xlink:href="#DejaVuSans-53" transform="translate(849.90625 0)"/>
      <use xlink:href="#DejaVuSans-6f" transform="translate(913.382812 0)"/>
      <use xlink:href="#DejaVuSans-6c" transform="translate(974.564453 0)"/>
      <use xlink:href="#DejaVuSans-75" transform="translate(1002.347656 0)"/>
      <use xlink:href="#DejaVuSans-74" transform="translate(1065.726562 0)"/>
      <use xlink:href="#DejaVuSans-69" transform="translate(1104.935547 0)"/>
      <use xlink:href="#DejaVuSans-6f" transform="translate(1132.71875 0)"/>
      <use xlink:href="#DejaVuSans-6e" transform="translate(1193.900391 0)"/>
     </g>
    </g>
    <g id="line2d_37">
     <path d="M 57.90125 95.530625 
L 67.90125 95.530625 
L 77.90125 95.530625 
" style="fill: none; stroke: #f85149; stroke-width: 2; stroke-linecap: square"/>
    </g>
    <g id="text_26">
     <!-- OEIS Linked -->
     <g style="fill: #c9d1d9" transform="translate(85.90125 99.030625) scale(0.1 -0.1)">
      <defs>
       <path id="DejaVuSans-4f" d="M 2522 4238 
Q 1834 4238 1429 3725 
Q 1025 3213 1025 2328 
Q 1025 1447 1429 934 
Q 1834 422 2522 422 
Q 3209 422 3611 934 
Q 4013 1447 4013 2328 
Q 4013 3213 3611 3725 
Q 3209 4238 2522 4238 
z
M 2522 4750 
Q 3503 4750 4090 4092 
Q 4678 3434 4678 2328 
Q 4678 1225 4090 567 
Q 3503 -91 2522 -91 
Q 1538 -91 948 565 
Q 359 1222 359 2328 
Q 359 3434 948 4092 
Q 1538 4750 2522 4750 
z
" transform="scale(0.015625)"/>
       <path id="DejaVuSans-45" d="M 628 4666 
L 3578 4666 
L 3578 4134 
L 1259 4134 
L 1259 2753 
L 3481 2753 
L 3481 2222 
L 1259 2222 
L 1259 531 
L 3634 531 
L 3634 0 
L 628 0 
L 628 4666 
z
" transform="scale(0.015625)"/>
       <path id="DejaVuSans-49" d="M 628 4666 
L 1259 4666 
L 1259 0 
L 628 0 
L 628 4666 
z
" transform="scale(0.015625)"/>
       <path id="DejaVuSans-6b" d="M 581 4863 
L 1159 4863 
L 1159 1991 
L 2875 3500 
L 3609 3500 
L 1753 1863 
L 3688 0 
L 2938 0 
L 1159 1709 
L 1159 0 
L 581 0 
L 581 4863 
z
" transform="scale(0.015625)"/>
      </defs>
      <use xlink:href="#DejaVuSans-4f"/>
      <use xlink:href="#DejaVuSans-45" transform="translate(78.710938 0)"/>
      <use xlink:href="#DejaVuSans-49" transform="translate(141.894531 0)"/>
      <use xlink:href="#DejaVuSans-53" transform="translate(171.386719 0)"/>
      <use xlink:href="#DejaVuSans-20" transform="translate(234.863281 0)"/>
      <use xlink:href="#DejaVuSans-4c" transform="translate(266.650391 0)"/>
      <use xlink:href="#DejaVuSans-69" transform="translate(322.363281 0)"/>
      <use xlink:href="#DejaVuSans-6e" transform="translate(350.146484 0)"/>
      <use xlink:href="#DejaVuSans-6b" transform="translate(413.525391 0)"/>
      <use xlink:href="#DejaVuSans-65" transform="translate(467.810547 0)"/>
      <use xlink:href="#DejaVuSans-64" transform="translate(529.333984 0)"/>
     </g>
    </g>
    <g id="line2d_38">
     <path d="M 57.90125 110.20875 
L 67.90125 110.20875 
L 77.90125 110.20875 
" style="fill: none; stroke: #9467bd; stroke-width: 2; stroke-linecap: square"/>
    </g>
    <g id="text_27">
     <!-- Open Problems -->
     <g style="fill: #c9d1d9" transform="translate(85.90125 113.70875) scale(0.1 -0.1)">
      <defs>
       <path id="DejaVuSans-73" d="M 2834 3397 
L 2834 2853 
Q 2591 2978 2328 3040 
Q 2066 3103 1784 3103 
Q 1356 3103 1142 2972 
Q 928 2841 928 2578 
Q 928 2378 1081 2264 
Q 1234 2150 1697 2047 
L 1894 2003 
Q 2506 1872 2764 1633 
Q 3022 1394 3022 966 
Q 3022 478 2636 193 
Q 2250 -91 1575 -91 
Q 1294 -91 989 -36 
Q 684 19 347 128 
L 347 722 
Q 666 556 975 473 
Q 1284 391 1588 391 
Q 1994 391 2212 530 
Q 2431 669 2431 922 
Q 2431 1156 2273 1281 
Q 2116 1406 1581 1522 
L 1381 1569 
Q 847 1681 609 1914 
Q 372 2147 372 2553 
Q 372 3047 722 3315 
Q 1072 3584 1716 3584 
Q 2034 3584 2315 3537 
Q 2597 3491 2834 3397 
z
" transform="scale(0.015625)"/>
      </defs>
      <use xlink:href="#DejaVuSans-4f"/>
      <use xlink:href="#DejaVuSans-70" transform="translate(78.710938 0)"/>
      <use xlink:href="#DejaVuSans-65" transform="translate(142.1875 0)"/>
      <use xlink:href="#DejaVuSans-6e" transform="translate(203.710938 0)"/>
      <use xlink:href="#DejaVuSans-20" transform="translate(267.089844 0)"/>
      <use xlink:href="#DejaVuSans-50" transform="translate(298.876953 0)"/>
      <use xlink:href="#DejaVuSans-72" transform="translate(357.429688 0)"/>
      <use xlink:href="#DejaVuSans-6f" transform="translate(396.292969 0)"/>
      <use xlink:href="#DejaVuSans-62" transform="translate(457.474609 0)"/>
      <use xlink:href="#DejaVuSans-6c" transform="translate(520.951172 0)"/>
      <use xlink:href="#DejaVuSans-65" transform="translate(548.734375 0)"/>
      <use xlink:href="#DejaVuSans-6d" transform="translate(610.257812 0)"/>
      <use xlink:href="#DejaVuSans-73" transform="translate(707.669922 0)"/>
     </g>
    </g>
   </g>
  </g>
 </g>
 <defs>
  <clipPath id="p6686212fdf">
   <rect x="48.90125" y="38.397812" width="799.45" height="416.84"/>
  </clipPath>
 </defs>
</svg>
