<?xml version="1.0" encoding="utf-8" standalone="no"?>
<!DOCTYPE svg PUBLIC "-//W3C//DTD SVG 1.1//EN"
  "http://www.w3.org/Graphics/SVG/1.1/DTD/svg11.dtd">
<svg xmlns:xlink="http://www.w3.org/1999/xlink" width="855.55125pt" height="494.729687pt" viewBox="0 0 855.55125 494.729687" xmlns="http://www.w3.org/2000/svg" version="1.1">
 <metadata>
  <rdf:RDF xmlns:dc="http://purl.org/dc/elements/1.1/" xmlns:cc="http://creativecommons.org/ns#" xmlns:rdf="http://www.w3.org/1999/02/22-rdf-syntax-ns#">
   <cc:Work>
    <dc:type rdf:resource="http://purl.org/dc/dcmitype/StillImage"/>
    <dc:date>2026-03-17T19:17:54.240405</dc:date>
    <dc:format>image/svg+xml</dc:format>
    <dc:creator>
     <cc:Agent>
      <dc:title>Matplotlib v3.10.7, https://matplotlib.org/</dc:title>
     </cc:Agent>
    </dc:creator>
   </cc:Work>
  </rdf:RDF>
 </metadata>
 <defs>
  <style type="text/css">*{stroke-linejoin: round; stroke-linecap: butt}</style>
 </defs>
 <g id="figure_1">
  <g id="patch_1">
   <path d="M 0 494.729687 
L 855.55125 494.729687 
L 855.55125 0 
L 0 0 
z
" style="fill: #0d1117"/>
  </g>
  <g id="axes_1">
   <g id="patch_2">
    <path d="M 48.90125 455.237812 
L 848.35125 455.237812 
L 848.35125 38.397812 
L 48.90125 38.397812 
z
" style="fill: #0d1117"/>
   </g>
   <g id="matplotlib.axis_1">
    <g id="xtick_1">
     <g id="line2d_1">
      <path d="M 86.312411 455.237812 
L 86.312411 38.397812 
" clip-path="url(#p538f03f570)" style="fill: none; stroke: #30363d; stroke-opacity: 0.25; stroke-width: 0.5; stroke-linecap: square"/>
     </g>
     <g id="line2d_2">
      <defs>
       <path id="mb583cc58b9" d="M 0 0 
L 0 3.5 
" style="stroke: #c9d1d9; stroke-width: 0.8"/>
      </defs>
      <g>
       <use xlink:href="#mb583cc58b9" x="86.312411" y="455.237812" style="fill: #c9d1d9; stroke: #c9d1d9; stroke-width: 0.8"/>
      </g>
     </g>
     <g id="text_1">
      <!-- Sep -->
      <g style="fill: #c9d1d9" transform="translate(76.887411 469.83625) scale(0.1 -0.1)">
       <defs>
        <path id="DejaVuSans-53" d="M 3425 4513 
L 3425 3897 
Q 3066 4069 2747 4153 
Q 2428 4238 2131 4238 
Q 1616 4238 1336 4038 
Q 1056 3838 1056 3469 
Q 1056 3159 1242 3001 
Q 1428 2844 1947 2747 
L 2328 2669 
Q 3034 2534 3370 2195 
Q 3706 1856 3706 1288 
Q 3706 609 3251 259 
Q 2797 -91 1919 -91 
Q 1588 -91 1214 -16 
Q 841 59 441 206 
L 441 856 
Q 825 641 1194 531 
Q 1563 422 1919 422 
Q 2459 422 2753 634 
Q 3047 847 3047 1241 
Q 3047 1584 2836 1778 
Q 2625 1972 2144 2069 
L 1759 2144 
Q 1053 2284 737 2584 
Q 422 2884 422 3419 
Q 422 4038 858 4394 
Q 1294 4750 2059 4750 
Q 2388 4750 2728 4690 
Q 3069 4631 3425 4513 
z
" transform="scale(0.015625)"/>
        <path id="DejaVuSans-65" d="M 3597 1894 
L 3597 1613 
L 953 1613 
Q 991 1019 1311 708 
Q 1631 397 2203 397 
Q 2534 397 2845 478 
Q 3156 559 3463 722 
L 3463 178 
Q 3153 47 2828 -22 
Q 2503 -91 2169 -91 
Q 1331 -91 842 396 
Q 353 884 353 1716 
Q 353 2575 817 3079 
Q 1281 3584 2069 3584 
Q 2775 3584 3186 3129 
Q 3597 2675 3597 1894 
z
M 3022 2063 
Q 3016 2534 2758 2815 
Q 2500 3097 2075 3097 
Q 1594 3097 1305 2825 
Q 1016 2553 972 2059 
L 3022 2063 
z
" transform="scale(0.015625)"/>
        <path id="DejaVuSans-70" d="M 1159 525 
L 1159 -1331 
L 581 -1331 
L 581 3500 
L 1159 3500 
L 1159 2969 
Q 1341 3281 1617 3432 
Q 1894 3584 2278 3584 
Q 2916 3584 3314 3078 
Q 3713 2572 3713 1747 
Q 3713 922 3314 415 
Q 2916 -91 2278 -91 
Q 1894 -91 1617 61 
Q 1341 213 1159 525 
z
M 3116 1747 
Q 3116 2381 2855 2742 
Q 2594 3103 2138 3103 
Q 1681 3103 1420 2742 
Q 1159 2381 1159 1747 
Q 1159 1113 1420 752 
Q 1681 391 2138 391 
Q 2594 391 2855 752 
Q 3116 1113 3116 1747 
z
" transform="scale(0.015625)"/>
       </defs>
       <use xlink:href="#DejaVuSans-53"/>
       <use xlink:href="#DejaVuSans-65" transform="translate(63.476562 0)"/>
       <use xlink:href="#DejaVuSans-70" transform="translate(125 0)"/>
      </g>
     </g>
    </g>
    <g id="xtick_2">
     <g id="line2d_3">
      <path d="M 196.375891 455.237812 
L 196.375891 38.397812 
" clip-path="url(#p538f03f570)" style="fill: none; stroke: #30363d; stroke-opacity: 0.25; stroke-width: 0.5; stroke-linecap: square"/>
     </g>
     <g id="line2d_4">
      <g>
       <use xlink:href="#mb583cc58b9" x="196.375891" y="455.237812" style="fill: #c9d1d9; stroke: #c9d1d9; stroke-width: 0.8"/>
      </g>
     </g>
     <g id="text_2">
      <!-- Oct -->
      <g style="fill: #c9d1d9" transform="translate(187.730579 469.83625) scale(0.1 -0.1)">
       <defs>
        <path id="DejaVuSans-4f" d="M 2522 4238 
Q 1834 4238 1429 3725 
Q 1025 3213 1025 2328 
Q 1025 1447 1429 934 
Q 1834 422 2522 422 
Q 3209 422 3611 934 
Q 4013 1447 4013 2328 
Q 4013 3213 3611 3725 
Q 3209 4238 2522 4238 
z
M 2522 4750 
Q 3503 4750 4090 4092 
Q 4678 3434 4678 2328 
Q 4678 1225 4090 567 
Q 3503 -91 2522 -91 
Q 1538 -91 948 565 
Q 359 1222 359 2328 
Q 359 3434 948 4092 
Q 1538 4750 2522 4750 
z
" transform="scale(0.015625)"/>
        <path id="DejaVuSans-63" d="M 3122 3366 
L 3122 2828 
Q 2878 2963 2633 3030 
Q 2388 3097 2138 3097 
Q 1578 3097 1268 2742 
Q 959 2388 959 1747 
Q 959 1106 1268 751 
Q 1578 397 2138 397 
Q 2388 397 2633 464 
Q 2878 531 3122 666 
L 3122 134 
Q 2881 22 2623 -34 
Q 2366 -91 2075 -91 
Q 1284 -91 818 406 
Q 353 903 353 1747 
Q 353 2603 823 3093 
Q 1294 3584 2113 3584 
Q 2378 3584 2631 3529 
Q 2884 3475 3122 3366 
z
" transform="scale(0.015625)"/>
        <path id="DejaVuSans-74" d="M 1172 4494 
L 1172 3500 
L 2356 3500 
L 2356 3053 
L 1172 3053 
L 1172 1153 
Q 1172 725 1289 603 
Q 1406 481 1766 481 
L 2356 481 
L 2356 0 
L 1766 0 
Q 1100 0 847 248 
Q 594 497 594 1153 
L 594 3053 
L 172 3053 
L 172 3500 
L 594 3500 
L 594 4494 
L 1172 4494 
z
" transform="scale(0.015625)"/>
       </defs>
       <use xlink:href="#DejaVuSans-4f"/>
       <use xlink:href="#DejaVuSans-63" transform="translate(78.710938 0)"/>
       <use xlink:href="#DejaVuSans-74" transform="translate(133.691406 0)"/>
      </g>
     </g>
    </g>
    <g id="xtick_3">
     <g id="line2d_5">
      <path d="M 310.108154 455.237812 
L 310.108154 38.397812 
" clip-path="url(#p538f03f570)" style="fill: none; stroke: #30363d; stroke-opacity: 0.25; stroke-width: 0.5; stroke-linecap: square"/>
     </g>
     <g id="line2d_6">
      <g>
       <use xlink:href="#mb583cc58b9" x="310.108154" y="455.237812" style="fill: #c9d1d9; stroke: #c9d1d9; stroke-width: 0.8"/>
      </g>
     </g>
     <g id="text_3">
      <!-- Nov -->
      <g style="fill: #c9d1d9" transform="translate(300.348779 469.83625) scale(0.1 -0.1)">
       <defs>
        <path id="DejaVuSans-4e" d="M 628 4666 
L 1478 4666 
L 3547 763 
L 3547 4666 
L 4159 4666 
L 4159 0 
L 3309 0 
L 1241 3903 
L 1241 0 
L 628 0 
L 628 4666 
z
" transform="scale(0.015625)"/>
        <path id="DejaVuSans-6f" d="M 1959 3097 
Q 1497 3097 1228 2736 
Q 959 2375 959 1747 
Q 959 1119 1226 758 
Q 1494 397 1959 397 
Q 2419 397 2687 759 
Q 2956 1122 2956 1747 
Q 2956 2369 2687 2733 
Q 2419 3097 1959 3097 
z
M 1959 3584 
Q 2709 3584 3137 3096 
Q 3566 2609 3566 1747 
Q 3566 888 3137 398 
Q 2709 -91 1959 -91 
Q 1206 -91 779 398 
Q 353 888 353 1747 
Q 353 2609 779 3096 
Q 1206 3584 1959 3584 
z
" transform="scale(0.015625)"/>
        <path id="DejaVuSans-76" d="M 191 3500 
L 800 3500 
L 1894 563 
L 2988 3500 
L 3597 3500 
L 2284 0 
L 1503 0 
L 191 3500 
z
" transform="scale(0.015625)"/>
       </defs>
       <use xlink:href="#DejaVuSans-4e"/>
       <use xlink:href="#DejaVuSans-6f" transform="translate(74.804688 0)"/>
       <use xlink:href="#DejaVuSans-76" transform="translate(135.986328 0)"/>
      </g>
     </g>
    </g>
    <g id="xtick_4">
     <g id="line2d_7">
      <path d="M 420.171634 455.237812 
L 420.171634 38.397812 
" clip-path="url(#p538f03f570)" style="fill: none; stroke: #30363d; stroke-opacity: 0.25; stroke-width: 0.5; stroke-linecap: square"/>
     </g>
     <g id="line2d_8">
      <g>
       <use xlink:href="#mb583cc58b9" x="420.171634" y="455.237812" style="fill: #c9d1d9; stroke: #c9d1d9; stroke-width: 0.8"/>
      </g>
     </g>
     <g id="text_4">
      <!-- Dec -->
      <g style="fill: #c9d1d9" transform="translate(410.495853 469.83625) scale(0.1 -0.1)">
       <defs>
        <path id="DejaVuSans-44" d="M 1259 4147 
L 1259 519 
L 2022 519 
Q 2988 519 3436 956 
Q 3884 1394 3884 2338 
Q 3884 3275 3436 3711 
Q 2988 4147 2022 4147 
L 1259 4147 
z
M 628 4666 
L 1925 4666 
Q 3281 4666 3915 4102 
Q 4550 3538 4550 2338 
Q 4550 1131 3912 565 
Q 3275 0 1925 0 
L 628 0 
L 628 4666 
z
" transform="scale(0.015625)"/>
       </defs>
       <use xlink:href="#DejaVuSans-44"/>
       <use xlink:href="#DejaVuSans-65" transform="translate(77.001953 0)"/>
       <use xlink:href="#DejaVuSans-63" transform="translate(138.525391 0)"/>
      </g>
     </g>
    </g>
    <g id="xtick_5">
     <g id="line2d_9">
      <path d="M 533.903897 455.237812 
L 533.903897 38.397812 
" clip-path="url(#p538f03f570)" style="fill: none; stroke: #30363d; stroke-opacity: 0.25; stroke-width: 0.5; stroke-linecap: square"/>
     </g>
     <g id="line2d_10">
      <g>
       <use xlink:href="#mb583cc58b9" x="533.903897" y="455.237812" style="fill: #c9d1d9; stroke: #c9d1d9; stroke-width: 0.8"/>
      </g>
     </g>
     <g id="text_5">
      <!-- 2026 -->
      <g style="fill: #c9d1d9" transform="translate(521.178897 469.83625) scale(0.1 -0.1)">
       <defs>
        <path id="DejaVuSans-32" d="M 1228 531 
L 3431 531 
L 3431 0 
L 469 0 
L 469 531 
Q 828 903 1448 1529 
Q 2069 2156 2228 2338 
Q 2531 2678 2651 2914 
Q 2772 3150 2772 3378 
Q 2772 3750 2511 3984 
Q 2250 4219 1831 4219 
Q 1534 4219 1204 4116 
Q 875 4013 500 3803 
L 500 4441 
Q 881 4594 1212 4672 
Q 1544 4750 1819 4750 
Q 2544 4750 2975 4387 
Q 3406 4025 3406 3419 
Q 3406 3131 3298 2873 
Q 3191 2616 2906 2266 
Q 2828 2175 2409 1742 
Q 1991 1309 1228 531 
z
" transform="scale(0.015625)"/>
        <path id="DejaVuSans-30" d="M 2034 4250 
Q 1547 4250 1301 3770 
Q 1056 3291 1056 2328 
Q 1056 1369 1301 889 
Q 1547 409 2034 409 
Q 2525 409 2770 889 
Q 3016 1369 3016 2328 
Q 3016 3291 2770 3770 
Q 2525 4250 2034 4250 
z
M 2034 4750 
Q 2819 4750 3233 4129 
Q 3647 3509 3647 2328 
Q 3647 1150 3233 529 
Q 2819 -91 2034 -91 
Q 1250 -91 836 529 
Q 422 1150 422 2328 
Q 422 3509 836 4129 
Q 1250 4750 2034 4750 
z
" transform="scale(0.015625)"/>
        <path id="DejaVuSans-36" d="M 2113 2584 
Q 1688 2584 1439 2293 
Q 1191 2003 1191 1497 
Q 1191 994 1439 701 
Q 1688 409 2113 409 
Q 2538 409 2786 701 
Q 3034 994 3034 1497 
Q 3034 2003 2786 2293 
Q 2538 2584 2113 2584 
z
M 3366 4563 
L 3366 3988 
Q 3128 4100 2886 4159 
Q 2644 4219 2406 4219 
Q 1781 4219 1451 3797 
Q 1122 3375 1075 2522 
Q 1259 2794 1537 2939 
Q 1816 3084 2150 3084 
Q 2853 3084 3261 2657 
Q 3669 2231 3669 1497 
Q 3669 778 3244 343 
Q 2819 -91 2113 -91 
Q 1303 -91 875 529 
Q 447 1150 447 2328 
Q 447 3434 972 4092 
Q 1497 4750 2381 4750 
Q 2619 4750 2861 4703 
Q 3103 4656 3366 4563 
z
" transform="scale(0.015625)"/>
       </defs>
       <use xlink:href="#DejaVuSans-32"/>
       <use xlink:href="#DejaVuSans-30" transform="translate(63.623047 0)"/>
       <use xlink:href="#DejaVuSans-32" transform="translate(127.246094 0)"/>
       <use xlink:href="#DejaVuSans-36" transform="translate(190.869141 0)"/>
      </g>
     </g>
    </g>
    <g id="xtick_6">
     <g id="line2d_11">
      <path d="M 647.63616 455.237812 
L 647.63616 38.397812 
" clip-path="url(#p538f03f570)" style="fill: none; stroke: #30363d; stroke-opacity: 0.25; stroke-width: 0.5; stroke-linecap: square"/>
     </g>
     <g id="line2d_12">
      <g>
       <use xlink:href="#mb583cc58b9" x="647.63616" y="455.237812" style="fill: #c9d1d9; stroke: #c9d1d9; stroke-width: 0.8"/>
      </g>
     </g>
     <g id="text_6">
      <!-- Feb -->
      <g style="fill: #c9d1d9" transform="translate(638.784598 469.83625) scale(0.1 -0.1)">
       <defs>
        <path id="DejaVuSans-46" d="M 628 4666 
L 3309 4666 
L 3309 4134 
L 1259 4134 
L 1259 2759 
L 3109 2759 
L 3109 2228 
L 1259 2228 
L 1259 0 
L 628 0 
L 628 4666 
z
" transform="scale(0.015625)"/>
        <path id="DejaVuSans-62" d="M 3116 1747 
Q 3116 2381 2855 2742 
Q 2594 3103 2138 3103 
Q 1681 3103 1420 2742 
Q 1159 2381 1159 1747 
Q 1159 1113 1420 752 
Q 1681 391 2138 391 
Q 2594 391 2855 752 
Q 3116 1113 3116 1747 
z
M 1159 2969 
Q 1341 3281 1617 3432 
Q 1894 3584 2278 3584 
Q 2916 3584 3314 3078 
Q 3713 2572 3713 1747 
Q 3713 922 3314 415 
Q 2916 -91 2278 -91 
Q 1894 -91 1617 61 
Q 1341 213 1159 525 
L 1159 0 
L 581 0 
L 581 4863 
L 1159 4863 
L 1159 2969 
z
" transform="scale(0.015625)"/>
       </defs>
       <use xlink:href="#DejaVuSans-46"/>
       <use xlink:href="#DejaVuSans-65" transform="translate(52.019531 0)"/>
       <use xlink:href="#DejaVuSans-62" transform="translate(113.542969 0)"/>
      </g>
     </g>
    </g>
    <g id="xtick_7">
     <g id="line2d_13">
      <path d="M 750.362075 455.237812 
L 750.362075 38.397812 
" clip-path="url(#p538f03f570)" style="fill: none; stroke: #30363d; stroke-opacity: 0.25; stroke-width: 0.5; stroke-linecap: square"/>
     </g>
     <g id="line2d_14">
      <g>
       <use xlink:href="#mb583cc58b9" x="750.362075" y="455.237812" style="fill: #c9d1d9; stroke: #c9d1d9; stroke-width: 0.8"/>
      </g>
     </g>
     <g id="text_7">
      <!-- Mar -->
      <g style="fill: #c9d1d9" transform="translate(740.928482 469.83625) scale(0.1 -0.1)">
       <defs>
        <path id="DejaVuSans-4d" d="M 628 4666 
L 1569 4666 
L 2759 1491 
L 3956 4666 
L 4897 4666 
L 4897 0 
L 4281 0 
L 4281 4097 
L 3078 897 
L 2444 897 
L 1241 4097 
L 1241 0 
L 628 0 
L 628 4666 
z
" transform="scale(0.015625)"/>
        <path id="DejaVuSans-61" d="M 2194 1759 
Q 1497 1759 1228 1600 
Q 959 1441 959 1056 
Q 959 750 1161 570 
Q 1363 391 1709 391 
Q 2188 391 2477 730 
Q 2766 1069 2766 1631 
L 2766 1759 
L 2194 1759 
z
M 3341 1997 
L 3341 0 
L 2766 0 
L 2766 531 
Q 2569 213 2275 61 
Q 1981 -91 1556 -91 
Q 1019 -91 701 211 
Q 384 513 384 1019 
Q 384 1609 779 1909 
Q 1175 2209 1959 2209 
L 2766 2209 
L 2766 2266 
Q 2766 2663 2505 2880 
Q 2244 3097 1772 3097 
Q 1472 3097 1187 3025 
Q 903 2953 641 2809 
L 641 3341 
Q 956 3463 1253 3523 
Q 1550 3584 1831 3584 
Q 2591 3584 2966 3190 
Q 3341 2797 3341 1997 
z
" transform="scale(0.015625)"/>
        <path id="DejaVuSans-72" d="M 2631 2963 
Q 2534 3019 2420 3045 
Q 2306 3072 2169 3072 
Q 1681 3072 1420 2755 
Q 1159 2438 1159 1844 
L 1159 0 
L 581 0 
L 581 3500 
L 1159 3500 
L 1159 2956 
Q 1341 3275 1631 3429 
Q 1922 3584 2338 3584 
Q 2397 3584 2469 3576 
Q 2541 3569 2628 3553 
L 2631 2963 
z
" transform="scale(0.015625)"/>
       </defs>
       <use xlink:href="#DejaVuSans-4d"/>
       <use xlink:href="#DejaVuSans-61" transform="translate(86.279297 0)"/>
       <use xlink:href="#DejaVuSans-72" transform="translate(147.558594 0)"/>
      </g>
     </g>
    </g>
    <g id="text_8">
     <!-- Date -->
     <g style="fill: #c9d1d9" transform="translate(434.285313 485.034062) scale(0.12 -0.12)">
      <use xlink:href="#DejaVuSans-44"/>
      <use xlink:href="#DejaVuSans-61" transform="translate(77.001953 0)"/>
      <use xlink:href="#DejaVuSans-74" transform="translate(138.28125 0)"/>
      <use xlink:href="#DejaVuSans-65" transform="translate(177.490234 0)"/>
     </g>
    </g>
   </g>
   <g id="matplotlib.axis_2">
    <g id="ytick_1">
     <g id="line2d_15">
      <path d="M 48.90125 455.237812 
L 848.35125 455.237812 
" clip-path="url(#p538f03f570)" style="fill: none; stroke: #30363d; stroke-opacity: 0.25; stroke-width: 0.5; stroke-linecap: square"/>
     </g>
     <g id="line2d_16">
      <defs>
       <path id="md17cb98223" d="M 0 0 
L -3.5 0 
" style="stroke: #c9d1d9; stroke-width: 0.8"/>
      </defs>
      <g>
       <use xlink:href="#md17cb98223" x="48.90125" y="455.237812" style="fill: #c9d1d9; stroke: #c9d1d9; stroke-width: 0.8"/>
      </g>
     </g>
     <g id="text_9">
      <!-- 0 -->
      <g style="fill: #c9d1d9" transform="translate(35.53875 459.037031) scale(0.1 -0.1)">
       <use xlink:href="#DejaVuSans-30"/>
      </g>
     </g>
    </g>
    <g id="ytick_2">
     <g id="line2d_17">
      <path d="M 48.90125 399.659146 
L 848.35125 399.659146 
" clip-path="url(#p538f03f570)" style="fill: none; stroke: #30363d; stroke-opacity: 0.25; stroke-width: 0.5; stroke-linecap: square"/>
     </g>
     <g id="line2d_18">
      <g>
       <use xlink:href="#md17cb98223" x="48.90125" y="399.659146" style="fill: #c9d1d9; stroke: #c9d1d9; stroke-width: 0.8"/>
      </g>
     </g>
     <g id="text_10">
      <!-- 100 -->
      <g style="fill: #c9d1d9" transform="translate(22.81375 403.458365) scale(0.1 -0.1)">
       <defs>
        <path id="DejaVuSans-31" d="M 794 531 
L 1825 531 
L 1825 4091 
L 703 3866 
L 703 4441 
L 1819 4666 
L 2450 4666 
L 2450 531 
L 3481 531 
L 3481 0 
L 794 0 
L 794 531 
z
" transform="scale(0.015625)"/>
       </defs>
       <use xlink:href="#DejaVuSans-31"/>
       <use xlink:href="#DejaVuSans-30" transform="translate(63.623047 0)"/>
       <use xlink:href="#DejaVuSans-30" transform="translate(127.246094 0)"/>
      </g>
     </g>
    </g>
    <g id="ytick_3">
     <g id="line2d_19">
      <path d="M 48.90125 344.080479 
L 848.35125 344.080479 
" clip-path="url(#p538f03f570)" style="fill: none; stroke: #30363d; stroke-opacity: 0.25; stroke-width: 0.5; stroke-linecap: square"/>
     </g>
     <g id="line2d_20">
      <g>
       <use xlink:href="#md17cb98223" x="48.90125" y="344.080479" style="fill: #c9d1d9; stroke: #c9d1d9; stroke-width: 0.8"/>
      </g>
     </g>
     <g id="text_11">
      <!-- 200 -->
      <g style="fill: #c9d1d9" transform="translate(22.81375 347.879698) scale(0.1 -0.1)">
       <use xlink:href="#DejaVuSans-32"/>
       <use xlink:href="#DejaVuSans-30" transform="translate(63.623047 0)"/>
       <use xlink:href="#DejaVuSans-30" transform="translate(127.246094 0)"/>
      </g>
     </g>
    </g>
    <g id="ytick_4">
     <g id="line2d_21">
      <path d="M 48.90125 288.501812 
L 848.35125 288.501812 
" clip-path="url(#p538f03f570)" style="fill: none; stroke: #30363d; stroke-opacity: 0.25; stroke-width: 0.5; stroke-linecap: square"/>
     </g>
     <g id="line2d_22">
      <g>
       <use xlink:href="#md17cb98223" x="48.90125" y="288.501812" style="fill: #c9d1d9; stroke: #c9d1d9; stroke-width: 0.8"/>
      </g>
     </g>
     <g id="text_12">
      <!-- 300 -->
      <g style="fill: #c9d1d9" transform="translate(22.81375 292.301031) scale(0.1 -0.1)">
       <defs>
        <path id="DejaVuSans-33" d="M 2597 2516 
Q 3050 2419 3304 2112 
Q 3559 1806 3559 1356 
Q 3559 666 3084 287 
Q 2609 -91 1734 -91 
Q 1441 -91 1130 -33 
Q 819 25 488 141 
L 488 750 
Q 750 597 1062 519 
Q 1375 441 1716 441 
Q 2309 441 2620 675 
Q 2931 909 2931 1356 
Q 2931 1769 2642 2001 
Q 2353 2234 1838 2234 
L 1294 2234 
L 1294 2753 
L 1863 2753 
Q 2328 2753 2575 2939 
Q 2822 3125 2822 3475 
Q 2822 3834 2567 4026 
Q 2313 4219 1838 4219 
Q 1578 4219 1281 4162 
Q 984 4106 628 3988 
L 628 4550 
Q 988 4650 1302 4700 
Q 1616 4750 1894 4750 
Q 2613 4750 3031 4423 
Q 3450 4097 3450 3541 
Q 3450 3153 3228 2886 
Q 3006 2619 2597 2516 
z
" transform="scale(0.015625)"/>
       </defs>
       <use xlink:href="#DejaVuSans-33"/>
       <use xlink:href="#DejaVuSans-30" transform="translate(63.623047 0)"/>
       <use xlink:href="#DejaVuSans-30" transform="translate(127.246094 0)"/>
      </g>
     </g>
    </g>
    <g id="ytick_5">
     <g id="line2d_23">
      <path d="M 48.90125 232.923146 
L 848.35125 232.923146 
" clip-path="url(#p538f03f570)" style="fill: none; stroke: #30363d; stroke-opacity: 0.25; stroke-width: 0.5; stroke-linecap: square"/>
     </g>
     <g id="line2d_24">
      <g>
       <use xlink:href="#md17cb98223" x="48.90125" y="232.923146" style="fill: #c9d1d9; stroke: #c9d1d9; stroke-width: 0.8"/>
      </g>
     </g>
     <g id="text_13">
      <!-- 400 -->
      <g style="fill: #c9d1d9" transform="translate(22.81375 236.722365) scale(0.1 -0.1)">
       <defs>
        <path id="DejaVuSans-34" d="M 2419 4116 
L 825 1625 
L 2419 1625 
L 2419 4116 
z
M 2253 4666 
L 3047 4666 
L 3047 1625 
L 3713 1625 
L 3713 1100 
L 3047 1100 
L 3047 0 
L 2419 0 
L 2419 1100 
L 313 1100 
L 313 1709 
L 2253 4666 
z
" transform="scale(0.015625)"/>
       </defs>
       <use xlink:href="#DejaVuSans-34"/>
       <use xlink:href="#DejaVuSans-30" transform="translate(63.623047 0)"/>
       <use xlink:href="#DejaVuSans-30" transform="translate(127.246094 0)"/>
      </g>
     </g>
    </g>
    <g id="ytick_6">
     <g id="line2d_25">
      <path d="M 48.90125 177.344479 
L 848.35125 177.344479 
" clip-path="url(#p538f03f570)" style="fill: none; stroke: #30363d; stroke-opacity: 0.25; stroke-width: 0.5; stroke-linecap: square"/>
     </g>
     <g id="line2d_26">
      <g>
       <use xlink:href="#md17cb98223" x="48.90125" y="177.344479" style="fill: #c9d1d9; stroke: #c9d1d9; stroke-width: 0.8"/>
      </g>
     </g>
     <g id="text_14">
      <!-- 500 -->
      <g style="fill: #c9d1d9" transform="translate(22.81375 181.143698) scale(0.1 -0.1)">
       <defs>
        <path id="DejaVuSans-35" d="M 691 4666 
L 3169 4666 
L 3169 4134 
L 1269 4134 
L 1269 2991 
Q 1406 3038 1543 3061 
Q 1681 3084 1819 3084 
Q 2600 3084 3056 2656 
Q 3513 2228 3513 1497 
Q 3513 744 3044 326 
Q 2575 -91 1722 -91 
Q 1428 -91 1123 -41 
Q 819 9 494 109 
L 494 744 
Q 775 591 1075 516 
Q 1375 441 1709 441 
Q 2250 441 2565 725 
Q 2881 1009 2881 1497 
Q 2881 1984 2565 2268 
Q 2250 2553 1709 2553 
Q 1456 2553 1204 2497 
Q 953 2441 691 2322 
L 691 4666 
z
" transform="scale(0.015625)"/>
       </defs>
       <use xlink:href="#DejaVuSans-35"/>
       <use xlink:href="#DejaVuSans-30" transform="translate(63.623047 0)"/>
       <use xlink:href="#DejaVuSans-30" transform="translate(127.246094 0)"/>
      </g>
     </g>
    </g>
    <g id="ytick_7">
     <g id="line2d_27">
      <path d="M 48.90125 121.765812 
L 848.35125 121.765812 
" clip-path="url(#p538f03f570)" style="fill: none; stroke: #30363d; stroke-opacity: 0.25; stroke-width: 0.5; stroke-linecap: square"/>
     </g>
     <g id="line2d_28">
      <g>
       <use xlink:href="#md17cb98223" x="48.90125" y="121.765812" style="fill: #c9d1d9; stroke: #c9d1d9; stroke-width: 0.8"/>
      </g>
     </g>
     <g id="text_15">
      <!-- 600 -->
      <g style="fill: #c9d1d9" transform="translate(22.81375 125.565031) scale(0.1 -0.1)">
       <use xlink:href="#DejaVuSans-36"/>
       <use xlink:href="#DejaVuSans-30" transform="translate(63.623047 0)"/>
       <use xlink:href="#DejaVuSans-30" transform="translate(127.246094 0)"/>
      </g>
     </g>
    </g>
    <g id="ytick_8">
     <g id="line2d_29">
      <path d="M 48.90125 66.187146 
L 848.35125 66.187146 
" clip-path="url(#p538f03f570)" style="fill: none; stroke: #30363d; stroke-opacity: 0.25; stroke-width: 0.5; stroke-linecap: square"/>
     </g>
     <g id="line2d_30">
      <g>
       <use xlink:href="#md17cb98223" x="48.90125" y="66.187146" style="fill: #c9d1d9; stroke: #c9d1d9; stroke-width: 0.8"/>
      </g>
     </g>
     <g id="text_16">
      <!-- 700 -->
      <g style="fill: #c9d1d9" transform="translate(22.81375 69.986365) scale(0.1 -0.1)">
       <defs>
        <path id="DejaVuSans-37" d="M 525 4666 
L 3525 4666 
L 3525 4397 
L 1831 0 
L 1172 0 
L 2766 4134 
L 525 4134 
L 525 4666 
z
" transform="scale(0.015625)"/>
       </defs>
       <use xlink:href="#DejaVuSans-37"/>
       <use xlink:href="#DejaVuSans-30" transform="translate(63.623047 0)"/>
       <use xlink:href="#DejaVuSans-30" transform="translate(127.246094 0)"/>
      </g>
     </g>
    </g>
    <g id="text_17">
     <!-- Count -->
     <g style="fill: #c9d1d9" transform="translate(16.318125 264.635937) rotate(-90) scale(0.12 -0.12)">
      <defs>
       <path id="DejaVuSans-43" d="M 4122 4306 
L 4122 3641 
Q 3803 3938 3442 4084 
Q 3081 4231 2675 4231 
Q 1875 4231 1450 3742 
Q 1025 3253 1025 2328 
Q 1025 1406 1450 917 
Q 1875 428 2675 428 
Q 3081 428 3442 575 
Q 3803 722 4122 1019 
L 4122 359 
Q 3791 134 3420 21 
Q 3050 -91 2638 -91 
Q 1578 -91 968 557 
Q 359 1206 359 2328 
Q 359 3453 968 4101 
Q 1578 4750 2638 4750 
Q 3056 4750 3426 4639 
Q 3797 4528 4122 4306 
z
" transform="scale(0.015625)"/>
       <path id="DejaVuSans-75" d="M 544 1381 
L 544 3500 
L 1119 3500 
L 1119 1403 
Q 1119 906 1312 657 
Q 1506 409 1894 409 
Q 2359 409 2629 706 
Q 2900 1003 2900 1516 
L 2900 3500 
L 3475 3500 
L 3475 0 
L 2900 0 
L 2900 538 
Q 2691 219 2414 64 
Q 2138 -91 1772 -91 
Q 1169 -91 856 284 
Q 544 659 544 1381 
z
M 1991 3584 
L 1991 3584 
z
" transform="scale(0.015625)"/>
       <path id="DejaVuSans-6e" d="M 3513 2113 
L 3513 0 
L 2938 0 
L 2938 2094 
Q 2938 2591 2744 2837 
Q 2550 3084 2163 3084 
Q 1697 3084 1428 2787 
Q 1159 2491 1159 1978 
L 1159 0 
L 581 0 
L 581 3500 
L 1159 3500 
L 1159 2956 
Q 1366 3272 1645 3428 
Q 1925 3584 2291 3584 
Q 2894 3584 3203 3211 
Q 3513 2838 3513 2113 
z
" transform="scale(0.015625)"/>
      </defs>
      <use xlink:href="#DejaVuSans-43"/>
      <use xlink:href="#DejaVuSans-6f" transform="translate(69.824219 0)"/>
      <use xlink:href="#DejaVuSans-75" transform="translate(131.005859 0)"/>
      <use xlink:href="#DejaVuSans-6e" transform="translate(194.384766 0)"/>
      <use xlink:href="#DejaVuSans-74" transform="translate(257.763672 0)"/>
     </g>
    </g>
   </g>
   <g id="line2d_31">
    <path d="M 85.239886 454.682026 
L 85.310162 454.682026 
L 85.354748 454.126239 
L 85.575257 454.126239 
L 85.675002 257.933546 
L 88.765654 257.933546 
L 88.779158 261.268266 
L 92.354692 261.268266 
L 92.527728 260.712479 
L 93.024118 260.712479 
L 93.42641 260.156692 
L 95.919186 259.600906 
L 95.968401 260.156692 
L 96.087891 259.600906 
L 103.807281 259.600906 
L 108.464257 260.712479 
L 109.157165 259.600906 
L 109.663109 259.600906 
L 110.938265 259.045119 
L 111.471767 256.821972 
L 112.510576 256.821972 
L 114.024374 260.712479 
L 114.12259 256.821972 
L 115.284202 256.266186 
L 118.307338 256.266186 
L 119.104746 255.710399 
L 120.289203 255.710399 
L 120.606697 254.598826 
L 127.989442 254.598826 
L 128.527913 253.487252 
L 128.555513 252.375679 
L 130.880307 252.375679 
L 134.308326 251.264106 
L 136.106582 251.264106 
L 136.1338 250.708319 
L 140.263559 250.708319 
L 141.288015 247.929386 
L 144.530174 247.929386 
L 144.55268 247.373599 
L 162.710394 247.373599 
L 166.104527 246.817812 
L 166.220408 247.373599 
L 169.740571 246.817812 
L 181.990441 246.817812 
L 187.927797 246.262026 
L 188.042489 245.706239 
L 188.324527 245.150452 
L 191.673989 245.150452 
L 193.099549 244.594666 
L 198.978391 244.594666 
L 199.201576 247.373599 
L 199.212531 245.150452 
L 199.498348 245.150452 
L 200.917623 242.927306 
L 207.866484 242.927306 
L 213.192122 242.371519 
L 219.111218 242.371519 
L 219.370963 241.815732 
L 234.751698 241.815732 
L 235.408129 241.259946 
L 239.142772 241.259946 
L 239.169099 240.148372 
L 246.284924 240.148372 
L 246.429255 236.257866 
L 259.308508 236.257866 
L 259.312372 235.702079 
L 259.685365 235.702079 
L 261.014279 235.146292 
L 262.958267 235.146292 
L 263.482937 234.590506 
L 263.535421 235.146292 
L 264.736862 234.590506 
L 264.74234 234.034719 
L 264.770408 234.590506 
L 265.464419 234.034719 
L 271.786403 234.034719 
L 273.751962 233.478932 
L 276.084271 233.478932 
L 280.045665 232.923146 
L 283.795849 232.923146 
L 286.693253 231.811572 
L 293.034047 231.811572 
L 296.722533 230.699999 
L 297.761766 231.255786 
L 302.909909 231.255786 
L 308.717244 229.032639 
L 317.378161 229.032639 
L 320.064228 228.476852 
L 367.933137 228.476852 
L 368.319718 227.921066 
L 385.776415 227.921066 
L 386.068091 227.365279 
L 415.772365 227.365279 
L 422.313159 226.809492 
L 422.350993 227.365279 
L 427.033235 225.697919 
L 433.904686 225.697919 
L 437.656738 225.142132 
L 437.662896 224.586346 
L 445.491585 224.586346 
L 448.301389 225.142132 
L 449.31145 224.586346 
L 462.413166 224.586346 
L 462.970744 225.142132 
L 463.992144 224.586346 
L 464.343141 222.363199 
L 470.347248 222.363199 
L 470.352429 221.807412 
L 488.724877 221.807412 
L 489.794769 221.251626 
L 493.325632 221.251626 
L 493.67009 220.695839 
L 510.887764 220.695839 
L 510.911161 220.140052 
L 515.217564 220.140052 
L 515.223976 219.584266 
L 516.268942 219.584266 
L 516.323507 219.028479 
L 517.946221 219.028479 
L 518.201168 218.472692 
L 521.674282 218.472692 
L 522.202222 217.361119 
L 524.114192 215.137972 
L 528.737665 215.137972 
L 529.079024 212.359039 
L 530.629381 212.359039 
L 531.390272 211.247466 
L 535.311113 211.247466 
L 536.59765 210.691679 
L 540.280361 210.691679 
L 540.773948 210.135892 
L 550.776519 210.135892 
L 551.022972 209.580106 
L 551.948109 209.580106 
L 553.384412 209.024319 
L 569.562894 209.024319 
L 569.708244 208.468532 
L 570.226969 208.468532 
L 571.309854 207.356959 
L 572.828068 207.356959 
L 573.19312 206.801172 
L 573.544839 206.801172 
L 573.6783 206.245386 
L 577.738419 206.245386 
L 578.429628 205.689599 
L 581.963634 205.689599 
L 582.190215 205.133812 
L 584.126008 205.133812 
L 584.250042 204.578026 
L 590.266038 204.578026 
L 590.39538 204.022239 
L 593.903993 204.022239 
L 594.88293 202.354879 
L 595.07588 201.799092 
L 596.375156 201.799092 
L 596.376515 201.243306 
L 601.652088 201.243306 
L 602.619263 200.687519 
L 606.658703 200.687519 
L 607.454328 200.131732 
L 607.753605 200.131732 
L 608.531013 199.575946 
L 610.516827 199.575946 
L 610.746338 199.020159 
L 615.726753 199.020159 
L 617.01053 198.464372 
L 617.104033 197.908586 
L 617.519658 197.908586 
L 618.831503 195.685439 
L 622.899903 195.685439 
L 622.929202 195.129652 
L 626.801127 195.129652 
L 627.026264 194.573866 
L 627.610254 194.573866 
L 628.053014 194.018079 
L 628.14537 194.573866 
L 628.476919 194.018079 
L 629.949953 194.018079 
L 629.96405 193.462292 
L 630.355217 193.462292 
L 630.526512 192.906506 
L 631.710119 192.350719 
L 639.945177 192.350719 
L 641.232309 191.794932 
L 642.093921 191.794932 
L 642.792943 191.239146 
L 643.500075 191.794932 
L 646.411619 191.794932 
L 646.537182 190.683359 
L 650.716919 190.683359 
L 652.338657 189.015999 
L 669.941467 189.015999 
L 670.964523 188.460212 
L 698.135425 188.460212 
L 698.182559 187.904426 
L 738.227152 187.904426 
L 738.403033 187.348639 
L 738.415644 186.792852 
L 738.428171 187.348639 
L 744.24714 187.348639 
L 745.560981 186.792852 
L 768.485734 186.792852 
L 773.203135 186.237066 
L 773.248995 185.681279 
L 773.639525 185.681279 
L 774.862792 185.125492 
L 811.655502 185.125492 
L 811.86531 184.569706 
L 812.012614 184.569706 
L 812.012614 184.569706 
" clip-path="url(#p538f03f570)" style="fill: none; stroke: #3fb950; stroke-width: 2; stroke-linecap: square"/>
   </g>
   <g id="line2d_32">
    <path d="M 85.239886 455.237812 
L 85.354748 453.570452 
L 85.479716 453.570452 
L 85.575257 372.981386 
L 87.307696 372.981386 
L 87.343322 370.758239 
L 89.129178 370.758239 
L 89.589305 369.090879 
L 90.215376 370.758239 
L 90.220004 369.090879 
L 90.73805 369.090879 
L 90.938262 367.979306 
L 96.054218 367.979306 
L 96.059101 367.423519 
L 96.087891 367.979306 
L 96.339695 367.423519 
L 96.413538 367.979306 
L 96.61048 367.423519 
L 98.405763 367.423519 
L 98.499691 366.867732 
L 98.755529 366.311946 
L 100.782489 366.311946 
L 103.089151 365.756159 
L 103.17034 365.200372 
L 103.793778 364.644586 
L 103.807281 364.088799 
L 108.464257 367.979306 
L 109.157165 366.311946 
L 109.663109 363.533012 
L 112.510576 363.533012 
L 114.024374 367.979306 
L 114.12259 363.533012 
L 141.784575 363.533012 
L 142.633405 362.977226 
L 144.55268 362.977226 
L 149.794538 362.421439 
L 151.071393 361.865652 
L 169.264564 361.865652 
L 169.740571 361.309866 
L 172.186172 360.754079 
L 173.740564 360.754079 
L 175.463533 360.198292 
L 175.509944 359.086719 
L 176.694316 358.530932 
L 177.490323 357.975146 
L 188.456331 357.975146 
L 190.642314 357.419359 
L 191.303162 357.419359 
L 191.673989 356.863572 
L 193.099549 356.863572 
L 194.51581 356.307786 
L 198.978391 356.307786 
L 199.201576 358.530932 
L 199.212531 356.307786 
L 200.917623 356.307786 
L 201.088791 355.751999 
L 203.502289 355.751999 
L 205.876849 355.196212 
L 205.934471 354.640426 
L 213.192122 354.640426 
L 216.253305 354.084639 
L 216.261033 353.528852 
L 226.44768 353.528852 
L 230.696928 352.973066 
L 233.884948 352.973066 
L 234.751698 352.417279 
L 239.617973 352.417279 
L 242.393509 351.861492 
L 242.545653 351.305706 
L 245.251677 351.305706 
L 245.565732 350.749919 
L 246.429255 350.194132 
L 248.356937 350.194132 
L 249.574004 349.638346 
L 251.805465 349.638346 
L 253.261853 349.082559 
L 256.368768 349.082559 
L 257.427237 347.970986 
L 265.464419 347.970986 
L 267.753332 347.415199 
L 270.437318 347.415199 
L 271.042582 346.859412 
L 271.227678 346.303626 
L 271.786403 345.747839 
L 281.029017 345.747839 
L 282.721243 345.192052 
L 283.795849 344.636266 
L 310.078303 344.636266 
L 315.978079 344.080479 
L 316.048567 343.524692 
L 320.064228 343.524692 
L 323.496493 342.968906 
L 329.562978 342.968906 
L 330.075589 342.413119 
L 340.407076 342.413119 
L 348.494619 341.857332 
L 348.572241 341.301546 
L 349.629563 341.301546 
L 351.771767 340.745759 
L 351.891258 339.078399 
L 351.985525 338.522612 
L 356.460208 337.966826 
L 356.728148 337.411039 
L 356.834942 336.299466 
L 357.240207 335.743679 
L 371.801283 335.743679 
L 375.937835 335.187892 
L 378.571036 334.632106 
L 380.633877 334.632106 
L 385.416755 334.076319 
L 385.776415 331.853172 
L 386.068091 331.853172 
L 386.347921 331.297386 
L 386.755776 330.741599 
L 395.827903 330.185812 
L 396.116649 329.630026 
L 396.20183 329.074239 
L 398.118471 329.074239 
L 399.928362 328.518452 
L 400.136387 327.962666 
L 400.27766 326.851092 
L 401.475662 326.295306 
L 401.563603 325.739519 
L 403.749416 325.183732 
L 406.622616 324.627946 
L 406.826947 324.072159 
L 406.831278 323.516372 
L 407.409196 322.960586 
L 407.511277 322.404799 
L 411.679124 321.849012 
L 412.426299 321.293226 
L 429.97221 321.293226 
L 432.881928 320.737439 
L 433.146726 320.181652 
L 445.038508 320.181652 
L 445.491585 319.070079 
L 450.446268 319.070079 
L 451.942146 318.514292 
L 452.015224 317.402719 
L 452.399342 316.846932 
L 454.942819 316.291146 
L 455.000102 315.735359 
L 455.307108 315.179572 
L 455.362691 313.512212 
L 455.621714 312.956426 
L 455.972159 312.956426 
L 455.985068 312.400639 
L 458.108418 311.844852 
L 458.943194 311.289066 
L 459.145189 310.733279 
L 462.970744 310.177492 
L 465.790017 310.177492 
L 466.768996 309.621706 
L 477.368763 309.621706 
L 480.880391 309.065919 
L 480.894361 308.510132 
L 481.52591 307.954346 
L 489.794769 307.954346 
L 492.114849 307.398559 
L 493.070601 306.842772 
L 493.325632 305.731199 
L 500.014282 305.731199 
L 500.469992 305.175412 
L 504.142936 305.175412 
L 505.901362 304.619626 
L 510.911161 304.619626 
L 513.939817 304.063839 
L 520.229359 304.063839 
L 521.002394 303.508052 
L 524.114192 303.508052 
L 524.961197 302.952266 
L 525.328627 302.396479 
L 525.509604 301.840692 
L 528.071085 301.840692 
L 528.143909 300.729119 
L 529.079024 300.729119 
L 529.692993 299.061759 
L 531.921141 299.061759 
L 532.197871 298.505972 
L 532.41269 298.505972 
L 533.479185 297.950186 
L 535.24899 297.950186 
L 535.311113 297.394399 
L 536.59765 297.394399 
L 536.910134 296.838612 
L 538.119346 296.838612 
L 539.970765 295.727039 
L 540.773948 295.727039 
L 543.880311 294.615466 
L 543.884982 294.059679 
L 544.478059 293.503892 
L 545.991262 292.948106 
L 546.226549 292.392319 
L 547.735251 291.836532 
L 550.201488 291.836532 
L 550.565224 291.280746 
L 550.776519 290.724959 
L 554.03078 290.724959 
L 554.116172 290.169172 
L 554.973071 290.169172 
L 555.038846 289.613386 
L 555.509078 289.057599 
L 557.145253 289.057599 
L 557.269712 288.501812 
L 557.550009 288.501812 
L 557.619647 287.946026 
L 557.732641 287.946026 
L 557.736463 287.390239 
L 560.037265 287.390239 
L 560.49289 286.834452 
L 560.87548 286.834452 
L 561.104142 286.278666 
L 561.68809 286.278666 
L 562.125286 285.722879 
L 562.217473 285.167092 
L 562.342441 285.167092 
L 564.540186 284.611306 
L 566.184811 284.611306 
L 566.309312 284.055519 
L 572.796943 284.055519 
L 572.828068 283.499732 
L 573.19312 283.499732 
L 573.544839 282.943946 
L 573.6783 282.943946 
L 573.919488 282.388159 
L 576.243263 282.388159 
L 576.446447 280.720799 
L 576.505725 279.609226 
L 576.888697 279.053439 
L 578.429628 279.053439 
L 579.156378 278.497652 
L 579.860793 278.497652 
L 580.087926 277.941866 
L 581.179856 277.386079 
L 582.190215 277.386079 
L 584.221422 276.830292 
L 584.250042 276.274506 
L 584.870762 276.274506 
L 584.973649 275.718719 
L 586.779294 275.718719 
L 586.829442 275.162932 
L 595.586155 275.162932 
L 595.6521 274.607146 
L 595.981951 274.607146 
L 596.09745 273.495572 
L 597.225006 273.495572 
L 597.315961 272.939786 
L 597.464963 272.939786 
L 598.245938 272.383999 
L 598.442243 271.828212 
L 598.800926 271.828212 
L 599.10445 271.272426 
L 599.203388 270.716639 
L 603.603422 270.716639 
L 604.714036 270.160852 
L 604.933398 269.049279 
L 605.203716 268.493492 
L 605.654968 268.493492 
L 605.929999 267.937706 
L 612.244552 267.937706 
L 612.495464 266.270346 
L 613.52421 266.270346 
L 613.650876 265.714559 
L 617.022377 265.714559 
L 617.104033 264.602986 
L 621.153367 264.602986 
L 621.19532 264.047199 
L 623.145974 264.047199 
L 623.159095 263.491412 
L 624.108987 263.491412 
L 624.134677 262.935626 
L 627.026264 262.935626 
L 627.170085 262.379839 
L 627.353312 262.379839 
L 627.610254 261.824052 
L 628.131825 261.824052 
L 628.14537 261.268266 
L 628.476919 261.268266 
L 629.109402 260.712479 
L 634.218012 260.712479 
L 634.589307 260.156692 
L 636.1051 260.156692 
L 636.107903 259.600906 
L 647.697094 259.600906 
L 649.664097 259.045119 
L 649.721124 258.489332 
L 650.716919 257.933546 
L 652.231098 257.933546 
L 652.338657 256.821972 
L 652.612541 256.821972 
L 652.726554 256.266186 
L 656.747947 256.266186 
L 657.474145 255.710399 
L 664.430098 255.710399 
L 664.451499 255.154612 
L 666.723384 255.154612 
L 667.694295 254.598826 
L 678.387438 254.598826 
L 678.520899 253.487252 
L 682.726326 253.487252 
L 683.5628 252.931466 
L 684.458552 252.931466 
L 685.553581 252.375679 
L 692.791741 252.375679 
L 693.484861 251.819892 
L 694.085454 251.819892 
L 694.379934 251.264106 
L 696.685747 250.708319 
L 697.814492 250.708319 
L 698.182559 250.152532 
L 698.302346 250.152532 
L 701.541788 249.596746 
L 707.506235 249.596746 
L 707.972986 249.040959 
L 730.99413 249.040959 
L 731.835275 248.485172 
L 737.158959 248.485172 
L 737.351358 247.929386 
L 737.697174 247.929386 
L 737.80142 247.373599 
L 767.531936 247.373599 
L 768.485734 246.817812 
L 775.584362 246.817812 
L 777.126397 246.262026 
L 777.229751 245.706239 
L 780.92312 245.706239 
L 781.076368 245.150452 
L 793.039572 245.150452 
L 793.064073 244.594666 
L 803.162992 244.594666 
L 803.271696 244.038879 
L 803.927619 243.483092 
L 806.40583 243.483092 
L 806.41152 242.927306 
L 806.915129 242.371519 
L 810.636013 242.371519 
L 811.86531 241.815732 
L 812.012614 241.815732 
L 812.012614 241.815732 
" clip-path="url(#p538f03f570)" style="fill: none; stroke: #58a6ff; stroke-width: 2; stroke-linecap: square"/>
   </g>
   <g id="line2d_33">
    <path d="M 85.239886 455.237812 
L 88.765654 455.237812 
L 88.779158 454.126239 
L 91.689895 454.126239 
L 92.354692 453.570452 
L 271.786403 453.570452 
L 273.751962 453.014666 
L 323.496493 453.014666 
L 324.877 452.458879 
L 371.801283 452.458879 
L 375.937835 451.903092 
L 386.755776 451.903092 
L 396.20183 450.235732 
L 398.118471 449.124159 
L 401.563603 449.124159 
L 403.749416 448.568372 
L 406.831278 448.012586 
L 407.511277 448.012586 
L 411.679124 447.456799 
L 412.426299 446.901012 
L 415.772365 446.345226 
L 422.313159 445.789439 
L 422.350993 446.345226 
L 433.146726 446.345226 
L 433.904686 445.789439 
L 449.31145 445.789439 
L 450.446268 445.233652 
L 455.621714 445.233652 
L 455.985068 444.677866 
L 462.413166 444.677866 
L 462.970744 444.122079 
L 486.519106 444.122079 
L 488.724877 443.566292 
L 489.651924 443.566292 
L 489.794769 443.010506 
L 496.07964 443.010506 
L 496.085627 442.454719 
L 510.887764 442.454719 
L 510.911161 441.898932 
L 515.223976 441.898932 
L 516.323507 441.343146 
L 517.943376 440.787359 
L 517.946221 440.231572 
L 518.201168 440.231572 
L 520.229359 438.564212 
L 521.595641 438.564212 
L 521.674282 436.896852 
L 522.202222 436.896852 
L 524.114192 437.452639 
L 525.489222 437.452639 
L 525.509604 435.229492 
L 530.629381 435.229492 
L 531.390272 434.673706 
L 532.197871 434.673706 
L 532.41269 434.117919 
L 550.776519 434.117919 
L 551.022972 433.562132 
L 551.948109 433.562132 
L 553.384412 433.006346 
L 559.721172 433.006346 
L 560.037265 432.450559 
L 562.217473 432.450559 
L 562.342441 431.894772 
L 569.562894 431.894772 
L 569.708244 431.338986 
L 570.226969 431.338986 
L 570.753083 430.783199 
L 571.278687 430.783199 
L 571.309854 430.227412 
L 573.544839 430.227412 
L 573.6783 429.671626 
L 584.054033 429.671626 
L 584.126008 429.115839 
L 584.250042 429.115839 
L 584.356538 428.560052 
L 584.973649 428.560052 
L 586.26732 428.004266 
L 591.325017 428.004266 
L 591.329476 427.448479 
L 592.295886 427.448479 
L 592.332659 426.892692 
L 595.07588 426.892692 
L 595.6521 426.336906 
L 599.307847 426.336906 
L 600.368142 425.781119 
L 602.430176 425.781119 
L 602.452044 424.669546 
L 602.619263 424.669546 
L 602.829708 424.113759 
L 606.146857 424.113759 
L 606.658703 423.557972 
L 607.454328 423.557972 
L 607.753605 423.002186 
L 609.695597 423.002186 
L 609.966764 422.446399 
L 609.970246 421.890612 
L 610.516827 421.890612 
L 610.746338 421.334826 
L 631.665703 421.334826 
L 631.710119 420.223252 
L 634.589307 420.223252 
L 635.417968 419.667466 
L 636.107903 419.667466 
L 639.344457 419.111679 
L 639.945177 419.111679 
L 641.232309 418.555892 
L 642.093921 418.555892 
L 642.792943 418.000106 
L 643.500075 418.555892 
L 645.776461 418.555892 
L 646.395483 418.000106 
L 646.537182 416.888532 
L 647.689324 416.332746 
L 647.697094 415.221172 
L 652.726554 415.221172 
L 653.826467 414.665386 
L 653.937932 412.998026 
L 655.037292 412.442239 
L 655.645274 411.886452 
L 660.845179 411.886452 
L 661.065816 410.219092 
L 661.331038 410.219092 
L 661.527683 409.663306 
L 662.798509 409.107519 
L 664.798887 409.107519 
L 665.210988 408.551732 
L 665.304746 407.995946 
L 665.515022 407.995946 
L 666.723384 406.884372 
L 668.018032 406.884372 
L 668.443126 406.328586 
L 669.936542 406.328586 
L 669.941467 405.217012 
L 670.964523 405.217012 
L 672.322694 404.661226 
L 675.920946 403.549652 
L 676.242177 402.993866 
L 683.5628 402.993866 
L 684.458552 401.882292 
L 698.135425 401.882292 
L 698.302346 400.770719 
L 704.959446 400.770719 
L 705.976599 400.214932 
L 709.06326 400.214932 
L 709.236508 399.659146 
L 728.225982 399.659146 
L 728.529082 399.103359 
L 730.410012 399.103359 
L 730.99413 398.547572 
L 734.504527 398.547572 
L 735.164738 397.991786 
L 735.169069 397.435999 
L 735.924142 396.880212 
L 738.227152 396.880212 
L 738.403033 396.324426 
L 738.415644 395.212852 
L 738.428171 395.768639 
L 739.975769 395.212852 
L 745.560981 395.212852 
L 746.662677 394.101279 
L 756.740152 394.101279 
L 757.519301 393.545492 
L 759.96401 393.545492 
L 760.159721 392.989706 
L 760.186642 392.433919 
L 768.485734 392.433919 
L 773.639525 391.322346 
L 774.862792 391.322346 
L 775.584362 390.766559 
L 786.25984 390.766559 
L 787.572024 390.210772 
L 789.197966 390.210772 
L 790.772697 389.654986 
L 803.927619 389.654986 
L 804.288637 389.099199 
L 804.29059 388.543412 
L 811.655502 388.543412 
L 811.86531 387.987626 
L 812.012614 387.987626 
L 812.012614 387.987626 
" clip-path="url(#p538f03f570)" style="fill: none; stroke: #d29922; stroke-width: 2; stroke-linecap: square"/>
   </g>
   <g id="line2d_34">
    <path d="M 85.239886 454.682026 
L 85.541457 454.682026 
L 85.675002 432.450559 
L 86.37292 426.892692 
L 86.771731 425.781119 
L 86.974066 426.336906 
L 87.343322 425.781119 
L 87.967822 425.225332 
L 88.401112 424.113759 
L 88.765654 423.557972 
L 88.779158 423.002186 
L 89.129178 421.334826 
L 89.589305 421.334826 
L 90.215376 420.779039 
L 90.220004 420.223252 
L 90.72408 419.667466 
L 90.73805 419.111679 
L 90.938262 419.111679 
L 91.689895 418.555892 
L 92.226922 418.000106 
L 92.354692 411.886452 
L 92.443057 412.442239 
L 92.659108 408.551732 
L 93.024118 402.993866 
L 96.059101 402.993866 
L 96.087891 402.438079 
L 96.339695 399.659146 
L 96.413538 402.438079 
L 96.75566 397.991786 
L 96.925087 397.435999 
L 98.187377 396.880212 
L 98.225466 396.324426 
L 98.499691 395.768639 
L 98.755529 395.768639 
L 99.405591 395.212852 
L 99.752852 394.657066 
L 99.894508 394.101279 
L 100.005802 392.989706 
L 100.330218 392.433919 
L 100.338243 391.878132 
L 100.664527 392.433919 
L 100.757393 391.878132 
L 100.768816 392.433919 
L 100.782489 390.766559 
L 103.807281 390.766559 
L 108.464257 402.993866 
L 109.157165 390.210772 
L 109.518311 389.654986 
L 111.471767 389.654986 
L 111.802595 389.099199 
L 112.510576 388.543412 
L 114.024374 402.993866 
L 114.12259 387.987626 
L 115.284202 387.431839 
L 117.768316 386.876052 
L 117.94547 387.431839 
L 118.270268 386.320266 
L 118.307338 385.764479 
L 119.104746 385.764479 
L 119.347039 385.208692 
L 119.80466 384.652906 
L 119.842622 383.541332 
L 120.264744 382.429759 
L 120.289203 382.985546 
L 120.540285 382.985546 
L 120.677949 381.873972 
L 121.101727 379.650826 
L 121.157439 378.539252 
L 121.701132 376.871892 
L 121.966864 377.983466 
L 123.845756 374.648746 
L 124.34049 375.760319 
L 126.376494 373.537172 
L 127.989442 377.427679 
L 128.555513 373.537172 
L 130.880307 371.869812 
L 134.308326 371.869812 
L 134.761064 371.314026 
L 135.121361 369.646666 
L 136.1338 371.314026 
L 140.263559 371.869812 
L 141.288015 369.646666 
L 141.784575 367.979306 
L 142.633405 369.646666 
L 144.55268 367.979306 
L 151.071393 367.979306 
L 157.92586 367.423519 
L 158.382971 366.867732 
L 162.710394 366.311946 
L 165.571875 366.311946 
L 166.104527 365.756159 
L 166.220408 366.311946 
L 169.264564 364.644586 
L 172.119887 364.644586 
L 172.186172 364.088799 
L 173.740564 363.533012 
L 177.490323 363.533012 
L 179.144417 359.642506 
L 180.37554 359.086719 
L 181.959698 358.530932 
L 181.990441 357.975146 
L 187.927797 357.975146 
L 188.042489 354.084639 
L 188.262234 354.084639 
L 188.456331 352.973066 
L 190.642314 352.973066 
L 191.303162 352.417279 
L 194.51581 352.417279 
L 198.978391 351.861492 
L 199.201576 363.533012 
L 199.212531 352.417279 
L 199.498348 351.861492 
L 201.088791 351.861492 
L 203.502289 351.305706 
L 205.934471 351.305706 
L 207.866484 350.749919 
L 213.192122 349.638346 
L 216.261033 349.638346 
L 218.72744 349.082559 
L 219.111218 346.303626 
L 219.370963 346.303626 
L 219.83058 345.747839 
L 222.227985 345.192052 
L 222.782167 342.968906 
L 226.095579 341.857332 
L 226.135494 342.413119 
L 226.44768 341.857332 
L 230.696928 340.745759 
L 233.884948 340.189972 
L 235.408129 340.189972 
L 236.758191 339.634186 
L 237.928167 338.522612 
L 239.169099 337.966826 
L 239.617973 337.411039 
L 242.545653 337.966826 
L 245.251677 336.855252 
L 245.565732 337.411039 
L 246.284924 337.411039 
L 246.429255 336.855252 
L 248.356937 336.299466 
L 249.574004 336.855252 
L 251.805465 335.743679 
L 253.261853 335.743679 
L 256.368768 335.187892 
L 256.883969 335.743679 
L 257.427237 334.076319 
L 259.312372 334.076319 
L 259.685365 333.520532 
L 261.014279 331.853172 
L 261.308631 331.297386 
L 261.767271 330.185812 
L 262.958267 330.741599 
L 263.482937 329.630026 
L 263.535421 329.074239 
L 267.753332 329.074239 
L 269.889591 328.518452 
L 270.437318 327.962666 
L 273.751962 327.962666 
L 276.084271 327.406879 
L 280.045665 327.406879 
L 281.029017 326.851092 
L 291.92216 326.851092 
L 292.547764 326.295306 
L 292.610439 325.739519 
L 293.034047 325.183732 
L 297.761766 325.183732 
L 298.056415 324.627946 
L 299.259258 324.072159 
L 299.46758 323.516372 
L 301.460443 322.960586 
L 302.909909 322.404799 
L 308.717244 322.404799 
L 310.078303 321.293226 
L 316.048567 321.293226 
L 317.378161 320.737439 
L 322.942227 320.737439 
L 323.496493 320.181652 
L 324.877 319.625866 
L 325.287955 319.070079 
L 325.427487 318.514292 
L 329.562978 317.958506 
L 330.075589 318.514292 
L 335.519697 317.402719 
L 339.824105 316.291146 
L 340.407076 315.735359 
L 348.572241 315.735359 
L 349.629563 315.179572 
L 357.240207 315.179572 
L 364.40928 314.623786 
L 365.311019 314.067999 
L 368.319718 313.512212 
L 371.33691 312.956426 
L 371.801283 312.400639 
L 378.571036 312.400639 
L 380.633877 311.844852 
L 396.20183 311.844852 
L 398.118471 311.289066 
L 410.978022 311.289066 
L 411.679124 310.733279 
L 412.426299 311.289066 
L 415.772365 310.733279 
L 427.033235 310.733279 
L 428.542276 310.177492 
L 452.364183 310.177492 
L 452.399342 309.621706 
L 467.111755 309.621706 
L 470.344148 309.065919 
L 470.352429 308.510132 
L 486.51193 308.510132 
L 486.519106 307.398559 
L 496.085627 307.398559 
L 500.469992 306.842772 
L 505.901362 306.842772 
L 510.911161 305.731199 
L 521.002394 305.731199 
L 521.595641 305.175412 
L 521.674282 304.619626 
L 525.489222 304.619626 
L 525.509604 304.063839 
L 525.905739 304.063839 
L 526.537203 303.508052 
L 532.197871 303.508052 
L 532.41269 302.952266 
L 539.970765 302.952266 
L 540.280361 302.396479 
L 558.738414 302.396479 
L 559.719771 300.729119 
L 559.721172 300.173332 
L 562.336199 300.173332 
L 562.342441 299.617546 
L 570.055844 299.617546 
L 570.226969 299.061759 
L 573.919488 299.061759 
L 574.052142 298.505972 
L 587.769653 298.505972 
L 588.033431 297.950186 
L 591.217459 297.950186 
L 591.329476 297.394399 
L 592.332659 296.838612 
L 617.519658 296.838612 
L 618.831503 295.727039 
L 620.795151 295.727039 
L 621.19532 295.171252 
L 623.159095 295.171252 
L 623.450135 294.615466 
L 628.089914 294.615466 
L 628.14537 294.059679 
L 653.824301 294.059679 
L 653.937932 292.948106 
L 686.035576 292.948106 
L 686.869205 292.392319 
L 741.672326 292.392319 
L 744.24714 291.836532 
L 767.40735 291.836532 
L 767.531936 291.280746 
L 777.900705 291.280746 
L 778.404696 290.724959 
L 812.012614 290.724959 
L 812.012614 290.724959 
" clip-path="url(#p538f03f570)" style="fill: none; stroke: #f85149; stroke-width: 2; stroke-linecap: square"/>
   </g>
   <g id="line2d_35">
    <path d="M 85.239886 454.682026 
L 85.263878 454.126239 
L 85.453032 -1 
M 85.623043 -1 
L 85.675002 101.201706 
L 88.765654 101.201706 
L 88.779158 97.866986 
L 92.354692 97.866986 
L 92.527728 98.422772 
L 93.024118 98.422772 
L 93.42641 98.978559 
L 95.919186 99.534346 
L 95.968401 98.978559 
L 96.087891 99.534346 
L 103.807281 99.534346 
L 108.464257 98.422772 
L 109.157165 99.534346 
L 109.518311 98.978559 
L 109.663109 98.978559 
L 110.938265 99.534346 
L 111.471767 96.755412 
L 112.510576 96.755412 
L 114.024374 98.422772 
L 114.12259 95.643839 
L 115.284202 96.199626 
L 118.307338 96.199626 
L 119.104746 95.088052 
L 120.289203 95.088052 
L 120.606697 91.197546 
L 127.989442 91.197546 
L 128.527913 87.862826 
L 128.555513 86.751252 
L 130.880307 86.751252 
L 134.308326 82.860746 
L 136.106582 82.860746 
L 136.1338 83.416532 
L 140.263559 83.416532 
L 141.288015 80.081812 
L 144.530174 80.081812 
L 144.55268 80.637599 
L 162.710394 80.637599 
L 166.104527 81.193386 
L 166.220408 80.637599 
L 169.740571 81.193386 
L 181.990441 81.193386 
L 187.927797 81.749172 
L 188.042489 74.523946 
L 188.324527 75.079732 
L 191.673989 75.079732 
L 193.099549 75.635519 
L 198.978391 75.635519 
L 199.201576 80.637599 
L 199.212531 71.745012 
L 199.498348 71.745012 
L 200.917623 73.968159 
L 207.866484 73.968159 
L 213.192122 70.077652 
L 219.111218 70.077652 
L 219.370963 68.410292 
L 234.751698 68.410292 
L 235.408129 68.966079 
L 239.142772 68.966079 
L 239.169099 70.077652 
L 246.284924 70.077652 
L 246.429255 73.412372 
L 257.427237 73.412372 
L 257.689912 68.410292 
L 259.308508 67.298719 
L 259.312372 67.854506 
L 259.685365 67.854506 
L 261.014279 65.075572 
L 262.958267 65.075572 
L 263.482937 65.631359 
L 263.535421 65.075572 
L 264.736862 65.631359 
L 264.74234 66.187146 
L 264.770408 65.631359 
L 265.464419 63.408212 
L 271.786403 63.408212 
L 273.751962 63.963999 
L 276.084271 63.963999 
L 280.045665 64.519786 
L 283.795849 64.519786 
L 286.693253 65.631359 
L 292.610439 65.075572 
L 293.034047 65.075572 
L 296.722533 66.187146 
L 297.761766 65.631359 
L 302.909909 65.631359 
L 308.714102 67.854506 
L 308.717244 67.298719 
L 317.378161 67.298719 
L 320.064228 67.854506 
L 367.933137 67.854506 
L 368.319718 68.410292 
L 371.315381 68.410292 
L 371.33691 66.742932 
L 385.776415 66.742932 
L 386.068091 67.298719 
L 415.772365 67.298719 
L 422.313159 67.854506 
L 422.350993 67.298719 
L 427.033235 68.966079 
L 428.542276 68.966079 
L 429.97221 68.410292 
L 433.904686 68.410292 
L 437.656738 68.966079 
L 437.662896 69.521866 
L 448.301389 67.854506 
L 449.31145 68.410292 
L 462.413166 68.410292 
L 462.970744 67.854506 
L 463.992144 68.410292 
L 464.343141 70.633439 
L 470.347248 70.633439 
L 470.352429 71.189226 
L 488.724877 71.189226 
L 489.794769 71.745012 
L 493.325632 71.745012 
L 493.67009 72.300799 
L 510.887764 72.300799 
L 510.911161 72.856586 
L 513.939817 72.856586 
L 515.217564 73.412372 
L 515.223976 73.968159 
L 516.268942 73.412372 
L 516.323507 73.968159 
L 517.946221 73.968159 
L 518.201168 74.523946 
L 521.595641 74.523946 
L 521.674282 73.412372 
L 522.202222 74.523946 
L 524.114192 72.856586 
L 528.737665 72.856586 
L 529.079024 71.189226 
L 530.629381 71.189226 
L 531.390272 72.300799 
L 535.311113 72.300799 
L 536.59765 72.856586 
L 536.910134 72.856586 
L 538.119346 70.077652 
L 540.280361 70.077652 
L 540.773948 70.633439 
L 550.776519 70.633439 
L 551.022972 71.189226 
L 551.948109 71.189226 
L 553.384412 71.745012 
L 569.562894 71.745012 
L 569.708244 72.300799 
L 570.226969 72.300799 
L 571.309854 73.412372 
L 572.828068 73.412372 
L 573.19312 72.856586 
L 573.544839 72.856586 
L 573.6783 73.412372 
L 577.738419 73.412372 
L 578.429628 73.968159 
L 581.963634 73.968159 
L 582.190215 74.523946 
L 584.126008 74.523946 
L 584.250042 75.079732 
L 590.266038 75.079732 
L 590.39538 75.635519 
L 593.903993 75.635519 
L 594.88293 77.302879 
L 595.07588 77.858666 
L 596.375156 77.858666 
L 596.376515 78.414452 
L 601.652088 78.414452 
L 602.619263 78.970239 
L 606.658703 78.970239 
L 607.454328 79.526026 
L 610.516827 79.526026 
L 610.746338 80.081812 
L 615.726753 80.081812 
L 617.01053 80.637599 
L 617.104033 81.193386 
L 617.519658 81.193386 
L 618.831503 60.629279 
L 622.899903 60.629279 
L 622.929202 61.185066 
L 623.159095 61.185066 
L 623.450135 60.629279 
L 626.801127 60.629279 
L 627.026264 61.185066 
L 627.610254 61.185066 
L 628.053014 61.740852 
L 628.14537 61.185066 
L 629.949953 61.185066 
L 629.96405 61.740852 
L 630.355217 61.740852 
L 630.526512 62.296639 
L 631.710119 62.852426 
L 639.945177 62.852426 
L 641.232309 63.408212 
L 642.093921 63.408212 
L 642.792943 63.963999 
L 643.500075 63.408212 
L 646.411619 63.408212 
L 646.537182 64.519786 
L 650.716919 64.519786 
L 652.338657 66.187146 
L 669.941467 66.187146 
L 670.964523 66.742932 
L 698.135425 66.742932 
L 698.182559 67.298719 
L 738.227152 67.298719 
L 738.403033 67.854506 
L 738.415644 68.410292 
L 738.428171 67.854506 
L 744.24714 67.854506 
L 745.560981 68.410292 
L 768.485734 68.410292 
L 773.639525 68.966079 
L 774.852643 69.521866 
L 774.862792 67.854506 
L 811.655502 67.854506 
L 811.86531 68.410292 
L 812.012614 68.410292 
L 812.012614 68.410292 
" clip-path="url(#p538f03f570)" style="fill: none; stroke: #9467bd; stroke-width: 2; stroke-linecap: square"/>
   </g>
   <g id="patch_3">
    <path d="M 48.90125 455.237812 
L 48.90125 38.397812 
" style="fill: none; stroke: #30363d; stroke-width: 0.8; stroke-linejoin: miter; stroke-linecap: square"/>
   </g>
   <g id="patch_4">
    <path d="M 848.35125 455.237812 
L 848.35125 38.397812 
" style="fill: none; stroke: #30363d; stroke-width: 0.8; stroke-linejoin: miter; stroke-linecap: square"/>
   </g>
   <g id="patch_5">
    <path d="M 48.90125 455.237812 
L 848.35125 455.237812 
" style="fill: none; stroke: #30363d; stroke-width: 0.8; stroke-linejoin: miter; stroke-linecap: square"/>
   </g>
   <g id="patch_6">
    <path d="M 48.90125 38.397812 
L 848.35125 38.397812 
" style="fill: none; stroke: #30363d; stroke-width: 0.8; stroke-linejoin: miter; stroke-linecap: square"/>
   </g>
   <g id="text_18">
    <!-- 487 -->
    <g style="fill: #3fb950" transform="translate(817.012614 187.053143) scale(0.09 -0.09)">
     <defs>
      <path id="DejaVuSans-Bold-34" d="M 2356 3675 
L 1038 1722 
L 2356 1722 
L 2356 3675 
z
M 2156 4666 
L 3494 4666 
L 3494 1722 
L 4159 1722 
L 4159 850 
L 3494 850 
L 3494 0 
L 2356 0 
L 2356 850 
L 288 850 
L 288 1881 
L 2156 4666 
z
" transform="scale(0.015625)"/>
      <path id="DejaVuSans-Bold-38" d="M 2228 2088 
Q 1891 2088 1709 1903 
Q 1528 1719 1528 1375 
Q 1528 1031 1709 848 
Q 1891 666 2228 666 
Q 2563 666 2741 848 
Q 2919 1031 2919 1375 
Q 2919 1722 2741 1905 
Q 2563 2088 2228 2088 
z
M 1350 2484 
Q 925 2613 709 2878 
Q 494 3144 494 3541 
Q 494 4131 934 4440 
Q 1375 4750 2228 4750 
Q 3075 4750 3515 4442 
Q 3956 4134 3956 3541 
Q 3956 3144 3739 2878 
Q 3522 2613 3097 2484 
Q 3572 2353 3814 2058 
Q 4056 1763 4056 1313 
Q 4056 619 3595 264 
Q 3134 -91 2228 -91 
Q 1319 -91 855 264 
Q 391 619 391 1313 
Q 391 1763 633 2058 
Q 875 2353 1350 2484 
z
M 1631 3419 
Q 1631 3141 1786 2991 
Q 1941 2841 2228 2841 
Q 2509 2841 2662 2991 
Q 2816 3141 2816 3419 
Q 2816 3697 2662 3845 
Q 2509 3994 2228 3994 
Q 1941 3994 1786 3844 
Q 1631 3694 1631 3419 
z
" transform="scale(0.015625)"/>
      <path id="DejaVuSans-Bold-37" d="M 428 4666 
L 3944 4666 
L 3944 3988 
L 2125 0 
L 953 0 
L 2675 3781 
L 428 3781 
L 428 4666 
z
" transform="scale(0.015625)"/>
     </defs>
     <use xlink:href="#DejaVuSans-Bold-34"/>
     <use xlink:href="#DejaVuSans-Bold-38" transform="translate(69.580078 0)"/>
     <use xlink:href="#DejaVuSans-Bold-37" transform="translate(139.160156 0)"/>
    </g>
   </g>
   <g id="text_19">
    <!-- 384 -->
    <g style="fill: #58a6ff" transform="translate(817.012614 244.29917) scale(0.09 -0.09)">
     <defs>
      <path id="DejaVuSans-Bold-33" d="M 2981 2516 
Q 3453 2394 3698 2092 
Q 3944 1791 3944 1325 
Q 3944 631 3412 270 
Q 2881 -91 1863 -91 
Q 1503 -91 1142 -33 
Q 781 25 428 141 
L 428 1069 
Q 766 900 1098 814 
Q 1431 728 1753 728 
Q 2231 728 2486 893 
Q 2741 1059 2741 1369 
Q 2741 1688 2480 1852 
Q 2219 2016 1709 2016 
L 1228 2016 
L 1228 2791 
L 1734 2791 
Q 2188 2791 2409 2933 
Q 2631 3075 2631 3366 
Q 2631 3634 2415 3781 
Q 2200 3928 1806 3928 
Q 1516 3928 1219 3862 
Q 922 3797 628 3669 
L 628 4550 
Q 984 4650 1334 4700 
Q 1684 4750 2022 4750 
Q 2931 4750 3382 4451 
Q 3834 4153 3834 3553 
Q 3834 3144 3618 2883 
Q 3403 2622 2981 2516 
z
" transform="scale(0.015625)"/>
     </defs>
     <use xlink:href="#DejaVuSans-Bold-33"/>
     <use xlink:href="#DejaVuSans-Bold-38" transform="translate(69.580078 0)"/>
     <use xlink:href="#DejaVuSans-Bold-34" transform="translate(139.160156 0)"/>
    </g>
   </g>
   <g id="text_20">
    <!-- 121 -->
    <g style="fill: #d29922" transform="translate(817.012614 390.471063) scale(0.09 -0.09)">
     <defs>
      <path id="DejaVuSans-Bold-31" d="M 750 831 
L 1813 831 
L 1813 3847 
L 722 3622 
L 722 4441 
L 1806 4666 
L 2950 4666 
L 2950 831 
L 4013 831 
L 4013 0 
L 750 0 
L 750 831 
z
" transform="scale(0.015625)"/>
      <path id="DejaVuSans-Bold-32" d="M 1844 884 
L 3897 884 
L 3897 0 
L 506 0 
L 506 884 
L 2209 2388 
Q 2438 2594 2547 2791 
Q 2656 2988 2656 3200 
Q 2656 3528 2436 3728 
Q 2216 3928 1850 3928 
Q 1569 3928 1234 3808 
Q 900 3688 519 3450 
L 519 4475 
Q 925 4609 1322 4679 
Q 1719 4750 2100 4750 
Q 2938 4750 3402 4381 
Q 3866 4013 3866 3353 
Q 3866 2972 3669 2642 
Q 3472 2313 2841 1759 
L 1844 884 
z
" transform="scale(0.015625)"/>
     </defs>
     <use xlink:href="#DejaVuSans-Bold-31"/>
     <use xlink:href="#DejaVuSans-Bold-32" transform="translate(69.580078 0)"/>
     <use xlink:href="#DejaVuSans-Bold-31" transform="translate(139.160156 0)"/>
    </g>
   </g>
   <g id="text_21">
    <!-- 296 -->
    <g style="fill: #f85149" transform="translate(817.012614 293.208397) scale(0.09 -0.09)">
     <defs>
      <path id="DejaVuSans-Bold-39" d="M 641 103 
L 641 966 
Q 928 831 1190 764 
Q 1453 697 1709 697 
Q 2247 697 2547 995 
Q 2847 1294 2900 1881 
Q 2688 1725 2447 1647 
Q 2206 1569 1925 1569 
Q 1209 1569 770 1986 
Q 331 2403 331 3084 
Q 331 3838 820 4291 
Q 1309 4744 2131 4744 
Q 3044 4744 3544 4128 
Q 4044 3513 4044 2388 
Q 4044 1231 3459 570 
Q 2875 -91 1856 -91 
Q 1528 -91 1228 -42 
Q 928 6 641 103 
z
M 2125 2350 
Q 2441 2350 2600 2554 
Q 2759 2759 2759 3169 
Q 2759 3575 2600 3781 
Q 2441 3988 2125 3988 
Q 1809 3988 1650 3781 
Q 1491 3575 1491 3169 
Q 1491 2759 1650 2554 
Q 1809 2350 2125 2350 
z
" transform="scale(0.015625)"/>
      <path id="DejaVuSans-Bold-36" d="M 2316 2303 
Q 2000 2303 1842 2098 
Q 1684 1894 1684 1484 
Q 1684 1075 1842 870 
Q 2000 666 2316 666 
Q 2634 666 2792 870 
Q 2950 1075 2950 1484 
Q 2950 1894 2792 2098 
Q 2634 2303 2316 2303 
z
M 3803 4544 
L 3803 3681 
Q 3506 3822 3243 3889 
Q 2981 3956 2731 3956 
Q 2194 3956 1894 3657 
Q 1594 3359 1544 2772 
Q 1750 2925 1990 3001 
Q 2231 3078 2516 3078 
Q 3231 3078 3670 2659 
Q 4109 2241 4109 1563 
Q 4109 813 3618 361 
Q 3128 -91 2303 -91 
Q 1394 -91 895 523 
Q 397 1138 397 2266 
Q 397 3422 980 4083 
Q 1563 4744 2578 4744 
Q 2900 4744 3203 4694 
Q 3506 4644 3803 4544 
z
" transform="scale(0.015625)"/>
     </defs>
     <use xlink:href="#DejaVuSans-Bold-32"/>
     <use xlink:href="#DejaVuSans-Bold-39" transform="translate(69.580078 0)"/>
     <use xlink:href="#DejaVuSans-Bold-36" transform="translate(139.160156 0)"/>
    </g>
   </g>
   <g id="text_22">
    <!-- 696 -->
    <g style="fill: #9467bd" transform="translate(817.012614 70.89373) scale(0.09 -0.09)">
     <use xlink:href="#DejaVuSans-Bold-36"/>
     <use xlink:href="#DejaVuSans-Bold-39" transform="translate(69.580078 0)"/>
     <use xlink:href="#DejaVuSans-Bold-36" transform="translate(139.160156 0)"/>
    </g>
   </g>
   <g id="text_23">
    <!-- Erdős Problems Progress -->
    <g style="fill: #c9d1d9" transform="translate(349.588281 18.397812) scale(0.14 -0.14)">
     <defs>
      <path id="DejaVuSans-Bold-45" d="M 588 4666 
L 3834 4666 
L 3834 3756 
L 1791 3756 
L 1791 2888 
L 3713 2888 
L 3713 1978 
L 1791 1978 
L 1791 909 
L 3903 909 
L 3903 0 
L 588 0 
L 588 4666 
z
" transform="scale(0.015625)"/>
      <path id="DejaVuSans-Bold-72" d="M 3138 2547 
Q 2991 2616 2845 2648 
Q 2700 2681 2553 2681 
Q 2122 2681 1889 2404 
Q 1656 2128 1656 1613 
L 1656 0 
L 538 0 
L 538 3500 
L 1656 3500 
L 1656 2925 
Q 1872 3269 2151 3426 
Q 2431 3584 2822 3584 
Q 2878 3584 2943 3579 
Q 3009 3575 3134 3559 
L 3138 2547 
z
" transform="scale(0.015625)"/>
      <path id="DejaVuSans-Bold-64" d="M 2919 2988 
L 2919 4863 
L 4044 4863 
L 4044 0 
L 2919 0 
L 2919 506 
Q 2688 197 2409 53 
Q 2131 -91 1766 -91 
Q 1119 -91 703 423 
Q 288 938 288 1747 
Q 288 2556 703 3070 
Q 1119 3584 1766 3584 
Q 2128 3584 2408 3439 
Q 2688 3294 2919 2988 
z
M 2181 722 
Q 2541 722 2730 984 
Q 2919 1247 2919 1747 
Q 2919 2247 2730 2509 
Q 2541 2772 2181 2772 
Q 1825 2772 1636 2509 
Q 1447 2247 1447 1747 
Q 1447 1247 1636 984 
Q 1825 722 2181 722 
z
" transform="scale(0.015625)"/>
      <path id="DejaVuSans-Bold-151" d="M 1881 5119 
L 2560 5119 
L 1785 3944 
L 1275 3944 
L 1881 5119 
z
M 3016 5119 
L 3738 5119 
L 2888 3944 
L 2344 3944 
L 3016 5119 
z
M 2203 2784 
Q 1831 2784 1636 2517 
Q 1441 2250 1441 1747 
Q 1441 1244 1636 976 
Q 1831 709 2203 709 
Q 2569 709 2762 976 
Q 2956 1244 2956 1747 
Q 2956 2250 2762 2517 
Q 2569 2784 2203 2784 
z
M 2203 3584 
Q 3106 3584 3614 3096 
Q 4122 2609 4122 1747 
Q 4122 884 3614 396 
Q 3106 -91 2203 -91 
Q 1297 -91 786 396 
Q 275 884 275 1747 
Q 275 2609 786 3096 
Q 1297 3584 2203 3584 
z
" transform="scale(0.015625)"/>
      <path id="DejaVuSans-Bold-73" d="M 3272 3391 
L 3272 2541 
Q 2913 2691 2578 2766 
Q 2244 2841 1947 2841 
Q 1628 2841 1473 2761 
Q 1319 2681 1319 2516 
Q 1319 2381 1436 2309 
Q 1553 2238 1856 2203 
L 2053 2175 
Q 2913 2066 3209 1816 
Q 3506 1566 3506 1031 
Q 3506 472 3093 190 
Q 2681 -91 1863 -91 
Q 1516 -91 1145 -36 
Q 775 19 384 128 
L 384 978 
Q 719 816 1070 734 
Q 1422 653 1784 653 
Q 2113 653 2278 743 
Q 2444 834 2444 1013 
Q 2444 1163 2330 1236 
Q 2216 1309 1875 1350 
L 1678 1375 
Q 931 1469 631 1722 
Q 331 1975 331 2491 
Q 331 3047 712 3315 
Q 1094 3584 1881 3584 
Q 2191 3584 2531 3537 
Q 2872 3491 3272 3391 
z
" transform="scale(0.015625)"/>
      <path id="DejaVuSans-Bold-20" transform="scale(0.015625)"/>
      <path id="DejaVuSans-Bold-50" d="M 588 4666 
L 2584 4666 
Q 3475 4666 3951 4270 
Q 4428 3875 4428 3144 
Q 4428 2409 3951 2014 
Q 3475 1619 2584 1619 
L 1791 1619 
L 1791 0 
L 588 0 
L 588 4666 
z
M 1791 3794 
L 1791 2491 
L 2456 2491 
Q 2806 2491 2997 2661 
Q 3188 2831 3188 3144 
Q 3188 3456 2997 3625 
Q 2806 3794 2456 3794 
L 1791 3794 
z
" transform="scale(0.015625)"/>
      <path id="DejaVuSans-Bold-6f" d="M 2203 2784 
Q 1831 2784 1636 2517 
Q 1441 2250 1441 1747 
Q 1441 1244 1636 976 
Q 1831 709 2203 709 
Q 2569 709 2762 976 
Q 2956 1244 2956 1747 
Q 2956 2250 2762 2517 
Q 2569 2784 2203 2784 
z
M 2203 3584 
Q 3106 3584 3614 3096 
Q 4122 2609 4122 1747 
Q 4122 884 3614 396 
Q 3106 -91 2203 -91 
Q 1297 -91 786 396 
Q 275 884 275 1747 
Q 275 2609 786 3096 
Q 1297 3584 2203 3584 
z
" transform="scale(0.015625)"/>
      <path id="DejaVuSans-Bold-62" d="M 2400 722 
Q 2759 722 2948 984 
Q 3138 1247 3138 1747 
Q 3138 2247 2948 2509 
Q 2759 2772 2400 2772 
Q 2041 2772 1848 2508 
Q 1656 2244 1656 1747 
Q 1656 1250 1848 986 
Q 2041 722 2400 722 
z
M 1656 2988 
Q 1888 3294 2169 3439 
Q 2450 3584 2816 3584 
Q 3463 3584 3878 3070 
Q 4294 2556 4294 1747 
Q 4294 938 3878 423 
Q 3463 -91 2816 -91 
Q 2450 -91 2169 54 
Q 1888 200 1656 506 
L 1656 0 
L 538 0 
L 538 4863 
L 1656 4863 
L 1656 2988 
z
" transform="scale(0.015625)"/>
      <path id="DejaVuSans-Bold-6c" d="M 538 4863 
L 1656 4863 
L 1656 0 
L 538 0 
L 538 4863 
z
" transform="scale(0.015625)"/>
      <path id="DejaVuSans-Bold-65" d="M 4031 1759 
L 4031 1441 
L 1416 1441 
Q 1456 1047 1700 850 
Q 1944 653 2381 653 
Q 2734 653 3104 758 
Q 3475 863 3866 1075 
L 3866 213 
Q 3469 63 3072 -14 
Q 2675 -91 2278 -91 
Q 1328 -91 801 392 
Q 275 875 275 1747 
Q 275 2603 792 3093 
Q 1309 3584 2216 3584 
Q 3041 3584 3536 3087 
Q 4031 2591 4031 1759 
z
M 2881 2131 
Q 2881 2450 2695 2645 
Q 2509 2841 2209 2841 
Q 1884 2841 1681 2658 
Q 1478 2475 1428 2131 
L 2881 2131 
z
" transform="scale(0.015625)"/>
      <path id="DejaVuSans-Bold-6d" d="M 3781 2919 
Q 3994 3244 4286 3414 
Q 4578 3584 4928 3584 
Q 5531 3584 5847 3212 
Q 6163 2841 6163 2131 
L 6163 0 
L 5038 0 
L 5038 1825 
Q 5041 1866 5042 1909 
Q 5044 1953 5044 2034 
Q 5044 2406 4934 2573 
Q 4825 2741 4581 2741 
Q 4263 2741 4089 2478 
Q 3916 2216 3909 1719 
L 3909 0 
L 2784 0 
L 2784 1825 
Q 2784 2406 2684 2573 
Q 2584 2741 2328 2741 
Q 2006 2741 1831 2477 
Q 1656 2213 1656 1722 
L 1656 0 
L 531 0 
L 531 3500 
L 1656 3500 
L 1656 2988 
Q 1863 3284 2130 3434 
Q 2397 3584 2719 3584 
Q 3081 3584 3359 3409 
Q 3638 3234 3781 2919 
z
" transform="scale(0.015625)"/>
      <path id="DejaVuSans-Bold-67" d="M 2919 594 
Q 2688 288 2409 144 
Q 2131 0 1766 0 
Q 1125 0 706 504 
Q 288 1009 288 1791 
Q 288 2575 706 3076 
Q 1125 3578 1766 3578 
Q 2131 3578 2409 3434 
Q 2688 3291 2919 2981 
L 2919 3500 
L 4044 3500 
L 4044 353 
Q 4044 -491 3511 -936 
Q 2978 -1381 1966 -1381 
Q 1638 -1381 1331 -1331 
Q 1025 -1281 716 -1178 
L 716 -306 
Q 1009 -475 1290 -558 
Q 1572 -641 1856 -641 
Q 2406 -641 2662 -400 
Q 2919 -159 2919 353 
L 2919 594 
z
M 2181 2772 
Q 1834 2772 1640 2515 
Q 1447 2259 1447 1791 
Q 1447 1309 1634 1061 
Q 1822 813 2181 813 
Q 2531 813 2725 1069 
Q 2919 1325 2919 1791 
Q 2919 2259 2725 2515 
Q 2531 2772 2181 2772 
z
" transform="scale(0.015625)"/>
     </defs>
     <use xlink:href="#DejaVuSans-Bold-45"/>
     <use xlink:href="#DejaVuSans-Bold-72" transform="translate(68.310547 0)"/>
     <use xlink:href="#DejaVuSans-Bold-64" transform="translate(117.626953 0)"/>
     <use xlink:href="#DejaVuSans-Bold-151" transform="translate(189.208984 0)"/>
     <use xlink:href="#DejaVuSans-Bold-73" transform="translate(257.910156 0)"/>
     <use xlink:href="#DejaVuSans-Bold-20" transform="translate(317.431641 0)"/>
     <use xlink:href="#DejaVuSans-Bold-50" transform="translate(352.246094 0)"/>
     <use xlink:href="#DejaVuSans-Bold-72" transform="translate(425.537109 0)"/>
     <use xlink:href="#DejaVuSans-Bold-6f" transform="translate(474.853516 0)"/>
     <use xlink:href="#DejaVuSans-Bold-62" transform="translate(543.554688 0)"/>
     <use xlink:href="#DejaVuSans-Bold-6c" transform="translate(615.136719 0)"/>
     <use xlink:href="#DejaVuSans-Bold-65" transform="translate(649.414062 0)"/>
     <use xlink:href="#DejaVuSans-Bold-6d" transform="translate(717.236328 0)"/>
     <use xlink:href="#DejaVuSans-Bold-73" transform="translate(821.435547 0)"/>
     <use xlink:href="#DejaVuSans-Bold-20" transform="translate(880.957031 0)"/>
     <use xlink:href="#DejaVuSans-Bold-50" transform="translate(915.771484 0)"/>
     <use xlink:href="#DejaVuSans-Bold-72" transform="translate(989.0625 0)"/>
     <use xlink:href="#DejaVuSans-Bold-6f" transform="translate(1038.378906 0)"/>
     <use xlink:href="#DejaVuSans-Bold-67" transform="translate(1107.080078 0)"/>
     <use xlink:href="#DejaVuSans-Bold-72" transform="translate(1178.662109 0)"/>
     <use xlink:href="#DejaVuSans-Bold-65" transform="translate(1227.978516 0)"/>
     <use xlink:href="#DejaVuSans-Bold-73" transform="translate(1295.800781 0)"/>
     <use xlink:href="#DejaVuSans-Bold-73" transform="translate(1355.322266 0)"/>
    </g>
   </g>
   <g id="legend_1">
    <g id="patch_7">
     <path d="M 55.90125 119.788437 
L 213.771563 119.788437 
Q 215.771563 119.788437 215.771563 117.788437 
L 215.771563 45.397812 
Q 215.771563 43.397812 213.771563 43.397812 
L 55.90125 43.397812 
Q 53.90125 43.397812 53.90125 45.397812 
L 53.90125 117.788437 
Q 53.90125 119.788437 55.90125 119.788437 
z
" style="fill: #161b22; opacity: 0.8; stroke: #30363d; stroke-linejoin: miter"/>
    </g>
    <g id="line2d_36">
     <path d="M 57.90125 51.49625 
L 67.90125 51.49625 
L 77.90125 51.49625 
" style="fill: none; stroke: #3fb950; stroke-width: 2; stroke-linecap: square"/>
    </g>
    <g id="text_24">
     <!-- Solved -->
     <g style="fill: #c9d1d9" transform="translate(85.90125 54.99625) scale(0.1 -0.1)">
      <defs>
       <path id="DejaVuSans-6c" d="M 603 4863 
L 1178 4863 
L 1178 0 
L 603 0 
L 603 4863 
z
" transform="scale(0.015625)"/>
       <path id="DejaVuSans-64" d="M 2906 2969 
L 2906 4863 
L 3481 4863 
L 3481 0 
L 2906 0 
L 2906 525 
Q 2725 213 2448 61 
Q 2172 -91 1784 -91 
Q 1150 -91 751 415 
Q 353 922 353 1747 
Q 353 2572 751 3078 
Q 1150 3584 1784 3584 
Q 2172 3584 2448 3432 
Q 2725 3281 2906 2969 
z
M 947 1747 
Q 947 1113 1208 752 
Q 1469 391 1925 391 
Q 2381 391 2643 752 
Q 2906 1113 2906 1747 
Q 2906 2381 2643 2742 
Q 2381 3103 1925 3103 
Q 1469 3103 1208 2742 
Q 947 2381 947 1747 
z
" transform="scale(0.015625)"/>
      </defs>
      <use xlink:href="#DejaVuSans-53"/>
      <use xlink:href="#DejaVuSans-6f" transform="translate(63.476562 0)"/>
      <use xlink:href="#DejaVuSans-6c" transform="translate(124.658203 0)"/>
      <use xlink:href="#DejaVuSans-76" transform="translate(152.441406 0)"/>
      <use xlink:href="#DejaVuSans-65" transform="translate(211.621094 0)"/>
      <use xlink:href="#DejaVuSans-64" transform="translate(273.144531 0)"/>
     </g>
    </g>
    <g id="line2d_37">
     <path d="M 57.90125 66.174375 
L 67.90125 66.174375 
L 77.90125 66.174375 
" style="fill: none; stroke: #58a6ff; stroke-width: 2; stroke-linecap: square"/>
    </g>
    <g id="text_25">
     <!-- Lean Formalized Problem -->
     <g style="fill: #c9d1d9" transform="translate(85.90125 69.674375) scale(0.1 -0.1)">
      <defs>
       <path id="DejaVuSans-4c" d="M 628 4666 
L 1259 4666 
L 1259 531 
L 3531 531 
L 3531 0 
L 628 0 
L 628 4666 
z
" transform="scale(0.015625)"/>
       <path id="DejaVuSans-20" transform="scale(0.015625)"/>
       <path id="DejaVuSans-6d" d="M 3328 2828 
Q 3544 3216 3844 3400 
Q 4144 3584 4550 3584 
Q 5097 3584 5394 3201 
Q 5691 2819 5691 2113 
L 5691 0 
L 5113 0 
L 5113 2094 
Q 5113 2597 4934 2840 
Q 4756 3084 4391 3084 
Q 3944 3084 3684 2787 
Q 3425 2491 3425 1978 
L 3425 0 
L 2847 0 
L 2847 2094 
Q 2847 2600 2669 2842 
Q 2491 3084 2119 3084 
Q 1678 3084 1418 2786 
Q 1159 2488 1159 1978 
L 1159 0 
L 581 0 
L 581 3500 
L 1159 3500 
L 1159 2956 
Q 1356 3278 1631 3431 
Q 1906 3584 2284 3584 
Q 2666 3584 2933 3390 
Q 3200 3197 3328 2828 
z
" transform="scale(0.015625)"/>
       <path id="DejaVuSans-69" d="M 603 3500 
L 1178 3500 
L 1178 0 
L 603 0 
L 603 3500 
z
M 603 4863 
L 1178 4863 
L 1178 4134 
L 603 4134 
L 603 4863 
z
" transform="scale(0.015625)"/>
       <path id="DejaVuSans-7a" d="M 353 3500 
L 3084 3500 
L 3084 2975 
L 922 459 
L 3084 459 
L 3084 0 
L 275 0 
L 275 525 
L 2438 3041 
L 353 3041 
L 353 3500 
z
" transform="scale(0.015625)"/>
       <path id="DejaVuSans-50" d="M 1259 4147 
L 1259 2394 
L 2053 2394 
Q 2494 2394 2734 2622 
Q 2975 2850 2975 3272 
Q 2975 3691 2734 3919 
Q 2494 4147 2053 4147 
L 1259 4147 
z
M 628 4666 
L 2053 4666 
Q 2838 4666 3239 4311 
Q 3641 3956 3641 3272 
Q 3641 2581 3239 2228 
Q 2838 1875 2053 1875 
L 1259 1875 
L 1259 0 
L 628 0 
L 628 4666 
z
" transform="scale(0.015625)"/>
      </defs>
      <use xlink:href="#DejaVuSans-4c"/>
      <use xlink:href="#DejaVuSans-65" transform="translate(53.962891 0)"/>
      <use xlink:href="#DejaVuSans-61" transform="translate(115.486328 0)"/>
      <use xlink:href="#DejaVuSans-6e" transform="translate(176.765625 0)"/>
      <use xlink:href="#DejaVuSans-20" transform="translate(240.144531 0)"/>
      <use xlink:href="#DejaVuSans-46" transform="translate(271.931641 0)"/>
      <use xlink:href="#DejaVuSans-6f" transform="translate(325.826172 0)"/>
      <use xlink:href="#DejaVuSans-72" transform="translate(387.007812 0)"/>
      <use xlink:href="#DejaVuSans-6d" transform="translate(426.371094 0)"/>
      <use xlink:href="#DejaVuSans-61" transform="translate(523.783203 0)"/>
      <use xlink:href="#DejaVuSans-6c" transform="translate(585.0625 0)"/>
      <use xlink:href="#DejaVuSans-69" transform="translate(612.845703 0)"/>
      <use xlink:href="#DejaVuSans-7a" transform="translate(640.628906 0)"/>
      <use xlink:href="#DejaVuSans-65" transform="translate(693.119141 0)"/>
      <use xlink:href="#DejaVuSans-64" transform="translate(754.642578 0)"/>
      <use xlink:href="#DejaVuSans-20" transform="translate(818.119141 0)"/>
      <use xlink:href="#DejaVuSans-50" transform="translate(849.90625 0)"/>
      <use xlink:href="#DejaVuSans-72" transform="translate(908.458984 0)"/>
      <use xlink:href="#DejaVuSans-6f" transform="translate(947.322266 0)"/>
      <use xlink:href="#DejaVuSans-62" transform="translate(1008.503906 0)"/>
      <use xlink:href="#DejaVuSans-6c" transform="translate(1071.980469 0)"/>
      <use xlink:href="#DejaVuSans-65" transform="translate(1099.763672 0)"/>
      <use xlink:href="#DejaVuSans-6d" transform="translate(1161.287109 0)"/>
     </g>
    </g>
    <g id="line2d_38">
     <path d="M 57.90125 80.8525 
L 67.90125 80.8525 
L 77.90125 80.8525 
" style="fill: none; stroke: #d29922; stroke-width: 2; stroke-linecap: square"/>
    </g>
    <g id="text_26">
     <!-- Lean Formalized Solution -->
     <g style="fill: #c9d1d9" transform="translate(85.90125 84.3525) scale(0.1 -0.1)">
      <use xlink:href="#DejaVuSans-4c"/>
      <use xlink:href="#DejaVuSans-65" transform="translate(53.962891 0)"/>
      <use xlink:href="#DejaVuSans-61" transform="translate(115.486328 0)"/>
      <use xlink:href="#DejaVuSans-6e" transform="translate(176.765625 0)"/>
      <use xlink:href="#DejaVuSans-20" transform="translate(240.144531 0)"/>
      <use xlink:href="#DejaVuSans-46" transform="translate(271.931641 0)"/>
      <use xlink:href="#DejaVuSans-6f" transform="translate(325.826172 0)"/>
      <use xlink:href="#DejaVuSans-72" transform="translate(387.007812 0)"/>
      <use xlink:href="#DejaVuSans-6d" transform="translate(426.371094 0)"/>
      <use xlink:href="#DejaVuSans-61" transform="translate(523.783203 0)"/>
      <use xlink:href="#DejaVuSans-6c" transform="translate(585.0625 0)"/>
      <use xlink:href="#DejaVuSans-69" transform="translate(612.845703 0)"/>
      <use xlink:href="#DejaVuSans-7a" transform="translate(640.628906 0)"/>
      <use xlink:href="#DejaVuSans-65" transform="translate(693.119141 0)"/>
      <use xlink:href="#DejaVuSans-64" transform="translate(754.642578 0)"/>
      <use xlink:href="#DejaVuSans-20" transform="translate(818.119141 0)"/>
      <use xlink:href="#DejaVuSans-53" transform="translate(849.90625 0)"/>
      <use xlink:href="#DejaVuSans-6f" transform="translate(913.382812 0)"/>
      <use xlink:href="#DejaVuSans-6c" transform="translate(974.564453 0)"/>
      <use xlink:href="#DejaVuSans-75" transform="translate(1002.347656 0)"/>
      <use xlink:href="#DejaVuSans-74" transform="translate(1065.726562 0)"/>
      <use xlink:href="#DejaVuSans-69" transform="translate(1104.935547 0)"/>
      <use xlink:href="#DejaVuSans-6f" transform="translate(1132.71875 0)"/>
      <use xlink:href="#DejaVuSans-6e" transform="translate(1193.900391 0)"/>
     </g>
    </g>
    <g id="line2d_39">
     <path d="M 57.90125 95.530625 
L 67.90125 95.530625 
L 77.90125 95.530625 
" style="fill: none; stroke: #f85149; stroke-width: 2; stroke-linecap: square"/>
    </g>
    <g id="text_27">
     <!-- OEIS Linked -->
     <g style="fill: #c9d1d9" transform="translate(85.90125 99.030625) scale(0.1 -0.1)">
      <defs>
       <path id="DejaVuSans-45" d="M 628 4666 
L 3578 4666 
L 3578 4134 
L 1259 4134 
L 1259 2753 
L 3481 2753 
L 3481 2222 
L 1259 2222 
L 1259 531 
L 3634 531 
L 3634 0 
L 628 0 
L 628 4666 
z
" transform="scale(0.015625)"/>
       <path id="DejaVuSans-49" d="M 628 4666 
L 1259 4666 
L 1259 0 
L 628 0 
L 628 4666 
z
" transform="scale(0.015625)"/>
       <path id="DejaVuSans-6b" d="M 581 4863 
L 1159 4863 
L 1159 1991 
L 2875 3500 
L 3609 3500 
L 1753 1863 
L 3688 0 
L 2938 0 
L 1159 1709 
L 1159 0 
L 581 0 
L 581 4863 
z
" transform="scale(0.015625)"/>
      </defs>
      <use xlink:href="#DejaVuSans-4f"/>
      <use xlink:href="#DejaVuSans-45" transform="translate(78.710938 0)"/>
      <use xlink:href="#DejaVuSans-49" transform="translate(141.894531 0)"/>
      <use xlink:href="#DejaVuSans-53" transform="translate(171.386719 0)"/>
      <use xlink:href="#DejaVuSans-20" transform="translate(234.863281 0)"/>
      <use xlink:href="#DejaVuSans-4c" transform="translate(266.650391 0)"/>
      <use xlink:href="#DejaVuSans-69" transform="translate(322.363281 0)"/>
      <use xlink:href="#DejaVuSans-6e" transform="translate(350.146484 0)"/>
      <use xlink:href="#DejaVuSans-6b" transform="translate(413.525391 0)"/>
      <use xlink:href="#DejaVuSans-65" transform="translate(467.810547 0)"/>
      <use xlink:href="#DejaVuSans-64" transform="translate(529.333984 0)"/>
     </g>
    </g>
    <g id="line2d_40">
     <path d="M 57.90125 110.20875 
L 67.90125 110.20875 
L 77.90125 110.20875 
" style="fill: none; stroke: #9467bd; stroke-width: 2; stroke-linecap: square"/>
    </g>
    <g id="text_28">
     <!-- Open Problems -->
     <g style="fill: #c9d1d9" transform="translate(85.90125 113.70875) scale(0.1 -0.1)">
      <defs>
       <path id="DejaVuSans-73" d="M 2834 3397 
L 2834 2853 
Q 2591 2978 2328 3040 
Q 2066 3103 1784 3103 
Q 1356 3103 1142 2972 
Q 928 2841 928 2578 
Q 928 2378 1081 2264 
Q 1234 2150 1697 2047 
L 1894 2003 
Q 2506 1872 2764 1633 
Q 3022 1394 3022 966 
Q 3022 478 2636 193 
Q 2250 -91 1575 -91 
Q 1294 -91 989 -36 
Q 684 19 347 128 
L 347 722 
Q 666 556 975 473 
Q 1284 391 1588 391 
Q 1994 391 2212 530 
Q 2431 669 2431 922 
Q 2431 1156 2273 1281 
Q 2116 1406 1581 1522 
L 1381 1569 
Q 847 1681 609 1914 
Q 372 2147 372 2553 
Q 372 3047 722 3315 
Q 1072 3584 1716 3584 
Q 2034 3584 2315 3537 
Q 2597 3491 2834 3397 
z
" transform="scale(0.015625)"/>
      </defs>
      <use xlink:href="#DejaVuSans-4f"/>
      <use xlink:href="#DejaVuSans-70" transform="translate(78.710938 0)"/>
      <use xlink:href="#DejaVuSans-65" transform="translate(142.1875 0)"/>
      <use xlink:href="#DejaVuSans-6e" transform="translate(203.710938 0)"/>
      <use xlink:href="#DejaVuSans-20" transform="translate(267.089844 0)"/>
      <use xlink:href="#DejaVuSans-50" transform="translate(298.876953 0)"/>
      <use xlink:href="#DejaVuSans-72" transform="translate(357.429688 0)"/>
      <use xlink:href="#DejaVuSans-6f" transform="translate(396.292969 0)"/>
      <use xlink:href="#DejaVuSans-62" transform="translate(457.474609 0)"/>
      <use xlink:href="#DejaVuSans-6c" transform="translate(520.951172 0)"/>
      <use xlink:href="#DejaVuSans-65" transform="translate(548.734375 0)"/>
      <use xlink:href="#DejaVuSans-6d" transform="translate(610.257812 0)"/>
      <use xlink:href="#DejaVuSans-73" transform="translate(707.669922 0)"/>
     </g>
    </g>
   </g>
  </g>
 </g>
 <defs>
  <clipPath id="p538f03f570">
   <rect x="48.90125" y="38.397812" width="799.45" height="416.84"/>
  </clipPath>
 </defs>
</svg>
