<?xml version="1.0" encoding="utf-8" standalone="no"?>
<!DOCTYPE svg PUBLIC "-//W3C//DTD SVG 1.1//EN"
  "http://www.w3.org/Graphics/SVG/1.1/DTD/svg11.dtd">
<svg xmlns:xlink="http://www.w3.org/1999/xlink" width="855.55125pt" height="494.729687pt" viewBox="0 0 855.55125 494.729687" xmlns="http://www.w3.org/2000/svg" version="1.1">
 <metadata>
  <rdf:RDF xmlns:dc="http://purl.org/dc/elements/1.1/" xmlns:cc="http://creativecommons.org/ns#" xmlns:rdf="http://www.w3.org/1999/02/22-rdf-syntax-ns#">
   <cc:Work>
    <dc:type rdf:resource="http://purl.org/dc/dcmitype/StillImage"/>
    <dc:date>2026-03-16T06:39:27.404204</dc:date>
    <dc:format>image/svg+xml</dc:format>
    <dc:creator>
     <cc:Agent>
      <dc:title>Matplotlib v3.10.7, https://matplotlib.org/</dc:title>
     </cc:Agent>
    </dc:creator>
   </cc:Work>
  </rdf:RDF>
 </metadata>
 <defs>
  <style type="text/css">*{stroke-linejoin: round; stroke-linecap: butt}</style>
 </defs>
 <g id="figure_1">
  <g id="patch_1">
   <path d="M 0 494.729687 
L 855.55125 494.729687 
L 855.55125 0 
L 0 0 
z
" style="fill: #0d1117"/>
  </g>
  <g id="axes_1">
   <g id="patch_2">
    <path d="M 48.90125 455.237812 
L 848.35125 455.237812 
L 848.35125 38.397812 
L 48.90125 38.397812 
z
" style="fill: #0d1117"/>
   </g>
   <g id="matplotlib.axis_1">
    <g id="xtick_1">
     <g id="line2d_1">
      <path d="M 86.320741 455.237812 
L 86.320741 38.397812 
" clip-path="url(#p2e6b3ca349)" style="fill: none; stroke: #30363d; stroke-opacity: 0.25; stroke-width: 0.5; stroke-linecap: square"/>
     </g>
     <g id="line2d_2">
      <defs>
       <path id="md8bb29a35e" d="M 0 0 
L 0 3.5 
" style="stroke: #c9d1d9; stroke-width: 0.8"/>
      </defs>
      <g>
       <use xlink:href="#md8bb29a35e" x="86.320741" y="455.237812" style="fill: #c9d1d9; stroke: #c9d1d9; stroke-width: 0.8"/>
      </g>
     </g>
     <g id="text_1">
      <!-- Sep -->
      <g style="fill: #c9d1d9" transform="translate(76.895741 469.83625) scale(0.1 -0.1)">
       <defs>
        <path id="DejaVuSans-53" d="M 3425 4513 
L 3425 3897 
Q 3066 4069 2747 4153 
Q 2428 4238 2131 4238 
Q 1616 4238 1336 4038 
Q 1056 3838 1056 3469 
Q 1056 3159 1242 3001 
Q 1428 2844 1947 2747 
L 2328 2669 
Q 3034 2534 3370 2195 
Q 3706 1856 3706 1288 
Q 3706 609 3251 259 
Q 2797 -91 1919 -91 
Q 1588 -91 1214 -16 
Q 841 59 441 206 
L 441 856 
Q 825 641 1194 531 
Q 1563 422 1919 422 
Q 2459 422 2753 634 
Q 3047 847 3047 1241 
Q 3047 1584 2836 1778 
Q 2625 1972 2144 2069 
L 1759 2144 
Q 1053 2284 737 2584 
Q 422 2884 422 3419 
Q 422 4038 858 4394 
Q 1294 4750 2059 4750 
Q 2388 4750 2728 4690 
Q 3069 4631 3425 4513 
z
" transform="scale(0.015625)"/>
        <path id="DejaVuSans-65" d="M 3597 1894 
L 3597 1613 
L 953 1613 
Q 991 1019 1311 708 
Q 1631 397 2203 397 
Q 2534 397 2845 478 
Q 3156 559 3463 722 
L 3463 178 
Q 3153 47 2828 -22 
Q 2503 -91 2169 -91 
Q 1331 -91 842 396 
Q 353 884 353 1716 
Q 353 2575 817 3079 
Q 1281 3584 2069 3584 
Q 2775 3584 3186 3129 
Q 3597 2675 3597 1894 
z
M 3022 2063 
Q 3016 2534 2758 2815 
Q 2500 3097 2075 3097 
Q 1594 3097 1305 2825 
Q 1016 2553 972 2059 
L 3022 2063 
z
" transform="scale(0.015625)"/>
        <path id="DejaVuSans-70" d="M 1159 525 
L 1159 -1331 
L 581 -1331 
L 581 3500 
L 1159 3500 
L 1159 2969 
Q 1341 3281 1617 3432 
Q 1894 3584 2278 3584 
Q 2916 3584 3314 3078 
Q 3713 2572 3713 1747 
Q 3713 922 3314 415 
Q 2916 -91 2278 -91 
Q 1894 -91 1617 61 
Q 1341 213 1159 525 
z
M 3116 1747 
Q 3116 2381 2855 2742 
Q 2594 3103 2138 3103 
Q 1681 3103 1420 2742 
Q 1159 2381 1159 1747 
Q 1159 1113 1420 752 
Q 1681 391 2138 391 
Q 2594 391 2855 752 
Q 3116 1113 3116 1747 
z
" transform="scale(0.015625)"/>
       </defs>
       <use xlink:href="#DejaVuSans-53"/>
       <use xlink:href="#DejaVuSans-65" transform="translate(63.476562 0)"/>
       <use xlink:href="#DejaVuSans-70" transform="translate(125 0)"/>
      </g>
     </g>
    </g>
    <g id="xtick_2">
     <g id="line2d_3">
      <path d="M 197.239046 455.237812 
L 197.239046 38.397812 
" clip-path="url(#p2e6b3ca349)" style="fill: none; stroke: #30363d; stroke-opacity: 0.25; stroke-width: 0.5; stroke-linecap: square"/>
     </g>
     <g id="line2d_4">
      <g>
       <use xlink:href="#md8bb29a35e" x="197.239046" y="455.237812" style="fill: #c9d1d9; stroke: #c9d1d9; stroke-width: 0.8"/>
      </g>
     </g>
     <g id="text_2">
      <!-- Oct -->
      <g style="fill: #c9d1d9" transform="translate(188.593734 469.83625) scale(0.1 -0.1)">
       <defs>
        <path id="DejaVuSans-4f" d="M 2522 4238 
Q 1834 4238 1429 3725 
Q 1025 3213 1025 2328 
Q 1025 1447 1429 934 
Q 1834 422 2522 422 
Q 3209 422 3611 934 
Q 4013 1447 4013 2328 
Q 4013 3213 3611 3725 
Q 3209 4238 2522 4238 
z
M 2522 4750 
Q 3503 4750 4090 4092 
Q 4678 3434 4678 2328 
Q 4678 1225 4090 567 
Q 3503 -91 2522 -91 
Q 1538 -91 948 565 
Q 359 1222 359 2328 
Q 359 3434 948 4092 
Q 1538 4750 2522 4750 
z
" transform="scale(0.015625)"/>
        <path id="DejaVuSans-63" d="M 3122 3366 
L 3122 2828 
Q 2878 2963 2633 3030 
Q 2388 3097 2138 3097 
Q 1578 3097 1268 2742 
Q 959 2388 959 1747 
Q 959 1106 1268 751 
Q 1578 397 2138 397 
Q 2388 397 2633 464 
Q 2878 531 3122 666 
L 3122 134 
Q 2881 22 2623 -34 
Q 2366 -91 2075 -91 
Q 1284 -91 818 406 
Q 353 903 353 1747 
Q 353 2603 823 3093 
Q 1294 3584 2113 3584 
Q 2378 3584 2631 3529 
Q 2884 3475 3122 3366 
z
" transform="scale(0.015625)"/>
        <path id="DejaVuSans-74" d="M 1172 4494 
L 1172 3500 
L 2356 3500 
L 2356 3053 
L 1172 3053 
L 1172 1153 
Q 1172 725 1289 603 
Q 1406 481 1766 481 
L 2356 481 
L 2356 0 
L 1766 0 
Q 1100 0 847 248 
Q 594 497 594 1153 
L 594 3053 
L 172 3053 
L 172 3500 
L 594 3500 
L 594 4494 
L 1172 4494 
z
" transform="scale(0.015625)"/>
       </defs>
       <use xlink:href="#DejaVuSans-4f"/>
       <use xlink:href="#DejaVuSans-63" transform="translate(78.710938 0)"/>
       <use xlink:href="#DejaVuSans-74" transform="translate(133.691406 0)"/>
      </g>
     </g>
    </g>
    <g id="xtick_3">
     <g id="line2d_5">
      <path d="M 311.854629 455.237812 
L 311.854629 38.397812 
" clip-path="url(#p2e6b3ca349)" style="fill: none; stroke: #30363d; stroke-opacity: 0.25; stroke-width: 0.5; stroke-linecap: square"/>
     </g>
     <g id="line2d_6">
      <g>
       <use xlink:href="#md8bb29a35e" x="311.854629" y="455.237812" style="fill: #c9d1d9; stroke: #c9d1d9; stroke-width: 0.8"/>
      </g>
     </g>
     <g id="text_3">
      <!-- Nov -->
      <g style="fill: #c9d1d9" transform="translate(302.095254 469.83625) scale(0.1 -0.1)">
       <defs>
        <path id="DejaVuSans-4e" d="M 628 4666 
L 1478 4666 
L 3547 763 
L 3547 4666 
L 4159 4666 
L 4159 0 
L 3309 0 
L 1241 3903 
L 1241 0 
L 628 0 
L 628 4666 
z
" transform="scale(0.015625)"/>
        <path id="DejaVuSans-6f" d="M 1959 3097 
Q 1497 3097 1228 2736 
Q 959 2375 959 1747 
Q 959 1119 1226 758 
Q 1494 397 1959 397 
Q 2419 397 2687 759 
Q 2956 1122 2956 1747 
Q 2956 2369 2687 2733 
Q 2419 3097 1959 3097 
z
M 1959 3584 
Q 2709 3584 3137 3096 
Q 3566 2609 3566 1747 
Q 3566 888 3137 398 
Q 2709 -91 1959 -91 
Q 1206 -91 779 398 
Q 353 888 353 1747 
Q 353 2609 779 3096 
Q 1206 3584 1959 3584 
z
" transform="scale(0.015625)"/>
        <path id="DejaVuSans-76" d="M 191 3500 
L 800 3500 
L 1894 563 
L 2988 3500 
L 3597 3500 
L 2284 0 
L 1503 0 
L 191 3500 
z
" transform="scale(0.015625)"/>
       </defs>
       <use xlink:href="#DejaVuSans-4e"/>
       <use xlink:href="#DejaVuSans-6f" transform="translate(74.804688 0)"/>
       <use xlink:href="#DejaVuSans-76" transform="translate(135.986328 0)"/>
      </g>
     </g>
    </g>
    <g id="xtick_4">
     <g id="line2d_7">
      <path d="M 422.772935 455.237812 
L 422.772935 38.397812 
" clip-path="url(#p2e6b3ca349)" style="fill: none; stroke: #30363d; stroke-opacity: 0.25; stroke-width: 0.5; stroke-linecap: square"/>
     </g>
     <g id="line2d_8">
      <g>
       <use xlink:href="#md8bb29a35e" x="422.772935" y="455.237812" style="fill: #c9d1d9; stroke: #c9d1d9; stroke-width: 0.8"/>
      </g>
     </g>
     <g id="text_4">
      <!-- Dec -->
      <g style="fill: #c9d1d9" transform="translate(413.097153 469.83625) scale(0.1 -0.1)">
       <defs>
        <path id="DejaVuSans-44" d="M 1259 4147 
L 1259 519 
L 2022 519 
Q 2988 519 3436 956 
Q 3884 1394 3884 2338 
Q 3884 3275 3436 3711 
Q 2988 4147 2022 4147 
L 1259 4147 
z
M 628 4666 
L 1925 4666 
Q 3281 4666 3915 4102 
Q 4550 3538 4550 2338 
Q 4550 1131 3912 565 
Q 3275 0 1925 0 
L 628 0 
L 628 4666 
z
" transform="scale(0.015625)"/>
       </defs>
       <use xlink:href="#DejaVuSans-44"/>
       <use xlink:href="#DejaVuSans-65" transform="translate(77.001953 0)"/>
       <use xlink:href="#DejaVuSans-63" transform="translate(138.525391 0)"/>
      </g>
     </g>
    </g>
    <g id="xtick_5">
     <g id="line2d_9">
      <path d="M 537.388517 455.237812 
L 537.388517 38.397812 
" clip-path="url(#p2e6b3ca349)" style="fill: none; stroke: #30363d; stroke-opacity: 0.25; stroke-width: 0.5; stroke-linecap: square"/>
     </g>
     <g id="line2d_10">
      <g>
       <use xlink:href="#md8bb29a35e" x="537.388517" y="455.237812" style="fill: #c9d1d9; stroke: #c9d1d9; stroke-width: 0.8"/>
      </g>
     </g>
     <g id="text_5">
      <!-- 2026 -->
      <g style="fill: #c9d1d9" transform="translate(524.663517 469.83625) scale(0.1 -0.1)">
       <defs>
        <path id="DejaVuSans-32" d="M 1228 531 
L 3431 531 
L 3431 0 
L 469 0 
L 469 531 
Q 828 903 1448 1529 
Q 2069 2156 2228 2338 
Q 2531 2678 2651 2914 
Q 2772 3150 2772 3378 
Q 2772 3750 2511 3984 
Q 2250 4219 1831 4219 
Q 1534 4219 1204 4116 
Q 875 4013 500 3803 
L 500 4441 
Q 881 4594 1212 4672 
Q 1544 4750 1819 4750 
Q 2544 4750 2975 4387 
Q 3406 4025 3406 3419 
Q 3406 3131 3298 2873 
Q 3191 2616 2906 2266 
Q 2828 2175 2409 1742 
Q 1991 1309 1228 531 
z
" transform="scale(0.015625)"/>
        <path id="DejaVuSans-30" d="M 2034 4250 
Q 1547 4250 1301 3770 
Q 1056 3291 1056 2328 
Q 1056 1369 1301 889 
Q 1547 409 2034 409 
Q 2525 409 2770 889 
Q 3016 1369 3016 2328 
Q 3016 3291 2770 3770 
Q 2525 4250 2034 4250 
z
M 2034 4750 
Q 2819 4750 3233 4129 
Q 3647 3509 3647 2328 
Q 3647 1150 3233 529 
Q 2819 -91 2034 -91 
Q 1250 -91 836 529 
Q 422 1150 422 2328 
Q 422 3509 836 4129 
Q 1250 4750 2034 4750 
z
" transform="scale(0.015625)"/>
        <path id="DejaVuSans-36" d="M 2113 2584 
Q 1688 2584 1439 2293 
Q 1191 2003 1191 1497 
Q 1191 994 1439 701 
Q 1688 409 2113 409 
Q 2538 409 2786 701 
Q 3034 994 3034 1497 
Q 3034 2003 2786 2293 
Q 2538 2584 2113 2584 
z
M 3366 4563 
L 3366 3988 
Q 3128 4100 2886 4159 
Q 2644 4219 2406 4219 
Q 1781 4219 1451 3797 
Q 1122 3375 1075 2522 
Q 1259 2794 1537 2939 
Q 1816 3084 2150 3084 
Q 2853 3084 3261 2657 
Q 3669 2231 3669 1497 
Q 3669 778 3244 343 
Q 2819 -91 2113 -91 
Q 1303 -91 875 529 
Q 447 1150 447 2328 
Q 447 3434 972 4092 
Q 1497 4750 2381 4750 
Q 2619 4750 2861 4703 
Q 3103 4656 3366 4563 
z
" transform="scale(0.015625)"/>
       </defs>
       <use xlink:href="#DejaVuSans-32"/>
       <use xlink:href="#DejaVuSans-30" transform="translate(63.623047 0)"/>
       <use xlink:href="#DejaVuSans-32" transform="translate(127.246094 0)"/>
       <use xlink:href="#DejaVuSans-36" transform="translate(190.869141 0)"/>
      </g>
     </g>
    </g>
    <g id="xtick_6">
     <g id="line2d_11">
      <path d="M 652.0041 455.237812 
L 652.0041 38.397812 
" clip-path="url(#p2e6b3ca349)" style="fill: none; stroke: #30363d; stroke-opacity: 0.25; stroke-width: 0.5; stroke-linecap: square"/>
     </g>
     <g id="line2d_12">
      <g>
       <use xlink:href="#md8bb29a35e" x="652.0041" y="455.237812" style="fill: #c9d1d9; stroke: #c9d1d9; stroke-width: 0.8"/>
      </g>
     </g>
     <g id="text_6">
      <!-- Feb -->
      <g style="fill: #c9d1d9" transform="translate(643.152537 469.83625) scale(0.1 -0.1)">
       <defs>
        <path id="DejaVuSans-46" d="M 628 4666 
L 3309 4666 
L 3309 4134 
L 1259 4134 
L 1259 2759 
L 3109 2759 
L 3109 2228 
L 1259 2228 
L 1259 0 
L 628 0 
L 628 4666 
z
" transform="scale(0.015625)"/>
        <path id="DejaVuSans-62" d="M 3116 1747 
Q 3116 2381 2855 2742 
Q 2594 3103 2138 3103 
Q 1681 3103 1420 2742 
Q 1159 2381 1159 1747 
Q 1159 1113 1420 752 
Q 1681 391 2138 391 
Q 2594 391 2855 752 
Q 3116 1113 3116 1747 
z
M 1159 2969 
Q 1341 3281 1617 3432 
Q 1894 3584 2278 3584 
Q 2916 3584 3314 3078 
Q 3713 2572 3713 1747 
Q 3713 922 3314 415 
Q 2916 -91 2278 -91 
Q 1894 -91 1617 61 
Q 1341 213 1159 525 
L 1159 0 
L 581 0 
L 581 4863 
L 1159 4863 
L 1159 2969 
z
" transform="scale(0.015625)"/>
       </defs>
       <use xlink:href="#DejaVuSans-46"/>
       <use xlink:href="#DejaVuSans-65" transform="translate(52.019531 0)"/>
       <use xlink:href="#DejaVuSans-62" transform="translate(113.542969 0)"/>
      </g>
     </g>
    </g>
    <g id="xtick_7">
     <g id="line2d_13">
      <path d="M 755.527852 455.237812 
L 755.527852 38.397812 
" clip-path="url(#p2e6b3ca349)" style="fill: none; stroke: #30363d; stroke-opacity: 0.25; stroke-width: 0.5; stroke-linecap: square"/>
     </g>
     <g id="line2d_14">
      <g>
       <use xlink:href="#md8bb29a35e" x="755.527852" y="455.237812" style="fill: #c9d1d9; stroke: #c9d1d9; stroke-width: 0.8"/>
      </g>
     </g>
     <g id="text_7">
      <!-- Mar -->
      <g style="fill: #c9d1d9" transform="translate(746.094258 469.83625) scale(0.1 -0.1)">
       <defs>
        <path id="DejaVuSans-4d" d="M 628 4666 
L 1569 4666 
L 2759 1491 
L 3956 4666 
L 4897 4666 
L 4897 0 
L 4281 0 
L 4281 4097 
L 3078 897 
L 2444 897 
L 1241 4097 
L 1241 0 
L 628 0 
L 628 4666 
z
" transform="scale(0.015625)"/>
        <path id="DejaVuSans-61" d="M 2194 1759 
Q 1497 1759 1228 1600 
Q 959 1441 959 1056 
Q 959 750 1161 570 
Q 1363 391 1709 391 
Q 2188 391 2477 730 
Q 2766 1069 2766 1631 
L 2766 1759 
L 2194 1759 
z
M 3341 1997 
L 3341 0 
L 2766 0 
L 2766 531 
Q 2569 213 2275 61 
Q 1981 -91 1556 -91 
Q 1019 -91 701 211 
Q 384 513 384 1019 
Q 384 1609 779 1909 
Q 1175 2209 1959 2209 
L 2766 2209 
L 2766 2266 
Q 2766 2663 2505 2880 
Q 2244 3097 1772 3097 
Q 1472 3097 1187 3025 
Q 903 2953 641 2809 
L 641 3341 
Q 956 3463 1253 3523 
Q 1550 3584 1831 3584 
Q 2591 3584 2966 3190 
Q 3341 2797 3341 1997 
z
" transform="scale(0.015625)"/>
        <path id="DejaVuSans-72" d="M 2631 2963 
Q 2534 3019 2420 3045 
Q 2306 3072 2169 3072 
Q 1681 3072 1420 2755 
Q 1159 2438 1159 1844 
L 1159 0 
L 581 0 
L 581 3500 
L 1159 3500 
L 1159 2956 
Q 1341 3275 1631 3429 
Q 1922 3584 2338 3584 
Q 2397 3584 2469 3576 
Q 2541 3569 2628 3553 
L 2631 2963 
z
" transform="scale(0.015625)"/>
       </defs>
       <use xlink:href="#DejaVuSans-4d"/>
       <use xlink:href="#DejaVuSans-61" transform="translate(86.279297 0)"/>
       <use xlink:href="#DejaVuSans-72" transform="translate(147.558594 0)"/>
      </g>
     </g>
    </g>
    <g id="text_8">
     <!-- Date -->
     <g style="fill: #c9d1d9" transform="translate(434.285313 485.034062) scale(0.12 -0.12)">
      <use xlink:href="#DejaVuSans-44"/>
      <use xlink:href="#DejaVuSans-61" transform="translate(77.001953 0)"/>
      <use xlink:href="#DejaVuSans-74" transform="translate(138.28125 0)"/>
      <use xlink:href="#DejaVuSans-65" transform="translate(177.490234 0)"/>
     </g>
    </g>
   </g>
   <g id="matplotlib.axis_2">
    <g id="ytick_1">
     <g id="line2d_15">
      <path d="M 48.90125 455.237812 
L 848.35125 455.237812 
" clip-path="url(#p2e6b3ca349)" style="fill: none; stroke: #30363d; stroke-opacity: 0.25; stroke-width: 0.5; stroke-linecap: square"/>
     </g>
     <g id="line2d_16">
      <defs>
       <path id="ma846f4ce52" d="M 0 0 
L -3.5 0 
" style="stroke: #c9d1d9; stroke-width: 0.8"/>
      </defs>
      <g>
       <use xlink:href="#ma846f4ce52" x="48.90125" y="455.237812" style="fill: #c9d1d9; stroke: #c9d1d9; stroke-width: 0.8"/>
      </g>
     </g>
     <g id="text_9">
      <!-- 0 -->
      <g style="fill: #c9d1d9" transform="translate(35.53875 459.037031) scale(0.1 -0.1)">
       <use xlink:href="#DejaVuSans-30"/>
      </g>
     </g>
    </g>
    <g id="ytick_2">
     <g id="line2d_17">
      <path d="M 48.90125 399.659146 
L 848.35125 399.659146 
" clip-path="url(#p2e6b3ca349)" style="fill: none; stroke: #30363d; stroke-opacity: 0.25; stroke-width: 0.5; stroke-linecap: square"/>
     </g>
     <g id="line2d_18">
      <g>
       <use xlink:href="#ma846f4ce52" x="48.90125" y="399.659146" style="fill: #c9d1d9; stroke: #c9d1d9; stroke-width: 0.8"/>
      </g>
     </g>
     <g id="text_10">
      <!-- 100 -->
      <g style="fill: #c9d1d9" transform="translate(22.81375 403.458365) scale(0.1 -0.1)">
       <defs>
        <path id="DejaVuSans-31" d="M 794 531 
L 1825 531 
L 1825 4091 
L 703 3866 
L 703 4441 
L 1819 4666 
L 2450 4666 
L 2450 531 
L 3481 531 
L 3481 0 
L 794 0 
L 794 531 
z
" transform="scale(0.015625)"/>
       </defs>
       <use xlink:href="#DejaVuSans-31"/>
       <use xlink:href="#DejaVuSans-30" transform="translate(63.623047 0)"/>
       <use xlink:href="#DejaVuSans-30" transform="translate(127.246094 0)"/>
      </g>
     </g>
    </g>
    <g id="ytick_3">
     <g id="line2d_19">
      <path d="M 48.90125 344.080479 
L 848.35125 344.080479 
" clip-path="url(#p2e6b3ca349)" style="fill: none; stroke: #30363d; stroke-opacity: 0.25; stroke-width: 0.5; stroke-linecap: square"/>
     </g>
     <g id="line2d_20">
      <g>
       <use xlink:href="#ma846f4ce52" x="48.90125" y="344.080479" style="fill: #c9d1d9; stroke: #c9d1d9; stroke-width: 0.8"/>
      </g>
     </g>
     <g id="text_11">
      <!-- 200 -->
      <g style="fill: #c9d1d9" transform="translate(22.81375 347.879698) scale(0.1 -0.1)">
       <use xlink:href="#DejaVuSans-32"/>
       <use xlink:href="#DejaVuSans-30" transform="translate(63.623047 0)"/>
       <use xlink:href="#DejaVuSans-30" transform="translate(127.246094 0)"/>
      </g>
     </g>
    </g>
    <g id="ytick_4">
     <g id="line2d_21">
      <path d="M 48.90125 288.501812 
L 848.35125 288.501812 
" clip-path="url(#p2e6b3ca349)" style="fill: none; stroke: #30363d; stroke-opacity: 0.25; stroke-width: 0.5; stroke-linecap: square"/>
     </g>
     <g id="line2d_22">
      <g>
       <use xlink:href="#ma846f4ce52" x="48.90125" y="288.501812" style="fill: #c9d1d9; stroke: #c9d1d9; stroke-width: 0.8"/>
      </g>
     </g>
     <g id="text_12">
      <!-- 300 -->
      <g style="fill: #c9d1d9" transform="translate(22.81375 292.301031) scale(0.1 -0.1)">
       <defs>
        <path id="DejaVuSans-33" d="M 2597 2516 
Q 3050 2419 3304 2112 
Q 3559 1806 3559 1356 
Q 3559 666 3084 287 
Q 2609 -91 1734 -91 
Q 1441 -91 1130 -33 
Q 819 25 488 141 
L 488 750 
Q 750 597 1062 519 
Q 1375 441 1716 441 
Q 2309 441 2620 675 
Q 2931 909 2931 1356 
Q 2931 1769 2642 2001 
Q 2353 2234 1838 2234 
L 1294 2234 
L 1294 2753 
L 1863 2753 
Q 2328 2753 2575 2939 
Q 2822 3125 2822 3475 
Q 2822 3834 2567 4026 
Q 2313 4219 1838 4219 
Q 1578 4219 1281 4162 
Q 984 4106 628 3988 
L 628 4550 
Q 988 4650 1302 4700 
Q 1616 4750 1894 4750 
Q 2613 4750 3031 4423 
Q 3450 4097 3450 3541 
Q 3450 3153 3228 2886 
Q 3006 2619 2597 2516 
z
" transform="scale(0.015625)"/>
       </defs>
       <use xlink:href="#DejaVuSans-33"/>
       <use xlink:href="#DejaVuSans-30" transform="translate(63.623047 0)"/>
       <use xlink:href="#DejaVuSans-30" transform="translate(127.246094 0)"/>
      </g>
     </g>
    </g>
    <g id="ytick_5">
     <g id="line2d_23">
      <path d="M 48.90125 232.923146 
L 848.35125 232.923146 
" clip-path="url(#p2e6b3ca349)" style="fill: none; stroke: #30363d; stroke-opacity: 0.25; stroke-width: 0.5; stroke-linecap: square"/>
     </g>
     <g id="line2d_24">
      <g>
       <use xlink:href="#ma846f4ce52" x="48.90125" y="232.923146" style="fill: #c9d1d9; stroke: #c9d1d9; stroke-width: 0.8"/>
      </g>
     </g>
     <g id="text_13">
      <!-- 400 -->
      <g style="fill: #c9d1d9" transform="translate(22.81375 236.722365) scale(0.1 -0.1)">
       <defs>
        <path id="DejaVuSans-34" d="M 2419 4116 
L 825 1625 
L 2419 1625 
L 2419 4116 
z
M 2253 4666 
L 3047 4666 
L 3047 1625 
L 3713 1625 
L 3713 1100 
L 3047 1100 
L 3047 0 
L 2419 0 
L 2419 1100 
L 313 1100 
L 313 1709 
L 2253 4666 
z
" transform="scale(0.015625)"/>
       </defs>
       <use xlink:href="#DejaVuSans-34"/>
       <use xlink:href="#DejaVuSans-30" transform="translate(63.623047 0)"/>
       <use xlink:href="#DejaVuSans-30" transform="translate(127.246094 0)"/>
      </g>
     </g>
    </g>
    <g id="ytick_6">
     <g id="line2d_25">
      <path d="M 48.90125 177.344479 
L 848.35125 177.344479 
" clip-path="url(#p2e6b3ca349)" style="fill: none; stroke: #30363d; stroke-opacity: 0.25; stroke-width: 0.5; stroke-linecap: square"/>
     </g>
     <g id="line2d_26">
      <g>
       <use xlink:href="#ma846f4ce52" x="48.90125" y="177.344479" style="fill: #c9d1d9; stroke: #c9d1d9; stroke-width: 0.8"/>
      </g>
     </g>
     <g id="text_14">
      <!-- 500 -->
      <g style="fill: #c9d1d9" transform="translate(22.81375 181.143698) scale(0.1 -0.1)">
       <defs>
        <path id="DejaVuSans-35" d="M 691 4666 
L 3169 4666 
L 3169 4134 
L 1269 4134 
L 1269 2991 
Q 1406 3038 1543 3061 
Q 1681 3084 1819 3084 
Q 2600 3084 3056 2656 
Q 3513 2228 3513 1497 
Q 3513 744 3044 326 
Q 2575 -91 1722 -91 
Q 1428 -91 1123 -41 
Q 819 9 494 109 
L 494 744 
Q 775 591 1075 516 
Q 1375 441 1709 441 
Q 2250 441 2565 725 
Q 2881 1009 2881 1497 
Q 2881 1984 2565 2268 
Q 2250 2553 1709 2553 
Q 1456 2553 1204 2497 
Q 953 2441 691 2322 
L 691 4666 
z
" transform="scale(0.015625)"/>
       </defs>
       <use xlink:href="#DejaVuSans-35"/>
       <use xlink:href="#DejaVuSans-30" transform="translate(63.623047 0)"/>
       <use xlink:href="#DejaVuSans-30" transform="translate(127.246094 0)"/>
      </g>
     </g>
    </g>
    <g id="ytick_7">
     <g id="line2d_27">
      <path d="M 48.90125 121.765812 
L 848.35125 121.765812 
" clip-path="url(#p2e6b3ca349)" style="fill: none; stroke: #30363d; stroke-opacity: 0.25; stroke-width: 0.5; stroke-linecap: square"/>
     </g>
     <g id="line2d_28">
      <g>
       <use xlink:href="#ma846f4ce52" x="48.90125" y="121.765812" style="fill: #c9d1d9; stroke: #c9d1d9; stroke-width: 0.8"/>
      </g>
     </g>
     <g id="text_15">
      <!-- 600 -->
      <g style="fill: #c9d1d9" transform="translate(22.81375 125.565031) scale(0.1 -0.1)">
       <use xlink:href="#DejaVuSans-36"/>
       <use xlink:href="#DejaVuSans-30" transform="translate(63.623047 0)"/>
       <use xlink:href="#DejaVuSans-30" transform="translate(127.246094 0)"/>
      </g>
     </g>
    </g>
    <g id="ytick_8">
     <g id="line2d_29">
      <path d="M 48.90125 66.187146 
L 848.35125 66.187146 
" clip-path="url(#p2e6b3ca349)" style="fill: none; stroke: #30363d; stroke-opacity: 0.25; stroke-width: 0.5; stroke-linecap: square"/>
     </g>
     <g id="line2d_30">
      <g>
       <use xlink:href="#ma846f4ce52" x="48.90125" y="66.187146" style="fill: #c9d1d9; stroke: #c9d1d9; stroke-width: 0.8"/>
      </g>
     </g>
     <g id="text_16">
      <!-- 700 -->
      <g style="fill: #c9d1d9" transform="translate(22.81375 69.986365) scale(0.1 -0.1)">
       <defs>
        <path id="DejaVuSans-37" d="M 525 4666 
L 3525 4666 
L 3525 4397 
L 1831 0 
L 1172 0 
L 2766 4134 
L 525 4134 
L 525 4666 
z
" transform="scale(0.015625)"/>
       </defs>
       <use xlink:href="#DejaVuSans-37"/>
       <use xlink:href="#DejaVuSans-30" transform="translate(63.623047 0)"/>
       <use xlink:href="#DejaVuSans-30" transform="translate(127.246094 0)"/>
      </g>
     </g>
    </g>
    <g id="text_17">
     <!-- Count -->
     <g style="fill: #c9d1d9" transform="translate(16.318125 264.635937) rotate(-90) scale(0.12 -0.12)">
      <defs>
       <path id="DejaVuSans-43" d="M 4122 4306 
L 4122 3641 
Q 3803 3938 3442 4084 
Q 3081 4231 2675 4231 
Q 1875 4231 1450 3742 
Q 1025 3253 1025 2328 
Q 1025 1406 1450 917 
Q 1875 428 2675 428 
Q 3081 428 3442 575 
Q 3803 722 4122 1019 
L 4122 359 
Q 3791 134 3420 21 
Q 3050 -91 2638 -91 
Q 1578 -91 968 557 
Q 359 1206 359 2328 
Q 359 3453 968 4101 
Q 1578 4750 2638 4750 
Q 3056 4750 3426 4639 
Q 3797 4528 4122 4306 
z
" transform="scale(0.015625)"/>
       <path id="DejaVuSans-75" d="M 544 1381 
L 544 3500 
L 1119 3500 
L 1119 1403 
Q 1119 906 1312 657 
Q 1506 409 1894 409 
Q 2359 409 2629 706 
Q 2900 1003 2900 1516 
L 2900 3500 
L 3475 3500 
L 3475 0 
L 2900 0 
L 2900 538 
Q 2691 219 2414 64 
Q 2138 -91 1772 -91 
Q 1169 -91 856 284 
Q 544 659 544 1381 
z
M 1991 3584 
L 1991 3584 
z
" transform="scale(0.015625)"/>
       <path id="DejaVuSans-6e" d="M 3513 2113 
L 3513 0 
L 2938 0 
L 2938 2094 
Q 2938 2591 2744 2837 
Q 2550 3084 2163 3084 
Q 1697 3084 1428 2787 
Q 1159 2491 1159 1978 
L 1159 0 
L 581 0 
L 581 3500 
L 1159 3500 
L 1159 2956 
Q 1366 3272 1645 3428 
Q 1925 3584 2291 3584 
Q 2894 3584 3203 3211 
Q 3513 2838 3513 2113 
z
" transform="scale(0.015625)"/>
      </defs>
      <use xlink:href="#DejaVuSans-43"/>
      <use xlink:href="#DejaVuSans-6f" transform="translate(69.824219 0)"/>
      <use xlink:href="#DejaVuSans-75" transform="translate(131.005859 0)"/>
      <use xlink:href="#DejaVuSans-6e" transform="translate(194.384766 0)"/>
      <use xlink:href="#DejaVuSans-74" transform="translate(257.763672 0)"/>
     </g>
    </g>
   </g>
   <g id="line2d_31">
    <path d="M 85.239886 454.682026 
L 85.310708 454.682026 
L 85.35564 454.126239 
L 85.577862 454.126239 
L 85.678382 257.933546 
L 88.793038 257.933546 
L 88.806646 261.268266 
L 92.40995 261.268266 
L 92.58433 260.712479 
L 93.084575 260.712479 
L 93.489992 260.156692 
L 96.002129 259.600906 
L 96.051725 260.156692 
L 96.172143 259.600906 
L 103.951488 259.600906 
L 108.644633 260.712479 
L 109.342922 259.600906 
L 109.852795 259.600906 
L 111.137856 259.045119 
L 111.675501 256.821972 
L 112.722379 256.821972 
L 114.247933 260.712479 
L 114.346912 256.821972 
L 115.517546 256.266186 
L 118.564162 256.266186 
L 119.367763 255.710399 
L 120.561419 255.710399 
L 120.881378 254.598826 
L 128.321463 254.598826 
L 128.864116 253.487252 
L 128.891931 252.375679 
L 131.234781 252.375679 
L 134.689424 251.264106 
L 136.501646 251.264106 
L 136.529076 250.708319 
L 140.690909 250.708319 
L 141.723322 247.929386 
L 144.990662 247.929386 
L 145.013342 247.373599 
L 163.312081 247.373599 
L 166.732575 246.817812 
L 166.849356 247.373599 
L 170.396859 246.817812 
L 182.74187 246.817812 
L 188.725339 246.262026 
L 188.840922 245.706239 
L 189.12515 245.150452 
L 192.500627 245.150452 
L 193.937258 244.594666 
L 199.861759 244.594666 
L 200.086677 247.373599 
L 200.097718 245.150452 
L 200.385754 245.150452 
L 201.816053 242.927306 
L 208.818883 242.927306 
L 214.185883 242.371519 
L 220.150951 242.371519 
L 220.412713 241.815732 
L 235.912905 241.815732 
L 236.574435 241.259946 
L 240.338083 241.259946 
L 240.364614 240.148372 
L 247.535705 240.148372 
L 247.681157 236.257866 
L 260.660439 236.257866 
L 260.664333 235.702079 
L 261.040223 235.702079 
L 262.379459 235.146292 
L 264.338545 235.146292 
L 264.86729 234.590506 
L 264.920181 235.146292 
L 266.130954 234.590506 
L 266.136474 234.034719 
L 266.16476 234.590506 
L 266.864161 234.034719 
L 273.235246 234.034719 
L 275.21607 233.478932 
L 277.566494 233.478932 
L 281.558655 232.923146 
L 285.337965 232.923146 
L 288.257872 231.811572 
L 294.647913 231.811572 
L 298.365046 230.699999 
L 299.412351 231.255786 
L 304.600478 231.255786 
L 310.452916 229.032639 
L 319.1811 229.032639 
L 321.888028 228.476852 
L 370.128719 228.476852 
L 370.518302 227.921066 
L 388.110579 227.921066 
L 388.404521 227.365279 
L 418.339497 227.365279 
L 424.931092 226.809492 
L 424.96922 227.365279 
L 429.687827 225.697919 
L 436.612646 225.697919 
L 440.393839 225.142132 
L 440.400044 224.586346 
L 448.289537 224.586346 
L 451.121163 225.142132 
L 452.13907 224.586346 
L 465.342542 224.586346 
L 465.904451 225.142132 
L 466.933783 224.586346 
L 467.287506 222.363199 
L 473.338245 222.363199 
L 473.343466 221.807412 
L 491.858607 221.807412 
L 492.936808 221.251626 
L 496.495095 221.251626 
L 496.842228 220.695839 
L 514.193625 220.695839 
L 514.217204 220.140052 
L 518.557054 220.140052 
L 518.563515 219.584266 
L 519.616597 219.584266 
L 519.671586 219.028479 
L 521.306903 219.028479 
L 521.56383 218.472692 
L 525.063919 218.472692 
L 525.595958 217.361119 
L 527.522779 215.137972 
L 532.182161 215.137972 
L 532.52617 212.359039 
L 534.088569 212.359039 
L 534.855369 211.247466 
L 538.806662 211.247466 
L 540.103191 210.691679 
L 543.814504 210.691679 
L 544.311925 210.135892 
L 554.392182 210.135892 
L 554.64055 209.580106 
L 555.572872 209.580106 
L 557.02033 209.024319 
L 573.324465 209.024319 
L 573.470944 208.468532 
L 573.993698 208.468532 
L 575.084993 207.356959 
L 576.614998 207.356959 
L 576.982886 206.801172 
L 577.337337 206.801172 
L 577.471834 206.245386 
L 581.563487 206.245386 
L 582.260064 205.689599 
L 585.821517 205.689599 
L 586.049858 205.133812 
L 588.000685 205.133812 
L 588.125683 204.578026 
L 594.188404 204.578026 
L 594.31875 204.022239 
L 597.854613 204.022239 
L 598.841153 202.354879 
L 599.035602 201.799092 
L 600.344969 201.799092 
L 600.346338 201.243306 
L 605.662885 201.243306 
L 606.637571 200.687519 
L 610.708384 200.687519 
L 611.510188 200.131732 
L 611.81179 200.131732 
L 612.595236 199.575946 
L 614.596473 199.575946 
L 614.827767 199.020159 
L 619.846863 199.020159 
L 621.14061 198.464372 
L 621.23484 197.908586 
L 621.653693 197.908586 
L 622.975726 195.685439 
L 627.075724 195.685439 
L 627.105251 195.129652 
L 631.007247 195.129652 
L 631.234133 194.573866 
L 631.822659 194.573866 
L 632.268857 194.018079 
L 632.361931 194.573866 
L 632.696056 194.018079 
L 634.180529 194.018079 
L 634.194736 193.462292 
L 634.588941 193.462292 
L 634.761567 192.906506 
L 635.954366 192.350719 
L 644.253383 192.350719 
L 645.550511 191.794932 
L 646.418815 191.794932 
L 647.123266 191.239146 
L 647.835891 191.794932 
L 650.770048 191.794932 
L 650.896586 190.683359 
L 655.108785 190.683359 
L 656.743118 189.015999 
L 674.482644 189.015999 
L 675.513645 188.460212 
L 702.895575 188.460212 
L 702.943075 187.904426 
L 743.29868 187.904426 
L 743.475927 187.348639 
L 743.488637 186.792852 
L 743.50126 187.348639 
L 749.365424 187.348639 
L 750.689468 186.792852 
L 773.792271 186.792852 
L 778.54631 186.237066 
L 778.592526 185.681279 
L 778.986089 185.681279 
L 780.218857 185.125492 
L 812.012614 185.125492 
L 812.012614 185.125492 
" clip-path="url(#p2e6b3ca349)" style="fill: none; stroke: #3fb950; stroke-width: 2; stroke-linecap: square"/>
   </g>
   <g id="line2d_32">
    <path d="M 85.239886 455.237812 
L 85.35564 453.570452 
L 85.481579 453.570452 
L 85.577862 372.981386 
L 87.323755 372.981386 
L 87.359658 370.758239 
L 89.159385 370.758239 
L 89.623085 369.090879 
L 90.254019 370.758239 
L 90.258683 369.090879 
L 90.780752 369.090879 
L 90.982519 367.979306 
L 96.138209 367.979306 
L 96.14313 367.423519 
L 96.172143 367.979306 
L 96.425903 367.423519 
L 96.50032 367.979306 
L 96.698791 367.423519 
L 98.508018 367.423519 
L 98.602675 366.867732 
L 98.8605 366.311946 
L 100.903203 366.311946 
L 103.22778 365.756159 
L 103.3096 365.200372 
L 103.93788 364.644586 
L 103.951488 364.088799 
L 108.644633 367.979306 
L 109.342922 366.311946 
L 109.852795 363.533012 
L 112.722379 363.533012 
L 114.247933 367.979306 
L 114.346912 363.533012 
L 142.223738 363.533012 
L 143.079161 362.977226 
L 145.013342 362.977226 
L 150.295912 362.421439 
L 151.582684 361.865652 
L 169.917155 361.865652 
L 170.396859 361.309866 
L 172.861454 360.754079 
L 174.427918 360.754079 
L 176.164269 360.198292 
L 176.211041 359.086719 
L 177.404611 358.530932 
L 178.2068 357.975146 
L 189.257978 357.975146 
L 191.460939 357.419359 
L 192.126919 357.419359 
L 192.500627 356.863572 
L 193.937258 356.863572 
L 195.364518 356.307786 
L 199.861759 356.307786 
L 200.086677 358.530932 
L 200.097718 356.307786 
L 201.816053 356.307786 
L 201.988549 355.751999 
L 204.420793 355.751999 
L 206.813795 355.196212 
L 206.871865 354.640426 
L 214.185883 354.640426 
L 217.270841 354.084639 
L 217.278629 353.528852 
L 227.544392 353.528852 
L 231.826643 352.973066 
L 235.039423 352.973066 
L 235.912905 352.417279 
L 240.816974 352.417279 
L 243.614067 351.861492 
L 243.767393 351.305706 
L 246.494434 351.305706 
L 246.810928 350.749919 
L 247.681157 350.194132 
L 249.623811 350.194132 
L 250.850331 349.638346 
L 253.099123 349.638346 
L 254.566822 349.082559 
L 257.697868 349.082559 
L 258.764558 347.970986 
L 266.864161 347.970986 
L 269.170851 347.415199 
L 271.875683 347.415199 
L 272.485648 346.859412 
L 272.672181 346.303626 
L 273.235246 345.747839 
L 282.549645 345.747839 
L 284.255014 345.192052 
L 285.337965 344.636266 
L 311.824546 344.636266 
L 317.770144 344.080479 
L 317.841179 343.524692 
L 321.888028 343.524692 
L 325.346951 342.968906 
L 331.460552 342.968906 
L 331.977144 342.413119 
L 342.388872 342.413119 
L 350.539228 341.857332 
L 350.617453 341.301546 
L 351.682988 341.301546 
L 353.841829 340.745759 
L 353.962247 339.078399 
L 354.057247 338.522612 
L 358.566684 337.966826 
L 358.836705 337.411039 
L 358.944328 336.299466 
L 359.35274 335.743679 
L 374.026907 335.743679 
L 378.195586 335.187892 
L 380.849238 334.632106 
L 382.928101 334.632106 
L 387.748126 334.076319 
L 388.110579 331.853172 
L 388.404521 331.853172 
L 388.686524 331.297386 
L 389.097546 330.741599 
L 398.240133 330.185812 
L 398.531123 329.630026 
L 398.616965 329.074239 
L 400.548492 329.074239 
L 402.372439 328.518452 
L 402.58208 327.962666 
L 402.724451 326.851092 
L 403.931757 326.295306 
L 404.020381 325.739519 
L 406.22317 325.183732 
L 409.118686 324.627946 
L 409.324604 324.072159 
L 409.328968 323.516372 
L 409.911375 322.960586 
L 410.014248 322.404799 
L 414.214466 321.849012 
L 414.967444 321.293226 
L 432.649628 321.293226 
L 435.581945 320.737439 
L 435.848799 320.181652 
L 447.83294 320.181652 
L 448.289537 319.070079 
L 453.282701 319.070079 
L 454.790197 318.514292 
L 454.863843 317.402719 
L 455.250944 316.846932 
L 457.814176 316.291146 
L 457.871903 315.735359 
L 458.181293 315.179572 
L 458.237308 313.512212 
L 458.498343 312.956426 
L 458.85151 312.956426 
L 458.864519 312.400639 
L 461.004361 311.844852 
L 461.845619 311.289066 
L 462.049184 310.733279 
L 465.904451 310.177492 
L 468.74562 310.177492 
L 469.732202 309.621706 
L 480.414294 309.621706 
L 483.953195 309.065919 
L 483.967274 308.510132 
L 484.603728 307.954346 
L 492.936808 307.954346 
L 495.274908 307.398559 
L 496.238082 306.842772 
L 496.495095 305.731199 
L 503.235692 305.731199 
L 503.694942 305.175412 
L 507.396413 305.175412 
L 509.168495 304.619626 
L 514.217204 304.619626 
L 517.269383 304.063839 
L 523.607774 304.063839 
L 524.386812 303.508052 
L 527.522779 303.508052 
L 528.376362 302.952266 
L 528.746646 302.396479 
L 528.929028 301.840692 
L 531.510403 301.840692 
L 531.583792 300.729119 
L 532.52617 300.729119 
L 533.144908 299.061759 
L 535.390362 299.061759 
L 535.669241 298.505972 
L 535.885728 298.505972 
L 536.960506 297.950186 
L 538.744057 297.950186 
L 538.806662 297.394399 
L 540.103191 297.394399 
L 540.418102 296.838612 
L 541.636705 296.838612 
L 543.502504 295.727039 
L 544.311925 295.727039 
L 547.442414 294.615466 
L 547.447121 294.059679 
L 548.044805 293.503892 
L 549.569761 292.948106 
L 549.806874 292.392319 
L 551.327294 291.836532 
L 553.812685 291.836532 
L 554.179246 291.280746 
L 554.392182 290.724959 
L 557.671718 290.724959 
L 557.757774 290.169172 
L 558.621328 290.169172 
L 558.687613 289.613386 
L 559.161498 289.057599 
L 560.810381 289.057599 
L 560.935806 288.501812 
L 561.21828 288.501812 
L 561.288459 287.946026 
L 561.40233 287.946026 
L 561.406182 287.390239 
L 563.724854 287.390239 
L 564.184018 286.834452 
L 564.569579 286.834452 
L 564.800016 286.278666 
L 565.3885 286.278666 
L 565.829092 285.722879 
L 565.921995 285.167092 
L 566.047933 285.167092 
L 568.262747 284.611306 
L 569.920146 284.611306 
L 570.045614 284.055519 
L 576.583632 284.055519 
L 576.614998 283.499732 
L 576.982886 283.499732 
L 577.337337 282.943946 
L 577.471834 282.943946 
L 577.714896 282.388159 
L 580.056718 282.388159 
L 580.261481 280.720799 
L 580.321219 279.609226 
L 580.707165 279.053439 
L 582.260064 279.053439 
L 582.992459 278.497652 
L 583.702344 278.497652 
L 583.931242 277.941866 
L 585.031652 277.386079 
L 586.049858 277.386079 
L 588.09684 276.830292 
L 588.125683 276.274506 
L 588.751224 276.274506 
L 588.854911 275.718719 
L 590.674578 275.718719 
L 590.725116 275.162932 
L 599.54984 275.162932 
L 599.616297 274.607146 
L 599.94871 274.607146 
L 600.065105 273.495572 
L 601.201419 273.495572 
L 601.29308 272.939786 
L 601.44324 272.939786 
L 602.23028 272.383999 
L 602.42811 271.828212 
L 602.789579 271.828212 
L 603.09546 271.272426 
L 603.195167 270.716639 
L 607.629374 270.716639 
L 608.748614 270.160852 
L 608.96968 269.049279 
L 609.242097 268.493492 
L 609.696854 268.493492 
L 609.974021 267.937706 
L 616.337617 267.937706 
L 616.590478 266.270346 
L 617.627213 266.270346 
L 617.754863 265.714559 
L 621.15255 265.714559 
L 621.23484 264.602986 
L 625.315623 264.602986 
L 625.357902 264.047199 
L 627.323707 264.047199 
L 627.33693 263.491412 
L 628.294199 263.491412 
L 628.320089 262.935626 
L 631.234133 262.935626 
L 631.379072 262.379839 
L 631.563722 262.379839 
L 631.822659 261.824052 
L 632.34828 261.824052 
L 632.361931 261.268266 
L 632.696056 261.268266 
L 633.333451 260.712479 
L 638.481737 260.712479 
L 638.855916 260.156692 
L 640.383481 260.156692 
L 640.386306 259.600906 
L 652.065507 259.600906 
L 654.047787 259.045119 
L 654.105257 258.489332 
L 655.108785 257.933546 
L 656.634725 257.933546 
L 656.743118 256.821972 
L 657.01913 256.821972 
L 657.134028 256.266186 
L 661.186655 256.266186 
L 661.918493 255.710399 
L 668.92847 255.710399 
L 668.950037 255.154612 
L 671.239568 255.154612 
L 672.218019 254.598826 
L 682.994212 254.598826 
L 683.128709 253.487252 
L 687.366798 253.487252 
L 688.209769 252.931466 
L 689.112478 252.931466 
L 690.216012 252.375679 
L 697.510389 252.375679 
L 698.208891 251.819892 
L 698.814149 251.819892 
L 699.110916 251.264106 
L 701.434637 250.708319 
L 702.572149 250.708319 
L 702.943075 250.152532 
L 703.063793 250.152532 
L 706.328394 249.596746 
L 712.339165 249.596746 
L 712.80954 249.040959 
L 736.009482 249.040959 
L 736.85716 248.485172 
L 742.222191 248.485172 
L 742.416084 247.929386 
L 742.764587 247.929386 
L 742.869642 247.373599 
L 772.831064 247.373599 
L 773.792271 246.817812 
L 780.946031 246.817812 
L 782.500043 246.262026 
L 782.6042 245.706239 
L 786.326253 245.706239 
L 786.480692 245.150452 
L 798.53681 245.150452 
L 798.561501 244.594666 
L 808.738855 244.594666 
L 808.848404 244.038879 
L 809.50942 243.483092 
L 812.006879 243.483092 
L 812.012614 242.927306 
L 812.012614 242.927306 
" clip-path="url(#p2e6b3ca349)" style="fill: none; stroke: #58a6ff; stroke-width: 2; stroke-linecap: square"/>
   </g>
   <g id="line2d_33">
    <path d="M 85.239886 455.237812 
L 88.793038 455.237812 
L 88.806646 454.126239 
L 91.73999 454.126239 
L 92.40995 453.570452 
L 273.235246 453.570452 
L 275.21607 453.014666 
L 325.346951 453.014666 
L 326.73818 452.458879 
L 374.026907 452.458879 
L 378.195586 451.903092 
L 389.097546 451.903092 
L 398.616965 450.235732 
L 400.548492 449.124159 
L 404.020381 449.124159 
L 406.22317 448.568372 
L 409.328968 448.012586 
L 410.014248 448.012586 
L 414.214466 447.456799 
L 414.967444 446.901012 
L 418.339497 446.345226 
L 424.931092 445.789439 
L 424.96922 446.345226 
L 435.848799 446.345226 
L 436.612646 445.789439 
L 452.13907 445.789439 
L 453.282701 445.233652 
L 458.498343 445.233652 
L 458.864519 444.677866 
L 465.342542 444.677866 
L 465.904451 444.122079 
L 489.635705 444.122079 
L 491.858607 443.566292 
L 492.792854 443.566292 
L 492.936808 443.010506 
L 499.270491 443.010506 
L 499.276525 442.454719 
L 514.193625 442.454719 
L 514.217204 441.898932 
L 518.563515 441.898932 
L 519.671586 441.343146 
L 521.304036 440.787359 
L 521.306903 440.231572 
L 521.56383 440.231572 
L 523.607774 438.564212 
L 524.984667 438.564212 
L 525.063919 436.896852 
L 525.595958 436.896852 
L 527.522779 437.452639 
L 528.908487 437.452639 
L 528.929028 435.229492 
L 534.088569 435.229492 
L 534.855369 434.673706 
L 535.669241 434.673706 
L 535.885728 434.117919 
L 554.392182 434.117919 
L 554.64055 433.562132 
L 555.572872 433.562132 
L 557.02033 433.006346 
L 563.406306 433.006346 
L 563.724854 432.450559 
L 565.921995 432.450559 
L 566.047933 431.894772 
L 573.324465 431.894772 
L 573.470944 431.338986 
L 573.993698 431.338986 
L 574.523897 430.783199 
L 575.053584 430.783199 
L 575.084993 430.227412 
L 577.337337 430.227412 
L 577.471834 429.671626 
L 587.928152 429.671626 
L 588.000685 429.115839 
L 588.125683 429.115839 
L 588.233006 428.560052 
L 588.854911 428.560052 
L 590.158629 428.004266 
L 595.255607 428.004266 
L 595.2601 427.448479 
L 596.234016 427.448479 
L 596.271074 426.892692 
L 599.035602 426.892692 
L 599.616297 426.336906 
L 603.300436 426.336906 
L 604.368967 425.781119 
L 606.447016 425.781119 
L 606.469054 424.669546 
L 606.637571 424.669546 
L 606.849651 424.113759 
L 610.192563 424.113759 
L 610.708384 423.557972 
L 611.510188 423.557972 
L 611.81179 423.002186 
L 613.768865 423.002186 
L 614.042138 422.446399 
L 614.045647 421.890612 
L 614.596473 421.890612 
L 614.827767 421.334826 
L 635.909605 421.334826 
L 635.954366 420.223252 
L 638.855916 420.223252 
L 639.691012 419.667466 
L 640.386306 419.667466 
L 643.647997 419.111679 
L 644.253383 419.111679 
L 645.550511 418.555892 
L 646.418815 418.555892 
L 647.123266 418.000106 
L 647.835891 418.555892 
L 650.129957 418.555892 
L 650.753787 418.000106 
L 650.896586 416.888532 
L 652.057676 416.332746 
L 652.065507 415.221172 
L 657.134028 415.221172 
L 658.242484 414.665386 
L 658.354815 412.998026 
L 659.462714 412.442239 
L 660.075418 411.886452 
L 665.315708 411.886452 
L 665.538059 410.219092 
L 665.805341 410.219092 
L 666.003513 409.663306 
L 667.284209 409.107519 
L 669.300123 409.107519 
L 669.715425 408.551732 
L 669.809911 407.995946 
L 670.02182 407.995946 
L 671.239568 406.884372 
L 672.54427 406.884372 
L 672.972666 406.328586 
L 674.47768 406.328586 
L 674.482644 405.217012 
L 675.513645 405.217012 
L 676.882365 404.661226 
L 680.508564 403.549652 
L 680.832289 402.993866 
L 688.209769 402.993866 
L 689.112478 401.882292 
L 702.895575 401.882292 
L 703.063793 400.770719 
L 709.772596 400.770719 
L 710.797648 400.214932 
L 713.908282 400.214932 
L 714.082876 399.659146 
L 733.219835 399.659146 
L 733.525289 399.103359 
L 735.420828 399.103359 
L 736.009482 398.547572 
L 739.547143 398.547572 
L 740.212481 397.991786 
L 740.216846 397.435999 
L 740.977783 396.880212 
L 743.29868 396.880212 
L 743.475927 396.324426 
L 743.488637 395.212852 
L 743.50126 395.768639 
L 745.060878 395.212852 
L 750.689468 395.212852 
L 751.799721 394.101279 
L 761.955465 394.101279 
L 762.740665 393.545492 
L 765.204361 393.545492 
L 765.401592 392.989706 
L 765.428723 392.433919 
L 773.792271 392.433919 
L 778.986089 391.322346 
L 780.218857 391.322346 
L 780.946031 390.766559 
L 791.704422 390.766559 
L 793.026797 390.210772 
L 794.665367 390.210772 
L 796.252329 389.654986 
L 809.50942 389.654986 
L 809.873243 389.099199 
L 809.875211 388.543412 
L 812.012614 388.543412 
L 812.012614 388.543412 
" clip-path="url(#p2e6b3ca349)" style="fill: none; stroke: #d29922; stroke-width: 2; stroke-linecap: square"/>
   </g>
   <g id="line2d_34">
    <path d="M 85.239886 454.682026 
L 85.543799 454.682026 
L 85.678382 432.450559 
L 86.38172 426.892692 
L 86.783628 425.781119 
L 86.987534 426.336906 
L 87.359658 425.781119 
L 87.989009 425.225332 
L 88.425664 424.113759 
L 88.793038 423.557972 
L 88.806646 423.002186 
L 89.159385 421.334826 
L 89.623085 421.334826 
L 90.254019 420.779039 
L 90.258683 420.223252 
L 90.766673 419.667466 
L 90.780752 419.111679 
L 90.982519 419.111679 
L 91.73999 418.555892 
L 92.281188 418.000106 
L 92.40995 411.886452 
L 92.499002 412.442239 
L 92.71673 408.551732 
L 93.084575 402.993866 
L 96.14313 402.993866 
L 96.172143 402.438079 
L 96.425903 399.659146 
L 96.50032 402.438079 
L 96.845099 397.991786 
L 97.015842 397.435999 
L 98.287936 396.880212 
L 98.326321 396.324426 
L 98.602675 395.768639 
L 98.8605 395.768639 
L 99.515611 395.212852 
L 99.865569 394.657066 
L 100.008325 394.101279 
L 100.120484 392.989706 
L 100.447419 392.433919 
L 100.455507 391.878132 
L 100.784325 392.433919 
L 100.877913 391.878132 
L 100.889424 392.433919 
L 100.903203 390.766559 
L 103.951488 390.766559 
L 108.644633 402.993866 
L 109.342922 390.210772 
L 109.706873 389.654986 
L 111.675501 389.654986 
L 112.008898 389.099199 
L 112.722379 388.543412 
L 114.247933 402.993866 
L 114.346912 387.987626 
L 115.517546 387.431839 
L 118.020953 386.876052 
L 118.199483 387.431839 
L 118.526804 386.320266 
L 118.564162 385.764479 
L 119.367763 385.764479 
L 119.611937 385.208692 
L 120.073113 384.652906 
L 120.111369 383.541332 
L 120.53677 382.429759 
L 120.561419 382.985546 
L 120.814451 382.985546 
L 120.953184 381.873972 
L 121.380254 379.650826 
L 121.436398 378.539252 
L 121.984314 376.871892 
L 122.25211 377.983466 
L 124.145595 374.648746 
L 124.644171 375.760319 
L 126.695988 373.537172 
L 128.321463 377.427679 
L 128.891931 373.537172 
L 131.234781 371.869812 
L 134.689424 371.869812 
L 135.145678 371.314026 
L 135.508773 369.646666 
L 136.529076 371.314026 
L 140.690909 371.869812 
L 141.723322 369.646666 
L 142.223738 367.979306 
L 143.079161 369.646666 
L 145.013342 367.979306 
L 151.582684 367.979306 
L 158.490387 367.423519 
L 158.951049 366.867732 
L 163.312081 366.311946 
L 166.195786 366.311946 
L 166.732575 365.756159 
L 166.849356 366.311946 
L 169.917155 364.644586 
L 172.794655 364.644586 
L 172.861454 364.088799 
L 174.427918 363.533012 
L 178.2068 363.533012 
L 179.873742 359.642506 
L 181.114426 359.086719 
L 182.710888 358.530932 
L 182.74187 357.975146 
L 188.725339 357.975146 
L 188.840922 354.084639 
L 189.062373 354.084639 
L 189.257978 352.973066 
L 191.460939 352.973066 
L 192.126919 352.417279 
L 195.364518 352.417279 
L 199.861759 351.861492 
L 200.086677 363.533012 
L 200.097718 352.417279 
L 200.385754 351.861492 
L 201.988549 351.861492 
L 204.420793 351.305706 
L 206.871865 351.305706 
L 208.818883 350.749919 
L 214.185883 349.638346 
L 217.278629 349.638346 
L 219.764192 349.082559 
L 220.150951 346.303626 
L 220.412713 346.303626 
L 220.8759 345.747839 
L 223.291925 345.192052 
L 223.850411 342.968906 
L 227.189556 341.857332 
L 227.229782 342.413119 
L 227.544392 341.857332 
L 231.826643 340.745759 
L 235.039423 340.189972 
L 236.574435 340.189972 
L 237.934981 339.634186 
L 239.114045 338.522612 
L 240.364614 337.966826 
L 240.816974 337.411039 
L 243.767393 337.966826 
L 246.494434 336.855252 
L 246.810928 337.411039 
L 247.535705 337.411039 
L 247.681157 336.855252 
L 249.623811 336.299466 
L 250.850331 336.855252 
L 253.099123 335.743679 
L 254.566822 335.743679 
L 257.697868 335.187892 
L 258.21707 335.743679 
L 258.764558 334.076319 
L 260.664333 334.076319 
L 261.040223 333.520532 
L 262.379459 331.853172 
L 262.676097 331.297386 
L 263.138299 330.185812 
L 264.338545 330.741599 
L 264.86729 329.630026 
L 264.920181 329.074239 
L 269.170851 329.074239 
L 271.323702 328.518452 
L 271.875683 327.962666 
L 275.21607 327.962666 
L 277.566494 327.406879 
L 281.558655 327.406879 
L 282.549645 326.851092 
L 293.52739 326.851092 
L 294.157853 326.295306 
L 294.221015 325.739519 
L 294.647913 325.183732 
L 299.412351 325.183732 
L 299.709288 324.627946 
L 300.921473 324.072159 
L 301.131413 323.516372 
L 303.139754 322.960586 
L 304.600478 322.404799 
L 310.452916 322.404799 
L 311.824546 321.293226 
L 317.841179 321.293226 
L 319.1811 320.737439 
L 324.78838 320.737439 
L 325.346951 320.181652 
L 326.73818 319.625866 
L 327.152326 319.070079 
L 327.292942 318.514292 
L 331.460552 317.958506 
L 331.977144 318.514292 
L 337.463535 317.402719 
L 341.801373 316.291146 
L 342.388872 315.735359 
L 350.617453 315.735359 
L 351.682988 315.179572 
L 359.35274 315.179572 
L 366.577493 314.623786 
L 367.486236 314.067999 
L 370.518302 313.512212 
L 373.558927 312.956426 
L 374.026907 312.400639 
L 380.849238 312.400639 
L 382.928101 311.844852 
L 398.616965 311.844852 
L 400.548492 311.289066 
L 413.507918 311.289066 
L 414.214466 310.733279 
L 414.967444 311.289066 
L 418.339497 310.733279 
L 429.687827 310.733279 
L 431.208588 310.177492 
L 455.215512 310.177492 
L 455.250944 309.621706 
L 470.077624 309.621706 
L 473.335121 309.065919 
L 473.343466 308.510132 
L 489.628473 308.510132 
L 489.635705 307.398559 
L 499.276525 307.398559 
L 503.694942 306.842772 
L 509.168495 306.842772 
L 514.217204 305.731199 
L 524.386812 305.731199 
L 524.984667 305.175412 
L 525.063919 304.619626 
L 528.908487 304.619626 
L 528.929028 304.063839 
L 529.32824 304.063839 
L 529.964608 303.508052 
L 535.669241 303.508052 
L 535.885728 302.952266 
L 543.502504 302.952266 
L 543.814504 302.396479 
L 562.415915 302.396479 
L 563.404894 300.729119 
L 563.406306 300.173332 
L 566.041642 300.173332 
L 566.047933 299.617546 
L 573.821244 299.617546 
L 573.993698 299.061759 
L 577.714896 299.061759 
L 577.848579 298.505972 
L 591.672629 298.505972 
L 591.938457 297.950186 
L 595.147214 297.950186 
L 595.2601 297.394399 
L 596.271074 296.838612 
L 621.653693 296.838612 
L 622.975726 295.727039 
L 624.954625 295.727039 
L 625.357902 295.171252 
L 627.33693 295.171252 
L 627.63023 294.615466 
L 632.306044 294.615466 
L 632.361931 294.059679 
L 658.240302 294.059679 
L 658.354815 292.948106 
L 690.701751 292.948106 
L 691.541854 292.392319 
L 746.770612 292.392319 
L 749.365424 291.836532 
L 772.705511 291.836532 
L 772.831064 291.280746 
L 783.280365 291.280746 
L 783.78827 290.724959 
L 812.012614 290.724959 
L 812.012614 290.724959 
" clip-path="url(#p2e6b3ca349)" style="fill: none; stroke: #f85149; stroke-width: 2; stroke-linecap: square"/>
   </g>
   <g id="line2d_35">
    <path d="M 85.239886 454.682026 
L 85.264064 454.126239 
L 85.454687 -1 
M 85.626018 -1 
L 85.678382 101.201706 
L 88.793038 101.201706 
L 88.806646 97.866986 
L 92.40995 97.866986 
L 92.58433 98.422772 
L 93.084575 98.422772 
L 93.489992 98.978559 
L 96.002129 99.534346 
L 96.051725 98.978559 
L 96.172143 99.534346 
L 103.951488 99.534346 
L 108.644633 98.422772 
L 109.342922 99.534346 
L 109.706873 98.978559 
L 109.852795 98.978559 
L 111.137856 99.534346 
L 111.675501 96.755412 
L 112.722379 96.755412 
L 114.247933 98.422772 
L 114.346912 95.643839 
L 115.517546 96.199626 
L 118.564162 96.199626 
L 119.367763 95.088052 
L 120.561419 95.088052 
L 120.881378 91.197546 
L 128.321463 91.197546 
L 128.864116 87.862826 
L 128.891931 86.751252 
L 131.234781 86.751252 
L 134.689424 82.860746 
L 136.501646 82.860746 
L 136.529076 83.416532 
L 140.690909 83.416532 
L 141.723322 80.081812 
L 144.990662 80.081812 
L 145.013342 80.637599 
L 163.312081 80.637599 
L 166.732575 81.193386 
L 166.849356 80.637599 
L 170.396859 81.193386 
L 182.74187 81.193386 
L 188.725339 81.749172 
L 188.840922 74.523946 
L 189.12515 75.079732 
L 192.500627 75.079732 
L 193.937258 75.635519 
L 199.861759 75.635519 
L 200.086677 80.637599 
L 200.097718 71.745012 
L 200.385754 71.745012 
L 201.816053 73.968159 
L 208.818883 73.968159 
L 214.185883 70.077652 
L 220.150951 70.077652 
L 220.412713 68.410292 
L 235.912905 68.410292 
L 236.574435 68.966079 
L 240.338083 68.966079 
L 240.364614 70.077652 
L 247.535705 70.077652 
L 247.681157 73.412372 
L 258.764558 73.412372 
L 259.029272 68.410292 
L 260.660439 67.298719 
L 260.664333 67.854506 
L 261.040223 67.854506 
L 262.379459 65.075572 
L 264.338545 65.075572 
L 264.86729 65.631359 
L 264.920181 65.075572 
L 266.130954 65.631359 
L 266.136474 66.187146 
L 266.16476 65.631359 
L 266.864161 63.408212 
L 273.235246 63.408212 
L 275.21607 63.963999 
L 277.566494 63.963999 
L 281.558655 64.519786 
L 285.337965 64.519786 
L 288.257872 65.631359 
L 294.221015 65.075572 
L 294.647913 65.075572 
L 298.365046 66.187146 
L 299.412351 65.631359 
L 304.600478 65.631359 
L 310.449749 67.854506 
L 310.452916 67.298719 
L 319.1811 67.298719 
L 321.888028 67.854506 
L 370.128719 67.854506 
L 370.518302 68.410292 
L 373.537232 68.410292 
L 373.558927 66.742932 
L 388.110579 66.742932 
L 388.404521 67.298719 
L 418.339497 67.298719 
L 424.931092 67.854506 
L 424.96922 67.298719 
L 429.687827 68.966079 
L 431.208588 68.966079 
L 432.649628 68.410292 
L 436.612646 68.410292 
L 440.393839 68.966079 
L 440.400044 69.521866 
L 451.121163 67.854506 
L 452.13907 68.410292 
L 465.342542 68.410292 
L 465.904451 67.854506 
L 466.933783 68.410292 
L 467.287506 70.633439 
L 473.338245 70.633439 
L 473.343466 71.189226 
L 491.858607 71.189226 
L 492.936808 71.745012 
L 496.495095 71.745012 
L 496.842228 72.300799 
L 514.193625 72.300799 
L 514.217204 72.856586 
L 517.269383 72.856586 
L 518.557054 73.412372 
L 518.563515 73.968159 
L 519.616597 73.412372 
L 519.671586 73.968159 
L 521.306903 73.968159 
L 521.56383 74.523946 
L 524.984667 74.523946 
L 525.063919 73.412372 
L 525.595958 74.523946 
L 527.522779 72.856586 
L 532.182161 72.856586 
L 532.52617 71.189226 
L 534.088569 71.189226 
L 534.855369 72.300799 
L 538.806662 72.300799 
L 540.103191 72.856586 
L 540.418102 72.856586 
L 541.636705 70.077652 
L 543.814504 70.077652 
L 544.311925 70.633439 
L 554.392182 70.633439 
L 554.64055 71.189226 
L 555.572872 71.189226 
L 557.02033 71.745012 
L 573.324465 71.745012 
L 573.470944 72.300799 
L 573.993698 72.300799 
L 575.084993 73.412372 
L 576.614998 73.412372 
L 576.982886 72.856586 
L 577.337337 72.856586 
L 577.471834 73.412372 
L 581.563487 73.412372 
L 582.260064 73.968159 
L 585.821517 73.968159 
L 586.049858 74.523946 
L 588.000685 74.523946 
L 588.125683 75.079732 
L 594.188404 75.079732 
L 594.31875 75.635519 
L 597.854613 75.635519 
L 598.841153 77.302879 
L 599.035602 77.858666 
L 600.344969 77.858666 
L 600.346338 78.414452 
L 605.662885 78.414452 
L 606.637571 78.970239 
L 610.708384 78.970239 
L 611.510188 79.526026 
L 614.596473 79.526026 
L 614.827767 80.081812 
L 619.846863 80.081812 
L 621.14061 80.637599 
L 621.23484 81.193386 
L 621.653693 81.193386 
L 622.975726 60.629279 
L 627.075724 60.629279 
L 627.105251 61.185066 
L 627.33693 61.185066 
L 627.63023 60.629279 
L 631.007247 60.629279 
L 631.234133 61.185066 
L 631.822659 61.185066 
L 632.268857 61.740852 
L 632.361931 61.185066 
L 634.180529 61.185066 
L 634.194736 61.740852 
L 634.588941 61.740852 
L 634.761567 62.296639 
L 635.954366 62.852426 
L 644.253383 62.852426 
L 645.550511 63.408212 
L 646.418815 63.408212 
L 647.123266 63.963999 
L 647.835891 63.408212 
L 650.770048 63.408212 
L 650.896586 64.519786 
L 655.108785 64.519786 
L 656.743118 66.187146 
L 674.482644 66.187146 
L 675.513645 66.742932 
L 702.895575 66.742932 
L 702.943075 67.298719 
L 743.29868 67.298719 
L 743.475927 67.854506 
L 743.488637 68.410292 
L 743.50126 67.854506 
L 749.365424 67.854506 
L 750.689468 68.410292 
L 773.792271 68.410292 
L 778.986089 68.966079 
L 780.20863 69.521866 
L 780.218857 67.854506 
L 812.012614 67.854506 
L 812.012614 67.854506 
" clip-path="url(#p2e6b3ca349)" style="fill: none; stroke: #9467bd; stroke-width: 2; stroke-linecap: square"/>
   </g>
   <g id="patch_3">
    <path d="M 48.90125 455.237812 
L 48.90125 38.397812 
" style="fill: none; stroke: #30363d; stroke-width: 0.8; stroke-linejoin: miter; stroke-linecap: square"/>
   </g>
   <g id="patch_4">
    <path d="M 848.35125 455.237812 
L 848.35125 38.397812 
" style="fill: none; stroke: #30363d; stroke-width: 0.8; stroke-linejoin: miter; stroke-linecap: square"/>
   </g>
   <g id="patch_5">
    <path d="M 48.90125 455.237812 
L 848.35125 455.237812 
" style="fill: none; stroke: #30363d; stroke-width: 0.8; stroke-linejoin: miter; stroke-linecap: square"/>
   </g>
   <g id="patch_6">
    <path d="M 48.90125 38.397812 
L 848.35125 38.397812 
" style="fill: none; stroke: #30363d; stroke-width: 0.8; stroke-linejoin: miter; stroke-linecap: square"/>
   </g>
   <g id="text_18">
    <!-- 486 -->
    <g style="fill: #3fb950" transform="translate(817.012614 187.60893) scale(0.09 -0.09)">
     <defs>
      <path id="DejaVuSans-Bold-34" d="M 2356 3675 
L 1038 1722 
L 2356 1722 
L 2356 3675 
z
M 2156 4666 
L 3494 4666 
L 3494 1722 
L 4159 1722 
L 4159 850 
L 3494 850 
L 3494 0 
L 2356 0 
L 2356 850 
L 288 850 
L 288 1881 
L 2156 4666 
z
" transform="scale(0.015625)"/>
      <path id="DejaVuSans-Bold-38" d="M 2228 2088 
Q 1891 2088 1709 1903 
Q 1528 1719 1528 1375 
Q 1528 1031 1709 848 
Q 1891 666 2228 666 
Q 2563 666 2741 848 
Q 2919 1031 2919 1375 
Q 2919 1722 2741 1905 
Q 2563 2088 2228 2088 
z
M 1350 2484 
Q 925 2613 709 2878 
Q 494 3144 494 3541 
Q 494 4131 934 4440 
Q 1375 4750 2228 4750 
Q 3075 4750 3515 4442 
Q 3956 4134 3956 3541 
Q 3956 3144 3739 2878 
Q 3522 2613 3097 2484 
Q 3572 2353 3814 2058 
Q 4056 1763 4056 1313 
Q 4056 619 3595 264 
Q 3134 -91 2228 -91 
Q 1319 -91 855 264 
Q 391 619 391 1313 
Q 391 1763 633 2058 
Q 875 2353 1350 2484 
z
M 1631 3419 
Q 1631 3141 1786 2991 
Q 1941 2841 2228 2841 
Q 2509 2841 2662 2991 
Q 2816 3141 2816 3419 
Q 2816 3697 2662 3845 
Q 2509 3994 2228 3994 
Q 1941 3994 1786 3844 
Q 1631 3694 1631 3419 
z
" transform="scale(0.015625)"/>
      <path id="DejaVuSans-Bold-36" d="M 2316 2303 
Q 2000 2303 1842 2098 
Q 1684 1894 1684 1484 
Q 1684 1075 1842 870 
Q 2000 666 2316 666 
Q 2634 666 2792 870 
Q 2950 1075 2950 1484 
Q 2950 1894 2792 2098 
Q 2634 2303 2316 2303 
z
M 3803 4544 
L 3803 3681 
Q 3506 3822 3243 3889 
Q 2981 3956 2731 3956 
Q 2194 3956 1894 3657 
Q 1594 3359 1544 2772 
Q 1750 2925 1990 3001 
Q 2231 3078 2516 3078 
Q 3231 3078 3670 2659 
Q 4109 2241 4109 1563 
Q 4109 813 3618 361 
Q 3128 -91 2303 -91 
Q 1394 -91 895 523 
Q 397 1138 397 2266 
Q 397 3422 980 4083 
Q 1563 4744 2578 4744 
Q 2900 4744 3203 4694 
Q 3506 4644 3803 4544 
z
" transform="scale(0.015625)"/>
     </defs>
     <use xlink:href="#DejaVuSans-Bold-34"/>
     <use xlink:href="#DejaVuSans-Bold-38" transform="translate(69.580078 0)"/>
     <use xlink:href="#DejaVuSans-Bold-36" transform="translate(139.160156 0)"/>
    </g>
   </g>
   <g id="text_19">
    <!-- 382 -->
    <g style="fill: #58a6ff" transform="translate(817.012614 245.410743) scale(0.09 -0.09)">
     <defs>
      <path id="DejaVuSans-Bold-33" d="M 2981 2516 
Q 3453 2394 3698 2092 
Q 3944 1791 3944 1325 
Q 3944 631 3412 270 
Q 2881 -91 1863 -91 
Q 1503 -91 1142 -33 
Q 781 25 428 141 
L 428 1069 
Q 766 900 1098 814 
Q 1431 728 1753 728 
Q 2231 728 2486 893 
Q 2741 1059 2741 1369 
Q 2741 1688 2480 1852 
Q 2219 2016 1709 2016 
L 1228 2016 
L 1228 2791 
L 1734 2791 
Q 2188 2791 2409 2933 
Q 2631 3075 2631 3366 
Q 2631 3634 2415 3781 
Q 2200 3928 1806 3928 
Q 1516 3928 1219 3862 
Q 922 3797 628 3669 
L 628 4550 
Q 984 4650 1334 4700 
Q 1684 4750 2022 4750 
Q 2931 4750 3382 4451 
Q 3834 4153 3834 3553 
Q 3834 3144 3618 2883 
Q 3403 2622 2981 2516 
z
" transform="scale(0.015625)"/>
      <path id="DejaVuSans-Bold-32" d="M 1844 884 
L 3897 884 
L 3897 0 
L 506 0 
L 506 884 
L 2209 2388 
Q 2438 2594 2547 2791 
Q 2656 2988 2656 3200 
Q 2656 3528 2436 3728 
Q 2216 3928 1850 3928 
Q 1569 3928 1234 3808 
Q 900 3688 519 3450 
L 519 4475 
Q 925 4609 1322 4679 
Q 1719 4750 2100 4750 
Q 2938 4750 3402 4381 
Q 3866 4013 3866 3353 
Q 3866 2972 3669 2642 
Q 3472 2313 2841 1759 
L 1844 884 
z
" transform="scale(0.015625)"/>
     </defs>
     <use xlink:href="#DejaVuSans-Bold-33"/>
     <use xlink:href="#DejaVuSans-Bold-38" transform="translate(69.580078 0)"/>
     <use xlink:href="#DejaVuSans-Bold-32" transform="translate(139.160156 0)"/>
    </g>
   </g>
   <g id="text_20">
    <!-- 120 -->
    <g style="fill: #d29922" transform="translate(817.012614 391.02685) scale(0.09 -0.09)">
     <defs>
      <path id="DejaVuSans-Bold-31" d="M 750 831 
L 1813 831 
L 1813 3847 
L 722 3622 
L 722 4441 
L 1806 4666 
L 2950 4666 
L 2950 831 
L 4013 831 
L 4013 0 
L 750 0 
L 750 831 
z
" transform="scale(0.015625)"/>
      <path id="DejaVuSans-Bold-30" d="M 2944 2338 
Q 2944 3213 2780 3570 
Q 2616 3928 2228 3928 
Q 1841 3928 1675 3570 
Q 1509 3213 1509 2338 
Q 1509 1453 1675 1090 
Q 1841 728 2228 728 
Q 2613 728 2778 1090 
Q 2944 1453 2944 2338 
z
M 4147 2328 
Q 4147 1169 3647 539 
Q 3147 -91 2228 -91 
Q 1306 -91 806 539 
Q 306 1169 306 2328 
Q 306 3491 806 4120 
Q 1306 4750 2228 4750 
Q 3147 4750 3647 4120 
Q 4147 3491 4147 2328 
z
" transform="scale(0.015625)"/>
     </defs>
     <use xlink:href="#DejaVuSans-Bold-31"/>
     <use xlink:href="#DejaVuSans-Bold-32" transform="translate(69.580078 0)"/>
     <use xlink:href="#DejaVuSans-Bold-30" transform="translate(139.160156 0)"/>
    </g>
   </g>
   <g id="text_21">
    <!-- 296 -->
    <g style="fill: #f85149" transform="translate(817.012614 293.208397) scale(0.09 -0.09)">
     <defs>
      <path id="DejaVuSans-Bold-39" d="M 641 103 
L 641 966 
Q 928 831 1190 764 
Q 1453 697 1709 697 
Q 2247 697 2547 995 
Q 2847 1294 2900 1881 
Q 2688 1725 2447 1647 
Q 2206 1569 1925 1569 
Q 1209 1569 770 1986 
Q 331 2403 331 3084 
Q 331 3838 820 4291 
Q 1309 4744 2131 4744 
Q 3044 4744 3544 4128 
Q 4044 3513 4044 2388 
Q 4044 1231 3459 570 
Q 2875 -91 1856 -91 
Q 1528 -91 1228 -42 
Q 928 6 641 103 
z
M 2125 2350 
Q 2441 2350 2600 2554 
Q 2759 2759 2759 3169 
Q 2759 3575 2600 3781 
Q 2441 3988 2125 3988 
Q 1809 3988 1650 3781 
Q 1491 3575 1491 3169 
Q 1491 2759 1650 2554 
Q 1809 2350 2125 2350 
z
" transform="scale(0.015625)"/>
     </defs>
     <use xlink:href="#DejaVuSans-Bold-32"/>
     <use xlink:href="#DejaVuSans-Bold-39" transform="translate(69.580078 0)"/>
     <use xlink:href="#DejaVuSans-Bold-36" transform="translate(139.160156 0)"/>
    </g>
   </g>
   <g id="text_22">
    <!-- 697 -->
    <g style="fill: #9467bd" transform="translate(817.012614 70.337943) scale(0.09 -0.09)">
     <defs>
      <path id="DejaVuSans-Bold-37" d="M 428 4666 
L 3944 4666 
L 3944 3988 
L 2125 0 
L 953 0 
L 2675 3781 
L 428 3781 
L 428 4666 
z
" transform="scale(0.015625)"/>
     </defs>
     <use xlink:href="#DejaVuSans-Bold-36"/>
     <use xlink:href="#DejaVuSans-Bold-39" transform="translate(69.580078 0)"/>
     <use xlink:href="#DejaVuSans-Bold-37" transform="translate(139.160156 0)"/>
    </g>
   </g>
   <g id="text_23">
    <!-- Erdős Problems Progress -->
    <g style="fill: #c9d1d9" transform="translate(349.588281 18.397812) scale(0.14 -0.14)">
     <defs>
      <path id="DejaVuSans-Bold-45" d="M 588 4666 
L 3834 4666 
L 3834 3756 
L 1791 3756 
L 1791 2888 
L 3713 2888 
L 3713 1978 
L 1791 1978 
L 1791 909 
L 3903 909 
L 3903 0 
L 588 0 
L 588 4666 
z
" transform="scale(0.015625)"/>
      <path id="DejaVuSans-Bold-72" d="M 3138 2547 
Q 2991 2616 2845 2648 
Q 2700 2681 2553 2681 
Q 2122 2681 1889 2404 
Q 1656 2128 1656 1613 
L 1656 0 
L 538 0 
L 538 3500 
L 1656 3500 
L 1656 2925 
Q 1872 3269 2151 3426 
Q 2431 3584 2822 3584 
Q 2878 3584 2943 3579 
Q 3009 3575 3134 3559 
L 3138 2547 
z
" transform="scale(0.015625)"/>
      <path id="DejaVuSans-Bold-64" d="M 2919 2988 
L 2919 4863 
L 4044 4863 
L 4044 0 
L 2919 0 
L 2919 506 
Q 2688 197 2409 53 
Q 2131 -91 1766 -91 
Q 1119 -91 703 423 
Q 288 938 288 1747 
Q 288 2556 703 3070 
Q 1119 3584 1766 3584 
Q 2128 3584 2408 3439 
Q 2688 3294 2919 2988 
z
M 2181 722 
Q 2541 722 2730 984 
Q 2919 1247 2919 1747 
Q 2919 2247 2730 2509 
Q 2541 2772 2181 2772 
Q 1825 2772 1636 2509 
Q 1447 2247 1447 1747 
Q 1447 1247 1636 984 
Q 1825 722 2181 722 
z
" transform="scale(0.015625)"/>
      <path id="DejaVuSans-Bold-151" d="M 1881 5119 
L 2560 5119 
L 1785 3944 
L 1275 3944 
L 1881 5119 
z
M 3016 5119 
L 3738 5119 
L 2888 3944 
L 2344 3944 
L 3016 5119 
z
M 2203 2784 
Q 1831 2784 1636 2517 
Q 1441 2250 1441 1747 
Q 1441 1244 1636 976 
Q 1831 709 2203 709 
Q 2569 709 2762 976 
Q 2956 1244 2956 1747 
Q 2956 2250 2762 2517 
Q 2569 2784 2203 2784 
z
M 2203 3584 
Q 3106 3584 3614 3096 
Q 4122 2609 4122 1747 
Q 4122 884 3614 396 
Q 3106 -91 2203 -91 
Q 1297 -91 786 396 
Q 275 884 275 1747 
Q 275 2609 786 3096 
Q 1297 3584 2203 3584 
z
" transform="scale(0.015625)"/>
      <path id="DejaVuSans-Bold-73" d="M 3272 3391 
L 3272 2541 
Q 2913 2691 2578 2766 
Q 2244 2841 1947 2841 
Q 1628 2841 1473 2761 
Q 1319 2681 1319 2516 
Q 1319 2381 1436 2309 
Q 1553 2238 1856 2203 
L 2053 2175 
Q 2913 2066 3209 1816 
Q 3506 1566 3506 1031 
Q 3506 472 3093 190 
Q 2681 -91 1863 -91 
Q 1516 -91 1145 -36 
Q 775 19 384 128 
L 384 978 
Q 719 816 1070 734 
Q 1422 653 1784 653 
Q 2113 653 2278 743 
Q 2444 834 2444 1013 
Q 2444 1163 2330 1236 
Q 2216 1309 1875 1350 
L 1678 1375 
Q 931 1469 631 1722 
Q 331 1975 331 2491 
Q 331 3047 712 3315 
Q 1094 3584 1881 3584 
Q 2191 3584 2531 3537 
Q 2872 3491 3272 3391 
z
" transform="scale(0.015625)"/>
      <path id="DejaVuSans-Bold-20" transform="scale(0.015625)"/>
      <path id="DejaVuSans-Bold-50" d="M 588 4666 
L 2584 4666 
Q 3475 4666 3951 4270 
Q 4428 3875 4428 3144 
Q 4428 2409 3951 2014 
Q 3475 1619 2584 1619 
L 1791 1619 
L 1791 0 
L 588 0 
L 588 4666 
z
M 1791 3794 
L 1791 2491 
L 2456 2491 
Q 2806 2491 2997 2661 
Q 3188 2831 3188 3144 
Q 3188 3456 2997 3625 
Q 2806 3794 2456 3794 
L 1791 3794 
z
" transform="scale(0.015625)"/>
      <path id="DejaVuSans-Bold-6f" d="M 2203 2784 
Q 1831 2784 1636 2517 
Q 1441 2250 1441 1747 
Q 1441 1244 1636 976 
Q 1831 709 2203 709 
Q 2569 709 2762 976 
Q 2956 1244 2956 1747 
Q 2956 2250 2762 2517 
Q 2569 2784 2203 2784 
z
M 2203 3584 
Q 3106 3584 3614 3096 
Q 4122 2609 4122 1747 
Q 4122 884 3614 396 
Q 3106 -91 2203 -91 
Q 1297 -91 786 396 
Q 275 884 275 1747 
Q 275 2609 786 3096 
Q 1297 3584 2203 3584 
z
" transform="scale(0.015625)"/>
      <path id="DejaVuSans-Bold-62" d="M 2400 722 
Q 2759 722 2948 984 
Q 3138 1247 3138 1747 
Q 3138 2247 2948 2509 
Q 2759 2772 2400 2772 
Q 2041 2772 1848 2508 
Q 1656 2244 1656 1747 
Q 1656 1250 1848 986 
Q 2041 722 2400 722 
z
M 1656 2988 
Q 1888 3294 2169 3439 
Q 2450 3584 2816 3584 
Q 3463 3584 3878 3070 
Q 4294 2556 4294 1747 
Q 4294 938 3878 423 
Q 3463 -91 2816 -91 
Q 2450 -91 2169 54 
Q 1888 200 1656 506 
L 1656 0 
L 538 0 
L 538 4863 
L 1656 4863 
L 1656 2988 
z
" transform="scale(0.015625)"/>
      <path id="DejaVuSans-Bold-6c" d="M 538 4863 
L 1656 4863 
L 1656 0 
L 538 0 
L 538 4863 
z
" transform="scale(0.015625)"/>
      <path id="DejaVuSans-Bold-65" d="M 4031 1759 
L 4031 1441 
L 1416 1441 
Q 1456 1047 1700 850 
Q 1944 653 2381 653 
Q 2734 653 3104 758 
Q 3475 863 3866 1075 
L 3866 213 
Q 3469 63 3072 -14 
Q 2675 -91 2278 -91 
Q 1328 -91 801 392 
Q 275 875 275 1747 
Q 275 2603 792 3093 
Q 1309 3584 2216 3584 
Q 3041 3584 3536 3087 
Q 4031 2591 4031 1759 
z
M 2881 2131 
Q 2881 2450 2695 2645 
Q 2509 2841 2209 2841 
Q 1884 2841 1681 2658 
Q 1478 2475 1428 2131 
L 2881 2131 
z
" transform="scale(0.015625)"/>
      <path id="DejaVuSans-Bold-6d" d="M 3781 2919 
Q 3994 3244 4286 3414 
Q 4578 3584 4928 3584 
Q 5531 3584 5847 3212 
Q 6163 2841 6163 2131 
L 6163 0 
L 5038 0 
L 5038 1825 
Q 5041 1866 5042 1909 
Q 5044 1953 5044 2034 
Q 5044 2406 4934 2573 
Q 4825 2741 4581 2741 
Q 4263 2741 4089 2478 
Q 3916 2216 3909 1719 
L 3909 0 
L 2784 0 
L 2784 1825 
Q 2784 2406 2684 2573 
Q 2584 2741 2328 2741 
Q 2006 2741 1831 2477 
Q 1656 2213 1656 1722 
L 1656 0 
L 531 0 
L 531 3500 
L 1656 3500 
L 1656 2988 
Q 1863 3284 2130 3434 
Q 2397 3584 2719 3584 
Q 3081 3584 3359 3409 
Q 3638 3234 3781 2919 
z
" transform="scale(0.015625)"/>
      <path id="DejaVuSans-Bold-67" d="M 2919 594 
Q 2688 288 2409 144 
Q 2131 0 1766 0 
Q 1125 0 706 504 
Q 288 1009 288 1791 
Q 288 2575 706 3076 
Q 1125 3578 1766 3578 
Q 2131 3578 2409 3434 
Q 2688 3291 2919 2981 
L 2919 3500 
L 4044 3500 
L 4044 353 
Q 4044 -491 3511 -936 
Q 2978 -1381 1966 -1381 
Q 1638 -1381 1331 -1331 
Q 1025 -1281 716 -1178 
L 716 -306 
Q 1009 -475 1290 -558 
Q 1572 -641 1856 -641 
Q 2406 -641 2662 -400 
Q 2919 -159 2919 353 
L 2919 594 
z
M 2181 2772 
Q 1834 2772 1640 2515 
Q 1447 2259 1447 1791 
Q 1447 1309 1634 1061 
Q 1822 813 2181 813 
Q 2531 813 2725 1069 
Q 2919 1325 2919 1791 
Q 2919 2259 2725 2515 
Q 2531 2772 2181 2772 
z
" transform="scale(0.015625)"/>
     </defs>
     <use xlink:href="#DejaVuSans-Bold-45"/>
     <use xlink:href="#DejaVuSans-Bold-72" transform="translate(68.310547 0)"/>
     <use xlink:href="#DejaVuSans-Bold-64" transform="translate(117.626953 0)"/>
     <use xlink:href="#DejaVuSans-Bold-151" transform="translate(189.208984 0)"/>
     <use xlink:href="#DejaVuSans-Bold-73" transform="translate(257.910156 0)"/>
     <use xlink:href="#DejaVuSans-Bold-20" transform="translate(317.431641 0)"/>
     <use xlink:href="#DejaVuSans-Bold-50" transform="translate(352.246094 0)"/>
     <use xlink:href="#DejaVuSans-Bold-72" transform="translate(425.537109 0)"/>
     <use xlink:href="#DejaVuSans-Bold-6f" transform="translate(474.853516 0)"/>
     <use xlink:href="#DejaVuSans-Bold-62" transform="translate(543.554688 0)"/>
     <use xlink:href="#DejaVuSans-Bold-6c" transform="translate(615.136719 0)"/>
     <use xlink:href="#DejaVuSans-Bold-65" transform="translate(649.414062 0)"/>
     <use xlink:href="#DejaVuSans-Bold-6d" transform="translate(717.236328 0)"/>
     <use xlink:href="#DejaVuSans-Bold-73" transform="translate(821.435547 0)"/>
     <use xlink:href="#DejaVuSans-Bold-20" transform="translate(880.957031 0)"/>
     <use xlink:href="#DejaVuSans-Bold-50" transform="translate(915.771484 0)"/>
     <use xlink:href="#DejaVuSans-Bold-72" transform="translate(989.0625 0)"/>
     <use xlink:href="#DejaVuSans-Bold-6f" transform="translate(1038.378906 0)"/>
     <use xlink:href="#DejaVuSans-Bold-67" transform="translate(1107.080078 0)"/>
     <use xlink:href="#DejaVuSans-Bold-72" transform="translate(1178.662109 0)"/>
     <use xlink:href="#DejaVuSans-Bold-65" transform="translate(1227.978516 0)"/>
     <use xlink:href="#DejaVuSans-Bold-73" transform="translate(1295.800781 0)"/>
     <use xlink:href="#DejaVuSans-Bold-73" transform="translate(1355.322266 0)"/>
    </g>
   </g>
   <g id="legend_1">
    <g id="patch_7">
     <path d="M 55.90125 119.788437 
L 213.771563 119.788437 
Q 215.771563 119.788437 215.771563 117.788437 
L 215.771563 45.397812 
Q 215.771563 43.397812 213.771563 43.397812 
L 55.90125 43.397812 
Q 53.90125 43.397812 53.90125 45.397812 
L 53.90125 117.788437 
Q 53.90125 119.788437 55.90125 119.788437 
z
" style="fill: #161b22; opacity: 0.8; stroke: #30363d; stroke-linejoin: miter"/>
    </g>
    <g id="line2d_36">
     <path d="M 57.90125 51.49625 
L 67.90125 51.49625 
L 77.90125 51.49625 
" style="fill: none; stroke: #3fb950; stroke-width: 2; stroke-linecap: square"/>
    </g>
    <g id="text_24">
     <!-- Solved -->
     <g style="fill: #c9d1d9" transform="translate(85.90125 54.99625) scale(0.1 -0.1)">
      <defs>
       <path id="DejaVuSans-6c" d="M 603 4863 
L 1178 4863 
L 1178 0 
L 603 0 
L 603 4863 
z
" transform="scale(0.015625)"/>
       <path id="DejaVuSans-64" d="M 2906 2969 
L 2906 4863 
L 3481 4863 
L 3481 0 
L 2906 0 
L 2906 525 
Q 2725 213 2448 61 
Q 2172 -91 1784 -91 
Q 1150 -91 751 415 
Q 353 922 353 1747 
Q 353 2572 751 3078 
Q 1150 3584 1784 3584 
Q 2172 3584 2448 3432 
Q 2725 3281 2906 2969 
z
M 947 1747 
Q 947 1113 1208 752 
Q 1469 391 1925 391 
Q 2381 391 2643 752 
Q 2906 1113 2906 1747 
Q 2906 2381 2643 2742 
Q 2381 3103 1925 3103 
Q 1469 3103 1208 2742 
Q 947 2381 947 1747 
z
" transform="scale(0.015625)"/>
      </defs>
      <use xlink:href="#DejaVuSans-53"/>
      <use xlink:href="#DejaVuSans-6f" transform="translate(63.476562 0)"/>
      <use xlink:href="#DejaVuSans-6c" transform="translate(124.658203 0)"/>
      <use xlink:href="#DejaVuSans-76" transform="translate(152.441406 0)"/>
      <use xlink:href="#DejaVuSans-65" transform="translate(211.621094 0)"/>
      <use xlink:href="#DejaVuSans-64" transform="translate(273.144531 0)"/>
     </g>
    </g>
    <g id="line2d_37">
     <path d="M 57.90125 66.174375 
L 67.90125 66.174375 
L 77.90125 66.174375 
" style="fill: none; stroke: #58a6ff; stroke-width: 2; stroke-linecap: square"/>
    </g>
    <g id="text_25">
     <!-- Lean Formalized Problem -->
     <g style="fill: #c9d1d9" transform="translate(85.90125 69.674375) scale(0.1 -0.1)">
      <defs>
       <path id="DejaVuSans-4c" d="M 628 4666 
L 1259 4666 
L 1259 531 
L 3531 531 
L 3531 0 
L 628 0 
L 628 4666 
z
" transform="scale(0.015625)"/>
       <path id="DejaVuSans-20" transform="scale(0.015625)"/>
       <path id="DejaVuSans-6d" d="M 3328 2828 
Q 3544 3216 3844 3400 
Q 4144 3584 4550 3584 
Q 5097 3584 5394 3201 
Q 5691 2819 5691 2113 
L 5691 0 
L 5113 0 
L 5113 2094 
Q 5113 2597 4934 2840 
Q 4756 3084 4391 3084 
Q 3944 3084 3684 2787 
Q 3425 2491 3425 1978 
L 3425 0 
L 2847 0 
L 2847 2094 
Q 2847 2600 2669 2842 
Q 2491 3084 2119 3084 
Q 1678 3084 1418 2786 
Q 1159 2488 1159 1978 
L 1159 0 
L 581 0 
L 581 3500 
L 1159 3500 
L 1159 2956 
Q 1356 3278 1631 3431 
Q 1906 3584 2284 3584 
Q 2666 3584 2933 3390 
Q 3200 3197 3328 2828 
z
" transform="scale(0.015625)"/>
       <path id="DejaVuSans-69" d="M 603 3500 
L 1178 3500 
L 1178 0 
L 603 0 
L 603 3500 
z
M 603 4863 
L 1178 4863 
L 1178 4134 
L 603 4134 
L 603 4863 
z
" transform="scale(0.015625)"/>
       <path id="DejaVuSans-7a" d="M 353 3500 
L 3084 3500 
L 3084 2975 
L 922 459 
L 3084 459 
L 3084 0 
L 275 0 
L 275 525 
L 2438 3041 
L 353 3041 
L 353 3500 
z
" transform="scale(0.015625)"/>
       <path id="DejaVuSans-50" d="M 1259 4147 
L 1259 2394 
L 2053 2394 
Q 2494 2394 2734 2622 
Q 2975 2850 2975 3272 
Q 2975 3691 2734 3919 
Q 2494 4147 2053 4147 
L 1259 4147 
z
M 628 4666 
L 2053 4666 
Q 2838 4666 3239 4311 
Q 3641 3956 3641 3272 
Q 3641 2581 3239 2228 
Q 2838 1875 2053 1875 
L 1259 1875 
L 1259 0 
L 628 0 
L 628 4666 
z
" transform="scale(0.015625)"/>
      </defs>
      <use xlink:href="#DejaVuSans-4c"/>
      <use xlink:href="#DejaVuSans-65" transform="translate(53.962891 0)"/>
      <use xlink:href="#DejaVuSans-61" transform="translate(115.486328 0)"/>
      <use xlink:href="#DejaVuSans-6e" transform="translate(176.765625 0)"/>
      <use xlink:href="#DejaVuSans-20" transform="translate(240.144531 0)"/>
      <use xlink:href="#DejaVuSans-46" transform="translate(271.931641 0)"/>
      <use xlink:href="#DejaVuSans-6f" transform="translate(325.826172 0)"/>
      <use xlink:href="#DejaVuSans-72" transform="translate(387.007812 0)"/>
      <use xlink:href="#DejaVuSans-6d" transform="translate(426.371094 0)"/>
      <use xlink:href="#DejaVuSans-61" transform="translate(523.783203 0)"/>
      <use xlink:href="#DejaVuSans-6c" transform="translate(585.0625 0)"/>
      <use xlink:href="#DejaVuSans-69" transform="translate(612.845703 0)"/>
      <use xlink:href="#DejaVuSans-7a" transform="translate(640.628906 0)"/>
      <use xlink:href="#DejaVuSans-65" transform="translate(693.119141 0)"/>
      <use xlink:href="#DejaVuSans-64" transform="translate(754.642578 0)"/>
      <use xlink:href="#DejaVuSans-20" transform="translate(818.119141 0)"/>
      <use xlink:href="#DejaVuSans-50" transform="translate(849.90625 0)"/>
      <use xlink:href="#DejaVuSans-72" transform="translate(908.458984 0)"/>
      <use xlink:href="#DejaVuSans-6f" transform="translate(947.322266 0)"/>
      <use xlink:href="#DejaVuSans-62" transform="translate(1008.503906 0)"/>
      <use xlink:href="#DejaVuSans-6c" transform="translate(1071.980469 0)"/>
      <use xlink:href="#DejaVuSans-65" transform="translate(1099.763672 0)"/>
      <use xlink:href="#DejaVuSans-6d" transform="translate(1161.287109 0)"/>
     </g>
    </g>
    <g id="line2d_38">
     <path d="M 57.90125 80.8525 
L 67.90125 80.8525 
L 77.90125 80.8525 
" style="fill: none; stroke: #d29922; stroke-width: 2; stroke-linecap: square"/>
    </g>
    <g id="text_26">
     <!-- Lean Formalized Solution -->
     <g style="fill: #c9d1d9" transform="translate(85.90125 84.3525) scale(0.1 -0.1)">
      <use xlink:href="#DejaVuSans-4c"/>
      <use xlink:href="#DejaVuSans-65" transform="translate(53.962891 0)"/>
      <use xlink:href="#DejaVuSans-61" transform="translate(115.486328 0)"/>
      <use xlink:href="#DejaVuSans-6e" transform="translate(176.765625 0)"/>
      <use xlink:href="#DejaVuSans-20" transform="translate(240.144531 0)"/>
      <use xlink:href="#DejaVuSans-46" transform="translate(271.931641 0)"/>
      <use xlink:href="#DejaVuSans-6f" transform="translate(325.826172 0)"/>
      <use xlink:href="#DejaVuSans-72" transform="translate(387.007812 0)"/>
      <use xlink:href="#DejaVuSans-6d" transform="translate(426.371094 0)"/>
      <use xlink:href="#DejaVuSans-61" transform="translate(523.783203 0)"/>
      <use xlink:href="#DejaVuSans-6c" transform="translate(585.0625 0)"/>
      <use xlink:href="#DejaVuSans-69" transform="translate(612.845703 0)"/>
      <use xlink:href="#DejaVuSans-7a" transform="translate(640.628906 0)"/>
      <use xlink:href="#DejaVuSans-65" transform="translate(693.119141 0)"/>
      <use xlink:href="#DejaVuSans-64" transform="translate(754.642578 0)"/>
      <use xlink:href="#DejaVuSans-20" transform="translate(818.119141 0)"/>
      <use xlink:href="#DejaVuSans-53" transform="translate(849.90625 0)"/>
      <use xlink:href="#DejaVuSans-6f" transform="translate(913.382812 0)"/>
      <use xlink:href="#DejaVuSans-6c" transform="translate(974.564453 0)"/>
      <use xlink:href="#DejaVuSans-75" transform="translate(1002.347656 0)"/>
      <use xlink:href="#DejaVuSans-74" transform="translate(1065.726562 0)"/>
      <use xlink:href="#DejaVuSans-69" transform="translate(1104.935547 0)"/>
      <use xlink:href="#DejaVuSans-6f" transform="translate(1132.71875 0)"/>
      <use xlink:href="#DejaVuSans-6e" transform="translate(1193.900391 0)"/>
     </g>
    </g>
    <g id="line2d_39">
     <path d="M 57.90125 95.530625 
L 67.90125 95.530625 
L 77.90125 95.530625 
" style="fill: none; stroke: #f85149; stroke-width: 2; stroke-linecap: square"/>
    </g>
    <g id="text_27">
     <!-- OEIS Linked -->
     <g style="fill: #c9d1d9" transform="translate(85.90125 99.030625) scale(0.1 -0.1)">
      <defs>
       <path id="DejaVuSans-45" d="M 628 4666 
L 3578 4666 
L 3578 4134 
L 1259 4134 
L 1259 2753 
L 3481 2753 
L 3481 2222 
L 1259 2222 
L 1259 531 
L 3634 531 
L 3634 0 
L 628 0 
L 628 4666 
z
" transform="scale(0.015625)"/>
       <path id="DejaVuSans-49" d="M 628 4666 
L 1259 4666 
L 1259 0 
L 628 0 
L 628 4666 
z
" transform="scale(0.015625)"/>
       <path id="DejaVuSans-6b" d="M 581 4863 
L 1159 4863 
L 1159 1991 
L 2875 3500 
L 3609 3500 
L 1753 1863 
L 3688 0 
L 2938 0 
L 1159 1709 
L 1159 0 
L 581 0 
L 581 4863 
z
" transform="scale(0.015625)"/>
      </defs>
      <use xlink:href="#DejaVuSans-4f"/>
      <use xlink:href="#DejaVuSans-45" transform="translate(78.710938 0)"/>
      <use xlink:href="#DejaVuSans-49" transform="translate(141.894531 0)"/>
      <use xlink:href="#DejaVuSans-53" transform="translate(171.386719 0)"/>
      <use xlink:href="#DejaVuSans-20" transform="translate(234.863281 0)"/>
      <use xlink:href="#DejaVuSans-4c" transform="translate(266.650391 0)"/>
      <use xlink:href="#DejaVuSans-69" transform="translate(322.363281 0)"/>
      <use xlink:href="#DejaVuSans-6e" transform="translate(350.146484 0)"/>
      <use xlink:href="#DejaVuSans-6b" transform="translate(413.525391 0)"/>
      <use xlink:href="#DejaVuSans-65" transform="translate(467.810547 0)"/>
      <use xlink:href="#DejaVuSans-64" transform="translate(529.333984 0)"/>
     </g>
    </g>
    <g id="line2d_40">
     <path d="M 57.90125 110.20875 
L 67.90125 110.20875 
L 77.90125 110.20875 
" style="fill: none; stroke: #9467bd; stroke-width: 2; stroke-linecap: square"/>
    </g>
    <g id="text_28">
     <!-- Open Problems -->
     <g style="fill: #c9d1d9" transform="translate(85.90125 113.70875) scale(0.1 -0.1)">
      <defs>
       <path id="DejaVuSans-73" d="M 2834 3397 
L 2834 2853 
Q 2591 2978 2328 3040 
Q 2066 3103 1784 3103 
Q 1356 3103 1142 2972 
Q 928 2841 928 2578 
Q 928 2378 1081 2264 
Q 1234 2150 1697 2047 
L 1894 2003 
Q 2506 1872 2764 1633 
Q 3022 1394 3022 966 
Q 3022 478 2636 193 
Q 2250 -91 1575 -91 
Q 1294 -91 989 -36 
Q 684 19 347 128 
L 347 722 
Q 666 556 975 473 
Q 1284 391 1588 391 
Q 1994 391 2212 530 
Q 2431 669 2431 922 
Q 2431 1156 2273 1281 
Q 2116 1406 1581 1522 
L 1381 1569 
Q 847 1681 609 1914 
Q 372 2147 372 2553 
Q 372 3047 722 3315 
Q 1072 3584 1716 3584 
Q 2034 3584 2315 3537 
Q 2597 3491 2834 3397 
z
" transform="scale(0.015625)"/>
      </defs>
      <use xlink:href="#DejaVuSans-4f"/>
      <use xlink:href="#DejaVuSans-70" transform="translate(78.710938 0)"/>
      <use xlink:href="#DejaVuSans-65" transform="translate(142.1875 0)"/>
      <use xlink:href="#DejaVuSans-6e" transform="translate(203.710938 0)"/>
      <use xlink:href="#DejaVuSans-20" transform="translate(267.089844 0)"/>
      <use xlink:href="#DejaVuSans-50" transform="translate(298.876953 0)"/>
      <use xlink:href="#DejaVuSans-72" transform="translate(357.429688 0)"/>
      <use xlink:href="#DejaVuSans-6f" transform="translate(396.292969 0)"/>
      <use xlink:href="#DejaVuSans-62" transform="translate(457.474609 0)"/>
      <use xlink:href="#DejaVuSans-6c" transform="translate(520.951172 0)"/>
      <use xlink:href="#DejaVuSans-65" transform="translate(548.734375 0)"/>
      <use xlink:href="#DejaVuSans-6d" transform="translate(610.257812 0)"/>
      <use xlink:href="#DejaVuSans-73" transform="translate(707.669922 0)"/>
     </g>
    </g>
   </g>
  </g>
 </g>
 <defs>
  <clipPath id="p2e6b3ca349">
   <rect x="48.90125" y="38.397812" width="799.45" height="416.84"/>
  </clipPath>
 </defs>
</svg>
