<?xml version="1.0" encoding="utf-8" standalone="no"?>
<!DOCTYPE svg PUBLIC "-//W3C//DTD SVG 1.1//EN"
  "http://www.w3.org/Graphics/SVG/1.1/DTD/svg11.dtd">
<svg xmlns:xlink="http://www.w3.org/1999/xlink" width="855.55125pt" height="494.729687pt" viewBox="0 0 855.55125 494.729687" xmlns="http://www.w3.org/2000/svg" version="1.1">
 <metadata>
  <rdf:RDF xmlns:dc="http://purl.org/dc/elements/1.1/" xmlns:cc="http://creativecommons.org/ns#" xmlns:rdf="http://www.w3.org/1999/02/22-rdf-syntax-ns#">
   <cc:Work>
    <dc:type rdf:resource="http://purl.org/dc/dcmitype/StillImage"/>
    <dc:date>2026-06-23T10:14:12.797626</dc:date>
    <dc:format>image/svg+xml</dc:format>
    <dc:creator>
     <cc:Agent>
      <dc:title>Matplotlib v3.10.7, https://matplotlib.org/</dc:title>
     </cc:Agent>
    </dc:creator>
   </cc:Work>
  </rdf:RDF>
 </metadata>
 <defs>
  <style type="text/css">*{stroke-linejoin: round; stroke-linecap: butt}</style>
 </defs>
 <g id="figure_1">
  <g id="patch_1">
   <path d="M 0 494.729687 
L 855.55125 494.729687 
L 855.55125 0 
L 0 0 
z
" style="fill: #ffffff"/>
  </g>
  <g id="axes_1">
   <g id="patch_2">
    <path d="M 48.90125 455.237812 
L 848.35125 455.237812 
L 848.35125 38.397812 
L 48.90125 38.397812 
z
" style="fill: #ffffff"/>
   </g>
   <g id="matplotlib.axis_1">
    <g id="xtick_1">
     <g id="line2d_1">
      <path d="M 85.95835 455.237812 
L 85.95835 38.397812 
" clip-path="url(#p2aeb4e2c73)" style="fill: none; stroke: #d0d7de; stroke-opacity: 0.25; stroke-width: 0.5; stroke-linecap: square"/>
     </g>
     <g id="line2d_2">
      <defs>
       <path id="mac4c8c4a11" d="M 0 0 
L 0 3.5 
" style="stroke: #24292f; stroke-width: 0.8"/>
      </defs>
      <g>
       <use xlink:href="#mac4c8c4a11" x="85.95835" y="455.237812" style="fill: #24292f; stroke: #24292f; stroke-width: 0.8"/>
      </g>
     </g>
     <g id="text_1">
      <!-- Sep -->
      <g style="fill: #24292f" transform="translate(76.53335 469.83625) scale(0.1 -0.1)">
       <defs>
        <path id="DejaVuSans-53" d="M 3425 4513 
L 3425 3897 
Q 3066 4069 2747 4153 
Q 2428 4238 2131 4238 
Q 1616 4238 1336 4038 
Q 1056 3838 1056 3469 
Q 1056 3159 1242 3001 
Q 1428 2844 1947 2747 
L 2328 2669 
Q 3034 2534 3370 2195 
Q 3706 1856 3706 1288 
Q 3706 609 3251 259 
Q 2797 -91 1919 -91 
Q 1588 -91 1214 -16 
Q 841 59 441 206 
L 441 856 
Q 825 641 1194 531 
Q 1563 422 1919 422 
Q 2459 422 2753 634 
Q 3047 847 3047 1241 
Q 3047 1584 2836 1778 
Q 2625 1972 2144 2069 
L 1759 2144 
Q 1053 2284 737 2584 
Q 422 2884 422 3419 
Q 422 4038 858 4394 
Q 1294 4750 2059 4750 
Q 2388 4750 2728 4690 
Q 3069 4631 3425 4513 
z
" transform="scale(0.015625)"/>
        <path id="DejaVuSans-65" d="M 3597 1894 
L 3597 1613 
L 953 1613 
Q 991 1019 1311 708 
Q 1631 397 2203 397 
Q 2534 397 2845 478 
Q 3156 559 3463 722 
L 3463 178 
Q 3153 47 2828 -22 
Q 2503 -91 2169 -91 
Q 1331 -91 842 396 
Q 353 884 353 1716 
Q 353 2575 817 3079 
Q 1281 3584 2069 3584 
Q 2775 3584 3186 3129 
Q 3597 2675 3597 1894 
z
M 3022 2063 
Q 3016 2534 2758 2815 
Q 2500 3097 2075 3097 
Q 1594 3097 1305 2825 
Q 1016 2553 972 2059 
L 3022 2063 
z
" transform="scale(0.015625)"/>
        <path id="DejaVuSans-70" d="M 1159 525 
L 1159 -1331 
L 581 -1331 
L 581 3500 
L 1159 3500 
L 1159 2969 
Q 1341 3281 1617 3432 
Q 1894 3584 2278 3584 
Q 2916 3584 3314 3078 
Q 3713 2572 3713 1747 
Q 3713 922 3314 415 
Q 2916 -91 2278 -91 
Q 1894 -91 1617 61 
Q 1341 213 1159 525 
z
M 3116 1747 
Q 3116 2381 2855 2742 
Q 2594 3103 2138 3103 
Q 1681 3103 1420 2742 
Q 1159 2381 1159 1747 
Q 1159 1113 1420 752 
Q 1681 391 2138 391 
Q 2594 391 2855 752 
Q 3116 1113 3116 1747 
z
" transform="scale(0.015625)"/>
       </defs>
       <use xlink:href="#DejaVuSans-53"/>
       <use xlink:href="#DejaVuSans-65" transform="translate(63.476562 0)"/>
       <use xlink:href="#DejaVuSans-70" transform="translate(125 0)"/>
      </g>
     </g>
    </g>
    <g id="xtick_2">
     <g id="line2d_3">
      <path d="M 235.874847 455.237812 
L 235.874847 38.397812 
" clip-path="url(#p2aeb4e2c73)" style="fill: none; stroke: #d0d7de; stroke-opacity: 0.25; stroke-width: 0.5; stroke-linecap: square"/>
     </g>
     <g id="line2d_4">
      <g>
       <use xlink:href="#mac4c8c4a11" x="235.874847" y="455.237812" style="fill: #24292f; stroke: #24292f; stroke-width: 0.8"/>
      </g>
     </g>
     <g id="text_2">
      <!-- Nov -->
      <g style="fill: #24292f" transform="translate(226.115472 469.83625) scale(0.1 -0.1)">
       <defs>
        <path id="DejaVuSans-4e" d="M 628 4666 
L 1478 4666 
L 3547 763 
L 3547 4666 
L 4159 4666 
L 4159 0 
L 3309 0 
L 1241 3903 
L 1241 0 
L 628 0 
L 628 4666 
z
" transform="scale(0.015625)"/>
        <path id="DejaVuSans-6f" d="M 1959 3097 
Q 1497 3097 1228 2736 
Q 959 2375 959 1747 
Q 959 1119 1226 758 
Q 1494 397 1959 397 
Q 2419 397 2687 759 
Q 2956 1122 2956 1747 
Q 2956 2369 2687 2733 
Q 2419 3097 1959 3097 
z
M 1959 3584 
Q 2709 3584 3137 3096 
Q 3566 2609 3566 1747 
Q 3566 888 3137 398 
Q 2709 -91 1959 -91 
Q 1206 -91 779 398 
Q 353 888 353 1747 
Q 353 2609 779 3096 
Q 1206 3584 1959 3584 
z
" transform="scale(0.015625)"/>
        <path id="DejaVuSans-76" d="M 191 3500 
L 800 3500 
L 1894 563 
L 2988 3500 
L 3597 3500 
L 2284 0 
L 1503 0 
L 191 3500 
z
" transform="scale(0.015625)"/>
       </defs>
       <use xlink:href="#DejaVuSans-4e"/>
       <use xlink:href="#DejaVuSans-6f" transform="translate(74.804688 0)"/>
       <use xlink:href="#DejaVuSans-76" transform="translate(135.986328 0)"/>
      </g>
     </g>
    </g>
    <g id="xtick_3">
     <g id="line2d_5">
      <path d="M 385.791343 455.237812 
L 385.791343 38.397812 
" clip-path="url(#p2aeb4e2c73)" style="fill: none; stroke: #d0d7de; stroke-opacity: 0.25; stroke-width: 0.5; stroke-linecap: square"/>
     </g>
     <g id="line2d_6">
      <g>
       <use xlink:href="#mac4c8c4a11" x="385.791343" y="455.237812" style="fill: #24292f; stroke: #24292f; stroke-width: 0.8"/>
      </g>
     </g>
     <g id="text_3">
      <!-- 2026 -->
      <g style="fill: #24292f" transform="translate(373.066343 469.83625) scale(0.1 -0.1)">
       <defs>
        <path id="DejaVuSans-32" d="M 1228 531 
L 3431 531 
L 3431 0 
L 469 0 
L 469 531 
Q 828 903 1448 1529 
Q 2069 2156 2228 2338 
Q 2531 2678 2651 2914 
Q 2772 3150 2772 3378 
Q 2772 3750 2511 3984 
Q 2250 4219 1831 4219 
Q 1534 4219 1204 4116 
Q 875 4013 500 3803 
L 500 4441 
Q 881 4594 1212 4672 
Q 1544 4750 1819 4750 
Q 2544 4750 2975 4387 
Q 3406 4025 3406 3419 
Q 3406 3131 3298 2873 
Q 3191 2616 2906 2266 
Q 2828 2175 2409 1742 
Q 1991 1309 1228 531 
z
" transform="scale(0.015625)"/>
        <path id="DejaVuSans-30" d="M 2034 4250 
Q 1547 4250 1301 3770 
Q 1056 3291 1056 2328 
Q 1056 1369 1301 889 
Q 1547 409 2034 409 
Q 2525 409 2770 889 
Q 3016 1369 3016 2328 
Q 3016 3291 2770 3770 
Q 2525 4250 2034 4250 
z
M 2034 4750 
Q 2819 4750 3233 4129 
Q 3647 3509 3647 2328 
Q 3647 1150 3233 529 
Q 2819 -91 2034 -91 
Q 1250 -91 836 529 
Q 422 1150 422 2328 
Q 422 3509 836 4129 
Q 1250 4750 2034 4750 
z
" transform="scale(0.015625)"/>
        <path id="DejaVuSans-36" d="M 2113 2584 
Q 1688 2584 1439 2293 
Q 1191 2003 1191 1497 
Q 1191 994 1439 701 
Q 1688 409 2113 409 
Q 2538 409 2786 701 
Q 3034 994 3034 1497 
Q 3034 2003 2786 2293 
Q 2538 2584 2113 2584 
z
M 3366 4563 
L 3366 3988 
Q 3128 4100 2886 4159 
Q 2644 4219 2406 4219 
Q 1781 4219 1451 3797 
Q 1122 3375 1075 2522 
Q 1259 2794 1537 2939 
Q 1816 3084 2150 3084 
Q 2853 3084 3261 2657 
Q 3669 2231 3669 1497 
Q 3669 778 3244 343 
Q 2819 -91 2113 -91 
Q 1303 -91 875 529 
Q 447 1150 447 2328 
Q 447 3434 972 4092 
Q 1497 4750 2381 4750 
Q 2619 4750 2861 4703 
Q 3103 4656 3366 4563 
z
" transform="scale(0.015625)"/>
       </defs>
       <use xlink:href="#DejaVuSans-32"/>
       <use xlink:href="#DejaVuSans-30" transform="translate(63.623047 0)"/>
       <use xlink:href="#DejaVuSans-32" transform="translate(127.246094 0)"/>
       <use xlink:href="#DejaVuSans-36" transform="translate(190.869141 0)"/>
      </g>
     </g>
    </g>
    <g id="xtick_4">
     <g id="line2d_7">
      <path d="M 530.792545 455.237812 
L 530.792545 38.397812 
" clip-path="url(#p2aeb4e2c73)" style="fill: none; stroke: #d0d7de; stroke-opacity: 0.25; stroke-width: 0.5; stroke-linecap: square"/>
     </g>
     <g id="line2d_8">
      <g>
       <use xlink:href="#mac4c8c4a11" x="530.792545" y="455.237812" style="fill: #24292f; stroke: #24292f; stroke-width: 0.8"/>
      </g>
     </g>
     <g id="text_4">
      <!-- Mar -->
      <g style="fill: #24292f" transform="translate(521.358951 469.83625) scale(0.1 -0.1)">
       <defs>
        <path id="DejaVuSans-4d" d="M 628 4666 
L 1569 4666 
L 2759 1491 
L 3956 4666 
L 4897 4666 
L 4897 0 
L 4281 0 
L 4281 4097 
L 3078 897 
L 2444 897 
L 1241 4097 
L 1241 0 
L 628 0 
L 628 4666 
z
" transform="scale(0.015625)"/>
        <path id="DejaVuSans-61" d="M 2194 1759 
Q 1497 1759 1228 1600 
Q 959 1441 959 1056 
Q 959 750 1161 570 
Q 1363 391 1709 391 
Q 2188 391 2477 730 
Q 2766 1069 2766 1631 
L 2766 1759 
L 2194 1759 
z
M 3341 1997 
L 3341 0 
L 2766 0 
L 2766 531 
Q 2569 213 2275 61 
Q 1981 -91 1556 -91 
Q 1019 -91 701 211 
Q 384 513 384 1019 
Q 384 1609 779 1909 
Q 1175 2209 1959 2209 
L 2766 2209 
L 2766 2266 
Q 2766 2663 2505 2880 
Q 2244 3097 1772 3097 
Q 1472 3097 1187 3025 
Q 903 2953 641 2809 
L 641 3341 
Q 956 3463 1253 3523 
Q 1550 3584 1831 3584 
Q 2591 3584 2966 3190 
Q 3341 2797 3341 1997 
z
" transform="scale(0.015625)"/>
        <path id="DejaVuSans-72" d="M 2631 2963 
Q 2534 3019 2420 3045 
Q 2306 3072 2169 3072 
Q 1681 3072 1420 2755 
Q 1159 2438 1159 1844 
L 1159 0 
L 581 0 
L 581 3500 
L 1159 3500 
L 1159 2956 
Q 1341 3275 1631 3429 
Q 1922 3584 2338 3584 
Q 2397 3584 2469 3576 
Q 2541 3569 2628 3553 
L 2631 2963 
z
" transform="scale(0.015625)"/>
       </defs>
       <use xlink:href="#DejaVuSans-4d"/>
       <use xlink:href="#DejaVuSans-61" transform="translate(86.279297 0)"/>
       <use xlink:href="#DejaVuSans-72" transform="translate(147.558594 0)"/>
      </g>
     </g>
    </g>
    <g id="xtick_5">
     <g id="line2d_9">
      <path d="M 680.709042 455.237812 
L 680.709042 38.397812 
" clip-path="url(#p2aeb4e2c73)" style="fill: none; stroke: #d0d7de; stroke-opacity: 0.25; stroke-width: 0.5; stroke-linecap: square"/>
     </g>
     <g id="line2d_10">
      <g>
       <use xlink:href="#mac4c8c4a11" x="680.709042" y="455.237812" style="fill: #24292f; stroke: #24292f; stroke-width: 0.8"/>
      </g>
     </g>
     <g id="text_5">
      <!-- May -->
      <g style="fill: #24292f" transform="translate(670.371542 469.83625) scale(0.1 -0.1)">
       <defs>
        <path id="DejaVuSans-79" d="M 2059 -325 
Q 1816 -950 1584 -1140 
Q 1353 -1331 966 -1331 
L 506 -1331 
L 506 -850 
L 844 -850 
Q 1081 -850 1212 -737 
Q 1344 -625 1503 -206 
L 1606 56 
L 191 3500 
L 800 3500 
L 1894 763 
L 2988 3500 
L 3597 3500 
L 2059 -325 
z
" transform="scale(0.015625)"/>
       </defs>
       <use xlink:href="#DejaVuSans-4d"/>
       <use xlink:href="#DejaVuSans-61" transform="translate(86.279297 0)"/>
       <use xlink:href="#DejaVuSans-79" transform="translate(147.558594 0)"/>
      </g>
     </g>
    </g>
    <g id="xtick_6">
     <g id="line2d_11">
      <path d="M 830.625539 455.237812 
L 830.625539 38.397812 
" clip-path="url(#p2aeb4e2c73)" style="fill: none; stroke: #d0d7de; stroke-opacity: 0.25; stroke-width: 0.5; stroke-linecap: square"/>
     </g>
     <g id="line2d_12">
      <g>
       <use xlink:href="#mac4c8c4a11" x="830.625539" y="455.237812" style="fill: #24292f; stroke: #24292f; stroke-width: 0.8"/>
      </g>
     </g>
     <g id="text_6">
      <!-- Jul -->
      <g style="fill: #24292f" transform="translate(824.592726 469.83625) scale(0.1 -0.1)">
       <defs>
        <path id="DejaVuSans-4a" d="M 628 4666 
L 1259 4666 
L 1259 325 
Q 1259 -519 939 -900 
Q 619 -1281 -91 -1281 
L -331 -1281 
L -331 -750 
L -134 -750 
Q 284 -750 456 -515 
Q 628 -281 628 325 
L 628 4666 
z
" transform="scale(0.015625)"/>
        <path id="DejaVuSans-75" d="M 544 1381 
L 544 3500 
L 1119 3500 
L 1119 1403 
Q 1119 906 1312 657 
Q 1506 409 1894 409 
Q 2359 409 2629 706 
Q 2900 1003 2900 1516 
L 2900 3500 
L 3475 3500 
L 3475 0 
L 2900 0 
L 2900 538 
Q 2691 219 2414 64 
Q 2138 -91 1772 -91 
Q 1169 -91 856 284 
Q 544 659 544 1381 
z
M 1991 3584 
L 1991 3584 
z
" transform="scale(0.015625)"/>
        <path id="DejaVuSans-6c" d="M 603 4863 
L 1178 4863 
L 1178 0 
L 603 0 
L 603 4863 
z
" transform="scale(0.015625)"/>
       </defs>
       <use xlink:href="#DejaVuSans-4a"/>
       <use xlink:href="#DejaVuSans-75" transform="translate(29.492188 0)"/>
       <use xlink:href="#DejaVuSans-6c" transform="translate(92.871094 0)"/>
      </g>
     </g>
    </g>
    <g id="text_7">
     <!-- Date -->
     <g style="fill: #24292f" transform="translate(434.285313 485.034062) scale(0.12 -0.12)">
      <defs>
       <path id="DejaVuSans-44" d="M 1259 4147 
L 1259 519 
L 2022 519 
Q 2988 519 3436 956 
Q 3884 1394 3884 2338 
Q 3884 3275 3436 3711 
Q 2988 4147 2022 4147 
L 1259 4147 
z
M 628 4666 
L 1925 4666 
Q 3281 4666 3915 4102 
Q 4550 3538 4550 2338 
Q 4550 1131 3912 565 
Q 3275 0 1925 0 
L 628 0 
L 628 4666 
z
" transform="scale(0.015625)"/>
       <path id="DejaVuSans-74" d="M 1172 4494 
L 1172 3500 
L 2356 3500 
L 2356 3053 
L 1172 3053 
L 1172 1153 
Q 1172 725 1289 603 
Q 1406 481 1766 481 
L 2356 481 
L 2356 0 
L 1766 0 
Q 1100 0 847 248 
Q 594 497 594 1153 
L 594 3053 
L 172 3053 
L 172 3500 
L 594 3500 
L 594 4494 
L 1172 4494 
z
" transform="scale(0.015625)"/>
      </defs>
      <use xlink:href="#DejaVuSans-44"/>
      <use xlink:href="#DejaVuSans-61" transform="translate(77.001953 0)"/>
      <use xlink:href="#DejaVuSans-74" transform="translate(138.28125 0)"/>
      <use xlink:href="#DejaVuSans-65" transform="translate(177.490234 0)"/>
     </g>
    </g>
   </g>
   <g id="matplotlib.axis_2">
    <g id="ytick_1">
     <g id="line2d_13">
      <path d="M 48.90125 455.237812 
L 848.35125 455.237812 
" clip-path="url(#p2aeb4e2c73)" style="fill: none; stroke: #d0d7de; stroke-opacity: 0.25; stroke-width: 0.5; stroke-linecap: square"/>
     </g>
     <g id="line2d_14">
      <defs>
       <path id="m5f87e11fb3" d="M 0 0 
L -3.5 0 
" style="stroke: #24292f; stroke-width: 0.8"/>
      </defs>
      <g>
       <use xlink:href="#m5f87e11fb3" x="48.90125" y="455.237812" style="fill: #24292f; stroke: #24292f; stroke-width: 0.8"/>
      </g>
     </g>
     <g id="text_8">
      <!-- 0 -->
      <g style="fill: #24292f" transform="translate(35.53875 459.037031) scale(0.1 -0.1)">
       <use xlink:href="#DejaVuSans-30"/>
      </g>
     </g>
    </g>
    <g id="ytick_2">
     <g id="line2d_15">
      <path d="M 48.90125 399.659146 
L 848.35125 399.659146 
" clip-path="url(#p2aeb4e2c73)" style="fill: none; stroke: #d0d7de; stroke-opacity: 0.25; stroke-width: 0.5; stroke-linecap: square"/>
     </g>
     <g id="line2d_16">
      <g>
       <use xlink:href="#m5f87e11fb3" x="48.90125" y="399.659146" style="fill: #24292f; stroke: #24292f; stroke-width: 0.8"/>
      </g>
     </g>
     <g id="text_9">
      <!-- 100 -->
      <g style="fill: #24292f" transform="translate(22.81375 403.458365) scale(0.1 -0.1)">
       <defs>
        <path id="DejaVuSans-31" d="M 794 531 
L 1825 531 
L 1825 4091 
L 703 3866 
L 703 4441 
L 1819 4666 
L 2450 4666 
L 2450 531 
L 3481 531 
L 3481 0 
L 794 0 
L 794 531 
z
" transform="scale(0.015625)"/>
       </defs>
       <use xlink:href="#DejaVuSans-31"/>
       <use xlink:href="#DejaVuSans-30" transform="translate(63.623047 0)"/>
       <use xlink:href="#DejaVuSans-30" transform="translate(127.246094 0)"/>
      </g>
     </g>
    </g>
    <g id="ytick_3">
     <g id="line2d_17">
      <path d="M 48.90125 344.080479 
L 848.35125 344.080479 
" clip-path="url(#p2aeb4e2c73)" style="fill: none; stroke: #d0d7de; stroke-opacity: 0.25; stroke-width: 0.5; stroke-linecap: square"/>
     </g>
     <g id="line2d_18">
      <g>
       <use xlink:href="#m5f87e11fb3" x="48.90125" y="344.080479" style="fill: #24292f; stroke: #24292f; stroke-width: 0.8"/>
      </g>
     </g>
     <g id="text_10">
      <!-- 200 -->
      <g style="fill: #24292f" transform="translate(22.81375 347.879698) scale(0.1 -0.1)">
       <use xlink:href="#DejaVuSans-32"/>
       <use xlink:href="#DejaVuSans-30" transform="translate(63.623047 0)"/>
       <use xlink:href="#DejaVuSans-30" transform="translate(127.246094 0)"/>
      </g>
     </g>
    </g>
    <g id="ytick_4">
     <g id="line2d_19">
      <path d="M 48.90125 288.501812 
L 848.35125 288.501812 
" clip-path="url(#p2aeb4e2c73)" style="fill: none; stroke: #d0d7de; stroke-opacity: 0.25; stroke-width: 0.5; stroke-linecap: square"/>
     </g>
     <g id="line2d_20">
      <g>
       <use xlink:href="#m5f87e11fb3" x="48.90125" y="288.501812" style="fill: #24292f; stroke: #24292f; stroke-width: 0.8"/>
      </g>
     </g>
     <g id="text_11">
      <!-- 300 -->
      <g style="fill: #24292f" transform="translate(22.81375 292.301031) scale(0.1 -0.1)">
       <defs>
        <path id="DejaVuSans-33" d="M 2597 2516 
Q 3050 2419 3304 2112 
Q 3559 1806 3559 1356 
Q 3559 666 3084 287 
Q 2609 -91 1734 -91 
Q 1441 -91 1130 -33 
Q 819 25 488 141 
L 488 750 
Q 750 597 1062 519 
Q 1375 441 1716 441 
Q 2309 441 2620 675 
Q 2931 909 2931 1356 
Q 2931 1769 2642 2001 
Q 2353 2234 1838 2234 
L 1294 2234 
L 1294 2753 
L 1863 2753 
Q 2328 2753 2575 2939 
Q 2822 3125 2822 3475 
Q 2822 3834 2567 4026 
Q 2313 4219 1838 4219 
Q 1578 4219 1281 4162 
Q 984 4106 628 3988 
L 628 4550 
Q 988 4650 1302 4700 
Q 1616 4750 1894 4750 
Q 2613 4750 3031 4423 
Q 3450 4097 3450 3541 
Q 3450 3153 3228 2886 
Q 3006 2619 2597 2516 
z
" transform="scale(0.015625)"/>
       </defs>
       <use xlink:href="#DejaVuSans-33"/>
       <use xlink:href="#DejaVuSans-30" transform="translate(63.623047 0)"/>
       <use xlink:href="#DejaVuSans-30" transform="translate(127.246094 0)"/>
      </g>
     </g>
    </g>
    <g id="ytick_5">
     <g id="line2d_21">
      <path d="M 48.90125 232.923146 
L 848.35125 232.923146 
" clip-path="url(#p2aeb4e2c73)" style="fill: none; stroke: #d0d7de; stroke-opacity: 0.25; stroke-width: 0.5; stroke-linecap: square"/>
     </g>
     <g id="line2d_22">
      <g>
       <use xlink:href="#m5f87e11fb3" x="48.90125" y="232.923146" style="fill: #24292f; stroke: #24292f; stroke-width: 0.8"/>
      </g>
     </g>
     <g id="text_12">
      <!-- 400 -->
      <g style="fill: #24292f" transform="translate(22.81375 236.722365) scale(0.1 -0.1)">
       <defs>
        <path id="DejaVuSans-34" d="M 2419 4116 
L 825 1625 
L 2419 1625 
L 2419 4116 
z
M 2253 4666 
L 3047 4666 
L 3047 1625 
L 3713 1625 
L 3713 1100 
L 3047 1100 
L 3047 0 
L 2419 0 
L 2419 1100 
L 313 1100 
L 313 1709 
L 2253 4666 
z
" transform="scale(0.015625)"/>
       </defs>
       <use xlink:href="#DejaVuSans-34"/>
       <use xlink:href="#DejaVuSans-30" transform="translate(63.623047 0)"/>
       <use xlink:href="#DejaVuSans-30" transform="translate(127.246094 0)"/>
      </g>
     </g>
    </g>
    <g id="ytick_6">
     <g id="line2d_23">
      <path d="M 48.90125 177.344479 
L 848.35125 177.344479 
" clip-path="url(#p2aeb4e2c73)" style="fill: none; stroke: #d0d7de; stroke-opacity: 0.25; stroke-width: 0.5; stroke-linecap: square"/>
     </g>
     <g id="line2d_24">
      <g>
       <use xlink:href="#m5f87e11fb3" x="48.90125" y="177.344479" style="fill: #24292f; stroke: #24292f; stroke-width: 0.8"/>
      </g>
     </g>
     <g id="text_13">
      <!-- 500 -->
      <g style="fill: #24292f" transform="translate(22.81375 181.143698) scale(0.1 -0.1)">
       <defs>
        <path id="DejaVuSans-35" d="M 691 4666 
L 3169 4666 
L 3169 4134 
L 1269 4134 
L 1269 2991 
Q 1406 3038 1543 3061 
Q 1681 3084 1819 3084 
Q 2600 3084 3056 2656 
Q 3513 2228 3513 1497 
Q 3513 744 3044 326 
Q 2575 -91 1722 -91 
Q 1428 -91 1123 -41 
Q 819 9 494 109 
L 494 744 
Q 775 591 1075 516 
Q 1375 441 1709 441 
Q 2250 441 2565 725 
Q 2881 1009 2881 1497 
Q 2881 1984 2565 2268 
Q 2250 2553 1709 2553 
Q 1456 2553 1204 2497 
Q 953 2441 691 2322 
L 691 4666 
z
" transform="scale(0.015625)"/>
       </defs>
       <use xlink:href="#DejaVuSans-35"/>
       <use xlink:href="#DejaVuSans-30" transform="translate(63.623047 0)"/>
       <use xlink:href="#DejaVuSans-30" transform="translate(127.246094 0)"/>
      </g>
     </g>
    </g>
    <g id="ytick_7">
     <g id="line2d_25">
      <path d="M 48.90125 121.765812 
L 848.35125 121.765812 
" clip-path="url(#p2aeb4e2c73)" style="fill: none; stroke: #d0d7de; stroke-opacity: 0.25; stroke-width: 0.5; stroke-linecap: square"/>
     </g>
     <g id="line2d_26">
      <g>
       <use xlink:href="#m5f87e11fb3" x="48.90125" y="121.765812" style="fill: #24292f; stroke: #24292f; stroke-width: 0.8"/>
      </g>
     </g>
     <g id="text_14">
      <!-- 600 -->
      <g style="fill: #24292f" transform="translate(22.81375 125.565031) scale(0.1 -0.1)">
       <use xlink:href="#DejaVuSans-36"/>
       <use xlink:href="#DejaVuSans-30" transform="translate(63.623047 0)"/>
       <use xlink:href="#DejaVuSans-30" transform="translate(127.246094 0)"/>
      </g>
     </g>
    </g>
    <g id="ytick_8">
     <g id="line2d_27">
      <path d="M 48.90125 66.187146 
L 848.35125 66.187146 
" clip-path="url(#p2aeb4e2c73)" style="fill: none; stroke: #d0d7de; stroke-opacity: 0.25; stroke-width: 0.5; stroke-linecap: square"/>
     </g>
     <g id="line2d_28">
      <g>
       <use xlink:href="#m5f87e11fb3" x="48.90125" y="66.187146" style="fill: #24292f; stroke: #24292f; stroke-width: 0.8"/>
      </g>
     </g>
     <g id="text_15">
      <!-- 700 -->
      <g style="fill: #24292f" transform="translate(22.81375 69.986365) scale(0.1 -0.1)">
       <defs>
        <path id="DejaVuSans-37" d="M 525 4666 
L 3525 4666 
L 3525 4397 
L 1831 0 
L 1172 0 
L 2766 4134 
L 525 4134 
L 525 4666 
z
" transform="scale(0.015625)"/>
       </defs>
       <use xlink:href="#DejaVuSans-37"/>
       <use xlink:href="#DejaVuSans-30" transform="translate(63.623047 0)"/>
       <use xlink:href="#DejaVuSans-30" transform="translate(127.246094 0)"/>
      </g>
     </g>
    </g>
    <g id="text_16">
     <!-- Count -->
     <g style="fill: #24292f" transform="translate(16.318125 264.635937) rotate(-90) scale(0.12 -0.12)">
      <defs>
       <path id="DejaVuSans-43" d="M 4122 4306 
L 4122 3641 
Q 3803 3938 3442 4084 
Q 3081 4231 2675 4231 
Q 1875 4231 1450 3742 
Q 1025 3253 1025 2328 
Q 1025 1406 1450 917 
Q 1875 428 2675 428 
Q 3081 428 3442 575 
Q 3803 722 4122 1019 
L 4122 359 
Q 3791 134 3420 21 
Q 3050 -91 2638 -91 
Q 1578 -91 968 557 
Q 359 1206 359 2328 
Q 359 3453 968 4101 
Q 1578 4750 2638 4750 
Q 3056 4750 3426 4639 
Q 3797 4528 4122 4306 
z
" transform="scale(0.015625)"/>
       <path id="DejaVuSans-6e" d="M 3513 2113 
L 3513 0 
L 2938 0 
L 2938 2094 
Q 2938 2591 2744 2837 
Q 2550 3084 2163 3084 
Q 1697 3084 1428 2787 
Q 1159 2491 1159 1978 
L 1159 0 
L 581 0 
L 581 3500 
L 1159 3500 
L 1159 2956 
Q 1366 3272 1645 3428 
Q 1925 3584 2291 3584 
Q 2894 3584 3203 3211 
Q 3513 2838 3513 2113 
z
" transform="scale(0.015625)"/>
      </defs>
      <use xlink:href="#DejaVuSans-43"/>
      <use xlink:href="#DejaVuSans-6f" transform="translate(69.824219 0)"/>
      <use xlink:href="#DejaVuSans-75" transform="translate(131.005859 0)"/>
      <use xlink:href="#DejaVuSans-6e" transform="translate(194.384766 0)"/>
      <use xlink:href="#DejaVuSans-74" transform="translate(257.763672 0)"/>
     </g>
    </g>
   </g>
   <g id="line2d_29">
    <path d="M 85.239886 454.682026 
L 85.286963 454.682026 
L 85.400544 454.126239 
L 85.464545 454.126239 
L 85.621931 257.933546 
L 87.601731 257.933546 
L 87.610777 261.268266 
L 90.005959 261.268266 
L 90.161041 260.712479 
L 90.454394 260.712479 
L 90.723882 260.156692 
L 92.393745 259.600906 
L 92.426713 260.156692 
L 92.487472 259.600906 
L 97.67783 259.600906 
L 100.797449 260.712479 
L 101.261615 259.600906 
L 101.600537 259.600906 
L 102.45474 259.045119 
L 102.812123 256.821972 
L 103.508001 256.821972 
L 104.522065 260.712479 
L 104.587858 256.821972 
L 105.366 256.266186 
L 107.391141 256.266186 
L 107.92531 255.710399 
L 108.718754 255.710399 
L 108.979168 254.598826 
L 113.876998 254.598826 
L 114.237709 253.487252 
L 114.256198 252.375679 
L 115.813533 252.375679 
L 118.109897 251.264106 
L 119.314515 251.264106 
L 119.332748 250.708319 
L 122.099194 250.708319 
L 122.785458 247.929386 
L 124.957319 247.929386 
L 124.972395 247.373599 
L 137.135901 247.373599 
L 139.409566 246.817812 
L 139.487192 247.373599 
L 141.845282 246.817812 
L 150.051236 246.817812 
L 154.028558 246.262026 
L 154.105388 245.706239 
L 154.294319 245.150452 
L 156.53806 245.150452 
L 157.493016 244.594666 
L 161.43114 244.594666 
L 161.580647 247.373599 
L 161.587986 245.150452 
L 161.779449 245.150452 
L 162.844856 242.927306 
L 167.385104 242.927306 
L 170.952647 242.371519 
L 174.917736 242.371519 
L 175.091734 241.815732 
L 185.394995 241.815732 
L 185.834726 241.259946 
L 188.336492 241.259946 
L 188.354128 240.148372 
L 193.120883 240.148372 
L 193.217567 236.257866 
L 201.845133 236.257866 
L 201.847722 235.702079 
L 202.097583 235.702079 
L 203.184978 235.146292 
L 204.290037 235.146292 
L 204.641504 234.590506 
L 204.676662 235.146292 
L 205.481484 234.590506 
L 205.485154 234.034719 
L 205.503956 234.590506 
L 205.968861 234.034719 
L 210.203837 234.034719 
L 211.520527 233.478932 
L 213.082897 233.478932 
L 215.736559 232.923146 
L 218.248735 232.923146 
L 220.189651 231.811572 
L 224.437228 231.811572 
L 226.908074 230.699999 
L 227.604237 231.255786 
L 231.05288 231.255786 
L 234.943103 229.032639 
L 240.744886 229.032639 
L 242.544231 228.476852 
L 274.610699 228.476852 
L 274.869662 227.921066 
L 286.56357 227.921066 
L 286.758959 227.365279 
L 306.657285 227.365279 
L 311.038838 226.809492 
L 311.064182 227.365279 
L 314.200726 225.697919 
L 318.803781 225.697919 
L 321.317209 225.142132 
L 321.321333 224.586346 
L 326.565623 224.586346 
L 328.447857 225.142132 
L 329.124478 224.586346 
L 337.901067 224.586346 
L 338.274578 225.142132 
L 338.958794 224.586346 
L 339.19392 222.363199 
L 343.215957 222.363199 
L 343.219428 221.807412 
L 355.52678 221.807412 
L 356.24348 221.251626 
L 358.608738 221.251626 
L 358.839484 220.695839 
L 370.373275 220.695839 
L 370.388948 220.140052 
L 373.273726 220.140052 
L 373.278021 219.584266 
L 373.978024 219.584266 
L 374.014575 219.028479 
L 375.101601 219.028479 
L 375.272385 218.472692 
L 377.598958 218.472692 
L 377.952614 217.361119 
L 379.233407 215.137972 
L 382.330583 215.137972 
L 382.559253 212.359039 
L 383.597808 212.359039 
L 384.107514 211.247466 
L 386.734011 211.247466 
L 387.595837 210.691679 
L 390.062814 210.691679 
L 390.393459 210.135892 
L 397.09399 210.135892 
L 397.259085 209.580106 
L 397.878816 209.580106 
L 398.840968 209.024319 
L 409.678625 209.024319 
L 409.775992 208.468532 
L 410.123476 208.468532 
L 410.84888 207.356959 
L 411.865902 207.356959 
L 412.110444 206.801172 
L 412.346054 206.801172 
L 412.435456 206.245386 
L 415.155253 206.245386 
L 415.618281 205.689599 
L 417.985644 205.689599 
L 418.137426 205.133812 
L 419.434177 205.133812 
L 419.588604 204.578026 
L 423.547266 204.578026 
L 423.633909 204.022239 
L 425.984262 204.022239 
L 426.769287 201.799092 
L 427.639647 201.799092 
L 427.640557 201.243306 
L 431.174563 201.243306 
L 431.822455 200.687519 
L 434.528399 200.687519 
L 435.061373 200.131732 
L 435.261853 200.131732 
L 435.782624 199.575946 
L 437.112883 199.575946 
L 437.266628 199.020159 
L 440.602913 199.020159 
L 441.46289 198.464372 
L 441.525526 197.908586 
L 441.803946 197.908586 
L 442.682725 195.685439 
L 445.408069 195.685439 
L 445.427696 195.129652 
L 448.021424 195.129652 
L 448.268583 194.573866 
L 448.563443 194.573866 
L 448.860039 194.018079 
L 448.921907 194.573866 
L 449.144006 194.018079 
L 450.130763 194.018079 
L 450.140206 193.462292 
L 450.402242 193.462292 
L 450.516989 192.906506 
L 451.309865 192.350719 
L 456.826373 192.350719 
L 457.688598 191.794932 
L 458.265775 191.794932 
L 458.734036 191.239146 
L 459.207731 191.794932 
L 461.158119 191.794932 
L 461.242231 190.683359 
L 464.042157 190.683359 
L 465.128528 189.015999 
L 476.920315 189.015999 
L 477.60564 188.460212 
L 495.806909 188.460212 
L 495.918726 187.904426 
L 522.663592 187.904426 
L 522.789859 186.792852 
L 522.79825 187.348639 
L 526.696267 187.348639 
L 527.576383 186.792852 
L 542.933238 186.792852 
L 546.093335 186.237066 
L 546.124056 185.681279 
L 546.385664 185.681279 
L 547.205108 185.125492 
L 571.851842 185.125492 
L 572.091064 184.569706 
L 594.008672 184.569706 
L 596.821938 184.013919 
L 598.542775 184.013919 
L 598.729517 183.458132 
L 599.925572 182.902346 
L 603.27972 182.902346 
L 604.692355 182.346559 
L 606.170528 182.346559 
L 606.285645 181.790772 
L 608.716952 181.790772 
L 609.007376 181.234986 
L 609.064863 180.679199 
L 613.393594 180.679199 
L 613.410376 180.123412 
L 617.096079 180.123412 
L 617.104215 179.567626 
L 618.353007 179.011839 
L 620.569953 179.011839 
L 622.165319 178.456052 
L 623.593058 178.456052 
L 625.697362 175.121332 
L 628.154099 175.121332 
L 628.165477 172.342399 
L 640.518029 172.342399 
L 640.519309 171.786612 
L 640.732959 171.230826 
L 641.9161 171.230826 
L 642.173442 170.675039 
L 646.054221 170.675039 
L 646.951348 170.119252 
L 647.098949 170.675039 
L 654.040153 170.675039 
L 654.041718 170.119252 
L 656.844261 170.119252 
L 657.990736 167.340319 
L 665.019181 167.340319 
L 665.094248 166.228746 
L 666.683356 164.561386 
L 668.277868 164.561386 
L 668.447713 164.005599 
L 675.150606 164.005599 
L 675.273858 163.449812 
L 682.004313 163.449812 
L 682.150919 162.894026 
L 684.005874 161.226666 
L 684.149606 160.670879 
L 702.422869 160.670879 
L 704.152922 157.891946 
L 708.281031 157.891946 
L 708.549921 157.336159 
L 711.651336 157.336159 
L 712.805691 156.224586 
L 729.152716 156.224586 
L 729.359966 155.668799 
L 731.752986 155.668799 
L 732.009333 155.113012 
L 747.773463 155.113012 
L 747.781541 153.445652 
L 748.271165 153.445652 
L 748.466241 152.889866 
L 751.164192 152.889866 
L 751.559805 152.334079 
L 751.562166 152.889866 
L 758.682972 152.889866 
L 760.400793 152.334079 
L 792.449256 152.334079 
L 792.452413 151.778292 
L 805.213833 151.778292 
L 806.811134 151.222506 
L 812.012614 151.222506 
L 812.012614 151.222506 
" clip-path="url(#p2aeb4e2c73)" style="fill: none; stroke: #1a7f37; stroke-width: 2; stroke-linecap: square"/>
   </g>
   <g id="line2d_30">
    <path d="M 85.239886 455.237812 
L 85.31683 453.570452 
L 85.400544 453.570452 
L 85.531362 372.981386 
L 86.625072 372.981386 
L 86.648938 370.758239 
L 87.845249 370.758239 
L 88.153479 369.090879 
L 88.572872 370.758239 
L 88.575972 369.090879 
L 88.923001 369.090879 
L 89.057119 367.979306 
L 92.484201 367.979306 
L 92.487472 367.423519 
L 92.506757 367.979306 
L 92.675436 367.423519 
L 92.724902 367.979306 
L 92.954083 367.423519 
L 94.059456 367.423519 
L 94.293757 366.311946 
L 95.651579 366.311946 
L 97.196768 365.756159 
L 97.251155 365.200372 
L 97.668784 364.644586 
L 97.67783 364.088799 
L 100.797449 367.979306 
L 101.261615 366.311946 
L 101.600537 363.533012 
L 103.508001 363.533012 
L 104.522065 367.979306 
L 104.587858 363.533012 
L 123.118094 363.533012 
L 123.686709 362.977226 
L 124.972395 362.977226 
L 128.483815 362.421439 
L 129.339156 361.865652 
L 141.526414 361.865652 
L 141.845282 361.309866 
L 143.483543 360.754079 
L 144.524801 360.754079 
L 145.678985 360.198292 
L 145.710075 359.086719 
L 146.503463 358.530932 
L 147.036693 357.975146 
L 154.382613 357.975146 
L 155.846961 357.419359 
L 156.28965 357.419359 
L 156.53806 356.863572 
L 157.493016 356.863572 
L 158.441742 356.307786 
L 161.43114 356.307786 
L 161.580647 358.530932 
L 161.587986 356.307786 
L 162.730194 356.307786 
L 162.844856 355.751999 
L 164.461613 355.751999 
L 166.052285 355.196212 
L 166.090885 354.640426 
L 170.952647 354.640426 
L 173.003275 354.084639 
L 173.008452 353.528852 
L 179.832292 353.528852 
L 182.678782 352.973066 
L 184.814376 352.973066 
L 185.394995 352.417279 
L 188.65482 352.417279 
L 190.514098 351.861492 
L 190.616017 351.305706 
L 192.428731 351.305706 
L 192.63911 350.749919 
L 193.217567 350.194132 
L 194.508885 350.194132 
L 195.324175 349.638346 
L 196.818988 349.638346 
L 197.794594 349.082559 
L 199.875858 349.082559 
L 200.584906 347.970986 
L 205.968861 347.970986 
L 207.50216 347.415199 
L 209.300111 347.415199 
L 209.705566 346.859412 
L 209.829558 346.303626 
L 210.203837 345.747839 
L 216.395288 345.747839 
L 217.528878 345.192052 
L 218.248735 344.636266 
L 235.85485 344.636266 
L 239.806997 344.080479 
L 239.854216 343.524692 
L 242.544231 343.524692 
L 244.84344 342.968906 
L 248.907262 342.968906 
L 249.25065 342.413119 
L 256.171516 342.413119 
L 261.589207 341.857332 
L 261.641204 341.301546 
L 262.349485 341.301546 
L 263.784506 340.745759 
L 263.86455 339.078399 
L 263.927698 338.522612 
L 266.925203 337.966826 
L 267.104691 337.411039 
L 267.17623 336.299466 
L 267.447709 335.743679 
L 277.201896 335.743679 
L 279.972893 335.187892 
L 281.736824 334.632106 
L 283.118682 334.632106 
L 286.322641 334.076319 
L 286.56357 331.853172 
L 286.758959 331.853172 
L 287.219625 330.741599 
L 293.29687 330.185812 
L 293.490296 329.630026 
L 293.547357 329.074239 
L 294.831278 329.074239 
L 296.043689 328.518452 
L 296.183041 327.962666 
L 296.277678 326.851092 
L 297.080196 326.295306 
L 297.139106 325.739519 
L 298.603341 325.183732 
L 300.528043 324.627946 
L 300.66492 324.072159 
L 300.667821 323.516372 
L 301.054958 322.960586 
L 301.123339 322.404799 
L 303.915301 321.849012 
L 304.415819 321.293226 
L 316.16949 321.293226 
L 318.118655 320.737439 
L 318.296038 320.181652 
L 326.262115 320.181652 
L 326.565623 319.070079 
L 329.88467 319.070079 
L 330.886731 318.514292 
L 330.935684 317.402719 
L 331.192998 316.846932 
L 332.896825 316.291146 
L 332.935197 315.735359 
L 333.140854 315.179572 
L 333.351603 312.956426 
L 333.58636 312.956426 
L 333.595007 312.400639 
L 335.017399 311.844852 
L 335.576599 311.289066 
L 335.711912 310.733279 
L 338.274578 310.177492 
L 340.163155 310.177492 
L 340.818954 309.621706 
L 347.919536 309.621706 
L 350.271909 309.065919 
L 350.281267 308.510132 
L 350.704329 307.954346 
L 356.24348 307.954346 
L 357.797658 307.398559 
L 358.437898 306.842772 
L 358.608738 305.731199 
L 363.089337 305.731199 
L 363.394608 305.175412 
L 365.855044 305.175412 
L 367.032979 304.619626 
L 370.388948 304.619626 
L 372.417787 304.063839 
L 376.631031 304.063839 
L 377.148872 303.508052 
L 379.233407 303.508052 
L 379.800799 302.952266 
L 380.046934 302.396479 
L 380.168166 301.840692 
L 381.884054 301.840692 
L 381.932837 300.729119 
L 382.559253 300.729119 
L 382.970539 299.061759 
L 384.463133 299.061759 
L 384.648509 298.505972 
L 384.792412 298.505972 
L 385.506837 297.950186 
L 386.692396 297.950186 
L 386.734011 297.394399 
L 387.595837 297.394399 
L 387.805164 296.838612 
L 388.615192 296.838612 
L 389.855422 295.727039 
L 390.393459 295.727039 
L 392.474353 294.615466 
L 392.477482 294.059679 
L 392.874773 293.503892 
L 393.888439 292.948106 
L 394.046052 292.392319 
L 395.056703 291.836532 
L 396.708788 291.836532 
L 397.259085 290.724959 
L 399.273958 290.724959 
L 399.331161 290.169172 
L 399.905181 290.169172 
L 399.949242 289.613386 
L 400.264242 289.057599 
L 401.360284 289.057599 
L 401.443657 288.501812 
L 401.631422 288.501812 
L 401.744747 287.946026 
L 401.753764 287.946026 
L 401.843366 287.390239 
L 403.297587 287.390239 
L 403.602802 286.834452 
L 403.859092 286.834452 
L 404.012268 286.278666 
L 404.403444 286.278666 
L 404.696313 285.722879 
L 404.758067 285.167092 
L 404.841781 285.167092 
L 406.314008 284.611306 
L 407.415712 284.611306 
L 407.499112 284.055519 
L 411.845052 284.055519 
L 411.865902 283.499732 
L 412.110444 283.499732 
L 412.685886 282.388159 
L 414.153676 282.388159 
L 414.289786 280.720799 
L 414.329495 279.609226 
L 414.58604 279.053439 
L 415.618281 279.053439 
L 416.105117 278.497652 
L 416.576991 278.497652 
L 416.729143 277.941866 
L 417.460606 277.386079 
L 418.137426 277.386079 
L 419.498093 276.830292 
L 419.588604 276.274506 
L 419.933073 276.274506 
L 420.001996 275.718719 
L 421.211562 275.718719 
L 421.245156 275.162932 
L 427.111111 275.162932 
L 427.219515 274.607146 
L 427.376247 274.607146 
L 427.453617 273.495572 
L 428.208945 273.495572 
L 428.369688 272.939786 
L 428.892848 272.383999 
L 429.024349 271.828212 
L 429.264624 271.828212 
L 429.467949 271.272426 
L 429.534226 270.716639 
L 432.481725 270.716639 
L 433.225704 270.160852 
L 433.37265 269.049279 
L 433.553731 268.493492 
L 433.856016 268.493492 
L 434.040254 267.937706 
L 438.270253 267.937706 
L 438.549497 266.270346 
L 439.127471 266.270346 
L 439.212322 265.714559 
L 441.470826 265.714559 
L 441.525526 264.602986 
L 444.238098 264.602986 
L 444.266201 264.047199 
L 445.572907 264.047199 
L 445.581697 263.491412 
L 446.218011 263.491412 
L 446.323542 262.935626 
L 448.172239 262.935626 
L 448.268583 262.379839 
L 448.391323 262.379839 
L 448.563443 261.824052 
L 448.912833 261.824052 
L 448.921907 261.268266 
L 449.144006 261.268266 
L 449.567694 260.712479 
L 452.989854 260.712479 
L 453.238577 260.156692 
L 454.253978 260.156692 
L 454.255856 259.600906 
L 462.019234 259.600906 
L 463.336892 259.045119 
L 463.375093 258.489332 
L 464.042157 257.933546 
L 465.056477 257.933546 
L 465.128528 256.821972 
L 465.311998 256.821972 
L 465.388373 256.266186 
L 468.082228 256.266186 
L 468.568694 255.710399 
L 473.228354 255.710399 
L 473.24269 255.154612 
L 474.764583 255.154612 
L 475.414977 254.598826 
L 482.57811 254.598826 
L 482.667512 253.487252 
L 485.484648 253.487252 
L 486.044985 252.931466 
L 486.645033 252.931466 
L 487.378572 252.375679 
L 492.227277 252.375679 
L 492.691585 251.819892 
L 493.093911 251.819892 
L 493.291177 251.264106 
L 494.835797 250.708319 
L 495.591922 250.708319 
L 495.918726 250.152532 
L 498.088767 249.596746 
L 502.084236 249.596746 
L 502.396903 249.040959 
L 517.818328 249.040959 
L 518.381795 248.485172 
L 521.948029 248.485172 
L 522.076914 247.929386 
L 522.30857 247.929386 
L 522.378402 247.373599 
L 542.294307 247.373599 
L 542.933238 246.817812 
L 547.688473 246.817812 
L 548.721453 246.262026 
L 548.790689 245.706239 
L 551.264806 245.706239 
L 551.367464 245.150452 
L 559.381386 245.150452 
L 559.397798 244.594666 
L 566.162871 244.594666 
L 566.23569 244.038879 
L 566.67508 243.483092 
L 568.335187 243.483092 
L 568.338999 242.927306 
L 568.676356 242.371519 
L 571.168906 242.371519 
L 571.992388 241.815732 
L 577.307392 241.815732 
L 577.344826 240.704159 
L 611.035561 240.704159 
L 613.410376 240.148372 
L 616.398181 240.148372 
L 616.497455 239.592586 
L 629.743805 239.592586 
L 629.766049 239.036799 
L 643.599162 239.036799 
L 643.741757 238.481012 
L 644.564756 238.481012 
L 644.586203 237.925226 
L 644.772205 237.369439 
L 645.495761 236.257866 
L 645.602116 235.146292 
L 645.663586 234.034719 
L 645.848905 233.478932 
L 645.891772 232.923146 
L 646.054221 232.367359 
L 647.098949 232.367359 
L 647.228829 231.811572 
L 647.234944 231.255786 
L 647.626717 230.699999 
L 654.041718 230.699999 
L 654.733159 229.588426 
L 674.967079 229.588426 
L 675.09565 229.032639 
L 687.446125 229.032639 
L 687.738625 227.921066 
L 689.063052 227.921066 
L 689.240464 227.365279 
L 697.109288 227.365279 
L 697.305928 226.809492 
L 700.398866 226.809492 
L 701.224909 226.253706 
L 701.302592 225.697919 
L 705.943193 225.697919 
L 706.087751 224.586346 
L 706.686433 224.030559 
L 707.246429 224.030559 
L 708.281031 223.474772 
L 711.255239 223.474772 
L 711.300581 222.918986 
L 711.651336 222.363199 
L 714.078177 222.363199 
L 716.649861 221.807412 
L 729.359966 221.807412 
L 730.862317 221.251626 
L 731.41853 220.695839 
L 731.752986 219.584266 
L 733.541551 219.584266 
L 740.828959 218.472692 
L 742.657546 218.472692 
L 742.858993 217.361119 
L 743.106379 217.361119 
L 743.231878 216.805332 
L 753.473072 216.805332 
L 753.485076 216.249546 
L 770.598523 216.249546 
L 772.873155 215.693759 
L 773.009264 214.582186 
L 773.095567 214.582186 
L 773.191739 213.470612 
L 773.326255 213.470612 
L 773.344517 212.914826 
L 774.882424 212.914826 
L 775.035259 212.359039 
L 775.121846 211.803252 
L 775.45744 211.247466 
L 775.704769 211.247466 
L 776.204604 210.691679 
L 787.277273 210.691679 
L 787.308563 210.135892 
L 792.295198 210.135892 
L 792.372938 209.580106 
L 792.452413 209.580106 
L 793.202992 209.024319 
L 795.809805 209.024319 
L 797.523189 208.468532 
L 805.204503 208.468532 
L 805.213833 207.356959 
L 807.39016 207.356959 
L 807.454929 206.801172 
L 808.204625 206.245386 
L 808.264104 205.689599 
L 809.253563 205.689599 
L 809.2871 205.133812 
L 812.00994 205.133812 
L 812.012614 204.578026 
L 812.012614 204.578026 
" clip-path="url(#p2aeb4e2c73)" style="fill: none; stroke: #0969da; stroke-width: 2; stroke-linecap: square"/>
   </g>
   <g id="line2d_31">
    <path d="M 85.239886 455.237812 
L 87.601731 455.237812 
L 87.610777 454.126239 
L 89.560624 454.126239 
L 90.005959 453.570452 
L 210.203837 453.570452 
L 211.520527 453.014666 
L 244.84344 453.014666 
L 245.768215 452.458879 
L 277.201896 452.458879 
L 279.972893 451.903092 
L 287.219625 451.903092 
L 293.547357 450.235732 
L 294.831278 449.124159 
L 297.139106 449.124159 
L 298.603341 448.568372 
L 300.667821 448.012586 
L 301.123339 448.012586 
L 303.915301 447.456799 
L 304.415819 446.901012 
L 306.657285 446.345226 
L 311.038838 445.789439 
L 311.064182 446.345226 
L 318.296038 446.345226 
L 318.803781 445.789439 
L 329.124478 445.789439 
L 329.88467 445.233652 
L 333.351603 445.233652 
L 333.595007 444.677866 
L 337.901067 444.677866 
L 338.274578 444.122079 
L 354.049176 444.122079 
L 355.52678 443.566292 
L 356.147791 443.566292 
L 356.24348 443.010506 
L 360.453595 443.010506 
L 360.457606 442.454719 
L 370.373275 442.454719 
L 370.388948 441.898932 
L 373.278021 441.898932 
L 374.014575 441.343146 
L 375.099695 440.787359 
L 375.101601 440.231572 
L 375.272385 440.231572 
L 376.631031 438.564212 
L 377.546277 438.564212 
L 377.598958 436.896852 
L 377.952614 436.896852 
L 379.233407 437.452639 
L 380.154513 437.452639 
L 380.168166 435.229492 
L 383.597808 435.229492 
L 384.107514 434.673706 
L 384.648509 434.673706 
L 384.792412 434.117919 
L 397.09399 434.117919 
L 397.259085 433.562132 
L 397.878816 433.562132 
L 398.840968 433.006346 
L 403.085843 433.006346 
L 403.297587 432.450559 
L 404.758067 432.450559 
L 404.841781 431.894772 
L 409.678625 431.894772 
L 409.775992 431.338986 
L 410.123476 431.338986 
L 410.475909 430.783199 
L 410.828001 430.783199 
L 410.84888 430.227412 
L 412.346054 430.227412 
L 412.435456 429.671626 
L 419.385962 429.671626 
L 419.501904 429.115839 
L 419.517264 429.115839 
L 419.699 428.560052 
L 420.001996 428.560052 
L 420.868601 428.004266 
L 424.256656 428.004266 
L 424.259642 427.448479 
L 424.907022 427.448479 
L 424.931655 426.892692 
L 426.769287 426.892692 
L 427.219515 426.336906 
L 429.604201 426.336906 
L 430.314472 425.781119 
L 431.69579 425.781119 
L 431.710439 424.669546 
L 431.822455 424.669546 
L 431.963428 424.113759 
L 434.185523 424.113759 
L 434.528399 423.557972 
L 435.061373 423.557972 
L 435.261853 423.002186 
L 436.562756 423.002186 
L 436.744406 422.446399 
L 436.746739 421.890612 
L 437.112883 421.890612 
L 437.266628 421.334826 
L 451.280111 421.334826 
L 451.309865 420.223252 
L 453.238577 420.223252 
L 453.793681 419.667466 
L 454.255856 419.667466 
L 456.423962 419.111679 
L 456.826373 419.111679 
L 457.688598 418.555892 
L 458.265775 418.555892 
L 458.734036 418.000106 
L 459.207731 418.555892 
L 460.732639 418.555892 
L 461.14731 418.000106 
L 461.242231 416.888532 
L 462.014029 416.332746 
L 462.019234 415.221172 
L 465.388373 415.221172 
L 466.125184 414.665386 
L 466.199852 412.998026 
L 466.936293 412.442239 
L 467.343568 411.886452 
L 470.826885 411.886452 
L 470.974685 410.219092 
L 471.152353 410.219092 
L 471.284082 409.663306 
L 472.135383 409.107519 
L 473.475399 409.107519 
L 473.751457 408.551732 
L 473.814264 407.995946 
L 473.955123 407.995946 
L 474.764583 406.884372 
L 475.631842 406.884372 
L 475.916605 406.328586 
L 476.917015 406.328586 
L 476.920315 405.217012 
L 477.60564 405.217012 
L 478.515453 404.661226 
L 480.925854 403.549652 
L 481.249245 402.993866 
L 486.044985 402.993866 
L 486.645033 401.882292 
L 495.806909 401.882292 
L 495.918726 400.770719 
L 500.37819 400.770719 
L 501.059562 400.214932 
L 503.127257 400.214932 
L 503.243312 399.659146 
L 515.963999 399.659146 
L 516.167039 399.103359 
L 517.427039 399.103359 
L 517.818328 398.547572 
L 520.169876 398.547572 
L 520.612139 397.991786 
L 520.61504 397.435999 
L 521.120849 396.880212 
L 522.663592 396.880212 
L 522.781411 396.324426 
L 522.789859 395.212852 
L 522.79825 395.768639 
L 523.834957 395.212852 
L 527.576383 395.212852 
L 528.314389 394.101279 
L 535.065097 394.101279 
L 535.587034 393.545492 
L 537.224698 393.545492 
L 537.355801 392.989706 
L 537.373835 392.433919 
L 542.933238 392.433919 
L 546.385664 391.322346 
L 547.205108 391.322346 
L 547.688473 390.766559 
L 554.839772 390.766559 
L 555.71878 390.210772 
L 556.807967 390.210772 
L 557.86285 389.654986 
L 566.67508 389.654986 
L 566.91692 389.099199 
L 566.918228 388.543412 
L 571.851842 388.543412 
L 572.091064 387.987626 
L 594.008672 387.987626 
L 596.821938 387.431839 
L 603.27972 387.431839 
L 604.692355 386.876052 
L 605.935288 386.876052 
L 606.285645 386.320266 
L 609.064863 386.320266 
L 609.553775 385.764479 
L 610.198595 385.764479 
L 611.035561 385.208692 
L 613.041758 385.208692 
L 613.410376 384.652906 
L 613.657307 384.652906 
L 614.556283 384.097119 
L 623.241421 384.097119 
L 623.265713 382.429759 
L 630.843972 382.429759 
L 634.057545 381.873972 
L 634.060162 381.318186 
L 637.828441 381.318186 
L 637.986624 380.762399 
L 638.096023 380.206612 
L 639.751607 380.206612 
L 640.519309 379.650826 
L 641.068496 379.650826 
L 641.9161 379.095039 
L 642.825686 379.095039 
L 642.982873 377.983466 
L 643.741757 377.983466 
L 643.892999 377.427679 
L 645.600637 377.427679 
L 645.663586 376.871892 
L 648.355165 376.871892 
L 650.305098 376.316106 
L 650.944684 376.316106 
L 651.57255 375.760319 
L 652.869556 375.204532 
L 652.875103 374.648746 
L 653.232771 372.981386 
L 653.559604 372.425599 
L 654.041718 371.869812 
L 655.333746 371.869812 
L 656.117292 370.202452 
L 657.990736 370.202452 
L 658.497996 368.535092 
L 660.559461 368.535092 
L 660.777748 367.979306 
L 662.271879 367.979306 
L 662.596578 366.867732 
L 663.159192 366.311946 
L 665.094248 366.311946 
L 668.447713 365.200372 
L 670.597785 364.644586 
L 670.74385 364.088799 
L 672.777525 364.088799 
L 672.907632 363.533012 
L 675.140337 363.533012 
L 675.150606 362.977226 
L 675.569145 362.977226 
L 675.66088 362.421439 
L 682.004313 362.421439 
L 682.150919 361.865652 
L 684.149606 361.309866 
L 687.43671 361.309866 
L 687.446125 360.754079 
L 699.505551 360.754079 
L 700.398866 358.530932 
L 705.347783 358.530932 
L 705.355093 357.419359 
L 711.651336 357.419359 
L 712.803244 355.751999 
L 712.805691 355.196212 
L 717.256365 355.196212 
L 718.753852 354.084639 
L 718.820868 353.528852 
L 746.801042 353.528852 
L 747.916684 352.973066 
L 750.857498 352.973066 
L 751.164192 351.861492 
L 780.869527 351.861492 
L 781.420705 349.638346 
L 805.213833 349.638346 
L 806.811134 349.082559 
L 812.012614 349.082559 
L 812.012614 349.082559 
" clip-path="url(#p2aeb4e2c73)" style="fill: none; stroke: #bf8700; stroke-width: 2; stroke-linecap: square"/>
   </g>
   <g id="line2d_32">
    <path d="M 85.239886 454.682026 
L 85.441903 454.682026 
L 85.531362 432.450559 
L 85.998884 426.892692 
L 86.26604 425.781119 
L 86.40158 426.336906 
L 86.648938 425.781119 
L 87.067278 425.225332 
L 87.610777 423.002186 
L 87.845249 421.334826 
L 88.153479 421.334826 
L 88.572872 420.779039 
L 88.575972 420.223252 
L 88.913643 419.667466 
L 89.006743 419.111679 
L 89.057119 419.111679 
L 89.920368 418.000106 
L 90.005959 411.886452 
L 90.065153 412.442239 
L 90.353671 404.661226 
L 90.454394 402.993866 
L 92.487472 402.993866 
L 92.675436 399.659146 
L 92.724902 402.438079 
L 92.954083 397.991786 
L 93.067579 397.435999 
L 93.913163 396.880212 
L 94.059456 395.768639 
L 94.293757 395.768639 
L 94.729222 395.212852 
L 94.961845 394.657066 
L 95.067205 393.545492 
L 95.131292 392.989706 
L 95.348611 392.433919 
L 95.353988 391.878132 
L 95.572559 392.433919 
L 95.651579 390.766559 
L 97.67783 390.766559 
L 100.797449 402.993866 
L 101.261615 390.210772 
L 101.600537 389.654986 
L 102.812123 389.654986 
L 103.033738 389.099199 
L 103.508001 388.543412 
L 104.522065 402.993866 
L 104.587858 387.987626 
L 105.366 387.431839 
L 107.03006 386.876052 
L 107.148733 387.431839 
L 107.391141 385.764479 
L 107.92531 385.764479 
L 108.087617 385.208692 
L 108.394168 384.652906 
L 108.419598 383.541332 
L 108.70237 382.429759 
L 108.718754 382.985546 
L 108.886949 382.985546 
L 109.300369 378.539252 
L 109.664579 376.871892 
L 109.842588 377.983466 
L 111.101222 374.648746 
L 111.432634 375.760319 
L 112.796515 373.537172 
L 113.876998 377.427679 
L 114.256198 373.537172 
L 115.813533 371.869812 
L 118.109897 371.869812 
L 118.413178 371.314026 
L 118.654534 369.646666 
L 119.332748 371.314026 
L 122.099194 371.869812 
L 122.785458 369.646666 
L 123.118094 367.979306 
L 123.686709 369.646666 
L 124.972395 367.979306 
L 129.339156 367.979306 
L 133.930833 367.423519 
L 134.237043 366.867732 
L 137.135901 366.311946 
L 139.052752 366.311946 
L 139.409566 365.756159 
L 139.487192 366.311946 
L 141.526414 364.644586 
L 143.439141 364.644586 
L 143.483543 364.088799 
L 144.524801 363.533012 
L 147.036693 363.533012 
L 148.144739 359.642506 
L 148.969445 359.086719 
L 150.030642 358.530932 
L 150.051236 357.975146 
L 154.028558 357.975146 
L 154.105388 354.084639 
L 154.252591 354.084639 
L 154.382613 352.973066 
L 155.846961 352.973066 
L 156.28965 352.417279 
L 158.441742 352.417279 
L 161.43114 351.861492 
L 161.580647 363.533012 
L 161.587986 352.417279 
L 161.779449 351.861492 
L 162.844856 351.861492 
L 164.461613 351.305706 
L 166.090885 351.305706 
L 167.385104 350.749919 
L 170.952647 349.638346 
L 173.008452 349.638346 
L 174.660651 349.082559 
L 174.917736 346.303626 
L 175.091734 346.303626 
L 175.399623 345.747839 
L 177.005599 345.192052 
L 177.376835 342.968906 
L 179.596426 341.857332 
L 179.623164 342.413119 
L 179.832292 341.857332 
L 182.678782 340.745759 
L 184.814376 340.189972 
L 185.834726 340.189972 
L 186.739106 339.634186 
L 187.522851 338.522612 
L 188.354128 337.966826 
L 188.65482 337.411039 
L 190.616017 337.966826 
L 192.428731 336.855252 
L 192.63911 337.411039 
L 193.120883 337.411039 
L 193.217567 336.855252 
L 194.508885 336.299466 
L 195.324175 336.855252 
L 196.818988 335.743679 
L 197.794594 335.743679 
L 199.875858 335.187892 
L 200.220981 335.743679 
L 200.584906 334.076319 
L 201.847722 334.076319 
L 202.097583 333.520532 
L 203.184978 331.297386 
L 203.492212 330.185812 
L 204.290037 330.741599 
L 204.641504 329.630026 
L 204.676662 329.074239 
L 207.50216 329.074239 
L 208.933199 328.518452 
L 209.300111 327.962666 
L 211.520527 327.962666 
L 213.082897 327.406879 
L 215.736559 327.406879 
L 216.395288 326.851092 
L 223.692396 326.851092 
L 224.111476 326.295306 
L 224.153461 325.739519 
L 224.437228 325.183732 
L 227.604237 325.183732 
L 227.801617 324.627946 
L 228.607378 324.072159 
L 228.746929 323.516372 
L 230.08191 322.960586 
L 231.05288 322.404799 
L 234.943103 322.404799 
L 235.85485 321.293226 
L 239.854216 321.293226 
L 240.744886 320.737439 
L 244.472147 320.737439 
L 244.84344 320.181652 
L 245.768215 319.625866 
L 246.043505 319.070079 
L 246.136976 318.514292 
L 248.907262 317.958506 
L 249.25065 318.514292 
L 252.897554 317.402719 
L 255.780995 316.291146 
L 256.171516 315.735359 
L 261.641204 315.735359 
L 262.349485 315.179572 
L 267.447709 315.179572 
L 272.250134 314.623786 
L 272.854192 314.067999 
L 274.869662 313.512212 
L 276.890821 312.956426 
L 277.201896 312.400639 
L 281.736824 312.400639 
L 283.118682 311.844852 
L 293.547357 311.844852 
L 294.831278 311.289066 
L 303.445646 311.289066 
L 303.915301 310.733279 
L 304.415819 311.289066 
L 306.657285 310.733279 
L 314.200726 310.733279 
L 315.211605 310.177492 
L 331.169445 310.177492 
L 331.192998 309.621706 
L 341.048562 309.621706 
L 343.213881 309.065919 
L 343.219428 308.510132 
L 354.044369 308.510132 
L 354.049176 307.398559 
L 360.457606 307.398559 
L 363.394608 306.842772 
L 367.032979 306.842772 
L 370.388948 305.731199 
L 377.148872 305.731199 
L 377.546277 305.175412 
L 377.598958 304.619626 
L 380.154513 304.619626 
L 380.168166 304.063839 
L 380.43353 304.063839 
L 380.856535 303.508052 
L 384.648509 303.508052 
L 384.792412 302.952266 
L 389.855422 302.952266 
L 390.062814 302.396479 
L 402.427512 302.396479 
L 403.084904 300.729119 
L 403.085843 300.173332 
L 404.837599 300.173332 
L 404.841781 299.617546 
L 410.008842 299.617546 
L 410.123476 299.061759 
L 412.597024 299.061759 
L 412.685886 298.505972 
L 421.874985 298.505972 
L 422.167627 297.950186 
L 424.184604 297.950186 
L 424.259642 297.394399 
L 424.931655 296.838612 
L 441.803946 296.838612 
L 442.682725 295.727039 
L 443.998136 295.727039 
L 444.266201 295.171252 
L 445.581697 295.171252 
L 445.776659 294.615466 
L 448.884758 294.615466 
L 448.921907 294.059679 
L 466.123733 294.059679 
L 466.199852 292.948106 
L 487.701451 292.948106 
L 488.259883 292.392319 
L 524.971448 292.392319 
L 526.696267 291.836532 
L 542.210849 291.836532 
L 542.294307 291.280746 
L 549.240148 291.280746 
L 549.577761 290.724959 
L 687.049118 290.724959 
L 687.446125 290.169172 
L 704.900571 290.169172 
L 705.355093 289.613386 
L 711.651336 289.613386 
L 712.792122 289.057599 
L 712.805691 285.167092 
L 718.750524 285.167092 
L 718.820868 282.388159 
L 793.202992 282.388159 
L 793.683627 281.832372 
L 812.012614 281.832372 
L 812.012614 281.832372 
" clip-path="url(#p2aeb4e2c73)" style="fill: none; stroke: #cf222e; stroke-width: 2; stroke-linecap: square"/>
   </g>
   <g id="line2d_33">
    <path d="M 85.239886 454.682026 
L 85.255958 454.126239 
L 85.382669 -1 
M 85.496555 -1 
L 85.621931 101.201706 
L 87.601731 101.201706 
L 87.610777 97.866986 
L 90.005959 97.866986 
L 90.161041 98.422772 
L 90.454394 98.422772 
L 90.723882 98.978559 
L 92.393745 99.534346 
L 92.426713 98.978559 
L 92.487472 99.534346 
L 97.67783 99.534346 
L 100.797449 98.422772 
L 101.261615 99.534346 
L 101.600537 98.978559 
L 102.45474 99.534346 
L 102.812123 96.755412 
L 103.508001 96.755412 
L 104.522065 98.422772 
L 104.587858 95.643839 
L 105.366 96.199626 
L 107.391141 96.199626 
L 107.92531 95.088052 
L 108.718754 95.088052 
L 108.979168 91.197546 
L 113.876998 91.197546 
L 114.256198 86.751252 
L 115.813533 86.751252 
L 118.109897 82.860746 
L 119.314515 82.860746 
L 119.332748 83.416532 
L 122.099194 83.416532 
L 122.785458 80.081812 
L 124.957319 80.081812 
L 124.972395 80.637599 
L 137.135901 80.637599 
L 139.409566 81.193386 
L 139.487192 80.637599 
L 141.845282 81.193386 
L 150.051236 81.193386 
L 154.028558 81.749172 
L 154.105388 74.523946 
L 154.294319 75.079732 
L 156.53806 75.079732 
L 157.493016 75.635519 
L 161.43114 75.635519 
L 161.580647 80.637599 
L 161.587986 71.745012 
L 161.779449 71.745012 
L 162.844856 73.968159 
L 167.385104 73.968159 
L 170.952647 70.077652 
L 174.917736 70.077652 
L 175.091734 68.410292 
L 185.394995 68.410292 
L 185.834726 68.966079 
L 188.336492 68.966079 
L 188.354128 70.077652 
L 193.120883 70.077652 
L 193.217567 73.412372 
L 200.584906 73.412372 
L 200.760867 68.410292 
L 201.845133 67.298719 
L 201.847722 67.854506 
L 202.097583 67.854506 
L 202.987797 65.075572 
L 204.290037 65.075572 
L 204.641504 65.631359 
L 204.676662 65.075572 
L 205.481484 65.631359 
L 205.485154 66.187146 
L 205.503956 65.631359 
L 205.968861 63.408212 
L 210.203837 63.408212 
L 211.520527 63.963999 
L 213.082897 63.963999 
L 215.736559 64.519786 
L 218.248735 64.519786 
L 220.189651 65.631359 
L 224.153461 65.075572 
L 224.437228 65.075572 
L 226.908074 66.187146 
L 227.604237 65.631359 
L 231.05288 65.631359 
L 234.940998 67.854506 
L 234.943103 67.298719 
L 240.744886 67.298719 
L 242.544231 67.854506 
L 274.610699 67.854506 
L 274.869662 68.410292 
L 276.8764 68.410292 
L 276.890821 66.742932 
L 286.56357 66.742932 
L 286.758959 67.298719 
L 306.657285 67.298719 
L 311.038838 67.854506 
L 311.064182 67.298719 
L 314.200726 68.966079 
L 315.211605 68.966079 
L 316.16949 68.410292 
L 318.803781 68.410292 
L 321.317209 68.966079 
L 321.321333 69.521866 
L 328.447857 67.854506 
L 329.124478 68.410292 
L 337.901067 68.410292 
L 338.274578 67.854506 
L 338.958794 68.410292 
L 339.19392 70.633439 
L 343.215957 70.633439 
L 343.219428 71.189226 
L 355.52678 71.189226 
L 356.24348 71.745012 
L 358.608738 71.745012 
L 358.839484 72.300799 
L 370.373275 72.300799 
L 370.388948 72.856586 
L 372.417787 72.856586 
L 373.273726 73.412372 
L 373.278021 73.968159 
L 373.978024 73.412372 
L 374.014575 73.968159 
L 375.101601 73.968159 
L 375.272385 74.523946 
L 377.546277 74.523946 
L 377.598958 73.412372 
L 377.952614 74.523946 
L 379.233407 72.856586 
L 382.330583 72.856586 
L 382.559253 71.189226 
L 383.597808 71.189226 
L 384.107514 72.300799 
L 386.734011 72.300799 
L 387.595837 72.856586 
L 387.805164 72.856586 
L 388.615192 70.077652 
L 390.062814 70.077652 
L 390.393459 70.633439 
L 397.09399 70.633439 
L 397.259085 71.189226 
L 397.878816 71.189226 
L 398.840968 71.745012 
L 409.678625 71.745012 
L 409.775992 72.300799 
L 410.123476 72.300799 
L 410.84888 73.412372 
L 411.865902 73.412372 
L 412.110444 72.856586 
L 412.346054 72.856586 
L 412.435456 73.412372 
L 415.155253 73.412372 
L 415.618281 73.968159 
L 417.985644 73.968159 
L 418.137426 74.523946 
L 419.434177 74.523946 
L 419.588604 75.079732 
L 423.547266 75.079732 
L 423.633909 75.635519 
L 425.984262 75.635519 
L 426.769287 77.858666 
L 427.639647 77.858666 
L 427.640557 78.414452 
L 431.174563 78.414452 
L 431.822455 78.970239 
L 434.528399 78.970239 
L 435.061373 79.526026 
L 437.112883 79.526026 
L 437.266628 80.081812 
L 440.602913 80.081812 
L 441.46289 80.637599 
L 441.525526 81.193386 
L 441.803946 81.193386 
L 442.682725 60.629279 
L 445.408069 60.629279 
L 445.427696 61.185066 
L 445.581697 61.185066 
L 445.776659 60.629279 
L 448.021424 60.629279 
L 448.268583 61.185066 
L 448.563443 61.185066 
L 448.860039 61.740852 
L 448.921907 61.185066 
L 450.130763 61.185066 
L 450.140206 61.740852 
L 450.402242 61.740852 
L 450.516989 62.296639 
L 451.309865 62.852426 
L 456.826373 62.852426 
L 457.688598 63.408212 
L 458.265775 63.408212 
L 458.734036 63.963999 
L 459.207731 63.408212 
L 461.158119 63.408212 
L 461.242231 64.519786 
L 464.042157 64.519786 
L 465.128528 66.187146 
L 476.920315 66.187146 
L 477.60564 66.742932 
L 495.806909 66.742932 
L 495.918726 67.298719 
L 522.663592 67.298719 
L 522.789859 68.410292 
L 522.79825 67.854506 
L 526.696267 67.854506 
L 527.576383 68.410292 
L 542.933238 68.410292 
L 546.385664 68.966079 
L 547.198309 69.521866 
L 547.205108 67.854506 
L 571.851842 67.854506 
L 572.091064 68.410292 
L 594.008672 68.410292 
L 596.821938 68.966079 
L 598.542775 68.966079 
L 598.729517 69.521866 
L 599.925572 70.077652 
L 603.27972 70.077652 
L 604.692355 70.633439 
L 606.170528 70.633439 
L 606.285645 71.189226 
L 608.716952 71.189226 
L 609.007376 71.745012 
L 609.064863 72.300799 
L 613.393594 72.300799 
L 613.410376 72.856586 
L 616.497455 72.856586 
L 617.096079 72.300799 
L 617.104215 72.856586 
L 618.353007 73.412372 
L 620.569953 73.412372 
L 622.165319 73.968159 
L 623.593058 73.968159 
L 625.697362 61.740852 
L 628.154099 61.740852 
L 628.165477 64.519786 
L 640.518029 64.519786 
L 640.519309 65.075572 
L 640.732959 65.631359 
L 641.9161 65.631359 
L 642.173442 66.187146 
L 646.054221 66.187146 
L 646.951348 66.742932 
L 647.098949 66.187146 
L 654.040153 66.187146 
L 654.041718 66.742932 
L 665.019181 66.742932 
L 665.094248 67.854506 
L 666.683356 69.521866 
L 668.277868 69.521866 
L 668.447713 70.077652 
L 675.150606 70.077652 
L 675.273858 70.633439 
L 682.004313 70.633439 
L 682.150919 71.189226 
L 684.005874 72.856586 
L 684.149606 73.412372 
L 702.422869 73.412372 
L 704.152922 76.191306 
L 708.281031 76.191306 
L 708.549921 76.747092 
L 711.651336 76.747092 
L 712.805691 77.858666 
L 729.152716 77.858666 
L 729.359966 78.414452 
L 731.752986 78.414452 
L 732.009333 78.970239 
L 747.773463 78.970239 
L 747.781541 80.637599 
L 748.271165 80.637599 
L 748.466241 81.193386 
L 751.164192 81.193386 
L 751.559805 81.749172 
L 751.562166 81.193386 
L 758.682972 81.193386 
L 760.400793 81.749172 
L 792.449256 81.749172 
L 792.452413 82.304959 
L 805.213833 82.304959 
L 806.811134 82.860746 
L 812.012614 82.860746 
L 812.012614 82.860746 
" clip-path="url(#p2aeb4e2c73)" style="fill: none; stroke: #9467bd; stroke-width: 2; stroke-linecap: square"/>
   </g>
   <g id="patch_3">
    <path d="M 48.90125 455.237812 
L 48.90125 38.397812 
" style="fill: none; stroke: #d0d7de; stroke-width: 0.8; stroke-linejoin: miter; stroke-linecap: square"/>
   </g>
   <g id="patch_4">
    <path d="M 848.35125 455.237812 
L 848.35125 38.397812 
" style="fill: none; stroke: #d0d7de; stroke-width: 0.8; stroke-linejoin: miter; stroke-linecap: square"/>
   </g>
   <g id="patch_5">
    <path d="M 48.90125 455.237812 
L 848.35125 455.237812 
" style="fill: none; stroke: #d0d7de; stroke-width: 0.8; stroke-linejoin: miter; stroke-linecap: square"/>
   </g>
   <g id="patch_6">
    <path d="M 48.90125 38.397812 
L 848.35125 38.397812 
" style="fill: none; stroke: #d0d7de; stroke-width: 0.8; stroke-linejoin: miter; stroke-linecap: square"/>
   </g>
   <g id="text_17">
    <!-- 547 -->
    <g style="fill: #1a7f37" transform="translate(817.012614 153.705943) scale(0.09 -0.09)">
     <defs>
      <path id="DejaVuSans-Bold-35" d="M 678 4666 
L 3669 4666 
L 3669 3781 
L 1638 3781 
L 1638 3059 
Q 1775 3097 1914 3117 
Q 2053 3138 2203 3138 
Q 3056 3138 3531 2711 
Q 4006 2284 4006 1522 
Q 4006 766 3489 337 
Q 2972 -91 2053 -91 
Q 1656 -91 1267 -14 
Q 878 63 494 219 
L 494 1166 
Q 875 947 1217 837 
Q 1559 728 1863 728 
Q 2300 728 2551 942 
Q 2803 1156 2803 1522 
Q 2803 1891 2551 2103 
Q 2300 2316 1863 2316 
Q 1603 2316 1309 2248 
Q 1016 2181 678 2041 
L 678 4666 
z
" transform="scale(0.015625)"/>
      <path id="DejaVuSans-Bold-34" d="M 2356 3675 
L 1038 1722 
L 2356 1722 
L 2356 3675 
z
M 2156 4666 
L 3494 4666 
L 3494 1722 
L 4159 1722 
L 4159 850 
L 3494 850 
L 3494 0 
L 2356 0 
L 2356 850 
L 288 850 
L 288 1881 
L 2156 4666 
z
" transform="scale(0.015625)"/>
      <path id="DejaVuSans-Bold-37" d="M 428 4666 
L 3944 4666 
L 3944 3988 
L 2125 0 
L 953 0 
L 2675 3781 
L 428 3781 
L 428 4666 
z
" transform="scale(0.015625)"/>
     </defs>
     <use xlink:href="#DejaVuSans-Bold-35"/>
     <use xlink:href="#DejaVuSans-Bold-34" transform="translate(69.580078 0)"/>
     <use xlink:href="#DejaVuSans-Bold-37" transform="translate(139.160156 0)"/>
    </g>
   </g>
   <g id="text_18">
    <!-- 451 -->
    <g style="fill: #0969da" transform="translate(817.012614 207.061463) scale(0.09 -0.09)">
     <defs>
      <path id="DejaVuSans-Bold-31" d="M 750 831 
L 1813 831 
L 1813 3847 
L 722 3622 
L 722 4441 
L 1806 4666 
L 2950 4666 
L 2950 831 
L 4013 831 
L 4013 0 
L 750 0 
L 750 831 
z
" transform="scale(0.015625)"/>
     </defs>
     <use xlink:href="#DejaVuSans-Bold-34"/>
     <use xlink:href="#DejaVuSans-Bold-35" transform="translate(69.580078 0)"/>
     <use xlink:href="#DejaVuSans-Bold-31" transform="translate(139.160156 0)"/>
    </g>
   </g>
   <g id="text_19">
    <!-- 191 -->
    <g style="fill: #bf8700" transform="translate(817.012614 351.565997) scale(0.09 -0.09)">
     <defs>
      <path id="DejaVuSans-Bold-39" d="M 641 103 
L 641 966 
Q 928 831 1190 764 
Q 1453 697 1709 697 
Q 2247 697 2547 995 
Q 2847 1294 2900 1881 
Q 2688 1725 2447 1647 
Q 2206 1569 1925 1569 
Q 1209 1569 770 1986 
Q 331 2403 331 3084 
Q 331 3838 820 4291 
Q 1309 4744 2131 4744 
Q 3044 4744 3544 4128 
Q 4044 3513 4044 2388 
Q 4044 1231 3459 570 
Q 2875 -91 1856 -91 
Q 1528 -91 1228 -42 
Q 928 6 641 103 
z
M 2125 2350 
Q 2441 2350 2600 2554 
Q 2759 2759 2759 3169 
Q 2759 3575 2600 3781 
Q 2441 3988 2125 3988 
Q 1809 3988 1650 3781 
Q 1491 3575 1491 3169 
Q 1491 2759 1650 2554 
Q 1809 2350 2125 2350 
z
" transform="scale(0.015625)"/>
     </defs>
     <use xlink:href="#DejaVuSans-Bold-31"/>
     <use xlink:href="#DejaVuSans-Bold-39" transform="translate(69.580078 0)"/>
     <use xlink:href="#DejaVuSans-Bold-31" transform="translate(139.160156 0)"/>
    </g>
   </g>
   <g id="text_20">
    <!-- 312 -->
    <g style="fill: #cf222e" transform="translate(817.012614 284.31581) scale(0.09 -0.09)">
     <defs>
      <path id="DejaVuSans-Bold-33" d="M 2981 2516 
Q 3453 2394 3698 2092 
Q 3944 1791 3944 1325 
Q 3944 631 3412 270 
Q 2881 -91 1863 -91 
Q 1503 -91 1142 -33 
Q 781 25 428 141 
L 428 1069 
Q 766 900 1098 814 
Q 1431 728 1753 728 
Q 2231 728 2486 893 
Q 2741 1059 2741 1369 
Q 2741 1688 2480 1852 
Q 2219 2016 1709 2016 
L 1228 2016 
L 1228 2791 
L 1734 2791 
Q 2188 2791 2409 2933 
Q 2631 3075 2631 3366 
Q 2631 3634 2415 3781 
Q 2200 3928 1806 3928 
Q 1516 3928 1219 3862 
Q 922 3797 628 3669 
L 628 4550 
Q 984 4650 1334 4700 
Q 1684 4750 2022 4750 
Q 2931 4750 3382 4451 
Q 3834 4153 3834 3553 
Q 3834 3144 3618 2883 
Q 3403 2622 2981 2516 
z
" transform="scale(0.015625)"/>
      <path id="DejaVuSans-Bold-32" d="M 1844 884 
L 3897 884 
L 3897 0 
L 506 0 
L 506 884 
L 2209 2388 
Q 2438 2594 2547 2791 
Q 2656 2988 2656 3200 
Q 2656 3528 2436 3728 
Q 2216 3928 1850 3928 
Q 1569 3928 1234 3808 
Q 900 3688 519 3450 
L 519 4475 
Q 925 4609 1322 4679 
Q 1719 4750 2100 4750 
Q 2938 4750 3402 4381 
Q 3866 4013 3866 3353 
Q 3866 2972 3669 2642 
Q 3472 2313 2841 1759 
L 1844 884 
z
" transform="scale(0.015625)"/>
     </defs>
     <use xlink:href="#DejaVuSans-Bold-33"/>
     <use xlink:href="#DejaVuSans-Bold-31" transform="translate(69.580078 0)"/>
     <use xlink:href="#DejaVuSans-Bold-32" transform="translate(139.160156 0)"/>
    </g>
   </g>
   <g id="text_21">
    <!-- 670 -->
    <g style="fill: #9467bd" transform="translate(817.012614 85.344183) scale(0.09 -0.09)">
     <defs>
      <path id="DejaVuSans-Bold-36" d="M 2316 2303 
Q 2000 2303 1842 2098 
Q 1684 1894 1684 1484 
Q 1684 1075 1842 870 
Q 2000 666 2316 666 
Q 2634 666 2792 870 
Q 2950 1075 2950 1484 
Q 2950 1894 2792 2098 
Q 2634 2303 2316 2303 
z
M 3803 4544 
L 3803 3681 
Q 3506 3822 3243 3889 
Q 2981 3956 2731 3956 
Q 2194 3956 1894 3657 
Q 1594 3359 1544 2772 
Q 1750 2925 1990 3001 
Q 2231 3078 2516 3078 
Q 3231 3078 3670 2659 
Q 4109 2241 4109 1563 
Q 4109 813 3618 361 
Q 3128 -91 2303 -91 
Q 1394 -91 895 523 
Q 397 1138 397 2266 
Q 397 3422 980 4083 
Q 1563 4744 2578 4744 
Q 2900 4744 3203 4694 
Q 3506 4644 3803 4544 
z
" transform="scale(0.015625)"/>
      <path id="DejaVuSans-Bold-30" d="M 2944 2338 
Q 2944 3213 2780 3570 
Q 2616 3928 2228 3928 
Q 1841 3928 1675 3570 
Q 1509 3213 1509 2338 
Q 1509 1453 1675 1090 
Q 1841 728 2228 728 
Q 2613 728 2778 1090 
Q 2944 1453 2944 2338 
z
M 4147 2328 
Q 4147 1169 3647 539 
Q 3147 -91 2228 -91 
Q 1306 -91 806 539 
Q 306 1169 306 2328 
Q 306 3491 806 4120 
Q 1306 4750 2228 4750 
Q 3147 4750 3647 4120 
Q 4147 3491 4147 2328 
z
" transform="scale(0.015625)"/>
     </defs>
     <use xlink:href="#DejaVuSans-Bold-36"/>
     <use xlink:href="#DejaVuSans-Bold-37" transform="translate(69.580078 0)"/>
     <use xlink:href="#DejaVuSans-Bold-30" transform="translate(139.160156 0)"/>
    </g>
   </g>
   <g id="text_22">
    <!-- Erdős Problems Progress -->
    <g style="fill: #24292f" transform="translate(349.588281 18.397812) scale(0.14 -0.14)">
     <defs>
      <path id="DejaVuSans-Bold-45" d="M 588 4666 
L 3834 4666 
L 3834 3756 
L 1791 3756 
L 1791 2888 
L 3713 2888 
L 3713 1978 
L 1791 1978 
L 1791 909 
L 3903 909 
L 3903 0 
L 588 0 
L 588 4666 
z
" transform="scale(0.015625)"/>
      <path id="DejaVuSans-Bold-72" d="M 3138 2547 
Q 2991 2616 2845 2648 
Q 2700 2681 2553 2681 
Q 2122 2681 1889 2404 
Q 1656 2128 1656 1613 
L 1656 0 
L 538 0 
L 538 3500 
L 1656 3500 
L 1656 2925 
Q 1872 3269 2151 3426 
Q 2431 3584 2822 3584 
Q 2878 3584 2943 3579 
Q 3009 3575 3134 3559 
L 3138 2547 
z
" transform="scale(0.015625)"/>
      <path id="DejaVuSans-Bold-64" d="M 2919 2988 
L 2919 4863 
L 4044 4863 
L 4044 0 
L 2919 0 
L 2919 506 
Q 2688 197 2409 53 
Q 2131 -91 1766 -91 
Q 1119 -91 703 423 
Q 288 938 288 1747 
Q 288 2556 703 3070 
Q 1119 3584 1766 3584 
Q 2128 3584 2408 3439 
Q 2688 3294 2919 2988 
z
M 2181 722 
Q 2541 722 2730 984 
Q 2919 1247 2919 1747 
Q 2919 2247 2730 2509 
Q 2541 2772 2181 2772 
Q 1825 2772 1636 2509 
Q 1447 2247 1447 1747 
Q 1447 1247 1636 984 
Q 1825 722 2181 722 
z
" transform="scale(0.015625)"/>
      <path id="DejaVuSans-Bold-151" d="M 1881 5119 
L 2560 5119 
L 1785 3944 
L 1275 3944 
L 1881 5119 
z
M 3016 5119 
L 3738 5119 
L 2888 3944 
L 2344 3944 
L 3016 5119 
z
M 2203 2784 
Q 1831 2784 1636 2517 
Q 1441 2250 1441 1747 
Q 1441 1244 1636 976 
Q 1831 709 2203 709 
Q 2569 709 2762 976 
Q 2956 1244 2956 1747 
Q 2956 2250 2762 2517 
Q 2569 2784 2203 2784 
z
M 2203 3584 
Q 3106 3584 3614 3096 
Q 4122 2609 4122 1747 
Q 4122 884 3614 396 
Q 3106 -91 2203 -91 
Q 1297 -91 786 396 
Q 275 884 275 1747 
Q 275 2609 786 3096 
Q 1297 3584 2203 3584 
z
" transform="scale(0.015625)"/>
      <path id="DejaVuSans-Bold-73" d="M 3272 3391 
L 3272 2541 
Q 2913 2691 2578 2766 
Q 2244 2841 1947 2841 
Q 1628 2841 1473 2761 
Q 1319 2681 1319 2516 
Q 1319 2381 1436 2309 
Q 1553 2238 1856 2203 
L 2053 2175 
Q 2913 2066 3209 1816 
Q 3506 1566 3506 1031 
Q 3506 472 3093 190 
Q 2681 -91 1863 -91 
Q 1516 -91 1145 -36 
Q 775 19 384 128 
L 384 978 
Q 719 816 1070 734 
Q 1422 653 1784 653 
Q 2113 653 2278 743 
Q 2444 834 2444 1013 
Q 2444 1163 2330 1236 
Q 2216 1309 1875 1350 
L 1678 1375 
Q 931 1469 631 1722 
Q 331 1975 331 2491 
Q 331 3047 712 3315 
Q 1094 3584 1881 3584 
Q 2191 3584 2531 3537 
Q 2872 3491 3272 3391 
z
" transform="scale(0.015625)"/>
      <path id="DejaVuSans-Bold-20" transform="scale(0.015625)"/>
      <path id="DejaVuSans-Bold-50" d="M 588 4666 
L 2584 4666 
Q 3475 4666 3951 4270 
Q 4428 3875 4428 3144 
Q 4428 2409 3951 2014 
Q 3475 1619 2584 1619 
L 1791 1619 
L 1791 0 
L 588 0 
L 588 4666 
z
M 1791 3794 
L 1791 2491 
L 2456 2491 
Q 2806 2491 2997 2661 
Q 3188 2831 3188 3144 
Q 3188 3456 2997 3625 
Q 2806 3794 2456 3794 
L 1791 3794 
z
" transform="scale(0.015625)"/>
      <path id="DejaVuSans-Bold-6f" d="M 2203 2784 
Q 1831 2784 1636 2517 
Q 1441 2250 1441 1747 
Q 1441 1244 1636 976 
Q 1831 709 2203 709 
Q 2569 709 2762 976 
Q 2956 1244 2956 1747 
Q 2956 2250 2762 2517 
Q 2569 2784 2203 2784 
z
M 2203 3584 
Q 3106 3584 3614 3096 
Q 4122 2609 4122 1747 
Q 4122 884 3614 396 
Q 3106 -91 2203 -91 
Q 1297 -91 786 396 
Q 275 884 275 1747 
Q 275 2609 786 3096 
Q 1297 3584 2203 3584 
z
" transform="scale(0.015625)"/>
      <path id="DejaVuSans-Bold-62" d="M 2400 722 
Q 2759 722 2948 984 
Q 3138 1247 3138 1747 
Q 3138 2247 2948 2509 
Q 2759 2772 2400 2772 
Q 2041 2772 1848 2508 
Q 1656 2244 1656 1747 
Q 1656 1250 1848 986 
Q 2041 722 2400 722 
z
M 1656 2988 
Q 1888 3294 2169 3439 
Q 2450 3584 2816 3584 
Q 3463 3584 3878 3070 
Q 4294 2556 4294 1747 
Q 4294 938 3878 423 
Q 3463 -91 2816 -91 
Q 2450 -91 2169 54 
Q 1888 200 1656 506 
L 1656 0 
L 538 0 
L 538 4863 
L 1656 4863 
L 1656 2988 
z
" transform="scale(0.015625)"/>
      <path id="DejaVuSans-Bold-6c" d="M 538 4863 
L 1656 4863 
L 1656 0 
L 538 0 
L 538 4863 
z
" transform="scale(0.015625)"/>
      <path id="DejaVuSans-Bold-65" d="M 4031 1759 
L 4031 1441 
L 1416 1441 
Q 1456 1047 1700 850 
Q 1944 653 2381 653 
Q 2734 653 3104 758 
Q 3475 863 3866 1075 
L 3866 213 
Q 3469 63 3072 -14 
Q 2675 -91 2278 -91 
Q 1328 -91 801 392 
Q 275 875 275 1747 
Q 275 2603 792 3093 
Q 1309 3584 2216 3584 
Q 3041 3584 3536 3087 
Q 4031 2591 4031 1759 
z
M 2881 2131 
Q 2881 2450 2695 2645 
Q 2509 2841 2209 2841 
Q 1884 2841 1681 2658 
Q 1478 2475 1428 2131 
L 2881 2131 
z
" transform="scale(0.015625)"/>
      <path id="DejaVuSans-Bold-6d" d="M 3781 2919 
Q 3994 3244 4286 3414 
Q 4578 3584 4928 3584 
Q 5531 3584 5847 3212 
Q 6163 2841 6163 2131 
L 6163 0 
L 5038 0 
L 5038 1825 
Q 5041 1866 5042 1909 
Q 5044 1953 5044 2034 
Q 5044 2406 4934 2573 
Q 4825 2741 4581 2741 
Q 4263 2741 4089 2478 
Q 3916 2216 3909 1719 
L 3909 0 
L 2784 0 
L 2784 1825 
Q 2784 2406 2684 2573 
Q 2584 2741 2328 2741 
Q 2006 2741 1831 2477 
Q 1656 2213 1656 1722 
L 1656 0 
L 531 0 
L 531 3500 
L 1656 3500 
L 1656 2988 
Q 1863 3284 2130 3434 
Q 2397 3584 2719 3584 
Q 3081 3584 3359 3409 
Q 3638 3234 3781 2919 
z
" transform="scale(0.015625)"/>
      <path id="DejaVuSans-Bold-67" d="M 2919 594 
Q 2688 288 2409 144 
Q 2131 0 1766 0 
Q 1125 0 706 504 
Q 288 1009 288 1791 
Q 288 2575 706 3076 
Q 1125 3578 1766 3578 
Q 2131 3578 2409 3434 
Q 2688 3291 2919 2981 
L 2919 3500 
L 4044 3500 
L 4044 353 
Q 4044 -491 3511 -936 
Q 2978 -1381 1966 -1381 
Q 1638 -1381 1331 -1331 
Q 1025 -1281 716 -1178 
L 716 -306 
Q 1009 -475 1290 -558 
Q 1572 -641 1856 -641 
Q 2406 -641 2662 -400 
Q 2919 -159 2919 353 
L 2919 594 
z
M 2181 2772 
Q 1834 2772 1640 2515 
Q 1447 2259 1447 1791 
Q 1447 1309 1634 1061 
Q 1822 813 2181 813 
Q 2531 813 2725 1069 
Q 2919 1325 2919 1791 
Q 2919 2259 2725 2515 
Q 2531 2772 2181 2772 
z
" transform="scale(0.015625)"/>
     </defs>
     <use xlink:href="#DejaVuSans-Bold-45"/>
     <use xlink:href="#DejaVuSans-Bold-72" transform="translate(68.310547 0)"/>
     <use xlink:href="#DejaVuSans-Bold-64" transform="translate(117.626953 0)"/>
     <use xlink:href="#DejaVuSans-Bold-151" transform="translate(189.208984 0)"/>
     <use xlink:href="#DejaVuSans-Bold-73" transform="translate(257.910156 0)"/>
     <use xlink:href="#DejaVuSans-Bold-20" transform="translate(317.431641 0)"/>
     <use xlink:href="#DejaVuSans-Bold-50" transform="translate(352.246094 0)"/>
     <use xlink:href="#DejaVuSans-Bold-72" transform="translate(425.537109 0)"/>
     <use xlink:href="#DejaVuSans-Bold-6f" transform="translate(474.853516 0)"/>
     <use xlink:href="#DejaVuSans-Bold-62" transform="translate(543.554688 0)"/>
     <use xlink:href="#DejaVuSans-Bold-6c" transform="translate(615.136719 0)"/>
     <use xlink:href="#DejaVuSans-Bold-65" transform="translate(649.414062 0)"/>
     <use xlink:href="#DejaVuSans-Bold-6d" transform="translate(717.236328 0)"/>
     <use xlink:href="#DejaVuSans-Bold-73" transform="translate(821.435547 0)"/>
     <use xlink:href="#DejaVuSans-Bold-20" transform="translate(880.957031 0)"/>
     <use xlink:href="#DejaVuSans-Bold-50" transform="translate(915.771484 0)"/>
     <use xlink:href="#DejaVuSans-Bold-72" transform="translate(989.0625 0)"/>
     <use xlink:href="#DejaVuSans-Bold-6f" transform="translate(1038.378906 0)"/>
     <use xlink:href="#DejaVuSans-Bold-67" transform="translate(1107.080078 0)"/>
     <use xlink:href="#DejaVuSans-Bold-72" transform="translate(1178.662109 0)"/>
     <use xlink:href="#DejaVuSans-Bold-65" transform="translate(1227.978516 0)"/>
     <use xlink:href="#DejaVuSans-Bold-73" transform="translate(1295.800781 0)"/>
     <use xlink:href="#DejaVuSans-Bold-73" transform="translate(1355.322266 0)"/>
    </g>
   </g>
   <g id="legend_1">
    <g id="patch_7">
     <path d="M 55.90125 119.788437 
L 213.771563 119.788437 
Q 215.771563 119.788437 215.771563 117.788437 
L 215.771563 45.397812 
Q 215.771563 43.397812 213.771563 43.397812 
L 55.90125 43.397812 
Q 53.90125 43.397812 53.90125 45.397812 
L 53.90125 117.788437 
Q 53.90125 119.788437 55.90125 119.788437 
z
" style="fill: #f6f8fa; opacity: 0.8; stroke: #d0d7de; stroke-linejoin: miter"/>
    </g>
    <g id="line2d_34">
     <path d="M 57.90125 51.49625 
L 67.90125 51.49625 
L 77.90125 51.49625 
" style="fill: none; stroke: #1a7f37; stroke-width: 2; stroke-linecap: square"/>
    </g>
    <g id="text_23">
     <!-- Solved -->
     <g style="fill: #24292f" transform="translate(85.90125 54.99625) scale(0.1 -0.1)">
      <defs>
       <path id="DejaVuSans-64" d="M 2906 2969 
L 2906 4863 
L 3481 4863 
L 3481 0 
L 2906 0 
L 2906 525 
Q 2725 213 2448 61 
Q 2172 -91 1784 -91 
Q 1150 -91 751 415 
Q 353 922 353 1747 
Q 353 2572 751 3078 
Q 1150 3584 1784 3584 
Q 2172 3584 2448 3432 
Q 2725 3281 2906 2969 
z
M 947 1747 
Q 947 1113 1208 752 
Q 1469 391 1925 391 
Q 2381 391 2643 752 
Q 2906 1113 2906 1747 
Q 2906 2381 2643 2742 
Q 2381 3103 1925 3103 
Q 1469 3103 1208 2742 
Q 947 2381 947 1747 
z
" transform="scale(0.015625)"/>
      </defs>
      <use xlink:href="#DejaVuSans-53"/>
      <use xlink:href="#DejaVuSans-6f" transform="translate(63.476562 0)"/>
      <use xlink:href="#DejaVuSans-6c" transform="translate(124.658203 0)"/>
      <use xlink:href="#DejaVuSans-76" transform="translate(152.441406 0)"/>
      <use xlink:href="#DejaVuSans-65" transform="translate(211.621094 0)"/>
      <use xlink:href="#DejaVuSans-64" transform="translate(273.144531 0)"/>
     </g>
    </g>
    <g id="line2d_35">
     <path d="M 57.90125 66.174375 
L 67.90125 66.174375 
L 77.90125 66.174375 
" style="fill: none; stroke: #0969da; stroke-width: 2; stroke-linecap: square"/>
    </g>
    <g id="text_24">
     <!-- Lean Formalized Problem -->
     <g style="fill: #24292f" transform="translate(85.90125 69.674375) scale(0.1 -0.1)">
      <defs>
       <path id="DejaVuSans-4c" d="M 628 4666 
L 1259 4666 
L 1259 531 
L 3531 531 
L 3531 0 
L 628 0 
L 628 4666 
z
" transform="scale(0.015625)"/>
       <path id="DejaVuSans-20" transform="scale(0.015625)"/>
       <path id="DejaVuSans-46" d="M 628 4666 
L 3309 4666 
L 3309 4134 
L 1259 4134 
L 1259 2759 
L 3109 2759 
L 3109 2228 
L 1259 2228 
L 1259 0 
L 628 0 
L 628 4666 
z
" transform="scale(0.015625)"/>
       <path id="DejaVuSans-6d" d="M 3328 2828 
Q 3544 3216 3844 3400 
Q 4144 3584 4550 3584 
Q 5097 3584 5394 3201 
Q 5691 2819 5691 2113 
L 5691 0 
L 5113 0 
L 5113 2094 
Q 5113 2597 4934 2840 
Q 4756 3084 4391 3084 
Q 3944 3084 3684 2787 
Q 3425 2491 3425 1978 
L 3425 0 
L 2847 0 
L 2847 2094 
Q 2847 2600 2669 2842 
Q 2491 3084 2119 3084 
Q 1678 3084 1418 2786 
Q 1159 2488 1159 1978 
L 1159 0 
L 581 0 
L 581 3500 
L 1159 3500 
L 1159 2956 
Q 1356 3278 1631 3431 
Q 1906 3584 2284 3584 
Q 2666 3584 2933 3390 
Q 3200 3197 3328 2828 
z
" transform="scale(0.015625)"/>
       <path id="DejaVuSans-69" d="M 603 3500 
L 1178 3500 
L 1178 0 
L 603 0 
L 603 3500 
z
M 603 4863 
L 1178 4863 
L 1178 4134 
L 603 4134 
L 603 4863 
z
" transform="scale(0.015625)"/>
       <path id="DejaVuSans-7a" d="M 353 3500 
L 3084 3500 
L 3084 2975 
L 922 459 
L 3084 459 
L 3084 0 
L 275 0 
L 275 525 
L 2438 3041 
L 353 3041 
L 353 3500 
z
" transform="scale(0.015625)"/>
       <path id="DejaVuSans-50" d="M 1259 4147 
L 1259 2394 
L 2053 2394 
Q 2494 2394 2734 2622 
Q 2975 2850 2975 3272 
Q 2975 3691 2734 3919 
Q 2494 4147 2053 4147 
L 1259 4147 
z
M 628 4666 
L 2053 4666 
Q 2838 4666 3239 4311 
Q 3641 3956 3641 3272 
Q 3641 2581 3239 2228 
Q 2838 1875 2053 1875 
L 1259 1875 
L 1259 0 
L 628 0 
L 628 4666 
z
" transform="scale(0.015625)"/>
       <path id="DejaVuSans-62" d="M 3116 1747 
Q 3116 2381 2855 2742 
Q 2594 3103 2138 3103 
Q 1681 3103 1420 2742 
Q 1159 2381 1159 1747 
Q 1159 1113 1420 752 
Q 1681 391 2138 391 
Q 2594 391 2855 752 
Q 3116 1113 3116 1747 
z
M 1159 2969 
Q 1341 3281 1617 3432 
Q 1894 3584 2278 3584 
Q 2916 3584 3314 3078 
Q 3713 2572 3713 1747 
Q 3713 922 3314 415 
Q 2916 -91 2278 -91 
Q 1894 -91 1617 61 
Q 1341 213 1159 525 
L 1159 0 
L 581 0 
L 581 4863 
L 1159 4863 
L 1159 2969 
z
" transform="scale(0.015625)"/>
      </defs>
      <use xlink:href="#DejaVuSans-4c"/>
      <use xlink:href="#DejaVuSans-65" transform="translate(53.962891 0)"/>
      <use xlink:href="#DejaVuSans-61" transform="translate(115.486328 0)"/>
      <use xlink:href="#DejaVuSans-6e" transform="translate(176.765625 0)"/>
      <use xlink:href="#DejaVuSans-20" transform="translate(240.144531 0)"/>
      <use xlink:href="#DejaVuSans-46" transform="translate(271.931641 0)"/>
      <use xlink:href="#DejaVuSans-6f" transform="translate(325.826172 0)"/>
      <use xlink:href="#DejaVuSans-72" transform="translate(387.007812 0)"/>
      <use xlink:href="#DejaVuSans-6d" transform="translate(426.371094 0)"/>
      <use xlink:href="#DejaVuSans-61" transform="translate(523.783203 0)"/>
      <use xlink:href="#DejaVuSans-6c" transform="translate(585.0625 0)"/>
      <use xlink:href="#DejaVuSans-69" transform="translate(612.845703 0)"/>
      <use xlink:href="#DejaVuSans-7a" transform="translate(640.628906 0)"/>
      <use xlink:href="#DejaVuSans-65" transform="translate(693.119141 0)"/>
      <use xlink:href="#DejaVuSans-64" transform="translate(754.642578 0)"/>
      <use xlink:href="#DejaVuSans-20" transform="translate(818.119141 0)"/>
      <use xlink:href="#DejaVuSans-50" transform="translate(849.90625 0)"/>
      <use xlink:href="#DejaVuSans-72" transform="translate(908.458984 0)"/>
      <use xlink:href="#DejaVuSans-6f" transform="translate(947.322266 0)"/>
      <use xlink:href="#DejaVuSans-62" transform="translate(1008.503906 0)"/>
      <use xlink:href="#DejaVuSans-6c" transform="translate(1071.980469 0)"/>
      <use xlink:href="#DejaVuSans-65" transform="translate(1099.763672 0)"/>
      <use xlink:href="#DejaVuSans-6d" transform="translate(1161.287109 0)"/>
     </g>
    </g>
    <g id="line2d_36">
     <path d="M 57.90125 80.8525 
L 67.90125 80.8525 
L 77.90125 80.8525 
" style="fill: none; stroke: #bf8700; stroke-width: 2; stroke-linecap: square"/>
    </g>
    <g id="text_25">
     <!-- Lean Formalized Solution -->
     <g style="fill: #24292f" transform="translate(85.90125 84.3525) scale(0.1 -0.1)">
      <use xlink:href="#DejaVuSans-4c"/>
      <use xlink:href="#DejaVuSans-65" transform="translate(53.962891 0)"/>
      <use xlink:href="#DejaVuSans-61" transform="translate(115.486328 0)"/>
      <use xlink:href="#DejaVuSans-6e" transform="translate(176.765625 0)"/>
      <use xlink:href="#DejaVuSans-20" transform="translate(240.144531 0)"/>
      <use xlink:href="#DejaVuSans-46" transform="translate(271.931641 0)"/>
      <use xlink:href="#DejaVuSans-6f" transform="translate(325.826172 0)"/>
      <use xlink:href="#DejaVuSans-72" transform="translate(387.007812 0)"/>
      <use xlink:href="#DejaVuSans-6d" transform="translate(426.371094 0)"/>
      <use xlink:href="#DejaVuSans-61" transform="translate(523.783203 0)"/>
      <use xlink:href="#DejaVuSans-6c" transform="translate(585.0625 0)"/>
      <use xlink:href="#DejaVuSans-69" transform="translate(612.845703 0)"/>
      <use xlink:href="#DejaVuSans-7a" transform="translate(640.628906 0)"/>
      <use xlink:href="#DejaVuSans-65" transform="translate(693.119141 0)"/>
      <use xlink:href="#DejaVuSans-64" transform="translate(754.642578 0)"/>
      <use xlink:href="#DejaVuSans-20" transform="translate(818.119141 0)"/>
      <use xlink:href="#DejaVuSans-53" transform="translate(849.90625 0)"/>
      <use xlink:href="#DejaVuSans-6f" transform="translate(913.382812 0)"/>
      <use xlink:href="#DejaVuSans-6c" transform="translate(974.564453 0)"/>
      <use xlink:href="#DejaVuSans-75" transform="translate(1002.347656 0)"/>
      <use xlink:href="#DejaVuSans-74" transform="translate(1065.726562 0)"/>
      <use xlink:href="#DejaVuSans-69" transform="translate(1104.935547 0)"/>
      <use xlink:href="#DejaVuSans-6f" transform="translate(1132.71875 0)"/>
      <use xlink:href="#DejaVuSans-6e" transform="translate(1193.900391 0)"/>
     </g>
    </g>
    <g id="line2d_37">
     <path d="M 57.90125 95.530625 
L 67.90125 95.530625 
L 77.90125 95.530625 
" style="fill: none; stroke: #cf222e; stroke-width: 2; stroke-linecap: square"/>
    </g>
    <g id="text_26">
     <!-- OEIS Linked -->
     <g style="fill: #24292f" transform="translate(85.90125 99.030625) scale(0.1 -0.1)">
      <defs>
       <path id="DejaVuSans-4f" d="M 2522 4238 
Q 1834 4238 1429 3725 
Q 1025 3213 1025 2328 
Q 1025 1447 1429 934 
Q 1834 422 2522 422 
Q 3209 422 3611 934 
Q 4013 1447 4013 2328 
Q 4013 3213 3611 3725 
Q 3209 4238 2522 4238 
z
M 2522 4750 
Q 3503 4750 4090 4092 
Q 4678 3434 4678 2328 
Q 4678 1225 4090 567 
Q 3503 -91 2522 -91 
Q 1538 -91 948 565 
Q 359 1222 359 2328 
Q 359 3434 948 4092 
Q 1538 4750 2522 4750 
z
" transform="scale(0.015625)"/>
       <path id="DejaVuSans-45" d="M 628 4666 
L 3578 4666 
L 3578 4134 
L 1259 4134 
L 1259 2753 
L 3481 2753 
L 3481 2222 
L 1259 2222 
L 1259 531 
L 3634 531 
L 3634 0 
L 628 0 
L 628 4666 
z
" transform="scale(0.015625)"/>
       <path id="DejaVuSans-49" d="M 628 4666 
L 1259 4666 
L 1259 0 
L 628 0 
L 628 4666 
z
" transform="scale(0.015625)"/>
       <path id="DejaVuSans-6b" d="M 581 4863 
L 1159 4863 
L 1159 1991 
L 2875 3500 
L 3609 3500 
L 1753 1863 
L 3688 0 
L 2938 0 
L 1159 1709 
L 1159 0 
L 581 0 
L 581 4863 
z
" transform="scale(0.015625)"/>
      </defs>
      <use xlink:href="#DejaVuSans-4f"/>
      <use xlink:href="#DejaVuSans-45" transform="translate(78.710938 0)"/>
      <use xlink:href="#DejaVuSans-49" transform="translate(141.894531 0)"/>
      <use xlink:href="#DejaVuSans-53" transform="translate(171.386719 0)"/>
      <use xlink:href="#DejaVuSans-20" transform="translate(234.863281 0)"/>
      <use xlink:href="#DejaVuSans-4c" transform="translate(266.650391 0)"/>
      <use xlink:href="#DejaVuSans-69" transform="translate(322.363281 0)"/>
      <use xlink:href="#DejaVuSans-6e" transform="translate(350.146484 0)"/>
      <use xlink:href="#DejaVuSans-6b" transform="translate(413.525391 0)"/>
      <use xlink:href="#DejaVuSans-65" transform="translate(467.810547 0)"/>
      <use xlink:href="#DejaVuSans-64" transform="translate(529.333984 0)"/>
     </g>
    </g>
    <g id="line2d_38">
     <path d="M 57.90125 110.20875 
L 67.90125 110.20875 
L 77.90125 110.20875 
" style="fill: none; stroke: #9467bd; stroke-width: 2; stroke-linecap: square"/>
    </g>
    <g id="text_27">
     <!-- Open Problems -->
     <g style="fill: #24292f" transform="translate(85.90125 113.70875) scale(0.1 -0.1)">
      <defs>
       <path id="DejaVuSans-73" d="M 2834 3397 
L 2834 2853 
Q 2591 2978 2328 3040 
Q 2066 3103 1784 3103 
Q 1356 3103 1142 2972 
Q 928 2841 928 2578 
Q 928 2378 1081 2264 
Q 1234 2150 1697 2047 
L 1894 2003 
Q 2506 1872 2764 1633 
Q 3022 1394 3022 966 
Q 3022 478 2636 193 
Q 2250 -91 1575 -91 
Q 1294 -91 989 -36 
Q 684 19 347 128 
L 347 722 
Q 666 556 975 473 
Q 1284 391 1588 391 
Q 1994 391 2212 530 
Q 2431 669 2431 922 
Q 2431 1156 2273 1281 
Q 2116 1406 1581 1522 
L 1381 1569 
Q 847 1681 609 1914 
Q 372 2147 372 2553 
Q 372 3047 722 3315 
Q 1072 3584 1716 3584 
Q 2034 3584 2315 3537 
Q 2597 3491 2834 3397 
z
" transform="scale(0.015625)"/>
      </defs>
      <use xlink:href="#DejaVuSans-4f"/>
      <use xlink:href="#DejaVuSans-70" transform="translate(78.710938 0)"/>
      <use xlink:href="#DejaVuSans-65" transform="translate(142.1875 0)"/>
      <use xlink:href="#DejaVuSans-6e" transform="translate(203.710938 0)"/>
      <use xlink:href="#DejaVuSans-20" transform="translate(267.089844 0)"/>
      <use xlink:href="#DejaVuSans-50" transform="translate(298.876953 0)"/>
      <use xlink:href="#DejaVuSans-72" transform="translate(357.429688 0)"/>
      <use xlink:href="#DejaVuSans-6f" transform="translate(396.292969 0)"/>
      <use xlink:href="#DejaVuSans-62" transform="translate(457.474609 0)"/>
      <use xlink:href="#DejaVuSans-6c" transform="translate(520.951172 0)"/>
      <use xlink:href="#DejaVuSans-65" transform="translate(548.734375 0)"/>
      <use xlink:href="#DejaVuSans-6d" transform="translate(610.257812 0)"/>
      <use xlink:href="#DejaVuSans-73" transform="translate(707.669922 0)"/>
     </g>
    </g>
   </g>
  </g>
 </g>
 <defs>
  <clipPath id="p2aeb4e2c73">
   <rect x="48.90125" y="38.397812" width="799.45" height="416.84"/>
  </clipPath>
 </defs>
</svg>
