<?xml version="1.0" encoding="utf-8" standalone="no"?>
<!DOCTYPE svg PUBLIC "-//W3C//DTD SVG 1.1//EN"
  "http://www.w3.org/Graphics/SVG/1.1/DTD/svg11.dtd">
<svg xmlns:xlink="http://www.w3.org/1999/xlink" width="855.55125pt" height="494.729687pt" viewBox="0 0 855.55125 494.729687" xmlns="http://www.w3.org/2000/svg" version="1.1">
 <metadata>
  <rdf:RDF xmlns:dc="http://purl.org/dc/elements/1.1/" xmlns:cc="http://creativecommons.org/ns#" xmlns:rdf="http://www.w3.org/1999/02/22-rdf-syntax-ns#">
   <cc:Work>
    <dc:type rdf:resource="http://purl.org/dc/dcmitype/StillImage"/>
    <dc:date>2026-02-07T08:36:24.532787</dc:date>
    <dc:format>image/svg+xml</dc:format>
    <dc:creator>
     <cc:Agent>
      <dc:title>Matplotlib v3.10.7, https://matplotlib.org/</dc:title>
     </cc:Agent>
    </dc:creator>
   </cc:Work>
  </rdf:RDF>
 </metadata>
 <defs>
  <style type="text/css">*{stroke-linejoin: round; stroke-linecap: butt}</style>
 </defs>
 <g id="figure_1">
  <g id="patch_1">
   <path d="M 0 494.729687 
L 855.55125 494.729687 
L 855.55125 0 
L 0 0 
z
" style="fill: #ffffff"/>
  </g>
  <g id="axes_1">
   <g id="patch_2">
    <path d="M 48.90125 455.237812 
L 848.35125 455.237812 
L 848.35125 38.397812 
L 48.90125 38.397812 
z
" style="fill: #ffffff"/>
   </g>
   <g id="matplotlib.axis_1">
    <g id="xtick_1">
     <g id="line2d_1">
      <path d="M 86.570685 455.237812 
L 86.570685 38.397812 
" clip-path="url(#p2d0b038ddc)" style="fill: none; stroke: #d0d7de; stroke-opacity: 0.25; stroke-width: 0.5; stroke-linecap: square"/>
     </g>
     <g id="line2d_2">
      <defs>
       <path id="mc5598e6f1a" d="M 0 0 
L 0 3.5 
" style="stroke: #24292f; stroke-width: 0.8"/>
      </defs>
      <g>
       <use xlink:href="#mc5598e6f1a" x="86.570685" y="455.237812" style="fill: #24292f; stroke: #24292f; stroke-width: 0.8"/>
      </g>
     </g>
     <g id="text_1">
      <!-- Sep -->
      <g style="fill: #24292f" transform="translate(77.145685 469.83625) scale(0.1 -0.1)">
       <defs>
        <path id="DejaVuSans-53" d="M 3425 4513 
L 3425 3897 
Q 3066 4069 2747 4153 
Q 2428 4238 2131 4238 
Q 1616 4238 1336 4038 
Q 1056 3838 1056 3469 
Q 1056 3159 1242 3001 
Q 1428 2844 1947 2747 
L 2328 2669 
Q 3034 2534 3370 2195 
Q 3706 1856 3706 1288 
Q 3706 609 3251 259 
Q 2797 -91 1919 -91 
Q 1588 -91 1214 -16 
Q 841 59 441 206 
L 441 856 
Q 825 641 1194 531 
Q 1563 422 1919 422 
Q 2459 422 2753 634 
Q 3047 847 3047 1241 
Q 3047 1584 2836 1778 
Q 2625 1972 2144 2069 
L 1759 2144 
Q 1053 2284 737 2584 
Q 422 2884 422 3419 
Q 422 4038 858 4394 
Q 1294 4750 2059 4750 
Q 2388 4750 2728 4690 
Q 3069 4631 3425 4513 
z
" transform="scale(0.015625)"/>
        <path id="DejaVuSans-65" d="M 3597 1894 
L 3597 1613 
L 953 1613 
Q 991 1019 1311 708 
Q 1631 397 2203 397 
Q 2534 397 2845 478 
Q 3156 559 3463 722 
L 3463 178 
Q 3153 47 2828 -22 
Q 2503 -91 2169 -91 
Q 1331 -91 842 396 
Q 353 884 353 1716 
Q 353 2575 817 3079 
Q 1281 3584 2069 3584 
Q 2775 3584 3186 3129 
Q 3597 2675 3597 1894 
z
M 3022 2063 
Q 3016 2534 2758 2815 
Q 2500 3097 2075 3097 
Q 1594 3097 1305 2825 
Q 1016 2553 972 2059 
L 3022 2063 
z
" transform="scale(0.015625)"/>
        <path id="DejaVuSans-70" d="M 1159 525 
L 1159 -1331 
L 581 -1331 
L 581 3500 
L 1159 3500 
L 1159 2969 
Q 1341 3281 1617 3432 
Q 1894 3584 2278 3584 
Q 2916 3584 3314 3078 
Q 3713 2572 3713 1747 
Q 3713 922 3314 415 
Q 2916 -91 2278 -91 
Q 1894 -91 1617 61 
Q 1341 213 1159 525 
z
M 3116 1747 
Q 3116 2381 2855 2742 
Q 2594 3103 2138 3103 
Q 1681 3103 1420 2742 
Q 1159 2381 1159 1747 
Q 1159 1113 1420 752 
Q 1681 391 2138 391 
Q 2594 391 2855 752 
Q 3116 1113 3116 1747 
z
" transform="scale(0.015625)"/>
       </defs>
       <use xlink:href="#DejaVuSans-53"/>
       <use xlink:href="#DejaVuSans-65" transform="translate(63.476562 0)"/>
       <use xlink:href="#DejaVuSans-70" transform="translate(125 0)"/>
      </g>
     </g>
    </g>
    <g id="xtick_2">
     <g id="line2d_3">
      <path d="M 223.138503 455.237812 
L 223.138503 38.397812 
" clip-path="url(#p2d0b038ddc)" style="fill: none; stroke: #d0d7de; stroke-opacity: 0.25; stroke-width: 0.5; stroke-linecap: square"/>
     </g>
     <g id="line2d_4">
      <g>
       <use xlink:href="#mc5598e6f1a" x="223.138503" y="455.237812" style="fill: #24292f; stroke: #24292f; stroke-width: 0.8"/>
      </g>
     </g>
     <g id="text_2">
      <!-- Oct -->
      <g style="fill: #24292f" transform="translate(214.493191 469.83625) scale(0.1 -0.1)">
       <defs>
        <path id="DejaVuSans-4f" d="M 2522 4238 
Q 1834 4238 1429 3725 
Q 1025 3213 1025 2328 
Q 1025 1447 1429 934 
Q 1834 422 2522 422 
Q 3209 422 3611 934 
Q 4013 1447 4013 2328 
Q 4013 3213 3611 3725 
Q 3209 4238 2522 4238 
z
M 2522 4750 
Q 3503 4750 4090 4092 
Q 4678 3434 4678 2328 
Q 4678 1225 4090 567 
Q 3503 -91 2522 -91 
Q 1538 -91 948 565 
Q 359 1222 359 2328 
Q 359 3434 948 4092 
Q 1538 4750 2522 4750 
z
" transform="scale(0.015625)"/>
        <path id="DejaVuSans-63" d="M 3122 3366 
L 3122 2828 
Q 2878 2963 2633 3030 
Q 2388 3097 2138 3097 
Q 1578 3097 1268 2742 
Q 959 2388 959 1747 
Q 959 1106 1268 751 
Q 1578 397 2138 397 
Q 2388 397 2633 464 
Q 2878 531 3122 666 
L 3122 134 
Q 2881 22 2623 -34 
Q 2366 -91 2075 -91 
Q 1284 -91 818 406 
Q 353 903 353 1747 
Q 353 2603 823 3093 
Q 1294 3584 2113 3584 
Q 2378 3584 2631 3529 
Q 2884 3475 3122 3366 
z
" transform="scale(0.015625)"/>
        <path id="DejaVuSans-74" d="M 1172 4494 
L 1172 3500 
L 2356 3500 
L 2356 3053 
L 1172 3053 
L 1172 1153 
Q 1172 725 1289 603 
Q 1406 481 1766 481 
L 2356 481 
L 2356 0 
L 1766 0 
Q 1100 0 847 248 
Q 594 497 594 1153 
L 594 3053 
L 172 3053 
L 172 3500 
L 594 3500 
L 594 4494 
L 1172 4494 
z
" transform="scale(0.015625)"/>
       </defs>
       <use xlink:href="#DejaVuSans-4f"/>
       <use xlink:href="#DejaVuSans-63" transform="translate(78.710938 0)"/>
       <use xlink:href="#DejaVuSans-74" transform="translate(133.691406 0)"/>
      </g>
     </g>
    </g>
    <g id="xtick_3">
     <g id="line2d_5">
      <path d="M 364.258582 455.237812 
L 364.258582 38.397812 
" clip-path="url(#p2d0b038ddc)" style="fill: none; stroke: #d0d7de; stroke-opacity: 0.25; stroke-width: 0.5; stroke-linecap: square"/>
     </g>
     <g id="line2d_6">
      <g>
       <use xlink:href="#mc5598e6f1a" x="364.258582" y="455.237812" style="fill: #24292f; stroke: #24292f; stroke-width: 0.8"/>
      </g>
     </g>
     <g id="text_3">
      <!-- Nov -->
      <g style="fill: #24292f" transform="translate(354.499207 469.83625) scale(0.1 -0.1)">
       <defs>
        <path id="DejaVuSans-4e" d="M 628 4666 
L 1478 4666 
L 3547 763 
L 3547 4666 
L 4159 4666 
L 4159 0 
L 3309 0 
L 1241 3903 
L 1241 0 
L 628 0 
L 628 4666 
z
" transform="scale(0.015625)"/>
        <path id="DejaVuSans-6f" d="M 1959 3097 
Q 1497 3097 1228 2736 
Q 959 2375 959 1747 
Q 959 1119 1226 758 
Q 1494 397 1959 397 
Q 2419 397 2687 759 
Q 2956 1122 2956 1747 
Q 2956 2369 2687 2733 
Q 2419 3097 1959 3097 
z
M 1959 3584 
Q 2709 3584 3137 3096 
Q 3566 2609 3566 1747 
Q 3566 888 3137 398 
Q 2709 -91 1959 -91 
Q 1206 -91 779 398 
Q 353 888 353 1747 
Q 353 2609 779 3096 
Q 1206 3584 1959 3584 
z
" transform="scale(0.015625)"/>
        <path id="DejaVuSans-76" d="M 191 3500 
L 800 3500 
L 1894 563 
L 2988 3500 
L 3597 3500 
L 2284 0 
L 1503 0 
L 191 3500 
z
" transform="scale(0.015625)"/>
       </defs>
       <use xlink:href="#DejaVuSans-4e"/>
       <use xlink:href="#DejaVuSans-6f" transform="translate(74.804688 0)"/>
       <use xlink:href="#DejaVuSans-76" transform="translate(135.986328 0)"/>
      </g>
     </g>
    </g>
    <g id="xtick_4">
     <g id="line2d_7">
      <path d="M 500.826401 455.237812 
L 500.826401 38.397812 
" clip-path="url(#p2d0b038ddc)" style="fill: none; stroke: #d0d7de; stroke-opacity: 0.25; stroke-width: 0.5; stroke-linecap: square"/>
     </g>
     <g id="line2d_8">
      <g>
       <use xlink:href="#mc5598e6f1a" x="500.826401" y="455.237812" style="fill: #24292f; stroke: #24292f; stroke-width: 0.8"/>
      </g>
     </g>
     <g id="text_4">
      <!-- Dec -->
      <g style="fill: #24292f" transform="translate(491.150619 469.83625) scale(0.1 -0.1)">
       <defs>
        <path id="DejaVuSans-44" d="M 1259 4147 
L 1259 519 
L 2022 519 
Q 2988 519 3436 956 
Q 3884 1394 3884 2338 
Q 3884 3275 3436 3711 
Q 2988 4147 2022 4147 
L 1259 4147 
z
M 628 4666 
L 1925 4666 
Q 3281 4666 3915 4102 
Q 4550 3538 4550 2338 
Q 4550 1131 3912 565 
Q 3275 0 1925 0 
L 628 0 
L 628 4666 
z
" transform="scale(0.015625)"/>
       </defs>
       <use xlink:href="#DejaVuSans-44"/>
       <use xlink:href="#DejaVuSans-65" transform="translate(77.001953 0)"/>
       <use xlink:href="#DejaVuSans-63" transform="translate(138.525391 0)"/>
      </g>
     </g>
    </g>
    <g id="xtick_5">
     <g id="line2d_9">
      <path d="M 641.94648 455.237812 
L 641.94648 38.397812 
" clip-path="url(#p2d0b038ddc)" style="fill: none; stroke: #d0d7de; stroke-opacity: 0.25; stroke-width: 0.5; stroke-linecap: square"/>
     </g>
     <g id="line2d_10">
      <g>
       <use xlink:href="#mc5598e6f1a" x="641.94648" y="455.237812" style="fill: #24292f; stroke: #24292f; stroke-width: 0.8"/>
      </g>
     </g>
     <g id="text_5">
      <!-- 2026 -->
      <g style="fill: #24292f" transform="translate(629.22148 469.83625) scale(0.1 -0.1)">
       <defs>
        <path id="DejaVuSans-32" d="M 1228 531 
L 3431 531 
L 3431 0 
L 469 0 
L 469 531 
Q 828 903 1448 1529 
Q 2069 2156 2228 2338 
Q 2531 2678 2651 2914 
Q 2772 3150 2772 3378 
Q 2772 3750 2511 3984 
Q 2250 4219 1831 4219 
Q 1534 4219 1204 4116 
Q 875 4013 500 3803 
L 500 4441 
Q 881 4594 1212 4672 
Q 1544 4750 1819 4750 
Q 2544 4750 2975 4387 
Q 3406 4025 3406 3419 
Q 3406 3131 3298 2873 
Q 3191 2616 2906 2266 
Q 2828 2175 2409 1742 
Q 1991 1309 1228 531 
z
" transform="scale(0.015625)"/>
        <path id="DejaVuSans-30" d="M 2034 4250 
Q 1547 4250 1301 3770 
Q 1056 3291 1056 2328 
Q 1056 1369 1301 889 
Q 1547 409 2034 409 
Q 2525 409 2770 889 
Q 3016 1369 3016 2328 
Q 3016 3291 2770 3770 
Q 2525 4250 2034 4250 
z
M 2034 4750 
Q 2819 4750 3233 4129 
Q 3647 3509 3647 2328 
Q 3647 1150 3233 529 
Q 2819 -91 2034 -91 
Q 1250 -91 836 529 
Q 422 1150 422 2328 
Q 422 3509 836 4129 
Q 1250 4750 2034 4750 
z
" transform="scale(0.015625)"/>
        <path id="DejaVuSans-36" d="M 2113 2584 
Q 1688 2584 1439 2293 
Q 1191 2003 1191 1497 
Q 1191 994 1439 701 
Q 1688 409 2113 409 
Q 2538 409 2786 701 
Q 3034 994 3034 1497 
Q 3034 2003 2786 2293 
Q 2538 2584 2113 2584 
z
M 3366 4563 
L 3366 3988 
Q 3128 4100 2886 4159 
Q 2644 4219 2406 4219 
Q 1781 4219 1451 3797 
Q 1122 3375 1075 2522 
Q 1259 2794 1537 2939 
Q 1816 3084 2150 3084 
Q 2853 3084 3261 2657 
Q 3669 2231 3669 1497 
Q 3669 778 3244 343 
Q 2819 -91 2113 -91 
Q 1303 -91 875 529 
Q 447 1150 447 2328 
Q 447 3434 972 4092 
Q 1497 4750 2381 4750 
Q 2619 4750 2861 4703 
Q 3103 4656 3366 4563 
z
" transform="scale(0.015625)"/>
       </defs>
       <use xlink:href="#DejaVuSans-32"/>
       <use xlink:href="#DejaVuSans-30" transform="translate(63.623047 0)"/>
       <use xlink:href="#DejaVuSans-32" transform="translate(127.246094 0)"/>
       <use xlink:href="#DejaVuSans-36" transform="translate(190.869141 0)"/>
      </g>
     </g>
    </g>
    <g id="xtick_6">
     <g id="line2d_11">
      <path d="M 783.066559 455.237812 
L 783.066559 38.397812 
" clip-path="url(#p2d0b038ddc)" style="fill: none; stroke: #d0d7de; stroke-opacity: 0.25; stroke-width: 0.5; stroke-linecap: square"/>
     </g>
     <g id="line2d_12">
      <g>
       <use xlink:href="#mc5598e6f1a" x="783.066559" y="455.237812" style="fill: #24292f; stroke: #24292f; stroke-width: 0.8"/>
      </g>
     </g>
     <g id="text_6">
      <!-- Feb -->
      <g style="fill: #24292f" transform="translate(774.214996 469.83625) scale(0.1 -0.1)">
       <defs>
        <path id="DejaVuSans-46" d="M 628 4666 
L 3309 4666 
L 3309 4134 
L 1259 4134 
L 1259 2759 
L 3109 2759 
L 3109 2228 
L 1259 2228 
L 1259 0 
L 628 0 
L 628 4666 
z
" transform="scale(0.015625)"/>
        <path id="DejaVuSans-62" d="M 3116 1747 
Q 3116 2381 2855 2742 
Q 2594 3103 2138 3103 
Q 1681 3103 1420 2742 
Q 1159 2381 1159 1747 
Q 1159 1113 1420 752 
Q 1681 391 2138 391 
Q 2594 391 2855 752 
Q 3116 1113 3116 1747 
z
M 1159 2969 
Q 1341 3281 1617 3432 
Q 1894 3584 2278 3584 
Q 2916 3584 3314 3078 
Q 3713 2572 3713 1747 
Q 3713 922 3314 415 
Q 2916 -91 2278 -91 
Q 1894 -91 1617 61 
Q 1341 213 1159 525 
L 1159 0 
L 581 0 
L 581 4863 
L 1159 4863 
L 1159 2969 
z
" transform="scale(0.015625)"/>
       </defs>
       <use xlink:href="#DejaVuSans-46"/>
       <use xlink:href="#DejaVuSans-65" transform="translate(52.019531 0)"/>
       <use xlink:href="#DejaVuSans-62" transform="translate(113.542969 0)"/>
      </g>
     </g>
    </g>
    <g id="text_7">
     <!-- Date -->
     <g style="fill: #24292f" transform="translate(434.285313 485.034062) scale(0.12 -0.12)">
      <defs>
       <path id="DejaVuSans-61" d="M 2194 1759 
Q 1497 1759 1228 1600 
Q 959 1441 959 1056 
Q 959 750 1161 570 
Q 1363 391 1709 391 
Q 2188 391 2477 730 
Q 2766 1069 2766 1631 
L 2766 1759 
L 2194 1759 
z
M 3341 1997 
L 3341 0 
L 2766 0 
L 2766 531 
Q 2569 213 2275 61 
Q 1981 -91 1556 -91 
Q 1019 -91 701 211 
Q 384 513 384 1019 
Q 384 1609 779 1909 
Q 1175 2209 1959 2209 
L 2766 2209 
L 2766 2266 
Q 2766 2663 2505 2880 
Q 2244 3097 1772 3097 
Q 1472 3097 1187 3025 
Q 903 2953 641 2809 
L 641 3341 
Q 956 3463 1253 3523 
Q 1550 3584 1831 3584 
Q 2591 3584 2966 3190 
Q 3341 2797 3341 1997 
z
" transform="scale(0.015625)"/>
      </defs>
      <use xlink:href="#DejaVuSans-44"/>
      <use xlink:href="#DejaVuSans-61" transform="translate(77.001953 0)"/>
      <use xlink:href="#DejaVuSans-74" transform="translate(138.28125 0)"/>
      <use xlink:href="#DejaVuSans-65" transform="translate(177.490234 0)"/>
     </g>
    </g>
   </g>
   <g id="matplotlib.axis_2">
    <g id="ytick_1">
     <g id="line2d_13">
      <path d="M 48.90125 455.237812 
L 848.35125 455.237812 
" clip-path="url(#p2d0b038ddc)" style="fill: none; stroke: #d0d7de; stroke-opacity: 0.25; stroke-width: 0.5; stroke-linecap: square"/>
     </g>
     <g id="line2d_14">
      <defs>
       <path id="m41cc6dc6b2" d="M 0 0 
L -3.5 0 
" style="stroke: #24292f; stroke-width: 0.8"/>
      </defs>
      <g>
       <use xlink:href="#m41cc6dc6b2" x="48.90125" y="455.237812" style="fill: #24292f; stroke: #24292f; stroke-width: 0.8"/>
      </g>
     </g>
     <g id="text_8">
      <!-- 0 -->
      <g style="fill: #24292f" transform="translate(35.53875 459.037031) scale(0.1 -0.1)">
       <use xlink:href="#DejaVuSans-30"/>
      </g>
     </g>
    </g>
    <g id="ytick_2">
     <g id="line2d_15">
      <path d="M 48.90125 399.659146 
L 848.35125 399.659146 
" clip-path="url(#p2d0b038ddc)" style="fill: none; stroke: #d0d7de; stroke-opacity: 0.25; stroke-width: 0.5; stroke-linecap: square"/>
     </g>
     <g id="line2d_16">
      <g>
       <use xlink:href="#m41cc6dc6b2" x="48.90125" y="399.659146" style="fill: #24292f; stroke: #24292f; stroke-width: 0.8"/>
      </g>
     </g>
     <g id="text_9">
      <!-- 100 -->
      <g style="fill: #24292f" transform="translate(22.81375 403.458365) scale(0.1 -0.1)">
       <defs>
        <path id="DejaVuSans-31" d="M 794 531 
L 1825 531 
L 1825 4091 
L 703 3866 
L 703 4441 
L 1819 4666 
L 2450 4666 
L 2450 531 
L 3481 531 
L 3481 0 
L 794 0 
L 794 531 
z
" transform="scale(0.015625)"/>
       </defs>
       <use xlink:href="#DejaVuSans-31"/>
       <use xlink:href="#DejaVuSans-30" transform="translate(63.623047 0)"/>
       <use xlink:href="#DejaVuSans-30" transform="translate(127.246094 0)"/>
      </g>
     </g>
    </g>
    <g id="ytick_3">
     <g id="line2d_17">
      <path d="M 48.90125 344.080479 
L 848.35125 344.080479 
" clip-path="url(#p2d0b038ddc)" style="fill: none; stroke: #d0d7de; stroke-opacity: 0.25; stroke-width: 0.5; stroke-linecap: square"/>
     </g>
     <g id="line2d_18">
      <g>
       <use xlink:href="#m41cc6dc6b2" x="48.90125" y="344.080479" style="fill: #24292f; stroke: #24292f; stroke-width: 0.8"/>
      </g>
     </g>
     <g id="text_10">
      <!-- 200 -->
      <g style="fill: #24292f" transform="translate(22.81375 347.879698) scale(0.1 -0.1)">
       <use xlink:href="#DejaVuSans-32"/>
       <use xlink:href="#DejaVuSans-30" transform="translate(63.623047 0)"/>
       <use xlink:href="#DejaVuSans-30" transform="translate(127.246094 0)"/>
      </g>
     </g>
    </g>
    <g id="ytick_4">
     <g id="line2d_19">
      <path d="M 48.90125 288.501812 
L 848.35125 288.501812 
" clip-path="url(#p2d0b038ddc)" style="fill: none; stroke: #d0d7de; stroke-opacity: 0.25; stroke-width: 0.5; stroke-linecap: square"/>
     </g>
     <g id="line2d_20">
      <g>
       <use xlink:href="#m41cc6dc6b2" x="48.90125" y="288.501812" style="fill: #24292f; stroke: #24292f; stroke-width: 0.8"/>
      </g>
     </g>
     <g id="text_11">
      <!-- 300 -->
      <g style="fill: #24292f" transform="translate(22.81375 292.301031) scale(0.1 -0.1)">
       <defs>
        <path id="DejaVuSans-33" d="M 2597 2516 
Q 3050 2419 3304 2112 
Q 3559 1806 3559 1356 
Q 3559 666 3084 287 
Q 2609 -91 1734 -91 
Q 1441 -91 1130 -33 
Q 819 25 488 141 
L 488 750 
Q 750 597 1062 519 
Q 1375 441 1716 441 
Q 2309 441 2620 675 
Q 2931 909 2931 1356 
Q 2931 1769 2642 2001 
Q 2353 2234 1838 2234 
L 1294 2234 
L 1294 2753 
L 1863 2753 
Q 2328 2753 2575 2939 
Q 2822 3125 2822 3475 
Q 2822 3834 2567 4026 
Q 2313 4219 1838 4219 
Q 1578 4219 1281 4162 
Q 984 4106 628 3988 
L 628 4550 
Q 988 4650 1302 4700 
Q 1616 4750 1894 4750 
Q 2613 4750 3031 4423 
Q 3450 4097 3450 3541 
Q 3450 3153 3228 2886 
Q 3006 2619 2597 2516 
z
" transform="scale(0.015625)"/>
       </defs>
       <use xlink:href="#DejaVuSans-33"/>
       <use xlink:href="#DejaVuSans-30" transform="translate(63.623047 0)"/>
       <use xlink:href="#DejaVuSans-30" transform="translate(127.246094 0)"/>
      </g>
     </g>
    </g>
    <g id="ytick_5">
     <g id="line2d_21">
      <path d="M 48.90125 232.923146 
L 848.35125 232.923146 
" clip-path="url(#p2d0b038ddc)" style="fill: none; stroke: #d0d7de; stroke-opacity: 0.25; stroke-width: 0.5; stroke-linecap: square"/>
     </g>
     <g id="line2d_22">
      <g>
       <use xlink:href="#m41cc6dc6b2" x="48.90125" y="232.923146" style="fill: #24292f; stroke: #24292f; stroke-width: 0.8"/>
      </g>
     </g>
     <g id="text_12">
      <!-- 400 -->
      <g style="fill: #24292f" transform="translate(22.81375 236.722365) scale(0.1 -0.1)">
       <defs>
        <path id="DejaVuSans-34" d="M 2419 4116 
L 825 1625 
L 2419 1625 
L 2419 4116 
z
M 2253 4666 
L 3047 4666 
L 3047 1625 
L 3713 1625 
L 3713 1100 
L 3047 1100 
L 3047 0 
L 2419 0 
L 2419 1100 
L 313 1100 
L 313 1709 
L 2253 4666 
z
" transform="scale(0.015625)"/>
       </defs>
       <use xlink:href="#DejaVuSans-34"/>
       <use xlink:href="#DejaVuSans-30" transform="translate(63.623047 0)"/>
       <use xlink:href="#DejaVuSans-30" transform="translate(127.246094 0)"/>
      </g>
     </g>
    </g>
    <g id="ytick_6">
     <g id="line2d_23">
      <path d="M 48.90125 177.344479 
L 848.35125 177.344479 
" clip-path="url(#p2d0b038ddc)" style="fill: none; stroke: #d0d7de; stroke-opacity: 0.25; stroke-width: 0.5; stroke-linecap: square"/>
     </g>
     <g id="line2d_24">
      <g>
       <use xlink:href="#m41cc6dc6b2" x="48.90125" y="177.344479" style="fill: #24292f; stroke: #24292f; stroke-width: 0.8"/>
      </g>
     </g>
     <g id="text_13">
      <!-- 500 -->
      <g style="fill: #24292f" transform="translate(22.81375 181.143698) scale(0.1 -0.1)">
       <defs>
        <path id="DejaVuSans-35" d="M 691 4666 
L 3169 4666 
L 3169 4134 
L 1269 4134 
L 1269 2991 
Q 1406 3038 1543 3061 
Q 1681 3084 1819 3084 
Q 2600 3084 3056 2656 
Q 3513 2228 3513 1497 
Q 3513 744 3044 326 
Q 2575 -91 1722 -91 
Q 1428 -91 1123 -41 
Q 819 9 494 109 
L 494 744 
Q 775 591 1075 516 
Q 1375 441 1709 441 
Q 2250 441 2565 725 
Q 2881 1009 2881 1497 
Q 2881 1984 2565 2268 
Q 2250 2553 1709 2553 
Q 1456 2553 1204 2497 
Q 953 2441 691 2322 
L 691 4666 
z
" transform="scale(0.015625)"/>
       </defs>
       <use xlink:href="#DejaVuSans-35"/>
       <use xlink:href="#DejaVuSans-30" transform="translate(63.623047 0)"/>
       <use xlink:href="#DejaVuSans-30" transform="translate(127.246094 0)"/>
      </g>
     </g>
    </g>
    <g id="ytick_7">
     <g id="line2d_25">
      <path d="M 48.90125 121.765812 
L 848.35125 121.765812 
" clip-path="url(#p2d0b038ddc)" style="fill: none; stroke: #d0d7de; stroke-opacity: 0.25; stroke-width: 0.5; stroke-linecap: square"/>
     </g>
     <g id="line2d_26">
      <g>
       <use xlink:href="#m41cc6dc6b2" x="48.90125" y="121.765812" style="fill: #24292f; stroke: #24292f; stroke-width: 0.8"/>
      </g>
     </g>
     <g id="text_14">
      <!-- 600 -->
      <g style="fill: #24292f" transform="translate(22.81375 125.565031) scale(0.1 -0.1)">
       <use xlink:href="#DejaVuSans-36"/>
       <use xlink:href="#DejaVuSans-30" transform="translate(63.623047 0)"/>
       <use xlink:href="#DejaVuSans-30" transform="translate(127.246094 0)"/>
      </g>
     </g>
    </g>
    <g id="ytick_8">
     <g id="line2d_27">
      <path d="M 48.90125 66.187146 
L 848.35125 66.187146 
" clip-path="url(#p2d0b038ddc)" style="fill: none; stroke: #d0d7de; stroke-opacity: 0.25; stroke-width: 0.5; stroke-linecap: square"/>
     </g>
     <g id="line2d_28">
      <g>
       <use xlink:href="#m41cc6dc6b2" x="48.90125" y="66.187146" style="fill: #24292f; stroke: #24292f; stroke-width: 0.8"/>
      </g>
     </g>
     <g id="text_15">
      <!-- 700 -->
      <g style="fill: #24292f" transform="translate(22.81375 69.986365) scale(0.1 -0.1)">
       <defs>
        <path id="DejaVuSans-37" d="M 525 4666 
L 3525 4666 
L 3525 4397 
L 1831 0 
L 1172 0 
L 2766 4134 
L 525 4134 
L 525 4666 
z
" transform="scale(0.015625)"/>
       </defs>
       <use xlink:href="#DejaVuSans-37"/>
       <use xlink:href="#DejaVuSans-30" transform="translate(63.623047 0)"/>
       <use xlink:href="#DejaVuSans-30" transform="translate(127.246094 0)"/>
      </g>
     </g>
    </g>
    <g id="text_16">
     <!-- Count -->
     <g style="fill: #24292f" transform="translate(16.318125 264.635937) rotate(-90) scale(0.12 -0.12)">
      <defs>
       <path id="DejaVuSans-43" d="M 4122 4306 
L 4122 3641 
Q 3803 3938 3442 4084 
Q 3081 4231 2675 4231 
Q 1875 4231 1450 3742 
Q 1025 3253 1025 2328 
Q 1025 1406 1450 917 
Q 1875 428 2675 428 
Q 3081 428 3442 575 
Q 3803 722 4122 1019 
L 4122 359 
Q 3791 134 3420 21 
Q 3050 -91 2638 -91 
Q 1578 -91 968 557 
Q 359 1206 359 2328 
Q 359 3453 968 4101 
Q 1578 4750 2638 4750 
Q 3056 4750 3426 4639 
Q 3797 4528 4122 4306 
z
" transform="scale(0.015625)"/>
       <path id="DejaVuSans-75" d="M 544 1381 
L 544 3500 
L 1119 3500 
L 1119 1403 
Q 1119 906 1312 657 
Q 1506 409 1894 409 
Q 2359 409 2629 706 
Q 2900 1003 2900 1516 
L 2900 3500 
L 3475 3500 
L 3475 0 
L 2900 0 
L 2900 538 
Q 2691 219 2414 64 
Q 2138 -91 1772 -91 
Q 1169 -91 856 284 
Q 544 659 544 1381 
z
M 1991 3584 
L 1991 3584 
z
" transform="scale(0.015625)"/>
       <path id="DejaVuSans-6e" d="M 3513 2113 
L 3513 0 
L 2938 0 
L 2938 2094 
Q 2938 2591 2744 2837 
Q 2550 3084 2163 3084 
Q 1697 3084 1428 2787 
Q 1159 2491 1159 1978 
L 1159 0 
L 581 0 
L 581 3500 
L 1159 3500 
L 1159 2956 
Q 1366 3272 1645 3428 
Q 1925 3584 2291 3584 
Q 2894 3584 3203 3211 
Q 3513 2838 3513 2113 
z
" transform="scale(0.015625)"/>
      </defs>
      <use xlink:href="#DejaVuSans-43"/>
      <use xlink:href="#DejaVuSans-6f" transform="translate(69.824219 0)"/>
      <use xlink:href="#DejaVuSans-75" transform="translate(131.005859 0)"/>
      <use xlink:href="#DejaVuSans-6e" transform="translate(194.384766 0)"/>
      <use xlink:href="#DejaVuSans-74" transform="translate(257.763672 0)"/>
     </g>
    </g>
   </g>
   <g id="line2d_29">
    <path d="M 85.239886 454.682026 
L 85.327085 454.682026 
L 85.382408 454.126239 
L 85.656018 454.126239 
L 85.779782 257.933546 
L 89.614693 257.933546 
L 89.631448 261.268266 
L 94.068005 261.268266 
L 94.28271 260.712479 
L 94.898635 260.712479 
L 95.397803 260.156692 
L 98.490864 259.600906 
L 98.551929 260.156692 
L 98.700194 259.600906 
L 108.278487 259.600906 
L 114.056908 260.712479 
L 114.916674 259.600906 
L 115.544454 259.600906 
L 117.126681 259.045119 
L 117.788655 256.821972 
L 119.077619 256.821972 
L 120.955954 260.712479 
L 121.077821 256.821972 
L 122.51916 256.266186 
L 126.270296 256.266186 
L 127.259728 255.710399 
L 128.729413 255.710399 
L 129.123363 254.598826 
L 138.283944 254.598826 
L 138.952083 253.487252 
L 138.98633 252.375679 
L 141.870957 252.375679 
L 146.124475 251.264106 
L 148.355768 251.264106 
L 148.389541 250.708319 
L 153.513785 250.708319 
L 154.78494 247.929386 
L 158.807843 247.929386 
L 158.835767 247.373599 
L 181.366033 247.373599 
L 185.577506 246.817812 
L 185.721292 247.373599 
L 190.089144 246.817812 
L 205.2889 246.817812 
L 212.656028 246.262026 
L 212.798338 245.706239 
L 213.148293 245.150452 
L 217.304339 245.150452 
L 219.073187 244.594666 
L 226.367711 244.594666 
L 226.64464 247.373599 
L 226.658233 245.150452 
L 227.012878 245.150452 
L 228.773928 242.927306 
L 237.396141 242.927306 
L 244.004243 242.371519 
L 251.348715 242.371519 
L 251.671009 241.815732 
L 270.755571 241.815732 
L 271.570078 241.259946 
L 276.204058 241.259946 
L 276.236724 240.148372 
L 285.066108 240.148372 
L 285.245195 236.257866 
L 301.225895 236.257866 
L 301.23069 235.702079 
L 301.693503 235.702079 
L 303.342433 235.146292 
L 305.754552 235.146292 
L 306.405567 234.590506 
L 306.47069 235.146292 
L 307.96145 234.590506 
L 307.968247 234.034719 
L 308.003073 234.590506 
L 308.864209 234.034719 
L 316.708587 234.034719 
L 319.147471 233.478932 
L 322.041423 233.478932 
L 326.956758 232.923146 
L 331.610022 232.923146 
L 335.205149 231.811572 
L 343.072867 231.811572 
L 347.649575 230.699999 
L 348.939066 231.255786 
L 355.326931 231.255786 
L 362.532728 229.032639 
L 373.279277 229.032639 
L 376.612174 228.476852 
L 436.008374 228.476852 
L 436.488048 227.921066 
L 458.148483 227.921066 
L 458.510399 227.365279 
L 495.367745 227.365279 
L 503.483625 226.809492 
L 503.53057 227.365279 
L 509.34034 225.697919 
L 517.866503 225.697919 
L 522.522085 225.142132 
L 522.529725 224.586346 
L 532.243638 224.586346 
L 535.730069 225.142132 
L 536.983363 224.586346 
L 553.240097 224.586346 
L 553.931946 225.142132 
L 555.199308 224.586346 
L 555.634828 222.363199 
L 563.084782 222.363199 
L 563.09121 221.807412 
L 585.887919 221.807412 
L 587.215451 221.251626 
L 591.596581 221.251626 
L 592.023987 220.695839 
L 613.387841 220.695839 
L 613.416872 220.140052 
L 618.760299 220.140052 
L 618.768255 219.584266 
L 620.064859 219.584266 
L 620.132563 219.028479 
L 622.146043 219.028479 
L 622.462383 218.472692 
L 626.771856 218.472692 
L 627.426929 217.361119 
L 629.79932 215.137972 
L 635.53617 215.137972 
L 635.95973 212.359039 
L 637.883429 212.359039 
L 638.827549 211.247466 
L 643.692567 211.247466 
L 645.288914 210.691679 
L 649.858456 210.691679 
L 650.470904 210.135892 
L 662.882189 210.135892 
L 663.187992 209.580106 
L 664.335909 209.580106 
L 666.118088 209.024319 
L 686.192503 209.024319 
L 686.372855 208.468532 
L 687.016494 208.468532 
L 688.360149 207.356959 
L 690.243963 207.356959 
L 690.696923 206.801172 
L 691.13334 206.801172 
L 691.298939 206.245386 
L 696.336774 206.245386 
L 697.194432 205.689599 
L 701.57946 205.689599 
L 701.860605 205.133812 
L 704.262554 205.133812 
L 704.416457 204.578026 
L 711.881163 204.578026 
L 712.041651 204.022239 
L 716.395172 204.022239 
L 717.609846 202.354879 
L 717.849261 201.799092 
L 719.461415 201.799092 
L 719.463101 201.243306 
L 726.009083 201.243306 
L 727.001676 200.687519 
L 732.221338 200.687519 
L 733.208557 200.131732 
L 733.579903 200.131732 
L 734.544519 199.575946 
L 737.008535 199.575946 
L 737.293315 199.020159 
L 743.473061 199.020159 
L 745.065984 198.464372 
L 745.182003 197.908586 
L 745.697715 197.908586 
L 747.325465 195.685439 
L 752.373574 195.685439 
L 752.409929 195.129652 
L 757.21425 195.129652 
L 757.493602 194.573866 
L 758.218223 194.573866 
L 758.767603 194.018079 
L 758.8822 194.573866 
L 759.29359 194.018079 
L 761.121343 194.018079 
L 761.138836 193.462292 
L 761.624199 193.462292 
L 761.836744 192.906506 
L 763.305375 192.350719 
L 773.523514 192.350719 
L 775.120598 191.794932 
L 776.189695 191.794932 
L 777.057048 191.239146 
L 777.934464 191.794932 
L 781.547136 191.794932 
L 781.702935 190.683359 
L 786.889193 190.683359 
L 788.901461 189.015999 
L 810.743197 189.015999 
L 812.012614 188.460212 
L 812.012614 188.460212 
" clip-path="url(#p2d0b038ddc)" style="fill: none; stroke: #1a7f37; stroke-width: 2; stroke-linecap: square"/>
   </g>
   <g id="line2d_30">
    <path d="M 85.239886 455.237812 
L 85.327085 453.570452 
L 85.537469 453.570452 
L 85.656018 372.981386 
L 87.805644 372.981386 
L 87.849849 370.758239 
L 90.065757 370.758239 
L 90.636686 369.090879 
L 91.413521 370.758239 
L 91.419264 369.090879 
L 92.06206 369.090879 
L 92.310485 367.979306 
L 98.658412 367.979306 
L 98.664471 367.423519 
L 98.700194 367.979306 
L 99.012635 367.423519 
L 99.10426 367.979306 
L 99.348628 367.423519 
L 101.576232 367.423519 
L 101.692778 366.867732 
L 102.010225 366.311946 
L 104.525296 366.311946 
L 107.387425 365.756159 
L 107.488164 365.200372 
L 108.261733 364.644586 
L 108.278487 364.088799 
L 114.056908 367.979306 
L 114.916674 366.311946 
L 115.544454 363.533012 
L 119.077619 363.533012 
L 120.955954 367.979306 
L 121.077821 363.533012 
L 155.401076 363.533012 
L 156.454313 362.977226 
L 158.835767 362.977226 
L 165.339915 362.421439 
L 166.924249 361.865652 
L 189.498509 361.865652 
L 190.089144 361.309866 
L 193.123668 360.754079 
L 195.052373 360.754079 
L 197.190249 360.198292 
L 197.247837 359.086719 
L 198.717417 358.530932 
L 199.70511 357.975146 
L 213.311838 357.975146 
L 216.024226 357.419359 
L 216.844213 357.419359 
L 217.304339 356.863572 
L 219.073187 356.863572 
L 220.830497 356.307786 
L 226.367711 356.307786 
L 226.64464 358.530932 
L 226.658233 356.307786 
L 228.773928 356.307786 
L 228.986314 355.751999 
L 231.981006 355.751999 
L 234.927383 355.196212 
L 234.998881 354.640426 
L 244.004243 354.640426 
L 247.802588 354.084639 
L 247.812177 353.528852 
L 260.451866 353.528852 
L 265.724374 352.973066 
L 269.680099 352.973066 
L 270.755571 352.417279 
L 276.793691 352.417279 
L 280.237603 351.861492 
L 280.426385 351.305706 
L 283.784046 351.305706 
L 284.173728 350.749919 
L 285.245195 350.194132 
L 287.637081 350.194132 
L 289.147231 349.638346 
L 291.916048 349.638346 
L 293.723148 349.082559 
L 297.578239 349.082559 
L 298.891597 347.970986 
L 308.864209 347.970986 
L 311.704314 347.415199 
L 315.03463 347.415199 
L 315.785648 346.859412 
L 316.015316 346.303626 
L 316.708587 345.747839 
L 328.176912 345.747839 
L 330.276642 345.192052 
L 331.610022 344.636266 
L 364.221543 344.636266 
L 371.542041 344.080479 
L 371.629504 343.524692 
L 376.612174 343.524692 
L 380.870962 342.968906 
L 388.398314 342.968906 
L 389.034366 342.413119 
L 401.853774 342.413119 
L 411.888875 341.857332 
L 411.985189 341.301546 
L 413.297125 341.301546 
L 415.955192 340.745759 
L 415.971104 339.634186 
L 416.220424 338.522612 
L 421.772654 337.966826 
L 422.105117 337.411039 
L 422.237628 336.299466 
L 422.740484 335.743679 
L 440.808006 335.743679 
L 445.94068 335.187892 
L 449.20798 334.632106 
L 451.767573 334.632106 
L 457.702214 334.076319 
L 458.148483 331.853172 
L 458.510399 331.853172 
L 458.857614 331.297386 
L 459.363684 330.741599 
L 470.620466 330.185812 
L 470.978745 329.630026 
L 471.084438 329.074239 
L 473.462625 329.074239 
L 475.708354 328.518452 
L 475.966474 327.962666 
L 475.995716 327.406879 
L 476.141768 326.851092 
L 477.62826 326.295306 
L 477.737377 325.739519 
L 480.449555 325.183732 
L 484.014649 324.627946 
L 484.268185 324.072159 
L 484.273559 323.516372 
L 484.990646 322.960586 
L 485.117308 322.404799 
L 489.418878 321.849012 
L 490.288813 321.849012 
L 491.215915 321.293226 
L 512.987048 321.293226 
L 516.597455 320.737439 
L 516.926018 320.181652 
L 531.681455 320.181652 
L 532.243638 319.070079 
L 538.391455 319.070079 
L 540.247555 318.514292 
L 540.338231 317.402719 
L 540.814849 316.846932 
L 543.97082 316.291146 
L 544.041896 315.735359 
L 544.422832 315.179572 
L 544.4918 313.512212 
L 544.813198 312.956426 
L 545.248034 312.956426 
L 545.264051 312.400639 
L 547.898725 311.844852 
L 548.934522 311.289066 
L 549.18516 310.733279 
L 553.931946 310.177492 
L 557.430126 310.177492 
L 558.644852 309.621706 
L 571.797145 309.621706 
L 576.154406 309.065919 
L 576.171741 308.510132 
L 576.955372 307.954346 
L 587.215451 307.954346 
L 590.094229 307.398559 
L 591.280135 306.842772 
L 591.596581 305.731199 
L 599.895921 305.731199 
L 600.46137 305.175412 
L 605.018795 305.175412 
L 607.200666 304.619626 
L 613.416872 304.619626 
L 617.174858 304.063839 
L 624.978982 304.063839 
L 625.938171 303.508052 
L 629.79932 303.508052 
L 630.850292 302.952266 
L 631.306203 302.396479 
L 631.53076 301.840692 
L 634.70907 301.840692 
L 634.799431 300.729119 
L 635.95973 300.729119 
L 636.285291 299.617546 
L 636.721549 299.061759 
L 639.486257 299.061759 
L 639.829626 298.505972 
L 640.096175 298.505972 
L 641.419492 297.950186 
L 643.615484 297.950186 
L 643.692567 297.394399 
L 645.288914 297.394399 
L 645.676646 296.838612 
L 647.177048 296.838612 
L 649.474307 295.727039 
L 650.470904 295.727039 
L 654.325309 294.615466 
L 654.331105 294.059679 
L 655.067001 293.503892 
L 656.944598 292.948106 
L 657.236543 292.392319 
L 659.108555 291.836532 
L 662.168686 291.836532 
L 662.620013 291.280746 
L 662.882189 290.724959 
L 666.920108 290.724959 
L 667.026064 290.169172 
L 668.089312 290.169172 
L 668.170926 289.613386 
L 668.754395 289.057599 
L 670.784577 289.057599 
L 670.939006 288.501812 
L 671.2868 288.501812 
L 671.373209 287.946026 
L 671.513412 287.946026 
L 671.518154 287.390239 
L 674.373012 287.390239 
L 674.938356 286.834452 
L 675.413077 286.834452 
L 675.696803 286.278666 
L 676.421371 286.278666 
L 676.963849 285.722879 
L 677.078235 285.167092 
L 677.233296 285.167092 
L 679.960279 284.611306 
L 682.000946 284.611306 
L 682.155428 284.055519 
L 690.205342 284.055519 
L 690.243963 283.499732 
L 690.696923 283.499732 
L 691.13334 282.943946 
L 691.298939 282.943946 
L 691.598208 282.388159 
L 694.481569 282.388159 
L 694.657495 281.276586 
L 694.807235 279.609226 
L 695.28243 279.053439 
L 697.194432 279.053439 
L 698.096191 278.497652 
L 698.970235 278.497652 
L 699.252064 277.941866 
L 700.606942 277.386079 
L 701.860605 277.386079 
L 704.380945 276.830292 
L 704.416457 276.274506 
L 705.186653 276.274506 
L 705.314316 275.718719 
L 707.554777 275.718719 
L 707.617001 275.162932 
L 718.482415 275.162932 
L 718.56424 274.607146 
L 718.973522 274.607146 
L 718.985587 273.495572 
L 720.515916 273.495572 
L 720.628774 272.939786 
L 720.813657 272.939786 
L 721.782699 272.383999 
L 722.026276 271.828212 
L 722.471333 271.828212 
L 722.847949 271.272426 
L 722.970712 270.716639 
L 728.430316 270.716639 
L 729.808376 270.160852 
L 730.080563 269.049279 
L 730.415977 268.493492 
L 730.975894 268.493492 
L 731.317156 267.937706 
L 739.152313 267.937706 
L 739.277184 267.381919 
L 739.287563 266.826132 
L 739.463647 266.270346 
L 740.740124 266.270346 
L 740.897293 265.714559 
L 745.080684 265.714559 
L 745.182003 264.602986 
L 750.206455 264.602986 
L 750.258511 264.047199 
L 752.678902 264.047199 
L 752.695183 263.491412 
L 753.873818 263.491412 
L 753.905694 262.935626 
L 757.493602 262.935626 
L 757.672057 262.379839 
L 757.899407 262.379839 
L 758.218223 261.824052 
L 758.865392 261.824052 
L 758.8822 261.268266 
L 759.29359 261.268266 
L 760.07838 260.712479 
L 766.417192 260.712479 
L 766.877898 260.156692 
L 768.758709 260.156692 
L 768.762186 259.600906 
L 783.142166 259.600906 
L 785.582842 259.045119 
L 785.653602 258.489332 
L 786.889193 257.933546 
L 788.768002 257.933546 
L 788.896403 257.377759 
L 788.901461 256.821972 
L 789.2413 256.821972 
L 789.352367 256.266186 
L 794.372551 256.266186 
L 795.273625 255.710399 
L 803.904637 255.710399 
L 803.931192 255.154612 
L 806.750169 255.154612 
L 807.954884 254.598826 
L 812.012614 254.598826 
L 812.012614 254.598826 
" clip-path="url(#p2d0b038ddc)" style="fill: none; stroke: #0969da; stroke-width: 2; stroke-linecap: square"/>
   </g>
   <g id="line2d_31">
    <path d="M 85.239886 455.237812 
L 89.614693 455.237812 
L 89.631448 454.126239 
L 93.243119 454.126239 
L 94.068005 453.570452 
L 316.708587 453.570452 
L 319.147471 453.014666 
L 380.870962 453.014666 
L 382.583908 452.458879 
L 440.808006 452.458879 
L 445.94068 451.903092 
L 459.363684 451.903092 
L 471.084438 450.235732 
L 473.462625 449.124159 
L 477.737377 449.124159 
L 480.449555 448.568372 
L 484.273559 448.012586 
L 485.117308 448.012586 
L 489.418878 447.456799 
L 490.288813 447.456799 
L 491.215915 446.901012 
L 495.367745 446.345226 
L 503.483625 445.789439 
L 503.53057 446.345226 
L 516.926018 446.345226 
L 517.866503 445.789439 
L 536.983363 445.789439 
L 538.391455 445.233652 
L 544.813198 445.233652 
L 545.264051 444.677866 
L 553.240097 444.677866 
L 553.931946 444.122079 
L 583.150978 444.122079 
L 585.887919 443.566292 
L 587.038208 443.566292 
L 587.215451 443.010506 
L 595.013779 443.010506 
L 595.021208 442.454719 
L 613.387841 442.454719 
L 613.416872 441.898932 
L 618.768255 441.898932 
L 620.132563 441.343146 
L 622.142513 440.787359 
L 622.146043 440.231572 
L 622.462383 440.231572 
L 624.978982 438.564212 
L 626.674278 438.564212 
L 626.771856 436.896852 
L 627.426929 436.896852 
L 629.79932 437.452639 
L 631.50547 437.452639 
L 631.53076 435.229492 
L 637.883429 435.229492 
L 638.827549 434.673706 
L 639.829626 434.673706 
L 640.096175 434.117919 
L 662.882189 434.117919 
L 663.187992 433.562132 
L 664.335909 433.562132 
L 666.118088 433.006346 
L 673.980801 433.006346 
L 674.373012 432.450559 
L 677.078235 432.450559 
L 677.233296 431.894772 
L 686.192503 431.894772 
L 686.372855 431.338986 
L 687.016494 431.338986 
L 687.669301 430.783199 
L 688.321476 430.783199 
L 688.360149 430.227412 
L 691.13334 430.227412 
L 691.298939 429.671626 
L 704.173248 429.671626 
L 704.262554 429.115839 
L 704.416457 429.115839 
L 704.548599 428.560052 
L 705.314316 428.560052 
L 706.919515 428.004266 
L 713.195154 428.004266 
L 713.200686 427.448479 
L 714.399817 427.448479 
L 714.445445 426.892692 
L 717.849261 426.892692 
L 718.56424 426.336906 
L 723.100325 426.336906 
L 724.41595 425.781119 
L 726.974541 425.781119 
L 727.001676 424.669546 
L 727.209162 424.669546 
L 727.470285 424.113759 
L 731.586234 424.113759 
L 732.221338 423.557972 
L 733.208557 423.557972 
L 733.579903 423.002186 
L 735.989545 423.002186 
L 736.326012 422.446399 
L 736.330333 421.890612 
L 737.008535 421.890612 
L 737.293315 421.334826 
L 763.250263 421.334826 
L 763.305375 420.223252 
L 766.877898 420.223252 
L 767.906108 419.667466 
L 768.762186 419.667466 
L 772.778134 419.111679 
L 773.523514 419.111679 
L 775.120598 418.555892 
L 776.189695 418.555892 
L 777.057048 418.000106 
L 777.934464 418.555892 
L 780.759026 418.555892 
L 781.527115 418.000106 
L 781.646296 417.444319 
L 781.702935 416.888532 
L 783.132524 416.332746 
L 783.142166 415.221172 
L 789.382768 415.221172 
L 790.74755 414.665386 
L 790.885857 412.998026 
L 792.249954 412.442239 
L 793.004344 411.886452 
L 799.456436 411.886452 
L 799.730204 410.219092 
L 800.059294 410.219092 
L 800.303293 409.663306 
L 801.880146 409.107519 
L 804.362234 409.107519 
L 804.873573 408.551732 
L 804.989909 407.995946 
L 805.250821 407.995946 
L 806.750169 406.884372 
L 808.356579 406.884372 
L 808.884041 406.328586 
L 810.737085 406.328586 
L 810.743197 405.217012 
L 812.012614 405.217012 
L 812.012614 405.217012 
" clip-path="url(#p2d0b038ddc)" style="fill: none; stroke: #bf8700; stroke-width: 2; stroke-linecap: square"/>
   </g>
   <g id="line2d_32">
    <path d="M 85.239886 454.682026 
L 85.614078 454.682026 
L 85.656018 433.006346 
L 85.947542 431.338986 
L 86.049283 430.227412 
L 86.645766 426.892692 
L 87.140613 425.781119 
L 87.391673 426.336906 
L 87.849849 425.781119 
L 88.624734 425.225332 
L 89.162365 424.113759 
L 89.614693 423.557972 
L 89.631448 423.002186 
L 90.065757 421.334826 
L 90.636686 421.334826 
L 91.413521 420.779039 
L 91.419264 420.223252 
L 92.044726 419.667466 
L 92.06206 419.111679 
L 92.310485 419.111679 
L 93.243119 418.555892 
L 93.909466 418.000106 
L 94.068005 411.886452 
L 94.177649 412.442239 
L 94.445727 408.551732 
L 94.594782 406.328586 
L 94.602211 407.995946 
L 94.680295 405.217012 
L 94.898635 402.993866 
L 98.664471 402.993866 
L 98.700194 402.438079 
L 99.012635 399.659146 
L 99.10426 402.438079 
L 99.528769 397.991786 
L 99.738994 397.435999 
L 101.305257 396.880212 
L 101.352518 396.324426 
L 101.692778 395.768639 
L 102.010225 395.768639 
L 102.816828 395.212852 
L 103.247713 394.657066 
L 103.42348 394.101279 
L 103.561576 392.989706 
L 103.964114 392.433919 
L 103.974072 391.878132 
L 104.378928 392.433919 
L 104.494157 391.878132 
L 104.50833 392.433919 
L 104.525296 390.766559 
L 108.278487 390.766559 
L 114.056908 402.993866 
L 114.916674 390.210772 
L 115.364787 389.654986 
L 117.788655 389.654986 
L 118.199149 389.099199 
L 119.077619 388.543412 
L 120.955954 402.993866 
L 121.077821 387.987626 
L 122.51916 387.431839 
L 125.601472 386.876052 
L 125.821288 387.431839 
L 126.2243 386.320266 
L 126.270296 385.764479 
L 127.259728 385.764479 
L 127.560367 385.208692 
L 128.128188 384.652906 
L 128.175291 383.541332 
L 128.699064 382.429759 
L 128.729413 382.985546 
L 129.040958 382.985546 
L 129.211773 381.873972 
L 129.737602 379.650826 
L 129.806729 378.539252 
L 130.481348 376.871892 
L 130.811071 377.983466 
L 132.052089 376.316106 
L 133.142419 374.648746 
L 133.756289 375.760319 
L 136.282583 373.537172 
L 138.283944 377.427679 
L 138.98633 373.537172 
L 141.870957 371.869812 
L 146.124475 371.869812 
L 146.686237 371.314026 
L 147.133296 369.646666 
L 148.389541 371.314026 
L 153.513785 371.869812 
L 154.78494 369.646666 
L 155.401076 367.979306 
L 156.454313 369.646666 
L 158.835767 367.979306 
L 166.924249 367.979306 
L 175.429337 367.423519 
L 175.996525 366.867732 
L 181.366033 366.311946 
L 184.916585 366.311946 
L 185.577506 365.756159 
L 185.721292 366.311946 
L 189.498509 364.644586 
L 193.041422 364.644586 
L 193.123668 364.088799 
L 195.052373 363.533012 
L 199.70511 363.533012 
L 201.757526 359.642506 
L 203.285115 359.086719 
L 205.250754 358.530932 
L 205.2889 357.975146 
L 212.656028 357.975146 
L 212.798338 354.084639 
L 213.071 354.084639 
L 213.311838 352.973066 
L 216.024226 352.973066 
L 216.844213 352.417279 
L 220.830497 352.417279 
L 226.367711 351.861492 
L 226.64464 363.533012 
L 226.658233 352.417279 
L 227.012878 351.861492 
L 228.986314 351.861492 
L 231.981006 351.305706 
L 234.998881 351.305706 
L 237.396141 350.749919 
L 244.004243 349.638346 
L 247.812177 349.638346 
L 250.872519 349.082559 
L 251.348715 346.303626 
L 251.671009 346.303626 
L 252.241306 345.747839 
L 255.216029 345.192052 
L 255.903663 342.968906 
L 260.014976 341.857332 
L 260.064503 342.413119 
L 260.451866 341.857332 
L 265.724374 340.745759 
L 269.680099 340.189972 
L 271.570078 340.189972 
L 273.245246 339.634186 
L 274.696964 338.522612 
L 276.236724 337.966826 
L 276.793691 337.411039 
L 280.426385 337.966826 
L 283.784046 336.855252 
L 284.173728 337.411039 
L 285.066108 337.411039 
L 285.245195 336.855252 
L 287.637081 336.299466 
L 289.147231 336.855252 
L 291.916048 335.743679 
L 293.723148 335.743679 
L 297.578239 335.187892 
L 298.217505 335.743679 
L 298.891597 334.076319 
L 301.23069 334.076319 
L 301.693503 333.520532 
L 303.342433 331.853172 
L 303.707668 331.297386 
L 304.276753 330.185812 
L 305.754552 330.741599 
L 306.405567 329.630026 
L 306.47069 329.074239 
L 311.704314 329.074239 
L 314.355005 328.518452 
L 315.03463 327.962666 
L 319.147471 327.962666 
L 322.041423 327.406879 
L 326.956758 327.406879 
L 328.176912 326.851092 
L 341.693227 326.851092 
L 342.469482 326.295306 
L 342.54725 325.739519 
L 343.072867 325.183732 
L 348.939066 325.183732 
L 349.30467 324.627946 
L 350.797168 324.072159 
L 351.055657 323.516372 
L 353.528419 322.960586 
L 355.326931 322.404799 
L 362.532728 322.404799 
L 364.221543 321.293226 
L 371.629504 321.293226 
L 373.279277 320.737439 
L 380.183222 320.737439 
L 380.870962 320.181652 
L 382.583908 319.625866 
L 383.093824 319.070079 
L 383.266957 318.514292 
L 388.398314 317.958506 
L 389.034366 318.514292 
L 395.789468 317.402719 
L 401.130418 316.291146 
L 401.853774 315.735359 
L 411.985189 315.735359 
L 413.297125 315.179572 
L 422.740484 315.179572 
L 431.635938 314.623786 
L 432.754825 314.067999 
L 436.488048 313.512212 
L 440.231808 312.956426 
L 440.808006 312.400639 
L 449.20798 312.400639 
L 451.767573 311.844852 
L 471.084438 311.844852 
L 473.462625 311.289066 
L 489.418878 311.289066 
L 490.288813 310.733279 
L 491.215915 311.289066 
L 495.367745 310.733279 
L 509.34034 310.733279 
L 511.212773 310.177492 
L 540.771223 310.177492 
L 540.814849 309.621706 
L 559.070152 309.621706 
L 563.080936 309.065919 
L 563.09121 308.510132 
L 583.142074 308.510132 
L 583.150978 307.398559 
L 595.021208 307.398559 
L 600.46137 306.842772 
L 607.200666 306.842772 
L 613.416872 305.731199 
L 625.938171 305.731199 
L 626.674278 305.175412 
L 626.771856 304.619626 
L 631.50547 304.619626 
L 631.53076 304.063839 
L 632.022288 304.063839 
L 632.805814 303.508052 
L 639.829626 303.508052 
L 640.096175 302.952266 
L 649.474307 302.952266 
L 649.858456 302.396479 
L 672.761385 302.396479 
L 673.979062 300.729119 
L 673.980801 300.173332 
L 677.225551 300.173332 
L 677.233296 299.617546 
L 686.804161 299.617546 
L 687.016494 299.061759 
L 691.598208 299.061759 
L 691.762805 298.505972 
L 708.783624 298.505972 
L 709.110923 297.950186 
L 713.061695 297.950186 
L 713.200686 297.394399 
L 714.445445 296.838612 
L 745.697715 296.838612 
L 747.325465 295.727039 
L 749.761978 295.727039 
L 750.258511 295.171252 
L 752.695183 295.171252 
L 753.056308 294.615466 
L 758.813389 294.615466 
L 758.8822 294.059679 
L 790.744863 294.059679 
L 790.74755 293.503892 
L 790.882748 293.503892 
L 790.885857 292.948106 
L 812.012614 292.948106 
L 812.012614 292.948106 
" clip-path="url(#p2d0b038ddc)" style="fill: none; stroke: #cf222e; stroke-width: 2; stroke-linecap: square"/>
   </g>
   <g id="line2d_33">
    <path d="M 85.239886 454.682026 
L 85.269655 454.126239 
L 85.50436 -1 
M 85.71531 -1 
L 85.779782 101.201706 
L 89.614693 101.201706 
L 89.631448 97.866986 
L 94.068005 97.866986 
L 94.28271 98.422772 
L 94.898635 98.422772 
L 95.397803 98.978559 
L 98.490864 99.534346 
L 98.551929 98.978559 
L 98.700194 99.534346 
L 108.278487 99.534346 
L 114.056908 98.422772 
L 114.916674 99.534346 
L 115.364787 98.978559 
L 115.544454 98.978559 
L 117.126681 99.534346 
L 117.788655 96.755412 
L 119.077619 96.755412 
L 120.955954 98.422772 
L 121.077821 95.643839 
L 122.51916 96.199626 
L 126.270296 96.199626 
L 127.259728 95.088052 
L 128.729413 95.088052 
L 129.123363 91.197546 
L 138.283944 91.197546 
L 138.952083 87.862826 
L 138.98633 86.751252 
L 141.870957 86.751252 
L 146.124475 82.860746 
L 148.355768 82.860746 
L 148.389541 83.416532 
L 153.513785 83.416532 
L 154.78494 80.081812 
L 158.807843 80.081812 
L 158.835767 80.637599 
L 181.366033 80.637599 
L 185.577506 81.193386 
L 185.721292 80.637599 
L 190.089144 81.193386 
L 205.2889 81.193386 
L 212.656028 81.749172 
L 212.798338 74.523946 
L 213.148293 75.079732 
L 217.304339 75.079732 
L 219.073187 75.635519 
L 226.367711 75.635519 
L 226.64464 80.637599 
L 226.658233 71.745012 
L 227.012878 71.745012 
L 228.773928 73.968159 
L 237.396141 73.968159 
L 244.004243 70.077652 
L 251.348715 70.077652 
L 251.671009 68.410292 
L 270.755571 68.410292 
L 271.570078 68.966079 
L 276.204058 68.966079 
L 276.236724 70.077652 
L 285.066108 70.077652 
L 285.245195 73.412372 
L 298.891597 73.412372 
L 299.217527 68.410292 
L 301.225895 67.298719 
L 301.23069 67.854506 
L 301.693503 67.854506 
L 303.342433 65.075572 
L 305.754552 65.075572 
L 306.405567 65.631359 
L 306.47069 65.075572 
L 307.96145 65.631359 
L 307.968247 66.187146 
L 308.003073 65.631359 
L 308.864209 63.408212 
L 316.708587 63.408212 
L 319.147471 63.963999 
L 322.041423 63.963999 
L 326.956758 64.519786 
L 331.610022 64.519786 
L 335.205149 65.631359 
L 342.54725 65.075572 
L 343.072867 65.075572 
L 347.649575 66.187146 
L 348.939066 65.631359 
L 355.326931 65.631359 
L 362.528829 67.854506 
L 362.532728 67.298719 
L 373.279277 67.298719 
L 376.612174 67.854506 
L 436.008374 67.854506 
L 436.488048 68.410292 
L 440.205095 68.410292 
L 440.231808 66.742932 
L 458.148483 66.742932 
L 458.510399 67.298719 
L 495.367745 67.298719 
L 503.483625 67.854506 
L 503.53057 67.298719 
L 509.34034 68.966079 
L 511.212773 68.966079 
L 512.987048 68.410292 
L 517.866503 68.410292 
L 522.522085 68.966079 
L 522.529725 69.521866 
L 535.730069 67.854506 
L 536.983363 68.410292 
L 553.240097 68.410292 
L 553.931946 67.854506 
L 555.199308 68.410292 
L 555.634828 70.633439 
L 563.084782 70.633439 
L 563.09121 71.189226 
L 585.887919 71.189226 
L 587.215451 71.745012 
L 591.596581 71.745012 
L 592.023987 72.300799 
L 613.387841 72.300799 
L 613.416872 72.856586 
L 617.174858 72.856586 
L 618.760299 73.412372 
L 618.768255 73.968159 
L 620.064859 73.412372 
L 620.132563 73.968159 
L 622.146043 73.968159 
L 622.462383 74.523946 
L 626.674278 74.523946 
L 626.771856 73.412372 
L 627.426929 74.523946 
L 629.79932 72.856586 
L 635.53617 72.856586 
L 635.95973 71.189226 
L 637.883429 71.189226 
L 638.827549 72.300799 
L 643.692567 72.300799 
L 645.288914 72.856586 
L 645.676646 72.856586 
L 647.177048 70.077652 
L 649.858456 70.077652 
L 650.470904 70.633439 
L 662.882189 70.633439 
L 663.187992 71.189226 
L 664.335909 71.189226 
L 666.118088 71.745012 
L 686.192503 71.745012 
L 686.372855 72.300799 
L 687.016494 72.300799 
L 688.360149 73.412372 
L 690.243963 73.412372 
L 690.696923 72.856586 
L 691.13334 72.856586 
L 691.298939 73.412372 
L 696.336774 73.412372 
L 697.194432 73.968159 
L 701.57946 73.968159 
L 701.860605 74.523946 
L 704.262554 74.523946 
L 704.416457 75.079732 
L 711.881163 75.079732 
L 712.041651 75.635519 
L 716.395172 75.635519 
L 717.609846 77.302879 
L 717.849261 77.858666 
L 719.461415 77.858666 
L 719.463101 78.414452 
L 726.009083 78.414452 
L 727.001676 78.970239 
L 732.221338 78.970239 
L 733.208557 79.526026 
L 737.008535 79.526026 
L 737.293315 80.081812 
L 743.473061 80.081812 
L 745.065984 80.637599 
L 745.182003 81.193386 
L 745.697715 81.193386 
L 747.325465 60.629279 
L 752.373574 60.629279 
L 752.409929 61.185066 
L 752.695183 61.185066 
L 753.056308 60.629279 
L 757.21425 60.629279 
L 757.493602 61.185066 
L 758.218223 61.185066 
L 758.767603 61.740852 
L 758.8822 61.185066 
L 761.121343 61.185066 
L 761.138836 61.740852 
L 761.624199 61.740852 
L 761.836744 62.296639 
L 763.305375 62.852426 
L 773.523514 62.852426 
L 775.120598 63.408212 
L 776.189695 63.408212 
L 777.057048 63.963999 
L 777.934464 63.408212 
L 781.547136 63.408212 
L 781.702935 64.519786 
L 786.889193 64.519786 
L 788.901461 66.187146 
L 810.743197 66.187146 
L 812.012614 66.742932 
L 812.012614 66.742932 
" clip-path="url(#p2d0b038ddc)" style="fill: none; stroke: #9467bd; stroke-width: 2; stroke-linecap: square"/>
   </g>
   <g id="patch_3">
    <path d="M 48.90125 455.237812 
L 48.90125 38.397812 
" style="fill: none; stroke: #d0d7de; stroke-width: 0.8; stroke-linejoin: miter; stroke-linecap: square"/>
   </g>
   <g id="patch_4">
    <path d="M 848.35125 455.237812 
L 848.35125 38.397812 
" style="fill: none; stroke: #d0d7de; stroke-width: 0.8; stroke-linejoin: miter; stroke-linecap: square"/>
   </g>
   <g id="patch_5">
    <path d="M 48.90125 455.237812 
L 848.35125 455.237812 
" style="fill: none; stroke: #d0d7de; stroke-width: 0.8; stroke-linejoin: miter; stroke-linecap: square"/>
   </g>
   <g id="patch_6">
    <path d="M 48.90125 38.397812 
L 848.35125 38.397812 
" style="fill: none; stroke: #d0d7de; stroke-width: 0.8; stroke-linejoin: miter; stroke-linecap: square"/>
   </g>
   <g id="text_17">
    <!-- 480 -->
    <g style="fill: #1a7f37" transform="translate(817.012614 190.94365) scale(0.09 -0.09)">
     <defs>
      <path id="DejaVuSans-Bold-34" d="M 2356 3675 
L 1038 1722 
L 2356 1722 
L 2356 3675 
z
M 2156 4666 
L 3494 4666 
L 3494 1722 
L 4159 1722 
L 4159 850 
L 3494 850 
L 3494 0 
L 2356 0 
L 2356 850 
L 288 850 
L 288 1881 
L 2156 4666 
z
" transform="scale(0.015625)"/>
      <path id="DejaVuSans-Bold-38" d="M 2228 2088 
Q 1891 2088 1709 1903 
Q 1528 1719 1528 1375 
Q 1528 1031 1709 848 
Q 1891 666 2228 666 
Q 2563 666 2741 848 
Q 2919 1031 2919 1375 
Q 2919 1722 2741 1905 
Q 2563 2088 2228 2088 
z
M 1350 2484 
Q 925 2613 709 2878 
Q 494 3144 494 3541 
Q 494 4131 934 4440 
Q 1375 4750 2228 4750 
Q 3075 4750 3515 4442 
Q 3956 4134 3956 3541 
Q 3956 3144 3739 2878 
Q 3522 2613 3097 2484 
Q 3572 2353 3814 2058 
Q 4056 1763 4056 1313 
Q 4056 619 3595 264 
Q 3134 -91 2228 -91 
Q 1319 -91 855 264 
Q 391 619 391 1313 
Q 391 1763 633 2058 
Q 875 2353 1350 2484 
z
M 1631 3419 
Q 1631 3141 1786 2991 
Q 1941 2841 2228 2841 
Q 2509 2841 2662 2991 
Q 2816 3141 2816 3419 
Q 2816 3697 2662 3845 
Q 2509 3994 2228 3994 
Q 1941 3994 1786 3844 
Q 1631 3694 1631 3419 
z
" transform="scale(0.015625)"/>
      <path id="DejaVuSans-Bold-30" d="M 2944 2338 
Q 2944 3213 2780 3570 
Q 2616 3928 2228 3928 
Q 1841 3928 1675 3570 
Q 1509 3213 1509 2338 
Q 1509 1453 1675 1090 
Q 1841 728 2228 728 
Q 2613 728 2778 1090 
Q 2944 1453 2944 2338 
z
M 4147 2328 
Q 4147 1169 3647 539 
Q 3147 -91 2228 -91 
Q 1306 -91 806 539 
Q 306 1169 306 2328 
Q 306 3491 806 4120 
Q 1306 4750 2228 4750 
Q 3147 4750 3647 4120 
Q 4147 3491 4147 2328 
z
" transform="scale(0.015625)"/>
     </defs>
     <use xlink:href="#DejaVuSans-Bold-34"/>
     <use xlink:href="#DejaVuSans-Bold-38" transform="translate(69.580078 0)"/>
     <use xlink:href="#DejaVuSans-Bold-30" transform="translate(139.160156 0)"/>
    </g>
   </g>
   <g id="text_18">
    <!-- 361 -->
    <g style="fill: #0969da" transform="translate(817.012614 257.082263) scale(0.09 -0.09)">
     <defs>
      <path id="DejaVuSans-Bold-33" d="M 2981 2516 
Q 3453 2394 3698 2092 
Q 3944 1791 3944 1325 
Q 3944 631 3412 270 
Q 2881 -91 1863 -91 
Q 1503 -91 1142 -33 
Q 781 25 428 141 
L 428 1069 
Q 766 900 1098 814 
Q 1431 728 1753 728 
Q 2231 728 2486 893 
Q 2741 1059 2741 1369 
Q 2741 1688 2480 1852 
Q 2219 2016 1709 2016 
L 1228 2016 
L 1228 2791 
L 1734 2791 
Q 2188 2791 2409 2933 
Q 2631 3075 2631 3366 
Q 2631 3634 2415 3781 
Q 2200 3928 1806 3928 
Q 1516 3928 1219 3862 
Q 922 3797 628 3669 
L 628 4550 
Q 984 4650 1334 4700 
Q 1684 4750 2022 4750 
Q 2931 4750 3382 4451 
Q 3834 4153 3834 3553 
Q 3834 3144 3618 2883 
Q 3403 2622 2981 2516 
z
" transform="scale(0.015625)"/>
      <path id="DejaVuSans-Bold-36" d="M 2316 2303 
Q 2000 2303 1842 2098 
Q 1684 1894 1684 1484 
Q 1684 1075 1842 870 
Q 2000 666 2316 666 
Q 2634 666 2792 870 
Q 2950 1075 2950 1484 
Q 2950 1894 2792 2098 
Q 2634 2303 2316 2303 
z
M 3803 4544 
L 3803 3681 
Q 3506 3822 3243 3889 
Q 2981 3956 2731 3956 
Q 2194 3956 1894 3657 
Q 1594 3359 1544 2772 
Q 1750 2925 1990 3001 
Q 2231 3078 2516 3078 
Q 3231 3078 3670 2659 
Q 4109 2241 4109 1563 
Q 4109 813 3618 361 
Q 3128 -91 2303 -91 
Q 1394 -91 895 523 
Q 397 1138 397 2266 
Q 397 3422 980 4083 
Q 1563 4744 2578 4744 
Q 2900 4744 3203 4694 
Q 3506 4644 3803 4544 
z
" transform="scale(0.015625)"/>
      <path id="DejaVuSans-Bold-31" d="M 750 831 
L 1813 831 
L 1813 3847 
L 722 3622 
L 722 4441 
L 1806 4666 
L 2950 4666 
L 2950 831 
L 4013 831 
L 4013 0 
L 750 0 
L 750 831 
z
" transform="scale(0.015625)"/>
     </defs>
     <use xlink:href="#DejaVuSans-Bold-33"/>
     <use xlink:href="#DejaVuSans-Bold-36" transform="translate(69.580078 0)"/>
     <use xlink:href="#DejaVuSans-Bold-31" transform="translate(139.160156 0)"/>
    </g>
   </g>
   <g id="text_19">
    <!-- 90 -->
    <g style="fill: #bf8700" transform="translate(817.012614 407.70045) scale(0.09 -0.09)">
     <defs>
      <path id="DejaVuSans-Bold-39" d="M 641 103 
L 641 966 
Q 928 831 1190 764 
Q 1453 697 1709 697 
Q 2247 697 2547 995 
Q 2847 1294 2900 1881 
Q 2688 1725 2447 1647 
Q 2206 1569 1925 1569 
Q 1209 1569 770 1986 
Q 331 2403 331 3084 
Q 331 3838 820 4291 
Q 1309 4744 2131 4744 
Q 3044 4744 3544 4128 
Q 4044 3513 4044 2388 
Q 4044 1231 3459 570 
Q 2875 -91 1856 -91 
Q 1528 -91 1228 -42 
Q 928 6 641 103 
z
M 2125 2350 
Q 2441 2350 2600 2554 
Q 2759 2759 2759 3169 
Q 2759 3575 2600 3781 
Q 2441 3988 2125 3988 
Q 1809 3988 1650 3781 
Q 1491 3575 1491 3169 
Q 1491 2759 1650 2554 
Q 1809 2350 2125 2350 
z
" transform="scale(0.015625)"/>
     </defs>
     <use xlink:href="#DejaVuSans-Bold-39"/>
     <use xlink:href="#DejaVuSans-Bold-30" transform="translate(69.580078 0)"/>
    </g>
   </g>
   <g id="text_20">
    <!-- 292 -->
    <g style="fill: #cf222e" transform="translate(817.012614 295.431543) scale(0.09 -0.09)">
     <defs>
      <path id="DejaVuSans-Bold-32" d="M 1844 884 
L 3897 884 
L 3897 0 
L 506 0 
L 506 884 
L 2209 2388 
Q 2438 2594 2547 2791 
Q 2656 2988 2656 3200 
Q 2656 3528 2436 3728 
Q 2216 3928 1850 3928 
Q 1569 3928 1234 3808 
Q 900 3688 519 3450 
L 519 4475 
Q 925 4609 1322 4679 
Q 1719 4750 2100 4750 
Q 2938 4750 3402 4381 
Q 3866 4013 3866 3353 
Q 3866 2972 3669 2642 
Q 3472 2313 2841 1759 
L 1844 884 
z
" transform="scale(0.015625)"/>
     </defs>
     <use xlink:href="#DejaVuSans-Bold-32"/>
     <use xlink:href="#DejaVuSans-Bold-39" transform="translate(69.580078 0)"/>
     <use xlink:href="#DejaVuSans-Bold-32" transform="translate(139.160156 0)"/>
    </g>
   </g>
   <g id="text_21">
    <!-- 699 -->
    <g style="fill: #9467bd" transform="translate(817.012614 69.22637) scale(0.09 -0.09)">
     <use xlink:href="#DejaVuSans-Bold-36"/>
     <use xlink:href="#DejaVuSans-Bold-39" transform="translate(69.580078 0)"/>
     <use xlink:href="#DejaVuSans-Bold-39" transform="translate(139.160156 0)"/>
    </g>
   </g>
   <g id="text_22">
    <!-- Erds Problems Progress -->
    <g style="fill: #24292f" transform="translate(349.588281 18.397812) scale(0.14 -0.14)">
     <defs>
      <path id="DejaVuSans-Bold-45" d="M 588 4666 
L 3834 4666 
L 3834 3756 
L 1791 3756 
L 1791 2888 
L 3713 2888 
L 3713 1978 
L 1791 1978 
L 1791 909 
L 3903 909 
L 3903 0 
L 588 0 
L 588 4666 
z
" transform="scale(0.015625)"/>
      <path id="DejaVuSans-Bold-72" d="M 3138 2547 
Q 2991 2616 2845 2648 
Q 2700 2681 2553 2681 
Q 2122 2681 1889 2404 
Q 1656 2128 1656 1613 
L 1656 0 
L 538 0 
L 538 3500 
L 1656 3500 
L 1656 2925 
Q 1872 3269 2151 3426 
Q 2431 3584 2822 3584 
Q 2878 3584 2943 3579 
Q 3009 3575 3134 3559 
L 3138 2547 
z
" transform="scale(0.015625)"/>
      <path id="DejaVuSans-Bold-64" d="M 2919 2988 
L 2919 4863 
L 4044 4863 
L 4044 0 
L 2919 0 
L 2919 506 
Q 2688 197 2409 53 
Q 2131 -91 1766 -91 
Q 1119 -91 703 423 
Q 288 938 288 1747 
Q 288 2556 703 3070 
Q 1119 3584 1766 3584 
Q 2128 3584 2408 3439 
Q 2688 3294 2919 2988 
z
M 2181 722 
Q 2541 722 2730 984 
Q 2919 1247 2919 1747 
Q 2919 2247 2730 2509 
Q 2541 2772 2181 2772 
Q 1825 2772 1636 2509 
Q 1447 2247 1447 1747 
Q 1447 1247 1636 984 
Q 1825 722 2181 722 
z
" transform="scale(0.015625)"/>
      <path id="DejaVuSans-Bold-151" d="M 1881 5119 
L 2560 5119 
L 1785 3944 
L 1275 3944 
L 1881 5119 
z
M 3016 5119 
L 3738 5119 
L 2888 3944 
L 2344 3944 
L 3016 5119 
z
M 2203 2784 
Q 1831 2784 1636 2517 
Q 1441 2250 1441 1747 
Q 1441 1244 1636 976 
Q 1831 709 2203 709 
Q 2569 709 2762 976 
Q 2956 1244 2956 1747 
Q 2956 2250 2762 2517 
Q 2569 2784 2203 2784 
z
M 2203 3584 
Q 3106 3584 3614 3096 
Q 4122 2609 4122 1747 
Q 4122 884 3614 396 
Q 3106 -91 2203 -91 
Q 1297 -91 786 396 
Q 275 884 275 1747 
Q 275 2609 786 3096 
Q 1297 3584 2203 3584 
z
" transform="scale(0.015625)"/>
      <path id="DejaVuSans-Bold-73" d="M 3272 3391 
L 3272 2541 
Q 2913 2691 2578 2766 
Q 2244 2841 1947 2841 
Q 1628 2841 1473 2761 
Q 1319 2681 1319 2516 
Q 1319 2381 1436 2309 
Q 1553 2238 1856 2203 
L 2053 2175 
Q 2913 2066 3209 1816 
Q 3506 1566 3506 1031 
Q 3506 472 3093 190 
Q 2681 -91 1863 -91 
Q 1516 -91 1145 -36 
Q 775 19 384 128 
L 384 978 
Q 719 816 1070 734 
Q 1422 653 1784 653 
Q 2113 653 2278 743 
Q 2444 834 2444 1013 
Q 2444 1163 2330 1236 
Q 2216 1309 1875 1350 
L 1678 1375 
Q 931 1469 631 1722 
Q 331 1975 331 2491 
Q 331 3047 712 3315 
Q 1094 3584 1881 3584 
Q 2191 3584 2531 3537 
Q 2872 3491 3272 3391 
z
" transform="scale(0.015625)"/>
      <path id="DejaVuSans-Bold-20" transform="scale(0.015625)"/>
      <path id="DejaVuSans-Bold-50" d="M 588 4666 
L 2584 4666 
Q 3475 4666 3951 4270 
Q 4428 3875 4428 3144 
Q 4428 2409 3951 2014 
Q 3475 1619 2584 1619 
L 1791 1619 
L 1791 0 
L 588 0 
L 588 4666 
z
M 1791 3794 
L 1791 2491 
L 2456 2491 
Q 2806 2491 2997 2661 
Q 3188 2831 3188 3144 
Q 3188 3456 2997 3625 
Q 2806 3794 2456 3794 
L 1791 3794 
z
" transform="scale(0.015625)"/>
      <path id="DejaVuSans-Bold-6f" d="M 2203 2784 
Q 1831 2784 1636 2517 
Q 1441 2250 1441 1747 
Q 1441 1244 1636 976 
Q 1831 709 2203 709 
Q 2569 709 2762 976 
Q 2956 1244 2956 1747 
Q 2956 2250 2762 2517 
Q 2569 2784 2203 2784 
z
M 2203 3584 
Q 3106 3584 3614 3096 
Q 4122 2609 4122 1747 
Q 4122 884 3614 396 
Q 3106 -91 2203 -91 
Q 1297 -91 786 396 
Q 275 884 275 1747 
Q 275 2609 786 3096 
Q 1297 3584 2203 3584 
z
" transform="scale(0.015625)"/>
      <path id="DejaVuSans-Bold-62" d="M 2400 722 
Q 2759 722 2948 984 
Q 3138 1247 3138 1747 
Q 3138 2247 2948 2509 
Q 2759 2772 2400 2772 
Q 2041 2772 1848 2508 
Q 1656 2244 1656 1747 
Q 1656 1250 1848 986 
Q 2041 722 2400 722 
z
M 1656 2988 
Q 1888 3294 2169 3439 
Q 2450 3584 2816 3584 
Q 3463 3584 3878 3070 
Q 4294 2556 4294 1747 
Q 4294 938 3878 423 
Q 3463 -91 2816 -91 
Q 2450 -91 2169 54 
Q 1888 200 1656 506 
L 1656 0 
L 538 0 
L 538 4863 
L 1656 4863 
L 1656 2988 
z
" transform="scale(0.015625)"/>
      <path id="DejaVuSans-Bold-6c" d="M 538 4863 
L 1656 4863 
L 1656 0 
L 538 0 
L 538 4863 
z
" transform="scale(0.015625)"/>
      <path id="DejaVuSans-Bold-65" d="M 4031 1759 
L 4031 1441 
L 1416 1441 
Q 1456 1047 1700 850 
Q 1944 653 2381 653 
Q 2734 653 3104 758 
Q 3475 863 3866 1075 
L 3866 213 
Q 3469 63 3072 -14 
Q 2675 -91 2278 -91 
Q 1328 -91 801 392 
Q 275 875 275 1747 
Q 275 2603 792 3093 
Q 1309 3584 2216 3584 
Q 3041 3584 3536 3087 
Q 4031 2591 4031 1759 
z
M 2881 2131 
Q 2881 2450 2695 2645 
Q 2509 2841 2209 2841 
Q 1884 2841 1681 2658 
Q 1478 2475 1428 2131 
L 2881 2131 
z
" transform="scale(0.015625)"/>
      <path id="DejaVuSans-Bold-6d" d="M 3781 2919 
Q 3994 3244 4286 3414 
Q 4578 3584 4928 3584 
Q 5531 3584 5847 3212 
Q 6163 2841 6163 2131 
L 6163 0 
L 5038 0 
L 5038 1825 
Q 5041 1866 5042 1909 
Q 5044 1953 5044 2034 
Q 5044 2406 4934 2573 
Q 4825 2741 4581 2741 
Q 4263 2741 4089 2478 
Q 3916 2216 3909 1719 
L 3909 0 
L 2784 0 
L 2784 1825 
Q 2784 2406 2684 2573 
Q 2584 2741 2328 2741 
Q 2006 2741 1831 2477 
Q 1656 2213 1656 1722 
L 1656 0 
L 531 0 
L 531 3500 
L 1656 3500 
L 1656 2988 
Q 1863 3284 2130 3434 
Q 2397 3584 2719 3584 
Q 3081 3584 3359 3409 
Q 3638 3234 3781 2919 
z
" transform="scale(0.015625)"/>
      <path id="DejaVuSans-Bold-67" d="M 2919 594 
Q 2688 288 2409 144 
Q 2131 0 1766 0 
Q 1125 0 706 504 
Q 288 1009 288 1791 
Q 288 2575 706 3076 
Q 1125 3578 1766 3578 
Q 2131 3578 2409 3434 
Q 2688 3291 2919 2981 
L 2919 3500 
L 4044 3500 
L 4044 353 
Q 4044 -491 3511 -936 
Q 2978 -1381 1966 -1381 
Q 1638 -1381 1331 -1331 
Q 1025 -1281 716 -1178 
L 716 -306 
Q 1009 -475 1290 -558 
Q 1572 -641 1856 -641 
Q 2406 -641 2662 -400 
Q 2919 -159 2919 353 
L 2919 594 
z
M 2181 2772 
Q 1834 2772 1640 2515 
Q 1447 2259 1447 1791 
Q 1447 1309 1634 1061 
Q 1822 813 2181 813 
Q 2531 813 2725 1069 
Q 2919 1325 2919 1791 
Q 2919 2259 2725 2515 
Q 2531 2772 2181 2772 
z
" transform="scale(0.015625)"/>
     </defs>
     <use xlink:href="#DejaVuSans-Bold-45"/>
     <use xlink:href="#DejaVuSans-Bold-72" transform="translate(68.310547 0)"/>
     <use xlink:href="#DejaVuSans-Bold-64" transform="translate(117.626953 0)"/>
     <use xlink:href="#DejaVuSans-Bold-151" transform="translate(189.208984 0)"/>
     <use xlink:href="#DejaVuSans-Bold-73" transform="translate(257.910156 0)"/>
     <use xlink:href="#DejaVuSans-Bold-20" transform="translate(317.431641 0)"/>
     <use xlink:href="#DejaVuSans-Bold-50" transform="translate(352.246094 0)"/>
     <use xlink:href="#DejaVuSans-Bold-72" transform="translate(425.537109 0)"/>
     <use xlink:href="#DejaVuSans-Bold-6f" transform="translate(474.853516 0)"/>
     <use xlink:href="#DejaVuSans-Bold-62" transform="translate(543.554688 0)"/>
     <use xlink:href="#DejaVuSans-Bold-6c" transform="translate(615.136719 0)"/>
     <use xlink:href="#DejaVuSans-Bold-65" transform="translate(649.414062 0)"/>
     <use xlink:href="#DejaVuSans-Bold-6d" transform="translate(717.236328 0)"/>
     <use xlink:href="#DejaVuSans-Bold-73" transform="translate(821.435547 0)"/>
     <use xlink:href="#DejaVuSans-Bold-20" transform="translate(880.957031 0)"/>
     <use xlink:href="#DejaVuSans-Bold-50" transform="translate(915.771484 0)"/>
     <use xlink:href="#DejaVuSans-Bold-72" transform="translate(989.0625 0)"/>
     <use xlink:href="#DejaVuSans-Bold-6f" transform="translate(1038.378906 0)"/>
     <use xlink:href="#DejaVuSans-Bold-67" transform="translate(1107.080078 0)"/>
     <use xlink:href="#DejaVuSans-Bold-72" transform="translate(1178.662109 0)"/>
     <use xlink:href="#DejaVuSans-Bold-65" transform="translate(1227.978516 0)"/>
     <use xlink:href="#DejaVuSans-Bold-73" transform="translate(1295.800781 0)"/>
     <use xlink:href="#DejaVuSans-Bold-73" transform="translate(1355.322266 0)"/>
    </g>
   </g>
   <g id="legend_1">
    <g id="patch_7">
     <path d="M 55.90125 119.788437 
L 213.771563 119.788437 
Q 215.771563 119.788437 215.771563 117.788437 
L 215.771563 45.397812 
Q 215.771563 43.397812 213.771563 43.397812 
L 55.90125 43.397812 
Q 53.90125 43.397812 53.90125 45.397812 
L 53.90125 117.788437 
Q 53.90125 119.788437 55.90125 119.788437 
z
" style="fill: #f6f8fa; opacity: 0.8; stroke: #d0d7de; stroke-linejoin: miter"/>
    </g>
    <g id="line2d_34">
     <path d="M 57.90125 51.49625 
L 67.90125 51.49625 
L 77.90125 51.49625 
" style="fill: none; stroke: #1a7f37; stroke-width: 2; stroke-linecap: square"/>
    </g>
    <g id="text_23">
     <!-- Solved -->
     <g style="fill: #24292f" transform="translate(85.90125 54.99625) scale(0.1 -0.1)">
      <defs>
       <path id="DejaVuSans-6c" d="M 603 4863 
L 1178 4863 
L 1178 0 
L 603 0 
L 603 4863 
z
" transform="scale(0.015625)"/>
       <path id="DejaVuSans-64" d="M 2906 2969 
L 2906 4863 
L 3481 4863 
L 3481 0 
L 2906 0 
L 2906 525 
Q 2725 213 2448 61 
Q 2172 -91 1784 -91 
Q 1150 -91 751 415 
Q 353 922 353 1747 
Q 353 2572 751 3078 
Q 1150 3584 1784 3584 
Q 2172 3584 2448 3432 
Q 2725 3281 2906 2969 
z
M 947 1747 
Q 947 1113 1208 752 
Q 1469 391 1925 391 
Q 2381 391 2643 752 
Q 2906 1113 2906 1747 
Q 2906 2381 2643 2742 
Q 2381 3103 1925 3103 
Q 1469 3103 1208 2742 
Q 947 2381 947 1747 
z
" transform="scale(0.015625)"/>
      </defs>
      <use xlink:href="#DejaVuSans-53"/>
      <use xlink:href="#DejaVuSans-6f" transform="translate(63.476562 0)"/>
      <use xlink:href="#DejaVuSans-6c" transform="translate(124.658203 0)"/>
      <use xlink:href="#DejaVuSans-76" transform="translate(152.441406 0)"/>
      <use xlink:href="#DejaVuSans-65" transform="translate(211.621094 0)"/>
      <use xlink:href="#DejaVuSans-64" transform="translate(273.144531 0)"/>
     </g>
    </g>
    <g id="line2d_35">
     <path d="M 57.90125 66.174375 
L 67.90125 66.174375 
L 77.90125 66.174375 
" style="fill: none; stroke: #0969da; stroke-width: 2; stroke-linecap: square"/>
    </g>
    <g id="text_24">
     <!-- Lean Formalized Problem -->
     <g style="fill: #24292f" transform="translate(85.90125 69.674375) scale(0.1 -0.1)">
      <defs>
       <path id="DejaVuSans-4c" d="M 628 4666 
L 1259 4666 
L 1259 531 
L 3531 531 
L 3531 0 
L 628 0 
L 628 4666 
z
" transform="scale(0.015625)"/>
       <path id="DejaVuSans-20" transform="scale(0.015625)"/>
       <path id="DejaVuSans-72" d="M 2631 2963 
Q 2534 3019 2420 3045 
Q 2306 3072 2169 3072 
Q 1681 3072 1420 2755 
Q 1159 2438 1159 1844 
L 1159 0 
L 581 0 
L 581 3500 
L 1159 3500 
L 1159 2956 
Q 1341 3275 1631 3429 
Q 1922 3584 2338 3584 
Q 2397 3584 2469 3576 
Q 2541 3569 2628 3553 
L 2631 2963 
z
" transform="scale(0.015625)"/>
       <path id="DejaVuSans-6d" d="M 3328 2828 
Q 3544 3216 3844 3400 
Q 4144 3584 4550 3584 
Q 5097 3584 5394 3201 
Q 5691 2819 5691 2113 
L 5691 0 
L 5113 0 
L 5113 2094 
Q 5113 2597 4934 2840 
Q 4756 3084 4391 3084 
Q 3944 3084 3684 2787 
Q 3425 2491 3425 1978 
L 3425 0 
L 2847 0 
L 2847 2094 
Q 2847 2600 2669 2842 
Q 2491 3084 2119 3084 
Q 1678 3084 1418 2786 
Q 1159 2488 1159 1978 
L 1159 0 
L 581 0 
L 581 3500 
L 1159 3500 
L 1159 2956 
Q 1356 3278 1631 3431 
Q 1906 3584 2284 3584 
Q 2666 3584 2933 3390 
Q 3200 3197 3328 2828 
z
" transform="scale(0.015625)"/>
       <path id="DejaVuSans-69" d="M 603 3500 
L 1178 3500 
L 1178 0 
L 603 0 
L 603 3500 
z
M 603 4863 
L 1178 4863 
L 1178 4134 
L 603 4134 
L 603 4863 
z
" transform="scale(0.015625)"/>
       <path id="DejaVuSans-7a" d="M 353 3500 
L 3084 3500 
L 3084 2975 
L 922 459 
L 3084 459 
L 3084 0 
L 275 0 
L 275 525 
L 2438 3041 
L 353 3041 
L 353 3500 
z
" transform="scale(0.015625)"/>
       <path id="DejaVuSans-50" d="M 1259 4147 
L 1259 2394 
L 2053 2394 
Q 2494 2394 2734 2622 
Q 2975 2850 2975 3272 
Q 2975 3691 2734 3919 
Q 2494 4147 2053 4147 
L 1259 4147 
z
M 628 4666 
L 2053 4666 
Q 2838 4666 3239 4311 
Q 3641 3956 3641 3272 
Q 3641 2581 3239 2228 
Q 2838 1875 2053 1875 
L 1259 1875 
L 1259 0 
L 628 0 
L 628 4666 
z
" transform="scale(0.015625)"/>
      </defs>
      <use xlink:href="#DejaVuSans-4c"/>
      <use xlink:href="#DejaVuSans-65" transform="translate(53.962891 0)"/>
      <use xlink:href="#DejaVuSans-61" transform="translate(115.486328 0)"/>
      <use xlink:href="#DejaVuSans-6e" transform="translate(176.765625 0)"/>
      <use xlink:href="#DejaVuSans-20" transform="translate(240.144531 0)"/>
      <use xlink:href="#DejaVuSans-46" transform="translate(271.931641 0)"/>
      <use xlink:href="#DejaVuSans-6f" transform="translate(325.826172 0)"/>
      <use xlink:href="#DejaVuSans-72" transform="translate(387.007812 0)"/>
      <use xlink:href="#DejaVuSans-6d" transform="translate(426.371094 0)"/>
      <use xlink:href="#DejaVuSans-61" transform="translate(523.783203 0)"/>
      <use xlink:href="#DejaVuSans-6c" transform="translate(585.0625 0)"/>
      <use xlink:href="#DejaVuSans-69" transform="translate(612.845703 0)"/>
      <use xlink:href="#DejaVuSans-7a" transform="translate(640.628906 0)"/>
      <use xlink:href="#DejaVuSans-65" transform="translate(693.119141 0)"/>
      <use xlink:href="#DejaVuSans-64" transform="translate(754.642578 0)"/>
      <use xlink:href="#DejaVuSans-20" transform="translate(818.119141 0)"/>
      <use xlink:href="#DejaVuSans-50" transform="translate(849.90625 0)"/>
      <use xlink:href="#DejaVuSans-72" transform="translate(908.458984 0)"/>
      <use xlink:href="#DejaVuSans-6f" transform="translate(947.322266 0)"/>
      <use xlink:href="#DejaVuSans-62" transform="translate(1008.503906 0)"/>
      <use xlink:href="#DejaVuSans-6c" transform="translate(1071.980469 0)"/>
      <use xlink:href="#DejaVuSans-65" transform="translate(1099.763672 0)"/>
      <use xlink:href="#DejaVuSans-6d" transform="translate(1161.287109 0)"/>
     </g>
    </g>
    <g id="line2d_36">
     <path d="M 57.90125 80.8525 
L 67.90125 80.8525 
L 77.90125 80.8525 
" style="fill: none; stroke: #bf8700; stroke-width: 2; stroke-linecap: square"/>
    </g>
    <g id="text_25">
     <!-- Lean Formalized Solution -->
     <g style="fill: #24292f" transform="translate(85.90125 84.3525) scale(0.1 -0.1)">
      <use xlink:href="#DejaVuSans-4c"/>
      <use xlink:href="#DejaVuSans-65" transform="translate(53.962891 0)"/>
      <use xlink:href="#DejaVuSans-61" transform="translate(115.486328 0)"/>
      <use xlink:href="#DejaVuSans-6e" transform="translate(176.765625 0)"/>
      <use xlink:href="#DejaVuSans-20" transform="translate(240.144531 0)"/>
      <use xlink:href="#DejaVuSans-46" transform="translate(271.931641 0)"/>
      <use xlink:href="#DejaVuSans-6f" transform="translate(325.826172 0)"/>
      <use xlink:href="#DejaVuSans-72" transform="translate(387.007812 0)"/>
      <use xlink:href="#DejaVuSans-6d" transform="translate(426.371094 0)"/>
      <use xlink:href="#DejaVuSans-61" transform="translate(523.783203 0)"/>
      <use xlink:href="#DejaVuSans-6c" transform="translate(585.0625 0)"/>
      <use xlink:href="#DejaVuSans-69" transform="translate(612.845703 0)"/>
      <use xlink:href="#DejaVuSans-7a" transform="translate(640.628906 0)"/>
      <use xlink:href="#DejaVuSans-65" transform="translate(693.119141 0)"/>
      <use xlink:href="#DejaVuSans-64" transform="translate(754.642578 0)"/>
      <use xlink:href="#DejaVuSans-20" transform="translate(818.119141 0)"/>
      <use xlink:href="#DejaVuSans-53" transform="translate(849.90625 0)"/>
      <use xlink:href="#DejaVuSans-6f" transform="translate(913.382812 0)"/>
      <use xlink:href="#DejaVuSans-6c" transform="translate(974.564453 0)"/>
      <use xlink:href="#DejaVuSans-75" transform="translate(1002.347656 0)"/>
      <use xlink:href="#DejaVuSans-74" transform="translate(1065.726562 0)"/>
      <use xlink:href="#DejaVuSans-69" transform="translate(1104.935547 0)"/>
      <use xlink:href="#DejaVuSans-6f" transform="translate(1132.71875 0)"/>
      <use xlink:href="#DejaVuSans-6e" transform="translate(1193.900391 0)"/>
     </g>
    </g>
    <g id="line2d_37">
     <path d="M 57.90125 95.530625 
L 67.90125 95.530625 
L 77.90125 95.530625 
" style="fill: none; stroke: #cf222e; stroke-width: 2; stroke-linecap: square"/>
    </g>
    <g id="text_26">
     <!-- OEIS Linked -->
     <g style="fill: #24292f" transform="translate(85.90125 99.030625) scale(0.1 -0.1)">
      <defs>
       <path id="DejaVuSans-45" d="M 628 4666 
L 3578 4666 
L 3578 4134 
L 1259 4134 
L 1259 2753 
L 3481 2753 
L 3481 2222 
L 1259 2222 
L 1259 531 
L 3634 531 
L 3634 0 
L 628 0 
L 628 4666 
z
" transform="scale(0.015625)"/>
       <path id="DejaVuSans-49" d="M 628 4666 
L 1259 4666 
L 1259 0 
L 628 0 
L 628 4666 
z
" transform="scale(0.015625)"/>
       <path id="DejaVuSans-6b" d="M 581 4863 
L 1159 4863 
L 1159 1991 
L 2875 3500 
L 3609 3500 
L 1753 1863 
L 3688 0 
L 2938 0 
L 1159 1709 
L 1159 0 
L 581 0 
L 581 4863 
z
" transform="scale(0.015625)"/>
      </defs>
      <use xlink:href="#DejaVuSans-4f"/>
      <use xlink:href="#DejaVuSans-45" transform="translate(78.710938 0)"/>
      <use xlink:href="#DejaVuSans-49" transform="translate(141.894531 0)"/>
      <use xlink:href="#DejaVuSans-53" transform="translate(171.386719 0)"/>
      <use xlink:href="#DejaVuSans-20" transform="translate(234.863281 0)"/>
      <use xlink:href="#DejaVuSans-4c" transform="translate(266.650391 0)"/>
      <use xlink:href="#DejaVuSans-69" transform="translate(322.363281 0)"/>
      <use xlink:href="#DejaVuSans-6e" transform="translate(350.146484 0)"/>
      <use xlink:href="#DejaVuSans-6b" transform="translate(413.525391 0)"/>
      <use xlink:href="#DejaVuSans-65" transform="translate(467.810547 0)"/>
      <use xlink:href="#DejaVuSans-64" transform="translate(529.333984 0)"/>
     </g>
    </g>
    <g id="line2d_38">
     <path d="M 57.90125 110.20875 
L 67.90125 110.20875 
L 77.90125 110.20875 
" style="fill: none; stroke: #9467bd; stroke-width: 2; stroke-linecap: square"/>
    </g>
    <g id="text_27">
     <!-- Open Problems -->
     <g style="fill: #24292f" transform="translate(85.90125 113.70875) scale(0.1 -0.1)">
      <defs>
       <path id="DejaVuSans-73" d="M 2834 3397 
L 2834 2853 
Q 2591 2978 2328 3040 
Q 2066 3103 1784 3103 
Q 1356 3103 1142 2972 
Q 928 2841 928 2578 
Q 928 2378 1081 2264 
Q 1234 2150 1697 2047 
L 1894 2003 
Q 2506 1872 2764 1633 
Q 3022 1394 3022 966 
Q 3022 478 2636 193 
Q 2250 -91 1575 -91 
Q 1294 -91 989 -36 
Q 684 19 347 128 
L 347 722 
Q 666 556 975 473 
Q 1284 391 1588 391 
Q 1994 391 2212 530 
Q 2431 669 2431 922 
Q 2431 1156 2273 1281 
Q 2116 1406 1581 1522 
L 1381 1569 
Q 847 1681 609 1914 
Q 372 2147 372 2553 
Q 372 3047 722 3315 
Q 1072 3584 1716 3584 
Q 2034 3584 2315 3537 
Q 2597 3491 2834 3397 
z
" transform="scale(0.015625)"/>
      </defs>
      <use xlink:href="#DejaVuSans-4f"/>
      <use xlink:href="#DejaVuSans-70" transform="translate(78.710938 0)"/>
      <use xlink:href="#DejaVuSans-65" transform="translate(142.1875 0)"/>
      <use xlink:href="#DejaVuSans-6e" transform="translate(203.710938 0)"/>
      <use xlink:href="#DejaVuSans-20" transform="translate(267.089844 0)"/>
      <use xlink:href="#DejaVuSans-50" transform="translate(298.876953 0)"/>
      <use xlink:href="#DejaVuSans-72" transform="translate(357.429688 0)"/>
      <use xlink:href="#DejaVuSans-6f" transform="translate(396.292969 0)"/>
      <use xlink:href="#DejaVuSans-62" transform="translate(457.474609 0)"/>
      <use xlink:href="#DejaVuSans-6c" transform="translate(520.951172 0)"/>
      <use xlink:href="#DejaVuSans-65" transform="translate(548.734375 0)"/>
      <use xlink:href="#DejaVuSans-6d" transform="translate(610.257812 0)"/>
      <use xlink:href="#DejaVuSans-73" transform="translate(707.669922 0)"/>
     </g>
    </g>
   </g>
  </g>
 </g>
 <defs>
  <clipPath id="p2d0b038ddc">
   <rect x="48.90125" y="38.397812" width="799.45" height="416.84"/>
  </clipPath>
 </defs>
</svg>
