<?xml version="1.0" encoding="utf-8" standalone="no"?>
<!DOCTYPE svg PUBLIC "-//W3C//DTD SVG 1.1//EN"
  "http://www.w3.org/Graphics/SVG/1.1/DTD/svg11.dtd">
<svg xmlns:xlink="http://www.w3.org/1999/xlink" width="855.55125pt" height="494.729687pt" viewBox="0 0 855.55125 494.729687" xmlns="http://www.w3.org/2000/svg" version="1.1">
 <metadata>
  <rdf:RDF xmlns:dc="http://purl.org/dc/elements/1.1/" xmlns:cc="http://creativecommons.org/ns#" xmlns:rdf="http://www.w3.org/1999/02/22-rdf-syntax-ns#">
   <cc:Work>
    <dc:type rdf:resource="http://purl.org/dc/dcmitype/StillImage"/>
    <dc:date>2026-04-04T19:58:35.613687</dc:date>
    <dc:format>image/svg+xml</dc:format>
    <dc:creator>
     <cc:Agent>
      <dc:title>Matplotlib v3.10.7, https://matplotlib.org/</dc:title>
     </cc:Agent>
    </dc:creator>
   </cc:Work>
  </rdf:RDF>
 </metadata>
 <defs>
  <style type="text/css">*{stroke-linejoin: round; stroke-linecap: butt}</style>
 </defs>
 <g id="figure_1">
  <g id="patch_1">
   <path d="M 0 494.729687 
L 855.55125 494.729687 
L 855.55125 0 
L 0 0 
z
" style="fill: #0d1117"/>
  </g>
  <g id="axes_1">
   <g id="patch_2">
    <path d="M 48.90125 455.237812 
L 848.35125 455.237812 
L 848.35125 38.397812 
L 48.90125 38.397812 
z
" style="fill: #0d1117"/>
   </g>
   <g id="matplotlib.axis_1">
    <g id="xtick_1">
     <g id="line2d_1">
      <path d="M 86.222945 455.237812 
L 86.222945 38.397812 
" clip-path="url(#p06126d50ac)" style="fill: none; stroke: #30363d; stroke-opacity: 0.25; stroke-width: 0.5; stroke-linecap: square"/>
     </g>
     <g id="line2d_2">
      <defs>
       <path id="mbea7732d87" d="M 0 0 
L 0 3.5 
" style="stroke: #c9d1d9; stroke-width: 0.8"/>
      </defs>
      <g>
       <use xlink:href="#mbea7732d87" x="86.222945" y="455.237812" style="fill: #c9d1d9; stroke: #c9d1d9; stroke-width: 0.8"/>
      </g>
     </g>
     <g id="text_1">
      <!-- Sep -->
      <g style="fill: #c9d1d9" transform="translate(76.797945 469.83625) scale(0.1 -0.1)">
       <defs>
        <path id="DejaVuSans-53" d="M 3425 4513 
L 3425 3897 
Q 3066 4069 2747 4153 
Q 2428 4238 2131 4238 
Q 1616 4238 1336 4038 
Q 1056 3838 1056 3469 
Q 1056 3159 1242 3001 
Q 1428 2844 1947 2747 
L 2328 2669 
Q 3034 2534 3370 2195 
Q 3706 1856 3706 1288 
Q 3706 609 3251 259 
Q 2797 -91 1919 -91 
Q 1588 -91 1214 -16 
Q 841 59 441 206 
L 441 856 
Q 825 641 1194 531 
Q 1563 422 1919 422 
Q 2459 422 2753 634 
Q 3047 847 3047 1241 
Q 3047 1584 2836 1778 
Q 2625 1972 2144 2069 
L 1759 2144 
Q 1053 2284 737 2584 
Q 422 2884 422 3419 
Q 422 4038 858 4394 
Q 1294 4750 2059 4750 
Q 2388 4750 2728 4690 
Q 3069 4631 3425 4513 
z
" transform="scale(0.015625)"/>
        <path id="DejaVuSans-65" d="M 3597 1894 
L 3597 1613 
L 953 1613 
Q 991 1019 1311 708 
Q 1631 397 2203 397 
Q 2534 397 2845 478 
Q 3156 559 3463 722 
L 3463 178 
Q 3153 47 2828 -22 
Q 2503 -91 2169 -91 
Q 1331 -91 842 396 
Q 353 884 353 1716 
Q 353 2575 817 3079 
Q 1281 3584 2069 3584 
Q 2775 3584 3186 3129 
Q 3597 2675 3597 1894 
z
M 3022 2063 
Q 3016 2534 2758 2815 
Q 2500 3097 2075 3097 
Q 1594 3097 1305 2825 
Q 1016 2553 972 2059 
L 3022 2063 
z
" transform="scale(0.015625)"/>
        <path id="DejaVuSans-70" d="M 1159 525 
L 1159 -1331 
L 581 -1331 
L 581 3500 
L 1159 3500 
L 1159 2969 
Q 1341 3281 1617 3432 
Q 1894 3584 2278 3584 
Q 2916 3584 3314 3078 
Q 3713 2572 3713 1747 
Q 3713 922 3314 415 
Q 2916 -91 2278 -91 
Q 1894 -91 1617 61 
Q 1341 213 1159 525 
z
M 3116 1747 
Q 3116 2381 2855 2742 
Q 2594 3103 2138 3103 
Q 1681 3103 1420 2742 
Q 1159 2381 1159 1747 
Q 1159 1113 1420 752 
Q 1681 391 2138 391 
Q 2594 391 2855 752 
Q 3116 1113 3116 1747 
z
" transform="scale(0.015625)"/>
       </defs>
       <use xlink:href="#DejaVuSans-53"/>
       <use xlink:href="#DejaVuSans-65" transform="translate(63.476562 0)"/>
       <use xlink:href="#DejaVuSans-70" transform="translate(125 0)"/>
      </g>
     </g>
    </g>
    <g id="xtick_2">
     <g id="line2d_3">
      <path d="M 187.105367 455.237812 
L 187.105367 38.397812 
" clip-path="url(#p06126d50ac)" style="fill: none; stroke: #30363d; stroke-opacity: 0.25; stroke-width: 0.5; stroke-linecap: square"/>
     </g>
     <g id="line2d_4">
      <g>
       <use xlink:href="#mbea7732d87" x="187.105367" y="455.237812" style="fill: #c9d1d9; stroke: #c9d1d9; stroke-width: 0.8"/>
      </g>
     </g>
     <g id="text_2">
      <!-- Oct -->
      <g style="fill: #c9d1d9" transform="translate(178.460054 469.83625) scale(0.1 -0.1)">
       <defs>
        <path id="DejaVuSans-4f" d="M 2522 4238 
Q 1834 4238 1429 3725 
Q 1025 3213 1025 2328 
Q 1025 1447 1429 934 
Q 1834 422 2522 422 
Q 3209 422 3611 934 
Q 4013 1447 4013 2328 
Q 4013 3213 3611 3725 
Q 3209 4238 2522 4238 
z
M 2522 4750 
Q 3503 4750 4090 4092 
Q 4678 3434 4678 2328 
Q 4678 1225 4090 567 
Q 3503 -91 2522 -91 
Q 1538 -91 948 565 
Q 359 1222 359 2328 
Q 359 3434 948 4092 
Q 1538 4750 2522 4750 
z
" transform="scale(0.015625)"/>
        <path id="DejaVuSans-63" d="M 3122 3366 
L 3122 2828 
Q 2878 2963 2633 3030 
Q 2388 3097 2138 3097 
Q 1578 3097 1268 2742 
Q 959 2388 959 1747 
Q 959 1106 1268 751 
Q 1578 397 2138 397 
Q 2388 397 2633 464 
Q 2878 531 3122 666 
L 3122 134 
Q 2881 22 2623 -34 
Q 2366 -91 2075 -91 
Q 1284 -91 818 406 
Q 353 903 353 1747 
Q 353 2603 823 3093 
Q 1294 3584 2113 3584 
Q 2378 3584 2631 3529 
Q 2884 3475 3122 3366 
z
" transform="scale(0.015625)"/>
        <path id="DejaVuSans-74" d="M 1172 4494 
L 1172 3500 
L 2356 3500 
L 2356 3053 
L 1172 3053 
L 1172 1153 
Q 1172 725 1289 603 
Q 1406 481 1766 481 
L 2356 481 
L 2356 0 
L 1766 0 
Q 1100 0 847 248 
Q 594 497 594 1153 
L 594 3053 
L 172 3053 
L 172 3500 
L 594 3500 
L 594 4494 
L 1172 4494 
z
" transform="scale(0.015625)"/>
       </defs>
       <use xlink:href="#DejaVuSans-4f"/>
       <use xlink:href="#DejaVuSans-63" transform="translate(78.710938 0)"/>
       <use xlink:href="#DejaVuSans-74" transform="translate(133.691406 0)"/>
      </g>
     </g>
    </g>
    <g id="xtick_3">
     <g id="line2d_5">
      <path d="M 291.350535 455.237812 
L 291.350535 38.397812 
" clip-path="url(#p06126d50ac)" style="fill: none; stroke: #30363d; stroke-opacity: 0.25; stroke-width: 0.5; stroke-linecap: square"/>
     </g>
     <g id="line2d_6">
      <g>
       <use xlink:href="#mbea7732d87" x="291.350535" y="455.237812" style="fill: #c9d1d9; stroke: #c9d1d9; stroke-width: 0.8"/>
      </g>
     </g>
     <g id="text_3">
      <!-- Nov -->
      <g style="fill: #c9d1d9" transform="translate(281.59116 469.83625) scale(0.1 -0.1)">
       <defs>
        <path id="DejaVuSans-4e" d="M 628 4666 
L 1478 4666 
L 3547 763 
L 3547 4666 
L 4159 4666 
L 4159 0 
L 3309 0 
L 1241 3903 
L 1241 0 
L 628 0 
L 628 4666 
z
" transform="scale(0.015625)"/>
        <path id="DejaVuSans-6f" d="M 1959 3097 
Q 1497 3097 1228 2736 
Q 959 2375 959 1747 
Q 959 1119 1226 758 
Q 1494 397 1959 397 
Q 2419 397 2687 759 
Q 2956 1122 2956 1747 
Q 2956 2369 2687 2733 
Q 2419 3097 1959 3097 
z
M 1959 3584 
Q 2709 3584 3137 3096 
Q 3566 2609 3566 1747 
Q 3566 888 3137 398 
Q 2709 -91 1959 -91 
Q 1206 -91 779 398 
Q 353 888 353 1747 
Q 353 2609 779 3096 
Q 1206 3584 1959 3584 
z
" transform="scale(0.015625)"/>
        <path id="DejaVuSans-76" d="M 191 3500 
L 800 3500 
L 1894 563 
L 2988 3500 
L 3597 3500 
L 2284 0 
L 1503 0 
L 191 3500 
z
" transform="scale(0.015625)"/>
       </defs>
       <use xlink:href="#DejaVuSans-4e"/>
       <use xlink:href="#DejaVuSans-6f" transform="translate(74.804688 0)"/>
       <use xlink:href="#DejaVuSans-76" transform="translate(135.986328 0)"/>
      </g>
     </g>
    </g>
    <g id="xtick_4">
     <g id="line2d_7">
      <path d="M 392.232957 455.237812 
L 392.232957 38.397812 
" clip-path="url(#p06126d50ac)" style="fill: none; stroke: #30363d; stroke-opacity: 0.25; stroke-width: 0.5; stroke-linecap: square"/>
     </g>
     <g id="line2d_8">
      <g>
       <use xlink:href="#mbea7732d87" x="392.232957" y="455.237812" style="fill: #c9d1d9; stroke: #c9d1d9; stroke-width: 0.8"/>
      </g>
     </g>
     <g id="text_4">
      <!-- Dec -->
      <g style="fill: #c9d1d9" transform="translate(382.557176 469.83625) scale(0.1 -0.1)">
       <defs>
        <path id="DejaVuSans-44" d="M 1259 4147 
L 1259 519 
L 2022 519 
Q 2988 519 3436 956 
Q 3884 1394 3884 2338 
Q 3884 3275 3436 3711 
Q 2988 4147 2022 4147 
L 1259 4147 
z
M 628 4666 
L 1925 4666 
Q 3281 4666 3915 4102 
Q 4550 3538 4550 2338 
Q 4550 1131 3912 565 
Q 3275 0 1925 0 
L 628 0 
L 628 4666 
z
" transform="scale(0.015625)"/>
       </defs>
       <use xlink:href="#DejaVuSans-44"/>
       <use xlink:href="#DejaVuSans-65" transform="translate(77.001953 0)"/>
       <use xlink:href="#DejaVuSans-63" transform="translate(138.525391 0)"/>
      </g>
     </g>
    </g>
    <g id="xtick_5">
     <g id="line2d_9">
      <path d="M 496.478126 455.237812 
L 496.478126 38.397812 
" clip-path="url(#p06126d50ac)" style="fill: none; stroke: #30363d; stroke-opacity: 0.25; stroke-width: 0.5; stroke-linecap: square"/>
     </g>
     <g id="line2d_10">
      <g>
       <use xlink:href="#mbea7732d87" x="496.478126" y="455.237812" style="fill: #c9d1d9; stroke: #c9d1d9; stroke-width: 0.8"/>
      </g>
     </g>
     <g id="text_5">
      <!-- 2026 -->
      <g style="fill: #c9d1d9" transform="translate(483.753126 469.83625) scale(0.1 -0.1)">
       <defs>
        <path id="DejaVuSans-32" d="M 1228 531 
L 3431 531 
L 3431 0 
L 469 0 
L 469 531 
Q 828 903 1448 1529 
Q 2069 2156 2228 2338 
Q 2531 2678 2651 2914 
Q 2772 3150 2772 3378 
Q 2772 3750 2511 3984 
Q 2250 4219 1831 4219 
Q 1534 4219 1204 4116 
Q 875 4013 500 3803 
L 500 4441 
Q 881 4594 1212 4672 
Q 1544 4750 1819 4750 
Q 2544 4750 2975 4387 
Q 3406 4025 3406 3419 
Q 3406 3131 3298 2873 
Q 3191 2616 2906 2266 
Q 2828 2175 2409 1742 
Q 1991 1309 1228 531 
z
" transform="scale(0.015625)"/>
        <path id="DejaVuSans-30" d="M 2034 4250 
Q 1547 4250 1301 3770 
Q 1056 3291 1056 2328 
Q 1056 1369 1301 889 
Q 1547 409 2034 409 
Q 2525 409 2770 889 
Q 3016 1369 3016 2328 
Q 3016 3291 2770 3770 
Q 2525 4250 2034 4250 
z
M 2034 4750 
Q 2819 4750 3233 4129 
Q 3647 3509 3647 2328 
Q 3647 1150 3233 529 
Q 2819 -91 2034 -91 
Q 1250 -91 836 529 
Q 422 1150 422 2328 
Q 422 3509 836 4129 
Q 1250 4750 2034 4750 
z
" transform="scale(0.015625)"/>
        <path id="DejaVuSans-36" d="M 2113 2584 
Q 1688 2584 1439 2293 
Q 1191 2003 1191 1497 
Q 1191 994 1439 701 
Q 1688 409 2113 409 
Q 2538 409 2786 701 
Q 3034 994 3034 1497 
Q 3034 2003 2786 2293 
Q 2538 2584 2113 2584 
z
M 3366 4563 
L 3366 3988 
Q 3128 4100 2886 4159 
Q 2644 4219 2406 4219 
Q 1781 4219 1451 3797 
Q 1122 3375 1075 2522 
Q 1259 2794 1537 2939 
Q 1816 3084 2150 3084 
Q 2853 3084 3261 2657 
Q 3669 2231 3669 1497 
Q 3669 778 3244 343 
Q 2819 -91 2113 -91 
Q 1303 -91 875 529 
Q 447 1150 447 2328 
Q 447 3434 972 4092 
Q 1497 4750 2381 4750 
Q 2619 4750 2861 4703 
Q 3103 4656 3366 4563 
z
" transform="scale(0.015625)"/>
       </defs>
       <use xlink:href="#DejaVuSans-32"/>
       <use xlink:href="#DejaVuSans-30" transform="translate(63.623047 0)"/>
       <use xlink:href="#DejaVuSans-32" transform="translate(127.246094 0)"/>
       <use xlink:href="#DejaVuSans-36" transform="translate(190.869141 0)"/>
      </g>
     </g>
    </g>
    <g id="xtick_6">
     <g id="line2d_11">
      <path d="M 600.723295 455.237812 
L 600.723295 38.397812 
" clip-path="url(#p06126d50ac)" style="fill: none; stroke: #30363d; stroke-opacity: 0.25; stroke-width: 0.5; stroke-linecap: square"/>
     </g>
     <g id="line2d_12">
      <g>
       <use xlink:href="#mbea7732d87" x="600.723295" y="455.237812" style="fill: #c9d1d9; stroke: #c9d1d9; stroke-width: 0.8"/>
      </g>
     </g>
     <g id="text_6">
      <!-- Feb -->
      <g style="fill: #c9d1d9" transform="translate(591.871732 469.83625) scale(0.1 -0.1)">
       <defs>
        <path id="DejaVuSans-46" d="M 628 4666 
L 3309 4666 
L 3309 4134 
L 1259 4134 
L 1259 2759 
L 3109 2759 
L 3109 2228 
L 1259 2228 
L 1259 0 
L 628 0 
L 628 4666 
z
" transform="scale(0.015625)"/>
        <path id="DejaVuSans-62" d="M 3116 1747 
Q 3116 2381 2855 2742 
Q 2594 3103 2138 3103 
Q 1681 3103 1420 2742 
Q 1159 2381 1159 1747 
Q 1159 1113 1420 752 
Q 1681 391 2138 391 
Q 2594 391 2855 752 
Q 3116 1113 3116 1747 
z
M 1159 2969 
Q 1341 3281 1617 3432 
Q 1894 3584 2278 3584 
Q 2916 3584 3314 3078 
Q 3713 2572 3713 1747 
Q 3713 922 3314 415 
Q 2916 -91 2278 -91 
Q 1894 -91 1617 61 
Q 1341 213 1159 525 
L 1159 0 
L 581 0 
L 581 4863 
L 1159 4863 
L 1159 2969 
z
" transform="scale(0.015625)"/>
       </defs>
       <use xlink:href="#DejaVuSans-46"/>
       <use xlink:href="#DejaVuSans-65" transform="translate(52.019531 0)"/>
       <use xlink:href="#DejaVuSans-62" transform="translate(113.542969 0)"/>
      </g>
     </g>
    </g>
    <g id="xtick_7">
     <g id="line2d_13">
      <path d="M 694.880221 455.237812 
L 694.880221 38.397812 
" clip-path="url(#p06126d50ac)" style="fill: none; stroke: #30363d; stroke-opacity: 0.25; stroke-width: 0.5; stroke-linecap: square"/>
     </g>
     <g id="line2d_14">
      <g>
       <use xlink:href="#mbea7732d87" x="694.880221" y="455.237812" style="fill: #c9d1d9; stroke: #c9d1d9; stroke-width: 0.8"/>
      </g>
     </g>
     <g id="text_7">
      <!-- Mar -->
      <g style="fill: #c9d1d9" transform="translate(685.446628 469.83625) scale(0.1 -0.1)">
       <defs>
        <path id="DejaVuSans-4d" d="M 628 4666 
L 1569 4666 
L 2759 1491 
L 3956 4666 
L 4897 4666 
L 4897 0 
L 4281 0 
L 4281 4097 
L 3078 897 
L 2444 897 
L 1241 4097 
L 1241 0 
L 628 0 
L 628 4666 
z
" transform="scale(0.015625)"/>
        <path id="DejaVuSans-61" d="M 2194 1759 
Q 1497 1759 1228 1600 
Q 959 1441 959 1056 
Q 959 750 1161 570 
Q 1363 391 1709 391 
Q 2188 391 2477 730 
Q 2766 1069 2766 1631 
L 2766 1759 
L 2194 1759 
z
M 3341 1997 
L 3341 0 
L 2766 0 
L 2766 531 
Q 2569 213 2275 61 
Q 1981 -91 1556 -91 
Q 1019 -91 701 211 
Q 384 513 384 1019 
Q 384 1609 779 1909 
Q 1175 2209 1959 2209 
L 2766 2209 
L 2766 2266 
Q 2766 2663 2505 2880 
Q 2244 3097 1772 3097 
Q 1472 3097 1187 3025 
Q 903 2953 641 2809 
L 641 3341 
Q 956 3463 1253 3523 
Q 1550 3584 1831 3584 
Q 2591 3584 2966 3190 
Q 3341 2797 3341 1997 
z
" transform="scale(0.015625)"/>
        <path id="DejaVuSans-72" d="M 2631 2963 
Q 2534 3019 2420 3045 
Q 2306 3072 2169 3072 
Q 1681 3072 1420 2755 
Q 1159 2438 1159 1844 
L 1159 0 
L 581 0 
L 581 3500 
L 1159 3500 
L 1159 2956 
Q 1341 3275 1631 3429 
Q 1922 3584 2338 3584 
Q 2397 3584 2469 3576 
Q 2541 3569 2628 3553 
L 2631 2963 
z
" transform="scale(0.015625)"/>
       </defs>
       <use xlink:href="#DejaVuSans-4d"/>
       <use xlink:href="#DejaVuSans-61" transform="translate(86.279297 0)"/>
       <use xlink:href="#DejaVuSans-72" transform="translate(147.558594 0)"/>
      </g>
     </g>
    </g>
    <g id="xtick_8">
     <g id="line2d_15">
      <path d="M 799.12539 455.237812 
L 799.12539 38.397812 
" clip-path="url(#p06126d50ac)" style="fill: none; stroke: #30363d; stroke-opacity: 0.25; stroke-width: 0.5; stroke-linecap: square"/>
     </g>
     <g id="line2d_16">
      <g>
       <use xlink:href="#mbea7732d87" x="799.12539" y="455.237812" style="fill: #c9d1d9; stroke: #c9d1d9; stroke-width: 0.8"/>
      </g>
     </g>
     <g id="text_8">
      <!-- Apr -->
      <g style="fill: #c9d1d9" transform="translate(790.47539 469.83625) scale(0.1 -0.1)">
       <defs>
        <path id="DejaVuSans-41" d="M 2188 4044 
L 1331 1722 
L 3047 1722 
L 2188 4044 
z
M 1831 4666 
L 2547 4666 
L 4325 0 
L 3669 0 
L 3244 1197 
L 1141 1197 
L 716 0 
L 50 0 
L 1831 4666 
z
" transform="scale(0.015625)"/>
       </defs>
       <use xlink:href="#DejaVuSans-41"/>
       <use xlink:href="#DejaVuSans-70" transform="translate(68.408203 0)"/>
       <use xlink:href="#DejaVuSans-72" transform="translate(131.884766 0)"/>
      </g>
     </g>
    </g>
    <g id="text_9">
     <!-- Date -->
     <g style="fill: #c9d1d9" transform="translate(434.285313 485.034062) scale(0.12 -0.12)">
      <use xlink:href="#DejaVuSans-44"/>
      <use xlink:href="#DejaVuSans-61" transform="translate(77.001953 0)"/>
      <use xlink:href="#DejaVuSans-74" transform="translate(138.28125 0)"/>
      <use xlink:href="#DejaVuSans-65" transform="translate(177.490234 0)"/>
     </g>
    </g>
   </g>
   <g id="matplotlib.axis_2">
    <g id="ytick_1">
     <g id="line2d_17">
      <path d="M 48.90125 455.237812 
L 848.35125 455.237812 
" clip-path="url(#p06126d50ac)" style="fill: none; stroke: #30363d; stroke-opacity: 0.25; stroke-width: 0.5; stroke-linecap: square"/>
     </g>
     <g id="line2d_18">
      <defs>
       <path id="m7a9b5e116f" d="M 0 0 
L -3.5 0 
" style="stroke: #c9d1d9; stroke-width: 0.8"/>
      </defs>
      <g>
       <use xlink:href="#m7a9b5e116f" x="48.90125" y="455.237812" style="fill: #c9d1d9; stroke: #c9d1d9; stroke-width: 0.8"/>
      </g>
     </g>
     <g id="text_10">
      <!-- 0 -->
      <g style="fill: #c9d1d9" transform="translate(35.53875 459.037031) scale(0.1 -0.1)">
       <use xlink:href="#DejaVuSans-30"/>
      </g>
     </g>
    </g>
    <g id="ytick_2">
     <g id="line2d_19">
      <path d="M 48.90125 399.659146 
L 848.35125 399.659146 
" clip-path="url(#p06126d50ac)" style="fill: none; stroke: #30363d; stroke-opacity: 0.25; stroke-width: 0.5; stroke-linecap: square"/>
     </g>
     <g id="line2d_20">
      <g>
       <use xlink:href="#m7a9b5e116f" x="48.90125" y="399.659146" style="fill: #c9d1d9; stroke: #c9d1d9; stroke-width: 0.8"/>
      </g>
     </g>
     <g id="text_11">
      <!-- 100 -->
      <g style="fill: #c9d1d9" transform="translate(22.81375 403.458365) scale(0.1 -0.1)">
       <defs>
        <path id="DejaVuSans-31" d="M 794 531 
L 1825 531 
L 1825 4091 
L 703 3866 
L 703 4441 
L 1819 4666 
L 2450 4666 
L 2450 531 
L 3481 531 
L 3481 0 
L 794 0 
L 794 531 
z
" transform="scale(0.015625)"/>
       </defs>
       <use xlink:href="#DejaVuSans-31"/>
       <use xlink:href="#DejaVuSans-30" transform="translate(63.623047 0)"/>
       <use xlink:href="#DejaVuSans-30" transform="translate(127.246094 0)"/>
      </g>
     </g>
    </g>
    <g id="ytick_3">
     <g id="line2d_21">
      <path d="M 48.90125 344.080479 
L 848.35125 344.080479 
" clip-path="url(#p06126d50ac)" style="fill: none; stroke: #30363d; stroke-opacity: 0.25; stroke-width: 0.5; stroke-linecap: square"/>
     </g>
     <g id="line2d_22">
      <g>
       <use xlink:href="#m7a9b5e116f" x="48.90125" y="344.080479" style="fill: #c9d1d9; stroke: #c9d1d9; stroke-width: 0.8"/>
      </g>
     </g>
     <g id="text_12">
      <!-- 200 -->
      <g style="fill: #c9d1d9" transform="translate(22.81375 347.879698) scale(0.1 -0.1)">
       <use xlink:href="#DejaVuSans-32"/>
       <use xlink:href="#DejaVuSans-30" transform="translate(63.623047 0)"/>
       <use xlink:href="#DejaVuSans-30" transform="translate(127.246094 0)"/>
      </g>
     </g>
    </g>
    <g id="ytick_4">
     <g id="line2d_23">
      <path d="M 48.90125 288.501812 
L 848.35125 288.501812 
" clip-path="url(#p06126d50ac)" style="fill: none; stroke: #30363d; stroke-opacity: 0.25; stroke-width: 0.5; stroke-linecap: square"/>
     </g>
     <g id="line2d_24">
      <g>
       <use xlink:href="#m7a9b5e116f" x="48.90125" y="288.501812" style="fill: #c9d1d9; stroke: #c9d1d9; stroke-width: 0.8"/>
      </g>
     </g>
     <g id="text_13">
      <!-- 300 -->
      <g style="fill: #c9d1d9" transform="translate(22.81375 292.301031) scale(0.1 -0.1)">
       <defs>
        <path id="DejaVuSans-33" d="M 2597 2516 
Q 3050 2419 3304 2112 
Q 3559 1806 3559 1356 
Q 3559 666 3084 287 
Q 2609 -91 1734 -91 
Q 1441 -91 1130 -33 
Q 819 25 488 141 
L 488 750 
Q 750 597 1062 519 
Q 1375 441 1716 441 
Q 2309 441 2620 675 
Q 2931 909 2931 1356 
Q 2931 1769 2642 2001 
Q 2353 2234 1838 2234 
L 1294 2234 
L 1294 2753 
L 1863 2753 
Q 2328 2753 2575 2939 
Q 2822 3125 2822 3475 
Q 2822 3834 2567 4026 
Q 2313 4219 1838 4219 
Q 1578 4219 1281 4162 
Q 984 4106 628 3988 
L 628 4550 
Q 988 4650 1302 4700 
Q 1616 4750 1894 4750 
Q 2613 4750 3031 4423 
Q 3450 4097 3450 3541 
Q 3450 3153 3228 2886 
Q 3006 2619 2597 2516 
z
" transform="scale(0.015625)"/>
       </defs>
       <use xlink:href="#DejaVuSans-33"/>
       <use xlink:href="#DejaVuSans-30" transform="translate(63.623047 0)"/>
       <use xlink:href="#DejaVuSans-30" transform="translate(127.246094 0)"/>
      </g>
     </g>
    </g>
    <g id="ytick_5">
     <g id="line2d_25">
      <path d="M 48.90125 232.923146 
L 848.35125 232.923146 
" clip-path="url(#p06126d50ac)" style="fill: none; stroke: #30363d; stroke-opacity: 0.25; stroke-width: 0.5; stroke-linecap: square"/>
     </g>
     <g id="line2d_26">
      <g>
       <use xlink:href="#m7a9b5e116f" x="48.90125" y="232.923146" style="fill: #c9d1d9; stroke: #c9d1d9; stroke-width: 0.8"/>
      </g>
     </g>
     <g id="text_14">
      <!-- 400 -->
      <g style="fill: #c9d1d9" transform="translate(22.81375 236.722365) scale(0.1 -0.1)">
       <defs>
        <path id="DejaVuSans-34" d="M 2419 4116 
L 825 1625 
L 2419 1625 
L 2419 4116 
z
M 2253 4666 
L 3047 4666 
L 3047 1625 
L 3713 1625 
L 3713 1100 
L 3047 1100 
L 3047 0 
L 2419 0 
L 2419 1100 
L 313 1100 
L 313 1709 
L 2253 4666 
z
" transform="scale(0.015625)"/>
       </defs>
       <use xlink:href="#DejaVuSans-34"/>
       <use xlink:href="#DejaVuSans-30" transform="translate(63.623047 0)"/>
       <use xlink:href="#DejaVuSans-30" transform="translate(127.246094 0)"/>
      </g>
     </g>
    </g>
    <g id="ytick_6">
     <g id="line2d_27">
      <path d="M 48.90125 177.344479 
L 848.35125 177.344479 
" clip-path="url(#p06126d50ac)" style="fill: none; stroke: #30363d; stroke-opacity: 0.25; stroke-width: 0.5; stroke-linecap: square"/>
     </g>
     <g id="line2d_28">
      <g>
       <use xlink:href="#m7a9b5e116f" x="48.90125" y="177.344479" style="fill: #c9d1d9; stroke: #c9d1d9; stroke-width: 0.8"/>
      </g>
     </g>
     <g id="text_15">
      <!-- 500 -->
      <g style="fill: #c9d1d9" transform="translate(22.81375 181.143698) scale(0.1 -0.1)">
       <defs>
        <path id="DejaVuSans-35" d="M 691 4666 
L 3169 4666 
L 3169 4134 
L 1269 4134 
L 1269 2991 
Q 1406 3038 1543 3061 
Q 1681 3084 1819 3084 
Q 2600 3084 3056 2656 
Q 3513 2228 3513 1497 
Q 3513 744 3044 326 
Q 2575 -91 1722 -91 
Q 1428 -91 1123 -41 
Q 819 9 494 109 
L 494 744 
Q 775 591 1075 516 
Q 1375 441 1709 441 
Q 2250 441 2565 725 
Q 2881 1009 2881 1497 
Q 2881 1984 2565 2268 
Q 2250 2553 1709 2553 
Q 1456 2553 1204 2497 
Q 953 2441 691 2322 
L 691 4666 
z
" transform="scale(0.015625)"/>
       </defs>
       <use xlink:href="#DejaVuSans-35"/>
       <use xlink:href="#DejaVuSans-30" transform="translate(63.623047 0)"/>
       <use xlink:href="#DejaVuSans-30" transform="translate(127.246094 0)"/>
      </g>
     </g>
    </g>
    <g id="ytick_7">
     <g id="line2d_29">
      <path d="M 48.90125 121.765812 
L 848.35125 121.765812 
" clip-path="url(#p06126d50ac)" style="fill: none; stroke: #30363d; stroke-opacity: 0.25; stroke-width: 0.5; stroke-linecap: square"/>
     </g>
     <g id="line2d_30">
      <g>
       <use xlink:href="#m7a9b5e116f" x="48.90125" y="121.765812" style="fill: #c9d1d9; stroke: #c9d1d9; stroke-width: 0.8"/>
      </g>
     </g>
     <g id="text_16">
      <!-- 600 -->
      <g style="fill: #c9d1d9" transform="translate(22.81375 125.565031) scale(0.1 -0.1)">
       <use xlink:href="#DejaVuSans-36"/>
       <use xlink:href="#DejaVuSans-30" transform="translate(63.623047 0)"/>
       <use xlink:href="#DejaVuSans-30" transform="translate(127.246094 0)"/>
      </g>
     </g>
    </g>
    <g id="ytick_8">
     <g id="line2d_31">
      <path d="M 48.90125 66.187146 
L 848.35125 66.187146 
" clip-path="url(#p06126d50ac)" style="fill: none; stroke: #30363d; stroke-opacity: 0.25; stroke-width: 0.5; stroke-linecap: square"/>
     </g>
     <g id="line2d_32">
      <g>
       <use xlink:href="#m7a9b5e116f" x="48.90125" y="66.187146" style="fill: #c9d1d9; stroke: #c9d1d9; stroke-width: 0.8"/>
      </g>
     </g>
     <g id="text_17">
      <!-- 700 -->
      <g style="fill: #c9d1d9" transform="translate(22.81375 69.986365) scale(0.1 -0.1)">
       <defs>
        <path id="DejaVuSans-37" d="M 525 4666 
L 3525 4666 
L 3525 4397 
L 1831 0 
L 1172 0 
L 2766 4134 
L 525 4134 
L 525 4666 
z
" transform="scale(0.015625)"/>
       </defs>
       <use xlink:href="#DejaVuSans-37"/>
       <use xlink:href="#DejaVuSans-30" transform="translate(63.623047 0)"/>
       <use xlink:href="#DejaVuSans-30" transform="translate(127.246094 0)"/>
      </g>
     </g>
    </g>
    <g id="text_18">
     <!-- Count -->
     <g style="fill: #c9d1d9" transform="translate(16.318125 264.635937) rotate(-90) scale(0.12 -0.12)">
      <defs>
       <path id="DejaVuSans-43" d="M 4122 4306 
L 4122 3641 
Q 3803 3938 3442 4084 
Q 3081 4231 2675 4231 
Q 1875 4231 1450 3742 
Q 1025 3253 1025 2328 
Q 1025 1406 1450 917 
Q 1875 428 2675 428 
Q 3081 428 3442 575 
Q 3803 722 4122 1019 
L 4122 359 
Q 3791 134 3420 21 
Q 3050 -91 2638 -91 
Q 1578 -91 968 557 
Q 359 1206 359 2328 
Q 359 3453 968 4101 
Q 1578 4750 2638 4750 
Q 3056 4750 3426 4639 
Q 3797 4528 4122 4306 
z
" transform="scale(0.015625)"/>
       <path id="DejaVuSans-75" d="M 544 1381 
L 544 3500 
L 1119 3500 
L 1119 1403 
Q 1119 906 1312 657 
Q 1506 409 1894 409 
Q 2359 409 2629 706 
Q 2900 1003 2900 1516 
L 2900 3500 
L 3475 3500 
L 3475 0 
L 2900 0 
L 2900 538 
Q 2691 219 2414 64 
Q 2138 -91 1772 -91 
Q 1169 -91 856 284 
Q 544 659 544 1381 
z
M 1991 3584 
L 1991 3584 
z
" transform="scale(0.015625)"/>
       <path id="DejaVuSans-6e" d="M 3513 2113 
L 3513 0 
L 2938 0 
L 2938 2094 
Q 2938 2591 2744 2837 
Q 2550 3084 2163 3084 
Q 1697 3084 1428 2787 
Q 1159 2491 1159 1978 
L 1159 0 
L 581 0 
L 581 3500 
L 1159 3500 
L 1159 2956 
Q 1366 3272 1645 3428 
Q 1925 3584 2291 3584 
Q 2894 3584 3203 3211 
Q 3513 2838 3513 2113 
z
" transform="scale(0.015625)"/>
      </defs>
      <use xlink:href="#DejaVuSans-43"/>
      <use xlink:href="#DejaVuSans-6f" transform="translate(69.824219 0)"/>
      <use xlink:href="#DejaVuSans-75" transform="translate(131.005859 0)"/>
      <use xlink:href="#DejaVuSans-6e" transform="translate(194.384766 0)"/>
      <use xlink:href="#DejaVuSans-74" transform="translate(257.763672 0)"/>
     </g>
    </g>
   </g>
   <g id="line2d_33">
    <path d="M 85.239886 454.682026 
L 85.3043 454.682026 
L 85.345167 454.126239 
L 85.547282 454.126239 
L 85.638707 257.933546 
L 88.471549 257.933546 
L 88.483926 261.268266 
L 91.761203 261.268266 
L 91.919805 260.712479 
L 92.374788 260.712479 
L 92.743522 260.156692 
L 95.028361 259.600906 
L 95.07347 260.156692 
L 95.182993 259.600906 
L 102.258463 259.600906 
L 106.526972 260.712479 
L 107.16208 259.600906 
L 107.62582 259.600906 
L 108.794608 259.045119 
L 109.283608 256.821972 
L 110.235764 256.821972 
L 111.623286 260.712479 
L 111.71331 256.821972 
L 112.778024 256.266186 
L 115.548982 256.266186 
L 116.279874 255.710399 
L 117.365528 255.710399 
L 117.656538 254.598826 
L 124.423444 254.598826 
L 124.916997 253.487252 
L 124.942296 252.375679 
L 127.073164 252.375679 
L 130.215231 251.264106 
L 131.863484 251.264106 
L 131.888432 250.708319 
L 135.673702 250.708319 
L 136.612703 247.929386 
L 139.584414 247.929386 
L 139.605042 247.373599 
L 156.248112 247.373599 
L 159.35912 246.817812 
L 159.465335 247.373599 
L 162.691859 246.817812 
L 173.919894 246.817812 
L 179.361979 246.262026 
L 179.467104 245.706239 
L 179.725615 245.150452 
L 182.795679 245.150452 
L 184.102324 244.594666 
L 189.490777 244.594666 
L 189.695344 247.373599 
L 189.705385 245.150452 
L 189.96736 245.150452 
L 191.268245 242.927306 
L 197.63746 242.927306 
L 202.518854 242.371519 
L 207.944203 242.371519 
L 208.182281 241.815732 
L 222.280016 241.815732 
L 222.88169 241.259946 
L 226.304804 241.259946 
L 226.328935 240.148372 
L 232.851186 240.148372 
L 232.983477 236.257866 
L 244.788394 236.257866 
L 244.791936 235.702079 
L 245.133815 235.702079 
L 246.351877 235.146292 
L 248.133705 235.146292 
L 248.614609 234.590506 
L 248.662715 235.146292 
L 249.763937 234.590506 
L 249.768958 234.034719 
L 249.794684 234.590506 
L 250.430804 234.034719 
L 256.225432 234.034719 
L 258.027032 233.478932 
L 260.16479 233.478932 
L 263.79574 232.923146 
L 267.233098 232.923146 
L 269.888812 231.811572 
L 275.700683 231.811572 
L 279.081489 230.699999 
L 280.034034 231.255786 
L 284.752739 231.255786 
L 290.075649 229.032639 
L 298.014107 229.032639 
L 300.476113 228.476852 
L 344.351988 228.476852 
L 344.706322 227.921066 
L 360.70685 227.921066 
L 360.974196 227.365279 
L 388.200657 227.365279 
L 394.195844 226.809492 
L 394.230522 227.365279 
L 398.52219 225.697919 
L 404.820452 225.697919 
L 408.259523 225.142132 
L 408.265166 224.586346 
L 415.440818 224.586346 
L 418.016239 225.142132 
L 418.942045 224.586346 
L 430.950867 224.586346 
L 431.461935 225.142132 
L 432.398133 224.586346 
L 432.719852 222.363199 
L 438.22312 222.363199 
L 438.227868 221.807412 
L 455.06776 221.807412 
L 456.048406 221.251626 
L 459.284739 221.251626 
L 459.600463 220.695839 
L 475.381907 220.695839 
L 475.403352 220.140052 
L 479.350532 220.140052 
L 479.356409 219.584266 
L 480.314209 219.584266 
L 480.364222 219.028479 
L 481.851576 219.028479 
L 482.085256 218.472692 
L 485.268656 218.472692 
L 485.752557 217.361119 
L 487.505039 215.137972 
L 491.74284 215.137972 
L 492.055724 212.359039 
L 493.476757 212.359039 
L 494.174177 211.247466 
L 497.767957 211.247466 
L 498.947176 210.691679 
L 502.32269 210.691679 
L 502.775104 210.135892 
L 511.9433 210.135892 
L 512.169195 209.580106 
L 513.017161 209.580106 
L 514.333653 209.024319 
L 529.16259 209.024319 
L 529.295816 208.468532 
L 529.771271 208.468532 
L 530.763826 207.356959 
L 532.155397 207.356959 
L 532.489998 206.801172 
L 532.812378 206.801172 
L 532.934705 206.245386 
L 536.656146 206.245386 
L 537.289697 205.689599 
L 540.52891 205.689599 
L 540.736591 205.133812 
L 542.510907 205.133812 
L 542.624594 204.578026 
L 548.138761 204.578026 
L 548.257313 204.022239 
L 551.473252 204.022239 
L 552.547385 201.799092 
L 553.73828 201.799092 
L 553.739525 201.243306 
L 558.575032 201.243306 
L 559.461528 200.687519 
L 563.164014 200.687519 
L 563.893271 200.131732 
L 564.167584 200.131732 
L 564.880144 199.575946 
L 566.700309 199.575946 
L 566.910675 199.020159 
L 571.475644 199.020159 
L 572.652333 198.464372 
L 572.738036 197.908586 
L 573.118992 197.908586 
L 574.321408 195.685439 
L 578.050437 195.685439 
L 578.077293 195.129652 
L 581.626237 195.129652 
L 581.832594 194.573866 
L 582.36787 194.573866 
L 582.773696 194.018079 
L 582.858349 194.573866 
L 583.162242 194.018079 
L 584.5124 194.018079 
L 584.525322 193.462292 
L 584.883859 193.462292 
L 585.040865 192.906506 
L 586.125741 192.350719 
L 593.673863 192.350719 
L 594.853627 191.794932 
L 595.643367 191.794932 
L 596.284079 191.239146 
L 596.932225 191.794932 
L 599.6009 191.794932 
L 599.715988 190.683359 
L 603.547068 190.683359 
L 605.033527 189.015999 
L 621.167981 189.015999 
L 622.105698 188.460212 
L 647.010111 188.460212 
L 647.053313 187.904426 
L 683.757545 187.904426 
L 683.918755 187.348639 
L 683.930314 186.792852 
L 683.941796 187.348639 
L 689.27537 187.348639 
L 690.479615 186.792852 
L 711.492077 186.792852 
L 715.81597 186.237066 
L 715.858005 185.681279 
L 716.215958 185.681279 
L 717.337186 185.125492 
L 751.060793 185.125492 
L 751.253101 184.569706 
L 781.377518 184.569706 
L 785.226852 184.013919 
L 787.581437 184.013919 
L 787.836951 183.458132 
L 789.473488 182.902346 
L 794.062899 182.902346 
L 795.995778 182.346559 
L 798.01833 182.346559 
L 798.175842 181.790772 
L 801.502549 181.790772 
L 801.899929 181.234986 
L 801.978588 180.679199 
L 807.901499 180.679199 
L 807.924462 180.123412 
L 812.012614 180.123412 
L 812.012614 180.123412 
" clip-path="url(#p06126d50ac)" style="fill: none; stroke: #3fb950; stroke-width: 2; stroke-linecap: square"/>
   </g>
   <g id="line2d_34">
    <path d="M 85.239886 455.237812 
L 85.345167 453.570452 
L 85.45971 453.570452 
L 85.547282 372.981386 
L 87.135207 372.981386 
L 87.167862 370.758239 
L 88.804749 370.758239 
L 89.226493 369.090879 
L 89.80034 370.758239 
L 89.804582 369.090879 
L 90.279415 369.090879 
L 90.462926 367.979306 
L 95.152129 367.979306 
L 95.156605 367.423519 
L 95.182993 367.979306 
L 95.413793 367.423519 
L 95.481476 367.979306 
L 95.66199 367.423519 
L 97.307518 367.423519 
L 97.39361 366.867732 
L 97.628108 366.311946 
L 99.485987 366.311946 
L 101.600236 365.756159 
L 101.674653 365.200372 
L 102.246086 364.644586 
L 102.258463 364.088799 
L 106.526972 367.979306 
L 107.16208 366.311946 
L 107.62582 363.533012 
L 110.235764 363.533012 
L 111.623286 367.979306 
L 111.71331 363.533012 
L 137.067841 363.533012 
L 137.845866 362.977226 
L 139.605042 362.977226 
L 144.409645 362.421439 
L 145.57999 361.865652 
L 162.255559 361.865652 
L 162.691859 361.309866 
L 164.933458 360.754079 
L 166.358188 360.754079 
L 167.937434 360.198292 
L 167.979974 359.086719 
L 169.06555 358.530932 
L 169.795157 357.975146 
L 179.846425 357.975146 
L 181.850062 357.419359 
L 182.455785 357.419359 
L 182.795679 356.863572 
L 184.102324 356.863572 
L 185.400446 356.307786 
L 189.490777 356.307786 
L 189.695344 358.530932 
L 189.705385 356.307786 
L 191.268245 356.307786 
L 191.425135 355.751999 
L 193.637309 355.751999 
L 195.813793 355.196212 
L 195.866608 354.640426 
L 202.518854 354.640426 
L 205.324685 354.084639 
L 205.331769 353.528852 
L 214.668686 353.528852 
L 218.563479 352.973066 
L 221.485566 352.973066 
L 222.280016 352.417279 
L 226.740365 352.417279 
L 229.284377 351.861492 
L 229.42383 351.305706 
L 231.904129 351.305706 
L 232.191986 350.749919 
L 232.983477 350.194132 
L 234.750359 350.194132 
L 235.865904 349.638346 
L 237.911225 349.638346 
L 239.246127 349.082559 
L 242.093876 349.082559 
L 243.064052 347.970986 
L 250.430804 347.970986 
L 252.528785 347.415199 
L 254.988883 347.415199 
L 255.543659 346.859412 
L 255.713314 346.303626 
L 256.225432 345.747839 
L 264.697065 345.747839 
L 266.248132 345.192052 
L 267.233098 344.636266 
L 291.323174 344.636266 
L 296.730814 344.080479 
L 296.795423 343.524692 
L 300.476113 343.524692 
L 303.622072 342.968906 
L 309.182515 342.968906 
L 309.652366 342.413119 
L 319.122042 342.413119 
L 326.534954 341.857332 
L 326.606101 341.301546 
L 327.575226 341.301546 
L 329.538735 340.745759 
L 329.648258 339.078399 
L 329.734662 338.522612 
L 333.836085 337.966826 
L 334.081675 337.411039 
L 334.17956 336.299466 
L 334.551019 335.743679 
L 347.897468 335.743679 
L 351.688966 335.187892 
L 354.102515 334.632106 
L 355.993282 334.632106 
L 360.377192 334.076319 
L 360.70685 331.853172 
L 360.974196 331.853172 
L 361.604517 330.741599 
L 369.919883 330.185812 
L 370.184543 329.630026 
L 370.262618 329.074239 
L 372.019381 329.074239 
L 373.678298 328.518452 
L 373.86897 327.962666 
L 373.998459 326.851092 
L 375.096529 326.295306 
L 375.177133 325.739519 
L 377.180615 325.183732 
L 379.814144 324.627946 
L 380.00143 324.072159 
L 380.0054 323.516372 
L 380.535111 322.960586 
L 380.628676 322.404799 
L 384.448858 321.849012 
L 385.133707 321.293226 
L 401.216007 321.293226 
L 403.883008 320.737439 
L 404.125718 320.181652 
L 415.025534 320.181652 
L 415.440818 319.070079 
L 419.9822 319.070079 
L 421.353298 318.514292 
L 421.420281 317.402719 
L 421.772357 316.846932 
L 424.103668 316.291146 
L 424.156172 315.735359 
L 424.437568 315.179572 
L 424.488515 313.512212 
L 424.725932 312.956426 
L 425.047144 312.956426 
L 425.058976 312.400639 
L 427.005205 311.844852 
L 427.770347 311.289066 
L 427.955492 310.733279 
L 431.461935 310.177492 
L 434.046035 310.177492 
L 434.943352 309.621706 
L 444.658928 309.621706 
L 447.87763 309.065919 
L 447.890435 308.510132 
L 448.469302 307.954346 
L 456.048406 307.954346 
L 458.174954 307.398559 
L 459.050981 306.842772 
L 459.284739 305.731199 
L 465.415447 305.731199 
L 465.833144 305.175412 
L 469.199706 305.175412 
L 470.81145 304.619626 
L 475.403352 304.619626 
L 478.17937 304.063839 
L 483.944263 304.063839 
L 484.652814 303.508052 
L 487.505039 303.508052 
L 488.28139 302.952266 
L 488.618171 302.396479 
L 488.784051 301.840692 
L 491.131863 301.840692 
L 491.198612 300.729119 
L 492.055724 300.729119 
L 492.618478 299.061759 
L 494.660763 299.061759 
L 494.914409 298.505972 
L 495.111309 298.505972 
L 496.088841 297.950186 
L 497.711016 297.950186 
L 497.767957 297.394399 
L 498.947176 297.394399 
L 499.233594 296.838612 
L 500.341938 296.838612 
L 502.038919 295.727039 
L 502.775104 295.727039 
L 505.622347 294.615466 
L 505.626628 294.059679 
L 506.170233 293.503892 
L 507.557211 292.948106 
L 507.77287 292.392319 
L 509.155722 291.836532 
L 511.416236 291.836532 
L 511.74963 291.280746 
L 511.9433 290.724959 
L 514.926103 290.724959 
L 515.004373 290.169172 
L 515.789792 290.169172 
L 515.850081 289.613386 
L 516.281088 289.057599 
L 517.78078 289.057599 
L 517.894857 288.501812 
L 518.151772 288.501812 
L 518.215602 287.946026 
L 518.31917 287.946026 
L 518.322673 287.390239 
L 520.431551 287.390239 
L 520.84917 286.834452 
L 521.199846 286.834452 
L 521.409434 286.278666 
L 521.944671 286.278666 
L 522.345398 285.722879 
L 522.429895 285.167092 
L 522.544439 285.167092 
L 524.558857 284.611306 
L 526.066294 284.611306 
L 526.180409 284.055519 
L 532.126868 284.055519 
L 532.155397 283.499732 
L 532.489998 283.499732 
L 533.155775 282.388159 
L 535.28571 282.388159 
L 535.471945 280.720799 
L 535.526278 279.609226 
L 535.877304 279.053439 
L 537.289697 279.053439 
L 537.955824 278.497652 
L 538.60148 278.497652 
L 538.809666 277.941866 
L 539.810512 277.386079 
L 540.736591 277.386079 
L 542.598362 276.830292 
L 542.624594 276.274506 
L 543.193537 276.274506 
L 543.287842 275.718719 
L 544.942866 275.718719 
L 544.988832 275.162932 
L 553.015095 275.162932 
L 553.139096 274.607146 
L 553.377874 274.607146 
L 553.483739 273.495572 
L 554.517239 273.495572 
L 554.600607 272.939786 
L 554.737179 272.939786 
L 555.453009 272.383999 
L 555.632939 271.828212 
L 555.961702 271.828212 
L 556.239907 271.272426 
L 556.330592 270.716639 
L 560.363593 270.716639 
L 561.381563 270.160852 
L 561.582628 269.049279 
L 561.830397 268.493492 
L 562.244007 268.493492 
L 562.496096 267.937706 
L 568.283914 267.937706 
L 568.665998 266.270346 
L 569.456828 266.270346 
L 569.572928 265.714559 
L 572.663192 265.714559 
L 572.738036 264.602986 
L 576.449591 264.602986 
L 576.488044 264.047199 
L 578.275983 264.047199 
L 578.288009 263.491412 
L 579.158665 263.491412 
L 579.182212 262.935626 
L 581.832594 262.935626 
L 581.964419 262.379839 
L 582.132361 262.379839 
L 582.36787 261.824052 
L 582.845933 261.824052 
L 582.858349 261.268266 
L 583.162242 261.268266 
L 583.741965 260.712479 
L 588.424435 260.712479 
L 588.764758 260.156692 
L 590.15411 260.156692 
L 590.156678 259.600906 
L 600.779146 259.600906 
L 602.582069 259.045119 
L 602.634339 258.489332 
L 603.547068 257.933546 
L 604.934941 257.933546 
L 605.033527 256.821972 
L 605.284566 256.821972 
L 605.389068 256.266186 
L 609.075013 256.266186 
L 609.740634 255.710399 
L 616.116349 255.710399 
L 616.135965 255.154612 
L 618.218338 255.154612 
L 619.10826 254.598826 
L 628.909423 254.598826 
L 629.031751 253.487252 
L 632.886378 253.487252 
L 633.653076 252.931466 
L 634.474108 252.931466 
L 635.477795 252.375679 
L 642.112176 252.375679 
L 642.747479 251.819892 
L 643.297973 251.819892 
L 643.567888 251.264106 
L 645.681359 250.708319 
L 646.715949 250.708319 
L 647.053313 250.152532 
L 647.163108 250.152532 
L 650.132329 249.596746 
L 655.599245 249.596746 
L 656.027061 249.040959 
L 677.127873 249.040959 
L 677.898853 248.485172 
L 682.778456 248.485172 
L 682.954806 247.929386 
L 683.271776 247.929386 
L 683.367326 247.373599 
L 710.61784 247.373599 
L 711.492077 246.817812 
L 717.998565 246.817812 
L 719.41197 246.262026 
L 719.506702 245.706239 
L 722.891985 245.706239 
L 723.03245 245.150452 
L 733.997731 245.150452 
L 734.020188 244.594666 
L 743.276695 244.594666 
L 743.376332 244.038879 
L 743.97754 243.483092 
L 746.249029 243.483092 
L 746.254244 242.927306 
L 746.715844 242.371519 
L 750.126347 242.371519 
L 751.253101 241.815732 
L 758.525509 241.815732 
L 758.576728 240.704159 
L 804.675052 240.704159 
L 807.924462 240.148372 
L 812.012614 240.148372 
L 812.012614 240.148372 
" clip-path="url(#p06126d50ac)" style="fill: none; stroke: #58a6ff; stroke-width: 2; stroke-linecap: square"/>
   </g>
   <g id="line2d_35">
    <path d="M 85.239886 455.237812 
L 88.471549 455.237812 
L 88.483926 454.126239 
L 91.151861 454.126239 
L 91.761203 453.570452 
L 256.225432 453.570452 
L 258.027032 453.014666 
L 303.622072 453.014666 
L 304.887423 452.458879 
L 347.897468 452.458879 
L 351.688966 451.903092 
L 361.604517 451.903092 
L 370.262618 450.235732 
L 372.019381 449.124159 
L 375.177133 449.124159 
L 377.180615 448.568372 
L 380.0054 448.012586 
L 380.628676 448.012586 
L 384.448858 447.456799 
L 385.133707 446.901012 
L 388.200657 446.345226 
L 394.195844 445.789439 
L 394.230522 446.345226 
L 404.125718 446.345226 
L 404.820452 445.789439 
L 418.942045 445.789439 
L 419.9822 445.233652 
L 424.725932 445.233652 
L 425.058976 444.677866 
L 430.950867 444.677866 
L 431.461935 444.122079 
L 453.045986 444.122079 
L 455.06776 443.566292 
L 455.917476 443.566292 
L 456.048406 443.010506 
L 461.809018 443.010506 
L 461.814505 442.454719 
L 475.381907 442.454719 
L 475.403352 441.898932 
L 479.356409 441.898932 
L 480.364222 441.343146 
L 481.848968 440.787359 
L 481.851576 440.231572 
L 482.085256 440.231572 
L 483.944263 438.564212 
L 485.196575 438.564212 
L 485.268656 436.896852 
L 485.752557 436.896852 
L 487.505039 437.452639 
L 488.765369 437.452639 
L 488.784051 435.229492 
L 493.476757 435.229492 
L 494.174177 434.673706 
L 494.914409 434.673706 
L 495.111309 434.117919 
L 511.9433 434.117919 
L 512.169195 433.562132 
L 513.017161 433.562132 
L 514.333653 433.006346 
L 520.141826 433.006346 
L 520.431551 432.450559 
L 522.429895 432.450559 
L 522.544439 431.894772 
L 529.16259 431.894772 
L 529.295816 431.338986 
L 529.771271 431.338986 
L 530.253498 430.783199 
L 530.735259 430.783199 
L 530.763826 430.227412 
L 532.812378 430.227412 
L 532.934705 429.671626 
L 542.444936 429.671626 
L 542.510907 429.115839 
L 542.624594 429.115839 
L 542.722207 428.560052 
L 543.287842 428.560052 
L 544.473599 428.004266 
L 549.109404 428.004266 
L 549.11349 427.448479 
L 549.999286 427.448479 
L 550.032992 426.892692 
L 552.547385 426.892692 
L 553.075538 426.336906 
L 556.426337 426.336906 
L 557.398187 425.781119 
L 559.288214 425.781119 
L 559.308258 424.669546 
L 559.461528 424.669546 
L 559.654419 424.113759 
L 562.694864 424.113759 
L 563.164014 423.557972 
L 563.893271 423.557972 
L 564.167584 423.002186 
L 565.947583 423.002186 
L 566.19613 422.446399 
L 566.199322 421.890612 
L 566.700309 421.890612 
L 566.910675 421.334826 
L 586.08503 421.334826 
L 586.125741 420.223252 
L 588.764758 420.223252 
L 589.524295 419.667466 
L 590.156678 419.667466 
L 593.123252 419.111679 
L 593.673863 419.111679 
L 594.853627 418.555892 
L 595.643367 418.555892 
L 596.284079 418.000106 
L 596.932225 418.555892 
L 599.018724 418.555892 
L 599.58611 418.000106 
L 599.715988 416.888532 
L 600.772023 416.332746 
L 600.779146 415.221172 
L 605.389068 415.221172 
L 606.39723 414.665386 
L 606.499397 412.998026 
L 607.507054 412.442239 
L 608.06432 411.886452 
L 612.83047 411.886452 
L 613.032702 410.219092 
L 613.2758 410.219092 
L 613.456042 409.663306 
L 614.62086 409.107519 
L 616.454375 409.107519 
L 616.8321 408.551732 
L 616.918037 407.995946 
L 617.110772 407.995946 
L 618.218338 406.884372 
L 619.404991 406.884372 
L 619.794626 406.328586 
L 621.163467 406.328586 
L 621.167981 405.217012 
L 622.105698 405.217012 
L 623.350576 404.661226 
L 626.648676 403.549652 
L 626.943111 402.993866 
L 633.653076 402.993866 
L 634.474108 401.882292 
L 647.010111 401.882292 
L 647.163108 400.770719 
L 653.264899 400.770719 
L 654.197205 400.214932 
L 657.026389 400.214932 
L 657.185185 399.659146 
L 674.590634 399.659146 
L 674.868449 399.103359 
L 676.59248 399.103359 
L 677.127873 398.547572 
L 680.345446 398.547572 
L 680.950585 397.991786 
L 680.954555 397.435999 
L 681.646643 396.880212 
L 683.757545 396.880212 
L 683.918755 396.324426 
L 683.930314 395.212852 
L 683.941796 395.768639 
L 685.360299 395.212852 
L 690.479615 395.212852 
L 691.489412 394.101279 
L 700.726264 394.101279 
L 701.44042 393.545492 
L 703.681201 393.545492 
L 703.860586 392.989706 
L 703.885262 392.433919 
L 711.492077 392.433919 
L 716.215958 391.322346 
L 717.337186 391.322346 
L 717.998565 390.766559 
L 727.783537 390.766559 
L 728.986264 390.210772 
L 730.476576 390.210772 
L 731.91995 389.654986 
L 743.97754 389.654986 
L 744.308443 389.099199 
L 744.310234 388.543412 
L 751.060793 388.543412 
L 751.253101 387.987626 
L 781.377518 387.987626 
L 785.226852 387.431839 
L 794.062899 387.431839 
L 795.995778 386.876052 
L 797.696456 386.876052 
L 798.01833 386.320266 
L 801.978588 386.320266 
L 802.647557 385.764479 
L 803.52985 385.764479 
L 804.675052 385.208692 
L 807.420089 385.208692 
L 807.924462 384.652906 
L 808.262333 384.652906 
L 809.492382 384.097119 
L 812.012614 384.097119 
L 812.012614 384.097119 
" clip-path="url(#p06126d50ac)" style="fill: none; stroke: #d29922; stroke-width: 2; stroke-linecap: square"/>
   </g>
   <g id="line2d_36">
    <path d="M 85.239886 454.682026 
L 85.516301 454.682026 
L 85.638707 432.450559 
L 86.278407 426.892692 
L 86.64395 425.781119 
L 86.829407 426.336906 
L 87.167862 425.781119 
L 87.740268 425.225332 
L 88.137415 424.113759 
L 88.471549 423.557972 
L 88.483926 423.002186 
L 88.804749 421.334826 
L 89.226493 421.334826 
L 89.80034 420.779039 
L 89.804582 420.223252 
L 90.26661 419.667466 
L 90.279415 419.111679 
L 90.462926 419.111679 
L 91.151861 418.555892 
L 91.644091 418.000106 
L 91.761203 411.886452 
L 91.842197 412.442239 
L 92.040226 408.551732 
L 92.374788 402.993866 
L 95.156605 402.993866 
L 95.182993 402.438079 
L 95.413793 399.659146 
L 95.481476 402.438079 
L 95.79506 397.991786 
L 95.950354 397.435999 
L 97.107349 396.880212 
L 97.142261 396.324426 
L 97.39361 395.768639 
L 97.628108 395.768639 
L 98.223944 395.212852 
L 98.542238 394.657066 
L 98.672077 394.101279 
L 98.774088 392.989706 
L 99.071442 392.433919 
L 99.078798 391.878132 
L 99.377865 392.433919 
L 99.462984 391.878132 
L 99.473454 392.433919 
L 99.485987 390.766559 
L 102.258463 390.766559 
L 106.526972 402.993866 
L 107.16208 390.210772 
L 107.493101 389.654986 
L 109.283608 389.654986 
L 109.586839 389.099199 
L 110.235764 388.543412 
L 111.623286 402.993866 
L 111.71331 387.987626 
L 112.778024 387.431839 
L 115.054923 386.876052 
L 115.2173 387.431839 
L 115.548982 385.764479 
L 116.279874 385.764479 
L 116.501955 385.208692 
L 116.921404 384.652906 
L 116.956199 383.541332 
L 117.343109 382.429759 
L 117.365528 382.985546 
L 117.595666 382.985546 
L 117.721847 381.873972 
L 118.110275 379.650826 
L 118.161339 378.539252 
L 118.659679 376.871892 
L 118.903245 377.983466 
L 120.625408 374.648746 
L 121.078873 375.760319 
L 122.945042 373.537172 
L 124.423444 377.427679 
L 124.942296 373.537172 
L 127.073164 371.869812 
L 130.215231 371.869812 
L 130.630204 371.314026 
L 130.960446 369.646666 
L 131.888432 371.314026 
L 135.673702 371.869812 
L 136.612703 369.646666 
L 137.067841 367.979306 
L 137.845866 369.646666 
L 139.605042 367.979306 
L 145.57999 367.979306 
L 151.862684 367.423519 
L 152.281665 366.867732 
L 156.248112 366.311946 
L 158.870899 366.311946 
L 159.35912 365.756159 
L 159.465335 366.311946 
L 162.255559 364.644586 
L 164.872702 364.644586 
L 164.933458 364.088799 
L 166.358188 363.533012 
L 169.795157 363.533012 
L 171.311274 359.642506 
L 172.439701 359.086719 
L 173.891715 358.530932 
L 173.919894 357.975146 
L 179.361979 357.975146 
L 179.467104 354.084639 
L 179.668518 354.084639 
L 179.846425 352.973066 
L 181.850062 352.973066 
L 182.455785 352.417279 
L 185.400446 352.417279 
L 189.490777 351.861492 
L 189.695344 363.533012 
L 189.705385 352.417279 
L 189.96736 351.861492 
L 191.425135 351.861492 
L 193.637309 351.305706 
L 195.866608 351.305706 
L 197.63746 350.749919 
L 202.518854 349.638346 
L 205.331769 349.638346 
L 207.592438 349.082559 
L 207.944203 346.303626 
L 208.182281 346.303626 
L 208.603558 345.747839 
L 210.800982 345.192052 
L 211.308935 342.968906 
L 214.345956 341.857332 
L 214.382541 342.413119 
L 214.668686 341.857332 
L 218.563479 340.745759 
L 221.485566 340.189972 
L 222.88169 340.189972 
L 224.119135 339.634186 
L 225.191516 338.522612 
L 226.328935 337.966826 
L 226.740365 337.411039 
L 229.42383 337.966826 
L 231.904129 336.855252 
L 232.191986 337.411039 
L 232.851186 337.411039 
L 232.983477 336.855252 
L 234.750359 336.299466 
L 235.865904 336.855252 
L 237.911225 335.743679 
L 239.246127 335.743679 
L 242.093876 335.187892 
L 242.566101 335.743679 
L 243.064052 334.076319 
L 244.791936 334.076319 
L 245.133815 333.520532 
L 246.621675 331.297386 
L 247.042057 330.185812 
L 248.133705 330.741599 
L 248.614609 329.630026 
L 248.662715 329.074239 
L 252.528785 329.074239 
L 254.486845 328.518452 
L 254.988883 327.962666 
L 258.027032 327.962666 
L 260.16479 327.406879 
L 263.79574 327.406879 
L 264.697065 326.851092 
L 274.681545 326.851092 
L 275.254963 326.295306 
L 275.31241 325.739519 
L 275.700683 325.183732 
L 280.034034 325.183732 
L 280.304105 324.627946 
L 281.406611 324.072159 
L 281.597556 323.516372 
L 283.424182 322.960586 
L 284.752739 322.404799 
L 290.075649 322.404799 
L 291.323174 321.293226 
L 296.795423 321.293226 
L 298.014107 320.737439 
L 303.114041 320.737439 
L 303.622072 320.181652 
L 304.887423 319.625866 
L 305.264097 319.070079 
L 305.391991 318.514292 
L 309.182515 317.958506 
L 309.652366 318.514292 
L 314.642348 317.402719 
L 318.587699 316.291146 
L 319.122042 315.735359 
L 326.606101 315.735359 
L 327.575226 315.179572 
L 334.551019 315.179572 
L 341.122077 314.623786 
L 341.948597 314.067999 
L 344.706322 313.512212 
L 347.471831 312.956426 
L 347.897468 312.400639 
L 354.102515 312.400639 
L 355.993282 311.844852 
L 370.262618 311.844852 
L 372.019381 311.289066 
L 383.806239 311.289066 
L 384.448858 310.733279 
L 385.133707 311.289066 
L 388.200657 310.733279 
L 398.52219 310.733279 
L 399.905353 310.177492 
L 421.740131 310.177492 
L 421.772357 309.621706 
L 435.257519 309.621706 
L 438.220279 309.065919 
L 438.227868 308.510132 
L 453.039408 308.510132 
L 453.045986 307.398559 
L 461.814505 307.398559 
L 465.833144 306.842772 
L 470.81145 306.842772 
L 475.403352 305.731199 
L 484.652814 305.731199 
L 485.196575 305.175412 
L 485.268656 304.619626 
L 488.765369 304.619626 
L 488.784051 304.063839 
L 489.147142 304.063839 
L 489.725931 303.508052 
L 494.914409 303.508052 
L 495.111309 302.952266 
L 502.038919 302.952266 
L 502.32269 302.396479 
L 519.241045 302.396479 
L 520.140541 300.729119 
L 520.141826 300.173332 
L 522.538717 300.173332 
L 522.544439 299.617546 
L 529.614421 299.617546 
L 529.771271 299.061759 
L 533.155775 299.061759 
L 533.277363 298.505972 
L 545.850613 298.505972 
L 546.092389 297.950186 
L 549.010818 297.950186 
L 549.11349 297.394399 
L 550.032992 296.838612 
L 573.118992 296.838612 
L 574.321408 295.727039 
L 576.121256 295.727039 
L 576.488044 295.171252 
L 578.288009 295.171252 
L 578.554772 294.615466 
L 582.807518 294.615466 
L 582.858349 294.059679 
L 606.395245 294.059679 
L 606.499397 292.948106 
L 635.919584 292.948106 
L 636.683674 292.392319 
L 686.915336 292.392319 
L 689.27537 291.836532 
L 710.503647 291.836532 
L 710.61784 291.280746 
L 720.121688 291.280746 
L 720.583638 290.724959 
L 812.012614 290.724959 
L 812.012614 290.724959 
" clip-path="url(#p06126d50ac)" style="fill: none; stroke: #f85149; stroke-width: 2; stroke-linecap: square"/>
   </g>
   <g id="line2d_37">
    <path d="M 85.239886 454.682026 
L 85.261877 454.126239 
L 85.435252 -1 
M 85.591081 -1 
L 85.638707 101.201706 
L 88.471549 101.201706 
L 88.483926 97.866986 
L 91.761203 97.866986 
L 91.919805 98.422772 
L 92.374788 98.422772 
L 92.743522 98.978559 
L 95.028361 99.534346 
L 95.07347 98.978559 
L 95.182993 99.534346 
L 102.258463 99.534346 
L 106.526972 98.422772 
L 107.16208 99.534346 
L 107.493101 98.978559 
L 107.62582 98.978559 
L 108.794608 99.534346 
L 109.283608 96.755412 
L 110.235764 96.755412 
L 111.623286 98.422772 
L 111.71331 95.643839 
L 112.778024 96.199626 
L 115.548982 96.199626 
L 116.279874 95.088052 
L 117.365528 95.088052 
L 117.656538 91.197546 
L 124.423444 91.197546 
L 124.916997 87.862826 
L 124.942296 86.751252 
L 127.073164 86.751252 
L 130.215231 82.860746 
L 131.863484 82.860746 
L 131.888432 83.416532 
L 135.673702 83.416532 
L 136.612703 80.081812 
L 139.584414 80.081812 
L 139.605042 80.637599 
L 156.248112 80.637599 
L 159.35912 81.193386 
L 159.465335 80.637599 
L 162.691859 81.193386 
L 173.919894 81.193386 
L 179.361979 81.749172 
L 179.467104 74.523946 
L 179.725615 75.079732 
L 182.795679 75.079732 
L 184.102324 75.635519 
L 189.490777 75.635519 
L 189.695344 80.637599 
L 189.705385 71.745012 
L 189.96736 71.745012 
L 191.268245 73.968159 
L 197.63746 73.968159 
L 202.518854 70.077652 
L 207.944203 70.077652 
L 208.182281 68.410292 
L 222.280016 68.410292 
L 222.88169 68.966079 
L 226.304804 68.966079 
L 226.328935 70.077652 
L 232.851186 70.077652 
L 232.983477 73.412372 
L 243.064052 73.412372 
L 243.304815 68.410292 
L 244.788394 67.298719 
L 244.791936 67.854506 
L 245.133815 67.854506 
L 246.351877 65.075572 
L 248.133705 65.075572 
L 248.614609 65.631359 
L 248.662715 65.075572 
L 249.763937 65.631359 
L 249.768958 66.187146 
L 249.794684 65.631359 
L 250.430804 63.408212 
L 256.225432 63.408212 
L 258.027032 63.963999 
L 260.16479 63.963999 
L 263.79574 64.519786 
L 267.233098 64.519786 
L 269.888812 65.631359 
L 275.31241 65.075572 
L 275.700683 65.075572 
L 279.081489 66.187146 
L 280.034034 65.631359 
L 284.752739 65.631359 
L 290.072769 67.854506 
L 290.075649 67.298719 
L 298.014107 67.298719 
L 300.476113 67.854506 
L 344.351988 67.854506 
L 344.706322 68.410292 
L 347.452099 68.410292 
L 347.471831 66.742932 
L 360.70685 66.742932 
L 360.974196 67.298719 
L 388.200657 67.298719 
L 394.195844 67.854506 
L 394.230522 67.298719 
L 398.52219 68.966079 
L 399.905353 68.966079 
L 401.216007 68.410292 
L 404.820452 68.410292 
L 408.259523 68.966079 
L 408.265166 69.521866 
L 418.016239 67.854506 
L 418.942045 68.410292 
L 430.950867 68.410292 
L 431.461935 67.854506 
L 432.398133 68.410292 
L 432.719852 70.633439 
L 438.22312 70.633439 
L 438.227868 71.189226 
L 455.06776 71.189226 
L 456.048406 71.745012 
L 459.284739 71.745012 
L 459.600463 72.300799 
L 475.381907 72.300799 
L 475.403352 72.856586 
L 478.17937 72.856586 
L 479.350532 73.412372 
L 479.356409 73.968159 
L 480.314209 73.412372 
L 480.364222 73.968159 
L 481.851576 73.968159 
L 482.085256 74.523946 
L 485.196575 74.523946 
L 485.268656 73.412372 
L 485.752557 74.523946 
L 487.505039 72.856586 
L 491.74284 72.856586 
L 492.055724 71.189226 
L 493.476757 71.189226 
L 494.174177 72.300799 
L 497.767957 72.300799 
L 498.947176 72.856586 
L 499.233594 72.856586 
L 500.341938 70.077652 
L 502.32269 70.077652 
L 502.775104 70.633439 
L 511.9433 70.633439 
L 512.169195 71.189226 
L 513.017161 71.189226 
L 514.333653 71.745012 
L 529.16259 71.745012 
L 529.295816 72.300799 
L 529.771271 72.300799 
L 530.763826 73.412372 
L 532.155397 73.412372 
L 532.489998 72.856586 
L 532.812378 72.856586 
L 532.934705 73.412372 
L 536.656146 73.412372 
L 537.289697 73.968159 
L 540.52891 73.968159 
L 540.736591 74.523946 
L 542.510907 74.523946 
L 542.624594 75.079732 
L 548.138761 75.079732 
L 548.257313 75.635519 
L 551.473252 75.635519 
L 552.547385 77.858666 
L 553.73828 77.858666 
L 553.739525 78.414452 
L 558.575032 78.414452 
L 559.461528 78.970239 
L 563.164014 78.970239 
L 563.893271 79.526026 
L 566.700309 79.526026 
L 566.910675 80.081812 
L 571.475644 80.081812 
L 572.652333 80.637599 
L 572.738036 81.193386 
L 573.118992 81.193386 
L 574.321408 60.629279 
L 578.050437 60.629279 
L 578.077293 61.185066 
L 578.288009 61.185066 
L 578.554772 60.629279 
L 581.626237 60.629279 
L 581.832594 61.185066 
L 582.36787 61.185066 
L 582.773696 61.740852 
L 582.858349 61.185066 
L 584.5124 61.185066 
L 584.525322 61.740852 
L 584.883859 61.740852 
L 585.040865 62.296639 
L 586.125741 62.852426 
L 593.673863 62.852426 
L 594.853627 63.408212 
L 595.643367 63.408212 
L 596.284079 63.963999 
L 596.932225 63.408212 
L 599.6009 63.408212 
L 599.715988 64.519786 
L 603.547068 64.519786 
L 605.033527 66.187146 
L 621.167981 66.187146 
L 622.105698 66.742932 
L 647.010111 66.742932 
L 647.053313 67.298719 
L 683.757545 67.298719 
L 683.918755 67.854506 
L 683.930314 68.410292 
L 683.941796 67.854506 
L 689.27537 67.854506 
L 690.479615 68.410292 
L 711.492077 68.410292 
L 716.215958 68.966079 
L 717.327883 69.521866 
L 717.337186 67.854506 
L 751.060793 67.854506 
L 751.253101 68.410292 
L 781.377518 68.410292 
L 785.226852 68.966079 
L 787.581437 68.966079 
L 787.836951 69.521866 
L 789.473488 70.077652 
L 794.062899 70.077652 
L 795.995778 70.633439 
L 798.01833 70.633439 
L 798.175842 71.189226 
L 801.502549 71.189226 
L 801.899929 71.745012 
L 801.978588 72.300799 
L 807.901499 72.300799 
L 807.924462 72.856586 
L 812.012614 72.856586 
L 812.012614 72.856586 
" clip-path="url(#p06126d50ac)" style="fill: none; stroke: #9467bd; stroke-width: 2; stroke-linecap: square"/>
   </g>
   <g id="patch_3">
    <path d="M 48.90125 455.237812 
L 48.90125 38.397812 
" style="fill: none; stroke: #30363d; stroke-width: 0.8; stroke-linejoin: miter; stroke-linecap: square"/>
   </g>
   <g id="patch_4">
    <path d="M 848.35125 455.237812 
L 848.35125 38.397812 
" style="fill: none; stroke: #30363d; stroke-width: 0.8; stroke-linejoin: miter; stroke-linecap: square"/>
   </g>
   <g id="patch_5">
    <path d="M 48.90125 455.237812 
L 848.35125 455.237812 
" style="fill: none; stroke: #30363d; stroke-width: 0.8; stroke-linejoin: miter; stroke-linecap: square"/>
   </g>
   <g id="patch_6">
    <path d="M 48.90125 38.397812 
L 848.35125 38.397812 
" style="fill: none; stroke: #30363d; stroke-width: 0.8; stroke-linejoin: miter; stroke-linecap: square"/>
   </g>
   <g id="text_19">
    <!-- 495 -->
    <g style="fill: #3fb950" transform="translate(817.012614 182.60685) scale(0.09 -0.09)">
     <defs>
      <path id="DejaVuSans-Bold-34" d="M 2356 3675 
L 1038 1722 
L 2356 1722 
L 2356 3675 
z
M 2156 4666 
L 3494 4666 
L 3494 1722 
L 4159 1722 
L 4159 850 
L 3494 850 
L 3494 0 
L 2356 0 
L 2356 850 
L 288 850 
L 288 1881 
L 2156 4666 
z
" transform="scale(0.015625)"/>
      <path id="DejaVuSans-Bold-39" d="M 641 103 
L 641 966 
Q 928 831 1190 764 
Q 1453 697 1709 697 
Q 2247 697 2547 995 
Q 2847 1294 2900 1881 
Q 2688 1725 2447 1647 
Q 2206 1569 1925 1569 
Q 1209 1569 770 1986 
Q 331 2403 331 3084 
Q 331 3838 820 4291 
Q 1309 4744 2131 4744 
Q 3044 4744 3544 4128 
Q 4044 3513 4044 2388 
Q 4044 1231 3459 570 
Q 2875 -91 1856 -91 
Q 1528 -91 1228 -42 
Q 928 6 641 103 
z
M 2125 2350 
Q 2441 2350 2600 2554 
Q 2759 2759 2759 3169 
Q 2759 3575 2600 3781 
Q 2441 3988 2125 3988 
Q 1809 3988 1650 3781 
Q 1491 3575 1491 3169 
Q 1491 2759 1650 2554 
Q 1809 2350 2125 2350 
z
" transform="scale(0.015625)"/>
      <path id="DejaVuSans-Bold-35" d="M 678 4666 
L 3669 4666 
L 3669 3781 
L 1638 3781 
L 1638 3059 
Q 1775 3097 1914 3117 
Q 2053 3138 2203 3138 
Q 3056 3138 3531 2711 
Q 4006 2284 4006 1522 
Q 4006 766 3489 337 
Q 2972 -91 2053 -91 
Q 1656 -91 1267 -14 
Q 878 63 494 219 
L 494 1166 
Q 875 947 1217 837 
Q 1559 728 1863 728 
Q 2300 728 2551 942 
Q 2803 1156 2803 1522 
Q 2803 1891 2551 2103 
Q 2300 2316 1863 2316 
Q 1603 2316 1309 2248 
Q 1016 2181 678 2041 
L 678 4666 
z
" transform="scale(0.015625)"/>
     </defs>
     <use xlink:href="#DejaVuSans-Bold-34"/>
     <use xlink:href="#DejaVuSans-Bold-39" transform="translate(69.580078 0)"/>
     <use xlink:href="#DejaVuSans-Bold-35" transform="translate(139.160156 0)"/>
    </g>
   </g>
   <g id="text_20">
    <!-- 387 -->
    <g style="fill: #58a6ff" transform="translate(817.012614 242.63181) scale(0.09 -0.09)">
     <defs>
      <path id="DejaVuSans-Bold-33" d="M 2981 2516 
Q 3453 2394 3698 2092 
Q 3944 1791 3944 1325 
Q 3944 631 3412 270 
Q 2881 -91 1863 -91 
Q 1503 -91 1142 -33 
Q 781 25 428 141 
L 428 1069 
Q 766 900 1098 814 
Q 1431 728 1753 728 
Q 2231 728 2486 893 
Q 2741 1059 2741 1369 
Q 2741 1688 2480 1852 
Q 2219 2016 1709 2016 
L 1228 2016 
L 1228 2791 
L 1734 2791 
Q 2188 2791 2409 2933 
Q 2631 3075 2631 3366 
Q 2631 3634 2415 3781 
Q 2200 3928 1806 3928 
Q 1516 3928 1219 3862 
Q 922 3797 628 3669 
L 628 4550 
Q 984 4650 1334 4700 
Q 1684 4750 2022 4750 
Q 2931 4750 3382 4451 
Q 3834 4153 3834 3553 
Q 3834 3144 3618 2883 
Q 3403 2622 2981 2516 
z
" transform="scale(0.015625)"/>
      <path id="DejaVuSans-Bold-38" d="M 2228 2088 
Q 1891 2088 1709 1903 
Q 1528 1719 1528 1375 
Q 1528 1031 1709 848 
Q 1891 666 2228 666 
Q 2563 666 2741 848 
Q 2919 1031 2919 1375 
Q 2919 1722 2741 1905 
Q 2563 2088 2228 2088 
z
M 1350 2484 
Q 925 2613 709 2878 
Q 494 3144 494 3541 
Q 494 4131 934 4440 
Q 1375 4750 2228 4750 
Q 3075 4750 3515 4442 
Q 3956 4134 3956 3541 
Q 3956 3144 3739 2878 
Q 3522 2613 3097 2484 
Q 3572 2353 3814 2058 
Q 4056 1763 4056 1313 
Q 4056 619 3595 264 
Q 3134 -91 2228 -91 
Q 1319 -91 855 264 
Q 391 619 391 1313 
Q 391 1763 633 2058 
Q 875 2353 1350 2484 
z
M 1631 3419 
Q 1631 3141 1786 2991 
Q 1941 2841 2228 2841 
Q 2509 2841 2662 2991 
Q 2816 3141 2816 3419 
Q 2816 3697 2662 3845 
Q 2509 3994 2228 3994 
Q 1941 3994 1786 3844 
Q 1631 3694 1631 3419 
z
" transform="scale(0.015625)"/>
      <path id="DejaVuSans-Bold-37" d="M 428 4666 
L 3944 4666 
L 3944 3988 
L 2125 0 
L 953 0 
L 2675 3781 
L 428 3781 
L 428 4666 
z
" transform="scale(0.015625)"/>
     </defs>
     <use xlink:href="#DejaVuSans-Bold-33"/>
     <use xlink:href="#DejaVuSans-Bold-38" transform="translate(69.580078 0)"/>
     <use xlink:href="#DejaVuSans-Bold-37" transform="translate(139.160156 0)"/>
    </g>
   </g>
   <g id="text_21">
    <!-- 128 -->
    <g style="fill: #d29922" transform="translate(817.012614 386.580557) scale(0.09 -0.09)">
     <defs>
      <path id="DejaVuSans-Bold-31" d="M 750 831 
L 1813 831 
L 1813 3847 
L 722 3622 
L 722 4441 
L 1806 4666 
L 2950 4666 
L 2950 831 
L 4013 831 
L 4013 0 
L 750 0 
L 750 831 
z
" transform="scale(0.015625)"/>
      <path id="DejaVuSans-Bold-32" d="M 1844 884 
L 3897 884 
L 3897 0 
L 506 0 
L 506 884 
L 2209 2388 
Q 2438 2594 2547 2791 
Q 2656 2988 2656 3200 
Q 2656 3528 2436 3728 
Q 2216 3928 1850 3928 
Q 1569 3928 1234 3808 
Q 900 3688 519 3450 
L 519 4475 
Q 925 4609 1322 4679 
Q 1719 4750 2100 4750 
Q 2938 4750 3402 4381 
Q 3866 4013 3866 3353 
Q 3866 2972 3669 2642 
Q 3472 2313 2841 1759 
L 1844 884 
z
" transform="scale(0.015625)"/>
     </defs>
     <use xlink:href="#DejaVuSans-Bold-31"/>
     <use xlink:href="#DejaVuSans-Bold-32" transform="translate(69.580078 0)"/>
     <use xlink:href="#DejaVuSans-Bold-38" transform="translate(139.160156 0)"/>
    </g>
   </g>
   <g id="text_22">
    <!-- 296 -->
    <g style="fill: #f85149" transform="translate(817.012614 293.208397) scale(0.09 -0.09)">
     <defs>
      <path id="DejaVuSans-Bold-36" d="M 2316 2303 
Q 2000 2303 1842 2098 
Q 1684 1894 1684 1484 
Q 1684 1075 1842 870 
Q 2000 666 2316 666 
Q 2634 666 2792 870 
Q 2950 1075 2950 1484 
Q 2950 1894 2792 2098 
Q 2634 2303 2316 2303 
z
M 3803 4544 
L 3803 3681 
Q 3506 3822 3243 3889 
Q 2981 3956 2731 3956 
Q 2194 3956 1894 3657 
Q 1594 3359 1544 2772 
Q 1750 2925 1990 3001 
Q 2231 3078 2516 3078 
Q 3231 3078 3670 2659 
Q 4109 2241 4109 1563 
Q 4109 813 3618 361 
Q 3128 -91 2303 -91 
Q 1394 -91 895 523 
Q 397 1138 397 2266 
Q 397 3422 980 4083 
Q 1563 4744 2578 4744 
Q 2900 4744 3203 4694 
Q 3506 4644 3803 4544 
z
" transform="scale(0.015625)"/>
     </defs>
     <use xlink:href="#DejaVuSans-Bold-32"/>
     <use xlink:href="#DejaVuSans-Bold-39" transform="translate(69.580078 0)"/>
     <use xlink:href="#DejaVuSans-Bold-36" transform="translate(139.160156 0)"/>
    </g>
   </g>
   <g id="text_23">
    <!-- 688 -->
    <g style="fill: #9467bd" transform="translate(817.012614 75.340023) scale(0.09 -0.09)">
     <use xlink:href="#DejaVuSans-Bold-36"/>
     <use xlink:href="#DejaVuSans-Bold-38" transform="translate(69.580078 0)"/>
     <use xlink:href="#DejaVuSans-Bold-38" transform="translate(139.160156 0)"/>
    </g>
   </g>
   <g id="text_24">
    <!-- Erdős Problems Progress -->
    <g style="fill: #c9d1d9" transform="translate(349.588281 18.397812) scale(0.14 -0.14)">
     <defs>
      <path id="DejaVuSans-Bold-45" d="M 588 4666 
L 3834 4666 
L 3834 3756 
L 1791 3756 
L 1791 2888 
L 3713 2888 
L 3713 1978 
L 1791 1978 
L 1791 909 
L 3903 909 
L 3903 0 
L 588 0 
L 588 4666 
z
" transform="scale(0.015625)"/>
      <path id="DejaVuSans-Bold-72" d="M 3138 2547 
Q 2991 2616 2845 2648 
Q 2700 2681 2553 2681 
Q 2122 2681 1889 2404 
Q 1656 2128 1656 1613 
L 1656 0 
L 538 0 
L 538 3500 
L 1656 3500 
L 1656 2925 
Q 1872 3269 2151 3426 
Q 2431 3584 2822 3584 
Q 2878 3584 2943 3579 
Q 3009 3575 3134 3559 
L 3138 2547 
z
" transform="scale(0.015625)"/>
      <path id="DejaVuSans-Bold-64" d="M 2919 2988 
L 2919 4863 
L 4044 4863 
L 4044 0 
L 2919 0 
L 2919 506 
Q 2688 197 2409 53 
Q 2131 -91 1766 -91 
Q 1119 -91 703 423 
Q 288 938 288 1747 
Q 288 2556 703 3070 
Q 1119 3584 1766 3584 
Q 2128 3584 2408 3439 
Q 2688 3294 2919 2988 
z
M 2181 722 
Q 2541 722 2730 984 
Q 2919 1247 2919 1747 
Q 2919 2247 2730 2509 
Q 2541 2772 2181 2772 
Q 1825 2772 1636 2509 
Q 1447 2247 1447 1747 
Q 1447 1247 1636 984 
Q 1825 722 2181 722 
z
" transform="scale(0.015625)"/>
      <path id="DejaVuSans-Bold-151" d="M 1881 5119 
L 2560 5119 
L 1785 3944 
L 1275 3944 
L 1881 5119 
z
M 3016 5119 
L 3738 5119 
L 2888 3944 
L 2344 3944 
L 3016 5119 
z
M 2203 2784 
Q 1831 2784 1636 2517 
Q 1441 2250 1441 1747 
Q 1441 1244 1636 976 
Q 1831 709 2203 709 
Q 2569 709 2762 976 
Q 2956 1244 2956 1747 
Q 2956 2250 2762 2517 
Q 2569 2784 2203 2784 
z
M 2203 3584 
Q 3106 3584 3614 3096 
Q 4122 2609 4122 1747 
Q 4122 884 3614 396 
Q 3106 -91 2203 -91 
Q 1297 -91 786 396 
Q 275 884 275 1747 
Q 275 2609 786 3096 
Q 1297 3584 2203 3584 
z
" transform="scale(0.015625)"/>
      <path id="DejaVuSans-Bold-73" d="M 3272 3391 
L 3272 2541 
Q 2913 2691 2578 2766 
Q 2244 2841 1947 2841 
Q 1628 2841 1473 2761 
Q 1319 2681 1319 2516 
Q 1319 2381 1436 2309 
Q 1553 2238 1856 2203 
L 2053 2175 
Q 2913 2066 3209 1816 
Q 3506 1566 3506 1031 
Q 3506 472 3093 190 
Q 2681 -91 1863 -91 
Q 1516 -91 1145 -36 
Q 775 19 384 128 
L 384 978 
Q 719 816 1070 734 
Q 1422 653 1784 653 
Q 2113 653 2278 743 
Q 2444 834 2444 1013 
Q 2444 1163 2330 1236 
Q 2216 1309 1875 1350 
L 1678 1375 
Q 931 1469 631 1722 
Q 331 1975 331 2491 
Q 331 3047 712 3315 
Q 1094 3584 1881 3584 
Q 2191 3584 2531 3537 
Q 2872 3491 3272 3391 
z
" transform="scale(0.015625)"/>
      <path id="DejaVuSans-Bold-20" transform="scale(0.015625)"/>
      <path id="DejaVuSans-Bold-50" d="M 588 4666 
L 2584 4666 
Q 3475 4666 3951 4270 
Q 4428 3875 4428 3144 
Q 4428 2409 3951 2014 
Q 3475 1619 2584 1619 
L 1791 1619 
L 1791 0 
L 588 0 
L 588 4666 
z
M 1791 3794 
L 1791 2491 
L 2456 2491 
Q 2806 2491 2997 2661 
Q 3188 2831 3188 3144 
Q 3188 3456 2997 3625 
Q 2806 3794 2456 3794 
L 1791 3794 
z
" transform="scale(0.015625)"/>
      <path id="DejaVuSans-Bold-6f" d="M 2203 2784 
Q 1831 2784 1636 2517 
Q 1441 2250 1441 1747 
Q 1441 1244 1636 976 
Q 1831 709 2203 709 
Q 2569 709 2762 976 
Q 2956 1244 2956 1747 
Q 2956 2250 2762 2517 
Q 2569 2784 2203 2784 
z
M 2203 3584 
Q 3106 3584 3614 3096 
Q 4122 2609 4122 1747 
Q 4122 884 3614 396 
Q 3106 -91 2203 -91 
Q 1297 -91 786 396 
Q 275 884 275 1747 
Q 275 2609 786 3096 
Q 1297 3584 2203 3584 
z
" transform="scale(0.015625)"/>
      <path id="DejaVuSans-Bold-62" d="M 2400 722 
Q 2759 722 2948 984 
Q 3138 1247 3138 1747 
Q 3138 2247 2948 2509 
Q 2759 2772 2400 2772 
Q 2041 2772 1848 2508 
Q 1656 2244 1656 1747 
Q 1656 1250 1848 986 
Q 2041 722 2400 722 
z
M 1656 2988 
Q 1888 3294 2169 3439 
Q 2450 3584 2816 3584 
Q 3463 3584 3878 3070 
Q 4294 2556 4294 1747 
Q 4294 938 3878 423 
Q 3463 -91 2816 -91 
Q 2450 -91 2169 54 
Q 1888 200 1656 506 
L 1656 0 
L 538 0 
L 538 4863 
L 1656 4863 
L 1656 2988 
z
" transform="scale(0.015625)"/>
      <path id="DejaVuSans-Bold-6c" d="M 538 4863 
L 1656 4863 
L 1656 0 
L 538 0 
L 538 4863 
z
" transform="scale(0.015625)"/>
      <path id="DejaVuSans-Bold-65" d="M 4031 1759 
L 4031 1441 
L 1416 1441 
Q 1456 1047 1700 850 
Q 1944 653 2381 653 
Q 2734 653 3104 758 
Q 3475 863 3866 1075 
L 3866 213 
Q 3469 63 3072 -14 
Q 2675 -91 2278 -91 
Q 1328 -91 801 392 
Q 275 875 275 1747 
Q 275 2603 792 3093 
Q 1309 3584 2216 3584 
Q 3041 3584 3536 3087 
Q 4031 2591 4031 1759 
z
M 2881 2131 
Q 2881 2450 2695 2645 
Q 2509 2841 2209 2841 
Q 1884 2841 1681 2658 
Q 1478 2475 1428 2131 
L 2881 2131 
z
" transform="scale(0.015625)"/>
      <path id="DejaVuSans-Bold-6d" d="M 3781 2919 
Q 3994 3244 4286 3414 
Q 4578 3584 4928 3584 
Q 5531 3584 5847 3212 
Q 6163 2841 6163 2131 
L 6163 0 
L 5038 0 
L 5038 1825 
Q 5041 1866 5042 1909 
Q 5044 1953 5044 2034 
Q 5044 2406 4934 2573 
Q 4825 2741 4581 2741 
Q 4263 2741 4089 2478 
Q 3916 2216 3909 1719 
L 3909 0 
L 2784 0 
L 2784 1825 
Q 2784 2406 2684 2573 
Q 2584 2741 2328 2741 
Q 2006 2741 1831 2477 
Q 1656 2213 1656 1722 
L 1656 0 
L 531 0 
L 531 3500 
L 1656 3500 
L 1656 2988 
Q 1863 3284 2130 3434 
Q 2397 3584 2719 3584 
Q 3081 3584 3359 3409 
Q 3638 3234 3781 2919 
z
" transform="scale(0.015625)"/>
      <path id="DejaVuSans-Bold-67" d="M 2919 594 
Q 2688 288 2409 144 
Q 2131 0 1766 0 
Q 1125 0 706 504 
Q 288 1009 288 1791 
Q 288 2575 706 3076 
Q 1125 3578 1766 3578 
Q 2131 3578 2409 3434 
Q 2688 3291 2919 2981 
L 2919 3500 
L 4044 3500 
L 4044 353 
Q 4044 -491 3511 -936 
Q 2978 -1381 1966 -1381 
Q 1638 -1381 1331 -1331 
Q 1025 -1281 716 -1178 
L 716 -306 
Q 1009 -475 1290 -558 
Q 1572 -641 1856 -641 
Q 2406 -641 2662 -400 
Q 2919 -159 2919 353 
L 2919 594 
z
M 2181 2772 
Q 1834 2772 1640 2515 
Q 1447 2259 1447 1791 
Q 1447 1309 1634 1061 
Q 1822 813 2181 813 
Q 2531 813 2725 1069 
Q 2919 1325 2919 1791 
Q 2919 2259 2725 2515 
Q 2531 2772 2181 2772 
z
" transform="scale(0.015625)"/>
     </defs>
     <use xlink:href="#DejaVuSans-Bold-45"/>
     <use xlink:href="#DejaVuSans-Bold-72" transform="translate(68.310547 0)"/>
     <use xlink:href="#DejaVuSans-Bold-64" transform="translate(117.626953 0)"/>
     <use xlink:href="#DejaVuSans-Bold-151" transform="translate(189.208984 0)"/>
     <use xlink:href="#DejaVuSans-Bold-73" transform="translate(257.910156 0)"/>
     <use xlink:href="#DejaVuSans-Bold-20" transform="translate(317.431641 0)"/>
     <use xlink:href="#DejaVuSans-Bold-50" transform="translate(352.246094 0)"/>
     <use xlink:href="#DejaVuSans-Bold-72" transform="translate(425.537109 0)"/>
     <use xlink:href="#DejaVuSans-Bold-6f" transform="translate(474.853516 0)"/>
     <use xlink:href="#DejaVuSans-Bold-62" transform="translate(543.554688 0)"/>
     <use xlink:href="#DejaVuSans-Bold-6c" transform="translate(615.136719 0)"/>
     <use xlink:href="#DejaVuSans-Bold-65" transform="translate(649.414062 0)"/>
     <use xlink:href="#DejaVuSans-Bold-6d" transform="translate(717.236328 0)"/>
     <use xlink:href="#DejaVuSans-Bold-73" transform="translate(821.435547 0)"/>
     <use xlink:href="#DejaVuSans-Bold-20" transform="translate(880.957031 0)"/>
     <use xlink:href="#DejaVuSans-Bold-50" transform="translate(915.771484 0)"/>
     <use xlink:href="#DejaVuSans-Bold-72" transform="translate(989.0625 0)"/>
     <use xlink:href="#DejaVuSans-Bold-6f" transform="translate(1038.378906 0)"/>
     <use xlink:href="#DejaVuSans-Bold-67" transform="translate(1107.080078 0)"/>
     <use xlink:href="#DejaVuSans-Bold-72" transform="translate(1178.662109 0)"/>
     <use xlink:href="#DejaVuSans-Bold-65" transform="translate(1227.978516 0)"/>
     <use xlink:href="#DejaVuSans-Bold-73" transform="translate(1295.800781 0)"/>
     <use xlink:href="#DejaVuSans-Bold-73" transform="translate(1355.322266 0)"/>
    </g>
   </g>
   <g id="legend_1">
    <g id="patch_7">
     <path d="M 55.90125 119.788437 
L 213.771563 119.788437 
Q 215.771563 119.788437 215.771563 117.788437 
L 215.771563 45.397812 
Q 215.771563 43.397812 213.771563 43.397812 
L 55.90125 43.397812 
Q 53.90125 43.397812 53.90125 45.397812 
L 53.90125 117.788437 
Q 53.90125 119.788437 55.90125 119.788437 
z
" style="fill: #161b22; opacity: 0.8; stroke: #30363d; stroke-linejoin: miter"/>
    </g>
    <g id="line2d_38">
     <path d="M 57.90125 51.49625 
L 67.90125 51.49625 
L 77.90125 51.49625 
" style="fill: none; stroke: #3fb950; stroke-width: 2; stroke-linecap: square"/>
    </g>
    <g id="text_25">
     <!-- Solved -->
     <g style="fill: #c9d1d9" transform="translate(85.90125 54.99625) scale(0.1 -0.1)">
      <defs>
       <path id="DejaVuSans-6c" d="M 603 4863 
L 1178 4863 
L 1178 0 
L 603 0 
L 603 4863 
z
" transform="scale(0.015625)"/>
       <path id="DejaVuSans-64" d="M 2906 2969 
L 2906 4863 
L 3481 4863 
L 3481 0 
L 2906 0 
L 2906 525 
Q 2725 213 2448 61 
Q 2172 -91 1784 -91 
Q 1150 -91 751 415 
Q 353 922 353 1747 
Q 353 2572 751 3078 
Q 1150 3584 1784 3584 
Q 2172 3584 2448 3432 
Q 2725 3281 2906 2969 
z
M 947 1747 
Q 947 1113 1208 752 
Q 1469 391 1925 391 
Q 2381 391 2643 752 
Q 2906 1113 2906 1747 
Q 2906 2381 2643 2742 
Q 2381 3103 1925 3103 
Q 1469 3103 1208 2742 
Q 947 2381 947 1747 
z
" transform="scale(0.015625)"/>
      </defs>
      <use xlink:href="#DejaVuSans-53"/>
      <use xlink:href="#DejaVuSans-6f" transform="translate(63.476562 0)"/>
      <use xlink:href="#DejaVuSans-6c" transform="translate(124.658203 0)"/>
      <use xlink:href="#DejaVuSans-76" transform="translate(152.441406 0)"/>
      <use xlink:href="#DejaVuSans-65" transform="translate(211.621094 0)"/>
      <use xlink:href="#DejaVuSans-64" transform="translate(273.144531 0)"/>
     </g>
    </g>
    <g id="line2d_39">
     <path d="M 57.90125 66.174375 
L 67.90125 66.174375 
L 77.90125 66.174375 
" style="fill: none; stroke: #58a6ff; stroke-width: 2; stroke-linecap: square"/>
    </g>
    <g id="text_26">
     <!-- Lean Formalized Problem -->
     <g style="fill: #c9d1d9" transform="translate(85.90125 69.674375) scale(0.1 -0.1)">
      <defs>
       <path id="DejaVuSans-4c" d="M 628 4666 
L 1259 4666 
L 1259 531 
L 3531 531 
L 3531 0 
L 628 0 
L 628 4666 
z
" transform="scale(0.015625)"/>
       <path id="DejaVuSans-20" transform="scale(0.015625)"/>
       <path id="DejaVuSans-6d" d="M 3328 2828 
Q 3544 3216 3844 3400 
Q 4144 3584 4550 3584 
Q 5097 3584 5394 3201 
Q 5691 2819 5691 2113 
L 5691 0 
L 5113 0 
L 5113 2094 
Q 5113 2597 4934 2840 
Q 4756 3084 4391 3084 
Q 3944 3084 3684 2787 
Q 3425 2491 3425 1978 
L 3425 0 
L 2847 0 
L 2847 2094 
Q 2847 2600 2669 2842 
Q 2491 3084 2119 3084 
Q 1678 3084 1418 2786 
Q 1159 2488 1159 1978 
L 1159 0 
L 581 0 
L 581 3500 
L 1159 3500 
L 1159 2956 
Q 1356 3278 1631 3431 
Q 1906 3584 2284 3584 
Q 2666 3584 2933 3390 
Q 3200 3197 3328 2828 
z
" transform="scale(0.015625)"/>
       <path id="DejaVuSans-69" d="M 603 3500 
L 1178 3500 
L 1178 0 
L 603 0 
L 603 3500 
z
M 603 4863 
L 1178 4863 
L 1178 4134 
L 603 4134 
L 603 4863 
z
" transform="scale(0.015625)"/>
       <path id="DejaVuSans-7a" d="M 353 3500 
L 3084 3500 
L 3084 2975 
L 922 459 
L 3084 459 
L 3084 0 
L 275 0 
L 275 525 
L 2438 3041 
L 353 3041 
L 353 3500 
z
" transform="scale(0.015625)"/>
       <path id="DejaVuSans-50" d="M 1259 4147 
L 1259 2394 
L 2053 2394 
Q 2494 2394 2734 2622 
Q 2975 2850 2975 3272 
Q 2975 3691 2734 3919 
Q 2494 4147 2053 4147 
L 1259 4147 
z
M 628 4666 
L 2053 4666 
Q 2838 4666 3239 4311 
Q 3641 3956 3641 3272 
Q 3641 2581 3239 2228 
Q 2838 1875 2053 1875 
L 1259 1875 
L 1259 0 
L 628 0 
L 628 4666 
z
" transform="scale(0.015625)"/>
      </defs>
      <use xlink:href="#DejaVuSans-4c"/>
      <use xlink:href="#DejaVuSans-65" transform="translate(53.962891 0)"/>
      <use xlink:href="#DejaVuSans-61" transform="translate(115.486328 0)"/>
      <use xlink:href="#DejaVuSans-6e" transform="translate(176.765625 0)"/>
      <use xlink:href="#DejaVuSans-20" transform="translate(240.144531 0)"/>
      <use xlink:href="#DejaVuSans-46" transform="translate(271.931641 0)"/>
      <use xlink:href="#DejaVuSans-6f" transform="translate(325.826172 0)"/>
      <use xlink:href="#DejaVuSans-72" transform="translate(387.007812 0)"/>
      <use xlink:href="#DejaVuSans-6d" transform="translate(426.371094 0)"/>
      <use xlink:href="#DejaVuSans-61" transform="translate(523.783203 0)"/>
      <use xlink:href="#DejaVuSans-6c" transform="translate(585.0625 0)"/>
      <use xlink:href="#DejaVuSans-69" transform="translate(612.845703 0)"/>
      <use xlink:href="#DejaVuSans-7a" transform="translate(640.628906 0)"/>
      <use xlink:href="#DejaVuSans-65" transform="translate(693.119141 0)"/>
      <use xlink:href="#DejaVuSans-64" transform="translate(754.642578 0)"/>
      <use xlink:href="#DejaVuSans-20" transform="translate(818.119141 0)"/>
      <use xlink:href="#DejaVuSans-50" transform="translate(849.90625 0)"/>
      <use xlink:href="#DejaVuSans-72" transform="translate(908.458984 0)"/>
      <use xlink:href="#DejaVuSans-6f" transform="translate(947.322266 0)"/>
      <use xlink:href="#DejaVuSans-62" transform="translate(1008.503906 0)"/>
      <use xlink:href="#DejaVuSans-6c" transform="translate(1071.980469 0)"/>
      <use xlink:href="#DejaVuSans-65" transform="translate(1099.763672 0)"/>
      <use xlink:href="#DejaVuSans-6d" transform="translate(1161.287109 0)"/>
     </g>
    </g>
    <g id="line2d_40">
     <path d="M 57.90125 80.8525 
L 67.90125 80.8525 
L 77.90125 80.8525 
" style="fill: none; stroke: #d29922; stroke-width: 2; stroke-linecap: square"/>
    </g>
    <g id="text_27">
     <!-- Lean Formalized Solution -->
     <g style="fill: #c9d1d9" transform="translate(85.90125 84.3525) scale(0.1 -0.1)">
      <use xlink:href="#DejaVuSans-4c"/>
      <use xlink:href="#DejaVuSans-65" transform="translate(53.962891 0)"/>
      <use xlink:href="#DejaVuSans-61" transform="translate(115.486328 0)"/>
      <use xlink:href="#DejaVuSans-6e" transform="translate(176.765625 0)"/>
      <use xlink:href="#DejaVuSans-20" transform="translate(240.144531 0)"/>
      <use xlink:href="#DejaVuSans-46" transform="translate(271.931641 0)"/>
      <use xlink:href="#DejaVuSans-6f" transform="translate(325.826172 0)"/>
      <use xlink:href="#DejaVuSans-72" transform="translate(387.007812 0)"/>
      <use xlink:href="#DejaVuSans-6d" transform="translate(426.371094 0)"/>
      <use xlink:href="#DejaVuSans-61" transform="translate(523.783203 0)"/>
      <use xlink:href="#DejaVuSans-6c" transform="translate(585.0625 0)"/>
      <use xlink:href="#DejaVuSans-69" transform="translate(612.845703 0)"/>
      <use xlink:href="#DejaVuSans-7a" transform="translate(640.628906 0)"/>
      <use xlink:href="#DejaVuSans-65" transform="translate(693.119141 0)"/>
      <use xlink:href="#DejaVuSans-64" transform="translate(754.642578 0)"/>
      <use xlink:href="#DejaVuSans-20" transform="translate(818.119141 0)"/>
      <use xlink:href="#DejaVuSans-53" transform="translate(849.90625 0)"/>
      <use xlink:href="#DejaVuSans-6f" transform="translate(913.382812 0)"/>
      <use xlink:href="#DejaVuSans-6c" transform="translate(974.564453 0)"/>
      <use xlink:href="#DejaVuSans-75" transform="translate(1002.347656 0)"/>
      <use xlink:href="#DejaVuSans-74" transform="translate(1065.726562 0)"/>
      <use xlink:href="#DejaVuSans-69" transform="translate(1104.935547 0)"/>
      <use xlink:href="#DejaVuSans-6f" transform="translate(1132.71875 0)"/>
      <use xlink:href="#DejaVuSans-6e" transform="translate(1193.900391 0)"/>
     </g>
    </g>
    <g id="line2d_41">
     <path d="M 57.90125 95.530625 
L 67.90125 95.530625 
L 77.90125 95.530625 
" style="fill: none; stroke: #f85149; stroke-width: 2; stroke-linecap: square"/>
    </g>
    <g id="text_28">
     <!-- OEIS Linked -->
     <g style="fill: #c9d1d9" transform="translate(85.90125 99.030625) scale(0.1 -0.1)">
      <defs>
       <path id="DejaVuSans-45" d="M 628 4666 
L 3578 4666 
L 3578 4134 
L 1259 4134 
L 1259 2753 
L 3481 2753 
L 3481 2222 
L 1259 2222 
L 1259 531 
L 3634 531 
L 3634 0 
L 628 0 
L 628 4666 
z
" transform="scale(0.015625)"/>
       <path id="DejaVuSans-49" d="M 628 4666 
L 1259 4666 
L 1259 0 
L 628 0 
L 628 4666 
z
" transform="scale(0.015625)"/>
       <path id="DejaVuSans-6b" d="M 581 4863 
L 1159 4863 
L 1159 1991 
L 2875 3500 
L 3609 3500 
L 1753 1863 
L 3688 0 
L 2938 0 
L 1159 1709 
L 1159 0 
L 581 0 
L 581 4863 
z
" transform="scale(0.015625)"/>
      </defs>
      <use xlink:href="#DejaVuSans-4f"/>
      <use xlink:href="#DejaVuSans-45" transform="translate(78.710938 0)"/>
      <use xlink:href="#DejaVuSans-49" transform="translate(141.894531 0)"/>
      <use xlink:href="#DejaVuSans-53" transform="translate(171.386719 0)"/>
      <use xlink:href="#DejaVuSans-20" transform="translate(234.863281 0)"/>
      <use xlink:href="#DejaVuSans-4c" transform="translate(266.650391 0)"/>
      <use xlink:href="#DejaVuSans-69" transform="translate(322.363281 0)"/>
      <use xlink:href="#DejaVuSans-6e" transform="translate(350.146484 0)"/>
      <use xlink:href="#DejaVuSans-6b" transform="translate(413.525391 0)"/>
      <use xlink:href="#DejaVuSans-65" transform="translate(467.810547 0)"/>
      <use xlink:href="#DejaVuSans-64" transform="translate(529.333984 0)"/>
     </g>
    </g>
    <g id="line2d_42">
     <path d="M 57.90125 110.20875 
L 67.90125 110.20875 
L 77.90125 110.20875 
" style="fill: none; stroke: #9467bd; stroke-width: 2; stroke-linecap: square"/>
    </g>
    <g id="text_29">
     <!-- Open Problems -->
     <g style="fill: #c9d1d9" transform="translate(85.90125 113.70875) scale(0.1 -0.1)">
      <defs>
       <path id="DejaVuSans-73" d="M 2834 3397 
L 2834 2853 
Q 2591 2978 2328 3040 
Q 2066 3103 1784 3103 
Q 1356 3103 1142 2972 
Q 928 2841 928 2578 
Q 928 2378 1081 2264 
Q 1234 2150 1697 2047 
L 1894 2003 
Q 2506 1872 2764 1633 
Q 3022 1394 3022 966 
Q 3022 478 2636 193 
Q 2250 -91 1575 -91 
Q 1294 -91 989 -36 
Q 684 19 347 128 
L 347 722 
Q 666 556 975 473 
Q 1284 391 1588 391 
Q 1994 391 2212 530 
Q 2431 669 2431 922 
Q 2431 1156 2273 1281 
Q 2116 1406 1581 1522 
L 1381 1569 
Q 847 1681 609 1914 
Q 372 2147 372 2553 
Q 372 3047 722 3315 
Q 1072 3584 1716 3584 
Q 2034 3584 2315 3537 
Q 2597 3491 2834 3397 
z
" transform="scale(0.015625)"/>
      </defs>
      <use xlink:href="#DejaVuSans-4f"/>
      <use xlink:href="#DejaVuSans-70" transform="translate(78.710938 0)"/>
      <use xlink:href="#DejaVuSans-65" transform="translate(142.1875 0)"/>
      <use xlink:href="#DejaVuSans-6e" transform="translate(203.710938 0)"/>
      <use xlink:href="#DejaVuSans-20" transform="translate(267.089844 0)"/>
      <use xlink:href="#DejaVuSans-50" transform="translate(298.876953 0)"/>
      <use xlink:href="#DejaVuSans-72" transform="translate(357.429688 0)"/>
      <use xlink:href="#DejaVuSans-6f" transform="translate(396.292969 0)"/>
      <use xlink:href="#DejaVuSans-62" transform="translate(457.474609 0)"/>
      <use xlink:href="#DejaVuSans-6c" transform="translate(520.951172 0)"/>
      <use xlink:href="#DejaVuSans-65" transform="translate(548.734375 0)"/>
      <use xlink:href="#DejaVuSans-6d" transform="translate(610.257812 0)"/>
      <use xlink:href="#DejaVuSans-73" transform="translate(707.669922 0)"/>
     </g>
    </g>
   </g>
  </g>
 </g>
 <defs>
  <clipPath id="p06126d50ac">
   <rect x="48.90125" y="38.397812" width="799.45" height="416.84"/>
  </clipPath>
 </defs>
</svg>
