<?xml version="1.0" encoding="utf-8" standalone="no"?>
<!DOCTYPE svg PUBLIC "-//W3C//DTD SVG 1.1//EN"
  "http://www.w3.org/Graphics/SVG/1.1/DTD/svg11.dtd">
<svg xmlns:xlink="http://www.w3.org/1999/xlink" width="855.55125pt" height="494.729687pt" viewBox="0 0 855.55125 494.729687" xmlns="http://www.w3.org/2000/svg" version="1.1">
 <metadata>
  <rdf:RDF xmlns:dc="http://purl.org/dc/elements/1.1/" xmlns:cc="http://creativecommons.org/ns#" xmlns:rdf="http://www.w3.org/1999/02/22-rdf-syntax-ns#">
   <cc:Work>
    <dc:type rdf:resource="http://purl.org/dc/dcmitype/StillImage"/>
    <dc:date>2026-04-14T17:36:58.358444</dc:date>
    <dc:format>image/svg+xml</dc:format>
    <dc:creator>
     <cc:Agent>
      <dc:title>Matplotlib v3.10.7, https://matplotlib.org/</dc:title>
     </cc:Agent>
    </dc:creator>
   </cc:Work>
  </rdf:RDF>
 </metadata>
 <defs>
  <style type="text/css">*{stroke-linejoin: round; stroke-linecap: butt}</style>
 </defs>
 <g id="figure_1">
  <g id="patch_1">
   <path d="M 0 494.729687 
L 855.55125 494.729687 
L 855.55125 0 
L 0 0 
z
" style="fill: #ffffff"/>
  </g>
  <g id="axes_1">
   <g id="patch_2">
    <path d="M 48.90125 455.237812 
L 848.35125 455.237812 
L 848.35125 38.397812 
L 48.90125 38.397812 
z
" style="fill: #ffffff"/>
   </g>
   <g id="matplotlib.axis_1">
    <g id="xtick_1">
     <g id="line2d_1">
      <path d="M 86.17988 455.237812 
L 86.17988 38.397812 
" clip-path="url(#p60ebf17740)" style="fill: none; stroke: #d0d7de; stroke-opacity: 0.25; stroke-width: 0.5; stroke-linecap: square"/>
     </g>
     <g id="line2d_2">
      <defs>
       <path id="maf20ec0a6c" d="M 0 0 
L 0 3.5 
" style="stroke: #24292f; stroke-width: 0.8"/>
      </defs>
      <g>
       <use xlink:href="#maf20ec0a6c" x="86.17988" y="455.237812" style="fill: #24292f; stroke: #24292f; stroke-width: 0.8"/>
      </g>
     </g>
     <g id="text_1">
      <!-- Sep -->
      <g style="fill: #24292f" transform="translate(76.75488 469.83625) scale(0.1 -0.1)">
       <defs>
        <path id="DejaVuSans-53" d="M 3425 4513 
L 3425 3897 
Q 3066 4069 2747 4153 
Q 2428 4238 2131 4238 
Q 1616 4238 1336 4038 
Q 1056 3838 1056 3469 
Q 1056 3159 1242 3001 
Q 1428 2844 1947 2747 
L 2328 2669 
Q 3034 2534 3370 2195 
Q 3706 1856 3706 1288 
Q 3706 609 3251 259 
Q 2797 -91 1919 -91 
Q 1588 -91 1214 -16 
Q 841 59 441 206 
L 441 856 
Q 825 641 1194 531 
Q 1563 422 1919 422 
Q 2459 422 2753 634 
Q 3047 847 3047 1241 
Q 3047 1584 2836 1778 
Q 2625 1972 2144 2069 
L 1759 2144 
Q 1053 2284 737 2584 
Q 422 2884 422 3419 
Q 422 4038 858 4394 
Q 1294 4750 2059 4750 
Q 2388 4750 2728 4690 
Q 3069 4631 3425 4513 
z
" transform="scale(0.015625)"/>
        <path id="DejaVuSans-65" d="M 3597 1894 
L 3597 1613 
L 953 1613 
Q 991 1019 1311 708 
Q 1631 397 2203 397 
Q 2534 397 2845 478 
Q 3156 559 3463 722 
L 3463 178 
Q 3153 47 2828 -22 
Q 2503 -91 2169 -91 
Q 1331 -91 842 396 
Q 353 884 353 1716 
Q 353 2575 817 3079 
Q 1281 3584 2069 3584 
Q 2775 3584 3186 3129 
Q 3597 2675 3597 1894 
z
M 3022 2063 
Q 3016 2534 2758 2815 
Q 2500 3097 2075 3097 
Q 1594 3097 1305 2825 
Q 1016 2553 972 2059 
L 3022 2063 
z
" transform="scale(0.015625)"/>
        <path id="DejaVuSans-70" d="M 1159 525 
L 1159 -1331 
L 581 -1331 
L 581 3500 
L 1159 3500 
L 1159 2969 
Q 1341 3281 1617 3432 
Q 1894 3584 2278 3584 
Q 2916 3584 3314 3078 
Q 3713 2572 3713 1747 
Q 3713 922 3314 415 
Q 2916 -91 2278 -91 
Q 1894 -91 1617 61 
Q 1341 213 1159 525 
z
M 3116 1747 
Q 3116 2381 2855 2742 
Q 2594 3103 2138 3103 
Q 1681 3103 1420 2742 
Q 1159 2381 1159 1747 
Q 1159 1113 1420 752 
Q 1681 391 2138 391 
Q 2594 391 2855 752 
Q 3116 1113 3116 1747 
z
" transform="scale(0.015625)"/>
       </defs>
       <use xlink:href="#DejaVuSans-53"/>
       <use xlink:href="#DejaVuSans-65" transform="translate(63.476562 0)"/>
       <use xlink:href="#DejaVuSans-70" transform="translate(125 0)"/>
      </g>
     </g>
    </g>
    <g id="xtick_2">
     <g id="line2d_3">
      <path d="M 182.642892 455.237812 
L 182.642892 38.397812 
" clip-path="url(#p60ebf17740)" style="fill: none; stroke: #d0d7de; stroke-opacity: 0.25; stroke-width: 0.5; stroke-linecap: square"/>
     </g>
     <g id="line2d_4">
      <g>
       <use xlink:href="#maf20ec0a6c" x="182.642892" y="455.237812" style="fill: #24292f; stroke: #24292f; stroke-width: 0.8"/>
      </g>
     </g>
     <g id="text_2">
      <!-- Oct -->
      <g style="fill: #24292f" transform="translate(173.997579 469.83625) scale(0.1 -0.1)">
       <defs>
        <path id="DejaVuSans-4f" d="M 2522 4238 
Q 1834 4238 1429 3725 
Q 1025 3213 1025 2328 
Q 1025 1447 1429 934 
Q 1834 422 2522 422 
Q 3209 422 3611 934 
Q 4013 1447 4013 2328 
Q 4013 3213 3611 3725 
Q 3209 4238 2522 4238 
z
M 2522 4750 
Q 3503 4750 4090 4092 
Q 4678 3434 4678 2328 
Q 4678 1225 4090 567 
Q 3503 -91 2522 -91 
Q 1538 -91 948 565 
Q 359 1222 359 2328 
Q 359 3434 948 4092 
Q 1538 4750 2522 4750 
z
" transform="scale(0.015625)"/>
        <path id="DejaVuSans-63" d="M 3122 3366 
L 3122 2828 
Q 2878 2963 2633 3030 
Q 2388 3097 2138 3097 
Q 1578 3097 1268 2742 
Q 959 2388 959 1747 
Q 959 1106 1268 751 
Q 1578 397 2138 397 
Q 2388 397 2633 464 
Q 2878 531 3122 666 
L 3122 134 
Q 2881 22 2623 -34 
Q 2366 -91 2075 -91 
Q 1284 -91 818 406 
Q 353 903 353 1747 
Q 353 2603 823 3093 
Q 1294 3584 2113 3584 
Q 2378 3584 2631 3529 
Q 2884 3475 3122 3366 
z
" transform="scale(0.015625)"/>
        <path id="DejaVuSans-74" d="M 1172 4494 
L 1172 3500 
L 2356 3500 
L 2356 3053 
L 1172 3053 
L 1172 1153 
Q 1172 725 1289 603 
Q 1406 481 1766 481 
L 2356 481 
L 2356 0 
L 1766 0 
Q 1100 0 847 248 
Q 594 497 594 1153 
L 594 3053 
L 172 3053 
L 172 3500 
L 594 3500 
L 594 4494 
L 1172 4494 
z
" transform="scale(0.015625)"/>
       </defs>
       <use xlink:href="#DejaVuSans-4f"/>
       <use xlink:href="#DejaVuSans-63" transform="translate(78.710938 0)"/>
       <use xlink:href="#DejaVuSans-74" transform="translate(133.691406 0)"/>
      </g>
     </g>
    </g>
    <g id="xtick_3">
     <g id="line2d_5">
      <path d="M 282.321338 455.237812 
L 282.321338 38.397812 
" clip-path="url(#p60ebf17740)" style="fill: none; stroke: #d0d7de; stroke-opacity: 0.25; stroke-width: 0.5; stroke-linecap: square"/>
     </g>
     <g id="line2d_6">
      <g>
       <use xlink:href="#maf20ec0a6c" x="282.321338" y="455.237812" style="fill: #24292f; stroke: #24292f; stroke-width: 0.8"/>
      </g>
     </g>
     <g id="text_3">
      <!-- Nov -->
      <g style="fill: #24292f" transform="translate(272.561963 469.83625) scale(0.1 -0.1)">
       <defs>
        <path id="DejaVuSans-4e" d="M 628 4666 
L 1478 4666 
L 3547 763 
L 3547 4666 
L 4159 4666 
L 4159 0 
L 3309 0 
L 1241 3903 
L 1241 0 
L 628 0 
L 628 4666 
z
" transform="scale(0.015625)"/>
        <path id="DejaVuSans-6f" d="M 1959 3097 
Q 1497 3097 1228 2736 
Q 959 2375 959 1747 
Q 959 1119 1226 758 
Q 1494 397 1959 397 
Q 2419 397 2687 759 
Q 2956 1122 2956 1747 
Q 2956 2369 2687 2733 
Q 2419 3097 1959 3097 
z
M 1959 3584 
Q 2709 3584 3137 3096 
Q 3566 2609 3566 1747 
Q 3566 888 3137 398 
Q 2709 -91 1959 -91 
Q 1206 -91 779 398 
Q 353 888 353 1747 
Q 353 2609 779 3096 
Q 1206 3584 1959 3584 
z
" transform="scale(0.015625)"/>
        <path id="DejaVuSans-76" d="M 191 3500 
L 800 3500 
L 1894 563 
L 2988 3500 
L 3597 3500 
L 2284 0 
L 1503 0 
L 191 3500 
z
" transform="scale(0.015625)"/>
       </defs>
       <use xlink:href="#DejaVuSans-4e"/>
       <use xlink:href="#DejaVuSans-6f" transform="translate(74.804688 0)"/>
       <use xlink:href="#DejaVuSans-76" transform="translate(135.986328 0)"/>
      </g>
     </g>
    </g>
    <g id="xtick_4">
     <g id="line2d_7">
      <path d="M 378.78435 455.237812 
L 378.78435 38.397812 
" clip-path="url(#p60ebf17740)" style="fill: none; stroke: #d0d7de; stroke-opacity: 0.25; stroke-width: 0.5; stroke-linecap: square"/>
     </g>
     <g id="line2d_8">
      <g>
       <use xlink:href="#maf20ec0a6c" x="378.78435" y="455.237812" style="fill: #24292f; stroke: #24292f; stroke-width: 0.8"/>
      </g>
     </g>
     <g id="text_4">
      <!-- Dec -->
      <g style="fill: #24292f" transform="translate(369.108568 469.83625) scale(0.1 -0.1)">
       <defs>
        <path id="DejaVuSans-44" d="M 1259 4147 
L 1259 519 
L 2022 519 
Q 2988 519 3436 956 
Q 3884 1394 3884 2338 
Q 3884 3275 3436 3711 
Q 2988 4147 2022 4147 
L 1259 4147 
z
M 628 4666 
L 1925 4666 
Q 3281 4666 3915 4102 
Q 4550 3538 4550 2338 
Q 4550 1131 3912 565 
Q 3275 0 1925 0 
L 628 0 
L 628 4666 
z
" transform="scale(0.015625)"/>
       </defs>
       <use xlink:href="#DejaVuSans-44"/>
       <use xlink:href="#DejaVuSans-65" transform="translate(77.001953 0)"/>
       <use xlink:href="#DejaVuSans-63" transform="translate(138.525391 0)"/>
      </g>
     </g>
    </g>
    <g id="xtick_5">
     <g id="line2d_9">
      <path d="M 478.462796 455.237812 
L 478.462796 38.397812 
" clip-path="url(#p60ebf17740)" style="fill: none; stroke: #d0d7de; stroke-opacity: 0.25; stroke-width: 0.5; stroke-linecap: square"/>
     </g>
     <g id="line2d_10">
      <g>
       <use xlink:href="#maf20ec0a6c" x="478.462796" y="455.237812" style="fill: #24292f; stroke: #24292f; stroke-width: 0.8"/>
      </g>
     </g>
     <g id="text_5">
      <!-- 2026 -->
      <g style="fill: #24292f" transform="translate(465.737796 469.83625) scale(0.1 -0.1)">
       <defs>
        <path id="DejaVuSans-32" d="M 1228 531 
L 3431 531 
L 3431 0 
L 469 0 
L 469 531 
Q 828 903 1448 1529 
Q 2069 2156 2228 2338 
Q 2531 2678 2651 2914 
Q 2772 3150 2772 3378 
Q 2772 3750 2511 3984 
Q 2250 4219 1831 4219 
Q 1534 4219 1204 4116 
Q 875 4013 500 3803 
L 500 4441 
Q 881 4594 1212 4672 
Q 1544 4750 1819 4750 
Q 2544 4750 2975 4387 
Q 3406 4025 3406 3419 
Q 3406 3131 3298 2873 
Q 3191 2616 2906 2266 
Q 2828 2175 2409 1742 
Q 1991 1309 1228 531 
z
" transform="scale(0.015625)"/>
        <path id="DejaVuSans-30" d="M 2034 4250 
Q 1547 4250 1301 3770 
Q 1056 3291 1056 2328 
Q 1056 1369 1301 889 
Q 1547 409 2034 409 
Q 2525 409 2770 889 
Q 3016 1369 3016 2328 
Q 3016 3291 2770 3770 
Q 2525 4250 2034 4250 
z
M 2034 4750 
Q 2819 4750 3233 4129 
Q 3647 3509 3647 2328 
Q 3647 1150 3233 529 
Q 2819 -91 2034 -91 
Q 1250 -91 836 529 
Q 422 1150 422 2328 
Q 422 3509 836 4129 
Q 1250 4750 2034 4750 
z
" transform="scale(0.015625)"/>
        <path id="DejaVuSans-36" d="M 2113 2584 
Q 1688 2584 1439 2293 
Q 1191 2003 1191 1497 
Q 1191 994 1439 701 
Q 1688 409 2113 409 
Q 2538 409 2786 701 
Q 3034 994 3034 1497 
Q 3034 2003 2786 2293 
Q 2538 2584 2113 2584 
z
M 3366 4563 
L 3366 3988 
Q 3128 4100 2886 4159 
Q 2644 4219 2406 4219 
Q 1781 4219 1451 3797 
Q 1122 3375 1075 2522 
Q 1259 2794 1537 2939 
Q 1816 3084 2150 3084 
Q 2853 3084 3261 2657 
Q 3669 2231 3669 1497 
Q 3669 778 3244 343 
Q 2819 -91 2113 -91 
Q 1303 -91 875 529 
Q 447 1150 447 2328 
Q 447 3434 972 4092 
Q 1497 4750 2381 4750 
Q 2619 4750 2861 4703 
Q 3103 4656 3366 4563 
z
" transform="scale(0.015625)"/>
       </defs>
       <use xlink:href="#DejaVuSans-32"/>
       <use xlink:href="#DejaVuSans-30" transform="translate(63.623047 0)"/>
       <use xlink:href="#DejaVuSans-32" transform="translate(127.246094 0)"/>
       <use xlink:href="#DejaVuSans-36" transform="translate(190.869141 0)"/>
      </g>
     </g>
    </g>
    <g id="xtick_6">
     <g id="line2d_11">
      <path d="M 578.141241 455.237812 
L 578.141241 38.397812 
" clip-path="url(#p60ebf17740)" style="fill: none; stroke: #d0d7de; stroke-opacity: 0.25; stroke-width: 0.5; stroke-linecap: square"/>
     </g>
     <g id="line2d_12">
      <g>
       <use xlink:href="#maf20ec0a6c" x="578.141241" y="455.237812" style="fill: #24292f; stroke: #24292f; stroke-width: 0.8"/>
      </g>
     </g>
     <g id="text_6">
      <!-- Feb -->
      <g style="fill: #24292f" transform="translate(569.289679 469.83625) scale(0.1 -0.1)">
       <defs>
        <path id="DejaVuSans-46" d="M 628 4666 
L 3309 4666 
L 3309 4134 
L 1259 4134 
L 1259 2759 
L 3109 2759 
L 3109 2228 
L 1259 2228 
L 1259 0 
L 628 0 
L 628 4666 
z
" transform="scale(0.015625)"/>
        <path id="DejaVuSans-62" d="M 3116 1747 
Q 3116 2381 2855 2742 
Q 2594 3103 2138 3103 
Q 1681 3103 1420 2742 
Q 1159 2381 1159 1747 
Q 1159 1113 1420 752 
Q 1681 391 2138 391 
Q 2594 391 2855 752 
Q 3116 1113 3116 1747 
z
M 1159 2969 
Q 1341 3281 1617 3432 
Q 1894 3584 2278 3584 
Q 2916 3584 3314 3078 
Q 3713 2572 3713 1747 
Q 3713 922 3314 415 
Q 2916 -91 2278 -91 
Q 1894 -91 1617 61 
Q 1341 213 1159 525 
L 1159 0 
L 581 0 
L 581 4863 
L 1159 4863 
L 1159 2969 
z
" transform="scale(0.015625)"/>
       </defs>
       <use xlink:href="#DejaVuSans-46"/>
       <use xlink:href="#DejaVuSans-65" transform="translate(52.019531 0)"/>
       <use xlink:href="#DejaVuSans-62" transform="translate(113.542969 0)"/>
      </g>
     </g>
    </g>
    <g id="xtick_7">
     <g id="line2d_13">
      <path d="M 668.173386 455.237812 
L 668.173386 38.397812 
" clip-path="url(#p60ebf17740)" style="fill: none; stroke: #d0d7de; stroke-opacity: 0.25; stroke-width: 0.5; stroke-linecap: square"/>
     </g>
     <g id="line2d_14">
      <g>
       <use xlink:href="#maf20ec0a6c" x="668.173386" y="455.237812" style="fill: #24292f; stroke: #24292f; stroke-width: 0.8"/>
      </g>
     </g>
     <g id="text_7">
      <!-- Mar -->
      <g style="fill: #24292f" transform="translate(658.739792 469.83625) scale(0.1 -0.1)">
       <defs>
        <path id="DejaVuSans-4d" d="M 628 4666 
L 1569 4666 
L 2759 1491 
L 3956 4666 
L 4897 4666 
L 4897 0 
L 4281 0 
L 4281 4097 
L 3078 897 
L 2444 897 
L 1241 4097 
L 1241 0 
L 628 0 
L 628 4666 
z
" transform="scale(0.015625)"/>
        <path id="DejaVuSans-61" d="M 2194 1759 
Q 1497 1759 1228 1600 
Q 959 1441 959 1056 
Q 959 750 1161 570 
Q 1363 391 1709 391 
Q 2188 391 2477 730 
Q 2766 1069 2766 1631 
L 2766 1759 
L 2194 1759 
z
M 3341 1997 
L 3341 0 
L 2766 0 
L 2766 531 
Q 2569 213 2275 61 
Q 1981 -91 1556 -91 
Q 1019 -91 701 211 
Q 384 513 384 1019 
Q 384 1609 779 1909 
Q 1175 2209 1959 2209 
L 2766 2209 
L 2766 2266 
Q 2766 2663 2505 2880 
Q 2244 3097 1772 3097 
Q 1472 3097 1187 3025 
Q 903 2953 641 2809 
L 641 3341 
Q 956 3463 1253 3523 
Q 1550 3584 1831 3584 
Q 2591 3584 2966 3190 
Q 3341 2797 3341 1997 
z
" transform="scale(0.015625)"/>
        <path id="DejaVuSans-72" d="M 2631 2963 
Q 2534 3019 2420 3045 
Q 2306 3072 2169 3072 
Q 1681 3072 1420 2755 
Q 1159 2438 1159 1844 
L 1159 0 
L 581 0 
L 581 3500 
L 1159 3500 
L 1159 2956 
Q 1341 3275 1631 3429 
Q 1922 3584 2338 3584 
Q 2397 3584 2469 3576 
Q 2541 3569 2628 3553 
L 2631 2963 
z
" transform="scale(0.015625)"/>
       </defs>
       <use xlink:href="#DejaVuSans-4d"/>
       <use xlink:href="#DejaVuSans-61" transform="translate(86.279297 0)"/>
       <use xlink:href="#DejaVuSans-72" transform="translate(147.558594 0)"/>
      </g>
     </g>
    </g>
    <g id="xtick_8">
     <g id="line2d_15">
      <path d="M 767.851832 455.237812 
L 767.851832 38.397812 
" clip-path="url(#p60ebf17740)" style="fill: none; stroke: #d0d7de; stroke-opacity: 0.25; stroke-width: 0.5; stroke-linecap: square"/>
     </g>
     <g id="line2d_16">
      <g>
       <use xlink:href="#maf20ec0a6c" x="767.851832" y="455.237812" style="fill: #24292f; stroke: #24292f; stroke-width: 0.8"/>
      </g>
     </g>
     <g id="text_8">
      <!-- Apr -->
      <g style="fill: #24292f" transform="translate(759.201832 469.83625) scale(0.1 -0.1)">
       <defs>
        <path id="DejaVuSans-41" d="M 2188 4044 
L 1331 1722 
L 3047 1722 
L 2188 4044 
z
M 1831 4666 
L 2547 4666 
L 4325 0 
L 3669 0 
L 3244 1197 
L 1141 1197 
L 716 0 
L 50 0 
L 1831 4666 
z
" transform="scale(0.015625)"/>
       </defs>
       <use xlink:href="#DejaVuSans-41"/>
       <use xlink:href="#DejaVuSans-70" transform="translate(68.408203 0)"/>
       <use xlink:href="#DejaVuSans-72" transform="translate(131.884766 0)"/>
      </g>
     </g>
    </g>
    <g id="text_9">
     <!-- Date -->
     <g style="fill: #24292f" transform="translate(434.285313 485.034062) scale(0.12 -0.12)">
      <use xlink:href="#DejaVuSans-44"/>
      <use xlink:href="#DejaVuSans-61" transform="translate(77.001953 0)"/>
      <use xlink:href="#DejaVuSans-74" transform="translate(138.28125 0)"/>
      <use xlink:href="#DejaVuSans-65" transform="translate(177.490234 0)"/>
     </g>
    </g>
   </g>
   <g id="matplotlib.axis_2">
    <g id="ytick_1">
     <g id="line2d_17">
      <path d="M 48.90125 455.237812 
L 848.35125 455.237812 
" clip-path="url(#p60ebf17740)" style="fill: none; stroke: #d0d7de; stroke-opacity: 0.25; stroke-width: 0.5; stroke-linecap: square"/>
     </g>
     <g id="line2d_18">
      <defs>
       <path id="m10c0b343b6" d="M 0 0 
L -3.5 0 
" style="stroke: #24292f; stroke-width: 0.8"/>
      </defs>
      <g>
       <use xlink:href="#m10c0b343b6" x="48.90125" y="455.237812" style="fill: #24292f; stroke: #24292f; stroke-width: 0.8"/>
      </g>
     </g>
     <g id="text_10">
      <!-- 0 -->
      <g style="fill: #24292f" transform="translate(35.53875 459.037031) scale(0.1 -0.1)">
       <use xlink:href="#DejaVuSans-30"/>
      </g>
     </g>
    </g>
    <g id="ytick_2">
     <g id="line2d_19">
      <path d="M 48.90125 399.659146 
L 848.35125 399.659146 
" clip-path="url(#p60ebf17740)" style="fill: none; stroke: #d0d7de; stroke-opacity: 0.25; stroke-width: 0.5; stroke-linecap: square"/>
     </g>
     <g id="line2d_20">
      <g>
       <use xlink:href="#m10c0b343b6" x="48.90125" y="399.659146" style="fill: #24292f; stroke: #24292f; stroke-width: 0.8"/>
      </g>
     </g>
     <g id="text_11">
      <!-- 100 -->
      <g style="fill: #24292f" transform="translate(22.81375 403.458365) scale(0.1 -0.1)">
       <defs>
        <path id="DejaVuSans-31" d="M 794 531 
L 1825 531 
L 1825 4091 
L 703 3866 
L 703 4441 
L 1819 4666 
L 2450 4666 
L 2450 531 
L 3481 531 
L 3481 0 
L 794 0 
L 794 531 
z
" transform="scale(0.015625)"/>
       </defs>
       <use xlink:href="#DejaVuSans-31"/>
       <use xlink:href="#DejaVuSans-30" transform="translate(63.623047 0)"/>
       <use xlink:href="#DejaVuSans-30" transform="translate(127.246094 0)"/>
      </g>
     </g>
    </g>
    <g id="ytick_3">
     <g id="line2d_21">
      <path d="M 48.90125 344.080479 
L 848.35125 344.080479 
" clip-path="url(#p60ebf17740)" style="fill: none; stroke: #d0d7de; stroke-opacity: 0.25; stroke-width: 0.5; stroke-linecap: square"/>
     </g>
     <g id="line2d_22">
      <g>
       <use xlink:href="#m10c0b343b6" x="48.90125" y="344.080479" style="fill: #24292f; stroke: #24292f; stroke-width: 0.8"/>
      </g>
     </g>
     <g id="text_12">
      <!-- 200 -->
      <g style="fill: #24292f" transform="translate(22.81375 347.879698) scale(0.1 -0.1)">
       <use xlink:href="#DejaVuSans-32"/>
       <use xlink:href="#DejaVuSans-30" transform="translate(63.623047 0)"/>
       <use xlink:href="#DejaVuSans-30" transform="translate(127.246094 0)"/>
      </g>
     </g>
    </g>
    <g id="ytick_4">
     <g id="line2d_23">
      <path d="M 48.90125 288.501812 
L 848.35125 288.501812 
" clip-path="url(#p60ebf17740)" style="fill: none; stroke: #d0d7de; stroke-opacity: 0.25; stroke-width: 0.5; stroke-linecap: square"/>
     </g>
     <g id="line2d_24">
      <g>
       <use xlink:href="#m10c0b343b6" x="48.90125" y="288.501812" style="fill: #24292f; stroke: #24292f; stroke-width: 0.8"/>
      </g>
     </g>
     <g id="text_13">
      <!-- 300 -->
      <g style="fill: #24292f" transform="translate(22.81375 292.301031) scale(0.1 -0.1)">
       <defs>
        <path id="DejaVuSans-33" d="M 2597 2516 
Q 3050 2419 3304 2112 
Q 3559 1806 3559 1356 
Q 3559 666 3084 287 
Q 2609 -91 1734 -91 
Q 1441 -91 1130 -33 
Q 819 25 488 141 
L 488 750 
Q 750 597 1062 519 
Q 1375 441 1716 441 
Q 2309 441 2620 675 
Q 2931 909 2931 1356 
Q 2931 1769 2642 2001 
Q 2353 2234 1838 2234 
L 1294 2234 
L 1294 2753 
L 1863 2753 
Q 2328 2753 2575 2939 
Q 2822 3125 2822 3475 
Q 2822 3834 2567 4026 
Q 2313 4219 1838 4219 
Q 1578 4219 1281 4162 
Q 984 4106 628 3988 
L 628 4550 
Q 988 4650 1302 4700 
Q 1616 4750 1894 4750 
Q 2613 4750 3031 4423 
Q 3450 4097 3450 3541 
Q 3450 3153 3228 2886 
Q 3006 2619 2597 2516 
z
" transform="scale(0.015625)"/>
       </defs>
       <use xlink:href="#DejaVuSans-33"/>
       <use xlink:href="#DejaVuSans-30" transform="translate(63.623047 0)"/>
       <use xlink:href="#DejaVuSans-30" transform="translate(127.246094 0)"/>
      </g>
     </g>
    </g>
    <g id="ytick_5">
     <g id="line2d_25">
      <path d="M 48.90125 232.923146 
L 848.35125 232.923146 
" clip-path="url(#p60ebf17740)" style="fill: none; stroke: #d0d7de; stroke-opacity: 0.25; stroke-width: 0.5; stroke-linecap: square"/>
     </g>
     <g id="line2d_26">
      <g>
       <use xlink:href="#m10c0b343b6" x="48.90125" y="232.923146" style="fill: #24292f; stroke: #24292f; stroke-width: 0.8"/>
      </g>
     </g>
     <g id="text_14">
      <!-- 400 -->
      <g style="fill: #24292f" transform="translate(22.81375 236.722365) scale(0.1 -0.1)">
       <defs>
        <path id="DejaVuSans-34" d="M 2419 4116 
L 825 1625 
L 2419 1625 
L 2419 4116 
z
M 2253 4666 
L 3047 4666 
L 3047 1625 
L 3713 1625 
L 3713 1100 
L 3047 1100 
L 3047 0 
L 2419 0 
L 2419 1100 
L 313 1100 
L 313 1709 
L 2253 4666 
z
" transform="scale(0.015625)"/>
       </defs>
       <use xlink:href="#DejaVuSans-34"/>
       <use xlink:href="#DejaVuSans-30" transform="translate(63.623047 0)"/>
       <use xlink:href="#DejaVuSans-30" transform="translate(127.246094 0)"/>
      </g>
     </g>
    </g>
    <g id="ytick_6">
     <g id="line2d_27">
      <path d="M 48.90125 177.344479 
L 848.35125 177.344479 
" clip-path="url(#p60ebf17740)" style="fill: none; stroke: #d0d7de; stroke-opacity: 0.25; stroke-width: 0.5; stroke-linecap: square"/>
     </g>
     <g id="line2d_28">
      <g>
       <use xlink:href="#m10c0b343b6" x="48.90125" y="177.344479" style="fill: #24292f; stroke: #24292f; stroke-width: 0.8"/>
      </g>
     </g>
     <g id="text_15">
      <!-- 500 -->
      <g style="fill: #24292f" transform="translate(22.81375 181.143698) scale(0.1 -0.1)">
       <defs>
        <path id="DejaVuSans-35" d="M 691 4666 
L 3169 4666 
L 3169 4134 
L 1269 4134 
L 1269 2991 
Q 1406 3038 1543 3061 
Q 1681 3084 1819 3084 
Q 2600 3084 3056 2656 
Q 3513 2228 3513 1497 
Q 3513 744 3044 326 
Q 2575 -91 1722 -91 
Q 1428 -91 1123 -41 
Q 819 9 494 109 
L 494 744 
Q 775 591 1075 516 
Q 1375 441 1709 441 
Q 2250 441 2565 725 
Q 2881 1009 2881 1497 
Q 2881 1984 2565 2268 
Q 2250 2553 1709 2553 
Q 1456 2553 1204 2497 
Q 953 2441 691 2322 
L 691 4666 
z
" transform="scale(0.015625)"/>
       </defs>
       <use xlink:href="#DejaVuSans-35"/>
       <use xlink:href="#DejaVuSans-30" transform="translate(63.623047 0)"/>
       <use xlink:href="#DejaVuSans-30" transform="translate(127.246094 0)"/>
      </g>
     </g>
    </g>
    <g id="ytick_7">
     <g id="line2d_29">
      <path d="M 48.90125 121.765812 
L 848.35125 121.765812 
" clip-path="url(#p60ebf17740)" style="fill: none; stroke: #d0d7de; stroke-opacity: 0.25; stroke-width: 0.5; stroke-linecap: square"/>
     </g>
     <g id="line2d_30">
      <g>
       <use xlink:href="#m10c0b343b6" x="48.90125" y="121.765812" style="fill: #24292f; stroke: #24292f; stroke-width: 0.8"/>
      </g>
     </g>
     <g id="text_16">
      <!-- 600 -->
      <g style="fill: #24292f" transform="translate(22.81375 125.565031) scale(0.1 -0.1)">
       <use xlink:href="#DejaVuSans-36"/>
       <use xlink:href="#DejaVuSans-30" transform="translate(63.623047 0)"/>
       <use xlink:href="#DejaVuSans-30" transform="translate(127.246094 0)"/>
      </g>
     </g>
    </g>
    <g id="ytick_8">
     <g id="line2d_31">
      <path d="M 48.90125 66.187146 
L 848.35125 66.187146 
" clip-path="url(#p60ebf17740)" style="fill: none; stroke: #d0d7de; stroke-opacity: 0.25; stroke-width: 0.5; stroke-linecap: square"/>
     </g>
     <g id="line2d_32">
      <g>
       <use xlink:href="#m10c0b343b6" x="48.90125" y="66.187146" style="fill: #24292f; stroke: #24292f; stroke-width: 0.8"/>
      </g>
     </g>
     <g id="text_17">
      <!-- 700 -->
      <g style="fill: #24292f" transform="translate(22.81375 69.986365) scale(0.1 -0.1)">
       <defs>
        <path id="DejaVuSans-37" d="M 525 4666 
L 3525 4666 
L 3525 4397 
L 1831 0 
L 1172 0 
L 2766 4134 
L 525 4134 
L 525 4666 
z
" transform="scale(0.015625)"/>
       </defs>
       <use xlink:href="#DejaVuSans-37"/>
       <use xlink:href="#DejaVuSans-30" transform="translate(63.623047 0)"/>
       <use xlink:href="#DejaVuSans-30" transform="translate(127.246094 0)"/>
      </g>
     </g>
    </g>
    <g id="text_18">
     <!-- Count -->
     <g style="fill: #24292f" transform="translate(16.318125 264.635937) rotate(-90) scale(0.12 -0.12)">
      <defs>
       <path id="DejaVuSans-43" d="M 4122 4306 
L 4122 3641 
Q 3803 3938 3442 4084 
Q 3081 4231 2675 4231 
Q 1875 4231 1450 3742 
Q 1025 3253 1025 2328 
Q 1025 1406 1450 917 
Q 1875 428 2675 428 
Q 3081 428 3442 575 
Q 3803 722 4122 1019 
L 4122 359 
Q 3791 134 3420 21 
Q 3050 -91 2638 -91 
Q 1578 -91 968 557 
Q 359 1206 359 2328 
Q 359 3453 968 4101 
Q 1578 4750 2638 4750 
Q 3056 4750 3426 4639 
Q 3797 4528 4122 4306 
z
" transform="scale(0.015625)"/>
       <path id="DejaVuSans-75" d="M 544 1381 
L 544 3500 
L 1119 3500 
L 1119 1403 
Q 1119 906 1312 657 
Q 1506 409 1894 409 
Q 2359 409 2629 706 
Q 2900 1003 2900 1516 
L 2900 3500 
L 3475 3500 
L 3475 0 
L 2900 0 
L 2900 538 
Q 2691 219 2414 64 
Q 2138 -91 1772 -91 
Q 1169 -91 856 284 
Q 544 659 544 1381 
z
M 1991 3584 
L 1991 3584 
z
" transform="scale(0.015625)"/>
       <path id="DejaVuSans-6e" d="M 3513 2113 
L 3513 0 
L 2938 0 
L 2938 2094 
Q 2938 2591 2744 2837 
Q 2550 3084 2163 3084 
Q 1697 3084 1428 2787 
Q 1159 2491 1159 1978 
L 1159 0 
L 581 0 
L 581 3500 
L 1159 3500 
L 1159 2956 
Q 1366 3272 1645 3428 
Q 1925 3584 2291 3584 
Q 2894 3584 3203 3211 
Q 3513 2838 3513 2113 
z
" transform="scale(0.015625)"/>
      </defs>
      <use xlink:href="#DejaVuSans-43"/>
      <use xlink:href="#DejaVuSans-6f" transform="translate(69.824219 0)"/>
      <use xlink:href="#DejaVuSans-75" transform="translate(131.005859 0)"/>
      <use xlink:href="#DejaVuSans-6e" transform="translate(194.384766 0)"/>
      <use xlink:href="#DejaVuSans-74" transform="translate(257.763672 0)"/>
     </g>
    </g>
   </g>
   <g id="line2d_33">
    <path d="M 85.239886 454.682026 
L 85.301478 454.682026 
L 85.45008 454.126239 
L 85.533816 454.126239 
L 85.621235 257.933546 
L 88.329978 257.933546 
L 88.341812 261.268266 
L 91.47552 261.268266 
L 91.627174 260.712479 
L 92.062225 260.712479 
L 92.414807 260.156692 
L 94.599552 259.600906 
L 94.642685 260.156692 
L 94.74741 259.600906 
L 101.512921 259.600906 
L 105.594438 260.712479 
L 106.201723 259.600906 
L 106.645148 259.600906 
L 107.762734 259.045119 
L 108.230312 256.821972 
L 109.140756 256.821972 
L 110.467495 260.712479 
L 110.553575 256.821972 
L 111.571646 256.266186 
L 114.221216 256.266186 
L 114.920089 255.710399 
L 115.958183 255.710399 
L 116.236444 254.598826 
L 122.706909 254.598826 
L 123.178841 253.487252 
L 123.203031 252.375679 
L 125.240552 252.375679 
L 128.244973 251.264106 
L 129.821019 251.264106 
L 129.844874 250.708319 
L 133.464321 250.708319 
L 134.362187 247.929386 
L 137.203715 247.929386 
L 137.223439 247.373599 
L 153.137417 247.373599 
L 156.11214 246.817812 
L 156.213701 247.373599 
L 159.29888 246.817812 
L 170.035042 246.817812 
L 175.238723 246.262026 
L 175.339242 245.706239 
L 175.586429 245.150452 
L 178.522001 245.150452 
L 179.771405 244.594666 
L 184.923803 244.594666 
L 185.119408 247.373599 
L 185.12901 245.150452 
L 185.379509 245.150452 
L 186.623405 242.927306 
L 192.7136 242.927306 
L 197.381152 242.371519 
L 202.56883 242.371519 
L 202.796479 241.815732 
L 216.276626 241.815732 
L 216.851943 241.259946 
L 220.125099 241.259946 
L 220.148172 240.148372 
L 226.3847 240.148372 
L 226.511196 236.257866 
L 237.798968 236.257866 
L 237.802355 235.702079 
L 238.129257 235.702079 
L 239.551938 235.146292 
L 240.997729 235.146292 
L 241.457566 234.590506 
L 241.503565 235.146292 
L 242.556545 234.590506 
L 242.561346 234.034719 
L 242.585945 234.590506 
L 243.194198 234.034719 
L 248.734979 234.034719 
L 250.457655 233.478932 
L 252.501762 233.478932 
L 255.973649 232.923146 
L 259.260426 232.923146 
L 261.799799 231.811572 
L 267.357066 231.811572 
L 270.589768 230.699999 
L 271.500584 231.255786 
L 276.012575 231.255786 
L 281.102301 229.032639 
L 288.692995 229.032639 
L 291.047146 228.476852 
L 333.000928 228.476852 
L 333.339739 227.921066 
L 348.639323 227.921066 
L 348.894958 227.365279 
L 374.928695 227.365279 
L 380.661248 226.809492 
L 380.694407 227.365279 
L 384.798067 225.697919 
L 390.820418 225.697919 
L 394.108832 225.142132 
L 394.114228 224.586346 
L 400.975532 224.586346 
L 403.43813 225.142132 
L 404.323379 224.586346 
L 415.806124 224.586346 
L 416.294803 225.142132 
L 417.189989 224.586346 
L 417.497614 222.363199 
L 422.759798 222.363199 
L 422.764338 221.807412 
L 438.866515 221.807412 
L 439.804201 221.251626 
L 442.898759 221.251626 
L 443.200652 220.695839 
L 458.29075 220.695839 
L 458.311256 220.140052 
L 462.08552 220.140052 
L 462.091139 219.584266 
L 463.00698 219.584266 
L 463.054802 219.028479 
L 464.476999 219.028479 
L 464.700441 218.472692 
L 467.744385 218.472692 
L 468.207088 217.361119 
L 469.882798 215.137972 
L 473.934951 215.137972 
L 474.234128 212.359039 
L 475.592909 212.359039 
L 476.259777 211.247466 
L 479.696123 211.247466 
L 480.823683 210.691679 
L 484.051324 210.691679 
L 484.483919 210.135892 
L 493.250479 210.135892 
L 493.466478 209.580106 
L 494.277296 209.580106 
L 495.536116 209.024319 
L 509.715434 209.024319 
L 509.842824 208.468532 
L 510.29745 208.468532 
L 511.246524 207.356959 
L 512.577133 207.356959 
L 512.897076 206.801172 
L 513.205334 206.801172 
L 513.322303 206.245386 
L 516.880716 206.245386 
L 517.486513 205.689599 
L 520.583824 205.689599 
L 520.782407 205.133812 
L 522.478994 205.133812 
L 522.587701 204.578026 
L 527.860306 204.578026 
L 527.973665 204.022239 
L 531.048721 204.022239 
L 532.075799 201.799092 
L 533.214524 201.799092 
L 533.215715 201.243306 
L 537.839389 201.243306 
L 538.687051 200.687519 
L 542.22734 200.687519 
L 542.92465 200.131732 
L 543.186946 200.131732 
L 543.86829 199.575946 
L 545.608718 199.575946 
L 545.809869 199.020159 
L 550.174858 199.020159 
L 551.299999 198.464372 
L 551.381948 197.908586 
L 551.746215 197.908586 
L 552.895956 195.685439 
L 556.461626 195.685439 
L 556.487305 195.129652 
L 559.880778 195.129652 
L 560.078096 194.573866 
L 560.589923 194.573866 
L 560.977971 194.018079 
L 561.058915 194.573866 
L 561.349495 194.018079 
L 562.640506 194.018079 
L 562.652862 193.462292 
L 562.995693 193.462292 
L 563.145821 192.906506 
L 564.18317 192.350719 
L 571.400628 192.350719 
L 572.528709 191.794932 
L 573.283852 191.794932 
L 573.896497 191.239146 
L 574.516249 191.794932 
L 577.068016 191.794932 
L 577.178063 190.683359 
L 580.841313 190.683359 
L 582.262653 189.015999 
L 597.690297 189.015999 
L 598.586934 188.460212 
L 622.400347 188.460212 
L 622.546642 187.904426 
L 657.537967 187.904426 
L 657.692114 187.348639 
L 657.703167 186.792852 
L 657.714146 187.348639 
L 662.814069 187.348639 
L 663.965559 186.792852 
L 684.057517 186.792852 
L 688.191992 186.237066 
L 688.232185 185.681279 
L 688.574457 185.681279 
L 689.646566 185.125492 
L 721.892826 185.125492 
L 722.076709 184.569706 
L 750.88145 184.569706 
L 754.562154 184.013919 
L 756.81359 184.013919 
L 757.057911 183.458132 
L 758.622755 182.902346 
L 763.011115 182.902346 
L 764.85932 182.346559 
L 766.793269 182.346559 
L 766.943881 181.790772 
L 770.124853 181.790772 
L 770.504825 181.234986 
L 770.580038 180.679199 
L 776.243481 180.679199 
L 776.265438 180.123412 
L 781.087584 180.123412 
L 781.098228 179.567626 
L 782.73207 179.011839 
L 785.632585 179.011839 
L 787.719863 178.456052 
L 789.587829 178.456052 
L 792.34097 175.121332 
L 795.555212 175.121332 
L 795.570099 172.342399 
L 811.731412 172.342399 
L 811.733087 171.786612 
L 812.012614 171.230826 
L 812.012614 171.230826 
" clip-path="url(#p60ebf17740)" style="fill: none; stroke: #1a7f37; stroke-width: 2; stroke-linecap: square"/>
   </g>
   <g id="line2d_34">
    <path d="M 85.239886 455.237812 
L 85.340555 453.570452 
L 85.45008 453.570452 
L 85.533816 372.981386 
L 87.052178 372.981386 
L 87.083402 370.758239 
L 88.648581 370.758239 
L 89.05185 369.090879 
L 89.600558 370.758239 
L 89.604614 369.090879 
L 90.058646 369.090879 
L 90.234117 367.979306 
L 94.717898 367.979306 
L 94.722178 367.423519 
L 94.74741 367.979306 
L 94.968099 367.423519 
L 95.032817 367.979306 
L 95.205424 367.423519 
L 96.778865 367.423519 
L 96.861186 366.867732 
L 97.08541 366.311946 
L 98.8619 366.311946 
L 100.88353 365.756159 
L 100.954686 365.200372 
L 101.501087 364.644586 
L 101.512921 364.088799 
L 105.594438 367.979306 
L 106.201723 366.311946 
L 106.645148 363.533012 
L 109.140756 363.533012 
L 110.467495 367.979306 
L 110.553575 363.533012 
L 134.797387 363.533012 
L 135.541328 362.977226 
L 137.223439 362.977226 
L 141.817564 362.421439 
L 142.936639 361.865652 
L 158.881692 361.865652 
L 159.29888 361.309866 
L 161.442279 360.754079 
L 162.804596 360.754079 
L 164.314659 360.198292 
L 164.355336 359.086719 
L 165.393355 358.530932 
L 166.091 357.975146 
L 175.701946 357.975146 
L 177.617809 357.419359 
L 178.196996 357.419359 
L 178.522001 356.863572 
L 179.771405 356.863572 
L 181.012659 356.307786 
L 184.923803 356.307786 
L 185.119408 358.530932 
L 185.12901 356.307786 
L 186.623405 356.307786 
L 186.773422 355.751999 
L 188.888686 355.751999 
L 190.969823 355.196212 
L 191.020325 354.640426 
L 197.381152 354.640426 
L 200.064067 354.084639 
L 200.07084 353.528852 
L 208.99873 353.528852 
L 212.722902 352.973066 
L 215.51698 352.973066 
L 216.276626 352.417279 
L 220.541579 352.417279 
L 222.974144 351.861492 
L 223.107488 351.305706 
L 225.479131 351.305706 
L 225.754378 350.749919 
L 226.511196 350.194132 
L 228.200675 350.194132 
L 229.267351 349.638346 
L 231.223071 349.638346 
L 232.499494 349.082559 
L 235.22249 349.082559 
L 236.150165 347.970986 
L 243.194198 347.970986 
L 245.200272 347.415199 
L 247.5526 347.415199 
L 248.083072 346.859412 
L 248.245295 346.303626 
L 248.734979 345.747839 
L 256.83549 345.747839 
L 258.318609 345.192052 
L 259.260426 344.636266 
L 282.295175 344.636266 
L 287.46592 344.080479 
L 287.527698 343.524692 
L 291.047146 343.524692 
L 294.055289 342.968906 
L 299.372143 342.968906 
L 299.82141 342.413119 
L 308.876243 342.413119 
L 315.964413 341.857332 
L 316.032444 341.301546 
L 316.959114 341.301546 
L 318.836607 340.745759 
L 318.941332 339.078399 
L 319.023951 338.522612 
L 322.945701 337.966826 
L 323.180531 337.411039 
L 323.274129 336.299466 
L 323.629315 335.743679 
L 336.391089 335.743679 
L 340.01649 335.187892 
L 342.324308 334.632106 
L 344.132246 334.632106 
L 348.324107 334.076319 
L 348.639323 331.853172 
L 348.894958 331.853172 
L 349.497666 330.741599 
L 357.448756 330.185812 
L 357.701823 329.630026 
L 357.776477 329.074239 
L 359.456281 329.074239 
L 361.042524 328.518452 
L 361.224844 327.962666 
L 361.34866 326.851092 
L 362.398626 326.295306 
L 362.4757 325.739519 
L 364.391413 325.183732 
L 366.909574 324.627946 
L 367.088656 324.072159 
L 367.092452 323.516372 
L 367.598957 322.960586 
L 367.688424 322.404799 
L 371.341253 321.849012 
L 371.9961 321.293226 
L 387.373875 321.293226 
L 389.924041 320.737439 
L 390.156118 320.181652 
L 400.57844 320.181652 
L 400.975532 319.070079 
L 405.317967 319.070079 
L 406.629001 318.514292 
L 406.693049 317.402719 
L 407.029702 316.846932 
L 409.258883 316.291146 
L 409.309087 315.735359 
L 409.578157 315.179572 
L 409.626872 313.512212 
L 409.853888 312.956426 
L 410.161028 312.956426 
L 410.172342 312.400639 
L 412.033312 311.844852 
L 412.764934 311.289066 
L 412.941969 310.733279 
L 416.294803 310.177492 
L 418.7657 310.177492 
L 419.623708 309.621706 
L 428.913669 309.621706 
L 431.991367 309.065919 
L 432.003611 308.510132 
L 432.55712 307.954346 
L 439.804201 307.954346 
L 441.837591 307.398559 
L 442.675241 306.842772 
L 442.898759 305.731199 
L 448.760896 305.731199 
L 449.160295 305.175412 
L 452.379376 305.175412 
L 453.920514 304.619626 
L 458.311256 304.619626 
L 460.965663 304.063839 
L 466.478011 304.063839 
L 467.155522 303.508052 
L 469.882798 303.508052 
L 470.625139 302.952266 
L 470.947166 302.396479 
L 471.105779 301.840692 
L 473.35074 301.840692 
L 473.414565 300.729119 
L 474.234128 300.729119 
L 474.772229 299.061759 
L 476.725047 299.061759 
L 476.967582 298.505972 
L 477.155856 298.505972 
L 478.090564 297.950186 
L 479.641676 297.950186 
L 479.696123 297.394399 
L 480.823683 297.394399 
L 481.097553 296.838612 
L 482.157344 296.838612 
L 483.779984 295.727039 
L 484.483919 295.727039 
L 487.206431 294.615466 
L 487.210524 294.059679 
L 487.730316 293.503892 
L 489.056533 292.948106 
L 489.262745 292.392319 
L 490.585018 291.836532 
L 492.746504 291.836532 
L 493.065293 291.280746 
L 493.250479 290.724959 
L 496.102613 290.724959 
L 496.177454 290.169172 
L 496.928466 290.169172 
L 496.986113 289.613386 
L 497.398239 289.057599 
L 498.832233 289.057599 
L 498.941312 288.501812 
L 499.186973 288.501812 
L 499.248007 287.946026 
L 499.347038 287.946026 
L 499.350387 287.390239 
L 501.366881 287.390239 
L 501.766205 286.834452 
L 502.101518 286.834452 
L 502.301925 286.278666 
L 502.813714 286.278666 
L 503.196887 285.722879 
L 503.277682 285.167092 
L 503.387208 285.167092 
L 505.313379 284.611306 
L 506.754779 284.611306 
L 506.863896 284.055519 
L 512.549854 284.055519 
L 512.577133 283.499732 
L 512.897076 283.499732 
L 513.533688 282.388159 
L 515.570315 282.388159 
L 515.748392 280.720799 
L 515.800345 279.609226 
L 516.135993 279.053439 
L 517.486513 279.053439 
L 518.123459 278.497652 
L 518.740829 278.497652 
L 518.939896 277.941866 
L 519.896897 277.386079 
L 520.782407 277.386079 
L 522.562618 276.830292 
L 522.587701 276.274506 
L 523.13172 276.274506 
L 523.221894 275.718719 
L 524.804416 275.718719 
L 524.848367 275.162932 
L 532.52302 275.162932 
L 532.641589 274.607146 
L 532.869907 274.607146 
L 532.971133 273.495572 
L 533.959358 273.495572 
L 534.039074 272.939786 
L 534.169664 272.939786 
L 534.854135 272.383999 
L 535.026183 271.828212 
L 535.340543 271.828212 
L 535.606561 271.272426 
L 535.693273 270.716639 
L 539.549598 270.716639 
L 540.522974 270.160852 
L 540.71523 269.049279 
L 540.952145 268.493492 
L 541.347636 268.493492 
L 541.588682 267.937706 
L 547.122949 267.937706 
L 547.488296 266.270346 
L 548.244481 266.270346 
L 548.355495 265.714559 
L 551.310382 265.714559 
L 551.381948 264.602986 
L 554.930908 264.602986 
L 554.967677 264.047199 
L 556.677291 264.047199 
L 556.68879 263.491412 
L 557.521305 263.491412 
L 557.54382 262.935626 
L 560.078096 262.935626 
L 560.204145 262.379839 
L 560.364731 262.379839 
L 560.589923 261.824052 
L 561.047043 261.824052 
L 561.058915 261.268266 
L 561.349495 261.268266 
L 561.903822 260.712479 
L 566.381165 260.712479 
L 566.706578 260.156692 
L 568.035066 260.156692 
L 568.037522 259.600906 
L 578.194646 259.600906 
L 579.918587 259.045119 
L 579.968568 258.489332 
L 580.841313 257.933546 
L 582.168386 257.933546 
L 582.262653 256.821972 
L 582.502694 256.821972 
L 582.602618 256.266186 
L 586.127091 256.266186 
L 586.763553 255.710399 
L 592.859964 255.710399 
L 592.87872 255.154612 
L 594.86987 255.154612 
L 595.720807 254.598826 
L 605.092605 254.598826 
L 605.209574 253.487252 
L 608.895339 253.487252 
L 609.628451 252.931466 
L 610.413515 252.931466 
L 611.373233 252.375679 
L 617.716978 252.375679 
L 618.32445 251.819892 
L 618.850828 251.819892 
L 619.108919 251.264106 
L 621.129804 250.708319 
L 622.119071 250.708319 
L 622.441656 250.152532 
L 622.546642 250.152532 
L 625.385788 249.596746 
L 630.613212 249.596746 
L 631.022287 249.040959 
L 651.198724 249.040959 
L 651.935929 248.485172 
L 656.601769 248.485172 
L 656.770394 247.929386 
L 657.073478 247.929386 
L 657.164842 247.373599 
L 683.221579 247.373599 
L 684.057517 246.817812 
L 690.278972 246.817812 
L 691.630459 246.262026 
L 691.721042 245.706239 
L 694.958023 245.706239 
L 695.092335 245.150452 
L 705.577254 245.150452 
L 705.598727 244.594666 
L 714.44973 244.594666 
L 714.545002 244.038879 
L 715.119872 243.483092 
L 717.291853 243.483092 
L 717.29684 242.927306 
L 717.738218 242.371519 
L 720.999315 242.371519 
L 722.076709 241.815732 
L 729.030531 241.815732 
L 729.079507 240.704159 
L 773.158377 240.704159 
L 776.265438 240.148372 
L 780.174498 240.148372 
L 780.30438 239.592586 
L 797.635085 239.592586 
L 797.664187 239.036799 
L 812.012614 239.036799 
L 812.012614 239.036799 
" clip-path="url(#p60ebf17740)" style="fill: none; stroke: #0969da; stroke-width: 2; stroke-linecap: square"/>
   </g>
   <g id="line2d_35">
    <path d="M 85.239886 455.237812 
L 88.329978 455.237812 
L 88.341812 454.126239 
L 90.892872 454.126239 
L 91.47552 453.570452 
L 248.734979 453.570452 
L 250.457655 453.014666 
L 294.055289 453.014666 
L 295.265208 452.458879 
L 336.391089 452.458879 
L 340.01649 451.903092 
L 349.497666 451.903092 
L 357.776477 450.235732 
L 359.456281 449.124159 
L 362.4757 449.124159 
L 364.391413 448.568372 
L 367.092452 448.012586 
L 367.688424 448.012586 
L 371.341253 447.456799 
L 371.9961 446.901012 
L 374.928695 446.345226 
L 380.661248 445.789439 
L 380.694407 446.345226 
L 390.156118 446.345226 
L 390.820418 445.789439 
L 404.323379 445.789439 
L 405.317967 445.233652 
L 409.853888 445.233652 
L 410.172342 444.677866 
L 415.806124 444.677866 
L 416.294803 444.122079 
L 436.93331 444.122079 
L 438.866515 443.566292 
L 439.679008 443.566292 
L 439.804201 443.010506 
L 445.312455 443.010506 
L 445.317703 442.454719 
L 458.29075 442.454719 
L 458.311256 441.898932 
L 462.091139 441.898932 
L 463.054802 441.343146 
L 464.474505 440.787359 
L 464.476999 440.231572 
L 464.700441 440.231572 
L 466.478011 438.564212 
L 467.675462 438.564212 
L 467.744385 436.896852 
L 468.207088 436.896852 
L 469.882798 437.452639 
L 471.087915 437.452639 
L 471.105779 435.229492 
L 475.592909 435.229492 
L 476.259777 434.673706 
L 476.967582 434.673706 
L 477.155856 434.117919 
L 493.250479 434.117919 
L 493.466478 433.562132 
L 494.277296 433.562132 
L 495.536116 433.006346 
L 501.089847 433.006346 
L 501.366881 432.450559 
L 503.277682 432.450559 
L 503.387208 431.894772 
L 509.715434 431.894772 
L 509.842824 431.338986 
L 510.29745 431.338986 
L 510.758552 430.783199 
L 511.219208 430.783199 
L 511.246524 430.227412 
L 513.205334 430.227412 
L 513.322303 429.671626 
L 522.415914 429.671626 
L 522.539879 429.115839 
L 522.587701 429.115839 
L 522.681038 428.560052 
L 523.221894 428.560052 
L 524.355706 428.004266 
L 528.788427 428.004266 
L 528.792335 427.448479 
L 529.639326 427.448479 
L 529.671555 426.892692 
L 532.075799 426.892692 
L 532.580815 426.336906 
L 535.784824 426.336906 
L 536.714099 425.781119 
L 538.521329 425.781119 
L 538.540495 424.669546 
L 538.687051 424.669546 
L 538.871492 424.113759 
L 541.778742 424.113759 
L 542.22734 423.557972 
L 542.92465 423.557972 
L 543.186946 423.002186 
L 544.888967 423.002186 
L 545.126627 422.446399 
L 545.129678 421.890612 
L 545.608718 421.890612 
L 545.809869 421.334826 
L 564.144242 421.334826 
L 564.18317 420.223252 
L 566.706578 420.223252 
L 567.432842 419.667466 
L 568.037522 419.667466 
L 570.874138 419.111679 
L 571.400628 419.111679 
L 572.528709 418.555892 
L 573.283852 418.555892 
L 573.896497 418.000106 
L 574.516249 418.555892 
L 576.511344 418.555892 
L 577.053874 418.000106 
L 577.178063 416.888532 
L 578.187835 416.332746 
L 578.194646 415.221172 
L 582.602618 415.221172 
L 583.566616 414.665386 
L 583.664307 412.998026 
L 584.627821 412.442239 
L 585.160675 411.886452 
L 589.718031 411.886452 
L 589.911404 410.219092 
L 590.143853 410.219092 
L 590.316198 409.663306 
L 591.429989 409.107519 
L 593.183182 409.107519 
L 593.54436 408.551732 
L 593.626532 407.995946 
L 593.810824 407.995946 
L 594.86987 406.884372 
L 596.004539 406.884372 
L 596.377105 406.328586 
L 597.68598 406.328586 
L 597.690297 405.217012 
L 598.586934 405.217012 
L 599.777277 404.661226 
L 602.930896 403.549652 
L 603.212432 402.993866 
L 609.628451 402.993866 
L 610.413515 401.882292 
L 622.400347 401.882292 
L 622.546642 400.770719 
L 628.381128 400.770719 
L 629.272592 400.214932 
L 631.977836 400.214932 
L 632.129676 399.659146 
L 648.772635 399.659146 
L 649.03828 399.103359 
L 650.686786 399.103359 
L 651.198724 398.547572 
L 654.275344 398.547572 
L 654.853973 397.991786 
L 654.857769 397.435999 
L 655.519538 396.880212 
L 657.537967 396.880212 
L 657.692114 396.324426 
L 657.703167 395.212852 
L 657.714146 395.768639 
L 659.070508 395.212852 
L 663.965559 395.212852 
L 664.93112 394.101279 
L 673.763328 394.101279 
L 674.446199 393.545492 
L 676.588816 393.545492 
L 676.760343 392.989706 
L 676.783938 392.433919 
L 684.057517 392.433919 
L 688.574457 391.322346 
L 689.646566 391.322346 
L 690.278972 390.766559 
L 699.635289 390.766559 
L 700.785327 390.210772 
L 702.210352 390.210772 
L 703.590495 389.654986 
L 715.119872 389.654986 
L 715.43628 389.099199 
L 715.437992 388.543412 
L 721.892826 388.543412 
L 722.076709 387.987626 
L 750.88145 387.987626 
L 754.562154 387.431839 
L 763.011115 387.431839 
L 764.85932 386.876052 
L 766.485496 386.876052 
L 766.793269 386.320266 
L 770.580038 386.320266 
L 771.219701 385.764479 
L 772.063343 385.764479 
L 773.158377 385.208692 
L 775.783161 385.208692 
L 776.265438 384.652906 
L 776.588508 384.652906 
L 777.764672 384.097119 
L 789.127769 384.097119 
L 789.159551 382.429759 
L 799.074475 382.429759 
L 803.278915 381.873972 
L 803.282339 381.318186 
L 808.212522 381.318186 
L 808.419478 380.762399 
L 808.42253 380.206612 
L 810.728673 380.206612 
L 811.733087 379.650826 
L 812.012614 379.650826 
L 812.012614 379.650826 
" clip-path="url(#p60ebf17740)" style="fill: none; stroke: #bf8700; stroke-width: 2; stroke-linecap: square"/>
   </g>
   <g id="line2d_36">
    <path d="M 85.239886 454.682026 
L 85.504192 454.682026 
L 85.621235 432.450559 
L 86.232912 426.892692 
L 86.582442 425.781119 
L 86.759774 426.336906 
L 87.083402 425.781119 
L 87.630733 425.225332 
L 88.010481 424.113759 
L 88.329978 423.557972 
L 88.341812 423.002186 
L 88.648581 421.334826 
L 89.05185 421.334826 
L 89.600558 420.779039 
L 89.604614 420.223252 
L 90.046402 419.667466 
L 90.168208 419.111679 
L 90.234117 419.111679 
L 90.892872 418.555892 
L 91.363538 418.000106 
L 91.47552 411.886452 
L 91.552966 412.442239 
L 91.74232 408.551732 
L 92.062225 402.993866 
L 94.722178 402.993866 
L 94.968099 399.659146 
L 95.032817 402.438079 
L 95.332664 397.991786 
L 95.481154 397.435999 
L 96.587465 396.880212 
L 96.620847 396.324426 
L 96.861186 395.768639 
L 97.08541 395.768639 
L 97.655145 395.212852 
L 97.959495 394.657066 
L 98.097342 393.545492 
L 98.181188 392.989706 
L 98.465516 392.433919 
L 98.47255 391.878132 
L 98.758515 392.433919 
L 98.839906 391.878132 
L 98.849917 392.433919 
L 98.8619 390.766559 
L 101.512921 390.766559 
L 105.594438 402.993866 
L 106.201723 390.210772 
L 106.645148 389.654986 
L 108.230312 389.654986 
L 108.520259 389.099199 
L 109.140756 388.543412 
L 110.467495 402.993866 
L 110.553575 387.987626 
L 111.571646 387.431839 
L 113.7488 386.876052 
L 113.904064 387.431839 
L 114.221216 385.764479 
L 114.920089 385.764479 
L 115.132441 385.208692 
L 115.533515 384.652906 
L 115.566786 383.541332 
L 115.936747 382.429759 
L 115.958183 382.985546 
L 116.178239 382.985546 
L 116.298892 381.873972 
L 116.670305 379.650826 
L 116.719132 378.539252 
L 117.195641 376.871892 
L 117.428537 377.983466 
L 119.075255 374.648746 
L 119.508855 375.760319 
L 121.293272 373.537172 
L 122.706909 377.427679 
L 123.203031 373.537172 
L 125.240552 371.869812 
L 128.244973 371.869812 
L 128.641766 371.314026 
L 128.957541 369.646666 
L 129.844874 371.314026 
L 133.464321 371.869812 
L 134.362187 369.646666 
L 134.797387 367.979306 
L 135.541328 369.646666 
L 137.223439 367.979306 
L 142.936639 367.979306 
L 148.944104 367.423519 
L 149.344731 366.867732 
L 153.137417 366.311946 
L 155.645306 366.311946 
L 156.11214 365.756159 
L 156.213701 366.311946 
L 158.881692 364.644586 
L 161.384186 364.644586 
L 161.442279 364.088799 
L 162.804596 363.533012 
L 166.091 363.533012 
L 167.540699 359.642506 
L 168.619693 359.086719 
L 170.008098 358.530932 
L 170.035042 357.975146 
L 175.238723 357.975146 
L 175.339242 354.084639 
L 175.531834 354.084639 
L 175.701946 352.973066 
L 177.617809 352.973066 
L 178.196996 352.417279 
L 181.012659 352.417279 
L 184.923803 351.861492 
L 185.119408 363.533012 
L 185.12901 352.417279 
L 185.379509 351.861492 
L 186.773422 351.861492 
L 188.888686 351.305706 
L 191.020325 351.305706 
L 192.7136 350.749919 
L 197.381152 349.638346 
L 200.07084 349.638346 
L 202.232475 349.082559 
L 202.56883 346.303626 
L 202.796479 346.303626 
L 203.199301 345.747839 
L 205.300461 345.192052 
L 205.786162 342.968906 
L 208.690138 341.857332 
L 208.725121 342.413119 
L 208.99873 341.857332 
L 212.722902 340.745759 
L 215.51698 340.189972 
L 216.851943 340.189972 
L 218.035178 339.634186 
L 219.060582 338.522612 
L 220.148172 337.966826 
L 220.541579 337.411039 
L 223.107488 337.966826 
L 225.479131 336.855252 
L 225.754378 337.411039 
L 226.3847 337.411039 
L 226.511196 336.855252 
L 228.200675 336.299466 
L 229.267351 336.855252 
L 231.223071 335.743679 
L 232.499494 335.743679 
L 235.22249 335.187892 
L 235.674028 335.743679 
L 236.150165 334.076319 
L 237.802355 334.076319 
L 238.129257 333.520532 
L 239.551938 331.297386 
L 239.953904 330.185812 
L 240.997729 330.741599 
L 241.457566 329.630026 
L 241.503565 329.074239 
L 245.200272 329.074239 
L 247.072555 328.518452 
L 247.5526 327.962666 
L 250.457655 327.962666 
L 252.501762 327.406879 
L 255.973649 327.406879 
L 256.83549 326.851092 
L 266.382574 326.851092 
L 266.930872 326.295306 
L 266.985803 325.739519 
L 267.357066 325.183732 
L 271.500584 325.183732 
L 271.758824 324.627946 
L 272.813032 324.072159 
L 272.995612 323.516372 
L 274.742218 322.960586 
L 276.012575 322.404799 
L 281.102301 322.404799 
L 282.295175 321.293226 
L 287.527698 321.293226 
L 288.692995 320.737439 
L 293.569513 320.737439 
L 294.055289 320.181652 
L 295.265208 319.625866 
L 295.625381 319.070079 
L 295.747671 318.514292 
L 299.372143 317.958506 
L 299.82141 318.514292 
L 304.592794 317.402719 
L 308.365309 316.291146 
L 308.876243 315.735359 
L 316.032444 315.735359 
L 316.959114 315.179572 
L 323.629315 315.179572 
L 329.912511 314.623786 
L 330.702823 314.067999 
L 333.339739 313.512212 
L 335.984098 312.956426 
L 336.391089 312.400639 
L 342.324308 312.400639 
L 344.132246 311.844852 
L 357.776477 311.844852 
L 359.456281 311.289066 
L 370.726785 311.289066 
L 371.341253 310.733279 
L 371.9961 311.289066 
L 374.928695 310.733279 
L 384.798067 310.733279 
L 386.120637 310.177492 
L 406.998888 310.177492 
L 407.029702 309.621706 
L 419.924112 309.621706 
L 422.757081 309.065919 
L 422.764338 308.510132 
L 436.927021 308.510132 
L 436.93331 307.398559 
L 445.317703 307.398559 
L 449.160295 306.842772 
L 453.920514 306.842772 
L 458.311256 305.731199 
L 467.155522 305.731199 
L 467.675462 305.175412 
L 467.744385 304.619626 
L 471.087915 304.619626 
L 471.105779 304.063839 
L 471.452964 304.063839 
L 472.006398 303.508052 
L 476.967582 303.508052 
L 477.155856 302.952266 
L 483.779984 302.952266 
L 484.051324 302.396479 
L 500.228528 302.396479 
L 501.088619 300.729119 
L 501.089847 300.173332 
L 503.381737 300.173332 
L 503.387208 299.617546 
L 510.147471 299.617546 
L 510.29745 299.061759 
L 513.533688 299.061759 
L 513.649949 298.505972 
L 525.672397 298.505972 
L 525.90358 297.950186 
L 528.69416 297.950186 
L 528.792335 297.394399 
L 529.671555 296.838612 
L 551.746215 296.838612 
L 552.895956 295.727039 
L 554.616957 295.727039 
L 554.967677 295.171252 
L 556.68879 295.171252 
L 556.943867 294.615466 
L 561.010311 294.615466 
L 561.058915 294.059679 
L 583.564718 294.059679 
L 583.664307 292.948106 
L 611.795668 292.948106 
L 612.526286 292.392319 
L 660.557423 292.392319 
L 662.814069 291.836532 
L 683.112388 291.836532 
L 683.221579 291.280746 
L 692.309087 291.280746 
L 692.750799 290.724959 
L 812.012614 290.724959 
L 812.012614 290.724959 
" clip-path="url(#p60ebf17740)" style="fill: none; stroke: #cf222e; stroke-width: 2; stroke-linecap: square"/>
   </g>
   <g id="line2d_37">
    <path d="M 85.239886 454.682026 
L 85.260913 454.126239 
L 85.426694 -1 
M 85.575696 -1 
L 85.621235 101.201706 
L 88.329978 101.201706 
L 88.341812 97.866986 
L 91.47552 97.866986 
L 91.627174 98.422772 
L 92.062225 98.422772 
L 92.414807 98.978559 
L 94.599552 99.534346 
L 94.642685 98.978559 
L 94.74741 99.534346 
L 101.512921 99.534346 
L 105.594438 98.422772 
L 106.201723 99.534346 
L 106.645148 98.978559 
L 107.762734 99.534346 
L 108.230312 96.755412 
L 109.140756 96.755412 
L 110.467495 98.422772 
L 110.553575 95.643839 
L 111.571646 96.199626 
L 114.221216 96.199626 
L 114.920089 95.088052 
L 115.958183 95.088052 
L 116.236444 91.197546 
L 122.706909 91.197546 
L 123.178841 87.862826 
L 123.203031 86.751252 
L 125.240552 86.751252 
L 128.244973 82.860746 
L 129.821019 82.860746 
L 129.844874 83.416532 
L 133.464321 83.416532 
L 134.362187 80.081812 
L 137.203715 80.081812 
L 137.223439 80.637599 
L 153.137417 80.637599 
L 156.11214 81.193386 
L 156.213701 80.637599 
L 159.29888 81.193386 
L 170.035042 81.193386 
L 175.238723 81.749172 
L 175.339242 74.523946 
L 175.586429 75.079732 
L 178.522001 75.079732 
L 179.771405 75.635519 
L 184.923803 75.635519 
L 185.119408 80.637599 
L 185.12901 71.745012 
L 185.379509 71.745012 
L 186.623405 73.968159 
L 192.7136 73.968159 
L 197.381152 70.077652 
L 202.56883 70.077652 
L 202.796479 68.410292 
L 216.276626 68.410292 
L 216.851943 68.966079 
L 220.125099 68.966079 
L 220.148172 70.077652 
L 226.3847 70.077652 
L 226.511196 73.412372 
L 236.150165 73.412372 
L 236.380382 68.410292 
L 237.798968 67.298719 
L 237.802355 67.854506 
L 238.129257 67.854506 
L 239.293959 65.075572 
L 240.997729 65.075572 
L 241.457566 65.631359 
L 241.503565 65.075572 
L 242.556545 65.631359 
L 242.561346 66.187146 
L 242.585945 65.631359 
L 243.194198 63.408212 
L 248.734979 63.408212 
L 250.457655 63.963999 
L 252.501762 63.963999 
L 255.973649 64.519786 
L 259.260426 64.519786 
L 261.799799 65.631359 
L 266.985803 65.075572 
L 267.357066 65.075572 
L 270.589768 66.187146 
L 271.500584 65.631359 
L 276.012575 65.631359 
L 281.099547 67.854506 
L 281.102301 67.298719 
L 288.692995 67.298719 
L 291.047146 67.854506 
L 333.000928 67.854506 
L 333.339739 68.410292 
L 335.96523 68.410292 
L 335.984098 66.742932 
L 348.639323 66.742932 
L 348.894958 67.298719 
L 374.928695 67.298719 
L 380.661248 67.854506 
L 380.694407 67.298719 
L 384.798067 68.966079 
L 386.120637 68.966079 
L 387.373875 68.410292 
L 390.820418 68.410292 
L 394.108832 68.966079 
L 394.114228 69.521866 
L 403.43813 67.854506 
L 404.323379 68.410292 
L 415.806124 68.410292 
L 416.294803 67.854506 
L 417.189989 68.410292 
L 417.497614 70.633439 
L 422.759798 70.633439 
L 422.764338 71.189226 
L 438.866515 71.189226 
L 439.804201 71.745012 
L 442.898759 71.745012 
L 443.200652 72.300799 
L 458.29075 72.300799 
L 458.311256 72.856586 
L 460.965663 72.856586 
L 462.08552 73.412372 
L 462.091139 73.968159 
L 463.00698 73.412372 
L 463.054802 73.968159 
L 464.476999 73.968159 
L 464.700441 74.523946 
L 467.675462 74.523946 
L 467.744385 73.412372 
L 468.207088 74.523946 
L 469.882798 72.856586 
L 473.934951 72.856586 
L 474.234128 71.189226 
L 475.592909 71.189226 
L 476.259777 72.300799 
L 479.696123 72.300799 
L 480.823683 72.856586 
L 481.097553 72.856586 
L 482.157344 70.077652 
L 484.051324 70.077652 
L 484.483919 70.633439 
L 493.250479 70.633439 
L 493.466478 71.189226 
L 494.277296 71.189226 
L 495.536116 71.745012 
L 509.715434 71.745012 
L 509.842824 72.300799 
L 510.29745 72.300799 
L 511.246524 73.412372 
L 512.577133 73.412372 
L 512.897076 72.856586 
L 513.205334 72.856586 
L 513.322303 73.412372 
L 516.880716 73.412372 
L 517.486513 73.968159 
L 520.583824 73.968159 
L 520.782407 74.523946 
L 522.478994 74.523946 
L 522.587701 75.079732 
L 527.860306 75.079732 
L 527.973665 75.635519 
L 531.048721 75.635519 
L 532.075799 77.858666 
L 533.214524 77.858666 
L 533.215715 78.414452 
L 537.839389 78.414452 
L 538.687051 78.970239 
L 542.22734 78.970239 
L 542.92465 79.526026 
L 545.608718 79.526026 
L 545.809869 80.081812 
L 550.174858 80.081812 
L 551.299999 80.637599 
L 551.381948 81.193386 
L 551.746215 81.193386 
L 552.895956 60.629279 
L 556.461626 60.629279 
L 556.487305 61.185066 
L 556.68879 61.185066 
L 556.943867 60.629279 
L 559.880778 60.629279 
L 560.078096 61.185066 
L 560.589923 61.185066 
L 560.977971 61.740852 
L 561.058915 61.185066 
L 562.640506 61.185066 
L 562.652862 61.740852 
L 562.995693 61.740852 
L 563.145821 62.296639 
L 564.18317 62.852426 
L 571.400628 62.852426 
L 572.528709 63.408212 
L 573.283852 63.408212 
L 573.896497 63.963999 
L 574.516249 63.408212 
L 577.068016 63.408212 
L 577.178063 64.519786 
L 580.841313 64.519786 
L 582.262653 66.187146 
L 597.690297 66.187146 
L 598.586934 66.742932 
L 622.400347 66.742932 
L 622.546642 67.298719 
L 657.537967 67.298719 
L 657.692114 67.854506 
L 657.703167 68.410292 
L 657.714146 67.854506 
L 662.814069 67.854506 
L 663.965559 68.410292 
L 684.057517 68.410292 
L 688.574457 68.966079 
L 689.637672 69.521866 
L 689.646566 67.854506 
L 721.892826 67.854506 
L 722.076709 68.410292 
L 750.88145 68.410292 
L 754.562154 68.966079 
L 756.81359 68.966079 
L 757.057911 69.521866 
L 758.622755 70.077652 
L 763.011115 70.077652 
L 764.85932 70.633439 
L 766.793269 70.633439 
L 766.943881 71.189226 
L 770.124853 71.189226 
L 770.504825 71.745012 
L 770.580038 72.300799 
L 776.243481 72.300799 
L 776.265438 72.856586 
L 780.30438 72.856586 
L 781.087584 72.300799 
L 781.098228 72.856586 
L 782.73207 73.412372 
L 785.632585 73.412372 
L 787.719863 73.968159 
L 789.587829 73.968159 
L 792.34097 61.740852 
L 795.555212 61.740852 
L 795.570099 64.519786 
L 811.731412 64.519786 
L 811.733087 65.075572 
L 812.012614 65.631359 
L 812.012614 65.631359 
" clip-path="url(#p60ebf17740)" style="fill: none; stroke: #9467bd; stroke-width: 2; stroke-linecap: square"/>
   </g>
   <g id="patch_3">
    <path d="M 48.90125 455.237812 
L 48.90125 38.397812 
" style="fill: none; stroke: #d0d7de; stroke-width: 0.8; stroke-linejoin: miter; stroke-linecap: square"/>
   </g>
   <g id="patch_4">
    <path d="M 848.35125 455.237812 
L 848.35125 38.397812 
" style="fill: none; stroke: #d0d7de; stroke-width: 0.8; stroke-linejoin: miter; stroke-linecap: square"/>
   </g>
   <g id="patch_5">
    <path d="M 48.90125 455.237812 
L 848.35125 455.237812 
" style="fill: none; stroke: #d0d7de; stroke-width: 0.8; stroke-linejoin: miter; stroke-linecap: square"/>
   </g>
   <g id="patch_6">
    <path d="M 48.90125 38.397812 
L 848.35125 38.397812 
" style="fill: none; stroke: #d0d7de; stroke-width: 0.8; stroke-linejoin: miter; stroke-linecap: square"/>
   </g>
   <g id="text_19">
    <!-- 511 -->
    <g style="fill: #1a7f37" transform="translate(817.012614 173.714263) scale(0.09 -0.09)">
     <defs>
      <path id="DejaVuSans-Bold-35" d="M 678 4666 
L 3669 4666 
L 3669 3781 
L 1638 3781 
L 1638 3059 
Q 1775 3097 1914 3117 
Q 2053 3138 2203 3138 
Q 3056 3138 3531 2711 
Q 4006 2284 4006 1522 
Q 4006 766 3489 337 
Q 2972 -91 2053 -91 
Q 1656 -91 1267 -14 
Q 878 63 494 219 
L 494 1166 
Q 875 947 1217 837 
Q 1559 728 1863 728 
Q 2300 728 2551 942 
Q 2803 1156 2803 1522 
Q 2803 1891 2551 2103 
Q 2300 2316 1863 2316 
Q 1603 2316 1309 2248 
Q 1016 2181 678 2041 
L 678 4666 
z
" transform="scale(0.015625)"/>
      <path id="DejaVuSans-Bold-31" d="M 750 831 
L 1813 831 
L 1813 3847 
L 722 3622 
L 722 4441 
L 1806 4666 
L 2950 4666 
L 2950 831 
L 4013 831 
L 4013 0 
L 750 0 
L 750 831 
z
" transform="scale(0.015625)"/>
     </defs>
     <use xlink:href="#DejaVuSans-Bold-35"/>
     <use xlink:href="#DejaVuSans-Bold-31" transform="translate(69.580078 0)"/>
     <use xlink:href="#DejaVuSans-Bold-31" transform="translate(139.160156 0)"/>
    </g>
   </g>
   <g id="text_20">
    <!-- 389 -->
    <g style="fill: #0969da" transform="translate(817.012614 241.520237) scale(0.09 -0.09)">
     <defs>
      <path id="DejaVuSans-Bold-33" d="M 2981 2516 
Q 3453 2394 3698 2092 
Q 3944 1791 3944 1325 
Q 3944 631 3412 270 
Q 2881 -91 1863 -91 
Q 1503 -91 1142 -33 
Q 781 25 428 141 
L 428 1069 
Q 766 900 1098 814 
Q 1431 728 1753 728 
Q 2231 728 2486 893 
Q 2741 1059 2741 1369 
Q 2741 1688 2480 1852 
Q 2219 2016 1709 2016 
L 1228 2016 
L 1228 2791 
L 1734 2791 
Q 2188 2791 2409 2933 
Q 2631 3075 2631 3366 
Q 2631 3634 2415 3781 
Q 2200 3928 1806 3928 
Q 1516 3928 1219 3862 
Q 922 3797 628 3669 
L 628 4550 
Q 984 4650 1334 4700 
Q 1684 4750 2022 4750 
Q 2931 4750 3382 4451 
Q 3834 4153 3834 3553 
Q 3834 3144 3618 2883 
Q 3403 2622 2981 2516 
z
" transform="scale(0.015625)"/>
      <path id="DejaVuSans-Bold-38" d="M 2228 2088 
Q 1891 2088 1709 1903 
Q 1528 1719 1528 1375 
Q 1528 1031 1709 848 
Q 1891 666 2228 666 
Q 2563 666 2741 848 
Q 2919 1031 2919 1375 
Q 2919 1722 2741 1905 
Q 2563 2088 2228 2088 
z
M 1350 2484 
Q 925 2613 709 2878 
Q 494 3144 494 3541 
Q 494 4131 934 4440 
Q 1375 4750 2228 4750 
Q 3075 4750 3515 4442 
Q 3956 4134 3956 3541 
Q 3956 3144 3739 2878 
Q 3522 2613 3097 2484 
Q 3572 2353 3814 2058 
Q 4056 1763 4056 1313 
Q 4056 619 3595 264 
Q 3134 -91 2228 -91 
Q 1319 -91 855 264 
Q 391 619 391 1313 
Q 391 1763 633 2058 
Q 875 2353 1350 2484 
z
M 1631 3419 
Q 1631 3141 1786 2991 
Q 1941 2841 2228 2841 
Q 2509 2841 2662 2991 
Q 2816 3141 2816 3419 
Q 2816 3697 2662 3845 
Q 2509 3994 2228 3994 
Q 1941 3994 1786 3844 
Q 1631 3694 1631 3419 
z
" transform="scale(0.015625)"/>
      <path id="DejaVuSans-Bold-39" d="M 641 103 
L 641 966 
Q 928 831 1190 764 
Q 1453 697 1709 697 
Q 2247 697 2547 995 
Q 2847 1294 2900 1881 
Q 2688 1725 2447 1647 
Q 2206 1569 1925 1569 
Q 1209 1569 770 1986 
Q 331 2403 331 3084 
Q 331 3838 820 4291 
Q 1309 4744 2131 4744 
Q 3044 4744 3544 4128 
Q 4044 3513 4044 2388 
Q 4044 1231 3459 570 
Q 2875 -91 1856 -91 
Q 1528 -91 1228 -42 
Q 928 6 641 103 
z
M 2125 2350 
Q 2441 2350 2600 2554 
Q 2759 2759 2759 3169 
Q 2759 3575 2600 3781 
Q 2441 3988 2125 3988 
Q 1809 3988 1650 3781 
Q 1491 3575 1491 3169 
Q 1491 2759 1650 2554 
Q 1809 2350 2125 2350 
z
" transform="scale(0.015625)"/>
     </defs>
     <use xlink:href="#DejaVuSans-Bold-33"/>
     <use xlink:href="#DejaVuSans-Bold-38" transform="translate(69.580078 0)"/>
     <use xlink:href="#DejaVuSans-Bold-39" transform="translate(139.160156 0)"/>
    </g>
   </g>
   <g id="text_21">
    <!-- 136 -->
    <g style="fill: #bf8700" transform="translate(817.012614 382.134263) scale(0.09 -0.09)">
     <defs>
      <path id="DejaVuSans-Bold-36" d="M 2316 2303 
Q 2000 2303 1842 2098 
Q 1684 1894 1684 1484 
Q 1684 1075 1842 870 
Q 2000 666 2316 666 
Q 2634 666 2792 870 
Q 2950 1075 2950 1484 
Q 2950 1894 2792 2098 
Q 2634 2303 2316 2303 
z
M 3803 4544 
L 3803 3681 
Q 3506 3822 3243 3889 
Q 2981 3956 2731 3956 
Q 2194 3956 1894 3657 
Q 1594 3359 1544 2772 
Q 1750 2925 1990 3001 
Q 2231 3078 2516 3078 
Q 3231 3078 3670 2659 
Q 4109 2241 4109 1563 
Q 4109 813 3618 361 
Q 3128 -91 2303 -91 
Q 1394 -91 895 523 
Q 397 1138 397 2266 
Q 397 3422 980 4083 
Q 1563 4744 2578 4744 
Q 2900 4744 3203 4694 
Q 3506 4644 3803 4544 
z
" transform="scale(0.015625)"/>
     </defs>
     <use xlink:href="#DejaVuSans-Bold-31"/>
     <use xlink:href="#DejaVuSans-Bold-33" transform="translate(69.580078 0)"/>
     <use xlink:href="#DejaVuSans-Bold-36" transform="translate(139.160156 0)"/>
    </g>
   </g>
   <g id="text_22">
    <!-- 296 -->
    <g style="fill: #cf222e" transform="translate(817.012614 293.208397) scale(0.09 -0.09)">
     <defs>
      <path id="DejaVuSans-Bold-32" d="M 1844 884 
L 3897 884 
L 3897 0 
L 506 0 
L 506 884 
L 2209 2388 
Q 2438 2594 2547 2791 
Q 2656 2988 2656 3200 
Q 2656 3528 2436 3728 
Q 2216 3928 1850 3928 
Q 1569 3928 1234 3808 
Q 900 3688 519 3450 
L 519 4475 
Q 925 4609 1322 4679 
Q 1719 4750 2100 4750 
Q 2938 4750 3402 4381 
Q 3866 4013 3866 3353 
Q 3866 2972 3669 2642 
Q 3472 2313 2841 1759 
L 1844 884 
z
" transform="scale(0.015625)"/>
     </defs>
     <use xlink:href="#DejaVuSans-Bold-32"/>
     <use xlink:href="#DejaVuSans-Bold-39" transform="translate(69.580078 0)"/>
     <use xlink:href="#DejaVuSans-Bold-36" transform="translate(139.160156 0)"/>
    </g>
   </g>
   <g id="text_23">
    <!-- 701 -->
    <g style="fill: #9467bd" transform="translate(817.012614 68.114797) scale(0.09 -0.09)">
     <defs>
      <path id="DejaVuSans-Bold-37" d="M 428 4666 
L 3944 4666 
L 3944 3988 
L 2125 0 
L 953 0 
L 2675 3781 
L 428 3781 
L 428 4666 
z
" transform="scale(0.015625)"/>
      <path id="DejaVuSans-Bold-30" d="M 2944 2338 
Q 2944 3213 2780 3570 
Q 2616 3928 2228 3928 
Q 1841 3928 1675 3570 
Q 1509 3213 1509 2338 
Q 1509 1453 1675 1090 
Q 1841 728 2228 728 
Q 2613 728 2778 1090 
Q 2944 1453 2944 2338 
z
M 4147 2328 
Q 4147 1169 3647 539 
Q 3147 -91 2228 -91 
Q 1306 -91 806 539 
Q 306 1169 306 2328 
Q 306 3491 806 4120 
Q 1306 4750 2228 4750 
Q 3147 4750 3647 4120 
Q 4147 3491 4147 2328 
z
" transform="scale(0.015625)"/>
     </defs>
     <use xlink:href="#DejaVuSans-Bold-37"/>
     <use xlink:href="#DejaVuSans-Bold-30" transform="translate(69.580078 0)"/>
     <use xlink:href="#DejaVuSans-Bold-31" transform="translate(139.160156 0)"/>
    </g>
   </g>
   <g id="text_24">
    <!-- Erdős Problems Progress -->
    <g style="fill: #24292f" transform="translate(349.588281 18.397812) scale(0.14 -0.14)">
     <defs>
      <path id="DejaVuSans-Bold-45" d="M 588 4666 
L 3834 4666 
L 3834 3756 
L 1791 3756 
L 1791 2888 
L 3713 2888 
L 3713 1978 
L 1791 1978 
L 1791 909 
L 3903 909 
L 3903 0 
L 588 0 
L 588 4666 
z
" transform="scale(0.015625)"/>
      <path id="DejaVuSans-Bold-72" d="M 3138 2547 
Q 2991 2616 2845 2648 
Q 2700 2681 2553 2681 
Q 2122 2681 1889 2404 
Q 1656 2128 1656 1613 
L 1656 0 
L 538 0 
L 538 3500 
L 1656 3500 
L 1656 2925 
Q 1872 3269 2151 3426 
Q 2431 3584 2822 3584 
Q 2878 3584 2943 3579 
Q 3009 3575 3134 3559 
L 3138 2547 
z
" transform="scale(0.015625)"/>
      <path id="DejaVuSans-Bold-64" d="M 2919 2988 
L 2919 4863 
L 4044 4863 
L 4044 0 
L 2919 0 
L 2919 506 
Q 2688 197 2409 53 
Q 2131 -91 1766 -91 
Q 1119 -91 703 423 
Q 288 938 288 1747 
Q 288 2556 703 3070 
Q 1119 3584 1766 3584 
Q 2128 3584 2408 3439 
Q 2688 3294 2919 2988 
z
M 2181 722 
Q 2541 722 2730 984 
Q 2919 1247 2919 1747 
Q 2919 2247 2730 2509 
Q 2541 2772 2181 2772 
Q 1825 2772 1636 2509 
Q 1447 2247 1447 1747 
Q 1447 1247 1636 984 
Q 1825 722 2181 722 
z
" transform="scale(0.015625)"/>
      <path id="DejaVuSans-Bold-151" d="M 1881 5119 
L 2560 5119 
L 1785 3944 
L 1275 3944 
L 1881 5119 
z
M 3016 5119 
L 3738 5119 
L 2888 3944 
L 2344 3944 
L 3016 5119 
z
M 2203 2784 
Q 1831 2784 1636 2517 
Q 1441 2250 1441 1747 
Q 1441 1244 1636 976 
Q 1831 709 2203 709 
Q 2569 709 2762 976 
Q 2956 1244 2956 1747 
Q 2956 2250 2762 2517 
Q 2569 2784 2203 2784 
z
M 2203 3584 
Q 3106 3584 3614 3096 
Q 4122 2609 4122 1747 
Q 4122 884 3614 396 
Q 3106 -91 2203 -91 
Q 1297 -91 786 396 
Q 275 884 275 1747 
Q 275 2609 786 3096 
Q 1297 3584 2203 3584 
z
" transform="scale(0.015625)"/>
      <path id="DejaVuSans-Bold-73" d="M 3272 3391 
L 3272 2541 
Q 2913 2691 2578 2766 
Q 2244 2841 1947 2841 
Q 1628 2841 1473 2761 
Q 1319 2681 1319 2516 
Q 1319 2381 1436 2309 
Q 1553 2238 1856 2203 
L 2053 2175 
Q 2913 2066 3209 1816 
Q 3506 1566 3506 1031 
Q 3506 472 3093 190 
Q 2681 -91 1863 -91 
Q 1516 -91 1145 -36 
Q 775 19 384 128 
L 384 978 
Q 719 816 1070 734 
Q 1422 653 1784 653 
Q 2113 653 2278 743 
Q 2444 834 2444 1013 
Q 2444 1163 2330 1236 
Q 2216 1309 1875 1350 
L 1678 1375 
Q 931 1469 631 1722 
Q 331 1975 331 2491 
Q 331 3047 712 3315 
Q 1094 3584 1881 3584 
Q 2191 3584 2531 3537 
Q 2872 3491 3272 3391 
z
" transform="scale(0.015625)"/>
      <path id="DejaVuSans-Bold-20" transform="scale(0.015625)"/>
      <path id="DejaVuSans-Bold-50" d="M 588 4666 
L 2584 4666 
Q 3475 4666 3951 4270 
Q 4428 3875 4428 3144 
Q 4428 2409 3951 2014 
Q 3475 1619 2584 1619 
L 1791 1619 
L 1791 0 
L 588 0 
L 588 4666 
z
M 1791 3794 
L 1791 2491 
L 2456 2491 
Q 2806 2491 2997 2661 
Q 3188 2831 3188 3144 
Q 3188 3456 2997 3625 
Q 2806 3794 2456 3794 
L 1791 3794 
z
" transform="scale(0.015625)"/>
      <path id="DejaVuSans-Bold-6f" d="M 2203 2784 
Q 1831 2784 1636 2517 
Q 1441 2250 1441 1747 
Q 1441 1244 1636 976 
Q 1831 709 2203 709 
Q 2569 709 2762 976 
Q 2956 1244 2956 1747 
Q 2956 2250 2762 2517 
Q 2569 2784 2203 2784 
z
M 2203 3584 
Q 3106 3584 3614 3096 
Q 4122 2609 4122 1747 
Q 4122 884 3614 396 
Q 3106 -91 2203 -91 
Q 1297 -91 786 396 
Q 275 884 275 1747 
Q 275 2609 786 3096 
Q 1297 3584 2203 3584 
z
" transform="scale(0.015625)"/>
      <path id="DejaVuSans-Bold-62" d="M 2400 722 
Q 2759 722 2948 984 
Q 3138 1247 3138 1747 
Q 3138 2247 2948 2509 
Q 2759 2772 2400 2772 
Q 2041 2772 1848 2508 
Q 1656 2244 1656 1747 
Q 1656 1250 1848 986 
Q 2041 722 2400 722 
z
M 1656 2988 
Q 1888 3294 2169 3439 
Q 2450 3584 2816 3584 
Q 3463 3584 3878 3070 
Q 4294 2556 4294 1747 
Q 4294 938 3878 423 
Q 3463 -91 2816 -91 
Q 2450 -91 2169 54 
Q 1888 200 1656 506 
L 1656 0 
L 538 0 
L 538 4863 
L 1656 4863 
L 1656 2988 
z
" transform="scale(0.015625)"/>
      <path id="DejaVuSans-Bold-6c" d="M 538 4863 
L 1656 4863 
L 1656 0 
L 538 0 
L 538 4863 
z
" transform="scale(0.015625)"/>
      <path id="DejaVuSans-Bold-65" d="M 4031 1759 
L 4031 1441 
L 1416 1441 
Q 1456 1047 1700 850 
Q 1944 653 2381 653 
Q 2734 653 3104 758 
Q 3475 863 3866 1075 
L 3866 213 
Q 3469 63 3072 -14 
Q 2675 -91 2278 -91 
Q 1328 -91 801 392 
Q 275 875 275 1747 
Q 275 2603 792 3093 
Q 1309 3584 2216 3584 
Q 3041 3584 3536 3087 
Q 4031 2591 4031 1759 
z
M 2881 2131 
Q 2881 2450 2695 2645 
Q 2509 2841 2209 2841 
Q 1884 2841 1681 2658 
Q 1478 2475 1428 2131 
L 2881 2131 
z
" transform="scale(0.015625)"/>
      <path id="DejaVuSans-Bold-6d" d="M 3781 2919 
Q 3994 3244 4286 3414 
Q 4578 3584 4928 3584 
Q 5531 3584 5847 3212 
Q 6163 2841 6163 2131 
L 6163 0 
L 5038 0 
L 5038 1825 
Q 5041 1866 5042 1909 
Q 5044 1953 5044 2034 
Q 5044 2406 4934 2573 
Q 4825 2741 4581 2741 
Q 4263 2741 4089 2478 
Q 3916 2216 3909 1719 
L 3909 0 
L 2784 0 
L 2784 1825 
Q 2784 2406 2684 2573 
Q 2584 2741 2328 2741 
Q 2006 2741 1831 2477 
Q 1656 2213 1656 1722 
L 1656 0 
L 531 0 
L 531 3500 
L 1656 3500 
L 1656 2988 
Q 1863 3284 2130 3434 
Q 2397 3584 2719 3584 
Q 3081 3584 3359 3409 
Q 3638 3234 3781 2919 
z
" transform="scale(0.015625)"/>
      <path id="DejaVuSans-Bold-67" d="M 2919 594 
Q 2688 288 2409 144 
Q 2131 0 1766 0 
Q 1125 0 706 504 
Q 288 1009 288 1791 
Q 288 2575 706 3076 
Q 1125 3578 1766 3578 
Q 2131 3578 2409 3434 
Q 2688 3291 2919 2981 
L 2919 3500 
L 4044 3500 
L 4044 353 
Q 4044 -491 3511 -936 
Q 2978 -1381 1966 -1381 
Q 1638 -1381 1331 -1331 
Q 1025 -1281 716 -1178 
L 716 -306 
Q 1009 -475 1290 -558 
Q 1572 -641 1856 -641 
Q 2406 -641 2662 -400 
Q 2919 -159 2919 353 
L 2919 594 
z
M 2181 2772 
Q 1834 2772 1640 2515 
Q 1447 2259 1447 1791 
Q 1447 1309 1634 1061 
Q 1822 813 2181 813 
Q 2531 813 2725 1069 
Q 2919 1325 2919 1791 
Q 2919 2259 2725 2515 
Q 2531 2772 2181 2772 
z
" transform="scale(0.015625)"/>
     </defs>
     <use xlink:href="#DejaVuSans-Bold-45"/>
     <use xlink:href="#DejaVuSans-Bold-72" transform="translate(68.310547 0)"/>
     <use xlink:href="#DejaVuSans-Bold-64" transform="translate(117.626953 0)"/>
     <use xlink:href="#DejaVuSans-Bold-151" transform="translate(189.208984 0)"/>
     <use xlink:href="#DejaVuSans-Bold-73" transform="translate(257.910156 0)"/>
     <use xlink:href="#DejaVuSans-Bold-20" transform="translate(317.431641 0)"/>
     <use xlink:href="#DejaVuSans-Bold-50" transform="translate(352.246094 0)"/>
     <use xlink:href="#DejaVuSans-Bold-72" transform="translate(425.537109 0)"/>
     <use xlink:href="#DejaVuSans-Bold-6f" transform="translate(474.853516 0)"/>
     <use xlink:href="#DejaVuSans-Bold-62" transform="translate(543.554688 0)"/>
     <use xlink:href="#DejaVuSans-Bold-6c" transform="translate(615.136719 0)"/>
     <use xlink:href="#DejaVuSans-Bold-65" transform="translate(649.414062 0)"/>
     <use xlink:href="#DejaVuSans-Bold-6d" transform="translate(717.236328 0)"/>
     <use xlink:href="#DejaVuSans-Bold-73" transform="translate(821.435547 0)"/>
     <use xlink:href="#DejaVuSans-Bold-20" transform="translate(880.957031 0)"/>
     <use xlink:href="#DejaVuSans-Bold-50" transform="translate(915.771484 0)"/>
     <use xlink:href="#DejaVuSans-Bold-72" transform="translate(989.0625 0)"/>
     <use xlink:href="#DejaVuSans-Bold-6f" transform="translate(1038.378906 0)"/>
     <use xlink:href="#DejaVuSans-Bold-67" transform="translate(1107.080078 0)"/>
     <use xlink:href="#DejaVuSans-Bold-72" transform="translate(1178.662109 0)"/>
     <use xlink:href="#DejaVuSans-Bold-65" transform="translate(1227.978516 0)"/>
     <use xlink:href="#DejaVuSans-Bold-73" transform="translate(1295.800781 0)"/>
     <use xlink:href="#DejaVuSans-Bold-73" transform="translate(1355.322266 0)"/>
    </g>
   </g>
   <g id="legend_1">
    <g id="patch_7">
     <path d="M 55.90125 119.788437 
L 213.771563 119.788437 
Q 215.771563 119.788437 215.771563 117.788437 
L 215.771563 45.397812 
Q 215.771563 43.397812 213.771563 43.397812 
L 55.90125 43.397812 
Q 53.90125 43.397812 53.90125 45.397812 
L 53.90125 117.788437 
Q 53.90125 119.788437 55.90125 119.788437 
z
" style="fill: #f6f8fa; opacity: 0.8; stroke: #d0d7de; stroke-linejoin: miter"/>
    </g>
    <g id="line2d_38">
     <path d="M 57.90125 51.49625 
L 67.90125 51.49625 
L 77.90125 51.49625 
" style="fill: none; stroke: #1a7f37; stroke-width: 2; stroke-linecap: square"/>
    </g>
    <g id="text_25">
     <!-- Solved -->
     <g style="fill: #24292f" transform="translate(85.90125 54.99625) scale(0.1 -0.1)">
      <defs>
       <path id="DejaVuSans-6c" d="M 603 4863 
L 1178 4863 
L 1178 0 
L 603 0 
L 603 4863 
z
" transform="scale(0.015625)"/>
       <path id="DejaVuSans-64" d="M 2906 2969 
L 2906 4863 
L 3481 4863 
L 3481 0 
L 2906 0 
L 2906 525 
Q 2725 213 2448 61 
Q 2172 -91 1784 -91 
Q 1150 -91 751 415 
Q 353 922 353 1747 
Q 353 2572 751 3078 
Q 1150 3584 1784 3584 
Q 2172 3584 2448 3432 
Q 2725 3281 2906 2969 
z
M 947 1747 
Q 947 1113 1208 752 
Q 1469 391 1925 391 
Q 2381 391 2643 752 
Q 2906 1113 2906 1747 
Q 2906 2381 2643 2742 
Q 2381 3103 1925 3103 
Q 1469 3103 1208 2742 
Q 947 2381 947 1747 
z
" transform="scale(0.015625)"/>
      </defs>
      <use xlink:href="#DejaVuSans-53"/>
      <use xlink:href="#DejaVuSans-6f" transform="translate(63.476562 0)"/>
      <use xlink:href="#DejaVuSans-6c" transform="translate(124.658203 0)"/>
      <use xlink:href="#DejaVuSans-76" transform="translate(152.441406 0)"/>
      <use xlink:href="#DejaVuSans-65" transform="translate(211.621094 0)"/>
      <use xlink:href="#DejaVuSans-64" transform="translate(273.144531 0)"/>
     </g>
    </g>
    <g id="line2d_39">
     <path d="M 57.90125 66.174375 
L 67.90125 66.174375 
L 77.90125 66.174375 
" style="fill: none; stroke: #0969da; stroke-width: 2; stroke-linecap: square"/>
    </g>
    <g id="text_26">
     <!-- Lean Formalized Problem -->
     <g style="fill: #24292f" transform="translate(85.90125 69.674375) scale(0.1 -0.1)">
      <defs>
       <path id="DejaVuSans-4c" d="M 628 4666 
L 1259 4666 
L 1259 531 
L 3531 531 
L 3531 0 
L 628 0 
L 628 4666 
z
" transform="scale(0.015625)"/>
       <path id="DejaVuSans-20" transform="scale(0.015625)"/>
       <path id="DejaVuSans-6d" d="M 3328 2828 
Q 3544 3216 3844 3400 
Q 4144 3584 4550 3584 
Q 5097 3584 5394 3201 
Q 5691 2819 5691 2113 
L 5691 0 
L 5113 0 
L 5113 2094 
Q 5113 2597 4934 2840 
Q 4756 3084 4391 3084 
Q 3944 3084 3684 2787 
Q 3425 2491 3425 1978 
L 3425 0 
L 2847 0 
L 2847 2094 
Q 2847 2600 2669 2842 
Q 2491 3084 2119 3084 
Q 1678 3084 1418 2786 
Q 1159 2488 1159 1978 
L 1159 0 
L 581 0 
L 581 3500 
L 1159 3500 
L 1159 2956 
Q 1356 3278 1631 3431 
Q 1906 3584 2284 3584 
Q 2666 3584 2933 3390 
Q 3200 3197 3328 2828 
z
" transform="scale(0.015625)"/>
       <path id="DejaVuSans-69" d="M 603 3500 
L 1178 3500 
L 1178 0 
L 603 0 
L 603 3500 
z
M 603 4863 
L 1178 4863 
L 1178 4134 
L 603 4134 
L 603 4863 
z
" transform="scale(0.015625)"/>
       <path id="DejaVuSans-7a" d="M 353 3500 
L 3084 3500 
L 3084 2975 
L 922 459 
L 3084 459 
L 3084 0 
L 275 0 
L 275 525 
L 2438 3041 
L 353 3041 
L 353 3500 
z
" transform="scale(0.015625)"/>
       <path id="DejaVuSans-50" d="M 1259 4147 
L 1259 2394 
L 2053 2394 
Q 2494 2394 2734 2622 
Q 2975 2850 2975 3272 
Q 2975 3691 2734 3919 
Q 2494 4147 2053 4147 
L 1259 4147 
z
M 628 4666 
L 2053 4666 
Q 2838 4666 3239 4311 
Q 3641 3956 3641 3272 
Q 3641 2581 3239 2228 
Q 2838 1875 2053 1875 
L 1259 1875 
L 1259 0 
L 628 0 
L 628 4666 
z
" transform="scale(0.015625)"/>
      </defs>
      <use xlink:href="#DejaVuSans-4c"/>
      <use xlink:href="#DejaVuSans-65" transform="translate(53.962891 0)"/>
      <use xlink:href="#DejaVuSans-61" transform="translate(115.486328 0)"/>
      <use xlink:href="#DejaVuSans-6e" transform="translate(176.765625 0)"/>
      <use xlink:href="#DejaVuSans-20" transform="translate(240.144531 0)"/>
      <use xlink:href="#DejaVuSans-46" transform="translate(271.931641 0)"/>
      <use xlink:href="#DejaVuSans-6f" transform="translate(325.826172 0)"/>
      <use xlink:href="#DejaVuSans-72" transform="translate(387.007812 0)"/>
      <use xlink:href="#DejaVuSans-6d" transform="translate(426.371094 0)"/>
      <use xlink:href="#DejaVuSans-61" transform="translate(523.783203 0)"/>
      <use xlink:href="#DejaVuSans-6c" transform="translate(585.0625 0)"/>
      <use xlink:href="#DejaVuSans-69" transform="translate(612.845703 0)"/>
      <use xlink:href="#DejaVuSans-7a" transform="translate(640.628906 0)"/>
      <use xlink:href="#DejaVuSans-65" transform="translate(693.119141 0)"/>
      <use xlink:href="#DejaVuSans-64" transform="translate(754.642578 0)"/>
      <use xlink:href="#DejaVuSans-20" transform="translate(818.119141 0)"/>
      <use xlink:href="#DejaVuSans-50" transform="translate(849.90625 0)"/>
      <use xlink:href="#DejaVuSans-72" transform="translate(908.458984 0)"/>
      <use xlink:href="#DejaVuSans-6f" transform="translate(947.322266 0)"/>
      <use xlink:href="#DejaVuSans-62" transform="translate(1008.503906 0)"/>
      <use xlink:href="#DejaVuSans-6c" transform="translate(1071.980469 0)"/>
      <use xlink:href="#DejaVuSans-65" transform="translate(1099.763672 0)"/>
      <use xlink:href="#DejaVuSans-6d" transform="translate(1161.287109 0)"/>
     </g>
    </g>
    <g id="line2d_40">
     <path d="M 57.90125 80.8525 
L 67.90125 80.8525 
L 77.90125 80.8525 
" style="fill: none; stroke: #bf8700; stroke-width: 2; stroke-linecap: square"/>
    </g>
    <g id="text_27">
     <!-- Lean Formalized Solution -->
     <g style="fill: #24292f" transform="translate(85.90125 84.3525) scale(0.1 -0.1)">
      <use xlink:href="#DejaVuSans-4c"/>
      <use xlink:href="#DejaVuSans-65" transform="translate(53.962891 0)"/>
      <use xlink:href="#DejaVuSans-61" transform="translate(115.486328 0)"/>
      <use xlink:href="#DejaVuSans-6e" transform="translate(176.765625 0)"/>
      <use xlink:href="#DejaVuSans-20" transform="translate(240.144531 0)"/>
      <use xlink:href="#DejaVuSans-46" transform="translate(271.931641 0)"/>
      <use xlink:href="#DejaVuSans-6f" transform="translate(325.826172 0)"/>
      <use xlink:href="#DejaVuSans-72" transform="translate(387.007812 0)"/>
      <use xlink:href="#DejaVuSans-6d" transform="translate(426.371094 0)"/>
      <use xlink:href="#DejaVuSans-61" transform="translate(523.783203 0)"/>
      <use xlink:href="#DejaVuSans-6c" transform="translate(585.0625 0)"/>
      <use xlink:href="#DejaVuSans-69" transform="translate(612.845703 0)"/>
      <use xlink:href="#DejaVuSans-7a" transform="translate(640.628906 0)"/>
      <use xlink:href="#DejaVuSans-65" transform="translate(693.119141 0)"/>
      <use xlink:href="#DejaVuSans-64" transform="translate(754.642578 0)"/>
      <use xlink:href="#DejaVuSans-20" transform="translate(818.119141 0)"/>
      <use xlink:href="#DejaVuSans-53" transform="translate(849.90625 0)"/>
      <use xlink:href="#DejaVuSans-6f" transform="translate(913.382812 0)"/>
      <use xlink:href="#DejaVuSans-6c" transform="translate(974.564453 0)"/>
      <use xlink:href="#DejaVuSans-75" transform="translate(1002.347656 0)"/>
      <use xlink:href="#DejaVuSans-74" transform="translate(1065.726562 0)"/>
      <use xlink:href="#DejaVuSans-69" transform="translate(1104.935547 0)"/>
      <use xlink:href="#DejaVuSans-6f" transform="translate(1132.71875 0)"/>
      <use xlink:href="#DejaVuSans-6e" transform="translate(1193.900391 0)"/>
     </g>
    </g>
    <g id="line2d_41">
     <path d="M 57.90125 95.530625 
L 67.90125 95.530625 
L 77.90125 95.530625 
" style="fill: none; stroke: #cf222e; stroke-width: 2; stroke-linecap: square"/>
    </g>
    <g id="text_28">
     <!-- OEIS Linked -->
     <g style="fill: #24292f" transform="translate(85.90125 99.030625) scale(0.1 -0.1)">
      <defs>
       <path id="DejaVuSans-45" d="M 628 4666 
L 3578 4666 
L 3578 4134 
L 1259 4134 
L 1259 2753 
L 3481 2753 
L 3481 2222 
L 1259 2222 
L 1259 531 
L 3634 531 
L 3634 0 
L 628 0 
L 628 4666 
z
" transform="scale(0.015625)"/>
       <path id="DejaVuSans-49" d="M 628 4666 
L 1259 4666 
L 1259 0 
L 628 0 
L 628 4666 
z
" transform="scale(0.015625)"/>
       <path id="DejaVuSans-6b" d="M 581 4863 
L 1159 4863 
L 1159 1991 
L 2875 3500 
L 3609 3500 
L 1753 1863 
L 3688 0 
L 2938 0 
L 1159 1709 
L 1159 0 
L 581 0 
L 581 4863 
z
" transform="scale(0.015625)"/>
      </defs>
      <use xlink:href="#DejaVuSans-4f"/>
      <use xlink:href="#DejaVuSans-45" transform="translate(78.710938 0)"/>
      <use xlink:href="#DejaVuSans-49" transform="translate(141.894531 0)"/>
      <use xlink:href="#DejaVuSans-53" transform="translate(171.386719 0)"/>
      <use xlink:href="#DejaVuSans-20" transform="translate(234.863281 0)"/>
      <use xlink:href="#DejaVuSans-4c" transform="translate(266.650391 0)"/>
      <use xlink:href="#DejaVuSans-69" transform="translate(322.363281 0)"/>
      <use xlink:href="#DejaVuSans-6e" transform="translate(350.146484 0)"/>
      <use xlink:href="#DejaVuSans-6b" transform="translate(413.525391 0)"/>
      <use xlink:href="#DejaVuSans-65" transform="translate(467.810547 0)"/>
      <use xlink:href="#DejaVuSans-64" transform="translate(529.333984 0)"/>
     </g>
    </g>
    <g id="line2d_42">
     <path d="M 57.90125 110.20875 
L 67.90125 110.20875 
L 77.90125 110.20875 
" style="fill: none; stroke: #9467bd; stroke-width: 2; stroke-linecap: square"/>
    </g>
    <g id="text_29">
     <!-- Open Problems -->
     <g style="fill: #24292f" transform="translate(85.90125 113.70875) scale(0.1 -0.1)">
      <defs>
       <path id="DejaVuSans-73" d="M 2834 3397 
L 2834 2853 
Q 2591 2978 2328 3040 
Q 2066 3103 1784 3103 
Q 1356 3103 1142 2972 
Q 928 2841 928 2578 
Q 928 2378 1081 2264 
Q 1234 2150 1697 2047 
L 1894 2003 
Q 2506 1872 2764 1633 
Q 3022 1394 3022 966 
Q 3022 478 2636 193 
Q 2250 -91 1575 -91 
Q 1294 -91 989 -36 
Q 684 19 347 128 
L 347 722 
Q 666 556 975 473 
Q 1284 391 1588 391 
Q 1994 391 2212 530 
Q 2431 669 2431 922 
Q 2431 1156 2273 1281 
Q 2116 1406 1581 1522 
L 1381 1569 
Q 847 1681 609 1914 
Q 372 2147 372 2553 
Q 372 3047 722 3315 
Q 1072 3584 1716 3584 
Q 2034 3584 2315 3537 
Q 2597 3491 2834 3397 
z
" transform="scale(0.015625)"/>
      </defs>
      <use xlink:href="#DejaVuSans-4f"/>
      <use xlink:href="#DejaVuSans-70" transform="translate(78.710938 0)"/>
      <use xlink:href="#DejaVuSans-65" transform="translate(142.1875 0)"/>
      <use xlink:href="#DejaVuSans-6e" transform="translate(203.710938 0)"/>
      <use xlink:href="#DejaVuSans-20" transform="translate(267.089844 0)"/>
      <use xlink:href="#DejaVuSans-50" transform="translate(298.876953 0)"/>
      <use xlink:href="#DejaVuSans-72" transform="translate(357.429688 0)"/>
      <use xlink:href="#DejaVuSans-6f" transform="translate(396.292969 0)"/>
      <use xlink:href="#DejaVuSans-62" transform="translate(457.474609 0)"/>
      <use xlink:href="#DejaVuSans-6c" transform="translate(520.951172 0)"/>
      <use xlink:href="#DejaVuSans-65" transform="translate(548.734375 0)"/>
      <use xlink:href="#DejaVuSans-6d" transform="translate(610.257812 0)"/>
      <use xlink:href="#DejaVuSans-73" transform="translate(707.669922 0)"/>
     </g>
    </g>
   </g>
  </g>
 </g>
 <defs>
  <clipPath id="p60ebf17740">
   <rect x="48.90125" y="38.397812" width="799.45" height="416.84"/>
  </clipPath>
 </defs>
</svg>
