<?xml version="1.0" encoding="utf-8" standalone="no"?>
<!DOCTYPE svg PUBLIC "-//W3C//DTD SVG 1.1//EN"
  "http://www.w3.org/Graphics/SVG/1.1/DTD/svg11.dtd">
<svg xmlns:xlink="http://www.w3.org/1999/xlink" width="855.55125pt" height="494.729687pt" viewBox="0 0 855.55125 494.729687" xmlns="http://www.w3.org/2000/svg" version="1.1">
 <metadata>
  <rdf:RDF xmlns:dc="http://purl.org/dc/elements/1.1/" xmlns:cc="http://creativecommons.org/ns#" xmlns:rdf="http://www.w3.org/1999/02/22-rdf-syntax-ns#">
   <cc:Work>
    <dc:type rdf:resource="http://purl.org/dc/dcmitype/StillImage"/>
    <dc:date>2026-07-21T10:53:15.793819</dc:date>
    <dc:format>image/svg+xml</dc:format>
    <dc:creator>
     <cc:Agent>
      <dc:title>Matplotlib v3.10.7, https://matplotlib.org/</dc:title>
     </cc:Agent>
    </dc:creator>
   </cc:Work>
  </rdf:RDF>
 </metadata>
 <defs>
  <style type="text/css">*{stroke-linejoin: round; stroke-linecap: butt}</style>
 </defs>
 <g id="figure_1">
  <g id="patch_1">
   <path d="M 0 494.729687 
L 855.55125 494.729687 
L 855.55125 0 
L 0 0 
z
" style="fill: #0d1117"/>
  </g>
  <g id="axes_1">
   <g id="patch_2">
    <path d="M 48.90125 455.237812 
L 848.35125 455.237812 
L 848.35125 38.397812 
L 48.90125 38.397812 
z
" style="fill: #0d1117"/>
   </g>
   <g id="matplotlib.axis_1">
    <g id="xtick_1">
     <g id="line2d_1">
      <path d="M 85.896152 455.237812 
L 85.896152 38.397812 
" clip-path="url(#p5b801d791b)" style="fill: none; stroke: #30363d; stroke-opacity: 0.25; stroke-width: 0.5; stroke-linecap: square"/>
     </g>
     <g id="line2d_2">
      <defs>
       <path id="m7f8525f8d5" d="M 0 0 
L 0 3.5 
" style="stroke: #c9d1d9; stroke-width: 0.8"/>
      </defs>
      <g>
       <use xlink:href="#m7f8525f8d5" x="85.896152" y="455.237812" style="fill: #c9d1d9; stroke: #c9d1d9; stroke-width: 0.8"/>
      </g>
     </g>
     <g id="text_1">
      <!-- Sep -->
      <g style="fill: #c9d1d9" transform="translate(76.471152 469.83625) scale(0.1 -0.1)">
       <defs>
        <path id="DejaVuSans-53" d="M 3425 4513 
L 3425 3897 
Q 3066 4069 2747 4153 
Q 2428 4238 2131 4238 
Q 1616 4238 1336 4038 
Q 1056 3838 1056 3469 
Q 1056 3159 1242 3001 
Q 1428 2844 1947 2747 
L 2328 2669 
Q 3034 2534 3370 2195 
Q 3706 1856 3706 1288 
Q 3706 609 3251 259 
Q 2797 -91 1919 -91 
Q 1588 -91 1214 -16 
Q 841 59 441 206 
L 441 856 
Q 825 641 1194 531 
Q 1563 422 1919 422 
Q 2459 422 2753 634 
Q 3047 847 3047 1241 
Q 3047 1584 2836 1778 
Q 2625 1972 2144 2069 
L 1759 2144 
Q 1053 2284 737 2584 
Q 422 2884 422 3419 
Q 422 4038 858 4394 
Q 1294 4750 2059 4750 
Q 2388 4750 2728 4690 
Q 3069 4631 3425 4513 
z
" transform="scale(0.015625)"/>
        <path id="DejaVuSans-65" d="M 3597 1894 
L 3597 1613 
L 953 1613 
Q 991 1019 1311 708 
Q 1631 397 2203 397 
Q 2534 397 2845 478 
Q 3156 559 3463 722 
L 3463 178 
Q 3153 47 2828 -22 
Q 2503 -91 2169 -91 
Q 1331 -91 842 396 
Q 353 884 353 1716 
Q 353 2575 817 3079 
Q 1281 3584 2069 3584 
Q 2775 3584 3186 3129 
Q 3597 2675 3597 1894 
z
M 3022 2063 
Q 3016 2534 2758 2815 
Q 2500 3097 2075 3097 
Q 1594 3097 1305 2825 
Q 1016 2553 972 2059 
L 3022 2063 
z
" transform="scale(0.015625)"/>
        <path id="DejaVuSans-70" d="M 1159 525 
L 1159 -1331 
L 581 -1331 
L 581 3500 
L 1159 3500 
L 1159 2969 
Q 1341 3281 1617 3432 
Q 1894 3584 2278 3584 
Q 2916 3584 3314 3078 
Q 3713 2572 3713 1747 
Q 3713 922 3314 415 
Q 2916 -91 2278 -91 
Q 1894 -91 1617 61 
Q 1341 213 1159 525 
z
M 3116 1747 
Q 3116 2381 2855 2742 
Q 2594 3103 2138 3103 
Q 1681 3103 1420 2742 
Q 1159 2381 1159 1747 
Q 1159 1113 1420 752 
Q 1681 391 2138 391 
Q 2594 391 2855 752 
Q 3116 1113 3116 1747 
z
" transform="scale(0.015625)"/>
       </defs>
       <use xlink:href="#DejaVuSans-53"/>
       <use xlink:href="#DejaVuSans-65" transform="translate(63.476562 0)"/>
       <use xlink:href="#DejaVuSans-70" transform="translate(125 0)"/>
      </g>
     </g>
    </g>
    <g id="xtick_2">
     <g id="line2d_3">
      <path d="M 222.834179 455.237812 
L 222.834179 38.397812 
" clip-path="url(#p5b801d791b)" style="fill: none; stroke: #30363d; stroke-opacity: 0.25; stroke-width: 0.5; stroke-linecap: square"/>
     </g>
     <g id="line2d_4">
      <g>
       <use xlink:href="#m7f8525f8d5" x="222.834179" y="455.237812" style="fill: #c9d1d9; stroke: #c9d1d9; stroke-width: 0.8"/>
      </g>
     </g>
     <g id="text_2">
      <!-- Nov -->
      <g style="fill: #c9d1d9" transform="translate(213.074804 469.83625) scale(0.1 -0.1)">
       <defs>
        <path id="DejaVuSans-4e" d="M 628 4666 
L 1478 4666 
L 3547 763 
L 3547 4666 
L 4159 4666 
L 4159 0 
L 3309 0 
L 1241 3903 
L 1241 0 
L 628 0 
L 628 4666 
z
" transform="scale(0.015625)"/>
        <path id="DejaVuSans-6f" d="M 1959 3097 
Q 1497 3097 1228 2736 
Q 959 2375 959 1747 
Q 959 1119 1226 758 
Q 1494 397 1959 397 
Q 2419 397 2687 759 
Q 2956 1122 2956 1747 
Q 2956 2369 2687 2733 
Q 2419 3097 1959 3097 
z
M 1959 3584 
Q 2709 3584 3137 3096 
Q 3566 2609 3566 1747 
Q 3566 888 3137 398 
Q 2709 -91 1959 -91 
Q 1206 -91 779 398 
Q 353 888 353 1747 
Q 353 2609 779 3096 
Q 1206 3584 1959 3584 
z
" transform="scale(0.015625)"/>
        <path id="DejaVuSans-76" d="M 191 3500 
L 800 3500 
L 1894 563 
L 2988 3500 
L 3597 3500 
L 2284 0 
L 1503 0 
L 191 3500 
z
" transform="scale(0.015625)"/>
       </defs>
       <use xlink:href="#DejaVuSans-4e"/>
       <use xlink:href="#DejaVuSans-6f" transform="translate(74.804688 0)"/>
       <use xlink:href="#DejaVuSans-76" transform="translate(135.986328 0)"/>
      </g>
     </g>
    </g>
    <g id="xtick_3">
     <g id="line2d_5">
      <path d="M 359.772206 455.237812 
L 359.772206 38.397812 
" clip-path="url(#p5b801d791b)" style="fill: none; stroke: #30363d; stroke-opacity: 0.25; stroke-width: 0.5; stroke-linecap: square"/>
     </g>
     <g id="line2d_6">
      <g>
       <use xlink:href="#m7f8525f8d5" x="359.772206" y="455.237812" style="fill: #c9d1d9; stroke: #c9d1d9; stroke-width: 0.8"/>
      </g>
     </g>
     <g id="text_3">
      <!-- 2026 -->
      <g style="fill: #c9d1d9" transform="translate(347.047206 469.83625) scale(0.1 -0.1)">
       <defs>
        <path id="DejaVuSans-32" d="M 1228 531 
L 3431 531 
L 3431 0 
L 469 0 
L 469 531 
Q 828 903 1448 1529 
Q 2069 2156 2228 2338 
Q 2531 2678 2651 2914 
Q 2772 3150 2772 3378 
Q 2772 3750 2511 3984 
Q 2250 4219 1831 4219 
Q 1534 4219 1204 4116 
Q 875 4013 500 3803 
L 500 4441 
Q 881 4594 1212 4672 
Q 1544 4750 1819 4750 
Q 2544 4750 2975 4387 
Q 3406 4025 3406 3419 
Q 3406 3131 3298 2873 
Q 3191 2616 2906 2266 
Q 2828 2175 2409 1742 
Q 1991 1309 1228 531 
z
" transform="scale(0.015625)"/>
        <path id="DejaVuSans-30" d="M 2034 4250 
Q 1547 4250 1301 3770 
Q 1056 3291 1056 2328 
Q 1056 1369 1301 889 
Q 1547 409 2034 409 
Q 2525 409 2770 889 
Q 3016 1369 3016 2328 
Q 3016 3291 2770 3770 
Q 2525 4250 2034 4250 
z
M 2034 4750 
Q 2819 4750 3233 4129 
Q 3647 3509 3647 2328 
Q 3647 1150 3233 529 
Q 2819 -91 2034 -91 
Q 1250 -91 836 529 
Q 422 1150 422 2328 
Q 422 3509 836 4129 
Q 1250 4750 2034 4750 
z
" transform="scale(0.015625)"/>
        <path id="DejaVuSans-36" d="M 2113 2584 
Q 1688 2584 1439 2293 
Q 1191 2003 1191 1497 
Q 1191 994 1439 701 
Q 1688 409 2113 409 
Q 2538 409 2786 701 
Q 3034 994 3034 1497 
Q 3034 2003 2786 2293 
Q 2538 2584 2113 2584 
z
M 3366 4563 
L 3366 3988 
Q 3128 4100 2886 4159 
Q 2644 4219 2406 4219 
Q 1781 4219 1451 3797 
Q 1122 3375 1075 2522 
Q 1259 2794 1537 2939 
Q 1816 3084 2150 3084 
Q 2853 3084 3261 2657 
Q 3669 2231 3669 1497 
Q 3669 778 3244 343 
Q 2819 -91 2113 -91 
Q 1303 -91 875 529 
Q 447 1150 447 2328 
Q 447 3434 972 4092 
Q 1497 4750 2381 4750 
Q 2619 4750 2861 4703 
Q 3103 4656 3366 4563 
z
" transform="scale(0.015625)"/>
       </defs>
       <use xlink:href="#DejaVuSans-32"/>
       <use xlink:href="#DejaVuSans-30" transform="translate(63.623047 0)"/>
       <use xlink:href="#DejaVuSans-32" transform="translate(127.246094 0)"/>
       <use xlink:href="#DejaVuSans-36" transform="translate(190.869141 0)"/>
      </g>
     </g>
    </g>
    <g id="xtick_4">
     <g id="line2d_7">
      <path d="M 492.220462 455.237812 
L 492.220462 38.397812 
" clip-path="url(#p5b801d791b)" style="fill: none; stroke: #30363d; stroke-opacity: 0.25; stroke-width: 0.5; stroke-linecap: square"/>
     </g>
     <g id="line2d_8">
      <g>
       <use xlink:href="#m7f8525f8d5" x="492.220462" y="455.237812" style="fill: #c9d1d9; stroke: #c9d1d9; stroke-width: 0.8"/>
      </g>
     </g>
     <g id="text_4">
      <!-- Mar -->
      <g style="fill: #c9d1d9" transform="translate(482.786868 469.83625) scale(0.1 -0.1)">
       <defs>
        <path id="DejaVuSans-4d" d="M 628 4666 
L 1569 4666 
L 2759 1491 
L 3956 4666 
L 4897 4666 
L 4897 0 
L 4281 0 
L 4281 4097 
L 3078 897 
L 2444 897 
L 1241 4097 
L 1241 0 
L 628 0 
L 628 4666 
z
" transform="scale(0.015625)"/>
        <path id="DejaVuSans-61" d="M 2194 1759 
Q 1497 1759 1228 1600 
Q 959 1441 959 1056 
Q 959 750 1161 570 
Q 1363 391 1709 391 
Q 2188 391 2477 730 
Q 2766 1069 2766 1631 
L 2766 1759 
L 2194 1759 
z
M 3341 1997 
L 3341 0 
L 2766 0 
L 2766 531 
Q 2569 213 2275 61 
Q 1981 -91 1556 -91 
Q 1019 -91 701 211 
Q 384 513 384 1019 
Q 384 1609 779 1909 
Q 1175 2209 1959 2209 
L 2766 2209 
L 2766 2266 
Q 2766 2663 2505 2880 
Q 2244 3097 1772 3097 
Q 1472 3097 1187 3025 
Q 903 2953 641 2809 
L 641 3341 
Q 956 3463 1253 3523 
Q 1550 3584 1831 3584 
Q 2591 3584 2966 3190 
Q 3341 2797 3341 1997 
z
" transform="scale(0.015625)"/>
        <path id="DejaVuSans-72" d="M 2631 2963 
Q 2534 3019 2420 3045 
Q 2306 3072 2169 3072 
Q 1681 3072 1420 2755 
Q 1159 2438 1159 1844 
L 1159 0 
L 581 0 
L 581 3500 
L 1159 3500 
L 1159 2956 
Q 1341 3275 1631 3429 
Q 1922 3584 2338 3584 
Q 2397 3584 2469 3576 
Q 2541 3569 2628 3553 
L 2631 2963 
z
" transform="scale(0.015625)"/>
       </defs>
       <use xlink:href="#DejaVuSans-4d"/>
       <use xlink:href="#DejaVuSans-61" transform="translate(86.279297 0)"/>
       <use xlink:href="#DejaVuSans-72" transform="translate(147.558594 0)"/>
      </g>
     </g>
    </g>
    <g id="xtick_5">
     <g id="line2d_9">
      <path d="M 629.158489 455.237812 
L 629.158489 38.397812 
" clip-path="url(#p5b801d791b)" style="fill: none; stroke: #30363d; stroke-opacity: 0.25; stroke-width: 0.5; stroke-linecap: square"/>
     </g>
     <g id="line2d_10">
      <g>
       <use xlink:href="#m7f8525f8d5" x="629.158489" y="455.237812" style="fill: #c9d1d9; stroke: #c9d1d9; stroke-width: 0.8"/>
      </g>
     </g>
     <g id="text_5">
      <!-- May -->
      <g style="fill: #c9d1d9" transform="translate(618.820989 469.83625) scale(0.1 -0.1)">
       <defs>
        <path id="DejaVuSans-79" d="M 2059 -325 
Q 1816 -950 1584 -1140 
Q 1353 -1331 966 -1331 
L 506 -1331 
L 506 -850 
L 844 -850 
Q 1081 -850 1212 -737 
Q 1344 -625 1503 -206 
L 1606 56 
L 191 3500 
L 800 3500 
L 1894 763 
L 2988 3500 
L 3597 3500 
L 2059 -325 
z
" transform="scale(0.015625)"/>
       </defs>
       <use xlink:href="#DejaVuSans-4d"/>
       <use xlink:href="#DejaVuSans-61" transform="translate(86.279297 0)"/>
       <use xlink:href="#DejaVuSans-79" transform="translate(147.558594 0)"/>
      </g>
     </g>
    </g>
    <g id="xtick_6">
     <g id="line2d_11">
      <path d="M 766.096517 455.237812 
L 766.096517 38.397812 
" clip-path="url(#p5b801d791b)" style="fill: none; stroke: #30363d; stroke-opacity: 0.25; stroke-width: 0.5; stroke-linecap: square"/>
     </g>
     <g id="line2d_12">
      <g>
       <use xlink:href="#m7f8525f8d5" x="766.096517" y="455.237812" style="fill: #c9d1d9; stroke: #c9d1d9; stroke-width: 0.8"/>
      </g>
     </g>
     <g id="text_6">
      <!-- Jul -->
      <g style="fill: #c9d1d9" transform="translate(760.063704 469.83625) scale(0.1 -0.1)">
       <defs>
        <path id="DejaVuSans-4a" d="M 628 4666 
L 1259 4666 
L 1259 325 
Q 1259 -519 939 -900 
Q 619 -1281 -91 -1281 
L -331 -1281 
L -331 -750 
L -134 -750 
Q 284 -750 456 -515 
Q 628 -281 628 325 
L 628 4666 
z
" transform="scale(0.015625)"/>
        <path id="DejaVuSans-75" d="M 544 1381 
L 544 3500 
L 1119 3500 
L 1119 1403 
Q 1119 906 1312 657 
Q 1506 409 1894 409 
Q 2359 409 2629 706 
Q 2900 1003 2900 1516 
L 2900 3500 
L 3475 3500 
L 3475 0 
L 2900 0 
L 2900 538 
Q 2691 219 2414 64 
Q 2138 -91 1772 -91 
Q 1169 -91 856 284 
Q 544 659 544 1381 
z
M 1991 3584 
L 1991 3584 
z
" transform="scale(0.015625)"/>
        <path id="DejaVuSans-6c" d="M 603 4863 
L 1178 4863 
L 1178 0 
L 603 0 
L 603 4863 
z
" transform="scale(0.015625)"/>
       </defs>
       <use xlink:href="#DejaVuSans-4a"/>
       <use xlink:href="#DejaVuSans-75" transform="translate(29.492188 0)"/>
       <use xlink:href="#DejaVuSans-6c" transform="translate(92.871094 0)"/>
      </g>
     </g>
    </g>
    <g id="text_7">
     <!-- Date -->
     <g style="fill: #c9d1d9" transform="translate(434.285313 485.034062) scale(0.12 -0.12)">
      <defs>
       <path id="DejaVuSans-44" d="M 1259 4147 
L 1259 519 
L 2022 519 
Q 2988 519 3436 956 
Q 3884 1394 3884 2338 
Q 3884 3275 3436 3711 
Q 2988 4147 2022 4147 
L 1259 4147 
z
M 628 4666 
L 1925 4666 
Q 3281 4666 3915 4102 
Q 4550 3538 4550 2338 
Q 4550 1131 3912 565 
Q 3275 0 1925 0 
L 628 0 
L 628 4666 
z
" transform="scale(0.015625)"/>
       <path id="DejaVuSans-74" d="M 1172 4494 
L 1172 3500 
L 2356 3500 
L 2356 3053 
L 1172 3053 
L 1172 1153 
Q 1172 725 1289 603 
Q 1406 481 1766 481 
L 2356 481 
L 2356 0 
L 1766 0 
Q 1100 0 847 248 
Q 594 497 594 1153 
L 594 3053 
L 172 3053 
L 172 3500 
L 594 3500 
L 594 4494 
L 1172 4494 
z
" transform="scale(0.015625)"/>
      </defs>
      <use xlink:href="#DejaVuSans-44"/>
      <use xlink:href="#DejaVuSans-61" transform="translate(77.001953 0)"/>
      <use xlink:href="#DejaVuSans-74" transform="translate(138.28125 0)"/>
      <use xlink:href="#DejaVuSans-65" transform="translate(177.490234 0)"/>
     </g>
    </g>
   </g>
   <g id="matplotlib.axis_2">
    <g id="ytick_1">
     <g id="line2d_13">
      <path d="M 48.90125 455.237812 
L 848.35125 455.237812 
" clip-path="url(#p5b801d791b)" style="fill: none; stroke: #30363d; stroke-opacity: 0.25; stroke-width: 0.5; stroke-linecap: square"/>
     </g>
     <g id="line2d_14">
      <defs>
       <path id="m96584b1a9c" d="M 0 0 
L -3.5 0 
" style="stroke: #c9d1d9; stroke-width: 0.8"/>
      </defs>
      <g>
       <use xlink:href="#m96584b1a9c" x="48.90125" y="455.237812" style="fill: #c9d1d9; stroke: #c9d1d9; stroke-width: 0.8"/>
      </g>
     </g>
     <g id="text_8">
      <!-- 0 -->
      <g style="fill: #c9d1d9" transform="translate(35.53875 459.037031) scale(0.1 -0.1)">
       <use xlink:href="#DejaVuSans-30"/>
      </g>
     </g>
    </g>
    <g id="ytick_2">
     <g id="line2d_15">
      <path d="M 48.90125 399.659146 
L 848.35125 399.659146 
" clip-path="url(#p5b801d791b)" style="fill: none; stroke: #30363d; stroke-opacity: 0.25; stroke-width: 0.5; stroke-linecap: square"/>
     </g>
     <g id="line2d_16">
      <g>
       <use xlink:href="#m96584b1a9c" x="48.90125" y="399.659146" style="fill: #c9d1d9; stroke: #c9d1d9; stroke-width: 0.8"/>
      </g>
     </g>
     <g id="text_9">
      <!-- 100 -->
      <g style="fill: #c9d1d9" transform="translate(22.81375 403.458365) scale(0.1 -0.1)">
       <defs>
        <path id="DejaVuSans-31" d="M 794 531 
L 1825 531 
L 1825 4091 
L 703 3866 
L 703 4441 
L 1819 4666 
L 2450 4666 
L 2450 531 
L 3481 531 
L 3481 0 
L 794 0 
L 794 531 
z
" transform="scale(0.015625)"/>
       </defs>
       <use xlink:href="#DejaVuSans-31"/>
       <use xlink:href="#DejaVuSans-30" transform="translate(63.623047 0)"/>
       <use xlink:href="#DejaVuSans-30" transform="translate(127.246094 0)"/>
      </g>
     </g>
    </g>
    <g id="ytick_3">
     <g id="line2d_17">
      <path d="M 48.90125 344.080479 
L 848.35125 344.080479 
" clip-path="url(#p5b801d791b)" style="fill: none; stroke: #30363d; stroke-opacity: 0.25; stroke-width: 0.5; stroke-linecap: square"/>
     </g>
     <g id="line2d_18">
      <g>
       <use xlink:href="#m96584b1a9c" x="48.90125" y="344.080479" style="fill: #c9d1d9; stroke: #c9d1d9; stroke-width: 0.8"/>
      </g>
     </g>
     <g id="text_10">
      <!-- 200 -->
      <g style="fill: #c9d1d9" transform="translate(22.81375 347.879698) scale(0.1 -0.1)">
       <use xlink:href="#DejaVuSans-32"/>
       <use xlink:href="#DejaVuSans-30" transform="translate(63.623047 0)"/>
       <use xlink:href="#DejaVuSans-30" transform="translate(127.246094 0)"/>
      </g>
     </g>
    </g>
    <g id="ytick_4">
     <g id="line2d_19">
      <path d="M 48.90125 288.501812 
L 848.35125 288.501812 
" clip-path="url(#p5b801d791b)" style="fill: none; stroke: #30363d; stroke-opacity: 0.25; stroke-width: 0.5; stroke-linecap: square"/>
     </g>
     <g id="line2d_20">
      <g>
       <use xlink:href="#m96584b1a9c" x="48.90125" y="288.501812" style="fill: #c9d1d9; stroke: #c9d1d9; stroke-width: 0.8"/>
      </g>
     </g>
     <g id="text_11">
      <!-- 300 -->
      <g style="fill: #c9d1d9" transform="translate(22.81375 292.301031) scale(0.1 -0.1)">
       <defs>
        <path id="DejaVuSans-33" d="M 2597 2516 
Q 3050 2419 3304 2112 
Q 3559 1806 3559 1356 
Q 3559 666 3084 287 
Q 2609 -91 1734 -91 
Q 1441 -91 1130 -33 
Q 819 25 488 141 
L 488 750 
Q 750 597 1062 519 
Q 1375 441 1716 441 
Q 2309 441 2620 675 
Q 2931 909 2931 1356 
Q 2931 1769 2642 2001 
Q 2353 2234 1838 2234 
L 1294 2234 
L 1294 2753 
L 1863 2753 
Q 2328 2753 2575 2939 
Q 2822 3125 2822 3475 
Q 2822 3834 2567 4026 
Q 2313 4219 1838 4219 
Q 1578 4219 1281 4162 
Q 984 4106 628 3988 
L 628 4550 
Q 988 4650 1302 4700 
Q 1616 4750 1894 4750 
Q 2613 4750 3031 4423 
Q 3450 4097 3450 3541 
Q 3450 3153 3228 2886 
Q 3006 2619 2597 2516 
z
" transform="scale(0.015625)"/>
       </defs>
       <use xlink:href="#DejaVuSans-33"/>
       <use xlink:href="#DejaVuSans-30" transform="translate(63.623047 0)"/>
       <use xlink:href="#DejaVuSans-30" transform="translate(127.246094 0)"/>
      </g>
     </g>
    </g>
    <g id="ytick_5">
     <g id="line2d_21">
      <path d="M 48.90125 232.923146 
L 848.35125 232.923146 
" clip-path="url(#p5b801d791b)" style="fill: none; stroke: #30363d; stroke-opacity: 0.25; stroke-width: 0.5; stroke-linecap: square"/>
     </g>
     <g id="line2d_22">
      <g>
       <use xlink:href="#m96584b1a9c" x="48.90125" y="232.923146" style="fill: #c9d1d9; stroke: #c9d1d9; stroke-width: 0.8"/>
      </g>
     </g>
     <g id="text_12">
      <!-- 400 -->
      <g style="fill: #c9d1d9" transform="translate(22.81375 236.722365) scale(0.1 -0.1)">
       <defs>
        <path id="DejaVuSans-34" d="M 2419 4116 
L 825 1625 
L 2419 1625 
L 2419 4116 
z
M 2253 4666 
L 3047 4666 
L 3047 1625 
L 3713 1625 
L 3713 1100 
L 3047 1100 
L 3047 0 
L 2419 0 
L 2419 1100 
L 313 1100 
L 313 1709 
L 2253 4666 
z
" transform="scale(0.015625)"/>
       </defs>
       <use xlink:href="#DejaVuSans-34"/>
       <use xlink:href="#DejaVuSans-30" transform="translate(63.623047 0)"/>
       <use xlink:href="#DejaVuSans-30" transform="translate(127.246094 0)"/>
      </g>
     </g>
    </g>
    <g id="ytick_6">
     <g id="line2d_23">
      <path d="M 48.90125 177.344479 
L 848.35125 177.344479 
" clip-path="url(#p5b801d791b)" style="fill: none; stroke: #30363d; stroke-opacity: 0.25; stroke-width: 0.5; stroke-linecap: square"/>
     </g>
     <g id="line2d_24">
      <g>
       <use xlink:href="#m96584b1a9c" x="48.90125" y="177.344479" style="fill: #c9d1d9; stroke: #c9d1d9; stroke-width: 0.8"/>
      </g>
     </g>
     <g id="text_13">
      <!-- 500 -->
      <g style="fill: #c9d1d9" transform="translate(22.81375 181.143698) scale(0.1 -0.1)">
       <defs>
        <path id="DejaVuSans-35" d="M 691 4666 
L 3169 4666 
L 3169 4134 
L 1269 4134 
L 1269 2991 
Q 1406 3038 1543 3061 
Q 1681 3084 1819 3084 
Q 2600 3084 3056 2656 
Q 3513 2228 3513 1497 
Q 3513 744 3044 326 
Q 2575 -91 1722 -91 
Q 1428 -91 1123 -41 
Q 819 9 494 109 
L 494 744 
Q 775 591 1075 516 
Q 1375 441 1709 441 
Q 2250 441 2565 725 
Q 2881 1009 2881 1497 
Q 2881 1984 2565 2268 
Q 2250 2553 1709 2553 
Q 1456 2553 1204 2497 
Q 953 2441 691 2322 
L 691 4666 
z
" transform="scale(0.015625)"/>
       </defs>
       <use xlink:href="#DejaVuSans-35"/>
       <use xlink:href="#DejaVuSans-30" transform="translate(63.623047 0)"/>
       <use xlink:href="#DejaVuSans-30" transform="translate(127.246094 0)"/>
      </g>
     </g>
    </g>
    <g id="ytick_7">
     <g id="line2d_25">
      <path d="M 48.90125 121.765812 
L 848.35125 121.765812 
" clip-path="url(#p5b801d791b)" style="fill: none; stroke: #30363d; stroke-opacity: 0.25; stroke-width: 0.5; stroke-linecap: square"/>
     </g>
     <g id="line2d_26">
      <g>
       <use xlink:href="#m96584b1a9c" x="48.90125" y="121.765812" style="fill: #c9d1d9; stroke: #c9d1d9; stroke-width: 0.8"/>
      </g>
     </g>
     <g id="text_14">
      <!-- 600 -->
      <g style="fill: #c9d1d9" transform="translate(22.81375 125.565031) scale(0.1 -0.1)">
       <use xlink:href="#DejaVuSans-36"/>
       <use xlink:href="#DejaVuSans-30" transform="translate(63.623047 0)"/>
       <use xlink:href="#DejaVuSans-30" transform="translate(127.246094 0)"/>
      </g>
     </g>
    </g>
    <g id="ytick_8">
     <g id="line2d_27">
      <path d="M 48.90125 66.187146 
L 848.35125 66.187146 
" clip-path="url(#p5b801d791b)" style="fill: none; stroke: #30363d; stroke-opacity: 0.25; stroke-width: 0.5; stroke-linecap: square"/>
     </g>
     <g id="line2d_28">
      <g>
       <use xlink:href="#m96584b1a9c" x="48.90125" y="66.187146" style="fill: #c9d1d9; stroke: #c9d1d9; stroke-width: 0.8"/>
      </g>
     </g>
     <g id="text_15">
      <!-- 700 -->
      <g style="fill: #c9d1d9" transform="translate(22.81375 69.986365) scale(0.1 -0.1)">
       <defs>
        <path id="DejaVuSans-37" d="M 525 4666 
L 3525 4666 
L 3525 4397 
L 1831 0 
L 1172 0 
L 2766 4134 
L 525 4134 
L 525 4666 
z
" transform="scale(0.015625)"/>
       </defs>
       <use xlink:href="#DejaVuSans-37"/>
       <use xlink:href="#DejaVuSans-30" transform="translate(63.623047 0)"/>
       <use xlink:href="#DejaVuSans-30" transform="translate(127.246094 0)"/>
      </g>
     </g>
    </g>
    <g id="text_16">
     <!-- Count -->
     <g style="fill: #c9d1d9" transform="translate(16.318125 264.635937) rotate(-90) scale(0.12 -0.12)">
      <defs>
       <path id="DejaVuSans-43" d="M 4122 4306 
L 4122 3641 
Q 3803 3938 3442 4084 
Q 3081 4231 2675 4231 
Q 1875 4231 1450 3742 
Q 1025 3253 1025 2328 
Q 1025 1406 1450 917 
Q 1875 428 2675 428 
Q 3081 428 3442 575 
Q 3803 722 4122 1019 
L 4122 359 
Q 3791 134 3420 21 
Q 3050 -91 2638 -91 
Q 1578 -91 968 557 
Q 359 1206 359 2328 
Q 359 3453 968 4101 
Q 1578 4750 2638 4750 
Q 3056 4750 3426 4639 
Q 3797 4528 4122 4306 
z
" transform="scale(0.015625)"/>
       <path id="DejaVuSans-6e" d="M 3513 2113 
L 3513 0 
L 2938 0 
L 2938 2094 
Q 2938 2591 2744 2837 
Q 2550 3084 2163 3084 
Q 1697 3084 1428 2787 
Q 1159 2491 1159 1978 
L 1159 0 
L 581 0 
L 581 3500 
L 1159 3500 
L 1159 2956 
Q 1366 3272 1645 3428 
Q 1925 3584 2291 3584 
Q 2894 3584 3203 3211 
Q 3513 2838 3513 2113 
z
" transform="scale(0.015625)"/>
      </defs>
      <use xlink:href="#DejaVuSans-43"/>
      <use xlink:href="#DejaVuSans-6f" transform="translate(69.824219 0)"/>
      <use xlink:href="#DejaVuSans-75" transform="translate(131.005859 0)"/>
      <use xlink:href="#DejaVuSans-6e" transform="translate(194.384766 0)"/>
      <use xlink:href="#DejaVuSans-74" transform="translate(257.763672 0)"/>
     </g>
    </g>
   </g>
   <g id="line2d_29">
    <path d="M 85.239886 454.682026 
L 85.282887 454.682026 
L 85.386635 454.126239 
L 85.445096 454.126239 
L 85.588857 257.933546 
L 87.397263 257.933546 
L 87.405526 261.268266 
L 89.593354 261.268266 
L 89.749716 260.712479 
L 90.002967 260.712479 
L 90.249125 260.156692 
L 91.774426 259.600906 
L 91.80454 260.156692 
L 91.877655 259.600906 
L 96.601061 259.600906 
L 99.45061 260.712479 
L 99.874592 259.600906 
L 100.184174 259.600906 
L 100.964427 259.045119 
L 101.290871 256.821972 
L 101.926506 256.821972 
L 102.852781 260.712479 
L 102.912879 256.821972 
L 103.623655 256.266186 
L 105.473478 256.266186 
L 105.961402 255.710399 
L 106.686158 255.710399 
L 106.924027 254.598826 
L 111.397845 254.598826 
L 111.727329 253.487252 
L 111.744218 252.375679 
L 113.166732 252.375679 
L 115.264297 251.264106 
L 116.364629 251.264106 
L 116.381284 250.708319 
L 118.908235 250.708319 
L 119.535088 247.929386 
L 121.518928 247.929386 
L 121.532699 247.373599 
L 132.643194 247.373599 
L 134.720025 246.817812 
L 134.790931 247.373599 
L 136.944878 246.817812 
L 144.440432 246.817812 
L 148.073431 246.262026 
L 148.14361 245.706239 
L 148.316186 245.150452 
L 150.365683 245.150452 
L 151.237967 244.594666 
L 154.835162 244.594666 
L 154.971726 247.373599 
L 154.97843 245.150452 
L 155.153318 245.150452 
L 156.126491 242.927306 
L 160.273684 242.927306 
L 163.532379 242.371519 
L 167.154206 242.371519 
L 167.313141 241.815732 
L 176.724435 241.815732 
L 177.126098 241.259946 
L 179.411282 241.259946 
L 179.427391 240.148372 
L 183.781482 240.148372 
L 183.869797 236.257866 
L 191.750463 236.257866 
L 191.752827 235.702079 
L 191.981057 235.702079 
L 192.974315 235.146292 
L 193.983708 235.146292 
L 194.304748 234.590506 
L 194.336862 235.146292 
L 195.07201 234.590506 
L 195.075362 234.034719 
L 195.092536 234.590506 
L 195.517194 234.034719 
L 199.385542 234.034719 
L 200.588245 233.478932 
L 202.015358 233.478932 
L 204.439289 232.923146 
L 206.733983 232.923146 
L 208.506872 231.811572 
L 212.38673 231.811572 
L 214.643672 230.699999 
L 215.279567 231.255786 
L 218.429656 231.255786 
L 221.983097 229.032639 
L 227.282612 229.032639 
L 228.926186 228.476852 
L 258.216617 228.476852 
L 258.453162 227.921066 
L 269.134713 227.921066 
L 269.313186 227.365279 
L 287.488888 227.365279 
L 291.491124 226.809492 
L 291.514274 227.365279 
L 294.379284 225.697919 
L 298.583845 225.697919 
L 300.879683 225.142132 
L 300.88345 224.586346 
L 305.673735 224.586346 
L 307.393021 225.142132 
L 308.011066 224.586346 
L 316.027854 224.586346 
L 316.36903 225.142132 
L 316.994013 224.586346 
L 317.208784 222.363199 
L 320.882628 222.363199 
L 320.885797 221.807412 
L 332.127686 221.807412 
L 332.78234 221.251626 
L 334.942835 221.251626 
L 335.153605 220.695839 
L 345.6889 220.695839 
L 345.703217 220.140052 
L 348.338255 220.140052 
L 348.342178 219.584266 
L 348.981581 219.584266 
L 349.014969 219.028479 
L 350.007889 219.028479 
L 350.163888 218.472692 
L 352.289046 218.472692 
L 352.612086 217.361119 
L 353.781999 215.137972 
L 356.611049 215.137972 
L 356.92341 212.359039 
L 357.768568 212.359039 
L 358.234148 211.247466 
L 360.633265 211.247466 
L 361.420482 210.691679 
L 363.67389 210.691679 
L 363.975911 210.135892 
L 370.096368 210.135892 
L 370.24717 209.580106 
L 370.81325 209.580106 
L 371.692108 209.024319 
L 381.591534 209.024319 
L 381.680472 208.468532 
L 381.997874 208.468532 
L 382.660479 207.356959 
L 383.589456 207.356959 
L 383.812827 206.801172 
L 384.02804 206.801172 
L 384.109703 206.245386 
L 386.594043 206.245386 
L 387.016986 205.689599 
L 389.179403 205.689599 
L 389.318046 205.133812 
L 390.502535 205.133812 
L 390.643594 204.578026 
L 394.259549 204.578026 
L 394.338691 204.022239 
L 396.485571 204.022239 
L 397.202635 201.799092 
L 397.997647 201.799092 
L 397.998478 201.243306 
L 401.226541 201.243306 
L 401.818344 200.687519 
L 404.29003 200.687519 
L 404.776864 200.131732 
L 404.959988 200.131732 
L 405.435676 199.575946 
L 406.650772 199.575946 
L 406.791207 199.020159 
L 409.838665 199.020159 
L 410.624194 198.464372 
L 410.681407 197.908586 
L 410.935723 197.908586 
L 411.738426 195.685439 
L 414.227833 195.685439 
L 414.245761 195.129652 
L 416.614946 195.129652 
L 416.840708 194.573866 
L 417.110043 194.573866 
L 417.380962 194.018079 
L 417.437474 194.573866 
L 417.640345 194.018079 
L 418.541677 194.018079 
L 418.550303 193.462292 
L 418.789654 193.462292 
L 418.894467 192.906506 
L 419.618702 192.350719 
L 424.657639 192.350719 
L 425.44522 191.794932 
L 425.97243 191.794932 
L 426.400154 191.239146 
L 426.83284 191.794932 
L 428.61438 191.794932 
L 428.69121 190.683359 
L 431.248743 190.683359 
L 432.241066 189.015999 
L 443.012022 189.015999 
L 443.638018 188.460212 
L 460.263579 188.460212 
L 460.365716 187.904426 
L 484.795243 187.904426 
L 484.910579 186.792852 
L 484.918244 187.348639 
L 488.478804 187.348639 
L 489.282728 186.792852 
L 503.31012 186.792852 
L 506.196642 186.237066 
L 506.224703 185.681279 
L 506.463664 185.681279 
L 507.212167 185.125492 
L 529.725201 185.125492 
L 529.943714 184.569706 
L 549.963885 184.569706 
L 552.533603 184.013919 
L 554.105465 184.013919 
L 554.27604 183.458132 
L 555.368551 182.902346 
L 558.432326 182.902346 
L 559.722668 182.346559 
L 561.072873 182.346559 
L 561.178024 181.790772 
L 563.39885 181.790772 
L 563.664131 181.234986 
L 563.716642 180.679199 
L 567.670629 180.679199 
L 567.685958 180.123412 
L 571.052585 180.123412 
L 571.060016 179.567626 
L 572.200699 179.011839 
L 574.225721 179.011839 
L 575.682974 178.456052 
L 576.987112 178.456052 
L 578.909243 175.121332 
L 581.153298 175.121332 
L 581.163691 172.342399 
L 592.446866 172.342399 
L 592.448035 171.786612 
L 592.643189 171.230826 
L 593.723904 171.230826 
L 593.958968 170.675039 
L 597.503782 170.675039 
L 598.323244 170.119252 
L 598.458067 170.675039 
L 604.798362 170.675039 
L 604.799791 170.119252 
L 607.359714 170.119252 
L 608.406938 167.340319 
L 614.826921 167.340319 
L 614.895489 166.228746 
L 616.347026 164.561386 
L 617.803499 164.561386 
L 617.95864 164.005599 
L 624.081254 164.005599 
L 624.193836 163.449812 
L 630.341627 163.449812 
L 630.475541 162.894026 
L 632.16991 161.226666 
L 632.301199 160.670879 
L 648.992522 160.670879 
L 650.572802 157.891946 
L 654.343535 157.891946 
L 654.589147 157.336159 
L 657.422068 157.336159 
L 658.476489 156.224586 
L 673.40833 156.224586 
L 673.597639 155.668799 
L 675.783492 155.668799 
L 676.017646 155.113012 
L 690.417055 155.113012 
L 690.424434 153.445652 
L 690.87167 153.445652 
L 691.049858 152.889866 
L 693.514244 152.889866 
L 693.875608 152.334079 
L 693.877765 152.889866 
L 700.382113 152.889866 
L 701.95122 152.334079 
L 731.225205 152.334079 
L 731.22809 151.778292 
L 742.884736 151.778292 
L 744.343756 151.222506 
L 769.558162 151.222506 
L 769.718733 150.110932 
L 776.412052 150.110932 
L 777.927636 148.999359 
L 785.314635 148.999359 
L 796.813282 148.443572 
L 798.345391 147.887786 
L 800.587003 146.776212 
L 801.967062 146.776212 
L 803.160229 146.220426 
L 803.616611 146.220426 
L 807.135833 145.664639 
L 812.012614 145.664639 
L 812.012614 145.664639 
" clip-path="url(#p5b801d791b)" style="fill: none; stroke: #3fb950; stroke-width: 2; stroke-linecap: square"/>
   </g>
   <g id="line2d_30">
    <path d="M 85.239886 455.237812 
L 85.310169 453.570452 
L 85.386635 453.570452 
L 85.506129 372.981386 
L 86.505155 372.981386 
L 86.526954 370.758239 
L 87.619699 370.758239 
L 87.901245 369.090879 
L 88.284331 370.758239 
L 88.287163 369.090879 
L 88.604149 369.090879 
L 88.726656 367.979306 
L 91.857051 367.979306 
L 91.860039 367.423519 
L 91.877655 367.979306 
L 92.031731 367.423519 
L 92.076914 367.979306 
L 92.286255 367.423519 
L 93.295934 367.423519 
L 93.509952 366.311946 
L 94.750225 366.311946 
L 96.161645 365.756159 
L 96.211323 365.200372 
L 96.592798 364.644586 
L 96.601061 364.088799 
L 99.45061 367.979306 
L 99.874592 366.311946 
L 100.184174 363.533012 
L 101.926506 363.533012 
L 102.852781 367.979306 
L 102.912879 363.533012 
L 119.838927 363.533012 
L 120.358317 362.977226 
L 121.532699 362.977226 
L 124.740131 362.421439 
L 125.521424 361.865652 
L 136.653615 361.865652 
L 136.944878 361.309866 
L 138.441313 360.754079 
L 139.392427 360.754079 
L 140.446692 360.198292 
L 140.475091 359.086719 
L 141.199794 358.530932 
L 141.686862 357.975146 
L 148.396835 357.975146 
L 149.734413 357.419359 
L 150.138778 357.419359 
L 150.365683 356.863572 
L 151.237967 356.863572 
L 152.10456 356.307786 
L 154.835162 356.307786 
L 154.971726 358.530932 
L 154.97843 356.307786 
L 156.021756 356.307786 
L 156.126491 355.751999 
L 157.603283 355.751999 
L 159.056249 355.196212 
L 159.091507 354.640426 
L 163.532379 354.640426 
L 165.405482 354.084639 
L 165.410211 353.528852 
L 171.643302 353.528852 
L 174.243368 352.973066 
L 176.19408 352.973066 
L 176.724435 352.417279 
L 179.702052 352.417279 
L 181.40037 351.861492 
L 181.493466 351.305706 
L 183.149251 351.305706 
L 183.341417 350.749919 
L 183.869797 350.194132 
L 185.049323 350.194132 
L 185.794033 349.638346 
L 187.159438 349.638346 
L 188.050585 349.082559 
L 189.95167 349.082559 
L 190.599335 347.970986 
L 195.517194 347.970986 
L 196.917753 347.415199 
L 198.560053 347.415199 
L 198.930407 346.859412 
L 199.043665 346.303626 
L 199.385542 345.747839 
L 205.040992 345.747839 
L 206.076445 345.192052 
L 206.733983 344.636266 
L 222.815913 344.636266 
L 226.425918 344.080479 
L 226.469049 343.524692 
L 228.926186 343.524692 
L 231.026349 342.968906 
L 234.738361 342.968906 
L 235.052021 342.413119 
L 241.373739 342.413119 
L 246.322413 341.857332 
L 246.369909 341.301546 
L 247.016872 341.301546 
L 248.327662 340.745759 
L 248.400777 339.078399 
L 248.458458 338.522612 
L 251.196465 337.966826 
L 251.360414 337.411039 
L 251.42576 336.299466 
L 251.673737 335.743679 
L 260.583491 335.743679 
L 263.114599 335.187892 
L 264.725825 334.632106 
L 265.988053 334.632106 
L 268.914641 334.076319 
L 269.134713 331.853172 
L 269.313186 331.853172 
L 269.733972 330.741599 
L 275.285102 330.185812 
L 275.461783 329.630026 
L 275.513903 329.074239 
L 276.686674 329.074239 
L 277.794125 328.518452 
L 277.935834 327.406879 
L 278.007857 326.851092 
L 278.740901 326.295306 
L 278.79471 325.739519 
L 280.132184 325.183732 
L 281.890262 324.627946 
L 282.01529 324.072159 
L 282.01794 323.516372 
L 282.371562 322.960586 
L 282.434023 322.404799 
L 284.984281 321.849012 
L 285.441469 321.293226 
L 296.177609 321.293226 
L 297.958032 320.737439 
L 298.120058 320.181652 
L 305.396502 320.181652 
L 305.673735 319.070079 
L 308.705448 319.070079 
L 309.620758 318.514292 
L 309.665474 317.402719 
L 309.900512 316.846932 
L 311.456836 316.291146 
L 311.491886 315.735359 
L 311.679739 315.179572 
L 311.872244 312.956426 
L 312.086677 312.956426 
L 312.094576 312.400639 
L 313.393829 311.844852 
L 313.904619 311.289066 
L 314.028217 310.733279 
L 316.36903 310.177492 
L 318.094111 310.177492 
L 318.693136 309.621706 
L 325.179011 309.621706 
L 327.327736 309.065919 
L 327.336284 308.510132 
L 327.722722 307.954346 
L 332.78234 307.954346 
L 334.201971 307.398559 
L 334.786784 306.842772 
L 334.942835 305.731199 
L 339.035542 305.731199 
L 339.314386 305.175412 
L 341.561818 305.175412 
L 342.637778 304.619626 
L 345.703217 304.619626 
L 347.556417 304.063839 
L 351.404914 304.063839 
L 351.877925 303.508052 
L 353.781999 303.508052 
L 354.300271 302.952266 
L 354.525098 302.396479 
L 354.635835 301.840692 
L 356.203176 301.840692 
L 356.247736 300.729119 
L 356.819922 300.729119 
L 357.195602 299.061759 
L 358.558981 299.061759 
L 358.728308 298.505972 
L 358.859754 298.505972 
L 359.51233 297.950186 
L 360.595253 297.950186 
L 360.633265 297.394399 
L 361.420482 297.394399 
L 361.611687 296.838612 
L 362.35159 296.838612 
L 363.484452 295.727039 
L 363.975911 295.727039 
L 365.876658 294.615466 
L 365.879517 294.059679 
L 366.242414 293.503892 
L 367.168325 292.948106 
L 367.312294 292.392319 
L 368.235451 291.836532 
L 369.744513 291.836532 
L 370.24717 290.724959 
L 372.087613 290.724959 
L 372.139864 290.169172 
L 372.66419 290.169172 
L 372.704437 289.613386 
L 372.992167 289.057599 
L 373.993323 289.057599 
L 374.069478 288.501812 
L 374.240988 288.501812 
L 374.355077 287.390239 
L 375.762912 287.390239 
L 376.041704 286.834452 
L 376.275806 286.834452 
L 376.415721 286.278666 
L 376.773032 286.278666 
L 377.040548 285.722879 
L 377.096956 285.167092 
L 377.173422 285.167092 
L 378.518197 284.611306 
L 379.524524 284.611306 
L 379.600705 284.055519 
L 383.570411 284.055519 
L 383.589456 283.499732 
L 383.812827 283.499732 
L 384.338453 282.388159 
L 385.679174 282.388159 
L 385.803501 280.720799 
L 385.839772 279.609226 
L 386.074108 279.053439 
L 387.016986 279.053439 
L 387.461676 278.497652 
L 387.892699 278.497652 
L 388.03168 277.941866 
L 388.699819 277.386079 
L 389.318046 277.386079 
L 390.560917 276.830292 
L 390.643594 276.274506 
L 390.958241 276.274506 
L 391.021197 275.718719 
L 392.12605 275.718719 
L 392.156735 275.162932 
L 397.514867 275.162932 
L 397.634802 274.607146 
L 397.757049 274.607146 
L 397.827722 273.495572 
L 398.51766 273.495572 
L 398.664487 272.939786 
L 399.142357 272.383999 
L 399.262474 271.828212 
L 399.481948 271.828212 
L 399.66767 271.272426 
L 399.72821 270.716639 
L 402.420539 270.716639 
L 403.100111 270.160852 
L 403.234337 269.049279 
L 403.399741 268.493492 
L 403.675857 268.493492 
L 403.844145 267.937706 
L 407.707947 267.937706 
L 407.963017 266.270346 
L 408.490955 266.270346 
L 408.56846 265.714559 
L 410.631443 265.714559 
L 410.681407 264.602986 
L 413.159148 264.602986 
L 413.184818 264.047199 
L 414.378401 264.047199 
L 414.38643 263.491412 
L 414.967658 263.491412 
L 415.064053 262.935626 
L 416.752706 262.935626 
L 416.952823 262.379839 
L 417.110043 261.824052 
L 417.429185 261.824052 
L 417.437474 261.268266 
L 417.640345 261.268266 
L 418.027354 260.712479 
L 421.153253 260.712479 
L 421.380444 260.156692 
L 422.30794 260.156692 
L 422.309655 259.600906 
L 429.400948 259.600906 
L 430.604534 259.045119 
L 430.639428 258.489332 
L 431.248743 257.933546 
L 432.175252 257.933546 
L 432.463424 256.266186 
L 434.93906 256.266186 
L 435.383412 255.710399 
L 439.639679 255.710399 
L 439.652774 255.154612 
L 441.042914 255.154612 
L 441.637004 254.598826 
L 448.180014 254.598826 
L 448.261677 253.487252 
L 450.834929 253.487252 
L 451.346758 252.931466 
L 451.894858 252.931466 
L 452.564894 252.375679 
L 456.993841 252.375679 
L 457.417952 251.819892 
L 457.785449 251.819892 
L 457.965637 251.264106 
L 459.376537 250.708319 
L 460.067203 250.708319 
L 460.365716 250.152532 
L 462.347893 249.596746 
L 465.997469 249.596746 
L 466.283068 249.040959 
L 480.36944 249.040959 
L 480.884127 248.485172 
L 484.141628 248.485172 
L 484.259354 247.929386 
L 484.470956 247.929386 
L 484.534743 247.373599 
L 502.726501 247.373599 
L 503.31012 246.817812 
L 507.653688 246.817812 
L 508.597241 246.262026 
L 508.660482 245.706239 
L 510.920412 245.706239 
L 511.014183 245.150452 
L 518.334329 245.150452 
L 518.349321 244.594666 
L 524.528732 244.594666 
L 524.595247 244.038879 
L 524.996599 243.483092 
L 526.512988 243.483092 
L 526.516469 242.927306 
L 526.949597 242.371519 
L 529.101388 242.371519 
L 529.85358 241.815732 
L 534.708458 241.815732 
L 534.74265 240.704159 
L 565.516734 240.704159 
L 567.685958 240.148372 
L 570.415105 240.148372 
L 570.505784 239.592586 
L 582.60538 239.592586 
L 582.625699 239.036799 
L 595.261261 239.036799 
L 595.391511 238.481012 
L 596.143262 238.481012 
L 596.162853 237.925226 
L 596.332752 237.369439 
L 596.993668 236.257866 
L 597.090817 235.146292 
L 597.146965 234.034719 
L 597.316241 233.478932 
L 597.503782 232.367359 
L 598.458067 232.367359 
L 598.582289 231.255786 
L 598.940145 230.699999 
L 604.799791 230.699999 
L 605.431373 229.588426 
L 623.913615 229.588426 
L 624.071875 229.032639 
L 635.312334 229.032639 
L 635.579512 227.921066 
L 636.789282 227.921066 
L 636.951335 227.365279 
L 644.138944 227.365279 
L 644.318561 226.809492 
L 647.143739 226.809492 
L 647.89827 226.253706 
L 647.969228 225.697919 
L 652.208087 225.697919 
L 652.34013 224.586346 
L 652.886983 224.030559 
L 653.3985 224.030559 
L 654.343535 223.474772 
L 657.060262 223.474772 
L 657.101678 222.918986 
L 657.422068 222.363199 
L 659.638815 222.363199 
L 661.987864 221.807412 
L 673.597639 221.807412 
L 674.969929 221.251626 
L 675.47799 220.695839 
L 675.783492 219.584266 
L 677.417218 219.584266 
L 684.073746 218.472692 
L 685.744029 218.472692 
L 685.928037 217.361119 
L 686.154007 217.361119 
L 686.268641 216.805332 
L 695.623241 216.805332 
L 695.634206 216.249546 
L 711.266119 216.249546 
L 713.343834 215.693759 
L 713.46816 214.582186 
L 713.54699 214.582186 
L 713.634837 213.470612 
L 713.757708 213.470612 
L 713.774389 212.914826 
L 715.179157 212.914826 
L 715.318761 212.359039 
L 715.397852 211.803252 
L 715.704393 211.247466 
L 715.930311 211.247466 
L 716.386875 210.691679 
L 726.500968 210.691679 
L 726.529549 210.135892 
L 731.084484 210.135892 
L 731.155494 209.580106 
L 731.22809 209.580106 
L 731.913689 209.024319 
L 734.294827 209.024319 
L 735.859881 208.468532 
L 742.876214 208.468532 
L 742.884736 207.356959 
L 744.872655 207.356959 
L 744.931818 206.801172 
L 745.616612 206.245386 
L 745.670941 205.689599 
L 746.574741 205.689599 
L 746.605375 205.133812 
L 749.092495 205.133812 
L 749.202245 204.022239 
L 751.278686 204.022239 
L 751.311918 202.354879 
L 751.427072 201.799092 
L 751.714308 201.799092 
L 751.768664 201.243306 
L 753.358401 201.243306 
L 753.36908 200.687519 
L 753.79657 200.687519 
L 755.625268 194.573866 
L 756.873232 194.573866 
L 756.890121 194.018079 
L 763.199055 194.018079 
L 763.448357 192.350719 
L 768.421013 192.350719 
L 769.239435 191.239146 
L 769.428509 185.681279 
L 769.558162 185.125492 
L 777.927636 185.125492 
L 778.526896 182.902346 
L 778.52913 179.567626 
L 801.373336 179.567626 
L 801.639345 179.011839 
L 812.012614 179.011839 
L 812.012614 179.011839 
" clip-path="url(#p5b801d791b)" style="fill: none; stroke: #58a6ff; stroke-width: 2; stroke-linecap: square"/>
   </g>
   <g id="line2d_31">
    <path d="M 85.239886 455.237812 
L 87.397263 455.237812 
L 87.405526 454.126239 
L 89.186572 454.126239 
L 89.593354 453.570452 
L 199.385542 453.570452 
L 200.588245 453.014666 
L 231.026349 453.014666 
L 231.871065 452.458879 
L 260.583491 452.458879 
L 263.114599 451.903092 
L 269.733972 451.903092 
L 275.513903 450.235732 
L 276.686674 449.124159 
L 278.79471 449.124159 
L 280.132184 448.568372 
L 282.01794 448.012586 
L 282.434023 448.012586 
L 284.984281 447.456799 
L 285.441469 446.901012 
L 287.488888 446.345226 
L 291.491124 445.789439 
L 291.514274 446.345226 
L 298.120058 446.345226 
L 298.583845 445.789439 
L 308.011066 445.789439 
L 308.705448 445.233652 
L 311.872244 445.233652 
L 312.094576 444.677866 
L 316.027854 444.677866 
L 316.36903 444.122079 
L 330.778001 444.122079 
L 332.127686 443.566292 
L 332.694935 443.566292 
L 332.78234 443.010506 
L 336.62798 443.010506 
L 336.631644 442.454719 
L 345.6889 442.454719 
L 345.703217 441.898932 
L 348.342178 441.898932 
L 349.014969 441.343146 
L 350.006148 440.787359 
L 350.007889 440.231572 
L 350.163888 440.231572 
L 351.404914 438.564212 
L 352.240927 438.564212 
L 352.289046 436.896852 
L 352.612086 436.896852 
L 353.781999 437.452639 
L 354.623363 437.452639 
L 354.635835 435.229492 
L 357.768568 435.229492 
L 358.234148 434.673706 
L 358.728308 434.673706 
L 358.859754 434.117919 
L 370.096368 434.117919 
L 370.24717 433.562132 
L 370.81325 433.562132 
L 371.692108 433.006346 
L 375.569498 433.006346 
L 375.762912 432.450559 
L 377.096956 432.450559 
L 377.173422 431.894772 
L 381.591534 431.894772 
L 381.680472 431.338986 
L 381.997874 431.338986 
L 382.319797 430.783199 
L 382.641408 430.783199 
L 382.660479 430.227412 
L 384.02804 430.227412 
L 384.109703 429.671626 
L 390.458495 429.671626 
L 390.57843 429.115839 
L 390.744432 428.560052 
L 391.021197 428.560052 
L 391.812779 428.004266 
L 394.907525 428.004266 
L 394.910254 427.448479 
L 395.501589 427.448479 
L 395.52409 426.892692 
L 397.202635 426.892692 
L 397.613886 426.336906 
L 399.792126 426.336906 
L 400.440909 425.781119 
L 401.702644 425.781119 
L 401.81429 424.669546 
L 401.818344 424.669546 
L 401.947113 424.113759 
L 403.976838 424.113759 
L 404.29003 423.557972 
L 404.776864 423.557972 
L 404.959988 423.002186 
L 406.148271 423.002186 
L 406.314195 422.446399 
L 406.316326 421.890612 
L 406.650772 421.890612 
L 406.791207 421.334826 
L 419.591525 421.334826 
L 419.618702 420.223252 
L 421.380444 420.223252 
L 421.887492 419.667466 
L 422.309655 419.667466 
L 424.290065 419.111679 
L 424.657639 419.111679 
L 425.44522 418.555892 
L 425.97243 418.555892 
L 426.400154 418.000106 
L 426.83284 418.555892 
L 428.225734 418.555892 
L 428.604507 418.000106 
L 428.69121 416.888532 
L 429.396193 416.332746 
L 429.400948 415.221172 
L 432.478416 415.221172 
L 433.15144 414.665386 
L 433.219644 412.998026 
L 433.89233 412.442239 
L 434.264347 411.886452 
L 437.446109 411.886452 
L 437.581114 410.219092 
L 437.7434 410.219092 
L 437.863725 409.663306 
L 438.641328 409.107519 
L 439.865337 409.107519 
L 440.117497 408.551732 
L 440.174866 407.995946 
L 440.303531 407.995946 
L 441.042914 406.884372 
L 441.835094 406.884372 
L 442.095205 406.328586 
L 443.009008 406.328586 
L 443.012022 405.217012 
L 443.638018 405.217012 
L 444.469067 404.661226 
L 446.670796 403.549652 
L 446.966191 402.993866 
L 451.346758 402.993866 
L 451.894858 401.882292 
L 460.263579 401.882292 
L 460.365716 400.770719 
L 464.439118 400.770719 
L 465.061502 400.214932 
L 466.950194 400.214932 
L 467.056203 399.659146 
L 478.675643 399.659146 
L 478.861106 399.103359 
L 480.012025 399.103359 
L 480.36944 398.547572 
L 482.517411 398.547572 
L 482.921387 397.991786 
L 482.924037 397.435999 
L 483.386057 396.880212 
L 484.795243 396.880212 
L 484.902862 396.324426 
L 484.910579 395.212852 
L 484.918244 395.768639 
L 485.865201 395.212852 
L 489.282728 395.212852 
L 489.956843 394.101279 
L 496.123134 394.101279 
L 496.599886 393.545492 
L 498.095775 393.545492 
L 498.215528 392.989706 
L 498.232001 392.433919 
L 503.31012 392.433919 
L 506.463664 391.322346 
L 507.212167 391.322346 
L 507.653688 390.766559 
L 514.185889 390.766559 
L 514.9888 390.210772 
L 515.983694 390.210772 
L 516.947254 389.654986 
L 524.996599 389.654986 
L 525.217502 389.099199 
L 525.218697 388.543412 
L 529.725201 388.543412 
L 529.943714 387.987626 
L 549.963885 387.987626 
L 552.533603 387.431839 
L 558.432326 387.431839 
L 559.722668 386.876052 
L 560.857998 386.876052 
L 561.178024 386.320266 
L 563.716642 386.320266 
L 564.163229 385.764479 
L 564.752225 385.764479 
L 565.516734 385.208692 
L 567.349251 385.208692 
L 567.685958 384.652906 
L 567.911512 384.652906 
L 568.732662 384.097119 
L 576.665917 384.097119 
L 576.688106 382.429759 
L 583.610304 382.429759 
L 586.545674 381.873972 
L 586.548065 381.318186 
L 589.990119 381.318186 
L 590.134607 380.762399 
L 590.245397 380.206612 
L 591.746794 380.206612 
L 592.448035 379.650826 
L 592.949678 379.650826 
L 593.723904 379.095039 
L 594.554746 379.095039 
L 594.698325 377.983466 
L 595.391511 377.983466 
L 595.52966 377.427679 
L 597.089466 377.427679 
L 597.146965 376.871892 
L 599.605531 376.871892 
L 601.386655 376.316106 
L 601.970871 376.316106 
L 602.544382 375.760319 
L 603.729105 375.204532 
L 603.734172 374.648746 
L 604.060875 372.981386 
L 604.359414 372.425599 
L 604.799791 371.869812 
L 605.979967 371.869812 
L 606.69568 370.202452 
L 608.406938 370.202452 
L 608.870283 368.535092 
L 610.753285 368.535092 
L 610.952674 367.979306 
L 612.317456 367.979306 
L 612.614046 366.867732 
L 613.127953 366.311946 
L 614.895489 366.311946 
L 617.95864 365.200372 
L 619.922578 364.644586 
L 620.055998 364.088799 
L 621.913615 364.088799 
L 622.032458 363.533012 
L 624.071875 363.533012 
L 624.081254 362.977226 
L 624.46356 362.977226 
L 624.547354 362.421439 
L 630.341627 362.421439 
L 630.475541 361.865652 
L 632.301199 361.309866 
L 635.303734 361.309866 
L 635.312334 360.754079 
L 646.32776 360.754079 
L 647.143739 358.530932 
L 651.664222 358.530932 
L 651.6709 357.419359 
L 657.422068 357.419359 
L 658.474254 355.751999 
L 658.476489 355.196212 
L 662.541862 355.196212 
L 663.90971 354.084639 
L 663.970924 353.528852 
L 689.528818 353.528852 
L 690.547877 352.973066 
L 693.234101 352.973066 
L 693.514244 351.861492 
L 720.647948 351.861492 
L 721.151411 349.638346 
L 742.884736 349.638346 
L 744.343756 349.082559 
L 753.795193 349.082559 
L 753.79657 344.636266 
L 769.558162 344.636266 
L 769.718733 344.080479 
L 785.314635 344.080479 
L 796.813282 343.524692 
L 798.345391 342.968906 
L 801.967062 342.968906 
L 803.160229 342.413119 
L 803.616611 341.857332 
L 812.012614 341.857332 
L 812.012614 341.857332 
" clip-path="url(#p5b801d791b)" style="fill: none; stroke: #d29922; stroke-width: 2; stroke-linecap: square"/>
   </g>
   <g id="line2d_32">
    <path d="M 85.239886 454.682026 
L 85.424414 454.682026 
L 85.506129 432.450559 
L 85.933177 426.892692 
L 86.177204 425.781119 
L 86.301011 426.336906 
L 86.526954 425.781119 
L 86.909078 425.225332 
L 87.405526 423.002186 
L 87.619699 421.334826 
L 87.901245 421.334826 
L 88.284331 420.779039 
L 88.287163 420.223252 
L 88.595601 419.667466 
L 88.680641 419.111679 
L 88.726656 419.111679 
L 89.515172 418.000106 
L 89.593354 411.886452 
L 89.647423 412.442239 
L 89.910963 404.661226 
L 90.002967 402.993866 
L 91.860039 402.993866 
L 92.031731 399.659146 
L 92.076914 402.438079 
L 92.286255 397.991786 
L 92.389925 397.435999 
L 93.162306 396.880212 
L 93.295934 395.768639 
L 93.509952 395.768639 
L 93.907717 395.212852 
L 94.120202 394.657066 
L 94.478396 391.878132 
L 94.678046 392.433919 
L 94.750225 390.766559 
L 96.601061 390.766559 
L 99.45061 402.993866 
L 99.874592 390.210772 
L 100.184174 389.654986 
L 101.290871 389.654986 
L 101.4933 389.099199 
L 101.926506 388.543412 
L 102.852781 402.993866 
L 102.912879 387.987626 
L 103.623655 387.431839 
L 105.143656 386.876052 
L 105.252055 387.431839 
L 105.473478 385.764479 
L 105.961402 385.764479 
L 106.109658 385.208692 
L 106.389672 384.652906 
L 106.4129 383.541332 
L 106.671192 382.429759 
L 106.686158 382.985546 
L 106.839792 382.985546 
L 107.217421 378.539252 
L 107.550101 376.871892 
L 107.712699 377.983466 
L 108.862372 374.648746 
L 109.165093 375.760319 
L 110.410901 373.537172 
L 111.397845 377.427679 
L 111.744218 373.537172 
L 113.166732 371.869812 
L 115.264297 371.869812 
L 115.541322 371.314026 
L 115.761784 369.646666 
L 116.381284 371.314026 
L 118.908235 371.869812 
L 119.535088 369.646666 
L 119.838927 367.979306 
L 120.358317 369.646666 
L 121.532699 367.979306 
L 125.521424 367.979306 
L 129.715593 367.423519 
L 129.995294 366.867732 
L 132.643194 366.311946 
L 134.394101 366.311946 
L 134.720025 365.756159 
L 134.790931 366.311946 
L 136.653615 364.644586 
L 138.400754 364.644586 
L 138.441313 364.088799 
L 139.392427 363.533012 
L 141.686862 363.533012 
L 142.698983 359.642506 
L 143.452293 359.086719 
L 144.421621 358.530932 
L 144.440432 357.975146 
L 148.073431 357.975146 
L 148.14361 354.084639 
L 148.278069 354.084639 
L 148.396835 352.973066 
L 149.734413 352.973066 
L 150.138778 352.417279 
L 152.10456 352.417279 
L 154.835162 351.861492 
L 154.971726 363.533012 
L 154.97843 352.417279 
L 155.153318 351.861492 
L 156.126491 351.861492 
L 157.603283 351.305706 
L 159.091507 351.305706 
L 160.273684 350.749919 
L 163.532379 349.638346 
L 165.410211 349.638346 
L 166.919377 349.082559 
L 167.154206 346.303626 
L 167.313141 346.303626 
L 167.594375 345.747839 
L 169.06132 345.192052 
L 169.400417 342.968906 
L 171.427856 341.857332 
L 171.452279 342.413119 
L 171.643302 341.857332 
L 174.243368 340.745759 
L 176.19408 340.189972 
L 177.126098 340.189972 
L 177.952184 339.634186 
L 178.66808 338.522612 
L 179.427391 337.966826 
L 179.702052 337.411039 
L 181.493466 337.966826 
L 183.149251 336.855252 
L 183.341417 337.411039 
L 183.781482 337.411039 
L 183.869797 336.855252 
L 185.049323 336.299466 
L 185.794033 336.855252 
L 187.159438 335.743679 
L 188.050585 335.743679 
L 189.95167 335.187892 
L 190.266915 335.743679 
L 190.599335 334.076319 
L 191.752827 334.076319 
L 191.981057 333.520532 
L 192.974315 331.297386 
L 193.254952 330.185812 
L 193.983708 330.741599 
L 194.304748 329.630026 
L 194.336862 329.074239 
L 196.917753 329.074239 
L 198.224905 328.518452 
L 198.560053 327.962666 
L 200.588245 327.962666 
L 202.015358 327.406879 
L 204.439289 327.406879 
L 205.040992 326.851092 
L 211.706379 326.851092 
L 212.089179 326.295306 
L 212.127529 325.739519 
L 212.38673 325.183732 
L 215.279567 325.183732 
L 215.459859 324.627946 
L 216.195865 324.072159 
L 216.323335 323.516372 
L 217.542744 322.960586 
L 218.429656 322.404799 
L 221.983097 322.404799 
L 222.815913 321.293226 
L 226.469049 321.293226 
L 227.282612 320.737439 
L 230.6872 320.737439 
L 231.026349 320.181652 
L 231.871065 319.625866 
L 232.122523 319.070079 
L 232.207902 318.514292 
L 234.738361 317.958506 
L 235.052021 318.514292 
L 238.383208 317.402719 
L 241.017026 316.291146 
L 241.373739 315.735359 
L 246.369909 315.735359 
L 247.016872 315.179572 
L 251.673737 315.179572 
L 256.06041 314.623786 
L 256.612174 314.067999 
L 258.453162 313.512212 
L 260.299347 312.956426 
L 260.583491 312.400639 
L 264.725825 312.400639 
L 265.988053 311.844852 
L 275.513903 311.844852 
L 276.686674 311.289066 
L 284.555284 311.289066 
L 284.984281 310.733279 
L 285.441469 311.289066 
L 287.488888 310.733279 
L 294.379284 310.733279 
L 295.302649 310.177492 
L 309.878998 310.177492 
L 309.900512 309.621706 
L 318.902867 309.621706 
L 320.880731 309.065919 
L 320.885797 308.510132 
L 330.77361 308.510132 
L 330.778001 307.398559 
L 336.631644 307.398559 
L 339.314386 306.842772 
L 342.637778 306.842772 
L 345.703217 305.731199 
L 351.877925 305.731199 
L 352.240927 305.175412 
L 352.289046 304.619626 
L 354.623363 304.619626 
L 354.635835 304.063839 
L 354.878226 304.063839 
L 355.264611 303.508052 
L 358.728308 303.508052 
L 358.859754 302.952266 
L 363.484452 302.952266 
L 363.67389 302.396479 
L 374.96816 302.396479 
L 375.568641 300.729119 
L 375.569498 300.173332 
L 377.169603 300.173332 
L 377.173422 299.617546 
L 381.893164 299.617546 
L 381.997874 299.061759 
L 384.257284 299.061759 
L 384.338453 298.505972 
L 392.732039 298.505972 
L 393.003504 297.950186 
L 394.841712 297.950186 
L 394.910254 297.394399 
L 395.52409 296.838612 
L 410.935723 296.838612 
L 411.738426 295.727039 
L 412.939959 295.727039 
L 413.184818 295.171252 
L 414.38643 295.171252 
L 414.564514 294.615466 
L 417.403541 294.615466 
L 417.437474 294.059679 
L 433.150115 294.059679 
L 433.219644 292.948106 
L 452.859821 292.948106 
L 453.369909 292.392319 
L 486.903305 292.392319 
L 488.478804 291.836532 
L 502.650269 291.836532 
L 502.726501 291.280746 
L 509.071031 291.280746 
L 509.379417 290.724959 
L 634.949697 290.724959 
L 635.312334 290.169172 
L 651.255726 290.169172 
L 651.6709 289.613386 
L 657.422068 289.613386 
L 658.464095 289.057599 
L 658.476489 285.167092 
L 663.90667 285.167092 
L 663.970924 282.388159 
L 731.913689 282.388159 
L 732.352715 281.832372 
L 764.769982 281.832372 
L 768.421013 281.276586 
L 781.544864 281.276586 
L 781.550086 280.720799 
L 803.160229 280.720799 
L 803.616611 279.053439 
L 812.012614 279.053439 
L 812.012614 279.053439 
" clip-path="url(#p5b801d791b)" style="fill: none; stroke: #f85149; stroke-width: 2; stroke-linecap: square"/>
   </g>
   <g id="line2d_33">
    <path d="M 85.239886 454.682026 
L 85.254566 454.126239 
L 85.370308 -1 
M 85.474335 -1 
L 85.588857 101.201706 
L 87.397263 101.201706 
L 87.405526 97.866986 
L 89.593354 97.866986 
L 89.749716 98.422772 
L 90.002967 98.422772 
L 90.249125 98.978559 
L 91.774426 99.534346 
L 91.80454 98.978559 
L 91.877655 99.534346 
L 96.601061 99.534346 
L 99.45061 98.422772 
L 99.874592 99.534346 
L 100.184174 98.978559 
L 100.964427 99.534346 
L 101.290871 96.755412 
L 101.926506 96.755412 
L 102.852781 98.422772 
L 102.912879 95.643839 
L 103.623655 96.199626 
L 105.473478 96.199626 
L 105.961402 95.088052 
L 106.686158 95.088052 
L 106.924027 91.197546 
L 111.397845 91.197546 
L 111.744218 86.751252 
L 113.166732 86.751252 
L 115.264297 82.860746 
L 116.364629 82.860746 
L 116.381284 83.416532 
L 118.908235 83.416532 
L 119.535088 80.081812 
L 121.518928 80.081812 
L 121.532699 80.637599 
L 132.643194 80.637599 
L 134.720025 81.193386 
L 134.790931 80.637599 
L 136.944878 81.193386 
L 144.440432 81.193386 
L 148.073431 81.749172 
L 148.14361 74.523946 
L 148.316186 75.079732 
L 150.365683 75.079732 
L 151.237967 75.635519 
L 154.835162 75.635519 
L 154.971726 80.637599 
L 154.97843 71.745012 
L 155.153318 71.745012 
L 156.126491 73.968159 
L 160.273684 73.968159 
L 163.532379 70.077652 
L 167.154206 70.077652 
L 167.313141 68.410292 
L 176.724435 68.410292 
L 177.126098 68.966079 
L 179.411282 68.966079 
L 179.427391 70.077652 
L 183.781482 70.077652 
L 183.869797 73.412372 
L 190.599335 73.412372 
L 190.760063 68.410292 
L 191.750463 67.298719 
L 191.752827 67.854506 
L 191.981057 67.854506 
L 192.794205 65.075572 
L 193.983708 65.075572 
L 194.304748 65.631359 
L 194.336862 65.075572 
L 195.07201 65.631359 
L 195.075362 66.187146 
L 195.092536 65.631359 
L 195.517194 63.408212 
L 199.385542 63.408212 
L 200.588245 63.963999 
L 202.015358 63.963999 
L 204.439289 64.519786 
L 206.733983 64.519786 
L 208.506872 65.631359 
L 212.127529 65.075572 
L 212.38673 65.075572 
L 214.643672 66.187146 
L 215.279567 65.631359 
L 218.429656 65.631359 
L 221.981174 67.854506 
L 221.983097 67.298719 
L 227.282612 67.298719 
L 228.926186 67.854506 
L 258.216617 67.854506 
L 258.453162 68.410292 
L 260.286173 68.410292 
L 260.299347 66.742932 
L 269.134713 66.742932 
L 269.313186 67.298719 
L 287.488888 67.298719 
L 291.491124 67.854506 
L 291.514274 67.298719 
L 294.379284 68.966079 
L 295.302649 68.966079 
L 296.177609 68.410292 
L 298.583845 68.410292 
L 300.879683 68.966079 
L 300.88345 69.521866 
L 307.393021 67.854506 
L 308.011066 68.410292 
L 316.027854 68.410292 
L 316.36903 67.854506 
L 316.994013 68.410292 
L 317.208784 70.633439 
L 320.882628 70.633439 
L 320.885797 71.189226 
L 332.127686 71.189226 
L 332.78234 71.745012 
L 334.942835 71.745012 
L 335.153605 72.300799 
L 345.6889 72.300799 
L 345.703217 72.856586 
L 347.556417 72.856586 
L 348.338255 73.412372 
L 348.342178 73.968159 
L 348.981581 73.412372 
L 349.014969 73.968159 
L 350.007889 73.968159 
L 350.163888 74.523946 
L 352.240927 74.523946 
L 352.289046 73.412372 
L 352.612086 74.523946 
L 353.781999 72.856586 
L 356.611049 72.856586 
L 356.92341 71.189226 
L 357.768568 71.189226 
L 358.234148 72.300799 
L 360.633265 72.300799 
L 361.420482 72.856586 
L 361.611687 72.856586 
L 362.35159 70.077652 
L 363.67389 70.077652 
L 363.975911 70.633439 
L 370.096368 70.633439 
L 370.24717 71.189226 
L 370.81325 71.189226 
L 371.692108 71.745012 
L 381.591534 71.745012 
L 381.680472 72.300799 
L 381.997874 72.300799 
L 382.660479 73.412372 
L 383.589456 73.412372 
L 383.812827 72.856586 
L 384.02804 72.856586 
L 384.109703 73.412372 
L 386.594043 73.412372 
L 387.016986 73.968159 
L 389.179403 73.968159 
L 389.318046 74.523946 
L 390.502535 74.523946 
L 390.643594 75.079732 
L 394.259549 75.079732 
L 394.338691 75.635519 
L 396.485571 75.635519 
L 397.202635 77.858666 
L 397.997647 77.858666 
L 397.998478 78.414452 
L 401.226541 78.414452 
L 401.818344 78.970239 
L 404.29003 78.970239 
L 404.776864 79.526026 
L 406.650772 79.526026 
L 406.791207 80.081812 
L 409.838665 80.081812 
L 410.624194 80.637599 
L 410.681407 81.193386 
L 410.935723 81.193386 
L 411.738426 60.629279 
L 414.227833 60.629279 
L 414.245761 61.185066 
L 414.38643 61.185066 
L 414.564514 60.629279 
L 416.614946 60.629279 
L 416.840708 61.185066 
L 417.110043 61.185066 
L 417.380962 61.740852 
L 417.437474 61.185066 
L 418.541677 61.185066 
L 418.550303 61.740852 
L 418.789654 61.740852 
L 418.894467 62.296639 
L 419.618702 62.852426 
L 424.657639 62.852426 
L 425.44522 63.408212 
L 425.97243 63.408212 
L 426.400154 63.963999 
L 426.83284 63.408212 
L 428.61438 63.408212 
L 428.69121 64.519786 
L 431.248743 64.519786 
L 432.241066 66.187146 
L 443.012022 66.187146 
L 443.638018 66.742932 
L 460.263579 66.742932 
L 460.365716 67.298719 
L 484.795243 67.298719 
L 484.910579 68.410292 
L 484.918244 67.854506 
L 488.478804 67.854506 
L 489.282728 68.410292 
L 503.31012 68.410292 
L 506.463664 68.966079 
L 507.205958 69.521866 
L 507.212167 67.854506 
L 529.725201 67.854506 
L 529.943714 68.410292 
L 549.963885 68.410292 
L 552.533603 68.966079 
L 554.105465 68.966079 
L 554.27604 69.521866 
L 555.368551 70.077652 
L 558.432326 70.077652 
L 559.722668 70.633439 
L 561.072873 70.633439 
L 561.178024 71.189226 
L 563.39885 71.189226 
L 563.664131 71.745012 
L 563.716642 72.300799 
L 567.670629 72.300799 
L 567.685958 72.856586 
L 570.505784 72.856586 
L 571.052585 72.300799 
L 571.060016 72.856586 
L 572.200699 73.412372 
L 574.225721 73.412372 
L 575.682974 73.968159 
L 576.987112 73.968159 
L 578.909243 61.740852 
L 581.153298 61.740852 
L 581.163691 64.519786 
L 592.446866 64.519786 
L 592.448035 65.075572 
L 592.643189 65.631359 
L 593.723904 65.631359 
L 593.958968 66.187146 
L 597.503782 66.187146 
L 598.323244 66.742932 
L 598.458067 66.187146 
L 604.798362 66.187146 
L 604.799791 66.742932 
L 614.826921 66.742932 
L 614.895489 67.854506 
L 616.347026 69.521866 
L 617.803499 69.521866 
L 617.95864 70.077652 
L 624.081254 70.077652 
L 624.193836 70.633439 
L 630.341627 70.633439 
L 630.475541 71.189226 
L 632.16991 72.856586 
L 632.301199 73.412372 
L 648.992522 73.412372 
L 650.572802 76.191306 
L 654.343535 76.191306 
L 654.589147 76.747092 
L 657.422068 76.747092 
L 658.476489 77.858666 
L 673.40833 77.858666 
L 673.597639 78.414452 
L 675.783492 78.414452 
L 676.017646 78.970239 
L 690.417055 78.970239 
L 690.424434 80.637599 
L 690.87167 80.637599 
L 691.049858 81.193386 
L 693.514244 81.193386 
L 693.875608 81.749172 
L 693.877765 81.193386 
L 700.382113 81.193386 
L 701.95122 81.749172 
L 731.225205 81.749172 
L 731.22809 82.304959 
L 742.884736 82.304959 
L 744.343756 82.860746 
L 769.558162 82.860746 
L 769.718733 83.972319 
L 776.412052 83.972319 
L 777.927636 85.083892 
L 785.314635 85.083892 
L 796.813282 85.639679 
L 798.345391 86.195466 
L 800.587003 87.307039 
L 801.967062 87.307039 
L 803.160229 87.862826 
L 803.616611 87.862826 
L 807.135833 88.418612 
L 812.012614 88.418612 
L 812.012614 88.418612 
" clip-path="url(#p5b801d791b)" style="fill: none; stroke: #9467bd; stroke-width: 2; stroke-linecap: square"/>
   </g>
   <g id="patch_3">
    <path d="M 48.90125 455.237812 
L 48.90125 38.397812 
" style="fill: none; stroke: #30363d; stroke-width: 0.8; stroke-linejoin: miter; stroke-linecap: square"/>
   </g>
   <g id="patch_4">
    <path d="M 848.35125 455.237812 
L 848.35125 38.397812 
" style="fill: none; stroke: #30363d; stroke-width: 0.8; stroke-linejoin: miter; stroke-linecap: square"/>
   </g>
   <g id="patch_5">
    <path d="M 48.90125 455.237812 
L 848.35125 455.237812 
" style="fill: none; stroke: #30363d; stroke-width: 0.8; stroke-linejoin: miter; stroke-linecap: square"/>
   </g>
   <g id="patch_6">
    <path d="M 48.90125 38.397812 
L 848.35125 38.397812 
" style="fill: none; stroke: #30363d; stroke-width: 0.8; stroke-linejoin: miter; stroke-linecap: square"/>
   </g>
   <g id="text_17">
    <!-- 557 -->
    <g style="fill: #3fb950" transform="translate(817.012614 148.148077) scale(0.09 -0.09)">
     <defs>
      <path id="DejaVuSans-Bold-35" d="M 678 4666 
L 3669 4666 
L 3669 3781 
L 1638 3781 
L 1638 3059 
Q 1775 3097 1914 3117 
Q 2053 3138 2203 3138 
Q 3056 3138 3531 2711 
Q 4006 2284 4006 1522 
Q 4006 766 3489 337 
Q 2972 -91 2053 -91 
Q 1656 -91 1267 -14 
Q 878 63 494 219 
L 494 1166 
Q 875 947 1217 837 
Q 1559 728 1863 728 
Q 2300 728 2551 942 
Q 2803 1156 2803 1522 
Q 2803 1891 2551 2103 
Q 2300 2316 1863 2316 
Q 1603 2316 1309 2248 
Q 1016 2181 678 2041 
L 678 4666 
z
" transform="scale(0.015625)"/>
      <path id="DejaVuSans-Bold-37" d="M 428 4666 
L 3944 4666 
L 3944 3988 
L 2125 0 
L 953 0 
L 2675 3781 
L 428 3781 
L 428 4666 
z
" transform="scale(0.015625)"/>
     </defs>
     <use xlink:href="#DejaVuSans-Bold-35"/>
     <use xlink:href="#DejaVuSans-Bold-35" transform="translate(69.580078 0)"/>
     <use xlink:href="#DejaVuSans-Bold-37" transform="translate(139.160156 0)"/>
    </g>
   </g>
   <g id="text_18">
    <!-- 497 -->
    <g style="fill: #58a6ff" transform="translate(817.012614 181.495277) scale(0.09 -0.09)">
     <defs>
      <path id="DejaVuSans-Bold-34" d="M 2356 3675 
L 1038 1722 
L 2356 1722 
L 2356 3675 
z
M 2156 4666 
L 3494 4666 
L 3494 1722 
L 4159 1722 
L 4159 850 
L 3494 850 
L 3494 0 
L 2356 0 
L 2356 850 
L 288 850 
L 288 1881 
L 2156 4666 
z
" transform="scale(0.015625)"/>
      <path id="DejaVuSans-Bold-39" d="M 641 103 
L 641 966 
Q 928 831 1190 764 
Q 1453 697 1709 697 
Q 2247 697 2547 995 
Q 2847 1294 2900 1881 
Q 2688 1725 2447 1647 
Q 2206 1569 1925 1569 
Q 1209 1569 770 1986 
Q 331 2403 331 3084 
Q 331 3838 820 4291 
Q 1309 4744 2131 4744 
Q 3044 4744 3544 4128 
Q 4044 3513 4044 2388 
Q 4044 1231 3459 570 
Q 2875 -91 1856 -91 
Q 1528 -91 1228 -42 
Q 928 6 641 103 
z
M 2125 2350 
Q 2441 2350 2600 2554 
Q 2759 2759 2759 3169 
Q 2759 3575 2600 3781 
Q 2441 3988 2125 3988 
Q 1809 3988 1650 3781 
Q 1491 3575 1491 3169 
Q 1491 2759 1650 2554 
Q 1809 2350 2125 2350 
z
" transform="scale(0.015625)"/>
     </defs>
     <use xlink:href="#DejaVuSans-Bold-34"/>
     <use xlink:href="#DejaVuSans-Bold-39" transform="translate(69.580078 0)"/>
     <use xlink:href="#DejaVuSans-Bold-37" transform="translate(139.160156 0)"/>
    </g>
   </g>
   <g id="text_19">
    <!-- 204 -->
    <g style="fill: #d29922" transform="translate(817.012614 344.34077) scale(0.09 -0.09)">
     <defs>
      <path id="DejaVuSans-Bold-32" d="M 1844 884 
L 3897 884 
L 3897 0 
L 506 0 
L 506 884 
L 2209 2388 
Q 2438 2594 2547 2791 
Q 2656 2988 2656 3200 
Q 2656 3528 2436 3728 
Q 2216 3928 1850 3928 
Q 1569 3928 1234 3808 
Q 900 3688 519 3450 
L 519 4475 
Q 925 4609 1322 4679 
Q 1719 4750 2100 4750 
Q 2938 4750 3402 4381 
Q 3866 4013 3866 3353 
Q 3866 2972 3669 2642 
Q 3472 2313 2841 1759 
L 1844 884 
z
" transform="scale(0.015625)"/>
      <path id="DejaVuSans-Bold-30" d="M 2944 2338 
Q 2944 3213 2780 3570 
Q 2616 3928 2228 3928 
Q 1841 3928 1675 3570 
Q 1509 3213 1509 2338 
Q 1509 1453 1675 1090 
Q 1841 728 2228 728 
Q 2613 728 2778 1090 
Q 2944 1453 2944 2338 
z
M 4147 2328 
Q 4147 1169 3647 539 
Q 3147 -91 2228 -91 
Q 1306 -91 806 539 
Q 306 1169 306 2328 
Q 306 3491 806 4120 
Q 1306 4750 2228 4750 
Q 3147 4750 3647 4120 
Q 4147 3491 4147 2328 
z
" transform="scale(0.015625)"/>
     </defs>
     <use xlink:href="#DejaVuSans-Bold-32"/>
     <use xlink:href="#DejaVuSans-Bold-30" transform="translate(69.580078 0)"/>
     <use xlink:href="#DejaVuSans-Bold-34" transform="translate(139.160156 0)"/>
    </g>
   </g>
   <g id="text_20">
    <!-- 317 -->
    <g style="fill: #f85149" transform="translate(817.012614 281.536877) scale(0.09 -0.09)">
     <defs>
      <path id="DejaVuSans-Bold-33" d="M 2981 2516 
Q 3453 2394 3698 2092 
Q 3944 1791 3944 1325 
Q 3944 631 3412 270 
Q 2881 -91 1863 -91 
Q 1503 -91 1142 -33 
Q 781 25 428 141 
L 428 1069 
Q 766 900 1098 814 
Q 1431 728 1753 728 
Q 2231 728 2486 893 
Q 2741 1059 2741 1369 
Q 2741 1688 2480 1852 
Q 2219 2016 1709 2016 
L 1228 2016 
L 1228 2791 
L 1734 2791 
Q 2188 2791 2409 2933 
Q 2631 3075 2631 3366 
Q 2631 3634 2415 3781 
Q 2200 3928 1806 3928 
Q 1516 3928 1219 3862 
Q 922 3797 628 3669 
L 628 4550 
Q 984 4650 1334 4700 
Q 1684 4750 2022 4750 
Q 2931 4750 3382 4451 
Q 3834 4153 3834 3553 
Q 3834 3144 3618 2883 
Q 3403 2622 2981 2516 
z
" transform="scale(0.015625)"/>
      <path id="DejaVuSans-Bold-31" d="M 750 831 
L 1813 831 
L 1813 3847 
L 722 3622 
L 722 4441 
L 1806 4666 
L 2950 4666 
L 2950 831 
L 4013 831 
L 4013 0 
L 750 0 
L 750 831 
z
" transform="scale(0.015625)"/>
     </defs>
     <use xlink:href="#DejaVuSans-Bold-33"/>
     <use xlink:href="#DejaVuSans-Bold-31" transform="translate(69.580078 0)"/>
     <use xlink:href="#DejaVuSans-Bold-37" transform="translate(139.160156 0)"/>
    </g>
   </g>
   <g id="text_21">
    <!-- 660 -->
    <g style="fill: #9467bd" transform="translate(817.012614 90.90205) scale(0.09 -0.09)">
     <defs>
      <path id="DejaVuSans-Bold-36" d="M 2316 2303 
Q 2000 2303 1842 2098 
Q 1684 1894 1684 1484 
Q 1684 1075 1842 870 
Q 2000 666 2316 666 
Q 2634 666 2792 870 
Q 2950 1075 2950 1484 
Q 2950 1894 2792 2098 
Q 2634 2303 2316 2303 
z
M 3803 4544 
L 3803 3681 
Q 3506 3822 3243 3889 
Q 2981 3956 2731 3956 
Q 2194 3956 1894 3657 
Q 1594 3359 1544 2772 
Q 1750 2925 1990 3001 
Q 2231 3078 2516 3078 
Q 3231 3078 3670 2659 
Q 4109 2241 4109 1563 
Q 4109 813 3618 361 
Q 3128 -91 2303 -91 
Q 1394 -91 895 523 
Q 397 1138 397 2266 
Q 397 3422 980 4083 
Q 1563 4744 2578 4744 
Q 2900 4744 3203 4694 
Q 3506 4644 3803 4544 
z
" transform="scale(0.015625)"/>
     </defs>
     <use xlink:href="#DejaVuSans-Bold-36"/>
     <use xlink:href="#DejaVuSans-Bold-36" transform="translate(69.580078 0)"/>
     <use xlink:href="#DejaVuSans-Bold-30" transform="translate(139.160156 0)"/>
    </g>
   </g>
   <g id="text_22">
    <!-- Erdős Problems Progress -->
    <g style="fill: #c9d1d9" transform="translate(349.588281 18.397812) scale(0.14 -0.14)">
     <defs>
      <path id="DejaVuSans-Bold-45" d="M 588 4666 
L 3834 4666 
L 3834 3756 
L 1791 3756 
L 1791 2888 
L 3713 2888 
L 3713 1978 
L 1791 1978 
L 1791 909 
L 3903 909 
L 3903 0 
L 588 0 
L 588 4666 
z
" transform="scale(0.015625)"/>
      <path id="DejaVuSans-Bold-72" d="M 3138 2547 
Q 2991 2616 2845 2648 
Q 2700 2681 2553 2681 
Q 2122 2681 1889 2404 
Q 1656 2128 1656 1613 
L 1656 0 
L 538 0 
L 538 3500 
L 1656 3500 
L 1656 2925 
Q 1872 3269 2151 3426 
Q 2431 3584 2822 3584 
Q 2878 3584 2943 3579 
Q 3009 3575 3134 3559 
L 3138 2547 
z
" transform="scale(0.015625)"/>
      <path id="DejaVuSans-Bold-64" d="M 2919 2988 
L 2919 4863 
L 4044 4863 
L 4044 0 
L 2919 0 
L 2919 506 
Q 2688 197 2409 53 
Q 2131 -91 1766 -91 
Q 1119 -91 703 423 
Q 288 938 288 1747 
Q 288 2556 703 3070 
Q 1119 3584 1766 3584 
Q 2128 3584 2408 3439 
Q 2688 3294 2919 2988 
z
M 2181 722 
Q 2541 722 2730 984 
Q 2919 1247 2919 1747 
Q 2919 2247 2730 2509 
Q 2541 2772 2181 2772 
Q 1825 2772 1636 2509 
Q 1447 2247 1447 1747 
Q 1447 1247 1636 984 
Q 1825 722 2181 722 
z
" transform="scale(0.015625)"/>
      <path id="DejaVuSans-Bold-151" d="M 1881 5119 
L 2560 5119 
L 1785 3944 
L 1275 3944 
L 1881 5119 
z
M 3016 5119 
L 3738 5119 
L 2888 3944 
L 2344 3944 
L 3016 5119 
z
M 2203 2784 
Q 1831 2784 1636 2517 
Q 1441 2250 1441 1747 
Q 1441 1244 1636 976 
Q 1831 709 2203 709 
Q 2569 709 2762 976 
Q 2956 1244 2956 1747 
Q 2956 2250 2762 2517 
Q 2569 2784 2203 2784 
z
M 2203 3584 
Q 3106 3584 3614 3096 
Q 4122 2609 4122 1747 
Q 4122 884 3614 396 
Q 3106 -91 2203 -91 
Q 1297 -91 786 396 
Q 275 884 275 1747 
Q 275 2609 786 3096 
Q 1297 3584 2203 3584 
z
" transform="scale(0.015625)"/>
      <path id="DejaVuSans-Bold-73" d="M 3272 3391 
L 3272 2541 
Q 2913 2691 2578 2766 
Q 2244 2841 1947 2841 
Q 1628 2841 1473 2761 
Q 1319 2681 1319 2516 
Q 1319 2381 1436 2309 
Q 1553 2238 1856 2203 
L 2053 2175 
Q 2913 2066 3209 1816 
Q 3506 1566 3506 1031 
Q 3506 472 3093 190 
Q 2681 -91 1863 -91 
Q 1516 -91 1145 -36 
Q 775 19 384 128 
L 384 978 
Q 719 816 1070 734 
Q 1422 653 1784 653 
Q 2113 653 2278 743 
Q 2444 834 2444 1013 
Q 2444 1163 2330 1236 
Q 2216 1309 1875 1350 
L 1678 1375 
Q 931 1469 631 1722 
Q 331 1975 331 2491 
Q 331 3047 712 3315 
Q 1094 3584 1881 3584 
Q 2191 3584 2531 3537 
Q 2872 3491 3272 3391 
z
" transform="scale(0.015625)"/>
      <path id="DejaVuSans-Bold-20" transform="scale(0.015625)"/>
      <path id="DejaVuSans-Bold-50" d="M 588 4666 
L 2584 4666 
Q 3475 4666 3951 4270 
Q 4428 3875 4428 3144 
Q 4428 2409 3951 2014 
Q 3475 1619 2584 1619 
L 1791 1619 
L 1791 0 
L 588 0 
L 588 4666 
z
M 1791 3794 
L 1791 2491 
L 2456 2491 
Q 2806 2491 2997 2661 
Q 3188 2831 3188 3144 
Q 3188 3456 2997 3625 
Q 2806 3794 2456 3794 
L 1791 3794 
z
" transform="scale(0.015625)"/>
      <path id="DejaVuSans-Bold-6f" d="M 2203 2784 
Q 1831 2784 1636 2517 
Q 1441 2250 1441 1747 
Q 1441 1244 1636 976 
Q 1831 709 2203 709 
Q 2569 709 2762 976 
Q 2956 1244 2956 1747 
Q 2956 2250 2762 2517 
Q 2569 2784 2203 2784 
z
M 2203 3584 
Q 3106 3584 3614 3096 
Q 4122 2609 4122 1747 
Q 4122 884 3614 396 
Q 3106 -91 2203 -91 
Q 1297 -91 786 396 
Q 275 884 275 1747 
Q 275 2609 786 3096 
Q 1297 3584 2203 3584 
z
" transform="scale(0.015625)"/>
      <path id="DejaVuSans-Bold-62" d="M 2400 722 
Q 2759 722 2948 984 
Q 3138 1247 3138 1747 
Q 3138 2247 2948 2509 
Q 2759 2772 2400 2772 
Q 2041 2772 1848 2508 
Q 1656 2244 1656 1747 
Q 1656 1250 1848 986 
Q 2041 722 2400 722 
z
M 1656 2988 
Q 1888 3294 2169 3439 
Q 2450 3584 2816 3584 
Q 3463 3584 3878 3070 
Q 4294 2556 4294 1747 
Q 4294 938 3878 423 
Q 3463 -91 2816 -91 
Q 2450 -91 2169 54 
Q 1888 200 1656 506 
L 1656 0 
L 538 0 
L 538 4863 
L 1656 4863 
L 1656 2988 
z
" transform="scale(0.015625)"/>
      <path id="DejaVuSans-Bold-6c" d="M 538 4863 
L 1656 4863 
L 1656 0 
L 538 0 
L 538 4863 
z
" transform="scale(0.015625)"/>
      <path id="DejaVuSans-Bold-65" d="M 4031 1759 
L 4031 1441 
L 1416 1441 
Q 1456 1047 1700 850 
Q 1944 653 2381 653 
Q 2734 653 3104 758 
Q 3475 863 3866 1075 
L 3866 213 
Q 3469 63 3072 -14 
Q 2675 -91 2278 -91 
Q 1328 -91 801 392 
Q 275 875 275 1747 
Q 275 2603 792 3093 
Q 1309 3584 2216 3584 
Q 3041 3584 3536 3087 
Q 4031 2591 4031 1759 
z
M 2881 2131 
Q 2881 2450 2695 2645 
Q 2509 2841 2209 2841 
Q 1884 2841 1681 2658 
Q 1478 2475 1428 2131 
L 2881 2131 
z
" transform="scale(0.015625)"/>
      <path id="DejaVuSans-Bold-6d" d="M 3781 2919 
Q 3994 3244 4286 3414 
Q 4578 3584 4928 3584 
Q 5531 3584 5847 3212 
Q 6163 2841 6163 2131 
L 6163 0 
L 5038 0 
L 5038 1825 
Q 5041 1866 5042 1909 
Q 5044 1953 5044 2034 
Q 5044 2406 4934 2573 
Q 4825 2741 4581 2741 
Q 4263 2741 4089 2478 
Q 3916 2216 3909 1719 
L 3909 0 
L 2784 0 
L 2784 1825 
Q 2784 2406 2684 2573 
Q 2584 2741 2328 2741 
Q 2006 2741 1831 2477 
Q 1656 2213 1656 1722 
L 1656 0 
L 531 0 
L 531 3500 
L 1656 3500 
L 1656 2988 
Q 1863 3284 2130 3434 
Q 2397 3584 2719 3584 
Q 3081 3584 3359 3409 
Q 3638 3234 3781 2919 
z
" transform="scale(0.015625)"/>
      <path id="DejaVuSans-Bold-67" d="M 2919 594 
Q 2688 288 2409 144 
Q 2131 0 1766 0 
Q 1125 0 706 504 
Q 288 1009 288 1791 
Q 288 2575 706 3076 
Q 1125 3578 1766 3578 
Q 2131 3578 2409 3434 
Q 2688 3291 2919 2981 
L 2919 3500 
L 4044 3500 
L 4044 353 
Q 4044 -491 3511 -936 
Q 2978 -1381 1966 -1381 
Q 1638 -1381 1331 -1331 
Q 1025 -1281 716 -1178 
L 716 -306 
Q 1009 -475 1290 -558 
Q 1572 -641 1856 -641 
Q 2406 -641 2662 -400 
Q 2919 -159 2919 353 
L 2919 594 
z
M 2181 2772 
Q 1834 2772 1640 2515 
Q 1447 2259 1447 1791 
Q 1447 1309 1634 1061 
Q 1822 813 2181 813 
Q 2531 813 2725 1069 
Q 2919 1325 2919 1791 
Q 2919 2259 2725 2515 
Q 2531 2772 2181 2772 
z
" transform="scale(0.015625)"/>
     </defs>
     <use xlink:href="#DejaVuSans-Bold-45"/>
     <use xlink:href="#DejaVuSans-Bold-72" transform="translate(68.310547 0)"/>
     <use xlink:href="#DejaVuSans-Bold-64" transform="translate(117.626953 0)"/>
     <use xlink:href="#DejaVuSans-Bold-151" transform="translate(189.208984 0)"/>
     <use xlink:href="#DejaVuSans-Bold-73" transform="translate(257.910156 0)"/>
     <use xlink:href="#DejaVuSans-Bold-20" transform="translate(317.431641 0)"/>
     <use xlink:href="#DejaVuSans-Bold-50" transform="translate(352.246094 0)"/>
     <use xlink:href="#DejaVuSans-Bold-72" transform="translate(425.537109 0)"/>
     <use xlink:href="#DejaVuSans-Bold-6f" transform="translate(474.853516 0)"/>
     <use xlink:href="#DejaVuSans-Bold-62" transform="translate(543.554688 0)"/>
     <use xlink:href="#DejaVuSans-Bold-6c" transform="translate(615.136719 0)"/>
     <use xlink:href="#DejaVuSans-Bold-65" transform="translate(649.414062 0)"/>
     <use xlink:href="#DejaVuSans-Bold-6d" transform="translate(717.236328 0)"/>
     <use xlink:href="#DejaVuSans-Bold-73" transform="translate(821.435547 0)"/>
     <use xlink:href="#DejaVuSans-Bold-20" transform="translate(880.957031 0)"/>
     <use xlink:href="#DejaVuSans-Bold-50" transform="translate(915.771484 0)"/>
     <use xlink:href="#DejaVuSans-Bold-72" transform="translate(989.0625 0)"/>
     <use xlink:href="#DejaVuSans-Bold-6f" transform="translate(1038.378906 0)"/>
     <use xlink:href="#DejaVuSans-Bold-67" transform="translate(1107.080078 0)"/>
     <use xlink:href="#DejaVuSans-Bold-72" transform="translate(1178.662109 0)"/>
     <use xlink:href="#DejaVuSans-Bold-65" transform="translate(1227.978516 0)"/>
     <use xlink:href="#DejaVuSans-Bold-73" transform="translate(1295.800781 0)"/>
     <use xlink:href="#DejaVuSans-Bold-73" transform="translate(1355.322266 0)"/>
    </g>
   </g>
   <g id="legend_1">
    <g id="patch_7">
     <path d="M 55.90125 119.788437 
L 213.771563 119.788437 
Q 215.771563 119.788437 215.771563 117.788437 
L 215.771563 45.397812 
Q 215.771563 43.397812 213.771563 43.397812 
L 55.90125 43.397812 
Q 53.90125 43.397812 53.90125 45.397812 
L 53.90125 117.788437 
Q 53.90125 119.788437 55.90125 119.788437 
z
" style="fill: #161b22; opacity: 0.8; stroke: #30363d; stroke-linejoin: miter"/>
    </g>
    <g id="line2d_34">
     <path d="M 57.90125 51.49625 
L 67.90125 51.49625 
L 77.90125 51.49625 
" style="fill: none; stroke: #3fb950; stroke-width: 2; stroke-linecap: square"/>
    </g>
    <g id="text_23">
     <!-- Solved -->
     <g style="fill: #c9d1d9" transform="translate(85.90125 54.99625) scale(0.1 -0.1)">
      <defs>
       <path id="DejaVuSans-64" d="M 2906 2969 
L 2906 4863 
L 3481 4863 
L 3481 0 
L 2906 0 
L 2906 525 
Q 2725 213 2448 61 
Q 2172 -91 1784 -91 
Q 1150 -91 751 415 
Q 353 922 353 1747 
Q 353 2572 751 3078 
Q 1150 3584 1784 3584 
Q 2172 3584 2448 3432 
Q 2725 3281 2906 2969 
z
M 947 1747 
Q 947 1113 1208 752 
Q 1469 391 1925 391 
Q 2381 391 2643 752 
Q 2906 1113 2906 1747 
Q 2906 2381 2643 2742 
Q 2381 3103 1925 3103 
Q 1469 3103 1208 2742 
Q 947 2381 947 1747 
z
" transform="scale(0.015625)"/>
      </defs>
      <use xlink:href="#DejaVuSans-53"/>
      <use xlink:href="#DejaVuSans-6f" transform="translate(63.476562 0)"/>
      <use xlink:href="#DejaVuSans-6c" transform="translate(124.658203 0)"/>
      <use xlink:href="#DejaVuSans-76" transform="translate(152.441406 0)"/>
      <use xlink:href="#DejaVuSans-65" transform="translate(211.621094 0)"/>
      <use xlink:href="#DejaVuSans-64" transform="translate(273.144531 0)"/>
     </g>
    </g>
    <g id="line2d_35">
     <path d="M 57.90125 66.174375 
L 67.90125 66.174375 
L 77.90125 66.174375 
" style="fill: none; stroke: #58a6ff; stroke-width: 2; stroke-linecap: square"/>
    </g>
    <g id="text_24">
     <!-- Lean Formalized Problem -->
     <g style="fill: #c9d1d9" transform="translate(85.90125 69.674375) scale(0.1 -0.1)">
      <defs>
       <path id="DejaVuSans-4c" d="M 628 4666 
L 1259 4666 
L 1259 531 
L 3531 531 
L 3531 0 
L 628 0 
L 628 4666 
z
" transform="scale(0.015625)"/>
       <path id="DejaVuSans-20" transform="scale(0.015625)"/>
       <path id="DejaVuSans-46" d="M 628 4666 
L 3309 4666 
L 3309 4134 
L 1259 4134 
L 1259 2759 
L 3109 2759 
L 3109 2228 
L 1259 2228 
L 1259 0 
L 628 0 
L 628 4666 
z
" transform="scale(0.015625)"/>
       <path id="DejaVuSans-6d" d="M 3328 2828 
Q 3544 3216 3844 3400 
Q 4144 3584 4550 3584 
Q 5097 3584 5394 3201 
Q 5691 2819 5691 2113 
L 5691 0 
L 5113 0 
L 5113 2094 
Q 5113 2597 4934 2840 
Q 4756 3084 4391 3084 
Q 3944 3084 3684 2787 
Q 3425 2491 3425 1978 
L 3425 0 
L 2847 0 
L 2847 2094 
Q 2847 2600 2669 2842 
Q 2491 3084 2119 3084 
Q 1678 3084 1418 2786 
Q 1159 2488 1159 1978 
L 1159 0 
L 581 0 
L 581 3500 
L 1159 3500 
L 1159 2956 
Q 1356 3278 1631 3431 
Q 1906 3584 2284 3584 
Q 2666 3584 2933 3390 
Q 3200 3197 3328 2828 
z
" transform="scale(0.015625)"/>
       <path id="DejaVuSans-69" d="M 603 3500 
L 1178 3500 
L 1178 0 
L 603 0 
L 603 3500 
z
M 603 4863 
L 1178 4863 
L 1178 4134 
L 603 4134 
L 603 4863 
z
" transform="scale(0.015625)"/>
       <path id="DejaVuSans-7a" d="M 353 3500 
L 3084 3500 
L 3084 2975 
L 922 459 
L 3084 459 
L 3084 0 
L 275 0 
L 275 525 
L 2438 3041 
L 353 3041 
L 353 3500 
z
" transform="scale(0.015625)"/>
       <path id="DejaVuSans-50" d="M 1259 4147 
L 1259 2394 
L 2053 2394 
Q 2494 2394 2734 2622 
Q 2975 2850 2975 3272 
Q 2975 3691 2734 3919 
Q 2494 4147 2053 4147 
L 1259 4147 
z
M 628 4666 
L 2053 4666 
Q 2838 4666 3239 4311 
Q 3641 3956 3641 3272 
Q 3641 2581 3239 2228 
Q 2838 1875 2053 1875 
L 1259 1875 
L 1259 0 
L 628 0 
L 628 4666 
z
" transform="scale(0.015625)"/>
       <path id="DejaVuSans-62" d="M 3116 1747 
Q 3116 2381 2855 2742 
Q 2594 3103 2138 3103 
Q 1681 3103 1420 2742 
Q 1159 2381 1159 1747 
Q 1159 1113 1420 752 
Q 1681 391 2138 391 
Q 2594 391 2855 752 
Q 3116 1113 3116 1747 
z
M 1159 2969 
Q 1341 3281 1617 3432 
Q 1894 3584 2278 3584 
Q 2916 3584 3314 3078 
Q 3713 2572 3713 1747 
Q 3713 922 3314 415 
Q 2916 -91 2278 -91 
Q 1894 -91 1617 61 
Q 1341 213 1159 525 
L 1159 0 
L 581 0 
L 581 4863 
L 1159 4863 
L 1159 2969 
z
" transform="scale(0.015625)"/>
      </defs>
      <use xlink:href="#DejaVuSans-4c"/>
      <use xlink:href="#DejaVuSans-65" transform="translate(53.962891 0)"/>
      <use xlink:href="#DejaVuSans-61" transform="translate(115.486328 0)"/>
      <use xlink:href="#DejaVuSans-6e" transform="translate(176.765625 0)"/>
      <use xlink:href="#DejaVuSans-20" transform="translate(240.144531 0)"/>
      <use xlink:href="#DejaVuSans-46" transform="translate(271.931641 0)"/>
      <use xlink:href="#DejaVuSans-6f" transform="translate(325.826172 0)"/>
      <use xlink:href="#DejaVuSans-72" transform="translate(387.007812 0)"/>
      <use xlink:href="#DejaVuSans-6d" transform="translate(426.371094 0)"/>
      <use xlink:href="#DejaVuSans-61" transform="translate(523.783203 0)"/>
      <use xlink:href="#DejaVuSans-6c" transform="translate(585.0625 0)"/>
      <use xlink:href="#DejaVuSans-69" transform="translate(612.845703 0)"/>
      <use xlink:href="#DejaVuSans-7a" transform="translate(640.628906 0)"/>
      <use xlink:href="#DejaVuSans-65" transform="translate(693.119141 0)"/>
      <use xlink:href="#DejaVuSans-64" transform="translate(754.642578 0)"/>
      <use xlink:href="#DejaVuSans-20" transform="translate(818.119141 0)"/>
      <use xlink:href="#DejaVuSans-50" transform="translate(849.90625 0)"/>
      <use xlink:href="#DejaVuSans-72" transform="translate(908.458984 0)"/>
      <use xlink:href="#DejaVuSans-6f" transform="translate(947.322266 0)"/>
      <use xlink:href="#DejaVuSans-62" transform="translate(1008.503906 0)"/>
      <use xlink:href="#DejaVuSans-6c" transform="translate(1071.980469 0)"/>
      <use xlink:href="#DejaVuSans-65" transform="translate(1099.763672 0)"/>
      <use xlink:href="#DejaVuSans-6d" transform="translate(1161.287109 0)"/>
     </g>
    </g>
    <g id="line2d_36">
     <path d="M 57.90125 80.8525 
L 67.90125 80.8525 
L 77.90125 80.8525 
" style="fill: none; stroke: #d29922; stroke-width: 2; stroke-linecap: square"/>
    </g>
    <g id="text_25">
     <!-- Lean Formalized Solution -->
     <g style="fill: #c9d1d9" transform="translate(85.90125 84.3525) scale(0.1 -0.1)">
      <use xlink:href="#DejaVuSans-4c"/>
      <use xlink:href="#DejaVuSans-65" transform="translate(53.962891 0)"/>
      <use xlink:href="#DejaVuSans-61" transform="translate(115.486328 0)"/>
      <use xlink:href="#DejaVuSans-6e" transform="translate(176.765625 0)"/>
      <use xlink:href="#DejaVuSans-20" transform="translate(240.144531 0)"/>
      <use xlink:href="#DejaVuSans-46" transform="translate(271.931641 0)"/>
      <use xlink:href="#DejaVuSans-6f" transform="translate(325.826172 0)"/>
      <use xlink:href="#DejaVuSans-72" transform="translate(387.007812 0)"/>
      <use xlink:href="#DejaVuSans-6d" transform="translate(426.371094 0)"/>
      <use xlink:href="#DejaVuSans-61" transform="translate(523.783203 0)"/>
      <use xlink:href="#DejaVuSans-6c" transform="translate(585.0625 0)"/>
      <use xlink:href="#DejaVuSans-69" transform="translate(612.845703 0)"/>
      <use xlink:href="#DejaVuSans-7a" transform="translate(640.628906 0)"/>
      <use xlink:href="#DejaVuSans-65" transform="translate(693.119141 0)"/>
      <use xlink:href="#DejaVuSans-64" transform="translate(754.642578 0)"/>
      <use xlink:href="#DejaVuSans-20" transform="translate(818.119141 0)"/>
      <use xlink:href="#DejaVuSans-53" transform="translate(849.90625 0)"/>
      <use xlink:href="#DejaVuSans-6f" transform="translate(913.382812 0)"/>
      <use xlink:href="#DejaVuSans-6c" transform="translate(974.564453 0)"/>
      <use xlink:href="#DejaVuSans-75" transform="translate(1002.347656 0)"/>
      <use xlink:href="#DejaVuSans-74" transform="translate(1065.726562 0)"/>
      <use xlink:href="#DejaVuSans-69" transform="translate(1104.935547 0)"/>
      <use xlink:href="#DejaVuSans-6f" transform="translate(1132.71875 0)"/>
      <use xlink:href="#DejaVuSans-6e" transform="translate(1193.900391 0)"/>
     </g>
    </g>
    <g id="line2d_37">
     <path d="M 57.90125 95.530625 
L 67.90125 95.530625 
L 77.90125 95.530625 
" style="fill: none; stroke: #f85149; stroke-width: 2; stroke-linecap: square"/>
    </g>
    <g id="text_26">
     <!-- OEIS Linked -->
     <g style="fill: #c9d1d9" transform="translate(85.90125 99.030625) scale(0.1 -0.1)">
      <defs>
       <path id="DejaVuSans-4f" d="M 2522 4238 
Q 1834 4238 1429 3725 
Q 1025 3213 1025 2328 
Q 1025 1447 1429 934 
Q 1834 422 2522 422 
Q 3209 422 3611 934 
Q 4013 1447 4013 2328 
Q 4013 3213 3611 3725 
Q 3209 4238 2522 4238 
z
M 2522 4750 
Q 3503 4750 4090 4092 
Q 4678 3434 4678 2328 
Q 4678 1225 4090 567 
Q 3503 -91 2522 -91 
Q 1538 -91 948 565 
Q 359 1222 359 2328 
Q 359 3434 948 4092 
Q 1538 4750 2522 4750 
z
" transform="scale(0.015625)"/>
       <path id="DejaVuSans-45" d="M 628 4666 
L 3578 4666 
L 3578 4134 
L 1259 4134 
L 1259 2753 
L 3481 2753 
L 3481 2222 
L 1259 2222 
L 1259 531 
L 3634 531 
L 3634 0 
L 628 0 
L 628 4666 
z
" transform="scale(0.015625)"/>
       <path id="DejaVuSans-49" d="M 628 4666 
L 1259 4666 
L 1259 0 
L 628 0 
L 628 4666 
z
" transform="scale(0.015625)"/>
       <path id="DejaVuSans-6b" d="M 581 4863 
L 1159 4863 
L 1159 1991 
L 2875 3500 
L 3609 3500 
L 1753 1863 
L 3688 0 
L 2938 0 
L 1159 1709 
L 1159 0 
L 581 0 
L 581 4863 
z
" transform="scale(0.015625)"/>
      </defs>
      <use xlink:href="#DejaVuSans-4f"/>
      <use xlink:href="#DejaVuSans-45" transform="translate(78.710938 0)"/>
      <use xlink:href="#DejaVuSans-49" transform="translate(141.894531 0)"/>
      <use xlink:href="#DejaVuSans-53" transform="translate(171.386719 0)"/>
      <use xlink:href="#DejaVuSans-20" transform="translate(234.863281 0)"/>
      <use xlink:href="#DejaVuSans-4c" transform="translate(266.650391 0)"/>
      <use xlink:href="#DejaVuSans-69" transform="translate(322.363281 0)"/>
      <use xlink:href="#DejaVuSans-6e" transform="translate(350.146484 0)"/>
      <use xlink:href="#DejaVuSans-6b" transform="translate(413.525391 0)"/>
      <use xlink:href="#DejaVuSans-65" transform="translate(467.810547 0)"/>
      <use xlink:href="#DejaVuSans-64" transform="translate(529.333984 0)"/>
     </g>
    </g>
    <g id="line2d_38">
     <path d="M 57.90125 110.20875 
L 67.90125 110.20875 
L 77.90125 110.20875 
" style="fill: none; stroke: #9467bd; stroke-width: 2; stroke-linecap: square"/>
    </g>
    <g id="text_27">
     <!-- Open Problems -->
     <g style="fill: #c9d1d9" transform="translate(85.90125 113.70875) scale(0.1 -0.1)">
      <defs>
       <path id="DejaVuSans-73" d="M 2834 3397 
L 2834 2853 
Q 2591 2978 2328 3040 
Q 2066 3103 1784 3103 
Q 1356 3103 1142 2972 
Q 928 2841 928 2578 
Q 928 2378 1081 2264 
Q 1234 2150 1697 2047 
L 1894 2003 
Q 2506 1872 2764 1633 
Q 3022 1394 3022 966 
Q 3022 478 2636 193 
Q 2250 -91 1575 -91 
Q 1294 -91 989 -36 
Q 684 19 347 128 
L 347 722 
Q 666 556 975 473 
Q 1284 391 1588 391 
Q 1994 391 2212 530 
Q 2431 669 2431 922 
Q 2431 1156 2273 1281 
Q 2116 1406 1581 1522 
L 1381 1569 
Q 847 1681 609 1914 
Q 372 2147 372 2553 
Q 372 3047 722 3315 
Q 1072 3584 1716 3584 
Q 2034 3584 2315 3537 
Q 2597 3491 2834 3397 
z
" transform="scale(0.015625)"/>
      </defs>
      <use xlink:href="#DejaVuSans-4f"/>
      <use xlink:href="#DejaVuSans-70" transform="translate(78.710938 0)"/>
      <use xlink:href="#DejaVuSans-65" transform="translate(142.1875 0)"/>
      <use xlink:href="#DejaVuSans-6e" transform="translate(203.710938 0)"/>
      <use xlink:href="#DejaVuSans-20" transform="translate(267.089844 0)"/>
      <use xlink:href="#DejaVuSans-50" transform="translate(298.876953 0)"/>
      <use xlink:href="#DejaVuSans-72" transform="translate(357.429688 0)"/>
      <use xlink:href="#DejaVuSans-6f" transform="translate(396.292969 0)"/>
      <use xlink:href="#DejaVuSans-62" transform="translate(457.474609 0)"/>
      <use xlink:href="#DejaVuSans-6c" transform="translate(520.951172 0)"/>
      <use xlink:href="#DejaVuSans-65" transform="translate(548.734375 0)"/>
      <use xlink:href="#DejaVuSans-6d" transform="translate(610.257812 0)"/>
      <use xlink:href="#DejaVuSans-73" transform="translate(707.669922 0)"/>
     </g>
    </g>
   </g>
  </g>
 </g>
 <defs>
  <clipPath id="p5b801d791b">
   <rect x="48.90125" y="38.397812" width="799.45" height="416.84"/>
  </clipPath>
 </defs>
</svg>
