<?xml version="1.0" encoding="utf-8" standalone="no"?>
<!DOCTYPE svg PUBLIC "-//W3C//DTD SVG 1.1//EN"
  "http://www.w3.org/Graphics/SVG/1.1/DTD/svg11.dtd">
<svg xmlns:xlink="http://www.w3.org/1999/xlink" width="855.55125pt" height="494.729687pt" viewBox="0 0 855.55125 494.729687" xmlns="http://www.w3.org/2000/svg" version="1.1">
 <metadata>
  <rdf:RDF xmlns:dc="http://purl.org/dc/elements/1.1/" xmlns:cc="http://creativecommons.org/ns#" xmlns:rdf="http://www.w3.org/1999/02/22-rdf-syntax-ns#">
   <cc:Work>
    <dc:type rdf:resource="http://purl.org/dc/dcmitype/StillImage"/>
    <dc:date>2026-05-03T20:11:27.323383</dc:date>
    <dc:format>image/svg+xml</dc:format>
    <dc:creator>
     <cc:Agent>
      <dc:title>Matplotlib v3.10.7, https://matplotlib.org/</dc:title>
     </cc:Agent>
    </dc:creator>
   </cc:Work>
  </rdf:RDF>
 </metadata>
 <defs>
  <style type="text/css">*{stroke-linejoin: round; stroke-linecap: butt}</style>
 </defs>
 <g id="figure_1">
  <g id="patch_1">
   <path d="M 0 494.729687 
L 855.55125 494.729687 
L 855.55125 0 
L 0 0 
z
" style="fill: #ffffff"/>
  </g>
  <g id="axes_1">
   <g id="patch_2">
    <path d="M 48.90125 455.237812 
L 848.35125 455.237812 
L 848.35125 38.397812 
L 48.90125 38.397812 
z
" style="fill: #ffffff"/>
   </g>
   <g id="matplotlib.axis_1">
    <g id="xtick_1">
     <g id="line2d_1">
      <path d="M 86.106611 455.237812 
L 86.106611 38.397812 
" clip-path="url(#p4b5d6c21d4)" style="fill: none; stroke: #d0d7de; stroke-opacity: 0.25; stroke-width: 0.5; stroke-linecap: square"/>
     </g>
     <g id="line2d_2">
      <defs>
       <path id="m37630bf1f4" d="M 0 0 
L 0 3.5 
" style="stroke: #24292f; stroke-width: 0.8"/>
      </defs>
      <g>
       <use xlink:href="#m37630bf1f4" x="86.106611" y="455.237812" style="fill: #24292f; stroke: #24292f; stroke-width: 0.8"/>
      </g>
     </g>
     <g id="text_1">
      <!-- Sep -->
      <g style="fill: #24292f" transform="translate(76.681611 469.83625) scale(0.1 -0.1)">
       <defs>
        <path id="DejaVuSans-53" d="M 3425 4513 
L 3425 3897 
Q 3066 4069 2747 4153 
Q 2428 4238 2131 4238 
Q 1616 4238 1336 4038 
Q 1056 3838 1056 3469 
Q 1056 3159 1242 3001 
Q 1428 2844 1947 2747 
L 2328 2669 
Q 3034 2534 3370 2195 
Q 3706 1856 3706 1288 
Q 3706 609 3251 259 
Q 2797 -91 1919 -91 
Q 1588 -91 1214 -16 
Q 841 59 441 206 
L 441 856 
Q 825 641 1194 531 
Q 1563 422 1919 422 
Q 2459 422 2753 634 
Q 3047 847 3047 1241 
Q 3047 1584 2836 1778 
Q 2625 1972 2144 2069 
L 1759 2144 
Q 1053 2284 737 2584 
Q 422 2884 422 3419 
Q 422 4038 858 4394 
Q 1294 4750 2059 4750 
Q 2388 4750 2728 4690 
Q 3069 4631 3425 4513 
z
" transform="scale(0.015625)"/>
        <path id="DejaVuSans-65" d="M 3597 1894 
L 3597 1613 
L 953 1613 
Q 991 1019 1311 708 
Q 1631 397 2203 397 
Q 2534 397 2845 478 
Q 3156 559 3463 722 
L 3463 178 
Q 3153 47 2828 -22 
Q 2503 -91 2169 -91 
Q 1331 -91 842 396 
Q 353 884 353 1716 
Q 353 2575 817 3079 
Q 1281 3584 2069 3584 
Q 2775 3584 3186 3129 
Q 3597 2675 3597 1894 
z
M 3022 2063 
Q 3016 2534 2758 2815 
Q 2500 3097 2075 3097 
Q 1594 3097 1305 2825 
Q 1016 2553 972 2059 
L 3022 2063 
z
" transform="scale(0.015625)"/>
        <path id="DejaVuSans-70" d="M 1159 525 
L 1159 -1331 
L 581 -1331 
L 581 3500 
L 1159 3500 
L 1159 2969 
Q 1341 3281 1617 3432 
Q 1894 3584 2278 3584 
Q 2916 3584 3314 3078 
Q 3713 2572 3713 1747 
Q 3713 922 3314 415 
Q 2916 -91 2278 -91 
Q 1894 -91 1617 61 
Q 1341 213 1159 525 
z
M 3116 1747 
Q 3116 2381 2855 2742 
Q 2594 3103 2138 3103 
Q 1681 3103 1420 2742 
Q 1159 2381 1159 1747 
Q 1159 1113 1420 752 
Q 1681 391 2138 391 
Q 2594 391 2855 752 
Q 3116 1113 3116 1747 
z
" transform="scale(0.015625)"/>
       </defs>
       <use xlink:href="#DejaVuSans-53"/>
       <use xlink:href="#DejaVuSans-65" transform="translate(63.476562 0)"/>
       <use xlink:href="#DejaVuSans-70" transform="translate(125 0)"/>
      </g>
     </g>
    </g>
    <g id="xtick_2">
     <g id="line2d_3">
      <path d="M 175.050679 455.237812 
L 175.050679 38.397812 
" clip-path="url(#p4b5d6c21d4)" style="fill: none; stroke: #d0d7de; stroke-opacity: 0.25; stroke-width: 0.5; stroke-linecap: square"/>
     </g>
     <g id="line2d_4">
      <g>
       <use xlink:href="#m37630bf1f4" x="175.050679" y="455.237812" style="fill: #24292f; stroke: #24292f; stroke-width: 0.8"/>
      </g>
     </g>
     <g id="text_2">
      <!-- Oct -->
      <g style="fill: #24292f" transform="translate(166.405367 469.83625) scale(0.1 -0.1)">
       <defs>
        <path id="DejaVuSans-4f" d="M 2522 4238 
Q 1834 4238 1429 3725 
Q 1025 3213 1025 2328 
Q 1025 1447 1429 934 
Q 1834 422 2522 422 
Q 3209 422 3611 934 
Q 4013 1447 4013 2328 
Q 4013 3213 3611 3725 
Q 3209 4238 2522 4238 
z
M 2522 4750 
Q 3503 4750 4090 4092 
Q 4678 3434 4678 2328 
Q 4678 1225 4090 567 
Q 3503 -91 2522 -91 
Q 1538 -91 948 565 
Q 359 1222 359 2328 
Q 359 3434 948 4092 
Q 1538 4750 2522 4750 
z
" transform="scale(0.015625)"/>
        <path id="DejaVuSans-63" d="M 3122 3366 
L 3122 2828 
Q 2878 2963 2633 3030 
Q 2388 3097 2138 3097 
Q 1578 3097 1268 2742 
Q 959 2388 959 1747 
Q 959 1106 1268 751 
Q 1578 397 2138 397 
Q 2388 397 2633 464 
Q 2878 531 3122 666 
L 3122 134 
Q 2881 22 2623 -34 
Q 2366 -91 2075 -91 
Q 1284 -91 818 406 
Q 353 903 353 1747 
Q 353 2603 823 3093 
Q 1294 3584 2113 3584 
Q 2378 3584 2631 3529 
Q 2884 3475 3122 3366 
z
" transform="scale(0.015625)"/>
        <path id="DejaVuSans-74" d="M 1172 4494 
L 1172 3500 
L 2356 3500 
L 2356 3053 
L 1172 3053 
L 1172 1153 
Q 1172 725 1289 603 
Q 1406 481 1766 481 
L 2356 481 
L 2356 0 
L 1766 0 
Q 1100 0 847 248 
Q 594 497 594 1153 
L 594 3053 
L 172 3053 
L 172 3500 
L 594 3500 
L 594 4494 
L 1172 4494 
z
" transform="scale(0.015625)"/>
       </defs>
       <use xlink:href="#DejaVuSans-4f"/>
       <use xlink:href="#DejaVuSans-63" transform="translate(78.710938 0)"/>
       <use xlink:href="#DejaVuSans-74" transform="translate(133.691406 0)"/>
      </g>
     </g>
    </g>
    <g id="xtick_3">
     <g id="line2d_5">
      <path d="M 266.959551 455.237812 
L 266.959551 38.397812 
" clip-path="url(#p4b5d6c21d4)" style="fill: none; stroke: #d0d7de; stroke-opacity: 0.25; stroke-width: 0.5; stroke-linecap: square"/>
     </g>
     <g id="line2d_6">
      <g>
       <use xlink:href="#m37630bf1f4" x="266.959551" y="455.237812" style="fill: #24292f; stroke: #24292f; stroke-width: 0.8"/>
      </g>
     </g>
     <g id="text_3">
      <!-- Nov -->
      <g style="fill: #24292f" transform="translate(257.200176 469.83625) scale(0.1 -0.1)">
       <defs>
        <path id="DejaVuSans-4e" d="M 628 4666 
L 1478 4666 
L 3547 763 
L 3547 4666 
L 4159 4666 
L 4159 0 
L 3309 0 
L 1241 3903 
L 1241 0 
L 628 0 
L 628 4666 
z
" transform="scale(0.015625)"/>
        <path id="DejaVuSans-6f" d="M 1959 3097 
Q 1497 3097 1228 2736 
Q 959 2375 959 1747 
Q 959 1119 1226 758 
Q 1494 397 1959 397 
Q 2419 397 2687 759 
Q 2956 1122 2956 1747 
Q 2956 2369 2687 2733 
Q 2419 3097 1959 3097 
z
M 1959 3584 
Q 2709 3584 3137 3096 
Q 3566 2609 3566 1747 
Q 3566 888 3137 398 
Q 2709 -91 1959 -91 
Q 1206 -91 779 398 
Q 353 888 353 1747 
Q 353 2609 779 3096 
Q 1206 3584 1959 3584 
z
" transform="scale(0.015625)"/>
        <path id="DejaVuSans-76" d="M 191 3500 
L 800 3500 
L 1894 563 
L 2988 3500 
L 3597 3500 
L 2284 0 
L 1503 0 
L 191 3500 
z
" transform="scale(0.015625)"/>
       </defs>
       <use xlink:href="#DejaVuSans-4e"/>
       <use xlink:href="#DejaVuSans-6f" transform="translate(74.804688 0)"/>
       <use xlink:href="#DejaVuSans-76" transform="translate(135.986328 0)"/>
      </g>
     </g>
    </g>
    <g id="xtick_4">
     <g id="line2d_7">
      <path d="M 355.90362 455.237812 
L 355.90362 38.397812 
" clip-path="url(#p4b5d6c21d4)" style="fill: none; stroke: #d0d7de; stroke-opacity: 0.25; stroke-width: 0.5; stroke-linecap: square"/>
     </g>
     <g id="line2d_8">
      <g>
       <use xlink:href="#m37630bf1f4" x="355.90362" y="455.237812" style="fill: #24292f; stroke: #24292f; stroke-width: 0.8"/>
      </g>
     </g>
     <g id="text_4">
      <!-- Dec -->
      <g style="fill: #24292f" transform="translate(346.227838 469.83625) scale(0.1 -0.1)">
       <defs>
        <path id="DejaVuSans-44" d="M 1259 4147 
L 1259 519 
L 2022 519 
Q 2988 519 3436 956 
Q 3884 1394 3884 2338 
Q 3884 3275 3436 3711 
Q 2988 4147 2022 4147 
L 1259 4147 
z
M 628 4666 
L 1925 4666 
Q 3281 4666 3915 4102 
Q 4550 3538 4550 2338 
Q 4550 1131 3912 565 
Q 3275 0 1925 0 
L 628 0 
L 628 4666 
z
" transform="scale(0.015625)"/>
       </defs>
       <use xlink:href="#DejaVuSans-44"/>
       <use xlink:href="#DejaVuSans-65" transform="translate(77.001953 0)"/>
       <use xlink:href="#DejaVuSans-63" transform="translate(138.525391 0)"/>
      </g>
     </g>
    </g>
    <g id="xtick_5">
     <g id="line2d_9">
      <path d="M 447.812491 455.237812 
L 447.812491 38.397812 
" clip-path="url(#p4b5d6c21d4)" style="fill: none; stroke: #d0d7de; stroke-opacity: 0.25; stroke-width: 0.5; stroke-linecap: square"/>
     </g>
     <g id="line2d_10">
      <g>
       <use xlink:href="#m37630bf1f4" x="447.812491" y="455.237812" style="fill: #24292f; stroke: #24292f; stroke-width: 0.8"/>
      </g>
     </g>
     <g id="text_5">
      <!-- 2026 -->
      <g style="fill: #24292f" transform="translate(435.087491 469.83625) scale(0.1 -0.1)">
       <defs>
        <path id="DejaVuSans-32" d="M 1228 531 
L 3431 531 
L 3431 0 
L 469 0 
L 469 531 
Q 828 903 1448 1529 
Q 2069 2156 2228 2338 
Q 2531 2678 2651 2914 
Q 2772 3150 2772 3378 
Q 2772 3750 2511 3984 
Q 2250 4219 1831 4219 
Q 1534 4219 1204 4116 
Q 875 4013 500 3803 
L 500 4441 
Q 881 4594 1212 4672 
Q 1544 4750 1819 4750 
Q 2544 4750 2975 4387 
Q 3406 4025 3406 3419 
Q 3406 3131 3298 2873 
Q 3191 2616 2906 2266 
Q 2828 2175 2409 1742 
Q 1991 1309 1228 531 
z
" transform="scale(0.015625)"/>
        <path id="DejaVuSans-30" d="M 2034 4250 
Q 1547 4250 1301 3770 
Q 1056 3291 1056 2328 
Q 1056 1369 1301 889 
Q 1547 409 2034 409 
Q 2525 409 2770 889 
Q 3016 1369 3016 2328 
Q 3016 3291 2770 3770 
Q 2525 4250 2034 4250 
z
M 2034 4750 
Q 2819 4750 3233 4129 
Q 3647 3509 3647 2328 
Q 3647 1150 3233 529 
Q 2819 -91 2034 -91 
Q 1250 -91 836 529 
Q 422 1150 422 2328 
Q 422 3509 836 4129 
Q 1250 4750 2034 4750 
z
" transform="scale(0.015625)"/>
        <path id="DejaVuSans-36" d="M 2113 2584 
Q 1688 2584 1439 2293 
Q 1191 2003 1191 1497 
Q 1191 994 1439 701 
Q 1688 409 2113 409 
Q 2538 409 2786 701 
Q 3034 994 3034 1497 
Q 3034 2003 2786 2293 
Q 2538 2584 2113 2584 
z
M 3366 4563 
L 3366 3988 
Q 3128 4100 2886 4159 
Q 2644 4219 2406 4219 
Q 1781 4219 1451 3797 
Q 1122 3375 1075 2522 
Q 1259 2794 1537 2939 
Q 1816 3084 2150 3084 
Q 2853 3084 3261 2657 
Q 3669 2231 3669 1497 
Q 3669 778 3244 343 
Q 2819 -91 2113 -91 
Q 1303 -91 875 529 
Q 447 1150 447 2328 
Q 447 3434 972 4092 
Q 1497 4750 2381 4750 
Q 2619 4750 2861 4703 
Q 3103 4656 3366 4563 
z
" transform="scale(0.015625)"/>
       </defs>
       <use xlink:href="#DejaVuSans-32"/>
       <use xlink:href="#DejaVuSans-30" transform="translate(63.623047 0)"/>
       <use xlink:href="#DejaVuSans-32" transform="translate(127.246094 0)"/>
       <use xlink:href="#DejaVuSans-36" transform="translate(190.869141 0)"/>
      </g>
     </g>
    </g>
    <g id="xtick_6">
     <g id="line2d_11">
      <path d="M 539.721362 455.237812 
L 539.721362 38.397812 
" clip-path="url(#p4b5d6c21d4)" style="fill: none; stroke: #d0d7de; stroke-opacity: 0.25; stroke-width: 0.5; stroke-linecap: square"/>
     </g>
     <g id="line2d_12">
      <g>
       <use xlink:href="#m37630bf1f4" x="539.721362" y="455.237812" style="fill: #24292f; stroke: #24292f; stroke-width: 0.8"/>
      </g>
     </g>
     <g id="text_6">
      <!-- Feb -->
      <g style="fill: #24292f" transform="translate(530.869799 469.83625) scale(0.1 -0.1)">
       <defs>
        <path id="DejaVuSans-46" d="M 628 4666 
L 3309 4666 
L 3309 4134 
L 1259 4134 
L 1259 2759 
L 3109 2759 
L 3109 2228 
L 1259 2228 
L 1259 0 
L 628 0 
L 628 4666 
z
" transform="scale(0.015625)"/>
        <path id="DejaVuSans-62" d="M 3116 1747 
Q 3116 2381 2855 2742 
Q 2594 3103 2138 3103 
Q 1681 3103 1420 2742 
Q 1159 2381 1159 1747 
Q 1159 1113 1420 752 
Q 1681 391 2138 391 
Q 2594 391 2855 752 
Q 3116 1113 3116 1747 
z
M 1159 2969 
Q 1341 3281 1617 3432 
Q 1894 3584 2278 3584 
Q 2916 3584 3314 3078 
Q 3713 2572 3713 1747 
Q 3713 922 3314 415 
Q 2916 -91 2278 -91 
Q 1894 -91 1617 61 
Q 1341 213 1159 525 
L 1159 0 
L 581 0 
L 581 4863 
L 1159 4863 
L 1159 2969 
z
" transform="scale(0.015625)"/>
       </defs>
       <use xlink:href="#DejaVuSans-46"/>
       <use xlink:href="#DejaVuSans-65" transform="translate(52.019531 0)"/>
       <use xlink:href="#DejaVuSans-62" transform="translate(113.542969 0)"/>
      </g>
     </g>
    </g>
    <g id="xtick_7">
     <g id="line2d_13">
      <path d="M 622.735826 455.237812 
L 622.735826 38.397812 
" clip-path="url(#p4b5d6c21d4)" style="fill: none; stroke: #d0d7de; stroke-opacity: 0.25; stroke-width: 0.5; stroke-linecap: square"/>
     </g>
     <g id="line2d_14">
      <g>
       <use xlink:href="#m37630bf1f4" x="622.735826" y="455.237812" style="fill: #24292f; stroke: #24292f; stroke-width: 0.8"/>
      </g>
     </g>
     <g id="text_7">
      <!-- Mar -->
      <g style="fill: #24292f" transform="translate(613.302232 469.83625) scale(0.1 -0.1)">
       <defs>
        <path id="DejaVuSans-4d" d="M 628 4666 
L 1569 4666 
L 2759 1491 
L 3956 4666 
L 4897 4666 
L 4897 0 
L 4281 0 
L 4281 4097 
L 3078 897 
L 2444 897 
L 1241 4097 
L 1241 0 
L 628 0 
L 628 4666 
z
" transform="scale(0.015625)"/>
        <path id="DejaVuSans-61" d="M 2194 1759 
Q 1497 1759 1228 1600 
Q 959 1441 959 1056 
Q 959 750 1161 570 
Q 1363 391 1709 391 
Q 2188 391 2477 730 
Q 2766 1069 2766 1631 
L 2766 1759 
L 2194 1759 
z
M 3341 1997 
L 3341 0 
L 2766 0 
L 2766 531 
Q 2569 213 2275 61 
Q 1981 -91 1556 -91 
Q 1019 -91 701 211 
Q 384 513 384 1019 
Q 384 1609 779 1909 
Q 1175 2209 1959 2209 
L 2766 2209 
L 2766 2266 
Q 2766 2663 2505 2880 
Q 2244 3097 1772 3097 
Q 1472 3097 1187 3025 
Q 903 2953 641 2809 
L 641 3341 
Q 956 3463 1253 3523 
Q 1550 3584 1831 3584 
Q 2591 3584 2966 3190 
Q 3341 2797 3341 1997 
z
" transform="scale(0.015625)"/>
        <path id="DejaVuSans-72" d="M 2631 2963 
Q 2534 3019 2420 3045 
Q 2306 3072 2169 3072 
Q 1681 3072 1420 2755 
Q 1159 2438 1159 1844 
L 1159 0 
L 581 0 
L 581 3500 
L 1159 3500 
L 1159 2956 
Q 1341 3275 1631 3429 
Q 1922 3584 2338 3584 
Q 2397 3584 2469 3576 
Q 2541 3569 2628 3553 
L 2631 2963 
z
" transform="scale(0.015625)"/>
       </defs>
       <use xlink:href="#DejaVuSans-4d"/>
       <use xlink:href="#DejaVuSans-61" transform="translate(86.279297 0)"/>
       <use xlink:href="#DejaVuSans-72" transform="translate(147.558594 0)"/>
      </g>
     </g>
    </g>
    <g id="xtick_8">
     <g id="line2d_15">
      <path d="M 714.644697 455.237812 
L 714.644697 38.397812 
" clip-path="url(#p4b5d6c21d4)" style="fill: none; stroke: #d0d7de; stroke-opacity: 0.25; stroke-width: 0.5; stroke-linecap: square"/>
     </g>
     <g id="line2d_16">
      <g>
       <use xlink:href="#m37630bf1f4" x="714.644697" y="455.237812" style="fill: #24292f; stroke: #24292f; stroke-width: 0.8"/>
      </g>
     </g>
     <g id="text_8">
      <!-- Apr -->
      <g style="fill: #24292f" transform="translate(705.994697 469.83625) scale(0.1 -0.1)">
       <defs>
        <path id="DejaVuSans-41" d="M 2188 4044 
L 1331 1722 
L 3047 1722 
L 2188 4044 
z
M 1831 4666 
L 2547 4666 
L 4325 0 
L 3669 0 
L 3244 1197 
L 1141 1197 
L 716 0 
L 50 0 
L 1831 4666 
z
" transform="scale(0.015625)"/>
       </defs>
       <use xlink:href="#DejaVuSans-41"/>
       <use xlink:href="#DejaVuSans-70" transform="translate(68.408203 0)"/>
       <use xlink:href="#DejaVuSans-72" transform="translate(131.884766 0)"/>
      </g>
     </g>
    </g>
    <g id="xtick_9">
     <g id="line2d_17">
      <path d="M 803.588766 455.237812 
L 803.588766 38.397812 
" clip-path="url(#p4b5d6c21d4)" style="fill: none; stroke: #d0d7de; stroke-opacity: 0.25; stroke-width: 0.5; stroke-linecap: square"/>
     </g>
     <g id="line2d_18">
      <g>
       <use xlink:href="#m37630bf1f4" x="803.588766" y="455.237812" style="fill: #24292f; stroke: #24292f; stroke-width: 0.8"/>
      </g>
     </g>
     <g id="text_9">
      <!-- May -->
      <g style="fill: #24292f" transform="translate(793.251266 469.83625) scale(0.1 -0.1)">
       <defs>
        <path id="DejaVuSans-79" d="M 2059 -325 
Q 1816 -950 1584 -1140 
Q 1353 -1331 966 -1331 
L 506 -1331 
L 506 -850 
L 844 -850 
Q 1081 -850 1212 -737 
Q 1344 -625 1503 -206 
L 1606 56 
L 191 3500 
L 800 3500 
L 1894 763 
L 2988 3500 
L 3597 3500 
L 2059 -325 
z
" transform="scale(0.015625)"/>
       </defs>
       <use xlink:href="#DejaVuSans-4d"/>
       <use xlink:href="#DejaVuSans-61" transform="translate(86.279297 0)"/>
       <use xlink:href="#DejaVuSans-79" transform="translate(147.558594 0)"/>
      </g>
     </g>
    </g>
    <g id="text_10">
     <!-- Date -->
     <g style="fill: #24292f" transform="translate(434.285313 485.034062) scale(0.12 -0.12)">
      <use xlink:href="#DejaVuSans-44"/>
      <use xlink:href="#DejaVuSans-61" transform="translate(77.001953 0)"/>
      <use xlink:href="#DejaVuSans-74" transform="translate(138.28125 0)"/>
      <use xlink:href="#DejaVuSans-65" transform="translate(177.490234 0)"/>
     </g>
    </g>
   </g>
   <g id="matplotlib.axis_2">
    <g id="ytick_1">
     <g id="line2d_19">
      <path d="M 48.90125 455.237812 
L 848.35125 455.237812 
" clip-path="url(#p4b5d6c21d4)" style="fill: none; stroke: #d0d7de; stroke-opacity: 0.25; stroke-width: 0.5; stroke-linecap: square"/>
     </g>
     <g id="line2d_20">
      <defs>
       <path id="ma6440a54de" d="M 0 0 
L -3.5 0 
" style="stroke: #24292f; stroke-width: 0.8"/>
      </defs>
      <g>
       <use xlink:href="#ma6440a54de" x="48.90125" y="455.237812" style="fill: #24292f; stroke: #24292f; stroke-width: 0.8"/>
      </g>
     </g>
     <g id="text_11">
      <!-- 0 -->
      <g style="fill: #24292f" transform="translate(35.53875 459.037031) scale(0.1 -0.1)">
       <use xlink:href="#DejaVuSans-30"/>
      </g>
     </g>
    </g>
    <g id="ytick_2">
     <g id="line2d_21">
      <path d="M 48.90125 399.659146 
L 848.35125 399.659146 
" clip-path="url(#p4b5d6c21d4)" style="fill: none; stroke: #d0d7de; stroke-opacity: 0.25; stroke-width: 0.5; stroke-linecap: square"/>
     </g>
     <g id="line2d_22">
      <g>
       <use xlink:href="#ma6440a54de" x="48.90125" y="399.659146" style="fill: #24292f; stroke: #24292f; stroke-width: 0.8"/>
      </g>
     </g>
     <g id="text_12">
      <!-- 100 -->
      <g style="fill: #24292f" transform="translate(22.81375 403.458365) scale(0.1 -0.1)">
       <defs>
        <path id="DejaVuSans-31" d="M 794 531 
L 1825 531 
L 1825 4091 
L 703 3866 
L 703 4441 
L 1819 4666 
L 2450 4666 
L 2450 531 
L 3481 531 
L 3481 0 
L 794 0 
L 794 531 
z
" transform="scale(0.015625)"/>
       </defs>
       <use xlink:href="#DejaVuSans-31"/>
       <use xlink:href="#DejaVuSans-30" transform="translate(63.623047 0)"/>
       <use xlink:href="#DejaVuSans-30" transform="translate(127.246094 0)"/>
      </g>
     </g>
    </g>
    <g id="ytick_3">
     <g id="line2d_23">
      <path d="M 48.90125 344.080479 
L 848.35125 344.080479 
" clip-path="url(#p4b5d6c21d4)" style="fill: none; stroke: #d0d7de; stroke-opacity: 0.25; stroke-width: 0.5; stroke-linecap: square"/>
     </g>
     <g id="line2d_24">
      <g>
       <use xlink:href="#ma6440a54de" x="48.90125" y="344.080479" style="fill: #24292f; stroke: #24292f; stroke-width: 0.8"/>
      </g>
     </g>
     <g id="text_13">
      <!-- 200 -->
      <g style="fill: #24292f" transform="translate(22.81375 347.879698) scale(0.1 -0.1)">
       <use xlink:href="#DejaVuSans-32"/>
       <use xlink:href="#DejaVuSans-30" transform="translate(63.623047 0)"/>
       <use xlink:href="#DejaVuSans-30" transform="translate(127.246094 0)"/>
      </g>
     </g>
    </g>
    <g id="ytick_4">
     <g id="line2d_25">
      <path d="M 48.90125 288.501812 
L 848.35125 288.501812 
" clip-path="url(#p4b5d6c21d4)" style="fill: none; stroke: #d0d7de; stroke-opacity: 0.25; stroke-width: 0.5; stroke-linecap: square"/>
     </g>
     <g id="line2d_26">
      <g>
       <use xlink:href="#ma6440a54de" x="48.90125" y="288.501812" style="fill: #24292f; stroke: #24292f; stroke-width: 0.8"/>
      </g>
     </g>
     <g id="text_14">
      <!-- 300 -->
      <g style="fill: #24292f" transform="translate(22.81375 292.301031) scale(0.1 -0.1)">
       <defs>
        <path id="DejaVuSans-33" d="M 2597 2516 
Q 3050 2419 3304 2112 
Q 3559 1806 3559 1356 
Q 3559 666 3084 287 
Q 2609 -91 1734 -91 
Q 1441 -91 1130 -33 
Q 819 25 488 141 
L 488 750 
Q 750 597 1062 519 
Q 1375 441 1716 441 
Q 2309 441 2620 675 
Q 2931 909 2931 1356 
Q 2931 1769 2642 2001 
Q 2353 2234 1838 2234 
L 1294 2234 
L 1294 2753 
L 1863 2753 
Q 2328 2753 2575 2939 
Q 2822 3125 2822 3475 
Q 2822 3834 2567 4026 
Q 2313 4219 1838 4219 
Q 1578 4219 1281 4162 
Q 984 4106 628 3988 
L 628 4550 
Q 988 4650 1302 4700 
Q 1616 4750 1894 4750 
Q 2613 4750 3031 4423 
Q 3450 4097 3450 3541 
Q 3450 3153 3228 2886 
Q 3006 2619 2597 2516 
z
" transform="scale(0.015625)"/>
       </defs>
       <use xlink:href="#DejaVuSans-33"/>
       <use xlink:href="#DejaVuSans-30" transform="translate(63.623047 0)"/>
       <use xlink:href="#DejaVuSans-30" transform="translate(127.246094 0)"/>
      </g>
     </g>
    </g>
    <g id="ytick_5">
     <g id="line2d_27">
      <path d="M 48.90125 232.923146 
L 848.35125 232.923146 
" clip-path="url(#p4b5d6c21d4)" style="fill: none; stroke: #d0d7de; stroke-opacity: 0.25; stroke-width: 0.5; stroke-linecap: square"/>
     </g>
     <g id="line2d_28">
      <g>
       <use xlink:href="#ma6440a54de" x="48.90125" y="232.923146" style="fill: #24292f; stroke: #24292f; stroke-width: 0.8"/>
      </g>
     </g>
     <g id="text_15">
      <!-- 400 -->
      <g style="fill: #24292f" transform="translate(22.81375 236.722365) scale(0.1 -0.1)">
       <defs>
        <path id="DejaVuSans-34" d="M 2419 4116 
L 825 1625 
L 2419 1625 
L 2419 4116 
z
M 2253 4666 
L 3047 4666 
L 3047 1625 
L 3713 1625 
L 3713 1100 
L 3047 1100 
L 3047 0 
L 2419 0 
L 2419 1100 
L 313 1100 
L 313 1709 
L 2253 4666 
z
" transform="scale(0.015625)"/>
       </defs>
       <use xlink:href="#DejaVuSans-34"/>
       <use xlink:href="#DejaVuSans-30" transform="translate(63.623047 0)"/>
       <use xlink:href="#DejaVuSans-30" transform="translate(127.246094 0)"/>
      </g>
     </g>
    </g>
    <g id="ytick_6">
     <g id="line2d_29">
      <path d="M 48.90125 177.344479 
L 848.35125 177.344479 
" clip-path="url(#p4b5d6c21d4)" style="fill: none; stroke: #d0d7de; stroke-opacity: 0.25; stroke-width: 0.5; stroke-linecap: square"/>
     </g>
     <g id="line2d_30">
      <g>
       <use xlink:href="#ma6440a54de" x="48.90125" y="177.344479" style="fill: #24292f; stroke: #24292f; stroke-width: 0.8"/>
      </g>
     </g>
     <g id="text_16">
      <!-- 500 -->
      <g style="fill: #24292f" transform="translate(22.81375 181.143698) scale(0.1 -0.1)">
       <defs>
        <path id="DejaVuSans-35" d="M 691 4666 
L 3169 4666 
L 3169 4134 
L 1269 4134 
L 1269 2991 
Q 1406 3038 1543 3061 
Q 1681 3084 1819 3084 
Q 2600 3084 3056 2656 
Q 3513 2228 3513 1497 
Q 3513 744 3044 326 
Q 2575 -91 1722 -91 
Q 1428 -91 1123 -41 
Q 819 9 494 109 
L 494 744 
Q 775 591 1075 516 
Q 1375 441 1709 441 
Q 2250 441 2565 725 
Q 2881 1009 2881 1497 
Q 2881 1984 2565 2268 
Q 2250 2553 1709 2553 
Q 1456 2553 1204 2497 
Q 953 2441 691 2322 
L 691 4666 
z
" transform="scale(0.015625)"/>
       </defs>
       <use xlink:href="#DejaVuSans-35"/>
       <use xlink:href="#DejaVuSans-30" transform="translate(63.623047 0)"/>
       <use xlink:href="#DejaVuSans-30" transform="translate(127.246094 0)"/>
      </g>
     </g>
    </g>
    <g id="ytick_7">
     <g id="line2d_31">
      <path d="M 48.90125 121.765812 
L 848.35125 121.765812 
" clip-path="url(#p4b5d6c21d4)" style="fill: none; stroke: #d0d7de; stroke-opacity: 0.25; stroke-width: 0.5; stroke-linecap: square"/>
     </g>
     <g id="line2d_32">
      <g>
       <use xlink:href="#ma6440a54de" x="48.90125" y="121.765812" style="fill: #24292f; stroke: #24292f; stroke-width: 0.8"/>
      </g>
     </g>
     <g id="text_17">
      <!-- 600 -->
      <g style="fill: #24292f" transform="translate(22.81375 125.565031) scale(0.1 -0.1)">
       <use xlink:href="#DejaVuSans-36"/>
       <use xlink:href="#DejaVuSans-30" transform="translate(63.623047 0)"/>
       <use xlink:href="#DejaVuSans-30" transform="translate(127.246094 0)"/>
      </g>
     </g>
    </g>
    <g id="ytick_8">
     <g id="line2d_33">
      <path d="M 48.90125 66.187146 
L 848.35125 66.187146 
" clip-path="url(#p4b5d6c21d4)" style="fill: none; stroke: #d0d7de; stroke-opacity: 0.25; stroke-width: 0.5; stroke-linecap: square"/>
     </g>
     <g id="line2d_34">
      <g>
       <use xlink:href="#ma6440a54de" x="48.90125" y="66.187146" style="fill: #24292f; stroke: #24292f; stroke-width: 0.8"/>
      </g>
     </g>
     <g id="text_18">
      <!-- 700 -->
      <g style="fill: #24292f" transform="translate(22.81375 69.986365) scale(0.1 -0.1)">
       <defs>
        <path id="DejaVuSans-37" d="M 525 4666 
L 3525 4666 
L 3525 4397 
L 1831 0 
L 1172 0 
L 2766 4134 
L 525 4134 
L 525 4666 
z
" transform="scale(0.015625)"/>
       </defs>
       <use xlink:href="#DejaVuSans-37"/>
       <use xlink:href="#DejaVuSans-30" transform="translate(63.623047 0)"/>
       <use xlink:href="#DejaVuSans-30" transform="translate(127.246094 0)"/>
      </g>
     </g>
    </g>
    <g id="text_19">
     <!-- Count -->
     <g style="fill: #24292f" transform="translate(16.318125 264.635937) rotate(-90) scale(0.12 -0.12)">
      <defs>
       <path id="DejaVuSans-43" d="M 4122 4306 
L 4122 3641 
Q 3803 3938 3442 4084 
Q 3081 4231 2675 4231 
Q 1875 4231 1450 3742 
Q 1025 3253 1025 2328 
Q 1025 1406 1450 917 
Q 1875 428 2675 428 
Q 3081 428 3442 575 
Q 3803 722 4122 1019 
L 4122 359 
Q 3791 134 3420 21 
Q 3050 -91 2638 -91 
Q 1578 -91 968 557 
Q 359 1206 359 2328 
Q 359 3453 968 4101 
Q 1578 4750 2638 4750 
Q 3056 4750 3426 4639 
Q 3797 4528 4122 4306 
z
" transform="scale(0.015625)"/>
       <path id="DejaVuSans-75" d="M 544 1381 
L 544 3500 
L 1119 3500 
L 1119 1403 
Q 1119 906 1312 657 
Q 1506 409 1894 409 
Q 2359 409 2629 706 
Q 2900 1003 2900 1516 
L 2900 3500 
L 3475 3500 
L 3475 0 
L 2900 0 
L 2900 538 
Q 2691 219 2414 64 
Q 2138 -91 1772 -91 
Q 1169 -91 856 284 
Q 544 659 544 1381 
z
M 1991 3584 
L 1991 3584 
z
" transform="scale(0.015625)"/>
       <path id="DejaVuSans-6e" d="M 3513 2113 
L 3513 0 
L 2938 0 
L 2938 2094 
Q 2938 2591 2744 2837 
Q 2550 3084 2163 3084 
Q 1697 3084 1428 2787 
Q 1159 2491 1159 1978 
L 1159 0 
L 581 0 
L 581 3500 
L 1159 3500 
L 1159 2956 
Q 1366 3272 1645 3428 
Q 1925 3584 2291 3584 
Q 2894 3584 3203 3211 
Q 3513 2838 3513 2113 
z
" transform="scale(0.015625)"/>
      </defs>
      <use xlink:href="#DejaVuSans-43"/>
      <use xlink:href="#DejaVuSans-6f" transform="translate(69.824219 0)"/>
      <use xlink:href="#DejaVuSans-75" transform="translate(131.005859 0)"/>
      <use xlink:href="#DejaVuSans-6e" transform="translate(194.384766 0)"/>
      <use xlink:href="#DejaVuSans-74" transform="translate(257.763672 0)"/>
     </g>
    </g>
   </g>
   <g id="line2d_35">
    <path d="M 85.239886 454.682026 
L 85.296677 454.682026 
L 85.433697 454.126239 
L 85.510905 454.126239 
L 85.700769 257.933546 
L 88.089116 257.933546 
L 88.100028 261.268266 
L 90.989475 261.268266 
L 91.129308 260.712479 
L 91.530449 260.712479 
L 91.855548 260.156692 
L 93.87 259.600906 
L 93.909771 260.156692 
L 93.979122 259.600906 
L 100.244497 259.600906 
L 104.007874 260.712479 
L 104.567824 259.600906 
L 104.976685 259.600906 
L 106.00716 259.045119 
L 106.438291 256.821972 
L 107.27777 256.821972 
L 108.501094 260.712479 
L 108.580464 256.821972 
L 109.519181 256.266186 
L 111.962226 256.266186 
L 112.606624 255.710399 
L 113.563803 255.710399 
L 113.877955 254.598826 
L 119.78649 254.598826 
L 120.221637 253.487252 
L 120.243941 252.375679 
L 122.122645 252.375679 
L 124.892882 251.264106 
L 126.346081 251.264106 
L 126.368077 250.708319 
L 129.705401 250.708319 
L 130.533281 247.929386 
L 133.153322 247.929386 
L 133.171509 247.373599 
L 147.84505 247.373599 
L 150.587904 246.817812 
L 150.681549 247.373599 
L 153.526249 246.817812 
L 163.425566 246.817812 
L 168.223639 246.262026 
L 168.316323 245.706239 
L 168.544242 245.150452 
L 171.250997 245.150452 
L 172.403015 244.594666 
L 177.153802 244.594666 
L 177.334161 247.373599 
L 177.343014 245.150452 
L 177.573987 245.150452 
L 178.720926 242.927306 
L 184.336413 242.927306 
L 188.640146 242.371519 
L 193.423463 242.371519 
L 193.633367 241.815732 
L 206.062786 241.815732 
L 206.593259 241.259946 
L 209.611284 241.259946 
L 209.632559 240.148372 
L 215.382971 240.148372 
L 215.499608 236.257866 
L 225.907539 236.257866 
L 225.910662 235.702079 
L 226.212083 235.702079 
L 227.523871 235.146292 
L 228.856968 235.146292 
L 229.280963 234.590506 
L 229.323376 235.146292 
L 230.29428 234.590506 
L 230.298707 234.034719 
L 230.321389 234.590506 
L 230.88223 234.034719 
L 235.991127 234.034719 
L 237.579527 233.478932 
L 239.464304 233.478932 
L 242.665569 232.923146 
L 245.696153 232.923146 
L 248.037592 231.811572 
L 253.16169 231.811572 
L 256.142415 230.699999 
L 256.982236 231.255786 
L 261.142533 231.255786 
L 265.835534 229.032639 
L 272.83456 229.032639 
L 275.005214 228.476852 
L 313.68885 228.476852 
L 314.001252 227.921066 
L 328.108289 227.921066 
L 328.343998 227.365279 
L 352.348499 227.365279 
L 357.63422 226.809492 
L 357.664794 227.365279 
L 361.448589 225.697919 
L 367.00152 225.697919 
L 370.033613 225.142132 
L 370.038589 224.586346 
L 376.365079 224.586346 
L 378.635726 225.142132 
L 379.451974 224.586346 
L 390.039681 224.586346 
L 390.490269 225.142132 
L 391.315678 224.586346 
L 391.599324 222.363199 
L 396.45134 222.363199 
L 396.455526 221.807412 
L 411.302598 221.807412 
L 412.167194 221.251626 
L 415.020542 221.251626 
L 415.298904 220.695839 
L 429.212783 220.695839 
L 429.23169 220.140052 
L 432.711764 220.140052 
L 432.716946 219.584266 
L 433.5614 219.584266 
L 433.605494 219.028479 
L 434.916836 219.028479 
L 435.122862 218.472692 
L 437.929542 218.472692 
L 438.356178 217.361119 
L 439.901273 215.137972 
L 443.637576 215.137972 
L 443.913433 212.359039 
L 445.166302 212.359039 
L 445.781189 211.247466 
L 448.949685 211.247466 
L 449.989356 210.691679 
L 452.965413 210.691679 
L 453.364289 210.135892 
L 461.447527 210.135892 
L 461.646691 209.580106 
L 462.394308 209.580106 
L 463.555008 209.024319 
L 476.629099 209.024319 
L 476.746559 208.468532 
L 477.165749 208.468532 
L 478.040846 207.356959 
L 479.267739 207.356959 
L 479.562744 206.801172 
L 479.846974 206.801172 
L 479.954825 206.245386 
L 483.235873 206.245386 
L 483.79445 205.689599 
L 486.650337 205.689599 
L 486.833441 205.133812 
L 488.397786 205.133812 
L 488.49802 204.578026 
L 493.359643 204.578026 
L 493.464166 204.022239 
L 496.299533 204.022239 
L 497.246554 201.799092 
L 498.29652 201.799092 
L 498.297618 201.243306 
L 502.560894 201.243306 
L 503.342483 200.687519 
L 506.606819 200.687519 
L 507.249776 200.131732 
L 507.491627 200.131732 
L 508.119864 199.575946 
L 509.724631 199.575946 
L 509.910103 199.020159 
L 513.934857 199.020159 
L 514.972297 198.464372 
L 515.047859 197.908586 
L 515.383732 197.908586 
L 516.443855 195.685439 
L 519.731594 195.685439 
L 519.755271 195.129652 
L 522.884236 195.129652 
L 523.182398 194.573866 
L 523.538105 194.573866 
L 523.895906 194.018079 
L 523.970541 194.573866 
L 524.238471 194.018079 
L 525.428853 194.018079 
L 525.440245 193.462292 
L 525.756354 193.462292 
L 525.89478 192.906506 
L 526.851272 192.350719 
L 533.506155 192.350719 
L 534.546306 191.794932 
L 535.242589 191.794932 
L 535.80748 191.239146 
L 536.378925 191.794932 
L 538.73179 191.794932 
L 538.833259 190.683359 
L 542.210972 190.683359 
L 543.521525 189.015999 
L 557.746639 189.015999 
L 558.573387 188.460212 
L 580.53063 188.460212 
L 580.665522 187.904426 
L 612.929399 187.904426 
L 613.071531 187.348639 
L 613.081723 186.792852 
L 613.091846 187.348639 
L 617.794249 187.348639 
L 618.855984 186.792852 
L 637.381847 186.792852 
L 641.194054 186.237066 
L 641.231114 185.681279 
L 641.546707 185.681279 
L 642.535249 185.125492 
L 672.26803 185.125492 
L 672.43758 184.569706 
L 698.997095 184.569706 
L 702.390902 184.013919 
L 704.466847 184.013919 
L 704.692124 183.458132 
L 706.134994 182.902346 
L 710.181297 182.902346 
L 711.885441 182.346559 
L 713.668646 182.346559 
L 713.807518 181.790772 
L 716.740545 181.790772 
L 717.090899 181.234986 
L 717.16025 180.679199 
L 722.382248 180.679199 
L 722.402494 180.123412 
L 726.848771 180.123412 
L 726.858585 179.567626 
L 728.365075 179.011839 
L 731.039505 179.011839 
L 732.964087 178.456052 
L 734.686452 178.456052 
L 737.224995 175.121332 
L 740.1887 175.121332 
L 740.202425 172.342399 
L 755.104023 172.342399 
L 755.105567 171.786612 
L 755.363306 171.230826 
L 756.790597 171.230826 
L 757.101044 170.675039 
L 761.782652 170.675039 
L 762.864908 170.119252 
L 763.042967 170.675039 
L 771.416543 170.675039 
L 771.418431 170.119252 
L 774.799301 170.119252 
L 776.18236 167.340319 
L 784.66118 167.340319 
L 784.751737 166.228746 
L 786.66877 164.561386 
L 788.592323 164.561386 
L 788.797217 164.005599 
L 796.883303 164.005599 
L 797.031989 163.449812 
L 805.151327 163.449812 
L 805.328185 162.894026 
L 807.565925 161.226666 
L 807.739318 160.670879 
L 812.012614 160.670879 
L 812.012614 160.670879 
" clip-path="url(#p4b5d6c21d4)" style="fill: none; stroke: #1a7f37; stroke-width: 2; stroke-linecap: square"/>
   </g>
   <g id="line2d_36">
    <path d="M 85.239886 455.237812 
L 85.332708 453.570452 
L 85.433697 453.570452 
L 85.591511 372.981386 
L 86.910916 372.981386 
L 86.939706 370.758239 
L 88.382886 370.758239 
L 88.754721 369.090879 
L 89.260659 370.758239 
L 89.2644 369.090879 
L 89.683041 369.090879 
L 89.844835 367.979306 
L 93.979122 367.979306 
L 93.983068 367.423519 
L 94.006333 367.979306 
L 94.20982 367.423519 
L 94.269494 367.979306 
L 94.428646 367.423519 
L 95.879443 367.423519 
L 95.955348 366.867732 
L 96.162094 366.311946 
L 97.800113 366.311946 
L 99.664164 365.756159 
L 99.729774 365.200372 
L 100.233585 364.644586 
L 100.244497 364.088799 
L 104.007874 367.979306 
L 104.567824 366.311946 
L 104.976685 363.533012 
L 107.27777 363.533012 
L 108.501094 367.979306 
L 108.580464 363.533012 
L 130.934559 363.533012 
L 131.620512 362.977226 
L 133.171509 362.977226 
L 137.407539 362.421439 
L 138.439386 361.865652 
L 153.14158 361.865652 
L 153.526249 361.309866 
L 155.502578 360.754079 
L 156.758707 360.754079 
L 158.151066 360.198292 
L 158.188572 359.086719 
L 159.145682 358.530932 
L 159.788948 357.975146 
L 168.650756 357.975146 
L 170.417284 357.419359 
L 170.951326 357.419359 
L 171.250997 356.863572 
L 172.403015 356.863572 
L 173.547518 356.307786 
L 177.153802 356.307786 
L 177.334161 358.530932 
L 177.343014 356.307786 
L 178.720926 356.307786 
L 178.859249 355.751999 
L 180.809636 355.751999 
L 182.728557 355.196212 
L 182.775122 354.640426 
L 188.640146 354.640426 
L 191.113937 354.084639 
L 191.120182 353.528852 
L 199.352176 353.528852 
L 202.786062 352.973066 
L 205.362351 352.973066 
L 206.062786 352.417279 
L 209.995301 352.417279 
L 212.238256 351.861492 
L 212.361207 351.305706 
L 214.547988 351.305706 
L 214.801781 350.749919 
L 215.499608 350.194132 
L 217.057398 350.194132 
L 218.04093 349.638346 
L 219.84421 349.638346 
L 221.02114 349.082559 
L 223.531888 349.082559 
L 224.387254 347.970986 
L 230.88223 347.970986 
L 232.731938 347.415199 
L 234.90091 347.415199 
L 235.390034 346.859412 
L 235.539612 346.303626 
L 235.991127 345.747839 
L 243.460233 345.747839 
L 244.827748 345.192052 
L 245.696153 344.636266 
L 266.935427 344.636266 
L 271.703131 344.080479 
L 271.760094 343.524692 
L 275.005214 343.524692 
L 277.778883 342.968906 
L 282.681307 342.968906 
L 283.095556 342.413119 
L 291.444597 342.413119 
L 297.98027 341.857332 
L 298.042998 341.301546 
L 298.897437 341.301546 
L 300.628587 340.745759 
L 300.725149 339.078399 
L 300.801328 338.522612 
L 304.417391 337.966826 
L 304.633918 337.411039 
L 304.72022 336.299466 
L 305.047721 335.743679 
L 316.81476 335.743679 
L 320.157575 335.187892 
L 322.285507 334.632106 
L 323.952522 334.632106 
L 327.817642 334.076319 
L 328.108289 331.853172 
L 328.343998 331.853172 
L 328.899727 330.741599 
L 336.231058 330.185812 
L 336.464399 329.630026 
L 336.533235 329.074239 
L 338.082104 329.074239 
L 339.544705 328.518452 
L 339.712814 327.962666 
L 339.826979 326.851092 
L 340.795104 326.295306 
L 340.86617 325.739519 
L 342.632561 325.183732 
L 344.95444 324.627946 
L 345.119563 324.072159 
L 345.123063 323.516372 
L 345.590088 322.960586 
L 345.672581 322.404799 
L 349.040686 321.849012 
L 349.64449 321.293226 
L 363.823622 321.293226 
L 366.175012 320.737439 
L 366.389 320.181652 
L 375.99894 320.181652 
L 376.365079 319.070079 
L 380.369038 319.070079 
L 381.577881 318.514292 
L 381.636937 317.402719 
L 381.947349 316.846932 
L 384.002773 316.291146 
L 384.049064 315.735359 
L 384.297161 315.179572 
L 384.551399 312.956426 
L 384.8346 312.956426 
L 384.845031 312.400639 
L 386.560945 311.844852 
L 387.23554 311.289066 
L 387.398776 310.733279 
L 390.490269 310.177492 
L 392.768568 310.177492 
L 393.559697 309.621706 
L 402.125539 309.621706 
L 404.963342 309.065919 
L 404.974632 308.510132 
L 405.484997 307.954346 
L 412.167194 307.954346 
L 414.042089 307.398559 
L 414.814447 306.842772 
L 415.020542 305.731199 
L 420.425747 305.731199 
L 420.794014 305.175412 
L 423.762179 305.175412 
L 425.183191 304.619626 
L 429.23169 304.619626 
L 431.679196 304.063839 
L 436.761876 304.063839 
L 437.386578 303.508052 
L 439.901273 303.508052 
L 440.585751 302.952266 
L 440.882677 302.396479 
L 441.028927 301.840692 
L 443.098901 301.840692 
L 443.157751 300.729119 
L 443.913433 300.729119 
L 444.409591 299.061759 
L 446.210193 299.061759 
L 446.433823 298.505972 
L 446.607422 298.505972 
L 447.469274 297.950186 
L 448.899482 297.950186 
L 448.949685 297.394399 
L 449.989356 297.394399 
L 450.241879 296.838612 
L 451.219062 296.838612 
L 452.715224 295.727039 
L 453.364289 295.727039 
L 455.874591 294.615466 
L 455.878366 294.059679 
L 456.357641 293.503892 
L 457.580485 292.948106 
L 457.770623 292.392319 
L 458.98983 291.836532 
L 460.982836 291.836532 
L 461.646691 290.724959 
L 464.077348 290.724959 
L 464.146355 290.169172 
L 464.838829 290.169172 
L 464.891982 289.613386 
L 465.271985 289.057599 
L 466.594204 289.057599 
L 466.694781 288.501812 
L 466.921293 288.501812 
L 467.044003 287.946026 
L 467.068882 287.946026 
L 467.176973 287.390239 
L 468.931285 287.390239 
L 469.299484 286.834452 
L 469.60866 286.834452 
L 469.793446 286.278666 
L 470.265343 286.278666 
L 470.618649 285.722879 
L 470.693147 285.167092 
L 470.794135 285.167092 
L 472.570168 284.611306 
L 473.899216 284.611306 
L 473.999828 284.055519 
L 479.242586 284.055519 
L 479.267739 283.499732 
L 479.562744 283.499732 
L 480.149733 282.388159 
L 482.027613 282.388159 
L 482.19181 280.720799 
L 482.239713 279.609226 
L 482.549199 279.053439 
L 483.79445 279.053439 
L 484.381749 278.497652 
L 484.950997 278.497652 
L 485.134548 277.941866 
L 486.016954 277.386079 
L 486.833441 277.386079 
L 488.474891 276.830292 
L 488.584081 276.274506 
L 488.999634 276.274506 
L 489.082779 275.718719 
L 490.541949 275.718719 
L 490.582475 275.162932 
L 497.658916 275.162932 
L 497.768243 274.607146 
L 497.978764 274.607146 
L 498.072101 273.495572 
L 498.983297 273.495572 
L 499.056799 272.939786 
L 499.17721 272.939786 
L 499.808329 272.383999 
L 499.966966 271.828212 
L 500.256824 271.828212 
L 500.502106 271.272426 
L 500.58206 270.716639 
L 504.137798 270.716639 
L 505.035303 270.160852 
L 505.212573 269.049279 
L 505.431021 268.493492 
L 505.795685 268.493492 
L 506.017942 267.937706 
L 511.120834 267.937706 
L 511.457703 266.270346 
L 512.154946 266.270346 
L 512.257307 265.714559 
L 514.981871 265.714559 
L 515.047859 264.602986 
L 518.32019 264.602986 
L 518.354093 264.047199 
L 519.930449 264.047199 
L 519.941052 263.491412 
L 520.708675 263.491412 
L 520.835983 262.935626 
L 523.066173 262.935626 
L 523.182398 262.379839 
L 523.330466 262.379839 
L 523.538105 261.824052 
L 523.959594 261.824052 
L 523.970541 261.268266 
L 524.238471 261.268266 
L 524.749591 260.712479 
L 528.877941 260.712479 
L 529.17799 260.156692 
L 530.402926 260.156692 
L 530.405191 259.600906 
L 539.770604 259.600906 
L 541.36017 259.045119 
L 541.406255 258.489332 
L 542.210972 257.933546 
L 543.434605 257.933546 
L 543.521525 256.821972 
L 543.742855 256.821972 
L 543.834991 256.266186 
L 547.084743 256.266186 
L 547.671596 255.710399 
L 553.292813 255.710399 
L 553.310108 255.154612 
L 555.146055 255.154612 
L 555.930663 254.598826 
L 564.571964 254.598826 
L 564.679816 253.487252 
L 568.078289 253.487252 
L 568.754257 252.931466 
L 569.478129 252.931466 
L 570.36304 252.375679 
L 576.212313 252.375679 
L 576.772434 251.819892 
L 577.257783 251.819892 
L 577.495757 251.264106 
L 579.359121 250.708319 
L 580.271279 250.708319 
L 580.56872 250.152532 
L 580.665522 250.152532 
L 583.283367 249.596746 
L 588.103332 249.596746 
L 588.480521 249.040959 
L 607.084278 249.040959 
L 607.764021 248.485172 
L 612.066175 248.485172 
L 612.221656 247.929386 
L 612.501116 247.929386 
L 612.585359 247.373599 
L 636.611067 247.373599 
L 637.381847 246.817812 
L 643.118362 246.817812 
L 644.364505 246.262026 
L 644.448027 245.706239 
L 647.432698 245.706239 
L 647.55654 245.150452 
L 657.224198 245.150452 
L 657.243997 244.594666 
L 665.405096 244.594666 
L 665.492942 244.038879 
L 666.023003 243.483092 
L 668.025686 243.483092 
L 668.030284 242.927306 
L 668.437258 242.371519 
L 671.444165 242.371519 
L 672.43758 241.815732 
L 678.849376 241.815732 
L 678.894535 240.704159 
L 719.537616 240.704159 
L 722.402494 240.148372 
L 726.006856 240.148372 
L 726.126615 239.592586 
L 742.106453 239.592586 
L 742.133287 239.036799 
L 758.820972 239.036799 
L 758.992992 238.481012 
L 759.985824 238.481012 
L 760.011697 237.925226 
L 760.236082 237.369439 
L 761.108948 236.257866 
L 761.237252 235.146292 
L 761.311406 234.034719 
L 761.534967 233.478932 
L 761.58668 232.923146 
L 761.782652 232.367359 
L 763.042967 232.367359 
L 763.199649 231.811572 
L 763.207027 231.255786 
L 763.679645 230.699999 
L 771.418431 230.699999 
L 772.252556 229.588426 
L 796.661904 229.588426 
L 796.817007 229.032639 
L 811.716099 229.032639 
L 812.012614 227.921066 
L 812.012614 227.921066 
" clip-path="url(#p4b5d6c21d4)" style="fill: none; stroke: #0969da; stroke-width: 2; stroke-linecap: square"/>
   </g>
   <g id="line2d_37">
    <path d="M 85.239886 455.237812 
L 88.089116 455.237812 
L 88.100028 454.126239 
L 90.452242 454.126239 
L 90.989475 453.570452 
L 235.991127 453.570452 
L 237.579527 453.014666 
L 277.778883 453.014666 
L 278.894493 452.458879 
L 316.81476 452.458879 
L 320.157575 451.903092 
L 328.899727 451.903092 
L 336.533235 450.235732 
L 338.082104 449.124159 
L 340.86617 449.124159 
L 342.632561 448.568372 
L 345.123063 448.012586 
L 345.672581 448.012586 
L 349.040686 447.456799 
L 349.64449 446.901012 
L 352.348499 446.345226 
L 357.63422 445.789439 
L 357.664794 446.345226 
L 366.389 446.345226 
L 367.00152 445.789439 
L 379.451974 445.789439 
L 380.369038 445.233652 
L 384.551399 445.233652 
L 384.845031 444.677866 
L 390.039681 444.677866 
L 390.490269 444.122079 
L 409.520079 444.122079 
L 411.302598 443.566292 
L 412.051759 443.566292 
L 412.167194 443.010506 
L 417.2461 443.010506 
L 417.250938 442.454719 
L 429.212783 442.454719 
L 429.23169 441.898932 
L 432.716946 441.898932 
L 433.605494 441.343146 
L 434.914537 440.787359 
L 434.916836 440.231572 
L 435.122862 440.231572 
L 436.761876 438.564212 
L 437.865991 438.564212 
L 437.929542 436.896852 
L 438.356178 436.896852 
L 439.901273 437.452639 
L 441.012456 437.452639 
L 441.028927 435.229492 
L 445.166302 435.229492 
L 445.781189 434.673706 
L 446.433823 434.673706 
L 446.607422 434.117919 
L 461.447527 434.117919 
L 461.646691 433.562132 
L 462.394308 433.562132 
L 463.555008 433.006346 
L 468.675846 433.006346 
L 468.931285 432.450559 
L 470.693147 432.450559 
L 470.794135 431.894772 
L 476.629099 431.894772 
L 476.746559 431.338986 
L 477.165749 431.338986 
L 477.59091 430.783199 
L 478.015659 430.783199 
L 478.040846 430.227412 
L 479.846974 430.227412 
L 479.954825 429.671626 
L 488.339622 429.671626 
L 488.453925 429.115839 
L 488.49802 429.115839 
L 488.584081 428.560052 
L 489.082779 428.560052 
L 490.128215 428.004266 
L 494.215421 428.004266 
L 494.219024 427.448479 
L 494.999996 427.448479 
L 495.029712 426.892692 
L 497.246554 426.892692 
L 497.768243 426.336906 
L 500.666474 426.336906 
L 501.523316 425.781119 
L 503.189679 425.781119 
L 503.207351 424.669546 
L 503.342483 424.669546 
L 503.512547 424.113759 
L 506.193188 424.113759 
L 506.606819 423.557972 
L 507.249776 423.557972 
L 507.491627 423.002186 
L 509.060982 423.002186 
L 509.280117 422.446399 
L 509.282931 421.890612 
L 509.724631 421.890612 
L 509.910103 421.334826 
L 526.815378 421.334826 
L 526.851272 420.223252 
L 529.17799 420.223252 
L 529.847644 419.667466 
L 530.405191 419.667466 
L 533.020703 419.111679 
L 533.506155 419.111679 
L 534.546306 418.555892 
L 535.242589 418.555892 
L 535.80748 418.000106 
L 536.378925 418.555892 
L 538.218509 418.555892 
L 538.718751 418.000106 
L 538.833259 416.888532 
L 539.764324 416.332746 
L 539.770604 415.221172 
L 543.834991 415.221172 
L 544.723848 414.665386 
L 544.813925 412.998026 
L 545.702336 412.442239 
L 546.193656 411.886452 
L 550.395783 411.886452 
L 550.574082 410.219092 
L 550.788413 410.219092 
L 550.947325 409.663306 
L 551.9743 409.107519 
L 553.590837 409.107519 
L 553.923863 408.551732 
L 553.99963 407.995946 
L 554.169557 407.995946 
L 555.146055 406.884372 
L 556.19228 406.884372 
L 556.535806 406.328586 
L 557.742659 406.328586 
L 557.746639 405.217012 
L 558.573387 405.217012 
L 559.670947 404.661226 
L 562.578752 403.549652 
L 562.838344 402.993866 
L 568.754257 402.993866 
L 569.478129 401.882292 
L 580.53063 401.882292 
L 580.665522 400.770719 
L 586.045231 400.770719 
L 586.867209 400.214932 
L 589.361589 400.214932 
L 589.501593 399.659146 
L 604.847293 399.659146 
L 605.092233 399.103359 
L 606.612243 399.103359 
L 607.084278 398.547572 
L 609.921086 398.547572 
L 610.454613 397.991786 
L 610.458113 397.435999 
L 611.0683 396.880212 
L 612.929399 396.880212 
L 613.071531 396.324426 
L 613.081723 395.212852 
L 613.091846 395.768639 
L 614.342485 395.212852 
L 618.855984 395.212852 
L 619.746283 394.101279 
L 627.890053 394.101279 
L 628.519696 393.545492 
L 630.495304 393.545492 
L 630.653461 392.989706 
L 630.675217 392.433919 
L 637.381847 392.433919 
L 641.546707 391.322346 
L 642.535249 391.322346 
L 643.118362 390.766559 
L 651.745387 390.766559 
L 652.805784 390.210772 
L 654.119734 390.210772 
L 655.3923 389.654986 
L 666.023003 389.654986 
L 666.314748 389.099199 
L 666.316327 388.543412 
L 672.26803 388.543412 
L 672.43758 387.987626 
L 698.997095 387.987626 
L 702.390902 387.431839 
L 710.181297 387.431839 
L 711.885441 386.876052 
L 713.384862 386.876052 
L 713.668646 386.320266 
L 717.16025 386.320266 
L 717.750053 385.764479 
L 718.527936 385.764479 
L 719.537616 385.208692 
L 721.957808 385.208692 
L 722.402494 384.652906 
L 722.700381 384.652906 
L 723.784867 384.097119 
L 734.262252 384.097119 
L 734.291557 382.429759 
L 743.433648 382.429759 
L 747.310367 381.873972 
L 747.313524 381.318186 
L 751.859417 381.318186 
L 752.050242 380.762399 
L 752.053056 380.206612 
L 754.179444 380.206612 
L 755.105567 379.650826 
L 755.768084 379.650826 
L 756.790597 379.095039 
L 757.887883 379.095039 
L 758.077507 377.983466 
L 758.992992 377.983466 
L 759.175444 377.427679 
L 761.235467 377.427679 
L 761.311406 376.871892 
L 764.558414 376.871892 
L 766.91073 376.316106 
L 767.682299 376.316106 
L 768.439731 375.760319 
L 770.004385 375.204532 
L 770.011076 374.648746 
L 770.442551 372.981386 
L 770.836829 372.425599 
L 771.418431 371.869812 
L 772.97708 371.869812 
L 773.922316 370.202452 
L 776.18236 370.202452 
L 776.794297 368.535092 
L 779.281162 368.535092 
L 779.544494 367.979306 
L 781.34695 367.979306 
L 781.738654 366.867732 
L 782.417367 366.311946 
L 784.751737 366.311946 
L 788.797217 365.200372 
L 791.390972 364.644586 
L 791.567179 364.088799 
L 794.020519 364.088799 
L 794.177475 363.533012 
L 796.870915 363.533012 
L 796.883303 362.977226 
L 797.388212 362.977226 
L 797.498877 362.421439 
L 805.151327 362.421439 
L 805.328185 361.865652 
L 807.739318 361.309866 
L 811.704741 361.309866 
L 811.716099 360.754079 
L 812.012614 360.754079 
L 812.012614 360.754079 
" clip-path="url(#p4b5d6c21d4)" style="fill: none; stroke: #bf8700; stroke-width: 2; stroke-linecap: square"/>
   </g>
   <g id="line2d_38">
    <path d="M 85.239886 454.682026 
L 85.48359 454.682026 
L 85.591511 432.450559 
L 86.155509 426.892692 
L 86.477794 425.781119 
L 86.641304 426.336906 
L 86.939706 425.781119 
L 87.444375 425.225332 
L 87.794523 424.113759 
L 88.089116 423.557972 
L 88.100028 423.002186 
L 88.382886 421.334826 
L 88.754721 421.334826 
L 89.260659 420.779039 
L 89.2644 420.223252 
L 89.671751 419.667466 
L 89.784064 419.111679 
L 89.844835 419.111679 
L 90.452242 418.555892 
L 90.886222 418.000106 
L 90.989475 411.886452 
L 91.060884 412.442239 
L 91.332555 406.328586 
L 91.337393 407.995946 
L 91.530449 402.993866 
L 93.983068 402.993866 
L 94.20982 399.659146 
L 94.269494 402.438079 
L 94.545968 397.991786 
L 94.682885 397.435999 
L 95.702962 396.880212 
L 95.733742 396.324426 
L 95.955348 395.768639 
L 96.162094 395.768639 
L 96.68742 395.212852 
L 96.968047 394.657066 
L 97.095149 393.545492 
L 97.172461 392.989706 
L 97.434626 392.433919 
L 97.441112 391.878132 
L 97.704787 392.433919 
L 97.779833 391.878132 
L 97.789064 392.433919 
L 97.800113 390.766559 
L 100.244497 390.766559 
L 104.007874 402.993866 
L 104.567824 390.210772 
L 104.976685 389.654986 
L 106.438291 389.654986 
L 106.705638 389.099199 
L 107.27777 388.543412 
L 108.501094 402.993866 
L 108.580464 387.987626 
L 109.519181 387.431839 
L 111.526633 386.876052 
L 111.669795 387.431839 
L 111.962226 385.764479 
L 112.606624 385.764479 
L 112.802425 385.208692 
L 113.172236 384.652906 
L 113.202913 383.541332 
L 113.544037 382.429759 
L 113.563803 382.985546 
L 113.766706 382.985546 
L 113.877955 381.873972 
L 114.220417 379.650826 
L 114.265438 378.539252 
L 114.704805 376.871892 
L 114.919548 377.983466 
L 116.437911 374.648746 
L 116.837713 375.760319 
L 118.483041 373.537172 
L 119.78649 377.427679 
L 120.243941 373.537172 
L 122.122645 371.869812 
L 124.892882 371.869812 
L 125.258747 371.314026 
L 125.549908 369.646666 
L 126.368077 371.314026 
L 129.705401 371.869812 
L 130.533281 369.646666 
L 130.934559 367.979306 
L 131.620512 369.646666 
L 133.171509 367.979306 
L 138.439386 367.979306 
L 143.978591 367.423519 
L 144.34799 366.867732 
L 147.84505 366.311946 
L 150.157458 366.311946 
L 150.587904 365.756159 
L 150.681549 366.311946 
L 153.14158 364.644586 
L 155.449013 364.644586 
L 155.502578 364.088799 
L 156.758707 363.533012 
L 159.788948 363.533012 
L 161.125648 359.642506 
L 162.120538 359.086719 
L 163.400722 358.530932 
L 163.425566 357.975146 
L 168.223639 357.975146 
L 168.316323 354.084639 
L 168.493903 354.084639 
L 168.650756 352.973066 
L 170.417284 352.973066 
L 170.951326 352.417279 
L 173.547518 352.417279 
L 177.153802 351.861492 
L 177.334161 363.533012 
L 177.343014 352.417279 
L 177.573987 351.861492 
L 178.859249 351.861492 
L 180.809636 351.305706 
L 182.775122 351.305706 
L 184.336413 350.749919 
L 188.640146 349.638346 
L 191.120182 349.638346 
L 193.113326 349.082559 
L 193.423463 346.303626 
L 193.633367 346.303626 
L 194.004791 345.747839 
L 195.942173 345.192052 
L 196.390016 342.968906 
L 199.067637 341.857332 
L 199.099893 342.413119 
L 199.352176 341.857332 
L 202.786062 340.745759 
L 205.362351 340.189972 
L 206.593259 340.189972 
L 207.684265 339.634186 
L 208.629742 338.522612 
L 209.632559 337.966826 
L 209.995301 337.411039 
L 212.361207 337.966826 
L 214.547988 336.855252 
L 214.801781 337.411039 
L 215.382971 337.411039 
L 215.499608 336.855252 
L 217.057398 336.299466 
L 218.04093 336.855252 
L 219.84421 335.743679 
L 221.02114 335.743679 
L 223.531888 335.187892 
L 223.94823 335.743679 
L 224.387254 334.076319 
L 225.910662 334.076319 
L 226.212083 333.520532 
L 227.523871 331.297386 
L 227.894506 330.185812 
L 228.856968 330.741599 
L 229.280963 329.630026 
L 229.323376 329.074239 
L 232.731938 329.074239 
L 234.458283 328.518452 
L 234.90091 327.962666 
L 237.579527 327.962666 
L 239.464304 327.406879 
L 242.665569 327.406879 
L 243.460233 326.851092 
L 252.263156 326.851092 
L 252.768717 326.295306 
L 252.819365 325.739519 
L 253.16169 325.183732 
L 256.982236 325.183732 
L 257.220347 324.627946 
L 258.192383 324.072159 
L 258.360732 323.516372 
L 259.971196 322.960586 
L 261.142533 322.404799 
L 265.835534 322.404799 
L 266.935427 321.293226 
L 271.760094 321.293226 
L 272.83456 320.737439 
L 277.330971 320.737439 
L 277.778883 320.181652 
L 278.894493 319.625866 
L 279.226592 319.070079 
L 279.33935 318.514292 
L 282.681307 317.958506 
L 283.095556 318.514292 
L 287.495027 317.402719 
L 290.973488 316.291146 
L 291.444597 315.735359 
L 298.042998 315.735359 
L 298.897437 315.179572 
L 305.047721 315.179572 
L 310.841164 314.623786 
L 311.569874 314.067999 
L 314.001252 313.512212 
L 316.439493 312.956426 
L 316.81476 312.400639 
L 322.285507 312.400639 
L 323.952522 311.844852 
L 336.533235 311.844852 
L 338.082104 311.289066 
L 348.474113 311.289066 
L 349.040686 310.733279 
L 349.64449 311.289066 
L 352.348499 310.733279 
L 361.448589 310.733279 
L 362.66807 310.177492 
L 381.918936 310.177492 
L 381.947349 309.621706 
L 393.836686 309.621706 
L 396.448835 309.065919 
L 396.455526 308.510132 
L 409.51428 308.510132 
L 409.520079 307.398559 
L 417.250938 307.398559 
L 420.794014 306.842772 
L 425.183191 306.842772 
L 429.23169 305.731199 
L 437.386578 305.731199 
L 437.865991 305.175412 
L 437.929542 304.619626 
L 441.012456 304.619626 
L 441.028927 304.063839 
L 441.34905 304.063839 
L 441.859346 303.508052 
L 446.433823 303.508052 
L 446.607422 302.952266 
L 452.715224 302.952266 
L 452.965413 302.396479 
L 467.881663 302.396479 
L 468.674713 300.729119 
L 468.675846 300.173332 
L 470.789091 300.173332 
L 470.794135 299.617546 
L 477.02746 299.617546 
L 477.165749 299.061759 
L 480.149733 299.061759 
L 480.256933 298.505972 
L 491.342274 298.505972 
L 491.555438 297.950186 
L 494.128502 297.950186 
L 494.219024 297.394399 
L 495.029712 296.838612 
L 515.383732 296.838612 
L 516.443855 295.727039 
L 518.03071 295.727039 
L 518.354093 295.171252 
L 519.941052 295.171252 
L 520.176246 294.615466 
L 523.925726 294.615466 
L 523.970541 294.059679 
L 544.722098 294.059679 
L 544.813925 292.948106 
L 570.752547 292.948106 
L 571.426216 292.392319 
L 615.7135 292.392319 
L 617.794249 291.836532 
L 636.510387 291.836532 
L 636.611067 291.280746 
L 644.990236 291.280746 
L 645.397519 290.724959 
L 811.237167 290.724959 
L 811.716099 290.169172 
L 812.012614 290.169172 
L 812.012614 290.169172 
" clip-path="url(#p4b5d6c21d4)" style="fill: none; stroke: #cf222e; stroke-width: 2; stroke-linecap: square"/>
   </g>
   <g id="line2d_39">
    <path d="M 85.239886 454.682026 
L 85.259274 454.126239 
L 85.412133 -1 
M 85.549521 -1 
L 85.700769 101.201706 
L 88.089116 101.201706 
L 88.100028 97.866986 
L 90.989475 97.866986 
L 91.129308 98.422772 
L 91.530449 98.422772 
L 91.855548 98.978559 
L 93.87 99.534346 
L 93.909771 98.978559 
L 93.979122 99.534346 
L 100.244497 99.534346 
L 104.007874 98.422772 
L 104.567824 99.534346 
L 104.976685 98.978559 
L 106.00716 99.534346 
L 106.438291 96.755412 
L 107.27777 96.755412 
L 108.501094 98.422772 
L 108.580464 95.643839 
L 109.519181 96.199626 
L 111.962226 96.199626 
L 112.606624 95.088052 
L 113.563803 95.088052 
L 113.877955 91.197546 
L 119.78649 91.197546 
L 120.221637 87.862826 
L 120.243941 86.751252 
L 122.122645 86.751252 
L 124.892882 82.860746 
L 126.346081 82.860746 
L 126.368077 83.416532 
L 129.705401 83.416532 
L 130.533281 80.081812 
L 133.153322 80.081812 
L 133.171509 80.637599 
L 147.84505 80.637599 
L 150.587904 81.193386 
L 150.681549 80.637599 
L 153.526249 81.193386 
L 163.425566 81.193386 
L 168.223639 81.749172 
L 168.316323 74.523946 
L 168.544242 75.079732 
L 171.250997 75.079732 
L 172.403015 75.635519 
L 177.153802 75.635519 
L 177.334161 80.637599 
L 177.343014 71.745012 
L 177.573987 71.745012 
L 178.720926 73.968159 
L 184.336413 73.968159 
L 188.640146 70.077652 
L 193.423463 70.077652 
L 193.633367 68.410292 
L 206.062786 68.410292 
L 206.593259 68.966079 
L 209.611284 68.966079 
L 209.632559 70.077652 
L 215.382971 70.077652 
L 215.499608 73.412372 
L 224.387254 73.412372 
L 224.599526 68.410292 
L 225.907539 67.298719 
L 225.910662 67.854506 
L 226.212083 67.854506 
L 227.286001 65.075572 
L 228.856968 65.075572 
L 229.280963 65.631359 
L 229.323376 65.075572 
L 230.29428 65.631359 
L 230.298707 66.187146 
L 230.321389 65.631359 
L 230.88223 63.408212 
L 235.991127 63.408212 
L 237.579527 63.963999 
L 239.464304 63.963999 
L 242.665569 64.519786 
L 245.696153 64.519786 
L 248.037592 65.631359 
L 252.819365 65.075572 
L 253.16169 65.075572 
L 256.142415 66.187146 
L 256.982236 65.631359 
L 261.142533 65.631359 
L 265.832994 67.854506 
L 265.835534 67.298719 
L 272.83456 67.298719 
L 275.005214 67.854506 
L 313.68885 67.854506 
L 314.001252 68.410292 
L 316.422095 68.410292 
L 316.439493 66.742932 
L 328.108289 66.742932 
L 328.343998 67.298719 
L 352.348499 67.298719 
L 357.63422 67.854506 
L 357.664794 67.298719 
L 361.448589 68.966079 
L 362.66807 68.966079 
L 363.823622 68.410292 
L 367.00152 68.410292 
L 370.033613 68.966079 
L 370.038589 69.521866 
L 378.635726 67.854506 
L 379.451974 68.410292 
L 390.039681 68.410292 
L 390.490269 67.854506 
L 391.315678 68.410292 
L 391.599324 70.633439 
L 396.45134 70.633439 
L 396.455526 71.189226 
L 411.302598 71.189226 
L 412.167194 71.745012 
L 415.020542 71.745012 
L 415.298904 72.300799 
L 429.212783 72.300799 
L 429.23169 72.856586 
L 431.679196 72.856586 
L 432.711764 73.412372 
L 432.716946 73.968159 
L 433.5614 73.412372 
L 433.605494 73.968159 
L 434.916836 73.968159 
L 435.122862 74.523946 
L 437.865991 74.523946 
L 437.929542 73.412372 
L 438.356178 74.523946 
L 439.901273 72.856586 
L 443.637576 72.856586 
L 443.913433 71.189226 
L 445.166302 71.189226 
L 445.781189 72.300799 
L 448.949685 72.300799 
L 449.989356 72.856586 
L 450.241879 72.856586 
L 451.219062 70.077652 
L 452.965413 70.077652 
L 453.364289 70.633439 
L 461.447527 70.633439 
L 461.646691 71.189226 
L 462.394308 71.189226 
L 463.555008 71.745012 
L 476.629099 71.745012 
L 476.746559 72.300799 
L 477.165749 72.300799 
L 478.040846 73.412372 
L 479.267739 73.412372 
L 479.562744 72.856586 
L 479.846974 72.856586 
L 479.954825 73.412372 
L 483.235873 73.412372 
L 483.79445 73.968159 
L 486.650337 73.968159 
L 486.833441 74.523946 
L 488.397786 74.523946 
L 488.49802 75.079732 
L 493.359643 75.079732 
L 493.464166 75.635519 
L 496.299533 75.635519 
L 497.246554 77.858666 
L 498.29652 77.858666 
L 498.297618 78.414452 
L 502.560894 78.414452 
L 503.342483 78.970239 
L 506.606819 78.970239 
L 507.249776 79.526026 
L 509.724631 79.526026 
L 509.910103 80.081812 
L 513.934857 80.081812 
L 514.972297 80.637599 
L 515.047859 81.193386 
L 515.383732 81.193386 
L 516.443855 60.629279 
L 519.731594 60.629279 
L 519.755271 61.185066 
L 519.941052 61.185066 
L 520.176246 60.629279 
L 522.884236 60.629279 
L 523.182398 61.185066 
L 523.538105 61.185066 
L 523.895906 61.740852 
L 523.970541 61.185066 
L 525.428853 61.185066 
L 525.440245 61.740852 
L 525.756354 61.740852 
L 525.89478 62.296639 
L 526.851272 62.852426 
L 533.506155 62.852426 
L 534.546306 63.408212 
L 535.242589 63.408212 
L 535.80748 63.963999 
L 536.378925 63.408212 
L 538.73179 63.408212 
L 538.833259 64.519786 
L 542.210972 64.519786 
L 543.521525 66.187146 
L 557.746639 66.187146 
L 558.573387 66.742932 
L 580.53063 66.742932 
L 580.665522 67.298719 
L 612.929399 67.298719 
L 613.071531 67.854506 
L 613.081723 68.410292 
L 613.091846 67.854506 
L 617.794249 67.854506 
L 618.855984 68.410292 
L 637.381847 68.410292 
L 641.546707 68.966079 
L 642.527048 69.521866 
L 642.535249 67.854506 
L 672.26803 67.854506 
L 672.43758 68.410292 
L 698.997095 68.410292 
L 702.390902 68.966079 
L 704.466847 68.966079 
L 704.692124 69.521866 
L 706.134994 70.077652 
L 710.181297 70.077652 
L 711.885441 70.633439 
L 713.668646 70.633439 
L 713.807518 71.189226 
L 716.740545 71.189226 
L 717.090899 71.745012 
L 717.16025 72.300799 
L 722.382248 72.300799 
L 722.402494 72.856586 
L 726.126615 72.856586 
L 726.848771 72.300799 
L 726.858585 72.856586 
L 728.365075 73.412372 
L 731.039505 73.412372 
L 732.964087 73.968159 
L 734.686452 73.968159 
L 737.224995 61.740852 
L 740.1887 61.740852 
L 740.202425 64.519786 
L 755.104023 64.519786 
L 755.105567 65.075572 
L 755.363306 65.631359 
L 756.790597 65.631359 
L 757.101044 66.187146 
L 761.782652 66.187146 
L 762.864908 66.742932 
L 763.042967 66.187146 
L 771.416543 66.187146 
L 771.418431 66.742932 
L 784.66118 66.742932 
L 784.751737 67.854506 
L 786.66877 69.521866 
L 788.592323 69.521866 
L 788.797217 70.077652 
L 796.883303 70.077652 
L 797.031989 70.633439 
L 805.151327 70.633439 
L 805.328185 71.189226 
L 807.565925 72.856586 
L 807.739318 73.412372 
L 812.012614 73.412372 
L 812.012614 73.412372 
" clip-path="url(#p4b5d6c21d4)" style="fill: none; stroke: #9467bd; stroke-width: 2; stroke-linecap: square"/>
   </g>
   <g id="patch_3">
    <path d="M 48.90125 455.237812 
L 48.90125 38.397812 
" style="fill: none; stroke: #d0d7de; stroke-width: 0.8; stroke-linejoin: miter; stroke-linecap: square"/>
   </g>
   <g id="patch_4">
    <path d="M 848.35125 455.237812 
L 848.35125 38.397812 
" style="fill: none; stroke: #d0d7de; stroke-width: 0.8; stroke-linejoin: miter; stroke-linecap: square"/>
   </g>
   <g id="patch_5">
    <path d="M 48.90125 455.237812 
L 848.35125 455.237812 
" style="fill: none; stroke: #d0d7de; stroke-width: 0.8; stroke-linejoin: miter; stroke-linecap: square"/>
   </g>
   <g id="patch_6">
    <path d="M 48.90125 38.397812 
L 848.35125 38.397812 
" style="fill: none; stroke: #d0d7de; stroke-width: 0.8; stroke-linejoin: miter; stroke-linecap: square"/>
   </g>
   <g id="text_20">
    <!-- 530 -->
    <g style="fill: #1a7f37" transform="translate(817.012614 163.154317) scale(0.09 -0.09)">
     <defs>
      <path id="DejaVuSans-Bold-35" d="M 678 4666 
L 3669 4666 
L 3669 3781 
L 1638 3781 
L 1638 3059 
Q 1775 3097 1914 3117 
Q 2053 3138 2203 3138 
Q 3056 3138 3531 2711 
Q 4006 2284 4006 1522 
Q 4006 766 3489 337 
Q 2972 -91 2053 -91 
Q 1656 -91 1267 -14 
Q 878 63 494 219 
L 494 1166 
Q 875 947 1217 837 
Q 1559 728 1863 728 
Q 2300 728 2551 942 
Q 2803 1156 2803 1522 
Q 2803 1891 2551 2103 
Q 2300 2316 1863 2316 
Q 1603 2316 1309 2248 
Q 1016 2181 678 2041 
L 678 4666 
z
" transform="scale(0.015625)"/>
      <path id="DejaVuSans-Bold-33" d="M 2981 2516 
Q 3453 2394 3698 2092 
Q 3944 1791 3944 1325 
Q 3944 631 3412 270 
Q 2881 -91 1863 -91 
Q 1503 -91 1142 -33 
Q 781 25 428 141 
L 428 1069 
Q 766 900 1098 814 
Q 1431 728 1753 728 
Q 2231 728 2486 893 
Q 2741 1059 2741 1369 
Q 2741 1688 2480 1852 
Q 2219 2016 1709 2016 
L 1228 2016 
L 1228 2791 
L 1734 2791 
Q 2188 2791 2409 2933 
Q 2631 3075 2631 3366 
Q 2631 3634 2415 3781 
Q 2200 3928 1806 3928 
Q 1516 3928 1219 3862 
Q 922 3797 628 3669 
L 628 4550 
Q 984 4650 1334 4700 
Q 1684 4750 2022 4750 
Q 2931 4750 3382 4451 
Q 3834 4153 3834 3553 
Q 3834 3144 3618 2883 
Q 3403 2622 2981 2516 
z
" transform="scale(0.015625)"/>
      <path id="DejaVuSans-Bold-30" d="M 2944 2338 
Q 2944 3213 2780 3570 
Q 2616 3928 2228 3928 
Q 1841 3928 1675 3570 
Q 1509 3213 1509 2338 
Q 1509 1453 1675 1090 
Q 1841 728 2228 728 
Q 2613 728 2778 1090 
Q 2944 1453 2944 2338 
z
M 4147 2328 
Q 4147 1169 3647 539 
Q 3147 -91 2228 -91 
Q 1306 -91 806 539 
Q 306 1169 306 2328 
Q 306 3491 806 4120 
Q 1306 4750 2228 4750 
Q 3147 4750 3647 4120 
Q 4147 3491 4147 2328 
z
" transform="scale(0.015625)"/>
     </defs>
     <use xlink:href="#DejaVuSans-Bold-35"/>
     <use xlink:href="#DejaVuSans-Bold-33" transform="translate(69.580078 0)"/>
     <use xlink:href="#DejaVuSans-Bold-30" transform="translate(139.160156 0)"/>
    </g>
   </g>
   <g id="text_21">
    <!-- 409 -->
    <g style="fill: #0969da" transform="translate(817.012614 230.404503) scale(0.09 -0.09)">
     <defs>
      <path id="DejaVuSans-Bold-34" d="M 2356 3675 
L 1038 1722 
L 2356 1722 
L 2356 3675 
z
M 2156 4666 
L 3494 4666 
L 3494 1722 
L 4159 1722 
L 4159 850 
L 3494 850 
L 3494 0 
L 2356 0 
L 2356 850 
L 288 850 
L 288 1881 
L 2156 4666 
z
" transform="scale(0.015625)"/>
      <path id="DejaVuSans-Bold-39" d="M 641 103 
L 641 966 
Q 928 831 1190 764 
Q 1453 697 1709 697 
Q 2247 697 2547 995 
Q 2847 1294 2900 1881 
Q 2688 1725 2447 1647 
Q 2206 1569 1925 1569 
Q 1209 1569 770 1986 
Q 331 2403 331 3084 
Q 331 3838 820 4291 
Q 1309 4744 2131 4744 
Q 3044 4744 3544 4128 
Q 4044 3513 4044 2388 
Q 4044 1231 3459 570 
Q 2875 -91 1856 -91 
Q 1528 -91 1228 -42 
Q 928 6 641 103 
z
M 2125 2350 
Q 2441 2350 2600 2554 
Q 2759 2759 2759 3169 
Q 2759 3575 2600 3781 
Q 2441 3988 2125 3988 
Q 1809 3988 1650 3781 
Q 1491 3575 1491 3169 
Q 1491 2759 1650 2554 
Q 1809 2350 2125 2350 
z
" transform="scale(0.015625)"/>
     </defs>
     <use xlink:href="#DejaVuSans-Bold-34"/>
     <use xlink:href="#DejaVuSans-Bold-30" transform="translate(69.580078 0)"/>
     <use xlink:href="#DejaVuSans-Bold-39" transform="translate(139.160156 0)"/>
    </g>
   </g>
   <g id="text_22">
    <!-- 170 -->
    <g style="fill: #bf8700" transform="translate(817.012614 363.237517) scale(0.09 -0.09)">
     <defs>
      <path id="DejaVuSans-Bold-31" d="M 750 831 
L 1813 831 
L 1813 3847 
L 722 3622 
L 722 4441 
L 1806 4666 
L 2950 4666 
L 2950 831 
L 4013 831 
L 4013 0 
L 750 0 
L 750 831 
z
" transform="scale(0.015625)"/>
      <path id="DejaVuSans-Bold-37" d="M 428 4666 
L 3944 4666 
L 3944 3988 
L 2125 0 
L 953 0 
L 2675 3781 
L 428 3781 
L 428 4666 
z
" transform="scale(0.015625)"/>
     </defs>
     <use xlink:href="#DejaVuSans-Bold-31"/>
     <use xlink:href="#DejaVuSans-Bold-37" transform="translate(69.580078 0)"/>
     <use xlink:href="#DejaVuSans-Bold-30" transform="translate(139.160156 0)"/>
    </g>
   </g>
   <g id="text_23">
    <!-- 297 -->
    <g style="fill: #cf222e" transform="translate(817.012614 292.65261) scale(0.09 -0.09)">
     <defs>
      <path id="DejaVuSans-Bold-32" d="M 1844 884 
L 3897 884 
L 3897 0 
L 506 0 
L 506 884 
L 2209 2388 
Q 2438 2594 2547 2791 
Q 2656 2988 2656 3200 
Q 2656 3528 2436 3728 
Q 2216 3928 1850 3928 
Q 1569 3928 1234 3808 
Q 900 3688 519 3450 
L 519 4475 
Q 925 4609 1322 4679 
Q 1719 4750 2100 4750 
Q 2938 4750 3402 4381 
Q 3866 4013 3866 3353 
Q 3866 2972 3669 2642 
Q 3472 2313 2841 1759 
L 1844 884 
z
" transform="scale(0.015625)"/>
     </defs>
     <use xlink:href="#DejaVuSans-Bold-32"/>
     <use xlink:href="#DejaVuSans-Bold-39" transform="translate(69.580078 0)"/>
     <use xlink:href="#DejaVuSans-Bold-37" transform="translate(139.160156 0)"/>
    </g>
   </g>
   <g id="text_24">
    <!-- 687 -->
    <g style="fill: #9467bd" transform="translate(817.012614 75.89581) scale(0.09 -0.09)">
     <defs>
      <path id="DejaVuSans-Bold-36" d="M 2316 2303 
Q 2000 2303 1842 2098 
Q 1684 1894 1684 1484 
Q 1684 1075 1842 870 
Q 2000 666 2316 666 
Q 2634 666 2792 870 
Q 2950 1075 2950 1484 
Q 2950 1894 2792 2098 
Q 2634 2303 2316 2303 
z
M 3803 4544 
L 3803 3681 
Q 3506 3822 3243 3889 
Q 2981 3956 2731 3956 
Q 2194 3956 1894 3657 
Q 1594 3359 1544 2772 
Q 1750 2925 1990 3001 
Q 2231 3078 2516 3078 
Q 3231 3078 3670 2659 
Q 4109 2241 4109 1563 
Q 4109 813 3618 361 
Q 3128 -91 2303 -91 
Q 1394 -91 895 523 
Q 397 1138 397 2266 
Q 397 3422 980 4083 
Q 1563 4744 2578 4744 
Q 2900 4744 3203 4694 
Q 3506 4644 3803 4544 
z
" transform="scale(0.015625)"/>
      <path id="DejaVuSans-Bold-38" d="M 2228 2088 
Q 1891 2088 1709 1903 
Q 1528 1719 1528 1375 
Q 1528 1031 1709 848 
Q 1891 666 2228 666 
Q 2563 666 2741 848 
Q 2919 1031 2919 1375 
Q 2919 1722 2741 1905 
Q 2563 2088 2228 2088 
z
M 1350 2484 
Q 925 2613 709 2878 
Q 494 3144 494 3541 
Q 494 4131 934 4440 
Q 1375 4750 2228 4750 
Q 3075 4750 3515 4442 
Q 3956 4134 3956 3541 
Q 3956 3144 3739 2878 
Q 3522 2613 3097 2484 
Q 3572 2353 3814 2058 
Q 4056 1763 4056 1313 
Q 4056 619 3595 264 
Q 3134 -91 2228 -91 
Q 1319 -91 855 264 
Q 391 619 391 1313 
Q 391 1763 633 2058 
Q 875 2353 1350 2484 
z
M 1631 3419 
Q 1631 3141 1786 2991 
Q 1941 2841 2228 2841 
Q 2509 2841 2662 2991 
Q 2816 3141 2816 3419 
Q 2816 3697 2662 3845 
Q 2509 3994 2228 3994 
Q 1941 3994 1786 3844 
Q 1631 3694 1631 3419 
z
" transform="scale(0.015625)"/>
     </defs>
     <use xlink:href="#DejaVuSans-Bold-36"/>
     <use xlink:href="#DejaVuSans-Bold-38" transform="translate(69.580078 0)"/>
     <use xlink:href="#DejaVuSans-Bold-37" transform="translate(139.160156 0)"/>
    </g>
   </g>
   <g id="text_25">
    <!-- Erdős Problems Progress -->
    <g style="fill: #24292f" transform="translate(349.588281 18.397812) scale(0.14 -0.14)">
     <defs>
      <path id="DejaVuSans-Bold-45" d="M 588 4666 
L 3834 4666 
L 3834 3756 
L 1791 3756 
L 1791 2888 
L 3713 2888 
L 3713 1978 
L 1791 1978 
L 1791 909 
L 3903 909 
L 3903 0 
L 588 0 
L 588 4666 
z
" transform="scale(0.015625)"/>
      <path id="DejaVuSans-Bold-72" d="M 3138 2547 
Q 2991 2616 2845 2648 
Q 2700 2681 2553 2681 
Q 2122 2681 1889 2404 
Q 1656 2128 1656 1613 
L 1656 0 
L 538 0 
L 538 3500 
L 1656 3500 
L 1656 2925 
Q 1872 3269 2151 3426 
Q 2431 3584 2822 3584 
Q 2878 3584 2943 3579 
Q 3009 3575 3134 3559 
L 3138 2547 
z
" transform="scale(0.015625)"/>
      <path id="DejaVuSans-Bold-64" d="M 2919 2988 
L 2919 4863 
L 4044 4863 
L 4044 0 
L 2919 0 
L 2919 506 
Q 2688 197 2409 53 
Q 2131 -91 1766 -91 
Q 1119 -91 703 423 
Q 288 938 288 1747 
Q 288 2556 703 3070 
Q 1119 3584 1766 3584 
Q 2128 3584 2408 3439 
Q 2688 3294 2919 2988 
z
M 2181 722 
Q 2541 722 2730 984 
Q 2919 1247 2919 1747 
Q 2919 2247 2730 2509 
Q 2541 2772 2181 2772 
Q 1825 2772 1636 2509 
Q 1447 2247 1447 1747 
Q 1447 1247 1636 984 
Q 1825 722 2181 722 
z
" transform="scale(0.015625)"/>
      <path id="DejaVuSans-Bold-151" d="M 1881 5119 
L 2560 5119 
L 1785 3944 
L 1275 3944 
L 1881 5119 
z
M 3016 5119 
L 3738 5119 
L 2888 3944 
L 2344 3944 
L 3016 5119 
z
M 2203 2784 
Q 1831 2784 1636 2517 
Q 1441 2250 1441 1747 
Q 1441 1244 1636 976 
Q 1831 709 2203 709 
Q 2569 709 2762 976 
Q 2956 1244 2956 1747 
Q 2956 2250 2762 2517 
Q 2569 2784 2203 2784 
z
M 2203 3584 
Q 3106 3584 3614 3096 
Q 4122 2609 4122 1747 
Q 4122 884 3614 396 
Q 3106 -91 2203 -91 
Q 1297 -91 786 396 
Q 275 884 275 1747 
Q 275 2609 786 3096 
Q 1297 3584 2203 3584 
z
" transform="scale(0.015625)"/>
      <path id="DejaVuSans-Bold-73" d="M 3272 3391 
L 3272 2541 
Q 2913 2691 2578 2766 
Q 2244 2841 1947 2841 
Q 1628 2841 1473 2761 
Q 1319 2681 1319 2516 
Q 1319 2381 1436 2309 
Q 1553 2238 1856 2203 
L 2053 2175 
Q 2913 2066 3209 1816 
Q 3506 1566 3506 1031 
Q 3506 472 3093 190 
Q 2681 -91 1863 -91 
Q 1516 -91 1145 -36 
Q 775 19 384 128 
L 384 978 
Q 719 816 1070 734 
Q 1422 653 1784 653 
Q 2113 653 2278 743 
Q 2444 834 2444 1013 
Q 2444 1163 2330 1236 
Q 2216 1309 1875 1350 
L 1678 1375 
Q 931 1469 631 1722 
Q 331 1975 331 2491 
Q 331 3047 712 3315 
Q 1094 3584 1881 3584 
Q 2191 3584 2531 3537 
Q 2872 3491 3272 3391 
z
" transform="scale(0.015625)"/>
      <path id="DejaVuSans-Bold-20" transform="scale(0.015625)"/>
      <path id="DejaVuSans-Bold-50" d="M 588 4666 
L 2584 4666 
Q 3475 4666 3951 4270 
Q 4428 3875 4428 3144 
Q 4428 2409 3951 2014 
Q 3475 1619 2584 1619 
L 1791 1619 
L 1791 0 
L 588 0 
L 588 4666 
z
M 1791 3794 
L 1791 2491 
L 2456 2491 
Q 2806 2491 2997 2661 
Q 3188 2831 3188 3144 
Q 3188 3456 2997 3625 
Q 2806 3794 2456 3794 
L 1791 3794 
z
" transform="scale(0.015625)"/>
      <path id="DejaVuSans-Bold-6f" d="M 2203 2784 
Q 1831 2784 1636 2517 
Q 1441 2250 1441 1747 
Q 1441 1244 1636 976 
Q 1831 709 2203 709 
Q 2569 709 2762 976 
Q 2956 1244 2956 1747 
Q 2956 2250 2762 2517 
Q 2569 2784 2203 2784 
z
M 2203 3584 
Q 3106 3584 3614 3096 
Q 4122 2609 4122 1747 
Q 4122 884 3614 396 
Q 3106 -91 2203 -91 
Q 1297 -91 786 396 
Q 275 884 275 1747 
Q 275 2609 786 3096 
Q 1297 3584 2203 3584 
z
" transform="scale(0.015625)"/>
      <path id="DejaVuSans-Bold-62" d="M 2400 722 
Q 2759 722 2948 984 
Q 3138 1247 3138 1747 
Q 3138 2247 2948 2509 
Q 2759 2772 2400 2772 
Q 2041 2772 1848 2508 
Q 1656 2244 1656 1747 
Q 1656 1250 1848 986 
Q 2041 722 2400 722 
z
M 1656 2988 
Q 1888 3294 2169 3439 
Q 2450 3584 2816 3584 
Q 3463 3584 3878 3070 
Q 4294 2556 4294 1747 
Q 4294 938 3878 423 
Q 3463 -91 2816 -91 
Q 2450 -91 2169 54 
Q 1888 200 1656 506 
L 1656 0 
L 538 0 
L 538 4863 
L 1656 4863 
L 1656 2988 
z
" transform="scale(0.015625)"/>
      <path id="DejaVuSans-Bold-6c" d="M 538 4863 
L 1656 4863 
L 1656 0 
L 538 0 
L 538 4863 
z
" transform="scale(0.015625)"/>
      <path id="DejaVuSans-Bold-65" d="M 4031 1759 
L 4031 1441 
L 1416 1441 
Q 1456 1047 1700 850 
Q 1944 653 2381 653 
Q 2734 653 3104 758 
Q 3475 863 3866 1075 
L 3866 213 
Q 3469 63 3072 -14 
Q 2675 -91 2278 -91 
Q 1328 -91 801 392 
Q 275 875 275 1747 
Q 275 2603 792 3093 
Q 1309 3584 2216 3584 
Q 3041 3584 3536 3087 
Q 4031 2591 4031 1759 
z
M 2881 2131 
Q 2881 2450 2695 2645 
Q 2509 2841 2209 2841 
Q 1884 2841 1681 2658 
Q 1478 2475 1428 2131 
L 2881 2131 
z
" transform="scale(0.015625)"/>
      <path id="DejaVuSans-Bold-6d" d="M 3781 2919 
Q 3994 3244 4286 3414 
Q 4578 3584 4928 3584 
Q 5531 3584 5847 3212 
Q 6163 2841 6163 2131 
L 6163 0 
L 5038 0 
L 5038 1825 
Q 5041 1866 5042 1909 
Q 5044 1953 5044 2034 
Q 5044 2406 4934 2573 
Q 4825 2741 4581 2741 
Q 4263 2741 4089 2478 
Q 3916 2216 3909 1719 
L 3909 0 
L 2784 0 
L 2784 1825 
Q 2784 2406 2684 2573 
Q 2584 2741 2328 2741 
Q 2006 2741 1831 2477 
Q 1656 2213 1656 1722 
L 1656 0 
L 531 0 
L 531 3500 
L 1656 3500 
L 1656 2988 
Q 1863 3284 2130 3434 
Q 2397 3584 2719 3584 
Q 3081 3584 3359 3409 
Q 3638 3234 3781 2919 
z
" transform="scale(0.015625)"/>
      <path id="DejaVuSans-Bold-67" d="M 2919 594 
Q 2688 288 2409 144 
Q 2131 0 1766 0 
Q 1125 0 706 504 
Q 288 1009 288 1791 
Q 288 2575 706 3076 
Q 1125 3578 1766 3578 
Q 2131 3578 2409 3434 
Q 2688 3291 2919 2981 
L 2919 3500 
L 4044 3500 
L 4044 353 
Q 4044 -491 3511 -936 
Q 2978 -1381 1966 -1381 
Q 1638 -1381 1331 -1331 
Q 1025 -1281 716 -1178 
L 716 -306 
Q 1009 -475 1290 -558 
Q 1572 -641 1856 -641 
Q 2406 -641 2662 -400 
Q 2919 -159 2919 353 
L 2919 594 
z
M 2181 2772 
Q 1834 2772 1640 2515 
Q 1447 2259 1447 1791 
Q 1447 1309 1634 1061 
Q 1822 813 2181 813 
Q 2531 813 2725 1069 
Q 2919 1325 2919 1791 
Q 2919 2259 2725 2515 
Q 2531 2772 2181 2772 
z
" transform="scale(0.015625)"/>
     </defs>
     <use xlink:href="#DejaVuSans-Bold-45"/>
     <use xlink:href="#DejaVuSans-Bold-72" transform="translate(68.310547 0)"/>
     <use xlink:href="#DejaVuSans-Bold-64" transform="translate(117.626953 0)"/>
     <use xlink:href="#DejaVuSans-Bold-151" transform="translate(189.208984 0)"/>
     <use xlink:href="#DejaVuSans-Bold-73" transform="translate(257.910156 0)"/>
     <use xlink:href="#DejaVuSans-Bold-20" transform="translate(317.431641 0)"/>
     <use xlink:href="#DejaVuSans-Bold-50" transform="translate(352.246094 0)"/>
     <use xlink:href="#DejaVuSans-Bold-72" transform="translate(425.537109 0)"/>
     <use xlink:href="#DejaVuSans-Bold-6f" transform="translate(474.853516 0)"/>
     <use xlink:href="#DejaVuSans-Bold-62" transform="translate(543.554688 0)"/>
     <use xlink:href="#DejaVuSans-Bold-6c" transform="translate(615.136719 0)"/>
     <use xlink:href="#DejaVuSans-Bold-65" transform="translate(649.414062 0)"/>
     <use xlink:href="#DejaVuSans-Bold-6d" transform="translate(717.236328 0)"/>
     <use xlink:href="#DejaVuSans-Bold-73" transform="translate(821.435547 0)"/>
     <use xlink:href="#DejaVuSans-Bold-20" transform="translate(880.957031 0)"/>
     <use xlink:href="#DejaVuSans-Bold-50" transform="translate(915.771484 0)"/>
     <use xlink:href="#DejaVuSans-Bold-72" transform="translate(989.0625 0)"/>
     <use xlink:href="#DejaVuSans-Bold-6f" transform="translate(1038.378906 0)"/>
     <use xlink:href="#DejaVuSans-Bold-67" transform="translate(1107.080078 0)"/>
     <use xlink:href="#DejaVuSans-Bold-72" transform="translate(1178.662109 0)"/>
     <use xlink:href="#DejaVuSans-Bold-65" transform="translate(1227.978516 0)"/>
     <use xlink:href="#DejaVuSans-Bold-73" transform="translate(1295.800781 0)"/>
     <use xlink:href="#DejaVuSans-Bold-73" transform="translate(1355.322266 0)"/>
    </g>
   </g>
   <g id="legend_1">
    <g id="patch_7">
     <path d="M 55.90125 119.788437 
L 213.771563 119.788437 
Q 215.771563 119.788437 215.771563 117.788437 
L 215.771563 45.397812 
Q 215.771563 43.397812 213.771563 43.397812 
L 55.90125 43.397812 
Q 53.90125 43.397812 53.90125 45.397812 
L 53.90125 117.788437 
Q 53.90125 119.788437 55.90125 119.788437 
z
" style="fill: #f6f8fa; opacity: 0.8; stroke: #d0d7de; stroke-linejoin: miter"/>
    </g>
    <g id="line2d_40">
     <path d="M 57.90125 51.49625 
L 67.90125 51.49625 
L 77.90125 51.49625 
" style="fill: none; stroke: #1a7f37; stroke-width: 2; stroke-linecap: square"/>
    </g>
    <g id="text_26">
     <!-- Solved -->
     <g style="fill: #24292f" transform="translate(85.90125 54.99625) scale(0.1 -0.1)">
      <defs>
       <path id="DejaVuSans-6c" d="M 603 4863 
L 1178 4863 
L 1178 0 
L 603 0 
L 603 4863 
z
" transform="scale(0.015625)"/>
       <path id="DejaVuSans-64" d="M 2906 2969 
L 2906 4863 
L 3481 4863 
L 3481 0 
L 2906 0 
L 2906 525 
Q 2725 213 2448 61 
Q 2172 -91 1784 -91 
Q 1150 -91 751 415 
Q 353 922 353 1747 
Q 353 2572 751 3078 
Q 1150 3584 1784 3584 
Q 2172 3584 2448 3432 
Q 2725 3281 2906 2969 
z
M 947 1747 
Q 947 1113 1208 752 
Q 1469 391 1925 391 
Q 2381 391 2643 752 
Q 2906 1113 2906 1747 
Q 2906 2381 2643 2742 
Q 2381 3103 1925 3103 
Q 1469 3103 1208 2742 
Q 947 2381 947 1747 
z
" transform="scale(0.015625)"/>
      </defs>
      <use xlink:href="#DejaVuSans-53"/>
      <use xlink:href="#DejaVuSans-6f" transform="translate(63.476562 0)"/>
      <use xlink:href="#DejaVuSans-6c" transform="translate(124.658203 0)"/>
      <use xlink:href="#DejaVuSans-76" transform="translate(152.441406 0)"/>
      <use xlink:href="#DejaVuSans-65" transform="translate(211.621094 0)"/>
      <use xlink:href="#DejaVuSans-64" transform="translate(273.144531 0)"/>
     </g>
    </g>
    <g id="line2d_41">
     <path d="M 57.90125 66.174375 
L 67.90125 66.174375 
L 77.90125 66.174375 
" style="fill: none; stroke: #0969da; stroke-width: 2; stroke-linecap: square"/>
    </g>
    <g id="text_27">
     <!-- Lean Formalized Problem -->
     <g style="fill: #24292f" transform="translate(85.90125 69.674375) scale(0.1 -0.1)">
      <defs>
       <path id="DejaVuSans-4c" d="M 628 4666 
L 1259 4666 
L 1259 531 
L 3531 531 
L 3531 0 
L 628 0 
L 628 4666 
z
" transform="scale(0.015625)"/>
       <path id="DejaVuSans-20" transform="scale(0.015625)"/>
       <path id="DejaVuSans-6d" d="M 3328 2828 
Q 3544 3216 3844 3400 
Q 4144 3584 4550 3584 
Q 5097 3584 5394 3201 
Q 5691 2819 5691 2113 
L 5691 0 
L 5113 0 
L 5113 2094 
Q 5113 2597 4934 2840 
Q 4756 3084 4391 3084 
Q 3944 3084 3684 2787 
Q 3425 2491 3425 1978 
L 3425 0 
L 2847 0 
L 2847 2094 
Q 2847 2600 2669 2842 
Q 2491 3084 2119 3084 
Q 1678 3084 1418 2786 
Q 1159 2488 1159 1978 
L 1159 0 
L 581 0 
L 581 3500 
L 1159 3500 
L 1159 2956 
Q 1356 3278 1631 3431 
Q 1906 3584 2284 3584 
Q 2666 3584 2933 3390 
Q 3200 3197 3328 2828 
z
" transform="scale(0.015625)"/>
       <path id="DejaVuSans-69" d="M 603 3500 
L 1178 3500 
L 1178 0 
L 603 0 
L 603 3500 
z
M 603 4863 
L 1178 4863 
L 1178 4134 
L 603 4134 
L 603 4863 
z
" transform="scale(0.015625)"/>
       <path id="DejaVuSans-7a" d="M 353 3500 
L 3084 3500 
L 3084 2975 
L 922 459 
L 3084 459 
L 3084 0 
L 275 0 
L 275 525 
L 2438 3041 
L 353 3041 
L 353 3500 
z
" transform="scale(0.015625)"/>
       <path id="DejaVuSans-50" d="M 1259 4147 
L 1259 2394 
L 2053 2394 
Q 2494 2394 2734 2622 
Q 2975 2850 2975 3272 
Q 2975 3691 2734 3919 
Q 2494 4147 2053 4147 
L 1259 4147 
z
M 628 4666 
L 2053 4666 
Q 2838 4666 3239 4311 
Q 3641 3956 3641 3272 
Q 3641 2581 3239 2228 
Q 2838 1875 2053 1875 
L 1259 1875 
L 1259 0 
L 628 0 
L 628 4666 
z
" transform="scale(0.015625)"/>
      </defs>
      <use xlink:href="#DejaVuSans-4c"/>
      <use xlink:href="#DejaVuSans-65" transform="translate(53.962891 0)"/>
      <use xlink:href="#DejaVuSans-61" transform="translate(115.486328 0)"/>
      <use xlink:href="#DejaVuSans-6e" transform="translate(176.765625 0)"/>
      <use xlink:href="#DejaVuSans-20" transform="translate(240.144531 0)"/>
      <use xlink:href="#DejaVuSans-46" transform="translate(271.931641 0)"/>
      <use xlink:href="#DejaVuSans-6f" transform="translate(325.826172 0)"/>
      <use xlink:href="#DejaVuSans-72" transform="translate(387.007812 0)"/>
      <use xlink:href="#DejaVuSans-6d" transform="translate(426.371094 0)"/>
      <use xlink:href="#DejaVuSans-61" transform="translate(523.783203 0)"/>
      <use xlink:href="#DejaVuSans-6c" transform="translate(585.0625 0)"/>
      <use xlink:href="#DejaVuSans-69" transform="translate(612.845703 0)"/>
      <use xlink:href="#DejaVuSans-7a" transform="translate(640.628906 0)"/>
      <use xlink:href="#DejaVuSans-65" transform="translate(693.119141 0)"/>
      <use xlink:href="#DejaVuSans-64" transform="translate(754.642578 0)"/>
      <use xlink:href="#DejaVuSans-20" transform="translate(818.119141 0)"/>
      <use xlink:href="#DejaVuSans-50" transform="translate(849.90625 0)"/>
      <use xlink:href="#DejaVuSans-72" transform="translate(908.458984 0)"/>
      <use xlink:href="#DejaVuSans-6f" transform="translate(947.322266 0)"/>
      <use xlink:href="#DejaVuSans-62" transform="translate(1008.503906 0)"/>
      <use xlink:href="#DejaVuSans-6c" transform="translate(1071.980469 0)"/>
      <use xlink:href="#DejaVuSans-65" transform="translate(1099.763672 0)"/>
      <use xlink:href="#DejaVuSans-6d" transform="translate(1161.287109 0)"/>
     </g>
    </g>
    <g id="line2d_42">
     <path d="M 57.90125 80.8525 
L 67.90125 80.8525 
L 77.90125 80.8525 
" style="fill: none; stroke: #bf8700; stroke-width: 2; stroke-linecap: square"/>
    </g>
    <g id="text_28">
     <!-- Lean Formalized Solution -->
     <g style="fill: #24292f" transform="translate(85.90125 84.3525) scale(0.1 -0.1)">
      <use xlink:href="#DejaVuSans-4c"/>
      <use xlink:href="#DejaVuSans-65" transform="translate(53.962891 0)"/>
      <use xlink:href="#DejaVuSans-61" transform="translate(115.486328 0)"/>
      <use xlink:href="#DejaVuSans-6e" transform="translate(176.765625 0)"/>
      <use xlink:href="#DejaVuSans-20" transform="translate(240.144531 0)"/>
      <use xlink:href="#DejaVuSans-46" transform="translate(271.931641 0)"/>
      <use xlink:href="#DejaVuSans-6f" transform="translate(325.826172 0)"/>
      <use xlink:href="#DejaVuSans-72" transform="translate(387.007812 0)"/>
      <use xlink:href="#DejaVuSans-6d" transform="translate(426.371094 0)"/>
      <use xlink:href="#DejaVuSans-61" transform="translate(523.783203 0)"/>
      <use xlink:href="#DejaVuSans-6c" transform="translate(585.0625 0)"/>
      <use xlink:href="#DejaVuSans-69" transform="translate(612.845703 0)"/>
      <use xlink:href="#DejaVuSans-7a" transform="translate(640.628906 0)"/>
      <use xlink:href="#DejaVuSans-65" transform="translate(693.119141 0)"/>
      <use xlink:href="#DejaVuSans-64" transform="translate(754.642578 0)"/>
      <use xlink:href="#DejaVuSans-20" transform="translate(818.119141 0)"/>
      <use xlink:href="#DejaVuSans-53" transform="translate(849.90625 0)"/>
      <use xlink:href="#DejaVuSans-6f" transform="translate(913.382812 0)"/>
      <use xlink:href="#DejaVuSans-6c" transform="translate(974.564453 0)"/>
      <use xlink:href="#DejaVuSans-75" transform="translate(1002.347656 0)"/>
      <use xlink:href="#DejaVuSans-74" transform="translate(1065.726562 0)"/>
      <use xlink:href="#DejaVuSans-69" transform="translate(1104.935547 0)"/>
      <use xlink:href="#DejaVuSans-6f" transform="translate(1132.71875 0)"/>
      <use xlink:href="#DejaVuSans-6e" transform="translate(1193.900391 0)"/>
     </g>
    </g>
    <g id="line2d_43">
     <path d="M 57.90125 95.530625 
L 67.90125 95.530625 
L 77.90125 95.530625 
" style="fill: none; stroke: #cf222e; stroke-width: 2; stroke-linecap: square"/>
    </g>
    <g id="text_29">
     <!-- OEIS Linked -->
     <g style="fill: #24292f" transform="translate(85.90125 99.030625) scale(0.1 -0.1)">
      <defs>
       <path id="DejaVuSans-45" d="M 628 4666 
L 3578 4666 
L 3578 4134 
L 1259 4134 
L 1259 2753 
L 3481 2753 
L 3481 2222 
L 1259 2222 
L 1259 531 
L 3634 531 
L 3634 0 
L 628 0 
L 628 4666 
z
" transform="scale(0.015625)"/>
       <path id="DejaVuSans-49" d="M 628 4666 
L 1259 4666 
L 1259 0 
L 628 0 
L 628 4666 
z
" transform="scale(0.015625)"/>
       <path id="DejaVuSans-6b" d="M 581 4863 
L 1159 4863 
L 1159 1991 
L 2875 3500 
L 3609 3500 
L 1753 1863 
L 3688 0 
L 2938 0 
L 1159 1709 
L 1159 0 
L 581 0 
L 581 4863 
z
" transform="scale(0.015625)"/>
      </defs>
      <use xlink:href="#DejaVuSans-4f"/>
      <use xlink:href="#DejaVuSans-45" transform="translate(78.710938 0)"/>
      <use xlink:href="#DejaVuSans-49" transform="translate(141.894531 0)"/>
      <use xlink:href="#DejaVuSans-53" transform="translate(171.386719 0)"/>
      <use xlink:href="#DejaVuSans-20" transform="translate(234.863281 0)"/>
      <use xlink:href="#DejaVuSans-4c" transform="translate(266.650391 0)"/>
      <use xlink:href="#DejaVuSans-69" transform="translate(322.363281 0)"/>
      <use xlink:href="#DejaVuSans-6e" transform="translate(350.146484 0)"/>
      <use xlink:href="#DejaVuSans-6b" transform="translate(413.525391 0)"/>
      <use xlink:href="#DejaVuSans-65" transform="translate(467.810547 0)"/>
      <use xlink:href="#DejaVuSans-64" transform="translate(529.333984 0)"/>
     </g>
    </g>
    <g id="line2d_44">
     <path d="M 57.90125 110.20875 
L 67.90125 110.20875 
L 77.90125 110.20875 
" style="fill: none; stroke: #9467bd; stroke-width: 2; stroke-linecap: square"/>
    </g>
    <g id="text_30">
     <!-- Open Problems -->
     <g style="fill: #24292f" transform="translate(85.90125 113.70875) scale(0.1 -0.1)">
      <defs>
       <path id="DejaVuSans-73" d="M 2834 3397 
L 2834 2853 
Q 2591 2978 2328 3040 
Q 2066 3103 1784 3103 
Q 1356 3103 1142 2972 
Q 928 2841 928 2578 
Q 928 2378 1081 2264 
Q 1234 2150 1697 2047 
L 1894 2003 
Q 2506 1872 2764 1633 
Q 3022 1394 3022 966 
Q 3022 478 2636 193 
Q 2250 -91 1575 -91 
Q 1294 -91 989 -36 
Q 684 19 347 128 
L 347 722 
Q 666 556 975 473 
Q 1284 391 1588 391 
Q 1994 391 2212 530 
Q 2431 669 2431 922 
Q 2431 1156 2273 1281 
Q 2116 1406 1581 1522 
L 1381 1569 
Q 847 1681 609 1914 
Q 372 2147 372 2553 
Q 372 3047 722 3315 
Q 1072 3584 1716 3584 
Q 2034 3584 2315 3537 
Q 2597 3491 2834 3397 
z
" transform="scale(0.015625)"/>
      </defs>
      <use xlink:href="#DejaVuSans-4f"/>
      <use xlink:href="#DejaVuSans-70" transform="translate(78.710938 0)"/>
      <use xlink:href="#DejaVuSans-65" transform="translate(142.1875 0)"/>
      <use xlink:href="#DejaVuSans-6e" transform="translate(203.710938 0)"/>
      <use xlink:href="#DejaVuSans-20" transform="translate(267.089844 0)"/>
      <use xlink:href="#DejaVuSans-50" transform="translate(298.876953 0)"/>
      <use xlink:href="#DejaVuSans-72" transform="translate(357.429688 0)"/>
      <use xlink:href="#DejaVuSans-6f" transform="translate(396.292969 0)"/>
      <use xlink:href="#DejaVuSans-62" transform="translate(457.474609 0)"/>
      <use xlink:href="#DejaVuSans-6c" transform="translate(520.951172 0)"/>
      <use xlink:href="#DejaVuSans-65" transform="translate(548.734375 0)"/>
      <use xlink:href="#DejaVuSans-6d" transform="translate(610.257812 0)"/>
      <use xlink:href="#DejaVuSans-73" transform="translate(707.669922 0)"/>
     </g>
    </g>
   </g>
  </g>
 </g>
 <defs>
  <clipPath id="p4b5d6c21d4">
   <rect x="48.90125" y="38.397812" width="799.45" height="416.84"/>
  </clipPath>
 </defs>
</svg>
