<?xml version="1.0" encoding="utf-8" standalone="no"?>
<!DOCTYPE svg PUBLIC "-//W3C//DTD SVG 1.1//EN"
  "http://www.w3.org/Graphics/SVG/1.1/DTD/svg11.dtd">
<svg xmlns:xlink="http://www.w3.org/1999/xlink" width="855.55125pt" height="494.729687pt" viewBox="0 0 855.55125 494.729687" xmlns="http://www.w3.org/2000/svg" version="1.1">
 <metadata>
  <rdf:RDF xmlns:dc="http://purl.org/dc/elements/1.1/" xmlns:cc="http://creativecommons.org/ns#" xmlns:rdf="http://www.w3.org/1999/02/22-rdf-syntax-ns#">
   <cc:Work>
    <dc:type rdf:resource="http://purl.org/dc/dcmitype/StillImage"/>
    <dc:date>2026-04-14T05:57:14.721239</dc:date>
    <dc:format>image/svg+xml</dc:format>
    <dc:creator>
     <cc:Agent>
      <dc:title>Matplotlib v3.10.7, https://matplotlib.org/</dc:title>
     </cc:Agent>
    </dc:creator>
   </cc:Work>
  </rdf:RDF>
 </metadata>
 <defs>
  <style type="text/css">*{stroke-linejoin: round; stroke-linecap: butt}</style>
 </defs>
 <g id="figure_1">
  <g id="patch_1">
   <path d="M 0 494.729687 
L 855.55125 494.729687 
L 855.55125 0 
L 0 0 
z
" style="fill: #ffffff"/>
  </g>
  <g id="axes_1">
   <g id="patch_2">
    <path d="M 48.90125 455.237812 
L 848.35125 455.237812 
L 848.35125 38.397812 
L 48.90125 38.397812 
z
" style="fill: #ffffff"/>
   </g>
   <g id="matplotlib.axis_1">
    <g id="xtick_1">
     <g id="line2d_1">
      <path d="M 86.181905 455.237812 
L 86.181905 38.397812 
" clip-path="url(#p1cbb1f1994)" style="fill: none; stroke: #d0d7de; stroke-opacity: 0.25; stroke-width: 0.5; stroke-linecap: square"/>
     </g>
     <g id="line2d_2">
      <defs>
       <path id="m72cf276e7a" d="M 0 0 
L 0 3.5 
" style="stroke: #24292f; stroke-width: 0.8"/>
      </defs>
      <g>
       <use xlink:href="#m72cf276e7a" x="86.181905" y="455.237812" style="fill: #24292f; stroke: #24292f; stroke-width: 0.8"/>
      </g>
     </g>
     <g id="text_1">
      <!-- Sep -->
      <g style="fill: #24292f" transform="translate(76.756905 469.83625) scale(0.1 -0.1)">
       <defs>
        <path id="DejaVuSans-53" d="M 3425 4513 
L 3425 3897 
Q 3066 4069 2747 4153 
Q 2428 4238 2131 4238 
Q 1616 4238 1336 4038 
Q 1056 3838 1056 3469 
Q 1056 3159 1242 3001 
Q 1428 2844 1947 2747 
L 2328 2669 
Q 3034 2534 3370 2195 
Q 3706 1856 3706 1288 
Q 3706 609 3251 259 
Q 2797 -91 1919 -91 
Q 1588 -91 1214 -16 
Q 841 59 441 206 
L 441 856 
Q 825 641 1194 531 
Q 1563 422 1919 422 
Q 2459 422 2753 634 
Q 3047 847 3047 1241 
Q 3047 1584 2836 1778 
Q 2625 1972 2144 2069 
L 1759 2144 
Q 1053 2284 737 2584 
Q 422 2884 422 3419 
Q 422 4038 858 4394 
Q 1294 4750 2059 4750 
Q 2388 4750 2728 4690 
Q 3069 4631 3425 4513 
z
" transform="scale(0.015625)"/>
        <path id="DejaVuSans-65" d="M 3597 1894 
L 3597 1613 
L 953 1613 
Q 991 1019 1311 708 
Q 1631 397 2203 397 
Q 2534 397 2845 478 
Q 3156 559 3463 722 
L 3463 178 
Q 3153 47 2828 -22 
Q 2503 -91 2169 -91 
Q 1331 -91 842 396 
Q 353 884 353 1716 
Q 353 2575 817 3079 
Q 1281 3584 2069 3584 
Q 2775 3584 3186 3129 
Q 3597 2675 3597 1894 
z
M 3022 2063 
Q 3016 2534 2758 2815 
Q 2500 3097 2075 3097 
Q 1594 3097 1305 2825 
Q 1016 2553 972 2059 
L 3022 2063 
z
" transform="scale(0.015625)"/>
        <path id="DejaVuSans-70" d="M 1159 525 
L 1159 -1331 
L 581 -1331 
L 581 3500 
L 1159 3500 
L 1159 2969 
Q 1341 3281 1617 3432 
Q 1894 3584 2278 3584 
Q 2916 3584 3314 3078 
Q 3713 2572 3713 1747 
Q 3713 922 3314 415 
Q 2916 -91 2278 -91 
Q 1894 -91 1617 61 
Q 1341 213 1159 525 
z
M 3116 1747 
Q 3116 2381 2855 2742 
Q 2594 3103 2138 3103 
Q 1681 3103 1420 2742 
Q 1159 2381 1159 1747 
Q 1159 1113 1420 752 
Q 1681 391 2138 391 
Q 2594 391 2855 752 
Q 3116 1113 3116 1747 
z
" transform="scale(0.015625)"/>
       </defs>
       <use xlink:href="#DejaVuSans-53"/>
       <use xlink:href="#DejaVuSans-65" transform="translate(63.476562 0)"/>
       <use xlink:href="#DejaVuSans-70" transform="translate(125 0)"/>
      </g>
     </g>
    </g>
    <g id="xtick_2">
     <g id="line2d_3">
      <path d="M 182.852746 455.237812 
L 182.852746 38.397812 
" clip-path="url(#p1cbb1f1994)" style="fill: none; stroke: #d0d7de; stroke-opacity: 0.25; stroke-width: 0.5; stroke-linecap: square"/>
     </g>
     <g id="line2d_4">
      <g>
       <use xlink:href="#m72cf276e7a" x="182.852746" y="455.237812" style="fill: #24292f; stroke: #24292f; stroke-width: 0.8"/>
      </g>
     </g>
     <g id="text_2">
      <!-- Oct -->
      <g style="fill: #24292f" transform="translate(174.207434 469.83625) scale(0.1 -0.1)">
       <defs>
        <path id="DejaVuSans-4f" d="M 2522 4238 
Q 1834 4238 1429 3725 
Q 1025 3213 1025 2328 
Q 1025 1447 1429 934 
Q 1834 422 2522 422 
Q 3209 422 3611 934 
Q 4013 1447 4013 2328 
Q 4013 3213 3611 3725 
Q 3209 4238 2522 4238 
z
M 2522 4750 
Q 3503 4750 4090 4092 
Q 4678 3434 4678 2328 
Q 4678 1225 4090 567 
Q 3503 -91 2522 -91 
Q 1538 -91 948 565 
Q 359 1222 359 2328 
Q 359 3434 948 4092 
Q 1538 4750 2522 4750 
z
" transform="scale(0.015625)"/>
        <path id="DejaVuSans-63" d="M 3122 3366 
L 3122 2828 
Q 2878 2963 2633 3030 
Q 2388 3097 2138 3097 
Q 1578 3097 1268 2742 
Q 959 2388 959 1747 
Q 959 1106 1268 751 
Q 1578 397 2138 397 
Q 2388 397 2633 464 
Q 2878 531 3122 666 
L 3122 134 
Q 2881 22 2623 -34 
Q 2366 -91 2075 -91 
Q 1284 -91 818 406 
Q 353 903 353 1747 
Q 353 2603 823 3093 
Q 1294 3584 2113 3584 
Q 2378 3584 2631 3529 
Q 2884 3475 3122 3366 
z
" transform="scale(0.015625)"/>
        <path id="DejaVuSans-74" d="M 1172 4494 
L 1172 3500 
L 2356 3500 
L 2356 3053 
L 1172 3053 
L 1172 1153 
Q 1172 725 1289 603 
Q 1406 481 1766 481 
L 2356 481 
L 2356 0 
L 1766 0 
Q 1100 0 847 248 
Q 594 497 594 1153 
L 594 3053 
L 172 3053 
L 172 3500 
L 594 3500 
L 594 4494 
L 1172 4494 
z
" transform="scale(0.015625)"/>
       </defs>
       <use xlink:href="#DejaVuSans-4f"/>
       <use xlink:href="#DejaVuSans-63" transform="translate(78.710938 0)"/>
       <use xlink:href="#DejaVuSans-74" transform="translate(133.691406 0)"/>
      </g>
     </g>
    </g>
    <g id="xtick_3">
     <g id="line2d_5">
      <path d="M 282.745949 455.237812 
L 282.745949 38.397812 
" clip-path="url(#p1cbb1f1994)" style="fill: none; stroke: #d0d7de; stroke-opacity: 0.25; stroke-width: 0.5; stroke-linecap: square"/>
     </g>
     <g id="line2d_6">
      <g>
       <use xlink:href="#m72cf276e7a" x="282.745949" y="455.237812" style="fill: #24292f; stroke: #24292f; stroke-width: 0.8"/>
      </g>
     </g>
     <g id="text_3">
      <!-- Nov -->
      <g style="fill: #24292f" transform="translate(272.986574 469.83625) scale(0.1 -0.1)">
       <defs>
        <path id="DejaVuSans-4e" d="M 628 4666 
L 1478 4666 
L 3547 763 
L 3547 4666 
L 4159 4666 
L 4159 0 
L 3309 0 
L 1241 3903 
L 1241 0 
L 628 0 
L 628 4666 
z
" transform="scale(0.015625)"/>
        <path id="DejaVuSans-6f" d="M 1959 3097 
Q 1497 3097 1228 2736 
Q 959 2375 959 1747 
Q 959 1119 1226 758 
Q 1494 397 1959 397 
Q 2419 397 2687 759 
Q 2956 1122 2956 1747 
Q 2956 2369 2687 2733 
Q 2419 3097 1959 3097 
z
M 1959 3584 
Q 2709 3584 3137 3096 
Q 3566 2609 3566 1747 
Q 3566 888 3137 398 
Q 2709 -91 1959 -91 
Q 1206 -91 779 398 
Q 353 888 353 1747 
Q 353 2609 779 3096 
Q 1206 3584 1959 3584 
z
" transform="scale(0.015625)"/>
        <path id="DejaVuSans-76" d="M 191 3500 
L 800 3500 
L 1894 563 
L 2988 3500 
L 3597 3500 
L 2284 0 
L 1503 0 
L 191 3500 
z
" transform="scale(0.015625)"/>
       </defs>
       <use xlink:href="#DejaVuSans-4e"/>
       <use xlink:href="#DejaVuSans-6f" transform="translate(74.804688 0)"/>
       <use xlink:href="#DejaVuSans-76" transform="translate(135.986328 0)"/>
      </g>
     </g>
    </g>
    <g id="xtick_4">
     <g id="line2d_7">
      <path d="M 379.41679 455.237812 
L 379.41679 38.397812 
" clip-path="url(#p1cbb1f1994)" style="fill: none; stroke: #d0d7de; stroke-opacity: 0.25; stroke-width: 0.5; stroke-linecap: square"/>
     </g>
     <g id="line2d_8">
      <g>
       <use xlink:href="#m72cf276e7a" x="379.41679" y="455.237812" style="fill: #24292f; stroke: #24292f; stroke-width: 0.8"/>
      </g>
     </g>
     <g id="text_4">
      <!-- Dec -->
      <g style="fill: #24292f" transform="translate(369.741009 469.83625) scale(0.1 -0.1)">
       <defs>
        <path id="DejaVuSans-44" d="M 1259 4147 
L 1259 519 
L 2022 519 
Q 2988 519 3436 956 
Q 3884 1394 3884 2338 
Q 3884 3275 3436 3711 
Q 2988 4147 2022 4147 
L 1259 4147 
z
M 628 4666 
L 1925 4666 
Q 3281 4666 3915 4102 
Q 4550 3538 4550 2338 
Q 4550 1131 3912 565 
Q 3275 0 1925 0 
L 628 0 
L 628 4666 
z
" transform="scale(0.015625)"/>
       </defs>
       <use xlink:href="#DejaVuSans-44"/>
       <use xlink:href="#DejaVuSans-65" transform="translate(77.001953 0)"/>
       <use xlink:href="#DejaVuSans-63" transform="translate(138.525391 0)"/>
      </g>
     </g>
    </g>
    <g id="xtick_5">
     <g id="line2d_9">
      <path d="M 479.309993 455.237812 
L 479.309993 38.397812 
" clip-path="url(#p1cbb1f1994)" style="fill: none; stroke: #d0d7de; stroke-opacity: 0.25; stroke-width: 0.5; stroke-linecap: square"/>
     </g>
     <g id="line2d_10">
      <g>
       <use xlink:href="#m72cf276e7a" x="479.309993" y="455.237812" style="fill: #24292f; stroke: #24292f; stroke-width: 0.8"/>
      </g>
     </g>
     <g id="text_5">
      <!-- 2026 -->
      <g style="fill: #24292f" transform="translate(466.584993 469.83625) scale(0.1 -0.1)">
       <defs>
        <path id="DejaVuSans-32" d="M 1228 531 
L 3431 531 
L 3431 0 
L 469 0 
L 469 531 
Q 828 903 1448 1529 
Q 2069 2156 2228 2338 
Q 2531 2678 2651 2914 
Q 2772 3150 2772 3378 
Q 2772 3750 2511 3984 
Q 2250 4219 1831 4219 
Q 1534 4219 1204 4116 
Q 875 4013 500 3803 
L 500 4441 
Q 881 4594 1212 4672 
Q 1544 4750 1819 4750 
Q 2544 4750 2975 4387 
Q 3406 4025 3406 3419 
Q 3406 3131 3298 2873 
Q 3191 2616 2906 2266 
Q 2828 2175 2409 1742 
Q 1991 1309 1228 531 
z
" transform="scale(0.015625)"/>
        <path id="DejaVuSans-30" d="M 2034 4250 
Q 1547 4250 1301 3770 
Q 1056 3291 1056 2328 
Q 1056 1369 1301 889 
Q 1547 409 2034 409 
Q 2525 409 2770 889 
Q 3016 1369 3016 2328 
Q 3016 3291 2770 3770 
Q 2525 4250 2034 4250 
z
M 2034 4750 
Q 2819 4750 3233 4129 
Q 3647 3509 3647 2328 
Q 3647 1150 3233 529 
Q 2819 -91 2034 -91 
Q 1250 -91 836 529 
Q 422 1150 422 2328 
Q 422 3509 836 4129 
Q 1250 4750 2034 4750 
z
" transform="scale(0.015625)"/>
        <path id="DejaVuSans-36" d="M 2113 2584 
Q 1688 2584 1439 2293 
Q 1191 2003 1191 1497 
Q 1191 994 1439 701 
Q 1688 409 2113 409 
Q 2538 409 2786 701 
Q 3034 994 3034 1497 
Q 3034 2003 2786 2293 
Q 2538 2584 2113 2584 
z
M 3366 4563 
L 3366 3988 
Q 3128 4100 2886 4159 
Q 2644 4219 2406 4219 
Q 1781 4219 1451 3797 
Q 1122 3375 1075 2522 
Q 1259 2794 1537 2939 
Q 1816 3084 2150 3084 
Q 2853 3084 3261 2657 
Q 3669 2231 3669 1497 
Q 3669 778 3244 343 
Q 2819 -91 2113 -91 
Q 1303 -91 875 529 
Q 447 1150 447 2328 
Q 447 3434 972 4092 
Q 1497 4750 2381 4750 
Q 2619 4750 2861 4703 
Q 3103 4656 3366 4563 
z
" transform="scale(0.015625)"/>
       </defs>
       <use xlink:href="#DejaVuSans-32"/>
       <use xlink:href="#DejaVuSans-30" transform="translate(63.623047 0)"/>
       <use xlink:href="#DejaVuSans-32" transform="translate(127.246094 0)"/>
       <use xlink:href="#DejaVuSans-36" transform="translate(190.869141 0)"/>
      </g>
     </g>
    </g>
    <g id="xtick_6">
     <g id="line2d_11">
      <path d="M 579.203195 455.237812 
L 579.203195 38.397812 
" clip-path="url(#p1cbb1f1994)" style="fill: none; stroke: #d0d7de; stroke-opacity: 0.25; stroke-width: 0.5; stroke-linecap: square"/>
     </g>
     <g id="line2d_12">
      <g>
       <use xlink:href="#m72cf276e7a" x="579.203195" y="455.237812" style="fill: #24292f; stroke: #24292f; stroke-width: 0.8"/>
      </g>
     </g>
     <g id="text_6">
      <!-- Feb -->
      <g style="fill: #24292f" transform="translate(570.351633 469.83625) scale(0.1 -0.1)">
       <defs>
        <path id="DejaVuSans-46" d="M 628 4666 
L 3309 4666 
L 3309 4134 
L 1259 4134 
L 1259 2759 
L 3109 2759 
L 3109 2228 
L 1259 2228 
L 1259 0 
L 628 0 
L 628 4666 
z
" transform="scale(0.015625)"/>
        <path id="DejaVuSans-62" d="M 3116 1747 
Q 3116 2381 2855 2742 
Q 2594 3103 2138 3103 
Q 1681 3103 1420 2742 
Q 1159 2381 1159 1747 
Q 1159 1113 1420 752 
Q 1681 391 2138 391 
Q 2594 391 2855 752 
Q 3116 1113 3116 1747 
z
M 1159 2969 
Q 1341 3281 1617 3432 
Q 1894 3584 2278 3584 
Q 2916 3584 3314 3078 
Q 3713 2572 3713 1747 
Q 3713 922 3314 415 
Q 2916 -91 2278 -91 
Q 1894 -91 1617 61 
Q 1341 213 1159 525 
L 1159 0 
L 581 0 
L 581 4863 
L 1159 4863 
L 1159 2969 
z
" transform="scale(0.015625)"/>
       </defs>
       <use xlink:href="#DejaVuSans-46"/>
       <use xlink:href="#DejaVuSans-65" transform="translate(52.019531 0)"/>
       <use xlink:href="#DejaVuSans-62" transform="translate(113.542969 0)"/>
      </g>
     </g>
    </g>
    <g id="xtick_7">
     <g id="line2d_13">
      <path d="M 669.429314 455.237812 
L 669.429314 38.397812 
" clip-path="url(#p1cbb1f1994)" style="fill: none; stroke: #d0d7de; stroke-opacity: 0.25; stroke-width: 0.5; stroke-linecap: square"/>
     </g>
     <g id="line2d_14">
      <g>
       <use xlink:href="#m72cf276e7a" x="669.429314" y="455.237812" style="fill: #24292f; stroke: #24292f; stroke-width: 0.8"/>
      </g>
     </g>
     <g id="text_7">
      <!-- Mar -->
      <g style="fill: #24292f" transform="translate(659.99572 469.83625) scale(0.1 -0.1)">
       <defs>
        <path id="DejaVuSans-4d" d="M 628 4666 
L 1569 4666 
L 2759 1491 
L 3956 4666 
L 4897 4666 
L 4897 0 
L 4281 0 
L 4281 4097 
L 3078 897 
L 2444 897 
L 1241 4097 
L 1241 0 
L 628 0 
L 628 4666 
z
" transform="scale(0.015625)"/>
        <path id="DejaVuSans-61" d="M 2194 1759 
Q 1497 1759 1228 1600 
Q 959 1441 959 1056 
Q 959 750 1161 570 
Q 1363 391 1709 391 
Q 2188 391 2477 730 
Q 2766 1069 2766 1631 
L 2766 1759 
L 2194 1759 
z
M 3341 1997 
L 3341 0 
L 2766 0 
L 2766 531 
Q 2569 213 2275 61 
Q 1981 -91 1556 -91 
Q 1019 -91 701 211 
Q 384 513 384 1019 
Q 384 1609 779 1909 
Q 1175 2209 1959 2209 
L 2766 2209 
L 2766 2266 
Q 2766 2663 2505 2880 
Q 2244 3097 1772 3097 
Q 1472 3097 1187 3025 
Q 903 2953 641 2809 
L 641 3341 
Q 956 3463 1253 3523 
Q 1550 3584 1831 3584 
Q 2591 3584 2966 3190 
Q 3341 2797 3341 1997 
z
" transform="scale(0.015625)"/>
        <path id="DejaVuSans-72" d="M 2631 2963 
Q 2534 3019 2420 3045 
Q 2306 3072 2169 3072 
Q 1681 3072 1420 2755 
Q 1159 2438 1159 1844 
L 1159 0 
L 581 0 
L 581 3500 
L 1159 3500 
L 1159 2956 
Q 1341 3275 1631 3429 
Q 1922 3584 2338 3584 
Q 2397 3584 2469 3576 
Q 2541 3569 2628 3553 
L 2631 2963 
z
" transform="scale(0.015625)"/>
       </defs>
       <use xlink:href="#DejaVuSans-4d"/>
       <use xlink:href="#DejaVuSans-61" transform="translate(86.279297 0)"/>
       <use xlink:href="#DejaVuSans-72" transform="translate(147.558594 0)"/>
      </g>
     </g>
    </g>
    <g id="xtick_8">
     <g id="line2d_15">
      <path d="M 769.322517 455.237812 
L 769.322517 38.397812 
" clip-path="url(#p1cbb1f1994)" style="fill: none; stroke: #d0d7de; stroke-opacity: 0.25; stroke-width: 0.5; stroke-linecap: square"/>
     </g>
     <g id="line2d_16">
      <g>
       <use xlink:href="#m72cf276e7a" x="769.322517" y="455.237812" style="fill: #24292f; stroke: #24292f; stroke-width: 0.8"/>
      </g>
     </g>
     <g id="text_8">
      <!-- Apr -->
      <g style="fill: #24292f" transform="translate(760.672517 469.83625) scale(0.1 -0.1)">
       <defs>
        <path id="DejaVuSans-41" d="M 2188 4044 
L 1331 1722 
L 3047 1722 
L 2188 4044 
z
M 1831 4666 
L 2547 4666 
L 4325 0 
L 3669 0 
L 3244 1197 
L 1141 1197 
L 716 0 
L 50 0 
L 1831 4666 
z
" transform="scale(0.015625)"/>
       </defs>
       <use xlink:href="#DejaVuSans-41"/>
       <use xlink:href="#DejaVuSans-70" transform="translate(68.408203 0)"/>
       <use xlink:href="#DejaVuSans-72" transform="translate(131.884766 0)"/>
      </g>
     </g>
    </g>
    <g id="text_9">
     <!-- Date -->
     <g style="fill: #24292f" transform="translate(434.285313 485.034062) scale(0.12 -0.12)">
      <use xlink:href="#DejaVuSans-44"/>
      <use xlink:href="#DejaVuSans-61" transform="translate(77.001953 0)"/>
      <use xlink:href="#DejaVuSans-74" transform="translate(138.28125 0)"/>
      <use xlink:href="#DejaVuSans-65" transform="translate(177.490234 0)"/>
     </g>
    </g>
   </g>
   <g id="matplotlib.axis_2">
    <g id="ytick_1">
     <g id="line2d_17">
      <path d="M 48.90125 455.237812 
L 848.35125 455.237812 
" clip-path="url(#p1cbb1f1994)" style="fill: none; stroke: #d0d7de; stroke-opacity: 0.25; stroke-width: 0.5; stroke-linecap: square"/>
     </g>
     <g id="line2d_18">
      <defs>
       <path id="mb2b0157b66" d="M 0 0 
L -3.5 0 
" style="stroke: #24292f; stroke-width: 0.8"/>
      </defs>
      <g>
       <use xlink:href="#mb2b0157b66" x="48.90125" y="455.237812" style="fill: #24292f; stroke: #24292f; stroke-width: 0.8"/>
      </g>
     </g>
     <g id="text_10">
      <!-- 0 -->
      <g style="fill: #24292f" transform="translate(35.53875 459.037031) scale(0.1 -0.1)">
       <use xlink:href="#DejaVuSans-30"/>
      </g>
     </g>
    </g>
    <g id="ytick_2">
     <g id="line2d_19">
      <path d="M 48.90125 399.659146 
L 848.35125 399.659146 
" clip-path="url(#p1cbb1f1994)" style="fill: none; stroke: #d0d7de; stroke-opacity: 0.25; stroke-width: 0.5; stroke-linecap: square"/>
     </g>
     <g id="line2d_20">
      <g>
       <use xlink:href="#mb2b0157b66" x="48.90125" y="399.659146" style="fill: #24292f; stroke: #24292f; stroke-width: 0.8"/>
      </g>
     </g>
     <g id="text_11">
      <!-- 100 -->
      <g style="fill: #24292f" transform="translate(22.81375 403.458365) scale(0.1 -0.1)">
       <defs>
        <path id="DejaVuSans-31" d="M 794 531 
L 1825 531 
L 1825 4091 
L 703 3866 
L 703 4441 
L 1819 4666 
L 2450 4666 
L 2450 531 
L 3481 531 
L 3481 0 
L 794 0 
L 794 531 
z
" transform="scale(0.015625)"/>
       </defs>
       <use xlink:href="#DejaVuSans-31"/>
       <use xlink:href="#DejaVuSans-30" transform="translate(63.623047 0)"/>
       <use xlink:href="#DejaVuSans-30" transform="translate(127.246094 0)"/>
      </g>
     </g>
    </g>
    <g id="ytick_3">
     <g id="line2d_21">
      <path d="M 48.90125 344.080479 
L 848.35125 344.080479 
" clip-path="url(#p1cbb1f1994)" style="fill: none; stroke: #d0d7de; stroke-opacity: 0.25; stroke-width: 0.5; stroke-linecap: square"/>
     </g>
     <g id="line2d_22">
      <g>
       <use xlink:href="#mb2b0157b66" x="48.90125" y="344.080479" style="fill: #24292f; stroke: #24292f; stroke-width: 0.8"/>
      </g>
     </g>
     <g id="text_12">
      <!-- 200 -->
      <g style="fill: #24292f" transform="translate(22.81375 347.879698) scale(0.1 -0.1)">
       <use xlink:href="#DejaVuSans-32"/>
       <use xlink:href="#DejaVuSans-30" transform="translate(63.623047 0)"/>
       <use xlink:href="#DejaVuSans-30" transform="translate(127.246094 0)"/>
      </g>
     </g>
    </g>
    <g id="ytick_4">
     <g id="line2d_23">
      <path d="M 48.90125 288.501812 
L 848.35125 288.501812 
" clip-path="url(#p1cbb1f1994)" style="fill: none; stroke: #d0d7de; stroke-opacity: 0.25; stroke-width: 0.5; stroke-linecap: square"/>
     </g>
     <g id="line2d_24">
      <g>
       <use xlink:href="#mb2b0157b66" x="48.90125" y="288.501812" style="fill: #24292f; stroke: #24292f; stroke-width: 0.8"/>
      </g>
     </g>
     <g id="text_13">
      <!-- 300 -->
      <g style="fill: #24292f" transform="translate(22.81375 292.301031) scale(0.1 -0.1)">
       <defs>
        <path id="DejaVuSans-33" d="M 2597 2516 
Q 3050 2419 3304 2112 
Q 3559 1806 3559 1356 
Q 3559 666 3084 287 
Q 2609 -91 1734 -91 
Q 1441 -91 1130 -33 
Q 819 25 488 141 
L 488 750 
Q 750 597 1062 519 
Q 1375 441 1716 441 
Q 2309 441 2620 675 
Q 2931 909 2931 1356 
Q 2931 1769 2642 2001 
Q 2353 2234 1838 2234 
L 1294 2234 
L 1294 2753 
L 1863 2753 
Q 2328 2753 2575 2939 
Q 2822 3125 2822 3475 
Q 2822 3834 2567 4026 
Q 2313 4219 1838 4219 
Q 1578 4219 1281 4162 
Q 984 4106 628 3988 
L 628 4550 
Q 988 4650 1302 4700 
Q 1616 4750 1894 4750 
Q 2613 4750 3031 4423 
Q 3450 4097 3450 3541 
Q 3450 3153 3228 2886 
Q 3006 2619 2597 2516 
z
" transform="scale(0.015625)"/>
       </defs>
       <use xlink:href="#DejaVuSans-33"/>
       <use xlink:href="#DejaVuSans-30" transform="translate(63.623047 0)"/>
       <use xlink:href="#DejaVuSans-30" transform="translate(127.246094 0)"/>
      </g>
     </g>
    </g>
    <g id="ytick_5">
     <g id="line2d_25">
      <path d="M 48.90125 232.923146 
L 848.35125 232.923146 
" clip-path="url(#p1cbb1f1994)" style="fill: none; stroke: #d0d7de; stroke-opacity: 0.25; stroke-width: 0.5; stroke-linecap: square"/>
     </g>
     <g id="line2d_26">
      <g>
       <use xlink:href="#mb2b0157b66" x="48.90125" y="232.923146" style="fill: #24292f; stroke: #24292f; stroke-width: 0.8"/>
      </g>
     </g>
     <g id="text_14">
      <!-- 400 -->
      <g style="fill: #24292f" transform="translate(22.81375 236.722365) scale(0.1 -0.1)">
       <defs>
        <path id="DejaVuSans-34" d="M 2419 4116 
L 825 1625 
L 2419 1625 
L 2419 4116 
z
M 2253 4666 
L 3047 4666 
L 3047 1625 
L 3713 1625 
L 3713 1100 
L 3047 1100 
L 3047 0 
L 2419 0 
L 2419 1100 
L 313 1100 
L 313 1709 
L 2253 4666 
z
" transform="scale(0.015625)"/>
       </defs>
       <use xlink:href="#DejaVuSans-34"/>
       <use xlink:href="#DejaVuSans-30" transform="translate(63.623047 0)"/>
       <use xlink:href="#DejaVuSans-30" transform="translate(127.246094 0)"/>
      </g>
     </g>
    </g>
    <g id="ytick_6">
     <g id="line2d_27">
      <path d="M 48.90125 177.344479 
L 848.35125 177.344479 
" clip-path="url(#p1cbb1f1994)" style="fill: none; stroke: #d0d7de; stroke-opacity: 0.25; stroke-width: 0.5; stroke-linecap: square"/>
     </g>
     <g id="line2d_28">
      <g>
       <use xlink:href="#mb2b0157b66" x="48.90125" y="177.344479" style="fill: #24292f; stroke: #24292f; stroke-width: 0.8"/>
      </g>
     </g>
     <g id="text_15">
      <!-- 500 -->
      <g style="fill: #24292f" transform="translate(22.81375 181.143698) scale(0.1 -0.1)">
       <defs>
        <path id="DejaVuSans-35" d="M 691 4666 
L 3169 4666 
L 3169 4134 
L 1269 4134 
L 1269 2991 
Q 1406 3038 1543 3061 
Q 1681 3084 1819 3084 
Q 2600 3084 3056 2656 
Q 3513 2228 3513 1497 
Q 3513 744 3044 326 
Q 2575 -91 1722 -91 
Q 1428 -91 1123 -41 
Q 819 9 494 109 
L 494 744 
Q 775 591 1075 516 
Q 1375 441 1709 441 
Q 2250 441 2565 725 
Q 2881 1009 2881 1497 
Q 2881 1984 2565 2268 
Q 2250 2553 1709 2553 
Q 1456 2553 1204 2497 
Q 953 2441 691 2322 
L 691 4666 
z
" transform="scale(0.015625)"/>
       </defs>
       <use xlink:href="#DejaVuSans-35"/>
       <use xlink:href="#DejaVuSans-30" transform="translate(63.623047 0)"/>
       <use xlink:href="#DejaVuSans-30" transform="translate(127.246094 0)"/>
      </g>
     </g>
    </g>
    <g id="ytick_7">
     <g id="line2d_29">
      <path d="M 48.90125 121.765812 
L 848.35125 121.765812 
" clip-path="url(#p1cbb1f1994)" style="fill: none; stroke: #d0d7de; stroke-opacity: 0.25; stroke-width: 0.5; stroke-linecap: square"/>
     </g>
     <g id="line2d_30">
      <g>
       <use xlink:href="#mb2b0157b66" x="48.90125" y="121.765812" style="fill: #24292f; stroke: #24292f; stroke-width: 0.8"/>
      </g>
     </g>
     <g id="text_16">
      <!-- 600 -->
      <g style="fill: #24292f" transform="translate(22.81375 125.565031) scale(0.1 -0.1)">
       <use xlink:href="#DejaVuSans-36"/>
       <use xlink:href="#DejaVuSans-30" transform="translate(63.623047 0)"/>
       <use xlink:href="#DejaVuSans-30" transform="translate(127.246094 0)"/>
      </g>
     </g>
    </g>
    <g id="ytick_8">
     <g id="line2d_31">
      <path d="M 48.90125 66.187146 
L 848.35125 66.187146 
" clip-path="url(#p1cbb1f1994)" style="fill: none; stroke: #d0d7de; stroke-opacity: 0.25; stroke-width: 0.5; stroke-linecap: square"/>
     </g>
     <g id="line2d_32">
      <g>
       <use xlink:href="#mb2b0157b66" x="48.90125" y="66.187146" style="fill: #24292f; stroke: #24292f; stroke-width: 0.8"/>
      </g>
     </g>
     <g id="text_17">
      <!-- 700 -->
      <g style="fill: #24292f" transform="translate(22.81375 69.986365) scale(0.1 -0.1)">
       <defs>
        <path id="DejaVuSans-37" d="M 525 4666 
L 3525 4666 
L 3525 4397 
L 1831 0 
L 1172 0 
L 2766 4134 
L 525 4134 
L 525 4666 
z
" transform="scale(0.015625)"/>
       </defs>
       <use xlink:href="#DejaVuSans-37"/>
       <use xlink:href="#DejaVuSans-30" transform="translate(63.623047 0)"/>
       <use xlink:href="#DejaVuSans-30" transform="translate(127.246094 0)"/>
      </g>
     </g>
    </g>
    <g id="text_18">
     <!-- Count -->
     <g style="fill: #24292f" transform="translate(16.318125 264.635937) rotate(-90) scale(0.12 -0.12)">
      <defs>
       <path id="DejaVuSans-43" d="M 4122 4306 
L 4122 3641 
Q 3803 3938 3442 4084 
Q 3081 4231 2675 4231 
Q 1875 4231 1450 3742 
Q 1025 3253 1025 2328 
Q 1025 1406 1450 917 
Q 1875 428 2675 428 
Q 3081 428 3442 575 
Q 3803 722 4122 1019 
L 4122 359 
Q 3791 134 3420 21 
Q 3050 -91 2638 -91 
Q 1578 -91 968 557 
Q 359 1206 359 2328 
Q 359 3453 968 4101 
Q 1578 4750 2638 4750 
Q 3056 4750 3426 4639 
Q 3797 4528 4122 4306 
z
" transform="scale(0.015625)"/>
       <path id="DejaVuSans-75" d="M 544 1381 
L 544 3500 
L 1119 3500 
L 1119 1403 
Q 1119 906 1312 657 
Q 1506 409 1894 409 
Q 2359 409 2629 706 
Q 2900 1003 2900 1516 
L 2900 3500 
L 3475 3500 
L 3475 0 
L 2900 0 
L 2900 538 
Q 2691 219 2414 64 
Q 2138 -91 1772 -91 
Q 1169 -91 856 284 
Q 544 659 544 1381 
z
M 1991 3584 
L 1991 3584 
z
" transform="scale(0.015625)"/>
       <path id="DejaVuSans-6e" d="M 3513 2113 
L 3513 0 
L 2938 0 
L 2938 2094 
Q 2938 2591 2744 2837 
Q 2550 3084 2163 3084 
Q 1697 3084 1428 2787 
Q 1159 2491 1159 1978 
L 1159 0 
L 581 0 
L 581 3500 
L 1159 3500 
L 1159 2956 
Q 1366 3272 1645 3428 
Q 1925 3584 2291 3584 
Q 2894 3584 3203 3211 
Q 3513 2838 3513 2113 
z
" transform="scale(0.015625)"/>
      </defs>
      <use xlink:href="#DejaVuSans-43"/>
      <use xlink:href="#DejaVuSans-6f" transform="translate(69.824219 0)"/>
      <use xlink:href="#DejaVuSans-75" transform="translate(131.005859 0)"/>
      <use xlink:href="#DejaVuSans-6e" transform="translate(194.384766 0)"/>
      <use xlink:href="#DejaVuSans-74" transform="translate(257.763672 0)"/>
     </g>
    </g>
   </g>
   <g id="line2d_33">
    <path d="M 85.239886 454.682026 
L 85.301611 454.682026 
L 85.450533 454.126239 
L 85.534449 454.126239 
L 85.622057 257.933546 
L 88.336635 257.933546 
L 88.348495 261.268266 
L 91.488955 261.268266 
L 91.640936 260.712479 
L 92.076924 260.712479 
L 92.430265 260.156692 
L 94.619718 259.600906 
L 94.662944 260.156692 
L 94.767894 259.600906 
L 101.547981 259.600906 
L 105.638292 260.712479 
L 106.246885 259.600906 
L 106.691265 259.600906 
L 107.81126 259.045119 
L 108.279845 256.821972 
L 109.19225 256.821972 
L 110.521847 260.712479 
L 110.608113 256.821972 
L 111.628378 256.266186 
L 114.283656 256.266186 
L 114.984035 255.710399 
L 116.024365 255.710399 
L 116.303226 254.598826 
L 122.787632 254.598826 
L 123.26058 253.487252 
L 123.284823 252.375679 
L 125.326733 252.375679 
L 128.337627 251.264106 
L 129.917069 251.264106 
L 129.940976 250.708319 
L 133.568221 250.708319 
L 134.46802 247.929386 
L 137.31567 247.929386 
L 137.335437 247.373599 
L 153.283702 247.373599 
L 156.264834 246.817812 
L 156.366614 247.373599 
L 159.45844 246.817812 
L 170.217733 246.817812 
L 175.432625 246.262026 
L 175.533361 245.706239 
L 175.78108 245.150452 
L 178.722977 245.150452 
L 179.975073 244.594666 
L 185.138571 244.594666 
L 185.334598 247.373599 
L 185.344221 245.150452 
L 185.595259 245.150452 
L 186.841836 242.927306 
L 192.945152 242.927306 
L 197.62276 242.371519 
L 202.821615 242.371519 
L 203.049754 241.815732 
L 216.558945 241.815732 
L 217.135501 241.259946 
L 220.415708 241.259946 
L 220.438832 240.148372 
L 226.688796 240.148372 
L 226.815564 236.257866 
L 238.127656 236.257866 
L 238.13105 235.702079 
L 238.458657 235.702079 
L 239.625868 235.146292 
L 241.333309 235.146292 
L 241.794137 234.590506 
L 241.840234 235.146292 
L 242.895483 234.590506 
L 242.900294 234.034719 
L 242.924947 234.590506 
L 243.53451 234.034719 
L 249.087228 234.034719 
L 250.813616 233.478932 
L 252.862127 233.478932 
L 256.341495 232.923146 
L 259.635352 232.923146 
L 262.180197 231.811572 
L 267.749437 231.811572 
L 270.989104 230.699999 
L 271.901882 231.255786 
L 276.423594 231.255786 
L 281.524286 229.032639 
L 289.131334 229.032639 
L 291.490557 228.476852 
L 333.534728 228.476852 
L 333.874269 227.921066 
L 349.206817 227.921066 
L 349.463002 227.365279 
L 375.552828 227.365279 
L 381.297732 226.809492 
L 381.330962 227.365279 
L 385.443464 225.697919 
L 391.47879 225.697919 
L 394.774288 225.142132 
L 394.779696 224.586346 
L 401.655783 224.586346 
L 404.123686 225.142132 
L 405.010843 224.586346 
L 416.518328 224.586346 
L 417.00806 225.142132 
L 417.905174 224.586346 
L 418.213462 222.363199 
L 423.486983 222.363199 
L 423.491533 221.807412 
L 439.628403 221.807412 
L 440.568109 221.251626 
L 443.669333 221.251626 
L 443.971877 220.695839 
L 459.094486 220.695839 
L 459.115036 220.140052 
L 462.897432 220.140052 
L 462.903064 219.584266 
L 463.820877 219.584266 
L 463.868803 219.028479 
L 465.294063 219.028479 
L 465.517988 218.472692 
L 468.56849 218.472692 
L 469.032189 217.361119 
L 470.711509 215.137972 
L 474.772393 215.137972 
L 475.072215 212.359039 
L 476.433923 212.359039 
L 477.102228 211.247466 
L 480.545977 211.247466 
L 481.675967 210.691679 
L 484.910561 210.691679 
L 485.344088 210.135892 
L 494.129536 210.135892 
L 494.346001 209.580106 
L 495.158566 209.580106 
L 496.420098 209.024319 
L 510.629965 209.024319 
L 510.757629 208.468532 
L 511.213235 208.468532 
L 512.164354 207.356959 
L 513.49783 207.356959 
L 513.818462 206.801172 
L 514.127384 206.801172 
L 514.244604 206.245386 
L 517.810684 206.245386 
L 518.417786 205.689599 
L 521.521771 205.689599 
L 521.720781 205.133812 
L 523.421024 205.133812 
L 523.529966 204.578026 
L 528.81393 204.578026 
L 528.927533 204.022239 
L 532.009214 204.022239 
L 533.038505 201.799092 
L 534.179683 201.799092 
L 534.180877 201.243306 
L 538.814513 201.243306 
L 539.664001 200.687519 
L 543.211918 200.687519 
L 543.91073 200.131732 
L 544.173591 200.131732 
L 544.856404 199.575946 
L 546.600581 199.575946 
L 546.802165 199.020159 
L 551.176558 199.020159 
L 552.304124 198.464372 
L 552.386249 197.908586 
L 552.751301 197.908586 
L 553.903519 195.685439 
L 557.476871 195.685439 
L 557.502605 195.129652 
L 560.90339 195.129652 
L 561.101133 194.573866 
L 561.614063 194.573866 
L 562.002946 194.018079 
L 562.084065 194.573866 
L 562.375271 194.018079 
L 563.669064 194.018079 
L 563.681446 193.462292 
L 564.025015 193.462292 
L 564.175467 192.906506 
L 565.215051 192.350719 
L 572.448059 192.350719 
L 573.578571 191.794932 
L 574.335341 191.794932 
L 574.949305 191.239146 
L 575.570393 191.794932 
L 578.127658 191.794932 
L 578.237941 190.683359 
L 581.909084 190.683359 
L 583.333487 189.015999 
L 598.794369 189.015999 
L 599.692938 188.460212 
L 623.557657 188.460212 
L 623.704267 187.904426 
L 658.770981 187.904426 
L 658.92546 187.348639 
L 658.936537 186.792852 
L 658.947539 187.348639 
L 664.058451 187.348639 
L 665.212421 186.792852 
L 685.347667 186.792852 
L 689.49105 186.237066 
L 689.531329 185.681279 
L 689.874339 185.681279 
L 690.948758 185.125492 
L 723.264492 185.125492 
L 723.448771 184.569706 
L 752.315572 184.569706 
L 756.004206 184.013919 
L 758.260493 184.013919 
L 758.50534 183.458132 
L 760.073556 182.902346 
L 764.471371 182.902346 
L 766.323557 182.346559 
L 768.261673 182.346559 
L 768.41261 181.790772 
L 771.600435 181.790772 
L 771.981226 181.234986 
L 772.056601 180.679199 
L 777.732246 180.679199 
L 777.75425 180.123412 
L 782.586785 180.123412 
L 782.597452 179.567626 
L 784.234814 179.011839 
L 787.141578 179.011839 
L 789.233353 178.456052 
L 791.105344 178.456052 
L 793.864416 175.121332 
L 797.085584 175.121332 
L 797.100502 172.342399 
L 812.012614 172.342399 
L 812.012614 172.342399 
" clip-path="url(#p1cbb1f1994)" style="fill: none; stroke: #1a7f37; stroke-width: 2; stroke-linecap: square"/>
   </g>
   <g id="line2d_34">
    <path d="M 85.239886 455.237812 
L 85.340772 453.570452 
L 85.450533 453.570452 
L 85.534449 372.981386 
L 87.056082 372.981386 
L 87.087374 370.758239 
L 88.655925 370.758239 
L 89.060063 369.090879 
L 89.609953 370.758239 
L 89.614018 369.090879 
L 90.069028 369.090879 
L 90.244877 367.979306 
L 94.738319 367.979306 
L 94.742608 367.423519 
L 94.767894 367.979306 
L 94.989059 367.423519 
L 95.053916 367.979306 
L 95.226894 367.423519 
L 96.803725 367.423519 
L 96.886224 366.867732 
L 97.110931 366.311946 
L 98.891249 366.311946 
L 100.917234 365.756159 
L 100.988544 365.200372 
L 101.536121 364.644586 
L 101.547981 364.088799 
L 105.638292 367.979306 
L 106.246885 366.311946 
L 106.691265 363.533012 
L 109.19225 363.533012 
L 110.521847 367.979306 
L 110.608113 363.533012 
L 134.904158 363.533012 
L 135.649702 362.977226 
L 137.335437 362.977226 
L 141.939461 362.421439 
L 143.060947 361.865652 
L 159.040353 361.865652 
L 159.45844 361.309866 
L 161.606457 360.754079 
L 162.971709 360.754079 
L 164.485025 360.198292 
L 164.52579 359.086719 
L 165.566045 358.530932 
L 166.265193 357.975146 
L 175.896847 357.975146 
L 177.816837 357.419359 
L 178.397272 357.419359 
L 178.722977 356.863572 
L 179.975073 356.863572 
L 181.219002 356.307786 
L 185.138571 356.307786 
L 185.334598 358.530932 
L 185.344221 356.307786 
L 186.841836 356.307786 
L 186.992175 355.751999 
L 189.111997 355.751999 
L 191.197618 355.196212 
L 191.248228 354.640426 
L 197.62276 354.640426 
L 200.311455 354.084639 
L 200.318243 353.528852 
L 209.265368 353.528852 
L 212.997564 352.973066 
L 215.797662 352.973066 
L 216.558945 352.417279 
L 220.833086 352.417279 
L 223.270892 351.861492 
L 223.404523 351.305706 
L 225.781276 351.305706 
L 226.057116 350.749919 
L 226.815564 350.194132 
L 228.508684 350.194132 
L 229.577657 349.638346 
L 231.537592 349.638346 
L 232.816765 349.082559 
L 235.545627 349.082559 
L 236.475301 347.970986 
L 243.53451 347.970986 
L 245.544906 347.415199 
L 247.902302 347.415199 
L 248.433917 346.859412 
L 248.596489 346.303626 
L 249.087228 345.747839 
L 257.205192 345.747839 
L 258.691506 345.192052 
L 259.635352 344.636266 
L 282.71973 344.636266 
L 287.901615 344.080479 
L 287.963526 343.524692 
L 291.490557 343.524692 
L 294.505181 342.968906 
L 299.83349 342.968906 
L 300.283725 342.413119 
L 309.358066 342.413119 
L 316.461508 341.857332 
L 316.529685 341.301546 
L 317.458352 341.301546 
L 319.33989 340.745759 
L 319.444841 339.078399 
L 319.527638 338.522612 
L 323.457837 337.966826 
L 323.693174 337.411039 
L 323.786973 336.299466 
L 324.142924 335.743679 
L 336.932193 335.743679 
L 340.565406 335.187892 
L 342.878196 334.632106 
L 344.690028 334.632106 
L 348.890921 334.076319 
L 349.206817 331.853172 
L 349.463002 331.853172 
L 350.067008 330.741599 
L 358.035229 330.185812 
L 358.288841 329.630026 
L 358.363656 329.074239 
L 360.047079 329.074239 
L 361.63674 328.518452 
L 361.819452 327.962666 
L 361.943536 326.851092 
L 362.995763 326.295306 
L 363.073003 325.739519 
L 364.992844 325.183732 
L 367.516431 324.627946 
L 367.695898 324.072159 
L 367.699702 323.516372 
L 368.207299 322.960586 
L 368.296958 322.404799 
L 371.957658 321.849012 
L 372.613915 321.293226 
L 388.024821 321.293226 
L 390.580482 320.737439 
L 390.813059 320.181652 
L 401.257836 320.181652 
L 401.655783 319.070079 
L 406.007574 319.070079 
L 407.321433 318.514292 
L 407.385619 317.402719 
L 407.722997 316.846932 
L 409.956981 316.291146 
L 410.007293 315.735359 
L 410.276942 315.179572 
L 410.325762 313.512212 
L 410.553267 312.956426 
L 410.86107 312.956426 
L 410.872408 312.400639 
L 412.737387 311.844852 
L 413.470586 311.289066 
L 413.648002 310.733279 
L 417.00806 310.177492 
L 419.48428 310.177492 
L 420.344136 309.621706 
L 429.654113 309.621706 
L 432.738442 309.065919 
L 432.750712 308.510132 
L 433.305413 307.954346 
L 440.568109 307.954346 
L 442.605879 307.398559 
L 443.445334 306.842772 
L 443.669333 305.731199 
L 449.544101 305.731199 
L 449.94436 305.175412 
L 453.170376 305.175412 
L 454.714835 304.619626 
L 459.115036 304.619626 
L 461.775163 304.063839 
L 467.299387 304.063839 
L 467.978358 303.508052 
L 470.711509 303.508052 
L 471.45545 302.952266 
L 471.778171 302.396479 
L 471.937125 301.840692 
L 474.186923 301.840692 
L 474.250885 300.729119 
L 475.072215 300.729119 
L 475.611475 299.061759 
L 477.5685 299.061759 
L 477.811557 298.505972 
L 478.000237 298.505972 
L 478.93696 297.950186 
L 480.491413 297.950186 
L 480.545977 297.394399 
L 481.675967 297.394399 
L 481.950427 296.838612 
L 483.012501 296.838612 
L 484.638637 295.727039 
L 485.344088 295.727039 
L 488.072466 294.615466 
L 488.076569 294.059679 
L 488.59748 293.503892 
L 489.926555 292.948106 
L 490.133211 292.392319 
L 491.458332 291.836532 
L 493.624475 291.836532 
L 493.943952 291.280746 
L 494.129536 290.724959 
L 496.987815 290.724959 
L 497.062817 290.169172 
L 497.815447 290.169172 
L 497.873218 289.613386 
L 498.286233 289.057599 
L 499.723316 289.057599 
L 499.832631 288.501812 
L 500.07882 288.501812 
L 500.139986 287.946026 
L 500.23923 287.946026 
L 500.242586 287.390239 
L 502.263425 287.390239 
L 502.663609 286.834452 
L 502.999645 286.834452 
L 503.200483 286.278666 
L 503.713376 286.278666 
L 504.097374 285.722879 
L 504.178343 285.167092 
L 504.288105 285.167092 
L 506.218426 284.611306 
L 507.662931 284.611306 
L 507.772283 284.055519 
L 513.470492 284.055519 
L 513.49783 283.499732 
L 513.818462 283.499732 
L 514.456445 282.388159 
L 516.49746 282.388159 
L 516.675921 280.720799 
L 516.727986 279.609226 
L 517.064357 279.053439 
L 518.417786 279.053439 
L 519.056105 278.497652 
L 519.674806 278.497652 
L 519.874301 277.941866 
L 520.833364 277.386079 
L 521.720781 277.386079 
L 523.504828 276.830292 
L 523.529966 276.274506 
L 524.075156 276.274506 
L 524.165524 275.718719 
L 525.751456 275.718719 
L 525.795502 275.162932 
L 533.486689 275.162932 
L 533.605514 274.607146 
L 533.834324 274.607146 
L 533.935769 273.495572 
L 534.926123 273.495572 
L 535.00601 272.939786 
L 535.136881 272.939786 
L 535.822827 272.383999 
L 535.995245 271.828212 
L 536.310283 271.828212 
L 536.576874 271.272426 
L 536.663773 270.716639 
L 540.528407 270.716639 
L 541.50388 270.160852 
L 541.69655 269.049279 
L 541.933975 268.493492 
L 542.330318 268.493492 
L 542.571884 267.937706 
L 548.118075 267.937706 
L 548.484208 266.270346 
L 549.242022 266.270346 
L 549.353276 265.714559 
L 552.314529 265.714559 
L 552.386249 264.602986 
L 555.942856 264.602986 
L 555.979704 264.047199 
L 557.693001 264.047199 
L 557.704525 263.491412 
L 558.538833 263.491412 
L 558.561397 262.935626 
L 561.101133 262.935626 
L 561.227454 262.379839 
L 561.388385 262.379839 
L 561.614063 261.824052 
L 562.072168 261.824052 
L 562.084065 261.268266 
L 562.375271 261.268266 
L 562.930793 260.712479 
L 567.417782 260.712479 
L 567.743897 260.156692 
L 569.075246 260.156692 
L 569.077708 259.600906 
L 579.256715 259.600906 
L 580.984371 259.045119 
L 581.034459 258.489332 
L 581.909084 257.933546 
L 583.239017 257.933546 
L 583.333487 256.821972 
L 583.574045 256.821972 
L 583.674184 256.266186 
L 587.206251 256.266186 
L 587.844084 255.710399 
L 593.953629 255.710399 
L 593.972426 255.154612 
L 595.967866 255.154612 
L 596.820636 254.598826 
L 606.212626 254.598826 
L 606.329846 253.487252 
L 610.023553 253.487252 
L 610.758244 252.931466 
L 611.545 252.931466 
L 612.506785 252.375679 
L 618.864198 252.375679 
L 619.472978 251.819892 
L 620.000491 251.819892 
L 620.259138 251.264106 
L 622.284377 250.708319 
L 623.275775 250.708319 
L 623.599055 250.152532 
L 623.704267 250.152532 
L 626.54953 249.596746 
L 631.788217 249.596746 
L 632.198173 249.040959 
L 652.41808 249.040959 
L 653.156874 248.485172 
L 657.832766 248.485172 
L 658.001754 247.929386 
L 658.305491 247.929386 
L 658.397052 247.373599 
L 684.509928 247.373599 
L 685.347667 246.817812 
L 691.582526 246.817812 
L 692.936925 246.262026 
L 693.027703 245.706239 
L 696.271659 245.706239 
L 696.406259 245.150452 
L 706.913768 245.150452 
L 706.935288 244.594666 
L 715.80536 244.594666 
L 715.900837 244.038879 
L 716.476946 243.483092 
L 718.653606 243.483092 
L 718.658604 242.927306 
L 719.100933 242.371519 
L 722.369056 242.371519 
L 723.448771 241.815732 
L 730.417575 241.815732 
L 730.466656 240.704159 
L 774.640494 240.704159 
L 777.75425 240.148372 
L 781.671732 240.148372 
L 781.801894 239.592586 
L 799.169937 239.592586 
L 799.199102 239.036799 
L 812.012614 239.036799 
L 812.012614 239.036799 
" clip-path="url(#p1cbb1f1994)" style="fill: none; stroke: #0969da; stroke-width: 2; stroke-linecap: square"/>
   </g>
   <g id="line2d_35">
    <path d="M 85.239886 455.237812 
L 88.336635 455.237812 
L 88.348495 454.126239 
L 90.905051 454.126239 
L 91.488955 453.570452 
L 249.087228 453.570452 
L 250.813616 453.014666 
L 294.505181 453.014666 
L 295.717706 452.458879 
L 336.932193 452.458879 
L 340.565406 451.903092 
L 350.067008 451.903092 
L 358.363656 450.235732 
L 360.047079 449.124159 
L 363.073003 449.124159 
L 364.992844 448.568372 
L 367.699702 448.012586 
L 368.296958 448.012586 
L 371.957658 447.456799 
L 372.613915 446.901012 
L 375.552828 446.345226 
L 381.297732 445.789439 
L 381.330962 446.345226 
L 390.813059 446.345226 
L 391.47879 445.789439 
L 405.010843 445.789439 
L 406.007574 445.233652 
L 410.553267 445.233652 
L 410.872408 444.677866 
L 416.518328 444.677866 
L 417.00806 444.122079 
L 437.691032 444.122079 
L 439.628403 443.566292 
L 440.442646 443.566292 
L 440.568109 443.010506 
L 446.08823 443.010506 
L 446.093489 442.454719 
L 459.094486 442.454719 
L 459.115036 441.898932 
L 462.903064 441.898932 
L 463.868803 441.343146 
L 465.291565 440.787359 
L 465.294063 440.231572 
L 465.517988 440.231572 
L 467.299387 438.564212 
L 468.499418 438.564212 
L 468.56849 436.896852 
L 469.032189 436.896852 
L 470.711509 437.452639 
L 471.919223 437.452639 
L 471.937125 435.229492 
L 476.433923 435.229492 
L 477.102228 434.673706 
L 477.811557 434.673706 
L 478.000237 434.117919 
L 494.129536 434.117919 
L 494.346001 433.562132 
L 495.158566 433.562132 
L 496.420098 433.006346 
L 501.985794 433.006346 
L 502.263425 432.450559 
L 504.178343 432.450559 
L 504.288105 431.894772 
L 510.629965 431.894772 
L 510.757629 431.338986 
L 511.213235 431.338986 
L 511.675331 430.783199 
L 512.136979 430.783199 
L 512.164354 430.227412 
L 514.127384 430.227412 
L 514.244604 429.671626 
L 523.357808 429.671626 
L 523.48204 429.115839 
L 523.529966 429.115839 
L 523.623504 428.560052 
L 524.165524 428.560052 
L 525.301779 428.004266 
L 529.744051 428.004266 
L 529.747967 427.448479 
L 530.596783 427.448479 
L 530.629081 426.892692 
L 533.038505 426.892692 
L 533.54461 426.336906 
L 536.755521 426.336906 
L 537.686799 425.781119 
L 539.497922 425.781119 
L 539.51713 424.669546 
L 539.664001 424.669546 
L 539.848839 424.113759 
L 542.762353 424.113759 
L 543.211918 423.557972 
L 543.91073 423.557972 
L 544.173591 423.002186 
L 545.879279 423.002186 
L 546.117451 422.446399 
L 546.120509 421.890612 
L 546.600581 421.890612 
L 546.802165 421.334826 
L 565.17604 421.334826 
L 565.215051 420.223252 
L 567.743897 420.223252 
L 568.471725 419.667466 
L 569.077708 419.667466 
L 571.920435 419.111679 
L 572.448059 419.111679 
L 573.578571 418.555892 
L 574.335341 418.555892 
L 574.949305 418.000106 
L 575.570393 418.555892 
L 577.569786 418.555892 
L 578.113485 418.000106 
L 578.237941 416.888532 
L 579.24989 416.332746 
L 579.256715 415.221172 
L 583.674184 415.221172 
L 584.640259 414.665386 
L 584.73816 412.998026 
L 585.70375 412.442239 
L 586.237752 411.886452 
L 590.804927 411.886452 
L 590.998716 410.219092 
L 591.231666 410.219092 
L 591.404383 409.663306 
L 592.520573 409.107519 
L 594.277544 409.107519 
L 594.6395 408.551732 
L 594.721849 407.995946 
L 594.906538 407.995946 
L 595.967866 406.884372 
L 597.104979 406.884372 
L 597.478348 406.328586 
L 598.790043 406.328586 
L 598.794369 405.217012 
L 599.692938 405.217012 
L 600.885846 404.661226 
L 604.046259 403.549652 
L 604.328402 402.993866 
L 610.758244 402.993866 
L 611.545 401.882292 
L 623.557657 401.882292 
L 623.704267 400.770719 
L 629.551324 400.770719 
L 630.444709 400.214932 
L 633.155781 400.214932 
L 633.307948 399.659146 
L 649.986764 399.659146 
L 650.252982 399.103359 
L 651.905039 399.103359 
L 652.41808 398.547572 
L 655.501328 398.547572 
L 656.081204 397.991786 
L 656.085008 397.435999 
L 656.748203 396.880212 
L 658.770981 396.880212 
L 658.92546 396.324426 
L 658.936537 395.212852 
L 658.947539 395.768639 
L 660.306824 395.212852 
L 665.212421 395.212852 
L 666.180062 394.101279 
L 675.0313 394.101279 
L 675.715641 393.545492 
L 677.862875 393.545492 
L 678.034772 392.989706 
L 678.058417 392.433919 
L 685.347667 392.433919 
L 689.874339 391.322346 
L 690.948758 391.322346 
L 691.582526 390.766559 
L 700.959001 390.766559 
L 702.111517 390.210772 
L 703.539613 390.210772 
L 704.922729 389.654986 
L 716.476946 389.654986 
L 716.794035 389.099199 
L 716.795751 388.543412 
L 723.264492 388.543412 
L 723.448771 387.987626 
L 752.315572 387.987626 
L 756.004206 387.431839 
L 764.471371 387.431839 
L 766.323557 386.876052 
L 767.953237 386.876052 
L 768.261673 386.320266 
L 772.056601 386.320266 
L 772.697642 385.764479 
L 773.543101 385.764479 
L 774.640494 385.208692 
L 777.270933 385.208692 
L 777.75425 384.652906 
L 778.078016 384.652906 
L 779.256714 384.097119 
L 790.644292 384.097119 
L 790.676143 382.429759 
L 800.612429 382.429759 
L 804.825927 381.873972 
L 804.829358 381.318186 
L 809.770163 381.318186 
L 809.977566 380.762399 
L 809.980624 380.206612 
L 812.012614 380.206612 
L 812.012614 380.206612 
" clip-path="url(#p1cbb1f1994)" style="fill: none; stroke: #bf8700; stroke-width: 2; stroke-linecap: square"/>
   </g>
   <g id="line2d_36">
    <path d="M 85.239886 454.682026 
L 85.504761 454.682026 
L 85.622057 432.450559 
L 86.235052 426.892692 
L 86.585334 425.781119 
L 86.763049 426.336906 
L 87.087374 425.781119 
L 87.635884 425.225332 
L 88.01645 424.113759 
L 88.336635 423.557972 
L 88.348495 423.002186 
L 88.655925 421.334826 
L 89.060063 421.334826 
L 89.609953 420.779039 
L 89.614018 420.223252 
L 90.056757 419.667466 
L 90.178826 419.111679 
L 90.244877 419.111679 
L 90.905051 418.555892 
L 91.376732 418.000106 
L 91.488955 411.886452 
L 91.566568 412.442239 
L 91.756329 408.551732 
L 92.076924 402.993866 
L 94.742608 402.993866 
L 94.989059 399.659146 
L 95.053916 402.438079 
L 95.354409 397.991786 
L 95.503219 397.435999 
L 96.611913 396.880212 
L 96.645367 396.324426 
L 96.886224 395.768639 
L 97.110931 395.768639 
L 97.681894 395.212852 
L 97.986899 394.657066 
L 98.125043 393.545492 
L 98.20907 392.989706 
L 98.494011 392.433919 
L 98.50106 391.878132 
L 98.787641 392.433919 
L 98.869207 391.878132 
L 98.87924 392.433919 
L 98.891249 390.766559 
L 101.547981 390.766559 
L 105.638292 402.993866 
L 106.246885 390.210772 
L 106.691265 389.654986 
L 108.279845 389.654986 
L 108.570417 389.099199 
L 109.19225 388.543412 
L 110.521847 402.993866 
L 110.608113 387.987626 
L 111.628378 387.431839 
L 113.810223 386.876052 
L 113.965821 387.431839 
L 114.283656 385.764479 
L 114.984035 385.764479 
L 115.196845 385.208692 
L 115.598782 384.652906 
L 115.632125 383.541332 
L 116.002883 382.429759 
L 116.024365 382.985546 
L 116.244896 382.985546 
L 116.365809 381.873972 
L 116.738021 379.650826 
L 116.786953 378.539252 
L 117.264489 376.871892 
L 117.497887 377.983466 
L 119.148154 374.648746 
L 119.582688 375.760319 
L 121.370949 373.537172 
L 122.787632 377.427679 
L 123.284823 373.537172 
L 125.326733 371.869812 
L 128.337627 371.869812 
L 128.735275 371.314026 
L 129.051731 369.646666 
L 129.940976 371.314026 
L 133.568221 371.869812 
L 134.46802 369.646666 
L 134.904158 367.979306 
L 135.649702 369.646666 
L 137.335437 367.979306 
L 143.060947 367.979306 
L 149.081355 367.423519 
L 149.482845 366.867732 
L 153.283702 366.311946 
L 155.796994 366.311946 
L 156.264834 365.756159 
L 156.366614 366.311946 
L 159.040353 364.644586 
L 161.548238 364.644586 
L 161.606457 364.088799 
L 162.971709 363.533012 
L 166.265193 363.533012 
L 167.718016 359.642506 
L 168.799335 359.086719 
L 170.190731 358.530932 
L 170.217733 357.975146 
L 175.432625 357.975146 
L 175.533361 354.084639 
L 175.726367 354.084639 
L 175.896847 352.973066 
L 177.816837 352.973066 
L 178.397272 352.417279 
L 181.219002 352.417279 
L 185.138571 351.861492 
L 185.334598 363.533012 
L 185.344221 352.417279 
L 185.595259 351.861492 
L 186.992175 351.861492 
L 189.111997 351.305706 
L 191.248228 351.305706 
L 192.945152 350.749919 
L 197.62276 349.638346 
L 200.318243 349.638346 
L 202.484535 349.082559 
L 202.821615 346.303626 
L 203.049754 346.303626 
L 203.453444 345.747839 
L 205.559131 345.192052 
L 206.045879 342.968906 
L 208.956111 341.857332 
L 208.991169 342.413119 
L 209.265368 341.857332 
L 212.997564 340.745759 
L 215.797662 340.189972 
L 217.135501 340.189972 
L 218.321285 339.634186 
L 219.348898 338.522612 
L 220.438832 337.966826 
L 220.833086 337.411039 
L 223.404523 337.966826 
L 225.781276 336.855252 
L 226.057116 337.411039 
L 226.688796 337.411039 
L 226.815564 336.855252 
L 228.508684 336.299466 
L 229.577657 336.855252 
L 231.537592 335.743679 
L 232.816765 335.743679 
L 235.545627 335.187892 
L 235.998138 335.743679 
L 236.475301 334.076319 
L 238.13105 334.076319 
L 238.458657 333.520532 
L 239.884403 331.297386 
L 240.287235 330.185812 
L 241.333309 330.741599 
L 241.794137 329.630026 
L 241.840234 329.074239 
L 245.544906 329.074239 
L 247.421223 328.518452 
L 247.902302 327.962666 
L 250.813616 327.962666 
L 252.862127 327.406879 
L 256.341495 327.406879 
L 257.205192 326.851092 
L 266.772845 326.851092 
L 267.322325 326.295306 
L 267.377374 325.739519 
L 267.749437 325.183732 
L 271.901882 325.183732 
L 272.160678 324.627946 
L 273.217158 324.072159 
L 273.400131 323.516372 
L 275.1505 322.960586 
L 276.423594 322.404799 
L 281.524286 322.404799 
L 282.71973 321.293226 
L 287.963526 321.293226 
L 289.131334 320.737439 
L 294.018358 320.737439 
L 294.505181 320.181652 
L 295.717706 319.625866 
L 296.078655 319.070079 
L 296.20121 318.514292 
L 299.83349 317.958506 
L 300.283725 318.514292 
L 305.065389 317.402719 
L 308.846032 316.291146 
L 309.358066 315.735359 
L 316.529685 315.735359 
L 317.458352 315.179572 
L 324.142924 315.179572 
L 330.439657 314.623786 
L 331.231672 314.067999 
L 333.874269 313.512212 
L 336.524326 312.956426 
L 336.932193 312.400639 
L 342.878196 312.400639 
L 344.690028 311.844852 
L 358.363656 311.844852 
L 360.047079 311.289066 
L 371.341866 311.289066 
L 371.957658 310.733279 
L 372.613915 311.289066 
L 375.552828 310.733279 
L 385.443464 310.733279 
L 386.768884 310.177492 
L 407.692116 310.177492 
L 407.722997 309.621706 
L 420.645188 309.621706 
L 423.48426 309.065919 
L 423.491533 308.510132 
L 437.684729 308.510132 
L 437.691032 307.398559 
L 446.093489 307.398559 
L 449.94436 306.842772 
L 454.714835 306.842772 
L 459.115036 305.731199 
L 467.978358 305.731199 
L 468.499418 305.175412 
L 468.56849 304.619626 
L 471.919223 304.619626 
L 471.937125 304.063839 
L 472.285058 304.063839 
L 472.839685 303.508052 
L 477.811557 303.508052 
L 478.000237 302.952266 
L 484.638637 302.952266 
L 484.910561 302.396479 
L 501.122619 302.396479 
L 501.984564 300.729119 
L 501.985794 300.173332 
L 504.282622 300.173332 
L 504.288105 299.617546 
L 511.062933 299.617546 
L 511.213235 299.061759 
L 514.456445 299.061759 
L 514.572957 298.505972 
L 526.621307 298.505972 
L 526.852988 297.950186 
L 529.64958 297.950186 
L 529.747967 297.394399 
L 530.629081 296.838612 
L 552.751301 296.838612 
L 553.903519 295.727039 
L 555.628228 295.727039 
L 555.979704 295.171252 
L 557.704525 295.171252 
L 557.960151 294.615466 
L 562.035357 294.615466 
L 562.084065 294.059679 
L 584.638357 294.059679 
L 584.73816 292.948106 
L 612.93013 292.948106 
L 613.662322 292.392319 
L 661.796942 292.392319 
L 664.058451 291.836532 
L 684.400502 291.836532 
L 684.509928 291.280746 
L 693.617015 291.280746 
L 694.059679 290.724959 
L 812.012614 290.724959 
L 812.012614 290.724959 
" clip-path="url(#p1cbb1f1994)" style="fill: none; stroke: #cf222e; stroke-width: 2; stroke-linecap: square"/>
   </g>
   <g id="line2d_37">
    <path d="M 85.239886 454.682026 
L 85.260959 454.126239 
L 85.427096 -1 
M 85.57642 -1 
L 85.622057 101.201706 
L 88.336635 101.201706 
L 88.348495 97.866986 
L 91.488955 97.866986 
L 91.640936 98.422772 
L 92.076924 98.422772 
L 92.430265 98.978559 
L 94.619718 99.534346 
L 94.662944 98.978559 
L 94.767894 99.534346 
L 101.547981 99.534346 
L 105.638292 98.422772 
L 106.246885 99.534346 
L 106.691265 98.978559 
L 107.81126 99.534346 
L 108.279845 96.755412 
L 109.19225 96.755412 
L 110.521847 98.422772 
L 110.608113 95.643839 
L 111.628378 96.199626 
L 114.283656 96.199626 
L 114.984035 95.088052 
L 116.024365 95.088052 
L 116.303226 91.197546 
L 122.787632 91.197546 
L 123.26058 87.862826 
L 123.284823 86.751252 
L 125.326733 86.751252 
L 128.337627 82.860746 
L 129.917069 82.860746 
L 129.940976 83.416532 
L 133.568221 83.416532 
L 134.46802 80.081812 
L 137.31567 80.081812 
L 137.335437 80.637599 
L 153.283702 80.637599 
L 156.264834 81.193386 
L 156.366614 80.637599 
L 159.45844 81.193386 
L 170.217733 81.193386 
L 175.432625 81.749172 
L 175.533361 74.523946 
L 175.78108 75.079732 
L 178.722977 75.079732 
L 179.975073 75.635519 
L 185.138571 75.635519 
L 185.334598 80.637599 
L 185.344221 71.745012 
L 185.595259 71.745012 
L 186.841836 73.968159 
L 192.945152 73.968159 
L 197.62276 70.077652 
L 202.821615 70.077652 
L 203.049754 68.410292 
L 216.558945 68.410292 
L 217.135501 68.966079 
L 220.415708 68.966079 
L 220.438832 70.077652 
L 226.688796 70.077652 
L 226.815564 73.412372 
L 236.475301 73.412372 
L 236.706013 68.410292 
L 238.127656 67.298719 
L 238.13105 67.854506 
L 238.458657 67.854506 
L 239.625868 65.075572 
L 241.333309 65.075572 
L 241.794137 65.631359 
L 241.840234 65.075572 
L 242.895483 65.631359 
L 242.900294 66.187146 
L 242.924947 65.631359 
L 243.53451 63.408212 
L 249.087228 63.408212 
L 250.813616 63.963999 
L 252.862127 63.963999 
L 256.341495 64.519786 
L 259.635352 64.519786 
L 262.180197 65.631359 
L 267.377374 65.075572 
L 267.749437 65.075572 
L 270.989104 66.187146 
L 271.901882 65.631359 
L 276.423594 65.631359 
L 281.521526 67.854506 
L 281.524286 67.298719 
L 289.131334 67.298719 
L 291.490557 67.854506 
L 333.534728 67.854506 
L 333.874269 68.410292 
L 336.505417 68.410292 
L 336.524326 66.742932 
L 349.206817 66.742932 
L 349.463002 67.298719 
L 375.552828 67.298719 
L 381.297732 67.854506 
L 381.330962 67.298719 
L 385.443464 68.966079 
L 386.768884 68.966079 
L 388.024821 68.410292 
L 391.47879 68.410292 
L 394.774288 68.966079 
L 394.779696 69.521866 
L 404.123686 67.854506 
L 405.010843 68.410292 
L 416.518328 68.410292 
L 417.00806 67.854506 
L 417.905174 68.410292 
L 418.213462 70.633439 
L 423.486983 70.633439 
L 423.491533 71.189226 
L 439.628403 71.189226 
L 440.568109 71.745012 
L 443.669333 71.745012 
L 443.971877 72.300799 
L 459.094486 72.300799 
L 459.115036 72.856586 
L 461.775163 72.856586 
L 462.897432 73.412372 
L 462.903064 73.968159 
L 463.820877 73.412372 
L 463.868803 73.968159 
L 465.294063 73.968159 
L 465.517988 74.523946 
L 468.499418 74.523946 
L 468.56849 73.412372 
L 469.032189 74.523946 
L 470.711509 72.856586 
L 474.772393 72.856586 
L 475.072215 71.189226 
L 476.433923 71.189226 
L 477.102228 72.300799 
L 480.545977 72.300799 
L 481.675967 72.856586 
L 481.950427 72.856586 
L 483.012501 70.077652 
L 484.910561 70.077652 
L 485.344088 70.633439 
L 494.129536 70.633439 
L 494.346001 71.189226 
L 495.158566 71.189226 
L 496.420098 71.745012 
L 510.629965 71.745012 
L 510.757629 72.300799 
L 511.213235 72.300799 
L 512.164354 73.412372 
L 513.49783 73.412372 
L 513.818462 72.856586 
L 514.127384 72.856586 
L 514.244604 73.412372 
L 517.810684 73.412372 
L 518.417786 73.968159 
L 521.521771 73.968159 
L 521.720781 74.523946 
L 523.421024 74.523946 
L 523.529966 75.079732 
L 528.81393 75.079732 
L 528.927533 75.635519 
L 532.009214 75.635519 
L 533.038505 77.858666 
L 534.179683 77.858666 
L 534.180877 78.414452 
L 538.814513 78.414452 
L 539.664001 78.970239 
L 543.211918 78.970239 
L 543.91073 79.526026 
L 546.600581 79.526026 
L 546.802165 80.081812 
L 551.176558 80.081812 
L 552.304124 80.637599 
L 552.386249 81.193386 
L 552.751301 81.193386 
L 553.903519 60.629279 
L 557.476871 60.629279 
L 557.502605 61.185066 
L 557.704525 61.185066 
L 557.960151 60.629279 
L 560.90339 60.629279 
L 561.101133 61.185066 
L 561.614063 61.185066 
L 562.002946 61.740852 
L 562.084065 61.185066 
L 563.669064 61.185066 
L 563.681446 61.740852 
L 564.025015 61.740852 
L 564.175467 62.296639 
L 565.215051 62.852426 
L 572.448059 62.852426 
L 573.578571 63.408212 
L 574.335341 63.408212 
L 574.949305 63.963999 
L 575.570393 63.408212 
L 578.127658 63.408212 
L 578.237941 64.519786 
L 581.909084 64.519786 
L 583.333487 66.187146 
L 598.794369 66.187146 
L 599.692938 66.742932 
L 623.557657 66.742932 
L 623.704267 67.298719 
L 658.770981 67.298719 
L 658.92546 67.854506 
L 658.936537 68.410292 
L 658.947539 67.854506 
L 664.058451 67.854506 
L 665.212421 68.410292 
L 685.347667 68.410292 
L 689.874339 68.966079 
L 690.939844 69.521866 
L 690.948758 67.854506 
L 723.264492 67.854506 
L 723.448771 68.410292 
L 752.315572 68.410292 
L 756.004206 68.966079 
L 758.260493 68.966079 
L 758.50534 69.521866 
L 760.073556 70.077652 
L 764.471371 70.077652 
L 766.323557 70.633439 
L 768.261673 70.633439 
L 768.41261 71.189226 
L 771.600435 71.189226 
L 771.981226 71.745012 
L 772.056601 72.300799 
L 777.732246 72.300799 
L 777.75425 72.856586 
L 781.801894 72.856586 
L 782.586785 72.300799 
L 782.597452 72.856586 
L 784.234814 73.412372 
L 787.141578 73.412372 
L 789.233353 73.968159 
L 791.105344 73.968159 
L 793.864416 61.740852 
L 797.085584 61.740852 
L 797.100502 64.519786 
L 812.012614 64.519786 
L 812.012614 64.519786 
" clip-path="url(#p1cbb1f1994)" style="fill: none; stroke: #9467bd; stroke-width: 2; stroke-linecap: square"/>
   </g>
   <g id="patch_3">
    <path d="M 48.90125 455.237812 
L 48.90125 38.397812 
" style="fill: none; stroke: #d0d7de; stroke-width: 0.8; stroke-linejoin: miter; stroke-linecap: square"/>
   </g>
   <g id="patch_4">
    <path d="M 848.35125 455.237812 
L 848.35125 38.397812 
" style="fill: none; stroke: #d0d7de; stroke-width: 0.8; stroke-linejoin: miter; stroke-linecap: square"/>
   </g>
   <g id="patch_5">
    <path d="M 48.90125 455.237812 
L 848.35125 455.237812 
" style="fill: none; stroke: #d0d7de; stroke-width: 0.8; stroke-linejoin: miter; stroke-linecap: square"/>
   </g>
   <g id="patch_6">
    <path d="M 48.90125 38.397812 
L 848.35125 38.397812 
" style="fill: none; stroke: #d0d7de; stroke-width: 0.8; stroke-linejoin: miter; stroke-linecap: square"/>
   </g>
   <g id="text_19">
    <!-- 509 -->
    <g style="fill: #1a7f37" transform="translate(817.012614 174.825837) scale(0.09 -0.09)">
     <defs>
      <path id="DejaVuSans-Bold-35" d="M 678 4666 
L 3669 4666 
L 3669 3781 
L 1638 3781 
L 1638 3059 
Q 1775 3097 1914 3117 
Q 2053 3138 2203 3138 
Q 3056 3138 3531 2711 
Q 4006 2284 4006 1522 
Q 4006 766 3489 337 
Q 2972 -91 2053 -91 
Q 1656 -91 1267 -14 
Q 878 63 494 219 
L 494 1166 
Q 875 947 1217 837 
Q 1559 728 1863 728 
Q 2300 728 2551 942 
Q 2803 1156 2803 1522 
Q 2803 1891 2551 2103 
Q 2300 2316 1863 2316 
Q 1603 2316 1309 2248 
Q 1016 2181 678 2041 
L 678 4666 
z
" transform="scale(0.015625)"/>
      <path id="DejaVuSans-Bold-30" d="M 2944 2338 
Q 2944 3213 2780 3570 
Q 2616 3928 2228 3928 
Q 1841 3928 1675 3570 
Q 1509 3213 1509 2338 
Q 1509 1453 1675 1090 
Q 1841 728 2228 728 
Q 2613 728 2778 1090 
Q 2944 1453 2944 2338 
z
M 4147 2328 
Q 4147 1169 3647 539 
Q 3147 -91 2228 -91 
Q 1306 -91 806 539 
Q 306 1169 306 2328 
Q 306 3491 806 4120 
Q 1306 4750 2228 4750 
Q 3147 4750 3647 4120 
Q 4147 3491 4147 2328 
z
" transform="scale(0.015625)"/>
      <path id="DejaVuSans-Bold-39" d="M 641 103 
L 641 966 
Q 928 831 1190 764 
Q 1453 697 1709 697 
Q 2247 697 2547 995 
Q 2847 1294 2900 1881 
Q 2688 1725 2447 1647 
Q 2206 1569 1925 1569 
Q 1209 1569 770 1986 
Q 331 2403 331 3084 
Q 331 3838 820 4291 
Q 1309 4744 2131 4744 
Q 3044 4744 3544 4128 
Q 4044 3513 4044 2388 
Q 4044 1231 3459 570 
Q 2875 -91 1856 -91 
Q 1528 -91 1228 -42 
Q 928 6 641 103 
z
M 2125 2350 
Q 2441 2350 2600 2554 
Q 2759 2759 2759 3169 
Q 2759 3575 2600 3781 
Q 2441 3988 2125 3988 
Q 1809 3988 1650 3781 
Q 1491 3575 1491 3169 
Q 1491 2759 1650 2554 
Q 1809 2350 2125 2350 
z
" transform="scale(0.015625)"/>
     </defs>
     <use xlink:href="#DejaVuSans-Bold-35"/>
     <use xlink:href="#DejaVuSans-Bold-30" transform="translate(69.580078 0)"/>
     <use xlink:href="#DejaVuSans-Bold-39" transform="translate(139.160156 0)"/>
    </g>
   </g>
   <g id="text_20">
    <!-- 389 -->
    <g style="fill: #0969da" transform="translate(817.012614 241.520237) scale(0.09 -0.09)">
     <defs>
      <path id="DejaVuSans-Bold-33" d="M 2981 2516 
Q 3453 2394 3698 2092 
Q 3944 1791 3944 1325 
Q 3944 631 3412 270 
Q 2881 -91 1863 -91 
Q 1503 -91 1142 -33 
Q 781 25 428 141 
L 428 1069 
Q 766 900 1098 814 
Q 1431 728 1753 728 
Q 2231 728 2486 893 
Q 2741 1059 2741 1369 
Q 2741 1688 2480 1852 
Q 2219 2016 1709 2016 
L 1228 2016 
L 1228 2791 
L 1734 2791 
Q 2188 2791 2409 2933 
Q 2631 3075 2631 3366 
Q 2631 3634 2415 3781 
Q 2200 3928 1806 3928 
Q 1516 3928 1219 3862 
Q 922 3797 628 3669 
L 628 4550 
Q 984 4650 1334 4700 
Q 1684 4750 2022 4750 
Q 2931 4750 3382 4451 
Q 3834 4153 3834 3553 
Q 3834 3144 3618 2883 
Q 3403 2622 2981 2516 
z
" transform="scale(0.015625)"/>
      <path id="DejaVuSans-Bold-38" d="M 2228 2088 
Q 1891 2088 1709 1903 
Q 1528 1719 1528 1375 
Q 1528 1031 1709 848 
Q 1891 666 2228 666 
Q 2563 666 2741 848 
Q 2919 1031 2919 1375 
Q 2919 1722 2741 1905 
Q 2563 2088 2228 2088 
z
M 1350 2484 
Q 925 2613 709 2878 
Q 494 3144 494 3541 
Q 494 4131 934 4440 
Q 1375 4750 2228 4750 
Q 3075 4750 3515 4442 
Q 3956 4134 3956 3541 
Q 3956 3144 3739 2878 
Q 3522 2613 3097 2484 
Q 3572 2353 3814 2058 
Q 4056 1763 4056 1313 
Q 4056 619 3595 264 
Q 3134 -91 2228 -91 
Q 1319 -91 855 264 
Q 391 619 391 1313 
Q 391 1763 633 2058 
Q 875 2353 1350 2484 
z
M 1631 3419 
Q 1631 3141 1786 2991 
Q 1941 2841 2228 2841 
Q 2509 2841 2662 2991 
Q 2816 3141 2816 3419 
Q 2816 3697 2662 3845 
Q 2509 3994 2228 3994 
Q 1941 3994 1786 3844 
Q 1631 3694 1631 3419 
z
" transform="scale(0.015625)"/>
     </defs>
     <use xlink:href="#DejaVuSans-Bold-33"/>
     <use xlink:href="#DejaVuSans-Bold-38" transform="translate(69.580078 0)"/>
     <use xlink:href="#DejaVuSans-Bold-39" transform="translate(139.160156 0)"/>
    </g>
   </g>
   <g id="text_21">
    <!-- 135 -->
    <g style="fill: #bf8700" transform="translate(817.012614 382.69005) scale(0.09 -0.09)">
     <defs>
      <path id="DejaVuSans-Bold-31" d="M 750 831 
L 1813 831 
L 1813 3847 
L 722 3622 
L 722 4441 
L 1806 4666 
L 2950 4666 
L 2950 831 
L 4013 831 
L 4013 0 
L 750 0 
L 750 831 
z
" transform="scale(0.015625)"/>
     </defs>
     <use xlink:href="#DejaVuSans-Bold-31"/>
     <use xlink:href="#DejaVuSans-Bold-33" transform="translate(69.580078 0)"/>
     <use xlink:href="#DejaVuSans-Bold-35" transform="translate(139.160156 0)"/>
    </g>
   </g>
   <g id="text_22">
    <!-- 296 -->
    <g style="fill: #cf222e" transform="translate(817.012614 293.208397) scale(0.09 -0.09)">
     <defs>
      <path id="DejaVuSans-Bold-32" d="M 1844 884 
L 3897 884 
L 3897 0 
L 506 0 
L 506 884 
L 2209 2388 
Q 2438 2594 2547 2791 
Q 2656 2988 2656 3200 
Q 2656 3528 2436 3728 
Q 2216 3928 1850 3928 
Q 1569 3928 1234 3808 
Q 900 3688 519 3450 
L 519 4475 
Q 925 4609 1322 4679 
Q 1719 4750 2100 4750 
Q 2938 4750 3402 4381 
Q 3866 4013 3866 3353 
Q 3866 2972 3669 2642 
Q 3472 2313 2841 1759 
L 1844 884 
z
" transform="scale(0.015625)"/>
      <path id="DejaVuSans-Bold-36" d="M 2316 2303 
Q 2000 2303 1842 2098 
Q 1684 1894 1684 1484 
Q 1684 1075 1842 870 
Q 2000 666 2316 666 
Q 2634 666 2792 870 
Q 2950 1075 2950 1484 
Q 2950 1894 2792 2098 
Q 2634 2303 2316 2303 
z
M 3803 4544 
L 3803 3681 
Q 3506 3822 3243 3889 
Q 2981 3956 2731 3956 
Q 2194 3956 1894 3657 
Q 1594 3359 1544 2772 
Q 1750 2925 1990 3001 
Q 2231 3078 2516 3078 
Q 3231 3078 3670 2659 
Q 4109 2241 4109 1563 
Q 4109 813 3618 361 
Q 3128 -91 2303 -91 
Q 1394 -91 895 523 
Q 397 1138 397 2266 
Q 397 3422 980 4083 
Q 1563 4744 2578 4744 
Q 2900 4744 3203 4694 
Q 3506 4644 3803 4544 
z
" transform="scale(0.015625)"/>
     </defs>
     <use xlink:href="#DejaVuSans-Bold-32"/>
     <use xlink:href="#DejaVuSans-Bold-39" transform="translate(69.580078 0)"/>
     <use xlink:href="#DejaVuSans-Bold-36" transform="translate(139.160156 0)"/>
    </g>
   </g>
   <g id="text_23">
    <!-- 703 -->
    <g style="fill: #9467bd" transform="translate(817.012614 67.003223) scale(0.09 -0.09)">
     <defs>
      <path id="DejaVuSans-Bold-37" d="M 428 4666 
L 3944 4666 
L 3944 3988 
L 2125 0 
L 953 0 
L 2675 3781 
L 428 3781 
L 428 4666 
z
" transform="scale(0.015625)"/>
     </defs>
     <use xlink:href="#DejaVuSans-Bold-37"/>
     <use xlink:href="#DejaVuSans-Bold-30" transform="translate(69.580078 0)"/>
     <use xlink:href="#DejaVuSans-Bold-33" transform="translate(139.160156 0)"/>
    </g>
   </g>
   <g id="text_24">
    <!-- Erdős Problems Progress -->
    <g style="fill: #24292f" transform="translate(349.588281 18.397812) scale(0.14 -0.14)">
     <defs>
      <path id="DejaVuSans-Bold-45" d="M 588 4666 
L 3834 4666 
L 3834 3756 
L 1791 3756 
L 1791 2888 
L 3713 2888 
L 3713 1978 
L 1791 1978 
L 1791 909 
L 3903 909 
L 3903 0 
L 588 0 
L 588 4666 
z
" transform="scale(0.015625)"/>
      <path id="DejaVuSans-Bold-72" d="M 3138 2547 
Q 2991 2616 2845 2648 
Q 2700 2681 2553 2681 
Q 2122 2681 1889 2404 
Q 1656 2128 1656 1613 
L 1656 0 
L 538 0 
L 538 3500 
L 1656 3500 
L 1656 2925 
Q 1872 3269 2151 3426 
Q 2431 3584 2822 3584 
Q 2878 3584 2943 3579 
Q 3009 3575 3134 3559 
L 3138 2547 
z
" transform="scale(0.015625)"/>
      <path id="DejaVuSans-Bold-64" d="M 2919 2988 
L 2919 4863 
L 4044 4863 
L 4044 0 
L 2919 0 
L 2919 506 
Q 2688 197 2409 53 
Q 2131 -91 1766 -91 
Q 1119 -91 703 423 
Q 288 938 288 1747 
Q 288 2556 703 3070 
Q 1119 3584 1766 3584 
Q 2128 3584 2408 3439 
Q 2688 3294 2919 2988 
z
M 2181 722 
Q 2541 722 2730 984 
Q 2919 1247 2919 1747 
Q 2919 2247 2730 2509 
Q 2541 2772 2181 2772 
Q 1825 2772 1636 2509 
Q 1447 2247 1447 1747 
Q 1447 1247 1636 984 
Q 1825 722 2181 722 
z
" transform="scale(0.015625)"/>
      <path id="DejaVuSans-Bold-151" d="M 1881 5119 
L 2560 5119 
L 1785 3944 
L 1275 3944 
L 1881 5119 
z
M 3016 5119 
L 3738 5119 
L 2888 3944 
L 2344 3944 
L 3016 5119 
z
M 2203 2784 
Q 1831 2784 1636 2517 
Q 1441 2250 1441 1747 
Q 1441 1244 1636 976 
Q 1831 709 2203 709 
Q 2569 709 2762 976 
Q 2956 1244 2956 1747 
Q 2956 2250 2762 2517 
Q 2569 2784 2203 2784 
z
M 2203 3584 
Q 3106 3584 3614 3096 
Q 4122 2609 4122 1747 
Q 4122 884 3614 396 
Q 3106 -91 2203 -91 
Q 1297 -91 786 396 
Q 275 884 275 1747 
Q 275 2609 786 3096 
Q 1297 3584 2203 3584 
z
" transform="scale(0.015625)"/>
      <path id="DejaVuSans-Bold-73" d="M 3272 3391 
L 3272 2541 
Q 2913 2691 2578 2766 
Q 2244 2841 1947 2841 
Q 1628 2841 1473 2761 
Q 1319 2681 1319 2516 
Q 1319 2381 1436 2309 
Q 1553 2238 1856 2203 
L 2053 2175 
Q 2913 2066 3209 1816 
Q 3506 1566 3506 1031 
Q 3506 472 3093 190 
Q 2681 -91 1863 -91 
Q 1516 -91 1145 -36 
Q 775 19 384 128 
L 384 978 
Q 719 816 1070 734 
Q 1422 653 1784 653 
Q 2113 653 2278 743 
Q 2444 834 2444 1013 
Q 2444 1163 2330 1236 
Q 2216 1309 1875 1350 
L 1678 1375 
Q 931 1469 631 1722 
Q 331 1975 331 2491 
Q 331 3047 712 3315 
Q 1094 3584 1881 3584 
Q 2191 3584 2531 3537 
Q 2872 3491 3272 3391 
z
" transform="scale(0.015625)"/>
      <path id="DejaVuSans-Bold-20" transform="scale(0.015625)"/>
      <path id="DejaVuSans-Bold-50" d="M 588 4666 
L 2584 4666 
Q 3475 4666 3951 4270 
Q 4428 3875 4428 3144 
Q 4428 2409 3951 2014 
Q 3475 1619 2584 1619 
L 1791 1619 
L 1791 0 
L 588 0 
L 588 4666 
z
M 1791 3794 
L 1791 2491 
L 2456 2491 
Q 2806 2491 2997 2661 
Q 3188 2831 3188 3144 
Q 3188 3456 2997 3625 
Q 2806 3794 2456 3794 
L 1791 3794 
z
" transform="scale(0.015625)"/>
      <path id="DejaVuSans-Bold-6f" d="M 2203 2784 
Q 1831 2784 1636 2517 
Q 1441 2250 1441 1747 
Q 1441 1244 1636 976 
Q 1831 709 2203 709 
Q 2569 709 2762 976 
Q 2956 1244 2956 1747 
Q 2956 2250 2762 2517 
Q 2569 2784 2203 2784 
z
M 2203 3584 
Q 3106 3584 3614 3096 
Q 4122 2609 4122 1747 
Q 4122 884 3614 396 
Q 3106 -91 2203 -91 
Q 1297 -91 786 396 
Q 275 884 275 1747 
Q 275 2609 786 3096 
Q 1297 3584 2203 3584 
z
" transform="scale(0.015625)"/>
      <path id="DejaVuSans-Bold-62" d="M 2400 722 
Q 2759 722 2948 984 
Q 3138 1247 3138 1747 
Q 3138 2247 2948 2509 
Q 2759 2772 2400 2772 
Q 2041 2772 1848 2508 
Q 1656 2244 1656 1747 
Q 1656 1250 1848 986 
Q 2041 722 2400 722 
z
M 1656 2988 
Q 1888 3294 2169 3439 
Q 2450 3584 2816 3584 
Q 3463 3584 3878 3070 
Q 4294 2556 4294 1747 
Q 4294 938 3878 423 
Q 3463 -91 2816 -91 
Q 2450 -91 2169 54 
Q 1888 200 1656 506 
L 1656 0 
L 538 0 
L 538 4863 
L 1656 4863 
L 1656 2988 
z
" transform="scale(0.015625)"/>
      <path id="DejaVuSans-Bold-6c" d="M 538 4863 
L 1656 4863 
L 1656 0 
L 538 0 
L 538 4863 
z
" transform="scale(0.015625)"/>
      <path id="DejaVuSans-Bold-65" d="M 4031 1759 
L 4031 1441 
L 1416 1441 
Q 1456 1047 1700 850 
Q 1944 653 2381 653 
Q 2734 653 3104 758 
Q 3475 863 3866 1075 
L 3866 213 
Q 3469 63 3072 -14 
Q 2675 -91 2278 -91 
Q 1328 -91 801 392 
Q 275 875 275 1747 
Q 275 2603 792 3093 
Q 1309 3584 2216 3584 
Q 3041 3584 3536 3087 
Q 4031 2591 4031 1759 
z
M 2881 2131 
Q 2881 2450 2695 2645 
Q 2509 2841 2209 2841 
Q 1884 2841 1681 2658 
Q 1478 2475 1428 2131 
L 2881 2131 
z
" transform="scale(0.015625)"/>
      <path id="DejaVuSans-Bold-6d" d="M 3781 2919 
Q 3994 3244 4286 3414 
Q 4578 3584 4928 3584 
Q 5531 3584 5847 3212 
Q 6163 2841 6163 2131 
L 6163 0 
L 5038 0 
L 5038 1825 
Q 5041 1866 5042 1909 
Q 5044 1953 5044 2034 
Q 5044 2406 4934 2573 
Q 4825 2741 4581 2741 
Q 4263 2741 4089 2478 
Q 3916 2216 3909 1719 
L 3909 0 
L 2784 0 
L 2784 1825 
Q 2784 2406 2684 2573 
Q 2584 2741 2328 2741 
Q 2006 2741 1831 2477 
Q 1656 2213 1656 1722 
L 1656 0 
L 531 0 
L 531 3500 
L 1656 3500 
L 1656 2988 
Q 1863 3284 2130 3434 
Q 2397 3584 2719 3584 
Q 3081 3584 3359 3409 
Q 3638 3234 3781 2919 
z
" transform="scale(0.015625)"/>
      <path id="DejaVuSans-Bold-67" d="M 2919 594 
Q 2688 288 2409 144 
Q 2131 0 1766 0 
Q 1125 0 706 504 
Q 288 1009 288 1791 
Q 288 2575 706 3076 
Q 1125 3578 1766 3578 
Q 2131 3578 2409 3434 
Q 2688 3291 2919 2981 
L 2919 3500 
L 4044 3500 
L 4044 353 
Q 4044 -491 3511 -936 
Q 2978 -1381 1966 -1381 
Q 1638 -1381 1331 -1331 
Q 1025 -1281 716 -1178 
L 716 -306 
Q 1009 -475 1290 -558 
Q 1572 -641 1856 -641 
Q 2406 -641 2662 -400 
Q 2919 -159 2919 353 
L 2919 594 
z
M 2181 2772 
Q 1834 2772 1640 2515 
Q 1447 2259 1447 1791 
Q 1447 1309 1634 1061 
Q 1822 813 2181 813 
Q 2531 813 2725 1069 
Q 2919 1325 2919 1791 
Q 2919 2259 2725 2515 
Q 2531 2772 2181 2772 
z
" transform="scale(0.015625)"/>
     </defs>
     <use xlink:href="#DejaVuSans-Bold-45"/>
     <use xlink:href="#DejaVuSans-Bold-72" transform="translate(68.310547 0)"/>
     <use xlink:href="#DejaVuSans-Bold-64" transform="translate(117.626953 0)"/>
     <use xlink:href="#DejaVuSans-Bold-151" transform="translate(189.208984 0)"/>
     <use xlink:href="#DejaVuSans-Bold-73" transform="translate(257.910156 0)"/>
     <use xlink:href="#DejaVuSans-Bold-20" transform="translate(317.431641 0)"/>
     <use xlink:href="#DejaVuSans-Bold-50" transform="translate(352.246094 0)"/>
     <use xlink:href="#DejaVuSans-Bold-72" transform="translate(425.537109 0)"/>
     <use xlink:href="#DejaVuSans-Bold-6f" transform="translate(474.853516 0)"/>
     <use xlink:href="#DejaVuSans-Bold-62" transform="translate(543.554688 0)"/>
     <use xlink:href="#DejaVuSans-Bold-6c" transform="translate(615.136719 0)"/>
     <use xlink:href="#DejaVuSans-Bold-65" transform="translate(649.414062 0)"/>
     <use xlink:href="#DejaVuSans-Bold-6d" transform="translate(717.236328 0)"/>
     <use xlink:href="#DejaVuSans-Bold-73" transform="translate(821.435547 0)"/>
     <use xlink:href="#DejaVuSans-Bold-20" transform="translate(880.957031 0)"/>
     <use xlink:href="#DejaVuSans-Bold-50" transform="translate(915.771484 0)"/>
     <use xlink:href="#DejaVuSans-Bold-72" transform="translate(989.0625 0)"/>
     <use xlink:href="#DejaVuSans-Bold-6f" transform="translate(1038.378906 0)"/>
     <use xlink:href="#DejaVuSans-Bold-67" transform="translate(1107.080078 0)"/>
     <use xlink:href="#DejaVuSans-Bold-72" transform="translate(1178.662109 0)"/>
     <use xlink:href="#DejaVuSans-Bold-65" transform="translate(1227.978516 0)"/>
     <use xlink:href="#DejaVuSans-Bold-73" transform="translate(1295.800781 0)"/>
     <use xlink:href="#DejaVuSans-Bold-73" transform="translate(1355.322266 0)"/>
    </g>
   </g>
   <g id="legend_1">
    <g id="patch_7">
     <path d="M 55.90125 119.788437 
L 213.771563 119.788437 
Q 215.771563 119.788437 215.771563 117.788437 
L 215.771563 45.397812 
Q 215.771563 43.397812 213.771563 43.397812 
L 55.90125 43.397812 
Q 53.90125 43.397812 53.90125 45.397812 
L 53.90125 117.788437 
Q 53.90125 119.788437 55.90125 119.788437 
z
" style="fill: #f6f8fa; opacity: 0.8; stroke: #d0d7de; stroke-linejoin: miter"/>
    </g>
    <g id="line2d_38">
     <path d="M 57.90125 51.49625 
L 67.90125 51.49625 
L 77.90125 51.49625 
" style="fill: none; stroke: #1a7f37; stroke-width: 2; stroke-linecap: square"/>
    </g>
    <g id="text_25">
     <!-- Solved -->
     <g style="fill: #24292f" transform="translate(85.90125 54.99625) scale(0.1 -0.1)">
      <defs>
       <path id="DejaVuSans-6c" d="M 603 4863 
L 1178 4863 
L 1178 0 
L 603 0 
L 603 4863 
z
" transform="scale(0.015625)"/>
       <path id="DejaVuSans-64" d="M 2906 2969 
L 2906 4863 
L 3481 4863 
L 3481 0 
L 2906 0 
L 2906 525 
Q 2725 213 2448 61 
Q 2172 -91 1784 -91 
Q 1150 -91 751 415 
Q 353 922 353 1747 
Q 353 2572 751 3078 
Q 1150 3584 1784 3584 
Q 2172 3584 2448 3432 
Q 2725 3281 2906 2969 
z
M 947 1747 
Q 947 1113 1208 752 
Q 1469 391 1925 391 
Q 2381 391 2643 752 
Q 2906 1113 2906 1747 
Q 2906 2381 2643 2742 
Q 2381 3103 1925 3103 
Q 1469 3103 1208 2742 
Q 947 2381 947 1747 
z
" transform="scale(0.015625)"/>
      </defs>
      <use xlink:href="#DejaVuSans-53"/>
      <use xlink:href="#DejaVuSans-6f" transform="translate(63.476562 0)"/>
      <use xlink:href="#DejaVuSans-6c" transform="translate(124.658203 0)"/>
      <use xlink:href="#DejaVuSans-76" transform="translate(152.441406 0)"/>
      <use xlink:href="#DejaVuSans-65" transform="translate(211.621094 0)"/>
      <use xlink:href="#DejaVuSans-64" transform="translate(273.144531 0)"/>
     </g>
    </g>
    <g id="line2d_39">
     <path d="M 57.90125 66.174375 
L 67.90125 66.174375 
L 77.90125 66.174375 
" style="fill: none; stroke: #0969da; stroke-width: 2; stroke-linecap: square"/>
    </g>
    <g id="text_26">
     <!-- Lean Formalized Problem -->
     <g style="fill: #24292f" transform="translate(85.90125 69.674375) scale(0.1 -0.1)">
      <defs>
       <path id="DejaVuSans-4c" d="M 628 4666 
L 1259 4666 
L 1259 531 
L 3531 531 
L 3531 0 
L 628 0 
L 628 4666 
z
" transform="scale(0.015625)"/>
       <path id="DejaVuSans-20" transform="scale(0.015625)"/>
       <path id="DejaVuSans-6d" d="M 3328 2828 
Q 3544 3216 3844 3400 
Q 4144 3584 4550 3584 
Q 5097 3584 5394 3201 
Q 5691 2819 5691 2113 
L 5691 0 
L 5113 0 
L 5113 2094 
Q 5113 2597 4934 2840 
Q 4756 3084 4391 3084 
Q 3944 3084 3684 2787 
Q 3425 2491 3425 1978 
L 3425 0 
L 2847 0 
L 2847 2094 
Q 2847 2600 2669 2842 
Q 2491 3084 2119 3084 
Q 1678 3084 1418 2786 
Q 1159 2488 1159 1978 
L 1159 0 
L 581 0 
L 581 3500 
L 1159 3500 
L 1159 2956 
Q 1356 3278 1631 3431 
Q 1906 3584 2284 3584 
Q 2666 3584 2933 3390 
Q 3200 3197 3328 2828 
z
" transform="scale(0.015625)"/>
       <path id="DejaVuSans-69" d="M 603 3500 
L 1178 3500 
L 1178 0 
L 603 0 
L 603 3500 
z
M 603 4863 
L 1178 4863 
L 1178 4134 
L 603 4134 
L 603 4863 
z
" transform="scale(0.015625)"/>
       <path id="DejaVuSans-7a" d="M 353 3500 
L 3084 3500 
L 3084 2975 
L 922 459 
L 3084 459 
L 3084 0 
L 275 0 
L 275 525 
L 2438 3041 
L 353 3041 
L 353 3500 
z
" transform="scale(0.015625)"/>
       <path id="DejaVuSans-50" d="M 1259 4147 
L 1259 2394 
L 2053 2394 
Q 2494 2394 2734 2622 
Q 2975 2850 2975 3272 
Q 2975 3691 2734 3919 
Q 2494 4147 2053 4147 
L 1259 4147 
z
M 628 4666 
L 2053 4666 
Q 2838 4666 3239 4311 
Q 3641 3956 3641 3272 
Q 3641 2581 3239 2228 
Q 2838 1875 2053 1875 
L 1259 1875 
L 1259 0 
L 628 0 
L 628 4666 
z
" transform="scale(0.015625)"/>
      </defs>
      <use xlink:href="#DejaVuSans-4c"/>
      <use xlink:href="#DejaVuSans-65" transform="translate(53.962891 0)"/>
      <use xlink:href="#DejaVuSans-61" transform="translate(115.486328 0)"/>
      <use xlink:href="#DejaVuSans-6e" transform="translate(176.765625 0)"/>
      <use xlink:href="#DejaVuSans-20" transform="translate(240.144531 0)"/>
      <use xlink:href="#DejaVuSans-46" transform="translate(271.931641 0)"/>
      <use xlink:href="#DejaVuSans-6f" transform="translate(325.826172 0)"/>
      <use xlink:href="#DejaVuSans-72" transform="translate(387.007812 0)"/>
      <use xlink:href="#DejaVuSans-6d" transform="translate(426.371094 0)"/>
      <use xlink:href="#DejaVuSans-61" transform="translate(523.783203 0)"/>
      <use xlink:href="#DejaVuSans-6c" transform="translate(585.0625 0)"/>
      <use xlink:href="#DejaVuSans-69" transform="translate(612.845703 0)"/>
      <use xlink:href="#DejaVuSans-7a" transform="translate(640.628906 0)"/>
      <use xlink:href="#DejaVuSans-65" transform="translate(693.119141 0)"/>
      <use xlink:href="#DejaVuSans-64" transform="translate(754.642578 0)"/>
      <use xlink:href="#DejaVuSans-20" transform="translate(818.119141 0)"/>
      <use xlink:href="#DejaVuSans-50" transform="translate(849.90625 0)"/>
      <use xlink:href="#DejaVuSans-72" transform="translate(908.458984 0)"/>
      <use xlink:href="#DejaVuSans-6f" transform="translate(947.322266 0)"/>
      <use xlink:href="#DejaVuSans-62" transform="translate(1008.503906 0)"/>
      <use xlink:href="#DejaVuSans-6c" transform="translate(1071.980469 0)"/>
      <use xlink:href="#DejaVuSans-65" transform="translate(1099.763672 0)"/>
      <use xlink:href="#DejaVuSans-6d" transform="translate(1161.287109 0)"/>
     </g>
    </g>
    <g id="line2d_40">
     <path d="M 57.90125 80.8525 
L 67.90125 80.8525 
L 77.90125 80.8525 
" style="fill: none; stroke: #bf8700; stroke-width: 2; stroke-linecap: square"/>
    </g>
    <g id="text_27">
     <!-- Lean Formalized Solution -->
     <g style="fill: #24292f" transform="translate(85.90125 84.3525) scale(0.1 -0.1)">
      <use xlink:href="#DejaVuSans-4c"/>
      <use xlink:href="#DejaVuSans-65" transform="translate(53.962891 0)"/>
      <use xlink:href="#DejaVuSans-61" transform="translate(115.486328 0)"/>
      <use xlink:href="#DejaVuSans-6e" transform="translate(176.765625 0)"/>
      <use xlink:href="#DejaVuSans-20" transform="translate(240.144531 0)"/>
      <use xlink:href="#DejaVuSans-46" transform="translate(271.931641 0)"/>
      <use xlink:href="#DejaVuSans-6f" transform="translate(325.826172 0)"/>
      <use xlink:href="#DejaVuSans-72" transform="translate(387.007812 0)"/>
      <use xlink:href="#DejaVuSans-6d" transform="translate(426.371094 0)"/>
      <use xlink:href="#DejaVuSans-61" transform="translate(523.783203 0)"/>
      <use xlink:href="#DejaVuSans-6c" transform="translate(585.0625 0)"/>
      <use xlink:href="#DejaVuSans-69" transform="translate(612.845703 0)"/>
      <use xlink:href="#DejaVuSans-7a" transform="translate(640.628906 0)"/>
      <use xlink:href="#DejaVuSans-65" transform="translate(693.119141 0)"/>
      <use xlink:href="#DejaVuSans-64" transform="translate(754.642578 0)"/>
      <use xlink:href="#DejaVuSans-20" transform="translate(818.119141 0)"/>
      <use xlink:href="#DejaVuSans-53" transform="translate(849.90625 0)"/>
      <use xlink:href="#DejaVuSans-6f" transform="translate(913.382812 0)"/>
      <use xlink:href="#DejaVuSans-6c" transform="translate(974.564453 0)"/>
      <use xlink:href="#DejaVuSans-75" transform="translate(1002.347656 0)"/>
      <use xlink:href="#DejaVuSans-74" transform="translate(1065.726562 0)"/>
      <use xlink:href="#DejaVuSans-69" transform="translate(1104.935547 0)"/>
      <use xlink:href="#DejaVuSans-6f" transform="translate(1132.71875 0)"/>
      <use xlink:href="#DejaVuSans-6e" transform="translate(1193.900391 0)"/>
     </g>
    </g>
    <g id="line2d_41">
     <path d="M 57.90125 95.530625 
L 67.90125 95.530625 
L 77.90125 95.530625 
" style="fill: none; stroke: #cf222e; stroke-width: 2; stroke-linecap: square"/>
    </g>
    <g id="text_28">
     <!-- OEIS Linked -->
     <g style="fill: #24292f" transform="translate(85.90125 99.030625) scale(0.1 -0.1)">
      <defs>
       <path id="DejaVuSans-45" d="M 628 4666 
L 3578 4666 
L 3578 4134 
L 1259 4134 
L 1259 2753 
L 3481 2753 
L 3481 2222 
L 1259 2222 
L 1259 531 
L 3634 531 
L 3634 0 
L 628 0 
L 628 4666 
z
" transform="scale(0.015625)"/>
       <path id="DejaVuSans-49" d="M 628 4666 
L 1259 4666 
L 1259 0 
L 628 0 
L 628 4666 
z
" transform="scale(0.015625)"/>
       <path id="DejaVuSans-6b" d="M 581 4863 
L 1159 4863 
L 1159 1991 
L 2875 3500 
L 3609 3500 
L 1753 1863 
L 3688 0 
L 2938 0 
L 1159 1709 
L 1159 0 
L 581 0 
L 581 4863 
z
" transform="scale(0.015625)"/>
      </defs>
      <use xlink:href="#DejaVuSans-4f"/>
      <use xlink:href="#DejaVuSans-45" transform="translate(78.710938 0)"/>
      <use xlink:href="#DejaVuSans-49" transform="translate(141.894531 0)"/>
      <use xlink:href="#DejaVuSans-53" transform="translate(171.386719 0)"/>
      <use xlink:href="#DejaVuSans-20" transform="translate(234.863281 0)"/>
      <use xlink:href="#DejaVuSans-4c" transform="translate(266.650391 0)"/>
      <use xlink:href="#DejaVuSans-69" transform="translate(322.363281 0)"/>
      <use xlink:href="#DejaVuSans-6e" transform="translate(350.146484 0)"/>
      <use xlink:href="#DejaVuSans-6b" transform="translate(413.525391 0)"/>
      <use xlink:href="#DejaVuSans-65" transform="translate(467.810547 0)"/>
      <use xlink:href="#DejaVuSans-64" transform="translate(529.333984 0)"/>
     </g>
    </g>
    <g id="line2d_42">
     <path d="M 57.90125 110.20875 
L 67.90125 110.20875 
L 77.90125 110.20875 
" style="fill: none; stroke: #9467bd; stroke-width: 2; stroke-linecap: square"/>
    </g>
    <g id="text_29">
     <!-- Open Problems -->
     <g style="fill: #24292f" transform="translate(85.90125 113.70875) scale(0.1 -0.1)">
      <defs>
       <path id="DejaVuSans-73" d="M 2834 3397 
L 2834 2853 
Q 2591 2978 2328 3040 
Q 2066 3103 1784 3103 
Q 1356 3103 1142 2972 
Q 928 2841 928 2578 
Q 928 2378 1081 2264 
Q 1234 2150 1697 2047 
L 1894 2003 
Q 2506 1872 2764 1633 
Q 3022 1394 3022 966 
Q 3022 478 2636 193 
Q 2250 -91 1575 -91 
Q 1294 -91 989 -36 
Q 684 19 347 128 
L 347 722 
Q 666 556 975 473 
Q 1284 391 1588 391 
Q 1994 391 2212 530 
Q 2431 669 2431 922 
Q 2431 1156 2273 1281 
Q 2116 1406 1581 1522 
L 1381 1569 
Q 847 1681 609 1914 
Q 372 2147 372 2553 
Q 372 3047 722 3315 
Q 1072 3584 1716 3584 
Q 2034 3584 2315 3537 
Q 2597 3491 2834 3397 
z
" transform="scale(0.015625)"/>
      </defs>
      <use xlink:href="#DejaVuSans-4f"/>
      <use xlink:href="#DejaVuSans-70" transform="translate(78.710938 0)"/>
      <use xlink:href="#DejaVuSans-65" transform="translate(142.1875 0)"/>
      <use xlink:href="#DejaVuSans-6e" transform="translate(203.710938 0)"/>
      <use xlink:href="#DejaVuSans-20" transform="translate(267.089844 0)"/>
      <use xlink:href="#DejaVuSans-50" transform="translate(298.876953 0)"/>
      <use xlink:href="#DejaVuSans-72" transform="translate(357.429688 0)"/>
      <use xlink:href="#DejaVuSans-6f" transform="translate(396.292969 0)"/>
      <use xlink:href="#DejaVuSans-62" transform="translate(457.474609 0)"/>
      <use xlink:href="#DejaVuSans-6c" transform="translate(520.951172 0)"/>
      <use xlink:href="#DejaVuSans-65" transform="translate(548.734375 0)"/>
      <use xlink:href="#DejaVuSans-6d" transform="translate(610.257812 0)"/>
      <use xlink:href="#DejaVuSans-73" transform="translate(707.669922 0)"/>
     </g>
    </g>
   </g>
  </g>
 </g>
 <defs>
  <clipPath id="p1cbb1f1994">
   <rect x="48.90125" y="38.397812" width="799.45" height="416.84"/>
  </clipPath>
 </defs>
</svg>
