<?xml version="1.0" encoding="utf-8" standalone="no"?>
<!DOCTYPE svg PUBLIC "-//W3C//DTD SVG 1.1//EN"
  "http://www.w3.org/Graphics/SVG/1.1/DTD/svg11.dtd">
<svg xmlns:xlink="http://www.w3.org/1999/xlink" width="855.55125pt" height="494.729687pt" viewBox="0 0 855.55125 494.729687" xmlns="http://www.w3.org/2000/svg" version="1.1">
 <metadata>
  <rdf:RDF xmlns:dc="http://purl.org/dc/elements/1.1/" xmlns:cc="http://creativecommons.org/ns#" xmlns:rdf="http://www.w3.org/1999/02/22-rdf-syntax-ns#">
   <cc:Work>
    <dc:type rdf:resource="http://purl.org/dc/dcmitype/StillImage"/>
    <dc:date>2026-06-08T09:11:41.409337</dc:date>
    <dc:format>image/svg+xml</dc:format>
    <dc:creator>
     <cc:Agent>
      <dc:title>Matplotlib v3.10.7, https://matplotlib.org/</dc:title>
     </cc:Agent>
    </dc:creator>
   </cc:Work>
  </rdf:RDF>
 </metadata>
 <defs>
  <style type="text/css">*{stroke-linejoin: round; stroke-linecap: butt}</style>
 </defs>
 <g id="figure_1">
  <g id="patch_1">
   <path d="M 0 494.729687 
L 855.55125 494.729687 
L 855.55125 0 
L 0 0 
z
" style="fill: #ffffff"/>
  </g>
  <g id="axes_1">
   <g id="patch_2">
    <path d="M 48.90125 455.237812 
L 848.35125 455.237812 
L 848.35125 38.397812 
L 48.90125 38.397812 
z
" style="fill: #ffffff"/>
   </g>
   <g id="matplotlib.axis_1">
    <g id="xtick_1">
     <g id="line2d_1">
      <path d="M 85.996858 455.237812 
L 85.996858 38.397812 
" clip-path="url(#p36b2b11260)" style="fill: none; stroke: #d0d7de; stroke-opacity: 0.25; stroke-width: 0.5; stroke-linecap: square"/>
     </g>
     <g id="line2d_2">
      <defs>
       <path id="ma3a18c2902" d="M 0 0 
L 0 3.5 
" style="stroke: #24292f; stroke-width: 0.8"/>
      </defs>
      <g>
       <use xlink:href="#ma3a18c2902" x="85.996858" y="455.237812" style="fill: #24292f; stroke: #24292f; stroke-width: 0.8"/>
      </g>
     </g>
     <g id="text_1">
      <!-- Sep -->
      <g style="fill: #24292f" transform="translate(76.571858 469.83625) scale(0.1 -0.1)">
       <defs>
        <path id="DejaVuSans-53" d="M 3425 4513 
L 3425 3897 
Q 3066 4069 2747 4153 
Q 2428 4238 2131 4238 
Q 1616 4238 1336 4038 
Q 1056 3838 1056 3469 
Q 1056 3159 1242 3001 
Q 1428 2844 1947 2747 
L 2328 2669 
Q 3034 2534 3370 2195 
Q 3706 1856 3706 1288 
Q 3706 609 3251 259 
Q 2797 -91 1919 -91 
Q 1588 -91 1214 -16 
Q 841 59 441 206 
L 441 856 
Q 825 641 1194 531 
Q 1563 422 1919 422 
Q 2459 422 2753 634 
Q 3047 847 3047 1241 
Q 3047 1584 2836 1778 
Q 2625 1972 2144 2069 
L 1759 2144 
Q 1053 2284 737 2584 
Q 422 2884 422 3419 
Q 422 4038 858 4394 
Q 1294 4750 2059 4750 
Q 2388 4750 2728 4690 
Q 3069 4631 3425 4513 
z
" transform="scale(0.015625)"/>
        <path id="DejaVuSans-65" d="M 3597 1894 
L 3597 1613 
L 953 1613 
Q 991 1019 1311 708 
Q 1631 397 2203 397 
Q 2534 397 2845 478 
Q 3156 559 3463 722 
L 3463 178 
Q 3153 47 2828 -22 
Q 2503 -91 2169 -91 
Q 1331 -91 842 396 
Q 353 884 353 1716 
Q 353 2575 817 3079 
Q 1281 3584 2069 3584 
Q 2775 3584 3186 3129 
Q 3597 2675 3597 1894 
z
M 3022 2063 
Q 3016 2534 2758 2815 
Q 2500 3097 2075 3097 
Q 1594 3097 1305 2825 
Q 1016 2553 972 2059 
L 3022 2063 
z
" transform="scale(0.015625)"/>
        <path id="DejaVuSans-70" d="M 1159 525 
L 1159 -1331 
L 581 -1331 
L 581 3500 
L 1159 3500 
L 1159 2969 
Q 1341 3281 1617 3432 
Q 1894 3584 2278 3584 
Q 2916 3584 3314 3078 
Q 3713 2572 3713 1747 
Q 3713 922 3314 415 
Q 2916 -91 2278 -91 
Q 1894 -91 1617 61 
Q 1341 213 1159 525 
z
M 3116 1747 
Q 3116 2381 2855 2742 
Q 2594 3103 2138 3103 
Q 1681 3103 1420 2742 
Q 1159 2381 1159 1747 
Q 1159 1113 1420 752 
Q 1681 391 2138 391 
Q 2594 391 2855 752 
Q 3116 1113 3116 1747 
z
" transform="scale(0.015625)"/>
       </defs>
       <use xlink:href="#DejaVuSans-53"/>
       <use xlink:href="#DejaVuSans-65" transform="translate(63.476562 0)"/>
       <use xlink:href="#DejaVuSans-70" transform="translate(125 0)"/>
      </g>
     </g>
    </g>
    <g id="xtick_2">
     <g id="line2d_3">
      <path d="M 243.948457 455.237812 
L 243.948457 38.397812 
" clip-path="url(#p36b2b11260)" style="fill: none; stroke: #d0d7de; stroke-opacity: 0.25; stroke-width: 0.5; stroke-linecap: square"/>
     </g>
     <g id="line2d_4">
      <g>
       <use xlink:href="#ma3a18c2902" x="243.948457" y="455.237812" style="fill: #24292f; stroke: #24292f; stroke-width: 0.8"/>
      </g>
     </g>
     <g id="text_2">
      <!-- Nov -->
      <g style="fill: #24292f" transform="translate(234.189082 469.83625) scale(0.1 -0.1)">
       <defs>
        <path id="DejaVuSans-4e" d="M 628 4666 
L 1478 4666 
L 3547 763 
L 3547 4666 
L 4159 4666 
L 4159 0 
L 3309 0 
L 1241 3903 
L 1241 0 
L 628 0 
L 628 4666 
z
" transform="scale(0.015625)"/>
        <path id="DejaVuSans-6f" d="M 1959 3097 
Q 1497 3097 1228 2736 
Q 959 2375 959 1747 
Q 959 1119 1226 758 
Q 1494 397 1959 397 
Q 2419 397 2687 759 
Q 2956 1122 2956 1747 
Q 2956 2369 2687 2733 
Q 2419 3097 1959 3097 
z
M 1959 3584 
Q 2709 3584 3137 3096 
Q 3566 2609 3566 1747 
Q 3566 888 3137 398 
Q 2709 -91 1959 -91 
Q 1206 -91 779 398 
Q 353 888 353 1747 
Q 353 2609 779 3096 
Q 1206 3584 1959 3584 
z
" transform="scale(0.015625)"/>
        <path id="DejaVuSans-76" d="M 191 3500 
L 800 3500 
L 1894 563 
L 2988 3500 
L 3597 3500 
L 2284 0 
L 1503 0 
L 191 3500 
z
" transform="scale(0.015625)"/>
       </defs>
       <use xlink:href="#DejaVuSans-4e"/>
       <use xlink:href="#DejaVuSans-6f" transform="translate(74.804688 0)"/>
       <use xlink:href="#DejaVuSans-76" transform="translate(135.986328 0)"/>
      </g>
     </g>
    </g>
    <g id="xtick_3">
     <g id="line2d_5">
      <path d="M 401.900056 455.237812 
L 401.900056 38.397812 
" clip-path="url(#p36b2b11260)" style="fill: none; stroke: #d0d7de; stroke-opacity: 0.25; stroke-width: 0.5; stroke-linecap: square"/>
     </g>
     <g id="line2d_6">
      <g>
       <use xlink:href="#ma3a18c2902" x="401.900056" y="455.237812" style="fill: #24292f; stroke: #24292f; stroke-width: 0.8"/>
      </g>
     </g>
     <g id="text_3">
      <!-- 2026 -->
      <g style="fill: #24292f" transform="translate(389.175056 469.83625) scale(0.1 -0.1)">
       <defs>
        <path id="DejaVuSans-32" d="M 1228 531 
L 3431 531 
L 3431 0 
L 469 0 
L 469 531 
Q 828 903 1448 1529 
Q 2069 2156 2228 2338 
Q 2531 2678 2651 2914 
Q 2772 3150 2772 3378 
Q 2772 3750 2511 3984 
Q 2250 4219 1831 4219 
Q 1534 4219 1204 4116 
Q 875 4013 500 3803 
L 500 4441 
Q 881 4594 1212 4672 
Q 1544 4750 1819 4750 
Q 2544 4750 2975 4387 
Q 3406 4025 3406 3419 
Q 3406 3131 3298 2873 
Q 3191 2616 2906 2266 
Q 2828 2175 2409 1742 
Q 1991 1309 1228 531 
z
" transform="scale(0.015625)"/>
        <path id="DejaVuSans-30" d="M 2034 4250 
Q 1547 4250 1301 3770 
Q 1056 3291 1056 2328 
Q 1056 1369 1301 889 
Q 1547 409 2034 409 
Q 2525 409 2770 889 
Q 3016 1369 3016 2328 
Q 3016 3291 2770 3770 
Q 2525 4250 2034 4250 
z
M 2034 4750 
Q 2819 4750 3233 4129 
Q 3647 3509 3647 2328 
Q 3647 1150 3233 529 
Q 2819 -91 2034 -91 
Q 1250 -91 836 529 
Q 422 1150 422 2328 
Q 422 3509 836 4129 
Q 1250 4750 2034 4750 
z
" transform="scale(0.015625)"/>
        <path id="DejaVuSans-36" d="M 2113 2584 
Q 1688 2584 1439 2293 
Q 1191 2003 1191 1497 
Q 1191 994 1439 701 
Q 1688 409 2113 409 
Q 2538 409 2786 701 
Q 3034 994 3034 1497 
Q 3034 2003 2786 2293 
Q 2538 2584 2113 2584 
z
M 3366 4563 
L 3366 3988 
Q 3128 4100 2886 4159 
Q 2644 4219 2406 4219 
Q 1781 4219 1451 3797 
Q 1122 3375 1075 2522 
Q 1259 2794 1537 2939 
Q 1816 3084 2150 3084 
Q 2853 3084 3261 2657 
Q 3669 2231 3669 1497 
Q 3669 778 3244 343 
Q 2819 -91 2113 -91 
Q 1303 -91 875 529 
Q 447 1150 447 2328 
Q 447 3434 972 4092 
Q 1497 4750 2381 4750 
Q 2619 4750 2861 4703 
Q 3103 4656 3366 4563 
z
" transform="scale(0.015625)"/>
       </defs>
       <use xlink:href="#DejaVuSans-32"/>
       <use xlink:href="#DejaVuSans-30" transform="translate(63.623047 0)"/>
       <use xlink:href="#DejaVuSans-32" transform="translate(127.246094 0)"/>
       <use xlink:href="#DejaVuSans-36" transform="translate(190.869141 0)"/>
      </g>
     </g>
    </g>
    <g id="xtick_4">
     <g id="line2d_7">
      <path d="M 554.672914 455.237812 
L 554.672914 38.397812 
" clip-path="url(#p36b2b11260)" style="fill: none; stroke: #d0d7de; stroke-opacity: 0.25; stroke-width: 0.5; stroke-linecap: square"/>
     </g>
     <g id="line2d_8">
      <g>
       <use xlink:href="#ma3a18c2902" x="554.672914" y="455.237812" style="fill: #24292f; stroke: #24292f; stroke-width: 0.8"/>
      </g>
     </g>
     <g id="text_4">
      <!-- Mar -->
      <g style="fill: #24292f" transform="translate(545.23932 469.83625) scale(0.1 -0.1)">
       <defs>
        <path id="DejaVuSans-4d" d="M 628 4666 
L 1569 4666 
L 2759 1491 
L 3956 4666 
L 4897 4666 
L 4897 0 
L 4281 0 
L 4281 4097 
L 3078 897 
L 2444 897 
L 1241 4097 
L 1241 0 
L 628 0 
L 628 4666 
z
" transform="scale(0.015625)"/>
        <path id="DejaVuSans-61" d="M 2194 1759 
Q 1497 1759 1228 1600 
Q 959 1441 959 1056 
Q 959 750 1161 570 
Q 1363 391 1709 391 
Q 2188 391 2477 730 
Q 2766 1069 2766 1631 
L 2766 1759 
L 2194 1759 
z
M 3341 1997 
L 3341 0 
L 2766 0 
L 2766 531 
Q 2569 213 2275 61 
Q 1981 -91 1556 -91 
Q 1019 -91 701 211 
Q 384 513 384 1019 
Q 384 1609 779 1909 
Q 1175 2209 1959 2209 
L 2766 2209 
L 2766 2266 
Q 2766 2663 2505 2880 
Q 2244 3097 1772 3097 
Q 1472 3097 1187 3025 
Q 903 2953 641 2809 
L 641 3341 
Q 956 3463 1253 3523 
Q 1550 3584 1831 3584 
Q 2591 3584 2966 3190 
Q 3341 2797 3341 1997 
z
" transform="scale(0.015625)"/>
        <path id="DejaVuSans-72" d="M 2631 2963 
Q 2534 3019 2420 3045 
Q 2306 3072 2169 3072 
Q 1681 3072 1420 2755 
Q 1159 2438 1159 1844 
L 1159 0 
L 581 0 
L 581 3500 
L 1159 3500 
L 1159 2956 
Q 1341 3275 1631 3429 
Q 1922 3584 2338 3584 
Q 2397 3584 2469 3576 
Q 2541 3569 2628 3553 
L 2631 2963 
z
" transform="scale(0.015625)"/>
       </defs>
       <use xlink:href="#DejaVuSans-4d"/>
       <use xlink:href="#DejaVuSans-61" transform="translate(86.279297 0)"/>
       <use xlink:href="#DejaVuSans-72" transform="translate(147.558594 0)"/>
      </g>
     </g>
    </g>
    <g id="xtick_5">
     <g id="line2d_9">
      <path d="M 712.624513 455.237812 
L 712.624513 38.397812 
" clip-path="url(#p36b2b11260)" style="fill: none; stroke: #d0d7de; stroke-opacity: 0.25; stroke-width: 0.5; stroke-linecap: square"/>
     </g>
     <g id="line2d_10">
      <g>
       <use xlink:href="#ma3a18c2902" x="712.624513" y="455.237812" style="fill: #24292f; stroke: #24292f; stroke-width: 0.8"/>
      </g>
     </g>
     <g id="text_5">
      <!-- May -->
      <g style="fill: #24292f" transform="translate(702.287013 469.83625) scale(0.1 -0.1)">
       <defs>
        <path id="DejaVuSans-79" d="M 2059 -325 
Q 1816 -950 1584 -1140 
Q 1353 -1331 966 -1331 
L 506 -1331 
L 506 -850 
L 844 -850 
Q 1081 -850 1212 -737 
Q 1344 -625 1503 -206 
L 1606 56 
L 191 3500 
L 800 3500 
L 1894 763 
L 2988 3500 
L 3597 3500 
L 2059 -325 
z
" transform="scale(0.015625)"/>
       </defs>
       <use xlink:href="#DejaVuSans-4d"/>
       <use xlink:href="#DejaVuSans-61" transform="translate(86.279297 0)"/>
       <use xlink:href="#DejaVuSans-79" transform="translate(147.558594 0)"/>
      </g>
     </g>
    </g>
    <g id="text_6">
     <!-- Date -->
     <g style="fill: #24292f" transform="translate(434.285313 485.034062) scale(0.12 -0.12)">
      <defs>
       <path id="DejaVuSans-44" d="M 1259 4147 
L 1259 519 
L 2022 519 
Q 2988 519 3436 956 
Q 3884 1394 3884 2338 
Q 3884 3275 3436 3711 
Q 2988 4147 2022 4147 
L 1259 4147 
z
M 628 4666 
L 1925 4666 
Q 3281 4666 3915 4102 
Q 4550 3538 4550 2338 
Q 4550 1131 3912 565 
Q 3275 0 1925 0 
L 628 0 
L 628 4666 
z
" transform="scale(0.015625)"/>
       <path id="DejaVuSans-74" d="M 1172 4494 
L 1172 3500 
L 2356 3500 
L 2356 3053 
L 1172 3053 
L 1172 1153 
Q 1172 725 1289 603 
Q 1406 481 1766 481 
L 2356 481 
L 2356 0 
L 1766 0 
Q 1100 0 847 248 
Q 594 497 594 1153 
L 594 3053 
L 172 3053 
L 172 3500 
L 594 3500 
L 594 4494 
L 1172 4494 
z
" transform="scale(0.015625)"/>
      </defs>
      <use xlink:href="#DejaVuSans-44"/>
      <use xlink:href="#DejaVuSans-61" transform="translate(77.001953 0)"/>
      <use xlink:href="#DejaVuSans-74" transform="translate(138.28125 0)"/>
      <use xlink:href="#DejaVuSans-65" transform="translate(177.490234 0)"/>
     </g>
    </g>
   </g>
   <g id="matplotlib.axis_2">
    <g id="ytick_1">
     <g id="line2d_11">
      <path d="M 48.90125 455.237812 
L 848.35125 455.237812 
" clip-path="url(#p36b2b11260)" style="fill: none; stroke: #d0d7de; stroke-opacity: 0.25; stroke-width: 0.5; stroke-linecap: square"/>
     </g>
     <g id="line2d_12">
      <defs>
       <path id="m813d5c9c19" d="M 0 0 
L -3.5 0 
" style="stroke: #24292f; stroke-width: 0.8"/>
      </defs>
      <g>
       <use xlink:href="#m813d5c9c19" x="48.90125" y="455.237812" style="fill: #24292f; stroke: #24292f; stroke-width: 0.8"/>
      </g>
     </g>
     <g id="text_7">
      <!-- 0 -->
      <g style="fill: #24292f" transform="translate(35.53875 459.037031) scale(0.1 -0.1)">
       <use xlink:href="#DejaVuSans-30"/>
      </g>
     </g>
    </g>
    <g id="ytick_2">
     <g id="line2d_13">
      <path d="M 48.90125 399.659146 
L 848.35125 399.659146 
" clip-path="url(#p36b2b11260)" style="fill: none; stroke: #d0d7de; stroke-opacity: 0.25; stroke-width: 0.5; stroke-linecap: square"/>
     </g>
     <g id="line2d_14">
      <g>
       <use xlink:href="#m813d5c9c19" x="48.90125" y="399.659146" style="fill: #24292f; stroke: #24292f; stroke-width: 0.8"/>
      </g>
     </g>
     <g id="text_8">
      <!-- 100 -->
      <g style="fill: #24292f" transform="translate(22.81375 403.458365) scale(0.1 -0.1)">
       <defs>
        <path id="DejaVuSans-31" d="M 794 531 
L 1825 531 
L 1825 4091 
L 703 3866 
L 703 4441 
L 1819 4666 
L 2450 4666 
L 2450 531 
L 3481 531 
L 3481 0 
L 794 0 
L 794 531 
z
" transform="scale(0.015625)"/>
       </defs>
       <use xlink:href="#DejaVuSans-31"/>
       <use xlink:href="#DejaVuSans-30" transform="translate(63.623047 0)"/>
       <use xlink:href="#DejaVuSans-30" transform="translate(127.246094 0)"/>
      </g>
     </g>
    </g>
    <g id="ytick_3">
     <g id="line2d_15">
      <path d="M 48.90125 344.080479 
L 848.35125 344.080479 
" clip-path="url(#p36b2b11260)" style="fill: none; stroke: #d0d7de; stroke-opacity: 0.25; stroke-width: 0.5; stroke-linecap: square"/>
     </g>
     <g id="line2d_16">
      <g>
       <use xlink:href="#m813d5c9c19" x="48.90125" y="344.080479" style="fill: #24292f; stroke: #24292f; stroke-width: 0.8"/>
      </g>
     </g>
     <g id="text_9">
      <!-- 200 -->
      <g style="fill: #24292f" transform="translate(22.81375 347.879698) scale(0.1 -0.1)">
       <use xlink:href="#DejaVuSans-32"/>
       <use xlink:href="#DejaVuSans-30" transform="translate(63.623047 0)"/>
       <use xlink:href="#DejaVuSans-30" transform="translate(127.246094 0)"/>
      </g>
     </g>
    </g>
    <g id="ytick_4">
     <g id="line2d_17">
      <path d="M 48.90125 288.501812 
L 848.35125 288.501812 
" clip-path="url(#p36b2b11260)" style="fill: none; stroke: #d0d7de; stroke-opacity: 0.25; stroke-width: 0.5; stroke-linecap: square"/>
     </g>
     <g id="line2d_18">
      <g>
       <use xlink:href="#m813d5c9c19" x="48.90125" y="288.501812" style="fill: #24292f; stroke: #24292f; stroke-width: 0.8"/>
      </g>
     </g>
     <g id="text_10">
      <!-- 300 -->
      <g style="fill: #24292f" transform="translate(22.81375 292.301031) scale(0.1 -0.1)">
       <defs>
        <path id="DejaVuSans-33" d="M 2597 2516 
Q 3050 2419 3304 2112 
Q 3559 1806 3559 1356 
Q 3559 666 3084 287 
Q 2609 -91 1734 -91 
Q 1441 -91 1130 -33 
Q 819 25 488 141 
L 488 750 
Q 750 597 1062 519 
Q 1375 441 1716 441 
Q 2309 441 2620 675 
Q 2931 909 2931 1356 
Q 2931 1769 2642 2001 
Q 2353 2234 1838 2234 
L 1294 2234 
L 1294 2753 
L 1863 2753 
Q 2328 2753 2575 2939 
Q 2822 3125 2822 3475 
Q 2822 3834 2567 4026 
Q 2313 4219 1838 4219 
Q 1578 4219 1281 4162 
Q 984 4106 628 3988 
L 628 4550 
Q 988 4650 1302 4700 
Q 1616 4750 1894 4750 
Q 2613 4750 3031 4423 
Q 3450 4097 3450 3541 
Q 3450 3153 3228 2886 
Q 3006 2619 2597 2516 
z
" transform="scale(0.015625)"/>
       </defs>
       <use xlink:href="#DejaVuSans-33"/>
       <use xlink:href="#DejaVuSans-30" transform="translate(63.623047 0)"/>
       <use xlink:href="#DejaVuSans-30" transform="translate(127.246094 0)"/>
      </g>
     </g>
    </g>
    <g id="ytick_5">
     <g id="line2d_19">
      <path d="M 48.90125 232.923146 
L 848.35125 232.923146 
" clip-path="url(#p36b2b11260)" style="fill: none; stroke: #d0d7de; stroke-opacity: 0.25; stroke-width: 0.5; stroke-linecap: square"/>
     </g>
     <g id="line2d_20">
      <g>
       <use xlink:href="#m813d5c9c19" x="48.90125" y="232.923146" style="fill: #24292f; stroke: #24292f; stroke-width: 0.8"/>
      </g>
     </g>
     <g id="text_11">
      <!-- 400 -->
      <g style="fill: #24292f" transform="translate(22.81375 236.722365) scale(0.1 -0.1)">
       <defs>
        <path id="DejaVuSans-34" d="M 2419 4116 
L 825 1625 
L 2419 1625 
L 2419 4116 
z
M 2253 4666 
L 3047 4666 
L 3047 1625 
L 3713 1625 
L 3713 1100 
L 3047 1100 
L 3047 0 
L 2419 0 
L 2419 1100 
L 313 1100 
L 313 1709 
L 2253 4666 
z
" transform="scale(0.015625)"/>
       </defs>
       <use xlink:href="#DejaVuSans-34"/>
       <use xlink:href="#DejaVuSans-30" transform="translate(63.623047 0)"/>
       <use xlink:href="#DejaVuSans-30" transform="translate(127.246094 0)"/>
      </g>
     </g>
    </g>
    <g id="ytick_6">
     <g id="line2d_21">
      <path d="M 48.90125 177.344479 
L 848.35125 177.344479 
" clip-path="url(#p36b2b11260)" style="fill: none; stroke: #d0d7de; stroke-opacity: 0.25; stroke-width: 0.5; stroke-linecap: square"/>
     </g>
     <g id="line2d_22">
      <g>
       <use xlink:href="#m813d5c9c19" x="48.90125" y="177.344479" style="fill: #24292f; stroke: #24292f; stroke-width: 0.8"/>
      </g>
     </g>
     <g id="text_12">
      <!-- 500 -->
      <g style="fill: #24292f" transform="translate(22.81375 181.143698) scale(0.1 -0.1)">
       <defs>
        <path id="DejaVuSans-35" d="M 691 4666 
L 3169 4666 
L 3169 4134 
L 1269 4134 
L 1269 2991 
Q 1406 3038 1543 3061 
Q 1681 3084 1819 3084 
Q 2600 3084 3056 2656 
Q 3513 2228 3513 1497 
Q 3513 744 3044 326 
Q 2575 -91 1722 -91 
Q 1428 -91 1123 -41 
Q 819 9 494 109 
L 494 744 
Q 775 591 1075 516 
Q 1375 441 1709 441 
Q 2250 441 2565 725 
Q 2881 1009 2881 1497 
Q 2881 1984 2565 2268 
Q 2250 2553 1709 2553 
Q 1456 2553 1204 2497 
Q 953 2441 691 2322 
L 691 4666 
z
" transform="scale(0.015625)"/>
       </defs>
       <use xlink:href="#DejaVuSans-35"/>
       <use xlink:href="#DejaVuSans-30" transform="translate(63.623047 0)"/>
       <use xlink:href="#DejaVuSans-30" transform="translate(127.246094 0)"/>
      </g>
     </g>
    </g>
    <g id="ytick_7">
     <g id="line2d_23">
      <path d="M 48.90125 121.765812 
L 848.35125 121.765812 
" clip-path="url(#p36b2b11260)" style="fill: none; stroke: #d0d7de; stroke-opacity: 0.25; stroke-width: 0.5; stroke-linecap: square"/>
     </g>
     <g id="line2d_24">
      <g>
       <use xlink:href="#m813d5c9c19" x="48.90125" y="121.765812" style="fill: #24292f; stroke: #24292f; stroke-width: 0.8"/>
      </g>
     </g>
     <g id="text_13">
      <!-- 600 -->
      <g style="fill: #24292f" transform="translate(22.81375 125.565031) scale(0.1 -0.1)">
       <use xlink:href="#DejaVuSans-36"/>
       <use xlink:href="#DejaVuSans-30" transform="translate(63.623047 0)"/>
       <use xlink:href="#DejaVuSans-30" transform="translate(127.246094 0)"/>
      </g>
     </g>
    </g>
    <g id="ytick_8">
     <g id="line2d_25">
      <path d="M 48.90125 66.187146 
L 848.35125 66.187146 
" clip-path="url(#p36b2b11260)" style="fill: none; stroke: #d0d7de; stroke-opacity: 0.25; stroke-width: 0.5; stroke-linecap: square"/>
     </g>
     <g id="line2d_26">
      <g>
       <use xlink:href="#m813d5c9c19" x="48.90125" y="66.187146" style="fill: #24292f; stroke: #24292f; stroke-width: 0.8"/>
      </g>
     </g>
     <g id="text_14">
      <!-- 700 -->
      <g style="fill: #24292f" transform="translate(22.81375 69.986365) scale(0.1 -0.1)">
       <defs>
        <path id="DejaVuSans-37" d="M 525 4666 
L 3525 4666 
L 3525 4397 
L 1831 0 
L 1172 0 
L 2766 4134 
L 525 4134 
L 525 4666 
z
" transform="scale(0.015625)"/>
       </defs>
       <use xlink:href="#DejaVuSans-37"/>
       <use xlink:href="#DejaVuSans-30" transform="translate(63.623047 0)"/>
       <use xlink:href="#DejaVuSans-30" transform="translate(127.246094 0)"/>
      </g>
     </g>
    </g>
    <g id="text_15">
     <!-- Count -->
     <g style="fill: #24292f" transform="translate(16.318125 264.635937) rotate(-90) scale(0.12 -0.12)">
      <defs>
       <path id="DejaVuSans-43" d="M 4122 4306 
L 4122 3641 
Q 3803 3938 3442 4084 
Q 3081 4231 2675 4231 
Q 1875 4231 1450 3742 
Q 1025 3253 1025 2328 
Q 1025 1406 1450 917 
Q 1875 428 2675 428 
Q 3081 428 3442 575 
Q 3803 722 4122 1019 
L 4122 359 
Q 3791 134 3420 21 
Q 3050 -91 2638 -91 
Q 1578 -91 968 557 
Q 359 1206 359 2328 
Q 359 3453 968 4101 
Q 1578 4750 2638 4750 
Q 3056 4750 3426 4639 
Q 3797 4528 4122 4306 
z
" transform="scale(0.015625)"/>
       <path id="DejaVuSans-75" d="M 544 1381 
L 544 3500 
L 1119 3500 
L 1119 1403 
Q 1119 906 1312 657 
Q 1506 409 1894 409 
Q 2359 409 2629 706 
Q 2900 1003 2900 1516 
L 2900 3500 
L 3475 3500 
L 3475 0 
L 2900 0 
L 2900 538 
Q 2691 219 2414 64 
Q 2138 -91 1772 -91 
Q 1169 -91 856 284 
Q 544 659 544 1381 
z
M 1991 3584 
L 1991 3584 
z
" transform="scale(0.015625)"/>
       <path id="DejaVuSans-6e" d="M 3513 2113 
L 3513 0 
L 2938 0 
L 2938 2094 
Q 2938 2591 2744 2837 
Q 2550 3084 2163 3084 
Q 1697 3084 1428 2787 
Q 1159 2491 1159 1978 
L 1159 0 
L 581 0 
L 581 3500 
L 1159 3500 
L 1159 2956 
Q 1366 3272 1645 3428 
Q 1925 3584 2291 3584 
Q 2894 3584 3203 3211 
Q 3513 2838 3513 2113 
z
" transform="scale(0.015625)"/>
      </defs>
      <use xlink:href="#DejaVuSans-43"/>
      <use xlink:href="#DejaVuSans-6f" transform="translate(69.824219 0)"/>
      <use xlink:href="#DejaVuSans-75" transform="translate(131.005859 0)"/>
      <use xlink:href="#DejaVuSans-6e" transform="translate(194.384766 0)"/>
      <use xlink:href="#DejaVuSans-74" transform="translate(257.763672 0)"/>
     </g>
    </g>
   </g>
   <g id="line2d_27">
    <path d="M 85.239886 454.682026 
L 85.289486 454.682026 
L 85.409154 454.126239 
L 85.476586 454.126239 
L 85.642408 257.933546 
L 87.728319 257.933546 
L 87.73785 261.268266 
L 90.261407 261.268266 
L 90.424801 260.712479 
L 90.733877 260.712479 
L 91.017809 260.156692 
L 92.777172 259.600906 
L 92.811907 260.156692 
L 92.875922 259.600906 
L 98.344469 259.600906 
L 101.631291 260.712479 
L 102.120334 259.600906 
L 102.477422 259.600906 
L 103.377408 259.045119 
L 103.753945 256.821972 
L 104.487121 256.821972 
L 105.555536 260.712479 
L 105.624855 256.821972 
L 106.444703 256.266186 
L 108.578386 256.266186 
L 109.141184 255.710399 
L 109.977155 255.710399 
L 110.251527 254.598826 
L 115.411867 254.598826 
L 115.791911 253.487252 
L 115.811391 252.375679 
L 117.452195 252.375679 
L 119.871638 251.264106 
L 121.140819 251.264106 
L 121.160029 250.708319 
L 124.074749 250.708319 
L 124.797795 247.929386 
L 127.086061 247.929386 
L 127.101945 247.373599 
L 139.917381 247.373599 
L 142.312908 246.817812 
L 142.394695 247.373599 
L 144.879172 246.817812 
L 153.524942 246.817812 
L 157.715437 246.262026 
L 157.796385 245.706239 
L 157.995443 245.150452 
L 160.359442 245.150452 
L 161.36558 244.594666 
L 165.514777 244.594666 
L 165.672297 247.373599 
L 165.680029 245.150452 
L 165.881754 245.150452 
L 167.004264 242.927306 
L 171.787856 242.927306 
L 175.546609 242.371519 
L 179.724217 242.371519 
L 179.907541 241.815732 
L 190.763027 241.815732 
L 191.226326 241.259946 
L 193.86218 241.259946 
L 193.880761 240.148372 
L 198.903001 240.148372 
L 199.004867 236.257866 
L 208.094846 236.257866 
L 208.097574 235.702079 
L 208.360826 235.702079 
L 209.506503 235.146292 
L 210.67079 235.146292 
L 211.041094 234.590506 
L 211.078137 235.146292 
L 211.926096 234.590506 
L 211.929962 234.034719 
L 211.949772 234.590506 
L 212.439594 234.034719 
L 216.901553 234.034719 
L 218.288814 233.478932 
L 219.934923 233.478932 
L 222.730813 232.923146 
L 225.377636 232.923146 
L 227.422579 231.811572 
L 231.897814 231.811572 
L 234.501091 230.699999 
L 235.234566 231.255786 
L 238.868046 231.255786 
L 242.966774 229.032639 
L 249.079516 229.032639 
L 250.975301 228.476852 
L 284.760442 228.476852 
L 285.033285 227.921066 
L 297.353953 227.921066 
L 297.559814 227.365279 
L 318.524634 227.365279 
L 323.141026 226.809492 
L 323.167729 227.365279 
L 326.472383 225.697919 
L 331.322148 225.697919 
L 333.970289 225.142132 
L 333.974635 224.586346 
L 339.500003 224.586346 
L 341.48312 225.142132 
L 342.196006 224.586346 
L 351.442995 224.586346 
L 351.836526 225.142132 
L 352.557414 224.586346 
L 352.805142 222.363199 
L 357.042749 222.363199 
L 357.046405 221.807412 
L 370.013397 221.807412 
L 370.76851 221.251626 
L 373.260539 221.251626 
L 373.503653 220.695839 
L 385.655622 220.695839 
L 385.672135 220.140052 
L 388.711529 220.140052 
L 388.716054 219.584266 
L 389.453575 219.584266 
L 389.492086 219.028479 
L 390.637373 219.028479 
L 390.81731 218.472692 
L 393.268581 218.472692 
L 393.641193 217.361119 
L 394.990632 215.137972 
L 398.253809 215.137972 
L 398.494734 212.359039 
L 399.588953 212.359039 
L 400.125977 211.247466 
L 402.893247 211.247466 
L 403.801265 210.691679 
L 406.400466 210.691679 
L 406.748832 210.135892 
L 413.808493 210.135892 
L 413.982436 209.580106 
L 414.635383 209.580106 
L 415.649104 209.024319 
L 427.067628 209.024319 
L 427.170214 208.468532 
L 427.536322 208.468532 
L 428.300606 207.356959 
L 429.372138 207.356959 
L 429.629786 206.801172 
L 429.878024 206.801172 
L 429.972218 206.245386 
L 432.837788 206.245386 
L 433.325633 205.689599 
L 435.81988 205.689599 
L 435.979798 205.133812 
L 437.34605 205.133812 
L 437.433591 204.578026 
L 441.679589 204.578026 
L 441.770877 204.022239 
L 444.247202 204.022239 
L 445.074302 201.799092 
L 445.991311 201.799092 
L 445.99227 201.243306 
L 449.715689 201.243306 
L 450.398305 200.687519 
L 453.24928 200.687519 
L 453.81082 200.131732 
L 454.022046 200.131732 
L 454.570728 199.575946 
L 455.972285 199.575946 
L 456.134271 199.020159 
L 459.649371 199.020159 
L 460.555441 198.464372 
L 460.621434 197.908586 
L 460.914776 197.908586 
L 461.840656 195.685439 
L 464.71207 195.685439 
L 464.732749 195.129652 
L 467.465494 195.129652 
L 467.725899 194.573866 
L 468.036564 194.573866 
L 468.349056 194.018079 
L 468.41424 194.573866 
L 468.648243 194.018079 
L 469.687887 194.018079 
L 469.697837 193.462292 
L 469.973916 193.462292 
L 470.094814 192.906506 
L 470.930185 192.350719 
L 476.742363 192.350719 
L 477.6508 191.794932 
L 478.258913 191.794932 
L 478.752272 191.239146 
L 479.251355 191.794932 
L 481.306278 191.794932 
L 481.394898 190.683359 
L 484.344892 190.683359 
L 485.48949 189.015999 
L 497.913284 189.015999 
L 498.63534 188.460212 
L 517.812146 188.460212 
L 517.929957 187.904426 
L 546.108271 187.904426 
L 546.232405 187.348639 
L 546.241306 186.792852 
L 546.250147 187.348639 
L 550.357087 187.348639 
L 551.284375 186.792852 
L 567.464314 186.792852 
L 570.793783 186.237066 
L 570.82615 185.681279 
L 571.10178 185.681279 
L 571.965144 185.125492 
L 597.932873 185.125492 
L 598.184917 184.569706 
L 621.277247 184.569706 
L 624.241297 184.013919 
L 626.054366 184.013919 
L 626.251116 183.458132 
L 627.511276 182.902346 
L 631.045197 182.902346 
L 632.533546 182.346559 
L 634.090944 182.346559 
L 634.212231 181.790772 
L 636.77385 181.790772 
L 637.079839 181.234986 
L 637.140408 180.679199 
L 641.701146 180.679199 
L 641.718828 180.123412 
L 645.602075 180.123412 
L 645.610646 179.567626 
L 646.92637 179.011839 
L 649.262138 179.011839 
L 650.943011 178.456052 
L 652.447273 178.456052 
L 654.664362 175.121332 
L 657.252773 175.121332 
L 657.264761 172.342399 
L 670.279375 172.342399 
L 670.280723 171.786612 
L 670.505825 171.230826 
L 671.752379 171.230826 
L 672.023514 170.675039 
L 676.112291 170.675039 
L 677.057501 170.119252 
L 677.213014 170.675039 
L 684.526247 170.675039 
L 684.527895 170.119252 
L 687.480647 170.119252 
L 688.68857 167.340319 
L 696.09372 167.340319 
L 696.17281 166.228746 
L 697.84709 164.561386 
L 699.527063 164.561386 
L 699.706012 164.005599 
L 706.76816 164.005599 
L 706.898018 163.449812 
L 713.989207 163.449812 
L 714.14367 162.894026 
L 716.098046 161.226666 
L 716.249482 160.670879 
L 735.502141 160.670879 
L 737.32492 157.891946 
L 741.674283 157.891946 
L 741.957585 157.336159 
L 745.225227 157.336159 
L 746.441452 156.224586 
L 763.664631 156.224586 
L 763.88299 155.668799 
L 766.404269 155.668799 
L 766.674355 155.113012 
L 783.283398 155.113012 
L 783.29191 153.445652 
L 783.807776 153.445652 
L 783.894987 152.889866 
L 786.85586 152.889866 
L 787.272677 152.334079 
L 787.275165 152.889866 
L 794.777626 152.889866 
L 796.587518 152.334079 
L 812.012614 152.334079 
L 812.012614 152.334079 
" clip-path="url(#p36b2b11260)" style="fill: none; stroke: #1a7f37; stroke-width: 2; stroke-linecap: square"/>
   </g>
   <g id="line2d_28">
    <path d="M 85.239886 455.237812 
L 85.320954 453.570452 
L 85.409154 453.570452 
L 85.546985 372.981386 
L 86.699314 372.981386 
L 86.724459 370.758239 
L 87.984889 370.758239 
L 88.309639 369.090879 
L 88.75151 370.758239 
L 88.754777 369.090879 
L 89.120406 369.090879 
L 89.261712 367.979306 
L 92.872475 367.979306 
L 92.875922 367.423519 
L 92.896241 367.979306 
L 93.073961 367.423519 
L 93.126078 367.979306 
L 93.367543 367.423519 
L 94.53216 367.423519 
L 94.598453 366.867732 
L 94.779019 366.311946 
L 96.209617 366.311946 
L 97.837623 365.756159 
L 97.894925 365.200372 
L 98.334938 364.644586 
L 98.344469 364.088799 
L 101.631291 367.979306 
L 102.120334 366.311946 
L 102.477422 363.533012 
L 104.487121 363.533012 
L 105.555536 367.979306 
L 105.624855 363.533012 
L 125.148259 363.533012 
L 125.747351 362.977226 
L 127.101945 362.977226 
L 130.801568 362.421439 
L 131.702753 361.865652 
L 144.543213 361.865652 
L 144.879172 361.309866 
L 146.605239 360.754079 
L 147.702305 360.754079 
L 148.91835 360.198292 
L 148.951107 359.086719 
L 149.787018 358.530932 
L 150.348828 357.975146 
L 158.088468 357.975146 
L 159.631301 357.419359 
L 160.097718 357.419359 
L 160.359442 356.863572 
L 161.36558 356.863572 
L 162.365155 356.307786 
L 165.514777 356.307786 
L 165.672297 358.530932 
L 165.680029 356.307786 
L 166.883457 356.307786 
L 167.004264 355.751999 
L 168.707674 355.751999 
L 170.383602 355.196212 
L 170.424271 354.640426 
L 175.546609 354.640426 
L 177.707145 354.084639 
L 177.7126 353.528852 
L 184.902179 353.528852 
L 187.901233 352.973066 
L 190.151288 352.973066 
L 190.763027 352.417279 
L 194.197569 352.417279 
L 196.1565 351.861492 
L 196.263881 351.305706 
L 198.173751 351.305706 
L 198.395406 350.749919 
L 199.004867 350.194132 
L 200.365396 350.194132 
L 201.224383 349.638346 
L 202.799314 349.638346 
L 203.82721 349.082559 
L 206.020023 349.082559 
L 206.767075 347.970986 
L 212.439594 347.970986 
L 214.055074 347.415199 
L 215.94939 347.415199 
L 216.376576 346.859412 
L 216.507213 346.303626 
L 216.901553 345.747839 
L 223.424849 345.747839 
L 224.619196 345.192052 
L 225.377636 344.636266 
L 243.927388 344.636266 
L 248.09136 344.080479 
L 248.141109 343.524692 
L 250.975301 343.524692 
L 253.397741 342.968906 
L 257.679373 342.968906 
L 258.041165 342.413119 
L 265.332971 342.413119 
L 271.041034 341.857332 
L 271.095818 341.301546 
L 271.842061 341.301546 
L 273.353995 340.745759 
L 273.43833 339.078399 
L 273.504862 338.522612 
L 276.663025 337.966826 
L 276.852133 337.411039 
L 276.927506 336.299466 
L 277.213536 335.743679 
L 287.490519 335.743679 
L 290.410035 335.187892 
L 292.268507 334.632106 
L 293.724429 334.632106 
L 297.100111 334.076319 
L 297.353953 331.853172 
L 297.559814 331.853172 
L 298.045171 330.741599 
L 304.448139 330.185812 
L 304.651932 329.630026 
L 304.712051 329.074239 
L 306.064787 329.074239 
L 307.34218 328.518452 
L 307.489001 327.962666 
L 307.58871 326.851092 
L 308.434241 326.295306 
L 308.496308 325.739519 
L 310.039021 325.183732 
L 312.066882 324.627946 
L 312.211096 324.072159 
L 312.214152 323.516372 
L 312.622038 322.960586 
L 312.694085 322.404799 
L 315.635688 321.849012 
L 316.163032 321.293226 
L 328.546667 321.293226 
L 330.600301 320.737439 
L 330.787191 320.181652 
L 339.180228 320.181652 
L 339.500003 319.070079 
L 342.996942 319.070079 
L 344.05271 318.514292 
L 344.104288 317.402719 
L 344.375392 316.846932 
L 346.170539 316.291146 
L 346.210968 315.735359 
L 346.427648 315.179572 
L 346.649693 312.956426 
L 346.897032 312.956426 
L 346.906142 312.400639 
L 348.404771 311.844852 
L 348.993942 311.289066 
L 349.136508 310.733279 
L 351.836526 310.177492 
L 353.826325 310.177492 
L 354.517273 309.621706 
L 361.998426 309.621706 
L 364.476879 309.065919 
L 364.486739 308.510132 
L 364.932477 307.954346 
L 370.76851 307.954346 
L 372.405987 307.398559 
L 373.080542 306.842772 
L 373.260539 305.731199 
L 377.981285 305.731199 
L 378.302919 305.175412 
L 380.895226 305.175412 
L 382.136296 304.619626 
L 385.672135 304.619626 
L 387.809715 304.063839 
L 392.248777 304.063839 
L 392.794373 303.508052 
L 394.990632 303.508052 
L 395.588435 302.952266 
L 395.847762 302.396479 
L 395.975492 301.840692 
L 397.783346 301.840692 
L 397.834744 300.729119 
L 398.494734 300.729119 
L 398.928064 299.061759 
L 400.500657 299.061759 
L 400.695969 298.505972 
L 400.847585 298.505972 
L 401.6003 297.950186 
L 402.849402 297.950186 
L 402.893247 297.394399 
L 403.801265 297.394399 
L 404.021811 296.838612 
L 404.875254 296.838612 
L 406.181957 295.727039 
L 406.748832 295.727039 
L 408.941255 294.615466 
L 408.944552 294.059679 
L 409.363137 293.503892 
L 410.431132 292.948106 
L 410.597194 292.392319 
L 411.662012 291.836532 
L 413.402645 291.836532 
L 413.982436 290.724959 
L 416.1053 290.724959 
L 416.165569 290.169172 
L 416.770355 290.169172 
L 416.816778 289.613386 
L 417.148661 289.057599 
L 418.303448 289.057599 
L 418.391289 288.501812 
L 418.589118 288.501812 
L 418.708517 287.946026 
L 418.718017 287.946026 
L 418.812421 287.390239 
L 420.344585 287.390239 
L 420.666159 286.834452 
L 420.936184 286.834452 
L 421.097571 286.278666 
L 421.509712 286.278666 
L 421.818279 285.722879 
L 421.883343 285.167092 
L 421.971543 285.167092 
L 423.522678 284.611306 
L 424.683429 284.611306 
L 424.7713 284.055519 
L 429.35017 284.055519 
L 429.372138 283.499732 
L 429.629786 283.499732 
L 430.23607 282.388159 
L 431.78253 282.388159 
L 431.925934 280.720799 
L 431.967772 279.609226 
L 432.238067 279.053439 
L 433.325633 279.053439 
L 433.838562 278.497652 
L 434.335727 278.497652 
L 434.496034 277.941866 
L 435.266702 277.386079 
L 435.979798 277.386079 
L 437.413392 276.830292 
L 437.508755 276.274506 
L 437.871686 276.274506 
L 437.944303 275.718719 
L 439.218698 275.718719 
L 439.254092 275.162932 
L 445.434446 275.162932 
L 445.54866 274.607146 
L 445.713793 274.607146 
L 445.79531 273.495572 
L 446.591122 273.495572 
L 446.76048 272.939786 
L 447.31168 272.383999 
L 447.450229 271.828212 
L 447.703382 271.828212 
L 447.917605 271.272426 
L 447.987434 270.716639 
L 451.09291 270.716639 
L 451.876764 270.160852 
L 452.031587 269.049279 
L 452.222373 268.493492 
L 452.54086 268.493492 
L 452.734973 267.937706 
L 457.191687 267.937706 
L 457.485898 266.270346 
L 458.09485 266.270346 
L 458.184249 265.714559 
L 460.563802 265.714559 
L 460.621434 264.602986 
L 463.479392 264.602986 
L 463.509001 264.047199 
L 464.885743 264.047199 
L 464.895004 263.491412 
L 465.565423 263.491412 
L 465.67661 262.935626 
L 467.624392 262.935626 
L 467.725899 262.379839 
L 467.855218 262.379839 
L 468.036564 261.824052 
L 468.40468 261.824052 
L 468.41424 261.268266 
L 468.648243 261.268266 
L 469.094639 260.712479 
L 472.700218 260.712479 
L 472.962272 260.156692 
L 474.032095 260.156692 
L 474.034073 259.600906 
L 482.213547 259.600906 
L 483.601827 259.045119 
L 483.642076 258.489332 
L 484.344892 257.933546 
L 485.413577 257.933546 
L 485.48949 256.821972 
L 485.682794 256.821972 
L 485.763262 256.266186 
L 488.6015 256.266186 
L 489.114039 255.710399 
L 494.023444 255.710399 
L 494.038548 255.154612 
L 495.64201 255.154612 
L 496.327264 254.598826 
L 503.87432 254.598826 
L 503.968515 253.487252 
L 506.93664 253.487252 
L 507.527011 252.931466 
L 508.159219 252.931466 
L 508.932074 252.375679 
L 514.040656 252.375679 
L 514.529849 251.819892 
L 514.953739 251.819892 
L 515.161578 251.264106 
L 516.788985 250.708319 
L 517.585636 250.708319 
L 517.929957 250.152532 
L 520.216305 249.596746 
L 524.42592 249.596746 
L 524.755345 249.040959 
L 541.003315 249.040959 
L 541.596983 248.485172 
L 545.354357 248.485172 
L 545.490149 247.929386 
L 545.734221 247.929386 
L 545.807796 247.373599 
L 566.791138 247.373599 
L 567.464314 246.817812 
L 572.474416 246.817812 
L 573.562761 246.262026 
L 573.635707 245.706239 
L 576.24243 245.706239 
L 576.35059 245.150452 
L 584.794036 245.150452 
L 584.811328 244.594666 
L 591.93899 244.594666 
L 592.015712 244.038879 
L 592.478652 243.483092 
L 594.227736 243.483092 
L 594.231752 242.927306 
L 594.587191 242.371519 
L 597.213334 242.371519 
L 598.080953 241.815732 
L 603.680826 241.815732 
L 603.720266 240.704159 
L 639.216729 240.704159 
L 641.718828 240.148372 
L 644.866771 240.148372 
L 644.971365 239.592586 
L 658.927682 239.592586 
L 658.951119 239.036799 
L 673.525648 239.036799 
L 673.675886 238.481012 
L 674.542995 238.481012 
L 674.565592 237.925226 
L 674.761563 237.369439 
L 675.523899 236.257866 
L 675.635955 235.146292 
L 675.700719 234.034719 
L 675.895971 233.478932 
L 675.941135 232.923146 
L 676.112291 232.367359 
L 677.213014 232.367359 
L 677.349855 231.811572 
L 677.356298 231.255786 
L 677.769069 230.699999 
L 684.527895 230.699999 
L 685.256395 229.588426 
L 706.574796 229.588426 
L 706.710259 229.032639 
L 719.722685 229.032639 
L 720.030862 227.921066 
L 721.426275 227.921066 
L 721.613195 227.365279 
L 729.903766 227.365279 
L 730.110945 226.809492 
L 733.369656 226.809492 
L 734.239972 226.253706 
L 734.321819 225.697919 
L 739.211144 225.697919 
L 739.363449 224.586346 
L 739.994219 224.030559 
L 740.58423 224.030559 
L 741.674283 223.474772 
L 744.8079 223.474772 
L 744.855672 222.918986 
L 745.225227 222.363199 
L 747.78214 222.363199 
L 750.491659 221.807412 
L 763.88299 221.807412 
L 765.465862 221.251626 
L 766.051887 220.695839 
L 766.404269 219.584266 
L 768.288696 219.584266 
L 775.966689 218.472692 
L 777.893282 218.472692 
L 778.105527 217.361119 
L 778.366172 217.361119 
L 778.498398 216.805332 
L 789.28849 216.805332 
L 789.301137 216.249546 
L 807.331817 216.249546 
L 809.728363 215.693759 
L 809.871768 214.582186 
L 809.962695 214.582186 
L 810.064022 213.470612 
L 810.205749 213.470612 
L 810.224989 212.914826 
L 811.845324 212.914826 
L 812.00635 212.359039 
L 812.012614 211.803252 
L 812.012614 211.803252 
" clip-path="url(#p36b2b11260)" style="fill: none; stroke: #0969da; stroke-width: 2; stroke-linecap: square"/>
   </g>
   <g id="line2d_29">
    <path d="M 85.239886 455.237812 
L 87.728319 455.237812 
L 87.73785 454.126239 
L 89.792203 454.126239 
L 90.261407 453.570452 
L 216.901553 453.570452 
L 218.288814 453.014666 
L 253.397741 453.014666 
L 254.372081 452.458879 
L 287.490519 452.458879 
L 290.410035 451.903092 
L 298.045171 451.903092 
L 304.712051 450.235732 
L 306.064787 449.124159 
L 308.496308 449.124159 
L 310.039021 448.568372 
L 312.214152 448.012586 
L 312.694085 448.012586 
L 315.635688 447.456799 
L 316.163032 446.901012 
L 318.524634 446.345226 
L 323.141026 445.789439 
L 323.167729 446.345226 
L 330.787191 446.345226 
L 331.322148 445.789439 
L 342.196006 445.789439 
L 342.996942 445.233652 
L 346.649693 445.233652 
L 346.906142 444.677866 
L 351.442995 444.677866 
L 351.836526 444.122079 
L 368.456598 444.122079 
L 370.013397 443.566292 
L 370.667692 443.566292 
L 370.76851 443.010506 
L 375.204276 443.010506 
L 375.208501 442.454719 
L 385.655622 442.454719 
L 385.672135 441.898932 
L 388.716054 441.898932 
L 389.492086 441.343146 
L 390.635365 440.787359 
L 390.637373 440.231572 
L 390.81731 440.231572 
L 392.248777 438.564212 
L 393.213077 438.564212 
L 393.268581 436.896852 
L 393.641193 436.896852 
L 394.990632 437.452639 
L 395.961107 437.452639 
L 395.975492 435.229492 
L 399.588953 435.229492 
L 400.125977 434.673706 
L 400.695969 434.673706 
L 400.847585 434.117919 
L 413.808493 434.117919 
L 413.982436 433.562132 
L 414.635383 433.562132 
L 415.649104 433.006346 
L 420.121492 433.006346 
L 420.344585 432.450559 
L 421.883343 432.450559 
L 421.971543 431.894772 
L 427.067628 431.894772 
L 427.170214 431.338986 
L 427.536322 431.338986 
L 427.907645 430.783199 
L 428.278608 430.783199 
L 428.300606 430.227412 
L 429.878024 430.227412 
L 429.972218 429.671626 
L 437.295252 429.671626 
L 437.417408 429.115839 
L 437.433591 429.115839 
L 437.508755 428.560052 
L 437.944303 428.560052 
L 438.857355 428.004266 
L 442.427 428.004266 
L 442.430147 427.448479 
L 443.112225 427.448479 
L 443.138178 426.892692 
L 445.074302 426.892692 
L 445.529929 426.336906 
L 448.061159 426.336906 
L 448.809499 425.781119 
L 450.264851 425.781119 
L 450.280285 424.669546 
L 450.398305 424.669546 
L 450.546835 424.113759 
L 452.888027 424.113759 
L 453.24928 423.557972 
L 453.81082 423.557972 
L 454.022046 423.002186 
L 455.392674 423.002186 
L 455.584059 422.446399 
L 455.586517 421.890612 
L 455.972285 421.890612 
L 456.134271 421.334826 
L 470.898837 421.334826 
L 470.930185 420.223252 
L 472.962272 420.223252 
L 473.547128 419.667466 
L 474.034073 419.667466 
L 476.318383 419.111679 
L 476.742363 419.111679 
L 477.6508 418.555892 
L 478.258913 418.555892 
L 478.752272 418.000106 
L 479.251355 418.555892 
L 480.857993 418.555892 
L 481.29489 418.000106 
L 481.394898 416.888532 
L 482.208062 416.332746 
L 482.213547 415.221172 
L 485.763262 415.221172 
L 486.539564 414.665386 
L 486.618234 412.998026 
L 487.394146 412.442239 
L 487.82325 411.886452 
L 491.493263 411.886452 
L 491.648985 410.219092 
L 491.836175 410.219092 
L 491.974964 409.663306 
L 492.871893 409.107519 
L 494.28373 409.107519 
L 494.574584 408.551732 
L 494.640757 407.995946 
L 494.789166 407.995946 
L 495.64201 406.884372 
L 496.555752 406.884372 
L 496.855778 406.328586 
L 497.909807 406.328586 
L 497.913284 405.217012 
L 498.63534 405.217012 
L 499.593917 404.661226 
L 502.133508 403.549652 
L 502.474232 402.993866 
L 507.527011 402.993866 
L 508.159219 401.882292 
L 517.812146 401.882292 
L 517.929957 400.770719 
L 522.628435 400.770719 
L 523.346326 400.214932 
L 525.524844 400.214932 
L 525.64712 399.659146 
L 539.049599 399.659146 
L 539.263522 399.103359 
L 540.591054 399.103359 
L 541.003315 398.547572 
L 543.480899 398.547572 
L 543.946866 397.991786 
L 543.949923 397.435999 
L 544.482842 396.880212 
L 546.108271 396.880212 
L 546.232405 396.324426 
L 546.241306 395.212852 
L 546.250147 395.768639 
L 547.342418 395.212852 
L 551.284375 395.212852 
L 552.061935 394.101279 
L 559.174463 394.101279 
L 559.724374 393.545492 
L 561.449812 393.545492 
L 561.587942 392.989706 
L 561.606942 392.433919 
L 567.464314 392.433919 
L 571.10178 391.322346 
L 571.965144 391.322346 
L 572.474416 390.766559 
L 580.009005 390.766559 
L 580.935124 390.210772 
L 582.082689 390.210772 
L 583.19411 389.654986 
L 592.478652 389.654986 
L 592.733453 389.099199 
L 592.734832 388.543412 
L 597.932873 388.543412 
L 598.184917 387.987626 
L 621.277247 387.987626 
L 624.241297 387.431839 
L 631.045197 387.431839 
L 632.533546 386.876052 
L 633.843096 386.876052 
L 634.212231 386.320266 
L 637.140408 386.320266 
L 637.655524 385.764479 
L 638.334905 385.764479 
L 639.216729 385.208692 
L 641.330453 385.208692 
L 641.718828 384.652906 
L 641.978994 384.652906 
L 642.926152 384.097119 
L 652.07679 384.097119 
L 652.102384 382.429759 
L 660.086815 382.429759 
L 663.472627 381.873972 
L 663.475384 381.318186 
L 667.445632 381.318186 
L 667.612293 380.762399 
L 667.614751 380.206612 
L 669.471875 380.206612 
L 670.280723 379.650826 
L 670.859346 379.650826 
L 671.752379 379.095039 
L 672.710716 379.095039 
L 672.876327 377.983466 
L 673.675886 377.983466 
L 673.835234 377.427679 
L 675.634397 377.427679 
L 675.700719 376.871892 
L 678.536559 376.871892 
L 680.591003 376.316106 
L 681.264869 376.316106 
L 681.926387 375.760319 
L 683.292909 375.204532 
L 683.298753 374.648746 
L 683.675591 372.981386 
L 684.019941 372.425599 
L 684.527895 371.869812 
L 685.889173 371.869812 
L 686.714715 370.202452 
L 688.68857 370.202452 
L 689.223017 368.535092 
L 691.394972 368.535092 
L 691.624958 367.979306 
L 693.19917 367.979306 
L 693.541272 366.867732 
L 694.13404 366.311946 
L 696.17281 366.311946 
L 699.706012 365.200372 
L 701.971321 364.644586 
L 702.125215 364.088799 
L 704.267889 364.088799 
L 704.40497 363.533012 
L 706.757341 363.533012 
L 706.76816 362.977226 
L 707.209132 362.977226 
L 707.305784 362.421439 
L 713.989207 362.421439 
L 714.14367 361.865652 
L 716.249482 361.309866 
L 719.712765 361.309866 
L 719.722685 360.754079 
L 732.428462 360.754079 
L 733.369656 358.530932 
L 738.583821 358.530932 
L 738.591523 357.419359 
L 745.225227 357.419359 
L 746.438874 355.751999 
L 746.441452 355.196212 
L 751.13067 355.196212 
L 752.708417 354.084639 
L 752.779026 353.528852 
L 782.258859 353.528852 
L 783.434295 352.973066 
L 786.532729 352.973066 
L 786.85586 351.861492 
L 812.012614 351.861492 
L 812.012614 351.861492 
" clip-path="url(#p36b2b11260)" style="fill: none; stroke: #bf8700; stroke-width: 2; stroke-linecap: square"/>
   </g>
   <g id="line2d_30">
    <path d="M 85.239886 454.682026 
L 85.45273 454.682026 
L 85.546985 432.450559 
L 86.039564 426.892692 
L 86.321038 425.781119 
L 86.463843 426.336906 
L 86.724459 425.781119 
L 87.165221 425.225332 
L 87.73785 423.002186 
L 87.984889 421.334826 
L 88.309639 421.334826 
L 88.75151 420.779039 
L 88.754777 420.223252 
L 89.110546 419.667466 
L 89.208636 419.111679 
L 89.261712 419.111679 
L 90.171229 418.000106 
L 90.261407 411.886452 
L 90.323774 412.442239 
L 90.609683 405.217012 
L 90.733877 402.993866 
L 92.875922 402.993866 
L 93.073961 399.659146 
L 93.126078 402.438079 
L 93.367543 397.991786 
L 93.487121 397.435999 
L 94.378027 396.880212 
L 94.53216 395.768639 
L 94.779019 395.768639 
L 95.237823 395.212852 
L 95.482914 394.657066 
L 95.593922 393.545492 
L 95.661443 392.989706 
L 95.890411 392.433919 
L 95.896075 391.878132 
L 96.126361 392.433919 
L 96.191905 391.878132 
L 96.199966 392.433919 
L 96.209617 390.766559 
L 98.344469 390.766559 
L 101.631291 402.993866 
L 102.120334 390.210772 
L 102.477422 389.654986 
L 103.753945 389.654986 
L 103.987438 389.099199 
L 104.487121 388.543412 
L 105.555536 402.993866 
L 105.624855 387.987626 
L 106.444703 387.431839 
L 108.197952 386.876052 
L 108.322985 387.431839 
L 108.578386 385.764479 
L 109.141184 385.764479 
L 109.312191 385.208692 
L 109.635173 384.652906 
L 109.661966 383.541332 
L 109.959893 382.429759 
L 109.977155 382.985546 
L 110.154366 382.985546 
L 110.251527 381.873972 
L 110.973674 376.871892 
L 111.161223 377.983466 
L 112.487316 374.648746 
L 112.836492 375.760319 
L 114.273473 373.537172 
L 115.411867 377.427679 
L 115.811391 373.537172 
L 117.452195 371.869812 
L 119.871638 371.869812 
L 120.191173 371.314026 
L 120.445465 369.646666 
L 121.160029 371.314026 
L 124.074749 371.869812 
L 124.797795 369.646666 
L 125.148259 367.979306 
L 125.747351 369.646666 
L 127.101945 367.979306 
L 131.702753 367.979306 
L 136.54053 367.423519 
L 136.863153 366.867732 
L 139.917381 366.311946 
L 141.93697 366.311946 
L 142.312908 365.756159 
L 142.394695 366.311946 
L 144.543213 364.644586 
L 146.558457 364.644586 
L 146.605239 364.088799 
L 147.702305 363.533012 
L 150.348828 363.533012 
L 151.516262 359.642506 
L 152.38517 359.086719 
L 153.503244 358.530932 
L 153.524942 357.975146 
L 157.715437 357.975146 
L 157.796385 354.084639 
L 157.951477 354.084639 
L 158.088468 352.973066 
L 159.631301 352.973066 
L 160.097718 352.417279 
L 162.365155 352.417279 
L 165.514777 351.861492 
L 165.672297 363.533012 
L 165.680029 352.417279 
L 165.881754 351.861492 
L 167.004264 351.861492 
L 168.707674 351.305706 
L 170.424271 351.305706 
L 171.787856 350.749919 
L 175.546609 349.638346 
L 177.7126 349.638346 
L 179.453352 349.082559 
L 179.724217 346.303626 
L 179.907541 346.303626 
L 180.231931 345.747839 
L 181.923983 345.192052 
L 182.315116 342.968906 
L 184.653671 341.857332 
L 184.681842 342.413119 
L 184.902179 341.857332 
L 187.901233 340.745759 
L 190.151288 340.189972 
L 191.226326 340.189972 
L 192.179179 339.634186 
L 193.00493 338.522612 
L 193.880761 337.966826 
L 194.197569 337.411039 
L 196.263881 337.966826 
L 198.173751 336.855252 
L 198.395406 337.411039 
L 198.903001 337.411039 
L 199.004867 336.855252 
L 200.365396 336.299466 
L 201.224383 336.855252 
L 202.799314 335.743679 
L 203.82721 335.743679 
L 206.020023 335.187892 
L 206.383644 335.743679 
L 206.767075 334.076319 
L 208.097574 334.076319 
L 208.360826 333.520532 
L 209.506503 331.297386 
L 209.830204 330.185812 
L 210.67079 330.741599 
L 211.041094 329.630026 
L 211.078137 329.074239 
L 214.055074 329.074239 
L 215.562813 328.518452 
L 215.94939 327.962666 
L 218.288814 327.962666 
L 219.934923 327.406879 
L 222.730813 327.406879 
L 223.424849 326.851092 
L 231.113061 326.851092 
L 231.554603 326.295306 
L 231.598838 325.739519 
L 231.897814 325.183732 
L 235.234566 325.183732 
L 235.442525 324.627946 
L 236.291472 324.072159 
L 236.438503 323.516372 
L 237.845035 322.960586 
L 238.868046 322.404799 
L 242.966774 322.404799 
L 243.927388 321.293226 
L 248.141109 321.293226 
L 249.079516 320.737439 
L 253.006548 320.737439 
L 253.397741 320.181652 
L 254.372081 319.625866 
L 254.662127 319.070079 
L 254.760607 318.514292 
L 257.679373 317.958506 
L 258.041165 318.514292 
L 261.883534 317.402719 
L 264.921518 316.291146 
L 265.332971 315.735359 
L 271.095818 315.735359 
L 271.842061 315.179572 
L 277.213536 315.179572 
L 282.273358 314.623786 
L 282.909791 314.067999 
L 285.033285 313.512212 
L 287.162772 312.956426 
L 287.490519 312.400639 
L 292.268507 312.400639 
L 293.724429 311.844852 
L 304.712051 311.844852 
L 306.064787 311.289066 
L 315.14086 311.289066 
L 315.635688 310.733279 
L 316.163032 311.289066 
L 318.524634 310.733279 
L 326.472383 310.733279 
L 327.537442 310.177492 
L 344.350578 310.177492 
L 344.375392 309.621706 
L 354.759188 309.621706 
L 357.040561 309.065919 
L 357.046405 308.510132 
L 368.451533 308.510132 
L 368.456598 307.398559 
L 375.208501 307.398559 
L 378.302919 306.842772 
L 382.136296 306.842772 
L 385.672135 305.731199 
L 392.794373 305.731199 
L 393.213077 305.175412 
L 393.268581 304.619626 
L 395.961107 304.619626 
L 395.975492 304.063839 
L 396.255078 304.063839 
L 396.700756 303.508052 
L 400.695969 303.508052 
L 400.847585 302.952266 
L 406.181957 302.952266 
L 406.400466 302.396479 
L 419.427876 302.396479 
L 420.120503 300.729119 
L 420.121492 300.173332 
L 421.967138 300.173332 
L 421.971543 299.617546 
L 427.415545 299.617546 
L 427.536322 299.061759 
L 430.142445 299.061759 
L 430.23607 298.505972 
L 439.917679 298.505972 
L 440.10385 297.950186 
L 442.351087 297.950186 
L 442.430147 297.394399 
L 443.138178 296.838612 
L 460.914776 296.838612 
L 461.840656 295.727039 
L 463.226568 295.727039 
L 463.509001 295.171252 
L 464.895004 295.171252 
L 465.100415 294.615466 
L 468.3751 294.615466 
L 468.41424 294.059679 
L 486.538035 294.059679 
L 486.618234 292.948106 
L 509.272259 292.948106 
L 509.860621 292.392319 
L 548.539822 292.392319 
L 550.357087 291.836532 
L 566.703207 291.836532 
L 566.791138 291.280746 
L 574.109256 291.280746 
L 574.464965 290.724959 
L 719.304399 290.724959 
L 719.722685 290.169172 
L 738.11264 290.169172 
L 738.591523 289.613386 
L 745.225227 289.613386 
L 746.427156 289.057599 
L 746.441452 285.167092 
L 752.704911 285.167092 
L 752.779026 282.388159 
L 812.012614 282.388159 
L 812.012614 282.388159 
" clip-path="url(#p36b2b11260)" style="fill: none; stroke: #cf222e; stroke-width: 2; stroke-linecap: square"/>
   </g>
   <g id="line2d_31">
    <path d="M 85.239886 454.682026 
L 85.256819 454.126239 
L 85.390321 -1 
M 85.510312 -1 
L 85.642408 101.201706 
L 87.728319 101.201706 
L 87.73785 97.866986 
L 90.261407 97.866986 
L 90.424801 98.422772 
L 90.733877 98.422772 
L 91.017809 98.978559 
L 92.777172 99.534346 
L 92.811907 98.978559 
L 92.875922 99.534346 
L 98.344469 99.534346 
L 101.631291 98.422772 
L 102.120334 99.534346 
L 102.477422 98.978559 
L 103.377408 99.534346 
L 103.753945 96.755412 
L 104.487121 96.755412 
L 105.555536 98.422772 
L 105.624855 95.643839 
L 106.444703 96.199626 
L 108.578386 96.199626 
L 109.141184 95.088052 
L 109.977155 95.088052 
L 110.251527 91.197546 
L 115.411867 91.197546 
L 115.811391 86.751252 
L 117.452195 86.751252 
L 119.871638 82.860746 
L 121.140819 82.860746 
L 121.160029 83.416532 
L 124.074749 83.416532 
L 124.797795 80.081812 
L 127.086061 80.081812 
L 127.101945 80.637599 
L 139.917381 80.637599 
L 142.312908 81.193386 
L 142.394695 80.637599 
L 144.879172 81.193386 
L 153.524942 81.193386 
L 157.715437 81.749172 
L 157.796385 74.523946 
L 157.995443 75.079732 
L 160.359442 75.079732 
L 161.36558 75.635519 
L 165.514777 75.635519 
L 165.672297 80.637599 
L 165.680029 71.745012 
L 165.881754 71.745012 
L 167.004264 73.968159 
L 171.787856 73.968159 
L 175.546609 70.077652 
L 179.724217 70.077652 
L 179.907541 68.410292 
L 190.763027 68.410292 
L 191.226326 68.966079 
L 193.86218 68.966079 
L 193.880761 70.077652 
L 198.903001 70.077652 
L 199.004867 73.412372 
L 206.767075 73.412372 
L 206.952466 68.410292 
L 208.094846 67.298719 
L 208.097574 67.854506 
L 208.360826 67.854506 
L 209.298754 65.075572 
L 210.67079 65.075572 
L 211.041094 65.631359 
L 211.078137 65.075572 
L 211.926096 65.631359 
L 211.929962 66.187146 
L 211.949772 65.631359 
L 212.439594 63.408212 
L 216.901553 63.408212 
L 218.288814 63.963999 
L 219.934923 63.963999 
L 222.730813 64.519786 
L 225.377636 64.519786 
L 227.422579 65.631359 
L 231.598838 65.075572 
L 231.897814 65.075572 
L 234.501091 66.187146 
L 235.234566 65.631359 
L 238.868046 65.631359 
L 242.964556 67.854506 
L 242.966774 67.298719 
L 249.079516 67.298719 
L 250.975301 67.854506 
L 284.760442 67.854506 
L 285.033285 68.410292 
L 287.147578 68.410292 
L 287.162772 66.742932 
L 297.353953 66.742932 
L 297.559814 67.298719 
L 318.524634 67.298719 
L 323.141026 67.854506 
L 323.167729 67.298719 
L 326.472383 68.966079 
L 327.537442 68.966079 
L 328.546667 68.410292 
L 331.322148 68.410292 
L 333.970289 68.966079 
L 333.974635 69.521866 
L 341.48312 67.854506 
L 342.196006 68.410292 
L 351.442995 68.410292 
L 351.836526 67.854506 
L 352.557414 68.410292 
L 352.805142 70.633439 
L 357.042749 70.633439 
L 357.046405 71.189226 
L 370.013397 71.189226 
L 370.76851 71.745012 
L 373.260539 71.745012 
L 373.503653 72.300799 
L 385.655622 72.300799 
L 385.672135 72.856586 
L 387.809715 72.856586 
L 388.711529 73.412372 
L 388.716054 73.968159 
L 389.453575 73.412372 
L 389.492086 73.968159 
L 390.637373 73.968159 
L 390.81731 74.523946 
L 393.213077 74.523946 
L 393.268581 73.412372 
L 393.641193 74.523946 
L 394.990632 72.856586 
L 398.253809 72.856586 
L 398.494734 71.189226 
L 399.588953 71.189226 
L 400.125977 72.300799 
L 402.893247 72.300799 
L 403.801265 72.856586 
L 404.021811 72.856586 
L 404.875254 70.077652 
L 406.400466 70.077652 
L 406.748832 70.633439 
L 413.808493 70.633439 
L 413.982436 71.189226 
L 414.635383 71.189226 
L 415.649104 71.745012 
L 427.067628 71.745012 
L 427.170214 72.300799 
L 427.536322 72.300799 
L 428.300606 73.412372 
L 429.372138 73.412372 
L 429.629786 72.856586 
L 429.878024 72.856586 
L 429.972218 73.412372 
L 432.837788 73.412372 
L 433.325633 73.968159 
L 435.81988 73.968159 
L 435.979798 74.523946 
L 437.34605 74.523946 
L 437.433591 75.079732 
L 441.679589 75.079732 
L 441.770877 75.635519 
L 444.247202 75.635519 
L 445.074302 77.858666 
L 445.991311 77.858666 
L 445.99227 78.414452 
L 449.715689 78.414452 
L 450.398305 78.970239 
L 453.24928 78.970239 
L 453.81082 79.526026 
L 455.972285 79.526026 
L 456.134271 80.081812 
L 459.649371 80.081812 
L 460.555441 80.637599 
L 460.621434 81.193386 
L 460.914776 81.193386 
L 461.840656 60.629279 
L 464.71207 60.629279 
L 464.732749 61.185066 
L 464.895004 61.185066 
L 465.100415 60.629279 
L 467.465494 60.629279 
L 467.725899 61.185066 
L 468.036564 61.185066 
L 468.349056 61.740852 
L 468.41424 61.185066 
L 469.687887 61.185066 
L 469.697837 61.740852 
L 469.973916 61.740852 
L 470.094814 62.296639 
L 470.930185 62.852426 
L 476.742363 62.852426 
L 477.6508 63.408212 
L 478.258913 63.408212 
L 478.752272 63.963999 
L 479.251355 63.408212 
L 481.306278 63.408212 
L 481.394898 64.519786 
L 484.344892 64.519786 
L 485.48949 66.187146 
L 497.913284 66.187146 
L 498.63534 66.742932 
L 517.812146 66.742932 
L 517.929957 67.298719 
L 546.108271 67.298719 
L 546.232405 67.854506 
L 546.241306 68.410292 
L 546.250147 67.854506 
L 550.357087 67.854506 
L 551.284375 68.410292 
L 567.464314 68.410292 
L 571.10178 68.966079 
L 571.957981 69.521866 
L 571.965144 67.854506 
L 597.932873 67.854506 
L 598.184917 68.410292 
L 621.277247 68.410292 
L 624.241297 68.966079 
L 626.054366 68.966079 
L 626.251116 69.521866 
L 627.511276 70.077652 
L 631.045197 70.077652 
L 632.533546 70.633439 
L 634.090944 70.633439 
L 634.212231 71.189226 
L 636.77385 71.189226 
L 637.079839 71.745012 
L 637.140408 72.300799 
L 641.701146 72.300799 
L 641.718828 72.856586 
L 644.971365 72.856586 
L 645.602075 72.300799 
L 645.610646 72.856586 
L 646.92637 73.412372 
L 649.262138 73.412372 
L 650.943011 73.968159 
L 652.447273 73.968159 
L 654.664362 61.740852 
L 657.252773 61.740852 
L 657.264761 64.519786 
L 670.279375 64.519786 
L 670.280723 65.075572 
L 670.505825 65.631359 
L 671.752379 65.631359 
L 672.023514 66.187146 
L 676.112291 66.187146 
L 677.057501 66.742932 
L 677.213014 66.187146 
L 684.526247 66.187146 
L 684.527895 66.742932 
L 696.09372 66.742932 
L 696.17281 67.854506 
L 697.84709 69.521866 
L 699.527063 69.521866 
L 699.706012 70.077652 
L 706.76816 70.077652 
L 706.898018 70.633439 
L 713.989207 70.633439 
L 714.14367 71.189226 
L 716.098046 72.856586 
L 716.249482 73.412372 
L 735.502141 73.412372 
L 737.32492 76.191306 
L 741.674283 76.191306 
L 741.957585 76.747092 
L 745.225227 76.747092 
L 746.441452 77.858666 
L 763.664631 77.858666 
L 763.88299 78.414452 
L 766.404269 78.414452 
L 766.674355 78.970239 
L 783.283398 78.970239 
L 783.29191 80.637599 
L 783.807776 80.637599 
L 783.894987 81.193386 
L 786.85586 81.193386 
L 787.272677 81.749172 
L 787.275165 81.193386 
L 794.777626 81.193386 
L 796.587518 81.749172 
L 812.012614 81.749172 
L 812.012614 81.749172 
" clip-path="url(#p36b2b11260)" style="fill: none; stroke: #9467bd; stroke-width: 2; stroke-linecap: square"/>
   </g>
   <g id="patch_3">
    <path d="M 48.90125 455.237812 
L 48.90125 38.397812 
" style="fill: none; stroke: #d0d7de; stroke-width: 0.8; stroke-linejoin: miter; stroke-linecap: square"/>
   </g>
   <g id="patch_4">
    <path d="M 848.35125 455.237812 
L 848.35125 38.397812 
" style="fill: none; stroke: #d0d7de; stroke-width: 0.8; stroke-linejoin: miter; stroke-linecap: square"/>
   </g>
   <g id="patch_5">
    <path d="M 48.90125 455.237812 
L 848.35125 455.237812 
" style="fill: none; stroke: #d0d7de; stroke-width: 0.8; stroke-linejoin: miter; stroke-linecap: square"/>
   </g>
   <g id="patch_6">
    <path d="M 48.90125 38.397812 
L 848.35125 38.397812 
" style="fill: none; stroke: #d0d7de; stroke-width: 0.8; stroke-linejoin: miter; stroke-linecap: square"/>
   </g>
   <g id="text_16">
    <!-- 545 -->
    <g style="fill: #1a7f37" transform="translate(817.012614 154.817517) scale(0.09 -0.09)">
     <defs>
      <path id="DejaVuSans-Bold-35" d="M 678 4666 
L 3669 4666 
L 3669 3781 
L 1638 3781 
L 1638 3059 
Q 1775 3097 1914 3117 
Q 2053 3138 2203 3138 
Q 3056 3138 3531 2711 
Q 4006 2284 4006 1522 
Q 4006 766 3489 337 
Q 2972 -91 2053 -91 
Q 1656 -91 1267 -14 
Q 878 63 494 219 
L 494 1166 
Q 875 947 1217 837 
Q 1559 728 1863 728 
Q 2300 728 2551 942 
Q 2803 1156 2803 1522 
Q 2803 1891 2551 2103 
Q 2300 2316 1863 2316 
Q 1603 2316 1309 2248 
Q 1016 2181 678 2041 
L 678 4666 
z
" transform="scale(0.015625)"/>
      <path id="DejaVuSans-Bold-34" d="M 2356 3675 
L 1038 1722 
L 2356 1722 
L 2356 3675 
z
M 2156 4666 
L 3494 4666 
L 3494 1722 
L 4159 1722 
L 4159 850 
L 3494 850 
L 3494 0 
L 2356 0 
L 2356 850 
L 288 850 
L 288 1881 
L 2156 4666 
z
" transform="scale(0.015625)"/>
     </defs>
     <use xlink:href="#DejaVuSans-Bold-35"/>
     <use xlink:href="#DejaVuSans-Bold-34" transform="translate(69.580078 0)"/>
     <use xlink:href="#DejaVuSans-Bold-35" transform="translate(139.160156 0)"/>
    </g>
   </g>
   <g id="text_17">
    <!-- 438 -->
    <g style="fill: #0969da" transform="translate(817.012614 214.28669) scale(0.09 -0.09)">
     <defs>
      <path id="DejaVuSans-Bold-33" d="M 2981 2516 
Q 3453 2394 3698 2092 
Q 3944 1791 3944 1325 
Q 3944 631 3412 270 
Q 2881 -91 1863 -91 
Q 1503 -91 1142 -33 
Q 781 25 428 141 
L 428 1069 
Q 766 900 1098 814 
Q 1431 728 1753 728 
Q 2231 728 2486 893 
Q 2741 1059 2741 1369 
Q 2741 1688 2480 1852 
Q 2219 2016 1709 2016 
L 1228 2016 
L 1228 2791 
L 1734 2791 
Q 2188 2791 2409 2933 
Q 2631 3075 2631 3366 
Q 2631 3634 2415 3781 
Q 2200 3928 1806 3928 
Q 1516 3928 1219 3862 
Q 922 3797 628 3669 
L 628 4550 
Q 984 4650 1334 4700 
Q 1684 4750 2022 4750 
Q 2931 4750 3382 4451 
Q 3834 4153 3834 3553 
Q 3834 3144 3618 2883 
Q 3403 2622 2981 2516 
z
" transform="scale(0.015625)"/>
      <path id="DejaVuSans-Bold-38" d="M 2228 2088 
Q 1891 2088 1709 1903 
Q 1528 1719 1528 1375 
Q 1528 1031 1709 848 
Q 1891 666 2228 666 
Q 2563 666 2741 848 
Q 2919 1031 2919 1375 
Q 2919 1722 2741 1905 
Q 2563 2088 2228 2088 
z
M 1350 2484 
Q 925 2613 709 2878 
Q 494 3144 494 3541 
Q 494 4131 934 4440 
Q 1375 4750 2228 4750 
Q 3075 4750 3515 4442 
Q 3956 4134 3956 3541 
Q 3956 3144 3739 2878 
Q 3522 2613 3097 2484 
Q 3572 2353 3814 2058 
Q 4056 1763 4056 1313 
Q 4056 619 3595 264 
Q 3134 -91 2228 -91 
Q 1319 -91 855 264 
Q 391 619 391 1313 
Q 391 1763 633 2058 
Q 875 2353 1350 2484 
z
M 1631 3419 
Q 1631 3141 1786 2991 
Q 1941 2841 2228 2841 
Q 2509 2841 2662 2991 
Q 2816 3141 2816 3419 
Q 2816 3697 2662 3845 
Q 2509 3994 2228 3994 
Q 1941 3994 1786 3844 
Q 1631 3694 1631 3419 
z
" transform="scale(0.015625)"/>
     </defs>
     <use xlink:href="#DejaVuSans-Bold-34"/>
     <use xlink:href="#DejaVuSans-Bold-33" transform="translate(69.580078 0)"/>
     <use xlink:href="#DejaVuSans-Bold-38" transform="translate(139.160156 0)"/>
    </g>
   </g>
   <g id="text_18">
    <!-- 186 -->
    <g style="fill: #bf8700" transform="translate(817.012614 354.34493) scale(0.09 -0.09)">
     <defs>
      <path id="DejaVuSans-Bold-31" d="M 750 831 
L 1813 831 
L 1813 3847 
L 722 3622 
L 722 4441 
L 1806 4666 
L 2950 4666 
L 2950 831 
L 4013 831 
L 4013 0 
L 750 0 
L 750 831 
z
" transform="scale(0.015625)"/>
      <path id="DejaVuSans-Bold-36" d="M 2316 2303 
Q 2000 2303 1842 2098 
Q 1684 1894 1684 1484 
Q 1684 1075 1842 870 
Q 2000 666 2316 666 
Q 2634 666 2792 870 
Q 2950 1075 2950 1484 
Q 2950 1894 2792 2098 
Q 2634 2303 2316 2303 
z
M 3803 4544 
L 3803 3681 
Q 3506 3822 3243 3889 
Q 2981 3956 2731 3956 
Q 2194 3956 1894 3657 
Q 1594 3359 1544 2772 
Q 1750 2925 1990 3001 
Q 2231 3078 2516 3078 
Q 3231 3078 3670 2659 
Q 4109 2241 4109 1563 
Q 4109 813 3618 361 
Q 3128 -91 2303 -91 
Q 1394 -91 895 523 
Q 397 1138 397 2266 
Q 397 3422 980 4083 
Q 1563 4744 2578 4744 
Q 2900 4744 3203 4694 
Q 3506 4644 3803 4544 
z
" transform="scale(0.015625)"/>
     </defs>
     <use xlink:href="#DejaVuSans-Bold-31"/>
     <use xlink:href="#DejaVuSans-Bold-38" transform="translate(69.580078 0)"/>
     <use xlink:href="#DejaVuSans-Bold-36" transform="translate(139.160156 0)"/>
    </g>
   </g>
   <g id="text_19">
    <!-- 311 -->
    <g style="fill: #cf222e" transform="translate(817.012614 284.871597) scale(0.09 -0.09)">
     <use xlink:href="#DejaVuSans-Bold-33"/>
     <use xlink:href="#DejaVuSans-Bold-31" transform="translate(69.580078 0)"/>
     <use xlink:href="#DejaVuSans-Bold-31" transform="translate(139.160156 0)"/>
    </g>
   </g>
   <g id="text_20">
    <!-- 672 -->
    <g style="fill: #9467bd" transform="translate(817.012614 84.23261) scale(0.09 -0.09)">
     <defs>
      <path id="DejaVuSans-Bold-37" d="M 428 4666 
L 3944 4666 
L 3944 3988 
L 2125 0 
L 953 0 
L 2675 3781 
L 428 3781 
L 428 4666 
z
" transform="scale(0.015625)"/>
      <path id="DejaVuSans-Bold-32" d="M 1844 884 
L 3897 884 
L 3897 0 
L 506 0 
L 506 884 
L 2209 2388 
Q 2438 2594 2547 2791 
Q 2656 2988 2656 3200 
Q 2656 3528 2436 3728 
Q 2216 3928 1850 3928 
Q 1569 3928 1234 3808 
Q 900 3688 519 3450 
L 519 4475 
Q 925 4609 1322 4679 
Q 1719 4750 2100 4750 
Q 2938 4750 3402 4381 
Q 3866 4013 3866 3353 
Q 3866 2972 3669 2642 
Q 3472 2313 2841 1759 
L 1844 884 
z
" transform="scale(0.015625)"/>
     </defs>
     <use xlink:href="#DejaVuSans-Bold-36"/>
     <use xlink:href="#DejaVuSans-Bold-37" transform="translate(69.580078 0)"/>
     <use xlink:href="#DejaVuSans-Bold-32" transform="translate(139.160156 0)"/>
    </g>
   </g>
   <g id="text_21">
    <!-- Erdős Problems Progress -->
    <g style="fill: #24292f" transform="translate(349.588281 18.397812) scale(0.14 -0.14)">
     <defs>
      <path id="DejaVuSans-Bold-45" d="M 588 4666 
L 3834 4666 
L 3834 3756 
L 1791 3756 
L 1791 2888 
L 3713 2888 
L 3713 1978 
L 1791 1978 
L 1791 909 
L 3903 909 
L 3903 0 
L 588 0 
L 588 4666 
z
" transform="scale(0.015625)"/>
      <path id="DejaVuSans-Bold-72" d="M 3138 2547 
Q 2991 2616 2845 2648 
Q 2700 2681 2553 2681 
Q 2122 2681 1889 2404 
Q 1656 2128 1656 1613 
L 1656 0 
L 538 0 
L 538 3500 
L 1656 3500 
L 1656 2925 
Q 1872 3269 2151 3426 
Q 2431 3584 2822 3584 
Q 2878 3584 2943 3579 
Q 3009 3575 3134 3559 
L 3138 2547 
z
" transform="scale(0.015625)"/>
      <path id="DejaVuSans-Bold-64" d="M 2919 2988 
L 2919 4863 
L 4044 4863 
L 4044 0 
L 2919 0 
L 2919 506 
Q 2688 197 2409 53 
Q 2131 -91 1766 -91 
Q 1119 -91 703 423 
Q 288 938 288 1747 
Q 288 2556 703 3070 
Q 1119 3584 1766 3584 
Q 2128 3584 2408 3439 
Q 2688 3294 2919 2988 
z
M 2181 722 
Q 2541 722 2730 984 
Q 2919 1247 2919 1747 
Q 2919 2247 2730 2509 
Q 2541 2772 2181 2772 
Q 1825 2772 1636 2509 
Q 1447 2247 1447 1747 
Q 1447 1247 1636 984 
Q 1825 722 2181 722 
z
" transform="scale(0.015625)"/>
      <path id="DejaVuSans-Bold-151" d="M 1881 5119 
L 2560 5119 
L 1785 3944 
L 1275 3944 
L 1881 5119 
z
M 3016 5119 
L 3738 5119 
L 2888 3944 
L 2344 3944 
L 3016 5119 
z
M 2203 2784 
Q 1831 2784 1636 2517 
Q 1441 2250 1441 1747 
Q 1441 1244 1636 976 
Q 1831 709 2203 709 
Q 2569 709 2762 976 
Q 2956 1244 2956 1747 
Q 2956 2250 2762 2517 
Q 2569 2784 2203 2784 
z
M 2203 3584 
Q 3106 3584 3614 3096 
Q 4122 2609 4122 1747 
Q 4122 884 3614 396 
Q 3106 -91 2203 -91 
Q 1297 -91 786 396 
Q 275 884 275 1747 
Q 275 2609 786 3096 
Q 1297 3584 2203 3584 
z
" transform="scale(0.015625)"/>
      <path id="DejaVuSans-Bold-73" d="M 3272 3391 
L 3272 2541 
Q 2913 2691 2578 2766 
Q 2244 2841 1947 2841 
Q 1628 2841 1473 2761 
Q 1319 2681 1319 2516 
Q 1319 2381 1436 2309 
Q 1553 2238 1856 2203 
L 2053 2175 
Q 2913 2066 3209 1816 
Q 3506 1566 3506 1031 
Q 3506 472 3093 190 
Q 2681 -91 1863 -91 
Q 1516 -91 1145 -36 
Q 775 19 384 128 
L 384 978 
Q 719 816 1070 734 
Q 1422 653 1784 653 
Q 2113 653 2278 743 
Q 2444 834 2444 1013 
Q 2444 1163 2330 1236 
Q 2216 1309 1875 1350 
L 1678 1375 
Q 931 1469 631 1722 
Q 331 1975 331 2491 
Q 331 3047 712 3315 
Q 1094 3584 1881 3584 
Q 2191 3584 2531 3537 
Q 2872 3491 3272 3391 
z
" transform="scale(0.015625)"/>
      <path id="DejaVuSans-Bold-20" transform="scale(0.015625)"/>
      <path id="DejaVuSans-Bold-50" d="M 588 4666 
L 2584 4666 
Q 3475 4666 3951 4270 
Q 4428 3875 4428 3144 
Q 4428 2409 3951 2014 
Q 3475 1619 2584 1619 
L 1791 1619 
L 1791 0 
L 588 0 
L 588 4666 
z
M 1791 3794 
L 1791 2491 
L 2456 2491 
Q 2806 2491 2997 2661 
Q 3188 2831 3188 3144 
Q 3188 3456 2997 3625 
Q 2806 3794 2456 3794 
L 1791 3794 
z
" transform="scale(0.015625)"/>
      <path id="DejaVuSans-Bold-6f" d="M 2203 2784 
Q 1831 2784 1636 2517 
Q 1441 2250 1441 1747 
Q 1441 1244 1636 976 
Q 1831 709 2203 709 
Q 2569 709 2762 976 
Q 2956 1244 2956 1747 
Q 2956 2250 2762 2517 
Q 2569 2784 2203 2784 
z
M 2203 3584 
Q 3106 3584 3614 3096 
Q 4122 2609 4122 1747 
Q 4122 884 3614 396 
Q 3106 -91 2203 -91 
Q 1297 -91 786 396 
Q 275 884 275 1747 
Q 275 2609 786 3096 
Q 1297 3584 2203 3584 
z
" transform="scale(0.015625)"/>
      <path id="DejaVuSans-Bold-62" d="M 2400 722 
Q 2759 722 2948 984 
Q 3138 1247 3138 1747 
Q 3138 2247 2948 2509 
Q 2759 2772 2400 2772 
Q 2041 2772 1848 2508 
Q 1656 2244 1656 1747 
Q 1656 1250 1848 986 
Q 2041 722 2400 722 
z
M 1656 2988 
Q 1888 3294 2169 3439 
Q 2450 3584 2816 3584 
Q 3463 3584 3878 3070 
Q 4294 2556 4294 1747 
Q 4294 938 3878 423 
Q 3463 -91 2816 -91 
Q 2450 -91 2169 54 
Q 1888 200 1656 506 
L 1656 0 
L 538 0 
L 538 4863 
L 1656 4863 
L 1656 2988 
z
" transform="scale(0.015625)"/>
      <path id="DejaVuSans-Bold-6c" d="M 538 4863 
L 1656 4863 
L 1656 0 
L 538 0 
L 538 4863 
z
" transform="scale(0.015625)"/>
      <path id="DejaVuSans-Bold-65" d="M 4031 1759 
L 4031 1441 
L 1416 1441 
Q 1456 1047 1700 850 
Q 1944 653 2381 653 
Q 2734 653 3104 758 
Q 3475 863 3866 1075 
L 3866 213 
Q 3469 63 3072 -14 
Q 2675 -91 2278 -91 
Q 1328 -91 801 392 
Q 275 875 275 1747 
Q 275 2603 792 3093 
Q 1309 3584 2216 3584 
Q 3041 3584 3536 3087 
Q 4031 2591 4031 1759 
z
M 2881 2131 
Q 2881 2450 2695 2645 
Q 2509 2841 2209 2841 
Q 1884 2841 1681 2658 
Q 1478 2475 1428 2131 
L 2881 2131 
z
" transform="scale(0.015625)"/>
      <path id="DejaVuSans-Bold-6d" d="M 3781 2919 
Q 3994 3244 4286 3414 
Q 4578 3584 4928 3584 
Q 5531 3584 5847 3212 
Q 6163 2841 6163 2131 
L 6163 0 
L 5038 0 
L 5038 1825 
Q 5041 1866 5042 1909 
Q 5044 1953 5044 2034 
Q 5044 2406 4934 2573 
Q 4825 2741 4581 2741 
Q 4263 2741 4089 2478 
Q 3916 2216 3909 1719 
L 3909 0 
L 2784 0 
L 2784 1825 
Q 2784 2406 2684 2573 
Q 2584 2741 2328 2741 
Q 2006 2741 1831 2477 
Q 1656 2213 1656 1722 
L 1656 0 
L 531 0 
L 531 3500 
L 1656 3500 
L 1656 2988 
Q 1863 3284 2130 3434 
Q 2397 3584 2719 3584 
Q 3081 3584 3359 3409 
Q 3638 3234 3781 2919 
z
" transform="scale(0.015625)"/>
      <path id="DejaVuSans-Bold-67" d="M 2919 594 
Q 2688 288 2409 144 
Q 2131 0 1766 0 
Q 1125 0 706 504 
Q 288 1009 288 1791 
Q 288 2575 706 3076 
Q 1125 3578 1766 3578 
Q 2131 3578 2409 3434 
Q 2688 3291 2919 2981 
L 2919 3500 
L 4044 3500 
L 4044 353 
Q 4044 -491 3511 -936 
Q 2978 -1381 1966 -1381 
Q 1638 -1381 1331 -1331 
Q 1025 -1281 716 -1178 
L 716 -306 
Q 1009 -475 1290 -558 
Q 1572 -641 1856 -641 
Q 2406 -641 2662 -400 
Q 2919 -159 2919 353 
L 2919 594 
z
M 2181 2772 
Q 1834 2772 1640 2515 
Q 1447 2259 1447 1791 
Q 1447 1309 1634 1061 
Q 1822 813 2181 813 
Q 2531 813 2725 1069 
Q 2919 1325 2919 1791 
Q 2919 2259 2725 2515 
Q 2531 2772 2181 2772 
z
" transform="scale(0.015625)"/>
     </defs>
     <use xlink:href="#DejaVuSans-Bold-45"/>
     <use xlink:href="#DejaVuSans-Bold-72" transform="translate(68.310547 0)"/>
     <use xlink:href="#DejaVuSans-Bold-64" transform="translate(117.626953 0)"/>
     <use xlink:href="#DejaVuSans-Bold-151" transform="translate(189.208984 0)"/>
     <use xlink:href="#DejaVuSans-Bold-73" transform="translate(257.910156 0)"/>
     <use xlink:href="#DejaVuSans-Bold-20" transform="translate(317.431641 0)"/>
     <use xlink:href="#DejaVuSans-Bold-50" transform="translate(352.246094 0)"/>
     <use xlink:href="#DejaVuSans-Bold-72" transform="translate(425.537109 0)"/>
     <use xlink:href="#DejaVuSans-Bold-6f" transform="translate(474.853516 0)"/>
     <use xlink:href="#DejaVuSans-Bold-62" transform="translate(543.554688 0)"/>
     <use xlink:href="#DejaVuSans-Bold-6c" transform="translate(615.136719 0)"/>
     <use xlink:href="#DejaVuSans-Bold-65" transform="translate(649.414062 0)"/>
     <use xlink:href="#DejaVuSans-Bold-6d" transform="translate(717.236328 0)"/>
     <use xlink:href="#DejaVuSans-Bold-73" transform="translate(821.435547 0)"/>
     <use xlink:href="#DejaVuSans-Bold-20" transform="translate(880.957031 0)"/>
     <use xlink:href="#DejaVuSans-Bold-50" transform="translate(915.771484 0)"/>
     <use xlink:href="#DejaVuSans-Bold-72" transform="translate(989.0625 0)"/>
     <use xlink:href="#DejaVuSans-Bold-6f" transform="translate(1038.378906 0)"/>
     <use xlink:href="#DejaVuSans-Bold-67" transform="translate(1107.080078 0)"/>
     <use xlink:href="#DejaVuSans-Bold-72" transform="translate(1178.662109 0)"/>
     <use xlink:href="#DejaVuSans-Bold-65" transform="translate(1227.978516 0)"/>
     <use xlink:href="#DejaVuSans-Bold-73" transform="translate(1295.800781 0)"/>
     <use xlink:href="#DejaVuSans-Bold-73" transform="translate(1355.322266 0)"/>
    </g>
   </g>
   <g id="legend_1">
    <g id="patch_7">
     <path d="M 55.90125 119.788437 
L 213.771563 119.788437 
Q 215.771563 119.788437 215.771563 117.788437 
L 215.771563 45.397812 
Q 215.771563 43.397812 213.771563 43.397812 
L 55.90125 43.397812 
Q 53.90125 43.397812 53.90125 45.397812 
L 53.90125 117.788437 
Q 53.90125 119.788437 55.90125 119.788437 
z
" style="fill: #f6f8fa; opacity: 0.8; stroke: #d0d7de; stroke-linejoin: miter"/>
    </g>
    <g id="line2d_32">
     <path d="M 57.90125 51.49625 
L 67.90125 51.49625 
L 77.90125 51.49625 
" style="fill: none; stroke: #1a7f37; stroke-width: 2; stroke-linecap: square"/>
    </g>
    <g id="text_22">
     <!-- Solved -->
     <g style="fill: #24292f" transform="translate(85.90125 54.99625) scale(0.1 -0.1)">
      <defs>
       <path id="DejaVuSans-6c" d="M 603 4863 
L 1178 4863 
L 1178 0 
L 603 0 
L 603 4863 
z
" transform="scale(0.015625)"/>
       <path id="DejaVuSans-64" d="M 2906 2969 
L 2906 4863 
L 3481 4863 
L 3481 0 
L 2906 0 
L 2906 525 
Q 2725 213 2448 61 
Q 2172 -91 1784 -91 
Q 1150 -91 751 415 
Q 353 922 353 1747 
Q 353 2572 751 3078 
Q 1150 3584 1784 3584 
Q 2172 3584 2448 3432 
Q 2725 3281 2906 2969 
z
M 947 1747 
Q 947 1113 1208 752 
Q 1469 391 1925 391 
Q 2381 391 2643 752 
Q 2906 1113 2906 1747 
Q 2906 2381 2643 2742 
Q 2381 3103 1925 3103 
Q 1469 3103 1208 2742 
Q 947 2381 947 1747 
z
" transform="scale(0.015625)"/>
      </defs>
      <use xlink:href="#DejaVuSans-53"/>
      <use xlink:href="#DejaVuSans-6f" transform="translate(63.476562 0)"/>
      <use xlink:href="#DejaVuSans-6c" transform="translate(124.658203 0)"/>
      <use xlink:href="#DejaVuSans-76" transform="translate(152.441406 0)"/>
      <use xlink:href="#DejaVuSans-65" transform="translate(211.621094 0)"/>
      <use xlink:href="#DejaVuSans-64" transform="translate(273.144531 0)"/>
     </g>
    </g>
    <g id="line2d_33">
     <path d="M 57.90125 66.174375 
L 67.90125 66.174375 
L 77.90125 66.174375 
" style="fill: none; stroke: #0969da; stroke-width: 2; stroke-linecap: square"/>
    </g>
    <g id="text_23">
     <!-- Lean Formalized Problem -->
     <g style="fill: #24292f" transform="translate(85.90125 69.674375) scale(0.1 -0.1)">
      <defs>
       <path id="DejaVuSans-4c" d="M 628 4666 
L 1259 4666 
L 1259 531 
L 3531 531 
L 3531 0 
L 628 0 
L 628 4666 
z
" transform="scale(0.015625)"/>
       <path id="DejaVuSans-20" transform="scale(0.015625)"/>
       <path id="DejaVuSans-46" d="M 628 4666 
L 3309 4666 
L 3309 4134 
L 1259 4134 
L 1259 2759 
L 3109 2759 
L 3109 2228 
L 1259 2228 
L 1259 0 
L 628 0 
L 628 4666 
z
" transform="scale(0.015625)"/>
       <path id="DejaVuSans-6d" d="M 3328 2828 
Q 3544 3216 3844 3400 
Q 4144 3584 4550 3584 
Q 5097 3584 5394 3201 
Q 5691 2819 5691 2113 
L 5691 0 
L 5113 0 
L 5113 2094 
Q 5113 2597 4934 2840 
Q 4756 3084 4391 3084 
Q 3944 3084 3684 2787 
Q 3425 2491 3425 1978 
L 3425 0 
L 2847 0 
L 2847 2094 
Q 2847 2600 2669 2842 
Q 2491 3084 2119 3084 
Q 1678 3084 1418 2786 
Q 1159 2488 1159 1978 
L 1159 0 
L 581 0 
L 581 3500 
L 1159 3500 
L 1159 2956 
Q 1356 3278 1631 3431 
Q 1906 3584 2284 3584 
Q 2666 3584 2933 3390 
Q 3200 3197 3328 2828 
z
" transform="scale(0.015625)"/>
       <path id="DejaVuSans-69" d="M 603 3500 
L 1178 3500 
L 1178 0 
L 603 0 
L 603 3500 
z
M 603 4863 
L 1178 4863 
L 1178 4134 
L 603 4134 
L 603 4863 
z
" transform="scale(0.015625)"/>
       <path id="DejaVuSans-7a" d="M 353 3500 
L 3084 3500 
L 3084 2975 
L 922 459 
L 3084 459 
L 3084 0 
L 275 0 
L 275 525 
L 2438 3041 
L 353 3041 
L 353 3500 
z
" transform="scale(0.015625)"/>
       <path id="DejaVuSans-50" d="M 1259 4147 
L 1259 2394 
L 2053 2394 
Q 2494 2394 2734 2622 
Q 2975 2850 2975 3272 
Q 2975 3691 2734 3919 
Q 2494 4147 2053 4147 
L 1259 4147 
z
M 628 4666 
L 2053 4666 
Q 2838 4666 3239 4311 
Q 3641 3956 3641 3272 
Q 3641 2581 3239 2228 
Q 2838 1875 2053 1875 
L 1259 1875 
L 1259 0 
L 628 0 
L 628 4666 
z
" transform="scale(0.015625)"/>
       <path id="DejaVuSans-62" d="M 3116 1747 
Q 3116 2381 2855 2742 
Q 2594 3103 2138 3103 
Q 1681 3103 1420 2742 
Q 1159 2381 1159 1747 
Q 1159 1113 1420 752 
Q 1681 391 2138 391 
Q 2594 391 2855 752 
Q 3116 1113 3116 1747 
z
M 1159 2969 
Q 1341 3281 1617 3432 
Q 1894 3584 2278 3584 
Q 2916 3584 3314 3078 
Q 3713 2572 3713 1747 
Q 3713 922 3314 415 
Q 2916 -91 2278 -91 
Q 1894 -91 1617 61 
Q 1341 213 1159 525 
L 1159 0 
L 581 0 
L 581 4863 
L 1159 4863 
L 1159 2969 
z
" transform="scale(0.015625)"/>
      </defs>
      <use xlink:href="#DejaVuSans-4c"/>
      <use xlink:href="#DejaVuSans-65" transform="translate(53.962891 0)"/>
      <use xlink:href="#DejaVuSans-61" transform="translate(115.486328 0)"/>
      <use xlink:href="#DejaVuSans-6e" transform="translate(176.765625 0)"/>
      <use xlink:href="#DejaVuSans-20" transform="translate(240.144531 0)"/>
      <use xlink:href="#DejaVuSans-46" transform="translate(271.931641 0)"/>
      <use xlink:href="#DejaVuSans-6f" transform="translate(325.826172 0)"/>
      <use xlink:href="#DejaVuSans-72" transform="translate(387.007812 0)"/>
      <use xlink:href="#DejaVuSans-6d" transform="translate(426.371094 0)"/>
      <use xlink:href="#DejaVuSans-61" transform="translate(523.783203 0)"/>
      <use xlink:href="#DejaVuSans-6c" transform="translate(585.0625 0)"/>
      <use xlink:href="#DejaVuSans-69" transform="translate(612.845703 0)"/>
      <use xlink:href="#DejaVuSans-7a" transform="translate(640.628906 0)"/>
      <use xlink:href="#DejaVuSans-65" transform="translate(693.119141 0)"/>
      <use xlink:href="#DejaVuSans-64" transform="translate(754.642578 0)"/>
      <use xlink:href="#DejaVuSans-20" transform="translate(818.119141 0)"/>
      <use xlink:href="#DejaVuSans-50" transform="translate(849.90625 0)"/>
      <use xlink:href="#DejaVuSans-72" transform="translate(908.458984 0)"/>
      <use xlink:href="#DejaVuSans-6f" transform="translate(947.322266 0)"/>
      <use xlink:href="#DejaVuSans-62" transform="translate(1008.503906 0)"/>
      <use xlink:href="#DejaVuSans-6c" transform="translate(1071.980469 0)"/>
      <use xlink:href="#DejaVuSans-65" transform="translate(1099.763672 0)"/>
      <use xlink:href="#DejaVuSans-6d" transform="translate(1161.287109 0)"/>
     </g>
    </g>
    <g id="line2d_34">
     <path d="M 57.90125 80.8525 
L 67.90125 80.8525 
L 77.90125 80.8525 
" style="fill: none; stroke: #bf8700; stroke-width: 2; stroke-linecap: square"/>
    </g>
    <g id="text_24">
     <!-- Lean Formalized Solution -->
     <g style="fill: #24292f" transform="translate(85.90125 84.3525) scale(0.1 -0.1)">
      <use xlink:href="#DejaVuSans-4c"/>
      <use xlink:href="#DejaVuSans-65" transform="translate(53.962891 0)"/>
      <use xlink:href="#DejaVuSans-61" transform="translate(115.486328 0)"/>
      <use xlink:href="#DejaVuSans-6e" transform="translate(176.765625 0)"/>
      <use xlink:href="#DejaVuSans-20" transform="translate(240.144531 0)"/>
      <use xlink:href="#DejaVuSans-46" transform="translate(271.931641 0)"/>
      <use xlink:href="#DejaVuSans-6f" transform="translate(325.826172 0)"/>
      <use xlink:href="#DejaVuSans-72" transform="translate(387.007812 0)"/>
      <use xlink:href="#DejaVuSans-6d" transform="translate(426.371094 0)"/>
      <use xlink:href="#DejaVuSans-61" transform="translate(523.783203 0)"/>
      <use xlink:href="#DejaVuSans-6c" transform="translate(585.0625 0)"/>
      <use xlink:href="#DejaVuSans-69" transform="translate(612.845703 0)"/>
      <use xlink:href="#DejaVuSans-7a" transform="translate(640.628906 0)"/>
      <use xlink:href="#DejaVuSans-65" transform="translate(693.119141 0)"/>
      <use xlink:href="#DejaVuSans-64" transform="translate(754.642578 0)"/>
      <use xlink:href="#DejaVuSans-20" transform="translate(818.119141 0)"/>
      <use xlink:href="#DejaVuSans-53" transform="translate(849.90625 0)"/>
      <use xlink:href="#DejaVuSans-6f" transform="translate(913.382812 0)"/>
      <use xlink:href="#DejaVuSans-6c" transform="translate(974.564453 0)"/>
      <use xlink:href="#DejaVuSans-75" transform="translate(1002.347656 0)"/>
      <use xlink:href="#DejaVuSans-74" transform="translate(1065.726562 0)"/>
      <use xlink:href="#DejaVuSans-69" transform="translate(1104.935547 0)"/>
      <use xlink:href="#DejaVuSans-6f" transform="translate(1132.71875 0)"/>
      <use xlink:href="#DejaVuSans-6e" transform="translate(1193.900391 0)"/>
     </g>
    </g>
    <g id="line2d_35">
     <path d="M 57.90125 95.530625 
L 67.90125 95.530625 
L 77.90125 95.530625 
" style="fill: none; stroke: #cf222e; stroke-width: 2; stroke-linecap: square"/>
    </g>
    <g id="text_25">
     <!-- OEIS Linked -->
     <g style="fill: #24292f" transform="translate(85.90125 99.030625) scale(0.1 -0.1)">
      <defs>
       <path id="DejaVuSans-4f" d="M 2522 4238 
Q 1834 4238 1429 3725 
Q 1025 3213 1025 2328 
Q 1025 1447 1429 934 
Q 1834 422 2522 422 
Q 3209 422 3611 934 
Q 4013 1447 4013 2328 
Q 4013 3213 3611 3725 
Q 3209 4238 2522 4238 
z
M 2522 4750 
Q 3503 4750 4090 4092 
Q 4678 3434 4678 2328 
Q 4678 1225 4090 567 
Q 3503 -91 2522 -91 
Q 1538 -91 948 565 
Q 359 1222 359 2328 
Q 359 3434 948 4092 
Q 1538 4750 2522 4750 
z
" transform="scale(0.015625)"/>
       <path id="DejaVuSans-45" d="M 628 4666 
L 3578 4666 
L 3578 4134 
L 1259 4134 
L 1259 2753 
L 3481 2753 
L 3481 2222 
L 1259 2222 
L 1259 531 
L 3634 531 
L 3634 0 
L 628 0 
L 628 4666 
z
" transform="scale(0.015625)"/>
       <path id="DejaVuSans-49" d="M 628 4666 
L 1259 4666 
L 1259 0 
L 628 0 
L 628 4666 
z
" transform="scale(0.015625)"/>
       <path id="DejaVuSans-6b" d="M 581 4863 
L 1159 4863 
L 1159 1991 
L 2875 3500 
L 3609 3500 
L 1753 1863 
L 3688 0 
L 2938 0 
L 1159 1709 
L 1159 0 
L 581 0 
L 581 4863 
z
" transform="scale(0.015625)"/>
      </defs>
      <use xlink:href="#DejaVuSans-4f"/>
      <use xlink:href="#DejaVuSans-45" transform="translate(78.710938 0)"/>
      <use xlink:href="#DejaVuSans-49" transform="translate(141.894531 0)"/>
      <use xlink:href="#DejaVuSans-53" transform="translate(171.386719 0)"/>
      <use xlink:href="#DejaVuSans-20" transform="translate(234.863281 0)"/>
      <use xlink:href="#DejaVuSans-4c" transform="translate(266.650391 0)"/>
      <use xlink:href="#DejaVuSans-69" transform="translate(322.363281 0)"/>
      <use xlink:href="#DejaVuSans-6e" transform="translate(350.146484 0)"/>
      <use xlink:href="#DejaVuSans-6b" transform="translate(413.525391 0)"/>
      <use xlink:href="#DejaVuSans-65" transform="translate(467.810547 0)"/>
      <use xlink:href="#DejaVuSans-64" transform="translate(529.333984 0)"/>
     </g>
    </g>
    <g id="line2d_36">
     <path d="M 57.90125 110.20875 
L 67.90125 110.20875 
L 77.90125 110.20875 
" style="fill: none; stroke: #9467bd; stroke-width: 2; stroke-linecap: square"/>
    </g>
    <g id="text_26">
     <!-- Open Problems -->
     <g style="fill: #24292f" transform="translate(85.90125 113.70875) scale(0.1 -0.1)">
      <defs>
       <path id="DejaVuSans-73" d="M 2834 3397 
L 2834 2853 
Q 2591 2978 2328 3040 
Q 2066 3103 1784 3103 
Q 1356 3103 1142 2972 
Q 928 2841 928 2578 
Q 928 2378 1081 2264 
Q 1234 2150 1697 2047 
L 1894 2003 
Q 2506 1872 2764 1633 
Q 3022 1394 3022 966 
Q 3022 478 2636 193 
Q 2250 -91 1575 -91 
Q 1294 -91 989 -36 
Q 684 19 347 128 
L 347 722 
Q 666 556 975 473 
Q 1284 391 1588 391 
Q 1994 391 2212 530 
Q 2431 669 2431 922 
Q 2431 1156 2273 1281 
Q 2116 1406 1581 1522 
L 1381 1569 
Q 847 1681 609 1914 
Q 372 2147 372 2553 
Q 372 3047 722 3315 
Q 1072 3584 1716 3584 
Q 2034 3584 2315 3537 
Q 2597 3491 2834 3397 
z
" transform="scale(0.015625)"/>
      </defs>
      <use xlink:href="#DejaVuSans-4f"/>
      <use xlink:href="#DejaVuSans-70" transform="translate(78.710938 0)"/>
      <use xlink:href="#DejaVuSans-65" transform="translate(142.1875 0)"/>
      <use xlink:href="#DejaVuSans-6e" transform="translate(203.710938 0)"/>
      <use xlink:href="#DejaVuSans-20" transform="translate(267.089844 0)"/>
      <use xlink:href="#DejaVuSans-50" transform="translate(298.876953 0)"/>
      <use xlink:href="#DejaVuSans-72" transform="translate(357.429688 0)"/>
      <use xlink:href="#DejaVuSans-6f" transform="translate(396.292969 0)"/>
      <use xlink:href="#DejaVuSans-62" transform="translate(457.474609 0)"/>
      <use xlink:href="#DejaVuSans-6c" transform="translate(520.951172 0)"/>
      <use xlink:href="#DejaVuSans-65" transform="translate(548.734375 0)"/>
      <use xlink:href="#DejaVuSans-6d" transform="translate(610.257812 0)"/>
      <use xlink:href="#DejaVuSans-73" transform="translate(707.669922 0)"/>
     </g>
    </g>
   </g>
  </g>
 </g>
 <defs>
  <clipPath id="p36b2b11260">
   <rect x="48.90125" y="38.397812" width="799.45" height="416.84"/>
  </clipPath>
 </defs>
</svg>
