<?xml version="1.0" encoding="utf-8" standalone="no"?>
<!DOCTYPE svg PUBLIC "-//W3C//DTD SVG 1.1//EN"
  "http://www.w3.org/Graphics/SVG/1.1/DTD/svg11.dtd">
<svg xmlns:xlink="http://www.w3.org/1999/xlink" width="855.55125pt" height="494.729687pt" viewBox="0 0 855.55125 494.729687" xmlns="http://www.w3.org/2000/svg" version="1.1">
 <metadata>
  <rdf:RDF xmlns:dc="http://purl.org/dc/elements/1.1/" xmlns:cc="http://creativecommons.org/ns#" xmlns:rdf="http://www.w3.org/1999/02/22-rdf-syntax-ns#">
   <cc:Work>
    <dc:type rdf:resource="http://purl.org/dc/dcmitype/StillImage"/>
    <dc:date>2026-06-07T12:59:40.492307</dc:date>
    <dc:format>image/svg+xml</dc:format>
    <dc:creator>
     <cc:Agent>
      <dc:title>Matplotlib v3.10.7, https://matplotlib.org/</dc:title>
     </cc:Agent>
    </dc:creator>
   </cc:Work>
  </rdf:RDF>
 </metadata>
 <defs>
  <style type="text/css">*{stroke-linejoin: round; stroke-linecap: butt}</style>
 </defs>
 <g id="figure_1">
  <g id="patch_1">
   <path d="M 0 494.729687 
L 855.55125 494.729687 
L 855.55125 0 
L 0 0 
z
" style="fill: #ffffff"/>
  </g>
  <g id="axes_1">
   <g id="patch_2">
    <path d="M 48.90125 455.237812 
L 848.35125 455.237812 
L 848.35125 38.397812 
L 48.90125 38.397812 
z
" style="fill: #ffffff"/>
   </g>
   <g id="matplotlib.axis_1">
    <g id="xtick_1">
     <g id="line2d_1">
      <path d="M 85.999134 455.237812 
L 85.999134 38.397812 
" clip-path="url(#pa7430f9c8f)" style="fill: none; stroke: #d0d7de; stroke-opacity: 0.25; stroke-width: 0.5; stroke-linecap: square"/>
     </g>
     <g id="line2d_2">
      <defs>
       <path id="m0febb64654" d="M 0 0 
L 0 3.5 
" style="stroke: #24292f; stroke-width: 0.8"/>
      </defs>
      <g>
       <use xlink:href="#m0febb64654" x="85.999134" y="455.237812" style="fill: #24292f; stroke: #24292f; stroke-width: 0.8"/>
      </g>
     </g>
     <g id="text_1">
      <!-- Sep -->
      <g style="fill: #24292f" transform="translate(76.574134 469.83625) scale(0.1 -0.1)">
       <defs>
        <path id="DejaVuSans-53" d="M 3425 4513 
L 3425 3897 
Q 3066 4069 2747 4153 
Q 2428 4238 2131 4238 
Q 1616 4238 1336 4038 
Q 1056 3838 1056 3469 
Q 1056 3159 1242 3001 
Q 1428 2844 1947 2747 
L 2328 2669 
Q 3034 2534 3370 2195 
Q 3706 1856 3706 1288 
Q 3706 609 3251 259 
Q 2797 -91 1919 -91 
Q 1588 -91 1214 -16 
Q 841 59 441 206 
L 441 856 
Q 825 641 1194 531 
Q 1563 422 1919 422 
Q 2459 422 2753 634 
Q 3047 847 3047 1241 
Q 3047 1584 2836 1778 
Q 2625 1972 2144 2069 
L 1759 2144 
Q 1053 2284 737 2584 
Q 422 2884 422 3419 
Q 422 4038 858 4394 
Q 1294 4750 2059 4750 
Q 2388 4750 2728 4690 
Q 3069 4631 3425 4513 
z
" transform="scale(0.015625)"/>
        <path id="DejaVuSans-65" d="M 3597 1894 
L 3597 1613 
L 953 1613 
Q 991 1019 1311 708 
Q 1631 397 2203 397 
Q 2534 397 2845 478 
Q 3156 559 3463 722 
L 3463 178 
Q 3153 47 2828 -22 
Q 2503 -91 2169 -91 
Q 1331 -91 842 396 
Q 353 884 353 1716 
Q 353 2575 817 3079 
Q 1281 3584 2069 3584 
Q 2775 3584 3186 3129 
Q 3597 2675 3597 1894 
z
M 3022 2063 
Q 3016 2534 2758 2815 
Q 2500 3097 2075 3097 
Q 1594 3097 1305 2825 
Q 1016 2553 972 2059 
L 3022 2063 
z
" transform="scale(0.015625)"/>
        <path id="DejaVuSans-70" d="M 1159 525 
L 1159 -1331 
L 581 -1331 
L 581 3500 
L 1159 3500 
L 1159 2969 
Q 1341 3281 1617 3432 
Q 1894 3584 2278 3584 
Q 2916 3584 3314 3078 
Q 3713 2572 3713 1747 
Q 3713 922 3314 415 
Q 2916 -91 2278 -91 
Q 1894 -91 1617 61 
Q 1341 213 1159 525 
z
M 3116 1747 
Q 3116 2381 2855 2742 
Q 2594 3103 2138 3103 
Q 1681 3103 1420 2742 
Q 1159 2381 1159 1747 
Q 1159 1113 1420 752 
Q 1681 391 2138 391 
Q 2594 391 2855 752 
Q 3116 1113 3116 1747 
z
" transform="scale(0.015625)"/>
       </defs>
       <use xlink:href="#DejaVuSans-53"/>
       <use xlink:href="#DejaVuSans-65" transform="translate(63.476562 0)"/>
       <use xlink:href="#DejaVuSans-70" transform="translate(125 0)"/>
      </g>
     </g>
    </g>
    <g id="xtick_2">
     <g id="line2d_3">
      <path d="M 244.425817 455.237812 
L 244.425817 38.397812 
" clip-path="url(#pa7430f9c8f)" style="fill: none; stroke: #d0d7de; stroke-opacity: 0.25; stroke-width: 0.5; stroke-linecap: square"/>
     </g>
     <g id="line2d_4">
      <g>
       <use xlink:href="#m0febb64654" x="244.425817" y="455.237812" style="fill: #24292f; stroke: #24292f; stroke-width: 0.8"/>
      </g>
     </g>
     <g id="text_2">
      <!-- Nov -->
      <g style="fill: #24292f" transform="translate(234.666442 469.83625) scale(0.1 -0.1)">
       <defs>
        <path id="DejaVuSans-4e" d="M 628 4666 
L 1478 4666 
L 3547 763 
L 3547 4666 
L 4159 4666 
L 4159 0 
L 3309 0 
L 1241 3903 
L 1241 0 
L 628 0 
L 628 4666 
z
" transform="scale(0.015625)"/>
        <path id="DejaVuSans-6f" d="M 1959 3097 
Q 1497 3097 1228 2736 
Q 959 2375 959 1747 
Q 959 1119 1226 758 
Q 1494 397 1959 397 
Q 2419 397 2687 759 
Q 2956 1122 2956 1747 
Q 2956 2369 2687 2733 
Q 2419 3097 1959 3097 
z
M 1959 3584 
Q 2709 3584 3137 3096 
Q 3566 2609 3566 1747 
Q 3566 888 3137 398 
Q 2709 -91 1959 -91 
Q 1206 -91 779 398 
Q 353 888 353 1747 
Q 353 2609 779 3096 
Q 1206 3584 1959 3584 
z
" transform="scale(0.015625)"/>
        <path id="DejaVuSans-76" d="M 191 3500 
L 800 3500 
L 1894 563 
L 2988 3500 
L 3597 3500 
L 2284 0 
L 1503 0 
L 191 3500 
z
" transform="scale(0.015625)"/>
       </defs>
       <use xlink:href="#DejaVuSans-4e"/>
       <use xlink:href="#DejaVuSans-6f" transform="translate(74.804688 0)"/>
       <use xlink:href="#DejaVuSans-76" transform="translate(135.986328 0)"/>
      </g>
     </g>
    </g>
    <g id="xtick_3">
     <g id="line2d_5">
      <path d="M 402.8525 455.237812 
L 402.8525 38.397812 
" clip-path="url(#pa7430f9c8f)" style="fill: none; stroke: #d0d7de; stroke-opacity: 0.25; stroke-width: 0.5; stroke-linecap: square"/>
     </g>
     <g id="line2d_6">
      <g>
       <use xlink:href="#m0febb64654" x="402.8525" y="455.237812" style="fill: #24292f; stroke: #24292f; stroke-width: 0.8"/>
      </g>
     </g>
     <g id="text_3">
      <!-- 2026 -->
      <g style="fill: #24292f" transform="translate(390.1275 469.83625) scale(0.1 -0.1)">
       <defs>
        <path id="DejaVuSans-32" d="M 1228 531 
L 3431 531 
L 3431 0 
L 469 0 
L 469 531 
Q 828 903 1448 1529 
Q 2069 2156 2228 2338 
Q 2531 2678 2651 2914 
Q 2772 3150 2772 3378 
Q 2772 3750 2511 3984 
Q 2250 4219 1831 4219 
Q 1534 4219 1204 4116 
Q 875 4013 500 3803 
L 500 4441 
Q 881 4594 1212 4672 
Q 1544 4750 1819 4750 
Q 2544 4750 2975 4387 
Q 3406 4025 3406 3419 
Q 3406 3131 3298 2873 
Q 3191 2616 2906 2266 
Q 2828 2175 2409 1742 
Q 1991 1309 1228 531 
z
" transform="scale(0.015625)"/>
        <path id="DejaVuSans-30" d="M 2034 4250 
Q 1547 4250 1301 3770 
Q 1056 3291 1056 2328 
Q 1056 1369 1301 889 
Q 1547 409 2034 409 
Q 2525 409 2770 889 
Q 3016 1369 3016 2328 
Q 3016 3291 2770 3770 
Q 2525 4250 2034 4250 
z
M 2034 4750 
Q 2819 4750 3233 4129 
Q 3647 3509 3647 2328 
Q 3647 1150 3233 529 
Q 2819 -91 2034 -91 
Q 1250 -91 836 529 
Q 422 1150 422 2328 
Q 422 3509 836 4129 
Q 1250 4750 2034 4750 
z
" transform="scale(0.015625)"/>
        <path id="DejaVuSans-36" d="M 2113 2584 
Q 1688 2584 1439 2293 
Q 1191 2003 1191 1497 
Q 1191 994 1439 701 
Q 1688 409 2113 409 
Q 2538 409 2786 701 
Q 3034 994 3034 1497 
Q 3034 2003 2786 2293 
Q 2538 2584 2113 2584 
z
M 3366 4563 
L 3366 3988 
Q 3128 4100 2886 4159 
Q 2644 4219 2406 4219 
Q 1781 4219 1451 3797 
Q 1122 3375 1075 2522 
Q 1259 2794 1537 2939 
Q 1816 3084 2150 3084 
Q 2853 3084 3261 2657 
Q 3669 2231 3669 1497 
Q 3669 778 3244 343 
Q 2819 -91 2113 -91 
Q 1303 -91 875 529 
Q 447 1150 447 2328 
Q 447 3434 972 4092 
Q 1497 4750 2381 4750 
Q 2619 4750 2861 4703 
Q 3103 4656 3366 4563 
z
" transform="scale(0.015625)"/>
       </defs>
       <use xlink:href="#DejaVuSans-32"/>
       <use xlink:href="#DejaVuSans-30" transform="translate(63.623047 0)"/>
       <use xlink:href="#DejaVuSans-32" transform="translate(127.246094 0)"/>
       <use xlink:href="#DejaVuSans-36" transform="translate(190.869141 0)"/>
      </g>
     </g>
    </g>
    <g id="xtick_4">
     <g id="line2d_7">
      <path d="M 556.084865 455.237812 
L 556.084865 38.397812 
" clip-path="url(#pa7430f9c8f)" style="fill: none; stroke: #d0d7de; stroke-opacity: 0.25; stroke-width: 0.5; stroke-linecap: square"/>
     </g>
     <g id="line2d_8">
      <g>
       <use xlink:href="#m0febb64654" x="556.084865" y="455.237812" style="fill: #24292f; stroke: #24292f; stroke-width: 0.8"/>
      </g>
     </g>
     <g id="text_4">
      <!-- Mar -->
      <g style="fill: #24292f" transform="translate(546.651271 469.83625) scale(0.1 -0.1)">
       <defs>
        <path id="DejaVuSans-4d" d="M 628 4666 
L 1569 4666 
L 2759 1491 
L 3956 4666 
L 4897 4666 
L 4897 0 
L 4281 0 
L 4281 4097 
L 3078 897 
L 2444 897 
L 1241 4097 
L 1241 0 
L 628 0 
L 628 4666 
z
" transform="scale(0.015625)"/>
        <path id="DejaVuSans-61" d="M 2194 1759 
Q 1497 1759 1228 1600 
Q 959 1441 959 1056 
Q 959 750 1161 570 
Q 1363 391 1709 391 
Q 2188 391 2477 730 
Q 2766 1069 2766 1631 
L 2766 1759 
L 2194 1759 
z
M 3341 1997 
L 3341 0 
L 2766 0 
L 2766 531 
Q 2569 213 2275 61 
Q 1981 -91 1556 -91 
Q 1019 -91 701 211 
Q 384 513 384 1019 
Q 384 1609 779 1909 
Q 1175 2209 1959 2209 
L 2766 2209 
L 2766 2266 
Q 2766 2663 2505 2880 
Q 2244 3097 1772 3097 
Q 1472 3097 1187 3025 
Q 903 2953 641 2809 
L 641 3341 
Q 956 3463 1253 3523 
Q 1550 3584 1831 3584 
Q 2591 3584 2966 3190 
Q 3341 2797 3341 1997 
z
" transform="scale(0.015625)"/>
        <path id="DejaVuSans-72" d="M 2631 2963 
Q 2534 3019 2420 3045 
Q 2306 3072 2169 3072 
Q 1681 3072 1420 2755 
Q 1159 2438 1159 1844 
L 1159 0 
L 581 0 
L 581 3500 
L 1159 3500 
L 1159 2956 
Q 1341 3275 1631 3429 
Q 1922 3584 2338 3584 
Q 2397 3584 2469 3576 
Q 2541 3569 2628 3553 
L 2631 2963 
z
" transform="scale(0.015625)"/>
       </defs>
       <use xlink:href="#DejaVuSans-4d"/>
       <use xlink:href="#DejaVuSans-61" transform="translate(86.279297 0)"/>
       <use xlink:href="#DejaVuSans-72" transform="translate(147.558594 0)"/>
      </g>
     </g>
    </g>
    <g id="xtick_5">
     <g id="line2d_9">
      <path d="M 714.511547 455.237812 
L 714.511547 38.397812 
" clip-path="url(#pa7430f9c8f)" style="fill: none; stroke: #d0d7de; stroke-opacity: 0.25; stroke-width: 0.5; stroke-linecap: square"/>
     </g>
     <g id="line2d_10">
      <g>
       <use xlink:href="#m0febb64654" x="714.511547" y="455.237812" style="fill: #24292f; stroke: #24292f; stroke-width: 0.8"/>
      </g>
     </g>
     <g id="text_5">
      <!-- May -->
      <g style="fill: #24292f" transform="translate(704.174047 469.83625) scale(0.1 -0.1)">
       <defs>
        <path id="DejaVuSans-79" d="M 2059 -325 
Q 1816 -950 1584 -1140 
Q 1353 -1331 966 -1331 
L 506 -1331 
L 506 -850 
L 844 -850 
Q 1081 -850 1212 -737 
Q 1344 -625 1503 -206 
L 1606 56 
L 191 3500 
L 800 3500 
L 1894 763 
L 2988 3500 
L 3597 3500 
L 2059 -325 
z
" transform="scale(0.015625)"/>
       </defs>
       <use xlink:href="#DejaVuSans-4d"/>
       <use xlink:href="#DejaVuSans-61" transform="translate(86.279297 0)"/>
       <use xlink:href="#DejaVuSans-79" transform="translate(147.558594 0)"/>
      </g>
     </g>
    </g>
    <g id="text_6">
     <!-- Date -->
     <g style="fill: #24292f" transform="translate(434.285313 485.034062) scale(0.12 -0.12)">
      <defs>
       <path id="DejaVuSans-44" d="M 1259 4147 
L 1259 519 
L 2022 519 
Q 2988 519 3436 956 
Q 3884 1394 3884 2338 
Q 3884 3275 3436 3711 
Q 2988 4147 2022 4147 
L 1259 4147 
z
M 628 4666 
L 1925 4666 
Q 3281 4666 3915 4102 
Q 4550 3538 4550 2338 
Q 4550 1131 3912 565 
Q 3275 0 1925 0 
L 628 0 
L 628 4666 
z
" transform="scale(0.015625)"/>
       <path id="DejaVuSans-74" d="M 1172 4494 
L 1172 3500 
L 2356 3500 
L 2356 3053 
L 1172 3053 
L 1172 1153 
Q 1172 725 1289 603 
Q 1406 481 1766 481 
L 2356 481 
L 2356 0 
L 1766 0 
Q 1100 0 847 248 
Q 594 497 594 1153 
L 594 3053 
L 172 3053 
L 172 3500 
L 594 3500 
L 594 4494 
L 1172 4494 
z
" transform="scale(0.015625)"/>
      </defs>
      <use xlink:href="#DejaVuSans-44"/>
      <use xlink:href="#DejaVuSans-61" transform="translate(77.001953 0)"/>
      <use xlink:href="#DejaVuSans-74" transform="translate(138.28125 0)"/>
      <use xlink:href="#DejaVuSans-65" transform="translate(177.490234 0)"/>
     </g>
    </g>
   </g>
   <g id="matplotlib.axis_2">
    <g id="ytick_1">
     <g id="line2d_11">
      <path d="M 48.90125 455.237812 
L 848.35125 455.237812 
" clip-path="url(#pa7430f9c8f)" style="fill: none; stroke: #d0d7de; stroke-opacity: 0.25; stroke-width: 0.5; stroke-linecap: square"/>
     </g>
     <g id="line2d_12">
      <defs>
       <path id="m94f56e6fd3" d="M 0 0 
L -3.5 0 
" style="stroke: #24292f; stroke-width: 0.8"/>
      </defs>
      <g>
       <use xlink:href="#m94f56e6fd3" x="48.90125" y="455.237812" style="fill: #24292f; stroke: #24292f; stroke-width: 0.8"/>
      </g>
     </g>
     <g id="text_7">
      <!-- 0 -->
      <g style="fill: #24292f" transform="translate(35.53875 459.037031) scale(0.1 -0.1)">
       <use xlink:href="#DejaVuSans-30"/>
      </g>
     </g>
    </g>
    <g id="ytick_2">
     <g id="line2d_13">
      <path d="M 48.90125 399.659146 
L 848.35125 399.659146 
" clip-path="url(#pa7430f9c8f)" style="fill: none; stroke: #d0d7de; stroke-opacity: 0.25; stroke-width: 0.5; stroke-linecap: square"/>
     </g>
     <g id="line2d_14">
      <g>
       <use xlink:href="#m94f56e6fd3" x="48.90125" y="399.659146" style="fill: #24292f; stroke: #24292f; stroke-width: 0.8"/>
      </g>
     </g>
     <g id="text_8">
      <!-- 100 -->
      <g style="fill: #24292f" transform="translate(22.81375 403.458365) scale(0.1 -0.1)">
       <defs>
        <path id="DejaVuSans-31" d="M 794 531 
L 1825 531 
L 1825 4091 
L 703 3866 
L 703 4441 
L 1819 4666 
L 2450 4666 
L 2450 531 
L 3481 531 
L 3481 0 
L 794 0 
L 794 531 
z
" transform="scale(0.015625)"/>
       </defs>
       <use xlink:href="#DejaVuSans-31"/>
       <use xlink:href="#DejaVuSans-30" transform="translate(63.623047 0)"/>
       <use xlink:href="#DejaVuSans-30" transform="translate(127.246094 0)"/>
      </g>
     </g>
    </g>
    <g id="ytick_3">
     <g id="line2d_15">
      <path d="M 48.90125 344.080479 
L 848.35125 344.080479 
" clip-path="url(#pa7430f9c8f)" style="fill: none; stroke: #d0d7de; stroke-opacity: 0.25; stroke-width: 0.5; stroke-linecap: square"/>
     </g>
     <g id="line2d_16">
      <g>
       <use xlink:href="#m94f56e6fd3" x="48.90125" y="344.080479" style="fill: #24292f; stroke: #24292f; stroke-width: 0.8"/>
      </g>
     </g>
     <g id="text_9">
      <!-- 200 -->
      <g style="fill: #24292f" transform="translate(22.81375 347.879698) scale(0.1 -0.1)">
       <use xlink:href="#DejaVuSans-32"/>
       <use xlink:href="#DejaVuSans-30" transform="translate(63.623047 0)"/>
       <use xlink:href="#DejaVuSans-30" transform="translate(127.246094 0)"/>
      </g>
     </g>
    </g>
    <g id="ytick_4">
     <g id="line2d_17">
      <path d="M 48.90125 288.501812 
L 848.35125 288.501812 
" clip-path="url(#pa7430f9c8f)" style="fill: none; stroke: #d0d7de; stroke-opacity: 0.25; stroke-width: 0.5; stroke-linecap: square"/>
     </g>
     <g id="line2d_18">
      <g>
       <use xlink:href="#m94f56e6fd3" x="48.90125" y="288.501812" style="fill: #24292f; stroke: #24292f; stroke-width: 0.8"/>
      </g>
     </g>
     <g id="text_10">
      <!-- 300 -->
      <g style="fill: #24292f" transform="translate(22.81375 292.301031) scale(0.1 -0.1)">
       <defs>
        <path id="DejaVuSans-33" d="M 2597 2516 
Q 3050 2419 3304 2112 
Q 3559 1806 3559 1356 
Q 3559 666 3084 287 
Q 2609 -91 1734 -91 
Q 1441 -91 1130 -33 
Q 819 25 488 141 
L 488 750 
Q 750 597 1062 519 
Q 1375 441 1716 441 
Q 2309 441 2620 675 
Q 2931 909 2931 1356 
Q 2931 1769 2642 2001 
Q 2353 2234 1838 2234 
L 1294 2234 
L 1294 2753 
L 1863 2753 
Q 2328 2753 2575 2939 
Q 2822 3125 2822 3475 
Q 2822 3834 2567 4026 
Q 2313 4219 1838 4219 
Q 1578 4219 1281 4162 
Q 984 4106 628 3988 
L 628 4550 
Q 988 4650 1302 4700 
Q 1616 4750 1894 4750 
Q 2613 4750 3031 4423 
Q 3450 4097 3450 3541 
Q 3450 3153 3228 2886 
Q 3006 2619 2597 2516 
z
" transform="scale(0.015625)"/>
       </defs>
       <use xlink:href="#DejaVuSans-33"/>
       <use xlink:href="#DejaVuSans-30" transform="translate(63.623047 0)"/>
       <use xlink:href="#DejaVuSans-30" transform="translate(127.246094 0)"/>
      </g>
     </g>
    </g>
    <g id="ytick_5">
     <g id="line2d_19">
      <path d="M 48.90125 232.923146 
L 848.35125 232.923146 
" clip-path="url(#pa7430f9c8f)" style="fill: none; stroke: #d0d7de; stroke-opacity: 0.25; stroke-width: 0.5; stroke-linecap: square"/>
     </g>
     <g id="line2d_20">
      <g>
       <use xlink:href="#m94f56e6fd3" x="48.90125" y="232.923146" style="fill: #24292f; stroke: #24292f; stroke-width: 0.8"/>
      </g>
     </g>
     <g id="text_11">
      <!-- 400 -->
      <g style="fill: #24292f" transform="translate(22.81375 236.722365) scale(0.1 -0.1)">
       <defs>
        <path id="DejaVuSans-34" d="M 2419 4116 
L 825 1625 
L 2419 1625 
L 2419 4116 
z
M 2253 4666 
L 3047 4666 
L 3047 1625 
L 3713 1625 
L 3713 1100 
L 3047 1100 
L 3047 0 
L 2419 0 
L 2419 1100 
L 313 1100 
L 313 1709 
L 2253 4666 
z
" transform="scale(0.015625)"/>
       </defs>
       <use xlink:href="#DejaVuSans-34"/>
       <use xlink:href="#DejaVuSans-30" transform="translate(63.623047 0)"/>
       <use xlink:href="#DejaVuSans-30" transform="translate(127.246094 0)"/>
      </g>
     </g>
    </g>
    <g id="ytick_6">
     <g id="line2d_21">
      <path d="M 48.90125 177.344479 
L 848.35125 177.344479 
" clip-path="url(#pa7430f9c8f)" style="fill: none; stroke: #d0d7de; stroke-opacity: 0.25; stroke-width: 0.5; stroke-linecap: square"/>
     </g>
     <g id="line2d_22">
      <g>
       <use xlink:href="#m94f56e6fd3" x="48.90125" y="177.344479" style="fill: #24292f; stroke: #24292f; stroke-width: 0.8"/>
      </g>
     </g>
     <g id="text_12">
      <!-- 500 -->
      <g style="fill: #24292f" transform="translate(22.81375 181.143698) scale(0.1 -0.1)">
       <defs>
        <path id="DejaVuSans-35" d="M 691 4666 
L 3169 4666 
L 3169 4134 
L 1269 4134 
L 1269 2991 
Q 1406 3038 1543 3061 
Q 1681 3084 1819 3084 
Q 2600 3084 3056 2656 
Q 3513 2228 3513 1497 
Q 3513 744 3044 326 
Q 2575 -91 1722 -91 
Q 1428 -91 1123 -41 
Q 819 9 494 109 
L 494 744 
Q 775 591 1075 516 
Q 1375 441 1709 441 
Q 2250 441 2565 725 
Q 2881 1009 2881 1497 
Q 2881 1984 2565 2268 
Q 2250 2553 1709 2553 
Q 1456 2553 1204 2497 
Q 953 2441 691 2322 
L 691 4666 
z
" transform="scale(0.015625)"/>
       </defs>
       <use xlink:href="#DejaVuSans-35"/>
       <use xlink:href="#DejaVuSans-30" transform="translate(63.623047 0)"/>
       <use xlink:href="#DejaVuSans-30" transform="translate(127.246094 0)"/>
      </g>
     </g>
    </g>
    <g id="ytick_7">
     <g id="line2d_23">
      <path d="M 48.90125 121.765812 
L 848.35125 121.765812 
" clip-path="url(#pa7430f9c8f)" style="fill: none; stroke: #d0d7de; stroke-opacity: 0.25; stroke-width: 0.5; stroke-linecap: square"/>
     </g>
     <g id="line2d_24">
      <g>
       <use xlink:href="#m94f56e6fd3" x="48.90125" y="121.765812" style="fill: #24292f; stroke: #24292f; stroke-width: 0.8"/>
      </g>
     </g>
     <g id="text_13">
      <!-- 600 -->
      <g style="fill: #24292f" transform="translate(22.81375 125.565031) scale(0.1 -0.1)">
       <use xlink:href="#DejaVuSans-36"/>
       <use xlink:href="#DejaVuSans-30" transform="translate(63.623047 0)"/>
       <use xlink:href="#DejaVuSans-30" transform="translate(127.246094 0)"/>
      </g>
     </g>
    </g>
    <g id="ytick_8">
     <g id="line2d_25">
      <path d="M 48.90125 66.187146 
L 848.35125 66.187146 
" clip-path="url(#pa7430f9c8f)" style="fill: none; stroke: #d0d7de; stroke-opacity: 0.25; stroke-width: 0.5; stroke-linecap: square"/>
     </g>
     <g id="line2d_26">
      <g>
       <use xlink:href="#m94f56e6fd3" x="48.90125" y="66.187146" style="fill: #24292f; stroke: #24292f; stroke-width: 0.8"/>
      </g>
     </g>
     <g id="text_14">
      <!-- 700 -->
      <g style="fill: #24292f" transform="translate(22.81375 69.986365) scale(0.1 -0.1)">
       <defs>
        <path id="DejaVuSans-37" d="M 525 4666 
L 3525 4666 
L 3525 4397 
L 1831 0 
L 1172 0 
L 2766 4134 
L 525 4134 
L 525 4666 
z
" transform="scale(0.015625)"/>
       </defs>
       <use xlink:href="#DejaVuSans-37"/>
       <use xlink:href="#DejaVuSans-30" transform="translate(63.623047 0)"/>
       <use xlink:href="#DejaVuSans-30" transform="translate(127.246094 0)"/>
      </g>
     </g>
    </g>
    <g id="text_15">
     <!-- Count -->
     <g style="fill: #24292f" transform="translate(16.318125 264.635937) rotate(-90) scale(0.12 -0.12)">
      <defs>
       <path id="DejaVuSans-43" d="M 4122 4306 
L 4122 3641 
Q 3803 3938 3442 4084 
Q 3081 4231 2675 4231 
Q 1875 4231 1450 3742 
Q 1025 3253 1025 2328 
Q 1025 1406 1450 917 
Q 1875 428 2675 428 
Q 3081 428 3442 575 
Q 3803 722 4122 1019 
L 4122 359 
Q 3791 134 3420 21 
Q 3050 -91 2638 -91 
Q 1578 -91 968 557 
Q 359 1206 359 2328 
Q 359 3453 968 4101 
Q 1578 4750 2638 4750 
Q 3056 4750 3426 4639 
Q 3797 4528 4122 4306 
z
" transform="scale(0.015625)"/>
       <path id="DejaVuSans-75" d="M 544 1381 
L 544 3500 
L 1119 3500 
L 1119 1403 
Q 1119 906 1312 657 
Q 1506 409 1894 409 
Q 2359 409 2629 706 
Q 2900 1003 2900 1516 
L 2900 3500 
L 3475 3500 
L 3475 0 
L 2900 0 
L 2900 538 
Q 2691 219 2414 64 
Q 2138 -91 1772 -91 
Q 1169 -91 856 284 
Q 544 659 544 1381 
z
M 1991 3584 
L 1991 3584 
z
" transform="scale(0.015625)"/>
       <path id="DejaVuSans-6e" d="M 3513 2113 
L 3513 0 
L 2938 0 
L 2938 2094 
Q 2938 2591 2744 2837 
Q 2550 3084 2163 3084 
Q 1697 3084 1428 2787 
Q 1159 2491 1159 1978 
L 1159 0 
L 581 0 
L 581 3500 
L 1159 3500 
L 1159 2956 
Q 1366 3272 1645 3428 
Q 1925 3584 2291 3584 
Q 2894 3584 3203 3211 
Q 3513 2838 3513 2113 
z
" transform="scale(0.015625)"/>
      </defs>
      <use xlink:href="#DejaVuSans-43"/>
      <use xlink:href="#DejaVuSans-6f" transform="translate(69.824219 0)"/>
      <use xlink:href="#DejaVuSans-75" transform="translate(131.005859 0)"/>
      <use xlink:href="#DejaVuSans-6e" transform="translate(194.384766 0)"/>
      <use xlink:href="#DejaVuSans-74" transform="translate(257.763672 0)"/>
     </g>
    </g>
   </g>
   <g id="line2d_27">
    <path d="M 85.239886 454.682026 
L 85.289635 454.682026 
L 85.409664 454.126239 
L 85.477298 454.126239 
L 85.643618 257.933546 
L 87.735804 257.933546 
L 87.745363 261.268266 
L 90.276511 261.268266 
L 90.440396 260.712479 
L 90.750402 260.712479 
L 91.035188 260.156692 
L 92.799843 259.600906 
L 92.834682 260.156692 
L 92.898889 259.600906 
L 98.383884 259.600906 
L 101.680593 260.712479 
L 102.171107 259.600906 
L 102.529268 259.600906 
L 103.431961 259.045119 
L 103.809631 256.821972 
L 104.545012 256.821972 
L 105.616641 260.712479 
L 105.686169 256.821972 
L 106.508482 256.266186 
L 108.648583 256.266186 
L 109.213074 255.710399 
L 110.05156 255.710399 
L 110.326756 254.598826 
L 115.502617 254.598826 
L 115.883804 253.487252 
L 115.903343 252.375679 
L 117.549082 252.375679 
L 119.975802 251.264106 
L 121.248801 251.264106 
L 121.268069 250.708319 
L 124.191556 250.708319 
L 124.916776 247.929386 
L 127.211925 247.929386 
L 127.227857 247.373599 
L 140.081839 247.373599 
L 142.484571 246.817812 
L 142.566604 247.373599 
L 145.058554 246.817812 
L 153.730329 246.817812 
L 157.933427 246.262026 
L 158.014619 245.706239 
L 158.214275 245.150452 
L 160.585385 245.150452 
L 161.594549 244.594666 
L 165.756226 244.594666 
L 165.91422 247.373599 
L 165.921975 245.150452 
L 166.124307 245.150452 
L 167.250193 242.927306 
L 172.048173 242.927306 
L 175.818232 242.371519 
L 180.008405 242.371519 
L 180.19228 241.815732 
L 191.080417 241.815732 
L 191.54511 241.259946 
L 194.188892 241.259946 
L 194.207529 240.148372 
L 199.244874 240.148372 
L 199.347047 236.257866 
L 208.464367 236.257866 
L 208.467102 235.702079 
L 208.731147 235.702079 
L 209.880269 235.146292 
L 211.048059 235.146292 
L 211.419477 234.590506 
L 211.45663 235.146292 
L 212.30714 234.590506 
L 212.311018 234.034719 
L 212.330887 234.590506 
L 212.822183 234.034719 
L 217.297562 234.034719 
L 218.688996 233.478932 
L 220.340056 233.478932 
L 223.144356 232.923146 
L 225.799139 232.923146 
L 227.850233 231.811572 
L 232.338929 231.811572 
L 234.950035 230.699999 
L 235.685717 231.255786 
L 239.330126 231.255786 
L 243.441181 229.032639 
L 249.57231 229.032639 
L 251.473796 228.476852 
L 285.360556 228.476852 
L 285.634219 227.921066 
L 297.991945 227.921066 
L 298.198426 227.365279 
L 319.226303 227.365279 
L 323.85658 226.809492 
L 323.883363 227.365279 
L 327.197957 225.697919 
L 332.062309 225.697919 
L 334.718415 225.142132 
L 334.722774 224.586346 
L 340.264762 224.586346 
L 342.253843 225.142132 
L 342.968873 224.586346 
L 352.243675 224.586346 
L 352.638389 225.142132 
L 353.361446 224.586346 
L 353.609919 222.363199 
L 357.860272 222.363199 
L 357.863939 221.807412 
L 370.869933 221.807412 
L 371.627317 221.251626 
L 374.126842 221.251626 
L 374.370686 220.695839 
L 386.559206 220.695839 
L 386.575769 220.140052 
L 389.624305 220.140052 
L 389.628844 219.584266 
L 390.368583 219.584266 
L 390.40721 219.028479 
L 391.555941 219.028479 
L 391.73642 218.472692 
L 394.195063 218.472692 
L 394.568796 217.361119 
L 395.922294 215.137972 
L 399.195285 215.137972 
L 399.436935 212.359039 
L 400.534445 212.359039 
L 401.073085 211.247466 
L 403.848678 211.247466 
L 404.759427 210.691679 
L 407.366446 210.691679 
L 407.71586 210.135892 
L 414.796755 210.135892 
L 414.971221 209.580106 
L 415.626132 209.580106 
L 416.642902 209.024319 
L 428.09577 209.024319 
L 428.198665 208.468532 
L 428.565874 208.468532 
L 429.332457 207.356959 
L 430.407212 207.356959 
L 430.665635 206.801172 
L 430.914619 206.801172 
L 431.009097 206.245386 
L 433.883286 206.245386 
L 434.372598 205.689599 
L 436.874347 205.689599 
L 437.034746 205.133812 
L 438.405108 205.133812 
L 438.492912 204.578026 
L 442.751681 204.578026 
L 442.843243 204.022239 
L 445.327017 204.022239 
L 446.156605 201.799092 
L 447.076371 201.799092 
L 447.077333 201.243306 
L 450.811951 201.243306 
L 451.496621 200.687519 
L 454.356171 200.687519 
L 454.9194 200.131732 
L 455.131261 200.131732 
L 455.681594 199.575946 
L 457.087366 199.575946 
L 457.249839 199.020159 
L 460.775512 199.020159 
L 461.684307 198.464372 
L 461.750499 197.908586 
L 462.044723 197.908586 
L 462.973388 195.685439 
L 465.853438 195.685439 
L 465.87418 195.129652 
L 468.615144 195.129652 
L 468.876333 194.573866 
L 469.187932 194.573866 
L 469.501364 194.018079 
L 469.566744 194.573866 
L 469.80145 194.018079 
L 470.844222 194.018079 
L 470.854201 193.462292 
L 471.131111 193.462292 
L 471.252372 192.906506 
L 472.090257 192.350719 
L 477.919916 192.350719 
L 478.831086 191.794932 
L 479.441027 191.794932 
L 479.93587 191.239146 
L 480.436455 191.794932 
L 482.497559 191.794932 
L 482.586445 190.683359 
L 485.545312 190.683359 
L 486.693353 189.015999 
L 499.154514 189.015999 
L 499.878743 188.460212 
L 519.113228 188.460212 
L 519.231393 187.904426 
L 547.494462 187.904426 
L 547.618969 187.348639 
L 547.627897 186.792852 
L 547.636764 187.348639 
L 551.756057 187.348639 
L 552.686134 186.792852 
L 568.914739 186.792852 
L 572.254222 186.237066 
L 572.286686 185.681279 
L 572.563146 185.681279 
L 573.429106 185.125492 
L 599.47494 185.125492 
L 599.727743 184.569706 
L 622.889529 184.569706 
L 625.862494 184.013919 
L 627.681016 184.013919 
L 627.878358 183.458132 
L 629.142309 182.902346 
L 632.686859 182.902346 
L 634.179684 182.346559 
L 635.741767 182.346559 
L 635.863419 181.790772 
L 638.432742 181.790772 
L 638.739652 181.234986 
L 638.800403 180.679199 
L 643.374859 180.679199 
L 643.392594 180.123412 
L 647.287521 180.123412 
L 647.296118 179.567626 
L 648.615799 179.011839 
L 650.958592 179.011839 
L 652.644521 178.456052 
L 654.153308 178.456052 
L 656.377065 175.121332 
L 658.973262 175.121332 
L 658.985286 172.342399 
L 672.039044 172.342399 
L 672.040397 171.786612 
L 672.266176 171.230826 
L 673.516479 171.230826 
L 673.788429 170.675039 
L 677.889505 170.675039 
L 678.837558 170.119252 
L 678.993538 170.675039 
L 686.328768 170.675039 
L 686.330421 170.119252 
L 689.292054 170.119252 
L 690.503611 167.340319 
L 697.931034 167.340319 
L 698.010361 166.228746 
L 699.689677 164.561386 
L 701.374704 164.561386 
L 701.55419 164.005599 
L 708.63758 164.005599 
L 708.767829 163.449812 
L 715.880346 163.449812 
L 716.035274 162.894026 
L 717.995528 161.226666 
L 718.147419 160.670879 
L 737.457986 160.670879 
L 739.286247 157.891946 
L 743.648693 157.891946 
L 743.932847 157.336159 
L 747.210317 157.336159 
L 748.4302 156.224586 
L 765.705183 156.224586 
L 765.924198 155.668799 
L 768.453061 155.668799 
L 768.723959 155.113012 
L 785.382959 155.113012 
L 785.391496 153.445652 
L 785.908914 153.445652 
L 785.996388 152.889866 
L 788.966167 152.889866 
L 789.384237 152.334079 
L 789.386732 152.889866 
L 796.911759 152.889866 
L 798.727095 152.334079 
L 812.012614 152.334079 
L 812.012614 152.334079 
" clip-path="url(#pa7430f9c8f)" style="fill: none; stroke: #1a7f37; stroke-width: 2; stroke-linecap: square"/>
   </g>
   <g id="line2d_28">
    <path d="M 85.239886 455.237812 
L 85.321198 453.570452 
L 85.409664 453.570452 
L 85.547908 372.981386 
L 86.703704 372.981386 
L 86.728924 370.758239 
L 87.993145 370.758239 
L 88.318872 369.090879 
L 88.762072 370.758239 
L 88.765349 369.090879 
L 89.132077 369.090879 
L 89.273809 367.979306 
L 92.895433 367.979306 
L 92.898889 367.423519 
L 92.91927 367.979306 
L 93.097524 367.423519 
L 93.149798 367.979306 
L 93.391989 367.423519 
L 94.560109 367.423519 
L 94.626601 366.867732 
L 94.807711 366.311946 
L 96.242611 366.311946 
L 97.875514 365.756159 
L 97.932989 365.200372 
L 98.374325 364.644586 
L 98.383884 364.088799 
L 101.680593 367.979306 
L 102.171107 366.311946 
L 102.529268 363.533012 
L 104.545012 363.533012 
L 105.616641 367.979306 
L 105.686169 363.533012 
L 125.268295 363.533012 
L 125.869188 362.977226 
L 127.227857 362.977226 
L 130.938608 362.421439 
L 131.842503 361.865652 
L 144.721585 361.865652 
L 145.058554 361.309866 
L 146.789813 360.754079 
L 147.890179 360.754079 
L 149.109881 360.198292 
L 149.142736 359.086719 
L 149.981162 358.530932 
L 150.544661 357.975146 
L 158.307581 357.975146 
L 159.855054 357.419359 
L 160.322874 357.419359 
L 160.585385 356.863572 
L 161.594549 356.863572 
L 162.597131 356.307786 
L 165.756226 356.307786 
L 165.91422 358.530932 
L 165.921975 356.307786 
L 167.129023 356.307786 
L 167.250193 355.751999 
L 168.958727 355.751999 
L 170.639696 355.196212 
L 170.680487 354.640426 
L 175.818232 354.640426 
L 177.985266 354.084639 
L 177.990737 353.528852 
L 185.201941 353.528852 
L 188.210016 352.973066 
L 190.466838 352.973066 
L 191.080417 352.417279 
L 194.52529 352.417279 
L 196.490112 351.861492 
L 196.597816 351.305706 
L 198.513431 351.305706 
L 198.735753 350.749919 
L 199.347047 350.194132 
L 200.711668 350.194132 
L 201.573239 349.638346 
L 203.152907 349.638346 
L 204.183895 349.082559 
L 206.383303 349.082559 
L 207.132602 347.970986 
L 212.822183 347.970986 
L 214.442521 347.415199 
L 216.342535 347.415199 
L 216.771006 346.859412 
L 216.902037 346.303626 
L 217.297562 345.747839 
L 223.840478 345.747839 
L 225.038418 345.192052 
L 225.799139 344.636266 
L 244.404685 344.636266 
L 248.581181 344.080479 
L 248.63108 343.524692 
L 251.473796 343.524692 
L 253.903523 342.968906 
L 258.198033 342.968906 
L 258.560914 342.413119 
L 265.874651 342.413119 
L 271.599883 341.857332 
L 271.654832 341.301546 
L 272.403319 341.301546 
L 273.919801 340.745759 
L 274.004389 339.078399 
L 274.071121 338.522612 
L 277.238783 337.966826 
L 277.42846 337.411039 
L 277.50406 336.299466 
L 277.79095 335.743679 
L 288.098845 335.743679 
L 291.027141 335.187892 
L 292.891204 334.632106 
L 294.351504 334.632106 
L 297.73734 334.076319 
L 297.991945 331.853172 
L 298.198426 331.853172 
L 298.685242 330.741599 
L 305.107469 330.185812 
L 305.311875 329.630026 
L 305.372175 329.074239 
L 306.72898 329.074239 
L 308.010215 328.518452 
L 308.157477 327.962666 
L 308.257486 326.851092 
L 309.10556 326.295306 
L 309.167814 325.739519 
L 310.715167 325.183732 
L 312.749128 324.627946 
L 312.893775 324.072159 
L 312.896841 323.516372 
L 313.305954 322.960586 
L 313.378217 322.404799 
L 316.328668 321.849012 
L 316.857598 321.293226 
L 329.27848 321.293226 
L 331.338291 320.737439 
L 331.525743 320.181652 
L 339.944025 320.181652 
L 340.264762 319.070079 
L 343.772219 319.070079 
L 344.831162 318.514292 
L 344.882895 317.402719 
L 345.154815 316.846932 
L 346.955361 316.291146 
L 346.995912 315.735359 
L 347.213244 315.179572 
L 347.435956 312.956426 
L 347.684039 312.956426 
L 347.693177 312.400639 
L 349.196313 311.844852 
L 349.787256 311.289066 
L 349.93025 310.733279 
L 352.638389 310.177492 
L 354.634174 310.177492 
L 355.3272 309.621706 
L 362.830855 309.621706 
L 365.316763 309.065919 
L 365.326652 308.510132 
L 365.77373 307.954346 
L 371.627317 307.954346 
L 373.269719 307.398559 
L 373.946303 306.842772 
L 374.126842 305.731199 
L 378.861787 305.731199 
L 379.184388 305.175412 
L 381.784492 305.175412 
L 383.029295 304.619626 
L 386.575769 304.619626 
L 388.719778 304.063839 
L 393.172192 304.063839 
L 393.719429 303.508052 
L 395.922294 303.508052 
L 396.521895 302.952266 
L 396.782002 302.396479 
L 396.910116 301.840692 
L 398.723408 301.840692 
L 398.77496 300.729119 
L 399.436935 300.729119 
L 399.871569 299.061759 
L 401.448892 299.061759 
L 401.644791 298.505972 
L 401.796863 298.505972 
L 402.551842 297.950186 
L 403.804701 297.950186 
L 403.848678 297.394399 
L 404.759427 297.394399 
L 404.980637 296.838612 
L 405.836647 296.838612 
L 407.14728 295.727039 
L 407.71586 295.727039 
L 409.914878 294.615466 
L 409.918184 294.059679 
L 410.338028 293.503892 
L 411.409236 292.948106 
L 411.575797 292.392319 
L 412.643818 291.836532 
L 414.389686 291.836532 
L 414.971221 290.724959 
L 417.10047 290.724959 
L 417.16092 290.169172 
L 417.767525 290.169172 
L 417.814088 289.613386 
L 418.146969 289.057599 
L 419.30523 289.057599 
L 419.393335 288.501812 
L 419.591759 288.501812 
L 419.711517 287.946026 
L 419.721046 287.946026 
L 419.815734 287.390239 
L 421.352506 287.390239 
L 421.675047 286.834452 
L 421.945885 286.834452 
L 422.107756 286.278666 
L 422.521137 286.278666 
L 422.830632 285.722879 
L 422.895892 285.167092 
L 422.984358 285.167092 
L 424.540158 284.611306 
L 425.7044 284.611306 
L 425.792535 284.055519 
L 430.385178 284.055519 
L 430.407212 283.499732 
L 430.665635 283.499732 
L 431.273743 282.388159 
L 432.824854 282.388159 
L 432.968689 280.720799 
L 433.010653 279.609226 
L 433.281761 279.053439 
L 434.372598 279.053439 
L 434.88707 278.497652 
L 435.38573 278.497652 
L 435.54652 277.941866 
L 436.319505 277.386079 
L 437.034746 277.386079 
L 438.472652 276.830292 
L 438.568302 276.274506 
L 438.932325 276.274506 
L 439.00516 275.718719 
L 440.283389 275.718719 
L 440.318889 275.162932 
L 446.517832 275.162932 
L 446.63239 274.607146 
L 446.798019 274.607146 
L 446.879781 273.495572 
L 447.677986 273.495572 
L 447.847854 272.939786 
L 448.400712 272.383999 
L 448.539678 271.828212 
L 448.793592 271.828212 
L 449.008459 271.272426 
L 449.078498 270.716639 
L 452.193315 270.716639 
L 452.979527 270.160852 
L 453.134815 269.049279 
L 453.326175 268.493492 
L 453.64562 268.493492 
L 453.840317 267.937706 
L 458.310436 267.937706 
L 458.605532 266.270346 
L 459.216315 266.270346 
L 459.305983 265.714559 
L 461.692694 265.714559 
L 461.750499 264.602986 
L 464.617053 264.602986 
L 464.646751 264.047199 
L 466.027634 264.047199 
L 466.036923 263.491412 
L 466.709358 263.491412 
L 466.82088 262.935626 
L 468.77452 262.935626 
L 468.876333 262.379839 
L 469.00604 262.379839 
L 469.187932 261.824052 
L 469.557155 261.824052 
L 469.566744 261.268266 
L 469.80145 261.268266 
L 470.24919 260.712479 
L 473.865613 260.712479 
L 474.128455 260.156692 
L 475.201496 260.156692 
L 475.20348 259.600906 
L 483.407556 259.600906 
L 484.800012 259.045119 
L 484.840382 258.489332 
L 485.545312 257.933546 
L 486.617211 257.933546 
L 486.693353 256.821972 
L 486.887238 256.821972 
L 486.967948 256.266186 
L 489.814723 256.266186 
L 490.328804 255.710399 
L 495.252975 255.710399 
L 495.268125 255.154612 
L 496.876409 255.154612 
L 497.563724 254.598826 
L 505.13348 254.598826 
L 505.227958 253.487252 
L 508.205011 253.487252 
L 508.797157 252.931466 
L 509.431267 252.931466 
L 510.206447 252.375679 
L 515.330394 252.375679 
L 515.821059 251.819892 
L 516.246223 251.819892 
L 516.454687 251.264106 
L 518.08699 250.708319 
L 518.886037 250.708319 
L 519.231393 250.152532 
L 521.524618 249.596746 
L 525.746895 249.596746 
L 526.077311 249.040959 
L 542.374151 249.040959 
L 542.969604 248.485172 
L 546.73828 248.485172 
L 546.87448 247.929386 
L 547.119287 247.929386 
L 547.193083 247.373599 
L 568.239538 247.373599 
L 568.914739 246.817812 
L 573.93991 246.817812 
L 575.031529 246.262026 
L 575.104694 245.706239 
L 577.719257 245.706239 
L 577.827743 245.150452 
L 586.296584 245.150452 
L 586.313929 244.594666 
L 593.463029 244.594666 
L 593.539982 244.038879 
L 594.004314 243.483092 
L 595.758659 243.483092 
L 595.762687 242.927306 
L 596.119195 242.371519 
L 598.753237 242.371519 
L 599.623465 241.815732 
L 605.240182 241.815732 
L 605.279741 240.704159 
L 640.882969 240.704159 
L 643.392594 240.148372 
L 646.550006 240.148372 
L 646.654914 239.592586 
L 660.653209 239.592586 
L 660.676715 239.036799 
L 675.295082 239.036799 
L 675.445771 238.481012 
L 676.315489 238.481012 
L 676.338154 237.925226 
L 676.534714 237.369439 
L 677.299343 236.257866 
L 677.411736 235.146292 
L 677.476695 234.034719 
L 677.672534 233.478932 
L 677.717834 232.923146 
L 677.889505 232.367359 
L 678.993538 232.367359 
L 679.130791 231.811572 
L 679.137254 231.255786 
L 679.551266 230.699999 
L 686.330421 230.699999 
L 687.061113 229.588426 
L 708.443635 229.588426 
L 708.579505 229.032639 
L 721.631069 229.032639 
L 721.940173 227.921066 
L 723.339783 227.921066 
L 723.527265 227.365279 
L 731.842772 227.365279 
L 732.050575 226.809492 
L 735.319087 226.809492 
L 736.192021 226.253706 
L 736.274114 225.697919 
L 741.178145 225.697919 
L 741.330909 224.586346 
L 741.963575 224.030559 
L 742.555361 224.030559 
L 743.648693 223.474772 
L 746.791736 223.474772 
L 746.839651 222.918986 
L 747.210317 222.363199 
L 749.774921 222.363199 
L 752.492589 221.807412 
L 765.924198 221.807412 
L 767.511832 221.251626 
L 768.099619 220.695839 
L 768.453061 219.584266 
L 770.343156 219.584266 
L 778.044242 218.472692 
L 779.976631 218.472692 
L 780.189513 217.361119 
L 780.450943 217.361119 
L 780.583566 216.805332 
L 791.406113 216.805332 
L 791.418798 216.249546 
L 809.50371 216.249546 
L 811.907465 215.693759 
L 812.012614 215.137972 
L 812.012614 215.137972 
" clip-path="url(#pa7430f9c8f)" style="fill: none; stroke: #0969da; stroke-width: 2; stroke-linecap: square"/>
   </g>
   <g id="line2d_29">
    <path d="M 85.239886 455.237812 
L 87.735804 455.237812 
L 87.745363 454.126239 
L 89.805896 454.126239 
L 90.276511 453.570452 
L 217.297562 453.570452 
L 218.688996 453.014666 
L 253.903523 453.014666 
L 254.880794 452.458879 
L 288.098845 452.458879 
L 291.027141 451.903092 
L 298.685242 451.903092 
L 305.372175 450.235732 
L 306.72898 449.124159 
L 309.167814 449.124159 
L 310.715167 448.568372 
L 312.896841 448.012586 
L 313.378217 448.012586 
L 316.328668 447.456799 
L 316.857598 446.901012 
L 319.226303 446.345226 
L 323.85658 445.789439 
L 323.883363 446.345226 
L 331.525743 446.345226 
L 332.062309 445.789439 
L 342.968873 445.789439 
L 343.772219 445.233652 
L 347.435956 445.233652 
L 347.693177 444.677866 
L 352.243675 444.677866 
L 352.638389 444.122079 
L 369.308451 444.122079 
L 370.869933 443.566292 
L 371.526196 443.566292 
L 371.627317 443.010506 
L 376.076424 443.010506 
L 376.080663 442.454719 
L 386.559206 442.454719 
L 386.575769 441.898932 
L 389.628844 441.898932 
L 390.40721 441.343146 
L 391.553927 440.787359 
L 391.555941 440.231572 
L 391.73642 440.231572 
L 393.172192 438.564212 
L 394.139393 438.564212 
L 394.195063 436.896852 
L 394.568796 436.896852 
L 395.922294 437.452639 
L 396.895688 437.452639 
L 396.910116 435.229492 
L 400.534445 435.229492 
L 401.073085 434.673706 
L 401.644791 434.673706 
L 401.796863 434.117919 
L 414.796755 434.117919 
L 414.971221 433.562132 
L 415.626132 433.562132 
L 416.642902 433.006346 
L 421.128742 433.006346 
L 421.352506 432.450559 
L 422.895892 432.450559 
L 422.984358 431.894772 
L 428.09577 431.894772 
L 428.198665 431.338986 
L 428.565874 431.338986 
L 428.938314 430.783199 
L 429.310393 430.783199 
L 429.332457 430.227412 
L 430.914619 430.227412 
L 431.009097 429.671626 
L 438.354157 429.671626 
L 438.47668 429.115839 
L 438.492912 429.115839 
L 438.568302 428.560052 
L 439.00516 428.560052 
L 439.920959 428.004266 
L 443.50134 428.004266 
L 443.504497 427.448479 
L 444.188626 427.448479 
L 444.214657 426.892692 
L 446.156605 426.892692 
L 446.613602 426.336906 
L 449.152445 426.336906 
L 449.903036 425.781119 
L 451.362766 425.781119 
L 451.378246 424.669546 
L 451.496621 424.669546 
L 451.645597 424.113759 
L 453.993832 424.113759 
L 454.356171 423.557972 
L 454.9194 423.557972 
L 455.131261 423.002186 
L 456.506012 423.002186 
L 456.697973 422.446399 
L 456.700438 421.890612 
L 457.087366 421.890612 
L 457.249839 421.334826 
L 472.058814 421.334826 
L 472.090257 420.223252 
L 474.128455 420.223252 
L 474.71507 419.667466 
L 475.20348 419.667466 
L 477.494661 419.111679 
L 477.919916 419.111679 
L 478.831086 418.555892 
L 479.441027 418.555892 
L 479.93587 418.000106 
L 480.436455 418.555892 
L 482.047925 418.555892 
L 482.486136 418.000106 
L 482.586445 416.888532 
L 483.402055 416.332746 
L 483.407556 415.221172 
L 486.967948 415.221172 
L 487.746585 414.665386 
L 487.825491 412.998026 
L 488.603737 412.442239 
L 489.034132 411.886452 
L 492.715184 411.886452 
L 492.871374 410.219092 
L 493.059127 410.219092 
L 493.198333 409.663306 
L 494.09796 409.107519 
L 495.514043 409.107519 
L 495.805773 408.551732 
L 495.872144 407.995946 
L 496.021 407.995946 
L 496.876409 406.884372 
L 497.7929 406.884372 
L 498.093827 406.328586 
L 499.151027 406.328586 
L 499.154514 405.217012 
L 499.878743 405.217012 
L 500.840202 404.661226 
L 503.387432 403.549652 
L 503.729181 402.993866 
L 508.797157 402.993866 
L 509.431267 401.882292 
L 519.113228 401.882292 
L 519.231393 400.770719 
L 523.944004 400.770719 
L 524.664054 400.214932 
L 526.849124 400.214932 
L 526.971768 399.659146 
L 540.414559 399.659146 
L 540.629125 399.103359 
L 541.96065 399.103359 
L 542.374151 398.547572 
L 544.859187 398.547572 
L 545.326556 397.991786 
L 545.329622 397.435999 
L 545.864143 396.880212 
L 547.494462 396.880212 
L 547.618969 396.324426 
L 547.627897 395.212852 
L 547.636764 395.768639 
L 548.73232 395.212852 
L 552.686134 395.212852 
L 553.466033 394.101279 
L 560.599953 394.101279 
L 561.151519 393.545492 
L 562.882146 393.545492 
L 563.020691 392.989706 
L 563.039749 392.433919 
L 568.914739 392.433919 
L 572.563146 391.322346 
L 573.429106 391.322346 
L 573.93991 390.766559 
L 581.497161 390.766559 
L 582.426066 390.210772 
L 583.577083 390.210772 
L 584.691847 389.654986 
L 594.004314 389.654986 
L 594.259882 389.099199 
L 594.261265 388.543412 
L 599.47494 388.543412 
L 599.727743 387.987626 
L 622.889529 387.987626 
L 625.862494 387.431839 
L 632.686859 387.431839 
L 634.179684 386.876052 
L 635.493173 386.876052 
L 635.863419 386.320266 
L 638.800403 386.320266 
L 639.317069 385.764479 
L 639.998492 385.764479 
L 640.882969 385.208692 
L 643.00305 385.208692 
L 643.392594 384.652906 
L 643.653542 384.652906 
L 644.603549 384.097119 
L 653.78171 384.097119 
L 653.807381 382.429759 
L 661.815828 382.429759 
L 665.211824 381.873972 
L 665.214589 381.318186 
L 669.196779 381.318186 
L 669.363941 380.762399 
L 669.366406 380.206612 
L 671.229116 380.206612 
L 672.040397 379.650826 
L 672.62076 379.650826 
L 673.516479 379.095039 
L 674.477698 379.095039 
L 674.643808 377.983466 
L 675.445771 377.983466 
L 675.605599 377.427679 
L 677.410173 377.427679 
L 677.476695 376.871892 
L 680.321065 376.871892 
L 682.381688 376.316106 
L 683.057581 376.316106 
L 683.721088 375.760319 
L 685.091721 375.204532 
L 685.097583 374.648746 
L 685.475553 372.981386 
L 685.820939 372.425599 
L 686.330421 371.869812 
L 687.695793 371.869812 
L 688.523818 370.202452 
L 690.503611 370.202452 
L 691.039665 368.535092 
L 693.218152 368.535092 
L 693.448831 367.979306 
L 695.027777 367.979306 
L 695.370908 366.867732 
L 695.965459 366.311946 
L 698.010361 366.311946 
L 701.55419 365.200372 
L 703.826313 364.644586 
L 703.98067 364.088799 
L 706.129789 364.088799 
L 706.267282 363.533012 
L 708.626728 363.533012 
L 708.63758 362.977226 
L 709.079879 362.977226 
L 709.176821 362.421439 
L 715.880346 362.421439 
L 716.035274 361.865652 
L 718.147419 361.309866 
L 721.621119 361.309866 
L 721.631069 360.754079 
L 734.375062 360.754079 
L 735.319087 358.530932 
L 740.548935 358.530932 
L 740.556661 357.419359 
L 747.210317 357.419359 
L 748.427615 355.751999 
L 748.4302 355.196212 
L 753.133522 355.196212 
L 754.716016 354.084639 
L 754.786836 353.528852 
L 784.355338 353.528852 
L 785.53431 352.973066 
L 788.642063 352.973066 
L 788.966167 351.861492 
L 812.012614 351.861492 
L 812.012614 351.861492 
" clip-path="url(#pa7430f9c8f)" style="fill: none; stroke: #bf8700; stroke-width: 2; stroke-linecap: square"/>
   </g>
   <g id="line2d_30">
    <path d="M 85.239886 454.682026 
L 85.45337 454.682026 
L 85.547908 432.450559 
L 86.04197 426.892692 
L 86.32429 425.781119 
L 86.467525 426.336906 
L 86.728924 425.781119 
L 87.171012 425.225332 
L 87.745363 423.002186 
L 87.993145 421.334826 
L 88.318872 421.334826 
L 88.762072 420.779039 
L 88.765349 420.223252 
L 89.122188 419.667466 
L 89.220573 419.111679 
L 89.273809 419.111679 
L 90.186061 418.000106 
L 90.276511 411.886452 
L 90.339065 412.442239 
L 90.625834 405.217012 
L 90.750402 402.993866 
L 92.898889 402.993866 
L 93.097524 399.659146 
L 93.149798 402.438079 
L 93.391989 397.991786 
L 93.511927 397.435999 
L 94.405512 396.880212 
L 94.560109 395.768639 
L 94.807711 395.768639 
L 95.267895 395.212852 
L 95.513723 394.657066 
L 95.625064 393.545492 
L 95.692789 392.989706 
L 95.922445 392.433919 
L 95.928126 391.878132 
L 96.159105 392.433919 
L 96.224846 391.878132 
L 96.232932 392.433919 
L 96.242611 390.766559 
L 98.383884 390.766559 
L 101.680593 402.993866 
L 102.171107 390.210772 
L 102.529268 389.654986 
L 103.809631 389.654986 
L 104.043827 389.099199 
L 104.545012 388.543412 
L 105.616641 402.993866 
L 105.686169 387.987626 
L 106.508482 387.431839 
L 108.267005 386.876052 
L 108.392414 387.431839 
L 108.648583 385.764479 
L 109.213074 385.764479 
L 109.384595 385.208692 
L 109.708548 384.652906 
L 109.735422 383.541332 
L 110.034245 382.429759 
L 110.05156 382.985546 
L 110.229303 382.985546 
L 110.326756 381.873972 
L 111.051075 376.871892 
L 111.239189 377.983466 
L 112.569271 374.648746 
L 112.919496 375.760319 
L 114.360799 373.537172 
L 115.502617 377.427679 
L 115.903343 373.537172 
L 117.549082 371.869812 
L 119.975802 371.869812 
L 120.296299 371.314026 
L 120.551355 369.646666 
L 121.268069 371.314026 
L 124.191556 371.869812 
L 124.916776 369.646666 
L 125.268295 367.979306 
L 125.869188 369.646666 
L 127.227857 367.979306 
L 131.842503 367.979306 
L 136.694831 367.423519 
L 137.018424 366.867732 
L 140.081839 366.311946 
L 142.107502 366.311946 
L 142.484571 365.756159 
L 142.566604 366.311946 
L 144.721585 364.644586 
L 146.74289 364.644586 
L 146.789813 364.088799 
L 147.890179 363.533012 
L 150.544661 363.533012 
L 151.715607 359.642506 
L 152.587128 359.086719 
L 153.708566 358.530932 
L 153.730329 357.975146 
L 157.933427 357.975146 
L 158.014619 354.084639 
L 158.170178 354.084639 
L 158.307581 352.973066 
L 159.855054 352.973066 
L 160.322874 352.417279 
L 162.597131 352.417279 
L 165.756226 351.861492 
L 165.91422 363.533012 
L 165.921975 352.417279 
L 166.124307 351.861492 
L 167.250193 351.861492 
L 168.958727 351.305706 
L 170.680487 351.305706 
L 172.048173 350.749919 
L 175.818232 349.638346 
L 177.990737 349.638346 
L 179.736725 349.082559 
L 180.008405 346.303626 
L 180.19228 346.303626 
L 180.517646 345.747839 
L 182.214787 345.192052 
L 182.607097 342.968906 
L 184.952686 341.857332 
L 184.980942 342.413119 
L 185.201941 341.857332 
L 188.210016 340.745759 
L 190.466838 340.189972 
L 191.54511 340.189972 
L 192.500829 339.634186 
L 193.329064 338.522612 
L 194.207529 337.966826 
L 194.52529 337.411039 
L 196.597816 337.966826 
L 198.513431 336.855252 
L 198.735753 337.411039 
L 199.244874 337.411039 
L 199.347047 336.855252 
L 200.711668 336.299466 
L 201.573239 336.855252 
L 203.152907 335.743679 
L 204.183895 335.743679 
L 206.383303 335.187892 
L 206.748018 335.743679 
L 207.132602 334.076319 
L 208.467102 334.076319 
L 208.731147 333.520532 
L 209.880269 331.297386 
L 210.204944 330.185812 
L 211.048059 330.741599 
L 211.419477 329.630026 
L 211.45663 329.074239 
L 214.442521 329.074239 
L 215.954795 328.518452 
L 216.342535 327.962666 
L 218.688996 327.962666 
L 220.340056 327.406879 
L 223.144356 327.406879 
L 223.840478 326.851092 
L 231.551815 326.851092 
L 231.994685 326.295306 
L 232.039053 325.739519 
L 232.338929 325.183732 
L 235.685717 325.183732 
L 235.894301 324.627946 
L 236.745802 324.072159 
L 236.893275 323.516372 
L 238.304037 322.960586 
L 239.330126 322.404799 
L 243.441181 322.404799 
L 244.404685 321.293226 
L 248.63108 321.293226 
L 249.57231 320.737439 
L 253.511153 320.737439 
L 253.903523 320.181652 
L 254.880794 319.625866 
L 255.171712 319.070079 
L 255.270488 318.514292 
L 258.198033 317.958506 
L 258.560914 318.514292 
L 262.414839 317.402719 
L 265.461961 316.291146 
L 265.874651 315.735359 
L 271.654832 315.735359 
L 272.403319 315.179572 
L 277.79095 315.179572 
L 282.865991 314.623786 
L 283.504339 314.067999 
L 285.634219 313.512212 
L 287.770112 312.956426 
L 288.098845 312.400639 
L 292.891204 312.400639 
L 294.351504 311.844852 
L 305.372175 311.844852 
L 306.72898 311.289066 
L 315.832352 311.289066 
L 316.328668 310.733279 
L 316.857598 311.289066 
L 319.226303 310.733279 
L 327.197957 310.733279 
L 328.266219 310.177492 
L 345.129925 310.177492 
L 345.154815 309.621706 
L 355.569842 309.621706 
L 357.858077 309.065919 
L 357.863939 308.510132 
L 369.303371 308.510132 
L 369.308451 307.398559 
L 376.080663 307.398559 
L 379.184388 306.842772 
L 383.029295 306.842772 
L 386.575769 305.731199 
L 393.719429 305.731199 
L 394.139393 305.175412 
L 394.195063 304.619626 
L 396.895688 304.619626 
L 396.910116 304.063839 
L 397.190543 304.063839 
L 397.637561 303.508052 
L 401.644791 303.508052 
L 401.796863 302.952266 
L 407.14728 302.952266 
L 407.366446 302.396479 
L 420.43304 302.396479 
L 421.12775 300.729119 
L 421.128742 300.173332 
L 422.979939 300.173332 
L 422.984358 299.617546 
L 428.444733 299.617546 
L 428.565874 299.061759 
L 431.179836 299.061759 
L 431.273743 298.505972 
L 440.984471 298.505972 
L 441.171202 297.950186 
L 443.425199 297.950186 
L 443.504497 297.394399 
L 444.214657 296.838612 
L 462.044723 296.838612 
L 462.973388 295.727039 
L 464.363469 295.727039 
L 464.646751 295.171252 
L 466.036923 295.171252 
L 466.242952 294.615466 
L 469.527486 294.615466 
L 469.566744 294.059679 
L 487.745052 294.059679 
L 487.825491 292.948106 
L 510.547654 292.948106 
L 511.137787 292.392319 
L 549.933326 292.392319 
L 551.756057 291.836532 
L 568.151342 291.836532 
L 568.239538 291.280746 
L 575.579667 291.280746 
L 575.936446 290.724959 
L 721.211526 290.724959 
L 721.631069 290.169172 
L 740.076337 290.169172 
L 740.556661 289.613386 
L 747.210317 289.613386 
L 748.415862 289.057599 
L 748.4302 285.167092 
L 754.712499 285.167092 
L 754.786836 282.388159 
L 812.012614 282.388159 
L 812.012614 282.388159 
" clip-path="url(#pa7430f9c8f)" style="fill: none; stroke: #cf222e; stroke-width: 2; stroke-linecap: square"/>
   </g>
   <g id="line2d_31">
    <path d="M 85.239886 454.682026 
L 85.25687 454.126239 
L 85.390774 -1 
M 85.511126 -1 
L 85.643618 101.201706 
L 87.735804 101.201706 
L 87.745363 97.866986 
L 90.276511 97.866986 
L 90.440396 98.422772 
L 90.750402 98.422772 
L 91.035188 98.978559 
L 92.799843 99.534346 
L 92.834682 98.978559 
L 92.898889 99.534346 
L 98.383884 99.534346 
L 101.680593 98.422772 
L 102.171107 99.534346 
L 102.529268 98.978559 
L 103.431961 99.534346 
L 103.809631 96.755412 
L 104.545012 96.755412 
L 105.616641 98.422772 
L 105.686169 95.643839 
L 106.508482 96.199626 
L 108.648583 96.199626 
L 109.213074 95.088052 
L 110.05156 95.088052 
L 110.326756 91.197546 
L 115.502617 91.197546 
L 115.903343 86.751252 
L 117.549082 86.751252 
L 119.975802 82.860746 
L 121.248801 82.860746 
L 121.268069 83.416532 
L 124.191556 83.416532 
L 124.916776 80.081812 
L 127.211925 80.081812 
L 127.227857 80.637599 
L 140.081839 80.637599 
L 142.484571 81.193386 
L 142.566604 80.637599 
L 145.058554 81.193386 
L 153.730329 81.193386 
L 157.933427 81.749172 
L 158.014619 74.523946 
L 158.214275 75.079732 
L 160.585385 75.079732 
L 161.594549 75.635519 
L 165.756226 75.635519 
L 165.91422 80.637599 
L 165.921975 71.745012 
L 166.124307 71.745012 
L 167.250193 73.968159 
L 172.048173 73.968159 
L 175.818232 70.077652 
L 180.008405 70.077652 
L 180.19228 68.410292 
L 191.080417 68.410292 
L 191.54511 68.966079 
L 194.188892 68.966079 
L 194.207529 70.077652 
L 199.244874 70.077652 
L 199.347047 73.412372 
L 207.132602 73.412372 
L 207.318551 68.410292 
L 208.464367 67.298719 
L 208.467102 67.854506 
L 208.731147 67.854506 
L 209.671895 65.075572 
L 211.048059 65.075572 
L 211.419477 65.631359 
L 211.45663 65.075572 
L 212.30714 65.631359 
L 212.311018 66.187146 
L 212.330887 65.631359 
L 212.822183 63.408212 
L 217.297562 63.408212 
L 218.688996 63.963999 
L 220.340056 63.963999 
L 223.144356 64.519786 
L 225.799139 64.519786 
L 227.850233 65.631359 
L 232.039053 65.075572 
L 232.338929 65.075572 
L 234.950035 66.187146 
L 235.685717 65.631359 
L 239.330126 65.631359 
L 243.438957 67.854506 
L 243.441181 67.298719 
L 249.57231 67.298719 
L 251.473796 67.854506 
L 285.360556 67.854506 
L 285.634219 68.410292 
L 287.754871 68.410292 
L 287.770112 66.742932 
L 297.991945 66.742932 
L 298.198426 67.298719 
L 319.226303 67.298719 
L 323.85658 67.854506 
L 323.883363 67.298719 
L 327.197957 68.966079 
L 328.266219 68.966079 
L 329.27848 68.410292 
L 332.062309 68.410292 
L 334.718415 68.966079 
L 334.722774 69.521866 
L 342.253843 67.854506 
L 342.968873 68.410292 
L 352.243675 68.410292 
L 352.638389 67.854506 
L 353.361446 68.410292 
L 353.609919 70.633439 
L 357.860272 70.633439 
L 357.863939 71.189226 
L 370.869933 71.189226 
L 371.627317 71.745012 
L 374.126842 71.745012 
L 374.370686 72.300799 
L 386.559206 72.300799 
L 386.575769 72.856586 
L 388.719778 72.856586 
L 389.624305 73.412372 
L 389.628844 73.968159 
L 390.368583 73.412372 
L 390.40721 73.968159 
L 391.555941 73.968159 
L 391.73642 74.523946 
L 394.139393 74.523946 
L 394.195063 73.412372 
L 394.568796 74.523946 
L 395.922294 72.856586 
L 399.195285 72.856586 
L 399.436935 71.189226 
L 400.534445 71.189226 
L 401.073085 72.300799 
L 403.848678 72.300799 
L 404.759427 72.856586 
L 404.980637 72.856586 
L 405.836647 70.077652 
L 407.366446 70.077652 
L 407.71586 70.633439 
L 414.796755 70.633439 
L 414.971221 71.189226 
L 415.626132 71.189226 
L 416.642902 71.745012 
L 428.09577 71.745012 
L 428.198665 72.300799 
L 428.565874 72.300799 
L 429.332457 73.412372 
L 430.407212 73.412372 
L 430.665635 72.856586 
L 430.914619 72.856586 
L 431.009097 73.412372 
L 433.883286 73.412372 
L 434.372598 73.968159 
L 436.874347 73.968159 
L 437.034746 74.523946 
L 438.405108 74.523946 
L 438.492912 75.079732 
L 442.751681 75.079732 
L 442.843243 75.635519 
L 445.327017 75.635519 
L 446.156605 77.858666 
L 447.076371 77.858666 
L 447.077333 78.414452 
L 450.811951 78.414452 
L 451.496621 78.970239 
L 454.356171 78.970239 
L 454.9194 79.526026 
L 457.087366 79.526026 
L 457.249839 80.081812 
L 460.775512 80.081812 
L 461.684307 80.637599 
L 461.750499 81.193386 
L 462.044723 81.193386 
L 462.973388 60.629279 
L 465.853438 60.629279 
L 465.87418 61.185066 
L 466.036923 61.185066 
L 466.242952 60.629279 
L 468.615144 60.629279 
L 468.876333 61.185066 
L 469.187932 61.185066 
L 469.501364 61.740852 
L 469.566744 61.185066 
L 470.844222 61.185066 
L 470.854201 61.740852 
L 471.131111 61.740852 
L 471.252372 62.296639 
L 472.090257 62.852426 
L 477.919916 62.852426 
L 478.831086 63.408212 
L 479.441027 63.408212 
L 479.93587 63.963999 
L 480.436455 63.408212 
L 482.497559 63.408212 
L 482.586445 64.519786 
L 485.545312 64.519786 
L 486.693353 66.187146 
L 499.154514 66.187146 
L 499.878743 66.742932 
L 519.113228 66.742932 
L 519.231393 67.298719 
L 547.494462 67.298719 
L 547.618969 67.854506 
L 547.627897 68.410292 
L 547.636764 67.854506 
L 551.756057 67.854506 
L 552.686134 68.410292 
L 568.914739 68.410292 
L 572.563146 68.966079 
L 573.421921 69.521866 
L 573.429106 67.854506 
L 599.47494 67.854506 
L 599.727743 68.410292 
L 622.889529 68.410292 
L 625.862494 68.966079 
L 627.681016 68.966079 
L 627.878358 69.521866 
L 629.142309 70.077652 
L 632.686859 70.077652 
L 634.179684 70.633439 
L 635.741767 70.633439 
L 635.863419 71.189226 
L 638.432742 71.189226 
L 638.739652 71.745012 
L 638.800403 72.300799 
L 643.374859 72.300799 
L 643.392594 72.856586 
L 646.654914 72.856586 
L 647.287521 72.300799 
L 647.296118 72.856586 
L 648.615799 73.412372 
L 650.958592 73.412372 
L 652.644521 73.968159 
L 654.153308 73.968159 
L 656.377065 61.740852 
L 658.973262 61.740852 
L 658.985286 64.519786 
L 672.039044 64.519786 
L 672.040397 65.075572 
L 672.266176 65.631359 
L 673.516479 65.631359 
L 673.788429 66.187146 
L 677.889505 66.187146 
L 678.837558 66.742932 
L 678.993538 66.187146 
L 686.328768 66.187146 
L 686.330421 66.742932 
L 697.931034 66.742932 
L 698.010361 67.854506 
L 699.689677 69.521866 
L 701.374704 69.521866 
L 701.55419 70.077652 
L 708.63758 70.077652 
L 708.767829 70.633439 
L 715.880346 70.633439 
L 716.035274 71.189226 
L 717.995528 72.856586 
L 718.147419 73.412372 
L 737.457986 73.412372 
L 739.286247 76.191306 
L 743.648693 76.191306 
L 743.932847 76.747092 
L 747.210317 76.747092 
L 748.4302 77.858666 
L 765.705183 77.858666 
L 765.924198 78.414452 
L 768.453061 78.414452 
L 768.723959 78.970239 
L 785.382959 78.970239 
L 785.391496 80.637599 
L 785.908914 80.637599 
L 785.996388 81.193386 
L 788.966167 81.193386 
L 789.384237 81.749172 
L 789.386732 81.193386 
L 796.911759 81.193386 
L 798.727095 81.749172 
L 812.012614 81.749172 
L 812.012614 81.749172 
" clip-path="url(#pa7430f9c8f)" style="fill: none; stroke: #9467bd; stroke-width: 2; stroke-linecap: square"/>
   </g>
   <g id="patch_3">
    <path d="M 48.90125 455.237812 
L 48.90125 38.397812 
" style="fill: none; stroke: #d0d7de; stroke-width: 0.8; stroke-linejoin: miter; stroke-linecap: square"/>
   </g>
   <g id="patch_4">
    <path d="M 848.35125 455.237812 
L 848.35125 38.397812 
" style="fill: none; stroke: #d0d7de; stroke-width: 0.8; stroke-linejoin: miter; stroke-linecap: square"/>
   </g>
   <g id="patch_5">
    <path d="M 48.90125 455.237812 
L 848.35125 455.237812 
" style="fill: none; stroke: #d0d7de; stroke-width: 0.8; stroke-linejoin: miter; stroke-linecap: square"/>
   </g>
   <g id="patch_6">
    <path d="M 48.90125 38.397812 
L 848.35125 38.397812 
" style="fill: none; stroke: #d0d7de; stroke-width: 0.8; stroke-linejoin: miter; stroke-linecap: square"/>
   </g>
   <g id="text_16">
    <!-- 545 -->
    <g style="fill: #1a7f37" transform="translate(817.012614 154.817517) scale(0.09 -0.09)">
     <defs>
      <path id="DejaVuSans-Bold-35" d="M 678 4666 
L 3669 4666 
L 3669 3781 
L 1638 3781 
L 1638 3059 
Q 1775 3097 1914 3117 
Q 2053 3138 2203 3138 
Q 3056 3138 3531 2711 
Q 4006 2284 4006 1522 
Q 4006 766 3489 337 
Q 2972 -91 2053 -91 
Q 1656 -91 1267 -14 
Q 878 63 494 219 
L 494 1166 
Q 875 947 1217 837 
Q 1559 728 1863 728 
Q 2300 728 2551 942 
Q 2803 1156 2803 1522 
Q 2803 1891 2551 2103 
Q 2300 2316 1863 2316 
Q 1603 2316 1309 2248 
Q 1016 2181 678 2041 
L 678 4666 
z
" transform="scale(0.015625)"/>
      <path id="DejaVuSans-Bold-34" d="M 2356 3675 
L 1038 1722 
L 2356 1722 
L 2356 3675 
z
M 2156 4666 
L 3494 4666 
L 3494 1722 
L 4159 1722 
L 4159 850 
L 3494 850 
L 3494 0 
L 2356 0 
L 2356 850 
L 288 850 
L 288 1881 
L 2156 4666 
z
" transform="scale(0.015625)"/>
     </defs>
     <use xlink:href="#DejaVuSans-Bold-35"/>
     <use xlink:href="#DejaVuSans-Bold-34" transform="translate(69.580078 0)"/>
     <use xlink:href="#DejaVuSans-Bold-35" transform="translate(139.160156 0)"/>
    </g>
   </g>
   <g id="text_17">
    <!-- 432 -->
    <g style="fill: #0969da" transform="translate(817.012614 217.62141) scale(0.09 -0.09)">
     <defs>
      <path id="DejaVuSans-Bold-33" d="M 2981 2516 
Q 3453 2394 3698 2092 
Q 3944 1791 3944 1325 
Q 3944 631 3412 270 
Q 2881 -91 1863 -91 
Q 1503 -91 1142 -33 
Q 781 25 428 141 
L 428 1069 
Q 766 900 1098 814 
Q 1431 728 1753 728 
Q 2231 728 2486 893 
Q 2741 1059 2741 1369 
Q 2741 1688 2480 1852 
Q 2219 2016 1709 2016 
L 1228 2016 
L 1228 2791 
L 1734 2791 
Q 2188 2791 2409 2933 
Q 2631 3075 2631 3366 
Q 2631 3634 2415 3781 
Q 2200 3928 1806 3928 
Q 1516 3928 1219 3862 
Q 922 3797 628 3669 
L 628 4550 
Q 984 4650 1334 4700 
Q 1684 4750 2022 4750 
Q 2931 4750 3382 4451 
Q 3834 4153 3834 3553 
Q 3834 3144 3618 2883 
Q 3403 2622 2981 2516 
z
" transform="scale(0.015625)"/>
      <path id="DejaVuSans-Bold-32" d="M 1844 884 
L 3897 884 
L 3897 0 
L 506 0 
L 506 884 
L 2209 2388 
Q 2438 2594 2547 2791 
Q 2656 2988 2656 3200 
Q 2656 3528 2436 3728 
Q 2216 3928 1850 3928 
Q 1569 3928 1234 3808 
Q 900 3688 519 3450 
L 519 4475 
Q 925 4609 1322 4679 
Q 1719 4750 2100 4750 
Q 2938 4750 3402 4381 
Q 3866 4013 3866 3353 
Q 3866 2972 3669 2642 
Q 3472 2313 2841 1759 
L 1844 884 
z
" transform="scale(0.015625)"/>
     </defs>
     <use xlink:href="#DejaVuSans-Bold-34"/>
     <use xlink:href="#DejaVuSans-Bold-33" transform="translate(69.580078 0)"/>
     <use xlink:href="#DejaVuSans-Bold-32" transform="translate(139.160156 0)"/>
    </g>
   </g>
   <g id="text_18">
    <!-- 186 -->
    <g style="fill: #bf8700" transform="translate(817.012614 354.34493) scale(0.09 -0.09)">
     <defs>
      <path id="DejaVuSans-Bold-31" d="M 750 831 
L 1813 831 
L 1813 3847 
L 722 3622 
L 722 4441 
L 1806 4666 
L 2950 4666 
L 2950 831 
L 4013 831 
L 4013 0 
L 750 0 
L 750 831 
z
" transform="scale(0.015625)"/>
      <path id="DejaVuSans-Bold-38" d="M 2228 2088 
Q 1891 2088 1709 1903 
Q 1528 1719 1528 1375 
Q 1528 1031 1709 848 
Q 1891 666 2228 666 
Q 2563 666 2741 848 
Q 2919 1031 2919 1375 
Q 2919 1722 2741 1905 
Q 2563 2088 2228 2088 
z
M 1350 2484 
Q 925 2613 709 2878 
Q 494 3144 494 3541 
Q 494 4131 934 4440 
Q 1375 4750 2228 4750 
Q 3075 4750 3515 4442 
Q 3956 4134 3956 3541 
Q 3956 3144 3739 2878 
Q 3522 2613 3097 2484 
Q 3572 2353 3814 2058 
Q 4056 1763 4056 1313 
Q 4056 619 3595 264 
Q 3134 -91 2228 -91 
Q 1319 -91 855 264 
Q 391 619 391 1313 
Q 391 1763 633 2058 
Q 875 2353 1350 2484 
z
M 1631 3419 
Q 1631 3141 1786 2991 
Q 1941 2841 2228 2841 
Q 2509 2841 2662 2991 
Q 2816 3141 2816 3419 
Q 2816 3697 2662 3845 
Q 2509 3994 2228 3994 
Q 1941 3994 1786 3844 
Q 1631 3694 1631 3419 
z
" transform="scale(0.015625)"/>
      <path id="DejaVuSans-Bold-36" d="M 2316 2303 
Q 2000 2303 1842 2098 
Q 1684 1894 1684 1484 
Q 1684 1075 1842 870 
Q 2000 666 2316 666 
Q 2634 666 2792 870 
Q 2950 1075 2950 1484 
Q 2950 1894 2792 2098 
Q 2634 2303 2316 2303 
z
M 3803 4544 
L 3803 3681 
Q 3506 3822 3243 3889 
Q 2981 3956 2731 3956 
Q 2194 3956 1894 3657 
Q 1594 3359 1544 2772 
Q 1750 2925 1990 3001 
Q 2231 3078 2516 3078 
Q 3231 3078 3670 2659 
Q 4109 2241 4109 1563 
Q 4109 813 3618 361 
Q 3128 -91 2303 -91 
Q 1394 -91 895 523 
Q 397 1138 397 2266 
Q 397 3422 980 4083 
Q 1563 4744 2578 4744 
Q 2900 4744 3203 4694 
Q 3506 4644 3803 4544 
z
" transform="scale(0.015625)"/>
     </defs>
     <use xlink:href="#DejaVuSans-Bold-31"/>
     <use xlink:href="#DejaVuSans-Bold-38" transform="translate(69.580078 0)"/>
     <use xlink:href="#DejaVuSans-Bold-36" transform="translate(139.160156 0)"/>
    </g>
   </g>
   <g id="text_19">
    <!-- 311 -->
    <g style="fill: #cf222e" transform="translate(817.012614 284.871597) scale(0.09 -0.09)">
     <use xlink:href="#DejaVuSans-Bold-33"/>
     <use xlink:href="#DejaVuSans-Bold-31" transform="translate(69.580078 0)"/>
     <use xlink:href="#DejaVuSans-Bold-31" transform="translate(139.160156 0)"/>
    </g>
   </g>
   <g id="text_20">
    <!-- 672 -->
    <g style="fill: #9467bd" transform="translate(817.012614 84.23261) scale(0.09 -0.09)">
     <defs>
      <path id="DejaVuSans-Bold-37" d="M 428 4666 
L 3944 4666 
L 3944 3988 
L 2125 0 
L 953 0 
L 2675 3781 
L 428 3781 
L 428 4666 
z
" transform="scale(0.015625)"/>
     </defs>
     <use xlink:href="#DejaVuSans-Bold-36"/>
     <use xlink:href="#DejaVuSans-Bold-37" transform="translate(69.580078 0)"/>
     <use xlink:href="#DejaVuSans-Bold-32" transform="translate(139.160156 0)"/>
    </g>
   </g>
   <g id="text_21">
    <!-- Erdős Problems Progress -->
    <g style="fill: #24292f" transform="translate(349.588281 18.397812) scale(0.14 -0.14)">
     <defs>
      <path id="DejaVuSans-Bold-45" d="M 588 4666 
L 3834 4666 
L 3834 3756 
L 1791 3756 
L 1791 2888 
L 3713 2888 
L 3713 1978 
L 1791 1978 
L 1791 909 
L 3903 909 
L 3903 0 
L 588 0 
L 588 4666 
z
" transform="scale(0.015625)"/>
      <path id="DejaVuSans-Bold-72" d="M 3138 2547 
Q 2991 2616 2845 2648 
Q 2700 2681 2553 2681 
Q 2122 2681 1889 2404 
Q 1656 2128 1656 1613 
L 1656 0 
L 538 0 
L 538 3500 
L 1656 3500 
L 1656 2925 
Q 1872 3269 2151 3426 
Q 2431 3584 2822 3584 
Q 2878 3584 2943 3579 
Q 3009 3575 3134 3559 
L 3138 2547 
z
" transform="scale(0.015625)"/>
      <path id="DejaVuSans-Bold-64" d="M 2919 2988 
L 2919 4863 
L 4044 4863 
L 4044 0 
L 2919 0 
L 2919 506 
Q 2688 197 2409 53 
Q 2131 -91 1766 -91 
Q 1119 -91 703 423 
Q 288 938 288 1747 
Q 288 2556 703 3070 
Q 1119 3584 1766 3584 
Q 2128 3584 2408 3439 
Q 2688 3294 2919 2988 
z
M 2181 722 
Q 2541 722 2730 984 
Q 2919 1247 2919 1747 
Q 2919 2247 2730 2509 
Q 2541 2772 2181 2772 
Q 1825 2772 1636 2509 
Q 1447 2247 1447 1747 
Q 1447 1247 1636 984 
Q 1825 722 2181 722 
z
" transform="scale(0.015625)"/>
      <path id="DejaVuSans-Bold-151" d="M 1881 5119 
L 2560 5119 
L 1785 3944 
L 1275 3944 
L 1881 5119 
z
M 3016 5119 
L 3738 5119 
L 2888 3944 
L 2344 3944 
L 3016 5119 
z
M 2203 2784 
Q 1831 2784 1636 2517 
Q 1441 2250 1441 1747 
Q 1441 1244 1636 976 
Q 1831 709 2203 709 
Q 2569 709 2762 976 
Q 2956 1244 2956 1747 
Q 2956 2250 2762 2517 
Q 2569 2784 2203 2784 
z
M 2203 3584 
Q 3106 3584 3614 3096 
Q 4122 2609 4122 1747 
Q 4122 884 3614 396 
Q 3106 -91 2203 -91 
Q 1297 -91 786 396 
Q 275 884 275 1747 
Q 275 2609 786 3096 
Q 1297 3584 2203 3584 
z
" transform="scale(0.015625)"/>
      <path id="DejaVuSans-Bold-73" d="M 3272 3391 
L 3272 2541 
Q 2913 2691 2578 2766 
Q 2244 2841 1947 2841 
Q 1628 2841 1473 2761 
Q 1319 2681 1319 2516 
Q 1319 2381 1436 2309 
Q 1553 2238 1856 2203 
L 2053 2175 
Q 2913 2066 3209 1816 
Q 3506 1566 3506 1031 
Q 3506 472 3093 190 
Q 2681 -91 1863 -91 
Q 1516 -91 1145 -36 
Q 775 19 384 128 
L 384 978 
Q 719 816 1070 734 
Q 1422 653 1784 653 
Q 2113 653 2278 743 
Q 2444 834 2444 1013 
Q 2444 1163 2330 1236 
Q 2216 1309 1875 1350 
L 1678 1375 
Q 931 1469 631 1722 
Q 331 1975 331 2491 
Q 331 3047 712 3315 
Q 1094 3584 1881 3584 
Q 2191 3584 2531 3537 
Q 2872 3491 3272 3391 
z
" transform="scale(0.015625)"/>
      <path id="DejaVuSans-Bold-20" transform="scale(0.015625)"/>
      <path id="DejaVuSans-Bold-50" d="M 588 4666 
L 2584 4666 
Q 3475 4666 3951 4270 
Q 4428 3875 4428 3144 
Q 4428 2409 3951 2014 
Q 3475 1619 2584 1619 
L 1791 1619 
L 1791 0 
L 588 0 
L 588 4666 
z
M 1791 3794 
L 1791 2491 
L 2456 2491 
Q 2806 2491 2997 2661 
Q 3188 2831 3188 3144 
Q 3188 3456 2997 3625 
Q 2806 3794 2456 3794 
L 1791 3794 
z
" transform="scale(0.015625)"/>
      <path id="DejaVuSans-Bold-6f" d="M 2203 2784 
Q 1831 2784 1636 2517 
Q 1441 2250 1441 1747 
Q 1441 1244 1636 976 
Q 1831 709 2203 709 
Q 2569 709 2762 976 
Q 2956 1244 2956 1747 
Q 2956 2250 2762 2517 
Q 2569 2784 2203 2784 
z
M 2203 3584 
Q 3106 3584 3614 3096 
Q 4122 2609 4122 1747 
Q 4122 884 3614 396 
Q 3106 -91 2203 -91 
Q 1297 -91 786 396 
Q 275 884 275 1747 
Q 275 2609 786 3096 
Q 1297 3584 2203 3584 
z
" transform="scale(0.015625)"/>
      <path id="DejaVuSans-Bold-62" d="M 2400 722 
Q 2759 722 2948 984 
Q 3138 1247 3138 1747 
Q 3138 2247 2948 2509 
Q 2759 2772 2400 2772 
Q 2041 2772 1848 2508 
Q 1656 2244 1656 1747 
Q 1656 1250 1848 986 
Q 2041 722 2400 722 
z
M 1656 2988 
Q 1888 3294 2169 3439 
Q 2450 3584 2816 3584 
Q 3463 3584 3878 3070 
Q 4294 2556 4294 1747 
Q 4294 938 3878 423 
Q 3463 -91 2816 -91 
Q 2450 -91 2169 54 
Q 1888 200 1656 506 
L 1656 0 
L 538 0 
L 538 4863 
L 1656 4863 
L 1656 2988 
z
" transform="scale(0.015625)"/>
      <path id="DejaVuSans-Bold-6c" d="M 538 4863 
L 1656 4863 
L 1656 0 
L 538 0 
L 538 4863 
z
" transform="scale(0.015625)"/>
      <path id="DejaVuSans-Bold-65" d="M 4031 1759 
L 4031 1441 
L 1416 1441 
Q 1456 1047 1700 850 
Q 1944 653 2381 653 
Q 2734 653 3104 758 
Q 3475 863 3866 1075 
L 3866 213 
Q 3469 63 3072 -14 
Q 2675 -91 2278 -91 
Q 1328 -91 801 392 
Q 275 875 275 1747 
Q 275 2603 792 3093 
Q 1309 3584 2216 3584 
Q 3041 3584 3536 3087 
Q 4031 2591 4031 1759 
z
M 2881 2131 
Q 2881 2450 2695 2645 
Q 2509 2841 2209 2841 
Q 1884 2841 1681 2658 
Q 1478 2475 1428 2131 
L 2881 2131 
z
" transform="scale(0.015625)"/>
      <path id="DejaVuSans-Bold-6d" d="M 3781 2919 
Q 3994 3244 4286 3414 
Q 4578 3584 4928 3584 
Q 5531 3584 5847 3212 
Q 6163 2841 6163 2131 
L 6163 0 
L 5038 0 
L 5038 1825 
Q 5041 1866 5042 1909 
Q 5044 1953 5044 2034 
Q 5044 2406 4934 2573 
Q 4825 2741 4581 2741 
Q 4263 2741 4089 2478 
Q 3916 2216 3909 1719 
L 3909 0 
L 2784 0 
L 2784 1825 
Q 2784 2406 2684 2573 
Q 2584 2741 2328 2741 
Q 2006 2741 1831 2477 
Q 1656 2213 1656 1722 
L 1656 0 
L 531 0 
L 531 3500 
L 1656 3500 
L 1656 2988 
Q 1863 3284 2130 3434 
Q 2397 3584 2719 3584 
Q 3081 3584 3359 3409 
Q 3638 3234 3781 2919 
z
" transform="scale(0.015625)"/>
      <path id="DejaVuSans-Bold-67" d="M 2919 594 
Q 2688 288 2409 144 
Q 2131 0 1766 0 
Q 1125 0 706 504 
Q 288 1009 288 1791 
Q 288 2575 706 3076 
Q 1125 3578 1766 3578 
Q 2131 3578 2409 3434 
Q 2688 3291 2919 2981 
L 2919 3500 
L 4044 3500 
L 4044 353 
Q 4044 -491 3511 -936 
Q 2978 -1381 1966 -1381 
Q 1638 -1381 1331 -1331 
Q 1025 -1281 716 -1178 
L 716 -306 
Q 1009 -475 1290 -558 
Q 1572 -641 1856 -641 
Q 2406 -641 2662 -400 
Q 2919 -159 2919 353 
L 2919 594 
z
M 2181 2772 
Q 1834 2772 1640 2515 
Q 1447 2259 1447 1791 
Q 1447 1309 1634 1061 
Q 1822 813 2181 813 
Q 2531 813 2725 1069 
Q 2919 1325 2919 1791 
Q 2919 2259 2725 2515 
Q 2531 2772 2181 2772 
z
" transform="scale(0.015625)"/>
     </defs>
     <use xlink:href="#DejaVuSans-Bold-45"/>
     <use xlink:href="#DejaVuSans-Bold-72" transform="translate(68.310547 0)"/>
     <use xlink:href="#DejaVuSans-Bold-64" transform="translate(117.626953 0)"/>
     <use xlink:href="#DejaVuSans-Bold-151" transform="translate(189.208984 0)"/>
     <use xlink:href="#DejaVuSans-Bold-73" transform="translate(257.910156 0)"/>
     <use xlink:href="#DejaVuSans-Bold-20" transform="translate(317.431641 0)"/>
     <use xlink:href="#DejaVuSans-Bold-50" transform="translate(352.246094 0)"/>
     <use xlink:href="#DejaVuSans-Bold-72" transform="translate(425.537109 0)"/>
     <use xlink:href="#DejaVuSans-Bold-6f" transform="translate(474.853516 0)"/>
     <use xlink:href="#DejaVuSans-Bold-62" transform="translate(543.554688 0)"/>
     <use xlink:href="#DejaVuSans-Bold-6c" transform="translate(615.136719 0)"/>
     <use xlink:href="#DejaVuSans-Bold-65" transform="translate(649.414062 0)"/>
     <use xlink:href="#DejaVuSans-Bold-6d" transform="translate(717.236328 0)"/>
     <use xlink:href="#DejaVuSans-Bold-73" transform="translate(821.435547 0)"/>
     <use xlink:href="#DejaVuSans-Bold-20" transform="translate(880.957031 0)"/>
     <use xlink:href="#DejaVuSans-Bold-50" transform="translate(915.771484 0)"/>
     <use xlink:href="#DejaVuSans-Bold-72" transform="translate(989.0625 0)"/>
     <use xlink:href="#DejaVuSans-Bold-6f" transform="translate(1038.378906 0)"/>
     <use xlink:href="#DejaVuSans-Bold-67" transform="translate(1107.080078 0)"/>
     <use xlink:href="#DejaVuSans-Bold-72" transform="translate(1178.662109 0)"/>
     <use xlink:href="#DejaVuSans-Bold-65" transform="translate(1227.978516 0)"/>
     <use xlink:href="#DejaVuSans-Bold-73" transform="translate(1295.800781 0)"/>
     <use xlink:href="#DejaVuSans-Bold-73" transform="translate(1355.322266 0)"/>
    </g>
   </g>
   <g id="legend_1">
    <g id="patch_7">
     <path d="M 55.90125 119.788437 
L 213.771563 119.788437 
Q 215.771563 119.788437 215.771563 117.788437 
L 215.771563 45.397812 
Q 215.771563 43.397812 213.771563 43.397812 
L 55.90125 43.397812 
Q 53.90125 43.397812 53.90125 45.397812 
L 53.90125 117.788437 
Q 53.90125 119.788437 55.90125 119.788437 
z
" style="fill: #f6f8fa; opacity: 0.8; stroke: #d0d7de; stroke-linejoin: miter"/>
    </g>
    <g id="line2d_32">
     <path d="M 57.90125 51.49625 
L 67.90125 51.49625 
L 77.90125 51.49625 
" style="fill: none; stroke: #1a7f37; stroke-width: 2; stroke-linecap: square"/>
    </g>
    <g id="text_22">
     <!-- Solved -->
     <g style="fill: #24292f" transform="translate(85.90125 54.99625) scale(0.1 -0.1)">
      <defs>
       <path id="DejaVuSans-6c" d="M 603 4863 
L 1178 4863 
L 1178 0 
L 603 0 
L 603 4863 
z
" transform="scale(0.015625)"/>
       <path id="DejaVuSans-64" d="M 2906 2969 
L 2906 4863 
L 3481 4863 
L 3481 0 
L 2906 0 
L 2906 525 
Q 2725 213 2448 61 
Q 2172 -91 1784 -91 
Q 1150 -91 751 415 
Q 353 922 353 1747 
Q 353 2572 751 3078 
Q 1150 3584 1784 3584 
Q 2172 3584 2448 3432 
Q 2725 3281 2906 2969 
z
M 947 1747 
Q 947 1113 1208 752 
Q 1469 391 1925 391 
Q 2381 391 2643 752 
Q 2906 1113 2906 1747 
Q 2906 2381 2643 2742 
Q 2381 3103 1925 3103 
Q 1469 3103 1208 2742 
Q 947 2381 947 1747 
z
" transform="scale(0.015625)"/>
      </defs>
      <use xlink:href="#DejaVuSans-53"/>
      <use xlink:href="#DejaVuSans-6f" transform="translate(63.476562 0)"/>
      <use xlink:href="#DejaVuSans-6c" transform="translate(124.658203 0)"/>
      <use xlink:href="#DejaVuSans-76" transform="translate(152.441406 0)"/>
      <use xlink:href="#DejaVuSans-65" transform="translate(211.621094 0)"/>
      <use xlink:href="#DejaVuSans-64" transform="translate(273.144531 0)"/>
     </g>
    </g>
    <g id="line2d_33">
     <path d="M 57.90125 66.174375 
L 67.90125 66.174375 
L 77.90125 66.174375 
" style="fill: none; stroke: #0969da; stroke-width: 2; stroke-linecap: square"/>
    </g>
    <g id="text_23">
     <!-- Lean Formalized Problem -->
     <g style="fill: #24292f" transform="translate(85.90125 69.674375) scale(0.1 -0.1)">
      <defs>
       <path id="DejaVuSans-4c" d="M 628 4666 
L 1259 4666 
L 1259 531 
L 3531 531 
L 3531 0 
L 628 0 
L 628 4666 
z
" transform="scale(0.015625)"/>
       <path id="DejaVuSans-20" transform="scale(0.015625)"/>
       <path id="DejaVuSans-46" d="M 628 4666 
L 3309 4666 
L 3309 4134 
L 1259 4134 
L 1259 2759 
L 3109 2759 
L 3109 2228 
L 1259 2228 
L 1259 0 
L 628 0 
L 628 4666 
z
" transform="scale(0.015625)"/>
       <path id="DejaVuSans-6d" d="M 3328 2828 
Q 3544 3216 3844 3400 
Q 4144 3584 4550 3584 
Q 5097 3584 5394 3201 
Q 5691 2819 5691 2113 
L 5691 0 
L 5113 0 
L 5113 2094 
Q 5113 2597 4934 2840 
Q 4756 3084 4391 3084 
Q 3944 3084 3684 2787 
Q 3425 2491 3425 1978 
L 3425 0 
L 2847 0 
L 2847 2094 
Q 2847 2600 2669 2842 
Q 2491 3084 2119 3084 
Q 1678 3084 1418 2786 
Q 1159 2488 1159 1978 
L 1159 0 
L 581 0 
L 581 3500 
L 1159 3500 
L 1159 2956 
Q 1356 3278 1631 3431 
Q 1906 3584 2284 3584 
Q 2666 3584 2933 3390 
Q 3200 3197 3328 2828 
z
" transform="scale(0.015625)"/>
       <path id="DejaVuSans-69" d="M 603 3500 
L 1178 3500 
L 1178 0 
L 603 0 
L 603 3500 
z
M 603 4863 
L 1178 4863 
L 1178 4134 
L 603 4134 
L 603 4863 
z
" transform="scale(0.015625)"/>
       <path id="DejaVuSans-7a" d="M 353 3500 
L 3084 3500 
L 3084 2975 
L 922 459 
L 3084 459 
L 3084 0 
L 275 0 
L 275 525 
L 2438 3041 
L 353 3041 
L 353 3500 
z
" transform="scale(0.015625)"/>
       <path id="DejaVuSans-50" d="M 1259 4147 
L 1259 2394 
L 2053 2394 
Q 2494 2394 2734 2622 
Q 2975 2850 2975 3272 
Q 2975 3691 2734 3919 
Q 2494 4147 2053 4147 
L 1259 4147 
z
M 628 4666 
L 2053 4666 
Q 2838 4666 3239 4311 
Q 3641 3956 3641 3272 
Q 3641 2581 3239 2228 
Q 2838 1875 2053 1875 
L 1259 1875 
L 1259 0 
L 628 0 
L 628 4666 
z
" transform="scale(0.015625)"/>
       <path id="DejaVuSans-62" d="M 3116 1747 
Q 3116 2381 2855 2742 
Q 2594 3103 2138 3103 
Q 1681 3103 1420 2742 
Q 1159 2381 1159 1747 
Q 1159 1113 1420 752 
Q 1681 391 2138 391 
Q 2594 391 2855 752 
Q 3116 1113 3116 1747 
z
M 1159 2969 
Q 1341 3281 1617 3432 
Q 1894 3584 2278 3584 
Q 2916 3584 3314 3078 
Q 3713 2572 3713 1747 
Q 3713 922 3314 415 
Q 2916 -91 2278 -91 
Q 1894 -91 1617 61 
Q 1341 213 1159 525 
L 1159 0 
L 581 0 
L 581 4863 
L 1159 4863 
L 1159 2969 
z
" transform="scale(0.015625)"/>
      </defs>
      <use xlink:href="#DejaVuSans-4c"/>
      <use xlink:href="#DejaVuSans-65" transform="translate(53.962891 0)"/>
      <use xlink:href="#DejaVuSans-61" transform="translate(115.486328 0)"/>
      <use xlink:href="#DejaVuSans-6e" transform="translate(176.765625 0)"/>
      <use xlink:href="#DejaVuSans-20" transform="translate(240.144531 0)"/>
      <use xlink:href="#DejaVuSans-46" transform="translate(271.931641 0)"/>
      <use xlink:href="#DejaVuSans-6f" transform="translate(325.826172 0)"/>
      <use xlink:href="#DejaVuSans-72" transform="translate(387.007812 0)"/>
      <use xlink:href="#DejaVuSans-6d" transform="translate(426.371094 0)"/>
      <use xlink:href="#DejaVuSans-61" transform="translate(523.783203 0)"/>
      <use xlink:href="#DejaVuSans-6c" transform="translate(585.0625 0)"/>
      <use xlink:href="#DejaVuSans-69" transform="translate(612.845703 0)"/>
      <use xlink:href="#DejaVuSans-7a" transform="translate(640.628906 0)"/>
      <use xlink:href="#DejaVuSans-65" transform="translate(693.119141 0)"/>
      <use xlink:href="#DejaVuSans-64" transform="translate(754.642578 0)"/>
      <use xlink:href="#DejaVuSans-20" transform="translate(818.119141 0)"/>
      <use xlink:href="#DejaVuSans-50" transform="translate(849.90625 0)"/>
      <use xlink:href="#DejaVuSans-72" transform="translate(908.458984 0)"/>
      <use xlink:href="#DejaVuSans-6f" transform="translate(947.322266 0)"/>
      <use xlink:href="#DejaVuSans-62" transform="translate(1008.503906 0)"/>
      <use xlink:href="#DejaVuSans-6c" transform="translate(1071.980469 0)"/>
      <use xlink:href="#DejaVuSans-65" transform="translate(1099.763672 0)"/>
      <use xlink:href="#DejaVuSans-6d" transform="translate(1161.287109 0)"/>
     </g>
    </g>
    <g id="line2d_34">
     <path d="M 57.90125 80.8525 
L 67.90125 80.8525 
L 77.90125 80.8525 
" style="fill: none; stroke: #bf8700; stroke-width: 2; stroke-linecap: square"/>
    </g>
    <g id="text_24">
     <!-- Lean Formalized Solution -->
     <g style="fill: #24292f" transform="translate(85.90125 84.3525) scale(0.1 -0.1)">
      <use xlink:href="#DejaVuSans-4c"/>
      <use xlink:href="#DejaVuSans-65" transform="translate(53.962891 0)"/>
      <use xlink:href="#DejaVuSans-61" transform="translate(115.486328 0)"/>
      <use xlink:href="#DejaVuSans-6e" transform="translate(176.765625 0)"/>
      <use xlink:href="#DejaVuSans-20" transform="translate(240.144531 0)"/>
      <use xlink:href="#DejaVuSans-46" transform="translate(271.931641 0)"/>
      <use xlink:href="#DejaVuSans-6f" transform="translate(325.826172 0)"/>
      <use xlink:href="#DejaVuSans-72" transform="translate(387.007812 0)"/>
      <use xlink:href="#DejaVuSans-6d" transform="translate(426.371094 0)"/>
      <use xlink:href="#DejaVuSans-61" transform="translate(523.783203 0)"/>
      <use xlink:href="#DejaVuSans-6c" transform="translate(585.0625 0)"/>
      <use xlink:href="#DejaVuSans-69" transform="translate(612.845703 0)"/>
      <use xlink:href="#DejaVuSans-7a" transform="translate(640.628906 0)"/>
      <use xlink:href="#DejaVuSans-65" transform="translate(693.119141 0)"/>
      <use xlink:href="#DejaVuSans-64" transform="translate(754.642578 0)"/>
      <use xlink:href="#DejaVuSans-20" transform="translate(818.119141 0)"/>
      <use xlink:href="#DejaVuSans-53" transform="translate(849.90625 0)"/>
      <use xlink:href="#DejaVuSans-6f" transform="translate(913.382812 0)"/>
      <use xlink:href="#DejaVuSans-6c" transform="translate(974.564453 0)"/>
      <use xlink:href="#DejaVuSans-75" transform="translate(1002.347656 0)"/>
      <use xlink:href="#DejaVuSans-74" transform="translate(1065.726562 0)"/>
      <use xlink:href="#DejaVuSans-69" transform="translate(1104.935547 0)"/>
      <use xlink:href="#DejaVuSans-6f" transform="translate(1132.71875 0)"/>
      <use xlink:href="#DejaVuSans-6e" transform="translate(1193.900391 0)"/>
     </g>
    </g>
    <g id="line2d_35">
     <path d="M 57.90125 95.530625 
L 67.90125 95.530625 
L 77.90125 95.530625 
" style="fill: none; stroke: #cf222e; stroke-width: 2; stroke-linecap: square"/>
    </g>
    <g id="text_25">
     <!-- OEIS Linked -->
     <g style="fill: #24292f" transform="translate(85.90125 99.030625) scale(0.1 -0.1)">
      <defs>
       <path id="DejaVuSans-4f" d="M 2522 4238 
Q 1834 4238 1429 3725 
Q 1025 3213 1025 2328 
Q 1025 1447 1429 934 
Q 1834 422 2522 422 
Q 3209 422 3611 934 
Q 4013 1447 4013 2328 
Q 4013 3213 3611 3725 
Q 3209 4238 2522 4238 
z
M 2522 4750 
Q 3503 4750 4090 4092 
Q 4678 3434 4678 2328 
Q 4678 1225 4090 567 
Q 3503 -91 2522 -91 
Q 1538 -91 948 565 
Q 359 1222 359 2328 
Q 359 3434 948 4092 
Q 1538 4750 2522 4750 
z
" transform="scale(0.015625)"/>
       <path id="DejaVuSans-45" d="M 628 4666 
L 3578 4666 
L 3578 4134 
L 1259 4134 
L 1259 2753 
L 3481 2753 
L 3481 2222 
L 1259 2222 
L 1259 531 
L 3634 531 
L 3634 0 
L 628 0 
L 628 4666 
z
" transform="scale(0.015625)"/>
       <path id="DejaVuSans-49" d="M 628 4666 
L 1259 4666 
L 1259 0 
L 628 0 
L 628 4666 
z
" transform="scale(0.015625)"/>
       <path id="DejaVuSans-6b" d="M 581 4863 
L 1159 4863 
L 1159 1991 
L 2875 3500 
L 3609 3500 
L 1753 1863 
L 3688 0 
L 2938 0 
L 1159 1709 
L 1159 0 
L 581 0 
L 581 4863 
z
" transform="scale(0.015625)"/>
      </defs>
      <use xlink:href="#DejaVuSans-4f"/>
      <use xlink:href="#DejaVuSans-45" transform="translate(78.710938 0)"/>
      <use xlink:href="#DejaVuSans-49" transform="translate(141.894531 0)"/>
      <use xlink:href="#DejaVuSans-53" transform="translate(171.386719 0)"/>
      <use xlink:href="#DejaVuSans-20" transform="translate(234.863281 0)"/>
      <use xlink:href="#DejaVuSans-4c" transform="translate(266.650391 0)"/>
      <use xlink:href="#DejaVuSans-69" transform="translate(322.363281 0)"/>
      <use xlink:href="#DejaVuSans-6e" transform="translate(350.146484 0)"/>
      <use xlink:href="#DejaVuSans-6b" transform="translate(413.525391 0)"/>
      <use xlink:href="#DejaVuSans-65" transform="translate(467.810547 0)"/>
      <use xlink:href="#DejaVuSans-64" transform="translate(529.333984 0)"/>
     </g>
    </g>
    <g id="line2d_36">
     <path d="M 57.90125 110.20875 
L 67.90125 110.20875 
L 77.90125 110.20875 
" style="fill: none; stroke: #9467bd; stroke-width: 2; stroke-linecap: square"/>
    </g>
    <g id="text_26">
     <!-- Open Problems -->
     <g style="fill: #24292f" transform="translate(85.90125 113.70875) scale(0.1 -0.1)">
      <defs>
       <path id="DejaVuSans-73" d="M 2834 3397 
L 2834 2853 
Q 2591 2978 2328 3040 
Q 2066 3103 1784 3103 
Q 1356 3103 1142 2972 
Q 928 2841 928 2578 
Q 928 2378 1081 2264 
Q 1234 2150 1697 2047 
L 1894 2003 
Q 2506 1872 2764 1633 
Q 3022 1394 3022 966 
Q 3022 478 2636 193 
Q 2250 -91 1575 -91 
Q 1294 -91 989 -36 
Q 684 19 347 128 
L 347 722 
Q 666 556 975 473 
Q 1284 391 1588 391 
Q 1994 391 2212 530 
Q 2431 669 2431 922 
Q 2431 1156 2273 1281 
Q 2116 1406 1581 1522 
L 1381 1569 
Q 847 1681 609 1914 
Q 372 2147 372 2553 
Q 372 3047 722 3315 
Q 1072 3584 1716 3584 
Q 2034 3584 2315 3537 
Q 2597 3491 2834 3397 
z
" transform="scale(0.015625)"/>
      </defs>
      <use xlink:href="#DejaVuSans-4f"/>
      <use xlink:href="#DejaVuSans-70" transform="translate(78.710938 0)"/>
      <use xlink:href="#DejaVuSans-65" transform="translate(142.1875 0)"/>
      <use xlink:href="#DejaVuSans-6e" transform="translate(203.710938 0)"/>
      <use xlink:href="#DejaVuSans-20" transform="translate(267.089844 0)"/>
      <use xlink:href="#DejaVuSans-50" transform="translate(298.876953 0)"/>
      <use xlink:href="#DejaVuSans-72" transform="translate(357.429688 0)"/>
      <use xlink:href="#DejaVuSans-6f" transform="translate(396.292969 0)"/>
      <use xlink:href="#DejaVuSans-62" transform="translate(457.474609 0)"/>
      <use xlink:href="#DejaVuSans-6c" transform="translate(520.951172 0)"/>
      <use xlink:href="#DejaVuSans-65" transform="translate(548.734375 0)"/>
      <use xlink:href="#DejaVuSans-6d" transform="translate(610.257812 0)"/>
      <use xlink:href="#DejaVuSans-73" transform="translate(707.669922 0)"/>
     </g>
    </g>
   </g>
  </g>
 </g>
 <defs>
  <clipPath id="pa7430f9c8f">
   <rect x="48.90125" y="38.397812" width="799.45" height="416.84"/>
  </clipPath>
 </defs>
</svg>
