<?xml version="1.0" encoding="utf-8" standalone="no"?>
<!DOCTYPE svg PUBLIC "-//W3C//DTD SVG 1.1//EN"
  "http://www.w3.org/Graphics/SVG/1.1/DTD/svg11.dtd">
<svg xmlns:xlink="http://www.w3.org/1999/xlink" width="855.55125pt" height="494.729687pt" viewBox="0 0 855.55125 494.729687" xmlns="http://www.w3.org/2000/svg" version="1.1">
 <metadata>
  <rdf:RDF xmlns:dc="http://purl.org/dc/elements/1.1/" xmlns:cc="http://creativecommons.org/ns#" xmlns:rdf="http://www.w3.org/1999/02/22-rdf-syntax-ns#">
   <cc:Work>
    <dc:type rdf:resource="http://purl.org/dc/dcmitype/StillImage"/>
    <dc:date>2026-06-14T18:57:11.970749</dc:date>
    <dc:format>image/svg+xml</dc:format>
    <dc:creator>
     <cc:Agent>
      <dc:title>Matplotlib v3.10.7, https://matplotlib.org/</dc:title>
     </cc:Agent>
    </dc:creator>
   </cc:Work>
  </rdf:RDF>
 </metadata>
 <defs>
  <style type="text/css">*{stroke-linejoin: round; stroke-linecap: butt}</style>
 </defs>
 <g id="figure_1">
  <g id="patch_1">
   <path d="M 0 494.729687 
L 855.55125 494.729687 
L 855.55125 0 
L 0 0 
z
" style="fill: #0d1117"/>
  </g>
  <g id="axes_1">
   <g id="patch_2">
    <path d="M 48.90125 455.237812 
L 848.35125 455.237812 
L 848.35125 38.397812 
L 48.90125 38.397812 
z
" style="fill: #0d1117"/>
   </g>
   <g id="matplotlib.axis_1">
    <g id="xtick_1">
     <g id="line2d_1">
      <path d="M 85.979965 455.237812 
L 85.979965 38.397812 
" clip-path="url(#p8786fc53d0)" style="fill: none; stroke: #30363d; stroke-opacity: 0.25; stroke-width: 0.5; stroke-linecap: square"/>
     </g>
     <g id="line2d_2">
      <defs>
       <path id="mb793bdd1f7" d="M 0 0 
L 0 3.5 
" style="stroke: #c9d1d9; stroke-width: 0.8"/>
      </defs>
      <g>
       <use xlink:href="#mb793bdd1f7" x="85.979965" y="455.237812" style="fill: #c9d1d9; stroke: #c9d1d9; stroke-width: 0.8"/>
      </g>
     </g>
     <g id="text_1">
      <!-- Sep -->
      <g style="fill: #c9d1d9" transform="translate(76.554965 469.83625) scale(0.1 -0.1)">
       <defs>
        <path id="DejaVuSans-53" d="M 3425 4513 
L 3425 3897 
Q 3066 4069 2747 4153 
Q 2428 4238 2131 4238 
Q 1616 4238 1336 4038 
Q 1056 3838 1056 3469 
Q 1056 3159 1242 3001 
Q 1428 2844 1947 2747 
L 2328 2669 
Q 3034 2534 3370 2195 
Q 3706 1856 3706 1288 
Q 3706 609 3251 259 
Q 2797 -91 1919 -91 
Q 1588 -91 1214 -16 
Q 841 59 441 206 
L 441 856 
Q 825 641 1194 531 
Q 1563 422 1919 422 
Q 2459 422 2753 634 
Q 3047 847 3047 1241 
Q 3047 1584 2836 1778 
Q 2625 1972 2144 2069 
L 1759 2144 
Q 1053 2284 737 2584 
Q 422 2884 422 3419 
Q 422 4038 858 4394 
Q 1294 4750 2059 4750 
Q 2388 4750 2728 4690 
Q 3069 4631 3425 4513 
z
" transform="scale(0.015625)"/>
        <path id="DejaVuSans-65" d="M 3597 1894 
L 3597 1613 
L 953 1613 
Q 991 1019 1311 708 
Q 1631 397 2203 397 
Q 2534 397 2845 478 
Q 3156 559 3463 722 
L 3463 178 
Q 3153 47 2828 -22 
Q 2503 -91 2169 -91 
Q 1331 -91 842 396 
Q 353 884 353 1716 
Q 353 2575 817 3079 
Q 1281 3584 2069 3584 
Q 2775 3584 3186 3129 
Q 3597 2675 3597 1894 
z
M 3022 2063 
Q 3016 2534 2758 2815 
Q 2500 3097 2075 3097 
Q 1594 3097 1305 2825 
Q 1016 2553 972 2059 
L 3022 2063 
z
" transform="scale(0.015625)"/>
        <path id="DejaVuSans-70" d="M 1159 525 
L 1159 -1331 
L 581 -1331 
L 581 3500 
L 1159 3500 
L 1159 2969 
Q 1341 3281 1617 3432 
Q 1894 3584 2278 3584 
Q 2916 3584 3314 3078 
Q 3713 2572 3713 1747 
Q 3713 922 3314 415 
Q 2916 -91 2278 -91 
Q 1894 -91 1617 61 
Q 1341 213 1159 525 
z
M 3116 1747 
Q 3116 2381 2855 2742 
Q 2594 3103 2138 3103 
Q 1681 3103 1420 2742 
Q 1159 2381 1159 1747 
Q 1159 1113 1420 752 
Q 1681 391 2138 391 
Q 2594 391 2855 752 
Q 3116 1113 3116 1747 
z
" transform="scale(0.015625)"/>
       </defs>
       <use xlink:href="#DejaVuSans-53"/>
       <use xlink:href="#DejaVuSans-65" transform="translate(63.476562 0)"/>
       <use xlink:href="#DejaVuSans-70" transform="translate(125 0)"/>
      </g>
     </g>
    </g>
    <g id="xtick_2">
     <g id="line2d_3">
      <path d="M 240.406675 455.237812 
L 240.406675 38.397812 
" clip-path="url(#p8786fc53d0)" style="fill: none; stroke: #30363d; stroke-opacity: 0.25; stroke-width: 0.5; stroke-linecap: square"/>
     </g>
     <g id="line2d_4">
      <g>
       <use xlink:href="#mb793bdd1f7" x="240.406675" y="455.237812" style="fill: #c9d1d9; stroke: #c9d1d9; stroke-width: 0.8"/>
      </g>
     </g>
     <g id="text_2">
      <!-- Nov -->
      <g style="fill: #c9d1d9" transform="translate(230.6473 469.83625) scale(0.1 -0.1)">
       <defs>
        <path id="DejaVuSans-4e" d="M 628 4666 
L 1478 4666 
L 3547 763 
L 3547 4666 
L 4159 4666 
L 4159 0 
L 3309 0 
L 1241 3903 
L 1241 0 
L 628 0 
L 628 4666 
z
" transform="scale(0.015625)"/>
        <path id="DejaVuSans-6f" d="M 1959 3097 
Q 1497 3097 1228 2736 
Q 959 2375 959 1747 
Q 959 1119 1226 758 
Q 1494 397 1959 397 
Q 2419 397 2687 759 
Q 2956 1122 2956 1747 
Q 2956 2369 2687 2733 
Q 2419 3097 1959 3097 
z
M 1959 3584 
Q 2709 3584 3137 3096 
Q 3566 2609 3566 1747 
Q 3566 888 3137 398 
Q 2709 -91 1959 -91 
Q 1206 -91 779 398 
Q 353 888 353 1747 
Q 353 2609 779 3096 
Q 1206 3584 1959 3584 
z
" transform="scale(0.015625)"/>
        <path id="DejaVuSans-76" d="M 191 3500 
L 800 3500 
L 1894 563 
L 2988 3500 
L 3597 3500 
L 2284 0 
L 1503 0 
L 191 3500 
z
" transform="scale(0.015625)"/>
       </defs>
       <use xlink:href="#DejaVuSans-4e"/>
       <use xlink:href="#DejaVuSans-6f" transform="translate(74.804688 0)"/>
       <use xlink:href="#DejaVuSans-76" transform="translate(135.986328 0)"/>
      </g>
     </g>
    </g>
    <g id="xtick_3">
     <g id="line2d_5">
      <path d="M 394.833386 455.237812 
L 394.833386 38.397812 
" clip-path="url(#p8786fc53d0)" style="fill: none; stroke: #30363d; stroke-opacity: 0.25; stroke-width: 0.5; stroke-linecap: square"/>
     </g>
     <g id="line2d_6">
      <g>
       <use xlink:href="#mb793bdd1f7" x="394.833386" y="455.237812" style="fill: #c9d1d9; stroke: #c9d1d9; stroke-width: 0.8"/>
      </g>
     </g>
     <g id="text_3">
      <!-- 2026 -->
      <g style="fill: #c9d1d9" transform="translate(382.108386 469.83625) scale(0.1 -0.1)">
       <defs>
        <path id="DejaVuSans-32" d="M 1228 531 
L 3431 531 
L 3431 0 
L 469 0 
L 469 531 
Q 828 903 1448 1529 
Q 2069 2156 2228 2338 
Q 2531 2678 2651 2914 
Q 2772 3150 2772 3378 
Q 2772 3750 2511 3984 
Q 2250 4219 1831 4219 
Q 1534 4219 1204 4116 
Q 875 4013 500 3803 
L 500 4441 
Q 881 4594 1212 4672 
Q 1544 4750 1819 4750 
Q 2544 4750 2975 4387 
Q 3406 4025 3406 3419 
Q 3406 3131 3298 2873 
Q 3191 2616 2906 2266 
Q 2828 2175 2409 1742 
Q 1991 1309 1228 531 
z
" transform="scale(0.015625)"/>
        <path id="DejaVuSans-30" d="M 2034 4250 
Q 1547 4250 1301 3770 
Q 1056 3291 1056 2328 
Q 1056 1369 1301 889 
Q 1547 409 2034 409 
Q 2525 409 2770 889 
Q 3016 1369 3016 2328 
Q 3016 3291 2770 3770 
Q 2525 4250 2034 4250 
z
M 2034 4750 
Q 2819 4750 3233 4129 
Q 3647 3509 3647 2328 
Q 3647 1150 3233 529 
Q 2819 -91 2034 -91 
Q 1250 -91 836 529 
Q 422 1150 422 2328 
Q 422 3509 836 4129 
Q 1250 4750 2034 4750 
z
" transform="scale(0.015625)"/>
        <path id="DejaVuSans-36" d="M 2113 2584 
Q 1688 2584 1439 2293 
Q 1191 2003 1191 1497 
Q 1191 994 1439 701 
Q 1688 409 2113 409 
Q 2538 409 2786 701 
Q 3034 994 3034 1497 
Q 3034 2003 2786 2293 
Q 2538 2584 2113 2584 
z
M 3366 4563 
L 3366 3988 
Q 3128 4100 2886 4159 
Q 2644 4219 2406 4219 
Q 1781 4219 1451 3797 
Q 1122 3375 1075 2522 
Q 1259 2794 1537 2939 
Q 1816 3084 2150 3084 
Q 2853 3084 3261 2657 
Q 3669 2231 3669 1497 
Q 3669 778 3244 343 
Q 2819 -91 2113 -91 
Q 1303 -91 875 529 
Q 447 1150 447 2328 
Q 447 3434 972 4092 
Q 1497 4750 2381 4750 
Q 2619 4750 2861 4703 
Q 3103 4656 3366 4563 
z
" transform="scale(0.015625)"/>
       </defs>
       <use xlink:href="#DejaVuSans-32"/>
       <use xlink:href="#DejaVuSans-30" transform="translate(63.623047 0)"/>
       <use xlink:href="#DejaVuSans-32" transform="translate(127.246094 0)"/>
       <use xlink:href="#DejaVuSans-36" transform="translate(190.869141 0)"/>
      </g>
     </g>
    </g>
    <g id="xtick_4">
     <g id="line2d_7">
      <path d="M 544.196925 455.237812 
L 544.196925 38.397812 
" clip-path="url(#p8786fc53d0)" style="fill: none; stroke: #30363d; stroke-opacity: 0.25; stroke-width: 0.5; stroke-linecap: square"/>
     </g>
     <g id="line2d_8">
      <g>
       <use xlink:href="#mb793bdd1f7" x="544.196925" y="455.237812" style="fill: #c9d1d9; stroke: #c9d1d9; stroke-width: 0.8"/>
      </g>
     </g>
     <g id="text_4">
      <!-- Mar -->
      <g style="fill: #c9d1d9" transform="translate(534.763331 469.83625) scale(0.1 -0.1)">
       <defs>
        <path id="DejaVuSans-4d" d="M 628 4666 
L 1569 4666 
L 2759 1491 
L 3956 4666 
L 4897 4666 
L 4897 0 
L 4281 0 
L 4281 4097 
L 3078 897 
L 2444 897 
L 1241 4097 
L 1241 0 
L 628 0 
L 628 4666 
z
" transform="scale(0.015625)"/>
        <path id="DejaVuSans-61" d="M 2194 1759 
Q 1497 1759 1228 1600 
Q 959 1441 959 1056 
Q 959 750 1161 570 
Q 1363 391 1709 391 
Q 2188 391 2477 730 
Q 2766 1069 2766 1631 
L 2766 1759 
L 2194 1759 
z
M 3341 1997 
L 3341 0 
L 2766 0 
L 2766 531 
Q 2569 213 2275 61 
Q 1981 -91 1556 -91 
Q 1019 -91 701 211 
Q 384 513 384 1019 
Q 384 1609 779 1909 
Q 1175 2209 1959 2209 
L 2766 2209 
L 2766 2266 
Q 2766 2663 2505 2880 
Q 2244 3097 1772 3097 
Q 1472 3097 1187 3025 
Q 903 2953 641 2809 
L 641 3341 
Q 956 3463 1253 3523 
Q 1550 3584 1831 3584 
Q 2591 3584 2966 3190 
Q 3341 2797 3341 1997 
z
" transform="scale(0.015625)"/>
        <path id="DejaVuSans-72" d="M 2631 2963 
Q 2534 3019 2420 3045 
Q 2306 3072 2169 3072 
Q 1681 3072 1420 2755 
Q 1159 2438 1159 1844 
L 1159 0 
L 581 0 
L 581 3500 
L 1159 3500 
L 1159 2956 
Q 1341 3275 1631 3429 
Q 1922 3584 2338 3584 
Q 2397 3584 2469 3576 
Q 2541 3569 2628 3553 
L 2631 2963 
z
" transform="scale(0.015625)"/>
       </defs>
       <use xlink:href="#DejaVuSans-4d"/>
       <use xlink:href="#DejaVuSans-61" transform="translate(86.279297 0)"/>
       <use xlink:href="#DejaVuSans-72" transform="translate(147.558594 0)"/>
      </g>
     </g>
    </g>
    <g id="xtick_5">
     <g id="line2d_9">
      <path d="M 698.623635 455.237812 
L 698.623635 38.397812 
" clip-path="url(#p8786fc53d0)" style="fill: none; stroke: #30363d; stroke-opacity: 0.25; stroke-width: 0.5; stroke-linecap: square"/>
     </g>
     <g id="line2d_10">
      <g>
       <use xlink:href="#mb793bdd1f7" x="698.623635" y="455.237812" style="fill: #c9d1d9; stroke: #c9d1d9; stroke-width: 0.8"/>
      </g>
     </g>
     <g id="text_5">
      <!-- May -->
      <g style="fill: #c9d1d9" transform="translate(688.286135 469.83625) scale(0.1 -0.1)">
       <defs>
        <path id="DejaVuSans-79" d="M 2059 -325 
Q 1816 -950 1584 -1140 
Q 1353 -1331 966 -1331 
L 506 -1331 
L 506 -850 
L 844 -850 
Q 1081 -850 1212 -737 
Q 1344 -625 1503 -206 
L 1606 56 
L 191 3500 
L 800 3500 
L 1894 763 
L 2988 3500 
L 3597 3500 
L 2059 -325 
z
" transform="scale(0.015625)"/>
       </defs>
       <use xlink:href="#DejaVuSans-4d"/>
       <use xlink:href="#DejaVuSans-61" transform="translate(86.279297 0)"/>
       <use xlink:href="#DejaVuSans-79" transform="translate(147.558594 0)"/>
      </g>
     </g>
    </g>
    <g id="text_6">
     <!-- Date -->
     <g style="fill: #c9d1d9" transform="translate(434.285313 485.034062) scale(0.12 -0.12)">
      <defs>
       <path id="DejaVuSans-44" d="M 1259 4147 
L 1259 519 
L 2022 519 
Q 2988 519 3436 956 
Q 3884 1394 3884 2338 
Q 3884 3275 3436 3711 
Q 2988 4147 2022 4147 
L 1259 4147 
z
M 628 4666 
L 1925 4666 
Q 3281 4666 3915 4102 
Q 4550 3538 4550 2338 
Q 4550 1131 3912 565 
Q 3275 0 1925 0 
L 628 0 
L 628 4666 
z
" transform="scale(0.015625)"/>
       <path id="DejaVuSans-74" d="M 1172 4494 
L 1172 3500 
L 2356 3500 
L 2356 3053 
L 1172 3053 
L 1172 1153 
Q 1172 725 1289 603 
Q 1406 481 1766 481 
L 2356 481 
L 2356 0 
L 1766 0 
Q 1100 0 847 248 
Q 594 497 594 1153 
L 594 3053 
L 172 3053 
L 172 3500 
L 594 3500 
L 594 4494 
L 1172 4494 
z
" transform="scale(0.015625)"/>
      </defs>
      <use xlink:href="#DejaVuSans-44"/>
      <use xlink:href="#DejaVuSans-61" transform="translate(77.001953 0)"/>
      <use xlink:href="#DejaVuSans-74" transform="translate(138.28125 0)"/>
      <use xlink:href="#DejaVuSans-65" transform="translate(177.490234 0)"/>
     </g>
    </g>
   </g>
   <g id="matplotlib.axis_2">
    <g id="ytick_1">
     <g id="line2d_11">
      <path d="M 48.90125 455.237812 
L 848.35125 455.237812 
" clip-path="url(#p8786fc53d0)" style="fill: none; stroke: #30363d; stroke-opacity: 0.25; stroke-width: 0.5; stroke-linecap: square"/>
     </g>
     <g id="line2d_12">
      <defs>
       <path id="mfb5f339e76" d="M 0 0 
L -3.5 0 
" style="stroke: #c9d1d9; stroke-width: 0.8"/>
      </defs>
      <g>
       <use xlink:href="#mfb5f339e76" x="48.90125" y="455.237812" style="fill: #c9d1d9; stroke: #c9d1d9; stroke-width: 0.8"/>
      </g>
     </g>
     <g id="text_7">
      <!-- 0 -->
      <g style="fill: #c9d1d9" transform="translate(35.53875 459.037031) scale(0.1 -0.1)">
       <use xlink:href="#DejaVuSans-30"/>
      </g>
     </g>
    </g>
    <g id="ytick_2">
     <g id="line2d_13">
      <path d="M 48.90125 399.659146 
L 848.35125 399.659146 
" clip-path="url(#p8786fc53d0)" style="fill: none; stroke: #30363d; stroke-opacity: 0.25; stroke-width: 0.5; stroke-linecap: square"/>
     </g>
     <g id="line2d_14">
      <g>
       <use xlink:href="#mfb5f339e76" x="48.90125" y="399.659146" style="fill: #c9d1d9; stroke: #c9d1d9; stroke-width: 0.8"/>
      </g>
     </g>
     <g id="text_8">
      <!-- 100 -->
      <g style="fill: #c9d1d9" transform="translate(22.81375 403.458365) scale(0.1 -0.1)">
       <defs>
        <path id="DejaVuSans-31" d="M 794 531 
L 1825 531 
L 1825 4091 
L 703 3866 
L 703 4441 
L 1819 4666 
L 2450 4666 
L 2450 531 
L 3481 531 
L 3481 0 
L 794 0 
L 794 531 
z
" transform="scale(0.015625)"/>
       </defs>
       <use xlink:href="#DejaVuSans-31"/>
       <use xlink:href="#DejaVuSans-30" transform="translate(63.623047 0)"/>
       <use xlink:href="#DejaVuSans-30" transform="translate(127.246094 0)"/>
      </g>
     </g>
    </g>
    <g id="ytick_3">
     <g id="line2d_15">
      <path d="M 48.90125 344.080479 
L 848.35125 344.080479 
" clip-path="url(#p8786fc53d0)" style="fill: none; stroke: #30363d; stroke-opacity: 0.25; stroke-width: 0.5; stroke-linecap: square"/>
     </g>
     <g id="line2d_16">
      <g>
       <use xlink:href="#mfb5f339e76" x="48.90125" y="344.080479" style="fill: #c9d1d9; stroke: #c9d1d9; stroke-width: 0.8"/>
      </g>
     </g>
     <g id="text_9">
      <!-- 200 -->
      <g style="fill: #c9d1d9" transform="translate(22.81375 347.879698) scale(0.1 -0.1)">
       <use xlink:href="#DejaVuSans-32"/>
       <use xlink:href="#DejaVuSans-30" transform="translate(63.623047 0)"/>
       <use xlink:href="#DejaVuSans-30" transform="translate(127.246094 0)"/>
      </g>
     </g>
    </g>
    <g id="ytick_4">
     <g id="line2d_17">
      <path d="M 48.90125 288.501812 
L 848.35125 288.501812 
" clip-path="url(#p8786fc53d0)" style="fill: none; stroke: #30363d; stroke-opacity: 0.25; stroke-width: 0.5; stroke-linecap: square"/>
     </g>
     <g id="line2d_18">
      <g>
       <use xlink:href="#mfb5f339e76" x="48.90125" y="288.501812" style="fill: #c9d1d9; stroke: #c9d1d9; stroke-width: 0.8"/>
      </g>
     </g>
     <g id="text_10">
      <!-- 300 -->
      <g style="fill: #c9d1d9" transform="translate(22.81375 292.301031) scale(0.1 -0.1)">
       <defs>
        <path id="DejaVuSans-33" d="M 2597 2516 
Q 3050 2419 3304 2112 
Q 3559 1806 3559 1356 
Q 3559 666 3084 287 
Q 2609 -91 1734 -91 
Q 1441 -91 1130 -33 
Q 819 25 488 141 
L 488 750 
Q 750 597 1062 519 
Q 1375 441 1716 441 
Q 2309 441 2620 675 
Q 2931 909 2931 1356 
Q 2931 1769 2642 2001 
Q 2353 2234 1838 2234 
L 1294 2234 
L 1294 2753 
L 1863 2753 
Q 2328 2753 2575 2939 
Q 2822 3125 2822 3475 
Q 2822 3834 2567 4026 
Q 2313 4219 1838 4219 
Q 1578 4219 1281 4162 
Q 984 4106 628 3988 
L 628 4550 
Q 988 4650 1302 4700 
Q 1616 4750 1894 4750 
Q 2613 4750 3031 4423 
Q 3450 4097 3450 3541 
Q 3450 3153 3228 2886 
Q 3006 2619 2597 2516 
z
" transform="scale(0.015625)"/>
       </defs>
       <use xlink:href="#DejaVuSans-33"/>
       <use xlink:href="#DejaVuSans-30" transform="translate(63.623047 0)"/>
       <use xlink:href="#DejaVuSans-30" transform="translate(127.246094 0)"/>
      </g>
     </g>
    </g>
    <g id="ytick_5">
     <g id="line2d_19">
      <path d="M 48.90125 232.923146 
L 848.35125 232.923146 
" clip-path="url(#p8786fc53d0)" style="fill: none; stroke: #30363d; stroke-opacity: 0.25; stroke-width: 0.5; stroke-linecap: square"/>
     </g>
     <g id="line2d_20">
      <g>
       <use xlink:href="#mfb5f339e76" x="48.90125" y="232.923146" style="fill: #c9d1d9; stroke: #c9d1d9; stroke-width: 0.8"/>
      </g>
     </g>
     <g id="text_11">
      <!-- 400 -->
      <g style="fill: #c9d1d9" transform="translate(22.81375 236.722365) scale(0.1 -0.1)">
       <defs>
        <path id="DejaVuSans-34" d="M 2419 4116 
L 825 1625 
L 2419 1625 
L 2419 4116 
z
M 2253 4666 
L 3047 4666 
L 3047 1625 
L 3713 1625 
L 3713 1100 
L 3047 1100 
L 3047 0 
L 2419 0 
L 2419 1100 
L 313 1100 
L 313 1709 
L 2253 4666 
z
" transform="scale(0.015625)"/>
       </defs>
       <use xlink:href="#DejaVuSans-34"/>
       <use xlink:href="#DejaVuSans-30" transform="translate(63.623047 0)"/>
       <use xlink:href="#DejaVuSans-30" transform="translate(127.246094 0)"/>
      </g>
     </g>
    </g>
    <g id="ytick_6">
     <g id="line2d_21">
      <path d="M 48.90125 177.344479 
L 848.35125 177.344479 
" clip-path="url(#p8786fc53d0)" style="fill: none; stroke: #30363d; stroke-opacity: 0.25; stroke-width: 0.5; stroke-linecap: square"/>
     </g>
     <g id="line2d_22">
      <g>
       <use xlink:href="#mfb5f339e76" x="48.90125" y="177.344479" style="fill: #c9d1d9; stroke: #c9d1d9; stroke-width: 0.8"/>
      </g>
     </g>
     <g id="text_12">
      <!-- 500 -->
      <g style="fill: #c9d1d9" transform="translate(22.81375 181.143698) scale(0.1 -0.1)">
       <defs>
        <path id="DejaVuSans-35" d="M 691 4666 
L 3169 4666 
L 3169 4134 
L 1269 4134 
L 1269 2991 
Q 1406 3038 1543 3061 
Q 1681 3084 1819 3084 
Q 2600 3084 3056 2656 
Q 3513 2228 3513 1497 
Q 3513 744 3044 326 
Q 2575 -91 1722 -91 
Q 1428 -91 1123 -41 
Q 819 9 494 109 
L 494 744 
Q 775 591 1075 516 
Q 1375 441 1709 441 
Q 2250 441 2565 725 
Q 2881 1009 2881 1497 
Q 2881 1984 2565 2268 
Q 2250 2553 1709 2553 
Q 1456 2553 1204 2497 
Q 953 2441 691 2322 
L 691 4666 
z
" transform="scale(0.015625)"/>
       </defs>
       <use xlink:href="#DejaVuSans-35"/>
       <use xlink:href="#DejaVuSans-30" transform="translate(63.623047 0)"/>
       <use xlink:href="#DejaVuSans-30" transform="translate(127.246094 0)"/>
      </g>
     </g>
    </g>
    <g id="ytick_7">
     <g id="line2d_23">
      <path d="M 48.90125 121.765812 
L 848.35125 121.765812 
" clip-path="url(#p8786fc53d0)" style="fill: none; stroke: #30363d; stroke-opacity: 0.25; stroke-width: 0.5; stroke-linecap: square"/>
     </g>
     <g id="line2d_24">
      <g>
       <use xlink:href="#mfb5f339e76" x="48.90125" y="121.765812" style="fill: #c9d1d9; stroke: #c9d1d9; stroke-width: 0.8"/>
      </g>
     </g>
     <g id="text_13">
      <!-- 600 -->
      <g style="fill: #c9d1d9" transform="translate(22.81375 125.565031) scale(0.1 -0.1)">
       <use xlink:href="#DejaVuSans-36"/>
       <use xlink:href="#DejaVuSans-30" transform="translate(63.623047 0)"/>
       <use xlink:href="#DejaVuSans-30" transform="translate(127.246094 0)"/>
      </g>
     </g>
    </g>
    <g id="ytick_8">
     <g id="line2d_25">
      <path d="M 48.90125 66.187146 
L 848.35125 66.187146 
" clip-path="url(#p8786fc53d0)" style="fill: none; stroke: #30363d; stroke-opacity: 0.25; stroke-width: 0.5; stroke-linecap: square"/>
     </g>
     <g id="line2d_26">
      <g>
       <use xlink:href="#mfb5f339e76" x="48.90125" y="66.187146" style="fill: #c9d1d9; stroke: #c9d1d9; stroke-width: 0.8"/>
      </g>
     </g>
     <g id="text_14">
      <!-- 700 -->
      <g style="fill: #c9d1d9" transform="translate(22.81375 69.986365) scale(0.1 -0.1)">
       <defs>
        <path id="DejaVuSans-37" d="M 525 4666 
L 3525 4666 
L 3525 4397 
L 1831 0 
L 1172 0 
L 2766 4134 
L 525 4134 
L 525 4666 
z
" transform="scale(0.015625)"/>
       </defs>
       <use xlink:href="#DejaVuSans-37"/>
       <use xlink:href="#DejaVuSans-30" transform="translate(63.623047 0)"/>
       <use xlink:href="#DejaVuSans-30" transform="translate(127.246094 0)"/>
      </g>
     </g>
    </g>
    <g id="text_15">
     <!-- Count -->
     <g style="fill: #c9d1d9" transform="translate(16.318125 264.635937) rotate(-90) scale(0.12 -0.12)">
      <defs>
       <path id="DejaVuSans-43" d="M 4122 4306 
L 4122 3641 
Q 3803 3938 3442 4084 
Q 3081 4231 2675 4231 
Q 1875 4231 1450 3742 
Q 1025 3253 1025 2328 
Q 1025 1406 1450 917 
Q 1875 428 2675 428 
Q 3081 428 3442 575 
Q 3803 722 4122 1019 
L 4122 359 
Q 3791 134 3420 21 
Q 3050 -91 2638 -91 
Q 1578 -91 968 557 
Q 359 1206 359 2328 
Q 359 3453 968 4101 
Q 1578 4750 2638 4750 
Q 3056 4750 3426 4639 
Q 3797 4528 4122 4306 
z
" transform="scale(0.015625)"/>
       <path id="DejaVuSans-75" d="M 544 1381 
L 544 3500 
L 1119 3500 
L 1119 1403 
Q 1119 906 1312 657 
Q 1506 409 1894 409 
Q 2359 409 2629 706 
Q 2900 1003 2900 1516 
L 2900 3500 
L 3475 3500 
L 3475 0 
L 2900 0 
L 2900 538 
Q 2691 219 2414 64 
Q 2138 -91 1772 -91 
Q 1169 -91 856 284 
Q 544 659 544 1381 
z
M 1991 3584 
L 1991 3584 
z
" transform="scale(0.015625)"/>
       <path id="DejaVuSans-6e" d="M 3513 2113 
L 3513 0 
L 2938 0 
L 2938 2094 
Q 2938 2591 2744 2837 
Q 2550 3084 2163 3084 
Q 1697 3084 1428 2787 
Q 1159 2491 1159 1978 
L 1159 0 
L 581 0 
L 581 3500 
L 1159 3500 
L 1159 2956 
Q 1366 3272 1645 3428 
Q 1925 3584 2291 3584 
Q 2894 3584 3203 3211 
Q 3513 2838 3513 2113 
z
" transform="scale(0.015625)"/>
      </defs>
      <use xlink:href="#DejaVuSans-43"/>
      <use xlink:href="#DejaVuSans-6f" transform="translate(69.824219 0)"/>
      <use xlink:href="#DejaVuSans-75" transform="translate(131.005859 0)"/>
      <use xlink:href="#DejaVuSans-6e" transform="translate(194.384766 0)"/>
      <use xlink:href="#DejaVuSans-74" transform="translate(257.763672 0)"/>
     </g>
    </g>
   </g>
   <g id="line2d_27">
    <path d="M 85.239886 454.682026 
L 85.288379 454.682026 
L 85.405377 454.126239 
L 85.471304 454.126239 
L 85.633425 257.933546 
L 87.672787 257.933546 
L 87.682104 261.268266 
L 90.149345 261.268266 
L 90.309093 260.712479 
L 90.611272 260.712479 
L 90.888867 260.156692 
L 92.608968 259.600906 
L 92.642928 260.156692 
L 92.705514 259.600906 
L 98.052023 259.600906 
L 101.265496 260.712479 
L 101.743626 259.600906 
L 102.092744 259.600906 
L 102.972646 259.045119 
L 103.340781 256.821972 
L 104.057594 256.821972 
L 105.102166 260.712479 
L 105.169939 256.821972 
L 105.971491 256.266186 
L 108.057558 256.266186 
L 108.607797 255.710399 
L 109.425112 255.710399 
L 109.693361 254.598826 
L 114.738541 254.598826 
L 115.110104 253.487252 
L 115.129149 252.375679 
L 116.733336 252.375679 
L 119.098786 251.264106 
L 120.339644 251.264106 
L 120.358426 250.708319 
L 123.2081 250.708319 
L 123.915011 247.929386 
L 126.152211 247.929386 
L 126.167741 247.373599 
L 138.697184 247.373599 
L 141.039252 246.817812 
L 141.119214 247.373599 
L 143.548247 246.817812 
L 152.001075 246.817812 
L 156.098054 246.262026 
L 156.177195 245.706239 
L 156.371811 245.150452 
L 158.683055 245.150452 
L 159.66674 244.594666 
L 163.723341 244.594666 
L 163.877346 247.373599 
L 163.884906 245.150452 
L 164.082129 245.150452 
L 165.179589 242.927306 
L 169.856429 242.927306 
L 173.531301 242.371519 
L 177.61568 242.371519 
L 177.794913 241.815732 
L 188.408145 241.815732 
L 188.861106 241.259946 
L 191.438136 241.259946 
L 191.456303 240.148372 
L 196.366465 240.148372 
L 196.466059 236.257866 
L 205.353183 236.257866 
L 205.35585 235.702079 
L 205.613227 235.702079 
L 206.733337 235.146292 
L 207.871642 235.146292 
L 208.233682 234.590506 
L 208.269898 235.146292 
L 209.098933 234.590506 
L 209.102713 234.034719 
L 209.122081 234.590506 
L 209.600973 234.034719 
L 213.963357 234.034719 
L 215.31966 233.478932 
L 216.929033 233.478932 
L 219.66253 232.923146 
L 222.250285 232.923146 
L 224.249593 231.811572 
L 228.624958 231.811572 
L 231.170139 230.699999 
L 231.887246 231.255786 
L 235.43964 231.255786 
L 239.4469 229.032639 
L 245.423229 229.032639 
L 247.276707 228.476852 
L 280.30789 228.476852 
L 280.574644 227.921066 
L 292.620361 227.921066 
L 292.821628 227.365279 
L 313.318591 227.365279 
L 317.831963 226.809492 
L 317.85807 227.365279 
L 321.088976 225.697919 
L 325.830513 225.697919 
L 328.419557 225.142132 
L 328.423806 224.586346 
L 333.825869 224.586346 
L 335.764729 225.142132 
L 336.461706 224.586346 
L 345.502338 224.586346 
L 345.887086 225.142132 
L 346.591887 224.586346 
L 346.834087 222.363199 
L 350.977126 222.363199 
L 350.9807 221.807412 
L 363.658318 221.807412 
L 364.396579 221.251626 
L 366.832996 221.251626 
L 367.070684 220.695839 
L 378.951467 220.695839 
L 378.967612 220.140052 
L 381.939177 220.140052 
L 381.943602 219.584266 
L 382.664664 219.584266 
L 382.702315 219.028479 
L 383.822044 219.028479 
L 383.997966 218.472692 
L 386.394533 218.472692 
L 386.758829 217.361119 
L 388.078155 215.137972 
L 391.268509 215.137972 
L 391.504058 212.359039 
L 392.573858 212.359039 
L 393.098898 211.247466 
L 395.804413 211.247466 
L 396.692167 210.691679 
L 399.233363 210.691679 
L 399.573955 210.135892 
L 406.476071 210.135892 
L 406.646132 209.580106 
L 407.284508 209.580106 
L 408.275606 209.024319 
L 419.439312 209.024319 
L 419.539608 208.468532 
L 419.897546 208.468532 
L 420.644774 207.356959 
L 421.692393 207.356959 
L 421.944292 206.801172 
L 422.18699 206.801172 
L 422.279082 206.245386 
L 425.080704 206.245386 
L 425.557661 205.689599 
L 427.996246 205.689599 
L 428.152595 205.133812 
L 429.488358 205.133812 
L 429.647432 204.578026 
L 433.725189 204.578026 
L 433.814439 204.022239 
L 436.235502 204.022239 
L 437.044144 201.799092 
L 437.940689 201.799092 
L 437.941626 201.243306 
L 441.581952 201.243306 
L 442.249336 200.687519 
L 445.036687 200.687519 
L 445.585696 200.131732 
L 445.792208 200.131732 
L 446.328646 199.575946 
L 447.698925 199.575946 
L 447.857296 199.020159 
L 451.293952 199.020159 
L 452.179802 198.464372 
L 452.244322 197.908586 
L 452.531118 197.908586 
L 453.436336 195.685439 
L 456.24367 195.685439 
L 456.263888 195.129652 
L 458.935648 195.129652 
L 459.190242 194.573866 
L 459.493974 194.573866 
L 459.799493 194.018079 
L 459.863222 194.573866 
L 460.092003 194.018079 
L 461.108446 194.018079 
L 461.118174 193.462292 
L 461.388092 193.462292 
L 461.506291 192.906506 
L 462.323021 192.350719 
L 468.005492 192.350719 
L 468.893657 191.794932 
L 469.488199 191.794932 
L 469.970548 191.239146 
L 470.458493 191.794932 
L 472.467558 191.794932 
L 472.554201 190.683359 
L 475.438362 190.683359 
L 476.557416 189.015999 
L 488.703957 189.015999 
L 489.409901 188.460212 
L 508.158752 188.460212 
L 508.273933 187.904426 
L 535.823413 187.904426 
L 535.953479 186.792852 
L 535.962123 187.348639 
L 539.977411 187.348639 
L 540.884006 186.792852 
L 556.702869 186.792852 
L 559.958037 186.237066 
L 559.989682 185.681279 
L 560.259161 185.681279 
L 561.103257 185.125492 
L 586.491484 185.125492 
L 586.737903 184.569706 
L 609.314898 184.569706 
L 612.212802 184.013919 
L 613.98541 184.013919 
L 614.177769 183.458132 
L 615.409807 182.902346 
L 618.864865 182.902346 
L 620.319999 182.346559 
L 621.842642 182.346559 
L 621.961222 181.790772 
L 624.465675 181.790772 
L 624.764836 181.234986 
L 624.824053 180.679199 
L 629.283013 180.679199 
L 629.3003 180.123412 
L 633.096887 180.123412 
L 633.105267 179.567626 
L 634.391629 179.011839 
L 636.675271 179.011839 
L 638.318634 178.456052 
L 639.789327 178.456052 
L 641.956938 175.121332 
L 644.487586 175.121332 
L 644.499306 172.342399 
L 657.223482 172.342399 
L 657.224801 171.786612 
L 657.444879 171.230826 
L 658.663614 171.230826 
L 658.928698 170.675039 
L 662.92623 170.675039 
L 663.850347 170.119252 
L 664.002388 170.675039 
L 671.152418 170.675039 
L 671.154029 170.119252 
L 674.040886 170.119252 
L 675.221853 167.340319 
L 682.461748 167.340319 
L 682.539073 166.228746 
L 684.175989 164.561386 
L 685.818472 164.561386 
L 685.993427 164.005599 
L 692.897974 164.005599 
L 693.024935 163.449812 
L 699.957875 163.449812 
L 700.108891 162.894026 
L 702.019652 161.226666 
L 702.167708 160.670879 
L 720.99072 160.670879 
L 722.772821 157.891946 
L 727.025123 157.891946 
L 727.302103 157.336159 
L 730.496823 157.336159 
L 731.685907 156.224586 
L 748.524729 156.224586 
L 748.738215 155.668799 
L 751.203229 155.668799 
L 751.467287 155.113012 
L 767.705679 155.113012 
L 767.714 153.445652 
L 768.218354 153.445652 
L 768.303619 152.889866 
L 771.198417 152.889866 
L 771.605932 152.334079 
L 771.608364 152.889866 
L 778.943398 152.889866 
L 780.7129 152.334079 
L 812.012614 152.334079 
L 812.012614 152.334079 
" clip-path="url(#p8786fc53d0)" style="fill: none; stroke: #3fb950; stroke-width: 2; stroke-linecap: square"/>
   </g>
   <g id="line2d_28">
    <path d="M 85.239886 455.237812 
L 85.319145 453.570452 
L 85.405377 453.570452 
L 85.540131 372.981386 
L 86.666745 372.981386 
L 86.691329 370.758239 
L 87.923631 370.758239 
L 88.241134 369.090879 
L 88.673144 370.758239 
L 88.676338 369.090879 
L 89.033807 369.090879 
L 89.17196 367.979306 
L 92.702145 367.979306 
L 92.705514 367.423519 
L 92.72538 367.979306 
L 92.899134 367.423519 
L 92.950088 367.979306 
L 93.186164 367.423519 
L 94.324791 367.423519 
L 94.566142 366.311946 
L 95.964813 366.311946 
L 97.556489 365.756159 
L 97.612512 365.200372 
L 98.042706 364.644586 
L 98.052023 364.088799 
L 101.265496 367.979306 
L 101.743626 366.311946 
L 102.092744 363.533012 
L 104.057594 363.533012 
L 105.102166 367.979306 
L 105.169939 363.533012 
L 124.257654 363.533012 
L 124.843376 362.977226 
L 126.167741 362.977226 
L 129.784802 362.421439 
L 130.665876 361.865652 
L 143.219785 361.865652 
L 143.548247 361.309866 
L 145.235794 360.754079 
L 146.308378 360.754079 
L 147.497285 360.198292 
L 147.529311 359.086719 
L 148.346568 358.530932 
L 148.89584 357.975146 
L 156.46276 357.975146 
L 157.971163 357.419359 
L 158.427171 357.419359 
L 158.683055 356.863572 
L 159.66674 356.863572 
L 160.644008 356.307786 
L 163.723341 356.307786 
L 163.877346 358.530932 
L 163.884906 356.307786 
L 165.061478 356.307786 
L 165.179589 355.751999 
L 166.844986 355.751999 
L 168.483513 355.196212 
L 168.523274 354.640426 
L 173.531301 354.640426 
L 175.643622 354.084639 
L 175.648955 353.528852 
L 182.678089 353.528852 
L 185.610216 352.973066 
L 187.810058 352.973066 
L 188.408145 352.417279 
L 191.766041 352.417279 
L 193.681256 351.861492 
L 193.786241 351.305706 
L 195.65349 351.305706 
L 195.870198 350.749919 
L 196.466059 350.194132 
L 197.796225 350.194132 
L 198.636043 349.638346 
L 200.175827 349.638346 
L 201.180785 349.082559 
L 203.324663 349.082559 
L 204.055043 347.970986 
L 209.600973 347.970986 
L 211.180401 347.415199 
L 213.032443 347.415199 
L 213.450096 346.859412 
L 213.577818 346.303626 
L 213.963357 345.747839 
L 220.341077 345.747839 
L 221.508771 345.192052 
L 222.250285 344.636266 
L 240.386077 344.636266 
L 244.457124 344.080479 
L 244.505763 343.524692 
L 247.276707 343.524692 
L 249.645087 342.968906 
L 253.831169 342.968906 
L 254.184887 342.413119 
L 261.313967 342.413119 
L 266.894648 341.857332 
L 266.948209 341.301546 
L 267.677798 341.301546 
L 269.155992 340.745759 
L 269.238444 339.078399 
L 269.303492 338.522612 
L 272.391177 337.966826 
L 272.576064 337.411039 
L 272.649756 336.299466 
L 272.929402 335.743679 
L 282.977042 335.743679 
L 285.831405 335.187892 
L 287.648403 334.632106 
L 289.071834 334.632106 
L 292.372183 334.076319 
L 292.620361 331.853172 
L 292.821628 331.853172 
L 293.296153 330.741599 
L 299.556231 330.185812 
L 299.755476 329.630026 
L 299.814253 329.074239 
L 301.136802 329.074239 
L 302.385688 328.518452 
L 302.529232 327.962666 
L 302.626716 326.851092 
L 303.453378 326.295306 
L 303.51406 325.739519 
L 305.022346 325.183732 
L 307.004952 324.627946 
L 307.145947 324.072159 
L 307.148936 323.516372 
L 307.547719 322.960586 
L 307.618158 322.404799 
L 310.494116 321.849012 
L 311.009692 321.293226 
L 323.11697 321.293226 
L 325.124775 320.737439 
L 325.307494 320.181652 
L 333.51323 320.181652 
L 333.825869 319.070079 
L 337.244769 319.070079 
L 338.276976 318.514292 
L 338.327403 317.402719 
L 338.592458 316.846932 
L 340.347544 316.291146 
L 340.38707 315.735359 
L 340.598915 315.179572 
L 340.816004 312.956426 
L 341.057823 312.956426 
L 341.066731 312.400639 
L 342.531915 311.844852 
L 343.107939 311.289066 
L 343.247322 310.733279 
L 345.887086 310.177492 
L 347.832481 310.177492 
L 348.50801 309.621706 
L 355.822211 309.621706 
L 358.245354 309.065919 
L 358.254994 308.510132 
L 358.690784 307.954346 
L 364.396579 307.954346 
L 365.997514 307.398559 
L 366.657016 306.842772 
L 366.832996 305.731199 
L 371.448393 305.731199 
L 371.762848 305.175412 
L 374.297305 305.175412 
L 375.510679 304.619626 
L 378.967612 304.619626 
L 381.057488 304.063839 
L 385.397487 304.063839 
L 385.930907 303.508052 
L 388.078155 303.508052 
L 388.662617 302.952266 
L 388.916156 302.396479 
L 389.041036 301.840692 
L 390.808546 301.840692 
L 390.858796 300.729119 
L 391.504058 300.729119 
L 391.927717 299.061759 
L 393.465216 299.061759 
L 393.656169 298.505972 
L 393.804402 298.505972 
L 394.540319 297.950186 
L 395.761546 297.950186 
L 395.804413 297.394399 
L 396.692167 297.394399 
L 396.907791 296.838612 
L 397.742189 296.838612 
L 399.019731 295.727039 
L 399.573955 295.727039 
L 401.717452 294.615466 
L 401.720675 294.059679 
L 402.129919 293.503892 
L 403.17408 292.948106 
L 403.336436 292.392319 
L 404.377492 291.836532 
L 406.07928 291.836532 
L 406.646132 290.724959 
L 408.721622 290.724959 
L 408.780546 290.169172 
L 409.371835 290.169172 
L 409.417222 289.613386 
L 409.741699 289.057599 
L 410.870715 289.057599 
L 410.956596 288.501812 
L 411.15001 288.501812 
L 411.266744 287.946026 
L 411.276033 287.946026 
L 411.36833 287.390239 
L 412.866302 287.390239 
L 413.180699 286.834452 
L 413.444699 286.834452 
L 413.602484 286.278666 
L 414.005428 286.278666 
L 414.307108 285.722879 
L 414.37072 285.167092 
L 414.456952 285.167092 
L 415.973472 284.611306 
L 417.108319 284.611306 
L 417.194229 284.055519 
L 421.670916 284.055519 
L 421.692393 283.499732 
L 421.944292 283.499732 
L 422.537046 282.388159 
L 424.048995 282.388159 
L 424.189199 280.720799 
L 424.230103 279.609226 
L 424.494366 279.053439 
L 425.557661 279.053439 
L 426.059144 278.497652 
L 426.545214 278.497652 
L 426.701944 277.941866 
L 427.455413 277.386079 
L 428.152595 277.386079 
L 429.554197 276.830292 
L 429.647432 276.274506 
L 430.002264 276.274506 
L 430.07326 275.718719 
L 431.319216 275.718719 
L 431.35382 275.162932 
L 437.396251 275.162932 
L 437.507917 274.607146 
L 437.669364 274.607146 
L 437.749062 273.495572 
L 438.527114 273.495572 
L 438.692693 272.939786 
L 439.231592 272.383999 
L 439.36705 271.828212 
L 439.614553 271.828212 
L 439.823995 271.272426 
L 439.892266 270.716639 
L 442.928439 270.716639 
L 443.694801 270.160852 
L 443.846168 269.049279 
L 444.032697 268.493492 
L 444.344076 268.493492 
L 444.533857 267.937706 
L 448.891114 267.937706 
L 449.17876 266.270346 
L 449.774122 266.270346 
L 449.861526 265.714559 
L 452.187977 265.714559 
L 452.244322 264.602986 
L 455.038501 264.602986 
L 455.06745 264.047199 
L 456.413468 264.047199 
L 456.422522 263.491412 
L 457.07798 263.491412 
L 457.186686 262.935626 
L 459.091001 262.935626 
L 459.190242 262.379839 
L 459.316675 262.379839 
L 459.493974 261.824052 
L 459.853875 261.824052 
L 459.863222 261.268266 
L 460.092003 261.268266 
L 460.528437 260.712479 
L 464.053553 260.712479 
L 464.309759 260.156692 
L 465.355708 260.156692 
L 465.357642 259.600906 
L 473.35458 259.600906 
L 474.711879 259.045119 
L 474.75123 258.489332 
L 475.438362 257.933546 
L 476.483198 257.933546 
L 476.557416 256.821972 
L 476.746406 256.821972 
L 476.825079 256.266186 
L 479.599978 256.266186 
L 480.101079 255.710399 
L 484.900924 255.710399 
L 484.915692 255.154612 
L 486.48337 255.154612 
L 487.153332 254.598826 
L 494.531966 254.598826 
L 494.624058 253.487252 
L 497.525947 253.487252 
L 498.103142 252.931466 
L 498.721242 252.931466 
L 499.47685 252.375679 
L 504.471427 252.375679 
L 504.949704 251.819892 
L 505.364134 251.819892 
L 505.567334 251.264106 
L 507.158424 250.708319 
L 507.937297 250.708319 
L 508.273933 250.152532 
L 510.509259 249.596746 
L 514.624931 249.596746 
L 514.947005 249.040959 
L 530.832381 249.040959 
L 531.4128 248.485172 
L 535.086323 248.485172 
L 535.219085 247.929386 
L 535.457711 247.929386 
L 535.529644 247.373599 
L 556.044716 247.373599 
L 556.702869 246.817812 
L 561.601165 246.817812 
L 562.665222 246.262026 
L 562.73654 245.706239 
L 565.28509 245.706239 
L 565.390837 245.150452 
L 573.645856 245.150452 
L 573.662763 244.594666 
L 580.631362 244.594666 
L 580.706372 244.038879 
L 581.15898 243.483092 
L 582.869031 243.483092 
L 582.872958 242.927306 
L 583.220465 242.371519 
L 585.788002 242.371519 
L 586.636259 241.815732 
L 592.111164 241.815732 
L 592.149724 240.704159 
L 626.854039 240.704159 
L 629.3003 240.148372 
L 632.377993 240.148372 
L 632.480253 239.592586 
L 646.125117 239.592586 
L 646.14803 239.036799 
L 660.397311 239.036799 
L 660.544196 238.481012 
L 661.391954 238.481012 
L 661.414047 237.925226 
L 661.605645 237.369439 
L 662.350968 236.257866 
L 662.460524 235.146292 
L 662.523843 234.034719 
L 662.714737 233.478932 
L 662.758893 232.923146 
L 662.92623 232.367359 
L 664.002388 232.367359 
L 664.136175 231.811572 
L 664.142475 231.255786 
L 664.546034 230.699999 
L 671.154029 230.699999 
L 671.866272 229.588426 
L 692.708926 229.588426 
L 692.841365 229.032639 
L 705.563403 229.032639 
L 705.864702 227.921066 
L 707.228975 227.921066 
L 707.411724 227.365279 
L 715.51728 227.365279 
L 715.719836 226.809492 
L 718.905825 226.809492 
L 719.756719 226.253706 
L 719.836739 225.697919 
L 724.616952 225.697919 
L 724.765859 224.586346 
L 725.382552 224.030559 
L 725.959396 224.030559 
L 727.025123 223.474772 
L 730.08881 223.474772 
L 730.135516 222.918986 
L 730.496823 222.363199 
L 732.996676 222.363199 
L 735.645728 221.807412 
L 748.738215 221.807412 
L 750.285763 221.251626 
L 750.85871 220.695839 
L 751.203229 219.584266 
L 753.045602 219.584266 
L 760.552251 218.472692 
L 762.43585 218.472692 
L 762.643358 217.361119 
L 762.898186 217.361119 
L 763.027461 216.805332 
L 773.576759 216.805332 
L 773.589124 216.249546 
L 791.217427 216.249546 
L 793.560491 215.693759 
L 793.700695 214.582186 
L 793.789594 214.582186 
L 793.88866 213.470612 
L 794.027223 213.470612 
L 794.046034 212.914826 
L 795.630209 212.914826 
L 795.787642 212.359039 
L 795.876833 211.803252 
L 796.222524 211.247466 
L 796.477294 211.247466 
L 796.992167 210.691679 
L 808.397955 210.691679 
L 808.430186 210.135892 
L 812.012614 210.135892 
L 812.012614 210.135892 
" clip-path="url(#p8786fc53d0)" style="fill: none; stroke: #58a6ff; stroke-width: 2; stroke-linecap: square"/>
   </g>
   <g id="line2d_29">
    <path d="M 85.239886 455.237812 
L 87.672787 455.237812 
L 87.682104 454.126239 
L 89.690613 454.126239 
L 90.149345 453.570452 
L 213.963357 453.570452 
L 215.31966 453.014666 
L 249.645087 453.014666 
L 250.597684 452.458879 
L 282.977042 452.458879 
L 285.831405 451.903092 
L 293.296153 451.903092 
L 299.814253 450.235732 
L 301.136802 449.124159 
L 303.51406 449.124159 
L 305.022346 448.568372 
L 307.148936 448.012586 
L 307.618158 448.012586 
L 310.494116 447.456799 
L 311.009692 446.901012 
L 313.318591 446.345226 
L 317.831963 445.789439 
L 317.85807 446.345226 
L 325.307494 446.345226 
L 325.830513 445.789439 
L 336.461706 445.789439 
L 337.244769 445.233652 
L 340.816004 445.233652 
L 341.066731 444.677866 
L 345.502338 444.677866 
L 345.887086 444.122079 
L 362.13626 444.122079 
L 363.658318 443.566292 
L 364.298012 443.566292 
L 364.396579 443.010506 
L 368.733355 443.010506 
L 368.737487 442.454719 
L 378.951467 442.454719 
L 378.967612 441.898932 
L 381.943602 441.898932 
L 382.702315 441.343146 
L 383.820081 440.787359 
L 383.822044 440.231572 
L 383.997966 440.231572 
L 385.397487 438.564212 
L 386.340268 438.564212 
L 386.394533 436.896852 
L 386.758829 436.896852 
L 388.078155 437.452639 
L 389.026972 437.452639 
L 389.041036 435.229492 
L 392.573858 435.229492 
L 393.098898 434.673706 
L 393.656169 434.673706 
L 393.804402 434.117919 
L 406.476071 434.117919 
L 406.646132 433.562132 
L 407.284508 433.562132 
L 408.275606 433.006346 
L 412.648187 433.006346 
L 412.866302 432.450559 
L 414.37072 432.450559 
L 414.456952 431.894772 
L 419.439312 431.894772 
L 419.539608 431.338986 
L 419.897546 431.338986 
L 420.260583 430.783199 
L 420.623267 430.783199 
L 420.644774 430.227412 
L 422.18699 430.227412 
L 422.279082 429.671626 
L 429.438693 429.671626 
L 429.558123 429.115839 
L 429.573945 429.115839 
L 429.647432 428.560052 
L 430.07326 428.560052 
L 430.965937 428.004266 
L 434.45592 428.004266 
L 434.458997 427.448479 
L 435.125853 427.448479 
L 435.151227 426.892692 
L 437.044144 426.892692 
L 437.489604 426.336906 
L 439.964346 426.336906 
L 440.695985 425.781119 
L 442.11886 425.781119 
L 442.133949 424.669546 
L 442.249336 424.669546 
L 442.39455 424.113759 
L 444.683496 424.113759 
L 445.036687 423.557972 
L 445.585696 423.557972 
L 445.792208 423.002186 
L 447.132248 423.002186 
L 447.319363 422.446399 
L 447.321766 421.890612 
L 447.698925 421.890612 
L 447.857296 421.334826 
L 462.292372 421.334826 
L 462.323021 420.223252 
L 464.309759 420.223252 
L 464.881563 419.667466 
L 465.357642 419.667466 
L 467.590975 419.111679 
L 468.005492 419.111679 
L 468.893657 418.555892 
L 469.488199 418.555892 
L 469.970548 418.000106 
L 470.458493 418.555892 
L 472.029277 418.555892 
L 472.456424 418.000106 
L 472.554201 416.888532 
L 473.349218 416.332746 
L 473.35458 415.221172 
L 476.825079 415.221172 
L 477.584056 414.665386 
L 477.660971 412.998026 
L 478.419567 412.442239 
L 478.839096 411.886452 
L 482.427208 411.886452 
L 482.579455 410.219092 
L 482.762467 410.219092 
L 482.898159 409.663306 
L 483.775072 409.107519 
L 485.155401 409.107519 
L 485.439765 408.551732 
L 485.504461 407.995946 
L 485.649559 407.995946 
L 486.48337 406.884372 
L 487.376721 406.884372 
L 487.670051 406.328586 
L 488.700559 406.328586 
L 488.703957 405.217012 
L 489.409901 405.217012 
L 490.347085 404.661226 
L 492.830002 403.549652 
L 493.163122 402.993866 
L 498.103142 402.993866 
L 498.721242 401.882292 
L 508.158752 401.882292 
L 508.273933 400.770719 
L 512.867559 400.770719 
L 513.56943 400.214932 
L 515.699331 400.214932 
L 515.818878 399.659146 
L 528.922265 399.659146 
L 529.131413 399.103359 
L 530.42932 399.103359 
L 530.832381 398.547572 
L 533.254675 398.547572 
L 533.710243 397.991786 
L 533.713231 397.435999 
L 534.234257 396.880212 
L 535.823413 396.880212 
L 535.944777 396.324426 
L 535.953479 395.212852 
L 535.962123 395.768639 
L 537.030018 395.212852 
L 540.884006 395.212852 
L 541.644214 394.101279 
L 548.598016 394.101279 
L 549.135656 393.545492 
L 550.822588 393.545492 
L 550.957635 392.989706 
L 550.976212 392.433919 
L 556.702869 392.433919 
L 560.259161 391.322346 
L 561.103257 391.322346 
L 561.601165 390.766559 
L 568.967609 390.766559 
L 569.873061 390.210772 
L 570.995017 390.210772 
L 572.081635 389.654986 
L 581.15898 389.654986 
L 581.408095 389.099199 
L 581.409443 388.543412 
L 586.491484 388.543412 
L 586.737903 387.987626 
L 609.314898 387.987626 
L 612.212802 387.431839 
L 618.864865 387.431839 
L 620.319999 386.876052 
L 621.600325 386.876052 
L 621.961222 386.320266 
L 624.824053 386.320266 
L 625.327674 385.764479 
L 625.991893 385.764479 
L 626.854039 385.208692 
L 628.920592 385.208692 
L 629.3003 384.652906 
L 629.55466 384.652906 
L 630.480681 384.097119 
L 639.427111 384.097119 
L 639.452134 382.429759 
L 647.258383 382.429759 
L 650.568636 381.873972 
L 650.571331 381.318186 
L 654.452978 381.318186 
L 654.61592 380.762399 
L 654.728611 380.206612 
L 656.434003 380.206612 
L 657.224801 379.650826 
L 657.79051 379.650826 
L 658.663614 379.095039 
L 659.600565 379.095039 
L 659.762481 377.983466 
L 660.544196 377.983466 
L 660.699988 377.427679 
L 662.459 377.427679 
L 662.523843 376.871892 
L 665.296398 376.871892 
L 667.304994 376.316106 
L 667.963821 376.316106 
L 668.610577 375.760319 
L 669.946603 375.204532 
L 669.952317 374.648746 
L 670.320745 372.981386 
L 670.657411 372.425599 
L 671.154029 371.869812 
L 672.484928 371.869812 
L 673.292047 370.202452 
L 675.221853 370.202452 
L 675.744374 368.535092 
L 677.867858 368.535092 
L 678.092712 367.979306 
L 679.631793 367.979306 
L 679.966261 366.867732 
L 680.545801 366.311946 
L 682.539073 366.311946 
L 685.993427 365.200372 
L 688.208183 364.644586 
L 688.358643 364.088799 
L 690.4535 364.088799 
L 690.587522 363.533012 
L 692.887397 363.533012 
L 692.897974 362.977226 
L 693.329106 362.977226 
L 693.423601 362.421439 
L 699.957875 362.421439 
L 700.108891 361.865652 
L 702.167708 361.309866 
L 705.553704 361.309866 
L 705.563403 360.754079 
L 717.985634 360.754079 
L 718.905825 358.530932 
L 724.003629 358.530932 
L 724.011159 357.419359 
L 730.496823 357.419359 
L 731.683387 355.751999 
L 731.685907 355.196212 
L 736.270479 355.196212 
L 737.813017 354.084639 
L 737.88205 353.528852 
L 766.704003 353.528852 
L 767.853208 352.973066 
L 770.882496 352.973066 
L 771.198417 351.861492 
L 801.797432 351.861492 
L 802.365193 349.638346 
L 812.012614 349.638346 
L 812.012614 349.638346 
" clip-path="url(#p8786fc53d0)" style="fill: none; stroke: #d29922; stroke-width: 2; stroke-linecap: square"/>
   </g>
   <g id="line2d_30">
    <path d="M 85.239886 454.682026 
L 85.44798 454.682026 
L 85.540131 432.450559 
L 86.021718 426.892692 
L 86.296911 425.781119 
L 86.436529 426.336906 
L 86.691329 425.781119 
L 87.122255 425.225332 
L 87.682104 423.002186 
L 87.923631 421.334826 
L 88.241134 421.334826 
L 88.673144 420.779039 
L 88.676338 420.223252 
L 89.024167 419.667466 
L 89.120068 419.111679 
L 89.17196 419.111679 
L 90.061179 418.000106 
L 90.149345 411.886452 
L 90.21032 412.442239 
L 90.48985 405.217012 
L 90.611272 402.993866 
L 92.705514 402.993866 
L 92.899134 399.659146 
L 92.950088 402.438079 
L 93.186164 397.991786 
L 93.303074 397.435999 
L 94.174097 396.880212 
L 94.324791 395.768639 
L 94.566142 395.768639 
L 95.014707 395.212852 
L 95.254328 394.657066 
L 95.362858 393.545492 
L 95.428873 392.989706 
L 95.652731 392.433919 
L 95.658269 391.878132 
L 95.883416 392.433919 
L 95.964813 390.766559 
L 98.052023 390.766559 
L 101.265496 402.993866 
L 101.743626 390.210772 
L 102.092744 389.654986 
L 103.340781 389.654986 
L 103.569063 389.099199 
L 104.057594 388.543412 
L 105.102166 402.993866 
L 105.169939 387.987626 
L 105.971491 387.431839 
L 107.685614 386.876052 
L 107.807857 387.431839 
L 108.057558 385.764479 
L 108.607797 385.764479 
L 108.774987 385.208692 
L 109.090761 384.652906 
L 109.116956 383.541332 
L 109.408235 382.429759 
L 109.425112 382.985546 
L 109.598368 382.985546 
L 109.693361 381.873972 
L 110.399392 376.871892 
L 110.582756 377.983466 
L 111.879256 374.648746 
L 112.220639 375.760319 
L 113.625552 373.537172 
L 114.738541 377.427679 
L 115.129149 373.537172 
L 116.733336 371.869812 
L 119.098786 371.869812 
L 119.411191 371.314026 
L 119.659808 369.646666 
L 120.358426 371.314026 
L 123.2081 371.869812 
L 123.915011 369.646666 
L 124.257654 367.979306 
L 124.843376 369.646666 
L 126.167741 367.979306 
L 130.665876 367.979306 
L 135.395692 367.423519 
L 135.711114 366.867732 
L 138.697184 366.311946 
L 140.671703 366.311946 
L 141.039252 365.756159 
L 141.119214 366.311946 
L 143.219785 364.644586 
L 145.190056 364.644586 
L 145.235794 364.088799 
L 146.308378 363.533012 
L 148.89584 363.533012 
L 150.037222 359.642506 
L 150.886738 359.086719 
L 151.979862 358.530932 
L 152.001075 357.975146 
L 156.098054 357.975146 
L 156.177195 354.084639 
L 156.328827 354.084639 
L 156.46276 352.973066 
L 157.971163 352.973066 
L 158.427171 352.417279 
L 160.644008 352.417279 
L 163.723341 351.861492 
L 163.877346 363.533012 
L 163.884906 352.417279 
L 164.082129 351.861492 
L 165.179589 351.861492 
L 166.844986 351.305706 
L 168.523274 351.305706 
L 169.856429 350.749919 
L 173.531301 349.638346 
L 175.648955 349.638346 
L 177.35086 349.082559 
L 177.61568 346.303626 
L 177.794913 346.303626 
L 178.112064 345.747839 
L 179.766356 345.192052 
L 180.14876 342.968906 
L 182.435127 341.857332 
L 182.46267 342.413119 
L 182.678089 341.857332 
L 185.610216 340.745759 
L 187.810058 340.189972 
L 188.861106 340.189972 
L 189.792694 339.634186 
L 190.600018 338.522612 
L 191.456303 337.966826 
L 191.766041 337.411039 
L 193.786241 337.966826 
L 195.65349 336.855252 
L 195.870198 337.411039 
L 196.366465 337.411039 
L 196.466059 336.855252 
L 197.796225 336.299466 
L 198.636043 336.855252 
L 200.175827 335.743679 
L 201.180785 335.743679 
L 203.324663 335.187892 
L 203.680169 335.743679 
L 204.055043 334.076319 
L 205.35585 334.076319 
L 205.613227 333.520532 
L 206.733337 331.297386 
L 207.049814 330.185812 
L 207.871642 330.741599 
L 208.233682 329.630026 
L 208.269898 329.074239 
L 211.180401 329.074239 
L 212.654492 328.518452 
L 213.032443 327.962666 
L 215.31966 327.962666 
L 216.929033 327.406879 
L 219.66253 327.406879 
L 220.341077 326.851092 
L 227.857718 326.851092 
L 228.289406 326.295306 
L 228.332654 325.739519 
L 228.624958 325.183732 
L 231.887246 325.183732 
L 232.090564 324.627946 
L 232.920566 324.072159 
L 233.064316 323.516372 
L 234.439459 322.960586 
L 235.43964 322.404799 
L 239.4469 322.404799 
L 240.386077 321.293226 
L 244.505763 321.293226 
L 245.423229 320.737439 
L 249.262624 320.737439 
L 249.645087 320.181652 
L 250.597684 319.625866 
L 250.881256 319.070079 
L 250.977539 318.514292 
L 253.831169 317.958506 
L 254.184887 318.514292 
L 257.941508 317.402719 
L 260.911697 316.291146 
L 261.313967 315.735359 
L 266.948209 315.735359 
L 267.677798 315.179572 
L 272.929402 315.179572 
L 277.876308 314.623786 
L 278.498539 314.067999 
L 280.574644 313.512212 
L 282.656609 312.956426 
L 282.977042 312.400639 
L 287.648403 312.400639 
L 289.071834 311.844852 
L 299.814253 311.844852 
L 301.136802 311.289066 
L 310.010331 311.289066 
L 310.494116 310.733279 
L 311.009692 311.289066 
L 313.318591 310.733279 
L 321.088976 310.733279 
L 322.130267 310.177492 
L 338.568196 310.177492 
L 338.592458 309.621706 
L 348.744525 309.621706 
L 350.974987 309.065919 
L 350.9807 308.510132 
L 362.131309 308.510132 
L 362.13626 307.398559 
L 368.737487 307.398559 
L 371.762848 306.842772 
L 375.510679 306.842772 
L 378.967612 305.731199 
L 385.930907 305.731199 
L 386.340268 305.175412 
L 386.394533 304.619626 
L 389.026972 304.619626 
L 389.041036 304.063839 
L 389.314383 304.063839 
L 389.750114 303.508052 
L 393.656169 303.508052 
L 393.804402 302.952266 
L 399.019731 302.952266 
L 399.233363 302.396479 
L 411.970051 302.396479 
L 412.64722 300.729119 
L 412.648187 300.173332 
L 414.452645 300.173332 
L 414.456952 299.617546 
L 419.779464 299.617546 
L 419.897546 299.061759 
L 422.445511 299.061759 
L 422.537046 298.505972 
L 432.002597 298.505972 
L 432.184614 297.950186 
L 434.381702 297.950186 
L 434.458997 297.394399 
L 435.151227 296.838612 
L 452.531118 296.838612 
L 453.436336 295.727039 
L 454.79132 295.727039 
L 455.06745 295.171252 
L 456.422522 295.171252 
L 456.62335 294.615466 
L 459.824955 294.615466 
L 459.863222 294.059679 
L 477.582562 294.059679 
L 477.660971 292.948106 
L 499.809443 292.948106 
L 500.384675 292.392319 
L 538.200701 292.392319 
L 539.977411 291.836532 
L 555.958747 291.836532 
L 556.044716 291.280746 
L 563.199521 291.280746 
L 563.547292 290.724959 
L 705.154452 290.724959 
L 705.563403 290.169172 
L 723.542962 290.169172 
L 724.011159 289.613386 
L 730.496823 289.613386 
L 731.67193 289.057599 
L 731.685907 285.167092 
L 737.809589 285.167092 
L 737.88205 282.388159 
L 812.012614 282.388159 
L 812.012614 282.388159 
" clip-path="url(#p8786fc53d0)" style="fill: none; stroke: #f85149; stroke-width: 2; stroke-linecap: square"/>
   </g>
   <g id="line2d_31">
    <path d="M 85.239886 454.682026 
L 85.256441 454.126239 
L 85.386964 -1 
M 85.504277 -1 
L 85.633425 101.201706 
L 87.672787 101.201706 
L 87.682104 97.866986 
L 90.149345 97.866986 
L 90.309093 98.422772 
L 90.611272 98.422772 
L 90.888867 98.978559 
L 92.608968 99.534346 
L 92.642928 98.978559 
L 92.705514 99.534346 
L 98.052023 99.534346 
L 101.265496 98.422772 
L 101.743626 99.534346 
L 102.092744 98.978559 
L 102.972646 99.534346 
L 103.340781 96.755412 
L 104.057594 96.755412 
L 105.102166 98.422772 
L 105.169939 95.643839 
L 105.971491 96.199626 
L 108.057558 96.199626 
L 108.607797 95.088052 
L 109.425112 95.088052 
L 109.693361 91.197546 
L 114.738541 91.197546 
L 115.129149 86.751252 
L 116.733336 86.751252 
L 119.098786 82.860746 
L 120.339644 82.860746 
L 120.358426 83.416532 
L 123.2081 83.416532 
L 123.915011 80.081812 
L 126.152211 80.081812 
L 126.167741 80.637599 
L 138.697184 80.637599 
L 141.039252 81.193386 
L 141.119214 80.637599 
L 143.548247 81.193386 
L 152.001075 81.193386 
L 156.098054 81.749172 
L 156.177195 74.523946 
L 156.371811 75.079732 
L 158.683055 75.079732 
L 159.66674 75.635519 
L 163.723341 75.635519 
L 163.877346 80.637599 
L 163.884906 71.745012 
L 164.082129 71.745012 
L 165.179589 73.968159 
L 169.856429 73.968159 
L 173.531301 70.077652 
L 177.61568 70.077652 
L 177.794913 68.410292 
L 188.408145 68.410292 
L 188.861106 68.966079 
L 191.438136 68.966079 
L 191.456303 70.077652 
L 196.366465 70.077652 
L 196.466059 73.412372 
L 204.055043 73.412372 
L 204.236297 68.410292 
L 205.353183 67.298719 
L 205.35585 67.854506 
L 205.613227 67.854506 
L 206.530224 65.075572 
L 207.871642 65.075572 
L 208.233682 65.631359 
L 208.269898 65.075572 
L 209.098933 65.631359 
L 209.102713 66.187146 
L 209.122081 65.631359 
L 209.600973 63.408212 
L 213.963357 63.408212 
L 215.31966 63.963999 
L 216.929033 63.963999 
L 219.66253 64.519786 
L 222.250285 64.519786 
L 224.249593 65.631359 
L 228.332654 65.075572 
L 228.624958 65.075572 
L 231.170139 66.187146 
L 231.887246 65.631359 
L 235.43964 65.631359 
L 239.444731 67.854506 
L 239.4469 67.298719 
L 245.423229 67.298719 
L 247.276707 67.854506 
L 280.30789 67.854506 
L 280.574644 68.410292 
L 282.641753 68.410292 
L 282.656609 66.742932 
L 292.620361 66.742932 
L 292.821628 67.298719 
L 313.318591 67.298719 
L 317.831963 67.854506 
L 317.85807 67.298719 
L 321.088976 68.966079 
L 322.130267 68.966079 
L 323.11697 68.410292 
L 325.830513 68.410292 
L 328.419557 68.966079 
L 328.423806 69.521866 
L 335.764729 67.854506 
L 336.461706 68.410292 
L 345.502338 68.410292 
L 345.887086 67.854506 
L 346.591887 68.410292 
L 346.834087 70.633439 
L 350.977126 70.633439 
L 350.9807 71.189226 
L 363.658318 71.189226 
L 364.396579 71.745012 
L 366.832996 71.745012 
L 367.070684 72.300799 
L 378.951467 72.300799 
L 378.967612 72.856586 
L 381.057488 72.856586 
L 381.939177 73.412372 
L 381.943602 73.968159 
L 382.664664 73.412372 
L 382.702315 73.968159 
L 383.822044 73.968159 
L 383.997966 74.523946 
L 386.340268 74.523946 
L 386.394533 73.412372 
L 386.758829 74.523946 
L 388.078155 72.856586 
L 391.268509 72.856586 
L 391.504058 71.189226 
L 392.573858 71.189226 
L 393.098898 72.300799 
L 395.804413 72.300799 
L 396.692167 72.856586 
L 396.907791 72.856586 
L 397.742189 70.077652 
L 399.233363 70.077652 
L 399.573955 70.633439 
L 406.476071 70.633439 
L 406.646132 71.189226 
L 407.284508 71.189226 
L 408.275606 71.745012 
L 419.439312 71.745012 
L 419.539608 72.300799 
L 419.897546 72.300799 
L 420.644774 73.412372 
L 421.692393 73.412372 
L 421.944292 72.856586 
L 422.18699 72.856586 
L 422.279082 73.412372 
L 425.080704 73.412372 
L 425.557661 73.968159 
L 427.996246 73.968159 
L 428.152595 74.523946 
L 429.488358 74.523946 
L 429.647432 75.079732 
L 433.725189 75.079732 
L 433.814439 75.635519 
L 436.235502 75.635519 
L 437.044144 77.858666 
L 437.940689 77.858666 
L 437.941626 78.414452 
L 441.581952 78.414452 
L 442.249336 78.970239 
L 445.036687 78.970239 
L 445.585696 79.526026 
L 447.698925 79.526026 
L 447.857296 80.081812 
L 451.293952 80.081812 
L 452.179802 80.637599 
L 452.244322 81.193386 
L 452.531118 81.193386 
L 453.436336 60.629279 
L 456.24367 60.629279 
L 456.263888 61.185066 
L 456.422522 61.185066 
L 456.62335 60.629279 
L 458.935648 60.629279 
L 459.190242 61.185066 
L 459.493974 61.185066 
L 459.799493 61.740852 
L 459.863222 61.185066 
L 461.108446 61.185066 
L 461.118174 61.740852 
L 461.388092 61.740852 
L 461.506291 62.296639 
L 462.323021 62.852426 
L 468.005492 62.852426 
L 468.893657 63.408212 
L 469.488199 63.408212 
L 469.970548 63.963999 
L 470.458493 63.408212 
L 472.467558 63.408212 
L 472.554201 64.519786 
L 475.438362 64.519786 
L 476.557416 66.187146 
L 488.703957 66.187146 
L 489.409901 66.742932 
L 508.158752 66.742932 
L 508.273933 67.298719 
L 535.823413 67.298719 
L 535.953479 68.410292 
L 535.962123 67.854506 
L 539.977411 67.854506 
L 540.884006 68.410292 
L 556.702869 68.410292 
L 560.259161 68.966079 
L 561.096254 69.521866 
L 561.103257 67.854506 
L 586.491484 67.854506 
L 586.737903 68.410292 
L 609.314898 68.410292 
L 612.212802 68.966079 
L 613.98541 68.966079 
L 614.177769 69.521866 
L 615.409807 70.077652 
L 618.864865 70.077652 
L 620.319999 70.633439 
L 621.842642 70.633439 
L 621.961222 71.189226 
L 624.465675 71.189226 
L 624.764836 71.745012 
L 624.824053 72.300799 
L 629.283013 72.300799 
L 629.3003 72.856586 
L 632.480253 72.856586 
L 633.096887 72.300799 
L 633.105267 72.856586 
L 634.391629 73.412372 
L 636.675271 73.412372 
L 638.318634 73.968159 
L 639.789327 73.968159 
L 641.956938 61.740852 
L 644.487586 61.740852 
L 644.499306 64.519786 
L 657.223482 64.519786 
L 657.224801 65.075572 
L 657.444879 65.631359 
L 658.663614 65.631359 
L 658.928698 66.187146 
L 662.92623 66.187146 
L 663.850347 66.742932 
L 664.002388 66.187146 
L 671.152418 66.187146 
L 671.154029 66.742932 
L 682.461748 66.742932 
L 682.539073 67.854506 
L 684.175989 69.521866 
L 685.818472 69.521866 
L 685.993427 70.077652 
L 692.897974 70.077652 
L 693.024935 70.633439 
L 699.957875 70.633439 
L 700.108891 71.189226 
L 702.019652 72.856586 
L 702.167708 73.412372 
L 720.99072 73.412372 
L 722.772821 76.191306 
L 727.025123 76.191306 
L 727.302103 76.747092 
L 730.496823 76.747092 
L 731.685907 77.858666 
L 748.524729 77.858666 
L 748.738215 78.414452 
L 751.203229 78.414452 
L 751.467287 78.970239 
L 767.705679 78.970239 
L 767.714 80.637599 
L 768.218354 80.637599 
L 768.303619 81.193386 
L 771.198417 81.193386 
L 771.605932 81.749172 
L 771.608364 81.193386 
L 778.943398 81.193386 
L 780.7129 81.749172 
L 812.012614 81.749172 
L 812.012614 81.749172 
" clip-path="url(#p8786fc53d0)" style="fill: none; stroke: #9467bd; stroke-width: 2; stroke-linecap: square"/>
   </g>
   <g id="patch_3">
    <path d="M 48.90125 455.237812 
L 48.90125 38.397812 
" style="fill: none; stroke: #30363d; stroke-width: 0.8; stroke-linejoin: miter; stroke-linecap: square"/>
   </g>
   <g id="patch_4">
    <path d="M 848.35125 455.237812 
L 848.35125 38.397812 
" style="fill: none; stroke: #30363d; stroke-width: 0.8; stroke-linejoin: miter; stroke-linecap: square"/>
   </g>
   <g id="patch_5">
    <path d="M 48.90125 455.237812 
L 848.35125 455.237812 
" style="fill: none; stroke: #30363d; stroke-width: 0.8; stroke-linejoin: miter; stroke-linecap: square"/>
   </g>
   <g id="patch_6">
    <path d="M 48.90125 38.397812 
L 848.35125 38.397812 
" style="fill: none; stroke: #30363d; stroke-width: 0.8; stroke-linejoin: miter; stroke-linecap: square"/>
   </g>
   <g id="text_16">
    <!-- 545 -->
    <g style="fill: #3fb950" transform="translate(817.012614 154.817517) scale(0.09 -0.09)">
     <defs>
      <path id="DejaVuSans-Bold-35" d="M 678 4666 
L 3669 4666 
L 3669 3781 
L 1638 3781 
L 1638 3059 
Q 1775 3097 1914 3117 
Q 2053 3138 2203 3138 
Q 3056 3138 3531 2711 
Q 4006 2284 4006 1522 
Q 4006 766 3489 337 
Q 2972 -91 2053 -91 
Q 1656 -91 1267 -14 
Q 878 63 494 219 
L 494 1166 
Q 875 947 1217 837 
Q 1559 728 1863 728 
Q 2300 728 2551 942 
Q 2803 1156 2803 1522 
Q 2803 1891 2551 2103 
Q 2300 2316 1863 2316 
Q 1603 2316 1309 2248 
Q 1016 2181 678 2041 
L 678 4666 
z
" transform="scale(0.015625)"/>
      <path id="DejaVuSans-Bold-34" d="M 2356 3675 
L 1038 1722 
L 2356 1722 
L 2356 3675 
z
M 2156 4666 
L 3494 4666 
L 3494 1722 
L 4159 1722 
L 4159 850 
L 3494 850 
L 3494 0 
L 2356 0 
L 2356 850 
L 288 850 
L 288 1881 
L 2156 4666 
z
" transform="scale(0.015625)"/>
     </defs>
     <use xlink:href="#DejaVuSans-Bold-35"/>
     <use xlink:href="#DejaVuSans-Bold-34" transform="translate(69.580078 0)"/>
     <use xlink:href="#DejaVuSans-Bold-35" transform="translate(139.160156 0)"/>
    </g>
   </g>
   <g id="text_17">
    <!-- 441 -->
    <g style="fill: #58a6ff" transform="translate(817.012614 212.61933) scale(0.09 -0.09)">
     <defs>
      <path id="DejaVuSans-Bold-31" d="M 750 831 
L 1813 831 
L 1813 3847 
L 722 3622 
L 722 4441 
L 1806 4666 
L 2950 4666 
L 2950 831 
L 4013 831 
L 4013 0 
L 750 0 
L 750 831 
z
" transform="scale(0.015625)"/>
     </defs>
     <use xlink:href="#DejaVuSans-Bold-34"/>
     <use xlink:href="#DejaVuSans-Bold-34" transform="translate(69.580078 0)"/>
     <use xlink:href="#DejaVuSans-Bold-31" transform="translate(139.160156 0)"/>
    </g>
   </g>
   <g id="text_18">
    <!-- 190 -->
    <g style="fill: #d29922" transform="translate(817.012614 352.121783) scale(0.09 -0.09)">
     <defs>
      <path id="DejaVuSans-Bold-39" d="M 641 103 
L 641 966 
Q 928 831 1190 764 
Q 1453 697 1709 697 
Q 2247 697 2547 995 
Q 2847 1294 2900 1881 
Q 2688 1725 2447 1647 
Q 2206 1569 1925 1569 
Q 1209 1569 770 1986 
Q 331 2403 331 3084 
Q 331 3838 820 4291 
Q 1309 4744 2131 4744 
Q 3044 4744 3544 4128 
Q 4044 3513 4044 2388 
Q 4044 1231 3459 570 
Q 2875 -91 1856 -91 
Q 1528 -91 1228 -42 
Q 928 6 641 103 
z
M 2125 2350 
Q 2441 2350 2600 2554 
Q 2759 2759 2759 3169 
Q 2759 3575 2600 3781 
Q 2441 3988 2125 3988 
Q 1809 3988 1650 3781 
Q 1491 3575 1491 3169 
Q 1491 2759 1650 2554 
Q 1809 2350 2125 2350 
z
" transform="scale(0.015625)"/>
      <path id="DejaVuSans-Bold-30" d="M 2944 2338 
Q 2944 3213 2780 3570 
Q 2616 3928 2228 3928 
Q 1841 3928 1675 3570 
Q 1509 3213 1509 2338 
Q 1509 1453 1675 1090 
Q 1841 728 2228 728 
Q 2613 728 2778 1090 
Q 2944 1453 2944 2338 
z
M 4147 2328 
Q 4147 1169 3647 539 
Q 3147 -91 2228 -91 
Q 1306 -91 806 539 
Q 306 1169 306 2328 
Q 306 3491 806 4120 
Q 1306 4750 2228 4750 
Q 3147 4750 3647 4120 
Q 4147 3491 4147 2328 
z
" transform="scale(0.015625)"/>
     </defs>
     <use xlink:href="#DejaVuSans-Bold-31"/>
     <use xlink:href="#DejaVuSans-Bold-39" transform="translate(69.580078 0)"/>
     <use xlink:href="#DejaVuSans-Bold-30" transform="translate(139.160156 0)"/>
    </g>
   </g>
   <g id="text_19">
    <!-- 311 -->
    <g style="fill: #f85149" transform="translate(817.012614 284.871597) scale(0.09 -0.09)">
     <defs>
      <path id="DejaVuSans-Bold-33" d="M 2981 2516 
Q 3453 2394 3698 2092 
Q 3944 1791 3944 1325 
Q 3944 631 3412 270 
Q 2881 -91 1863 -91 
Q 1503 -91 1142 -33 
Q 781 25 428 141 
L 428 1069 
Q 766 900 1098 814 
Q 1431 728 1753 728 
Q 2231 728 2486 893 
Q 2741 1059 2741 1369 
Q 2741 1688 2480 1852 
Q 2219 2016 1709 2016 
L 1228 2016 
L 1228 2791 
L 1734 2791 
Q 2188 2791 2409 2933 
Q 2631 3075 2631 3366 
Q 2631 3634 2415 3781 
Q 2200 3928 1806 3928 
Q 1516 3928 1219 3862 
Q 922 3797 628 3669 
L 628 4550 
Q 984 4650 1334 4700 
Q 1684 4750 2022 4750 
Q 2931 4750 3382 4451 
Q 3834 4153 3834 3553 
Q 3834 3144 3618 2883 
Q 3403 2622 2981 2516 
z
" transform="scale(0.015625)"/>
     </defs>
     <use xlink:href="#DejaVuSans-Bold-33"/>
     <use xlink:href="#DejaVuSans-Bold-31" transform="translate(69.580078 0)"/>
     <use xlink:href="#DejaVuSans-Bold-31" transform="translate(139.160156 0)"/>
    </g>
   </g>
   <g id="text_20">
    <!-- 672 -->
    <g style="fill: #9467bd" transform="translate(817.012614 84.23261) scale(0.09 -0.09)">
     <defs>
      <path id="DejaVuSans-Bold-36" d="M 2316 2303 
Q 2000 2303 1842 2098 
Q 1684 1894 1684 1484 
Q 1684 1075 1842 870 
Q 2000 666 2316 666 
Q 2634 666 2792 870 
Q 2950 1075 2950 1484 
Q 2950 1894 2792 2098 
Q 2634 2303 2316 2303 
z
M 3803 4544 
L 3803 3681 
Q 3506 3822 3243 3889 
Q 2981 3956 2731 3956 
Q 2194 3956 1894 3657 
Q 1594 3359 1544 2772 
Q 1750 2925 1990 3001 
Q 2231 3078 2516 3078 
Q 3231 3078 3670 2659 
Q 4109 2241 4109 1563 
Q 4109 813 3618 361 
Q 3128 -91 2303 -91 
Q 1394 -91 895 523 
Q 397 1138 397 2266 
Q 397 3422 980 4083 
Q 1563 4744 2578 4744 
Q 2900 4744 3203 4694 
Q 3506 4644 3803 4544 
z
" transform="scale(0.015625)"/>
      <path id="DejaVuSans-Bold-37" d="M 428 4666 
L 3944 4666 
L 3944 3988 
L 2125 0 
L 953 0 
L 2675 3781 
L 428 3781 
L 428 4666 
z
" transform="scale(0.015625)"/>
      <path id="DejaVuSans-Bold-32" d="M 1844 884 
L 3897 884 
L 3897 0 
L 506 0 
L 506 884 
L 2209 2388 
Q 2438 2594 2547 2791 
Q 2656 2988 2656 3200 
Q 2656 3528 2436 3728 
Q 2216 3928 1850 3928 
Q 1569 3928 1234 3808 
Q 900 3688 519 3450 
L 519 4475 
Q 925 4609 1322 4679 
Q 1719 4750 2100 4750 
Q 2938 4750 3402 4381 
Q 3866 4013 3866 3353 
Q 3866 2972 3669 2642 
Q 3472 2313 2841 1759 
L 1844 884 
z
" transform="scale(0.015625)"/>
     </defs>
     <use xlink:href="#DejaVuSans-Bold-36"/>
     <use xlink:href="#DejaVuSans-Bold-37" transform="translate(69.580078 0)"/>
     <use xlink:href="#DejaVuSans-Bold-32" transform="translate(139.160156 0)"/>
    </g>
   </g>
   <g id="text_21">
    <!-- Erdős Problems Progress -->
    <g style="fill: #c9d1d9" transform="translate(349.588281 18.397812) scale(0.14 -0.14)">
     <defs>
      <path id="DejaVuSans-Bold-45" d="M 588 4666 
L 3834 4666 
L 3834 3756 
L 1791 3756 
L 1791 2888 
L 3713 2888 
L 3713 1978 
L 1791 1978 
L 1791 909 
L 3903 909 
L 3903 0 
L 588 0 
L 588 4666 
z
" transform="scale(0.015625)"/>
      <path id="DejaVuSans-Bold-72" d="M 3138 2547 
Q 2991 2616 2845 2648 
Q 2700 2681 2553 2681 
Q 2122 2681 1889 2404 
Q 1656 2128 1656 1613 
L 1656 0 
L 538 0 
L 538 3500 
L 1656 3500 
L 1656 2925 
Q 1872 3269 2151 3426 
Q 2431 3584 2822 3584 
Q 2878 3584 2943 3579 
Q 3009 3575 3134 3559 
L 3138 2547 
z
" transform="scale(0.015625)"/>
      <path id="DejaVuSans-Bold-64" d="M 2919 2988 
L 2919 4863 
L 4044 4863 
L 4044 0 
L 2919 0 
L 2919 506 
Q 2688 197 2409 53 
Q 2131 -91 1766 -91 
Q 1119 -91 703 423 
Q 288 938 288 1747 
Q 288 2556 703 3070 
Q 1119 3584 1766 3584 
Q 2128 3584 2408 3439 
Q 2688 3294 2919 2988 
z
M 2181 722 
Q 2541 722 2730 984 
Q 2919 1247 2919 1747 
Q 2919 2247 2730 2509 
Q 2541 2772 2181 2772 
Q 1825 2772 1636 2509 
Q 1447 2247 1447 1747 
Q 1447 1247 1636 984 
Q 1825 722 2181 722 
z
" transform="scale(0.015625)"/>
      <path id="DejaVuSans-Bold-151" d="M 1881 5119 
L 2560 5119 
L 1785 3944 
L 1275 3944 
L 1881 5119 
z
M 3016 5119 
L 3738 5119 
L 2888 3944 
L 2344 3944 
L 3016 5119 
z
M 2203 2784 
Q 1831 2784 1636 2517 
Q 1441 2250 1441 1747 
Q 1441 1244 1636 976 
Q 1831 709 2203 709 
Q 2569 709 2762 976 
Q 2956 1244 2956 1747 
Q 2956 2250 2762 2517 
Q 2569 2784 2203 2784 
z
M 2203 3584 
Q 3106 3584 3614 3096 
Q 4122 2609 4122 1747 
Q 4122 884 3614 396 
Q 3106 -91 2203 -91 
Q 1297 -91 786 396 
Q 275 884 275 1747 
Q 275 2609 786 3096 
Q 1297 3584 2203 3584 
z
" transform="scale(0.015625)"/>
      <path id="DejaVuSans-Bold-73" d="M 3272 3391 
L 3272 2541 
Q 2913 2691 2578 2766 
Q 2244 2841 1947 2841 
Q 1628 2841 1473 2761 
Q 1319 2681 1319 2516 
Q 1319 2381 1436 2309 
Q 1553 2238 1856 2203 
L 2053 2175 
Q 2913 2066 3209 1816 
Q 3506 1566 3506 1031 
Q 3506 472 3093 190 
Q 2681 -91 1863 -91 
Q 1516 -91 1145 -36 
Q 775 19 384 128 
L 384 978 
Q 719 816 1070 734 
Q 1422 653 1784 653 
Q 2113 653 2278 743 
Q 2444 834 2444 1013 
Q 2444 1163 2330 1236 
Q 2216 1309 1875 1350 
L 1678 1375 
Q 931 1469 631 1722 
Q 331 1975 331 2491 
Q 331 3047 712 3315 
Q 1094 3584 1881 3584 
Q 2191 3584 2531 3537 
Q 2872 3491 3272 3391 
z
" transform="scale(0.015625)"/>
      <path id="DejaVuSans-Bold-20" transform="scale(0.015625)"/>
      <path id="DejaVuSans-Bold-50" d="M 588 4666 
L 2584 4666 
Q 3475 4666 3951 4270 
Q 4428 3875 4428 3144 
Q 4428 2409 3951 2014 
Q 3475 1619 2584 1619 
L 1791 1619 
L 1791 0 
L 588 0 
L 588 4666 
z
M 1791 3794 
L 1791 2491 
L 2456 2491 
Q 2806 2491 2997 2661 
Q 3188 2831 3188 3144 
Q 3188 3456 2997 3625 
Q 2806 3794 2456 3794 
L 1791 3794 
z
" transform="scale(0.015625)"/>
      <path id="DejaVuSans-Bold-6f" d="M 2203 2784 
Q 1831 2784 1636 2517 
Q 1441 2250 1441 1747 
Q 1441 1244 1636 976 
Q 1831 709 2203 709 
Q 2569 709 2762 976 
Q 2956 1244 2956 1747 
Q 2956 2250 2762 2517 
Q 2569 2784 2203 2784 
z
M 2203 3584 
Q 3106 3584 3614 3096 
Q 4122 2609 4122 1747 
Q 4122 884 3614 396 
Q 3106 -91 2203 -91 
Q 1297 -91 786 396 
Q 275 884 275 1747 
Q 275 2609 786 3096 
Q 1297 3584 2203 3584 
z
" transform="scale(0.015625)"/>
      <path id="DejaVuSans-Bold-62" d="M 2400 722 
Q 2759 722 2948 984 
Q 3138 1247 3138 1747 
Q 3138 2247 2948 2509 
Q 2759 2772 2400 2772 
Q 2041 2772 1848 2508 
Q 1656 2244 1656 1747 
Q 1656 1250 1848 986 
Q 2041 722 2400 722 
z
M 1656 2988 
Q 1888 3294 2169 3439 
Q 2450 3584 2816 3584 
Q 3463 3584 3878 3070 
Q 4294 2556 4294 1747 
Q 4294 938 3878 423 
Q 3463 -91 2816 -91 
Q 2450 -91 2169 54 
Q 1888 200 1656 506 
L 1656 0 
L 538 0 
L 538 4863 
L 1656 4863 
L 1656 2988 
z
" transform="scale(0.015625)"/>
      <path id="DejaVuSans-Bold-6c" d="M 538 4863 
L 1656 4863 
L 1656 0 
L 538 0 
L 538 4863 
z
" transform="scale(0.015625)"/>
      <path id="DejaVuSans-Bold-65" d="M 4031 1759 
L 4031 1441 
L 1416 1441 
Q 1456 1047 1700 850 
Q 1944 653 2381 653 
Q 2734 653 3104 758 
Q 3475 863 3866 1075 
L 3866 213 
Q 3469 63 3072 -14 
Q 2675 -91 2278 -91 
Q 1328 -91 801 392 
Q 275 875 275 1747 
Q 275 2603 792 3093 
Q 1309 3584 2216 3584 
Q 3041 3584 3536 3087 
Q 4031 2591 4031 1759 
z
M 2881 2131 
Q 2881 2450 2695 2645 
Q 2509 2841 2209 2841 
Q 1884 2841 1681 2658 
Q 1478 2475 1428 2131 
L 2881 2131 
z
" transform="scale(0.015625)"/>
      <path id="DejaVuSans-Bold-6d" d="M 3781 2919 
Q 3994 3244 4286 3414 
Q 4578 3584 4928 3584 
Q 5531 3584 5847 3212 
Q 6163 2841 6163 2131 
L 6163 0 
L 5038 0 
L 5038 1825 
Q 5041 1866 5042 1909 
Q 5044 1953 5044 2034 
Q 5044 2406 4934 2573 
Q 4825 2741 4581 2741 
Q 4263 2741 4089 2478 
Q 3916 2216 3909 1719 
L 3909 0 
L 2784 0 
L 2784 1825 
Q 2784 2406 2684 2573 
Q 2584 2741 2328 2741 
Q 2006 2741 1831 2477 
Q 1656 2213 1656 1722 
L 1656 0 
L 531 0 
L 531 3500 
L 1656 3500 
L 1656 2988 
Q 1863 3284 2130 3434 
Q 2397 3584 2719 3584 
Q 3081 3584 3359 3409 
Q 3638 3234 3781 2919 
z
" transform="scale(0.015625)"/>
      <path id="DejaVuSans-Bold-67" d="M 2919 594 
Q 2688 288 2409 144 
Q 2131 0 1766 0 
Q 1125 0 706 504 
Q 288 1009 288 1791 
Q 288 2575 706 3076 
Q 1125 3578 1766 3578 
Q 2131 3578 2409 3434 
Q 2688 3291 2919 2981 
L 2919 3500 
L 4044 3500 
L 4044 353 
Q 4044 -491 3511 -936 
Q 2978 -1381 1966 -1381 
Q 1638 -1381 1331 -1331 
Q 1025 -1281 716 -1178 
L 716 -306 
Q 1009 -475 1290 -558 
Q 1572 -641 1856 -641 
Q 2406 -641 2662 -400 
Q 2919 -159 2919 353 
L 2919 594 
z
M 2181 2772 
Q 1834 2772 1640 2515 
Q 1447 2259 1447 1791 
Q 1447 1309 1634 1061 
Q 1822 813 2181 813 
Q 2531 813 2725 1069 
Q 2919 1325 2919 1791 
Q 2919 2259 2725 2515 
Q 2531 2772 2181 2772 
z
" transform="scale(0.015625)"/>
     </defs>
     <use xlink:href="#DejaVuSans-Bold-45"/>
     <use xlink:href="#DejaVuSans-Bold-72" transform="translate(68.310547 0)"/>
     <use xlink:href="#DejaVuSans-Bold-64" transform="translate(117.626953 0)"/>
     <use xlink:href="#DejaVuSans-Bold-151" transform="translate(189.208984 0)"/>
     <use xlink:href="#DejaVuSans-Bold-73" transform="translate(257.910156 0)"/>
     <use xlink:href="#DejaVuSans-Bold-20" transform="translate(317.431641 0)"/>
     <use xlink:href="#DejaVuSans-Bold-50" transform="translate(352.246094 0)"/>
     <use xlink:href="#DejaVuSans-Bold-72" transform="translate(425.537109 0)"/>
     <use xlink:href="#DejaVuSans-Bold-6f" transform="translate(474.853516 0)"/>
     <use xlink:href="#DejaVuSans-Bold-62" transform="translate(543.554688 0)"/>
     <use xlink:href="#DejaVuSans-Bold-6c" transform="translate(615.136719 0)"/>
     <use xlink:href="#DejaVuSans-Bold-65" transform="translate(649.414062 0)"/>
     <use xlink:href="#DejaVuSans-Bold-6d" transform="translate(717.236328 0)"/>
     <use xlink:href="#DejaVuSans-Bold-73" transform="translate(821.435547 0)"/>
     <use xlink:href="#DejaVuSans-Bold-20" transform="translate(880.957031 0)"/>
     <use xlink:href="#DejaVuSans-Bold-50" transform="translate(915.771484 0)"/>
     <use xlink:href="#DejaVuSans-Bold-72" transform="translate(989.0625 0)"/>
     <use xlink:href="#DejaVuSans-Bold-6f" transform="translate(1038.378906 0)"/>
     <use xlink:href="#DejaVuSans-Bold-67" transform="translate(1107.080078 0)"/>
     <use xlink:href="#DejaVuSans-Bold-72" transform="translate(1178.662109 0)"/>
     <use xlink:href="#DejaVuSans-Bold-65" transform="translate(1227.978516 0)"/>
     <use xlink:href="#DejaVuSans-Bold-73" transform="translate(1295.800781 0)"/>
     <use xlink:href="#DejaVuSans-Bold-73" transform="translate(1355.322266 0)"/>
    </g>
   </g>
   <g id="legend_1">
    <g id="patch_7">
     <path d="M 55.90125 119.788437 
L 213.771563 119.788437 
Q 215.771563 119.788437 215.771563 117.788437 
L 215.771563 45.397812 
Q 215.771563 43.397812 213.771563 43.397812 
L 55.90125 43.397812 
Q 53.90125 43.397812 53.90125 45.397812 
L 53.90125 117.788437 
Q 53.90125 119.788437 55.90125 119.788437 
z
" style="fill: #161b22; opacity: 0.8; stroke: #30363d; stroke-linejoin: miter"/>
    </g>
    <g id="line2d_32">
     <path d="M 57.90125 51.49625 
L 67.90125 51.49625 
L 77.90125 51.49625 
" style="fill: none; stroke: #3fb950; stroke-width: 2; stroke-linecap: square"/>
    </g>
    <g id="text_22">
     <!-- Solved -->
     <g style="fill: #c9d1d9" transform="translate(85.90125 54.99625) scale(0.1 -0.1)">
      <defs>
       <path id="DejaVuSans-6c" d="M 603 4863 
L 1178 4863 
L 1178 0 
L 603 0 
L 603 4863 
z
" transform="scale(0.015625)"/>
       <path id="DejaVuSans-64" d="M 2906 2969 
L 2906 4863 
L 3481 4863 
L 3481 0 
L 2906 0 
L 2906 525 
Q 2725 213 2448 61 
Q 2172 -91 1784 -91 
Q 1150 -91 751 415 
Q 353 922 353 1747 
Q 353 2572 751 3078 
Q 1150 3584 1784 3584 
Q 2172 3584 2448 3432 
Q 2725 3281 2906 2969 
z
M 947 1747 
Q 947 1113 1208 752 
Q 1469 391 1925 391 
Q 2381 391 2643 752 
Q 2906 1113 2906 1747 
Q 2906 2381 2643 2742 
Q 2381 3103 1925 3103 
Q 1469 3103 1208 2742 
Q 947 2381 947 1747 
z
" transform="scale(0.015625)"/>
      </defs>
      <use xlink:href="#DejaVuSans-53"/>
      <use xlink:href="#DejaVuSans-6f" transform="translate(63.476562 0)"/>
      <use xlink:href="#DejaVuSans-6c" transform="translate(124.658203 0)"/>
      <use xlink:href="#DejaVuSans-76" transform="translate(152.441406 0)"/>
      <use xlink:href="#DejaVuSans-65" transform="translate(211.621094 0)"/>
      <use xlink:href="#DejaVuSans-64" transform="translate(273.144531 0)"/>
     </g>
    </g>
    <g id="line2d_33">
     <path d="M 57.90125 66.174375 
L 67.90125 66.174375 
L 77.90125 66.174375 
" style="fill: none; stroke: #58a6ff; stroke-width: 2; stroke-linecap: square"/>
    </g>
    <g id="text_23">
     <!-- Lean Formalized Problem -->
     <g style="fill: #c9d1d9" transform="translate(85.90125 69.674375) scale(0.1 -0.1)">
      <defs>
       <path id="DejaVuSans-4c" d="M 628 4666 
L 1259 4666 
L 1259 531 
L 3531 531 
L 3531 0 
L 628 0 
L 628 4666 
z
" transform="scale(0.015625)"/>
       <path id="DejaVuSans-20" transform="scale(0.015625)"/>
       <path id="DejaVuSans-46" d="M 628 4666 
L 3309 4666 
L 3309 4134 
L 1259 4134 
L 1259 2759 
L 3109 2759 
L 3109 2228 
L 1259 2228 
L 1259 0 
L 628 0 
L 628 4666 
z
" transform="scale(0.015625)"/>
       <path id="DejaVuSans-6d" d="M 3328 2828 
Q 3544 3216 3844 3400 
Q 4144 3584 4550 3584 
Q 5097 3584 5394 3201 
Q 5691 2819 5691 2113 
L 5691 0 
L 5113 0 
L 5113 2094 
Q 5113 2597 4934 2840 
Q 4756 3084 4391 3084 
Q 3944 3084 3684 2787 
Q 3425 2491 3425 1978 
L 3425 0 
L 2847 0 
L 2847 2094 
Q 2847 2600 2669 2842 
Q 2491 3084 2119 3084 
Q 1678 3084 1418 2786 
Q 1159 2488 1159 1978 
L 1159 0 
L 581 0 
L 581 3500 
L 1159 3500 
L 1159 2956 
Q 1356 3278 1631 3431 
Q 1906 3584 2284 3584 
Q 2666 3584 2933 3390 
Q 3200 3197 3328 2828 
z
" transform="scale(0.015625)"/>
       <path id="DejaVuSans-69" d="M 603 3500 
L 1178 3500 
L 1178 0 
L 603 0 
L 603 3500 
z
M 603 4863 
L 1178 4863 
L 1178 4134 
L 603 4134 
L 603 4863 
z
" transform="scale(0.015625)"/>
       <path id="DejaVuSans-7a" d="M 353 3500 
L 3084 3500 
L 3084 2975 
L 922 459 
L 3084 459 
L 3084 0 
L 275 0 
L 275 525 
L 2438 3041 
L 353 3041 
L 353 3500 
z
" transform="scale(0.015625)"/>
       <path id="DejaVuSans-50" d="M 1259 4147 
L 1259 2394 
L 2053 2394 
Q 2494 2394 2734 2622 
Q 2975 2850 2975 3272 
Q 2975 3691 2734 3919 
Q 2494 4147 2053 4147 
L 1259 4147 
z
M 628 4666 
L 2053 4666 
Q 2838 4666 3239 4311 
Q 3641 3956 3641 3272 
Q 3641 2581 3239 2228 
Q 2838 1875 2053 1875 
L 1259 1875 
L 1259 0 
L 628 0 
L 628 4666 
z
" transform="scale(0.015625)"/>
       <path id="DejaVuSans-62" d="M 3116 1747 
Q 3116 2381 2855 2742 
Q 2594 3103 2138 3103 
Q 1681 3103 1420 2742 
Q 1159 2381 1159 1747 
Q 1159 1113 1420 752 
Q 1681 391 2138 391 
Q 2594 391 2855 752 
Q 3116 1113 3116 1747 
z
M 1159 2969 
Q 1341 3281 1617 3432 
Q 1894 3584 2278 3584 
Q 2916 3584 3314 3078 
Q 3713 2572 3713 1747 
Q 3713 922 3314 415 
Q 2916 -91 2278 -91 
Q 1894 -91 1617 61 
Q 1341 213 1159 525 
L 1159 0 
L 581 0 
L 581 4863 
L 1159 4863 
L 1159 2969 
z
" transform="scale(0.015625)"/>
      </defs>
      <use xlink:href="#DejaVuSans-4c"/>
      <use xlink:href="#DejaVuSans-65" transform="translate(53.962891 0)"/>
      <use xlink:href="#DejaVuSans-61" transform="translate(115.486328 0)"/>
      <use xlink:href="#DejaVuSans-6e" transform="translate(176.765625 0)"/>
      <use xlink:href="#DejaVuSans-20" transform="translate(240.144531 0)"/>
      <use xlink:href="#DejaVuSans-46" transform="translate(271.931641 0)"/>
      <use xlink:href="#DejaVuSans-6f" transform="translate(325.826172 0)"/>
      <use xlink:href="#DejaVuSans-72" transform="translate(387.007812 0)"/>
      <use xlink:href="#DejaVuSans-6d" transform="translate(426.371094 0)"/>
      <use xlink:href="#DejaVuSans-61" transform="translate(523.783203 0)"/>
      <use xlink:href="#DejaVuSans-6c" transform="translate(585.0625 0)"/>
      <use xlink:href="#DejaVuSans-69" transform="translate(612.845703 0)"/>
      <use xlink:href="#DejaVuSans-7a" transform="translate(640.628906 0)"/>
      <use xlink:href="#DejaVuSans-65" transform="translate(693.119141 0)"/>
      <use xlink:href="#DejaVuSans-64" transform="translate(754.642578 0)"/>
      <use xlink:href="#DejaVuSans-20" transform="translate(818.119141 0)"/>
      <use xlink:href="#DejaVuSans-50" transform="translate(849.90625 0)"/>
      <use xlink:href="#DejaVuSans-72" transform="translate(908.458984 0)"/>
      <use xlink:href="#DejaVuSans-6f" transform="translate(947.322266 0)"/>
      <use xlink:href="#DejaVuSans-62" transform="translate(1008.503906 0)"/>
      <use xlink:href="#DejaVuSans-6c" transform="translate(1071.980469 0)"/>
      <use xlink:href="#DejaVuSans-65" transform="translate(1099.763672 0)"/>
      <use xlink:href="#DejaVuSans-6d" transform="translate(1161.287109 0)"/>
     </g>
    </g>
    <g id="line2d_34">
     <path d="M 57.90125 80.8525 
L 67.90125 80.8525 
L 77.90125 80.8525 
" style="fill: none; stroke: #d29922; stroke-width: 2; stroke-linecap: square"/>
    </g>
    <g id="text_24">
     <!-- Lean Formalized Solution -->
     <g style="fill: #c9d1d9" transform="translate(85.90125 84.3525) scale(0.1 -0.1)">
      <use xlink:href="#DejaVuSans-4c"/>
      <use xlink:href="#DejaVuSans-65" transform="translate(53.962891 0)"/>
      <use xlink:href="#DejaVuSans-61" transform="translate(115.486328 0)"/>
      <use xlink:href="#DejaVuSans-6e" transform="translate(176.765625 0)"/>
      <use xlink:href="#DejaVuSans-20" transform="translate(240.144531 0)"/>
      <use xlink:href="#DejaVuSans-46" transform="translate(271.931641 0)"/>
      <use xlink:href="#DejaVuSans-6f" transform="translate(325.826172 0)"/>
      <use xlink:href="#DejaVuSans-72" transform="translate(387.007812 0)"/>
      <use xlink:href="#DejaVuSans-6d" transform="translate(426.371094 0)"/>
      <use xlink:href="#DejaVuSans-61" transform="translate(523.783203 0)"/>
      <use xlink:href="#DejaVuSans-6c" transform="translate(585.0625 0)"/>
      <use xlink:href="#DejaVuSans-69" transform="translate(612.845703 0)"/>
      <use xlink:href="#DejaVuSans-7a" transform="translate(640.628906 0)"/>
      <use xlink:href="#DejaVuSans-65" transform="translate(693.119141 0)"/>
      <use xlink:href="#DejaVuSans-64" transform="translate(754.642578 0)"/>
      <use xlink:href="#DejaVuSans-20" transform="translate(818.119141 0)"/>
      <use xlink:href="#DejaVuSans-53" transform="translate(849.90625 0)"/>
      <use xlink:href="#DejaVuSans-6f" transform="translate(913.382812 0)"/>
      <use xlink:href="#DejaVuSans-6c" transform="translate(974.564453 0)"/>
      <use xlink:href="#DejaVuSans-75" transform="translate(1002.347656 0)"/>
      <use xlink:href="#DejaVuSans-74" transform="translate(1065.726562 0)"/>
      <use xlink:href="#DejaVuSans-69" transform="translate(1104.935547 0)"/>
      <use xlink:href="#DejaVuSans-6f" transform="translate(1132.71875 0)"/>
      <use xlink:href="#DejaVuSans-6e" transform="translate(1193.900391 0)"/>
     </g>
    </g>
    <g id="line2d_35">
     <path d="M 57.90125 95.530625 
L 67.90125 95.530625 
L 77.90125 95.530625 
" style="fill: none; stroke: #f85149; stroke-width: 2; stroke-linecap: square"/>
    </g>
    <g id="text_25">
     <!-- OEIS Linked -->
     <g style="fill: #c9d1d9" transform="translate(85.90125 99.030625) scale(0.1 -0.1)">
      <defs>
       <path id="DejaVuSans-4f" d="M 2522 4238 
Q 1834 4238 1429 3725 
Q 1025 3213 1025 2328 
Q 1025 1447 1429 934 
Q 1834 422 2522 422 
Q 3209 422 3611 934 
Q 4013 1447 4013 2328 
Q 4013 3213 3611 3725 
Q 3209 4238 2522 4238 
z
M 2522 4750 
Q 3503 4750 4090 4092 
Q 4678 3434 4678 2328 
Q 4678 1225 4090 567 
Q 3503 -91 2522 -91 
Q 1538 -91 948 565 
Q 359 1222 359 2328 
Q 359 3434 948 4092 
Q 1538 4750 2522 4750 
z
" transform="scale(0.015625)"/>
       <path id="DejaVuSans-45" d="M 628 4666 
L 3578 4666 
L 3578 4134 
L 1259 4134 
L 1259 2753 
L 3481 2753 
L 3481 2222 
L 1259 2222 
L 1259 531 
L 3634 531 
L 3634 0 
L 628 0 
L 628 4666 
z
" transform="scale(0.015625)"/>
       <path id="DejaVuSans-49" d="M 628 4666 
L 1259 4666 
L 1259 0 
L 628 0 
L 628 4666 
z
" transform="scale(0.015625)"/>
       <path id="DejaVuSans-6b" d="M 581 4863 
L 1159 4863 
L 1159 1991 
L 2875 3500 
L 3609 3500 
L 1753 1863 
L 3688 0 
L 2938 0 
L 1159 1709 
L 1159 0 
L 581 0 
L 581 4863 
z
" transform="scale(0.015625)"/>
      </defs>
      <use xlink:href="#DejaVuSans-4f"/>
      <use xlink:href="#DejaVuSans-45" transform="translate(78.710938 0)"/>
      <use xlink:href="#DejaVuSans-49" transform="translate(141.894531 0)"/>
      <use xlink:href="#DejaVuSans-53" transform="translate(171.386719 0)"/>
      <use xlink:href="#DejaVuSans-20" transform="translate(234.863281 0)"/>
      <use xlink:href="#DejaVuSans-4c" transform="translate(266.650391 0)"/>
      <use xlink:href="#DejaVuSans-69" transform="translate(322.363281 0)"/>
      <use xlink:href="#DejaVuSans-6e" transform="translate(350.146484 0)"/>
      <use xlink:href="#DejaVuSans-6b" transform="translate(413.525391 0)"/>
      <use xlink:href="#DejaVuSans-65" transform="translate(467.810547 0)"/>
      <use xlink:href="#DejaVuSans-64" transform="translate(529.333984 0)"/>
     </g>
    </g>
    <g id="line2d_36">
     <path d="M 57.90125 110.20875 
L 67.90125 110.20875 
L 77.90125 110.20875 
" style="fill: none; stroke: #9467bd; stroke-width: 2; stroke-linecap: square"/>
    </g>
    <g id="text_26">
     <!-- Open Problems -->
     <g style="fill: #c9d1d9" transform="translate(85.90125 113.70875) scale(0.1 -0.1)">
      <defs>
       <path id="DejaVuSans-73" d="M 2834 3397 
L 2834 2853 
Q 2591 2978 2328 3040 
Q 2066 3103 1784 3103 
Q 1356 3103 1142 2972 
Q 928 2841 928 2578 
Q 928 2378 1081 2264 
Q 1234 2150 1697 2047 
L 1894 2003 
Q 2506 1872 2764 1633 
Q 3022 1394 3022 966 
Q 3022 478 2636 193 
Q 2250 -91 1575 -91 
Q 1294 -91 989 -36 
Q 684 19 347 128 
L 347 722 
Q 666 556 975 473 
Q 1284 391 1588 391 
Q 1994 391 2212 530 
Q 2431 669 2431 922 
Q 2431 1156 2273 1281 
Q 2116 1406 1581 1522 
L 1381 1569 
Q 847 1681 609 1914 
Q 372 2147 372 2553 
Q 372 3047 722 3315 
Q 1072 3584 1716 3584 
Q 2034 3584 2315 3537 
Q 2597 3491 2834 3397 
z
" transform="scale(0.015625)"/>
      </defs>
      <use xlink:href="#DejaVuSans-4f"/>
      <use xlink:href="#DejaVuSans-70" transform="translate(78.710938 0)"/>
      <use xlink:href="#DejaVuSans-65" transform="translate(142.1875 0)"/>
      <use xlink:href="#DejaVuSans-6e" transform="translate(203.710938 0)"/>
      <use xlink:href="#DejaVuSans-20" transform="translate(267.089844 0)"/>
      <use xlink:href="#DejaVuSans-50" transform="translate(298.876953 0)"/>
      <use xlink:href="#DejaVuSans-72" transform="translate(357.429688 0)"/>
      <use xlink:href="#DejaVuSans-6f" transform="translate(396.292969 0)"/>
      <use xlink:href="#DejaVuSans-62" transform="translate(457.474609 0)"/>
      <use xlink:href="#DejaVuSans-6c" transform="translate(520.951172 0)"/>
      <use xlink:href="#DejaVuSans-65" transform="translate(548.734375 0)"/>
      <use xlink:href="#DejaVuSans-6d" transform="translate(610.257812 0)"/>
      <use xlink:href="#DejaVuSans-73" transform="translate(707.669922 0)"/>
     </g>
    </g>
   </g>
  </g>
 </g>
 <defs>
  <clipPath id="p8786fc53d0">
   <rect x="48.90125" y="38.397812" width="799.45" height="416.84"/>
  </clipPath>
 </defs>
</svg>
