<?xml version="1.0" encoding="utf-8" standalone="no"?>
<!DOCTYPE svg PUBLIC "-//W3C//DTD SVG 1.1//EN"
  "http://www.w3.org/Graphics/SVG/1.1/DTD/svg11.dtd">
<svg xmlns:xlink="http://www.w3.org/1999/xlink" width="855.55125pt" height="494.729687pt" viewBox="0 0 855.55125 494.729687" xmlns="http://www.w3.org/2000/svg" version="1.1">
 <metadata>
  <rdf:RDF xmlns:dc="http://purl.org/dc/elements/1.1/" xmlns:cc="http://creativecommons.org/ns#" xmlns:rdf="http://www.w3.org/1999/02/22-rdf-syntax-ns#">
   <cc:Work>
    <dc:type rdf:resource="http://purl.org/dc/dcmitype/StillImage"/>
    <dc:date>2026-02-05T07:40:58.331278</dc:date>
    <dc:format>image/svg+xml</dc:format>
    <dc:creator>
     <cc:Agent>
      <dc:title>Matplotlib v3.10.7, https://matplotlib.org/</dc:title>
     </cc:Agent>
    </dc:creator>
   </cc:Work>
  </rdf:RDF>
 </metadata>
 <defs>
  <style type="text/css">*{stroke-linejoin: round; stroke-linecap: butt}</style>
 </defs>
 <g id="figure_1">
  <g id="patch_1">
   <path d="M 0 494.729687 
L 855.55125 494.729687 
L 855.55125 0 
L 0 0 
z
" style="fill: #0d1117"/>
  </g>
  <g id="axes_1">
   <g id="patch_2">
    <path d="M 48.90125 455.237812 
L 848.35125 455.237812 
L 848.35125 38.397812 
L 48.90125 38.397812 
z
" style="fill: #0d1117"/>
   </g>
   <g id="matplotlib.axis_1">
    <g id="xtick_1">
     <g id="line2d_1">
      <path d="M 86.587897 455.237812 
L 86.587897 38.397812 
" clip-path="url(#p0a83af875d)" style="fill: none; stroke: #30363d; stroke-opacity: 0.25; stroke-width: 0.5; stroke-linecap: square"/>
     </g>
     <g id="line2d_2">
      <defs>
       <path id="m22b13d955e" d="M 0 0 
L 0 3.5 
" style="stroke: #c9d1d9; stroke-width: 0.8"/>
      </defs>
      <g>
       <use xlink:href="#m22b13d955e" x="86.587897" y="455.237812" style="fill: #c9d1d9; stroke: #c9d1d9; stroke-width: 0.8"/>
      </g>
     </g>
     <g id="text_1">
      <!-- Sep -->
      <g style="fill: #c9d1d9" transform="translate(77.162897 469.83625) scale(0.1 -0.1)">
       <defs>
        <path id="DejaVuSans-53" d="M 3425 4513 
L 3425 3897 
Q 3066 4069 2747 4153 
Q 2428 4238 2131 4238 
Q 1616 4238 1336 4038 
Q 1056 3838 1056 3469 
Q 1056 3159 1242 3001 
Q 1428 2844 1947 2747 
L 2328 2669 
Q 3034 2534 3370 2195 
Q 3706 1856 3706 1288 
Q 3706 609 3251 259 
Q 2797 -91 1919 -91 
Q 1588 -91 1214 -16 
Q 841 59 441 206 
L 441 856 
Q 825 641 1194 531 
Q 1563 422 1919 422 
Q 2459 422 2753 634 
Q 3047 847 3047 1241 
Q 3047 1584 2836 1778 
Q 2625 1972 2144 2069 
L 1759 2144 
Q 1053 2284 737 2584 
Q 422 2884 422 3419 
Q 422 4038 858 4394 
Q 1294 4750 2059 4750 
Q 2388 4750 2728 4690 
Q 3069 4631 3425 4513 
z
" transform="scale(0.015625)"/>
        <path id="DejaVuSans-65" d="M 3597 1894 
L 3597 1613 
L 953 1613 
Q 991 1019 1311 708 
Q 1631 397 2203 397 
Q 2534 397 2845 478 
Q 3156 559 3463 722 
L 3463 178 
Q 3153 47 2828 -22 
Q 2503 -91 2169 -91 
Q 1331 -91 842 396 
Q 353 884 353 1716 
Q 353 2575 817 3079 
Q 1281 3584 2069 3584 
Q 2775 3584 3186 3129 
Q 3597 2675 3597 1894 
z
M 3022 2063 
Q 3016 2534 2758 2815 
Q 2500 3097 2075 3097 
Q 1594 3097 1305 2825 
Q 1016 2553 972 2059 
L 3022 2063 
z
" transform="scale(0.015625)"/>
        <path id="DejaVuSans-70" d="M 1159 525 
L 1159 -1331 
L 581 -1331 
L 581 3500 
L 1159 3500 
L 1159 2969 
Q 1341 3281 1617 3432 
Q 1894 3584 2278 3584 
Q 2916 3584 3314 3078 
Q 3713 2572 3713 1747 
Q 3713 922 3314 415 
Q 2916 -91 2278 -91 
Q 1894 -91 1617 61 
Q 1341 213 1159 525 
z
M 3116 1747 
Q 3116 2381 2855 2742 
Q 2594 3103 2138 3103 
Q 1681 3103 1420 2742 
Q 1159 2381 1159 1747 
Q 1159 1113 1420 752 
Q 1681 391 2138 391 
Q 2594 391 2855 752 
Q 3116 1113 3116 1747 
z
" transform="scale(0.015625)"/>
       </defs>
       <use xlink:href="#DejaVuSans-53"/>
       <use xlink:href="#DejaVuSans-65" transform="translate(63.476562 0)"/>
       <use xlink:href="#DejaVuSans-70" transform="translate(125 0)"/>
      </g>
     </g>
    </g>
    <g id="xtick_2">
     <g id="line2d_3">
      <path d="M 224.922028 455.237812 
L 224.922028 38.397812 
" clip-path="url(#p0a83af875d)" style="fill: none; stroke: #30363d; stroke-opacity: 0.25; stroke-width: 0.5; stroke-linecap: square"/>
     </g>
     <g id="line2d_4">
      <g>
       <use xlink:href="#m22b13d955e" x="224.922028" y="455.237812" style="fill: #c9d1d9; stroke: #c9d1d9; stroke-width: 0.8"/>
      </g>
     </g>
     <g id="text_2">
      <!-- Oct -->
      <g style="fill: #c9d1d9" transform="translate(216.276715 469.83625) scale(0.1 -0.1)">
       <defs>
        <path id="DejaVuSans-4f" d="M 2522 4238 
Q 1834 4238 1429 3725 
Q 1025 3213 1025 2328 
Q 1025 1447 1429 934 
Q 1834 422 2522 422 
Q 3209 422 3611 934 
Q 4013 1447 4013 2328 
Q 4013 3213 3611 3725 
Q 3209 4238 2522 4238 
z
M 2522 4750 
Q 3503 4750 4090 4092 
Q 4678 3434 4678 2328 
Q 4678 1225 4090 567 
Q 3503 -91 2522 -91 
Q 1538 -91 948 565 
Q 359 1222 359 2328 
Q 359 3434 948 4092 
Q 1538 4750 2522 4750 
z
" transform="scale(0.015625)"/>
        <path id="DejaVuSans-63" d="M 3122 3366 
L 3122 2828 
Q 2878 2963 2633 3030 
Q 2388 3097 2138 3097 
Q 1578 3097 1268 2742 
Q 959 2388 959 1747 
Q 959 1106 1268 751 
Q 1578 397 2138 397 
Q 2388 397 2633 464 
Q 2878 531 3122 666 
L 3122 134 
Q 2881 22 2623 -34 
Q 2366 -91 2075 -91 
Q 1284 -91 818 406 
Q 353 903 353 1747 
Q 353 2603 823 3093 
Q 1294 3584 2113 3584 
Q 2378 3584 2631 3529 
Q 2884 3475 3122 3366 
z
" transform="scale(0.015625)"/>
        <path id="DejaVuSans-74" d="M 1172 4494 
L 1172 3500 
L 2356 3500 
L 2356 3053 
L 1172 3053 
L 1172 1153 
Q 1172 725 1289 603 
Q 1406 481 1766 481 
L 2356 481 
L 2356 0 
L 1766 0 
Q 1100 0 847 248 
Q 594 497 594 1153 
L 594 3053 
L 172 3053 
L 172 3500 
L 594 3500 
L 594 4494 
L 1172 4494 
z
" transform="scale(0.015625)"/>
       </defs>
       <use xlink:href="#DejaVuSans-4f"/>
       <use xlink:href="#DejaVuSans-63" transform="translate(78.710938 0)"/>
       <use xlink:href="#DejaVuSans-74" transform="translate(133.691406 0)"/>
      </g>
     </g>
    </g>
    <g id="xtick_3">
     <g id="line2d_5">
      <path d="M 367.867297 455.237812 
L 367.867297 38.397812 
" clip-path="url(#p0a83af875d)" style="fill: none; stroke: #30363d; stroke-opacity: 0.25; stroke-width: 0.5; stroke-linecap: square"/>
     </g>
     <g id="line2d_6">
      <g>
       <use xlink:href="#m22b13d955e" x="367.867297" y="455.237812" style="fill: #c9d1d9; stroke: #c9d1d9; stroke-width: 0.8"/>
      </g>
     </g>
     <g id="text_3">
      <!-- Nov -->
      <g style="fill: #c9d1d9" transform="translate(358.107922 469.83625) scale(0.1 -0.1)">
       <defs>
        <path id="DejaVuSans-4e" d="M 628 4666 
L 1478 4666 
L 3547 763 
L 3547 4666 
L 4159 4666 
L 4159 0 
L 3309 0 
L 1241 3903 
L 1241 0 
L 628 0 
L 628 4666 
z
" transform="scale(0.015625)"/>
        <path id="DejaVuSans-6f" d="M 1959 3097 
Q 1497 3097 1228 2736 
Q 959 2375 959 1747 
Q 959 1119 1226 758 
Q 1494 397 1959 397 
Q 2419 397 2687 759 
Q 2956 1122 2956 1747 
Q 2956 2369 2687 2733 
Q 2419 3097 1959 3097 
z
M 1959 3584 
Q 2709 3584 3137 3096 
Q 3566 2609 3566 1747 
Q 3566 888 3137 398 
Q 2709 -91 1959 -91 
Q 1206 -91 779 398 
Q 353 888 353 1747 
Q 353 2609 779 3096 
Q 1206 3584 1959 3584 
z
" transform="scale(0.015625)"/>
        <path id="DejaVuSans-76" d="M 191 3500 
L 800 3500 
L 1894 563 
L 2988 3500 
L 3597 3500 
L 2284 0 
L 1503 0 
L 191 3500 
z
" transform="scale(0.015625)"/>
       </defs>
       <use xlink:href="#DejaVuSans-4e"/>
       <use xlink:href="#DejaVuSans-6f" transform="translate(74.804688 0)"/>
       <use xlink:href="#DejaVuSans-76" transform="translate(135.986328 0)"/>
      </g>
     </g>
    </g>
    <g id="xtick_4">
     <g id="line2d_7">
      <path d="M 506.201428 455.237812 
L 506.201428 38.397812 
" clip-path="url(#p0a83af875d)" style="fill: none; stroke: #30363d; stroke-opacity: 0.25; stroke-width: 0.5; stroke-linecap: square"/>
     </g>
     <g id="line2d_8">
      <g>
       <use xlink:href="#m22b13d955e" x="506.201428" y="455.237812" style="fill: #c9d1d9; stroke: #c9d1d9; stroke-width: 0.8"/>
      </g>
     </g>
     <g id="text_4">
      <!-- Dec -->
      <g style="fill: #c9d1d9" transform="translate(496.525646 469.83625) scale(0.1 -0.1)">
       <defs>
        <path id="DejaVuSans-44" d="M 1259 4147 
L 1259 519 
L 2022 519 
Q 2988 519 3436 956 
Q 3884 1394 3884 2338 
Q 3884 3275 3436 3711 
Q 2988 4147 2022 4147 
L 1259 4147 
z
M 628 4666 
L 1925 4666 
Q 3281 4666 3915 4102 
Q 4550 3538 4550 2338 
Q 4550 1131 3912 565 
Q 3275 0 1925 0 
L 628 0 
L 628 4666 
z
" transform="scale(0.015625)"/>
       </defs>
       <use xlink:href="#DejaVuSans-44"/>
       <use xlink:href="#DejaVuSans-65" transform="translate(77.001953 0)"/>
       <use xlink:href="#DejaVuSans-63" transform="translate(138.525391 0)"/>
      </g>
     </g>
    </g>
    <g id="xtick_5">
     <g id="line2d_9">
      <path d="M 649.146696 455.237812 
L 649.146696 38.397812 
" clip-path="url(#p0a83af875d)" style="fill: none; stroke: #30363d; stroke-opacity: 0.25; stroke-width: 0.5; stroke-linecap: square"/>
     </g>
     <g id="line2d_10">
      <g>
       <use xlink:href="#m22b13d955e" x="649.146696" y="455.237812" style="fill: #c9d1d9; stroke: #c9d1d9; stroke-width: 0.8"/>
      </g>
     </g>
     <g id="text_5">
      <!-- 2026 -->
      <g style="fill: #c9d1d9" transform="translate(636.421696 469.83625) scale(0.1 -0.1)">
       <defs>
        <path id="DejaVuSans-32" d="M 1228 531 
L 3431 531 
L 3431 0 
L 469 0 
L 469 531 
Q 828 903 1448 1529 
Q 2069 2156 2228 2338 
Q 2531 2678 2651 2914 
Q 2772 3150 2772 3378 
Q 2772 3750 2511 3984 
Q 2250 4219 1831 4219 
Q 1534 4219 1204 4116 
Q 875 4013 500 3803 
L 500 4441 
Q 881 4594 1212 4672 
Q 1544 4750 1819 4750 
Q 2544 4750 2975 4387 
Q 3406 4025 3406 3419 
Q 3406 3131 3298 2873 
Q 3191 2616 2906 2266 
Q 2828 2175 2409 1742 
Q 1991 1309 1228 531 
z
" transform="scale(0.015625)"/>
        <path id="DejaVuSans-30" d="M 2034 4250 
Q 1547 4250 1301 3770 
Q 1056 3291 1056 2328 
Q 1056 1369 1301 889 
Q 1547 409 2034 409 
Q 2525 409 2770 889 
Q 3016 1369 3016 2328 
Q 3016 3291 2770 3770 
Q 2525 4250 2034 4250 
z
M 2034 4750 
Q 2819 4750 3233 4129 
Q 3647 3509 3647 2328 
Q 3647 1150 3233 529 
Q 2819 -91 2034 -91 
Q 1250 -91 836 529 
Q 422 1150 422 2328 
Q 422 3509 836 4129 
Q 1250 4750 2034 4750 
z
" transform="scale(0.015625)"/>
        <path id="DejaVuSans-36" d="M 2113 2584 
Q 1688 2584 1439 2293 
Q 1191 2003 1191 1497 
Q 1191 994 1439 701 
Q 1688 409 2113 409 
Q 2538 409 2786 701 
Q 3034 994 3034 1497 
Q 3034 2003 2786 2293 
Q 2538 2584 2113 2584 
z
M 3366 4563 
L 3366 3988 
Q 3128 4100 2886 4159 
Q 2644 4219 2406 4219 
Q 1781 4219 1451 3797 
Q 1122 3375 1075 2522 
Q 1259 2794 1537 2939 
Q 1816 3084 2150 3084 
Q 2853 3084 3261 2657 
Q 3669 2231 3669 1497 
Q 3669 778 3244 343 
Q 2819 -91 2113 -91 
Q 1303 -91 875 529 
Q 447 1150 447 2328 
Q 447 3434 972 4092 
Q 1497 4750 2381 4750 
Q 2619 4750 2861 4703 
Q 3103 4656 3366 4563 
z
" transform="scale(0.015625)"/>
       </defs>
       <use xlink:href="#DejaVuSans-32"/>
       <use xlink:href="#DejaVuSans-30" transform="translate(63.623047 0)"/>
       <use xlink:href="#DejaVuSans-32" transform="translate(127.246094 0)"/>
       <use xlink:href="#DejaVuSans-36" transform="translate(190.869141 0)"/>
      </g>
     </g>
    </g>
    <g id="xtick_6">
     <g id="line2d_11">
      <path d="M 792.091965 455.237812 
L 792.091965 38.397812 
" clip-path="url(#p0a83af875d)" style="fill: none; stroke: #30363d; stroke-opacity: 0.25; stroke-width: 0.5; stroke-linecap: square"/>
     </g>
     <g id="line2d_12">
      <g>
       <use xlink:href="#m22b13d955e" x="792.091965" y="455.237812" style="fill: #c9d1d9; stroke: #c9d1d9; stroke-width: 0.8"/>
      </g>
     </g>
     <g id="text_6">
      <!-- Feb -->
      <g style="fill: #c9d1d9" transform="translate(783.240403 469.83625) scale(0.1 -0.1)">
       <defs>
        <path id="DejaVuSans-46" d="M 628 4666 
L 3309 4666 
L 3309 4134 
L 1259 4134 
L 1259 2759 
L 3109 2759 
L 3109 2228 
L 1259 2228 
L 1259 0 
L 628 0 
L 628 4666 
z
" transform="scale(0.015625)"/>
        <path id="DejaVuSans-62" d="M 3116 1747 
Q 3116 2381 2855 2742 
Q 2594 3103 2138 3103 
Q 1681 3103 1420 2742 
Q 1159 2381 1159 1747 
Q 1159 1113 1420 752 
Q 1681 391 2138 391 
Q 2594 391 2855 752 
Q 3116 1113 3116 1747 
z
M 1159 2969 
Q 1341 3281 1617 3432 
Q 1894 3584 2278 3584 
Q 2916 3584 3314 3078 
Q 3713 2572 3713 1747 
Q 3713 922 3314 415 
Q 2916 -91 2278 -91 
Q 1894 -91 1617 61 
Q 1341 213 1159 525 
L 1159 0 
L 581 0 
L 581 4863 
L 1159 4863 
L 1159 2969 
z
" transform="scale(0.015625)"/>
       </defs>
       <use xlink:href="#DejaVuSans-46"/>
       <use xlink:href="#DejaVuSans-65" transform="translate(52.019531 0)"/>
       <use xlink:href="#DejaVuSans-62" transform="translate(113.542969 0)"/>
      </g>
     </g>
    </g>
    <g id="text_7">
     <!-- Date -->
     <g style="fill: #c9d1d9" transform="translate(434.285313 485.034062) scale(0.12 -0.12)">
      <defs>
       <path id="DejaVuSans-61" d="M 2194 1759 
Q 1497 1759 1228 1600 
Q 959 1441 959 1056 
Q 959 750 1161 570 
Q 1363 391 1709 391 
Q 2188 391 2477 730 
Q 2766 1069 2766 1631 
L 2766 1759 
L 2194 1759 
z
M 3341 1997 
L 3341 0 
L 2766 0 
L 2766 531 
Q 2569 213 2275 61 
Q 1981 -91 1556 -91 
Q 1019 -91 701 211 
Q 384 513 384 1019 
Q 384 1609 779 1909 
Q 1175 2209 1959 2209 
L 2766 2209 
L 2766 2266 
Q 2766 2663 2505 2880 
Q 2244 3097 1772 3097 
Q 1472 3097 1187 3025 
Q 903 2953 641 2809 
L 641 3341 
Q 956 3463 1253 3523 
Q 1550 3584 1831 3584 
Q 2591 3584 2966 3190 
Q 3341 2797 3341 1997 
z
" transform="scale(0.015625)"/>
      </defs>
      <use xlink:href="#DejaVuSans-44"/>
      <use xlink:href="#DejaVuSans-61" transform="translate(77.001953 0)"/>
      <use xlink:href="#DejaVuSans-74" transform="translate(138.28125 0)"/>
      <use xlink:href="#DejaVuSans-65" transform="translate(177.490234 0)"/>
     </g>
    </g>
   </g>
   <g id="matplotlib.axis_2">
    <g id="ytick_1">
     <g id="line2d_13">
      <path d="M 48.90125 455.237812 
L 848.35125 455.237812 
" clip-path="url(#p0a83af875d)" style="fill: none; stroke: #30363d; stroke-opacity: 0.25; stroke-width: 0.5; stroke-linecap: square"/>
     </g>
     <g id="line2d_14">
      <defs>
       <path id="mc224d783b5" d="M 0 0 
L -3.5 0 
" style="stroke: #c9d1d9; stroke-width: 0.8"/>
      </defs>
      <g>
       <use xlink:href="#mc224d783b5" x="48.90125" y="455.237812" style="fill: #c9d1d9; stroke: #c9d1d9; stroke-width: 0.8"/>
      </g>
     </g>
     <g id="text_8">
      <!-- 0 -->
      <g style="fill: #c9d1d9" transform="translate(35.53875 459.037031) scale(0.1 -0.1)">
       <use xlink:href="#DejaVuSans-30"/>
      </g>
     </g>
    </g>
    <g id="ytick_2">
     <g id="line2d_15">
      <path d="M 48.90125 399.659146 
L 848.35125 399.659146 
" clip-path="url(#p0a83af875d)" style="fill: none; stroke: #30363d; stroke-opacity: 0.25; stroke-width: 0.5; stroke-linecap: square"/>
     </g>
     <g id="line2d_16">
      <g>
       <use xlink:href="#mc224d783b5" x="48.90125" y="399.659146" style="fill: #c9d1d9; stroke: #c9d1d9; stroke-width: 0.8"/>
      </g>
     </g>
     <g id="text_9">
      <!-- 100 -->
      <g style="fill: #c9d1d9" transform="translate(22.81375 403.458365) scale(0.1 -0.1)">
       <defs>
        <path id="DejaVuSans-31" d="M 794 531 
L 1825 531 
L 1825 4091 
L 703 3866 
L 703 4441 
L 1819 4666 
L 2450 4666 
L 2450 531 
L 3481 531 
L 3481 0 
L 794 0 
L 794 531 
z
" transform="scale(0.015625)"/>
       </defs>
       <use xlink:href="#DejaVuSans-31"/>
       <use xlink:href="#DejaVuSans-30" transform="translate(63.623047 0)"/>
       <use xlink:href="#DejaVuSans-30" transform="translate(127.246094 0)"/>
      </g>
     </g>
    </g>
    <g id="ytick_3">
     <g id="line2d_17">
      <path d="M 48.90125 344.080479 
L 848.35125 344.080479 
" clip-path="url(#p0a83af875d)" style="fill: none; stroke: #30363d; stroke-opacity: 0.25; stroke-width: 0.5; stroke-linecap: square"/>
     </g>
     <g id="line2d_18">
      <g>
       <use xlink:href="#mc224d783b5" x="48.90125" y="344.080479" style="fill: #c9d1d9; stroke: #c9d1d9; stroke-width: 0.8"/>
      </g>
     </g>
     <g id="text_10">
      <!-- 200 -->
      <g style="fill: #c9d1d9" transform="translate(22.81375 347.879698) scale(0.1 -0.1)">
       <use xlink:href="#DejaVuSans-32"/>
       <use xlink:href="#DejaVuSans-30" transform="translate(63.623047 0)"/>
       <use xlink:href="#DejaVuSans-30" transform="translate(127.246094 0)"/>
      </g>
     </g>
    </g>
    <g id="ytick_4">
     <g id="line2d_19">
      <path d="M 48.90125 288.501812 
L 848.35125 288.501812 
" clip-path="url(#p0a83af875d)" style="fill: none; stroke: #30363d; stroke-opacity: 0.25; stroke-width: 0.5; stroke-linecap: square"/>
     </g>
     <g id="line2d_20">
      <g>
       <use xlink:href="#mc224d783b5" x="48.90125" y="288.501812" style="fill: #c9d1d9; stroke: #c9d1d9; stroke-width: 0.8"/>
      </g>
     </g>
     <g id="text_11">
      <!-- 300 -->
      <g style="fill: #c9d1d9" transform="translate(22.81375 292.301031) scale(0.1 -0.1)">
       <defs>
        <path id="DejaVuSans-33" d="M 2597 2516 
Q 3050 2419 3304 2112 
Q 3559 1806 3559 1356 
Q 3559 666 3084 287 
Q 2609 -91 1734 -91 
Q 1441 -91 1130 -33 
Q 819 25 488 141 
L 488 750 
Q 750 597 1062 519 
Q 1375 441 1716 441 
Q 2309 441 2620 675 
Q 2931 909 2931 1356 
Q 2931 1769 2642 2001 
Q 2353 2234 1838 2234 
L 1294 2234 
L 1294 2753 
L 1863 2753 
Q 2328 2753 2575 2939 
Q 2822 3125 2822 3475 
Q 2822 3834 2567 4026 
Q 2313 4219 1838 4219 
Q 1578 4219 1281 4162 
Q 984 4106 628 3988 
L 628 4550 
Q 988 4650 1302 4700 
Q 1616 4750 1894 4750 
Q 2613 4750 3031 4423 
Q 3450 4097 3450 3541 
Q 3450 3153 3228 2886 
Q 3006 2619 2597 2516 
z
" transform="scale(0.015625)"/>
       </defs>
       <use xlink:href="#DejaVuSans-33"/>
       <use xlink:href="#DejaVuSans-30" transform="translate(63.623047 0)"/>
       <use xlink:href="#DejaVuSans-30" transform="translate(127.246094 0)"/>
      </g>
     </g>
    </g>
    <g id="ytick_5">
     <g id="line2d_21">
      <path d="M 48.90125 232.923146 
L 848.35125 232.923146 
" clip-path="url(#p0a83af875d)" style="fill: none; stroke: #30363d; stroke-opacity: 0.25; stroke-width: 0.5; stroke-linecap: square"/>
     </g>
     <g id="line2d_22">
      <g>
       <use xlink:href="#mc224d783b5" x="48.90125" y="232.923146" style="fill: #c9d1d9; stroke: #c9d1d9; stroke-width: 0.8"/>
      </g>
     </g>
     <g id="text_12">
      <!-- 400 -->
      <g style="fill: #c9d1d9" transform="translate(22.81375 236.722365) scale(0.1 -0.1)">
       <defs>
        <path id="DejaVuSans-34" d="M 2419 4116 
L 825 1625 
L 2419 1625 
L 2419 4116 
z
M 2253 4666 
L 3047 4666 
L 3047 1625 
L 3713 1625 
L 3713 1100 
L 3047 1100 
L 3047 0 
L 2419 0 
L 2419 1100 
L 313 1100 
L 313 1709 
L 2253 4666 
z
" transform="scale(0.015625)"/>
       </defs>
       <use xlink:href="#DejaVuSans-34"/>
       <use xlink:href="#DejaVuSans-30" transform="translate(63.623047 0)"/>
       <use xlink:href="#DejaVuSans-30" transform="translate(127.246094 0)"/>
      </g>
     </g>
    </g>
    <g id="ytick_6">
     <g id="line2d_23">
      <path d="M 48.90125 177.344479 
L 848.35125 177.344479 
" clip-path="url(#p0a83af875d)" style="fill: none; stroke: #30363d; stroke-opacity: 0.25; stroke-width: 0.5; stroke-linecap: square"/>
     </g>
     <g id="line2d_24">
      <g>
       <use xlink:href="#mc224d783b5" x="48.90125" y="177.344479" style="fill: #c9d1d9; stroke: #c9d1d9; stroke-width: 0.8"/>
      </g>
     </g>
     <g id="text_13">
      <!-- 500 -->
      <g style="fill: #c9d1d9" transform="translate(22.81375 181.143698) scale(0.1 -0.1)">
       <defs>
        <path id="DejaVuSans-35" d="M 691 4666 
L 3169 4666 
L 3169 4134 
L 1269 4134 
L 1269 2991 
Q 1406 3038 1543 3061 
Q 1681 3084 1819 3084 
Q 2600 3084 3056 2656 
Q 3513 2228 3513 1497 
Q 3513 744 3044 326 
Q 2575 -91 1722 -91 
Q 1428 -91 1123 -41 
Q 819 9 494 109 
L 494 744 
Q 775 591 1075 516 
Q 1375 441 1709 441 
Q 2250 441 2565 725 
Q 2881 1009 2881 1497 
Q 2881 1984 2565 2268 
Q 2250 2553 1709 2553 
Q 1456 2553 1204 2497 
Q 953 2441 691 2322 
L 691 4666 
z
" transform="scale(0.015625)"/>
       </defs>
       <use xlink:href="#DejaVuSans-35"/>
       <use xlink:href="#DejaVuSans-30" transform="translate(63.623047 0)"/>
       <use xlink:href="#DejaVuSans-30" transform="translate(127.246094 0)"/>
      </g>
     </g>
    </g>
    <g id="ytick_7">
     <g id="line2d_25">
      <path d="M 48.90125 121.765812 
L 848.35125 121.765812 
" clip-path="url(#p0a83af875d)" style="fill: none; stroke: #30363d; stroke-opacity: 0.25; stroke-width: 0.5; stroke-linecap: square"/>
     </g>
     <g id="line2d_26">
      <g>
       <use xlink:href="#mc224d783b5" x="48.90125" y="121.765812" style="fill: #c9d1d9; stroke: #c9d1d9; stroke-width: 0.8"/>
      </g>
     </g>
     <g id="text_14">
      <!-- 600 -->
      <g style="fill: #c9d1d9" transform="translate(22.81375 125.565031) scale(0.1 -0.1)">
       <use xlink:href="#DejaVuSans-36"/>
       <use xlink:href="#DejaVuSans-30" transform="translate(63.623047 0)"/>
       <use xlink:href="#DejaVuSans-30" transform="translate(127.246094 0)"/>
      </g>
     </g>
    </g>
    <g id="ytick_8">
     <g id="line2d_27">
      <path d="M 48.90125 66.187146 
L 848.35125 66.187146 
" clip-path="url(#p0a83af875d)" style="fill: none; stroke: #30363d; stroke-opacity: 0.25; stroke-width: 0.5; stroke-linecap: square"/>
     </g>
     <g id="line2d_28">
      <g>
       <use xlink:href="#mc224d783b5" x="48.90125" y="66.187146" style="fill: #c9d1d9; stroke: #c9d1d9; stroke-width: 0.8"/>
      </g>
     </g>
     <g id="text_15">
      <!-- 700 -->
      <g style="fill: #c9d1d9" transform="translate(22.81375 69.986365) scale(0.1 -0.1)">
       <defs>
        <path id="DejaVuSans-37" d="M 525 4666 
L 3525 4666 
L 3525 4397 
L 1831 0 
L 1172 0 
L 2766 4134 
L 525 4134 
L 525 4666 
z
" transform="scale(0.015625)"/>
       </defs>
       <use xlink:href="#DejaVuSans-37"/>
       <use xlink:href="#DejaVuSans-30" transform="translate(63.623047 0)"/>
       <use xlink:href="#DejaVuSans-30" transform="translate(127.246094 0)"/>
      </g>
     </g>
    </g>
    <g id="text_16">
     <!-- Count -->
     <g style="fill: #c9d1d9" transform="translate(16.318125 264.635937) rotate(-90) scale(0.12 -0.12)">
      <defs>
       <path id="DejaVuSans-43" d="M 4122 4306 
L 4122 3641 
Q 3803 3938 3442 4084 
Q 3081 4231 2675 4231 
Q 1875 4231 1450 3742 
Q 1025 3253 1025 2328 
Q 1025 1406 1450 917 
Q 1875 428 2675 428 
Q 3081 428 3442 575 
Q 3803 722 4122 1019 
L 4122 359 
Q 3791 134 3420 21 
Q 3050 -91 2638 -91 
Q 1578 -91 968 557 
Q 359 1206 359 2328 
Q 359 3453 968 4101 
Q 1578 4750 2638 4750 
Q 3056 4750 3426 4639 
Q 3797 4528 4122 4306 
z
" transform="scale(0.015625)"/>
       <path id="DejaVuSans-75" d="M 544 1381 
L 544 3500 
L 1119 3500 
L 1119 1403 
Q 1119 906 1312 657 
Q 1506 409 1894 409 
Q 2359 409 2629 706 
Q 2900 1003 2900 1516 
L 2900 3500 
L 3475 3500 
L 3475 0 
L 2900 0 
L 2900 538 
Q 2691 219 2414 64 
Q 2138 -91 1772 -91 
Q 1169 -91 856 284 
Q 544 659 544 1381 
z
M 1991 3584 
L 1991 3584 
z
" transform="scale(0.015625)"/>
       <path id="DejaVuSans-6e" d="M 3513 2113 
L 3513 0 
L 2938 0 
L 2938 2094 
Q 2938 2591 2744 2837 
Q 2550 3084 2163 3084 
Q 1697 3084 1428 2787 
Q 1159 2491 1159 1978 
L 1159 0 
L 581 0 
L 581 3500 
L 1159 3500 
L 1159 2956 
Q 1366 3272 1645 3428 
Q 1925 3584 2291 3584 
Q 2894 3584 3203 3211 
Q 3513 2838 3513 2113 
z
" transform="scale(0.015625)"/>
      </defs>
      <use xlink:href="#DejaVuSans-43"/>
      <use xlink:href="#DejaVuSans-6f" transform="translate(69.824219 0)"/>
      <use xlink:href="#DejaVuSans-75" transform="translate(131.005859 0)"/>
      <use xlink:href="#DejaVuSans-6e" transform="translate(194.384766 0)"/>
      <use xlink:href="#DejaVuSans-74" transform="translate(257.763672 0)"/>
     </g>
    </g>
   </g>
   <g id="line2d_29">
    <path d="M 85.239886 454.682026 
L 85.328213 454.682026 
L 85.384251 454.126239 
L 85.6614 454.126239 
L 85.786765 257.933546 
L 89.671275 257.933546 
L 89.688247 261.268266 
L 94.182185 261.268266 
L 94.399666 260.712479 
L 95.023557 260.712479 
L 95.529181 260.156692 
L 98.662246 259.600906 
L 98.724102 260.156692 
L 98.874284 259.600906 
L 108.576459 259.600906 
L 114.429616 260.712479 
L 115.300501 259.600906 
L 115.936401 259.600906 
L 117.539091 259.045119 
L 118.209628 256.821972 
L 119.515263 256.821972 
L 121.417891 260.712479 
L 121.541335 256.821972 
L 123.001315 256.266186 
L 126.800967 256.266186 
L 127.803196 255.710399 
L 129.291889 255.710399 
L 129.690934 254.598826 
L 138.969994 254.598826 
L 139.646775 253.487252 
L 139.681465 252.375679 
L 142.6034 252.375679 
L 146.911932 251.264106 
L 149.172083 251.264106 
L 149.206293 250.708319 
L 154.396812 250.708319 
L 155.684408 247.929386 
L 159.759341 247.929386 
L 159.787627 247.373599 
L 182.609289 247.373599 
L 186.875232 246.817812 
L 187.020878 247.373599 
L 191.445222 246.817812 
L 206.841565 246.817812 
L 214.303976 246.262026 
L 214.448128 245.706239 
L 214.802609 245.150452 
L 219.012407 245.150452 
L 220.804133 244.594666 
L 228.193 244.594666 
L 228.473511 247.373599 
L 228.487281 245.150452 
L 228.846512 245.150452 
L 230.630339 242.927306 
L 239.364069 242.927306 
L 246.057637 242.371519 
L 253.497099 242.371519 
L 253.823561 241.815732 
L 273.154955 241.815732 
L 273.979997 241.259946 
L 278.673911 241.259946 
L 278.707 240.148372 
L 287.650579 240.148372 
L 287.831982 236.257866 
L 304.019371 236.257866 
L 304.024227 235.702079 
L 304.493026 235.702079 
L 306.163283 235.146292 
L 308.606599 235.146292 
L 309.266034 234.590506 
L 309.331999 235.146292 
L 310.84204 234.590506 
L 310.848925 234.034719 
L 310.884202 234.590506 
L 311.756475 234.034719 
L 319.702309 234.034719 
L 322.172737 233.478932 
L 325.104118 233.478932 
L 330.083026 232.923146 
L 334.796473 232.923146 
L 338.438098 231.811572 
L 346.407574 231.811572 
L 351.043475 230.699999 
L 352.349644 231.255786 
L 358.820127 231.255786 
L 366.11912 229.032639 
L 377.004661 229.032639 
L 380.380665 228.476852 
L 440.545071 228.476852 
L 441.030948 227.921066 
L 462.971531 227.921066 
L 463.338128 227.365279 
L 500.672172 227.365279 
L 508.893019 226.809492 
L 508.940572 227.365279 
L 514.825483 225.697919 
L 523.461919 225.697919 
L 528.177715 225.142132 
L 528.185454 224.586346 
L 538.025002 224.586346 
L 541.556525 225.142132 
L 542.826029 224.586346 
L 559.293021 224.586346 
L 559.993818 225.142132 
L 561.277572 224.586346 
L 561.718725 222.363199 
L 569.265033 222.363199 
L 569.271544 221.807412 
L 592.363097 221.807412 
L 593.707799 221.251626 
L 598.145592 221.251626 
L 598.578527 220.695839 
L 620.218692 220.695839 
L 620.248099 220.140052 
L 625.660635 220.140052 
L 625.668694 219.584266 
L 626.982068 219.584266 
L 627.050648 219.028479 
L 629.090169 219.028479 
L 629.4106 218.472692 
L 633.77581 218.472692 
L 634.439355 217.361119 
L 636.84243 215.137972 
L 642.653478 215.137972 
L 643.082517 212.359039 
L 645.031096 212.359039 
L 645.987427 211.247466 
L 650.915367 211.247466 
L 652.53236 210.691679 
L 657.161003 210.691679 
L 657.781372 210.135892 
L 670.35318 210.135892 
L 670.662937 209.580106 
L 671.825702 209.580106 
L 673.63093 209.024319 
L 693.96498 209.024319 
L 694.147664 208.468532 
L 694.799628 208.468532 
L 696.160661 207.356959 
L 698.068839 207.356959 
L 698.527658 206.801172 
L 698.969719 206.801172 
L 699.13746 206.245386 
L 704.240452 206.245386 
L 705.109203 205.689599 
L 709.550946 205.689599 
L 709.835726 205.133812 
L 712.268742 205.133812 
L 712.424635 204.578026 
L 719.985886 204.578026 
L 720.14845 204.022239 
L 724.558278 204.022239 
L 725.788662 202.354879 
L 726.031173 201.799092 
L 727.664178 201.799092 
L 727.665886 201.243306 
L 734.296531 201.243306 
L 735.301962 200.687519 
L 740.589133 200.687519 
L 741.58912 200.131732 
L 741.965269 200.131732 
L 742.942361 199.575946 
L 745.438246 199.575946 
L 745.726709 199.020159 
L 751.986381 199.020159 
L 753.599906 198.464372 
L 753.717426 197.908586 
L 754.239808 197.908586 
L 755.88861 195.685439 
L 761.00201 195.685439 
L 761.038835 195.129652 
L 765.905293 195.129652 
L 766.188259 194.573866 
L 766.922251 194.573866 
L 767.478737 194.018079 
L 767.594816 194.573866 
L 768.011526 194.018079 
L 769.862919 194.018079 
L 769.880638 193.462292 
L 770.372279 193.462292 
L 770.587572 192.906506 
L 772.075198 192.350719 
L 782.425494 192.350719 
L 784.043235 191.794932 
L 785.126158 191.794932 
L 786.00473 191.239146 
L 786.893494 191.794932 
L 790.552891 191.794932 
L 790.653333 190.683359 
L 795.96404 190.683359 
L 798.002334 189.015999 
L 812.012614 189.015999 
L 812.012614 189.015999 
" clip-path="url(#p0a83af875d)" style="fill: none; stroke: #3fb950; stroke-width: 2; stroke-linecap: square"/>
   </g>
   <g id="line2d_30">
    <path d="M 85.239886 455.237812 
L 85.328213 453.570452 
L 85.541318 453.570452 
L 85.6614 372.981386 
L 87.838828 372.981386 
L 87.883605 370.758239 
L 90.128173 370.758239 
L 90.706486 369.090879 
L 91.493368 370.758239 
L 91.499186 369.090879 
L 92.150295 369.090879 
L 92.401933 367.979306 
L 98.831962 367.979306 
L 98.838099 367.423519 
L 98.874284 367.979306 
L 99.190766 367.423519 
L 99.283576 367.979306 
L 99.531104 367.423519 
L 101.78752 367.423519 
L 101.905573 366.867732 
L 102.227126 366.311946 
L 104.774726 366.311946 
L 107.673872 365.756159 
L 107.775915 365.200372 
L 108.559488 364.644586 
L 108.576459 364.088799 
L 114.429616 367.979306 
L 115.300501 366.311946 
L 115.936401 363.533012 
L 119.515263 363.533012 
L 121.417891 367.979306 
L 121.541335 363.533012 
L 156.308512 363.533012 
L 157.375372 362.977226 
L 159.787627 362.977226 
L 166.375896 362.421439 
L 167.980722 361.865652 
L 190.846948 361.865652 
L 191.445222 361.309866 
L 194.518993 360.754079 
L 196.472643 360.754079 
L 198.638169 360.198292 
L 198.696503 359.086719 
L 200.185089 358.530932 
L 201.185556 357.975146 
L 214.968268 357.975146 
L 217.715738 357.419359 
L 218.54633 357.419359 
L 219.012407 356.863572 
L 220.804133 356.863572 
L 222.58417 356.307786 
L 228.193 356.307786 
L 228.473511 358.530932 
L 228.487281 356.307786 
L 230.630339 356.307786 
L 230.845472 355.751999 
L 233.878896 355.751999 
L 236.86338 355.196212 
L 236.935803 354.640426 
L 246.057637 354.640426 
L 249.905108 354.084639 
L 249.914821 353.528852 
L 262.717987 353.528852 
L 268.058687 352.973066 
L 272.065574 352.973066 
L 273.154955 352.417279 
L 279.27117 352.417279 
L 282.759624 351.861492 
L 282.950848 351.305706 
L 286.351935 351.305706 
L 286.746657 350.749919 
L 287.831982 350.194132 
L 290.254804 350.194132 
L 291.784485 349.638346 
L 294.589114 349.638346 
L 296.419586 349.082559 
L 300.324536 349.082559 
L 301.654882 347.970986 
L 311.756475 347.970986 
L 314.633313 347.415199 
L 318.006702 347.415199 
L 318.767433 346.859412 
L 319.000071 346.303626 
L 319.702309 345.747839 
L 331.31896 345.747839 
L 333.445848 345.192052 
L 334.796473 344.636266 
L 367.829778 344.636266 
L 375.244957 344.080479 
L 375.33355 343.524692 
L 380.380665 343.524692 
L 384.694534 342.968906 
L 392.319242 342.968906 
L 392.96352 342.413119 
L 405.94873 342.413119 
L 416.11362 341.857332 
L 416.211179 341.301546 
L 417.540084 341.301546 
L 420.232529 340.745759 
L 420.248647 339.634186 
L 420.501192 338.522612 
L 426.125232 337.966826 
L 426.461995 337.411039 
L 426.596219 336.299466 
L 427.105579 335.743679 
L 445.406779 335.743679 
L 450.605837 335.187892 
L 453.915396 334.632106 
L 456.508093 334.632106 
L 462.51949 334.076319 
L 462.971531 331.853172 
L 463.338128 331.853172 
L 463.689834 331.297386 
L 464.202449 330.741599 
L 475.604821 330.185812 
L 475.967735 329.630026 
L 476.074794 329.074239 
L 478.48374 329.074239 
L 480.758515 328.518452 
L 481.019973 327.962666 
L 481.049593 327.406879 
L 481.197533 326.851092 
L 482.703251 326.295306 
L 482.81378 325.739519 
L 485.561036 325.183732 
L 489.17224 324.627946 
L 489.429055 324.072159 
L 489.434498 323.516372 
L 490.160859 322.960586 
L 490.28916 322.404799 
L 494.646365 321.849012 
L 495.527551 321.849012 
L 496.466644 321.293226 
L 518.519356 321.293226 
L 522.176458 320.737439 
L 522.509271 320.181652 
L 537.455548 320.181652 
L 538.025002 319.070079 
L 544.252333 319.070079 
L 546.132439 318.514292 
L 546.224288 317.402719 
L 546.70707 316.846932 
L 549.903859 316.291146 
L 549.975854 315.735359 
L 550.361717 315.179572 
L 550.431578 313.512212 
L 550.757133 312.956426 
L 551.197592 312.956426 
L 551.213817 312.400639 
L 553.882566 311.844852 
L 554.93176 311.289066 
L 555.18564 310.733279 
L 559.993818 310.177492 
L 563.537242 310.177492 
L 564.76768 309.621706 
L 578.090078 309.621706 
L 582.503695 309.065919 
L 582.521254 308.510132 
L 583.31502 307.954346 
L 593.707799 307.954346 
L 596.62381 307.398559 
L 597.825054 306.842772 
L 598.145592 305.731199 
L 606.552273 305.731199 
L 607.125036 305.175412 
L 611.741404 305.175412 
L 613.951494 304.619626 
L 620.248099 304.619626 
L 624.054689 304.063839 
L 631.959748 304.063839 
L 632.931342 303.508052 
L 636.84243 303.508052 
L 637.906995 302.952266 
L 638.368802 302.396479 
L 638.596264 301.840692 
L 641.815681 301.840692 
L 641.90721 300.729119 
L 643.082517 300.729119 
L 643.412288 299.617546 
L 643.854188 299.061759 
L 646.654654 299.061759 
L 647.002464 298.505972 
L 647.272461 298.505972 
L 648.612893 297.950186 
L 650.837287 297.950186 
L 650.915367 297.394399 
L 652.53236 297.394399 
L 652.925107 296.838612 
L 654.444915 296.838612 
L 656.771885 295.727039 
L 657.781372 295.727039 
L 661.685629 294.615466 
L 661.691499 294.059679 
L 662.436913 293.503892 
L 664.338794 292.948106 
L 664.634515 292.392319 
L 666.530739 291.836532 
L 669.630448 291.836532 
L 670.087613 291.280746 
L 670.35318 290.724959 
L 674.443323 290.724959 
L 674.550649 290.169172 
L 675.627649 290.169172 
L 675.710319 289.613386 
L 676.301334 289.057599 
L 678.357773 289.057599 
L 678.5142 288.501812 
L 678.866493 288.501812 
L 678.954019 287.946026 
L 679.096036 287.946026 
L 679.100839 287.390239 
L 681.99262 287.390239 
L 682.565276 286.834452 
L 683.046137 286.834452 
L 683.333533 286.278666 
L 684.067472 286.278666 
L 684.616966 285.722879 
L 684.732831 285.167092 
L 684.889898 285.167092 
L 687.652151 284.611306 
L 689.719211 284.611306 
L 689.875691 284.055519 
L 698.029719 284.055519 
L 698.068839 283.499732 
L 698.527658 283.499732 
L 698.969719 282.943946 
L 699.13746 282.943946 
L 699.440599 282.388159 
L 702.361253 282.388159 
L 702.539455 281.276586 
L 702.691131 279.609226 
L 703.172472 279.053439 
L 705.109203 279.053439 
L 706.022625 278.497652 
L 706.907974 278.497652 
L 707.193448 277.941866 
L 708.565849 277.386079 
L 709.835726 277.386079 
L 712.388663 276.830292 
L 712.424635 276.274506 
L 713.204792 276.274506 
L 713.334107 275.718719 
L 715.603544 275.718719 
L 715.666574 275.162932 
L 726.672516 275.162932 
L 726.755399 274.607146 
L 727.169975 274.607146 
L 727.182196 273.495572 
L 728.732318 273.495572 
L 728.846636 272.939786 
L 729.03391 272.939786 
L 730.015484 272.383999 
L 730.262212 271.828212 
L 730.713026 271.828212 
L 731.094512 271.272426 
L 731.218863 270.716639 
L 736.74908 270.716639 
L 738.144963 270.160852 
L 738.420671 269.049279 
L 738.760422 268.493492 
L 739.327581 268.493492 
L 739.673256 267.937706 
L 747.60975 267.937706 
L 747.736236 267.381919 
L 747.74675 266.826132 
L 747.925111 266.270346 
L 749.218098 266.270346 
L 749.265437 265.714559 
L 753.614796 265.714559 
L 753.717426 264.602986 
L 758.806863 264.602986 
L 758.859592 264.047199 
L 761.311287 264.047199 
L 761.327778 263.491412 
L 762.521657 263.491412 
L 762.553946 262.935626 
L 766.188259 262.935626 
L 766.369022 262.379839 
L 766.599312 262.379839 
L 766.922251 261.824052 
L 767.577791 261.824052 
L 767.594816 261.268266 
L 768.011526 261.268266 
L 768.806467 260.712479 
L 775.227263 260.712479 
L 775.693927 260.156692 
L 777.599063 260.156692 
L 777.602586 259.600906 
L 792.168551 259.600906 
L 794.640793 259.045119 
L 794.712468 258.489332 
L 795.96404 257.933546 
L 797.867148 257.933546 
L 797.99721 257.377759 
L 798.002334 256.821972 
L 798.346568 256.821972 
L 798.459071 256.266186 
L 803.544185 256.266186 
L 804.456912 255.710399 
L 812.012614 255.710399 
L 812.012614 255.710399 
" clip-path="url(#p0a83af875d)" style="fill: none; stroke: #58a6ff; stroke-width: 2; stroke-linecap: square"/>
   </g>
   <g id="line2d_31">
    <path d="M 85.239886 455.237812 
L 89.671275 455.237812 
L 89.688247 454.126239 
L 93.346629 454.126239 
L 94.182185 453.570452 
L 319.702309 453.570452 
L 322.172737 453.014666 
L 384.694534 453.014666 
L 386.429634 452.458879 
L 445.406779 452.458879 
L 450.605837 451.903092 
L 464.202449 451.903092 
L 476.074794 450.235732 
L 478.48374 449.124159 
L 482.81378 449.124159 
L 485.561036 448.568372 
L 489.434498 448.012586 
L 490.28916 448.012586 
L 494.646365 447.456799 
L 495.527551 447.456799 
L 496.466644 446.901012 
L 500.672172 446.345226 
L 508.893019 445.789439 
L 508.940572 446.345226 
L 522.509271 446.345226 
L 523.461919 445.789439 
L 542.826029 445.789439 
L 544.252333 445.233652 
L 550.757133 445.233652 
L 551.213817 444.677866 
L 559.293021 444.677866 
L 559.993818 444.122079 
L 589.590758 444.122079 
L 592.363097 443.566292 
L 593.528264 443.566292 
L 593.707799 443.010506 
L 601.606987 443.010506 
L 601.614513 442.454719 
L 620.218692 442.454719 
L 620.248099 441.898932 
L 625.668694 441.898932 
L 627.050648 441.343146 
L 629.086593 440.787359 
L 629.090169 440.231572 
L 629.4106 440.231572 
L 631.959748 438.564212 
L 633.67697 438.564212 
L 633.77581 436.896852 
L 634.439355 436.896852 
L 636.84243 437.452639 
L 638.570646 437.452639 
L 638.596264 435.229492 
L 645.031096 435.229492 
L 645.987427 434.673706 
L 647.002464 434.673706 
L 647.272461 434.117919 
L 670.35318 434.117919 
L 670.662937 433.562132 
L 671.825702 433.562132 
L 673.63093 433.006346 
L 681.595336 433.006346 
L 681.99262 432.450559 
L 684.732831 432.450559 
L 684.889898 431.894772 
L 693.96498 431.894772 
L 694.147664 431.338986 
L 694.799628 431.338986 
L 695.460878 430.783199 
L 696.121488 430.783199 
L 696.160661 430.227412 
L 698.969719 430.227412 
L 699.13746 429.671626 
L 712.17828 429.671626 
L 712.268742 429.115839 
L 712.424635 429.115839 
L 712.558486 428.560052 
L 713.334107 428.560052 
L 714.960066 428.004266 
L 721.316872 428.004266 
L 721.322476 427.448479 
L 722.537116 427.448479 
L 722.583334 426.892692 
L 726.031173 426.892692 
L 726.755399 426.336906 
L 731.350153 426.336906 
L 732.682793 425.781119 
L 735.274476 425.781119 
L 735.301962 424.669546 
L 735.512131 424.669546 
L 735.776631 424.113759 
L 739.945815 424.113759 
L 740.589133 423.557972 
L 741.58912 423.557972 
L 741.965269 423.002186 
L 744.406077 423.002186 
L 744.746895 422.446399 
L 744.751272 421.890612 
L 745.438246 421.890612 
L 745.726709 421.334826 
L 772.019373 421.334826 
L 772.075198 420.223252 
L 775.693927 420.223252 
L 776.735436 419.667466 
L 777.602586 419.667466 
L 781.670474 419.111679 
L 782.425494 419.111679 
L 784.043235 418.555892 
L 785.126158 418.555892 
L 786.00473 418.000106 
L 786.893494 418.555892 
L 789.754588 418.555892 
L 790.532611 418.000106 
L 790.653333 417.444319 
L 790.710705 416.888532 
L 792.158784 416.332746 
L 792.168551 415.221172 
L 798.489865 415.221172 
L 799.872299 414.665386 
L 800.012395 412.998026 
L 801.394135 412.442239 
L 802.158281 411.886452 
L 808.693822 411.886452 
L 808.971131 410.219092 
L 809.304478 410.219092 
L 809.551632 409.663306 
L 811.148879 409.107519 
L 812.012614 409.107519 
L 812.012614 409.107519 
" clip-path="url(#p0a83af875d)" style="fill: none; stroke: #d29922; stroke-width: 2; stroke-linecap: square"/>
   </g>
   <g id="line2d_32">
    <path d="M 85.239886 454.682026 
L 85.618918 454.682026 
L 85.6614 433.006346 
L 85.956694 431.338986 
L 86.059751 430.227412 
L 86.663949 426.892692 
L 87.165196 425.781119 
L 87.419503 426.336906 
L 87.883605 425.781119 
L 88.668513 425.225332 
L 89.213097 424.113759 
L 89.671275 423.557972 
L 89.688247 423.002186 
L 90.128173 421.334826 
L 90.706486 421.334826 
L 91.493368 420.779039 
L 91.499186 420.223252 
L 92.132737 419.667466 
L 92.150295 419.111679 
L 92.401933 419.111679 
L 93.346629 418.555892 
L 94.021595 418.000106 
L 94.182185 411.886452 
L 94.293247 412.442239 
L 94.564792 408.551732 
L 94.715774 406.328586 
L 94.723299 407.995946 
L 94.802393 405.217012 
L 95.023557 402.993866 
L 98.838099 402.993866 
L 98.874284 402.438079 
L 99.190766 399.659146 
L 99.283576 402.438079 
L 99.713575 397.991786 
L 99.92652 397.435999 
L 101.51304 396.880212 
L 101.560912 396.324426 
L 101.905573 395.768639 
L 102.227126 395.768639 
L 103.044161 395.212852 
L 103.480618 394.657066 
L 103.65866 394.101279 
L 103.798541 392.989706 
L 104.206286 392.433919 
L 104.216372 391.878132 
L 104.626465 392.433919 
L 104.743184 391.878132 
L 104.757541 392.433919 
L 104.774726 390.766559 
L 108.576459 390.766559 
L 114.429616 402.993866 
L 115.300501 390.210772 
L 115.75441 389.654986 
L 118.209628 389.654986 
L 118.625431 389.099199 
L 119.515263 388.543412 
L 121.417891 402.993866 
L 121.541335 387.987626 
L 123.001315 387.431839 
L 126.123493 386.876052 
L 126.346151 387.431839 
L 126.754375 386.320266 
L 126.800967 385.764479 
L 127.803196 385.764479 
L 128.107723 385.208692 
L 128.682888 384.652906 
L 128.7306 383.541332 
L 129.261148 382.429759 
L 129.291889 382.985546 
L 129.607463 382.985546 
L 129.780488 381.873972 
L 130.313117 379.650826 
L 130.383138 378.539252 
L 131.066483 376.871892 
L 131.40047 377.983466 
L 132.657539 376.316106 
L 133.76197 374.648746 
L 134.38378 375.760319 
L 136.942748 373.537172 
L 138.969994 377.427679 
L 139.681465 373.537172 
L 142.6034 371.869812 
L 146.911932 371.869812 
L 147.480959 371.314026 
L 147.9338 369.646666 
L 149.206293 371.314026 
L 154.396812 371.869812 
L 155.684408 369.646666 
L 156.308512 367.979306 
L 157.375372 369.646666 
L 159.787627 367.979306 
L 167.980722 367.979306 
L 176.595811 367.423519 
L 177.170335 366.867732 
L 182.609289 366.311946 
L 186.205763 366.311946 
L 186.875232 365.756159 
L 187.020878 366.311946 
L 190.846948 364.644586 
L 194.435683 364.644586 
L 194.518993 364.088799 
L 196.472643 363.533012 
L 201.185556 363.533012 
L 203.264518 359.642506 
L 204.811864 359.086719 
L 206.802925 358.530932 
L 206.841565 357.975146 
L 214.303976 357.975146 
L 214.448128 354.084639 
L 214.724315 354.084639 
L 214.968268 352.973066 
L 217.715738 352.973066 
L 218.54633 352.417279 
L 222.58417 352.417279 
L 228.193 351.861492 
L 228.473511 363.533012 
L 228.487281 352.417279 
L 228.846512 351.861492 
L 230.845472 351.861492 
L 233.878896 351.305706 
L 236.935803 351.305706 
L 239.364069 350.749919 
L 246.057637 349.638346 
L 249.914821 349.638346 
L 253.014744 349.082559 
L 253.497099 346.303626 
L 253.823561 346.303626 
L 254.401234 345.747839 
L 257.414431 345.192052 
L 258.110958 342.968906 
L 262.275446 341.857332 
L 262.325613 342.413119 
L 262.717987 341.857332 
L 268.058687 340.745759 
L 272.065574 340.189972 
L 273.979997 340.189972 
L 275.676831 339.634186 
L 277.147325 338.522612 
L 278.707 337.966826 
L 279.27117 337.411039 
L 282.950848 337.966826 
L 286.351935 336.855252 
L 286.746657 337.411039 
L 287.650579 337.411039 
L 287.831982 336.855252 
L 290.254804 336.299466 
L 291.784485 336.855252 
L 294.589114 335.743679 
L 296.419586 335.743679 
L 300.324536 335.187892 
L 300.97207 335.743679 
L 301.654882 334.076319 
L 304.024227 334.076319 
L 304.493026 333.520532 
L 306.163283 331.853172 
L 306.533241 331.297386 
L 307.109687 330.185812 
L 308.606599 330.741599 
L 309.266034 329.630026 
L 309.331999 329.074239 
L 314.633313 329.074239 
L 317.318287 328.518452 
L 318.006702 327.962666 
L 322.172737 327.962666 
L 325.104118 327.406879 
L 330.083026 327.406879 
L 331.31896 326.851092 
L 345.01009 326.851092 
L 345.796385 326.295306 
L 345.875159 325.739519 
L 346.407574 325.183732 
L 352.349644 325.183732 
L 352.719976 324.627946 
L 354.231778 324.072159 
L 354.49361 323.516372 
L 356.998354 322.960586 
L 358.820127 322.404799 
L 366.11912 322.404799 
L 367.829778 321.293226 
L 375.33355 321.293226 
L 377.004661 320.737439 
L 383.9979 320.737439 
L 384.694534 320.181652 
L 386.429634 319.625866 
L 386.946146 319.070079 
L 387.121518 318.514292 
L 392.319242 317.958506 
L 392.96352 318.514292 
L 399.80599 317.402719 
L 405.216018 316.291146 
L 405.94873 315.735359 
L 416.211179 315.735359 
L 417.540084 315.179572 
L 427.105579 315.179572 
L 436.116084 314.623786 
L 437.249442 314.067999 
L 441.030948 313.512212 
L 444.823129 312.956426 
L 445.406779 312.400639 
L 453.915396 312.400639 
L 456.508093 311.844852 
L 476.074794 311.844852 
L 478.48374 311.289066 
L 494.646365 311.289066 
L 495.527551 310.733279 
L 496.466644 311.289066 
L 500.672172 310.733279 
L 514.825483 310.733279 
L 516.722133 310.177492 
L 546.66288 310.177492 
L 546.70707 309.621706 
L 565.19848 309.621706 
L 569.261137 309.065919 
L 569.271544 308.510132 
L 589.581738 308.510132 
L 589.590758 307.398559 
L 601.614513 307.398559 
L 607.125036 306.842772 
L 613.951494 306.842772 
L 620.248099 305.731199 
L 632.931342 305.731199 
L 633.67697 305.175412 
L 633.77581 304.619626 
L 638.570646 304.619626 
L 638.596264 304.063839 
L 639.094149 304.063839 
L 639.887809 303.508052 
L 647.002464 303.508052 
L 647.272461 302.952266 
L 656.771885 302.952266 
L 657.161003 302.396479 
L 680.360149 302.396479 
L 681.593575 300.729119 
L 681.595336 300.173332 
L 684.882053 300.173332 
L 684.889898 299.617546 
L 694.584548 299.617546 
L 694.799628 299.061759 
L 699.440599 299.061759 
L 699.607326 298.505972 
L 716.848285 298.505972 
L 717.179817 297.950186 
L 721.181687 297.950186 
L 721.322476 297.394399 
L 722.583334 296.838612 
L 754.239808 296.838612 
L 755.88861 295.727039 
L 758.356636 295.727039 
L 758.859592 295.171252 
L 761.327778 295.171252 
L 761.693573 294.615466 
L 767.525115 294.615466 
L 767.594816 294.059679 
L 799.869577 294.059679 
L 799.872299 293.503892 
L 800.009246 293.503892 
L 800.012395 292.948106 
L 812.012614 292.948106 
L 812.012614 292.948106 
" clip-path="url(#p0a83af875d)" style="fill: none; stroke: #f85149; stroke-width: 2; stroke-linecap: square"/>
   </g>
   <g id="line2d_33">
    <path d="M 85.239886 454.682026 
L 85.27004 454.126239 
L 85.50778 -1 
M 85.721459 -1 
L 85.786765 101.201706 
L 89.671275 101.201706 
L 89.688247 97.866986 
L 94.182185 97.866986 
L 94.399666 98.422772 
L 95.023557 98.422772 
L 95.529181 98.978559 
L 98.662246 99.534346 
L 98.724102 98.978559 
L 98.874284 99.534346 
L 108.576459 99.534346 
L 114.429616 98.422772 
L 115.300501 99.534346 
L 115.75441 98.978559 
L 115.936401 98.978559 
L 117.539091 99.534346 
L 118.209628 96.755412 
L 119.515263 96.755412 
L 121.417891 98.422772 
L 121.541335 95.643839 
L 123.001315 96.199626 
L 126.800967 96.199626 
L 127.803196 95.088052 
L 129.291889 95.088052 
L 129.690934 91.197546 
L 138.969994 91.197546 
L 139.646775 87.862826 
L 139.681465 86.751252 
L 142.6034 86.751252 
L 146.911932 82.860746 
L 149.172083 82.860746 
L 149.206293 83.416532 
L 154.396812 83.416532 
L 155.684408 80.081812 
L 159.759341 80.081812 
L 159.787627 80.637599 
L 182.609289 80.637599 
L 186.875232 81.193386 
L 187.020878 80.637599 
L 191.445222 81.193386 
L 206.841565 81.193386 
L 214.303976 81.749172 
L 214.448128 74.523946 
L 214.802609 75.079732 
L 219.012407 75.079732 
L 220.804133 75.635519 
L 228.193 75.635519 
L 228.473511 80.637599 
L 228.487281 71.745012 
L 228.846512 71.745012 
L 230.630339 73.968159 
L 239.364069 73.968159 
L 246.057637 70.077652 
L 253.497099 70.077652 
L 253.823561 68.410292 
L 273.154955 68.410292 
L 273.979997 68.966079 
L 278.673911 68.966079 
L 278.707 70.077652 
L 287.650579 70.077652 
L 287.831982 73.412372 
L 301.654882 73.412372 
L 301.985026 68.410292 
L 304.019371 67.298719 
L 304.024227 67.854506 
L 304.493026 67.854506 
L 306.163283 65.075572 
L 308.606599 65.075572 
L 309.266034 65.631359 
L 309.331999 65.075572 
L 310.84204 65.631359 
L 310.848925 66.187146 
L 310.884202 65.631359 
L 311.756475 63.408212 
L 319.702309 63.408212 
L 322.172737 63.963999 
L 325.104118 63.963999 
L 330.083026 64.519786 
L 334.796473 64.519786 
L 338.438098 65.631359 
L 345.875159 65.075572 
L 346.407574 65.075572 
L 351.043475 66.187146 
L 352.349644 65.631359 
L 358.820127 65.631359 
L 366.115171 67.854506 
L 366.11912 67.298719 
L 377.004661 67.298719 
L 380.380665 67.854506 
L 440.545071 67.854506 
L 441.030948 68.410292 
L 444.79607 68.410292 
L 444.823129 66.742932 
L 462.971531 66.742932 
L 463.338128 67.298719 
L 500.672172 67.298719 
L 508.893019 67.854506 
L 508.940572 67.298719 
L 514.825483 68.966079 
L 516.722133 68.966079 
L 518.519356 68.410292 
L 523.461919 68.410292 
L 528.177715 68.966079 
L 528.185454 69.521866 
L 541.556525 67.854506 
L 542.826029 68.410292 
L 559.293021 68.410292 
L 559.993818 67.854506 
L 561.277572 68.410292 
L 561.718725 70.633439 
L 569.265033 70.633439 
L 569.271544 71.189226 
L 592.363097 71.189226 
L 593.707799 71.745012 
L 598.145592 71.745012 
L 598.578527 72.300799 
L 620.218692 72.300799 
L 620.248099 72.856586 
L 624.054689 72.856586 
L 625.660635 73.412372 
L 625.668694 73.968159 
L 626.982068 73.412372 
L 627.050648 73.968159 
L 629.090169 73.968159 
L 629.4106 74.523946 
L 633.67697 74.523946 
L 633.77581 73.412372 
L 634.439355 74.523946 
L 636.84243 72.856586 
L 642.653478 72.856586 
L 643.082517 71.189226 
L 645.031096 71.189226 
L 645.987427 72.300799 
L 650.915367 72.300799 
L 652.53236 72.856586 
L 652.925107 72.856586 
L 654.444915 70.077652 
L 657.161003 70.077652 
L 657.781372 70.633439 
L 670.35318 70.633439 
L 670.662937 71.189226 
L 671.825702 71.189226 
L 673.63093 71.745012 
L 693.96498 71.745012 
L 694.147664 72.300799 
L 694.799628 72.300799 
L 696.160661 73.412372 
L 698.068839 73.412372 
L 698.527658 72.856586 
L 698.969719 72.856586 
L 699.13746 73.412372 
L 704.240452 73.412372 
L 705.109203 73.968159 
L 709.550946 73.968159 
L 709.835726 74.523946 
L 712.268742 74.523946 
L 712.424635 75.079732 
L 719.985886 75.079732 
L 720.14845 75.635519 
L 724.558278 75.635519 
L 725.788662 77.302879 
L 726.031173 77.858666 
L 727.664178 77.858666 
L 727.665886 78.414452 
L 734.296531 78.414452 
L 735.301962 78.970239 
L 740.589133 78.970239 
L 741.58912 79.526026 
L 745.438246 79.526026 
L 745.726709 80.081812 
L 751.986381 80.081812 
L 753.599906 80.637599 
L 753.717426 81.193386 
L 754.239808 81.193386 
L 755.88861 60.629279 
L 761.00201 60.629279 
L 761.038835 61.185066 
L 761.327778 61.185066 
L 761.693573 60.629279 
L 765.905293 60.629279 
L 766.188259 61.185066 
L 766.922251 61.185066 
L 767.478737 61.740852 
L 767.594816 61.185066 
L 769.862919 61.185066 
L 769.880638 61.740852 
L 770.372279 61.740852 
L 770.587572 62.296639 
L 772.075198 62.852426 
L 782.425494 62.852426 
L 784.043235 63.408212 
L 785.126158 63.408212 
L 786.00473 63.963999 
L 786.893494 63.408212 
L 790.552891 63.408212 
L 790.653333 64.519786 
L 795.96404 64.519786 
L 798.002334 66.187146 
L 812.012614 66.187146 
L 812.012614 66.187146 
" clip-path="url(#p0a83af875d)" style="fill: none; stroke: #9467bd; stroke-width: 2; stroke-linecap: square"/>
   </g>
   <g id="patch_3">
    <path d="M 48.90125 455.237812 
L 48.90125 38.397812 
" style="fill: none; stroke: #30363d; stroke-width: 0.8; stroke-linejoin: miter; stroke-linecap: square"/>
   </g>
   <g id="patch_4">
    <path d="M 848.35125 455.237812 
L 848.35125 38.397812 
" style="fill: none; stroke: #30363d; stroke-width: 0.8; stroke-linejoin: miter; stroke-linecap: square"/>
   </g>
   <g id="patch_5">
    <path d="M 48.90125 455.237812 
L 848.35125 455.237812 
" style="fill: none; stroke: #30363d; stroke-width: 0.8; stroke-linejoin: miter; stroke-linecap: square"/>
   </g>
   <g id="patch_6">
    <path d="M 48.90125 38.397812 
L 848.35125 38.397812 
" style="fill: none; stroke: #30363d; stroke-width: 0.8; stroke-linejoin: miter; stroke-linecap: square"/>
   </g>
   <g id="text_17">
    <!-- 479 -->
    <g style="fill: #3fb950" transform="translate(817.012614 191.499437) scale(0.09 -0.09)">
     <defs>
      <path id="DejaVuSans-Bold-34" d="M 2356 3675 
L 1038 1722 
L 2356 1722 
L 2356 3675 
z
M 2156 4666 
L 3494 4666 
L 3494 1722 
L 4159 1722 
L 4159 850 
L 3494 850 
L 3494 0 
L 2356 0 
L 2356 850 
L 288 850 
L 288 1881 
L 2156 4666 
z
" transform="scale(0.015625)"/>
      <path id="DejaVuSans-Bold-37" d="M 428 4666 
L 3944 4666 
L 3944 3988 
L 2125 0 
L 953 0 
L 2675 3781 
L 428 3781 
L 428 4666 
z
" transform="scale(0.015625)"/>
      <path id="DejaVuSans-Bold-39" d="M 641 103 
L 641 966 
Q 928 831 1190 764 
Q 1453 697 1709 697 
Q 2247 697 2547 995 
Q 2847 1294 2900 1881 
Q 2688 1725 2447 1647 
Q 2206 1569 1925 1569 
Q 1209 1569 770 1986 
Q 331 2403 331 3084 
Q 331 3838 820 4291 
Q 1309 4744 2131 4744 
Q 3044 4744 3544 4128 
Q 4044 3513 4044 2388 
Q 4044 1231 3459 570 
Q 2875 -91 1856 -91 
Q 1528 -91 1228 -42 
Q 928 6 641 103 
z
M 2125 2350 
Q 2441 2350 2600 2554 
Q 2759 2759 2759 3169 
Q 2759 3575 2600 3781 
Q 2441 3988 2125 3988 
Q 1809 3988 1650 3781 
Q 1491 3575 1491 3169 
Q 1491 2759 1650 2554 
Q 1809 2350 2125 2350 
z
" transform="scale(0.015625)"/>
     </defs>
     <use xlink:href="#DejaVuSans-Bold-34"/>
     <use xlink:href="#DejaVuSans-Bold-37" transform="translate(69.580078 0)"/>
     <use xlink:href="#DejaVuSans-Bold-39" transform="translate(139.160156 0)"/>
    </g>
   </g>
   <g id="text_18">
    <!-- 359 -->
    <g style="fill: #58a6ff" transform="translate(817.012614 258.193837) scale(0.09 -0.09)">
     <defs>
      <path id="DejaVuSans-Bold-33" d="M 2981 2516 
Q 3453 2394 3698 2092 
Q 3944 1791 3944 1325 
Q 3944 631 3412 270 
Q 2881 -91 1863 -91 
Q 1503 -91 1142 -33 
Q 781 25 428 141 
L 428 1069 
Q 766 900 1098 814 
Q 1431 728 1753 728 
Q 2231 728 2486 893 
Q 2741 1059 2741 1369 
Q 2741 1688 2480 1852 
Q 2219 2016 1709 2016 
L 1228 2016 
L 1228 2791 
L 1734 2791 
Q 2188 2791 2409 2933 
Q 2631 3075 2631 3366 
Q 2631 3634 2415 3781 
Q 2200 3928 1806 3928 
Q 1516 3928 1219 3862 
Q 922 3797 628 3669 
L 628 4550 
Q 984 4650 1334 4700 
Q 1684 4750 2022 4750 
Q 2931 4750 3382 4451 
Q 3834 4153 3834 3553 
Q 3834 3144 3618 2883 
Q 3403 2622 2981 2516 
z
" transform="scale(0.015625)"/>
      <path id="DejaVuSans-Bold-35" d="M 678 4666 
L 3669 4666 
L 3669 3781 
L 1638 3781 
L 1638 3059 
Q 1775 3097 1914 3117 
Q 2053 3138 2203 3138 
Q 3056 3138 3531 2711 
Q 4006 2284 4006 1522 
Q 4006 766 3489 337 
Q 2972 -91 2053 -91 
Q 1656 -91 1267 -14 
Q 878 63 494 219 
L 494 1166 
Q 875 947 1217 837 
Q 1559 728 1863 728 
Q 2300 728 2551 942 
Q 2803 1156 2803 1522 
Q 2803 1891 2551 2103 
Q 2300 2316 1863 2316 
Q 1603 2316 1309 2248 
Q 1016 2181 678 2041 
L 678 4666 
z
" transform="scale(0.015625)"/>
     </defs>
     <use xlink:href="#DejaVuSans-Bold-33"/>
     <use xlink:href="#DejaVuSans-Bold-35" transform="translate(69.580078 0)"/>
     <use xlink:href="#DejaVuSans-Bold-39" transform="translate(139.160156 0)"/>
    </g>
   </g>
   <g id="text_19">
    <!-- 83 -->
    <g style="fill: #d29922" transform="translate(817.012614 411.590957) scale(0.09 -0.09)">
     <defs>
      <path id="DejaVuSans-Bold-38" d="M 2228 2088 
Q 1891 2088 1709 1903 
Q 1528 1719 1528 1375 
Q 1528 1031 1709 848 
Q 1891 666 2228 666 
Q 2563 666 2741 848 
Q 2919 1031 2919 1375 
Q 2919 1722 2741 1905 
Q 2563 2088 2228 2088 
z
M 1350 2484 
Q 925 2613 709 2878 
Q 494 3144 494 3541 
Q 494 4131 934 4440 
Q 1375 4750 2228 4750 
Q 3075 4750 3515 4442 
Q 3956 4134 3956 3541 
Q 3956 3144 3739 2878 
Q 3522 2613 3097 2484 
Q 3572 2353 3814 2058 
Q 4056 1763 4056 1313 
Q 4056 619 3595 264 
Q 3134 -91 2228 -91 
Q 1319 -91 855 264 
Q 391 619 391 1313 
Q 391 1763 633 2058 
Q 875 2353 1350 2484 
z
M 1631 3419 
Q 1631 3141 1786 2991 
Q 1941 2841 2228 2841 
Q 2509 2841 2662 2991 
Q 2816 3141 2816 3419 
Q 2816 3697 2662 3845 
Q 2509 3994 2228 3994 
Q 1941 3994 1786 3844 
Q 1631 3694 1631 3419 
z
" transform="scale(0.015625)"/>
     </defs>
     <use xlink:href="#DejaVuSans-Bold-38"/>
     <use xlink:href="#DejaVuSans-Bold-33" transform="translate(69.580078 0)"/>
    </g>
   </g>
   <g id="text_20">
    <!-- 292 -->
    <g style="fill: #f85149" transform="translate(817.012614 295.431543) scale(0.09 -0.09)">
     <defs>
      <path id="DejaVuSans-Bold-32" d="M 1844 884 
L 3897 884 
L 3897 0 
L 506 0 
L 506 884 
L 2209 2388 
Q 2438 2594 2547 2791 
Q 2656 2988 2656 3200 
Q 2656 3528 2436 3728 
Q 2216 3928 1850 3928 
Q 1569 3928 1234 3808 
Q 900 3688 519 3450 
L 519 4475 
Q 925 4609 1322 4679 
Q 1719 4750 2100 4750 
Q 2938 4750 3402 4381 
Q 3866 4013 3866 3353 
Q 3866 2972 3669 2642 
Q 3472 2313 2841 1759 
L 1844 884 
z
" transform="scale(0.015625)"/>
     </defs>
     <use xlink:href="#DejaVuSans-Bold-32"/>
     <use xlink:href="#DejaVuSans-Bold-39" transform="translate(69.580078 0)"/>
     <use xlink:href="#DejaVuSans-Bold-32" transform="translate(139.160156 0)"/>
    </g>
   </g>
   <g id="text_21">
    <!-- 700 -->
    <g style="fill: #9467bd" transform="translate(817.012614 68.670583) scale(0.09 -0.09)">
     <defs>
      <path id="DejaVuSans-Bold-30" d="M 2944 2338 
Q 2944 3213 2780 3570 
Q 2616 3928 2228 3928 
Q 1841 3928 1675 3570 
Q 1509 3213 1509 2338 
Q 1509 1453 1675 1090 
Q 1841 728 2228 728 
Q 2613 728 2778 1090 
Q 2944 1453 2944 2338 
z
M 4147 2328 
Q 4147 1169 3647 539 
Q 3147 -91 2228 -91 
Q 1306 -91 806 539 
Q 306 1169 306 2328 
Q 306 3491 806 4120 
Q 1306 4750 2228 4750 
Q 3147 4750 3647 4120 
Q 4147 3491 4147 2328 
z
" transform="scale(0.015625)"/>
     </defs>
     <use xlink:href="#DejaVuSans-Bold-37"/>
     <use xlink:href="#DejaVuSans-Bold-30" transform="translate(69.580078 0)"/>
     <use xlink:href="#DejaVuSans-Bold-30" transform="translate(139.160156 0)"/>
    </g>
   </g>
   <g id="text_22">
    <!-- Erds Problems Progress -->
    <g style="fill: #c9d1d9" transform="translate(349.588281 18.397812) scale(0.14 -0.14)">
     <defs>
      <path id="DejaVuSans-Bold-45" d="M 588 4666 
L 3834 4666 
L 3834 3756 
L 1791 3756 
L 1791 2888 
L 3713 2888 
L 3713 1978 
L 1791 1978 
L 1791 909 
L 3903 909 
L 3903 0 
L 588 0 
L 588 4666 
z
" transform="scale(0.015625)"/>
      <path id="DejaVuSans-Bold-72" d="M 3138 2547 
Q 2991 2616 2845 2648 
Q 2700 2681 2553 2681 
Q 2122 2681 1889 2404 
Q 1656 2128 1656 1613 
L 1656 0 
L 538 0 
L 538 3500 
L 1656 3500 
L 1656 2925 
Q 1872 3269 2151 3426 
Q 2431 3584 2822 3584 
Q 2878 3584 2943 3579 
Q 3009 3575 3134 3559 
L 3138 2547 
z
" transform="scale(0.015625)"/>
      <path id="DejaVuSans-Bold-64" d="M 2919 2988 
L 2919 4863 
L 4044 4863 
L 4044 0 
L 2919 0 
L 2919 506 
Q 2688 197 2409 53 
Q 2131 -91 1766 -91 
Q 1119 -91 703 423 
Q 288 938 288 1747 
Q 288 2556 703 3070 
Q 1119 3584 1766 3584 
Q 2128 3584 2408 3439 
Q 2688 3294 2919 2988 
z
M 2181 722 
Q 2541 722 2730 984 
Q 2919 1247 2919 1747 
Q 2919 2247 2730 2509 
Q 2541 2772 2181 2772 
Q 1825 2772 1636 2509 
Q 1447 2247 1447 1747 
Q 1447 1247 1636 984 
Q 1825 722 2181 722 
z
" transform="scale(0.015625)"/>
      <path id="DejaVuSans-Bold-151" d="M 1881 5119 
L 2560 5119 
L 1785 3944 
L 1275 3944 
L 1881 5119 
z
M 3016 5119 
L 3738 5119 
L 2888 3944 
L 2344 3944 
L 3016 5119 
z
M 2203 2784 
Q 1831 2784 1636 2517 
Q 1441 2250 1441 1747 
Q 1441 1244 1636 976 
Q 1831 709 2203 709 
Q 2569 709 2762 976 
Q 2956 1244 2956 1747 
Q 2956 2250 2762 2517 
Q 2569 2784 2203 2784 
z
M 2203 3584 
Q 3106 3584 3614 3096 
Q 4122 2609 4122 1747 
Q 4122 884 3614 396 
Q 3106 -91 2203 -91 
Q 1297 -91 786 396 
Q 275 884 275 1747 
Q 275 2609 786 3096 
Q 1297 3584 2203 3584 
z
" transform="scale(0.015625)"/>
      <path id="DejaVuSans-Bold-73" d="M 3272 3391 
L 3272 2541 
Q 2913 2691 2578 2766 
Q 2244 2841 1947 2841 
Q 1628 2841 1473 2761 
Q 1319 2681 1319 2516 
Q 1319 2381 1436 2309 
Q 1553 2238 1856 2203 
L 2053 2175 
Q 2913 2066 3209 1816 
Q 3506 1566 3506 1031 
Q 3506 472 3093 190 
Q 2681 -91 1863 -91 
Q 1516 -91 1145 -36 
Q 775 19 384 128 
L 384 978 
Q 719 816 1070 734 
Q 1422 653 1784 653 
Q 2113 653 2278 743 
Q 2444 834 2444 1013 
Q 2444 1163 2330 1236 
Q 2216 1309 1875 1350 
L 1678 1375 
Q 931 1469 631 1722 
Q 331 1975 331 2491 
Q 331 3047 712 3315 
Q 1094 3584 1881 3584 
Q 2191 3584 2531 3537 
Q 2872 3491 3272 3391 
z
" transform="scale(0.015625)"/>
      <path id="DejaVuSans-Bold-20" transform="scale(0.015625)"/>
      <path id="DejaVuSans-Bold-50" d="M 588 4666 
L 2584 4666 
Q 3475 4666 3951 4270 
Q 4428 3875 4428 3144 
Q 4428 2409 3951 2014 
Q 3475 1619 2584 1619 
L 1791 1619 
L 1791 0 
L 588 0 
L 588 4666 
z
M 1791 3794 
L 1791 2491 
L 2456 2491 
Q 2806 2491 2997 2661 
Q 3188 2831 3188 3144 
Q 3188 3456 2997 3625 
Q 2806 3794 2456 3794 
L 1791 3794 
z
" transform="scale(0.015625)"/>
      <path id="DejaVuSans-Bold-6f" d="M 2203 2784 
Q 1831 2784 1636 2517 
Q 1441 2250 1441 1747 
Q 1441 1244 1636 976 
Q 1831 709 2203 709 
Q 2569 709 2762 976 
Q 2956 1244 2956 1747 
Q 2956 2250 2762 2517 
Q 2569 2784 2203 2784 
z
M 2203 3584 
Q 3106 3584 3614 3096 
Q 4122 2609 4122 1747 
Q 4122 884 3614 396 
Q 3106 -91 2203 -91 
Q 1297 -91 786 396 
Q 275 884 275 1747 
Q 275 2609 786 3096 
Q 1297 3584 2203 3584 
z
" transform="scale(0.015625)"/>
      <path id="DejaVuSans-Bold-62" d="M 2400 722 
Q 2759 722 2948 984 
Q 3138 1247 3138 1747 
Q 3138 2247 2948 2509 
Q 2759 2772 2400 2772 
Q 2041 2772 1848 2508 
Q 1656 2244 1656 1747 
Q 1656 1250 1848 986 
Q 2041 722 2400 722 
z
M 1656 2988 
Q 1888 3294 2169 3439 
Q 2450 3584 2816 3584 
Q 3463 3584 3878 3070 
Q 4294 2556 4294 1747 
Q 4294 938 3878 423 
Q 3463 -91 2816 -91 
Q 2450 -91 2169 54 
Q 1888 200 1656 506 
L 1656 0 
L 538 0 
L 538 4863 
L 1656 4863 
L 1656 2988 
z
" transform="scale(0.015625)"/>
      <path id="DejaVuSans-Bold-6c" d="M 538 4863 
L 1656 4863 
L 1656 0 
L 538 0 
L 538 4863 
z
" transform="scale(0.015625)"/>
      <path id="DejaVuSans-Bold-65" d="M 4031 1759 
L 4031 1441 
L 1416 1441 
Q 1456 1047 1700 850 
Q 1944 653 2381 653 
Q 2734 653 3104 758 
Q 3475 863 3866 1075 
L 3866 213 
Q 3469 63 3072 -14 
Q 2675 -91 2278 -91 
Q 1328 -91 801 392 
Q 275 875 275 1747 
Q 275 2603 792 3093 
Q 1309 3584 2216 3584 
Q 3041 3584 3536 3087 
Q 4031 2591 4031 1759 
z
M 2881 2131 
Q 2881 2450 2695 2645 
Q 2509 2841 2209 2841 
Q 1884 2841 1681 2658 
Q 1478 2475 1428 2131 
L 2881 2131 
z
" transform="scale(0.015625)"/>
      <path id="DejaVuSans-Bold-6d" d="M 3781 2919 
Q 3994 3244 4286 3414 
Q 4578 3584 4928 3584 
Q 5531 3584 5847 3212 
Q 6163 2841 6163 2131 
L 6163 0 
L 5038 0 
L 5038 1825 
Q 5041 1866 5042 1909 
Q 5044 1953 5044 2034 
Q 5044 2406 4934 2573 
Q 4825 2741 4581 2741 
Q 4263 2741 4089 2478 
Q 3916 2216 3909 1719 
L 3909 0 
L 2784 0 
L 2784 1825 
Q 2784 2406 2684 2573 
Q 2584 2741 2328 2741 
Q 2006 2741 1831 2477 
Q 1656 2213 1656 1722 
L 1656 0 
L 531 0 
L 531 3500 
L 1656 3500 
L 1656 2988 
Q 1863 3284 2130 3434 
Q 2397 3584 2719 3584 
Q 3081 3584 3359 3409 
Q 3638 3234 3781 2919 
z
" transform="scale(0.015625)"/>
      <path id="DejaVuSans-Bold-67" d="M 2919 594 
Q 2688 288 2409 144 
Q 2131 0 1766 0 
Q 1125 0 706 504 
Q 288 1009 288 1791 
Q 288 2575 706 3076 
Q 1125 3578 1766 3578 
Q 2131 3578 2409 3434 
Q 2688 3291 2919 2981 
L 2919 3500 
L 4044 3500 
L 4044 353 
Q 4044 -491 3511 -936 
Q 2978 -1381 1966 -1381 
Q 1638 -1381 1331 -1331 
Q 1025 -1281 716 -1178 
L 716 -306 
Q 1009 -475 1290 -558 
Q 1572 -641 1856 -641 
Q 2406 -641 2662 -400 
Q 2919 -159 2919 353 
L 2919 594 
z
M 2181 2772 
Q 1834 2772 1640 2515 
Q 1447 2259 1447 1791 
Q 1447 1309 1634 1061 
Q 1822 813 2181 813 
Q 2531 813 2725 1069 
Q 2919 1325 2919 1791 
Q 2919 2259 2725 2515 
Q 2531 2772 2181 2772 
z
" transform="scale(0.015625)"/>
     </defs>
     <use xlink:href="#DejaVuSans-Bold-45"/>
     <use xlink:href="#DejaVuSans-Bold-72" transform="translate(68.310547 0)"/>
     <use xlink:href="#DejaVuSans-Bold-64" transform="translate(117.626953 0)"/>
     <use xlink:href="#DejaVuSans-Bold-151" transform="translate(189.208984 0)"/>
     <use xlink:href="#DejaVuSans-Bold-73" transform="translate(257.910156 0)"/>
     <use xlink:href="#DejaVuSans-Bold-20" transform="translate(317.431641 0)"/>
     <use xlink:href="#DejaVuSans-Bold-50" transform="translate(352.246094 0)"/>
     <use xlink:href="#DejaVuSans-Bold-72" transform="translate(425.537109 0)"/>
     <use xlink:href="#DejaVuSans-Bold-6f" transform="translate(474.853516 0)"/>
     <use xlink:href="#DejaVuSans-Bold-62" transform="translate(543.554688 0)"/>
     <use xlink:href="#DejaVuSans-Bold-6c" transform="translate(615.136719 0)"/>
     <use xlink:href="#DejaVuSans-Bold-65" transform="translate(649.414062 0)"/>
     <use xlink:href="#DejaVuSans-Bold-6d" transform="translate(717.236328 0)"/>
     <use xlink:href="#DejaVuSans-Bold-73" transform="translate(821.435547 0)"/>
     <use xlink:href="#DejaVuSans-Bold-20" transform="translate(880.957031 0)"/>
     <use xlink:href="#DejaVuSans-Bold-50" transform="translate(915.771484 0)"/>
     <use xlink:href="#DejaVuSans-Bold-72" transform="translate(989.0625 0)"/>
     <use xlink:href="#DejaVuSans-Bold-6f" transform="translate(1038.378906 0)"/>
     <use xlink:href="#DejaVuSans-Bold-67" transform="translate(1107.080078 0)"/>
     <use xlink:href="#DejaVuSans-Bold-72" transform="translate(1178.662109 0)"/>
     <use xlink:href="#DejaVuSans-Bold-65" transform="translate(1227.978516 0)"/>
     <use xlink:href="#DejaVuSans-Bold-73" transform="translate(1295.800781 0)"/>
     <use xlink:href="#DejaVuSans-Bold-73" transform="translate(1355.322266 0)"/>
    </g>
   </g>
   <g id="legend_1">
    <g id="patch_7">
     <path d="M 55.90125 119.788437 
L 213.771563 119.788437 
Q 215.771563 119.788437 215.771563 117.788437 
L 215.771563 45.397812 
Q 215.771563 43.397812 213.771563 43.397812 
L 55.90125 43.397812 
Q 53.90125 43.397812 53.90125 45.397812 
L 53.90125 117.788437 
Q 53.90125 119.788437 55.90125 119.788437 
z
" style="fill: #161b22; opacity: 0.8; stroke: #30363d; stroke-linejoin: miter"/>
    </g>
    <g id="line2d_34">
     <path d="M 57.90125 51.49625 
L 67.90125 51.49625 
L 77.90125 51.49625 
" style="fill: none; stroke: #3fb950; stroke-width: 2; stroke-linecap: square"/>
    </g>
    <g id="text_23">
     <!-- Solved -->
     <g style="fill: #c9d1d9" transform="translate(85.90125 54.99625) scale(0.1 -0.1)">
      <defs>
       <path id="DejaVuSans-6c" d="M 603 4863 
L 1178 4863 
L 1178 0 
L 603 0 
L 603 4863 
z
" transform="scale(0.015625)"/>
       <path id="DejaVuSans-64" d="M 2906 2969 
L 2906 4863 
L 3481 4863 
L 3481 0 
L 2906 0 
L 2906 525 
Q 2725 213 2448 61 
Q 2172 -91 1784 -91 
Q 1150 -91 751 415 
Q 353 922 353 1747 
Q 353 2572 751 3078 
Q 1150 3584 1784 3584 
Q 2172 3584 2448 3432 
Q 2725 3281 2906 2969 
z
M 947 1747 
Q 947 1113 1208 752 
Q 1469 391 1925 391 
Q 2381 391 2643 752 
Q 2906 1113 2906 1747 
Q 2906 2381 2643 2742 
Q 2381 3103 1925 3103 
Q 1469 3103 1208 2742 
Q 947 2381 947 1747 
z
" transform="scale(0.015625)"/>
      </defs>
      <use xlink:href="#DejaVuSans-53"/>
      <use xlink:href="#DejaVuSans-6f" transform="translate(63.476562 0)"/>
      <use xlink:href="#DejaVuSans-6c" transform="translate(124.658203 0)"/>
      <use xlink:href="#DejaVuSans-76" transform="translate(152.441406 0)"/>
      <use xlink:href="#DejaVuSans-65" transform="translate(211.621094 0)"/>
      <use xlink:href="#DejaVuSans-64" transform="translate(273.144531 0)"/>
     </g>
    </g>
    <g id="line2d_35">
     <path d="M 57.90125 66.174375 
L 67.90125 66.174375 
L 77.90125 66.174375 
" style="fill: none; stroke: #58a6ff; stroke-width: 2; stroke-linecap: square"/>
    </g>
    <g id="text_24">
     <!-- Lean Formalized Problem -->
     <g style="fill: #c9d1d9" transform="translate(85.90125 69.674375) scale(0.1 -0.1)">
      <defs>
       <path id="DejaVuSans-4c" d="M 628 4666 
L 1259 4666 
L 1259 531 
L 3531 531 
L 3531 0 
L 628 0 
L 628 4666 
z
" transform="scale(0.015625)"/>
       <path id="DejaVuSans-20" transform="scale(0.015625)"/>
       <path id="DejaVuSans-72" d="M 2631 2963 
Q 2534 3019 2420 3045 
Q 2306 3072 2169 3072 
Q 1681 3072 1420 2755 
Q 1159 2438 1159 1844 
L 1159 0 
L 581 0 
L 581 3500 
L 1159 3500 
L 1159 2956 
Q 1341 3275 1631 3429 
Q 1922 3584 2338 3584 
Q 2397 3584 2469 3576 
Q 2541 3569 2628 3553 
L 2631 2963 
z
" transform="scale(0.015625)"/>
       <path id="DejaVuSans-6d" d="M 3328 2828 
Q 3544 3216 3844 3400 
Q 4144 3584 4550 3584 
Q 5097 3584 5394 3201 
Q 5691 2819 5691 2113 
L 5691 0 
L 5113 0 
L 5113 2094 
Q 5113 2597 4934 2840 
Q 4756 3084 4391 3084 
Q 3944 3084 3684 2787 
Q 3425 2491 3425 1978 
L 3425 0 
L 2847 0 
L 2847 2094 
Q 2847 2600 2669 2842 
Q 2491 3084 2119 3084 
Q 1678 3084 1418 2786 
Q 1159 2488 1159 1978 
L 1159 0 
L 581 0 
L 581 3500 
L 1159 3500 
L 1159 2956 
Q 1356 3278 1631 3431 
Q 1906 3584 2284 3584 
Q 2666 3584 2933 3390 
Q 3200 3197 3328 2828 
z
" transform="scale(0.015625)"/>
       <path id="DejaVuSans-69" d="M 603 3500 
L 1178 3500 
L 1178 0 
L 603 0 
L 603 3500 
z
M 603 4863 
L 1178 4863 
L 1178 4134 
L 603 4134 
L 603 4863 
z
" transform="scale(0.015625)"/>
       <path id="DejaVuSans-7a" d="M 353 3500 
L 3084 3500 
L 3084 2975 
L 922 459 
L 3084 459 
L 3084 0 
L 275 0 
L 275 525 
L 2438 3041 
L 353 3041 
L 353 3500 
z
" transform="scale(0.015625)"/>
       <path id="DejaVuSans-50" d="M 1259 4147 
L 1259 2394 
L 2053 2394 
Q 2494 2394 2734 2622 
Q 2975 2850 2975 3272 
Q 2975 3691 2734 3919 
Q 2494 4147 2053 4147 
L 1259 4147 
z
M 628 4666 
L 2053 4666 
Q 2838 4666 3239 4311 
Q 3641 3956 3641 3272 
Q 3641 2581 3239 2228 
Q 2838 1875 2053 1875 
L 1259 1875 
L 1259 0 
L 628 0 
L 628 4666 
z
" transform="scale(0.015625)"/>
      </defs>
      <use xlink:href="#DejaVuSans-4c"/>
      <use xlink:href="#DejaVuSans-65" transform="translate(53.962891 0)"/>
      <use xlink:href="#DejaVuSans-61" transform="translate(115.486328 0)"/>
      <use xlink:href="#DejaVuSans-6e" transform="translate(176.765625 0)"/>
      <use xlink:href="#DejaVuSans-20" transform="translate(240.144531 0)"/>
      <use xlink:href="#DejaVuSans-46" transform="translate(271.931641 0)"/>
      <use xlink:href="#DejaVuSans-6f" transform="translate(325.826172 0)"/>
      <use xlink:href="#DejaVuSans-72" transform="translate(387.007812 0)"/>
      <use xlink:href="#DejaVuSans-6d" transform="translate(426.371094 0)"/>
      <use xlink:href="#DejaVuSans-61" transform="translate(523.783203 0)"/>
      <use xlink:href="#DejaVuSans-6c" transform="translate(585.0625 0)"/>
      <use xlink:href="#DejaVuSans-69" transform="translate(612.845703 0)"/>
      <use xlink:href="#DejaVuSans-7a" transform="translate(640.628906 0)"/>
      <use xlink:href="#DejaVuSans-65" transform="translate(693.119141 0)"/>
      <use xlink:href="#DejaVuSans-64" transform="translate(754.642578 0)"/>
      <use xlink:href="#DejaVuSans-20" transform="translate(818.119141 0)"/>
      <use xlink:href="#DejaVuSans-50" transform="translate(849.90625 0)"/>
      <use xlink:href="#DejaVuSans-72" transform="translate(908.458984 0)"/>
      <use xlink:href="#DejaVuSans-6f" transform="translate(947.322266 0)"/>
      <use xlink:href="#DejaVuSans-62" transform="translate(1008.503906 0)"/>
      <use xlink:href="#DejaVuSans-6c" transform="translate(1071.980469 0)"/>
      <use xlink:href="#DejaVuSans-65" transform="translate(1099.763672 0)"/>
      <use xlink:href="#DejaVuSans-6d" transform="translate(1161.287109 0)"/>
     </g>
    </g>
    <g id="line2d_36">
     <path d="M 57.90125 80.8525 
L 67.90125 80.8525 
L 77.90125 80.8525 
" style="fill: none; stroke: #d29922; stroke-width: 2; stroke-linecap: square"/>
    </g>
    <g id="text_25">
     <!-- Lean Formalized Solution -->
     <g style="fill: #c9d1d9" transform="translate(85.90125 84.3525) scale(0.1 -0.1)">
      <use xlink:href="#DejaVuSans-4c"/>
      <use xlink:href="#DejaVuSans-65" transform="translate(53.962891 0)"/>
      <use xlink:href="#DejaVuSans-61" transform="translate(115.486328 0)"/>
      <use xlink:href="#DejaVuSans-6e" transform="translate(176.765625 0)"/>
      <use xlink:href="#DejaVuSans-20" transform="translate(240.144531 0)"/>
      <use xlink:href="#DejaVuSans-46" transform="translate(271.931641 0)"/>
      <use xlink:href="#DejaVuSans-6f" transform="translate(325.826172 0)"/>
      <use xlink:href="#DejaVuSans-72" transform="translate(387.007812 0)"/>
      <use xlink:href="#DejaVuSans-6d" transform="translate(426.371094 0)"/>
      <use xlink:href="#DejaVuSans-61" transform="translate(523.783203 0)"/>
      <use xlink:href="#DejaVuSans-6c" transform="translate(585.0625 0)"/>
      <use xlink:href="#DejaVuSans-69" transform="translate(612.845703 0)"/>
      <use xlink:href="#DejaVuSans-7a" transform="translate(640.628906 0)"/>
      <use xlink:href="#DejaVuSans-65" transform="translate(693.119141 0)"/>
      <use xlink:href="#DejaVuSans-64" transform="translate(754.642578 0)"/>
      <use xlink:href="#DejaVuSans-20" transform="translate(818.119141 0)"/>
      <use xlink:href="#DejaVuSans-53" transform="translate(849.90625 0)"/>
      <use xlink:href="#DejaVuSans-6f" transform="translate(913.382812 0)"/>
      <use xlink:href="#DejaVuSans-6c" transform="translate(974.564453 0)"/>
      <use xlink:href="#DejaVuSans-75" transform="translate(1002.347656 0)"/>
      <use xlink:href="#DejaVuSans-74" transform="translate(1065.726562 0)"/>
      <use xlink:href="#DejaVuSans-69" transform="translate(1104.935547 0)"/>
      <use xlink:href="#DejaVuSans-6f" transform="translate(1132.71875 0)"/>
      <use xlink:href="#DejaVuSans-6e" transform="translate(1193.900391 0)"/>
     </g>
    </g>
    <g id="line2d_37">
     <path d="M 57.90125 95.530625 
L 67.90125 95.530625 
L 77.90125 95.530625 
" style="fill: none; stroke: #f85149; stroke-width: 2; stroke-linecap: square"/>
    </g>
    <g id="text_26">
     <!-- OEIS Linked -->
     <g style="fill: #c9d1d9" transform="translate(85.90125 99.030625) scale(0.1 -0.1)">
      <defs>
       <path id="DejaVuSans-45" d="M 628 4666 
L 3578 4666 
L 3578 4134 
L 1259 4134 
L 1259 2753 
L 3481 2753 
L 3481 2222 
L 1259 2222 
L 1259 531 
L 3634 531 
L 3634 0 
L 628 0 
L 628 4666 
z
" transform="scale(0.015625)"/>
       <path id="DejaVuSans-49" d="M 628 4666 
L 1259 4666 
L 1259 0 
L 628 0 
L 628 4666 
z
" transform="scale(0.015625)"/>
       <path id="DejaVuSans-6b" d="M 581 4863 
L 1159 4863 
L 1159 1991 
L 2875 3500 
L 3609 3500 
L 1753 1863 
L 3688 0 
L 2938 0 
L 1159 1709 
L 1159 0 
L 581 0 
L 581 4863 
z
" transform="scale(0.015625)"/>
      </defs>
      <use xlink:href="#DejaVuSans-4f"/>
      <use xlink:href="#DejaVuSans-45" transform="translate(78.710938 0)"/>
      <use xlink:href="#DejaVuSans-49" transform="translate(141.894531 0)"/>
      <use xlink:href="#DejaVuSans-53" transform="translate(171.386719 0)"/>
      <use xlink:href="#DejaVuSans-20" transform="translate(234.863281 0)"/>
      <use xlink:href="#DejaVuSans-4c" transform="translate(266.650391 0)"/>
      <use xlink:href="#DejaVuSans-69" transform="translate(322.363281 0)"/>
      <use xlink:href="#DejaVuSans-6e" transform="translate(350.146484 0)"/>
      <use xlink:href="#DejaVuSans-6b" transform="translate(413.525391 0)"/>
      <use xlink:href="#DejaVuSans-65" transform="translate(467.810547 0)"/>
      <use xlink:href="#DejaVuSans-64" transform="translate(529.333984 0)"/>
     </g>
    </g>
    <g id="line2d_38">
     <path d="M 57.90125 110.20875 
L 67.90125 110.20875 
L 77.90125 110.20875 
" style="fill: none; stroke: #9467bd; stroke-width: 2; stroke-linecap: square"/>
    </g>
    <g id="text_27">
     <!-- Open Problems -->
     <g style="fill: #c9d1d9" transform="translate(85.90125 113.70875) scale(0.1 -0.1)">
      <defs>
       <path id="DejaVuSans-73" d="M 2834 3397 
L 2834 2853 
Q 2591 2978 2328 3040 
Q 2066 3103 1784 3103 
Q 1356 3103 1142 2972 
Q 928 2841 928 2578 
Q 928 2378 1081 2264 
Q 1234 2150 1697 2047 
L 1894 2003 
Q 2506 1872 2764 1633 
Q 3022 1394 3022 966 
Q 3022 478 2636 193 
Q 2250 -91 1575 -91 
Q 1294 -91 989 -36 
Q 684 19 347 128 
L 347 722 
Q 666 556 975 473 
Q 1284 391 1588 391 
Q 1994 391 2212 530 
Q 2431 669 2431 922 
Q 2431 1156 2273 1281 
Q 2116 1406 1581 1522 
L 1381 1569 
Q 847 1681 609 1914 
Q 372 2147 372 2553 
Q 372 3047 722 3315 
Q 1072 3584 1716 3584 
Q 2034 3584 2315 3537 
Q 2597 3491 2834 3397 
z
" transform="scale(0.015625)"/>
      </defs>
      <use xlink:href="#DejaVuSans-4f"/>
      <use xlink:href="#DejaVuSans-70" transform="translate(78.710938 0)"/>
      <use xlink:href="#DejaVuSans-65" transform="translate(142.1875 0)"/>
      <use xlink:href="#DejaVuSans-6e" transform="translate(203.710938 0)"/>
      <use xlink:href="#DejaVuSans-20" transform="translate(267.089844 0)"/>
      <use xlink:href="#DejaVuSans-50" transform="translate(298.876953 0)"/>
      <use xlink:href="#DejaVuSans-72" transform="translate(357.429688 0)"/>
      <use xlink:href="#DejaVuSans-6f" transform="translate(396.292969 0)"/>
      <use xlink:href="#DejaVuSans-62" transform="translate(457.474609 0)"/>
      <use xlink:href="#DejaVuSans-6c" transform="translate(520.951172 0)"/>
      <use xlink:href="#DejaVuSans-65" transform="translate(548.734375 0)"/>
      <use xlink:href="#DejaVuSans-6d" transform="translate(610.257812 0)"/>
      <use xlink:href="#DejaVuSans-73" transform="translate(707.669922 0)"/>
     </g>
    </g>
   </g>
  </g>
 </g>
 <defs>
  <clipPath id="p0a83af875d">
   <rect x="48.90125" y="38.397812" width="799.45" height="416.84"/>
  </clipPath>
 </defs>
</svg>
