<?xml version="1.0" encoding="utf-8" standalone="no"?>
<!DOCTYPE svg PUBLIC "-//W3C//DTD SVG 1.1//EN"
  "http://www.w3.org/Graphics/SVG/1.1/DTD/svg11.dtd">
<svg xmlns:xlink="http://www.w3.org/1999/xlink" width="855.55125pt" height="494.729687pt" viewBox="0 0 855.55125 494.729687" xmlns="http://www.w3.org/2000/svg" version="1.1">
 <metadata>
  <rdf:RDF xmlns:dc="http://purl.org/dc/elements/1.1/" xmlns:cc="http://creativecommons.org/ns#" xmlns:rdf="http://www.w3.org/1999/02/22-rdf-syntax-ns#">
   <cc:Work>
    <dc:type rdf:resource="http://purl.org/dc/dcmitype/StillImage"/>
    <dc:date>2026-05-31T15:07:33.163575</dc:date>
    <dc:format>image/svg+xml</dc:format>
    <dc:creator>
     <cc:Agent>
      <dc:title>Matplotlib v3.10.7, https://matplotlib.org/</dc:title>
     </cc:Agent>
    </dc:creator>
   </cc:Work>
  </rdf:RDF>
 </metadata>
 <defs>
  <style type="text/css">*{stroke-linejoin: round; stroke-linecap: butt}</style>
 </defs>
 <g id="figure_1">
  <g id="patch_1">
   <path d="M 0 494.729687 
L 855.55125 494.729687 
L 855.55125 0 
L 0 0 
z
" style="fill: #0d1117"/>
  </g>
  <g id="axes_1">
   <g id="patch_2">
    <path d="M 48.90125 455.237812 
L 848.35125 455.237812 
L 848.35125 38.397812 
L 48.90125 38.397812 
z
" style="fill: #0d1117"/>
   </g>
   <g id="matplotlib.axis_1">
    <g id="xtick_1">
     <g id="line2d_1">
      <path d="M 86.018361 455.237812 
L 86.018361 38.397812 
" clip-path="url(#p58e8c48939)" style="fill: none; stroke: #30363d; stroke-opacity: 0.25; stroke-width: 0.5; stroke-linecap: square"/>
     </g>
     <g id="line2d_2">
      <defs>
       <path id="m6c99a78d10" d="M 0 0 
L 0 3.5 
" style="stroke: #c9d1d9; stroke-width: 0.8"/>
      </defs>
      <g>
       <use xlink:href="#m6c99a78d10" x="86.018361" y="455.237812" style="fill: #c9d1d9; stroke: #c9d1d9; stroke-width: 0.8"/>
      </g>
     </g>
     <g id="text_1">
      <!-- Sep -->
      <g style="fill: #c9d1d9" transform="translate(76.593361 469.83625) scale(0.1 -0.1)">
       <defs>
        <path id="DejaVuSans-53" d="M 3425 4513 
L 3425 3897 
Q 3066 4069 2747 4153 
Q 2428 4238 2131 4238 
Q 1616 4238 1336 4038 
Q 1056 3838 1056 3469 
Q 1056 3159 1242 3001 
Q 1428 2844 1947 2747 
L 2328 2669 
Q 3034 2534 3370 2195 
Q 3706 1856 3706 1288 
Q 3706 609 3251 259 
Q 2797 -91 1919 -91 
Q 1588 -91 1214 -16 
Q 841 59 441 206 
L 441 856 
Q 825 641 1194 531 
Q 1563 422 1919 422 
Q 2459 422 2753 634 
Q 3047 847 3047 1241 
Q 3047 1584 2836 1778 
Q 2625 1972 2144 2069 
L 1759 2144 
Q 1053 2284 737 2584 
Q 422 2884 422 3419 
Q 422 4038 858 4394 
Q 1294 4750 2059 4750 
Q 2388 4750 2728 4690 
Q 3069 4631 3425 4513 
z
" transform="scale(0.015625)"/>
        <path id="DejaVuSans-65" d="M 3597 1894 
L 3597 1613 
L 953 1613 
Q 991 1019 1311 708 
Q 1631 397 2203 397 
Q 2534 397 2845 478 
Q 3156 559 3463 722 
L 3463 178 
Q 3153 47 2828 -22 
Q 2503 -91 2169 -91 
Q 1331 -91 842 396 
Q 353 884 353 1716 
Q 353 2575 817 3079 
Q 1281 3584 2069 3584 
Q 2775 3584 3186 3129 
Q 3597 2675 3597 1894 
z
M 3022 2063 
Q 3016 2534 2758 2815 
Q 2500 3097 2075 3097 
Q 1594 3097 1305 2825 
Q 1016 2553 972 2059 
L 3022 2063 
z
" transform="scale(0.015625)"/>
        <path id="DejaVuSans-70" d="M 1159 525 
L 1159 -1331 
L 581 -1331 
L 581 3500 
L 1159 3500 
L 1159 2969 
Q 1341 3281 1617 3432 
Q 1894 3584 2278 3584 
Q 2916 3584 3314 3078 
Q 3713 2572 3713 1747 
Q 3713 922 3314 415 
Q 2916 -91 2278 -91 
Q 1894 -91 1617 61 
Q 1341 213 1159 525 
z
M 3116 1747 
Q 3116 2381 2855 2742 
Q 2594 3103 2138 3103 
Q 1681 3103 1420 2742 
Q 1159 2381 1159 1747 
Q 1159 1113 1420 752 
Q 1681 391 2138 391 
Q 2594 391 2855 752 
Q 3116 1113 3116 1747 
z
" transform="scale(0.015625)"/>
       </defs>
       <use xlink:href="#DejaVuSans-53"/>
       <use xlink:href="#DejaVuSans-65" transform="translate(63.476562 0)"/>
       <use xlink:href="#DejaVuSans-70" transform="translate(125 0)"/>
      </g>
     </g>
    </g>
    <g id="xtick_2">
     <g id="line2d_3">
      <path d="M 165.906154 455.237812 
L 165.906154 38.397812 
" clip-path="url(#p58e8c48939)" style="fill: none; stroke: #30363d; stroke-opacity: 0.25; stroke-width: 0.5; stroke-linecap: square"/>
     </g>
     <g id="line2d_4">
      <g>
       <use xlink:href="#m6c99a78d10" x="165.906154" y="455.237812" style="fill: #c9d1d9; stroke: #c9d1d9; stroke-width: 0.8"/>
      </g>
     </g>
     <g id="text_2">
      <!-- Oct -->
      <g style="fill: #c9d1d9" transform="translate(157.260842 469.83625) scale(0.1 -0.1)">
       <defs>
        <path id="DejaVuSans-4f" d="M 2522 4238 
Q 1834 4238 1429 3725 
Q 1025 3213 1025 2328 
Q 1025 1447 1429 934 
Q 1834 422 2522 422 
Q 3209 422 3611 934 
Q 4013 1447 4013 2328 
Q 4013 3213 3611 3725 
Q 3209 4238 2522 4238 
z
M 2522 4750 
Q 3503 4750 4090 4092 
Q 4678 3434 4678 2328 
Q 4678 1225 4090 567 
Q 3503 -91 2522 -91 
Q 1538 -91 948 565 
Q 359 1222 359 2328 
Q 359 3434 948 4092 
Q 1538 4750 2522 4750 
z
" transform="scale(0.015625)"/>
        <path id="DejaVuSans-63" d="M 3122 3366 
L 3122 2828 
Q 2878 2963 2633 3030 
Q 2388 3097 2138 3097 
Q 1578 3097 1268 2742 
Q 959 2388 959 1747 
Q 959 1106 1268 751 
Q 1578 397 2138 397 
Q 2388 397 2633 464 
Q 2878 531 3122 666 
L 3122 134 
Q 2881 22 2623 -34 
Q 2366 -91 2075 -91 
Q 1284 -91 818 406 
Q 353 903 353 1747 
Q 353 2603 823 3093 
Q 1294 3584 2113 3584 
Q 2378 3584 2631 3529 
Q 2884 3475 3122 3366 
z
" transform="scale(0.015625)"/>
        <path id="DejaVuSans-74" d="M 1172 4494 
L 1172 3500 
L 2356 3500 
L 2356 3053 
L 1172 3053 
L 1172 1153 
Q 1172 725 1289 603 
Q 1406 481 1766 481 
L 2356 481 
L 2356 0 
L 1766 0 
Q 1100 0 847 248 
Q 594 497 594 1153 
L 594 3053 
L 172 3053 
L 172 3500 
L 594 3500 
L 594 4494 
L 1172 4494 
z
" transform="scale(0.015625)"/>
       </defs>
       <use xlink:href="#DejaVuSans-4f"/>
       <use xlink:href="#DejaVuSans-63" transform="translate(78.710938 0)"/>
       <use xlink:href="#DejaVuSans-74" transform="translate(133.691406 0)"/>
      </g>
     </g>
    </g>
    <g id="xtick_3">
     <g id="line2d_5">
      <path d="M 248.456874 455.237812 
L 248.456874 38.397812 
" clip-path="url(#p58e8c48939)" style="fill: none; stroke: #30363d; stroke-opacity: 0.25; stroke-width: 0.5; stroke-linecap: square"/>
     </g>
     <g id="line2d_6">
      <g>
       <use xlink:href="#m6c99a78d10" x="248.456874" y="455.237812" style="fill: #c9d1d9; stroke: #c9d1d9; stroke-width: 0.8"/>
      </g>
     </g>
     <g id="text_3">
      <!-- Nov -->
      <g style="fill: #c9d1d9" transform="translate(238.697499 469.83625) scale(0.1 -0.1)">
       <defs>
        <path id="DejaVuSans-4e" d="M 628 4666 
L 1478 4666 
L 3547 763 
L 3547 4666 
L 4159 4666 
L 4159 0 
L 3309 0 
L 1241 3903 
L 1241 0 
L 628 0 
L 628 4666 
z
" transform="scale(0.015625)"/>
        <path id="DejaVuSans-6f" d="M 1959 3097 
Q 1497 3097 1228 2736 
Q 959 2375 959 1747 
Q 959 1119 1226 758 
Q 1494 397 1959 397 
Q 2419 397 2687 759 
Q 2956 1122 2956 1747 
Q 2956 2369 2687 2733 
Q 2419 3097 1959 3097 
z
M 1959 3584 
Q 2709 3584 3137 3096 
Q 3566 2609 3566 1747 
Q 3566 888 3137 398 
Q 2709 -91 1959 -91 
Q 1206 -91 779 398 
Q 353 888 353 1747 
Q 353 2609 779 3096 
Q 1206 3584 1959 3584 
z
" transform="scale(0.015625)"/>
        <path id="DejaVuSans-76" d="M 191 3500 
L 800 3500 
L 1894 563 
L 2988 3500 
L 3597 3500 
L 2284 0 
L 1503 0 
L 191 3500 
z
" transform="scale(0.015625)"/>
       </defs>
       <use xlink:href="#DejaVuSans-4e"/>
       <use xlink:href="#DejaVuSans-6f" transform="translate(74.804688 0)"/>
       <use xlink:href="#DejaVuSans-76" transform="translate(135.986328 0)"/>
      </g>
     </g>
    </g>
    <g id="xtick_4">
     <g id="line2d_7">
      <path d="M 328.344667 455.237812 
L 328.344667 38.397812 
" clip-path="url(#p58e8c48939)" style="fill: none; stroke: #30363d; stroke-opacity: 0.25; stroke-width: 0.5; stroke-linecap: square"/>
     </g>
     <g id="line2d_8">
      <g>
       <use xlink:href="#m6c99a78d10" x="328.344667" y="455.237812" style="fill: #c9d1d9; stroke: #c9d1d9; stroke-width: 0.8"/>
      </g>
     </g>
     <g id="text_4">
      <!-- Dec -->
      <g style="fill: #c9d1d9" transform="translate(318.668886 469.83625) scale(0.1 -0.1)">
       <defs>
        <path id="DejaVuSans-44" d="M 1259 4147 
L 1259 519 
L 2022 519 
Q 2988 519 3436 956 
Q 3884 1394 3884 2338 
Q 3884 3275 3436 3711 
Q 2988 4147 2022 4147 
L 1259 4147 
z
M 628 4666 
L 1925 4666 
Q 3281 4666 3915 4102 
Q 4550 3538 4550 2338 
Q 4550 1131 3912 565 
Q 3275 0 1925 0 
L 628 0 
L 628 4666 
z
" transform="scale(0.015625)"/>
       </defs>
       <use xlink:href="#DejaVuSans-44"/>
       <use xlink:href="#DejaVuSans-65" transform="translate(77.001953 0)"/>
       <use xlink:href="#DejaVuSans-63" transform="translate(138.525391 0)"/>
      </g>
     </g>
    </g>
    <g id="xtick_5">
     <g id="line2d_9">
      <path d="M 410.895387 455.237812 
L 410.895387 38.397812 
" clip-path="url(#p58e8c48939)" style="fill: none; stroke: #30363d; stroke-opacity: 0.25; stroke-width: 0.5; stroke-linecap: square"/>
     </g>
     <g id="line2d_10">
      <g>
       <use xlink:href="#m6c99a78d10" x="410.895387" y="455.237812" style="fill: #c9d1d9; stroke: #c9d1d9; stroke-width: 0.8"/>
      </g>
     </g>
     <g id="text_5">
      <!-- 2026 -->
      <g style="fill: #c9d1d9" transform="translate(398.170387 469.83625) scale(0.1 -0.1)">
       <defs>
        <path id="DejaVuSans-32" d="M 1228 531 
L 3431 531 
L 3431 0 
L 469 0 
L 469 531 
Q 828 903 1448 1529 
Q 2069 2156 2228 2338 
Q 2531 2678 2651 2914 
Q 2772 3150 2772 3378 
Q 2772 3750 2511 3984 
Q 2250 4219 1831 4219 
Q 1534 4219 1204 4116 
Q 875 4013 500 3803 
L 500 4441 
Q 881 4594 1212 4672 
Q 1544 4750 1819 4750 
Q 2544 4750 2975 4387 
Q 3406 4025 3406 3419 
Q 3406 3131 3298 2873 
Q 3191 2616 2906 2266 
Q 2828 2175 2409 1742 
Q 1991 1309 1228 531 
z
" transform="scale(0.015625)"/>
        <path id="DejaVuSans-30" d="M 2034 4250 
Q 1547 4250 1301 3770 
Q 1056 3291 1056 2328 
Q 1056 1369 1301 889 
Q 1547 409 2034 409 
Q 2525 409 2770 889 
Q 3016 1369 3016 2328 
Q 3016 3291 2770 3770 
Q 2525 4250 2034 4250 
z
M 2034 4750 
Q 2819 4750 3233 4129 
Q 3647 3509 3647 2328 
Q 3647 1150 3233 529 
Q 2819 -91 2034 -91 
Q 1250 -91 836 529 
Q 422 1150 422 2328 
Q 422 3509 836 4129 
Q 1250 4750 2034 4750 
z
" transform="scale(0.015625)"/>
        <path id="DejaVuSans-36" d="M 2113 2584 
Q 1688 2584 1439 2293 
Q 1191 2003 1191 1497 
Q 1191 994 1439 701 
Q 1688 409 2113 409 
Q 2538 409 2786 701 
Q 3034 994 3034 1497 
Q 3034 2003 2786 2293 
Q 2538 2584 2113 2584 
z
M 3366 4563 
L 3366 3988 
Q 3128 4100 2886 4159 
Q 2644 4219 2406 4219 
Q 1781 4219 1451 3797 
Q 1122 3375 1075 2522 
Q 1259 2794 1537 2939 
Q 1816 3084 2150 3084 
Q 2853 3084 3261 2657 
Q 3669 2231 3669 1497 
Q 3669 778 3244 343 
Q 2819 -91 2113 -91 
Q 1303 -91 875 529 
Q 447 1150 447 2328 
Q 447 3434 972 4092 
Q 1497 4750 2381 4750 
Q 2619 4750 2861 4703 
Q 3103 4656 3366 4563 
z
" transform="scale(0.015625)"/>
       </defs>
       <use xlink:href="#DejaVuSans-32"/>
       <use xlink:href="#DejaVuSans-30" transform="translate(63.623047 0)"/>
       <use xlink:href="#DejaVuSans-32" transform="translate(127.246094 0)"/>
       <use xlink:href="#DejaVuSans-36" transform="translate(190.869141 0)"/>
      </g>
     </g>
    </g>
    <g id="xtick_6">
     <g id="line2d_11">
      <path d="M 493.446107 455.237812 
L 493.446107 38.397812 
" clip-path="url(#p58e8c48939)" style="fill: none; stroke: #30363d; stroke-opacity: 0.25; stroke-width: 0.5; stroke-linecap: square"/>
     </g>
     <g id="line2d_12">
      <g>
       <use xlink:href="#m6c99a78d10" x="493.446107" y="455.237812" style="fill: #c9d1d9; stroke: #c9d1d9; stroke-width: 0.8"/>
      </g>
     </g>
     <g id="text_6">
      <!-- Feb -->
      <g style="fill: #c9d1d9" transform="translate(484.594544 469.83625) scale(0.1 -0.1)">
       <defs>
        <path id="DejaVuSans-46" d="M 628 4666 
L 3309 4666 
L 3309 4134 
L 1259 4134 
L 1259 2759 
L 3109 2759 
L 3109 2228 
L 1259 2228 
L 1259 0 
L 628 0 
L 628 4666 
z
" transform="scale(0.015625)"/>
        <path id="DejaVuSans-62" d="M 3116 1747 
Q 3116 2381 2855 2742 
Q 2594 3103 2138 3103 
Q 1681 3103 1420 2742 
Q 1159 2381 1159 1747 
Q 1159 1113 1420 752 
Q 1681 391 2138 391 
Q 2594 391 2855 752 
Q 3116 1113 3116 1747 
z
M 1159 2969 
Q 1341 3281 1617 3432 
Q 1894 3584 2278 3584 
Q 2916 3584 3314 3078 
Q 3713 2572 3713 1747 
Q 3713 922 3314 415 
Q 2916 -91 2278 -91 
Q 1894 -91 1617 61 
Q 1341 213 1159 525 
L 1159 0 
L 581 0 
L 581 4863 
L 1159 4863 
L 1159 2969 
z
" transform="scale(0.015625)"/>
       </defs>
       <use xlink:href="#DejaVuSans-46"/>
       <use xlink:href="#DejaVuSans-65" transform="translate(52.019531 0)"/>
       <use xlink:href="#DejaVuSans-62" transform="translate(113.542969 0)"/>
      </g>
     </g>
    </g>
    <g id="xtick_7">
     <g id="line2d_13">
      <path d="M 568.008047 455.237812 
L 568.008047 38.397812 
" clip-path="url(#p58e8c48939)" style="fill: none; stroke: #30363d; stroke-opacity: 0.25; stroke-width: 0.5; stroke-linecap: square"/>
     </g>
     <g id="line2d_14">
      <g>
       <use xlink:href="#m6c99a78d10" x="568.008047" y="455.237812" style="fill: #c9d1d9; stroke: #c9d1d9; stroke-width: 0.8"/>
      </g>
     </g>
     <g id="text_7">
      <!-- Mar -->
      <g style="fill: #c9d1d9" transform="translate(558.574453 469.83625) scale(0.1 -0.1)">
       <defs>
        <path id="DejaVuSans-4d" d="M 628 4666 
L 1569 4666 
L 2759 1491 
L 3956 4666 
L 4897 4666 
L 4897 0 
L 4281 0 
L 4281 4097 
L 3078 897 
L 2444 897 
L 1241 4097 
L 1241 0 
L 628 0 
L 628 4666 
z
" transform="scale(0.015625)"/>
        <path id="DejaVuSans-61" d="M 2194 1759 
Q 1497 1759 1228 1600 
Q 959 1441 959 1056 
Q 959 750 1161 570 
Q 1363 391 1709 391 
Q 2188 391 2477 730 
Q 2766 1069 2766 1631 
L 2766 1759 
L 2194 1759 
z
M 3341 1997 
L 3341 0 
L 2766 0 
L 2766 531 
Q 2569 213 2275 61 
Q 1981 -91 1556 -91 
Q 1019 -91 701 211 
Q 384 513 384 1019 
Q 384 1609 779 1909 
Q 1175 2209 1959 2209 
L 2766 2209 
L 2766 2266 
Q 2766 2663 2505 2880 
Q 2244 3097 1772 3097 
Q 1472 3097 1187 3025 
Q 903 2953 641 2809 
L 641 3341 
Q 956 3463 1253 3523 
Q 1550 3584 1831 3584 
Q 2591 3584 2966 3190 
Q 3341 2797 3341 1997 
z
" transform="scale(0.015625)"/>
        <path id="DejaVuSans-72" d="M 2631 2963 
Q 2534 3019 2420 3045 
Q 2306 3072 2169 3072 
Q 1681 3072 1420 2755 
Q 1159 2438 1159 1844 
L 1159 0 
L 581 0 
L 581 3500 
L 1159 3500 
L 1159 2956 
Q 1341 3275 1631 3429 
Q 1922 3584 2338 3584 
Q 2397 3584 2469 3576 
Q 2541 3569 2628 3553 
L 2631 2963 
z
" transform="scale(0.015625)"/>
       </defs>
       <use xlink:href="#DejaVuSans-4d"/>
       <use xlink:href="#DejaVuSans-61" transform="translate(86.279297 0)"/>
       <use xlink:href="#DejaVuSans-72" transform="translate(147.558594 0)"/>
      </g>
     </g>
    </g>
    <g id="xtick_8">
     <g id="line2d_15">
      <path d="M 650.558767 455.237812 
L 650.558767 38.397812 
" clip-path="url(#p58e8c48939)" style="fill: none; stroke: #30363d; stroke-opacity: 0.25; stroke-width: 0.5; stroke-linecap: square"/>
     </g>
     <g id="line2d_16">
      <g>
       <use xlink:href="#m6c99a78d10" x="650.558767" y="455.237812" style="fill: #c9d1d9; stroke: #c9d1d9; stroke-width: 0.8"/>
      </g>
     </g>
     <g id="text_8">
      <!-- Apr -->
      <g style="fill: #c9d1d9" transform="translate(641.908767 469.83625) scale(0.1 -0.1)">
       <defs>
        <path id="DejaVuSans-41" d="M 2188 4044 
L 1331 1722 
L 3047 1722 
L 2188 4044 
z
M 1831 4666 
L 2547 4666 
L 4325 0 
L 3669 0 
L 3244 1197 
L 1141 1197 
L 716 0 
L 50 0 
L 1831 4666 
z
" transform="scale(0.015625)"/>
       </defs>
       <use xlink:href="#DejaVuSans-41"/>
       <use xlink:href="#DejaVuSans-70" transform="translate(68.408203 0)"/>
       <use xlink:href="#DejaVuSans-72" transform="translate(131.884766 0)"/>
      </g>
     </g>
    </g>
    <g id="xtick_9">
     <g id="line2d_17">
      <path d="M 730.44656 455.237812 
L 730.44656 38.397812 
" clip-path="url(#p58e8c48939)" style="fill: none; stroke: #30363d; stroke-opacity: 0.25; stroke-width: 0.5; stroke-linecap: square"/>
     </g>
     <g id="line2d_18">
      <g>
       <use xlink:href="#m6c99a78d10" x="730.44656" y="455.237812" style="fill: #c9d1d9; stroke: #c9d1d9; stroke-width: 0.8"/>
      </g>
     </g>
     <g id="text_9">
      <!-- May -->
      <g style="fill: #c9d1d9" transform="translate(720.10906 469.83625) scale(0.1 -0.1)">
       <defs>
        <path id="DejaVuSans-79" d="M 2059 -325 
Q 1816 -950 1584 -1140 
Q 1353 -1331 966 -1331 
L 506 -1331 
L 506 -850 
L 844 -850 
Q 1081 -850 1212 -737 
Q 1344 -625 1503 -206 
L 1606 56 
L 191 3500 
L 800 3500 
L 1894 763 
L 2988 3500 
L 3597 3500 
L 2059 -325 
z
" transform="scale(0.015625)"/>
       </defs>
       <use xlink:href="#DejaVuSans-4d"/>
       <use xlink:href="#DejaVuSans-61" transform="translate(86.279297 0)"/>
       <use xlink:href="#DejaVuSans-79" transform="translate(147.558594 0)"/>
      </g>
     </g>
    </g>
    <g id="xtick_10">
     <g id="line2d_19">
      <path d="M 812.99728 455.237812 
L 812.99728 38.397812 
" clip-path="url(#p58e8c48939)" style="fill: none; stroke: #30363d; stroke-opacity: 0.25; stroke-width: 0.5; stroke-linecap: square"/>
     </g>
     <g id="line2d_20">
      <g>
       <use xlink:href="#m6c99a78d10" x="812.99728" y="455.237812" style="fill: #c9d1d9; stroke: #c9d1d9; stroke-width: 0.8"/>
      </g>
     </g>
     <g id="text_10">
      <!-- Jun -->
      <g style="fill: #c9d1d9" transform="translate(805.18478 469.83625) scale(0.1 -0.1)">
       <defs>
        <path id="DejaVuSans-4a" d="M 628 4666 
L 1259 4666 
L 1259 325 
Q 1259 -519 939 -900 
Q 619 -1281 -91 -1281 
L -331 -1281 
L -331 -750 
L -134 -750 
Q 284 -750 456 -515 
Q 628 -281 628 325 
L 628 4666 
z
" transform="scale(0.015625)"/>
        <path id="DejaVuSans-75" d="M 544 1381 
L 544 3500 
L 1119 3500 
L 1119 1403 
Q 1119 906 1312 657 
Q 1506 409 1894 409 
Q 2359 409 2629 706 
Q 2900 1003 2900 1516 
L 2900 3500 
L 3475 3500 
L 3475 0 
L 2900 0 
L 2900 538 
Q 2691 219 2414 64 
Q 2138 -91 1772 -91 
Q 1169 -91 856 284 
Q 544 659 544 1381 
z
M 1991 3584 
L 1991 3584 
z
" transform="scale(0.015625)"/>
        <path id="DejaVuSans-6e" d="M 3513 2113 
L 3513 0 
L 2938 0 
L 2938 2094 
Q 2938 2591 2744 2837 
Q 2550 3084 2163 3084 
Q 1697 3084 1428 2787 
Q 1159 2491 1159 1978 
L 1159 0 
L 581 0 
L 581 3500 
L 1159 3500 
L 1159 2956 
Q 1366 3272 1645 3428 
Q 1925 3584 2291 3584 
Q 2894 3584 3203 3211 
Q 3513 2838 3513 2113 
z
" transform="scale(0.015625)"/>
       </defs>
       <use xlink:href="#DejaVuSans-4a"/>
       <use xlink:href="#DejaVuSans-75" transform="translate(29.492188 0)"/>
       <use xlink:href="#DejaVuSans-6e" transform="translate(92.871094 0)"/>
      </g>
     </g>
    </g>
    <g id="text_11">
     <!-- Date -->
     <g style="fill: #c9d1d9" transform="translate(434.285313 485.034062) scale(0.12 -0.12)">
      <use xlink:href="#DejaVuSans-44"/>
      <use xlink:href="#DejaVuSans-61" transform="translate(77.001953 0)"/>
      <use xlink:href="#DejaVuSans-74" transform="translate(138.28125 0)"/>
      <use xlink:href="#DejaVuSans-65" transform="translate(177.490234 0)"/>
     </g>
    </g>
   </g>
   <g id="matplotlib.axis_2">
    <g id="ytick_1">
     <g id="line2d_21">
      <path d="M 48.90125 455.237812 
L 848.35125 455.237812 
" clip-path="url(#p58e8c48939)" style="fill: none; stroke: #30363d; stroke-opacity: 0.25; stroke-width: 0.5; stroke-linecap: square"/>
     </g>
     <g id="line2d_22">
      <defs>
       <path id="me677c2204e" d="M 0 0 
L -3.5 0 
" style="stroke: #c9d1d9; stroke-width: 0.8"/>
      </defs>
      <g>
       <use xlink:href="#me677c2204e" x="48.90125" y="455.237812" style="fill: #c9d1d9; stroke: #c9d1d9; stroke-width: 0.8"/>
      </g>
     </g>
     <g id="text_12">
      <!-- 0 -->
      <g style="fill: #c9d1d9" transform="translate(35.53875 459.037031) scale(0.1 -0.1)">
       <use xlink:href="#DejaVuSans-30"/>
      </g>
     </g>
    </g>
    <g id="ytick_2">
     <g id="line2d_23">
      <path d="M 48.90125 399.659146 
L 848.35125 399.659146 
" clip-path="url(#p58e8c48939)" style="fill: none; stroke: #30363d; stroke-opacity: 0.25; stroke-width: 0.5; stroke-linecap: square"/>
     </g>
     <g id="line2d_24">
      <g>
       <use xlink:href="#me677c2204e" x="48.90125" y="399.659146" style="fill: #c9d1d9; stroke: #c9d1d9; stroke-width: 0.8"/>
      </g>
     </g>
     <g id="text_13">
      <!-- 100 -->
      <g style="fill: #c9d1d9" transform="translate(22.81375 403.458365) scale(0.1 -0.1)">
       <defs>
        <path id="DejaVuSans-31" d="M 794 531 
L 1825 531 
L 1825 4091 
L 703 3866 
L 703 4441 
L 1819 4666 
L 2450 4666 
L 2450 531 
L 3481 531 
L 3481 0 
L 794 0 
L 794 531 
z
" transform="scale(0.015625)"/>
       </defs>
       <use xlink:href="#DejaVuSans-31"/>
       <use xlink:href="#DejaVuSans-30" transform="translate(63.623047 0)"/>
       <use xlink:href="#DejaVuSans-30" transform="translate(127.246094 0)"/>
      </g>
     </g>
    </g>
    <g id="ytick_3">
     <g id="line2d_25">
      <path d="M 48.90125 344.080479 
L 848.35125 344.080479 
" clip-path="url(#p58e8c48939)" style="fill: none; stroke: #30363d; stroke-opacity: 0.25; stroke-width: 0.5; stroke-linecap: square"/>
     </g>
     <g id="line2d_26">
      <g>
       <use xlink:href="#me677c2204e" x="48.90125" y="344.080479" style="fill: #c9d1d9; stroke: #c9d1d9; stroke-width: 0.8"/>
      </g>
     </g>
     <g id="text_14">
      <!-- 200 -->
      <g style="fill: #c9d1d9" transform="translate(22.81375 347.879698) scale(0.1 -0.1)">
       <use xlink:href="#DejaVuSans-32"/>
       <use xlink:href="#DejaVuSans-30" transform="translate(63.623047 0)"/>
       <use xlink:href="#DejaVuSans-30" transform="translate(127.246094 0)"/>
      </g>
     </g>
    </g>
    <g id="ytick_4">
     <g id="line2d_27">
      <path d="M 48.90125 288.501812 
L 848.35125 288.501812 
" clip-path="url(#p58e8c48939)" style="fill: none; stroke: #30363d; stroke-opacity: 0.25; stroke-width: 0.5; stroke-linecap: square"/>
     </g>
     <g id="line2d_28">
      <g>
       <use xlink:href="#me677c2204e" x="48.90125" y="288.501812" style="fill: #c9d1d9; stroke: #c9d1d9; stroke-width: 0.8"/>
      </g>
     </g>
     <g id="text_15">
      <!-- 300 -->
      <g style="fill: #c9d1d9" transform="translate(22.81375 292.301031) scale(0.1 -0.1)">
       <defs>
        <path id="DejaVuSans-33" d="M 2597 2516 
Q 3050 2419 3304 2112 
Q 3559 1806 3559 1356 
Q 3559 666 3084 287 
Q 2609 -91 1734 -91 
Q 1441 -91 1130 -33 
Q 819 25 488 141 
L 488 750 
Q 750 597 1062 519 
Q 1375 441 1716 441 
Q 2309 441 2620 675 
Q 2931 909 2931 1356 
Q 2931 1769 2642 2001 
Q 2353 2234 1838 2234 
L 1294 2234 
L 1294 2753 
L 1863 2753 
Q 2328 2753 2575 2939 
Q 2822 3125 2822 3475 
Q 2822 3834 2567 4026 
Q 2313 4219 1838 4219 
Q 1578 4219 1281 4162 
Q 984 4106 628 3988 
L 628 4550 
Q 988 4650 1302 4700 
Q 1616 4750 1894 4750 
Q 2613 4750 3031 4423 
Q 3450 4097 3450 3541 
Q 3450 3153 3228 2886 
Q 3006 2619 2597 2516 
z
" transform="scale(0.015625)"/>
       </defs>
       <use xlink:href="#DejaVuSans-33"/>
       <use xlink:href="#DejaVuSans-30" transform="translate(63.623047 0)"/>
       <use xlink:href="#DejaVuSans-30" transform="translate(127.246094 0)"/>
      </g>
     </g>
    </g>
    <g id="ytick_5">
     <g id="line2d_29">
      <path d="M 48.90125 232.923146 
L 848.35125 232.923146 
" clip-path="url(#p58e8c48939)" style="fill: none; stroke: #30363d; stroke-opacity: 0.25; stroke-width: 0.5; stroke-linecap: square"/>
     </g>
     <g id="line2d_30">
      <g>
       <use xlink:href="#me677c2204e" x="48.90125" y="232.923146" style="fill: #c9d1d9; stroke: #c9d1d9; stroke-width: 0.8"/>
      </g>
     </g>
     <g id="text_16">
      <!-- 400 -->
      <g style="fill: #c9d1d9" transform="translate(22.81375 236.722365) scale(0.1 -0.1)">
       <defs>
        <path id="DejaVuSans-34" d="M 2419 4116 
L 825 1625 
L 2419 1625 
L 2419 4116 
z
M 2253 4666 
L 3047 4666 
L 3047 1625 
L 3713 1625 
L 3713 1100 
L 3047 1100 
L 3047 0 
L 2419 0 
L 2419 1100 
L 313 1100 
L 313 1709 
L 2253 4666 
z
" transform="scale(0.015625)"/>
       </defs>
       <use xlink:href="#DejaVuSans-34"/>
       <use xlink:href="#DejaVuSans-30" transform="translate(63.623047 0)"/>
       <use xlink:href="#DejaVuSans-30" transform="translate(127.246094 0)"/>
      </g>
     </g>
    </g>
    <g id="ytick_6">
     <g id="line2d_31">
      <path d="M 48.90125 177.344479 
L 848.35125 177.344479 
" clip-path="url(#p58e8c48939)" style="fill: none; stroke: #30363d; stroke-opacity: 0.25; stroke-width: 0.5; stroke-linecap: square"/>
     </g>
     <g id="line2d_32">
      <g>
       <use xlink:href="#me677c2204e" x="48.90125" y="177.344479" style="fill: #c9d1d9; stroke: #c9d1d9; stroke-width: 0.8"/>
      </g>
     </g>
     <g id="text_17">
      <!-- 500 -->
      <g style="fill: #c9d1d9" transform="translate(22.81375 181.143698) scale(0.1 -0.1)">
       <defs>
        <path id="DejaVuSans-35" d="M 691 4666 
L 3169 4666 
L 3169 4134 
L 1269 4134 
L 1269 2991 
Q 1406 3038 1543 3061 
Q 1681 3084 1819 3084 
Q 2600 3084 3056 2656 
Q 3513 2228 3513 1497 
Q 3513 744 3044 326 
Q 2575 -91 1722 -91 
Q 1428 -91 1123 -41 
Q 819 9 494 109 
L 494 744 
Q 775 591 1075 516 
Q 1375 441 1709 441 
Q 2250 441 2565 725 
Q 2881 1009 2881 1497 
Q 2881 1984 2565 2268 
Q 2250 2553 1709 2553 
Q 1456 2553 1204 2497 
Q 953 2441 691 2322 
L 691 4666 
z
" transform="scale(0.015625)"/>
       </defs>
       <use xlink:href="#DejaVuSans-35"/>
       <use xlink:href="#DejaVuSans-30" transform="translate(63.623047 0)"/>
       <use xlink:href="#DejaVuSans-30" transform="translate(127.246094 0)"/>
      </g>
     </g>
    </g>
    <g id="ytick_7">
     <g id="line2d_33">
      <path d="M 48.90125 121.765812 
L 848.35125 121.765812 
" clip-path="url(#p58e8c48939)" style="fill: none; stroke: #30363d; stroke-opacity: 0.25; stroke-width: 0.5; stroke-linecap: square"/>
     </g>
     <g id="line2d_34">
      <g>
       <use xlink:href="#me677c2204e" x="48.90125" y="121.765812" style="fill: #c9d1d9; stroke: #c9d1d9; stroke-width: 0.8"/>
      </g>
     </g>
     <g id="text_18">
      <!-- 600 -->
      <g style="fill: #c9d1d9" transform="translate(22.81375 125.565031) scale(0.1 -0.1)">
       <use xlink:href="#DejaVuSans-36"/>
       <use xlink:href="#DejaVuSans-30" transform="translate(63.623047 0)"/>
       <use xlink:href="#DejaVuSans-30" transform="translate(127.246094 0)"/>
      </g>
     </g>
    </g>
    <g id="ytick_8">
     <g id="line2d_35">
      <path d="M 48.90125 66.187146 
L 848.35125 66.187146 
" clip-path="url(#p58e8c48939)" style="fill: none; stroke: #30363d; stroke-opacity: 0.25; stroke-width: 0.5; stroke-linecap: square"/>
     </g>
     <g id="line2d_36">
      <g>
       <use xlink:href="#me677c2204e" x="48.90125" y="66.187146" style="fill: #c9d1d9; stroke: #c9d1d9; stroke-width: 0.8"/>
      </g>
     </g>
     <g id="text_19">
      <!-- 700 -->
      <g style="fill: #c9d1d9" transform="translate(22.81375 69.986365) scale(0.1 -0.1)">
       <defs>
        <path id="DejaVuSans-37" d="M 525 4666 
L 3525 4666 
L 3525 4397 
L 1831 0 
L 1172 0 
L 2766 4134 
L 525 4134 
L 525 4666 
z
" transform="scale(0.015625)"/>
       </defs>
       <use xlink:href="#DejaVuSans-37"/>
       <use xlink:href="#DejaVuSans-30" transform="translate(63.623047 0)"/>
       <use xlink:href="#DejaVuSans-30" transform="translate(127.246094 0)"/>
      </g>
     </g>
    </g>
    <g id="text_20">
     <!-- Count -->
     <g style="fill: #c9d1d9" transform="translate(16.318125 264.635937) rotate(-90) scale(0.12 -0.12)">
      <defs>
       <path id="DejaVuSans-43" d="M 4122 4306 
L 4122 3641 
Q 3803 3938 3442 4084 
Q 3081 4231 2675 4231 
Q 1875 4231 1450 3742 
Q 1025 3253 1025 2328 
Q 1025 1406 1450 917 
Q 1875 428 2675 428 
Q 3081 428 3442 575 
Q 3803 722 4122 1019 
L 4122 359 
Q 3791 134 3420 21 
Q 3050 -91 2638 -91 
Q 1578 -91 968 557 
Q 359 1206 359 2328 
Q 359 3453 968 4101 
Q 1578 4750 2638 4750 
Q 3056 4750 3426 4639 
Q 3797 4528 4122 4306 
z
" transform="scale(0.015625)"/>
      </defs>
      <use xlink:href="#DejaVuSans-43"/>
      <use xlink:href="#DejaVuSans-6f" transform="translate(69.824219 0)"/>
      <use xlink:href="#DejaVuSans-75" transform="translate(131.005859 0)"/>
      <use xlink:href="#DejaVuSans-6e" transform="translate(194.384766 0)"/>
      <use xlink:href="#DejaVuSans-74" transform="translate(257.763672 0)"/>
     </g>
    </g>
   </g>
   <g id="line2d_37">
    <path d="M 85.239886 454.682026 
L 85.290895 454.682026 
L 85.413963 454.126239 
L 85.48331 454.126239 
L 85.653842 257.933546 
L 87.799008 257.933546 
L 87.808809 261.268266 
L 90.404053 261.268266 
L 90.572088 260.712479 
L 90.889944 260.712479 
L 91.181942 260.156692 
L 92.991283 259.600906 
L 93.027004 260.156692 
L 93.092838 259.600906 
L 98.716729 259.600906 
L 102.09692 260.712479 
L 102.599855 259.600906 
L 102.967086 259.600906 
L 103.892638 259.045119 
L 104.279872 256.821972 
L 105.033875 256.821972 
L 106.13264 260.712479 
L 106.203929 256.821972 
L 107.047066 256.266186 
L 109.24136 256.266186 
L 109.820146 255.710399 
L 110.679864 255.710399 
L 110.96203 254.598826 
L 116.268959 254.598826 
L 116.659799 253.487252 
L 116.679832 252.375679 
L 118.367246 252.375679 
L 120.855418 251.264106 
L 122.160653 251.264106 
L 122.180409 250.708319 
L 125.177927 250.708319 
L 125.921512 247.929386 
L 128.274781 247.929386 
L 128.291116 247.373599 
L 141.470599 247.373599 
L 143.934175 246.817812 
L 144.018286 247.373599 
L 146.573339 246.817812 
L 155.464709 246.817812 
L 159.774242 246.262026 
L 159.857489 245.706239 
L 160.062202 245.150452 
L 162.493355 245.150452 
L 163.528075 244.594666 
L 167.795137 244.594666 
L 167.957131 247.373599 
L 167.965083 245.150452 
L 168.172539 245.150452 
L 169.202697 242.927306 
L 174.246415 242.927306 
L 178.111943 242.371519 
L 182.408223 242.371519 
L 182.596755 241.815732 
L 193.760611 241.815732 
L 194.237072 241.259946 
L 196.947801 241.259946 
L 196.96691 240.148372 
L 202.131816 240.148372 
L 202.236577 236.257866 
L 211.584774 236.257866 
L 211.587579 235.702079 
L 211.858309 235.702079 
L 213.036531 235.146292 
L 214.233893 235.146292 
L 214.614716 234.590506 
L 214.65281 235.146292 
L 215.524857 234.590506 
L 215.528833 234.034719 
L 215.549206 234.590506 
L 216.052943 234.034719 
L 220.641652 234.034719 
L 222.068321 233.478932 
L 223.76119 233.478932 
L 226.636503 232.923146 
L 229.358513 232.923146 
L 231.461547 231.811572 
L 236.06391 231.811572 
L 238.741137 230.699999 
L 239.495448 231.255786 
L 243.232144 231.255786 
L 247.447304 229.032639 
L 253.733691 229.032639 
L 255.683329 228.476852 
L 290.428201 228.476852 
L 290.708794 227.921066 
L 303.379454 227.921066 
L 303.591163 227.365279 
L 325.151529 227.365279 
L 329.899058 226.809492 
L 329.92652 227.365279 
L 333.325049 225.697919 
L 338.31258 225.697919 
L 341.035947 225.142132 
L 341.040416 224.586346 
L 346.722743 224.586346 
L 348.762193 225.142132 
L 349.49533 224.586346 
L 359.004998 224.586346 
L 359.409708 225.142132 
L 360.151074 224.586346 
L 360.405839 222.363199 
L 364.763823 222.363199 
L 364.767583 221.807412 
L 378.102927 221.807412 
L 378.879491 221.251626 
L 381.442311 221.251626 
L 381.69233 220.695839 
L 394.189499 220.695839 
L 394.206482 220.140052 
L 397.332215 220.140052 
L 397.336869 219.584266 
L 398.095341 219.584266 
L 398.134946 219.028479 
L 399.312767 219.028479 
L 399.497815 218.472692 
L 402.018719 218.472692 
L 402.401915 217.361119 
L 403.789688 215.137972 
L 407.145561 215.137972 
L 407.393331 212.359039 
L 408.518633 212.359039 
L 409.070913 211.247466 
L 411.916792 211.247466 
L 412.850604 210.691679 
L 415.523639 210.691679 
L 415.881902 210.135892 
L 423.142106 210.135892 
L 423.32099 209.580106 
L 423.992485 209.580106 
L 425.035002 209.024319 
L 436.777892 209.024319 
L 436.883392 208.468532 
L 437.2599 208.468532 
L 438.045895 207.356959 
L 439.147865 207.356959 
L 439.412833 206.801172 
L 439.668122 206.801172 
L 439.764992 206.245386 
L 442.711964 206.245386 
L 443.213667 205.689599 
L 445.778768 205.689599 
L 445.943228 205.133812 
L 447.348292 205.133812 
L 447.43832 204.578026 
L 451.804934 204.578026 
L 451.898814 204.022239 
L 454.445484 204.022239 
L 455.296079 201.799092 
L 456.239138 201.799092 
L 456.240124 201.243306 
L 460.069313 201.243306 
L 460.771321 200.687519 
L 463.703283 200.687519 
L 464.280775 200.131732 
L 464.498 200.131732 
L 465.06227 199.575946 
L 466.50364 199.575946 
L 466.670227 199.020159 
L 470.285181 199.020159 
L 471.216989 198.464372 
L 471.284857 197.908586 
L 471.586532 197.908586 
L 472.538713 195.685439 
L 475.491695 195.685439 
L 475.512961 195.129652 
L 478.323335 195.129652 
L 478.591138 194.573866 
L 478.910628 194.573866 
L 479.231997 194.018079 
L 479.299033 194.573866 
L 479.539682 194.018079 
L 480.60886 194.018079 
L 480.619092 193.462292 
L 480.903014 193.462292 
L 481.027346 192.906506 
L 481.886448 192.350719 
L 487.863731 192.350719 
L 488.797975 191.794932 
L 489.423362 191.794932 
L 489.930736 191.239146 
L 490.443996 191.794932 
L 492.557293 191.794932 
L 492.648431 190.683359 
L 495.682225 190.683359 
L 496.859337 189.015999 
L 509.636052 189.015999 
L 510.37862 188.460212 
L 530.10018 188.460212 
L 530.221337 187.904426 
L 559.20011 187.904426 
L 559.32777 187.348639 
L 559.336924 186.792852 
L 559.346016 187.348639 
L 563.569621 187.348639 
L 564.52325 186.792852 
L 581.162811 186.792852 
L 584.58686 186.237066 
L 584.620147 185.681279 
L 584.903607 185.681279 
L 585.791495 185.125492 
L 612.496887 185.125492 
L 612.756091 184.569706 
L 636.504402 184.569706 
L 639.552652 184.013919 
L 641.417224 184.013919 
L 641.619563 183.458132 
L 642.915521 182.902346 
L 646.54983 182.902346 
L 648.080458 182.346559 
L 649.682097 182.346559 
L 649.806829 181.790772 
L 652.441216 181.790772 
L 652.755897 181.234986 
L 652.818186 180.679199 
L 657.508481 180.679199 
L 657.526665 180.123412 
L 661.520223 180.123412 
L 661.529038 179.567626 
L 662.882137 179.011839 
L 665.284257 179.011839 
L 667.012878 178.456052 
L 668.559872 178.456052 
L 670.839941 175.121332 
L 673.501882 175.121332 
L 673.51421 172.342399 
L 686.898528 172.342399 
L 686.899915 171.786612 
L 687.131411 171.230826 
L 688.413376 171.230826 
L 688.692213 170.675039 
L 692.89714 170.675039 
L 693.869201 170.119252 
L 694.02913 170.675039 
L 701.55011 170.675039 
L 701.551805 170.119252 
L 704.588435 170.119252 
L 705.830672 167.340319 
L 713.446179 167.340319 
L 713.527515 166.228746 
L 715.249356 164.561386 
L 716.977053 164.561386 
L 717.161085 164.005599 
L 724.423847 164.005599 
L 724.557394 163.449812 
L 731.850021 163.449812 
L 732.008872 162.894026 
L 734.018765 161.226666 
L 734.174503 160.670879 
L 753.97407 160.670879 
L 755.848629 157.891946 
L 760.321544 157.891946 
L 760.612894 157.336159 
L 763.973359 157.336159 
L 765.224133 156.224586 
L 782.93657 156.224586 
L 783.161131 155.668799 
L 785.754032 155.668799 
L 786.03179 155.113012 
L 803.112645 155.113012 
L 803.121398 153.445652 
L 803.651918 153.445652 
L 803.741607 152.889866 
L 806.78659 152.889866 
L 807.215247 152.334079 
L 807.217805 152.889866 
L 812.012614 152.889866 
L 812.012614 152.889866 
" clip-path="url(#p58e8c48939)" style="fill: none; stroke: #3fb950; stroke-width: 2; stroke-linecap: square"/>
   </g>
   <g id="line2d_38">
    <path d="M 85.239886 455.237812 
L 85.323257 453.570452 
L 85.413963 453.570452 
L 85.555708 372.981386 
L 86.740772 372.981386 
L 86.766631 370.758239 
L 88.062866 370.758239 
L 88.396841 369.090879 
L 88.851265 370.758239 
L 88.854624 369.090879 
L 89.230639 369.090879 
L 89.37596 367.979306 
L 93.089294 367.979306 
L 93.092838 367.423519 
L 93.113735 367.979306 
L 93.296503 367.423519 
L 93.3501 367.979306 
L 93.598424 367.423519 
L 94.796125 367.423519 
L 94.8643 366.867732 
L 95.049996 366.311946 
L 96.521232 366.311946 
L 98.195486 365.756159 
L 98.254415 365.200372 
L 98.706928 364.644586 
L 98.716729 364.088799 
L 102.09692 367.979306 
L 102.599855 366.311946 
L 102.967086 363.533012 
L 105.033875 363.533012 
L 106.13264 367.979306 
L 106.203929 363.533012 
L 126.281932 363.533012 
L 126.898042 362.977226 
L 128.291116 362.977226 
L 132.095834 362.421439 
L 133.022619 361.865652 
L 146.227837 361.865652 
L 146.573339 361.309866 
L 148.348438 360.754079 
L 149.476669 360.754079 
L 150.727258 360.198292 
L 150.760945 359.086719 
L 151.620602 358.530932 
L 152.19837 357.975146 
L 160.15787 357.975146 
L 161.74453 357.419359 
L 162.224196 357.419359 
L 162.493355 356.863572 
L 163.528075 356.863572 
L 164.556044 356.307786 
L 167.795137 356.307786 
L 167.957131 358.530932 
L 167.965083 356.307786 
L 169.202697 356.307786 
L 169.326936 355.751999 
L 171.078735 355.751999 
L 172.802271 355.196212 
L 172.844095 354.640426 
L 178.111943 354.640426 
L 180.333853 354.084639 
L 180.339462 353.528852 
L 187.733275 353.528852 
L 190.817523 352.973066 
L 193.131495 352.973066 
L 193.760611 352.417279 
L 197.292718 352.417279 
L 199.307296 351.861492 
L 199.417727 351.305706 
L 201.381851 351.305706 
L 201.609803 350.749919 
L 202.236577 350.194132 
L 203.635754 350.194132 
L 204.519142 349.638346 
L 206.138812 349.638346 
L 207.195907 349.082559 
L 209.451012 349.082559 
L 210.219284 347.970986 
L 216.052943 347.970986 
L 217.714313 347.415199 
L 219.662441 347.415199 
L 220.101762 346.859412 
L 220.23611 346.303626 
L 220.641652 345.747839 
L 227.350254 345.747839 
L 228.578529 345.192052 
L 229.358513 344.636266 
L 248.435207 344.636266 
L 252.717464 344.080479 
L 252.768626 343.524692 
L 255.683329 343.524692 
L 258.174583 342.968906 
L 262.577843 342.968906 
L 262.949913 342.413119 
L 270.448855 342.413119 
L 276.319067 341.857332 
L 276.375408 341.301546 
L 277.142848 341.301546 
L 278.697732 340.745759 
L 278.784462 339.078399 
L 278.852885 338.522612 
L 282.100761 337.966826 
L 282.295241 337.411039 
L 282.372756 336.299466 
L 282.666911 335.743679 
L 293.235831 335.743679 
L 296.238281 335.187892 
L 298.149547 334.632106 
L 299.646827 334.632106 
L 303.118401 334.076319 
L 303.379454 331.853172 
L 303.591163 331.853172 
L 304.090308 330.741599 
L 310.675164 330.185812 
L 310.884746 329.630026 
L 310.946573 329.074239 
L 312.337736 329.074239 
L 313.651416 328.518452 
L 313.802407 327.962666 
L 313.904949 326.851092 
L 314.774499 326.295306 
L 314.838329 325.739519 
L 316.424866 325.183732 
L 318.510332 324.627946 
L 318.658642 324.072159 
L 318.661786 323.516372 
L 319.081258 322.960586 
L 319.155352 322.404799 
L 322.180516 321.849012 
L 322.722841 321.293226 
L 335.458256 321.293226 
L 337.570228 320.737439 
L 337.762427 320.181652 
L 346.393884 320.181652 
L 346.722743 319.070079 
L 350.319019 319.070079 
L 351.404778 318.514292 
L 351.457821 317.402719 
L 351.736627 316.846932 
L 353.582768 316.291146 
L 353.624346 315.735359 
L 353.847181 315.179572 
L 354.075533 312.956426 
L 354.329898 312.956426 
L 354.339268 312.400639 
L 355.880467 311.844852 
L 356.486375 311.289066 
L 356.63299 310.733279 
L 359.409708 310.177492 
L 361.456031 310.177492 
L 362.166607 309.621706 
L 369.860276 309.621706 
L 372.409134 309.065919 
L 372.419274 308.510132 
L 372.877674 307.954346 
L 378.879491 307.954346 
L 380.563484 307.398559 
L 381.257201 306.842772 
L 381.442311 305.731199 
L 386.297159 305.731199 
L 386.627929 305.175412 
L 389.293876 305.175412 
L 390.5702 304.619626 
L 394.206482 304.619626 
L 396.404783 304.063839 
L 400.969945 304.063839 
L 401.53104 303.508052 
L 403.789688 303.508052 
L 404.404473 302.952266 
L 404.671166 302.396479 
L 404.802525 301.840692 
L 406.661735 301.840692 
L 406.714592 300.729119 
L 407.393331 300.729119 
L 407.83897 299.061759 
L 409.456236 299.061759 
L 409.657095 298.505972 
L 409.813018 298.505972 
L 410.587116 297.950186 
L 411.871701 297.950186 
L 411.916792 297.394399 
L 412.850604 297.394399 
L 413.077415 296.838612 
L 413.955102 296.838612 
L 415.298924 295.727039 
L 415.881902 295.727039 
L 418.136605 294.615466 
L 418.139996 294.059679 
L 418.570471 293.503892 
L 419.668805 292.948106 
L 419.839584 292.392319 
L 420.934651 291.836532 
L 422.724729 291.836532 
L 423.32099 290.724959 
L 425.504158 290.724959 
L 425.566139 290.169172 
L 426.188105 290.169172 
L 426.235847 289.613386 
L 426.577157 289.057599 
L 427.764749 289.057599 
L 427.855085 288.501812 
L 428.058534 288.501812 
L 428.168749 287.946026 
L 428.191094 287.946026 
L 428.28818 287.390239 
L 429.863868 287.390239 
L 430.194577 286.834452 
L 430.472273 286.834452 
L 430.638244 286.278666 
L 431.062093 286.278666 
L 431.379425 285.722879 
L 431.446337 285.167092 
L 431.537043 285.167092 
L 433.132241 284.611306 
L 434.325965 284.611306 
L 434.416332 284.055519 
L 439.125274 284.055519 
L 439.147865 283.499732 
L 439.412833 283.499732 
L 440.03634 282.388159 
L 441.626729 282.388159 
L 441.774207 280.720799 
L 441.817233 279.609226 
L 442.095207 279.053439 
L 443.213667 279.053439 
L 443.741167 278.497652 
L 444.252455 278.497652 
L 444.417316 277.941866 
L 445.209876 277.386079 
L 445.943228 277.386079 
L 447.417546 276.830292 
L 447.515619 276.274506 
L 447.88886 276.274506 
L 447.963539 275.718719 
L 449.274136 275.718719 
L 449.310536 275.162932 
L 455.666454 275.162932 
L 455.783913 274.607146 
L 455.953736 274.607146 
L 456.037569 273.495572 
L 456.855987 273.495572 
L 457.030156 272.939786 
L 457.597014 272.383999 
L 457.739499 271.828212 
L 457.999844 271.828212 
L 458.220151 271.272426 
L 458.291964 270.716639 
L 461.485657 270.716639 
L 462.291778 270.160852 
L 462.450999 269.049279 
L 462.647205 268.493492 
L 462.974739 268.493492 
L 463.174366 267.937706 
L 467.757681 267.937706 
L 468.06025 266.270346 
L 468.6865 266.270346 
L 468.778439 265.714559 
L 471.225588 265.714559 
L 471.284857 264.602986 
L 474.224 264.602986 
L 474.254451 264.047199 
L 475.670302 264.047199 
L 475.679826 263.491412 
L 476.36929 263.491412 
L 476.483635 262.935626 
L 478.486748 262.935626 
L 478.591138 262.379839 
L 478.72413 262.379839 
L 478.910628 261.824052 
L 479.289201 261.824052 
L 479.299033 261.268266 
L 479.539682 261.268266 
L 479.99876 260.712479 
L 483.706761 260.712479 
L 483.97626 260.156692 
L 485.076473 260.156692 
L 485.078508 259.600906 
L 493.490335 259.600906 
L 494.918052 259.045119 
L 494.959444 258.489332 
L 495.682225 257.933546 
L 496.781268 257.933546 
L 496.859337 256.821972 
L 497.058132 256.821972 
L 497.140886 256.266186 
L 500.05975 256.266186 
L 500.586849 255.710399 
L 505.635714 255.710399 
L 505.651248 255.154612 
L 507.300259 255.154612 
L 508.004979 254.598826 
L 515.766423 254.598826 
L 515.863293 253.487252 
L 518.915735 253.487252 
L 519.522876 252.931466 
L 520.173043 252.931466 
L 520.967852 252.375679 
L 526.221553 252.375679 
L 526.724643 251.819892 
L 527.160574 251.819892 
L 527.374317 251.264106 
L 529.047954 250.708319 
L 529.867235 250.708319 
L 530.134391 250.152532 
L 530.221337 250.152532 
L 532.572633 249.596746 
L 536.90183 249.596746 
L 537.240614 249.040959 
L 553.950138 249.040959 
L 554.560669 248.485172 
L 558.424779 248.485172 
L 558.564429 247.929386 
L 558.815434 247.929386 
L 558.891099 247.373599 
L 580.470512 247.373599 
L 581.162811 246.817812 
L 586.315235 246.817812 
L 587.434496 246.262026 
L 587.509514 245.706239 
L 590.190286 245.706239 
L 590.301519 245.150452 
L 598.984816 245.150452 
L 599.0026 244.594666 
L 606.332737 244.594666 
L 606.411638 244.038879 
L 606.887729 243.483092 
L 608.686499 243.483092 
L 608.690629 242.927306 
L 609.056165 242.371519 
L 611.756908 242.371519 
L 612.649173 241.815732 
L 618.408122 241.815732 
L 618.448682 240.704159 
L 654.953489 240.704159 
L 657.526665 240.148372 
L 660.764032 240.148372 
L 660.871597 239.592586 
L 675.22437 239.592586 
L 675.248472 239.036799 
L 690.237018 239.036799 
L 690.391523 238.481012 
L 691.283265 238.481012 
L 691.306504 237.925226 
L 691.508042 237.369439 
L 692.292033 236.257866 
L 692.407272 235.146292 
L 692.473876 234.034719 
L 692.674675 233.478932 
L 692.721122 232.923146 
L 692.89714 232.367359 
L 694.02913 232.367359 
L 694.169858 231.811572 
L 694.176485 231.255786 
L 694.600981 230.699999 
L 701.551805 230.699999 
L 702.301 229.588426 
L 724.22499 229.588426 
L 724.364301 229.032639 
L 737.746369 229.032639 
L 738.0633 227.921066 
L 739.498353 227.921066 
L 739.690583 227.365279 
L 748.216663 227.365279 
L 748.429728 226.809492 
L 751.781008 226.809492 
L 752.676048 226.253706 
L 752.76022 225.697919 
L 757.788435 225.697919 
L 757.945067 224.586346 
L 758.593754 224.030559 
L 759.200526 224.030559 
L 760.321544 223.474772 
L 763.544178 223.474772 
L 763.593306 222.918986 
L 763.973359 222.363199 
L 766.602906 222.363199 
L 769.389394 221.807412 
L 783.161131 221.807412 
L 784.788968 221.251626 
L 785.39164 220.695839 
L 785.754032 219.584266 
L 787.691989 219.584266 
L 795.58809 218.472692 
L 797.569412 218.472692 
L 797.787686 217.361119 
L 798.055735 217.361119 
L 798.191717 216.805332 
L 809.288323 216.805332 
L 809.301329 216.249546 
L 812.012614 216.249546 
L 812.012614 216.249546 
" clip-path="url(#p58e8c48939)" style="fill: none; stroke: #58a6ff; stroke-width: 2; stroke-linecap: square"/>
   </g>
   <g id="line2d_39">
    <path d="M 85.239886 455.237812 
L 87.799008 455.237812 
L 87.808809 454.126239 
L 89.921521 454.126239 
L 90.404053 453.570452 
L 220.641652 453.570452 
L 222.068321 453.014666 
L 258.174583 453.014666 
L 259.176601 452.458879 
L 293.235831 452.458879 
L 296.238281 451.903092 
L 304.090308 451.903092 
L 310.946573 450.235732 
L 312.337736 449.124159 
L 314.838329 449.124159 
L 316.424866 448.568372 
L 318.661786 448.012586 
L 319.155352 448.012586 
L 322.180516 447.456799 
L 322.722841 446.901012 
L 325.151529 446.345226 
L 329.899058 445.789439 
L 329.92652 446.345226 
L 337.762427 446.345226 
L 338.31258 445.789439 
L 349.49533 445.789439 
L 350.319019 445.233652 
L 354.075533 445.233652 
L 354.339268 444.677866 
L 359.004998 444.677866 
L 359.409708 444.122079 
L 376.501904 444.122079 
L 378.102927 443.566292 
L 378.775809 443.566292 
L 378.879491 443.010506 
L 383.441263 443.010506 
L 383.445608 442.454719 
L 394.189499 442.454719 
L 394.206482 441.898932 
L 397.336869 441.898932 
L 398.134946 441.343146 
L 399.310702 440.787359 
L 399.312767 440.231572 
L 399.497815 440.231572 
L 400.969945 438.564212 
L 401.961639 438.564212 
L 402.018719 436.896852 
L 402.401915 436.896852 
L 403.789688 437.452639 
L 404.787731 437.452639 
L 404.802525 435.229492 
L 408.518633 435.229492 
L 409.070913 434.673706 
L 409.657095 434.673706 
L 409.813018 434.117919 
L 423.142106 434.117919 
L 423.32099 433.562132 
L 423.992485 433.562132 
L 425.035002 433.006346 
L 429.634437 433.006346 
L 429.863868 432.450559 
L 431.446337 432.450559 
L 431.537043 431.894772 
L 436.777892 431.894772 
L 436.883392 431.338986 
L 437.2599 431.338986 
L 437.641771 430.783199 
L 438.023272 430.783199 
L 438.045895 430.227412 
L 439.668122 430.227412 
L 439.764992 429.671626 
L 447.29605 429.671626 
L 447.417546 429.115839 
L 447.43832 429.115839 
L 447.515619 428.560052 
L 447.963539 428.560052 
L 448.902529 428.004266 
L 452.573576 428.004266 
L 452.576812 427.448479 
L 453.278265 427.448479 
L 453.304956 426.892692 
L 455.296079 426.892692 
L 455.76465 426.336906 
L 458.367784 426.336906 
L 459.137382 425.781119 
L 460.634076 425.781119 
L 460.649948 424.669546 
L 460.771321 424.669546 
L 460.92407 424.113759 
L 463.331768 424.113759 
L 463.703283 423.557972 
L 464.280775 423.557972 
L 464.498 423.002186 
L 465.907564 423.002186 
L 466.104386 422.446399 
L 466.106914 421.890612 
L 466.50364 421.890612 
L 466.670227 421.334826 
L 481.854209 421.334826 
L 481.886448 420.223252 
L 483.97626 420.223252 
L 484.57773 419.667466 
L 485.078508 419.667466 
L 487.427708 419.111679 
L 487.863731 419.111679 
L 488.797975 418.555892 
L 489.423362 418.555892 
L 489.930736 418.000106 
L 490.443996 418.555892 
L 492.096274 418.555892 
L 492.545581 418.000106 
L 492.648431 416.888532 
L 493.484695 416.332746 
L 493.490335 415.221172 
L 497.140886 415.221172 
L 497.93924 414.665386 
L 498.020145 412.998026 
L 498.818099 412.442239 
L 499.259392 411.886452 
L 503.033659 411.886452 
L 503.193804 410.219092 
L 503.386312 410.219092 
L 503.529043 409.663306 
L 504.451452 409.107519 
L 505.903394 409.107519 
L 506.202511 408.551732 
L 506.270563 407.995946 
L 506.423188 407.995946 
L 507.300259 406.884372 
L 508.239958 406.884372 
L 508.548506 406.328586 
L 509.632477 406.328586 
L 509.636052 405.217012 
L 510.37862 405.217012 
L 511.364427 404.661226 
L 513.97616 403.549652 
L 514.326563 402.993866 
L 519.522876 402.993866 
L 520.173043 401.882292 
L 530.10018 401.882292 
L 530.221337 400.770719 
L 535.053285 400.770719 
L 535.791569 400.214932 
L 538.031971 400.214932 
L 538.15772 399.659146 
L 551.940923 399.659146 
L 552.160923 399.103359 
L 553.526166 399.103359 
L 553.950138 398.547572 
L 556.498102 398.547572 
L 556.977306 397.991786 
L 556.98045 397.435999 
L 557.528507 396.880212 
L 559.20011 396.880212 
L 559.32777 396.324426 
L 559.336924 395.212852 
L 559.346016 395.768639 
L 560.469315 395.212852 
L 564.52325 395.212852 
L 565.322899 394.101279 
L 572.637471 394.101279 
L 573.203004 393.545492 
L 574.977456 393.545492 
L 575.119509 392.989706 
L 575.13905 392.433919 
L 581.162811 392.433919 
L 584.903607 391.322346 
L 585.791495 391.322346 
L 586.315235 390.766559 
L 594.063858 390.766559 
L 595.016285 390.210772 
L 596.196449 390.210772 
L 597.339442 389.654986 
L 606.887729 389.654986 
L 607.149768 389.099199 
L 607.151186 388.543412 
L 612.496887 388.543412 
L 612.756091 387.987626 
L 636.504402 387.987626 
L 639.552652 387.431839 
L 646.54983 387.431839 
L 648.080458 386.876052 
L 649.427208 386.876052 
L 649.682097 386.320266 
L 652.818186 386.320266 
L 653.347936 385.764479 
L 654.046615 385.764479 
L 654.953489 385.208692 
L 657.127257 385.208692 
L 657.526665 384.652906 
L 657.794222 384.652906 
L 658.768286 384.097119 
L 668.178864 384.097119 
L 668.205185 382.429759 
L 676.41643 382.429759 
L 679.898422 381.873972 
L 679.901258 381.318186 
L 683.984288 381.318186 
L 684.155683 380.762399 
L 684.158211 380.206612 
L 686.06809 380.206612 
L 686.899915 379.650826 
L 687.494974 379.650826 
L 688.413376 379.095039 
L 689.398936 379.095039 
L 689.569252 377.983466 
L 690.391523 377.983466 
L 690.555398 377.427679 
L 692.40567 377.427679 
L 692.473876 376.871892 
L 695.390274 376.871892 
L 697.503078 376.316106 
L 698.196086 376.316106 
L 698.876396 375.760319 
L 700.281737 375.204532 
L 700.287747 374.648746 
L 700.675289 372.981386 
L 701.029421 372.425599 
L 701.551805 371.869812 
L 702.951752 371.869812 
L 703.800745 370.202452 
L 705.830672 370.202452 
L 706.380301 368.535092 
L 708.613954 368.535092 
L 708.850473 367.979306 
L 710.469403 367.979306 
L 710.821224 366.867732 
L 711.430831 366.311946 
L 713.527515 366.311946 
L 717.161085 365.200372 
L 719.490745 364.644586 
L 719.64901 364.088799 
L 721.852551 364.088799 
L 721.993526 363.533012 
L 724.41272 363.533012 
L 724.423847 362.977226 
L 724.877345 362.977226 
L 724.976743 362.421439 
L 731.850021 362.421439 
L 732.008872 361.865652 
L 734.174503 361.309866 
L 737.736167 361.309866 
L 737.746369 360.754079 
L 750.813078 360.754079 
L 751.781008 358.530932 
L 757.143292 358.530932 
L 757.151213 357.419359 
L 763.973359 357.419359 
L 765.221482 355.751999 
L 765.224133 355.196212 
L 770.046557 355.196212 
L 771.669124 354.084639 
L 771.741738 353.528852 
L 802.059001 353.528852 
L 803.267828 352.973066 
L 806.454279 352.973066 
L 806.78659 351.861492 
L 812.012614 351.861492 
L 812.012614 351.861492 
" clip-path="url(#p58e8c48939)" style="fill: none; stroke: #d29922; stroke-width: 2; stroke-linecap: square"/>
   </g>
   <g id="line2d_40">
    <path d="M 85.239886 454.682026 
L 85.458776 454.682026 
L 85.555708 432.450559 
L 86.062281 426.892692 
L 86.351751 425.781119 
L 86.498612 426.336906 
L 86.766631 425.781119 
L 87.219914 425.225332 
L 87.808809 423.002186 
L 88.062866 421.334826 
L 88.396841 421.334826 
L 88.851265 420.779039 
L 88.854624 420.223252 
L 89.220499 419.667466 
L 89.321376 419.111679 
L 89.37596 419.111679 
L 89.921521 418.555892 
L 90.311313 418.000106 
L 90.404053 411.886452 
L 90.468191 412.442239 
L 90.762223 405.217012 
L 90.889944 402.993866 
L 93.092838 402.993866 
L 93.296503 399.659146 
L 93.3501 402.438079 
L 93.598424 397.991786 
L 93.7214 397.435999 
L 94.637613 396.880212 
L 94.796125 395.768639 
L 95.049996 395.768639 
L 95.521834 395.212852 
L 95.773887 394.657066 
L 95.888048 393.545492 
L 95.957487 392.989706 
L 96.192959 392.433919 
L 96.198784 391.878132 
L 96.435612 392.433919 
L 96.503017 391.878132 
L 96.511308 392.433919 
L 96.521232 390.766559 
L 98.716729 390.766559 
L 102.09692 402.993866 
L 102.599855 390.210772 
L 102.967086 389.654986 
L 104.279872 389.654986 
L 104.519998 389.099199 
L 105.033875 388.543412 
L 106.13264 402.993866 
L 106.203929 387.987626 
L 107.047066 387.431839 
L 108.85012 386.876052 
L 108.978704 387.431839 
L 109.24136 385.764479 
L 109.820146 385.764479 
L 109.99601 385.208692 
L 110.328167 384.652906 
L 110.355721 383.541332 
L 110.662112 382.429759 
L 110.679864 382.985546 
L 110.862108 382.985546 
L 110.96203 381.873972 
L 111.269623 379.650826 
L 111.31006 378.539252 
L 111.70469 376.871892 
L 111.897568 377.983466 
L 113.261331 374.648746 
L 113.620426 375.760319 
L 115.098227 373.537172 
L 116.268959 377.427679 
L 116.679832 373.537172 
L 118.367246 371.869812 
L 120.855418 371.869812 
L 121.184031 371.314026 
L 121.445546 369.646666 
L 122.180409 371.314026 
L 125.177927 371.869812 
L 125.921512 369.646666 
L 126.281932 367.979306 
L 126.898042 369.646666 
L 128.291116 367.979306 
L 133.022619 367.979306 
L 137.997822 367.423519 
L 138.329609 366.867732 
L 141.470599 366.311946 
L 143.547558 366.311946 
L 143.934175 365.756159 
L 144.018286 366.311946 
L 146.227837 364.644586 
L 148.300327 364.644586 
L 148.348438 364.088799 
L 149.476669 363.533012 
L 152.19837 363.533012 
L 153.398968 359.642506 
L 154.292559 359.086719 
L 155.442394 358.530932 
L 155.464709 357.975146 
L 159.774242 357.975146 
L 159.857489 354.084639 
L 160.016988 354.084639 
L 160.15787 352.973066 
L 161.74453 352.973066 
L 162.224196 352.417279 
L 164.556044 352.417279 
L 167.795137 351.861492 
L 167.957131 363.533012 
L 167.965083 352.417279 
L 168.172539 351.861492 
L 169.326936 351.861492 
L 171.078735 351.305706 
L 172.844095 351.305706 
L 174.246415 350.749919 
L 178.111943 349.638346 
L 180.339462 349.638346 
L 182.129664 349.082559 
L 182.408223 346.303626 
L 182.596755 346.303626 
L 182.93036 345.747839 
L 184.670478 345.192052 
L 185.072721 342.968906 
L 187.477708 341.857332 
L 187.506679 342.413119 
L 187.733275 341.857332 
L 190.817523 340.745759 
L 193.131495 340.189972 
L 194.237072 340.189972 
L 195.216992 339.634186 
L 196.0662 338.522612 
L 196.96691 337.966826 
L 197.292718 337.411039 
L 199.417727 337.966826 
L 201.381851 336.855252 
L 201.609803 337.411039 
L 202.131816 337.411039 
L 202.236577 336.855252 
L 203.635754 336.299466 
L 204.519142 336.855252 
L 206.138812 335.743679 
L 207.195907 335.743679 
L 209.451012 335.187892 
L 209.824962 335.743679 
L 210.219284 334.076319 
L 211.587579 334.076319 
L 211.858309 333.520532 
L 213.036531 331.297386 
L 213.369428 330.185812 
L 214.233893 330.741599 
L 214.614716 329.630026 
L 214.65281 329.074239 
L 217.714313 329.074239 
L 219.264882 328.518452 
L 219.662441 327.962666 
L 222.068321 327.962666 
L 223.76119 327.406879 
L 226.636503 327.406879 
L 227.350254 326.851092 
L 235.256865 326.851092 
L 235.710949 326.295306 
L 235.756441 325.739519 
L 236.06391 325.183732 
L 239.495448 325.183732 
L 239.709315 324.627946 
L 240.582379 324.072159 
L 240.733586 323.516372 
L 242.180073 322.960586 
L 243.232144 322.404799 
L 247.447304 322.404799 
L 248.435207 321.293226 
L 252.768626 321.293226 
L 253.733691 320.737439 
L 257.772278 320.737439 
L 258.174583 320.181652 
L 259.176601 319.625866 
L 259.474886 319.070079 
L 259.576164 318.514292 
L 262.577843 317.958506 
L 262.949913 318.514292 
L 266.901431 317.402719 
L 270.025715 316.291146 
L 270.448855 315.735359 
L 276.375408 315.735359 
L 277.142848 315.179572 
L 282.666911 315.179572 
L 287.870466 314.623786 
L 288.524979 314.067999 
L 290.708794 313.512212 
L 292.898774 312.956426 
L 293.235831 312.400639 
L 298.149547 312.400639 
L 299.646827 311.844852 
L 310.946573 311.844852 
L 312.337736 311.289066 
L 321.671632 311.289066 
L 322.180516 310.733279 
L 322.722841 311.289066 
L 325.151529 310.733279 
L 333.325049 310.733279 
L 334.420362 310.177492 
L 351.711107 310.177492 
L 351.736627 309.621706 
L 362.415393 309.621706 
L 364.761573 309.065919 
L 364.767583 308.510132 
L 376.496696 308.510132 
L 376.501904 307.398559 
L 383.445608 307.398559 
L 386.627929 306.842772 
L 390.5702 306.842772 
L 394.206482 305.731199 
L 401.53104 305.731199 
L 401.961639 305.175412 
L 402.018719 304.619626 
L 404.787731 304.619626 
L 404.802525 304.063839 
L 405.090053 304.063839 
L 405.548391 303.508052 
L 409.657095 303.508052 
L 409.813018 302.952266 
L 415.298924 302.952266 
L 415.523639 302.396479 
L 428.921118 302.396479 
L 429.63342 300.729119 
L 429.634437 300.173332 
L 431.532512 300.173332 
L 431.537043 299.617546 
L 437.135692 299.617546 
L 437.2599 299.061759 
L 439.940055 299.061759 
L 440.03634 298.505972 
L 449.992972 298.505972 
L 450.184432 297.950186 
L 452.495507 297.950186 
L 452.576812 297.394399 
L 453.304956 296.838612 
L 471.586532 296.838612 
L 472.538713 295.727039 
L 473.963995 295.727039 
L 474.254451 295.171252 
L 475.679826 295.171252 
L 475.891072 294.615466 
L 479.258781 294.615466 
L 479.299033 294.059679 
L 497.937668 294.059679 
L 498.020145 292.948106 
L 521.3177 292.948106 
L 521.922776 292.392319 
L 561.700733 292.392319 
L 563.569621 291.836532 
L 580.380084 291.836532 
L 580.470512 291.280746 
L 587.996516 291.280746 
L 588.362329 290.724959 
L 737.316202 290.724959 
L 737.746369 290.169172 
L 756.658725 290.169172 
L 757.151213 289.613386 
L 763.973359 289.613386 
L 765.209431 289.057599 
L 765.224133 285.167092 
L 771.665518 285.167092 
L 771.741738 282.388159 
L 812.012614 282.388159 
L 812.012614 282.388159 
" clip-path="url(#p58e8c48939)" style="fill: none; stroke: #f85149; stroke-width: 2; stroke-linecap: square"/>
   </g>
   <g id="line2d_41">
    <path d="M 85.239886 454.682026 
L 85.2573 454.126239 
L 85.394595 -1 
M 85.517994 -1 
L 85.653842 101.201706 
L 87.799008 101.201706 
L 87.808809 97.866986 
L 90.404053 97.866986 
L 90.572088 98.422772 
L 90.889944 98.422772 
L 91.181942 98.978559 
L 92.991283 99.534346 
L 93.027004 98.978559 
L 93.092838 99.534346 
L 98.716729 99.534346 
L 102.09692 98.422772 
L 102.599855 99.534346 
L 102.967086 98.978559 
L 103.892638 99.534346 
L 104.279872 96.755412 
L 105.033875 96.755412 
L 106.13264 98.422772 
L 106.203929 95.643839 
L 107.047066 96.199626 
L 109.24136 96.199626 
L 109.820146 95.088052 
L 110.679864 95.088052 
L 110.96203 91.197546 
L 116.268959 91.197546 
L 116.679832 86.751252 
L 118.367246 86.751252 
L 120.855418 82.860746 
L 122.160653 82.860746 
L 122.180409 83.416532 
L 125.177927 83.416532 
L 125.921512 80.081812 
L 128.274781 80.081812 
L 128.291116 80.637599 
L 141.470599 80.637599 
L 143.934175 81.193386 
L 144.018286 80.637599 
L 146.573339 81.193386 
L 155.464709 81.193386 
L 159.774242 81.749172 
L 159.857489 74.523946 
L 160.062202 75.079732 
L 162.493355 75.079732 
L 163.528075 75.635519 
L 167.795137 75.635519 
L 167.957131 80.637599 
L 167.965083 71.745012 
L 168.172539 71.745012 
L 169.202697 73.968159 
L 174.246415 73.968159 
L 178.111943 70.077652 
L 182.408223 70.077652 
L 182.596755 68.410292 
L 193.760611 68.410292 
L 194.237072 68.966079 
L 196.947801 68.966079 
L 196.96691 70.077652 
L 202.131816 70.077652 
L 202.236577 73.412372 
L 210.219284 73.412372 
L 210.409943 68.410292 
L 211.584774 67.298719 
L 211.587579 67.854506 
L 211.858309 67.854506 
L 212.822881 65.075572 
L 214.233893 65.075572 
L 214.614716 65.631359 
L 214.65281 65.075572 
L 215.524857 65.631359 
L 215.528833 66.187146 
L 215.549206 65.631359 
L 216.052943 63.408212 
L 220.641652 63.408212 
L 222.068321 63.963999 
L 223.76119 63.963999 
L 226.636503 64.519786 
L 229.358513 64.519786 
L 231.461547 65.631359 
L 235.756441 65.075572 
L 236.06391 65.075572 
L 238.741137 66.187146 
L 239.495448 65.631359 
L 243.232144 65.631359 
L 247.445024 67.854506 
L 247.447304 67.298719 
L 253.733691 67.298719 
L 255.683329 67.854506 
L 290.428201 67.854506 
L 290.708794 68.410292 
L 292.883148 68.410292 
L 292.898774 66.742932 
L 303.379454 66.742932 
L 303.591163 67.298719 
L 325.151529 67.298719 
L 329.899058 67.854506 
L 329.92652 67.298719 
L 333.325049 68.966079 
L 334.420362 68.966079 
L 335.458256 68.410292 
L 338.31258 68.410292 
L 341.035947 68.966079 
L 341.040416 69.521866 
L 348.762193 67.854506 
L 349.49533 68.410292 
L 359.004998 68.410292 
L 359.409708 67.854506 
L 360.151074 68.410292 
L 360.405839 70.633439 
L 364.763823 70.633439 
L 364.767583 71.189226 
L 378.102927 71.189226 
L 378.879491 71.745012 
L 381.442311 71.745012 
L 381.69233 72.300799 
L 394.189499 72.300799 
L 394.206482 72.856586 
L 396.404783 72.856586 
L 397.332215 73.412372 
L 397.336869 73.968159 
L 398.095341 73.412372 
L 398.134946 73.968159 
L 399.312767 73.968159 
L 399.497815 74.523946 
L 401.961639 74.523946 
L 402.018719 73.412372 
L 402.401915 74.523946 
L 403.789688 72.856586 
L 407.145561 72.856586 
L 407.393331 71.189226 
L 408.518633 71.189226 
L 409.070913 72.300799 
L 411.916792 72.300799 
L 412.850604 72.856586 
L 413.077415 72.856586 
L 413.955102 70.077652 
L 415.523639 70.077652 
L 415.881902 70.633439 
L 423.142106 70.633439 
L 423.32099 71.189226 
L 423.992485 71.189226 
L 425.035002 71.745012 
L 436.777892 71.745012 
L 436.883392 72.300799 
L 437.2599 72.300799 
L 438.045895 73.412372 
L 439.147865 73.412372 
L 439.412833 72.856586 
L 439.668122 72.856586 
L 439.764992 73.412372 
L 442.711964 73.412372 
L 443.213667 73.968159 
L 445.778768 73.968159 
L 445.943228 74.523946 
L 447.348292 74.523946 
L 447.43832 75.079732 
L 451.804934 75.079732 
L 451.898814 75.635519 
L 454.445484 75.635519 
L 455.296079 77.858666 
L 456.239138 77.858666 
L 456.240124 78.414452 
L 460.069313 78.414452 
L 460.771321 78.970239 
L 463.703283 78.970239 
L 464.280775 79.526026 
L 466.50364 79.526026 
L 466.670227 80.081812 
L 470.285181 80.081812 
L 471.216989 80.637599 
L 471.284857 81.193386 
L 471.586532 81.193386 
L 472.538713 60.629279 
L 475.491695 60.629279 
L 475.512961 61.185066 
L 475.679826 61.185066 
L 475.891072 60.629279 
L 478.323335 60.629279 
L 478.591138 61.185066 
L 478.910628 61.185066 
L 479.231997 61.740852 
L 479.299033 61.185066 
L 480.60886 61.185066 
L 480.619092 61.740852 
L 480.903014 61.740852 
L 481.027346 62.296639 
L 481.886448 62.852426 
L 487.863731 62.852426 
L 488.797975 63.408212 
L 489.423362 63.408212 
L 489.930736 63.963999 
L 490.443996 63.408212 
L 492.557293 63.408212 
L 492.648431 64.519786 
L 495.682225 64.519786 
L 496.859337 66.187146 
L 509.636052 66.187146 
L 510.37862 66.742932 
L 530.10018 66.742932 
L 530.221337 67.298719 
L 559.20011 67.298719 
L 559.32777 67.854506 
L 559.336924 68.410292 
L 559.346016 67.854506 
L 563.569621 67.854506 
L 564.52325 68.410292 
L 581.162811 68.410292 
L 584.903607 68.966079 
L 585.784129 69.521866 
L 585.791495 67.854506 
L 612.496887 67.854506 
L 612.756091 68.410292 
L 636.504402 68.410292 
L 639.552652 68.966079 
L 641.417224 68.966079 
L 641.619563 69.521866 
L 642.915521 70.077652 
L 646.54983 70.077652 
L 648.080458 70.633439 
L 649.682097 70.633439 
L 649.806829 71.189226 
L 652.441216 71.189226 
L 652.755897 71.745012 
L 652.818186 72.300799 
L 657.508481 72.300799 
L 657.526665 72.856586 
L 660.871597 72.856586 
L 661.520223 72.300799 
L 661.529038 72.856586 
L 662.882137 73.412372 
L 665.284257 73.412372 
L 667.012878 73.968159 
L 668.559872 73.968159 
L 670.839941 61.740852 
L 673.501882 61.740852 
L 673.51421 64.519786 
L 686.898528 64.519786 
L 686.899915 65.075572 
L 687.131411 65.631359 
L 688.413376 65.631359 
L 688.692213 66.187146 
L 692.89714 66.187146 
L 693.869201 66.742932 
L 694.02913 66.187146 
L 701.55011 66.187146 
L 701.551805 66.742932 
L 713.446179 66.742932 
L 713.527515 67.854506 
L 715.249356 69.521866 
L 716.977053 69.521866 
L 717.161085 70.077652 
L 724.423847 70.077652 
L 724.557394 70.633439 
L 731.850021 70.633439 
L 732.008872 71.189226 
L 734.018765 72.856586 
L 734.174503 73.412372 
L 753.97407 73.412372 
L 755.848629 76.191306 
L 760.321544 76.191306 
L 760.612894 76.747092 
L 763.973359 76.747092 
L 765.224133 77.858666 
L 782.93657 77.858666 
L 783.161131 78.414452 
L 785.754032 78.414452 
L 786.03179 78.970239 
L 803.112645 78.970239 
L 803.121398 80.637599 
L 803.651918 80.637599 
L 803.741607 81.193386 
L 806.78659 81.193386 
L 807.215247 81.749172 
L 807.217805 81.193386 
L 812.012614 81.193386 
L 812.012614 81.193386 
" clip-path="url(#p58e8c48939)" style="fill: none; stroke: #9467bd; stroke-width: 2; stroke-linecap: square"/>
   </g>
   <g id="patch_3">
    <path d="M 48.90125 455.237812 
L 48.90125 38.397812 
" style="fill: none; stroke: #30363d; stroke-width: 0.8; stroke-linejoin: miter; stroke-linecap: square"/>
   </g>
   <g id="patch_4">
    <path d="M 848.35125 455.237812 
L 848.35125 38.397812 
" style="fill: none; stroke: #30363d; stroke-width: 0.8; stroke-linejoin: miter; stroke-linecap: square"/>
   </g>
   <g id="patch_5">
    <path d="M 48.90125 455.237812 
L 848.35125 455.237812 
" style="fill: none; stroke: #30363d; stroke-width: 0.8; stroke-linejoin: miter; stroke-linecap: square"/>
   </g>
   <g id="patch_6">
    <path d="M 48.90125 38.397812 
L 848.35125 38.397812 
" style="fill: none; stroke: #30363d; stroke-width: 0.8; stroke-linejoin: miter; stroke-linecap: square"/>
   </g>
   <g id="text_21">
    <!-- 544 -->
    <g style="fill: #3fb950" transform="translate(817.012614 155.373303) scale(0.09 -0.09)">
     <defs>
      <path id="DejaVuSans-Bold-35" d="M 678 4666 
L 3669 4666 
L 3669 3781 
L 1638 3781 
L 1638 3059 
Q 1775 3097 1914 3117 
Q 2053 3138 2203 3138 
Q 3056 3138 3531 2711 
Q 4006 2284 4006 1522 
Q 4006 766 3489 337 
Q 2972 -91 2053 -91 
Q 1656 -91 1267 -14 
Q 878 63 494 219 
L 494 1166 
Q 875 947 1217 837 
Q 1559 728 1863 728 
Q 2300 728 2551 942 
Q 2803 1156 2803 1522 
Q 2803 1891 2551 2103 
Q 2300 2316 1863 2316 
Q 1603 2316 1309 2248 
Q 1016 2181 678 2041 
L 678 4666 
z
" transform="scale(0.015625)"/>
      <path id="DejaVuSans-Bold-34" d="M 2356 3675 
L 1038 1722 
L 2356 1722 
L 2356 3675 
z
M 2156 4666 
L 3494 4666 
L 3494 1722 
L 4159 1722 
L 4159 850 
L 3494 850 
L 3494 0 
L 2356 0 
L 2356 850 
L 288 850 
L 288 1881 
L 2156 4666 
z
" transform="scale(0.015625)"/>
     </defs>
     <use xlink:href="#DejaVuSans-Bold-35"/>
     <use xlink:href="#DejaVuSans-Bold-34" transform="translate(69.580078 0)"/>
     <use xlink:href="#DejaVuSans-Bold-34" transform="translate(139.160156 0)"/>
    </g>
   </g>
   <g id="text_22">
    <!-- 430 -->
    <g style="fill: #58a6ff" transform="translate(817.012614 218.732983) scale(0.09 -0.09)">
     <defs>
      <path id="DejaVuSans-Bold-33" d="M 2981 2516 
Q 3453 2394 3698 2092 
Q 3944 1791 3944 1325 
Q 3944 631 3412 270 
Q 2881 -91 1863 -91 
Q 1503 -91 1142 -33 
Q 781 25 428 141 
L 428 1069 
Q 766 900 1098 814 
Q 1431 728 1753 728 
Q 2231 728 2486 893 
Q 2741 1059 2741 1369 
Q 2741 1688 2480 1852 
Q 2219 2016 1709 2016 
L 1228 2016 
L 1228 2791 
L 1734 2791 
Q 2188 2791 2409 2933 
Q 2631 3075 2631 3366 
Q 2631 3634 2415 3781 
Q 2200 3928 1806 3928 
Q 1516 3928 1219 3862 
Q 922 3797 628 3669 
L 628 4550 
Q 984 4650 1334 4700 
Q 1684 4750 2022 4750 
Q 2931 4750 3382 4451 
Q 3834 4153 3834 3553 
Q 3834 3144 3618 2883 
Q 3403 2622 2981 2516 
z
" transform="scale(0.015625)"/>
      <path id="DejaVuSans-Bold-30" d="M 2944 2338 
Q 2944 3213 2780 3570 
Q 2616 3928 2228 3928 
Q 1841 3928 1675 3570 
Q 1509 3213 1509 2338 
Q 1509 1453 1675 1090 
Q 1841 728 2228 728 
Q 2613 728 2778 1090 
Q 2944 1453 2944 2338 
z
M 4147 2328 
Q 4147 1169 3647 539 
Q 3147 -91 2228 -91 
Q 1306 -91 806 539 
Q 306 1169 306 2328 
Q 306 3491 806 4120 
Q 1306 4750 2228 4750 
Q 3147 4750 3647 4120 
Q 4147 3491 4147 2328 
z
" transform="scale(0.015625)"/>
     </defs>
     <use xlink:href="#DejaVuSans-Bold-34"/>
     <use xlink:href="#DejaVuSans-Bold-33" transform="translate(69.580078 0)"/>
     <use xlink:href="#DejaVuSans-Bold-30" transform="translate(139.160156 0)"/>
    </g>
   </g>
   <g id="text_23">
    <!-- 186 -->
    <g style="fill: #d29922" transform="translate(817.012614 354.34493) scale(0.09 -0.09)">
     <defs>
      <path id="DejaVuSans-Bold-31" d="M 750 831 
L 1813 831 
L 1813 3847 
L 722 3622 
L 722 4441 
L 1806 4666 
L 2950 4666 
L 2950 831 
L 4013 831 
L 4013 0 
L 750 0 
L 750 831 
z
" transform="scale(0.015625)"/>
      <path id="DejaVuSans-Bold-38" d="M 2228 2088 
Q 1891 2088 1709 1903 
Q 1528 1719 1528 1375 
Q 1528 1031 1709 848 
Q 1891 666 2228 666 
Q 2563 666 2741 848 
Q 2919 1031 2919 1375 
Q 2919 1722 2741 1905 
Q 2563 2088 2228 2088 
z
M 1350 2484 
Q 925 2613 709 2878 
Q 494 3144 494 3541 
Q 494 4131 934 4440 
Q 1375 4750 2228 4750 
Q 3075 4750 3515 4442 
Q 3956 4134 3956 3541 
Q 3956 3144 3739 2878 
Q 3522 2613 3097 2484 
Q 3572 2353 3814 2058 
Q 4056 1763 4056 1313 
Q 4056 619 3595 264 
Q 3134 -91 2228 -91 
Q 1319 -91 855 264 
Q 391 619 391 1313 
Q 391 1763 633 2058 
Q 875 2353 1350 2484 
z
M 1631 3419 
Q 1631 3141 1786 2991 
Q 1941 2841 2228 2841 
Q 2509 2841 2662 2991 
Q 2816 3141 2816 3419 
Q 2816 3697 2662 3845 
Q 2509 3994 2228 3994 
Q 1941 3994 1786 3844 
Q 1631 3694 1631 3419 
z
" transform="scale(0.015625)"/>
      <path id="DejaVuSans-Bold-36" d="M 2316 2303 
Q 2000 2303 1842 2098 
Q 1684 1894 1684 1484 
Q 1684 1075 1842 870 
Q 2000 666 2316 666 
Q 2634 666 2792 870 
Q 2950 1075 2950 1484 
Q 2950 1894 2792 2098 
Q 2634 2303 2316 2303 
z
M 3803 4544 
L 3803 3681 
Q 3506 3822 3243 3889 
Q 2981 3956 2731 3956 
Q 2194 3956 1894 3657 
Q 1594 3359 1544 2772 
Q 1750 2925 1990 3001 
Q 2231 3078 2516 3078 
Q 3231 3078 3670 2659 
Q 4109 2241 4109 1563 
Q 4109 813 3618 361 
Q 3128 -91 2303 -91 
Q 1394 -91 895 523 
Q 397 1138 397 2266 
Q 397 3422 980 4083 
Q 1563 4744 2578 4744 
Q 2900 4744 3203 4694 
Q 3506 4644 3803 4544 
z
" transform="scale(0.015625)"/>
     </defs>
     <use xlink:href="#DejaVuSans-Bold-31"/>
     <use xlink:href="#DejaVuSans-Bold-38" transform="translate(69.580078 0)"/>
     <use xlink:href="#DejaVuSans-Bold-36" transform="translate(139.160156 0)"/>
    </g>
   </g>
   <g id="text_24">
    <!-- 311 -->
    <g style="fill: #f85149" transform="translate(817.012614 284.871597) scale(0.09 -0.09)">
     <use xlink:href="#DejaVuSans-Bold-33"/>
     <use xlink:href="#DejaVuSans-Bold-31" transform="translate(69.580078 0)"/>
     <use xlink:href="#DejaVuSans-Bold-31" transform="translate(139.160156 0)"/>
    </g>
   </g>
   <g id="text_25">
    <!-- 673 -->
    <g style="fill: #9467bd" transform="translate(817.012614 83.676823) scale(0.09 -0.09)">
     <defs>
      <path id="DejaVuSans-Bold-37" d="M 428 4666 
L 3944 4666 
L 3944 3988 
L 2125 0 
L 953 0 
L 2675 3781 
L 428 3781 
L 428 4666 
z
" transform="scale(0.015625)"/>
     </defs>
     <use xlink:href="#DejaVuSans-Bold-36"/>
     <use xlink:href="#DejaVuSans-Bold-37" transform="translate(69.580078 0)"/>
     <use xlink:href="#DejaVuSans-Bold-33" transform="translate(139.160156 0)"/>
    </g>
   </g>
   <g id="text_26">
    <!-- Erdős Problems Progress -->
    <g style="fill: #c9d1d9" transform="translate(349.588281 18.397812) scale(0.14 -0.14)">
     <defs>
      <path id="DejaVuSans-Bold-45" d="M 588 4666 
L 3834 4666 
L 3834 3756 
L 1791 3756 
L 1791 2888 
L 3713 2888 
L 3713 1978 
L 1791 1978 
L 1791 909 
L 3903 909 
L 3903 0 
L 588 0 
L 588 4666 
z
" transform="scale(0.015625)"/>
      <path id="DejaVuSans-Bold-72" d="M 3138 2547 
Q 2991 2616 2845 2648 
Q 2700 2681 2553 2681 
Q 2122 2681 1889 2404 
Q 1656 2128 1656 1613 
L 1656 0 
L 538 0 
L 538 3500 
L 1656 3500 
L 1656 2925 
Q 1872 3269 2151 3426 
Q 2431 3584 2822 3584 
Q 2878 3584 2943 3579 
Q 3009 3575 3134 3559 
L 3138 2547 
z
" transform="scale(0.015625)"/>
      <path id="DejaVuSans-Bold-64" d="M 2919 2988 
L 2919 4863 
L 4044 4863 
L 4044 0 
L 2919 0 
L 2919 506 
Q 2688 197 2409 53 
Q 2131 -91 1766 -91 
Q 1119 -91 703 423 
Q 288 938 288 1747 
Q 288 2556 703 3070 
Q 1119 3584 1766 3584 
Q 2128 3584 2408 3439 
Q 2688 3294 2919 2988 
z
M 2181 722 
Q 2541 722 2730 984 
Q 2919 1247 2919 1747 
Q 2919 2247 2730 2509 
Q 2541 2772 2181 2772 
Q 1825 2772 1636 2509 
Q 1447 2247 1447 1747 
Q 1447 1247 1636 984 
Q 1825 722 2181 722 
z
" transform="scale(0.015625)"/>
      <path id="DejaVuSans-Bold-151" d="M 1881 5119 
L 2560 5119 
L 1785 3944 
L 1275 3944 
L 1881 5119 
z
M 3016 5119 
L 3738 5119 
L 2888 3944 
L 2344 3944 
L 3016 5119 
z
M 2203 2784 
Q 1831 2784 1636 2517 
Q 1441 2250 1441 1747 
Q 1441 1244 1636 976 
Q 1831 709 2203 709 
Q 2569 709 2762 976 
Q 2956 1244 2956 1747 
Q 2956 2250 2762 2517 
Q 2569 2784 2203 2784 
z
M 2203 3584 
Q 3106 3584 3614 3096 
Q 4122 2609 4122 1747 
Q 4122 884 3614 396 
Q 3106 -91 2203 -91 
Q 1297 -91 786 396 
Q 275 884 275 1747 
Q 275 2609 786 3096 
Q 1297 3584 2203 3584 
z
" transform="scale(0.015625)"/>
      <path id="DejaVuSans-Bold-73" d="M 3272 3391 
L 3272 2541 
Q 2913 2691 2578 2766 
Q 2244 2841 1947 2841 
Q 1628 2841 1473 2761 
Q 1319 2681 1319 2516 
Q 1319 2381 1436 2309 
Q 1553 2238 1856 2203 
L 2053 2175 
Q 2913 2066 3209 1816 
Q 3506 1566 3506 1031 
Q 3506 472 3093 190 
Q 2681 -91 1863 -91 
Q 1516 -91 1145 -36 
Q 775 19 384 128 
L 384 978 
Q 719 816 1070 734 
Q 1422 653 1784 653 
Q 2113 653 2278 743 
Q 2444 834 2444 1013 
Q 2444 1163 2330 1236 
Q 2216 1309 1875 1350 
L 1678 1375 
Q 931 1469 631 1722 
Q 331 1975 331 2491 
Q 331 3047 712 3315 
Q 1094 3584 1881 3584 
Q 2191 3584 2531 3537 
Q 2872 3491 3272 3391 
z
" transform="scale(0.015625)"/>
      <path id="DejaVuSans-Bold-20" transform="scale(0.015625)"/>
      <path id="DejaVuSans-Bold-50" d="M 588 4666 
L 2584 4666 
Q 3475 4666 3951 4270 
Q 4428 3875 4428 3144 
Q 4428 2409 3951 2014 
Q 3475 1619 2584 1619 
L 1791 1619 
L 1791 0 
L 588 0 
L 588 4666 
z
M 1791 3794 
L 1791 2491 
L 2456 2491 
Q 2806 2491 2997 2661 
Q 3188 2831 3188 3144 
Q 3188 3456 2997 3625 
Q 2806 3794 2456 3794 
L 1791 3794 
z
" transform="scale(0.015625)"/>
      <path id="DejaVuSans-Bold-6f" d="M 2203 2784 
Q 1831 2784 1636 2517 
Q 1441 2250 1441 1747 
Q 1441 1244 1636 976 
Q 1831 709 2203 709 
Q 2569 709 2762 976 
Q 2956 1244 2956 1747 
Q 2956 2250 2762 2517 
Q 2569 2784 2203 2784 
z
M 2203 3584 
Q 3106 3584 3614 3096 
Q 4122 2609 4122 1747 
Q 4122 884 3614 396 
Q 3106 -91 2203 -91 
Q 1297 -91 786 396 
Q 275 884 275 1747 
Q 275 2609 786 3096 
Q 1297 3584 2203 3584 
z
" transform="scale(0.015625)"/>
      <path id="DejaVuSans-Bold-62" d="M 2400 722 
Q 2759 722 2948 984 
Q 3138 1247 3138 1747 
Q 3138 2247 2948 2509 
Q 2759 2772 2400 2772 
Q 2041 2772 1848 2508 
Q 1656 2244 1656 1747 
Q 1656 1250 1848 986 
Q 2041 722 2400 722 
z
M 1656 2988 
Q 1888 3294 2169 3439 
Q 2450 3584 2816 3584 
Q 3463 3584 3878 3070 
Q 4294 2556 4294 1747 
Q 4294 938 3878 423 
Q 3463 -91 2816 -91 
Q 2450 -91 2169 54 
Q 1888 200 1656 506 
L 1656 0 
L 538 0 
L 538 4863 
L 1656 4863 
L 1656 2988 
z
" transform="scale(0.015625)"/>
      <path id="DejaVuSans-Bold-6c" d="M 538 4863 
L 1656 4863 
L 1656 0 
L 538 0 
L 538 4863 
z
" transform="scale(0.015625)"/>
      <path id="DejaVuSans-Bold-65" d="M 4031 1759 
L 4031 1441 
L 1416 1441 
Q 1456 1047 1700 850 
Q 1944 653 2381 653 
Q 2734 653 3104 758 
Q 3475 863 3866 1075 
L 3866 213 
Q 3469 63 3072 -14 
Q 2675 -91 2278 -91 
Q 1328 -91 801 392 
Q 275 875 275 1747 
Q 275 2603 792 3093 
Q 1309 3584 2216 3584 
Q 3041 3584 3536 3087 
Q 4031 2591 4031 1759 
z
M 2881 2131 
Q 2881 2450 2695 2645 
Q 2509 2841 2209 2841 
Q 1884 2841 1681 2658 
Q 1478 2475 1428 2131 
L 2881 2131 
z
" transform="scale(0.015625)"/>
      <path id="DejaVuSans-Bold-6d" d="M 3781 2919 
Q 3994 3244 4286 3414 
Q 4578 3584 4928 3584 
Q 5531 3584 5847 3212 
Q 6163 2841 6163 2131 
L 6163 0 
L 5038 0 
L 5038 1825 
Q 5041 1866 5042 1909 
Q 5044 1953 5044 2034 
Q 5044 2406 4934 2573 
Q 4825 2741 4581 2741 
Q 4263 2741 4089 2478 
Q 3916 2216 3909 1719 
L 3909 0 
L 2784 0 
L 2784 1825 
Q 2784 2406 2684 2573 
Q 2584 2741 2328 2741 
Q 2006 2741 1831 2477 
Q 1656 2213 1656 1722 
L 1656 0 
L 531 0 
L 531 3500 
L 1656 3500 
L 1656 2988 
Q 1863 3284 2130 3434 
Q 2397 3584 2719 3584 
Q 3081 3584 3359 3409 
Q 3638 3234 3781 2919 
z
" transform="scale(0.015625)"/>
      <path id="DejaVuSans-Bold-67" d="M 2919 594 
Q 2688 288 2409 144 
Q 2131 0 1766 0 
Q 1125 0 706 504 
Q 288 1009 288 1791 
Q 288 2575 706 3076 
Q 1125 3578 1766 3578 
Q 2131 3578 2409 3434 
Q 2688 3291 2919 2981 
L 2919 3500 
L 4044 3500 
L 4044 353 
Q 4044 -491 3511 -936 
Q 2978 -1381 1966 -1381 
Q 1638 -1381 1331 -1331 
Q 1025 -1281 716 -1178 
L 716 -306 
Q 1009 -475 1290 -558 
Q 1572 -641 1856 -641 
Q 2406 -641 2662 -400 
Q 2919 -159 2919 353 
L 2919 594 
z
M 2181 2772 
Q 1834 2772 1640 2515 
Q 1447 2259 1447 1791 
Q 1447 1309 1634 1061 
Q 1822 813 2181 813 
Q 2531 813 2725 1069 
Q 2919 1325 2919 1791 
Q 2919 2259 2725 2515 
Q 2531 2772 2181 2772 
z
" transform="scale(0.015625)"/>
     </defs>
     <use xlink:href="#DejaVuSans-Bold-45"/>
     <use xlink:href="#DejaVuSans-Bold-72" transform="translate(68.310547 0)"/>
     <use xlink:href="#DejaVuSans-Bold-64" transform="translate(117.626953 0)"/>
     <use xlink:href="#DejaVuSans-Bold-151" transform="translate(189.208984 0)"/>
     <use xlink:href="#DejaVuSans-Bold-73" transform="translate(257.910156 0)"/>
     <use xlink:href="#DejaVuSans-Bold-20" transform="translate(317.431641 0)"/>
     <use xlink:href="#DejaVuSans-Bold-50" transform="translate(352.246094 0)"/>
     <use xlink:href="#DejaVuSans-Bold-72" transform="translate(425.537109 0)"/>
     <use xlink:href="#DejaVuSans-Bold-6f" transform="translate(474.853516 0)"/>
     <use xlink:href="#DejaVuSans-Bold-62" transform="translate(543.554688 0)"/>
     <use xlink:href="#DejaVuSans-Bold-6c" transform="translate(615.136719 0)"/>
     <use xlink:href="#DejaVuSans-Bold-65" transform="translate(649.414062 0)"/>
     <use xlink:href="#DejaVuSans-Bold-6d" transform="translate(717.236328 0)"/>
     <use xlink:href="#DejaVuSans-Bold-73" transform="translate(821.435547 0)"/>
     <use xlink:href="#DejaVuSans-Bold-20" transform="translate(880.957031 0)"/>
     <use xlink:href="#DejaVuSans-Bold-50" transform="translate(915.771484 0)"/>
     <use xlink:href="#DejaVuSans-Bold-72" transform="translate(989.0625 0)"/>
     <use xlink:href="#DejaVuSans-Bold-6f" transform="translate(1038.378906 0)"/>
     <use xlink:href="#DejaVuSans-Bold-67" transform="translate(1107.080078 0)"/>
     <use xlink:href="#DejaVuSans-Bold-72" transform="translate(1178.662109 0)"/>
     <use xlink:href="#DejaVuSans-Bold-65" transform="translate(1227.978516 0)"/>
     <use xlink:href="#DejaVuSans-Bold-73" transform="translate(1295.800781 0)"/>
     <use xlink:href="#DejaVuSans-Bold-73" transform="translate(1355.322266 0)"/>
    </g>
   </g>
   <g id="legend_1">
    <g id="patch_7">
     <path d="M 55.90125 119.788437 
L 213.771563 119.788437 
Q 215.771563 119.788437 215.771563 117.788437 
L 215.771563 45.397812 
Q 215.771563 43.397812 213.771563 43.397812 
L 55.90125 43.397812 
Q 53.90125 43.397812 53.90125 45.397812 
L 53.90125 117.788437 
Q 53.90125 119.788437 55.90125 119.788437 
z
" style="fill: #161b22; opacity: 0.8; stroke: #30363d; stroke-linejoin: miter"/>
    </g>
    <g id="line2d_42">
     <path d="M 57.90125 51.49625 
L 67.90125 51.49625 
L 77.90125 51.49625 
" style="fill: none; stroke: #3fb950; stroke-width: 2; stroke-linecap: square"/>
    </g>
    <g id="text_27">
     <!-- Solved -->
     <g style="fill: #c9d1d9" transform="translate(85.90125 54.99625) scale(0.1 -0.1)">
      <defs>
       <path id="DejaVuSans-6c" d="M 603 4863 
L 1178 4863 
L 1178 0 
L 603 0 
L 603 4863 
z
" transform="scale(0.015625)"/>
       <path id="DejaVuSans-64" d="M 2906 2969 
L 2906 4863 
L 3481 4863 
L 3481 0 
L 2906 0 
L 2906 525 
Q 2725 213 2448 61 
Q 2172 -91 1784 -91 
Q 1150 -91 751 415 
Q 353 922 353 1747 
Q 353 2572 751 3078 
Q 1150 3584 1784 3584 
Q 2172 3584 2448 3432 
Q 2725 3281 2906 2969 
z
M 947 1747 
Q 947 1113 1208 752 
Q 1469 391 1925 391 
Q 2381 391 2643 752 
Q 2906 1113 2906 1747 
Q 2906 2381 2643 2742 
Q 2381 3103 1925 3103 
Q 1469 3103 1208 2742 
Q 947 2381 947 1747 
z
" transform="scale(0.015625)"/>
      </defs>
      <use xlink:href="#DejaVuSans-53"/>
      <use xlink:href="#DejaVuSans-6f" transform="translate(63.476562 0)"/>
      <use xlink:href="#DejaVuSans-6c" transform="translate(124.658203 0)"/>
      <use xlink:href="#DejaVuSans-76" transform="translate(152.441406 0)"/>
      <use xlink:href="#DejaVuSans-65" transform="translate(211.621094 0)"/>
      <use xlink:href="#DejaVuSans-64" transform="translate(273.144531 0)"/>
     </g>
    </g>
    <g id="line2d_43">
     <path d="M 57.90125 66.174375 
L 67.90125 66.174375 
L 77.90125 66.174375 
" style="fill: none; stroke: #58a6ff; stroke-width: 2; stroke-linecap: square"/>
    </g>
    <g id="text_28">
     <!-- Lean Formalized Problem -->
     <g style="fill: #c9d1d9" transform="translate(85.90125 69.674375) scale(0.1 -0.1)">
      <defs>
       <path id="DejaVuSans-4c" d="M 628 4666 
L 1259 4666 
L 1259 531 
L 3531 531 
L 3531 0 
L 628 0 
L 628 4666 
z
" transform="scale(0.015625)"/>
       <path id="DejaVuSans-20" transform="scale(0.015625)"/>
       <path id="DejaVuSans-6d" d="M 3328 2828 
Q 3544 3216 3844 3400 
Q 4144 3584 4550 3584 
Q 5097 3584 5394 3201 
Q 5691 2819 5691 2113 
L 5691 0 
L 5113 0 
L 5113 2094 
Q 5113 2597 4934 2840 
Q 4756 3084 4391 3084 
Q 3944 3084 3684 2787 
Q 3425 2491 3425 1978 
L 3425 0 
L 2847 0 
L 2847 2094 
Q 2847 2600 2669 2842 
Q 2491 3084 2119 3084 
Q 1678 3084 1418 2786 
Q 1159 2488 1159 1978 
L 1159 0 
L 581 0 
L 581 3500 
L 1159 3500 
L 1159 2956 
Q 1356 3278 1631 3431 
Q 1906 3584 2284 3584 
Q 2666 3584 2933 3390 
Q 3200 3197 3328 2828 
z
" transform="scale(0.015625)"/>
       <path id="DejaVuSans-69" d="M 603 3500 
L 1178 3500 
L 1178 0 
L 603 0 
L 603 3500 
z
M 603 4863 
L 1178 4863 
L 1178 4134 
L 603 4134 
L 603 4863 
z
" transform="scale(0.015625)"/>
       <path id="DejaVuSans-7a" d="M 353 3500 
L 3084 3500 
L 3084 2975 
L 922 459 
L 3084 459 
L 3084 0 
L 275 0 
L 275 525 
L 2438 3041 
L 353 3041 
L 353 3500 
z
" transform="scale(0.015625)"/>
       <path id="DejaVuSans-50" d="M 1259 4147 
L 1259 2394 
L 2053 2394 
Q 2494 2394 2734 2622 
Q 2975 2850 2975 3272 
Q 2975 3691 2734 3919 
Q 2494 4147 2053 4147 
L 1259 4147 
z
M 628 4666 
L 2053 4666 
Q 2838 4666 3239 4311 
Q 3641 3956 3641 3272 
Q 3641 2581 3239 2228 
Q 2838 1875 2053 1875 
L 1259 1875 
L 1259 0 
L 628 0 
L 628 4666 
z
" transform="scale(0.015625)"/>
      </defs>
      <use xlink:href="#DejaVuSans-4c"/>
      <use xlink:href="#DejaVuSans-65" transform="translate(53.962891 0)"/>
      <use xlink:href="#DejaVuSans-61" transform="translate(115.486328 0)"/>
      <use xlink:href="#DejaVuSans-6e" transform="translate(176.765625 0)"/>
      <use xlink:href="#DejaVuSans-20" transform="translate(240.144531 0)"/>
      <use xlink:href="#DejaVuSans-46" transform="translate(271.931641 0)"/>
      <use xlink:href="#DejaVuSans-6f" transform="translate(325.826172 0)"/>
      <use xlink:href="#DejaVuSans-72" transform="translate(387.007812 0)"/>
      <use xlink:href="#DejaVuSans-6d" transform="translate(426.371094 0)"/>
      <use xlink:href="#DejaVuSans-61" transform="translate(523.783203 0)"/>
      <use xlink:href="#DejaVuSans-6c" transform="translate(585.0625 0)"/>
      <use xlink:href="#DejaVuSans-69" transform="translate(612.845703 0)"/>
      <use xlink:href="#DejaVuSans-7a" transform="translate(640.628906 0)"/>
      <use xlink:href="#DejaVuSans-65" transform="translate(693.119141 0)"/>
      <use xlink:href="#DejaVuSans-64" transform="translate(754.642578 0)"/>
      <use xlink:href="#DejaVuSans-20" transform="translate(818.119141 0)"/>
      <use xlink:href="#DejaVuSans-50" transform="translate(849.90625 0)"/>
      <use xlink:href="#DejaVuSans-72" transform="translate(908.458984 0)"/>
      <use xlink:href="#DejaVuSans-6f" transform="translate(947.322266 0)"/>
      <use xlink:href="#DejaVuSans-62" transform="translate(1008.503906 0)"/>
      <use xlink:href="#DejaVuSans-6c" transform="translate(1071.980469 0)"/>
      <use xlink:href="#DejaVuSans-65" transform="translate(1099.763672 0)"/>
      <use xlink:href="#DejaVuSans-6d" transform="translate(1161.287109 0)"/>
     </g>
    </g>
    <g id="line2d_44">
     <path d="M 57.90125 80.8525 
L 67.90125 80.8525 
L 77.90125 80.8525 
" style="fill: none; stroke: #d29922; stroke-width: 2; stroke-linecap: square"/>
    </g>
    <g id="text_29">
     <!-- Lean Formalized Solution -->
     <g style="fill: #c9d1d9" transform="translate(85.90125 84.3525) scale(0.1 -0.1)">
      <use xlink:href="#DejaVuSans-4c"/>
      <use xlink:href="#DejaVuSans-65" transform="translate(53.962891 0)"/>
      <use xlink:href="#DejaVuSans-61" transform="translate(115.486328 0)"/>
      <use xlink:href="#DejaVuSans-6e" transform="translate(176.765625 0)"/>
      <use xlink:href="#DejaVuSans-20" transform="translate(240.144531 0)"/>
      <use xlink:href="#DejaVuSans-46" transform="translate(271.931641 0)"/>
      <use xlink:href="#DejaVuSans-6f" transform="translate(325.826172 0)"/>
      <use xlink:href="#DejaVuSans-72" transform="translate(387.007812 0)"/>
      <use xlink:href="#DejaVuSans-6d" transform="translate(426.371094 0)"/>
      <use xlink:href="#DejaVuSans-61" transform="translate(523.783203 0)"/>
      <use xlink:href="#DejaVuSans-6c" transform="translate(585.0625 0)"/>
      <use xlink:href="#DejaVuSans-69" transform="translate(612.845703 0)"/>
      <use xlink:href="#DejaVuSans-7a" transform="translate(640.628906 0)"/>
      <use xlink:href="#DejaVuSans-65" transform="translate(693.119141 0)"/>
      <use xlink:href="#DejaVuSans-64" transform="translate(754.642578 0)"/>
      <use xlink:href="#DejaVuSans-20" transform="translate(818.119141 0)"/>
      <use xlink:href="#DejaVuSans-53" transform="translate(849.90625 0)"/>
      <use xlink:href="#DejaVuSans-6f" transform="translate(913.382812 0)"/>
      <use xlink:href="#DejaVuSans-6c" transform="translate(974.564453 0)"/>
      <use xlink:href="#DejaVuSans-75" transform="translate(1002.347656 0)"/>
      <use xlink:href="#DejaVuSans-74" transform="translate(1065.726562 0)"/>
      <use xlink:href="#DejaVuSans-69" transform="translate(1104.935547 0)"/>
      <use xlink:href="#DejaVuSans-6f" transform="translate(1132.71875 0)"/>
      <use xlink:href="#DejaVuSans-6e" transform="translate(1193.900391 0)"/>
     </g>
    </g>
    <g id="line2d_45">
     <path d="M 57.90125 95.530625 
L 67.90125 95.530625 
L 77.90125 95.530625 
" style="fill: none; stroke: #f85149; stroke-width: 2; stroke-linecap: square"/>
    </g>
    <g id="text_30">
     <!-- OEIS Linked -->
     <g style="fill: #c9d1d9" transform="translate(85.90125 99.030625) scale(0.1 -0.1)">
      <defs>
       <path id="DejaVuSans-45" d="M 628 4666 
L 3578 4666 
L 3578 4134 
L 1259 4134 
L 1259 2753 
L 3481 2753 
L 3481 2222 
L 1259 2222 
L 1259 531 
L 3634 531 
L 3634 0 
L 628 0 
L 628 4666 
z
" transform="scale(0.015625)"/>
       <path id="DejaVuSans-49" d="M 628 4666 
L 1259 4666 
L 1259 0 
L 628 0 
L 628 4666 
z
" transform="scale(0.015625)"/>
       <path id="DejaVuSans-6b" d="M 581 4863 
L 1159 4863 
L 1159 1991 
L 2875 3500 
L 3609 3500 
L 1753 1863 
L 3688 0 
L 2938 0 
L 1159 1709 
L 1159 0 
L 581 0 
L 581 4863 
z
" transform="scale(0.015625)"/>
      </defs>
      <use xlink:href="#DejaVuSans-4f"/>
      <use xlink:href="#DejaVuSans-45" transform="translate(78.710938 0)"/>
      <use xlink:href="#DejaVuSans-49" transform="translate(141.894531 0)"/>
      <use xlink:href="#DejaVuSans-53" transform="translate(171.386719 0)"/>
      <use xlink:href="#DejaVuSans-20" transform="translate(234.863281 0)"/>
      <use xlink:href="#DejaVuSans-4c" transform="translate(266.650391 0)"/>
      <use xlink:href="#DejaVuSans-69" transform="translate(322.363281 0)"/>
      <use xlink:href="#DejaVuSans-6e" transform="translate(350.146484 0)"/>
      <use xlink:href="#DejaVuSans-6b" transform="translate(413.525391 0)"/>
      <use xlink:href="#DejaVuSans-65" transform="translate(467.810547 0)"/>
      <use xlink:href="#DejaVuSans-64" transform="translate(529.333984 0)"/>
     </g>
    </g>
    <g id="line2d_46">
     <path d="M 57.90125 110.20875 
L 67.90125 110.20875 
L 77.90125 110.20875 
" style="fill: none; stroke: #9467bd; stroke-width: 2; stroke-linecap: square"/>
    </g>
    <g id="text_31">
     <!-- Open Problems -->
     <g style="fill: #c9d1d9" transform="translate(85.90125 113.70875) scale(0.1 -0.1)">
      <defs>
       <path id="DejaVuSans-73" d="M 2834 3397 
L 2834 2853 
Q 2591 2978 2328 3040 
Q 2066 3103 1784 3103 
Q 1356 3103 1142 2972 
Q 928 2841 928 2578 
Q 928 2378 1081 2264 
Q 1234 2150 1697 2047 
L 1894 2003 
Q 2506 1872 2764 1633 
Q 3022 1394 3022 966 
Q 3022 478 2636 193 
Q 2250 -91 1575 -91 
Q 1294 -91 989 -36 
Q 684 19 347 128 
L 347 722 
Q 666 556 975 473 
Q 1284 391 1588 391 
Q 1994 391 2212 530 
Q 2431 669 2431 922 
Q 2431 1156 2273 1281 
Q 2116 1406 1581 1522 
L 1381 1569 
Q 847 1681 609 1914 
Q 372 2147 372 2553 
Q 372 3047 722 3315 
Q 1072 3584 1716 3584 
Q 2034 3584 2315 3537 
Q 2597 3491 2834 3397 
z
" transform="scale(0.015625)"/>
      </defs>
      <use xlink:href="#DejaVuSans-4f"/>
      <use xlink:href="#DejaVuSans-70" transform="translate(78.710938 0)"/>
      <use xlink:href="#DejaVuSans-65" transform="translate(142.1875 0)"/>
      <use xlink:href="#DejaVuSans-6e" transform="translate(203.710938 0)"/>
      <use xlink:href="#DejaVuSans-20" transform="translate(267.089844 0)"/>
      <use xlink:href="#DejaVuSans-50" transform="translate(298.876953 0)"/>
      <use xlink:href="#DejaVuSans-72" transform="translate(357.429688 0)"/>
      <use xlink:href="#DejaVuSans-6f" transform="translate(396.292969 0)"/>
      <use xlink:href="#DejaVuSans-62" transform="translate(457.474609 0)"/>
      <use xlink:href="#DejaVuSans-6c" transform="translate(520.951172 0)"/>
      <use xlink:href="#DejaVuSans-65" transform="translate(548.734375 0)"/>
      <use xlink:href="#DejaVuSans-6d" transform="translate(610.257812 0)"/>
      <use xlink:href="#DejaVuSans-73" transform="translate(707.669922 0)"/>
     </g>
    </g>
   </g>
  </g>
 </g>
 <defs>
  <clipPath id="p58e8c48939">
   <rect x="48.90125" y="38.397812" width="799.45" height="416.84"/>
  </clipPath>
 </defs>
</svg>
