<?xml version="1.0" encoding="utf-8" standalone="no"?>
<!DOCTYPE svg PUBLIC "-//W3C//DTD SVG 1.1//EN"
  "http://www.w3.org/Graphics/SVG/1.1/DTD/svg11.dtd">
<svg xmlns:xlink="http://www.w3.org/1999/xlink" width="855.55125pt" height="494.729687pt" viewBox="0 0 855.55125 494.729687" xmlns="http://www.w3.org/2000/svg" version="1.1">
 <metadata>
  <rdf:RDF xmlns:dc="http://purl.org/dc/elements/1.1/" xmlns:cc="http://creativecommons.org/ns#" xmlns:rdf="http://www.w3.org/1999/02/22-rdf-syntax-ns#">
   <cc:Work>
    <dc:type rdf:resource="http://purl.org/dc/dcmitype/StillImage"/>
    <dc:date>2026-02-23T01:10:33.314996</dc:date>
    <dc:format>image/svg+xml</dc:format>
    <dc:creator>
     <cc:Agent>
      <dc:title>Matplotlib v3.10.7, https://matplotlib.org/</dc:title>
     </cc:Agent>
    </dc:creator>
   </cc:Work>
  </rdf:RDF>
 </metadata>
 <defs>
  <style type="text/css">*{stroke-linejoin: round; stroke-linecap: butt}</style>
 </defs>
 <g id="figure_1">
  <g id="patch_1">
   <path d="M 0 494.729687 
L 855.55125 494.729687 
L 855.55125 0 
L 0 0 
z
" style="fill: #0d1117"/>
  </g>
  <g id="axes_1">
   <g id="patch_2">
    <path d="M 48.90125 455.237812 
L 848.35125 455.237812 
L 848.35125 38.397812 
L 48.90125 38.397812 
z
" style="fill: #0d1117"/>
   </g>
   <g id="matplotlib.axis_1">
    <g id="xtick_1">
     <g id="line2d_1">
      <path d="M 86.451599 455.237812 
L 86.451599 38.397812 
" clip-path="url(#pbd9e6e53e9)" style="fill: none; stroke: #30363d; stroke-opacity: 0.25; stroke-width: 0.5; stroke-linecap: square"/>
     </g>
     <g id="line2d_2">
      <defs>
       <path id="m7d7c135b60" d="M 0 0 
L 0 3.5 
" style="stroke: #c9d1d9; stroke-width: 0.8"/>
      </defs>
      <g>
       <use xlink:href="#m7d7c135b60" x="86.451599" y="455.237812" style="fill: #c9d1d9; stroke: #c9d1d9; stroke-width: 0.8"/>
      </g>
     </g>
     <g id="text_1">
      <!-- Sep -->
      <g style="fill: #c9d1d9" transform="translate(77.026599 469.83625) scale(0.1 -0.1)">
       <defs>
        <path id="DejaVuSans-53" d="M 3425 4513 
L 3425 3897 
Q 3066 4069 2747 4153 
Q 2428 4238 2131 4238 
Q 1616 4238 1336 4038 
Q 1056 3838 1056 3469 
Q 1056 3159 1242 3001 
Q 1428 2844 1947 2747 
L 2328 2669 
Q 3034 2534 3370 2195 
Q 3706 1856 3706 1288 
Q 3706 609 3251 259 
Q 2797 -91 1919 -91 
Q 1588 -91 1214 -16 
Q 841 59 441 206 
L 441 856 
Q 825 641 1194 531 
Q 1563 422 1919 422 
Q 2459 422 2753 634 
Q 3047 847 3047 1241 
Q 3047 1584 2836 1778 
Q 2625 1972 2144 2069 
L 1759 2144 
Q 1053 2284 737 2584 
Q 422 2884 422 3419 
Q 422 4038 858 4394 
Q 1294 4750 2059 4750 
Q 2388 4750 2728 4690 
Q 3069 4631 3425 4513 
z
" transform="scale(0.015625)"/>
        <path id="DejaVuSans-65" d="M 3597 1894 
L 3597 1613 
L 953 1613 
Q 991 1019 1311 708 
Q 1631 397 2203 397 
Q 2534 397 2845 478 
Q 3156 559 3463 722 
L 3463 178 
Q 3153 47 2828 -22 
Q 2503 -91 2169 -91 
Q 1331 -91 842 396 
Q 353 884 353 1716 
Q 353 2575 817 3079 
Q 1281 3584 2069 3584 
Q 2775 3584 3186 3129 
Q 3597 2675 3597 1894 
z
M 3022 2063 
Q 3016 2534 2758 2815 
Q 2500 3097 2075 3097 
Q 1594 3097 1305 2825 
Q 1016 2553 972 2059 
L 3022 2063 
z
" transform="scale(0.015625)"/>
        <path id="DejaVuSans-70" d="M 1159 525 
L 1159 -1331 
L 581 -1331 
L 581 3500 
L 1159 3500 
L 1159 2969 
Q 1341 3281 1617 3432 
Q 1894 3584 2278 3584 
Q 2916 3584 3314 3078 
Q 3713 2572 3713 1747 
Q 3713 922 3314 415 
Q 2916 -91 2278 -91 
Q 1894 -91 1617 61 
Q 1341 213 1159 525 
z
M 3116 1747 
Q 3116 2381 2855 2742 
Q 2594 3103 2138 3103 
Q 1681 3103 1420 2742 
Q 1159 2381 1159 1747 
Q 1159 1113 1420 752 
Q 1681 391 2138 391 
Q 2594 391 2855 752 
Q 3116 1113 3116 1747 
z
" transform="scale(0.015625)"/>
       </defs>
       <use xlink:href="#DejaVuSans-53"/>
       <use xlink:href="#DejaVuSans-65" transform="translate(63.476562 0)"/>
       <use xlink:href="#DejaVuSans-70" transform="translate(125 0)"/>
      </g>
     </g>
    </g>
    <g id="xtick_2">
     <g id="line2d_3">
      <path d="M 210.798683 455.237812 
L 210.798683 38.397812 
" clip-path="url(#pbd9e6e53e9)" style="fill: none; stroke: #30363d; stroke-opacity: 0.25; stroke-width: 0.5; stroke-linecap: square"/>
     </g>
     <g id="line2d_4">
      <g>
       <use xlink:href="#m7d7c135b60" x="210.798683" y="455.237812" style="fill: #c9d1d9; stroke: #c9d1d9; stroke-width: 0.8"/>
      </g>
     </g>
     <g id="text_2">
      <!-- Oct -->
      <g style="fill: #c9d1d9" transform="translate(202.153371 469.83625) scale(0.1 -0.1)">
       <defs>
        <path id="DejaVuSans-4f" d="M 2522 4238 
Q 1834 4238 1429 3725 
Q 1025 3213 1025 2328 
Q 1025 1447 1429 934 
Q 1834 422 2522 422 
Q 3209 422 3611 934 
Q 4013 1447 4013 2328 
Q 4013 3213 3611 3725 
Q 3209 4238 2522 4238 
z
M 2522 4750 
Q 3503 4750 4090 4092 
Q 4678 3434 4678 2328 
Q 4678 1225 4090 567 
Q 3503 -91 2522 -91 
Q 1538 -91 948 565 
Q 359 1222 359 2328 
Q 359 3434 948 4092 
Q 1538 4750 2522 4750 
z
" transform="scale(0.015625)"/>
        <path id="DejaVuSans-63" d="M 3122 3366 
L 3122 2828 
Q 2878 2963 2633 3030 
Q 2388 3097 2138 3097 
Q 1578 3097 1268 2742 
Q 959 2388 959 1747 
Q 959 1106 1268 751 
Q 1578 397 2138 397 
Q 2388 397 2633 464 
Q 2878 531 3122 666 
L 3122 134 
Q 2881 22 2623 -34 
Q 2366 -91 2075 -91 
Q 1284 -91 818 406 
Q 353 903 353 1747 
Q 353 2603 823 3093 
Q 1294 3584 2113 3584 
Q 2378 3584 2631 3529 
Q 2884 3475 3122 3366 
z
" transform="scale(0.015625)"/>
        <path id="DejaVuSans-74" d="M 1172 4494 
L 1172 3500 
L 2356 3500 
L 2356 3053 
L 1172 3053 
L 1172 1153 
Q 1172 725 1289 603 
Q 1406 481 1766 481 
L 2356 481 
L 2356 0 
L 1766 0 
Q 1100 0 847 248 
Q 594 497 594 1153 
L 594 3053 
L 172 3053 
L 172 3500 
L 594 3500 
L 594 4494 
L 1172 4494 
z
" transform="scale(0.015625)"/>
       </defs>
       <use xlink:href="#DejaVuSans-4f"/>
       <use xlink:href="#DejaVuSans-63" transform="translate(78.710938 0)"/>
       <use xlink:href="#DejaVuSans-74" transform="translate(133.691406 0)"/>
      </g>
     </g>
    </g>
    <g id="xtick_3">
     <g id="line2d_5">
      <path d="M 339.29067 455.237812 
L 339.29067 38.397812 
" clip-path="url(#pbd9e6e53e9)" style="fill: none; stroke: #30363d; stroke-opacity: 0.25; stroke-width: 0.5; stroke-linecap: square"/>
     </g>
     <g id="line2d_6">
      <g>
       <use xlink:href="#m7d7c135b60" x="339.29067" y="455.237812" style="fill: #c9d1d9; stroke: #c9d1d9; stroke-width: 0.8"/>
      </g>
     </g>
     <g id="text_3">
      <!-- Nov -->
      <g style="fill: #c9d1d9" transform="translate(329.531295 469.83625) scale(0.1 -0.1)">
       <defs>
        <path id="DejaVuSans-4e" d="M 628 4666 
L 1478 4666 
L 3547 763 
L 3547 4666 
L 4159 4666 
L 4159 0 
L 3309 0 
L 1241 3903 
L 1241 0 
L 628 0 
L 628 4666 
z
" transform="scale(0.015625)"/>
        <path id="DejaVuSans-6f" d="M 1959 3097 
Q 1497 3097 1228 2736 
Q 959 2375 959 1747 
Q 959 1119 1226 758 
Q 1494 397 1959 397 
Q 2419 397 2687 759 
Q 2956 1122 2956 1747 
Q 2956 2369 2687 2733 
Q 2419 3097 1959 3097 
z
M 1959 3584 
Q 2709 3584 3137 3096 
Q 3566 2609 3566 1747 
Q 3566 888 3137 398 
Q 2709 -91 1959 -91 
Q 1206 -91 779 398 
Q 353 888 353 1747 
Q 353 2609 779 3096 
Q 1206 3584 1959 3584 
z
" transform="scale(0.015625)"/>
        <path id="DejaVuSans-76" d="M 191 3500 
L 800 3500 
L 1894 563 
L 2988 3500 
L 3597 3500 
L 2284 0 
L 1503 0 
L 191 3500 
z
" transform="scale(0.015625)"/>
       </defs>
       <use xlink:href="#DejaVuSans-4e"/>
       <use xlink:href="#DejaVuSans-6f" transform="translate(74.804688 0)"/>
       <use xlink:href="#DejaVuSans-76" transform="translate(135.986328 0)"/>
      </g>
     </g>
    </g>
    <g id="xtick_4">
     <g id="line2d_7">
      <path d="M 463.637754 455.237812 
L 463.637754 38.397812 
" clip-path="url(#pbd9e6e53e9)" style="fill: none; stroke: #30363d; stroke-opacity: 0.25; stroke-width: 0.5; stroke-linecap: square"/>
     </g>
     <g id="line2d_8">
      <g>
       <use xlink:href="#m7d7c135b60" x="463.637754" y="455.237812" style="fill: #c9d1d9; stroke: #c9d1d9; stroke-width: 0.8"/>
      </g>
     </g>
     <g id="text_4">
      <!-- Dec -->
      <g style="fill: #c9d1d9" transform="translate(453.961973 469.83625) scale(0.1 -0.1)">
       <defs>
        <path id="DejaVuSans-44" d="M 1259 4147 
L 1259 519 
L 2022 519 
Q 2988 519 3436 956 
Q 3884 1394 3884 2338 
Q 3884 3275 3436 3711 
Q 2988 4147 2022 4147 
L 1259 4147 
z
M 628 4666 
L 1925 4666 
Q 3281 4666 3915 4102 
Q 4550 3538 4550 2338 
Q 4550 1131 3912 565 
Q 3275 0 1925 0 
L 628 0 
L 628 4666 
z
" transform="scale(0.015625)"/>
       </defs>
       <use xlink:href="#DejaVuSans-44"/>
       <use xlink:href="#DejaVuSans-65" transform="translate(77.001953 0)"/>
       <use xlink:href="#DejaVuSans-63" transform="translate(138.525391 0)"/>
      </g>
     </g>
    </g>
    <g id="xtick_5">
     <g id="line2d_9">
      <path d="M 592.129741 455.237812 
L 592.129741 38.397812 
" clip-path="url(#pbd9e6e53e9)" style="fill: none; stroke: #30363d; stroke-opacity: 0.25; stroke-width: 0.5; stroke-linecap: square"/>
     </g>
     <g id="line2d_10">
      <g>
       <use xlink:href="#m7d7c135b60" x="592.129741" y="455.237812" style="fill: #c9d1d9; stroke: #c9d1d9; stroke-width: 0.8"/>
      </g>
     </g>
     <g id="text_5">
      <!-- 2026 -->
      <g style="fill: #c9d1d9" transform="translate(579.404741 469.83625) scale(0.1 -0.1)">
       <defs>
        <path id="DejaVuSans-32" d="M 1228 531 
L 3431 531 
L 3431 0 
L 469 0 
L 469 531 
Q 828 903 1448 1529 
Q 2069 2156 2228 2338 
Q 2531 2678 2651 2914 
Q 2772 3150 2772 3378 
Q 2772 3750 2511 3984 
Q 2250 4219 1831 4219 
Q 1534 4219 1204 4116 
Q 875 4013 500 3803 
L 500 4441 
Q 881 4594 1212 4672 
Q 1544 4750 1819 4750 
Q 2544 4750 2975 4387 
Q 3406 4025 3406 3419 
Q 3406 3131 3298 2873 
Q 3191 2616 2906 2266 
Q 2828 2175 2409 1742 
Q 1991 1309 1228 531 
z
" transform="scale(0.015625)"/>
        <path id="DejaVuSans-30" d="M 2034 4250 
Q 1547 4250 1301 3770 
Q 1056 3291 1056 2328 
Q 1056 1369 1301 889 
Q 1547 409 2034 409 
Q 2525 409 2770 889 
Q 3016 1369 3016 2328 
Q 3016 3291 2770 3770 
Q 2525 4250 2034 4250 
z
M 2034 4750 
Q 2819 4750 3233 4129 
Q 3647 3509 3647 2328 
Q 3647 1150 3233 529 
Q 2819 -91 2034 -91 
Q 1250 -91 836 529 
Q 422 1150 422 2328 
Q 422 3509 836 4129 
Q 1250 4750 2034 4750 
z
" transform="scale(0.015625)"/>
        <path id="DejaVuSans-36" d="M 2113 2584 
Q 1688 2584 1439 2293 
Q 1191 2003 1191 1497 
Q 1191 994 1439 701 
Q 1688 409 2113 409 
Q 2538 409 2786 701 
Q 3034 994 3034 1497 
Q 3034 2003 2786 2293 
Q 2538 2584 2113 2584 
z
M 3366 4563 
L 3366 3988 
Q 3128 4100 2886 4159 
Q 2644 4219 2406 4219 
Q 1781 4219 1451 3797 
Q 1122 3375 1075 2522 
Q 1259 2794 1537 2939 
Q 1816 3084 2150 3084 
Q 2853 3084 3261 2657 
Q 3669 2231 3669 1497 
Q 3669 778 3244 343 
Q 2819 -91 2113 -91 
Q 1303 -91 875 529 
Q 447 1150 447 2328 
Q 447 3434 972 4092 
Q 1497 4750 2381 4750 
Q 2619 4750 2861 4703 
Q 3103 4656 3366 4563 
z
" transform="scale(0.015625)"/>
       </defs>
       <use xlink:href="#DejaVuSans-32"/>
       <use xlink:href="#DejaVuSans-30" transform="translate(63.623047 0)"/>
       <use xlink:href="#DejaVuSans-32" transform="translate(127.246094 0)"/>
       <use xlink:href="#DejaVuSans-36" transform="translate(190.869141 0)"/>
      </g>
     </g>
    </g>
    <g id="xtick_6">
     <g id="line2d_11">
      <path d="M 720.621728 455.237812 
L 720.621728 38.397812 
" clip-path="url(#pbd9e6e53e9)" style="fill: none; stroke: #30363d; stroke-opacity: 0.25; stroke-width: 0.5; stroke-linecap: square"/>
     </g>
     <g id="line2d_12">
      <g>
       <use xlink:href="#m7d7c135b60" x="720.621728" y="455.237812" style="fill: #c9d1d9; stroke: #c9d1d9; stroke-width: 0.8"/>
      </g>
     </g>
     <g id="text_6">
      <!-- Feb -->
      <g style="fill: #c9d1d9" transform="translate(711.770166 469.83625) scale(0.1 -0.1)">
       <defs>
        <path id="DejaVuSans-46" d="M 628 4666 
L 3309 4666 
L 3309 4134 
L 1259 4134 
L 1259 2759 
L 3109 2759 
L 3109 2228 
L 1259 2228 
L 1259 0 
L 628 0 
L 628 4666 
z
" transform="scale(0.015625)"/>
        <path id="DejaVuSans-62" d="M 3116 1747 
Q 3116 2381 2855 2742 
Q 2594 3103 2138 3103 
Q 1681 3103 1420 2742 
Q 1159 2381 1159 1747 
Q 1159 1113 1420 752 
Q 1681 391 2138 391 
Q 2594 391 2855 752 
Q 3116 1113 3116 1747 
z
M 1159 2969 
Q 1341 3281 1617 3432 
Q 1894 3584 2278 3584 
Q 2916 3584 3314 3078 
Q 3713 2572 3713 1747 
Q 3713 922 3314 415 
Q 2916 -91 2278 -91 
Q 1894 -91 1617 61 
Q 1341 213 1159 525 
L 1159 0 
L 581 0 
L 581 4863 
L 1159 4863 
L 1159 2969 
z
" transform="scale(0.015625)"/>
       </defs>
       <use xlink:href="#DejaVuSans-46"/>
       <use xlink:href="#DejaVuSans-65" transform="translate(52.019531 0)"/>
       <use xlink:href="#DejaVuSans-62" transform="translate(113.542969 0)"/>
      </g>
     </g>
    </g>
    <g id="xtick_7">
     <g id="line2d_13">
      <path d="M 836.679007 455.237812 
L 836.679007 38.397812 
" clip-path="url(#pbd9e6e53e9)" style="fill: none; stroke: #30363d; stroke-opacity: 0.25; stroke-width: 0.5; stroke-linecap: square"/>
     </g>
     <g id="line2d_14">
      <g>
       <use xlink:href="#m7d7c135b60" x="836.679007" y="455.237812" style="fill: #c9d1d9; stroke: #c9d1d9; stroke-width: 0.8"/>
      </g>
     </g>
     <g id="text_7">
      <!-- Mar -->
      <g style="fill: #c9d1d9" transform="translate(827.245413 469.83625) scale(0.1 -0.1)">
       <defs>
        <path id="DejaVuSans-4d" d="M 628 4666 
L 1569 4666 
L 2759 1491 
L 3956 4666 
L 4897 4666 
L 4897 0 
L 4281 0 
L 4281 4097 
L 3078 897 
L 2444 897 
L 1241 4097 
L 1241 0 
L 628 0 
L 628 4666 
z
" transform="scale(0.015625)"/>
        <path id="DejaVuSans-61" d="M 2194 1759 
Q 1497 1759 1228 1600 
Q 959 1441 959 1056 
Q 959 750 1161 570 
Q 1363 391 1709 391 
Q 2188 391 2477 730 
Q 2766 1069 2766 1631 
L 2766 1759 
L 2194 1759 
z
M 3341 1997 
L 3341 0 
L 2766 0 
L 2766 531 
Q 2569 213 2275 61 
Q 1981 -91 1556 -91 
Q 1019 -91 701 211 
Q 384 513 384 1019 
Q 384 1609 779 1909 
Q 1175 2209 1959 2209 
L 2766 2209 
L 2766 2266 
Q 2766 2663 2505 2880 
Q 2244 3097 1772 3097 
Q 1472 3097 1187 3025 
Q 903 2953 641 2809 
L 641 3341 
Q 956 3463 1253 3523 
Q 1550 3584 1831 3584 
Q 2591 3584 2966 3190 
Q 3341 2797 3341 1997 
z
" transform="scale(0.015625)"/>
        <path id="DejaVuSans-72" d="M 2631 2963 
Q 2534 3019 2420 3045 
Q 2306 3072 2169 3072 
Q 1681 3072 1420 2755 
Q 1159 2438 1159 1844 
L 1159 0 
L 581 0 
L 581 3500 
L 1159 3500 
L 1159 2956 
Q 1341 3275 1631 3429 
Q 1922 3584 2338 3584 
Q 2397 3584 2469 3576 
Q 2541 3569 2628 3553 
L 2631 2963 
z
" transform="scale(0.015625)"/>
       </defs>
       <use xlink:href="#DejaVuSans-4d"/>
       <use xlink:href="#DejaVuSans-61" transform="translate(86.279297 0)"/>
       <use xlink:href="#DejaVuSans-72" transform="translate(147.558594 0)"/>
      </g>
     </g>
    </g>
    <g id="text_8">
     <!-- Date -->
     <g style="fill: #c9d1d9" transform="translate(434.285313 485.034062) scale(0.12 -0.12)">
      <use xlink:href="#DejaVuSans-44"/>
      <use xlink:href="#DejaVuSans-61" transform="translate(77.001953 0)"/>
      <use xlink:href="#DejaVuSans-74" transform="translate(138.28125 0)"/>
      <use xlink:href="#DejaVuSans-65" transform="translate(177.490234 0)"/>
     </g>
    </g>
   </g>
   <g id="matplotlib.axis_2">
    <g id="ytick_1">
     <g id="line2d_15">
      <path d="M 48.90125 455.237812 
L 848.35125 455.237812 
" clip-path="url(#pbd9e6e53e9)" style="fill: none; stroke: #30363d; stroke-opacity: 0.25; stroke-width: 0.5; stroke-linecap: square"/>
     </g>
     <g id="line2d_16">
      <defs>
       <path id="ma659f26f6c" d="M 0 0 
L -3.5 0 
" style="stroke: #c9d1d9; stroke-width: 0.8"/>
      </defs>
      <g>
       <use xlink:href="#ma659f26f6c" x="48.90125" y="455.237812" style="fill: #c9d1d9; stroke: #c9d1d9; stroke-width: 0.8"/>
      </g>
     </g>
     <g id="text_9">
      <!-- 0 -->
      <g style="fill: #c9d1d9" transform="translate(35.53875 459.037031) scale(0.1 -0.1)">
       <use xlink:href="#DejaVuSans-30"/>
      </g>
     </g>
    </g>
    <g id="ytick_2">
     <g id="line2d_17">
      <path d="M 48.90125 399.659146 
L 848.35125 399.659146 
" clip-path="url(#pbd9e6e53e9)" style="fill: none; stroke: #30363d; stroke-opacity: 0.25; stroke-width: 0.5; stroke-linecap: square"/>
     </g>
     <g id="line2d_18">
      <g>
       <use xlink:href="#ma659f26f6c" x="48.90125" y="399.659146" style="fill: #c9d1d9; stroke: #c9d1d9; stroke-width: 0.8"/>
      </g>
     </g>
     <g id="text_10">
      <!-- 100 -->
      <g style="fill: #c9d1d9" transform="translate(22.81375 403.458365) scale(0.1 -0.1)">
       <defs>
        <path id="DejaVuSans-31" d="M 794 531 
L 1825 531 
L 1825 4091 
L 703 3866 
L 703 4441 
L 1819 4666 
L 2450 4666 
L 2450 531 
L 3481 531 
L 3481 0 
L 794 0 
L 794 531 
z
" transform="scale(0.015625)"/>
       </defs>
       <use xlink:href="#DejaVuSans-31"/>
       <use xlink:href="#DejaVuSans-30" transform="translate(63.623047 0)"/>
       <use xlink:href="#DejaVuSans-30" transform="translate(127.246094 0)"/>
      </g>
     </g>
    </g>
    <g id="ytick_3">
     <g id="line2d_19">
      <path d="M 48.90125 344.080479 
L 848.35125 344.080479 
" clip-path="url(#pbd9e6e53e9)" style="fill: none; stroke: #30363d; stroke-opacity: 0.25; stroke-width: 0.5; stroke-linecap: square"/>
     </g>
     <g id="line2d_20">
      <g>
       <use xlink:href="#ma659f26f6c" x="48.90125" y="344.080479" style="fill: #c9d1d9; stroke: #c9d1d9; stroke-width: 0.8"/>
      </g>
     </g>
     <g id="text_11">
      <!-- 200 -->
      <g style="fill: #c9d1d9" transform="translate(22.81375 347.879698) scale(0.1 -0.1)">
       <use xlink:href="#DejaVuSans-32"/>
       <use xlink:href="#DejaVuSans-30" transform="translate(63.623047 0)"/>
       <use xlink:href="#DejaVuSans-30" transform="translate(127.246094 0)"/>
      </g>
     </g>
    </g>
    <g id="ytick_4">
     <g id="line2d_21">
      <path d="M 48.90125 288.501812 
L 848.35125 288.501812 
" clip-path="url(#pbd9e6e53e9)" style="fill: none; stroke: #30363d; stroke-opacity: 0.25; stroke-width: 0.5; stroke-linecap: square"/>
     </g>
     <g id="line2d_22">
      <g>
       <use xlink:href="#ma659f26f6c" x="48.90125" y="288.501812" style="fill: #c9d1d9; stroke: #c9d1d9; stroke-width: 0.8"/>
      </g>
     </g>
     <g id="text_12">
      <!-- 300 -->
      <g style="fill: #c9d1d9" transform="translate(22.81375 292.301031) scale(0.1 -0.1)">
       <defs>
        <path id="DejaVuSans-33" d="M 2597 2516 
Q 3050 2419 3304 2112 
Q 3559 1806 3559 1356 
Q 3559 666 3084 287 
Q 2609 -91 1734 -91 
Q 1441 -91 1130 -33 
Q 819 25 488 141 
L 488 750 
Q 750 597 1062 519 
Q 1375 441 1716 441 
Q 2309 441 2620 675 
Q 2931 909 2931 1356 
Q 2931 1769 2642 2001 
Q 2353 2234 1838 2234 
L 1294 2234 
L 1294 2753 
L 1863 2753 
Q 2328 2753 2575 2939 
Q 2822 3125 2822 3475 
Q 2822 3834 2567 4026 
Q 2313 4219 1838 4219 
Q 1578 4219 1281 4162 
Q 984 4106 628 3988 
L 628 4550 
Q 988 4650 1302 4700 
Q 1616 4750 1894 4750 
Q 2613 4750 3031 4423 
Q 3450 4097 3450 3541 
Q 3450 3153 3228 2886 
Q 3006 2619 2597 2516 
z
" transform="scale(0.015625)"/>
       </defs>
       <use xlink:href="#DejaVuSans-33"/>
       <use xlink:href="#DejaVuSans-30" transform="translate(63.623047 0)"/>
       <use xlink:href="#DejaVuSans-30" transform="translate(127.246094 0)"/>
      </g>
     </g>
    </g>
    <g id="ytick_5">
     <g id="line2d_23">
      <path d="M 48.90125 232.923146 
L 848.35125 232.923146 
" clip-path="url(#pbd9e6e53e9)" style="fill: none; stroke: #30363d; stroke-opacity: 0.25; stroke-width: 0.5; stroke-linecap: square"/>
     </g>
     <g id="line2d_24">
      <g>
       <use xlink:href="#ma659f26f6c" x="48.90125" y="232.923146" style="fill: #c9d1d9; stroke: #c9d1d9; stroke-width: 0.8"/>
      </g>
     </g>
     <g id="text_13">
      <!-- 400 -->
      <g style="fill: #c9d1d9" transform="translate(22.81375 236.722365) scale(0.1 -0.1)">
       <defs>
        <path id="DejaVuSans-34" d="M 2419 4116 
L 825 1625 
L 2419 1625 
L 2419 4116 
z
M 2253 4666 
L 3047 4666 
L 3047 1625 
L 3713 1625 
L 3713 1100 
L 3047 1100 
L 3047 0 
L 2419 0 
L 2419 1100 
L 313 1100 
L 313 1709 
L 2253 4666 
z
" transform="scale(0.015625)"/>
       </defs>
       <use xlink:href="#DejaVuSans-34"/>
       <use xlink:href="#DejaVuSans-30" transform="translate(63.623047 0)"/>
       <use xlink:href="#DejaVuSans-30" transform="translate(127.246094 0)"/>
      </g>
     </g>
    </g>
    <g id="ytick_6">
     <g id="line2d_25">
      <path d="M 48.90125 177.344479 
L 848.35125 177.344479 
" clip-path="url(#pbd9e6e53e9)" style="fill: none; stroke: #30363d; stroke-opacity: 0.25; stroke-width: 0.5; stroke-linecap: square"/>
     </g>
     <g id="line2d_26">
      <g>
       <use xlink:href="#ma659f26f6c" x="48.90125" y="177.344479" style="fill: #c9d1d9; stroke: #c9d1d9; stroke-width: 0.8"/>
      </g>
     </g>
     <g id="text_14">
      <!-- 500 -->
      <g style="fill: #c9d1d9" transform="translate(22.81375 181.143698) scale(0.1 -0.1)">
       <defs>
        <path id="DejaVuSans-35" d="M 691 4666 
L 3169 4666 
L 3169 4134 
L 1269 4134 
L 1269 2991 
Q 1406 3038 1543 3061 
Q 1681 3084 1819 3084 
Q 2600 3084 3056 2656 
Q 3513 2228 3513 1497 
Q 3513 744 3044 326 
Q 2575 -91 1722 -91 
Q 1428 -91 1123 -41 
Q 819 9 494 109 
L 494 744 
Q 775 591 1075 516 
Q 1375 441 1709 441 
Q 2250 441 2565 725 
Q 2881 1009 2881 1497 
Q 2881 1984 2565 2268 
Q 2250 2553 1709 2553 
Q 1456 2553 1204 2497 
Q 953 2441 691 2322 
L 691 4666 
z
" transform="scale(0.015625)"/>
       </defs>
       <use xlink:href="#DejaVuSans-35"/>
       <use xlink:href="#DejaVuSans-30" transform="translate(63.623047 0)"/>
       <use xlink:href="#DejaVuSans-30" transform="translate(127.246094 0)"/>
      </g>
     </g>
    </g>
    <g id="ytick_7">
     <g id="line2d_27">
      <path d="M 48.90125 121.765812 
L 848.35125 121.765812 
" clip-path="url(#pbd9e6e53e9)" style="fill: none; stroke: #30363d; stroke-opacity: 0.25; stroke-width: 0.5; stroke-linecap: square"/>
     </g>
     <g id="line2d_28">
      <g>
       <use xlink:href="#ma659f26f6c" x="48.90125" y="121.765812" style="fill: #c9d1d9; stroke: #c9d1d9; stroke-width: 0.8"/>
      </g>
     </g>
     <g id="text_15">
      <!-- 600 -->
      <g style="fill: #c9d1d9" transform="translate(22.81375 125.565031) scale(0.1 -0.1)">
       <use xlink:href="#DejaVuSans-36"/>
       <use xlink:href="#DejaVuSans-30" transform="translate(63.623047 0)"/>
       <use xlink:href="#DejaVuSans-30" transform="translate(127.246094 0)"/>
      </g>
     </g>
    </g>
    <g id="ytick_8">
     <g id="line2d_29">
      <path d="M 48.90125 66.187146 
L 848.35125 66.187146 
" clip-path="url(#pbd9e6e53e9)" style="fill: none; stroke: #30363d; stroke-opacity: 0.25; stroke-width: 0.5; stroke-linecap: square"/>
     </g>
     <g id="line2d_30">
      <g>
       <use xlink:href="#ma659f26f6c" x="48.90125" y="66.187146" style="fill: #c9d1d9; stroke: #c9d1d9; stroke-width: 0.8"/>
      </g>
     </g>
     <g id="text_16">
      <!-- 700 -->
      <g style="fill: #c9d1d9" transform="translate(22.81375 69.986365) scale(0.1 -0.1)">
       <defs>
        <path id="DejaVuSans-37" d="M 525 4666 
L 3525 4666 
L 3525 4397 
L 1831 0 
L 1172 0 
L 2766 4134 
L 525 4134 
L 525 4666 
z
" transform="scale(0.015625)"/>
       </defs>
       <use xlink:href="#DejaVuSans-37"/>
       <use xlink:href="#DejaVuSans-30" transform="translate(63.623047 0)"/>
       <use xlink:href="#DejaVuSans-30" transform="translate(127.246094 0)"/>
      </g>
     </g>
    </g>
    <g id="text_17">
     <!-- Count -->
     <g style="fill: #c9d1d9" transform="translate(16.318125 264.635937) rotate(-90) scale(0.12 -0.12)">
      <defs>
       <path id="DejaVuSans-43" d="M 4122 4306 
L 4122 3641 
Q 3803 3938 3442 4084 
Q 3081 4231 2675 4231 
Q 1875 4231 1450 3742 
Q 1025 3253 1025 2328 
Q 1025 1406 1450 917 
Q 1875 428 2675 428 
Q 3081 428 3442 575 
Q 3803 722 4122 1019 
L 4122 359 
Q 3791 134 3420 21 
Q 3050 -91 2638 -91 
Q 1578 -91 968 557 
Q 359 1206 359 2328 
Q 359 3453 968 4101 
Q 1578 4750 2638 4750 
Q 3056 4750 3426 4639 
Q 3797 4528 4122 4306 
z
" transform="scale(0.015625)"/>
       <path id="DejaVuSans-75" d="M 544 1381 
L 544 3500 
L 1119 3500 
L 1119 1403 
Q 1119 906 1312 657 
Q 1506 409 1894 409 
Q 2359 409 2629 706 
Q 2900 1003 2900 1516 
L 2900 3500 
L 3475 3500 
L 3475 0 
L 2900 0 
L 2900 538 
Q 2691 219 2414 64 
Q 2138 -91 1772 -91 
Q 1169 -91 856 284 
Q 544 659 544 1381 
z
M 1991 3584 
L 1991 3584 
z
" transform="scale(0.015625)"/>
       <path id="DejaVuSans-6e" d="M 3513 2113 
L 3513 0 
L 2938 0 
L 2938 2094 
Q 2938 2591 2744 2837 
Q 2550 3084 2163 3084 
Q 1697 3084 1428 2787 
Q 1159 2491 1159 1978 
L 1159 0 
L 581 0 
L 581 3500 
L 1159 3500 
L 1159 2956 
Q 1366 3272 1645 3428 
Q 1925 3584 2291 3584 
Q 2894 3584 3203 3211 
Q 3513 2838 3513 2113 
z
" transform="scale(0.015625)"/>
      </defs>
      <use xlink:href="#DejaVuSans-43"/>
      <use xlink:href="#DejaVuSans-6f" transform="translate(69.824219 0)"/>
      <use xlink:href="#DejaVuSans-75" transform="translate(131.005859 0)"/>
      <use xlink:href="#DejaVuSans-6e" transform="translate(194.384766 0)"/>
      <use xlink:href="#DejaVuSans-74" transform="translate(257.763672 0)"/>
     </g>
    </g>
   </g>
   <g id="line2d_31">
    <path d="M 85.239886 454.682026 
L 85.319282 454.682026 
L 85.369654 454.126239 
L 85.61878 454.126239 
L 85.73147 257.933546 
L 89.223215 257.933546 
L 89.23847 261.268266 
L 93.278023 261.268266 
L 93.473515 260.712479 
L 94.034324 260.712479 
L 94.488824 260.156692 
L 97.305104 259.600906 
L 97.360705 260.156692 
L 97.495702 259.600906 
L 106.216884 259.600906 
L 111.478225 260.712479 
L 112.261055 259.600906 
L 112.832658 259.600906 
L 114.273299 259.045119 
L 114.876037 256.821972 
L 116.049659 256.821972 
L 117.759911 260.712479 
L 117.870874 256.821972 
L 119.183234 256.266186 
L 122.598701 256.266186 
L 123.499594 255.710399 
L 124.837764 255.710399 
L 125.196462 254.598826 
L 133.537311 254.598826 
L 134.145662 253.487252 
L 134.176844 252.375679 
L 136.803341 252.375679 
L 140.676234 251.264106 
L 142.70786 251.264106 
L 142.738611 250.708319 
L 147.404314 250.708319 
L 148.56172 247.929386 
L 152.224634 247.929386 
L 152.25006 247.373599 
L 172.764211 247.373599 
L 176.598821 246.817812 
L 176.729741 247.373599 
L 180.706737 246.817812 
L 194.546346 246.817812 
L 201.254229 246.262026 
L 201.383805 245.706239 
L 201.702444 245.150452 
L 205.486587 245.150452 
L 207.097151 244.594666 
L 213.738925 244.594666 
L 213.991074 247.373599 
L 214.003451 245.150452 
L 214.32636 245.150452 
L 215.929823 242.927306 
L 223.78048 242.927306 
L 229.797258 242.371519 
L 236.484511 242.371519 
L 236.777965 241.815732 
L 254.15475 241.815732 
L 254.896371 241.259946 
L 259.115681 241.259946 
L 259.145424 240.148372 
L 267.184713 240.148372 
L 267.347774 236.257866 
L 281.898446 236.257866 
L 281.902812 235.702079 
L 282.32421 235.702079 
L 283.825586 235.146292 
L 286.021857 235.146292 
L 286.614616 234.590506 
L 286.673911 235.146292 
L 288.031271 234.590506 
L 288.03746 234.034719 
L 288.06917 234.590506 
L 288.853248 234.034719 
L 295.995673 234.034719 
L 298.216314 233.478932 
L 300.851302 233.478932 
L 305.32679 232.923146 
L 309.563657 232.923146 
L 312.837075 231.811572 
L 320.000753 231.811572 
L 324.167915 230.699999 
L 325.342017 231.255786 
L 331.158265 231.255786 
L 337.719253 229.032639 
L 347.50415 229.032639 
L 350.538804 228.476852 
L 404.619951 228.476852 
L 405.056701 227.921066 
L 424.778859 227.921066 
L 425.108388 227.365279 
L 458.667565 227.365279 
L 466.057197 226.809492 
L 466.099942 227.365279 
L 471.389826 225.697919 
L 479.153027 225.697919 
L 483.392006 225.142132 
L 483.398962 224.586346 
L 492.243628 224.586346 
L 495.418077 225.142132 
L 496.559221 224.586346 
L 511.361225 224.586346 
L 511.991164 225.142132 
L 513.145116 224.586346 
L 513.541665 222.363199 
L 520.324961 222.363199 
L 520.330814 221.807412 
L 541.087566 221.807412 
L 542.296304 221.251626 
L 546.285389 221.251626 
L 546.67455 220.695839 
L 566.126665 220.695839 
L 566.153098 220.140052 
L 571.01837 220.140052 
L 571.025614 219.584266 
L 572.206191 219.584266 
L 572.267837 219.028479 
L 574.101141 219.028479 
L 574.389174 218.472692 
L 578.313015 218.472692 
L 578.909468 217.361119 
L 581.069567 215.137972 
L 586.293056 215.137972 
L 586.678714 212.359039 
L 588.430272 212.359039 
L 589.289907 211.247466 
L 593.71958 211.247466 
L 595.173079 210.691679 
L 599.333717 210.691679 
L 599.89136 210.135892 
L 611.192025 210.135892 
L 611.470462 209.580106 
L 612.515659 209.580106 
L 614.13836 209.024319 
L 632.416422 209.024319 
L 632.580635 208.468532 
L 633.166678 208.468532 
L 634.390096 207.356959 
L 636.105337 207.356959 
L 636.517765 206.801172 
L 636.915128 206.801172 
L 637.065909 206.245386 
L 641.652935 206.245386 
L 642.433846 205.689599 
L 646.426481 205.689599 
L 646.682467 205.133812 
L 648.869479 205.133812 
L 649.009609 204.578026 
L 655.806338 204.578026 
L 655.952465 204.022239 
L 659.916413 204.022239 
L 661.022392 202.354879 
L 661.240383 201.799092 
L 662.708273 201.799092 
L 662.709808 201.243306 
L 668.670025 201.243306 
L 669.755232 200.687519 
L 674.326378 200.687519 
L 675.225256 200.131732 
L 675.563373 200.131732 
L 676.44167 199.575946 
L 678.685194 199.575946 
L 678.944491 199.020159 
L 684.571244 199.020159 
L 686.021624 198.464372 
L 686.127262 197.908586 
L 686.596826 197.908586 
L 688.078916 195.685439 
L 692.675297 195.685439 
L 692.708399 195.129652 
L 697.082806 195.129652 
L 697.337161 194.573866 
L 697.99694 194.573866 
L 698.497158 194.018079 
L 698.6015 194.573866 
L 698.976077 194.018079 
L 700.640275 194.018079 
L 700.656202 193.462292 
L 701.098133 193.462292 
L 701.291658 192.906506 
L 702.628868 192.350719 
L 711.93264 192.350719 
L 713.38681 191.794932 
L 714.360239 191.794932 
L 715.149977 191.239146 
L 715.948878 191.794932 
L 719.238271 191.794932 
L 719.380129 190.683359 
L 724.102295 190.683359 
L 725.934496 189.015999 
L 745.82173 189.015999 
L 746.977553 188.460212 
L 777.674588 188.460212 
L 777.727839 187.904426 
L 812.012614 187.904426 
L 812.012614 187.904426 
" clip-path="url(#pbd9e6e53e9)" style="fill: none; stroke: #3fb950; stroke-width: 2; stroke-linecap: square"/>
   </g>
   <g id="line2d_32">
    <path d="M 85.239886 455.237812 
L 85.369654 453.570452 
L 85.51084 453.570452 
L 85.61878 372.981386 
L 87.576048 372.981386 
L 87.616297 370.758239 
L 89.633915 370.758239 
L 90.153755 369.090879 
L 90.861075 370.758239 
L 90.866304 369.090879 
L 91.45158 369.090879 
L 91.677774 367.979306 
L 97.457659 367.979306 
L 97.463176 367.423519 
L 97.495702 367.979306 
L 97.780184 367.423519 
L 97.86361 367.979306 
L 98.086111 367.423519 
L 100.114379 367.423519 
L 100.220496 366.867732 
L 100.509536 366.311946 
L 102.799546 366.311946 
L 105.405558 365.756159 
L 105.497283 365.200372 
L 106.201629 364.644586 
L 106.216884 364.088799 
L 111.478225 367.979306 
L 112.261055 366.311946 
L 112.832658 363.533012 
L 116.049659 363.533012 
L 117.759911 367.979306 
L 117.870874 363.533012 
L 149.122721 363.533012 
L 150.08171 362.977226 
L 152.25006 362.977226 
L 158.172186 362.421439 
L 159.614746 361.865652 
L 180.168955 361.865652 
L 180.706737 361.309866 
L 183.469717 360.754079 
L 185.225832 360.754079 
L 187.172401 360.198292 
L 187.224836 359.086719 
L 188.562911 358.530932 
L 189.46222 357.975146 
L 201.851354 357.975146 
L 204.321025 357.419359 
L 205.067635 357.419359 
L 205.486587 356.863572 
L 207.097151 356.863572 
L 208.697208 356.307786 
L 213.738925 356.307786 
L 213.991074 358.530932 
L 214.003451 356.307786 
L 215.929823 356.307786 
L 216.123204 355.751999 
L 218.849917 355.751999 
L 221.532638 355.196212 
L 221.597738 354.640426 
L 229.797258 354.640426 
L 233.255709 354.084639 
L 233.26444 353.528852 
L 244.77307 353.528852 
L 249.573769 352.973066 
L 253.175517 352.973066 
L 254.15475 352.417279 
L 259.652551 352.417279 
L 262.788285 351.861492 
L 262.960174 351.305706 
L 266.017376 351.305706 
L 266.372187 350.749919 
L 267.347774 350.194132 
L 269.525623 350.194132 
L 270.900637 349.638346 
L 273.421688 349.638346 
L 275.06708 349.082559 
L 278.577199 349.082559 
L 279.773032 347.970986 
L 288.853248 347.970986 
L 291.439206 347.415199 
L 294.47151 347.415199 
L 295.155323 346.859412 
L 295.364439 346.303626 
L 295.995673 345.747839 
L 306.437758 345.747839 
L 308.349594 345.192052 
L 309.563657 344.636266 
L 339.256945 344.636266 
L 345.922371 344.080479 
L 346.002007 343.524692 
L 350.538804 343.524692 
L 354.416495 342.968906 
L 361.270265 342.968906 
L 361.8494 342.413119 
L 373.521667 342.413119 
L 382.658779 341.857332 
L 382.746474 341.301546 
L 383.941012 341.301546 
L 386.361223 340.745759 
L 386.375711 339.634186 
L 386.602721 338.522612 
L 391.658111 337.966826 
L 391.960823 337.411039 
L 392.081476 336.299466 
L 392.539335 335.743679 
L 408.990089 335.743679 
L 413.663467 335.187892 
L 416.638394 334.632106 
L 418.968943 334.632106 
L 424.372524 334.076319 
L 424.778859 331.853172 
L 425.108388 331.853172 
L 425.424533 331.297386 
L 425.885318 330.741599 
L 436.134789 330.185812 
L 436.461008 329.630026 
L 436.557243 329.074239 
L 438.722619 329.074239 
L 440.76739 328.518452 
L 441.002411 327.962666 
L 441.162019 326.851092 
L 442.515493 326.295306 
L 442.614846 325.739519 
L 445.084325 325.183732 
L 448.330398 324.627946 
L 448.561246 324.072159 
L 448.566139 323.516372 
L 449.219057 322.960586 
L 449.334386 322.404799 
L 453.251031 321.849012 
L 454.04312 321.849012 
L 454.88726 321.293226 
L 474.71021 321.293226 
L 477.99754 320.737439 
L 478.296702 320.181652 
L 491.731752 320.181652 
L 492.243628 319.070079 
L 497.84131 319.070079 
L 499.531317 318.514292 
L 499.61388 317.402719 
L 500.047847 316.846932 
L 502.921406 316.291146 
L 502.986123 315.735359 
L 503.33297 315.179572 
L 503.395768 313.512212 
L 503.688405 312.956426 
L 504.08433 312.956426 
L 504.098914 312.400639 
L 506.497824 311.844852 
L 507.440934 311.289066 
L 507.669143 310.733279 
L 511.991164 310.177492 
L 515.176311 310.177492 
L 516.282338 309.621706 
L 528.257701 309.621706 
L 532.225054 309.065919 
L 532.240837 308.510132 
L 532.954346 307.954346 
L 542.296304 307.954346 
L 544.917475 307.398559 
L 545.997261 306.842772 
L 546.285389 305.731199 
L 553.842065 305.731199 
L 554.356916 305.175412 
L 558.50652 305.175412 
L 560.493147 304.619626 
L 566.153098 304.619626 
L 569.574802 304.063839 
L 576.680576 304.063839 
L 577.553932 303.508052 
L 581.069567 303.508052 
L 582.026493 302.952266 
L 582.441607 302.396479 
L 582.646069 301.840692 
L 585.53997 301.840692 
L 585.622244 300.729119 
L 586.678714 300.729119 
L 586.975142 299.617546 
L 587.372362 299.061759 
L 589.889671 299.061759 
L 590.202314 298.505972 
L 590.445011 298.505972 
L 591.649911 297.950186 
L 593.649395 297.950186 
L 593.71958 297.394399 
L 595.173079 297.394399 
L 595.526115 296.838612 
L 596.892254 296.838612 
L 598.983943 295.727039 
L 599.89136 295.727039 
L 603.400855 294.615466 
L 603.406132 294.059679 
L 604.076176 293.503892 
L 605.785757 292.948106 
L 606.051578 292.392319 
L 607.756073 291.836532 
L 610.542369 291.836532 
L 610.953309 291.280746 
L 611.192025 290.724959 
L 614.868611 290.724959 
L 614.965086 290.169172 
L 615.933189 290.169172 
L 616.0075 289.613386 
L 616.538757 289.057599 
L 618.387269 289.057599 
L 618.527879 288.501812 
L 618.844551 288.501812 
L 618.923228 287.946026 
L 619.050885 287.946026 
L 619.055203 287.390239 
L 621.654594 287.390239 
L 622.169349 286.834452 
L 622.601589 286.834452 
L 622.859926 286.278666 
L 623.519656 286.278666 
L 624.013591 285.722879 
L 624.117741 285.167092 
L 624.258927 285.167092 
L 626.741887 284.611306 
L 628.599945 284.611306 
L 628.740603 284.055519 
L 636.070173 284.055519 
L 636.105337 283.499732 
L 636.517765 283.499732 
L 636.915128 282.943946 
L 637.065909 282.943946 
L 637.338398 282.388159 
L 639.963743 282.388159 
L 640.123926 281.276586 
L 640.260266 279.609226 
L 640.692939 279.053439 
L 642.433846 279.053439 
L 643.254911 278.497652 
L 644.050742 278.497652 
L 644.307351 277.941866 
L 645.540988 277.386079 
L 646.682467 277.386079 
L 648.977275 276.830292 
L 649.009609 276.274506 
L 649.710885 276.274506 
L 649.827124 275.718719 
L 651.867098 275.718719 
L 651.923754 275.162932 
L 661.816879 275.162932 
L 661.891382 274.607146 
L 662.264039 274.607146 
L 662.275025 273.495572 
L 663.668413 273.495572 
L 663.771172 272.939786 
L 663.939511 272.939786 
L 664.821838 272.383999 
L 665.043619 271.828212 
L 665.44885 271.828212 
L 665.791764 271.272426 
L 665.903542 270.716639 
L 670.874595 270.716639 
L 672.12934 270.160852 
L 672.377171 269.049279 
L 672.682569 268.493492 
L 673.192383 268.493492 
L 673.503107 267.937706 
L 680.637137 267.937706 
L 680.920612 266.270346 
L 682.082863 266.270346 
L 682.225968 265.714559 
L 686.035009 265.714559 
L 686.127262 264.602986 
L 690.702102 264.602986 
L 690.7495 264.047199 
L 692.953303 264.047199 
L 692.968127 263.491412 
L 694.041292 263.491412 
L 694.070316 262.935626 
L 697.337161 262.935626 
L 697.499647 262.379839 
L 697.706652 262.379839 
L 697.99694 261.824052 
L 698.586197 261.824052 
L 698.6015 261.268266 
L 698.976077 261.268266 
L 699.690641 260.712479 
L 705.462226 260.712479 
L 705.881706 260.156692 
L 707.594213 260.156692 
L 707.597379 259.600906 
L 720.69057 259.600906 
L 722.912843 259.045119 
L 722.977271 258.489332 
L 724.102295 257.933546 
L 725.812979 257.933546 
L 725.934496 256.821972 
L 726.243924 256.821972 
L 726.345052 256.266186 
L 730.916007 256.266186 
L 731.736448 255.710399 
L 739.595117 255.710399 
L 739.619296 255.154612 
L 742.186017 255.154612 
L 743.282929 254.598826 
L 755.363786 254.598826 
L 755.514566 253.487252 
L 760.265757 253.487252 
L 761.210785 252.931466 
L 762.222784 252.931466 
L 763.459923 252.375679 
L 771.637422 252.375679 
L 772.420492 251.819892 
L 773.099028 251.819892 
L 773.431724 251.264106 
L 776.036776 250.708319 
L 777.312005 250.708319 
L 777.727839 250.152532 
L 777.863172 250.152532 
L 781.523016 249.596746 
L 788.261505 249.596746 
L 788.788829 249.040959 
L 812.012614 249.040959 
L 812.012614 249.040959 
" clip-path="url(#pbd9e6e53e9)" style="fill: none; stroke: #58a6ff; stroke-width: 2; stroke-linecap: square"/>
   </g>
   <g id="line2d_33">
    <path d="M 85.239886 455.237812 
L 89.223215 455.237812 
L 89.23847 454.126239 
L 92.526952 454.126239 
L 93.278023 453.570452 
L 295.995673 453.570452 
L 298.216314 453.014666 
L 354.416495 453.014666 
L 355.976159 452.458879 
L 408.990089 452.458879 
L 413.663467 451.903092 
L 425.885318 451.903092 
L 436.557243 450.235732 
L 438.722619 449.124159 
L 442.614846 449.124159 
L 445.084325 448.568372 
L 448.566139 448.012586 
L 449.334386 448.012586 
L 453.251031 447.456799 
L 454.04312 447.456799 
L 454.88726 446.901012 
L 458.667565 446.345226 
L 466.057197 445.789439 
L 466.099942 446.345226 
L 478.296702 446.345226 
L 479.153027 445.789439 
L 496.559221 445.789439 
L 497.84131 445.233652 
L 503.688405 445.233652 
L 504.098914 444.677866 
L 511.361225 444.677866 
L 511.991164 444.122079 
L 538.595539 444.122079 
L 541.087566 443.566292 
L 542.134922 443.566292 
L 542.296304 443.010506 
L 549.396801 443.010506 
L 549.403565 442.454719 
L 566.126665 442.454719 
L 566.153098 441.898932 
L 571.025614 441.898932 
L 572.267837 441.343146 
L 574.097927 440.787359 
L 574.101141 440.231572 
L 574.389174 440.231572 
L 576.680576 438.564212 
L 578.224168 438.564212 
L 578.313015 436.896852 
L 578.909468 436.896852 
L 581.069567 437.452639 
L 582.623042 437.452639 
L 582.646069 435.229492 
L 588.430272 435.229492 
L 589.289907 434.673706 
L 590.202314 434.673706 
L 590.445011 434.117919 
L 611.192025 434.117919 
L 611.470462 433.562132 
L 612.515659 433.562132 
L 614.13836 433.006346 
L 621.29748 433.006346 
L 621.654594 432.450559 
L 624.117741 432.450559 
L 624.258927 431.894772 
L 632.416422 431.894772 
L 632.580635 431.338986 
L 633.166678 431.338986 
L 633.761068 430.783199 
L 634.354883 430.783199 
L 634.390096 430.227412 
L 636.915128 430.227412 
L 637.065909 429.671626 
L 648.788164 429.671626 
L 648.869479 429.115839 
L 649.009609 429.115839 
L 649.129927 428.560052 
L 649.827124 428.560052 
L 651.288682 428.004266 
L 657.002747 428.004266 
L 657.007785 427.448479 
L 658.099611 427.448479 
L 658.141156 426.892692 
L 661.240383 426.892692 
L 661.891382 426.336906 
L 666.021557 426.336906 
L 667.219453 425.781119 
L 669.54909 425.781119 
L 669.573796 424.669546 
L 669.762716 424.669546 
L 670.000472 424.113759 
L 673.748107 424.113759 
L 674.326378 423.557972 
L 675.225256 423.557972 
L 675.563373 423.002186 
L 677.757389 423.002186 
L 678.063747 422.446399 
L 678.067681 421.890612 
L 678.685194 421.890612 
L 678.944491 421.334826 
L 702.578688 421.334826 
L 702.628868 420.223252 
L 705.881706 420.223252 
L 706.817907 419.667466 
L 707.597379 419.667466 
L 711.25396 419.111679 
L 711.93264 419.111679 
L 713.38681 418.555892 
L 714.360239 418.555892 
L 715.149977 418.000106 
L 715.948878 418.555892 
L 718.520685 418.555892 
L 719.220041 418.000106 
L 719.328557 417.444319 
L 719.380129 416.888532 
L 720.681791 416.332746 
L 720.69057 415.221172 
L 726.372733 415.221172 
L 727.615388 414.665386 
L 727.741319 412.998026 
L 728.98335 412.442239 
L 729.670234 411.886452 
L 735.544962 411.886452 
L 735.794231 410.219092 
L 736.093873 410.219092 
L 736.316038 409.663306 
L 737.751787 409.107519 
L 740.011766 409.107519 
L 740.477348 408.551732 
L 740.583273 407.995946 
L 740.820838 407.995946 
L 742.186017 406.884372 
L 743.648678 406.884372 
L 744.12894 406.328586 
L 745.816165 406.328586 
L 745.82173 405.217012 
L 746.977553 405.217012 
L 748.511983 404.661226 
L 752.577202 403.549652 
L 752.940121 402.993866 
L 761.210785 402.993866 
L 762.222784 401.882292 
L 777.674588 401.882292 
L 777.863172 400.770719 
L 785.384204 400.770719 
L 786.533359 400.214932 
L 790.020594 400.214932 
L 790.216326 399.659146 
L 811.670179 399.659146 
L 812.012614 399.103359 
L 812.012614 399.103359 
" clip-path="url(#pbd9e6e53e9)" style="fill: none; stroke: #d29922; stroke-width: 2; stroke-linecap: square"/>
   </g>
   <g id="line2d_34">
    <path d="M 85.239886 454.682026 
L 85.580594 454.682026 
L 85.61878 433.006346 
L 85.884217 431.338986 
L 85.976854 430.227412 
L 86.519961 426.892692 
L 86.970527 425.781119 
L 87.199121 426.336906 
L 87.616297 425.781119 
L 88.321842 425.225332 
L 88.811363 424.113759 
L 89.223215 423.557972 
L 89.23847 423.002186 
L 89.633915 421.334826 
L 90.153755 421.334826 
L 90.861075 420.779039 
L 90.866304 420.223252 
L 91.435796 419.667466 
L 91.45158 419.111679 
L 91.677774 419.111679 
L 92.526952 418.555892 
L 93.133671 418.000106 
L 93.278023 411.886452 
L 93.377856 412.442239 
L 93.621945 408.551732 
L 94.034324 402.993866 
L 97.463176 402.993866 
L 97.495702 402.438079 
L 97.780184 399.659146 
L 97.86361 402.438079 
L 98.250132 397.991786 
L 98.441546 397.435999 
L 99.867651 396.880212 
L 99.910683 396.324426 
L 100.220496 395.768639 
L 100.509536 395.768639 
L 101.243961 395.212852 
L 101.636287 394.657066 
L 101.796326 394.101279 
L 101.922065 392.989706 
L 102.288582 392.433919 
L 102.297649 391.878132 
L 102.666276 392.433919 
L 102.771194 391.878132 
L 102.784099 392.433919 
L 102.799546 390.766559 
L 106.216884 390.766559 
L 111.478225 402.993866 
L 112.261055 390.210772 
L 112.669069 389.654986 
L 114.876037 389.654986 
L 115.249798 389.099199 
L 116.049659 388.543412 
L 117.759911 402.993866 
L 117.870874 387.987626 
L 119.183234 387.431839 
L 121.989727 386.876052 
L 122.189872 387.431839 
L 122.556821 386.320266 
L 122.598701 385.764479 
L 123.499594 385.764479 
L 123.77333 385.208692 
L 124.29034 384.652906 
L 124.333228 383.541332 
L 124.810132 382.429759 
L 124.837764 382.985546 
L 125.121431 382.985546 
L 125.276961 381.873972 
L 125.755736 379.650826 
L 125.818677 378.539252 
L 126.432928 376.871892 
L 126.733146 377.983466 
L 127.863112 376.316106 
L 128.855873 374.648746 
L 129.414812 375.760319 
L 131.715041 373.537172 
L 133.537311 377.427679 
L 134.176844 373.537172 
L 136.803341 371.869812 
L 140.676234 371.869812 
L 141.187727 371.314026 
L 141.594781 369.646666 
L 142.738611 371.314026 
L 147.404314 371.869812 
L 148.56172 369.646666 
L 149.122721 367.979306 
L 150.08171 369.646666 
L 152.25006 367.979306 
L 159.614746 367.979306 
L 167.358758 367.423519 
L 167.875192 366.867732 
L 172.764211 366.311946 
L 175.997043 366.311946 
L 176.598821 365.756159 
L 176.729741 366.311946 
L 180.168955 364.644586 
L 183.394831 364.644586 
L 183.469717 364.088799 
L 185.225832 363.533012 
L 189.46222 363.533012 
L 191.330976 359.642506 
L 192.72187 359.086719 
L 194.511614 358.530932 
L 194.546346 357.975146 
L 201.254229 357.975146 
L 201.383805 354.084639 
L 201.632067 354.084639 
L 201.851354 352.973066 
L 204.321025 352.973066 
L 205.067635 352.417279 
L 208.697208 352.417279 
L 213.738925 351.861492 
L 213.991074 363.533012 
L 214.003451 352.417279 
L 214.32636 351.861492 
L 216.123204 351.861492 
L 218.849917 351.305706 
L 221.597738 351.305706 
L 223.78048 350.749919 
L 229.797258 349.638346 
L 233.26444 349.638346 
L 236.050928 349.082559 
L 236.484511 346.303626 
L 236.777965 346.303626 
L 237.297229 345.747839 
L 240.00576 345.192052 
L 240.631861 342.968906 
L 244.375274 341.857332 
L 244.420369 342.413119 
L 244.77307 341.857332 
L 249.573769 340.745759 
L 253.175517 340.189972 
L 254.896371 340.189972 
L 256.421638 339.634186 
L 257.743449 338.522612 
L 259.145424 337.966826 
L 259.652551 337.411039 
L 262.960174 337.966826 
L 266.017376 336.855252 
L 266.372187 337.411039 
L 267.184713 337.411039 
L 267.347774 336.855252 
L 269.525623 336.299466 
L 270.900637 336.855252 
L 273.421688 335.743679 
L 275.06708 335.743679 
L 278.577199 335.187892 
L 279.15926 335.743679 
L 279.773032 334.076319 
L 281.902812 334.076319 
L 282.32421 333.520532 
L 283.825586 331.853172 
L 284.158138 331.297386 
L 284.676299 330.185812 
L 286.021857 330.741599 
L 286.614616 329.630026 
L 286.673911 329.074239 
L 291.439206 329.074239 
L 293.852701 328.518452 
L 294.47151 327.962666 
L 298.216314 327.962666 
L 300.851302 327.406879 
L 305.32679 327.406879 
L 306.437758 326.851092 
L 318.744569 326.851092 
L 319.451361 326.295306 
L 319.52217 325.739519 
L 320.000753 325.183732 
L 325.342017 325.183732 
L 325.674904 324.627946 
L 327.033847 324.072159 
L 327.269205 323.516372 
L 329.520693 322.960586 
L 331.158265 322.404799 
L 337.719253 322.404799 
L 339.256945 321.293226 
L 346.002007 321.293226 
L 347.50415 320.737439 
L 353.790298 320.737439 
L 354.416495 320.181652 
L 355.976159 319.625866 
L 356.440445 319.070079 
L 356.598086 318.514292 
L 361.270265 317.958506 
L 361.8494 318.514292 
L 368.000023 317.402719 
L 372.86304 316.291146 
L 373.521667 315.735359 
L 382.746474 315.735359 
L 383.941012 315.179572 
L 392.539335 315.179572 
L 400.638782 314.623786 
L 401.657545 314.067999 
L 405.056701 313.512212 
L 408.465452 312.956426 
L 408.990089 312.400639 
L 416.638394 312.400639 
L 418.968943 311.844852 
L 436.557243 311.844852 
L 438.722619 311.289066 
L 453.251031 311.289066 
L 454.04312 310.733279 
L 454.88726 311.289066 
L 458.667565 310.733279 
L 471.389826 310.733279 
L 473.094705 310.177492 
L 500.008125 310.177492 
L 500.047847 309.621706 
L 516.669579 309.621706 
L 520.321459 309.065919 
L 520.330814 308.510132 
L 538.587432 308.510132 
L 538.595539 307.398559 
L 549.403565 307.398559 
L 554.356916 306.842772 
L 560.493147 306.842772 
L 566.153098 305.731199 
L 577.553932 305.731199 
L 578.224168 305.175412 
L 578.313015 304.619626 
L 582.623042 304.619626 
L 582.646069 304.063839 
L 583.093613 304.063839 
L 583.807026 303.508052 
L 590.202314 303.508052 
L 590.445011 302.952266 
L 598.983943 302.952266 
L 599.333717 302.396479 
L 620.187183 302.396479 
L 621.295897 300.729119 
L 621.29748 300.173332 
L 624.251875 300.173332 
L 624.258927 299.617546 
L 632.973345 299.617546 
L 633.166678 299.061759 
L 637.338398 299.061759 
L 637.488267 298.505972 
L 652.985982 298.505972 
L 653.283992 297.950186 
L 656.881231 297.950186 
L 657.007785 297.394399 
L 658.141156 296.838612 
L 686.596826 296.838612 
L 688.078916 295.727039 
L 690.297399 295.727039 
L 690.7495 295.171252 
L 692.968127 295.171252 
L 693.296936 294.615466 
L 698.538847 294.615466 
L 698.6015 294.059679 
L 727.612942 294.059679 
L 727.615388 293.503892 
L 727.738488 293.503892 
L 727.741319 292.948106 
L 764.004469 292.948106 
L 764.946283 292.392319 
L 812.012614 292.392319 
L 812.012614 292.392319 
" clip-path="url(#pbd9e6e53e9)" style="fill: none; stroke: #f85149; stroke-width: 2; stroke-linecap: square"/>
   </g>
   <g id="line2d_35">
    <path d="M 85.239886 454.682026 
L 85.266991 454.126239 
L 85.480693 -1 
M 85.672767 -1 
L 85.73147 101.201706 
L 89.223215 101.201706 
L 89.23847 97.866986 
L 93.278023 97.866986 
L 93.473515 98.422772 
L 94.034324 98.422772 
L 94.488824 98.978559 
L 97.305104 99.534346 
L 97.360705 98.978559 
L 97.495702 99.534346 
L 106.216884 99.534346 
L 111.478225 98.422772 
L 112.261055 99.534346 
L 112.669069 98.978559 
L 112.832658 98.978559 
L 114.273299 99.534346 
L 114.876037 96.755412 
L 116.049659 96.755412 
L 117.759911 98.422772 
L 117.870874 95.643839 
L 119.183234 96.199626 
L 122.598701 96.199626 
L 123.499594 95.088052 
L 124.837764 95.088052 
L 125.196462 91.197546 
L 133.537311 91.197546 
L 134.145662 87.862826 
L 134.176844 86.751252 
L 136.803341 86.751252 
L 140.676234 82.860746 
L 142.70786 82.860746 
L 142.738611 83.416532 
L 147.404314 83.416532 
L 148.56172 80.081812 
L 152.224634 80.081812 
L 152.25006 80.637599 
L 172.764211 80.637599 
L 176.598821 81.193386 
L 176.729741 80.637599 
L 180.706737 81.193386 
L 194.546346 81.193386 
L 201.254229 81.749172 
L 201.383805 74.523946 
L 201.702444 75.079732 
L 205.486587 75.079732 
L 207.097151 75.635519 
L 213.738925 75.635519 
L 213.991074 80.637599 
L 214.003451 71.745012 
L 214.32636 71.745012 
L 215.929823 73.968159 
L 223.78048 73.968159 
L 229.797258 70.077652 
L 236.484511 70.077652 
L 236.777965 68.410292 
L 254.15475 68.410292 
L 254.896371 68.966079 
L 259.115681 68.966079 
L 259.145424 70.077652 
L 267.184713 70.077652 
L 267.347774 73.412372 
L 279.773032 73.412372 
L 280.069796 68.410292 
L 281.898446 67.298719 
L 281.902812 67.854506 
L 282.32421 67.854506 
L 283.825586 65.075572 
L 286.021857 65.075572 
L 286.614616 65.631359 
L 286.673911 65.075572 
L 288.031271 65.631359 
L 288.03746 66.187146 
L 288.06917 65.631359 
L 288.853248 63.408212 
L 295.995673 63.408212 
L 298.216314 63.963999 
L 300.851302 63.963999 
L 305.32679 64.519786 
L 309.563657 64.519786 
L 312.837075 65.631359 
L 319.52217 65.075572 
L 320.000753 65.075572 
L 324.167915 66.187146 
L 325.342017 65.631359 
L 331.158265 65.631359 
L 337.715703 67.854506 
L 337.719253 67.298719 
L 347.50415 67.298719 
L 350.538804 67.854506 
L 404.619951 67.854506 
L 405.056701 68.410292 
L 408.441129 68.410292 
L 408.465452 66.742932 
L 424.778859 66.742932 
L 425.108388 67.298719 
L 458.667565 67.298719 
L 466.057197 67.854506 
L 466.099942 67.298719 
L 471.389826 68.966079 
L 473.094705 68.966079 
L 474.71021 68.410292 
L 479.153027 68.410292 
L 483.392006 68.966079 
L 483.398962 69.521866 
L 495.418077 67.854506 
L 496.559221 68.410292 
L 511.361225 68.410292 
L 511.991164 67.854506 
L 513.145116 68.410292 
L 513.541665 70.633439 
L 520.324961 70.633439 
L 520.330814 71.189226 
L 541.087566 71.189226 
L 542.296304 71.745012 
L 546.285389 71.745012 
L 546.67455 72.300799 
L 566.126665 72.300799 
L 566.153098 72.856586 
L 569.574802 72.856586 
L 571.01837 73.412372 
L 571.025614 73.968159 
L 572.206191 73.412372 
L 572.267837 73.968159 
L 574.101141 73.968159 
L 574.389174 74.523946 
L 578.224168 74.523946 
L 578.313015 73.412372 
L 578.909468 74.523946 
L 581.069567 72.856586 
L 586.293056 72.856586 
L 586.678714 71.189226 
L 588.430272 71.189226 
L 589.289907 72.300799 
L 593.71958 72.300799 
L 595.173079 72.856586 
L 595.526115 72.856586 
L 596.892254 70.077652 
L 599.333717 70.077652 
L 599.89136 70.633439 
L 611.192025 70.633439 
L 611.470462 71.189226 
L 612.515659 71.189226 
L 614.13836 71.745012 
L 632.416422 71.745012 
L 632.580635 72.300799 
L 633.166678 72.300799 
L 634.390096 73.412372 
L 636.105337 73.412372 
L 636.517765 72.856586 
L 636.915128 72.856586 
L 637.065909 73.412372 
L 641.652935 73.412372 
L 642.433846 73.968159 
L 646.426481 73.968159 
L 646.682467 74.523946 
L 648.869479 74.523946 
L 649.009609 75.079732 
L 655.806338 75.079732 
L 655.952465 75.635519 
L 659.916413 75.635519 
L 661.022392 77.302879 
L 661.240383 77.858666 
L 662.708273 77.858666 
L 662.709808 78.414452 
L 668.670025 78.414452 
L 669.755232 78.970239 
L 674.326378 78.970239 
L 675.225256 79.526026 
L 678.685194 79.526026 
L 678.944491 80.081812 
L 684.571244 80.081812 
L 686.021624 80.637599 
L 686.127262 81.193386 
L 686.596826 81.193386 
L 688.078916 60.629279 
L 692.675297 60.629279 
L 692.708399 61.185066 
L 692.968127 61.185066 
L 693.296936 60.629279 
L 697.082806 60.629279 
L 697.337161 61.185066 
L 697.99694 61.185066 
L 698.497158 61.740852 
L 698.6015 61.185066 
L 700.640275 61.185066 
L 700.656202 61.740852 
L 701.098133 61.740852 
L 701.291658 62.296639 
L 702.628868 62.852426 
L 711.93264 62.852426 
L 713.38681 63.408212 
L 714.360239 63.408212 
L 715.149977 63.963999 
L 715.948878 63.408212 
L 719.238271 63.408212 
L 719.380129 64.519786 
L 724.102295 64.519786 
L 725.934496 66.187146 
L 745.82173 66.187146 
L 746.977553 66.742932 
L 777.674588 66.742932 
L 777.727839 67.298719 
L 812.012614 67.298719 
L 812.012614 67.298719 
" clip-path="url(#pbd9e6e53e9)" style="fill: none; stroke: #9467bd; stroke-width: 2; stroke-linecap: square"/>
   </g>
   <g id="patch_3">
    <path d="M 48.90125 455.237812 
L 48.90125 38.397812 
" style="fill: none; stroke: #30363d; stroke-width: 0.8; stroke-linejoin: miter; stroke-linecap: square"/>
   </g>
   <g id="patch_4">
    <path d="M 848.35125 455.237812 
L 848.35125 38.397812 
" style="fill: none; stroke: #30363d; stroke-width: 0.8; stroke-linejoin: miter; stroke-linecap: square"/>
   </g>
   <g id="patch_5">
    <path d="M 48.90125 455.237812 
L 848.35125 455.237812 
" style="fill: none; stroke: #30363d; stroke-width: 0.8; stroke-linejoin: miter; stroke-linecap: square"/>
   </g>
   <g id="patch_6">
    <path d="M 48.90125 38.397812 
L 848.35125 38.397812 
" style="fill: none; stroke: #30363d; stroke-width: 0.8; stroke-linejoin: miter; stroke-linecap: square"/>
   </g>
   <g id="text_18">
    <!-- 481 -->
    <g style="fill: #3fb950" transform="translate(817.012614 190.387863) scale(0.09 -0.09)">
     <defs>
      <path id="DejaVuSans-Bold-34" d="M 2356 3675 
L 1038 1722 
L 2356 1722 
L 2356 3675 
z
M 2156 4666 
L 3494 4666 
L 3494 1722 
L 4159 1722 
L 4159 850 
L 3494 850 
L 3494 0 
L 2356 0 
L 2356 850 
L 288 850 
L 288 1881 
L 2156 4666 
z
" transform="scale(0.015625)"/>
      <path id="DejaVuSans-Bold-38" d="M 2228 2088 
Q 1891 2088 1709 1903 
Q 1528 1719 1528 1375 
Q 1528 1031 1709 848 
Q 1891 666 2228 666 
Q 2563 666 2741 848 
Q 2919 1031 2919 1375 
Q 2919 1722 2741 1905 
Q 2563 2088 2228 2088 
z
M 1350 2484 
Q 925 2613 709 2878 
Q 494 3144 494 3541 
Q 494 4131 934 4440 
Q 1375 4750 2228 4750 
Q 3075 4750 3515 4442 
Q 3956 4134 3956 3541 
Q 3956 3144 3739 2878 
Q 3522 2613 3097 2484 
Q 3572 2353 3814 2058 
Q 4056 1763 4056 1313 
Q 4056 619 3595 264 
Q 3134 -91 2228 -91 
Q 1319 -91 855 264 
Q 391 619 391 1313 
Q 391 1763 633 2058 
Q 875 2353 1350 2484 
z
M 1631 3419 
Q 1631 3141 1786 2991 
Q 1941 2841 2228 2841 
Q 2509 2841 2662 2991 
Q 2816 3141 2816 3419 
Q 2816 3697 2662 3845 
Q 2509 3994 2228 3994 
Q 1941 3994 1786 3844 
Q 1631 3694 1631 3419 
z
" transform="scale(0.015625)"/>
      <path id="DejaVuSans-Bold-31" d="M 750 831 
L 1813 831 
L 1813 3847 
L 722 3622 
L 722 4441 
L 1806 4666 
L 2950 4666 
L 2950 831 
L 4013 831 
L 4013 0 
L 750 0 
L 750 831 
z
" transform="scale(0.015625)"/>
     </defs>
     <use xlink:href="#DejaVuSans-Bold-34"/>
     <use xlink:href="#DejaVuSans-Bold-38" transform="translate(69.580078 0)"/>
     <use xlink:href="#DejaVuSans-Bold-31" transform="translate(139.160156 0)"/>
    </g>
   </g>
   <g id="text_19">
    <!-- 371 -->
    <g style="fill: #58a6ff" transform="translate(817.012614 251.524397) scale(0.09 -0.09)">
     <defs>
      <path id="DejaVuSans-Bold-33" d="M 2981 2516 
Q 3453 2394 3698 2092 
Q 3944 1791 3944 1325 
Q 3944 631 3412 270 
Q 2881 -91 1863 -91 
Q 1503 -91 1142 -33 
Q 781 25 428 141 
L 428 1069 
Q 766 900 1098 814 
Q 1431 728 1753 728 
Q 2231 728 2486 893 
Q 2741 1059 2741 1369 
Q 2741 1688 2480 1852 
Q 2219 2016 1709 2016 
L 1228 2016 
L 1228 2791 
L 1734 2791 
Q 2188 2791 2409 2933 
Q 2631 3075 2631 3366 
Q 2631 3634 2415 3781 
Q 2200 3928 1806 3928 
Q 1516 3928 1219 3862 
Q 922 3797 628 3669 
L 628 4550 
Q 984 4650 1334 4700 
Q 1684 4750 2022 4750 
Q 2931 4750 3382 4451 
Q 3834 4153 3834 3553 
Q 3834 3144 3618 2883 
Q 3403 2622 2981 2516 
z
" transform="scale(0.015625)"/>
      <path id="DejaVuSans-Bold-37" d="M 428 4666 
L 3944 4666 
L 3944 3988 
L 2125 0 
L 953 0 
L 2675 3781 
L 428 3781 
L 428 4666 
z
" transform="scale(0.015625)"/>
     </defs>
     <use xlink:href="#DejaVuSans-Bold-33"/>
     <use xlink:href="#DejaVuSans-Bold-37" transform="translate(69.580078 0)"/>
     <use xlink:href="#DejaVuSans-Bold-31" transform="translate(139.160156 0)"/>
    </g>
   </g>
   <g id="text_20">
    <!-- 101 -->
    <g style="fill: #d29922" transform="translate(817.012614 401.586797) scale(0.09 -0.09)">
     <defs>
      <path id="DejaVuSans-Bold-30" d="M 2944 2338 
Q 2944 3213 2780 3570 
Q 2616 3928 2228 3928 
Q 1841 3928 1675 3570 
Q 1509 3213 1509 2338 
Q 1509 1453 1675 1090 
Q 1841 728 2228 728 
Q 2613 728 2778 1090 
Q 2944 1453 2944 2338 
z
M 4147 2328 
Q 4147 1169 3647 539 
Q 3147 -91 2228 -91 
Q 1306 -91 806 539 
Q 306 1169 306 2328 
Q 306 3491 806 4120 
Q 1306 4750 2228 4750 
Q 3147 4750 3647 4120 
Q 4147 3491 4147 2328 
z
" transform="scale(0.015625)"/>
     </defs>
     <use xlink:href="#DejaVuSans-Bold-31"/>
     <use xlink:href="#DejaVuSans-Bold-30" transform="translate(69.580078 0)"/>
     <use xlink:href="#DejaVuSans-Bold-31" transform="translate(139.160156 0)"/>
    </g>
   </g>
   <g id="text_21">
    <!-- 293 -->
    <g style="fill: #f85149" transform="translate(817.012614 294.875757) scale(0.09 -0.09)">
     <defs>
      <path id="DejaVuSans-Bold-32" d="M 1844 884 
L 3897 884 
L 3897 0 
L 506 0 
L 506 884 
L 2209 2388 
Q 2438 2594 2547 2791 
Q 2656 2988 2656 3200 
Q 2656 3528 2436 3728 
Q 2216 3928 1850 3928 
Q 1569 3928 1234 3808 
Q 900 3688 519 3450 
L 519 4475 
Q 925 4609 1322 4679 
Q 1719 4750 2100 4750 
Q 2938 4750 3402 4381 
Q 3866 4013 3866 3353 
Q 3866 2972 3669 2642 
Q 3472 2313 2841 1759 
L 1844 884 
z
" transform="scale(0.015625)"/>
      <path id="DejaVuSans-Bold-39" d="M 641 103 
L 641 966 
Q 928 831 1190 764 
Q 1453 697 1709 697 
Q 2247 697 2547 995 
Q 2847 1294 2900 1881 
Q 2688 1725 2447 1647 
Q 2206 1569 1925 1569 
Q 1209 1569 770 1986 
Q 331 2403 331 3084 
Q 331 3838 820 4291 
Q 1309 4744 2131 4744 
Q 3044 4744 3544 4128 
Q 4044 3513 4044 2388 
Q 4044 1231 3459 570 
Q 2875 -91 1856 -91 
Q 1528 -91 1228 -42 
Q 928 6 641 103 
z
M 2125 2350 
Q 2441 2350 2600 2554 
Q 2759 2759 2759 3169 
Q 2759 3575 2600 3781 
Q 2441 3988 2125 3988 
Q 1809 3988 1650 3781 
Q 1491 3575 1491 3169 
Q 1491 2759 1650 2554 
Q 1809 2350 2125 2350 
z
" transform="scale(0.015625)"/>
     </defs>
     <use xlink:href="#DejaVuSans-Bold-32"/>
     <use xlink:href="#DejaVuSans-Bold-39" transform="translate(69.580078 0)"/>
     <use xlink:href="#DejaVuSans-Bold-33" transform="translate(139.160156 0)"/>
    </g>
   </g>
   <g id="text_22">
    <!-- 698 -->
    <g style="fill: #9467bd" transform="translate(817.012614 69.782157) scale(0.09 -0.09)">
     <defs>
      <path id="DejaVuSans-Bold-36" d="M 2316 2303 
Q 2000 2303 1842 2098 
Q 1684 1894 1684 1484 
Q 1684 1075 1842 870 
Q 2000 666 2316 666 
Q 2634 666 2792 870 
Q 2950 1075 2950 1484 
Q 2950 1894 2792 2098 
Q 2634 2303 2316 2303 
z
M 3803 4544 
L 3803 3681 
Q 3506 3822 3243 3889 
Q 2981 3956 2731 3956 
Q 2194 3956 1894 3657 
Q 1594 3359 1544 2772 
Q 1750 2925 1990 3001 
Q 2231 3078 2516 3078 
Q 3231 3078 3670 2659 
Q 4109 2241 4109 1563 
Q 4109 813 3618 361 
Q 3128 -91 2303 -91 
Q 1394 -91 895 523 
Q 397 1138 397 2266 
Q 397 3422 980 4083 
Q 1563 4744 2578 4744 
Q 2900 4744 3203 4694 
Q 3506 4644 3803 4544 
z
" transform="scale(0.015625)"/>
     </defs>
     <use xlink:href="#DejaVuSans-Bold-36"/>
     <use xlink:href="#DejaVuSans-Bold-39" transform="translate(69.580078 0)"/>
     <use xlink:href="#DejaVuSans-Bold-38" transform="translate(139.160156 0)"/>
    </g>
   </g>
   <g id="text_23">
    <!-- Erdős Problems Progress -->
    <g style="fill: #c9d1d9" transform="translate(349.588281 18.397812) scale(0.14 -0.14)">
     <defs>
      <path id="DejaVuSans-Bold-45" d="M 588 4666 
L 3834 4666 
L 3834 3756 
L 1791 3756 
L 1791 2888 
L 3713 2888 
L 3713 1978 
L 1791 1978 
L 1791 909 
L 3903 909 
L 3903 0 
L 588 0 
L 588 4666 
z
" transform="scale(0.015625)"/>
      <path id="DejaVuSans-Bold-72" d="M 3138 2547 
Q 2991 2616 2845 2648 
Q 2700 2681 2553 2681 
Q 2122 2681 1889 2404 
Q 1656 2128 1656 1613 
L 1656 0 
L 538 0 
L 538 3500 
L 1656 3500 
L 1656 2925 
Q 1872 3269 2151 3426 
Q 2431 3584 2822 3584 
Q 2878 3584 2943 3579 
Q 3009 3575 3134 3559 
L 3138 2547 
z
" transform="scale(0.015625)"/>
      <path id="DejaVuSans-Bold-64" d="M 2919 2988 
L 2919 4863 
L 4044 4863 
L 4044 0 
L 2919 0 
L 2919 506 
Q 2688 197 2409 53 
Q 2131 -91 1766 -91 
Q 1119 -91 703 423 
Q 288 938 288 1747 
Q 288 2556 703 3070 
Q 1119 3584 1766 3584 
Q 2128 3584 2408 3439 
Q 2688 3294 2919 2988 
z
M 2181 722 
Q 2541 722 2730 984 
Q 2919 1247 2919 1747 
Q 2919 2247 2730 2509 
Q 2541 2772 2181 2772 
Q 1825 2772 1636 2509 
Q 1447 2247 1447 1747 
Q 1447 1247 1636 984 
Q 1825 722 2181 722 
z
" transform="scale(0.015625)"/>
      <path id="DejaVuSans-Bold-151" d="M 1881 5119 
L 2560 5119 
L 1785 3944 
L 1275 3944 
L 1881 5119 
z
M 3016 5119 
L 3738 5119 
L 2888 3944 
L 2344 3944 
L 3016 5119 
z
M 2203 2784 
Q 1831 2784 1636 2517 
Q 1441 2250 1441 1747 
Q 1441 1244 1636 976 
Q 1831 709 2203 709 
Q 2569 709 2762 976 
Q 2956 1244 2956 1747 
Q 2956 2250 2762 2517 
Q 2569 2784 2203 2784 
z
M 2203 3584 
Q 3106 3584 3614 3096 
Q 4122 2609 4122 1747 
Q 4122 884 3614 396 
Q 3106 -91 2203 -91 
Q 1297 -91 786 396 
Q 275 884 275 1747 
Q 275 2609 786 3096 
Q 1297 3584 2203 3584 
z
" transform="scale(0.015625)"/>
      <path id="DejaVuSans-Bold-73" d="M 3272 3391 
L 3272 2541 
Q 2913 2691 2578 2766 
Q 2244 2841 1947 2841 
Q 1628 2841 1473 2761 
Q 1319 2681 1319 2516 
Q 1319 2381 1436 2309 
Q 1553 2238 1856 2203 
L 2053 2175 
Q 2913 2066 3209 1816 
Q 3506 1566 3506 1031 
Q 3506 472 3093 190 
Q 2681 -91 1863 -91 
Q 1516 -91 1145 -36 
Q 775 19 384 128 
L 384 978 
Q 719 816 1070 734 
Q 1422 653 1784 653 
Q 2113 653 2278 743 
Q 2444 834 2444 1013 
Q 2444 1163 2330 1236 
Q 2216 1309 1875 1350 
L 1678 1375 
Q 931 1469 631 1722 
Q 331 1975 331 2491 
Q 331 3047 712 3315 
Q 1094 3584 1881 3584 
Q 2191 3584 2531 3537 
Q 2872 3491 3272 3391 
z
" transform="scale(0.015625)"/>
      <path id="DejaVuSans-Bold-20" transform="scale(0.015625)"/>
      <path id="DejaVuSans-Bold-50" d="M 588 4666 
L 2584 4666 
Q 3475 4666 3951 4270 
Q 4428 3875 4428 3144 
Q 4428 2409 3951 2014 
Q 3475 1619 2584 1619 
L 1791 1619 
L 1791 0 
L 588 0 
L 588 4666 
z
M 1791 3794 
L 1791 2491 
L 2456 2491 
Q 2806 2491 2997 2661 
Q 3188 2831 3188 3144 
Q 3188 3456 2997 3625 
Q 2806 3794 2456 3794 
L 1791 3794 
z
" transform="scale(0.015625)"/>
      <path id="DejaVuSans-Bold-6f" d="M 2203 2784 
Q 1831 2784 1636 2517 
Q 1441 2250 1441 1747 
Q 1441 1244 1636 976 
Q 1831 709 2203 709 
Q 2569 709 2762 976 
Q 2956 1244 2956 1747 
Q 2956 2250 2762 2517 
Q 2569 2784 2203 2784 
z
M 2203 3584 
Q 3106 3584 3614 3096 
Q 4122 2609 4122 1747 
Q 4122 884 3614 396 
Q 3106 -91 2203 -91 
Q 1297 -91 786 396 
Q 275 884 275 1747 
Q 275 2609 786 3096 
Q 1297 3584 2203 3584 
z
" transform="scale(0.015625)"/>
      <path id="DejaVuSans-Bold-62" d="M 2400 722 
Q 2759 722 2948 984 
Q 3138 1247 3138 1747 
Q 3138 2247 2948 2509 
Q 2759 2772 2400 2772 
Q 2041 2772 1848 2508 
Q 1656 2244 1656 1747 
Q 1656 1250 1848 986 
Q 2041 722 2400 722 
z
M 1656 2988 
Q 1888 3294 2169 3439 
Q 2450 3584 2816 3584 
Q 3463 3584 3878 3070 
Q 4294 2556 4294 1747 
Q 4294 938 3878 423 
Q 3463 -91 2816 -91 
Q 2450 -91 2169 54 
Q 1888 200 1656 506 
L 1656 0 
L 538 0 
L 538 4863 
L 1656 4863 
L 1656 2988 
z
" transform="scale(0.015625)"/>
      <path id="DejaVuSans-Bold-6c" d="M 538 4863 
L 1656 4863 
L 1656 0 
L 538 0 
L 538 4863 
z
" transform="scale(0.015625)"/>
      <path id="DejaVuSans-Bold-65" d="M 4031 1759 
L 4031 1441 
L 1416 1441 
Q 1456 1047 1700 850 
Q 1944 653 2381 653 
Q 2734 653 3104 758 
Q 3475 863 3866 1075 
L 3866 213 
Q 3469 63 3072 -14 
Q 2675 -91 2278 -91 
Q 1328 -91 801 392 
Q 275 875 275 1747 
Q 275 2603 792 3093 
Q 1309 3584 2216 3584 
Q 3041 3584 3536 3087 
Q 4031 2591 4031 1759 
z
M 2881 2131 
Q 2881 2450 2695 2645 
Q 2509 2841 2209 2841 
Q 1884 2841 1681 2658 
Q 1478 2475 1428 2131 
L 2881 2131 
z
" transform="scale(0.015625)"/>
      <path id="DejaVuSans-Bold-6d" d="M 3781 2919 
Q 3994 3244 4286 3414 
Q 4578 3584 4928 3584 
Q 5531 3584 5847 3212 
Q 6163 2841 6163 2131 
L 6163 0 
L 5038 0 
L 5038 1825 
Q 5041 1866 5042 1909 
Q 5044 1953 5044 2034 
Q 5044 2406 4934 2573 
Q 4825 2741 4581 2741 
Q 4263 2741 4089 2478 
Q 3916 2216 3909 1719 
L 3909 0 
L 2784 0 
L 2784 1825 
Q 2784 2406 2684 2573 
Q 2584 2741 2328 2741 
Q 2006 2741 1831 2477 
Q 1656 2213 1656 1722 
L 1656 0 
L 531 0 
L 531 3500 
L 1656 3500 
L 1656 2988 
Q 1863 3284 2130 3434 
Q 2397 3584 2719 3584 
Q 3081 3584 3359 3409 
Q 3638 3234 3781 2919 
z
" transform="scale(0.015625)"/>
      <path id="DejaVuSans-Bold-67" d="M 2919 594 
Q 2688 288 2409 144 
Q 2131 0 1766 0 
Q 1125 0 706 504 
Q 288 1009 288 1791 
Q 288 2575 706 3076 
Q 1125 3578 1766 3578 
Q 2131 3578 2409 3434 
Q 2688 3291 2919 2981 
L 2919 3500 
L 4044 3500 
L 4044 353 
Q 4044 -491 3511 -936 
Q 2978 -1381 1966 -1381 
Q 1638 -1381 1331 -1331 
Q 1025 -1281 716 -1178 
L 716 -306 
Q 1009 -475 1290 -558 
Q 1572 -641 1856 -641 
Q 2406 -641 2662 -400 
Q 2919 -159 2919 353 
L 2919 594 
z
M 2181 2772 
Q 1834 2772 1640 2515 
Q 1447 2259 1447 1791 
Q 1447 1309 1634 1061 
Q 1822 813 2181 813 
Q 2531 813 2725 1069 
Q 2919 1325 2919 1791 
Q 2919 2259 2725 2515 
Q 2531 2772 2181 2772 
z
" transform="scale(0.015625)"/>
     </defs>
     <use xlink:href="#DejaVuSans-Bold-45"/>
     <use xlink:href="#DejaVuSans-Bold-72" transform="translate(68.310547 0)"/>
     <use xlink:href="#DejaVuSans-Bold-64" transform="translate(117.626953 0)"/>
     <use xlink:href="#DejaVuSans-Bold-151" transform="translate(189.208984 0)"/>
     <use xlink:href="#DejaVuSans-Bold-73" transform="translate(257.910156 0)"/>
     <use xlink:href="#DejaVuSans-Bold-20" transform="translate(317.431641 0)"/>
     <use xlink:href="#DejaVuSans-Bold-50" transform="translate(352.246094 0)"/>
     <use xlink:href="#DejaVuSans-Bold-72" transform="translate(425.537109 0)"/>
     <use xlink:href="#DejaVuSans-Bold-6f" transform="translate(474.853516 0)"/>
     <use xlink:href="#DejaVuSans-Bold-62" transform="translate(543.554688 0)"/>
     <use xlink:href="#DejaVuSans-Bold-6c" transform="translate(615.136719 0)"/>
     <use xlink:href="#DejaVuSans-Bold-65" transform="translate(649.414062 0)"/>
     <use xlink:href="#DejaVuSans-Bold-6d" transform="translate(717.236328 0)"/>
     <use xlink:href="#DejaVuSans-Bold-73" transform="translate(821.435547 0)"/>
     <use xlink:href="#DejaVuSans-Bold-20" transform="translate(880.957031 0)"/>
     <use xlink:href="#DejaVuSans-Bold-50" transform="translate(915.771484 0)"/>
     <use xlink:href="#DejaVuSans-Bold-72" transform="translate(989.0625 0)"/>
     <use xlink:href="#DejaVuSans-Bold-6f" transform="translate(1038.378906 0)"/>
     <use xlink:href="#DejaVuSans-Bold-67" transform="translate(1107.080078 0)"/>
     <use xlink:href="#DejaVuSans-Bold-72" transform="translate(1178.662109 0)"/>
     <use xlink:href="#DejaVuSans-Bold-65" transform="translate(1227.978516 0)"/>
     <use xlink:href="#DejaVuSans-Bold-73" transform="translate(1295.800781 0)"/>
     <use xlink:href="#DejaVuSans-Bold-73" transform="translate(1355.322266 0)"/>
    </g>
   </g>
   <g id="legend_1">
    <g id="patch_7">
     <path d="M 55.90125 119.788437 
L 213.771563 119.788437 
Q 215.771563 119.788437 215.771563 117.788437 
L 215.771563 45.397812 
Q 215.771563 43.397812 213.771563 43.397812 
L 55.90125 43.397812 
Q 53.90125 43.397812 53.90125 45.397812 
L 53.90125 117.788437 
Q 53.90125 119.788437 55.90125 119.788437 
z
" style="fill: #161b22; opacity: 0.8; stroke: #30363d; stroke-linejoin: miter"/>
    </g>
    <g id="line2d_36">
     <path d="M 57.90125 51.49625 
L 67.90125 51.49625 
L 77.90125 51.49625 
" style="fill: none; stroke: #3fb950; stroke-width: 2; stroke-linecap: square"/>
    </g>
    <g id="text_24">
     <!-- Solved -->
     <g style="fill: #c9d1d9" transform="translate(85.90125 54.99625) scale(0.1 -0.1)">
      <defs>
       <path id="DejaVuSans-6c" d="M 603 4863 
L 1178 4863 
L 1178 0 
L 603 0 
L 603 4863 
z
" transform="scale(0.015625)"/>
       <path id="DejaVuSans-64" d="M 2906 2969 
L 2906 4863 
L 3481 4863 
L 3481 0 
L 2906 0 
L 2906 525 
Q 2725 213 2448 61 
Q 2172 -91 1784 -91 
Q 1150 -91 751 415 
Q 353 922 353 1747 
Q 353 2572 751 3078 
Q 1150 3584 1784 3584 
Q 2172 3584 2448 3432 
Q 2725 3281 2906 2969 
z
M 947 1747 
Q 947 1113 1208 752 
Q 1469 391 1925 391 
Q 2381 391 2643 752 
Q 2906 1113 2906 1747 
Q 2906 2381 2643 2742 
Q 2381 3103 1925 3103 
Q 1469 3103 1208 2742 
Q 947 2381 947 1747 
z
" transform="scale(0.015625)"/>
      </defs>
      <use xlink:href="#DejaVuSans-53"/>
      <use xlink:href="#DejaVuSans-6f" transform="translate(63.476562 0)"/>
      <use xlink:href="#DejaVuSans-6c" transform="translate(124.658203 0)"/>
      <use xlink:href="#DejaVuSans-76" transform="translate(152.441406 0)"/>
      <use xlink:href="#DejaVuSans-65" transform="translate(211.621094 0)"/>
      <use xlink:href="#DejaVuSans-64" transform="translate(273.144531 0)"/>
     </g>
    </g>
    <g id="line2d_37">
     <path d="M 57.90125 66.174375 
L 67.90125 66.174375 
L 77.90125 66.174375 
" style="fill: none; stroke: #58a6ff; stroke-width: 2; stroke-linecap: square"/>
    </g>
    <g id="text_25">
     <!-- Lean Formalized Problem -->
     <g style="fill: #c9d1d9" transform="translate(85.90125 69.674375) scale(0.1 -0.1)">
      <defs>
       <path id="DejaVuSans-4c" d="M 628 4666 
L 1259 4666 
L 1259 531 
L 3531 531 
L 3531 0 
L 628 0 
L 628 4666 
z
" transform="scale(0.015625)"/>
       <path id="DejaVuSans-20" transform="scale(0.015625)"/>
       <path id="DejaVuSans-6d" d="M 3328 2828 
Q 3544 3216 3844 3400 
Q 4144 3584 4550 3584 
Q 5097 3584 5394 3201 
Q 5691 2819 5691 2113 
L 5691 0 
L 5113 0 
L 5113 2094 
Q 5113 2597 4934 2840 
Q 4756 3084 4391 3084 
Q 3944 3084 3684 2787 
Q 3425 2491 3425 1978 
L 3425 0 
L 2847 0 
L 2847 2094 
Q 2847 2600 2669 2842 
Q 2491 3084 2119 3084 
Q 1678 3084 1418 2786 
Q 1159 2488 1159 1978 
L 1159 0 
L 581 0 
L 581 3500 
L 1159 3500 
L 1159 2956 
Q 1356 3278 1631 3431 
Q 1906 3584 2284 3584 
Q 2666 3584 2933 3390 
Q 3200 3197 3328 2828 
z
" transform="scale(0.015625)"/>
       <path id="DejaVuSans-69" d="M 603 3500 
L 1178 3500 
L 1178 0 
L 603 0 
L 603 3500 
z
M 603 4863 
L 1178 4863 
L 1178 4134 
L 603 4134 
L 603 4863 
z
" transform="scale(0.015625)"/>
       <path id="DejaVuSans-7a" d="M 353 3500 
L 3084 3500 
L 3084 2975 
L 922 459 
L 3084 459 
L 3084 0 
L 275 0 
L 275 525 
L 2438 3041 
L 353 3041 
L 353 3500 
z
" transform="scale(0.015625)"/>
       <path id="DejaVuSans-50" d="M 1259 4147 
L 1259 2394 
L 2053 2394 
Q 2494 2394 2734 2622 
Q 2975 2850 2975 3272 
Q 2975 3691 2734 3919 
Q 2494 4147 2053 4147 
L 1259 4147 
z
M 628 4666 
L 2053 4666 
Q 2838 4666 3239 4311 
Q 3641 3956 3641 3272 
Q 3641 2581 3239 2228 
Q 2838 1875 2053 1875 
L 1259 1875 
L 1259 0 
L 628 0 
L 628 4666 
z
" transform="scale(0.015625)"/>
      </defs>
      <use xlink:href="#DejaVuSans-4c"/>
      <use xlink:href="#DejaVuSans-65" transform="translate(53.962891 0)"/>
      <use xlink:href="#DejaVuSans-61" transform="translate(115.486328 0)"/>
      <use xlink:href="#DejaVuSans-6e" transform="translate(176.765625 0)"/>
      <use xlink:href="#DejaVuSans-20" transform="translate(240.144531 0)"/>
      <use xlink:href="#DejaVuSans-46" transform="translate(271.931641 0)"/>
      <use xlink:href="#DejaVuSans-6f" transform="translate(325.826172 0)"/>
      <use xlink:href="#DejaVuSans-72" transform="translate(387.007812 0)"/>
      <use xlink:href="#DejaVuSans-6d" transform="translate(426.371094 0)"/>
      <use xlink:href="#DejaVuSans-61" transform="translate(523.783203 0)"/>
      <use xlink:href="#DejaVuSans-6c" transform="translate(585.0625 0)"/>
      <use xlink:href="#DejaVuSans-69" transform="translate(612.845703 0)"/>
      <use xlink:href="#DejaVuSans-7a" transform="translate(640.628906 0)"/>
      <use xlink:href="#DejaVuSans-65" transform="translate(693.119141 0)"/>
      <use xlink:href="#DejaVuSans-64" transform="translate(754.642578 0)"/>
      <use xlink:href="#DejaVuSans-20" transform="translate(818.119141 0)"/>
      <use xlink:href="#DejaVuSans-50" transform="translate(849.90625 0)"/>
      <use xlink:href="#DejaVuSans-72" transform="translate(908.458984 0)"/>
      <use xlink:href="#DejaVuSans-6f" transform="translate(947.322266 0)"/>
      <use xlink:href="#DejaVuSans-62" transform="translate(1008.503906 0)"/>
      <use xlink:href="#DejaVuSans-6c" transform="translate(1071.980469 0)"/>
      <use xlink:href="#DejaVuSans-65" transform="translate(1099.763672 0)"/>
      <use xlink:href="#DejaVuSans-6d" transform="translate(1161.287109 0)"/>
     </g>
    </g>
    <g id="line2d_38">
     <path d="M 57.90125 80.8525 
L 67.90125 80.8525 
L 77.90125 80.8525 
" style="fill: none; stroke: #d29922; stroke-width: 2; stroke-linecap: square"/>
    </g>
    <g id="text_26">
     <!-- Lean Formalized Solution -->
     <g style="fill: #c9d1d9" transform="translate(85.90125 84.3525) scale(0.1 -0.1)">
      <use xlink:href="#DejaVuSans-4c"/>
      <use xlink:href="#DejaVuSans-65" transform="translate(53.962891 0)"/>
      <use xlink:href="#DejaVuSans-61" transform="translate(115.486328 0)"/>
      <use xlink:href="#DejaVuSans-6e" transform="translate(176.765625 0)"/>
      <use xlink:href="#DejaVuSans-20" transform="translate(240.144531 0)"/>
      <use xlink:href="#DejaVuSans-46" transform="translate(271.931641 0)"/>
      <use xlink:href="#DejaVuSans-6f" transform="translate(325.826172 0)"/>
      <use xlink:href="#DejaVuSans-72" transform="translate(387.007812 0)"/>
      <use xlink:href="#DejaVuSans-6d" transform="translate(426.371094 0)"/>
      <use xlink:href="#DejaVuSans-61" transform="translate(523.783203 0)"/>
      <use xlink:href="#DejaVuSans-6c" transform="translate(585.0625 0)"/>
      <use xlink:href="#DejaVuSans-69" transform="translate(612.845703 0)"/>
      <use xlink:href="#DejaVuSans-7a" transform="translate(640.628906 0)"/>
      <use xlink:href="#DejaVuSans-65" transform="translate(693.119141 0)"/>
      <use xlink:href="#DejaVuSans-64" transform="translate(754.642578 0)"/>
      <use xlink:href="#DejaVuSans-20" transform="translate(818.119141 0)"/>
      <use xlink:href="#DejaVuSans-53" transform="translate(849.90625 0)"/>
      <use xlink:href="#DejaVuSans-6f" transform="translate(913.382812 0)"/>
      <use xlink:href="#DejaVuSans-6c" transform="translate(974.564453 0)"/>
      <use xlink:href="#DejaVuSans-75" transform="translate(1002.347656 0)"/>
      <use xlink:href="#DejaVuSans-74" transform="translate(1065.726562 0)"/>
      <use xlink:href="#DejaVuSans-69" transform="translate(1104.935547 0)"/>
      <use xlink:href="#DejaVuSans-6f" transform="translate(1132.71875 0)"/>
      <use xlink:href="#DejaVuSans-6e" transform="translate(1193.900391 0)"/>
     </g>
    </g>
    <g id="line2d_39">
     <path d="M 57.90125 95.530625 
L 67.90125 95.530625 
L 77.90125 95.530625 
" style="fill: none; stroke: #f85149; stroke-width: 2; stroke-linecap: square"/>
    </g>
    <g id="text_27">
     <!-- OEIS Linked -->
     <g style="fill: #c9d1d9" transform="translate(85.90125 99.030625) scale(0.1 -0.1)">
      <defs>
       <path id="DejaVuSans-45" d="M 628 4666 
L 3578 4666 
L 3578 4134 
L 1259 4134 
L 1259 2753 
L 3481 2753 
L 3481 2222 
L 1259 2222 
L 1259 531 
L 3634 531 
L 3634 0 
L 628 0 
L 628 4666 
z
" transform="scale(0.015625)"/>
       <path id="DejaVuSans-49" d="M 628 4666 
L 1259 4666 
L 1259 0 
L 628 0 
L 628 4666 
z
" transform="scale(0.015625)"/>
       <path id="DejaVuSans-6b" d="M 581 4863 
L 1159 4863 
L 1159 1991 
L 2875 3500 
L 3609 3500 
L 1753 1863 
L 3688 0 
L 2938 0 
L 1159 1709 
L 1159 0 
L 581 0 
L 581 4863 
z
" transform="scale(0.015625)"/>
      </defs>
      <use xlink:href="#DejaVuSans-4f"/>
      <use xlink:href="#DejaVuSans-45" transform="translate(78.710938 0)"/>
      <use xlink:href="#DejaVuSans-49" transform="translate(141.894531 0)"/>
      <use xlink:href="#DejaVuSans-53" transform="translate(171.386719 0)"/>
      <use xlink:href="#DejaVuSans-20" transform="translate(234.863281 0)"/>
      <use xlink:href="#DejaVuSans-4c" transform="translate(266.650391 0)"/>
      <use xlink:href="#DejaVuSans-69" transform="translate(322.363281 0)"/>
      <use xlink:href="#DejaVuSans-6e" transform="translate(350.146484 0)"/>
      <use xlink:href="#DejaVuSans-6b" transform="translate(413.525391 0)"/>
      <use xlink:href="#DejaVuSans-65" transform="translate(467.810547 0)"/>
      <use xlink:href="#DejaVuSans-64" transform="translate(529.333984 0)"/>
     </g>
    </g>
    <g id="line2d_40">
     <path d="M 57.90125 110.20875 
L 67.90125 110.20875 
L 77.90125 110.20875 
" style="fill: none; stroke: #9467bd; stroke-width: 2; stroke-linecap: square"/>
    </g>
    <g id="text_28">
     <!-- Open Problems -->
     <g style="fill: #c9d1d9" transform="translate(85.90125 113.70875) scale(0.1 -0.1)">
      <defs>
       <path id="DejaVuSans-73" d="M 2834 3397 
L 2834 2853 
Q 2591 2978 2328 3040 
Q 2066 3103 1784 3103 
Q 1356 3103 1142 2972 
Q 928 2841 928 2578 
Q 928 2378 1081 2264 
Q 1234 2150 1697 2047 
L 1894 2003 
Q 2506 1872 2764 1633 
Q 3022 1394 3022 966 
Q 3022 478 2636 193 
Q 2250 -91 1575 -91 
Q 1294 -91 989 -36 
Q 684 19 347 128 
L 347 722 
Q 666 556 975 473 
Q 1284 391 1588 391 
Q 1994 391 2212 530 
Q 2431 669 2431 922 
Q 2431 1156 2273 1281 
Q 2116 1406 1581 1522 
L 1381 1569 
Q 847 1681 609 1914 
Q 372 2147 372 2553 
Q 372 3047 722 3315 
Q 1072 3584 1716 3584 
Q 2034 3584 2315 3537 
Q 2597 3491 2834 3397 
z
" transform="scale(0.015625)"/>
      </defs>
      <use xlink:href="#DejaVuSans-4f"/>
      <use xlink:href="#DejaVuSans-70" transform="translate(78.710938 0)"/>
      <use xlink:href="#DejaVuSans-65" transform="translate(142.1875 0)"/>
      <use xlink:href="#DejaVuSans-6e" transform="translate(203.710938 0)"/>
      <use xlink:href="#DejaVuSans-20" transform="translate(267.089844 0)"/>
      <use xlink:href="#DejaVuSans-50" transform="translate(298.876953 0)"/>
      <use xlink:href="#DejaVuSans-72" transform="translate(357.429688 0)"/>
      <use xlink:href="#DejaVuSans-6f" transform="translate(396.292969 0)"/>
      <use xlink:href="#DejaVuSans-62" transform="translate(457.474609 0)"/>
      <use xlink:href="#DejaVuSans-6c" transform="translate(520.951172 0)"/>
      <use xlink:href="#DejaVuSans-65" transform="translate(548.734375 0)"/>
      <use xlink:href="#DejaVuSans-6d" transform="translate(610.257812 0)"/>
      <use xlink:href="#DejaVuSans-73" transform="translate(707.669922 0)"/>
     </g>
    </g>
   </g>
  </g>
 </g>
 <defs>
  <clipPath id="pbd9e6e53e9">
   <rect x="48.90125" y="38.397812" width="799.45" height="416.84"/>
  </clipPath>
 </defs>
</svg>
