<?xml version="1.0" encoding="utf-8" standalone="no"?>
<!DOCTYPE svg PUBLIC "-//W3C//DTD SVG 1.1//EN"
  "http://www.w3.org/Graphics/SVG/1.1/DTD/svg11.dtd">
<svg xmlns:xlink="http://www.w3.org/1999/xlink" width="855.55125pt" height="494.729687pt" viewBox="0 0 855.55125 494.729687" xmlns="http://www.w3.org/2000/svg" version="1.1">
 <metadata>
  <rdf:RDF xmlns:dc="http://purl.org/dc/elements/1.1/" xmlns:cc="http://creativecommons.org/ns#" xmlns:rdf="http://www.w3.org/1999/02/22-rdf-syntax-ns#">
   <cc:Work>
    <dc:type rdf:resource="http://purl.org/dc/dcmitype/StillImage"/>
    <dc:date>2026-04-29T19:13:08.208189</dc:date>
    <dc:format>image/svg+xml</dc:format>
    <dc:creator>
     <cc:Agent>
      <dc:title>Matplotlib v3.10.7, https://matplotlib.org/</dc:title>
     </cc:Agent>
    </dc:creator>
   </cc:Work>
  </rdf:RDF>
 </metadata>
 <defs>
  <style type="text/css">*{stroke-linejoin: round; stroke-linecap: butt}</style>
 </defs>
 <g id="figure_1">
  <g id="patch_1">
   <path d="M 0 494.729687 
L 855.55125 494.729687 
L 855.55125 0 
L 0 0 
z
" style="fill: #ffffff"/>
  </g>
  <g id="axes_1">
   <g id="patch_2">
    <path d="M 48.90125 455.237812 
L 848.35125 455.237812 
L 848.35125 38.397812 
L 48.90125 38.397812 
z
" style="fill: #ffffff"/>
   </g>
   <g id="matplotlib.axis_1">
    <g id="xtick_1">
     <g id="line2d_1">
      <path d="M 86.121136 455.237812 
L 86.121136 38.397812 
" clip-path="url(#pfb82d5ea64)" style="fill: none; stroke: #d0d7de; stroke-opacity: 0.25; stroke-width: 0.5; stroke-linecap: square"/>
     </g>
     <g id="line2d_2">
      <defs>
       <path id="m2d7df6af69" d="M 0 0 
L 0 3.5 
" style="stroke: #24292f; stroke-width: 0.8"/>
      </defs>
      <g>
       <use xlink:href="#m2d7df6af69" x="86.121136" y="455.237812" style="fill: #24292f; stroke: #24292f; stroke-width: 0.8"/>
      </g>
     </g>
     <g id="text_1">
      <!-- Sep -->
      <g style="fill: #24292f" transform="translate(76.696136 469.83625) scale(0.1 -0.1)">
       <defs>
        <path id="DejaVuSans-53" d="M 3425 4513 
L 3425 3897 
Q 3066 4069 2747 4153 
Q 2428 4238 2131 4238 
Q 1616 4238 1336 4038 
Q 1056 3838 1056 3469 
Q 1056 3159 1242 3001 
Q 1428 2844 1947 2747 
L 2328 2669 
Q 3034 2534 3370 2195 
Q 3706 1856 3706 1288 
Q 3706 609 3251 259 
Q 2797 -91 1919 -91 
Q 1588 -91 1214 -16 
Q 841 59 441 206 
L 441 856 
Q 825 641 1194 531 
Q 1563 422 1919 422 
Q 2459 422 2753 634 
Q 3047 847 3047 1241 
Q 3047 1584 2836 1778 
Q 2625 1972 2144 2069 
L 1759 2144 
Q 1053 2284 737 2584 
Q 422 2884 422 3419 
Q 422 4038 858 4394 
Q 1294 4750 2059 4750 
Q 2388 4750 2728 4690 
Q 3069 4631 3425 4513 
z
" transform="scale(0.015625)"/>
        <path id="DejaVuSans-65" d="M 3597 1894 
L 3597 1613 
L 953 1613 
Q 991 1019 1311 708 
Q 1631 397 2203 397 
Q 2534 397 2845 478 
Q 3156 559 3463 722 
L 3463 178 
Q 3153 47 2828 -22 
Q 2503 -91 2169 -91 
Q 1331 -91 842 396 
Q 353 884 353 1716 
Q 353 2575 817 3079 
Q 1281 3584 2069 3584 
Q 2775 3584 3186 3129 
Q 3597 2675 3597 1894 
z
M 3022 2063 
Q 3016 2534 2758 2815 
Q 2500 3097 2075 3097 
Q 1594 3097 1305 2825 
Q 1016 2553 972 2059 
L 3022 2063 
z
" transform="scale(0.015625)"/>
        <path id="DejaVuSans-70" d="M 1159 525 
L 1159 -1331 
L 581 -1331 
L 581 3500 
L 1159 3500 
L 1159 2969 
Q 1341 3281 1617 3432 
Q 1894 3584 2278 3584 
Q 2916 3584 3314 3078 
Q 3713 2572 3713 1747 
Q 3713 922 3314 415 
Q 2916 -91 2278 -91 
Q 1894 -91 1617 61 
Q 1341 213 1159 525 
z
M 3116 1747 
Q 3116 2381 2855 2742 
Q 2594 3103 2138 3103 
Q 1681 3103 1420 2742 
Q 1159 2381 1159 1747 
Q 1159 1113 1420 752 
Q 1681 391 2138 391 
Q 2594 391 2855 752 
Q 3116 1113 3116 1747 
z
" transform="scale(0.015625)"/>
       </defs>
       <use xlink:href="#DejaVuSans-53"/>
       <use xlink:href="#DejaVuSans-65" transform="translate(63.476562 0)"/>
       <use xlink:href="#DejaVuSans-70" transform="translate(125 0)"/>
      </g>
     </g>
    </g>
    <g id="xtick_2">
     <g id="line2d_3">
      <path d="M 176.555825 455.237812 
L 176.555825 38.397812 
" clip-path="url(#pfb82d5ea64)" style="fill: none; stroke: #d0d7de; stroke-opacity: 0.25; stroke-width: 0.5; stroke-linecap: square"/>
     </g>
     <g id="line2d_4">
      <g>
       <use xlink:href="#m2d7df6af69" x="176.555825" y="455.237812" style="fill: #24292f; stroke: #24292f; stroke-width: 0.8"/>
      </g>
     </g>
     <g id="text_2">
      <!-- Oct -->
      <g style="fill: #24292f" transform="translate(167.910513 469.83625) scale(0.1 -0.1)">
       <defs>
        <path id="DejaVuSans-4f" d="M 2522 4238 
Q 1834 4238 1429 3725 
Q 1025 3213 1025 2328 
Q 1025 1447 1429 934 
Q 1834 422 2522 422 
Q 3209 422 3611 934 
Q 4013 1447 4013 2328 
Q 4013 3213 3611 3725 
Q 3209 4238 2522 4238 
z
M 2522 4750 
Q 3503 4750 4090 4092 
Q 4678 3434 4678 2328 
Q 4678 1225 4090 567 
Q 3503 -91 2522 -91 
Q 1538 -91 948 565 
Q 359 1222 359 2328 
Q 359 3434 948 4092 
Q 1538 4750 2522 4750 
z
" transform="scale(0.015625)"/>
        <path id="DejaVuSans-63" d="M 3122 3366 
L 3122 2828 
Q 2878 2963 2633 3030 
Q 2388 3097 2138 3097 
Q 1578 3097 1268 2742 
Q 959 2388 959 1747 
Q 959 1106 1268 751 
Q 1578 397 2138 397 
Q 2388 397 2633 464 
Q 2878 531 3122 666 
L 3122 134 
Q 2881 22 2623 -34 
Q 2366 -91 2075 -91 
Q 1284 -91 818 406 
Q 353 903 353 1747 
Q 353 2603 823 3093 
Q 1294 3584 2113 3584 
Q 2378 3584 2631 3529 
Q 2884 3475 3122 3366 
z
" transform="scale(0.015625)"/>
        <path id="DejaVuSans-74" d="M 1172 4494 
L 1172 3500 
L 2356 3500 
L 2356 3053 
L 1172 3053 
L 1172 1153 
Q 1172 725 1289 603 
Q 1406 481 1766 481 
L 2356 481 
L 2356 0 
L 1766 0 
Q 1100 0 847 248 
Q 594 497 594 1153 
L 594 3053 
L 172 3053 
L 172 3500 
L 594 3500 
L 594 4494 
L 1172 4494 
z
" transform="scale(0.015625)"/>
       </defs>
       <use xlink:href="#DejaVuSans-4f"/>
       <use xlink:href="#DejaVuSans-63" transform="translate(78.710938 0)"/>
       <use xlink:href="#DejaVuSans-74" transform="translate(133.691406 0)"/>
      </g>
     </g>
    </g>
    <g id="xtick_3">
     <g id="line2d_5">
      <path d="M 270.005004 455.237812 
L 270.005004 38.397812 
" clip-path="url(#pfb82d5ea64)" style="fill: none; stroke: #d0d7de; stroke-opacity: 0.25; stroke-width: 0.5; stroke-linecap: square"/>
     </g>
     <g id="line2d_6">
      <g>
       <use xlink:href="#m2d7df6af69" x="270.005004" y="455.237812" style="fill: #24292f; stroke: #24292f; stroke-width: 0.8"/>
      </g>
     </g>
     <g id="text_3">
      <!-- Nov -->
      <g style="fill: #24292f" transform="translate(260.245629 469.83625) scale(0.1 -0.1)">
       <defs>
        <path id="DejaVuSans-4e" d="M 628 4666 
L 1478 4666 
L 3547 763 
L 3547 4666 
L 4159 4666 
L 4159 0 
L 3309 0 
L 1241 3903 
L 1241 0 
L 628 0 
L 628 4666 
z
" transform="scale(0.015625)"/>
        <path id="DejaVuSans-6f" d="M 1959 3097 
Q 1497 3097 1228 2736 
Q 959 2375 959 1747 
Q 959 1119 1226 758 
Q 1494 397 1959 397 
Q 2419 397 2687 759 
Q 2956 1122 2956 1747 
Q 2956 2369 2687 2733 
Q 2419 3097 1959 3097 
z
M 1959 3584 
Q 2709 3584 3137 3096 
Q 3566 2609 3566 1747 
Q 3566 888 3137 398 
Q 2709 -91 1959 -91 
Q 1206 -91 779 398 
Q 353 888 353 1747 
Q 353 2609 779 3096 
Q 1206 3584 1959 3584 
z
" transform="scale(0.015625)"/>
        <path id="DejaVuSans-76" d="M 191 3500 
L 800 3500 
L 1894 563 
L 2988 3500 
L 3597 3500 
L 2284 0 
L 1503 0 
L 191 3500 
z
" transform="scale(0.015625)"/>
       </defs>
       <use xlink:href="#DejaVuSans-4e"/>
       <use xlink:href="#DejaVuSans-6f" transform="translate(74.804688 0)"/>
       <use xlink:href="#DejaVuSans-76" transform="translate(135.986328 0)"/>
      </g>
     </g>
    </g>
    <g id="xtick_4">
     <g id="line2d_7">
      <path d="M 360.439693 455.237812 
L 360.439693 38.397812 
" clip-path="url(#pfb82d5ea64)" style="fill: none; stroke: #d0d7de; stroke-opacity: 0.25; stroke-width: 0.5; stroke-linecap: square"/>
     </g>
     <g id="line2d_8">
      <g>
       <use xlink:href="#m2d7df6af69" x="360.439693" y="455.237812" style="fill: #24292f; stroke: #24292f; stroke-width: 0.8"/>
      </g>
     </g>
     <g id="text_4">
      <!-- Dec -->
      <g style="fill: #24292f" transform="translate(350.763912 469.83625) scale(0.1 -0.1)">
       <defs>
        <path id="DejaVuSans-44" d="M 1259 4147 
L 1259 519 
L 2022 519 
Q 2988 519 3436 956 
Q 3884 1394 3884 2338 
Q 3884 3275 3436 3711 
Q 2988 4147 2022 4147 
L 1259 4147 
z
M 628 4666 
L 1925 4666 
Q 3281 4666 3915 4102 
Q 4550 3538 4550 2338 
Q 4550 1131 3912 565 
Q 3275 0 1925 0 
L 628 0 
L 628 4666 
z
" transform="scale(0.015625)"/>
       </defs>
       <use xlink:href="#DejaVuSans-44"/>
       <use xlink:href="#DejaVuSans-65" transform="translate(77.001953 0)"/>
       <use xlink:href="#DejaVuSans-63" transform="translate(138.525391 0)"/>
      </g>
     </g>
    </g>
    <g id="xtick_5">
     <g id="line2d_9">
      <path d="M 453.888872 455.237812 
L 453.888872 38.397812 
" clip-path="url(#pfb82d5ea64)" style="fill: none; stroke: #d0d7de; stroke-opacity: 0.25; stroke-width: 0.5; stroke-linecap: square"/>
     </g>
     <g id="line2d_10">
      <g>
       <use xlink:href="#m2d7df6af69" x="453.888872" y="455.237812" style="fill: #24292f; stroke: #24292f; stroke-width: 0.8"/>
      </g>
     </g>
     <g id="text_5">
      <!-- 2026 -->
      <g style="fill: #24292f" transform="translate(441.163872 469.83625) scale(0.1 -0.1)">
       <defs>
        <path id="DejaVuSans-32" d="M 1228 531 
L 3431 531 
L 3431 0 
L 469 0 
L 469 531 
Q 828 903 1448 1529 
Q 2069 2156 2228 2338 
Q 2531 2678 2651 2914 
Q 2772 3150 2772 3378 
Q 2772 3750 2511 3984 
Q 2250 4219 1831 4219 
Q 1534 4219 1204 4116 
Q 875 4013 500 3803 
L 500 4441 
Q 881 4594 1212 4672 
Q 1544 4750 1819 4750 
Q 2544 4750 2975 4387 
Q 3406 4025 3406 3419 
Q 3406 3131 3298 2873 
Q 3191 2616 2906 2266 
Q 2828 2175 2409 1742 
Q 1991 1309 1228 531 
z
" transform="scale(0.015625)"/>
        <path id="DejaVuSans-30" d="M 2034 4250 
Q 1547 4250 1301 3770 
Q 1056 3291 1056 2328 
Q 1056 1369 1301 889 
Q 1547 409 2034 409 
Q 2525 409 2770 889 
Q 3016 1369 3016 2328 
Q 3016 3291 2770 3770 
Q 2525 4250 2034 4250 
z
M 2034 4750 
Q 2819 4750 3233 4129 
Q 3647 3509 3647 2328 
Q 3647 1150 3233 529 
Q 2819 -91 2034 -91 
Q 1250 -91 836 529 
Q 422 1150 422 2328 
Q 422 3509 836 4129 
Q 1250 4750 2034 4750 
z
" transform="scale(0.015625)"/>
        <path id="DejaVuSans-36" d="M 2113 2584 
Q 1688 2584 1439 2293 
Q 1191 2003 1191 1497 
Q 1191 994 1439 701 
Q 1688 409 2113 409 
Q 2538 409 2786 701 
Q 3034 994 3034 1497 
Q 3034 2003 2786 2293 
Q 2538 2584 2113 2584 
z
M 3366 4563 
L 3366 3988 
Q 3128 4100 2886 4159 
Q 2644 4219 2406 4219 
Q 1781 4219 1451 3797 
Q 1122 3375 1075 2522 
Q 1259 2794 1537 2939 
Q 1816 3084 2150 3084 
Q 2853 3084 3261 2657 
Q 3669 2231 3669 1497 
Q 3669 778 3244 343 
Q 2819 -91 2113 -91 
Q 1303 -91 875 529 
Q 447 1150 447 2328 
Q 447 3434 972 4092 
Q 1497 4750 2381 4750 
Q 2619 4750 2861 4703 
Q 3103 4656 3366 4563 
z
" transform="scale(0.015625)"/>
       </defs>
       <use xlink:href="#DejaVuSans-32"/>
       <use xlink:href="#DejaVuSans-30" transform="translate(63.623047 0)"/>
       <use xlink:href="#DejaVuSans-32" transform="translate(127.246094 0)"/>
       <use xlink:href="#DejaVuSans-36" transform="translate(190.869141 0)"/>
      </g>
     </g>
    </g>
    <g id="xtick_6">
     <g id="line2d_11">
      <path d="M 547.338051 455.237812 
L 547.338051 38.397812 
" clip-path="url(#pfb82d5ea64)" style="fill: none; stroke: #d0d7de; stroke-opacity: 0.25; stroke-width: 0.5; stroke-linecap: square"/>
     </g>
     <g id="line2d_12">
      <g>
       <use xlink:href="#m2d7df6af69" x="547.338051" y="455.237812" style="fill: #24292f; stroke: #24292f; stroke-width: 0.8"/>
      </g>
     </g>
     <g id="text_6">
      <!-- Feb -->
      <g style="fill: #24292f" transform="translate(538.486488 469.83625) scale(0.1 -0.1)">
       <defs>
        <path id="DejaVuSans-46" d="M 628 4666 
L 3309 4666 
L 3309 4134 
L 1259 4134 
L 1259 2759 
L 3109 2759 
L 3109 2228 
L 1259 2228 
L 1259 0 
L 628 0 
L 628 4666 
z
" transform="scale(0.015625)"/>
        <path id="DejaVuSans-62" d="M 3116 1747 
Q 3116 2381 2855 2742 
Q 2594 3103 2138 3103 
Q 1681 3103 1420 2742 
Q 1159 2381 1159 1747 
Q 1159 1113 1420 752 
Q 1681 391 2138 391 
Q 2594 391 2855 752 
Q 3116 1113 3116 1747 
z
M 1159 2969 
Q 1341 3281 1617 3432 
Q 1894 3584 2278 3584 
Q 2916 3584 3314 3078 
Q 3713 2572 3713 1747 
Q 3713 922 3314 415 
Q 2916 -91 2278 -91 
Q 1894 -91 1617 61 
Q 1341 213 1159 525 
L 1159 0 
L 581 0 
L 581 4863 
L 1159 4863 
L 1159 2969 
z
" transform="scale(0.015625)"/>
       </defs>
       <use xlink:href="#DejaVuSans-46"/>
       <use xlink:href="#DejaVuSans-65" transform="translate(52.019531 0)"/>
       <use xlink:href="#DejaVuSans-62" transform="translate(113.542969 0)"/>
      </g>
     </g>
    </g>
    <g id="xtick_7">
     <g id="line2d_13">
      <path d="M 631.743761 455.237812 
L 631.743761 38.397812 
" clip-path="url(#pfb82d5ea64)" style="fill: none; stroke: #d0d7de; stroke-opacity: 0.25; stroke-width: 0.5; stroke-linecap: square"/>
     </g>
     <g id="line2d_14">
      <g>
       <use xlink:href="#m2d7df6af69" x="631.743761" y="455.237812" style="fill: #24292f; stroke: #24292f; stroke-width: 0.8"/>
      </g>
     </g>
     <g id="text_7">
      <!-- Mar -->
      <g style="fill: #24292f" transform="translate(622.310167 469.83625) scale(0.1 -0.1)">
       <defs>
        <path id="DejaVuSans-4d" d="M 628 4666 
L 1569 4666 
L 2759 1491 
L 3956 4666 
L 4897 4666 
L 4897 0 
L 4281 0 
L 4281 4097 
L 3078 897 
L 2444 897 
L 1241 4097 
L 1241 0 
L 628 0 
L 628 4666 
z
" transform="scale(0.015625)"/>
        <path id="DejaVuSans-61" d="M 2194 1759 
Q 1497 1759 1228 1600 
Q 959 1441 959 1056 
Q 959 750 1161 570 
Q 1363 391 1709 391 
Q 2188 391 2477 730 
Q 2766 1069 2766 1631 
L 2766 1759 
L 2194 1759 
z
M 3341 1997 
L 3341 0 
L 2766 0 
L 2766 531 
Q 2569 213 2275 61 
Q 1981 -91 1556 -91 
Q 1019 -91 701 211 
Q 384 513 384 1019 
Q 384 1609 779 1909 
Q 1175 2209 1959 2209 
L 2766 2209 
L 2766 2266 
Q 2766 2663 2505 2880 
Q 2244 3097 1772 3097 
Q 1472 3097 1187 3025 
Q 903 2953 641 2809 
L 641 3341 
Q 956 3463 1253 3523 
Q 1550 3584 1831 3584 
Q 2591 3584 2966 3190 
Q 3341 2797 3341 1997 
z
" transform="scale(0.015625)"/>
        <path id="DejaVuSans-72" d="M 2631 2963 
Q 2534 3019 2420 3045 
Q 2306 3072 2169 3072 
Q 1681 3072 1420 2755 
Q 1159 2438 1159 1844 
L 1159 0 
L 581 0 
L 581 3500 
L 1159 3500 
L 1159 2956 
Q 1341 3275 1631 3429 
Q 1922 3584 2338 3584 
Q 2397 3584 2469 3576 
Q 2541 3569 2628 3553 
L 2631 2963 
z
" transform="scale(0.015625)"/>
       </defs>
       <use xlink:href="#DejaVuSans-4d"/>
       <use xlink:href="#DejaVuSans-61" transform="translate(86.279297 0)"/>
       <use xlink:href="#DejaVuSans-72" transform="translate(147.558594 0)"/>
      </g>
     </g>
    </g>
    <g id="xtick_8">
     <g id="line2d_15">
      <path d="M 725.19294 455.237812 
L 725.19294 38.397812 
" clip-path="url(#pfb82d5ea64)" style="fill: none; stroke: #d0d7de; stroke-opacity: 0.25; stroke-width: 0.5; stroke-linecap: square"/>
     </g>
     <g id="line2d_16">
      <g>
       <use xlink:href="#m2d7df6af69" x="725.19294" y="455.237812" style="fill: #24292f; stroke: #24292f; stroke-width: 0.8"/>
      </g>
     </g>
     <g id="text_8">
      <!-- Apr -->
      <g style="fill: #24292f" transform="translate(716.54294 469.83625) scale(0.1 -0.1)">
       <defs>
        <path id="DejaVuSans-41" d="M 2188 4044 
L 1331 1722 
L 3047 1722 
L 2188 4044 
z
M 1831 4666 
L 2547 4666 
L 4325 0 
L 3669 0 
L 3244 1197 
L 1141 1197 
L 716 0 
L 50 0 
L 1831 4666 
z
" transform="scale(0.015625)"/>
       </defs>
       <use xlink:href="#DejaVuSans-41"/>
       <use xlink:href="#DejaVuSans-70" transform="translate(68.408203 0)"/>
       <use xlink:href="#DejaVuSans-72" transform="translate(131.884766 0)"/>
      </g>
     </g>
    </g>
    <g id="xtick_9">
     <g id="line2d_17">
      <path d="M 815.627629 455.237812 
L 815.627629 38.397812 
" clip-path="url(#pfb82d5ea64)" style="fill: none; stroke: #d0d7de; stroke-opacity: 0.25; stroke-width: 0.5; stroke-linecap: square"/>
     </g>
     <g id="line2d_18">
      <g>
       <use xlink:href="#m2d7df6af69" x="815.627629" y="455.237812" style="fill: #24292f; stroke: #24292f; stroke-width: 0.8"/>
      </g>
     </g>
     <g id="text_9">
      <!-- May -->
      <g style="fill: #24292f" transform="translate(805.290129 469.83625) scale(0.1 -0.1)">
       <defs>
        <path id="DejaVuSans-79" d="M 2059 -325 
Q 1816 -950 1584 -1140 
Q 1353 -1331 966 -1331 
L 506 -1331 
L 506 -850 
L 844 -850 
Q 1081 -850 1212 -737 
Q 1344 -625 1503 -206 
L 1606 56 
L 191 3500 
L 800 3500 
L 1894 763 
L 2988 3500 
L 3597 3500 
L 2059 -325 
z
" transform="scale(0.015625)"/>
       </defs>
       <use xlink:href="#DejaVuSans-4d"/>
       <use xlink:href="#DejaVuSans-61" transform="translate(86.279297 0)"/>
       <use xlink:href="#DejaVuSans-79" transform="translate(147.558594 0)"/>
      </g>
     </g>
    </g>
    <g id="text_10">
     <!-- Date -->
     <g style="fill: #24292f" transform="translate(434.285313 485.034062) scale(0.12 -0.12)">
      <use xlink:href="#DejaVuSans-44"/>
      <use xlink:href="#DejaVuSans-61" transform="translate(77.001953 0)"/>
      <use xlink:href="#DejaVuSans-74" transform="translate(138.28125 0)"/>
      <use xlink:href="#DejaVuSans-65" transform="translate(177.490234 0)"/>
     </g>
    </g>
   </g>
   <g id="matplotlib.axis_2">
    <g id="ytick_1">
     <g id="line2d_19">
      <path d="M 48.90125 455.237812 
L 848.35125 455.237812 
" clip-path="url(#pfb82d5ea64)" style="fill: none; stroke: #d0d7de; stroke-opacity: 0.25; stroke-width: 0.5; stroke-linecap: square"/>
     </g>
     <g id="line2d_20">
      <defs>
       <path id="md711255f07" d="M 0 0 
L -3.5 0 
" style="stroke: #24292f; stroke-width: 0.8"/>
      </defs>
      <g>
       <use xlink:href="#md711255f07" x="48.90125" y="455.237812" style="fill: #24292f; stroke: #24292f; stroke-width: 0.8"/>
      </g>
     </g>
     <g id="text_11">
      <!-- 0 -->
      <g style="fill: #24292f" transform="translate(35.53875 459.037031) scale(0.1 -0.1)">
       <use xlink:href="#DejaVuSans-30"/>
      </g>
     </g>
    </g>
    <g id="ytick_2">
     <g id="line2d_21">
      <path d="M 48.90125 399.659146 
L 848.35125 399.659146 
" clip-path="url(#pfb82d5ea64)" style="fill: none; stroke: #d0d7de; stroke-opacity: 0.25; stroke-width: 0.5; stroke-linecap: square"/>
     </g>
     <g id="line2d_22">
      <g>
       <use xlink:href="#md711255f07" x="48.90125" y="399.659146" style="fill: #24292f; stroke: #24292f; stroke-width: 0.8"/>
      </g>
     </g>
     <g id="text_12">
      <!-- 100 -->
      <g style="fill: #24292f" transform="translate(22.81375 403.458365) scale(0.1 -0.1)">
       <defs>
        <path id="DejaVuSans-31" d="M 794 531 
L 1825 531 
L 1825 4091 
L 703 3866 
L 703 4441 
L 1819 4666 
L 2450 4666 
L 2450 531 
L 3481 531 
L 3481 0 
L 794 0 
L 794 531 
z
" transform="scale(0.015625)"/>
       </defs>
       <use xlink:href="#DejaVuSans-31"/>
       <use xlink:href="#DejaVuSans-30" transform="translate(63.623047 0)"/>
       <use xlink:href="#DejaVuSans-30" transform="translate(127.246094 0)"/>
      </g>
     </g>
    </g>
    <g id="ytick_3">
     <g id="line2d_23">
      <path d="M 48.90125 344.080479 
L 848.35125 344.080479 
" clip-path="url(#pfb82d5ea64)" style="fill: none; stroke: #d0d7de; stroke-opacity: 0.25; stroke-width: 0.5; stroke-linecap: square"/>
     </g>
     <g id="line2d_24">
      <g>
       <use xlink:href="#md711255f07" x="48.90125" y="344.080479" style="fill: #24292f; stroke: #24292f; stroke-width: 0.8"/>
      </g>
     </g>
     <g id="text_13">
      <!-- 200 -->
      <g style="fill: #24292f" transform="translate(22.81375 347.879698) scale(0.1 -0.1)">
       <use xlink:href="#DejaVuSans-32"/>
       <use xlink:href="#DejaVuSans-30" transform="translate(63.623047 0)"/>
       <use xlink:href="#DejaVuSans-30" transform="translate(127.246094 0)"/>
      </g>
     </g>
    </g>
    <g id="ytick_4">
     <g id="line2d_25">
      <path d="M 48.90125 288.501812 
L 848.35125 288.501812 
" clip-path="url(#pfb82d5ea64)" style="fill: none; stroke: #d0d7de; stroke-opacity: 0.25; stroke-width: 0.5; stroke-linecap: square"/>
     </g>
     <g id="line2d_26">
      <g>
       <use xlink:href="#md711255f07" x="48.90125" y="288.501812" style="fill: #24292f; stroke: #24292f; stroke-width: 0.8"/>
      </g>
     </g>
     <g id="text_14">
      <!-- 300 -->
      <g style="fill: #24292f" transform="translate(22.81375 292.301031) scale(0.1 -0.1)">
       <defs>
        <path id="DejaVuSans-33" d="M 2597 2516 
Q 3050 2419 3304 2112 
Q 3559 1806 3559 1356 
Q 3559 666 3084 287 
Q 2609 -91 1734 -91 
Q 1441 -91 1130 -33 
Q 819 25 488 141 
L 488 750 
Q 750 597 1062 519 
Q 1375 441 1716 441 
Q 2309 441 2620 675 
Q 2931 909 2931 1356 
Q 2931 1769 2642 2001 
Q 2353 2234 1838 2234 
L 1294 2234 
L 1294 2753 
L 1863 2753 
Q 2328 2753 2575 2939 
Q 2822 3125 2822 3475 
Q 2822 3834 2567 4026 
Q 2313 4219 1838 4219 
Q 1578 4219 1281 4162 
Q 984 4106 628 3988 
L 628 4550 
Q 988 4650 1302 4700 
Q 1616 4750 1894 4750 
Q 2613 4750 3031 4423 
Q 3450 4097 3450 3541 
Q 3450 3153 3228 2886 
Q 3006 2619 2597 2516 
z
" transform="scale(0.015625)"/>
       </defs>
       <use xlink:href="#DejaVuSans-33"/>
       <use xlink:href="#DejaVuSans-30" transform="translate(63.623047 0)"/>
       <use xlink:href="#DejaVuSans-30" transform="translate(127.246094 0)"/>
      </g>
     </g>
    </g>
    <g id="ytick_5">
     <g id="line2d_27">
      <path d="M 48.90125 232.923146 
L 848.35125 232.923146 
" clip-path="url(#pfb82d5ea64)" style="fill: none; stroke: #d0d7de; stroke-opacity: 0.25; stroke-width: 0.5; stroke-linecap: square"/>
     </g>
     <g id="line2d_28">
      <g>
       <use xlink:href="#md711255f07" x="48.90125" y="232.923146" style="fill: #24292f; stroke: #24292f; stroke-width: 0.8"/>
      </g>
     </g>
     <g id="text_15">
      <!-- 400 -->
      <g style="fill: #24292f" transform="translate(22.81375 236.722365) scale(0.1 -0.1)">
       <defs>
        <path id="DejaVuSans-34" d="M 2419 4116 
L 825 1625 
L 2419 1625 
L 2419 4116 
z
M 2253 4666 
L 3047 4666 
L 3047 1625 
L 3713 1625 
L 3713 1100 
L 3047 1100 
L 3047 0 
L 2419 0 
L 2419 1100 
L 313 1100 
L 313 1709 
L 2253 4666 
z
" transform="scale(0.015625)"/>
       </defs>
       <use xlink:href="#DejaVuSans-34"/>
       <use xlink:href="#DejaVuSans-30" transform="translate(63.623047 0)"/>
       <use xlink:href="#DejaVuSans-30" transform="translate(127.246094 0)"/>
      </g>
     </g>
    </g>
    <g id="ytick_6">
     <g id="line2d_29">
      <path d="M 48.90125 177.344479 
L 848.35125 177.344479 
" clip-path="url(#pfb82d5ea64)" style="fill: none; stroke: #d0d7de; stroke-opacity: 0.25; stroke-width: 0.5; stroke-linecap: square"/>
     </g>
     <g id="line2d_30">
      <g>
       <use xlink:href="#md711255f07" x="48.90125" y="177.344479" style="fill: #24292f; stroke: #24292f; stroke-width: 0.8"/>
      </g>
     </g>
     <g id="text_16">
      <!-- 500 -->
      <g style="fill: #24292f" transform="translate(22.81375 181.143698) scale(0.1 -0.1)">
       <defs>
        <path id="DejaVuSans-35" d="M 691 4666 
L 3169 4666 
L 3169 4134 
L 1269 4134 
L 1269 2991 
Q 1406 3038 1543 3061 
Q 1681 3084 1819 3084 
Q 2600 3084 3056 2656 
Q 3513 2228 3513 1497 
Q 3513 744 3044 326 
Q 2575 -91 1722 -91 
Q 1428 -91 1123 -41 
Q 819 9 494 109 
L 494 744 
Q 775 591 1075 516 
Q 1375 441 1709 441 
Q 2250 441 2565 725 
Q 2881 1009 2881 1497 
Q 2881 1984 2565 2268 
Q 2250 2553 1709 2553 
Q 1456 2553 1204 2497 
Q 953 2441 691 2322 
L 691 4666 
z
" transform="scale(0.015625)"/>
       </defs>
       <use xlink:href="#DejaVuSans-35"/>
       <use xlink:href="#DejaVuSans-30" transform="translate(63.623047 0)"/>
       <use xlink:href="#DejaVuSans-30" transform="translate(127.246094 0)"/>
      </g>
     </g>
    </g>
    <g id="ytick_7">
     <g id="line2d_31">
      <path d="M 48.90125 121.765812 
L 848.35125 121.765812 
" clip-path="url(#pfb82d5ea64)" style="fill: none; stroke: #d0d7de; stroke-opacity: 0.25; stroke-width: 0.5; stroke-linecap: square"/>
     </g>
     <g id="line2d_32">
      <g>
       <use xlink:href="#md711255f07" x="48.90125" y="121.765812" style="fill: #24292f; stroke: #24292f; stroke-width: 0.8"/>
      </g>
     </g>
     <g id="text_17">
      <!-- 600 -->
      <g style="fill: #24292f" transform="translate(22.81375 125.565031) scale(0.1 -0.1)">
       <use xlink:href="#DejaVuSans-36"/>
       <use xlink:href="#DejaVuSans-30" transform="translate(63.623047 0)"/>
       <use xlink:href="#DejaVuSans-30" transform="translate(127.246094 0)"/>
      </g>
     </g>
    </g>
    <g id="ytick_8">
     <g id="line2d_33">
      <path d="M 48.90125 66.187146 
L 848.35125 66.187146 
" clip-path="url(#pfb82d5ea64)" style="fill: none; stroke: #d0d7de; stroke-opacity: 0.25; stroke-width: 0.5; stroke-linecap: square"/>
     </g>
     <g id="line2d_34">
      <g>
       <use xlink:href="#md711255f07" x="48.90125" y="66.187146" style="fill: #24292f; stroke: #24292f; stroke-width: 0.8"/>
      </g>
     </g>
     <g id="text_18">
      <!-- 700 -->
      <g style="fill: #24292f" transform="translate(22.81375 69.986365) scale(0.1 -0.1)">
       <defs>
        <path id="DejaVuSans-37" d="M 525 4666 
L 3525 4666 
L 3525 4397 
L 1831 0 
L 1172 0 
L 2766 4134 
L 525 4134 
L 525 4666 
z
" transform="scale(0.015625)"/>
       </defs>
       <use xlink:href="#DejaVuSans-37"/>
       <use xlink:href="#DejaVuSans-30" transform="translate(63.623047 0)"/>
       <use xlink:href="#DejaVuSans-30" transform="translate(127.246094 0)"/>
      </g>
     </g>
    </g>
    <g id="text_19">
     <!-- Count -->
     <g style="fill: #24292f" transform="translate(16.318125 264.635937) rotate(-90) scale(0.12 -0.12)">
      <defs>
       <path id="DejaVuSans-43" d="M 4122 4306 
L 4122 3641 
Q 3803 3938 3442 4084 
Q 3081 4231 2675 4231 
Q 1875 4231 1450 3742 
Q 1025 3253 1025 2328 
Q 1025 1406 1450 917 
Q 1875 428 2675 428 
Q 3081 428 3442 575 
Q 3803 722 4122 1019 
L 4122 359 
Q 3791 134 3420 21 
Q 3050 -91 2638 -91 
Q 1578 -91 968 557 
Q 359 1206 359 2328 
Q 359 3453 968 4101 
Q 1578 4750 2638 4750 
Q 3056 4750 3426 4639 
Q 3797 4528 4122 4306 
z
" transform="scale(0.015625)"/>
       <path id="DejaVuSans-75" d="M 544 1381 
L 544 3500 
L 1119 3500 
L 1119 1403 
Q 1119 906 1312 657 
Q 1506 409 1894 409 
Q 2359 409 2629 706 
Q 2900 1003 2900 1516 
L 2900 3500 
L 3475 3500 
L 3475 0 
L 2900 0 
L 2900 538 
Q 2691 219 2414 64 
Q 2138 -91 1772 -91 
Q 1169 -91 856 284 
Q 544 659 544 1381 
z
M 1991 3584 
L 1991 3584 
z
" transform="scale(0.015625)"/>
       <path id="DejaVuSans-6e" d="M 3513 2113 
L 3513 0 
L 2938 0 
L 2938 2094 
Q 2938 2591 2744 2837 
Q 2550 3084 2163 3084 
Q 1697 3084 1428 2787 
Q 1159 2491 1159 1978 
L 1159 0 
L 581 0 
L 581 3500 
L 1159 3500 
L 1159 2956 
Q 1366 3272 1645 3428 
Q 1925 3584 2291 3584 
Q 2894 3584 3203 3211 
Q 3513 2838 3513 2113 
z
" transform="scale(0.015625)"/>
      </defs>
      <use xlink:href="#DejaVuSans-43"/>
      <use xlink:href="#DejaVuSans-6f" transform="translate(69.824219 0)"/>
      <use xlink:href="#DejaVuSans-75" transform="translate(131.005859 0)"/>
      <use xlink:href="#DejaVuSans-6e" transform="translate(194.384766 0)"/>
      <use xlink:href="#DejaVuSans-74" transform="translate(257.763672 0)"/>
     </g>
    </g>
   </g>
   <g id="line2d_35">
    <path d="M 85.239886 454.682026 
L 85.297629 454.682026 
L 85.436945 454.126239 
L 85.515447 454.126239 
L 85.708493 257.933546 
L 88.136867 257.933546 
L 88.147962 261.268266 
L 91.085833 261.268266 
L 91.22801 260.712479 
L 91.635873 260.712479 
L 91.96642 260.156692 
L 94.014633 259.600906 
L 94.05507 260.156692 
L 94.125583 259.600906 
L 100.49596 259.600906 
L 104.322408 260.712479 
L 104.891742 259.600906 
L 105.307456 259.600906 
L 106.3552 259.045119 
L 106.793557 256.821972 
L 107.647104 256.821972 
L 108.89093 260.712479 
L 108.97163 256.821972 
L 109.926079 256.266186 
L 112.410068 256.266186 
L 113.065266 255.710399 
L 114.038485 255.710399 
L 114.299357 254.598826 
L 120.365459 254.598826 
L 120.807898 253.487252 
L 120.830577 252.375679 
L 122.740765 252.375679 
L 125.557429 251.264106 
L 127.034983 251.264106 
L 127.057347 250.708319 
L 130.450602 250.708319 
L 131.292356 247.929386 
L 133.956307 247.929386 
L 133.974798 247.373599 
L 148.894254 247.373599 
L 151.683076 246.817812 
L 151.778291 247.373599 
L 154.670665 246.817812 
L 164.735886 246.817812 
L 169.61437 246.262026 
L 169.708607 245.706239 
L 169.940346 245.150452 
L 172.692464 245.150452 
L 173.863788 244.594666 
L 178.694194 244.594666 
L 178.877575 247.373599 
L 178.886577 245.150452 
L 179.121421 245.150452 
L 180.287582 242.927306 
L 185.997179 242.927306 
L 190.373039 242.371519 
L 195.23652 242.371519 
L 195.449942 241.815732 
L 208.087666 241.815732 
L 208.627029 241.259946 
L 211.695633 241.259946 
L 211.717265 240.148372 
L 217.564049 240.148372 
L 217.68264 236.257866 
L 228.264999 236.257866 
L 228.268174 235.702079 
L 228.574647 235.702079 
L 229.908419 235.146292 
L 231.263858 235.146292 
L 231.694958 234.590506 
L 231.738082 235.146292 
L 232.725257 234.590506 
L 232.729758 234.034719 
L 232.75282 234.590506 
L 233.323061 234.034719 
L 238.517578 234.034719 
L 240.132598 233.478932 
L 242.048962 233.478932 
L 245.303878 232.923146 
L 248.385252 232.923146 
L 250.765931 231.811572 
L 255.975904 231.811572 
L 259.006583 230.699999 
L 259.860479 231.255786 
L 264.090499 231.255786 
L 268.86215 229.032639 
L 275.978473 229.032639 
L 278.185506 228.476852 
L 317.517443 228.476852 
L 317.835081 227.921066 
L 332.178539 227.921066 
L 332.418198 227.365279 
L 356.824992 227.365279 
L 362.199297 226.809492 
L 362.230384 227.365279 
L 366.077591 225.697919 
L 371.723584 225.697919 
L 374.806493 225.142132 
L 374.811552 224.586346 
L 381.244068 224.586346 
L 383.552769 225.142132 
L 384.382696 224.586346 
L 395.147843 224.586346 
L 395.605983 225.142132 
L 396.445225 224.586346 
L 396.733625 222.363199 
L 401.666956 222.363199 
L 401.671213 221.807412 
L 416.767107 221.807412 
L 417.646193 221.251626 
L 420.547361 221.251626 
L 420.830388 220.695839 
L 434.97745 220.695839 
L 434.996675 220.140052 
L 438.535071 220.140052 
L 438.54034 219.584266 
L 439.398946 219.584266 
L 439.44378 219.028479 
L 440.777098 219.028479 
L 440.986577 218.472692 
L 443.840294 218.472692 
L 444.274081 217.361119 
L 445.845069 215.137972 
L 449.643989 215.137972 
L 449.924469 212.359039 
L 451.198335 212.359039 
L 451.823528 211.247466 
L 455.045124 211.247466 
L 456.102219 210.691679 
L 459.128153 210.691679 
L 459.533713 210.135892 
L 467.752419 210.135892 
L 467.95492 209.580106 
L 468.715067 209.580106 
L 469.895219 209.024319 
L 483.18842 209.024319 
L 483.307849 208.468532 
L 483.734064 208.468532 
L 484.623827 207.356959 
L 485.871281 207.356959 
L 486.17123 206.801172 
L 486.460223 206.801172 
L 486.569882 206.245386 
L 489.905917 206.245386 
L 490.473856 205.689599 
L 493.377605 205.689599 
L 493.563777 205.133812 
L 495.154339 205.133812 
L 495.256253 204.578026 
L 500.199353 204.578026 
L 500.305628 204.022239 
L 503.188512 204.022239 
L 504.151405 201.799092 
L 505.218967 201.799092 
L 505.220083 201.243306 
L 509.554808 201.243306 
L 510.349495 200.687519 
L 513.668539 200.687519 
L 514.322272 200.131732 
L 514.568176 200.131732 
L 515.206941 199.575946 
L 516.838603 199.575946 
L 517.027183 199.020159 
L 521.119388 199.020159 
L 522.174215 198.464372 
L 522.251042 197.908586 
L 522.592545 197.908586 
L 523.670434 195.685439 
L 527.013273 195.685439 
L 527.037347 195.129652 
L 530.21875 195.129652 
L 530.403737 194.573866 
L 530.883578 194.573866 
L 531.247375 194.018079 
L 531.323261 194.573866 
L 531.595681 194.018079 
L 532.806013 194.018079 
L 532.817596 193.462292 
L 533.139002 193.462292 
L 533.279748 192.906506 
L 534.25227 192.350719 
L 541.018683 192.350719 
L 542.076266 191.794932 
L 542.784218 191.794932 
L 543.358576 191.239146 
L 543.939598 191.794932 
L 546.331895 191.794932 
L 546.435065 190.683359 
L 549.869385 190.683359 
L 551.201901 189.015999 
L 565.665415 189.015999 
L 566.506018 188.460212 
L 588.831245 188.460212 
L 588.968397 187.904426 
L 621.772987 187.904426 
L 621.917501 187.348639 
L 621.927864 186.792852 
L 621.938156 187.348639 
L 626.719367 187.348639 
L 627.798896 186.792852 
L 646.635235 186.792852 
L 650.511331 186.237066 
L 650.549012 185.681279 
L 650.869895 185.681279 
L 651.875004 185.125492 
L 682.106079 185.125492 
L 682.27847 184.569706 
L 709.283098 184.569706 
L 712.733782 184.013919 
L 714.844518 184.013919 
L 715.07357 183.458132 
L 716.540622 182.902346 
L 720.654737 182.902346 
L 722.387441 182.346559 
L 724.20053 182.346559 
L 724.34173 181.790772 
L 727.323912 181.790772 
L 727.680138 181.234986 
L 727.75065 180.679199 
L 733.060164 180.679199 
L 733.080749 180.123412 
L 737.601542 180.123412 
L 737.61152 179.567626 
L 739.143258 179.011839 
L 741.862509 179.011839 
L 743.819345 178.456052 
L 745.570575 178.456052 
L 748.151662 175.121332 
L 751.165036 175.121332 
L 751.178992 172.342399 
L 766.330326 172.342399 
L 766.331896 171.786612 
L 766.593954 171.230826 
L 768.045166 171.230826 
L 768.360815 170.675039 
L 773.120882 170.675039 
L 774.221276 170.119252 
L 774.40232 170.675039 
L 782.916229 170.675039 
L 782.918148 170.119252 
L 786.355678 170.119252 
L 787.761917 167.340319 
L 796.382834 167.340319 
L 796.474908 166.228746 
L 798.424069 164.561386 
L 800.379859 164.561386 
L 800.588186 164.005599 
L 808.809788 164.005599 
L 808.960966 163.449812 
L 812.012614 163.449812 
L 812.012614 163.449812 
" clip-path="url(#pfb82d5ea64)" style="fill: none; stroke: #1a7f37; stroke-width: 2; stroke-linecap: square"/>
   </g>
   <g id="line2d_36">
    <path d="M 85.239886 455.237812 
L 85.334264 453.570452 
L 85.436945 453.570452 
L 85.597403 372.981386 
L 86.938921 372.981386 
L 86.968194 370.758239 
L 88.435559 370.758239 
L 88.813627 369.090879 
L 89.328044 370.758239 
L 89.331847 369.090879 
L 89.757504 369.090879 
L 89.92201 367.979306 
L 94.125583 367.979306 
L 94.129595 367.423519 
L 94.153251 367.979306 
L 94.360148 367.423519 
L 94.420822 367.979306 
L 94.582641 367.423519 
L 96.057752 367.423519 
L 96.134929 366.867732 
L 96.345141 366.311946 
L 98.010611 366.311946 
L 99.905902 365.756159 
L 99.972611 365.200372 
L 100.484865 364.644586 
L 100.49596 364.088799 
L 104.322408 367.979306 
L 104.891742 366.311946 
L 105.307456 363.533012 
L 107.647104 363.533012 
L 108.89093 367.979306 
L 108.97163 363.533012 
L 131.700359 363.533012 
L 132.397809 362.977226 
L 133.974798 362.977226 
L 138.28182 362.421439 
L 139.33096 361.865652 
L 154.279549 361.865652 
L 154.670665 361.309866 
L 156.680116 360.754079 
L 157.957296 360.754079 
L 159.37299 360.198292 
L 159.411125 359.086719 
L 160.384275 358.530932 
L 161.038321 357.975146 
L 170.048645 357.975146 
L 171.844778 357.419359 
L 172.38777 357.419359 
L 172.692464 356.863572 
L 173.863788 356.863572 
L 175.027472 356.307786 
L 178.694194 356.307786 
L 178.877575 358.530932 
L 178.886577 356.307786 
L 180.287582 356.307786 
L 180.428223 355.751999 
L 182.411297 355.751999 
L 184.362377 355.196212 
L 184.409722 354.640426 
L 190.373039 354.640426 
L 192.888288 354.084639 
L 192.894638 353.528852 
L 201.264592 353.528852 
L 204.756027 352.973066 
L 207.375493 352.973066 
L 208.087666 352.417279 
L 212.086086 352.417279 
L 214.366632 351.861492 
L 214.491642 351.305706 
L 216.715073 351.305706 
L 216.973118 350.749919 
L 217.68264 350.194132 
L 219.266538 350.194132 
L 220.266553 349.638346 
L 222.100054 349.638346 
L 223.296708 349.082559 
L 225.849534 349.082559 
L 226.719236 347.970986 
L 233.323061 347.970986 
L 235.203768 347.415199 
L 237.40909 347.415199 
L 237.906411 346.859412 
L 238.058497 346.303626 
L 238.517578 345.747839 
L 246.111859 345.747839 
L 247.502293 345.192052 
L 248.385252 344.636266 
L 269.980476 344.636266 
L 274.828083 344.080479 
L 274.886 343.524692 
L 278.185506 343.524692 
L 281.005658 342.968906 
L 285.990243 342.968906 
L 286.411434 342.413119 
L 294.900397 342.413119 
L 301.545602 341.857332 
L 301.609381 341.301546 
L 302.47814 341.301546 
L 304.238302 340.745759 
L 304.336482 339.078399 
L 304.413938 338.522612 
L 308.090603 337.966826 
L 308.310759 337.411039 
L 308.398507 336.299466 
L 308.731497 335.743679 
L 320.695741 335.743679 
L 324.094578 335.187892 
L 326.258172 334.632106 
L 327.953125 334.632106 
L 331.883021 334.076319 
L 332.178539 331.853172 
L 332.418198 331.853172 
L 332.98324 330.741599 
L 340.437438 330.185812 
L 340.67469 329.630026 
L 340.744679 329.074239 
L 342.319505 329.074239 
L 343.806619 328.518452 
L 343.977544 327.962666 
L 344.093623 326.851092 
L 345.077973 326.295306 
L 345.15023 325.739519 
L 346.946224 325.183732 
L 349.307016 324.627946 
L 349.474906 324.072159 
L 349.478465 323.516372 
L 349.953317 322.960586 
L 350.037192 322.404799 
L 353.461743 321.849012 
L 354.075666 321.293226 
L 368.492428 321.293226 
L 370.883225 320.737439 
L 371.100799 320.181652 
L 380.871792 320.181652 
L 381.244068 319.070079 
L 385.315129 319.070079 
L 386.544231 318.514292 
L 386.604277 317.402719 
L 386.919891 316.846932 
L 389.009763 316.291146 
L 389.05683 315.735359 
L 389.309084 315.179572 
L 389.354755 313.512212 
L 389.567583 312.956426 
L 389.85553 312.956426 
L 389.866136 312.400639 
L 391.610807 311.844852 
L 392.296708 311.289066 
L 392.462679 310.733279 
L 395.605983 310.177492 
L 397.922464 310.177492 
L 398.726852 309.621706 
L 407.43625 309.621706 
L 410.321612 309.065919 
L 410.33309 308.510132 
L 410.852008 307.954346 
L 417.646193 307.954346 
L 419.552509 307.398559 
L 420.337812 306.842772 
L 420.547361 305.731199 
L 426.043152 305.731199 
L 426.417591 305.175412 
L 429.4355 305.175412 
L 430.880326 304.619626 
L 434.996675 304.619626 
L 437.485199 304.063839 
L 442.65306 304.063839 
L 443.288231 303.508052 
L 445.845069 303.508052 
L 446.541019 302.952266 
L 446.842921 302.396479 
L 446.991622 301.840692 
L 449.096287 301.840692 
L 449.156123 300.729119 
L 449.924469 300.729119 
L 450.428943 299.061759 
L 452.259722 299.061759 
L 452.487099 298.505972 
L 452.663608 298.505972 
L 453.539903 297.950186 
L 454.99408 297.950186 
L 455.045124 297.394399 
L 456.102219 297.394399 
L 456.358974 296.838612 
L 457.352535 296.838612 
L 458.87377 295.727039 
L 459.533713 295.727039 
L 462.086086 294.615466 
L 462.089924 294.059679 
L 462.577231 293.503892 
L 463.820569 292.948106 
L 464.013894 292.392319 
L 465.253533 291.836532 
L 467.27994 291.836532 
L 467.95492 290.724959 
L 470.426313 290.724959 
L 470.496477 290.169172 
L 471.200556 290.169172 
L 471.2546 289.613386 
L 471.640971 289.057599 
L 472.98535 289.057599 
L 473.087612 288.501812 
L 473.317921 288.501812 
L 473.435918 287.946026 
L 473.467982 287.946026 
L 473.577886 287.390239 
L 475.361598 287.390239 
L 475.735967 286.834452 
L 476.050325 286.834452 
L 476.238208 286.278666 
L 476.718014 286.278666 
L 477.07724 285.722879 
L 477.152986 285.167092 
L 477.255668 285.167092 
L 479.061465 284.611306 
L 480.412787 284.611306 
L 480.515084 284.055519 
L 485.845707 284.055519 
L 485.871281 283.499732 
L 486.17123 283.499732 
L 486.768057 282.388159 
L 488.677408 282.388159 
L 488.844357 280.720799 
L 488.893063 279.609226 
L 489.207735 279.053439 
L 490.473856 279.053439 
L 491.070997 278.497652 
L 491.649786 278.497652 
L 491.836412 277.941866 
L 492.733606 277.386079 
L 493.563777 277.386079 
L 495.232737 276.830292 
L 495.343757 276.274506 
L 495.766274 276.274506 
L 495.850812 275.718719 
L 497.334436 275.718719 
L 497.375641 275.162932 
L 504.570677 275.162932 
L 504.681836 274.607146 
L 504.895886 274.607146 
L 504.990786 273.495572 
L 505.917254 273.495572 
L 505.991988 272.939786 
L 506.114417 272.939786 
L 506.756112 272.383999 
L 506.917408 271.828212 
L 507.212123 271.828212 
L 507.461517 271.272426 
L 507.54281 270.716639 
L 511.158139 270.716639 
L 512.070685 270.160852 
L 512.250927 269.049279 
L 512.473036 268.493492 
L 512.843811 268.493492 
L 513.069793 267.937706 
L 518.258204 267.937706 
L 518.600719 266.270346 
L 519.309647 266.270346 
L 519.413724 265.714559 
L 522.183949 265.714559 
L 522.251042 264.602986 
L 525.578216 264.602986 
L 525.612687 264.047199 
L 527.21546 264.047199 
L 527.226241 263.491412 
L 528.006729 263.491412 
L 528.136171 262.935626 
L 530.403737 262.935626 
L 530.521909 262.379839 
L 530.672459 262.379839 
L 530.883578 261.824052 
L 531.312131 261.824052 
L 531.323261 261.268266 
L 531.595681 261.268266 
L 532.115367 260.712479 
L 536.312904 260.712479 
L 536.617981 260.156692 
L 537.863447 260.156692 
L 537.86575 259.600906 
L 547.388118 259.600906 
L 549.004324 259.045119 
L 549.051181 258.489332 
L 549.869385 257.933546 
L 551.113525 257.933546 
L 551.201901 256.821972 
L 551.426941 256.821972 
L 551.52062 256.266186 
L 554.824836 256.266186 
L 555.421523 255.710399 
L 561.136947 255.710399 
L 561.154531 255.154612 
L 563.021247 255.154612 
L 563.819005 254.598826 
L 572.605126 254.598826 
L 572.714785 253.487252 
L 576.170214 253.487252 
L 576.85751 252.931466 
L 577.593513 252.931466 
L 578.493255 252.375679 
L 584.440557 252.375679 
L 585.010065 251.819892 
L 585.503548 251.819892 
L 585.74551 251.264106 
L 587.640103 250.708319 
L 588.567547 250.708319 
L 588.869973 250.152532 
L 588.968397 250.152532 
L 591.630115 249.596746 
L 596.530858 249.596746 
L 596.914368 249.040959 
L 615.829907 249.040959 
L 616.521042 248.485172 
L 620.895296 248.485172 
L 621.053383 247.929386 
L 621.337526 247.929386 
L 621.423181 247.373599 
L 645.851537 247.373599 
L 646.635235 246.817812 
L 652.467889 246.817812 
L 653.734916 246.262026 
L 653.819838 245.706239 
L 656.854529 245.706239 
L 656.980447 245.150452 
L 666.810125 245.150452 
L 666.830257 244.594666 
L 675.128128 244.594666 
L 675.217446 244.038879 
L 675.756391 243.483092 
L 677.792637 243.483092 
L 677.797312 242.927306 
L 678.211107 242.371519 
L 681.268406 242.371519 
L 682.27847 241.815732 
L 688.797722 241.815732 
L 688.843637 240.704159 
L 730.167859 240.704159 
L 733.080749 240.148372 
L 736.745517 240.148372 
L 736.867283 239.592586 
L 753.114929 239.592586 
L 753.142213 239.036799 
L 770.109568 239.036799 
L 770.284471 238.481012 
L 771.293941 238.481012 
L 771.320248 237.925226 
L 771.548394 237.369439 
L 772.435889 236.257866 
L 772.566342 235.146292 
L 772.641739 234.034719 
L 772.869047 233.478932 
L 772.921626 232.923146 
L 773.120882 232.367359 
L 774.40232 232.367359 
L 774.561627 231.811572 
L 774.569128 231.255786 
L 775.049667 230.699999 
L 782.918148 230.699999 
L 783.766253 229.588426 
L 808.584678 229.588426 
L 808.742381 229.032639 
L 812.012614 229.032639 
L 812.012614 229.032639 
" clip-path="url(#pfb82d5ea64)" style="fill: none; stroke: #0969da; stroke-width: 2; stroke-linecap: square"/>
   </g>
   <g id="line2d_37">
    <path d="M 85.239886 455.237812 
L 88.136867 455.237812 
L 88.147962 454.126239 
L 90.539596 454.126239 
L 91.085833 453.570452 
L 238.517578 453.570452 
L 240.132598 453.014666 
L 281.005658 453.014666 
L 282.139965 452.458879 
L 320.695741 452.458879 
L 324.094578 451.903092 
L 332.98324 451.903092 
L 340.744679 450.235732 
L 342.319505 449.124159 
L 345.15023 449.124159 
L 346.946224 448.568372 
L 349.478465 448.012586 
L 350.037192 448.012586 
L 353.461743 447.456799 
L 354.075666 446.901012 
L 356.824992 446.345226 
L 362.199297 445.789439 
L 362.230384 446.345226 
L 371.100799 446.345226 
L 371.723584 445.789439 
L 384.382696 445.789439 
L 385.315129 445.233652 
L 389.567583 445.233652 
L 389.866136 444.677866 
L 395.147843 444.677866 
L 395.605983 444.122079 
L 414.954715 444.122079 
L 416.767107 443.566292 
L 417.528824 443.566292 
L 417.646193 443.010506 
L 422.810217 443.010506 
L 422.815136 442.454719 
L 434.97745 442.454719 
L 434.996675 441.898932 
L 438.54034 441.898932 
L 439.44378 441.343146 
L 440.774761 440.787359 
L 440.777098 440.231572 
L 440.986577 440.231572 
L 442.65306 438.564212 
L 443.775678 438.564212 
L 443.840294 436.896852 
L 444.274081 436.896852 
L 445.845069 437.452639 
L 446.974875 437.452639 
L 446.991622 435.229492 
L 451.198335 435.229492 
L 451.823528 434.673706 
L 452.487099 434.673706 
L 452.663608 434.117919 
L 467.752419 434.117919 
L 467.95492 433.562132 
L 468.715067 433.562132 
L 469.895219 433.006346 
L 475.101877 433.006346 
L 475.361598 432.450559 
L 477.152986 432.450559 
L 477.255668 431.894772 
L 483.18842 431.894772 
L 483.307849 431.338986 
L 483.734064 431.338986 
L 484.16635 430.783199 
L 484.598218 430.783199 
L 484.623827 430.227412 
L 486.460223 430.227412 
L 486.569882 429.671626 
L 495.095201 429.671626 
L 495.211419 429.115839 
L 495.256253 429.115839 
L 495.343757 428.560052 
L 495.850812 428.560052 
L 496.913769 428.004266 
L 501.069473 428.004266 
L 501.073136 427.448479 
L 501.867196 427.448479 
L 501.897411 426.892692 
L 504.151405 426.892692 
L 504.681836 426.336906 
L 507.628639 426.336906 
L 508.499841 425.781119 
L 510.194131 425.781119 
L 510.212099 424.669546 
L 510.349495 424.669546 
L 510.52241 424.113759 
L 513.247976 424.113759 
L 513.668539 423.557972 
L 514.322272 423.557972 
L 514.568176 423.002186 
L 516.163832 423.002186 
L 516.386639 422.446399 
L 516.3895 421.890612 
L 516.838603 421.890612 
L 517.027183 421.334826 
L 534.215775 421.334826 
L 534.25227 420.223252 
L 536.617981 420.223252 
L 537.298858 419.667466 
L 537.86575 419.667466 
L 540.525095 419.111679 
L 541.018683 419.111679 
L 542.076266 418.555892 
L 542.784218 418.555892 
L 543.358576 418.000106 
L 543.939598 418.555892 
L 545.810012 418.555892 
L 546.318637 418.000106 
L 546.435065 416.888532 
L 547.381733 416.332746 
L 547.388118 415.221172 
L 551.52062 415.221172 
L 552.424374 414.665386 
L 552.51596 412.998026 
L 553.41926 412.442239 
L 553.918814 411.886452 
L 558.191365 411.886452 
L 558.372653 410.219092 
L 558.590575 410.219092 
L 558.752151 409.663306 
L 559.796336 409.107519 
L 561.439966 409.107519 
L 561.778573 408.551732 
L 561.85561 407.995946 
L 562.028385 407.995946 
L 563.021247 406.884372 
L 564.085006 406.884372 
L 564.434289 406.328586 
L 565.661368 406.328586 
L 565.665415 405.217012 
L 566.506018 405.217012 
L 567.621972 404.661226 
L 570.57851 403.549652 
L 570.842452 402.993866 
L 576.85751 402.993866 
L 577.593513 401.882292 
L 588.831245 401.882292 
L 588.968397 400.770719 
L 594.438265 400.770719 
L 595.274018 400.214932 
L 597.810202 400.214932 
L 597.952553 399.659146 
L 613.555433 399.659146 
L 613.804477 399.103359 
L 615.349961 399.103359 
L 615.829907 398.547572 
L 618.714257 398.547572 
L 619.256726 397.991786 
L 619.260285 397.435999 
L 619.880697 396.880212 
L 621.772987 396.880212 
L 621.917501 396.324426 
L 621.927864 395.212852 
L 621.938156 395.768639 
L 623.209755 395.212852 
L 627.798896 395.212852 
L 628.704115 394.101279 
L 636.984367 394.101279 
L 637.624562 393.545492 
L 639.63328 393.545492 
L 639.794088 392.989706 
L 639.816208 392.433919 
L 646.635235 392.433919 
L 650.869895 391.322346 
L 651.875004 391.322346 
L 652.467889 390.766559 
L 661.239495 390.766559 
L 662.317664 390.210772 
L 663.653634 390.210772 
L 664.947527 389.654986 
L 675.756391 389.654986 
L 676.053025 389.099199 
L 676.05463 388.543412 
L 682.106079 388.543412 
L 682.27847 387.987626 
L 709.283098 387.987626 
L 712.733782 387.431839 
L 720.654737 387.431839 
L 722.387441 386.876052 
L 723.911991 386.876052 
L 724.20053 386.320266 
L 727.75065 386.320266 
L 728.350338 385.764479 
L 729.141258 385.764479 
L 730.167859 385.208692 
L 732.628611 385.208692 
L 733.080749 384.652906 
L 733.383629 384.652906 
L 734.48629 384.097119 
L 745.139266 384.097119 
L 745.169062 382.429759 
L 754.464367 382.429759 
L 758.406056 381.873972 
L 758.409266 381.318186 
L 763.031344 381.318186 
L 763.225367 380.762399 
L 763.228228 380.206612 
L 765.390252 380.206612 
L 766.331896 379.650826 
L 767.005516 379.650826 
L 768.045166 379.095039 
L 769.160841 379.095039 
L 769.353643 377.983466 
L 770.284471 377.983466 
L 770.469981 377.427679 
L 772.564528 377.427679 
L 772.641739 376.871892 
L 775.943164 376.871892 
L 778.334903 376.316106 
L 779.119403 376.316106 
L 779.889528 375.760319 
L 781.480404 375.204532 
L 781.487208 374.648746 
L 781.925914 372.981386 
L 782.326799 372.425599 
L 782.918148 371.869812 
L 784.502918 371.869812 
L 785.463996 370.202452 
L 787.761917 370.202452 
L 788.384109 368.535092 
L 790.912652 368.535092 
L 791.180397 367.979306 
L 793.01306 367.979306 
L 793.411329 366.867732 
L 794.101416 366.311946 
L 796.474908 366.311946 
L 800.588186 365.200372 
L 803.225411 364.644586 
L 803.404571 364.088799 
L 805.899026 364.088799 
L 806.058613 363.533012 
L 808.797193 363.533012 
L 808.809788 362.977226 
L 809.323159 362.977226 
L 809.435679 362.421439 
L 812.012614 362.421439 
L 812.012614 362.421439 
" clip-path="url(#pfb82d5ea64)" style="fill: none; stroke: #bf8700; stroke-width: 2; stroke-linecap: square"/>
   </g>
   <g id="line2d_38">
    <path d="M 85.239886 454.682026 
L 85.487675 454.682026 
L 85.597403 432.450559 
L 86.170854 426.892692 
L 86.49854 425.781119 
L 86.664791 426.336906 
L 86.968194 425.781119 
L 87.48132 425.225332 
L 87.837337 424.113759 
L 88.136867 423.557972 
L 88.147962 423.002186 
L 88.435559 421.334826 
L 88.813627 421.334826 
L 89.328044 420.779039 
L 89.331847 420.223252 
L 89.746025 419.667466 
L 89.86022 419.111679 
L 89.92201 419.111679 
L 90.539596 418.555892 
L 90.980849 418.000106 
L 91.085833 411.886452 
L 91.158439 412.442239 
L 91.434663 406.328586 
L 91.439582 407.995946 
L 91.635873 402.993866 
L 94.129595 402.993866 
L 94.360148 399.659146 
L 94.420822 402.438079 
L 94.70193 397.991786 
L 94.841141 397.435999 
L 95.878313 396.880212 
L 95.90961 396.324426 
L 96.134929 395.768639 
L 96.345141 395.768639 
L 96.87927 395.212852 
L 97.1646 394.657066 
L 97.293833 393.545492 
L 97.37244 392.989706 
L 97.638999 392.433919 
L 97.645593 391.878132 
L 97.913687 392.433919 
L 97.989991 391.878132 
L 97.999377 392.433919 
L 98.010611 390.766559 
L 100.49596 390.766559 
L 104.322408 402.993866 
L 104.891742 390.210772 
L 105.307456 389.654986 
L 106.793557 389.654986 
L 107.065384 389.099199 
L 107.647104 388.543412 
L 108.89093 402.993866 
L 108.97163 387.987626 
L 109.926079 387.431839 
L 111.967175 386.876052 
L 112.112736 387.431839 
L 112.410068 385.764479 
L 113.065266 385.764479 
L 113.264347 385.208692 
L 113.640356 384.652906 
L 113.671548 383.541332 
L 114.018389 382.429759 
L 114.038485 382.985546 
L 114.244789 382.985546 
L 114.357902 381.873972 
L 114.706104 379.650826 
L 114.751879 378.539252 
L 115.19861 376.871892 
L 115.416951 377.983466 
L 116.960761 374.648746 
L 117.367263 375.760319 
L 119.040165 373.537172 
L 120.365459 377.427679 
L 120.830577 373.537172 
L 122.740765 371.869812 
L 125.557429 371.869812 
L 125.929426 371.314026 
L 126.225467 369.646666 
L 127.057347 371.314026 
L 130.450602 371.869812 
L 131.292356 369.646666 
L 131.700359 367.979306 
L 132.397809 369.646666 
L 133.974798 367.979306 
L 139.33096 367.979306 
L 144.962997 367.423519 
L 145.338587 366.867732 
L 148.894254 366.311946 
L 151.245417 366.311946 
L 151.683076 365.756159 
L 151.778291 366.311946 
L 154.279549 364.644586 
L 156.625653 364.644586 
L 156.680116 364.088799 
L 157.957296 363.533012 
L 161.038321 363.533012 
L 162.397423 359.642506 
L 163.408987 359.086719 
L 164.710626 358.530932 
L 164.735886 357.975146 
L 169.61437 357.975146 
L 169.708607 354.084639 
L 169.889163 354.084639 
L 170.048645 352.973066 
L 171.844778 352.973066 
L 172.38777 352.417279 
L 175.027472 352.417279 
L 178.694194 351.861492 
L 178.877575 363.533012 
L 178.886577 352.417279 
L 179.121421 351.861492 
L 180.428223 351.861492 
L 182.411297 351.305706 
L 184.409722 351.305706 
L 185.997179 350.749919 
L 190.373039 349.638346 
L 192.894638 349.638346 
L 194.921185 349.082559 
L 195.23652 346.303626 
L 195.449942 346.303626 
L 195.82759 345.747839 
L 197.79744 345.192052 
L 198.252789 342.968906 
L 200.975285 341.857332 
L 201.008081 342.413119 
L 201.264592 341.857332 
L 204.756027 340.745759 
L 207.375493 340.189972 
L 208.627029 340.189972 
L 209.73632 339.634186 
L 210.697642 338.522612 
L 211.717265 337.966826 
L 212.086086 337.411039 
L 214.491642 337.966826 
L 216.715073 336.855252 
L 216.973118 337.411039 
L 217.564049 337.411039 
L 217.68264 336.855252 
L 219.266538 336.299466 
L 220.266553 336.855252 
L 222.100054 335.743679 
L 223.296708 335.743679 
L 225.849534 335.187892 
L 226.272854 335.743679 
L 226.719236 334.076319 
L 228.268174 334.076319 
L 228.574647 333.520532 
L 229.908419 331.297386 
L 230.285265 330.185812 
L 231.263858 330.741599 
L 231.694958 329.630026 
L 231.738082 329.074239 
L 235.203768 329.074239 
L 236.959045 328.518452 
L 237.40909 327.962666 
L 240.132598 327.962666 
L 242.048962 327.406879 
L 245.303878 327.406879 
L 246.111859 326.851092 
L 255.062312 326.851092 
L 255.576345 326.295306 
L 255.627842 325.739519 
L 255.975904 325.183732 
L 259.860479 325.183732 
L 260.10258 324.627946 
L 261.090907 324.072159 
L 261.262077 323.516372 
L 262.899531 322.960586 
L 264.090499 322.404799 
L 268.86215 322.404799 
L 269.980476 321.293226 
L 274.886 321.293226 
L 275.978473 320.737439 
L 280.55024 320.737439 
L 281.005658 320.181652 
L 282.139965 319.625866 
L 282.477629 319.070079 
L 282.592278 318.514292 
L 285.990243 317.958506 
L 286.411434 318.514292 
L 290.884636 317.402719 
L 294.421393 316.291146 
L 294.900397 315.735359 
L 301.609381 315.735359 
L 302.47814 315.179572 
L 308.731497 315.179572 
L 314.622033 314.623786 
L 315.362955 314.067999 
L 317.835081 313.512212 
L 320.314185 312.956426 
L 320.695741 312.400639 
L 326.258172 312.400639 
L 327.953125 311.844852 
L 340.744679 311.844852 
L 342.319505 311.289066 
L 352.885675 311.289066 
L 353.461743 310.733279 
L 354.075666 311.289066 
L 356.824992 310.733279 
L 366.077591 310.733279 
L 367.31751 310.177492 
L 386.891002 310.177492 
L 386.919891 309.621706 
L 399.008483 309.621706 
L 401.664409 309.065919 
L 401.671213 308.510132 
L 414.948818 308.510132 
L 414.954715 307.398559 
L 422.815136 307.398559 
L 426.417591 306.842772 
L 430.880326 306.842772 
L 434.996675 305.731199 
L 443.288231 305.731199 
L 443.775678 305.175412 
L 443.840294 304.619626 
L 446.974875 304.619626 
L 446.991622 304.063839 
L 447.31711 304.063839 
L 447.835958 303.508052 
L 452.487099 303.508052 
L 452.663608 302.952266 
L 458.87377 302.952266 
L 459.128153 302.396479 
L 474.294385 302.396479 
L 475.100726 300.729119 
L 475.101877 300.173332 
L 477.250539 300.173332 
L 477.255668 299.617546 
L 483.593458 299.617546 
L 483.734064 299.061759 
L 486.768057 299.061759 
L 486.877053 298.505972 
L 498.148174 298.505972 
L 498.36491 297.950186 
L 500.981097 297.950186 
L 501.073136 297.394399 
L 501.897411 296.838612 
L 522.592545 296.838612 
L 523.670434 295.727039 
L 525.283884 295.727039 
L 525.612687 295.171252 
L 527.226241 295.171252 
L 527.465377 294.615466 
L 531.277694 294.615466 
L 531.323261 294.059679 
L 552.422595 294.059679 
L 552.51596 292.948106 
L 578.88929 292.948106 
L 579.574249 292.392319 
L 624.603747 292.392319 
L 626.719367 291.836532 
L 645.74917 291.836532 
L 645.851537 291.280746 
L 654.371134 291.280746 
L 654.785243 290.724959 
L 812.012614 290.724959 
L 812.012614 290.724959 
" clip-path="url(#pfb82d5ea64)" style="fill: none; stroke: #cf222e; stroke-width: 2; stroke-linecap: square"/>
   </g>
   <g id="line2d_39">
    <path d="M 85.239886 454.682026 
L 85.259599 454.126239 
L 85.415019 -1 
M 85.55471 -1 
L 85.708493 101.201706 
L 88.136867 101.201706 
L 88.147962 97.866986 
L 91.085833 97.866986 
L 91.22801 98.422772 
L 91.635873 98.422772 
L 91.96642 98.978559 
L 94.014633 99.534346 
L 94.05507 98.978559 
L 94.125583 99.534346 
L 100.49596 99.534346 
L 104.322408 98.422772 
L 104.891742 99.534346 
L 105.307456 98.978559 
L 106.3552 99.534346 
L 106.793557 96.755412 
L 107.647104 96.755412 
L 108.89093 98.422772 
L 108.97163 95.643839 
L 109.926079 96.199626 
L 112.410068 96.199626 
L 113.065266 95.088052 
L 114.038485 95.088052 
L 114.299357 91.197546 
L 120.365459 91.197546 
L 120.807898 87.862826 
L 120.830577 86.751252 
L 122.740765 86.751252 
L 125.557429 82.860746 
L 127.034983 82.860746 
L 127.057347 83.416532 
L 130.450602 83.416532 
L 131.292356 80.081812 
L 133.956307 80.081812 
L 133.974798 80.637599 
L 148.894254 80.637599 
L 151.683076 81.193386 
L 151.778291 80.637599 
L 154.670665 81.193386 
L 164.735886 81.193386 
L 169.61437 81.749172 
L 169.708607 74.523946 
L 169.940346 75.079732 
L 172.692464 75.079732 
L 173.863788 75.635519 
L 178.694194 75.635519 
L 178.877575 80.637599 
L 178.886577 71.745012 
L 179.121421 71.745012 
L 180.287582 73.968159 
L 185.997179 73.968159 
L 190.373039 70.077652 
L 195.23652 70.077652 
L 195.449942 68.410292 
L 208.087666 68.410292 
L 208.627029 68.966079 
L 211.695633 68.966079 
L 211.717265 70.077652 
L 217.564049 70.077652 
L 217.68264 73.412372 
L 226.719236 73.412372 
L 226.935065 68.410292 
L 228.264999 67.298719 
L 228.268174 67.854506 
L 228.574647 67.854506 
L 229.666562 65.075572 
L 231.263858 65.075572 
L 231.694958 65.631359 
L 231.738082 65.075572 
L 232.725257 65.631359 
L 232.729758 66.187146 
L 232.75282 65.631359 
L 233.323061 63.408212 
L 238.517578 63.408212 
L 240.132598 63.963999 
L 242.048962 63.963999 
L 245.303878 64.519786 
L 248.385252 64.519786 
L 250.765931 65.631359 
L 255.627842 65.075572 
L 255.975904 65.075572 
L 259.006583 66.187146 
L 259.860479 65.631359 
L 264.090499 65.631359 
L 268.859568 67.854506 
L 268.86215 67.298719 
L 275.978473 67.298719 
L 278.185506 67.854506 
L 317.517443 67.854506 
L 317.835081 68.410292 
L 320.296495 68.410292 
L 320.314185 66.742932 
L 332.178539 66.742932 
L 332.418198 67.298719 
L 356.824992 67.298719 
L 362.199297 67.854506 
L 362.230384 67.298719 
L 366.077591 68.966079 
L 367.31751 68.966079 
L 368.492428 68.410292 
L 371.723584 68.410292 
L 374.806493 68.966079 
L 374.811552 69.521866 
L 383.552769 67.854506 
L 384.382696 68.410292 
L 395.147843 68.410292 
L 395.605983 67.854506 
L 396.445225 68.410292 
L 396.733625 70.633439 
L 401.666956 70.633439 
L 401.671213 71.189226 
L 416.767107 71.189226 
L 417.646193 71.745012 
L 420.547361 71.745012 
L 420.830388 72.300799 
L 434.97745 72.300799 
L 434.996675 72.856586 
L 437.485199 72.856586 
L 438.535071 73.412372 
L 438.54034 73.968159 
L 439.398946 73.412372 
L 439.44378 73.968159 
L 440.777098 73.968159 
L 440.986577 74.523946 
L 443.775678 74.523946 
L 443.840294 73.412372 
L 444.274081 74.523946 
L 445.845069 72.856586 
L 449.643989 72.856586 
L 449.924469 71.189226 
L 451.198335 71.189226 
L 451.823528 72.300799 
L 455.045124 72.300799 
L 456.102219 72.856586 
L 456.358974 72.856586 
L 457.352535 70.077652 
L 459.128153 70.077652 
L 459.533713 70.633439 
L 467.752419 70.633439 
L 467.95492 71.189226 
L 468.715067 71.189226 
L 469.895219 71.745012 
L 483.18842 71.745012 
L 483.307849 72.300799 
L 483.734064 72.300799 
L 484.623827 73.412372 
L 485.871281 73.412372 
L 486.17123 72.856586 
L 486.460223 72.856586 
L 486.569882 73.412372 
L 489.905917 73.412372 
L 490.473856 73.968159 
L 493.377605 73.968159 
L 493.563777 74.523946 
L 495.154339 74.523946 
L 495.256253 75.079732 
L 500.199353 75.079732 
L 500.305628 75.635519 
L 503.188512 75.635519 
L 504.151405 77.858666 
L 505.218967 77.858666 
L 505.220083 78.414452 
L 509.554808 78.414452 
L 510.349495 78.970239 
L 513.668539 78.970239 
L 514.322272 79.526026 
L 516.838603 79.526026 
L 517.027183 80.081812 
L 521.119388 80.081812 
L 522.174215 80.637599 
L 522.251042 81.193386 
L 522.592545 81.193386 
L 523.670434 60.629279 
L 527.013273 60.629279 
L 527.037347 61.185066 
L 527.226241 61.185066 
L 527.465377 60.629279 
L 530.21875 60.629279 
L 530.403737 61.185066 
L 530.883578 61.185066 
L 531.247375 61.740852 
L 531.323261 61.185066 
L 532.806013 61.185066 
L 532.817596 61.740852 
L 533.139002 61.740852 
L 533.279748 62.296639 
L 534.25227 62.852426 
L 541.018683 62.852426 
L 542.076266 63.408212 
L 542.784218 63.408212 
L 543.358576 63.963999 
L 543.939598 63.408212 
L 546.331895 63.408212 
L 546.435065 64.519786 
L 549.869385 64.519786 
L 551.201901 66.187146 
L 565.665415 66.187146 
L 566.506018 66.742932 
L 588.831245 66.742932 
L 588.968397 67.298719 
L 621.772987 67.298719 
L 621.917501 67.854506 
L 621.927864 68.410292 
L 621.938156 67.854506 
L 626.719367 67.854506 
L 627.798896 68.410292 
L 646.635235 68.410292 
L 650.869895 68.966079 
L 651.866665 69.521866 
L 651.875004 67.854506 
L 682.106079 67.854506 
L 682.27847 68.410292 
L 709.283098 68.410292 
L 712.733782 68.966079 
L 714.844518 68.966079 
L 715.07357 69.521866 
L 716.540622 70.077652 
L 720.654737 70.077652 
L 722.387441 70.633439 
L 724.20053 70.633439 
L 724.34173 71.189226 
L 727.323912 71.189226 
L 727.680138 71.745012 
L 727.75065 72.300799 
L 733.060164 72.300799 
L 733.080749 72.856586 
L 736.867283 72.856586 
L 737.601542 72.300799 
L 737.61152 72.856586 
L 739.143258 73.412372 
L 741.862509 73.412372 
L 743.819345 73.968159 
L 745.570575 73.968159 
L 748.151662 61.740852 
L 751.165036 61.740852 
L 751.178992 64.519786 
L 766.330326 64.519786 
L 766.331896 65.075572 
L 766.593954 65.631359 
L 768.045166 65.631359 
L 768.360815 66.187146 
L 773.120882 66.187146 
L 774.221276 66.742932 
L 774.40232 66.187146 
L 782.916229 66.187146 
L 782.918148 66.742932 
L 796.382834 66.742932 
L 796.474908 67.854506 
L 798.424069 69.521866 
L 800.379859 69.521866 
L 800.588186 70.077652 
L 808.809788 70.077652 
L 808.960966 70.633439 
L 812.012614 70.633439 
L 812.012614 70.633439 
" clip-path="url(#pfb82d5ea64)" style="fill: none; stroke: #9467bd; stroke-width: 2; stroke-linecap: square"/>
   </g>
   <g id="patch_3">
    <path d="M 48.90125 455.237812 
L 48.90125 38.397812 
" style="fill: none; stroke: #d0d7de; stroke-width: 0.8; stroke-linejoin: miter; stroke-linecap: square"/>
   </g>
   <g id="patch_4">
    <path d="M 848.35125 455.237812 
L 848.35125 38.397812 
" style="fill: none; stroke: #d0d7de; stroke-width: 0.8; stroke-linejoin: miter; stroke-linecap: square"/>
   </g>
   <g id="patch_5">
    <path d="M 48.90125 455.237812 
L 848.35125 455.237812 
" style="fill: none; stroke: #d0d7de; stroke-width: 0.8; stroke-linejoin: miter; stroke-linecap: square"/>
   </g>
   <g id="patch_6">
    <path d="M 48.90125 38.397812 
L 848.35125 38.397812 
" style="fill: none; stroke: #d0d7de; stroke-width: 0.8; stroke-linejoin: miter; stroke-linecap: square"/>
   </g>
   <g id="text_20">
    <!-- 525 -->
    <g style="fill: #1a7f37" transform="translate(817.012614 165.93325) scale(0.09 -0.09)">
     <defs>
      <path id="DejaVuSans-Bold-35" d="M 678 4666 
L 3669 4666 
L 3669 3781 
L 1638 3781 
L 1638 3059 
Q 1775 3097 1914 3117 
Q 2053 3138 2203 3138 
Q 3056 3138 3531 2711 
Q 4006 2284 4006 1522 
Q 4006 766 3489 337 
Q 2972 -91 2053 -91 
Q 1656 -91 1267 -14 
Q 878 63 494 219 
L 494 1166 
Q 875 947 1217 837 
Q 1559 728 1863 728 
Q 2300 728 2551 942 
Q 2803 1156 2803 1522 
Q 2803 1891 2551 2103 
Q 2300 2316 1863 2316 
Q 1603 2316 1309 2248 
Q 1016 2181 678 2041 
L 678 4666 
z
" transform="scale(0.015625)"/>
      <path id="DejaVuSans-Bold-32" d="M 1844 884 
L 3897 884 
L 3897 0 
L 506 0 
L 506 884 
L 2209 2388 
Q 2438 2594 2547 2791 
Q 2656 2988 2656 3200 
Q 2656 3528 2436 3728 
Q 2216 3928 1850 3928 
Q 1569 3928 1234 3808 
Q 900 3688 519 3450 
L 519 4475 
Q 925 4609 1322 4679 
Q 1719 4750 2100 4750 
Q 2938 4750 3402 4381 
Q 3866 4013 3866 3353 
Q 3866 2972 3669 2642 
Q 3472 2313 2841 1759 
L 1844 884 
z
" transform="scale(0.015625)"/>
     </defs>
     <use xlink:href="#DejaVuSans-Bold-35"/>
     <use xlink:href="#DejaVuSans-Bold-32" transform="translate(69.580078 0)"/>
     <use xlink:href="#DejaVuSans-Bold-35" transform="translate(139.160156 0)"/>
    </g>
   </g>
   <g id="text_21">
    <!-- 407 -->
    <g style="fill: #0969da" transform="translate(817.012614 231.516077) scale(0.09 -0.09)">
     <defs>
      <path id="DejaVuSans-Bold-34" d="M 2356 3675 
L 1038 1722 
L 2356 1722 
L 2356 3675 
z
M 2156 4666 
L 3494 4666 
L 3494 1722 
L 4159 1722 
L 4159 850 
L 3494 850 
L 3494 0 
L 2356 0 
L 2356 850 
L 288 850 
L 288 1881 
L 2156 4666 
z
" transform="scale(0.015625)"/>
      <path id="DejaVuSans-Bold-30" d="M 2944 2338 
Q 2944 3213 2780 3570 
Q 2616 3928 2228 3928 
Q 1841 3928 1675 3570 
Q 1509 3213 1509 2338 
Q 1509 1453 1675 1090 
Q 1841 728 2228 728 
Q 2613 728 2778 1090 
Q 2944 1453 2944 2338 
z
M 4147 2328 
Q 4147 1169 3647 539 
Q 3147 -91 2228 -91 
Q 1306 -91 806 539 
Q 306 1169 306 2328 
Q 306 3491 806 4120 
Q 1306 4750 2228 4750 
Q 3147 4750 3647 4120 
Q 4147 3491 4147 2328 
z
" transform="scale(0.015625)"/>
      <path id="DejaVuSans-Bold-37" d="M 428 4666 
L 3944 4666 
L 3944 3988 
L 2125 0 
L 953 0 
L 2675 3781 
L 428 3781 
L 428 4666 
z
" transform="scale(0.015625)"/>
     </defs>
     <use xlink:href="#DejaVuSans-Bold-34"/>
     <use xlink:href="#DejaVuSans-Bold-30" transform="translate(69.580078 0)"/>
     <use xlink:href="#DejaVuSans-Bold-37" transform="translate(139.160156 0)"/>
    </g>
   </g>
   <g id="text_22">
    <!-- 167 -->
    <g style="fill: #bf8700" transform="translate(817.012614 364.904877) scale(0.09 -0.09)">
     <defs>
      <path id="DejaVuSans-Bold-31" d="M 750 831 
L 1813 831 
L 1813 3847 
L 722 3622 
L 722 4441 
L 1806 4666 
L 2950 4666 
L 2950 831 
L 4013 831 
L 4013 0 
L 750 0 
L 750 831 
z
" transform="scale(0.015625)"/>
      <path id="DejaVuSans-Bold-36" d="M 2316 2303 
Q 2000 2303 1842 2098 
Q 1684 1894 1684 1484 
Q 1684 1075 1842 870 
Q 2000 666 2316 666 
Q 2634 666 2792 870 
Q 2950 1075 2950 1484 
Q 2950 1894 2792 2098 
Q 2634 2303 2316 2303 
z
M 3803 4544 
L 3803 3681 
Q 3506 3822 3243 3889 
Q 2981 3956 2731 3956 
Q 2194 3956 1894 3657 
Q 1594 3359 1544 2772 
Q 1750 2925 1990 3001 
Q 2231 3078 2516 3078 
Q 3231 3078 3670 2659 
Q 4109 2241 4109 1563 
Q 4109 813 3618 361 
Q 3128 -91 2303 -91 
Q 1394 -91 895 523 
Q 397 1138 397 2266 
Q 397 3422 980 4083 
Q 1563 4744 2578 4744 
Q 2900 4744 3203 4694 
Q 3506 4644 3803 4544 
z
" transform="scale(0.015625)"/>
     </defs>
     <use xlink:href="#DejaVuSans-Bold-31"/>
     <use xlink:href="#DejaVuSans-Bold-36" transform="translate(69.580078 0)"/>
     <use xlink:href="#DejaVuSans-Bold-37" transform="translate(139.160156 0)"/>
    </g>
   </g>
   <g id="text_23">
    <!-- 296 -->
    <g style="fill: #cf222e" transform="translate(817.012614 293.208397) scale(0.09 -0.09)">
     <defs>
      <path id="DejaVuSans-Bold-39" d="M 641 103 
L 641 966 
Q 928 831 1190 764 
Q 1453 697 1709 697 
Q 2247 697 2547 995 
Q 2847 1294 2900 1881 
Q 2688 1725 2447 1647 
Q 2206 1569 1925 1569 
Q 1209 1569 770 1986 
Q 331 2403 331 3084 
Q 331 3838 820 4291 
Q 1309 4744 2131 4744 
Q 3044 4744 3544 4128 
Q 4044 3513 4044 2388 
Q 4044 1231 3459 570 
Q 2875 -91 1856 -91 
Q 1528 -91 1228 -42 
Q 928 6 641 103 
z
M 2125 2350 
Q 2441 2350 2600 2554 
Q 2759 2759 2759 3169 
Q 2759 3575 2600 3781 
Q 2441 3988 2125 3988 
Q 1809 3988 1650 3781 
Q 1491 3575 1491 3169 
Q 1491 2759 1650 2554 
Q 1809 2350 2125 2350 
z
" transform="scale(0.015625)"/>
     </defs>
     <use xlink:href="#DejaVuSans-Bold-32"/>
     <use xlink:href="#DejaVuSans-Bold-39" transform="translate(69.580078 0)"/>
     <use xlink:href="#DejaVuSans-Bold-36" transform="translate(139.160156 0)"/>
    </g>
   </g>
   <g id="text_24">
    <!-- 692 -->
    <g style="fill: #9467bd" transform="translate(817.012614 73.116877) scale(0.09 -0.09)">
     <use xlink:href="#DejaVuSans-Bold-36"/>
     <use xlink:href="#DejaVuSans-Bold-39" transform="translate(69.580078 0)"/>
     <use xlink:href="#DejaVuSans-Bold-32" transform="translate(139.160156 0)"/>
    </g>
   </g>
   <g id="text_25">
    <!-- Erdős Problems Progress -->
    <g style="fill: #24292f" transform="translate(349.588281 18.397812) scale(0.14 -0.14)">
     <defs>
      <path id="DejaVuSans-Bold-45" d="M 588 4666 
L 3834 4666 
L 3834 3756 
L 1791 3756 
L 1791 2888 
L 3713 2888 
L 3713 1978 
L 1791 1978 
L 1791 909 
L 3903 909 
L 3903 0 
L 588 0 
L 588 4666 
z
" transform="scale(0.015625)"/>
      <path id="DejaVuSans-Bold-72" d="M 3138 2547 
Q 2991 2616 2845 2648 
Q 2700 2681 2553 2681 
Q 2122 2681 1889 2404 
Q 1656 2128 1656 1613 
L 1656 0 
L 538 0 
L 538 3500 
L 1656 3500 
L 1656 2925 
Q 1872 3269 2151 3426 
Q 2431 3584 2822 3584 
Q 2878 3584 2943 3579 
Q 3009 3575 3134 3559 
L 3138 2547 
z
" transform="scale(0.015625)"/>
      <path id="DejaVuSans-Bold-64" d="M 2919 2988 
L 2919 4863 
L 4044 4863 
L 4044 0 
L 2919 0 
L 2919 506 
Q 2688 197 2409 53 
Q 2131 -91 1766 -91 
Q 1119 -91 703 423 
Q 288 938 288 1747 
Q 288 2556 703 3070 
Q 1119 3584 1766 3584 
Q 2128 3584 2408 3439 
Q 2688 3294 2919 2988 
z
M 2181 722 
Q 2541 722 2730 984 
Q 2919 1247 2919 1747 
Q 2919 2247 2730 2509 
Q 2541 2772 2181 2772 
Q 1825 2772 1636 2509 
Q 1447 2247 1447 1747 
Q 1447 1247 1636 984 
Q 1825 722 2181 722 
z
" transform="scale(0.015625)"/>
      <path id="DejaVuSans-Bold-151" d="M 1881 5119 
L 2560 5119 
L 1785 3944 
L 1275 3944 
L 1881 5119 
z
M 3016 5119 
L 3738 5119 
L 2888 3944 
L 2344 3944 
L 3016 5119 
z
M 2203 2784 
Q 1831 2784 1636 2517 
Q 1441 2250 1441 1747 
Q 1441 1244 1636 976 
Q 1831 709 2203 709 
Q 2569 709 2762 976 
Q 2956 1244 2956 1747 
Q 2956 2250 2762 2517 
Q 2569 2784 2203 2784 
z
M 2203 3584 
Q 3106 3584 3614 3096 
Q 4122 2609 4122 1747 
Q 4122 884 3614 396 
Q 3106 -91 2203 -91 
Q 1297 -91 786 396 
Q 275 884 275 1747 
Q 275 2609 786 3096 
Q 1297 3584 2203 3584 
z
" transform="scale(0.015625)"/>
      <path id="DejaVuSans-Bold-73" d="M 3272 3391 
L 3272 2541 
Q 2913 2691 2578 2766 
Q 2244 2841 1947 2841 
Q 1628 2841 1473 2761 
Q 1319 2681 1319 2516 
Q 1319 2381 1436 2309 
Q 1553 2238 1856 2203 
L 2053 2175 
Q 2913 2066 3209 1816 
Q 3506 1566 3506 1031 
Q 3506 472 3093 190 
Q 2681 -91 1863 -91 
Q 1516 -91 1145 -36 
Q 775 19 384 128 
L 384 978 
Q 719 816 1070 734 
Q 1422 653 1784 653 
Q 2113 653 2278 743 
Q 2444 834 2444 1013 
Q 2444 1163 2330 1236 
Q 2216 1309 1875 1350 
L 1678 1375 
Q 931 1469 631 1722 
Q 331 1975 331 2491 
Q 331 3047 712 3315 
Q 1094 3584 1881 3584 
Q 2191 3584 2531 3537 
Q 2872 3491 3272 3391 
z
" transform="scale(0.015625)"/>
      <path id="DejaVuSans-Bold-20" transform="scale(0.015625)"/>
      <path id="DejaVuSans-Bold-50" d="M 588 4666 
L 2584 4666 
Q 3475 4666 3951 4270 
Q 4428 3875 4428 3144 
Q 4428 2409 3951 2014 
Q 3475 1619 2584 1619 
L 1791 1619 
L 1791 0 
L 588 0 
L 588 4666 
z
M 1791 3794 
L 1791 2491 
L 2456 2491 
Q 2806 2491 2997 2661 
Q 3188 2831 3188 3144 
Q 3188 3456 2997 3625 
Q 2806 3794 2456 3794 
L 1791 3794 
z
" transform="scale(0.015625)"/>
      <path id="DejaVuSans-Bold-6f" d="M 2203 2784 
Q 1831 2784 1636 2517 
Q 1441 2250 1441 1747 
Q 1441 1244 1636 976 
Q 1831 709 2203 709 
Q 2569 709 2762 976 
Q 2956 1244 2956 1747 
Q 2956 2250 2762 2517 
Q 2569 2784 2203 2784 
z
M 2203 3584 
Q 3106 3584 3614 3096 
Q 4122 2609 4122 1747 
Q 4122 884 3614 396 
Q 3106 -91 2203 -91 
Q 1297 -91 786 396 
Q 275 884 275 1747 
Q 275 2609 786 3096 
Q 1297 3584 2203 3584 
z
" transform="scale(0.015625)"/>
      <path id="DejaVuSans-Bold-62" d="M 2400 722 
Q 2759 722 2948 984 
Q 3138 1247 3138 1747 
Q 3138 2247 2948 2509 
Q 2759 2772 2400 2772 
Q 2041 2772 1848 2508 
Q 1656 2244 1656 1747 
Q 1656 1250 1848 986 
Q 2041 722 2400 722 
z
M 1656 2988 
Q 1888 3294 2169 3439 
Q 2450 3584 2816 3584 
Q 3463 3584 3878 3070 
Q 4294 2556 4294 1747 
Q 4294 938 3878 423 
Q 3463 -91 2816 -91 
Q 2450 -91 2169 54 
Q 1888 200 1656 506 
L 1656 0 
L 538 0 
L 538 4863 
L 1656 4863 
L 1656 2988 
z
" transform="scale(0.015625)"/>
      <path id="DejaVuSans-Bold-6c" d="M 538 4863 
L 1656 4863 
L 1656 0 
L 538 0 
L 538 4863 
z
" transform="scale(0.015625)"/>
      <path id="DejaVuSans-Bold-65" d="M 4031 1759 
L 4031 1441 
L 1416 1441 
Q 1456 1047 1700 850 
Q 1944 653 2381 653 
Q 2734 653 3104 758 
Q 3475 863 3866 1075 
L 3866 213 
Q 3469 63 3072 -14 
Q 2675 -91 2278 -91 
Q 1328 -91 801 392 
Q 275 875 275 1747 
Q 275 2603 792 3093 
Q 1309 3584 2216 3584 
Q 3041 3584 3536 3087 
Q 4031 2591 4031 1759 
z
M 2881 2131 
Q 2881 2450 2695 2645 
Q 2509 2841 2209 2841 
Q 1884 2841 1681 2658 
Q 1478 2475 1428 2131 
L 2881 2131 
z
" transform="scale(0.015625)"/>
      <path id="DejaVuSans-Bold-6d" d="M 3781 2919 
Q 3994 3244 4286 3414 
Q 4578 3584 4928 3584 
Q 5531 3584 5847 3212 
Q 6163 2841 6163 2131 
L 6163 0 
L 5038 0 
L 5038 1825 
Q 5041 1866 5042 1909 
Q 5044 1953 5044 2034 
Q 5044 2406 4934 2573 
Q 4825 2741 4581 2741 
Q 4263 2741 4089 2478 
Q 3916 2216 3909 1719 
L 3909 0 
L 2784 0 
L 2784 1825 
Q 2784 2406 2684 2573 
Q 2584 2741 2328 2741 
Q 2006 2741 1831 2477 
Q 1656 2213 1656 1722 
L 1656 0 
L 531 0 
L 531 3500 
L 1656 3500 
L 1656 2988 
Q 1863 3284 2130 3434 
Q 2397 3584 2719 3584 
Q 3081 3584 3359 3409 
Q 3638 3234 3781 2919 
z
" transform="scale(0.015625)"/>
      <path id="DejaVuSans-Bold-67" d="M 2919 594 
Q 2688 288 2409 144 
Q 2131 0 1766 0 
Q 1125 0 706 504 
Q 288 1009 288 1791 
Q 288 2575 706 3076 
Q 1125 3578 1766 3578 
Q 2131 3578 2409 3434 
Q 2688 3291 2919 2981 
L 2919 3500 
L 4044 3500 
L 4044 353 
Q 4044 -491 3511 -936 
Q 2978 -1381 1966 -1381 
Q 1638 -1381 1331 -1331 
Q 1025 -1281 716 -1178 
L 716 -306 
Q 1009 -475 1290 -558 
Q 1572 -641 1856 -641 
Q 2406 -641 2662 -400 
Q 2919 -159 2919 353 
L 2919 594 
z
M 2181 2772 
Q 1834 2772 1640 2515 
Q 1447 2259 1447 1791 
Q 1447 1309 1634 1061 
Q 1822 813 2181 813 
Q 2531 813 2725 1069 
Q 2919 1325 2919 1791 
Q 2919 2259 2725 2515 
Q 2531 2772 2181 2772 
z
" transform="scale(0.015625)"/>
     </defs>
     <use xlink:href="#DejaVuSans-Bold-45"/>
     <use xlink:href="#DejaVuSans-Bold-72" transform="translate(68.310547 0)"/>
     <use xlink:href="#DejaVuSans-Bold-64" transform="translate(117.626953 0)"/>
     <use xlink:href="#DejaVuSans-Bold-151" transform="translate(189.208984 0)"/>
     <use xlink:href="#DejaVuSans-Bold-73" transform="translate(257.910156 0)"/>
     <use xlink:href="#DejaVuSans-Bold-20" transform="translate(317.431641 0)"/>
     <use xlink:href="#DejaVuSans-Bold-50" transform="translate(352.246094 0)"/>
     <use xlink:href="#DejaVuSans-Bold-72" transform="translate(425.537109 0)"/>
     <use xlink:href="#DejaVuSans-Bold-6f" transform="translate(474.853516 0)"/>
     <use xlink:href="#DejaVuSans-Bold-62" transform="translate(543.554688 0)"/>
     <use xlink:href="#DejaVuSans-Bold-6c" transform="translate(615.136719 0)"/>
     <use xlink:href="#DejaVuSans-Bold-65" transform="translate(649.414062 0)"/>
     <use xlink:href="#DejaVuSans-Bold-6d" transform="translate(717.236328 0)"/>
     <use xlink:href="#DejaVuSans-Bold-73" transform="translate(821.435547 0)"/>
     <use xlink:href="#DejaVuSans-Bold-20" transform="translate(880.957031 0)"/>
     <use xlink:href="#DejaVuSans-Bold-50" transform="translate(915.771484 0)"/>
     <use xlink:href="#DejaVuSans-Bold-72" transform="translate(989.0625 0)"/>
     <use xlink:href="#DejaVuSans-Bold-6f" transform="translate(1038.378906 0)"/>
     <use xlink:href="#DejaVuSans-Bold-67" transform="translate(1107.080078 0)"/>
     <use xlink:href="#DejaVuSans-Bold-72" transform="translate(1178.662109 0)"/>
     <use xlink:href="#DejaVuSans-Bold-65" transform="translate(1227.978516 0)"/>
     <use xlink:href="#DejaVuSans-Bold-73" transform="translate(1295.800781 0)"/>
     <use xlink:href="#DejaVuSans-Bold-73" transform="translate(1355.322266 0)"/>
    </g>
   </g>
   <g id="legend_1">
    <g id="patch_7">
     <path d="M 55.90125 119.788437 
L 213.771563 119.788437 
Q 215.771563 119.788437 215.771563 117.788437 
L 215.771563 45.397812 
Q 215.771563 43.397812 213.771563 43.397812 
L 55.90125 43.397812 
Q 53.90125 43.397812 53.90125 45.397812 
L 53.90125 117.788437 
Q 53.90125 119.788437 55.90125 119.788437 
z
" style="fill: #f6f8fa; opacity: 0.8; stroke: #d0d7de; stroke-linejoin: miter"/>
    </g>
    <g id="line2d_40">
     <path d="M 57.90125 51.49625 
L 67.90125 51.49625 
L 77.90125 51.49625 
" style="fill: none; stroke: #1a7f37; stroke-width: 2; stroke-linecap: square"/>
    </g>
    <g id="text_26">
     <!-- Solved -->
     <g style="fill: #24292f" transform="translate(85.90125 54.99625) scale(0.1 -0.1)">
      <defs>
       <path id="DejaVuSans-6c" d="M 603 4863 
L 1178 4863 
L 1178 0 
L 603 0 
L 603 4863 
z
" transform="scale(0.015625)"/>
       <path id="DejaVuSans-64" d="M 2906 2969 
L 2906 4863 
L 3481 4863 
L 3481 0 
L 2906 0 
L 2906 525 
Q 2725 213 2448 61 
Q 2172 -91 1784 -91 
Q 1150 -91 751 415 
Q 353 922 353 1747 
Q 353 2572 751 3078 
Q 1150 3584 1784 3584 
Q 2172 3584 2448 3432 
Q 2725 3281 2906 2969 
z
M 947 1747 
Q 947 1113 1208 752 
Q 1469 391 1925 391 
Q 2381 391 2643 752 
Q 2906 1113 2906 1747 
Q 2906 2381 2643 2742 
Q 2381 3103 1925 3103 
Q 1469 3103 1208 2742 
Q 947 2381 947 1747 
z
" transform="scale(0.015625)"/>
      </defs>
      <use xlink:href="#DejaVuSans-53"/>
      <use xlink:href="#DejaVuSans-6f" transform="translate(63.476562 0)"/>
      <use xlink:href="#DejaVuSans-6c" transform="translate(124.658203 0)"/>
      <use xlink:href="#DejaVuSans-76" transform="translate(152.441406 0)"/>
      <use xlink:href="#DejaVuSans-65" transform="translate(211.621094 0)"/>
      <use xlink:href="#DejaVuSans-64" transform="translate(273.144531 0)"/>
     </g>
    </g>
    <g id="line2d_41">
     <path d="M 57.90125 66.174375 
L 67.90125 66.174375 
L 77.90125 66.174375 
" style="fill: none; stroke: #0969da; stroke-width: 2; stroke-linecap: square"/>
    </g>
    <g id="text_27">
     <!-- Lean Formalized Problem -->
     <g style="fill: #24292f" transform="translate(85.90125 69.674375) scale(0.1 -0.1)">
      <defs>
       <path id="DejaVuSans-4c" d="M 628 4666 
L 1259 4666 
L 1259 531 
L 3531 531 
L 3531 0 
L 628 0 
L 628 4666 
z
" transform="scale(0.015625)"/>
       <path id="DejaVuSans-20" transform="scale(0.015625)"/>
       <path id="DejaVuSans-6d" d="M 3328 2828 
Q 3544 3216 3844 3400 
Q 4144 3584 4550 3584 
Q 5097 3584 5394 3201 
Q 5691 2819 5691 2113 
L 5691 0 
L 5113 0 
L 5113 2094 
Q 5113 2597 4934 2840 
Q 4756 3084 4391 3084 
Q 3944 3084 3684 2787 
Q 3425 2491 3425 1978 
L 3425 0 
L 2847 0 
L 2847 2094 
Q 2847 2600 2669 2842 
Q 2491 3084 2119 3084 
Q 1678 3084 1418 2786 
Q 1159 2488 1159 1978 
L 1159 0 
L 581 0 
L 581 3500 
L 1159 3500 
L 1159 2956 
Q 1356 3278 1631 3431 
Q 1906 3584 2284 3584 
Q 2666 3584 2933 3390 
Q 3200 3197 3328 2828 
z
" transform="scale(0.015625)"/>
       <path id="DejaVuSans-69" d="M 603 3500 
L 1178 3500 
L 1178 0 
L 603 0 
L 603 3500 
z
M 603 4863 
L 1178 4863 
L 1178 4134 
L 603 4134 
L 603 4863 
z
" transform="scale(0.015625)"/>
       <path id="DejaVuSans-7a" d="M 353 3500 
L 3084 3500 
L 3084 2975 
L 922 459 
L 3084 459 
L 3084 0 
L 275 0 
L 275 525 
L 2438 3041 
L 353 3041 
L 353 3500 
z
" transform="scale(0.015625)"/>
       <path id="DejaVuSans-50" d="M 1259 4147 
L 1259 2394 
L 2053 2394 
Q 2494 2394 2734 2622 
Q 2975 2850 2975 3272 
Q 2975 3691 2734 3919 
Q 2494 4147 2053 4147 
L 1259 4147 
z
M 628 4666 
L 2053 4666 
Q 2838 4666 3239 4311 
Q 3641 3956 3641 3272 
Q 3641 2581 3239 2228 
Q 2838 1875 2053 1875 
L 1259 1875 
L 1259 0 
L 628 0 
L 628 4666 
z
" transform="scale(0.015625)"/>
      </defs>
      <use xlink:href="#DejaVuSans-4c"/>
      <use xlink:href="#DejaVuSans-65" transform="translate(53.962891 0)"/>
      <use xlink:href="#DejaVuSans-61" transform="translate(115.486328 0)"/>
      <use xlink:href="#DejaVuSans-6e" transform="translate(176.765625 0)"/>
      <use xlink:href="#DejaVuSans-20" transform="translate(240.144531 0)"/>
      <use xlink:href="#DejaVuSans-46" transform="translate(271.931641 0)"/>
      <use xlink:href="#DejaVuSans-6f" transform="translate(325.826172 0)"/>
      <use xlink:href="#DejaVuSans-72" transform="translate(387.007812 0)"/>
      <use xlink:href="#DejaVuSans-6d" transform="translate(426.371094 0)"/>
      <use xlink:href="#DejaVuSans-61" transform="translate(523.783203 0)"/>
      <use xlink:href="#DejaVuSans-6c" transform="translate(585.0625 0)"/>
      <use xlink:href="#DejaVuSans-69" transform="translate(612.845703 0)"/>
      <use xlink:href="#DejaVuSans-7a" transform="translate(640.628906 0)"/>
      <use xlink:href="#DejaVuSans-65" transform="translate(693.119141 0)"/>
      <use xlink:href="#DejaVuSans-64" transform="translate(754.642578 0)"/>
      <use xlink:href="#DejaVuSans-20" transform="translate(818.119141 0)"/>
      <use xlink:href="#DejaVuSans-50" transform="translate(849.90625 0)"/>
      <use xlink:href="#DejaVuSans-72" transform="translate(908.458984 0)"/>
      <use xlink:href="#DejaVuSans-6f" transform="translate(947.322266 0)"/>
      <use xlink:href="#DejaVuSans-62" transform="translate(1008.503906 0)"/>
      <use xlink:href="#DejaVuSans-6c" transform="translate(1071.980469 0)"/>
      <use xlink:href="#DejaVuSans-65" transform="translate(1099.763672 0)"/>
      <use xlink:href="#DejaVuSans-6d" transform="translate(1161.287109 0)"/>
     </g>
    </g>
    <g id="line2d_42">
     <path d="M 57.90125 80.8525 
L 67.90125 80.8525 
L 77.90125 80.8525 
" style="fill: none; stroke: #bf8700; stroke-width: 2; stroke-linecap: square"/>
    </g>
    <g id="text_28">
     <!-- Lean Formalized Solution -->
     <g style="fill: #24292f" transform="translate(85.90125 84.3525) scale(0.1 -0.1)">
      <use xlink:href="#DejaVuSans-4c"/>
      <use xlink:href="#DejaVuSans-65" transform="translate(53.962891 0)"/>
      <use xlink:href="#DejaVuSans-61" transform="translate(115.486328 0)"/>
      <use xlink:href="#DejaVuSans-6e" transform="translate(176.765625 0)"/>
      <use xlink:href="#DejaVuSans-20" transform="translate(240.144531 0)"/>
      <use xlink:href="#DejaVuSans-46" transform="translate(271.931641 0)"/>
      <use xlink:href="#DejaVuSans-6f" transform="translate(325.826172 0)"/>
      <use xlink:href="#DejaVuSans-72" transform="translate(387.007812 0)"/>
      <use xlink:href="#DejaVuSans-6d" transform="translate(426.371094 0)"/>
      <use xlink:href="#DejaVuSans-61" transform="translate(523.783203 0)"/>
      <use xlink:href="#DejaVuSans-6c" transform="translate(585.0625 0)"/>
      <use xlink:href="#DejaVuSans-69" transform="translate(612.845703 0)"/>
      <use xlink:href="#DejaVuSans-7a" transform="translate(640.628906 0)"/>
      <use xlink:href="#DejaVuSans-65" transform="translate(693.119141 0)"/>
      <use xlink:href="#DejaVuSans-64" transform="translate(754.642578 0)"/>
      <use xlink:href="#DejaVuSans-20" transform="translate(818.119141 0)"/>
      <use xlink:href="#DejaVuSans-53" transform="translate(849.90625 0)"/>
      <use xlink:href="#DejaVuSans-6f" transform="translate(913.382812 0)"/>
      <use xlink:href="#DejaVuSans-6c" transform="translate(974.564453 0)"/>
      <use xlink:href="#DejaVuSans-75" transform="translate(1002.347656 0)"/>
      <use xlink:href="#DejaVuSans-74" transform="translate(1065.726562 0)"/>
      <use xlink:href="#DejaVuSans-69" transform="translate(1104.935547 0)"/>
      <use xlink:href="#DejaVuSans-6f" transform="translate(1132.71875 0)"/>
      <use xlink:href="#DejaVuSans-6e" transform="translate(1193.900391 0)"/>
     </g>
    </g>
    <g id="line2d_43">
     <path d="M 57.90125 95.530625 
L 67.90125 95.530625 
L 77.90125 95.530625 
" style="fill: none; stroke: #cf222e; stroke-width: 2; stroke-linecap: square"/>
    </g>
    <g id="text_29">
     <!-- OEIS Linked -->
     <g style="fill: #24292f" transform="translate(85.90125 99.030625) scale(0.1 -0.1)">
      <defs>
       <path id="DejaVuSans-45" d="M 628 4666 
L 3578 4666 
L 3578 4134 
L 1259 4134 
L 1259 2753 
L 3481 2753 
L 3481 2222 
L 1259 2222 
L 1259 531 
L 3634 531 
L 3634 0 
L 628 0 
L 628 4666 
z
" transform="scale(0.015625)"/>
       <path id="DejaVuSans-49" d="M 628 4666 
L 1259 4666 
L 1259 0 
L 628 0 
L 628 4666 
z
" transform="scale(0.015625)"/>
       <path id="DejaVuSans-6b" d="M 581 4863 
L 1159 4863 
L 1159 1991 
L 2875 3500 
L 3609 3500 
L 1753 1863 
L 3688 0 
L 2938 0 
L 1159 1709 
L 1159 0 
L 581 0 
L 581 4863 
z
" transform="scale(0.015625)"/>
      </defs>
      <use xlink:href="#DejaVuSans-4f"/>
      <use xlink:href="#DejaVuSans-45" transform="translate(78.710938 0)"/>
      <use xlink:href="#DejaVuSans-49" transform="translate(141.894531 0)"/>
      <use xlink:href="#DejaVuSans-53" transform="translate(171.386719 0)"/>
      <use xlink:href="#DejaVuSans-20" transform="translate(234.863281 0)"/>
      <use xlink:href="#DejaVuSans-4c" transform="translate(266.650391 0)"/>
      <use xlink:href="#DejaVuSans-69" transform="translate(322.363281 0)"/>
      <use xlink:href="#DejaVuSans-6e" transform="translate(350.146484 0)"/>
      <use xlink:href="#DejaVuSans-6b" transform="translate(413.525391 0)"/>
      <use xlink:href="#DejaVuSans-65" transform="translate(467.810547 0)"/>
      <use xlink:href="#DejaVuSans-64" transform="translate(529.333984 0)"/>
     </g>
    </g>
    <g id="line2d_44">
     <path d="M 57.90125 110.20875 
L 67.90125 110.20875 
L 77.90125 110.20875 
" style="fill: none; stroke: #9467bd; stroke-width: 2; stroke-linecap: square"/>
    </g>
    <g id="text_30">
     <!-- Open Problems -->
     <g style="fill: #24292f" transform="translate(85.90125 113.70875) scale(0.1 -0.1)">
      <defs>
       <path id="DejaVuSans-73" d="M 2834 3397 
L 2834 2853 
Q 2591 2978 2328 3040 
Q 2066 3103 1784 3103 
Q 1356 3103 1142 2972 
Q 928 2841 928 2578 
Q 928 2378 1081 2264 
Q 1234 2150 1697 2047 
L 1894 2003 
Q 2506 1872 2764 1633 
Q 3022 1394 3022 966 
Q 3022 478 2636 193 
Q 2250 -91 1575 -91 
Q 1294 -91 989 -36 
Q 684 19 347 128 
L 347 722 
Q 666 556 975 473 
Q 1284 391 1588 391 
Q 1994 391 2212 530 
Q 2431 669 2431 922 
Q 2431 1156 2273 1281 
Q 2116 1406 1581 1522 
L 1381 1569 
Q 847 1681 609 1914 
Q 372 2147 372 2553 
Q 372 3047 722 3315 
Q 1072 3584 1716 3584 
Q 2034 3584 2315 3537 
Q 2597 3491 2834 3397 
z
" transform="scale(0.015625)"/>
      </defs>
      <use xlink:href="#DejaVuSans-4f"/>
      <use xlink:href="#DejaVuSans-70" transform="translate(78.710938 0)"/>
      <use xlink:href="#DejaVuSans-65" transform="translate(142.1875 0)"/>
      <use xlink:href="#DejaVuSans-6e" transform="translate(203.710938 0)"/>
      <use xlink:href="#DejaVuSans-20" transform="translate(267.089844 0)"/>
      <use xlink:href="#DejaVuSans-50" transform="translate(298.876953 0)"/>
      <use xlink:href="#DejaVuSans-72" transform="translate(357.429688 0)"/>
      <use xlink:href="#DejaVuSans-6f" transform="translate(396.292969 0)"/>
      <use xlink:href="#DejaVuSans-62" transform="translate(457.474609 0)"/>
      <use xlink:href="#DejaVuSans-6c" transform="translate(520.951172 0)"/>
      <use xlink:href="#DejaVuSans-65" transform="translate(548.734375 0)"/>
      <use xlink:href="#DejaVuSans-6d" transform="translate(610.257812 0)"/>
      <use xlink:href="#DejaVuSans-73" transform="translate(707.669922 0)"/>
     </g>
    </g>
   </g>
  </g>
 </g>
 <defs>
  <clipPath id="pfb82d5ea64">
   <rect x="48.90125" y="38.397812" width="799.45" height="416.84"/>
  </clipPath>
 </defs>
</svg>
