<?xml version="1.0" encoding="utf-8" standalone="no"?>
<!DOCTYPE svg PUBLIC "-//W3C//DTD SVG 1.1//EN"
  "http://www.w3.org/Graphics/SVG/1.1/DTD/svg11.dtd">
<svg xmlns:xlink="http://www.w3.org/1999/xlink" width="855.55125pt" height="494.729687pt" viewBox="0 0 855.55125 494.729687" xmlns="http://www.w3.org/2000/svg" version="1.1">
 <metadata>
  <rdf:RDF xmlns:dc="http://purl.org/dc/elements/1.1/" xmlns:cc="http://creativecommons.org/ns#" xmlns:rdf="http://www.w3.org/1999/02/22-rdf-syntax-ns#">
   <cc:Work>
    <dc:type rdf:resource="http://purl.org/dc/dcmitype/StillImage"/>
    <dc:date>2026-03-30T10:43:37.988846</dc:date>
    <dc:format>image/svg+xml</dc:format>
    <dc:creator>
     <cc:Agent>
      <dc:title>Matplotlib v3.10.7, https://matplotlib.org/</dc:title>
     </cc:Agent>
    </dc:creator>
   </cc:Work>
  </rdf:RDF>
 </metadata>
 <defs>
  <style type="text/css">*{stroke-linejoin: round; stroke-linecap: butt}</style>
 </defs>
 <g id="figure_1">
  <g id="patch_1">
   <path d="M 0 494.729687 
L 855.55125 494.729687 
L 855.55125 0 
L 0 0 
z
" style="fill: #0d1117"/>
  </g>
  <g id="axes_1">
   <g id="patch_2">
    <path d="M 48.90125 455.237812 
L 848.35125 455.237812 
L 848.35125 38.397812 
L 48.90125 38.397812 
z
" style="fill: #0d1117"/>
   </g>
   <g id="matplotlib.axis_1">
    <g id="xtick_1">
     <g id="line2d_1">
      <path d="M 86.248067 455.237812 
L 86.248067 38.397812 
" clip-path="url(#p5c23f6826b)" style="fill: none; stroke: #30363d; stroke-opacity: 0.25; stroke-width: 0.5; stroke-linecap: square"/>
     </g>
     <g id="line2d_2">
      <defs>
       <path id="m3620e170d2" d="M 0 0 
L 0 3.5 
" style="stroke: #c9d1d9; stroke-width: 0.8"/>
      </defs>
      <g>
       <use xlink:href="#m3620e170d2" x="86.248067" y="455.237812" style="fill: #c9d1d9; stroke: #c9d1d9; stroke-width: 0.8"/>
      </g>
     </g>
     <g id="text_1">
      <!-- Sep -->
      <g style="fill: #c9d1d9" transform="translate(76.823067 469.83625) scale(0.1 -0.1)">
       <defs>
        <path id="DejaVuSans-53" d="M 3425 4513 
L 3425 3897 
Q 3066 4069 2747 4153 
Q 2428 4238 2131 4238 
Q 1616 4238 1336 4038 
Q 1056 3838 1056 3469 
Q 1056 3159 1242 3001 
Q 1428 2844 1947 2747 
L 2328 2669 
Q 3034 2534 3370 2195 
Q 3706 1856 3706 1288 
Q 3706 609 3251 259 
Q 2797 -91 1919 -91 
Q 1588 -91 1214 -16 
Q 841 59 441 206 
L 441 856 
Q 825 641 1194 531 
Q 1563 422 1919 422 
Q 2459 422 2753 634 
Q 3047 847 3047 1241 
Q 3047 1584 2836 1778 
Q 2625 1972 2144 2069 
L 1759 2144 
Q 1053 2284 737 2584 
Q 422 2884 422 3419 
Q 422 4038 858 4394 
Q 1294 4750 2059 4750 
Q 2388 4750 2728 4690 
Q 3069 4631 3425 4513 
z
" transform="scale(0.015625)"/>
        <path id="DejaVuSans-65" d="M 3597 1894 
L 3597 1613 
L 953 1613 
Q 991 1019 1311 708 
Q 1631 397 2203 397 
Q 2534 397 2845 478 
Q 3156 559 3463 722 
L 3463 178 
Q 3153 47 2828 -22 
Q 2503 -91 2169 -91 
Q 1331 -91 842 396 
Q 353 884 353 1716 
Q 353 2575 817 3079 
Q 1281 3584 2069 3584 
Q 2775 3584 3186 3129 
Q 3597 2675 3597 1894 
z
M 3022 2063 
Q 3016 2534 2758 2815 
Q 2500 3097 2075 3097 
Q 1594 3097 1305 2825 
Q 1016 2553 972 2059 
L 3022 2063 
z
" transform="scale(0.015625)"/>
        <path id="DejaVuSans-70" d="M 1159 525 
L 1159 -1331 
L 581 -1331 
L 581 3500 
L 1159 3500 
L 1159 2969 
Q 1341 3281 1617 3432 
Q 1894 3584 2278 3584 
Q 2916 3584 3314 3078 
Q 3713 2572 3713 1747 
Q 3713 922 3314 415 
Q 2916 -91 2278 -91 
Q 1894 -91 1617 61 
Q 1341 213 1159 525 
z
M 3116 1747 
Q 3116 2381 2855 2742 
Q 2594 3103 2138 3103 
Q 1681 3103 1420 2742 
Q 1159 2381 1159 1747 
Q 1159 1113 1420 752 
Q 1681 391 2138 391 
Q 2594 391 2855 752 
Q 3116 1113 3116 1747 
z
" transform="scale(0.015625)"/>
       </defs>
       <use xlink:href="#DejaVuSans-53"/>
       <use xlink:href="#DejaVuSans-65" transform="translate(63.476562 0)"/>
       <use xlink:href="#DejaVuSans-70" transform="translate(125 0)"/>
      </g>
     </g>
    </g>
    <g id="xtick_2">
     <g id="line2d_3">
      <path d="M 189.708515 455.237812 
L 189.708515 38.397812 
" clip-path="url(#p5c23f6826b)" style="fill: none; stroke: #30363d; stroke-opacity: 0.25; stroke-width: 0.5; stroke-linecap: square"/>
     </g>
     <g id="line2d_4">
      <g>
       <use xlink:href="#m3620e170d2" x="189.708515" y="455.237812" style="fill: #c9d1d9; stroke: #c9d1d9; stroke-width: 0.8"/>
      </g>
     </g>
     <g id="text_2">
      <!-- Oct -->
      <g style="fill: #c9d1d9" transform="translate(181.063203 469.83625) scale(0.1 -0.1)">
       <defs>
        <path id="DejaVuSans-4f" d="M 2522 4238 
Q 1834 4238 1429 3725 
Q 1025 3213 1025 2328 
Q 1025 1447 1429 934 
Q 1834 422 2522 422 
Q 3209 422 3611 934 
Q 4013 1447 4013 2328 
Q 4013 3213 3611 3725 
Q 3209 4238 2522 4238 
z
M 2522 4750 
Q 3503 4750 4090 4092 
Q 4678 3434 4678 2328 
Q 4678 1225 4090 567 
Q 3503 -91 2522 -91 
Q 1538 -91 948 565 
Q 359 1222 359 2328 
Q 359 3434 948 4092 
Q 1538 4750 2522 4750 
z
" transform="scale(0.015625)"/>
        <path id="DejaVuSans-63" d="M 3122 3366 
L 3122 2828 
Q 2878 2963 2633 3030 
Q 2388 3097 2138 3097 
Q 1578 3097 1268 2742 
Q 959 2388 959 1747 
Q 959 1106 1268 751 
Q 1578 397 2138 397 
Q 2388 397 2633 464 
Q 2878 531 3122 666 
L 3122 134 
Q 2881 22 2623 -34 
Q 2366 -91 2075 -91 
Q 1284 -91 818 406 
Q 353 903 353 1747 
Q 353 2603 823 3093 
Q 1294 3584 2113 3584 
Q 2378 3584 2631 3529 
Q 2884 3475 3122 3366 
z
" transform="scale(0.015625)"/>
        <path id="DejaVuSans-74" d="M 1172 4494 
L 1172 3500 
L 2356 3500 
L 2356 3053 
L 1172 3053 
L 1172 1153 
Q 1172 725 1289 603 
Q 1406 481 1766 481 
L 2356 481 
L 2356 0 
L 1766 0 
Q 1100 0 847 248 
Q 594 497 594 1153 
L 594 3053 
L 172 3053 
L 172 3500 
L 594 3500 
L 594 4494 
L 1172 4494 
z
" transform="scale(0.015625)"/>
       </defs>
       <use xlink:href="#DejaVuSans-4f"/>
       <use xlink:href="#DejaVuSans-63" transform="translate(78.710938 0)"/>
       <use xlink:href="#DejaVuSans-74" transform="translate(133.691406 0)"/>
      </g>
     </g>
    </g>
    <g id="xtick_3">
     <g id="line2d_5">
      <path d="M 296.617645 455.237812 
L 296.617645 38.397812 
" clip-path="url(#p5c23f6826b)" style="fill: none; stroke: #30363d; stroke-opacity: 0.25; stroke-width: 0.5; stroke-linecap: square"/>
     </g>
     <g id="line2d_6">
      <g>
       <use xlink:href="#m3620e170d2" x="296.617645" y="455.237812" style="fill: #c9d1d9; stroke: #c9d1d9; stroke-width: 0.8"/>
      </g>
     </g>
     <g id="text_3">
      <!-- Nov -->
      <g style="fill: #c9d1d9" transform="translate(286.85827 469.83625) scale(0.1 -0.1)">
       <defs>
        <path id="DejaVuSans-4e" d="M 628 4666 
L 1478 4666 
L 3547 763 
L 3547 4666 
L 4159 4666 
L 4159 0 
L 3309 0 
L 1241 3903 
L 1241 0 
L 628 0 
L 628 4666 
z
" transform="scale(0.015625)"/>
        <path id="DejaVuSans-6f" d="M 1959 3097 
Q 1497 3097 1228 2736 
Q 959 2375 959 1747 
Q 959 1119 1226 758 
Q 1494 397 1959 397 
Q 2419 397 2687 759 
Q 2956 1122 2956 1747 
Q 2956 2369 2687 2733 
Q 2419 3097 1959 3097 
z
M 1959 3584 
Q 2709 3584 3137 3096 
Q 3566 2609 3566 1747 
Q 3566 888 3137 398 
Q 2709 -91 1959 -91 
Q 1206 -91 779 398 
Q 353 888 353 1747 
Q 353 2609 779 3096 
Q 1206 3584 1959 3584 
z
" transform="scale(0.015625)"/>
        <path id="DejaVuSans-76" d="M 191 3500 
L 800 3500 
L 1894 563 
L 2988 3500 
L 3597 3500 
L 2284 0 
L 1503 0 
L 191 3500 
z
" transform="scale(0.015625)"/>
       </defs>
       <use xlink:href="#DejaVuSans-4e"/>
       <use xlink:href="#DejaVuSans-6f" transform="translate(74.804688 0)"/>
       <use xlink:href="#DejaVuSans-76" transform="translate(135.986328 0)"/>
      </g>
     </g>
    </g>
    <g id="xtick_4">
     <g id="line2d_7">
      <path d="M 400.078093 455.237812 
L 400.078093 38.397812 
" clip-path="url(#p5c23f6826b)" style="fill: none; stroke: #30363d; stroke-opacity: 0.25; stroke-width: 0.5; stroke-linecap: square"/>
     </g>
     <g id="line2d_8">
      <g>
       <use xlink:href="#m3620e170d2" x="400.078093" y="455.237812" style="fill: #c9d1d9; stroke: #c9d1d9; stroke-width: 0.8"/>
      </g>
     </g>
     <g id="text_4">
      <!-- Dec -->
      <g style="fill: #c9d1d9" transform="translate(390.402312 469.83625) scale(0.1 -0.1)">
       <defs>
        <path id="DejaVuSans-44" d="M 1259 4147 
L 1259 519 
L 2022 519 
Q 2988 519 3436 956 
Q 3884 1394 3884 2338 
Q 3884 3275 3436 3711 
Q 2988 4147 2022 4147 
L 1259 4147 
z
M 628 4666 
L 1925 4666 
Q 3281 4666 3915 4102 
Q 4550 3538 4550 2338 
Q 4550 1131 3912 565 
Q 3275 0 1925 0 
L 628 0 
L 628 4666 
z
" transform="scale(0.015625)"/>
       </defs>
       <use xlink:href="#DejaVuSans-44"/>
       <use xlink:href="#DejaVuSans-65" transform="translate(77.001953 0)"/>
       <use xlink:href="#DejaVuSans-63" transform="translate(138.525391 0)"/>
      </g>
     </g>
    </g>
    <g id="xtick_5">
     <g id="line2d_9">
      <path d="M 506.987223 455.237812 
L 506.987223 38.397812 
" clip-path="url(#p5c23f6826b)" style="fill: none; stroke: #30363d; stroke-opacity: 0.25; stroke-width: 0.5; stroke-linecap: square"/>
     </g>
     <g id="line2d_10">
      <g>
       <use xlink:href="#m3620e170d2" x="506.987223" y="455.237812" style="fill: #c9d1d9; stroke: #c9d1d9; stroke-width: 0.8"/>
      </g>
     </g>
     <g id="text_5">
      <!-- 2026 -->
      <g style="fill: #c9d1d9" transform="translate(494.262223 469.83625) scale(0.1 -0.1)">
       <defs>
        <path id="DejaVuSans-32" d="M 1228 531 
L 3431 531 
L 3431 0 
L 469 0 
L 469 531 
Q 828 903 1448 1529 
Q 2069 2156 2228 2338 
Q 2531 2678 2651 2914 
Q 2772 3150 2772 3378 
Q 2772 3750 2511 3984 
Q 2250 4219 1831 4219 
Q 1534 4219 1204 4116 
Q 875 4013 500 3803 
L 500 4441 
Q 881 4594 1212 4672 
Q 1544 4750 1819 4750 
Q 2544 4750 2975 4387 
Q 3406 4025 3406 3419 
Q 3406 3131 3298 2873 
Q 3191 2616 2906 2266 
Q 2828 2175 2409 1742 
Q 1991 1309 1228 531 
z
" transform="scale(0.015625)"/>
        <path id="DejaVuSans-30" d="M 2034 4250 
Q 1547 4250 1301 3770 
Q 1056 3291 1056 2328 
Q 1056 1369 1301 889 
Q 1547 409 2034 409 
Q 2525 409 2770 889 
Q 3016 1369 3016 2328 
Q 3016 3291 2770 3770 
Q 2525 4250 2034 4250 
z
M 2034 4750 
Q 2819 4750 3233 4129 
Q 3647 3509 3647 2328 
Q 3647 1150 3233 529 
Q 2819 -91 2034 -91 
Q 1250 -91 836 529 
Q 422 1150 422 2328 
Q 422 3509 836 4129 
Q 1250 4750 2034 4750 
z
" transform="scale(0.015625)"/>
        <path id="DejaVuSans-36" d="M 2113 2584 
Q 1688 2584 1439 2293 
Q 1191 2003 1191 1497 
Q 1191 994 1439 701 
Q 1688 409 2113 409 
Q 2538 409 2786 701 
Q 3034 994 3034 1497 
Q 3034 2003 2786 2293 
Q 2538 2584 2113 2584 
z
M 3366 4563 
L 3366 3988 
Q 3128 4100 2886 4159 
Q 2644 4219 2406 4219 
Q 1781 4219 1451 3797 
Q 1122 3375 1075 2522 
Q 1259 2794 1537 2939 
Q 1816 3084 2150 3084 
Q 2853 3084 3261 2657 
Q 3669 2231 3669 1497 
Q 3669 778 3244 343 
Q 2819 -91 2113 -91 
Q 1303 -91 875 529 
Q 447 1150 447 2328 
Q 447 3434 972 4092 
Q 1497 4750 2381 4750 
Q 2619 4750 2861 4703 
Q 3103 4656 3366 4563 
z
" transform="scale(0.015625)"/>
       </defs>
       <use xlink:href="#DejaVuSans-32"/>
       <use xlink:href="#DejaVuSans-30" transform="translate(63.623047 0)"/>
       <use xlink:href="#DejaVuSans-32" transform="translate(127.246094 0)"/>
       <use xlink:href="#DejaVuSans-36" transform="translate(190.869141 0)"/>
      </g>
     </g>
    </g>
    <g id="xtick_6">
     <g id="line2d_11">
      <path d="M 613.896353 455.237812 
L 613.896353 38.397812 
" clip-path="url(#p5c23f6826b)" style="fill: none; stroke: #30363d; stroke-opacity: 0.25; stroke-width: 0.5; stroke-linecap: square"/>
     </g>
     <g id="line2d_12">
      <g>
       <use xlink:href="#m3620e170d2" x="613.896353" y="455.237812" style="fill: #c9d1d9; stroke: #c9d1d9; stroke-width: 0.8"/>
      </g>
     </g>
     <g id="text_6">
      <!-- Feb -->
      <g style="fill: #c9d1d9" transform="translate(605.04479 469.83625) scale(0.1 -0.1)">
       <defs>
        <path id="DejaVuSans-46" d="M 628 4666 
L 3309 4666 
L 3309 4134 
L 1259 4134 
L 1259 2759 
L 3109 2759 
L 3109 2228 
L 1259 2228 
L 1259 0 
L 628 0 
L 628 4666 
z
" transform="scale(0.015625)"/>
        <path id="DejaVuSans-62" d="M 3116 1747 
Q 3116 2381 2855 2742 
Q 2594 3103 2138 3103 
Q 1681 3103 1420 2742 
Q 1159 2381 1159 1747 
Q 1159 1113 1420 752 
Q 1681 391 2138 391 
Q 2594 391 2855 752 
Q 3116 1113 3116 1747 
z
M 1159 2969 
Q 1341 3281 1617 3432 
Q 1894 3584 2278 3584 
Q 2916 3584 3314 3078 
Q 3713 2572 3713 1747 
Q 3713 922 3314 415 
Q 2916 -91 2278 -91 
Q 1894 -91 1617 61 
Q 1341 213 1159 525 
L 1159 0 
L 581 0 
L 581 4863 
L 1159 4863 
L 1159 2969 
z
" transform="scale(0.015625)"/>
       </defs>
       <use xlink:href="#DejaVuSans-46"/>
       <use xlink:href="#DejaVuSans-65" transform="translate(52.019531 0)"/>
       <use xlink:href="#DejaVuSans-62" transform="translate(113.542969 0)"/>
      </g>
     </g>
    </g>
    <g id="xtick_7">
     <g id="line2d_13">
      <path d="M 710.459438 455.237812 
L 710.459438 38.397812 
" clip-path="url(#p5c23f6826b)" style="fill: none; stroke: #30363d; stroke-opacity: 0.25; stroke-width: 0.5; stroke-linecap: square"/>
     </g>
     <g id="line2d_14">
      <g>
       <use xlink:href="#m3620e170d2" x="710.459438" y="455.237812" style="fill: #c9d1d9; stroke: #c9d1d9; stroke-width: 0.8"/>
      </g>
     </g>
     <g id="text_7">
      <!-- Mar -->
      <g style="fill: #c9d1d9" transform="translate(701.025844 469.83625) scale(0.1 -0.1)">
       <defs>
        <path id="DejaVuSans-4d" d="M 628 4666 
L 1569 4666 
L 2759 1491 
L 3956 4666 
L 4897 4666 
L 4897 0 
L 4281 0 
L 4281 4097 
L 3078 897 
L 2444 897 
L 1241 4097 
L 1241 0 
L 628 0 
L 628 4666 
z
" transform="scale(0.015625)"/>
        <path id="DejaVuSans-61" d="M 2194 1759 
Q 1497 1759 1228 1600 
Q 959 1441 959 1056 
Q 959 750 1161 570 
Q 1363 391 1709 391 
Q 2188 391 2477 730 
Q 2766 1069 2766 1631 
L 2766 1759 
L 2194 1759 
z
M 3341 1997 
L 3341 0 
L 2766 0 
L 2766 531 
Q 2569 213 2275 61 
Q 1981 -91 1556 -91 
Q 1019 -91 701 211 
Q 384 513 384 1019 
Q 384 1609 779 1909 
Q 1175 2209 1959 2209 
L 2766 2209 
L 2766 2266 
Q 2766 2663 2505 2880 
Q 2244 3097 1772 3097 
Q 1472 3097 1187 3025 
Q 903 2953 641 2809 
L 641 3341 
Q 956 3463 1253 3523 
Q 1550 3584 1831 3584 
Q 2591 3584 2966 3190 
Q 3341 2797 3341 1997 
z
" transform="scale(0.015625)"/>
        <path id="DejaVuSans-72" d="M 2631 2963 
Q 2534 3019 2420 3045 
Q 2306 3072 2169 3072 
Q 1681 3072 1420 2755 
Q 1159 2438 1159 1844 
L 1159 0 
L 581 0 
L 581 3500 
L 1159 3500 
L 1159 2956 
Q 1341 3275 1631 3429 
Q 1922 3584 2338 3584 
Q 2397 3584 2469 3576 
Q 2541 3569 2628 3553 
L 2631 2963 
z
" transform="scale(0.015625)"/>
       </defs>
       <use xlink:href="#DejaVuSans-4d"/>
       <use xlink:href="#DejaVuSans-61" transform="translate(86.279297 0)"/>
       <use xlink:href="#DejaVuSans-72" transform="translate(147.558594 0)"/>
      </g>
     </g>
    </g>
    <g id="xtick_8">
     <g id="line2d_15">
      <path d="M 817.368568 455.237812 
L 817.368568 38.397812 
" clip-path="url(#p5c23f6826b)" style="fill: none; stroke: #30363d; stroke-opacity: 0.25; stroke-width: 0.5; stroke-linecap: square"/>
     </g>
     <g id="line2d_16">
      <g>
       <use xlink:href="#m3620e170d2" x="817.368568" y="455.237812" style="fill: #c9d1d9; stroke: #c9d1d9; stroke-width: 0.8"/>
      </g>
     </g>
     <g id="text_8">
      <!-- Apr -->
      <g style="fill: #c9d1d9" transform="translate(808.718568 469.83625) scale(0.1 -0.1)">
       <defs>
        <path id="DejaVuSans-41" d="M 2188 4044 
L 1331 1722 
L 3047 1722 
L 2188 4044 
z
M 1831 4666 
L 2547 4666 
L 4325 0 
L 3669 0 
L 3244 1197 
L 1141 1197 
L 716 0 
L 50 0 
L 1831 4666 
z
" transform="scale(0.015625)"/>
       </defs>
       <use xlink:href="#DejaVuSans-41"/>
       <use xlink:href="#DejaVuSans-70" transform="translate(68.408203 0)"/>
       <use xlink:href="#DejaVuSans-72" transform="translate(131.884766 0)"/>
      </g>
     </g>
    </g>
    <g id="text_9">
     <!-- Date -->
     <g style="fill: #c9d1d9" transform="translate(434.285313 485.034062) scale(0.12 -0.12)">
      <use xlink:href="#DejaVuSans-44"/>
      <use xlink:href="#DejaVuSans-61" transform="translate(77.001953 0)"/>
      <use xlink:href="#DejaVuSans-74" transform="translate(138.28125 0)"/>
      <use xlink:href="#DejaVuSans-65" transform="translate(177.490234 0)"/>
     </g>
    </g>
   </g>
   <g id="matplotlib.axis_2">
    <g id="ytick_1">
     <g id="line2d_17">
      <path d="M 48.90125 455.237812 
L 848.35125 455.237812 
" clip-path="url(#p5c23f6826b)" style="fill: none; stroke: #30363d; stroke-opacity: 0.25; stroke-width: 0.5; stroke-linecap: square"/>
     </g>
     <g id="line2d_18">
      <defs>
       <path id="mf566b9f89a" d="M 0 0 
L -3.5 0 
" style="stroke: #c9d1d9; stroke-width: 0.8"/>
      </defs>
      <g>
       <use xlink:href="#mf566b9f89a" x="48.90125" y="455.237812" style="fill: #c9d1d9; stroke: #c9d1d9; stroke-width: 0.8"/>
      </g>
     </g>
     <g id="text_10">
      <!-- 0 -->
      <g style="fill: #c9d1d9" transform="translate(35.53875 459.037031) scale(0.1 -0.1)">
       <use xlink:href="#DejaVuSans-30"/>
      </g>
     </g>
    </g>
    <g id="ytick_2">
     <g id="line2d_19">
      <path d="M 48.90125 399.659146 
L 848.35125 399.659146 
" clip-path="url(#p5c23f6826b)" style="fill: none; stroke: #30363d; stroke-opacity: 0.25; stroke-width: 0.5; stroke-linecap: square"/>
     </g>
     <g id="line2d_20">
      <g>
       <use xlink:href="#mf566b9f89a" x="48.90125" y="399.659146" style="fill: #c9d1d9; stroke: #c9d1d9; stroke-width: 0.8"/>
      </g>
     </g>
     <g id="text_11">
      <!-- 100 -->
      <g style="fill: #c9d1d9" transform="translate(22.81375 403.458365) scale(0.1 -0.1)">
       <defs>
        <path id="DejaVuSans-31" d="M 794 531 
L 1825 531 
L 1825 4091 
L 703 3866 
L 703 4441 
L 1819 4666 
L 2450 4666 
L 2450 531 
L 3481 531 
L 3481 0 
L 794 0 
L 794 531 
z
" transform="scale(0.015625)"/>
       </defs>
       <use xlink:href="#DejaVuSans-31"/>
       <use xlink:href="#DejaVuSans-30" transform="translate(63.623047 0)"/>
       <use xlink:href="#DejaVuSans-30" transform="translate(127.246094 0)"/>
      </g>
     </g>
    </g>
    <g id="ytick_3">
     <g id="line2d_21">
      <path d="M 48.90125 344.080479 
L 848.35125 344.080479 
" clip-path="url(#p5c23f6826b)" style="fill: none; stroke: #30363d; stroke-opacity: 0.25; stroke-width: 0.5; stroke-linecap: square"/>
     </g>
     <g id="line2d_22">
      <g>
       <use xlink:href="#mf566b9f89a" x="48.90125" y="344.080479" style="fill: #c9d1d9; stroke: #c9d1d9; stroke-width: 0.8"/>
      </g>
     </g>
     <g id="text_12">
      <!-- 200 -->
      <g style="fill: #c9d1d9" transform="translate(22.81375 347.879698) scale(0.1 -0.1)">
       <use xlink:href="#DejaVuSans-32"/>
       <use xlink:href="#DejaVuSans-30" transform="translate(63.623047 0)"/>
       <use xlink:href="#DejaVuSans-30" transform="translate(127.246094 0)"/>
      </g>
     </g>
    </g>
    <g id="ytick_4">
     <g id="line2d_23">
      <path d="M 48.90125 288.501812 
L 848.35125 288.501812 
" clip-path="url(#p5c23f6826b)" style="fill: none; stroke: #30363d; stroke-opacity: 0.25; stroke-width: 0.5; stroke-linecap: square"/>
     </g>
     <g id="line2d_24">
      <g>
       <use xlink:href="#mf566b9f89a" x="48.90125" y="288.501812" style="fill: #c9d1d9; stroke: #c9d1d9; stroke-width: 0.8"/>
      </g>
     </g>
     <g id="text_13">
      <!-- 300 -->
      <g style="fill: #c9d1d9" transform="translate(22.81375 292.301031) scale(0.1 -0.1)">
       <defs>
        <path id="DejaVuSans-33" d="M 2597 2516 
Q 3050 2419 3304 2112 
Q 3559 1806 3559 1356 
Q 3559 666 3084 287 
Q 2609 -91 1734 -91 
Q 1441 -91 1130 -33 
Q 819 25 488 141 
L 488 750 
Q 750 597 1062 519 
Q 1375 441 1716 441 
Q 2309 441 2620 675 
Q 2931 909 2931 1356 
Q 2931 1769 2642 2001 
Q 2353 2234 1838 2234 
L 1294 2234 
L 1294 2753 
L 1863 2753 
Q 2328 2753 2575 2939 
Q 2822 3125 2822 3475 
Q 2822 3834 2567 4026 
Q 2313 4219 1838 4219 
Q 1578 4219 1281 4162 
Q 984 4106 628 3988 
L 628 4550 
Q 988 4650 1302 4700 
Q 1616 4750 1894 4750 
Q 2613 4750 3031 4423 
Q 3450 4097 3450 3541 
Q 3450 3153 3228 2886 
Q 3006 2619 2597 2516 
z
" transform="scale(0.015625)"/>
       </defs>
       <use xlink:href="#DejaVuSans-33"/>
       <use xlink:href="#DejaVuSans-30" transform="translate(63.623047 0)"/>
       <use xlink:href="#DejaVuSans-30" transform="translate(127.246094 0)"/>
      </g>
     </g>
    </g>
    <g id="ytick_5">
     <g id="line2d_25">
      <path d="M 48.90125 232.923146 
L 848.35125 232.923146 
" clip-path="url(#p5c23f6826b)" style="fill: none; stroke: #30363d; stroke-opacity: 0.25; stroke-width: 0.5; stroke-linecap: square"/>
     </g>
     <g id="line2d_26">
      <g>
       <use xlink:href="#mf566b9f89a" x="48.90125" y="232.923146" style="fill: #c9d1d9; stroke: #c9d1d9; stroke-width: 0.8"/>
      </g>
     </g>
     <g id="text_14">
      <!-- 400 -->
      <g style="fill: #c9d1d9" transform="translate(22.81375 236.722365) scale(0.1 -0.1)">
       <defs>
        <path id="DejaVuSans-34" d="M 2419 4116 
L 825 1625 
L 2419 1625 
L 2419 4116 
z
M 2253 4666 
L 3047 4666 
L 3047 1625 
L 3713 1625 
L 3713 1100 
L 3047 1100 
L 3047 0 
L 2419 0 
L 2419 1100 
L 313 1100 
L 313 1709 
L 2253 4666 
z
" transform="scale(0.015625)"/>
       </defs>
       <use xlink:href="#DejaVuSans-34"/>
       <use xlink:href="#DejaVuSans-30" transform="translate(63.623047 0)"/>
       <use xlink:href="#DejaVuSans-30" transform="translate(127.246094 0)"/>
      </g>
     </g>
    </g>
    <g id="ytick_6">
     <g id="line2d_27">
      <path d="M 48.90125 177.344479 
L 848.35125 177.344479 
" clip-path="url(#p5c23f6826b)" style="fill: none; stroke: #30363d; stroke-opacity: 0.25; stroke-width: 0.5; stroke-linecap: square"/>
     </g>
     <g id="line2d_28">
      <g>
       <use xlink:href="#mf566b9f89a" x="48.90125" y="177.344479" style="fill: #c9d1d9; stroke: #c9d1d9; stroke-width: 0.8"/>
      </g>
     </g>
     <g id="text_15">
      <!-- 500 -->
      <g style="fill: #c9d1d9" transform="translate(22.81375 181.143698) scale(0.1 -0.1)">
       <defs>
        <path id="DejaVuSans-35" d="M 691 4666 
L 3169 4666 
L 3169 4134 
L 1269 4134 
L 1269 2991 
Q 1406 3038 1543 3061 
Q 1681 3084 1819 3084 
Q 2600 3084 3056 2656 
Q 3513 2228 3513 1497 
Q 3513 744 3044 326 
Q 2575 -91 1722 -91 
Q 1428 -91 1123 -41 
Q 819 9 494 109 
L 494 744 
Q 775 591 1075 516 
Q 1375 441 1709 441 
Q 2250 441 2565 725 
Q 2881 1009 2881 1497 
Q 2881 1984 2565 2268 
Q 2250 2553 1709 2553 
Q 1456 2553 1204 2497 
Q 953 2441 691 2322 
L 691 4666 
z
" transform="scale(0.015625)"/>
       </defs>
       <use xlink:href="#DejaVuSans-35"/>
       <use xlink:href="#DejaVuSans-30" transform="translate(63.623047 0)"/>
       <use xlink:href="#DejaVuSans-30" transform="translate(127.246094 0)"/>
      </g>
     </g>
    </g>
    <g id="ytick_7">
     <g id="line2d_29">
      <path d="M 48.90125 121.765812 
L 848.35125 121.765812 
" clip-path="url(#p5c23f6826b)" style="fill: none; stroke: #30363d; stroke-opacity: 0.25; stroke-width: 0.5; stroke-linecap: square"/>
     </g>
     <g id="line2d_30">
      <g>
       <use xlink:href="#mf566b9f89a" x="48.90125" y="121.765812" style="fill: #c9d1d9; stroke: #c9d1d9; stroke-width: 0.8"/>
      </g>
     </g>
     <g id="text_16">
      <!-- 600 -->
      <g style="fill: #c9d1d9" transform="translate(22.81375 125.565031) scale(0.1 -0.1)">
       <use xlink:href="#DejaVuSans-36"/>
       <use xlink:href="#DejaVuSans-30" transform="translate(63.623047 0)"/>
       <use xlink:href="#DejaVuSans-30" transform="translate(127.246094 0)"/>
      </g>
     </g>
    </g>
    <g id="ytick_8">
     <g id="line2d_31">
      <path d="M 48.90125 66.187146 
L 848.35125 66.187146 
" clip-path="url(#p5c23f6826b)" style="fill: none; stroke: #30363d; stroke-opacity: 0.25; stroke-width: 0.5; stroke-linecap: square"/>
     </g>
     <g id="line2d_32">
      <g>
       <use xlink:href="#mf566b9f89a" x="48.90125" y="66.187146" style="fill: #c9d1d9; stroke: #c9d1d9; stroke-width: 0.8"/>
      </g>
     </g>
     <g id="text_17">
      <!-- 700 -->
      <g style="fill: #c9d1d9" transform="translate(22.81375 69.986365) scale(0.1 -0.1)">
       <defs>
        <path id="DejaVuSans-37" d="M 525 4666 
L 3525 4666 
L 3525 4397 
L 1831 0 
L 1172 0 
L 2766 4134 
L 525 4134 
L 525 4666 
z
" transform="scale(0.015625)"/>
       </defs>
       <use xlink:href="#DejaVuSans-37"/>
       <use xlink:href="#DejaVuSans-30" transform="translate(63.623047 0)"/>
       <use xlink:href="#DejaVuSans-30" transform="translate(127.246094 0)"/>
      </g>
     </g>
    </g>
    <g id="text_18">
     <!-- Count -->
     <g style="fill: #c9d1d9" transform="translate(16.318125 264.635937) rotate(-90) scale(0.12 -0.12)">
      <defs>
       <path id="DejaVuSans-43" d="M 4122 4306 
L 4122 3641 
Q 3803 3938 3442 4084 
Q 3081 4231 2675 4231 
Q 1875 4231 1450 3742 
Q 1025 3253 1025 2328 
Q 1025 1406 1450 917 
Q 1875 428 2675 428 
Q 3081 428 3442 575 
Q 3803 722 4122 1019 
L 4122 359 
Q 3791 134 3420 21 
Q 3050 -91 2638 -91 
Q 1578 -91 968 557 
Q 359 1206 359 2328 
Q 359 3453 968 4101 
Q 1578 4750 2638 4750 
Q 3056 4750 3426 4639 
Q 3797 4528 4122 4306 
z
" transform="scale(0.015625)"/>
       <path id="DejaVuSans-75" d="M 544 1381 
L 544 3500 
L 1119 3500 
L 1119 1403 
Q 1119 906 1312 657 
Q 1506 409 1894 409 
Q 2359 409 2629 706 
Q 2900 1003 2900 1516 
L 2900 3500 
L 3475 3500 
L 3475 0 
L 2900 0 
L 2900 538 
Q 2691 219 2414 64 
Q 2138 -91 1772 -91 
Q 1169 -91 856 284 
Q 544 659 544 1381 
z
M 1991 3584 
L 1991 3584 
z
" transform="scale(0.015625)"/>
       <path id="DejaVuSans-6e" d="M 3513 2113 
L 3513 0 
L 2938 0 
L 2938 2094 
Q 2938 2591 2744 2837 
Q 2550 3084 2163 3084 
Q 1697 3084 1428 2787 
Q 1159 2491 1159 1978 
L 1159 0 
L 581 0 
L 581 3500 
L 1159 3500 
L 1159 2956 
Q 1366 3272 1645 3428 
Q 1925 3584 2291 3584 
Q 2894 3584 3203 3211 
Q 3513 2838 3513 2113 
z
" transform="scale(0.015625)"/>
      </defs>
      <use xlink:href="#DejaVuSans-43"/>
      <use xlink:href="#DejaVuSans-6f" transform="translate(69.824219 0)"/>
      <use xlink:href="#DejaVuSans-75" transform="translate(131.005859 0)"/>
      <use xlink:href="#DejaVuSans-6e" transform="translate(194.384766 0)"/>
      <use xlink:href="#DejaVuSans-74" transform="translate(257.763672 0)"/>
     </g>
    </g>
   </g>
   <g id="line2d_33">
    <path d="M 85.239886 454.682026 
L 85.305946 454.682026 
L 85.347857 454.126239 
L 85.555137 454.126239 
L 85.648898 257.933546 
L 88.554133 257.933546 
L 88.566826 261.268266 
L 91.927854 261.268266 
L 92.090509 260.712479 
L 92.557119 260.712479 
L 92.935276 260.156692 
L 95.278504 259.600906 
L 95.324765 260.156692 
L 95.437087 259.600906 
L 102.693369 259.600906 
L 107.070959 260.712479 
L 107.722297 259.600906 
L 108.197888 259.600906 
L 109.396544 259.045119 
L 109.89804 256.821972 
L 110.874528 256.821972 
L 112.297508 260.712479 
L 112.389832 256.821972 
L 113.481755 256.266186 
L 116.323524 256.266186 
L 117.073094 255.710399 
L 118.186491 255.710399 
L 118.484938 254.598826 
L 125.424771 254.598826 
L 125.930937 253.487252 
L 125.956881 252.375679 
L 128.142204 252.375679 
L 131.364566 251.264106 
L 133.054939 251.264106 
L 133.080525 250.708319 
L 136.962527 250.708319 
L 137.925523 247.929386 
L 140.973176 247.929386 
L 140.994331 247.373599 
L 158.06271 247.373599 
L 161.25322 246.817812 
L 161.362149 247.373599 
L 164.671127 246.817812 
L 176.186091 246.817812 
L 181.767247 246.262026 
L 181.875058 245.706239 
L 182.140176 245.150452 
L 185.288694 245.150452 
L 186.628731 244.594666 
L 192.154884 244.594666 
L 192.364679 247.373599 
L 192.374977 245.150452 
L 192.643647 245.150452 
L 193.977775 242.927306 
L 200.509754 242.927306 
L 205.515891 242.371519 
L 211.079883 242.371519 
L 211.324045 241.815732 
L 225.782044 241.815732 
L 226.399095 241.259946 
L 229.909685 241.259946 
L 229.934432 240.148372 
L 236.623358 240.148372 
L 236.75903 236.257866 
L 248.865619 236.257866 
L 248.869251 235.702079 
L 249.219867 235.702079 
L 250.469056 235.146292 
L 252.296418 235.146292 
L 252.789612 234.590506 
L 252.838947 235.146292 
L 253.96831 234.590506 
L 253.97346 234.034719 
L 253.999844 234.590506 
L 254.652219 234.034719 
L 260.594928 234.034719 
L 262.442567 233.478932 
L 264.634955 233.478932 
L 268.358693 232.923146 
L 271.883892 232.923146 
L 274.607472 231.811572 
L 280.567864 231.811572 
L 284.035066 230.699999 
L 285.011953 231.255786 
L 289.851244 231.255786 
L 295.31018 229.032639 
L 303.451503 229.032639 
L 305.976425 228.476852 
L 350.973537 228.476852 
L 351.336926 227.921066 
L 367.746344 227.921066 
L 368.020522 227.365279 
L 395.942749 227.365279 
L 402.091141 226.809492 
L 402.126706 227.365279 
L 406.528046 225.697919 
L 412.987259 225.697919 
L 416.514214 225.142132 
L 416.520002 224.586346 
L 423.879026 224.586346 
L 426.520261 225.142132 
L 427.469726 224.586346 
L 439.785431 224.586346 
L 440.309559 225.142132 
L 441.269681 224.586346 
L 441.599621 222.363199 
L 447.243524 222.363199 
L 447.248394 221.807412 
L 464.518625 221.807412 
L 465.524331 221.251626 
L 468.843368 221.251626 
L 469.16716 220.695839 
L 485.351895 220.695839 
L 485.373888 220.140052 
L 489.421938 220.140052 
L 489.427965 219.584266 
L 490.410241 219.584266 
L 490.461532 219.028479 
L 491.986895 219.028479 
L 492.226547 218.472692 
L 495.491298 218.472692 
L 495.987565 217.361119 
L 497.784831 215.137972 
L 502.130929 215.137972 
L 502.451808 212.359039 
L 503.909155 212.359039 
L 504.624397 211.247466 
L 508.310016 211.247466 
L 509.51937 210.691679 
L 512.981144 210.691679 
L 513.445119 210.135892 
L 522.847606 210.135892 
L 523.079274 209.580106 
L 523.948909 209.580106 
L 525.299044 209.024319 
L 540.506931 209.024319 
L 540.643562 208.468532 
L 541.131167 208.468532 
L 542.149087 207.356959 
L 543.576218 207.356959 
L 543.91937 206.801172 
L 544.249988 206.801172 
L 544.375442 206.245386 
L 548.191983 206.245386 
L 548.841724 205.689599 
L 552.163715 205.689599 
L 552.376703 205.133812 
L 554.196361 205.133812 
L 554.312954 204.578026 
L 559.968033 204.578026 
L 560.089615 204.022239 
L 563.387736 204.022239 
L 564.489319 201.799092 
L 565.710647 201.799092 
L 565.711924 201.243306 
L 570.671001 201.243306 
L 571.580152 200.687519 
L 575.377254 200.687519 
L 576.125147 200.131732 
L 576.40647 200.131732 
L 577.137239 199.575946 
L 579.003918 199.575946 
L 579.21966 199.020159 
L 583.901285 199.020159 
L 585.108044 198.464372 
L 585.195938 197.908586 
L 585.586629 197.908586 
L 586.819772 195.685439 
L 590.644096 195.685439 
L 590.671638 195.129652 
L 594.311274 195.129652 
L 594.522905 194.573866 
L 595.07186 194.573866 
L 595.488057 194.018079 
L 595.574873 194.573866 
L 595.886531 194.018079 
L 597.271193 194.018079 
L 597.284445 193.462292 
L 597.652145 193.462292 
L 597.813163 192.906506 
L 598.925762 192.350719 
L 606.666775 192.350719 
L 607.876687 191.794932 
L 608.686608 191.794932 
L 609.343694 191.239146 
L 610.008404 191.794932 
L 612.745276 191.794932 
L 612.863305 190.683359 
L 616.792288 190.683359 
L 618.316733 189.015999 
L 634.863499 189.015999 
L 635.825178 188.460212 
L 661.366018 188.460212 
L 661.410324 187.904426 
L 699.052524 187.904426 
L 699.217854 187.348639 
L 699.229708 186.792852 
L 699.241483 187.348639 
L 704.711356 187.348639 
L 705.946375 186.792852 
L 727.495805 186.792852 
L 731.930195 186.237066 
L 731.973304 185.681279 
L 732.340405 185.681279 
L 733.490285 185.125492 
L 768.075691 185.125492 
L 768.272913 184.569706 
L 799.167153 184.569706 
L 803.114855 184.013919 
L 805.529611 184.013919 
L 805.791655 183.458132 
L 807.470013 182.902346 
L 812.012614 182.902346 
L 812.012614 182.902346 
" clip-path="url(#p5c23f6826b)" style="fill: none; stroke: #3fb950; stroke-width: 2; stroke-linecap: square"/>
   </g>
   <g id="line2d_34">
    <path d="M 85.239886 455.237812 
L 85.347857 453.570452 
L 85.465328 453.570452 
L 85.555137 372.981386 
L 87.183642 372.981386 
L 87.21713 370.758239 
L 88.895848 370.758239 
L 89.32837 369.090879 
L 89.916881 370.758239 
L 89.921232 369.090879 
L 90.408199 369.090879 
L 90.596399 367.979306 
L 95.405434 367.979306 
L 95.410024 367.423519 
L 95.437087 367.979306 
L 95.673785 367.423519 
L 95.743197 367.979306 
L 95.928325 367.423519 
L 97.615903 367.423519 
L 97.704196 366.867732 
L 97.944686 366.311946 
L 99.850042 366.311946 
L 102.018321 365.756159 
L 102.094639 365.200372 
L 102.680676 364.644586 
L 102.693369 364.088799 
L 107.070959 367.979306 
L 107.722297 366.311946 
L 108.197888 363.533012 
L 110.874528 363.533012 
L 112.297508 367.979306 
L 112.389832 363.533012 
L 138.392292 363.533012 
L 139.190199 362.977226 
L 140.994331 362.977226 
L 145.921714 362.421439 
L 147.121967 361.865652 
L 164.223676 361.865652 
L 164.671127 361.309866 
L 166.970008 360.754079 
L 168.431148 360.754079 
L 170.050751 360.198292 
L 170.094378 359.086719 
L 171.207695 358.530932 
L 171.955948 357.975146 
L 182.264073 357.975146 
L 184.318912 357.419359 
L 184.940114 357.419359 
L 185.288694 356.863572 
L 186.628731 356.863572 
L 187.960026 356.307786 
L 192.154884 356.307786 
L 192.364679 358.530932 
L 192.374977 356.307786 
L 193.977775 356.307786 
L 194.138674 355.751999 
L 196.40738 355.751999 
L 198.639483 355.196212 
L 198.693648 354.640426 
L 205.515891 354.640426 
L 208.393424 354.084639 
L 208.400689 353.528852 
L 217.976209 353.528852 
L 221.970532 352.973066 
L 224.967293 352.973066 
L 225.782044 352.417279 
L 230.356377 352.417279 
L 232.9654 351.861492 
L 233.108417 351.305706 
L 235.652099 351.305706 
L 235.947313 350.749919 
L 236.75903 350.194132 
L 238.571065 350.194132 
L 239.715117 349.638346 
L 241.812706 349.638346 
L 243.181721 349.082559 
L 246.102243 349.082559 
L 247.097212 347.970986 
L 254.652219 347.970986 
L 256.803813 347.415199 
L 259.326779 347.415199 
L 259.895732 346.859412 
L 260.069723 346.303626 
L 260.594928 345.747839 
L 269.283051 345.747839 
L 270.873756 345.192052 
L 271.883892 344.636266 
L 296.589585 344.636266 
L 302.135416 344.080479 
L 302.201675 343.524692 
L 305.976425 343.524692 
L 309.202778 342.968906 
L 314.905317 342.968906 
L 315.387175 342.413119 
L 325.098846 342.413119 
L 332.701193 341.857332 
L 332.774158 341.301546 
L 333.768049 341.301546 
L 335.781736 340.745759 
L 335.894057 339.078399 
L 335.982669 338.522612 
L 340.188903 337.966826 
L 340.440769 337.411039 
L 340.541156 336.299466 
L 340.922107 335.743679 
L 354.609621 335.743679 
L 358.49801 335.187892 
L 360.973237 334.632106 
L 362.912322 334.632106 
L 367.408261 334.076319 
L 367.746344 331.853172 
L 368.020522 331.853172 
L 368.66695 330.741599 
L 377.194814 330.185812 
L 377.466238 329.630026 
L 377.546308 329.074239 
L 379.347964 329.074239 
L 381.049274 328.518452 
L 381.244819 327.962666 
L 381.377617 326.851092 
L 382.503748 326.295306 
L 382.586412 325.739519 
L 384.641092 325.183732 
L 387.34192 324.627946 
L 387.533993 324.072159 
L 387.538064 323.516372 
L 388.081311 322.960586 
L 388.177268 322.404799 
L 392.095074 321.849012 
L 392.797423 321.293226 
L 409.290703 321.293226 
L 412.025859 320.737439 
L 412.274771 320.181652 
L 423.453129 320.181652 
L 423.879026 319.070079 
L 428.536462 319.070079 
L 429.942598 318.514292 
L 430.011293 317.402719 
L 430.372366 316.846932 
L 432.763253 316.291146 
L 432.817098 315.735359 
L 433.105686 315.179572 
L 433.157935 313.512212 
L 433.401418 312.956426 
L 433.730839 312.956426 
L 433.742974 312.400639 
L 435.738938 311.844852 
L 436.523633 311.289066 
L 436.71351 310.733279 
L 440.309559 310.177492 
L 442.959695 310.177492 
L 443.879942 309.621706 
L 453.843798 309.621706 
L 457.144753 309.065919 
L 457.157885 308.510132 
L 457.751545 307.954346 
L 465.524331 307.954346 
L 467.705223 307.398559 
L 468.603636 306.842772 
L 468.843368 305.731199 
L 475.130745 305.731199 
L 475.559116 305.175412 
L 479.01171 305.175412 
L 480.664642 304.619626 
L 485.373888 304.619626 
L 488.220847 304.063839 
L 494.133061 304.063839 
L 494.859719 303.508052 
L 497.784831 303.508052 
L 498.581022 302.952266 
L 498.926409 302.396479 
L 499.096528 301.840692 
L 501.504338 301.840692 
L 501.572793 300.729119 
L 502.451808 300.729119 
L 503.028943 299.061759 
L 505.123418 299.061759 
L 505.383546 298.505972 
L 505.585478 298.505972 
L 506.58799 297.950186 
L 508.25162 297.950186 
L 508.310016 297.394399 
L 509.51937 297.394399 
L 509.813106 296.838612 
L 510.949774 296.838612 
L 512.690121 295.727039 
L 513.445119 295.727039 
L 516.365122 294.615466 
L 516.369513 294.059679 
L 516.92701 293.503892 
L 518.349432 292.948106 
L 518.570602 292.392319 
L 519.988793 291.836532 
L 522.307073 291.836532 
L 522.648988 291.280746 
L 522.847606 290.724959 
L 525.906635 290.724959 
L 525.986904 290.169172 
L 526.792395 290.169172 
L 526.854224 289.613386 
L 527.296246 289.057599 
L 528.834262 289.057599 
L 528.951254 288.501812 
L 529.214734 288.501812 
L 529.280196 287.946026 
L 529.38641 287.946026 
L 529.390003 287.390239 
L 531.552773 287.390239 
L 531.981064 286.834452 
L 532.340701 286.834452 
L 532.555645 286.278666 
L 533.10456 286.278666 
L 533.515528 285.722879 
L 533.602184 285.167092 
L 533.719655 285.167092 
L 535.785551 284.611306 
L 537.33151 284.611306 
L 537.448542 284.055519 
L 543.54696 284.055519 
L 543.576218 283.499732 
L 543.91937 283.499732 
L 544.602161 282.388159 
L 546.786526 282.388159 
L 546.97752 280.720799 
L 547.033242 279.609226 
L 547.393238 279.053439 
L 548.841724 279.053439 
L 549.524875 278.497652 
L 550.18703 278.497652 
L 550.400536 277.941866 
L 551.426958 277.386079 
L 552.376703 277.386079 
L 554.286051 276.830292 
L 554.312954 276.274506 
L 554.896436 276.274506 
L 554.993151 275.718719 
L 556.690469 275.718719 
L 556.737609 275.162932 
L 564.968981 275.162932 
L 565.096151 274.607146 
L 565.341031 274.607146 
L 565.449601 273.495572 
L 566.509512 273.495572 
L 566.59501 272.939786 
L 566.735073 272.939786 
L 567.469195 272.383999 
L 567.653724 271.828212 
L 567.990888 271.828212 
L 568.276203 271.272426 
L 568.369205 270.716639 
L 572.505268 270.716639 
L 573.549253 270.160852 
L 573.755455 269.049279 
L 574.009556 268.493492 
L 574.433736 268.493492 
L 574.692267 267.937706 
L 580.627991 267.937706 
L 581.01984 266.270346 
L 581.830879 266.270346 
L 581.949946 265.714559 
L 585.119181 265.714559 
L 585.195938 264.602986 
L 589.00234 264.602986 
L 589.041776 264.047199 
L 590.875405 264.047199 
L 590.887739 263.491412 
L 591.780644 263.491412 
L 591.804793 262.935626 
L 594.522905 262.935626 
L 594.658098 262.379839 
L 594.830333 262.379839 
L 595.07186 261.824052 
L 595.56214 261.824052 
L 595.574873 261.268266 
L 595.886531 261.268266 
L 596.48107 260.712479 
L 601.283199 260.712479 
L 601.632218 260.156692 
L 603.057075 260.156692 
L 603.059709 259.600906 
L 613.953631 259.600906 
L 615.802628 259.045119 
L 615.856234 258.489332 
L 616.792288 257.933546 
L 618.215627 257.933546 
L 618.316733 256.821972 
L 618.574186 256.821972 
L 618.681359 256.266186 
L 622.461497 256.266186 
L 623.144128 255.710399 
L 629.682773 255.710399 
L 629.70289 255.154612 
L 631.838478 255.154612 
L 632.751142 254.598826 
L 642.802771 254.598826 
L 642.928225 253.487252 
L 646.881356 253.487252 
L 647.667647 252.931466 
L 648.509661 252.931466 
L 649.538996 252.375679 
L 656.342918 252.375679 
L 656.994455 251.819892 
L 657.559017 251.819892 
L 657.83583 251.264106 
L 660.00331 250.708319 
L 661.064339 250.708319 
L 661.410324 250.152532 
L 661.522925 250.152532 
L 664.568023 249.596746 
L 670.174646 249.596746 
L 670.613395 249.040959 
L 692.253433 249.040959 
L 693.044115 248.485172 
L 698.048415 248.485172 
L 698.229271 247.929386 
L 698.554342 247.929386 
L 698.652334 247.373599 
L 726.599228 247.373599 
L 727.495805 246.817812 
L 734.168565 246.817812 
L 735.618089 246.262026 
L 735.715243 245.706239 
L 739.187036 245.706239 
L 739.33109 245.150452 
L 750.576586 245.150452 
L 750.599617 244.594666 
L 760.092672 244.594666 
L 760.194855 244.038879 
L 760.811427 243.483092 
L 763.140963 243.483092 
L 763.146312 242.927306 
L 763.619707 242.371519 
L 767.117365 242.371519 
L 768.272913 241.815732 
L 775.731166 241.815732 
L 775.783694 240.704159 
L 812.012614 240.704159 
L 812.012614 240.704159 
" clip-path="url(#p5c23f6826b)" style="fill: none; stroke: #58a6ff; stroke-width: 2; stroke-linecap: square"/>
   </g>
   <g id="line2d_35">
    <path d="M 85.239886 455.237812 
L 88.554133 455.237812 
L 88.566826 454.126239 
L 91.30294 454.126239 
L 91.927854 453.570452 
L 260.594928 453.570452 
L 262.442567 453.014666 
L 309.202778 453.014666 
L 310.500465 452.458879 
L 354.609621 452.458879 
L 358.49801 451.903092 
L 368.66695 451.903092 
L 377.546308 450.235732 
L 379.347964 449.124159 
L 382.586412 449.124159 
L 384.641092 448.568372 
L 387.538064 448.012586 
L 388.177268 448.012586 
L 392.095074 447.456799 
L 392.797423 446.901012 
L 395.942749 446.345226 
L 402.091141 445.789439 
L 402.126706 446.345226 
L 412.274771 446.345226 
L 412.987259 445.789439 
L 427.469726 445.789439 
L 428.536462 445.233652 
L 433.401418 445.233652 
L 433.742974 444.677866 
L 439.785431 444.677866 
L 440.309559 444.122079 
L 462.445185 444.122079 
L 464.518625 443.566292 
L 465.390056 443.566292 
L 465.524331 443.010506 
L 471.432154 443.010506 
L 471.437782 442.454719 
L 485.351895 442.454719 
L 485.373888 441.898932 
L 489.427965 441.898932 
L 490.461532 441.343146 
L 491.984221 440.787359 
L 491.986895 440.231572 
L 492.226547 440.231572 
L 494.133061 438.564212 
L 495.417375 438.564212 
L 495.491298 436.896852 
L 495.987565 436.896852 
L 497.784831 437.452639 
L 499.077368 437.452639 
L 499.096528 435.229492 
L 503.909155 435.229492 
L 504.624397 434.673706 
L 505.383546 434.673706 
L 505.585478 434.117919 
L 522.847606 434.117919 
L 523.079274 433.562132 
L 523.948909 433.562132 
L 525.299044 433.006346 
L 531.255643 433.006346 
L 531.552773 432.450559 
L 533.602184 432.450559 
L 533.719655 431.894772 
L 540.506931 431.894772 
L 540.643562 431.338986 
L 541.131167 431.338986 
L 541.625717 430.783199 
L 542.119789 430.783199 
L 542.149087 430.227412 
L 544.249988 430.227412 
L 544.375442 429.671626 
L 554.128705 429.671626 
L 554.196361 429.115839 
L 554.312954 429.115839 
L 554.413062 428.560052 
L 554.993151 428.560052 
L 556.20921 428.004266 
L 560.963481 428.004266 
L 560.967672 427.448479 
L 561.876104 427.448479 
L 561.910671 426.892692 
L 564.489319 426.892692 
L 565.030969 426.336906 
L 568.467397 426.336906 
L 569.464082 425.781119 
L 571.402409 425.781119 
L 571.422965 424.669546 
L 571.580152 424.669546 
L 571.777972 424.113759 
L 574.896115 424.113759 
L 575.377254 423.557972 
L 576.125147 423.557972 
L 576.40647 423.002186 
L 578.231956 423.002186 
L 578.486855 422.446399 
L 578.490128 421.890612 
L 579.003918 421.890612 
L 579.21966 421.334826 
L 598.88401 421.334826 
L 598.925762 420.223252 
L 601.632218 420.223252 
L 602.411166 419.667466 
L 603.059709 419.667466 
L 606.102093 419.111679 
L 606.666775 419.111679 
L 607.876687 418.555892 
L 608.686608 418.555892 
L 609.343694 418.000106 
L 610.008404 418.555892 
L 612.148223 418.555892 
L 612.730108 418.000106 
L 612.863305 416.888532 
L 613.946327 416.332746 
L 613.953631 415.221172 
L 618.681359 415.221172 
L 619.715285 414.665386 
L 619.820062 412.998026 
L 620.853469 412.442239 
L 621.424977 411.886452 
L 626.312924 411.886452 
L 626.520324 410.219092 
L 626.769635 410.219092 
L 626.954483 409.663306 
L 628.149068 409.107519 
L 630.029437 409.107519 
L 630.416815 408.551732 
L 630.504948 407.995946 
L 630.702609 407.995946 
L 631.838478 406.884372 
L 633.055456 406.884372 
L 633.455048 406.328586 
L 634.858869 406.328586 
L 634.863499 405.217012 
L 635.825178 405.217012 
L 637.101869 404.661226 
L 640.484251 403.549652 
L 640.78621 402.993866 
L 647.667647 402.993866 
L 648.509661 401.882292 
L 661.366018 401.882292 
L 661.522925 400.770719 
L 667.780646 400.770719 
L 668.736777 400.214932 
L 671.63826 400.214932 
L 671.801114 399.659146 
L 689.651354 399.659146 
L 689.93627 399.103359 
L 691.704358 399.103359 
L 692.253433 398.547572 
L 695.55323 398.547572 
L 696.173833 397.991786 
L 696.177905 397.435999 
L 696.887678 396.880212 
L 699.052524 396.880212 
L 699.217854 396.324426 
L 699.229708 395.212852 
L 699.241483 395.768639 
L 700.696236 395.212852 
L 705.946375 395.212852 
L 706.981977 394.101279 
L 716.454875 394.101279 
L 717.187281 393.545492 
L 719.485324 393.545492 
L 719.669294 392.989706 
L 719.6946 392.433919 
L 727.495805 392.433919 
L 732.340405 391.322346 
L 733.490285 391.322346 
L 734.168565 390.766559 
L 744.20359 390.766559 
L 745.437053 390.210772 
L 746.965449 390.210772 
L 748.445708 389.654986 
L 760.811427 389.654986 
L 761.150787 389.099199 
L 761.152623 388.543412 
L 768.075691 388.543412 
L 768.272913 387.987626 
L 799.167153 387.987626 
L 803.114855 387.431839 
L 812.012614 387.431839 
L 812.012614 387.431839 
" clip-path="url(#p5c23f6826b)" style="fill: none; stroke: #d29922; stroke-width: 2; stroke-linecap: square"/>
   </g>
   <g id="line2d_36">
    <path d="M 85.239886 454.682026 
L 85.523365 454.682026 
L 85.648898 432.450559 
L 86.304946 426.892692 
L 86.679831 425.781119 
L 86.870027 426.336906 
L 87.21713 425.781119 
L 87.804165 425.225332 
L 88.21146 424.113759 
L 88.554133 423.557972 
L 88.566826 423.002186 
L 88.895848 421.334826 
L 89.32837 421.334826 
L 89.916881 420.779039 
L 89.921232 420.223252 
L 90.395067 419.667466 
L 90.408199 419.111679 
L 90.596399 419.111679 
L 91.30294 418.555892 
L 91.807749 418.000106 
L 91.927854 411.886452 
L 92.010918 412.442239 
L 92.214007 408.551732 
L 92.557119 402.993866 
L 95.410024 402.993866 
L 95.437087 402.438079 
L 95.673785 399.659146 
L 95.743197 402.438079 
L 96.064795 397.991786 
L 96.224057 397.435999 
L 97.410619 396.880212 
L 97.446423 396.324426 
L 97.704196 395.768639 
L 97.944686 395.768639 
L 98.555749 395.212852 
L 98.882176 394.657066 
L 99.015334 394.101279 
L 99.119952 392.989706 
L 99.424905 392.433919 
L 99.432449 391.878132 
L 99.739158 392.433919 
L 99.826452 391.878132 
L 99.83719 392.433919 
L 99.850042 390.766559 
L 102.693369 390.766559 
L 107.070959 402.993866 
L 107.722297 390.210772 
L 108.061776 389.654986 
L 109.89804 389.654986 
L 110.20902 389.099199 
L 110.874528 388.543412 
L 112.297508 402.993866 
L 112.389832 387.987626 
L 113.481755 387.431839 
L 115.81684 386.876052 
L 115.983366 387.431839 
L 116.288678 386.320266 
L 116.323524 385.764479 
L 117.073094 385.764479 
L 117.30085 385.208692 
L 117.731017 384.652906 
L 117.766702 383.541332 
L 118.1635 382.429759 
L 118.186491 382.985546 
L 118.42251 382.985546 
L 118.551915 381.873972 
L 118.95027 379.650826 
L 119.002639 378.539252 
L 119.513714 376.871892 
L 119.763504 377.983466 
L 121.529676 374.648746 
L 121.99473 375.760319 
L 123.908588 373.537172 
L 125.424771 377.427679 
L 125.956881 373.537172 
L 128.142204 371.869812 
L 131.364566 371.869812 
L 131.790143 371.314026 
L 132.128824 369.646666 
L 133.080525 371.314026 
L 136.962527 371.869812 
L 137.925523 369.646666 
L 138.392292 367.979306 
L 139.190199 369.646666 
L 140.994331 367.979306 
L 147.121967 367.979306 
L 153.565214 367.423519 
L 153.994902 366.867732 
L 158.06271 366.311946 
L 160.752522 366.311946 
L 161.25322 365.756159 
L 161.362149 366.311946 
L 164.223676 364.644586 
L 166.9077 364.644586 
L 166.970008 364.088799 
L 168.431148 363.533012 
L 171.955948 363.533012 
L 173.510808 359.642506 
L 174.668072 359.086719 
L 176.157192 358.530932 
L 176.186091 357.975146 
L 181.767247 357.975146 
L 181.875058 354.084639 
L 182.08162 354.084639 
L 182.264073 352.973066 
L 184.318912 352.973066 
L 184.940114 352.417279 
L 187.960026 352.417279 
L 192.154884 351.861492 
L 192.364679 363.533012 
L 192.374977 352.417279 
L 192.643647 351.861492 
L 194.138674 351.861492 
L 196.40738 351.305706 
L 198.693648 351.305706 
L 200.509754 350.749919 
L 205.515891 349.638346 
L 208.400689 349.638346 
L 210.719129 349.082559 
L 211.079883 346.303626 
L 211.324045 346.303626 
L 211.756088 345.747839 
L 214.009666 345.192052 
L 214.530601 342.968906 
L 217.645231 341.857332 
L 217.682751 342.413119 
L 217.976209 341.857332 
L 221.970532 340.745759 
L 224.967293 340.189972 
L 226.399095 340.189972 
L 227.668162 339.634186 
L 228.767948 338.522612 
L 229.934432 337.966826 
L 230.356377 337.411039 
L 233.108417 337.966826 
L 235.652099 336.855252 
L 235.947313 337.411039 
L 236.623358 337.411039 
L 236.75903 336.855252 
L 238.571065 336.299466 
L 239.715117 336.855252 
L 241.812706 335.743679 
L 243.181721 335.743679 
L 246.102243 335.187892 
L 246.586535 335.743679 
L 247.097212 334.076319 
L 248.869251 334.076319 
L 249.219867 333.520532 
L 250.469056 331.853172 
L 251.176874 330.185812 
L 252.296418 330.741599 
L 252.789612 329.630026 
L 252.838947 329.074239 
L 256.803813 329.074239 
L 258.811912 328.518452 
L 259.326779 327.962666 
L 262.442567 327.962666 
L 264.634955 327.406879 
L 268.358693 327.406879 
L 269.283051 326.851092 
L 279.522682 326.851092 
L 280.110754 326.295306 
L 280.169669 325.739519 
L 280.567864 325.183732 
L 285.011953 325.183732 
L 285.288926 324.627946 
L 286.419606 324.072159 
L 286.615431 323.516372 
L 288.488735 322.960586 
L 289.851244 322.404799 
L 295.31018 322.404799 
L 296.589585 321.293226 
L 302.201675 321.293226 
L 303.451503 320.737439 
L 308.681764 320.737439 
L 309.202778 320.181652 
L 310.500465 319.625866 
L 310.886765 319.070079 
L 311.017926 318.514292 
L 314.905317 317.958506 
L 315.387175 318.514292 
L 320.504675 317.402719 
L 324.550848 316.291146 
L 325.098846 315.735359 
L 332.774158 315.735359 
L 333.768049 315.179572 
L 340.922107 315.179572 
L 347.661087 314.623786 
L 348.508728 314.067999 
L 351.336926 313.512212 
L 354.173107 312.956426 
L 354.609621 312.400639 
L 360.973237 312.400639 
L 362.912322 311.844852 
L 377.546308 311.844852 
L 379.347964 311.289066 
L 391.436032 311.289066 
L 392.095074 310.733279 
L 392.797423 311.289066 
L 395.942749 310.733279 
L 406.528046 310.733279 
L 407.946556 310.177492 
L 430.339316 310.177492 
L 430.372366 309.621706 
L 444.202138 309.621706 
L 447.24061 309.065919 
L 447.248394 308.510132 
L 462.438439 308.510132 
L 462.445185 307.398559 
L 471.437782 307.398559 
L 475.559116 306.842772 
L 480.664642 306.842772 
L 485.373888 305.731199 
L 494.859719 305.731199 
L 495.417375 305.175412 
L 495.491298 304.619626 
L 499.077368 304.619626 
L 499.096528 304.063839 
L 499.468898 304.063839 
L 500.062478 303.508052 
L 505.383546 303.508052 
L 505.585478 302.952266 
L 512.690121 302.952266 
L 512.981144 302.396479 
L 530.331844 302.396479 
L 531.254326 300.729119 
L 531.255643 300.173332 
L 533.713787 300.173332 
L 533.719655 299.617546 
L 540.970308 299.617546 
L 541.131167 299.061759 
L 544.602161 299.061759 
L 544.726856 298.505972 
L 557.621413 298.505972 
L 557.869367 297.950186 
L 560.862376 297.950186 
L 560.967672 297.394399 
L 561.910671 296.838612 
L 585.586629 296.838612 
L 586.819772 295.727039 
L 588.665615 295.727039 
L 589.041776 295.171252 
L 590.887739 295.171252 
L 591.161319 294.615466 
L 595.522743 294.615466 
L 595.574873 294.059679 
L 619.713249 294.059679 
L 619.820062 292.948106 
L 649.992075 292.948106 
L 650.775692 292.392319 
L 702.291012 292.392319 
L 704.711356 291.836532 
L 726.482117 291.836532 
L 726.599228 291.280746 
L 736.345945 291.280746 
L 736.819699 290.724959 
L 812.012614 290.724959 
L 812.012614 290.724959 
" clip-path="url(#p5c23f6826b)" style="fill: none; stroke: #f85149; stroke-width: 2; stroke-linecap: square"/>
   </g>
   <g id="line2d_37">
    <path d="M 85.239886 454.682026 
L 85.262439 454.126239 
L 85.440245 -1 
M 85.600056 -1 
L 85.648898 101.201706 
L 88.554133 101.201706 
L 88.566826 97.866986 
L 91.927854 97.866986 
L 92.090509 98.422772 
L 92.557119 98.422772 
L 92.935276 98.978559 
L 95.278504 99.534346 
L 95.324765 98.978559 
L 95.437087 99.534346 
L 102.693369 99.534346 
L 107.070959 98.422772 
L 107.722297 99.534346 
L 108.061776 98.978559 
L 108.197888 98.978559 
L 109.396544 99.534346 
L 109.89804 96.755412 
L 110.874528 96.755412 
L 112.297508 98.422772 
L 112.389832 95.643839 
L 113.481755 96.199626 
L 116.323524 96.199626 
L 117.073094 95.088052 
L 118.186491 95.088052 
L 118.484938 91.197546 
L 125.424771 91.197546 
L 125.930937 87.862826 
L 125.956881 86.751252 
L 128.142204 86.751252 
L 131.364566 82.860746 
L 133.054939 82.860746 
L 133.080525 83.416532 
L 136.962527 83.416532 
L 137.925523 80.081812 
L 140.973176 80.081812 
L 140.994331 80.637599 
L 158.06271 80.637599 
L 161.25322 81.193386 
L 161.362149 80.637599 
L 164.671127 81.193386 
L 176.186091 81.193386 
L 181.767247 81.749172 
L 181.875058 74.523946 
L 182.140176 75.079732 
L 185.288694 75.079732 
L 186.628731 75.635519 
L 192.154884 75.635519 
L 192.364679 80.637599 
L 192.374977 71.745012 
L 192.643647 71.745012 
L 193.977775 73.968159 
L 200.509754 73.968159 
L 205.515891 70.077652 
L 211.079883 70.077652 
L 211.324045 68.410292 
L 225.782044 68.410292 
L 226.399095 68.966079 
L 229.909685 68.966079 
L 229.934432 70.077652 
L 236.623358 70.077652 
L 236.75903 73.412372 
L 247.097212 73.412372 
L 247.344128 68.410292 
L 248.865619 67.298719 
L 248.869251 67.854506 
L 249.219867 67.854506 
L 250.469056 65.075572 
L 252.296418 65.075572 
L 252.789612 65.631359 
L 252.838947 65.075572 
L 253.96831 65.631359 
L 253.97346 66.187146 
L 253.999844 65.631359 
L 254.652219 63.408212 
L 260.594928 63.408212 
L 262.442567 63.963999 
L 264.634955 63.963999 
L 268.358693 64.519786 
L 271.883892 64.519786 
L 274.607472 65.631359 
L 280.169669 65.075572 
L 280.567864 65.075572 
L 284.035066 66.187146 
L 285.011953 65.631359 
L 289.851244 65.631359 
L 295.307226 67.854506 
L 295.31018 67.298719 
L 303.451503 67.298719 
L 305.976425 67.854506 
L 350.973537 67.854506 
L 351.336926 68.410292 
L 354.15287 68.410292 
L 354.173107 66.742932 
L 367.746344 66.742932 
L 368.020522 67.298719 
L 395.942749 67.298719 
L 402.091141 67.854506 
L 402.126706 67.298719 
L 406.528046 68.966079 
L 407.946556 68.966079 
L 409.290703 68.410292 
L 412.987259 68.410292 
L 416.514214 68.966079 
L 416.520002 69.521866 
L 426.520261 67.854506 
L 427.469726 68.410292 
L 439.785431 68.410292 
L 440.309559 67.854506 
L 441.269681 68.410292 
L 441.599621 70.633439 
L 447.243524 70.633439 
L 447.248394 71.189226 
L 464.518625 71.189226 
L 465.524331 71.745012 
L 468.843368 71.745012 
L 469.16716 72.300799 
L 485.351895 72.300799 
L 485.373888 72.856586 
L 488.220847 72.856586 
L 489.421938 73.412372 
L 489.427965 73.968159 
L 490.410241 73.412372 
L 490.461532 73.968159 
L 491.986895 73.968159 
L 492.226547 74.523946 
L 495.417375 74.523946 
L 495.491298 73.412372 
L 495.987565 74.523946 
L 497.784831 72.856586 
L 502.130929 72.856586 
L 502.451808 71.189226 
L 503.909155 71.189226 
L 504.624397 72.300799 
L 508.310016 72.300799 
L 509.51937 72.856586 
L 509.813106 72.856586 
L 510.949774 70.077652 
L 512.981144 70.077652 
L 513.445119 70.633439 
L 522.847606 70.633439 
L 523.079274 71.189226 
L 523.948909 71.189226 
L 525.299044 71.745012 
L 540.506931 71.745012 
L 540.643562 72.300799 
L 541.131167 72.300799 
L 542.149087 73.412372 
L 543.576218 73.412372 
L 543.91937 72.856586 
L 544.249988 72.856586 
L 544.375442 73.412372 
L 548.191983 73.412372 
L 548.841724 73.968159 
L 552.163715 73.968159 
L 552.376703 74.523946 
L 554.196361 74.523946 
L 554.312954 75.079732 
L 559.968033 75.079732 
L 560.089615 75.635519 
L 563.387736 75.635519 
L 564.489319 77.858666 
L 565.710647 77.858666 
L 565.711924 78.414452 
L 570.671001 78.414452 
L 571.580152 78.970239 
L 575.377254 78.970239 
L 576.125147 79.526026 
L 579.003918 79.526026 
L 579.21966 80.081812 
L 583.901285 80.081812 
L 585.108044 80.637599 
L 585.195938 81.193386 
L 585.586629 81.193386 
L 586.819772 60.629279 
L 590.644096 60.629279 
L 590.671638 61.185066 
L 590.887739 61.185066 
L 591.161319 60.629279 
L 594.311274 60.629279 
L 594.522905 61.185066 
L 595.07186 61.185066 
L 595.488057 61.740852 
L 595.574873 61.185066 
L 597.271193 61.185066 
L 597.284445 61.740852 
L 597.652145 61.740852 
L 597.813163 62.296639 
L 598.925762 62.852426 
L 606.666775 62.852426 
L 607.876687 63.408212 
L 608.686608 63.408212 
L 609.343694 63.963999 
L 610.008404 63.408212 
L 612.745276 63.408212 
L 612.863305 64.519786 
L 616.792288 64.519786 
L 618.316733 66.187146 
L 634.863499 66.187146 
L 635.825178 66.742932 
L 661.366018 66.742932 
L 661.410324 67.298719 
L 699.052524 67.298719 
L 699.217854 67.854506 
L 699.229708 68.410292 
L 699.241483 67.854506 
L 704.711356 67.854506 
L 705.946375 68.410292 
L 727.495805 68.410292 
L 732.340405 68.966079 
L 733.480745 69.521866 
L 733.490285 67.854506 
L 768.075691 67.854506 
L 768.272913 68.410292 
L 799.167153 68.410292 
L 803.114855 68.966079 
L 805.529611 68.966079 
L 805.791655 69.521866 
L 807.470013 70.077652 
L 812.012614 70.077652 
L 812.012614 70.077652 
" clip-path="url(#p5c23f6826b)" style="fill: none; stroke: #9467bd; stroke-width: 2; stroke-linecap: square"/>
   </g>
   <g id="patch_3">
    <path d="M 48.90125 455.237812 
L 48.90125 38.397812 
" style="fill: none; stroke: #30363d; stroke-width: 0.8; stroke-linejoin: miter; stroke-linecap: square"/>
   </g>
   <g id="patch_4">
    <path d="M 848.35125 455.237812 
L 848.35125 38.397812 
" style="fill: none; stroke: #30363d; stroke-width: 0.8; stroke-linejoin: miter; stroke-linecap: square"/>
   </g>
   <g id="patch_5">
    <path d="M 48.90125 455.237812 
L 848.35125 455.237812 
" style="fill: none; stroke: #30363d; stroke-width: 0.8; stroke-linejoin: miter; stroke-linecap: square"/>
   </g>
   <g id="patch_6">
    <path d="M 48.90125 38.397812 
L 848.35125 38.397812 
" style="fill: none; stroke: #30363d; stroke-width: 0.8; stroke-linejoin: miter; stroke-linecap: square"/>
   </g>
   <g id="text_19">
    <!-- 490 -->
    <g style="fill: #3fb950" transform="translate(817.012614 185.385783) scale(0.09 -0.09)">
     <defs>
      <path id="DejaVuSans-Bold-34" d="M 2356 3675 
L 1038 1722 
L 2356 1722 
L 2356 3675 
z
M 2156 4666 
L 3494 4666 
L 3494 1722 
L 4159 1722 
L 4159 850 
L 3494 850 
L 3494 0 
L 2356 0 
L 2356 850 
L 288 850 
L 288 1881 
L 2156 4666 
z
" transform="scale(0.015625)"/>
      <path id="DejaVuSans-Bold-39" d="M 641 103 
L 641 966 
Q 928 831 1190 764 
Q 1453 697 1709 697 
Q 2247 697 2547 995 
Q 2847 1294 2900 1881 
Q 2688 1725 2447 1647 
Q 2206 1569 1925 1569 
Q 1209 1569 770 1986 
Q 331 2403 331 3084 
Q 331 3838 820 4291 
Q 1309 4744 2131 4744 
Q 3044 4744 3544 4128 
Q 4044 3513 4044 2388 
Q 4044 1231 3459 570 
Q 2875 -91 1856 -91 
Q 1528 -91 1228 -42 
Q 928 6 641 103 
z
M 2125 2350 
Q 2441 2350 2600 2554 
Q 2759 2759 2759 3169 
Q 2759 3575 2600 3781 
Q 2441 3988 2125 3988 
Q 1809 3988 1650 3781 
Q 1491 3575 1491 3169 
Q 1491 2759 1650 2554 
Q 1809 2350 2125 2350 
z
" transform="scale(0.015625)"/>
      <path id="DejaVuSans-Bold-30" d="M 2944 2338 
Q 2944 3213 2780 3570 
Q 2616 3928 2228 3928 
Q 1841 3928 1675 3570 
Q 1509 3213 1509 2338 
Q 1509 1453 1675 1090 
Q 1841 728 2228 728 
Q 2613 728 2778 1090 
Q 2944 1453 2944 2338 
z
M 4147 2328 
Q 4147 1169 3647 539 
Q 3147 -91 2228 -91 
Q 1306 -91 806 539 
Q 306 1169 306 2328 
Q 306 3491 806 4120 
Q 1306 4750 2228 4750 
Q 3147 4750 3647 4120 
Q 4147 3491 4147 2328 
z
" transform="scale(0.015625)"/>
     </defs>
     <use xlink:href="#DejaVuSans-Bold-34"/>
     <use xlink:href="#DejaVuSans-Bold-39" transform="translate(69.580078 0)"/>
     <use xlink:href="#DejaVuSans-Bold-30" transform="translate(139.160156 0)"/>
    </g>
   </g>
   <g id="text_20">
    <!-- 386 -->
    <g style="fill: #58a6ff" transform="translate(817.012614 243.187597) scale(0.09 -0.09)">
     <defs>
      <path id="DejaVuSans-Bold-33" d="M 2981 2516 
Q 3453 2394 3698 2092 
Q 3944 1791 3944 1325 
Q 3944 631 3412 270 
Q 2881 -91 1863 -91 
Q 1503 -91 1142 -33 
Q 781 25 428 141 
L 428 1069 
Q 766 900 1098 814 
Q 1431 728 1753 728 
Q 2231 728 2486 893 
Q 2741 1059 2741 1369 
Q 2741 1688 2480 1852 
Q 2219 2016 1709 2016 
L 1228 2016 
L 1228 2791 
L 1734 2791 
Q 2188 2791 2409 2933 
Q 2631 3075 2631 3366 
Q 2631 3634 2415 3781 
Q 2200 3928 1806 3928 
Q 1516 3928 1219 3862 
Q 922 3797 628 3669 
L 628 4550 
Q 984 4650 1334 4700 
Q 1684 4750 2022 4750 
Q 2931 4750 3382 4451 
Q 3834 4153 3834 3553 
Q 3834 3144 3618 2883 
Q 3403 2622 2981 2516 
z
" transform="scale(0.015625)"/>
      <path id="DejaVuSans-Bold-38" d="M 2228 2088 
Q 1891 2088 1709 1903 
Q 1528 1719 1528 1375 
Q 1528 1031 1709 848 
Q 1891 666 2228 666 
Q 2563 666 2741 848 
Q 2919 1031 2919 1375 
Q 2919 1722 2741 1905 
Q 2563 2088 2228 2088 
z
M 1350 2484 
Q 925 2613 709 2878 
Q 494 3144 494 3541 
Q 494 4131 934 4440 
Q 1375 4750 2228 4750 
Q 3075 4750 3515 4442 
Q 3956 4134 3956 3541 
Q 3956 3144 3739 2878 
Q 3522 2613 3097 2484 
Q 3572 2353 3814 2058 
Q 4056 1763 4056 1313 
Q 4056 619 3595 264 
Q 3134 -91 2228 -91 
Q 1319 -91 855 264 
Q 391 619 391 1313 
Q 391 1763 633 2058 
Q 875 2353 1350 2484 
z
M 1631 3419 
Q 1631 3141 1786 2991 
Q 1941 2841 2228 2841 
Q 2509 2841 2662 2991 
Q 2816 3141 2816 3419 
Q 2816 3697 2662 3845 
Q 2509 3994 2228 3994 
Q 1941 3994 1786 3844 
Q 1631 3694 1631 3419 
z
" transform="scale(0.015625)"/>
      <path id="DejaVuSans-Bold-36" d="M 2316 2303 
Q 2000 2303 1842 2098 
Q 1684 1894 1684 1484 
Q 1684 1075 1842 870 
Q 2000 666 2316 666 
Q 2634 666 2792 870 
Q 2950 1075 2950 1484 
Q 2950 1894 2792 2098 
Q 2634 2303 2316 2303 
z
M 3803 4544 
L 3803 3681 
Q 3506 3822 3243 3889 
Q 2981 3956 2731 3956 
Q 2194 3956 1894 3657 
Q 1594 3359 1544 2772 
Q 1750 2925 1990 3001 
Q 2231 3078 2516 3078 
Q 3231 3078 3670 2659 
Q 4109 2241 4109 1563 
Q 4109 813 3618 361 
Q 3128 -91 2303 -91 
Q 1394 -91 895 523 
Q 397 1138 397 2266 
Q 397 3422 980 4083 
Q 1563 4744 2578 4744 
Q 2900 4744 3203 4694 
Q 3506 4644 3803 4544 
z
" transform="scale(0.015625)"/>
     </defs>
     <use xlink:href="#DejaVuSans-Bold-33"/>
     <use xlink:href="#DejaVuSans-Bold-38" transform="translate(69.580078 0)"/>
     <use xlink:href="#DejaVuSans-Bold-36" transform="translate(139.160156 0)"/>
    </g>
   </g>
   <g id="text_21">
    <!-- 122 -->
    <g style="fill: #d29922" transform="translate(817.012614 389.915277) scale(0.09 -0.09)">
     <defs>
      <path id="DejaVuSans-Bold-31" d="M 750 831 
L 1813 831 
L 1813 3847 
L 722 3622 
L 722 4441 
L 1806 4666 
L 2950 4666 
L 2950 831 
L 4013 831 
L 4013 0 
L 750 0 
L 750 831 
z
" transform="scale(0.015625)"/>
      <path id="DejaVuSans-Bold-32" d="M 1844 884 
L 3897 884 
L 3897 0 
L 506 0 
L 506 884 
L 2209 2388 
Q 2438 2594 2547 2791 
Q 2656 2988 2656 3200 
Q 2656 3528 2436 3728 
Q 2216 3928 1850 3928 
Q 1569 3928 1234 3808 
Q 900 3688 519 3450 
L 519 4475 
Q 925 4609 1322 4679 
Q 1719 4750 2100 4750 
Q 2938 4750 3402 4381 
Q 3866 4013 3866 3353 
Q 3866 2972 3669 2642 
Q 3472 2313 2841 1759 
L 1844 884 
z
" transform="scale(0.015625)"/>
     </defs>
     <use xlink:href="#DejaVuSans-Bold-31"/>
     <use xlink:href="#DejaVuSans-Bold-32" transform="translate(69.580078 0)"/>
     <use xlink:href="#DejaVuSans-Bold-32" transform="translate(139.160156 0)"/>
    </g>
   </g>
   <g id="text_22">
    <!-- 296 -->
    <g style="fill: #f85149" transform="translate(817.012614 293.208397) scale(0.09 -0.09)">
     <use xlink:href="#DejaVuSans-Bold-32"/>
     <use xlink:href="#DejaVuSans-Bold-39" transform="translate(69.580078 0)"/>
     <use xlink:href="#DejaVuSans-Bold-36" transform="translate(139.160156 0)"/>
    </g>
   </g>
   <g id="text_23">
    <!-- 693 -->
    <g style="fill: #9467bd" transform="translate(817.012614 72.56109) scale(0.09 -0.09)">
     <use xlink:href="#DejaVuSans-Bold-36"/>
     <use xlink:href="#DejaVuSans-Bold-39" transform="translate(69.580078 0)"/>
     <use xlink:href="#DejaVuSans-Bold-33" transform="translate(139.160156 0)"/>
    </g>
   </g>
   <g id="text_24">
    <!-- Erdős Problems Progress -->
    <g style="fill: #c9d1d9" transform="translate(349.588281 18.397812) scale(0.14 -0.14)">
     <defs>
      <path id="DejaVuSans-Bold-45" d="M 588 4666 
L 3834 4666 
L 3834 3756 
L 1791 3756 
L 1791 2888 
L 3713 2888 
L 3713 1978 
L 1791 1978 
L 1791 909 
L 3903 909 
L 3903 0 
L 588 0 
L 588 4666 
z
" transform="scale(0.015625)"/>
      <path id="DejaVuSans-Bold-72" d="M 3138 2547 
Q 2991 2616 2845 2648 
Q 2700 2681 2553 2681 
Q 2122 2681 1889 2404 
Q 1656 2128 1656 1613 
L 1656 0 
L 538 0 
L 538 3500 
L 1656 3500 
L 1656 2925 
Q 1872 3269 2151 3426 
Q 2431 3584 2822 3584 
Q 2878 3584 2943 3579 
Q 3009 3575 3134 3559 
L 3138 2547 
z
" transform="scale(0.015625)"/>
      <path id="DejaVuSans-Bold-64" d="M 2919 2988 
L 2919 4863 
L 4044 4863 
L 4044 0 
L 2919 0 
L 2919 506 
Q 2688 197 2409 53 
Q 2131 -91 1766 -91 
Q 1119 -91 703 423 
Q 288 938 288 1747 
Q 288 2556 703 3070 
Q 1119 3584 1766 3584 
Q 2128 3584 2408 3439 
Q 2688 3294 2919 2988 
z
M 2181 722 
Q 2541 722 2730 984 
Q 2919 1247 2919 1747 
Q 2919 2247 2730 2509 
Q 2541 2772 2181 2772 
Q 1825 2772 1636 2509 
Q 1447 2247 1447 1747 
Q 1447 1247 1636 984 
Q 1825 722 2181 722 
z
" transform="scale(0.015625)"/>
      <path id="DejaVuSans-Bold-151" d="M 1881 5119 
L 2560 5119 
L 1785 3944 
L 1275 3944 
L 1881 5119 
z
M 3016 5119 
L 3738 5119 
L 2888 3944 
L 2344 3944 
L 3016 5119 
z
M 2203 2784 
Q 1831 2784 1636 2517 
Q 1441 2250 1441 1747 
Q 1441 1244 1636 976 
Q 1831 709 2203 709 
Q 2569 709 2762 976 
Q 2956 1244 2956 1747 
Q 2956 2250 2762 2517 
Q 2569 2784 2203 2784 
z
M 2203 3584 
Q 3106 3584 3614 3096 
Q 4122 2609 4122 1747 
Q 4122 884 3614 396 
Q 3106 -91 2203 -91 
Q 1297 -91 786 396 
Q 275 884 275 1747 
Q 275 2609 786 3096 
Q 1297 3584 2203 3584 
z
" transform="scale(0.015625)"/>
      <path id="DejaVuSans-Bold-73" d="M 3272 3391 
L 3272 2541 
Q 2913 2691 2578 2766 
Q 2244 2841 1947 2841 
Q 1628 2841 1473 2761 
Q 1319 2681 1319 2516 
Q 1319 2381 1436 2309 
Q 1553 2238 1856 2203 
L 2053 2175 
Q 2913 2066 3209 1816 
Q 3506 1566 3506 1031 
Q 3506 472 3093 190 
Q 2681 -91 1863 -91 
Q 1516 -91 1145 -36 
Q 775 19 384 128 
L 384 978 
Q 719 816 1070 734 
Q 1422 653 1784 653 
Q 2113 653 2278 743 
Q 2444 834 2444 1013 
Q 2444 1163 2330 1236 
Q 2216 1309 1875 1350 
L 1678 1375 
Q 931 1469 631 1722 
Q 331 1975 331 2491 
Q 331 3047 712 3315 
Q 1094 3584 1881 3584 
Q 2191 3584 2531 3537 
Q 2872 3491 3272 3391 
z
" transform="scale(0.015625)"/>
      <path id="DejaVuSans-Bold-20" transform="scale(0.015625)"/>
      <path id="DejaVuSans-Bold-50" d="M 588 4666 
L 2584 4666 
Q 3475 4666 3951 4270 
Q 4428 3875 4428 3144 
Q 4428 2409 3951 2014 
Q 3475 1619 2584 1619 
L 1791 1619 
L 1791 0 
L 588 0 
L 588 4666 
z
M 1791 3794 
L 1791 2491 
L 2456 2491 
Q 2806 2491 2997 2661 
Q 3188 2831 3188 3144 
Q 3188 3456 2997 3625 
Q 2806 3794 2456 3794 
L 1791 3794 
z
" transform="scale(0.015625)"/>
      <path id="DejaVuSans-Bold-6f" d="M 2203 2784 
Q 1831 2784 1636 2517 
Q 1441 2250 1441 1747 
Q 1441 1244 1636 976 
Q 1831 709 2203 709 
Q 2569 709 2762 976 
Q 2956 1244 2956 1747 
Q 2956 2250 2762 2517 
Q 2569 2784 2203 2784 
z
M 2203 3584 
Q 3106 3584 3614 3096 
Q 4122 2609 4122 1747 
Q 4122 884 3614 396 
Q 3106 -91 2203 -91 
Q 1297 -91 786 396 
Q 275 884 275 1747 
Q 275 2609 786 3096 
Q 1297 3584 2203 3584 
z
" transform="scale(0.015625)"/>
      <path id="DejaVuSans-Bold-62" d="M 2400 722 
Q 2759 722 2948 984 
Q 3138 1247 3138 1747 
Q 3138 2247 2948 2509 
Q 2759 2772 2400 2772 
Q 2041 2772 1848 2508 
Q 1656 2244 1656 1747 
Q 1656 1250 1848 986 
Q 2041 722 2400 722 
z
M 1656 2988 
Q 1888 3294 2169 3439 
Q 2450 3584 2816 3584 
Q 3463 3584 3878 3070 
Q 4294 2556 4294 1747 
Q 4294 938 3878 423 
Q 3463 -91 2816 -91 
Q 2450 -91 2169 54 
Q 1888 200 1656 506 
L 1656 0 
L 538 0 
L 538 4863 
L 1656 4863 
L 1656 2988 
z
" transform="scale(0.015625)"/>
      <path id="DejaVuSans-Bold-6c" d="M 538 4863 
L 1656 4863 
L 1656 0 
L 538 0 
L 538 4863 
z
" transform="scale(0.015625)"/>
      <path id="DejaVuSans-Bold-65" d="M 4031 1759 
L 4031 1441 
L 1416 1441 
Q 1456 1047 1700 850 
Q 1944 653 2381 653 
Q 2734 653 3104 758 
Q 3475 863 3866 1075 
L 3866 213 
Q 3469 63 3072 -14 
Q 2675 -91 2278 -91 
Q 1328 -91 801 392 
Q 275 875 275 1747 
Q 275 2603 792 3093 
Q 1309 3584 2216 3584 
Q 3041 3584 3536 3087 
Q 4031 2591 4031 1759 
z
M 2881 2131 
Q 2881 2450 2695 2645 
Q 2509 2841 2209 2841 
Q 1884 2841 1681 2658 
Q 1478 2475 1428 2131 
L 2881 2131 
z
" transform="scale(0.015625)"/>
      <path id="DejaVuSans-Bold-6d" d="M 3781 2919 
Q 3994 3244 4286 3414 
Q 4578 3584 4928 3584 
Q 5531 3584 5847 3212 
Q 6163 2841 6163 2131 
L 6163 0 
L 5038 0 
L 5038 1825 
Q 5041 1866 5042 1909 
Q 5044 1953 5044 2034 
Q 5044 2406 4934 2573 
Q 4825 2741 4581 2741 
Q 4263 2741 4089 2478 
Q 3916 2216 3909 1719 
L 3909 0 
L 2784 0 
L 2784 1825 
Q 2784 2406 2684 2573 
Q 2584 2741 2328 2741 
Q 2006 2741 1831 2477 
Q 1656 2213 1656 1722 
L 1656 0 
L 531 0 
L 531 3500 
L 1656 3500 
L 1656 2988 
Q 1863 3284 2130 3434 
Q 2397 3584 2719 3584 
Q 3081 3584 3359 3409 
Q 3638 3234 3781 2919 
z
" transform="scale(0.015625)"/>
      <path id="DejaVuSans-Bold-67" d="M 2919 594 
Q 2688 288 2409 144 
Q 2131 0 1766 0 
Q 1125 0 706 504 
Q 288 1009 288 1791 
Q 288 2575 706 3076 
Q 1125 3578 1766 3578 
Q 2131 3578 2409 3434 
Q 2688 3291 2919 2981 
L 2919 3500 
L 4044 3500 
L 4044 353 
Q 4044 -491 3511 -936 
Q 2978 -1381 1966 -1381 
Q 1638 -1381 1331 -1331 
Q 1025 -1281 716 -1178 
L 716 -306 
Q 1009 -475 1290 -558 
Q 1572 -641 1856 -641 
Q 2406 -641 2662 -400 
Q 2919 -159 2919 353 
L 2919 594 
z
M 2181 2772 
Q 1834 2772 1640 2515 
Q 1447 2259 1447 1791 
Q 1447 1309 1634 1061 
Q 1822 813 2181 813 
Q 2531 813 2725 1069 
Q 2919 1325 2919 1791 
Q 2919 2259 2725 2515 
Q 2531 2772 2181 2772 
z
" transform="scale(0.015625)"/>
     </defs>
     <use xlink:href="#DejaVuSans-Bold-45"/>
     <use xlink:href="#DejaVuSans-Bold-72" transform="translate(68.310547 0)"/>
     <use xlink:href="#DejaVuSans-Bold-64" transform="translate(117.626953 0)"/>
     <use xlink:href="#DejaVuSans-Bold-151" transform="translate(189.208984 0)"/>
     <use xlink:href="#DejaVuSans-Bold-73" transform="translate(257.910156 0)"/>
     <use xlink:href="#DejaVuSans-Bold-20" transform="translate(317.431641 0)"/>
     <use xlink:href="#DejaVuSans-Bold-50" transform="translate(352.246094 0)"/>
     <use xlink:href="#DejaVuSans-Bold-72" transform="translate(425.537109 0)"/>
     <use xlink:href="#DejaVuSans-Bold-6f" transform="translate(474.853516 0)"/>
     <use xlink:href="#DejaVuSans-Bold-62" transform="translate(543.554688 0)"/>
     <use xlink:href="#DejaVuSans-Bold-6c" transform="translate(615.136719 0)"/>
     <use xlink:href="#DejaVuSans-Bold-65" transform="translate(649.414062 0)"/>
     <use xlink:href="#DejaVuSans-Bold-6d" transform="translate(717.236328 0)"/>
     <use xlink:href="#DejaVuSans-Bold-73" transform="translate(821.435547 0)"/>
     <use xlink:href="#DejaVuSans-Bold-20" transform="translate(880.957031 0)"/>
     <use xlink:href="#DejaVuSans-Bold-50" transform="translate(915.771484 0)"/>
     <use xlink:href="#DejaVuSans-Bold-72" transform="translate(989.0625 0)"/>
     <use xlink:href="#DejaVuSans-Bold-6f" transform="translate(1038.378906 0)"/>
     <use xlink:href="#DejaVuSans-Bold-67" transform="translate(1107.080078 0)"/>
     <use xlink:href="#DejaVuSans-Bold-72" transform="translate(1178.662109 0)"/>
     <use xlink:href="#DejaVuSans-Bold-65" transform="translate(1227.978516 0)"/>
     <use xlink:href="#DejaVuSans-Bold-73" transform="translate(1295.800781 0)"/>
     <use xlink:href="#DejaVuSans-Bold-73" transform="translate(1355.322266 0)"/>
    </g>
   </g>
   <g id="legend_1">
    <g id="patch_7">
     <path d="M 55.90125 119.788437 
L 213.771563 119.788437 
Q 215.771563 119.788437 215.771563 117.788437 
L 215.771563 45.397812 
Q 215.771563 43.397812 213.771563 43.397812 
L 55.90125 43.397812 
Q 53.90125 43.397812 53.90125 45.397812 
L 53.90125 117.788437 
Q 53.90125 119.788437 55.90125 119.788437 
z
" style="fill: #161b22; opacity: 0.8; stroke: #30363d; stroke-linejoin: miter"/>
    </g>
    <g id="line2d_38">
     <path d="M 57.90125 51.49625 
L 67.90125 51.49625 
L 77.90125 51.49625 
" style="fill: none; stroke: #3fb950; stroke-width: 2; stroke-linecap: square"/>
    </g>
    <g id="text_25">
     <!-- Solved -->
     <g style="fill: #c9d1d9" transform="translate(85.90125 54.99625) scale(0.1 -0.1)">
      <defs>
       <path id="DejaVuSans-6c" d="M 603 4863 
L 1178 4863 
L 1178 0 
L 603 0 
L 603 4863 
z
" transform="scale(0.015625)"/>
       <path id="DejaVuSans-64" d="M 2906 2969 
L 2906 4863 
L 3481 4863 
L 3481 0 
L 2906 0 
L 2906 525 
Q 2725 213 2448 61 
Q 2172 -91 1784 -91 
Q 1150 -91 751 415 
Q 353 922 353 1747 
Q 353 2572 751 3078 
Q 1150 3584 1784 3584 
Q 2172 3584 2448 3432 
Q 2725 3281 2906 2969 
z
M 947 1747 
Q 947 1113 1208 752 
Q 1469 391 1925 391 
Q 2381 391 2643 752 
Q 2906 1113 2906 1747 
Q 2906 2381 2643 2742 
Q 2381 3103 1925 3103 
Q 1469 3103 1208 2742 
Q 947 2381 947 1747 
z
" transform="scale(0.015625)"/>
      </defs>
      <use xlink:href="#DejaVuSans-53"/>
      <use xlink:href="#DejaVuSans-6f" transform="translate(63.476562 0)"/>
      <use xlink:href="#DejaVuSans-6c" transform="translate(124.658203 0)"/>
      <use xlink:href="#DejaVuSans-76" transform="translate(152.441406 0)"/>
      <use xlink:href="#DejaVuSans-65" transform="translate(211.621094 0)"/>
      <use xlink:href="#DejaVuSans-64" transform="translate(273.144531 0)"/>
     </g>
    </g>
    <g id="line2d_39">
     <path d="M 57.90125 66.174375 
L 67.90125 66.174375 
L 77.90125 66.174375 
" style="fill: none; stroke: #58a6ff; stroke-width: 2; stroke-linecap: square"/>
    </g>
    <g id="text_26">
     <!-- Lean Formalized Problem -->
     <g style="fill: #c9d1d9" transform="translate(85.90125 69.674375) scale(0.1 -0.1)">
      <defs>
       <path id="DejaVuSans-4c" d="M 628 4666 
L 1259 4666 
L 1259 531 
L 3531 531 
L 3531 0 
L 628 0 
L 628 4666 
z
" transform="scale(0.015625)"/>
       <path id="DejaVuSans-20" transform="scale(0.015625)"/>
       <path id="DejaVuSans-6d" d="M 3328 2828 
Q 3544 3216 3844 3400 
Q 4144 3584 4550 3584 
Q 5097 3584 5394 3201 
Q 5691 2819 5691 2113 
L 5691 0 
L 5113 0 
L 5113 2094 
Q 5113 2597 4934 2840 
Q 4756 3084 4391 3084 
Q 3944 3084 3684 2787 
Q 3425 2491 3425 1978 
L 3425 0 
L 2847 0 
L 2847 2094 
Q 2847 2600 2669 2842 
Q 2491 3084 2119 3084 
Q 1678 3084 1418 2786 
Q 1159 2488 1159 1978 
L 1159 0 
L 581 0 
L 581 3500 
L 1159 3500 
L 1159 2956 
Q 1356 3278 1631 3431 
Q 1906 3584 2284 3584 
Q 2666 3584 2933 3390 
Q 3200 3197 3328 2828 
z
" transform="scale(0.015625)"/>
       <path id="DejaVuSans-69" d="M 603 3500 
L 1178 3500 
L 1178 0 
L 603 0 
L 603 3500 
z
M 603 4863 
L 1178 4863 
L 1178 4134 
L 603 4134 
L 603 4863 
z
" transform="scale(0.015625)"/>
       <path id="DejaVuSans-7a" d="M 353 3500 
L 3084 3500 
L 3084 2975 
L 922 459 
L 3084 459 
L 3084 0 
L 275 0 
L 275 525 
L 2438 3041 
L 353 3041 
L 353 3500 
z
" transform="scale(0.015625)"/>
       <path id="DejaVuSans-50" d="M 1259 4147 
L 1259 2394 
L 2053 2394 
Q 2494 2394 2734 2622 
Q 2975 2850 2975 3272 
Q 2975 3691 2734 3919 
Q 2494 4147 2053 4147 
L 1259 4147 
z
M 628 4666 
L 2053 4666 
Q 2838 4666 3239 4311 
Q 3641 3956 3641 3272 
Q 3641 2581 3239 2228 
Q 2838 1875 2053 1875 
L 1259 1875 
L 1259 0 
L 628 0 
L 628 4666 
z
" transform="scale(0.015625)"/>
      </defs>
      <use xlink:href="#DejaVuSans-4c"/>
      <use xlink:href="#DejaVuSans-65" transform="translate(53.962891 0)"/>
      <use xlink:href="#DejaVuSans-61" transform="translate(115.486328 0)"/>
      <use xlink:href="#DejaVuSans-6e" transform="translate(176.765625 0)"/>
      <use xlink:href="#DejaVuSans-20" transform="translate(240.144531 0)"/>
      <use xlink:href="#DejaVuSans-46" transform="translate(271.931641 0)"/>
      <use xlink:href="#DejaVuSans-6f" transform="translate(325.826172 0)"/>
      <use xlink:href="#DejaVuSans-72" transform="translate(387.007812 0)"/>
      <use xlink:href="#DejaVuSans-6d" transform="translate(426.371094 0)"/>
      <use xlink:href="#DejaVuSans-61" transform="translate(523.783203 0)"/>
      <use xlink:href="#DejaVuSans-6c" transform="translate(585.0625 0)"/>
      <use xlink:href="#DejaVuSans-69" transform="translate(612.845703 0)"/>
      <use xlink:href="#DejaVuSans-7a" transform="translate(640.628906 0)"/>
      <use xlink:href="#DejaVuSans-65" transform="translate(693.119141 0)"/>
      <use xlink:href="#DejaVuSans-64" transform="translate(754.642578 0)"/>
      <use xlink:href="#DejaVuSans-20" transform="translate(818.119141 0)"/>
      <use xlink:href="#DejaVuSans-50" transform="translate(849.90625 0)"/>
      <use xlink:href="#DejaVuSans-72" transform="translate(908.458984 0)"/>
      <use xlink:href="#DejaVuSans-6f" transform="translate(947.322266 0)"/>
      <use xlink:href="#DejaVuSans-62" transform="translate(1008.503906 0)"/>
      <use xlink:href="#DejaVuSans-6c" transform="translate(1071.980469 0)"/>
      <use xlink:href="#DejaVuSans-65" transform="translate(1099.763672 0)"/>
      <use xlink:href="#DejaVuSans-6d" transform="translate(1161.287109 0)"/>
     </g>
    </g>
    <g id="line2d_40">
     <path d="M 57.90125 80.8525 
L 67.90125 80.8525 
L 77.90125 80.8525 
" style="fill: none; stroke: #d29922; stroke-width: 2; stroke-linecap: square"/>
    </g>
    <g id="text_27">
     <!-- Lean Formalized Solution -->
     <g style="fill: #c9d1d9" transform="translate(85.90125 84.3525) scale(0.1 -0.1)">
      <use xlink:href="#DejaVuSans-4c"/>
      <use xlink:href="#DejaVuSans-65" transform="translate(53.962891 0)"/>
      <use xlink:href="#DejaVuSans-61" transform="translate(115.486328 0)"/>
      <use xlink:href="#DejaVuSans-6e" transform="translate(176.765625 0)"/>
      <use xlink:href="#DejaVuSans-20" transform="translate(240.144531 0)"/>
      <use xlink:href="#DejaVuSans-46" transform="translate(271.931641 0)"/>
      <use xlink:href="#DejaVuSans-6f" transform="translate(325.826172 0)"/>
      <use xlink:href="#DejaVuSans-72" transform="translate(387.007812 0)"/>
      <use xlink:href="#DejaVuSans-6d" transform="translate(426.371094 0)"/>
      <use xlink:href="#DejaVuSans-61" transform="translate(523.783203 0)"/>
      <use xlink:href="#DejaVuSans-6c" transform="translate(585.0625 0)"/>
      <use xlink:href="#DejaVuSans-69" transform="translate(612.845703 0)"/>
      <use xlink:href="#DejaVuSans-7a" transform="translate(640.628906 0)"/>
      <use xlink:href="#DejaVuSans-65" transform="translate(693.119141 0)"/>
      <use xlink:href="#DejaVuSans-64" transform="translate(754.642578 0)"/>
      <use xlink:href="#DejaVuSans-20" transform="translate(818.119141 0)"/>
      <use xlink:href="#DejaVuSans-53" transform="translate(849.90625 0)"/>
      <use xlink:href="#DejaVuSans-6f" transform="translate(913.382812 0)"/>
      <use xlink:href="#DejaVuSans-6c" transform="translate(974.564453 0)"/>
      <use xlink:href="#DejaVuSans-75" transform="translate(1002.347656 0)"/>
      <use xlink:href="#DejaVuSans-74" transform="translate(1065.726562 0)"/>
      <use xlink:href="#DejaVuSans-69" transform="translate(1104.935547 0)"/>
      <use xlink:href="#DejaVuSans-6f" transform="translate(1132.71875 0)"/>
      <use xlink:href="#DejaVuSans-6e" transform="translate(1193.900391 0)"/>
     </g>
    </g>
    <g id="line2d_41">
     <path d="M 57.90125 95.530625 
L 67.90125 95.530625 
L 77.90125 95.530625 
" style="fill: none; stroke: #f85149; stroke-width: 2; stroke-linecap: square"/>
    </g>
    <g id="text_28">
     <!-- OEIS Linked -->
     <g style="fill: #c9d1d9" transform="translate(85.90125 99.030625) scale(0.1 -0.1)">
      <defs>
       <path id="DejaVuSans-45" d="M 628 4666 
L 3578 4666 
L 3578 4134 
L 1259 4134 
L 1259 2753 
L 3481 2753 
L 3481 2222 
L 1259 2222 
L 1259 531 
L 3634 531 
L 3634 0 
L 628 0 
L 628 4666 
z
" transform="scale(0.015625)"/>
       <path id="DejaVuSans-49" d="M 628 4666 
L 1259 4666 
L 1259 0 
L 628 0 
L 628 4666 
z
" transform="scale(0.015625)"/>
       <path id="DejaVuSans-6b" d="M 581 4863 
L 1159 4863 
L 1159 1991 
L 2875 3500 
L 3609 3500 
L 1753 1863 
L 3688 0 
L 2938 0 
L 1159 1709 
L 1159 0 
L 581 0 
L 581 4863 
z
" transform="scale(0.015625)"/>
      </defs>
      <use xlink:href="#DejaVuSans-4f"/>
      <use xlink:href="#DejaVuSans-45" transform="translate(78.710938 0)"/>
      <use xlink:href="#DejaVuSans-49" transform="translate(141.894531 0)"/>
      <use xlink:href="#DejaVuSans-53" transform="translate(171.386719 0)"/>
      <use xlink:href="#DejaVuSans-20" transform="translate(234.863281 0)"/>
      <use xlink:href="#DejaVuSans-4c" transform="translate(266.650391 0)"/>
      <use xlink:href="#DejaVuSans-69" transform="translate(322.363281 0)"/>
      <use xlink:href="#DejaVuSans-6e" transform="translate(350.146484 0)"/>
      <use xlink:href="#DejaVuSans-6b" transform="translate(413.525391 0)"/>
      <use xlink:href="#DejaVuSans-65" transform="translate(467.810547 0)"/>
      <use xlink:href="#DejaVuSans-64" transform="translate(529.333984 0)"/>
     </g>
    </g>
    <g id="line2d_42">
     <path d="M 57.90125 110.20875 
L 67.90125 110.20875 
L 77.90125 110.20875 
" style="fill: none; stroke: #9467bd; stroke-width: 2; stroke-linecap: square"/>
    </g>
    <g id="text_29">
     <!-- Open Problems -->
     <g style="fill: #c9d1d9" transform="translate(85.90125 113.70875) scale(0.1 -0.1)">
      <defs>
       <path id="DejaVuSans-73" d="M 2834 3397 
L 2834 2853 
Q 2591 2978 2328 3040 
Q 2066 3103 1784 3103 
Q 1356 3103 1142 2972 
Q 928 2841 928 2578 
Q 928 2378 1081 2264 
Q 1234 2150 1697 2047 
L 1894 2003 
Q 2506 1872 2764 1633 
Q 3022 1394 3022 966 
Q 3022 478 2636 193 
Q 2250 -91 1575 -91 
Q 1294 -91 989 -36 
Q 684 19 347 128 
L 347 722 
Q 666 556 975 473 
Q 1284 391 1588 391 
Q 1994 391 2212 530 
Q 2431 669 2431 922 
Q 2431 1156 2273 1281 
Q 2116 1406 1581 1522 
L 1381 1569 
Q 847 1681 609 1914 
Q 372 2147 372 2553 
Q 372 3047 722 3315 
Q 1072 3584 1716 3584 
Q 2034 3584 2315 3537 
Q 2597 3491 2834 3397 
z
" transform="scale(0.015625)"/>
      </defs>
      <use xlink:href="#DejaVuSans-4f"/>
      <use xlink:href="#DejaVuSans-70" transform="translate(78.710938 0)"/>
      <use xlink:href="#DejaVuSans-65" transform="translate(142.1875 0)"/>
      <use xlink:href="#DejaVuSans-6e" transform="translate(203.710938 0)"/>
      <use xlink:href="#DejaVuSans-20" transform="translate(267.089844 0)"/>
      <use xlink:href="#DejaVuSans-50" transform="translate(298.876953 0)"/>
      <use xlink:href="#DejaVuSans-72" transform="translate(357.429688 0)"/>
      <use xlink:href="#DejaVuSans-6f" transform="translate(396.292969 0)"/>
      <use xlink:href="#DejaVuSans-62" transform="translate(457.474609 0)"/>
      <use xlink:href="#DejaVuSans-6c" transform="translate(520.951172 0)"/>
      <use xlink:href="#DejaVuSans-65" transform="translate(548.734375 0)"/>
      <use xlink:href="#DejaVuSans-6d" transform="translate(610.257812 0)"/>
      <use xlink:href="#DejaVuSans-73" transform="translate(707.669922 0)"/>
     </g>
    </g>
   </g>
  </g>
 </g>
 <defs>
  <clipPath id="p5c23f6826b">
   <rect x="48.90125" y="38.397812" width="799.45" height="416.84"/>
  </clipPath>
 </defs>
</svg>
