<?xml version="1.0" encoding="utf-8" standalone="no"?>
<!DOCTYPE svg PUBLIC "-//W3C//DTD SVG 1.1//EN"
  "http://www.w3.org/Graphics/SVG/1.1/DTD/svg11.dtd">
<svg xmlns:xlink="http://www.w3.org/1999/xlink" width="855.55125pt" height="494.729687pt" viewBox="0 0 855.55125 494.729687" xmlns="http://www.w3.org/2000/svg" version="1.1">
 <metadata>
  <rdf:RDF xmlns:dc="http://purl.org/dc/elements/1.1/" xmlns:cc="http://creativecommons.org/ns#" xmlns:rdf="http://www.w3.org/1999/02/22-rdf-syntax-ns#">
   <cc:Work>
    <dc:type rdf:resource="http://purl.org/dc/dcmitype/StillImage"/>
    <dc:date>2026-06-01T12:25:11.921118</dc:date>
    <dc:format>image/svg+xml</dc:format>
    <dc:creator>
     <cc:Agent>
      <dc:title>Matplotlib v3.10.7, https://matplotlib.org/</dc:title>
     </cc:Agent>
    </dc:creator>
   </cc:Work>
  </rdf:RDF>
 </metadata>
 <defs>
  <style type="text/css">*{stroke-linejoin: round; stroke-linecap: butt}</style>
 </defs>
 <g id="figure_1">
  <g id="patch_1">
   <path d="M 0 494.729687 
L 855.55125 494.729687 
L 855.55125 0 
L 0 0 
z
" style="fill: #0d1117"/>
  </g>
  <g id="axes_1">
   <g id="patch_2">
    <path d="M 48.90125 455.237812 
L 848.35125 455.237812 
L 848.35125 38.397812 
L 48.90125 38.397812 
z
" style="fill: #0d1117"/>
   </g>
   <g id="matplotlib.axis_1">
    <g id="xtick_1">
     <g id="line2d_1">
      <path d="M 86.015838 455.237812 
L 86.015838 38.397812 
" clip-path="url(#pa6ce9bd764)" style="fill: none; stroke: #30363d; stroke-opacity: 0.25; stroke-width: 0.5; stroke-linecap: square"/>
     </g>
     <g id="line2d_2">
      <defs>
       <path id="m64987b12d1" d="M 0 0 
L 0 3.5 
" style="stroke: #c9d1d9; stroke-width: 0.8"/>
      </defs>
      <g>
       <use xlink:href="#m64987b12d1" x="86.015838" y="455.237812" style="fill: #c9d1d9; stroke: #c9d1d9; stroke-width: 0.8"/>
      </g>
     </g>
     <g id="text_1">
      <!-- Sep -->
      <g style="fill: #c9d1d9" transform="translate(76.590838 469.83625) scale(0.1 -0.1)">
       <defs>
        <path id="DejaVuSans-53" d="M 3425 4513 
L 3425 3897 
Q 3066 4069 2747 4153 
Q 2428 4238 2131 4238 
Q 1616 4238 1336 4038 
Q 1056 3838 1056 3469 
Q 1056 3159 1242 3001 
Q 1428 2844 1947 2747 
L 2328 2669 
Q 3034 2534 3370 2195 
Q 3706 1856 3706 1288 
Q 3706 609 3251 259 
Q 2797 -91 1919 -91 
Q 1588 -91 1214 -16 
Q 841 59 441 206 
L 441 856 
Q 825 641 1194 531 
Q 1563 422 1919 422 
Q 2459 422 2753 634 
Q 3047 847 3047 1241 
Q 3047 1584 2836 1778 
Q 2625 1972 2144 2069 
L 1759 2144 
Q 1053 2284 737 2584 
Q 422 2884 422 3419 
Q 422 4038 858 4394 
Q 1294 4750 2059 4750 
Q 2388 4750 2728 4690 
Q 3069 4631 3425 4513 
z
" transform="scale(0.015625)"/>
        <path id="DejaVuSans-65" d="M 3597 1894 
L 3597 1613 
L 953 1613 
Q 991 1019 1311 708 
Q 1631 397 2203 397 
Q 2534 397 2845 478 
Q 3156 559 3463 722 
L 3463 178 
Q 3153 47 2828 -22 
Q 2503 -91 2169 -91 
Q 1331 -91 842 396 
Q 353 884 353 1716 
Q 353 2575 817 3079 
Q 1281 3584 2069 3584 
Q 2775 3584 3186 3129 
Q 3597 2675 3597 1894 
z
M 3022 2063 
Q 3016 2534 2758 2815 
Q 2500 3097 2075 3097 
Q 1594 3097 1305 2825 
Q 1016 2553 972 2059 
L 3022 2063 
z
" transform="scale(0.015625)"/>
        <path id="DejaVuSans-70" d="M 1159 525 
L 1159 -1331 
L 581 -1331 
L 581 3500 
L 1159 3500 
L 1159 2969 
Q 1341 3281 1617 3432 
Q 1894 3584 2278 3584 
Q 2916 3584 3314 3078 
Q 3713 2572 3713 1747 
Q 3713 922 3314 415 
Q 2916 -91 2278 -91 
Q 1894 -91 1617 61 
Q 1341 213 1159 525 
z
M 3116 1747 
Q 3116 2381 2855 2742 
Q 2594 3103 2138 3103 
Q 1681 3103 1420 2742 
Q 1159 2381 1159 1747 
Q 1159 1113 1420 752 
Q 1681 391 2138 391 
Q 2594 391 2855 752 
Q 3116 1113 3116 1747 
z
" transform="scale(0.015625)"/>
       </defs>
       <use xlink:href="#DejaVuSans-53"/>
       <use xlink:href="#DejaVuSans-65" transform="translate(63.476562 0)"/>
       <use xlink:href="#DejaVuSans-70" transform="translate(125 0)"/>
      </g>
     </g>
    </g>
    <g id="xtick_2">
     <g id="line2d_3">
      <path d="M 165.644762 455.237812 
L 165.644762 38.397812 
" clip-path="url(#pa6ce9bd764)" style="fill: none; stroke: #30363d; stroke-opacity: 0.25; stroke-width: 0.5; stroke-linecap: square"/>
     </g>
     <g id="line2d_4">
      <g>
       <use xlink:href="#m64987b12d1" x="165.644762" y="455.237812" style="fill: #c9d1d9; stroke: #c9d1d9; stroke-width: 0.8"/>
      </g>
     </g>
     <g id="text_2">
      <!-- Oct -->
      <g style="fill: #c9d1d9" transform="translate(156.99945 469.83625) scale(0.1 -0.1)">
       <defs>
        <path id="DejaVuSans-4f" d="M 2522 4238 
Q 1834 4238 1429 3725 
Q 1025 3213 1025 2328 
Q 1025 1447 1429 934 
Q 1834 422 2522 422 
Q 3209 422 3611 934 
Q 4013 1447 4013 2328 
Q 4013 3213 3611 3725 
Q 3209 4238 2522 4238 
z
M 2522 4750 
Q 3503 4750 4090 4092 
Q 4678 3434 4678 2328 
Q 4678 1225 4090 567 
Q 3503 -91 2522 -91 
Q 1538 -91 948 565 
Q 359 1222 359 2328 
Q 359 3434 948 4092 
Q 1538 4750 2522 4750 
z
" transform="scale(0.015625)"/>
        <path id="DejaVuSans-63" d="M 3122 3366 
L 3122 2828 
Q 2878 2963 2633 3030 
Q 2388 3097 2138 3097 
Q 1578 3097 1268 2742 
Q 959 2388 959 1747 
Q 959 1106 1268 751 
Q 1578 397 2138 397 
Q 2388 397 2633 464 
Q 2878 531 3122 666 
L 3122 134 
Q 2881 22 2623 -34 
Q 2366 -91 2075 -91 
Q 1284 -91 818 406 
Q 353 903 353 1747 
Q 353 2603 823 3093 
Q 1294 3584 2113 3584 
Q 2378 3584 2631 3529 
Q 2884 3475 3122 3366 
z
" transform="scale(0.015625)"/>
        <path id="DejaVuSans-74" d="M 1172 4494 
L 1172 3500 
L 2356 3500 
L 2356 3053 
L 1172 3053 
L 1172 1153 
Q 1172 725 1289 603 
Q 1406 481 1766 481 
L 2356 481 
L 2356 0 
L 1766 0 
Q 1100 0 847 248 
Q 594 497 594 1153 
L 594 3053 
L 172 3053 
L 172 3500 
L 594 3500 
L 594 4494 
L 1172 4494 
z
" transform="scale(0.015625)"/>
       </defs>
       <use xlink:href="#DejaVuSans-4f"/>
       <use xlink:href="#DejaVuSans-63" transform="translate(78.710938 0)"/>
       <use xlink:href="#DejaVuSans-74" transform="translate(133.691406 0)"/>
      </g>
     </g>
    </g>
    <g id="xtick_3">
     <g id="line2d_5">
      <path d="M 247.927983 455.237812 
L 247.927983 38.397812 
" clip-path="url(#pa6ce9bd764)" style="fill: none; stroke: #30363d; stroke-opacity: 0.25; stroke-width: 0.5; stroke-linecap: square"/>
     </g>
     <g id="line2d_6">
      <g>
       <use xlink:href="#m64987b12d1" x="247.927983" y="455.237812" style="fill: #c9d1d9; stroke: #c9d1d9; stroke-width: 0.8"/>
      </g>
     </g>
     <g id="text_3">
      <!-- Nov -->
      <g style="fill: #c9d1d9" transform="translate(238.168608 469.83625) scale(0.1 -0.1)">
       <defs>
        <path id="DejaVuSans-4e" d="M 628 4666 
L 1478 4666 
L 3547 763 
L 3547 4666 
L 4159 4666 
L 4159 0 
L 3309 0 
L 1241 3903 
L 1241 0 
L 628 0 
L 628 4666 
z
" transform="scale(0.015625)"/>
        <path id="DejaVuSans-6f" d="M 1959 3097 
Q 1497 3097 1228 2736 
Q 959 2375 959 1747 
Q 959 1119 1226 758 
Q 1494 397 1959 397 
Q 2419 397 2687 759 
Q 2956 1122 2956 1747 
Q 2956 2369 2687 2733 
Q 2419 3097 1959 3097 
z
M 1959 3584 
Q 2709 3584 3137 3096 
Q 3566 2609 3566 1747 
Q 3566 888 3137 398 
Q 2709 -91 1959 -91 
Q 1206 -91 779 398 
Q 353 888 353 1747 
Q 353 2609 779 3096 
Q 1206 3584 1959 3584 
z
" transform="scale(0.015625)"/>
        <path id="DejaVuSans-76" d="M 191 3500 
L 800 3500 
L 1894 563 
L 2988 3500 
L 3597 3500 
L 2284 0 
L 1503 0 
L 191 3500 
z
" transform="scale(0.015625)"/>
       </defs>
       <use xlink:href="#DejaVuSans-4e"/>
       <use xlink:href="#DejaVuSans-6f" transform="translate(74.804688 0)"/>
       <use xlink:href="#DejaVuSans-76" transform="translate(135.986328 0)"/>
      </g>
     </g>
    </g>
    <g id="xtick_4">
     <g id="line2d_7">
      <path d="M 327.556907 455.237812 
L 327.556907 38.397812 
" clip-path="url(#pa6ce9bd764)" style="fill: none; stroke: #30363d; stroke-opacity: 0.25; stroke-width: 0.5; stroke-linecap: square"/>
     </g>
     <g id="line2d_8">
      <g>
       <use xlink:href="#m64987b12d1" x="327.556907" y="455.237812" style="fill: #c9d1d9; stroke: #c9d1d9; stroke-width: 0.8"/>
      </g>
     </g>
     <g id="text_4">
      <!-- Dec -->
      <g style="fill: #c9d1d9" transform="translate(317.881126 469.83625) scale(0.1 -0.1)">
       <defs>
        <path id="DejaVuSans-44" d="M 1259 4147 
L 1259 519 
L 2022 519 
Q 2988 519 3436 956 
Q 3884 1394 3884 2338 
Q 3884 3275 3436 3711 
Q 2988 4147 2022 4147 
L 1259 4147 
z
M 628 4666 
L 1925 4666 
Q 3281 4666 3915 4102 
Q 4550 3538 4550 2338 
Q 4550 1131 3912 565 
Q 3275 0 1925 0 
L 628 0 
L 628 4666 
z
" transform="scale(0.015625)"/>
       </defs>
       <use xlink:href="#DejaVuSans-44"/>
       <use xlink:href="#DejaVuSans-65" transform="translate(77.001953 0)"/>
       <use xlink:href="#DejaVuSans-63" transform="translate(138.525391 0)"/>
      </g>
     </g>
    </g>
    <g id="xtick_5">
     <g id="line2d_9">
      <path d="M 409.840129 455.237812 
L 409.840129 38.397812 
" clip-path="url(#pa6ce9bd764)" style="fill: none; stroke: #30363d; stroke-opacity: 0.25; stroke-width: 0.5; stroke-linecap: square"/>
     </g>
     <g id="line2d_10">
      <g>
       <use xlink:href="#m64987b12d1" x="409.840129" y="455.237812" style="fill: #c9d1d9; stroke: #c9d1d9; stroke-width: 0.8"/>
      </g>
     </g>
     <g id="text_5">
      <!-- 2026 -->
      <g style="fill: #c9d1d9" transform="translate(397.115129 469.83625) scale(0.1 -0.1)">
       <defs>
        <path id="DejaVuSans-32" d="M 1228 531 
L 3431 531 
L 3431 0 
L 469 0 
L 469 531 
Q 828 903 1448 1529 
Q 2069 2156 2228 2338 
Q 2531 2678 2651 2914 
Q 2772 3150 2772 3378 
Q 2772 3750 2511 3984 
Q 2250 4219 1831 4219 
Q 1534 4219 1204 4116 
Q 875 4013 500 3803 
L 500 4441 
Q 881 4594 1212 4672 
Q 1544 4750 1819 4750 
Q 2544 4750 2975 4387 
Q 3406 4025 3406 3419 
Q 3406 3131 3298 2873 
Q 3191 2616 2906 2266 
Q 2828 2175 2409 1742 
Q 1991 1309 1228 531 
z
" transform="scale(0.015625)"/>
        <path id="DejaVuSans-30" d="M 2034 4250 
Q 1547 4250 1301 3770 
Q 1056 3291 1056 2328 
Q 1056 1369 1301 889 
Q 1547 409 2034 409 
Q 2525 409 2770 889 
Q 3016 1369 3016 2328 
Q 3016 3291 2770 3770 
Q 2525 4250 2034 4250 
z
M 2034 4750 
Q 2819 4750 3233 4129 
Q 3647 3509 3647 2328 
Q 3647 1150 3233 529 
Q 2819 -91 2034 -91 
Q 1250 -91 836 529 
Q 422 1150 422 2328 
Q 422 3509 836 4129 
Q 1250 4750 2034 4750 
z
" transform="scale(0.015625)"/>
        <path id="DejaVuSans-36" d="M 2113 2584 
Q 1688 2584 1439 2293 
Q 1191 2003 1191 1497 
Q 1191 994 1439 701 
Q 1688 409 2113 409 
Q 2538 409 2786 701 
Q 3034 994 3034 1497 
Q 3034 2003 2786 2293 
Q 2538 2584 2113 2584 
z
M 3366 4563 
L 3366 3988 
Q 3128 4100 2886 4159 
Q 2644 4219 2406 4219 
Q 1781 4219 1451 3797 
Q 1122 3375 1075 2522 
Q 1259 2794 1537 2939 
Q 1816 3084 2150 3084 
Q 2853 3084 3261 2657 
Q 3669 2231 3669 1497 
Q 3669 778 3244 343 
Q 2819 -91 2113 -91 
Q 1303 -91 875 529 
Q 447 1150 447 2328 
Q 447 3434 972 4092 
Q 1497 4750 2381 4750 
Q 2619 4750 2861 4703 
Q 3103 4656 3366 4563 
z
" transform="scale(0.015625)"/>
       </defs>
       <use xlink:href="#DejaVuSans-32"/>
       <use xlink:href="#DejaVuSans-30" transform="translate(63.623047 0)"/>
       <use xlink:href="#DejaVuSans-32" transform="translate(127.246094 0)"/>
       <use xlink:href="#DejaVuSans-36" transform="translate(190.869141 0)"/>
      </g>
     </g>
    </g>
    <g id="xtick_6">
     <g id="line2d_11">
      <path d="M 492.12335 455.237812 
L 492.12335 38.397812 
" clip-path="url(#pa6ce9bd764)" style="fill: none; stroke: #30363d; stroke-opacity: 0.25; stroke-width: 0.5; stroke-linecap: square"/>
     </g>
     <g id="line2d_12">
      <g>
       <use xlink:href="#m64987b12d1" x="492.12335" y="455.237812" style="fill: #c9d1d9; stroke: #c9d1d9; stroke-width: 0.8"/>
      </g>
     </g>
     <g id="text_6">
      <!-- Feb -->
      <g style="fill: #c9d1d9" transform="translate(483.271787 469.83625) scale(0.1 -0.1)">
       <defs>
        <path id="DejaVuSans-46" d="M 628 4666 
L 3309 4666 
L 3309 4134 
L 1259 4134 
L 1259 2759 
L 3109 2759 
L 3109 2228 
L 1259 2228 
L 1259 0 
L 628 0 
L 628 4666 
z
" transform="scale(0.015625)"/>
        <path id="DejaVuSans-62" d="M 3116 1747 
Q 3116 2381 2855 2742 
Q 2594 3103 2138 3103 
Q 1681 3103 1420 2742 
Q 1159 2381 1159 1747 
Q 1159 1113 1420 752 
Q 1681 391 2138 391 
Q 2594 391 2855 752 
Q 3116 1113 3116 1747 
z
M 1159 2969 
Q 1341 3281 1617 3432 
Q 1894 3584 2278 3584 
Q 2916 3584 3314 3078 
Q 3713 2572 3713 1747 
Q 3713 922 3314 415 
Q 2916 -91 2278 -91 
Q 1894 -91 1617 61 
Q 1341 213 1159 525 
L 1159 0 
L 581 0 
L 581 4863 
L 1159 4863 
L 1159 2969 
z
" transform="scale(0.015625)"/>
       </defs>
       <use xlink:href="#DejaVuSans-46"/>
       <use xlink:href="#DejaVuSans-65" transform="translate(52.019531 0)"/>
       <use xlink:href="#DejaVuSans-62" transform="translate(113.542969 0)"/>
      </g>
     </g>
    </g>
    <g id="xtick_7">
     <g id="line2d_13">
      <path d="M 566.443679 455.237812 
L 566.443679 38.397812 
" clip-path="url(#pa6ce9bd764)" style="fill: none; stroke: #30363d; stroke-opacity: 0.25; stroke-width: 0.5; stroke-linecap: square"/>
     </g>
     <g id="line2d_14">
      <g>
       <use xlink:href="#m64987b12d1" x="566.443679" y="455.237812" style="fill: #c9d1d9; stroke: #c9d1d9; stroke-width: 0.8"/>
      </g>
     </g>
     <g id="text_7">
      <!-- Mar -->
      <g style="fill: #c9d1d9" transform="translate(557.010085 469.83625) scale(0.1 -0.1)">
       <defs>
        <path id="DejaVuSans-4d" d="M 628 4666 
L 1569 4666 
L 2759 1491 
L 3956 4666 
L 4897 4666 
L 4897 0 
L 4281 0 
L 4281 4097 
L 3078 897 
L 2444 897 
L 1241 4097 
L 1241 0 
L 628 0 
L 628 4666 
z
" transform="scale(0.015625)"/>
        <path id="DejaVuSans-61" d="M 2194 1759 
Q 1497 1759 1228 1600 
Q 959 1441 959 1056 
Q 959 750 1161 570 
Q 1363 391 1709 391 
Q 2188 391 2477 730 
Q 2766 1069 2766 1631 
L 2766 1759 
L 2194 1759 
z
M 3341 1997 
L 3341 0 
L 2766 0 
L 2766 531 
Q 2569 213 2275 61 
Q 1981 -91 1556 -91 
Q 1019 -91 701 211 
Q 384 513 384 1019 
Q 384 1609 779 1909 
Q 1175 2209 1959 2209 
L 2766 2209 
L 2766 2266 
Q 2766 2663 2505 2880 
Q 2244 3097 1772 3097 
Q 1472 3097 1187 3025 
Q 903 2953 641 2809 
L 641 3341 
Q 956 3463 1253 3523 
Q 1550 3584 1831 3584 
Q 2591 3584 2966 3190 
Q 3341 2797 3341 1997 
z
" transform="scale(0.015625)"/>
        <path id="DejaVuSans-72" d="M 2631 2963 
Q 2534 3019 2420 3045 
Q 2306 3072 2169 3072 
Q 1681 3072 1420 2755 
Q 1159 2438 1159 1844 
L 1159 0 
L 581 0 
L 581 3500 
L 1159 3500 
L 1159 2956 
Q 1341 3275 1631 3429 
Q 1922 3584 2338 3584 
Q 2397 3584 2469 3576 
Q 2541 3569 2628 3553 
L 2631 2963 
z
" transform="scale(0.015625)"/>
       </defs>
       <use xlink:href="#DejaVuSans-4d"/>
       <use xlink:href="#DejaVuSans-61" transform="translate(86.279297 0)"/>
       <use xlink:href="#DejaVuSans-72" transform="translate(147.558594 0)"/>
      </g>
     </g>
    </g>
    <g id="xtick_8">
     <g id="line2d_15">
      <path d="M 648.7269 455.237812 
L 648.7269 38.397812 
" clip-path="url(#pa6ce9bd764)" style="fill: none; stroke: #30363d; stroke-opacity: 0.25; stroke-width: 0.5; stroke-linecap: square"/>
     </g>
     <g id="line2d_16">
      <g>
       <use xlink:href="#m64987b12d1" x="648.7269" y="455.237812" style="fill: #c9d1d9; stroke: #c9d1d9; stroke-width: 0.8"/>
      </g>
     </g>
     <g id="text_8">
      <!-- Apr -->
      <g style="fill: #c9d1d9" transform="translate(640.0769 469.83625) scale(0.1 -0.1)">
       <defs>
        <path id="DejaVuSans-41" d="M 2188 4044 
L 1331 1722 
L 3047 1722 
L 2188 4044 
z
M 1831 4666 
L 2547 4666 
L 4325 0 
L 3669 0 
L 3244 1197 
L 1141 1197 
L 716 0 
L 50 0 
L 1831 4666 
z
" transform="scale(0.015625)"/>
       </defs>
       <use xlink:href="#DejaVuSans-41"/>
       <use xlink:href="#DejaVuSans-70" transform="translate(68.408203 0)"/>
       <use xlink:href="#DejaVuSans-72" transform="translate(131.884766 0)"/>
      </g>
     </g>
    </g>
    <g id="xtick_9">
     <g id="line2d_17">
      <path d="M 728.355824 455.237812 
L 728.355824 38.397812 
" clip-path="url(#pa6ce9bd764)" style="fill: none; stroke: #30363d; stroke-opacity: 0.25; stroke-width: 0.5; stroke-linecap: square"/>
     </g>
     <g id="line2d_18">
      <g>
       <use xlink:href="#m64987b12d1" x="728.355824" y="455.237812" style="fill: #c9d1d9; stroke: #c9d1d9; stroke-width: 0.8"/>
      </g>
     </g>
     <g id="text_9">
      <!-- May -->
      <g style="fill: #c9d1d9" transform="translate(718.018324 469.83625) scale(0.1 -0.1)">
       <defs>
        <path id="DejaVuSans-79" d="M 2059 -325 
Q 1816 -950 1584 -1140 
Q 1353 -1331 966 -1331 
L 506 -1331 
L 506 -850 
L 844 -850 
Q 1081 -850 1212 -737 
Q 1344 -625 1503 -206 
L 1606 56 
L 191 3500 
L 800 3500 
L 1894 763 
L 2988 3500 
L 3597 3500 
L 2059 -325 
z
" transform="scale(0.015625)"/>
       </defs>
       <use xlink:href="#DejaVuSans-4d"/>
       <use xlink:href="#DejaVuSans-61" transform="translate(86.279297 0)"/>
       <use xlink:href="#DejaVuSans-79" transform="translate(147.558594 0)"/>
      </g>
     </g>
    </g>
    <g id="xtick_10">
     <g id="line2d_19">
      <path d="M 810.639045 455.237812 
L 810.639045 38.397812 
" clip-path="url(#pa6ce9bd764)" style="fill: none; stroke: #30363d; stroke-opacity: 0.25; stroke-width: 0.5; stroke-linecap: square"/>
     </g>
     <g id="line2d_20">
      <g>
       <use xlink:href="#m64987b12d1" x="810.639045" y="455.237812" style="fill: #c9d1d9; stroke: #c9d1d9; stroke-width: 0.8"/>
      </g>
     </g>
     <g id="text_10">
      <!-- Jun -->
      <g style="fill: #c9d1d9" transform="translate(802.826545 469.83625) scale(0.1 -0.1)">
       <defs>
        <path id="DejaVuSans-4a" d="M 628 4666 
L 1259 4666 
L 1259 325 
Q 1259 -519 939 -900 
Q 619 -1281 -91 -1281 
L -331 -1281 
L -331 -750 
L -134 -750 
Q 284 -750 456 -515 
Q 628 -281 628 325 
L 628 4666 
z
" transform="scale(0.015625)"/>
        <path id="DejaVuSans-75" d="M 544 1381 
L 544 3500 
L 1119 3500 
L 1119 1403 
Q 1119 906 1312 657 
Q 1506 409 1894 409 
Q 2359 409 2629 706 
Q 2900 1003 2900 1516 
L 2900 3500 
L 3475 3500 
L 3475 0 
L 2900 0 
L 2900 538 
Q 2691 219 2414 64 
Q 2138 -91 1772 -91 
Q 1169 -91 856 284 
Q 544 659 544 1381 
z
M 1991 3584 
L 1991 3584 
z
" transform="scale(0.015625)"/>
        <path id="DejaVuSans-6e" d="M 3513 2113 
L 3513 0 
L 2938 0 
L 2938 2094 
Q 2938 2591 2744 2837 
Q 2550 3084 2163 3084 
Q 1697 3084 1428 2787 
Q 1159 2491 1159 1978 
L 1159 0 
L 581 0 
L 581 3500 
L 1159 3500 
L 1159 2956 
Q 1366 3272 1645 3428 
Q 1925 3584 2291 3584 
Q 2894 3584 3203 3211 
Q 3513 2838 3513 2113 
z
" transform="scale(0.015625)"/>
       </defs>
       <use xlink:href="#DejaVuSans-4a"/>
       <use xlink:href="#DejaVuSans-75" transform="translate(29.492188 0)"/>
       <use xlink:href="#DejaVuSans-6e" transform="translate(92.871094 0)"/>
      </g>
     </g>
    </g>
    <g id="text_11">
     <!-- Date -->
     <g style="fill: #c9d1d9" transform="translate(434.285313 485.034062) scale(0.12 -0.12)">
      <use xlink:href="#DejaVuSans-44"/>
      <use xlink:href="#DejaVuSans-61" transform="translate(77.001953 0)"/>
      <use xlink:href="#DejaVuSans-74" transform="translate(138.28125 0)"/>
      <use xlink:href="#DejaVuSans-65" transform="translate(177.490234 0)"/>
     </g>
    </g>
   </g>
   <g id="matplotlib.axis_2">
    <g id="ytick_1">
     <g id="line2d_21">
      <path d="M 48.90125 455.237812 
L 848.35125 455.237812 
" clip-path="url(#pa6ce9bd764)" style="fill: none; stroke: #30363d; stroke-opacity: 0.25; stroke-width: 0.5; stroke-linecap: square"/>
     </g>
     <g id="line2d_22">
      <defs>
       <path id="m73b3535c85" d="M 0 0 
L -3.5 0 
" style="stroke: #c9d1d9; stroke-width: 0.8"/>
      </defs>
      <g>
       <use xlink:href="#m73b3535c85" x="48.90125" y="455.237812" style="fill: #c9d1d9; stroke: #c9d1d9; stroke-width: 0.8"/>
      </g>
     </g>
     <g id="text_12">
      <!-- 0 -->
      <g style="fill: #c9d1d9" transform="translate(35.53875 459.037031) scale(0.1 -0.1)">
       <use xlink:href="#DejaVuSans-30"/>
      </g>
     </g>
    </g>
    <g id="ytick_2">
     <g id="line2d_23">
      <path d="M 48.90125 399.659146 
L 848.35125 399.659146 
" clip-path="url(#pa6ce9bd764)" style="fill: none; stroke: #30363d; stroke-opacity: 0.25; stroke-width: 0.5; stroke-linecap: square"/>
     </g>
     <g id="line2d_24">
      <g>
       <use xlink:href="#m73b3535c85" x="48.90125" y="399.659146" style="fill: #c9d1d9; stroke: #c9d1d9; stroke-width: 0.8"/>
      </g>
     </g>
     <g id="text_13">
      <!-- 100 -->
      <g style="fill: #c9d1d9" transform="translate(22.81375 403.458365) scale(0.1 -0.1)">
       <defs>
        <path id="DejaVuSans-31" d="M 794 531 
L 1825 531 
L 1825 4091 
L 703 3866 
L 703 4441 
L 1819 4666 
L 2450 4666 
L 2450 531 
L 3481 531 
L 3481 0 
L 794 0 
L 794 531 
z
" transform="scale(0.015625)"/>
       </defs>
       <use xlink:href="#DejaVuSans-31"/>
       <use xlink:href="#DejaVuSans-30" transform="translate(63.623047 0)"/>
       <use xlink:href="#DejaVuSans-30" transform="translate(127.246094 0)"/>
      </g>
     </g>
    </g>
    <g id="ytick_3">
     <g id="line2d_25">
      <path d="M 48.90125 344.080479 
L 848.35125 344.080479 
" clip-path="url(#pa6ce9bd764)" style="fill: none; stroke: #30363d; stroke-opacity: 0.25; stroke-width: 0.5; stroke-linecap: square"/>
     </g>
     <g id="line2d_26">
      <g>
       <use xlink:href="#m73b3535c85" x="48.90125" y="344.080479" style="fill: #c9d1d9; stroke: #c9d1d9; stroke-width: 0.8"/>
      </g>
     </g>
     <g id="text_14">
      <!-- 200 -->
      <g style="fill: #c9d1d9" transform="translate(22.81375 347.879698) scale(0.1 -0.1)">
       <use xlink:href="#DejaVuSans-32"/>
       <use xlink:href="#DejaVuSans-30" transform="translate(63.623047 0)"/>
       <use xlink:href="#DejaVuSans-30" transform="translate(127.246094 0)"/>
      </g>
     </g>
    </g>
    <g id="ytick_4">
     <g id="line2d_27">
      <path d="M 48.90125 288.501812 
L 848.35125 288.501812 
" clip-path="url(#pa6ce9bd764)" style="fill: none; stroke: #30363d; stroke-opacity: 0.25; stroke-width: 0.5; stroke-linecap: square"/>
     </g>
     <g id="line2d_28">
      <g>
       <use xlink:href="#m73b3535c85" x="48.90125" y="288.501812" style="fill: #c9d1d9; stroke: #c9d1d9; stroke-width: 0.8"/>
      </g>
     </g>
     <g id="text_15">
      <!-- 300 -->
      <g style="fill: #c9d1d9" transform="translate(22.81375 292.301031) scale(0.1 -0.1)">
       <defs>
        <path id="DejaVuSans-33" d="M 2597 2516 
Q 3050 2419 3304 2112 
Q 3559 1806 3559 1356 
Q 3559 666 3084 287 
Q 2609 -91 1734 -91 
Q 1441 -91 1130 -33 
Q 819 25 488 141 
L 488 750 
Q 750 597 1062 519 
Q 1375 441 1716 441 
Q 2309 441 2620 675 
Q 2931 909 2931 1356 
Q 2931 1769 2642 2001 
Q 2353 2234 1838 2234 
L 1294 2234 
L 1294 2753 
L 1863 2753 
Q 2328 2753 2575 2939 
Q 2822 3125 2822 3475 
Q 2822 3834 2567 4026 
Q 2313 4219 1838 4219 
Q 1578 4219 1281 4162 
Q 984 4106 628 3988 
L 628 4550 
Q 988 4650 1302 4700 
Q 1616 4750 1894 4750 
Q 2613 4750 3031 4423 
Q 3450 4097 3450 3541 
Q 3450 3153 3228 2886 
Q 3006 2619 2597 2516 
z
" transform="scale(0.015625)"/>
       </defs>
       <use xlink:href="#DejaVuSans-33"/>
       <use xlink:href="#DejaVuSans-30" transform="translate(63.623047 0)"/>
       <use xlink:href="#DejaVuSans-30" transform="translate(127.246094 0)"/>
      </g>
     </g>
    </g>
    <g id="ytick_5">
     <g id="line2d_29">
      <path d="M 48.90125 232.923146 
L 848.35125 232.923146 
" clip-path="url(#pa6ce9bd764)" style="fill: none; stroke: #30363d; stroke-opacity: 0.25; stroke-width: 0.5; stroke-linecap: square"/>
     </g>
     <g id="line2d_30">
      <g>
       <use xlink:href="#m73b3535c85" x="48.90125" y="232.923146" style="fill: #c9d1d9; stroke: #c9d1d9; stroke-width: 0.8"/>
      </g>
     </g>
     <g id="text_16">
      <!-- 400 -->
      <g style="fill: #c9d1d9" transform="translate(22.81375 236.722365) scale(0.1 -0.1)">
       <defs>
        <path id="DejaVuSans-34" d="M 2419 4116 
L 825 1625 
L 2419 1625 
L 2419 4116 
z
M 2253 4666 
L 3047 4666 
L 3047 1625 
L 3713 1625 
L 3713 1100 
L 3047 1100 
L 3047 0 
L 2419 0 
L 2419 1100 
L 313 1100 
L 313 1709 
L 2253 4666 
z
" transform="scale(0.015625)"/>
       </defs>
       <use xlink:href="#DejaVuSans-34"/>
       <use xlink:href="#DejaVuSans-30" transform="translate(63.623047 0)"/>
       <use xlink:href="#DejaVuSans-30" transform="translate(127.246094 0)"/>
      </g>
     </g>
    </g>
    <g id="ytick_6">
     <g id="line2d_31">
      <path d="M 48.90125 177.344479 
L 848.35125 177.344479 
" clip-path="url(#pa6ce9bd764)" style="fill: none; stroke: #30363d; stroke-opacity: 0.25; stroke-width: 0.5; stroke-linecap: square"/>
     </g>
     <g id="line2d_32">
      <g>
       <use xlink:href="#m73b3535c85" x="48.90125" y="177.344479" style="fill: #c9d1d9; stroke: #c9d1d9; stroke-width: 0.8"/>
      </g>
     </g>
     <g id="text_17">
      <!-- 500 -->
      <g style="fill: #c9d1d9" transform="translate(22.81375 181.143698) scale(0.1 -0.1)">
       <defs>
        <path id="DejaVuSans-35" d="M 691 4666 
L 3169 4666 
L 3169 4134 
L 1269 4134 
L 1269 2991 
Q 1406 3038 1543 3061 
Q 1681 3084 1819 3084 
Q 2600 3084 3056 2656 
Q 3513 2228 3513 1497 
Q 3513 744 3044 326 
Q 2575 -91 1722 -91 
Q 1428 -91 1123 -41 
Q 819 9 494 109 
L 494 744 
Q 775 591 1075 516 
Q 1375 441 1709 441 
Q 2250 441 2565 725 
Q 2881 1009 2881 1497 
Q 2881 1984 2565 2268 
Q 2250 2553 1709 2553 
Q 1456 2553 1204 2497 
Q 953 2441 691 2322 
L 691 4666 
z
" transform="scale(0.015625)"/>
       </defs>
       <use xlink:href="#DejaVuSans-35"/>
       <use xlink:href="#DejaVuSans-30" transform="translate(63.623047 0)"/>
       <use xlink:href="#DejaVuSans-30" transform="translate(127.246094 0)"/>
      </g>
     </g>
    </g>
    <g id="ytick_7">
     <g id="line2d_33">
      <path d="M 48.90125 121.765812 
L 848.35125 121.765812 
" clip-path="url(#pa6ce9bd764)" style="fill: none; stroke: #30363d; stroke-opacity: 0.25; stroke-width: 0.5; stroke-linecap: square"/>
     </g>
     <g id="line2d_34">
      <g>
       <use xlink:href="#m73b3535c85" x="48.90125" y="121.765812" style="fill: #c9d1d9; stroke: #c9d1d9; stroke-width: 0.8"/>
      </g>
     </g>
     <g id="text_18">
      <!-- 600 -->
      <g style="fill: #c9d1d9" transform="translate(22.81375 125.565031) scale(0.1 -0.1)">
       <use xlink:href="#DejaVuSans-36"/>
       <use xlink:href="#DejaVuSans-30" transform="translate(63.623047 0)"/>
       <use xlink:href="#DejaVuSans-30" transform="translate(127.246094 0)"/>
      </g>
     </g>
    </g>
    <g id="ytick_8">
     <g id="line2d_35">
      <path d="M 48.90125 66.187146 
L 848.35125 66.187146 
" clip-path="url(#pa6ce9bd764)" style="fill: none; stroke: #30363d; stroke-opacity: 0.25; stroke-width: 0.5; stroke-linecap: square"/>
     </g>
     <g id="line2d_36">
      <g>
       <use xlink:href="#m73b3535c85" x="48.90125" y="66.187146" style="fill: #c9d1d9; stroke: #c9d1d9; stroke-width: 0.8"/>
      </g>
     </g>
     <g id="text_19">
      <!-- 700 -->
      <g style="fill: #c9d1d9" transform="translate(22.81375 69.986365) scale(0.1 -0.1)">
       <defs>
        <path id="DejaVuSans-37" d="M 525 4666 
L 3525 4666 
L 3525 4397 
L 1831 0 
L 1172 0 
L 2766 4134 
L 525 4134 
L 525 4666 
z
" transform="scale(0.015625)"/>
       </defs>
       <use xlink:href="#DejaVuSans-37"/>
       <use xlink:href="#DejaVuSans-30" transform="translate(63.623047 0)"/>
       <use xlink:href="#DejaVuSans-30" transform="translate(127.246094 0)"/>
      </g>
     </g>
    </g>
    <g id="text_20">
     <!-- Count -->
     <g style="fill: #c9d1d9" transform="translate(16.318125 264.635937) rotate(-90) scale(0.12 -0.12)">
      <defs>
       <path id="DejaVuSans-43" d="M 4122 4306 
L 4122 3641 
Q 3803 3938 3442 4084 
Q 3081 4231 2675 4231 
Q 1875 4231 1450 3742 
Q 1025 3253 1025 2328 
Q 1025 1406 1450 917 
Q 1875 428 2675 428 
Q 3081 428 3442 575 
Q 3803 722 4122 1019 
L 4122 359 
Q 3791 134 3420 21 
Q 3050 -91 2638 -91 
Q 1578 -91 968 557 
Q 359 1206 359 2328 
Q 359 3453 968 4101 
Q 1578 4750 2638 4750 
Q 3056 4750 3426 4639 
Q 3797 4528 4122 4306 
z
" transform="scale(0.015625)"/>
      </defs>
      <use xlink:href="#DejaVuSans-43"/>
      <use xlink:href="#DejaVuSans-6f" transform="translate(69.824219 0)"/>
      <use xlink:href="#DejaVuSans-75" transform="translate(131.005859 0)"/>
      <use xlink:href="#DejaVuSans-6e" transform="translate(194.384766 0)"/>
      <use xlink:href="#DejaVuSans-74" transform="translate(257.763672 0)"/>
     </g>
    </g>
   </g>
   <g id="line2d_37">
    <path d="M 85.239886 454.682026 
L 85.29073 454.682026 
L 85.413399 454.126239 
L 85.482521 454.126239 
L 85.652501 257.933546 
L 87.790715 257.933546 
L 87.800485 261.268266 
L 90.387319 261.268266 
L 90.55481 260.712479 
L 90.871636 260.712479 
L 91.162687 260.156692 
L 92.966165 259.600906 
L 93.001771 260.156692 
L 93.067391 259.600906 
L 98.673058 259.600906 
L 102.042296 260.712479 
L 102.543602 259.600906 
L 102.909643 259.600906 
L 103.832196 259.045119 
L 104.218175 256.821972 
L 104.969734 256.821972 
L 106.064939 260.712479 
L 106.135997 256.821972 
L 106.976401 256.266186 
L 109.163586 256.266186 
L 109.740496 255.710399 
L 110.597428 255.710399 
L 110.878679 254.598826 
L 116.168412 254.598826 
L 116.557985 253.487252 
L 116.577954 252.375679 
L 118.2599 252.375679 
L 120.740009 251.264106 
L 122.041014 251.264106 
L 122.060706 250.708319 
L 125.048511 250.708319 
L 125.789687 247.929386 
L 128.13533 247.929386 
L 128.151612 247.373599 
L 141.288388 247.373599 
L 143.743982 246.817812 
L 143.827819 247.373599 
L 146.374593 246.817812 
L 155.237151 246.817812 
L 159.53272 246.262026 
L 159.615697 245.706239 
L 159.819747 245.150452 
L 162.243022 245.150452 
L 163.274388 244.594666 
L 167.527624 244.594666 
L 167.689093 247.373599 
L 167.697019 245.150452 
L 167.903803 245.150452 
L 168.930623 242.927306 
L 173.957997 242.927306 
L 177.810999 242.371519 
L 182.093357 242.371519 
L 182.281278 241.815732 
L 193.408959 241.815732 
L 193.883876 241.259946 
L 196.585822 241.259946 
L 196.604869 240.148372 
L 201.753038 240.148372 
L 201.857459 236.257866 
L 211.175364 236.257866 
L 211.17816 235.702079 
L 211.448013 235.702079 
L 212.622417 235.146292 
L 213.815899 235.146292 
L 214.195488 234.590506 
L 214.233459 235.146292 
L 215.10268 234.590506 
L 215.106643 234.034719 
L 215.12695 234.590506 
L 215.629054 234.034719 
L 220.202894 234.034719 
L 221.62494 233.478932 
L 223.312324 233.478932 
L 226.17832 232.923146 
L 228.89151 232.923146 
L 230.987729 231.811572 
L 235.575178 231.811572 
L 238.24373 230.699999 
L 238.995597 231.255786 
L 242.720184 231.255786 
L 246.921685 229.032639 
L 253.187701 229.032639 
L 255.131022 228.476852 
L 289.763306 228.476852 
L 290.04299 227.921066 
L 302.672592 227.921066 
L 302.883615 227.365279 
L 324.374116 227.365279 
L 329.106261 226.809492 
L 329.133634 227.365279 
L 332.52115 225.697919 
L 337.49252 225.697919 
L 340.207062 225.142132 
L 340.211516 224.586346 
L 345.875431 224.586346 
L 347.908272 225.142132 
L 348.639034 224.586346 
L 358.117886 224.586346 
L 358.521284 225.142132 
L 359.260248 224.586346 
L 359.514188 222.363199 
L 363.85805 222.363199 
L 363.861798 221.807412 
L 377.15393 221.807412 
L 377.927977 221.251626 
L 380.482493 221.251626 
L 380.731702 220.695839 
L 393.188375 220.695839 
L 393.205302 220.140052 
L 396.320907 220.140052 
L 396.325546 219.584266 
L 397.08156 219.584266 
L 397.121036 219.028479 
L 398.295041 219.028479 
L 398.47949 218.472692 
L 400.992225 218.472692 
L 401.374179 217.361119 
L 402.757455 215.137972 
L 406.102454 215.137972 
L 406.34942 212.359039 
L 407.471076 212.359039 
L 408.021566 211.247466 
L 410.858224 211.247466 
L 411.78901 210.691679 
L 414.453384 210.691679 
L 414.810485 210.135892 
L 422.047163 210.135892 
L 422.225468 209.580106 
L 422.894787 209.580106 
L 423.933926 209.024319 
L 435.638763 209.024319 
L 435.743921 208.468532 
L 436.11921 208.468532 
L 436.902657 207.356959 
L 438.001057 207.356959 
L 438.265166 206.801172 
L 438.519628 206.801172 
L 438.616185 206.245386 
L 441.553607 206.245386 
L 442.053684 205.689599 
L 444.610473 205.689599 
L 444.7744 205.133812 
L 446.174911 205.133812 
L 446.264647 204.578026 
L 450.617111 204.578026 
L 450.710688 204.022239 
L 453.249105 204.022239 
L 454.096944 201.799092 
L 455.036947 201.799092 
L 455.03793 201.243306 
L 458.854711 201.243306 
L 459.554444 200.687519 
L 462.476906 200.687519 
L 463.052526 200.131732 
L 463.269048 200.131732 
L 463.831488 199.575946 
L 465.268188 199.575946 
L 465.434235 199.020159 
L 469.037475 199.020159 
L 469.966264 198.464372 
L 470.033912 197.908586 
L 470.334609 197.908586 
L 471.283705 195.685439 
L 474.227118 195.685439 
L 474.248316 195.129652 
L 477.049582 195.129652 
L 477.316517 194.573866 
L 477.634972 194.573866 
L 477.9553 194.018079 
L 478.022118 194.573866 
L 478.261988 194.018079 
L 479.327701 194.018079 
L 479.3379 193.462292 
L 479.620902 193.462292 
L 479.744831 192.906506 
L 480.601149 192.350719 
L 486.559064 192.350719 
L 487.49028 191.794932 
L 488.11364 191.794932 
L 488.61937 191.239146 
L 489.130968 191.794932 
L 491.237417 191.794932 
L 491.328259 190.683359 
L 494.352223 190.683359 
L 495.52552 189.015999 
L 508.260833 189.015999 
L 509.000995 188.460212 
L 528.658649 188.460212 
L 528.779413 187.904426 
L 557.664283 187.904426 
L 557.791529 187.348639 
L 557.800654 186.792852 
L 557.809716 187.348639 
L 562.019635 187.348639 
L 562.970174 186.792852 
L 579.555816 186.792852 
L 582.96877 186.237066 
L 583.001948 185.681279 
L 583.28449 185.681279 
L 584.169501 185.125492 
L 610.788357 185.125492 
L 611.046721 184.569706 
L 634.718077 184.569706 
L 637.756449 184.013919 
L 639.61498 184.013919 
L 639.816663 183.458132 
L 641.108421 182.902346 
L 644.730954 182.902346 
L 646.256622 182.346559 
L 647.853071 182.346559 
L 647.977399 181.790772 
L 650.603249 181.790772 
L 650.916911 181.234986 
L 650.978998 180.679199 
L 655.654094 180.679199 
L 655.67222 180.123412 
L 659.652836 180.123412 
L 659.661623 179.567626 
L 661.010338 179.011839 
L 663.404674 179.011839 
L 665.127694 178.456052 
L 666.669675 178.456052 
L 668.942355 175.121332 
L 671.59567 175.121332 
L 671.607958 172.342399 
L 684.948906 172.342399 
L 684.950288 171.786612 
L 685.181034 171.230826 
L 686.458845 171.230826 
L 686.736778 170.675039 
L 690.928079 170.675039 
L 691.89699 170.119252 
L 692.056402 170.675039 
L 699.55301 170.675039 
L 699.5547 170.119252 
L 702.58149 170.119252 
L 703.819701 167.340319 
L 711.410531 167.340319 
L 711.491604 166.228746 
L 713.207865 164.561386 
L 714.929964 164.561386 
L 715.113399 164.005599 
L 722.352627 164.005599 
L 722.485741 163.449812 
L 729.754737 163.449812 
L 729.913073 162.894026 
L 731.916454 161.226666 
L 732.071687 160.670879 
L 751.807095 160.670879 
L 753.675579 157.891946 
L 758.134 157.891946 
L 758.424406 157.336159 
L 761.773982 157.336159 
L 763.020703 156.224586 
L 780.675744 156.224586 
L 780.899578 155.668799 
L 783.484077 155.668799 
L 783.760935 155.113012 
L 800.786441 155.113012 
L 800.795165 153.445652 
L 801.323967 153.445652 
L 801.413365 152.889866 
L 804.44848 152.889866 
L 804.875748 152.334079 
L 804.878298 152.889866 
L 812.012614 152.889866 
L 812.012614 152.889866 
" clip-path="url(#pa6ce9bd764)" style="fill: none; stroke: #3fb950; stroke-width: 2; stroke-linecap: square"/>
   </g>
   <g id="line2d_38">
    <path d="M 85.239886 455.237812 
L 85.322987 453.570452 
L 85.413399 453.570452 
L 85.554685 372.981386 
L 86.735909 372.981386 
L 86.761684 370.758239 
L 88.053718 370.758239 
L 88.386611 369.090879 
L 88.839562 370.758239 
L 88.842911 369.090879 
L 89.217707 369.090879 
L 89.362557 367.979306 
L 93.063858 367.979306 
L 93.067391 367.423519 
L 93.08822 367.979306 
L 93.270396 367.423519 
L 93.32382 367.979306 
L 93.571339 367.423519 
L 94.765158 367.423519 
L 94.833113 366.867732 
L 95.018208 366.311946 
L 96.484676 366.311946 
L 98.153504 365.756159 
L 98.212243 365.200372 
L 98.663289 364.644586 
L 98.673058 364.088799 
L 102.042296 367.979306 
L 102.543602 366.311946 
L 102.909643 363.533012 
L 104.969734 363.533012 
L 106.064939 367.979306 
L 106.135997 363.533012 
L 126.148939 363.533012 
L 126.763052 362.977226 
L 128.151612 362.977226 
L 131.944001 362.421439 
L 132.867783 361.865652 
L 146.03021 361.865652 
L 146.374593 361.309866 
L 148.143941 360.754079 
L 149.268515 360.754079 
L 150.515052 360.198292 
L 150.54863 359.086719 
L 151.405501 358.530932 
L 151.981397 357.975146 
L 159.915105 357.975146 
L 161.496624 357.419359 
L 161.974735 357.419359 
L 162.243022 356.863572 
L 163.274388 356.863572 
L 164.299027 356.307786 
L 167.527624 356.307786 
L 167.689093 358.530932 
L 167.697019 356.307786 
L 168.930623 356.307786 
L 169.054459 355.751999 
L 170.800581 355.751999 
L 172.518532 355.196212 
L 172.560221 354.640426 
L 177.810999 354.640426 
L 180.025709 354.084639 
L 180.0313 353.528852 
L 187.401154 353.528852 
L 190.475408 352.973066 
L 192.781882 352.973066 
L 193.408959 352.417279 
L 196.929621 352.417279 
L 198.937671 351.861492 
L 199.047744 351.305706 
L 201.005503 351.305706 
L 201.232716 350.749919 
L 201.857459 350.194132 
L 203.252102 350.194132 
L 204.132628 349.638346 
L 205.747049 349.638346 
L 206.80072 349.082559 
L 209.048516 349.082559 
L 209.814299 347.970986 
L 215.629054 347.970986 
L 217.285041 347.415199 
L 219.226856 347.415199 
L 219.664754 346.859412 
L 219.798667 346.303626 
L 220.202894 345.747839 
L 226.889758 345.747839 
L 228.114052 345.192052 
L 228.89151 344.636266 
L 247.906387 344.636266 
L 252.174767 344.080479 
L 252.225764 343.524692 
L 255.131022 343.524692 
L 257.614203 342.968906 
L 262.003195 342.968906 
L 262.374059 342.413119 
L 269.848702 342.413119 
L 275.699892 341.857332 
L 275.75605 341.301546 
L 276.521003 341.301546 
L 278.070849 340.745759 
L 278.157298 339.078399 
L 278.225499 338.522612 
L 281.462851 337.966826 
L 281.6567 337.411039 
L 281.733964 336.299466 
L 282.027165 335.743679 
L 292.561839 335.743679 
L 295.554559 335.187892 
L 297.459632 334.632106 
L 298.95206 334.632106 
L 302.412385 334.076319 
L 302.672592 331.853172 
L 302.883615 331.853172 
L 303.381142 330.741599 
L 309.944661 330.185812 
L 310.153564 329.630026 
L 310.21519 329.074239 
L 311.601845 329.074239 
L 312.911268 328.518452 
L 313.06177 327.962666 
L 313.163979 326.851092 
L 314.030712 326.295306 
L 314.094335 325.739519 
L 315.675731 325.183732 
L 317.754439 324.627946 
L 317.902269 324.072159 
L 317.905403 323.516372 
L 318.323516 322.960586 
L 318.397369 322.404799 
L 321.412731 321.849012 
L 321.953298 321.293226 
L 334.647445 321.293226 
L 336.752573 320.737439 
L 336.94415 320.181652 
L 345.547637 320.181652 
L 345.875431 319.070079 
L 349.460053 319.070079 
L 350.542294 318.514292 
L 350.595165 317.402719 
L 350.873067 316.846932 
L 352.713227 316.291146 
L 352.754669 315.735359 
L 352.976782 315.179572 
L 353.204394 312.956426 
L 353.457935 312.956426 
L 353.467274 312.400639 
L 355.00348 311.844852 
L 355.607425 311.289066 
L 355.753565 310.733279 
L 358.521284 310.177492 
L 360.560977 310.177492 
L 361.26925 309.621706 
L 368.937988 309.621706 
L 371.478587 309.065919 
L 371.488695 308.510132 
L 371.945609 307.954346 
L 377.927977 307.954346 
L 379.606513 307.398559 
L 380.297982 306.842772 
L 380.482493 305.731199 
L 385.321609 305.731199 
L 385.651307 305.175412 
L 388.308615 305.175412 
L 389.580804 304.619626 
L 393.205302 304.619626 
L 395.39648 304.063839 
L 399.946849 304.063839 
L 400.506126 303.508052 
L 402.757455 303.508052 
L 403.370248 302.952266 
L 403.636077 302.396479 
L 403.76701 301.840692 
L 405.620195 301.840692 
L 405.672882 300.729119 
L 406.34942 300.729119 
L 406.793616 299.061759 
L 408.405641 299.061759 
L 408.60585 298.505972 
L 408.761267 298.505972 
L 409.532857 297.950186 
L 410.813279 297.950186 
L 410.858224 297.394399 
L 411.78901 297.394399 
L 412.015086 296.838612 
L 412.889929 296.838612 
L 414.229397 295.727039 
L 414.810485 295.727039 
L 417.057882 294.615466 
L 417.061262 294.059679 
L 417.490342 293.503892 
L 418.585117 292.948106 
L 418.755342 292.392319 
L 419.846861 291.836532 
L 421.631139 291.836532 
L 422.225468 290.724959 
L 424.401562 290.724959 
L 424.463342 290.169172 
L 425.083292 290.169172 
L 425.130879 289.613386 
L 425.471084 289.057599 
L 426.654827 289.057599 
L 426.74487 288.501812 
L 426.947659 288.501812 
L 427.057518 287.946026 
L 427.079791 287.946026 
L 427.176562 287.390239 
L 428.747144 287.390239 
L 429.076781 286.834452 
L 429.353577 286.834452 
L 429.51901 286.278666 
L 429.941486 286.278666 
L 430.25779 285.722879 
L 430.324485 285.167092 
L 430.414897 285.167092 
L 432.004926 284.611306 
L 433.194782 284.611306 
L 433.284856 284.055519 
L 437.978539 284.055519 
L 438.001057 283.499732 
L 438.265166 283.499732 
L 438.886653 282.388159 
L 440.471889 282.388159 
L 440.618889 280.720799 
L 440.661775 279.609226 
L 440.938848 279.053439 
L 442.053684 279.053439 
L 442.579475 278.497652 
L 443.089106 278.497652 
L 443.253433 277.941866 
L 444.043424 277.386079 
L 444.7744 277.386079 
L 446.243941 276.830292 
L 446.341696 276.274506 
L 446.713727 276.274506 
L 446.788164 275.718719 
L 448.094515 275.718719 
L 448.130797 275.162932 
L 454.466119 275.162932 
L 454.583197 274.607146 
L 454.75247 274.607146 
L 454.836031 273.495572 
L 455.651798 273.495572 
L 455.825402 272.939786 
L 456.390423 272.383999 
L 456.532447 271.828212 
L 456.791947 271.828212 
L 457.011541 271.272426 
L 457.083121 270.716639 
L 460.266466 270.716639 
L 461.069974 270.160852 
L 461.228679 269.049279 
L 461.424249 268.493492 
L 461.750722 268.493492 
L 461.949702 267.937706 
L 466.518166 267.937706 
L 466.819754 266.270346 
L 467.443975 266.270346 
L 467.535616 265.714559 
L 469.974835 265.714559 
L 470.033912 264.602986 
L 472.963531 264.602986 
L 472.993883 264.047199 
L 474.405146 264.047199 
L 474.414639 263.491412 
L 475.101869 263.491412 
L 475.215844 262.935626 
L 477.212465 262.935626 
L 477.316517 262.379839 
L 477.449079 262.379839 
L 477.634972 261.824052 
L 478.012318 261.824052 
L 478.022118 261.268266 
L 478.261988 261.268266 
L 478.719578 260.712479 
L 482.415564 260.712479 
L 482.684189 260.156692 
L 483.780838 260.156692 
L 483.782865 259.600906 
L 492.167435 259.600906 
L 493.590525 259.045119 
L 493.631784 258.489332 
L 494.352223 257.933546 
L 495.447704 257.933546 
L 495.52552 256.821972 
L 495.723671 256.821972 
L 495.806157 256.266186 
L 498.715562 256.266186 
L 499.240953 255.710399 
L 504.273458 255.710399 
L 504.288941 255.154612 
L 505.932609 255.154612 
L 506.635045 254.598826 
L 514.37134 254.598826 
L 514.467896 253.487252 
L 517.510446 253.487252 
L 518.115619 252.931466 
L 518.76368 252.931466 
L 519.555914 252.375679 
L 524.792591 252.375679 
L 525.29405 251.819892 
L 525.728568 251.819892 
L 525.941619 251.264106 
L 527.609832 250.708319 
L 528.426459 250.708319 
L 528.692749 250.152532 
L 528.779413 250.152532 
L 531.12309 249.596746 
L 535.438259 249.596746 
L 535.775944 249.040959 
L 552.431323 249.040959 
L 553.039876 248.485172 
L 556.891464 248.485172 
L 557.030661 247.929386 
L 557.280854 247.929386 
L 557.356274 247.373599 
L 578.86576 247.373599 
L 579.555816 246.817812 
L 584.691544 246.817812 
L 585.807178 246.262026 
L 585.881953 245.706239 
L 588.554038 245.706239 
L 588.66491 245.150452 
L 597.320071 245.150452 
L 597.337797 244.594666 
L 604.644181 244.594666 
L 604.722826 244.038879 
L 605.197374 243.483092 
L 606.990315 243.483092 
L 606.994432 242.927306 
L 607.358783 242.371519 
L 610.050776 242.371519 
L 610.94015 241.815732 
L 616.680436 241.815732 
L 616.720865 240.704159 
L 653.107382 240.704159 
L 655.67222 240.148372 
L 658.899096 240.148372 
L 659.006312 239.592586 
L 673.312576 239.592586 
L 673.3366 239.036799 
L 688.276578 239.036799 
L 688.430582 238.481012 
L 689.319434 238.481012 
L 689.342597 237.925226 
L 689.543482 237.369439 
L 690.324933 236.257866 
L 690.439799 235.146292 
L 690.506187 234.034719 
L 690.706335 233.478932 
L 690.752632 232.923146 
L 690.928079 232.367359 
L 692.056402 232.367359 
L 692.196674 231.811572 
L 692.203279 231.255786 
L 692.6264 230.699999 
L 699.5547 230.699999 
L 700.301467 229.588426 
L 722.154414 229.588426 
L 722.293274 229.032639 
L 735.631978 229.032639 
L 735.947883 227.921066 
L 737.378285 227.921066 
L 737.569892 227.365279 
L 746.068344 227.365279 
L 746.280719 226.809492 
L 749.62114 226.809492 
L 750.513279 226.253706 
L 750.597178 225.697919 
L 755.6091 225.697919 
L 755.765224 224.586346 
L 756.41181 224.030559 
L 757.016615 224.030559 
L 758.134 223.474772 
L 761.346192 223.474772 
L 761.395161 222.918986 
L 761.773982 222.363199 
L 764.395009 222.363199 
L 767.172467 221.807412 
L 780.899578 221.807412 
L 782.52214 221.251626 
L 783.122859 220.695839 
L 783.484077 219.584266 
L 785.415754 219.584266 
L 793.286269 218.472692 
L 795.26117 218.472692 
L 795.478737 217.361119 
L 795.745918 217.361119 
L 795.881459 216.805332 
L 806.942107 216.805332 
L 806.955071 216.249546 
L 812.012614 216.249546 
L 812.012614 216.249546 
" clip-path="url(#pa6ce9bd764)" style="fill: none; stroke: #58a6ff; stroke-width: 2; stroke-linecap: square"/>
   </g>
   <g id="line2d_39">
    <path d="M 85.239886 455.237812 
L 87.790715 455.237812 
L 87.800485 454.126239 
L 89.90635 454.126239 
L 90.387319 453.570452 
L 220.202894 453.570452 
L 221.62494 453.014666 
L 257.614203 453.014666 
L 258.612975 452.458879 
L 292.561839 452.458879 
L 295.554559 451.903092 
L 303.381142 451.903092 
L 310.21519 450.235732 
L 311.601845 449.124159 
L 314.094335 449.124159 
L 315.675731 448.568372 
L 317.905403 448.012586 
L 318.397369 448.012586 
L 321.412731 447.456799 
L 321.953298 446.901012 
L 324.374116 446.345226 
L 329.106261 445.789439 
L 329.133634 446.345226 
L 336.94415 446.345226 
L 337.49252 445.789439 
L 348.639034 445.789439 
L 349.460053 445.233652 
L 353.204394 445.233652 
L 353.467274 444.677866 
L 358.117886 444.677866 
L 358.521284 444.122079 
L 375.558095 444.122079 
L 377.15393 443.566292 
L 377.824632 443.566292 
L 377.927977 443.010506 
L 382.474967 443.010506 
L 382.479299 442.454719 
L 393.188375 442.454719 
L 393.205302 441.898932 
L 396.325546 441.898932 
L 397.121036 441.343146 
L 398.292982 440.787359 
L 398.295041 440.231572 
L 398.47949 440.231572 
L 399.946849 438.564212 
L 400.935329 438.564212 
L 400.992225 436.896852 
L 401.374179 436.896852 
L 402.757455 437.452639 
L 403.752264 437.452639 
L 403.76701 435.229492 
L 407.471076 435.229492 
L 408.021566 434.673706 
L 408.60585 434.673706 
L 408.761267 434.117919 
L 422.047163 434.117919 
L 422.225468 433.562132 
L 422.894787 433.562132 
L 423.933926 433.006346 
L 428.518457 433.006346 
L 428.747144 432.450559 
L 430.324485 432.450559 
L 430.414897 431.894772 
L 435.638763 431.894772 
L 435.743921 431.338986 
L 436.11921 431.338986 
L 436.499843 430.783199 
L 436.880108 430.783199 
L 436.902657 430.227412 
L 438.519628 430.227412 
L 438.616185 429.671626 
L 446.122839 429.671626 
L 446.243941 429.115839 
L 446.264647 429.115839 
L 446.341696 428.560052 
L 446.788164 428.560052 
L 447.724111 428.004266 
L 451.383263 428.004266 
L 451.386489 427.448479 
L 452.085669 427.448479 
L 452.112273 426.892692 
L 454.096944 426.892692 
L 454.563996 426.336906 
L 457.158695 426.336906 
L 457.925799 425.781119 
L 459.417643 425.781119 
L 459.433465 424.669546 
L 459.554444 424.669546 
L 459.706698 424.113759 
L 462.106594 424.113759 
L 462.476906 423.557972 
L 463.052526 423.557972 
L 463.269048 423.002186 
L 464.674043 423.002186 
L 464.870228 422.446399 
L 464.872747 421.890612 
L 465.268188 421.890612 
L 465.434235 421.334826 
L 480.569015 421.334826 
L 480.601149 420.223252 
L 482.684189 420.223252 
L 483.28371 419.667466 
L 483.782865 419.667466 
L 486.124453 419.111679 
L 486.559064 419.111679 
L 487.49028 418.555892 
L 488.11364 418.555892 
L 488.61937 418.000106 
L 489.130968 418.555892 
L 490.777892 418.555892 
L 491.225743 418.000106 
L 491.328259 416.888532 
L 492.161813 416.332746 
L 492.167435 415.221172 
L 495.806157 415.221172 
L 496.601924 414.665386 
L 496.682567 412.998026 
L 497.477934 412.442239 
L 497.917798 411.886452 
L 501.679835 411.886452 
L 501.839461 410.219092 
L 502.031345 410.219092 
L 502.173614 409.663306 
L 503.093033 409.107519 
L 504.54027 409.107519 
L 504.838418 408.551732 
L 504.90625 407.995946 
L 505.058381 407.995946 
L 505.932609 406.884372 
L 506.869263 406.884372 
L 507.176811 406.328586 
L 508.25727 406.328586 
L 508.260833 405.217012 
L 509.000995 405.217012 
L 509.983608 404.661226 
L 512.586877 403.549652 
L 512.936145 402.993866 
L 518.115619 402.993866 
L 518.76368 401.882292 
L 528.658649 401.882292 
L 528.779413 400.770719 
L 533.595703 400.770719 
L 534.331595 400.214932 
L 536.564738 400.214932 
L 536.69008 399.659146 
L 550.428619 399.659146 
L 550.647906 399.103359 
L 552.008725 399.103359 
L 552.431323 398.547572 
L 554.971031 398.547572 
L 555.448682 397.991786 
L 555.451815 397.435999 
L 555.998097 396.880212 
L 557.664283 396.880212 
L 557.791529 396.324426 
L 557.800654 395.212852 
L 557.809716 395.768639 
L 558.929375 395.212852 
L 562.970174 395.212852 
L 563.767232 394.101279 
L 571.058101 394.101279 
L 571.621802 393.545492 
L 573.390504 393.545492 
L 573.532097 392.989706 
L 573.551574 392.433919 
L 579.555816 392.433919 
L 583.28449 391.322346 
L 584.169501 391.322346 
L 584.691544 390.766559 
L 592.415058 390.766559 
L 593.364399 390.210772 
L 594.540739 390.210772 
L 595.680028 389.654986 
L 605.197374 389.654986 
L 605.458564 389.099199 
L 605.459978 388.543412 
L 610.788357 388.543412 
L 611.046721 387.987626 
L 634.718077 387.987626 
L 637.756449 387.431839 
L 644.730954 387.431839 
L 646.256622 386.876052 
L 647.599008 386.876052 
L 647.853071 386.320266 
L 650.978998 386.320266 
L 651.507031 385.764479 
L 652.203446 385.764479 
L 653.107382 385.208692 
L 655.274106 385.208692 
L 655.67222 384.652906 
L 655.938909 384.652906 
L 656.909817 384.097119 
L 666.289901 384.097119 
L 666.316137 382.429759 
L 674.500774 382.429759 
L 677.971483 381.873972 
L 677.974309 381.318186 
L 682.044109 381.318186 
L 682.214949 380.762399 
L 682.217468 380.206612 
L 684.121158 380.206612 
L 684.950288 379.650826 
L 685.543419 379.650826 
L 686.458845 379.095039 
L 687.441211 379.095039 
L 687.610976 377.983466 
L 688.430582 377.983466 
L 688.593926 377.427679 
L 690.438202 377.427679 
L 690.506187 376.871892 
L 693.413135 376.871892 
L 695.519092 376.316106 
L 696.209855 376.316106 
L 696.88796 375.760319 
L 698.288747 375.204532 
L 698.294738 374.648746 
L 698.681024 372.981386 
L 699.034009 372.425599 
L 699.5547 371.869812 
L 700.950111 371.869812 
L 701.796352 370.202452 
L 703.819701 370.202452 
L 704.367549 368.535092 
L 706.593964 368.535092 
L 706.829717 367.979306 
L 708.443401 367.979306 
L 708.794082 366.867732 
L 709.401713 366.311946 
L 711.491604 366.311946 
L 715.113399 365.200372 
L 717.43551 364.644586 
L 717.593262 364.088799 
L 719.789663 364.088799 
L 719.930181 363.533012 
L 722.341536 363.533012 
L 722.352627 362.977226 
L 722.804656 362.977226 
L 722.903731 362.421439 
L 729.754737 362.421439 
L 729.913073 361.865652 
L 732.071687 361.309866 
L 735.62181 361.309866 
L 735.631978 360.754079 
L 748.656346 360.754079 
L 749.62114 358.530932 
L 754.966047 358.530932 
L 754.973942 357.419359 
L 761.773982 357.419359 
L 763.018061 355.751999 
L 763.020703 355.196212 
L 767.827501 355.196212 
L 769.44481 354.084639 
L 769.517188 353.528852 
L 799.736211 353.528852 
L 800.941121 352.973066 
L 804.117246 352.973066 
L 804.44848 351.861492 
L 812.012614 351.861492 
L 812.012614 351.861492 
" clip-path="url(#pa6ce9bd764)" style="fill: none; stroke: #d29922; stroke-width: 2; stroke-linecap: square"/>
   </g>
   <g id="line2d_40">
    <path d="M 85.239886 454.682026 
L 85.458067 454.682026 
L 85.554685 432.450559 
L 86.059616 426.892692 
L 86.348148 425.781119 
L 86.494533 426.336906 
L 86.761684 425.781119 
L 87.213498 425.225332 
L 87.800485 423.002186 
L 88.053718 421.334826 
L 88.386611 421.334826 
L 88.839562 420.779039 
L 88.842911 420.223252 
L 89.2076 419.667466 
L 89.30815 419.111679 
L 89.362557 419.111679 
L 90.294879 418.000106 
L 90.387319 411.886452 
L 90.451249 412.442239 
L 90.744328 405.217012 
L 90.871636 402.993866 
L 93.067391 402.993866 
L 93.270396 399.659146 
L 93.32382 402.438079 
L 93.571339 397.991786 
L 93.693916 397.435999 
L 94.60716 396.880212 
L 94.765158 395.768639 
L 95.018208 395.768639 
L 95.488516 395.212852 
L 95.739753 394.657066 
L 95.853543 393.545492 
L 95.922758 392.989706 
L 96.157466 392.433919 
L 96.163273 391.878132 
L 96.399333 392.433919 
L 96.46652 391.878132 
L 96.474784 392.433919 
L 96.484676 390.766559 
L 98.673058 390.766559 
L 102.042296 402.993866 
L 102.543602 390.210772 
L 102.909643 389.654986 
L 104.218175 389.654986 
L 104.457522 389.099199 
L 104.969734 388.543412 
L 106.064939 402.993866 
L 106.135997 387.987626 
L 106.976401 387.431839 
L 108.773613 386.876052 
L 108.901781 387.431839 
L 109.163586 385.764479 
L 109.740496 385.764479 
L 109.91579 385.208692 
L 110.246871 384.652906 
L 110.274335 383.541332 
L 110.579733 382.429759 
L 110.597428 382.985546 
L 110.779082 382.985546 
L 110.878679 381.873972 
L 111.185275 379.650826 
L 111.225581 378.539252 
L 111.618934 376.871892 
L 111.811186 377.983466 
L 113.17053 374.648746 
L 113.528461 375.760319 
L 115.001473 373.537172 
L 116.168412 377.427679 
L 116.577954 373.537172 
L 118.2599 371.869812 
L 120.740009 371.869812 
L 121.067557 371.314026 
L 121.328225 369.646666 
L 122.060706 371.314026 
L 125.048511 371.869812 
L 125.789687 369.646666 
L 126.148939 367.979306 
L 126.763052 369.646666 
L 128.151612 367.979306 
L 132.867783 367.979306 
L 137.826865 367.423519 
L 138.157576 366.867732 
L 141.288388 366.311946 
L 143.358617 366.311946 
L 143.743982 365.756159 
L 143.827819 366.311946 
L 146.03021 364.644586 
L 148.095985 364.644586 
L 148.143941 364.088799 
L 149.268515 363.533012 
L 151.981397 363.533012 
L 153.178105 359.642506 
L 154.068799 359.086719 
L 155.214909 358.530932 
L 155.237151 357.975146 
L 159.53272 357.975146 
L 159.615697 354.084639 
L 159.774679 354.084639 
L 159.915105 352.973066 
L 161.496624 352.973066 
L 161.974735 352.417279 
L 164.299027 352.417279 
L 167.527624 351.861492 
L 167.689093 363.533012 
L 167.697019 352.417279 
L 167.903803 351.861492 
L 169.054459 351.861492 
L 170.800581 351.305706 
L 172.560221 351.305706 
L 173.957997 350.749919 
L 177.810999 349.638346 
L 180.0313 349.638346 
L 181.815701 349.082559 
L 182.093357 346.303626 
L 182.281278 346.303626 
L 182.613803 345.747839 
L 184.348281 345.192052 
L 184.749222 342.968906 
L 187.146415 341.857332 
L 187.175293 342.413119 
L 187.401154 341.857332 
L 190.475408 340.745759 
L 192.781882 340.189972 
L 193.883876 340.189972 
L 194.86062 339.634186 
L 195.707077 338.522612 
L 196.604869 337.966826 
L 196.929621 337.411039 
L 199.047744 337.966826 
L 201.005503 336.855252 
L 201.232716 337.411039 
L 201.753038 337.411039 
L 201.857459 336.855252 
L 203.252102 336.299466 
L 204.132628 336.855252 
L 205.747049 335.743679 
L 206.80072 335.743679 
L 209.048516 335.187892 
L 209.421255 335.743679 
L 209.814299 334.076319 
L 211.17816 334.076319 
L 211.448013 333.520532 
L 212.622417 331.297386 
L 212.954235 330.185812 
L 213.815899 330.741599 
L 214.195488 329.630026 
L 214.233459 329.074239 
L 217.285041 329.074239 
L 218.830585 328.518452 
L 219.226856 327.962666 
L 221.62494 327.962666 
L 223.312324 327.406879 
L 226.17832 327.406879 
L 226.889758 326.851092 
L 234.770748 326.851092 
L 235.223361 326.295306 
L 235.268705 325.739519 
L 235.575178 325.183732 
L 238.995597 325.183732 
L 239.20877 324.627946 
L 240.079005 324.072159 
L 240.229722 323.516372 
L 241.671522 322.960586 
L 242.720184 322.404799 
L 246.921685 322.404799 
L 247.906387 321.293226 
L 252.225764 321.293226 
L 253.187701 320.737439 
L 257.213201 320.737439 
L 257.614203 320.181652 
L 258.612975 319.625866 
L 258.910293 319.070079 
L 259.011242 318.514292 
L 262.003195 317.958506 
L 262.374059 318.514292 
L 266.312772 317.402719 
L 269.426933 316.291146 
L 269.848702 315.735359 
L 275.75605 315.735359 
L 276.521003 315.179572 
L 282.027165 315.179572 
L 287.213859 314.623786 
L 287.866251 314.067999 
L 290.04299 313.512212 
L 292.225873 312.956426 
L 292.561839 312.400639 
L 297.459632 312.400639 
L 298.95206 311.844852 
L 310.21519 311.844852 
L 311.601845 311.289066 
L 320.905496 311.289066 
L 321.412731 310.733279 
L 321.953298 311.289066 
L 324.374116 310.733279 
L 332.52115 310.733279 
L 333.612914 310.177492 
L 350.84763 310.177492 
L 350.873067 309.621706 
L 361.51723 309.621706 
L 363.855808 309.065919 
L 363.861798 308.510132 
L 375.552903 308.510132 
L 375.558095 307.398559 
L 382.479299 307.398559 
L 385.651307 306.842772 
L 389.580804 306.842772 
L 393.205302 305.731199 
L 400.506126 305.731199 
L 400.935329 305.175412 
L 400.992225 304.619626 
L 403.752264 304.619626 
L 403.76701 304.063839 
L 404.053607 304.063839 
L 404.510459 303.508052 
L 408.60585 303.508052 
L 408.761267 302.952266 
L 414.229397 302.952266 
L 414.453384 302.396479 
L 427.807449 302.396479 
L 428.517443 300.729119 
L 428.518457 300.173332 
L 430.410381 300.173332 
L 430.414897 299.617546 
L 435.995404 299.617546 
L 436.11921 299.061759 
L 438.79068 299.061759 
L 438.886653 298.505972 
L 448.811022 298.505972 
L 449.001861 297.950186 
L 451.305447 297.950186 
L 451.386489 297.394399 
L 452.112273 296.838612 
L 470.334609 296.838612 
L 471.283705 295.727039 
L 472.704368 295.727039 
L 472.993883 295.171252 
L 474.414639 295.171252 
L 474.625201 294.615466 
L 477.981997 294.615466 
L 478.022118 294.059679 
L 496.600357 294.059679 
L 496.682567 292.948106 
L 519.904628 292.948106 
L 520.507743 292.392319 
L 560.156803 292.392319 
L 562.019635 291.836532 
L 578.775625 291.836532 
L 578.86576 291.280746 
L 586.367376 291.280746 
L 586.732004 290.724959 
L 735.203205 290.724959 
L 735.631978 290.169172 
L 754.483051 290.169172 
L 754.973942 289.613386 
L 761.773982 289.613386 
L 763.006049 289.057599 
L 763.020703 285.167092 
L 769.441215 285.167092 
L 769.517188 282.388159 
L 812.012614 282.388159 
L 812.012614 282.388159 
" clip-path="url(#pa6ce9bd764)" style="fill: none; stroke: #f85149; stroke-width: 2; stroke-linecap: square"/>
   </g>
   <g id="line2d_41">
    <path d="M 85.239886 454.682026 
L 85.257244 454.126239 
L 85.394093 -1 
M 85.517093 -1 
L 85.652501 101.201706 
L 87.790715 101.201706 
L 87.800485 97.866986 
L 90.387319 97.866986 
L 90.55481 98.422772 
L 90.871636 98.422772 
L 91.162687 98.978559 
L 92.966165 99.534346 
L 93.001771 98.978559 
L 93.067391 99.534346 
L 98.673058 99.534346 
L 102.042296 98.422772 
L 102.543602 99.534346 
L 102.909643 98.978559 
L 103.832196 99.534346 
L 104.218175 96.755412 
L 104.969734 96.755412 
L 106.064939 98.422772 
L 106.135997 95.643839 
L 106.976401 96.199626 
L 109.163586 96.199626 
L 109.740496 95.088052 
L 110.597428 95.088052 
L 110.878679 91.197546 
L 116.168412 91.197546 
L 116.577954 86.751252 
L 118.2599 86.751252 
L 120.740009 82.860746 
L 122.041014 82.860746 
L 122.060706 83.416532 
L 125.048511 83.416532 
L 125.789687 80.081812 
L 128.13533 80.081812 
L 128.151612 80.637599 
L 141.288388 80.637599 
L 143.743982 81.193386 
L 143.827819 80.637599 
L 146.374593 81.193386 
L 155.237151 81.193386 
L 159.53272 81.749172 
L 159.615697 74.523946 
L 159.819747 75.079732 
L 162.243022 75.079732 
L 163.274388 75.635519 
L 167.527624 75.635519 
L 167.689093 80.637599 
L 167.697019 71.745012 
L 167.903803 71.745012 
L 168.930623 73.968159 
L 173.957997 73.968159 
L 177.810999 70.077652 
L 182.093357 70.077652 
L 182.281278 68.410292 
L 193.408959 68.410292 
L 193.883876 68.966079 
L 196.585822 68.966079 
L 196.604869 70.077652 
L 201.753038 70.077652 
L 201.857459 73.412372 
L 209.814299 73.412372 
L 210.00434 68.410292 
L 211.175364 67.298719 
L 211.17816 67.854506 
L 211.448013 67.854506 
L 212.409459 65.075572 
L 213.815899 65.075572 
L 214.195488 65.631359 
L 214.233459 65.075572 
L 215.10268 65.631359 
L 215.106643 66.187146 
L 215.12695 65.631359 
L 215.629054 63.408212 
L 220.202894 63.408212 
L 221.62494 63.963999 
L 223.312324 63.963999 
L 226.17832 64.519786 
L 228.89151 64.519786 
L 230.987729 65.631359 
L 235.268705 65.075572 
L 235.575178 65.075572 
L 238.24373 66.187146 
L 238.995597 65.631359 
L 242.720184 65.631359 
L 246.919412 67.854506 
L 246.921685 67.298719 
L 253.187701 67.298719 
L 255.131022 67.854506 
L 289.763306 67.854506 
L 290.04299 68.410292 
L 292.210298 68.410292 
L 292.225873 66.742932 
L 302.672592 66.742932 
L 302.883615 67.298719 
L 324.374116 67.298719 
L 329.106261 67.854506 
L 329.133634 67.298719 
L 332.52115 68.966079 
L 333.612914 68.966079 
L 334.647445 68.410292 
L 337.49252 68.410292 
L 340.207062 68.966079 
L 340.211516 69.521866 
L 347.908272 67.854506 
L 348.639034 68.410292 
L 358.117886 68.410292 
L 358.521284 67.854506 
L 359.260248 68.410292 
L 359.514188 70.633439 
L 363.85805 70.633439 
L 363.861798 71.189226 
L 377.15393 71.189226 
L 377.927977 71.745012 
L 380.482493 71.745012 
L 380.731702 72.300799 
L 393.188375 72.300799 
L 393.205302 72.856586 
L 395.39648 72.856586 
L 396.320907 73.412372 
L 396.325546 73.968159 
L 397.08156 73.412372 
L 397.121036 73.968159 
L 398.295041 73.968159 
L 398.47949 74.523946 
L 400.935329 74.523946 
L 400.992225 73.412372 
L 401.374179 74.523946 
L 402.757455 72.856586 
L 406.102454 72.856586 
L 406.34942 71.189226 
L 407.471076 71.189226 
L 408.021566 72.300799 
L 410.858224 72.300799 
L 411.78901 72.856586 
L 412.015086 72.856586 
L 412.889929 70.077652 
L 414.453384 70.077652 
L 414.810485 70.633439 
L 422.047163 70.633439 
L 422.225468 71.189226 
L 422.894787 71.189226 
L 423.933926 71.745012 
L 435.638763 71.745012 
L 435.743921 72.300799 
L 436.11921 72.300799 
L 436.902657 73.412372 
L 438.001057 73.412372 
L 438.265166 72.856586 
L 438.519628 72.856586 
L 438.616185 73.412372 
L 441.553607 73.412372 
L 442.053684 73.968159 
L 444.610473 73.968159 
L 444.7744 74.523946 
L 446.174911 74.523946 
L 446.264647 75.079732 
L 450.617111 75.079732 
L 450.710688 75.635519 
L 453.249105 75.635519 
L 454.096944 77.858666 
L 455.036947 77.858666 
L 455.03793 78.414452 
L 458.854711 78.414452 
L 459.554444 78.970239 
L 462.476906 78.970239 
L 463.052526 79.526026 
L 465.268188 79.526026 
L 465.434235 80.081812 
L 469.037475 80.081812 
L 469.966264 80.637599 
L 470.033912 81.193386 
L 470.334609 81.193386 
L 471.283705 60.629279 
L 474.227118 60.629279 
L 474.248316 61.185066 
L 474.414639 61.185066 
L 474.625201 60.629279 
L 477.049582 60.629279 
L 477.316517 61.185066 
L 477.634972 61.185066 
L 477.9553 61.740852 
L 478.022118 61.185066 
L 479.327701 61.185066 
L 479.3379 61.740852 
L 479.620902 61.740852 
L 479.744831 62.296639 
L 480.601149 62.852426 
L 486.559064 62.852426 
L 487.49028 63.408212 
L 488.11364 63.408212 
L 488.61937 63.963999 
L 489.130968 63.408212 
L 491.237417 63.408212 
L 491.328259 64.519786 
L 494.352223 64.519786 
L 495.52552 66.187146 
L 508.260833 66.187146 
L 509.000995 66.742932 
L 528.658649 66.742932 
L 528.779413 67.298719 
L 557.664283 67.298719 
L 557.791529 67.854506 
L 557.800654 68.410292 
L 557.809716 67.854506 
L 562.019635 67.854506 
L 562.970174 68.410292 
L 579.555816 68.410292 
L 583.28449 68.966079 
L 584.162159 69.521866 
L 584.169501 67.854506 
L 610.788357 67.854506 
L 611.046721 68.410292 
L 634.718077 68.410292 
L 637.756449 68.966079 
L 639.61498 68.966079 
L 639.816663 69.521866 
L 641.108421 70.077652 
L 644.730954 70.077652 
L 646.256622 70.633439 
L 647.853071 70.633439 
L 647.977399 71.189226 
L 650.603249 71.189226 
L 650.916911 71.745012 
L 650.978998 72.300799 
L 655.654094 72.300799 
L 655.67222 72.856586 
L 659.006312 72.856586 
L 659.652836 72.300799 
L 659.661623 72.856586 
L 661.010338 73.412372 
L 663.404674 73.412372 
L 665.127694 73.968159 
L 666.669675 73.968159 
L 668.942355 61.740852 
L 671.59567 61.740852 
L 671.607958 64.519786 
L 684.948906 64.519786 
L 684.950288 65.075572 
L 685.181034 65.631359 
L 686.458845 65.631359 
L 686.736778 66.187146 
L 690.928079 66.187146 
L 691.89699 66.742932 
L 692.056402 66.187146 
L 699.55301 66.187146 
L 699.5547 66.742932 
L 711.410531 66.742932 
L 711.491604 67.854506 
L 713.207865 69.521866 
L 714.929964 69.521866 
L 715.113399 70.077652 
L 722.352627 70.077652 
L 722.485741 70.633439 
L 729.754737 70.633439 
L 729.913073 71.189226 
L 731.916454 72.856586 
L 732.071687 73.412372 
L 751.807095 73.412372 
L 753.675579 76.191306 
L 758.134 76.191306 
L 758.424406 76.747092 
L 761.773982 76.747092 
L 763.020703 77.858666 
L 780.675744 77.858666 
L 780.899578 78.414452 
L 783.484077 78.414452 
L 783.760935 78.970239 
L 800.786441 78.970239 
L 800.795165 80.637599 
L 801.323967 80.637599 
L 801.413365 81.193386 
L 804.44848 81.193386 
L 804.875748 81.749172 
L 804.878298 81.193386 
L 812.012614 81.193386 
L 812.012614 81.193386 
" clip-path="url(#pa6ce9bd764)" style="fill: none; stroke: #9467bd; stroke-width: 2; stroke-linecap: square"/>
   </g>
   <g id="patch_3">
    <path d="M 48.90125 455.237812 
L 48.90125 38.397812 
" style="fill: none; stroke: #30363d; stroke-width: 0.8; stroke-linejoin: miter; stroke-linecap: square"/>
   </g>
   <g id="patch_4">
    <path d="M 848.35125 455.237812 
L 848.35125 38.397812 
" style="fill: none; stroke: #30363d; stroke-width: 0.8; stroke-linejoin: miter; stroke-linecap: square"/>
   </g>
   <g id="patch_5">
    <path d="M 48.90125 455.237812 
L 848.35125 455.237812 
" style="fill: none; stroke: #30363d; stroke-width: 0.8; stroke-linejoin: miter; stroke-linecap: square"/>
   </g>
   <g id="patch_6">
    <path d="M 48.90125 38.397812 
L 848.35125 38.397812 
" style="fill: none; stroke: #30363d; stroke-width: 0.8; stroke-linejoin: miter; stroke-linecap: square"/>
   </g>
   <g id="text_21">
    <!-- 544 -->
    <g style="fill: #3fb950" transform="translate(817.012614 155.373303) scale(0.09 -0.09)">
     <defs>
      <path id="DejaVuSans-Bold-35" d="M 678 4666 
L 3669 4666 
L 3669 3781 
L 1638 3781 
L 1638 3059 
Q 1775 3097 1914 3117 
Q 2053 3138 2203 3138 
Q 3056 3138 3531 2711 
Q 4006 2284 4006 1522 
Q 4006 766 3489 337 
Q 2972 -91 2053 -91 
Q 1656 -91 1267 -14 
Q 878 63 494 219 
L 494 1166 
Q 875 947 1217 837 
Q 1559 728 1863 728 
Q 2300 728 2551 942 
Q 2803 1156 2803 1522 
Q 2803 1891 2551 2103 
Q 2300 2316 1863 2316 
Q 1603 2316 1309 2248 
Q 1016 2181 678 2041 
L 678 4666 
z
" transform="scale(0.015625)"/>
      <path id="DejaVuSans-Bold-34" d="M 2356 3675 
L 1038 1722 
L 2356 1722 
L 2356 3675 
z
M 2156 4666 
L 3494 4666 
L 3494 1722 
L 4159 1722 
L 4159 850 
L 3494 850 
L 3494 0 
L 2356 0 
L 2356 850 
L 288 850 
L 288 1881 
L 2156 4666 
z
" transform="scale(0.015625)"/>
     </defs>
     <use xlink:href="#DejaVuSans-Bold-35"/>
     <use xlink:href="#DejaVuSans-Bold-34" transform="translate(69.580078 0)"/>
     <use xlink:href="#DejaVuSans-Bold-34" transform="translate(139.160156 0)"/>
    </g>
   </g>
   <g id="text_22">
    <!-- 430 -->
    <g style="fill: #58a6ff" transform="translate(817.012614 218.732983) scale(0.09 -0.09)">
     <defs>
      <path id="DejaVuSans-Bold-33" d="M 2981 2516 
Q 3453 2394 3698 2092 
Q 3944 1791 3944 1325 
Q 3944 631 3412 270 
Q 2881 -91 1863 -91 
Q 1503 -91 1142 -33 
Q 781 25 428 141 
L 428 1069 
Q 766 900 1098 814 
Q 1431 728 1753 728 
Q 2231 728 2486 893 
Q 2741 1059 2741 1369 
Q 2741 1688 2480 1852 
Q 2219 2016 1709 2016 
L 1228 2016 
L 1228 2791 
L 1734 2791 
Q 2188 2791 2409 2933 
Q 2631 3075 2631 3366 
Q 2631 3634 2415 3781 
Q 2200 3928 1806 3928 
Q 1516 3928 1219 3862 
Q 922 3797 628 3669 
L 628 4550 
Q 984 4650 1334 4700 
Q 1684 4750 2022 4750 
Q 2931 4750 3382 4451 
Q 3834 4153 3834 3553 
Q 3834 3144 3618 2883 
Q 3403 2622 2981 2516 
z
" transform="scale(0.015625)"/>
      <path id="DejaVuSans-Bold-30" d="M 2944 2338 
Q 2944 3213 2780 3570 
Q 2616 3928 2228 3928 
Q 1841 3928 1675 3570 
Q 1509 3213 1509 2338 
Q 1509 1453 1675 1090 
Q 1841 728 2228 728 
Q 2613 728 2778 1090 
Q 2944 1453 2944 2338 
z
M 4147 2328 
Q 4147 1169 3647 539 
Q 3147 -91 2228 -91 
Q 1306 -91 806 539 
Q 306 1169 306 2328 
Q 306 3491 806 4120 
Q 1306 4750 2228 4750 
Q 3147 4750 3647 4120 
Q 4147 3491 4147 2328 
z
" transform="scale(0.015625)"/>
     </defs>
     <use xlink:href="#DejaVuSans-Bold-34"/>
     <use xlink:href="#DejaVuSans-Bold-33" transform="translate(69.580078 0)"/>
     <use xlink:href="#DejaVuSans-Bold-30" transform="translate(139.160156 0)"/>
    </g>
   </g>
   <g id="text_23">
    <!-- 186 -->
    <g style="fill: #d29922" transform="translate(817.012614 354.34493) scale(0.09 -0.09)">
     <defs>
      <path id="DejaVuSans-Bold-31" d="M 750 831 
L 1813 831 
L 1813 3847 
L 722 3622 
L 722 4441 
L 1806 4666 
L 2950 4666 
L 2950 831 
L 4013 831 
L 4013 0 
L 750 0 
L 750 831 
z
" transform="scale(0.015625)"/>
      <path id="DejaVuSans-Bold-38" d="M 2228 2088 
Q 1891 2088 1709 1903 
Q 1528 1719 1528 1375 
Q 1528 1031 1709 848 
Q 1891 666 2228 666 
Q 2563 666 2741 848 
Q 2919 1031 2919 1375 
Q 2919 1722 2741 1905 
Q 2563 2088 2228 2088 
z
M 1350 2484 
Q 925 2613 709 2878 
Q 494 3144 494 3541 
Q 494 4131 934 4440 
Q 1375 4750 2228 4750 
Q 3075 4750 3515 4442 
Q 3956 4134 3956 3541 
Q 3956 3144 3739 2878 
Q 3522 2613 3097 2484 
Q 3572 2353 3814 2058 
Q 4056 1763 4056 1313 
Q 4056 619 3595 264 
Q 3134 -91 2228 -91 
Q 1319 -91 855 264 
Q 391 619 391 1313 
Q 391 1763 633 2058 
Q 875 2353 1350 2484 
z
M 1631 3419 
Q 1631 3141 1786 2991 
Q 1941 2841 2228 2841 
Q 2509 2841 2662 2991 
Q 2816 3141 2816 3419 
Q 2816 3697 2662 3845 
Q 2509 3994 2228 3994 
Q 1941 3994 1786 3844 
Q 1631 3694 1631 3419 
z
" transform="scale(0.015625)"/>
      <path id="DejaVuSans-Bold-36" d="M 2316 2303 
Q 2000 2303 1842 2098 
Q 1684 1894 1684 1484 
Q 1684 1075 1842 870 
Q 2000 666 2316 666 
Q 2634 666 2792 870 
Q 2950 1075 2950 1484 
Q 2950 1894 2792 2098 
Q 2634 2303 2316 2303 
z
M 3803 4544 
L 3803 3681 
Q 3506 3822 3243 3889 
Q 2981 3956 2731 3956 
Q 2194 3956 1894 3657 
Q 1594 3359 1544 2772 
Q 1750 2925 1990 3001 
Q 2231 3078 2516 3078 
Q 3231 3078 3670 2659 
Q 4109 2241 4109 1563 
Q 4109 813 3618 361 
Q 3128 -91 2303 -91 
Q 1394 -91 895 523 
Q 397 1138 397 2266 
Q 397 3422 980 4083 
Q 1563 4744 2578 4744 
Q 2900 4744 3203 4694 
Q 3506 4644 3803 4544 
z
" transform="scale(0.015625)"/>
     </defs>
     <use xlink:href="#DejaVuSans-Bold-31"/>
     <use xlink:href="#DejaVuSans-Bold-38" transform="translate(69.580078 0)"/>
     <use xlink:href="#DejaVuSans-Bold-36" transform="translate(139.160156 0)"/>
    </g>
   </g>
   <g id="text_24">
    <!-- 311 -->
    <g style="fill: #f85149" transform="translate(817.012614 284.871597) scale(0.09 -0.09)">
     <use xlink:href="#DejaVuSans-Bold-33"/>
     <use xlink:href="#DejaVuSans-Bold-31" transform="translate(69.580078 0)"/>
     <use xlink:href="#DejaVuSans-Bold-31" transform="translate(139.160156 0)"/>
    </g>
   </g>
   <g id="text_25">
    <!-- 673 -->
    <g style="fill: #9467bd" transform="translate(817.012614 83.676823) scale(0.09 -0.09)">
     <defs>
      <path id="DejaVuSans-Bold-37" d="M 428 4666 
L 3944 4666 
L 3944 3988 
L 2125 0 
L 953 0 
L 2675 3781 
L 428 3781 
L 428 4666 
z
" transform="scale(0.015625)"/>
     </defs>
     <use xlink:href="#DejaVuSans-Bold-36"/>
     <use xlink:href="#DejaVuSans-Bold-37" transform="translate(69.580078 0)"/>
     <use xlink:href="#DejaVuSans-Bold-33" transform="translate(139.160156 0)"/>
    </g>
   </g>
   <g id="text_26">
    <!-- Erdős Problems Progress -->
    <g style="fill: #c9d1d9" transform="translate(349.588281 18.397812) scale(0.14 -0.14)">
     <defs>
      <path id="DejaVuSans-Bold-45" d="M 588 4666 
L 3834 4666 
L 3834 3756 
L 1791 3756 
L 1791 2888 
L 3713 2888 
L 3713 1978 
L 1791 1978 
L 1791 909 
L 3903 909 
L 3903 0 
L 588 0 
L 588 4666 
z
" transform="scale(0.015625)"/>
      <path id="DejaVuSans-Bold-72" d="M 3138 2547 
Q 2991 2616 2845 2648 
Q 2700 2681 2553 2681 
Q 2122 2681 1889 2404 
Q 1656 2128 1656 1613 
L 1656 0 
L 538 0 
L 538 3500 
L 1656 3500 
L 1656 2925 
Q 1872 3269 2151 3426 
Q 2431 3584 2822 3584 
Q 2878 3584 2943 3579 
Q 3009 3575 3134 3559 
L 3138 2547 
z
" transform="scale(0.015625)"/>
      <path id="DejaVuSans-Bold-64" d="M 2919 2988 
L 2919 4863 
L 4044 4863 
L 4044 0 
L 2919 0 
L 2919 506 
Q 2688 197 2409 53 
Q 2131 -91 1766 -91 
Q 1119 -91 703 423 
Q 288 938 288 1747 
Q 288 2556 703 3070 
Q 1119 3584 1766 3584 
Q 2128 3584 2408 3439 
Q 2688 3294 2919 2988 
z
M 2181 722 
Q 2541 722 2730 984 
Q 2919 1247 2919 1747 
Q 2919 2247 2730 2509 
Q 2541 2772 2181 2772 
Q 1825 2772 1636 2509 
Q 1447 2247 1447 1747 
Q 1447 1247 1636 984 
Q 1825 722 2181 722 
z
" transform="scale(0.015625)"/>
      <path id="DejaVuSans-Bold-151" d="M 1881 5119 
L 2560 5119 
L 1785 3944 
L 1275 3944 
L 1881 5119 
z
M 3016 5119 
L 3738 5119 
L 2888 3944 
L 2344 3944 
L 3016 5119 
z
M 2203 2784 
Q 1831 2784 1636 2517 
Q 1441 2250 1441 1747 
Q 1441 1244 1636 976 
Q 1831 709 2203 709 
Q 2569 709 2762 976 
Q 2956 1244 2956 1747 
Q 2956 2250 2762 2517 
Q 2569 2784 2203 2784 
z
M 2203 3584 
Q 3106 3584 3614 3096 
Q 4122 2609 4122 1747 
Q 4122 884 3614 396 
Q 3106 -91 2203 -91 
Q 1297 -91 786 396 
Q 275 884 275 1747 
Q 275 2609 786 3096 
Q 1297 3584 2203 3584 
z
" transform="scale(0.015625)"/>
      <path id="DejaVuSans-Bold-73" d="M 3272 3391 
L 3272 2541 
Q 2913 2691 2578 2766 
Q 2244 2841 1947 2841 
Q 1628 2841 1473 2761 
Q 1319 2681 1319 2516 
Q 1319 2381 1436 2309 
Q 1553 2238 1856 2203 
L 2053 2175 
Q 2913 2066 3209 1816 
Q 3506 1566 3506 1031 
Q 3506 472 3093 190 
Q 2681 -91 1863 -91 
Q 1516 -91 1145 -36 
Q 775 19 384 128 
L 384 978 
Q 719 816 1070 734 
Q 1422 653 1784 653 
Q 2113 653 2278 743 
Q 2444 834 2444 1013 
Q 2444 1163 2330 1236 
Q 2216 1309 1875 1350 
L 1678 1375 
Q 931 1469 631 1722 
Q 331 1975 331 2491 
Q 331 3047 712 3315 
Q 1094 3584 1881 3584 
Q 2191 3584 2531 3537 
Q 2872 3491 3272 3391 
z
" transform="scale(0.015625)"/>
      <path id="DejaVuSans-Bold-20" transform="scale(0.015625)"/>
      <path id="DejaVuSans-Bold-50" d="M 588 4666 
L 2584 4666 
Q 3475 4666 3951 4270 
Q 4428 3875 4428 3144 
Q 4428 2409 3951 2014 
Q 3475 1619 2584 1619 
L 1791 1619 
L 1791 0 
L 588 0 
L 588 4666 
z
M 1791 3794 
L 1791 2491 
L 2456 2491 
Q 2806 2491 2997 2661 
Q 3188 2831 3188 3144 
Q 3188 3456 2997 3625 
Q 2806 3794 2456 3794 
L 1791 3794 
z
" transform="scale(0.015625)"/>
      <path id="DejaVuSans-Bold-6f" d="M 2203 2784 
Q 1831 2784 1636 2517 
Q 1441 2250 1441 1747 
Q 1441 1244 1636 976 
Q 1831 709 2203 709 
Q 2569 709 2762 976 
Q 2956 1244 2956 1747 
Q 2956 2250 2762 2517 
Q 2569 2784 2203 2784 
z
M 2203 3584 
Q 3106 3584 3614 3096 
Q 4122 2609 4122 1747 
Q 4122 884 3614 396 
Q 3106 -91 2203 -91 
Q 1297 -91 786 396 
Q 275 884 275 1747 
Q 275 2609 786 3096 
Q 1297 3584 2203 3584 
z
" transform="scale(0.015625)"/>
      <path id="DejaVuSans-Bold-62" d="M 2400 722 
Q 2759 722 2948 984 
Q 3138 1247 3138 1747 
Q 3138 2247 2948 2509 
Q 2759 2772 2400 2772 
Q 2041 2772 1848 2508 
Q 1656 2244 1656 1747 
Q 1656 1250 1848 986 
Q 2041 722 2400 722 
z
M 1656 2988 
Q 1888 3294 2169 3439 
Q 2450 3584 2816 3584 
Q 3463 3584 3878 3070 
Q 4294 2556 4294 1747 
Q 4294 938 3878 423 
Q 3463 -91 2816 -91 
Q 2450 -91 2169 54 
Q 1888 200 1656 506 
L 1656 0 
L 538 0 
L 538 4863 
L 1656 4863 
L 1656 2988 
z
" transform="scale(0.015625)"/>
      <path id="DejaVuSans-Bold-6c" d="M 538 4863 
L 1656 4863 
L 1656 0 
L 538 0 
L 538 4863 
z
" transform="scale(0.015625)"/>
      <path id="DejaVuSans-Bold-65" d="M 4031 1759 
L 4031 1441 
L 1416 1441 
Q 1456 1047 1700 850 
Q 1944 653 2381 653 
Q 2734 653 3104 758 
Q 3475 863 3866 1075 
L 3866 213 
Q 3469 63 3072 -14 
Q 2675 -91 2278 -91 
Q 1328 -91 801 392 
Q 275 875 275 1747 
Q 275 2603 792 3093 
Q 1309 3584 2216 3584 
Q 3041 3584 3536 3087 
Q 4031 2591 4031 1759 
z
M 2881 2131 
Q 2881 2450 2695 2645 
Q 2509 2841 2209 2841 
Q 1884 2841 1681 2658 
Q 1478 2475 1428 2131 
L 2881 2131 
z
" transform="scale(0.015625)"/>
      <path id="DejaVuSans-Bold-6d" d="M 3781 2919 
Q 3994 3244 4286 3414 
Q 4578 3584 4928 3584 
Q 5531 3584 5847 3212 
Q 6163 2841 6163 2131 
L 6163 0 
L 5038 0 
L 5038 1825 
Q 5041 1866 5042 1909 
Q 5044 1953 5044 2034 
Q 5044 2406 4934 2573 
Q 4825 2741 4581 2741 
Q 4263 2741 4089 2478 
Q 3916 2216 3909 1719 
L 3909 0 
L 2784 0 
L 2784 1825 
Q 2784 2406 2684 2573 
Q 2584 2741 2328 2741 
Q 2006 2741 1831 2477 
Q 1656 2213 1656 1722 
L 1656 0 
L 531 0 
L 531 3500 
L 1656 3500 
L 1656 2988 
Q 1863 3284 2130 3434 
Q 2397 3584 2719 3584 
Q 3081 3584 3359 3409 
Q 3638 3234 3781 2919 
z
" transform="scale(0.015625)"/>
      <path id="DejaVuSans-Bold-67" d="M 2919 594 
Q 2688 288 2409 144 
Q 2131 0 1766 0 
Q 1125 0 706 504 
Q 288 1009 288 1791 
Q 288 2575 706 3076 
Q 1125 3578 1766 3578 
Q 2131 3578 2409 3434 
Q 2688 3291 2919 2981 
L 2919 3500 
L 4044 3500 
L 4044 353 
Q 4044 -491 3511 -936 
Q 2978 -1381 1966 -1381 
Q 1638 -1381 1331 -1331 
Q 1025 -1281 716 -1178 
L 716 -306 
Q 1009 -475 1290 -558 
Q 1572 -641 1856 -641 
Q 2406 -641 2662 -400 
Q 2919 -159 2919 353 
L 2919 594 
z
M 2181 2772 
Q 1834 2772 1640 2515 
Q 1447 2259 1447 1791 
Q 1447 1309 1634 1061 
Q 1822 813 2181 813 
Q 2531 813 2725 1069 
Q 2919 1325 2919 1791 
Q 2919 2259 2725 2515 
Q 2531 2772 2181 2772 
z
" transform="scale(0.015625)"/>
     </defs>
     <use xlink:href="#DejaVuSans-Bold-45"/>
     <use xlink:href="#DejaVuSans-Bold-72" transform="translate(68.310547 0)"/>
     <use xlink:href="#DejaVuSans-Bold-64" transform="translate(117.626953 0)"/>
     <use xlink:href="#DejaVuSans-Bold-151" transform="translate(189.208984 0)"/>
     <use xlink:href="#DejaVuSans-Bold-73" transform="translate(257.910156 0)"/>
     <use xlink:href="#DejaVuSans-Bold-20" transform="translate(317.431641 0)"/>
     <use xlink:href="#DejaVuSans-Bold-50" transform="translate(352.246094 0)"/>
     <use xlink:href="#DejaVuSans-Bold-72" transform="translate(425.537109 0)"/>
     <use xlink:href="#DejaVuSans-Bold-6f" transform="translate(474.853516 0)"/>
     <use xlink:href="#DejaVuSans-Bold-62" transform="translate(543.554688 0)"/>
     <use xlink:href="#DejaVuSans-Bold-6c" transform="translate(615.136719 0)"/>
     <use xlink:href="#DejaVuSans-Bold-65" transform="translate(649.414062 0)"/>
     <use xlink:href="#DejaVuSans-Bold-6d" transform="translate(717.236328 0)"/>
     <use xlink:href="#DejaVuSans-Bold-73" transform="translate(821.435547 0)"/>
     <use xlink:href="#DejaVuSans-Bold-20" transform="translate(880.957031 0)"/>
     <use xlink:href="#DejaVuSans-Bold-50" transform="translate(915.771484 0)"/>
     <use xlink:href="#DejaVuSans-Bold-72" transform="translate(989.0625 0)"/>
     <use xlink:href="#DejaVuSans-Bold-6f" transform="translate(1038.378906 0)"/>
     <use xlink:href="#DejaVuSans-Bold-67" transform="translate(1107.080078 0)"/>
     <use xlink:href="#DejaVuSans-Bold-72" transform="translate(1178.662109 0)"/>
     <use xlink:href="#DejaVuSans-Bold-65" transform="translate(1227.978516 0)"/>
     <use xlink:href="#DejaVuSans-Bold-73" transform="translate(1295.800781 0)"/>
     <use xlink:href="#DejaVuSans-Bold-73" transform="translate(1355.322266 0)"/>
    </g>
   </g>
   <g id="legend_1">
    <g id="patch_7">
     <path d="M 55.90125 119.788437 
L 213.771563 119.788437 
Q 215.771563 119.788437 215.771563 117.788437 
L 215.771563 45.397812 
Q 215.771563 43.397812 213.771563 43.397812 
L 55.90125 43.397812 
Q 53.90125 43.397812 53.90125 45.397812 
L 53.90125 117.788437 
Q 53.90125 119.788437 55.90125 119.788437 
z
" style="fill: #161b22; opacity: 0.8; stroke: #30363d; stroke-linejoin: miter"/>
    </g>
    <g id="line2d_42">
     <path d="M 57.90125 51.49625 
L 67.90125 51.49625 
L 77.90125 51.49625 
" style="fill: none; stroke: #3fb950; stroke-width: 2; stroke-linecap: square"/>
    </g>
    <g id="text_27">
     <!-- Solved -->
     <g style="fill: #c9d1d9" transform="translate(85.90125 54.99625) scale(0.1 -0.1)">
      <defs>
       <path id="DejaVuSans-6c" d="M 603 4863 
L 1178 4863 
L 1178 0 
L 603 0 
L 603 4863 
z
" transform="scale(0.015625)"/>
       <path id="DejaVuSans-64" d="M 2906 2969 
L 2906 4863 
L 3481 4863 
L 3481 0 
L 2906 0 
L 2906 525 
Q 2725 213 2448 61 
Q 2172 -91 1784 -91 
Q 1150 -91 751 415 
Q 353 922 353 1747 
Q 353 2572 751 3078 
Q 1150 3584 1784 3584 
Q 2172 3584 2448 3432 
Q 2725 3281 2906 2969 
z
M 947 1747 
Q 947 1113 1208 752 
Q 1469 391 1925 391 
Q 2381 391 2643 752 
Q 2906 1113 2906 1747 
Q 2906 2381 2643 2742 
Q 2381 3103 1925 3103 
Q 1469 3103 1208 2742 
Q 947 2381 947 1747 
z
" transform="scale(0.015625)"/>
      </defs>
      <use xlink:href="#DejaVuSans-53"/>
      <use xlink:href="#DejaVuSans-6f" transform="translate(63.476562 0)"/>
      <use xlink:href="#DejaVuSans-6c" transform="translate(124.658203 0)"/>
      <use xlink:href="#DejaVuSans-76" transform="translate(152.441406 0)"/>
      <use xlink:href="#DejaVuSans-65" transform="translate(211.621094 0)"/>
      <use xlink:href="#DejaVuSans-64" transform="translate(273.144531 0)"/>
     </g>
    </g>
    <g id="line2d_43">
     <path d="M 57.90125 66.174375 
L 67.90125 66.174375 
L 77.90125 66.174375 
" style="fill: none; stroke: #58a6ff; stroke-width: 2; stroke-linecap: square"/>
    </g>
    <g id="text_28">
     <!-- Lean Formalized Problem -->
     <g style="fill: #c9d1d9" transform="translate(85.90125 69.674375) scale(0.1 -0.1)">
      <defs>
       <path id="DejaVuSans-4c" d="M 628 4666 
L 1259 4666 
L 1259 531 
L 3531 531 
L 3531 0 
L 628 0 
L 628 4666 
z
" transform="scale(0.015625)"/>
       <path id="DejaVuSans-20" transform="scale(0.015625)"/>
       <path id="DejaVuSans-6d" d="M 3328 2828 
Q 3544 3216 3844 3400 
Q 4144 3584 4550 3584 
Q 5097 3584 5394 3201 
Q 5691 2819 5691 2113 
L 5691 0 
L 5113 0 
L 5113 2094 
Q 5113 2597 4934 2840 
Q 4756 3084 4391 3084 
Q 3944 3084 3684 2787 
Q 3425 2491 3425 1978 
L 3425 0 
L 2847 0 
L 2847 2094 
Q 2847 2600 2669 2842 
Q 2491 3084 2119 3084 
Q 1678 3084 1418 2786 
Q 1159 2488 1159 1978 
L 1159 0 
L 581 0 
L 581 3500 
L 1159 3500 
L 1159 2956 
Q 1356 3278 1631 3431 
Q 1906 3584 2284 3584 
Q 2666 3584 2933 3390 
Q 3200 3197 3328 2828 
z
" transform="scale(0.015625)"/>
       <path id="DejaVuSans-69" d="M 603 3500 
L 1178 3500 
L 1178 0 
L 603 0 
L 603 3500 
z
M 603 4863 
L 1178 4863 
L 1178 4134 
L 603 4134 
L 603 4863 
z
" transform="scale(0.015625)"/>
       <path id="DejaVuSans-7a" d="M 353 3500 
L 3084 3500 
L 3084 2975 
L 922 459 
L 3084 459 
L 3084 0 
L 275 0 
L 275 525 
L 2438 3041 
L 353 3041 
L 353 3500 
z
" transform="scale(0.015625)"/>
       <path id="DejaVuSans-50" d="M 1259 4147 
L 1259 2394 
L 2053 2394 
Q 2494 2394 2734 2622 
Q 2975 2850 2975 3272 
Q 2975 3691 2734 3919 
Q 2494 4147 2053 4147 
L 1259 4147 
z
M 628 4666 
L 2053 4666 
Q 2838 4666 3239 4311 
Q 3641 3956 3641 3272 
Q 3641 2581 3239 2228 
Q 2838 1875 2053 1875 
L 1259 1875 
L 1259 0 
L 628 0 
L 628 4666 
z
" transform="scale(0.015625)"/>
      </defs>
      <use xlink:href="#DejaVuSans-4c"/>
      <use xlink:href="#DejaVuSans-65" transform="translate(53.962891 0)"/>
      <use xlink:href="#DejaVuSans-61" transform="translate(115.486328 0)"/>
      <use xlink:href="#DejaVuSans-6e" transform="translate(176.765625 0)"/>
      <use xlink:href="#DejaVuSans-20" transform="translate(240.144531 0)"/>
      <use xlink:href="#DejaVuSans-46" transform="translate(271.931641 0)"/>
      <use xlink:href="#DejaVuSans-6f" transform="translate(325.826172 0)"/>
      <use xlink:href="#DejaVuSans-72" transform="translate(387.007812 0)"/>
      <use xlink:href="#DejaVuSans-6d" transform="translate(426.371094 0)"/>
      <use xlink:href="#DejaVuSans-61" transform="translate(523.783203 0)"/>
      <use xlink:href="#DejaVuSans-6c" transform="translate(585.0625 0)"/>
      <use xlink:href="#DejaVuSans-69" transform="translate(612.845703 0)"/>
      <use xlink:href="#DejaVuSans-7a" transform="translate(640.628906 0)"/>
      <use xlink:href="#DejaVuSans-65" transform="translate(693.119141 0)"/>
      <use xlink:href="#DejaVuSans-64" transform="translate(754.642578 0)"/>
      <use xlink:href="#DejaVuSans-20" transform="translate(818.119141 0)"/>
      <use xlink:href="#DejaVuSans-50" transform="translate(849.90625 0)"/>
      <use xlink:href="#DejaVuSans-72" transform="translate(908.458984 0)"/>
      <use xlink:href="#DejaVuSans-6f" transform="translate(947.322266 0)"/>
      <use xlink:href="#DejaVuSans-62" transform="translate(1008.503906 0)"/>
      <use xlink:href="#DejaVuSans-6c" transform="translate(1071.980469 0)"/>
      <use xlink:href="#DejaVuSans-65" transform="translate(1099.763672 0)"/>
      <use xlink:href="#DejaVuSans-6d" transform="translate(1161.287109 0)"/>
     </g>
    </g>
    <g id="line2d_44">
     <path d="M 57.90125 80.8525 
L 67.90125 80.8525 
L 77.90125 80.8525 
" style="fill: none; stroke: #d29922; stroke-width: 2; stroke-linecap: square"/>
    </g>
    <g id="text_29">
     <!-- Lean Formalized Solution -->
     <g style="fill: #c9d1d9" transform="translate(85.90125 84.3525) scale(0.1 -0.1)">
      <use xlink:href="#DejaVuSans-4c"/>
      <use xlink:href="#DejaVuSans-65" transform="translate(53.962891 0)"/>
      <use xlink:href="#DejaVuSans-61" transform="translate(115.486328 0)"/>
      <use xlink:href="#DejaVuSans-6e" transform="translate(176.765625 0)"/>
      <use xlink:href="#DejaVuSans-20" transform="translate(240.144531 0)"/>
      <use xlink:href="#DejaVuSans-46" transform="translate(271.931641 0)"/>
      <use xlink:href="#DejaVuSans-6f" transform="translate(325.826172 0)"/>
      <use xlink:href="#DejaVuSans-72" transform="translate(387.007812 0)"/>
      <use xlink:href="#DejaVuSans-6d" transform="translate(426.371094 0)"/>
      <use xlink:href="#DejaVuSans-61" transform="translate(523.783203 0)"/>
      <use xlink:href="#DejaVuSans-6c" transform="translate(585.0625 0)"/>
      <use xlink:href="#DejaVuSans-69" transform="translate(612.845703 0)"/>
      <use xlink:href="#DejaVuSans-7a" transform="translate(640.628906 0)"/>
      <use xlink:href="#DejaVuSans-65" transform="translate(693.119141 0)"/>
      <use xlink:href="#DejaVuSans-64" transform="translate(754.642578 0)"/>
      <use xlink:href="#DejaVuSans-20" transform="translate(818.119141 0)"/>
      <use xlink:href="#DejaVuSans-53" transform="translate(849.90625 0)"/>
      <use xlink:href="#DejaVuSans-6f" transform="translate(913.382812 0)"/>
      <use xlink:href="#DejaVuSans-6c" transform="translate(974.564453 0)"/>
      <use xlink:href="#DejaVuSans-75" transform="translate(1002.347656 0)"/>
      <use xlink:href="#DejaVuSans-74" transform="translate(1065.726562 0)"/>
      <use xlink:href="#DejaVuSans-69" transform="translate(1104.935547 0)"/>
      <use xlink:href="#DejaVuSans-6f" transform="translate(1132.71875 0)"/>
      <use xlink:href="#DejaVuSans-6e" transform="translate(1193.900391 0)"/>
     </g>
    </g>
    <g id="line2d_45">
     <path d="M 57.90125 95.530625 
L 67.90125 95.530625 
L 77.90125 95.530625 
" style="fill: none; stroke: #f85149; stroke-width: 2; stroke-linecap: square"/>
    </g>
    <g id="text_30">
     <!-- OEIS Linked -->
     <g style="fill: #c9d1d9" transform="translate(85.90125 99.030625) scale(0.1 -0.1)">
      <defs>
       <path id="DejaVuSans-45" d="M 628 4666 
L 3578 4666 
L 3578 4134 
L 1259 4134 
L 1259 2753 
L 3481 2753 
L 3481 2222 
L 1259 2222 
L 1259 531 
L 3634 531 
L 3634 0 
L 628 0 
L 628 4666 
z
" transform="scale(0.015625)"/>
       <path id="DejaVuSans-49" d="M 628 4666 
L 1259 4666 
L 1259 0 
L 628 0 
L 628 4666 
z
" transform="scale(0.015625)"/>
       <path id="DejaVuSans-6b" d="M 581 4863 
L 1159 4863 
L 1159 1991 
L 2875 3500 
L 3609 3500 
L 1753 1863 
L 3688 0 
L 2938 0 
L 1159 1709 
L 1159 0 
L 581 0 
L 581 4863 
z
" transform="scale(0.015625)"/>
      </defs>
      <use xlink:href="#DejaVuSans-4f"/>
      <use xlink:href="#DejaVuSans-45" transform="translate(78.710938 0)"/>
      <use xlink:href="#DejaVuSans-49" transform="translate(141.894531 0)"/>
      <use xlink:href="#DejaVuSans-53" transform="translate(171.386719 0)"/>
      <use xlink:href="#DejaVuSans-20" transform="translate(234.863281 0)"/>
      <use xlink:href="#DejaVuSans-4c" transform="translate(266.650391 0)"/>
      <use xlink:href="#DejaVuSans-69" transform="translate(322.363281 0)"/>
      <use xlink:href="#DejaVuSans-6e" transform="translate(350.146484 0)"/>
      <use xlink:href="#DejaVuSans-6b" transform="translate(413.525391 0)"/>
      <use xlink:href="#DejaVuSans-65" transform="translate(467.810547 0)"/>
      <use xlink:href="#DejaVuSans-64" transform="translate(529.333984 0)"/>
     </g>
    </g>
    <g id="line2d_46">
     <path d="M 57.90125 110.20875 
L 67.90125 110.20875 
L 77.90125 110.20875 
" style="fill: none; stroke: #9467bd; stroke-width: 2; stroke-linecap: square"/>
    </g>
    <g id="text_31">
     <!-- Open Problems -->
     <g style="fill: #c9d1d9" transform="translate(85.90125 113.70875) scale(0.1 -0.1)">
      <defs>
       <path id="DejaVuSans-73" d="M 2834 3397 
L 2834 2853 
Q 2591 2978 2328 3040 
Q 2066 3103 1784 3103 
Q 1356 3103 1142 2972 
Q 928 2841 928 2578 
Q 928 2378 1081 2264 
Q 1234 2150 1697 2047 
L 1894 2003 
Q 2506 1872 2764 1633 
Q 3022 1394 3022 966 
Q 3022 478 2636 193 
Q 2250 -91 1575 -91 
Q 1294 -91 989 -36 
Q 684 19 347 128 
L 347 722 
Q 666 556 975 473 
Q 1284 391 1588 391 
Q 1994 391 2212 530 
Q 2431 669 2431 922 
Q 2431 1156 2273 1281 
Q 2116 1406 1581 1522 
L 1381 1569 
Q 847 1681 609 1914 
Q 372 2147 372 2553 
Q 372 3047 722 3315 
Q 1072 3584 1716 3584 
Q 2034 3584 2315 3537 
Q 2597 3491 2834 3397 
z
" transform="scale(0.015625)"/>
      </defs>
      <use xlink:href="#DejaVuSans-4f"/>
      <use xlink:href="#DejaVuSans-70" transform="translate(78.710938 0)"/>
      <use xlink:href="#DejaVuSans-65" transform="translate(142.1875 0)"/>
      <use xlink:href="#DejaVuSans-6e" transform="translate(203.710938 0)"/>
      <use xlink:href="#DejaVuSans-20" transform="translate(267.089844 0)"/>
      <use xlink:href="#DejaVuSans-50" transform="translate(298.876953 0)"/>
      <use xlink:href="#DejaVuSans-72" transform="translate(357.429688 0)"/>
      <use xlink:href="#DejaVuSans-6f" transform="translate(396.292969 0)"/>
      <use xlink:href="#DejaVuSans-62" transform="translate(457.474609 0)"/>
      <use xlink:href="#DejaVuSans-6c" transform="translate(520.951172 0)"/>
      <use xlink:href="#DejaVuSans-65" transform="translate(548.734375 0)"/>
      <use xlink:href="#DejaVuSans-6d" transform="translate(610.257812 0)"/>
      <use xlink:href="#DejaVuSans-73" transform="translate(707.669922 0)"/>
     </g>
    </g>
   </g>
  </g>
 </g>
 <defs>
  <clipPath id="pa6ce9bd764">
   <rect x="48.90125" y="38.397812" width="799.45" height="416.84"/>
  </clipPath>
 </defs>
</svg>
