<?xml version="1.0" encoding="utf-8" standalone="no"?>
<!DOCTYPE svg PUBLIC "-//W3C//DTD SVG 1.1//EN"
  "http://www.w3.org/Graphics/SVG/1.1/DTD/svg11.dtd">
<svg xmlns:xlink="http://www.w3.org/1999/xlink" width="855.55125pt" height="494.729687pt" viewBox="0 0 855.55125 494.729687" xmlns="http://www.w3.org/2000/svg" version="1.1">
 <metadata>
  <rdf:RDF xmlns:dc="http://purl.org/dc/elements/1.1/" xmlns:cc="http://creativecommons.org/ns#" xmlns:rdf="http://www.w3.org/1999/02/22-rdf-syntax-ns#">
   <cc:Work>
    <dc:type rdf:resource="http://purl.org/dc/dcmitype/StillImage"/>
    <dc:date>2026-03-05T10:31:32.444111</dc:date>
    <dc:format>image/svg+xml</dc:format>
    <dc:creator>
     <cc:Agent>
      <dc:title>Matplotlib v3.10.7, https://matplotlib.org/</dc:title>
     </cc:Agent>
    </dc:creator>
   </cc:Work>
  </rdf:RDF>
 </metadata>
 <defs>
  <style type="text/css">*{stroke-linejoin: round; stroke-linecap: butt}</style>
 </defs>
 <g id="figure_1">
  <g id="patch_1">
   <path d="M 0 494.729687 
L 855.55125 494.729687 
L 855.55125 0 
L 0 0 
z
" style="fill: #0d1117"/>
  </g>
  <g id="axes_1">
   <g id="patch_2">
    <path d="M 48.90125 455.237812 
L 848.35125 455.237812 
L 848.35125 38.397812 
L 48.90125 38.397812 
z
" style="fill: #0d1117"/>
   </g>
   <g id="matplotlib.axis_1">
    <g id="xtick_1">
     <g id="line2d_1">
      <path d="M 86.383817 455.237812 
L 86.383817 38.397812 
" clip-path="url(#p6071247119)" style="fill: none; stroke: #30363d; stroke-opacity: 0.25; stroke-width: 0.5; stroke-linecap: square"/>
     </g>
     <g id="line2d_2">
      <defs>
       <path id="m0e5dddea1b" d="M 0 0 
L 0 3.5 
" style="stroke: #c9d1d9; stroke-width: 0.8"/>
      </defs>
      <g>
       <use xlink:href="#m0e5dddea1b" x="86.383817" y="455.237812" style="fill: #c9d1d9; stroke: #c9d1d9; stroke-width: 0.8"/>
      </g>
     </g>
     <g id="text_1">
      <!-- Sep -->
      <g style="fill: #c9d1d9" transform="translate(76.958817 469.83625) scale(0.1 -0.1)">
       <defs>
        <path id="DejaVuSans-53" d="M 3425 4513 
L 3425 3897 
Q 3066 4069 2747 4153 
Q 2428 4238 2131 4238 
Q 1616 4238 1336 4038 
Q 1056 3838 1056 3469 
Q 1056 3159 1242 3001 
Q 1428 2844 1947 2747 
L 2328 2669 
Q 3034 2534 3370 2195 
Q 3706 1856 3706 1288 
Q 3706 609 3251 259 
Q 2797 -91 1919 -91 
Q 1588 -91 1214 -16 
Q 841 59 441 206 
L 441 856 
Q 825 641 1194 531 
Q 1563 422 1919 422 
Q 2459 422 2753 634 
Q 3047 847 3047 1241 
Q 3047 1584 2836 1778 
Q 2625 1972 2144 2069 
L 1759 2144 
Q 1053 2284 737 2584 
Q 422 2884 422 3419 
Q 422 4038 858 4394 
Q 1294 4750 2059 4750 
Q 2388 4750 2728 4690 
Q 3069 4631 3425 4513 
z
" transform="scale(0.015625)"/>
        <path id="DejaVuSans-65" d="M 3597 1894 
L 3597 1613 
L 953 1613 
Q 991 1019 1311 708 
Q 1631 397 2203 397 
Q 2534 397 2845 478 
Q 3156 559 3463 722 
L 3463 178 
Q 3153 47 2828 -22 
Q 2503 -91 2169 -91 
Q 1331 -91 842 396 
Q 353 884 353 1716 
Q 353 2575 817 3079 
Q 1281 3584 2069 3584 
Q 2775 3584 3186 3129 
Q 3597 2675 3597 1894 
z
M 3022 2063 
Q 3016 2534 2758 2815 
Q 2500 3097 2075 3097 
Q 1594 3097 1305 2825 
Q 1016 2553 972 2059 
L 3022 2063 
z
" transform="scale(0.015625)"/>
        <path id="DejaVuSans-70" d="M 1159 525 
L 1159 -1331 
L 581 -1331 
L 581 3500 
L 1159 3500 
L 1159 2969 
Q 1341 3281 1617 3432 
Q 1894 3584 2278 3584 
Q 2916 3584 3314 3078 
Q 3713 2572 3713 1747 
Q 3713 922 3314 415 
Q 2916 -91 2278 -91 
Q 1894 -91 1617 61 
Q 1341 213 1159 525 
z
M 3116 1747 
Q 3116 2381 2855 2742 
Q 2594 3103 2138 3103 
Q 1681 3103 1420 2742 
Q 1159 2381 1159 1747 
Q 1159 1113 1420 752 
Q 1681 391 2138 391 
Q 2594 391 2855 752 
Q 3116 1113 3116 1747 
z
" transform="scale(0.015625)"/>
       </defs>
       <use xlink:href="#DejaVuSans-53"/>
       <use xlink:href="#DejaVuSans-65" transform="translate(63.476562 0)"/>
       <use xlink:href="#DejaVuSans-70" transform="translate(125 0)"/>
      </g>
     </g>
    </g>
    <g id="xtick_2">
     <g id="line2d_3">
      <path d="M 203.775061 455.237812 
L 203.775061 38.397812 
" clip-path="url(#p6071247119)" style="fill: none; stroke: #30363d; stroke-opacity: 0.25; stroke-width: 0.5; stroke-linecap: square"/>
     </g>
     <g id="line2d_4">
      <g>
       <use xlink:href="#m0e5dddea1b" x="203.775061" y="455.237812" style="fill: #c9d1d9; stroke: #c9d1d9; stroke-width: 0.8"/>
      </g>
     </g>
     <g id="text_2">
      <!-- Oct -->
      <g style="fill: #c9d1d9" transform="translate(195.129749 469.83625) scale(0.1 -0.1)">
       <defs>
        <path id="DejaVuSans-4f" d="M 2522 4238 
Q 1834 4238 1429 3725 
Q 1025 3213 1025 2328 
Q 1025 1447 1429 934 
Q 1834 422 2522 422 
Q 3209 422 3611 934 
Q 4013 1447 4013 2328 
Q 4013 3213 3611 3725 
Q 3209 4238 2522 4238 
z
M 2522 4750 
Q 3503 4750 4090 4092 
Q 4678 3434 4678 2328 
Q 4678 1225 4090 567 
Q 3503 -91 2522 -91 
Q 1538 -91 948 565 
Q 359 1222 359 2328 
Q 359 3434 948 4092 
Q 1538 4750 2522 4750 
z
" transform="scale(0.015625)"/>
        <path id="DejaVuSans-63" d="M 3122 3366 
L 3122 2828 
Q 2878 2963 2633 3030 
Q 2388 3097 2138 3097 
Q 1578 3097 1268 2742 
Q 959 2388 959 1747 
Q 959 1106 1268 751 
Q 1578 397 2138 397 
Q 2388 397 2633 464 
Q 2878 531 3122 666 
L 3122 134 
Q 2881 22 2623 -34 
Q 2366 -91 2075 -91 
Q 1284 -91 818 406 
Q 353 903 353 1747 
Q 353 2603 823 3093 
Q 1294 3584 2113 3584 
Q 2378 3584 2631 3529 
Q 2884 3475 3122 3366 
z
" transform="scale(0.015625)"/>
        <path id="DejaVuSans-74" d="M 1172 4494 
L 1172 3500 
L 2356 3500 
L 2356 3053 
L 1172 3053 
L 1172 1153 
Q 1172 725 1289 603 
Q 1406 481 1766 481 
L 2356 481 
L 2356 0 
L 1766 0 
Q 1100 0 847 248 
Q 594 497 594 1153 
L 594 3053 
L 172 3053 
L 172 3500 
L 594 3500 
L 594 4494 
L 1172 4494 
z
" transform="scale(0.015625)"/>
       </defs>
       <use xlink:href="#DejaVuSans-4f"/>
       <use xlink:href="#DejaVuSans-63" transform="translate(78.710938 0)"/>
       <use xlink:href="#DejaVuSans-74" transform="translate(133.691406 0)"/>
      </g>
     </g>
    </g>
    <g id="xtick_3">
     <g id="line2d_5">
      <path d="M 325.079347 455.237812 
L 325.079347 38.397812 
" clip-path="url(#p6071247119)" style="fill: none; stroke: #30363d; stroke-opacity: 0.25; stroke-width: 0.5; stroke-linecap: square"/>
     </g>
     <g id="line2d_6">
      <g>
       <use xlink:href="#m0e5dddea1b" x="325.079347" y="455.237812" style="fill: #c9d1d9; stroke: #c9d1d9; stroke-width: 0.8"/>
      </g>
     </g>
     <g id="text_3">
      <!-- Nov -->
      <g style="fill: #c9d1d9" transform="translate(315.319972 469.83625) scale(0.1 -0.1)">
       <defs>
        <path id="DejaVuSans-4e" d="M 628 4666 
L 1478 4666 
L 3547 763 
L 3547 4666 
L 4159 4666 
L 4159 0 
L 3309 0 
L 1241 3903 
L 1241 0 
L 628 0 
L 628 4666 
z
" transform="scale(0.015625)"/>
        <path id="DejaVuSans-6f" d="M 1959 3097 
Q 1497 3097 1228 2736 
Q 959 2375 959 1747 
Q 959 1119 1226 758 
Q 1494 397 1959 397 
Q 2419 397 2687 759 
Q 2956 1122 2956 1747 
Q 2956 2369 2687 2733 
Q 2419 3097 1959 3097 
z
M 1959 3584 
Q 2709 3584 3137 3096 
Q 3566 2609 3566 1747 
Q 3566 888 3137 398 
Q 2709 -91 1959 -91 
Q 1206 -91 779 398 
Q 353 888 353 1747 
Q 353 2609 779 3096 
Q 1206 3584 1959 3584 
z
" transform="scale(0.015625)"/>
        <path id="DejaVuSans-76" d="M 191 3500 
L 800 3500 
L 1894 563 
L 2988 3500 
L 3597 3500 
L 2284 0 
L 1503 0 
L 191 3500 
z
" transform="scale(0.015625)"/>
       </defs>
       <use xlink:href="#DejaVuSans-4e"/>
       <use xlink:href="#DejaVuSans-6f" transform="translate(74.804688 0)"/>
       <use xlink:href="#DejaVuSans-76" transform="translate(135.986328 0)"/>
      </g>
     </g>
    </g>
    <g id="xtick_4">
     <g id="line2d_7">
      <path d="M 442.470592 455.237812 
L 442.470592 38.397812 
" clip-path="url(#p6071247119)" style="fill: none; stroke: #30363d; stroke-opacity: 0.25; stroke-width: 0.5; stroke-linecap: square"/>
     </g>
     <g id="line2d_8">
      <g>
       <use xlink:href="#m0e5dddea1b" x="442.470592" y="455.237812" style="fill: #c9d1d9; stroke: #c9d1d9; stroke-width: 0.8"/>
      </g>
     </g>
     <g id="text_4">
      <!-- Dec -->
      <g style="fill: #c9d1d9" transform="translate(432.794811 469.83625) scale(0.1 -0.1)">
       <defs>
        <path id="DejaVuSans-44" d="M 1259 4147 
L 1259 519 
L 2022 519 
Q 2988 519 3436 956 
Q 3884 1394 3884 2338 
Q 3884 3275 3436 3711 
Q 2988 4147 2022 4147 
L 1259 4147 
z
M 628 4666 
L 1925 4666 
Q 3281 4666 3915 4102 
Q 4550 3538 4550 2338 
Q 4550 1131 3912 565 
Q 3275 0 1925 0 
L 628 0 
L 628 4666 
z
" transform="scale(0.015625)"/>
       </defs>
       <use xlink:href="#DejaVuSans-44"/>
       <use xlink:href="#DejaVuSans-65" transform="translate(77.001953 0)"/>
       <use xlink:href="#DejaVuSans-63" transform="translate(138.525391 0)"/>
      </g>
     </g>
    </g>
    <g id="xtick_5">
     <g id="line2d_9">
      <path d="M 563.774878 455.237812 
L 563.774878 38.397812 
" clip-path="url(#p6071247119)" style="fill: none; stroke: #30363d; stroke-opacity: 0.25; stroke-width: 0.5; stroke-linecap: square"/>
     </g>
     <g id="line2d_10">
      <g>
       <use xlink:href="#m0e5dddea1b" x="563.774878" y="455.237812" style="fill: #c9d1d9; stroke: #c9d1d9; stroke-width: 0.8"/>
      </g>
     </g>
     <g id="text_5">
      <!-- 2026 -->
      <g style="fill: #c9d1d9" transform="translate(551.049878 469.83625) scale(0.1 -0.1)">
       <defs>
        <path id="DejaVuSans-32" d="M 1228 531 
L 3431 531 
L 3431 0 
L 469 0 
L 469 531 
Q 828 903 1448 1529 
Q 2069 2156 2228 2338 
Q 2531 2678 2651 2914 
Q 2772 3150 2772 3378 
Q 2772 3750 2511 3984 
Q 2250 4219 1831 4219 
Q 1534 4219 1204 4116 
Q 875 4013 500 3803 
L 500 4441 
Q 881 4594 1212 4672 
Q 1544 4750 1819 4750 
Q 2544 4750 2975 4387 
Q 3406 4025 3406 3419 
Q 3406 3131 3298 2873 
Q 3191 2616 2906 2266 
Q 2828 2175 2409 1742 
Q 1991 1309 1228 531 
z
" transform="scale(0.015625)"/>
        <path id="DejaVuSans-30" d="M 2034 4250 
Q 1547 4250 1301 3770 
Q 1056 3291 1056 2328 
Q 1056 1369 1301 889 
Q 1547 409 2034 409 
Q 2525 409 2770 889 
Q 3016 1369 3016 2328 
Q 3016 3291 2770 3770 
Q 2525 4250 2034 4250 
z
M 2034 4750 
Q 2819 4750 3233 4129 
Q 3647 3509 3647 2328 
Q 3647 1150 3233 529 
Q 2819 -91 2034 -91 
Q 1250 -91 836 529 
Q 422 1150 422 2328 
Q 422 3509 836 4129 
Q 1250 4750 2034 4750 
z
" transform="scale(0.015625)"/>
        <path id="DejaVuSans-36" d="M 2113 2584 
Q 1688 2584 1439 2293 
Q 1191 2003 1191 1497 
Q 1191 994 1439 701 
Q 1688 409 2113 409 
Q 2538 409 2786 701 
Q 3034 994 3034 1497 
Q 3034 2003 2786 2293 
Q 2538 2584 2113 2584 
z
M 3366 4563 
L 3366 3988 
Q 3128 4100 2886 4159 
Q 2644 4219 2406 4219 
Q 1781 4219 1451 3797 
Q 1122 3375 1075 2522 
Q 1259 2794 1537 2939 
Q 1816 3084 2150 3084 
Q 2853 3084 3261 2657 
Q 3669 2231 3669 1497 
Q 3669 778 3244 343 
Q 2819 -91 2113 -91 
Q 1303 -91 875 529 
Q 447 1150 447 2328 
Q 447 3434 972 4092 
Q 1497 4750 2381 4750 
Q 2619 4750 2861 4703 
Q 3103 4656 3366 4563 
z
" transform="scale(0.015625)"/>
       </defs>
       <use xlink:href="#DejaVuSans-32"/>
       <use xlink:href="#DejaVuSans-30" transform="translate(63.623047 0)"/>
       <use xlink:href="#DejaVuSans-32" transform="translate(127.246094 0)"/>
       <use xlink:href="#DejaVuSans-36" transform="translate(190.869141 0)"/>
      </g>
     </g>
    </g>
    <g id="xtick_6">
     <g id="line2d_11">
      <path d="M 685.079164 455.237812 
L 685.079164 38.397812 
" clip-path="url(#p6071247119)" style="fill: none; stroke: #30363d; stroke-opacity: 0.25; stroke-width: 0.5; stroke-linecap: square"/>
     </g>
     <g id="line2d_12">
      <g>
       <use xlink:href="#m0e5dddea1b" x="685.079164" y="455.237812" style="fill: #c9d1d9; stroke: #c9d1d9; stroke-width: 0.8"/>
      </g>
     </g>
     <g id="text_6">
      <!-- Feb -->
      <g style="fill: #c9d1d9" transform="translate(676.227601 469.83625) scale(0.1 -0.1)">
       <defs>
        <path id="DejaVuSans-46" d="M 628 4666 
L 3309 4666 
L 3309 4134 
L 1259 4134 
L 1259 2759 
L 3109 2759 
L 3109 2228 
L 1259 2228 
L 1259 0 
L 628 0 
L 628 4666 
z
" transform="scale(0.015625)"/>
        <path id="DejaVuSans-62" d="M 3116 1747 
Q 3116 2381 2855 2742 
Q 2594 3103 2138 3103 
Q 1681 3103 1420 2742 
Q 1159 2381 1159 1747 
Q 1159 1113 1420 752 
Q 1681 391 2138 391 
Q 2594 391 2855 752 
Q 3116 1113 3116 1747 
z
M 1159 2969 
Q 1341 3281 1617 3432 
Q 1894 3584 2278 3584 
Q 2916 3584 3314 3078 
Q 3713 2572 3713 1747 
Q 3713 922 3314 415 
Q 2916 -91 2278 -91 
Q 1894 -91 1617 61 
Q 1341 213 1159 525 
L 1159 0 
L 581 0 
L 581 4863 
L 1159 4863 
L 1159 2969 
z
" transform="scale(0.015625)"/>
       </defs>
       <use xlink:href="#DejaVuSans-46"/>
       <use xlink:href="#DejaVuSans-65" transform="translate(52.019531 0)"/>
       <use xlink:href="#DejaVuSans-62" transform="translate(113.542969 0)"/>
      </g>
     </g>
    </g>
    <g id="xtick_7">
     <g id="line2d_13">
      <path d="M 794.644325 455.237812 
L 794.644325 38.397812 
" clip-path="url(#p6071247119)" style="fill: none; stroke: #30363d; stroke-opacity: 0.25; stroke-width: 0.5; stroke-linecap: square"/>
     </g>
     <g id="line2d_14">
      <g>
       <use xlink:href="#m0e5dddea1b" x="794.644325" y="455.237812" style="fill: #c9d1d9; stroke: #c9d1d9; stroke-width: 0.8"/>
      </g>
     </g>
     <g id="text_7">
      <!-- Mar -->
      <g style="fill: #c9d1d9" transform="translate(785.210732 469.83625) scale(0.1 -0.1)">
       <defs>
        <path id="DejaVuSans-4d" d="M 628 4666 
L 1569 4666 
L 2759 1491 
L 3956 4666 
L 4897 4666 
L 4897 0 
L 4281 0 
L 4281 4097 
L 3078 897 
L 2444 897 
L 1241 4097 
L 1241 0 
L 628 0 
L 628 4666 
z
" transform="scale(0.015625)"/>
        <path id="DejaVuSans-61" d="M 2194 1759 
Q 1497 1759 1228 1600 
Q 959 1441 959 1056 
Q 959 750 1161 570 
Q 1363 391 1709 391 
Q 2188 391 2477 730 
Q 2766 1069 2766 1631 
L 2766 1759 
L 2194 1759 
z
M 3341 1997 
L 3341 0 
L 2766 0 
L 2766 531 
Q 2569 213 2275 61 
Q 1981 -91 1556 -91 
Q 1019 -91 701 211 
Q 384 513 384 1019 
Q 384 1609 779 1909 
Q 1175 2209 1959 2209 
L 2766 2209 
L 2766 2266 
Q 2766 2663 2505 2880 
Q 2244 3097 1772 3097 
Q 1472 3097 1187 3025 
Q 903 2953 641 2809 
L 641 3341 
Q 956 3463 1253 3523 
Q 1550 3584 1831 3584 
Q 2591 3584 2966 3190 
Q 3341 2797 3341 1997 
z
" transform="scale(0.015625)"/>
        <path id="DejaVuSans-72" d="M 2631 2963 
Q 2534 3019 2420 3045 
Q 2306 3072 2169 3072 
Q 1681 3072 1420 2755 
Q 1159 2438 1159 1844 
L 1159 0 
L 581 0 
L 581 3500 
L 1159 3500 
L 1159 2956 
Q 1341 3275 1631 3429 
Q 1922 3584 2338 3584 
Q 2397 3584 2469 3576 
Q 2541 3569 2628 3553 
L 2631 2963 
z
" transform="scale(0.015625)"/>
       </defs>
       <use xlink:href="#DejaVuSans-4d"/>
       <use xlink:href="#DejaVuSans-61" transform="translate(86.279297 0)"/>
       <use xlink:href="#DejaVuSans-72" transform="translate(147.558594 0)"/>
      </g>
     </g>
    </g>
    <g id="text_8">
     <!-- Date -->
     <g style="fill: #c9d1d9" transform="translate(434.285312 485.034062) scale(0.12 -0.12)">
      <use xlink:href="#DejaVuSans-44"/>
      <use xlink:href="#DejaVuSans-61" transform="translate(77.001953 0)"/>
      <use xlink:href="#DejaVuSans-74" transform="translate(138.28125 0)"/>
      <use xlink:href="#DejaVuSans-65" transform="translate(177.490234 0)"/>
     </g>
    </g>
   </g>
   <g id="matplotlib.axis_2">
    <g id="ytick_1">
     <g id="line2d_15">
      <path d="M 48.90125 455.237812 
L 848.35125 455.237812 
" clip-path="url(#p6071247119)" style="fill: none; stroke: #30363d; stroke-opacity: 0.25; stroke-width: 0.5; stroke-linecap: square"/>
     </g>
     <g id="line2d_16">
      <defs>
       <path id="m350496a2b5" d="M 0 0 
L -3.5 0 
" style="stroke: #c9d1d9; stroke-width: 0.8"/>
      </defs>
      <g>
       <use xlink:href="#m350496a2b5" x="48.90125" y="455.237812" style="fill: #c9d1d9; stroke: #c9d1d9; stroke-width: 0.8"/>
      </g>
     </g>
     <g id="text_9">
      <!-- 0 -->
      <g style="fill: #c9d1d9" transform="translate(35.53875 459.037031) scale(0.1 -0.1)">
       <use xlink:href="#DejaVuSans-30"/>
      </g>
     </g>
    </g>
    <g id="ytick_2">
     <g id="line2d_17">
      <path d="M 48.90125 399.659146 
L 848.35125 399.659146 
" clip-path="url(#p6071247119)" style="fill: none; stroke: #30363d; stroke-opacity: 0.25; stroke-width: 0.5; stroke-linecap: square"/>
     </g>
     <g id="line2d_18">
      <g>
       <use xlink:href="#m350496a2b5" x="48.90125" y="399.659146" style="fill: #c9d1d9; stroke: #c9d1d9; stroke-width: 0.8"/>
      </g>
     </g>
     <g id="text_10">
      <!-- 100 -->
      <g style="fill: #c9d1d9" transform="translate(22.81375 403.458365) scale(0.1 -0.1)">
       <defs>
        <path id="DejaVuSans-31" d="M 794 531 
L 1825 531 
L 1825 4091 
L 703 3866 
L 703 4441 
L 1819 4666 
L 2450 4666 
L 2450 531 
L 3481 531 
L 3481 0 
L 794 0 
L 794 531 
z
" transform="scale(0.015625)"/>
       </defs>
       <use xlink:href="#DejaVuSans-31"/>
       <use xlink:href="#DejaVuSans-30" transform="translate(63.623047 0)"/>
       <use xlink:href="#DejaVuSans-30" transform="translate(127.246094 0)"/>
      </g>
     </g>
    </g>
    <g id="ytick_3">
     <g id="line2d_19">
      <path d="M 48.90125 344.080479 
L 848.35125 344.080479 
" clip-path="url(#p6071247119)" style="fill: none; stroke: #30363d; stroke-opacity: 0.25; stroke-width: 0.5; stroke-linecap: square"/>
     </g>
     <g id="line2d_20">
      <g>
       <use xlink:href="#m350496a2b5" x="48.90125" y="344.080479" style="fill: #c9d1d9; stroke: #c9d1d9; stroke-width: 0.8"/>
      </g>
     </g>
     <g id="text_11">
      <!-- 200 -->
      <g style="fill: #c9d1d9" transform="translate(22.81375 347.879698) scale(0.1 -0.1)">
       <use xlink:href="#DejaVuSans-32"/>
       <use xlink:href="#DejaVuSans-30" transform="translate(63.623047 0)"/>
       <use xlink:href="#DejaVuSans-30" transform="translate(127.246094 0)"/>
      </g>
     </g>
    </g>
    <g id="ytick_4">
     <g id="line2d_21">
      <path d="M 48.90125 288.501812 
L 848.35125 288.501812 
" clip-path="url(#p6071247119)" style="fill: none; stroke: #30363d; stroke-opacity: 0.25; stroke-width: 0.5; stroke-linecap: square"/>
     </g>
     <g id="line2d_22">
      <g>
       <use xlink:href="#m350496a2b5" x="48.90125" y="288.501812" style="fill: #c9d1d9; stroke: #c9d1d9; stroke-width: 0.8"/>
      </g>
     </g>
     <g id="text_12">
      <!-- 300 -->
      <g style="fill: #c9d1d9" transform="translate(22.81375 292.301031) scale(0.1 -0.1)">
       <defs>
        <path id="DejaVuSans-33" d="M 2597 2516 
Q 3050 2419 3304 2112 
Q 3559 1806 3559 1356 
Q 3559 666 3084 287 
Q 2609 -91 1734 -91 
Q 1441 -91 1130 -33 
Q 819 25 488 141 
L 488 750 
Q 750 597 1062 519 
Q 1375 441 1716 441 
Q 2309 441 2620 675 
Q 2931 909 2931 1356 
Q 2931 1769 2642 2001 
Q 2353 2234 1838 2234 
L 1294 2234 
L 1294 2753 
L 1863 2753 
Q 2328 2753 2575 2939 
Q 2822 3125 2822 3475 
Q 2822 3834 2567 4026 
Q 2313 4219 1838 4219 
Q 1578 4219 1281 4162 
Q 984 4106 628 3988 
L 628 4550 
Q 988 4650 1302 4700 
Q 1616 4750 1894 4750 
Q 2613 4750 3031 4423 
Q 3450 4097 3450 3541 
Q 3450 3153 3228 2886 
Q 3006 2619 2597 2516 
z
" transform="scale(0.015625)"/>
       </defs>
       <use xlink:href="#DejaVuSans-33"/>
       <use xlink:href="#DejaVuSans-30" transform="translate(63.623047 0)"/>
       <use xlink:href="#DejaVuSans-30" transform="translate(127.246094 0)"/>
      </g>
     </g>
    </g>
    <g id="ytick_5">
     <g id="line2d_23">
      <path d="M 48.90125 232.923146 
L 848.35125 232.923146 
" clip-path="url(#p6071247119)" style="fill: none; stroke: #30363d; stroke-opacity: 0.25; stroke-width: 0.5; stroke-linecap: square"/>
     </g>
     <g id="line2d_24">
      <g>
       <use xlink:href="#m350496a2b5" x="48.90125" y="232.923146" style="fill: #c9d1d9; stroke: #c9d1d9; stroke-width: 0.8"/>
      </g>
     </g>
     <g id="text_13">
      <!-- 400 -->
      <g style="fill: #c9d1d9" transform="translate(22.81375 236.722365) scale(0.1 -0.1)">
       <defs>
        <path id="DejaVuSans-34" d="M 2419 4116 
L 825 1625 
L 2419 1625 
L 2419 4116 
z
M 2253 4666 
L 3047 4666 
L 3047 1625 
L 3713 1625 
L 3713 1100 
L 3047 1100 
L 3047 0 
L 2419 0 
L 2419 1100 
L 313 1100 
L 313 1709 
L 2253 4666 
z
" transform="scale(0.015625)"/>
       </defs>
       <use xlink:href="#DejaVuSans-34"/>
       <use xlink:href="#DejaVuSans-30" transform="translate(63.623047 0)"/>
       <use xlink:href="#DejaVuSans-30" transform="translate(127.246094 0)"/>
      </g>
     </g>
    </g>
    <g id="ytick_6">
     <g id="line2d_25">
      <path d="M 48.90125 177.344479 
L 848.35125 177.344479 
" clip-path="url(#p6071247119)" style="fill: none; stroke: #30363d; stroke-opacity: 0.25; stroke-width: 0.5; stroke-linecap: square"/>
     </g>
     <g id="line2d_26">
      <g>
       <use xlink:href="#m350496a2b5" x="48.90125" y="177.344479" style="fill: #c9d1d9; stroke: #c9d1d9; stroke-width: 0.8"/>
      </g>
     </g>
     <g id="text_14">
      <!-- 500 -->
      <g style="fill: #c9d1d9" transform="translate(22.81375 181.143698) scale(0.1 -0.1)">
       <defs>
        <path id="DejaVuSans-35" d="M 691 4666 
L 3169 4666 
L 3169 4134 
L 1269 4134 
L 1269 2991 
Q 1406 3038 1543 3061 
Q 1681 3084 1819 3084 
Q 2600 3084 3056 2656 
Q 3513 2228 3513 1497 
Q 3513 744 3044 326 
Q 2575 -91 1722 -91 
Q 1428 -91 1123 -41 
Q 819 9 494 109 
L 494 744 
Q 775 591 1075 516 
Q 1375 441 1709 441 
Q 2250 441 2565 725 
Q 2881 1009 2881 1497 
Q 2881 1984 2565 2268 
Q 2250 2553 1709 2553 
Q 1456 2553 1204 2497 
Q 953 2441 691 2322 
L 691 4666 
z
" transform="scale(0.015625)"/>
       </defs>
       <use xlink:href="#DejaVuSans-35"/>
       <use xlink:href="#DejaVuSans-30" transform="translate(63.623047 0)"/>
       <use xlink:href="#DejaVuSans-30" transform="translate(127.246094 0)"/>
      </g>
     </g>
    </g>
    <g id="ytick_7">
     <g id="line2d_27">
      <path d="M 48.90125 121.765812 
L 848.35125 121.765812 
" clip-path="url(#p6071247119)" style="fill: none; stroke: #30363d; stroke-opacity: 0.25; stroke-width: 0.5; stroke-linecap: square"/>
     </g>
     <g id="line2d_28">
      <g>
       <use xlink:href="#m350496a2b5" x="48.90125" y="121.765812" style="fill: #c9d1d9; stroke: #c9d1d9; stroke-width: 0.8"/>
      </g>
     </g>
     <g id="text_15">
      <!-- 600 -->
      <g style="fill: #c9d1d9" transform="translate(22.81375 125.565031) scale(0.1 -0.1)">
       <use xlink:href="#DejaVuSans-36"/>
       <use xlink:href="#DejaVuSans-30" transform="translate(63.623047 0)"/>
       <use xlink:href="#DejaVuSans-30" transform="translate(127.246094 0)"/>
      </g>
     </g>
    </g>
    <g id="ytick_8">
     <g id="line2d_29">
      <path d="M 48.90125 66.187146 
L 848.35125 66.187146 
" clip-path="url(#p6071247119)" style="fill: none; stroke: #30363d; stroke-opacity: 0.25; stroke-width: 0.5; stroke-linecap: square"/>
     </g>
     <g id="line2d_30">
      <g>
       <use xlink:href="#m350496a2b5" x="48.90125" y="66.187146" style="fill: #c9d1d9; stroke: #c9d1d9; stroke-width: 0.8"/>
      </g>
     </g>
     <g id="text_16">
      <!-- 700 -->
      <g style="fill: #c9d1d9" transform="translate(22.81375 69.986365) scale(0.1 -0.1)">
       <defs>
        <path id="DejaVuSans-37" d="M 525 4666 
L 3525 4666 
L 3525 4397 
L 1831 0 
L 1172 0 
L 2766 4134 
L 525 4134 
L 525 4666 
z
" transform="scale(0.015625)"/>
       </defs>
       <use xlink:href="#DejaVuSans-37"/>
       <use xlink:href="#DejaVuSans-30" transform="translate(63.623047 0)"/>
       <use xlink:href="#DejaVuSans-30" transform="translate(127.246094 0)"/>
      </g>
     </g>
    </g>
    <g id="text_17">
     <!-- Count -->
     <g style="fill: #c9d1d9" transform="translate(16.318125 264.635937) rotate(-90) scale(0.12 -0.12)">
      <defs>
       <path id="DejaVuSans-43" d="M 4122 4306 
L 4122 3641 
Q 3803 3938 3442 4084 
Q 3081 4231 2675 4231 
Q 1875 4231 1450 3742 
Q 1025 3253 1025 2328 
Q 1025 1406 1450 917 
Q 1875 428 2675 428 
Q 3081 428 3442 575 
Q 3803 722 4122 1019 
L 4122 359 
Q 3791 134 3420 21 
Q 3050 -91 2638 -91 
Q 1578 -91 968 557 
Q 359 1206 359 2328 
Q 359 3453 968 4101 
Q 1578 4750 2638 4750 
Q 3056 4750 3426 4639 
Q 3797 4528 4122 4306 
z
" transform="scale(0.015625)"/>
       <path id="DejaVuSans-75" d="M 544 1381 
L 544 3500 
L 1119 3500 
L 1119 1403 
Q 1119 906 1312 657 
Q 1506 409 1894 409 
Q 2359 409 2629 706 
Q 2900 1003 2900 1516 
L 2900 3500 
L 3475 3500 
L 3475 0 
L 2900 0 
L 2900 538 
Q 2691 219 2414 64 
Q 2138 -91 1772 -91 
Q 1169 -91 856 284 
Q 544 659 544 1381 
z
M 1991 3584 
L 1991 3584 
z
" transform="scale(0.015625)"/>
       <path id="DejaVuSans-6e" d="M 3513 2113 
L 3513 0 
L 2938 0 
L 2938 2094 
Q 2938 2591 2744 2837 
Q 2550 3084 2163 3084 
Q 1697 3084 1428 2787 
Q 1159 2491 1159 1978 
L 1159 0 
L 581 0 
L 581 3500 
L 1159 3500 
L 1159 2956 
Q 1366 3272 1645 3428 
Q 1925 3584 2291 3584 
Q 2894 3584 3203 3211 
Q 3513 2838 3513 2113 
z
" transform="scale(0.015625)"/>
      </defs>
      <use xlink:href="#DejaVuSans-43"/>
      <use xlink:href="#DejaVuSans-6f" transform="translate(69.824219 0)"/>
      <use xlink:href="#DejaVuSans-75" transform="translate(131.005859 0)"/>
      <use xlink:href="#DejaVuSans-6e" transform="translate(194.384766 0)"/>
      <use xlink:href="#DejaVuSans-74" transform="translate(257.763672 0)"/>
     </g>
    </g>
   </g>
   <g id="line2d_31">
    <path d="M 85.239886 454.682026 
L 85.314841 454.682026 
L 85.362395 454.126239 
L 85.597585 454.126239 
L 85.703971 257.933546 
L 89.000392 257.933546 
L 89.014794 261.268266 
L 92.828379 261.268266 
L 93.012935 260.712479 
L 93.542373 260.712479 
L 93.971449 260.156692 
L 96.630189 259.600906 
L 96.682679 260.156692 
L 96.810125 259.600906 
L 105.043454 259.600906 
L 110.010481 260.712479 
L 110.74952 259.600906 
L 111.289148 259.600906 
L 112.649202 259.045119 
L 113.218224 256.821972 
L 114.326194 256.821972 
L 115.940777 260.712479 
L 116.045532 256.821972 
L 117.284481 256.266186 
L 120.50889 256.266186 
L 121.359388 255.710399 
L 122.622702 255.710399 
L 122.961335 254.598826 
L 130.835606 254.598826 
L 131.409926 253.487252 
L 131.439365 252.375679 
L 133.918938 252.375679 
L 137.575186 251.264106 
L 139.493165 251.264106 
L 139.522196 250.708319 
L 143.926904 250.708319 
L 145.019566 247.929386 
L 148.477581 247.929386 
L 148.501584 247.373599 
L 167.868196 247.373599 
L 171.488303 246.817812 
L 171.611898 247.373599 
L 175.366426 246.817812 
L 188.431863 246.817812 
L 194.764513 246.262026 
L 194.886841 245.706239 
L 195.187656 245.150452 
L 198.760118 245.150452 
L 200.280589 244.594666 
L 206.55083 244.594666 
L 206.788873 247.373599 
L 206.800558 245.150452 
L 207.105404 245.150452 
L 208.619171 242.927306 
L 216.030671 242.927306 
L 221.710877 242.371519 
L 228.024053 242.371519 
L 228.301091 241.815732 
L 244.705838 241.815732 
L 245.405973 241.259946 
L 249.389259 241.259946 
L 249.417339 240.148372 
L 257.006918 240.148372 
L 257.160858 236.257866 
L 270.897582 236.257866 
L 270.901703 235.702079 
L 271.299529 235.702079 
L 272.716919 235.146292 
L 274.790333 235.146292 
L 275.349934 234.590506 
L 275.405913 235.146292 
L 276.687343 234.590506 
L 276.693185 234.034719 
L 276.723122 234.590506 
L 277.463339 234.034719 
L 284.206225 234.034719 
L 286.302646 233.478932 
L 288.790235 233.478932 
L 293.015369 232.923146 
L 297.015231 232.923146 
L 300.105538 231.811572 
L 306.868487 231.811572 
L 310.802543 230.699999 
L 311.910966 231.255786 
L 317.40186 231.255786 
L 323.595834 229.032639 
L 332.833374 229.032639 
L 335.698273 228.476852 
L 386.75418 228.476852 
L 387.166499 227.921066 
L 405.78542 227.921066 
L 406.096516 227.365279 
L 437.778429 227.365279 
L 444.754694 226.809492 
L 444.795047 227.365279 
L 449.789021 225.697919 
L 457.117958 225.697919 
L 461.119812 225.142132 
L 461.126379 224.586346 
L 469.476285 224.586346 
L 472.473158 225.142132 
L 473.550467 224.586346 
L 487.524464 224.586346 
L 488.119165 225.142132 
L 489.208566 224.586346 
L 489.582932 222.363199 
L 495.986778 222.363199 
L 495.992304 221.807412 
L 515.587946 221.807412 
L 516.729069 221.251626 
L 520.495009 221.251626 
L 520.8624 220.695839 
L 539.226385 220.695839 
L 539.25134 220.140052 
L 543.844453 220.140052 
L 543.851292 219.584266 
L 544.96583 219.584266 
L 545.024027 219.028479 
L 546.754778 219.028479 
L 547.026698 218.472692 
L 550.731044 218.472692 
L 551.294132 217.361119 
L 553.333398 215.137972 
L 558.26469 215.137972 
L 558.628775 212.359039 
L 560.282352 212.359039 
L 561.093901 211.247466 
L 565.275783 211.247466 
L 566.647974 210.691679 
L 570.575871 210.691679 
L 571.10232 210.135892 
L 581.770838 210.135892 
L 582.0337 209.580106 
L 583.02043 209.580106 
L 584.552358 209.024319 
L 601.807965 209.024319 
L 601.962992 208.468532 
L 602.516253 208.468532 
L 603.671234 207.356959 
L 605.290527 207.356959 
L 605.679884 206.801172 
L 606.055019 206.801172 
L 606.197365 206.245386 
L 610.527798 206.245386 
L 611.265026 205.689599 
L 615.034317 205.689599 
L 615.275984 205.133812 
L 617.340657 205.133812 
L 617.472948 204.578026 
L 623.889476 204.578026 
L 624.027429 204.022239 
L 627.769637 204.022239 
L 628.813749 202.354879 
L 629.019546 201.799092 
L 630.405324 201.799092 
L 630.406773 201.243306 
L 636.033582 201.243306 
L 637.058083 200.687519 
L 641.373525 200.687519 
L 642.22212 200.131732 
L 642.541323 200.131732 
L 643.370489 199.575946 
L 645.488514 199.575946 
L 645.733305 199.020159 
L 651.045304 199.020159 
L 652.414552 198.464372 
L 652.51428 197.908586 
L 652.957577 197.908586 
L 654.356761 195.685439 
L 658.696025 195.685439 
L 658.727275 195.129652 
L 662.856983 195.129652 
L 663.09711 194.573866 
L 663.719981 194.573866 
L 664.192218 194.018079 
L 664.290723 194.573866 
L 664.644346 194.018079 
L 666.215451 194.018079 
L 666.230487 193.462292 
L 666.647697 193.462292 
L 666.830396 192.906506 
L 668.092805 192.350719 
L 676.876134 192.350719 
L 678.248959 191.794932 
L 679.167935 191.794932 
L 679.913496 191.239146 
L 680.667708 191.794932 
L 683.773096 191.794932 
L 683.907018 190.683359 
L 688.365032 190.683359 
L 690.094741 189.015999 
L 708.869505 189.015999 
L 709.960673 188.460212 
L 738.940549 188.460212 
L 738.990821 187.904426 
L 781.701488 187.904426 
L 781.889078 187.348639 
L 781.902529 186.792852 
L 781.91589 187.348639 
L 788.122273 187.348639 
L 789.523585 186.792852 
L 812.012614 186.792852 
L 812.012614 186.792852 
" clip-path="url(#p6071247119)" style="fill: none; stroke: #3fb950; stroke-width: 2; stroke-linecap: square"/>
   </g>
   <g id="line2d_32">
    <path d="M 85.239886 455.237812 
L 85.362395 453.570452 
L 85.495683 453.570452 
L 85.597585 372.981386 
L 87.445365 372.981386 
L 87.483363 370.758239 
L 89.388118 370.758239 
L 89.878879 369.090879 
L 90.546632 370.758239 
L 90.551568 369.090879 
L 91.104104 369.090879 
L 91.317646 367.979306 
L 96.77421 367.979306 
L 96.779419 367.423519 
L 96.810125 367.979306 
L 97.078694 367.423519 
L 97.157453 367.979306 
L 97.367507 367.423519 
L 99.282316 367.423519 
L 99.382497 366.867732 
L 99.655368 366.311946 
L 101.817278 366.311946 
L 104.277513 365.756159 
L 104.364107 365.200372 
L 105.029052 364.644586 
L 105.043454 364.088799 
L 110.010481 367.979306 
L 110.74952 366.311946 
L 111.289148 363.533012 
L 114.326194 363.533012 
L 115.940777 367.979306 
L 116.045532 363.533012 
L 145.549185 363.533012 
L 146.454529 362.977226 
L 148.501584 362.977226 
L 154.092433 362.421439 
L 155.454298 361.865652 
L 174.858727 361.865652 
L 175.366426 361.309866 
L 177.974848 360.754079 
L 179.632728 360.754079 
L 181.470408 360.198292 
L 181.51991 359.086719 
L 182.783134 358.530932 
L 183.632137 357.975146 
L 195.328236 357.975146 
L 197.659757 357.419359 
L 198.364602 357.419359 
L 198.760118 356.863572 
L 200.280589 356.863572 
L 201.79114 356.307786 
L 206.55083 356.307786 
L 206.788873 358.530932 
L 206.800558 356.307786 
L 208.619171 356.307786 
L 208.801735 355.751999 
L 211.375918 355.751999 
L 213.908571 355.196212 
L 213.970029 354.640426 
L 221.710877 354.640426 
L 224.975866 354.084639 
L 224.984109 353.528852 
L 235.848958 353.528852 
L 240.381112 352.973066 
L 243.781382 352.973066 
L 244.705838 352.417279 
L 249.896098 352.417279 
L 252.856422 351.861492 
L 253.018696 351.305706 
L 255.904881 351.305706 
L 256.239844 350.749919 
L 257.160858 350.194132 
L 259.216881 350.194132 
L 260.514978 349.638346 
L 262.895004 349.638346 
L 264.448355 349.082559 
L 267.762121 349.082559 
L 268.891061 347.970986 
L 277.463339 347.970986 
L 279.904642 347.415199 
L 282.767322 347.415199 
L 283.412883 346.859412 
L 283.610302 346.303626 
L 284.206225 345.747839 
L 294.064191 345.747839 
L 295.869082 345.192052 
L 297.015231 344.636266 
L 325.047509 344.636266 
L 331.340078 344.080479 
L 331.415259 343.524692 
L 335.698273 343.524692 
L 339.35905 342.968906 
L 345.829427 342.968906 
L 346.376166 342.413119 
L 357.395499 342.413119 
L 366.021491 341.857332 
L 366.104281 341.301546 
L 367.231998 341.301546 
L 369.516825 340.745759 
L 369.64427 339.078399 
L 369.744814 338.522612 
L 374.517411 337.966826 
L 374.80319 337.411039 
L 374.917094 336.299466 
L 375.34934 335.743679 
L 390.879857 335.743679 
L 395.291812 335.187892 
L 398.100325 334.632106 
L 400.300505 334.632106 
L 405.401816 334.076319 
L 405.78542 331.853172 
L 406.096516 331.853172 
L 406.394976 331.297386 
L 406.829985 330.741599 
L 416.506112 330.185812 
L 416.814083 329.630026 
L 416.904935 329.074239 
L 418.949182 329.074239 
L 420.87957 328.518452 
L 421.101445 327.962666 
L 421.252124 326.851092 
L 422.529886 326.295306 
L 422.623682 325.739519 
L 424.955021 325.183732 
L 428.019512 324.627946 
L 428.237447 324.072159 
L 428.242067 323.516372 
L 428.858461 322.960586 
L 428.967338 322.404799 
L 432.66489 321.849012 
L 433.412671 321.849012 
L 434.209591 321.293226 
L 452.923666 321.293226 
L 456.027107 320.737439 
L 456.309534 320.181652 
L 468.993042 320.181652 
L 469.476285 319.070079 
L 474.760838 319.070079 
L 476.356308 318.514292 
L 476.434252 317.402719 
L 476.843944 316.846932 
L 479.55676 316.291146 
L 479.617856 315.735359 
L 479.945301 315.179572 
L 480.004585 313.512212 
L 480.280853 312.956426 
L 480.65463 312.956426 
L 480.668399 312.400639 
L 482.933117 311.844852 
L 483.823469 311.289066 
L 484.038913 310.733279 
L 488.119165 310.177492 
L 491.126138 310.177492 
L 492.170295 309.621706 
L 503.475769 309.621706 
L 507.221193 309.065919 
L 507.236093 308.510132 
L 507.909689 307.954346 
L 516.729069 307.954346 
L 519.203614 307.398559 
L 520.222998 306.842772 
L 520.495009 305.731199 
L 527.628972 305.731199 
L 528.115023 305.175412 
L 532.032503 305.175412 
L 533.908 304.619626 
L 539.25134 304.619626 
L 542.481637 304.063839 
L 549.189922 304.063839 
L 550.014423 303.508052 
L 553.333398 303.508052 
L 554.236794 302.952266 
L 554.628687 302.396479 
L 554.821712 301.840692 
L 557.553731 301.840692 
L 557.631403 300.729119 
L 558.628775 300.729119 
L 559.283621 299.061759 
L 561.660114 299.061759 
L 561.955268 298.505972 
L 562.18439 298.505972 
L 563.321889 297.950186 
L 565.209524 297.950186 
L 565.275783 297.394399 
L 566.647974 297.394399 
L 566.981262 296.838612 
L 568.270981 296.838612 
L 570.245663 295.727039 
L 571.10232 295.727039 
L 574.415497 294.615466 
L 574.420479 294.059679 
L 575.053042 293.503892 
L 576.666991 292.948106 
L 576.917942 292.392319 
L 578.52709 291.836532 
L 581.157523 291.836532 
L 581.545476 291.280746 
L 581.770838 290.724959 
L 585.24176 290.724959 
L 585.332838 290.169172 
L 586.246787 290.169172 
L 586.316941 289.613386 
L 586.81848 289.057599 
L 588.563588 289.057599 
L 588.696333 288.501812 
L 588.995291 288.501812 
L 589.069566 287.946026 
L 589.190082 287.946026 
L 589.194158 287.390239 
L 591.648143 287.390239 
L 592.134103 286.834452 
L 592.542164 286.834452 
L 592.78605 286.278666 
L 593.408875 286.278666 
L 593.87518 285.722879 
L 593.973504 285.167092 
L 594.106792 285.167092 
L 596.450858 284.611306 
L 598.204978 284.611306 
L 598.337768 284.055519 
L 605.25733 284.055519 
L 605.290527 283.499732 
L 605.679884 283.499732 
L 606.055019 282.943946 
L 606.197365 282.943946 
L 606.454612 282.388159 
L 608.933098 282.388159 
L 609.08432 281.276586 
L 609.213034 279.609226 
L 609.621503 279.053439 
L 611.265026 279.053439 
L 612.040161 278.497652 
L 612.791474 278.497652 
L 613.03373 277.941866 
L 614.198358 277.386079 
L 615.275984 277.386079 
L 617.442423 276.830292 
L 617.472948 276.274506 
L 618.134995 276.274506 
L 618.244732 275.718719 
L 620.170592 275.718719 
L 620.224079 275.162932 
L 629.563794 275.162932 
L 629.634129 274.607146 
L 629.98594 274.607146 
L 630.109128 273.495572 
L 631.311755 273.495572 
L 631.408766 272.939786 
L 631.567688 272.939786 
L 632.400658 272.383999 
L 632.610033 271.828212 
L 632.992596 271.828212 
L 633.316328 271.272426 
L 633.421853 270.716639 
L 638.114831 270.716639 
L 639.299386 270.160852 
L 639.533354 269.049279 
L 639.821669 268.493492 
L 640.302964 268.493492 
L 640.596306 267.937706 
L 647.331266 267.937706 
L 647.598884 266.270346 
L 648.696121 266.270346 
L 648.83122 265.714559 
L 652.427188 265.714559 
L 652.51428 264.602986 
L 656.833209 264.602986 
L 656.877955 264.047199 
L 658.95848 264.047199 
L 658.972474 263.491412 
L 659.985608 263.491412 
L 660.013008 262.935626 
L 663.09711 262.935626 
L 663.250507 262.379839 
L 663.445932 262.379839 
L 663.719981 261.824052 
L 664.276276 261.824052 
L 664.290723 261.268266 
L 664.644346 261.268266 
L 665.318938 260.712479 
L 670.767668 260.712479 
L 671.163682 260.156692 
L 672.780393 260.156692 
L 672.783382 259.600906 
L 685.144155 259.600906 
L 687.242116 259.045119 
L 687.30294 258.489332 
L 688.365032 257.933546 
L 689.980022 257.933546 
L 690.094741 256.821972 
L 690.38686 256.821972 
L 690.482331 256.266186 
L 694.797592 256.266186 
L 695.572139 255.710399 
L 702.991202 255.710399 
L 703.014028 255.154612 
L 705.43717 255.154612 
L 706.472722 254.598826 
L 717.877788 254.598826 
L 718.020134 253.487252 
L 722.505549 253.487252 
L 723.397713 252.931466 
L 724.353102 252.931466 
L 725.521036 252.375679 
L 733.241096 252.375679 
L 733.980362 251.819892 
L 734.620941 251.819892 
L 734.935026 251.264106 
L 737.394355 250.708319 
L 738.598249 250.708319 
L 738.990821 250.152532 
L 739.118584 250.152532 
L 742.5737 249.596746 
L 748.935245 249.596746 
L 749.433071 249.040959 
L 773.986908 249.040959 
L 774.884055 248.485172 
L 780.562177 248.485172 
L 780.767385 247.929386 
L 781.136225 247.929386 
L 781.247412 247.373599 
L 812.012614 247.373599 
L 812.012614 247.373599 
" clip-path="url(#p6071247119)" style="fill: none; stroke: #58a6ff; stroke-width: 2; stroke-linecap: square"/>
   </g>
   <g id="line2d_33">
    <path d="M 85.239886 455.237812 
L 89.000392 455.237812 
L 89.014794 454.126239 
L 92.119321 454.126239 
L 92.828379 453.570452 
L 284.206225 453.570452 
L 286.302646 453.014666 
L 339.35905 453.014666 
L 340.831468 452.458879 
L 390.879857 452.458879 
L 395.291812 451.903092 
L 406.829985 451.903092 
L 416.904935 450.235732 
L 418.949182 449.124159 
L 422.623682 449.124159 
L 424.955021 448.568372 
L 428.242067 448.012586 
L 428.967338 448.012586 
L 432.66489 447.456799 
L 433.412671 447.456799 
L 434.209591 446.901012 
L 437.778429 446.345226 
L 444.754694 445.789439 
L 444.795047 446.345226 
L 456.309534 446.345226 
L 457.117958 445.789439 
L 473.550467 445.789439 
L 474.760838 445.233652 
L 480.280853 445.233652 
L 480.668399 444.677866 
L 487.524464 444.677866 
L 488.119165 444.122079 
L 513.23532 444.122079 
L 515.587946 443.566292 
L 516.576714 443.566292 
L 516.729069 443.010506 
L 523.432371 443.010506 
L 523.438757 442.454719 
L 539.226385 442.454719 
L 539.25134 441.898932 
L 543.851292 441.898932 
L 545.024027 441.343146 
L 546.751743 440.787359 
L 546.754778 440.231572 
L 547.026698 440.231572 
L 549.189922 438.564212 
L 550.647167 438.564212 
L 550.731044 436.896852 
L 551.294132 436.896852 
L 553.333398 437.452639 
L 554.799973 437.452639 
L 554.821712 435.229492 
L 560.282352 435.229492 
L 561.093901 434.673706 
L 561.955268 434.673706 
L 562.18439 434.117919 
L 581.770838 434.117919 
L 582.0337 433.562132 
L 583.02043 433.562132 
L 584.552358 433.006346 
L 591.311005 433.006346 
L 591.648143 432.450559 
L 593.973504 432.450559 
L 594.106792 431.894772 
L 601.807965 431.894772 
L 601.962992 431.338986 
L 602.516253 431.338986 
L 603.077394 430.783199 
L 603.637992 430.783199 
L 603.671234 430.227412 
L 606.055019 430.227412 
L 606.197365 429.671626 
L 617.26389 429.671626 
L 617.340657 429.115839 
L 617.472948 429.115839 
L 617.586535 428.560052 
L 618.244732 428.560052 
L 619.624532 428.004266 
L 625.018959 428.004266 
L 625.023714 427.448479 
L 626.054466 427.448479 
L 626.093687 426.892692 
L 629.019546 426.892692 
L 629.634129 426.336906 
L 633.533266 426.336906 
L 634.664153 425.781119 
L 636.863473 425.781119 
L 636.886797 424.669546 
L 637.065148 424.669546 
L 637.289605 424.113759 
L 640.827601 424.113759 
L 641.373525 423.557972 
L 642.22212 423.557972 
L 642.541323 423.002186 
L 644.612608 423.002186 
L 644.901829 422.446399 
L 644.905543 421.890612 
L 645.488514 421.890612 
L 645.733305 421.334826 
L 668.045432 421.334826 
L 668.092805 420.223252 
L 671.163682 420.223252 
L 672.047513 419.667466 
L 672.783382 419.667466 
L 676.235418 419.111679 
L 676.876134 419.111679 
L 678.248959 418.555892 
L 679.167935 418.555892 
L 679.913496 418.000106 
L 680.667708 418.555892 
L 683.09565 418.555892 
L 683.755886 418.000106 
L 683.858331 417.444319 
L 683.907018 416.888532 
L 685.135867 416.332746 
L 685.144155 415.221172 
L 690.508464 415.221172 
L 691.681606 414.665386 
L 691.800492 412.998026 
L 692.973046 412.442239 
L 693.621506 411.886452 
L 699.167608 411.886452 
L 699.402934 410.219092 
L 699.685814 410.219092 
L 699.895551 409.663306 
L 701.250985 409.107519 
L 703.384544 409.107519 
L 703.824082 408.551732 
L 703.924082 407.995946 
L 704.148357 407.995946 
L 705.43717 406.884372 
L 706.818011 406.884372 
L 707.271408 406.328586 
L 708.864251 406.328586 
L 708.869505 405.217012 
L 709.960673 405.217012 
L 711.409268 404.661226 
L 715.247083 403.549652 
L 715.589701 402.993866 
L 723.397713 402.993866 
L 724.353102 401.882292 
L 738.940549 401.882292 
L 739.118584 400.770719 
L 746.218897 400.770719 
L 747.30377 400.214932 
L 750.595933 400.214932 
L 750.780716 399.659146 
L 771.034464 399.659146 
L 771.357743 399.103359 
L 773.363901 399.103359 
L 773.986908 398.547572 
L 777.731019 398.547572 
L 778.435185 397.991786 
L 778.439805 397.435999 
L 779.245148 396.880212 
L 781.701488 396.880212 
L 781.889078 396.324426 
L 781.902529 395.212852 
L 781.91589 395.768639 
L 783.566523 395.212852 
L 789.523585 395.212852 
L 790.69863 394.101279 
L 801.447039 394.101279 
L 802.278062 393.545492 
L 804.885534 393.545492 
L 805.094275 392.989706 
L 805.122989 392.433919 
L 812.012614 392.433919 
L 812.012614 392.433919 
" clip-path="url(#p6071247119)" style="fill: none; stroke: #d29922; stroke-width: 2; stroke-linecap: square"/>
   </g>
   <g id="line2d_34">
    <path d="M 85.239886 454.682026 
L 85.561535 454.682026 
L 85.703971 432.450559 
L 86.448355 426.892692 
L 86.873717 425.781119 
L 87.089523 426.336906 
L 87.483363 425.781119 
L 88.149441 425.225332 
L 88.611578 424.113759 
L 89.000392 423.557972 
L 89.014794 423.002186 
L 89.388118 421.334826 
L 89.878879 421.334826 
L 90.546632 420.779039 
L 90.551568 420.223252 
L 91.089204 419.667466 
L 91.104104 419.111679 
L 91.317646 419.111679 
L 92.119321 418.555892 
L 92.692102 418.000106 
L 92.828379 411.886452 
L 92.922627 412.442239 
L 93.153062 408.551732 
L 93.542373 402.993866 
L 96.779419 402.993866 
L 96.810125 402.438079 
L 97.078694 399.659146 
L 97.157453 402.438079 
L 97.522353 397.991786 
L 97.703059 397.435999 
L 99.04939 396.880212 
L 99.090015 396.324426 
L 99.382497 395.768639 
L 99.655368 395.768639 
L 100.34871 395.212852 
L 100.71909 394.657066 
L 100.870177 394.101279 
L 100.988882 392.989706 
L 101.334896 392.433919 
L 101.343456 391.878132 
L 101.691463 392.433919 
L 101.790512 391.878132 
L 101.802695 392.433919 
L 101.817278 390.766559 
L 105.043454 390.766559 
L 110.010481 402.993866 
L 110.74952 390.210772 
L 111.13471 389.654986 
L 113.218224 389.654986 
L 113.571077 389.099199 
L 114.326194 388.543412 
L 115.940777 402.993866 
L 116.045532 387.987626 
L 117.284481 387.431839 
L 119.933981 386.876052 
L 120.12293 387.431839 
L 120.469352 386.320266 
L 120.50889 385.764479 
L 121.359388 385.764479 
L 121.617812 385.208692 
L 122.1059 384.652906 
L 122.146389 383.541332 
L 122.596616 382.429759 
L 122.622702 382.985546 
L 122.890501 382.985546 
L 123.037331 381.873972 
L 123.489323 379.650826 
L 123.548744 378.539252 
L 124.128635 376.871892 
L 124.412058 377.983466 
L 126.416043 374.648746 
L 126.943715 375.760319 
L 129.115272 373.537172 
L 130.835606 377.427679 
L 131.439365 373.537172 
L 133.918938 371.869812 
L 137.575186 371.869812 
L 138.058066 371.314026 
L 138.44235 369.646666 
L 139.522196 371.314026 
L 143.926904 371.869812 
L 145.019566 369.646666 
L 145.549185 367.979306 
L 146.454529 369.646666 
L 148.501584 367.979306 
L 155.454298 367.979306 
L 162.765119 367.423519 
L 163.252664 366.867732 
L 167.868196 366.311946 
L 170.920187 366.311946 
L 171.488303 365.756159 
L 171.611898 366.311946 
L 174.858727 364.644586 
L 177.904151 364.644586 
L 177.974848 364.088799 
L 179.632728 363.533012 
L 183.632137 363.533012 
L 185.396357 359.642506 
L 186.709445 359.086719 
L 188.399073 358.530932 
L 188.431863 357.975146 
L 194.764513 357.975146 
L 194.886841 354.084639 
L 195.121216 354.084639 
L 195.328236 352.973066 
L 197.659757 352.973066 
L 198.364602 352.417279 
L 201.79114 352.417279 
L 206.55083 351.861492 
L 206.788873 363.533012 
L 206.800558 352.417279 
L 207.105404 351.861492 
L 208.801735 351.861492 
L 211.375918 351.305706 
L 213.970029 351.305706 
L 216.030671 350.749919 
L 221.710877 349.638346 
L 224.984109 349.638346 
L 227.614723 349.082559 
L 228.024053 346.303626 
L 228.301091 346.303626 
L 228.791308 345.747839 
L 231.348326 345.192052 
L 231.939404 342.968906 
L 235.473415 341.857332 
L 235.515987 342.413119 
L 235.848958 341.857332 
L 240.381112 340.745759 
L 243.781382 340.189972 
L 245.405973 340.189972 
L 246.845918 339.634186 
L 248.093789 338.522612 
L 249.417339 337.966826 
L 249.896098 337.411039 
L 253.018696 337.966826 
L 255.904881 336.855252 
L 256.239844 337.411039 
L 257.006918 337.411039 
L 257.160858 336.855252 
L 259.216881 336.299466 
L 260.514978 336.855252 
L 262.895004 335.743679 
L 264.448355 335.743679 
L 267.762121 335.187892 
L 268.311623 335.743679 
L 268.891061 334.076319 
L 270.901703 334.076319 
L 271.299529 333.520532 
L 272.716919 331.853172 
L 273.030869 331.297386 
L 273.520044 330.185812 
L 274.790333 330.741599 
L 275.349934 329.630026 
L 275.405913 329.074239 
L 279.904642 329.074239 
L 282.183128 328.518452 
L 282.767322 327.962666 
L 286.302646 327.962666 
L 288.790235 327.406879 
L 293.015369 327.406879 
L 294.064191 326.851092 
L 305.682573 326.851092 
L 306.349828 326.295306 
L 306.416676 325.739519 
L 306.868487 325.183732 
L 311.910966 325.183732 
L 312.225233 324.627946 
L 313.508158 324.072159 
L 313.73035 323.516372 
L 315.855892 322.960586 
L 317.40186 322.404799 
L 323.595834 322.404799 
L 325.047509 321.293226 
L 331.415259 321.293226 
L 332.833374 320.737439 
L 338.767882 320.737439 
L 339.35905 320.181652 
L 340.831468 319.625866 
L 341.269783 319.070079 
L 341.418605 318.514292 
L 345.829427 317.958506 
L 346.376166 318.514292 
L 352.18273 317.402719 
L 356.773715 316.291146 
L 357.395499 315.735359 
L 366.104281 315.735359 
L 367.231998 315.179572 
L 375.34934 315.179572 
L 382.995713 314.623786 
L 383.957488 314.067999 
L 387.166499 313.512212 
L 390.384568 312.956426 
L 390.879857 312.400639 
L 398.100325 312.400639 
L 400.300505 311.844852 
L 416.904935 311.844852 
L 418.949182 311.289066 
L 432.66489 311.289066 
L 433.412671 310.733279 
L 434.209591 311.289066 
L 437.778429 310.733279 
L 449.789021 310.733279 
L 451.398531 310.177492 
L 476.806444 310.177492 
L 476.843944 309.621706 
L 492.535874 309.621706 
L 495.983472 309.065919 
L 495.992304 308.510132 
L 513.227666 308.510132 
L 513.23532 307.398559 
L 523.438757 307.398559 
L 528.115023 306.842772 
L 533.908 306.842772 
L 539.25134 305.731199 
L 550.014423 305.731199 
L 550.647167 305.175412 
L 550.731044 304.619626 
L 554.799973 304.619626 
L 554.821712 304.063839 
L 555.244221 304.063839 
L 555.917726 303.508052 
L 561.955268 303.508052 
L 562.18439 302.952266 
L 570.245663 302.952266 
L 570.575871 302.396479 
L 590.262817 302.396479 
L 591.309511 300.729119 
L 591.311005 300.173332 
L 594.100134 300.173332 
L 594.106792 299.617546 
L 602.333735 299.617546 
L 602.516253 299.061759 
L 606.454612 299.061759 
L 606.596097 298.505972 
L 621.226887 298.505972 
L 621.508227 297.950186 
L 624.90424 297.950186 
L 625.023714 297.394399 
L 626.093687 296.838612 
L 652.957577 296.838612 
L 654.356761 295.727039 
L 656.451144 295.727039 
L 656.877955 295.171252 
L 658.972474 295.171252 
L 659.282891 294.615466 
L 664.231575 294.615466 
L 664.290723 294.059679 
L 691.679296 294.059679 
L 691.681606 293.503892 
L 691.79782 293.503892 
L 691.800492 292.948106 
L 726.035121 292.948106 
L 726.924251 292.392319 
L 785.376033 292.392319 
L 787.952572 291.836532 
L 812.012614 291.836532 
L 812.012614 291.836532 
" clip-path="url(#p6071247119)" style="fill: none; stroke: #f85149; stroke-width: 2; stroke-linecap: square"/>
   </g>
   <g id="line2d_35">
    <path d="M 85.239886 454.682026 
L 85.265475 454.126239 
L 85.467223 -1 
M 85.648552 -1 
L 85.703971 101.201706 
L 89.000392 101.201706 
L 89.014794 97.866986 
L 92.828379 97.866986 
L 93.012935 98.422772 
L 93.542373 98.422772 
L 93.971449 98.978559 
L 96.630189 99.534346 
L 96.682679 98.978559 
L 96.810125 99.534346 
L 105.043454 99.534346 
L 110.010481 98.422772 
L 110.74952 99.534346 
L 111.13471 98.978559 
L 111.289148 98.978559 
L 112.649202 99.534346 
L 113.218224 96.755412 
L 114.326194 96.755412 
L 115.940777 98.422772 
L 116.045532 95.643839 
L 117.284481 96.199626 
L 120.50889 96.199626 
L 121.359388 95.088052 
L 122.622702 95.088052 
L 122.961335 91.197546 
L 130.835606 91.197546 
L 131.409926 87.862826 
L 131.439365 86.751252 
L 133.918938 86.751252 
L 137.575186 82.860746 
L 139.493165 82.860746 
L 139.522196 83.416532 
L 143.926904 83.416532 
L 145.019566 80.081812 
L 148.477581 80.081812 
L 148.501584 80.637599 
L 167.868196 80.637599 
L 171.488303 81.193386 
L 171.611898 80.637599 
L 175.366426 81.193386 
L 188.431863 81.193386 
L 194.764513 81.749172 
L 194.886841 74.523946 
L 195.187656 75.079732 
L 198.760118 75.079732 
L 200.280589 75.635519 
L 206.55083 75.635519 
L 206.788873 80.637599 
L 206.800558 71.745012 
L 207.105404 71.745012 
L 208.619171 73.968159 
L 216.030671 73.968159 
L 221.710877 70.077652 
L 228.024053 70.077652 
L 228.301091 68.410292 
L 244.705838 68.410292 
L 245.405973 68.966079 
L 249.389259 68.966079 
L 249.417339 70.077652 
L 257.006918 70.077652 
L 257.160858 73.412372 
L 268.891061 73.412372 
L 269.171224 68.410292 
L 270.897582 67.298719 
L 270.901703 67.854506 
L 271.299529 67.854506 
L 272.716919 65.075572 
L 274.790333 65.075572 
L 275.349934 65.631359 
L 275.405913 65.075572 
L 276.687343 65.631359 
L 276.693185 66.187146 
L 276.723122 65.631359 
L 277.463339 63.408212 
L 284.206225 63.408212 
L 286.302646 63.963999 
L 288.790235 63.963999 
L 293.015369 64.519786 
L 297.015231 64.519786 
L 300.105538 65.631359 
L 306.416676 65.075572 
L 306.868487 65.075572 
L 310.802543 66.187146 
L 311.910966 65.631359 
L 317.40186 65.631359 
L 323.592482 67.854506 
L 323.595834 67.298719 
L 332.833374 67.298719 
L 335.698273 67.854506 
L 386.75418 67.854506 
L 387.166499 68.410292 
L 390.361606 68.410292 
L 390.384568 66.742932 
L 405.78542 66.742932 
L 406.096516 67.298719 
L 437.778429 67.298719 
L 444.754694 67.854506 
L 444.795047 67.298719 
L 449.789021 68.966079 
L 451.398531 68.966079 
L 452.923666 68.410292 
L 457.117958 68.410292 
L 461.119812 68.966079 
L 461.126379 69.521866 
L 472.473158 67.854506 
L 473.550467 68.410292 
L 487.524464 68.410292 
L 488.119165 67.854506 
L 489.208566 68.410292 
L 489.582932 70.633439 
L 495.986778 70.633439 
L 495.992304 71.189226 
L 515.587946 71.189226 
L 516.729069 71.745012 
L 520.495009 71.745012 
L 520.8624 72.300799 
L 539.226385 72.300799 
L 539.25134 72.856586 
L 542.481637 72.856586 
L 543.844453 73.412372 
L 543.851292 73.968159 
L 544.96583 73.412372 
L 545.024027 73.968159 
L 546.754778 73.968159 
L 547.026698 74.523946 
L 550.647167 74.523946 
L 550.731044 73.412372 
L 551.294132 74.523946 
L 553.333398 72.856586 
L 558.26469 72.856586 
L 558.628775 71.189226 
L 560.282352 71.189226 
L 561.093901 72.300799 
L 565.275783 72.300799 
L 566.647974 72.856586 
L 566.981262 72.856586 
L 568.270981 70.077652 
L 570.575871 70.077652 
L 571.10232 70.633439 
L 581.770838 70.633439 
L 582.0337 71.189226 
L 583.02043 71.189226 
L 584.552358 71.745012 
L 601.807965 71.745012 
L 601.962992 72.300799 
L 602.516253 72.300799 
L 603.671234 73.412372 
L 605.290527 73.412372 
L 605.679884 72.856586 
L 606.055019 72.856586 
L 606.197365 73.412372 
L 610.527798 73.412372 
L 611.265026 73.968159 
L 615.034317 73.968159 
L 615.275984 74.523946 
L 617.340657 74.523946 
L 617.472948 75.079732 
L 623.889476 75.079732 
L 624.027429 75.635519 
L 627.769637 75.635519 
L 628.813749 77.302879 
L 629.019546 77.858666 
L 630.405324 77.858666 
L 630.406773 78.414452 
L 636.033582 78.414452 
L 637.058083 78.970239 
L 641.373525 78.970239 
L 642.22212 79.526026 
L 645.488514 79.526026 
L 645.733305 80.081812 
L 651.045304 80.081812 
L 652.414552 80.637599 
L 652.51428 81.193386 
L 652.957577 81.193386 
L 654.356761 60.629279 
L 658.696025 60.629279 
L 658.727275 61.185066 
L 658.972474 61.185066 
L 659.282891 60.629279 
L 662.856983 60.629279 
L 663.09711 61.185066 
L 663.719981 61.185066 
L 664.192218 61.740852 
L 664.290723 61.185066 
L 666.215451 61.185066 
L 666.230487 61.740852 
L 666.647697 61.740852 
L 666.830396 62.296639 
L 668.092805 62.852426 
L 676.876134 62.852426 
L 678.248959 63.408212 
L 679.167935 63.408212 
L 679.913496 63.963999 
L 680.667708 63.408212 
L 683.773096 63.408212 
L 683.907018 64.519786 
L 688.365032 64.519786 
L 690.094741 66.187146 
L 708.869505 66.187146 
L 709.960673 66.742932 
L 738.940549 66.742932 
L 738.990821 67.298719 
L 781.701488 67.298719 
L 781.889078 67.854506 
L 781.902529 68.410292 
L 781.91589 67.854506 
L 788.122273 67.854506 
L 789.523585 68.410292 
L 812.012614 68.410292 
L 812.012614 68.410292 
" clip-path="url(#p6071247119)" style="fill: none; stroke: #9467bd; stroke-width: 2; stroke-linecap: square"/>
   </g>
   <g id="patch_3">
    <path d="M 48.90125 455.237812 
L 48.90125 38.397812 
" style="fill: none; stroke: #30363d; stroke-width: 0.8; stroke-linejoin: miter; stroke-linecap: square"/>
   </g>
   <g id="patch_4">
    <path d="M 848.35125 455.237812 
L 848.35125 38.397812 
" style="fill: none; stroke: #30363d; stroke-width: 0.8; stroke-linejoin: miter; stroke-linecap: square"/>
   </g>
   <g id="patch_5">
    <path d="M 48.90125 455.237812 
L 848.35125 455.237812 
" style="fill: none; stroke: #30363d; stroke-width: 0.8; stroke-linejoin: miter; stroke-linecap: square"/>
   </g>
   <g id="patch_6">
    <path d="M 48.90125 38.397812 
L 848.35125 38.397812 
" style="fill: none; stroke: #30363d; stroke-width: 0.8; stroke-linejoin: miter; stroke-linecap: square"/>
   </g>
   <g id="text_18">
    <!-- 483 -->
    <g style="fill: #3fb950" transform="translate(817.012614 189.27629) scale(0.09 -0.09)">
     <defs>
      <path id="DejaVuSans-Bold-34" d="M 2356 3675 
L 1038 1722 
L 2356 1722 
L 2356 3675 
z
M 2156 4666 
L 3494 4666 
L 3494 1722 
L 4159 1722 
L 4159 850 
L 3494 850 
L 3494 0 
L 2356 0 
L 2356 850 
L 288 850 
L 288 1881 
L 2156 4666 
z
" transform="scale(0.015625)"/>
      <path id="DejaVuSans-Bold-38" d="M 2228 2088 
Q 1891 2088 1709 1903 
Q 1528 1719 1528 1375 
Q 1528 1031 1709 848 
Q 1891 666 2228 666 
Q 2563 666 2741 848 
Q 2919 1031 2919 1375 
Q 2919 1722 2741 1905 
Q 2563 2088 2228 2088 
z
M 1350 2484 
Q 925 2613 709 2878 
Q 494 3144 494 3541 
Q 494 4131 934 4440 
Q 1375 4750 2228 4750 
Q 3075 4750 3515 4442 
Q 3956 4134 3956 3541 
Q 3956 3144 3739 2878 
Q 3522 2613 3097 2484 
Q 3572 2353 3814 2058 
Q 4056 1763 4056 1313 
Q 4056 619 3595 264 
Q 3134 -91 2228 -91 
Q 1319 -91 855 264 
Q 391 619 391 1313 
Q 391 1763 633 2058 
Q 875 2353 1350 2484 
z
M 1631 3419 
Q 1631 3141 1786 2991 
Q 1941 2841 2228 2841 
Q 2509 2841 2662 2991 
Q 2816 3141 2816 3419 
Q 2816 3697 2662 3845 
Q 2509 3994 2228 3994 
Q 1941 3994 1786 3844 
Q 1631 3694 1631 3419 
z
" transform="scale(0.015625)"/>
      <path id="DejaVuSans-Bold-33" d="M 2981 2516 
Q 3453 2394 3698 2092 
Q 3944 1791 3944 1325 
Q 3944 631 3412 270 
Q 2881 -91 1863 -91 
Q 1503 -91 1142 -33 
Q 781 25 428 141 
L 428 1069 
Q 766 900 1098 814 
Q 1431 728 1753 728 
Q 2231 728 2486 893 
Q 2741 1059 2741 1369 
Q 2741 1688 2480 1852 
Q 2219 2016 1709 2016 
L 1228 2016 
L 1228 2791 
L 1734 2791 
Q 2188 2791 2409 2933 
Q 2631 3075 2631 3366 
Q 2631 3634 2415 3781 
Q 2200 3928 1806 3928 
Q 1516 3928 1219 3862 
Q 922 3797 628 3669 
L 628 4550 
Q 984 4650 1334 4700 
Q 1684 4750 2022 4750 
Q 2931 4750 3382 4451 
Q 3834 4153 3834 3553 
Q 3834 3144 3618 2883 
Q 3403 2622 2981 2516 
z
" transform="scale(0.015625)"/>
     </defs>
     <use xlink:href="#DejaVuSans-Bold-34"/>
     <use xlink:href="#DejaVuSans-Bold-38" transform="translate(69.580078 0)"/>
     <use xlink:href="#DejaVuSans-Bold-33" transform="translate(139.160156 0)"/>
    </g>
   </g>
   <g id="text_19">
    <!-- 374 -->
    <g style="fill: #58a6ff" transform="translate(817.012614 249.857037) scale(0.09 -0.09)">
     <defs>
      <path id="DejaVuSans-Bold-37" d="M 428 4666 
L 3944 4666 
L 3944 3988 
L 2125 0 
L 953 0 
L 2675 3781 
L 428 3781 
L 428 4666 
z
" transform="scale(0.015625)"/>
     </defs>
     <use xlink:href="#DejaVuSans-Bold-33"/>
     <use xlink:href="#DejaVuSans-Bold-37" transform="translate(69.580078 0)"/>
     <use xlink:href="#DejaVuSans-Bold-34" transform="translate(139.160156 0)"/>
    </g>
   </g>
   <g id="text_20">
    <!-- 113 -->
    <g style="fill: #d29922" transform="translate(817.012614 394.917357) scale(0.09 -0.09)">
     <defs>
      <path id="DejaVuSans-Bold-31" d="M 750 831 
L 1813 831 
L 1813 3847 
L 722 3622 
L 722 4441 
L 1806 4666 
L 2950 4666 
L 2950 831 
L 4013 831 
L 4013 0 
L 750 0 
L 750 831 
z
" transform="scale(0.015625)"/>
     </defs>
     <use xlink:href="#DejaVuSans-Bold-31"/>
     <use xlink:href="#DejaVuSans-Bold-31" transform="translate(69.580078 0)"/>
     <use xlink:href="#DejaVuSans-Bold-33" transform="translate(139.160156 0)"/>
    </g>
   </g>
   <g id="text_21">
    <!-- 294 -->
    <g style="fill: #f85149" transform="translate(817.012614 294.31997) scale(0.09 -0.09)">
     <defs>
      <path id="DejaVuSans-Bold-32" d="M 1844 884 
L 3897 884 
L 3897 0 
L 506 0 
L 506 884 
L 2209 2388 
Q 2438 2594 2547 2791 
Q 2656 2988 2656 3200 
Q 2656 3528 2436 3728 
Q 2216 3928 1850 3928 
Q 1569 3928 1234 3808 
Q 900 3688 519 3450 
L 519 4475 
Q 925 4609 1322 4679 
Q 1719 4750 2100 4750 
Q 2938 4750 3402 4381 
Q 3866 4013 3866 3353 
Q 3866 2972 3669 2642 
Q 3472 2313 2841 1759 
L 1844 884 
z
" transform="scale(0.015625)"/>
      <path id="DejaVuSans-Bold-39" d="M 641 103 
L 641 966 
Q 928 831 1190 764 
Q 1453 697 1709 697 
Q 2247 697 2547 995 
Q 2847 1294 2900 1881 
Q 2688 1725 2447 1647 
Q 2206 1569 1925 1569 
Q 1209 1569 770 1986 
Q 331 2403 331 3084 
Q 331 3838 820 4291 
Q 1309 4744 2131 4744 
Q 3044 4744 3544 4128 
Q 4044 3513 4044 2388 
Q 4044 1231 3459 570 
Q 2875 -91 1856 -91 
Q 1528 -91 1228 -42 
Q 928 6 641 103 
z
M 2125 2350 
Q 2441 2350 2600 2554 
Q 2759 2759 2759 3169 
Q 2759 3575 2600 3781 
Q 2441 3988 2125 3988 
Q 1809 3988 1650 3781 
Q 1491 3575 1491 3169 
Q 1491 2759 1650 2554 
Q 1809 2350 2125 2350 
z
" transform="scale(0.015625)"/>
     </defs>
     <use xlink:href="#DejaVuSans-Bold-32"/>
     <use xlink:href="#DejaVuSans-Bold-39" transform="translate(69.580078 0)"/>
     <use xlink:href="#DejaVuSans-Bold-34" transform="translate(139.160156 0)"/>
    </g>
   </g>
   <g id="text_22">
    <!-- 696 -->
    <g style="fill: #9467bd" transform="translate(817.012614 70.89373) scale(0.09 -0.09)">
     <defs>
      <path id="DejaVuSans-Bold-36" d="M 2316 2303 
Q 2000 2303 1842 2098 
Q 1684 1894 1684 1484 
Q 1684 1075 1842 870 
Q 2000 666 2316 666 
Q 2634 666 2792 870 
Q 2950 1075 2950 1484 
Q 2950 1894 2792 2098 
Q 2634 2303 2316 2303 
z
M 3803 4544 
L 3803 3681 
Q 3506 3822 3243 3889 
Q 2981 3956 2731 3956 
Q 2194 3956 1894 3657 
Q 1594 3359 1544 2772 
Q 1750 2925 1990 3001 
Q 2231 3078 2516 3078 
Q 3231 3078 3670 2659 
Q 4109 2241 4109 1563 
Q 4109 813 3618 361 
Q 3128 -91 2303 -91 
Q 1394 -91 895 523 
Q 397 1138 397 2266 
Q 397 3422 980 4083 
Q 1563 4744 2578 4744 
Q 2900 4744 3203 4694 
Q 3506 4644 3803 4544 
z
" transform="scale(0.015625)"/>
     </defs>
     <use xlink:href="#DejaVuSans-Bold-36"/>
     <use xlink:href="#DejaVuSans-Bold-39" transform="translate(69.580078 0)"/>
     <use xlink:href="#DejaVuSans-Bold-36" transform="translate(139.160156 0)"/>
    </g>
   </g>
   <g id="text_23">
    <!-- Erdős Problems Progress -->
    <g style="fill: #c9d1d9" transform="translate(349.588281 18.397812) scale(0.14 -0.14)">
     <defs>
      <path id="DejaVuSans-Bold-45" d="M 588 4666 
L 3834 4666 
L 3834 3756 
L 1791 3756 
L 1791 2888 
L 3713 2888 
L 3713 1978 
L 1791 1978 
L 1791 909 
L 3903 909 
L 3903 0 
L 588 0 
L 588 4666 
z
" transform="scale(0.015625)"/>
      <path id="DejaVuSans-Bold-72" d="M 3138 2547 
Q 2991 2616 2845 2648 
Q 2700 2681 2553 2681 
Q 2122 2681 1889 2404 
Q 1656 2128 1656 1613 
L 1656 0 
L 538 0 
L 538 3500 
L 1656 3500 
L 1656 2925 
Q 1872 3269 2151 3426 
Q 2431 3584 2822 3584 
Q 2878 3584 2943 3579 
Q 3009 3575 3134 3559 
L 3138 2547 
z
" transform="scale(0.015625)"/>
      <path id="DejaVuSans-Bold-64" d="M 2919 2988 
L 2919 4863 
L 4044 4863 
L 4044 0 
L 2919 0 
L 2919 506 
Q 2688 197 2409 53 
Q 2131 -91 1766 -91 
Q 1119 -91 703 423 
Q 288 938 288 1747 
Q 288 2556 703 3070 
Q 1119 3584 1766 3584 
Q 2128 3584 2408 3439 
Q 2688 3294 2919 2988 
z
M 2181 722 
Q 2541 722 2730 984 
Q 2919 1247 2919 1747 
Q 2919 2247 2730 2509 
Q 2541 2772 2181 2772 
Q 1825 2772 1636 2509 
Q 1447 2247 1447 1747 
Q 1447 1247 1636 984 
Q 1825 722 2181 722 
z
" transform="scale(0.015625)"/>
      <path id="DejaVuSans-Bold-151" d="M 1881 5119 
L 2560 5119 
L 1785 3944 
L 1275 3944 
L 1881 5119 
z
M 3016 5119 
L 3738 5119 
L 2888 3944 
L 2344 3944 
L 3016 5119 
z
M 2203 2784 
Q 1831 2784 1636 2517 
Q 1441 2250 1441 1747 
Q 1441 1244 1636 976 
Q 1831 709 2203 709 
Q 2569 709 2762 976 
Q 2956 1244 2956 1747 
Q 2956 2250 2762 2517 
Q 2569 2784 2203 2784 
z
M 2203 3584 
Q 3106 3584 3614 3096 
Q 4122 2609 4122 1747 
Q 4122 884 3614 396 
Q 3106 -91 2203 -91 
Q 1297 -91 786 396 
Q 275 884 275 1747 
Q 275 2609 786 3096 
Q 1297 3584 2203 3584 
z
" transform="scale(0.015625)"/>
      <path id="DejaVuSans-Bold-73" d="M 3272 3391 
L 3272 2541 
Q 2913 2691 2578 2766 
Q 2244 2841 1947 2841 
Q 1628 2841 1473 2761 
Q 1319 2681 1319 2516 
Q 1319 2381 1436 2309 
Q 1553 2238 1856 2203 
L 2053 2175 
Q 2913 2066 3209 1816 
Q 3506 1566 3506 1031 
Q 3506 472 3093 190 
Q 2681 -91 1863 -91 
Q 1516 -91 1145 -36 
Q 775 19 384 128 
L 384 978 
Q 719 816 1070 734 
Q 1422 653 1784 653 
Q 2113 653 2278 743 
Q 2444 834 2444 1013 
Q 2444 1163 2330 1236 
Q 2216 1309 1875 1350 
L 1678 1375 
Q 931 1469 631 1722 
Q 331 1975 331 2491 
Q 331 3047 712 3315 
Q 1094 3584 1881 3584 
Q 2191 3584 2531 3537 
Q 2872 3491 3272 3391 
z
" transform="scale(0.015625)"/>
      <path id="DejaVuSans-Bold-20" transform="scale(0.015625)"/>
      <path id="DejaVuSans-Bold-50" d="M 588 4666 
L 2584 4666 
Q 3475 4666 3951 4270 
Q 4428 3875 4428 3144 
Q 4428 2409 3951 2014 
Q 3475 1619 2584 1619 
L 1791 1619 
L 1791 0 
L 588 0 
L 588 4666 
z
M 1791 3794 
L 1791 2491 
L 2456 2491 
Q 2806 2491 2997 2661 
Q 3188 2831 3188 3144 
Q 3188 3456 2997 3625 
Q 2806 3794 2456 3794 
L 1791 3794 
z
" transform="scale(0.015625)"/>
      <path id="DejaVuSans-Bold-6f" d="M 2203 2784 
Q 1831 2784 1636 2517 
Q 1441 2250 1441 1747 
Q 1441 1244 1636 976 
Q 1831 709 2203 709 
Q 2569 709 2762 976 
Q 2956 1244 2956 1747 
Q 2956 2250 2762 2517 
Q 2569 2784 2203 2784 
z
M 2203 3584 
Q 3106 3584 3614 3096 
Q 4122 2609 4122 1747 
Q 4122 884 3614 396 
Q 3106 -91 2203 -91 
Q 1297 -91 786 396 
Q 275 884 275 1747 
Q 275 2609 786 3096 
Q 1297 3584 2203 3584 
z
" transform="scale(0.015625)"/>
      <path id="DejaVuSans-Bold-62" d="M 2400 722 
Q 2759 722 2948 984 
Q 3138 1247 3138 1747 
Q 3138 2247 2948 2509 
Q 2759 2772 2400 2772 
Q 2041 2772 1848 2508 
Q 1656 2244 1656 1747 
Q 1656 1250 1848 986 
Q 2041 722 2400 722 
z
M 1656 2988 
Q 1888 3294 2169 3439 
Q 2450 3584 2816 3584 
Q 3463 3584 3878 3070 
Q 4294 2556 4294 1747 
Q 4294 938 3878 423 
Q 3463 -91 2816 -91 
Q 2450 -91 2169 54 
Q 1888 200 1656 506 
L 1656 0 
L 538 0 
L 538 4863 
L 1656 4863 
L 1656 2988 
z
" transform="scale(0.015625)"/>
      <path id="DejaVuSans-Bold-6c" d="M 538 4863 
L 1656 4863 
L 1656 0 
L 538 0 
L 538 4863 
z
" transform="scale(0.015625)"/>
      <path id="DejaVuSans-Bold-65" d="M 4031 1759 
L 4031 1441 
L 1416 1441 
Q 1456 1047 1700 850 
Q 1944 653 2381 653 
Q 2734 653 3104 758 
Q 3475 863 3866 1075 
L 3866 213 
Q 3469 63 3072 -14 
Q 2675 -91 2278 -91 
Q 1328 -91 801 392 
Q 275 875 275 1747 
Q 275 2603 792 3093 
Q 1309 3584 2216 3584 
Q 3041 3584 3536 3087 
Q 4031 2591 4031 1759 
z
M 2881 2131 
Q 2881 2450 2695 2645 
Q 2509 2841 2209 2841 
Q 1884 2841 1681 2658 
Q 1478 2475 1428 2131 
L 2881 2131 
z
" transform="scale(0.015625)"/>
      <path id="DejaVuSans-Bold-6d" d="M 3781 2919 
Q 3994 3244 4286 3414 
Q 4578 3584 4928 3584 
Q 5531 3584 5847 3212 
Q 6163 2841 6163 2131 
L 6163 0 
L 5038 0 
L 5038 1825 
Q 5041 1866 5042 1909 
Q 5044 1953 5044 2034 
Q 5044 2406 4934 2573 
Q 4825 2741 4581 2741 
Q 4263 2741 4089 2478 
Q 3916 2216 3909 1719 
L 3909 0 
L 2784 0 
L 2784 1825 
Q 2784 2406 2684 2573 
Q 2584 2741 2328 2741 
Q 2006 2741 1831 2477 
Q 1656 2213 1656 1722 
L 1656 0 
L 531 0 
L 531 3500 
L 1656 3500 
L 1656 2988 
Q 1863 3284 2130 3434 
Q 2397 3584 2719 3584 
Q 3081 3584 3359 3409 
Q 3638 3234 3781 2919 
z
" transform="scale(0.015625)"/>
      <path id="DejaVuSans-Bold-67" d="M 2919 594 
Q 2688 288 2409 144 
Q 2131 0 1766 0 
Q 1125 0 706 504 
Q 288 1009 288 1791 
Q 288 2575 706 3076 
Q 1125 3578 1766 3578 
Q 2131 3578 2409 3434 
Q 2688 3291 2919 2981 
L 2919 3500 
L 4044 3500 
L 4044 353 
Q 4044 -491 3511 -936 
Q 2978 -1381 1966 -1381 
Q 1638 -1381 1331 -1331 
Q 1025 -1281 716 -1178 
L 716 -306 
Q 1009 -475 1290 -558 
Q 1572 -641 1856 -641 
Q 2406 -641 2662 -400 
Q 2919 -159 2919 353 
L 2919 594 
z
M 2181 2772 
Q 1834 2772 1640 2515 
Q 1447 2259 1447 1791 
Q 1447 1309 1634 1061 
Q 1822 813 2181 813 
Q 2531 813 2725 1069 
Q 2919 1325 2919 1791 
Q 2919 2259 2725 2515 
Q 2531 2772 2181 2772 
z
" transform="scale(0.015625)"/>
     </defs>
     <use xlink:href="#DejaVuSans-Bold-45"/>
     <use xlink:href="#DejaVuSans-Bold-72" transform="translate(68.310547 0)"/>
     <use xlink:href="#DejaVuSans-Bold-64" transform="translate(117.626953 0)"/>
     <use xlink:href="#DejaVuSans-Bold-151" transform="translate(189.208984 0)"/>
     <use xlink:href="#DejaVuSans-Bold-73" transform="translate(257.910156 0)"/>
     <use xlink:href="#DejaVuSans-Bold-20" transform="translate(317.431641 0)"/>
     <use xlink:href="#DejaVuSans-Bold-50" transform="translate(352.246094 0)"/>
     <use xlink:href="#DejaVuSans-Bold-72" transform="translate(425.537109 0)"/>
     <use xlink:href="#DejaVuSans-Bold-6f" transform="translate(474.853516 0)"/>
     <use xlink:href="#DejaVuSans-Bold-62" transform="translate(543.554688 0)"/>
     <use xlink:href="#DejaVuSans-Bold-6c" transform="translate(615.136719 0)"/>
     <use xlink:href="#DejaVuSans-Bold-65" transform="translate(649.414062 0)"/>
     <use xlink:href="#DejaVuSans-Bold-6d" transform="translate(717.236328 0)"/>
     <use xlink:href="#DejaVuSans-Bold-73" transform="translate(821.435547 0)"/>
     <use xlink:href="#DejaVuSans-Bold-20" transform="translate(880.957031 0)"/>
     <use xlink:href="#DejaVuSans-Bold-50" transform="translate(915.771484 0)"/>
     <use xlink:href="#DejaVuSans-Bold-72" transform="translate(989.0625 0)"/>
     <use xlink:href="#DejaVuSans-Bold-6f" transform="translate(1038.378906 0)"/>
     <use xlink:href="#DejaVuSans-Bold-67" transform="translate(1107.080078 0)"/>
     <use xlink:href="#DejaVuSans-Bold-72" transform="translate(1178.662109 0)"/>
     <use xlink:href="#DejaVuSans-Bold-65" transform="translate(1227.978516 0)"/>
     <use xlink:href="#DejaVuSans-Bold-73" transform="translate(1295.800781 0)"/>
     <use xlink:href="#DejaVuSans-Bold-73" transform="translate(1355.322266 0)"/>
    </g>
   </g>
   <g id="legend_1">
    <g id="patch_7">
     <path d="M 55.90125 119.788437 
L 213.771563 119.788437 
Q 215.771563 119.788437 215.771563 117.788437 
L 215.771563 45.397812 
Q 215.771563 43.397812 213.771563 43.397812 
L 55.90125 43.397812 
Q 53.90125 43.397812 53.90125 45.397812 
L 53.90125 117.788437 
Q 53.90125 119.788437 55.90125 119.788437 
z
" style="fill: #161b22; opacity: 0.8; stroke: #30363d; stroke-linejoin: miter"/>
    </g>
    <g id="line2d_36">
     <path d="M 57.90125 51.49625 
L 67.90125 51.49625 
L 77.90125 51.49625 
" style="fill: none; stroke: #3fb950; stroke-width: 2; stroke-linecap: square"/>
    </g>
    <g id="text_24">
     <!-- Solved -->
     <g style="fill: #c9d1d9" transform="translate(85.90125 54.99625) scale(0.1 -0.1)">
      <defs>
       <path id="DejaVuSans-6c" d="M 603 4863 
L 1178 4863 
L 1178 0 
L 603 0 
L 603 4863 
z
" transform="scale(0.015625)"/>
       <path id="DejaVuSans-64" d="M 2906 2969 
L 2906 4863 
L 3481 4863 
L 3481 0 
L 2906 0 
L 2906 525 
Q 2725 213 2448 61 
Q 2172 -91 1784 -91 
Q 1150 -91 751 415 
Q 353 922 353 1747 
Q 353 2572 751 3078 
Q 1150 3584 1784 3584 
Q 2172 3584 2448 3432 
Q 2725 3281 2906 2969 
z
M 947 1747 
Q 947 1113 1208 752 
Q 1469 391 1925 391 
Q 2381 391 2643 752 
Q 2906 1113 2906 1747 
Q 2906 2381 2643 2742 
Q 2381 3103 1925 3103 
Q 1469 3103 1208 2742 
Q 947 2381 947 1747 
z
" transform="scale(0.015625)"/>
      </defs>
      <use xlink:href="#DejaVuSans-53"/>
      <use xlink:href="#DejaVuSans-6f" transform="translate(63.476562 0)"/>
      <use xlink:href="#DejaVuSans-6c" transform="translate(124.658203 0)"/>
      <use xlink:href="#DejaVuSans-76" transform="translate(152.441406 0)"/>
      <use xlink:href="#DejaVuSans-65" transform="translate(211.621094 0)"/>
      <use xlink:href="#DejaVuSans-64" transform="translate(273.144531 0)"/>
     </g>
    </g>
    <g id="line2d_37">
     <path d="M 57.90125 66.174375 
L 67.90125 66.174375 
L 77.90125 66.174375 
" style="fill: none; stroke: #58a6ff; stroke-width: 2; stroke-linecap: square"/>
    </g>
    <g id="text_25">
     <!-- Lean Formalized Problem -->
     <g style="fill: #c9d1d9" transform="translate(85.90125 69.674375) scale(0.1 -0.1)">
      <defs>
       <path id="DejaVuSans-4c" d="M 628 4666 
L 1259 4666 
L 1259 531 
L 3531 531 
L 3531 0 
L 628 0 
L 628 4666 
z
" transform="scale(0.015625)"/>
       <path id="DejaVuSans-20" transform="scale(0.015625)"/>
       <path id="DejaVuSans-6d" d="M 3328 2828 
Q 3544 3216 3844 3400 
Q 4144 3584 4550 3584 
Q 5097 3584 5394 3201 
Q 5691 2819 5691 2113 
L 5691 0 
L 5113 0 
L 5113 2094 
Q 5113 2597 4934 2840 
Q 4756 3084 4391 3084 
Q 3944 3084 3684 2787 
Q 3425 2491 3425 1978 
L 3425 0 
L 2847 0 
L 2847 2094 
Q 2847 2600 2669 2842 
Q 2491 3084 2119 3084 
Q 1678 3084 1418 2786 
Q 1159 2488 1159 1978 
L 1159 0 
L 581 0 
L 581 3500 
L 1159 3500 
L 1159 2956 
Q 1356 3278 1631 3431 
Q 1906 3584 2284 3584 
Q 2666 3584 2933 3390 
Q 3200 3197 3328 2828 
z
" transform="scale(0.015625)"/>
       <path id="DejaVuSans-69" d="M 603 3500 
L 1178 3500 
L 1178 0 
L 603 0 
L 603 3500 
z
M 603 4863 
L 1178 4863 
L 1178 4134 
L 603 4134 
L 603 4863 
z
" transform="scale(0.015625)"/>
       <path id="DejaVuSans-7a" d="M 353 3500 
L 3084 3500 
L 3084 2975 
L 922 459 
L 3084 459 
L 3084 0 
L 275 0 
L 275 525 
L 2438 3041 
L 353 3041 
L 353 3500 
z
" transform="scale(0.015625)"/>
       <path id="DejaVuSans-50" d="M 1259 4147 
L 1259 2394 
L 2053 2394 
Q 2494 2394 2734 2622 
Q 2975 2850 2975 3272 
Q 2975 3691 2734 3919 
Q 2494 4147 2053 4147 
L 1259 4147 
z
M 628 4666 
L 2053 4666 
Q 2838 4666 3239 4311 
Q 3641 3956 3641 3272 
Q 3641 2581 3239 2228 
Q 2838 1875 2053 1875 
L 1259 1875 
L 1259 0 
L 628 0 
L 628 4666 
z
" transform="scale(0.015625)"/>
      </defs>
      <use xlink:href="#DejaVuSans-4c"/>
      <use xlink:href="#DejaVuSans-65" transform="translate(53.962891 0)"/>
      <use xlink:href="#DejaVuSans-61" transform="translate(115.486328 0)"/>
      <use xlink:href="#DejaVuSans-6e" transform="translate(176.765625 0)"/>
      <use xlink:href="#DejaVuSans-20" transform="translate(240.144531 0)"/>
      <use xlink:href="#DejaVuSans-46" transform="translate(271.931641 0)"/>
      <use xlink:href="#DejaVuSans-6f" transform="translate(325.826172 0)"/>
      <use xlink:href="#DejaVuSans-72" transform="translate(387.007812 0)"/>
      <use xlink:href="#DejaVuSans-6d" transform="translate(426.371094 0)"/>
      <use xlink:href="#DejaVuSans-61" transform="translate(523.783203 0)"/>
      <use xlink:href="#DejaVuSans-6c" transform="translate(585.0625 0)"/>
      <use xlink:href="#DejaVuSans-69" transform="translate(612.845703 0)"/>
      <use xlink:href="#DejaVuSans-7a" transform="translate(640.628906 0)"/>
      <use xlink:href="#DejaVuSans-65" transform="translate(693.119141 0)"/>
      <use xlink:href="#DejaVuSans-64" transform="translate(754.642578 0)"/>
      <use xlink:href="#DejaVuSans-20" transform="translate(818.119141 0)"/>
      <use xlink:href="#DejaVuSans-50" transform="translate(849.90625 0)"/>
      <use xlink:href="#DejaVuSans-72" transform="translate(908.458984 0)"/>
      <use xlink:href="#DejaVuSans-6f" transform="translate(947.322266 0)"/>
      <use xlink:href="#DejaVuSans-62" transform="translate(1008.503906 0)"/>
      <use xlink:href="#DejaVuSans-6c" transform="translate(1071.980469 0)"/>
      <use xlink:href="#DejaVuSans-65" transform="translate(1099.763672 0)"/>
      <use xlink:href="#DejaVuSans-6d" transform="translate(1161.287109 0)"/>
     </g>
    </g>
    <g id="line2d_38">
     <path d="M 57.90125 80.8525 
L 67.90125 80.8525 
L 77.90125 80.8525 
" style="fill: none; stroke: #d29922; stroke-width: 2; stroke-linecap: square"/>
    </g>
    <g id="text_26">
     <!-- Lean Formalized Solution -->
     <g style="fill: #c9d1d9" transform="translate(85.90125 84.3525) scale(0.1 -0.1)">
      <use xlink:href="#DejaVuSans-4c"/>
      <use xlink:href="#DejaVuSans-65" transform="translate(53.962891 0)"/>
      <use xlink:href="#DejaVuSans-61" transform="translate(115.486328 0)"/>
      <use xlink:href="#DejaVuSans-6e" transform="translate(176.765625 0)"/>
      <use xlink:href="#DejaVuSans-20" transform="translate(240.144531 0)"/>
      <use xlink:href="#DejaVuSans-46" transform="translate(271.931641 0)"/>
      <use xlink:href="#DejaVuSans-6f" transform="translate(325.826172 0)"/>
      <use xlink:href="#DejaVuSans-72" transform="translate(387.007812 0)"/>
      <use xlink:href="#DejaVuSans-6d" transform="translate(426.371094 0)"/>
      <use xlink:href="#DejaVuSans-61" transform="translate(523.783203 0)"/>
      <use xlink:href="#DejaVuSans-6c" transform="translate(585.0625 0)"/>
      <use xlink:href="#DejaVuSans-69" transform="translate(612.845703 0)"/>
      <use xlink:href="#DejaVuSans-7a" transform="translate(640.628906 0)"/>
      <use xlink:href="#DejaVuSans-65" transform="translate(693.119141 0)"/>
      <use xlink:href="#DejaVuSans-64" transform="translate(754.642578 0)"/>
      <use xlink:href="#DejaVuSans-20" transform="translate(818.119141 0)"/>
      <use xlink:href="#DejaVuSans-53" transform="translate(849.90625 0)"/>
      <use xlink:href="#DejaVuSans-6f" transform="translate(913.382812 0)"/>
      <use xlink:href="#DejaVuSans-6c" transform="translate(974.564453 0)"/>
      <use xlink:href="#DejaVuSans-75" transform="translate(1002.347656 0)"/>
      <use xlink:href="#DejaVuSans-74" transform="translate(1065.726562 0)"/>
      <use xlink:href="#DejaVuSans-69" transform="translate(1104.935547 0)"/>
      <use xlink:href="#DejaVuSans-6f" transform="translate(1132.71875 0)"/>
      <use xlink:href="#DejaVuSans-6e" transform="translate(1193.900391 0)"/>
     </g>
    </g>
    <g id="line2d_39">
     <path d="M 57.90125 95.530625 
L 67.90125 95.530625 
L 77.90125 95.530625 
" style="fill: none; stroke: #f85149; stroke-width: 2; stroke-linecap: square"/>
    </g>
    <g id="text_27">
     <!-- OEIS Linked -->
     <g style="fill: #c9d1d9" transform="translate(85.90125 99.030625) scale(0.1 -0.1)">
      <defs>
       <path id="DejaVuSans-45" d="M 628 4666 
L 3578 4666 
L 3578 4134 
L 1259 4134 
L 1259 2753 
L 3481 2753 
L 3481 2222 
L 1259 2222 
L 1259 531 
L 3634 531 
L 3634 0 
L 628 0 
L 628 4666 
z
" transform="scale(0.015625)"/>
       <path id="DejaVuSans-49" d="M 628 4666 
L 1259 4666 
L 1259 0 
L 628 0 
L 628 4666 
z
" transform="scale(0.015625)"/>
       <path id="DejaVuSans-6b" d="M 581 4863 
L 1159 4863 
L 1159 1991 
L 2875 3500 
L 3609 3500 
L 1753 1863 
L 3688 0 
L 2938 0 
L 1159 1709 
L 1159 0 
L 581 0 
L 581 4863 
z
" transform="scale(0.015625)"/>
      </defs>
      <use xlink:href="#DejaVuSans-4f"/>
      <use xlink:href="#DejaVuSans-45" transform="translate(78.710938 0)"/>
      <use xlink:href="#DejaVuSans-49" transform="translate(141.894531 0)"/>
      <use xlink:href="#DejaVuSans-53" transform="translate(171.386719 0)"/>
      <use xlink:href="#DejaVuSans-20" transform="translate(234.863281 0)"/>
      <use xlink:href="#DejaVuSans-4c" transform="translate(266.650391 0)"/>
      <use xlink:href="#DejaVuSans-69" transform="translate(322.363281 0)"/>
      <use xlink:href="#DejaVuSans-6e" transform="translate(350.146484 0)"/>
      <use xlink:href="#DejaVuSans-6b" transform="translate(413.525391 0)"/>
      <use xlink:href="#DejaVuSans-65" transform="translate(467.810547 0)"/>
      <use xlink:href="#DejaVuSans-64" transform="translate(529.333984 0)"/>
     </g>
    </g>
    <g id="line2d_40">
     <path d="M 57.90125 110.20875 
L 67.90125 110.20875 
L 77.90125 110.20875 
" style="fill: none; stroke: #9467bd; stroke-width: 2; stroke-linecap: square"/>
    </g>
    <g id="text_28">
     <!-- Open Problems -->
     <g style="fill: #c9d1d9" transform="translate(85.90125 113.70875) scale(0.1 -0.1)">
      <defs>
       <path id="DejaVuSans-73" d="M 2834 3397 
L 2834 2853 
Q 2591 2978 2328 3040 
Q 2066 3103 1784 3103 
Q 1356 3103 1142 2972 
Q 928 2841 928 2578 
Q 928 2378 1081 2264 
Q 1234 2150 1697 2047 
L 1894 2003 
Q 2506 1872 2764 1633 
Q 3022 1394 3022 966 
Q 3022 478 2636 193 
Q 2250 -91 1575 -91 
Q 1294 -91 989 -36 
Q 684 19 347 128 
L 347 722 
Q 666 556 975 473 
Q 1284 391 1588 391 
Q 1994 391 2212 530 
Q 2431 669 2431 922 
Q 2431 1156 2273 1281 
Q 2116 1406 1581 1522 
L 1381 1569 
Q 847 1681 609 1914 
Q 372 2147 372 2553 
Q 372 3047 722 3315 
Q 1072 3584 1716 3584 
Q 2034 3584 2315 3537 
Q 2597 3491 2834 3397 
z
" transform="scale(0.015625)"/>
      </defs>
      <use xlink:href="#DejaVuSans-4f"/>
      <use xlink:href="#DejaVuSans-70" transform="translate(78.710938 0)"/>
      <use xlink:href="#DejaVuSans-65" transform="translate(142.1875 0)"/>
      <use xlink:href="#DejaVuSans-6e" transform="translate(203.710938 0)"/>
      <use xlink:href="#DejaVuSans-20" transform="translate(267.089844 0)"/>
      <use xlink:href="#DejaVuSans-50" transform="translate(298.876953 0)"/>
      <use xlink:href="#DejaVuSans-72" transform="translate(357.429688 0)"/>
      <use xlink:href="#DejaVuSans-6f" transform="translate(396.292969 0)"/>
      <use xlink:href="#DejaVuSans-62" transform="translate(457.474609 0)"/>
      <use xlink:href="#DejaVuSans-6c" transform="translate(520.951172 0)"/>
      <use xlink:href="#DejaVuSans-65" transform="translate(548.734375 0)"/>
      <use xlink:href="#DejaVuSans-6d" transform="translate(610.257812 0)"/>
      <use xlink:href="#DejaVuSans-73" transform="translate(707.669922 0)"/>
     </g>
    </g>
   </g>
  </g>
 </g>
 <defs>
  <clipPath id="p6071247119">
   <rect x="48.90125" y="38.397812" width="799.45" height="416.84"/>
  </clipPath>
 </defs>
</svg>
