<?xml version="1.0" encoding="utf-8" standalone="no"?>
<!DOCTYPE svg PUBLIC "-//W3C//DTD SVG 1.1//EN"
  "http://www.w3.org/Graphics/SVG/1.1/DTD/svg11.dtd">
<svg xmlns:xlink="http://www.w3.org/1999/xlink" width="855.55125pt" height="494.729687pt" viewBox="0 0 855.55125 494.729687" xmlns="http://www.w3.org/2000/svg" version="1.1">
 <metadata>
  <rdf:RDF xmlns:dc="http://purl.org/dc/elements/1.1/" xmlns:cc="http://creativecommons.org/ns#" xmlns:rdf="http://www.w3.org/1999/02/22-rdf-syntax-ns#">
   <cc:Work>
    <dc:type rdf:resource="http://purl.org/dc/dcmitype/StillImage"/>
    <dc:date>2026-05-07T17:41:10.190928</dc:date>
    <dc:format>image/svg+xml</dc:format>
    <dc:creator>
     <cc:Agent>
      <dc:title>Matplotlib v3.10.7, https://matplotlib.org/</dc:title>
     </cc:Agent>
    </dc:creator>
   </cc:Work>
  </rdf:RDF>
 </metadata>
 <defs>
  <style type="text/css">*{stroke-linejoin: round; stroke-linecap: butt}</style>
 </defs>
 <g id="figure_1">
  <g id="patch_1">
   <path d="M 0 494.729687 
L 855.55125 494.729687 
L 855.55125 0 
L 0 0 
z
" style="fill: #ffffff"/>
  </g>
  <g id="axes_1">
   <g id="patch_2">
    <path d="M 48.90125 455.237812 
L 848.35125 455.237812 
L 848.35125 38.397812 
L 48.90125 38.397812 
z
" style="fill: #ffffff"/>
   </g>
   <g id="matplotlib.axis_1">
    <g id="xtick_1">
     <g id="line2d_1">
      <path d="M 86.093052 455.237812 
L 86.093052 38.397812 
" clip-path="url(#pc1a504c4dc)" style="fill: none; stroke: #d0d7de; stroke-opacity: 0.25; stroke-width: 0.5; stroke-linecap: square"/>
     </g>
     <g id="line2d_2">
      <defs>
       <path id="m7b78f4c99d" d="M 0 0 
L 0 3.5 
" style="stroke: #24292f; stroke-width: 0.8"/>
      </defs>
      <g>
       <use xlink:href="#m7b78f4c99d" x="86.093052" y="455.237812" style="fill: #24292f; stroke: #24292f; stroke-width: 0.8"/>
      </g>
     </g>
     <g id="text_1">
      <!-- Sep -->
      <g style="fill: #24292f" transform="translate(76.668052 469.83625) scale(0.1 -0.1)">
       <defs>
        <path id="DejaVuSans-53" d="M 3425 4513 
L 3425 3897 
Q 3066 4069 2747 4153 
Q 2428 4238 2131 4238 
Q 1616 4238 1336 4038 
Q 1056 3838 1056 3469 
Q 1056 3159 1242 3001 
Q 1428 2844 1947 2747 
L 2328 2669 
Q 3034 2534 3370 2195 
Q 3706 1856 3706 1288 
Q 3706 609 3251 259 
Q 2797 -91 1919 -91 
Q 1588 -91 1214 -16 
Q 841 59 441 206 
L 441 856 
Q 825 641 1194 531 
Q 1563 422 1919 422 
Q 2459 422 2753 634 
Q 3047 847 3047 1241 
Q 3047 1584 2836 1778 
Q 2625 1972 2144 2069 
L 1759 2144 
Q 1053 2284 737 2584 
Q 422 2884 422 3419 
Q 422 4038 858 4394 
Q 1294 4750 2059 4750 
Q 2388 4750 2728 4690 
Q 3069 4631 3425 4513 
z
" transform="scale(0.015625)"/>
        <path id="DejaVuSans-65" d="M 3597 1894 
L 3597 1613 
L 953 1613 
Q 991 1019 1311 708 
Q 1631 397 2203 397 
Q 2534 397 2845 478 
Q 3156 559 3463 722 
L 3463 178 
Q 3153 47 2828 -22 
Q 2503 -91 2169 -91 
Q 1331 -91 842 396 
Q 353 884 353 1716 
Q 353 2575 817 3079 
Q 1281 3584 2069 3584 
Q 2775 3584 3186 3129 
Q 3597 2675 3597 1894 
z
M 3022 2063 
Q 3016 2534 2758 2815 
Q 2500 3097 2075 3097 
Q 1594 3097 1305 2825 
Q 1016 2553 972 2059 
L 3022 2063 
z
" transform="scale(0.015625)"/>
        <path id="DejaVuSans-70" d="M 1159 525 
L 1159 -1331 
L 581 -1331 
L 581 3500 
L 1159 3500 
L 1159 2969 
Q 1341 3281 1617 3432 
Q 1894 3584 2278 3584 
Q 2916 3584 3314 3078 
Q 3713 2572 3713 1747 
Q 3713 922 3314 415 
Q 2916 -91 2278 -91 
Q 1894 -91 1617 61 
Q 1341 213 1159 525 
z
M 3116 1747 
Q 3116 2381 2855 2742 
Q 2594 3103 2138 3103 
Q 1681 3103 1420 2742 
Q 1159 2381 1159 1747 
Q 1159 1113 1420 752 
Q 1681 391 2138 391 
Q 2594 391 2855 752 
Q 3116 1113 3116 1747 
z
" transform="scale(0.015625)"/>
       </defs>
       <use xlink:href="#DejaVuSans-53"/>
       <use xlink:href="#DejaVuSans-65" transform="translate(63.476562 0)"/>
       <use xlink:href="#DejaVuSans-70" transform="translate(125 0)"/>
      </g>
     </g>
    </g>
    <g id="xtick_2">
     <g id="line2d_3">
      <path d="M 173.645743 455.237812 
L 173.645743 38.397812 
" clip-path="url(#pc1a504c4dc)" style="fill: none; stroke: #d0d7de; stroke-opacity: 0.25; stroke-width: 0.5; stroke-linecap: square"/>
     </g>
     <g id="line2d_4">
      <g>
       <use xlink:href="#m7b78f4c99d" x="173.645743" y="455.237812" style="fill: #24292f; stroke: #24292f; stroke-width: 0.8"/>
      </g>
     </g>
     <g id="text_2">
      <!-- Oct -->
      <g style="fill: #24292f" transform="translate(165.000431 469.83625) scale(0.1 -0.1)">
       <defs>
        <path id="DejaVuSans-4f" d="M 2522 4238 
Q 1834 4238 1429 3725 
Q 1025 3213 1025 2328 
Q 1025 1447 1429 934 
Q 1834 422 2522 422 
Q 3209 422 3611 934 
Q 4013 1447 4013 2328 
Q 4013 3213 3611 3725 
Q 3209 4238 2522 4238 
z
M 2522 4750 
Q 3503 4750 4090 4092 
Q 4678 3434 4678 2328 
Q 4678 1225 4090 567 
Q 3503 -91 2522 -91 
Q 1538 -91 948 565 
Q 359 1222 359 2328 
Q 359 3434 948 4092 
Q 1538 4750 2522 4750 
z
" transform="scale(0.015625)"/>
        <path id="DejaVuSans-63" d="M 3122 3366 
L 3122 2828 
Q 2878 2963 2633 3030 
Q 2388 3097 2138 3097 
Q 1578 3097 1268 2742 
Q 959 2388 959 1747 
Q 959 1106 1268 751 
Q 1578 397 2138 397 
Q 2388 397 2633 464 
Q 2878 531 3122 666 
L 3122 134 
Q 2881 22 2623 -34 
Q 2366 -91 2075 -91 
Q 1284 -91 818 406 
Q 353 903 353 1747 
Q 353 2603 823 3093 
Q 1294 3584 2113 3584 
Q 2378 3584 2631 3529 
Q 2884 3475 3122 3366 
z
" transform="scale(0.015625)"/>
        <path id="DejaVuSans-74" d="M 1172 4494 
L 1172 3500 
L 2356 3500 
L 2356 3053 
L 1172 3053 
L 1172 1153 
Q 1172 725 1289 603 
Q 1406 481 1766 481 
L 2356 481 
L 2356 0 
L 1766 0 
Q 1100 0 847 248 
Q 594 497 594 1153 
L 594 3053 
L 172 3053 
L 172 3500 
L 594 3500 
L 594 4494 
L 1172 4494 
z
" transform="scale(0.015625)"/>
       </defs>
       <use xlink:href="#DejaVuSans-4f"/>
       <use xlink:href="#DejaVuSans-63" transform="translate(78.710938 0)"/>
       <use xlink:href="#DejaVuSans-74" transform="translate(133.691406 0)"/>
      </g>
     </g>
    </g>
    <g id="xtick_3">
     <g id="line2d_5">
      <path d="M 264.116858 455.237812 
L 264.116858 38.397812 
" clip-path="url(#pc1a504c4dc)" style="fill: none; stroke: #d0d7de; stroke-opacity: 0.25; stroke-width: 0.5; stroke-linecap: square"/>
     </g>
     <g id="line2d_6">
      <g>
       <use xlink:href="#m7b78f4c99d" x="264.116858" y="455.237812" style="fill: #24292f; stroke: #24292f; stroke-width: 0.8"/>
      </g>
     </g>
     <g id="text_3">
      <!-- Nov -->
      <g style="fill: #24292f" transform="translate(254.357483 469.83625) scale(0.1 -0.1)">
       <defs>
        <path id="DejaVuSans-4e" d="M 628 4666 
L 1478 4666 
L 3547 763 
L 3547 4666 
L 4159 4666 
L 4159 0 
L 3309 0 
L 1241 3903 
L 1241 0 
L 628 0 
L 628 4666 
z
" transform="scale(0.015625)"/>
        <path id="DejaVuSans-6f" d="M 1959 3097 
Q 1497 3097 1228 2736 
Q 959 2375 959 1747 
Q 959 1119 1226 758 
Q 1494 397 1959 397 
Q 2419 397 2687 759 
Q 2956 1122 2956 1747 
Q 2956 2369 2687 2733 
Q 2419 3097 1959 3097 
z
M 1959 3584 
Q 2709 3584 3137 3096 
Q 3566 2609 3566 1747 
Q 3566 888 3137 398 
Q 2709 -91 1959 -91 
Q 1206 -91 779 398 
Q 353 888 353 1747 
Q 353 2609 779 3096 
Q 1206 3584 1959 3584 
z
" transform="scale(0.015625)"/>
        <path id="DejaVuSans-76" d="M 191 3500 
L 800 3500 
L 1894 563 
L 2988 3500 
L 3597 3500 
L 2284 0 
L 1503 0 
L 191 3500 
z
" transform="scale(0.015625)"/>
       </defs>
       <use xlink:href="#DejaVuSans-4e"/>
       <use xlink:href="#DejaVuSans-6f" transform="translate(74.804688 0)"/>
       <use xlink:href="#DejaVuSans-76" transform="translate(135.986328 0)"/>
      </g>
     </g>
    </g>
    <g id="xtick_4">
     <g id="line2d_7">
      <path d="M 351.669549 455.237812 
L 351.669549 38.397812 
" clip-path="url(#pc1a504c4dc)" style="fill: none; stroke: #d0d7de; stroke-opacity: 0.25; stroke-width: 0.5; stroke-linecap: square"/>
     </g>
     <g id="line2d_8">
      <g>
       <use xlink:href="#m7b78f4c99d" x="351.669549" y="455.237812" style="fill: #24292f; stroke: #24292f; stroke-width: 0.8"/>
      </g>
     </g>
     <g id="text_4">
      <!-- Dec -->
      <g style="fill: #24292f" transform="translate(341.993767 469.83625) scale(0.1 -0.1)">
       <defs>
        <path id="DejaVuSans-44" d="M 1259 4147 
L 1259 519 
L 2022 519 
Q 2988 519 3436 956 
Q 3884 1394 3884 2338 
Q 3884 3275 3436 3711 
Q 2988 4147 2022 4147 
L 1259 4147 
z
M 628 4666 
L 1925 4666 
Q 3281 4666 3915 4102 
Q 4550 3538 4550 2338 
Q 4550 1131 3912 565 
Q 3275 0 1925 0 
L 628 0 
L 628 4666 
z
" transform="scale(0.015625)"/>
       </defs>
       <use xlink:href="#DejaVuSans-44"/>
       <use xlink:href="#DejaVuSans-65" transform="translate(77.001953 0)"/>
       <use xlink:href="#DejaVuSans-63" transform="translate(138.525391 0)"/>
      </g>
     </g>
    </g>
    <g id="xtick_5">
     <g id="line2d_9">
      <path d="M 442.140663 455.237812 
L 442.140663 38.397812 
" clip-path="url(#pc1a504c4dc)" style="fill: none; stroke: #d0d7de; stroke-opacity: 0.25; stroke-width: 0.5; stroke-linecap: square"/>
     </g>
     <g id="line2d_10">
      <g>
       <use xlink:href="#m7b78f4c99d" x="442.140663" y="455.237812" style="fill: #24292f; stroke: #24292f; stroke-width: 0.8"/>
      </g>
     </g>
     <g id="text_5">
      <!-- 2026 -->
      <g style="fill: #24292f" transform="translate(429.415663 469.83625) scale(0.1 -0.1)">
       <defs>
        <path id="DejaVuSans-32" d="M 1228 531 
L 3431 531 
L 3431 0 
L 469 0 
L 469 531 
Q 828 903 1448 1529 
Q 2069 2156 2228 2338 
Q 2531 2678 2651 2914 
Q 2772 3150 2772 3378 
Q 2772 3750 2511 3984 
Q 2250 4219 1831 4219 
Q 1534 4219 1204 4116 
Q 875 4013 500 3803 
L 500 4441 
Q 881 4594 1212 4672 
Q 1544 4750 1819 4750 
Q 2544 4750 2975 4387 
Q 3406 4025 3406 3419 
Q 3406 3131 3298 2873 
Q 3191 2616 2906 2266 
Q 2828 2175 2409 1742 
Q 1991 1309 1228 531 
z
" transform="scale(0.015625)"/>
        <path id="DejaVuSans-30" d="M 2034 4250 
Q 1547 4250 1301 3770 
Q 1056 3291 1056 2328 
Q 1056 1369 1301 889 
Q 1547 409 2034 409 
Q 2525 409 2770 889 
Q 3016 1369 3016 2328 
Q 3016 3291 2770 3770 
Q 2525 4250 2034 4250 
z
M 2034 4750 
Q 2819 4750 3233 4129 
Q 3647 3509 3647 2328 
Q 3647 1150 3233 529 
Q 2819 -91 2034 -91 
Q 1250 -91 836 529 
Q 422 1150 422 2328 
Q 422 3509 836 4129 
Q 1250 4750 2034 4750 
z
" transform="scale(0.015625)"/>
        <path id="DejaVuSans-36" d="M 2113 2584 
Q 1688 2584 1439 2293 
Q 1191 2003 1191 1497 
Q 1191 994 1439 701 
Q 1688 409 2113 409 
Q 2538 409 2786 701 
Q 3034 994 3034 1497 
Q 3034 2003 2786 2293 
Q 2538 2584 2113 2584 
z
M 3366 4563 
L 3366 3988 
Q 3128 4100 2886 4159 
Q 2644 4219 2406 4219 
Q 1781 4219 1451 3797 
Q 1122 3375 1075 2522 
Q 1259 2794 1537 2939 
Q 1816 3084 2150 3084 
Q 2853 3084 3261 2657 
Q 3669 2231 3669 1497 
Q 3669 778 3244 343 
Q 2819 -91 2113 -91 
Q 1303 -91 875 529 
Q 447 1150 447 2328 
Q 447 3434 972 4092 
Q 1497 4750 2381 4750 
Q 2619 4750 2861 4703 
Q 3103 4656 3366 4563 
z
" transform="scale(0.015625)"/>
       </defs>
       <use xlink:href="#DejaVuSans-32"/>
       <use xlink:href="#DejaVuSans-30" transform="translate(63.623047 0)"/>
       <use xlink:href="#DejaVuSans-32" transform="translate(127.246094 0)"/>
       <use xlink:href="#DejaVuSans-36" transform="translate(190.869141 0)"/>
      </g>
     </g>
    </g>
    <g id="xtick_6">
     <g id="line2d_11">
      <path d="M 532.611777 455.237812 
L 532.611777 38.397812 
" clip-path="url(#pc1a504c4dc)" style="fill: none; stroke: #d0d7de; stroke-opacity: 0.25; stroke-width: 0.5; stroke-linecap: square"/>
     </g>
     <g id="line2d_12">
      <g>
       <use xlink:href="#m7b78f4c99d" x="532.611777" y="455.237812" style="fill: #24292f; stroke: #24292f; stroke-width: 0.8"/>
      </g>
     </g>
     <g id="text_6">
      <!-- Feb -->
      <g style="fill: #24292f" transform="translate(523.760214 469.83625) scale(0.1 -0.1)">
       <defs>
        <path id="DejaVuSans-46" d="M 628 4666 
L 3309 4666 
L 3309 4134 
L 1259 4134 
L 1259 2759 
L 3109 2759 
L 3109 2228 
L 1259 2228 
L 1259 0 
L 628 0 
L 628 4666 
z
" transform="scale(0.015625)"/>
        <path id="DejaVuSans-62" d="M 3116 1747 
Q 3116 2381 2855 2742 
Q 2594 3103 2138 3103 
Q 1681 3103 1420 2742 
Q 1159 2381 1159 1747 
Q 1159 1113 1420 752 
Q 1681 391 2138 391 
Q 2594 391 2855 752 
Q 3116 1113 3116 1747 
z
M 1159 2969 
Q 1341 3281 1617 3432 
Q 1894 3584 2278 3584 
Q 2916 3584 3314 3078 
Q 3713 2572 3713 1747 
Q 3713 922 3314 415 
Q 2916 -91 2278 -91 
Q 1894 -91 1617 61 
Q 1341 213 1159 525 
L 1159 0 
L 581 0 
L 581 4863 
L 1159 4863 
L 1159 2969 
z
" transform="scale(0.015625)"/>
       </defs>
       <use xlink:href="#DejaVuSans-46"/>
       <use xlink:href="#DejaVuSans-65" transform="translate(52.019531 0)"/>
       <use xlink:href="#DejaVuSans-62" transform="translate(113.542969 0)"/>
      </g>
     </g>
    </g>
    <g id="xtick_7">
     <g id="line2d_13">
      <path d="M 614.327622 455.237812 
L 614.327622 38.397812 
" clip-path="url(#pc1a504c4dc)" style="fill: none; stroke: #d0d7de; stroke-opacity: 0.25; stroke-width: 0.5; stroke-linecap: square"/>
     </g>
     <g id="line2d_14">
      <g>
       <use xlink:href="#m7b78f4c99d" x="614.327622" y="455.237812" style="fill: #24292f; stroke: #24292f; stroke-width: 0.8"/>
      </g>
     </g>
     <g id="text_7">
      <!-- Mar -->
      <g style="fill: #24292f" transform="translate(604.894028 469.83625) scale(0.1 -0.1)">
       <defs>
        <path id="DejaVuSans-4d" d="M 628 4666 
L 1569 4666 
L 2759 1491 
L 3956 4666 
L 4897 4666 
L 4897 0 
L 4281 0 
L 4281 4097 
L 3078 897 
L 2444 897 
L 1241 4097 
L 1241 0 
L 628 0 
L 628 4666 
z
" transform="scale(0.015625)"/>
        <path id="DejaVuSans-61" d="M 2194 1759 
Q 1497 1759 1228 1600 
Q 959 1441 959 1056 
Q 959 750 1161 570 
Q 1363 391 1709 391 
Q 2188 391 2477 730 
Q 2766 1069 2766 1631 
L 2766 1759 
L 2194 1759 
z
M 3341 1997 
L 3341 0 
L 2766 0 
L 2766 531 
Q 2569 213 2275 61 
Q 1981 -91 1556 -91 
Q 1019 -91 701 211 
Q 384 513 384 1019 
Q 384 1609 779 1909 
Q 1175 2209 1959 2209 
L 2766 2209 
L 2766 2266 
Q 2766 2663 2505 2880 
Q 2244 3097 1772 3097 
Q 1472 3097 1187 3025 
Q 903 2953 641 2809 
L 641 3341 
Q 956 3463 1253 3523 
Q 1550 3584 1831 3584 
Q 2591 3584 2966 3190 
Q 3341 2797 3341 1997 
z
" transform="scale(0.015625)"/>
        <path id="DejaVuSans-72" d="M 2631 2963 
Q 2534 3019 2420 3045 
Q 2306 3072 2169 3072 
Q 1681 3072 1420 2755 
Q 1159 2438 1159 1844 
L 1159 0 
L 581 0 
L 581 3500 
L 1159 3500 
L 1159 2956 
Q 1341 3275 1631 3429 
Q 1922 3584 2338 3584 
Q 2397 3584 2469 3576 
Q 2541 3569 2628 3553 
L 2631 2963 
z
" transform="scale(0.015625)"/>
       </defs>
       <use xlink:href="#DejaVuSans-4d"/>
       <use xlink:href="#DejaVuSans-61" transform="translate(86.279297 0)"/>
       <use xlink:href="#DejaVuSans-72" transform="translate(147.558594 0)"/>
      </g>
     </g>
    </g>
    <g id="xtick_8">
     <g id="line2d_15">
      <path d="M 704.798736 455.237812 
L 704.798736 38.397812 
" clip-path="url(#pc1a504c4dc)" style="fill: none; stroke: #d0d7de; stroke-opacity: 0.25; stroke-width: 0.5; stroke-linecap: square"/>
     </g>
     <g id="line2d_16">
      <g>
       <use xlink:href="#m7b78f4c99d" x="704.798736" y="455.237812" style="fill: #24292f; stroke: #24292f; stroke-width: 0.8"/>
      </g>
     </g>
     <g id="text_8">
      <!-- Apr -->
      <g style="fill: #24292f" transform="translate(696.148736 469.83625) scale(0.1 -0.1)">
       <defs>
        <path id="DejaVuSans-41" d="M 2188 4044 
L 1331 1722 
L 3047 1722 
L 2188 4044 
z
M 1831 4666 
L 2547 4666 
L 4325 0 
L 3669 0 
L 3244 1197 
L 1141 1197 
L 716 0 
L 50 0 
L 1831 4666 
z
" transform="scale(0.015625)"/>
       </defs>
       <use xlink:href="#DejaVuSans-41"/>
       <use xlink:href="#DejaVuSans-70" transform="translate(68.408203 0)"/>
       <use xlink:href="#DejaVuSans-72" transform="translate(131.884766 0)"/>
      </g>
     </g>
    </g>
    <g id="xtick_9">
     <g id="line2d_17">
      <path d="M 792.351427 455.237812 
L 792.351427 38.397812 
" clip-path="url(#pc1a504c4dc)" style="fill: none; stroke: #d0d7de; stroke-opacity: 0.25; stroke-width: 0.5; stroke-linecap: square"/>
     </g>
     <g id="line2d_18">
      <g>
       <use xlink:href="#m7b78f4c99d" x="792.351427" y="455.237812" style="fill: #24292f; stroke: #24292f; stroke-width: 0.8"/>
      </g>
     </g>
     <g id="text_9">
      <!-- May -->
      <g style="fill: #24292f" transform="translate(782.013927 469.83625) scale(0.1 -0.1)">
       <defs>
        <path id="DejaVuSans-79" d="M 2059 -325 
Q 1816 -950 1584 -1140 
Q 1353 -1331 966 -1331 
L 506 -1331 
L 506 -850 
L 844 -850 
Q 1081 -850 1212 -737 
Q 1344 -625 1503 -206 
L 1606 56 
L 191 3500 
L 800 3500 
L 1894 763 
L 2988 3500 
L 3597 3500 
L 2059 -325 
z
" transform="scale(0.015625)"/>
       </defs>
       <use xlink:href="#DejaVuSans-4d"/>
       <use xlink:href="#DejaVuSans-61" transform="translate(86.279297 0)"/>
       <use xlink:href="#DejaVuSans-79" transform="translate(147.558594 0)"/>
      </g>
     </g>
    </g>
    <g id="text_10">
     <!-- Date -->
     <g style="fill: #24292f" transform="translate(434.285312 485.034062) scale(0.12 -0.12)">
      <use xlink:href="#DejaVuSans-44"/>
      <use xlink:href="#DejaVuSans-61" transform="translate(77.001953 0)"/>
      <use xlink:href="#DejaVuSans-74" transform="translate(138.28125 0)"/>
      <use xlink:href="#DejaVuSans-65" transform="translate(177.490234 0)"/>
     </g>
    </g>
   </g>
   <g id="matplotlib.axis_2">
    <g id="ytick_1">
     <g id="line2d_19">
      <path d="M 48.90125 455.237812 
L 848.35125 455.237812 
" clip-path="url(#pc1a504c4dc)" style="fill: none; stroke: #d0d7de; stroke-opacity: 0.25; stroke-width: 0.5; stroke-linecap: square"/>
     </g>
     <g id="line2d_20">
      <defs>
       <path id="me105f86ae8" d="M 0 0 
L -3.5 0 
" style="stroke: #24292f; stroke-width: 0.8"/>
      </defs>
      <g>
       <use xlink:href="#me105f86ae8" x="48.90125" y="455.237812" style="fill: #24292f; stroke: #24292f; stroke-width: 0.8"/>
      </g>
     </g>
     <g id="text_11">
      <!-- 0 -->
      <g style="fill: #24292f" transform="translate(35.53875 459.037031) scale(0.1 -0.1)">
       <use xlink:href="#DejaVuSans-30"/>
      </g>
     </g>
    </g>
    <g id="ytick_2">
     <g id="line2d_21">
      <path d="M 48.90125 399.659146 
L 848.35125 399.659146 
" clip-path="url(#pc1a504c4dc)" style="fill: none; stroke: #d0d7de; stroke-opacity: 0.25; stroke-width: 0.5; stroke-linecap: square"/>
     </g>
     <g id="line2d_22">
      <g>
       <use xlink:href="#me105f86ae8" x="48.90125" y="399.659146" style="fill: #24292f; stroke: #24292f; stroke-width: 0.8"/>
      </g>
     </g>
     <g id="text_12">
      <!-- 100 -->
      <g style="fill: #24292f" transform="translate(22.81375 403.458365) scale(0.1 -0.1)">
       <defs>
        <path id="DejaVuSans-31" d="M 794 531 
L 1825 531 
L 1825 4091 
L 703 3866 
L 703 4441 
L 1819 4666 
L 2450 4666 
L 2450 531 
L 3481 531 
L 3481 0 
L 794 0 
L 794 531 
z
" transform="scale(0.015625)"/>
       </defs>
       <use xlink:href="#DejaVuSans-31"/>
       <use xlink:href="#DejaVuSans-30" transform="translate(63.623047 0)"/>
       <use xlink:href="#DejaVuSans-30" transform="translate(127.246094 0)"/>
      </g>
     </g>
    </g>
    <g id="ytick_3">
     <g id="line2d_23">
      <path d="M 48.90125 344.080479 
L 848.35125 344.080479 
" clip-path="url(#pc1a504c4dc)" style="fill: none; stroke: #d0d7de; stroke-opacity: 0.25; stroke-width: 0.5; stroke-linecap: square"/>
     </g>
     <g id="line2d_24">
      <g>
       <use xlink:href="#me105f86ae8" x="48.90125" y="344.080479" style="fill: #24292f; stroke: #24292f; stroke-width: 0.8"/>
      </g>
     </g>
     <g id="text_13">
      <!-- 200 -->
      <g style="fill: #24292f" transform="translate(22.81375 347.879698) scale(0.1 -0.1)">
       <use xlink:href="#DejaVuSans-32"/>
       <use xlink:href="#DejaVuSans-30" transform="translate(63.623047 0)"/>
       <use xlink:href="#DejaVuSans-30" transform="translate(127.246094 0)"/>
      </g>
     </g>
    </g>
    <g id="ytick_4">
     <g id="line2d_25">
      <path d="M 48.90125 288.501812 
L 848.35125 288.501812 
" clip-path="url(#pc1a504c4dc)" style="fill: none; stroke: #d0d7de; stroke-opacity: 0.25; stroke-width: 0.5; stroke-linecap: square"/>
     </g>
     <g id="line2d_26">
      <g>
       <use xlink:href="#me105f86ae8" x="48.90125" y="288.501812" style="fill: #24292f; stroke: #24292f; stroke-width: 0.8"/>
      </g>
     </g>
     <g id="text_14">
      <!-- 300 -->
      <g style="fill: #24292f" transform="translate(22.81375 292.301031) scale(0.1 -0.1)">
       <defs>
        <path id="DejaVuSans-33" d="M 2597 2516 
Q 3050 2419 3304 2112 
Q 3559 1806 3559 1356 
Q 3559 666 3084 287 
Q 2609 -91 1734 -91 
Q 1441 -91 1130 -33 
Q 819 25 488 141 
L 488 750 
Q 750 597 1062 519 
Q 1375 441 1716 441 
Q 2309 441 2620 675 
Q 2931 909 2931 1356 
Q 2931 1769 2642 2001 
Q 2353 2234 1838 2234 
L 1294 2234 
L 1294 2753 
L 1863 2753 
Q 2328 2753 2575 2939 
Q 2822 3125 2822 3475 
Q 2822 3834 2567 4026 
Q 2313 4219 1838 4219 
Q 1578 4219 1281 4162 
Q 984 4106 628 3988 
L 628 4550 
Q 988 4650 1302 4700 
Q 1616 4750 1894 4750 
Q 2613 4750 3031 4423 
Q 3450 4097 3450 3541 
Q 3450 3153 3228 2886 
Q 3006 2619 2597 2516 
z
" transform="scale(0.015625)"/>
       </defs>
       <use xlink:href="#DejaVuSans-33"/>
       <use xlink:href="#DejaVuSans-30" transform="translate(63.623047 0)"/>
       <use xlink:href="#DejaVuSans-30" transform="translate(127.246094 0)"/>
      </g>
     </g>
    </g>
    <g id="ytick_5">
     <g id="line2d_27">
      <path d="M 48.90125 232.923146 
L 848.35125 232.923146 
" clip-path="url(#pc1a504c4dc)" style="fill: none; stroke: #d0d7de; stroke-opacity: 0.25; stroke-width: 0.5; stroke-linecap: square"/>
     </g>
     <g id="line2d_28">
      <g>
       <use xlink:href="#me105f86ae8" x="48.90125" y="232.923146" style="fill: #24292f; stroke: #24292f; stroke-width: 0.8"/>
      </g>
     </g>
     <g id="text_15">
      <!-- 400 -->
      <g style="fill: #24292f" transform="translate(22.81375 236.722365) scale(0.1 -0.1)">
       <defs>
        <path id="DejaVuSans-34" d="M 2419 4116 
L 825 1625 
L 2419 1625 
L 2419 4116 
z
M 2253 4666 
L 3047 4666 
L 3047 1625 
L 3713 1625 
L 3713 1100 
L 3047 1100 
L 3047 0 
L 2419 0 
L 2419 1100 
L 313 1100 
L 313 1709 
L 2253 4666 
z
" transform="scale(0.015625)"/>
       </defs>
       <use xlink:href="#DejaVuSans-34"/>
       <use xlink:href="#DejaVuSans-30" transform="translate(63.623047 0)"/>
       <use xlink:href="#DejaVuSans-30" transform="translate(127.246094 0)"/>
      </g>
     </g>
    </g>
    <g id="ytick_6">
     <g id="line2d_29">
      <path d="M 48.90125 177.344479 
L 848.35125 177.344479 
" clip-path="url(#pc1a504c4dc)" style="fill: none; stroke: #d0d7de; stroke-opacity: 0.25; stroke-width: 0.5; stroke-linecap: square"/>
     </g>
     <g id="line2d_30">
      <g>
       <use xlink:href="#me105f86ae8" x="48.90125" y="177.344479" style="fill: #24292f; stroke: #24292f; stroke-width: 0.8"/>
      </g>
     </g>
     <g id="text_16">
      <!-- 500 -->
      <g style="fill: #24292f" transform="translate(22.81375 181.143698) scale(0.1 -0.1)">
       <defs>
        <path id="DejaVuSans-35" d="M 691 4666 
L 3169 4666 
L 3169 4134 
L 1269 4134 
L 1269 2991 
Q 1406 3038 1543 3061 
Q 1681 3084 1819 3084 
Q 2600 3084 3056 2656 
Q 3513 2228 3513 1497 
Q 3513 744 3044 326 
Q 2575 -91 1722 -91 
Q 1428 -91 1123 -41 
Q 819 9 494 109 
L 494 744 
Q 775 591 1075 516 
Q 1375 441 1709 441 
Q 2250 441 2565 725 
Q 2881 1009 2881 1497 
Q 2881 1984 2565 2268 
Q 2250 2553 1709 2553 
Q 1456 2553 1204 2497 
Q 953 2441 691 2322 
L 691 4666 
z
" transform="scale(0.015625)"/>
       </defs>
       <use xlink:href="#DejaVuSans-35"/>
       <use xlink:href="#DejaVuSans-30" transform="translate(63.623047 0)"/>
       <use xlink:href="#DejaVuSans-30" transform="translate(127.246094 0)"/>
      </g>
     </g>
    </g>
    <g id="ytick_7">
     <g id="line2d_31">
      <path d="M 48.90125 121.765812 
L 848.35125 121.765812 
" clip-path="url(#pc1a504c4dc)" style="fill: none; stroke: #d0d7de; stroke-opacity: 0.25; stroke-width: 0.5; stroke-linecap: square"/>
     </g>
     <g id="line2d_32">
      <g>
       <use xlink:href="#me105f86ae8" x="48.90125" y="121.765812" style="fill: #24292f; stroke: #24292f; stroke-width: 0.8"/>
      </g>
     </g>
     <g id="text_17">
      <!-- 600 -->
      <g style="fill: #24292f" transform="translate(22.81375 125.565031) scale(0.1 -0.1)">
       <use xlink:href="#DejaVuSans-36"/>
       <use xlink:href="#DejaVuSans-30" transform="translate(63.623047 0)"/>
       <use xlink:href="#DejaVuSans-30" transform="translate(127.246094 0)"/>
      </g>
     </g>
    </g>
    <g id="ytick_8">
     <g id="line2d_33">
      <path d="M 48.90125 66.187146 
L 848.35125 66.187146 
" clip-path="url(#pc1a504c4dc)" style="fill: none; stroke: #d0d7de; stroke-opacity: 0.25; stroke-width: 0.5; stroke-linecap: square"/>
     </g>
     <g id="line2d_34">
      <g>
       <use xlink:href="#me105f86ae8" x="48.90125" y="66.187146" style="fill: #24292f; stroke: #24292f; stroke-width: 0.8"/>
      </g>
     </g>
     <g id="text_18">
      <!-- 700 -->
      <g style="fill: #24292f" transform="translate(22.81375 69.986365) scale(0.1 -0.1)">
       <defs>
        <path id="DejaVuSans-37" d="M 525 4666 
L 3525 4666 
L 3525 4397 
L 1831 0 
L 1172 0 
L 2766 4134 
L 525 4134 
L 525 4666 
z
" transform="scale(0.015625)"/>
       </defs>
       <use xlink:href="#DejaVuSans-37"/>
       <use xlink:href="#DejaVuSans-30" transform="translate(63.623047 0)"/>
       <use xlink:href="#DejaVuSans-30" transform="translate(127.246094 0)"/>
      </g>
     </g>
    </g>
    <g id="text_19">
     <!-- Count -->
     <g style="fill: #24292f" transform="translate(16.318125 264.635937) rotate(-90) scale(0.12 -0.12)">
      <defs>
       <path id="DejaVuSans-43" d="M 4122 4306 
L 4122 3641 
Q 3803 3938 3442 4084 
Q 3081 4231 2675 4231 
Q 1875 4231 1450 3742 
Q 1025 3253 1025 2328 
Q 1025 1406 1450 917 
Q 1875 428 2675 428 
Q 3081 428 3442 575 
Q 3803 722 4122 1019 
L 4122 359 
Q 3791 134 3420 21 
Q 3050 -91 2638 -91 
Q 1578 -91 968 557 
Q 359 1206 359 2328 
Q 359 3453 968 4101 
Q 1578 4750 2638 4750 
Q 3056 4750 3426 4639 
Q 3797 4528 4122 4306 
z
" transform="scale(0.015625)"/>
       <path id="DejaVuSans-75" d="M 544 1381 
L 544 3500 
L 1119 3500 
L 1119 1403 
Q 1119 906 1312 657 
Q 1506 409 1894 409 
Q 2359 409 2629 706 
Q 2900 1003 2900 1516 
L 2900 3500 
L 3475 3500 
L 3475 0 
L 2900 0 
L 2900 538 
Q 2691 219 2414 64 
Q 2138 -91 1772 -91 
Q 1169 -91 856 284 
Q 544 659 544 1381 
z
M 1991 3584 
L 1991 3584 
z
" transform="scale(0.015625)"/>
       <path id="DejaVuSans-6e" d="M 3513 2113 
L 3513 0 
L 2938 0 
L 2938 2094 
Q 2938 2591 2744 2837 
Q 2550 3084 2163 3084 
Q 1697 3084 1428 2787 
Q 1159 2491 1159 1978 
L 1159 0 
L 581 0 
L 581 3500 
L 1159 3500 
L 1159 2956 
Q 1366 3272 1645 3428 
Q 1925 3584 2291 3584 
Q 2894 3584 3203 3211 
Q 3513 2838 3513 2113 
z
" transform="scale(0.015625)"/>
      </defs>
      <use xlink:href="#DejaVuSans-43"/>
      <use xlink:href="#DejaVuSans-6f" transform="translate(69.824219 0)"/>
      <use xlink:href="#DejaVuSans-75" transform="translate(131.005859 0)"/>
      <use xlink:href="#DejaVuSans-6e" transform="translate(194.384766 0)"/>
      <use xlink:href="#DejaVuSans-74" transform="translate(257.763672 0)"/>
     </g>
    </g>
   </g>
   <g id="line2d_35">
    <path d="M 85.239886 454.682026 
L 85.295789 454.682026 
L 85.430665 454.126239 
L 85.506665 454.126239 
L 85.693559 257.933546 
L 88.044545 257.933546 
L 88.055286 261.268266 
L 90.899533 261.268266 
L 91.037178 260.712479 
L 91.432044 260.712479 
L 91.752057 260.156692 
L 93.734997 259.600906 
L 93.774146 260.156692 
L 93.846296 259.600906 
L 100.009775 259.600906 
L 103.714281 260.712479 
L 104.265471 259.600906 
L 104.667937 259.600906 
L 105.682291 259.045119 
L 106.106679 256.821972 
L 106.933025 256.821972 
L 108.137212 260.712479 
L 108.215341 256.821972 
L 109.139373 256.266186 
L 111.544201 256.266186 
L 112.178519 255.710399 
L 113.120723 255.710399 
L 113.429961 254.598826 
L 119.246068 254.598826 
L 119.674407 253.487252 
L 119.696363 252.375679 
L 121.545677 252.375679 
L 124.272578 251.264106 
L 125.703045 251.264106 
L 125.724697 250.708319 
L 129.009814 250.708319 
L 129.824743 247.929386 
L 132.403798 247.929386 
L 132.421701 247.373599 
L 146.865699 247.373599 
L 149.565646 246.817812 
L 149.657826 247.373599 
L 152.458026 246.817812 
L 162.202485 246.817812 
L 166.9255 246.262026 
L 167.016735 245.706239 
L 167.241088 245.150452 
L 169.9055 245.150452 
L 171.039497 244.594666 
L 175.715966 244.594666 
L 175.893503 247.373599 
L 175.902218 245.150452 
L 176.129578 245.150452 
L 177.258575 242.927306 
L 182.786217 242.927306 
L 187.022626 242.371519 
L 191.731116 242.371519 
L 191.937737 241.815732 
L 204.172719 241.815732 
L 204.694893 241.259946 
L 207.665706 241.259946 
L 207.686648 240.148372 
L 213.347106 240.148372 
L 213.461917 236.257866 
L 223.707035 236.257866 
L 223.710108 235.702079 
L 224.006815 235.702079 
L 225.298082 235.146292 
L 226.610325 235.146292 
L 227.027687 234.590506 
L 227.069436 235.146292 
L 228.025152 234.590506 
L 228.02951 234.034719 
L 228.051837 234.590506 
L 228.603905 234.034719 
L 233.632882 234.034719 
L 235.196434 233.478932 
L 237.051727 233.478932 
L 240.202914 232.923146 
L 243.18609 232.923146 
L 245.490901 231.811572 
L 250.534841 231.811572 
L 253.468937 230.699999 
L 254.295621 231.255786 
L 258.390837 231.255786 
L 263.010424 229.032639 
L 269.899963 229.032639 
L 272.03666 228.476852 
L 310.115157 228.476852 
L 310.422672 227.921066 
L 324.309029 227.921066 
L 324.54105 227.365279 
L 348.170042 227.365279 
L 353.373077 226.809492 
L 353.403173 227.365279 
L 357.127777 225.697919 
L 362.593841 225.697919 
L 365.578503 225.142132 
L 365.583401 224.586346 
L 371.810924 224.586346 
L 374.046051 225.142132 
L 374.849529 224.586346 
L 385.271609 224.586346 
L 385.715149 225.142132 
L 386.527646 224.586346 
L 386.806855 222.363199 
L 391.582969 222.363199 
L 391.58709 221.807412 
L 406.201904 221.807412 
L 407.052976 221.251626 
L 409.861688 221.251626 
L 410.135695 220.695839 
L 423.831916 220.695839 
L 423.850527 220.140052 
L 427.276161 220.140052 
L 427.281262 219.584266 
L 428.112506 219.584266 
L 428.155911 219.028479 
L 429.446739 219.028479 
L 429.649542 218.472692 
L 432.412316 218.472692 
L 432.832278 217.361119 
L 434.353202 215.137972 
L 438.031057 215.137972 
L 438.302599 212.359039 
L 439.535869 212.359039 
L 440.141138 211.247466 
L 443.260067 211.247466 
L 444.283474 210.691679 
L 447.212977 210.691679 
L 447.605613 210.135892 
L 455.562403 210.135892 
L 455.75845 209.580106 
L 456.494373 209.580106 
L 457.636915 209.024319 
L 470.506485 209.024319 
L 470.622107 208.468532 
L 471.03474 208.468532 
L 471.896147 207.356959 
L 473.103848 207.356959 
L 473.394238 206.801172 
L 473.674021 206.801172 
L 473.780185 206.245386 
L 477.009907 206.245386 
L 477.559746 205.689599 
L 480.370957 205.689599 
L 480.551197 205.133812 
L 482.091071 205.133812 
L 482.189736 204.578026 
L 486.975308 204.578026 
L 487.078196 204.022239 
L 489.869208 204.022239 
L 490.801415 201.799092 
L 491.834956 201.799092 
L 491.836036 201.243306 
L 496.032621 201.243306 
L 496.801983 200.687519 
L 500.015255 200.687519 
L 500.648154 200.131732 
L 500.886222 200.131732 
L 501.50463 199.575946 
L 503.084294 199.575946 
L 503.266864 199.020159 
L 507.228657 199.020159 
L 508.249869 198.464372 
L 508.324248 197.908586 
L 508.654868 197.908586 
L 509.698407 195.685439 
L 512.934715 195.685439 
L 512.958022 195.129652 
L 516.038039 195.129652 
L 516.331536 194.573866 
L 516.68168 194.573866 
L 517.033883 194.018079 
L 517.107351 194.573866 
L 517.37109 194.018079 
L 518.54285 194.018079 
L 518.554064 193.462292 
L 518.865228 193.462292 
L 519.001488 192.906506 
L 519.943017 192.350719 
L 526.493796 192.350719 
L 527.517676 191.794932 
L 528.203067 191.794932 
L 528.759121 191.239146 
L 529.321627 191.794932 
L 531.637686 191.794932 
L 531.737567 190.683359 
L 535.062442 190.683359 
L 536.352493 189.015999 
L 550.35508 189.015999 
L 551.168894 188.460212 
L 572.782654 188.460212 
L 572.915436 187.904426 
L 604.6746 187.904426 
L 604.814509 187.348639 
L 604.824541 186.792852 
L 604.834505 187.348639 
L 609.463347 187.348639 
L 610.508474 186.792852 
L 628.74453 186.792852 
L 632.497102 186.237066 
L 632.533583 185.681279 
L 632.844239 185.681279 
L 633.817317 185.125492 
L 663.084979 185.125492 
L 663.251877 184.569706 
L 689.395914 184.569706 
L 692.73663 184.013919 
L 694.780101 184.013919 
L 695.001854 183.458132 
L 696.422153 182.902346 
L 700.405158 182.902346 
L 702.082644 182.346559 
L 703.837953 182.346559 
L 703.974653 181.790772 
L 706.861798 181.790772 
L 707.206672 181.234986 
L 707.274937 180.679199 
L 712.415246 180.679199 
L 712.435175 180.123412 
L 716.811898 180.123412 
L 716.821558 179.567626 
L 718.304482 179.011839 
L 720.937075 179.011839 
L 722.831551 178.456052 
L 724.526972 178.456052 
L 727.025804 175.121332 
L 729.943146 175.121332 
L 729.956657 172.342399 
L 744.625145 172.342399 
L 744.626665 171.786612 
L 744.880372 171.230826 
L 746.285336 171.230826 
L 746.590926 170.675039 
L 751.199298 170.675039 
L 752.264624 170.119252 
L 752.439898 170.675039 
L 760.682484 170.675039 
L 760.684342 170.119252 
L 764.012324 170.119252 
L 765.373748 167.340319 
L 773.719931 167.340319 
L 773.809071 166.228746 
L 775.696115 164.561386 
L 777.589577 164.561386 
L 777.791266 164.005599 
L 785.75086 164.005599 
L 785.89722 163.449812 
L 793.889544 163.449812 
L 794.063636 162.894026 
L 796.26637 161.226666 
L 796.437051 160.670879 
L 812.012614 160.670879 
L 812.012614 160.670879 
" clip-path="url(#pc1a504c4dc)" style="fill: none; stroke: #1a7f37; stroke-width: 2; stroke-linecap: square"/>
   </g>
   <g id="line2d_36">
    <path d="M 85.239886 455.237812 
L 85.331256 453.570452 
L 85.430665 453.570452 
L 85.58601 372.981386 
L 86.884776 372.981386 
L 86.913116 370.758239 
L 88.333719 370.758239 
L 88.699738 369.090879 
L 89.197761 370.758239 
L 89.201443 369.090879 
L 89.613535 369.090879 
L 89.772799 367.979306 
L 93.842411 367.979306 
L 93.846296 367.423519 
L 93.869197 367.979306 
L 94.069501 367.423519 
L 94.128241 367.979306 
L 94.284904 367.423519 
L 95.713005 367.423519 
L 95.787723 366.867732 
L 95.991235 366.311946 
L 97.60363 366.311946 
L 99.438521 365.756159 
L 99.503105 365.200372 
L 99.999034 364.644586 
L 100.009775 364.088799 
L 103.714281 367.979306 
L 104.265471 366.311946 
L 104.667937 363.533012 
L 106.933025 363.533012 
L 108.137212 367.979306 
L 108.215341 363.533012 
L 130.219744 363.533012 
L 130.894967 362.977226 
L 132.421701 362.977226 
L 136.591465 362.421439 
L 137.607171 361.865652 
L 152.079374 361.865652 
L 152.458026 361.309866 
L 154.403439 360.754079 
L 155.639918 360.754079 
L 157.010496 360.198292 
L 157.047415 359.086719 
L 157.989552 358.530932 
L 158.622755 357.975146 
L 167.345935 357.975146 
L 169.084829 357.419359 
L 169.610517 357.419359 
L 169.9055 356.863572 
L 171.039497 356.863572 
L 172.166096 356.307786 
L 175.715966 356.307786 
L 175.893503 358.530932 
L 175.902218 356.307786 
L 177.258575 356.307786 
L 177.394735 355.751999 
L 179.314611 355.751999 
L 181.203513 355.196212 
L 181.24935 354.640426 
L 187.022626 354.640426 
L 189.457719 354.084639 
L 189.463866 353.528852 
L 197.567084 353.528852 
L 200.947253 352.973066 
L 203.483241 352.973066 
L 204.172719 352.417279 
L 208.043716 352.417279 
L 210.251584 351.861492 
L 210.372611 351.305706 
L 212.525184 351.305706 
L 212.775007 350.749919 
L 213.461917 350.194132 
L 214.995339 350.194132 
L 215.963485 349.638346 
L 217.738555 349.638346 
L 218.897075 349.082559 
L 221.368547 349.082559 
L 222.210532 347.970986 
L 228.603905 347.970986 
L 230.424677 347.415199 
L 232.55972 347.415199 
L 233.041192 346.859412 
L 233.18843 346.303626 
L 233.632882 345.747839 
L 240.985146 345.747839 
L 242.331269 345.192052 
L 243.18609 344.636266 
L 264.093112 344.636266 
L 268.786233 344.080479 
L 268.842305 343.524692 
L 272.03666 343.524692 
L 274.76694 342.968906 
L 279.592674 342.968906 
L 280.000442 342.413119 
L 288.218877 342.413119 
L 294.652311 341.857332 
L 294.714057 341.301546 
L 295.555131 341.301546 
L 297.259199 340.745759 
L 297.354251 339.078399 
L 297.429238 338.522612 
L 300.988734 337.966826 
L 301.201874 337.411039 
L 301.286826 336.299466 
L 301.609203 335.743679 
L 313.192168 335.743679 
L 316.48269 335.187892 
L 318.577334 334.632106 
L 320.218271 334.632106 
L 324.022929 334.076319 
L 324.309029 331.853172 
L 324.54105 331.853172 
L 325.088085 330.741599 
L 332.304731 330.185812 
L 332.534422 329.630026 
L 332.60218 329.074239 
L 334.12682 329.074239 
L 335.566542 328.518452 
L 335.73202 327.962666 
L 335.8444 326.851092 
L 336.79738 326.295306 
L 336.867334 325.739519 
L 338.606093 325.183732 
L 340.89165 324.627946 
L 341.05419 324.072159 
L 341.057636 323.516372 
L 341.517355 322.960586 
L 341.598557 322.404799 
L 344.913974 321.849012 
L 345.508332 321.293226 
L 359.465656 321.293226 
L 361.780263 320.737439 
L 361.990903 320.181652 
L 371.450512 320.181652 
L 371.810924 319.070079 
L 375.752247 319.070079 
L 376.94218 318.514292 
L 377.000312 317.402719 
L 377.305868 316.846932 
L 379.329139 316.291146 
L 379.374706 315.735359 
L 379.618921 315.179572 
L 379.869183 312.956426 
L 380.147953 312.956426 
L 380.158222 312.400639 
L 381.847293 311.844852 
L 382.511335 311.289066 
L 382.672017 310.733279 
L 385.715149 310.177492 
L 387.957808 310.177492 
L 388.736561 309.621706 
L 397.168406 309.621706 
L 399.961816 309.065919 
L 399.972929 308.510132 
L 400.47531 307.954346 
L 407.052976 307.954346 
L 408.898541 307.398559 
L 409.658817 306.842772 
L 409.861688 305.731199 
L 415.182338 305.731199 
L 415.544844 305.175412 
L 418.466577 305.175412 
L 419.86536 304.619626 
L 423.850527 304.619626 
L 426.259746 304.063839 
L 431.262916 304.063839 
L 431.877846 303.508052 
L 434.353202 303.508052 
L 435.026973 302.952266 
L 435.319254 302.396479 
L 435.463216 301.840692 
L 437.500809 301.840692 
L 437.558739 300.729119 
L 438.302599 300.729119 
L 438.790995 299.061759 
L 440.563431 299.061759 
L 440.783562 298.505972 
L 440.954445 298.505972 
L 441.802815 297.950186 
L 443.21065 297.950186 
L 443.260067 297.394399 
L 444.283474 297.394399 
L 444.532047 296.838612 
L 445.493944 296.838612 
L 446.966701 295.727039 
L 447.605613 295.727039 
L 450.076645 294.615466 
L 450.080361 294.059679 
L 450.552139 293.503892 
L 451.755853 292.948106 
L 451.943018 292.392319 
L 453.143151 291.836532 
L 455.10498 291.836532 
L 455.75845 290.724959 
L 458.151084 290.724959 
L 458.219012 290.169172 
L 458.900653 290.169172 
L 458.952975 289.613386 
L 459.327033 289.057599 
L 460.628569 289.057599 
L 460.727572 288.501812 
L 460.950541 288.501812 
L 461.071331 287.946026 
L 461.09582 287.946026 
L 461.202221 287.390239 
L 462.92909 287.390239 
L 463.291528 286.834452 
L 463.595869 286.834452 
L 463.777763 286.278666 
L 464.242279 286.278666 
L 464.590058 285.722879 
L 464.66339 285.167092 
L 464.762799 285.167092 
L 466.511049 284.611306 
L 467.819306 284.611306 
L 467.918344 284.055519 
L 473.079088 284.055519 
L 473.103848 283.499732 
L 473.394238 283.499732 
L 474.077567 282.388159 
L 475.820548 282.388159 
L 475.982176 280.720799 
L 476.02933 279.609226 
L 476.333974 279.053439 
L 477.559746 279.053439 
L 478.137857 278.497652 
L 478.698201 278.497652 
L 478.87888 277.941866 
L 479.747482 277.386079 
L 480.551197 277.386079 
L 482.16697 276.830292 
L 482.274452 276.274506 
L 482.683504 276.274506 
L 482.765348 275.718719 
L 484.201692 275.718719 
L 484.241584 275.162932 
L 491.207326 275.162932 
L 491.314943 274.607146 
L 491.522171 274.607146 
L 491.614047 273.495572 
L 492.510989 273.495572 
L 492.583342 272.939786 
L 492.701869 272.939786 
L 493.323115 272.383999 
L 493.479271 271.828212 
L 493.764594 271.828212 
L 494.006039 271.272426 
L 494.084742 270.716639 
L 497.584857 270.716639 
L 498.468322 270.160852 
L 498.642819 269.049279 
L 498.85785 268.493492 
L 499.216809 268.493492 
L 499.43559 267.937706 
L 504.458655 267.937706 
L 504.790254 266.270346 
L 505.47659 266.270346 
L 505.57735 265.714559 
L 508.259293 265.714559 
L 508.324248 264.602986 
L 511.54539 264.602986 
L 511.578763 264.047199 
L 513.130459 264.047199 
L 513.140896 263.491412 
L 513.896511 263.491412 
L 514.021828 262.935626 
L 516.21713 262.935626 
L 516.331536 262.379839 
L 516.477289 262.379839 
L 516.68168 261.824052 
L 517.096575 261.824052 
L 517.107351 261.268266 
L 517.37109 261.268266 
L 517.874214 260.712479 
L 521.937982 260.712479 
L 522.233338 260.156692 
L 523.439113 260.156692 
L 523.441342 259.600906 
L 532.660248 259.600906 
L 534.224949 259.045119 
L 534.270313 258.489332 
L 535.062442 257.933546 
L 536.266933 257.933546 
L 536.352493 256.821972 
L 536.570361 256.821972 
L 536.661055 256.266186 
L 539.859971 256.266186 
L 540.437643 255.710399 
L 545.970926 255.710399 
L 545.98795 255.154612 
L 547.795177 255.154612 
L 548.567512 254.598826 
L 557.073634 254.598826 
L 557.179798 253.487252 
L 560.525108 253.487252 
L 561.190502 252.931466 
L 561.90305 252.931466 
L 562.774118 252.375679 
L 568.53189 252.375679 
L 569.083249 251.819892 
L 569.561006 251.819892 
L 569.795256 251.264106 
L 571.629472 250.708319 
L 572.52736 250.708319 
L 572.820148 250.152532 
L 572.915436 250.152532 
L 575.492329 249.596746 
L 580.236894 249.596746 
L 580.608183 249.040959 
L 598.920916 249.040959 
L 599.590025 248.485172 
L 603.82488 248.485172 
L 603.977928 247.929386 
L 604.253016 247.929386 
L 604.335941 247.373599 
L 627.985808 247.373599 
L 628.74453 246.817812 
L 634.391308 246.817812 
L 635.617957 246.262026 
L 635.700173 245.706239 
L 638.638153 245.706239 
L 638.760058 245.150452 
L 648.276482 245.150452 
L 648.295972 244.594666 
L 656.329404 244.594666 
L 656.415876 244.038879 
L 656.937645 243.483092 
L 658.909 243.483092 
L 658.913526 242.927306 
L 659.314134 242.371519 
L 662.274002 242.371519 
L 663.251877 241.815732 
L 669.563372 241.815732 
L 669.607824 240.704159 
L 709.615114 240.704159 
L 712.435175 240.148372 
L 715.983153 240.148372 
L 716.101039 239.592586 
L 731.8309 239.592586 
L 731.857314 239.036799 
L 748.283949 239.036799 
L 748.453278 238.481012 
L 749.430578 238.481012 
L 749.456047 237.925226 
L 749.676922 237.369439 
L 750.536134 236.257866 
L 750.66243 235.146292 
L 750.735424 234.034719 
L 750.955488 233.478932 
L 751.006392 232.923146 
L 751.199298 232.367359 
L 752.439898 232.367359 
L 752.594129 231.811572 
L 752.601391 231.255786 
L 753.066616 230.699999 
L 760.684342 230.699999 
L 761.505418 229.588426 
L 785.532924 229.588426 
L 785.6856 229.032639 
L 800.351622 229.032639 
L 800.698962 227.921066 
L 802.271701 227.921066 
L 802.482375 227.365279 
L 811.826497 227.365279 
L 812.012614 226.809492 
L 812.012614 226.809492 
" clip-path="url(#pc1a504c4dc)" style="fill: none; stroke: #0969da; stroke-width: 2; stroke-linecap: square"/>
   </g>
   <g id="line2d_37">
    <path d="M 85.239886 455.237812 
L 88.044545 455.237812 
L 88.055286 454.126239 
L 90.370704 454.126239 
L 90.899533 453.570452 
L 233.632882 453.570452 
L 235.196434 453.014666 
L 274.76694 453.014666 
L 275.865098 452.458879 
L 313.192168 452.458879 
L 316.48269 451.903092 
L 325.088085 451.903092 
L 332.60218 450.235732 
L 334.12682 449.124159 
L 336.867334 449.124159 
L 338.606093 448.568372 
L 341.057636 448.012586 
L 341.598557 448.012586 
L 344.913974 447.456799 
L 345.508332 446.901012 
L 348.170042 446.345226 
L 353.373077 445.789439 
L 353.403173 446.345226 
L 361.990903 446.345226 
L 362.593841 445.789439 
L 374.849529 445.789439 
L 375.752247 445.233652 
L 379.869183 445.233652 
L 380.158222 444.677866 
L 385.271609 444.677866 
L 385.715149 444.122079 
L 404.44727 444.122079 
L 406.201904 443.566292 
L 406.939347 443.566292 
L 407.052976 443.010506 
L 412.052431 443.010506 
L 412.057193 442.454719 
L 423.831916 442.454719 
L 423.850527 441.898932 
L 427.281262 441.898932 
L 428.155911 441.343146 
L 429.444475 440.787359 
L 429.446739 440.231572 
L 429.649542 440.231572 
L 431.262916 438.564212 
L 432.349759 438.564212 
L 432.412316 436.896852 
L 432.832278 436.896852 
L 434.353202 437.452639 
L 435.447003 437.452639 
L 435.463216 435.229492 
L 439.535869 435.229492 
L 440.141138 434.673706 
L 440.783562 434.673706 
L 440.954445 434.117919 
L 455.562403 434.117919 
L 455.75845 433.562132 
L 456.494373 433.562132 
L 457.636915 433.006346 
L 462.677646 433.006346 
L 462.92909 432.450559 
L 464.66339 432.450559 
L 464.762799 431.894772 
L 470.506485 431.894772 
L 470.622107 431.338986 
L 471.03474 431.338986 
L 471.45325 430.783199 
L 471.871354 430.783199 
L 471.896147 430.227412 
L 473.674021 430.227412 
L 473.780185 429.671626 
L 482.033817 429.671626 
L 482.146331 429.115839 
L 482.189736 429.115839 
L 482.274452 428.560052 
L 482.765348 428.560052 
L 483.79443 428.004266 
L 487.817699 428.004266 
L 487.821246 427.448479 
L 488.59 427.448479 
L 488.619252 426.892692 
L 490.801415 426.892692 
L 491.314943 426.336906 
L 494.167836 426.336906 
L 495.011274 425.781119 
L 496.65157 425.781119 
L 496.668965 424.669546 
L 496.801983 424.669546 
L 496.969387 424.113759 
L 499.608094 424.113759 
L 500.015255 423.557972 
L 500.648154 423.557972 
L 500.886222 423.002186 
L 502.431027 423.002186 
L 502.646733 422.446399 
L 502.649503 421.890612 
L 503.084294 421.890612 
L 503.266864 421.334826 
L 519.907686 421.334826 
L 519.943017 420.223252 
L 522.233338 420.223252 
L 522.892516 419.667466 
L 523.441342 419.667466 
L 526.015938 419.111679 
L 526.493796 419.111679 
L 527.517676 418.555892 
L 528.203067 418.555892 
L 528.759121 418.000106 
L 529.321627 418.555892 
L 531.132434 418.555892 
L 531.62485 418.000106 
L 531.737567 416.888532 
L 532.654067 416.332746 
L 532.660248 415.221172 
L 536.661055 415.221172 
L 537.536008 414.665386 
L 537.624675 412.998026 
L 538.499189 412.442239 
L 538.982823 411.886452 
L 543.119215 411.886452 
L 543.294725 410.219092 
L 543.505703 410.219092 
L 543.662129 409.663306 
L 544.673038 409.107519 
L 546.264288 409.107519 
L 546.592104 408.551732 
L 546.666686 407.995946 
L 546.833955 407.995946 
L 547.795177 406.884372 
L 548.825036 406.884372 
L 549.163188 406.328586 
L 550.351161 406.328586 
L 550.35508 405.217012 
L 551.168894 405.217012 
L 552.249285 404.661226 
L 555.111603 403.549652 
L 555.367133 402.993866 
L 561.190502 402.993866 
L 561.90305 401.882292 
L 572.782654 401.882292 
L 572.915436 400.770719 
L 578.210988 400.770719 
L 579.020108 400.214932 
L 581.475468 400.214932 
L 581.613282 399.659146 
L 596.718925 399.659146 
L 596.960032 399.103359 
L 598.456265 399.103359 
L 598.920916 398.547572 
L 601.713346 398.547572 
L 602.238527 397.991786 
L 602.241973 397.435999 
L 602.842614 396.880212 
L 604.6746 396.880212 
L 604.814509 396.324426 
L 604.824541 395.212852 
L 604.834505 395.768639 
L 606.06558 395.212852 
L 610.508474 395.212852 
L 611.384845 394.101279 
L 619.401219 394.101279 
L 620.021013 393.545492 
L 621.965716 393.545492 
L 622.121399 392.989706 
L 622.142814 392.433919 
L 628.74453 392.433919 
L 632.844239 391.322346 
L 633.817317 391.322346 
L 634.391308 390.766559 
L 642.883378 390.766559 
L 643.927187 390.210772 
L 645.220582 390.210772 
L 646.473241 389.654986 
L 656.937645 389.654986 
L 657.224826 389.099199 
L 657.22638 388.543412 
L 663.084979 388.543412 
L 663.251877 387.987626 
L 689.395914 387.987626 
L 692.73663 387.431839 
L 700.405158 387.431839 
L 702.082644 386.876052 
L 703.558609 386.876052 
L 703.837953 386.320266 
L 707.274937 386.320266 
L 707.855514 385.764479 
L 708.621229 385.764479 
L 709.615114 385.208692 
L 711.997445 385.208692 
L 712.435175 384.652906 
L 712.728402 384.652906 
L 713.795924 384.097119 
L 724.109408 384.097119 
L 724.138254 382.429759 
L 733.137333 382.429759 
L 736.953408 381.873972 
L 736.956515 381.318186 
L 741.431296 381.318186 
L 741.619135 380.762399 
L 741.621905 380.206612 
L 743.715029 380.206612 
L 744.626665 379.650826 
L 745.278818 379.650826 
L 746.285336 379.095039 
L 747.365456 379.095039 
L 747.552114 377.983466 
L 748.453278 377.983466 
L 748.632876 377.427679 
L 750.660673 377.427679 
L 750.735424 376.871892 
L 753.931638 376.871892 
L 756.247157 376.316106 
L 757.006656 376.316106 
L 757.752239 375.760319 
L 759.292416 375.204532 
L 759.299003 374.648746 
L 759.723728 372.981386 
L 760.111838 372.425599 
L 760.684342 371.869812 
L 762.218608 371.869812 
L 763.149058 370.202452 
L 765.373748 370.202452 
L 765.976112 368.535092 
L 768.424074 368.535092 
L 768.683287 367.979306 
L 770.457546 367.979306 
L 770.843122 366.867732 
L 771.511218 366.311946 
L 773.809071 366.311946 
L 777.791266 365.200372 
L 780.344447 364.644586 
L 780.517897 364.088799 
L 782.932859 364.088799 
L 783.08736 363.533012 
L 785.738666 363.533012 
L 785.75086 362.977226 
L 786.24787 362.977226 
L 786.356804 362.421439 
L 793.889544 362.421439 
L 794.063636 361.865652 
L 796.437051 361.309866 
L 800.340441 361.309866 
L 800.351622 360.754079 
L 812.012614 360.754079 
L 812.012614 360.754079 
" clip-path="url(#pc1a504c4dc)" style="fill: none; stroke: #bf8700; stroke-width: 2; stroke-linecap: square"/>
   </g>
   <g id="line2d_38">
    <path d="M 85.239886 454.682026 
L 85.479778 454.682026 
L 85.58601 432.450559 
L 86.141186 426.892692 
L 86.458429 425.781119 
L 86.619382 426.336906 
L 86.913116 425.781119 
L 87.409889 425.225332 
L 87.75456 424.113759 
L 88.044545 423.557972 
L 88.055286 423.002186 
L 88.333719 421.334826 
L 88.699738 421.334826 
L 89.197761 420.779039 
L 89.201443 420.223252 
L 89.602422 419.667466 
L 89.712978 419.111679 
L 89.772799 419.111679 
L 90.370704 418.555892 
L 90.797895 418.000106 
L 90.899533 411.886452 
L 90.969825 412.442239 
L 91.237246 406.328586 
L 91.242008 407.995946 
L 91.432044 402.993866 
L 93.846296 402.993866 
L 94.069501 399.659146 
L 94.128241 402.438079 
L 94.400391 397.991786 
L 94.535165 397.435999 
L 95.539285 396.880212 
L 95.569584 396.324426 
L 95.787723 395.768639 
L 95.991235 395.768639 
L 96.508343 395.212852 
L 96.78458 394.657066 
L 96.909694 393.545492 
L 96.985796 392.989706 
L 97.24386 392.433919 
L 97.250244 391.878132 
L 97.509795 392.433919 
L 97.583667 391.878132 
L 97.592754 392.433919 
L 97.60363 390.766559 
L 100.009775 390.766559 
L 103.714281 402.993866 
L 104.265471 390.210772 
L 104.667937 389.654986 
L 106.106679 389.654986 
L 106.369843 389.099199 
L 106.933025 388.543412 
L 108.137212 402.993866 
L 108.215341 387.987626 
L 109.139373 387.431839 
L 111.115422 386.876052 
L 111.256344 387.431839 
L 111.544201 385.764479 
L 112.178519 385.764479 
L 112.371256 385.208692 
L 112.735282 384.652906 
L 112.76548 383.541332 
L 113.101267 382.429759 
L 113.120723 382.985546 
L 113.320453 382.985546 
L 113.429961 381.873972 
L 113.767066 379.650826 
L 113.811383 378.539252 
L 114.243877 376.871892 
L 114.45526 377.983466 
L 115.949871 374.648746 
L 116.343419 375.760319 
L 117.963009 373.537172 
L 119.246068 377.427679 
L 119.696363 373.537172 
L 121.545677 371.869812 
L 124.272578 371.869812 
L 124.63272 371.314026 
L 124.919327 369.646666 
L 125.724697 371.314026 
L 129.009814 371.869812 
L 129.824743 369.646666 
L 130.219744 367.979306 
L 130.894967 369.646666 
L 132.421701 367.979306 
L 137.607171 367.979306 
L 143.059724 367.423519 
L 143.423345 366.867732 
L 146.865699 366.311946 
L 149.141934 366.311946 
L 149.565646 365.756159 
L 149.657826 366.311946 
L 152.079374 364.644586 
L 154.350711 364.644586 
L 154.403439 364.088799 
L 155.639918 363.533012 
L 158.622755 363.533012 
L 159.938545 359.642506 
L 160.917872 359.086719 
L 162.17803 358.530932 
L 162.202485 357.975146 
L 166.9255 357.975146 
L 167.016735 354.084639 
L 167.191536 354.084639 
L 167.345935 352.973066 
L 169.084829 352.973066 
L 169.610517 352.417279 
L 172.166096 352.417279 
L 175.715966 351.861492 
L 175.893503 363.533012 
L 175.902218 352.417279 
L 176.129578 351.861492 
L 177.394735 351.861492 
L 179.314611 351.305706 
L 181.24935 351.305706 
L 182.786217 350.749919 
L 187.022626 349.638346 
L 189.463866 349.638346 
L 191.42583 349.082559 
L 191.731116 346.303626 
L 191.937737 346.303626 
L 192.30335 345.747839 
L 194.210425 345.192052 
L 194.651262 342.968906 
L 197.286997 341.857332 
L 197.318748 342.413119 
L 197.567084 341.857332 
L 200.947253 340.745759 
L 203.483241 340.189972 
L 204.694893 340.189972 
L 205.768832 339.634186 
L 206.699519 338.522612 
L 207.686648 337.966826 
L 208.043716 337.411039 
L 210.372611 337.966826 
L 212.525184 336.855252 
L 212.775007 337.411039 
L 213.347106 337.411039 
L 213.461917 336.855252 
L 214.995339 336.299466 
L 215.963485 336.855252 
L 217.738555 335.743679 
L 218.897075 335.743679 
L 221.368547 335.187892 
L 221.778376 335.743679 
L 222.210532 334.076319 
L 223.710108 334.076319 
L 224.006815 333.520532 
L 225.298082 331.297386 
L 225.662918 330.185812 
L 226.610325 330.741599 
L 227.027687 329.630026 
L 227.069436 329.074239 
L 230.424677 329.074239 
L 232.124017 328.518452 
L 232.55972 327.962666 
L 235.196434 327.962666 
L 237.051727 327.406879 
L 240.202914 327.406879 
L 240.985146 326.851092 
L 249.650363 326.851092 
L 250.148015 326.295306 
L 250.197871 325.739519 
L 250.534841 325.183732 
L 254.295621 325.183732 
L 254.530007 324.627946 
L 255.486837 324.072159 
L 255.652552 323.516372 
L 257.237824 322.960586 
L 258.390837 322.404799 
L 263.010424 322.404799 
L 264.093112 321.293226 
L 268.842305 321.293226 
L 269.899963 320.737439 
L 274.326035 320.737439 
L 274.76694 320.181652 
L 275.865098 319.625866 
L 276.192002 319.070079 
L 276.302996 318.514292 
L 279.592674 317.958506 
L 280.000442 318.514292 
L 284.331092 317.402719 
L 287.755138 316.291146 
L 288.218877 315.735359 
L 294.714057 315.735359 
L 295.555131 315.179572 
L 301.609203 315.179572 
L 307.312018 314.623786 
L 308.029329 314.067999 
L 310.422672 313.512212 
L 312.822771 312.956426 
L 313.192168 312.400639 
L 318.577334 312.400639 
L 320.218271 311.844852 
L 332.60218 311.844852 
L 334.12682 311.289066 
L 344.356264 311.289066 
L 344.913974 310.733279 
L 345.508332 311.289066 
L 348.170042 310.733279 
L 357.127777 310.733279 
L 358.328181 310.177492 
L 377.2779 310.177492 
L 377.305868 309.621706 
L 389.009218 309.621706 
L 391.580504 309.065919 
L 391.58709 308.510132 
L 404.441562 308.510132 
L 404.44727 307.398559 
L 412.057193 307.398559 
L 415.544844 306.842772 
L 419.86536 306.842772 
L 423.850527 305.731199 
L 431.877846 305.731199 
L 432.349759 305.175412 
L 432.412316 304.619626 
L 435.447003 304.619626 
L 435.463216 304.063839 
L 435.778332 304.063839 
L 436.280645 303.508052 
L 440.783562 303.508052 
L 440.954445 302.952266 
L 446.966701 302.952266 
L 447.212977 302.396479 
L 461.895887 302.396479 
L 462.676532 300.729119 
L 462.677646 300.173332 
L 464.757833 300.173332 
L 464.762799 299.617546 
L 470.898614 299.617546 
L 471.03474 299.061759 
L 473.972045 299.061759 
L 474.077567 298.505972 
L 484.989497 298.505972 
L 485.199326 297.950186 
L 487.732139 297.950186 
L 487.821246 297.394399 
L 488.619252 296.838612 
L 508.654868 296.838612 
L 509.698407 295.727039 
L 511.260439 295.727039 
L 511.578763 295.171252 
L 513.140896 295.171252 
L 513.372411 294.615466 
L 517.063236 294.615466 
L 517.107351 294.059679 
L 537.534285 294.059679 
L 537.624675 292.948106 
L 563.157533 292.948106 
L 563.820663 292.392319 
L 607.415148 292.392319 
L 609.463347 291.836532 
L 627.886703 291.836532 
L 627.985808 291.280746 
L 636.2339 291.280746 
L 636.634811 290.724959 
L 799.880182 290.724959 
L 800.351622 290.169172 
L 812.012614 290.169172 
L 812.012614 290.169172 
" clip-path="url(#pc1a504c4dc)" style="fill: none; stroke: #cf222e; stroke-width: 2; stroke-linecap: square"/>
   </g>
   <g id="line2d_39">
    <path d="M 85.239886 454.682026 
L 85.258971 454.126239 
L 85.409438 -1 
M 85.544677 -1 
L 85.693559 101.201706 
L 88.044545 101.201706 
L 88.055286 97.866986 
L 90.899533 97.866986 
L 91.037178 98.422772 
L 91.432044 98.422772 
L 91.752057 98.978559 
L 93.734997 99.534346 
L 93.774146 98.978559 
L 93.846296 99.534346 
L 100.009775 99.534346 
L 103.714281 98.422772 
L 104.265471 99.534346 
L 104.667937 98.978559 
L 105.682291 99.534346 
L 106.106679 96.755412 
L 106.933025 96.755412 
L 108.137212 98.422772 
L 108.215341 95.643839 
L 109.139373 96.199626 
L 111.544201 96.199626 
L 112.178519 95.088052 
L 113.120723 95.088052 
L 113.429961 91.197546 
L 119.246068 91.197546 
L 119.674407 87.862826 
L 119.696363 86.751252 
L 121.545677 86.751252 
L 124.272578 82.860746 
L 125.703045 82.860746 
L 125.724697 83.416532 
L 129.009814 83.416532 
L 129.824743 80.081812 
L 132.403798 80.081812 
L 132.421701 80.637599 
L 146.865699 80.637599 
L 149.565646 81.193386 
L 149.657826 80.637599 
L 152.458026 81.193386 
L 162.202485 81.193386 
L 166.9255 81.749172 
L 167.016735 74.523946 
L 167.241088 75.079732 
L 169.9055 75.079732 
L 171.039497 75.635519 
L 175.715966 75.635519 
L 175.893503 80.637599 
L 175.902218 71.745012 
L 176.129578 71.745012 
L 177.258575 73.968159 
L 182.786217 73.968159 
L 187.022626 70.077652 
L 191.731116 70.077652 
L 191.937737 68.410292 
L 204.172719 68.410292 
L 204.694893 68.966079 
L 207.665706 68.966079 
L 207.686648 70.077652 
L 213.347106 70.077652 
L 213.461917 73.412372 
L 222.210532 73.412372 
L 222.419483 68.410292 
L 223.707035 67.298719 
L 223.710108 67.854506 
L 224.006815 67.854506 
L 225.063932 65.075572 
L 226.610325 65.075572 
L 227.027687 65.631359 
L 227.069436 65.075572 
L 228.025152 65.631359 
L 228.02951 66.187146 
L 228.051837 65.631359 
L 228.603905 63.408212 
L 233.632882 63.408212 
L 235.196434 63.963999 
L 237.051727 63.963999 
L 240.202914 64.519786 
L 243.18609 64.519786 
L 245.490901 65.631359 
L 250.197871 65.075572 
L 250.534841 65.075572 
L 253.468937 66.187146 
L 254.295621 65.631359 
L 258.390837 65.631359 
L 263.007924 67.854506 
L 263.010424 67.298719 
L 269.899963 67.298719 
L 272.03666 67.854506 
L 310.115157 67.854506 
L 310.422672 68.410292 
L 312.805645 68.410292 
L 312.822771 66.742932 
L 324.309029 66.742932 
L 324.54105 67.298719 
L 348.170042 67.298719 
L 353.373077 67.854506 
L 353.403173 67.298719 
L 357.127777 68.966079 
L 358.328181 68.966079 
L 359.465656 68.410292 
L 362.593841 68.410292 
L 365.578503 68.966079 
L 365.583401 69.521866 
L 374.046051 67.854506 
L 374.849529 68.410292 
L 385.271609 68.410292 
L 385.715149 67.854506 
L 386.527646 68.410292 
L 386.806855 70.633439 
L 391.582969 70.633439 
L 391.58709 71.189226 
L 406.201904 71.189226 
L 407.052976 71.745012 
L 409.861688 71.745012 
L 410.135695 72.300799 
L 423.831916 72.300799 
L 423.850527 72.856586 
L 426.259746 72.856586 
L 427.276161 73.412372 
L 427.281262 73.968159 
L 428.112506 73.412372 
L 428.155911 73.968159 
L 429.446739 73.968159 
L 429.649542 74.523946 
L 432.349759 74.523946 
L 432.412316 73.412372 
L 432.832278 74.523946 
L 434.353202 72.856586 
L 438.031057 72.856586 
L 438.302599 71.189226 
L 439.535869 71.189226 
L 440.141138 72.300799 
L 443.260067 72.300799 
L 444.283474 72.856586 
L 444.532047 72.856586 
L 445.493944 70.077652 
L 447.212977 70.077652 
L 447.605613 70.633439 
L 455.562403 70.633439 
L 455.75845 71.189226 
L 456.494373 71.189226 
L 457.636915 71.745012 
L 470.506485 71.745012 
L 470.622107 72.300799 
L 471.03474 72.300799 
L 471.896147 73.412372 
L 473.103848 73.412372 
L 473.394238 72.856586 
L 473.674021 72.856586 
L 473.780185 73.412372 
L 477.009907 73.412372 
L 477.559746 73.968159 
L 480.370957 73.968159 
L 480.551197 74.523946 
L 482.091071 74.523946 
L 482.189736 75.079732 
L 486.975308 75.079732 
L 487.078196 75.635519 
L 489.869208 75.635519 
L 490.801415 77.858666 
L 491.834956 77.858666 
L 491.836036 78.414452 
L 496.032621 78.414452 
L 496.801983 78.970239 
L 500.015255 78.970239 
L 500.648154 79.526026 
L 503.084294 79.526026 
L 503.266864 80.081812 
L 507.228657 80.081812 
L 508.249869 80.637599 
L 508.324248 81.193386 
L 508.654868 81.193386 
L 509.698407 60.629279 
L 512.934715 60.629279 
L 512.958022 61.185066 
L 513.140896 61.185066 
L 513.372411 60.629279 
L 516.038039 60.629279 
L 516.331536 61.185066 
L 516.68168 61.185066 
L 517.033883 61.740852 
L 517.107351 61.185066 
L 518.54285 61.185066 
L 518.554064 61.740852 
L 518.865228 61.740852 
L 519.001488 62.296639 
L 519.943017 62.852426 
L 526.493796 62.852426 
L 527.517676 63.408212 
L 528.203067 63.408212 
L 528.759121 63.963999 
L 529.321627 63.408212 
L 531.637686 63.408212 
L 531.737567 64.519786 
L 535.062442 64.519786 
L 536.352493 66.187146 
L 550.35508 66.187146 
L 551.168894 66.742932 
L 572.782654 66.742932 
L 572.915436 67.298719 
L 604.6746 67.298719 
L 604.814509 67.854506 
L 604.824541 68.410292 
L 604.834505 67.854506 
L 609.463347 67.854506 
L 610.508474 68.410292 
L 628.74453 68.410292 
L 632.844239 68.966079 
L 633.809244 69.521866 
L 633.817317 67.854506 
L 663.084979 67.854506 
L 663.251877 68.410292 
L 689.395914 68.410292 
L 692.73663 68.966079 
L 694.780101 68.966079 
L 695.001854 69.521866 
L 696.422153 70.077652 
L 700.405158 70.077652 
L 702.082644 70.633439 
L 703.837953 70.633439 
L 703.974653 71.189226 
L 706.861798 71.189226 
L 707.206672 71.745012 
L 707.274937 72.300799 
L 712.415246 72.300799 
L 712.435175 72.856586 
L 716.101039 72.856586 
L 716.811898 72.300799 
L 716.821558 72.856586 
L 718.304482 73.412372 
L 720.937075 73.412372 
L 722.831551 73.968159 
L 724.526972 73.968159 
L 727.025804 61.740852 
L 729.943146 61.740852 
L 729.956657 64.519786 
L 744.625145 64.519786 
L 744.626665 65.075572 
L 744.880372 65.631359 
L 746.285336 65.631359 
L 746.590926 66.187146 
L 751.199298 66.187146 
L 752.264624 66.742932 
L 752.439898 66.187146 
L 760.682484 66.187146 
L 760.684342 66.742932 
L 773.719931 66.742932 
L 773.809071 67.854506 
L 775.696115 69.521866 
L 777.589577 69.521866 
L 777.791266 70.077652 
L 785.75086 70.077652 
L 785.89722 70.633439 
L 793.889544 70.633439 
L 794.063636 71.189226 
L 796.26637 72.856586 
L 796.437051 73.412372 
L 812.012614 73.412372 
L 812.012614 73.412372 
" clip-path="url(#pc1a504c4dc)" style="fill: none; stroke: #9467bd; stroke-width: 2; stroke-linecap: square"/>
   </g>
   <g id="patch_3">
    <path d="M 48.90125 455.237812 
L 48.90125 38.397812 
" style="fill: none; stroke: #d0d7de; stroke-width: 0.8; stroke-linejoin: miter; stroke-linecap: square"/>
   </g>
   <g id="patch_4">
    <path d="M 848.35125 455.237812 
L 848.35125 38.397812 
" style="fill: none; stroke: #d0d7de; stroke-width: 0.8; stroke-linejoin: miter; stroke-linecap: square"/>
   </g>
   <g id="patch_5">
    <path d="M 48.90125 455.237812 
L 848.35125 455.237812 
" style="fill: none; stroke: #d0d7de; stroke-width: 0.8; stroke-linejoin: miter; stroke-linecap: square"/>
   </g>
   <g id="patch_6">
    <path d="M 48.90125 38.397812 
L 848.35125 38.397812 
" style="fill: none; stroke: #d0d7de; stroke-width: 0.8; stroke-linejoin: miter; stroke-linecap: square"/>
   </g>
   <g id="text_20">
    <!-- 530 -->
    <g style="fill: #1a7f37" transform="translate(817.012614 163.154317) scale(0.09 -0.09)">
     <defs>
      <path id="DejaVuSans-Bold-35" d="M 678 4666 
L 3669 4666 
L 3669 3781 
L 1638 3781 
L 1638 3059 
Q 1775 3097 1914 3117 
Q 2053 3138 2203 3138 
Q 3056 3138 3531 2711 
Q 4006 2284 4006 1522 
Q 4006 766 3489 337 
Q 2972 -91 2053 -91 
Q 1656 -91 1267 -14 
Q 878 63 494 219 
L 494 1166 
Q 875 947 1217 837 
Q 1559 728 1863 728 
Q 2300 728 2551 942 
Q 2803 1156 2803 1522 
Q 2803 1891 2551 2103 
Q 2300 2316 1863 2316 
Q 1603 2316 1309 2248 
Q 1016 2181 678 2041 
L 678 4666 
z
" transform="scale(0.015625)"/>
      <path id="DejaVuSans-Bold-33" d="M 2981 2516 
Q 3453 2394 3698 2092 
Q 3944 1791 3944 1325 
Q 3944 631 3412 270 
Q 2881 -91 1863 -91 
Q 1503 -91 1142 -33 
Q 781 25 428 141 
L 428 1069 
Q 766 900 1098 814 
Q 1431 728 1753 728 
Q 2231 728 2486 893 
Q 2741 1059 2741 1369 
Q 2741 1688 2480 1852 
Q 2219 2016 1709 2016 
L 1228 2016 
L 1228 2791 
L 1734 2791 
Q 2188 2791 2409 2933 
Q 2631 3075 2631 3366 
Q 2631 3634 2415 3781 
Q 2200 3928 1806 3928 
Q 1516 3928 1219 3862 
Q 922 3797 628 3669 
L 628 4550 
Q 984 4650 1334 4700 
Q 1684 4750 2022 4750 
Q 2931 4750 3382 4451 
Q 3834 4153 3834 3553 
Q 3834 3144 3618 2883 
Q 3403 2622 2981 2516 
z
" transform="scale(0.015625)"/>
      <path id="DejaVuSans-Bold-30" d="M 2944 2338 
Q 2944 3213 2780 3570 
Q 2616 3928 2228 3928 
Q 1841 3928 1675 3570 
Q 1509 3213 1509 2338 
Q 1509 1453 1675 1090 
Q 1841 728 2228 728 
Q 2613 728 2778 1090 
Q 2944 1453 2944 2338 
z
M 4147 2328 
Q 4147 1169 3647 539 
Q 3147 -91 2228 -91 
Q 1306 -91 806 539 
Q 306 1169 306 2328 
Q 306 3491 806 4120 
Q 1306 4750 2228 4750 
Q 3147 4750 3647 4120 
Q 4147 3491 4147 2328 
z
" transform="scale(0.015625)"/>
     </defs>
     <use xlink:href="#DejaVuSans-Bold-35"/>
     <use xlink:href="#DejaVuSans-Bold-33" transform="translate(69.580078 0)"/>
     <use xlink:href="#DejaVuSans-Bold-30" transform="translate(139.160156 0)"/>
    </g>
   </g>
   <g id="text_21">
    <!-- 411 -->
    <g style="fill: #0969da" transform="translate(817.012614 229.29293) scale(0.09 -0.09)">
     <defs>
      <path id="DejaVuSans-Bold-34" d="M 2356 3675 
L 1038 1722 
L 2356 1722 
L 2356 3675 
z
M 2156 4666 
L 3494 4666 
L 3494 1722 
L 4159 1722 
L 4159 850 
L 3494 850 
L 3494 0 
L 2356 0 
L 2356 850 
L 288 850 
L 288 1881 
L 2156 4666 
z
" transform="scale(0.015625)"/>
      <path id="DejaVuSans-Bold-31" d="M 750 831 
L 1813 831 
L 1813 3847 
L 722 3622 
L 722 4441 
L 1806 4666 
L 2950 4666 
L 2950 831 
L 4013 831 
L 4013 0 
L 750 0 
L 750 831 
z
" transform="scale(0.015625)"/>
     </defs>
     <use xlink:href="#DejaVuSans-Bold-34"/>
     <use xlink:href="#DejaVuSans-Bold-31" transform="translate(69.580078 0)"/>
     <use xlink:href="#DejaVuSans-Bold-31" transform="translate(139.160156 0)"/>
    </g>
   </g>
   <g id="text_22">
    <!-- 170 -->
    <g style="fill: #bf8700" transform="translate(817.012614 363.237517) scale(0.09 -0.09)">
     <defs>
      <path id="DejaVuSans-Bold-37" d="M 428 4666 
L 3944 4666 
L 3944 3988 
L 2125 0 
L 953 0 
L 2675 3781 
L 428 3781 
L 428 4666 
z
" transform="scale(0.015625)"/>
     </defs>
     <use xlink:href="#DejaVuSans-Bold-31"/>
     <use xlink:href="#DejaVuSans-Bold-37" transform="translate(69.580078 0)"/>
     <use xlink:href="#DejaVuSans-Bold-30" transform="translate(139.160156 0)"/>
    </g>
   </g>
   <g id="text_23">
    <!-- 297 -->
    <g style="fill: #cf222e" transform="translate(817.012614 292.65261) scale(0.09 -0.09)">
     <defs>
      <path id="DejaVuSans-Bold-32" d="M 1844 884 
L 3897 884 
L 3897 0 
L 506 0 
L 506 884 
L 2209 2388 
Q 2438 2594 2547 2791 
Q 2656 2988 2656 3200 
Q 2656 3528 2436 3728 
Q 2216 3928 1850 3928 
Q 1569 3928 1234 3808 
Q 900 3688 519 3450 
L 519 4475 
Q 925 4609 1322 4679 
Q 1719 4750 2100 4750 
Q 2938 4750 3402 4381 
Q 3866 4013 3866 3353 
Q 3866 2972 3669 2642 
Q 3472 2313 2841 1759 
L 1844 884 
z
" transform="scale(0.015625)"/>
      <path id="DejaVuSans-Bold-39" d="M 641 103 
L 641 966 
Q 928 831 1190 764 
Q 1453 697 1709 697 
Q 2247 697 2547 995 
Q 2847 1294 2900 1881 
Q 2688 1725 2447 1647 
Q 2206 1569 1925 1569 
Q 1209 1569 770 1986 
Q 331 2403 331 3084 
Q 331 3838 820 4291 
Q 1309 4744 2131 4744 
Q 3044 4744 3544 4128 
Q 4044 3513 4044 2388 
Q 4044 1231 3459 570 
Q 2875 -91 1856 -91 
Q 1528 -91 1228 -42 
Q 928 6 641 103 
z
M 2125 2350 
Q 2441 2350 2600 2554 
Q 2759 2759 2759 3169 
Q 2759 3575 2600 3781 
Q 2441 3988 2125 3988 
Q 1809 3988 1650 3781 
Q 1491 3575 1491 3169 
Q 1491 2759 1650 2554 
Q 1809 2350 2125 2350 
z
" transform="scale(0.015625)"/>
     </defs>
     <use xlink:href="#DejaVuSans-Bold-32"/>
     <use xlink:href="#DejaVuSans-Bold-39" transform="translate(69.580078 0)"/>
     <use xlink:href="#DejaVuSans-Bold-37" transform="translate(139.160156 0)"/>
    </g>
   </g>
   <g id="text_24">
    <!-- 687 -->
    <g style="fill: #9467bd" transform="translate(817.012614 75.89581) scale(0.09 -0.09)">
     <defs>
      <path id="DejaVuSans-Bold-36" d="M 2316 2303 
Q 2000 2303 1842 2098 
Q 1684 1894 1684 1484 
Q 1684 1075 1842 870 
Q 2000 666 2316 666 
Q 2634 666 2792 870 
Q 2950 1075 2950 1484 
Q 2950 1894 2792 2098 
Q 2634 2303 2316 2303 
z
M 3803 4544 
L 3803 3681 
Q 3506 3822 3243 3889 
Q 2981 3956 2731 3956 
Q 2194 3956 1894 3657 
Q 1594 3359 1544 2772 
Q 1750 2925 1990 3001 
Q 2231 3078 2516 3078 
Q 3231 3078 3670 2659 
Q 4109 2241 4109 1563 
Q 4109 813 3618 361 
Q 3128 -91 2303 -91 
Q 1394 -91 895 523 
Q 397 1138 397 2266 
Q 397 3422 980 4083 
Q 1563 4744 2578 4744 
Q 2900 4744 3203 4694 
Q 3506 4644 3803 4544 
z
" transform="scale(0.015625)"/>
      <path id="DejaVuSans-Bold-38" d="M 2228 2088 
Q 1891 2088 1709 1903 
Q 1528 1719 1528 1375 
Q 1528 1031 1709 848 
Q 1891 666 2228 666 
Q 2563 666 2741 848 
Q 2919 1031 2919 1375 
Q 2919 1722 2741 1905 
Q 2563 2088 2228 2088 
z
M 1350 2484 
Q 925 2613 709 2878 
Q 494 3144 494 3541 
Q 494 4131 934 4440 
Q 1375 4750 2228 4750 
Q 3075 4750 3515 4442 
Q 3956 4134 3956 3541 
Q 3956 3144 3739 2878 
Q 3522 2613 3097 2484 
Q 3572 2353 3814 2058 
Q 4056 1763 4056 1313 
Q 4056 619 3595 264 
Q 3134 -91 2228 -91 
Q 1319 -91 855 264 
Q 391 619 391 1313 
Q 391 1763 633 2058 
Q 875 2353 1350 2484 
z
M 1631 3419 
Q 1631 3141 1786 2991 
Q 1941 2841 2228 2841 
Q 2509 2841 2662 2991 
Q 2816 3141 2816 3419 
Q 2816 3697 2662 3845 
Q 2509 3994 2228 3994 
Q 1941 3994 1786 3844 
Q 1631 3694 1631 3419 
z
" transform="scale(0.015625)"/>
     </defs>
     <use xlink:href="#DejaVuSans-Bold-36"/>
     <use xlink:href="#DejaVuSans-Bold-38" transform="translate(69.580078 0)"/>
     <use xlink:href="#DejaVuSans-Bold-37" transform="translate(139.160156 0)"/>
    </g>
   </g>
   <g id="text_25">
    <!-- Erdős Problems Progress -->
    <g style="fill: #24292f" transform="translate(349.588281 18.397812) scale(0.14 -0.14)">
     <defs>
      <path id="DejaVuSans-Bold-45" d="M 588 4666 
L 3834 4666 
L 3834 3756 
L 1791 3756 
L 1791 2888 
L 3713 2888 
L 3713 1978 
L 1791 1978 
L 1791 909 
L 3903 909 
L 3903 0 
L 588 0 
L 588 4666 
z
" transform="scale(0.015625)"/>
      <path id="DejaVuSans-Bold-72" d="M 3138 2547 
Q 2991 2616 2845 2648 
Q 2700 2681 2553 2681 
Q 2122 2681 1889 2404 
Q 1656 2128 1656 1613 
L 1656 0 
L 538 0 
L 538 3500 
L 1656 3500 
L 1656 2925 
Q 1872 3269 2151 3426 
Q 2431 3584 2822 3584 
Q 2878 3584 2943 3579 
Q 3009 3575 3134 3559 
L 3138 2547 
z
" transform="scale(0.015625)"/>
      <path id="DejaVuSans-Bold-64" d="M 2919 2988 
L 2919 4863 
L 4044 4863 
L 4044 0 
L 2919 0 
L 2919 506 
Q 2688 197 2409 53 
Q 2131 -91 1766 -91 
Q 1119 -91 703 423 
Q 288 938 288 1747 
Q 288 2556 703 3070 
Q 1119 3584 1766 3584 
Q 2128 3584 2408 3439 
Q 2688 3294 2919 2988 
z
M 2181 722 
Q 2541 722 2730 984 
Q 2919 1247 2919 1747 
Q 2919 2247 2730 2509 
Q 2541 2772 2181 2772 
Q 1825 2772 1636 2509 
Q 1447 2247 1447 1747 
Q 1447 1247 1636 984 
Q 1825 722 2181 722 
z
" transform="scale(0.015625)"/>
      <path id="DejaVuSans-Bold-151" d="M 1881 5119 
L 2560 5119 
L 1785 3944 
L 1275 3944 
L 1881 5119 
z
M 3016 5119 
L 3738 5119 
L 2888 3944 
L 2344 3944 
L 3016 5119 
z
M 2203 2784 
Q 1831 2784 1636 2517 
Q 1441 2250 1441 1747 
Q 1441 1244 1636 976 
Q 1831 709 2203 709 
Q 2569 709 2762 976 
Q 2956 1244 2956 1747 
Q 2956 2250 2762 2517 
Q 2569 2784 2203 2784 
z
M 2203 3584 
Q 3106 3584 3614 3096 
Q 4122 2609 4122 1747 
Q 4122 884 3614 396 
Q 3106 -91 2203 -91 
Q 1297 -91 786 396 
Q 275 884 275 1747 
Q 275 2609 786 3096 
Q 1297 3584 2203 3584 
z
" transform="scale(0.015625)"/>
      <path id="DejaVuSans-Bold-73" d="M 3272 3391 
L 3272 2541 
Q 2913 2691 2578 2766 
Q 2244 2841 1947 2841 
Q 1628 2841 1473 2761 
Q 1319 2681 1319 2516 
Q 1319 2381 1436 2309 
Q 1553 2238 1856 2203 
L 2053 2175 
Q 2913 2066 3209 1816 
Q 3506 1566 3506 1031 
Q 3506 472 3093 190 
Q 2681 -91 1863 -91 
Q 1516 -91 1145 -36 
Q 775 19 384 128 
L 384 978 
Q 719 816 1070 734 
Q 1422 653 1784 653 
Q 2113 653 2278 743 
Q 2444 834 2444 1013 
Q 2444 1163 2330 1236 
Q 2216 1309 1875 1350 
L 1678 1375 
Q 931 1469 631 1722 
Q 331 1975 331 2491 
Q 331 3047 712 3315 
Q 1094 3584 1881 3584 
Q 2191 3584 2531 3537 
Q 2872 3491 3272 3391 
z
" transform="scale(0.015625)"/>
      <path id="DejaVuSans-Bold-20" transform="scale(0.015625)"/>
      <path id="DejaVuSans-Bold-50" d="M 588 4666 
L 2584 4666 
Q 3475 4666 3951 4270 
Q 4428 3875 4428 3144 
Q 4428 2409 3951 2014 
Q 3475 1619 2584 1619 
L 1791 1619 
L 1791 0 
L 588 0 
L 588 4666 
z
M 1791 3794 
L 1791 2491 
L 2456 2491 
Q 2806 2491 2997 2661 
Q 3188 2831 3188 3144 
Q 3188 3456 2997 3625 
Q 2806 3794 2456 3794 
L 1791 3794 
z
" transform="scale(0.015625)"/>
      <path id="DejaVuSans-Bold-6f" d="M 2203 2784 
Q 1831 2784 1636 2517 
Q 1441 2250 1441 1747 
Q 1441 1244 1636 976 
Q 1831 709 2203 709 
Q 2569 709 2762 976 
Q 2956 1244 2956 1747 
Q 2956 2250 2762 2517 
Q 2569 2784 2203 2784 
z
M 2203 3584 
Q 3106 3584 3614 3096 
Q 4122 2609 4122 1747 
Q 4122 884 3614 396 
Q 3106 -91 2203 -91 
Q 1297 -91 786 396 
Q 275 884 275 1747 
Q 275 2609 786 3096 
Q 1297 3584 2203 3584 
z
" transform="scale(0.015625)"/>
      <path id="DejaVuSans-Bold-62" d="M 2400 722 
Q 2759 722 2948 984 
Q 3138 1247 3138 1747 
Q 3138 2247 2948 2509 
Q 2759 2772 2400 2772 
Q 2041 2772 1848 2508 
Q 1656 2244 1656 1747 
Q 1656 1250 1848 986 
Q 2041 722 2400 722 
z
M 1656 2988 
Q 1888 3294 2169 3439 
Q 2450 3584 2816 3584 
Q 3463 3584 3878 3070 
Q 4294 2556 4294 1747 
Q 4294 938 3878 423 
Q 3463 -91 2816 -91 
Q 2450 -91 2169 54 
Q 1888 200 1656 506 
L 1656 0 
L 538 0 
L 538 4863 
L 1656 4863 
L 1656 2988 
z
" transform="scale(0.015625)"/>
      <path id="DejaVuSans-Bold-6c" d="M 538 4863 
L 1656 4863 
L 1656 0 
L 538 0 
L 538 4863 
z
" transform="scale(0.015625)"/>
      <path id="DejaVuSans-Bold-65" d="M 4031 1759 
L 4031 1441 
L 1416 1441 
Q 1456 1047 1700 850 
Q 1944 653 2381 653 
Q 2734 653 3104 758 
Q 3475 863 3866 1075 
L 3866 213 
Q 3469 63 3072 -14 
Q 2675 -91 2278 -91 
Q 1328 -91 801 392 
Q 275 875 275 1747 
Q 275 2603 792 3093 
Q 1309 3584 2216 3584 
Q 3041 3584 3536 3087 
Q 4031 2591 4031 1759 
z
M 2881 2131 
Q 2881 2450 2695 2645 
Q 2509 2841 2209 2841 
Q 1884 2841 1681 2658 
Q 1478 2475 1428 2131 
L 2881 2131 
z
" transform="scale(0.015625)"/>
      <path id="DejaVuSans-Bold-6d" d="M 3781 2919 
Q 3994 3244 4286 3414 
Q 4578 3584 4928 3584 
Q 5531 3584 5847 3212 
Q 6163 2841 6163 2131 
L 6163 0 
L 5038 0 
L 5038 1825 
Q 5041 1866 5042 1909 
Q 5044 1953 5044 2034 
Q 5044 2406 4934 2573 
Q 4825 2741 4581 2741 
Q 4263 2741 4089 2478 
Q 3916 2216 3909 1719 
L 3909 0 
L 2784 0 
L 2784 1825 
Q 2784 2406 2684 2573 
Q 2584 2741 2328 2741 
Q 2006 2741 1831 2477 
Q 1656 2213 1656 1722 
L 1656 0 
L 531 0 
L 531 3500 
L 1656 3500 
L 1656 2988 
Q 1863 3284 2130 3434 
Q 2397 3584 2719 3584 
Q 3081 3584 3359 3409 
Q 3638 3234 3781 2919 
z
" transform="scale(0.015625)"/>
      <path id="DejaVuSans-Bold-67" d="M 2919 594 
Q 2688 288 2409 144 
Q 2131 0 1766 0 
Q 1125 0 706 504 
Q 288 1009 288 1791 
Q 288 2575 706 3076 
Q 1125 3578 1766 3578 
Q 2131 3578 2409 3434 
Q 2688 3291 2919 2981 
L 2919 3500 
L 4044 3500 
L 4044 353 
Q 4044 -491 3511 -936 
Q 2978 -1381 1966 -1381 
Q 1638 -1381 1331 -1331 
Q 1025 -1281 716 -1178 
L 716 -306 
Q 1009 -475 1290 -558 
Q 1572 -641 1856 -641 
Q 2406 -641 2662 -400 
Q 2919 -159 2919 353 
L 2919 594 
z
M 2181 2772 
Q 1834 2772 1640 2515 
Q 1447 2259 1447 1791 
Q 1447 1309 1634 1061 
Q 1822 813 2181 813 
Q 2531 813 2725 1069 
Q 2919 1325 2919 1791 
Q 2919 2259 2725 2515 
Q 2531 2772 2181 2772 
z
" transform="scale(0.015625)"/>
     </defs>
     <use xlink:href="#DejaVuSans-Bold-45"/>
     <use xlink:href="#DejaVuSans-Bold-72" transform="translate(68.310547 0)"/>
     <use xlink:href="#DejaVuSans-Bold-64" transform="translate(117.626953 0)"/>
     <use xlink:href="#DejaVuSans-Bold-151" transform="translate(189.208984 0)"/>
     <use xlink:href="#DejaVuSans-Bold-73" transform="translate(257.910156 0)"/>
     <use xlink:href="#DejaVuSans-Bold-20" transform="translate(317.431641 0)"/>
     <use xlink:href="#DejaVuSans-Bold-50" transform="translate(352.246094 0)"/>
     <use xlink:href="#DejaVuSans-Bold-72" transform="translate(425.537109 0)"/>
     <use xlink:href="#DejaVuSans-Bold-6f" transform="translate(474.853516 0)"/>
     <use xlink:href="#DejaVuSans-Bold-62" transform="translate(543.554688 0)"/>
     <use xlink:href="#DejaVuSans-Bold-6c" transform="translate(615.136719 0)"/>
     <use xlink:href="#DejaVuSans-Bold-65" transform="translate(649.414062 0)"/>
     <use xlink:href="#DejaVuSans-Bold-6d" transform="translate(717.236328 0)"/>
     <use xlink:href="#DejaVuSans-Bold-73" transform="translate(821.435547 0)"/>
     <use xlink:href="#DejaVuSans-Bold-20" transform="translate(880.957031 0)"/>
     <use xlink:href="#DejaVuSans-Bold-50" transform="translate(915.771484 0)"/>
     <use xlink:href="#DejaVuSans-Bold-72" transform="translate(989.0625 0)"/>
     <use xlink:href="#DejaVuSans-Bold-6f" transform="translate(1038.378906 0)"/>
     <use xlink:href="#DejaVuSans-Bold-67" transform="translate(1107.080078 0)"/>
     <use xlink:href="#DejaVuSans-Bold-72" transform="translate(1178.662109 0)"/>
     <use xlink:href="#DejaVuSans-Bold-65" transform="translate(1227.978516 0)"/>
     <use xlink:href="#DejaVuSans-Bold-73" transform="translate(1295.800781 0)"/>
     <use xlink:href="#DejaVuSans-Bold-73" transform="translate(1355.322266 0)"/>
    </g>
   </g>
   <g id="legend_1">
    <g id="patch_7">
     <path d="M 55.90125 119.788437 
L 213.771563 119.788437 
Q 215.771563 119.788437 215.771563 117.788437 
L 215.771563 45.397812 
Q 215.771563 43.397812 213.771563 43.397812 
L 55.90125 43.397812 
Q 53.90125 43.397812 53.90125 45.397812 
L 53.90125 117.788437 
Q 53.90125 119.788437 55.90125 119.788437 
z
" style="fill: #f6f8fa; opacity: 0.8; stroke: #d0d7de; stroke-linejoin: miter"/>
    </g>
    <g id="line2d_40">
     <path d="M 57.90125 51.49625 
L 67.90125 51.49625 
L 77.90125 51.49625 
" style="fill: none; stroke: #1a7f37; stroke-width: 2; stroke-linecap: square"/>
    </g>
    <g id="text_26">
     <!-- Solved -->
     <g style="fill: #24292f" transform="translate(85.90125 54.99625) scale(0.1 -0.1)">
      <defs>
       <path id="DejaVuSans-6c" d="M 603 4863 
L 1178 4863 
L 1178 0 
L 603 0 
L 603 4863 
z
" transform="scale(0.015625)"/>
       <path id="DejaVuSans-64" d="M 2906 2969 
L 2906 4863 
L 3481 4863 
L 3481 0 
L 2906 0 
L 2906 525 
Q 2725 213 2448 61 
Q 2172 -91 1784 -91 
Q 1150 -91 751 415 
Q 353 922 353 1747 
Q 353 2572 751 3078 
Q 1150 3584 1784 3584 
Q 2172 3584 2448 3432 
Q 2725 3281 2906 2969 
z
M 947 1747 
Q 947 1113 1208 752 
Q 1469 391 1925 391 
Q 2381 391 2643 752 
Q 2906 1113 2906 1747 
Q 2906 2381 2643 2742 
Q 2381 3103 1925 3103 
Q 1469 3103 1208 2742 
Q 947 2381 947 1747 
z
" transform="scale(0.015625)"/>
      </defs>
      <use xlink:href="#DejaVuSans-53"/>
      <use xlink:href="#DejaVuSans-6f" transform="translate(63.476562 0)"/>
      <use xlink:href="#DejaVuSans-6c" transform="translate(124.658203 0)"/>
      <use xlink:href="#DejaVuSans-76" transform="translate(152.441406 0)"/>
      <use xlink:href="#DejaVuSans-65" transform="translate(211.621094 0)"/>
      <use xlink:href="#DejaVuSans-64" transform="translate(273.144531 0)"/>
     </g>
    </g>
    <g id="line2d_41">
     <path d="M 57.90125 66.174375 
L 67.90125 66.174375 
L 77.90125 66.174375 
" style="fill: none; stroke: #0969da; stroke-width: 2; stroke-linecap: square"/>
    </g>
    <g id="text_27">
     <!-- Lean Formalized Problem -->
     <g style="fill: #24292f" transform="translate(85.90125 69.674375) scale(0.1 -0.1)">
      <defs>
       <path id="DejaVuSans-4c" d="M 628 4666 
L 1259 4666 
L 1259 531 
L 3531 531 
L 3531 0 
L 628 0 
L 628 4666 
z
" transform="scale(0.015625)"/>
       <path id="DejaVuSans-20" transform="scale(0.015625)"/>
       <path id="DejaVuSans-6d" d="M 3328 2828 
Q 3544 3216 3844 3400 
Q 4144 3584 4550 3584 
Q 5097 3584 5394 3201 
Q 5691 2819 5691 2113 
L 5691 0 
L 5113 0 
L 5113 2094 
Q 5113 2597 4934 2840 
Q 4756 3084 4391 3084 
Q 3944 3084 3684 2787 
Q 3425 2491 3425 1978 
L 3425 0 
L 2847 0 
L 2847 2094 
Q 2847 2600 2669 2842 
Q 2491 3084 2119 3084 
Q 1678 3084 1418 2786 
Q 1159 2488 1159 1978 
L 1159 0 
L 581 0 
L 581 3500 
L 1159 3500 
L 1159 2956 
Q 1356 3278 1631 3431 
Q 1906 3584 2284 3584 
Q 2666 3584 2933 3390 
Q 3200 3197 3328 2828 
z
" transform="scale(0.015625)"/>
       <path id="DejaVuSans-69" d="M 603 3500 
L 1178 3500 
L 1178 0 
L 603 0 
L 603 3500 
z
M 603 4863 
L 1178 4863 
L 1178 4134 
L 603 4134 
L 603 4863 
z
" transform="scale(0.015625)"/>
       <path id="DejaVuSans-7a" d="M 353 3500 
L 3084 3500 
L 3084 2975 
L 922 459 
L 3084 459 
L 3084 0 
L 275 0 
L 275 525 
L 2438 3041 
L 353 3041 
L 353 3500 
z
" transform="scale(0.015625)"/>
       <path id="DejaVuSans-50" d="M 1259 4147 
L 1259 2394 
L 2053 2394 
Q 2494 2394 2734 2622 
Q 2975 2850 2975 3272 
Q 2975 3691 2734 3919 
Q 2494 4147 2053 4147 
L 1259 4147 
z
M 628 4666 
L 2053 4666 
Q 2838 4666 3239 4311 
Q 3641 3956 3641 3272 
Q 3641 2581 3239 2228 
Q 2838 1875 2053 1875 
L 1259 1875 
L 1259 0 
L 628 0 
L 628 4666 
z
" transform="scale(0.015625)"/>
      </defs>
      <use xlink:href="#DejaVuSans-4c"/>
      <use xlink:href="#DejaVuSans-65" transform="translate(53.962891 0)"/>
      <use xlink:href="#DejaVuSans-61" transform="translate(115.486328 0)"/>
      <use xlink:href="#DejaVuSans-6e" transform="translate(176.765625 0)"/>
      <use xlink:href="#DejaVuSans-20" transform="translate(240.144531 0)"/>
      <use xlink:href="#DejaVuSans-46" transform="translate(271.931641 0)"/>
      <use xlink:href="#DejaVuSans-6f" transform="translate(325.826172 0)"/>
      <use xlink:href="#DejaVuSans-72" transform="translate(387.007812 0)"/>
      <use xlink:href="#DejaVuSans-6d" transform="translate(426.371094 0)"/>
      <use xlink:href="#DejaVuSans-61" transform="translate(523.783203 0)"/>
      <use xlink:href="#DejaVuSans-6c" transform="translate(585.0625 0)"/>
      <use xlink:href="#DejaVuSans-69" transform="translate(612.845703 0)"/>
      <use xlink:href="#DejaVuSans-7a" transform="translate(640.628906 0)"/>
      <use xlink:href="#DejaVuSans-65" transform="translate(693.119141 0)"/>
      <use xlink:href="#DejaVuSans-64" transform="translate(754.642578 0)"/>
      <use xlink:href="#DejaVuSans-20" transform="translate(818.119141 0)"/>
      <use xlink:href="#DejaVuSans-50" transform="translate(849.90625 0)"/>
      <use xlink:href="#DejaVuSans-72" transform="translate(908.458984 0)"/>
      <use xlink:href="#DejaVuSans-6f" transform="translate(947.322266 0)"/>
      <use xlink:href="#DejaVuSans-62" transform="translate(1008.503906 0)"/>
      <use xlink:href="#DejaVuSans-6c" transform="translate(1071.980469 0)"/>
      <use xlink:href="#DejaVuSans-65" transform="translate(1099.763672 0)"/>
      <use xlink:href="#DejaVuSans-6d" transform="translate(1161.287109 0)"/>
     </g>
    </g>
    <g id="line2d_42">
     <path d="M 57.90125 80.8525 
L 67.90125 80.8525 
L 77.90125 80.8525 
" style="fill: none; stroke: #bf8700; stroke-width: 2; stroke-linecap: square"/>
    </g>
    <g id="text_28">
     <!-- Lean Formalized Solution -->
     <g style="fill: #24292f" transform="translate(85.90125 84.3525) scale(0.1 -0.1)">
      <use xlink:href="#DejaVuSans-4c"/>
      <use xlink:href="#DejaVuSans-65" transform="translate(53.962891 0)"/>
      <use xlink:href="#DejaVuSans-61" transform="translate(115.486328 0)"/>
      <use xlink:href="#DejaVuSans-6e" transform="translate(176.765625 0)"/>
      <use xlink:href="#DejaVuSans-20" transform="translate(240.144531 0)"/>
      <use xlink:href="#DejaVuSans-46" transform="translate(271.931641 0)"/>
      <use xlink:href="#DejaVuSans-6f" transform="translate(325.826172 0)"/>
      <use xlink:href="#DejaVuSans-72" transform="translate(387.007812 0)"/>
      <use xlink:href="#DejaVuSans-6d" transform="translate(426.371094 0)"/>
      <use xlink:href="#DejaVuSans-61" transform="translate(523.783203 0)"/>
      <use xlink:href="#DejaVuSans-6c" transform="translate(585.0625 0)"/>
      <use xlink:href="#DejaVuSans-69" transform="translate(612.845703 0)"/>
      <use xlink:href="#DejaVuSans-7a" transform="translate(640.628906 0)"/>
      <use xlink:href="#DejaVuSans-65" transform="translate(693.119141 0)"/>
      <use xlink:href="#DejaVuSans-64" transform="translate(754.642578 0)"/>
      <use xlink:href="#DejaVuSans-20" transform="translate(818.119141 0)"/>
      <use xlink:href="#DejaVuSans-53" transform="translate(849.90625 0)"/>
      <use xlink:href="#DejaVuSans-6f" transform="translate(913.382812 0)"/>
      <use xlink:href="#DejaVuSans-6c" transform="translate(974.564453 0)"/>
      <use xlink:href="#DejaVuSans-75" transform="translate(1002.347656 0)"/>
      <use xlink:href="#DejaVuSans-74" transform="translate(1065.726562 0)"/>
      <use xlink:href="#DejaVuSans-69" transform="translate(1104.935547 0)"/>
      <use xlink:href="#DejaVuSans-6f" transform="translate(1132.71875 0)"/>
      <use xlink:href="#DejaVuSans-6e" transform="translate(1193.900391 0)"/>
     </g>
    </g>
    <g id="line2d_43">
     <path d="M 57.90125 95.530625 
L 67.90125 95.530625 
L 77.90125 95.530625 
" style="fill: none; stroke: #cf222e; stroke-width: 2; stroke-linecap: square"/>
    </g>
    <g id="text_29">
     <!-- OEIS Linked -->
     <g style="fill: #24292f" transform="translate(85.90125 99.030625) scale(0.1 -0.1)">
      <defs>
       <path id="DejaVuSans-45" d="M 628 4666 
L 3578 4666 
L 3578 4134 
L 1259 4134 
L 1259 2753 
L 3481 2753 
L 3481 2222 
L 1259 2222 
L 1259 531 
L 3634 531 
L 3634 0 
L 628 0 
L 628 4666 
z
" transform="scale(0.015625)"/>
       <path id="DejaVuSans-49" d="M 628 4666 
L 1259 4666 
L 1259 0 
L 628 0 
L 628 4666 
z
" transform="scale(0.015625)"/>
       <path id="DejaVuSans-6b" d="M 581 4863 
L 1159 4863 
L 1159 1991 
L 2875 3500 
L 3609 3500 
L 1753 1863 
L 3688 0 
L 2938 0 
L 1159 1709 
L 1159 0 
L 581 0 
L 581 4863 
z
" transform="scale(0.015625)"/>
      </defs>
      <use xlink:href="#DejaVuSans-4f"/>
      <use xlink:href="#DejaVuSans-45" transform="translate(78.710938 0)"/>
      <use xlink:href="#DejaVuSans-49" transform="translate(141.894531 0)"/>
      <use xlink:href="#DejaVuSans-53" transform="translate(171.386719 0)"/>
      <use xlink:href="#DejaVuSans-20" transform="translate(234.863281 0)"/>
      <use xlink:href="#DejaVuSans-4c" transform="translate(266.650391 0)"/>
      <use xlink:href="#DejaVuSans-69" transform="translate(322.363281 0)"/>
      <use xlink:href="#DejaVuSans-6e" transform="translate(350.146484 0)"/>
      <use xlink:href="#DejaVuSans-6b" transform="translate(413.525391 0)"/>
      <use xlink:href="#DejaVuSans-65" transform="translate(467.810547 0)"/>
      <use xlink:href="#DejaVuSans-64" transform="translate(529.333984 0)"/>
     </g>
    </g>
    <g id="line2d_44">
     <path d="M 57.90125 110.20875 
L 67.90125 110.20875 
L 77.90125 110.20875 
" style="fill: none; stroke: #9467bd; stroke-width: 2; stroke-linecap: square"/>
    </g>
    <g id="text_30">
     <!-- Open Problems -->
     <g style="fill: #24292f" transform="translate(85.90125 113.70875) scale(0.1 -0.1)">
      <defs>
       <path id="DejaVuSans-73" d="M 2834 3397 
L 2834 2853 
Q 2591 2978 2328 3040 
Q 2066 3103 1784 3103 
Q 1356 3103 1142 2972 
Q 928 2841 928 2578 
Q 928 2378 1081 2264 
Q 1234 2150 1697 2047 
L 1894 2003 
Q 2506 1872 2764 1633 
Q 3022 1394 3022 966 
Q 3022 478 2636 193 
Q 2250 -91 1575 -91 
Q 1294 -91 989 -36 
Q 684 19 347 128 
L 347 722 
Q 666 556 975 473 
Q 1284 391 1588 391 
Q 1994 391 2212 530 
Q 2431 669 2431 922 
Q 2431 1156 2273 1281 
Q 2116 1406 1581 1522 
L 1381 1569 
Q 847 1681 609 1914 
Q 372 2147 372 2553 
Q 372 3047 722 3315 
Q 1072 3584 1716 3584 
Q 2034 3584 2315 3537 
Q 2597 3491 2834 3397 
z
" transform="scale(0.015625)"/>
      </defs>
      <use xlink:href="#DejaVuSans-4f"/>
      <use xlink:href="#DejaVuSans-70" transform="translate(78.710938 0)"/>
      <use xlink:href="#DejaVuSans-65" transform="translate(142.1875 0)"/>
      <use xlink:href="#DejaVuSans-6e" transform="translate(203.710938 0)"/>
      <use xlink:href="#DejaVuSans-20" transform="translate(267.089844 0)"/>
      <use xlink:href="#DejaVuSans-50" transform="translate(298.876953 0)"/>
      <use xlink:href="#DejaVuSans-72" transform="translate(357.429688 0)"/>
      <use xlink:href="#DejaVuSans-6f" transform="translate(396.292969 0)"/>
      <use xlink:href="#DejaVuSans-62" transform="translate(457.474609 0)"/>
      <use xlink:href="#DejaVuSans-6c" transform="translate(520.951172 0)"/>
      <use xlink:href="#DejaVuSans-65" transform="translate(548.734375 0)"/>
      <use xlink:href="#DejaVuSans-6d" transform="translate(610.257812 0)"/>
      <use xlink:href="#DejaVuSans-73" transform="translate(707.669922 0)"/>
     </g>
    </g>
   </g>
  </g>
 </g>
 <defs>
  <clipPath id="pc1a504c4dc">
   <rect x="48.90125" y="38.397812" width="799.45" height="416.84"/>
  </clipPath>
 </defs>
</svg>
