<?xml version="1.0" encoding="utf-8" standalone="no"?>
<!DOCTYPE svg PUBLIC "-//W3C//DTD SVG 1.1//EN"
  "http://www.w3.org/Graphics/SVG/1.1/DTD/svg11.dtd">
<svg xmlns:xlink="http://www.w3.org/1999/xlink" width="855.55125pt" height="494.729687pt" viewBox="0 0 855.55125 494.729687" xmlns="http://www.w3.org/2000/svg" version="1.1">
 <metadata>
  <rdf:RDF xmlns:dc="http://purl.org/dc/elements/1.1/" xmlns:cc="http://creativecommons.org/ns#" xmlns:rdf="http://www.w3.org/1999/02/22-rdf-syntax-ns#">
   <cc:Work>
    <dc:type rdf:resource="http://purl.org/dc/dcmitype/StillImage"/>
    <dc:date>2026-01-22T07:13:43.853276</dc:date>
    <dc:format>image/svg+xml</dc:format>
    <dc:creator>
     <cc:Agent>
      <dc:title>Matplotlib v3.10.7, https://matplotlib.org/</dc:title>
     </cc:Agent>
    </dc:creator>
   </cc:Work>
  </rdf:RDF>
 </metadata>
 <defs>
  <style type="text/css">*{stroke-linejoin: round; stroke-linecap: butt}</style>
 </defs>
 <g id="figure_1">
  <g id="patch_1">
   <path d="M 0 494.729687 
L 855.55125 494.729687 
L 855.55125 0 
L 0 0 
z
" style="fill: #0d1117"/>
  </g>
  <g id="axes_1">
   <g id="patch_2">
    <path d="M 48.90125 455.237812 
L 848.35125 455.237812 
L 848.35125 38.397812 
L 48.90125 38.397812 
z
" style="fill: #0d1117"/>
   </g>
   <g id="matplotlib.axis_1">
    <g id="xtick_1">
     <g id="line2d_1">
      <path d="M 86.719502 455.237812 
L 86.719502 38.397812 
" clip-path="url(#p557d15430c)" style="fill: none; stroke: #30363d; stroke-opacity: 0.25; stroke-width: 0.5; stroke-linecap: square"/>
     </g>
     <g id="line2d_2">
      <defs>
       <path id="m6ca415de54" d="M 0 0 
L 0 3.5 
" style="stroke: #c9d1d9; stroke-width: 0.8"/>
      </defs>
      <g>
       <use xlink:href="#m6ca415de54" x="86.719502" y="455.237812" style="fill: #c9d1d9; stroke: #c9d1d9; stroke-width: 0.8"/>
      </g>
     </g>
     <g id="text_1">
      <!-- Sep -->
      <g style="fill: #c9d1d9" transform="translate(77.294502 469.83625) scale(0.1 -0.1)">
       <defs>
        <path id="DejaVuSans-53" d="M 3425 4513 
L 3425 3897 
Q 3066 4069 2747 4153 
Q 2428 4238 2131 4238 
Q 1616 4238 1336 4038 
Q 1056 3838 1056 3469 
Q 1056 3159 1242 3001 
Q 1428 2844 1947 2747 
L 2328 2669 
Q 3034 2534 3370 2195 
Q 3706 1856 3706 1288 
Q 3706 609 3251 259 
Q 2797 -91 1919 -91 
Q 1588 -91 1214 -16 
Q 841 59 441 206 
L 441 856 
Q 825 641 1194 531 
Q 1563 422 1919 422 
Q 2459 422 2753 634 
Q 3047 847 3047 1241 
Q 3047 1584 2836 1778 
Q 2625 1972 2144 2069 
L 1759 2144 
Q 1053 2284 737 2584 
Q 422 2884 422 3419 
Q 422 4038 858 4394 
Q 1294 4750 2059 4750 
Q 2388 4750 2728 4690 
Q 3069 4631 3425 4513 
z
" transform="scale(0.015625)"/>
        <path id="DejaVuSans-65" d="M 3597 1894 
L 3597 1613 
L 953 1613 
Q 991 1019 1311 708 
Q 1631 397 2203 397 
Q 2534 397 2845 478 
Q 3156 559 3463 722 
L 3463 178 
Q 3153 47 2828 -22 
Q 2503 -91 2169 -91 
Q 1331 -91 842 396 
Q 353 884 353 1716 
Q 353 2575 817 3079 
Q 1281 3584 2069 3584 
Q 2775 3584 3186 3129 
Q 3597 2675 3597 1894 
z
M 3022 2063 
Q 3016 2534 2758 2815 
Q 2500 3097 2075 3097 
Q 1594 3097 1305 2825 
Q 1016 2553 972 2059 
L 3022 2063 
z
" transform="scale(0.015625)"/>
        <path id="DejaVuSans-70" d="M 1159 525 
L 1159 -1331 
L 581 -1331 
L 581 3500 
L 1159 3500 
L 1159 2969 
Q 1341 3281 1617 3432 
Q 1894 3584 2278 3584 
Q 2916 3584 3314 3078 
Q 3713 2572 3713 1747 
Q 3713 922 3314 415 
Q 2916 -91 2278 -91 
Q 1894 -91 1617 61 
Q 1341 213 1159 525 
z
M 3116 1747 
Q 3116 2381 2855 2742 
Q 2594 3103 2138 3103 
Q 1681 3103 1420 2742 
Q 1159 2381 1159 1747 
Q 1159 1113 1420 752 
Q 1681 391 2138 391 
Q 2594 391 2855 752 
Q 3116 1113 3116 1747 
z
" transform="scale(0.015625)"/>
       </defs>
       <use xlink:href="#DejaVuSans-53"/>
       <use xlink:href="#DejaVuSans-65" transform="translate(63.476562 0)"/>
       <use xlink:href="#DejaVuSans-70" transform="translate(125 0)"/>
      </g>
     </g>
    </g>
    <g id="xtick_2">
     <g id="line2d_3">
      <path d="M 238.559086 455.237812 
L 238.559086 38.397812 
" clip-path="url(#p557d15430c)" style="fill: none; stroke: #30363d; stroke-opacity: 0.25; stroke-width: 0.5; stroke-linecap: square"/>
     </g>
     <g id="line2d_4">
      <g>
       <use xlink:href="#m6ca415de54" x="238.559086" y="455.237812" style="fill: #c9d1d9; stroke: #c9d1d9; stroke-width: 0.8"/>
      </g>
     </g>
     <g id="text_2">
      <!-- Oct -->
      <g style="fill: #c9d1d9" transform="translate(229.913773 469.83625) scale(0.1 -0.1)">
       <defs>
        <path id="DejaVuSans-4f" d="M 2522 4238 
Q 1834 4238 1429 3725 
Q 1025 3213 1025 2328 
Q 1025 1447 1429 934 
Q 1834 422 2522 422 
Q 3209 422 3611 934 
Q 4013 1447 4013 2328 
Q 4013 3213 3611 3725 
Q 3209 4238 2522 4238 
z
M 2522 4750 
Q 3503 4750 4090 4092 
Q 4678 3434 4678 2328 
Q 4678 1225 4090 567 
Q 3503 -91 2522 -91 
Q 1538 -91 948 565 
Q 359 1222 359 2328 
Q 359 3434 948 4092 
Q 1538 4750 2522 4750 
z
" transform="scale(0.015625)"/>
        <path id="DejaVuSans-63" d="M 3122 3366 
L 3122 2828 
Q 2878 2963 2633 3030 
Q 2388 3097 2138 3097 
Q 1578 3097 1268 2742 
Q 959 2388 959 1747 
Q 959 1106 1268 751 
Q 1578 397 2138 397 
Q 2388 397 2633 464 
Q 2878 531 3122 666 
L 3122 134 
Q 2881 22 2623 -34 
Q 2366 -91 2075 -91 
Q 1284 -91 818 406 
Q 353 903 353 1747 
Q 353 2603 823 3093 
Q 1294 3584 2113 3584 
Q 2378 3584 2631 3529 
Q 2884 3475 3122 3366 
z
" transform="scale(0.015625)"/>
        <path id="DejaVuSans-74" d="M 1172 4494 
L 1172 3500 
L 2356 3500 
L 2356 3053 
L 1172 3053 
L 1172 1153 
Q 1172 725 1289 603 
Q 1406 481 1766 481 
L 2356 481 
L 2356 0 
L 1766 0 
Q 1100 0 847 248 
Q 594 497 594 1153 
L 594 3053 
L 172 3053 
L 172 3500 
L 594 3500 
L 594 4494 
L 1172 4494 
z
" transform="scale(0.015625)"/>
       </defs>
       <use xlink:href="#DejaVuSans-4f"/>
       <use xlink:href="#DejaVuSans-63" transform="translate(78.710938 0)"/>
       <use xlink:href="#DejaVuSans-74" transform="translate(133.691406 0)"/>
      </g>
     </g>
    </g>
    <g id="xtick_3">
     <g id="line2d_5">
      <path d="M 395.459989 455.237812 
L 395.459989 38.397812 
" clip-path="url(#p557d15430c)" style="fill: none; stroke: #30363d; stroke-opacity: 0.25; stroke-width: 0.5; stroke-linecap: square"/>
     </g>
     <g id="line2d_6">
      <g>
       <use xlink:href="#m6ca415de54" x="395.459989" y="455.237812" style="fill: #c9d1d9; stroke: #c9d1d9; stroke-width: 0.8"/>
      </g>
     </g>
     <g id="text_3">
      <!-- Nov -->
      <g style="fill: #c9d1d9" transform="translate(385.700614 469.83625) scale(0.1 -0.1)">
       <defs>
        <path id="DejaVuSans-4e" d="M 628 4666 
L 1478 4666 
L 3547 763 
L 3547 4666 
L 4159 4666 
L 4159 0 
L 3309 0 
L 1241 3903 
L 1241 0 
L 628 0 
L 628 4666 
z
" transform="scale(0.015625)"/>
        <path id="DejaVuSans-6f" d="M 1959 3097 
Q 1497 3097 1228 2736 
Q 959 2375 959 1747 
Q 959 1119 1226 758 
Q 1494 397 1959 397 
Q 2419 397 2687 759 
Q 2956 1122 2956 1747 
Q 2956 2369 2687 2733 
Q 2419 3097 1959 3097 
z
M 1959 3584 
Q 2709 3584 3137 3096 
Q 3566 2609 3566 1747 
Q 3566 888 3137 398 
Q 2709 -91 1959 -91 
Q 1206 -91 779 398 
Q 353 888 353 1747 
Q 353 2609 779 3096 
Q 1206 3584 1959 3584 
z
" transform="scale(0.015625)"/>
        <path id="DejaVuSans-76" d="M 191 3500 
L 800 3500 
L 1894 563 
L 2988 3500 
L 3597 3500 
L 2284 0 
L 1503 0 
L 191 3500 
z
" transform="scale(0.015625)"/>
       </defs>
       <use xlink:href="#DejaVuSans-4e"/>
       <use xlink:href="#DejaVuSans-6f" transform="translate(74.804688 0)"/>
       <use xlink:href="#DejaVuSans-76" transform="translate(135.986328 0)"/>
      </g>
     </g>
    </g>
    <g id="xtick_4">
     <g id="line2d_7">
      <path d="M 547.299572 455.237812 
L 547.299572 38.397812 
" clip-path="url(#p557d15430c)" style="fill: none; stroke: #30363d; stroke-opacity: 0.25; stroke-width: 0.5; stroke-linecap: square"/>
     </g>
     <g id="line2d_8">
      <g>
       <use xlink:href="#m6ca415de54" x="547.299572" y="455.237812" style="fill: #c9d1d9; stroke: #c9d1d9; stroke-width: 0.8"/>
      </g>
     </g>
     <g id="text_4">
      <!-- Dec -->
      <g style="fill: #c9d1d9" transform="translate(537.623791 469.83625) scale(0.1 -0.1)">
       <defs>
        <path id="DejaVuSans-44" d="M 1259 4147 
L 1259 519 
L 2022 519 
Q 2988 519 3436 956 
Q 3884 1394 3884 2338 
Q 3884 3275 3436 3711 
Q 2988 4147 2022 4147 
L 1259 4147 
z
M 628 4666 
L 1925 4666 
Q 3281 4666 3915 4102 
Q 4550 3538 4550 2338 
Q 4550 1131 3912 565 
Q 3275 0 1925 0 
L 628 0 
L 628 4666 
z
" transform="scale(0.015625)"/>
       </defs>
       <use xlink:href="#DejaVuSans-44"/>
       <use xlink:href="#DejaVuSans-65" transform="translate(77.001953 0)"/>
       <use xlink:href="#DejaVuSans-63" transform="translate(138.525391 0)"/>
      </g>
     </g>
    </g>
    <g id="xtick_5">
     <g id="line2d_9">
      <path d="M 704.200476 455.237812 
L 704.200476 38.397812 
" clip-path="url(#p557d15430c)" style="fill: none; stroke: #30363d; stroke-opacity: 0.25; stroke-width: 0.5; stroke-linecap: square"/>
     </g>
     <g id="line2d_10">
      <g>
       <use xlink:href="#m6ca415de54" x="704.200476" y="455.237812" style="fill: #c9d1d9; stroke: #c9d1d9; stroke-width: 0.8"/>
      </g>
     </g>
     <g id="text_5">
      <!-- 2026 -->
      <g style="fill: #c9d1d9" transform="translate(691.475476 469.83625) scale(0.1 -0.1)">
       <defs>
        <path id="DejaVuSans-32" d="M 1228 531 
L 3431 531 
L 3431 0 
L 469 0 
L 469 531 
Q 828 903 1448 1529 
Q 2069 2156 2228 2338 
Q 2531 2678 2651 2914 
Q 2772 3150 2772 3378 
Q 2772 3750 2511 3984 
Q 2250 4219 1831 4219 
Q 1534 4219 1204 4116 
Q 875 4013 500 3803 
L 500 4441 
Q 881 4594 1212 4672 
Q 1544 4750 1819 4750 
Q 2544 4750 2975 4387 
Q 3406 4025 3406 3419 
Q 3406 3131 3298 2873 
Q 3191 2616 2906 2266 
Q 2828 2175 2409 1742 
Q 1991 1309 1228 531 
z
" transform="scale(0.015625)"/>
        <path id="DejaVuSans-30" d="M 2034 4250 
Q 1547 4250 1301 3770 
Q 1056 3291 1056 2328 
Q 1056 1369 1301 889 
Q 1547 409 2034 409 
Q 2525 409 2770 889 
Q 3016 1369 3016 2328 
Q 3016 3291 2770 3770 
Q 2525 4250 2034 4250 
z
M 2034 4750 
Q 2819 4750 3233 4129 
Q 3647 3509 3647 2328 
Q 3647 1150 3233 529 
Q 2819 -91 2034 -91 
Q 1250 -91 836 529 
Q 422 1150 422 2328 
Q 422 3509 836 4129 
Q 1250 4750 2034 4750 
z
" transform="scale(0.015625)"/>
        <path id="DejaVuSans-36" d="M 2113 2584 
Q 1688 2584 1439 2293 
Q 1191 2003 1191 1497 
Q 1191 994 1439 701 
Q 1688 409 2113 409 
Q 2538 409 2786 701 
Q 3034 994 3034 1497 
Q 3034 2003 2786 2293 
Q 2538 2584 2113 2584 
z
M 3366 4563 
L 3366 3988 
Q 3128 4100 2886 4159 
Q 2644 4219 2406 4219 
Q 1781 4219 1451 3797 
Q 1122 3375 1075 2522 
Q 1259 2794 1537 2939 
Q 1816 3084 2150 3084 
Q 2853 3084 3261 2657 
Q 3669 2231 3669 1497 
Q 3669 778 3244 343 
Q 2819 -91 2113 -91 
Q 1303 -91 875 529 
Q 447 1150 447 2328 
Q 447 3434 972 4092 
Q 1497 4750 2381 4750 
Q 2619 4750 2861 4703 
Q 3103 4656 3366 4563 
z
" transform="scale(0.015625)"/>
       </defs>
       <use xlink:href="#DejaVuSans-32"/>
       <use xlink:href="#DejaVuSans-30" transform="translate(63.623047 0)"/>
       <use xlink:href="#DejaVuSans-32" transform="translate(127.246094 0)"/>
       <use xlink:href="#DejaVuSans-36" transform="translate(190.869141 0)"/>
      </g>
     </g>
    </g>
    <g id="text_6">
     <!-- Date -->
     <g style="fill: #c9d1d9" transform="translate(434.285313 485.034062) scale(0.12 -0.12)">
      <defs>
       <path id="DejaVuSans-61" d="M 2194 1759 
Q 1497 1759 1228 1600 
Q 959 1441 959 1056 
Q 959 750 1161 570 
Q 1363 391 1709 391 
Q 2188 391 2477 730 
Q 2766 1069 2766 1631 
L 2766 1759 
L 2194 1759 
z
M 3341 1997 
L 3341 0 
L 2766 0 
L 2766 531 
Q 2569 213 2275 61 
Q 1981 -91 1556 -91 
Q 1019 -91 701 211 
Q 384 513 384 1019 
Q 384 1609 779 1909 
Q 1175 2209 1959 2209 
L 2766 2209 
L 2766 2266 
Q 2766 2663 2505 2880 
Q 2244 3097 1772 3097 
Q 1472 3097 1187 3025 
Q 903 2953 641 2809 
L 641 3341 
Q 956 3463 1253 3523 
Q 1550 3584 1831 3584 
Q 2591 3584 2966 3190 
Q 3341 2797 3341 1997 
z
" transform="scale(0.015625)"/>
      </defs>
      <use xlink:href="#DejaVuSans-44"/>
      <use xlink:href="#DejaVuSans-61" transform="translate(77.001953 0)"/>
      <use xlink:href="#DejaVuSans-74" transform="translate(138.28125 0)"/>
      <use xlink:href="#DejaVuSans-65" transform="translate(177.490234 0)"/>
     </g>
    </g>
   </g>
   <g id="matplotlib.axis_2">
    <g id="ytick_1">
     <g id="line2d_11">
      <path d="M 48.90125 455.237812 
L 848.35125 455.237812 
" clip-path="url(#p557d15430c)" style="fill: none; stroke: #30363d; stroke-opacity: 0.25; stroke-width: 0.5; stroke-linecap: square"/>
     </g>
     <g id="line2d_12">
      <defs>
       <path id="mcd34dd2fb6" d="M 0 0 
L -3.5 0 
" style="stroke: #c9d1d9; stroke-width: 0.8"/>
      </defs>
      <g>
       <use xlink:href="#mcd34dd2fb6" x="48.90125" y="455.237812" style="fill: #c9d1d9; stroke: #c9d1d9; stroke-width: 0.8"/>
      </g>
     </g>
     <g id="text_7">
      <!-- 0 -->
      <g style="fill: #c9d1d9" transform="translate(35.53875 459.037031) scale(0.1 -0.1)">
       <use xlink:href="#DejaVuSans-30"/>
      </g>
     </g>
    </g>
    <g id="ytick_2">
     <g id="line2d_13">
      <path d="M 48.90125 399.659146 
L 848.35125 399.659146 
" clip-path="url(#p557d15430c)" style="fill: none; stroke: #30363d; stroke-opacity: 0.25; stroke-width: 0.5; stroke-linecap: square"/>
     </g>
     <g id="line2d_14">
      <g>
       <use xlink:href="#mcd34dd2fb6" x="48.90125" y="399.659146" style="fill: #c9d1d9; stroke: #c9d1d9; stroke-width: 0.8"/>
      </g>
     </g>
     <g id="text_8">
      <!-- 100 -->
      <g style="fill: #c9d1d9" transform="translate(22.81375 403.458365) scale(0.1 -0.1)">
       <defs>
        <path id="DejaVuSans-31" d="M 794 531 
L 1825 531 
L 1825 4091 
L 703 3866 
L 703 4441 
L 1819 4666 
L 2450 4666 
L 2450 531 
L 3481 531 
L 3481 0 
L 794 0 
L 794 531 
z
" transform="scale(0.015625)"/>
       </defs>
       <use xlink:href="#DejaVuSans-31"/>
       <use xlink:href="#DejaVuSans-30" transform="translate(63.623047 0)"/>
       <use xlink:href="#DejaVuSans-30" transform="translate(127.246094 0)"/>
      </g>
     </g>
    </g>
    <g id="ytick_3">
     <g id="line2d_15">
      <path d="M 48.90125 344.080479 
L 848.35125 344.080479 
" clip-path="url(#p557d15430c)" style="fill: none; stroke: #30363d; stroke-opacity: 0.25; stroke-width: 0.5; stroke-linecap: square"/>
     </g>
     <g id="line2d_16">
      <g>
       <use xlink:href="#mcd34dd2fb6" x="48.90125" y="344.080479" style="fill: #c9d1d9; stroke: #c9d1d9; stroke-width: 0.8"/>
      </g>
     </g>
     <g id="text_9">
      <!-- 200 -->
      <g style="fill: #c9d1d9" transform="translate(22.81375 347.879698) scale(0.1 -0.1)">
       <use xlink:href="#DejaVuSans-32"/>
       <use xlink:href="#DejaVuSans-30" transform="translate(63.623047 0)"/>
       <use xlink:href="#DejaVuSans-30" transform="translate(127.246094 0)"/>
      </g>
     </g>
    </g>
    <g id="ytick_4">
     <g id="line2d_17">
      <path d="M 48.90125 288.501812 
L 848.35125 288.501812 
" clip-path="url(#p557d15430c)" style="fill: none; stroke: #30363d; stroke-opacity: 0.25; stroke-width: 0.5; stroke-linecap: square"/>
     </g>
     <g id="line2d_18">
      <g>
       <use xlink:href="#mcd34dd2fb6" x="48.90125" y="288.501812" style="fill: #c9d1d9; stroke: #c9d1d9; stroke-width: 0.8"/>
      </g>
     </g>
     <g id="text_10">
      <!-- 300 -->
      <g style="fill: #c9d1d9" transform="translate(22.81375 292.301031) scale(0.1 -0.1)">
       <defs>
        <path id="DejaVuSans-33" d="M 2597 2516 
Q 3050 2419 3304 2112 
Q 3559 1806 3559 1356 
Q 3559 666 3084 287 
Q 2609 -91 1734 -91 
Q 1441 -91 1130 -33 
Q 819 25 488 141 
L 488 750 
Q 750 597 1062 519 
Q 1375 441 1716 441 
Q 2309 441 2620 675 
Q 2931 909 2931 1356 
Q 2931 1769 2642 2001 
Q 2353 2234 1838 2234 
L 1294 2234 
L 1294 2753 
L 1863 2753 
Q 2328 2753 2575 2939 
Q 2822 3125 2822 3475 
Q 2822 3834 2567 4026 
Q 2313 4219 1838 4219 
Q 1578 4219 1281 4162 
Q 984 4106 628 3988 
L 628 4550 
Q 988 4650 1302 4700 
Q 1616 4750 1894 4750 
Q 2613 4750 3031 4423 
Q 3450 4097 3450 3541 
Q 3450 3153 3228 2886 
Q 3006 2619 2597 2516 
z
" transform="scale(0.015625)"/>
       </defs>
       <use xlink:href="#DejaVuSans-33"/>
       <use xlink:href="#DejaVuSans-30" transform="translate(63.623047 0)"/>
       <use xlink:href="#DejaVuSans-30" transform="translate(127.246094 0)"/>
      </g>
     </g>
    </g>
    <g id="ytick_5">
     <g id="line2d_19">
      <path d="M 48.90125 232.923146 
L 848.35125 232.923146 
" clip-path="url(#p557d15430c)" style="fill: none; stroke: #30363d; stroke-opacity: 0.25; stroke-width: 0.5; stroke-linecap: square"/>
     </g>
     <g id="line2d_20">
      <g>
       <use xlink:href="#mcd34dd2fb6" x="48.90125" y="232.923146" style="fill: #c9d1d9; stroke: #c9d1d9; stroke-width: 0.8"/>
      </g>
     </g>
     <g id="text_11">
      <!-- 400 -->
      <g style="fill: #c9d1d9" transform="translate(22.81375 236.722365) scale(0.1 -0.1)">
       <defs>
        <path id="DejaVuSans-34" d="M 2419 4116 
L 825 1625 
L 2419 1625 
L 2419 4116 
z
M 2253 4666 
L 3047 4666 
L 3047 1625 
L 3713 1625 
L 3713 1100 
L 3047 1100 
L 3047 0 
L 2419 0 
L 2419 1100 
L 313 1100 
L 313 1709 
L 2253 4666 
z
" transform="scale(0.015625)"/>
       </defs>
       <use xlink:href="#DejaVuSans-34"/>
       <use xlink:href="#DejaVuSans-30" transform="translate(63.623047 0)"/>
       <use xlink:href="#DejaVuSans-30" transform="translate(127.246094 0)"/>
      </g>
     </g>
    </g>
    <g id="ytick_6">
     <g id="line2d_21">
      <path d="M 48.90125 177.344479 
L 848.35125 177.344479 
" clip-path="url(#p557d15430c)" style="fill: none; stroke: #30363d; stroke-opacity: 0.25; stroke-width: 0.5; stroke-linecap: square"/>
     </g>
     <g id="line2d_22">
      <g>
       <use xlink:href="#mcd34dd2fb6" x="48.90125" y="177.344479" style="fill: #c9d1d9; stroke: #c9d1d9; stroke-width: 0.8"/>
      </g>
     </g>
     <g id="text_12">
      <!-- 500 -->
      <g style="fill: #c9d1d9" transform="translate(22.81375 181.143698) scale(0.1 -0.1)">
       <defs>
        <path id="DejaVuSans-35" d="M 691 4666 
L 3169 4666 
L 3169 4134 
L 1269 4134 
L 1269 2991 
Q 1406 3038 1543 3061 
Q 1681 3084 1819 3084 
Q 2600 3084 3056 2656 
Q 3513 2228 3513 1497 
Q 3513 744 3044 326 
Q 2575 -91 1722 -91 
Q 1428 -91 1123 -41 
Q 819 9 494 109 
L 494 744 
Q 775 591 1075 516 
Q 1375 441 1709 441 
Q 2250 441 2565 725 
Q 2881 1009 2881 1497 
Q 2881 1984 2565 2268 
Q 2250 2553 1709 2553 
Q 1456 2553 1204 2497 
Q 953 2441 691 2322 
L 691 4666 
z
" transform="scale(0.015625)"/>
       </defs>
       <use xlink:href="#DejaVuSans-35"/>
       <use xlink:href="#DejaVuSans-30" transform="translate(63.623047 0)"/>
       <use xlink:href="#DejaVuSans-30" transform="translate(127.246094 0)"/>
      </g>
     </g>
    </g>
    <g id="ytick_7">
     <g id="line2d_23">
      <path d="M 48.90125 121.765812 
L 848.35125 121.765812 
" clip-path="url(#p557d15430c)" style="fill: none; stroke: #30363d; stroke-opacity: 0.25; stroke-width: 0.5; stroke-linecap: square"/>
     </g>
     <g id="line2d_24">
      <g>
       <use xlink:href="#mcd34dd2fb6" x="48.90125" y="121.765812" style="fill: #c9d1d9; stroke: #c9d1d9; stroke-width: 0.8"/>
      </g>
     </g>
     <g id="text_13">
      <!-- 600 -->
      <g style="fill: #c9d1d9" transform="translate(22.81375 125.565031) scale(0.1 -0.1)">
       <use xlink:href="#DejaVuSans-36"/>
       <use xlink:href="#DejaVuSans-30" transform="translate(63.623047 0)"/>
       <use xlink:href="#DejaVuSans-30" transform="translate(127.246094 0)"/>
      </g>
     </g>
    </g>
    <g id="ytick_8">
     <g id="line2d_25">
      <path d="M 48.90125 66.187146 
L 848.35125 66.187146 
" clip-path="url(#p557d15430c)" style="fill: none; stroke: #30363d; stroke-opacity: 0.25; stroke-width: 0.5; stroke-linecap: square"/>
     </g>
     <g id="line2d_26">
      <g>
       <use xlink:href="#mcd34dd2fb6" x="48.90125" y="66.187146" style="fill: #c9d1d9; stroke: #c9d1d9; stroke-width: 0.8"/>
      </g>
     </g>
     <g id="text_14">
      <!-- 700 -->
      <g style="fill: #c9d1d9" transform="translate(22.81375 69.986365) scale(0.1 -0.1)">
       <defs>
        <path id="DejaVuSans-37" d="M 525 4666 
L 3525 4666 
L 3525 4397 
L 1831 0 
L 1172 0 
L 2766 4134 
L 525 4134 
L 525 4666 
z
" transform="scale(0.015625)"/>
       </defs>
       <use xlink:href="#DejaVuSans-37"/>
       <use xlink:href="#DejaVuSans-30" transform="translate(63.623047 0)"/>
       <use xlink:href="#DejaVuSans-30" transform="translate(127.246094 0)"/>
      </g>
     </g>
    </g>
    <g id="text_15">
     <!-- Count -->
     <g style="fill: #c9d1d9" transform="translate(16.318125 264.635937) rotate(-90) scale(0.12 -0.12)">
      <defs>
       <path id="DejaVuSans-43" d="M 4122 4306 
L 4122 3641 
Q 3803 3938 3442 4084 
Q 3081 4231 2675 4231 
Q 1875 4231 1450 3742 
Q 1025 3253 1025 2328 
Q 1025 1406 1450 917 
Q 1875 428 2675 428 
Q 3081 428 3442 575 
Q 3803 722 4122 1019 
L 4122 359 
Q 3791 134 3420 21 
Q 3050 -91 2638 -91 
Q 1578 -91 968 557 
Q 359 1206 359 2328 
Q 359 3453 968 4101 
Q 1578 4750 2638 4750 
Q 3056 4750 3426 4639 
Q 3797 4528 4122 4306 
z
" transform="scale(0.015625)"/>
       <path id="DejaVuSans-75" d="M 544 1381 
L 544 3500 
L 1119 3500 
L 1119 1403 
Q 1119 906 1312 657 
Q 1506 409 1894 409 
Q 2359 409 2629 706 
Q 2900 1003 2900 1516 
L 2900 3500 
L 3475 3500 
L 3475 0 
L 2900 0 
L 2900 538 
Q 2691 219 2414 64 
Q 2138 -91 1772 -91 
Q 1169 -91 856 284 
Q 544 659 544 1381 
z
M 1991 3584 
L 1991 3584 
z
" transform="scale(0.015625)"/>
       <path id="DejaVuSans-6e" d="M 3513 2113 
L 3513 0 
L 2938 0 
L 2938 2094 
Q 2938 2591 2744 2837 
Q 2550 3084 2163 3084 
Q 1697 3084 1428 2787 
Q 1159 2491 1159 1978 
L 1159 0 
L 581 0 
L 581 3500 
L 1159 3500 
L 1159 2956 
Q 1366 3272 1645 3428 
Q 1925 3584 2291 3584 
Q 2894 3584 3203 3211 
Q 3513 2838 3513 2113 
z
" transform="scale(0.015625)"/>
      </defs>
      <use xlink:href="#DejaVuSans-43"/>
      <use xlink:href="#DejaVuSans-6f" transform="translate(69.824219 0)"/>
      <use xlink:href="#DejaVuSans-75" transform="translate(131.005859 0)"/>
      <use xlink:href="#DejaVuSans-6e" transform="translate(194.384766 0)"/>
      <use xlink:href="#DejaVuSans-74" transform="translate(257.763672 0)"/>
     </g>
    </g>
   </g>
   <g id="line2d_27">
    <path d="M 85.239886 454.682026 
L 85.336836 454.682026 
L 85.398345 454.126239 
L 85.702552 454.126239 
L 85.840157 257.933546 
L 90.103908 257.933546 
L 90.122537 261.268266 
L 95.055214 261.268266 
L 95.177119 260.712479 
L 95.978729 260.712479 
L 96.533717 260.156692 
L 99.972661 259.600906 
L 100.040555 260.156692 
L 100.2054 259.600906 
L 110.854791 259.600906 
L 117.279386 260.712479 
L 118.235296 259.600906 
L 118.933277 259.600906 
L 120.692437 259.045119 
L 121.428438 256.821972 
L 122.861541 256.821972 
L 124.949921 260.712479 
L 125.085417 256.821972 
L 126.687934 256.266186 
L 130.858543 256.266186 
L 131.958618 255.710399 
L 133.592651 255.710399 
L 134.030654 254.598826 
L 144.215623 254.598826 
L 144.958477 253.487252 
L 144.996554 252.375679 
L 148.203755 252.375679 
L 152.932925 251.264106 
L 155.413733 251.264106 
L 155.451283 250.708319 
L 161.148548 250.708319 
L 162.561851 247.929386 
L 167.034616 247.929386 
L 167.065664 247.373599 
L 192.115387 247.373599 
L 196.797811 246.817812 
L 196.957676 247.373599 
L 201.813965 246.817812 
L 218.713441 246.817812 
L 226.904402 246.262026 
L 227.046459 245.706239 
L 227.062627 245.706239 
L 227.451716 245.150452 
L 232.072513 245.150452 
L 234.039163 244.594666 
L 242.149401 244.594666 
L 242.457298 247.373599 
L 242.472411 245.150452 
L 242.866714 245.150452 
L 244.824695 242.927306 
L 254.411091 242.927306 
L 261.758147 242.371519 
L 269.923918 242.371519 
L 270.282253 241.815732 
L 291.500956 241.815732 
L 292.406545 241.259946 
L 297.558723 241.259946 
L 297.595042 240.148372 
L 307.411776 240.148372 
L 307.61089 236.257866 
L 325.37864 236.257866 
L 325.383971 235.702079 
L 325.898538 235.702079 
L 327.731861 235.146292 
L 330.413716 235.146292 
L 331.137531 234.590506 
L 331.209936 235.146292 
L 332.867401 234.590506 
L 332.874958 234.034719 
L 332.913679 234.590506 
L 333.871112 234.034719 
L 342.592691 234.034719 
L 345.304305 233.478932 
L 348.521875 233.478932 
L 353.986869 232.923146 
L 359.160487 232.923146 
L 363.157641 231.811572 
L 371.90517 231.811572 
L 376.993671 230.699999 
L 378.42736 231.255786 
L 385.529551 231.255786 
L 393.54114 229.032639 
L 405.489427 229.032639 
L 409.195027 228.476852 
L 475.233237 228.476852 
L 475.76655 227.921066 
L 499.849175 227.921066 
L 500.251562 227.365279 
L 541.2305 227.365279 
L 550.253942 226.809492 
L 550.306137 227.365279 
L 556.765587 225.697919 
L 566.245192 225.697919 
L 571.421387 225.142132 
L 571.429882 224.586346 
L 582.230058 224.586346 
L 586.106361 225.142132 
L 587.499805 224.586346 
L 605.574456 224.586346 
L 606.343672 225.142132 
L 607.752757 224.586346 
L 608.23698 222.363199 
L 616.520028 222.363199 
L 616.527175 221.807412 
L 641.873138 221.807412 
L 643.349122 221.251626 
L 648.220173 221.251626 
L 648.695375 220.695839 
L 672.448253 220.695839 
L 672.48053 220.140052 
L 678.421488 220.140052 
L 678.430334 219.584266 
L 679.871931 219.584266 
L 679.947207 219.028479 
L 682.185845 219.028479 
L 682.53756 218.472692 
L 687.328942 218.472692 
L 688.057268 217.361119 
L 690.694954 215.137972 
L 697.073329 215.137972 
L 697.544255 212.359039 
L 699.683072 212.359039 
L 700.732769 211.247466 
L 706.14182 211.247466 
L 707.916679 210.691679 
L 712.997213 210.691679 
L 713.678148 210.135892 
L 727.477331 210.135892 
L 727.81733 209.580106 
L 729.093615 209.580106 
L 731.075086 209.024319 
L 753.394333 209.024319 
L 753.594853 208.468532 
L 754.310467 208.468532 
L 755.804376 207.356959 
L 757.898849 207.356959 
L 758.402462 206.801172 
L 758.887681 206.801172 
L 759.071798 206.245386 
L 764.672991 206.245386 
L 765.626558 205.689599 
L 770.501944 205.689599 
L 770.814528 205.133812 
L 773.485077 205.133812 
L 773.656189 204.578026 
L 781.95564 204.578026 
L 782.134075 204.022239 
L 786.97443 204.022239 
L 788.324936 202.354879 
L 788.591124 201.799092 
L 790.383557 201.799092 
L 790.385432 201.243306 
L 797.663422 201.243306 
L 798.767012 200.687519 
L 804.570365 200.687519 
L 805.66798 200.131732 
L 806.080853 200.131732 
L 807.153337 199.575946 
L 809.892893 199.575946 
L 810.209519 199.020159 
L 812.012614 199.020159 
L 812.012614 199.020159 
" clip-path="url(#p557d15430c)" style="fill: none; stroke: #3fb950; stroke-width: 2; stroke-linecap: square"/>
   </g>
   <g id="line2d_28">
    <path d="M 85.239886 455.237812 
L 85.336836 453.570452 
L 85.570747 453.570452 
L 85.702552 372.981386 
L 88.092561 372.981386 
L 88.14171 370.758239 
L 90.605412 370.758239 
L 91.240186 369.090879 
L 92.103891 370.758239 
L 92.110276 369.090879 
L 92.824953 369.090879 
L 93.101158 367.979306 
L 100.158946 367.979306 
L 100.165682 367.423519 
L 100.2054 367.979306 
L 100.552779 367.423519 
L 100.65465 367.979306 
L 100.926345 367.423519 
L 103.403052 367.423519 
L 103.532631 366.867732 
L 103.885576 366.311946 
L 106.681897 366.311946 
L 109.864084 365.756159 
L 109.976089 365.200372 
L 110.836162 364.644586 
L 110.854791 364.088799 
L 117.279386 367.979306 
L 118.235296 366.311946 
L 118.933277 363.533012 
L 122.861541 363.533012 
L 124.949921 367.979306 
L 125.085417 363.533012 
L 163.246887 363.533012 
L 164.417903 362.977226 
L 167.065664 362.977226 
L 174.297141 362.421439 
L 176.058644 361.865652 
L 201.157282 361.865652 
L 201.813965 361.309866 
L 205.187827 360.754079 
L 207.332209 360.754079 
L 209.709155 360.198292 
L 209.773183 359.086719 
L 211.407099 358.530932 
L 212.505241 357.975146 
L 227.633548 357.975146 
L 230.649251 357.419359 
L 231.560933 357.419359 
L 232.072513 356.863572 
L 234.039163 356.863572 
L 235.992985 356.307786 
L 242.149401 356.307786 
L 242.457298 358.530932 
L 242.472411 356.307786 
L 244.824695 356.307786 
L 245.060831 355.751999 
L 248.390406 355.751999 
L 251.666263 355.196212 
L 251.745756 354.640426 
L 261.758147 354.640426 
L 265.981244 354.084639 
L 265.991906 353.528852 
L 280.045034 353.528852 
L 285.907143 352.973066 
L 290.305219 352.973066 
L 291.500956 352.417279 
L 298.214292 352.417279 
L 302.043321 351.861492 
L 302.253214 351.305706 
L 305.986347 351.305706 
L 306.419605 350.749919 
L 307.61089 350.194132 
L 310.27025 350.194132 
L 311.949272 349.638346 
L 315.027714 349.638346 
L 317.036894 349.082559 
L 321.323082 349.082559 
L 322.783308 347.970986 
L 333.871112 347.970986 
L 337.028813 347.415199 
L 340.731543 347.415199 
L 341.566544 346.859412 
L 341.821894 346.303626 
L 342.592691 345.747839 
L 355.343467 345.747839 
L 357.678001 345.192052 
L 359.160487 344.636266 
L 395.418807 344.636266 
L 403.557924 344.080479 
L 403.655167 343.524692 
L 409.195027 343.524692 
L 413.930056 342.968906 
L 422.299158 342.968906 
L 423.006337 342.413119 
L 437.259282 342.413119 
L 448.416563 341.857332 
L 448.523647 341.301546 
L 449.982291 341.301546 
L 452.937598 340.745759 
L 452.955289 339.634186 
L 453.23249 338.522612 
L 459.405601 337.966826 
L 459.775241 337.411039 
L 459.792405 336.855252 
L 459.92257 336.299466 
L 460.481659 335.743679 
L 480.56959 335.743679 
L 486.276228 335.187892 
L 489.908896 334.632106 
L 492.754717 334.632106 
L 499.353002 334.076319 
L 499.849175 331.853172 
L 500.251562 331.853172 
L 500.637605 331.297386 
L 501.200266 330.741599 
L 513.715843 330.185812 
L 514.114188 329.630026 
L 514.2317 329.074239 
L 516.875829 329.074239 
L 519.372688 328.518452 
L 519.659672 327.962666 
L 519.692184 327.406879 
L 519.854568 326.851092 
L 521.507288 326.295306 
L 521.628607 325.739519 
L 524.644076 325.183732 
L 528.607839 324.627946 
L 528.889726 324.072159 
L 528.895701 323.516372 
L 529.692976 322.960586 
L 529.833803 322.404799 
L 534.616398 321.849012 
L 535.583614 321.849012 
L 536.614389 321.293226 
L 560.820091 321.293226 
L 564.834233 320.737439 
L 565.199538 320.181652 
L 581.605008 320.181652 
L 582.230058 319.070079 
L 589.065358 319.070079 
L 591.129017 318.514292 
L 591.229834 317.402719 
L 591.759749 316.846932 
L 595.268638 316.291146 
L 595.347662 315.735359 
L 595.771196 315.179572 
L 595.847878 313.512212 
L 596.205216 312.956426 
L 596.688678 312.956426 
L 596.706486 312.400639 
L 599.635783 311.844852 
L 600.787409 311.289066 
L 601.066074 310.733279 
L 606.343672 310.177492 
L 610.233038 310.177492 
L 611.583602 309.621706 
L 626.206656 309.621706 
L 631.05117 309.065919 
L 631.070443 308.510132 
L 631.941705 307.954346 
L 643.349122 307.954346 
L 646.549821 307.398559 
L 647.868341 306.842772 
L 648.220173 305.731199 
L 657.447592 305.731199 
L 658.076273 305.175412 
L 663.143333 305.175412 
L 665.569193 304.619626 
L 672.48053 304.619626 
L 676.658755 304.063839 
L 685.335579 304.063839 
L 686.402029 303.508052 
L 690.694954 303.508052 
L 691.863451 302.952266 
L 692.370344 302.396479 
L 692.620013 301.840692 
L 696.153739 301.840692 
L 696.254204 300.729119 
L 697.544255 300.729119 
L 697.906221 299.617546 
L 698.391264 299.061759 
L 701.465137 299.061759 
L 701.846903 298.505972 
L 702.14326 298.505972 
L 703.614558 297.950186 
L 706.056117 297.950186 
L 706.14182 297.394399 
L 707.916679 297.394399 
L 708.34777 296.838612 
L 710.015955 296.838612 
L 712.570105 295.727039 
L 713.678148 295.727039 
L 717.963574 294.615466 
L 717.970018 294.059679 
L 718.788206 293.503892 
L 720.875766 292.948106 
L 721.200358 292.392319 
L 723.281708 291.836532 
L 726.68404 291.836532 
L 727.185837 291.280746 
L 727.477331 290.724959 
L 731.966792 290.724959 
L 732.084597 290.169172 
L 733.266743 290.169172 
L 733.357483 289.613386 
L 734.006199 289.057599 
L 736.263407 289.057599 
L 736.435105 288.501812 
L 736.821792 288.501812 
L 736.917864 287.946026 
L 737.073745 287.946026 
L 737.079018 287.390239 
L 740.253121 287.390239 
L 740.881685 286.834452 
L 741.409492 286.834452 
L 741.724946 286.278666 
L 742.530539 286.278666 
L 743.13368 285.722879 
L 743.260857 285.167092 
L 743.433258 285.167092 
L 746.465188 284.611306 
L 748.734053 284.611306 
L 748.90581 284.055519 
L 757.85591 284.055519 
L 757.898849 283.499732 
L 758.402462 283.499732 
L 758.887681 282.943946 
L 759.071798 282.943946 
L 759.404533 282.388159 
L 762.610328 282.388159 
L 762.805927 281.276586 
L 762.972412 279.609226 
L 763.500745 279.053439 
L 765.626558 279.053439 
L 766.629156 278.497652 
L 767.600941 278.497652 
L 767.914286 277.941866 
L 769.420673 277.386079 
L 770.814528 277.386079 
L 773.616706 276.830292 
L 773.656189 276.274506 
L 774.512513 276.274506 
L 774.654452 275.718719 
L 777.145453 275.718719 
L 777.214636 275.162932 
L 789.29508 275.162932 
L 789.386055 274.607146 
L 789.841105 274.607146 
L 789.85452 273.495572 
L 791.555979 273.495572 
L 791.681457 272.939786 
L 791.887015 272.939786 
L 792.96442 272.383999 
L 793.235236 271.828212 
L 793.730062 271.828212 
L 794.148792 271.272426 
L 794.285284 270.716639 
L 800.355411 270.716639 
L 801.887573 270.160852 
L 802.190198 269.049279 
L 802.563119 268.493492 
L 803.185649 268.493492 
L 803.565072 267.937706 
L 812.012614 267.937706 
L 812.012614 267.937706 
" clip-path="url(#p557d15430c)" style="fill: none; stroke: #58a6ff; stroke-width: 2; stroke-linecap: square"/>
   </g>
   <g id="line2d_29">
    <path d="M 85.239886 455.237812 
L 90.103908 455.237812 
L 90.122537 454.126239 
L 94.138084 454.126239 
L 95.055214 453.570452 
L 342.592691 453.570452 
L 345.304305 453.014666 
L 413.930056 453.014666 
L 415.834553 452.458879 
L 480.56959 452.458879 
L 486.276228 451.903092 
L 501.200266 451.903092 
L 514.2317 450.235732 
L 516.875829 449.124159 
L 521.628607 449.124159 
L 524.644076 448.568372 
L 528.895701 448.012586 
L 529.833803 448.012586 
L 534.616398 447.456799 
L 535.583614 447.456799 
L 536.614389 446.901012 
L 541.2305 446.345226 
L 550.253942 445.789439 
L 550.306137 446.345226 
L 565.199538 446.345226 
L 566.245192 445.789439 
L 587.499805 445.789439 
L 589.065358 445.233652 
L 596.205216 445.233652 
L 596.706486 444.677866 
L 605.574456 444.677866 
L 606.343672 444.122079 
L 638.830137 444.122079 
L 641.873138 443.566292 
L 643.152059 443.566292 
L 643.349122 443.010506 
L 652.019502 443.010506 
L 652.027762 442.454719 
L 672.448253 442.454719 
L 672.48053 441.898932 
L 678.430334 441.898932 
L 679.947207 441.343146 
L 682.18192 440.787359 
L 682.185845 440.231572 
L 682.53756 440.231572 
L 685.335579 438.564212 
L 687.220452 438.564212 
L 687.328942 436.896852 
L 688.057268 436.896852 
L 690.694954 437.452639 
L 692.591894 437.452639 
L 692.620013 435.229492 
L 699.683072 435.229492 
L 700.732769 434.673706 
L 701.846903 434.673706 
L 702.14326 434.117919 
L 727.477331 434.117919 
L 727.81733 433.562132 
L 729.093615 433.562132 
L 731.075086 433.006346 
L 739.817051 433.006346 
L 740.253121 432.450559 
L 743.260857 432.450559 
L 743.433258 431.894772 
L 753.394333 431.894772 
L 753.594853 431.338986 
L 754.310467 431.338986 
L 755.036274 430.783199 
L 755.761379 430.783199 
L 755.804376 430.227412 
L 758.887681 430.227412 
L 759.071798 429.671626 
L 773.385783 429.671626 
L 773.485077 429.115839 
L 773.656189 429.115839 
L 773.803108 428.560052 
L 774.654452 428.560052 
L 776.439153 428.004266 
L 783.416569 428.004266 
L 783.42272 427.448479 
L 784.755944 427.448479 
L 784.806674 426.892692 
L 788.591124 426.892692 
L 789.386055 426.336906 
L 794.429391 426.336906 
L 795.892135 425.781119 
L 798.736843 425.781119 
L 798.767012 424.669546 
L 798.9977 424.669546 
L 799.288023 424.113759 
L 803.864241 424.113759 
L 804.570365 423.557972 
L 805.66798 423.557972 
L 806.080853 423.002186 
L 808.759954 423.002186 
L 809.134047 422.446399 
L 809.13885 421.890612 
L 809.892893 421.890612 
L 810.209519 421.334826 
L 812.012614 421.334826 
L 812.012614 421.334826 
" clip-path="url(#p557d15430c)" style="fill: none; stroke: #d29922; stroke-width: 2; stroke-linecap: square"/>
   </g>
   <g id="line2d_30">
    <path d="M 85.239886 454.682026 
L 85.655922 454.682026 
L 85.702552 433.006346 
L 86.026676 431.338986 
L 86.139794 430.227412 
L 86.802979 426.892692 
L 87.353163 425.781119 
L 87.632297 426.336906 
L 88.14171 425.781119 
L 89.003247 425.225332 
L 89.600998 424.113759 
L 90.103908 423.557972 
L 90.122537 423.002186 
L 90.605412 421.334826 
L 91.240186 421.334826 
L 92.103891 420.779039 
L 92.110276 420.223252 
L 92.80568 419.667466 
L 92.824953 419.111679 
L 93.101158 419.111679 
L 94.138084 418.555892 
L 94.878947 418.000106 
L 95.055214 411.886452 
L 95.177119 412.442239 
L 95.475175 408.551732 
L 95.640898 406.328586 
L 95.649158 407.995946 
L 95.735973 405.217012 
L 95.978729 402.993866 
L 100.165682 402.993866 
L 100.2054 402.438079 
L 100.552779 399.659146 
L 100.65465 402.438079 
L 101.12663 397.991786 
L 101.360365 397.435999 
L 103.101775 396.880212 
L 103.154321 396.324426 
L 103.403052 395.768639 
L 103.885576 395.768639 
L 104.782379 395.212852 
L 105.261447 394.657066 
L 105.45687 394.101279 
L 105.610408 392.989706 
L 106.05796 392.433919 
L 106.069032 391.878132 
L 106.519161 392.433919 
L 106.647276 391.878132 
L 106.663034 392.433919 
L 106.681897 390.766559 
L 110.854791 390.766559 
L 117.279386 402.993866 
L 118.235296 390.210772 
L 118.733519 389.654986 
L 121.428438 389.654986 
L 121.884835 389.099199 
L 122.861541 388.543412 
L 124.949921 402.993866 
L 125.085417 387.987626 
L 126.687934 387.431839 
L 130.114927 386.876052 
L 130.359323 387.431839 
L 130.807402 386.320266 
L 130.858543 385.764479 
L 131.958618 385.764479 
L 132.292876 385.208692 
L 132.924194 384.652906 
L 132.976564 383.541332 
L 133.558909 382.429759 
L 133.592651 382.985546 
L 133.939035 382.985546 
L 134.128952 381.873972 
L 134.713581 379.650826 
L 134.790438 378.539252 
L 135.540498 376.871892 
L 135.907092 377.983466 
L 137.286887 376.316106 
L 138.499143 374.648746 
L 139.18166 375.760319 
L 141.990458 373.537172 
L 144.215623 377.427679 
L 144.996554 373.537172 
L 148.203755 371.869812 
L 152.932925 371.869812 
L 153.557506 371.314026 
L 154.054558 369.646666 
L 155.451283 371.314026 
L 161.148548 371.869812 
L 162.561851 369.646666 
L 163.246887 367.979306 
L 164.417903 369.646666 
L 167.065664 367.979306 
L 176.058644 367.979306 
L 185.514818 367.423519 
L 186.145432 366.867732 
L 192.115387 366.311946 
L 196.062982 366.311946 
L 196.797811 365.756159 
L 196.957676 366.311946 
L 201.157282 364.644586 
L 205.096383 364.644586 
L 205.187827 364.088799 
L 207.332209 363.533012 
L 212.505241 363.533012 
L 214.78717 359.642506 
L 216.485582 359.086719 
L 218.671029 358.530932 
L 218.713441 357.975146 
L 226.904402 357.975146 
L 227.062627 354.084639 
L 227.365779 354.084639 
L 227.633548 352.973066 
L 230.649251 352.973066 
L 231.560933 352.417279 
L 235.992985 352.417279 
L 242.149401 351.861492 
L 242.457298 363.533012 
L 242.472411 352.417279 
L 242.866714 351.861492 
L 245.060831 351.861492 
L 248.390406 351.305706 
L 251.745756 351.305706 
L 254.411091 350.749919 
L 261.758147 349.638346 
L 265.991906 349.638346 
L 269.394472 349.082559 
L 269.923918 346.303626 
L 270.282253 346.303626 
L 270.916324 345.747839 
L 274.223697 345.192052 
L 274.988225 342.968906 
L 279.559288 341.857332 
L 279.614353 342.413119 
L 280.045034 341.857332 
L 285.907143 340.745759 
L 290.305219 340.189972 
L 292.406545 340.189972 
L 294.269041 339.634186 
L 295.883098 338.522612 
L 297.595042 337.966826 
L 298.214292 337.411039 
L 302.253214 337.966826 
L 305.986347 336.855252 
L 306.419605 337.411039 
L 307.411776 337.411039 
L 307.61089 336.855252 
L 310.27025 336.299466 
L 311.949272 336.855252 
L 315.027714 335.743679 
L 317.036894 335.743679 
L 321.323082 335.187892 
L 322.033834 335.743679 
L 322.783308 334.076319 
L 325.383971 334.076319 
L 325.898538 333.520532 
L 327.731861 331.853172 
L 328.137938 331.297386 
L 328.770661 330.185812 
L 330.413716 330.741599 
L 331.137531 329.630026 
L 331.209936 329.074239 
L 337.028813 329.074239 
L 339.975919 328.518452 
L 340.731543 327.962666 
L 345.304305 327.962666 
L 348.521875 327.406879 
L 353.986869 327.406879 
L 355.343467 326.851092 
L 370.371251 326.851092 
L 371.234311 326.295306 
L 371.320776 325.739519 
L 371.90517 325.183732 
L 378.42736 325.183732 
L 378.833847 324.627946 
L 380.493245 324.072159 
L 380.780639 323.516372 
L 383.52992 322.960586 
L 385.529551 322.404799 
L 393.54114 322.404799 
L 395.418807 321.293226 
L 403.655167 321.293226 
L 405.489427 320.737439 
L 413.16541 320.737439 
L 413.930056 320.181652 
L 415.834553 319.625866 
L 416.401491 319.070079 
L 416.593985 318.514292 
L 422.299158 317.958506 
L 423.006337 318.514292 
L 430.516831 317.402719 
L 436.455036 316.291146 
L 437.259282 315.735359 
L 448.523647 315.735359 
L 449.982291 315.179572 
L 460.481659 315.179572 
L 470.371852 314.623786 
L 471.615858 314.067999 
L 475.76655 313.512212 
L 479.928958 312.956426 
L 480.56959 312.400639 
L 489.908896 312.400639 
L 492.754717 311.844852 
L 514.2317 311.844852 
L 516.875829 311.289066 
L 534.616398 311.289066 
L 535.583614 310.733279 
L 536.614389 311.289066 
L 541.2305 310.733279 
L 556.765587 310.733279 
L 558.847406 310.177492 
L 591.711245 310.177492 
L 591.759749 309.621706 
L 612.05646 309.621706 
L 616.515752 309.065919 
L 616.527175 308.510132 
L 638.820237 308.510132 
L 638.830137 307.398559 
L 652.027762 307.398559 
L 658.076273 306.842772 
L 665.569193 306.842772 
L 672.48053 305.731199 
L 686.402029 305.731199 
L 687.220452 305.175412 
L 687.328942 304.619626 
L 692.591894 304.619626 
L 692.620013 304.063839 
L 693.166506 304.063839 
L 694.037651 303.508052 
L 701.846903 303.508052 
L 702.14326 302.952266 
L 712.570105 302.952266 
L 712.997213 302.396479 
L 738.461273 302.396479 
L 739.815118 300.729119 
L 739.817051 300.173332 
L 743.424647 300.173332 
L 743.433258 299.617546 
L 754.074389 299.617546 
L 754.310467 299.061759 
L 759.404533 299.061759 
L 759.587537 298.505972 
L 778.511717 298.505972 
L 778.875616 297.950186 
L 783.268185 297.950186 
L 783.42272 297.394399 
L 784.806674 296.838612 
L 812.012614 296.838612 
L 812.012614 296.838612 
" clip-path="url(#p557d15430c)" style="fill: none; stroke: #f85149; stroke-width: 2; stroke-linecap: square"/>
   </g>
   <g id="line2d_31">
    <path d="M 85.239886 454.682026 
L 85.272984 454.126239 
L 85.533934 -1 
M 85.768475 -1 
L 85.840157 101.201706 
L 90.103908 101.201706 
L 90.122537 97.866986 
L 95.055214 97.866986 
L 95.177119 98.422772 
L 95.978729 98.422772 
L 96.533717 98.978559 
L 99.972661 99.534346 
L 100.040555 98.978559 
L 100.2054 99.534346 
L 110.854791 99.534346 
L 117.279386 98.422772 
L 118.235296 99.534346 
L 118.733519 98.978559 
L 118.933277 98.978559 
L 120.692437 99.534346 
L 121.428438 96.755412 
L 122.861541 96.755412 
L 124.949921 98.422772 
L 125.085417 95.643839 
L 126.687934 96.199626 
L 130.858543 96.199626 
L 131.958618 95.088052 
L 133.592651 95.088052 
L 134.030654 91.197546 
L 144.215623 91.197546 
L 144.958477 87.862826 
L 144.996554 86.751252 
L 148.203755 86.751252 
L 152.932925 82.860746 
L 155.413733 82.860746 
L 155.451283 83.416532 
L 161.148548 83.416532 
L 162.561851 80.081812 
L 167.034616 80.081812 
L 167.065664 80.637599 
L 192.115387 80.637599 
L 196.797811 81.193386 
L 196.957676 80.637599 
L 201.813965 81.193386 
L 218.713441 81.193386 
L 226.904402 81.749172 
L 227.046459 74.523946 
L 227.062627 74.523946 
L 227.451716 75.079732 
L 232.072513 75.079732 
L 234.039163 75.635519 
L 242.149401 75.635519 
L 242.457298 80.637599 
L 242.472411 71.745012 
L 242.866714 71.745012 
L 244.824695 73.968159 
L 254.411091 73.968159 
L 261.758147 70.077652 
L 269.923918 70.077652 
L 270.282253 68.410292 
L 291.500956 68.410292 
L 292.406545 68.966079 
L 297.558723 68.966079 
L 297.595042 70.077652 
L 307.411776 70.077652 
L 307.61089 73.412372 
L 322.783308 73.412372 
L 323.145684 68.410292 
L 325.37864 67.298719 
L 325.383971 67.854506 
L 325.898538 67.854506 
L 327.731861 65.075572 
L 330.413716 65.075572 
L 331.137531 65.631359 
L 331.209936 65.075572 
L 332.867401 65.631359 
L 332.874958 66.187146 
L 332.913679 65.631359 
L 333.871112 63.408212 
L 342.592691 63.408212 
L 345.304305 63.963999 
L 348.521875 63.963999 
L 353.986869 64.519786 
L 359.160487 64.519786 
L 363.157641 65.631359 
L 371.320776 65.075572 
L 371.90517 65.075572 
L 376.993671 66.187146 
L 378.42736 65.631359 
L 385.529551 65.631359 
L 393.536805 67.854506 
L 393.54114 67.298719 
L 405.489427 67.298719 
L 409.195027 67.854506 
L 475.233237 67.854506 
L 475.76655 68.410292 
L 479.899258 68.410292 
L 479.928958 66.742932 
L 499.849175 66.742932 
L 500.251562 67.298719 
L 541.2305 67.298719 
L 550.253942 67.854506 
L 550.306137 67.298719 
L 556.765587 68.966079 
L 558.847406 68.966079 
L 560.820091 68.410292 
L 566.245192 68.410292 
L 571.421387 68.966079 
L 571.429882 69.521866 
L 586.106361 67.854506 
L 587.499805 68.410292 
L 605.574456 68.410292 
L 606.343672 67.854506 
L 607.752757 68.410292 
L 608.23698 70.633439 
L 616.520028 70.633439 
L 616.527175 71.189226 
L 641.873138 71.189226 
L 643.349122 71.745012 
L 648.220173 71.745012 
L 648.695375 72.300799 
L 672.448253 72.300799 
L 672.48053 72.856586 
L 676.658755 72.856586 
L 678.421488 73.412372 
L 678.430334 73.968159 
L 679.871931 73.412372 
L 679.947207 73.968159 
L 682.185845 73.968159 
L 682.53756 74.523946 
L 687.220452 74.523946 
L 687.328942 73.412372 
L 688.057268 74.523946 
L 690.694954 72.856586 
L 697.073329 72.856586 
L 697.544255 71.189226 
L 699.683072 71.189226 
L 700.732769 72.300799 
L 706.14182 72.300799 
L 707.916679 72.856586 
L 708.34777 72.856586 
L 710.015955 70.077652 
L 712.997213 70.077652 
L 713.678148 70.633439 
L 727.477331 70.633439 
L 727.81733 71.189226 
L 729.093615 71.189226 
L 731.075086 71.745012 
L 753.394333 71.745012 
L 753.594853 72.300799 
L 754.310467 72.300799 
L 755.804376 73.412372 
L 757.898849 73.412372 
L 758.402462 72.856586 
L 758.887681 72.856586 
L 759.071798 73.412372 
L 764.672991 73.412372 
L 765.626558 73.968159 
L 770.501944 73.968159 
L 770.814528 74.523946 
L 773.485077 74.523946 
L 773.656189 75.079732 
L 781.95564 75.079732 
L 782.134075 75.635519 
L 786.97443 75.635519 
L 788.324936 77.302879 
L 788.591124 77.858666 
L 790.383557 77.858666 
L 790.385432 78.414452 
L 797.663422 78.414452 
L 798.767012 78.970239 
L 804.570365 78.970239 
L 805.66798 79.526026 
L 809.892893 79.526026 
L 810.209519 80.081812 
L 812.012614 80.081812 
L 812.012614 80.081812 
" clip-path="url(#p557d15430c)" style="fill: none; stroke: #9467bd; stroke-width: 2; stroke-linecap: square"/>
   </g>
   <g id="patch_3">
    <path d="M 48.90125 455.237812 
L 48.90125 38.397812 
" style="fill: none; stroke: #30363d; stroke-width: 0.8; stroke-linejoin: miter; stroke-linecap: square"/>
   </g>
   <g id="patch_4">
    <path d="M 848.35125 455.237812 
L 848.35125 38.397812 
" style="fill: none; stroke: #30363d; stroke-width: 0.8; stroke-linejoin: miter; stroke-linecap: square"/>
   </g>
   <g id="patch_5">
    <path d="M 48.90125 455.237812 
L 848.35125 455.237812 
" style="fill: none; stroke: #30363d; stroke-width: 0.8; stroke-linejoin: miter; stroke-linecap: square"/>
   </g>
   <g id="patch_6">
    <path d="M 48.90125 38.397812 
L 848.35125 38.397812 
" style="fill: none; stroke: #30363d; stroke-width: 0.8; stroke-linejoin: miter; stroke-linecap: square"/>
   </g>
   <g id="text_16">
    <!-- 461 -->
    <g style="fill: #3fb950" transform="translate(817.012614 201.503597) scale(0.09 -0.09)">
     <defs>
      <path id="DejaVuSans-Bold-34" d="M 2356 3675 
L 1038 1722 
L 2356 1722 
L 2356 3675 
z
M 2156 4666 
L 3494 4666 
L 3494 1722 
L 4159 1722 
L 4159 850 
L 3494 850 
L 3494 0 
L 2356 0 
L 2356 850 
L 288 850 
L 288 1881 
L 2156 4666 
z
" transform="scale(0.015625)"/>
      <path id="DejaVuSans-Bold-36" d="M 2316 2303 
Q 2000 2303 1842 2098 
Q 1684 1894 1684 1484 
Q 1684 1075 1842 870 
Q 2000 666 2316 666 
Q 2634 666 2792 870 
Q 2950 1075 2950 1484 
Q 2950 1894 2792 2098 
Q 2634 2303 2316 2303 
z
M 3803 4544 
L 3803 3681 
Q 3506 3822 3243 3889 
Q 2981 3956 2731 3956 
Q 2194 3956 1894 3657 
Q 1594 3359 1544 2772 
Q 1750 2925 1990 3001 
Q 2231 3078 2516 3078 
Q 3231 3078 3670 2659 
Q 4109 2241 4109 1563 
Q 4109 813 3618 361 
Q 3128 -91 2303 -91 
Q 1394 -91 895 523 
Q 397 1138 397 2266 
Q 397 3422 980 4083 
Q 1563 4744 2578 4744 
Q 2900 4744 3203 4694 
Q 3506 4644 3803 4544 
z
" transform="scale(0.015625)"/>
      <path id="DejaVuSans-Bold-31" d="M 750 831 
L 1813 831 
L 1813 3847 
L 722 3622 
L 722 4441 
L 1806 4666 
L 2950 4666 
L 2950 831 
L 4013 831 
L 4013 0 
L 750 0 
L 750 831 
z
" transform="scale(0.015625)"/>
     </defs>
     <use xlink:href="#DejaVuSans-Bold-34"/>
     <use xlink:href="#DejaVuSans-Bold-36" transform="translate(69.580078 0)"/>
     <use xlink:href="#DejaVuSans-Bold-31" transform="translate(139.160156 0)"/>
    </g>
   </g>
   <g id="text_17">
    <!-- 337 -->
    <g style="fill: #58a6ff" transform="translate(817.012614 270.421143) scale(0.09 -0.09)">
     <defs>
      <path id="DejaVuSans-Bold-33" d="M 2981 2516 
Q 3453 2394 3698 2092 
Q 3944 1791 3944 1325 
Q 3944 631 3412 270 
Q 2881 -91 1863 -91 
Q 1503 -91 1142 -33 
Q 781 25 428 141 
L 428 1069 
Q 766 900 1098 814 
Q 1431 728 1753 728 
Q 2231 728 2486 893 
Q 2741 1059 2741 1369 
Q 2741 1688 2480 1852 
Q 2219 2016 1709 2016 
L 1228 2016 
L 1228 2791 
L 1734 2791 
Q 2188 2791 2409 2933 
Q 2631 3075 2631 3366 
Q 2631 3634 2415 3781 
Q 2200 3928 1806 3928 
Q 1516 3928 1219 3862 
Q 922 3797 628 3669 
L 628 4550 
Q 984 4650 1334 4700 
Q 1684 4750 2022 4750 
Q 2931 4750 3382 4451 
Q 3834 4153 3834 3553 
Q 3834 3144 3618 2883 
Q 3403 2622 2981 2516 
z
" transform="scale(0.015625)"/>
      <path id="DejaVuSans-Bold-37" d="M 428 4666 
L 3944 4666 
L 3944 3988 
L 2125 0 
L 953 0 
L 2675 3781 
L 428 3781 
L 428 4666 
z
" transform="scale(0.015625)"/>
     </defs>
     <use xlink:href="#DejaVuSans-Bold-33"/>
     <use xlink:href="#DejaVuSans-Bold-33" transform="translate(69.580078 0)"/>
     <use xlink:href="#DejaVuSans-Bold-37" transform="translate(139.160156 0)"/>
    </g>
   </g>
   <g id="text_18">
    <!-- 61 -->
    <g style="fill: #d29922" transform="translate(817.012614 423.818263) scale(0.09 -0.09)">
     <use xlink:href="#DejaVuSans-Bold-36"/>
     <use xlink:href="#DejaVuSans-Bold-31" transform="translate(69.580078 0)"/>
    </g>
   </g>
   <g id="text_19">
    <!-- 285 -->
    <g style="fill: #f85149" transform="translate(817.012614 299.32205) scale(0.09 -0.09)">
     <defs>
      <path id="DejaVuSans-Bold-32" d="M 1844 884 
L 3897 884 
L 3897 0 
L 506 0 
L 506 884 
L 2209 2388 
Q 2438 2594 2547 2791 
Q 2656 2988 2656 3200 
Q 2656 3528 2436 3728 
Q 2216 3928 1850 3928 
Q 1569 3928 1234 3808 
Q 900 3688 519 3450 
L 519 4475 
Q 925 4609 1322 4679 
Q 1719 4750 2100 4750 
Q 2938 4750 3402 4381 
Q 3866 4013 3866 3353 
Q 3866 2972 3669 2642 
Q 3472 2313 2841 1759 
L 1844 884 
z
" transform="scale(0.015625)"/>
      <path id="DejaVuSans-Bold-38" d="M 2228 2088 
Q 1891 2088 1709 1903 
Q 1528 1719 1528 1375 
Q 1528 1031 1709 848 
Q 1891 666 2228 666 
Q 2563 666 2741 848 
Q 2919 1031 2919 1375 
Q 2919 1722 2741 1905 
Q 2563 2088 2228 2088 
z
M 1350 2484 
Q 925 2613 709 2878 
Q 494 3144 494 3541 
Q 494 4131 934 4440 
Q 1375 4750 2228 4750 
Q 3075 4750 3515 4442 
Q 3956 4134 3956 3541 
Q 3956 3144 3739 2878 
Q 3522 2613 3097 2484 
Q 3572 2353 3814 2058 
Q 4056 1763 4056 1313 
Q 4056 619 3595 264 
Q 3134 -91 2228 -91 
Q 1319 -91 855 264 
Q 391 619 391 1313 
Q 391 1763 633 2058 
Q 875 2353 1350 2484 
z
M 1631 3419 
Q 1631 3141 1786 2991 
Q 1941 2841 2228 2841 
Q 2509 2841 2662 2991 
Q 2816 3141 2816 3419 
Q 2816 3697 2662 3845 
Q 2509 3994 2228 3994 
Q 1941 3994 1786 3844 
Q 1631 3694 1631 3419 
z
" transform="scale(0.015625)"/>
      <path id="DejaVuSans-Bold-35" d="M 678 4666 
L 3669 4666 
L 3669 3781 
L 1638 3781 
L 1638 3059 
Q 1775 3097 1914 3117 
Q 2053 3138 2203 3138 
Q 3056 3138 3531 2711 
Q 4006 2284 4006 1522 
Q 4006 766 3489 337 
Q 2972 -91 2053 -91 
Q 1656 -91 1267 -14 
Q 878 63 494 219 
L 494 1166 
Q 875 947 1217 837 
Q 1559 728 1863 728 
Q 2300 728 2551 942 
Q 2803 1156 2803 1522 
Q 2803 1891 2551 2103 
Q 2300 2316 1863 2316 
Q 1603 2316 1309 2248 
Q 1016 2181 678 2041 
L 678 4666 
z
" transform="scale(0.015625)"/>
     </defs>
     <use xlink:href="#DejaVuSans-Bold-32"/>
     <use xlink:href="#DejaVuSans-Bold-38" transform="translate(69.580078 0)"/>
     <use xlink:href="#DejaVuSans-Bold-35" transform="translate(139.160156 0)"/>
    </g>
   </g>
   <g id="text_20">
    <!-- 675 -->
    <g style="fill: #9467bd" transform="translate(817.012614 82.56525) scale(0.09 -0.09)">
     <use xlink:href="#DejaVuSans-Bold-36"/>
     <use xlink:href="#DejaVuSans-Bold-37" transform="translate(69.580078 0)"/>
     <use xlink:href="#DejaVuSans-Bold-35" transform="translate(139.160156 0)"/>
    </g>
   </g>
   <g id="text_21">
    <!-- Erds Problems Progress -->
    <g style="fill: #c9d1d9" transform="translate(349.588281 18.397812) scale(0.14 -0.14)">
     <defs>
      <path id="DejaVuSans-Bold-45" d="M 588 4666 
L 3834 4666 
L 3834 3756 
L 1791 3756 
L 1791 2888 
L 3713 2888 
L 3713 1978 
L 1791 1978 
L 1791 909 
L 3903 909 
L 3903 0 
L 588 0 
L 588 4666 
z
" transform="scale(0.015625)"/>
      <path id="DejaVuSans-Bold-72" d="M 3138 2547 
Q 2991 2616 2845 2648 
Q 2700 2681 2553 2681 
Q 2122 2681 1889 2404 
Q 1656 2128 1656 1613 
L 1656 0 
L 538 0 
L 538 3500 
L 1656 3500 
L 1656 2925 
Q 1872 3269 2151 3426 
Q 2431 3584 2822 3584 
Q 2878 3584 2943 3579 
Q 3009 3575 3134 3559 
L 3138 2547 
z
" transform="scale(0.015625)"/>
      <path id="DejaVuSans-Bold-64" d="M 2919 2988 
L 2919 4863 
L 4044 4863 
L 4044 0 
L 2919 0 
L 2919 506 
Q 2688 197 2409 53 
Q 2131 -91 1766 -91 
Q 1119 -91 703 423 
Q 288 938 288 1747 
Q 288 2556 703 3070 
Q 1119 3584 1766 3584 
Q 2128 3584 2408 3439 
Q 2688 3294 2919 2988 
z
M 2181 722 
Q 2541 722 2730 984 
Q 2919 1247 2919 1747 
Q 2919 2247 2730 2509 
Q 2541 2772 2181 2772 
Q 1825 2772 1636 2509 
Q 1447 2247 1447 1747 
Q 1447 1247 1636 984 
Q 1825 722 2181 722 
z
" transform="scale(0.015625)"/>
      <path id="DejaVuSans-Bold-151" d="M 1881 5119 
L 2560 5119 
L 1785 3944 
L 1275 3944 
L 1881 5119 
z
M 3016 5119 
L 3738 5119 
L 2888 3944 
L 2344 3944 
L 3016 5119 
z
M 2203 2784 
Q 1831 2784 1636 2517 
Q 1441 2250 1441 1747 
Q 1441 1244 1636 976 
Q 1831 709 2203 709 
Q 2569 709 2762 976 
Q 2956 1244 2956 1747 
Q 2956 2250 2762 2517 
Q 2569 2784 2203 2784 
z
M 2203 3584 
Q 3106 3584 3614 3096 
Q 4122 2609 4122 1747 
Q 4122 884 3614 396 
Q 3106 -91 2203 -91 
Q 1297 -91 786 396 
Q 275 884 275 1747 
Q 275 2609 786 3096 
Q 1297 3584 2203 3584 
z
" transform="scale(0.015625)"/>
      <path id="DejaVuSans-Bold-73" d="M 3272 3391 
L 3272 2541 
Q 2913 2691 2578 2766 
Q 2244 2841 1947 2841 
Q 1628 2841 1473 2761 
Q 1319 2681 1319 2516 
Q 1319 2381 1436 2309 
Q 1553 2238 1856 2203 
L 2053 2175 
Q 2913 2066 3209 1816 
Q 3506 1566 3506 1031 
Q 3506 472 3093 190 
Q 2681 -91 1863 -91 
Q 1516 -91 1145 -36 
Q 775 19 384 128 
L 384 978 
Q 719 816 1070 734 
Q 1422 653 1784 653 
Q 2113 653 2278 743 
Q 2444 834 2444 1013 
Q 2444 1163 2330 1236 
Q 2216 1309 1875 1350 
L 1678 1375 
Q 931 1469 631 1722 
Q 331 1975 331 2491 
Q 331 3047 712 3315 
Q 1094 3584 1881 3584 
Q 2191 3584 2531 3537 
Q 2872 3491 3272 3391 
z
" transform="scale(0.015625)"/>
      <path id="DejaVuSans-Bold-20" transform="scale(0.015625)"/>
      <path id="DejaVuSans-Bold-50" d="M 588 4666 
L 2584 4666 
Q 3475 4666 3951 4270 
Q 4428 3875 4428 3144 
Q 4428 2409 3951 2014 
Q 3475 1619 2584 1619 
L 1791 1619 
L 1791 0 
L 588 0 
L 588 4666 
z
M 1791 3794 
L 1791 2491 
L 2456 2491 
Q 2806 2491 2997 2661 
Q 3188 2831 3188 3144 
Q 3188 3456 2997 3625 
Q 2806 3794 2456 3794 
L 1791 3794 
z
" transform="scale(0.015625)"/>
      <path id="DejaVuSans-Bold-6f" d="M 2203 2784 
Q 1831 2784 1636 2517 
Q 1441 2250 1441 1747 
Q 1441 1244 1636 976 
Q 1831 709 2203 709 
Q 2569 709 2762 976 
Q 2956 1244 2956 1747 
Q 2956 2250 2762 2517 
Q 2569 2784 2203 2784 
z
M 2203 3584 
Q 3106 3584 3614 3096 
Q 4122 2609 4122 1747 
Q 4122 884 3614 396 
Q 3106 -91 2203 -91 
Q 1297 -91 786 396 
Q 275 884 275 1747 
Q 275 2609 786 3096 
Q 1297 3584 2203 3584 
z
" transform="scale(0.015625)"/>
      <path id="DejaVuSans-Bold-62" d="M 2400 722 
Q 2759 722 2948 984 
Q 3138 1247 3138 1747 
Q 3138 2247 2948 2509 
Q 2759 2772 2400 2772 
Q 2041 2772 1848 2508 
Q 1656 2244 1656 1747 
Q 1656 1250 1848 986 
Q 2041 722 2400 722 
z
M 1656 2988 
Q 1888 3294 2169 3439 
Q 2450 3584 2816 3584 
Q 3463 3584 3878 3070 
Q 4294 2556 4294 1747 
Q 4294 938 3878 423 
Q 3463 -91 2816 -91 
Q 2450 -91 2169 54 
Q 1888 200 1656 506 
L 1656 0 
L 538 0 
L 538 4863 
L 1656 4863 
L 1656 2988 
z
" transform="scale(0.015625)"/>
      <path id="DejaVuSans-Bold-6c" d="M 538 4863 
L 1656 4863 
L 1656 0 
L 538 0 
L 538 4863 
z
" transform="scale(0.015625)"/>
      <path id="DejaVuSans-Bold-65" d="M 4031 1759 
L 4031 1441 
L 1416 1441 
Q 1456 1047 1700 850 
Q 1944 653 2381 653 
Q 2734 653 3104 758 
Q 3475 863 3866 1075 
L 3866 213 
Q 3469 63 3072 -14 
Q 2675 -91 2278 -91 
Q 1328 -91 801 392 
Q 275 875 275 1747 
Q 275 2603 792 3093 
Q 1309 3584 2216 3584 
Q 3041 3584 3536 3087 
Q 4031 2591 4031 1759 
z
M 2881 2131 
Q 2881 2450 2695 2645 
Q 2509 2841 2209 2841 
Q 1884 2841 1681 2658 
Q 1478 2475 1428 2131 
L 2881 2131 
z
" transform="scale(0.015625)"/>
      <path id="DejaVuSans-Bold-6d" d="M 3781 2919 
Q 3994 3244 4286 3414 
Q 4578 3584 4928 3584 
Q 5531 3584 5847 3212 
Q 6163 2841 6163 2131 
L 6163 0 
L 5038 0 
L 5038 1825 
Q 5041 1866 5042 1909 
Q 5044 1953 5044 2034 
Q 5044 2406 4934 2573 
Q 4825 2741 4581 2741 
Q 4263 2741 4089 2478 
Q 3916 2216 3909 1719 
L 3909 0 
L 2784 0 
L 2784 1825 
Q 2784 2406 2684 2573 
Q 2584 2741 2328 2741 
Q 2006 2741 1831 2477 
Q 1656 2213 1656 1722 
L 1656 0 
L 531 0 
L 531 3500 
L 1656 3500 
L 1656 2988 
Q 1863 3284 2130 3434 
Q 2397 3584 2719 3584 
Q 3081 3584 3359 3409 
Q 3638 3234 3781 2919 
z
" transform="scale(0.015625)"/>
      <path id="DejaVuSans-Bold-67" d="M 2919 594 
Q 2688 288 2409 144 
Q 2131 0 1766 0 
Q 1125 0 706 504 
Q 288 1009 288 1791 
Q 288 2575 706 3076 
Q 1125 3578 1766 3578 
Q 2131 3578 2409 3434 
Q 2688 3291 2919 2981 
L 2919 3500 
L 4044 3500 
L 4044 353 
Q 4044 -491 3511 -936 
Q 2978 -1381 1966 -1381 
Q 1638 -1381 1331 -1331 
Q 1025 -1281 716 -1178 
L 716 -306 
Q 1009 -475 1290 -558 
Q 1572 -641 1856 -641 
Q 2406 -641 2662 -400 
Q 2919 -159 2919 353 
L 2919 594 
z
M 2181 2772 
Q 1834 2772 1640 2515 
Q 1447 2259 1447 1791 
Q 1447 1309 1634 1061 
Q 1822 813 2181 813 
Q 2531 813 2725 1069 
Q 2919 1325 2919 1791 
Q 2919 2259 2725 2515 
Q 2531 2772 2181 2772 
z
" transform="scale(0.015625)"/>
     </defs>
     <use xlink:href="#DejaVuSans-Bold-45"/>
     <use xlink:href="#DejaVuSans-Bold-72" transform="translate(68.310547 0)"/>
     <use xlink:href="#DejaVuSans-Bold-64" transform="translate(117.626953 0)"/>
     <use xlink:href="#DejaVuSans-Bold-151" transform="translate(189.208984 0)"/>
     <use xlink:href="#DejaVuSans-Bold-73" transform="translate(257.910156 0)"/>
     <use xlink:href="#DejaVuSans-Bold-20" transform="translate(317.431641 0)"/>
     <use xlink:href="#DejaVuSans-Bold-50" transform="translate(352.246094 0)"/>
     <use xlink:href="#DejaVuSans-Bold-72" transform="translate(425.537109 0)"/>
     <use xlink:href="#DejaVuSans-Bold-6f" transform="translate(474.853516 0)"/>
     <use xlink:href="#DejaVuSans-Bold-62" transform="translate(543.554688 0)"/>
     <use xlink:href="#DejaVuSans-Bold-6c" transform="translate(615.136719 0)"/>
     <use xlink:href="#DejaVuSans-Bold-65" transform="translate(649.414062 0)"/>
     <use xlink:href="#DejaVuSans-Bold-6d" transform="translate(717.236328 0)"/>
     <use xlink:href="#DejaVuSans-Bold-73" transform="translate(821.435547 0)"/>
     <use xlink:href="#DejaVuSans-Bold-20" transform="translate(880.957031 0)"/>
     <use xlink:href="#DejaVuSans-Bold-50" transform="translate(915.771484 0)"/>
     <use xlink:href="#DejaVuSans-Bold-72" transform="translate(989.0625 0)"/>
     <use xlink:href="#DejaVuSans-Bold-6f" transform="translate(1038.378906 0)"/>
     <use xlink:href="#DejaVuSans-Bold-67" transform="translate(1107.080078 0)"/>
     <use xlink:href="#DejaVuSans-Bold-72" transform="translate(1178.662109 0)"/>
     <use xlink:href="#DejaVuSans-Bold-65" transform="translate(1227.978516 0)"/>
     <use xlink:href="#DejaVuSans-Bold-73" transform="translate(1295.800781 0)"/>
     <use xlink:href="#DejaVuSans-Bold-73" transform="translate(1355.322266 0)"/>
    </g>
   </g>
   <g id="legend_1">
    <g id="patch_7">
     <path d="M 55.90125 119.788437 
L 213.771563 119.788437 
Q 215.771563 119.788437 215.771563 117.788437 
L 215.771563 45.397812 
Q 215.771563 43.397812 213.771563 43.397812 
L 55.90125 43.397812 
Q 53.90125 43.397812 53.90125 45.397812 
L 53.90125 117.788437 
Q 53.90125 119.788437 55.90125 119.788437 
z
" style="fill: #161b22; opacity: 0.8; stroke: #30363d; stroke-linejoin: miter"/>
    </g>
    <g id="line2d_32">
     <path d="M 57.90125 51.49625 
L 67.90125 51.49625 
L 77.90125 51.49625 
" style="fill: none; stroke: #3fb950; stroke-width: 2; stroke-linecap: square"/>
    </g>
    <g id="text_22">
     <!-- Solved -->
     <g style="fill: #c9d1d9" transform="translate(85.90125 54.99625) scale(0.1 -0.1)">
      <defs>
       <path id="DejaVuSans-6c" d="M 603 4863 
L 1178 4863 
L 1178 0 
L 603 0 
L 603 4863 
z
" transform="scale(0.015625)"/>
       <path id="DejaVuSans-64" d="M 2906 2969 
L 2906 4863 
L 3481 4863 
L 3481 0 
L 2906 0 
L 2906 525 
Q 2725 213 2448 61 
Q 2172 -91 1784 -91 
Q 1150 -91 751 415 
Q 353 922 353 1747 
Q 353 2572 751 3078 
Q 1150 3584 1784 3584 
Q 2172 3584 2448 3432 
Q 2725 3281 2906 2969 
z
M 947 1747 
Q 947 1113 1208 752 
Q 1469 391 1925 391 
Q 2381 391 2643 752 
Q 2906 1113 2906 1747 
Q 2906 2381 2643 2742 
Q 2381 3103 1925 3103 
Q 1469 3103 1208 2742 
Q 947 2381 947 1747 
z
" transform="scale(0.015625)"/>
      </defs>
      <use xlink:href="#DejaVuSans-53"/>
      <use xlink:href="#DejaVuSans-6f" transform="translate(63.476562 0)"/>
      <use xlink:href="#DejaVuSans-6c" transform="translate(124.658203 0)"/>
      <use xlink:href="#DejaVuSans-76" transform="translate(152.441406 0)"/>
      <use xlink:href="#DejaVuSans-65" transform="translate(211.621094 0)"/>
      <use xlink:href="#DejaVuSans-64" transform="translate(273.144531 0)"/>
     </g>
    </g>
    <g id="line2d_33">
     <path d="M 57.90125 66.174375 
L 67.90125 66.174375 
L 77.90125 66.174375 
" style="fill: none; stroke: #58a6ff; stroke-width: 2; stroke-linecap: square"/>
    </g>
    <g id="text_23">
     <!-- Lean Formalized Problem -->
     <g style="fill: #c9d1d9" transform="translate(85.90125 69.674375) scale(0.1 -0.1)">
      <defs>
       <path id="DejaVuSans-4c" d="M 628 4666 
L 1259 4666 
L 1259 531 
L 3531 531 
L 3531 0 
L 628 0 
L 628 4666 
z
" transform="scale(0.015625)"/>
       <path id="DejaVuSans-20" transform="scale(0.015625)"/>
       <path id="DejaVuSans-46" d="M 628 4666 
L 3309 4666 
L 3309 4134 
L 1259 4134 
L 1259 2759 
L 3109 2759 
L 3109 2228 
L 1259 2228 
L 1259 0 
L 628 0 
L 628 4666 
z
" transform="scale(0.015625)"/>
       <path id="DejaVuSans-72" d="M 2631 2963 
Q 2534 3019 2420 3045 
Q 2306 3072 2169 3072 
Q 1681 3072 1420 2755 
Q 1159 2438 1159 1844 
L 1159 0 
L 581 0 
L 581 3500 
L 1159 3500 
L 1159 2956 
Q 1341 3275 1631 3429 
Q 1922 3584 2338 3584 
Q 2397 3584 2469 3576 
Q 2541 3569 2628 3553 
L 2631 2963 
z
" transform="scale(0.015625)"/>
       <path id="DejaVuSans-6d" d="M 3328 2828 
Q 3544 3216 3844 3400 
Q 4144 3584 4550 3584 
Q 5097 3584 5394 3201 
Q 5691 2819 5691 2113 
L 5691 0 
L 5113 0 
L 5113 2094 
Q 5113 2597 4934 2840 
Q 4756 3084 4391 3084 
Q 3944 3084 3684 2787 
Q 3425 2491 3425 1978 
L 3425 0 
L 2847 0 
L 2847 2094 
Q 2847 2600 2669 2842 
Q 2491 3084 2119 3084 
Q 1678 3084 1418 2786 
Q 1159 2488 1159 1978 
L 1159 0 
L 581 0 
L 581 3500 
L 1159 3500 
L 1159 2956 
Q 1356 3278 1631 3431 
Q 1906 3584 2284 3584 
Q 2666 3584 2933 3390 
Q 3200 3197 3328 2828 
z
" transform="scale(0.015625)"/>
       <path id="DejaVuSans-69" d="M 603 3500 
L 1178 3500 
L 1178 0 
L 603 0 
L 603 3500 
z
M 603 4863 
L 1178 4863 
L 1178 4134 
L 603 4134 
L 603 4863 
z
" transform="scale(0.015625)"/>
       <path id="DejaVuSans-7a" d="M 353 3500 
L 3084 3500 
L 3084 2975 
L 922 459 
L 3084 459 
L 3084 0 
L 275 0 
L 275 525 
L 2438 3041 
L 353 3041 
L 353 3500 
z
" transform="scale(0.015625)"/>
       <path id="DejaVuSans-50" d="M 1259 4147 
L 1259 2394 
L 2053 2394 
Q 2494 2394 2734 2622 
Q 2975 2850 2975 3272 
Q 2975 3691 2734 3919 
Q 2494 4147 2053 4147 
L 1259 4147 
z
M 628 4666 
L 2053 4666 
Q 2838 4666 3239 4311 
Q 3641 3956 3641 3272 
Q 3641 2581 3239 2228 
Q 2838 1875 2053 1875 
L 1259 1875 
L 1259 0 
L 628 0 
L 628 4666 
z
" transform="scale(0.015625)"/>
       <path id="DejaVuSans-62" d="M 3116 1747 
Q 3116 2381 2855 2742 
Q 2594 3103 2138 3103 
Q 1681 3103 1420 2742 
Q 1159 2381 1159 1747 
Q 1159 1113 1420 752 
Q 1681 391 2138 391 
Q 2594 391 2855 752 
Q 3116 1113 3116 1747 
z
M 1159 2969 
Q 1341 3281 1617 3432 
Q 1894 3584 2278 3584 
Q 2916 3584 3314 3078 
Q 3713 2572 3713 1747 
Q 3713 922 3314 415 
Q 2916 -91 2278 -91 
Q 1894 -91 1617 61 
Q 1341 213 1159 525 
L 1159 0 
L 581 0 
L 581 4863 
L 1159 4863 
L 1159 2969 
z
" transform="scale(0.015625)"/>
      </defs>
      <use xlink:href="#DejaVuSans-4c"/>
      <use xlink:href="#DejaVuSans-65" transform="translate(53.962891 0)"/>
      <use xlink:href="#DejaVuSans-61" transform="translate(115.486328 0)"/>
      <use xlink:href="#DejaVuSans-6e" transform="translate(176.765625 0)"/>
      <use xlink:href="#DejaVuSans-20" transform="translate(240.144531 0)"/>
      <use xlink:href="#DejaVuSans-46" transform="translate(271.931641 0)"/>
      <use xlink:href="#DejaVuSans-6f" transform="translate(325.826172 0)"/>
      <use xlink:href="#DejaVuSans-72" transform="translate(387.007812 0)"/>
      <use xlink:href="#DejaVuSans-6d" transform="translate(426.371094 0)"/>
      <use xlink:href="#DejaVuSans-61" transform="translate(523.783203 0)"/>
      <use xlink:href="#DejaVuSans-6c" transform="translate(585.0625 0)"/>
      <use xlink:href="#DejaVuSans-69" transform="translate(612.845703 0)"/>
      <use xlink:href="#DejaVuSans-7a" transform="translate(640.628906 0)"/>
      <use xlink:href="#DejaVuSans-65" transform="translate(693.119141 0)"/>
      <use xlink:href="#DejaVuSans-64" transform="translate(754.642578 0)"/>
      <use xlink:href="#DejaVuSans-20" transform="translate(818.119141 0)"/>
      <use xlink:href="#DejaVuSans-50" transform="translate(849.90625 0)"/>
      <use xlink:href="#DejaVuSans-72" transform="translate(908.458984 0)"/>
      <use xlink:href="#DejaVuSans-6f" transform="translate(947.322266 0)"/>
      <use xlink:href="#DejaVuSans-62" transform="translate(1008.503906 0)"/>
      <use xlink:href="#DejaVuSans-6c" transform="translate(1071.980469 0)"/>
      <use xlink:href="#DejaVuSans-65" transform="translate(1099.763672 0)"/>
      <use xlink:href="#DejaVuSans-6d" transform="translate(1161.287109 0)"/>
     </g>
    </g>
    <g id="line2d_34">
     <path d="M 57.90125 80.8525 
L 67.90125 80.8525 
L 77.90125 80.8525 
" style="fill: none; stroke: #d29922; stroke-width: 2; stroke-linecap: square"/>
    </g>
    <g id="text_24">
     <!-- Lean Formalized Solution -->
     <g style="fill: #c9d1d9" transform="translate(85.90125 84.3525) scale(0.1 -0.1)">
      <use xlink:href="#DejaVuSans-4c"/>
      <use xlink:href="#DejaVuSans-65" transform="translate(53.962891 0)"/>
      <use xlink:href="#DejaVuSans-61" transform="translate(115.486328 0)"/>
      <use xlink:href="#DejaVuSans-6e" transform="translate(176.765625 0)"/>
      <use xlink:href="#DejaVuSans-20" transform="translate(240.144531 0)"/>
      <use xlink:href="#DejaVuSans-46" transform="translate(271.931641 0)"/>
      <use xlink:href="#DejaVuSans-6f" transform="translate(325.826172 0)"/>
      <use xlink:href="#DejaVuSans-72" transform="translate(387.007812 0)"/>
      <use xlink:href="#DejaVuSans-6d" transform="translate(426.371094 0)"/>
      <use xlink:href="#DejaVuSans-61" transform="translate(523.783203 0)"/>
      <use xlink:href="#DejaVuSans-6c" transform="translate(585.0625 0)"/>
      <use xlink:href="#DejaVuSans-69" transform="translate(612.845703 0)"/>
      <use xlink:href="#DejaVuSans-7a" transform="translate(640.628906 0)"/>
      <use xlink:href="#DejaVuSans-65" transform="translate(693.119141 0)"/>
      <use xlink:href="#DejaVuSans-64" transform="translate(754.642578 0)"/>
      <use xlink:href="#DejaVuSans-20" transform="translate(818.119141 0)"/>
      <use xlink:href="#DejaVuSans-53" transform="translate(849.90625 0)"/>
      <use xlink:href="#DejaVuSans-6f" transform="translate(913.382812 0)"/>
      <use xlink:href="#DejaVuSans-6c" transform="translate(974.564453 0)"/>
      <use xlink:href="#DejaVuSans-75" transform="translate(1002.347656 0)"/>
      <use xlink:href="#DejaVuSans-74" transform="translate(1065.726562 0)"/>
      <use xlink:href="#DejaVuSans-69" transform="translate(1104.935547 0)"/>
      <use xlink:href="#DejaVuSans-6f" transform="translate(1132.71875 0)"/>
      <use xlink:href="#DejaVuSans-6e" transform="translate(1193.900391 0)"/>
     </g>
    </g>
    <g id="line2d_35">
     <path d="M 57.90125 95.530625 
L 67.90125 95.530625 
L 77.90125 95.530625 
" style="fill: none; stroke: #f85149; stroke-width: 2; stroke-linecap: square"/>
    </g>
    <g id="text_25">
     <!-- OEIS Linked -->
     <g style="fill: #c9d1d9" transform="translate(85.90125 99.030625) scale(0.1 -0.1)">
      <defs>
       <path id="DejaVuSans-45" d="M 628 4666 
L 3578 4666 
L 3578 4134 
L 1259 4134 
L 1259 2753 
L 3481 2753 
L 3481 2222 
L 1259 2222 
L 1259 531 
L 3634 531 
L 3634 0 
L 628 0 
L 628 4666 
z
" transform="scale(0.015625)"/>
       <path id="DejaVuSans-49" d="M 628 4666 
L 1259 4666 
L 1259 0 
L 628 0 
L 628 4666 
z
" transform="scale(0.015625)"/>
       <path id="DejaVuSans-6b" d="M 581 4863 
L 1159 4863 
L 1159 1991 
L 2875 3500 
L 3609 3500 
L 1753 1863 
L 3688 0 
L 2938 0 
L 1159 1709 
L 1159 0 
L 581 0 
L 581 4863 
z
" transform="scale(0.015625)"/>
      </defs>
      <use xlink:href="#DejaVuSans-4f"/>
      <use xlink:href="#DejaVuSans-45" transform="translate(78.710938 0)"/>
      <use xlink:href="#DejaVuSans-49" transform="translate(141.894531 0)"/>
      <use xlink:href="#DejaVuSans-53" transform="translate(171.386719 0)"/>
      <use xlink:href="#DejaVuSans-20" transform="translate(234.863281 0)"/>
      <use xlink:href="#DejaVuSans-4c" transform="translate(266.650391 0)"/>
      <use xlink:href="#DejaVuSans-69" transform="translate(322.363281 0)"/>
      <use xlink:href="#DejaVuSans-6e" transform="translate(350.146484 0)"/>
      <use xlink:href="#DejaVuSans-6b" transform="translate(413.525391 0)"/>
      <use xlink:href="#DejaVuSans-65" transform="translate(467.810547 0)"/>
      <use xlink:href="#DejaVuSans-64" transform="translate(529.333984 0)"/>
     </g>
    </g>
    <g id="line2d_36">
     <path d="M 57.90125 110.20875 
L 67.90125 110.20875 
L 77.90125 110.20875 
" style="fill: none; stroke: #9467bd; stroke-width: 2; stroke-linecap: square"/>
    </g>
    <g id="text_26">
     <!-- Open Problems -->
     <g style="fill: #c9d1d9" transform="translate(85.90125 113.70875) scale(0.1 -0.1)">
      <defs>
       <path id="DejaVuSans-73" d="M 2834 3397 
L 2834 2853 
Q 2591 2978 2328 3040 
Q 2066 3103 1784 3103 
Q 1356 3103 1142 2972 
Q 928 2841 928 2578 
Q 928 2378 1081 2264 
Q 1234 2150 1697 2047 
L 1894 2003 
Q 2506 1872 2764 1633 
Q 3022 1394 3022 966 
Q 3022 478 2636 193 
Q 2250 -91 1575 -91 
Q 1294 -91 989 -36 
Q 684 19 347 128 
L 347 722 
Q 666 556 975 473 
Q 1284 391 1588 391 
Q 1994 391 2212 530 
Q 2431 669 2431 922 
Q 2431 1156 2273 1281 
Q 2116 1406 1581 1522 
L 1381 1569 
Q 847 1681 609 1914 
Q 372 2147 372 2553 
Q 372 3047 722 3315 
Q 1072 3584 1716 3584 
Q 2034 3584 2315 3537 
Q 2597 3491 2834 3397 
z
" transform="scale(0.015625)"/>
      </defs>
      <use xlink:href="#DejaVuSans-4f"/>
      <use xlink:href="#DejaVuSans-70" transform="translate(78.710938 0)"/>
      <use xlink:href="#DejaVuSans-65" transform="translate(142.1875 0)"/>
      <use xlink:href="#DejaVuSans-6e" transform="translate(203.710938 0)"/>
      <use xlink:href="#DejaVuSans-20" transform="translate(267.089844 0)"/>
      <use xlink:href="#DejaVuSans-50" transform="translate(298.876953 0)"/>
      <use xlink:href="#DejaVuSans-72" transform="translate(357.429688 0)"/>
      <use xlink:href="#DejaVuSans-6f" transform="translate(396.292969 0)"/>
      <use xlink:href="#DejaVuSans-62" transform="translate(457.474609 0)"/>
      <use xlink:href="#DejaVuSans-6c" transform="translate(520.951172 0)"/>
      <use xlink:href="#DejaVuSans-65" transform="translate(548.734375 0)"/>
      <use xlink:href="#DejaVuSans-6d" transform="translate(610.257812 0)"/>
      <use xlink:href="#DejaVuSans-73" transform="translate(707.669922 0)"/>
     </g>
    </g>
   </g>
  </g>
 </g>
 <defs>
  <clipPath id="p557d15430c">
   <rect x="48.90125" y="38.397812" width="799.45" height="416.84"/>
  </clipPath>
 </defs>
</svg>
