<?xml version="1.0" encoding="utf-8" standalone="no"?>
<!DOCTYPE svg PUBLIC "-//W3C//DTD SVG 1.1//EN"
  "http://www.w3.org/Graphics/SVG/1.1/DTD/svg11.dtd">
<svg xmlns:xlink="http://www.w3.org/1999/xlink" width="855.55125pt" height="494.729687pt" viewBox="0 0 855.55125 494.729687" xmlns="http://www.w3.org/2000/svg" version="1.1">
 <metadata>
  <rdf:RDF xmlns:dc="http://purl.org/dc/elements/1.1/" xmlns:cc="http://creativecommons.org/ns#" xmlns:rdf="http://www.w3.org/1999/02/22-rdf-syntax-ns#">
   <cc:Work>
    <dc:type rdf:resource="http://purl.org/dc/dcmitype/StillImage"/>
    <dc:date>2026-05-30T21:45:08.379333</dc:date>
    <dc:format>image/svg+xml</dc:format>
    <dc:creator>
     <cc:Agent>
      <dc:title>Matplotlib v3.10.7, https://matplotlib.org/</dc:title>
     </cc:Agent>
    </dc:creator>
   </cc:Work>
  </rdf:RDF>
 </metadata>
 <defs>
  <style type="text/css">*{stroke-linejoin: round; stroke-linecap: butt}</style>
 </defs>
 <g id="figure_1">
  <g id="patch_1">
   <path d="M 0 494.729687 
L 855.55125 494.729687 
L 855.55125 0 
L 0 0 
z
" style="fill: #ffffff"/>
  </g>
  <g id="axes_1">
   <g id="patch_2">
    <path d="M 48.90125 455.237812 
L 848.35125 455.237812 
L 848.35125 38.397812 
L 48.90125 38.397812 
z
" style="fill: #ffffff"/>
   </g>
   <g id="matplotlib.axis_1">
    <g id="xtick_1">
     <g id="line2d_1">
      <path d="M 86.020431 455.237812 
L 86.020431 38.397812 
" clip-path="url(#p84eaf3ab2d)" style="fill: none; stroke: #d0d7de; stroke-opacity: 0.25; stroke-width: 0.5; stroke-linecap: square"/>
     </g>
     <g id="line2d_2">
      <defs>
       <path id="m30dd5be620" d="M 0 0 
L 0 3.5 
" style="stroke: #24292f; stroke-width: 0.8"/>
      </defs>
      <g>
       <use xlink:href="#m30dd5be620" x="86.020431" y="455.237812" style="fill: #24292f; stroke: #24292f; stroke-width: 0.8"/>
      </g>
     </g>
     <g id="text_1">
      <!-- Sep -->
      <g style="fill: #24292f" transform="translate(76.595431 469.83625) scale(0.1 -0.1)">
       <defs>
        <path id="DejaVuSans-53" d="M 3425 4513 
L 3425 3897 
Q 3066 4069 2747 4153 
Q 2428 4238 2131 4238 
Q 1616 4238 1336 4038 
Q 1056 3838 1056 3469 
Q 1056 3159 1242 3001 
Q 1428 2844 1947 2747 
L 2328 2669 
Q 3034 2534 3370 2195 
Q 3706 1856 3706 1288 
Q 3706 609 3251 259 
Q 2797 -91 1919 -91 
Q 1588 -91 1214 -16 
Q 841 59 441 206 
L 441 856 
Q 825 641 1194 531 
Q 1563 422 1919 422 
Q 2459 422 2753 634 
Q 3047 847 3047 1241 
Q 3047 1584 2836 1778 
Q 2625 1972 2144 2069 
L 1759 2144 
Q 1053 2284 737 2584 
Q 422 2884 422 3419 
Q 422 4038 858 4394 
Q 1294 4750 2059 4750 
Q 2388 4750 2728 4690 
Q 3069 4631 3425 4513 
z
" transform="scale(0.015625)"/>
        <path id="DejaVuSans-65" d="M 3597 1894 
L 3597 1613 
L 953 1613 
Q 991 1019 1311 708 
Q 1631 397 2203 397 
Q 2534 397 2845 478 
Q 3156 559 3463 722 
L 3463 178 
Q 3153 47 2828 -22 
Q 2503 -91 2169 -91 
Q 1331 -91 842 396 
Q 353 884 353 1716 
Q 353 2575 817 3079 
Q 1281 3584 2069 3584 
Q 2775 3584 3186 3129 
Q 3597 2675 3597 1894 
z
M 3022 2063 
Q 3016 2534 2758 2815 
Q 2500 3097 2075 3097 
Q 1594 3097 1305 2825 
Q 1016 2553 972 2059 
L 3022 2063 
z
" transform="scale(0.015625)"/>
        <path id="DejaVuSans-70" d="M 1159 525 
L 1159 -1331 
L 581 -1331 
L 581 3500 
L 1159 3500 
L 1159 2969 
Q 1341 3281 1617 3432 
Q 1894 3584 2278 3584 
Q 2916 3584 3314 3078 
Q 3713 2572 3713 1747 
Q 3713 922 3314 415 
Q 2916 -91 2278 -91 
Q 1894 -91 1617 61 
Q 1341 213 1159 525 
z
M 3116 1747 
Q 3116 2381 2855 2742 
Q 2594 3103 2138 3103 
Q 1681 3103 1420 2742 
Q 1159 2381 1159 1747 
Q 1159 1113 1420 752 
Q 1681 391 2138 391 
Q 2594 391 2855 752 
Q 3116 1113 3116 1747 
z
" transform="scale(0.015625)"/>
       </defs>
       <use xlink:href="#DejaVuSans-53"/>
       <use xlink:href="#DejaVuSans-65" transform="translate(63.476562 0)"/>
       <use xlink:href="#DejaVuSans-70" transform="translate(125 0)"/>
      </g>
     </g>
    </g>
    <g id="xtick_2">
     <g id="line2d_3">
      <path d="M 166.120679 455.237812 
L 166.120679 38.397812 
" clip-path="url(#p84eaf3ab2d)" style="fill: none; stroke: #d0d7de; stroke-opacity: 0.25; stroke-width: 0.5; stroke-linecap: square"/>
     </g>
     <g id="line2d_4">
      <g>
       <use xlink:href="#m30dd5be620" x="166.120679" y="455.237812" style="fill: #24292f; stroke: #24292f; stroke-width: 0.8"/>
      </g>
     </g>
     <g id="text_2">
      <!-- Oct -->
      <g style="fill: #24292f" transform="translate(157.475367 469.83625) scale(0.1 -0.1)">
       <defs>
        <path id="DejaVuSans-4f" d="M 2522 4238 
Q 1834 4238 1429 3725 
Q 1025 3213 1025 2328 
Q 1025 1447 1429 934 
Q 1834 422 2522 422 
Q 3209 422 3611 934 
Q 4013 1447 4013 2328 
Q 4013 3213 3611 3725 
Q 3209 4238 2522 4238 
z
M 2522 4750 
Q 3503 4750 4090 4092 
Q 4678 3434 4678 2328 
Q 4678 1225 4090 567 
Q 3503 -91 2522 -91 
Q 1538 -91 948 565 
Q 359 1222 359 2328 
Q 359 3434 948 4092 
Q 1538 4750 2522 4750 
z
" transform="scale(0.015625)"/>
        <path id="DejaVuSans-63" d="M 3122 3366 
L 3122 2828 
Q 2878 2963 2633 3030 
Q 2388 3097 2138 3097 
Q 1578 3097 1268 2742 
Q 959 2388 959 1747 
Q 959 1106 1268 751 
Q 1578 397 2138 397 
Q 2388 397 2633 464 
Q 2878 531 3122 666 
L 3122 134 
Q 2881 22 2623 -34 
Q 2366 -91 2075 -91 
Q 1284 -91 818 406 
Q 353 903 353 1747 
Q 353 2603 823 3093 
Q 1294 3584 2113 3584 
Q 2378 3584 2631 3529 
Q 2884 3475 3122 3366 
z
" transform="scale(0.015625)"/>
        <path id="DejaVuSans-74" d="M 1172 4494 
L 1172 3500 
L 2356 3500 
L 2356 3053 
L 1172 3053 
L 1172 1153 
Q 1172 725 1289 603 
Q 1406 481 1766 481 
L 2356 481 
L 2356 0 
L 1766 0 
Q 1100 0 847 248 
Q 594 497 594 1153 
L 594 3053 
L 172 3053 
L 172 3500 
L 594 3500 
L 594 4494 
L 1172 4494 
z
" transform="scale(0.015625)"/>
       </defs>
       <use xlink:href="#DejaVuSans-4f"/>
       <use xlink:href="#DejaVuSans-63" transform="translate(78.710938 0)"/>
       <use xlink:href="#DejaVuSans-74" transform="translate(133.691406 0)"/>
      </g>
     </g>
    </g>
    <g id="xtick_3">
     <g id="line2d_5">
      <path d="M 248.890935 455.237812 
L 248.890935 38.397812 
" clip-path="url(#p84eaf3ab2d)" style="fill: none; stroke: #d0d7de; stroke-opacity: 0.25; stroke-width: 0.5; stroke-linecap: square"/>
     </g>
     <g id="line2d_6">
      <g>
       <use xlink:href="#m30dd5be620" x="248.890935" y="455.237812" style="fill: #24292f; stroke: #24292f; stroke-width: 0.8"/>
      </g>
     </g>
     <g id="text_3">
      <!-- Nov -->
      <g style="fill: #24292f" transform="translate(239.13156 469.83625) scale(0.1 -0.1)">
       <defs>
        <path id="DejaVuSans-4e" d="M 628 4666 
L 1478 4666 
L 3547 763 
L 3547 4666 
L 4159 4666 
L 4159 0 
L 3309 0 
L 1241 3903 
L 1241 0 
L 628 0 
L 628 4666 
z
" transform="scale(0.015625)"/>
        <path id="DejaVuSans-6f" d="M 1959 3097 
Q 1497 3097 1228 2736 
Q 959 2375 959 1747 
Q 959 1119 1226 758 
Q 1494 397 1959 397 
Q 2419 397 2687 759 
Q 2956 1122 2956 1747 
Q 2956 2369 2687 2733 
Q 2419 3097 1959 3097 
z
M 1959 3584 
Q 2709 3584 3137 3096 
Q 3566 2609 3566 1747 
Q 3566 888 3137 398 
Q 2709 -91 1959 -91 
Q 1206 -91 779 398 
Q 353 888 353 1747 
Q 353 2609 779 3096 
Q 1206 3584 1959 3584 
z
" transform="scale(0.015625)"/>
        <path id="DejaVuSans-76" d="M 191 3500 
L 800 3500 
L 1894 563 
L 2988 3500 
L 3597 3500 
L 2284 0 
L 1503 0 
L 191 3500 
z
" transform="scale(0.015625)"/>
       </defs>
       <use xlink:href="#DejaVuSans-4e"/>
       <use xlink:href="#DejaVuSans-6f" transform="translate(74.804688 0)"/>
       <use xlink:href="#DejaVuSans-76" transform="translate(135.986328 0)"/>
      </g>
     </g>
    </g>
    <g id="xtick_4">
     <g id="line2d_7">
      <path d="M 328.991183 455.237812 
L 328.991183 38.397812 
" clip-path="url(#p84eaf3ab2d)" style="fill: none; stroke: #d0d7de; stroke-opacity: 0.25; stroke-width: 0.5; stroke-linecap: square"/>
     </g>
     <g id="line2d_8">
      <g>
       <use xlink:href="#m30dd5be620" x="328.991183" y="455.237812" style="fill: #24292f; stroke: #24292f; stroke-width: 0.8"/>
      </g>
     </g>
     <g id="text_4">
      <!-- Dec -->
      <g style="fill: #24292f" transform="translate(319.315402 469.83625) scale(0.1 -0.1)">
       <defs>
        <path id="DejaVuSans-44" d="M 1259 4147 
L 1259 519 
L 2022 519 
Q 2988 519 3436 956 
Q 3884 1394 3884 2338 
Q 3884 3275 3436 3711 
Q 2988 4147 2022 4147 
L 1259 4147 
z
M 628 4666 
L 1925 4666 
Q 3281 4666 3915 4102 
Q 4550 3538 4550 2338 
Q 4550 1131 3912 565 
Q 3275 0 1925 0 
L 628 0 
L 628 4666 
z
" transform="scale(0.015625)"/>
       </defs>
       <use xlink:href="#DejaVuSans-44"/>
       <use xlink:href="#DejaVuSans-65" transform="translate(77.001953 0)"/>
       <use xlink:href="#DejaVuSans-63" transform="translate(138.525391 0)"/>
      </g>
     </g>
    </g>
    <g id="xtick_5">
     <g id="line2d_9">
      <path d="M 411.76144 455.237812 
L 411.76144 38.397812 
" clip-path="url(#p84eaf3ab2d)" style="fill: none; stroke: #d0d7de; stroke-opacity: 0.25; stroke-width: 0.5; stroke-linecap: square"/>
     </g>
     <g id="line2d_10">
      <g>
       <use xlink:href="#m30dd5be620" x="411.76144" y="455.237812" style="fill: #24292f; stroke: #24292f; stroke-width: 0.8"/>
      </g>
     </g>
     <g id="text_5">
      <!-- 2026 -->
      <g style="fill: #24292f" transform="translate(399.03644 469.83625) scale(0.1 -0.1)">
       <defs>
        <path id="DejaVuSans-32" d="M 1228 531 
L 3431 531 
L 3431 0 
L 469 0 
L 469 531 
Q 828 903 1448 1529 
Q 2069 2156 2228 2338 
Q 2531 2678 2651 2914 
Q 2772 3150 2772 3378 
Q 2772 3750 2511 3984 
Q 2250 4219 1831 4219 
Q 1534 4219 1204 4116 
Q 875 4013 500 3803 
L 500 4441 
Q 881 4594 1212 4672 
Q 1544 4750 1819 4750 
Q 2544 4750 2975 4387 
Q 3406 4025 3406 3419 
Q 3406 3131 3298 2873 
Q 3191 2616 2906 2266 
Q 2828 2175 2409 1742 
Q 1991 1309 1228 531 
z
" transform="scale(0.015625)"/>
        <path id="DejaVuSans-30" d="M 2034 4250 
Q 1547 4250 1301 3770 
Q 1056 3291 1056 2328 
Q 1056 1369 1301 889 
Q 1547 409 2034 409 
Q 2525 409 2770 889 
Q 3016 1369 3016 2328 
Q 3016 3291 2770 3770 
Q 2525 4250 2034 4250 
z
M 2034 4750 
Q 2819 4750 3233 4129 
Q 3647 3509 3647 2328 
Q 3647 1150 3233 529 
Q 2819 -91 2034 -91 
Q 1250 -91 836 529 
Q 422 1150 422 2328 
Q 422 3509 836 4129 
Q 1250 4750 2034 4750 
z
" transform="scale(0.015625)"/>
        <path id="DejaVuSans-36" d="M 2113 2584 
Q 1688 2584 1439 2293 
Q 1191 2003 1191 1497 
Q 1191 994 1439 701 
Q 1688 409 2113 409 
Q 2538 409 2786 701 
Q 3034 994 3034 1497 
Q 3034 2003 2786 2293 
Q 2538 2584 2113 2584 
z
M 3366 4563 
L 3366 3988 
Q 3128 4100 2886 4159 
Q 2644 4219 2406 4219 
Q 1781 4219 1451 3797 
Q 1122 3375 1075 2522 
Q 1259 2794 1537 2939 
Q 1816 3084 2150 3084 
Q 2853 3084 3261 2657 
Q 3669 2231 3669 1497 
Q 3669 778 3244 343 
Q 2819 -91 2113 -91 
Q 1303 -91 875 529 
Q 447 1150 447 2328 
Q 447 3434 972 4092 
Q 1497 4750 2381 4750 
Q 2619 4750 2861 4703 
Q 3103 4656 3366 4563 
z
" transform="scale(0.015625)"/>
       </defs>
       <use xlink:href="#DejaVuSans-32"/>
       <use xlink:href="#DejaVuSans-30" transform="translate(63.623047 0)"/>
       <use xlink:href="#DejaVuSans-32" transform="translate(127.246094 0)"/>
       <use xlink:href="#DejaVuSans-36" transform="translate(190.869141 0)"/>
      </g>
     </g>
    </g>
    <g id="xtick_6">
     <g id="line2d_11">
      <path d="M 494.531696 455.237812 
L 494.531696 38.397812 
" clip-path="url(#p84eaf3ab2d)" style="fill: none; stroke: #d0d7de; stroke-opacity: 0.25; stroke-width: 0.5; stroke-linecap: square"/>
     </g>
     <g id="line2d_12">
      <g>
       <use xlink:href="#m30dd5be620" x="494.531696" y="455.237812" style="fill: #24292f; stroke: #24292f; stroke-width: 0.8"/>
      </g>
     </g>
     <g id="text_6">
      <!-- Feb -->
      <g style="fill: #24292f" transform="translate(485.680133 469.83625) scale(0.1 -0.1)">
       <defs>
        <path id="DejaVuSans-46" d="M 628 4666 
L 3309 4666 
L 3309 4134 
L 1259 4134 
L 1259 2759 
L 3109 2759 
L 3109 2228 
L 1259 2228 
L 1259 0 
L 628 0 
L 628 4666 
z
" transform="scale(0.015625)"/>
        <path id="DejaVuSans-62" d="M 3116 1747 
Q 3116 2381 2855 2742 
Q 2594 3103 2138 3103 
Q 1681 3103 1420 2742 
Q 1159 2381 1159 1747 
Q 1159 1113 1420 752 
Q 1681 391 2138 391 
Q 2594 391 2855 752 
Q 3116 1113 3116 1747 
z
M 1159 2969 
Q 1341 3281 1617 3432 
Q 1894 3584 2278 3584 
Q 2916 3584 3314 3078 
Q 3713 2572 3713 1747 
Q 3713 922 3314 415 
Q 2916 -91 2278 -91 
Q 1894 -91 1617 61 
Q 1341 213 1159 525 
L 1159 0 
L 581 0 
L 581 4863 
L 1159 4863 
L 1159 2969 
z
" transform="scale(0.015625)"/>
       </defs>
       <use xlink:href="#DejaVuSans-46"/>
       <use xlink:href="#DejaVuSans-65" transform="translate(52.019531 0)"/>
       <use xlink:href="#DejaVuSans-62" transform="translate(113.542969 0)"/>
      </g>
     </g>
    </g>
    <g id="xtick_7">
     <g id="line2d_13">
      <path d="M 569.291927 455.237812 
L 569.291927 38.397812 
" clip-path="url(#p84eaf3ab2d)" style="fill: none; stroke: #d0d7de; stroke-opacity: 0.25; stroke-width: 0.5; stroke-linecap: square"/>
     </g>
     <g id="line2d_14">
      <g>
       <use xlink:href="#m30dd5be620" x="569.291927" y="455.237812" style="fill: #24292f; stroke: #24292f; stroke-width: 0.8"/>
      </g>
     </g>
     <g id="text_7">
      <!-- Mar -->
      <g style="fill: #24292f" transform="translate(559.858334 469.83625) scale(0.1 -0.1)">
       <defs>
        <path id="DejaVuSans-4d" d="M 628 4666 
L 1569 4666 
L 2759 1491 
L 3956 4666 
L 4897 4666 
L 4897 0 
L 4281 0 
L 4281 4097 
L 3078 897 
L 2444 897 
L 1241 4097 
L 1241 0 
L 628 0 
L 628 4666 
z
" transform="scale(0.015625)"/>
        <path id="DejaVuSans-61" d="M 2194 1759 
Q 1497 1759 1228 1600 
Q 959 1441 959 1056 
Q 959 750 1161 570 
Q 1363 391 1709 391 
Q 2188 391 2477 730 
Q 2766 1069 2766 1631 
L 2766 1759 
L 2194 1759 
z
M 3341 1997 
L 3341 0 
L 2766 0 
L 2766 531 
Q 2569 213 2275 61 
Q 1981 -91 1556 -91 
Q 1019 -91 701 211 
Q 384 513 384 1019 
Q 384 1609 779 1909 
Q 1175 2209 1959 2209 
L 2766 2209 
L 2766 2266 
Q 2766 2663 2505 2880 
Q 2244 3097 1772 3097 
Q 1472 3097 1187 3025 
Q 903 2953 641 2809 
L 641 3341 
Q 956 3463 1253 3523 
Q 1550 3584 1831 3584 
Q 2591 3584 2966 3190 
Q 3341 2797 3341 1997 
z
" transform="scale(0.015625)"/>
        <path id="DejaVuSans-72" d="M 2631 2963 
Q 2534 3019 2420 3045 
Q 2306 3072 2169 3072 
Q 1681 3072 1420 2755 
Q 1159 2438 1159 1844 
L 1159 0 
L 581 0 
L 581 3500 
L 1159 3500 
L 1159 2956 
Q 1341 3275 1631 3429 
Q 1922 3584 2338 3584 
Q 2397 3584 2469 3576 
Q 2541 3569 2628 3553 
L 2631 2963 
z
" transform="scale(0.015625)"/>
       </defs>
       <use xlink:href="#DejaVuSans-4d"/>
       <use xlink:href="#DejaVuSans-61" transform="translate(86.279297 0)"/>
       <use xlink:href="#DejaVuSans-72" transform="translate(147.558594 0)"/>
      </g>
     </g>
    </g>
    <g id="xtick_8">
     <g id="line2d_15">
      <path d="M 652.062184 455.237812 
L 652.062184 38.397812 
" clip-path="url(#p84eaf3ab2d)" style="fill: none; stroke: #d0d7de; stroke-opacity: 0.25; stroke-width: 0.5; stroke-linecap: square"/>
     </g>
     <g id="line2d_16">
      <g>
       <use xlink:href="#m30dd5be620" x="652.062184" y="455.237812" style="fill: #24292f; stroke: #24292f; stroke-width: 0.8"/>
      </g>
     </g>
     <g id="text_8">
      <!-- Apr -->
      <g style="fill: #24292f" transform="translate(643.412184 469.83625) scale(0.1 -0.1)">
       <defs>
        <path id="DejaVuSans-41" d="M 2188 4044 
L 1331 1722 
L 3047 1722 
L 2188 4044 
z
M 1831 4666 
L 2547 4666 
L 4325 0 
L 3669 0 
L 3244 1197 
L 1141 1197 
L 716 0 
L 50 0 
L 1831 4666 
z
" transform="scale(0.015625)"/>
       </defs>
       <use xlink:href="#DejaVuSans-41"/>
       <use xlink:href="#DejaVuSans-70" transform="translate(68.408203 0)"/>
       <use xlink:href="#DejaVuSans-72" transform="translate(131.884766 0)"/>
      </g>
     </g>
    </g>
    <g id="xtick_9">
     <g id="line2d_17">
      <path d="M 732.162432 455.237812 
L 732.162432 38.397812 
" clip-path="url(#p84eaf3ab2d)" style="fill: none; stroke: #d0d7de; stroke-opacity: 0.25; stroke-width: 0.5; stroke-linecap: square"/>
     </g>
     <g id="line2d_18">
      <g>
       <use xlink:href="#m30dd5be620" x="732.162432" y="455.237812" style="fill: #24292f; stroke: #24292f; stroke-width: 0.8"/>
      </g>
     </g>
     <g id="text_9">
      <!-- May -->
      <g style="fill: #24292f" transform="translate(721.824932 469.83625) scale(0.1 -0.1)">
       <defs>
        <path id="DejaVuSans-79" d="M 2059 -325 
Q 1816 -950 1584 -1140 
Q 1353 -1331 966 -1331 
L 506 -1331 
L 506 -850 
L 844 -850 
Q 1081 -850 1212 -737 
Q 1344 -625 1503 -206 
L 1606 56 
L 191 3500 
L 800 3500 
L 1894 763 
L 2988 3500 
L 3597 3500 
L 2059 -325 
z
" transform="scale(0.015625)"/>
       </defs>
       <use xlink:href="#DejaVuSans-4d"/>
       <use xlink:href="#DejaVuSans-61" transform="translate(86.279297 0)"/>
       <use xlink:href="#DejaVuSans-79" transform="translate(147.558594 0)"/>
      </g>
     </g>
    </g>
    <g id="xtick_10">
     <g id="line2d_19">
      <path d="M 814.932688 455.237812 
L 814.932688 38.397812 
" clip-path="url(#p84eaf3ab2d)" style="fill: none; stroke: #d0d7de; stroke-opacity: 0.25; stroke-width: 0.5; stroke-linecap: square"/>
     </g>
     <g id="line2d_20">
      <g>
       <use xlink:href="#m30dd5be620" x="814.932688" y="455.237812" style="fill: #24292f; stroke: #24292f; stroke-width: 0.8"/>
      </g>
     </g>
     <g id="text_10">
      <!-- Jun -->
      <g style="fill: #24292f" transform="translate(807.120188 469.83625) scale(0.1 -0.1)">
       <defs>
        <path id="DejaVuSans-4a" d="M 628 4666 
L 1259 4666 
L 1259 325 
Q 1259 -519 939 -900 
Q 619 -1281 -91 -1281 
L -331 -1281 
L -331 -750 
L -134 -750 
Q 284 -750 456 -515 
Q 628 -281 628 325 
L 628 4666 
z
" transform="scale(0.015625)"/>
        <path id="DejaVuSans-75" d="M 544 1381 
L 544 3500 
L 1119 3500 
L 1119 1403 
Q 1119 906 1312 657 
Q 1506 409 1894 409 
Q 2359 409 2629 706 
Q 2900 1003 2900 1516 
L 2900 3500 
L 3475 3500 
L 3475 0 
L 2900 0 
L 2900 538 
Q 2691 219 2414 64 
Q 2138 -91 1772 -91 
Q 1169 -91 856 284 
Q 544 659 544 1381 
z
M 1991 3584 
L 1991 3584 
z
" transform="scale(0.015625)"/>
        <path id="DejaVuSans-6e" d="M 3513 2113 
L 3513 0 
L 2938 0 
L 2938 2094 
Q 2938 2591 2744 2837 
Q 2550 3084 2163 3084 
Q 1697 3084 1428 2787 
Q 1159 2491 1159 1978 
L 1159 0 
L 581 0 
L 581 3500 
L 1159 3500 
L 1159 2956 
Q 1366 3272 1645 3428 
Q 1925 3584 2291 3584 
Q 2894 3584 3203 3211 
Q 3513 2838 3513 2113 
z
" transform="scale(0.015625)"/>
       </defs>
       <use xlink:href="#DejaVuSans-4a"/>
       <use xlink:href="#DejaVuSans-75" transform="translate(29.492188 0)"/>
       <use xlink:href="#DejaVuSans-6e" transform="translate(92.871094 0)"/>
      </g>
     </g>
    </g>
    <g id="text_11">
     <!-- Date -->
     <g style="fill: #24292f" transform="translate(434.285313 485.034062) scale(0.12 -0.12)">
      <use xlink:href="#DejaVuSans-44"/>
      <use xlink:href="#DejaVuSans-61" transform="translate(77.001953 0)"/>
      <use xlink:href="#DejaVuSans-74" transform="translate(138.28125 0)"/>
      <use xlink:href="#DejaVuSans-65" transform="translate(177.490234 0)"/>
     </g>
    </g>
   </g>
   <g id="matplotlib.axis_2">
    <g id="ytick_1">
     <g id="line2d_21">
      <path d="M 48.90125 455.237812 
L 848.35125 455.237812 
" clip-path="url(#p84eaf3ab2d)" style="fill: none; stroke: #d0d7de; stroke-opacity: 0.25; stroke-width: 0.5; stroke-linecap: square"/>
     </g>
     <g id="line2d_22">
      <defs>
       <path id="m66e304a892" d="M 0 0 
L -3.5 0 
" style="stroke: #24292f; stroke-width: 0.8"/>
      </defs>
      <g>
       <use xlink:href="#m66e304a892" x="48.90125" y="455.237812" style="fill: #24292f; stroke: #24292f; stroke-width: 0.8"/>
      </g>
     </g>
     <g id="text_12">
      <!-- 0 -->
      <g style="fill: #24292f" transform="translate(35.53875 459.037031) scale(0.1 -0.1)">
       <use xlink:href="#DejaVuSans-30"/>
      </g>
     </g>
    </g>
    <g id="ytick_2">
     <g id="line2d_23">
      <path d="M 48.90125 399.659146 
L 848.35125 399.659146 
" clip-path="url(#p84eaf3ab2d)" style="fill: none; stroke: #d0d7de; stroke-opacity: 0.25; stroke-width: 0.5; stroke-linecap: square"/>
     </g>
     <g id="line2d_24">
      <g>
       <use xlink:href="#m66e304a892" x="48.90125" y="399.659146" style="fill: #24292f; stroke: #24292f; stroke-width: 0.8"/>
      </g>
     </g>
     <g id="text_13">
      <!-- 100 -->
      <g style="fill: #24292f" transform="translate(22.81375 403.458365) scale(0.1 -0.1)">
       <defs>
        <path id="DejaVuSans-31" d="M 794 531 
L 1825 531 
L 1825 4091 
L 703 3866 
L 703 4441 
L 1819 4666 
L 2450 4666 
L 2450 531 
L 3481 531 
L 3481 0 
L 794 0 
L 794 531 
z
" transform="scale(0.015625)"/>
       </defs>
       <use xlink:href="#DejaVuSans-31"/>
       <use xlink:href="#DejaVuSans-30" transform="translate(63.623047 0)"/>
       <use xlink:href="#DejaVuSans-30" transform="translate(127.246094 0)"/>
      </g>
     </g>
    </g>
    <g id="ytick_3">
     <g id="line2d_25">
      <path d="M 48.90125 344.080479 
L 848.35125 344.080479 
" clip-path="url(#p84eaf3ab2d)" style="fill: none; stroke: #d0d7de; stroke-opacity: 0.25; stroke-width: 0.5; stroke-linecap: square"/>
     </g>
     <g id="line2d_26">
      <g>
       <use xlink:href="#m66e304a892" x="48.90125" y="344.080479" style="fill: #24292f; stroke: #24292f; stroke-width: 0.8"/>
      </g>
     </g>
     <g id="text_14">
      <!-- 200 -->
      <g style="fill: #24292f" transform="translate(22.81375 347.879698) scale(0.1 -0.1)">
       <use xlink:href="#DejaVuSans-32"/>
       <use xlink:href="#DejaVuSans-30" transform="translate(63.623047 0)"/>
       <use xlink:href="#DejaVuSans-30" transform="translate(127.246094 0)"/>
      </g>
     </g>
    </g>
    <g id="ytick_4">
     <g id="line2d_27">
      <path d="M 48.90125 288.501812 
L 848.35125 288.501812 
" clip-path="url(#p84eaf3ab2d)" style="fill: none; stroke: #d0d7de; stroke-opacity: 0.25; stroke-width: 0.5; stroke-linecap: square"/>
     </g>
     <g id="line2d_28">
      <g>
       <use xlink:href="#m66e304a892" x="48.90125" y="288.501812" style="fill: #24292f; stroke: #24292f; stroke-width: 0.8"/>
      </g>
     </g>
     <g id="text_15">
      <!-- 300 -->
      <g style="fill: #24292f" transform="translate(22.81375 292.301031) scale(0.1 -0.1)">
       <defs>
        <path id="DejaVuSans-33" d="M 2597 2516 
Q 3050 2419 3304 2112 
Q 3559 1806 3559 1356 
Q 3559 666 3084 287 
Q 2609 -91 1734 -91 
Q 1441 -91 1130 -33 
Q 819 25 488 141 
L 488 750 
Q 750 597 1062 519 
Q 1375 441 1716 441 
Q 2309 441 2620 675 
Q 2931 909 2931 1356 
Q 2931 1769 2642 2001 
Q 2353 2234 1838 2234 
L 1294 2234 
L 1294 2753 
L 1863 2753 
Q 2328 2753 2575 2939 
Q 2822 3125 2822 3475 
Q 2822 3834 2567 4026 
Q 2313 4219 1838 4219 
Q 1578 4219 1281 4162 
Q 984 4106 628 3988 
L 628 4550 
Q 988 4650 1302 4700 
Q 1616 4750 1894 4750 
Q 2613 4750 3031 4423 
Q 3450 4097 3450 3541 
Q 3450 3153 3228 2886 
Q 3006 2619 2597 2516 
z
" transform="scale(0.015625)"/>
       </defs>
       <use xlink:href="#DejaVuSans-33"/>
       <use xlink:href="#DejaVuSans-30" transform="translate(63.623047 0)"/>
       <use xlink:href="#DejaVuSans-30" transform="translate(127.246094 0)"/>
      </g>
     </g>
    </g>
    <g id="ytick_5">
     <g id="line2d_29">
      <path d="M 48.90125 232.923146 
L 848.35125 232.923146 
" clip-path="url(#p84eaf3ab2d)" style="fill: none; stroke: #d0d7de; stroke-opacity: 0.25; stroke-width: 0.5; stroke-linecap: square"/>
     </g>
     <g id="line2d_30">
      <g>
       <use xlink:href="#m66e304a892" x="48.90125" y="232.923146" style="fill: #24292f; stroke: #24292f; stroke-width: 0.8"/>
      </g>
     </g>
     <g id="text_16">
      <!-- 400 -->
      <g style="fill: #24292f" transform="translate(22.81375 236.722365) scale(0.1 -0.1)">
       <defs>
        <path id="DejaVuSans-34" d="M 2419 4116 
L 825 1625 
L 2419 1625 
L 2419 4116 
z
M 2253 4666 
L 3047 4666 
L 3047 1625 
L 3713 1625 
L 3713 1100 
L 3047 1100 
L 3047 0 
L 2419 0 
L 2419 1100 
L 313 1100 
L 313 1709 
L 2253 4666 
z
" transform="scale(0.015625)"/>
       </defs>
       <use xlink:href="#DejaVuSans-34"/>
       <use xlink:href="#DejaVuSans-30" transform="translate(63.623047 0)"/>
       <use xlink:href="#DejaVuSans-30" transform="translate(127.246094 0)"/>
      </g>
     </g>
    </g>
    <g id="ytick_6">
     <g id="line2d_31">
      <path d="M 48.90125 177.344479 
L 848.35125 177.344479 
" clip-path="url(#p84eaf3ab2d)" style="fill: none; stroke: #d0d7de; stroke-opacity: 0.25; stroke-width: 0.5; stroke-linecap: square"/>
     </g>
     <g id="line2d_32">
      <g>
       <use xlink:href="#m66e304a892" x="48.90125" y="177.344479" style="fill: #24292f; stroke: #24292f; stroke-width: 0.8"/>
      </g>
     </g>
     <g id="text_17">
      <!-- 500 -->
      <g style="fill: #24292f" transform="translate(22.81375 181.143698) scale(0.1 -0.1)">
       <defs>
        <path id="DejaVuSans-35" d="M 691 4666 
L 3169 4666 
L 3169 4134 
L 1269 4134 
L 1269 2991 
Q 1406 3038 1543 3061 
Q 1681 3084 1819 3084 
Q 2600 3084 3056 2656 
Q 3513 2228 3513 1497 
Q 3513 744 3044 326 
Q 2575 -91 1722 -91 
Q 1428 -91 1123 -41 
Q 819 9 494 109 
L 494 744 
Q 775 591 1075 516 
Q 1375 441 1709 441 
Q 2250 441 2565 725 
Q 2881 1009 2881 1497 
Q 2881 1984 2565 2268 
Q 2250 2553 1709 2553 
Q 1456 2553 1204 2497 
Q 953 2441 691 2322 
L 691 4666 
z
" transform="scale(0.015625)"/>
       </defs>
       <use xlink:href="#DejaVuSans-35"/>
       <use xlink:href="#DejaVuSans-30" transform="translate(63.623047 0)"/>
       <use xlink:href="#DejaVuSans-30" transform="translate(127.246094 0)"/>
      </g>
     </g>
    </g>
    <g id="ytick_7">
     <g id="line2d_33">
      <path d="M 48.90125 121.765812 
L 848.35125 121.765812 
" clip-path="url(#p84eaf3ab2d)" style="fill: none; stroke: #d0d7de; stroke-opacity: 0.25; stroke-width: 0.5; stroke-linecap: square"/>
     </g>
     <g id="line2d_34">
      <g>
       <use xlink:href="#m66e304a892" x="48.90125" y="121.765812" style="fill: #24292f; stroke: #24292f; stroke-width: 0.8"/>
      </g>
     </g>
     <g id="text_18">
      <!-- 600 -->
      <g style="fill: #24292f" transform="translate(22.81375 125.565031) scale(0.1 -0.1)">
       <use xlink:href="#DejaVuSans-36"/>
       <use xlink:href="#DejaVuSans-30" transform="translate(63.623047 0)"/>
       <use xlink:href="#DejaVuSans-30" transform="translate(127.246094 0)"/>
      </g>
     </g>
    </g>
    <g id="ytick_8">
     <g id="line2d_35">
      <path d="M 48.90125 66.187146 
L 848.35125 66.187146 
" clip-path="url(#p84eaf3ab2d)" style="fill: none; stroke: #d0d7de; stroke-opacity: 0.25; stroke-width: 0.5; stroke-linecap: square"/>
     </g>
     <g id="line2d_36">
      <g>
       <use xlink:href="#m66e304a892" x="48.90125" y="66.187146" style="fill: #24292f; stroke: #24292f; stroke-width: 0.8"/>
      </g>
     </g>
     <g id="text_19">
      <!-- 700 -->
      <g style="fill: #24292f" transform="translate(22.81375 69.986365) scale(0.1 -0.1)">
       <defs>
        <path id="DejaVuSans-37" d="M 525 4666 
L 3525 4666 
L 3525 4397 
L 1831 0 
L 1172 0 
L 2766 4134 
L 525 4134 
L 525 4666 
z
" transform="scale(0.015625)"/>
       </defs>
       <use xlink:href="#DejaVuSans-37"/>
       <use xlink:href="#DejaVuSans-30" transform="translate(63.623047 0)"/>
       <use xlink:href="#DejaVuSans-30" transform="translate(127.246094 0)"/>
      </g>
     </g>
    </g>
    <g id="text_20">
     <!-- Count -->
     <g style="fill: #24292f" transform="translate(16.318125 264.635937) rotate(-90) scale(0.12 -0.12)">
      <defs>
       <path id="DejaVuSans-43" d="M 4122 4306 
L 4122 3641 
Q 3803 3938 3442 4084 
Q 3081 4231 2675 4231 
Q 1875 4231 1450 3742 
Q 1025 3253 1025 2328 
Q 1025 1406 1450 917 
Q 1875 428 2675 428 
Q 3081 428 3442 575 
Q 3803 722 4122 1019 
L 4122 359 
Q 3791 134 3420 21 
Q 3050 -91 2638 -91 
Q 1578 -91 968 557 
Q 359 1206 359 2328 
Q 359 3453 968 4101 
Q 1578 4750 2638 4750 
Q 3056 4750 3426 4639 
Q 3797 4528 4122 4306 
z
" transform="scale(0.015625)"/>
      </defs>
      <use xlink:href="#DejaVuSans-43"/>
      <use xlink:href="#DejaVuSans-6f" transform="translate(69.824219 0)"/>
      <use xlink:href="#DejaVuSans-75" transform="translate(131.005859 0)"/>
      <use xlink:href="#DejaVuSans-6e" transform="translate(194.384766 0)"/>
      <use xlink:href="#DejaVuSans-74" transform="translate(257.763672 0)"/>
     </g>
    </g>
   </g>
   <g id="line2d_37">
    <path d="M 85.239886 454.682026 
L 85.291031 454.682026 
L 85.414426 454.126239 
L 85.483957 454.126239 
L 85.654943 257.933546 
L 87.805814 257.933546 
L 87.815641 261.268266 
L 90.417786 261.268266 
L 90.586269 260.712479 
L 90.90497 260.712479 
L 91.197744 260.156692 
L 93.011897 259.600906 
L 93.047714 260.156692 
L 93.113722 259.600906 
L 98.75257 259.600906 
L 102.141749 260.712479 
L 102.646023 259.600906 
L 103.01423 259.600906 
L 103.942244 259.045119 
L 104.330507 256.821972 
L 105.086515 256.821972 
L 106.188203 260.712479 
L 106.259681 256.821972 
L 107.10506 256.266186 
L 109.30519 256.266186 
L 109.885515 255.710399 
L 110.74752 255.710399 
L 111.030436 254.598826 
L 116.351478 254.598826 
L 116.743357 253.487252 
L 116.763444 252.375679 
L 118.455345 252.375679 
L 120.950134 251.264106 
L 122.25884 251.264106 
L 122.278649 250.708319 
L 125.284139 250.708319 
L 126.029702 247.929386 
L 128.389229 247.929386 
L 128.405607 247.373599 
L 141.620139 247.373599 
L 144.090268 246.817812 
L 144.174602 247.373599 
L 146.73645 246.817812 
L 155.651465 246.817812 
L 159.97246 246.262026 
L 160.055928 245.706239 
L 160.261185 245.150452 
L 162.698804 245.150452 
L 163.736275 244.594666 
L 168.014685 244.594666 
L 168.177111 247.373599 
L 168.185084 245.150452 
L 168.393091 245.150452 
L 169.425989 242.927306 
L 174.48312 242.927306 
L 178.358928 242.371519 
L 182.666634 242.371519 
L 182.855667 241.815732 
L 194.049213 241.815732 
L 194.52694 241.259946 
L 197.244879 241.259946 
L 197.264039 240.148372 
L 202.44268 240.148372 
L 202.547719 236.257866 
L 211.920777 236.257866 
L 211.923589 235.702079 
L 212.19504 235.702079 
L 213.376395 235.146292 
L 214.576941 235.146292 
L 214.958777 234.590506 
L 214.996973 235.146292 
L 215.871339 234.590506 
L 215.875325 234.034719 
L 215.895752 234.590506 
L 216.400829 234.034719 
L 221.001741 234.034719 
L 222.432204 233.478932 
L 224.129575 233.478932 
L 227.012535 232.923146 
L 229.741784 232.923146 
L 231.850411 231.811572 
L 236.465014 231.811572 
L 239.149361 230.699999 
L 239.905678 231.255786 
L 243.652311 231.255786 
L 247.878681 229.032639 
L 254.181785 229.032639 
L 256.136609 228.476852 
L 290.973881 228.476852 
L 291.255221 227.921066 
L 303.959578 227.921066 
L 304.17185 227.365279 
L 325.789553 227.365279 
L 330.549708 226.809492 
L 330.577242 227.365279 
L 333.98481 225.697919 
L 338.985605 225.697919 
L 341.716214 225.142132 
L 341.720695 224.586346 
L 347.418134 224.586346 
L 349.463008 225.142132 
L 350.198095 224.586346 
L 359.733053 224.586346 
L 360.138839 225.142132 
L 360.882176 224.586346 
L 361.137619 222.363199 
L 365.507193 222.363199 
L 365.510963 221.807412 
L 378.881771 221.807412 
L 379.6604 221.251626 
L 382.230036 221.251626 
L 382.48072 220.695839 
L 395.011124 220.695839 
L 395.028152 220.140052 
L 398.162198 220.140052 
L 398.166864 219.584266 
L 398.927353 219.584266 
L 398.967063 219.028479 
L 400.148016 219.028479 
L 400.333557 218.472692 
L 402.861165 218.472692 
L 403.24538 217.361119 
L 404.636844 215.137972 
L 408.001642 215.137972 
L 408.25007 212.359039 
L 409.378365 212.359039 
L 409.932113 211.247466 
L 412.785561 211.247466 
L 413.721856 210.691679 
L 416.402001 210.691679 
L 416.761216 210.135892 
L 424.040727 210.135892 
L 424.220088 209.580106 
L 424.893369 209.580106 
L 425.938658 209.024319 
L 437.712777 209.024319 
L 437.818557 208.468532 
L 438.196067 208.468532 
L 438.984152 207.356959 
L 440.089053 207.356959 
L 440.354725 206.801172 
L 440.610694 206.801172 
L 440.707821 206.245386 
L 443.66263 206.245386 
L 444.165667 205.689599 
L 446.73759 205.689599 
L 446.902488 205.133812 
L 448.311288 205.133812 
L 448.401555 204.578026 
L 452.779782 204.578026 
L 452.873912 204.022239 
L 455.427354 204.022239 
L 456.280212 201.799092 
L 457.225778 201.799092 
L 457.226767 201.243306 
L 461.06614 201.243306 
L 461.770015 200.687519 
L 464.709774 200.687519 
L 465.288801 200.131732 
L 465.506605 200.131732 
L 466.072375 199.575946 
L 467.517578 199.575946 
L 467.684608 199.020159 
L 471.309175 199.020159 
L 472.243462 198.464372 
L 472.31151 197.908586 
L 472.613987 197.908586 
L 473.568701 195.685439 
L 476.529536 195.685439 
L 476.550859 195.129652 
L 479.368707 195.129652 
L 479.637222 194.573866 
L 479.957561 194.573866 
L 480.279785 194.018079 
L 480.346999 194.573866 
L 480.588289 194.018079 
L 481.660309 194.018079 
L 481.670569 193.462292 
L 481.955246 193.462292 
L 482.079908 192.906506 
L 482.941295 192.350719 
L 488.934475 192.350719 
L 489.871203 191.794932 
L 490.498253 191.794932 
L 491.006976 191.239146 
L 491.521602 191.794932 
L 493.640519 191.794932 
L 493.731899 190.683359 
L 496.773761 190.683359 
L 497.954004 189.015999 
L 510.764697 189.015999 
L 511.50924 188.460212 
L 531.283247 188.460212 
L 531.404726 187.904426 
L 560.460566 187.904426 
L 560.588566 187.348639 
L 560.597744 186.792852 
L 560.60686 187.348639 
L 564.841697 187.348639 
L 565.797863 186.792852 
L 582.481676 186.792852 
L 585.91483 186.237066 
L 585.948205 185.681279 
L 586.232419 185.681279 
L 587.122669 185.125492 
L 613.899082 185.125492 
L 614.158975 184.569706 
L 637.970442 184.569706 
L 641.026798 184.013919 
L 642.89633 184.013919 
L 643.099207 183.458132 
L 644.398611 182.902346 
L 648.042585 182.902346 
L 649.577284 182.346559 
L 651.183182 182.346559 
L 651.308246 181.790772 
L 653.949638 181.790772 
L 654.265157 181.234986 
L 654.327612 180.679199 
L 659.03038 180.679199 
L 659.048613 180.123412 
L 663.052791 180.123412 
L 663.061629 179.567626 
L 664.418327 179.011839 
L 666.826835 179.011839 
L 668.560054 178.456052 
L 670.111161 178.456052 
L 672.397294 175.121332 
L 675.066314 175.121332 
L 675.078675 172.342399 
L 688.498587 172.342399 
L 688.499978 171.786612 
L 688.73209 171.230826 
L 690.017464 171.230826 
L 690.297042 170.675039 
L 694.513152 170.675039 
L 695.487798 170.119252 
L 695.648153 170.675039 
L 703.189134 170.675039 
L 703.190833 170.119252 
L 706.235539 170.119252 
L 707.481079 167.340319 
L 715.116839 167.340319 
L 715.198392 166.228746 
L 716.924812 164.561386 
L 718.657103 164.561386 
L 718.841624 164.005599 
L 726.123701 164.005599 
L 726.257603 163.449812 
L 733.569625 163.449812 
L 733.728898 162.894026 
L 735.744137 161.226666 
L 735.900289 160.670879 
L 755.752511 160.670879 
L 757.632055 157.891946 
L 762.116865 157.891946 
L 762.40899 157.336159 
L 765.778392 157.336159 
L 767.032492 156.224586 
L 784.792034 156.224586 
L 785.017192 155.668799 
L 787.616989 155.668799 
L 787.895486 155.113012 
L 805.021766 155.113012 
L 805.030542 153.445652 
L 805.562473 153.445652 
L 805.652401 152.889866 
L 808.705481 152.889866 
L 809.135278 152.334079 
L 809.137843 152.889866 
L 812.012614 152.889866 
L 812.012614 152.889866 
" clip-path="url(#p84eaf3ab2d)" style="fill: none; stroke: #1a7f37; stroke-width: 2; stroke-linecap: square"/>
   </g>
   <g id="line2d_38">
    <path d="M 85.239886 455.237812 
L 85.323479 453.570452 
L 85.414426 453.570452 
L 85.556548 372.981386 
L 86.744764 372.981386 
L 86.770691 370.758239 
L 88.070373 370.758239 
L 88.405237 369.090879 
L 88.860869 370.758239 
L 88.864237 369.090879 
L 89.241252 369.090879 
L 89.386959 367.979306 
L 93.110168 367.979306 
L 93.113722 367.423519 
L 93.134674 367.979306 
L 93.317928 367.423519 
L 93.371668 367.979306 
L 93.620653 367.423519 
L 94.821539 367.423519 
L 94.889896 366.867732 
L 95.076086 366.311946 
L 96.551234 366.311946 
L 98.22994 365.756159 
L 98.289026 365.200372 
L 98.742742 364.644586 
L 98.75257 364.088799 
L 102.141749 367.979306 
L 102.646023 366.311946 
L 103.01423 363.533012 
L 105.086515 363.533012 
L 106.188203 367.979306 
L 106.259681 363.533012 
L 126.39108 363.533012 
L 127.008828 362.977226 
L 128.405607 362.977226 
L 132.220443 362.421439 
L 133.149693 361.865652 
L 146.390029 361.865652 
L 146.73645 361.309866 
L 148.51627 360.754079 
L 149.647501 360.754079 
L 150.901416 360.198292 
L 150.935193 359.086719 
L 151.797135 358.530932 
L 152.376441 357.975146 
L 160.357108 357.975146 
L 161.947988 357.419359 
L 162.428929 357.419359 
L 162.698804 356.863572 
L 163.736275 356.863572 
L 164.766979 356.307786 
L 168.014685 356.307786 
L 168.177111 358.530932 
L 168.185084 356.307786 
L 169.425989 356.307786 
L 169.550558 355.751999 
L 171.307016 355.751999 
L 173.035135 355.196212 
L 173.07707 354.640426 
L 178.358928 354.640426 
L 180.586747 354.084639 
L 180.592371 353.528852 
L 188.005847 353.528852 
L 191.098297 352.973066 
L 193.418423 352.973066 
L 194.049213 352.417279 
L 197.590713 352.417279 
L 199.610648 351.861492 
L 199.721373 351.305706 
L 201.690721 351.305706 
L 201.919279 350.749919 
L 202.547719 350.194132 
L 203.950617 350.194132 
L 204.836355 349.638346 
L 206.460332 349.638346 
L 207.520239 349.082559 
L 209.78134 349.082559 
L 210.551656 347.970986 
L 216.400829 347.970986 
L 218.066617 347.415199 
L 220.019926 347.415199 
L 220.460415 346.859412 
L 220.595121 346.303626 
L 221.001741 345.747839 
L 227.728184 345.747839 
L 228.959725 345.192052 
L 229.741784 344.636266 
L 248.869211 344.636266 
L 253.162856 344.080479 
L 253.214155 343.524692 
L 256.136609 343.524692 
L 258.634488 342.968906 
L 263.049458 342.968906 
L 263.422517 342.413119 
L 270.941403 342.413119 
L 276.827226 341.857332 
L 276.883716 341.301546 
L 277.653198 341.301546 
L 279.212217 340.745759 
L 279.299177 339.078399 
L 279.367782 338.522612 
L 282.624296 337.966826 
L 282.819293 337.411039 
L 282.897014 336.299466 
L 283.191951 335.743679 
L 293.788979 335.743679 
L 296.799413 335.187892 
L 298.715762 334.632106 
L 300.217023 334.632106 
L 303.69783 334.076319 
L 303.959578 331.853172 
L 304.17185 331.853172 
L 304.672322 330.741599 
L 311.27469 330.185812 
L 311.484829 329.630026 
L 311.54682 329.074239 
L 312.941683 329.074239 
L 314.258857 328.518452 
L 314.41025 327.962666 
L 314.513064 326.851092 
L 315.384926 326.295306 
L 315.448926 325.739519 
L 317.039683 325.183732 
L 319.130695 324.627946 
L 319.279399 324.072159 
L 319.282551 323.516372 
L 319.703139 322.960586 
L 319.77743 322.404799 
L 322.81064 321.849012 
L 323.354407 321.293226 
L 336.12369 321.293226 
L 338.241279 320.737439 
L 338.433989 320.181652 
L 347.088401 320.181652 
L 347.418134 319.070079 
L 351.023974 319.070079 
L 352.112621 318.514292 
L 352.165804 317.402719 
L 352.445352 316.846932 
L 354.296403 316.291146 
L 354.338091 315.735359 
L 354.561519 315.179572 
L 354.790478 312.956426 
L 355.04552 312.956426 
L 355.054914 312.400639 
L 356.600212 311.844852 
L 357.207732 311.289066 
L 357.354737 310.733279 
L 360.138839 310.177492 
L 362.190604 310.177492 
L 362.90307 309.621706 
L 370.617199 309.621706 
L 373.172836 309.065919 
L 373.183003 308.510132 
L 373.642622 307.954346 
L 379.6604 307.954346 
L 381.348871 307.398559 
L 382.044433 306.842772 
L 382.230036 305.731199 
L 387.097795 305.731199 
L 387.429444 305.175412 
L 390.102481 305.175412 
L 391.3822 304.619626 
L 395.028152 304.619626 
L 397.232299 304.063839 
L 401.809602 304.063839 
L 402.372189 303.508052 
L 404.636844 303.508052 
L 405.253264 302.952266 
L 405.520666 302.396479 
L 405.652374 301.840692 
L 407.516528 301.840692 
L 407.569527 300.729119 
L 408.25007 300.729119 
L 408.696894 299.061759 
L 410.318461 299.061759 
L 410.519855 298.505972 
L 410.676193 298.505972 
L 411.452349 297.950186 
L 412.74035 297.950186 
L 412.785561 297.394399 
L 413.721856 297.394399 
L 413.94927 296.838612 
L 414.829292 296.838612 
L 416.176688 295.727039 
L 416.761216 295.727039 
L 419.021915 294.615466 
L 419.025315 294.059679 
L 419.456935 293.503892 
L 420.55819 292.948106 
L 420.729423 292.392319 
L 421.827402 291.836532 
L 423.622241 291.836532 
L 424.220088 290.724959 
L 426.409062 290.724959 
L 426.471207 290.169172 
L 427.094827 290.169172 
L 427.142696 289.613386 
L 427.484914 289.057599 
L 428.675664 289.057599 
L 428.76624 288.501812 
L 428.97023 288.501812 
L 429.080739 287.946026 
L 429.103143 287.946026 
L 429.200487 287.390239 
L 430.780366 287.390239 
L 431.111954 286.834452 
L 431.390389 286.834452 
L 431.556801 286.278666 
L 431.981777 286.278666 
L 432.299953 285.722879 
L 432.367043 285.167092 
L 432.45799 285.167092 
L 434.05743 284.611306 
L 435.254329 284.611306 
L 435.344937 284.055519 
L 440.066401 284.055519 
L 440.089053 283.499732 
L 440.354725 283.499732 
L 440.97989 282.388159 
L 442.574509 282.388159 
L 442.72238 280.720799 
L 442.76552 279.609226 
L 443.044233 279.053439 
L 444.165667 279.053439 
L 444.69457 278.497652 
L 445.207218 278.497652 
L 445.372517 277.941866 
L 446.167185 277.386079 
L 446.902488 277.386079 
L 448.380727 276.830292 
L 448.47906 276.274506 
L 448.853293 276.274506 
L 448.928171 275.718719 
L 450.242254 275.718719 
L 450.27875 275.162932 
L 456.651572 275.162932 
L 456.769343 274.607146 
L 456.939617 274.607146 
L 457.023673 273.495572 
L 457.844268 273.495572 
L 458.0189 272.939786 
L 458.587266 272.383999 
L 458.73013 271.828212 
L 458.991166 271.828212 
L 459.21206 271.272426 
L 459.284064 270.716639 
L 462.486251 270.716639 
L 463.294515 270.160852 
L 463.454159 269.049279 
L 463.650887 268.493492 
L 463.979292 268.493492 
L 464.17945 267.937706 
L 468.774954 267.937706 
L 469.078328 266.270346 
L 469.706243 266.270346 
L 469.798427 265.714559 
L 472.252084 265.714559 
L 472.31151 264.602986 
L 475.25847 264.602986 
L 475.289002 264.047199 
L 476.708618 264.047199 
L 476.718167 263.491412 
L 477.409464 263.491412 
L 477.524114 262.935626 
L 479.532554 262.935626 
L 479.637222 262.379839 
L 479.770568 262.379839 
L 479.957561 261.824052 
L 480.337141 261.824052 
L 480.346999 261.268266 
L 480.588289 261.268266 
L 481.048587 260.712479 
L 484.76645 260.712479 
L 485.036664 260.156692 
L 486.139804 260.156692 
L 486.141844 259.600906 
L 494.576042 259.600906 
L 496.007555 259.045119 
L 496.049058 258.489332 
L 496.773761 257.933546 
L 497.875727 257.933546 
L 497.954004 256.821972 
L 498.153327 256.821972 
L 498.236302 256.266186 
L 501.162927 256.266186 
L 501.691428 255.710399 
L 506.753721 255.710399 
L 506.769296 255.154612 
L 508.422692 255.154612 
L 509.129286 254.598826 
L 516.911371 254.598826 
L 517.008499 253.487252 
L 520.069058 253.487252 
L 520.677814 252.931466 
L 521.32971 252.931466 
L 522.126633 252.375679 
L 527.394306 252.375679 
L 527.898734 251.819892 
L 528.335824 251.819892 
L 528.550135 251.264106 
L 530.228223 250.708319 
L 531.049683 250.708319 
L 531.317549 250.152532 
L 531.404726 250.152532 
L 533.762276 249.596746 
L 538.102986 249.596746 
L 538.44267 249.040959 
L 555.196632 249.040959 
L 555.808787 248.485172 
L 559.683173 248.485172 
L 559.823194 247.929386 
L 560.074867 247.929386 
L 560.150734 247.373599 
L 581.787535 247.373599 
L 582.481676 246.817812 
L 587.647802 246.817812 
L 588.770039 246.262026 
L 588.845257 245.706239 
L 591.533158 245.706239 
L 591.644687 245.150452 
L 600.351077 245.150452 
L 600.368908 244.594666 
L 607.718538 244.594666 
L 607.797649 244.038879 
L 608.275006 243.483092 
L 610.07856 243.483092 
L 610.082701 242.927306 
L 610.449209 242.371519 
L 613.157135 242.371519 
L 614.051773 241.815732 
L 619.826037 241.815732 
L 619.866705 240.704159 
L 656.468594 240.704159 
L 659.048613 240.148372 
L 662.294589 240.148372 
L 662.40244 239.592586 
L 676.793382 239.592586 
L 676.817549 239.036799 
L 691.845956 239.036799 
L 692.000872 238.481012 
L 692.894985 238.481012 
L 692.918286 237.925226 
L 693.120359 237.369439 
L 693.906436 236.257866 
L 694.021982 235.146292 
L 694.088763 234.034719 
L 694.290095 233.478932 
L 694.336666 232.923146 
L 694.513152 232.367359 
L 695.648153 232.367359 
L 695.789255 231.811572 
L 695.795899 231.255786 
L 696.221525 230.699999 
L 703.190833 230.699999 
L 703.94202 229.588426 
L 725.924316 229.588426 
L 726.063997 229.032639 
L 739.481654 229.032639 
L 739.799428 227.921066 
L 741.238297 227.921066 
L 741.431038 227.365279 
L 749.979792 227.365279 
L 750.193424 226.809492 
L 753.553617 226.809492 
L 754.451036 226.253706 
L 754.535432 225.697919 
L 759.57702 225.697919 
L 759.734068 224.586346 
L 760.384481 224.030559 
L 760.992866 224.030559 
L 762.116865 223.474772 
L 765.34807 223.474772 
L 765.397329 222.918986 
L 765.778392 222.363199 
L 768.414932 222.363199 
L 771.20883 221.807412 
L 785.017192 221.807412 
L 786.649358 221.251626 
L 787.253633 220.695839 
L 787.616989 219.584266 
L 789.5601 219.584266 
L 797.4772 218.472692 
L 799.463791 218.472692 
L 799.682645 217.361119 
L 799.951408 217.361119 
L 800.087751 216.805332 
L 811.213867 216.805332 
L 811.226908 216.249546 
L 812.012614 216.249546 
L 812.012614 216.249546 
" clip-path="url(#p84eaf3ab2d)" style="fill: none; stroke: #0969da; stroke-width: 2; stroke-linecap: square"/>
   </g>
   <g id="line2d_39">
    <path d="M 85.239886 455.237812 
L 87.805814 455.237812 
L 87.815641 454.126239 
L 89.933971 454.126239 
L 90.417786 453.570452 
L 221.001741 453.570452 
L 222.432204 453.014666 
L 258.634488 453.014666 
L 259.639171 452.458879 
L 293.788979 452.458879 
L 296.799413 451.903092 
L 304.672322 451.903092 
L 311.54682 450.235732 
L 312.941683 449.124159 
L 315.448926 449.124159 
L 317.039683 448.568372 
L 319.282551 448.012586 
L 319.77743 448.012586 
L 322.81064 447.456799 
L 323.354407 446.901012 
L 325.789553 446.345226 
L 330.549708 445.789439 
L 330.577242 446.345226 
L 338.433989 446.345226 
L 338.985605 445.789439 
L 350.198095 445.789439 
L 351.023974 445.233652 
L 354.790478 445.233652 
L 355.054914 444.677866 
L 359.733053 444.677866 
L 360.138839 444.122079 
L 377.276491 444.122079 
L 378.881771 443.566292 
L 379.556443 443.566292 
L 379.6604 443.010506 
L 384.234303 443.010506 
L 384.238661 442.454719 
L 395.011124 442.454719 
L 395.028152 441.898932 
L 398.166864 441.898932 
L 398.967063 441.343146 
L 400.145946 440.787359 
L 400.148016 440.231572 
L 400.333557 440.231572 
L 401.809602 438.564212 
L 402.803933 438.564212 
L 402.861165 436.896852 
L 403.24538 436.896852 
L 404.636844 437.452639 
L 405.637541 437.452639 
L 405.652374 435.229492 
L 409.378365 435.229492 
L 409.932113 434.673706 
L 410.519855 434.673706 
L 410.676193 434.117919 
L 424.040727 434.117919 
L 424.220088 433.562132 
L 424.893369 433.562132 
L 425.938658 433.006346 
L 430.550325 433.006346 
L 430.780366 432.450559 
L 432.367043 432.450559 
L 432.45799 431.894772 
L 437.712777 431.894772 
L 437.818557 431.338986 
L 438.196067 431.338986 
L 438.578953 430.783199 
L 438.961469 430.783199 
L 438.984152 430.227412 
L 440.610694 430.227412 
L 440.707821 429.671626 
L 448.258908 429.671626 
L 448.380727 429.115839 
L 448.401555 429.115839 
L 448.47906 428.560052 
L 448.928171 428.560052 
L 449.869658 428.004266 
L 453.550468 428.004266 
L 453.553713 427.448479 
L 454.257032 427.448479 
L 454.283794 426.892692 
L 456.280212 426.892692 
L 456.750028 426.336906 
L 459.360085 426.336906 
L 460.13173 425.781119 
L 461.632404 425.781119 
L 461.648319 424.669546 
L 461.770015 424.669546 
L 461.923169 424.113759 
L 464.337271 424.113759 
L 464.709774 423.557972 
L 465.288801 423.557972 
L 465.506605 423.002186 
L 466.919917 423.002186 
L 467.117262 422.446399 
L 467.119796 421.890612 
L 467.517578 421.890612 
L 467.684608 421.334826 
L 482.908971 421.334826 
L 482.941295 420.223252 
L 485.036664 420.223252 
L 485.639734 419.667466 
L 486.141844 419.667466 
L 488.497292 419.111679 
L 488.934475 419.111679 
L 489.871203 418.555892 
L 490.498253 418.555892 
L 491.006976 418.000106 
L 491.521602 418.555892 
L 493.178274 418.555892 
L 493.628776 418.000106 
L 493.731899 416.888532 
L 494.570386 416.332746 
L 494.576042 415.221172 
L 498.236302 415.221172 
L 499.036779 414.665386 
L 499.117899 412.998026 
L 499.917974 412.442239 
L 500.360441 411.886452 
L 504.144746 411.886452 
L 504.305317 410.219092 
L 504.498336 410.219092 
L 504.641447 409.663306 
L 505.566309 409.107519 
L 507.022112 409.107519 
L 507.322024 408.551732 
L 507.390258 407.995946 
L 507.543289 407.995946 
L 508.422692 406.884372 
L 509.36489 406.884372 
L 509.674258 406.328586 
L 510.761113 406.328586 
L 510.764697 405.217012 
L 511.50924 405.217012 
L 512.497669 404.661226 
L 515.116347 403.549652 
L 515.467682 402.993866 
L 520.677814 402.993866 
L 521.32971 401.882292 
L 531.283247 401.882292 
L 531.404726 400.770719 
L 536.249524 400.770719 
L 536.989772 400.214932 
L 539.236133 400.214932 
L 539.362216 399.659146 
L 553.182074 399.659146 
L 553.402659 399.103359 
L 554.771532 399.103359 
L 555.196632 398.547572 
L 557.751373 398.547572 
L 558.231851 397.991786 
L 558.235003 397.435999 
L 558.784518 396.880212 
L 560.460566 396.880212 
L 560.588566 396.324426 
L 560.597744 395.212852 
L 560.60686 395.768639 
L 561.733146 395.212852 
L 565.797863 395.212852 
L 566.599638 394.101279 
L 573.933663 394.101279 
L 574.500699 393.545492 
L 576.279871 393.545492 
L 576.422302 392.989706 
L 576.441894 392.433919 
L 582.481676 392.433919 
L 586.232419 391.322346 
L 587.122669 391.322346 
L 587.647802 390.766559 
L 595.417031 390.766559 
L 596.371992 390.210772 
L 597.555294 390.210772 
L 598.701327 389.654986 
L 608.275006 389.654986 
L 608.537742 389.099199 
L 608.539164 388.543412 
L 613.899082 388.543412 
L 614.158975 387.987626 
L 637.970442 387.987626 
L 641.026798 387.431839 
L 648.042585 387.431839 
L 649.577284 386.876052 
L 650.927616 386.876052 
L 651.183182 386.320266 
L 654.327612 386.320266 
L 654.85877 385.764479 
L 655.559307 385.764479 
L 656.468594 385.208692 
L 658.648142 385.208692 
L 659.048613 384.652906 
L 659.31688 384.652906 
L 660.293535 384.097119 
L 669.72914 384.097119 
L 669.755531 382.429759 
L 677.988613 382.429759 
L 681.479865 381.873972 
L 681.482708 381.318186 
L 685.576597 381.318186 
L 685.748448 380.762399 
L 685.750982 380.206612 
L 687.66594 380.206612 
L 688.499978 379.650826 
L 689.09662 379.650826 
L 690.017464 379.095039 
L 691.005645 379.095039 
L 691.176414 377.983466 
L 692.000872 377.983466 
L 692.165183 377.427679 
L 694.020375 377.427679 
L 694.088763 376.871892 
L 697.012916 376.871892 
L 699.131339 376.316106 
L 699.82619 376.316106 
L 700.508309 375.760319 
L 701.917388 375.204532 
L 701.923414 374.648746 
L 702.311986 372.981386 
L 702.667061 372.425599 
L 703.190833 371.869812 
L 704.594504 371.869812 
L 705.445754 370.202452 
L 707.481079 370.202452 
L 708.03217 368.535092 
L 710.271763 368.535092 
L 710.508912 367.979306 
L 712.132147 367.979306 
L 712.484903 366.867732 
L 713.096131 366.311946 
L 715.198392 366.311946 
L 718.841624 365.200372 
L 721.17748 364.644586 
L 721.336166 364.088799 
L 723.545567 364.088799 
L 723.686917 363.533012 
L 726.112545 363.533012 
L 726.123701 362.977226 
L 726.578406 362.977226 
L 726.678068 362.421439 
L 733.569625 362.421439 
L 733.728898 361.865652 
L 735.900289 361.309866 
L 739.471425 361.309866 
L 739.481654 360.754079 
L 752.583112 360.754079 
L 753.553617 358.530932 
L 758.930161 358.530932 
L 758.938103 357.419359 
L 765.778392 357.419359 
L 767.029835 355.751999 
L 767.032492 355.196212 
L 771.867741 355.196212 
L 773.494623 354.084639 
L 773.56743 353.528852 
L 803.96532 353.528852 
L 805.177362 352.973066 
L 808.372286 352.973066 
L 808.705481 351.861492 
L 812.012614 351.861492 
L 812.012614 351.861492 
" clip-path="url(#p84eaf3ab2d)" style="fill: none; stroke: #bf8700; stroke-width: 2; stroke-linecap: square"/>
   </g>
   <g id="line2d_40">
    <path d="M 85.239886 454.682026 
L 85.459359 454.682026 
L 85.556548 432.450559 
L 86.064468 426.892692 
L 86.354708 425.781119 
L 86.50196 426.336906 
L 86.770691 425.781119 
L 87.22518 425.225332 
L 87.815641 423.002186 
L 88.070373 421.334826 
L 88.405237 421.334826 
L 88.860869 420.779039 
L 88.864237 420.223252 
L 89.231085 419.667466 
L 89.33223 419.111679 
L 89.386959 419.111679 
L 89.933971 418.555892 
L 90.3248 418.000106 
L 90.417786 411.886452 
L 90.482095 412.442239 
L 90.776909 405.217012 
L 90.90497 402.993866 
L 93.113722 402.993866 
L 93.317928 399.659146 
L 93.371668 402.438079 
L 93.620653 397.991786 
L 93.743955 397.435999 
L 94.662605 396.880212 
L 94.821539 395.768639 
L 95.076086 395.768639 
L 95.549178 395.212852 
L 95.801901 394.657066 
L 95.916366 393.545492 
L 95.98599 392.989706 
L 96.222088 392.433919 
L 96.227928 391.878132 
L 96.465386 392.433919 
L 96.532971 391.878132 
L 96.541284 392.433919 
L 96.551234 390.766559 
L 98.75257 390.766559 
L 102.141749 402.993866 
L 102.646023 390.210772 
L 103.01423 389.654986 
L 104.330507 389.654986 
L 104.571272 389.099199 
L 105.086515 388.543412 
L 106.188203 402.993866 
L 106.259681 387.987626 
L 107.10506 387.431839 
L 108.912909 386.876052 
L 109.041836 387.431839 
L 109.30519 385.764479 
L 109.885515 385.764479 
L 110.061847 385.208692 
L 110.394887 384.652906 
L 110.422514 383.541332 
L 110.72972 382.429759 
L 110.74752 382.985546 
L 110.930249 382.985546 
L 111.030436 381.873972 
L 111.338846 379.650826 
L 111.379391 378.539252 
L 111.775071 376.871892 
L 111.968461 377.983466 
L 113.335852 374.648746 
L 113.695901 375.760319 
L 115.177632 373.537172 
L 116.351478 377.427679 
L 116.763444 373.537172 
L 118.455345 371.869812 
L 120.950134 371.869812 
L 121.279621 371.314026 
L 121.541832 369.646666 
L 122.278649 371.314026 
L 125.284139 371.869812 
L 126.029702 369.646666 
L 126.39108 367.979306 
L 127.008828 369.646666 
L 128.405607 367.979306 
L 133.149693 367.979306 
L 138.138127 367.423519 
L 138.470797 366.867732 
L 141.620139 366.311946 
L 143.702622 366.311946 
L 144.090268 365.756159 
L 144.174602 366.311946 
L 146.390029 364.644586 
L 148.468031 364.644586 
L 148.51627 364.088799 
L 149.647501 363.533012 
L 152.376441 363.533012 
L 153.580231 359.642506 
L 154.476198 359.086719 
L 155.629092 358.530932 
L 155.651465 357.975146 
L 159.97246 357.975146 
L 160.055928 354.084639 
L 160.215851 354.084639 
L 160.357108 352.973066 
L 161.947988 352.973066 
L 162.428929 352.417279 
L 164.766979 352.417279 
L 168.014685 351.861492 
L 168.177111 363.533012 
L 168.185084 352.417279 
L 168.393091 351.861492 
L 169.550558 351.861492 
L 171.307016 351.305706 
L 173.07707 351.305706 
L 174.48312 350.749919 
L 178.358928 349.638346 
L 180.592371 349.638346 
L 182.387334 349.082559 
L 182.666634 346.303626 
L 182.855667 346.303626 
L 183.190159 345.747839 
L 184.934905 345.192052 
L 185.338218 342.968906 
L 187.7496 341.857332 
L 187.778649 342.413119 
L 188.005847 341.857332 
L 191.098297 340.745759 
L 193.418423 340.189972 
L 194.52694 340.189972 
L 195.509466 339.634186 
L 196.360933 338.522612 
L 197.264039 337.966826 
L 197.590713 337.411039 
L 199.721373 337.966826 
L 201.690721 336.855252 
L 201.919279 337.411039 
L 202.44268 337.411039 
L 202.547719 336.855252 
L 203.950617 336.299466 
L 204.836355 336.855252 
L 206.460332 335.743679 
L 207.520239 335.743679 
L 209.78134 335.187892 
L 210.156285 335.743679 
L 210.551656 334.076319 
L 211.923589 334.076319 
L 212.19504 333.520532 
L 213.376395 331.297386 
L 213.710177 330.185812 
L 214.576941 330.741599 
L 214.958777 329.630026 
L 214.996973 329.074239 
L 218.066617 329.074239 
L 219.62131 328.518452 
L 220.019926 327.962666 
L 222.432204 327.962666 
L 224.129575 327.406879 
L 227.012535 327.406879 
L 227.728184 326.851092 
L 235.655822 326.851092 
L 236.111114 326.295306 
L 236.156727 325.739519 
L 236.465014 325.183732 
L 239.905678 325.183732 
L 240.120113 324.627946 
L 240.995498 324.072159 
L 241.147108 323.516372 
L 242.597442 322.960586 
L 243.652311 322.404799 
L 247.878681 322.404799 
L 248.869211 321.293226 
L 253.214155 321.293226 
L 254.181785 320.737439 
L 258.231113 320.737439 
L 258.634488 320.181652 
L 259.639171 319.625866 
L 259.938249 319.070079 
L 260.039796 318.514292 
L 263.049458 317.958506 
L 263.422517 318.514292 
L 267.384544 317.402719 
L 270.517137 316.291146 
L 270.941403 315.735359 
L 276.883716 315.735359 
L 277.653198 315.179572 
L 283.191951 315.179572 
L 288.409345 314.623786 
L 289.065598 314.067999 
L 291.255221 313.512212 
L 293.451025 312.956426 
L 293.788979 312.400639 
L 298.715762 312.400639 
L 300.217023 311.844852 
L 311.54682 311.844852 
L 312.941683 311.289066 
L 322.300402 311.289066 
L 322.81064 310.733279 
L 323.354407 311.289066 
L 325.789553 310.733279 
L 333.98481 310.733279 
L 335.083036 310.177492 
L 352.419764 310.177492 
L 352.445352 309.621706 
L 363.152518 309.621706 
L 365.504937 309.065919 
L 365.510963 308.510132 
L 377.271268 308.510132 
L 377.276491 307.398559 
L 384.238661 307.398559 
L 387.429444 306.842772 
L 391.3822 306.842772 
L 395.028152 305.731199 
L 402.372189 305.731199 
L 402.803933 305.175412 
L 402.861165 304.619626 
L 405.637541 304.619626 
L 405.652374 304.063839 
L 405.940667 304.063839 
L 406.400224 303.508052 
L 410.519855 303.508052 
L 410.676193 302.952266 
L 416.176688 302.952266 
L 416.402001 302.396479 
L 429.835109 302.396479 
L 430.549305 300.729119 
L 430.550325 300.173332 
L 432.453447 300.173332 
L 432.45799 299.617546 
L 438.071528 299.617546 
L 438.196067 299.061759 
L 440.88335 299.061759 
L 440.97989 298.505972 
L 450.963002 298.505972 
L 451.15497 297.950186 
L 453.472191 297.950186 
L 453.553713 297.394399 
L 454.283794 296.838612 
L 472.613987 296.838612 
L 473.568701 295.727039 
L 474.997773 295.727039 
L 475.289002 295.171252 
L 476.718167 295.171252 
L 476.929975 294.615466 
L 480.30664 294.615466 
L 480.346999 294.059679 
L 499.035203 294.059679 
L 499.117899 292.948106 
L 522.477412 292.948106 
L 523.084097 292.392319 
L 562.96784 292.392319 
L 564.841697 291.836532 
L 581.696866 291.836532 
L 581.787535 291.280746 
L 589.333553 291.280746 
L 589.70034 290.724959 
L 739.050342 290.724959 
L 739.481654 290.169172 
L 758.444306 290.169172 
L 758.938103 289.613386 
L 765.778392 289.613386 
L 767.017752 289.057599 
L 767.032492 285.167092 
L 773.491008 285.167092 
L 773.56743 282.388159 
L 812.012614 282.388159 
L 812.012614 282.388159 
" clip-path="url(#p84eaf3ab2d)" style="fill: none; stroke: #cf222e; stroke-width: 2; stroke-linecap: square"/>
   </g>
   <g id="line2d_41">
    <path d="M 85.239886 454.682026 
L 85.257346 454.126239 
L 85.395006 -1 
M 85.518734 -1 
L 85.654943 101.201706 
L 87.805814 101.201706 
L 87.815641 97.866986 
L 90.417786 97.866986 
L 90.586269 98.422772 
L 90.90497 98.422772 
L 91.197744 98.978559 
L 93.011897 99.534346 
L 93.047714 98.978559 
L 93.113722 99.534346 
L 98.75257 99.534346 
L 102.141749 98.422772 
L 102.646023 99.534346 
L 103.01423 98.978559 
L 103.942244 99.534346 
L 104.330507 96.755412 
L 105.086515 96.755412 
L 106.188203 98.422772 
L 106.259681 95.643839 
L 107.10506 96.199626 
L 109.30519 96.199626 
L 109.885515 95.088052 
L 110.74752 95.088052 
L 111.030436 91.197546 
L 116.351478 91.197546 
L 116.763444 86.751252 
L 118.455345 86.751252 
L 120.950134 82.860746 
L 122.25884 82.860746 
L 122.278649 83.416532 
L 125.284139 83.416532 
L 126.029702 80.081812 
L 128.389229 80.081812 
L 128.405607 80.637599 
L 141.620139 80.637599 
L 144.090268 81.193386 
L 144.174602 80.637599 
L 146.73645 81.193386 
L 155.651465 81.193386 
L 159.97246 81.749172 
L 160.055928 74.523946 
L 160.261185 75.079732 
L 162.698804 75.079732 
L 163.736275 75.635519 
L 168.014685 75.635519 
L 168.177111 80.637599 
L 168.185084 71.745012 
L 168.393091 71.745012 
L 169.425989 73.968159 
L 174.48312 73.968159 
L 178.358928 70.077652 
L 182.666634 70.077652 
L 182.855667 68.410292 
L 194.049213 68.410292 
L 194.52694 68.966079 
L 197.244879 68.966079 
L 197.264039 70.077652 
L 202.44268 70.077652 
L 202.547719 73.412372 
L 210.551656 73.412372 
L 210.742821 68.410292 
L 211.920777 67.298719 
L 211.923589 67.854506 
L 212.19504 67.854506 
L 213.162177 65.075572 
L 214.576941 65.075572 
L 214.958777 65.631359 
L 214.996973 65.075572 
L 215.871339 65.631359 
L 215.875325 66.187146 
L 215.895752 65.631359 
L 216.400829 63.408212 
L 221.001741 63.408212 
L 222.432204 63.963999 
L 224.129575 63.963999 
L 227.012535 64.519786 
L 229.741784 64.519786 
L 231.850411 65.631359 
L 236.156727 65.075572 
L 236.465014 65.075572 
L 239.149361 66.187146 
L 239.905678 65.631359 
L 243.652311 65.631359 
L 247.876394 67.854506 
L 247.878681 67.298719 
L 254.181785 67.298719 
L 256.136609 67.854506 
L 290.973881 67.854506 
L 291.255221 68.410292 
L 293.435357 68.410292 
L 293.451025 66.742932 
L 303.959578 66.742932 
L 304.17185 67.298719 
L 325.789553 67.298719 
L 330.549708 67.854506 
L 330.577242 67.298719 
L 333.98481 68.966079 
L 335.083036 68.966079 
L 336.12369 68.410292 
L 338.985605 68.410292 
L 341.716214 68.966079 
L 341.720695 69.521866 
L 349.463008 67.854506 
L 350.198095 68.410292 
L 359.733053 68.410292 
L 360.138839 67.854506 
L 360.882176 68.410292 
L 361.137619 70.633439 
L 365.507193 70.633439 
L 365.510963 71.189226 
L 378.881771 71.189226 
L 379.6604 71.745012 
L 382.230036 71.745012 
L 382.48072 72.300799 
L 395.011124 72.300799 
L 395.028152 72.856586 
L 397.232299 72.856586 
L 398.162198 73.412372 
L 398.166864 73.968159 
L 398.927353 73.412372 
L 398.967063 73.968159 
L 400.148016 73.968159 
L 400.333557 74.523946 
L 402.803933 74.523946 
L 402.861165 73.412372 
L 403.24538 74.523946 
L 404.636844 72.856586 
L 408.001642 72.856586 
L 408.25007 71.189226 
L 409.378365 71.189226 
L 409.932113 72.300799 
L 412.785561 72.300799 
L 413.721856 72.856586 
L 413.94927 72.856586 
L 414.829292 70.077652 
L 416.402001 70.077652 
L 416.761216 70.633439 
L 424.040727 70.633439 
L 424.220088 71.189226 
L 424.893369 71.189226 
L 425.938658 71.745012 
L 437.712777 71.745012 
L 437.818557 72.300799 
L 438.196067 72.300799 
L 438.984152 73.412372 
L 440.089053 73.412372 
L 440.354725 72.856586 
L 440.610694 72.856586 
L 440.707821 73.412372 
L 443.66263 73.412372 
L 444.165667 73.968159 
L 446.73759 73.968159 
L 446.902488 74.523946 
L 448.311288 74.523946 
L 448.401555 75.079732 
L 452.779782 75.079732 
L 452.873912 75.635519 
L 455.427354 75.635519 
L 456.280212 77.858666 
L 457.225778 77.858666 
L 457.226767 78.414452 
L 461.06614 78.414452 
L 461.770015 78.970239 
L 464.709774 78.970239 
L 465.288801 79.526026 
L 467.517578 79.526026 
L 467.684608 80.081812 
L 471.309175 80.081812 
L 472.243462 80.637599 
L 472.31151 81.193386 
L 472.613987 81.193386 
L 473.568701 60.629279 
L 476.529536 60.629279 
L 476.550859 61.185066 
L 476.718167 61.185066 
L 476.929975 60.629279 
L 479.368707 60.629279 
L 479.637222 61.185066 
L 479.957561 61.185066 
L 480.279785 61.740852 
L 480.346999 61.185066 
L 481.660309 61.185066 
L 481.670569 61.740852 
L 481.955246 61.740852 
L 482.079908 62.296639 
L 482.941295 62.852426 
L 488.934475 62.852426 
L 489.871203 63.408212 
L 490.498253 63.408212 
L 491.006976 63.963999 
L 491.521602 63.408212 
L 493.640519 63.408212 
L 493.731899 64.519786 
L 496.773761 64.519786 
L 497.954004 66.187146 
L 510.764697 66.187146 
L 511.50924 66.742932 
L 531.283247 66.742932 
L 531.404726 67.298719 
L 560.460566 67.298719 
L 560.588566 67.854506 
L 560.597744 68.410292 
L 560.60686 67.854506 
L 564.841697 67.854506 
L 565.797863 68.410292 
L 582.481676 68.410292 
L 586.232419 68.966079 
L 587.115283 69.521866 
L 587.122669 67.854506 
L 613.899082 67.854506 
L 614.158975 68.410292 
L 637.970442 68.410292 
L 641.026798 68.966079 
L 642.89633 68.966079 
L 643.099207 69.521866 
L 644.398611 70.077652 
L 648.042585 70.077652 
L 649.577284 70.633439 
L 651.183182 70.633439 
L 651.308246 71.189226 
L 653.949638 71.189226 
L 654.265157 71.745012 
L 654.327612 72.300799 
L 659.03038 72.300799 
L 659.048613 72.856586 
L 662.40244 72.856586 
L 663.052791 72.300799 
L 663.061629 72.856586 
L 664.418327 73.412372 
L 666.826835 73.412372 
L 668.560054 73.968159 
L 670.111161 73.968159 
L 672.397294 61.740852 
L 675.066314 61.740852 
L 675.078675 64.519786 
L 688.498587 64.519786 
L 688.499978 65.075572 
L 688.73209 65.631359 
L 690.017464 65.631359 
L 690.297042 66.187146 
L 694.513152 66.187146 
L 695.487798 66.742932 
L 695.648153 66.187146 
L 703.189134 66.187146 
L 703.190833 66.742932 
L 715.116839 66.742932 
L 715.198392 67.854506 
L 716.924812 69.521866 
L 718.657103 69.521866 
L 718.841624 70.077652 
L 726.123701 70.077652 
L 726.257603 70.633439 
L 733.569625 70.633439 
L 733.728898 71.189226 
L 735.744137 72.856586 
L 735.900289 73.412372 
L 755.752511 73.412372 
L 757.632055 76.191306 
L 762.116865 76.191306 
L 762.40899 76.747092 
L 765.778392 76.747092 
L 767.032492 77.858666 
L 784.792034 77.858666 
L 785.017192 78.414452 
L 787.616989 78.414452 
L 787.895486 78.970239 
L 805.021766 78.970239 
L 805.030542 80.637599 
L 805.562473 80.637599 
L 805.652401 81.193386 
L 808.705481 81.193386 
L 809.135278 81.749172 
L 809.137843 81.193386 
L 812.012614 81.193386 
L 812.012614 81.193386 
" clip-path="url(#p84eaf3ab2d)" style="fill: none; stroke: #9467bd; stroke-width: 2; stroke-linecap: square"/>
   </g>
   <g id="patch_3">
    <path d="M 48.90125 455.237812 
L 48.90125 38.397812 
" style="fill: none; stroke: #d0d7de; stroke-width: 0.8; stroke-linejoin: miter; stroke-linecap: square"/>
   </g>
   <g id="patch_4">
    <path d="M 848.35125 455.237812 
L 848.35125 38.397812 
" style="fill: none; stroke: #d0d7de; stroke-width: 0.8; stroke-linejoin: miter; stroke-linecap: square"/>
   </g>
   <g id="patch_5">
    <path d="M 48.90125 455.237812 
L 848.35125 455.237812 
" style="fill: none; stroke: #d0d7de; stroke-width: 0.8; stroke-linejoin: miter; stroke-linecap: square"/>
   </g>
   <g id="patch_6">
    <path d="M 48.90125 38.397812 
L 848.35125 38.397812 
" style="fill: none; stroke: #d0d7de; stroke-width: 0.8; stroke-linejoin: miter; stroke-linecap: square"/>
   </g>
   <g id="text_21">
    <!-- 544 -->
    <g style="fill: #1a7f37" transform="translate(817.012614 155.373303) scale(0.09 -0.09)">
     <defs>
      <path id="DejaVuSans-Bold-35" d="M 678 4666 
L 3669 4666 
L 3669 3781 
L 1638 3781 
L 1638 3059 
Q 1775 3097 1914 3117 
Q 2053 3138 2203 3138 
Q 3056 3138 3531 2711 
Q 4006 2284 4006 1522 
Q 4006 766 3489 337 
Q 2972 -91 2053 -91 
Q 1656 -91 1267 -14 
Q 878 63 494 219 
L 494 1166 
Q 875 947 1217 837 
Q 1559 728 1863 728 
Q 2300 728 2551 942 
Q 2803 1156 2803 1522 
Q 2803 1891 2551 2103 
Q 2300 2316 1863 2316 
Q 1603 2316 1309 2248 
Q 1016 2181 678 2041 
L 678 4666 
z
" transform="scale(0.015625)"/>
      <path id="DejaVuSans-Bold-34" d="M 2356 3675 
L 1038 1722 
L 2356 1722 
L 2356 3675 
z
M 2156 4666 
L 3494 4666 
L 3494 1722 
L 4159 1722 
L 4159 850 
L 3494 850 
L 3494 0 
L 2356 0 
L 2356 850 
L 288 850 
L 288 1881 
L 2156 4666 
z
" transform="scale(0.015625)"/>
     </defs>
     <use xlink:href="#DejaVuSans-Bold-35"/>
     <use xlink:href="#DejaVuSans-Bold-34" transform="translate(69.580078 0)"/>
     <use xlink:href="#DejaVuSans-Bold-34" transform="translate(139.160156 0)"/>
    </g>
   </g>
   <g id="text_22">
    <!-- 430 -->
    <g style="fill: #0969da" transform="translate(817.012614 218.732983) scale(0.09 -0.09)">
     <defs>
      <path id="DejaVuSans-Bold-33" d="M 2981 2516 
Q 3453 2394 3698 2092 
Q 3944 1791 3944 1325 
Q 3944 631 3412 270 
Q 2881 -91 1863 -91 
Q 1503 -91 1142 -33 
Q 781 25 428 141 
L 428 1069 
Q 766 900 1098 814 
Q 1431 728 1753 728 
Q 2231 728 2486 893 
Q 2741 1059 2741 1369 
Q 2741 1688 2480 1852 
Q 2219 2016 1709 2016 
L 1228 2016 
L 1228 2791 
L 1734 2791 
Q 2188 2791 2409 2933 
Q 2631 3075 2631 3366 
Q 2631 3634 2415 3781 
Q 2200 3928 1806 3928 
Q 1516 3928 1219 3862 
Q 922 3797 628 3669 
L 628 4550 
Q 984 4650 1334 4700 
Q 1684 4750 2022 4750 
Q 2931 4750 3382 4451 
Q 3834 4153 3834 3553 
Q 3834 3144 3618 2883 
Q 3403 2622 2981 2516 
z
" transform="scale(0.015625)"/>
      <path id="DejaVuSans-Bold-30" d="M 2944 2338 
Q 2944 3213 2780 3570 
Q 2616 3928 2228 3928 
Q 1841 3928 1675 3570 
Q 1509 3213 1509 2338 
Q 1509 1453 1675 1090 
Q 1841 728 2228 728 
Q 2613 728 2778 1090 
Q 2944 1453 2944 2338 
z
M 4147 2328 
Q 4147 1169 3647 539 
Q 3147 -91 2228 -91 
Q 1306 -91 806 539 
Q 306 1169 306 2328 
Q 306 3491 806 4120 
Q 1306 4750 2228 4750 
Q 3147 4750 3647 4120 
Q 4147 3491 4147 2328 
z
" transform="scale(0.015625)"/>
     </defs>
     <use xlink:href="#DejaVuSans-Bold-34"/>
     <use xlink:href="#DejaVuSans-Bold-33" transform="translate(69.580078 0)"/>
     <use xlink:href="#DejaVuSans-Bold-30" transform="translate(139.160156 0)"/>
    </g>
   </g>
   <g id="text_23">
    <!-- 186 -->
    <g style="fill: #bf8700" transform="translate(817.012614 354.34493) scale(0.09 -0.09)">
     <defs>
      <path id="DejaVuSans-Bold-31" d="M 750 831 
L 1813 831 
L 1813 3847 
L 722 3622 
L 722 4441 
L 1806 4666 
L 2950 4666 
L 2950 831 
L 4013 831 
L 4013 0 
L 750 0 
L 750 831 
z
" transform="scale(0.015625)"/>
      <path id="DejaVuSans-Bold-38" d="M 2228 2088 
Q 1891 2088 1709 1903 
Q 1528 1719 1528 1375 
Q 1528 1031 1709 848 
Q 1891 666 2228 666 
Q 2563 666 2741 848 
Q 2919 1031 2919 1375 
Q 2919 1722 2741 1905 
Q 2563 2088 2228 2088 
z
M 1350 2484 
Q 925 2613 709 2878 
Q 494 3144 494 3541 
Q 494 4131 934 4440 
Q 1375 4750 2228 4750 
Q 3075 4750 3515 4442 
Q 3956 4134 3956 3541 
Q 3956 3144 3739 2878 
Q 3522 2613 3097 2484 
Q 3572 2353 3814 2058 
Q 4056 1763 4056 1313 
Q 4056 619 3595 264 
Q 3134 -91 2228 -91 
Q 1319 -91 855 264 
Q 391 619 391 1313 
Q 391 1763 633 2058 
Q 875 2353 1350 2484 
z
M 1631 3419 
Q 1631 3141 1786 2991 
Q 1941 2841 2228 2841 
Q 2509 2841 2662 2991 
Q 2816 3141 2816 3419 
Q 2816 3697 2662 3845 
Q 2509 3994 2228 3994 
Q 1941 3994 1786 3844 
Q 1631 3694 1631 3419 
z
" transform="scale(0.015625)"/>
      <path id="DejaVuSans-Bold-36" d="M 2316 2303 
Q 2000 2303 1842 2098 
Q 1684 1894 1684 1484 
Q 1684 1075 1842 870 
Q 2000 666 2316 666 
Q 2634 666 2792 870 
Q 2950 1075 2950 1484 
Q 2950 1894 2792 2098 
Q 2634 2303 2316 2303 
z
M 3803 4544 
L 3803 3681 
Q 3506 3822 3243 3889 
Q 2981 3956 2731 3956 
Q 2194 3956 1894 3657 
Q 1594 3359 1544 2772 
Q 1750 2925 1990 3001 
Q 2231 3078 2516 3078 
Q 3231 3078 3670 2659 
Q 4109 2241 4109 1563 
Q 4109 813 3618 361 
Q 3128 -91 2303 -91 
Q 1394 -91 895 523 
Q 397 1138 397 2266 
Q 397 3422 980 4083 
Q 1563 4744 2578 4744 
Q 2900 4744 3203 4694 
Q 3506 4644 3803 4544 
z
" transform="scale(0.015625)"/>
     </defs>
     <use xlink:href="#DejaVuSans-Bold-31"/>
     <use xlink:href="#DejaVuSans-Bold-38" transform="translate(69.580078 0)"/>
     <use xlink:href="#DejaVuSans-Bold-36" transform="translate(139.160156 0)"/>
    </g>
   </g>
   <g id="text_24">
    <!-- 311 -->
    <g style="fill: #cf222e" transform="translate(817.012614 284.871597) scale(0.09 -0.09)">
     <use xlink:href="#DejaVuSans-Bold-33"/>
     <use xlink:href="#DejaVuSans-Bold-31" transform="translate(69.580078 0)"/>
     <use xlink:href="#DejaVuSans-Bold-31" transform="translate(139.160156 0)"/>
    </g>
   </g>
   <g id="text_25">
    <!-- 673 -->
    <g style="fill: #9467bd" transform="translate(817.012614 83.676823) scale(0.09 -0.09)">
     <defs>
      <path id="DejaVuSans-Bold-37" d="M 428 4666 
L 3944 4666 
L 3944 3988 
L 2125 0 
L 953 0 
L 2675 3781 
L 428 3781 
L 428 4666 
z
" transform="scale(0.015625)"/>
     </defs>
     <use xlink:href="#DejaVuSans-Bold-36"/>
     <use xlink:href="#DejaVuSans-Bold-37" transform="translate(69.580078 0)"/>
     <use xlink:href="#DejaVuSans-Bold-33" transform="translate(139.160156 0)"/>
    </g>
   </g>
   <g id="text_26">
    <!-- Erdős Problems Progress -->
    <g style="fill: #24292f" transform="translate(349.588281 18.397812) scale(0.14 -0.14)">
     <defs>
      <path id="DejaVuSans-Bold-45" d="M 588 4666 
L 3834 4666 
L 3834 3756 
L 1791 3756 
L 1791 2888 
L 3713 2888 
L 3713 1978 
L 1791 1978 
L 1791 909 
L 3903 909 
L 3903 0 
L 588 0 
L 588 4666 
z
" transform="scale(0.015625)"/>
      <path id="DejaVuSans-Bold-72" d="M 3138 2547 
Q 2991 2616 2845 2648 
Q 2700 2681 2553 2681 
Q 2122 2681 1889 2404 
Q 1656 2128 1656 1613 
L 1656 0 
L 538 0 
L 538 3500 
L 1656 3500 
L 1656 2925 
Q 1872 3269 2151 3426 
Q 2431 3584 2822 3584 
Q 2878 3584 2943 3579 
Q 3009 3575 3134 3559 
L 3138 2547 
z
" transform="scale(0.015625)"/>
      <path id="DejaVuSans-Bold-64" d="M 2919 2988 
L 2919 4863 
L 4044 4863 
L 4044 0 
L 2919 0 
L 2919 506 
Q 2688 197 2409 53 
Q 2131 -91 1766 -91 
Q 1119 -91 703 423 
Q 288 938 288 1747 
Q 288 2556 703 3070 
Q 1119 3584 1766 3584 
Q 2128 3584 2408 3439 
Q 2688 3294 2919 2988 
z
M 2181 722 
Q 2541 722 2730 984 
Q 2919 1247 2919 1747 
Q 2919 2247 2730 2509 
Q 2541 2772 2181 2772 
Q 1825 2772 1636 2509 
Q 1447 2247 1447 1747 
Q 1447 1247 1636 984 
Q 1825 722 2181 722 
z
" transform="scale(0.015625)"/>
      <path id="DejaVuSans-Bold-151" d="M 1881 5119 
L 2560 5119 
L 1785 3944 
L 1275 3944 
L 1881 5119 
z
M 3016 5119 
L 3738 5119 
L 2888 3944 
L 2344 3944 
L 3016 5119 
z
M 2203 2784 
Q 1831 2784 1636 2517 
Q 1441 2250 1441 1747 
Q 1441 1244 1636 976 
Q 1831 709 2203 709 
Q 2569 709 2762 976 
Q 2956 1244 2956 1747 
Q 2956 2250 2762 2517 
Q 2569 2784 2203 2784 
z
M 2203 3584 
Q 3106 3584 3614 3096 
Q 4122 2609 4122 1747 
Q 4122 884 3614 396 
Q 3106 -91 2203 -91 
Q 1297 -91 786 396 
Q 275 884 275 1747 
Q 275 2609 786 3096 
Q 1297 3584 2203 3584 
z
" transform="scale(0.015625)"/>
      <path id="DejaVuSans-Bold-73" d="M 3272 3391 
L 3272 2541 
Q 2913 2691 2578 2766 
Q 2244 2841 1947 2841 
Q 1628 2841 1473 2761 
Q 1319 2681 1319 2516 
Q 1319 2381 1436 2309 
Q 1553 2238 1856 2203 
L 2053 2175 
Q 2913 2066 3209 1816 
Q 3506 1566 3506 1031 
Q 3506 472 3093 190 
Q 2681 -91 1863 -91 
Q 1516 -91 1145 -36 
Q 775 19 384 128 
L 384 978 
Q 719 816 1070 734 
Q 1422 653 1784 653 
Q 2113 653 2278 743 
Q 2444 834 2444 1013 
Q 2444 1163 2330 1236 
Q 2216 1309 1875 1350 
L 1678 1375 
Q 931 1469 631 1722 
Q 331 1975 331 2491 
Q 331 3047 712 3315 
Q 1094 3584 1881 3584 
Q 2191 3584 2531 3537 
Q 2872 3491 3272 3391 
z
" transform="scale(0.015625)"/>
      <path id="DejaVuSans-Bold-20" transform="scale(0.015625)"/>
      <path id="DejaVuSans-Bold-50" d="M 588 4666 
L 2584 4666 
Q 3475 4666 3951 4270 
Q 4428 3875 4428 3144 
Q 4428 2409 3951 2014 
Q 3475 1619 2584 1619 
L 1791 1619 
L 1791 0 
L 588 0 
L 588 4666 
z
M 1791 3794 
L 1791 2491 
L 2456 2491 
Q 2806 2491 2997 2661 
Q 3188 2831 3188 3144 
Q 3188 3456 2997 3625 
Q 2806 3794 2456 3794 
L 1791 3794 
z
" transform="scale(0.015625)"/>
      <path id="DejaVuSans-Bold-6f" d="M 2203 2784 
Q 1831 2784 1636 2517 
Q 1441 2250 1441 1747 
Q 1441 1244 1636 976 
Q 1831 709 2203 709 
Q 2569 709 2762 976 
Q 2956 1244 2956 1747 
Q 2956 2250 2762 2517 
Q 2569 2784 2203 2784 
z
M 2203 3584 
Q 3106 3584 3614 3096 
Q 4122 2609 4122 1747 
Q 4122 884 3614 396 
Q 3106 -91 2203 -91 
Q 1297 -91 786 396 
Q 275 884 275 1747 
Q 275 2609 786 3096 
Q 1297 3584 2203 3584 
z
" transform="scale(0.015625)"/>
      <path id="DejaVuSans-Bold-62" d="M 2400 722 
Q 2759 722 2948 984 
Q 3138 1247 3138 1747 
Q 3138 2247 2948 2509 
Q 2759 2772 2400 2772 
Q 2041 2772 1848 2508 
Q 1656 2244 1656 1747 
Q 1656 1250 1848 986 
Q 2041 722 2400 722 
z
M 1656 2988 
Q 1888 3294 2169 3439 
Q 2450 3584 2816 3584 
Q 3463 3584 3878 3070 
Q 4294 2556 4294 1747 
Q 4294 938 3878 423 
Q 3463 -91 2816 -91 
Q 2450 -91 2169 54 
Q 1888 200 1656 506 
L 1656 0 
L 538 0 
L 538 4863 
L 1656 4863 
L 1656 2988 
z
" transform="scale(0.015625)"/>
      <path id="DejaVuSans-Bold-6c" d="M 538 4863 
L 1656 4863 
L 1656 0 
L 538 0 
L 538 4863 
z
" transform="scale(0.015625)"/>
      <path id="DejaVuSans-Bold-65" d="M 4031 1759 
L 4031 1441 
L 1416 1441 
Q 1456 1047 1700 850 
Q 1944 653 2381 653 
Q 2734 653 3104 758 
Q 3475 863 3866 1075 
L 3866 213 
Q 3469 63 3072 -14 
Q 2675 -91 2278 -91 
Q 1328 -91 801 392 
Q 275 875 275 1747 
Q 275 2603 792 3093 
Q 1309 3584 2216 3584 
Q 3041 3584 3536 3087 
Q 4031 2591 4031 1759 
z
M 2881 2131 
Q 2881 2450 2695 2645 
Q 2509 2841 2209 2841 
Q 1884 2841 1681 2658 
Q 1478 2475 1428 2131 
L 2881 2131 
z
" transform="scale(0.015625)"/>
      <path id="DejaVuSans-Bold-6d" d="M 3781 2919 
Q 3994 3244 4286 3414 
Q 4578 3584 4928 3584 
Q 5531 3584 5847 3212 
Q 6163 2841 6163 2131 
L 6163 0 
L 5038 0 
L 5038 1825 
Q 5041 1866 5042 1909 
Q 5044 1953 5044 2034 
Q 5044 2406 4934 2573 
Q 4825 2741 4581 2741 
Q 4263 2741 4089 2478 
Q 3916 2216 3909 1719 
L 3909 0 
L 2784 0 
L 2784 1825 
Q 2784 2406 2684 2573 
Q 2584 2741 2328 2741 
Q 2006 2741 1831 2477 
Q 1656 2213 1656 1722 
L 1656 0 
L 531 0 
L 531 3500 
L 1656 3500 
L 1656 2988 
Q 1863 3284 2130 3434 
Q 2397 3584 2719 3584 
Q 3081 3584 3359 3409 
Q 3638 3234 3781 2919 
z
" transform="scale(0.015625)"/>
      <path id="DejaVuSans-Bold-67" d="M 2919 594 
Q 2688 288 2409 144 
Q 2131 0 1766 0 
Q 1125 0 706 504 
Q 288 1009 288 1791 
Q 288 2575 706 3076 
Q 1125 3578 1766 3578 
Q 2131 3578 2409 3434 
Q 2688 3291 2919 2981 
L 2919 3500 
L 4044 3500 
L 4044 353 
Q 4044 -491 3511 -936 
Q 2978 -1381 1966 -1381 
Q 1638 -1381 1331 -1331 
Q 1025 -1281 716 -1178 
L 716 -306 
Q 1009 -475 1290 -558 
Q 1572 -641 1856 -641 
Q 2406 -641 2662 -400 
Q 2919 -159 2919 353 
L 2919 594 
z
M 2181 2772 
Q 1834 2772 1640 2515 
Q 1447 2259 1447 1791 
Q 1447 1309 1634 1061 
Q 1822 813 2181 813 
Q 2531 813 2725 1069 
Q 2919 1325 2919 1791 
Q 2919 2259 2725 2515 
Q 2531 2772 2181 2772 
z
" transform="scale(0.015625)"/>
     </defs>
     <use xlink:href="#DejaVuSans-Bold-45"/>
     <use xlink:href="#DejaVuSans-Bold-72" transform="translate(68.310547 0)"/>
     <use xlink:href="#DejaVuSans-Bold-64" transform="translate(117.626953 0)"/>
     <use xlink:href="#DejaVuSans-Bold-151" transform="translate(189.208984 0)"/>
     <use xlink:href="#DejaVuSans-Bold-73" transform="translate(257.910156 0)"/>
     <use xlink:href="#DejaVuSans-Bold-20" transform="translate(317.431641 0)"/>
     <use xlink:href="#DejaVuSans-Bold-50" transform="translate(352.246094 0)"/>
     <use xlink:href="#DejaVuSans-Bold-72" transform="translate(425.537109 0)"/>
     <use xlink:href="#DejaVuSans-Bold-6f" transform="translate(474.853516 0)"/>
     <use xlink:href="#DejaVuSans-Bold-62" transform="translate(543.554688 0)"/>
     <use xlink:href="#DejaVuSans-Bold-6c" transform="translate(615.136719 0)"/>
     <use xlink:href="#DejaVuSans-Bold-65" transform="translate(649.414062 0)"/>
     <use xlink:href="#DejaVuSans-Bold-6d" transform="translate(717.236328 0)"/>
     <use xlink:href="#DejaVuSans-Bold-73" transform="translate(821.435547 0)"/>
     <use xlink:href="#DejaVuSans-Bold-20" transform="translate(880.957031 0)"/>
     <use xlink:href="#DejaVuSans-Bold-50" transform="translate(915.771484 0)"/>
     <use xlink:href="#DejaVuSans-Bold-72" transform="translate(989.0625 0)"/>
     <use xlink:href="#DejaVuSans-Bold-6f" transform="translate(1038.378906 0)"/>
     <use xlink:href="#DejaVuSans-Bold-67" transform="translate(1107.080078 0)"/>
     <use xlink:href="#DejaVuSans-Bold-72" transform="translate(1178.662109 0)"/>
     <use xlink:href="#DejaVuSans-Bold-65" transform="translate(1227.978516 0)"/>
     <use xlink:href="#DejaVuSans-Bold-73" transform="translate(1295.800781 0)"/>
     <use xlink:href="#DejaVuSans-Bold-73" transform="translate(1355.322266 0)"/>
    </g>
   </g>
   <g id="legend_1">
    <g id="patch_7">
     <path d="M 55.90125 119.788437 
L 213.771563 119.788437 
Q 215.771563 119.788437 215.771563 117.788437 
L 215.771563 45.397812 
Q 215.771563 43.397812 213.771563 43.397812 
L 55.90125 43.397812 
Q 53.90125 43.397812 53.90125 45.397812 
L 53.90125 117.788437 
Q 53.90125 119.788437 55.90125 119.788437 
z
" style="fill: #f6f8fa; opacity: 0.8; stroke: #d0d7de; stroke-linejoin: miter"/>
    </g>
    <g id="line2d_42">
     <path d="M 57.90125 51.49625 
L 67.90125 51.49625 
L 77.90125 51.49625 
" style="fill: none; stroke: #1a7f37; stroke-width: 2; stroke-linecap: square"/>
    </g>
    <g id="text_27">
     <!-- Solved -->
     <g style="fill: #24292f" transform="translate(85.90125 54.99625) scale(0.1 -0.1)">
      <defs>
       <path id="DejaVuSans-6c" d="M 603 4863 
L 1178 4863 
L 1178 0 
L 603 0 
L 603 4863 
z
" transform="scale(0.015625)"/>
       <path id="DejaVuSans-64" d="M 2906 2969 
L 2906 4863 
L 3481 4863 
L 3481 0 
L 2906 0 
L 2906 525 
Q 2725 213 2448 61 
Q 2172 -91 1784 -91 
Q 1150 -91 751 415 
Q 353 922 353 1747 
Q 353 2572 751 3078 
Q 1150 3584 1784 3584 
Q 2172 3584 2448 3432 
Q 2725 3281 2906 2969 
z
M 947 1747 
Q 947 1113 1208 752 
Q 1469 391 1925 391 
Q 2381 391 2643 752 
Q 2906 1113 2906 1747 
Q 2906 2381 2643 2742 
Q 2381 3103 1925 3103 
Q 1469 3103 1208 2742 
Q 947 2381 947 1747 
z
" transform="scale(0.015625)"/>
      </defs>
      <use xlink:href="#DejaVuSans-53"/>
      <use xlink:href="#DejaVuSans-6f" transform="translate(63.476562 0)"/>
      <use xlink:href="#DejaVuSans-6c" transform="translate(124.658203 0)"/>
      <use xlink:href="#DejaVuSans-76" transform="translate(152.441406 0)"/>
      <use xlink:href="#DejaVuSans-65" transform="translate(211.621094 0)"/>
      <use xlink:href="#DejaVuSans-64" transform="translate(273.144531 0)"/>
     </g>
    </g>
    <g id="line2d_43">
     <path d="M 57.90125 66.174375 
L 67.90125 66.174375 
L 77.90125 66.174375 
" style="fill: none; stroke: #0969da; stroke-width: 2; stroke-linecap: square"/>
    </g>
    <g id="text_28">
     <!-- Lean Formalized Problem -->
     <g style="fill: #24292f" transform="translate(85.90125 69.674375) scale(0.1 -0.1)">
      <defs>
       <path id="DejaVuSans-4c" d="M 628 4666 
L 1259 4666 
L 1259 531 
L 3531 531 
L 3531 0 
L 628 0 
L 628 4666 
z
" transform="scale(0.015625)"/>
       <path id="DejaVuSans-20" transform="scale(0.015625)"/>
       <path id="DejaVuSans-6d" d="M 3328 2828 
Q 3544 3216 3844 3400 
Q 4144 3584 4550 3584 
Q 5097 3584 5394 3201 
Q 5691 2819 5691 2113 
L 5691 0 
L 5113 0 
L 5113 2094 
Q 5113 2597 4934 2840 
Q 4756 3084 4391 3084 
Q 3944 3084 3684 2787 
Q 3425 2491 3425 1978 
L 3425 0 
L 2847 0 
L 2847 2094 
Q 2847 2600 2669 2842 
Q 2491 3084 2119 3084 
Q 1678 3084 1418 2786 
Q 1159 2488 1159 1978 
L 1159 0 
L 581 0 
L 581 3500 
L 1159 3500 
L 1159 2956 
Q 1356 3278 1631 3431 
Q 1906 3584 2284 3584 
Q 2666 3584 2933 3390 
Q 3200 3197 3328 2828 
z
" transform="scale(0.015625)"/>
       <path id="DejaVuSans-69" d="M 603 3500 
L 1178 3500 
L 1178 0 
L 603 0 
L 603 3500 
z
M 603 4863 
L 1178 4863 
L 1178 4134 
L 603 4134 
L 603 4863 
z
" transform="scale(0.015625)"/>
       <path id="DejaVuSans-7a" d="M 353 3500 
L 3084 3500 
L 3084 2975 
L 922 459 
L 3084 459 
L 3084 0 
L 275 0 
L 275 525 
L 2438 3041 
L 353 3041 
L 353 3500 
z
" transform="scale(0.015625)"/>
       <path id="DejaVuSans-50" d="M 1259 4147 
L 1259 2394 
L 2053 2394 
Q 2494 2394 2734 2622 
Q 2975 2850 2975 3272 
Q 2975 3691 2734 3919 
Q 2494 4147 2053 4147 
L 1259 4147 
z
M 628 4666 
L 2053 4666 
Q 2838 4666 3239 4311 
Q 3641 3956 3641 3272 
Q 3641 2581 3239 2228 
Q 2838 1875 2053 1875 
L 1259 1875 
L 1259 0 
L 628 0 
L 628 4666 
z
" transform="scale(0.015625)"/>
      </defs>
      <use xlink:href="#DejaVuSans-4c"/>
      <use xlink:href="#DejaVuSans-65" transform="translate(53.962891 0)"/>
      <use xlink:href="#DejaVuSans-61" transform="translate(115.486328 0)"/>
      <use xlink:href="#DejaVuSans-6e" transform="translate(176.765625 0)"/>
      <use xlink:href="#DejaVuSans-20" transform="translate(240.144531 0)"/>
      <use xlink:href="#DejaVuSans-46" transform="translate(271.931641 0)"/>
      <use xlink:href="#DejaVuSans-6f" transform="translate(325.826172 0)"/>
      <use xlink:href="#DejaVuSans-72" transform="translate(387.007812 0)"/>
      <use xlink:href="#DejaVuSans-6d" transform="translate(426.371094 0)"/>
      <use xlink:href="#DejaVuSans-61" transform="translate(523.783203 0)"/>
      <use xlink:href="#DejaVuSans-6c" transform="translate(585.0625 0)"/>
      <use xlink:href="#DejaVuSans-69" transform="translate(612.845703 0)"/>
      <use xlink:href="#DejaVuSans-7a" transform="translate(640.628906 0)"/>
      <use xlink:href="#DejaVuSans-65" transform="translate(693.119141 0)"/>
      <use xlink:href="#DejaVuSans-64" transform="translate(754.642578 0)"/>
      <use xlink:href="#DejaVuSans-20" transform="translate(818.119141 0)"/>
      <use xlink:href="#DejaVuSans-50" transform="translate(849.90625 0)"/>
      <use xlink:href="#DejaVuSans-72" transform="translate(908.458984 0)"/>
      <use xlink:href="#DejaVuSans-6f" transform="translate(947.322266 0)"/>
      <use xlink:href="#DejaVuSans-62" transform="translate(1008.503906 0)"/>
      <use xlink:href="#DejaVuSans-6c" transform="translate(1071.980469 0)"/>
      <use xlink:href="#DejaVuSans-65" transform="translate(1099.763672 0)"/>
      <use xlink:href="#DejaVuSans-6d" transform="translate(1161.287109 0)"/>
     </g>
    </g>
    <g id="line2d_44">
     <path d="M 57.90125 80.8525 
L 67.90125 80.8525 
L 77.90125 80.8525 
" style="fill: none; stroke: #bf8700; stroke-width: 2; stroke-linecap: square"/>
    </g>
    <g id="text_29">
     <!-- Lean Formalized Solution -->
     <g style="fill: #24292f" transform="translate(85.90125 84.3525) scale(0.1 -0.1)">
      <use xlink:href="#DejaVuSans-4c"/>
      <use xlink:href="#DejaVuSans-65" transform="translate(53.962891 0)"/>
      <use xlink:href="#DejaVuSans-61" transform="translate(115.486328 0)"/>
      <use xlink:href="#DejaVuSans-6e" transform="translate(176.765625 0)"/>
      <use xlink:href="#DejaVuSans-20" transform="translate(240.144531 0)"/>
      <use xlink:href="#DejaVuSans-46" transform="translate(271.931641 0)"/>
      <use xlink:href="#DejaVuSans-6f" transform="translate(325.826172 0)"/>
      <use xlink:href="#DejaVuSans-72" transform="translate(387.007812 0)"/>
      <use xlink:href="#DejaVuSans-6d" transform="translate(426.371094 0)"/>
      <use xlink:href="#DejaVuSans-61" transform="translate(523.783203 0)"/>
      <use xlink:href="#DejaVuSans-6c" transform="translate(585.0625 0)"/>
      <use xlink:href="#DejaVuSans-69" transform="translate(612.845703 0)"/>
      <use xlink:href="#DejaVuSans-7a" transform="translate(640.628906 0)"/>
      <use xlink:href="#DejaVuSans-65" transform="translate(693.119141 0)"/>
      <use xlink:href="#DejaVuSans-64" transform="translate(754.642578 0)"/>
      <use xlink:href="#DejaVuSans-20" transform="translate(818.119141 0)"/>
      <use xlink:href="#DejaVuSans-53" transform="translate(849.90625 0)"/>
      <use xlink:href="#DejaVuSans-6f" transform="translate(913.382812 0)"/>
      <use xlink:href="#DejaVuSans-6c" transform="translate(974.564453 0)"/>
      <use xlink:href="#DejaVuSans-75" transform="translate(1002.347656 0)"/>
      <use xlink:href="#DejaVuSans-74" transform="translate(1065.726562 0)"/>
      <use xlink:href="#DejaVuSans-69" transform="translate(1104.935547 0)"/>
      <use xlink:href="#DejaVuSans-6f" transform="translate(1132.71875 0)"/>
      <use xlink:href="#DejaVuSans-6e" transform="translate(1193.900391 0)"/>
     </g>
    </g>
    <g id="line2d_45">
     <path d="M 57.90125 95.530625 
L 67.90125 95.530625 
L 77.90125 95.530625 
" style="fill: none; stroke: #cf222e; stroke-width: 2; stroke-linecap: square"/>
    </g>
    <g id="text_30">
     <!-- OEIS Linked -->
     <g style="fill: #24292f" transform="translate(85.90125 99.030625) scale(0.1 -0.1)">
      <defs>
       <path id="DejaVuSans-45" d="M 628 4666 
L 3578 4666 
L 3578 4134 
L 1259 4134 
L 1259 2753 
L 3481 2753 
L 3481 2222 
L 1259 2222 
L 1259 531 
L 3634 531 
L 3634 0 
L 628 0 
L 628 4666 
z
" transform="scale(0.015625)"/>
       <path id="DejaVuSans-49" d="M 628 4666 
L 1259 4666 
L 1259 0 
L 628 0 
L 628 4666 
z
" transform="scale(0.015625)"/>
       <path id="DejaVuSans-6b" d="M 581 4863 
L 1159 4863 
L 1159 1991 
L 2875 3500 
L 3609 3500 
L 1753 1863 
L 3688 0 
L 2938 0 
L 1159 1709 
L 1159 0 
L 581 0 
L 581 4863 
z
" transform="scale(0.015625)"/>
      </defs>
      <use xlink:href="#DejaVuSans-4f"/>
      <use xlink:href="#DejaVuSans-45" transform="translate(78.710938 0)"/>
      <use xlink:href="#DejaVuSans-49" transform="translate(141.894531 0)"/>
      <use xlink:href="#DejaVuSans-53" transform="translate(171.386719 0)"/>
      <use xlink:href="#DejaVuSans-20" transform="translate(234.863281 0)"/>
      <use xlink:href="#DejaVuSans-4c" transform="translate(266.650391 0)"/>
      <use xlink:href="#DejaVuSans-69" transform="translate(322.363281 0)"/>
      <use xlink:href="#DejaVuSans-6e" transform="translate(350.146484 0)"/>
      <use xlink:href="#DejaVuSans-6b" transform="translate(413.525391 0)"/>
      <use xlink:href="#DejaVuSans-65" transform="translate(467.810547 0)"/>
      <use xlink:href="#DejaVuSans-64" transform="translate(529.333984 0)"/>
     </g>
    </g>
    <g id="line2d_46">
     <path d="M 57.90125 110.20875 
L 67.90125 110.20875 
L 77.90125 110.20875 
" style="fill: none; stroke: #9467bd; stroke-width: 2; stroke-linecap: square"/>
    </g>
    <g id="text_31">
     <!-- Open Problems -->
     <g style="fill: #24292f" transform="translate(85.90125 113.70875) scale(0.1 -0.1)">
      <defs>
       <path id="DejaVuSans-73" d="M 2834 3397 
L 2834 2853 
Q 2591 2978 2328 3040 
Q 2066 3103 1784 3103 
Q 1356 3103 1142 2972 
Q 928 2841 928 2578 
Q 928 2378 1081 2264 
Q 1234 2150 1697 2047 
L 1894 2003 
Q 2506 1872 2764 1633 
Q 3022 1394 3022 966 
Q 3022 478 2636 193 
Q 2250 -91 1575 -91 
Q 1294 -91 989 -36 
Q 684 19 347 128 
L 347 722 
Q 666 556 975 473 
Q 1284 391 1588 391 
Q 1994 391 2212 530 
Q 2431 669 2431 922 
Q 2431 1156 2273 1281 
Q 2116 1406 1581 1522 
L 1381 1569 
Q 847 1681 609 1914 
Q 372 2147 372 2553 
Q 372 3047 722 3315 
Q 1072 3584 1716 3584 
Q 2034 3584 2315 3537 
Q 2597 3491 2834 3397 
z
" transform="scale(0.015625)"/>
      </defs>
      <use xlink:href="#DejaVuSans-4f"/>
      <use xlink:href="#DejaVuSans-70" transform="translate(78.710938 0)"/>
      <use xlink:href="#DejaVuSans-65" transform="translate(142.1875 0)"/>
      <use xlink:href="#DejaVuSans-6e" transform="translate(203.710938 0)"/>
      <use xlink:href="#DejaVuSans-20" transform="translate(267.089844 0)"/>
      <use xlink:href="#DejaVuSans-50" transform="translate(298.876953 0)"/>
      <use xlink:href="#DejaVuSans-72" transform="translate(357.429688 0)"/>
      <use xlink:href="#DejaVuSans-6f" transform="translate(396.292969 0)"/>
      <use xlink:href="#DejaVuSans-62" transform="translate(457.474609 0)"/>
      <use xlink:href="#DejaVuSans-6c" transform="translate(520.951172 0)"/>
      <use xlink:href="#DejaVuSans-65" transform="translate(548.734375 0)"/>
      <use xlink:href="#DejaVuSans-6d" transform="translate(610.257812 0)"/>
      <use xlink:href="#DejaVuSans-73" transform="translate(707.669922 0)"/>
     </g>
    </g>
   </g>
  </g>
 </g>
 <defs>
  <clipPath id="p84eaf3ab2d">
   <rect x="48.90125" y="38.397812" width="799.45" height="416.84"/>
  </clipPath>
 </defs>
</svg>
