<?xml version="1.0" encoding="utf-8" standalone="no"?>
<!DOCTYPE svg PUBLIC "-//W3C//DTD SVG 1.1//EN"
  "http://www.w3.org/Graphics/SVG/1.1/DTD/svg11.dtd">
<svg xmlns:xlink="http://www.w3.org/1999/xlink" width="855.55125pt" height="494.729687pt" viewBox="0 0 855.55125 494.729687" xmlns="http://www.w3.org/2000/svg" version="1.1">
 <metadata>
  <rdf:RDF xmlns:dc="http://purl.org/dc/elements/1.1/" xmlns:cc="http://creativecommons.org/ns#" xmlns:rdf="http://www.w3.org/1999/02/22-rdf-syntax-ns#">
   <cc:Work>
    <dc:type rdf:resource="http://purl.org/dc/dcmitype/StillImage"/>
    <dc:date>2026-06-06T13:48:36.806722</dc:date>
    <dc:format>image/svg+xml</dc:format>
    <dc:creator>
     <cc:Agent>
      <dc:title>Matplotlib v3.10.7, https://matplotlib.org/</dc:title>
     </cc:Agent>
    </dc:creator>
   </cc:Work>
  </rdf:RDF>
 </metadata>
 <defs>
  <style type="text/css">*{stroke-linejoin: round; stroke-linecap: butt}</style>
 </defs>
 <g id="figure_1">
  <g id="patch_1">
   <path d="M 0 494.729687 
L 855.55125 494.729687 
L 855.55125 0 
L 0 0 
z
" style="fill: #0d1117"/>
  </g>
  <g id="axes_1">
   <g id="patch_2">
    <path d="M 48.90125 455.237812 
L 848.35125 455.237812 
L 848.35125 38.397812 
L 48.90125 38.397812 
z
" style="fill: #0d1117"/>
   </g>
   <g id="matplotlib.axis_1">
    <g id="xtick_1">
     <g id="line2d_1">
      <path d="M 86.001765 455.237812 
L 86.001765 38.397812 
" clip-path="url(#pbd0d98b65f)" style="fill: none; stroke: #30363d; stroke-opacity: 0.25; stroke-width: 0.5; stroke-linecap: square"/>
     </g>
     <g id="line2d_2">
      <defs>
       <path id="mdd8f237db2" d="M 0 0 
L 0 3.5 
" style="stroke: #c9d1d9; stroke-width: 0.8"/>
      </defs>
      <g>
       <use xlink:href="#mdd8f237db2" x="86.001765" y="455.237812" style="fill: #c9d1d9; stroke: #c9d1d9; stroke-width: 0.8"/>
      </g>
     </g>
     <g id="text_1">
      <!-- Sep -->
      <g style="fill: #c9d1d9" transform="translate(76.576765 469.83625) scale(0.1 -0.1)">
       <defs>
        <path id="DejaVuSans-53" d="M 3425 4513 
L 3425 3897 
Q 3066 4069 2747 4153 
Q 2428 4238 2131 4238 
Q 1616 4238 1336 4038 
Q 1056 3838 1056 3469 
Q 1056 3159 1242 3001 
Q 1428 2844 1947 2747 
L 2328 2669 
Q 3034 2534 3370 2195 
Q 3706 1856 3706 1288 
Q 3706 609 3251 259 
Q 2797 -91 1919 -91 
Q 1588 -91 1214 -16 
Q 841 59 441 206 
L 441 856 
Q 825 641 1194 531 
Q 1563 422 1919 422 
Q 2459 422 2753 634 
Q 3047 847 3047 1241 
Q 3047 1584 2836 1778 
Q 2625 1972 2144 2069 
L 1759 2144 
Q 1053 2284 737 2584 
Q 422 2884 422 3419 
Q 422 4038 858 4394 
Q 1294 4750 2059 4750 
Q 2388 4750 2728 4690 
Q 3069 4631 3425 4513 
z
" transform="scale(0.015625)"/>
        <path id="DejaVuSans-65" d="M 3597 1894 
L 3597 1613 
L 953 1613 
Q 991 1019 1311 708 
Q 1631 397 2203 397 
Q 2534 397 2845 478 
Q 3156 559 3463 722 
L 3463 178 
Q 3153 47 2828 -22 
Q 2503 -91 2169 -91 
Q 1331 -91 842 396 
Q 353 884 353 1716 
Q 353 2575 817 3079 
Q 1281 3584 2069 3584 
Q 2775 3584 3186 3129 
Q 3597 2675 3597 1894 
z
M 3022 2063 
Q 3016 2534 2758 2815 
Q 2500 3097 2075 3097 
Q 1594 3097 1305 2825 
Q 1016 2553 972 2059 
L 3022 2063 
z
" transform="scale(0.015625)"/>
        <path id="DejaVuSans-70" d="M 1159 525 
L 1159 -1331 
L 581 -1331 
L 581 3500 
L 1159 3500 
L 1159 2969 
Q 1341 3281 1617 3432 
Q 1894 3584 2278 3584 
Q 2916 3584 3314 3078 
Q 3713 2572 3713 1747 
Q 3713 922 3314 415 
Q 2916 -91 2278 -91 
Q 1894 -91 1617 61 
Q 1341 213 1159 525 
z
M 3116 1747 
Q 3116 2381 2855 2742 
Q 2594 3103 2138 3103 
Q 1681 3103 1420 2742 
Q 1159 2381 1159 1747 
Q 1159 1113 1420 752 
Q 1681 391 2138 391 
Q 2594 391 2855 752 
Q 3116 1113 3116 1747 
z
" transform="scale(0.015625)"/>
       </defs>
       <use xlink:href="#DejaVuSans-53"/>
       <use xlink:href="#DejaVuSans-65" transform="translate(63.476562 0)"/>
       <use xlink:href="#DejaVuSans-70" transform="translate(125 0)"/>
      </g>
     </g>
    </g>
    <g id="xtick_2">
     <g id="line2d_3">
      <path d="M 244.977249 455.237812 
L 244.977249 38.397812 
" clip-path="url(#pbd0d98b65f)" style="fill: none; stroke: #30363d; stroke-opacity: 0.25; stroke-width: 0.5; stroke-linecap: square"/>
     </g>
     <g id="line2d_4">
      <g>
       <use xlink:href="#mdd8f237db2" x="244.977249" y="455.237812" style="fill: #c9d1d9; stroke: #c9d1d9; stroke-width: 0.8"/>
      </g>
     </g>
     <g id="text_2">
      <!-- Nov -->
      <g style="fill: #c9d1d9" transform="translate(235.217874 469.83625) scale(0.1 -0.1)">
       <defs>
        <path id="DejaVuSans-4e" d="M 628 4666 
L 1478 4666 
L 3547 763 
L 3547 4666 
L 4159 4666 
L 4159 0 
L 3309 0 
L 1241 3903 
L 1241 0 
L 628 0 
L 628 4666 
z
" transform="scale(0.015625)"/>
        <path id="DejaVuSans-6f" d="M 1959 3097 
Q 1497 3097 1228 2736 
Q 959 2375 959 1747 
Q 959 1119 1226 758 
Q 1494 397 1959 397 
Q 2419 397 2687 759 
Q 2956 1122 2956 1747 
Q 2956 2369 2687 2733 
Q 2419 3097 1959 3097 
z
M 1959 3584 
Q 2709 3584 3137 3096 
Q 3566 2609 3566 1747 
Q 3566 888 3137 398 
Q 2709 -91 1959 -91 
Q 1206 -91 779 398 
Q 353 888 353 1747 
Q 353 2609 779 3096 
Q 1206 3584 1959 3584 
z
" transform="scale(0.015625)"/>
        <path id="DejaVuSans-76" d="M 191 3500 
L 800 3500 
L 1894 563 
L 2988 3500 
L 3597 3500 
L 2284 0 
L 1503 0 
L 191 3500 
z
" transform="scale(0.015625)"/>
       </defs>
       <use xlink:href="#DejaVuSans-4e"/>
       <use xlink:href="#DejaVuSans-6f" transform="translate(74.804688 0)"/>
       <use xlink:href="#DejaVuSans-76" transform="translate(135.986328 0)"/>
      </g>
     </g>
    </g>
    <g id="xtick_3">
     <g id="line2d_5">
      <path d="M 403.952733 455.237812 
L 403.952733 38.397812 
" clip-path="url(#pbd0d98b65f)" style="fill: none; stroke: #30363d; stroke-opacity: 0.25; stroke-width: 0.5; stroke-linecap: square"/>
     </g>
     <g id="line2d_6">
      <g>
       <use xlink:href="#mdd8f237db2" x="403.952733" y="455.237812" style="fill: #c9d1d9; stroke: #c9d1d9; stroke-width: 0.8"/>
      </g>
     </g>
     <g id="text_3">
      <!-- 2026 -->
      <g style="fill: #c9d1d9" transform="translate(391.227733 469.83625) scale(0.1 -0.1)">
       <defs>
        <path id="DejaVuSans-32" d="M 1228 531 
L 3431 531 
L 3431 0 
L 469 0 
L 469 531 
Q 828 903 1448 1529 
Q 2069 2156 2228 2338 
Q 2531 2678 2651 2914 
Q 2772 3150 2772 3378 
Q 2772 3750 2511 3984 
Q 2250 4219 1831 4219 
Q 1534 4219 1204 4116 
Q 875 4013 500 3803 
L 500 4441 
Q 881 4594 1212 4672 
Q 1544 4750 1819 4750 
Q 2544 4750 2975 4387 
Q 3406 4025 3406 3419 
Q 3406 3131 3298 2873 
Q 3191 2616 2906 2266 
Q 2828 2175 2409 1742 
Q 1991 1309 1228 531 
z
" transform="scale(0.015625)"/>
        <path id="DejaVuSans-30" d="M 2034 4250 
Q 1547 4250 1301 3770 
Q 1056 3291 1056 2328 
Q 1056 1369 1301 889 
Q 1547 409 2034 409 
Q 2525 409 2770 889 
Q 3016 1369 3016 2328 
Q 3016 3291 2770 3770 
Q 2525 4250 2034 4250 
z
M 2034 4750 
Q 2819 4750 3233 4129 
Q 3647 3509 3647 2328 
Q 3647 1150 3233 529 
Q 2819 -91 2034 -91 
Q 1250 -91 836 529 
Q 422 1150 422 2328 
Q 422 3509 836 4129 
Q 1250 4750 2034 4750 
z
" transform="scale(0.015625)"/>
        <path id="DejaVuSans-36" d="M 2113 2584 
Q 1688 2584 1439 2293 
Q 1191 2003 1191 1497 
Q 1191 994 1439 701 
Q 1688 409 2113 409 
Q 2538 409 2786 701 
Q 3034 994 3034 1497 
Q 3034 2003 2786 2293 
Q 2538 2584 2113 2584 
z
M 3366 4563 
L 3366 3988 
Q 3128 4100 2886 4159 
Q 2644 4219 2406 4219 
Q 1781 4219 1451 3797 
Q 1122 3375 1075 2522 
Q 1259 2794 1537 2939 
Q 1816 3084 2150 3084 
Q 2853 3084 3261 2657 
Q 3669 2231 3669 1497 
Q 3669 778 3244 343 
Q 2819 -91 2113 -91 
Q 1303 -91 875 529 
Q 447 1150 447 2328 
Q 447 3434 972 4092 
Q 1497 4750 2381 4750 
Q 2619 4750 2861 4703 
Q 3103 4656 3366 4563 
z
" transform="scale(0.015625)"/>
       </defs>
       <use xlink:href="#DejaVuSans-32"/>
       <use xlink:href="#DejaVuSans-30" transform="translate(63.623047 0)"/>
       <use xlink:href="#DejaVuSans-32" transform="translate(127.246094 0)"/>
       <use xlink:href="#DejaVuSans-36" transform="translate(190.869141 0)"/>
      </g>
     </g>
    </g>
    <g id="xtick_4">
     <g id="line2d_7">
      <path d="M 557.715907 455.237812 
L 557.715907 38.397812 
" clip-path="url(#pbd0d98b65f)" style="fill: none; stroke: #30363d; stroke-opacity: 0.25; stroke-width: 0.5; stroke-linecap: square"/>
     </g>
     <g id="line2d_8">
      <g>
       <use xlink:href="#mdd8f237db2" x="557.715907" y="455.237812" style="fill: #c9d1d9; stroke: #c9d1d9; stroke-width: 0.8"/>
      </g>
     </g>
     <g id="text_4">
      <!-- Mar -->
      <g style="fill: #c9d1d9" transform="translate(548.282313 469.83625) scale(0.1 -0.1)">
       <defs>
        <path id="DejaVuSans-4d" d="M 628 4666 
L 1569 4666 
L 2759 1491 
L 3956 4666 
L 4897 4666 
L 4897 0 
L 4281 0 
L 4281 4097 
L 3078 897 
L 2444 897 
L 1241 4097 
L 1241 0 
L 628 0 
L 628 4666 
z
" transform="scale(0.015625)"/>
        <path id="DejaVuSans-61" d="M 2194 1759 
Q 1497 1759 1228 1600 
Q 959 1441 959 1056 
Q 959 750 1161 570 
Q 1363 391 1709 391 
Q 2188 391 2477 730 
Q 2766 1069 2766 1631 
L 2766 1759 
L 2194 1759 
z
M 3341 1997 
L 3341 0 
L 2766 0 
L 2766 531 
Q 2569 213 2275 61 
Q 1981 -91 1556 -91 
Q 1019 -91 701 211 
Q 384 513 384 1019 
Q 384 1609 779 1909 
Q 1175 2209 1959 2209 
L 2766 2209 
L 2766 2266 
Q 2766 2663 2505 2880 
Q 2244 3097 1772 3097 
Q 1472 3097 1187 3025 
Q 903 2953 641 2809 
L 641 3341 
Q 956 3463 1253 3523 
Q 1550 3584 1831 3584 
Q 2591 3584 2966 3190 
Q 3341 2797 3341 1997 
z
" transform="scale(0.015625)"/>
        <path id="DejaVuSans-72" d="M 2631 2963 
Q 2534 3019 2420 3045 
Q 2306 3072 2169 3072 
Q 1681 3072 1420 2755 
Q 1159 2438 1159 1844 
L 1159 0 
L 581 0 
L 581 3500 
L 1159 3500 
L 1159 2956 
Q 1341 3275 1631 3429 
Q 1922 3584 2338 3584 
Q 2397 3584 2469 3576 
Q 2541 3569 2628 3553 
L 2631 2963 
z
" transform="scale(0.015625)"/>
       </defs>
       <use xlink:href="#DejaVuSans-4d"/>
       <use xlink:href="#DejaVuSans-61" transform="translate(86.279297 0)"/>
       <use xlink:href="#DejaVuSans-72" transform="translate(147.558594 0)"/>
      </g>
     </g>
    </g>
    <g id="xtick_5">
     <g id="line2d_9">
      <path d="M 716.691391 455.237812 
L 716.691391 38.397812 
" clip-path="url(#pbd0d98b65f)" style="fill: none; stroke: #30363d; stroke-opacity: 0.25; stroke-width: 0.5; stroke-linecap: square"/>
     </g>
     <g id="line2d_10">
      <g>
       <use xlink:href="#mdd8f237db2" x="716.691391" y="455.237812" style="fill: #c9d1d9; stroke: #c9d1d9; stroke-width: 0.8"/>
      </g>
     </g>
     <g id="text_5">
      <!-- May -->
      <g style="fill: #c9d1d9" transform="translate(706.353891 469.83625) scale(0.1 -0.1)">
       <defs>
        <path id="DejaVuSans-79" d="M 2059 -325 
Q 1816 -950 1584 -1140 
Q 1353 -1331 966 -1331 
L 506 -1331 
L 506 -850 
L 844 -850 
Q 1081 -850 1212 -737 
Q 1344 -625 1503 -206 
L 1606 56 
L 191 3500 
L 800 3500 
L 1894 763 
L 2988 3500 
L 3597 3500 
L 2059 -325 
z
" transform="scale(0.015625)"/>
       </defs>
       <use xlink:href="#DejaVuSans-4d"/>
       <use xlink:href="#DejaVuSans-61" transform="translate(86.279297 0)"/>
       <use xlink:href="#DejaVuSans-79" transform="translate(147.558594 0)"/>
      </g>
     </g>
    </g>
    <g id="text_6">
     <!-- Date -->
     <g style="fill: #c9d1d9" transform="translate(434.285313 485.034062) scale(0.12 -0.12)">
      <defs>
       <path id="DejaVuSans-44" d="M 1259 4147 
L 1259 519 
L 2022 519 
Q 2988 519 3436 956 
Q 3884 1394 3884 2338 
Q 3884 3275 3436 3711 
Q 2988 4147 2022 4147 
L 1259 4147 
z
M 628 4666 
L 1925 4666 
Q 3281 4666 3915 4102 
Q 4550 3538 4550 2338 
Q 4550 1131 3912 565 
Q 3275 0 1925 0 
L 628 0 
L 628 4666 
z
" transform="scale(0.015625)"/>
       <path id="DejaVuSans-74" d="M 1172 4494 
L 1172 3500 
L 2356 3500 
L 2356 3053 
L 1172 3053 
L 1172 1153 
Q 1172 725 1289 603 
Q 1406 481 1766 481 
L 2356 481 
L 2356 0 
L 1766 0 
Q 1100 0 847 248 
Q 594 497 594 1153 
L 594 3053 
L 172 3053 
L 172 3500 
L 594 3500 
L 594 4494 
L 1172 4494 
z
" transform="scale(0.015625)"/>
      </defs>
      <use xlink:href="#DejaVuSans-44"/>
      <use xlink:href="#DejaVuSans-61" transform="translate(77.001953 0)"/>
      <use xlink:href="#DejaVuSans-74" transform="translate(138.28125 0)"/>
      <use xlink:href="#DejaVuSans-65" transform="translate(177.490234 0)"/>
     </g>
    </g>
   </g>
   <g id="matplotlib.axis_2">
    <g id="ytick_1">
     <g id="line2d_11">
      <path d="M 48.90125 455.237812 
L 848.35125 455.237812 
" clip-path="url(#pbd0d98b65f)" style="fill: none; stroke: #30363d; stroke-opacity: 0.25; stroke-width: 0.5; stroke-linecap: square"/>
     </g>
     <g id="line2d_12">
      <defs>
       <path id="mf10edab731" d="M 0 0 
L -3.5 0 
" style="stroke: #c9d1d9; stroke-width: 0.8"/>
      </defs>
      <g>
       <use xlink:href="#mf10edab731" x="48.90125" y="455.237812" style="fill: #c9d1d9; stroke: #c9d1d9; stroke-width: 0.8"/>
      </g>
     </g>
     <g id="text_7">
      <!-- 0 -->
      <g style="fill: #c9d1d9" transform="translate(35.53875 459.037031) scale(0.1 -0.1)">
       <use xlink:href="#DejaVuSans-30"/>
      </g>
     </g>
    </g>
    <g id="ytick_2">
     <g id="line2d_13">
      <path d="M 48.90125 399.659146 
L 848.35125 399.659146 
" clip-path="url(#pbd0d98b65f)" style="fill: none; stroke: #30363d; stroke-opacity: 0.25; stroke-width: 0.5; stroke-linecap: square"/>
     </g>
     <g id="line2d_14">
      <g>
       <use xlink:href="#mf10edab731" x="48.90125" y="399.659146" style="fill: #c9d1d9; stroke: #c9d1d9; stroke-width: 0.8"/>
      </g>
     </g>
     <g id="text_8">
      <!-- 100 -->
      <g style="fill: #c9d1d9" transform="translate(22.81375 403.458365) scale(0.1 -0.1)">
       <defs>
        <path id="DejaVuSans-31" d="M 794 531 
L 1825 531 
L 1825 4091 
L 703 3866 
L 703 4441 
L 1819 4666 
L 2450 4666 
L 2450 531 
L 3481 531 
L 3481 0 
L 794 0 
L 794 531 
z
" transform="scale(0.015625)"/>
       </defs>
       <use xlink:href="#DejaVuSans-31"/>
       <use xlink:href="#DejaVuSans-30" transform="translate(63.623047 0)"/>
       <use xlink:href="#DejaVuSans-30" transform="translate(127.246094 0)"/>
      </g>
     </g>
    </g>
    <g id="ytick_3">
     <g id="line2d_15">
      <path d="M 48.90125 344.080479 
L 848.35125 344.080479 
" clip-path="url(#pbd0d98b65f)" style="fill: none; stroke: #30363d; stroke-opacity: 0.25; stroke-width: 0.5; stroke-linecap: square"/>
     </g>
     <g id="line2d_16">
      <g>
       <use xlink:href="#mf10edab731" x="48.90125" y="344.080479" style="fill: #c9d1d9; stroke: #c9d1d9; stroke-width: 0.8"/>
      </g>
     </g>
     <g id="text_9">
      <!-- 200 -->
      <g style="fill: #c9d1d9" transform="translate(22.81375 347.879698) scale(0.1 -0.1)">
       <use xlink:href="#DejaVuSans-32"/>
       <use xlink:href="#DejaVuSans-30" transform="translate(63.623047 0)"/>
       <use xlink:href="#DejaVuSans-30" transform="translate(127.246094 0)"/>
      </g>
     </g>
    </g>
    <g id="ytick_4">
     <g id="line2d_17">
      <path d="M 48.90125 288.501812 
L 848.35125 288.501812 
" clip-path="url(#pbd0d98b65f)" style="fill: none; stroke: #30363d; stroke-opacity: 0.25; stroke-width: 0.5; stroke-linecap: square"/>
     </g>
     <g id="line2d_18">
      <g>
       <use xlink:href="#mf10edab731" x="48.90125" y="288.501812" style="fill: #c9d1d9; stroke: #c9d1d9; stroke-width: 0.8"/>
      </g>
     </g>
     <g id="text_10">
      <!-- 300 -->
      <g style="fill: #c9d1d9" transform="translate(22.81375 292.301031) scale(0.1 -0.1)">
       <defs>
        <path id="DejaVuSans-33" d="M 2597 2516 
Q 3050 2419 3304 2112 
Q 3559 1806 3559 1356 
Q 3559 666 3084 287 
Q 2609 -91 1734 -91 
Q 1441 -91 1130 -33 
Q 819 25 488 141 
L 488 750 
Q 750 597 1062 519 
Q 1375 441 1716 441 
Q 2309 441 2620 675 
Q 2931 909 2931 1356 
Q 2931 1769 2642 2001 
Q 2353 2234 1838 2234 
L 1294 2234 
L 1294 2753 
L 1863 2753 
Q 2328 2753 2575 2939 
Q 2822 3125 2822 3475 
Q 2822 3834 2567 4026 
Q 2313 4219 1838 4219 
Q 1578 4219 1281 4162 
Q 984 4106 628 3988 
L 628 4550 
Q 988 4650 1302 4700 
Q 1616 4750 1894 4750 
Q 2613 4750 3031 4423 
Q 3450 4097 3450 3541 
Q 3450 3153 3228 2886 
Q 3006 2619 2597 2516 
z
" transform="scale(0.015625)"/>
       </defs>
       <use xlink:href="#DejaVuSans-33"/>
       <use xlink:href="#DejaVuSans-30" transform="translate(63.623047 0)"/>
       <use xlink:href="#DejaVuSans-30" transform="translate(127.246094 0)"/>
      </g>
     </g>
    </g>
    <g id="ytick_5">
     <g id="line2d_19">
      <path d="M 48.90125 232.923146 
L 848.35125 232.923146 
" clip-path="url(#pbd0d98b65f)" style="fill: none; stroke: #30363d; stroke-opacity: 0.25; stroke-width: 0.5; stroke-linecap: square"/>
     </g>
     <g id="line2d_20">
      <g>
       <use xlink:href="#mf10edab731" x="48.90125" y="232.923146" style="fill: #c9d1d9; stroke: #c9d1d9; stroke-width: 0.8"/>
      </g>
     </g>
     <g id="text_11">
      <!-- 400 -->
      <g style="fill: #c9d1d9" transform="translate(22.81375 236.722365) scale(0.1 -0.1)">
       <defs>
        <path id="DejaVuSans-34" d="M 2419 4116 
L 825 1625 
L 2419 1625 
L 2419 4116 
z
M 2253 4666 
L 3047 4666 
L 3047 1625 
L 3713 1625 
L 3713 1100 
L 3047 1100 
L 3047 0 
L 2419 0 
L 2419 1100 
L 313 1100 
L 313 1709 
L 2253 4666 
z
" transform="scale(0.015625)"/>
       </defs>
       <use xlink:href="#DejaVuSans-34"/>
       <use xlink:href="#DejaVuSans-30" transform="translate(63.623047 0)"/>
       <use xlink:href="#DejaVuSans-30" transform="translate(127.246094 0)"/>
      </g>
     </g>
    </g>
    <g id="ytick_6">
     <g id="line2d_21">
      <path d="M 48.90125 177.344479 
L 848.35125 177.344479 
" clip-path="url(#pbd0d98b65f)" style="fill: none; stroke: #30363d; stroke-opacity: 0.25; stroke-width: 0.5; stroke-linecap: square"/>
     </g>
     <g id="line2d_22">
      <g>
       <use xlink:href="#mf10edab731" x="48.90125" y="177.344479" style="fill: #c9d1d9; stroke: #c9d1d9; stroke-width: 0.8"/>
      </g>
     </g>
     <g id="text_12">
      <!-- 500 -->
      <g style="fill: #c9d1d9" transform="translate(22.81375 181.143698) scale(0.1 -0.1)">
       <defs>
        <path id="DejaVuSans-35" d="M 691 4666 
L 3169 4666 
L 3169 4134 
L 1269 4134 
L 1269 2991 
Q 1406 3038 1543 3061 
Q 1681 3084 1819 3084 
Q 2600 3084 3056 2656 
Q 3513 2228 3513 1497 
Q 3513 744 3044 326 
Q 2575 -91 1722 -91 
Q 1428 -91 1123 -41 
Q 819 9 494 109 
L 494 744 
Q 775 591 1075 516 
Q 1375 441 1709 441 
Q 2250 441 2565 725 
Q 2881 1009 2881 1497 
Q 2881 1984 2565 2268 
Q 2250 2553 1709 2553 
Q 1456 2553 1204 2497 
Q 953 2441 691 2322 
L 691 4666 
z
" transform="scale(0.015625)"/>
       </defs>
       <use xlink:href="#DejaVuSans-35"/>
       <use xlink:href="#DejaVuSans-30" transform="translate(63.623047 0)"/>
       <use xlink:href="#DejaVuSans-30" transform="translate(127.246094 0)"/>
      </g>
     </g>
    </g>
    <g id="ytick_7">
     <g id="line2d_23">
      <path d="M 48.90125 121.765812 
L 848.35125 121.765812 
" clip-path="url(#pbd0d98b65f)" style="fill: none; stroke: #30363d; stroke-opacity: 0.25; stroke-width: 0.5; stroke-linecap: square"/>
     </g>
     <g id="line2d_24">
      <g>
       <use xlink:href="#mf10edab731" x="48.90125" y="121.765812" style="fill: #c9d1d9; stroke: #c9d1d9; stroke-width: 0.8"/>
      </g>
     </g>
     <g id="text_13">
      <!-- 600 -->
      <g style="fill: #c9d1d9" transform="translate(22.81375 125.565031) scale(0.1 -0.1)">
       <use xlink:href="#DejaVuSans-36"/>
       <use xlink:href="#DejaVuSans-30" transform="translate(63.623047 0)"/>
       <use xlink:href="#DejaVuSans-30" transform="translate(127.246094 0)"/>
      </g>
     </g>
    </g>
    <g id="ytick_8">
     <g id="line2d_25">
      <path d="M 48.90125 66.187146 
L 848.35125 66.187146 
" clip-path="url(#pbd0d98b65f)" style="fill: none; stroke: #30363d; stroke-opacity: 0.25; stroke-width: 0.5; stroke-linecap: square"/>
     </g>
     <g id="line2d_26">
      <g>
       <use xlink:href="#mf10edab731" x="48.90125" y="66.187146" style="fill: #c9d1d9; stroke: #c9d1d9; stroke-width: 0.8"/>
      </g>
     </g>
     <g id="text_14">
      <!-- 700 -->
      <g style="fill: #c9d1d9" transform="translate(22.81375 69.986365) scale(0.1 -0.1)">
       <defs>
        <path id="DejaVuSans-37" d="M 525 4666 
L 3525 4666 
L 3525 4397 
L 1831 0 
L 1172 0 
L 2766 4134 
L 525 4134 
L 525 4666 
z
" transform="scale(0.015625)"/>
       </defs>
       <use xlink:href="#DejaVuSans-37"/>
       <use xlink:href="#DejaVuSans-30" transform="translate(63.623047 0)"/>
       <use xlink:href="#DejaVuSans-30" transform="translate(127.246094 0)"/>
      </g>
     </g>
    </g>
    <g id="text_15">
     <!-- Count -->
     <g style="fill: #c9d1d9" transform="translate(16.318125 264.635937) rotate(-90) scale(0.12 -0.12)">
      <defs>
       <path id="DejaVuSans-43" d="M 4122 4306 
L 4122 3641 
Q 3803 3938 3442 4084 
Q 3081 4231 2675 4231 
Q 1875 4231 1450 3742 
Q 1025 3253 1025 2328 
Q 1025 1406 1450 917 
Q 1875 428 2675 428 
Q 3081 428 3442 575 
Q 3803 722 4122 1019 
L 4122 359 
Q 3791 134 3420 21 
Q 3050 -91 2638 -91 
Q 1578 -91 968 557 
Q 359 1206 359 2328 
Q 359 3453 968 4101 
Q 1578 4750 2638 4750 
Q 3056 4750 3426 4639 
Q 3797 4528 4122 4306 
z
" transform="scale(0.015625)"/>
       <path id="DejaVuSans-75" d="M 544 1381 
L 544 3500 
L 1119 3500 
L 1119 1403 
Q 1119 906 1312 657 
Q 1506 409 1894 409 
Q 2359 409 2629 706 
Q 2900 1003 2900 1516 
L 2900 3500 
L 3475 3500 
L 3475 0 
L 2900 0 
L 2900 538 
Q 2691 219 2414 64 
Q 2138 -91 1772 -91 
Q 1169 -91 856 284 
Q 544 659 544 1381 
z
M 1991 3584 
L 1991 3584 
z
" transform="scale(0.015625)"/>
       <path id="DejaVuSans-6e" d="M 3513 2113 
L 3513 0 
L 2938 0 
L 2938 2094 
Q 2938 2591 2744 2837 
Q 2550 3084 2163 3084 
Q 1697 3084 1428 2787 
Q 1159 2491 1159 1978 
L 1159 0 
L 581 0 
L 581 3500 
L 1159 3500 
L 1159 2956 
Q 1366 3272 1645 3428 
Q 1925 3584 2291 3584 
Q 2894 3584 3203 3211 
Q 3513 2838 3513 2113 
z
" transform="scale(0.015625)"/>
      </defs>
      <use xlink:href="#DejaVuSans-43"/>
      <use xlink:href="#DejaVuSans-6f" transform="translate(69.824219 0)"/>
      <use xlink:href="#DejaVuSans-75" transform="translate(131.005859 0)"/>
      <use xlink:href="#DejaVuSans-6e" transform="translate(194.384766 0)"/>
      <use xlink:href="#DejaVuSans-74" transform="translate(257.763672 0)"/>
     </g>
    </g>
   </g>
   <g id="line2d_27">
    <path d="M 85.239886 454.682026 
L 85.289808 454.682026 
L 85.410252 454.126239 
L 85.47812 454.126239 
L 85.645017 257.933546 
L 87.74445 257.933546 
L 87.754042 261.268266 
L 90.293958 261.268266 
L 90.458411 260.712479 
L 90.769491 260.712479 
L 91.055263 260.156692 
L 92.826031 259.600906 
L 92.860991 260.156692 
L 92.925421 259.600906 
L 98.429416 259.600906 
L 101.737544 260.712479 
L 102.229758 259.600906 
L 102.58916 259.600906 
L 103.49498 259.045119 
L 103.873958 256.821972 
L 104.611886 256.821972 
L 105.687227 260.712479 
L 105.756996 256.821972 
L 106.582158 256.266186 
L 108.729672 256.266186 
L 109.296119 255.710399 
L 110.137509 255.710399 
L 110.413659 254.598826 
L 115.60745 254.598826 
L 115.989957 253.487252 
L 116.009564 252.375679 
L 117.661003 252.375679 
L 120.09613 251.264106 
L 121.373538 251.264106 
L 121.392873 250.708319 
L 124.326487 250.708319 
L 125.05422 247.929386 
L 127.35732 247.929386 
L 127.373306 247.373599 
L 140.271815 247.373599 
L 142.682871 246.817812 
L 142.765188 247.373599 
L 145.26577 246.817812 
L 153.967585 246.817812 
L 158.185243 246.262026 
L 158.266716 245.706239 
L 158.467064 245.150452 
L 160.846387 245.150452 
L 161.859048 244.594666 
L 166.03514 244.594666 
L 166.193681 247.373599 
L 166.201464 245.150452 
L 166.404497 245.150452 
L 167.534283 242.927306 
L 172.348884 242.927306 
L 176.132002 242.371519 
L 180.33669 242.371519 
L 180.521202 241.815732 
L 191.447057 241.815732 
L 191.913359 241.259946 
L 194.566299 241.259946 
L 194.585001 240.148372 
L 199.639796 240.148372 
L 199.742323 236.257866 
L 208.891226 236.257866 
L 208.893971 235.702079 
L 209.15893 235.702079 
L 210.312033 235.146292 
L 211.483868 235.146292 
L 211.856572 234.590506 
L 211.893855 235.146292 
L 212.74731 234.590506 
L 212.751201 234.034719 
L 212.77114 234.590506 
L 213.264137 234.034719 
L 217.75502 234.034719 
L 219.151274 233.478932 
L 220.808053 233.478932 
L 223.622067 232.923146 
L 226.286047 232.923146 
L 228.344246 231.811572 
L 232.848491 231.811572 
L 235.468642 230.699999 
L 236.206872 231.255786 
L 239.863905 231.255786 
L 243.989202 229.032639 
L 250.141569 229.032639 
L 252.049643 228.476852 
L 286.053788 228.476852 
L 286.3284 227.921066 
L 298.728934 227.921066 
L 298.93613 227.365279 
L 320.036849 227.365279 
L 324.683166 226.809492 
L 324.710042 227.365279 
L 328.036118 225.697919 
L 332.91732 225.697919 
L 335.582627 225.142132 
L 335.587001 224.586346 
L 341.148187 224.586346 
L 343.144158 225.142132 
L 343.861665 224.586346 
L 353.168596 224.586346 
L 353.564678 225.142132 
L 354.290239 224.586346 
L 354.539573 222.363199 
L 358.804649 222.363199 
L 358.808329 221.807412 
L 371.859376 221.807412 
L 372.619384 221.251626 
L 375.127568 221.251626 
L 375.372257 220.695839 
L 387.602999 220.695839 
L 387.619619 220.140052 
L 390.678715 220.140052 
L 390.683269 219.584266 
L 391.425571 219.584266 
L 391.464332 219.028479 
L 392.617043 219.028479 
L 392.798146 218.472692 
L 395.265307 218.472692 
L 395.640334 217.361119 
L 396.998521 215.137972 
L 400.28285 215.137972 
L 400.525337 212.359039 
L 401.626649 212.359039 
L 402.167155 211.247466 
L 404.952363 211.247466 
L 405.866267 210.691679 
L 408.482316 210.691679 
L 408.83294 210.135892 
L 415.938364 210.135892 
L 416.113435 209.580106 
L 416.770614 209.580106 
L 417.790906 209.024319 
L 429.283448 209.024319 
L 429.386699 208.468532 
L 429.755181 208.468532 
L 430.524419 207.356959 
L 431.602897 207.356959 
L 431.862215 206.801172 
L 432.112062 206.801172 
L 432.206867 206.245386 
L 435.091013 206.245386 
L 435.58202 205.689599 
L 438.092435 205.689599 
L 438.253389 205.133812 
L 439.628498 205.133812 
L 439.716607 204.578026 
L 443.990129 204.578026 
L 444.082008 204.022239 
L 446.574385 204.022239 
L 447.406847 201.799092 
L 448.3298 201.799092 
L 448.330765 201.243306 
L 452.07832 201.243306 
L 452.765362 200.687519 
L 455.634817 200.687519 
L 456.199997 200.131732 
L 456.412592 200.131732 
L 456.964831 199.575946 
L 458.375473 199.575946 
L 458.538509 199.020159 
L 462.076395 199.020159 
L 462.988338 198.464372 
L 463.054759 197.908586 
L 463.350003 197.908586 
L 464.281884 195.685439 
L 467.171912 195.685439 
L 467.192725 195.129652 
L 469.943184 195.129652 
L 470.205278 194.573866 
L 470.517956 194.573866 
L 470.832474 194.018079 
L 470.898081 194.573866 
L 471.1336 194.018079 
L 472.179983 194.018079 
L 472.189998 193.462292 
L 472.467867 193.462292 
L 472.589548 192.906506 
L 473.430335 192.350719 
L 479.280189 192.350719 
L 480.194515 191.794932 
L 480.806569 191.794932 
L 481.303126 191.239146 
L 481.805445 191.794932 
L 483.873688 191.794932 
L 483.962883 190.683359 
L 486.932 190.683359 
L 488.084017 189.015999 
L 500.588345 189.015999 
L 501.315082 188.460212 
L 520.616197 188.460212 
L 520.734772 187.904426 
L 549.095746 187.904426 
L 549.220684 187.348639 
L 549.229643 186.792852 
L 549.238541 187.348639 
L 553.372103 187.348639 
L 554.305402 186.792852 
L 570.590224 186.792852 
L 573.941276 186.237066 
L 573.973853 185.681279 
L 574.251269 185.681279 
L 575.120229 185.125492 
L 601.256289 185.125492 
L 601.509967 184.569706 
L 624.751987 184.569706 
L 627.735251 184.013919 
L 629.560072 184.013919 
L 629.758098 183.458132 
L 631.026427 182.902346 
L 634.583256 182.902346 
L 636.081252 182.346559 
L 637.648746 182.346559 
L 637.770819 181.790772 
L 640.349043 181.790772 
L 640.657016 181.234986 
L 640.717977 180.679199 
L 645.30828 180.679199 
L 645.326076 180.123412 
L 649.234495 180.123412 
L 649.243122 179.567626 
L 650.567375 179.011839 
L 652.918284 179.011839 
L 654.610053 178.456052 
L 656.124066 178.456052 
L 658.355526 175.121332 
L 660.960717 175.121332 
L 660.972782 172.342399 
L 674.07176 172.342399 
L 674.073117 171.786612 
L 674.299678 171.230826 
L 675.554313 171.230826 
L 675.827205 170.675039 
L 679.942487 170.675039 
L 680.893824 170.119252 
L 681.050345 170.675039 
L 688.410984 170.675039 
L 688.412643 170.119252 
L 691.384535 170.119252 
L 692.600289 167.340319 
L 700.053441 167.340319 
L 700.133043 166.228746 
L 701.818176 164.561386 
L 703.50904 164.561386 
L 703.689149 164.005599 
L 710.797076 164.005599 
L 710.927776 163.449812 
L 718.064931 163.449812 
L 718.220396 162.894026 
L 720.18744 161.226666 
L 720.339858 160.670879 
L 739.717318 160.670879 
L 741.551912 157.891946 
L 745.929469 157.891946 
L 746.214608 157.336159 
L 749.503431 157.336159 
L 750.72754 156.224586 
L 768.062365 156.224586 
L 768.282139 155.668799 
L 770.819762 155.668799 
L 771.091599 155.113012 
L 787.808307 155.113012 
L 787.816873 153.445652 
L 788.336083 153.445652 
L 788.42386 152.889866 
L 791.403926 152.889866 
L 791.823445 152.334079 
L 791.825949 152.889866 
L 799.377043 152.889866 
L 801.198667 152.334079 
L 812.012614 152.334079 
L 812.012614 152.334079 
" clip-path="url(#pbd0d98b65f)" style="fill: none; stroke: #3fb950; stroke-width: 2; stroke-linecap: square"/>
   </g>
   <g id="line2d_28">
    <path d="M 85.239886 455.237812 
L 85.32148 453.570452 
L 85.410252 453.570452 
L 85.548975 372.981386 
L 86.708775 372.981386 
L 86.734082 370.758239 
L 88.002683 370.758239 
L 88.329538 369.090879 
L 88.774274 370.758239 
L 88.777561 369.090879 
L 89.14556 369.090879 
L 89.287783 367.979306 
L 92.921952 367.979306 
L 92.925421 367.423519 
L 92.945872 367.979306 
L 93.124743 367.423519 
L 93.177198 367.979306 
L 93.420228 367.423519 
L 94.592395 367.423519 
L 94.659117 366.867732 
L 94.840855 366.311946 
L 96.280725 366.311946 
L 97.919285 365.756159 
L 97.976958 365.200372 
L 98.419824 364.644586 
L 98.429416 364.088799 
L 101.737544 367.979306 
L 102.229758 366.311946 
L 102.58916 363.533012 
L 104.611886 363.533012 
L 105.687227 367.979306 
L 105.756996 363.533012 
L 125.406956 363.533012 
L 126.009931 362.977226 
L 127.373306 362.977226 
L 131.096911 362.421439 
L 132.003938 361.865652 
L 144.927634 361.865652 
L 145.26577 361.309866 
L 147.003026 360.754079 
L 148.107204 360.754079 
L 149.331132 360.198292 
L 149.364101 359.086719 
L 150.20543 358.530932 
L 150.770882 357.975146 
L 158.560692 357.975146 
L 160.113527 357.419359 
L 160.582967 357.419359 
L 160.846387 356.863572 
L 161.859048 356.863572 
L 162.865102 356.307786 
L 166.03514 356.307786 
L 166.193681 358.530932 
L 166.201464 356.307786 
L 167.412693 356.307786 
L 167.534283 355.751999 
L 169.248735 355.751999 
L 170.935527 355.196212 
L 170.976459 354.640426 
L 176.132002 354.640426 
L 178.306543 354.084639 
L 178.312033 353.528852 
L 185.548217 353.528852 
L 188.566712 352.973066 
L 190.831352 352.973066 
L 191.447057 352.417279 
L 194.903862 352.417279 
L 196.875491 351.861492 
L 196.983569 351.305706 
L 198.905819 351.305706 
L 199.128911 350.749919 
L 199.742323 350.194132 
L 201.111671 350.194132 
L 201.976226 349.638346 
L 203.561366 349.638346 
L 204.595925 349.082559 
L 206.802953 349.082559 
L 207.554847 347.970986 
L 213.264137 347.970986 
L 214.890089 347.415199 
L 216.796685 347.415199 
L 217.22664 346.859412 
L 217.358124 346.303626 
L 217.75502 345.747839 
L 224.320601 345.747839 
L 225.52269 345.192052 
L 226.286047 344.636266 
L 244.956044 344.636266 
L 249.147007 344.080479 
L 249.197079 343.524692 
L 252.049643 343.524692 
L 254.487786 342.968906 
L 258.797173 342.968906 
L 259.16131 342.413119 
L 266.500383 342.413119 
L 272.245448 341.857332 
L 272.300587 341.301546 
L 273.051667 341.301546 
L 274.573402 340.745759 
L 274.658283 339.078399 
L 274.725247 338.522612 
L 277.903882 337.966826 
L 278.094216 337.411039 
L 278.170078 336.299466 
L 278.457961 335.743679 
L 288.801563 335.743679 
L 291.740003 335.187892 
L 293.610523 334.632106 
L 295.075882 334.632106 
L 298.473447 334.076319 
L 298.728934 331.853172 
L 298.93613 331.853172 
L 299.424633 330.741599 
L 305.869106 330.185812 
L 306.074221 329.630026 
L 306.134729 329.074239 
L 307.496234 329.074239 
L 308.781908 328.518452 
L 308.92968 327.962666 
L 309.030035 326.851092 
L 309.881048 326.295306 
L 309.943517 325.739519 
L 311.496231 325.183732 
L 313.537236 324.627946 
L 313.682385 324.072159 
L 313.685461 323.516372 
L 314.095991 322.960586 
L 314.168505 322.404799 
L 317.129176 321.849012 
L 317.659939 321.293226 
L 330.123847 321.293226 
L 332.190794 320.737439 
L 332.378896 320.181652 
L 340.826339 320.181652 
L 341.148187 319.070079 
L 344.667794 319.070079 
L 345.730405 318.514292 
L 345.782317 317.402719 
L 346.055179 316.846932 
L 347.861963 316.291146 
L 347.902654 315.735359 
L 348.120739 315.179572 
L 348.344222 312.956426 
L 348.593165 312.956426 
L 348.602334 312.400639 
L 350.110677 311.844852 
L 350.703668 311.289066 
L 350.847157 310.733279 
L 353.564678 310.177492 
L 355.567375 310.177492 
L 356.262803 309.621706 
L 363.79245 309.621706 
L 366.28697 309.065919 
L 366.296893 308.510132 
L 366.74552 307.954346 
L 372.619384 307.954346 
L 374.267476 307.398559 
L 374.946404 306.842772 
L 375.127568 305.731199 
L 379.878915 305.731199 
L 380.202633 305.175412 
L 382.811745 305.175412 
L 384.060859 304.619626 
L 387.619619 304.619626 
L 389.771055 304.063839 
L 394.238892 304.063839 
L 394.788025 303.508052 
L 396.998521 303.508052 
L 397.600199 302.952266 
L 397.861207 302.396479 
L 397.989765 301.840692 
L 399.809338 301.840692 
L 399.861069 300.729119 
L 400.525337 300.729119 
L 400.961476 299.061759 
L 402.544263 299.061759 
L 402.740841 298.505972 
L 402.89344 298.505972 
L 403.651035 297.950186 
L 404.908233 297.950186 
L 404.952363 297.394399 
L 405.866267 297.394399 
L 406.088242 296.838612 
L 406.947218 296.838612 
L 408.262391 295.727039 
L 408.83294 295.727039 
L 411.039576 294.615466 
L 411.042894 294.059679 
L 411.464192 293.503892 
L 412.539111 292.948106 
L 412.706248 292.392319 
L 413.77797 291.836532 
L 415.529885 291.836532 
L 416.113435 290.724959 
L 418.25006 290.724959 
L 418.310719 290.169172 
L 418.919426 290.169172 
L 418.966149 289.613386 
L 419.300184 289.057599 
L 420.462457 289.057599 
L 420.550867 288.501812 
L 420.749978 288.501812 
L 420.870151 287.946026 
L 420.879713 287.946026 
L 420.974729 287.390239 
L 422.516825 287.390239 
L 422.840483 286.834452 
L 423.112259 286.834452 
L 423.274692 286.278666 
L 423.689505 286.278666 
L 424.000072 285.722879 
L 424.065557 285.167092 
L 424.154329 285.167092 
L 425.715519 284.611306 
L 426.883795 284.611306 
L 426.972235 284.055519 
L 431.580787 284.055519 
L 431.602897 283.499732 
L 431.862215 283.499732 
L 432.47243 282.388159 
L 434.028914 282.388159 
L 434.173248 280.720799 
L 434.215356 279.609226 
L 434.487404 279.053439 
L 435.58202 279.053439 
L 436.098274 278.497652 
L 436.598661 278.497652 
L 436.760008 277.941866 
L 437.535671 277.386079 
L 438.253389 277.386079 
L 439.696276 276.830292 
L 439.792258 276.274506 
L 440.157542 276.274506 
L 440.230629 275.718719 
L 441.513286 275.718719 
L 441.548909 275.162932 
L 447.769326 275.162932 
L 447.88428 274.607146 
L 448.050483 274.607146 
L 448.132528 273.495572 
L 448.933499 273.495572 
L 449.103955 272.939786 
L 449.658728 272.383999 
L 449.798175 271.828212 
L 450.052969 271.828212 
L 450.26858 271.272426 
L 450.338862 270.716639 
L 453.464469 270.716639 
L 454.253404 270.160852 
L 454.409231 269.049279 
L 454.601254 268.493492 
L 454.921805 268.493492 
L 455.117176 267.937706 
L 459.60278 267.937706 
L 459.898898 266.270346 
L 460.511797 266.270346 
L 460.601776 265.714559 
L 462.996754 265.714559 
L 463.054759 264.602986 
L 465.931243 264.602986 
L 465.961045 264.047199 
L 467.346711 264.047199 
L 467.356032 263.491412 
L 468.030797 263.491412 
L 468.142705 262.935626 
L 470.103113 262.935626 
L 470.205278 262.379839 
L 470.335435 262.379839 
L 470.517956 261.824052 
L 470.888458 261.824052 
L 470.898081 261.268266 
L 471.1336 261.268266 
L 471.58289 260.712479 
L 475.211841 260.712479 
L 475.475594 260.156692 
L 476.552352 260.156692 
L 476.554343 259.600906 
L 484.786838 259.600906 
L 486.184118 259.045119 
L 486.224628 258.489332 
L 486.932 257.933546 
L 488.007612 257.933546 
L 488.084017 256.821972 
L 488.278574 256.821972 
L 488.359564 256.266186 
L 491.2162 256.266186 
L 491.732062 255.710399 
L 496.67329 255.710399 
L 496.688493 255.154612 
L 498.302349 255.154612 
L 498.992045 254.598826 
L 506.588023 254.598826 
L 506.682828 253.487252 
L 509.670194 253.487252 
L 510.264391 252.931466 
L 510.900697 252.931466 
L 511.678562 252.375679 
L 516.82026 252.375679 
L 517.312624 251.819892 
L 517.739261 251.819892 
L 517.948447 251.264106 
L 519.586404 250.708319 
L 520.388219 250.708319 
L 520.734772 250.152532 
L 523.03594 249.596746 
L 527.272843 249.596746 
L 527.604404 249.040959 
L 543.957698 249.040959 
L 544.555214 248.485172 
L 548.336944 248.485172 
L 548.473617 247.929386 
L 548.719271 247.929386 
L 548.793323 247.373599 
L 569.912684 247.373599 
L 570.590224 246.817812 
L 575.632803 246.817812 
L 576.728203 246.262026 
L 576.801622 245.706239 
L 579.425242 245.706239 
L 579.534103 245.150452 
L 588.032282 245.150452 
L 588.049686 244.594666 
L 595.223552 244.594666 
L 595.300771 244.038879 
L 595.766712 243.483092 
L 597.527134 243.483092 
L 597.531176 242.927306 
L 597.888919 242.371519 
L 600.532085 242.371519 
L 601.405328 241.815732 
L 607.041501 241.815732 
L 607.081197 240.704159 
L 642.807758 240.704159 
L 645.326076 240.148372 
L 648.494425 240.148372 
L 648.599697 239.592586 
L 662.646483 239.592586 
L 662.670071 239.036799 
L 677.339077 239.036799 
L 677.490288 238.481012 
L 678.363018 238.481012 
L 678.385762 237.925226 
L 678.583003 237.369439 
L 679.350281 236.257866 
L 679.463063 235.146292 
L 679.528247 234.034719 
L 679.724765 233.478932 
L 679.770222 232.923146 
L 679.942487 232.367359 
L 681.050345 232.367359 
L 681.188073 231.811572 
L 681.194558 231.255786 
L 681.610004 230.699999 
L 688.412643 230.699999 
L 689.145866 229.588426 
L 710.602459 229.588426 
L 710.738799 229.032639 
L 723.835575 229.032639 
L 724.14575 227.921066 
L 725.550208 227.921066 
L 725.73834 227.365279 
L 734.082653 227.365279 
L 734.291175 226.809492 
L 737.57101 226.809492 
L 738.446968 226.253706 
L 738.529345 225.697919 
L 743.450364 225.697919 
L 743.603657 224.586346 
L 744.238515 224.030559 
L 744.83235 224.030559 
L 745.929469 223.474772 
L 749.0834 223.474772 
L 749.131481 222.918986 
L 749.503431 222.363199 
L 752.07692 222.363199 
L 754.804002 221.807412 
L 768.282139 221.807412 
L 769.875272 221.251626 
L 770.465096 220.695839 
L 770.819762 219.584266 
L 772.716404 219.584266 
L 780.444168 218.472692 
L 782.38325 218.472692 
L 782.59687 217.361119 
L 782.859205 217.361119 
L 782.992288 216.805332 
L 793.852325 216.805332 
L 793.865054 216.249546 
L 812.012614 216.249546 
L 812.012614 216.249546 
" clip-path="url(#pbd0d98b65f)" style="fill: none; stroke: #58a6ff; stroke-width: 2; stroke-linecap: square"/>
   </g>
   <g id="line2d_29">
    <path d="M 85.239886 455.237812 
L 87.74445 455.237812 
L 87.754042 454.126239 
L 89.821713 454.126239 
L 90.293958 453.570452 
L 217.75502 453.570452 
L 219.151274 453.014666 
L 254.487786 453.014666 
L 255.468442 452.458879 
L 288.801563 452.458879 
L 291.740003 451.903092 
L 299.424633 451.903092 
L 306.134729 450.235732 
L 307.496234 449.124159 
L 309.943517 449.124159 
L 311.496231 448.568372 
L 313.685461 448.012586 
L 314.168505 448.012586 
L 317.129176 447.456799 
L 317.659939 446.901012 
L 320.036849 446.345226 
L 324.683166 445.789439 
L 324.710042 446.345226 
L 332.378896 446.345226 
L 332.91732 445.789439 
L 343.861665 445.789439 
L 344.667794 445.233652 
L 348.344222 445.233652 
L 348.602334 444.677866 
L 353.168596 444.677866 
L 353.564678 444.122079 
L 370.292486 444.122079 
L 371.859376 443.566292 
L 372.517913 443.566292 
L 372.619384 443.010506 
L 377.083904 443.010506 
L 377.088157 442.454719 
L 387.602999 442.454719 
L 387.619619 441.898932 
L 390.683269 441.898932 
L 391.464332 441.343146 
L 392.615022 440.787359 
L 392.617043 440.231572 
L 392.798146 440.231572 
L 394.238892 438.564212 
L 395.209444 438.564212 
L 395.265307 436.896852 
L 395.640334 436.896852 
L 396.998521 437.452639 
L 397.975286 437.452639 
L 397.989765 435.229492 
L 401.626649 435.229492 
L 402.167155 434.673706 
L 402.740841 434.673706 
L 402.89344 434.117919 
L 415.938364 434.117919 
L 416.113435 433.562132 
L 416.770614 433.562132 
L 417.790906 433.006346 
L 422.292286 433.006346 
L 422.516825 432.450559 
L 424.065557 432.450559 
L 424.154329 431.894772 
L 429.283448 431.894772 
L 429.386699 431.338986 
L 429.755181 431.338986 
L 430.128911 430.783199 
L 430.502279 430.783199 
L 430.524419 430.227412 
L 432.112062 430.227412 
L 432.206867 429.671626 
L 439.57737 429.671626 
L 439.700318 429.115839 
L 439.716607 429.115839 
L 439.792258 428.560052 
L 440.230629 428.560052 
L 441.1496 428.004266 
L 444.742385 428.004266 
L 444.745552 427.448479 
L 445.432051 427.448479 
L 445.458172 426.892692 
L 447.406847 426.892692 
L 447.865428 426.336906 
L 450.413065 426.336906 
L 451.166256 425.781119 
L 452.631042 425.781119 
L 452.646577 424.669546 
L 452.765362 424.669546 
L 452.914854 424.113759 
L 455.271223 424.113759 
L 455.634817 423.557972 
L 456.199997 423.557972 
L 456.412592 423.002186 
L 457.792105 423.002186 
L 457.984731 422.446399 
L 457.987205 421.890612 
L 458.375473 421.890612 
L 458.538509 421.334826 
L 473.398783 421.334826 
L 473.430335 420.223252 
L 475.475594 420.223252 
L 476.064241 419.667466 
L 476.554343 419.667466 
L 478.853461 419.111679 
L 479.280189 419.111679 
L 480.194515 418.555892 
L 480.806569 418.555892 
L 481.303126 418.000106 
L 481.805445 418.555892 
L 483.422498 418.555892 
L 483.862226 418.000106 
L 483.962883 416.888532 
L 484.781318 416.332746 
L 484.786838 415.221172 
L 488.359564 415.221172 
L 489.140898 414.665386 
L 489.220078 412.998026 
L 490.001019 412.442239 
L 490.432905 411.886452 
L 494.126708 411.886452 
L 494.28344 410.219092 
L 494.471843 410.219092 
L 494.611532 409.663306 
L 495.514275 409.107519 
L 496.935263 409.107519 
L 497.228003 408.551732 
L 497.294605 407.995946 
L 497.443976 407.995946 
L 498.302349 406.884372 
L 499.222014 406.884372 
L 499.523984 406.328586 
L 500.584846 406.328586 
L 500.588345 405.217012 
L 501.315082 405.217012 
L 502.279873 404.661226 
L 504.835926 403.549652 
L 505.178859 402.993866 
L 510.264391 402.993866 
L 510.900697 401.882292 
L 520.616197 401.882292 
L 520.734772 400.770719 
L 525.463707 400.770719 
L 526.186252 400.214932 
L 528.378891 400.214932 
L 528.501959 399.659146 
L 541.991318 399.659146 
L 542.206627 399.103359 
L 543.542764 399.103359 
L 543.957698 398.547572 
L 546.451343 398.547572 
L 546.92033 397.991786 
L 546.923407 397.435999 
L 547.45978 396.880212 
L 549.095746 396.880212 
L 549.220684 396.324426 
L 549.229643 395.212852 
L 549.238541 395.768639 
L 550.337893 395.212852 
L 554.305402 395.212852 
L 555.088003 394.101279 
L 562.246636 394.101279 
L 562.800112 393.545492 
L 564.536734 393.545492 
L 564.675759 392.989706 
L 564.694883 392.433919 
L 570.590224 392.433919 
L 574.251269 391.322346 
L 575.120229 391.322346 
L 575.632803 390.766559 
L 583.216233 390.766559 
L 584.148356 390.210772 
L 585.303359 390.210772 
L 586.421985 389.654986 
L 595.766712 389.654986 
L 596.023165 389.099199 
L 596.024552 388.543412 
L 601.256289 388.543412 
L 601.509967 387.987626 
L 624.751987 387.987626 
L 627.735251 387.431839 
L 634.583256 387.431839 
L 636.081252 386.876052 
L 637.399291 386.876052 
L 637.648746 386.320266 
L 640.717977 386.320266 
L 641.236433 385.764479 
L 641.920217 385.764479 
L 642.807758 385.208692 
L 644.935183 385.208692 
L 645.326076 384.652906 
L 645.587929 384.652906 
L 646.541226 384.097119 
L 655.751181 384.097119 
L 655.776941 382.429759 
L 663.81313 382.429759 
L 667.220889 381.873972 
L 667.223664 381.318186 
L 671.219649 381.318186 
L 671.38739 380.762399 
L 671.389863 380.206612 
L 673.259026 380.206612 
L 674.073117 379.650826 
L 674.655491 379.650826 
L 675.554313 379.095039 
L 676.518862 379.095039 
L 676.685547 377.983466 
L 677.490288 377.983466 
L 677.650669 377.427679 
L 679.461495 377.427679 
L 679.528247 376.871892 
L 682.38247 376.871892 
L 684.450231 376.316106 
L 685.128465 376.316106 
L 685.794272 375.760319 
L 687.169652 375.204532 
L 687.175534 374.648746 
L 687.554814 372.981386 
L 687.901397 372.425599 
L 688.412643 371.869812 
L 689.782745 371.869812 
L 690.613638 370.202452 
L 692.600289 370.202452 
L 693.138201 368.535092 
L 695.324234 368.535092 
L 695.555711 367.979306 
L 697.140127 367.979306 
L 697.484447 366.867732 
L 698.081058 366.311946 
L 700.133043 366.311946 
L 703.689149 365.200372 
L 705.969143 364.644586 
L 706.124034 364.088799 
L 708.280597 364.088799 
L 708.418567 363.533012 
L 710.786187 363.533012 
L 710.797076 362.977226 
L 711.240906 362.977226 
L 711.338185 362.421439 
L 718.064931 362.421439 
L 718.220396 361.865652 
L 720.339858 361.309866 
L 723.825591 361.309866 
L 723.835575 360.754079 
L 736.623715 360.754079 
L 737.57101 358.530932 
L 742.818974 358.530932 
L 742.826727 357.419359 
L 749.503431 357.419359 
L 750.724946 355.751999 
L 750.72754 355.196212 
L 755.447155 355.196212 
L 757.03513 354.084639 
L 757.106196 353.528852 
L 786.777126 353.528852 
L 787.960181 352.973066 
L 791.0787 352.973066 
L 791.403926 351.861492 
L 812.012614 351.861492 
L 812.012614 351.861492 
" clip-path="url(#pbd0d98b65f)" style="fill: none; stroke: #d29922; stroke-width: 2; stroke-linecap: square"/>
   </g>
   <g id="line2d_30">
    <path d="M 85.239886 454.682026 
L 85.45411 454.682026 
L 85.548975 432.450559 
L 86.044748 426.892692 
L 86.328047 425.781119 
L 86.471777 426.336906 
L 86.734082 425.781119 
L 87.177702 425.225332 
L 87.754042 423.002186 
L 88.002683 421.334826 
L 88.329538 421.334826 
L 88.774274 420.779039 
L 88.777561 420.223252 
L 89.135636 419.667466 
L 89.234363 419.111679 
L 89.287783 419.111679 
L 90.203195 418.000106 
L 90.293958 411.886452 
L 90.356729 412.442239 
L 90.644492 405.217012 
L 90.769491 402.993866 
L 92.925421 402.993866 
L 93.124743 399.659146 
L 93.177198 402.438079 
L 93.420228 397.991786 
L 93.540582 397.435999 
L 94.437262 396.880212 
L 94.592395 395.768639 
L 94.840855 395.768639 
L 95.302633 395.212852 
L 95.549313 394.657066 
L 95.661039 393.545492 
L 95.728999 392.989706 
L 95.95945 392.433919 
L 95.965151 391.878132 
L 96.19693 392.433919 
L 96.262898 391.878132 
L 96.271013 392.433919 
L 96.280725 390.766559 
L 98.429416 390.766559 
L 101.737544 402.993866 
L 102.229758 390.210772 
L 102.58916 389.654986 
L 103.873958 389.654986 
L 104.108965 389.099199 
L 104.611886 388.543412 
L 105.687227 402.993866 
L 105.756996 387.987626 
L 106.582158 387.431839 
L 108.346773 386.876052 
L 108.472616 387.431839 
L 108.729672 385.764479 
L 109.296119 385.764479 
L 109.468234 385.208692 
L 109.79331 384.652906 
L 109.820276 383.541332 
L 110.120135 382.429759 
L 110.137509 382.985546 
L 110.315868 382.985546 
L 110.413659 381.873972 
L 111.140487 376.871892 
L 111.329252 377.983466 
L 112.663942 374.648746 
L 113.015381 375.760319 
L 114.461676 373.537172 
L 115.60745 377.427679 
L 116.009564 373.537172 
L 117.661003 371.869812 
L 120.09613 371.869812 
L 120.417737 371.314026 
L 120.673677 369.646666 
L 121.392873 371.314026 
L 124.326487 371.869812 
L 125.05422 369.646666 
L 125.406956 367.979306 
L 126.009931 369.646666 
L 127.373306 367.979306 
L 132.003938 367.979306 
L 136.873075 367.423519 
L 137.197789 366.867732 
L 140.271815 366.311946 
L 142.304496 366.311946 
L 142.682871 365.756159 
L 142.765188 366.311946 
L 144.927634 364.644586 
L 146.955941 364.644586 
L 147.003026 364.088799 
L 148.107204 363.533012 
L 150.770882 363.533012 
L 151.945884 359.642506 
L 152.820424 359.086719 
L 153.945746 358.530932 
L 153.967585 357.975146 
L 158.185243 357.975146 
L 158.266716 354.084639 
L 158.422814 354.084639 
L 158.560692 352.973066 
L 160.113527 352.973066 
L 160.582967 352.417279 
L 162.865102 352.417279 
L 166.03514 351.861492 
L 166.193681 363.533012 
L 166.201464 352.417279 
L 166.404497 351.861492 
L 167.534283 351.861492 
L 169.248735 351.305706 
L 170.976459 351.305706 
L 172.348884 350.749919 
L 176.132002 349.638346 
L 178.312033 349.638346 
L 180.064069 349.082559 
L 180.33669 346.303626 
L 180.521202 346.303626 
L 180.847696 345.747839 
L 182.550716 345.192052 
L 182.944384 342.968906 
L 185.298098 341.857332 
L 185.326452 342.413119 
L 185.548217 341.857332 
L 188.566712 340.745759 
L 190.831352 340.189972 
L 191.913359 340.189972 
L 192.872388 339.634186 
L 193.703493 338.522612 
L 194.585001 337.966826 
L 194.903862 337.411039 
L 196.983569 337.966826 
L 198.905819 336.855252 
L 199.128911 337.411039 
L 199.639796 337.411039 
L 199.742323 336.855252 
L 201.111671 336.299466 
L 201.976226 336.855252 
L 203.561366 335.743679 
L 204.595925 335.743679 
L 206.802953 335.187892 
L 207.168931 335.743679 
L 207.554847 334.076319 
L 208.893971 334.076319 
L 209.15893 333.520532 
L 210.312033 331.297386 
L 210.637832 330.185812 
L 211.483868 330.741599 
L 211.856572 329.630026 
L 211.893855 329.074239 
L 214.890089 329.074239 
L 216.407601 328.518452 
L 216.796685 327.962666 
L 219.151274 327.962666 
L 220.808053 327.406879 
L 223.622067 327.406879 
L 224.320601 326.851092 
L 232.058651 326.851092 
L 232.503055 326.295306 
L 232.547576 325.739519 
L 232.848491 325.183732 
L 236.206872 325.183732 
L 236.416179 324.627946 
L 237.27063 324.072159 
L 237.418614 323.516372 
L 238.834263 322.960586 
L 239.863905 322.404799 
L 243.989202 322.404799 
L 244.956044 321.293226 
L 249.197079 321.293226 
L 250.141569 320.737439 
L 254.094057 320.737439 
L 254.487786 320.181652 
L 255.468442 319.625866 
L 255.760368 319.070079 
L 255.859486 318.514292 
L 258.797173 317.958506 
L 259.16131 318.514292 
L 263.028586 317.402719 
L 266.086264 316.291146 
L 266.500383 315.735359 
L 272.300587 315.735359 
L 273.051667 315.179572 
L 278.457961 315.179572 
L 283.550582 314.623786 
L 284.191141 314.067999 
L 286.3284 313.512212 
L 288.471691 312.956426 
L 288.801563 312.400639 
L 293.610523 312.400639 
L 295.075882 311.844852 
L 306.134729 311.844852 
L 307.496234 311.289066 
L 316.631141 311.289066 
L 317.129176 310.733279 
L 317.659939 311.289066 
L 320.036849 310.733279 
L 328.036118 310.733279 
L 329.10808 310.177492 
L 346.030204 310.177492 
L 346.055179 309.621706 
L 356.506285 309.621706 
L 358.802447 309.065919 
L 358.808329 308.510132 
L 370.287388 308.510132 
L 370.292486 307.398559 
L 377.088157 307.398559 
L 380.202633 306.842772 
L 384.060859 306.842772 
L 387.619619 305.731199 
L 394.788025 305.731199 
L 395.209444 305.175412 
L 395.265307 304.619626 
L 397.975286 304.619626 
L 397.989765 304.063839 
L 398.271163 304.063839 
L 398.71973 303.508052 
L 402.740841 303.508052 
L 402.89344 302.952266 
L 408.262391 302.952266 
L 408.482316 302.396479 
L 421.594174 302.396479 
L 422.29129 300.729119 
L 422.292286 300.173332 
L 424.149895 300.173332 
L 424.154329 299.617546 
L 429.63362 299.617546 
L 429.755181 299.061759 
L 432.378198 299.061759 
L 432.47243 298.505972 
L 442.216797 298.505972 
L 442.404174 297.950186 
L 444.66598 297.950186 
L 444.745552 297.394399 
L 445.458172 296.838612 
L 463.350003 296.838612 
L 464.281884 295.727039 
L 465.676781 295.727039 
L 465.961045 295.171252 
L 467.356032 295.171252 
L 467.562775 294.615466 
L 470.858687 294.615466 
L 470.898081 294.059679 
L 489.139359 294.059679 
L 489.220078 292.948106 
L 512.020952 292.948106 
L 512.613128 292.392319 
L 551.543058 292.392319 
L 553.372103 291.836532 
L 569.824183 291.836532 
L 569.912684 291.280746 
L 577.278241 291.280746 
L 577.636255 290.724959 
L 723.414578 290.724959 
L 723.835575 290.169172 
L 742.344739 290.169172 
L 742.826727 289.613386 
L 749.503431 289.613386 
L 750.713152 289.057599 
L 750.72754 285.167092 
L 757.031601 285.167092 
L 757.106196 282.388159 
L 812.012614 282.388159 
L 812.012614 282.388159 
" clip-path="url(#pbd0d98b65f)" style="fill: none; stroke: #f85149; stroke-width: 2; stroke-linecap: square"/>
   </g>
   <g id="line2d_31">
    <path d="M 85.239886 454.682026 
L 85.256929 454.126239 
L 85.391296 -1 
M 85.512065 -1 
L 85.645017 101.201706 
L 87.74445 101.201706 
L 87.754042 97.866986 
L 90.293958 97.866986 
L 90.458411 98.422772 
L 90.769491 98.422772 
L 91.055263 98.978559 
L 92.826031 99.534346 
L 92.860991 98.978559 
L 92.925421 99.534346 
L 98.429416 99.534346 
L 101.737544 98.422772 
L 102.229758 99.534346 
L 102.58916 98.978559 
L 103.49498 99.534346 
L 103.873958 96.755412 
L 104.611886 96.755412 
L 105.687227 98.422772 
L 105.756996 95.643839 
L 106.582158 96.199626 
L 108.729672 96.199626 
L 109.296119 95.088052 
L 110.137509 95.088052 
L 110.413659 91.197546 
L 115.60745 91.197546 
L 116.009564 86.751252 
L 117.661003 86.751252 
L 120.09613 82.860746 
L 121.373538 82.860746 
L 121.392873 83.416532 
L 124.326487 83.416532 
L 125.05422 80.081812 
L 127.35732 80.081812 
L 127.373306 80.637599 
L 140.271815 80.637599 
L 142.682871 81.193386 
L 142.765188 80.637599 
L 145.26577 81.193386 
L 153.967585 81.193386 
L 158.185243 81.749172 
L 158.266716 74.523946 
L 158.467064 75.079732 
L 160.846387 75.079732 
L 161.859048 75.635519 
L 166.03514 75.635519 
L 166.193681 80.637599 
L 166.201464 71.745012 
L 166.404497 71.745012 
L 167.534283 73.968159 
L 172.348884 73.968159 
L 176.132002 70.077652 
L 180.33669 70.077652 
L 180.521202 68.410292 
L 191.447057 68.410292 
L 191.913359 68.966079 
L 194.566299 68.966079 
L 194.585001 70.077652 
L 199.639796 70.077652 
L 199.742323 73.412372 
L 207.554847 73.412372 
L 207.741441 68.410292 
L 208.891226 67.298719 
L 208.893971 67.854506 
L 209.15893 67.854506 
L 210.102937 65.075572 
L 211.483868 65.075572 
L 211.856572 65.631359 
L 211.893855 65.075572 
L 212.74731 65.631359 
L 212.751201 66.187146 
L 212.77114 65.631359 
L 213.264137 63.408212 
L 217.75502 63.408212 
L 219.151274 63.963999 
L 220.808053 63.963999 
L 223.622067 64.519786 
L 226.286047 64.519786 
L 228.344246 65.631359 
L 232.547576 65.075572 
L 232.848491 65.075572 
L 235.468642 66.187146 
L 236.206872 65.631359 
L 239.863905 65.631359 
L 243.98697 67.854506 
L 243.989202 67.298719 
L 250.141569 67.298719 
L 252.049643 67.854506 
L 286.053788 67.854506 
L 286.3284 68.410292 
L 288.456398 68.410292 
L 288.471691 66.742932 
L 298.728934 66.742932 
L 298.93613 67.298719 
L 320.036849 67.298719 
L 324.683166 67.854506 
L 324.710042 67.298719 
L 328.036118 68.966079 
L 329.10808 68.966079 
L 330.123847 68.410292 
L 332.91732 68.410292 
L 335.582627 68.966079 
L 335.587001 69.521866 
L 343.144158 67.854506 
L 343.861665 68.410292 
L 353.168596 68.410292 
L 353.564678 67.854506 
L 354.290239 68.410292 
L 354.539573 70.633439 
L 358.804649 70.633439 
L 358.808329 71.189226 
L 371.859376 71.189226 
L 372.619384 71.745012 
L 375.127568 71.745012 
L 375.372257 72.300799 
L 387.602999 72.300799 
L 387.619619 72.856586 
L 389.771055 72.856586 
L 390.678715 73.412372 
L 390.683269 73.968159 
L 391.425571 73.412372 
L 391.464332 73.968159 
L 392.617043 73.968159 
L 392.798146 74.523946 
L 395.209444 74.523946 
L 395.265307 73.412372 
L 395.640334 74.523946 
L 396.998521 72.856586 
L 400.28285 72.856586 
L 400.525337 71.189226 
L 401.626649 71.189226 
L 402.167155 72.300799 
L 404.952363 72.300799 
L 405.866267 72.856586 
L 406.088242 72.856586 
L 406.947218 70.077652 
L 408.482316 70.077652 
L 408.83294 70.633439 
L 415.938364 70.633439 
L 416.113435 71.189226 
L 416.770614 71.189226 
L 417.790906 71.745012 
L 429.283448 71.745012 
L 429.386699 72.300799 
L 429.755181 72.300799 
L 430.524419 73.412372 
L 431.602897 73.412372 
L 431.862215 72.856586 
L 432.112062 72.856586 
L 432.206867 73.412372 
L 435.091013 73.412372 
L 435.58202 73.968159 
L 438.092435 73.968159 
L 438.253389 74.523946 
L 439.628498 74.523946 
L 439.716607 75.079732 
L 443.990129 75.079732 
L 444.082008 75.635519 
L 446.574385 75.635519 
L 447.406847 77.858666 
L 448.3298 77.858666 
L 448.330765 78.414452 
L 452.07832 78.414452 
L 452.765362 78.970239 
L 455.634817 78.970239 
L 456.199997 79.526026 
L 458.375473 79.526026 
L 458.538509 80.081812 
L 462.076395 80.081812 
L 462.988338 80.637599 
L 463.054759 81.193386 
L 463.350003 81.193386 
L 464.281884 60.629279 
L 467.171912 60.629279 
L 467.192725 61.185066 
L 467.356032 61.185066 
L 467.562775 60.629279 
L 469.943184 60.629279 
L 470.205278 61.185066 
L 470.517956 61.185066 
L 470.832474 61.740852 
L 470.898081 61.185066 
L 472.179983 61.185066 
L 472.189998 61.740852 
L 472.467867 61.740852 
L 472.589548 62.296639 
L 473.430335 62.852426 
L 479.280189 62.852426 
L 480.194515 63.408212 
L 480.806569 63.408212 
L 481.303126 63.963999 
L 481.805445 63.408212 
L 483.873688 63.408212 
L 483.962883 64.519786 
L 486.932 64.519786 
L 488.084017 66.187146 
L 500.588345 66.187146 
L 501.315082 66.742932 
L 520.616197 66.742932 
L 520.734772 67.298719 
L 549.095746 67.298719 
L 549.220684 67.854506 
L 549.229643 68.410292 
L 549.238541 67.854506 
L 553.372103 67.854506 
L 554.305402 68.410292 
L 570.590224 68.410292 
L 574.251269 68.966079 
L 575.11302 69.521866 
L 575.120229 67.854506 
L 601.256289 67.854506 
L 601.509967 68.410292 
L 624.751987 68.410292 
L 627.735251 68.966079 
L 629.560072 68.966079 
L 629.758098 69.521866 
L 631.026427 70.077652 
L 634.583256 70.077652 
L 636.081252 70.633439 
L 637.648746 70.633439 
L 637.770819 71.189226 
L 640.349043 71.189226 
L 640.657016 71.745012 
L 640.717977 72.300799 
L 645.30828 72.300799 
L 645.326076 72.856586 
L 648.599697 72.856586 
L 649.234495 72.300799 
L 649.243122 72.856586 
L 650.567375 73.412372 
L 652.918284 73.412372 
L 654.610053 73.968159 
L 656.124066 73.968159 
L 658.355526 61.740852 
L 660.960717 61.740852 
L 660.972782 64.519786 
L 674.07176 64.519786 
L 674.073117 65.075572 
L 674.299678 65.631359 
L 675.554313 65.631359 
L 675.827205 66.187146 
L 679.942487 66.187146 
L 680.893824 66.742932 
L 681.050345 66.187146 
L 688.410984 66.187146 
L 688.412643 66.742932 
L 700.053441 66.742932 
L 700.133043 67.854506 
L 701.818176 69.521866 
L 703.50904 69.521866 
L 703.689149 70.077652 
L 710.797076 70.077652 
L 710.927776 70.633439 
L 718.064931 70.633439 
L 718.220396 71.189226 
L 720.18744 72.856586 
L 720.339858 73.412372 
L 739.717318 73.412372 
L 741.551912 76.191306 
L 745.929469 76.191306 
L 746.214608 76.747092 
L 749.503431 76.747092 
L 750.72754 77.858666 
L 768.062365 77.858666 
L 768.282139 78.414452 
L 770.819762 78.414452 
L 771.091599 78.970239 
L 787.808307 78.970239 
L 787.816873 80.637599 
L 788.336083 80.637599 
L 788.42386 81.193386 
L 791.403926 81.193386 
L 791.823445 81.749172 
L 791.825949 81.193386 
L 799.377043 81.193386 
L 801.198667 81.749172 
L 812.012614 81.749172 
L 812.012614 81.749172 
" clip-path="url(#pbd0d98b65f)" style="fill: none; stroke: #9467bd; stroke-width: 2; stroke-linecap: square"/>
   </g>
   <g id="patch_3">
    <path d="M 48.90125 455.237812 
L 48.90125 38.397812 
" style="fill: none; stroke: #30363d; stroke-width: 0.8; stroke-linejoin: miter; stroke-linecap: square"/>
   </g>
   <g id="patch_4">
    <path d="M 848.35125 455.237812 
L 848.35125 38.397812 
" style="fill: none; stroke: #30363d; stroke-width: 0.8; stroke-linejoin: miter; stroke-linecap: square"/>
   </g>
   <g id="patch_5">
    <path d="M 48.90125 455.237812 
L 848.35125 455.237812 
" style="fill: none; stroke: #30363d; stroke-width: 0.8; stroke-linejoin: miter; stroke-linecap: square"/>
   </g>
   <g id="patch_6">
    <path d="M 48.90125 38.397812 
L 848.35125 38.397812 
" style="fill: none; stroke: #30363d; stroke-width: 0.8; stroke-linejoin: miter; stroke-linecap: square"/>
   </g>
   <g id="text_16">
    <!-- 545 -->
    <g style="fill: #3fb950" transform="translate(817.012614 154.817517) scale(0.09 -0.09)">
     <defs>
      <path id="DejaVuSans-Bold-35" d="M 678 4666 
L 3669 4666 
L 3669 3781 
L 1638 3781 
L 1638 3059 
Q 1775 3097 1914 3117 
Q 2053 3138 2203 3138 
Q 3056 3138 3531 2711 
Q 4006 2284 4006 1522 
Q 4006 766 3489 337 
Q 2972 -91 2053 -91 
Q 1656 -91 1267 -14 
Q 878 63 494 219 
L 494 1166 
Q 875 947 1217 837 
Q 1559 728 1863 728 
Q 2300 728 2551 942 
Q 2803 1156 2803 1522 
Q 2803 1891 2551 2103 
Q 2300 2316 1863 2316 
Q 1603 2316 1309 2248 
Q 1016 2181 678 2041 
L 678 4666 
z
" transform="scale(0.015625)"/>
      <path id="DejaVuSans-Bold-34" d="M 2356 3675 
L 1038 1722 
L 2356 1722 
L 2356 3675 
z
M 2156 4666 
L 3494 4666 
L 3494 1722 
L 4159 1722 
L 4159 850 
L 3494 850 
L 3494 0 
L 2356 0 
L 2356 850 
L 288 850 
L 288 1881 
L 2156 4666 
z
" transform="scale(0.015625)"/>
     </defs>
     <use xlink:href="#DejaVuSans-Bold-35"/>
     <use xlink:href="#DejaVuSans-Bold-34" transform="translate(69.580078 0)"/>
     <use xlink:href="#DejaVuSans-Bold-35" transform="translate(139.160156 0)"/>
    </g>
   </g>
   <g id="text_17">
    <!-- 430 -->
    <g style="fill: #58a6ff" transform="translate(817.012614 218.732983) scale(0.09 -0.09)">
     <defs>
      <path id="DejaVuSans-Bold-33" d="M 2981 2516 
Q 3453 2394 3698 2092 
Q 3944 1791 3944 1325 
Q 3944 631 3412 270 
Q 2881 -91 1863 -91 
Q 1503 -91 1142 -33 
Q 781 25 428 141 
L 428 1069 
Q 766 900 1098 814 
Q 1431 728 1753 728 
Q 2231 728 2486 893 
Q 2741 1059 2741 1369 
Q 2741 1688 2480 1852 
Q 2219 2016 1709 2016 
L 1228 2016 
L 1228 2791 
L 1734 2791 
Q 2188 2791 2409 2933 
Q 2631 3075 2631 3366 
Q 2631 3634 2415 3781 
Q 2200 3928 1806 3928 
Q 1516 3928 1219 3862 
Q 922 3797 628 3669 
L 628 4550 
Q 984 4650 1334 4700 
Q 1684 4750 2022 4750 
Q 2931 4750 3382 4451 
Q 3834 4153 3834 3553 
Q 3834 3144 3618 2883 
Q 3403 2622 2981 2516 
z
" transform="scale(0.015625)"/>
      <path id="DejaVuSans-Bold-30" d="M 2944 2338 
Q 2944 3213 2780 3570 
Q 2616 3928 2228 3928 
Q 1841 3928 1675 3570 
Q 1509 3213 1509 2338 
Q 1509 1453 1675 1090 
Q 1841 728 2228 728 
Q 2613 728 2778 1090 
Q 2944 1453 2944 2338 
z
M 4147 2328 
Q 4147 1169 3647 539 
Q 3147 -91 2228 -91 
Q 1306 -91 806 539 
Q 306 1169 306 2328 
Q 306 3491 806 4120 
Q 1306 4750 2228 4750 
Q 3147 4750 3647 4120 
Q 4147 3491 4147 2328 
z
" transform="scale(0.015625)"/>
     </defs>
     <use xlink:href="#DejaVuSans-Bold-34"/>
     <use xlink:href="#DejaVuSans-Bold-33" transform="translate(69.580078 0)"/>
     <use xlink:href="#DejaVuSans-Bold-30" transform="translate(139.160156 0)"/>
    </g>
   </g>
   <g id="text_18">
    <!-- 186 -->
    <g style="fill: #d29922" transform="translate(817.012614 354.34493) scale(0.09 -0.09)">
     <defs>
      <path id="DejaVuSans-Bold-31" d="M 750 831 
L 1813 831 
L 1813 3847 
L 722 3622 
L 722 4441 
L 1806 4666 
L 2950 4666 
L 2950 831 
L 4013 831 
L 4013 0 
L 750 0 
L 750 831 
z
" transform="scale(0.015625)"/>
      <path id="DejaVuSans-Bold-38" d="M 2228 2088 
Q 1891 2088 1709 1903 
Q 1528 1719 1528 1375 
Q 1528 1031 1709 848 
Q 1891 666 2228 666 
Q 2563 666 2741 848 
Q 2919 1031 2919 1375 
Q 2919 1722 2741 1905 
Q 2563 2088 2228 2088 
z
M 1350 2484 
Q 925 2613 709 2878 
Q 494 3144 494 3541 
Q 494 4131 934 4440 
Q 1375 4750 2228 4750 
Q 3075 4750 3515 4442 
Q 3956 4134 3956 3541 
Q 3956 3144 3739 2878 
Q 3522 2613 3097 2484 
Q 3572 2353 3814 2058 
Q 4056 1763 4056 1313 
Q 4056 619 3595 264 
Q 3134 -91 2228 -91 
Q 1319 -91 855 264 
Q 391 619 391 1313 
Q 391 1763 633 2058 
Q 875 2353 1350 2484 
z
M 1631 3419 
Q 1631 3141 1786 2991 
Q 1941 2841 2228 2841 
Q 2509 2841 2662 2991 
Q 2816 3141 2816 3419 
Q 2816 3697 2662 3845 
Q 2509 3994 2228 3994 
Q 1941 3994 1786 3844 
Q 1631 3694 1631 3419 
z
" transform="scale(0.015625)"/>
      <path id="DejaVuSans-Bold-36" d="M 2316 2303 
Q 2000 2303 1842 2098 
Q 1684 1894 1684 1484 
Q 1684 1075 1842 870 
Q 2000 666 2316 666 
Q 2634 666 2792 870 
Q 2950 1075 2950 1484 
Q 2950 1894 2792 2098 
Q 2634 2303 2316 2303 
z
M 3803 4544 
L 3803 3681 
Q 3506 3822 3243 3889 
Q 2981 3956 2731 3956 
Q 2194 3956 1894 3657 
Q 1594 3359 1544 2772 
Q 1750 2925 1990 3001 
Q 2231 3078 2516 3078 
Q 3231 3078 3670 2659 
Q 4109 2241 4109 1563 
Q 4109 813 3618 361 
Q 3128 -91 2303 -91 
Q 1394 -91 895 523 
Q 397 1138 397 2266 
Q 397 3422 980 4083 
Q 1563 4744 2578 4744 
Q 2900 4744 3203 4694 
Q 3506 4644 3803 4544 
z
" transform="scale(0.015625)"/>
     </defs>
     <use xlink:href="#DejaVuSans-Bold-31"/>
     <use xlink:href="#DejaVuSans-Bold-38" transform="translate(69.580078 0)"/>
     <use xlink:href="#DejaVuSans-Bold-36" transform="translate(139.160156 0)"/>
    </g>
   </g>
   <g id="text_19">
    <!-- 311 -->
    <g style="fill: #f85149" transform="translate(817.012614 284.871597) scale(0.09 -0.09)">
     <use xlink:href="#DejaVuSans-Bold-33"/>
     <use xlink:href="#DejaVuSans-Bold-31" transform="translate(69.580078 0)"/>
     <use xlink:href="#DejaVuSans-Bold-31" transform="translate(139.160156 0)"/>
    </g>
   </g>
   <g id="text_20">
    <!-- 672 -->
    <g style="fill: #9467bd" transform="translate(817.012614 84.23261) scale(0.09 -0.09)">
     <defs>
      <path id="DejaVuSans-Bold-37" d="M 428 4666 
L 3944 4666 
L 3944 3988 
L 2125 0 
L 953 0 
L 2675 3781 
L 428 3781 
L 428 4666 
z
" transform="scale(0.015625)"/>
      <path id="DejaVuSans-Bold-32" d="M 1844 884 
L 3897 884 
L 3897 0 
L 506 0 
L 506 884 
L 2209 2388 
Q 2438 2594 2547 2791 
Q 2656 2988 2656 3200 
Q 2656 3528 2436 3728 
Q 2216 3928 1850 3928 
Q 1569 3928 1234 3808 
Q 900 3688 519 3450 
L 519 4475 
Q 925 4609 1322 4679 
Q 1719 4750 2100 4750 
Q 2938 4750 3402 4381 
Q 3866 4013 3866 3353 
Q 3866 2972 3669 2642 
Q 3472 2313 2841 1759 
L 1844 884 
z
" transform="scale(0.015625)"/>
     </defs>
     <use xlink:href="#DejaVuSans-Bold-36"/>
     <use xlink:href="#DejaVuSans-Bold-37" transform="translate(69.580078 0)"/>
     <use xlink:href="#DejaVuSans-Bold-32" transform="translate(139.160156 0)"/>
    </g>
   </g>
   <g id="text_21">
    <!-- Erdős Problems Progress -->
    <g style="fill: #c9d1d9" transform="translate(349.588281 18.397812) scale(0.14 -0.14)">
     <defs>
      <path id="DejaVuSans-Bold-45" d="M 588 4666 
L 3834 4666 
L 3834 3756 
L 1791 3756 
L 1791 2888 
L 3713 2888 
L 3713 1978 
L 1791 1978 
L 1791 909 
L 3903 909 
L 3903 0 
L 588 0 
L 588 4666 
z
" transform="scale(0.015625)"/>
      <path id="DejaVuSans-Bold-72" d="M 3138 2547 
Q 2991 2616 2845 2648 
Q 2700 2681 2553 2681 
Q 2122 2681 1889 2404 
Q 1656 2128 1656 1613 
L 1656 0 
L 538 0 
L 538 3500 
L 1656 3500 
L 1656 2925 
Q 1872 3269 2151 3426 
Q 2431 3584 2822 3584 
Q 2878 3584 2943 3579 
Q 3009 3575 3134 3559 
L 3138 2547 
z
" transform="scale(0.015625)"/>
      <path id="DejaVuSans-Bold-64" d="M 2919 2988 
L 2919 4863 
L 4044 4863 
L 4044 0 
L 2919 0 
L 2919 506 
Q 2688 197 2409 53 
Q 2131 -91 1766 -91 
Q 1119 -91 703 423 
Q 288 938 288 1747 
Q 288 2556 703 3070 
Q 1119 3584 1766 3584 
Q 2128 3584 2408 3439 
Q 2688 3294 2919 2988 
z
M 2181 722 
Q 2541 722 2730 984 
Q 2919 1247 2919 1747 
Q 2919 2247 2730 2509 
Q 2541 2772 2181 2772 
Q 1825 2772 1636 2509 
Q 1447 2247 1447 1747 
Q 1447 1247 1636 984 
Q 1825 722 2181 722 
z
" transform="scale(0.015625)"/>
      <path id="DejaVuSans-Bold-151" d="M 1881 5119 
L 2560 5119 
L 1785 3944 
L 1275 3944 
L 1881 5119 
z
M 3016 5119 
L 3738 5119 
L 2888 3944 
L 2344 3944 
L 3016 5119 
z
M 2203 2784 
Q 1831 2784 1636 2517 
Q 1441 2250 1441 1747 
Q 1441 1244 1636 976 
Q 1831 709 2203 709 
Q 2569 709 2762 976 
Q 2956 1244 2956 1747 
Q 2956 2250 2762 2517 
Q 2569 2784 2203 2784 
z
M 2203 3584 
Q 3106 3584 3614 3096 
Q 4122 2609 4122 1747 
Q 4122 884 3614 396 
Q 3106 -91 2203 -91 
Q 1297 -91 786 396 
Q 275 884 275 1747 
Q 275 2609 786 3096 
Q 1297 3584 2203 3584 
z
" transform="scale(0.015625)"/>
      <path id="DejaVuSans-Bold-73" d="M 3272 3391 
L 3272 2541 
Q 2913 2691 2578 2766 
Q 2244 2841 1947 2841 
Q 1628 2841 1473 2761 
Q 1319 2681 1319 2516 
Q 1319 2381 1436 2309 
Q 1553 2238 1856 2203 
L 2053 2175 
Q 2913 2066 3209 1816 
Q 3506 1566 3506 1031 
Q 3506 472 3093 190 
Q 2681 -91 1863 -91 
Q 1516 -91 1145 -36 
Q 775 19 384 128 
L 384 978 
Q 719 816 1070 734 
Q 1422 653 1784 653 
Q 2113 653 2278 743 
Q 2444 834 2444 1013 
Q 2444 1163 2330 1236 
Q 2216 1309 1875 1350 
L 1678 1375 
Q 931 1469 631 1722 
Q 331 1975 331 2491 
Q 331 3047 712 3315 
Q 1094 3584 1881 3584 
Q 2191 3584 2531 3537 
Q 2872 3491 3272 3391 
z
" transform="scale(0.015625)"/>
      <path id="DejaVuSans-Bold-20" transform="scale(0.015625)"/>
      <path id="DejaVuSans-Bold-50" d="M 588 4666 
L 2584 4666 
Q 3475 4666 3951 4270 
Q 4428 3875 4428 3144 
Q 4428 2409 3951 2014 
Q 3475 1619 2584 1619 
L 1791 1619 
L 1791 0 
L 588 0 
L 588 4666 
z
M 1791 3794 
L 1791 2491 
L 2456 2491 
Q 2806 2491 2997 2661 
Q 3188 2831 3188 3144 
Q 3188 3456 2997 3625 
Q 2806 3794 2456 3794 
L 1791 3794 
z
" transform="scale(0.015625)"/>
      <path id="DejaVuSans-Bold-6f" d="M 2203 2784 
Q 1831 2784 1636 2517 
Q 1441 2250 1441 1747 
Q 1441 1244 1636 976 
Q 1831 709 2203 709 
Q 2569 709 2762 976 
Q 2956 1244 2956 1747 
Q 2956 2250 2762 2517 
Q 2569 2784 2203 2784 
z
M 2203 3584 
Q 3106 3584 3614 3096 
Q 4122 2609 4122 1747 
Q 4122 884 3614 396 
Q 3106 -91 2203 -91 
Q 1297 -91 786 396 
Q 275 884 275 1747 
Q 275 2609 786 3096 
Q 1297 3584 2203 3584 
z
" transform="scale(0.015625)"/>
      <path id="DejaVuSans-Bold-62" d="M 2400 722 
Q 2759 722 2948 984 
Q 3138 1247 3138 1747 
Q 3138 2247 2948 2509 
Q 2759 2772 2400 2772 
Q 2041 2772 1848 2508 
Q 1656 2244 1656 1747 
Q 1656 1250 1848 986 
Q 2041 722 2400 722 
z
M 1656 2988 
Q 1888 3294 2169 3439 
Q 2450 3584 2816 3584 
Q 3463 3584 3878 3070 
Q 4294 2556 4294 1747 
Q 4294 938 3878 423 
Q 3463 -91 2816 -91 
Q 2450 -91 2169 54 
Q 1888 200 1656 506 
L 1656 0 
L 538 0 
L 538 4863 
L 1656 4863 
L 1656 2988 
z
" transform="scale(0.015625)"/>
      <path id="DejaVuSans-Bold-6c" d="M 538 4863 
L 1656 4863 
L 1656 0 
L 538 0 
L 538 4863 
z
" transform="scale(0.015625)"/>
      <path id="DejaVuSans-Bold-65" d="M 4031 1759 
L 4031 1441 
L 1416 1441 
Q 1456 1047 1700 850 
Q 1944 653 2381 653 
Q 2734 653 3104 758 
Q 3475 863 3866 1075 
L 3866 213 
Q 3469 63 3072 -14 
Q 2675 -91 2278 -91 
Q 1328 -91 801 392 
Q 275 875 275 1747 
Q 275 2603 792 3093 
Q 1309 3584 2216 3584 
Q 3041 3584 3536 3087 
Q 4031 2591 4031 1759 
z
M 2881 2131 
Q 2881 2450 2695 2645 
Q 2509 2841 2209 2841 
Q 1884 2841 1681 2658 
Q 1478 2475 1428 2131 
L 2881 2131 
z
" transform="scale(0.015625)"/>
      <path id="DejaVuSans-Bold-6d" d="M 3781 2919 
Q 3994 3244 4286 3414 
Q 4578 3584 4928 3584 
Q 5531 3584 5847 3212 
Q 6163 2841 6163 2131 
L 6163 0 
L 5038 0 
L 5038 1825 
Q 5041 1866 5042 1909 
Q 5044 1953 5044 2034 
Q 5044 2406 4934 2573 
Q 4825 2741 4581 2741 
Q 4263 2741 4089 2478 
Q 3916 2216 3909 1719 
L 3909 0 
L 2784 0 
L 2784 1825 
Q 2784 2406 2684 2573 
Q 2584 2741 2328 2741 
Q 2006 2741 1831 2477 
Q 1656 2213 1656 1722 
L 1656 0 
L 531 0 
L 531 3500 
L 1656 3500 
L 1656 2988 
Q 1863 3284 2130 3434 
Q 2397 3584 2719 3584 
Q 3081 3584 3359 3409 
Q 3638 3234 3781 2919 
z
" transform="scale(0.015625)"/>
      <path id="DejaVuSans-Bold-67" d="M 2919 594 
Q 2688 288 2409 144 
Q 2131 0 1766 0 
Q 1125 0 706 504 
Q 288 1009 288 1791 
Q 288 2575 706 3076 
Q 1125 3578 1766 3578 
Q 2131 3578 2409 3434 
Q 2688 3291 2919 2981 
L 2919 3500 
L 4044 3500 
L 4044 353 
Q 4044 -491 3511 -936 
Q 2978 -1381 1966 -1381 
Q 1638 -1381 1331 -1331 
Q 1025 -1281 716 -1178 
L 716 -306 
Q 1009 -475 1290 -558 
Q 1572 -641 1856 -641 
Q 2406 -641 2662 -400 
Q 2919 -159 2919 353 
L 2919 594 
z
M 2181 2772 
Q 1834 2772 1640 2515 
Q 1447 2259 1447 1791 
Q 1447 1309 1634 1061 
Q 1822 813 2181 813 
Q 2531 813 2725 1069 
Q 2919 1325 2919 1791 
Q 2919 2259 2725 2515 
Q 2531 2772 2181 2772 
z
" transform="scale(0.015625)"/>
     </defs>
     <use xlink:href="#DejaVuSans-Bold-45"/>
     <use xlink:href="#DejaVuSans-Bold-72" transform="translate(68.310547 0)"/>
     <use xlink:href="#DejaVuSans-Bold-64" transform="translate(117.626953 0)"/>
     <use xlink:href="#DejaVuSans-Bold-151" transform="translate(189.208984 0)"/>
     <use xlink:href="#DejaVuSans-Bold-73" transform="translate(257.910156 0)"/>
     <use xlink:href="#DejaVuSans-Bold-20" transform="translate(317.431641 0)"/>
     <use xlink:href="#DejaVuSans-Bold-50" transform="translate(352.246094 0)"/>
     <use xlink:href="#DejaVuSans-Bold-72" transform="translate(425.537109 0)"/>
     <use xlink:href="#DejaVuSans-Bold-6f" transform="translate(474.853516 0)"/>
     <use xlink:href="#DejaVuSans-Bold-62" transform="translate(543.554688 0)"/>
     <use xlink:href="#DejaVuSans-Bold-6c" transform="translate(615.136719 0)"/>
     <use xlink:href="#DejaVuSans-Bold-65" transform="translate(649.414062 0)"/>
     <use xlink:href="#DejaVuSans-Bold-6d" transform="translate(717.236328 0)"/>
     <use xlink:href="#DejaVuSans-Bold-73" transform="translate(821.435547 0)"/>
     <use xlink:href="#DejaVuSans-Bold-20" transform="translate(880.957031 0)"/>
     <use xlink:href="#DejaVuSans-Bold-50" transform="translate(915.771484 0)"/>
     <use xlink:href="#DejaVuSans-Bold-72" transform="translate(989.0625 0)"/>
     <use xlink:href="#DejaVuSans-Bold-6f" transform="translate(1038.378906 0)"/>
     <use xlink:href="#DejaVuSans-Bold-67" transform="translate(1107.080078 0)"/>
     <use xlink:href="#DejaVuSans-Bold-72" transform="translate(1178.662109 0)"/>
     <use xlink:href="#DejaVuSans-Bold-65" transform="translate(1227.978516 0)"/>
     <use xlink:href="#DejaVuSans-Bold-73" transform="translate(1295.800781 0)"/>
     <use xlink:href="#DejaVuSans-Bold-73" transform="translate(1355.322266 0)"/>
    </g>
   </g>
   <g id="legend_1">
    <g id="patch_7">
     <path d="M 55.90125 119.788437 
L 213.771563 119.788437 
Q 215.771563 119.788437 215.771563 117.788437 
L 215.771563 45.397812 
Q 215.771563 43.397812 213.771563 43.397812 
L 55.90125 43.397812 
Q 53.90125 43.397812 53.90125 45.397812 
L 53.90125 117.788437 
Q 53.90125 119.788437 55.90125 119.788437 
z
" style="fill: #161b22; opacity: 0.8; stroke: #30363d; stroke-linejoin: miter"/>
    </g>
    <g id="line2d_32">
     <path d="M 57.90125 51.49625 
L 67.90125 51.49625 
L 77.90125 51.49625 
" style="fill: none; stroke: #3fb950; stroke-width: 2; stroke-linecap: square"/>
    </g>
    <g id="text_22">
     <!-- Solved -->
     <g style="fill: #c9d1d9" transform="translate(85.90125 54.99625) scale(0.1 -0.1)">
      <defs>
       <path id="DejaVuSans-6c" d="M 603 4863 
L 1178 4863 
L 1178 0 
L 603 0 
L 603 4863 
z
" transform="scale(0.015625)"/>
       <path id="DejaVuSans-64" d="M 2906 2969 
L 2906 4863 
L 3481 4863 
L 3481 0 
L 2906 0 
L 2906 525 
Q 2725 213 2448 61 
Q 2172 -91 1784 -91 
Q 1150 -91 751 415 
Q 353 922 353 1747 
Q 353 2572 751 3078 
Q 1150 3584 1784 3584 
Q 2172 3584 2448 3432 
Q 2725 3281 2906 2969 
z
M 947 1747 
Q 947 1113 1208 752 
Q 1469 391 1925 391 
Q 2381 391 2643 752 
Q 2906 1113 2906 1747 
Q 2906 2381 2643 2742 
Q 2381 3103 1925 3103 
Q 1469 3103 1208 2742 
Q 947 2381 947 1747 
z
" transform="scale(0.015625)"/>
      </defs>
      <use xlink:href="#DejaVuSans-53"/>
      <use xlink:href="#DejaVuSans-6f" transform="translate(63.476562 0)"/>
      <use xlink:href="#DejaVuSans-6c" transform="translate(124.658203 0)"/>
      <use xlink:href="#DejaVuSans-76" transform="translate(152.441406 0)"/>
      <use xlink:href="#DejaVuSans-65" transform="translate(211.621094 0)"/>
      <use xlink:href="#DejaVuSans-64" transform="translate(273.144531 0)"/>
     </g>
    </g>
    <g id="line2d_33">
     <path d="M 57.90125 66.174375 
L 67.90125 66.174375 
L 77.90125 66.174375 
" style="fill: none; stroke: #58a6ff; stroke-width: 2; stroke-linecap: square"/>
    </g>
    <g id="text_23">
     <!-- Lean Formalized Problem -->
     <g style="fill: #c9d1d9" transform="translate(85.90125 69.674375) scale(0.1 -0.1)">
      <defs>
       <path id="DejaVuSans-4c" d="M 628 4666 
L 1259 4666 
L 1259 531 
L 3531 531 
L 3531 0 
L 628 0 
L 628 4666 
z
" transform="scale(0.015625)"/>
       <path id="DejaVuSans-20" transform="scale(0.015625)"/>
       <path id="DejaVuSans-46" d="M 628 4666 
L 3309 4666 
L 3309 4134 
L 1259 4134 
L 1259 2759 
L 3109 2759 
L 3109 2228 
L 1259 2228 
L 1259 0 
L 628 0 
L 628 4666 
z
" transform="scale(0.015625)"/>
       <path id="DejaVuSans-6d" d="M 3328 2828 
Q 3544 3216 3844 3400 
Q 4144 3584 4550 3584 
Q 5097 3584 5394 3201 
Q 5691 2819 5691 2113 
L 5691 0 
L 5113 0 
L 5113 2094 
Q 5113 2597 4934 2840 
Q 4756 3084 4391 3084 
Q 3944 3084 3684 2787 
Q 3425 2491 3425 1978 
L 3425 0 
L 2847 0 
L 2847 2094 
Q 2847 2600 2669 2842 
Q 2491 3084 2119 3084 
Q 1678 3084 1418 2786 
Q 1159 2488 1159 1978 
L 1159 0 
L 581 0 
L 581 3500 
L 1159 3500 
L 1159 2956 
Q 1356 3278 1631 3431 
Q 1906 3584 2284 3584 
Q 2666 3584 2933 3390 
Q 3200 3197 3328 2828 
z
" transform="scale(0.015625)"/>
       <path id="DejaVuSans-69" d="M 603 3500 
L 1178 3500 
L 1178 0 
L 603 0 
L 603 3500 
z
M 603 4863 
L 1178 4863 
L 1178 4134 
L 603 4134 
L 603 4863 
z
" transform="scale(0.015625)"/>
       <path id="DejaVuSans-7a" d="M 353 3500 
L 3084 3500 
L 3084 2975 
L 922 459 
L 3084 459 
L 3084 0 
L 275 0 
L 275 525 
L 2438 3041 
L 353 3041 
L 353 3500 
z
" transform="scale(0.015625)"/>
       <path id="DejaVuSans-50" d="M 1259 4147 
L 1259 2394 
L 2053 2394 
Q 2494 2394 2734 2622 
Q 2975 2850 2975 3272 
Q 2975 3691 2734 3919 
Q 2494 4147 2053 4147 
L 1259 4147 
z
M 628 4666 
L 2053 4666 
Q 2838 4666 3239 4311 
Q 3641 3956 3641 3272 
Q 3641 2581 3239 2228 
Q 2838 1875 2053 1875 
L 1259 1875 
L 1259 0 
L 628 0 
L 628 4666 
z
" transform="scale(0.015625)"/>
       <path id="DejaVuSans-62" d="M 3116 1747 
Q 3116 2381 2855 2742 
Q 2594 3103 2138 3103 
Q 1681 3103 1420 2742 
Q 1159 2381 1159 1747 
Q 1159 1113 1420 752 
Q 1681 391 2138 391 
Q 2594 391 2855 752 
Q 3116 1113 3116 1747 
z
M 1159 2969 
Q 1341 3281 1617 3432 
Q 1894 3584 2278 3584 
Q 2916 3584 3314 3078 
Q 3713 2572 3713 1747 
Q 3713 922 3314 415 
Q 2916 -91 2278 -91 
Q 1894 -91 1617 61 
Q 1341 213 1159 525 
L 1159 0 
L 581 0 
L 581 4863 
L 1159 4863 
L 1159 2969 
z
" transform="scale(0.015625)"/>
      </defs>
      <use xlink:href="#DejaVuSans-4c"/>
      <use xlink:href="#DejaVuSans-65" transform="translate(53.962891 0)"/>
      <use xlink:href="#DejaVuSans-61" transform="translate(115.486328 0)"/>
      <use xlink:href="#DejaVuSans-6e" transform="translate(176.765625 0)"/>
      <use xlink:href="#DejaVuSans-20" transform="translate(240.144531 0)"/>
      <use xlink:href="#DejaVuSans-46" transform="translate(271.931641 0)"/>
      <use xlink:href="#DejaVuSans-6f" transform="translate(325.826172 0)"/>
      <use xlink:href="#DejaVuSans-72" transform="translate(387.007812 0)"/>
      <use xlink:href="#DejaVuSans-6d" transform="translate(426.371094 0)"/>
      <use xlink:href="#DejaVuSans-61" transform="translate(523.783203 0)"/>
      <use xlink:href="#DejaVuSans-6c" transform="translate(585.0625 0)"/>
      <use xlink:href="#DejaVuSans-69" transform="translate(612.845703 0)"/>
      <use xlink:href="#DejaVuSans-7a" transform="translate(640.628906 0)"/>
      <use xlink:href="#DejaVuSans-65" transform="translate(693.119141 0)"/>
      <use xlink:href="#DejaVuSans-64" transform="translate(754.642578 0)"/>
      <use xlink:href="#DejaVuSans-20" transform="translate(818.119141 0)"/>
      <use xlink:href="#DejaVuSans-50" transform="translate(849.90625 0)"/>
      <use xlink:href="#DejaVuSans-72" transform="translate(908.458984 0)"/>
      <use xlink:href="#DejaVuSans-6f" transform="translate(947.322266 0)"/>
      <use xlink:href="#DejaVuSans-62" transform="translate(1008.503906 0)"/>
      <use xlink:href="#DejaVuSans-6c" transform="translate(1071.980469 0)"/>
      <use xlink:href="#DejaVuSans-65" transform="translate(1099.763672 0)"/>
      <use xlink:href="#DejaVuSans-6d" transform="translate(1161.287109 0)"/>
     </g>
    </g>
    <g id="line2d_34">
     <path d="M 57.90125 80.8525 
L 67.90125 80.8525 
L 77.90125 80.8525 
" style="fill: none; stroke: #d29922; stroke-width: 2; stroke-linecap: square"/>
    </g>
    <g id="text_24">
     <!-- Lean Formalized Solution -->
     <g style="fill: #c9d1d9" transform="translate(85.90125 84.3525) scale(0.1 -0.1)">
      <use xlink:href="#DejaVuSans-4c"/>
      <use xlink:href="#DejaVuSans-65" transform="translate(53.962891 0)"/>
      <use xlink:href="#DejaVuSans-61" transform="translate(115.486328 0)"/>
      <use xlink:href="#DejaVuSans-6e" transform="translate(176.765625 0)"/>
      <use xlink:href="#DejaVuSans-20" transform="translate(240.144531 0)"/>
      <use xlink:href="#DejaVuSans-46" transform="translate(271.931641 0)"/>
      <use xlink:href="#DejaVuSans-6f" transform="translate(325.826172 0)"/>
      <use xlink:href="#DejaVuSans-72" transform="translate(387.007812 0)"/>
      <use xlink:href="#DejaVuSans-6d" transform="translate(426.371094 0)"/>
      <use xlink:href="#DejaVuSans-61" transform="translate(523.783203 0)"/>
      <use xlink:href="#DejaVuSans-6c" transform="translate(585.0625 0)"/>
      <use xlink:href="#DejaVuSans-69" transform="translate(612.845703 0)"/>
      <use xlink:href="#DejaVuSans-7a" transform="translate(640.628906 0)"/>
      <use xlink:href="#DejaVuSans-65" transform="translate(693.119141 0)"/>
      <use xlink:href="#DejaVuSans-64" transform="translate(754.642578 0)"/>
      <use xlink:href="#DejaVuSans-20" transform="translate(818.119141 0)"/>
      <use xlink:href="#DejaVuSans-53" transform="translate(849.90625 0)"/>
      <use xlink:href="#DejaVuSans-6f" transform="translate(913.382812 0)"/>
      <use xlink:href="#DejaVuSans-6c" transform="translate(974.564453 0)"/>
      <use xlink:href="#DejaVuSans-75" transform="translate(1002.347656 0)"/>
      <use xlink:href="#DejaVuSans-74" transform="translate(1065.726562 0)"/>
      <use xlink:href="#DejaVuSans-69" transform="translate(1104.935547 0)"/>
      <use xlink:href="#DejaVuSans-6f" transform="translate(1132.71875 0)"/>
      <use xlink:href="#DejaVuSans-6e" transform="translate(1193.900391 0)"/>
     </g>
    </g>
    <g id="line2d_35">
     <path d="M 57.90125 95.530625 
L 67.90125 95.530625 
L 77.90125 95.530625 
" style="fill: none; stroke: #f85149; stroke-width: 2; stroke-linecap: square"/>
    </g>
    <g id="text_25">
     <!-- OEIS Linked -->
     <g style="fill: #c9d1d9" transform="translate(85.90125 99.030625) scale(0.1 -0.1)">
      <defs>
       <path id="DejaVuSans-4f" d="M 2522 4238 
Q 1834 4238 1429 3725 
Q 1025 3213 1025 2328 
Q 1025 1447 1429 934 
Q 1834 422 2522 422 
Q 3209 422 3611 934 
Q 4013 1447 4013 2328 
Q 4013 3213 3611 3725 
Q 3209 4238 2522 4238 
z
M 2522 4750 
Q 3503 4750 4090 4092 
Q 4678 3434 4678 2328 
Q 4678 1225 4090 567 
Q 3503 -91 2522 -91 
Q 1538 -91 948 565 
Q 359 1222 359 2328 
Q 359 3434 948 4092 
Q 1538 4750 2522 4750 
z
" transform="scale(0.015625)"/>
       <path id="DejaVuSans-45" d="M 628 4666 
L 3578 4666 
L 3578 4134 
L 1259 4134 
L 1259 2753 
L 3481 2753 
L 3481 2222 
L 1259 2222 
L 1259 531 
L 3634 531 
L 3634 0 
L 628 0 
L 628 4666 
z
" transform="scale(0.015625)"/>
       <path id="DejaVuSans-49" d="M 628 4666 
L 1259 4666 
L 1259 0 
L 628 0 
L 628 4666 
z
" transform="scale(0.015625)"/>
       <path id="DejaVuSans-6b" d="M 581 4863 
L 1159 4863 
L 1159 1991 
L 2875 3500 
L 3609 3500 
L 1753 1863 
L 3688 0 
L 2938 0 
L 1159 1709 
L 1159 0 
L 581 0 
L 581 4863 
z
" transform="scale(0.015625)"/>
      </defs>
      <use xlink:href="#DejaVuSans-4f"/>
      <use xlink:href="#DejaVuSans-45" transform="translate(78.710938 0)"/>
      <use xlink:href="#DejaVuSans-49" transform="translate(141.894531 0)"/>
      <use xlink:href="#DejaVuSans-53" transform="translate(171.386719 0)"/>
      <use xlink:href="#DejaVuSans-20" transform="translate(234.863281 0)"/>
      <use xlink:href="#DejaVuSans-4c" transform="translate(266.650391 0)"/>
      <use xlink:href="#DejaVuSans-69" transform="translate(322.363281 0)"/>
      <use xlink:href="#DejaVuSans-6e" transform="translate(350.146484 0)"/>
      <use xlink:href="#DejaVuSans-6b" transform="translate(413.525391 0)"/>
      <use xlink:href="#DejaVuSans-65" transform="translate(467.810547 0)"/>
      <use xlink:href="#DejaVuSans-64" transform="translate(529.333984 0)"/>
     </g>
    </g>
    <g id="line2d_36">
     <path d="M 57.90125 110.20875 
L 67.90125 110.20875 
L 77.90125 110.20875 
" style="fill: none; stroke: #9467bd; stroke-width: 2; stroke-linecap: square"/>
    </g>
    <g id="text_26">
     <!-- Open Problems -->
     <g style="fill: #c9d1d9" transform="translate(85.90125 113.70875) scale(0.1 -0.1)">
      <defs>
       <path id="DejaVuSans-73" d="M 2834 3397 
L 2834 2853 
Q 2591 2978 2328 3040 
Q 2066 3103 1784 3103 
Q 1356 3103 1142 2972 
Q 928 2841 928 2578 
Q 928 2378 1081 2264 
Q 1234 2150 1697 2047 
L 1894 2003 
Q 2506 1872 2764 1633 
Q 3022 1394 3022 966 
Q 3022 478 2636 193 
Q 2250 -91 1575 -91 
Q 1294 -91 989 -36 
Q 684 19 347 128 
L 347 722 
Q 666 556 975 473 
Q 1284 391 1588 391 
Q 1994 391 2212 530 
Q 2431 669 2431 922 
Q 2431 1156 2273 1281 
Q 2116 1406 1581 1522 
L 1381 1569 
Q 847 1681 609 1914 
Q 372 2147 372 2553 
Q 372 3047 722 3315 
Q 1072 3584 1716 3584 
Q 2034 3584 2315 3537 
Q 2597 3491 2834 3397 
z
" transform="scale(0.015625)"/>
      </defs>
      <use xlink:href="#DejaVuSans-4f"/>
      <use xlink:href="#DejaVuSans-70" transform="translate(78.710938 0)"/>
      <use xlink:href="#DejaVuSans-65" transform="translate(142.1875 0)"/>
      <use xlink:href="#DejaVuSans-6e" transform="translate(203.710938 0)"/>
      <use xlink:href="#DejaVuSans-20" transform="translate(267.089844 0)"/>
      <use xlink:href="#DejaVuSans-50" transform="translate(298.876953 0)"/>
      <use xlink:href="#DejaVuSans-72" transform="translate(357.429688 0)"/>
      <use xlink:href="#DejaVuSans-6f" transform="translate(396.292969 0)"/>
      <use xlink:href="#DejaVuSans-62" transform="translate(457.474609 0)"/>
      <use xlink:href="#DejaVuSans-6c" transform="translate(520.951172 0)"/>
      <use xlink:href="#DejaVuSans-65" transform="translate(548.734375 0)"/>
      <use xlink:href="#DejaVuSans-6d" transform="translate(610.257812 0)"/>
      <use xlink:href="#DejaVuSans-73" transform="translate(707.669922 0)"/>
     </g>
    </g>
   </g>
  </g>
 </g>
 <defs>
  <clipPath id="pbd0d98b65f">
   <rect x="48.90125" y="38.397812" width="799.45" height="416.84"/>
  </clipPath>
 </defs>
</svg>
