<?xml version="1.0" encoding="utf-8" standalone="no"?>
<!DOCTYPE svg PUBLIC "-//W3C//DTD SVG 1.1//EN"
  "http://www.w3.org/Graphics/SVG/1.1/DTD/svg11.dtd">
<svg xmlns:xlink="http://www.w3.org/1999/xlink" width="855.55125pt" height="494.729687pt" viewBox="0 0 855.55125 494.729687" xmlns="http://www.w3.org/2000/svg" version="1.1">
 <metadata>
  <rdf:RDF xmlns:dc="http://purl.org/dc/elements/1.1/" xmlns:cc="http://creativecommons.org/ns#" xmlns:rdf="http://www.w3.org/1999/02/22-rdf-syntax-ns#">
   <cc:Work>
    <dc:type rdf:resource="http://purl.org/dc/dcmitype/StillImage"/>
    <dc:date>2026-05-09T09:06:18.596253</dc:date>
    <dc:format>image/svg+xml</dc:format>
    <dc:creator>
     <cc:Agent>
      <dc:title>Matplotlib v3.10.7, https://matplotlib.org/</dc:title>
     </cc:Agent>
    </dc:creator>
   </cc:Work>
  </rdf:RDF>
 </metadata>
 <defs>
  <style type="text/css">*{stroke-linejoin: round; stroke-linecap: butt}</style>
 </defs>
 <g id="figure_1">
  <g id="patch_1">
   <path d="M 0 494.729687 
L 855.55125 494.729687 
L 855.55125 0 
L 0 0 
z
" style="fill: #ffffff"/>
  </g>
  <g id="axes_1">
   <g id="patch_2">
    <path d="M 48.90125 455.237812 
L 848.35125 455.237812 
L 848.35125 38.397812 
L 48.90125 38.397812 
z
" style="fill: #ffffff"/>
   </g>
   <g id="matplotlib.axis_1">
    <g id="xtick_1">
     <g id="line2d_1">
      <path d="M 86.087462 455.237812 
L 86.087462 38.397812 
" clip-path="url(#p73aa0b4c05)" style="fill: none; stroke: #d0d7de; stroke-opacity: 0.25; stroke-width: 0.5; stroke-linecap: square"/>
     </g>
     <g id="line2d_2">
      <defs>
       <path id="m3fe7e00db2" d="M 0 0 
L 0 3.5 
" style="stroke: #24292f; stroke-width: 0.8"/>
      </defs>
      <g>
       <use xlink:href="#m3fe7e00db2" x="86.087462" y="455.237812" style="fill: #24292f; stroke: #24292f; stroke-width: 0.8"/>
      </g>
     </g>
     <g id="text_1">
      <!-- Sep -->
      <g style="fill: #24292f" transform="translate(76.662462 469.83625) scale(0.1 -0.1)">
       <defs>
        <path id="DejaVuSans-53" d="M 3425 4513 
L 3425 3897 
Q 3066 4069 2747 4153 
Q 2428 4238 2131 4238 
Q 1616 4238 1336 4038 
Q 1056 3838 1056 3469 
Q 1056 3159 1242 3001 
Q 1428 2844 1947 2747 
L 2328 2669 
Q 3034 2534 3370 2195 
Q 3706 1856 3706 1288 
Q 3706 609 3251 259 
Q 2797 -91 1919 -91 
Q 1588 -91 1214 -16 
Q 841 59 441 206 
L 441 856 
Q 825 641 1194 531 
Q 1563 422 1919 422 
Q 2459 422 2753 634 
Q 3047 847 3047 1241 
Q 3047 1584 2836 1778 
Q 2625 1972 2144 2069 
L 1759 2144 
Q 1053 2284 737 2584 
Q 422 2884 422 3419 
Q 422 4038 858 4394 
Q 1294 4750 2059 4750 
Q 2388 4750 2728 4690 
Q 3069 4631 3425 4513 
z
" transform="scale(0.015625)"/>
        <path id="DejaVuSans-65" d="M 3597 1894 
L 3597 1613 
L 953 1613 
Q 991 1019 1311 708 
Q 1631 397 2203 397 
Q 2534 397 2845 478 
Q 3156 559 3463 722 
L 3463 178 
Q 3153 47 2828 -22 
Q 2503 -91 2169 -91 
Q 1331 -91 842 396 
Q 353 884 353 1716 
Q 353 2575 817 3079 
Q 1281 3584 2069 3584 
Q 2775 3584 3186 3129 
Q 3597 2675 3597 1894 
z
M 3022 2063 
Q 3016 2534 2758 2815 
Q 2500 3097 2075 3097 
Q 1594 3097 1305 2825 
Q 1016 2553 972 2059 
L 3022 2063 
z
" transform="scale(0.015625)"/>
        <path id="DejaVuSans-70" d="M 1159 525 
L 1159 -1331 
L 581 -1331 
L 581 3500 
L 1159 3500 
L 1159 2969 
Q 1341 3281 1617 3432 
Q 1894 3584 2278 3584 
Q 2916 3584 3314 3078 
Q 3713 2572 3713 1747 
Q 3713 922 3314 415 
Q 2916 -91 2278 -91 
Q 1894 -91 1617 61 
Q 1341 213 1159 525 
z
M 3116 1747 
Q 3116 2381 2855 2742 
Q 2594 3103 2138 3103 
Q 1681 3103 1420 2742 
Q 1159 2381 1159 1747 
Q 1159 1113 1420 752 
Q 1681 391 2138 391 
Q 2594 391 2855 752 
Q 3116 1113 3116 1747 
z
" transform="scale(0.015625)"/>
       </defs>
       <use xlink:href="#DejaVuSans-53"/>
       <use xlink:href="#DejaVuSans-65" transform="translate(63.476562 0)"/>
       <use xlink:href="#DejaVuSans-70" transform="translate(125 0)"/>
      </g>
     </g>
    </g>
    <g id="xtick_2">
     <g id="line2d_3">
      <path d="M 173.06649 455.237812 
L 173.06649 38.397812 
" clip-path="url(#p73aa0b4c05)" style="fill: none; stroke: #d0d7de; stroke-opacity: 0.25; stroke-width: 0.5; stroke-linecap: square"/>
     </g>
     <g id="line2d_4">
      <g>
       <use xlink:href="#m3fe7e00db2" x="173.06649" y="455.237812" style="fill: #24292f; stroke: #24292f; stroke-width: 0.8"/>
      </g>
     </g>
     <g id="text_2">
      <!-- Oct -->
      <g style="fill: #24292f" transform="translate(164.421177 469.83625) scale(0.1 -0.1)">
       <defs>
        <path id="DejaVuSans-4f" d="M 2522 4238 
Q 1834 4238 1429 3725 
Q 1025 3213 1025 2328 
Q 1025 1447 1429 934 
Q 1834 422 2522 422 
Q 3209 422 3611 934 
Q 4013 1447 4013 2328 
Q 4013 3213 3611 3725 
Q 3209 4238 2522 4238 
z
M 2522 4750 
Q 3503 4750 4090 4092 
Q 4678 3434 4678 2328 
Q 4678 1225 4090 567 
Q 3503 -91 2522 -91 
Q 1538 -91 948 565 
Q 359 1222 359 2328 
Q 359 3434 948 4092 
Q 1538 4750 2522 4750 
z
" transform="scale(0.015625)"/>
        <path id="DejaVuSans-63" d="M 3122 3366 
L 3122 2828 
Q 2878 2963 2633 3030 
Q 2388 3097 2138 3097 
Q 1578 3097 1268 2742 
Q 959 2388 959 1747 
Q 959 1106 1268 751 
Q 1578 397 2138 397 
Q 2388 397 2633 464 
Q 2878 531 3122 666 
L 3122 134 
Q 2881 22 2623 -34 
Q 2366 -91 2075 -91 
Q 1284 -91 818 406 
Q 353 903 353 1747 
Q 353 2603 823 3093 
Q 1294 3584 2113 3584 
Q 2378 3584 2631 3529 
Q 2884 3475 3122 3366 
z
" transform="scale(0.015625)"/>
        <path id="DejaVuSans-74" d="M 1172 4494 
L 1172 3500 
L 2356 3500 
L 2356 3053 
L 1172 3053 
L 1172 1153 
Q 1172 725 1289 603 
Q 1406 481 1766 481 
L 2356 481 
L 2356 0 
L 1766 0 
Q 1100 0 847 248 
Q 594 497 594 1153 
L 594 3053 
L 172 3053 
L 172 3500 
L 594 3500 
L 594 4494 
L 1172 4494 
z
" transform="scale(0.015625)"/>
       </defs>
       <use xlink:href="#DejaVuSans-4f"/>
       <use xlink:href="#DejaVuSans-63" transform="translate(78.710938 0)"/>
       <use xlink:href="#DejaVuSans-74" transform="translate(133.691406 0)"/>
      </g>
     </g>
    </g>
    <g id="xtick_3">
     <g id="line2d_5">
      <path d="M 262.944818 455.237812 
L 262.944818 38.397812 
" clip-path="url(#p73aa0b4c05)" style="fill: none; stroke: #d0d7de; stroke-opacity: 0.25; stroke-width: 0.5; stroke-linecap: square"/>
     </g>
     <g id="line2d_6">
      <g>
       <use xlink:href="#m3fe7e00db2" x="262.944818" y="455.237812" style="fill: #24292f; stroke: #24292f; stroke-width: 0.8"/>
      </g>
     </g>
     <g id="text_3">
      <!-- Nov -->
      <g style="fill: #24292f" transform="translate(253.185443 469.83625) scale(0.1 -0.1)">
       <defs>
        <path id="DejaVuSans-4e" d="M 628 4666 
L 1478 4666 
L 3547 763 
L 3547 4666 
L 4159 4666 
L 4159 0 
L 3309 0 
L 1241 3903 
L 1241 0 
L 628 0 
L 628 4666 
z
" transform="scale(0.015625)"/>
        <path id="DejaVuSans-6f" d="M 1959 3097 
Q 1497 3097 1228 2736 
Q 959 2375 959 1747 
Q 959 1119 1226 758 
Q 1494 397 1959 397 
Q 2419 397 2687 759 
Q 2956 1122 2956 1747 
Q 2956 2369 2687 2733 
Q 2419 3097 1959 3097 
z
M 1959 3584 
Q 2709 3584 3137 3096 
Q 3566 2609 3566 1747 
Q 3566 888 3137 398 
Q 2709 -91 1959 -91 
Q 1206 -91 779 398 
Q 353 888 353 1747 
Q 353 2609 779 3096 
Q 1206 3584 1959 3584 
z
" transform="scale(0.015625)"/>
        <path id="DejaVuSans-76" d="M 191 3500 
L 800 3500 
L 1894 563 
L 2988 3500 
L 3597 3500 
L 2284 0 
L 1503 0 
L 191 3500 
z
" transform="scale(0.015625)"/>
       </defs>
       <use xlink:href="#DejaVuSans-4e"/>
       <use xlink:href="#DejaVuSans-6f" transform="translate(74.804688 0)"/>
       <use xlink:href="#DejaVuSans-76" transform="translate(135.986328 0)"/>
      </g>
     </g>
    </g>
    <g id="xtick_4">
     <g id="line2d_7">
      <path d="M 349.923846 455.237812 
L 349.923846 38.397812 
" clip-path="url(#p73aa0b4c05)" style="fill: none; stroke: #d0d7de; stroke-opacity: 0.25; stroke-width: 0.5; stroke-linecap: square"/>
     </g>
     <g id="line2d_8">
      <g>
       <use xlink:href="#m3fe7e00db2" x="349.923846" y="455.237812" style="fill: #24292f; stroke: #24292f; stroke-width: 0.8"/>
      </g>
     </g>
     <g id="text_4">
      <!-- Dec -->
      <g style="fill: #24292f" transform="translate(340.248064 469.83625) scale(0.1 -0.1)">
       <defs>
        <path id="DejaVuSans-44" d="M 1259 4147 
L 1259 519 
L 2022 519 
Q 2988 519 3436 956 
Q 3884 1394 3884 2338 
Q 3884 3275 3436 3711 
Q 2988 4147 2022 4147 
L 1259 4147 
z
M 628 4666 
L 1925 4666 
Q 3281 4666 3915 4102 
Q 4550 3538 4550 2338 
Q 4550 1131 3912 565 
Q 3275 0 1925 0 
L 628 0 
L 628 4666 
z
" transform="scale(0.015625)"/>
       </defs>
       <use xlink:href="#DejaVuSans-44"/>
       <use xlink:href="#DejaVuSans-65" transform="translate(77.001953 0)"/>
       <use xlink:href="#DejaVuSans-63" transform="translate(138.525391 0)"/>
      </g>
     </g>
    </g>
    <g id="xtick_5">
     <g id="line2d_9">
      <path d="M 439.802174 455.237812 
L 439.802174 38.397812 
" clip-path="url(#p73aa0b4c05)" style="fill: none; stroke: #d0d7de; stroke-opacity: 0.25; stroke-width: 0.5; stroke-linecap: square"/>
     </g>
     <g id="line2d_10">
      <g>
       <use xlink:href="#m3fe7e00db2" x="439.802174" y="455.237812" style="fill: #24292f; stroke: #24292f; stroke-width: 0.8"/>
      </g>
     </g>
     <g id="text_5">
      <!-- 2026 -->
      <g style="fill: #24292f" transform="translate(427.077174 469.83625) scale(0.1 -0.1)">
       <defs>
        <path id="DejaVuSans-32" d="M 1228 531 
L 3431 531 
L 3431 0 
L 469 0 
L 469 531 
Q 828 903 1448 1529 
Q 2069 2156 2228 2338 
Q 2531 2678 2651 2914 
Q 2772 3150 2772 3378 
Q 2772 3750 2511 3984 
Q 2250 4219 1831 4219 
Q 1534 4219 1204 4116 
Q 875 4013 500 3803 
L 500 4441 
Q 881 4594 1212 4672 
Q 1544 4750 1819 4750 
Q 2544 4750 2975 4387 
Q 3406 4025 3406 3419 
Q 3406 3131 3298 2873 
Q 3191 2616 2906 2266 
Q 2828 2175 2409 1742 
Q 1991 1309 1228 531 
z
" transform="scale(0.015625)"/>
        <path id="DejaVuSans-30" d="M 2034 4250 
Q 1547 4250 1301 3770 
Q 1056 3291 1056 2328 
Q 1056 1369 1301 889 
Q 1547 409 2034 409 
Q 2525 409 2770 889 
Q 3016 1369 3016 2328 
Q 3016 3291 2770 3770 
Q 2525 4250 2034 4250 
z
M 2034 4750 
Q 2819 4750 3233 4129 
Q 3647 3509 3647 2328 
Q 3647 1150 3233 529 
Q 2819 -91 2034 -91 
Q 1250 -91 836 529 
Q 422 1150 422 2328 
Q 422 3509 836 4129 
Q 1250 4750 2034 4750 
z
" transform="scale(0.015625)"/>
        <path id="DejaVuSans-36" d="M 2113 2584 
Q 1688 2584 1439 2293 
Q 1191 2003 1191 1497 
Q 1191 994 1439 701 
Q 1688 409 2113 409 
Q 2538 409 2786 701 
Q 3034 994 3034 1497 
Q 3034 2003 2786 2293 
Q 2538 2584 2113 2584 
z
M 3366 4563 
L 3366 3988 
Q 3128 4100 2886 4159 
Q 2644 4219 2406 4219 
Q 1781 4219 1451 3797 
Q 1122 3375 1075 2522 
Q 1259 2794 1537 2939 
Q 1816 3084 2150 3084 
Q 2853 3084 3261 2657 
Q 3669 2231 3669 1497 
Q 3669 778 3244 343 
Q 2819 -91 2113 -91 
Q 1303 -91 875 529 
Q 447 1150 447 2328 
Q 447 3434 972 4092 
Q 1497 4750 2381 4750 
Q 2619 4750 2861 4703 
Q 3103 4656 3366 4563 
z
" transform="scale(0.015625)"/>
       </defs>
       <use xlink:href="#DejaVuSans-32"/>
       <use xlink:href="#DejaVuSans-30" transform="translate(63.623047 0)"/>
       <use xlink:href="#DejaVuSans-32" transform="translate(127.246094 0)"/>
       <use xlink:href="#DejaVuSans-36" transform="translate(190.869141 0)"/>
      </g>
     </g>
    </g>
    <g id="xtick_6">
     <g id="line2d_11">
      <path d="M 529.680502 455.237812 
L 529.680502 38.397812 
" clip-path="url(#p73aa0b4c05)" style="fill: none; stroke: #d0d7de; stroke-opacity: 0.25; stroke-width: 0.5; stroke-linecap: square"/>
     </g>
     <g id="line2d_12">
      <g>
       <use xlink:href="#m3fe7e00db2" x="529.680502" y="455.237812" style="fill: #24292f; stroke: #24292f; stroke-width: 0.8"/>
      </g>
     </g>
     <g id="text_6">
      <!-- Feb -->
      <g style="fill: #24292f" transform="translate(520.82894 469.83625) scale(0.1 -0.1)">
       <defs>
        <path id="DejaVuSans-46" d="M 628 4666 
L 3309 4666 
L 3309 4134 
L 1259 4134 
L 1259 2759 
L 3109 2759 
L 3109 2228 
L 1259 2228 
L 1259 0 
L 628 0 
L 628 4666 
z
" transform="scale(0.015625)"/>
        <path id="DejaVuSans-62" d="M 3116 1747 
Q 3116 2381 2855 2742 
Q 2594 3103 2138 3103 
Q 1681 3103 1420 2742 
Q 1159 2381 1159 1747 
Q 1159 1113 1420 752 
Q 1681 391 2138 391 
Q 2594 391 2855 752 
Q 3116 1113 3116 1747 
z
M 1159 2969 
Q 1341 3281 1617 3432 
Q 1894 3584 2278 3584 
Q 2916 3584 3314 3078 
Q 3713 2572 3713 1747 
Q 3713 922 3314 415 
Q 2916 -91 2278 -91 
Q 1894 -91 1617 61 
Q 1341 213 1159 525 
L 1159 0 
L 581 0 
L 581 4863 
L 1159 4863 
L 1159 2969 
z
" transform="scale(0.015625)"/>
       </defs>
       <use xlink:href="#DejaVuSans-46"/>
       <use xlink:href="#DejaVuSans-65" transform="translate(52.019531 0)"/>
       <use xlink:href="#DejaVuSans-62" transform="translate(113.542969 0)"/>
      </g>
     </g>
    </g>
    <g id="xtick_7">
     <g id="line2d_13">
      <path d="M 610.860928 455.237812 
L 610.860928 38.397812 
" clip-path="url(#p73aa0b4c05)" style="fill: none; stroke: #d0d7de; stroke-opacity: 0.25; stroke-width: 0.5; stroke-linecap: square"/>
     </g>
     <g id="line2d_14">
      <g>
       <use xlink:href="#m3fe7e00db2" x="610.860928" y="455.237812" style="fill: #24292f; stroke: #24292f; stroke-width: 0.8"/>
      </g>
     </g>
     <g id="text_7">
      <!-- Mar -->
      <g style="fill: #24292f" transform="translate(601.427334 469.83625) scale(0.1 -0.1)">
       <defs>
        <path id="DejaVuSans-4d" d="M 628 4666 
L 1569 4666 
L 2759 1491 
L 3956 4666 
L 4897 4666 
L 4897 0 
L 4281 0 
L 4281 4097 
L 3078 897 
L 2444 897 
L 1241 4097 
L 1241 0 
L 628 0 
L 628 4666 
z
" transform="scale(0.015625)"/>
        <path id="DejaVuSans-61" d="M 2194 1759 
Q 1497 1759 1228 1600 
Q 959 1441 959 1056 
Q 959 750 1161 570 
Q 1363 391 1709 391 
Q 2188 391 2477 730 
Q 2766 1069 2766 1631 
L 2766 1759 
L 2194 1759 
z
M 3341 1997 
L 3341 0 
L 2766 0 
L 2766 531 
Q 2569 213 2275 61 
Q 1981 -91 1556 -91 
Q 1019 -91 701 211 
Q 384 513 384 1019 
Q 384 1609 779 1909 
Q 1175 2209 1959 2209 
L 2766 2209 
L 2766 2266 
Q 2766 2663 2505 2880 
Q 2244 3097 1772 3097 
Q 1472 3097 1187 3025 
Q 903 2953 641 2809 
L 641 3341 
Q 956 3463 1253 3523 
Q 1550 3584 1831 3584 
Q 2591 3584 2966 3190 
Q 3341 2797 3341 1997 
z
" transform="scale(0.015625)"/>
        <path id="DejaVuSans-72" d="M 2631 2963 
Q 2534 3019 2420 3045 
Q 2306 3072 2169 3072 
Q 1681 3072 1420 2755 
Q 1159 2438 1159 1844 
L 1159 0 
L 581 0 
L 581 3500 
L 1159 3500 
L 1159 2956 
Q 1341 3275 1631 3429 
Q 1922 3584 2338 3584 
Q 2397 3584 2469 3576 
Q 2541 3569 2628 3553 
L 2631 2963 
z
" transform="scale(0.015625)"/>
       </defs>
       <use xlink:href="#DejaVuSans-4d"/>
       <use xlink:href="#DejaVuSans-61" transform="translate(86.279297 0)"/>
       <use xlink:href="#DejaVuSans-72" transform="translate(147.558594 0)"/>
      </g>
     </g>
    </g>
    <g id="xtick_8">
     <g id="line2d_15">
      <path d="M 700.739257 455.237812 
L 700.739257 38.397812 
" clip-path="url(#p73aa0b4c05)" style="fill: none; stroke: #d0d7de; stroke-opacity: 0.25; stroke-width: 0.5; stroke-linecap: square"/>
     </g>
     <g id="line2d_16">
      <g>
       <use xlink:href="#m3fe7e00db2" x="700.739257" y="455.237812" style="fill: #24292f; stroke: #24292f; stroke-width: 0.8"/>
      </g>
     </g>
     <g id="text_8">
      <!-- Apr -->
      <g style="fill: #24292f" transform="translate(692.089257 469.83625) scale(0.1 -0.1)">
       <defs>
        <path id="DejaVuSans-41" d="M 2188 4044 
L 1331 1722 
L 3047 1722 
L 2188 4044 
z
M 1831 4666 
L 2547 4666 
L 4325 0 
L 3669 0 
L 3244 1197 
L 1141 1197 
L 716 0 
L 50 0 
L 1831 4666 
z
" transform="scale(0.015625)"/>
       </defs>
       <use xlink:href="#DejaVuSans-41"/>
       <use xlink:href="#DejaVuSans-70" transform="translate(68.408203 0)"/>
       <use xlink:href="#DejaVuSans-72" transform="translate(131.884766 0)"/>
      </g>
     </g>
    </g>
    <g id="xtick_9">
     <g id="line2d_17">
      <path d="M 787.718284 455.237812 
L 787.718284 38.397812 
" clip-path="url(#p73aa0b4c05)" style="fill: none; stroke: #d0d7de; stroke-opacity: 0.25; stroke-width: 0.5; stroke-linecap: square"/>
     </g>
     <g id="line2d_18">
      <g>
       <use xlink:href="#m3fe7e00db2" x="787.718284" y="455.237812" style="fill: #24292f; stroke: #24292f; stroke-width: 0.8"/>
      </g>
     </g>
     <g id="text_9">
      <!-- May -->
      <g style="fill: #24292f" transform="translate(777.380784 469.83625) scale(0.1 -0.1)">
       <defs>
        <path id="DejaVuSans-79" d="M 2059 -325 
Q 1816 -950 1584 -1140 
Q 1353 -1331 966 -1331 
L 506 -1331 
L 506 -850 
L 844 -850 
Q 1081 -850 1212 -737 
Q 1344 -625 1503 -206 
L 1606 56 
L 191 3500 
L 800 3500 
L 1894 763 
L 2988 3500 
L 3597 3500 
L 2059 -325 
z
" transform="scale(0.015625)"/>
       </defs>
       <use xlink:href="#DejaVuSans-4d"/>
       <use xlink:href="#DejaVuSans-61" transform="translate(86.279297 0)"/>
       <use xlink:href="#DejaVuSans-79" transform="translate(147.558594 0)"/>
      </g>
     </g>
    </g>
    <g id="text_10">
     <!-- Date -->
     <g style="fill: #24292f" transform="translate(434.285313 485.034062) scale(0.12 -0.12)">
      <use xlink:href="#DejaVuSans-44"/>
      <use xlink:href="#DejaVuSans-61" transform="translate(77.001953 0)"/>
      <use xlink:href="#DejaVuSans-74" transform="translate(138.28125 0)"/>
      <use xlink:href="#DejaVuSans-65" transform="translate(177.490234 0)"/>
     </g>
    </g>
   </g>
   <g id="matplotlib.axis_2">
    <g id="ytick_1">
     <g id="line2d_19">
      <path d="M 48.90125 455.237812 
L 848.35125 455.237812 
" clip-path="url(#p73aa0b4c05)" style="fill: none; stroke: #d0d7de; stroke-opacity: 0.25; stroke-width: 0.5; stroke-linecap: square"/>
     </g>
     <g id="line2d_20">
      <defs>
       <path id="ma7bbfa5a14" d="M 0 0 
L -3.5 0 
" style="stroke: #24292f; stroke-width: 0.8"/>
      </defs>
      <g>
       <use xlink:href="#ma7bbfa5a14" x="48.90125" y="455.237812" style="fill: #24292f; stroke: #24292f; stroke-width: 0.8"/>
      </g>
     </g>
     <g id="text_11">
      <!-- 0 -->
      <g style="fill: #24292f" transform="translate(35.53875 459.037031) scale(0.1 -0.1)">
       <use xlink:href="#DejaVuSans-30"/>
      </g>
     </g>
    </g>
    <g id="ytick_2">
     <g id="line2d_21">
      <path d="M 48.90125 399.659146 
L 848.35125 399.659146 
" clip-path="url(#p73aa0b4c05)" style="fill: none; stroke: #d0d7de; stroke-opacity: 0.25; stroke-width: 0.5; stroke-linecap: square"/>
     </g>
     <g id="line2d_22">
      <g>
       <use xlink:href="#ma7bbfa5a14" x="48.90125" y="399.659146" style="fill: #24292f; stroke: #24292f; stroke-width: 0.8"/>
      </g>
     </g>
     <g id="text_12">
      <!-- 100 -->
      <g style="fill: #24292f" transform="translate(22.81375 403.458365) scale(0.1 -0.1)">
       <defs>
        <path id="DejaVuSans-31" d="M 794 531 
L 1825 531 
L 1825 4091 
L 703 3866 
L 703 4441 
L 1819 4666 
L 2450 4666 
L 2450 531 
L 3481 531 
L 3481 0 
L 794 0 
L 794 531 
z
" transform="scale(0.015625)"/>
       </defs>
       <use xlink:href="#DejaVuSans-31"/>
       <use xlink:href="#DejaVuSans-30" transform="translate(63.623047 0)"/>
       <use xlink:href="#DejaVuSans-30" transform="translate(127.246094 0)"/>
      </g>
     </g>
    </g>
    <g id="ytick_3">
     <g id="line2d_23">
      <path d="M 48.90125 344.080479 
L 848.35125 344.080479 
" clip-path="url(#p73aa0b4c05)" style="fill: none; stroke: #d0d7de; stroke-opacity: 0.25; stroke-width: 0.5; stroke-linecap: square"/>
     </g>
     <g id="line2d_24">
      <g>
       <use xlink:href="#ma7bbfa5a14" x="48.90125" y="344.080479" style="fill: #24292f; stroke: #24292f; stroke-width: 0.8"/>
      </g>
     </g>
     <g id="text_13">
      <!-- 200 -->
      <g style="fill: #24292f" transform="translate(22.81375 347.879698) scale(0.1 -0.1)">
       <use xlink:href="#DejaVuSans-32"/>
       <use xlink:href="#DejaVuSans-30" transform="translate(63.623047 0)"/>
       <use xlink:href="#DejaVuSans-30" transform="translate(127.246094 0)"/>
      </g>
     </g>
    </g>
    <g id="ytick_4">
     <g id="line2d_25">
      <path d="M 48.90125 288.501812 
L 848.35125 288.501812 
" clip-path="url(#p73aa0b4c05)" style="fill: none; stroke: #d0d7de; stroke-opacity: 0.25; stroke-width: 0.5; stroke-linecap: square"/>
     </g>
     <g id="line2d_26">
      <g>
       <use xlink:href="#ma7bbfa5a14" x="48.90125" y="288.501812" style="fill: #24292f; stroke: #24292f; stroke-width: 0.8"/>
      </g>
     </g>
     <g id="text_14">
      <!-- 300 -->
      <g style="fill: #24292f" transform="translate(22.81375 292.301031) scale(0.1 -0.1)">
       <defs>
        <path id="DejaVuSans-33" d="M 2597 2516 
Q 3050 2419 3304 2112 
Q 3559 1806 3559 1356 
Q 3559 666 3084 287 
Q 2609 -91 1734 -91 
Q 1441 -91 1130 -33 
Q 819 25 488 141 
L 488 750 
Q 750 597 1062 519 
Q 1375 441 1716 441 
Q 2309 441 2620 675 
Q 2931 909 2931 1356 
Q 2931 1769 2642 2001 
Q 2353 2234 1838 2234 
L 1294 2234 
L 1294 2753 
L 1863 2753 
Q 2328 2753 2575 2939 
Q 2822 3125 2822 3475 
Q 2822 3834 2567 4026 
Q 2313 4219 1838 4219 
Q 1578 4219 1281 4162 
Q 984 4106 628 3988 
L 628 4550 
Q 988 4650 1302 4700 
Q 1616 4750 1894 4750 
Q 2613 4750 3031 4423 
Q 3450 4097 3450 3541 
Q 3450 3153 3228 2886 
Q 3006 2619 2597 2516 
z
" transform="scale(0.015625)"/>
       </defs>
       <use xlink:href="#DejaVuSans-33"/>
       <use xlink:href="#DejaVuSans-30" transform="translate(63.623047 0)"/>
       <use xlink:href="#DejaVuSans-30" transform="translate(127.246094 0)"/>
      </g>
     </g>
    </g>
    <g id="ytick_5">
     <g id="line2d_27">
      <path d="M 48.90125 232.923146 
L 848.35125 232.923146 
" clip-path="url(#p73aa0b4c05)" style="fill: none; stroke: #d0d7de; stroke-opacity: 0.25; stroke-width: 0.5; stroke-linecap: square"/>
     </g>
     <g id="line2d_28">
      <g>
       <use xlink:href="#ma7bbfa5a14" x="48.90125" y="232.923146" style="fill: #24292f; stroke: #24292f; stroke-width: 0.8"/>
      </g>
     </g>
     <g id="text_15">
      <!-- 400 -->
      <g style="fill: #24292f" transform="translate(22.81375 236.722365) scale(0.1 -0.1)">
       <defs>
        <path id="DejaVuSans-34" d="M 2419 4116 
L 825 1625 
L 2419 1625 
L 2419 4116 
z
M 2253 4666 
L 3047 4666 
L 3047 1625 
L 3713 1625 
L 3713 1100 
L 3047 1100 
L 3047 0 
L 2419 0 
L 2419 1100 
L 313 1100 
L 313 1709 
L 2253 4666 
z
" transform="scale(0.015625)"/>
       </defs>
       <use xlink:href="#DejaVuSans-34"/>
       <use xlink:href="#DejaVuSans-30" transform="translate(63.623047 0)"/>
       <use xlink:href="#DejaVuSans-30" transform="translate(127.246094 0)"/>
      </g>
     </g>
    </g>
    <g id="ytick_6">
     <g id="line2d_29">
      <path d="M 48.90125 177.344479 
L 848.35125 177.344479 
" clip-path="url(#p73aa0b4c05)" style="fill: none; stroke: #d0d7de; stroke-opacity: 0.25; stroke-width: 0.5; stroke-linecap: square"/>
     </g>
     <g id="line2d_30">
      <g>
       <use xlink:href="#ma7bbfa5a14" x="48.90125" y="177.344479" style="fill: #24292f; stroke: #24292f; stroke-width: 0.8"/>
      </g>
     </g>
     <g id="text_16">
      <!-- 500 -->
      <g style="fill: #24292f" transform="translate(22.81375 181.143698) scale(0.1 -0.1)">
       <defs>
        <path id="DejaVuSans-35" d="M 691 4666 
L 3169 4666 
L 3169 4134 
L 1269 4134 
L 1269 2991 
Q 1406 3038 1543 3061 
Q 1681 3084 1819 3084 
Q 2600 3084 3056 2656 
Q 3513 2228 3513 1497 
Q 3513 744 3044 326 
Q 2575 -91 1722 -91 
Q 1428 -91 1123 -41 
Q 819 9 494 109 
L 494 744 
Q 775 591 1075 516 
Q 1375 441 1709 441 
Q 2250 441 2565 725 
Q 2881 1009 2881 1497 
Q 2881 1984 2565 2268 
Q 2250 2553 1709 2553 
Q 1456 2553 1204 2497 
Q 953 2441 691 2322 
L 691 4666 
z
" transform="scale(0.015625)"/>
       </defs>
       <use xlink:href="#DejaVuSans-35"/>
       <use xlink:href="#DejaVuSans-30" transform="translate(63.623047 0)"/>
       <use xlink:href="#DejaVuSans-30" transform="translate(127.246094 0)"/>
      </g>
     </g>
    </g>
    <g id="ytick_7">
     <g id="line2d_31">
      <path d="M 48.90125 121.765812 
L 848.35125 121.765812 
" clip-path="url(#p73aa0b4c05)" style="fill: none; stroke: #d0d7de; stroke-opacity: 0.25; stroke-width: 0.5; stroke-linecap: square"/>
     </g>
     <g id="line2d_32">
      <g>
       <use xlink:href="#ma7bbfa5a14" x="48.90125" y="121.765812" style="fill: #24292f; stroke: #24292f; stroke-width: 0.8"/>
      </g>
     </g>
     <g id="text_17">
      <!-- 600 -->
      <g style="fill: #24292f" transform="translate(22.81375 125.565031) scale(0.1 -0.1)">
       <use xlink:href="#DejaVuSans-36"/>
       <use xlink:href="#DejaVuSans-30" transform="translate(63.623047 0)"/>
       <use xlink:href="#DejaVuSans-30" transform="translate(127.246094 0)"/>
      </g>
     </g>
    </g>
    <g id="ytick_8">
     <g id="line2d_33">
      <path d="M 48.90125 66.187146 
L 848.35125 66.187146 
" clip-path="url(#p73aa0b4c05)" style="fill: none; stroke: #d0d7de; stroke-opacity: 0.25; stroke-width: 0.5; stroke-linecap: square"/>
     </g>
     <g id="line2d_34">
      <g>
       <use xlink:href="#ma7bbfa5a14" x="48.90125" y="66.187146" style="fill: #24292f; stroke: #24292f; stroke-width: 0.8"/>
      </g>
     </g>
     <g id="text_18">
      <!-- 700 -->
      <g style="fill: #24292f" transform="translate(22.81375 69.986365) scale(0.1 -0.1)">
       <defs>
        <path id="DejaVuSans-37" d="M 525 4666 
L 3525 4666 
L 3525 4397 
L 1831 0 
L 1172 0 
L 2766 4134 
L 525 4134 
L 525 4666 
z
" transform="scale(0.015625)"/>
       </defs>
       <use xlink:href="#DejaVuSans-37"/>
       <use xlink:href="#DejaVuSans-30" transform="translate(63.623047 0)"/>
       <use xlink:href="#DejaVuSans-30" transform="translate(127.246094 0)"/>
      </g>
     </g>
    </g>
    <g id="text_19">
     <!-- Count -->
     <g style="fill: #24292f" transform="translate(16.318125 264.635937) rotate(-90) scale(0.12 -0.12)">
      <defs>
       <path id="DejaVuSans-43" d="M 4122 4306 
L 4122 3641 
Q 3803 3938 3442 4084 
Q 3081 4231 2675 4231 
Q 1875 4231 1450 3742 
Q 1025 3253 1025 2328 
Q 1025 1406 1450 917 
Q 1875 428 2675 428 
Q 3081 428 3442 575 
Q 3803 722 4122 1019 
L 4122 359 
Q 3791 134 3420 21 
Q 3050 -91 2638 -91 
Q 1578 -91 968 557 
Q 359 1206 359 2328 
Q 359 3453 968 4101 
Q 1578 4750 2638 4750 
Q 3056 4750 3426 4639 
Q 3797 4528 4122 4306 
z
" transform="scale(0.015625)"/>
       <path id="DejaVuSans-75" d="M 544 1381 
L 544 3500 
L 1119 3500 
L 1119 1403 
Q 1119 906 1312 657 
Q 1506 409 1894 409 
Q 2359 409 2629 706 
Q 2900 1003 2900 1516 
L 2900 3500 
L 3475 3500 
L 3475 0 
L 2900 0 
L 2900 538 
Q 2691 219 2414 64 
Q 2138 -91 1772 -91 
Q 1169 -91 856 284 
Q 544 659 544 1381 
z
M 1991 3584 
L 1991 3584 
z
" transform="scale(0.015625)"/>
       <path id="DejaVuSans-6e" d="M 3513 2113 
L 3513 0 
L 2938 0 
L 2938 2094 
Q 2938 2591 2744 2837 
Q 2550 3084 2163 3084 
Q 1697 3084 1428 2787 
Q 1159 2491 1159 1978 
L 1159 0 
L 581 0 
L 581 3500 
L 1159 3500 
L 1159 2956 
Q 1366 3272 1645 3428 
Q 1925 3584 2291 3584 
Q 2894 3584 3203 3211 
Q 3513 2838 3513 2113 
z
" transform="scale(0.015625)"/>
      </defs>
      <use xlink:href="#DejaVuSans-43"/>
      <use xlink:href="#DejaVuSans-6f" transform="translate(69.824219 0)"/>
      <use xlink:href="#DejaVuSans-75" transform="translate(131.005859 0)"/>
      <use xlink:href="#DejaVuSans-6e" transform="translate(194.384766 0)"/>
      <use xlink:href="#DejaVuSans-74" transform="translate(257.763672 0)"/>
     </g>
    </g>
   </g>
   <g id="line2d_35">
    <path d="M 85.239886 454.682026 
L 85.295423 454.682026 
L 85.429415 454.126239 
L 85.504917 454.126239 
L 85.690587 257.933546 
L 88.026168 257.933546 
L 88.036839 261.268266 
L 90.86245 261.268266 
L 90.999193 260.712479 
L 91.391471 260.712479 
L 91.709388 260.156692 
L 93.679335 259.600906 
L 93.718227 260.156692 
L 93.789905 259.600906 
L 99.913 259.600906 
L 103.593233 260.712479 
L 104.140812 259.600906 
L 104.54064 259.600906 
L 105.548348 259.045119 
L 105.969955 256.821972 
L 106.790887 256.821972 
L 107.987184 260.712479 
L 108.064801 256.821972 
L 108.982778 256.266186 
L 111.371849 256.266186 
L 112.002011 255.710399 
L 112.938042 255.710399 
L 113.245254 254.598826 
L 119.023252 254.598826 
L 119.448785 253.487252 
L 119.470597 252.375679 
L 121.307794 252.375679 
L 124.016828 251.264106 
L 125.437922 251.264106 
L 125.459432 250.708319 
L 128.723024 250.708319 
L 129.532614 247.929386 
L 132.09477 247.929386 
L 132.112555 247.373599 
L 146.461914 247.373599 
L 149.14417 246.817812 
L 149.235746 247.373599 
L 152.017598 246.817812 
L 161.69821 246.817812 
L 166.390279 246.262026 
L 166.480915 245.706239 
L 166.703799 245.150452 
L 169.350754 245.150452 
L 170.47732 244.594666 
L 175.123148 244.594666 
L 175.299522 247.373599 
L 175.308179 245.150452 
L 175.53405 245.150452 
L 176.65565 242.927306 
L 182.147073 242.927306 
L 186.355724 242.371519 
L 191.033363 242.371519 
L 191.23863 241.815732 
L 203.393446 241.815732 
L 203.912199 241.259946 
L 206.863546 241.259946 
L 206.884352 240.148372 
L 212.50772 240.148372 
L 212.62178 236.257866 
L 222.799769 236.257866 
L 222.802822 235.702079 
L 223.097585 235.702079 
L 224.380391 235.146292 
L 225.684036 235.146292 
L 226.098663 234.590506 
L 226.140139 235.146292 
L 227.089593 234.590506 
L 227.093922 234.034719 
L 227.116103 234.590506 
L 227.664554 234.034719 
L 232.66058 234.034719 
L 234.213887 233.478932 
L 236.057023 233.478932 
L 239.187564 232.923146 
L 242.151193 232.923146 
L 244.440902 231.811572 
L 249.451794 231.811572 
L 252.366665 230.699999 
L 253.187932 231.255786 
L 257.256316 231.255786 
L 261.845634 229.032639 
L 268.690031 229.032639 
L 270.812729 228.476852 
L 308.641727 228.476852 
L 308.947227 227.921066 
L 322.742597 227.921066 
L 322.973099 227.365279 
L 346.447268 227.365279 
L 351.616212 226.809492 
L 351.646111 227.365279 
L 355.34631 225.697919 
L 360.77656 225.697919 
L 363.741665 225.142132 
L 363.746531 224.586346 
L 369.93325 224.586346 
L 372.153732 225.142132 
L 372.951946 224.586346 
L 383.305739 224.586346 
L 383.746372 225.142132 
L 384.553545 224.586346 
L 384.830925 222.363199 
L 389.575745 222.363199 
L 389.579839 221.807412 
L 404.098894 221.807412 
L 404.944389 221.251626 
L 407.734698 221.251626 
L 408.00691 220.695839 
L 421.61339 220.695839 
L 421.631879 220.140052 
L 425.035068 220.140052 
L 425.040135 219.584266 
L 425.865932 219.584266 
L 425.909053 219.028479 
L 427.191423 219.028479 
L 427.392898 218.472692 
L 430.137569 218.472692 
L 430.55478 217.361119 
L 432.065738 215.137972 
L 435.719495 215.137972 
L 435.989258 212.359039 
L 437.214447 212.359039 
L 437.81575 211.247466 
L 440.914244 211.247466 
L 441.930945 210.691679 
L 444.841253 210.691679 
L 445.231316 210.135892 
L 453.135972 210.135892 
L 453.330735 209.580106 
L 454.061835 209.580106 
L 455.196891 209.024319 
L 467.982137 209.024319 
L 468.097002 208.468532 
L 468.506931 208.468532 
L 469.362694 207.356959 
L 470.562482 207.356959 
L 470.850969 206.801172 
L 471.128919 206.801172 
L 471.234388 206.245386 
L 474.442948 206.245386 
L 474.989184 205.689599 
L 477.781976 205.689599 
L 477.961034 205.133812 
L 479.490818 205.133812 
L 479.588838 204.578026 
L 484.343053 204.578026 
L 484.445267 204.022239 
L 487.217992 204.022239 
L 488.144091 201.799092 
L 489.170859 201.799092 
L 489.171933 201.243306 
L 493.34102 201.243306 
L 494.105342 200.687519 
L 497.297559 200.687519 
L 497.926312 200.131732 
L 498.16282 200.131732 
L 498.777176 199.575946 
L 500.34649 199.575946 
L 500.527864 199.020159 
L 504.463698 199.020159 
L 505.478219 198.464372 
L 505.552111 197.908586 
L 505.880564 197.908586 
L 506.917265 195.685439 
L 510.132369 195.685439 
L 510.155523 195.129652 
L 513.215359 195.129652 
L 513.506933 194.573866 
L 513.854782 194.573866 
L 514.204678 194.018079 
L 514.277664 194.573866 
L 514.539675 194.018079 
L 515.703758 194.018079 
L 515.714899 193.462292 
L 516.024023 193.462292 
L 516.159391 192.906506 
L 517.094751 192.350719 
L 523.602608 192.350719 
L 524.619779 191.794932 
L 525.300679 191.794932 
L 525.85309 191.239146 
L 526.41191 191.794932 
L 528.712794 191.794932 
L 528.812021 190.683359 
L 532.11511 190.683359 
L 533.396708 189.015999 
L 547.307547 189.015999 
L 548.116029 188.460212 
L 569.588171 188.460212 
L 569.720083 187.904426 
L 601.271155 187.904426 
L 601.410147 187.348639 
L 601.420113 186.792852 
L 601.430012 187.348639 
L 606.028525 187.348639 
L 607.066804 186.792852 
L 625.183374 186.792852 
L 628.911358 186.237066 
L 628.947599 185.681279 
L 629.256221 185.681279 
L 630.222923 185.125492 
L 659.298817 185.125492 
L 659.464621 184.569706 
L 685.437357 184.569706 
L 688.756184 184.013919 
L 690.786265 184.013919 
L 691.006565 183.458132 
L 692.417558 182.902346 
L 696.374466 182.902346 
L 698.04096 182.346559 
L 699.784769 182.346559 
L 699.920573 181.790772 
L 702.788801 181.790772 
L 703.131415 181.234986 
L 703.199233 180.679199 
L 708.305861 180.679199 
L 708.32566 180.123412 
L 712.673705 180.123412 
L 712.683302 179.567626 
L 714.15651 179.011839 
L 716.771854 179.011839 
L 718.653916 178.456052 
L 720.338229 178.456052 
L 722.820688 175.121332 
L 725.718915 175.121332 
L 725.732338 172.342399 
L 740.304714 172.342399 
L 740.306224 171.786612 
L 740.558269 171.230826 
L 741.954027 171.230826 
L 742.257615 170.675039 
L 746.835792 170.675039 
L 747.894138 170.119252 
L 748.068263 170.675039 
L 756.256842 170.675039 
L 756.258688 170.119252 
L 759.564864 170.119252 
L 760.917368 167.340319 
L 769.208865 167.340319 
L 769.297421 166.228746 
L 771.172101 164.561386 
L 773.053157 164.561386 
L 773.253524 164.005599 
L 781.160965 164.005599 
L 781.306366 163.449812 
L 789.246323 163.449812 
L 789.419274 162.894026 
L 791.607575 161.226666 
L 791.777138 160.670879 
L 812.012614 160.670879 
L 812.012614 160.670879 
" clip-path="url(#p73aa0b4c05)" style="fill: none; stroke: #1a7f37; stroke-width: 2; stroke-linecap: square"/>
   </g>
   <g id="line2d_36">
    <path d="M 85.239886 455.237812 
L 85.330657 453.570452 
L 85.429415 453.570452 
L 85.583742 372.981386 
L 86.873998 372.981386 
L 86.902152 370.758239 
L 88.313447 370.758239 
L 88.677068 369.090879 
L 89.171828 370.758239 
L 89.175486 369.090879 
L 89.584878 369.090879 
L 89.743098 367.979306 
L 93.786046 367.979306 
L 93.789905 367.423519 
L 93.812656 367.979306 
L 94.011647 367.423519 
L 94.070003 367.979306 
L 94.340369 367.423519 
L 95.644383 367.423519 
L 95.718611 366.867732 
L 95.92079 366.311946 
L 97.52262 366.311946 
L 99.345489 365.756159 
L 99.409649 365.200372 
L 99.902329 364.644586 
L 99.913 364.088799 
L 103.593233 367.979306 
L 104.140812 366.311946 
L 104.54064 363.533012 
L 106.790887 363.533012 
L 107.987184 367.979306 
L 108.064801 363.533012 
L 129.925026 363.533012 
L 130.595825 362.977226 
L 132.112555 362.977226 
L 136.254999 362.421439 
L 137.264049 361.865652 
L 151.641428 361.865652 
L 152.017598 361.309866 
L 153.950264 360.754079 
L 155.178642 360.754079 
L 156.540239 360.198292 
L 156.576917 359.086719 
L 157.512881 358.530932 
L 158.141935 357.975146 
L 166.807959 357.975146 
L 168.535459 357.419359 
L 169.057703 357.419359 
L 169.350754 356.863572 
L 170.47732 356.863572 
L 171.596537 356.307786 
L 175.123148 356.307786 
L 175.299522 358.530932 
L 175.308179 356.307786 
L 176.65565 356.307786 
L 176.790917 355.751999 
L 178.698214 355.751999 
L 180.574739 355.196212 
L 180.620276 354.640426 
L 186.355724 354.640426 
L 188.774862 354.084639 
L 188.780969 353.528852 
L 196.831093 353.528852 
L 200.189114 352.973066 
L 202.708486 352.973066 
L 203.393446 352.417279 
L 207.23908 352.417279 
L 209.432481 351.861492 
L 209.552715 351.305706 
L 211.691184 351.305706 
L 211.93937 350.749919 
L 212.62178 350.194132 
L 214.145154 350.194132 
L 215.106957 349.638346 
L 216.870396 349.638346 
L 218.021325 349.082559 
L 220.476603 349.082559 
L 221.313072 347.970986 
L 227.664554 347.970986 
L 229.473396 347.415199 
L 231.594449 347.415199 
L 232.072767 346.859412 
L 232.21904 346.303626 
L 232.66058 345.747839 
L 239.96467 345.747839 
L 241.301973 345.192052 
L 242.151193 344.636266 
L 262.921228 344.636266 
L 267.583599 344.080479 
L 267.639303 343.524692 
L 270.812729 343.524692 
L 273.525119 342.968906 
L 278.319234 342.968906 
L 278.72433 342.413119 
L 286.888916 342.413119 
L 293.280197 341.857332 
L 293.341539 341.301546 
L 294.177101 341.301546 
L 295.870004 340.745759 
L 295.964433 339.078399 
L 296.038929 338.522612 
L 299.575103 337.966826 
L 299.786846 337.411039 
L 299.871241 336.299466 
L 300.191506 335.743679 
L 311.698576 335.743679 
L 314.967538 335.187892 
L 317.048458 334.632106 
L 318.678643 334.632106 
L 322.458372 334.076319 
L 322.742597 331.853172 
L 322.973099 331.853172 
L 323.51655 330.741599 
L 330.68591 330.185812 
L 330.914096 329.630026 
L 330.981411 329.074239 
L 332.49606 329.074239 
L 333.926349 328.518452 
L 334.090743 327.962666 
L 334.202386 326.851092 
L 335.149122 326.295306 
L 335.218618 325.739519 
L 336.945984 325.183732 
L 339.216566 324.627946 
L 339.378041 324.072159 
L 339.381464 323.516372 
L 339.838171 322.960586 
L 339.918841 322.404799 
L 343.212534 321.849012 
L 343.802998 321.293226 
L 357.668872 321.293226 
L 359.968312 320.737439 
L 360.177572 320.181652 
L 369.5752 320.181652 
L 369.93325 319.070079 
L 373.848749 319.070079 
L 375.030885 318.514292 
L 375.088637 317.402719 
L 375.392191 316.846932 
L 377.402205 316.291146 
L 377.447473 315.735359 
L 377.690088 315.179572 
L 377.93871 312.956426 
L 378.215653 312.956426 
L 378.225855 312.400639 
L 379.903859 311.844852 
L 380.56355 311.289066 
L 380.72318 310.733279 
L 383.746372 310.177492 
L 385.974337 310.177492 
L 386.747987 309.621706 
L 395.124584 309.621706 
L 397.899692 309.065919 
L 397.910732 308.510132 
L 398.409821 307.954346 
L 404.944389 307.954346 
L 406.777861 307.398559 
L 407.533156 306.842772 
L 407.734698 305.731199 
L 413.020486 305.731199 
L 413.380617 305.175412 
L 416.283206 305.175412 
L 417.672823 304.619626 
L 421.631879 304.619626 
L 424.025313 304.063839 
L 428.995701 304.063839 
L 429.606601 303.508052 
L 432.065738 303.508052 
L 432.735094 302.952266 
L 433.025461 302.396479 
L 433.16848 301.840692 
L 435.192722 301.840692 
L 435.250272 300.729119 
L 435.989258 300.729119 
L 436.474454 299.061759 
L 438.235276 299.061759 
L 438.453965 298.505972 
L 438.623729 298.505972 
L 439.46654 297.950186 
L 440.86515 297.950186 
L 440.914244 297.394399 
L 441.930945 297.394399 
L 442.177889 296.838612 
L 443.133484 296.838612 
L 444.596591 295.727039 
L 445.231316 295.727039 
L 447.686158 294.615466 
L 447.68985 294.059679 
L 448.158536 293.503892 
L 449.354364 292.948106 
L 449.540302 292.392319 
L 450.732572 291.836532 
L 452.681546 291.836532 
L 453.330735 290.724959 
L 455.707692 290.724959 
L 455.775174 290.169172 
L 456.452349 290.169172 
L 456.504328 289.613386 
L 456.875936 289.057599 
L 458.168943 289.057599 
L 458.267298 288.501812 
L 458.488806 288.501812 
L 458.608805 287.946026 
L 458.633133 287.946026 
L 458.738837 287.390239 
L 460.454391 287.390239 
L 460.814455 286.834452 
L 461.116801 286.834452 
L 461.297504 286.278666 
L 461.758976 286.278666 
L 462.104476 285.722879 
L 462.177327 285.167092 
L 462.276085 285.167092 
L 464.01288 284.611306 
L 465.312566 284.611306 
L 465.410954 284.055519 
L 470.537884 284.055519 
L 470.562482 283.499732 
L 470.850969 283.499732 
L 471.529821 282.388159 
L 473.261382 282.388159 
L 473.421951 280.720799 
L 473.468796 279.609226 
L 473.771444 279.053439 
L 474.989184 279.053439 
L 475.563507 278.497652 
L 476.12018 278.497652 
L 476.299675 277.941866 
L 477.162586 277.386079 
L 477.961034 277.386079 
L 479.56622 276.830292 
L 479.672998 276.274506 
L 480.07937 276.274506 
L 480.160678 275.718719 
L 481.58761 275.718719 
L 481.627241 275.162932 
L 488.547342 275.162932 
L 488.654253 274.607146 
L 488.860124 274.607146 
L 488.951398 273.495572 
L 489.842464 273.495572 
L 489.914342 272.939786 
L 490.032093 272.939786 
L 490.649268 272.383999 
L 490.804401 271.828212 
L 491.087854 271.828212 
L 491.327718 271.272426 
L 491.405905 270.716639 
L 494.883086 270.716639 
L 495.760762 270.160852 
L 495.934116 269.049279 
L 496.147738 268.493492 
L 496.504346 268.493492 
L 496.721693 267.937706 
L 501.711846 267.937706 
L 502.041272 266.270346 
L 502.723111 266.270346 
L 502.823211 265.714559 
L 505.487581 265.714559 
L 505.552111 264.602986 
L 508.752147 264.602986 
L 508.785301 264.047199 
L 510.32683 264.047199 
L 510.337199 263.491412 
L 511.087863 263.491412 
L 511.212358 262.935626 
L 513.393277 262.935626 
L 513.506933 262.379839 
L 513.651731 262.379839 
L 513.854782 261.824052 
L 514.26696 261.824052 
L 514.277664 261.268266 
L 514.539675 261.268266 
L 515.039503 260.712479 
L 519.076645 260.712479 
L 519.370065 260.156692 
L 520.567939 260.156692 
L 520.570154 259.600906 
L 529.728656 259.600906 
L 531.283104 259.045119 
L 531.328171 258.489332 
L 532.11511 257.933546 
L 533.311709 257.933546 
L 533.396708 256.821972 
L 533.613149 256.821972 
L 533.703249 256.266186 
L 536.881205 256.266186 
L 537.455092 255.710399 
L 542.952119 255.710399 
L 542.969032 255.154612 
L 544.764417 255.154612 
L 545.531692 254.598826 
L 553.98208 254.598826 
L 554.087549 253.487252 
L 557.41094 253.487252 
L 558.071974 252.931466 
L 558.779853 252.931466 
L 559.645214 252.375679 
L 565.365259 252.375679 
L 565.913006 251.819892 
L 566.387632 251.819892 
L 566.620348 251.264106 
L 568.442545 250.708319 
L 569.33455 250.708319 
L 569.625419 250.152532 
L 569.720083 250.152532 
L 572.280092 249.596746 
L 576.99357 249.596746 
L 577.362425 249.040959 
L 595.55517 249.040959 
L 596.219895 248.485172 
L 600.427002 248.485172 
L 600.579047 247.929386 
L 600.852333 247.929386 
L 600.934715 247.373599 
L 624.429623 247.373599 
L 625.183374 246.817812 
L 630.793152 246.817812 
L 632.011765 246.262026 
L 632.093442 245.706239 
L 635.012172 245.706239 
L 635.133278 245.150452 
L 644.587348 245.150452 
L 644.60671 244.594666 
L 652.587506 244.594666 
L 652.673411 244.038879 
L 653.191762 243.483092 
L 655.150199 243.483092 
L 655.154696 242.927306 
L 655.552679 242.371519 
L 658.493154 242.371519 
L 659.464621 241.815732 
L 665.734762 241.815732 
L 665.778922 240.704159 
L 705.524076 240.704159 
L 708.32566 240.148372 
L 711.850391 240.148372 
L 711.967504 239.592586 
L 727.5943 239.592586 
L 727.620541 239.036799 
L 743.939545 239.036799 
L 744.107765 238.481012 
L 745.078661 238.481012 
L 745.103963 237.925226 
L 745.323391 237.369439 
L 746.176973 236.257866 
L 746.302442 235.146292 
L 746.374958 234.034719 
L 746.59358 233.478932 
L 746.64415 232.923146 
L 746.835792 232.367359 
L 748.068263 232.367359 
L 748.221483 231.811572 
L 748.228698 231.255786 
L 748.690875 230.699999 
L 756.258688 230.699999 
L 757.074385 229.588426 
L 780.944457 229.588426 
L 781.096133 229.032639 
L 795.66606 229.032639 
L 796.011124 227.921066 
L 797.573558 227.921066 
L 797.782851 227.365279 
L 807.065749 227.365279 
L 807.297726 226.809492 
L 810.946483 226.809492 
L 811.92097 226.253706 
L 812.012614 225.697919 
L 812.012614 225.697919 
" clip-path="url(#p73aa0b4c05)" style="fill: none; stroke: #0969da; stroke-width: 2; stroke-linecap: square"/>
   </g>
   <g id="line2d_37">
    <path d="M 85.239886 455.237812 
L 88.026168 455.237812 
L 88.036839 454.126239 
L 90.337086 454.126239 
L 90.86245 453.570452 
L 232.66058 453.570452 
L 234.213887 453.014666 
L 273.525119 453.014666 
L 274.616081 452.458879 
L 311.698576 452.458879 
L 314.967538 451.903092 
L 323.51655 451.903092 
L 330.981411 450.235732 
L 332.49606 449.124159 
L 335.218618 449.124159 
L 336.945984 448.568372 
L 339.381464 448.012586 
L 339.918841 448.012586 
L 343.212534 447.456799 
L 343.802998 446.901012 
L 346.447268 446.345226 
L 351.616212 445.789439 
L 351.646111 446.345226 
L 360.177572 446.345226 
L 360.77656 445.789439 
L 372.951946 445.789439 
L 373.848749 445.233652 
L 377.93871 445.233652 
L 378.225855 444.677866 
L 383.305739 444.677866 
L 383.746372 444.122079 
L 402.355756 444.122079 
L 404.098894 443.566292 
L 404.831504 443.566292 
L 404.944389 443.010506 
L 409.911086 443.010506 
L 409.915818 442.454719 
L 421.61339 442.454719 
L 421.631879 441.898932 
L 425.040135 441.898932 
L 425.909053 441.343146 
L 427.189175 440.787359 
L 427.191423 440.231572 
L 427.392898 440.231572 
L 428.995701 438.564212 
L 430.075422 438.564212 
L 430.137569 436.896852 
L 430.55478 436.896852 
L 432.065738 437.452639 
L 433.152372 437.452639 
L 433.16848 435.229492 
L 437.214447 435.229492 
L 437.81575 434.673706 
L 438.453965 434.673706 
L 438.623729 434.117919 
L 453.135972 434.117919 
L 453.330735 433.562132 
L 454.061835 433.562132 
L 455.196891 433.006346 
L 460.204595 433.006346 
L 460.454391 432.450559 
L 462.177327 432.450559 
L 462.276085 431.894772 
L 467.982137 431.894772 
L 468.097002 431.338986 
L 468.506931 431.338986 
L 468.922699 430.783199 
L 469.338064 430.783199 
L 469.362694 430.227412 
L 471.128919 430.227412 
L 471.234388 429.671626 
L 479.43394 429.671626 
L 479.545717 429.115839 
L 479.588838 429.115839 
L 479.672998 428.560052 
L 480.160678 428.560052 
L 481.183017 428.004266 
L 485.179925 428.004266 
L 485.183448 427.448479 
L 485.947165 427.448479 
L 485.976226 426.892692 
L 488.144091 426.892692 
L 488.654253 426.336906 
L 491.488454 426.336906 
L 492.326366 425.781119 
L 493.955914 425.781119 
L 493.973196 424.669546 
L 494.105342 424.669546 
L 494.271649 424.113759 
L 496.893067 424.113759 
L 497.297559 423.557972 
L 497.926312 423.557972 
L 498.16282 423.002186 
L 499.697503 423.002186 
L 499.911796 422.446399 
L 499.914548 421.890612 
L 500.34649 421.890612 
L 500.527864 421.334826 
L 517.059651 421.334826 
L 517.094751 420.223252 
L 519.370065 420.223252 
L 520.024924 419.667466 
L 520.570154 419.667466 
L 523.127881 419.111679 
L 523.602608 419.111679 
L 524.619779 418.555892 
L 525.300679 418.555892 
L 525.85309 418.000106 
L 526.41191 418.555892 
L 528.210852 418.555892 
L 528.700042 418.000106 
L 528.812021 416.888532 
L 529.722515 416.332746 
L 529.728656 415.221172 
L 533.703249 415.221172 
L 534.572469 414.665386 
L 534.660555 412.998026 
L 535.529339 412.442239 
L 536.009804 411.886452 
L 540.119093 411.886452 
L 540.293454 410.219092 
L 540.503049 410.219092 
L 540.65845 409.663306 
L 541.662736 409.107519 
L 543.24356 409.107519 
L 543.569228 408.551732 
L 543.643321 407.995946 
L 543.809494 407.995946 
L 544.764417 406.884372 
L 545.787528 406.884372 
L 546.123465 406.328586 
L 547.303655 406.328586 
L 547.307547 405.217012 
L 548.116029 405.217012 
L 549.189341 404.661226 
L 552.032904 403.549652 
L 552.286761 402.993866 
L 558.071974 402.993866 
L 558.779853 401.882292 
L 569.588171 401.882292 
L 569.720083 400.770719 
L 574.980938 400.770719 
L 575.784756 400.214932 
L 578.224028 400.214932 
L 578.360939 399.659146 
L 593.367607 399.659146 
L 593.607135 399.103359 
L 595.093563 399.103359 
L 595.55517 398.547572 
L 598.329304 398.547572 
L 598.851044 397.991786 
L 598.854467 397.435999 
L 599.451172 396.880212 
L 601.271155 396.880212 
L 601.410147 396.324426 
L 601.420113 395.212852 
L 601.430012 395.768639 
L 602.653021 395.212852 
L 607.066804 395.212852 
L 607.937433 394.101279 
L 615.901282 394.101279 
L 616.517015 393.545492 
L 618.448976 393.545492 
L 618.603639 392.989706 
L 618.624914 392.433919 
L 625.183374 392.433919 
L 629.256221 391.322346 
L 630.222923 391.322346 
L 630.793152 390.766559 
L 639.229581 390.766559 
L 640.266551 390.210772 
L 641.551471 390.210772 
L 642.795922 389.654986 
L 653.191762 389.654986 
L 653.477061 389.099199 
L 653.478605 388.543412 
L 659.298817 388.543412 
L 659.464621 387.987626 
L 685.437357 387.987626 
L 688.756184 387.431839 
L 696.374466 387.431839 
L 698.04096 386.876052 
L 699.507255 386.876052 
L 699.784769 386.320266 
L 703.199233 386.320266 
L 703.776006 385.764479 
L 704.536703 385.764479 
L 705.524076 385.208692 
L 707.890798 385.208692 
L 708.32566 384.652906 
L 708.616966 384.652906 
L 709.677493 384.097119 
L 719.9234 384.097119 
L 719.952058 382.429759 
L 728.892173 382.429759 
L 732.683244 381.873972 
L 732.686331 381.318186 
L 737.131792 381.318186 
L 737.318401 380.762399 
L 737.321152 380.206612 
L 739.400562 380.206612 
L 740.306224 379.650826 
L 740.954104 379.650826 
L 741.954027 379.095039 
L 743.02707 379.095039 
L 743.212505 377.983466 
L 744.107765 377.983466 
L 744.286186 377.427679 
L 746.300697 377.427679 
L 746.374958 376.871892 
L 749.550229 376.871892 
L 751.850576 376.316106 
L 752.605099 376.316106 
L 753.345796 375.760319 
L 754.875882 375.204532 
L 754.882426 374.648746 
L 755.304368 372.981386 
L 755.689935 372.425599 
L 756.258688 371.869812 
L 757.782901 371.869812 
L 758.707255 370.202452 
L 760.917368 370.202452 
L 761.515785 368.535092 
L 763.947708 368.535092 
L 764.205222 367.979306 
L 765.967856 367.979306 
L 766.350906 366.867732 
L 767.014624 366.311946 
L 769.297421 366.311946 
L 773.253524 365.200372 
L 775.789976 364.644586 
L 775.96229 364.088799 
L 778.361428 364.088799 
L 778.514916 363.533012 
L 781.148851 363.533012 
L 781.160965 362.977226 
L 781.654718 362.977226 
L 781.762939 362.421439 
L 789.246323 362.421439 
L 789.419274 361.865652 
L 791.777138 361.309866 
L 795.654952 361.309866 
L 795.66606 360.754079 
L 809.892634 360.754079 
L 810.946483 358.530932 
L 812.012614 358.530932 
L 812.012614 358.530932 
" clip-path="url(#p73aa0b4c05)" style="fill: none; stroke: #bf8700; stroke-width: 2; stroke-linecap: square"/>
   </g>
   <g id="line2d_38">
    <path d="M 85.239886 454.682026 
L 85.478206 454.682026 
L 85.583742 432.450559 
L 86.13528 426.892692 
L 86.450445 425.781119 
L 86.610343 426.336906 
L 86.902152 425.781119 
L 87.395671 425.225332 
L 87.738084 424.113759 
L 88.026168 423.557972 
L 88.036839 423.002186 
L 88.313447 421.334826 
L 88.677068 421.334826 
L 89.171828 420.779039 
L 89.175486 420.223252 
L 89.573838 419.667466 
L 89.683669 419.111679 
L 89.743098 419.111679 
L 90.337086 418.555892 
L 90.761477 418.000106 
L 90.86245 411.886452 
L 90.932281 412.442239 
L 91.19795 406.328586 
L 91.202681 407.995946 
L 91.391471 402.993866 
L 93.789905 402.993866 
L 94.011647 399.659146 
L 94.070003 402.438079 
L 94.340369 397.991786 
L 94.47426 397.435999 
L 95.471801 396.880212 
L 95.501902 396.324426 
L 95.718611 395.768639 
L 95.92079 395.768639 
L 96.43451 395.212852 
L 96.708937 394.657066 
L 96.833231 393.545492 
L 96.908834 392.989706 
L 97.165208 392.433919 
L 97.17155 391.878132 
L 97.4294 392.433919 
L 97.502788 391.878132 
L 97.511815 392.433919 
L 97.52262 390.766559 
L 99.913 390.766559 
L 103.593233 402.993866 
L 104.140812 390.210772 
L 104.54064 389.654986 
L 105.969955 389.654986 
L 106.231395 389.099199 
L 106.790887 388.543412 
L 107.987184 402.993866 
L 108.064801 387.987626 
L 108.982778 387.431839 
L 110.94588 386.876052 
L 111.085879 387.431839 
L 111.371849 385.764479 
L 112.002011 385.764479 
L 112.193486 385.208692 
L 112.555126 384.652906 
L 112.585126 383.541332 
L 112.918714 382.429759 
L 112.938042 382.985546 
L 113.136463 382.985546 
L 113.245254 381.873972 
L 113.58015 379.650826 
L 113.624177 378.539252 
L 114.053837 376.871892 
L 114.263835 377.983466 
L 115.748653 374.648746 
L 116.139622 375.760319 
L 117.7486 373.537172 
L 119.023252 377.427679 
L 119.470597 373.537172 
L 121.307794 371.869812 
L 124.016828 371.869812 
L 124.37461 371.314026 
L 124.659339 369.646666 
L 125.459432 371.314026 
L 128.723024 371.869812 
L 129.532614 369.646666 
L 129.925026 367.979306 
L 130.595825 369.646666 
L 132.112555 367.979306 
L 137.264049 367.979306 
L 142.680876 367.423519 
L 143.042115 366.867732 
L 146.461914 366.311946 
L 148.723234 366.311946 
L 149.14417 365.756159 
L 149.235746 366.311946 
L 151.641428 364.644586 
L 153.897882 364.644586 
L 153.950264 364.088799 
L 155.178642 363.533012 
L 158.141935 363.533012 
L 159.449104 359.642506 
L 160.422014 359.086719 
L 161.673915 358.530932 
L 161.69821 357.975146 
L 166.390279 357.975146 
L 166.480915 354.084639 
L 166.654572 354.084639 
L 166.807959 352.973066 
L 168.535459 352.973066 
L 169.057703 352.417279 
L 171.596537 352.417279 
L 175.123148 351.861492 
L 175.299522 363.533012 
L 175.308179 352.417279 
L 175.53405 351.861492 
L 176.790917 351.861492 
L 178.698214 351.305706 
L 180.620276 351.305706 
L 182.147073 350.749919 
L 186.355724 349.638346 
L 188.780969 349.638346 
L 190.730078 349.082559 
L 191.033363 346.303626 
L 191.23863 346.303626 
L 191.601848 345.747839 
L 193.496427 345.192052 
L 193.934376 342.968906 
L 196.55284 341.857332 
L 196.584384 342.413119 
L 196.831093 341.857332 
L 200.189114 340.745759 
L 202.708486 340.189972 
L 203.912199 340.189972 
L 204.979102 339.634186 
L 205.90369 338.522612 
L 206.884352 337.966826 
L 207.23908 337.411039 
L 209.552715 337.966826 
L 211.691184 336.855252 
L 211.93937 337.411039 
L 212.50772 337.411039 
L 212.62178 336.855252 
L 214.145154 336.299466 
L 215.106957 336.855252 
L 216.870396 335.743679 
L 218.021325 335.743679 
L 220.476603 335.187892 
L 220.883747 335.743679 
L 221.313072 334.076319 
L 222.802822 334.076319 
L 223.097585 333.520532 
L 224.380391 331.297386 
L 224.742837 330.185812 
L 225.684036 330.741599 
L 226.098663 329.630026 
L 226.140139 329.074239 
L 229.473396 329.074239 
L 231.161601 328.518452 
L 231.594449 327.962666 
L 234.213887 327.962666 
L 236.057023 327.406879 
L 239.187564 327.406879 
L 239.96467 326.851092 
L 248.573111 326.851092 
L 249.067502 326.295306 
L 249.117032 325.739519 
L 249.451794 325.183732 
L 253.187932 325.183732 
L 253.420782 324.627946 
L 254.371344 324.072159 
L 254.535973 323.516372 
L 256.110857 322.960586 
L 257.256316 322.404799 
L 261.845634 322.404799 
L 262.921228 321.293226 
L 267.639303 321.293226 
L 268.690031 320.737439 
L 273.087103 320.737439 
L 273.525119 320.181652 
L 274.616081 319.625866 
L 274.940843 319.070079 
L 275.051111 318.514292 
L 278.319234 317.958506 
L 278.72433 318.514292 
L 283.026604 317.402719 
L 286.428216 316.291146 
L 286.888916 315.735359 
L 293.341539 315.735359 
L 294.177101 315.179572 
L 300.191506 315.179572 
L 305.856955 314.623786 
L 306.569565 314.067999 
L 308.947227 313.512212 
L 311.3316 312.956426 
L 311.698576 312.400639 
L 317.048458 312.400639 
L 318.678643 311.844852 
L 330.981411 311.844852 
L 332.49606 311.289066 
L 342.658479 311.289066 
L 343.212534 310.733279 
L 343.802998 311.289066 
L 346.447268 310.733279 
L 355.34631 310.733279 
L 356.538849 310.177492 
L 375.364406 310.177492 
L 375.392191 309.621706 
L 387.018857 309.621706 
L 389.573296 309.065919 
L 389.579839 308.510132 
L 402.350085 308.510132 
L 402.355756 307.398559 
L 409.915818 307.398559 
L 413.380617 306.842772 
L 417.672823 306.842772 
L 421.631879 305.731199 
L 429.606601 305.731199 
L 430.075422 305.175412 
L 430.137569 304.619626 
L 433.152372 304.619626 
L 433.16848 304.063839 
L 433.48153 304.063839 
L 433.980552 303.508052 
L 438.453965 303.508052 
L 438.623729 302.952266 
L 444.596591 302.952266 
L 444.841253 302.396479 
L 459.427958 302.396479 
L 460.203487 300.729119 
L 460.204595 300.173332 
L 462.271152 300.173332 
L 462.276085 299.617546 
L 468.371697 299.617546 
L 468.506931 299.061759 
L 471.42499 299.061759 
L 471.529821 298.505972 
L 482.370254 298.505972 
L 482.578708 297.950186 
L 485.094925 297.950186 
L 485.183448 297.394399 
L 485.976226 296.838612 
L 505.880564 296.838612 
L 506.917265 295.727039 
L 508.469063 295.727039 
L 508.785301 295.171252 
L 510.337199 295.171252 
L 510.567197 294.615466 
L 514.233839 294.615466 
L 514.277664 294.059679 
L 534.570757 294.059679 
L 534.660555 292.948106 
L 560.026116 292.948106 
L 560.684902 292.392319 
L 603.993746 292.392319 
L 606.028525 291.836532 
L 624.331167 291.836532 
L 624.429623 291.280746 
L 632.623671 291.280746 
L 633.021956 290.724959 
L 795.197709 290.724959 
L 795.66606 290.169172 
L 812.012614 290.169172 
L 812.012614 290.169172 
" clip-path="url(#p73aa0b4c05)" style="fill: none; stroke: #cf222e; stroke-width: 2; stroke-linecap: square"/>
   </g>
   <g id="line2d_39">
    <path d="M 85.239886 454.682026 
L 85.258846 454.126239 
L 85.408327 -1 
M 85.54268 -1 
L 85.690587 101.201706 
L 88.026168 101.201706 
L 88.036839 97.866986 
L 90.86245 97.866986 
L 90.999193 98.422772 
L 91.391471 98.422772 
L 91.709388 98.978559 
L 93.679335 99.534346 
L 93.718227 98.978559 
L 93.789905 99.534346 
L 99.913 99.534346 
L 103.593233 98.422772 
L 104.140812 99.534346 
L 104.54064 98.978559 
L 105.548348 99.534346 
L 105.969955 96.755412 
L 106.790887 96.755412 
L 107.987184 98.422772 
L 108.064801 95.643839 
L 108.982778 96.199626 
L 111.371849 96.199626 
L 112.002011 95.088052 
L 112.938042 95.088052 
L 113.245254 91.197546 
L 119.023252 91.197546 
L 119.448785 87.862826 
L 119.470597 86.751252 
L 121.307794 86.751252 
L 124.016828 82.860746 
L 125.437922 82.860746 
L 125.459432 83.416532 
L 128.723024 83.416532 
L 129.532614 80.081812 
L 132.09477 80.081812 
L 132.112555 80.637599 
L 146.461914 80.637599 
L 149.14417 81.193386 
L 149.235746 80.637599 
L 152.017598 81.193386 
L 161.69821 81.193386 
L 166.390279 81.749172 
L 166.480915 74.523946 
L 166.703799 75.079732 
L 169.350754 75.079732 
L 170.47732 75.635519 
L 175.123148 75.635519 
L 175.299522 80.637599 
L 175.308179 71.745012 
L 175.53405 71.745012 
L 176.65565 73.968159 
L 182.147073 73.968159 
L 186.355724 70.077652 
L 191.033363 70.077652 
L 191.23863 68.410292 
L 203.393446 68.410292 
L 203.912199 68.966079 
L 206.863546 68.966079 
L 206.884352 70.077652 
L 212.50772 70.077652 
L 212.62178 73.412372 
L 221.313072 73.412372 
L 221.520653 68.410292 
L 222.799769 67.298719 
L 222.802822 67.854506 
L 223.097585 67.854506 
L 224.147776 65.075572 
L 225.684036 65.075572 
L 226.098663 65.631359 
L 226.140139 65.075572 
L 227.089593 65.631359 
L 227.093922 66.187146 
L 227.116103 65.631359 
L 227.664554 63.408212 
L 232.66058 63.408212 
L 234.213887 63.963999 
L 236.057023 63.963999 
L 239.187564 64.519786 
L 242.151193 64.519786 
L 244.440902 65.631359 
L 249.117032 65.075572 
L 249.451794 65.075572 
L 252.366665 66.187146 
L 253.187932 65.631359 
L 257.256316 65.631359 
L 261.843151 67.854506 
L 261.845634 67.298719 
L 268.690031 67.298719 
L 270.812729 67.854506 
L 308.641727 67.854506 
L 308.947227 68.410292 
L 311.314587 68.410292 
L 311.3316 66.742932 
L 322.742597 66.742932 
L 322.973099 67.298719 
L 346.447268 67.298719 
L 351.616212 67.854506 
L 351.646111 67.298719 
L 355.34631 68.966079 
L 356.538849 68.966079 
L 357.668872 68.410292 
L 360.77656 68.410292 
L 363.741665 68.966079 
L 363.746531 69.521866 
L 372.153732 67.854506 
L 372.951946 68.410292 
L 383.305739 68.410292 
L 383.746372 67.854506 
L 384.553545 68.410292 
L 384.830925 70.633439 
L 389.575745 70.633439 
L 389.579839 71.189226 
L 404.098894 71.189226 
L 404.944389 71.745012 
L 407.734698 71.745012 
L 408.00691 72.300799 
L 421.61339 72.300799 
L 421.631879 72.856586 
L 424.025313 72.856586 
L 425.035068 73.412372 
L 425.040135 73.968159 
L 425.865932 73.412372 
L 425.909053 73.968159 
L 427.191423 73.968159 
L 427.392898 74.523946 
L 430.075422 74.523946 
L 430.137569 73.412372 
L 430.55478 74.523946 
L 432.065738 72.856586 
L 435.719495 72.856586 
L 435.989258 71.189226 
L 437.214447 71.189226 
L 437.81575 72.300799 
L 440.914244 72.300799 
L 441.930945 72.856586 
L 442.177889 72.856586 
L 443.133484 70.077652 
L 444.841253 70.077652 
L 445.231316 70.633439 
L 453.135972 70.633439 
L 453.330735 71.189226 
L 454.061835 71.189226 
L 455.196891 71.745012 
L 467.982137 71.745012 
L 468.097002 72.300799 
L 468.506931 72.300799 
L 469.362694 73.412372 
L 470.562482 73.412372 
L 470.850969 72.856586 
L 471.128919 72.856586 
L 471.234388 73.412372 
L 474.442948 73.412372 
L 474.989184 73.968159 
L 477.781976 73.968159 
L 477.961034 74.523946 
L 479.490818 74.523946 
L 479.588838 75.079732 
L 484.343053 75.079732 
L 484.445267 75.635519 
L 487.217992 75.635519 
L 488.144091 77.858666 
L 489.170859 77.858666 
L 489.171933 78.414452 
L 493.34102 78.414452 
L 494.105342 78.970239 
L 497.297559 78.970239 
L 497.926312 79.526026 
L 500.34649 79.526026 
L 500.527864 80.081812 
L 504.463698 80.081812 
L 505.478219 80.637599 
L 505.552111 81.193386 
L 505.880564 81.193386 
L 506.917265 60.629279 
L 510.132369 60.629279 
L 510.155523 61.185066 
L 510.337199 61.185066 
L 510.567197 60.629279 
L 513.215359 60.629279 
L 513.506933 61.185066 
L 513.854782 61.185066 
L 514.204678 61.740852 
L 514.277664 61.185066 
L 515.703758 61.185066 
L 515.714899 61.740852 
L 516.024023 61.740852 
L 516.159391 62.296639 
L 517.094751 62.852426 
L 523.602608 62.852426 
L 524.619779 63.408212 
L 525.300679 63.408212 
L 525.85309 63.963999 
L 526.41191 63.408212 
L 528.712794 63.408212 
L 528.812021 64.519786 
L 532.11511 64.519786 
L 533.396708 66.187146 
L 547.307547 66.187146 
L 548.116029 66.742932 
L 569.588171 66.742932 
L 569.720083 67.298719 
L 601.271155 67.298719 
L 601.410147 67.854506 
L 601.420113 68.410292 
L 601.430012 67.854506 
L 606.028525 67.854506 
L 607.066804 68.410292 
L 625.183374 68.410292 
L 629.256221 68.966079 
L 630.214903 69.521866 
L 630.222923 67.854506 
L 659.298817 67.854506 
L 659.464621 68.410292 
L 685.437357 68.410292 
L 688.756184 68.966079 
L 690.786265 68.966079 
L 691.006565 69.521866 
L 692.417558 70.077652 
L 696.374466 70.077652 
L 698.04096 70.633439 
L 699.784769 70.633439 
L 699.920573 71.189226 
L 702.788801 71.189226 
L 703.131415 71.745012 
L 703.199233 72.300799 
L 708.305861 72.300799 
L 708.32566 72.856586 
L 711.967504 72.856586 
L 712.673705 72.300799 
L 712.683302 72.856586 
L 714.15651 73.412372 
L 716.771854 73.412372 
L 718.653916 73.968159 
L 720.338229 73.968159 
L 722.820688 61.740852 
L 725.718915 61.740852 
L 725.732338 64.519786 
L 740.304714 64.519786 
L 740.306224 65.075572 
L 740.558269 65.631359 
L 741.954027 65.631359 
L 742.257615 66.187146 
L 746.835792 66.187146 
L 747.894138 66.742932 
L 748.068263 66.187146 
L 756.256842 66.187146 
L 756.258688 66.742932 
L 769.208865 66.742932 
L 769.297421 67.854506 
L 771.172101 69.521866 
L 773.053157 69.521866 
L 773.253524 70.077652 
L 781.160965 70.077652 
L 781.306366 70.633439 
L 789.246323 70.633439 
L 789.419274 71.189226 
L 791.607575 72.856586 
L 791.777138 73.412372 
L 812.012614 73.412372 
L 812.012614 73.412372 
" clip-path="url(#p73aa0b4c05)" style="fill: none; stroke: #9467bd; stroke-width: 2; stroke-linecap: square"/>
   </g>
   <g id="patch_3">
    <path d="M 48.90125 455.237812 
L 48.90125 38.397812 
" style="fill: none; stroke: #d0d7de; stroke-width: 0.8; stroke-linejoin: miter; stroke-linecap: square"/>
   </g>
   <g id="patch_4">
    <path d="M 848.35125 455.237812 
L 848.35125 38.397812 
" style="fill: none; stroke: #d0d7de; stroke-width: 0.8; stroke-linejoin: miter; stroke-linecap: square"/>
   </g>
   <g id="patch_5">
    <path d="M 48.90125 455.237812 
L 848.35125 455.237812 
" style="fill: none; stroke: #d0d7de; stroke-width: 0.8; stroke-linejoin: miter; stroke-linecap: square"/>
   </g>
   <g id="patch_6">
    <path d="M 48.90125 38.397812 
L 848.35125 38.397812 
" style="fill: none; stroke: #d0d7de; stroke-width: 0.8; stroke-linejoin: miter; stroke-linecap: square"/>
   </g>
   <g id="text_20">
    <!-- 530 -->
    <g style="fill: #1a7f37" transform="translate(817.012614 163.154317) scale(0.09 -0.09)">
     <defs>
      <path id="DejaVuSans-Bold-35" d="M 678 4666 
L 3669 4666 
L 3669 3781 
L 1638 3781 
L 1638 3059 
Q 1775 3097 1914 3117 
Q 2053 3138 2203 3138 
Q 3056 3138 3531 2711 
Q 4006 2284 4006 1522 
Q 4006 766 3489 337 
Q 2972 -91 2053 -91 
Q 1656 -91 1267 -14 
Q 878 63 494 219 
L 494 1166 
Q 875 947 1217 837 
Q 1559 728 1863 728 
Q 2300 728 2551 942 
Q 2803 1156 2803 1522 
Q 2803 1891 2551 2103 
Q 2300 2316 1863 2316 
Q 1603 2316 1309 2248 
Q 1016 2181 678 2041 
L 678 4666 
z
" transform="scale(0.015625)"/>
      <path id="DejaVuSans-Bold-33" d="M 2981 2516 
Q 3453 2394 3698 2092 
Q 3944 1791 3944 1325 
Q 3944 631 3412 270 
Q 2881 -91 1863 -91 
Q 1503 -91 1142 -33 
Q 781 25 428 141 
L 428 1069 
Q 766 900 1098 814 
Q 1431 728 1753 728 
Q 2231 728 2486 893 
Q 2741 1059 2741 1369 
Q 2741 1688 2480 1852 
Q 2219 2016 1709 2016 
L 1228 2016 
L 1228 2791 
L 1734 2791 
Q 2188 2791 2409 2933 
Q 2631 3075 2631 3366 
Q 2631 3634 2415 3781 
Q 2200 3928 1806 3928 
Q 1516 3928 1219 3862 
Q 922 3797 628 3669 
L 628 4550 
Q 984 4650 1334 4700 
Q 1684 4750 2022 4750 
Q 2931 4750 3382 4451 
Q 3834 4153 3834 3553 
Q 3834 3144 3618 2883 
Q 3403 2622 2981 2516 
z
" transform="scale(0.015625)"/>
      <path id="DejaVuSans-Bold-30" d="M 2944 2338 
Q 2944 3213 2780 3570 
Q 2616 3928 2228 3928 
Q 1841 3928 1675 3570 
Q 1509 3213 1509 2338 
Q 1509 1453 1675 1090 
Q 1841 728 2228 728 
Q 2613 728 2778 1090 
Q 2944 1453 2944 2338 
z
M 4147 2328 
Q 4147 1169 3647 539 
Q 3147 -91 2228 -91 
Q 1306 -91 806 539 
Q 306 1169 306 2328 
Q 306 3491 806 4120 
Q 1306 4750 2228 4750 
Q 3147 4750 3647 4120 
Q 4147 3491 4147 2328 
z
" transform="scale(0.015625)"/>
     </defs>
     <use xlink:href="#DejaVuSans-Bold-35"/>
     <use xlink:href="#DejaVuSans-Bold-33" transform="translate(69.580078 0)"/>
     <use xlink:href="#DejaVuSans-Bold-30" transform="translate(139.160156 0)"/>
    </g>
   </g>
   <g id="text_21">
    <!-- 413 -->
    <g style="fill: #0969da" transform="translate(817.012614 228.181357) scale(0.09 -0.09)">
     <defs>
      <path id="DejaVuSans-Bold-34" d="M 2356 3675 
L 1038 1722 
L 2356 1722 
L 2356 3675 
z
M 2156 4666 
L 3494 4666 
L 3494 1722 
L 4159 1722 
L 4159 850 
L 3494 850 
L 3494 0 
L 2356 0 
L 2356 850 
L 288 850 
L 288 1881 
L 2156 4666 
z
" transform="scale(0.015625)"/>
      <path id="DejaVuSans-Bold-31" d="M 750 831 
L 1813 831 
L 1813 3847 
L 722 3622 
L 722 4441 
L 1806 4666 
L 2950 4666 
L 2950 831 
L 4013 831 
L 4013 0 
L 750 0 
L 750 831 
z
" transform="scale(0.015625)"/>
     </defs>
     <use xlink:href="#DejaVuSans-Bold-34"/>
     <use xlink:href="#DejaVuSans-Bold-31" transform="translate(69.580078 0)"/>
     <use xlink:href="#DejaVuSans-Bold-33" transform="translate(139.160156 0)"/>
    </g>
   </g>
   <g id="text_22">
    <!-- 174 -->
    <g style="fill: #bf8700" transform="translate(817.012614 361.01437) scale(0.09 -0.09)">
     <defs>
      <path id="DejaVuSans-Bold-37" d="M 428 4666 
L 3944 4666 
L 3944 3988 
L 2125 0 
L 953 0 
L 2675 3781 
L 428 3781 
L 428 4666 
z
" transform="scale(0.015625)"/>
     </defs>
     <use xlink:href="#DejaVuSans-Bold-31"/>
     <use xlink:href="#DejaVuSans-Bold-37" transform="translate(69.580078 0)"/>
     <use xlink:href="#DejaVuSans-Bold-34" transform="translate(139.160156 0)"/>
    </g>
   </g>
   <g id="text_23">
    <!-- 297 -->
    <g style="fill: #cf222e" transform="translate(817.012614 292.65261) scale(0.09 -0.09)">
     <defs>
      <path id="DejaVuSans-Bold-32" d="M 1844 884 
L 3897 884 
L 3897 0 
L 506 0 
L 506 884 
L 2209 2388 
Q 2438 2594 2547 2791 
Q 2656 2988 2656 3200 
Q 2656 3528 2436 3728 
Q 2216 3928 1850 3928 
Q 1569 3928 1234 3808 
Q 900 3688 519 3450 
L 519 4475 
Q 925 4609 1322 4679 
Q 1719 4750 2100 4750 
Q 2938 4750 3402 4381 
Q 3866 4013 3866 3353 
Q 3866 2972 3669 2642 
Q 3472 2313 2841 1759 
L 1844 884 
z
" transform="scale(0.015625)"/>
      <path id="DejaVuSans-Bold-39" d="M 641 103 
L 641 966 
Q 928 831 1190 764 
Q 1453 697 1709 697 
Q 2247 697 2547 995 
Q 2847 1294 2900 1881 
Q 2688 1725 2447 1647 
Q 2206 1569 1925 1569 
Q 1209 1569 770 1986 
Q 331 2403 331 3084 
Q 331 3838 820 4291 
Q 1309 4744 2131 4744 
Q 3044 4744 3544 4128 
Q 4044 3513 4044 2388 
Q 4044 1231 3459 570 
Q 2875 -91 1856 -91 
Q 1528 -91 1228 -42 
Q 928 6 641 103 
z
M 2125 2350 
Q 2441 2350 2600 2554 
Q 2759 2759 2759 3169 
Q 2759 3575 2600 3781 
Q 2441 3988 2125 3988 
Q 1809 3988 1650 3781 
Q 1491 3575 1491 3169 
Q 1491 2759 1650 2554 
Q 1809 2350 2125 2350 
z
" transform="scale(0.015625)"/>
     </defs>
     <use xlink:href="#DejaVuSans-Bold-32"/>
     <use xlink:href="#DejaVuSans-Bold-39" transform="translate(69.580078 0)"/>
     <use xlink:href="#DejaVuSans-Bold-37" transform="translate(139.160156 0)"/>
    </g>
   </g>
   <g id="text_24">
    <!-- 687 -->
    <g style="fill: #9467bd" transform="translate(817.012614 75.89581) scale(0.09 -0.09)">
     <defs>
      <path id="DejaVuSans-Bold-36" d="M 2316 2303 
Q 2000 2303 1842 2098 
Q 1684 1894 1684 1484 
Q 1684 1075 1842 870 
Q 2000 666 2316 666 
Q 2634 666 2792 870 
Q 2950 1075 2950 1484 
Q 2950 1894 2792 2098 
Q 2634 2303 2316 2303 
z
M 3803 4544 
L 3803 3681 
Q 3506 3822 3243 3889 
Q 2981 3956 2731 3956 
Q 2194 3956 1894 3657 
Q 1594 3359 1544 2772 
Q 1750 2925 1990 3001 
Q 2231 3078 2516 3078 
Q 3231 3078 3670 2659 
Q 4109 2241 4109 1563 
Q 4109 813 3618 361 
Q 3128 -91 2303 -91 
Q 1394 -91 895 523 
Q 397 1138 397 2266 
Q 397 3422 980 4083 
Q 1563 4744 2578 4744 
Q 2900 4744 3203 4694 
Q 3506 4644 3803 4544 
z
" transform="scale(0.015625)"/>
      <path id="DejaVuSans-Bold-38" d="M 2228 2088 
Q 1891 2088 1709 1903 
Q 1528 1719 1528 1375 
Q 1528 1031 1709 848 
Q 1891 666 2228 666 
Q 2563 666 2741 848 
Q 2919 1031 2919 1375 
Q 2919 1722 2741 1905 
Q 2563 2088 2228 2088 
z
M 1350 2484 
Q 925 2613 709 2878 
Q 494 3144 494 3541 
Q 494 4131 934 4440 
Q 1375 4750 2228 4750 
Q 3075 4750 3515 4442 
Q 3956 4134 3956 3541 
Q 3956 3144 3739 2878 
Q 3522 2613 3097 2484 
Q 3572 2353 3814 2058 
Q 4056 1763 4056 1313 
Q 4056 619 3595 264 
Q 3134 -91 2228 -91 
Q 1319 -91 855 264 
Q 391 619 391 1313 
Q 391 1763 633 2058 
Q 875 2353 1350 2484 
z
M 1631 3419 
Q 1631 3141 1786 2991 
Q 1941 2841 2228 2841 
Q 2509 2841 2662 2991 
Q 2816 3141 2816 3419 
Q 2816 3697 2662 3845 
Q 2509 3994 2228 3994 
Q 1941 3994 1786 3844 
Q 1631 3694 1631 3419 
z
" transform="scale(0.015625)"/>
     </defs>
     <use xlink:href="#DejaVuSans-Bold-36"/>
     <use xlink:href="#DejaVuSans-Bold-38" transform="translate(69.580078 0)"/>
     <use xlink:href="#DejaVuSans-Bold-37" transform="translate(139.160156 0)"/>
    </g>
   </g>
   <g id="text_25">
    <!-- Erdős Problems Progress -->
    <g style="fill: #24292f" transform="translate(349.588281 18.397812) scale(0.14 -0.14)">
     <defs>
      <path id="DejaVuSans-Bold-45" d="M 588 4666 
L 3834 4666 
L 3834 3756 
L 1791 3756 
L 1791 2888 
L 3713 2888 
L 3713 1978 
L 1791 1978 
L 1791 909 
L 3903 909 
L 3903 0 
L 588 0 
L 588 4666 
z
" transform="scale(0.015625)"/>
      <path id="DejaVuSans-Bold-72" d="M 3138 2547 
Q 2991 2616 2845 2648 
Q 2700 2681 2553 2681 
Q 2122 2681 1889 2404 
Q 1656 2128 1656 1613 
L 1656 0 
L 538 0 
L 538 3500 
L 1656 3500 
L 1656 2925 
Q 1872 3269 2151 3426 
Q 2431 3584 2822 3584 
Q 2878 3584 2943 3579 
Q 3009 3575 3134 3559 
L 3138 2547 
z
" transform="scale(0.015625)"/>
      <path id="DejaVuSans-Bold-64" d="M 2919 2988 
L 2919 4863 
L 4044 4863 
L 4044 0 
L 2919 0 
L 2919 506 
Q 2688 197 2409 53 
Q 2131 -91 1766 -91 
Q 1119 -91 703 423 
Q 288 938 288 1747 
Q 288 2556 703 3070 
Q 1119 3584 1766 3584 
Q 2128 3584 2408 3439 
Q 2688 3294 2919 2988 
z
M 2181 722 
Q 2541 722 2730 984 
Q 2919 1247 2919 1747 
Q 2919 2247 2730 2509 
Q 2541 2772 2181 2772 
Q 1825 2772 1636 2509 
Q 1447 2247 1447 1747 
Q 1447 1247 1636 984 
Q 1825 722 2181 722 
z
" transform="scale(0.015625)"/>
      <path id="DejaVuSans-Bold-151" d="M 1881 5119 
L 2560 5119 
L 1785 3944 
L 1275 3944 
L 1881 5119 
z
M 3016 5119 
L 3738 5119 
L 2888 3944 
L 2344 3944 
L 3016 5119 
z
M 2203 2784 
Q 1831 2784 1636 2517 
Q 1441 2250 1441 1747 
Q 1441 1244 1636 976 
Q 1831 709 2203 709 
Q 2569 709 2762 976 
Q 2956 1244 2956 1747 
Q 2956 2250 2762 2517 
Q 2569 2784 2203 2784 
z
M 2203 3584 
Q 3106 3584 3614 3096 
Q 4122 2609 4122 1747 
Q 4122 884 3614 396 
Q 3106 -91 2203 -91 
Q 1297 -91 786 396 
Q 275 884 275 1747 
Q 275 2609 786 3096 
Q 1297 3584 2203 3584 
z
" transform="scale(0.015625)"/>
      <path id="DejaVuSans-Bold-73" d="M 3272 3391 
L 3272 2541 
Q 2913 2691 2578 2766 
Q 2244 2841 1947 2841 
Q 1628 2841 1473 2761 
Q 1319 2681 1319 2516 
Q 1319 2381 1436 2309 
Q 1553 2238 1856 2203 
L 2053 2175 
Q 2913 2066 3209 1816 
Q 3506 1566 3506 1031 
Q 3506 472 3093 190 
Q 2681 -91 1863 -91 
Q 1516 -91 1145 -36 
Q 775 19 384 128 
L 384 978 
Q 719 816 1070 734 
Q 1422 653 1784 653 
Q 2113 653 2278 743 
Q 2444 834 2444 1013 
Q 2444 1163 2330 1236 
Q 2216 1309 1875 1350 
L 1678 1375 
Q 931 1469 631 1722 
Q 331 1975 331 2491 
Q 331 3047 712 3315 
Q 1094 3584 1881 3584 
Q 2191 3584 2531 3537 
Q 2872 3491 3272 3391 
z
" transform="scale(0.015625)"/>
      <path id="DejaVuSans-Bold-20" transform="scale(0.015625)"/>
      <path id="DejaVuSans-Bold-50" d="M 588 4666 
L 2584 4666 
Q 3475 4666 3951 4270 
Q 4428 3875 4428 3144 
Q 4428 2409 3951 2014 
Q 3475 1619 2584 1619 
L 1791 1619 
L 1791 0 
L 588 0 
L 588 4666 
z
M 1791 3794 
L 1791 2491 
L 2456 2491 
Q 2806 2491 2997 2661 
Q 3188 2831 3188 3144 
Q 3188 3456 2997 3625 
Q 2806 3794 2456 3794 
L 1791 3794 
z
" transform="scale(0.015625)"/>
      <path id="DejaVuSans-Bold-6f" d="M 2203 2784 
Q 1831 2784 1636 2517 
Q 1441 2250 1441 1747 
Q 1441 1244 1636 976 
Q 1831 709 2203 709 
Q 2569 709 2762 976 
Q 2956 1244 2956 1747 
Q 2956 2250 2762 2517 
Q 2569 2784 2203 2784 
z
M 2203 3584 
Q 3106 3584 3614 3096 
Q 4122 2609 4122 1747 
Q 4122 884 3614 396 
Q 3106 -91 2203 -91 
Q 1297 -91 786 396 
Q 275 884 275 1747 
Q 275 2609 786 3096 
Q 1297 3584 2203 3584 
z
" transform="scale(0.015625)"/>
      <path id="DejaVuSans-Bold-62" d="M 2400 722 
Q 2759 722 2948 984 
Q 3138 1247 3138 1747 
Q 3138 2247 2948 2509 
Q 2759 2772 2400 2772 
Q 2041 2772 1848 2508 
Q 1656 2244 1656 1747 
Q 1656 1250 1848 986 
Q 2041 722 2400 722 
z
M 1656 2988 
Q 1888 3294 2169 3439 
Q 2450 3584 2816 3584 
Q 3463 3584 3878 3070 
Q 4294 2556 4294 1747 
Q 4294 938 3878 423 
Q 3463 -91 2816 -91 
Q 2450 -91 2169 54 
Q 1888 200 1656 506 
L 1656 0 
L 538 0 
L 538 4863 
L 1656 4863 
L 1656 2988 
z
" transform="scale(0.015625)"/>
      <path id="DejaVuSans-Bold-6c" d="M 538 4863 
L 1656 4863 
L 1656 0 
L 538 0 
L 538 4863 
z
" transform="scale(0.015625)"/>
      <path id="DejaVuSans-Bold-65" d="M 4031 1759 
L 4031 1441 
L 1416 1441 
Q 1456 1047 1700 850 
Q 1944 653 2381 653 
Q 2734 653 3104 758 
Q 3475 863 3866 1075 
L 3866 213 
Q 3469 63 3072 -14 
Q 2675 -91 2278 -91 
Q 1328 -91 801 392 
Q 275 875 275 1747 
Q 275 2603 792 3093 
Q 1309 3584 2216 3584 
Q 3041 3584 3536 3087 
Q 4031 2591 4031 1759 
z
M 2881 2131 
Q 2881 2450 2695 2645 
Q 2509 2841 2209 2841 
Q 1884 2841 1681 2658 
Q 1478 2475 1428 2131 
L 2881 2131 
z
" transform="scale(0.015625)"/>
      <path id="DejaVuSans-Bold-6d" d="M 3781 2919 
Q 3994 3244 4286 3414 
Q 4578 3584 4928 3584 
Q 5531 3584 5847 3212 
Q 6163 2841 6163 2131 
L 6163 0 
L 5038 0 
L 5038 1825 
Q 5041 1866 5042 1909 
Q 5044 1953 5044 2034 
Q 5044 2406 4934 2573 
Q 4825 2741 4581 2741 
Q 4263 2741 4089 2478 
Q 3916 2216 3909 1719 
L 3909 0 
L 2784 0 
L 2784 1825 
Q 2784 2406 2684 2573 
Q 2584 2741 2328 2741 
Q 2006 2741 1831 2477 
Q 1656 2213 1656 1722 
L 1656 0 
L 531 0 
L 531 3500 
L 1656 3500 
L 1656 2988 
Q 1863 3284 2130 3434 
Q 2397 3584 2719 3584 
Q 3081 3584 3359 3409 
Q 3638 3234 3781 2919 
z
" transform="scale(0.015625)"/>
      <path id="DejaVuSans-Bold-67" d="M 2919 594 
Q 2688 288 2409 144 
Q 2131 0 1766 0 
Q 1125 0 706 504 
Q 288 1009 288 1791 
Q 288 2575 706 3076 
Q 1125 3578 1766 3578 
Q 2131 3578 2409 3434 
Q 2688 3291 2919 2981 
L 2919 3500 
L 4044 3500 
L 4044 353 
Q 4044 -491 3511 -936 
Q 2978 -1381 1966 -1381 
Q 1638 -1381 1331 -1331 
Q 1025 -1281 716 -1178 
L 716 -306 
Q 1009 -475 1290 -558 
Q 1572 -641 1856 -641 
Q 2406 -641 2662 -400 
Q 2919 -159 2919 353 
L 2919 594 
z
M 2181 2772 
Q 1834 2772 1640 2515 
Q 1447 2259 1447 1791 
Q 1447 1309 1634 1061 
Q 1822 813 2181 813 
Q 2531 813 2725 1069 
Q 2919 1325 2919 1791 
Q 2919 2259 2725 2515 
Q 2531 2772 2181 2772 
z
" transform="scale(0.015625)"/>
     </defs>
     <use xlink:href="#DejaVuSans-Bold-45"/>
     <use xlink:href="#DejaVuSans-Bold-72" transform="translate(68.310547 0)"/>
     <use xlink:href="#DejaVuSans-Bold-64" transform="translate(117.626953 0)"/>
     <use xlink:href="#DejaVuSans-Bold-151" transform="translate(189.208984 0)"/>
     <use xlink:href="#DejaVuSans-Bold-73" transform="translate(257.910156 0)"/>
     <use xlink:href="#DejaVuSans-Bold-20" transform="translate(317.431641 0)"/>
     <use xlink:href="#DejaVuSans-Bold-50" transform="translate(352.246094 0)"/>
     <use xlink:href="#DejaVuSans-Bold-72" transform="translate(425.537109 0)"/>
     <use xlink:href="#DejaVuSans-Bold-6f" transform="translate(474.853516 0)"/>
     <use xlink:href="#DejaVuSans-Bold-62" transform="translate(543.554688 0)"/>
     <use xlink:href="#DejaVuSans-Bold-6c" transform="translate(615.136719 0)"/>
     <use xlink:href="#DejaVuSans-Bold-65" transform="translate(649.414062 0)"/>
     <use xlink:href="#DejaVuSans-Bold-6d" transform="translate(717.236328 0)"/>
     <use xlink:href="#DejaVuSans-Bold-73" transform="translate(821.435547 0)"/>
     <use xlink:href="#DejaVuSans-Bold-20" transform="translate(880.957031 0)"/>
     <use xlink:href="#DejaVuSans-Bold-50" transform="translate(915.771484 0)"/>
     <use xlink:href="#DejaVuSans-Bold-72" transform="translate(989.0625 0)"/>
     <use xlink:href="#DejaVuSans-Bold-6f" transform="translate(1038.378906 0)"/>
     <use xlink:href="#DejaVuSans-Bold-67" transform="translate(1107.080078 0)"/>
     <use xlink:href="#DejaVuSans-Bold-72" transform="translate(1178.662109 0)"/>
     <use xlink:href="#DejaVuSans-Bold-65" transform="translate(1227.978516 0)"/>
     <use xlink:href="#DejaVuSans-Bold-73" transform="translate(1295.800781 0)"/>
     <use xlink:href="#DejaVuSans-Bold-73" transform="translate(1355.322266 0)"/>
    </g>
   </g>
   <g id="legend_1">
    <g id="patch_7">
     <path d="M 55.90125 119.788437 
L 213.771563 119.788437 
Q 215.771563 119.788437 215.771563 117.788437 
L 215.771563 45.397812 
Q 215.771563 43.397812 213.771563 43.397812 
L 55.90125 43.397812 
Q 53.90125 43.397812 53.90125 45.397812 
L 53.90125 117.788437 
Q 53.90125 119.788437 55.90125 119.788437 
z
" style="fill: #f6f8fa; opacity: 0.8; stroke: #d0d7de; stroke-linejoin: miter"/>
    </g>
    <g id="line2d_40">
     <path d="M 57.90125 51.49625 
L 67.90125 51.49625 
L 77.90125 51.49625 
" style="fill: none; stroke: #1a7f37; stroke-width: 2; stroke-linecap: square"/>
    </g>
    <g id="text_26">
     <!-- Solved -->
     <g style="fill: #24292f" transform="translate(85.90125 54.99625) scale(0.1 -0.1)">
      <defs>
       <path id="DejaVuSans-6c" d="M 603 4863 
L 1178 4863 
L 1178 0 
L 603 0 
L 603 4863 
z
" transform="scale(0.015625)"/>
       <path id="DejaVuSans-64" d="M 2906 2969 
L 2906 4863 
L 3481 4863 
L 3481 0 
L 2906 0 
L 2906 525 
Q 2725 213 2448 61 
Q 2172 -91 1784 -91 
Q 1150 -91 751 415 
Q 353 922 353 1747 
Q 353 2572 751 3078 
Q 1150 3584 1784 3584 
Q 2172 3584 2448 3432 
Q 2725 3281 2906 2969 
z
M 947 1747 
Q 947 1113 1208 752 
Q 1469 391 1925 391 
Q 2381 391 2643 752 
Q 2906 1113 2906 1747 
Q 2906 2381 2643 2742 
Q 2381 3103 1925 3103 
Q 1469 3103 1208 2742 
Q 947 2381 947 1747 
z
" transform="scale(0.015625)"/>
      </defs>
      <use xlink:href="#DejaVuSans-53"/>
      <use xlink:href="#DejaVuSans-6f" transform="translate(63.476562 0)"/>
      <use xlink:href="#DejaVuSans-6c" transform="translate(124.658203 0)"/>
      <use xlink:href="#DejaVuSans-76" transform="translate(152.441406 0)"/>
      <use xlink:href="#DejaVuSans-65" transform="translate(211.621094 0)"/>
      <use xlink:href="#DejaVuSans-64" transform="translate(273.144531 0)"/>
     </g>
    </g>
    <g id="line2d_41">
     <path d="M 57.90125 66.174375 
L 67.90125 66.174375 
L 77.90125 66.174375 
" style="fill: none; stroke: #0969da; stroke-width: 2; stroke-linecap: square"/>
    </g>
    <g id="text_27">
     <!-- Lean Formalized Problem -->
     <g style="fill: #24292f" transform="translate(85.90125 69.674375) scale(0.1 -0.1)">
      <defs>
       <path id="DejaVuSans-4c" d="M 628 4666 
L 1259 4666 
L 1259 531 
L 3531 531 
L 3531 0 
L 628 0 
L 628 4666 
z
" transform="scale(0.015625)"/>
       <path id="DejaVuSans-20" transform="scale(0.015625)"/>
       <path id="DejaVuSans-6d" d="M 3328 2828 
Q 3544 3216 3844 3400 
Q 4144 3584 4550 3584 
Q 5097 3584 5394 3201 
Q 5691 2819 5691 2113 
L 5691 0 
L 5113 0 
L 5113 2094 
Q 5113 2597 4934 2840 
Q 4756 3084 4391 3084 
Q 3944 3084 3684 2787 
Q 3425 2491 3425 1978 
L 3425 0 
L 2847 0 
L 2847 2094 
Q 2847 2600 2669 2842 
Q 2491 3084 2119 3084 
Q 1678 3084 1418 2786 
Q 1159 2488 1159 1978 
L 1159 0 
L 581 0 
L 581 3500 
L 1159 3500 
L 1159 2956 
Q 1356 3278 1631 3431 
Q 1906 3584 2284 3584 
Q 2666 3584 2933 3390 
Q 3200 3197 3328 2828 
z
" transform="scale(0.015625)"/>
       <path id="DejaVuSans-69" d="M 603 3500 
L 1178 3500 
L 1178 0 
L 603 0 
L 603 3500 
z
M 603 4863 
L 1178 4863 
L 1178 4134 
L 603 4134 
L 603 4863 
z
" transform="scale(0.015625)"/>
       <path id="DejaVuSans-7a" d="M 353 3500 
L 3084 3500 
L 3084 2975 
L 922 459 
L 3084 459 
L 3084 0 
L 275 0 
L 275 525 
L 2438 3041 
L 353 3041 
L 353 3500 
z
" transform="scale(0.015625)"/>
       <path id="DejaVuSans-50" d="M 1259 4147 
L 1259 2394 
L 2053 2394 
Q 2494 2394 2734 2622 
Q 2975 2850 2975 3272 
Q 2975 3691 2734 3919 
Q 2494 4147 2053 4147 
L 1259 4147 
z
M 628 4666 
L 2053 4666 
Q 2838 4666 3239 4311 
Q 3641 3956 3641 3272 
Q 3641 2581 3239 2228 
Q 2838 1875 2053 1875 
L 1259 1875 
L 1259 0 
L 628 0 
L 628 4666 
z
" transform="scale(0.015625)"/>
      </defs>
      <use xlink:href="#DejaVuSans-4c"/>
      <use xlink:href="#DejaVuSans-65" transform="translate(53.962891 0)"/>
      <use xlink:href="#DejaVuSans-61" transform="translate(115.486328 0)"/>
      <use xlink:href="#DejaVuSans-6e" transform="translate(176.765625 0)"/>
      <use xlink:href="#DejaVuSans-20" transform="translate(240.144531 0)"/>
      <use xlink:href="#DejaVuSans-46" transform="translate(271.931641 0)"/>
      <use xlink:href="#DejaVuSans-6f" transform="translate(325.826172 0)"/>
      <use xlink:href="#DejaVuSans-72" transform="translate(387.007812 0)"/>
      <use xlink:href="#DejaVuSans-6d" transform="translate(426.371094 0)"/>
      <use xlink:href="#DejaVuSans-61" transform="translate(523.783203 0)"/>
      <use xlink:href="#DejaVuSans-6c" transform="translate(585.0625 0)"/>
      <use xlink:href="#DejaVuSans-69" transform="translate(612.845703 0)"/>
      <use xlink:href="#DejaVuSans-7a" transform="translate(640.628906 0)"/>
      <use xlink:href="#DejaVuSans-65" transform="translate(693.119141 0)"/>
      <use xlink:href="#DejaVuSans-64" transform="translate(754.642578 0)"/>
      <use xlink:href="#DejaVuSans-20" transform="translate(818.119141 0)"/>
      <use xlink:href="#DejaVuSans-50" transform="translate(849.90625 0)"/>
      <use xlink:href="#DejaVuSans-72" transform="translate(908.458984 0)"/>
      <use xlink:href="#DejaVuSans-6f" transform="translate(947.322266 0)"/>
      <use xlink:href="#DejaVuSans-62" transform="translate(1008.503906 0)"/>
      <use xlink:href="#DejaVuSans-6c" transform="translate(1071.980469 0)"/>
      <use xlink:href="#DejaVuSans-65" transform="translate(1099.763672 0)"/>
      <use xlink:href="#DejaVuSans-6d" transform="translate(1161.287109 0)"/>
     </g>
    </g>
    <g id="line2d_42">
     <path d="M 57.90125 80.8525 
L 67.90125 80.8525 
L 77.90125 80.8525 
" style="fill: none; stroke: #bf8700; stroke-width: 2; stroke-linecap: square"/>
    </g>
    <g id="text_28">
     <!-- Lean Formalized Solution -->
     <g style="fill: #24292f" transform="translate(85.90125 84.3525) scale(0.1 -0.1)">
      <use xlink:href="#DejaVuSans-4c"/>
      <use xlink:href="#DejaVuSans-65" transform="translate(53.962891 0)"/>
      <use xlink:href="#DejaVuSans-61" transform="translate(115.486328 0)"/>
      <use xlink:href="#DejaVuSans-6e" transform="translate(176.765625 0)"/>
      <use xlink:href="#DejaVuSans-20" transform="translate(240.144531 0)"/>
      <use xlink:href="#DejaVuSans-46" transform="translate(271.931641 0)"/>
      <use xlink:href="#DejaVuSans-6f" transform="translate(325.826172 0)"/>
      <use xlink:href="#DejaVuSans-72" transform="translate(387.007812 0)"/>
      <use xlink:href="#DejaVuSans-6d" transform="translate(426.371094 0)"/>
      <use xlink:href="#DejaVuSans-61" transform="translate(523.783203 0)"/>
      <use xlink:href="#DejaVuSans-6c" transform="translate(585.0625 0)"/>
      <use xlink:href="#DejaVuSans-69" transform="translate(612.845703 0)"/>
      <use xlink:href="#DejaVuSans-7a" transform="translate(640.628906 0)"/>
      <use xlink:href="#DejaVuSans-65" transform="translate(693.119141 0)"/>
      <use xlink:href="#DejaVuSans-64" transform="translate(754.642578 0)"/>
      <use xlink:href="#DejaVuSans-20" transform="translate(818.119141 0)"/>
      <use xlink:href="#DejaVuSans-53" transform="translate(849.90625 0)"/>
      <use xlink:href="#DejaVuSans-6f" transform="translate(913.382812 0)"/>
      <use xlink:href="#DejaVuSans-6c" transform="translate(974.564453 0)"/>
      <use xlink:href="#DejaVuSans-75" transform="translate(1002.347656 0)"/>
      <use xlink:href="#DejaVuSans-74" transform="translate(1065.726562 0)"/>
      <use xlink:href="#DejaVuSans-69" transform="translate(1104.935547 0)"/>
      <use xlink:href="#DejaVuSans-6f" transform="translate(1132.71875 0)"/>
      <use xlink:href="#DejaVuSans-6e" transform="translate(1193.900391 0)"/>
     </g>
    </g>
    <g id="line2d_43">
     <path d="M 57.90125 95.530625 
L 67.90125 95.530625 
L 77.90125 95.530625 
" style="fill: none; stroke: #cf222e; stroke-width: 2; stroke-linecap: square"/>
    </g>
    <g id="text_29">
     <!-- OEIS Linked -->
     <g style="fill: #24292f" transform="translate(85.90125 99.030625) scale(0.1 -0.1)">
      <defs>
       <path id="DejaVuSans-45" d="M 628 4666 
L 3578 4666 
L 3578 4134 
L 1259 4134 
L 1259 2753 
L 3481 2753 
L 3481 2222 
L 1259 2222 
L 1259 531 
L 3634 531 
L 3634 0 
L 628 0 
L 628 4666 
z
" transform="scale(0.015625)"/>
       <path id="DejaVuSans-49" d="M 628 4666 
L 1259 4666 
L 1259 0 
L 628 0 
L 628 4666 
z
" transform="scale(0.015625)"/>
       <path id="DejaVuSans-6b" d="M 581 4863 
L 1159 4863 
L 1159 1991 
L 2875 3500 
L 3609 3500 
L 1753 1863 
L 3688 0 
L 2938 0 
L 1159 1709 
L 1159 0 
L 581 0 
L 581 4863 
z
" transform="scale(0.015625)"/>
      </defs>
      <use xlink:href="#DejaVuSans-4f"/>
      <use xlink:href="#DejaVuSans-45" transform="translate(78.710938 0)"/>
      <use xlink:href="#DejaVuSans-49" transform="translate(141.894531 0)"/>
      <use xlink:href="#DejaVuSans-53" transform="translate(171.386719 0)"/>
      <use xlink:href="#DejaVuSans-20" transform="translate(234.863281 0)"/>
      <use xlink:href="#DejaVuSans-4c" transform="translate(266.650391 0)"/>
      <use xlink:href="#DejaVuSans-69" transform="translate(322.363281 0)"/>
      <use xlink:href="#DejaVuSans-6e" transform="translate(350.146484 0)"/>
      <use xlink:href="#DejaVuSans-6b" transform="translate(413.525391 0)"/>
      <use xlink:href="#DejaVuSans-65" transform="translate(467.810547 0)"/>
      <use xlink:href="#DejaVuSans-64" transform="translate(529.333984 0)"/>
     </g>
    </g>
    <g id="line2d_44">
     <path d="M 57.90125 110.20875 
L 67.90125 110.20875 
L 77.90125 110.20875 
" style="fill: none; stroke: #9467bd; stroke-width: 2; stroke-linecap: square"/>
    </g>
    <g id="text_30">
     <!-- Open Problems -->
     <g style="fill: #24292f" transform="translate(85.90125 113.70875) scale(0.1 -0.1)">
      <defs>
       <path id="DejaVuSans-73" d="M 2834 3397 
L 2834 2853 
Q 2591 2978 2328 3040 
Q 2066 3103 1784 3103 
Q 1356 3103 1142 2972 
Q 928 2841 928 2578 
Q 928 2378 1081 2264 
Q 1234 2150 1697 2047 
L 1894 2003 
Q 2506 1872 2764 1633 
Q 3022 1394 3022 966 
Q 3022 478 2636 193 
Q 2250 -91 1575 -91 
Q 1294 -91 989 -36 
Q 684 19 347 128 
L 347 722 
Q 666 556 975 473 
Q 1284 391 1588 391 
Q 1994 391 2212 530 
Q 2431 669 2431 922 
Q 2431 1156 2273 1281 
Q 2116 1406 1581 1522 
L 1381 1569 
Q 847 1681 609 1914 
Q 372 2147 372 2553 
Q 372 3047 722 3315 
Q 1072 3584 1716 3584 
Q 2034 3584 2315 3537 
Q 2597 3491 2834 3397 
z
" transform="scale(0.015625)"/>
      </defs>
      <use xlink:href="#DejaVuSans-4f"/>
      <use xlink:href="#DejaVuSans-70" transform="translate(78.710938 0)"/>
      <use xlink:href="#DejaVuSans-65" transform="translate(142.1875 0)"/>
      <use xlink:href="#DejaVuSans-6e" transform="translate(203.710938 0)"/>
      <use xlink:href="#DejaVuSans-20" transform="translate(267.089844 0)"/>
      <use xlink:href="#DejaVuSans-50" transform="translate(298.876953 0)"/>
      <use xlink:href="#DejaVuSans-72" transform="translate(357.429688 0)"/>
      <use xlink:href="#DejaVuSans-6f" transform="translate(396.292969 0)"/>
      <use xlink:href="#DejaVuSans-62" transform="translate(457.474609 0)"/>
      <use xlink:href="#DejaVuSans-6c" transform="translate(520.951172 0)"/>
      <use xlink:href="#DejaVuSans-65" transform="translate(548.734375 0)"/>
      <use xlink:href="#DejaVuSans-6d" transform="translate(610.257812 0)"/>
      <use xlink:href="#DejaVuSans-73" transform="translate(707.669922 0)"/>
     </g>
    </g>
   </g>
  </g>
 </g>
 <defs>
  <clipPath id="p73aa0b4c05">
   <rect x="48.90125" y="38.397812" width="799.45" height="416.84"/>
  </clipPath>
 </defs>
</svg>
