<?xml version="1.0" encoding="utf-8" standalone="no"?>
<!DOCTYPE svg PUBLIC "-//W3C//DTD SVG 1.1//EN"
  "http://www.w3.org/Graphics/SVG/1.1/DTD/svg11.dtd">
<svg xmlns:xlink="http://www.w3.org/1999/xlink" width="855.55125pt" height="494.729687pt" viewBox="0 0 855.55125 494.729687" xmlns="http://www.w3.org/2000/svg" version="1.1">
 <metadata>
  <rdf:RDF xmlns:dc="http://purl.org/dc/elements/1.1/" xmlns:cc="http://creativecommons.org/ns#" xmlns:rdf="http://www.w3.org/1999/02/22-rdf-syntax-ns#">
   <cc:Work>
    <dc:type rdf:resource="http://purl.org/dc/dcmitype/StillImage"/>
    <dc:date>2026-01-18T18:31:17.084479</dc:date>
    <dc:format>image/svg+xml</dc:format>
    <dc:creator>
     <cc:Agent>
      <dc:title>Matplotlib v3.10.7, https://matplotlib.org/</dc:title>
     </cc:Agent>
    </dc:creator>
   </cc:Work>
  </rdf:RDF>
 </metadata>
 <defs>
  <style type="text/css">*{stroke-linejoin: round; stroke-linecap: butt}</style>
 </defs>
 <g id="figure_1">
  <g id="patch_1">
   <path d="M 0 494.729687 
L 855.55125 494.729687 
L 855.55125 0 
L 0 0 
z
" style="fill: #ffffff"/>
  </g>
  <g id="axes_1">
   <g id="patch_2">
    <path d="M 48.90125 455.237812 
L 848.35125 455.237812 
L 848.35125 38.397812 
L 48.90125 38.397812 
z
" style="fill: #ffffff"/>
   </g>
   <g id="matplotlib.axis_1">
    <g id="xtick_1">
     <g id="line2d_1">
      <path d="M 86.756787 455.237812 
L 86.756787 38.397812 
" clip-path="url(#p23a958c197)" style="fill: none; stroke: #d0d7de; stroke-opacity: 0.25; stroke-width: 0.5; stroke-linecap: square"/>
     </g>
     <g id="line2d_2">
      <defs>
       <path id="m2ad026051d" d="M 0 0 
L 0 3.5 
" style="stroke: #24292f; stroke-width: 0.8"/>
      </defs>
      <g>
       <use xlink:href="#m2ad026051d" x="86.756787" y="455.237812" style="fill: #24292f; stroke: #24292f; stroke-width: 0.8"/>
      </g>
     </g>
     <g id="text_1">
      <!-- Sep -->
      <g style="fill: #24292f" transform="translate(77.331787 469.83625) scale(0.1 -0.1)">
       <defs>
        <path id="DejaVuSans-53" d="M 3425 4513 
L 3425 3897 
Q 3066 4069 2747 4153 
Q 2428 4238 2131 4238 
Q 1616 4238 1336 4038 
Q 1056 3838 1056 3469 
Q 1056 3159 1242 3001 
Q 1428 2844 1947 2747 
L 2328 2669 
Q 3034 2534 3370 2195 
Q 3706 1856 3706 1288 
Q 3706 609 3251 259 
Q 2797 -91 1919 -91 
Q 1588 -91 1214 -16 
Q 841 59 441 206 
L 441 856 
Q 825 641 1194 531 
Q 1563 422 1919 422 
Q 2459 422 2753 634 
Q 3047 847 3047 1241 
Q 3047 1584 2836 1778 
Q 2625 1972 2144 2069 
L 1759 2144 
Q 1053 2284 737 2584 
Q 422 2884 422 3419 
Q 422 4038 858 4394 
Q 1294 4750 2059 4750 
Q 2388 4750 2728 4690 
Q 3069 4631 3425 4513 
z
" transform="scale(0.015625)"/>
        <path id="DejaVuSans-65" d="M 3597 1894 
L 3597 1613 
L 953 1613 
Q 991 1019 1311 708 
Q 1631 397 2203 397 
Q 2534 397 2845 478 
Q 3156 559 3463 722 
L 3463 178 
Q 3153 47 2828 -22 
Q 2503 -91 2169 -91 
Q 1331 -91 842 396 
Q 353 884 353 1716 
Q 353 2575 817 3079 
Q 1281 3584 2069 3584 
Q 2775 3584 3186 3129 
Q 3597 2675 3597 1894 
z
M 3022 2063 
Q 3016 2534 2758 2815 
Q 2500 3097 2075 3097 
Q 1594 3097 1305 2825 
Q 1016 2553 972 2059 
L 3022 2063 
z
" transform="scale(0.015625)"/>
        <path id="DejaVuSans-70" d="M 1159 525 
L 1159 -1331 
L 581 -1331 
L 581 3500 
L 1159 3500 
L 1159 2969 
Q 1341 3281 1617 3432 
Q 1894 3584 2278 3584 
Q 2916 3584 3314 3078 
Q 3713 2572 3713 1747 
Q 3713 922 3314 415 
Q 2916 -91 2278 -91 
Q 1894 -91 1617 61 
Q 1341 213 1159 525 
z
M 3116 1747 
Q 3116 2381 2855 2742 
Q 2594 3103 2138 3103 
Q 1681 3103 1420 2742 
Q 1159 2381 1159 1747 
Q 1159 1113 1420 752 
Q 1681 391 2138 391 
Q 2594 391 2855 752 
Q 3116 1113 3116 1747 
z
" transform="scale(0.015625)"/>
       </defs>
       <use xlink:href="#DejaVuSans-53"/>
       <use xlink:href="#DejaVuSans-65" transform="translate(63.476562 0)"/>
       <use xlink:href="#DejaVuSans-70" transform="translate(125 0)"/>
      </g>
     </g>
    </g>
    <g id="xtick_2">
     <g id="line2d_3">
      <path d="M 242.422582 455.237812 
L 242.422582 38.397812 
" clip-path="url(#p23a958c197)" style="fill: none; stroke: #d0d7de; stroke-opacity: 0.25; stroke-width: 0.5; stroke-linecap: square"/>
     </g>
     <g id="line2d_4">
      <g>
       <use xlink:href="#m2ad026051d" x="242.422582" y="455.237812" style="fill: #24292f; stroke: #24292f; stroke-width: 0.8"/>
      </g>
     </g>
     <g id="text_2">
      <!-- Oct -->
      <g style="fill: #24292f" transform="translate(233.777269 469.83625) scale(0.1 -0.1)">
       <defs>
        <path id="DejaVuSans-4f" d="M 2522 4238 
Q 1834 4238 1429 3725 
Q 1025 3213 1025 2328 
Q 1025 1447 1429 934 
Q 1834 422 2522 422 
Q 3209 422 3611 934 
Q 4013 1447 4013 2328 
Q 4013 3213 3611 3725 
Q 3209 4238 2522 4238 
z
M 2522 4750 
Q 3503 4750 4090 4092 
Q 4678 3434 4678 2328 
Q 4678 1225 4090 567 
Q 3503 -91 2522 -91 
Q 1538 -91 948 565 
Q 359 1222 359 2328 
Q 359 3434 948 4092 
Q 1538 4750 2522 4750 
z
" transform="scale(0.015625)"/>
        <path id="DejaVuSans-63" d="M 3122 3366 
L 3122 2828 
Q 2878 2963 2633 3030 
Q 2388 3097 2138 3097 
Q 1578 3097 1268 2742 
Q 959 2388 959 1747 
Q 959 1106 1268 751 
Q 1578 397 2138 397 
Q 2388 397 2633 464 
Q 2878 531 3122 666 
L 3122 134 
Q 2881 22 2623 -34 
Q 2366 -91 2075 -91 
Q 1284 -91 818 406 
Q 353 903 353 1747 
Q 353 2603 823 3093 
Q 1294 3584 2113 3584 
Q 2378 3584 2631 3529 
Q 2884 3475 3122 3366 
z
" transform="scale(0.015625)"/>
        <path id="DejaVuSans-74" d="M 1172 4494 
L 1172 3500 
L 2356 3500 
L 2356 3053 
L 1172 3053 
L 1172 1153 
Q 1172 725 1289 603 
Q 1406 481 1766 481 
L 2356 481 
L 2356 0 
L 1766 0 
Q 1100 0 847 248 
Q 594 497 594 1153 
L 594 3053 
L 172 3053 
L 172 3500 
L 594 3500 
L 594 4494 
L 1172 4494 
z
" transform="scale(0.015625)"/>
       </defs>
       <use xlink:href="#DejaVuSans-4f"/>
       <use xlink:href="#DejaVuSans-63" transform="translate(78.710938 0)"/>
       <use xlink:href="#DejaVuSans-74" transform="translate(133.691406 0)"/>
      </g>
     </g>
    </g>
    <g id="xtick_3">
     <g id="line2d_5">
      <path d="M 403.277237 455.237812 
L 403.277237 38.397812 
" clip-path="url(#p23a958c197)" style="fill: none; stroke: #d0d7de; stroke-opacity: 0.25; stroke-width: 0.5; stroke-linecap: square"/>
     </g>
     <g id="line2d_6">
      <g>
       <use xlink:href="#m2ad026051d" x="403.277237" y="455.237812" style="fill: #24292f; stroke: #24292f; stroke-width: 0.8"/>
      </g>
     </g>
     <g id="text_3">
      <!-- Nov -->
      <g style="fill: #24292f" transform="translate(393.517862 469.83625) scale(0.1 -0.1)">
       <defs>
        <path id="DejaVuSans-4e" d="M 628 4666 
L 1478 4666 
L 3547 763 
L 3547 4666 
L 4159 4666 
L 4159 0 
L 3309 0 
L 1241 3903 
L 1241 0 
L 628 0 
L 628 4666 
z
" transform="scale(0.015625)"/>
        <path id="DejaVuSans-6f" d="M 1959 3097 
Q 1497 3097 1228 2736 
Q 959 2375 959 1747 
Q 959 1119 1226 758 
Q 1494 397 1959 397 
Q 2419 397 2687 759 
Q 2956 1122 2956 1747 
Q 2956 2369 2687 2733 
Q 2419 3097 1959 3097 
z
M 1959 3584 
Q 2709 3584 3137 3096 
Q 3566 2609 3566 1747 
Q 3566 888 3137 398 
Q 2709 -91 1959 -91 
Q 1206 -91 779 398 
Q 353 888 353 1747 
Q 353 2609 779 3096 
Q 1206 3584 1959 3584 
z
" transform="scale(0.015625)"/>
        <path id="DejaVuSans-76" d="M 191 3500 
L 800 3500 
L 1894 563 
L 2988 3500 
L 3597 3500 
L 2284 0 
L 1503 0 
L 191 3500 
z
" transform="scale(0.015625)"/>
       </defs>
       <use xlink:href="#DejaVuSans-4e"/>
       <use xlink:href="#DejaVuSans-6f" transform="translate(74.804688 0)"/>
       <use xlink:href="#DejaVuSans-76" transform="translate(135.986328 0)"/>
      </g>
     </g>
    </g>
    <g id="xtick_4">
     <g id="line2d_7">
      <path d="M 558.943031 455.237812 
L 558.943031 38.397812 
" clip-path="url(#p23a958c197)" style="fill: none; stroke: #d0d7de; stroke-opacity: 0.25; stroke-width: 0.5; stroke-linecap: square"/>
     </g>
     <g id="line2d_8">
      <g>
       <use xlink:href="#m2ad026051d" x="558.943031" y="455.237812" style="fill: #24292f; stroke: #24292f; stroke-width: 0.8"/>
      </g>
     </g>
     <g id="text_4">
      <!-- Dec -->
      <g style="fill: #24292f" transform="translate(549.26725 469.83625) scale(0.1 -0.1)">
       <defs>
        <path id="DejaVuSans-44" d="M 1259 4147 
L 1259 519 
L 2022 519 
Q 2988 519 3436 956 
Q 3884 1394 3884 2338 
Q 3884 3275 3436 3711 
Q 2988 4147 2022 4147 
L 1259 4147 
z
M 628 4666 
L 1925 4666 
Q 3281 4666 3915 4102 
Q 4550 3538 4550 2338 
Q 4550 1131 3912 565 
Q 3275 0 1925 0 
L 628 0 
L 628 4666 
z
" transform="scale(0.015625)"/>
       </defs>
       <use xlink:href="#DejaVuSans-44"/>
       <use xlink:href="#DejaVuSans-65" transform="translate(77.001953 0)"/>
       <use xlink:href="#DejaVuSans-63" transform="translate(138.525391 0)"/>
      </g>
     </g>
    </g>
    <g id="xtick_5">
     <g id="line2d_9">
      <path d="M 719.797686 455.237812 
L 719.797686 38.397812 
" clip-path="url(#p23a958c197)" style="fill: none; stroke: #d0d7de; stroke-opacity: 0.25; stroke-width: 0.5; stroke-linecap: square"/>
     </g>
     <g id="line2d_10">
      <g>
       <use xlink:href="#m2ad026051d" x="719.797686" y="455.237812" style="fill: #24292f; stroke: #24292f; stroke-width: 0.8"/>
      </g>
     </g>
     <g id="text_5">
      <!-- 2026 -->
      <g style="fill: #24292f" transform="translate(707.072686 469.83625) scale(0.1 -0.1)">
       <defs>
        <path id="DejaVuSans-32" d="M 1228 531 
L 3431 531 
L 3431 0 
L 469 0 
L 469 531 
Q 828 903 1448 1529 
Q 2069 2156 2228 2338 
Q 2531 2678 2651 2914 
Q 2772 3150 2772 3378 
Q 2772 3750 2511 3984 
Q 2250 4219 1831 4219 
Q 1534 4219 1204 4116 
Q 875 4013 500 3803 
L 500 4441 
Q 881 4594 1212 4672 
Q 1544 4750 1819 4750 
Q 2544 4750 2975 4387 
Q 3406 4025 3406 3419 
Q 3406 3131 3298 2873 
Q 3191 2616 2906 2266 
Q 2828 2175 2409 1742 
Q 1991 1309 1228 531 
z
" transform="scale(0.015625)"/>
        <path id="DejaVuSans-30" d="M 2034 4250 
Q 1547 4250 1301 3770 
Q 1056 3291 1056 2328 
Q 1056 1369 1301 889 
Q 1547 409 2034 409 
Q 2525 409 2770 889 
Q 3016 1369 3016 2328 
Q 3016 3291 2770 3770 
Q 2525 4250 2034 4250 
z
M 2034 4750 
Q 2819 4750 3233 4129 
Q 3647 3509 3647 2328 
Q 3647 1150 3233 529 
Q 2819 -91 2034 -91 
Q 1250 -91 836 529 
Q 422 1150 422 2328 
Q 422 3509 836 4129 
Q 1250 4750 2034 4750 
z
" transform="scale(0.015625)"/>
        <path id="DejaVuSans-36" d="M 2113 2584 
Q 1688 2584 1439 2293 
Q 1191 2003 1191 1497 
Q 1191 994 1439 701 
Q 1688 409 2113 409 
Q 2538 409 2786 701 
Q 3034 994 3034 1497 
Q 3034 2003 2786 2293 
Q 2538 2584 2113 2584 
z
M 3366 4563 
L 3366 3988 
Q 3128 4100 2886 4159 
Q 2644 4219 2406 4219 
Q 1781 4219 1451 3797 
Q 1122 3375 1075 2522 
Q 1259 2794 1537 2939 
Q 1816 3084 2150 3084 
Q 2853 3084 3261 2657 
Q 3669 2231 3669 1497 
Q 3669 778 3244 343 
Q 2819 -91 2113 -91 
Q 1303 -91 875 529 
Q 447 1150 447 2328 
Q 447 3434 972 4092 
Q 1497 4750 2381 4750 
Q 2619 4750 2861 4703 
Q 3103 4656 3366 4563 
z
" transform="scale(0.015625)"/>
       </defs>
       <use xlink:href="#DejaVuSans-32"/>
       <use xlink:href="#DejaVuSans-30" transform="translate(63.623047 0)"/>
       <use xlink:href="#DejaVuSans-32" transform="translate(127.246094 0)"/>
       <use xlink:href="#DejaVuSans-36" transform="translate(190.869141 0)"/>
      </g>
     </g>
    </g>
    <g id="text_6">
     <!-- Date -->
     <g style="fill: #24292f" transform="translate(434.285312 485.034062) scale(0.12 -0.12)">
      <defs>
       <path id="DejaVuSans-61" d="M 2194 1759 
Q 1497 1759 1228 1600 
Q 959 1441 959 1056 
Q 959 750 1161 570 
Q 1363 391 1709 391 
Q 2188 391 2477 730 
Q 2766 1069 2766 1631 
L 2766 1759 
L 2194 1759 
z
M 3341 1997 
L 3341 0 
L 2766 0 
L 2766 531 
Q 2569 213 2275 61 
Q 1981 -91 1556 -91 
Q 1019 -91 701 211 
Q 384 513 384 1019 
Q 384 1609 779 1909 
Q 1175 2209 1959 2209 
L 2766 2209 
L 2766 2266 
Q 2766 2663 2505 2880 
Q 2244 3097 1772 3097 
Q 1472 3097 1187 3025 
Q 903 2953 641 2809 
L 641 3341 
Q 956 3463 1253 3523 
Q 1550 3584 1831 3584 
Q 2591 3584 2966 3190 
Q 3341 2797 3341 1997 
z
" transform="scale(0.015625)"/>
      </defs>
      <use xlink:href="#DejaVuSans-44"/>
      <use xlink:href="#DejaVuSans-61" transform="translate(77.001953 0)"/>
      <use xlink:href="#DejaVuSans-74" transform="translate(138.28125 0)"/>
      <use xlink:href="#DejaVuSans-65" transform="translate(177.490234 0)"/>
     </g>
    </g>
   </g>
   <g id="matplotlib.axis_2">
    <g id="ytick_1">
     <g id="line2d_11">
      <path d="M 48.90125 455.237812 
L 848.35125 455.237812 
" clip-path="url(#p23a958c197)" style="fill: none; stroke: #d0d7de; stroke-opacity: 0.25; stroke-width: 0.5; stroke-linecap: square"/>
     </g>
     <g id="line2d_12">
      <defs>
       <path id="m1ea7e1fe0f" d="M 0 0 
L -3.5 0 
" style="stroke: #24292f; stroke-width: 0.8"/>
      </defs>
      <g>
       <use xlink:href="#m1ea7e1fe0f" x="48.90125" y="455.237812" style="fill: #24292f; stroke: #24292f; stroke-width: 0.8"/>
      </g>
     </g>
     <g id="text_7">
      <!-- 0 -->
      <g style="fill: #24292f" transform="translate(35.53875 459.037031) scale(0.1 -0.1)">
       <use xlink:href="#DejaVuSans-30"/>
      </g>
     </g>
    </g>
    <g id="ytick_2">
     <g id="line2d_13">
      <path d="M 48.90125 399.659146 
L 848.35125 399.659146 
" clip-path="url(#p23a958c197)" style="fill: none; stroke: #d0d7de; stroke-opacity: 0.25; stroke-width: 0.5; stroke-linecap: square"/>
     </g>
     <g id="line2d_14">
      <g>
       <use xlink:href="#m1ea7e1fe0f" x="48.90125" y="399.659146" style="fill: #24292f; stroke: #24292f; stroke-width: 0.8"/>
      </g>
     </g>
     <g id="text_8">
      <!-- 100 -->
      <g style="fill: #24292f" transform="translate(22.81375 403.458365) scale(0.1 -0.1)">
       <defs>
        <path id="DejaVuSans-31" d="M 794 531 
L 1825 531 
L 1825 4091 
L 703 3866 
L 703 4441 
L 1819 4666 
L 2450 4666 
L 2450 531 
L 3481 531 
L 3481 0 
L 794 0 
L 794 531 
z
" transform="scale(0.015625)"/>
       </defs>
       <use xlink:href="#DejaVuSans-31"/>
       <use xlink:href="#DejaVuSans-30" transform="translate(63.623047 0)"/>
       <use xlink:href="#DejaVuSans-30" transform="translate(127.246094 0)"/>
      </g>
     </g>
    </g>
    <g id="ytick_3">
     <g id="line2d_15">
      <path d="M 48.90125 344.080479 
L 848.35125 344.080479 
" clip-path="url(#p23a958c197)" style="fill: none; stroke: #d0d7de; stroke-opacity: 0.25; stroke-width: 0.5; stroke-linecap: square"/>
     </g>
     <g id="line2d_16">
      <g>
       <use xlink:href="#m1ea7e1fe0f" x="48.90125" y="344.080479" style="fill: #24292f; stroke: #24292f; stroke-width: 0.8"/>
      </g>
     </g>
     <g id="text_9">
      <!-- 200 -->
      <g style="fill: #24292f" transform="translate(22.81375 347.879698) scale(0.1 -0.1)">
       <use xlink:href="#DejaVuSans-32"/>
       <use xlink:href="#DejaVuSans-30" transform="translate(63.623047 0)"/>
       <use xlink:href="#DejaVuSans-30" transform="translate(127.246094 0)"/>
      </g>
     </g>
    </g>
    <g id="ytick_4">
     <g id="line2d_17">
      <path d="M 48.90125 288.501812 
L 848.35125 288.501812 
" clip-path="url(#p23a958c197)" style="fill: none; stroke: #d0d7de; stroke-opacity: 0.25; stroke-width: 0.5; stroke-linecap: square"/>
     </g>
     <g id="line2d_18">
      <g>
       <use xlink:href="#m1ea7e1fe0f" x="48.90125" y="288.501812" style="fill: #24292f; stroke: #24292f; stroke-width: 0.8"/>
      </g>
     </g>
     <g id="text_10">
      <!-- 300 -->
      <g style="fill: #24292f" transform="translate(22.81375 292.301031) scale(0.1 -0.1)">
       <defs>
        <path id="DejaVuSans-33" d="M 2597 2516 
Q 3050 2419 3304 2112 
Q 3559 1806 3559 1356 
Q 3559 666 3084 287 
Q 2609 -91 1734 -91 
Q 1441 -91 1130 -33 
Q 819 25 488 141 
L 488 750 
Q 750 597 1062 519 
Q 1375 441 1716 441 
Q 2309 441 2620 675 
Q 2931 909 2931 1356 
Q 2931 1769 2642 2001 
Q 2353 2234 1838 2234 
L 1294 2234 
L 1294 2753 
L 1863 2753 
Q 2328 2753 2575 2939 
Q 2822 3125 2822 3475 
Q 2822 3834 2567 4026 
Q 2313 4219 1838 4219 
Q 1578 4219 1281 4162 
Q 984 4106 628 3988 
L 628 4550 
Q 988 4650 1302 4700 
Q 1616 4750 1894 4750 
Q 2613 4750 3031 4423 
Q 3450 4097 3450 3541 
Q 3450 3153 3228 2886 
Q 3006 2619 2597 2516 
z
" transform="scale(0.015625)"/>
       </defs>
       <use xlink:href="#DejaVuSans-33"/>
       <use xlink:href="#DejaVuSans-30" transform="translate(63.623047 0)"/>
       <use xlink:href="#DejaVuSans-30" transform="translate(127.246094 0)"/>
      </g>
     </g>
    </g>
    <g id="ytick_5">
     <g id="line2d_19">
      <path d="M 48.90125 232.923146 
L 848.35125 232.923146 
" clip-path="url(#p23a958c197)" style="fill: none; stroke: #d0d7de; stroke-opacity: 0.25; stroke-width: 0.5; stroke-linecap: square"/>
     </g>
     <g id="line2d_20">
      <g>
       <use xlink:href="#m1ea7e1fe0f" x="48.90125" y="232.923146" style="fill: #24292f; stroke: #24292f; stroke-width: 0.8"/>
      </g>
     </g>
     <g id="text_11">
      <!-- 400 -->
      <g style="fill: #24292f" transform="translate(22.81375 236.722365) scale(0.1 -0.1)">
       <defs>
        <path id="DejaVuSans-34" d="M 2419 4116 
L 825 1625 
L 2419 1625 
L 2419 4116 
z
M 2253 4666 
L 3047 4666 
L 3047 1625 
L 3713 1625 
L 3713 1100 
L 3047 1100 
L 3047 0 
L 2419 0 
L 2419 1100 
L 313 1100 
L 313 1709 
L 2253 4666 
z
" transform="scale(0.015625)"/>
       </defs>
       <use xlink:href="#DejaVuSans-34"/>
       <use xlink:href="#DejaVuSans-30" transform="translate(63.623047 0)"/>
       <use xlink:href="#DejaVuSans-30" transform="translate(127.246094 0)"/>
      </g>
     </g>
    </g>
    <g id="ytick_6">
     <g id="line2d_21">
      <path d="M 48.90125 177.344479 
L 848.35125 177.344479 
" clip-path="url(#p23a958c197)" style="fill: none; stroke: #d0d7de; stroke-opacity: 0.25; stroke-width: 0.5; stroke-linecap: square"/>
     </g>
     <g id="line2d_22">
      <g>
       <use xlink:href="#m1ea7e1fe0f" x="48.90125" y="177.344479" style="fill: #24292f; stroke: #24292f; stroke-width: 0.8"/>
      </g>
     </g>
     <g id="text_12">
      <!-- 500 -->
      <g style="fill: #24292f" transform="translate(22.81375 181.143698) scale(0.1 -0.1)">
       <defs>
        <path id="DejaVuSans-35" d="M 691 4666 
L 3169 4666 
L 3169 4134 
L 1269 4134 
L 1269 2991 
Q 1406 3038 1543 3061 
Q 1681 3084 1819 3084 
Q 2600 3084 3056 2656 
Q 3513 2228 3513 1497 
Q 3513 744 3044 326 
Q 2575 -91 1722 -91 
Q 1428 -91 1123 -41 
Q 819 9 494 109 
L 494 744 
Q 775 591 1075 516 
Q 1375 441 1709 441 
Q 2250 441 2565 725 
Q 2881 1009 2881 1497 
Q 2881 1984 2565 2268 
Q 2250 2553 1709 2553 
Q 1456 2553 1204 2497 
Q 953 2441 691 2322 
L 691 4666 
z
" transform="scale(0.015625)"/>
       </defs>
       <use xlink:href="#DejaVuSans-35"/>
       <use xlink:href="#DejaVuSans-30" transform="translate(63.623047 0)"/>
       <use xlink:href="#DejaVuSans-30" transform="translate(127.246094 0)"/>
      </g>
     </g>
    </g>
    <g id="ytick_7">
     <g id="line2d_23">
      <path d="M 48.90125 121.765812 
L 848.35125 121.765812 
" clip-path="url(#p23a958c197)" style="fill: none; stroke: #d0d7de; stroke-opacity: 0.25; stroke-width: 0.5; stroke-linecap: square"/>
     </g>
     <g id="line2d_24">
      <g>
       <use xlink:href="#m1ea7e1fe0f" x="48.90125" y="121.765812" style="fill: #24292f; stroke: #24292f; stroke-width: 0.8"/>
      </g>
     </g>
     <g id="text_13">
      <!-- 600 -->
      <g style="fill: #24292f" transform="translate(22.81375 125.565031) scale(0.1 -0.1)">
       <use xlink:href="#DejaVuSans-36"/>
       <use xlink:href="#DejaVuSans-30" transform="translate(63.623047 0)"/>
       <use xlink:href="#DejaVuSans-30" transform="translate(127.246094 0)"/>
      </g>
     </g>
    </g>
    <g id="ytick_8">
     <g id="line2d_25">
      <path d="M 48.90125 66.187146 
L 848.35125 66.187146 
" clip-path="url(#p23a958c197)" style="fill: none; stroke: #d0d7de; stroke-opacity: 0.25; stroke-width: 0.5; stroke-linecap: square"/>
     </g>
     <g id="line2d_26">
      <g>
       <use xlink:href="#m1ea7e1fe0f" x="48.90125" y="66.187146" style="fill: #24292f; stroke: #24292f; stroke-width: 0.8"/>
      </g>
     </g>
     <g id="text_14">
      <!-- 700 -->
      <g style="fill: #24292f" transform="translate(22.81375 69.986365) scale(0.1 -0.1)">
       <defs>
        <path id="DejaVuSans-37" d="M 525 4666 
L 3525 4666 
L 3525 4397 
L 1831 0 
L 1172 0 
L 2766 4134 
L 525 4134 
L 525 4666 
z
" transform="scale(0.015625)"/>
       </defs>
       <use xlink:href="#DejaVuSans-37"/>
       <use xlink:href="#DejaVuSans-30" transform="translate(63.623047 0)"/>
       <use xlink:href="#DejaVuSans-30" transform="translate(127.246094 0)"/>
      </g>
     </g>
    </g>
    <g id="text_15">
     <!-- Count -->
     <g style="fill: #24292f" transform="translate(16.318125 264.635937) rotate(-90) scale(0.12 -0.12)">
      <defs>
       <path id="DejaVuSans-43" d="M 4122 4306 
L 4122 3641 
Q 3803 3938 3442 4084 
Q 3081 4231 2675 4231 
Q 1875 4231 1450 3742 
Q 1025 3253 1025 2328 
Q 1025 1406 1450 917 
Q 1875 428 2675 428 
Q 3081 428 3442 575 
Q 3803 722 4122 1019 
L 4122 359 
Q 3791 134 3420 21 
Q 3050 -91 2638 -91 
Q 1578 -91 968 557 
Q 359 1206 359 2328 
Q 359 3453 968 4101 
Q 1578 4750 2638 4750 
Q 3056 4750 3426 4639 
Q 3797 4528 4122 4306 
z
" transform="scale(0.015625)"/>
       <path id="DejaVuSans-75" d="M 544 1381 
L 544 3500 
L 1119 3500 
L 1119 1403 
Q 1119 906 1312 657 
Q 1506 409 1894 409 
Q 2359 409 2629 706 
Q 2900 1003 2900 1516 
L 2900 3500 
L 3475 3500 
L 3475 0 
L 2900 0 
L 2900 538 
Q 2691 219 2414 64 
Q 2138 -91 1772 -91 
Q 1169 -91 856 284 
Q 544 659 544 1381 
z
M 1991 3584 
L 1991 3584 
z
" transform="scale(0.015625)"/>
       <path id="DejaVuSans-6e" d="M 3513 2113 
L 3513 0 
L 2938 0 
L 2938 2094 
Q 2938 2591 2744 2837 
Q 2550 3084 2163 3084 
Q 1697 3084 1428 2787 
Q 1159 2491 1159 1978 
L 1159 0 
L 581 0 
L 581 3500 
L 1159 3500 
L 1159 2956 
Q 1366 3272 1645 3428 
Q 1925 3584 2291 3584 
Q 2894 3584 3203 3211 
Q 3513 2838 3513 2113 
z
" transform="scale(0.015625)"/>
      </defs>
      <use xlink:href="#DejaVuSans-43"/>
      <use xlink:href="#DejaVuSans-6f" transform="translate(69.824219 0)"/>
      <use xlink:href="#DejaVuSans-75" transform="translate(131.005859 0)"/>
      <use xlink:href="#DejaVuSans-6e" transform="translate(194.384766 0)"/>
      <use xlink:href="#DejaVuSans-74" transform="translate(257.763672 0)"/>
     </g>
    </g>
   </g>
   <g id="line2d_27">
    <path d="M 85.239886 454.682026 
L 85.339279 454.682026 
L 85.402339 454.126239 
L 85.714211 454.126239 
L 85.855283 257.933546 
L 90.226477 257.933546 
L 90.245575 261.268266 
L 95.302551 261.268266 
L 95.427528 260.712479 
L 96.249338 260.712479 
L 96.818311 260.156692 
L 100.343913 259.600906 
L 100.413518 260.156692 
L 100.582516 259.600906 
L 111.500262 259.600906 
L 118.08675 260.712479 
L 119.066748 259.600906 
L 119.782318 259.600906 
L 121.585808 259.045119 
L 122.340354 256.821972 
L 123.80957 256.821972 
L 125.950576 260.712479 
L 126.089486 256.821972 
L 127.732384 256.266186 
L 132.008089 256.266186 
L 133.135885 255.710399 
L 134.811094 255.710399 
L 135.260135 254.598826 
L 145.701754 254.598826 
L 146.463328 253.487252 
L 146.502364 252.375679 
L 149.790384 252.375679 
L 154.638725 251.264106 
L 157.182047 251.264106 
L 157.220543 250.708319 
L 163.061373 250.708319 
L 164.51029 247.929386 
L 169.095765 247.929386 
L 169.127595 247.373599 
L 194.808547 247.373599 
L 199.608963 246.817812 
L 199.772857 247.373599 
L 204.75152 246.817812 
L 222.076846 246.817812 
L 230.474211 246.262026 
L 230.619848 245.706239 
L 230.636423 245.706239 
L 231.035317 245.150452 
L 235.772554 245.150452 
L 237.788762 244.594666 
L 246.103369 244.594666 
L 246.419025 247.373599 
L 246.434519 245.150452 
L 246.838758 245.150452 
L 248.846078 242.927306 
L 258.674043 242.927306 
L 266.206237 242.371519 
L 274.577778 242.371519 
L 274.945142 241.815732 
L 296.698536 241.815732 
L 297.626946 241.259946 
L 302.908953 241.259946 
L 302.946188 240.148372 
L 313.010294 240.148372 
L 313.214425 236.257866 
L 331.429905 236.257866 
L 331.43537 235.702079 
L 331.962904 235.702079 
L 333.842425 235.146292 
L 336.59186 235.146292 
L 337.333915 234.590506 
L 337.408144 235.146292 
L 339.107376 234.590506 
L 339.115123 234.034719 
L 339.15482 234.590506 
L 340.13638 234.034719 
L 349.077734 234.034719 
L 351.857678 233.478932 
L 355.156327 233.478932 
L 360.759035 232.923146 
L 366.063022 232.923146 
L 370.1609 231.811572 
L 379.12886 231.811572 
L 384.345585 230.699999 
L 385.815402 231.255786 
L 393.096562 231.255786 
L 401.310034 229.032639 
L 413.559407 229.032639 
L 417.358385 228.476852 
L 485.060694 228.476852 
L 485.607446 227.921066 
L 510.29693 227.921066 
L 510.709456 227.365279 
L 552.721024 227.365279 
L 561.971848 226.809492 
L 562.025358 227.365279 
L 568.647581 225.697919 
L 578.366063 225.697919 
L 583.672693 225.142132 
L 583.681401 224.586346 
L 594.753731 224.586346 
L 598.727713 225.142132 
L 600.156271 224.586346 
L 618.686386 224.586346 
L 619.474985 225.142132 
L 620.919578 224.586346 
L 621.416003 222.363199 
L 629.907776 222.363199 
L 629.915103 221.807412 
L 655.89976 221.807412 
L 657.412937 221.251626 
L 662.406734 221.251626 
L 662.893911 220.695839 
L 687.245338 220.695839 
L 687.278429 220.140052 
L 693.369093 220.140052 
L 693.378162 219.584266 
L 694.856086 219.584266 
L 694.933258 219.028479 
L 697.228308 219.028479 
L 697.588886 218.472692 
L 702.501006 218.472692 
L 703.247686 217.361119 
L 705.951838 215.137972 
L 712.490943 215.137972 
L 712.973735 212.359039 
L 715.166449 212.359039 
L 716.242597 211.247466 
L 721.78795 211.247466 
L 723.607534 210.691679 
L 728.816093 210.691679 
L 729.514187 210.135892 
L 743.661096 210.135892 
L 744.009663 209.580106 
L 745.318108 209.580106 
L 747.349511 209.024319 
L 770.231182 209.024319 
L 770.436754 208.468532 
L 771.170401 208.468532 
L 772.701956 207.356959 
L 774.849207 207.356959 
L 775.36551 206.801172 
L 775.862956 206.801172 
L 776.051713 206.245386 
L 781.794051 206.245386 
L 782.771647 205.689599 
L 787.769888 205.689599 
L 788.090348 205.133812 
L 790.828193 205.133812 
L 791.003617 204.578026 
L 799.512206 204.578026 
L 799.695137 204.022239 
L 804.657465 204.022239 
L 806.042002 202.354879 
L 806.314897 201.799092 
L 808.152498 201.799092 
L 808.15442 201.243306 
L 812.012614 201.243306 
L 812.012614 201.243306 
" clip-path="url(#p23a958c197)" style="fill: none; stroke: #1a7f37; stroke-width: 2; stroke-linecap: square"/>
   </g>
   <g id="line2d_28">
    <path d="M 85.239886 455.237812 
L 85.339279 453.570452 
L 85.579084 453.570452 
L 85.714211 372.981386 
L 88.164445 372.981386 
L 88.214833 370.758239 
L 90.740618 370.758239 
L 91.391388 369.090879 
L 92.276857 370.758239 
L 92.283403 369.090879 
L 93.016089 369.090879 
L 93.299255 367.979306 
L 100.534891 367.979306 
L 100.541798 367.423519 
L 100.582516 367.979306 
L 100.93865 367.423519 
L 101.043087 367.979306 
L 101.321628 367.423519 
L 103.860746 367.423519 
L 103.993591 366.867732 
L 104.35543 366.311946 
L 107.222215 366.311946 
L 110.48459 365.756159 
L 110.599418 365.200372 
L 111.481164 364.644586 
L 111.500262 364.088799 
L 118.08675 367.979306 
L 119.066748 366.311946 
L 119.782318 363.533012 
L 123.80957 363.533012 
L 125.950576 367.979306 
L 126.089486 363.533012 
L 165.212588 363.533012 
L 166.413112 362.977226 
L 169.127595 362.977226 
L 176.541298 362.421439 
L 178.34719 361.865652 
L 204.078289 361.865652 
L 204.75152 361.309866 
L 208.210399 360.754079 
L 210.408818 360.754079 
L 212.845661 360.198292 
L 212.911302 359.086719 
L 214.586391 358.530932 
L 215.712205 357.975146 
L 231.221731 357.975146 
L 234.313427 357.419359 
L 235.248082 357.419359 
L 235.772554 356.863572 
L 237.788762 356.863572 
L 239.791818 356.307786 
L 246.103369 356.307786 
L 246.419025 358.530932 
L 246.434519 356.307786 
L 248.846078 356.307786 
L 249.088165 355.751999 
L 252.501642 355.751999 
L 255.860047 355.196212 
L 255.941544 354.640426 
L 266.206237 354.640426 
L 270.535752 354.084639 
L 270.546683 353.528852 
L 284.953936 353.528852 
L 290.963765 352.973066 
L 295.472668 352.973066 
L 296.698536 352.417279 
L 303.581042 352.417279 
L 307.506559 351.861492 
L 307.72174 351.305706 
L 311.548945 351.305706 
L 311.993121 350.749919 
L 313.214425 350.194132 
L 315.940798 350.194132 
L 317.66213 349.638346 
L 320.818146 349.638346 
L 322.877956 349.082559 
L 327.272151 349.082559 
L 328.769173 347.970986 
L 340.13638 347.970986 
L 343.373652 347.415199 
L 347.169687 347.415199 
L 348.025729 346.859412 
L 348.287514 346.303626 
L 349.077734 345.747839 
L 362.149817 345.747839 
L 364.543179 345.192052 
L 366.063022 344.636266 
L 403.235017 344.636266 
L 411.579232 344.080479 
L 411.678926 343.524692 
L 417.358385 343.524692 
L 422.212731 342.968906 
L 430.792727 342.968906 
L 431.517726 342.413119 
L 446.129832 342.413119 
L 457.568265 341.857332 
L 457.678048 341.301546 
L 459.173448 341.301546 
L 462.203226 340.745759 
L 462.221363 339.634186 
L 462.505549 338.522612 
L 468.834217 337.966826 
L 469.213171 337.411039 
L 469.230768 336.855252 
L 469.364213 336.299466 
L 469.93739 335.743679 
L 490.531518 335.743679 
L 496.381957 335.187892 
L 500.106166 334.632106 
L 503.023698 334.632106 
L 509.788254 334.076319 
L 510.29693 331.853172 
L 510.709456 331.853172 
L 511.105227 331.297386 
L 511.682067 330.741599 
L 524.513025 330.185812 
L 524.921407 329.630026 
L 525.04188 329.074239 
L 527.752639 329.074239 
L 530.312416 328.518452 
L 530.606632 327.962666 
L 530.639963 327.406879 
L 530.806439 326.851092 
L 532.500806 326.295306 
L 532.625182 325.739519 
L 535.716638 325.183732 
L 539.780284 324.627946 
L 540.069275 324.072159 
L 540.0754 323.516372 
L 540.892766 322.960586 
L 541.037141 322.404799 
L 545.940253 321.849012 
L 546.931842 321.849012 
L 547.988592 321.293226 
L 572.804254 321.293226 
L 576.919548 320.737439 
L 577.294059 320.181652 
L 594.112931 320.181652 
L 594.753731 319.070079 
L 601.761275 319.070079 
L 603.876936 318.514292 
L 603.980293 317.402719 
L 604.523562 316.846932 
L 608.120871 316.291146 
L 608.201887 315.735359 
L 608.636093 315.179572 
L 608.714707 313.512212 
L 609.08105 312.956426 
L 609.576694 312.956426 
L 609.594951 312.400639 
L 612.598064 311.844852 
L 613.77871 311.289066 
L 614.064398 310.733279 
L 619.474985 310.177492 
L 623.46236 310.177492 
L 624.846956 309.621706 
L 639.838497 309.621706 
L 644.805089 309.065919 
L 644.824847 308.510132 
L 645.718064 307.954346 
L 657.412937 307.954346 
L 660.694291 307.398559 
L 662.046037 306.842772 
L 662.406734 305.731199 
L 671.866675 305.731199 
L 672.511198 305.175412 
L 677.705943 305.175412 
L 680.192933 304.619626 
L 687.278429 304.619626 
L 691.561941 304.063839 
L 700.457412 304.063839 
L 701.550736 303.508052 
L 705.951838 303.508052 
L 707.14978 302.952266 
L 707.669447 302.396479 
L 707.925407 301.840692 
L 711.54818 301.840692 
L 711.651176 300.729119 
L 712.973735 300.729119 
L 713.344822 299.617546 
L 713.842088 299.061759 
L 716.99342 299.061759 
L 717.384806 298.505972 
L 717.688631 298.505972 
L 719.197004 297.950186 
L 721.700088 297.950186 
L 721.78795 297.394399 
L 723.607534 297.394399 
L 724.049488 296.838612 
L 725.75971 296.838612 
L 728.378223 295.727039 
L 729.514187 295.727039 
L 733.907601 294.615466 
L 733.914208 294.059679 
L 734.753013 293.503892 
L 736.893178 292.948106 
L 737.225949 292.392319 
L 739.359748 291.836532 
L 742.847815 291.836532 
L 743.362256 291.280746 
L 743.661096 290.724959 
L 748.263687 290.724959 
L 748.272335 290.169172 
L 749.596395 290.169172 
L 749.689422 289.613386 
L 750.354485 289.057599 
L 752.668573 289.057599 
L 752.844598 288.501812 
L 753.241029 288.501812 
L 753.339521 287.946026 
L 753.499331 287.946026 
L 753.504736 287.390239 
L 756.758824 287.390239 
L 757.403227 286.834452 
L 757.944334 286.834452 
L 758.267737 286.278666 
L 759.09363 286.278666 
L 759.711969 285.722879 
L 759.842352 285.167092 
L 760.019097 285.167092 
L 763.127428 284.611306 
L 765.453467 284.611306 
L 765.629552 284.055519 
L 774.805186 284.055519 
L 774.849207 283.499732 
L 775.36551 283.499732 
L 775.862956 282.943946 
L 776.051713 282.943946 
L 776.392833 282.388159 
L 779.679411 282.388159 
L 779.879939 281.276586 
L 780.050618 279.609226 
L 780.592266 279.053439 
L 782.771647 279.053439 
L 783.79951 278.497652 
L 784.795783 278.497652 
L 785.117024 277.941866 
L 786.66137 277.386079 
L 788.090348 277.386079 
L 790.963139 276.830292 
L 791.003617 276.274506 
L 791.881519 276.274506 
L 792.027035 275.718719 
L 794.580807 275.718719 
L 794.651734 275.162932 
L 807.036593 275.162932 
L 807.129861 274.607146 
L 807.596377 274.607146 
L 807.61013 273.495572 
L 809.354464 273.495572 
L 809.483105 272.939786 
L 809.693842 272.939786 
L 810.798396 272.383999 
L 811.076036 271.828212 
L 811.583332 271.828212 
L 812.012614 271.272426 
L 812.012614 271.272426 
" clip-path="url(#p23a958c197)" style="fill: none; stroke: #0969da; stroke-width: 2; stroke-linecap: square"/>
   </g>
   <g id="line2d_29">
    <path d="M 85.239886 455.237812 
L 90.226477 455.237812 
L 90.245575 454.126239 
L 94.36231 454.126239 
L 95.302551 453.570452 
L 349.077734 453.570452 
L 351.857678 453.014666 
L 422.212731 453.014666 
L 424.16522 452.458879 
L 490.531518 452.458879 
L 496.381957 451.903092 
L 511.682067 451.903092 
L 525.04188 450.235732 
L 527.752639 449.124159 
L 532.625182 449.124159 
L 535.716638 448.568372 
L 540.0754 448.012586 
L 541.037141 448.012586 
L 545.940253 447.456799 
L 546.931842 447.456799 
L 547.988592 446.901012 
L 552.721024 446.345226 
L 561.971848 445.789439 
L 562.025358 446.345226 
L 577.294059 446.345226 
L 578.366063 445.789439 
L 600.156271 445.789439 
L 601.761275 445.233652 
L 609.08105 445.233652 
L 609.594951 444.677866 
L 618.686386 444.677866 
L 619.474985 444.122079 
L 652.780078 444.122079 
L 655.89976 443.566292 
L 657.210908 443.566292 
L 657.412937 443.010506 
L 666.301803 443.010506 
L 666.31027 442.454719 
L 687.245338 442.454719 
L 687.278429 441.898932 
L 693.378162 441.898932 
L 694.933258 441.343146 
L 697.224284 440.787359 
L 697.228308 440.231572 
L 697.588886 440.231572 
L 700.457412 438.564212 
L 702.389782 438.564212 
L 702.501006 436.896852 
L 703.247686 436.896852 
L 705.951838 437.452639 
L 707.89658 437.452639 
L 707.925407 435.229492 
L 715.166449 435.229492 
L 716.242597 434.673706 
L 717.384806 434.673706 
L 717.688631 434.117919 
L 743.661096 434.117919 
L 744.009663 433.562132 
L 745.318108 433.562132 
L 747.349511 433.006346 
L 756.311765 433.006346 
L 756.758824 432.450559 
L 759.842352 432.450559 
L 760.019097 431.894772 
L 770.231182 431.894772 
L 770.436754 431.338986 
L 771.170401 431.338986 
L 771.914498 430.783199 
L 772.657874 430.783199 
L 772.701956 430.227412 
L 775.862956 430.227412 
L 776.051713 429.671626 
L 790.726397 429.671626 
L 790.828193 429.115839 
L 791.003617 429.115839 
L 791.154238 428.560052 
L 792.027035 428.560052 
L 793.856709 428.004266 
L 801.009949 428.004266 
L 801.016255 427.448479 
L 802.383075 427.448479 
L 802.435083 426.892692 
L 806.314897 426.892692 
L 807.129861 426.336906 
L 812.012614 426.336906 
L 812.012614 426.336906 
" clip-path="url(#p23a958c197)" style="fill: none; stroke: #bf8700; stroke-width: 2; stroke-linecap: square"/>
   </g>
   <g id="line2d_30">
    <path d="M 85.239886 454.682026 
L 85.666406 454.682026 
L 85.714211 433.006346 
L 86.046502 431.338986 
L 86.16247 430.227412 
L 86.842367 426.892692 
L 87.406416 425.781119 
L 87.692584 426.336906 
L 88.214833 425.781119 
L 89.09808 425.225332 
L 89.710894 424.113759 
L 90.226477 423.557972 
L 90.245575 423.002186 
L 90.740618 421.334826 
L 91.391388 421.334826 
L 92.276857 420.779039 
L 92.283403 420.223252 
L 92.996331 419.667466 
L 93.016089 419.111679 
L 93.299255 419.111679 
L 94.36231 418.555892 
L 95.121842 418.000106 
L 95.302551 411.886452 
L 95.427528 412.442239 
L 95.663969 410.219092 
L 95.902993 406.328586 
L 95.911461 407.995946 
L 96.000465 405.217012 
L 96.249338 402.993866 
L 100.541798 402.993866 
L 100.582516 402.438079 
L 100.93865 399.659146 
L 101.043087 402.438079 
L 101.321628 399.103359 
L 101.526961 397.991786 
L 101.766585 397.435999 
L 103.551877 396.880212 
L 103.605748 396.324426 
L 103.860746 395.768639 
L 104.35543 395.768639 
L 105.274831 395.212852 
L 105.765971 394.657066 
L 105.966319 394.101279 
L 105.988419 393.545492 
L 106.123726 392.989706 
L 106.582556 392.433919 
L 106.593906 391.878132 
L 107.055379 392.433919 
L 107.186722 391.878132 
L 107.202877 392.433919 
L 107.222215 390.766559 
L 111.500262 390.766559 
L 118.08675 402.993866 
L 119.066748 390.210772 
L 119.577527 389.654986 
L 122.340354 389.654986 
L 122.808252 389.099199 
L 123.80957 388.543412 
L 125.950576 402.993866 
L 126.089486 387.987626 
L 127.732384 387.431839 
L 131.245735 386.876052 
L 131.49629 387.431839 
L 131.95566 386.320266 
L 132.008089 385.764479 
L 133.135885 385.764479 
L 133.478566 385.208692 
L 134.125792 384.652906 
L 134.179483 383.541332 
L 134.776502 382.429759 
L 134.811094 382.985546 
L 135.166207 382.985546 
L 135.360909 381.873972 
L 135.960271 379.650826 
L 136.039064 378.539252 
L 136.808025 376.871892 
L 137.183857 377.983466 
L 138.598421 376.316106 
L 139.841225 374.648746 
L 140.540941 375.760319 
L 143.420518 373.537172 
L 145.701754 377.427679 
L 146.502364 373.537172 
L 149.790384 371.869812 
L 154.638725 371.869812 
L 155.279044 371.314026 
L 155.788622 369.646666 
L 157.220543 371.314026 
L 163.061373 371.869812 
L 164.51029 369.646666 
L 165.212588 367.979306 
L 166.413112 369.646666 
L 169.127595 367.979306 
L 178.34719 367.979306 
L 188.041649 367.423519 
L 188.688155 366.867732 
L 194.808547 366.311946 
L 198.855618 366.311946 
L 199.608963 365.756159 
L 199.772857 366.311946 
L 204.078289 364.644586 
L 208.116651 364.644586 
L 208.210399 364.088799 
L 210.408818 363.533012 
L 215.712205 363.533012 
L 218.051636 359.642506 
L 219.792847 359.086719 
L 222.033366 358.530932 
L 222.076846 357.975146 
L 230.474211 357.975146 
L 230.636423 354.084639 
L 230.947214 354.084639 
L 231.221731 352.973066 
L 234.313427 352.973066 
L 235.248082 352.417279 
L 239.791818 352.417279 
L 246.103369 351.861492 
L 246.419025 363.533012 
L 246.434519 352.417279 
L 246.838758 351.861492 
L 249.088165 351.861492 
L 252.501642 351.305706 
L 255.941544 351.305706 
L 258.674043 350.749919 
L 266.206237 349.638346 
L 270.546683 349.638346 
L 274.03499 349.082559 
L 274.577778 346.303626 
L 274.945142 346.303626 
L 275.595191 345.747839 
L 278.985907 345.192052 
L 279.769701 342.968906 
L 284.45595 341.857332 
L 284.512403 342.413119 
L 284.953936 341.857332 
L 290.963765 340.745759 
L 295.472668 340.189972 
L 297.626946 340.189972 
L 299.536374 339.634186 
L 301.191104 338.522612 
L 302.946188 337.966826 
L 303.581042 337.411039 
L 307.72174 337.966826 
L 311.548945 336.855252 
L 311.993121 337.411039 
L 313.010294 337.411039 
L 313.214425 336.855252 
L 315.940798 336.299466 
L 317.66213 336.855252 
L 320.818146 335.743679 
L 322.877956 335.743679 
L 327.272151 335.187892 
L 328.000814 335.743679 
L 328.769173 334.076319 
L 331.43537 334.076319 
L 331.962904 333.520532 
L 333.842425 331.853172 
L 334.258735 331.297386 
L 334.907402 330.185812 
L 336.59186 330.741599 
L 337.333915 329.630026 
L 337.408144 329.074239 
L 343.373652 329.074239 
L 346.395021 328.518452 
L 347.169687 327.962666 
L 351.857678 327.962666 
L 355.156327 327.406879 
L 360.759035 327.406879 
L 362.149817 326.851092 
L 377.556287 326.851092 
L 378.441095 326.295306 
L 378.529738 325.739519 
L 379.12886 325.183732 
L 385.815402 325.183732 
L 386.232132 324.627946 
L 387.933346 324.072159 
L 388.227982 323.516372 
L 391.046541 322.960586 
L 393.096562 322.404799 
L 401.310034 322.404799 
L 403.235017 321.293226 
L 411.678926 321.293226 
L 413.559407 320.737439 
L 421.428817 320.737439 
L 422.212731 320.181652 
L 424.16522 319.625866 
L 424.746444 319.070079 
L 424.943789 318.514292 
L 430.792727 317.958506 
L 431.517726 318.514292 
L 439.217478 317.402719 
L 445.30532 316.291146 
L 446.129832 315.735359 
L 457.678048 315.735359 
L 459.173448 315.179572 
L 469.93739 315.179572 
L 480.076806 314.623786 
L 481.352161 314.067999 
L 485.607446 313.512212 
L 489.874743 312.956426 
L 490.531518 312.400639 
L 500.106166 312.400639 
L 503.023698 311.844852 
L 525.04188 311.844852 
L 527.752639 311.289066 
L 545.940253 311.289066 
L 546.931842 310.733279 
L 547.988592 311.289066 
L 552.721024 310.733279 
L 568.647581 310.733279 
L 570.78186 310.177492 
L 604.473835 310.177492 
L 604.523562 309.621706 
L 625.33173 309.621706 
L 629.903392 309.065919 
L 629.915103 308.510132 
L 652.769929 308.510132 
L 652.780078 307.398559 
L 666.31027 307.398559 
L 672.511198 306.842772 
L 680.192933 306.842772 
L 687.278429 305.731199 
L 701.550736 305.731199 
L 702.389782 305.175412 
L 702.501006 304.619626 
L 707.89658 304.619626 
L 707.925407 304.063839 
L 708.485671 304.063839 
L 709.378768 303.508052 
L 717.384806 303.508052 
L 717.688631 302.952266 
L 728.378223 302.952266 
L 728.816093 302.396479 
L 754.921823 302.396479 
L 756.309783 300.729119 
L 756.311765 300.173332 
L 760.010269 300.173332 
L 760.019097 299.617546 
L 770.928375 299.617546 
L 771.170401 299.061759 
L 776.392833 299.061759 
L 776.580448 298.505972 
L 795.981499 298.505972 
L 796.354568 297.950186 
L 800.857826 297.950186 
L 801.016255 297.394399 
L 802.435083 296.838612 
L 812.012614 296.838612 
L 812.012614 296.838612 
" clip-path="url(#p23a958c197)" style="fill: none; stroke: #cf222e; stroke-width: 2; stroke-linecap: square"/>
   </g>
   <g id="line2d_31">
    <path d="M 85.239886 454.682026 
L 85.273818 454.126239 
L 85.541344 -1 
M 85.781795 -1 
L 85.855283 101.201706 
L 90.226477 101.201706 
L 90.245575 97.866986 
L 95.302551 97.866986 
L 95.427528 98.422772 
L 96.249338 98.422772 
L 96.818311 98.978559 
L 100.343913 99.534346 
L 100.413518 98.978559 
L 100.582516 99.534346 
L 111.500262 99.534346 
L 118.08675 98.422772 
L 119.066748 99.534346 
L 119.577527 98.978559 
L 119.782318 98.978559 
L 121.585808 99.534346 
L 122.340354 96.755412 
L 123.80957 96.755412 
L 125.950576 98.422772 
L 126.089486 95.643839 
L 127.732384 96.199626 
L 132.008089 96.199626 
L 133.135885 95.088052 
L 134.811094 95.088052 
L 135.260135 91.197546 
L 145.701754 91.197546 
L 146.463328 87.862826 
L 146.502364 86.751252 
L 149.790384 86.751252 
L 154.638725 82.860746 
L 157.182047 82.860746 
L 157.220543 83.416532 
L 163.061373 83.416532 
L 164.51029 80.081812 
L 169.095765 80.081812 
L 169.127595 80.637599 
L 194.808547 80.637599 
L 199.608963 81.193386 
L 199.772857 80.637599 
L 204.75152 81.193386 
L 222.076846 81.193386 
L 230.474211 81.749172 
L 230.619848 74.523946 
L 230.636423 74.523946 
L 231.035317 75.079732 
L 235.772554 75.079732 
L 237.788762 75.635519 
L 246.103369 75.635519 
L 246.419025 80.637599 
L 246.434519 71.745012 
L 246.838758 71.745012 
L 248.846078 73.968159 
L 258.674043 73.968159 
L 266.206237 70.077652 
L 274.577778 70.077652 
L 274.945142 68.410292 
L 296.698536 68.410292 
L 297.626946 68.966079 
L 302.908953 68.966079 
L 302.946188 70.077652 
L 313.010294 70.077652 
L 313.214425 73.412372 
L 328.769173 73.412372 
L 329.140681 68.410292 
L 331.429905 67.298719 
L 331.43537 67.854506 
L 331.962904 67.854506 
L 333.842425 65.075572 
L 336.59186 65.075572 
L 337.333915 65.631359 
L 337.408144 65.075572 
L 339.107376 65.631359 
L 339.115123 66.187146 
L 339.15482 65.631359 
L 340.13638 63.408212 
L 349.077734 63.408212 
L 351.857678 63.963999 
L 355.156327 63.963999 
L 360.759035 64.519786 
L 366.063022 64.519786 
L 370.1609 65.631359 
L 378.529738 65.075572 
L 379.12886 65.075572 
L 384.345585 66.187146 
L 385.815402 65.631359 
L 393.096562 65.631359 
L 401.30559 67.854506 
L 401.310034 67.298719 
L 413.559407 67.298719 
L 417.358385 67.854506 
L 485.060694 67.854506 
L 485.607446 68.410292 
L 489.844294 68.410292 
L 489.874743 66.742932 
L 510.29693 66.742932 
L 510.709456 67.298719 
L 552.721024 67.298719 
L 561.971848 67.854506 
L 562.025358 67.298719 
L 568.647581 68.966079 
L 570.78186 68.966079 
L 572.804254 68.410292 
L 578.366063 68.410292 
L 583.672693 68.966079 
L 583.681401 69.521866 
L 598.727713 67.854506 
L 600.156271 68.410292 
L 618.686386 68.410292 
L 619.474985 67.854506 
L 620.919578 68.410292 
L 621.416003 70.633439 
L 629.907776 70.633439 
L 629.915103 71.189226 
L 655.89976 71.189226 
L 657.412937 71.745012 
L 662.406734 71.745012 
L 662.893911 72.300799 
L 687.245338 72.300799 
L 687.278429 72.856586 
L 691.561941 72.856586 
L 693.369093 73.412372 
L 693.378162 73.968159 
L 694.856086 73.412372 
L 694.933258 73.968159 
L 697.228308 73.968159 
L 697.588886 74.523946 
L 702.389782 74.523946 
L 702.501006 73.412372 
L 703.247686 74.523946 
L 705.951838 72.856586 
L 712.490943 72.856586 
L 712.973735 71.189226 
L 715.166449 71.189226 
L 716.242597 72.300799 
L 721.78795 72.300799 
L 723.607534 72.856586 
L 724.049488 72.856586 
L 725.75971 70.077652 
L 728.816093 70.077652 
L 729.514187 70.633439 
L 743.661096 70.633439 
L 744.009663 71.189226 
L 745.318108 71.189226 
L 747.349511 71.745012 
L 770.231182 71.745012 
L 770.436754 72.300799 
L 771.170401 72.300799 
L 772.701956 73.412372 
L 774.849207 73.412372 
L 775.36551 72.856586 
L 775.862956 72.856586 
L 776.051713 73.412372 
L 781.794051 73.412372 
L 782.771647 73.968159 
L 787.769888 73.968159 
L 788.090348 74.523946 
L 790.828193 74.523946 
L 791.003617 75.079732 
L 799.512206 75.079732 
L 799.695137 75.635519 
L 804.657465 75.635519 
L 806.042002 77.302879 
L 806.314897 77.858666 
L 808.152498 77.858666 
L 808.15442 78.414452 
L 812.012614 78.414452 
L 812.012614 78.414452 
" clip-path="url(#p23a958c197)" style="fill: none; stroke: #9467bd; stroke-width: 2; stroke-linecap: square"/>
   </g>
   <g id="patch_3">
    <path d="M 48.90125 455.237812 
L 48.90125 38.397812 
" style="fill: none; stroke: #d0d7de; stroke-width: 0.8; stroke-linejoin: miter; stroke-linecap: square"/>
   </g>
   <g id="patch_4">
    <path d="M 848.35125 455.237812 
L 848.35125 38.397812 
" style="fill: none; stroke: #d0d7de; stroke-width: 0.8; stroke-linejoin: miter; stroke-linecap: square"/>
   </g>
   <g id="patch_5">
    <path d="M 48.90125 455.237812 
L 848.35125 455.237812 
" style="fill: none; stroke: #d0d7de; stroke-width: 0.8; stroke-linejoin: miter; stroke-linecap: square"/>
   </g>
   <g id="patch_6">
    <path d="M 48.90125 38.397812 
L 848.35125 38.397812 
" style="fill: none; stroke: #d0d7de; stroke-width: 0.8; stroke-linejoin: miter; stroke-linecap: square"/>
   </g>
   <g id="text_16">
    <!-- 457 -->
    <g style="fill: #1a7f37" transform="translate(817.012614 203.726743) scale(0.09 -0.09)">
     <defs>
      <path id="DejaVuSans-Bold-34" d="M 2356 3675 
L 1038 1722 
L 2356 1722 
L 2356 3675 
z
M 2156 4666 
L 3494 4666 
L 3494 1722 
L 4159 1722 
L 4159 850 
L 3494 850 
L 3494 0 
L 2356 0 
L 2356 850 
L 288 850 
L 288 1881 
L 2156 4666 
z
" transform="scale(0.015625)"/>
      <path id="DejaVuSans-Bold-35" d="M 678 4666 
L 3669 4666 
L 3669 3781 
L 1638 3781 
L 1638 3059 
Q 1775 3097 1914 3117 
Q 2053 3138 2203 3138 
Q 3056 3138 3531 2711 
Q 4006 2284 4006 1522 
Q 4006 766 3489 337 
Q 2972 -91 2053 -91 
Q 1656 -91 1267 -14 
Q 878 63 494 219 
L 494 1166 
Q 875 947 1217 837 
Q 1559 728 1863 728 
Q 2300 728 2551 942 
Q 2803 1156 2803 1522 
Q 2803 1891 2551 2103 
Q 2300 2316 1863 2316 
Q 1603 2316 1309 2248 
Q 1016 2181 678 2041 
L 678 4666 
z
" transform="scale(0.015625)"/>
      <path id="DejaVuSans-Bold-37" d="M 428 4666 
L 3944 4666 
L 3944 3988 
L 2125 0 
L 953 0 
L 2675 3781 
L 428 3781 
L 428 4666 
z
" transform="scale(0.015625)"/>
     </defs>
     <use xlink:href="#DejaVuSans-Bold-34"/>
     <use xlink:href="#DejaVuSans-Bold-35" transform="translate(69.580078 0)"/>
     <use xlink:href="#DejaVuSans-Bold-37" transform="translate(139.160156 0)"/>
    </g>
   </g>
   <g id="text_17">
    <!-- 331 -->
    <g style="fill: #0969da" transform="translate(817.012614 273.755863) scale(0.09 -0.09)">
     <defs>
      <path id="DejaVuSans-Bold-33" d="M 2981 2516 
Q 3453 2394 3698 2092 
Q 3944 1791 3944 1325 
Q 3944 631 3412 270 
Q 2881 -91 1863 -91 
Q 1503 -91 1142 -33 
Q 781 25 428 141 
L 428 1069 
Q 766 900 1098 814 
Q 1431 728 1753 728 
Q 2231 728 2486 893 
Q 2741 1059 2741 1369 
Q 2741 1688 2480 1852 
Q 2219 2016 1709 2016 
L 1228 2016 
L 1228 2791 
L 1734 2791 
Q 2188 2791 2409 2933 
Q 2631 3075 2631 3366 
Q 2631 3634 2415 3781 
Q 2200 3928 1806 3928 
Q 1516 3928 1219 3862 
Q 922 3797 628 3669 
L 628 4550 
Q 984 4650 1334 4700 
Q 1684 4750 2022 4750 
Q 2931 4750 3382 4451 
Q 3834 4153 3834 3553 
Q 3834 3144 3618 2883 
Q 3403 2622 2981 2516 
z
" transform="scale(0.015625)"/>
      <path id="DejaVuSans-Bold-31" d="M 750 831 
L 1813 831 
L 1813 3847 
L 722 3622 
L 722 4441 
L 1806 4666 
L 2950 4666 
L 2950 831 
L 4013 831 
L 4013 0 
L 750 0 
L 750 831 
z
" transform="scale(0.015625)"/>
     </defs>
     <use xlink:href="#DejaVuSans-Bold-33"/>
     <use xlink:href="#DejaVuSans-Bold-33" transform="translate(69.580078 0)"/>
     <use xlink:href="#DejaVuSans-Bold-31" transform="translate(139.160156 0)"/>
    </g>
   </g>
   <g id="text_18">
    <!-- 52 -->
    <g style="fill: #bf8700" transform="translate(817.012614 428.820343) scale(0.09 -0.09)">
     <defs>
      <path id="DejaVuSans-Bold-32" d="M 1844 884 
L 3897 884 
L 3897 0 
L 506 0 
L 506 884 
L 2209 2388 
Q 2438 2594 2547 2791 
Q 2656 2988 2656 3200 
Q 2656 3528 2436 3728 
Q 2216 3928 1850 3928 
Q 1569 3928 1234 3808 
Q 900 3688 519 3450 
L 519 4475 
Q 925 4609 1322 4679 
Q 1719 4750 2100 4750 
Q 2938 4750 3402 4381 
Q 3866 4013 3866 3353 
Q 3866 2972 3669 2642 
Q 3472 2313 2841 1759 
L 1844 884 
z
" transform="scale(0.015625)"/>
     </defs>
     <use xlink:href="#DejaVuSans-Bold-35"/>
     <use xlink:href="#DejaVuSans-Bold-32" transform="translate(69.580078 0)"/>
    </g>
   </g>
   <g id="text_19">
    <!-- 285 -->
    <g style="fill: #cf222e" transform="translate(817.012614 299.32205) scale(0.09 -0.09)">
     <defs>
      <path id="DejaVuSans-Bold-38" d="M 2228 2088 
Q 1891 2088 1709 1903 
Q 1528 1719 1528 1375 
Q 1528 1031 1709 848 
Q 1891 666 2228 666 
Q 2563 666 2741 848 
Q 2919 1031 2919 1375 
Q 2919 1722 2741 1905 
Q 2563 2088 2228 2088 
z
M 1350 2484 
Q 925 2613 709 2878 
Q 494 3144 494 3541 
Q 494 4131 934 4440 
Q 1375 4750 2228 4750 
Q 3075 4750 3515 4442 
Q 3956 4134 3956 3541 
Q 3956 3144 3739 2878 
Q 3522 2613 3097 2484 
Q 3572 2353 3814 2058 
Q 4056 1763 4056 1313 
Q 4056 619 3595 264 
Q 3134 -91 2228 -91 
Q 1319 -91 855 264 
Q 391 619 391 1313 
Q 391 1763 633 2058 
Q 875 2353 1350 2484 
z
M 1631 3419 
Q 1631 3141 1786 2991 
Q 1941 2841 2228 2841 
Q 2509 2841 2662 2991 
Q 2816 3141 2816 3419 
Q 2816 3697 2662 3845 
Q 2509 3994 2228 3994 
Q 1941 3994 1786 3844 
Q 1631 3694 1631 3419 
z
" transform="scale(0.015625)"/>
     </defs>
     <use xlink:href="#DejaVuSans-Bold-32"/>
     <use xlink:href="#DejaVuSans-Bold-38" transform="translate(69.580078 0)"/>
     <use xlink:href="#DejaVuSans-Bold-35" transform="translate(139.160156 0)"/>
    </g>
   </g>
   <g id="text_20">
    <!-- 678 -->
    <g style="fill: #9467bd" transform="translate(817.012614 80.89789) scale(0.09 -0.09)">
     <defs>
      <path id="DejaVuSans-Bold-36" d="M 2316 2303 
Q 2000 2303 1842 2098 
Q 1684 1894 1684 1484 
Q 1684 1075 1842 870 
Q 2000 666 2316 666 
Q 2634 666 2792 870 
Q 2950 1075 2950 1484 
Q 2950 1894 2792 2098 
Q 2634 2303 2316 2303 
z
M 3803 4544 
L 3803 3681 
Q 3506 3822 3243 3889 
Q 2981 3956 2731 3956 
Q 2194 3956 1894 3657 
Q 1594 3359 1544 2772 
Q 1750 2925 1990 3001 
Q 2231 3078 2516 3078 
Q 3231 3078 3670 2659 
Q 4109 2241 4109 1563 
Q 4109 813 3618 361 
Q 3128 -91 2303 -91 
Q 1394 -91 895 523 
Q 397 1138 397 2266 
Q 397 3422 980 4083 
Q 1563 4744 2578 4744 
Q 2900 4744 3203 4694 
Q 3506 4644 3803 4544 
z
" transform="scale(0.015625)"/>
     </defs>
     <use xlink:href="#DejaVuSans-Bold-36"/>
     <use xlink:href="#DejaVuSans-Bold-37" transform="translate(69.580078 0)"/>
     <use xlink:href="#DejaVuSans-Bold-38" transform="translate(139.160156 0)"/>
    </g>
   </g>
   <g id="text_21">
    <!-- Erds Problems Progress -->
    <g style="fill: #24292f" transform="translate(349.588281 18.397812) scale(0.14 -0.14)">
     <defs>
      <path id="DejaVuSans-Bold-45" d="M 588 4666 
L 3834 4666 
L 3834 3756 
L 1791 3756 
L 1791 2888 
L 3713 2888 
L 3713 1978 
L 1791 1978 
L 1791 909 
L 3903 909 
L 3903 0 
L 588 0 
L 588 4666 
z
" transform="scale(0.015625)"/>
      <path id="DejaVuSans-Bold-72" d="M 3138 2547 
Q 2991 2616 2845 2648 
Q 2700 2681 2553 2681 
Q 2122 2681 1889 2404 
Q 1656 2128 1656 1613 
L 1656 0 
L 538 0 
L 538 3500 
L 1656 3500 
L 1656 2925 
Q 1872 3269 2151 3426 
Q 2431 3584 2822 3584 
Q 2878 3584 2943 3579 
Q 3009 3575 3134 3559 
L 3138 2547 
z
" transform="scale(0.015625)"/>
      <path id="DejaVuSans-Bold-64" d="M 2919 2988 
L 2919 4863 
L 4044 4863 
L 4044 0 
L 2919 0 
L 2919 506 
Q 2688 197 2409 53 
Q 2131 -91 1766 -91 
Q 1119 -91 703 423 
Q 288 938 288 1747 
Q 288 2556 703 3070 
Q 1119 3584 1766 3584 
Q 2128 3584 2408 3439 
Q 2688 3294 2919 2988 
z
M 2181 722 
Q 2541 722 2730 984 
Q 2919 1247 2919 1747 
Q 2919 2247 2730 2509 
Q 2541 2772 2181 2772 
Q 1825 2772 1636 2509 
Q 1447 2247 1447 1747 
Q 1447 1247 1636 984 
Q 1825 722 2181 722 
z
" transform="scale(0.015625)"/>
      <path id="DejaVuSans-Bold-151" d="M 1881 5119 
L 2560 5119 
L 1785 3944 
L 1275 3944 
L 1881 5119 
z
M 3016 5119 
L 3738 5119 
L 2888 3944 
L 2344 3944 
L 3016 5119 
z
M 2203 2784 
Q 1831 2784 1636 2517 
Q 1441 2250 1441 1747 
Q 1441 1244 1636 976 
Q 1831 709 2203 709 
Q 2569 709 2762 976 
Q 2956 1244 2956 1747 
Q 2956 2250 2762 2517 
Q 2569 2784 2203 2784 
z
M 2203 3584 
Q 3106 3584 3614 3096 
Q 4122 2609 4122 1747 
Q 4122 884 3614 396 
Q 3106 -91 2203 -91 
Q 1297 -91 786 396 
Q 275 884 275 1747 
Q 275 2609 786 3096 
Q 1297 3584 2203 3584 
z
" transform="scale(0.015625)"/>
      <path id="DejaVuSans-Bold-73" d="M 3272 3391 
L 3272 2541 
Q 2913 2691 2578 2766 
Q 2244 2841 1947 2841 
Q 1628 2841 1473 2761 
Q 1319 2681 1319 2516 
Q 1319 2381 1436 2309 
Q 1553 2238 1856 2203 
L 2053 2175 
Q 2913 2066 3209 1816 
Q 3506 1566 3506 1031 
Q 3506 472 3093 190 
Q 2681 -91 1863 -91 
Q 1516 -91 1145 -36 
Q 775 19 384 128 
L 384 978 
Q 719 816 1070 734 
Q 1422 653 1784 653 
Q 2113 653 2278 743 
Q 2444 834 2444 1013 
Q 2444 1163 2330 1236 
Q 2216 1309 1875 1350 
L 1678 1375 
Q 931 1469 631 1722 
Q 331 1975 331 2491 
Q 331 3047 712 3315 
Q 1094 3584 1881 3584 
Q 2191 3584 2531 3537 
Q 2872 3491 3272 3391 
z
" transform="scale(0.015625)"/>
      <path id="DejaVuSans-Bold-20" transform="scale(0.015625)"/>
      <path id="DejaVuSans-Bold-50" d="M 588 4666 
L 2584 4666 
Q 3475 4666 3951 4270 
Q 4428 3875 4428 3144 
Q 4428 2409 3951 2014 
Q 3475 1619 2584 1619 
L 1791 1619 
L 1791 0 
L 588 0 
L 588 4666 
z
M 1791 3794 
L 1791 2491 
L 2456 2491 
Q 2806 2491 2997 2661 
Q 3188 2831 3188 3144 
Q 3188 3456 2997 3625 
Q 2806 3794 2456 3794 
L 1791 3794 
z
" transform="scale(0.015625)"/>
      <path id="DejaVuSans-Bold-6f" d="M 2203 2784 
Q 1831 2784 1636 2517 
Q 1441 2250 1441 1747 
Q 1441 1244 1636 976 
Q 1831 709 2203 709 
Q 2569 709 2762 976 
Q 2956 1244 2956 1747 
Q 2956 2250 2762 2517 
Q 2569 2784 2203 2784 
z
M 2203 3584 
Q 3106 3584 3614 3096 
Q 4122 2609 4122 1747 
Q 4122 884 3614 396 
Q 3106 -91 2203 -91 
Q 1297 -91 786 396 
Q 275 884 275 1747 
Q 275 2609 786 3096 
Q 1297 3584 2203 3584 
z
" transform="scale(0.015625)"/>
      <path id="DejaVuSans-Bold-62" d="M 2400 722 
Q 2759 722 2948 984 
Q 3138 1247 3138 1747 
Q 3138 2247 2948 2509 
Q 2759 2772 2400 2772 
Q 2041 2772 1848 2508 
Q 1656 2244 1656 1747 
Q 1656 1250 1848 986 
Q 2041 722 2400 722 
z
M 1656 2988 
Q 1888 3294 2169 3439 
Q 2450 3584 2816 3584 
Q 3463 3584 3878 3070 
Q 4294 2556 4294 1747 
Q 4294 938 3878 423 
Q 3463 -91 2816 -91 
Q 2450 -91 2169 54 
Q 1888 200 1656 506 
L 1656 0 
L 538 0 
L 538 4863 
L 1656 4863 
L 1656 2988 
z
" transform="scale(0.015625)"/>
      <path id="DejaVuSans-Bold-6c" d="M 538 4863 
L 1656 4863 
L 1656 0 
L 538 0 
L 538 4863 
z
" transform="scale(0.015625)"/>
      <path id="DejaVuSans-Bold-65" d="M 4031 1759 
L 4031 1441 
L 1416 1441 
Q 1456 1047 1700 850 
Q 1944 653 2381 653 
Q 2734 653 3104 758 
Q 3475 863 3866 1075 
L 3866 213 
Q 3469 63 3072 -14 
Q 2675 -91 2278 -91 
Q 1328 -91 801 392 
Q 275 875 275 1747 
Q 275 2603 792 3093 
Q 1309 3584 2216 3584 
Q 3041 3584 3536 3087 
Q 4031 2591 4031 1759 
z
M 2881 2131 
Q 2881 2450 2695 2645 
Q 2509 2841 2209 2841 
Q 1884 2841 1681 2658 
Q 1478 2475 1428 2131 
L 2881 2131 
z
" transform="scale(0.015625)"/>
      <path id="DejaVuSans-Bold-6d" d="M 3781 2919 
Q 3994 3244 4286 3414 
Q 4578 3584 4928 3584 
Q 5531 3584 5847 3212 
Q 6163 2841 6163 2131 
L 6163 0 
L 5038 0 
L 5038 1825 
Q 5041 1866 5042 1909 
Q 5044 1953 5044 2034 
Q 5044 2406 4934 2573 
Q 4825 2741 4581 2741 
Q 4263 2741 4089 2478 
Q 3916 2216 3909 1719 
L 3909 0 
L 2784 0 
L 2784 1825 
Q 2784 2406 2684 2573 
Q 2584 2741 2328 2741 
Q 2006 2741 1831 2477 
Q 1656 2213 1656 1722 
L 1656 0 
L 531 0 
L 531 3500 
L 1656 3500 
L 1656 2988 
Q 1863 3284 2130 3434 
Q 2397 3584 2719 3584 
Q 3081 3584 3359 3409 
Q 3638 3234 3781 2919 
z
" transform="scale(0.015625)"/>
      <path id="DejaVuSans-Bold-67" d="M 2919 594 
Q 2688 288 2409 144 
Q 2131 0 1766 0 
Q 1125 0 706 504 
Q 288 1009 288 1791 
Q 288 2575 706 3076 
Q 1125 3578 1766 3578 
Q 2131 3578 2409 3434 
Q 2688 3291 2919 2981 
L 2919 3500 
L 4044 3500 
L 4044 353 
Q 4044 -491 3511 -936 
Q 2978 -1381 1966 -1381 
Q 1638 -1381 1331 -1331 
Q 1025 -1281 716 -1178 
L 716 -306 
Q 1009 -475 1290 -558 
Q 1572 -641 1856 -641 
Q 2406 -641 2662 -400 
Q 2919 -159 2919 353 
L 2919 594 
z
M 2181 2772 
Q 1834 2772 1640 2515 
Q 1447 2259 1447 1791 
Q 1447 1309 1634 1061 
Q 1822 813 2181 813 
Q 2531 813 2725 1069 
Q 2919 1325 2919 1791 
Q 2919 2259 2725 2515 
Q 2531 2772 2181 2772 
z
" transform="scale(0.015625)"/>
     </defs>
     <use xlink:href="#DejaVuSans-Bold-45"/>
     <use xlink:href="#DejaVuSans-Bold-72" transform="translate(68.310547 0)"/>
     <use xlink:href="#DejaVuSans-Bold-64" transform="translate(117.626953 0)"/>
     <use xlink:href="#DejaVuSans-Bold-151" transform="translate(189.208984 0)"/>
     <use xlink:href="#DejaVuSans-Bold-73" transform="translate(257.910156 0)"/>
     <use xlink:href="#DejaVuSans-Bold-20" transform="translate(317.431641 0)"/>
     <use xlink:href="#DejaVuSans-Bold-50" transform="translate(352.246094 0)"/>
     <use xlink:href="#DejaVuSans-Bold-72" transform="translate(425.537109 0)"/>
     <use xlink:href="#DejaVuSans-Bold-6f" transform="translate(474.853516 0)"/>
     <use xlink:href="#DejaVuSans-Bold-62" transform="translate(543.554688 0)"/>
     <use xlink:href="#DejaVuSans-Bold-6c" transform="translate(615.136719 0)"/>
     <use xlink:href="#DejaVuSans-Bold-65" transform="translate(649.414062 0)"/>
     <use xlink:href="#DejaVuSans-Bold-6d" transform="translate(717.236328 0)"/>
     <use xlink:href="#DejaVuSans-Bold-73" transform="translate(821.435547 0)"/>
     <use xlink:href="#DejaVuSans-Bold-20" transform="translate(880.957031 0)"/>
     <use xlink:href="#DejaVuSans-Bold-50" transform="translate(915.771484 0)"/>
     <use xlink:href="#DejaVuSans-Bold-72" transform="translate(989.0625 0)"/>
     <use xlink:href="#DejaVuSans-Bold-6f" transform="translate(1038.378906 0)"/>
     <use xlink:href="#DejaVuSans-Bold-67" transform="translate(1107.080078 0)"/>
     <use xlink:href="#DejaVuSans-Bold-72" transform="translate(1178.662109 0)"/>
     <use xlink:href="#DejaVuSans-Bold-65" transform="translate(1227.978516 0)"/>
     <use xlink:href="#DejaVuSans-Bold-73" transform="translate(1295.800781 0)"/>
     <use xlink:href="#DejaVuSans-Bold-73" transform="translate(1355.322266 0)"/>
    </g>
   </g>
   <g id="legend_1">
    <g id="patch_7">
     <path d="M 55.90125 119.788437 
L 213.771563 119.788437 
Q 215.771563 119.788437 215.771563 117.788437 
L 215.771563 45.397812 
Q 215.771563 43.397812 213.771563 43.397812 
L 55.90125 43.397812 
Q 53.90125 43.397812 53.90125 45.397812 
L 53.90125 117.788437 
Q 53.90125 119.788437 55.90125 119.788437 
z
" style="fill: #f6f8fa; opacity: 0.8; stroke: #d0d7de; stroke-linejoin: miter"/>
    </g>
    <g id="line2d_32">
     <path d="M 57.90125 51.49625 
L 67.90125 51.49625 
L 77.90125 51.49625 
" style="fill: none; stroke: #1a7f37; stroke-width: 2; stroke-linecap: square"/>
    </g>
    <g id="text_22">
     <!-- Solved -->
     <g style="fill: #24292f" transform="translate(85.90125 54.99625) scale(0.1 -0.1)">
      <defs>
       <path id="DejaVuSans-6c" d="M 603 4863 
L 1178 4863 
L 1178 0 
L 603 0 
L 603 4863 
z
" transform="scale(0.015625)"/>
       <path id="DejaVuSans-64" d="M 2906 2969 
L 2906 4863 
L 3481 4863 
L 3481 0 
L 2906 0 
L 2906 525 
Q 2725 213 2448 61 
Q 2172 -91 1784 -91 
Q 1150 -91 751 415 
Q 353 922 353 1747 
Q 353 2572 751 3078 
Q 1150 3584 1784 3584 
Q 2172 3584 2448 3432 
Q 2725 3281 2906 2969 
z
M 947 1747 
Q 947 1113 1208 752 
Q 1469 391 1925 391 
Q 2381 391 2643 752 
Q 2906 1113 2906 1747 
Q 2906 2381 2643 2742 
Q 2381 3103 1925 3103 
Q 1469 3103 1208 2742 
Q 947 2381 947 1747 
z
" transform="scale(0.015625)"/>
      </defs>
      <use xlink:href="#DejaVuSans-53"/>
      <use xlink:href="#DejaVuSans-6f" transform="translate(63.476562 0)"/>
      <use xlink:href="#DejaVuSans-6c" transform="translate(124.658203 0)"/>
      <use xlink:href="#DejaVuSans-76" transform="translate(152.441406 0)"/>
      <use xlink:href="#DejaVuSans-65" transform="translate(211.621094 0)"/>
      <use xlink:href="#DejaVuSans-64" transform="translate(273.144531 0)"/>
     </g>
    </g>
    <g id="line2d_33">
     <path d="M 57.90125 66.174375 
L 67.90125 66.174375 
L 77.90125 66.174375 
" style="fill: none; stroke: #0969da; stroke-width: 2; stroke-linecap: square"/>
    </g>
    <g id="text_23">
     <!-- Lean Formalized Problem -->
     <g style="fill: #24292f" transform="translate(85.90125 69.674375) scale(0.1 -0.1)">
      <defs>
       <path id="DejaVuSans-4c" d="M 628 4666 
L 1259 4666 
L 1259 531 
L 3531 531 
L 3531 0 
L 628 0 
L 628 4666 
z
" transform="scale(0.015625)"/>
       <path id="DejaVuSans-20" transform="scale(0.015625)"/>
       <path id="DejaVuSans-46" d="M 628 4666 
L 3309 4666 
L 3309 4134 
L 1259 4134 
L 1259 2759 
L 3109 2759 
L 3109 2228 
L 1259 2228 
L 1259 0 
L 628 0 
L 628 4666 
z
" transform="scale(0.015625)"/>
       <path id="DejaVuSans-72" d="M 2631 2963 
Q 2534 3019 2420 3045 
Q 2306 3072 2169 3072 
Q 1681 3072 1420 2755 
Q 1159 2438 1159 1844 
L 1159 0 
L 581 0 
L 581 3500 
L 1159 3500 
L 1159 2956 
Q 1341 3275 1631 3429 
Q 1922 3584 2338 3584 
Q 2397 3584 2469 3576 
Q 2541 3569 2628 3553 
L 2631 2963 
z
" transform="scale(0.015625)"/>
       <path id="DejaVuSans-6d" d="M 3328 2828 
Q 3544 3216 3844 3400 
Q 4144 3584 4550 3584 
Q 5097 3584 5394 3201 
Q 5691 2819 5691 2113 
L 5691 0 
L 5113 0 
L 5113 2094 
Q 5113 2597 4934 2840 
Q 4756 3084 4391 3084 
Q 3944 3084 3684 2787 
Q 3425 2491 3425 1978 
L 3425 0 
L 2847 0 
L 2847 2094 
Q 2847 2600 2669 2842 
Q 2491 3084 2119 3084 
Q 1678 3084 1418 2786 
Q 1159 2488 1159 1978 
L 1159 0 
L 581 0 
L 581 3500 
L 1159 3500 
L 1159 2956 
Q 1356 3278 1631 3431 
Q 1906 3584 2284 3584 
Q 2666 3584 2933 3390 
Q 3200 3197 3328 2828 
z
" transform="scale(0.015625)"/>
       <path id="DejaVuSans-69" d="M 603 3500 
L 1178 3500 
L 1178 0 
L 603 0 
L 603 3500 
z
M 603 4863 
L 1178 4863 
L 1178 4134 
L 603 4134 
L 603 4863 
z
" transform="scale(0.015625)"/>
       <path id="DejaVuSans-7a" d="M 353 3500 
L 3084 3500 
L 3084 2975 
L 922 459 
L 3084 459 
L 3084 0 
L 275 0 
L 275 525 
L 2438 3041 
L 353 3041 
L 353 3500 
z
" transform="scale(0.015625)"/>
       <path id="DejaVuSans-50" d="M 1259 4147 
L 1259 2394 
L 2053 2394 
Q 2494 2394 2734 2622 
Q 2975 2850 2975 3272 
Q 2975 3691 2734 3919 
Q 2494 4147 2053 4147 
L 1259 4147 
z
M 628 4666 
L 2053 4666 
Q 2838 4666 3239 4311 
Q 3641 3956 3641 3272 
Q 3641 2581 3239 2228 
Q 2838 1875 2053 1875 
L 1259 1875 
L 1259 0 
L 628 0 
L 628 4666 
z
" transform="scale(0.015625)"/>
       <path id="DejaVuSans-62" d="M 3116 1747 
Q 3116 2381 2855 2742 
Q 2594 3103 2138 3103 
Q 1681 3103 1420 2742 
Q 1159 2381 1159 1747 
Q 1159 1113 1420 752 
Q 1681 391 2138 391 
Q 2594 391 2855 752 
Q 3116 1113 3116 1747 
z
M 1159 2969 
Q 1341 3281 1617 3432 
Q 1894 3584 2278 3584 
Q 2916 3584 3314 3078 
Q 3713 2572 3713 1747 
Q 3713 922 3314 415 
Q 2916 -91 2278 -91 
Q 1894 -91 1617 61 
Q 1341 213 1159 525 
L 1159 0 
L 581 0 
L 581 4863 
L 1159 4863 
L 1159 2969 
z
" transform="scale(0.015625)"/>
      </defs>
      <use xlink:href="#DejaVuSans-4c"/>
      <use xlink:href="#DejaVuSans-65" transform="translate(53.962891 0)"/>
      <use xlink:href="#DejaVuSans-61" transform="translate(115.486328 0)"/>
      <use xlink:href="#DejaVuSans-6e" transform="translate(176.765625 0)"/>
      <use xlink:href="#DejaVuSans-20" transform="translate(240.144531 0)"/>
      <use xlink:href="#DejaVuSans-46" transform="translate(271.931641 0)"/>
      <use xlink:href="#DejaVuSans-6f" transform="translate(325.826172 0)"/>
      <use xlink:href="#DejaVuSans-72" transform="translate(387.007812 0)"/>
      <use xlink:href="#DejaVuSans-6d" transform="translate(426.371094 0)"/>
      <use xlink:href="#DejaVuSans-61" transform="translate(523.783203 0)"/>
      <use xlink:href="#DejaVuSans-6c" transform="translate(585.0625 0)"/>
      <use xlink:href="#DejaVuSans-69" transform="translate(612.845703 0)"/>
      <use xlink:href="#DejaVuSans-7a" transform="translate(640.628906 0)"/>
      <use xlink:href="#DejaVuSans-65" transform="translate(693.119141 0)"/>
      <use xlink:href="#DejaVuSans-64" transform="translate(754.642578 0)"/>
      <use xlink:href="#DejaVuSans-20" transform="translate(818.119141 0)"/>
      <use xlink:href="#DejaVuSans-50" transform="translate(849.90625 0)"/>
      <use xlink:href="#DejaVuSans-72" transform="translate(908.458984 0)"/>
      <use xlink:href="#DejaVuSans-6f" transform="translate(947.322266 0)"/>
      <use xlink:href="#DejaVuSans-62" transform="translate(1008.503906 0)"/>
      <use xlink:href="#DejaVuSans-6c" transform="translate(1071.980469 0)"/>
      <use xlink:href="#DejaVuSans-65" transform="translate(1099.763672 0)"/>
      <use xlink:href="#DejaVuSans-6d" transform="translate(1161.287109 0)"/>
     </g>
    </g>
    <g id="line2d_34">
     <path d="M 57.90125 80.8525 
L 67.90125 80.8525 
L 77.90125 80.8525 
" style="fill: none; stroke: #bf8700; stroke-width: 2; stroke-linecap: square"/>
    </g>
    <g id="text_24">
     <!-- Lean Formalized Solution -->
     <g style="fill: #24292f" transform="translate(85.90125 84.3525) scale(0.1 -0.1)">
      <use xlink:href="#DejaVuSans-4c"/>
      <use xlink:href="#DejaVuSans-65" transform="translate(53.962891 0)"/>
      <use xlink:href="#DejaVuSans-61" transform="translate(115.486328 0)"/>
      <use xlink:href="#DejaVuSans-6e" transform="translate(176.765625 0)"/>
      <use xlink:href="#DejaVuSans-20" transform="translate(240.144531 0)"/>
      <use xlink:href="#DejaVuSans-46" transform="translate(271.931641 0)"/>
      <use xlink:href="#DejaVuSans-6f" transform="translate(325.826172 0)"/>
      <use xlink:href="#DejaVuSans-72" transform="translate(387.007812 0)"/>
      <use xlink:href="#DejaVuSans-6d" transform="translate(426.371094 0)"/>
      <use xlink:href="#DejaVuSans-61" transform="translate(523.783203 0)"/>
      <use xlink:href="#DejaVuSans-6c" transform="translate(585.0625 0)"/>
      <use xlink:href="#DejaVuSans-69" transform="translate(612.845703 0)"/>
      <use xlink:href="#DejaVuSans-7a" transform="translate(640.628906 0)"/>
      <use xlink:href="#DejaVuSans-65" transform="translate(693.119141 0)"/>
      <use xlink:href="#DejaVuSans-64" transform="translate(754.642578 0)"/>
      <use xlink:href="#DejaVuSans-20" transform="translate(818.119141 0)"/>
      <use xlink:href="#DejaVuSans-53" transform="translate(849.90625 0)"/>
      <use xlink:href="#DejaVuSans-6f" transform="translate(913.382812 0)"/>
      <use xlink:href="#DejaVuSans-6c" transform="translate(974.564453 0)"/>
      <use xlink:href="#DejaVuSans-75" transform="translate(1002.347656 0)"/>
      <use xlink:href="#DejaVuSans-74" transform="translate(1065.726562 0)"/>
      <use xlink:href="#DejaVuSans-69" transform="translate(1104.935547 0)"/>
      <use xlink:href="#DejaVuSans-6f" transform="translate(1132.71875 0)"/>
      <use xlink:href="#DejaVuSans-6e" transform="translate(1193.900391 0)"/>
     </g>
    </g>
    <g id="line2d_35">
     <path d="M 57.90125 95.530625 
L 67.90125 95.530625 
L 77.90125 95.530625 
" style="fill: none; stroke: #cf222e; stroke-width: 2; stroke-linecap: square"/>
    </g>
    <g id="text_25">
     <!-- OEIS Linked -->
     <g style="fill: #24292f" transform="translate(85.90125 99.030625) scale(0.1 -0.1)">
      <defs>
       <path id="DejaVuSans-45" d="M 628 4666 
L 3578 4666 
L 3578 4134 
L 1259 4134 
L 1259 2753 
L 3481 2753 
L 3481 2222 
L 1259 2222 
L 1259 531 
L 3634 531 
L 3634 0 
L 628 0 
L 628 4666 
z
" transform="scale(0.015625)"/>
       <path id="DejaVuSans-49" d="M 628 4666 
L 1259 4666 
L 1259 0 
L 628 0 
L 628 4666 
z
" transform="scale(0.015625)"/>
       <path id="DejaVuSans-6b" d="M 581 4863 
L 1159 4863 
L 1159 1991 
L 2875 3500 
L 3609 3500 
L 1753 1863 
L 3688 0 
L 2938 0 
L 1159 1709 
L 1159 0 
L 581 0 
L 581 4863 
z
" transform="scale(0.015625)"/>
      </defs>
      <use xlink:href="#DejaVuSans-4f"/>
      <use xlink:href="#DejaVuSans-45" transform="translate(78.710938 0)"/>
      <use xlink:href="#DejaVuSans-49" transform="translate(141.894531 0)"/>
      <use xlink:href="#DejaVuSans-53" transform="translate(171.386719 0)"/>
      <use xlink:href="#DejaVuSans-20" transform="translate(234.863281 0)"/>
      <use xlink:href="#DejaVuSans-4c" transform="translate(266.650391 0)"/>
      <use xlink:href="#DejaVuSans-69" transform="translate(322.363281 0)"/>
      <use xlink:href="#DejaVuSans-6e" transform="translate(350.146484 0)"/>
      <use xlink:href="#DejaVuSans-6b" transform="translate(413.525391 0)"/>
      <use xlink:href="#DejaVuSans-65" transform="translate(467.810547 0)"/>
      <use xlink:href="#DejaVuSans-64" transform="translate(529.333984 0)"/>
     </g>
    </g>
    <g id="line2d_36">
     <path d="M 57.90125 110.20875 
L 67.90125 110.20875 
L 77.90125 110.20875 
" style="fill: none; stroke: #9467bd; stroke-width: 2; stroke-linecap: square"/>
    </g>
    <g id="text_26">
     <!-- Open Problems -->
     <g style="fill: #24292f" transform="translate(85.90125 113.70875) scale(0.1 -0.1)">
      <defs>
       <path id="DejaVuSans-73" d="M 2834 3397 
L 2834 2853 
Q 2591 2978 2328 3040 
Q 2066 3103 1784 3103 
Q 1356 3103 1142 2972 
Q 928 2841 928 2578 
Q 928 2378 1081 2264 
Q 1234 2150 1697 2047 
L 1894 2003 
Q 2506 1872 2764 1633 
Q 3022 1394 3022 966 
Q 3022 478 2636 193 
Q 2250 -91 1575 -91 
Q 1294 -91 989 -36 
Q 684 19 347 128 
L 347 722 
Q 666 556 975 473 
Q 1284 391 1588 391 
Q 1994 391 2212 530 
Q 2431 669 2431 922 
Q 2431 1156 2273 1281 
Q 2116 1406 1581 1522 
L 1381 1569 
Q 847 1681 609 1914 
Q 372 2147 372 2553 
Q 372 3047 722 3315 
Q 1072 3584 1716 3584 
Q 2034 3584 2315 3537 
Q 2597 3491 2834 3397 
z
" transform="scale(0.015625)"/>
      </defs>
      <use xlink:href="#DejaVuSans-4f"/>
      <use xlink:href="#DejaVuSans-70" transform="translate(78.710938 0)"/>
      <use xlink:href="#DejaVuSans-65" transform="translate(142.1875 0)"/>
      <use xlink:href="#DejaVuSans-6e" transform="translate(203.710938 0)"/>
      <use xlink:href="#DejaVuSans-20" transform="translate(267.089844 0)"/>
      <use xlink:href="#DejaVuSans-50" transform="translate(298.876953 0)"/>
      <use xlink:href="#DejaVuSans-72" transform="translate(357.429688 0)"/>
      <use xlink:href="#DejaVuSans-6f" transform="translate(396.292969 0)"/>
      <use xlink:href="#DejaVuSans-62" transform="translate(457.474609 0)"/>
      <use xlink:href="#DejaVuSans-6c" transform="translate(520.951172 0)"/>
      <use xlink:href="#DejaVuSans-65" transform="translate(548.734375 0)"/>
      <use xlink:href="#DejaVuSans-6d" transform="translate(610.257812 0)"/>
      <use xlink:href="#DejaVuSans-73" transform="translate(707.669922 0)"/>
     </g>
    </g>
   </g>
  </g>
 </g>
 <defs>
  <clipPath id="p23a958c197">
   <rect x="48.90125" y="38.397812" width="799.45" height="416.84"/>
  </clipPath>
 </defs>
</svg>
