<?xml version="1.0" encoding="utf-8" standalone="no"?>
<!DOCTYPE svg PUBLIC "-//W3C//DTD SVG 1.1//EN"
  "http://www.w3.org/Graphics/SVG/1.1/DTD/svg11.dtd">
<svg xmlns:xlink="http://www.w3.org/1999/xlink" width="855.55125pt" height="494.729687pt" viewBox="0 0 855.55125 494.729687" xmlns="http://www.w3.org/2000/svg" version="1.1">
 <metadata>
  <rdf:RDF xmlns:dc="http://purl.org/dc/elements/1.1/" xmlns:cc="http://creativecommons.org/ns#" xmlns:rdf="http://www.w3.org/1999/02/22-rdf-syntax-ns#">
   <cc:Work>
    <dc:type rdf:resource="http://purl.org/dc/dcmitype/StillImage"/>
    <dc:date>2026-05-23T21:39:09.021870</dc:date>
    <dc:format>image/svg+xml</dc:format>
    <dc:creator>
     <cc:Agent>
      <dc:title>Matplotlib v3.10.7, https://matplotlib.org/</dc:title>
     </cc:Agent>
    </dc:creator>
   </cc:Work>
  </rdf:RDF>
 </metadata>
 <defs>
  <style type="text/css">*{stroke-linejoin: round; stroke-linecap: butt}</style>
 </defs>
 <g id="figure_1">
  <g id="patch_1">
   <path d="M 0 494.729687 
L 855.55125 494.729687 
L 855.55125 0 
L 0 0 
z
" style="fill: #ffffff"/>
  </g>
  <g id="axes_1">
   <g id="patch_2">
    <path d="M 48.90125 455.237812 
L 848.35125 455.237812 
L 848.35125 38.397812 
L 48.90125 38.397812 
z
" style="fill: #ffffff"/>
   </g>
   <g id="matplotlib.axis_1">
    <g id="xtick_1">
     <g id="line2d_1">
      <path d="M 86.041046 455.237812 
L 86.041046 38.397812 
" clip-path="url(#p6d5e6310aa)" style="fill: none; stroke: #d0d7de; stroke-opacity: 0.25; stroke-width: 0.5; stroke-linecap: square"/>
     </g>
     <g id="line2d_2">
      <defs>
       <path id="mb348466fa1" d="M 0 0 
L 0 3.5 
" style="stroke: #24292f; stroke-width: 0.8"/>
      </defs>
      <g>
       <use xlink:href="#mb348466fa1" x="86.041046" y="455.237812" style="fill: #24292f; stroke: #24292f; stroke-width: 0.8"/>
      </g>
     </g>
     <g id="text_1">
      <!-- Sep -->
      <g style="fill: #24292f" transform="translate(76.616046 469.83625) scale(0.1 -0.1)">
       <defs>
        <path id="DejaVuSans-53" d="M 3425 4513 
L 3425 3897 
Q 3066 4069 2747 4153 
Q 2428 4238 2131 4238 
Q 1616 4238 1336 4038 
Q 1056 3838 1056 3469 
Q 1056 3159 1242 3001 
Q 1428 2844 1947 2747 
L 2328 2669 
Q 3034 2534 3370 2195 
Q 3706 1856 3706 1288 
Q 3706 609 3251 259 
Q 2797 -91 1919 -91 
Q 1588 -91 1214 -16 
Q 841 59 441 206 
L 441 856 
Q 825 641 1194 531 
Q 1563 422 1919 422 
Q 2459 422 2753 634 
Q 3047 847 3047 1241 
Q 3047 1584 2836 1778 
Q 2625 1972 2144 2069 
L 1759 2144 
Q 1053 2284 737 2584 
Q 422 2884 422 3419 
Q 422 4038 858 4394 
Q 1294 4750 2059 4750 
Q 2388 4750 2728 4690 
Q 3069 4631 3425 4513 
z
" transform="scale(0.015625)"/>
        <path id="DejaVuSans-65" d="M 3597 1894 
L 3597 1613 
L 953 1613 
Q 991 1019 1311 708 
Q 1631 397 2203 397 
Q 2534 397 2845 478 
Q 3156 559 3463 722 
L 3463 178 
Q 3153 47 2828 -22 
Q 2503 -91 2169 -91 
Q 1331 -91 842 396 
Q 353 884 353 1716 
Q 353 2575 817 3079 
Q 1281 3584 2069 3584 
Q 2775 3584 3186 3129 
Q 3597 2675 3597 1894 
z
M 3022 2063 
Q 3016 2534 2758 2815 
Q 2500 3097 2075 3097 
Q 1594 3097 1305 2825 
Q 1016 2553 972 2059 
L 3022 2063 
z
" transform="scale(0.015625)"/>
        <path id="DejaVuSans-70" d="M 1159 525 
L 1159 -1331 
L 581 -1331 
L 581 3500 
L 1159 3500 
L 1159 2969 
Q 1341 3281 1617 3432 
Q 1894 3584 2278 3584 
Q 2916 3584 3314 3078 
Q 3713 2572 3713 1747 
Q 3713 922 3314 415 
Q 2916 -91 2278 -91 
Q 1894 -91 1617 61 
Q 1341 213 1159 525 
z
M 3116 1747 
Q 3116 2381 2855 2742 
Q 2594 3103 2138 3103 
Q 1681 3103 1420 2742 
Q 1159 2381 1159 1747 
Q 1159 1113 1420 752 
Q 1681 391 2138 391 
Q 2594 391 2855 752 
Q 3116 1113 3116 1747 
z
" transform="scale(0.015625)"/>
       </defs>
       <use xlink:href="#DejaVuSans-53"/>
       <use xlink:href="#DejaVuSans-65" transform="translate(63.476562 0)"/>
       <use xlink:href="#DejaVuSans-70" transform="translate(125 0)"/>
      </g>
     </g>
    </g>
    <g id="xtick_2">
     <g id="line2d_3">
      <path d="M 168.256857 455.237812 
L 168.256857 38.397812 
" clip-path="url(#p6d5e6310aa)" style="fill: none; stroke: #d0d7de; stroke-opacity: 0.25; stroke-width: 0.5; stroke-linecap: square"/>
     </g>
     <g id="line2d_4">
      <g>
       <use xlink:href="#mb348466fa1" x="168.256857" y="455.237812" style="fill: #24292f; stroke: #24292f; stroke-width: 0.8"/>
      </g>
     </g>
     <g id="text_2">
      <!-- Oct -->
      <g style="fill: #24292f" transform="translate(159.611544 469.83625) scale(0.1 -0.1)">
       <defs>
        <path id="DejaVuSans-4f" d="M 2522 4238 
Q 1834 4238 1429 3725 
Q 1025 3213 1025 2328 
Q 1025 1447 1429 934 
Q 1834 422 2522 422 
Q 3209 422 3611 934 
Q 4013 1447 4013 2328 
Q 4013 3213 3611 3725 
Q 3209 4238 2522 4238 
z
M 2522 4750 
Q 3503 4750 4090 4092 
Q 4678 3434 4678 2328 
Q 4678 1225 4090 567 
Q 3503 -91 2522 -91 
Q 1538 -91 948 565 
Q 359 1222 359 2328 
Q 359 3434 948 4092 
Q 1538 4750 2522 4750 
z
" transform="scale(0.015625)"/>
        <path id="DejaVuSans-63" d="M 3122 3366 
L 3122 2828 
Q 2878 2963 2633 3030 
Q 2388 3097 2138 3097 
Q 1578 3097 1268 2742 
Q 959 2388 959 1747 
Q 959 1106 1268 751 
Q 1578 397 2138 397 
Q 2388 397 2633 464 
Q 2878 531 3122 666 
L 3122 134 
Q 2881 22 2623 -34 
Q 2366 -91 2075 -91 
Q 1284 -91 818 406 
Q 353 903 353 1747 
Q 353 2603 823 3093 
Q 1294 3584 2113 3584 
Q 2378 3584 2631 3529 
Q 2884 3475 3122 3366 
z
" transform="scale(0.015625)"/>
        <path id="DejaVuSans-74" d="M 1172 4494 
L 1172 3500 
L 2356 3500 
L 2356 3053 
L 1172 3053 
L 1172 1153 
Q 1172 725 1289 603 
Q 1406 481 1766 481 
L 2356 481 
L 2356 0 
L 1766 0 
Q 1100 0 847 248 
Q 594 497 594 1153 
L 594 3053 
L 172 3053 
L 172 3500 
L 594 3500 
L 594 4494 
L 1172 4494 
z
" transform="scale(0.015625)"/>
       </defs>
       <use xlink:href="#DejaVuSans-4f"/>
       <use xlink:href="#DejaVuSans-63" transform="translate(78.710938 0)"/>
       <use xlink:href="#DejaVuSans-74" transform="translate(133.691406 0)"/>
      </g>
     </g>
    </g>
    <g id="xtick_3">
     <g id="line2d_5">
      <path d="M 253.213194 455.237812 
L 253.213194 38.397812 
" clip-path="url(#p6d5e6310aa)" style="fill: none; stroke: #d0d7de; stroke-opacity: 0.25; stroke-width: 0.5; stroke-linecap: square"/>
     </g>
     <g id="line2d_6">
      <g>
       <use xlink:href="#mb348466fa1" x="253.213194" y="455.237812" style="fill: #24292f; stroke: #24292f; stroke-width: 0.8"/>
      </g>
     </g>
     <g id="text_3">
      <!-- Nov -->
      <g style="fill: #24292f" transform="translate(243.453819 469.83625) scale(0.1 -0.1)">
       <defs>
        <path id="DejaVuSans-4e" d="M 628 4666 
L 1478 4666 
L 3547 763 
L 3547 4666 
L 4159 4666 
L 4159 0 
L 3309 0 
L 1241 3903 
L 1241 0 
L 628 0 
L 628 4666 
z
" transform="scale(0.015625)"/>
        <path id="DejaVuSans-6f" d="M 1959 3097 
Q 1497 3097 1228 2736 
Q 959 2375 959 1747 
Q 959 1119 1226 758 
Q 1494 397 1959 397 
Q 2419 397 2687 759 
Q 2956 1122 2956 1747 
Q 2956 2369 2687 2733 
Q 2419 3097 1959 3097 
z
M 1959 3584 
Q 2709 3584 3137 3096 
Q 3566 2609 3566 1747 
Q 3566 888 3137 398 
Q 2709 -91 1959 -91 
Q 1206 -91 779 398 
Q 353 888 353 1747 
Q 353 2609 779 3096 
Q 1206 3584 1959 3584 
z
" transform="scale(0.015625)"/>
        <path id="DejaVuSans-76" d="M 191 3500 
L 800 3500 
L 1894 563 
L 2988 3500 
L 3597 3500 
L 2284 0 
L 1503 0 
L 191 3500 
z
" transform="scale(0.015625)"/>
       </defs>
       <use xlink:href="#DejaVuSans-4e"/>
       <use xlink:href="#DejaVuSans-6f" transform="translate(74.804688 0)"/>
       <use xlink:href="#DejaVuSans-76" transform="translate(135.986328 0)"/>
      </g>
     </g>
    </g>
    <g id="xtick_4">
     <g id="line2d_7">
      <path d="M 335.429004 455.237812 
L 335.429004 38.397812 
" clip-path="url(#p6d5e6310aa)" style="fill: none; stroke: #d0d7de; stroke-opacity: 0.25; stroke-width: 0.5; stroke-linecap: square"/>
     </g>
     <g id="line2d_8">
      <g>
       <use xlink:href="#mb348466fa1" x="335.429004" y="455.237812" style="fill: #24292f; stroke: #24292f; stroke-width: 0.8"/>
      </g>
     </g>
     <g id="text_4">
      <!-- Dec -->
      <g style="fill: #24292f" transform="translate(325.753223 469.83625) scale(0.1 -0.1)">
       <defs>
        <path id="DejaVuSans-44" d="M 1259 4147 
L 1259 519 
L 2022 519 
Q 2988 519 3436 956 
Q 3884 1394 3884 2338 
Q 3884 3275 3436 3711 
Q 2988 4147 2022 4147 
L 1259 4147 
z
M 628 4666 
L 1925 4666 
Q 3281 4666 3915 4102 
Q 4550 3538 4550 2338 
Q 4550 1131 3912 565 
Q 3275 0 1925 0 
L 628 0 
L 628 4666 
z
" transform="scale(0.015625)"/>
       </defs>
       <use xlink:href="#DejaVuSans-44"/>
       <use xlink:href="#DejaVuSans-65" transform="translate(77.001953 0)"/>
       <use xlink:href="#DejaVuSans-63" transform="translate(138.525391 0)"/>
      </g>
     </g>
    </g>
    <g id="xtick_5">
     <g id="line2d_9">
      <path d="M 420.385341 455.237812 
L 420.385341 38.397812 
" clip-path="url(#p6d5e6310aa)" style="fill: none; stroke: #d0d7de; stroke-opacity: 0.25; stroke-width: 0.5; stroke-linecap: square"/>
     </g>
     <g id="line2d_10">
      <g>
       <use xlink:href="#mb348466fa1" x="420.385341" y="455.237812" style="fill: #24292f; stroke: #24292f; stroke-width: 0.8"/>
      </g>
     </g>
     <g id="text_5">
      <!-- 2026 -->
      <g style="fill: #24292f" transform="translate(407.660341 469.83625) scale(0.1 -0.1)">
       <defs>
        <path id="DejaVuSans-32" d="M 1228 531 
L 3431 531 
L 3431 0 
L 469 0 
L 469 531 
Q 828 903 1448 1529 
Q 2069 2156 2228 2338 
Q 2531 2678 2651 2914 
Q 2772 3150 2772 3378 
Q 2772 3750 2511 3984 
Q 2250 4219 1831 4219 
Q 1534 4219 1204 4116 
Q 875 4013 500 3803 
L 500 4441 
Q 881 4594 1212 4672 
Q 1544 4750 1819 4750 
Q 2544 4750 2975 4387 
Q 3406 4025 3406 3419 
Q 3406 3131 3298 2873 
Q 3191 2616 2906 2266 
Q 2828 2175 2409 1742 
Q 1991 1309 1228 531 
z
" transform="scale(0.015625)"/>
        <path id="DejaVuSans-30" d="M 2034 4250 
Q 1547 4250 1301 3770 
Q 1056 3291 1056 2328 
Q 1056 1369 1301 889 
Q 1547 409 2034 409 
Q 2525 409 2770 889 
Q 3016 1369 3016 2328 
Q 3016 3291 2770 3770 
Q 2525 4250 2034 4250 
z
M 2034 4750 
Q 2819 4750 3233 4129 
Q 3647 3509 3647 2328 
Q 3647 1150 3233 529 
Q 2819 -91 2034 -91 
Q 1250 -91 836 529 
Q 422 1150 422 2328 
Q 422 3509 836 4129 
Q 1250 4750 2034 4750 
z
" transform="scale(0.015625)"/>
        <path id="DejaVuSans-36" d="M 2113 2584 
Q 1688 2584 1439 2293 
Q 1191 2003 1191 1497 
Q 1191 994 1439 701 
Q 1688 409 2113 409 
Q 2538 409 2786 701 
Q 3034 994 3034 1497 
Q 3034 2003 2786 2293 
Q 2538 2584 2113 2584 
z
M 3366 4563 
L 3366 3988 
Q 3128 4100 2886 4159 
Q 2644 4219 2406 4219 
Q 1781 4219 1451 3797 
Q 1122 3375 1075 2522 
Q 1259 2794 1537 2939 
Q 1816 3084 2150 3084 
Q 2853 3084 3261 2657 
Q 3669 2231 3669 1497 
Q 3669 778 3244 343 
Q 2819 -91 2113 -91 
Q 1303 -91 875 529 
Q 447 1150 447 2328 
Q 447 3434 972 4092 
Q 1497 4750 2381 4750 
Q 2619 4750 2861 4703 
Q 3103 4656 3366 4563 
z
" transform="scale(0.015625)"/>
       </defs>
       <use xlink:href="#DejaVuSans-32"/>
       <use xlink:href="#DejaVuSans-30" transform="translate(63.623047 0)"/>
       <use xlink:href="#DejaVuSans-32" transform="translate(127.246094 0)"/>
       <use xlink:href="#DejaVuSans-36" transform="translate(190.869141 0)"/>
      </g>
     </g>
    </g>
    <g id="xtick_6">
     <g id="line2d_11">
      <path d="M 505.341678 455.237812 
L 505.341678 38.397812 
" clip-path="url(#p6d5e6310aa)" style="fill: none; stroke: #d0d7de; stroke-opacity: 0.25; stroke-width: 0.5; stroke-linecap: square"/>
     </g>
     <g id="line2d_12">
      <g>
       <use xlink:href="#mb348466fa1" x="505.341678" y="455.237812" style="fill: #24292f; stroke: #24292f; stroke-width: 0.8"/>
      </g>
     </g>
     <g id="text_6">
      <!-- Feb -->
      <g style="fill: #24292f" transform="translate(496.490116 469.83625) scale(0.1 -0.1)">
       <defs>
        <path id="DejaVuSans-46" d="M 628 4666 
L 3309 4666 
L 3309 4134 
L 1259 4134 
L 1259 2759 
L 3109 2759 
L 3109 2228 
L 1259 2228 
L 1259 0 
L 628 0 
L 628 4666 
z
" transform="scale(0.015625)"/>
        <path id="DejaVuSans-62" d="M 3116 1747 
Q 3116 2381 2855 2742 
Q 2594 3103 2138 3103 
Q 1681 3103 1420 2742 
Q 1159 2381 1159 1747 
Q 1159 1113 1420 752 
Q 1681 391 2138 391 
Q 2594 391 2855 752 
Q 3116 1113 3116 1747 
z
M 1159 2969 
Q 1341 3281 1617 3432 
Q 1894 3584 2278 3584 
Q 2916 3584 3314 3078 
Q 3713 2572 3713 1747 
Q 3713 922 3314 415 
Q 2916 -91 2278 -91 
Q 1894 -91 1617 61 
Q 1341 213 1159 525 
L 1159 0 
L 581 0 
L 581 4863 
L 1159 4863 
L 1159 2969 
z
" transform="scale(0.015625)"/>
       </defs>
       <use xlink:href="#DejaVuSans-46"/>
       <use xlink:href="#DejaVuSans-65" transform="translate(52.019531 0)"/>
       <use xlink:href="#DejaVuSans-62" transform="translate(113.542969 0)"/>
      </g>
     </g>
    </g>
    <g id="xtick_7">
     <g id="line2d_13">
      <path d="M 582.076435 455.237812 
L 582.076435 38.397812 
" clip-path="url(#p6d5e6310aa)" style="fill: none; stroke: #d0d7de; stroke-opacity: 0.25; stroke-width: 0.5; stroke-linecap: square"/>
     </g>
     <g id="line2d_14">
      <g>
       <use xlink:href="#mb348466fa1" x="582.076435" y="455.237812" style="fill: #24292f; stroke: #24292f; stroke-width: 0.8"/>
      </g>
     </g>
     <g id="text_7">
      <!-- Mar -->
      <g style="fill: #24292f" transform="translate(572.642841 469.83625) scale(0.1 -0.1)">
       <defs>
        <path id="DejaVuSans-4d" d="M 628 4666 
L 1569 4666 
L 2759 1491 
L 3956 4666 
L 4897 4666 
L 4897 0 
L 4281 0 
L 4281 4097 
L 3078 897 
L 2444 897 
L 1241 4097 
L 1241 0 
L 628 0 
L 628 4666 
z
" transform="scale(0.015625)"/>
        <path id="DejaVuSans-61" d="M 2194 1759 
Q 1497 1759 1228 1600 
Q 959 1441 959 1056 
Q 959 750 1161 570 
Q 1363 391 1709 391 
Q 2188 391 2477 730 
Q 2766 1069 2766 1631 
L 2766 1759 
L 2194 1759 
z
M 3341 1997 
L 3341 0 
L 2766 0 
L 2766 531 
Q 2569 213 2275 61 
Q 1981 -91 1556 -91 
Q 1019 -91 701 211 
Q 384 513 384 1019 
Q 384 1609 779 1909 
Q 1175 2209 1959 2209 
L 2766 2209 
L 2766 2266 
Q 2766 2663 2505 2880 
Q 2244 3097 1772 3097 
Q 1472 3097 1187 3025 
Q 903 2953 641 2809 
L 641 3341 
Q 956 3463 1253 3523 
Q 1550 3584 1831 3584 
Q 2591 3584 2966 3190 
Q 3341 2797 3341 1997 
z
" transform="scale(0.015625)"/>
        <path id="DejaVuSans-72" d="M 2631 2963 
Q 2534 3019 2420 3045 
Q 2306 3072 2169 3072 
Q 1681 3072 1420 2755 
Q 1159 2438 1159 1844 
L 1159 0 
L 581 0 
L 581 3500 
L 1159 3500 
L 1159 2956 
Q 1341 3275 1631 3429 
Q 1922 3584 2338 3584 
Q 2397 3584 2469 3576 
Q 2541 3569 2628 3553 
L 2631 2963 
z
" transform="scale(0.015625)"/>
       </defs>
       <use xlink:href="#DejaVuSans-4d"/>
       <use xlink:href="#DejaVuSans-61" transform="translate(86.279297 0)"/>
       <use xlink:href="#DejaVuSans-72" transform="translate(147.558594 0)"/>
      </g>
     </g>
    </g>
    <g id="xtick_8">
     <g id="line2d_15">
      <path d="M 667.032772 455.237812 
L 667.032772 38.397812 
" clip-path="url(#p6d5e6310aa)" style="fill: none; stroke: #d0d7de; stroke-opacity: 0.25; stroke-width: 0.5; stroke-linecap: square"/>
     </g>
     <g id="line2d_16">
      <g>
       <use xlink:href="#mb348466fa1" x="667.032772" y="455.237812" style="fill: #24292f; stroke: #24292f; stroke-width: 0.8"/>
      </g>
     </g>
     <g id="text_8">
      <!-- Apr -->
      <g style="fill: #24292f" transform="translate(658.382772 469.83625) scale(0.1 -0.1)">
       <defs>
        <path id="DejaVuSans-41" d="M 2188 4044 
L 1331 1722 
L 3047 1722 
L 2188 4044 
z
M 1831 4666 
L 2547 4666 
L 4325 0 
L 3669 0 
L 3244 1197 
L 1141 1197 
L 716 0 
L 50 0 
L 1831 4666 
z
" transform="scale(0.015625)"/>
       </defs>
       <use xlink:href="#DejaVuSans-41"/>
       <use xlink:href="#DejaVuSans-70" transform="translate(68.408203 0)"/>
       <use xlink:href="#DejaVuSans-72" transform="translate(131.884766 0)"/>
      </g>
     </g>
    </g>
    <g id="xtick_9">
     <g id="line2d_17">
      <path d="M 749.248582 455.237812 
L 749.248582 38.397812 
" clip-path="url(#p6d5e6310aa)" style="fill: none; stroke: #d0d7de; stroke-opacity: 0.25; stroke-width: 0.5; stroke-linecap: square"/>
     </g>
     <g id="line2d_18">
      <g>
       <use xlink:href="#mb348466fa1" x="749.248582" y="455.237812" style="fill: #24292f; stroke: #24292f; stroke-width: 0.8"/>
      </g>
     </g>
     <g id="text_9">
      <!-- May -->
      <g style="fill: #24292f" transform="translate(738.911082 469.83625) scale(0.1 -0.1)">
       <defs>
        <path id="DejaVuSans-79" d="M 2059 -325 
Q 1816 -950 1584 -1140 
Q 1353 -1331 966 -1331 
L 506 -1331 
L 506 -850 
L 844 -850 
Q 1081 -850 1212 -737 
Q 1344 -625 1503 -206 
L 1606 56 
L 191 3500 
L 800 3500 
L 1894 763 
L 2988 3500 
L 3597 3500 
L 2059 -325 
z
" transform="scale(0.015625)"/>
       </defs>
       <use xlink:href="#DejaVuSans-4d"/>
       <use xlink:href="#DejaVuSans-61" transform="translate(86.279297 0)"/>
       <use xlink:href="#DejaVuSans-79" transform="translate(147.558594 0)"/>
      </g>
     </g>
    </g>
    <g id="xtick_10">
     <g id="line2d_19">
      <path d="M 834.204919 455.237812 
L 834.204919 38.397812 
" clip-path="url(#p6d5e6310aa)" style="fill: none; stroke: #d0d7de; stroke-opacity: 0.25; stroke-width: 0.5; stroke-linecap: square"/>
     </g>
     <g id="line2d_20">
      <g>
       <use xlink:href="#mb348466fa1" x="834.204919" y="455.237812" style="fill: #24292f; stroke: #24292f; stroke-width: 0.8"/>
      </g>
     </g>
     <g id="text_10">
      <!-- Jun -->
      <g style="fill: #24292f" transform="translate(826.392419 469.83625) scale(0.1 -0.1)">
       <defs>
        <path id="DejaVuSans-4a" d="M 628 4666 
L 1259 4666 
L 1259 325 
Q 1259 -519 939 -900 
Q 619 -1281 -91 -1281 
L -331 -1281 
L -331 -750 
L -134 -750 
Q 284 -750 456 -515 
Q 628 -281 628 325 
L 628 4666 
z
" transform="scale(0.015625)"/>
        <path id="DejaVuSans-75" d="M 544 1381 
L 544 3500 
L 1119 3500 
L 1119 1403 
Q 1119 906 1312 657 
Q 1506 409 1894 409 
Q 2359 409 2629 706 
Q 2900 1003 2900 1516 
L 2900 3500 
L 3475 3500 
L 3475 0 
L 2900 0 
L 2900 538 
Q 2691 219 2414 64 
Q 2138 -91 1772 -91 
Q 1169 -91 856 284 
Q 544 659 544 1381 
z
M 1991 3584 
L 1991 3584 
z
" transform="scale(0.015625)"/>
        <path id="DejaVuSans-6e" d="M 3513 2113 
L 3513 0 
L 2938 0 
L 2938 2094 
Q 2938 2591 2744 2837 
Q 2550 3084 2163 3084 
Q 1697 3084 1428 2787 
Q 1159 2491 1159 1978 
L 1159 0 
L 581 0 
L 581 3500 
L 1159 3500 
L 1159 2956 
Q 1366 3272 1645 3428 
Q 1925 3584 2291 3584 
Q 2894 3584 3203 3211 
Q 3513 2838 3513 2113 
z
" transform="scale(0.015625)"/>
       </defs>
       <use xlink:href="#DejaVuSans-4a"/>
       <use xlink:href="#DejaVuSans-75" transform="translate(29.492188 0)"/>
       <use xlink:href="#DejaVuSans-6e" transform="translate(92.871094 0)"/>
      </g>
     </g>
    </g>
    <g id="text_11">
     <!-- Date -->
     <g style="fill: #24292f" transform="translate(434.285312 485.034062) scale(0.12 -0.12)">
      <use xlink:href="#DejaVuSans-44"/>
      <use xlink:href="#DejaVuSans-61" transform="translate(77.001953 0)"/>
      <use xlink:href="#DejaVuSans-74" transform="translate(138.28125 0)"/>
      <use xlink:href="#DejaVuSans-65" transform="translate(177.490234 0)"/>
     </g>
    </g>
   </g>
   <g id="matplotlib.axis_2">
    <g id="ytick_1">
     <g id="line2d_21">
      <path d="M 48.90125 455.237812 
L 848.35125 455.237812 
" clip-path="url(#p6d5e6310aa)" style="fill: none; stroke: #d0d7de; stroke-opacity: 0.25; stroke-width: 0.5; stroke-linecap: square"/>
     </g>
     <g id="line2d_22">
      <defs>
       <path id="m7873f3d172" d="M 0 0 
L -3.5 0 
" style="stroke: #24292f; stroke-width: 0.8"/>
      </defs>
      <g>
       <use xlink:href="#m7873f3d172" x="48.90125" y="455.237812" style="fill: #24292f; stroke: #24292f; stroke-width: 0.8"/>
      </g>
     </g>
     <g id="text_12">
      <!-- 0 -->
      <g style="fill: #24292f" transform="translate(35.53875 459.037031) scale(0.1 -0.1)">
       <use xlink:href="#DejaVuSans-30"/>
      </g>
     </g>
    </g>
    <g id="ytick_2">
     <g id="line2d_23">
      <path d="M 48.90125 399.659146 
L 848.35125 399.659146 
" clip-path="url(#p6d5e6310aa)" style="fill: none; stroke: #d0d7de; stroke-opacity: 0.25; stroke-width: 0.5; stroke-linecap: square"/>
     </g>
     <g id="line2d_24">
      <g>
       <use xlink:href="#m7873f3d172" x="48.90125" y="399.659146" style="fill: #24292f; stroke: #24292f; stroke-width: 0.8"/>
      </g>
     </g>
     <g id="text_13">
      <!-- 100 -->
      <g style="fill: #24292f" transform="translate(22.81375 403.458365) scale(0.1 -0.1)">
       <defs>
        <path id="DejaVuSans-31" d="M 794 531 
L 1825 531 
L 1825 4091 
L 703 3866 
L 703 4441 
L 1819 4666 
L 2450 4666 
L 2450 531 
L 3481 531 
L 3481 0 
L 794 0 
L 794 531 
z
" transform="scale(0.015625)"/>
       </defs>
       <use xlink:href="#DejaVuSans-31"/>
       <use xlink:href="#DejaVuSans-30" transform="translate(63.623047 0)"/>
       <use xlink:href="#DejaVuSans-30" transform="translate(127.246094 0)"/>
      </g>
     </g>
    </g>
    <g id="ytick_3">
     <g id="line2d_25">
      <path d="M 48.90125 344.080479 
L 848.35125 344.080479 
" clip-path="url(#p6d5e6310aa)" style="fill: none; stroke: #d0d7de; stroke-opacity: 0.25; stroke-width: 0.5; stroke-linecap: square"/>
     </g>
     <g id="line2d_26">
      <g>
       <use xlink:href="#m7873f3d172" x="48.90125" y="344.080479" style="fill: #24292f; stroke: #24292f; stroke-width: 0.8"/>
      </g>
     </g>
     <g id="text_14">
      <!-- 200 -->
      <g style="fill: #24292f" transform="translate(22.81375 347.879698) scale(0.1 -0.1)">
       <use xlink:href="#DejaVuSans-32"/>
       <use xlink:href="#DejaVuSans-30" transform="translate(63.623047 0)"/>
       <use xlink:href="#DejaVuSans-30" transform="translate(127.246094 0)"/>
      </g>
     </g>
    </g>
    <g id="ytick_4">
     <g id="line2d_27">
      <path d="M 48.90125 288.501812 
L 848.35125 288.501812 
" clip-path="url(#p6d5e6310aa)" style="fill: none; stroke: #d0d7de; stroke-opacity: 0.25; stroke-width: 0.5; stroke-linecap: square"/>
     </g>
     <g id="line2d_28">
      <g>
       <use xlink:href="#m7873f3d172" x="48.90125" y="288.501812" style="fill: #24292f; stroke: #24292f; stroke-width: 0.8"/>
      </g>
     </g>
     <g id="text_15">
      <!-- 300 -->
      <g style="fill: #24292f" transform="translate(22.81375 292.301031) scale(0.1 -0.1)">
       <defs>
        <path id="DejaVuSans-33" d="M 2597 2516 
Q 3050 2419 3304 2112 
Q 3559 1806 3559 1356 
Q 3559 666 3084 287 
Q 2609 -91 1734 -91 
Q 1441 -91 1130 -33 
Q 819 25 488 141 
L 488 750 
Q 750 597 1062 519 
Q 1375 441 1716 441 
Q 2309 441 2620 675 
Q 2931 909 2931 1356 
Q 2931 1769 2642 2001 
Q 2353 2234 1838 2234 
L 1294 2234 
L 1294 2753 
L 1863 2753 
Q 2328 2753 2575 2939 
Q 2822 3125 2822 3475 
Q 2822 3834 2567 4026 
Q 2313 4219 1838 4219 
Q 1578 4219 1281 4162 
Q 984 4106 628 3988 
L 628 4550 
Q 988 4650 1302 4700 
Q 1616 4750 1894 4750 
Q 2613 4750 3031 4423 
Q 3450 4097 3450 3541 
Q 3450 3153 3228 2886 
Q 3006 2619 2597 2516 
z
" transform="scale(0.015625)"/>
       </defs>
       <use xlink:href="#DejaVuSans-33"/>
       <use xlink:href="#DejaVuSans-30" transform="translate(63.623047 0)"/>
       <use xlink:href="#DejaVuSans-30" transform="translate(127.246094 0)"/>
      </g>
     </g>
    </g>
    <g id="ytick_5">
     <g id="line2d_29">
      <path d="M 48.90125 232.923146 
L 848.35125 232.923146 
" clip-path="url(#p6d5e6310aa)" style="fill: none; stroke: #d0d7de; stroke-opacity: 0.25; stroke-width: 0.5; stroke-linecap: square"/>
     </g>
     <g id="line2d_30">
      <g>
       <use xlink:href="#m7873f3d172" x="48.90125" y="232.923146" style="fill: #24292f; stroke: #24292f; stroke-width: 0.8"/>
      </g>
     </g>
     <g id="text_16">
      <!-- 400 -->
      <g style="fill: #24292f" transform="translate(22.81375 236.722365) scale(0.1 -0.1)">
       <defs>
        <path id="DejaVuSans-34" d="M 2419 4116 
L 825 1625 
L 2419 1625 
L 2419 4116 
z
M 2253 4666 
L 3047 4666 
L 3047 1625 
L 3713 1625 
L 3713 1100 
L 3047 1100 
L 3047 0 
L 2419 0 
L 2419 1100 
L 313 1100 
L 313 1709 
L 2253 4666 
z
" transform="scale(0.015625)"/>
       </defs>
       <use xlink:href="#DejaVuSans-34"/>
       <use xlink:href="#DejaVuSans-30" transform="translate(63.623047 0)"/>
       <use xlink:href="#DejaVuSans-30" transform="translate(127.246094 0)"/>
      </g>
     </g>
    </g>
    <g id="ytick_6">
     <g id="line2d_31">
      <path d="M 48.90125 177.344479 
L 848.35125 177.344479 
" clip-path="url(#p6d5e6310aa)" style="fill: none; stroke: #d0d7de; stroke-opacity: 0.25; stroke-width: 0.5; stroke-linecap: square"/>
     </g>
     <g id="line2d_32">
      <g>
       <use xlink:href="#m7873f3d172" x="48.90125" y="177.344479" style="fill: #24292f; stroke: #24292f; stroke-width: 0.8"/>
      </g>
     </g>
     <g id="text_17">
      <!-- 500 -->
      <g style="fill: #24292f" transform="translate(22.81375 181.143698) scale(0.1 -0.1)">
       <defs>
        <path id="DejaVuSans-35" d="M 691 4666 
L 3169 4666 
L 3169 4134 
L 1269 4134 
L 1269 2991 
Q 1406 3038 1543 3061 
Q 1681 3084 1819 3084 
Q 2600 3084 3056 2656 
Q 3513 2228 3513 1497 
Q 3513 744 3044 326 
Q 2575 -91 1722 -91 
Q 1428 -91 1123 -41 
Q 819 9 494 109 
L 494 744 
Q 775 591 1075 516 
Q 1375 441 1709 441 
Q 2250 441 2565 725 
Q 2881 1009 2881 1497 
Q 2881 1984 2565 2268 
Q 2250 2553 1709 2553 
Q 1456 2553 1204 2497 
Q 953 2441 691 2322 
L 691 4666 
z
" transform="scale(0.015625)"/>
       </defs>
       <use xlink:href="#DejaVuSans-35"/>
       <use xlink:href="#DejaVuSans-30" transform="translate(63.623047 0)"/>
       <use xlink:href="#DejaVuSans-30" transform="translate(127.246094 0)"/>
      </g>
     </g>
    </g>
    <g id="ytick_7">
     <g id="line2d_33">
      <path d="M 48.90125 121.765812 
L 848.35125 121.765812 
" clip-path="url(#p6d5e6310aa)" style="fill: none; stroke: #d0d7de; stroke-opacity: 0.25; stroke-width: 0.5; stroke-linecap: square"/>
     </g>
     <g id="line2d_34">
      <g>
       <use xlink:href="#m7873f3d172" x="48.90125" y="121.765812" style="fill: #24292f; stroke: #24292f; stroke-width: 0.8"/>
      </g>
     </g>
     <g id="text_18">
      <!-- 600 -->
      <g style="fill: #24292f" transform="translate(22.81375 125.565031) scale(0.1 -0.1)">
       <use xlink:href="#DejaVuSans-36"/>
       <use xlink:href="#DejaVuSans-30" transform="translate(63.623047 0)"/>
       <use xlink:href="#DejaVuSans-30" transform="translate(127.246094 0)"/>
      </g>
     </g>
    </g>
    <g id="ytick_8">
     <g id="line2d_35">
      <path d="M 48.90125 66.187146 
L 848.35125 66.187146 
" clip-path="url(#p6d5e6310aa)" style="fill: none; stroke: #d0d7de; stroke-opacity: 0.25; stroke-width: 0.5; stroke-linecap: square"/>
     </g>
     <g id="line2d_36">
      <g>
       <use xlink:href="#m7873f3d172" x="48.90125" y="66.187146" style="fill: #24292f; stroke: #24292f; stroke-width: 0.8"/>
      </g>
     </g>
     <g id="text_19">
      <!-- 700 -->
      <g style="fill: #24292f" transform="translate(22.81375 69.986365) scale(0.1 -0.1)">
       <defs>
        <path id="DejaVuSans-37" d="M 525 4666 
L 3525 4666 
L 3525 4397 
L 1831 0 
L 1172 0 
L 2766 4134 
L 525 4134 
L 525 4666 
z
" transform="scale(0.015625)"/>
       </defs>
       <use xlink:href="#DejaVuSans-37"/>
       <use xlink:href="#DejaVuSans-30" transform="translate(63.623047 0)"/>
       <use xlink:href="#DejaVuSans-30" transform="translate(127.246094 0)"/>
      </g>
     </g>
    </g>
    <g id="text_20">
     <!-- Count -->
     <g style="fill: #24292f" transform="translate(16.318125 264.635937) rotate(-90) scale(0.12 -0.12)">
      <defs>
       <path id="DejaVuSans-43" d="M 4122 4306 
L 4122 3641 
Q 3803 3938 3442 4084 
Q 3081 4231 2675 4231 
Q 1875 4231 1450 3742 
Q 1025 3253 1025 2328 
Q 1025 1406 1450 917 
Q 1875 428 2675 428 
Q 3081 428 3442 575 
Q 3803 722 4122 1019 
L 4122 359 
Q 3791 134 3420 21 
Q 3050 -91 2638 -91 
Q 1578 -91 968 557 
Q 359 1206 359 2328 
Q 359 3453 968 4101 
Q 1578 4750 2638 4750 
Q 3056 4750 3426 4639 
Q 3797 4528 4122 4306 
z
" transform="scale(0.015625)"/>
      </defs>
      <use xlink:href="#DejaVuSans-43"/>
      <use xlink:href="#DejaVuSans-6f" transform="translate(69.824219 0)"/>
      <use xlink:href="#DejaVuSans-75" transform="translate(131.005859 0)"/>
      <use xlink:href="#DejaVuSans-6e" transform="translate(194.384766 0)"/>
      <use xlink:href="#DejaVuSans-74" transform="translate(257.763672 0)"/>
     </g>
    </g>
   </g>
   <g id="line2d_37">
    <path d="M 85.239886 454.682026 
L 85.292381 454.682026 
L 85.419036 454.126239 
L 85.490404 454.126239 
L 85.665905 257.933546 
L 87.873584 257.933546 
L 87.88367 261.268266 
L 90.554542 261.268266 
L 90.727475 260.712479 
L 91.054593 260.712479 
L 91.3551 260.156692 
L 93.217167 259.600906 
L 93.25393 260.156692 
L 93.321681 259.600906 
L 99.109459 259.600906 
L 102.588152 260.712479 
L 103.105744 259.600906 
L 103.483676 259.600906 
L 104.4362 259.045119 
L 104.834718 256.821972 
L 105.610693 256.821972 
L 106.741478 260.712479 
L 106.814844 256.821972 
L 107.68255 256.266186 
L 109.940789 256.266186 
L 110.536441 255.710399 
L 111.421213 255.710399 
L 111.711601 254.598826 
L 117.173179 254.598826 
L 117.575409 253.487252 
L 117.596026 252.375679 
L 119.332613 252.375679 
L 121.893293 251.264106 
L 123.236564 251.264106 
L 123.256896 250.708319 
L 126.341765 250.708319 
L 127.107019 247.929386 
L 129.528865 247.929386 
L 129.545676 247.373599 
L 143.109223 247.373599 
L 145.644591 246.817812 
L 145.731152 247.373599 
L 148.360662 246.817812 
L 157.511136 246.817812 
L 161.946254 246.262026 
L 162.031927 245.706239 
L 162.242605 245.150452 
L 164.744605 245.150452 
L 165.809477 244.594666 
L 170.200886 244.594666 
L 170.367602 247.373599 
L 170.375785 245.150452 
L 170.589286 245.150452 
L 171.649464 242.927306 
L 176.840162 242.927306 
L 180.818335 242.371519 
L 185.239814 242.371519 
L 185.433839 241.815732 
L 196.923023 241.815732 
L 197.413368 241.259946 
L 200.203091 241.259946 
L 200.222757 240.148372 
L 205.538174 240.148372 
L 205.645987 236.257866 
L 215.266601 236.257866 
L 215.269487 235.702079 
L 215.548108 235.702079 
L 216.760664 235.146292 
L 217.992918 235.146292 
L 218.384838 234.590506 
L 218.424043 235.146292 
L 219.321502 234.590506 
L 219.325594 234.034719 
L 219.34656 234.590506 
L 219.864977 234.034719 
L 224.587406 234.034719 
L 226.05565 233.478932 
L 227.797851 233.478932 
L 230.756954 232.923146 
L 233.558286 232.923146 
L 235.722605 231.811572 
L 240.459086 231.811572 
L 243.21433 230.699999 
L 243.990623 231.255786 
L 247.83621 231.255786 
L 252.174204 229.032639 
L 258.643783 229.032639 
L 260.650236 228.476852 
L 296.407611 228.476852 
L 296.696381 227.921066 
L 309.736278 227.921066 
L 309.954156 227.365279 
L 332.142814 227.365279 
L 337.028692 226.809492 
L 337.056953 227.365279 
L 340.554519 225.697919 
L 345.687393 225.697919 
L 348.490121 225.142132 
L 348.49472 224.586346 
L 354.342637 224.586346 
L 356.441519 225.142132 
L 357.19602 224.586346 
L 366.98281 224.586346 
L 367.399313 225.142132 
L 368.162284 224.586346 
L 368.424473 222.363199 
L 372.909454 222.363199 
L 372.913323 221.807412 
L 386.637274 221.807412 
L 387.436467 221.251626 
L 390.073971 221.251626 
L 390.331276 220.695839 
L 403.192626 220.695839 
L 403.210103 220.140052 
L 406.426924 220.140052 
L 406.431713 219.584266 
L 407.212288 219.584266 
L 407.253047 219.028479 
L 408.465191 219.028479 
L 408.655632 218.472692 
L 411.249997 218.472692 
L 411.644361 217.361119 
L 413.072575 215.137972 
L 416.526241 215.137972 
L 416.781231 212.359039 
L 417.939326 212.359039 
L 418.5077 211.247466 
L 421.436511 211.247466 
L 422.397535 210.691679 
L 425.148466 210.691679 
L 425.517168 210.135892 
L 432.988942 210.135892 
L 433.17304 209.580106 
L 433.864103 209.580106 
L 434.937 209.024319 
L 447.02209 209.024319 
L 447.130664 208.468532 
L 447.518145 208.468532 
L 448.327044 207.356959 
L 449.461127 207.356959 
L 449.733816 206.801172 
L 449.996545 206.801172 
L 450.096238 206.245386 
L 453.129088 206.245386 
L 453.645411 205.689599 
L 456.285262 205.689599 
L 456.454515 205.133812 
L 457.900523 205.133812 
L 457.993175 204.578026 
L 462.487036 204.578026 
L 462.583653 204.022239 
L 465.204535 204.022239 
L 466.079918 201.799092 
L 467.050458 201.799092 
L 467.051473 201.243306 
L 470.992249 201.243306 
L 471.714714 200.687519 
L 474.732117 200.687519 
L 475.326437 200.131732 
L 475.549993 200.131732 
L 476.130706 199.575946 
L 477.614079 199.575946 
L 477.785521 199.020159 
L 481.505818 199.020159 
L 482.46478 198.464372 
L 482.534626 197.908586 
L 482.845092 197.908586 
L 483.825021 195.685439 
L 486.864056 195.685439 
L 486.885942 195.129652 
L 489.778213 195.129652 
L 490.05382 194.573866 
L 490.38262 194.573866 
L 490.713354 194.018079 
L 490.782343 194.573866 
L 491.030006 194.018079 
L 492.13034 194.018079 
L 492.140871 193.462292 
L 492.433067 193.462292 
L 492.561021 192.906506 
L 493.445159 192.350719 
L 499.596627 192.350719 
L 500.558095 191.794932 
L 501.201706 191.794932 
L 501.723866 191.239146 
L 502.252083 191.794932 
L 504.426964 191.794932 
L 504.520757 190.683359 
L 507.64296 190.683359 
L 508.854374 189.015999 
L 522.003417 189.015999 
L 522.767624 188.460212 
L 543.063891 188.460212 
L 543.188578 187.904426 
L 573.011824 187.904426 
L 573.143205 187.348639 
L 573.152625 186.792852 
L 573.161982 187.348639 
L 577.508668 187.348639 
L 578.490087 186.792852 
L 595.614543 186.792852 
L 599.138372 186.237066 
L 599.172629 185.681279 
L 599.464349 185.681279 
L 600.378112 185.125492 
L 627.861728 185.125492 
L 628.128485 184.569706 
L 652.568848 184.569706 
L 655.705926 184.013919 
L 657.624834 184.013919 
L 657.83307 183.458132 
L 659.166793 182.902346 
L 662.90701 182.902346 
L 664.482242 182.346559 
L 666.130555 182.346559 
L 666.258922 181.790772 
L 668.970077 181.790772 
L 669.293929 181.234986 
L 669.358033 180.679199 
L 674.185008 180.679199 
L 674.203722 180.123412 
L 678.313656 180.123412 
L 678.322728 179.567626 
L 679.715258 179.011839 
L 682.187379 179.011839 
L 683.966374 178.456052 
L 685.558449 178.456052 
L 687.904962 175.121332 
L 690.644474 175.121332 
L 690.657161 172.342399 
L 704.431513 172.342399 
L 704.432941 171.786612 
L 704.671182 171.230826 
L 705.990505 171.230826 
L 706.277467 170.675039 
L 710.604931 170.675039 
L 711.605318 170.119252 
L 711.769909 170.675039 
L 719.510058 170.675039 
L 719.511802 170.119252 
L 722.636923 170.119252 
L 723.91536 167.340319 
L 731.752791 167.340319 
L 731.836498 166.228746 
L 733.608515 164.561386 
L 735.386559 164.561386 
L 735.575953 164.005599 
L 743.05036 164.005599 
L 743.187799 163.449812 
L 750.692941 163.449812 
L 750.856421 162.894026 
L 752.924885 161.226666 
L 753.085161 160.670879 
L 773.461709 160.670879 
L 775.390894 157.891946 
L 779.994155 157.891946 
L 780.293995 157.336159 
L 783.752388 157.336159 
L 785.039611 156.224586 
L 803.268207 156.224586 
L 803.499312 155.668799 
L 806.167774 155.668799 
L 806.453626 155.113012 
L 812.012614 155.113012 
L 812.012614 155.113012 
" clip-path="url(#p6d5e6310aa)" style="fill: none; stroke: #1a7f37; stroke-width: 2; stroke-linecap: square"/>
   </g>
   <g id="line2d_38">
    <path d="M 85.239886 455.237812 
L 85.325686 453.570452 
L 85.419036 453.570452 
L 85.564912 372.981386 
L 86.78451 372.981386 
L 86.811122 370.758239 
L 88.14513 370.758239 
L 88.488838 369.090879 
L 88.956504 370.758239 
L 88.959961 369.090879 
L 89.346934 369.090879 
L 89.496489 367.979306 
L 93.318034 367.979306 
L 93.321681 367.423519 
L 93.343187 367.979306 
L 93.531281 367.423519 
L 93.58644 367.979306 
L 93.842001 367.423519 
L 95.074604 367.423519 
L 95.144766 366.867732 
L 95.335874 366.311946 
L 96.849983 366.311946 
L 98.573026 365.756159 
L 98.633673 365.200372 
L 99.099372 364.644586 
L 99.109459 364.088799 
L 102.588152 367.979306 
L 103.105744 366.311946 
L 103.483676 363.533012 
L 105.610693 363.533012 
L 106.741478 367.979306 
L 106.814844 363.533012 
L 127.477942 363.533012 
L 128.112006 362.977226 
L 129.545676 362.977226 
L 133.461267 362.421439 
L 134.415059 361.865652 
L 148.005092 361.865652 
L 148.360662 361.309866 
L 150.18749 360.754079 
L 151.348598 360.754079 
L 152.635631 360.198292 
L 152.6703 359.086719 
L 153.555008 358.530932 
L 154.149613 357.975146 
L 162.341061 357.975146 
L 163.973958 357.419359 
L 164.467602 357.419359 
L 164.744605 356.863572 
L 165.809477 356.863572 
L 166.867403 356.307786 
L 170.200886 356.307786 
L 170.367602 358.530932 
L 170.375785 356.307786 
L 171.649464 356.307786 
L 171.777324 355.751999 
L 173.580172 355.751999 
L 175.353933 355.196212 
L 175.396976 354.640426 
L 180.818335 354.640426 
L 183.104994 354.084639 
L 183.110767 353.528852 
L 190.720043 353.528852 
L 193.89417 352.973066 
L 196.275573 352.973066 
L 196.923023 352.417279 
L 200.558059 352.417279 
L 202.631344 351.861492 
L 202.744993 351.305706 
L 204.766354 351.305706 
L 205.000948 350.749919 
L 205.645987 350.194132 
L 207.085937 350.194132 
L 207.995069 349.638346 
L 209.661938 349.638346 
L 210.749838 349.082559 
L 213.070658 349.082559 
L 213.861319 347.970986 
L 219.864977 347.970986 
L 221.574761 347.415199 
L 223.57966 347.415199 
L 224.031783 346.859412 
L 224.170047 346.303626 
L 224.587406 345.747839 
L 231.491504 345.747839 
L 232.755572 345.192052 
L 233.558286 344.636266 
L 253.190895 344.636266 
L 257.597942 344.080479 
L 257.650596 343.524692 
L 260.650236 343.524692 
L 263.214087 342.968906 
L 267.745663 342.968906 
L 268.128576 342.413119 
L 275.846045 342.413119 
L 281.887322 341.857332 
L 281.945304 341.301546 
L 282.735109 341.301546 
L 284.335304 340.745759 
L 284.424561 339.078399 
L 284.494977 338.522612 
L 287.837501 337.966826 
L 288.037648 337.411039 
L 288.117421 336.299466 
L 288.420148 335.743679 
L 299.297059 335.743679 
L 302.387003 335.187892 
L 304.353965 334.632106 
L 305.894877 334.632106 
L 309.467617 334.076319 
L 309.736278 331.853172 
L 309.954156 331.853172 
L 310.467846 330.741599 
L 317.244592 330.185812 
L 317.460282 329.630026 
L 317.52391 329.074239 
L 318.955614 329.074239 
L 320.307575 328.518452 
L 320.462967 327.962666 
L 320.568496 326.851092 
L 321.463386 326.295306 
L 321.529076 325.739519 
L 323.161847 325.183732 
L 325.308086 324.627946 
L 325.460718 324.072159 
L 325.463953 323.516372 
L 325.895649 322.960586 
L 325.971902 322.404799 
L 329.085223 321.849012 
L 329.643352 321.293226 
L 342.749891 321.293226 
L 344.923408 320.737439 
L 345.121208 320.181652 
L 354.004195 320.181652 
L 354.342637 319.070079 
L 358.043712 319.070079 
L 359.161111 318.514292 
L 359.2157 317.402719 
L 359.502631 316.846932 
L 361.402571 316.291146 
L 361.44536 315.735359 
L 361.674689 315.179572 
L 361.909695 312.956426 
L 362.171473 312.956426 
L 362.181115 312.400639 
L 363.767227 311.844852 
L 364.390792 311.289066 
L 364.54168 310.733279 
L 367.399313 310.177492 
L 369.505269 310.177492 
L 370.236552 309.621706 
L 378.154423 309.621706 
L 380.777557 309.065919 
L 380.787993 308.510132 
L 381.259751 307.954346 
L 387.436467 307.954346 
L 389.169533 307.398559 
L 389.883466 306.842772 
L 390.073971 305.731199 
L 395.070294 305.731199 
L 395.410703 305.175412 
L 398.154338 305.175412 
L 399.467857 304.619626 
L 403.210103 304.619626 
L 405.472465 304.063839 
L 410.170661 304.063839 
L 410.748107 303.508052 
L 413.072575 303.508052 
L 413.705275 302.952266 
L 413.97974 302.396479 
L 414.114927 301.840692 
L 416.028316 301.840692 
L 416.082714 300.729119 
L 416.781231 300.729119 
L 417.239857 299.061759 
L 418.904251 299.061759 
L 419.110964 298.505972 
L 419.271431 298.505972 
L 420.068087 297.950186 
L 421.390106 297.950186 
L 421.436511 297.394399 
L 422.397535 297.394399 
L 422.630956 296.838612 
L 423.534219 296.838612 
L 424.917202 295.727039 
L 425.517168 295.727039 
L 427.837576 294.615466 
L 427.841065 294.059679 
L 428.284086 293.503892 
L 429.414426 292.948106 
L 429.590181 292.392319 
L 430.71716 291.836532 
L 432.559403 291.836532 
L 433.17304 290.724959 
L 435.419828 290.724959 
L 435.483615 290.169172 
L 436.123706 290.169172 
L 436.172839 289.613386 
L 436.524095 289.057599 
L 437.746294 289.057599 
L 437.839263 288.501812 
L 438.04864 288.501812 
L 438.162068 287.946026 
L 438.185064 287.946026 
L 438.284979 287.390239 
L 439.906585 287.390239 
L 440.24693 286.834452 
L 440.532719 286.834452 
L 440.703526 286.278666 
L 441.139727 286.278666 
L 441.466306 285.722879 
L 441.535168 285.167092 
L 441.628517 285.167092 
L 443.270201 284.611306 
L 444.498712 284.611306 
L 444.591712 284.055519 
L 449.437877 284.055519 
L 449.461127 283.499732 
L 449.733816 283.499732 
L 450.375493 282.388159 
L 452.012228 282.388159 
L 452.164004 280.720799 
L 452.208284 279.609226 
L 452.494358 279.053439 
L 453.645411 279.053439 
L 454.188283 278.497652 
L 454.71447 278.497652 
L 454.884136 277.941866 
L 455.699791 277.386079 
L 456.454515 277.386079 
L 457.971796 276.830292 
L 458.072726 276.274506 
L 458.456844 276.274506 
L 458.533699 275.718719 
L 459.882489 275.718719 
L 459.919949 275.162932 
L 466.461086 275.162932 
L 466.581967 274.607146 
L 466.756739 274.607146 
L 466.843015 273.495572 
L 467.685283 273.495572 
L 467.864528 272.939786 
L 468.447905 272.383999 
L 468.594542 271.828212 
L 468.862473 271.828212 
L 469.089201 271.272426 
L 469.163106 270.716639 
L 472.449867 270.716639 
L 473.279479 270.160852 
L 473.44334 269.049279 
L 473.645263 268.493492 
L 473.982342 268.493492 
L 474.187786 267.937706 
L 478.904664 267.937706 
L 479.216051 266.270346 
L 479.86055 266.270346 
L 479.955168 265.714559 
L 482.47363 265.714559 
L 482.534626 264.602986 
L 485.559419 264.602986 
L 485.590757 264.047199 
L 487.047868 264.047199 
L 487.057669 263.491412 
L 487.767224 263.491412 
L 487.884902 262.935626 
L 489.946387 262.935626 
L 490.05382 262.379839 
L 490.190688 262.379839 
L 490.38262 261.824052 
L 490.772225 261.824052 
L 490.782343 261.268266 
L 491.030006 261.268266 
L 491.502461 260.712479 
L 495.318518 260.712479 
L 495.59587 260.156692 
L 496.728145 260.156692 
L 496.730238 259.600906 
L 505.387195 259.600906 
L 506.856517 259.045119 
L 506.899116 258.489332 
L 507.64296 257.933546 
L 508.77403 257.933546 
L 508.854374 256.821972 
L 509.058962 256.821972 
L 509.144128 256.266186 
L 512.14805 256.266186 
L 512.690509 255.710399 
L 517.886504 255.710399 
L 517.902491 255.154612 
L 519.599556 255.154612 
L 520.324812 254.598826 
L 528.312433 254.598826 
L 528.412126 253.487252 
L 531.553519 253.487252 
L 532.178353 252.931466 
L 532.847466 252.931466 
L 533.665437 252.375679 
L 539.072237 252.375679 
L 539.589987 251.819892 
L 540.038622 251.819892 
L 540.258593 251.264106 
L 541.981002 250.708319 
L 542.824158 250.708319 
L 543.099099 250.152532 
L 543.188578 250.152532 
L 545.608394 249.596746 
L 550.063749 249.596746 
L 550.412405 249.040959 
L 567.608863 249.040959 
L 568.237186 248.485172 
L 572.2139 248.485172 
L 572.357619 247.929386 
L 572.615939 247.929386 
L 572.693809 247.373599 
L 594.902069 247.373599 
L 595.614543 246.817812 
L 600.917114 246.817812 
L 602.068991 246.262026 
L 602.146196 245.706239 
L 604.905088 245.706239 
L 605.019562 245.150452 
L 613.9559 245.150452 
L 613.974202 244.594666 
L 621.517947 244.594666 
L 621.599148 244.038879 
L 622.089112 243.483092 
L 623.9403 243.483092 
L 623.94455 242.927306 
L 624.320739 242.371519 
L 627.100185 242.371519 
L 628.018452 241.815732 
L 633.945222 241.815732 
L 633.986964 240.704159 
L 671.555561 240.704159 
L 674.203722 240.148372 
L 677.535429 240.148372 
L 677.646129 239.592586 
L 692.417157 239.592586 
L 692.441961 239.036799 
L 707.86729 239.036799 
L 708.026298 238.481012 
L 708.944026 238.481012 
L 708.967942 237.925226 
L 709.175353 237.369439 
L 709.982191 236.257866 
L 710.100788 235.146292 
L 710.169333 234.034719 
L 710.375983 233.478932 
L 710.423783 232.923146 
L 710.604931 232.367359 
L 711.769909 232.367359 
L 711.914738 231.811572 
L 711.921557 231.255786 
L 712.358424 230.699999 
L 719.511802 230.699999 
L 720.282829 229.588426 
L 742.845709 229.588426 
L 742.989079 229.032639 
L 756.761115 229.032639 
L 757.087282 227.921066 
L 758.564153 227.921066 
L 758.761985 227.365279 
L 767.536525 227.365279 
L 767.755799 226.809492 
L 771.204739 226.809492 
L 772.125861 226.253706 
L 772.212485 225.697919 
L 777.387229 225.697919 
L 777.548425 224.586346 
L 778.216016 224.030559 
L 778.840469 224.030559 
L 779.994155 223.474772 
L 783.3107 223.474772 
L 783.36126 222.918986 
L 783.752388 222.363199 
L 786.458563 222.363199 
L 789.326252 221.807412 
L 803.499312 221.807412 
L 805.174586 221.251626 
L 805.794821 220.695839 
L 806.167774 219.584266 
L 808.162205 219.584266 
L 812.012614 219.028479 
L 812.012614 219.028479 
" clip-path="url(#p6d5e6310aa)" style="fill: none; stroke: #0969da; stroke-width: 2; stroke-linecap: square"/>
   </g>
   <g id="line2d_39">
    <path d="M 85.239886 455.237812 
L 87.873584 455.237812 
L 87.88367 454.126239 
L 90.057949 454.126239 
L 90.554542 453.570452 
L 224.587406 453.570452 
L 226.05565 453.014666 
L 263.214087 453.014666 
L 264.245306 452.458879 
L 299.297059 452.458879 
L 302.387003 451.903092 
L 310.467846 451.903092 
L 317.52391 450.235732 
L 318.955614 449.124159 
L 321.529076 449.124159 
L 323.161847 448.568372 
L 325.463953 448.012586 
L 325.971902 448.012586 
L 329.085223 447.456799 
L 329.643352 446.901012 
L 332.142814 446.345226 
L 337.028692 445.789439 
L 337.056953 446.345226 
L 345.121208 446.345226 
L 345.687393 445.789439 
L 357.19602 445.789439 
L 358.043712 445.233652 
L 361.909695 445.233652 
L 362.181115 444.677866 
L 366.98281 444.677866 
L 367.399313 444.122079 
L 384.989595 444.122079 
L 386.637274 443.566292 
L 387.329764 443.566292 
L 387.436467 443.010506 
L 392.131174 443.010506 
L 392.135646 442.454719 
L 403.192626 442.454719 
L 403.210103 441.898932 
L 406.431713 441.898932 
L 407.253047 441.343146 
L 408.463065 440.787359 
L 408.465191 440.231572 
L 408.655632 440.231572 
L 410.170661 438.564212 
L 411.191254 438.564212 
L 411.249997 436.896852 
L 411.644361 436.896852 
L 413.072575 437.452639 
L 414.099701 437.452639 
L 414.114927 435.229492 
L 417.939326 435.229492 
L 418.5077 434.673706 
L 419.110964 434.673706 
L 419.271431 434.117919 
L 432.988942 434.117919 
L 433.17304 433.562132 
L 433.864103 433.562132 
L 434.937 433.006346 
L 439.670468 433.006346 
L 439.906585 432.450559 
L 441.535168 432.450559 
L 441.628517 431.894772 
L 447.02209 431.894772 
L 447.130664 431.338986 
L 447.518145 431.338986 
L 447.911144 430.783199 
L 448.303762 430.783199 
L 448.327044 430.227412 
L 449.996545 430.227412 
L 450.096238 429.671626 
L 457.846759 429.671626 
L 457.952416 429.115839 
L 457.993175 429.115839 
L 458.072726 428.560052 
L 458.533699 428.560052 
L 459.500052 428.004266 
L 463.278078 428.004266 
L 463.281408 427.448479 
L 464.003303 427.448479 
L 464.030771 426.892692 
L 466.079918 426.892692 
L 466.562143 426.336906 
L 469.241135 426.336906 
L 470.03316 425.781119 
L 471.573469 425.781119 
L 471.589805 424.669546 
L 471.714714 424.669546 
L 471.871914 424.113759 
L 474.349775 424.113759 
L 474.732117 423.557972 
L 475.326437 423.557972 
L 475.549993 423.002186 
L 477.000633 423.002186 
L 477.203191 422.446399 
L 477.205791 421.890612 
L 477.614079 421.890612 
L 477.785521 421.334826 
L 493.41198 421.334826 
L 493.445159 420.223252 
L 495.59587 420.223252 
L 496.214867 419.667466 
L 496.730238 419.667466 
L 499.147897 419.111679 
L 499.596627 419.111679 
L 500.558095 418.555892 
L 501.201706 418.555892 
L 501.723866 418.000106 
L 502.252083 418.555892 
L 503.95251 418.555892 
L 504.414911 418.000106 
L 504.520757 416.888532 
L 505.381391 416.332746 
L 505.387195 415.221172 
L 509.144128 415.221172 
L 509.965747 414.665386 
L 510.049009 412.998026 
L 510.870216 412.442239 
L 511.324369 411.886452 
L 515.208622 411.886452 
L 515.373435 410.219092 
L 515.571552 410.219092 
L 515.718443 409.663306 
L 516.667731 409.107519 
L 518.161984 409.107519 
L 518.469818 408.551732 
L 518.539853 407.995946 
L 518.696926 407.995946 
L 519.599556 406.884372 
L 520.566638 406.884372 
L 520.884178 406.328586 
L 521.999737 406.328586 
L 522.003417 405.217012 
L 522.767624 405.217012 
L 523.782158 404.661226 
L 526.47 403.549652 
L 526.830614 402.993866 
L 532.178353 402.993866 
L 532.847466 401.882292 
L 543.063891 401.882292 
L 543.188578 400.770719 
L 548.161334 400.770719 
L 548.921133 400.214932 
L 551.226823 400.214932 
L 551.356237 399.659146 
L 565.541097 399.659146 
L 565.767508 399.103359 
L 567.172535 399.103359 
L 567.608863 398.547572 
L 570.231078 398.547572 
L 570.724246 397.991786 
L 570.727481 397.435999 
L 571.291509 396.880212 
L 573.011824 396.880212 
L 573.143205 396.324426 
L 573.152625 395.212852 
L 573.161982 395.768639 
L 574.318015 395.212852 
L 578.490087 395.212852 
L 579.313038 394.101279 
L 586.840765 394.101279 
L 587.422778 393.545492 
L 589.248939 393.545492 
L 589.395133 392.989706 
L 589.415242 392.433919 
L 595.614543 392.433919 
L 599.464349 391.322346 
L 600.378112 391.322346 
L 600.917114 390.766559 
L 608.89154 390.766559 
L 609.871722 390.210772 
L 611.086277 390.210772 
L 612.262578 389.654986 
L 622.089112 389.654986 
L 622.358788 389.099199 
L 622.360247 388.543412 
L 627.861728 388.543412 
L 628.128485 387.987626 
L 652.568848 387.987626 
L 655.705926 387.431839 
L 662.90701 387.431839 
L 664.482242 386.876052 
L 665.868238 386.876052 
L 666.130555 386.320266 
L 669.358033 386.320266 
L 669.90322 385.764479 
L 670.62226 385.764479 
L 671.555561 385.208692 
L 673.792675 385.208692 
L 674.203722 384.652906 
L 674.479076 384.652906 
L 675.481525 384.097119 
L 685.166338 384.097119 
L 685.193426 382.429759 
L 693.643955 382.429759 
L 697.227416 381.873972 
L 697.230334 381.318186 
L 701.432349 381.318186 
L 701.608739 380.762399 
L 701.61134 380.206612 
L 703.576875 380.206612 
L 704.432941 379.650826 
L 705.04534 379.650826 
L 705.990505 379.095039 
L 707.004786 379.095039 
L 707.180065 377.983466 
L 708.026298 377.983466 
L 708.194948 377.427679 
L 710.099139 377.427679 
L 710.169333 376.871892 
L 713.170718 376.871892 
L 715.345091 376.316106 
L 716.058294 376.316106 
L 716.758429 375.760319 
L 718.204723 375.204532 
L 718.210908 374.648746 
L 718.609744 372.981386 
L 718.974196 372.425599 
L 719.511802 371.869812 
L 720.952546 371.869812 
L 721.826279 370.202452 
L 723.91536 370.202452 
L 724.481006 368.535092 
L 726.77975 368.535092 
L 727.023162 367.979306 
L 728.689269 367.979306 
L 729.051342 366.867732 
L 729.678713 366.311946 
L 731.836498 366.311946 
L 735.575953 365.200372 
L 737.973502 364.644586 
L 738.136379 364.088799 
L 740.404134 364.088799 
L 740.549217 363.533012 
L 743.038909 363.533012 
L 743.05036 362.977226 
L 743.517074 362.977226 
L 743.619368 362.421439 
L 750.692941 362.421439 
L 750.856421 361.865652 
L 753.085161 361.309866 
L 756.750616 361.309866 
L 756.761115 360.754079 
L 770.208602 360.754079 
L 771.204739 358.530932 
L 776.723285 358.530932 
L 776.731437 357.419359 
L 783.752388 357.419359 
L 785.036883 355.751999 
L 785.039611 355.196212 
L 790.002566 355.196212 
L 791.672416 354.084639 
L 791.747146 353.528852 
L 812.012614 353.528852 
L 812.012614 353.528852 
" clip-path="url(#p6d5e6310aa)" style="fill: none; stroke: #bf8700; stroke-width: 2; stroke-linecap: square"/>
   </g>
   <g id="line2d_40">
    <path d="M 85.239886 454.682026 
L 85.465155 454.682026 
L 85.564912 432.450559 
L 86.086246 426.892692 
L 86.384152 425.781119 
L 86.535293 426.336906 
L 86.811122 425.781119 
L 87.277614 425.225332 
L 87.88367 423.002186 
L 88.14513 421.334826 
L 88.488838 421.334826 
L 88.956504 420.779039 
L 88.959961 420.223252 
L 89.336498 419.667466 
L 89.440315 419.111679 
L 89.496489 419.111679 
L 90.057949 418.555892 
L 90.4591 418.000106 
L 90.554542 411.886452 
L 90.62055 412.442239 
L 90.923149 405.217012 
L 91.054593 402.993866 
L 93.321681 402.993866 
L 93.531281 399.659146 
L 93.58644 402.438079 
L 93.842001 397.991786 
L 93.96856 397.435999 
L 94.911473 396.880212 
L 95.074604 395.768639 
L 95.335874 395.768639 
L 95.821461 395.212852 
L 96.080859 394.657066 
L 96.198347 393.545492 
L 96.26981 392.989706 
L 96.512143 392.433919 
L 96.518138 391.878132 
L 96.761868 392.433919 
L 96.831237 391.878132 
L 96.83977 392.433919 
L 96.849983 390.766559 
L 99.109459 390.766559 
L 102.588152 402.993866 
L 103.105744 390.210772 
L 103.483676 389.654986 
L 104.834718 389.654986 
L 105.081841 389.099199 
L 105.610693 388.543412 
L 106.741478 402.993866 
L 106.814844 387.987626 
L 107.68255 387.431839 
L 109.538147 386.876052 
L 109.670479 387.431839 
L 109.940789 385.764479 
L 110.536441 385.764479 
L 110.71743 385.208692 
L 111.059267 384.652906 
L 111.087624 383.541332 
L 111.402943 382.429759 
L 111.421213 382.985546 
L 111.608768 382.985546 
L 111.711601 381.873972 
L 112.028157 379.650826 
L 112.069773 378.539252 
L 112.475904 376.871892 
L 112.674401 377.983466 
L 114.077906 374.648746 
L 114.447465 375.760319 
L 115.968331 373.537172 
L 117.173179 377.427679 
L 117.596026 373.537172 
L 119.332613 371.869812 
L 121.893293 371.869812 
L 122.231482 371.314026 
L 122.500618 369.646666 
L 123.256896 371.314026 
L 126.341765 371.869812 
L 127.107019 369.646666 
L 127.477942 367.979306 
L 128.112006 369.646666 
L 129.545676 367.979306 
L 134.415059 367.979306 
L 139.535245 367.423519 
L 139.876701 366.867732 
L 143.109223 366.311946 
L 145.246707 366.311946 
L 145.644591 365.756159 
L 145.731152 366.311946 
L 148.005092 364.644586 
L 150.137977 364.644586 
L 150.18749 364.088799 
L 151.348598 363.533012 
L 154.149613 363.533012 
L 155.385198 359.642506 
L 156.304828 359.086719 
L 157.488171 358.530932 
L 157.511136 357.975146 
L 161.946254 357.975146 
L 162.031927 354.084639 
L 162.196073 354.084639 
L 162.341061 352.973066 
L 163.973958 352.973066 
L 164.467602 352.417279 
L 166.867403 352.417279 
L 170.200886 351.861492 
L 170.367602 363.533012 
L 170.375785 352.417279 
L 170.589286 351.861492 
L 171.777324 351.861492 
L 173.580172 351.305706 
L 175.396976 351.305706 
L 176.840162 350.749919 
L 180.818335 349.638346 
L 183.110767 349.638346 
L 184.953137 349.082559 
L 185.239814 346.303626 
L 185.433839 346.303626 
L 185.777166 345.747839 
L 187.567993 345.192052 
L 187.981958 342.968906 
L 190.457029 341.857332 
L 190.486844 342.413119 
L 190.720043 341.857332 
L 193.89417 340.745759 
L 196.275573 340.189972 
L 197.413368 340.189972 
L 198.421844 339.634186 
L 199.295799 338.522612 
L 200.222757 337.966826 
L 200.558059 337.411039 
L 202.744993 337.966826 
L 204.766354 336.855252 
L 205.000948 337.411039 
L 205.538174 337.411039 
L 205.645987 336.855252 
L 207.085937 336.299466 
L 207.995069 336.855252 
L 209.661938 335.743679 
L 210.749838 335.743679 
L 213.070658 335.187892 
L 213.455506 335.743679 
L 213.861319 334.076319 
L 215.269487 334.076319 
L 215.548108 333.520532 
L 216.760664 331.297386 
L 217.103261 330.185812 
L 217.992918 330.741599 
L 218.384838 329.630026 
L 218.424043 329.074239 
L 221.574761 329.074239 
L 223.170515 328.518452 
L 223.57966 327.962666 
L 226.05565 327.962666 
L 227.797851 327.406879 
L 230.756954 327.406879 
L 231.491504 326.851092 
L 239.628522 326.851092 
L 240.095839 326.295306 
L 240.142656 325.739519 
L 240.459086 325.183732 
L 243.990623 325.183732 
L 244.210721 324.627946 
L 245.109227 324.072159 
L 245.264841 323.516372 
L 246.75348 322.960586 
L 247.83621 322.404799 
L 252.174204 322.404799 
L 253.190895 321.293226 
L 257.650596 321.293226 
L 258.643783 320.737439 
L 262.800058 320.737439 
L 263.214087 320.181652 
L 264.245306 319.625866 
L 264.552283 319.070079 
L 264.656512 318.514292 
L 267.745663 317.958506 
L 268.128576 318.514292 
L 272.195245 317.402719 
L 275.410574 316.291146 
L 275.846045 315.735359 
L 281.945304 315.735359 
L 282.735109 315.179572 
L 288.420148 315.179572 
L 293.775341 314.623786 
L 294.448927 314.067999 
L 296.696381 313.512212 
L 298.950179 312.956426 
L 299.297059 312.400639 
L 304.353965 312.400639 
L 305.894877 311.844852 
L 317.52391 311.844852 
L 318.955614 311.289066 
L 328.56151 311.289066 
L 329.085223 310.733279 
L 329.643352 311.289066 
L 332.142814 310.733279 
L 340.554519 310.733279 
L 341.681751 310.177492 
L 359.476367 310.177492 
L 359.502631 309.621706 
L 370.492588 309.621706 
L 372.907138 309.065919 
L 372.913323 308.510132 
L 384.984235 308.510132 
L 384.989595 307.398559 
L 392.135646 307.398559 
L 395.410703 306.842772 
L 399.467857 306.842772 
L 403.210103 305.731199 
L 410.748107 305.731199 
L 411.191254 305.175412 
L 411.249997 304.619626 
L 414.099701 304.619626 
L 414.114927 304.063839 
L 414.410834 304.063839 
L 414.882528 303.508052 
L 419.110964 303.508052 
L 419.271431 302.952266 
L 424.917202 302.952266 
L 425.148466 302.396479 
L 438.936362 302.396479 
L 439.669421 300.729119 
L 439.670468 300.173332 
L 441.623855 300.173332 
L 441.628517 299.617546 
L 447.390317 299.617546 
L 447.518145 299.061759 
L 450.276403 299.061759 
L 450.375493 298.505972 
L 460.622273 298.505972 
L 460.819311 297.950186 
L 463.197734 297.950186 
L 463.281408 297.394399 
L 464.030771 296.838612 
L 482.845092 296.838612 
L 483.825021 295.727039 
L 485.291837 295.727039 
L 485.590757 295.171252 
L 487.057669 295.171252 
L 487.275071 294.615466 
L 490.740918 294.615466 
L 490.782343 294.059679 
L 509.964129 294.059679 
L 510.049009 292.948106 
L 534.02548 292.948106 
L 534.648189 292.392319 
L 575.585319 292.392319 
L 577.508668 291.836532 
L 594.809006 291.836532 
L 594.902069 291.280746 
L 602.647389 291.280746 
L 603.023862 290.724959 
L 756.318412 290.724959 
L 756.761115 290.169172 
L 776.224598 290.169172 
L 776.731437 289.613386 
L 783.752388 289.613386 
L 785.024481 289.057599 
L 785.039611 285.167092 
L 791.668705 285.167092 
L 791.747146 282.388159 
L 812.012614 282.388159 
L 812.012614 282.388159 
" clip-path="url(#p6d5e6310aa)" style="fill: none; stroke: #cf222e; stroke-width: 2; stroke-linecap: square"/>
   </g>
   <g id="line2d_41">
    <path d="M 85.239886 454.682026 
L 85.257808 454.126239 
L 85.399103 -1 
M 85.526098 -1 
L 85.665905 101.201706 
L 87.873584 101.201706 
L 87.88367 97.866986 
L 90.554542 97.866986 
L 90.727475 98.422772 
L 91.054593 98.422772 
L 91.3551 98.978559 
L 93.217167 99.534346 
L 93.25393 98.978559 
L 93.321681 99.534346 
L 99.109459 99.534346 
L 102.588152 98.422772 
L 103.105744 99.534346 
L 103.483676 98.978559 
L 104.4362 99.534346 
L 104.834718 96.755412 
L 105.610693 96.755412 
L 106.741478 98.422772 
L 106.814844 95.643839 
L 107.68255 96.199626 
L 109.940789 96.199626 
L 110.536441 95.088052 
L 111.421213 95.088052 
L 111.711601 91.197546 
L 117.173179 91.197546 
L 117.575409 87.862826 
L 117.596026 86.751252 
L 119.332613 86.751252 
L 121.893293 82.860746 
L 123.236564 82.860746 
L 123.256896 83.416532 
L 126.341765 83.416532 
L 127.107019 80.081812 
L 129.528865 80.081812 
L 129.545676 80.637599 
L 143.109223 80.637599 
L 145.644591 81.193386 
L 145.731152 80.637599 
L 148.360662 81.193386 
L 157.511136 81.193386 
L 161.946254 81.749172 
L 162.031927 74.523946 
L 162.242605 75.079732 
L 164.744605 75.079732 
L 165.809477 75.635519 
L 170.200886 75.635519 
L 170.367602 80.637599 
L 170.375785 71.745012 
L 170.589286 71.745012 
L 171.649464 73.968159 
L 176.840162 73.968159 
L 180.818335 70.077652 
L 185.239814 70.077652 
L 185.433839 68.410292 
L 196.923023 68.410292 
L 197.413368 68.966079 
L 200.203091 68.966079 
L 200.222757 70.077652 
L 205.538174 70.077652 
L 205.645987 73.412372 
L 213.861319 73.412372 
L 214.057534 68.410292 
L 215.266601 67.298719 
L 215.269487 67.854506 
L 215.548108 67.854506 
L 216.540787 65.075572 
L 217.992918 65.075572 
L 218.384838 65.631359 
L 218.424043 65.075572 
L 219.321502 65.631359 
L 219.325594 66.187146 
L 219.34656 65.631359 
L 219.864977 63.408212 
L 224.587406 63.408212 
L 226.05565 63.963999 
L 227.797851 63.963999 
L 230.756954 64.519786 
L 233.558286 64.519786 
L 235.722605 65.631359 
L 240.142656 65.075572 
L 240.459086 65.075572 
L 243.21433 66.187146 
L 243.990623 65.631359 
L 247.83621 65.631359 
L 252.171857 67.854506 
L 252.174204 67.298719 
L 258.643783 67.298719 
L 260.650236 67.854506 
L 296.407611 67.854506 
L 296.696381 68.410292 
L 298.934097 68.410292 
L 298.950179 66.742932 
L 309.736278 66.742932 
L 309.954156 67.298719 
L 332.142814 67.298719 
L 337.028692 67.854506 
L 337.056953 67.298719 
L 340.554519 68.966079 
L 341.681751 68.966079 
L 342.749891 68.410292 
L 345.687393 68.410292 
L 348.490121 68.966079 
L 348.49472 69.521866 
L 356.441519 67.854506 
L 357.19602 68.410292 
L 366.98281 68.410292 
L 367.399313 67.854506 
L 368.162284 68.410292 
L 368.424473 70.633439 
L 372.909454 70.633439 
L 372.913323 71.189226 
L 386.637274 71.189226 
L 387.436467 71.745012 
L 390.073971 71.745012 
L 390.331276 72.300799 
L 403.192626 72.300799 
L 403.210103 72.856586 
L 405.472465 72.856586 
L 406.426924 73.412372 
L 406.431713 73.968159 
L 407.212288 73.412372 
L 407.253047 73.968159 
L 408.465191 73.968159 
L 408.655632 74.523946 
L 411.191254 74.523946 
L 411.249997 73.412372 
L 411.644361 74.523946 
L 413.072575 72.856586 
L 416.526241 72.856586 
L 416.781231 71.189226 
L 417.939326 71.189226 
L 418.5077 72.300799 
L 421.436511 72.300799 
L 422.397535 72.856586 
L 422.630956 72.856586 
L 423.534219 70.077652 
L 425.148466 70.077652 
L 425.517168 70.633439 
L 432.988942 70.633439 
L 433.17304 71.189226 
L 433.864103 71.189226 
L 434.937 71.745012 
L 447.02209 71.745012 
L 447.130664 72.300799 
L 447.518145 72.300799 
L 448.327044 73.412372 
L 449.461127 73.412372 
L 449.733816 72.856586 
L 449.996545 72.856586 
L 450.096238 73.412372 
L 453.129088 73.412372 
L 453.645411 73.968159 
L 456.285262 73.968159 
L 456.454515 74.523946 
L 457.900523 74.523946 
L 457.993175 75.079732 
L 462.487036 75.079732 
L 462.583653 75.635519 
L 465.204535 75.635519 
L 466.079918 77.858666 
L 467.050458 77.858666 
L 467.051473 78.414452 
L 470.992249 78.414452 
L 471.714714 78.970239 
L 474.732117 78.970239 
L 475.326437 79.526026 
L 477.614079 79.526026 
L 477.785521 80.081812 
L 481.505818 80.081812 
L 482.46478 80.637599 
L 482.534626 81.193386 
L 482.845092 81.193386 
L 483.825021 60.629279 
L 486.864056 60.629279 
L 486.885942 61.185066 
L 487.057669 61.185066 
L 487.275071 60.629279 
L 489.778213 60.629279 
L 490.05382 61.185066 
L 490.38262 61.185066 
L 490.713354 61.740852 
L 490.782343 61.185066 
L 492.13034 61.185066 
L 492.140871 61.740852 
L 492.433067 61.740852 
L 492.561021 62.296639 
L 493.445159 62.852426 
L 499.596627 62.852426 
L 500.558095 63.408212 
L 501.201706 63.408212 
L 501.723866 63.963999 
L 502.252083 63.408212 
L 504.426964 63.408212 
L 504.520757 64.519786 
L 507.64296 64.519786 
L 508.854374 66.187146 
L 522.003417 66.187146 
L 522.767624 66.742932 
L 543.063891 66.742932 
L 543.188578 67.298719 
L 573.011824 67.298719 
L 573.143205 67.854506 
L 573.152625 68.410292 
L 573.161982 67.854506 
L 577.508668 67.854506 
L 578.490087 68.410292 
L 595.614543 68.410292 
L 599.464349 68.966079 
L 600.370531 69.521866 
L 600.378112 67.854506 
L 627.861728 67.854506 
L 628.128485 68.410292 
L 652.568848 68.410292 
L 655.705926 68.966079 
L 657.624834 68.966079 
L 657.83307 69.521866 
L 659.166793 70.077652 
L 662.90701 70.077652 
L 664.482242 70.633439 
L 666.130555 70.633439 
L 666.258922 71.189226 
L 668.970077 71.189226 
L 669.293929 71.745012 
L 669.358033 72.300799 
L 674.185008 72.300799 
L 674.203722 72.856586 
L 677.646129 72.856586 
L 678.313656 72.300799 
L 678.322728 72.856586 
L 679.715258 73.412372 
L 682.187379 73.412372 
L 683.966374 73.968159 
L 685.558449 73.968159 
L 687.904962 61.740852 
L 690.644474 61.740852 
L 690.657161 64.519786 
L 704.431513 64.519786 
L 704.432941 65.075572 
L 704.671182 65.631359 
L 705.990505 65.631359 
L 706.277467 66.187146 
L 710.604931 66.187146 
L 711.605318 66.742932 
L 711.769909 66.187146 
L 719.510058 66.187146 
L 719.511802 66.742932 
L 731.752791 66.742932 
L 731.836498 67.854506 
L 733.608515 69.521866 
L 735.386559 69.521866 
L 735.575953 70.077652 
L 743.05036 70.077652 
L 743.187799 70.633439 
L 750.692941 70.633439 
L 750.856421 71.189226 
L 752.924885 72.856586 
L 753.085161 73.412372 
L 773.461709 73.412372 
L 775.390894 76.191306 
L 779.994155 76.191306 
L 780.293995 76.747092 
L 783.752388 76.747092 
L 785.039611 77.858666 
L 803.268207 77.858666 
L 803.499312 78.414452 
L 806.167774 78.414452 
L 806.453626 78.970239 
L 812.012614 78.970239 
L 812.012614 78.970239 
" clip-path="url(#p6d5e6310aa)" style="fill: none; stroke: #9467bd; stroke-width: 2; stroke-linecap: square"/>
   </g>
   <g id="patch_3">
    <path d="M 48.90125 455.237812 
L 48.90125 38.397812 
" style="fill: none; stroke: #d0d7de; stroke-width: 0.8; stroke-linejoin: miter; stroke-linecap: square"/>
   </g>
   <g id="patch_4">
    <path d="M 848.35125 455.237812 
L 848.35125 38.397812 
" style="fill: none; stroke: #d0d7de; stroke-width: 0.8; stroke-linejoin: miter; stroke-linecap: square"/>
   </g>
   <g id="patch_5">
    <path d="M 48.90125 455.237812 
L 848.35125 455.237812 
" style="fill: none; stroke: #d0d7de; stroke-width: 0.8; stroke-linejoin: miter; stroke-linecap: square"/>
   </g>
   <g id="patch_6">
    <path d="M 48.90125 38.397812 
L 848.35125 38.397812 
" style="fill: none; stroke: #d0d7de; stroke-width: 0.8; stroke-linejoin: miter; stroke-linecap: square"/>
   </g>
   <g id="text_21">
    <!-- 540 -->
    <g style="fill: #1a7f37" transform="translate(817.012614 157.59645) scale(0.09 -0.09)">
     <defs>
      <path id="DejaVuSans-Bold-35" d="M 678 4666 
L 3669 4666 
L 3669 3781 
L 1638 3781 
L 1638 3059 
Q 1775 3097 1914 3117 
Q 2053 3138 2203 3138 
Q 3056 3138 3531 2711 
Q 4006 2284 4006 1522 
Q 4006 766 3489 337 
Q 2972 -91 2053 -91 
Q 1656 -91 1267 -14 
Q 878 63 494 219 
L 494 1166 
Q 875 947 1217 837 
Q 1559 728 1863 728 
Q 2300 728 2551 942 
Q 2803 1156 2803 1522 
Q 2803 1891 2551 2103 
Q 2300 2316 1863 2316 
Q 1603 2316 1309 2248 
Q 1016 2181 678 2041 
L 678 4666 
z
" transform="scale(0.015625)"/>
      <path id="DejaVuSans-Bold-34" d="M 2356 3675 
L 1038 1722 
L 2356 1722 
L 2356 3675 
z
M 2156 4666 
L 3494 4666 
L 3494 1722 
L 4159 1722 
L 4159 850 
L 3494 850 
L 3494 0 
L 2356 0 
L 2356 850 
L 288 850 
L 288 1881 
L 2156 4666 
z
" transform="scale(0.015625)"/>
      <path id="DejaVuSans-Bold-30" d="M 2944 2338 
Q 2944 3213 2780 3570 
Q 2616 3928 2228 3928 
Q 1841 3928 1675 3570 
Q 1509 3213 1509 2338 
Q 1509 1453 1675 1090 
Q 1841 728 2228 728 
Q 2613 728 2778 1090 
Q 2944 1453 2944 2338 
z
M 4147 2328 
Q 4147 1169 3647 539 
Q 3147 -91 2228 -91 
Q 1306 -91 806 539 
Q 306 1169 306 2328 
Q 306 3491 806 4120 
Q 1306 4750 2228 4750 
Q 3147 4750 3647 4120 
Q 4147 3491 4147 2328 
z
" transform="scale(0.015625)"/>
     </defs>
     <use xlink:href="#DejaVuSans-Bold-35"/>
     <use xlink:href="#DejaVuSans-Bold-34" transform="translate(69.580078 0)"/>
     <use xlink:href="#DejaVuSans-Bold-30" transform="translate(139.160156 0)"/>
    </g>
   </g>
   <g id="text_22">
    <!-- 425 -->
    <g style="fill: #0969da" transform="translate(817.012614 221.511917) scale(0.09 -0.09)">
     <defs>
      <path id="DejaVuSans-Bold-32" d="M 1844 884 
L 3897 884 
L 3897 0 
L 506 0 
L 506 884 
L 2209 2388 
Q 2438 2594 2547 2791 
Q 2656 2988 2656 3200 
Q 2656 3528 2436 3728 
Q 2216 3928 1850 3928 
Q 1569 3928 1234 3808 
Q 900 3688 519 3450 
L 519 4475 
Q 925 4609 1322 4679 
Q 1719 4750 2100 4750 
Q 2938 4750 3402 4381 
Q 3866 4013 3866 3353 
Q 3866 2972 3669 2642 
Q 3472 2313 2841 1759 
L 1844 884 
z
" transform="scale(0.015625)"/>
     </defs>
     <use xlink:href="#DejaVuSans-Bold-34"/>
     <use xlink:href="#DejaVuSans-Bold-32" transform="translate(69.580078 0)"/>
     <use xlink:href="#DejaVuSans-Bold-35" transform="translate(139.160156 0)"/>
    </g>
   </g>
   <g id="text_23">
    <!-- 183 -->
    <g style="fill: #bf8700" transform="translate(817.012614 356.01229) scale(0.09 -0.09)">
     <defs>
      <path id="DejaVuSans-Bold-31" d="M 750 831 
L 1813 831 
L 1813 3847 
L 722 3622 
L 722 4441 
L 1806 4666 
L 2950 4666 
L 2950 831 
L 4013 831 
L 4013 0 
L 750 0 
L 750 831 
z
" transform="scale(0.015625)"/>
      <path id="DejaVuSans-Bold-38" d="M 2228 2088 
Q 1891 2088 1709 1903 
Q 1528 1719 1528 1375 
Q 1528 1031 1709 848 
Q 1891 666 2228 666 
Q 2563 666 2741 848 
Q 2919 1031 2919 1375 
Q 2919 1722 2741 1905 
Q 2563 2088 2228 2088 
z
M 1350 2484 
Q 925 2613 709 2878 
Q 494 3144 494 3541 
Q 494 4131 934 4440 
Q 1375 4750 2228 4750 
Q 3075 4750 3515 4442 
Q 3956 4134 3956 3541 
Q 3956 3144 3739 2878 
Q 3522 2613 3097 2484 
Q 3572 2353 3814 2058 
Q 4056 1763 4056 1313 
Q 4056 619 3595 264 
Q 3134 -91 2228 -91 
Q 1319 -91 855 264 
Q 391 619 391 1313 
Q 391 1763 633 2058 
Q 875 2353 1350 2484 
z
M 1631 3419 
Q 1631 3141 1786 2991 
Q 1941 2841 2228 2841 
Q 2509 2841 2662 2991 
Q 2816 3141 2816 3419 
Q 2816 3697 2662 3845 
Q 2509 3994 2228 3994 
Q 1941 3994 1786 3844 
Q 1631 3694 1631 3419 
z
" transform="scale(0.015625)"/>
      <path id="DejaVuSans-Bold-33" d="M 2981 2516 
Q 3453 2394 3698 2092 
Q 3944 1791 3944 1325 
Q 3944 631 3412 270 
Q 2881 -91 1863 -91 
Q 1503 -91 1142 -33 
Q 781 25 428 141 
L 428 1069 
Q 766 900 1098 814 
Q 1431 728 1753 728 
Q 2231 728 2486 893 
Q 2741 1059 2741 1369 
Q 2741 1688 2480 1852 
Q 2219 2016 1709 2016 
L 1228 2016 
L 1228 2791 
L 1734 2791 
Q 2188 2791 2409 2933 
Q 2631 3075 2631 3366 
Q 2631 3634 2415 3781 
Q 2200 3928 1806 3928 
Q 1516 3928 1219 3862 
Q 922 3797 628 3669 
L 628 4550 
Q 984 4650 1334 4700 
Q 1684 4750 2022 4750 
Q 2931 4750 3382 4451 
Q 3834 4153 3834 3553 
Q 3834 3144 3618 2883 
Q 3403 2622 2981 2516 
z
" transform="scale(0.015625)"/>
     </defs>
     <use xlink:href="#DejaVuSans-Bold-31"/>
     <use xlink:href="#DejaVuSans-Bold-38" transform="translate(69.580078 0)"/>
     <use xlink:href="#DejaVuSans-Bold-33" transform="translate(139.160156 0)"/>
    </g>
   </g>
   <g id="text_24">
    <!-- 311 -->
    <g style="fill: #cf222e" transform="translate(817.012614 284.871597) scale(0.09 -0.09)">
     <use xlink:href="#DejaVuSans-Bold-33"/>
     <use xlink:href="#DejaVuSans-Bold-31" transform="translate(69.580078 0)"/>
     <use xlink:href="#DejaVuSans-Bold-31" transform="translate(139.160156 0)"/>
    </g>
   </g>
   <g id="text_25">
    <!-- 677 -->
    <g style="fill: #9467bd" transform="translate(817.012614 81.453677) scale(0.09 -0.09)">
     <defs>
      <path id="DejaVuSans-Bold-36" d="M 2316 2303 
Q 2000 2303 1842 2098 
Q 1684 1894 1684 1484 
Q 1684 1075 1842 870 
Q 2000 666 2316 666 
Q 2634 666 2792 870 
Q 2950 1075 2950 1484 
Q 2950 1894 2792 2098 
Q 2634 2303 2316 2303 
z
M 3803 4544 
L 3803 3681 
Q 3506 3822 3243 3889 
Q 2981 3956 2731 3956 
Q 2194 3956 1894 3657 
Q 1594 3359 1544 2772 
Q 1750 2925 1990 3001 
Q 2231 3078 2516 3078 
Q 3231 3078 3670 2659 
Q 4109 2241 4109 1563 
Q 4109 813 3618 361 
Q 3128 -91 2303 -91 
Q 1394 -91 895 523 
Q 397 1138 397 2266 
Q 397 3422 980 4083 
Q 1563 4744 2578 4744 
Q 2900 4744 3203 4694 
Q 3506 4644 3803 4544 
z
" transform="scale(0.015625)"/>
      <path id="DejaVuSans-Bold-37" d="M 428 4666 
L 3944 4666 
L 3944 3988 
L 2125 0 
L 953 0 
L 2675 3781 
L 428 3781 
L 428 4666 
z
" transform="scale(0.015625)"/>
     </defs>
     <use xlink:href="#DejaVuSans-Bold-36"/>
     <use xlink:href="#DejaVuSans-Bold-37" transform="translate(69.580078 0)"/>
     <use xlink:href="#DejaVuSans-Bold-37" transform="translate(139.160156 0)"/>
    </g>
   </g>
   <g id="text_26">
    <!-- Erdős Problems Progress -->
    <g style="fill: #24292f" transform="translate(349.588281 18.397812) scale(0.14 -0.14)">
     <defs>
      <path id="DejaVuSans-Bold-45" d="M 588 4666 
L 3834 4666 
L 3834 3756 
L 1791 3756 
L 1791 2888 
L 3713 2888 
L 3713 1978 
L 1791 1978 
L 1791 909 
L 3903 909 
L 3903 0 
L 588 0 
L 588 4666 
z
" transform="scale(0.015625)"/>
      <path id="DejaVuSans-Bold-72" d="M 3138 2547 
Q 2991 2616 2845 2648 
Q 2700 2681 2553 2681 
Q 2122 2681 1889 2404 
Q 1656 2128 1656 1613 
L 1656 0 
L 538 0 
L 538 3500 
L 1656 3500 
L 1656 2925 
Q 1872 3269 2151 3426 
Q 2431 3584 2822 3584 
Q 2878 3584 2943 3579 
Q 3009 3575 3134 3559 
L 3138 2547 
z
" transform="scale(0.015625)"/>
      <path id="DejaVuSans-Bold-64" d="M 2919 2988 
L 2919 4863 
L 4044 4863 
L 4044 0 
L 2919 0 
L 2919 506 
Q 2688 197 2409 53 
Q 2131 -91 1766 -91 
Q 1119 -91 703 423 
Q 288 938 288 1747 
Q 288 2556 703 3070 
Q 1119 3584 1766 3584 
Q 2128 3584 2408 3439 
Q 2688 3294 2919 2988 
z
M 2181 722 
Q 2541 722 2730 984 
Q 2919 1247 2919 1747 
Q 2919 2247 2730 2509 
Q 2541 2772 2181 2772 
Q 1825 2772 1636 2509 
Q 1447 2247 1447 1747 
Q 1447 1247 1636 984 
Q 1825 722 2181 722 
z
" transform="scale(0.015625)"/>
      <path id="DejaVuSans-Bold-151" d="M 1881 5119 
L 2560 5119 
L 1785 3944 
L 1275 3944 
L 1881 5119 
z
M 3016 5119 
L 3738 5119 
L 2888 3944 
L 2344 3944 
L 3016 5119 
z
M 2203 2784 
Q 1831 2784 1636 2517 
Q 1441 2250 1441 1747 
Q 1441 1244 1636 976 
Q 1831 709 2203 709 
Q 2569 709 2762 976 
Q 2956 1244 2956 1747 
Q 2956 2250 2762 2517 
Q 2569 2784 2203 2784 
z
M 2203 3584 
Q 3106 3584 3614 3096 
Q 4122 2609 4122 1747 
Q 4122 884 3614 396 
Q 3106 -91 2203 -91 
Q 1297 -91 786 396 
Q 275 884 275 1747 
Q 275 2609 786 3096 
Q 1297 3584 2203 3584 
z
" transform="scale(0.015625)"/>
      <path id="DejaVuSans-Bold-73" d="M 3272 3391 
L 3272 2541 
Q 2913 2691 2578 2766 
Q 2244 2841 1947 2841 
Q 1628 2841 1473 2761 
Q 1319 2681 1319 2516 
Q 1319 2381 1436 2309 
Q 1553 2238 1856 2203 
L 2053 2175 
Q 2913 2066 3209 1816 
Q 3506 1566 3506 1031 
Q 3506 472 3093 190 
Q 2681 -91 1863 -91 
Q 1516 -91 1145 -36 
Q 775 19 384 128 
L 384 978 
Q 719 816 1070 734 
Q 1422 653 1784 653 
Q 2113 653 2278 743 
Q 2444 834 2444 1013 
Q 2444 1163 2330 1236 
Q 2216 1309 1875 1350 
L 1678 1375 
Q 931 1469 631 1722 
Q 331 1975 331 2491 
Q 331 3047 712 3315 
Q 1094 3584 1881 3584 
Q 2191 3584 2531 3537 
Q 2872 3491 3272 3391 
z
" transform="scale(0.015625)"/>
      <path id="DejaVuSans-Bold-20" transform="scale(0.015625)"/>
      <path id="DejaVuSans-Bold-50" d="M 588 4666 
L 2584 4666 
Q 3475 4666 3951 4270 
Q 4428 3875 4428 3144 
Q 4428 2409 3951 2014 
Q 3475 1619 2584 1619 
L 1791 1619 
L 1791 0 
L 588 0 
L 588 4666 
z
M 1791 3794 
L 1791 2491 
L 2456 2491 
Q 2806 2491 2997 2661 
Q 3188 2831 3188 3144 
Q 3188 3456 2997 3625 
Q 2806 3794 2456 3794 
L 1791 3794 
z
" transform="scale(0.015625)"/>
      <path id="DejaVuSans-Bold-6f" d="M 2203 2784 
Q 1831 2784 1636 2517 
Q 1441 2250 1441 1747 
Q 1441 1244 1636 976 
Q 1831 709 2203 709 
Q 2569 709 2762 976 
Q 2956 1244 2956 1747 
Q 2956 2250 2762 2517 
Q 2569 2784 2203 2784 
z
M 2203 3584 
Q 3106 3584 3614 3096 
Q 4122 2609 4122 1747 
Q 4122 884 3614 396 
Q 3106 -91 2203 -91 
Q 1297 -91 786 396 
Q 275 884 275 1747 
Q 275 2609 786 3096 
Q 1297 3584 2203 3584 
z
" transform="scale(0.015625)"/>
      <path id="DejaVuSans-Bold-62" d="M 2400 722 
Q 2759 722 2948 984 
Q 3138 1247 3138 1747 
Q 3138 2247 2948 2509 
Q 2759 2772 2400 2772 
Q 2041 2772 1848 2508 
Q 1656 2244 1656 1747 
Q 1656 1250 1848 986 
Q 2041 722 2400 722 
z
M 1656 2988 
Q 1888 3294 2169 3439 
Q 2450 3584 2816 3584 
Q 3463 3584 3878 3070 
Q 4294 2556 4294 1747 
Q 4294 938 3878 423 
Q 3463 -91 2816 -91 
Q 2450 -91 2169 54 
Q 1888 200 1656 506 
L 1656 0 
L 538 0 
L 538 4863 
L 1656 4863 
L 1656 2988 
z
" transform="scale(0.015625)"/>
      <path id="DejaVuSans-Bold-6c" d="M 538 4863 
L 1656 4863 
L 1656 0 
L 538 0 
L 538 4863 
z
" transform="scale(0.015625)"/>
      <path id="DejaVuSans-Bold-65" d="M 4031 1759 
L 4031 1441 
L 1416 1441 
Q 1456 1047 1700 850 
Q 1944 653 2381 653 
Q 2734 653 3104 758 
Q 3475 863 3866 1075 
L 3866 213 
Q 3469 63 3072 -14 
Q 2675 -91 2278 -91 
Q 1328 -91 801 392 
Q 275 875 275 1747 
Q 275 2603 792 3093 
Q 1309 3584 2216 3584 
Q 3041 3584 3536 3087 
Q 4031 2591 4031 1759 
z
M 2881 2131 
Q 2881 2450 2695 2645 
Q 2509 2841 2209 2841 
Q 1884 2841 1681 2658 
Q 1478 2475 1428 2131 
L 2881 2131 
z
" transform="scale(0.015625)"/>
      <path id="DejaVuSans-Bold-6d" d="M 3781 2919 
Q 3994 3244 4286 3414 
Q 4578 3584 4928 3584 
Q 5531 3584 5847 3212 
Q 6163 2841 6163 2131 
L 6163 0 
L 5038 0 
L 5038 1825 
Q 5041 1866 5042 1909 
Q 5044 1953 5044 2034 
Q 5044 2406 4934 2573 
Q 4825 2741 4581 2741 
Q 4263 2741 4089 2478 
Q 3916 2216 3909 1719 
L 3909 0 
L 2784 0 
L 2784 1825 
Q 2784 2406 2684 2573 
Q 2584 2741 2328 2741 
Q 2006 2741 1831 2477 
Q 1656 2213 1656 1722 
L 1656 0 
L 531 0 
L 531 3500 
L 1656 3500 
L 1656 2988 
Q 1863 3284 2130 3434 
Q 2397 3584 2719 3584 
Q 3081 3584 3359 3409 
Q 3638 3234 3781 2919 
z
" transform="scale(0.015625)"/>
      <path id="DejaVuSans-Bold-67" d="M 2919 594 
Q 2688 288 2409 144 
Q 2131 0 1766 0 
Q 1125 0 706 504 
Q 288 1009 288 1791 
Q 288 2575 706 3076 
Q 1125 3578 1766 3578 
Q 2131 3578 2409 3434 
Q 2688 3291 2919 2981 
L 2919 3500 
L 4044 3500 
L 4044 353 
Q 4044 -491 3511 -936 
Q 2978 -1381 1966 -1381 
Q 1638 -1381 1331 -1331 
Q 1025 -1281 716 -1178 
L 716 -306 
Q 1009 -475 1290 -558 
Q 1572 -641 1856 -641 
Q 2406 -641 2662 -400 
Q 2919 -159 2919 353 
L 2919 594 
z
M 2181 2772 
Q 1834 2772 1640 2515 
Q 1447 2259 1447 1791 
Q 1447 1309 1634 1061 
Q 1822 813 2181 813 
Q 2531 813 2725 1069 
Q 2919 1325 2919 1791 
Q 2919 2259 2725 2515 
Q 2531 2772 2181 2772 
z
" transform="scale(0.015625)"/>
     </defs>
     <use xlink:href="#DejaVuSans-Bold-45"/>
     <use xlink:href="#DejaVuSans-Bold-72" transform="translate(68.310547 0)"/>
     <use xlink:href="#DejaVuSans-Bold-64" transform="translate(117.626953 0)"/>
     <use xlink:href="#DejaVuSans-Bold-151" transform="translate(189.208984 0)"/>
     <use xlink:href="#DejaVuSans-Bold-73" transform="translate(257.910156 0)"/>
     <use xlink:href="#DejaVuSans-Bold-20" transform="translate(317.431641 0)"/>
     <use xlink:href="#DejaVuSans-Bold-50" transform="translate(352.246094 0)"/>
     <use xlink:href="#DejaVuSans-Bold-72" transform="translate(425.537109 0)"/>
     <use xlink:href="#DejaVuSans-Bold-6f" transform="translate(474.853516 0)"/>
     <use xlink:href="#DejaVuSans-Bold-62" transform="translate(543.554688 0)"/>
     <use xlink:href="#DejaVuSans-Bold-6c" transform="translate(615.136719 0)"/>
     <use xlink:href="#DejaVuSans-Bold-65" transform="translate(649.414062 0)"/>
     <use xlink:href="#DejaVuSans-Bold-6d" transform="translate(717.236328 0)"/>
     <use xlink:href="#DejaVuSans-Bold-73" transform="translate(821.435547 0)"/>
     <use xlink:href="#DejaVuSans-Bold-20" transform="translate(880.957031 0)"/>
     <use xlink:href="#DejaVuSans-Bold-50" transform="translate(915.771484 0)"/>
     <use xlink:href="#DejaVuSans-Bold-72" transform="translate(989.0625 0)"/>
     <use xlink:href="#DejaVuSans-Bold-6f" transform="translate(1038.378906 0)"/>
     <use xlink:href="#DejaVuSans-Bold-67" transform="translate(1107.080078 0)"/>
     <use xlink:href="#DejaVuSans-Bold-72" transform="translate(1178.662109 0)"/>
     <use xlink:href="#DejaVuSans-Bold-65" transform="translate(1227.978516 0)"/>
     <use xlink:href="#DejaVuSans-Bold-73" transform="translate(1295.800781 0)"/>
     <use xlink:href="#DejaVuSans-Bold-73" transform="translate(1355.322266 0)"/>
    </g>
   </g>
   <g id="legend_1">
    <g id="patch_7">
     <path d="M 55.90125 119.788437 
L 213.771563 119.788437 
Q 215.771563 119.788437 215.771563 117.788437 
L 215.771563 45.397812 
Q 215.771563 43.397812 213.771563 43.397812 
L 55.90125 43.397812 
Q 53.90125 43.397812 53.90125 45.397812 
L 53.90125 117.788437 
Q 53.90125 119.788437 55.90125 119.788437 
z
" style="fill: #f6f8fa; opacity: 0.8; stroke: #d0d7de; stroke-linejoin: miter"/>
    </g>
    <g id="line2d_42">
     <path d="M 57.90125 51.49625 
L 67.90125 51.49625 
L 77.90125 51.49625 
" style="fill: none; stroke: #1a7f37; stroke-width: 2; stroke-linecap: square"/>
    </g>
    <g id="text_27">
     <!-- Solved -->
     <g style="fill: #24292f" transform="translate(85.90125 54.99625) scale(0.1 -0.1)">
      <defs>
       <path id="DejaVuSans-6c" d="M 603 4863 
L 1178 4863 
L 1178 0 
L 603 0 
L 603 4863 
z
" transform="scale(0.015625)"/>
       <path id="DejaVuSans-64" d="M 2906 2969 
L 2906 4863 
L 3481 4863 
L 3481 0 
L 2906 0 
L 2906 525 
Q 2725 213 2448 61 
Q 2172 -91 1784 -91 
Q 1150 -91 751 415 
Q 353 922 353 1747 
Q 353 2572 751 3078 
Q 1150 3584 1784 3584 
Q 2172 3584 2448 3432 
Q 2725 3281 2906 2969 
z
M 947 1747 
Q 947 1113 1208 752 
Q 1469 391 1925 391 
Q 2381 391 2643 752 
Q 2906 1113 2906 1747 
Q 2906 2381 2643 2742 
Q 2381 3103 1925 3103 
Q 1469 3103 1208 2742 
Q 947 2381 947 1747 
z
" transform="scale(0.015625)"/>
      </defs>
      <use xlink:href="#DejaVuSans-53"/>
      <use xlink:href="#DejaVuSans-6f" transform="translate(63.476562 0)"/>
      <use xlink:href="#DejaVuSans-6c" transform="translate(124.658203 0)"/>
      <use xlink:href="#DejaVuSans-76" transform="translate(152.441406 0)"/>
      <use xlink:href="#DejaVuSans-65" transform="translate(211.621094 0)"/>
      <use xlink:href="#DejaVuSans-64" transform="translate(273.144531 0)"/>
     </g>
    </g>
    <g id="line2d_43">
     <path d="M 57.90125 66.174375 
L 67.90125 66.174375 
L 77.90125 66.174375 
" style="fill: none; stroke: #0969da; stroke-width: 2; stroke-linecap: square"/>
    </g>
    <g id="text_28">
     <!-- Lean Formalized Problem -->
     <g style="fill: #24292f" transform="translate(85.90125 69.674375) scale(0.1 -0.1)">
      <defs>
       <path id="DejaVuSans-4c" d="M 628 4666 
L 1259 4666 
L 1259 531 
L 3531 531 
L 3531 0 
L 628 0 
L 628 4666 
z
" transform="scale(0.015625)"/>
       <path id="DejaVuSans-20" transform="scale(0.015625)"/>
       <path id="DejaVuSans-6d" d="M 3328 2828 
Q 3544 3216 3844 3400 
Q 4144 3584 4550 3584 
Q 5097 3584 5394 3201 
Q 5691 2819 5691 2113 
L 5691 0 
L 5113 0 
L 5113 2094 
Q 5113 2597 4934 2840 
Q 4756 3084 4391 3084 
Q 3944 3084 3684 2787 
Q 3425 2491 3425 1978 
L 3425 0 
L 2847 0 
L 2847 2094 
Q 2847 2600 2669 2842 
Q 2491 3084 2119 3084 
Q 1678 3084 1418 2786 
Q 1159 2488 1159 1978 
L 1159 0 
L 581 0 
L 581 3500 
L 1159 3500 
L 1159 2956 
Q 1356 3278 1631 3431 
Q 1906 3584 2284 3584 
Q 2666 3584 2933 3390 
Q 3200 3197 3328 2828 
z
" transform="scale(0.015625)"/>
       <path id="DejaVuSans-69" d="M 603 3500 
L 1178 3500 
L 1178 0 
L 603 0 
L 603 3500 
z
M 603 4863 
L 1178 4863 
L 1178 4134 
L 603 4134 
L 603 4863 
z
" transform="scale(0.015625)"/>
       <path id="DejaVuSans-7a" d="M 353 3500 
L 3084 3500 
L 3084 2975 
L 922 459 
L 3084 459 
L 3084 0 
L 275 0 
L 275 525 
L 2438 3041 
L 353 3041 
L 353 3500 
z
" transform="scale(0.015625)"/>
       <path id="DejaVuSans-50" d="M 1259 4147 
L 1259 2394 
L 2053 2394 
Q 2494 2394 2734 2622 
Q 2975 2850 2975 3272 
Q 2975 3691 2734 3919 
Q 2494 4147 2053 4147 
L 1259 4147 
z
M 628 4666 
L 2053 4666 
Q 2838 4666 3239 4311 
Q 3641 3956 3641 3272 
Q 3641 2581 3239 2228 
Q 2838 1875 2053 1875 
L 1259 1875 
L 1259 0 
L 628 0 
L 628 4666 
z
" transform="scale(0.015625)"/>
      </defs>
      <use xlink:href="#DejaVuSans-4c"/>
      <use xlink:href="#DejaVuSans-65" transform="translate(53.962891 0)"/>
      <use xlink:href="#DejaVuSans-61" transform="translate(115.486328 0)"/>
      <use xlink:href="#DejaVuSans-6e" transform="translate(176.765625 0)"/>
      <use xlink:href="#DejaVuSans-20" transform="translate(240.144531 0)"/>
      <use xlink:href="#DejaVuSans-46" transform="translate(271.931641 0)"/>
      <use xlink:href="#DejaVuSans-6f" transform="translate(325.826172 0)"/>
      <use xlink:href="#DejaVuSans-72" transform="translate(387.007812 0)"/>
      <use xlink:href="#DejaVuSans-6d" transform="translate(426.371094 0)"/>
      <use xlink:href="#DejaVuSans-61" transform="translate(523.783203 0)"/>
      <use xlink:href="#DejaVuSans-6c" transform="translate(585.0625 0)"/>
      <use xlink:href="#DejaVuSans-69" transform="translate(612.845703 0)"/>
      <use xlink:href="#DejaVuSans-7a" transform="translate(640.628906 0)"/>
      <use xlink:href="#DejaVuSans-65" transform="translate(693.119141 0)"/>
      <use xlink:href="#DejaVuSans-64" transform="translate(754.642578 0)"/>
      <use xlink:href="#DejaVuSans-20" transform="translate(818.119141 0)"/>
      <use xlink:href="#DejaVuSans-50" transform="translate(849.90625 0)"/>
      <use xlink:href="#DejaVuSans-72" transform="translate(908.458984 0)"/>
      <use xlink:href="#DejaVuSans-6f" transform="translate(947.322266 0)"/>
      <use xlink:href="#DejaVuSans-62" transform="translate(1008.503906 0)"/>
      <use xlink:href="#DejaVuSans-6c" transform="translate(1071.980469 0)"/>
      <use xlink:href="#DejaVuSans-65" transform="translate(1099.763672 0)"/>
      <use xlink:href="#DejaVuSans-6d" transform="translate(1161.287109 0)"/>
     </g>
    </g>
    <g id="line2d_44">
     <path d="M 57.90125 80.8525 
L 67.90125 80.8525 
L 77.90125 80.8525 
" style="fill: none; stroke: #bf8700; stroke-width: 2; stroke-linecap: square"/>
    </g>
    <g id="text_29">
     <!-- Lean Formalized Solution -->
     <g style="fill: #24292f" transform="translate(85.90125 84.3525) scale(0.1 -0.1)">
      <use xlink:href="#DejaVuSans-4c"/>
      <use xlink:href="#DejaVuSans-65" transform="translate(53.962891 0)"/>
      <use xlink:href="#DejaVuSans-61" transform="translate(115.486328 0)"/>
      <use xlink:href="#DejaVuSans-6e" transform="translate(176.765625 0)"/>
      <use xlink:href="#DejaVuSans-20" transform="translate(240.144531 0)"/>
      <use xlink:href="#DejaVuSans-46" transform="translate(271.931641 0)"/>
      <use xlink:href="#DejaVuSans-6f" transform="translate(325.826172 0)"/>
      <use xlink:href="#DejaVuSans-72" transform="translate(387.007812 0)"/>
      <use xlink:href="#DejaVuSans-6d" transform="translate(426.371094 0)"/>
      <use xlink:href="#DejaVuSans-61" transform="translate(523.783203 0)"/>
      <use xlink:href="#DejaVuSans-6c" transform="translate(585.0625 0)"/>
      <use xlink:href="#DejaVuSans-69" transform="translate(612.845703 0)"/>
      <use xlink:href="#DejaVuSans-7a" transform="translate(640.628906 0)"/>
      <use xlink:href="#DejaVuSans-65" transform="translate(693.119141 0)"/>
      <use xlink:href="#DejaVuSans-64" transform="translate(754.642578 0)"/>
      <use xlink:href="#DejaVuSans-20" transform="translate(818.119141 0)"/>
      <use xlink:href="#DejaVuSans-53" transform="translate(849.90625 0)"/>
      <use xlink:href="#DejaVuSans-6f" transform="translate(913.382812 0)"/>
      <use xlink:href="#DejaVuSans-6c" transform="translate(974.564453 0)"/>
      <use xlink:href="#DejaVuSans-75" transform="translate(1002.347656 0)"/>
      <use xlink:href="#DejaVuSans-74" transform="translate(1065.726562 0)"/>
      <use xlink:href="#DejaVuSans-69" transform="translate(1104.935547 0)"/>
      <use xlink:href="#DejaVuSans-6f" transform="translate(1132.71875 0)"/>
      <use xlink:href="#DejaVuSans-6e" transform="translate(1193.900391 0)"/>
     </g>
    </g>
    <g id="line2d_45">
     <path d="M 57.90125 95.530625 
L 67.90125 95.530625 
L 77.90125 95.530625 
" style="fill: none; stroke: #cf222e; stroke-width: 2; stroke-linecap: square"/>
    </g>
    <g id="text_30">
     <!-- OEIS Linked -->
     <g style="fill: #24292f" transform="translate(85.90125 99.030625) scale(0.1 -0.1)">
      <defs>
       <path id="DejaVuSans-45" d="M 628 4666 
L 3578 4666 
L 3578 4134 
L 1259 4134 
L 1259 2753 
L 3481 2753 
L 3481 2222 
L 1259 2222 
L 1259 531 
L 3634 531 
L 3634 0 
L 628 0 
L 628 4666 
z
" transform="scale(0.015625)"/>
       <path id="DejaVuSans-49" d="M 628 4666 
L 1259 4666 
L 1259 0 
L 628 0 
L 628 4666 
z
" transform="scale(0.015625)"/>
       <path id="DejaVuSans-6b" d="M 581 4863 
L 1159 4863 
L 1159 1991 
L 2875 3500 
L 3609 3500 
L 1753 1863 
L 3688 0 
L 2938 0 
L 1159 1709 
L 1159 0 
L 581 0 
L 581 4863 
z
" transform="scale(0.015625)"/>
      </defs>
      <use xlink:href="#DejaVuSans-4f"/>
      <use xlink:href="#DejaVuSans-45" transform="translate(78.710938 0)"/>
      <use xlink:href="#DejaVuSans-49" transform="translate(141.894531 0)"/>
      <use xlink:href="#DejaVuSans-53" transform="translate(171.386719 0)"/>
      <use xlink:href="#DejaVuSans-20" transform="translate(234.863281 0)"/>
      <use xlink:href="#DejaVuSans-4c" transform="translate(266.650391 0)"/>
      <use xlink:href="#DejaVuSans-69" transform="translate(322.363281 0)"/>
      <use xlink:href="#DejaVuSans-6e" transform="translate(350.146484 0)"/>
      <use xlink:href="#DejaVuSans-6b" transform="translate(413.525391 0)"/>
      <use xlink:href="#DejaVuSans-65" transform="translate(467.810547 0)"/>
      <use xlink:href="#DejaVuSans-64" transform="translate(529.333984 0)"/>
     </g>
    </g>
    <g id="line2d_46">
     <path d="M 57.90125 110.20875 
L 67.90125 110.20875 
L 77.90125 110.20875 
" style="fill: none; stroke: #9467bd; stroke-width: 2; stroke-linecap: square"/>
    </g>
    <g id="text_31">
     <!-- Open Problems -->
     <g style="fill: #24292f" transform="translate(85.90125 113.70875) scale(0.1 -0.1)">
      <defs>
       <path id="DejaVuSans-73" d="M 2834 3397 
L 2834 2853 
Q 2591 2978 2328 3040 
Q 2066 3103 1784 3103 
Q 1356 3103 1142 2972 
Q 928 2841 928 2578 
Q 928 2378 1081 2264 
Q 1234 2150 1697 2047 
L 1894 2003 
Q 2506 1872 2764 1633 
Q 3022 1394 3022 966 
Q 3022 478 2636 193 
Q 2250 -91 1575 -91 
Q 1294 -91 989 -36 
Q 684 19 347 128 
L 347 722 
Q 666 556 975 473 
Q 1284 391 1588 391 
Q 1994 391 2212 530 
Q 2431 669 2431 922 
Q 2431 1156 2273 1281 
Q 2116 1406 1581 1522 
L 1381 1569 
Q 847 1681 609 1914 
Q 372 2147 372 2553 
Q 372 3047 722 3315 
Q 1072 3584 1716 3584 
Q 2034 3584 2315 3537 
Q 2597 3491 2834 3397 
z
" transform="scale(0.015625)"/>
      </defs>
      <use xlink:href="#DejaVuSans-4f"/>
      <use xlink:href="#DejaVuSans-70" transform="translate(78.710938 0)"/>
      <use xlink:href="#DejaVuSans-65" transform="translate(142.1875 0)"/>
      <use xlink:href="#DejaVuSans-6e" transform="translate(203.710938 0)"/>
      <use xlink:href="#DejaVuSans-20" transform="translate(267.089844 0)"/>
      <use xlink:href="#DejaVuSans-50" transform="translate(298.876953 0)"/>
      <use xlink:href="#DejaVuSans-72" transform="translate(357.429688 0)"/>
      <use xlink:href="#DejaVuSans-6f" transform="translate(396.292969 0)"/>
      <use xlink:href="#DejaVuSans-62" transform="translate(457.474609 0)"/>
      <use xlink:href="#DejaVuSans-6c" transform="translate(520.951172 0)"/>
      <use xlink:href="#DejaVuSans-65" transform="translate(548.734375 0)"/>
      <use xlink:href="#DejaVuSans-6d" transform="translate(610.257812 0)"/>
      <use xlink:href="#DejaVuSans-73" transform="translate(707.669922 0)"/>
     </g>
    </g>
   </g>
  </g>
 </g>
 <defs>
  <clipPath id="p6d5e6310aa">
   <rect x="48.90125" y="38.397812" width="799.45" height="416.84"/>
  </clipPath>
 </defs>
</svg>
