<?xml version="1.0" encoding="utf-8" standalone="no"?>
<!DOCTYPE svg PUBLIC "-//W3C//DTD SVG 1.1//EN"
  "http://www.w3.org/Graphics/SVG/1.1/DTD/svg11.dtd">
<svg xmlns:xlink="http://www.w3.org/1999/xlink" width="855.55125pt" height="494.729687pt" viewBox="0 0 855.55125 494.729687" xmlns="http://www.w3.org/2000/svg" version="1.1">
 <metadata>
  <rdf:RDF xmlns:dc="http://purl.org/dc/elements/1.1/" xmlns:cc="http://creativecommons.org/ns#" xmlns:rdf="http://www.w3.org/1999/02/22-rdf-syntax-ns#">
   <cc:Work>
    <dc:type rdf:resource="http://purl.org/dc/dcmitype/StillImage"/>
    <dc:date>2026-03-13T11:40:12.132998</dc:date>
    <dc:format>image/svg+xml</dc:format>
    <dc:creator>
     <cc:Agent>
      <dc:title>Matplotlib v3.10.7, https://matplotlib.org/</dc:title>
     </cc:Agent>
    </dc:creator>
   </cc:Work>
  </rdf:RDF>
 </metadata>
 <defs>
  <style type="text/css">*{stroke-linejoin: round; stroke-linecap: butt}</style>
 </defs>
 <g id="figure_1">
  <g id="patch_1">
   <path d="M 0 494.729687 
L 855.55125 494.729687 
L 855.55125 0 
L 0 0 
z
" style="fill: #0d1117"/>
  </g>
  <g id="axes_1">
   <g id="patch_2">
    <path d="M 48.90125 455.237812 
L 848.35125 455.237812 
L 848.35125 38.397812 
L 48.90125 38.397812 
z
" style="fill: #0d1117"/>
   </g>
   <g id="matplotlib.axis_1">
    <g id="xtick_1">
     <g id="line2d_1">
      <path d="M 86.336309 455.237812 
L 86.336309 38.397812 
" clip-path="url(#p75e5f645e7)" style="fill: none; stroke: #30363d; stroke-opacity: 0.25; stroke-width: 0.5; stroke-linecap: square"/>
     </g>
     <g id="line2d_2">
      <defs>
       <path id="m93d00bce3d" d="M 0 0 
L 0 3.5 
" style="stroke: #c9d1d9; stroke-width: 0.8"/>
      </defs>
      <g>
       <use xlink:href="#m93d00bce3d" x="86.336309" y="455.237812" style="fill: #c9d1d9; stroke: #c9d1d9; stroke-width: 0.8"/>
      </g>
     </g>
     <g id="text_1">
      <!-- Sep -->
      <g style="fill: #c9d1d9" transform="translate(76.911309 469.83625) scale(0.1 -0.1)">
       <defs>
        <path id="DejaVuSans-53" d="M 3425 4513 
L 3425 3897 
Q 3066 4069 2747 4153 
Q 2428 4238 2131 4238 
Q 1616 4238 1336 4038 
Q 1056 3838 1056 3469 
Q 1056 3159 1242 3001 
Q 1428 2844 1947 2747 
L 2328 2669 
Q 3034 2534 3370 2195 
Q 3706 1856 3706 1288 
Q 3706 609 3251 259 
Q 2797 -91 1919 -91 
Q 1588 -91 1214 -16 
Q 841 59 441 206 
L 441 856 
Q 825 641 1194 531 
Q 1563 422 1919 422 
Q 2459 422 2753 634 
Q 3047 847 3047 1241 
Q 3047 1584 2836 1778 
Q 2625 1972 2144 2069 
L 1759 2144 
Q 1053 2284 737 2584 
Q 422 2884 422 3419 
Q 422 4038 858 4394 
Q 1294 4750 2059 4750 
Q 2388 4750 2728 4690 
Q 3069 4631 3425 4513 
z
" transform="scale(0.015625)"/>
        <path id="DejaVuSans-65" d="M 3597 1894 
L 3597 1613 
L 953 1613 
Q 991 1019 1311 708 
Q 1631 397 2203 397 
Q 2534 397 2845 478 
Q 3156 559 3463 722 
L 3463 178 
Q 3153 47 2828 -22 
Q 2503 -91 2169 -91 
Q 1331 -91 842 396 
Q 353 884 353 1716 
Q 353 2575 817 3079 
Q 1281 3584 2069 3584 
Q 2775 3584 3186 3129 
Q 3597 2675 3597 1894 
z
M 3022 2063 
Q 3016 2534 2758 2815 
Q 2500 3097 2075 3097 
Q 1594 3097 1305 2825 
Q 1016 2553 972 2059 
L 3022 2063 
z
" transform="scale(0.015625)"/>
        <path id="DejaVuSans-70" d="M 1159 525 
L 1159 -1331 
L 581 -1331 
L 581 3500 
L 1159 3500 
L 1159 2969 
Q 1341 3281 1617 3432 
Q 1894 3584 2278 3584 
Q 2916 3584 3314 3078 
Q 3713 2572 3713 1747 
Q 3713 922 3314 415 
Q 2916 -91 2278 -91 
Q 1894 -91 1617 61 
Q 1341 213 1159 525 
z
M 3116 1747 
Q 3116 2381 2855 2742 
Q 2594 3103 2138 3103 
Q 1681 3103 1420 2742 
Q 1159 2381 1159 1747 
Q 1159 1113 1420 752 
Q 1681 391 2138 391 
Q 2594 391 2855 752 
Q 3116 1113 3116 1747 
z
" transform="scale(0.015625)"/>
       </defs>
       <use xlink:href="#DejaVuSans-53"/>
       <use xlink:href="#DejaVuSans-65" transform="translate(63.476562 0)"/>
       <use xlink:href="#DejaVuSans-70" transform="translate(125 0)"/>
      </g>
     </g>
    </g>
    <g id="xtick_2">
     <g id="line2d_3">
      <path d="M 198.852265 455.237812 
L 198.852265 38.397812 
" clip-path="url(#p75e5f645e7)" style="fill: none; stroke: #30363d; stroke-opacity: 0.25; stroke-width: 0.5; stroke-linecap: square"/>
     </g>
     <g id="line2d_4">
      <g>
       <use xlink:href="#m93d00bce3d" x="198.852265" y="455.237812" style="fill: #c9d1d9; stroke: #c9d1d9; stroke-width: 0.8"/>
      </g>
     </g>
     <g id="text_2">
      <!-- Oct -->
      <g style="fill: #c9d1d9" transform="translate(190.206953 469.83625) scale(0.1 -0.1)">
       <defs>
        <path id="DejaVuSans-4f" d="M 2522 4238 
Q 1834 4238 1429 3725 
Q 1025 3213 1025 2328 
Q 1025 1447 1429 934 
Q 1834 422 2522 422 
Q 3209 422 3611 934 
Q 4013 1447 4013 2328 
Q 4013 3213 3611 3725 
Q 3209 4238 2522 4238 
z
M 2522 4750 
Q 3503 4750 4090 4092 
Q 4678 3434 4678 2328 
Q 4678 1225 4090 567 
Q 3503 -91 2522 -91 
Q 1538 -91 948 565 
Q 359 1222 359 2328 
Q 359 3434 948 4092 
Q 1538 4750 2522 4750 
z
" transform="scale(0.015625)"/>
        <path id="DejaVuSans-63" d="M 3122 3366 
L 3122 2828 
Q 2878 2963 2633 3030 
Q 2388 3097 2138 3097 
Q 1578 3097 1268 2742 
Q 959 2388 959 1747 
Q 959 1106 1268 751 
Q 1578 397 2138 397 
Q 2388 397 2633 464 
Q 2878 531 3122 666 
L 3122 134 
Q 2881 22 2623 -34 
Q 2366 -91 2075 -91 
Q 1284 -91 818 406 
Q 353 903 353 1747 
Q 353 2603 823 3093 
Q 1294 3584 2113 3584 
Q 2378 3584 2631 3529 
Q 2884 3475 3122 3366 
z
" transform="scale(0.015625)"/>
        <path id="DejaVuSans-74" d="M 1172 4494 
L 1172 3500 
L 2356 3500 
L 2356 3053 
L 1172 3053 
L 1172 1153 
Q 1172 725 1289 603 
Q 1406 481 1766 481 
L 2356 481 
L 2356 0 
L 1766 0 
Q 1100 0 847 248 
Q 594 497 594 1153 
L 594 3053 
L 172 3053 
L 172 3500 
L 594 3500 
L 594 4494 
L 1172 4494 
z
" transform="scale(0.015625)"/>
       </defs>
       <use xlink:href="#DejaVuSans-4f"/>
       <use xlink:href="#DejaVuSans-63" transform="translate(78.710938 0)"/>
       <use xlink:href="#DejaVuSans-74" transform="translate(133.691406 0)"/>
      </g>
     </g>
    </g>
    <g id="xtick_3">
     <g id="line2d_5">
      <path d="M 315.118754 455.237812 
L 315.118754 38.397812 
" clip-path="url(#p75e5f645e7)" style="fill: none; stroke: #30363d; stroke-opacity: 0.25; stroke-width: 0.5; stroke-linecap: square"/>
     </g>
     <g id="line2d_6">
      <g>
       <use xlink:href="#m93d00bce3d" x="315.118754" y="455.237812" style="fill: #c9d1d9; stroke: #c9d1d9; stroke-width: 0.8"/>
      </g>
     </g>
     <g id="text_3">
      <!-- Nov -->
      <g style="fill: #c9d1d9" transform="translate(305.359379 469.83625) scale(0.1 -0.1)">
       <defs>
        <path id="DejaVuSans-4e" d="M 628 4666 
L 1478 4666 
L 3547 763 
L 3547 4666 
L 4159 4666 
L 4159 0 
L 3309 0 
L 1241 3903 
L 1241 0 
L 628 0 
L 628 4666 
z
" transform="scale(0.015625)"/>
        <path id="DejaVuSans-6f" d="M 1959 3097 
Q 1497 3097 1228 2736 
Q 959 2375 959 1747 
Q 959 1119 1226 758 
Q 1494 397 1959 397 
Q 2419 397 2687 759 
Q 2956 1122 2956 1747 
Q 2956 2369 2687 2733 
Q 2419 3097 1959 3097 
z
M 1959 3584 
Q 2709 3584 3137 3096 
Q 3566 2609 3566 1747 
Q 3566 888 3137 398 
Q 2709 -91 1959 -91 
Q 1206 -91 779 398 
Q 353 888 353 1747 
Q 353 2609 779 3096 
Q 1206 3584 1959 3584 
z
" transform="scale(0.015625)"/>
        <path id="DejaVuSans-76" d="M 191 3500 
L 800 3500 
L 1894 563 
L 2988 3500 
L 3597 3500 
L 2284 0 
L 1503 0 
L 191 3500 
z
" transform="scale(0.015625)"/>
       </defs>
       <use xlink:href="#DejaVuSans-4e"/>
       <use xlink:href="#DejaVuSans-6f" transform="translate(74.804688 0)"/>
       <use xlink:href="#DejaVuSans-76" transform="translate(135.986328 0)"/>
      </g>
     </g>
    </g>
    <g id="xtick_4">
     <g id="line2d_7">
      <path d="M 427.63471 455.237812 
L 427.63471 38.397812 
" clip-path="url(#p75e5f645e7)" style="fill: none; stroke: #30363d; stroke-opacity: 0.25; stroke-width: 0.5; stroke-linecap: square"/>
     </g>
     <g id="line2d_8">
      <g>
       <use xlink:href="#m93d00bce3d" x="427.63471" y="455.237812" style="fill: #c9d1d9; stroke: #c9d1d9; stroke-width: 0.8"/>
      </g>
     </g>
     <g id="text_4">
      <!-- Dec -->
      <g style="fill: #c9d1d9" transform="translate(417.958929 469.83625) scale(0.1 -0.1)">
       <defs>
        <path id="DejaVuSans-44" d="M 1259 4147 
L 1259 519 
L 2022 519 
Q 2988 519 3436 956 
Q 3884 1394 3884 2338 
Q 3884 3275 3436 3711 
Q 2988 4147 2022 4147 
L 1259 4147 
z
M 628 4666 
L 1925 4666 
Q 3281 4666 3915 4102 
Q 4550 3538 4550 2338 
Q 4550 1131 3912 565 
Q 3275 0 1925 0 
L 628 0 
L 628 4666 
z
" transform="scale(0.015625)"/>
       </defs>
       <use xlink:href="#DejaVuSans-44"/>
       <use xlink:href="#DejaVuSans-65" transform="translate(77.001953 0)"/>
       <use xlink:href="#DejaVuSans-63" transform="translate(138.525391 0)"/>
      </g>
     </g>
    </g>
    <g id="xtick_5">
     <g id="line2d_9">
      <path d="M 543.901198 455.237812 
L 543.901198 38.397812 
" clip-path="url(#p75e5f645e7)" style="fill: none; stroke: #30363d; stroke-opacity: 0.25; stroke-width: 0.5; stroke-linecap: square"/>
     </g>
     <g id="line2d_10">
      <g>
       <use xlink:href="#m93d00bce3d" x="543.901198" y="455.237812" style="fill: #c9d1d9; stroke: #c9d1d9; stroke-width: 0.8"/>
      </g>
     </g>
     <g id="text_5">
      <!-- 2026 -->
      <g style="fill: #c9d1d9" transform="translate(531.176198 469.83625) scale(0.1 -0.1)">
       <defs>
        <path id="DejaVuSans-32" d="M 1228 531 
L 3431 531 
L 3431 0 
L 469 0 
L 469 531 
Q 828 903 1448 1529 
Q 2069 2156 2228 2338 
Q 2531 2678 2651 2914 
Q 2772 3150 2772 3378 
Q 2772 3750 2511 3984 
Q 2250 4219 1831 4219 
Q 1534 4219 1204 4116 
Q 875 4013 500 3803 
L 500 4441 
Q 881 4594 1212 4672 
Q 1544 4750 1819 4750 
Q 2544 4750 2975 4387 
Q 3406 4025 3406 3419 
Q 3406 3131 3298 2873 
Q 3191 2616 2906 2266 
Q 2828 2175 2409 1742 
Q 1991 1309 1228 531 
z
" transform="scale(0.015625)"/>
        <path id="DejaVuSans-30" d="M 2034 4250 
Q 1547 4250 1301 3770 
Q 1056 3291 1056 2328 
Q 1056 1369 1301 889 
Q 1547 409 2034 409 
Q 2525 409 2770 889 
Q 3016 1369 3016 2328 
Q 3016 3291 2770 3770 
Q 2525 4250 2034 4250 
z
M 2034 4750 
Q 2819 4750 3233 4129 
Q 3647 3509 3647 2328 
Q 3647 1150 3233 529 
Q 2819 -91 2034 -91 
Q 1250 -91 836 529 
Q 422 1150 422 2328 
Q 422 3509 836 4129 
Q 1250 4750 2034 4750 
z
" transform="scale(0.015625)"/>
        <path id="DejaVuSans-36" d="M 2113 2584 
Q 1688 2584 1439 2293 
Q 1191 2003 1191 1497 
Q 1191 994 1439 701 
Q 1688 409 2113 409 
Q 2538 409 2786 701 
Q 3034 994 3034 1497 
Q 3034 2003 2786 2293 
Q 2538 2584 2113 2584 
z
M 3366 4563 
L 3366 3988 
Q 3128 4100 2886 4159 
Q 2644 4219 2406 4219 
Q 1781 4219 1451 3797 
Q 1122 3375 1075 2522 
Q 1259 2794 1537 2939 
Q 1816 3084 2150 3084 
Q 2853 3084 3261 2657 
Q 3669 2231 3669 1497 
Q 3669 778 3244 343 
Q 2819 -91 2113 -91 
Q 1303 -91 875 529 
Q 447 1150 447 2328 
Q 447 3434 972 4092 
Q 1497 4750 2381 4750 
Q 2619 4750 2861 4703 
Q 3103 4656 3366 4563 
z
" transform="scale(0.015625)"/>
       </defs>
       <use xlink:href="#DejaVuSans-32"/>
       <use xlink:href="#DejaVuSans-30" transform="translate(63.623047 0)"/>
       <use xlink:href="#DejaVuSans-32" transform="translate(127.246094 0)"/>
       <use xlink:href="#DejaVuSans-36" transform="translate(190.869141 0)"/>
      </g>
     </g>
    </g>
    <g id="xtick_6">
     <g id="line2d_11">
      <path d="M 660.167686 455.237812 
L 660.167686 38.397812 
" clip-path="url(#p75e5f645e7)" style="fill: none; stroke: #30363d; stroke-opacity: 0.25; stroke-width: 0.5; stroke-linecap: square"/>
     </g>
     <g id="line2d_12">
      <g>
       <use xlink:href="#m93d00bce3d" x="660.167686" y="455.237812" style="fill: #c9d1d9; stroke: #c9d1d9; stroke-width: 0.8"/>
      </g>
     </g>
     <g id="text_6">
      <!-- Feb -->
      <g style="fill: #c9d1d9" transform="translate(651.316123 469.83625) scale(0.1 -0.1)">
       <defs>
        <path id="DejaVuSans-46" d="M 628 4666 
L 3309 4666 
L 3309 4134 
L 1259 4134 
L 1259 2759 
L 3109 2759 
L 3109 2228 
L 1259 2228 
L 1259 0 
L 628 0 
L 628 4666 
z
" transform="scale(0.015625)"/>
        <path id="DejaVuSans-62" d="M 3116 1747 
Q 3116 2381 2855 2742 
Q 2594 3103 2138 3103 
Q 1681 3103 1420 2742 
Q 1159 2381 1159 1747 
Q 1159 1113 1420 752 
Q 1681 391 2138 391 
Q 2594 391 2855 752 
Q 3116 1113 3116 1747 
z
M 1159 2969 
Q 1341 3281 1617 3432 
Q 1894 3584 2278 3584 
Q 2916 3584 3314 3078 
Q 3713 2572 3713 1747 
Q 3713 922 3314 415 
Q 2916 -91 2278 -91 
Q 1894 -91 1617 61 
Q 1341 213 1159 525 
L 1159 0 
L 581 0 
L 581 4863 
L 1159 4863 
L 1159 2969 
z
" transform="scale(0.015625)"/>
       </defs>
       <use xlink:href="#DejaVuSans-46"/>
       <use xlink:href="#DejaVuSans-65" transform="translate(52.019531 0)"/>
       <use xlink:href="#DejaVuSans-62" transform="translate(113.542969 0)"/>
      </g>
     </g>
    </g>
    <g id="xtick_7">
     <g id="line2d_13">
      <path d="M 765.182578 455.237812 
L 765.182578 38.397812 
" clip-path="url(#p75e5f645e7)" style="fill: none; stroke: #30363d; stroke-opacity: 0.25; stroke-width: 0.5; stroke-linecap: square"/>
     </g>
     <g id="line2d_14">
      <g>
       <use xlink:href="#m93d00bce3d" x="765.182578" y="455.237812" style="fill: #c9d1d9; stroke: #c9d1d9; stroke-width: 0.8"/>
      </g>
     </g>
     <g id="text_7">
      <!-- Mar -->
      <g style="fill: #c9d1d9" transform="translate(755.748985 469.83625) scale(0.1 -0.1)">
       <defs>
        <path id="DejaVuSans-4d" d="M 628 4666 
L 1569 4666 
L 2759 1491 
L 3956 4666 
L 4897 4666 
L 4897 0 
L 4281 0 
L 4281 4097 
L 3078 897 
L 2444 897 
L 1241 4097 
L 1241 0 
L 628 0 
L 628 4666 
z
" transform="scale(0.015625)"/>
        <path id="DejaVuSans-61" d="M 2194 1759 
Q 1497 1759 1228 1600 
Q 959 1441 959 1056 
Q 959 750 1161 570 
Q 1363 391 1709 391 
Q 2188 391 2477 730 
Q 2766 1069 2766 1631 
L 2766 1759 
L 2194 1759 
z
M 3341 1997 
L 3341 0 
L 2766 0 
L 2766 531 
Q 2569 213 2275 61 
Q 1981 -91 1556 -91 
Q 1019 -91 701 211 
Q 384 513 384 1019 
Q 384 1609 779 1909 
Q 1175 2209 1959 2209 
L 2766 2209 
L 2766 2266 
Q 2766 2663 2505 2880 
Q 2244 3097 1772 3097 
Q 1472 3097 1187 3025 
Q 903 2953 641 2809 
L 641 3341 
Q 956 3463 1253 3523 
Q 1550 3584 1831 3584 
Q 2591 3584 2966 3190 
Q 3341 2797 3341 1997 
z
" transform="scale(0.015625)"/>
        <path id="DejaVuSans-72" d="M 2631 2963 
Q 2534 3019 2420 3045 
Q 2306 3072 2169 3072 
Q 1681 3072 1420 2755 
Q 1159 2438 1159 1844 
L 1159 0 
L 581 0 
L 581 3500 
L 1159 3500 
L 1159 2956 
Q 1341 3275 1631 3429 
Q 1922 3584 2338 3584 
Q 2397 3584 2469 3576 
Q 2541 3569 2628 3553 
L 2631 2963 
z
" transform="scale(0.015625)"/>
       </defs>
       <use xlink:href="#DejaVuSans-4d"/>
       <use xlink:href="#DejaVuSans-61" transform="translate(86.279297 0)"/>
       <use xlink:href="#DejaVuSans-72" transform="translate(147.558594 0)"/>
      </g>
     </g>
    </g>
    <g id="text_8">
     <!-- Date -->
     <g style="fill: #c9d1d9" transform="translate(434.285313 485.034062) scale(0.12 -0.12)">
      <use xlink:href="#DejaVuSans-44"/>
      <use xlink:href="#DejaVuSans-61" transform="translate(77.001953 0)"/>
      <use xlink:href="#DejaVuSans-74" transform="translate(138.28125 0)"/>
      <use xlink:href="#DejaVuSans-65" transform="translate(177.490234 0)"/>
     </g>
    </g>
   </g>
   <g id="matplotlib.axis_2">
    <g id="ytick_1">
     <g id="line2d_15">
      <path d="M 48.90125 455.237812 
L 848.35125 455.237812 
" clip-path="url(#p75e5f645e7)" style="fill: none; stroke: #30363d; stroke-opacity: 0.25; stroke-width: 0.5; stroke-linecap: square"/>
     </g>
     <g id="line2d_16">
      <defs>
       <path id="m7e4471593e" d="M 0 0 
L -3.5 0 
" style="stroke: #c9d1d9; stroke-width: 0.8"/>
      </defs>
      <g>
       <use xlink:href="#m7e4471593e" x="48.90125" y="455.237812" style="fill: #c9d1d9; stroke: #c9d1d9; stroke-width: 0.8"/>
      </g>
     </g>
     <g id="text_9">
      <!-- 0 -->
      <g style="fill: #c9d1d9" transform="translate(35.53875 459.037031) scale(0.1 -0.1)">
       <use xlink:href="#DejaVuSans-30"/>
      </g>
     </g>
    </g>
    <g id="ytick_2">
     <g id="line2d_17">
      <path d="M 48.90125 399.659146 
L 848.35125 399.659146 
" clip-path="url(#p75e5f645e7)" style="fill: none; stroke: #30363d; stroke-opacity: 0.25; stroke-width: 0.5; stroke-linecap: square"/>
     </g>
     <g id="line2d_18">
      <g>
       <use xlink:href="#m7e4471593e" x="48.90125" y="399.659146" style="fill: #c9d1d9; stroke: #c9d1d9; stroke-width: 0.8"/>
      </g>
     </g>
     <g id="text_10">
      <!-- 100 -->
      <g style="fill: #c9d1d9" transform="translate(22.81375 403.458365) scale(0.1 -0.1)">
       <defs>
        <path id="DejaVuSans-31" d="M 794 531 
L 1825 531 
L 1825 4091 
L 703 3866 
L 703 4441 
L 1819 4666 
L 2450 4666 
L 2450 531 
L 3481 531 
L 3481 0 
L 794 0 
L 794 531 
z
" transform="scale(0.015625)"/>
       </defs>
       <use xlink:href="#DejaVuSans-31"/>
       <use xlink:href="#DejaVuSans-30" transform="translate(63.623047 0)"/>
       <use xlink:href="#DejaVuSans-30" transform="translate(127.246094 0)"/>
      </g>
     </g>
    </g>
    <g id="ytick_3">
     <g id="line2d_19">
      <path d="M 48.90125 344.080479 
L 848.35125 344.080479 
" clip-path="url(#p75e5f645e7)" style="fill: none; stroke: #30363d; stroke-opacity: 0.25; stroke-width: 0.5; stroke-linecap: square"/>
     </g>
     <g id="line2d_20">
      <g>
       <use xlink:href="#m7e4471593e" x="48.90125" y="344.080479" style="fill: #c9d1d9; stroke: #c9d1d9; stroke-width: 0.8"/>
      </g>
     </g>
     <g id="text_11">
      <!-- 200 -->
      <g style="fill: #c9d1d9" transform="translate(22.81375 347.879698) scale(0.1 -0.1)">
       <use xlink:href="#DejaVuSans-32"/>
       <use xlink:href="#DejaVuSans-30" transform="translate(63.623047 0)"/>
       <use xlink:href="#DejaVuSans-30" transform="translate(127.246094 0)"/>
      </g>
     </g>
    </g>
    <g id="ytick_4">
     <g id="line2d_21">
      <path d="M 48.90125 288.501812 
L 848.35125 288.501812 
" clip-path="url(#p75e5f645e7)" style="fill: none; stroke: #30363d; stroke-opacity: 0.25; stroke-width: 0.5; stroke-linecap: square"/>
     </g>
     <g id="line2d_22">
      <g>
       <use xlink:href="#m7e4471593e" x="48.90125" y="288.501812" style="fill: #c9d1d9; stroke: #c9d1d9; stroke-width: 0.8"/>
      </g>
     </g>
     <g id="text_12">
      <!-- 300 -->
      <g style="fill: #c9d1d9" transform="translate(22.81375 292.301031) scale(0.1 -0.1)">
       <defs>
        <path id="DejaVuSans-33" d="M 2597 2516 
Q 3050 2419 3304 2112 
Q 3559 1806 3559 1356 
Q 3559 666 3084 287 
Q 2609 -91 1734 -91 
Q 1441 -91 1130 -33 
Q 819 25 488 141 
L 488 750 
Q 750 597 1062 519 
Q 1375 441 1716 441 
Q 2309 441 2620 675 
Q 2931 909 2931 1356 
Q 2931 1769 2642 2001 
Q 2353 2234 1838 2234 
L 1294 2234 
L 1294 2753 
L 1863 2753 
Q 2328 2753 2575 2939 
Q 2822 3125 2822 3475 
Q 2822 3834 2567 4026 
Q 2313 4219 1838 4219 
Q 1578 4219 1281 4162 
Q 984 4106 628 3988 
L 628 4550 
Q 988 4650 1302 4700 
Q 1616 4750 1894 4750 
Q 2613 4750 3031 4423 
Q 3450 4097 3450 3541 
Q 3450 3153 3228 2886 
Q 3006 2619 2597 2516 
z
" transform="scale(0.015625)"/>
       </defs>
       <use xlink:href="#DejaVuSans-33"/>
       <use xlink:href="#DejaVuSans-30" transform="translate(63.623047 0)"/>
       <use xlink:href="#DejaVuSans-30" transform="translate(127.246094 0)"/>
      </g>
     </g>
    </g>
    <g id="ytick_5">
     <g id="line2d_23">
      <path d="M 48.90125 232.923146 
L 848.35125 232.923146 
" clip-path="url(#p75e5f645e7)" style="fill: none; stroke: #30363d; stroke-opacity: 0.25; stroke-width: 0.5; stroke-linecap: square"/>
     </g>
     <g id="line2d_24">
      <g>
       <use xlink:href="#m7e4471593e" x="48.90125" y="232.923146" style="fill: #c9d1d9; stroke: #c9d1d9; stroke-width: 0.8"/>
      </g>
     </g>
     <g id="text_13">
      <!-- 400 -->
      <g style="fill: #c9d1d9" transform="translate(22.81375 236.722365) scale(0.1 -0.1)">
       <defs>
        <path id="DejaVuSans-34" d="M 2419 4116 
L 825 1625 
L 2419 1625 
L 2419 4116 
z
M 2253 4666 
L 3047 4666 
L 3047 1625 
L 3713 1625 
L 3713 1100 
L 3047 1100 
L 3047 0 
L 2419 0 
L 2419 1100 
L 313 1100 
L 313 1709 
L 2253 4666 
z
" transform="scale(0.015625)"/>
       </defs>
       <use xlink:href="#DejaVuSans-34"/>
       <use xlink:href="#DejaVuSans-30" transform="translate(63.623047 0)"/>
       <use xlink:href="#DejaVuSans-30" transform="translate(127.246094 0)"/>
      </g>
     </g>
    </g>
    <g id="ytick_6">
     <g id="line2d_25">
      <path d="M 48.90125 177.344479 
L 848.35125 177.344479 
" clip-path="url(#p75e5f645e7)" style="fill: none; stroke: #30363d; stroke-opacity: 0.25; stroke-width: 0.5; stroke-linecap: square"/>
     </g>
     <g id="line2d_26">
      <g>
       <use xlink:href="#m7e4471593e" x="48.90125" y="177.344479" style="fill: #c9d1d9; stroke: #c9d1d9; stroke-width: 0.8"/>
      </g>
     </g>
     <g id="text_14">
      <!-- 500 -->
      <g style="fill: #c9d1d9" transform="translate(22.81375 181.143698) scale(0.1 -0.1)">
       <defs>
        <path id="DejaVuSans-35" d="M 691 4666 
L 3169 4666 
L 3169 4134 
L 1269 4134 
L 1269 2991 
Q 1406 3038 1543 3061 
Q 1681 3084 1819 3084 
Q 2600 3084 3056 2656 
Q 3513 2228 3513 1497 
Q 3513 744 3044 326 
Q 2575 -91 1722 -91 
Q 1428 -91 1123 -41 
Q 819 9 494 109 
L 494 744 
Q 775 591 1075 516 
Q 1375 441 1709 441 
Q 2250 441 2565 725 
Q 2881 1009 2881 1497 
Q 2881 1984 2565 2268 
Q 2250 2553 1709 2553 
Q 1456 2553 1204 2497 
Q 953 2441 691 2322 
L 691 4666 
z
" transform="scale(0.015625)"/>
       </defs>
       <use xlink:href="#DejaVuSans-35"/>
       <use xlink:href="#DejaVuSans-30" transform="translate(63.623047 0)"/>
       <use xlink:href="#DejaVuSans-30" transform="translate(127.246094 0)"/>
      </g>
     </g>
    </g>
    <g id="ytick_7">
     <g id="line2d_27">
      <path d="M 48.90125 121.765812 
L 848.35125 121.765812 
" clip-path="url(#p75e5f645e7)" style="fill: none; stroke: #30363d; stroke-opacity: 0.25; stroke-width: 0.5; stroke-linecap: square"/>
     </g>
     <g id="line2d_28">
      <g>
       <use xlink:href="#m7e4471593e" x="48.90125" y="121.765812" style="fill: #c9d1d9; stroke: #c9d1d9; stroke-width: 0.8"/>
      </g>
     </g>
     <g id="text_15">
      <!-- 600 -->
      <g style="fill: #c9d1d9" transform="translate(22.81375 125.565031) scale(0.1 -0.1)">
       <use xlink:href="#DejaVuSans-36"/>
       <use xlink:href="#DejaVuSans-30" transform="translate(63.623047 0)"/>
       <use xlink:href="#DejaVuSans-30" transform="translate(127.246094 0)"/>
      </g>
     </g>
    </g>
    <g id="ytick_8">
     <g id="line2d_29">
      <path d="M 48.90125 66.187146 
L 848.35125 66.187146 
" clip-path="url(#p75e5f645e7)" style="fill: none; stroke: #30363d; stroke-opacity: 0.25; stroke-width: 0.5; stroke-linecap: square"/>
     </g>
     <g id="line2d_30">
      <g>
       <use xlink:href="#m7e4471593e" x="48.90125" y="66.187146" style="fill: #c9d1d9; stroke: #c9d1d9; stroke-width: 0.8"/>
      </g>
     </g>
     <g id="text_16">
      <!-- 700 -->
      <g style="fill: #c9d1d9" transform="translate(22.81375 69.986365) scale(0.1 -0.1)">
       <defs>
        <path id="DejaVuSans-37" d="M 525 4666 
L 3525 4666 
L 3525 4397 
L 1831 0 
L 1172 0 
L 2766 4134 
L 525 4134 
L 525 4666 
z
" transform="scale(0.015625)"/>
       </defs>
       <use xlink:href="#DejaVuSans-37"/>
       <use xlink:href="#DejaVuSans-30" transform="translate(63.623047 0)"/>
       <use xlink:href="#DejaVuSans-30" transform="translate(127.246094 0)"/>
      </g>
     </g>
    </g>
    <g id="text_17">
     <!-- Count -->
     <g style="fill: #c9d1d9" transform="translate(16.318125 264.635937) rotate(-90) scale(0.12 -0.12)">
      <defs>
       <path id="DejaVuSans-43" d="M 4122 4306 
L 4122 3641 
Q 3803 3938 3442 4084 
Q 3081 4231 2675 4231 
Q 1875 4231 1450 3742 
Q 1025 3253 1025 2328 
Q 1025 1406 1450 917 
Q 1875 428 2675 428 
Q 3081 428 3442 575 
Q 3803 722 4122 1019 
L 4122 359 
Q 3791 134 3420 21 
Q 3050 -91 2638 -91 
Q 1578 -91 968 557 
Q 359 1206 359 2328 
Q 359 3453 968 4101 
Q 1578 4750 2638 4750 
Q 3056 4750 3426 4639 
Q 3797 4528 4122 4306 
z
" transform="scale(0.015625)"/>
       <path id="DejaVuSans-75" d="M 544 1381 
L 544 3500 
L 1119 3500 
L 1119 1403 
Q 1119 906 1312 657 
Q 1506 409 1894 409 
Q 2359 409 2629 706 
Q 2900 1003 2900 1516 
L 2900 3500 
L 3475 3500 
L 3475 0 
L 2900 0 
L 2900 538 
Q 2691 219 2414 64 
Q 2138 -91 1772 -91 
Q 1169 -91 856 284 
Q 544 659 544 1381 
z
M 1991 3584 
L 1991 3584 
z
" transform="scale(0.015625)"/>
       <path id="DejaVuSans-6e" d="M 3513 2113 
L 3513 0 
L 2938 0 
L 2938 2094 
Q 2938 2591 2744 2837 
Q 2550 3084 2163 3084 
Q 1697 3084 1428 2787 
Q 1159 2491 1159 1978 
L 1159 0 
L 581 0 
L 581 3500 
L 1159 3500 
L 1159 2956 
Q 1366 3272 1645 3428 
Q 1925 3584 2291 3584 
Q 2894 3584 3203 3211 
Q 3513 2838 3513 2113 
z
" transform="scale(0.015625)"/>
      </defs>
      <use xlink:href="#DejaVuSans-43"/>
      <use xlink:href="#DejaVuSans-6f" transform="translate(69.824219 0)"/>
      <use xlink:href="#DejaVuSans-75" transform="translate(131.005859 0)"/>
      <use xlink:href="#DejaVuSans-6e" transform="translate(194.384766 0)"/>
      <use xlink:href="#DejaVuSans-74" transform="translate(257.763672 0)"/>
     </g>
    </g>
   </g>
   <g id="line2d_31">
    <path d="M 85.239886 454.682026 
L 85.311728 454.682026 
L 85.357308 454.126239 
L 85.58273 454.126239 
L 85.684698 257.933546 
L 88.844217 257.933546 
L 88.858021 261.268266 
L 92.513227 261.268266 
L 92.690118 260.712479 
L 93.197569 260.712479 
L 93.608825 260.156692 
L 96.157146 259.600906 
L 96.207457 260.156692 
L 96.32961 259.600906 
L 104.221007 259.600906 
L 108.981752 260.712479 
L 109.690099 259.600906 
L 110.207316 259.600906 
L 111.510886 259.045119 
L 112.056276 256.821972 
L 113.118232 256.821972 
L 114.665761 260.712479 
L 114.766166 256.821972 
L 115.95366 256.266186 
L 119.044159 256.266186 
L 119.859336 255.710399 
L 121.070185 255.710399 
L 121.394753 254.598826 
L 128.942004 254.598826 
L 129.492473 253.487252 
L 129.520689 252.375679 
L 131.897284 252.375679 
L 135.401687 251.264106 
L 137.240012 251.264106 
L 137.267838 250.708319 
L 141.489617 250.708319 
L 142.536901 247.929386 
L 145.851303 247.929386 
L 145.87431 247.373599 
L 164.436621 247.373599 
L 167.906384 246.817812 
L 168.024847 247.373599 
L 171.623447 246.817812 
L 184.146274 246.817812 
L 190.215928 246.262026 
L 190.333175 245.706239 
L 190.621498 245.150452 
L 194.045594 245.150452 
L 195.502919 244.594666 
L 201.512756 244.594666 
L 201.740913 247.373599 
L 201.752112 245.150452 
L 202.044298 245.150452 
L 203.495198 242.927306 
L 210.598897 242.927306 
L 216.043202 242.371519 
L 222.09419 242.371519 
L 222.359722 241.815732 
L 238.083176 241.815732 
L 238.754235 241.259946 
L 242.572094 241.259946 
L 242.599007 240.148372 
L 249.87339 240.148372 
L 250.020937 236.257866 
L 263.18717 236.257866 
L 263.19112 235.702079 
L 263.572424 235.702079 
L 264.93095 235.146292 
L 266.918255 235.146292 
L 267.454616 234.590506 
L 267.508269 235.146292 
L 268.736481 234.590506 
L 268.742081 234.034719 
L 268.770775 234.590506 
L 269.48025 234.034719 
L 275.943102 234.034719 
L 277.952459 233.478932 
L 280.336738 233.478932 
L 284.3864 232.923146 
L 288.220147 232.923146 
L 291.182112 231.811572 
L 297.664195 231.811572 
L 301.434869 230.699999 
L 302.497259 231.255786 
L 307.760114 231.255786 
L 313.696851 229.032639 
L 322.550754 229.032639 
L 325.296673 228.476852 
L 374.232215 228.476852 
L 374.62741 227.921066 
L 392.473083 227.921066 
L 392.771259 227.365279 
L 423.137414 227.365279 
L 429.823953 226.809492 
L 429.86263 227.365279 
L 434.649203 225.697919 
L 441.673767 225.697919 
L 445.509423 225.142132 
L 445.515718 224.586346 
L 453.518849 224.586346 
L 456.391262 225.142132 
L 457.42383 224.586346 
L 470.817483 224.586346 
L 471.387486 225.142132 
L 472.431644 224.586346 
L 472.790462 222.363199 
L 478.928355 222.363199 
L 478.933651 221.807412 
L 497.715481 221.807412 
L 498.809213 221.251626 
L 502.418753 221.251626 
L 502.770886 220.695839 
L 520.37221 220.695839 
L 520.396128 220.140052 
L 524.798489 220.140052 
L 524.805044 219.584266 
L 525.873294 219.584266 
L 525.929075 219.028479 
L 527.587947 219.028479 
L 527.848574 218.472692 
L 531.399078 218.472692 
L 531.938781 217.361119 
L 533.893355 215.137972 
L 538.61985 215.137972 
L 538.968814 212.359039 
L 540.553718 212.359039 
L 541.331563 211.247466 
L 545.33977 211.247466 
L 546.654974 210.691679 
L 550.419744 210.691679 
L 550.924329 210.135892 
L 561.149781 210.135892 
L 561.401727 209.580106 
L 562.347477 209.580106 
L 563.815784 209.024319 
L 580.354762 209.024319 
L 580.50335 208.468532 
L 581.033634 208.468532 
L 582.140648 207.356959 
L 583.692692 207.356959 
L 584.065878 206.801172 
L 584.425434 206.801172 
L 584.561869 206.245386 
L 588.712457 206.245386 
L 589.419068 205.689599 
L 593.03182 205.689599 
L 593.26345 205.133812 
L 595.242376 205.133812 
L 595.369174 204.578026 
L 601.519221 204.578026 
L 601.651445 204.022239 
L 605.238238 204.022239 
L 606.238988 202.354879 
L 606.436238 201.799092 
L 607.764465 201.799092 
L 607.765854 201.243306 
L 613.15898 201.243306 
L 614.147705 200.687519 
L 618.277153 200.687519 
L 619.090507 200.131732 
L 619.396453 200.131732 
L 620.191183 199.575946 
L 622.221246 199.575946 
L 622.455871 199.020159 
L 627.547261 199.020159 
L 628.859644 198.464372 
L 628.95523 197.908586 
L 629.380117 197.908586 
L 630.721192 195.685439 
L 634.880246 195.685439 
L 634.910198 195.129652 
L 638.868398 195.129652 
L 639.098552 194.573866 
L 639.695555 194.573866 
L 640.14818 194.018079 
L 640.242595 194.573866 
L 640.581532 194.018079 
L 642.087388 194.018079 
L 642.101799 193.462292 
L 642.501682 193.462292 
L 642.676794 192.906506 
L 643.886775 192.350719 
L 652.30533 192.350719 
L 653.621141 191.794932 
L 654.501952 191.794932 
L 655.21655 191.239146 
L 655.939439 191.794932 
L 658.915859 191.794932 
L 659.044219 190.683359 
L 663.317091 190.683359 
L 664.974965 189.015999 
L 682.970008 189.015999 
L 684.01586 188.460212 
L 711.792194 188.460212 
L 711.840378 187.904426 
L 752.77726 187.904426 
L 752.95706 187.348639 
L 752.969952 186.792852 
L 752.982758 187.348639 
L 758.931388 187.348639 
L 760.274504 186.792852 
L 783.710076 186.792852 
L 788.532591 186.237066 
L 788.579473 185.681279 
L 788.978705 185.681279 
L 790.229229 185.125492 
L 812.012614 185.125492 
L 812.012614 185.125492 
" clip-path="url(#p75e5f645e7)" style="fill: none; stroke: #3fb950; stroke-width: 2; stroke-linecap: square"/>
   </g>
   <g id="line2d_32">
    <path d="M 85.239886 455.237812 
L 85.357308 453.570452 
L 85.48506 453.570452 
L 85.58273 372.981386 
L 87.353771 372.981386 
L 87.390191 370.758239 
L 89.215841 370.758239 
L 89.68622 369.090879 
L 90.326241 370.758239 
L 90.330973 369.090879 
L 90.860562 369.090879 
L 91.065235 367.979306 
L 96.295187 367.979306 
L 96.300179 367.423519 
L 96.32961 367.979306 
L 96.587025 367.423519 
L 96.662513 367.979306 
L 96.863844 367.423519 
L 98.69913 367.423519 
L 98.795151 366.867732 
L 99.05669 366.311946 
L 101.128815 366.311946 
L 103.486875 365.756159 
L 103.569873 365.200372 
L 104.207203 364.644586 
L 104.221007 364.088799 
L 108.981752 367.979306 
L 109.690099 366.311946 
L 110.207316 363.533012 
L 113.118232 363.533012 
L 114.665761 367.979306 
L 114.766166 363.533012 
L 143.044525 363.533012 
L 143.912269 362.977226 
L 145.87431 362.977226 
L 151.232969 362.421439 
L 152.538276 361.865652 
L 171.136833 361.865652 
L 171.623447 361.309866 
L 174.123542 360.754079 
L 175.712569 360.754079 
L 177.47393 360.198292 
L 177.521376 359.086719 
L 178.732138 358.530932 
L 179.545882 357.975146 
L 190.756239 357.975146 
L 192.990931 357.419359 
L 193.666504 357.419359 
L 194.045594 356.863572 
L 195.502919 356.863572 
L 196.950737 356.307786 
L 201.512756 356.307786 
L 201.740913 358.530932 
L 201.752112 356.307786 
L 203.495198 356.307786 
L 203.67018 355.751999 
L 206.137457 355.751999 
L 208.564928 355.196212 
L 208.623833 354.640426 
L 216.043202 354.640426 
L 219.172595 354.084639 
L 219.180495 353.528852 
L 229.594125 353.528852 
L 233.938057 352.973066 
L 237.197113 352.973066 
L 238.083176 352.417279 
L 243.057883 352.417279 
L 245.895265 351.861492 
L 246.050799 351.305706 
L 248.81712 351.305706 
L 249.138173 350.749919 
L 250.020937 350.194132 
L 251.991572 350.194132 
L 253.235759 349.638346 
L 255.516942 349.638346 
L 257.005781 349.082559 
L 260.181926 349.082559 
L 261.263981 347.970986 
L 269.48025 347.970986 
L 271.820165 347.415199 
L 274.563957 347.415199 
L 275.182708 346.859412 
L 275.371928 346.303626 
L 275.943102 345.747839 
L 285.391665 345.747839 
L 287.121597 345.192052 
L 288.220147 344.636266 
L 315.088237 344.636266 
L 321.119474 344.080479 
L 321.191533 343.524692 
L 325.296673 343.524692 
L 328.805417 342.968906 
L 335.007077 342.968906 
L 335.53111 342.413119 
L 346.092808 342.413119 
L 354.36056 341.857332 
L 354.439911 341.301546 
L 355.520794 341.301546 
L 357.710731 340.745759 
L 357.832884 339.078399 
L 357.929252 338.522612 
L 362.503642 337.966826 
L 362.777552 337.411039 
L 362.886726 336.299466 
L 363.30102 335.743679 
L 378.186552 335.743679 
L 382.415276 335.187892 
L 385.107151 334.632106 
L 387.215957 334.632106 
L 392.105409 334.076319 
L 392.473083 331.853172 
L 392.771259 331.853172 
L 393.057324 331.297386 
L 393.474266 330.741599 
L 402.748542 330.185812 
L 403.043722 329.630026 
L 403.130801 329.074239 
L 405.09015 329.074239 
L 406.940369 328.518452 
L 407.153029 327.962666 
L 407.297451 326.851092 
L 408.522147 326.295306 
L 408.612047 325.739519 
L 410.846565 325.183732 
L 413.783787 324.627946 
L 413.992671 324.072159 
L 413.997099 323.516372 
L 414.587894 322.960586 
L 414.692249 322.404799 
L 418.952966 321.849012 
L 419.71679 321.293226 
L 437.653665 321.293226 
L 440.628219 320.737439 
L 440.898917 320.181652 
L 453.055676 320.181652 
L 453.518849 319.070079 
L 458.583934 319.070079 
L 460.113144 318.514292 
L 460.187851 317.402719 
L 460.580528 316.846932 
L 463.180679 316.291146 
L 463.239238 315.735359 
L 463.553085 315.179572 
L 463.609907 313.512212 
L 463.874701 312.956426 
L 464.232955 312.956426 
L 464.246152 312.400639 
L 466.416815 311.844852 
L 467.270192 311.289066 
L 467.476688 310.733279 
L 471.387486 310.177492 
L 474.269578 310.177492 
L 475.270371 309.621706 
L 486.106326 309.621706 
L 489.696202 309.065919 
L 489.710483 308.510132 
L 490.356104 307.954346 
L 498.809213 307.954346 
L 501.18099 307.398559 
L 502.158039 306.842772 
L 502.418753 305.731199 
L 509.256441 305.731199 
L 509.722306 305.175412 
L 513.477092 305.175412 
L 515.274699 304.619626 
L 520.396128 304.619626 
L 523.492271 304.063839 
L 529.921958 304.063839 
L 530.712218 303.508052 
L 533.893355 303.508052 
L 534.759233 302.952266 
L 535.134851 302.396479 
L 535.319859 301.840692 
L 537.938416 301.840692 
L 538.012863 300.729119 
L 538.968814 300.729119 
L 539.596464 299.061759 
L 541.874261 299.061759 
L 542.157157 298.505972 
L 542.376763 298.505972 
L 543.467022 297.950186 
L 545.276263 297.950186 
L 545.33977 297.394399 
L 546.654974 297.394399 
L 546.97442 296.838612 
L 548.210576 296.838612 
L 550.103249 295.727039 
L 550.924329 295.727039 
L 554.09991 294.615466 
L 554.104685 294.059679 
L 554.710977 293.503892 
L 556.257898 292.948106 
L 556.498427 292.392319 
L 558.040746 291.836532 
L 560.561937 291.836532 
L 560.933778 291.280746 
L 561.149781 290.724959 
L 564.476555 290.724959 
L 564.56385 290.169172 
L 565.439843 290.169172 
L 565.507083 289.613386 
L 565.987794 289.057599 
L 567.660427 289.057599 
L 567.787658 288.501812 
L 568.074201 288.501812 
L 568.145391 287.946026 
L 568.260902 287.946026 
L 568.264809 287.390239 
L 570.616879 287.390239 
L 571.082657 286.834452 
L 571.473771 286.834452 
L 571.707528 286.278666 
L 572.304488 286.278666 
L 572.751426 285.722879 
L 572.845667 285.167092 
L 572.97342 285.167092 
L 575.220136 284.611306 
L 576.901407 284.611306 
L 577.028682 284.055519 
L 583.660873 284.055519 
L 583.692692 283.499732 
L 584.065878 283.499732 
L 584.425434 282.943946 
L 584.561869 282.943946 
L 584.808431 282.388159 
L 587.183985 282.388159 
L 587.391697 280.720799 
L 587.452296 279.609226 
L 587.843801 279.053439 
L 589.419068 279.053439 
L 590.162012 278.497652 
L 590.882123 278.497652 
L 591.114317 277.941866 
L 592.230578 277.386079 
L 593.26345 277.386079 
L 595.339916 276.830292 
L 595.369174 276.274506 
L 596.003726 276.274506 
L 596.108905 275.718719 
L 597.954783 275.718719 
L 598.006049 275.162932 
L 606.957883 275.162932 
L 607.025297 274.607146 
L 607.362498 274.607146 
L 607.48057 273.495572 
L 608.633251 273.495572 
L 608.726233 272.939786 
L 608.878555 272.939786 
L 609.676932 272.383999 
L 609.877611 271.828212 
L 610.244287 271.828212 
L 610.554574 271.272426 
L 610.655717 270.716639 
L 615.153794 270.716639 
L 616.289154 270.160852 
L 616.513405 269.049279 
L 616.789746 268.493492 
L 617.251053 268.493492 
L 617.532213 267.937706 
L 623.987468 267.937706 
L 624.243972 266.270346 
L 625.29564 266.270346 
L 625.425129 265.714559 
L 628.871755 265.714559 
L 628.95523 264.602986 
L 633.094793 264.602986 
L 633.137681 264.047199 
L 635.1318 264.047199 
L 635.145214 263.491412 
L 636.116272 263.491412 
L 636.142534 262.935626 
L 639.098552 262.935626 
L 639.245578 262.379839 
L 639.432888 262.379839 
L 639.695555 261.824052 
L 640.228747 261.824052 
L 640.242595 261.268266 
L 640.581532 261.268266 
L 641.228108 260.712479 
L 646.45055 260.712479 
L 646.830117 260.156692 
L 648.379686 260.156692 
L 648.382551 259.600906 
L 660.229978 259.600906 
L 662.24081 259.045119 
L 662.299108 258.489332 
L 663.317091 257.933546 
L 664.86501 257.933546 
L 664.974965 256.821972 
L 665.254953 256.821972 
L 665.371506 256.266186 
L 669.482505 256.266186 
L 670.224885 255.710399 
L 677.335832 255.710399 
L 677.357711 255.154612 
L 679.680219 255.154612 
L 680.672764 254.598826 
L 691.604175 254.598826 
L 691.74061 253.487252 
L 696.039744 253.487252 
L 696.894856 252.931466 
L 697.810568 252.931466 
L 698.929997 252.375679 
L 706.329441 252.375679 
L 707.038005 251.819892 
L 707.651981 251.819892 
L 707.953022 251.264106 
L 710.310213 250.708319 
L 711.46411 250.708319 
L 711.840378 250.152532 
L 711.962835 250.152532 
L 715.274459 249.596746 
L 721.371808 249.596746 
L 721.848959 249.040959 
L 745.383069 249.040959 
L 746.242957 248.485172 
L 751.685265 248.485172 
L 751.881951 247.929386 
L 752.235473 247.929386 
L 752.342042 247.373599 
L 782.735024 247.373599 
L 783.710076 246.817812 
L 790.966877 246.817812 
L 792.543273 246.262026 
L 792.64893 245.706239 
L 796.424596 245.706239 
L 796.581259 245.150452 
L 808.811031 245.150452 
L 808.836078 244.594666 
L 812.012614 244.594666 
L 812.012614 244.594666 
" clip-path="url(#p75e5f645e7)" style="fill: none; stroke: #58a6ff; stroke-width: 2; stroke-linecap: square"/>
   </g>
   <g id="line2d_33">
    <path d="M 85.239886 455.237812 
L 88.844217 455.237812 
L 88.858021 454.126239 
L 91.833617 454.126239 
L 92.513227 453.570452 
L 275.943102 453.570452 
L 277.952459 453.014666 
L 328.805417 453.014666 
L 330.216685 452.458879 
L 378.186552 452.458879 
L 382.415276 451.903092 
L 393.474266 451.903092 
L 403.130801 450.235732 
L 405.09015 449.124159 
L 408.612047 449.124159 
L 410.846565 448.568372 
L 413.997099 448.012586 
L 414.692249 448.012586 
L 418.952966 447.456799 
L 419.71679 446.901012 
L 423.137414 446.345226 
L 429.823953 445.789439 
L 429.86263 446.345226 
L 440.898917 446.345226 
L 441.673767 445.789439 
L 457.42383 445.789439 
L 458.583934 445.233652 
L 463.874701 445.233652 
L 464.246152 444.677866 
L 470.817483 444.677866 
L 471.387486 444.122079 
L 495.460561 444.122079 
L 497.715481 443.566292 
L 498.663185 443.566292 
L 498.809213 443.010506 
L 505.234126 443.010506 
L 505.240246 442.454719 
L 520.37221 442.454719 
L 520.396128 441.898932 
L 524.805044 441.898932 
L 525.929075 441.343146 
L 527.585039 440.787359 
L 527.587947 440.231572 
L 527.848574 440.231572 
L 529.921958 438.564212 
L 531.318684 438.564212 
L 531.399078 436.896852 
L 531.938781 436.896852 
L 533.893355 437.452639 
L 535.299023 437.452639 
L 535.319859 435.229492 
L 540.553718 435.229492 
L 541.331563 434.673706 
L 542.157157 434.673706 
L 542.376763 434.117919 
L 561.149781 434.117919 
L 561.401727 433.562132 
L 562.347477 433.562132 
L 563.815784 433.006346 
L 570.293743 433.006346 
L 570.616879 432.450559 
L 572.845667 432.450559 
L 572.97342 431.894772 
L 580.354762 431.894772 
L 580.50335 431.338986 
L 581.033634 431.338986 
L 581.571471 430.783199 
L 582.108786 430.783199 
L 582.140648 430.227412 
L 584.425434 430.227412 
L 584.561869 429.671626 
L 595.168798 429.671626 
L 595.242376 429.115839 
L 595.369174 429.115839 
L 595.478043 428.560052 
L 596.108905 428.560052 
L 597.431402 428.004266 
L 602.601797 428.004266 
L 602.606355 427.448479 
L 603.594299 427.448479 
L 603.631891 426.892692 
L 606.436238 426.892692 
L 607.025297 426.336906 
L 610.762503 426.336906 
L 611.846424 425.781119 
L 613.954405 425.781119 
L 613.97676 424.669546 
L 614.147705 424.669546 
L 614.36284 424.113759 
L 617.753902 424.113759 
L 618.277153 423.557972 
L 619.090507 423.557972 
L 619.396453 423.002186 
L 621.381717 423.002186 
L 621.658926 422.446399 
L 621.662486 421.890612 
L 622.221246 421.890612 
L 622.455871 421.334826 
L 643.841369 421.334826 
L 643.886775 420.223252 
L 646.830117 420.223252 
L 647.677243 419.667466 
L 648.382551 419.667466 
L 651.691223 419.111679 
L 652.30533 419.111679 
L 653.621141 418.555892 
L 654.501952 418.555892 
L 655.21655 418.000106 
L 655.939439 418.555892 
L 658.266548 418.555892 
L 658.899364 418.000106 
L 658.997555 417.444319 
L 659.044219 416.888532 
L 660.222034 416.332746 
L 660.229978 415.221172 
L 665.371506 415.221172 
L 666.495927 414.665386 
L 666.609876 412.998026 
L 667.733733 412.442239 
L 668.355262 411.886452 
L 673.671033 411.886452 
L 673.896586 410.219092 
L 674.167718 410.219092 
L 674.368745 409.663306 
L 675.667888 409.107519 
L 677.712839 409.107519 
L 678.134123 408.551732 
L 678.22997 407.995946 
L 678.444931 407.995946 
L 679.680219 406.884372 
L 681.003714 406.884372 
L 681.438281 406.328586 
L 682.964973 406.328586 
L 682.970008 405.217012 
L 684.01586 405.217012 
L 685.404294 404.661226 
L 689.082724 403.549652 
L 689.411113 402.993866 
L 696.894856 402.993866 
L 697.810568 401.882292 
L 711.792194 401.882292 
L 711.962835 400.770719 
L 718.768271 400.770719 
L 719.808088 400.214932 
L 722.963527 400.214932 
L 723.140635 399.659146 
L 742.553241 399.659146 
L 742.863094 399.103359 
L 744.785936 399.103359 
L 745.383069 398.547572 
L 748.971686 398.547572 
L 749.646608 397.991786 
L 749.651036 397.435999 
L 750.422933 396.880212 
L 752.77726 396.880212 
L 752.95706 396.324426 
L 752.969952 395.212852 
L 752.982758 395.768639 
L 754.56484 395.212852 
L 760.274504 395.212852 
L 761.400749 394.101279 
L 771.702774 394.101279 
L 772.499284 393.545492 
L 774.998467 393.545492 
L 775.198539 392.989706 
L 775.22606 392.433919 
L 783.710076 392.433919 
L 788.978705 391.322346 
L 790.229229 391.322346 
L 790.966877 390.766559 
L 801.880231 390.766559 
L 803.221653 390.210772 
L 804.883825 390.210772 
L 806.493645 389.654986 
L 812.012614 389.654986 
L 812.012614 389.654986 
" clip-path="url(#p75e5f645e7)" style="fill: none; stroke: #d29922; stroke-width: 2; stroke-linecap: square"/>
   </g>
   <g id="line2d_34">
    <path d="M 85.239886 454.682026 
L 85.548177 454.682026 
L 85.684698 432.450559 
L 86.398167 426.892692 
L 86.805864 425.781119 
L 87.012707 426.336906 
L 87.390191 425.781119 
L 88.028606 425.225332 
L 88.471551 424.113759 
L 88.844217 423.557972 
L 88.858021 423.002186 
L 89.215841 421.334826 
L 89.68622 421.334826 
L 90.326241 420.779039 
L 90.330973 420.223252 
L 90.84628 419.667466 
L 90.860562 419.111679 
L 91.065235 419.111679 
L 91.833617 418.555892 
L 92.382609 418.000106 
L 92.513227 411.886452 
L 92.603561 412.442239 
L 92.824425 408.551732 
L 93.197569 402.993866 
L 96.300179 402.993866 
L 96.32961 402.438079 
L 96.587025 399.659146 
L 96.662513 402.438079 
L 97.012259 397.991786 
L 97.185461 397.435999 
L 98.475878 396.880212 
L 98.514816 396.324426 
L 98.795151 395.768639 
L 99.05669 395.768639 
L 99.721237 395.212852 
L 100.076235 394.657066 
L 100.221047 394.101279 
L 100.334822 392.989706 
L 100.666466 392.433919 
L 100.674671 391.878132 
L 101.008225 392.433919 
L 101.10316 391.878132 
L 101.114837 392.433919 
L 101.128815 390.766559 
L 104.221007 390.766559 
L 108.981752 402.993866 
L 109.690099 390.210772 
L 110.059291 389.654986 
L 112.056276 389.654986 
L 112.394475 389.099199 
L 113.118232 388.543412 
L 114.665761 402.993866 
L 114.766166 387.987626 
L 115.95366 387.431839 
L 118.493126 386.876052 
L 118.674228 387.431839 
L 119.006263 386.320266 
L 119.044159 385.764479 
L 119.859336 385.764479 
L 120.107027 385.208692 
L 120.574845 384.652906 
L 120.613653 383.541332 
L 121.045181 382.429759 
L 121.070185 382.985546 
L 121.326862 382.985546 
L 121.467593 381.873972 
L 121.900815 379.650826 
L 121.957767 378.539252 
L 122.513575 376.871892 
L 122.785228 377.983466 
L 124.705987 374.648746 
L 125.211744 375.760319 
L 127.293116 373.537172 
L 128.942004 377.427679 
L 129.520689 373.537172 
L 131.897284 371.869812 
L 135.401687 371.869812 
L 135.864514 371.314026 
L 136.232838 369.646666 
L 137.267838 371.314026 
L 141.489617 371.869812 
L 142.536901 369.646666 
L 143.044525 367.979306 
L 143.912269 369.646666 
L 145.87431 367.979306 
L 152.538276 367.979306 
L 159.545476 367.423519 
L 160.012773 366.867732 
L 164.436621 366.311946 
L 167.361862 366.311946 
L 167.906384 365.756159 
L 168.024847 366.311946 
L 171.136833 364.644586 
L 174.05578 364.644586 
L 174.123542 364.088799 
L 175.712569 363.533012 
L 179.545882 363.533012 
L 181.236833 359.642506 
L 182.495389 359.086719 
L 184.114846 358.530932 
L 184.146274 357.975146 
L 190.215928 357.975146 
L 190.333175 354.084639 
L 190.557817 354.084639 
L 190.756239 352.973066 
L 192.990931 352.973066 
L 193.666504 352.417279 
L 196.950737 352.417279 
L 201.512756 351.861492 
L 201.740913 363.533012 
L 201.752112 352.417279 
L 202.044298 351.861492 
L 203.67018 351.861492 
L 206.137457 351.305706 
L 208.623833 351.305706 
L 210.598897 350.749919 
L 216.043202 349.638346 
L 219.180495 349.638346 
L 221.70186 349.082559 
L 222.09419 346.303626 
L 222.359722 346.303626 
L 222.829581 345.747839 
L 225.280406 345.192052 
L 225.846936 342.968906 
L 229.234178 341.857332 
L 229.274983 342.413119 
L 229.594125 341.857332 
L 233.938057 340.745759 
L 237.197113 340.189972 
L 238.754235 340.189972 
L 240.134378 339.634186 
L 241.330425 338.522612 
L 242.599007 337.966826 
L 243.057883 337.411039 
L 246.050799 337.966826 
L 248.81712 336.855252 
L 249.138173 337.411039 
L 249.87339 337.411039 
L 250.020937 336.855252 
L 251.991572 336.299466 
L 253.235759 336.855252 
L 255.516942 335.743679 
L 257.005781 335.743679 
L 260.181926 335.187892 
L 260.708607 335.743679 
L 261.263981 334.076319 
L 263.19112 334.076319 
L 263.572424 333.520532 
L 264.93095 331.853172 
L 265.231861 331.297386 
L 265.700721 330.185812 
L 266.918255 330.741599 
L 267.454616 329.630026 
L 267.508269 329.074239 
L 271.820165 329.074239 
L 274.004025 328.518452 
L 274.563957 327.962666 
L 277.952459 327.962666 
L 280.336738 327.406879 
L 284.3864 327.406879 
L 285.391665 326.851092 
L 296.527532 326.851092 
L 297.167076 326.295306 
L 297.231147 325.739519 
L 297.664195 325.183732 
L 302.497259 325.183732 
L 302.798473 324.627946 
L 304.028118 324.072159 
L 304.241082 323.516372 
L 306.278351 322.960586 
L 307.760114 322.404799 
L 313.696851 322.404799 
L 315.088237 321.293226 
L 321.191533 321.293226 
L 322.550754 320.737439 
L 328.2388 320.737439 
L 328.805417 320.181652 
L 330.216685 319.625866 
L 330.636796 319.070079 
L 330.779438 318.514292 
L 335.007077 317.958506 
L 335.53111 318.514292 
L 341.096526 317.402719 
L 345.496846 316.291146 
L 346.092808 315.735359 
L 354.439911 315.735359 
L 355.520794 315.179572 
L 363.30102 315.179572 
L 370.629838 314.623786 
L 371.55167 314.067999 
L 374.62741 313.512212 
L 377.711831 312.956426 
L 378.186552 312.400639 
L 385.107151 312.400639 
L 387.215957 311.844852 
L 403.130801 311.844852 
L 405.09015 311.289066 
L 418.236242 311.289066 
L 418.952966 310.733279 
L 419.71679 311.289066 
L 423.137414 310.733279 
L 434.649203 310.733279 
L 436.191869 310.177492 
L 460.544585 310.177492 
L 460.580528 309.621706 
L 475.620768 309.621706 
L 478.925187 309.065919 
L 478.933651 308.510132 
L 495.453225 308.510132 
L 495.460561 307.398559 
L 505.240246 307.398559 
L 509.722306 306.842772 
L 515.274699 306.842772 
L 520.396128 305.731199 
L 530.712218 305.731199 
L 531.318684 305.175412 
L 531.399078 304.619626 
L 535.299023 304.619626 
L 535.319859 304.063839 
L 535.724821 304.063839 
L 536.370356 303.508052 
L 542.157157 303.508052 
L 542.376763 302.952266 
L 550.103249 302.952266 
L 550.419744 302.396479 
L 569.289086 302.396479 
L 570.29231 300.729119 
L 570.293743 300.173332 
L 572.967039 300.173332 
L 572.97342 299.617546 
L 580.858696 299.617546 
L 581.033634 299.061759 
L 584.808431 299.061759 
L 584.944041 298.505972 
L 598.96721 298.505972 
L 599.236866 297.950186 
L 602.491842 297.950186 
L 602.606355 297.394399 
L 603.631891 296.838612 
L 629.380117 296.838612 
L 630.721192 295.727039 
L 632.728595 295.727039 
L 633.137681 295.171252 
L 635.145214 295.171252 
L 635.442739 294.615466 
L 640.185903 294.615466 
L 640.242595 294.059679 
L 666.493713 294.059679 
L 666.605708 293.503892 
L 666.607314 293.503892 
L 666.609876 292.948106 
L 699.422732 292.948106 
L 700.274936 292.392319 
L 756.299201 292.392319 
L 758.931388 291.836532 
L 782.607662 291.836532 
L 782.735024 291.280746 
L 793.334835 291.280746 
L 793.850055 290.724959 
L 812.012614 290.724959 
L 812.012614 290.724959 
" clip-path="url(#p75e5f645e7)" style="fill: none; stroke: #f85149; stroke-width: 2; stroke-linecap: square"/>
   </g>
   <g id="line2d_35">
    <path d="M 85.239886 454.682026 
L 85.264412 454.126239 
L 85.457781 -1 
M 85.63158 -1 
L 85.684698 101.201706 
L 88.844217 101.201706 
L 88.858021 97.866986 
L 92.513227 97.866986 
L 92.690118 98.422772 
L 93.197569 98.422772 
L 93.608825 98.978559 
L 96.157146 99.534346 
L 96.207457 98.978559 
L 96.32961 99.534346 
L 104.221007 99.534346 
L 108.981752 98.422772 
L 109.690099 99.534346 
L 110.059291 98.978559 
L 110.207316 98.978559 
L 111.510886 99.534346 
L 112.056276 96.755412 
L 113.118232 96.755412 
L 114.665761 98.422772 
L 114.766166 95.643839 
L 115.95366 96.199626 
L 119.044159 96.199626 
L 119.859336 95.088052 
L 121.070185 95.088052 
L 121.394753 91.197546 
L 128.942004 91.197546 
L 129.492473 87.862826 
L 129.520689 86.751252 
L 131.897284 86.751252 
L 135.401687 82.860746 
L 137.240012 82.860746 
L 137.267838 83.416532 
L 141.489617 83.416532 
L 142.536901 80.081812 
L 145.851303 80.081812 
L 145.87431 80.637599 
L 164.436621 80.637599 
L 167.906384 81.193386 
L 168.024847 80.637599 
L 171.623447 81.193386 
L 184.146274 81.193386 
L 190.215928 81.749172 
L 190.333175 74.523946 
L 190.621498 75.079732 
L 194.045594 75.079732 
L 195.502919 75.635519 
L 201.512756 75.635519 
L 201.740913 80.637599 
L 201.752112 71.745012 
L 202.044298 71.745012 
L 203.495198 73.968159 
L 210.598897 73.968159 
L 216.043202 70.077652 
L 222.09419 70.077652 
L 222.359722 68.410292 
L 238.083176 68.410292 
L 238.754235 68.966079 
L 242.572094 68.966079 
L 242.599007 70.077652 
L 249.87339 70.077652 
L 250.020937 73.412372 
L 261.263981 73.412372 
L 261.532508 68.410292 
L 263.18717 67.298719 
L 263.19112 67.854506 
L 263.572424 67.854506 
L 264.93095 65.075572 
L 266.918255 65.075572 
L 267.454616 65.631359 
L 267.508269 65.075572 
L 268.736481 65.631359 
L 268.742081 66.187146 
L 268.770775 65.631359 
L 269.48025 63.408212 
L 275.943102 63.408212 
L 277.952459 63.963999 
L 280.336738 63.963999 
L 284.3864 64.519786 
L 288.220147 64.519786 
L 291.182112 65.631359 
L 297.231147 65.075572 
L 297.664195 65.075572 
L 301.434869 66.187146 
L 302.497259 65.631359 
L 307.760114 65.631359 
L 313.693638 67.854506 
L 313.696851 67.298719 
L 322.550754 67.298719 
L 325.296673 67.854506 
L 374.232215 67.854506 
L 374.62741 68.410292 
L 377.689823 68.410292 
L 377.711831 66.742932 
L 392.473083 66.742932 
L 392.771259 67.298719 
L 423.137414 67.298719 
L 429.823953 67.854506 
L 429.86263 67.298719 
L 434.649203 68.966079 
L 436.191869 68.966079 
L 437.653665 68.410292 
L 441.673767 68.410292 
L 445.509423 68.966079 
L 445.515718 69.521866 
L 456.391262 67.854506 
L 457.42383 68.410292 
L 470.817483 68.410292 
L 471.387486 67.854506 
L 472.431644 68.410292 
L 472.790462 70.633439 
L 478.928355 70.633439 
L 478.933651 71.189226 
L 497.715481 71.189226 
L 498.809213 71.745012 
L 502.418753 71.745012 
L 502.770886 72.300799 
L 520.37221 72.300799 
L 520.396128 72.856586 
L 523.492271 72.856586 
L 524.798489 73.412372 
L 524.805044 73.968159 
L 525.873294 73.412372 
L 525.929075 73.968159 
L 527.587947 73.968159 
L 527.848574 74.523946 
L 531.318684 74.523946 
L 531.399078 73.412372 
L 531.938781 74.523946 
L 533.893355 72.856586 
L 538.61985 72.856586 
L 538.968814 71.189226 
L 540.553718 71.189226 
L 541.331563 72.300799 
L 545.33977 72.300799 
L 546.654974 72.856586 
L 546.97442 72.856586 
L 548.210576 70.077652 
L 550.419744 70.077652 
L 550.924329 70.633439 
L 561.149781 70.633439 
L 561.401727 71.189226 
L 562.347477 71.189226 
L 563.815784 71.745012 
L 580.354762 71.745012 
L 580.50335 72.300799 
L 581.033634 72.300799 
L 582.140648 73.412372 
L 583.692692 73.412372 
L 584.065878 72.856586 
L 584.425434 72.856586 
L 584.561869 73.412372 
L 588.712457 73.412372 
L 589.419068 73.968159 
L 593.03182 73.968159 
L 593.26345 74.523946 
L 595.242376 74.523946 
L 595.369174 75.079732 
L 601.519221 75.079732 
L 601.651445 75.635519 
L 605.238238 75.635519 
L 606.238988 77.302879 
L 606.436238 77.858666 
L 607.764465 77.858666 
L 607.765854 78.414452 
L 613.15898 78.414452 
L 614.147705 78.970239 
L 618.277153 78.970239 
L 619.090507 79.526026 
L 622.221246 79.526026 
L 622.455871 80.081812 
L 627.547261 80.081812 
L 628.859644 80.637599 
L 628.95523 81.193386 
L 629.380117 81.193386 
L 630.721192 60.629279 
L 634.880246 60.629279 
L 634.910198 61.185066 
L 635.145214 61.185066 
L 635.442739 60.629279 
L 638.868398 60.629279 
L 639.098552 61.185066 
L 639.695555 61.185066 
L 640.14818 61.740852 
L 640.242595 61.185066 
L 642.087388 61.185066 
L 642.101799 61.740852 
L 642.501682 61.740852 
L 642.676794 62.296639 
L 643.886775 62.852426 
L 652.30533 62.852426 
L 653.621141 63.408212 
L 654.501952 63.408212 
L 655.21655 63.963999 
L 655.939439 63.408212 
L 658.915859 63.408212 
L 659.044219 64.519786 
L 663.317091 64.519786 
L 664.974965 66.187146 
L 682.970008 66.187146 
L 684.01586 66.742932 
L 711.792194 66.742932 
L 711.840378 67.298719 
L 752.77726 67.298719 
L 752.95706 67.854506 
L 752.969952 68.410292 
L 752.982758 67.854506 
L 758.931388 67.854506 
L 760.274504 68.410292 
L 783.710076 68.410292 
L 788.978705 68.966079 
L 790.218855 69.521866 
L 790.229229 67.854506 
L 812.012614 67.854506 
L 812.012614 67.854506 
" clip-path="url(#p75e5f645e7)" style="fill: none; stroke: #9467bd; stroke-width: 2; stroke-linecap: square"/>
   </g>
   <g id="patch_3">
    <path d="M 48.90125 455.237812 
L 48.90125 38.397812 
" style="fill: none; stroke: #30363d; stroke-width: 0.8; stroke-linejoin: miter; stroke-linecap: square"/>
   </g>
   <g id="patch_4">
    <path d="M 848.35125 455.237812 
L 848.35125 38.397812 
" style="fill: none; stroke: #30363d; stroke-width: 0.8; stroke-linejoin: miter; stroke-linecap: square"/>
   </g>
   <g id="patch_5">
    <path d="M 48.90125 455.237812 
L 848.35125 455.237812 
" style="fill: none; stroke: #30363d; stroke-width: 0.8; stroke-linejoin: miter; stroke-linecap: square"/>
   </g>
   <g id="patch_6">
    <path d="M 48.90125 38.397812 
L 848.35125 38.397812 
" style="fill: none; stroke: #30363d; stroke-width: 0.8; stroke-linejoin: miter; stroke-linecap: square"/>
   </g>
   <g id="text_18">
    <!-- 486 -->
    <g style="fill: #3fb950" transform="translate(817.012614 187.60893) scale(0.09 -0.09)">
     <defs>
      <path id="DejaVuSans-Bold-34" d="M 2356 3675 
L 1038 1722 
L 2356 1722 
L 2356 3675 
z
M 2156 4666 
L 3494 4666 
L 3494 1722 
L 4159 1722 
L 4159 850 
L 3494 850 
L 3494 0 
L 2356 0 
L 2356 850 
L 288 850 
L 288 1881 
L 2156 4666 
z
" transform="scale(0.015625)"/>
      <path id="DejaVuSans-Bold-38" d="M 2228 2088 
Q 1891 2088 1709 1903 
Q 1528 1719 1528 1375 
Q 1528 1031 1709 848 
Q 1891 666 2228 666 
Q 2563 666 2741 848 
Q 2919 1031 2919 1375 
Q 2919 1722 2741 1905 
Q 2563 2088 2228 2088 
z
M 1350 2484 
Q 925 2613 709 2878 
Q 494 3144 494 3541 
Q 494 4131 934 4440 
Q 1375 4750 2228 4750 
Q 3075 4750 3515 4442 
Q 3956 4134 3956 3541 
Q 3956 3144 3739 2878 
Q 3522 2613 3097 2484 
Q 3572 2353 3814 2058 
Q 4056 1763 4056 1313 
Q 4056 619 3595 264 
Q 3134 -91 2228 -91 
Q 1319 -91 855 264 
Q 391 619 391 1313 
Q 391 1763 633 2058 
Q 875 2353 1350 2484 
z
M 1631 3419 
Q 1631 3141 1786 2991 
Q 1941 2841 2228 2841 
Q 2509 2841 2662 2991 
Q 2816 3141 2816 3419 
Q 2816 3697 2662 3845 
Q 2509 3994 2228 3994 
Q 1941 3994 1786 3844 
Q 1631 3694 1631 3419 
z
" transform="scale(0.015625)"/>
      <path id="DejaVuSans-Bold-36" d="M 2316 2303 
Q 2000 2303 1842 2098 
Q 1684 1894 1684 1484 
Q 1684 1075 1842 870 
Q 2000 666 2316 666 
Q 2634 666 2792 870 
Q 2950 1075 2950 1484 
Q 2950 1894 2792 2098 
Q 2634 2303 2316 2303 
z
M 3803 4544 
L 3803 3681 
Q 3506 3822 3243 3889 
Q 2981 3956 2731 3956 
Q 2194 3956 1894 3657 
Q 1594 3359 1544 2772 
Q 1750 2925 1990 3001 
Q 2231 3078 2516 3078 
Q 3231 3078 3670 2659 
Q 4109 2241 4109 1563 
Q 4109 813 3618 361 
Q 3128 -91 2303 -91 
Q 1394 -91 895 523 
Q 397 1138 397 2266 
Q 397 3422 980 4083 
Q 1563 4744 2578 4744 
Q 2900 4744 3203 4694 
Q 3506 4644 3803 4544 
z
" transform="scale(0.015625)"/>
     </defs>
     <use xlink:href="#DejaVuSans-Bold-34"/>
     <use xlink:href="#DejaVuSans-Bold-38" transform="translate(69.580078 0)"/>
     <use xlink:href="#DejaVuSans-Bold-36" transform="translate(139.160156 0)"/>
    </g>
   </g>
   <g id="text_19">
    <!-- 379 -->
    <g style="fill: #58a6ff" transform="translate(817.012614 247.078103) scale(0.09 -0.09)">
     <defs>
      <path id="DejaVuSans-Bold-33" d="M 2981 2516 
Q 3453 2394 3698 2092 
Q 3944 1791 3944 1325 
Q 3944 631 3412 270 
Q 2881 -91 1863 -91 
Q 1503 -91 1142 -33 
Q 781 25 428 141 
L 428 1069 
Q 766 900 1098 814 
Q 1431 728 1753 728 
Q 2231 728 2486 893 
Q 2741 1059 2741 1369 
Q 2741 1688 2480 1852 
Q 2219 2016 1709 2016 
L 1228 2016 
L 1228 2791 
L 1734 2791 
Q 2188 2791 2409 2933 
Q 2631 3075 2631 3366 
Q 2631 3634 2415 3781 
Q 2200 3928 1806 3928 
Q 1516 3928 1219 3862 
Q 922 3797 628 3669 
L 628 4550 
Q 984 4650 1334 4700 
Q 1684 4750 2022 4750 
Q 2931 4750 3382 4451 
Q 3834 4153 3834 3553 
Q 3834 3144 3618 2883 
Q 3403 2622 2981 2516 
z
" transform="scale(0.015625)"/>
      <path id="DejaVuSans-Bold-37" d="M 428 4666 
L 3944 4666 
L 3944 3988 
L 2125 0 
L 953 0 
L 2675 3781 
L 428 3781 
L 428 4666 
z
" transform="scale(0.015625)"/>
      <path id="DejaVuSans-Bold-39" d="M 641 103 
L 641 966 
Q 928 831 1190 764 
Q 1453 697 1709 697 
Q 2247 697 2547 995 
Q 2847 1294 2900 1881 
Q 2688 1725 2447 1647 
Q 2206 1569 1925 1569 
Q 1209 1569 770 1986 
Q 331 2403 331 3084 
Q 331 3838 820 4291 
Q 1309 4744 2131 4744 
Q 3044 4744 3544 4128 
Q 4044 3513 4044 2388 
Q 4044 1231 3459 570 
Q 2875 -91 1856 -91 
Q 1528 -91 1228 -42 
Q 928 6 641 103 
z
M 2125 2350 
Q 2441 2350 2600 2554 
Q 2759 2759 2759 3169 
Q 2759 3575 2600 3781 
Q 2441 3988 2125 3988 
Q 1809 3988 1650 3781 
Q 1491 3575 1491 3169 
Q 1491 2759 1650 2554 
Q 1809 2350 2125 2350 
z
" transform="scale(0.015625)"/>
     </defs>
     <use xlink:href="#DejaVuSans-Bold-33"/>
     <use xlink:href="#DejaVuSans-Bold-37" transform="translate(69.580078 0)"/>
     <use xlink:href="#DejaVuSans-Bold-39" transform="translate(139.160156 0)"/>
    </g>
   </g>
   <g id="text_20">
    <!-- 118 -->
    <g style="fill: #d29922" transform="translate(817.012614 392.138423) scale(0.09 -0.09)">
     <defs>
      <path id="DejaVuSans-Bold-31" d="M 750 831 
L 1813 831 
L 1813 3847 
L 722 3622 
L 722 4441 
L 1806 4666 
L 2950 4666 
L 2950 831 
L 4013 831 
L 4013 0 
L 750 0 
L 750 831 
z
" transform="scale(0.015625)"/>
     </defs>
     <use xlink:href="#DejaVuSans-Bold-31"/>
     <use xlink:href="#DejaVuSans-Bold-31" transform="translate(69.580078 0)"/>
     <use xlink:href="#DejaVuSans-Bold-38" transform="translate(139.160156 0)"/>
    </g>
   </g>
   <g id="text_21">
    <!-- 296 -->
    <g style="fill: #f85149" transform="translate(817.012614 293.208397) scale(0.09 -0.09)">
     <defs>
      <path id="DejaVuSans-Bold-32" d="M 1844 884 
L 3897 884 
L 3897 0 
L 506 0 
L 506 884 
L 2209 2388 
Q 2438 2594 2547 2791 
Q 2656 2988 2656 3200 
Q 2656 3528 2436 3728 
Q 2216 3928 1850 3928 
Q 1569 3928 1234 3808 
Q 900 3688 519 3450 
L 519 4475 
Q 925 4609 1322 4679 
Q 1719 4750 2100 4750 
Q 2938 4750 3402 4381 
Q 3866 4013 3866 3353 
Q 3866 2972 3669 2642 
Q 3472 2313 2841 1759 
L 1844 884 
z
" transform="scale(0.015625)"/>
     </defs>
     <use xlink:href="#DejaVuSans-Bold-32"/>
     <use xlink:href="#DejaVuSans-Bold-39" transform="translate(69.580078 0)"/>
     <use xlink:href="#DejaVuSans-Bold-36" transform="translate(139.160156 0)"/>
    </g>
   </g>
   <g id="text_22">
    <!-- 697 -->
    <g style="fill: #9467bd" transform="translate(817.012614 70.337943) scale(0.09 -0.09)">
     <use xlink:href="#DejaVuSans-Bold-36"/>
     <use xlink:href="#DejaVuSans-Bold-39" transform="translate(69.580078 0)"/>
     <use xlink:href="#DejaVuSans-Bold-37" transform="translate(139.160156 0)"/>
    </g>
   </g>
   <g id="text_23">
    <!-- Erdős Problems Progress -->
    <g style="fill: #c9d1d9" transform="translate(349.588281 18.397812) scale(0.14 -0.14)">
     <defs>
      <path id="DejaVuSans-Bold-45" d="M 588 4666 
L 3834 4666 
L 3834 3756 
L 1791 3756 
L 1791 2888 
L 3713 2888 
L 3713 1978 
L 1791 1978 
L 1791 909 
L 3903 909 
L 3903 0 
L 588 0 
L 588 4666 
z
" transform="scale(0.015625)"/>
      <path id="DejaVuSans-Bold-72" d="M 3138 2547 
Q 2991 2616 2845 2648 
Q 2700 2681 2553 2681 
Q 2122 2681 1889 2404 
Q 1656 2128 1656 1613 
L 1656 0 
L 538 0 
L 538 3500 
L 1656 3500 
L 1656 2925 
Q 1872 3269 2151 3426 
Q 2431 3584 2822 3584 
Q 2878 3584 2943 3579 
Q 3009 3575 3134 3559 
L 3138 2547 
z
" transform="scale(0.015625)"/>
      <path id="DejaVuSans-Bold-64" d="M 2919 2988 
L 2919 4863 
L 4044 4863 
L 4044 0 
L 2919 0 
L 2919 506 
Q 2688 197 2409 53 
Q 2131 -91 1766 -91 
Q 1119 -91 703 423 
Q 288 938 288 1747 
Q 288 2556 703 3070 
Q 1119 3584 1766 3584 
Q 2128 3584 2408 3439 
Q 2688 3294 2919 2988 
z
M 2181 722 
Q 2541 722 2730 984 
Q 2919 1247 2919 1747 
Q 2919 2247 2730 2509 
Q 2541 2772 2181 2772 
Q 1825 2772 1636 2509 
Q 1447 2247 1447 1747 
Q 1447 1247 1636 984 
Q 1825 722 2181 722 
z
" transform="scale(0.015625)"/>
      <path id="DejaVuSans-Bold-151" d="M 1881 5119 
L 2560 5119 
L 1785 3944 
L 1275 3944 
L 1881 5119 
z
M 3016 5119 
L 3738 5119 
L 2888 3944 
L 2344 3944 
L 3016 5119 
z
M 2203 2784 
Q 1831 2784 1636 2517 
Q 1441 2250 1441 1747 
Q 1441 1244 1636 976 
Q 1831 709 2203 709 
Q 2569 709 2762 976 
Q 2956 1244 2956 1747 
Q 2956 2250 2762 2517 
Q 2569 2784 2203 2784 
z
M 2203 3584 
Q 3106 3584 3614 3096 
Q 4122 2609 4122 1747 
Q 4122 884 3614 396 
Q 3106 -91 2203 -91 
Q 1297 -91 786 396 
Q 275 884 275 1747 
Q 275 2609 786 3096 
Q 1297 3584 2203 3584 
z
" transform="scale(0.015625)"/>
      <path id="DejaVuSans-Bold-73" d="M 3272 3391 
L 3272 2541 
Q 2913 2691 2578 2766 
Q 2244 2841 1947 2841 
Q 1628 2841 1473 2761 
Q 1319 2681 1319 2516 
Q 1319 2381 1436 2309 
Q 1553 2238 1856 2203 
L 2053 2175 
Q 2913 2066 3209 1816 
Q 3506 1566 3506 1031 
Q 3506 472 3093 190 
Q 2681 -91 1863 -91 
Q 1516 -91 1145 -36 
Q 775 19 384 128 
L 384 978 
Q 719 816 1070 734 
Q 1422 653 1784 653 
Q 2113 653 2278 743 
Q 2444 834 2444 1013 
Q 2444 1163 2330 1236 
Q 2216 1309 1875 1350 
L 1678 1375 
Q 931 1469 631 1722 
Q 331 1975 331 2491 
Q 331 3047 712 3315 
Q 1094 3584 1881 3584 
Q 2191 3584 2531 3537 
Q 2872 3491 3272 3391 
z
" transform="scale(0.015625)"/>
      <path id="DejaVuSans-Bold-20" transform="scale(0.015625)"/>
      <path id="DejaVuSans-Bold-50" d="M 588 4666 
L 2584 4666 
Q 3475 4666 3951 4270 
Q 4428 3875 4428 3144 
Q 4428 2409 3951 2014 
Q 3475 1619 2584 1619 
L 1791 1619 
L 1791 0 
L 588 0 
L 588 4666 
z
M 1791 3794 
L 1791 2491 
L 2456 2491 
Q 2806 2491 2997 2661 
Q 3188 2831 3188 3144 
Q 3188 3456 2997 3625 
Q 2806 3794 2456 3794 
L 1791 3794 
z
" transform="scale(0.015625)"/>
      <path id="DejaVuSans-Bold-6f" d="M 2203 2784 
Q 1831 2784 1636 2517 
Q 1441 2250 1441 1747 
Q 1441 1244 1636 976 
Q 1831 709 2203 709 
Q 2569 709 2762 976 
Q 2956 1244 2956 1747 
Q 2956 2250 2762 2517 
Q 2569 2784 2203 2784 
z
M 2203 3584 
Q 3106 3584 3614 3096 
Q 4122 2609 4122 1747 
Q 4122 884 3614 396 
Q 3106 -91 2203 -91 
Q 1297 -91 786 396 
Q 275 884 275 1747 
Q 275 2609 786 3096 
Q 1297 3584 2203 3584 
z
" transform="scale(0.015625)"/>
      <path id="DejaVuSans-Bold-62" d="M 2400 722 
Q 2759 722 2948 984 
Q 3138 1247 3138 1747 
Q 3138 2247 2948 2509 
Q 2759 2772 2400 2772 
Q 2041 2772 1848 2508 
Q 1656 2244 1656 1747 
Q 1656 1250 1848 986 
Q 2041 722 2400 722 
z
M 1656 2988 
Q 1888 3294 2169 3439 
Q 2450 3584 2816 3584 
Q 3463 3584 3878 3070 
Q 4294 2556 4294 1747 
Q 4294 938 3878 423 
Q 3463 -91 2816 -91 
Q 2450 -91 2169 54 
Q 1888 200 1656 506 
L 1656 0 
L 538 0 
L 538 4863 
L 1656 4863 
L 1656 2988 
z
" transform="scale(0.015625)"/>
      <path id="DejaVuSans-Bold-6c" d="M 538 4863 
L 1656 4863 
L 1656 0 
L 538 0 
L 538 4863 
z
" transform="scale(0.015625)"/>
      <path id="DejaVuSans-Bold-65" d="M 4031 1759 
L 4031 1441 
L 1416 1441 
Q 1456 1047 1700 850 
Q 1944 653 2381 653 
Q 2734 653 3104 758 
Q 3475 863 3866 1075 
L 3866 213 
Q 3469 63 3072 -14 
Q 2675 -91 2278 -91 
Q 1328 -91 801 392 
Q 275 875 275 1747 
Q 275 2603 792 3093 
Q 1309 3584 2216 3584 
Q 3041 3584 3536 3087 
Q 4031 2591 4031 1759 
z
M 2881 2131 
Q 2881 2450 2695 2645 
Q 2509 2841 2209 2841 
Q 1884 2841 1681 2658 
Q 1478 2475 1428 2131 
L 2881 2131 
z
" transform="scale(0.015625)"/>
      <path id="DejaVuSans-Bold-6d" d="M 3781 2919 
Q 3994 3244 4286 3414 
Q 4578 3584 4928 3584 
Q 5531 3584 5847 3212 
Q 6163 2841 6163 2131 
L 6163 0 
L 5038 0 
L 5038 1825 
Q 5041 1866 5042 1909 
Q 5044 1953 5044 2034 
Q 5044 2406 4934 2573 
Q 4825 2741 4581 2741 
Q 4263 2741 4089 2478 
Q 3916 2216 3909 1719 
L 3909 0 
L 2784 0 
L 2784 1825 
Q 2784 2406 2684 2573 
Q 2584 2741 2328 2741 
Q 2006 2741 1831 2477 
Q 1656 2213 1656 1722 
L 1656 0 
L 531 0 
L 531 3500 
L 1656 3500 
L 1656 2988 
Q 1863 3284 2130 3434 
Q 2397 3584 2719 3584 
Q 3081 3584 3359 3409 
Q 3638 3234 3781 2919 
z
" transform="scale(0.015625)"/>
      <path id="DejaVuSans-Bold-67" d="M 2919 594 
Q 2688 288 2409 144 
Q 2131 0 1766 0 
Q 1125 0 706 504 
Q 288 1009 288 1791 
Q 288 2575 706 3076 
Q 1125 3578 1766 3578 
Q 2131 3578 2409 3434 
Q 2688 3291 2919 2981 
L 2919 3500 
L 4044 3500 
L 4044 353 
Q 4044 -491 3511 -936 
Q 2978 -1381 1966 -1381 
Q 1638 -1381 1331 -1331 
Q 1025 -1281 716 -1178 
L 716 -306 
Q 1009 -475 1290 -558 
Q 1572 -641 1856 -641 
Q 2406 -641 2662 -400 
Q 2919 -159 2919 353 
L 2919 594 
z
M 2181 2772 
Q 1834 2772 1640 2515 
Q 1447 2259 1447 1791 
Q 1447 1309 1634 1061 
Q 1822 813 2181 813 
Q 2531 813 2725 1069 
Q 2919 1325 2919 1791 
Q 2919 2259 2725 2515 
Q 2531 2772 2181 2772 
z
" transform="scale(0.015625)"/>
     </defs>
     <use xlink:href="#DejaVuSans-Bold-45"/>
     <use xlink:href="#DejaVuSans-Bold-72" transform="translate(68.310547 0)"/>
     <use xlink:href="#DejaVuSans-Bold-64" transform="translate(117.626953 0)"/>
     <use xlink:href="#DejaVuSans-Bold-151" transform="translate(189.208984 0)"/>
     <use xlink:href="#DejaVuSans-Bold-73" transform="translate(257.910156 0)"/>
     <use xlink:href="#DejaVuSans-Bold-20" transform="translate(317.431641 0)"/>
     <use xlink:href="#DejaVuSans-Bold-50" transform="translate(352.246094 0)"/>
     <use xlink:href="#DejaVuSans-Bold-72" transform="translate(425.537109 0)"/>
     <use xlink:href="#DejaVuSans-Bold-6f" transform="translate(474.853516 0)"/>
     <use xlink:href="#DejaVuSans-Bold-62" transform="translate(543.554688 0)"/>
     <use xlink:href="#DejaVuSans-Bold-6c" transform="translate(615.136719 0)"/>
     <use xlink:href="#DejaVuSans-Bold-65" transform="translate(649.414062 0)"/>
     <use xlink:href="#DejaVuSans-Bold-6d" transform="translate(717.236328 0)"/>
     <use xlink:href="#DejaVuSans-Bold-73" transform="translate(821.435547 0)"/>
     <use xlink:href="#DejaVuSans-Bold-20" transform="translate(880.957031 0)"/>
     <use xlink:href="#DejaVuSans-Bold-50" transform="translate(915.771484 0)"/>
     <use xlink:href="#DejaVuSans-Bold-72" transform="translate(989.0625 0)"/>
     <use xlink:href="#DejaVuSans-Bold-6f" transform="translate(1038.378906 0)"/>
     <use xlink:href="#DejaVuSans-Bold-67" transform="translate(1107.080078 0)"/>
     <use xlink:href="#DejaVuSans-Bold-72" transform="translate(1178.662109 0)"/>
     <use xlink:href="#DejaVuSans-Bold-65" transform="translate(1227.978516 0)"/>
     <use xlink:href="#DejaVuSans-Bold-73" transform="translate(1295.800781 0)"/>
     <use xlink:href="#DejaVuSans-Bold-73" transform="translate(1355.322266 0)"/>
    </g>
   </g>
   <g id="legend_1">
    <g id="patch_7">
     <path d="M 55.90125 119.788437 
L 213.771563 119.788437 
Q 215.771563 119.788437 215.771563 117.788437 
L 215.771563 45.397812 
Q 215.771563 43.397812 213.771563 43.397812 
L 55.90125 43.397812 
Q 53.90125 43.397812 53.90125 45.397812 
L 53.90125 117.788437 
Q 53.90125 119.788437 55.90125 119.788437 
z
" style="fill: #161b22; opacity: 0.8; stroke: #30363d; stroke-linejoin: miter"/>
    </g>
    <g id="line2d_36">
     <path d="M 57.90125 51.49625 
L 67.90125 51.49625 
L 77.90125 51.49625 
" style="fill: none; stroke: #3fb950; stroke-width: 2; stroke-linecap: square"/>
    </g>
    <g id="text_24">
     <!-- Solved -->
     <g style="fill: #c9d1d9" transform="translate(85.90125 54.99625) scale(0.1 -0.1)">
      <defs>
       <path id="DejaVuSans-6c" d="M 603 4863 
L 1178 4863 
L 1178 0 
L 603 0 
L 603 4863 
z
" transform="scale(0.015625)"/>
       <path id="DejaVuSans-64" d="M 2906 2969 
L 2906 4863 
L 3481 4863 
L 3481 0 
L 2906 0 
L 2906 525 
Q 2725 213 2448 61 
Q 2172 -91 1784 -91 
Q 1150 -91 751 415 
Q 353 922 353 1747 
Q 353 2572 751 3078 
Q 1150 3584 1784 3584 
Q 2172 3584 2448 3432 
Q 2725 3281 2906 2969 
z
M 947 1747 
Q 947 1113 1208 752 
Q 1469 391 1925 391 
Q 2381 391 2643 752 
Q 2906 1113 2906 1747 
Q 2906 2381 2643 2742 
Q 2381 3103 1925 3103 
Q 1469 3103 1208 2742 
Q 947 2381 947 1747 
z
" transform="scale(0.015625)"/>
      </defs>
      <use xlink:href="#DejaVuSans-53"/>
      <use xlink:href="#DejaVuSans-6f" transform="translate(63.476562 0)"/>
      <use xlink:href="#DejaVuSans-6c" transform="translate(124.658203 0)"/>
      <use xlink:href="#DejaVuSans-76" transform="translate(152.441406 0)"/>
      <use xlink:href="#DejaVuSans-65" transform="translate(211.621094 0)"/>
      <use xlink:href="#DejaVuSans-64" transform="translate(273.144531 0)"/>
     </g>
    </g>
    <g id="line2d_37">
     <path d="M 57.90125 66.174375 
L 67.90125 66.174375 
L 77.90125 66.174375 
" style="fill: none; stroke: #58a6ff; stroke-width: 2; stroke-linecap: square"/>
    </g>
    <g id="text_25">
     <!-- Lean Formalized Problem -->
     <g style="fill: #c9d1d9" transform="translate(85.90125 69.674375) scale(0.1 -0.1)">
      <defs>
       <path id="DejaVuSans-4c" d="M 628 4666 
L 1259 4666 
L 1259 531 
L 3531 531 
L 3531 0 
L 628 0 
L 628 4666 
z
" transform="scale(0.015625)"/>
       <path id="DejaVuSans-20" transform="scale(0.015625)"/>
       <path id="DejaVuSans-6d" d="M 3328 2828 
Q 3544 3216 3844 3400 
Q 4144 3584 4550 3584 
Q 5097 3584 5394 3201 
Q 5691 2819 5691 2113 
L 5691 0 
L 5113 0 
L 5113 2094 
Q 5113 2597 4934 2840 
Q 4756 3084 4391 3084 
Q 3944 3084 3684 2787 
Q 3425 2491 3425 1978 
L 3425 0 
L 2847 0 
L 2847 2094 
Q 2847 2600 2669 2842 
Q 2491 3084 2119 3084 
Q 1678 3084 1418 2786 
Q 1159 2488 1159 1978 
L 1159 0 
L 581 0 
L 581 3500 
L 1159 3500 
L 1159 2956 
Q 1356 3278 1631 3431 
Q 1906 3584 2284 3584 
Q 2666 3584 2933 3390 
Q 3200 3197 3328 2828 
z
" transform="scale(0.015625)"/>
       <path id="DejaVuSans-69" d="M 603 3500 
L 1178 3500 
L 1178 0 
L 603 0 
L 603 3500 
z
M 603 4863 
L 1178 4863 
L 1178 4134 
L 603 4134 
L 603 4863 
z
" transform="scale(0.015625)"/>
       <path id="DejaVuSans-7a" d="M 353 3500 
L 3084 3500 
L 3084 2975 
L 922 459 
L 3084 459 
L 3084 0 
L 275 0 
L 275 525 
L 2438 3041 
L 353 3041 
L 353 3500 
z
" transform="scale(0.015625)"/>
       <path id="DejaVuSans-50" d="M 1259 4147 
L 1259 2394 
L 2053 2394 
Q 2494 2394 2734 2622 
Q 2975 2850 2975 3272 
Q 2975 3691 2734 3919 
Q 2494 4147 2053 4147 
L 1259 4147 
z
M 628 4666 
L 2053 4666 
Q 2838 4666 3239 4311 
Q 3641 3956 3641 3272 
Q 3641 2581 3239 2228 
Q 2838 1875 2053 1875 
L 1259 1875 
L 1259 0 
L 628 0 
L 628 4666 
z
" transform="scale(0.015625)"/>
      </defs>
      <use xlink:href="#DejaVuSans-4c"/>
      <use xlink:href="#DejaVuSans-65" transform="translate(53.962891 0)"/>
      <use xlink:href="#DejaVuSans-61" transform="translate(115.486328 0)"/>
      <use xlink:href="#DejaVuSans-6e" transform="translate(176.765625 0)"/>
      <use xlink:href="#DejaVuSans-20" transform="translate(240.144531 0)"/>
      <use xlink:href="#DejaVuSans-46" transform="translate(271.931641 0)"/>
      <use xlink:href="#DejaVuSans-6f" transform="translate(325.826172 0)"/>
      <use xlink:href="#DejaVuSans-72" transform="translate(387.007812 0)"/>
      <use xlink:href="#DejaVuSans-6d" transform="translate(426.371094 0)"/>
      <use xlink:href="#DejaVuSans-61" transform="translate(523.783203 0)"/>
      <use xlink:href="#DejaVuSans-6c" transform="translate(585.0625 0)"/>
      <use xlink:href="#DejaVuSans-69" transform="translate(612.845703 0)"/>
      <use xlink:href="#DejaVuSans-7a" transform="translate(640.628906 0)"/>
      <use xlink:href="#DejaVuSans-65" transform="translate(693.119141 0)"/>
      <use xlink:href="#DejaVuSans-64" transform="translate(754.642578 0)"/>
      <use xlink:href="#DejaVuSans-20" transform="translate(818.119141 0)"/>
      <use xlink:href="#DejaVuSans-50" transform="translate(849.90625 0)"/>
      <use xlink:href="#DejaVuSans-72" transform="translate(908.458984 0)"/>
      <use xlink:href="#DejaVuSans-6f" transform="translate(947.322266 0)"/>
      <use xlink:href="#DejaVuSans-62" transform="translate(1008.503906 0)"/>
      <use xlink:href="#DejaVuSans-6c" transform="translate(1071.980469 0)"/>
      <use xlink:href="#DejaVuSans-65" transform="translate(1099.763672 0)"/>
      <use xlink:href="#DejaVuSans-6d" transform="translate(1161.287109 0)"/>
     </g>
    </g>
    <g id="line2d_38">
     <path d="M 57.90125 80.8525 
L 67.90125 80.8525 
L 77.90125 80.8525 
" style="fill: none; stroke: #d29922; stroke-width: 2; stroke-linecap: square"/>
    </g>
    <g id="text_26">
     <!-- Lean Formalized Solution -->
     <g style="fill: #c9d1d9" transform="translate(85.90125 84.3525) scale(0.1 -0.1)">
      <use xlink:href="#DejaVuSans-4c"/>
      <use xlink:href="#DejaVuSans-65" transform="translate(53.962891 0)"/>
      <use xlink:href="#DejaVuSans-61" transform="translate(115.486328 0)"/>
      <use xlink:href="#DejaVuSans-6e" transform="translate(176.765625 0)"/>
      <use xlink:href="#DejaVuSans-20" transform="translate(240.144531 0)"/>
      <use xlink:href="#DejaVuSans-46" transform="translate(271.931641 0)"/>
      <use xlink:href="#DejaVuSans-6f" transform="translate(325.826172 0)"/>
      <use xlink:href="#DejaVuSans-72" transform="translate(387.007812 0)"/>
      <use xlink:href="#DejaVuSans-6d" transform="translate(426.371094 0)"/>
      <use xlink:href="#DejaVuSans-61" transform="translate(523.783203 0)"/>
      <use xlink:href="#DejaVuSans-6c" transform="translate(585.0625 0)"/>
      <use xlink:href="#DejaVuSans-69" transform="translate(612.845703 0)"/>
      <use xlink:href="#DejaVuSans-7a" transform="translate(640.628906 0)"/>
      <use xlink:href="#DejaVuSans-65" transform="translate(693.119141 0)"/>
      <use xlink:href="#DejaVuSans-64" transform="translate(754.642578 0)"/>
      <use xlink:href="#DejaVuSans-20" transform="translate(818.119141 0)"/>
      <use xlink:href="#DejaVuSans-53" transform="translate(849.90625 0)"/>
      <use xlink:href="#DejaVuSans-6f" transform="translate(913.382812 0)"/>
      <use xlink:href="#DejaVuSans-6c" transform="translate(974.564453 0)"/>
      <use xlink:href="#DejaVuSans-75" transform="translate(1002.347656 0)"/>
      <use xlink:href="#DejaVuSans-74" transform="translate(1065.726562 0)"/>
      <use xlink:href="#DejaVuSans-69" transform="translate(1104.935547 0)"/>
      <use xlink:href="#DejaVuSans-6f" transform="translate(1132.71875 0)"/>
      <use xlink:href="#DejaVuSans-6e" transform="translate(1193.900391 0)"/>
     </g>
    </g>
    <g id="line2d_39">
     <path d="M 57.90125 95.530625 
L 67.90125 95.530625 
L 77.90125 95.530625 
" style="fill: none; stroke: #f85149; stroke-width: 2; stroke-linecap: square"/>
    </g>
    <g id="text_27">
     <!-- OEIS Linked -->
     <g style="fill: #c9d1d9" transform="translate(85.90125 99.030625) scale(0.1 -0.1)">
      <defs>
       <path id="DejaVuSans-45" d="M 628 4666 
L 3578 4666 
L 3578 4134 
L 1259 4134 
L 1259 2753 
L 3481 2753 
L 3481 2222 
L 1259 2222 
L 1259 531 
L 3634 531 
L 3634 0 
L 628 0 
L 628 4666 
z
" transform="scale(0.015625)"/>
       <path id="DejaVuSans-49" d="M 628 4666 
L 1259 4666 
L 1259 0 
L 628 0 
L 628 4666 
z
" transform="scale(0.015625)"/>
       <path id="DejaVuSans-6b" d="M 581 4863 
L 1159 4863 
L 1159 1991 
L 2875 3500 
L 3609 3500 
L 1753 1863 
L 3688 0 
L 2938 0 
L 1159 1709 
L 1159 0 
L 581 0 
L 581 4863 
z
" transform="scale(0.015625)"/>
      </defs>
      <use xlink:href="#DejaVuSans-4f"/>
      <use xlink:href="#DejaVuSans-45" transform="translate(78.710938 0)"/>
      <use xlink:href="#DejaVuSans-49" transform="translate(141.894531 0)"/>
      <use xlink:href="#DejaVuSans-53" transform="translate(171.386719 0)"/>
      <use xlink:href="#DejaVuSans-20" transform="translate(234.863281 0)"/>
      <use xlink:href="#DejaVuSans-4c" transform="translate(266.650391 0)"/>
      <use xlink:href="#DejaVuSans-69" transform="translate(322.363281 0)"/>
      <use xlink:href="#DejaVuSans-6e" transform="translate(350.146484 0)"/>
      <use xlink:href="#DejaVuSans-6b" transform="translate(413.525391 0)"/>
      <use xlink:href="#DejaVuSans-65" transform="translate(467.810547 0)"/>
      <use xlink:href="#DejaVuSans-64" transform="translate(529.333984 0)"/>
     </g>
    </g>
    <g id="line2d_40">
     <path d="M 57.90125 110.20875 
L 67.90125 110.20875 
L 77.90125 110.20875 
" style="fill: none; stroke: #9467bd; stroke-width: 2; stroke-linecap: square"/>
    </g>
    <g id="text_28">
     <!-- Open Problems -->
     <g style="fill: #c9d1d9" transform="translate(85.90125 113.70875) scale(0.1 -0.1)">
      <defs>
       <path id="DejaVuSans-73" d="M 2834 3397 
L 2834 2853 
Q 2591 2978 2328 3040 
Q 2066 3103 1784 3103 
Q 1356 3103 1142 2972 
Q 928 2841 928 2578 
Q 928 2378 1081 2264 
Q 1234 2150 1697 2047 
L 1894 2003 
Q 2506 1872 2764 1633 
Q 3022 1394 3022 966 
Q 3022 478 2636 193 
Q 2250 -91 1575 -91 
Q 1294 -91 989 -36 
Q 684 19 347 128 
L 347 722 
Q 666 556 975 473 
Q 1284 391 1588 391 
Q 1994 391 2212 530 
Q 2431 669 2431 922 
Q 2431 1156 2273 1281 
Q 2116 1406 1581 1522 
L 1381 1569 
Q 847 1681 609 1914 
Q 372 2147 372 2553 
Q 372 3047 722 3315 
Q 1072 3584 1716 3584 
Q 2034 3584 2315 3537 
Q 2597 3491 2834 3397 
z
" transform="scale(0.015625)"/>
      </defs>
      <use xlink:href="#DejaVuSans-4f"/>
      <use xlink:href="#DejaVuSans-70" transform="translate(78.710938 0)"/>
      <use xlink:href="#DejaVuSans-65" transform="translate(142.1875 0)"/>
      <use xlink:href="#DejaVuSans-6e" transform="translate(203.710938 0)"/>
      <use xlink:href="#DejaVuSans-20" transform="translate(267.089844 0)"/>
      <use xlink:href="#DejaVuSans-50" transform="translate(298.876953 0)"/>
      <use xlink:href="#DejaVuSans-72" transform="translate(357.429688 0)"/>
      <use xlink:href="#DejaVuSans-6f" transform="translate(396.292969 0)"/>
      <use xlink:href="#DejaVuSans-62" transform="translate(457.474609 0)"/>
      <use xlink:href="#DejaVuSans-6c" transform="translate(520.951172 0)"/>
      <use xlink:href="#DejaVuSans-65" transform="translate(548.734375 0)"/>
      <use xlink:href="#DejaVuSans-6d" transform="translate(610.257812 0)"/>
      <use xlink:href="#DejaVuSans-73" transform="translate(707.669922 0)"/>
     </g>
    </g>
   </g>
  </g>
 </g>
 <defs>
  <clipPath id="p75e5f645e7">
   <rect x="48.90125" y="38.397812" width="799.45" height="416.84"/>
  </clipPath>
 </defs>
</svg>
