<?xml version="1.0" encoding="utf-8" standalone="no"?>
<!DOCTYPE svg PUBLIC "-//W3C//DTD SVG 1.1//EN"
  "http://www.w3.org/Graphics/SVG/1.1/DTD/svg11.dtd">
<svg xmlns:xlink="http://www.w3.org/1999/xlink" width="855.55125pt" height="494.729687pt" viewBox="0 0 855.55125 494.729687" xmlns="http://www.w3.org/2000/svg" version="1.1">
 <metadata>
  <rdf:RDF xmlns:dc="http://purl.org/dc/elements/1.1/" xmlns:cc="http://creativecommons.org/ns#" xmlns:rdf="http://www.w3.org/1999/02/22-rdf-syntax-ns#">
   <cc:Work>
    <dc:type rdf:resource="http://purl.org/dc/dcmitype/StillImage"/>
    <dc:date>2026-05-27T08:57:37.277967</dc:date>
    <dc:format>image/svg+xml</dc:format>
    <dc:creator>
     <cc:Agent>
      <dc:title>Matplotlib v3.10.7, https://matplotlib.org/</dc:title>
     </cc:Agent>
    </dc:creator>
   </cc:Work>
  </rdf:RDF>
 </metadata>
 <defs>
  <style type="text/css">*{stroke-linejoin: round; stroke-linecap: butt}</style>
 </defs>
 <g id="figure_1">
  <g id="patch_1">
   <path d="M 0 494.729687 
L 855.55125 494.729687 
L 855.55125 0 
L 0 0 
z
" style="fill: #0d1117"/>
  </g>
  <g id="axes_1">
   <g id="patch_2">
    <path d="M 48.90125 455.237812 
L 848.35125 455.237812 
L 848.35125 38.397812 
L 48.90125 38.397812 
z
" style="fill: #0d1117"/>
   </g>
   <g id="matplotlib.axis_1">
    <g id="xtick_1">
     <g id="line2d_1">
      <path d="M 86.030695 455.237812 
L 86.030695 38.397812 
" clip-path="url(#p3c27c10c62)" style="fill: none; stroke: #30363d; stroke-opacity: 0.25; stroke-width: 0.5; stroke-linecap: square"/>
     </g>
     <g id="line2d_2">
      <defs>
       <path id="md293e4d866" d="M 0 0 
L 0 3.5 
" style="stroke: #c9d1d9; stroke-width: 0.8"/>
      </defs>
      <g>
       <use xlink:href="#md293e4d866" x="86.030695" y="455.237812" style="fill: #c9d1d9; stroke: #c9d1d9; stroke-width: 0.8"/>
      </g>
     </g>
     <g id="text_1">
      <!-- Sep -->
      <g style="fill: #c9d1d9" transform="translate(76.605695 469.83625) scale(0.1 -0.1)">
       <defs>
        <path id="DejaVuSans-53" d="M 3425 4513 
L 3425 3897 
Q 3066 4069 2747 4153 
Q 2428 4238 2131 4238 
Q 1616 4238 1336 4038 
Q 1056 3838 1056 3469 
Q 1056 3159 1242 3001 
Q 1428 2844 1947 2747 
L 2328 2669 
Q 3034 2534 3370 2195 
Q 3706 1856 3706 1288 
Q 3706 609 3251 259 
Q 2797 -91 1919 -91 
Q 1588 -91 1214 -16 
Q 841 59 441 206 
L 441 856 
Q 825 641 1194 531 
Q 1563 422 1919 422 
Q 2459 422 2753 634 
Q 3047 847 3047 1241 
Q 3047 1584 2836 1778 
Q 2625 1972 2144 2069 
L 1759 2144 
Q 1053 2284 737 2584 
Q 422 2884 422 3419 
Q 422 4038 858 4394 
Q 1294 4750 2059 4750 
Q 2388 4750 2728 4690 
Q 3069 4631 3425 4513 
z
" transform="scale(0.015625)"/>
        <path id="DejaVuSans-65" d="M 3597 1894 
L 3597 1613 
L 953 1613 
Q 991 1019 1311 708 
Q 1631 397 2203 397 
Q 2534 397 2845 478 
Q 3156 559 3463 722 
L 3463 178 
Q 3153 47 2828 -22 
Q 2503 -91 2169 -91 
Q 1331 -91 842 396 
Q 353 884 353 1716 
Q 353 2575 817 3079 
Q 1281 3584 2069 3584 
Q 2775 3584 3186 3129 
Q 3597 2675 3597 1894 
z
M 3022 2063 
Q 3016 2534 2758 2815 
Q 2500 3097 2075 3097 
Q 1594 3097 1305 2825 
Q 1016 2553 972 2059 
L 3022 2063 
z
" transform="scale(0.015625)"/>
        <path id="DejaVuSans-70" d="M 1159 525 
L 1159 -1331 
L 581 -1331 
L 581 3500 
L 1159 3500 
L 1159 2969 
Q 1341 3281 1617 3432 
Q 1894 3584 2278 3584 
Q 2916 3584 3314 3078 
Q 3713 2572 3713 1747 
Q 3713 922 3314 415 
Q 2916 -91 2278 -91 
Q 1894 -91 1617 61 
Q 1341 213 1159 525 
z
M 3116 1747 
Q 3116 2381 2855 2742 
Q 2594 3103 2138 3103 
Q 1681 3103 1420 2742 
Q 1159 2381 1159 1747 
Q 1159 1113 1420 752 
Q 1681 391 2138 391 
Q 2594 391 2855 752 
Q 3116 1113 3116 1747 
z
" transform="scale(0.015625)"/>
       </defs>
       <use xlink:href="#DejaVuSans-53"/>
       <use xlink:href="#DejaVuSans-65" transform="translate(63.476562 0)"/>
       <use xlink:href="#DejaVuSans-70" transform="translate(125 0)"/>
      </g>
     </g>
    </g>
    <g id="xtick_2">
     <g id="line2d_3">
      <path d="M 167.184278 455.237812 
L 167.184278 38.397812 
" clip-path="url(#p3c27c10c62)" style="fill: none; stroke: #30363d; stroke-opacity: 0.25; stroke-width: 0.5; stroke-linecap: square"/>
     </g>
     <g id="line2d_4">
      <g>
       <use xlink:href="#md293e4d866" x="167.184278" y="455.237812" style="fill: #c9d1d9; stroke: #c9d1d9; stroke-width: 0.8"/>
      </g>
     </g>
     <g id="text_2">
      <!-- Oct -->
      <g style="fill: #c9d1d9" transform="translate(158.538966 469.83625) scale(0.1 -0.1)">
       <defs>
        <path id="DejaVuSans-4f" d="M 2522 4238 
Q 1834 4238 1429 3725 
Q 1025 3213 1025 2328 
Q 1025 1447 1429 934 
Q 1834 422 2522 422 
Q 3209 422 3611 934 
Q 4013 1447 4013 2328 
Q 4013 3213 3611 3725 
Q 3209 4238 2522 4238 
z
M 2522 4750 
Q 3503 4750 4090 4092 
Q 4678 3434 4678 2328 
Q 4678 1225 4090 567 
Q 3503 -91 2522 -91 
Q 1538 -91 948 565 
Q 359 1222 359 2328 
Q 359 3434 948 4092 
Q 1538 4750 2522 4750 
z
" transform="scale(0.015625)"/>
        <path id="DejaVuSans-63" d="M 3122 3366 
L 3122 2828 
Q 2878 2963 2633 3030 
Q 2388 3097 2138 3097 
Q 1578 3097 1268 2742 
Q 959 2388 959 1747 
Q 959 1106 1268 751 
Q 1578 397 2138 397 
Q 2388 397 2633 464 
Q 2878 531 3122 666 
L 3122 134 
Q 2881 22 2623 -34 
Q 2366 -91 2075 -91 
Q 1284 -91 818 406 
Q 353 903 353 1747 
Q 353 2603 823 3093 
Q 1294 3584 2113 3584 
Q 2378 3584 2631 3529 
Q 2884 3475 3122 3366 
z
" transform="scale(0.015625)"/>
        <path id="DejaVuSans-74" d="M 1172 4494 
L 1172 3500 
L 2356 3500 
L 2356 3053 
L 1172 3053 
L 1172 1153 
Q 1172 725 1289 603 
Q 1406 481 1766 481 
L 2356 481 
L 2356 0 
L 1766 0 
Q 1100 0 847 248 
Q 594 497 594 1153 
L 594 3053 
L 172 3053 
L 172 3500 
L 594 3500 
L 594 4494 
L 1172 4494 
z
" transform="scale(0.015625)"/>
       </defs>
       <use xlink:href="#DejaVuSans-4f"/>
       <use xlink:href="#DejaVuSans-63" transform="translate(78.710938 0)"/>
       <use xlink:href="#DejaVuSans-74" transform="translate(133.691406 0)"/>
      </g>
     </g>
    </g>
    <g id="xtick_3">
     <g id="line2d_5">
      <path d="M 251.042981 455.237812 
L 251.042981 38.397812 
" clip-path="url(#p3c27c10c62)" style="fill: none; stroke: #30363d; stroke-opacity: 0.25; stroke-width: 0.5; stroke-linecap: square"/>
     </g>
     <g id="line2d_6">
      <g>
       <use xlink:href="#md293e4d866" x="251.042981" y="455.237812" style="fill: #c9d1d9; stroke: #c9d1d9; stroke-width: 0.8"/>
      </g>
     </g>
     <g id="text_3">
      <!-- Nov -->
      <g style="fill: #c9d1d9" transform="translate(241.283606 469.83625) scale(0.1 -0.1)">
       <defs>
        <path id="DejaVuSans-4e" d="M 628 4666 
L 1478 4666 
L 3547 763 
L 3547 4666 
L 4159 4666 
L 4159 0 
L 3309 0 
L 1241 3903 
L 1241 0 
L 628 0 
L 628 4666 
z
" transform="scale(0.015625)"/>
        <path id="DejaVuSans-6f" d="M 1959 3097 
Q 1497 3097 1228 2736 
Q 959 2375 959 1747 
Q 959 1119 1226 758 
Q 1494 397 1959 397 
Q 2419 397 2687 759 
Q 2956 1122 2956 1747 
Q 2956 2369 2687 2733 
Q 2419 3097 1959 3097 
z
M 1959 3584 
Q 2709 3584 3137 3096 
Q 3566 2609 3566 1747 
Q 3566 888 3137 398 
Q 2709 -91 1959 -91 
Q 1206 -91 779 398 
Q 353 888 353 1747 
Q 353 2609 779 3096 
Q 1206 3584 1959 3584 
z
" transform="scale(0.015625)"/>
        <path id="DejaVuSans-76" d="M 191 3500 
L 800 3500 
L 1894 563 
L 2988 3500 
L 3597 3500 
L 2284 0 
L 1503 0 
L 191 3500 
z
" transform="scale(0.015625)"/>
       </defs>
       <use xlink:href="#DejaVuSans-4e"/>
       <use xlink:href="#DejaVuSans-6f" transform="translate(74.804688 0)"/>
       <use xlink:href="#DejaVuSans-76" transform="translate(135.986328 0)"/>
      </g>
     </g>
    </g>
    <g id="xtick_4">
     <g id="line2d_7">
      <path d="M 332.196563 455.237812 
L 332.196563 38.397812 
" clip-path="url(#p3c27c10c62)" style="fill: none; stroke: #30363d; stroke-opacity: 0.25; stroke-width: 0.5; stroke-linecap: square"/>
     </g>
     <g id="line2d_8">
      <g>
       <use xlink:href="#md293e4d866" x="332.196563" y="455.237812" style="fill: #c9d1d9; stroke: #c9d1d9; stroke-width: 0.8"/>
      </g>
     </g>
     <g id="text_4">
      <!-- Dec -->
      <g style="fill: #c9d1d9" transform="translate(322.520782 469.83625) scale(0.1 -0.1)">
       <defs>
        <path id="DejaVuSans-44" d="M 1259 4147 
L 1259 519 
L 2022 519 
Q 2988 519 3436 956 
Q 3884 1394 3884 2338 
Q 3884 3275 3436 3711 
Q 2988 4147 2022 4147 
L 1259 4147 
z
M 628 4666 
L 1925 4666 
Q 3281 4666 3915 4102 
Q 4550 3538 4550 2338 
Q 4550 1131 3912 565 
Q 3275 0 1925 0 
L 628 0 
L 628 4666 
z
" transform="scale(0.015625)"/>
       </defs>
       <use xlink:href="#DejaVuSans-44"/>
       <use xlink:href="#DejaVuSans-65" transform="translate(77.001953 0)"/>
       <use xlink:href="#DejaVuSans-63" transform="translate(138.525391 0)"/>
      </g>
     </g>
    </g>
    <g id="xtick_5">
     <g id="line2d_9">
      <path d="M 416.055266 455.237812 
L 416.055266 38.397812 
" clip-path="url(#p3c27c10c62)" style="fill: none; stroke: #30363d; stroke-opacity: 0.25; stroke-width: 0.5; stroke-linecap: square"/>
     </g>
     <g id="line2d_10">
      <g>
       <use xlink:href="#md293e4d866" x="416.055266" y="455.237812" style="fill: #c9d1d9; stroke: #c9d1d9; stroke-width: 0.8"/>
      </g>
     </g>
     <g id="text_5">
      <!-- 2026 -->
      <g style="fill: #c9d1d9" transform="translate(403.330266 469.83625) scale(0.1 -0.1)">
       <defs>
        <path id="DejaVuSans-32" d="M 1228 531 
L 3431 531 
L 3431 0 
L 469 0 
L 469 531 
Q 828 903 1448 1529 
Q 2069 2156 2228 2338 
Q 2531 2678 2651 2914 
Q 2772 3150 2772 3378 
Q 2772 3750 2511 3984 
Q 2250 4219 1831 4219 
Q 1534 4219 1204 4116 
Q 875 4013 500 3803 
L 500 4441 
Q 881 4594 1212 4672 
Q 1544 4750 1819 4750 
Q 2544 4750 2975 4387 
Q 3406 4025 3406 3419 
Q 3406 3131 3298 2873 
Q 3191 2616 2906 2266 
Q 2828 2175 2409 1742 
Q 1991 1309 1228 531 
z
" transform="scale(0.015625)"/>
        <path id="DejaVuSans-30" d="M 2034 4250 
Q 1547 4250 1301 3770 
Q 1056 3291 1056 2328 
Q 1056 1369 1301 889 
Q 1547 409 2034 409 
Q 2525 409 2770 889 
Q 3016 1369 3016 2328 
Q 3016 3291 2770 3770 
Q 2525 4250 2034 4250 
z
M 2034 4750 
Q 2819 4750 3233 4129 
Q 3647 3509 3647 2328 
Q 3647 1150 3233 529 
Q 2819 -91 2034 -91 
Q 1250 -91 836 529 
Q 422 1150 422 2328 
Q 422 3509 836 4129 
Q 1250 4750 2034 4750 
z
" transform="scale(0.015625)"/>
        <path id="DejaVuSans-36" d="M 2113 2584 
Q 1688 2584 1439 2293 
Q 1191 2003 1191 1497 
Q 1191 994 1439 701 
Q 1688 409 2113 409 
Q 2538 409 2786 701 
Q 3034 994 3034 1497 
Q 3034 2003 2786 2293 
Q 2538 2584 2113 2584 
z
M 3366 4563 
L 3366 3988 
Q 3128 4100 2886 4159 
Q 2644 4219 2406 4219 
Q 1781 4219 1451 3797 
Q 1122 3375 1075 2522 
Q 1259 2794 1537 2939 
Q 1816 3084 2150 3084 
Q 2853 3084 3261 2657 
Q 3669 2231 3669 1497 
Q 3669 778 3244 343 
Q 2819 -91 2113 -91 
Q 1303 -91 875 529 
Q 447 1150 447 2328 
Q 447 3434 972 4092 
Q 1497 4750 2381 4750 
Q 2619 4750 2861 4703 
Q 3103 4656 3366 4563 
z
" transform="scale(0.015625)"/>
       </defs>
       <use xlink:href="#DejaVuSans-32"/>
       <use xlink:href="#DejaVuSans-30" transform="translate(63.623047 0)"/>
       <use xlink:href="#DejaVuSans-32" transform="translate(127.246094 0)"/>
       <use xlink:href="#DejaVuSans-36" transform="translate(190.869141 0)"/>
      </g>
     </g>
    </g>
    <g id="xtick_6">
     <g id="line2d_11">
      <path d="M 499.913968 455.237812 
L 499.913968 38.397812 
" clip-path="url(#p3c27c10c62)" style="fill: none; stroke: #30363d; stroke-opacity: 0.25; stroke-width: 0.5; stroke-linecap: square"/>
     </g>
     <g id="line2d_12">
      <g>
       <use xlink:href="#md293e4d866" x="499.913968" y="455.237812" style="fill: #c9d1d9; stroke: #c9d1d9; stroke-width: 0.8"/>
      </g>
     </g>
     <g id="text_6">
      <!-- Feb -->
      <g style="fill: #c9d1d9" transform="translate(491.062406 469.83625) scale(0.1 -0.1)">
       <defs>
        <path id="DejaVuSans-46" d="M 628 4666 
L 3309 4666 
L 3309 4134 
L 1259 4134 
L 1259 2759 
L 3109 2759 
L 3109 2228 
L 1259 2228 
L 1259 0 
L 628 0 
L 628 4666 
z
" transform="scale(0.015625)"/>
        <path id="DejaVuSans-62" d="M 3116 1747 
Q 3116 2381 2855 2742 
Q 2594 3103 2138 3103 
Q 1681 3103 1420 2742 
Q 1159 2381 1159 1747 
Q 1159 1113 1420 752 
Q 1681 391 2138 391 
Q 2594 391 2855 752 
Q 3116 1113 3116 1747 
z
M 1159 2969 
Q 1341 3281 1617 3432 
Q 1894 3584 2278 3584 
Q 2916 3584 3314 3078 
Q 3713 2572 3713 1747 
Q 3713 922 3314 415 
Q 2916 -91 2278 -91 
Q 1894 -91 1617 61 
Q 1341 213 1159 525 
L 1159 0 
L 581 0 
L 581 4863 
L 1159 4863 
L 1159 2969 
z
" transform="scale(0.015625)"/>
       </defs>
       <use xlink:href="#DejaVuSans-46"/>
       <use xlink:href="#DejaVuSans-65" transform="translate(52.019531 0)"/>
       <use xlink:href="#DejaVuSans-62" transform="translate(113.542969 0)"/>
      </g>
     </g>
    </g>
    <g id="xtick_7">
     <g id="line2d_13">
      <path d="M 575.657312 455.237812 
L 575.657312 38.397812 
" clip-path="url(#p3c27c10c62)" style="fill: none; stroke: #30363d; stroke-opacity: 0.25; stroke-width: 0.5; stroke-linecap: square"/>
     </g>
     <g id="line2d_14">
      <g>
       <use xlink:href="#md293e4d866" x="575.657312" y="455.237812" style="fill: #c9d1d9; stroke: #c9d1d9; stroke-width: 0.8"/>
      </g>
     </g>
     <g id="text_7">
      <!-- Mar -->
      <g style="fill: #c9d1d9" transform="translate(566.223718 469.83625) scale(0.1 -0.1)">
       <defs>
        <path id="DejaVuSans-4d" d="M 628 4666 
L 1569 4666 
L 2759 1491 
L 3956 4666 
L 4897 4666 
L 4897 0 
L 4281 0 
L 4281 4097 
L 3078 897 
L 2444 897 
L 1241 4097 
L 1241 0 
L 628 0 
L 628 4666 
z
" transform="scale(0.015625)"/>
        <path id="DejaVuSans-61" d="M 2194 1759 
Q 1497 1759 1228 1600 
Q 959 1441 959 1056 
Q 959 750 1161 570 
Q 1363 391 1709 391 
Q 2188 391 2477 730 
Q 2766 1069 2766 1631 
L 2766 1759 
L 2194 1759 
z
M 3341 1997 
L 3341 0 
L 2766 0 
L 2766 531 
Q 2569 213 2275 61 
Q 1981 -91 1556 -91 
Q 1019 -91 701 211 
Q 384 513 384 1019 
Q 384 1609 779 1909 
Q 1175 2209 1959 2209 
L 2766 2209 
L 2766 2266 
Q 2766 2663 2505 2880 
Q 2244 3097 1772 3097 
Q 1472 3097 1187 3025 
Q 903 2953 641 2809 
L 641 3341 
Q 956 3463 1253 3523 
Q 1550 3584 1831 3584 
Q 2591 3584 2966 3190 
Q 3341 2797 3341 1997 
z
" transform="scale(0.015625)"/>
        <path id="DejaVuSans-72" d="M 2631 2963 
Q 2534 3019 2420 3045 
Q 2306 3072 2169 3072 
Q 1681 3072 1420 2755 
Q 1159 2438 1159 1844 
L 1159 0 
L 581 0 
L 581 3500 
L 1159 3500 
L 1159 2956 
Q 1341 3275 1631 3429 
Q 1922 3584 2338 3584 
Q 2397 3584 2469 3576 
Q 2541 3569 2628 3553 
L 2631 2963 
z
" transform="scale(0.015625)"/>
       </defs>
       <use xlink:href="#DejaVuSans-4d"/>
       <use xlink:href="#DejaVuSans-61" transform="translate(86.279297 0)"/>
       <use xlink:href="#DejaVuSans-72" transform="translate(147.558594 0)"/>
      </g>
     </g>
    </g>
    <g id="xtick_8">
     <g id="line2d_15">
      <path d="M 659.516014 455.237812 
L 659.516014 38.397812 
" clip-path="url(#p3c27c10c62)" style="fill: none; stroke: #30363d; stroke-opacity: 0.25; stroke-width: 0.5; stroke-linecap: square"/>
     </g>
     <g id="line2d_16">
      <g>
       <use xlink:href="#md293e4d866" x="659.516014" y="455.237812" style="fill: #c9d1d9; stroke: #c9d1d9; stroke-width: 0.8"/>
      </g>
     </g>
     <g id="text_8">
      <!-- Apr -->
      <g style="fill: #c9d1d9" transform="translate(650.866014 469.83625) scale(0.1 -0.1)">
       <defs>
        <path id="DejaVuSans-41" d="M 2188 4044 
L 1331 1722 
L 3047 1722 
L 2188 4044 
z
M 1831 4666 
L 2547 4666 
L 4325 0 
L 3669 0 
L 3244 1197 
L 1141 1197 
L 716 0 
L 50 0 
L 1831 4666 
z
" transform="scale(0.015625)"/>
       </defs>
       <use xlink:href="#DejaVuSans-41"/>
       <use xlink:href="#DejaVuSans-70" transform="translate(68.408203 0)"/>
       <use xlink:href="#DejaVuSans-72" transform="translate(131.884766 0)"/>
      </g>
     </g>
    </g>
    <g id="xtick_9">
     <g id="line2d_17">
      <path d="M 740.669597 455.237812 
L 740.669597 38.397812 
" clip-path="url(#p3c27c10c62)" style="fill: none; stroke: #30363d; stroke-opacity: 0.25; stroke-width: 0.5; stroke-linecap: square"/>
     </g>
     <g id="line2d_18">
      <g>
       <use xlink:href="#md293e4d866" x="740.669597" y="455.237812" style="fill: #c9d1d9; stroke: #c9d1d9; stroke-width: 0.8"/>
      </g>
     </g>
     <g id="text_9">
      <!-- May -->
      <g style="fill: #c9d1d9" transform="translate(730.332097 469.83625) scale(0.1 -0.1)">
       <defs>
        <path id="DejaVuSans-79" d="M 2059 -325 
Q 1816 -950 1584 -1140 
Q 1353 -1331 966 -1331 
L 506 -1331 
L 506 -850 
L 844 -850 
Q 1081 -850 1212 -737 
Q 1344 -625 1503 -206 
L 1606 56 
L 191 3500 
L 800 3500 
L 1894 763 
L 2988 3500 
L 3597 3500 
L 2059 -325 
z
" transform="scale(0.015625)"/>
       </defs>
       <use xlink:href="#DejaVuSans-4d"/>
       <use xlink:href="#DejaVuSans-61" transform="translate(86.279297 0)"/>
       <use xlink:href="#DejaVuSans-79" transform="translate(147.558594 0)"/>
      </g>
     </g>
    </g>
    <g id="xtick_10">
     <g id="line2d_19">
      <path d="M 824.5283 455.237812 
L 824.5283 38.397812 
" clip-path="url(#p3c27c10c62)" style="fill: none; stroke: #30363d; stroke-opacity: 0.25; stroke-width: 0.5; stroke-linecap: square"/>
     </g>
     <g id="line2d_20">
      <g>
       <use xlink:href="#md293e4d866" x="824.5283" y="455.237812" style="fill: #c9d1d9; stroke: #c9d1d9; stroke-width: 0.8"/>
      </g>
     </g>
     <g id="text_10">
      <!-- Jun -->
      <g style="fill: #c9d1d9" transform="translate(816.7158 469.83625) scale(0.1 -0.1)">
       <defs>
        <path id="DejaVuSans-4a" d="M 628 4666 
L 1259 4666 
L 1259 325 
Q 1259 -519 939 -900 
Q 619 -1281 -91 -1281 
L -331 -1281 
L -331 -750 
L -134 -750 
Q 284 -750 456 -515 
Q 628 -281 628 325 
L 628 4666 
z
" transform="scale(0.015625)"/>
        <path id="DejaVuSans-75" d="M 544 1381 
L 544 3500 
L 1119 3500 
L 1119 1403 
Q 1119 906 1312 657 
Q 1506 409 1894 409 
Q 2359 409 2629 706 
Q 2900 1003 2900 1516 
L 2900 3500 
L 3475 3500 
L 3475 0 
L 2900 0 
L 2900 538 
Q 2691 219 2414 64 
Q 2138 -91 1772 -91 
Q 1169 -91 856 284 
Q 544 659 544 1381 
z
M 1991 3584 
L 1991 3584 
z
" transform="scale(0.015625)"/>
        <path id="DejaVuSans-6e" d="M 3513 2113 
L 3513 0 
L 2938 0 
L 2938 2094 
Q 2938 2591 2744 2837 
Q 2550 3084 2163 3084 
Q 1697 3084 1428 2787 
Q 1159 2491 1159 1978 
L 1159 0 
L 581 0 
L 581 3500 
L 1159 3500 
L 1159 2956 
Q 1366 3272 1645 3428 
Q 1925 3584 2291 3584 
Q 2894 3584 3203 3211 
Q 3513 2838 3513 2113 
z
" transform="scale(0.015625)"/>
       </defs>
       <use xlink:href="#DejaVuSans-4a"/>
       <use xlink:href="#DejaVuSans-75" transform="translate(29.492188 0)"/>
       <use xlink:href="#DejaVuSans-6e" transform="translate(92.871094 0)"/>
      </g>
     </g>
    </g>
    <g id="text_11">
     <!-- Date -->
     <g style="fill: #c9d1d9" transform="translate(434.285313 485.034062) scale(0.12 -0.12)">
      <use xlink:href="#DejaVuSans-44"/>
      <use xlink:href="#DejaVuSans-61" transform="translate(77.001953 0)"/>
      <use xlink:href="#DejaVuSans-74" transform="translate(138.28125 0)"/>
      <use xlink:href="#DejaVuSans-65" transform="translate(177.490234 0)"/>
     </g>
    </g>
   </g>
   <g id="matplotlib.axis_2">
    <g id="ytick_1">
     <g id="line2d_21">
      <path d="M 48.90125 455.237812 
L 848.35125 455.237812 
" clip-path="url(#p3c27c10c62)" style="fill: none; stroke: #30363d; stroke-opacity: 0.25; stroke-width: 0.5; stroke-linecap: square"/>
     </g>
     <g id="line2d_22">
      <defs>
       <path id="m8ddda13e0f" d="M 0 0 
L -3.5 0 
" style="stroke: #c9d1d9; stroke-width: 0.8"/>
      </defs>
      <g>
       <use xlink:href="#m8ddda13e0f" x="48.90125" y="455.237812" style="fill: #c9d1d9; stroke: #c9d1d9; stroke-width: 0.8"/>
      </g>
     </g>
     <g id="text_12">
      <!-- 0 -->
      <g style="fill: #c9d1d9" transform="translate(35.53875 459.037031) scale(0.1 -0.1)">
       <use xlink:href="#DejaVuSans-30"/>
      </g>
     </g>
    </g>
    <g id="ytick_2">
     <g id="line2d_23">
      <path d="M 48.90125 399.659146 
L 848.35125 399.659146 
" clip-path="url(#p3c27c10c62)" style="fill: none; stroke: #30363d; stroke-opacity: 0.25; stroke-width: 0.5; stroke-linecap: square"/>
     </g>
     <g id="line2d_24">
      <g>
       <use xlink:href="#m8ddda13e0f" x="48.90125" y="399.659146" style="fill: #c9d1d9; stroke: #c9d1d9; stroke-width: 0.8"/>
      </g>
     </g>
     <g id="text_13">
      <!-- 100 -->
      <g style="fill: #c9d1d9" transform="translate(22.81375 403.458365) scale(0.1 -0.1)">
       <defs>
        <path id="DejaVuSans-31" d="M 794 531 
L 1825 531 
L 1825 4091 
L 703 3866 
L 703 4441 
L 1819 4666 
L 2450 4666 
L 2450 531 
L 3481 531 
L 3481 0 
L 794 0 
L 794 531 
z
" transform="scale(0.015625)"/>
       </defs>
       <use xlink:href="#DejaVuSans-31"/>
       <use xlink:href="#DejaVuSans-30" transform="translate(63.623047 0)"/>
       <use xlink:href="#DejaVuSans-30" transform="translate(127.246094 0)"/>
      </g>
     </g>
    </g>
    <g id="ytick_3">
     <g id="line2d_25">
      <path d="M 48.90125 344.080479 
L 848.35125 344.080479 
" clip-path="url(#p3c27c10c62)" style="fill: none; stroke: #30363d; stroke-opacity: 0.25; stroke-width: 0.5; stroke-linecap: square"/>
     </g>
     <g id="line2d_26">
      <g>
       <use xlink:href="#m8ddda13e0f" x="48.90125" y="344.080479" style="fill: #c9d1d9; stroke: #c9d1d9; stroke-width: 0.8"/>
      </g>
     </g>
     <g id="text_14">
      <!-- 200 -->
      <g style="fill: #c9d1d9" transform="translate(22.81375 347.879698) scale(0.1 -0.1)">
       <use xlink:href="#DejaVuSans-32"/>
       <use xlink:href="#DejaVuSans-30" transform="translate(63.623047 0)"/>
       <use xlink:href="#DejaVuSans-30" transform="translate(127.246094 0)"/>
      </g>
     </g>
    </g>
    <g id="ytick_4">
     <g id="line2d_27">
      <path d="M 48.90125 288.501812 
L 848.35125 288.501812 
" clip-path="url(#p3c27c10c62)" style="fill: none; stroke: #30363d; stroke-opacity: 0.25; stroke-width: 0.5; stroke-linecap: square"/>
     </g>
     <g id="line2d_28">
      <g>
       <use xlink:href="#m8ddda13e0f" x="48.90125" y="288.501812" style="fill: #c9d1d9; stroke: #c9d1d9; stroke-width: 0.8"/>
      </g>
     </g>
     <g id="text_15">
      <!-- 300 -->
      <g style="fill: #c9d1d9" transform="translate(22.81375 292.301031) scale(0.1 -0.1)">
       <defs>
        <path id="DejaVuSans-33" d="M 2597 2516 
Q 3050 2419 3304 2112 
Q 3559 1806 3559 1356 
Q 3559 666 3084 287 
Q 2609 -91 1734 -91 
Q 1441 -91 1130 -33 
Q 819 25 488 141 
L 488 750 
Q 750 597 1062 519 
Q 1375 441 1716 441 
Q 2309 441 2620 675 
Q 2931 909 2931 1356 
Q 2931 1769 2642 2001 
Q 2353 2234 1838 2234 
L 1294 2234 
L 1294 2753 
L 1863 2753 
Q 2328 2753 2575 2939 
Q 2822 3125 2822 3475 
Q 2822 3834 2567 4026 
Q 2313 4219 1838 4219 
Q 1578 4219 1281 4162 
Q 984 4106 628 3988 
L 628 4550 
Q 988 4650 1302 4700 
Q 1616 4750 1894 4750 
Q 2613 4750 3031 4423 
Q 3450 4097 3450 3541 
Q 3450 3153 3228 2886 
Q 3006 2619 2597 2516 
z
" transform="scale(0.015625)"/>
       </defs>
       <use xlink:href="#DejaVuSans-33"/>
       <use xlink:href="#DejaVuSans-30" transform="translate(63.623047 0)"/>
       <use xlink:href="#DejaVuSans-30" transform="translate(127.246094 0)"/>
      </g>
     </g>
    </g>
    <g id="ytick_5">
     <g id="line2d_29">
      <path d="M 48.90125 232.923146 
L 848.35125 232.923146 
" clip-path="url(#p3c27c10c62)" style="fill: none; stroke: #30363d; stroke-opacity: 0.25; stroke-width: 0.5; stroke-linecap: square"/>
     </g>
     <g id="line2d_30">
      <g>
       <use xlink:href="#m8ddda13e0f" x="48.90125" y="232.923146" style="fill: #c9d1d9; stroke: #c9d1d9; stroke-width: 0.8"/>
      </g>
     </g>
     <g id="text_16">
      <!-- 400 -->
      <g style="fill: #c9d1d9" transform="translate(22.81375 236.722365) scale(0.1 -0.1)">
       <defs>
        <path id="DejaVuSans-34" d="M 2419 4116 
L 825 1625 
L 2419 1625 
L 2419 4116 
z
M 2253 4666 
L 3047 4666 
L 3047 1625 
L 3713 1625 
L 3713 1100 
L 3047 1100 
L 3047 0 
L 2419 0 
L 2419 1100 
L 313 1100 
L 313 1709 
L 2253 4666 
z
" transform="scale(0.015625)"/>
       </defs>
       <use xlink:href="#DejaVuSans-34"/>
       <use xlink:href="#DejaVuSans-30" transform="translate(63.623047 0)"/>
       <use xlink:href="#DejaVuSans-30" transform="translate(127.246094 0)"/>
      </g>
     </g>
    </g>
    <g id="ytick_6">
     <g id="line2d_31">
      <path d="M 48.90125 177.344479 
L 848.35125 177.344479 
" clip-path="url(#p3c27c10c62)" style="fill: none; stroke: #30363d; stroke-opacity: 0.25; stroke-width: 0.5; stroke-linecap: square"/>
     </g>
     <g id="line2d_32">
      <g>
       <use xlink:href="#m8ddda13e0f" x="48.90125" y="177.344479" style="fill: #c9d1d9; stroke: #c9d1d9; stroke-width: 0.8"/>
      </g>
     </g>
     <g id="text_17">
      <!-- 500 -->
      <g style="fill: #c9d1d9" transform="translate(22.81375 181.143698) scale(0.1 -0.1)">
       <defs>
        <path id="DejaVuSans-35" d="M 691 4666 
L 3169 4666 
L 3169 4134 
L 1269 4134 
L 1269 2991 
Q 1406 3038 1543 3061 
Q 1681 3084 1819 3084 
Q 2600 3084 3056 2656 
Q 3513 2228 3513 1497 
Q 3513 744 3044 326 
Q 2575 -91 1722 -91 
Q 1428 -91 1123 -41 
Q 819 9 494 109 
L 494 744 
Q 775 591 1075 516 
Q 1375 441 1709 441 
Q 2250 441 2565 725 
Q 2881 1009 2881 1497 
Q 2881 1984 2565 2268 
Q 2250 2553 1709 2553 
Q 1456 2553 1204 2497 
Q 953 2441 691 2322 
L 691 4666 
z
" transform="scale(0.015625)"/>
       </defs>
       <use xlink:href="#DejaVuSans-35"/>
       <use xlink:href="#DejaVuSans-30" transform="translate(63.623047 0)"/>
       <use xlink:href="#DejaVuSans-30" transform="translate(127.246094 0)"/>
      </g>
     </g>
    </g>
    <g id="ytick_7">
     <g id="line2d_33">
      <path d="M 48.90125 121.765812 
L 848.35125 121.765812 
" clip-path="url(#p3c27c10c62)" style="fill: none; stroke: #30363d; stroke-opacity: 0.25; stroke-width: 0.5; stroke-linecap: square"/>
     </g>
     <g id="line2d_34">
      <g>
       <use xlink:href="#m8ddda13e0f" x="48.90125" y="121.765812" style="fill: #c9d1d9; stroke: #c9d1d9; stroke-width: 0.8"/>
      </g>
     </g>
     <g id="text_18">
      <!-- 600 -->
      <g style="fill: #c9d1d9" transform="translate(22.81375 125.565031) scale(0.1 -0.1)">
       <use xlink:href="#DejaVuSans-36"/>
       <use xlink:href="#DejaVuSans-30" transform="translate(63.623047 0)"/>
       <use xlink:href="#DejaVuSans-30" transform="translate(127.246094 0)"/>
      </g>
     </g>
    </g>
    <g id="ytick_8">
     <g id="line2d_35">
      <path d="M 48.90125 66.187146 
L 848.35125 66.187146 
" clip-path="url(#p3c27c10c62)" style="fill: none; stroke: #30363d; stroke-opacity: 0.25; stroke-width: 0.5; stroke-linecap: square"/>
     </g>
     <g id="line2d_36">
      <g>
       <use xlink:href="#m8ddda13e0f" x="48.90125" y="66.187146" style="fill: #c9d1d9; stroke: #c9d1d9; stroke-width: 0.8"/>
      </g>
     </g>
     <g id="text_19">
      <!-- 700 -->
      <g style="fill: #c9d1d9" transform="translate(22.81375 69.986365) scale(0.1 -0.1)">
       <defs>
        <path id="DejaVuSans-37" d="M 525 4666 
L 3525 4666 
L 3525 4397 
L 1831 0 
L 1172 0 
L 2766 4134 
L 525 4134 
L 525 4666 
z
" transform="scale(0.015625)"/>
       </defs>
       <use xlink:href="#DejaVuSans-37"/>
       <use xlink:href="#DejaVuSans-30" transform="translate(63.623047 0)"/>
       <use xlink:href="#DejaVuSans-30" transform="translate(127.246094 0)"/>
      </g>
     </g>
    </g>
    <g id="text_20">
     <!-- Count -->
     <g style="fill: #c9d1d9" transform="translate(16.318125 264.635937) rotate(-90) scale(0.12 -0.12)">
      <defs>
       <path id="DejaVuSans-43" d="M 4122 4306 
L 4122 3641 
Q 3803 3938 3442 4084 
Q 3081 4231 2675 4231 
Q 1875 4231 1450 3742 
Q 1025 3253 1025 2328 
Q 1025 1406 1450 917 
Q 1875 428 2675 428 
Q 3081 428 3442 575 
Q 3803 722 4122 1019 
L 4122 359 
Q 3791 134 3420 21 
Q 3050 -91 2638 -91 
Q 1578 -91 968 557 
Q 359 1206 359 2328 
Q 359 3453 968 4101 
Q 1578 4750 2638 4750 
Q 3056 4750 3426 4639 
Q 3797 4528 4122 4306 
z
" transform="scale(0.015625)"/>
      </defs>
      <use xlink:href="#DejaVuSans-43"/>
      <use xlink:href="#DejaVuSans-6f" transform="translate(69.824219 0)"/>
      <use xlink:href="#DejaVuSans-75" transform="translate(131.005859 0)"/>
      <use xlink:href="#DejaVuSans-6e" transform="translate(194.384766 0)"/>
      <use xlink:href="#DejaVuSans-74" transform="translate(257.763672 0)"/>
     </g>
    </g>
   </g>
   <g id="line2d_37">
    <path d="M 85.239886 454.682026 
L 85.291703 454.682026 
L 85.416721 454.126239 
L 85.487167 454.126239 
L 85.660401 257.933546 
L 87.839556 257.933546 
L 87.849513 261.268266 
L 90.485877 261.268266 
L 90.656575 260.712479 
L 90.979467 260.712479 
L 91.276091 260.156692 
L 93.114101 259.600906 
L 93.150388 260.156692 
L 93.217265 259.600906 
L 98.930264 259.600906 
L 102.364012 260.712479 
L 102.874917 259.600906 
L 103.247967 259.600906 
L 104.188183 259.045119 
L 104.581553 256.821972 
L 105.347502 256.821972 
L 106.463677 260.712479 
L 106.536096 256.821972 
L 107.392592 256.266186 
L 109.621654 256.266186 
L 110.20961 255.710399 
L 111.082951 255.710399 
L 111.369587 254.598826 
L 116.760602 254.598826 
L 117.157634 253.487252 
L 117.177985 252.375679 
L 118.892136 252.375679 
L 121.419732 251.264106 
L 122.745647 251.264106 
L 122.765716 250.708319 
L 125.810729 250.708319 
L 126.566096 247.929386 
L 128.956651 247.929386 
L 128.973245 247.373599 
L 142.361551 247.373599 
L 144.864163 246.817812 
L 144.949606 247.373599 
L 147.545143 246.817812 
L 156.577392 246.817812 
L 160.955209 246.262026 
L 161.039775 245.706239 
L 161.247731 245.150452 
L 163.717405 245.150452 
L 164.768519 244.594666 
L 169.103191 244.594666 
L 169.267753 247.373599 
L 169.27583 245.150452 
L 169.486573 245.150452 
L 170.533053 242.927306 
L 175.656687 242.927306 
L 179.583462 242.371519 
L 183.947816 242.371519 
L 184.139334 241.815732 
L 195.480078 241.815732 
L 195.964088 241.259946 
L 198.717768 241.259946 
L 198.73718 240.148372 
L 203.983922 240.148372 
L 204.090342 236.257866 
L 213.586657 236.257866 
L 213.589506 235.702079 
L 213.864527 235.702079 
L 215.061417 235.146292 
L 216.27775 235.146292 
L 216.664607 234.590506 
L 216.703305 235.146292 
L 217.589169 234.590506 
L 217.593208 234.034719 
L 217.613904 234.590506 
L 218.125622 234.034719 
L 222.787038 234.034719 
L 224.236312 233.478932 
L 225.956004 233.478932 
L 228.876875 232.923146 
L 231.642014 232.923146 
L 233.77837 231.811572 
L 238.453655 231.811572 
L 241.173302 230.699999 
L 241.939565 231.255786 
L 245.735467 231.255786 
L 250.017415 229.032639 
L 256.403406 229.032639 
L 258.383936 228.476852 
L 293.679326 228.476852 
L 293.964365 227.921066 
L 306.835787 227.921066 
L 307.05085 227.365279 
L 328.952831 227.365279 
L 333.775583 226.809492 
L 333.80348 227.365279 
L 337.255857 225.697919 
L 342.322414 225.697919 
L 345.088931 225.142132 
L 345.093471 224.586346 
L 350.865833 224.586346 
L 352.937597 225.142132 
L 353.68235 224.586346 
L 363.342695 224.586346 
L 363.753817 225.142132 
L 364.506929 224.586346 
L 364.765732 222.363199 
L 369.192766 222.363199 
L 369.196586 221.807412 
L 382.743223 221.807412 
L 383.532091 221.251626 
L 386.135518 221.251626 
L 386.389498 220.695839 
L 399.08468 220.695839 
L 399.101932 220.140052 
L 402.277191 220.140052 
L 402.281919 219.584266 
L 403.052408 219.584266 
L 403.09264 219.028479 
L 404.289123 219.028479 
L 404.477104 218.472692 
L 407.037951 218.472692 
L 407.427218 217.361119 
L 408.83698 215.137972 
L 412.246026 215.137972 
L 412.497721 212.359039 
L 413.640853 212.359039 
L 414.201883 211.247466 
L 417.092854 211.247466 
L 418.041462 210.691679 
L 420.756851 210.691679 
L 421.12079 210.135892 
L 428.496029 210.135892 
L 428.677748 209.580106 
L 429.359882 209.580106 
L 430.418918 209.024319 
L 442.347868 209.024319 
L 442.45504 208.468532 
L 442.837514 208.468532 
L 443.635962 207.356959 
L 444.755393 207.356959 
L 445.024559 206.801172 
L 445.283893 206.801172 
L 445.382298 206.245386 
L 448.375964 206.245386 
L 448.885616 205.689599 
L 451.49136 205.689599 
L 451.658426 205.133812 
L 453.085752 205.133812 
L 453.177206 204.578026 
L 457.613007 204.578026 
L 457.708375 204.022239 
L 460.295396 204.022239 
L 461.159469 201.799092 
L 462.11747 201.799092 
L 462.118471 201.243306 
L 466.008333 201.243306 
L 466.721464 200.687519 
L 469.699882 200.687519 
L 470.286523 200.131732 
L 470.507191 200.131732 
L 471.080401 199.575946 
L 472.544609 199.575946 
L 472.713836 199.020159 
L 476.386067 199.020159 
L 477.332639 198.464372 
L 477.401582 197.908586 
L 477.708037 197.908586 
L 478.675305 195.685439 
L 481.675076 195.685439 
L 481.696679 195.129652 
L 484.551582 195.129652 
L 484.823628 194.573866 
L 485.14818 194.573866 
L 485.474642 194.018079 
L 485.542739 194.573866 
L 485.787202 194.018079 
L 486.87332 194.018079 
L 486.883715 193.462292 
L 487.172135 193.462292 
L 487.298437 192.906506 
L 488.171151 192.350719 
L 494.243142 192.350719 
L 495.192188 191.794932 
L 495.827484 191.794932 
L 496.342897 191.239146 
L 496.86429 191.794932 
L 499.011072 191.794932 
L 499.103653 190.683359 
L 502.185517 190.683359 
L 503.38128 189.015999 
L 516.360437 189.015999 
L 517.114771 188.460212 
L 537.14881 188.460212 
L 537.271887 187.904426 
L 566.709816 187.904426 
L 566.839499 187.348639 
L 566.848798 186.792852 
L 566.858034 187.348639 
L 571.148561 187.348639 
L 572.1173 186.792852 
L 589.020508 186.792852 
L 592.49881 186.237066 
L 592.532624 185.681279 
L 592.820575 185.681279 
L 593.722532 185.125492 
L 620.85106 185.125492 
L 621.114371 184.569706 
L 645.238964 184.569706 
L 648.335512 184.013919 
L 650.229627 184.013919 
L 650.435173 183.458132 
L 651.751664 182.902346 
L 655.443557 182.902346 
L 656.998437 182.346559 
L 658.625454 182.346559 
L 658.752163 181.790772 
L 661.42829 181.790772 
L 661.747957 181.234986 
L 661.811233 180.679199 
L 666.575844 180.679199 
L 666.594316 180.123412 
L 670.65115 180.123412 
L 670.660105 179.567626 
L 672.034643 179.011839 
L 674.474824 179.011839 
L 676.230835 178.456052 
L 677.80234 178.456052 
L 680.118536 175.121332 
L 682.822653 175.121332 
L 682.835177 172.342399 
L 696.431564 172.342399 
L 696.432973 171.786612 
L 696.668137 171.230826 
L 697.970414 171.230826 
L 698.253669 170.675039 
L 702.525222 170.675039 
L 703.512684 170.119252 
L 703.675148 170.675039 
L 711.315294 170.675039 
L 711.317016 170.119252 
L 714.40176 170.119252 
L 715.66368 167.340319 
L 723.399852 167.340319 
L 723.482477 166.228746 
L 725.2316 164.561386 
L 726.986671 164.561386 
L 727.173619 164.005599 
L 734.551456 164.005599 
L 734.687119 163.449812 
L 742.095295 163.449812 
L 742.256663 162.894026 
L 744.298402 161.226666 
L 744.456608 160.670879 
L 764.569891 160.670879 
L 766.474151 157.891946 
L 771.017938 157.891946 
L 771.313904 157.336159 
L 774.727614 157.336159 
L 775.998207 156.224586 
L 793.99129 156.224586 
L 794.219409 155.668799 
L 796.853394 155.668799 
L 797.135553 155.113012 
L 812.012614 155.113012 
L 812.012614 155.113012 
" clip-path="url(#p3c27c10c62)" style="fill: none; stroke: #3fb950; stroke-width: 2; stroke-linecap: square"/>
   </g>
   <g id="line2d_38">
    <path d="M 85.239886 455.237812 
L 85.324578 453.570452 
L 85.416721 453.570452 
L 85.560712 372.981386 
L 86.764553 372.981386 
L 86.790822 370.758239 
L 88.107595 370.758239 
L 88.446862 369.090879 
L 88.908485 370.758239 
L 88.911898 369.090879 
L 89.293871 369.090879 
L 89.441494 367.979306 
L 93.213664 367.979306 
L 93.217265 367.423519 
L 93.238492 367.979306 
L 93.424156 367.423519 
L 93.478603 367.979306 
L 93.730862 367.423519 
L 94.947539 367.423519 
L 95.016795 366.867732 
L 95.205434 366.311946 
L 96.699981 366.311946 
L 98.400762 365.756159 
L 98.460625 365.200372 
L 98.920308 364.644586 
L 98.930264 364.088799 
L 102.364012 367.979306 
L 102.874917 366.311946 
L 103.247967 363.533012 
L 105.347502 363.533012 
L 106.463677 367.979306 
L 106.536096 363.533012 
L 126.932226 363.533012 
L 127.558098 362.977226 
L 128.973245 362.977226 
L 132.838247 362.421439 
L 133.779717 361.865652 
L 147.194166 361.865652 
L 147.545143 361.309866 
L 149.348368 360.754079 
L 150.494474 360.754079 
L 151.764878 360.198292 
L 151.799099 359.086719 
L 152.672377 358.530932 
L 153.2593 357.975146 
L 161.344915 357.975146 
L 162.956715 357.419359 
L 163.443981 357.419359 
L 163.717405 356.863572 
L 164.768519 356.863572 
L 165.812777 356.307786 
L 169.103191 356.307786 
L 169.267753 358.530932 
L 169.27583 356.307786 
L 170.533053 356.307786 
L 170.659261 355.751999 
L 172.438816 355.751999 
L 174.189661 355.196212 
L 174.232148 354.640426 
L 179.583462 354.640426 
L 181.840578 354.084639 
L 181.846276 353.528852 
L 189.357241 353.528852 
L 192.490357 352.973066 
L 194.840994 352.973066 
L 195.480078 352.417279 
L 199.06815 352.417279 
L 201.114648 351.861492 
L 201.226829 351.305706 
L 203.222073 351.305706 
L 203.453637 350.749919 
L 204.090342 350.194132 
L 205.511688 350.194132 
L 206.409074 349.638346 
L 208.054406 349.638346 
L 209.128251 349.082559 
L 211.419086 349.082559 
L 212.199532 347.970986 
L 218.125622 347.970986 
L 219.813316 347.415199 
L 221.792311 347.415199 
L 222.238593 346.859412 
L 222.37507 346.303626 
L 222.787038 345.747839 
L 229.601935 345.747839 
L 230.849671 345.192052 
L 231.642014 344.636266 
L 251.02097 344.636266 
L 255.371078 344.080479 
L 255.423051 343.524692 
L 258.383936 343.524692 
L 260.914663 342.968906 
L 265.38769 342.968906 
L 265.765656 342.413119 
L 273.383416 342.413119 
L 279.346639 341.857332 
L 279.403872 341.301546 
L 280.183473 341.301546 
L 281.762993 340.745759 
L 281.851097 339.078399 
L 281.920604 338.522612 
L 285.219942 337.966826 
L 285.417503 337.411039 
L 285.496246 336.299466 
L 285.795061 335.743679 
L 296.531442 335.743679 
L 299.581465 335.187892 
L 301.523014 334.632106 
L 303.044017 334.632106 
L 306.570598 334.076319 
L 306.835787 331.853172 
L 307.05085 331.853172 
L 307.557904 330.741599 
L 314.247094 330.185812 
L 314.459997 329.630026 
L 314.522803 329.074239 
L 315.936009 329.074239 
L 317.270503 328.518452 
L 317.423888 327.962666 
L 317.528053 326.851092 
L 318.411381 326.295306 
L 318.476223 325.739519 
L 320.087898 325.183732 
L 322.206407 324.627946 
L 322.357067 324.072159 
L 322.360261 323.516372 
L 322.78638 322.960586 
L 322.861647 322.404799 
L 325.934744 321.849012 
L 326.485662 321.293226 
L 339.422864 321.293226 
L 341.568299 320.737439 
L 341.763544 320.181652 
L 350.531763 320.181652 
L 350.865833 319.070079 
L 354.51909 319.070079 
L 355.622052 318.514292 
L 355.675936 317.402719 
L 355.959159 316.846932 
L 357.834552 316.291146 
L 357.876788 315.735359 
L 358.103154 315.179572 
L 358.335124 312.956426 
L 358.59352 312.956426 
L 358.603038 312.400639 
L 360.168657 311.844852 
L 360.784165 311.289066 
L 360.933104 310.733279 
L 363.753817 310.177492 
L 365.832563 310.177492 
L 366.554398 309.621706 
L 374.36997 309.621706 
L 376.959214 309.065919 
L 376.969515 308.510132 
L 377.435177 307.954346 
L 383.532091 307.954346 
L 385.242766 307.398559 
L 385.947474 306.842772 
L 386.135518 305.731199 
L 391.067289 305.731199 
L 391.4033 305.175412 
L 394.111487 305.175412 
L 395.408035 304.619626 
L 399.101932 304.619626 
L 401.335064 304.063839 
L 405.972559 304.063839 
L 406.542544 303.508052 
L 408.83698 303.508052 
L 409.461506 302.952266 
L 409.732425 302.396479 
L 409.865865 301.840692 
L 411.754533 301.840692 
L 411.808228 300.729119 
L 412.497721 300.729119 
L 412.950421 299.061759 
L 414.593312 299.061759 
L 414.797354 298.505972 
L 414.955747 298.505972 
L 415.742111 297.950186 
L 417.047049 297.950186 
L 417.092854 297.394399 
L 418.041462 297.394399 
L 418.271867 296.838612 
L 419.163461 296.838612 
L 420.528575 295.727039 
L 421.12079 295.727039 
L 423.411218 294.615466 
L 423.414662 294.059679 
L 423.851958 293.503892 
L 424.967695 292.948106 
L 425.14118 292.392319 
L 426.253597 291.836532 
L 428.072039 291.836532 
L 428.677748 290.724959 
L 430.895507 290.724959 
L 430.95847 290.169172 
L 431.590291 290.169172 
L 431.638789 289.613386 
L 431.985507 289.057599 
L 433.191916 289.057599 
L 433.283683 288.501812 
L 433.490355 288.501812 
L 433.602317 287.946026 
L 433.625016 287.946026 
L 433.723641 287.390239 
L 435.324295 287.390239 
L 435.660243 286.834452 
L 435.942339 286.834452 
L 436.11094 286.278666 
L 436.541505 286.278666 
L 436.863865 285.722879 
L 436.931837 285.167092 
L 437.02398 285.167092 
L 438.644453 284.611306 
L 439.857092 284.611306 
L 439.948891 284.055519 
L 444.732443 284.055519 
L 444.755393 283.499732 
L 445.024559 283.499732 
L 445.657945 282.388159 
L 447.273534 282.388159 
L 447.423349 280.720799 
L 447.467056 279.609226 
L 447.749434 279.053439 
L 448.885616 279.053439 
L 449.421474 278.497652 
L 449.940863 278.497652 
L 450.108336 277.941866 
L 450.913454 277.386079 
L 451.658426 277.386079 
L 453.156104 276.830292 
L 453.25573 276.274506 
L 453.634885 276.274506 
L 453.710747 275.718719 
L 455.042111 275.718719 
L 455.079087 275.162932 
L 461.535712 275.162932 
L 461.655032 274.607146 
L 461.827546 274.607146 
L 461.912707 273.495572 
L 462.744093 273.495572 
L 462.921022 272.939786 
L 463.496861 272.383999 
L 463.641604 271.828212 
L 463.906073 271.828212 
L 464.129872 271.272426 
L 464.202822 270.716639 
L 467.447118 270.716639 
L 468.266012 270.160852 
L 468.427756 269.049279 
L 468.62707 268.493492 
L 468.959794 268.493492 
L 469.162584 267.937706 
L 473.81852 267.937706 
L 474.125883 266.270346 
L 474.762056 266.270346 
L 474.855451 265.714559 
L 477.341375 265.714559 
L 477.401582 264.602986 
L 480.387295 264.602986 
L 480.418229 264.047199 
L 481.856513 264.047199 
L 481.866188 263.491412 
L 482.566576 263.491412 
L 482.682733 262.935626 
L 484.717584 262.935626 
L 484.823628 262.379839 
L 484.958728 262.379839 
L 485.14818 261.824052 
L 485.532752 261.824052 
L 485.542739 261.268266 
L 485.787202 261.268266 
L 486.253553 260.712479 
L 490.020307 260.712479 
L 490.294075 260.156692 
L 491.411721 260.156692 
L 491.413788 259.600906 
L 499.958897 259.600906 
L 501.409235 259.045119 
L 501.451284 258.489332 
L 502.185517 257.933546 
L 503.301974 257.933546 
L 503.38128 256.821972 
L 503.583225 256.821972 
L 503.66729 256.266186 
L 506.632401 256.266186 
L 507.167852 255.710399 
L 512.296715 255.710399 
L 512.312495 255.154612 
L 513.987634 255.154612 
L 514.70352 254.598826 
L 522.587941 254.598826 
L 522.686346 253.487252 
L 525.787152 253.487252 
L 526.403913 252.931466 
L 527.064381 252.931466 
L 527.871784 252.375679 
L 533.208728 252.375679 
L 533.719789 251.819892 
L 534.162627 251.819892 
L 534.379757 251.264106 
L 536.079912 250.708319 
L 536.912175 250.708319 
L 537.183563 250.152532 
L 537.271887 250.152532 
L 539.660438 249.596746 
L 544.05823 249.596746 
L 544.402381 249.040959 
L 561.376661 249.040959 
L 561.996866 248.485172 
L 565.922201 248.485172 
L 566.064063 247.929386 
L 566.319046 247.929386 
L 566.39591 247.373599 
L 588.31724 247.373599 
L 589.020508 246.817812 
L 594.25457 246.817812 
L 595.391565 246.262026 
L 595.467772 245.706239 
L 598.19102 245.706239 
L 598.304015 245.150452 
L 607.124896 245.150452 
L 607.142961 244.594666 
L 614.589241 244.594666 
L 614.669392 244.038879 
L 615.153026 243.483092 
L 616.980297 243.483092 
L 616.984492 242.927306 
L 617.35582 242.371519 
L 620.099356 242.371519 
L 621.005759 241.815732 
L 626.855955 241.815732 
L 626.897158 240.704159 
L 663.980369 240.704159 
L 666.594316 240.148372 
L 669.882978 240.148372 
L 669.992247 239.592586 
L 684.572434 239.592586 
L 684.596917 239.036799 
L 699.822951 239.036799 
L 699.979905 238.481012 
L 700.885775 238.481012 
L 700.909382 237.925226 
L 701.114114 237.369439 
L 701.910527 236.257866 
L 702.027592 235.146292 
L 702.095252 234.034719 
L 702.299231 233.478932 
L 702.346414 232.923146 
L 702.525222 232.367359 
L 703.675148 232.367359 
L 703.818106 231.811572 
L 703.824837 231.255786 
L 704.25606 230.699999 
L 711.317016 230.699999 
L 712.078082 229.588426 
L 734.349449 229.588426 
L 734.490967 229.032639 
L 748.085068 229.032639 
L 748.407022 227.921066 
L 749.864812 227.921066 
L 750.060087 227.365279 
L 758.72126 227.365279 
L 758.937701 226.809492 
L 762.342081 226.809492 
L 763.251302 226.253706 
L 763.336807 225.697919 
L 768.444693 225.697919 
L 768.603806 224.586346 
L 769.262772 224.030559 
L 769.879157 224.030559 
L 771.017938 223.474772 
L 774.291633 223.474772 
L 774.34154 222.918986 
L 774.727614 222.363199 
L 777.398826 222.363199 
L 780.229464 221.807412 
L 794.219409 221.807412 
L 795.873038 221.251626 
L 796.485259 220.695839 
L 796.853394 219.584266 
L 798.822057 219.584266 
L 806.843268 218.472692 
L 808.855983 218.472692 
L 809.077716 217.361119 
L 809.350012 217.361119 
L 809.488149 216.805332 
L 812.012614 216.805332 
L 812.012614 216.805332 
" clip-path="url(#p3c27c10c62)" style="fill: none; stroke: #58a6ff; stroke-width: 2; stroke-linecap: square"/>
   </g>
   <g id="line2d_39">
    <path d="M 85.239886 455.237812 
L 87.839556 455.237812 
L 87.849513 454.126239 
L 89.995699 454.126239 
L 90.485877 453.570452 
L 222.787038 453.570452 
L 224.236312 453.014666 
L 260.914663 453.014666 
L 261.932558 452.458879 
L 296.531442 452.458879 
L 299.581465 451.903092 
L 307.557904 451.903092 
L 314.522803 450.235732 
L 315.936009 449.124159 
L 318.476223 449.124159 
L 320.087898 448.568372 
L 322.360261 448.012586 
L 322.861647 448.012586 
L 325.934744 447.456799 
L 326.485662 446.901012 
L 328.952831 446.345226 
L 333.775583 445.789439 
L 333.80348 446.345226 
L 341.763544 446.345226 
L 342.322414 445.789439 
L 353.68235 445.789439 
L 354.51909 445.233652 
L 358.335124 445.233652 
L 358.603038 444.677866 
L 363.342695 444.677866 
L 363.753817 444.122079 
L 381.116832 444.122079 
L 382.743223 443.566292 
L 383.426766 443.566292 
L 383.532091 443.010506 
L 388.166142 443.010506 
L 388.170557 442.454719 
L 399.08468 442.454719 
L 399.101932 441.898932 
L 402.281919 441.898932 
L 403.09264 441.343146 
L 404.287026 440.787359 
L 404.289123 440.231572 
L 404.477104 440.231572 
L 405.972559 438.564212 
L 406.979966 438.564212 
L 407.037951 436.896852 
L 407.427218 436.896852 
L 408.83698 437.452639 
L 409.850836 437.452639 
L 409.865865 435.229492 
L 413.640853 435.229492 
L 414.201883 434.673706 
L 414.797354 434.673706 
L 414.955747 434.117919 
L 428.496029 434.117919 
L 428.677748 433.562132 
L 429.359882 433.562132 
L 430.418918 433.006346 
L 435.091229 433.006346 
L 435.324295 432.450559 
L 436.931837 432.450559 
L 437.02398 431.894772 
L 442.347868 431.894772 
L 442.45504 431.338986 
L 442.837514 431.338986 
L 443.225435 430.783199 
L 443.612981 430.783199 
L 443.635962 430.227412 
L 445.283893 430.227412 
L 445.382298 429.671626 
L 453.032683 429.671626 
L 453.156104 429.115839 
L 453.177206 429.115839 
L 453.25573 428.560052 
L 453.710747 428.560052 
L 454.664615 428.004266 
L 458.393829 428.004266 
L 458.397116 427.448479 
L 459.109684 427.448479 
L 459.136797 426.892692 
L 461.159469 426.892692 
L 461.635464 426.336906 
L 464.279843 426.336906 
L 465.061635 425.781119 
L 466.582044 425.781119 
L 466.598168 424.669546 
L 466.721464 424.669546 
L 466.876633 424.113759 
L 469.32248 424.113759 
L 469.699882 423.557972 
L 470.286523 423.557972 
L 470.507191 423.002186 
L 471.939088 423.002186 
L 472.139029 422.446399 
L 472.141596 421.890612 
L 472.544609 421.890612 
L 472.713836 421.334826 
L 488.138402 421.334826 
L 488.171151 420.223252 
L 490.294075 420.223252 
L 490.905075 419.667466 
L 491.413788 419.667466 
L 493.80021 419.111679 
L 494.243142 419.111679 
L 495.192188 418.555892 
L 495.827484 418.555892 
L 496.342897 418.000106 
L 496.86429 418.555892 
L 498.542748 418.555892 
L 498.999174 418.000106 
L 499.103653 416.888532 
L 499.953167 416.332746 
L 499.958897 415.221172 
L 503.66729 415.221172 
L 504.478294 414.665386 
L 504.56048 412.998026 
L 505.371077 412.442239 
L 505.819363 411.886452 
L 509.653431 411.886452 
L 509.816114 410.219092 
L 510.011672 410.219092 
L 510.156665 409.663306 
L 511.093688 409.107519 
L 512.568636 409.107519 
L 512.872492 408.551732 
L 512.941623 407.995946 
L 513.096666 407.995946 
L 513.987634 406.884372 
L 514.942221 406.884372 
L 515.255658 406.328586 
L 516.356805 406.328586 
L 516.360437 405.217012 
L 517.114771 405.217012 
L 518.116197 404.661226 
L 520.769312 403.549652 
L 521.125267 402.993866 
L 526.403913 402.993866 
L 527.064381 401.882292 
L 537.14881 401.882292 
L 537.271887 400.770719 
L 542.180395 400.770719 
L 542.930376 400.214932 
L 545.206277 400.214932 
L 545.334019 399.659146 
L 559.335611 399.659146 
L 559.559096 399.103359 
L 560.945971 399.103359 
L 561.376661 398.547572 
L 563.964997 398.547572 
L 564.451793 397.991786 
L 564.454987 397.435999 
L 565.011728 396.880212 
L 566.709816 396.880212 
L 566.839499 396.324426 
L 566.848798 395.212852 
L 566.858034 395.768639 
L 567.999131 395.212852 
L 572.1173 395.212852 
L 572.929619 394.101279 
L 580.360087 394.101279 
L 580.934581 393.545492 
L 582.737148 393.545492 
L 582.881452 392.989706 
L 582.901303 392.433919 
L 589.020508 392.433919 
L 592.820575 391.322346 
L 593.722532 391.322346 
L 594.25457 390.766559 
L 602.125966 390.766559 
L 603.093485 390.210772 
L 604.292348 390.210772 
L 605.453451 389.654986 
L 615.153026 389.654986 
L 615.419218 389.099199 
L 615.420658 388.543412 
L 620.85106 388.543412 
L 621.114371 387.987626 
L 645.238964 387.987626 
L 648.335512 387.431839 
L 655.443557 387.431839 
L 656.998437 386.876052 
L 658.366526 386.876052 
L 658.625454 386.320266 
L 661.811233 386.320266 
L 662.349376 385.764479 
L 663.059126 385.764479 
L 663.980369 385.208692 
L 666.18858 385.208692 
L 666.594316 384.652906 
L 666.866112 384.652906 
L 667.85561 384.097119 
L 677.415295 384.097119 
L 677.442033 382.429759 
L 685.783382 382.429759 
L 689.320544 381.873972 
L 689.323425 381.318186 
L 693.471149 381.318186 
L 693.64526 380.762399 
L 693.647827 380.206612 
L 695.587968 380.206612 
L 696.432973 379.650826 
L 697.037461 379.650826 
L 697.970414 379.095039 
L 698.97159 379.095039 
L 699.144605 377.983466 
L 699.979905 377.983466 
L 700.146376 377.427679 
L 702.025964 377.427679 
L 702.095252 376.871892 
L 705.057858 376.871892 
L 707.204139 376.316106 
L 707.908128 376.316106 
L 708.599217 375.760319 
L 710.026825 375.204532 
L 710.03293 374.648746 
L 710.426612 372.981386 
L 710.786356 372.425599 
L 711.317016 371.869812 
L 712.739145 371.869812 
L 713.60159 370.202452 
L 715.66368 370.202452 
L 716.222018 368.535092 
L 718.491062 368.535092 
L 718.731329 367.979306 
L 720.37591 367.979306 
L 720.733305 366.867732 
L 721.352571 366.311946 
L 723.482477 366.311946 
L 727.173619 365.200372 
L 729.540191 364.644586 
L 729.700964 364.088799 
L 731.939419 364.088799 
L 732.082628 363.533012 
L 734.540154 363.533012 
L 734.551456 362.977226 
L 735.012141 362.977226 
L 735.113113 362.421439 
L 742.095295 362.421439 
L 742.256663 361.865652 
L 744.456608 361.309866 
L 748.074705 361.309866 
L 748.085068 360.754079 
L 761.358814 360.754079 
L 762.342081 358.530932 
L 767.789327 358.530932 
L 767.797374 357.419359 
L 774.727614 357.419359 
L 775.995514 355.751999 
L 775.998207 355.196212 
L 780.89704 355.196212 
L 782.545316 354.084639 
L 782.61908 353.528852 
L 812.012614 353.528852 
L 812.012614 353.528852 
" clip-path="url(#p3c27c10c62)" style="fill: none; stroke: #d29922; stroke-width: 2; stroke-linecap: square"/>
   </g>
   <g id="line2d_40">
    <path d="M 85.239886 454.682026 
L 85.462245 454.682026 
L 85.560712 432.450559 
L 86.075311 426.892692 
L 86.369368 425.781119 
L 86.518556 426.336906 
L 86.790822 425.781119 
L 87.251287 425.225332 
L 87.849513 423.002186 
L 88.107595 421.334826 
L 88.446862 421.334826 
L 88.908485 420.779039 
L 88.911898 420.223252 
L 89.28357 419.667466 
L 89.386045 419.111679 
L 89.441494 419.111679 
L 89.995699 418.555892 
L 90.391667 418.000106 
L 90.485877 411.886452 
L 90.551031 412.442239 
L 90.849722 405.217012 
L 90.979467 402.993866 
L 93.217265 402.993866 
L 93.424156 399.659146 
L 93.478603 402.438079 
L 93.730862 397.991786 
L 93.855786 397.435999 
L 94.786516 396.880212 
L 94.947539 395.768639 
L 95.205434 395.768639 
L 95.684747 395.212852 
L 95.940794 394.657066 
L 96.056764 393.545492 
L 96.127303 392.989706 
L 96.366506 392.433919 
L 96.372423 391.878132 
L 96.613004 392.433919 
L 96.681477 391.878132 
L 96.689899 392.433919 
L 96.699981 390.766559 
L 98.930264 390.766559 
L 102.364012 402.993866 
L 102.874917 390.210772 
L 103.247967 389.654986 
L 104.581553 389.654986 
L 104.825483 389.099199 
L 105.347502 388.543412 
L 106.463677 402.993866 
L 106.536096 387.987626 
L 107.392592 387.431839 
L 109.224214 386.876052 
L 109.354836 387.431839 
L 109.621654 385.764479 
L 110.20961 385.764479 
L 110.388261 385.208692 
L 110.725681 384.652906 
L 110.753671 383.541332 
L 111.064916 382.429759 
L 111.082951 382.985546 
L 111.268082 382.985546 
L 111.369587 381.873972 
L 111.682053 379.650826 
L 111.723131 378.539252 
L 112.124014 376.871892 
L 112.319948 377.983466 
L 113.70532 374.648746 
L 114.070104 375.760319 
L 115.57132 373.537172 
L 116.760602 377.427679 
L 117.177985 373.537172 
L 118.892136 371.869812 
L 121.419732 371.869812 
L 121.753551 371.314026 
L 122.01921 369.646666 
L 122.765716 371.314026 
L 125.810729 371.869812 
L 126.566096 369.646666 
L 126.932226 367.979306 
L 127.558098 369.646666 
L 128.973245 367.979306 
L 133.779717 367.979306 
L 138.83375 367.423519 
L 139.170794 366.867732 
L 142.361551 366.311946 
L 144.471419 366.311946 
L 144.864163 365.756159 
L 144.949606 366.311946 
L 147.194166 364.644586 
L 149.299494 364.644586 
L 149.348368 364.088799 
L 150.494474 363.533012 
L 153.2593 363.533012 
L 154.478921 359.642506 
L 155.38667 359.086719 
L 156.554724 358.530932 
L 156.577392 357.975146 
L 160.955209 357.975146 
L 161.039775 354.084639 
L 161.2018 354.084639 
L 161.344915 352.973066 
L 162.956715 352.973066 
L 163.443981 352.417279 
L 165.812777 352.417279 
L 169.103191 351.861492 
L 169.267753 363.533012 
L 169.27583 352.417279 
L 169.486573 351.861492 
L 170.659261 351.861492 
L 172.438816 351.305706 
L 174.232148 351.305706 
L 175.656687 350.749919 
L 179.583462 349.638346 
L 181.846276 349.638346 
L 183.664843 349.082559 
L 183.947816 346.303626 
L 184.139334 346.303626 
L 184.478226 345.747839 
L 186.245915 345.192052 
L 186.654532 342.968906 
L 189.097624 341.857332 
L 189.127055 342.413119 
L 189.357241 341.857332 
L 192.490357 340.745759 
L 194.840994 340.189972 
L 195.964088 340.189972 
L 196.959534 339.634186 
L 197.822198 338.522612 
L 198.73718 337.966826 
L 199.06815 337.411039 
L 201.226829 337.966826 
L 203.222073 336.855252 
L 203.453637 337.411039 
L 203.983922 337.411039 
L 204.090342 336.855252 
L 205.511688 336.299466 
L 206.409074 336.855252 
L 208.054406 335.743679 
L 209.128251 335.743679 
L 211.419086 335.187892 
L 211.798961 335.743679 
L 212.199532 334.076319 
L 213.589506 334.076319 
L 213.864527 333.520532 
L 215.061417 331.297386 
L 215.399588 330.185812 
L 216.27775 330.741599 
L 216.664607 329.630026 
L 216.703305 329.074239 
L 219.813316 329.074239 
L 221.388453 328.518452 
L 221.792311 327.962666 
L 224.236312 327.962666 
L 225.956004 327.406879 
L 228.876875 327.406879 
L 229.601935 326.851092 
L 237.633823 326.851092 
L 238.095102 326.295306 
L 238.141314 325.739519 
L 238.453655 325.183732 
L 241.939565 325.183732 
L 242.15682 324.627946 
L 243.043717 324.072159 
L 243.19732 323.516372 
L 244.666726 322.960586 
L 245.735467 322.404799 
L 250.017415 322.404799 
L 251.02097 321.293226 
L 255.423051 321.293226 
L 256.403406 320.737439 
L 260.505983 320.737439 
L 260.914663 320.181652 
L 261.932558 319.625866 
L 262.235569 319.070079 
L 262.338451 318.514292 
L 265.38769 317.958506 
L 265.765656 318.514292 
L 269.779784 317.402719 
L 272.953571 316.291146 
L 273.383416 315.735359 
L 279.403872 315.735359 
L 280.183473 315.179572 
L 285.795061 315.179572 
L 291.081065 314.623786 
L 291.745948 314.067999 
L 293.964365 313.512212 
L 296.189044 312.956426 
L 296.531442 312.400639 
L 301.523014 312.400639 
L 303.044017 311.844852 
L 314.522803 311.844852 
L 315.936009 311.289066 
L 325.417797 311.289066 
L 325.934744 310.733279 
L 326.485662 311.289066 
L 328.952831 310.733279 
L 337.255857 310.733279 
L 338.368525 310.177492 
L 355.933235 310.177492 
L 355.959159 309.621706 
L 366.807126 309.621706 
L 369.190481 309.065919 
L 369.196586 308.510132 
L 381.111541 308.510132 
L 381.116832 307.398559 
L 388.170557 307.398559 
L 391.4033 306.842772 
L 395.408035 306.842772 
L 399.101932 305.731199 
L 406.542544 305.731199 
L 406.979966 305.175412 
L 407.037951 304.619626 
L 409.850836 304.619626 
L 409.865865 304.063839 
L 410.157949 304.063839 
L 410.623549 303.508052 
L 414.797354 303.508052 
L 414.955747 302.952266 
L 420.528575 302.952266 
L 420.756851 302.396479 
L 434.366607 302.396479 
L 435.090196 300.729119 
L 435.091229 300.173332 
L 437.019378 300.173332 
L 437.02398 299.617546 
L 442.711337 299.617546 
L 442.837514 299.061759 
L 445.560135 299.061759 
L 445.657945 298.505972 
L 455.772336 298.505972 
L 455.96683 297.950186 
L 458.314523 297.950186 
L 458.397116 297.394399 
L 459.136797 296.838612 
L 477.708037 296.838612 
L 478.675305 295.727039 
L 480.12317 295.727039 
L 480.418229 295.171252 
L 481.866188 295.171252 
L 482.080781 294.615466 
L 485.501849 294.615466 
L 485.542739 294.059679 
L 504.476697 294.059679 
L 504.56048 292.948106 
L 528.227176 292.948106 
L 528.841839 292.392319 
L 569.250061 292.392319 
L 571.148561 291.836532 
L 588.225378 291.836532 
L 588.31724 291.280746 
L 595.96249 291.280746 
L 596.334099 290.724959 
L 747.648085 290.724959 
L 748.085068 290.169172 
L 767.297083 290.169172 
L 767.797374 289.613386 
L 774.727614 289.613386 
L 775.983272 289.057599 
L 775.998207 285.167092 
L 782.541652 285.167092 
L 782.61908 282.388159 
L 812.012614 282.388159 
L 812.012614 282.388159 
" clip-path="url(#p3c27c10c62)" style="fill: none; stroke: #f85149; stroke-width: 2; stroke-linecap: square"/>
   </g>
   <g id="line2d_41">
    <path d="M 85.239886 454.682026 
L 85.257576 454.126239 
L 85.397046 -1 
M 85.522401 -1 
L 85.660401 101.201706 
L 87.839556 101.201706 
L 87.849513 97.866986 
L 90.485877 97.866986 
L 90.656575 98.422772 
L 90.979467 98.422772 
L 91.276091 98.978559 
L 93.114101 99.534346 
L 93.150388 98.978559 
L 93.217265 99.534346 
L 98.930264 99.534346 
L 102.364012 98.422772 
L 102.874917 99.534346 
L 103.247967 98.978559 
L 104.188183 99.534346 
L 104.581553 96.755412 
L 105.347502 96.755412 
L 106.463677 98.422772 
L 106.536096 95.643839 
L 107.392592 96.199626 
L 109.621654 96.199626 
L 110.20961 95.088052 
L 111.082951 95.088052 
L 111.369587 91.197546 
L 116.760602 91.197546 
L 117.157634 87.862826 
L 117.177985 86.751252 
L 118.892136 86.751252 
L 121.419732 82.860746 
L 122.745647 82.860746 
L 122.765716 83.416532 
L 125.810729 83.416532 
L 126.566096 80.081812 
L 128.956651 80.081812 
L 128.973245 80.637599 
L 142.361551 80.637599 
L 144.864163 81.193386 
L 144.949606 80.637599 
L 147.545143 81.193386 
L 156.577392 81.193386 
L 160.955209 81.749172 
L 161.039775 74.523946 
L 161.247731 75.079732 
L 163.717405 75.079732 
L 164.768519 75.635519 
L 169.103191 75.635519 
L 169.267753 80.637599 
L 169.27583 71.745012 
L 169.486573 71.745012 
L 170.533053 73.968159 
L 175.656687 73.968159 
L 179.583462 70.077652 
L 183.947816 70.077652 
L 184.139334 68.410292 
L 195.480078 68.410292 
L 195.964088 68.966079 
L 198.717768 68.966079 
L 198.73718 70.077652 
L 203.983922 70.077652 
L 204.090342 73.412372 
L 212.199532 73.412372 
L 212.393211 68.410292 
L 213.586657 67.298719 
L 213.589506 67.854506 
L 213.864527 67.854506 
L 214.844381 65.075572 
L 216.27775 65.075572 
L 216.664607 65.631359 
L 216.703305 65.075572 
L 217.589169 65.631359 
L 217.593208 66.187146 
L 217.613904 65.631359 
L 218.125622 63.408212 
L 222.787038 63.408212 
L 224.236312 63.963999 
L 225.956004 63.963999 
L 228.876875 64.519786 
L 231.642014 64.519786 
L 233.77837 65.631359 
L 238.141314 65.075572 
L 238.453655 65.075572 
L 241.173302 66.187146 
L 241.939565 65.631359 
L 245.735467 65.631359 
L 250.015098 67.854506 
L 250.017415 67.298719 
L 256.403406 67.298719 
L 258.383936 67.854506 
L 293.679326 67.854506 
L 293.964365 68.410292 
L 296.173171 68.410292 
L 296.189044 66.742932 
L 306.835787 66.742932 
L 307.05085 67.298719 
L 328.952831 67.298719 
L 333.775583 67.854506 
L 333.80348 67.298719 
L 337.255857 68.966079 
L 338.368525 68.966079 
L 339.422864 68.410292 
L 342.322414 68.410292 
L 345.088931 68.966079 
L 345.093471 69.521866 
L 352.937597 67.854506 
L 353.68235 68.410292 
L 363.342695 68.410292 
L 363.753817 67.854506 
L 364.506929 68.410292 
L 364.765732 70.633439 
L 369.192766 70.633439 
L 369.196586 71.189226 
L 382.743223 71.189226 
L 383.532091 71.745012 
L 386.135518 71.745012 
L 386.389498 72.300799 
L 399.08468 72.300799 
L 399.101932 72.856586 
L 401.335064 72.856586 
L 402.277191 73.412372 
L 402.281919 73.968159 
L 403.052408 73.412372 
L 403.09264 73.968159 
L 404.289123 73.968159 
L 404.477104 74.523946 
L 406.979966 74.523946 
L 407.037951 73.412372 
L 407.427218 74.523946 
L 408.83698 72.856586 
L 412.246026 72.856586 
L 412.497721 71.189226 
L 413.640853 71.189226 
L 414.201883 72.300799 
L 417.092854 72.300799 
L 418.041462 72.856586 
L 418.271867 72.856586 
L 419.163461 70.077652 
L 420.756851 70.077652 
L 421.12079 70.633439 
L 428.496029 70.633439 
L 428.677748 71.189226 
L 429.359882 71.189226 
L 430.418918 71.745012 
L 442.347868 71.745012 
L 442.45504 72.300799 
L 442.837514 72.300799 
L 443.635962 73.412372 
L 444.755393 73.412372 
L 445.024559 72.856586 
L 445.283893 72.856586 
L 445.382298 73.412372 
L 448.375964 73.412372 
L 448.885616 73.968159 
L 451.49136 73.968159 
L 451.658426 74.523946 
L 453.085752 74.523946 
L 453.177206 75.079732 
L 457.613007 75.079732 
L 457.708375 75.635519 
L 460.295396 75.635519 
L 461.159469 77.858666 
L 462.11747 77.858666 
L 462.118471 78.414452 
L 466.008333 78.414452 
L 466.721464 78.970239 
L 469.699882 78.970239 
L 470.286523 79.526026 
L 472.544609 79.526026 
L 472.713836 80.081812 
L 476.386067 80.081812 
L 477.332639 80.637599 
L 477.401582 81.193386 
L 477.708037 81.193386 
L 478.675305 60.629279 
L 481.675076 60.629279 
L 481.696679 61.185066 
L 481.866188 61.185066 
L 482.080781 60.629279 
L 484.551582 60.629279 
L 484.823628 61.185066 
L 485.14818 61.185066 
L 485.474642 61.740852 
L 485.542739 61.185066 
L 486.87332 61.185066 
L 486.883715 61.740852 
L 487.172135 61.740852 
L 487.298437 62.296639 
L 488.171151 62.852426 
L 494.243142 62.852426 
L 495.192188 63.408212 
L 495.827484 63.408212 
L 496.342897 63.963999 
L 496.86429 63.408212 
L 499.011072 63.408212 
L 499.103653 64.519786 
L 502.185517 64.519786 
L 503.38128 66.187146 
L 516.360437 66.187146 
L 517.114771 66.742932 
L 537.14881 66.742932 
L 537.271887 67.298719 
L 566.709816 67.298719 
L 566.839499 67.854506 
L 566.848798 68.410292 
L 566.858034 67.854506 
L 571.148561 67.854506 
L 572.1173 68.410292 
L 589.020508 68.410292 
L 592.820575 68.966079 
L 593.715049 69.521866 
L 593.722532 67.854506 
L 620.85106 67.854506 
L 621.114371 68.410292 
L 645.238964 68.410292 
L 648.335512 68.966079 
L 650.229627 68.966079 
L 650.435173 69.521866 
L 651.751664 70.077652 
L 655.443557 70.077652 
L 656.998437 70.633439 
L 658.625454 70.633439 
L 658.752163 71.189226 
L 661.42829 71.189226 
L 661.747957 71.745012 
L 661.811233 72.300799 
L 666.575844 72.300799 
L 666.594316 72.856586 
L 669.992247 72.856586 
L 670.65115 72.300799 
L 670.660105 72.856586 
L 672.034643 73.412372 
L 674.474824 73.412372 
L 676.230835 73.968159 
L 677.80234 73.968159 
L 680.118536 61.740852 
L 682.822653 61.740852 
L 682.835177 64.519786 
L 696.431564 64.519786 
L 696.432973 65.075572 
L 696.668137 65.631359 
L 697.970414 65.631359 
L 698.253669 66.187146 
L 702.525222 66.187146 
L 703.512684 66.742932 
L 703.675148 66.187146 
L 711.315294 66.187146 
L 711.317016 66.742932 
L 723.399852 66.742932 
L 723.482477 67.854506 
L 725.2316 69.521866 
L 726.986671 69.521866 
L 727.173619 70.077652 
L 734.551456 70.077652 
L 734.687119 70.633439 
L 742.095295 70.633439 
L 742.256663 71.189226 
L 744.298402 72.856586 
L 744.456608 73.412372 
L 764.569891 73.412372 
L 766.474151 76.191306 
L 771.017938 76.191306 
L 771.313904 76.747092 
L 774.727614 76.747092 
L 775.998207 77.858666 
L 793.99129 77.858666 
L 794.219409 78.414452 
L 796.853394 78.414452 
L 797.135553 78.970239 
L 812.012614 78.970239 
L 812.012614 78.970239 
" clip-path="url(#p3c27c10c62)" style="fill: none; stroke: #9467bd; stroke-width: 2; stroke-linecap: square"/>
   </g>
   <g id="patch_3">
    <path d="M 48.90125 455.237812 
L 48.90125 38.397812 
" style="fill: none; stroke: #30363d; stroke-width: 0.8; stroke-linejoin: miter; stroke-linecap: square"/>
   </g>
   <g id="patch_4">
    <path d="M 848.35125 455.237812 
L 848.35125 38.397812 
" style="fill: none; stroke: #30363d; stroke-width: 0.8; stroke-linejoin: miter; stroke-linecap: square"/>
   </g>
   <g id="patch_5">
    <path d="M 48.90125 455.237812 
L 848.35125 455.237812 
" style="fill: none; stroke: #30363d; stroke-width: 0.8; stroke-linejoin: miter; stroke-linecap: square"/>
   </g>
   <g id="patch_6">
    <path d="M 48.90125 38.397812 
L 848.35125 38.397812 
" style="fill: none; stroke: #30363d; stroke-width: 0.8; stroke-linejoin: miter; stroke-linecap: square"/>
   </g>
   <g id="text_21">
    <!-- 540 -->
    <g style="fill: #3fb950" transform="translate(817.012614 157.59645) scale(0.09 -0.09)">
     <defs>
      <path id="DejaVuSans-Bold-35" d="M 678 4666 
L 3669 4666 
L 3669 3781 
L 1638 3781 
L 1638 3059 
Q 1775 3097 1914 3117 
Q 2053 3138 2203 3138 
Q 3056 3138 3531 2711 
Q 4006 2284 4006 1522 
Q 4006 766 3489 337 
Q 2972 -91 2053 -91 
Q 1656 -91 1267 -14 
Q 878 63 494 219 
L 494 1166 
Q 875 947 1217 837 
Q 1559 728 1863 728 
Q 2300 728 2551 942 
Q 2803 1156 2803 1522 
Q 2803 1891 2551 2103 
Q 2300 2316 1863 2316 
Q 1603 2316 1309 2248 
Q 1016 2181 678 2041 
L 678 4666 
z
" transform="scale(0.015625)"/>
      <path id="DejaVuSans-Bold-34" d="M 2356 3675 
L 1038 1722 
L 2356 1722 
L 2356 3675 
z
M 2156 4666 
L 3494 4666 
L 3494 1722 
L 4159 1722 
L 4159 850 
L 3494 850 
L 3494 0 
L 2356 0 
L 2356 850 
L 288 850 
L 288 1881 
L 2156 4666 
z
" transform="scale(0.015625)"/>
      <path id="DejaVuSans-Bold-30" d="M 2944 2338 
Q 2944 3213 2780 3570 
Q 2616 3928 2228 3928 
Q 1841 3928 1675 3570 
Q 1509 3213 1509 2338 
Q 1509 1453 1675 1090 
Q 1841 728 2228 728 
Q 2613 728 2778 1090 
Q 2944 1453 2944 2338 
z
M 4147 2328 
Q 4147 1169 3647 539 
Q 3147 -91 2228 -91 
Q 1306 -91 806 539 
Q 306 1169 306 2328 
Q 306 3491 806 4120 
Q 1306 4750 2228 4750 
Q 3147 4750 3647 4120 
Q 4147 3491 4147 2328 
z
" transform="scale(0.015625)"/>
     </defs>
     <use xlink:href="#DejaVuSans-Bold-35"/>
     <use xlink:href="#DejaVuSans-Bold-34" transform="translate(69.580078 0)"/>
     <use xlink:href="#DejaVuSans-Bold-30" transform="translate(139.160156 0)"/>
    </g>
   </g>
   <g id="text_22">
    <!-- 429 -->
    <g style="fill: #58a6ff" transform="translate(817.012614 219.28877) scale(0.09 -0.09)">
     <defs>
      <path id="DejaVuSans-Bold-32" d="M 1844 884 
L 3897 884 
L 3897 0 
L 506 0 
L 506 884 
L 2209 2388 
Q 2438 2594 2547 2791 
Q 2656 2988 2656 3200 
Q 2656 3528 2436 3728 
Q 2216 3928 1850 3928 
Q 1569 3928 1234 3808 
Q 900 3688 519 3450 
L 519 4475 
Q 925 4609 1322 4679 
Q 1719 4750 2100 4750 
Q 2938 4750 3402 4381 
Q 3866 4013 3866 3353 
Q 3866 2972 3669 2642 
Q 3472 2313 2841 1759 
L 1844 884 
z
" transform="scale(0.015625)"/>
      <path id="DejaVuSans-Bold-39" d="M 641 103 
L 641 966 
Q 928 831 1190 764 
Q 1453 697 1709 697 
Q 2247 697 2547 995 
Q 2847 1294 2900 1881 
Q 2688 1725 2447 1647 
Q 2206 1569 1925 1569 
Q 1209 1569 770 1986 
Q 331 2403 331 3084 
Q 331 3838 820 4291 
Q 1309 4744 2131 4744 
Q 3044 4744 3544 4128 
Q 4044 3513 4044 2388 
Q 4044 1231 3459 570 
Q 2875 -91 1856 -91 
Q 1528 -91 1228 -42 
Q 928 6 641 103 
z
M 2125 2350 
Q 2441 2350 2600 2554 
Q 2759 2759 2759 3169 
Q 2759 3575 2600 3781 
Q 2441 3988 2125 3988 
Q 1809 3988 1650 3781 
Q 1491 3575 1491 3169 
Q 1491 2759 1650 2554 
Q 1809 2350 2125 2350 
z
" transform="scale(0.015625)"/>
     </defs>
     <use xlink:href="#DejaVuSans-Bold-34"/>
     <use xlink:href="#DejaVuSans-Bold-32" transform="translate(69.580078 0)"/>
     <use xlink:href="#DejaVuSans-Bold-39" transform="translate(139.160156 0)"/>
    </g>
   </g>
   <g id="text_23">
    <!-- 183 -->
    <g style="fill: #d29922" transform="translate(817.012614 356.01229) scale(0.09 -0.09)">
     <defs>
      <path id="DejaVuSans-Bold-31" d="M 750 831 
L 1813 831 
L 1813 3847 
L 722 3622 
L 722 4441 
L 1806 4666 
L 2950 4666 
L 2950 831 
L 4013 831 
L 4013 0 
L 750 0 
L 750 831 
z
" transform="scale(0.015625)"/>
      <path id="DejaVuSans-Bold-38" d="M 2228 2088 
Q 1891 2088 1709 1903 
Q 1528 1719 1528 1375 
Q 1528 1031 1709 848 
Q 1891 666 2228 666 
Q 2563 666 2741 848 
Q 2919 1031 2919 1375 
Q 2919 1722 2741 1905 
Q 2563 2088 2228 2088 
z
M 1350 2484 
Q 925 2613 709 2878 
Q 494 3144 494 3541 
Q 494 4131 934 4440 
Q 1375 4750 2228 4750 
Q 3075 4750 3515 4442 
Q 3956 4134 3956 3541 
Q 3956 3144 3739 2878 
Q 3522 2613 3097 2484 
Q 3572 2353 3814 2058 
Q 4056 1763 4056 1313 
Q 4056 619 3595 264 
Q 3134 -91 2228 -91 
Q 1319 -91 855 264 
Q 391 619 391 1313 
Q 391 1763 633 2058 
Q 875 2353 1350 2484 
z
M 1631 3419 
Q 1631 3141 1786 2991 
Q 1941 2841 2228 2841 
Q 2509 2841 2662 2991 
Q 2816 3141 2816 3419 
Q 2816 3697 2662 3845 
Q 2509 3994 2228 3994 
Q 1941 3994 1786 3844 
Q 1631 3694 1631 3419 
z
" transform="scale(0.015625)"/>
      <path id="DejaVuSans-Bold-33" d="M 2981 2516 
Q 3453 2394 3698 2092 
Q 3944 1791 3944 1325 
Q 3944 631 3412 270 
Q 2881 -91 1863 -91 
Q 1503 -91 1142 -33 
Q 781 25 428 141 
L 428 1069 
Q 766 900 1098 814 
Q 1431 728 1753 728 
Q 2231 728 2486 893 
Q 2741 1059 2741 1369 
Q 2741 1688 2480 1852 
Q 2219 2016 1709 2016 
L 1228 2016 
L 1228 2791 
L 1734 2791 
Q 2188 2791 2409 2933 
Q 2631 3075 2631 3366 
Q 2631 3634 2415 3781 
Q 2200 3928 1806 3928 
Q 1516 3928 1219 3862 
Q 922 3797 628 3669 
L 628 4550 
Q 984 4650 1334 4700 
Q 1684 4750 2022 4750 
Q 2931 4750 3382 4451 
Q 3834 4153 3834 3553 
Q 3834 3144 3618 2883 
Q 3403 2622 2981 2516 
z
" transform="scale(0.015625)"/>
     </defs>
     <use xlink:href="#DejaVuSans-Bold-31"/>
     <use xlink:href="#DejaVuSans-Bold-38" transform="translate(69.580078 0)"/>
     <use xlink:href="#DejaVuSans-Bold-33" transform="translate(139.160156 0)"/>
    </g>
   </g>
   <g id="text_24">
    <!-- 311 -->
    <g style="fill: #f85149" transform="translate(817.012614 284.871597) scale(0.09 -0.09)">
     <use xlink:href="#DejaVuSans-Bold-33"/>
     <use xlink:href="#DejaVuSans-Bold-31" transform="translate(69.580078 0)"/>
     <use xlink:href="#DejaVuSans-Bold-31" transform="translate(139.160156 0)"/>
    </g>
   </g>
   <g id="text_25">
    <!-- 677 -->
    <g style="fill: #9467bd" transform="translate(817.012614 81.453677) scale(0.09 -0.09)">
     <defs>
      <path id="DejaVuSans-Bold-36" d="M 2316 2303 
Q 2000 2303 1842 2098 
Q 1684 1894 1684 1484 
Q 1684 1075 1842 870 
Q 2000 666 2316 666 
Q 2634 666 2792 870 
Q 2950 1075 2950 1484 
Q 2950 1894 2792 2098 
Q 2634 2303 2316 2303 
z
M 3803 4544 
L 3803 3681 
Q 3506 3822 3243 3889 
Q 2981 3956 2731 3956 
Q 2194 3956 1894 3657 
Q 1594 3359 1544 2772 
Q 1750 2925 1990 3001 
Q 2231 3078 2516 3078 
Q 3231 3078 3670 2659 
Q 4109 2241 4109 1563 
Q 4109 813 3618 361 
Q 3128 -91 2303 -91 
Q 1394 -91 895 523 
Q 397 1138 397 2266 
Q 397 3422 980 4083 
Q 1563 4744 2578 4744 
Q 2900 4744 3203 4694 
Q 3506 4644 3803 4544 
z
" transform="scale(0.015625)"/>
      <path id="DejaVuSans-Bold-37" d="M 428 4666 
L 3944 4666 
L 3944 3988 
L 2125 0 
L 953 0 
L 2675 3781 
L 428 3781 
L 428 4666 
z
" transform="scale(0.015625)"/>
     </defs>
     <use xlink:href="#DejaVuSans-Bold-36"/>
     <use xlink:href="#DejaVuSans-Bold-37" transform="translate(69.580078 0)"/>
     <use xlink:href="#DejaVuSans-Bold-37" transform="translate(139.160156 0)"/>
    </g>
   </g>
   <g id="text_26">
    <!-- Erdős Problems Progress -->
    <g style="fill: #c9d1d9" transform="translate(349.588281 18.397812) scale(0.14 -0.14)">
     <defs>
      <path id="DejaVuSans-Bold-45" d="M 588 4666 
L 3834 4666 
L 3834 3756 
L 1791 3756 
L 1791 2888 
L 3713 2888 
L 3713 1978 
L 1791 1978 
L 1791 909 
L 3903 909 
L 3903 0 
L 588 0 
L 588 4666 
z
" transform="scale(0.015625)"/>
      <path id="DejaVuSans-Bold-72" d="M 3138 2547 
Q 2991 2616 2845 2648 
Q 2700 2681 2553 2681 
Q 2122 2681 1889 2404 
Q 1656 2128 1656 1613 
L 1656 0 
L 538 0 
L 538 3500 
L 1656 3500 
L 1656 2925 
Q 1872 3269 2151 3426 
Q 2431 3584 2822 3584 
Q 2878 3584 2943 3579 
Q 3009 3575 3134 3559 
L 3138 2547 
z
" transform="scale(0.015625)"/>
      <path id="DejaVuSans-Bold-64" d="M 2919 2988 
L 2919 4863 
L 4044 4863 
L 4044 0 
L 2919 0 
L 2919 506 
Q 2688 197 2409 53 
Q 2131 -91 1766 -91 
Q 1119 -91 703 423 
Q 288 938 288 1747 
Q 288 2556 703 3070 
Q 1119 3584 1766 3584 
Q 2128 3584 2408 3439 
Q 2688 3294 2919 2988 
z
M 2181 722 
Q 2541 722 2730 984 
Q 2919 1247 2919 1747 
Q 2919 2247 2730 2509 
Q 2541 2772 2181 2772 
Q 1825 2772 1636 2509 
Q 1447 2247 1447 1747 
Q 1447 1247 1636 984 
Q 1825 722 2181 722 
z
" transform="scale(0.015625)"/>
      <path id="DejaVuSans-Bold-151" d="M 1881 5119 
L 2560 5119 
L 1785 3944 
L 1275 3944 
L 1881 5119 
z
M 3016 5119 
L 3738 5119 
L 2888 3944 
L 2344 3944 
L 3016 5119 
z
M 2203 2784 
Q 1831 2784 1636 2517 
Q 1441 2250 1441 1747 
Q 1441 1244 1636 976 
Q 1831 709 2203 709 
Q 2569 709 2762 976 
Q 2956 1244 2956 1747 
Q 2956 2250 2762 2517 
Q 2569 2784 2203 2784 
z
M 2203 3584 
Q 3106 3584 3614 3096 
Q 4122 2609 4122 1747 
Q 4122 884 3614 396 
Q 3106 -91 2203 -91 
Q 1297 -91 786 396 
Q 275 884 275 1747 
Q 275 2609 786 3096 
Q 1297 3584 2203 3584 
z
" transform="scale(0.015625)"/>
      <path id="DejaVuSans-Bold-73" d="M 3272 3391 
L 3272 2541 
Q 2913 2691 2578 2766 
Q 2244 2841 1947 2841 
Q 1628 2841 1473 2761 
Q 1319 2681 1319 2516 
Q 1319 2381 1436 2309 
Q 1553 2238 1856 2203 
L 2053 2175 
Q 2913 2066 3209 1816 
Q 3506 1566 3506 1031 
Q 3506 472 3093 190 
Q 2681 -91 1863 -91 
Q 1516 -91 1145 -36 
Q 775 19 384 128 
L 384 978 
Q 719 816 1070 734 
Q 1422 653 1784 653 
Q 2113 653 2278 743 
Q 2444 834 2444 1013 
Q 2444 1163 2330 1236 
Q 2216 1309 1875 1350 
L 1678 1375 
Q 931 1469 631 1722 
Q 331 1975 331 2491 
Q 331 3047 712 3315 
Q 1094 3584 1881 3584 
Q 2191 3584 2531 3537 
Q 2872 3491 3272 3391 
z
" transform="scale(0.015625)"/>
      <path id="DejaVuSans-Bold-20" transform="scale(0.015625)"/>
      <path id="DejaVuSans-Bold-50" d="M 588 4666 
L 2584 4666 
Q 3475 4666 3951 4270 
Q 4428 3875 4428 3144 
Q 4428 2409 3951 2014 
Q 3475 1619 2584 1619 
L 1791 1619 
L 1791 0 
L 588 0 
L 588 4666 
z
M 1791 3794 
L 1791 2491 
L 2456 2491 
Q 2806 2491 2997 2661 
Q 3188 2831 3188 3144 
Q 3188 3456 2997 3625 
Q 2806 3794 2456 3794 
L 1791 3794 
z
" transform="scale(0.015625)"/>
      <path id="DejaVuSans-Bold-6f" d="M 2203 2784 
Q 1831 2784 1636 2517 
Q 1441 2250 1441 1747 
Q 1441 1244 1636 976 
Q 1831 709 2203 709 
Q 2569 709 2762 976 
Q 2956 1244 2956 1747 
Q 2956 2250 2762 2517 
Q 2569 2784 2203 2784 
z
M 2203 3584 
Q 3106 3584 3614 3096 
Q 4122 2609 4122 1747 
Q 4122 884 3614 396 
Q 3106 -91 2203 -91 
Q 1297 -91 786 396 
Q 275 884 275 1747 
Q 275 2609 786 3096 
Q 1297 3584 2203 3584 
z
" transform="scale(0.015625)"/>
      <path id="DejaVuSans-Bold-62" d="M 2400 722 
Q 2759 722 2948 984 
Q 3138 1247 3138 1747 
Q 3138 2247 2948 2509 
Q 2759 2772 2400 2772 
Q 2041 2772 1848 2508 
Q 1656 2244 1656 1747 
Q 1656 1250 1848 986 
Q 2041 722 2400 722 
z
M 1656 2988 
Q 1888 3294 2169 3439 
Q 2450 3584 2816 3584 
Q 3463 3584 3878 3070 
Q 4294 2556 4294 1747 
Q 4294 938 3878 423 
Q 3463 -91 2816 -91 
Q 2450 -91 2169 54 
Q 1888 200 1656 506 
L 1656 0 
L 538 0 
L 538 4863 
L 1656 4863 
L 1656 2988 
z
" transform="scale(0.015625)"/>
      <path id="DejaVuSans-Bold-6c" d="M 538 4863 
L 1656 4863 
L 1656 0 
L 538 0 
L 538 4863 
z
" transform="scale(0.015625)"/>
      <path id="DejaVuSans-Bold-65" d="M 4031 1759 
L 4031 1441 
L 1416 1441 
Q 1456 1047 1700 850 
Q 1944 653 2381 653 
Q 2734 653 3104 758 
Q 3475 863 3866 1075 
L 3866 213 
Q 3469 63 3072 -14 
Q 2675 -91 2278 -91 
Q 1328 -91 801 392 
Q 275 875 275 1747 
Q 275 2603 792 3093 
Q 1309 3584 2216 3584 
Q 3041 3584 3536 3087 
Q 4031 2591 4031 1759 
z
M 2881 2131 
Q 2881 2450 2695 2645 
Q 2509 2841 2209 2841 
Q 1884 2841 1681 2658 
Q 1478 2475 1428 2131 
L 2881 2131 
z
" transform="scale(0.015625)"/>
      <path id="DejaVuSans-Bold-6d" d="M 3781 2919 
Q 3994 3244 4286 3414 
Q 4578 3584 4928 3584 
Q 5531 3584 5847 3212 
Q 6163 2841 6163 2131 
L 6163 0 
L 5038 0 
L 5038 1825 
Q 5041 1866 5042 1909 
Q 5044 1953 5044 2034 
Q 5044 2406 4934 2573 
Q 4825 2741 4581 2741 
Q 4263 2741 4089 2478 
Q 3916 2216 3909 1719 
L 3909 0 
L 2784 0 
L 2784 1825 
Q 2784 2406 2684 2573 
Q 2584 2741 2328 2741 
Q 2006 2741 1831 2477 
Q 1656 2213 1656 1722 
L 1656 0 
L 531 0 
L 531 3500 
L 1656 3500 
L 1656 2988 
Q 1863 3284 2130 3434 
Q 2397 3584 2719 3584 
Q 3081 3584 3359 3409 
Q 3638 3234 3781 2919 
z
" transform="scale(0.015625)"/>
      <path id="DejaVuSans-Bold-67" d="M 2919 594 
Q 2688 288 2409 144 
Q 2131 0 1766 0 
Q 1125 0 706 504 
Q 288 1009 288 1791 
Q 288 2575 706 3076 
Q 1125 3578 1766 3578 
Q 2131 3578 2409 3434 
Q 2688 3291 2919 2981 
L 2919 3500 
L 4044 3500 
L 4044 353 
Q 4044 -491 3511 -936 
Q 2978 -1381 1966 -1381 
Q 1638 -1381 1331 -1331 
Q 1025 -1281 716 -1178 
L 716 -306 
Q 1009 -475 1290 -558 
Q 1572 -641 1856 -641 
Q 2406 -641 2662 -400 
Q 2919 -159 2919 353 
L 2919 594 
z
M 2181 2772 
Q 1834 2772 1640 2515 
Q 1447 2259 1447 1791 
Q 1447 1309 1634 1061 
Q 1822 813 2181 813 
Q 2531 813 2725 1069 
Q 2919 1325 2919 1791 
Q 2919 2259 2725 2515 
Q 2531 2772 2181 2772 
z
" transform="scale(0.015625)"/>
     </defs>
     <use xlink:href="#DejaVuSans-Bold-45"/>
     <use xlink:href="#DejaVuSans-Bold-72" transform="translate(68.310547 0)"/>
     <use xlink:href="#DejaVuSans-Bold-64" transform="translate(117.626953 0)"/>
     <use xlink:href="#DejaVuSans-Bold-151" transform="translate(189.208984 0)"/>
     <use xlink:href="#DejaVuSans-Bold-73" transform="translate(257.910156 0)"/>
     <use xlink:href="#DejaVuSans-Bold-20" transform="translate(317.431641 0)"/>
     <use xlink:href="#DejaVuSans-Bold-50" transform="translate(352.246094 0)"/>
     <use xlink:href="#DejaVuSans-Bold-72" transform="translate(425.537109 0)"/>
     <use xlink:href="#DejaVuSans-Bold-6f" transform="translate(474.853516 0)"/>
     <use xlink:href="#DejaVuSans-Bold-62" transform="translate(543.554688 0)"/>
     <use xlink:href="#DejaVuSans-Bold-6c" transform="translate(615.136719 0)"/>
     <use xlink:href="#DejaVuSans-Bold-65" transform="translate(649.414062 0)"/>
     <use xlink:href="#DejaVuSans-Bold-6d" transform="translate(717.236328 0)"/>
     <use xlink:href="#DejaVuSans-Bold-73" transform="translate(821.435547 0)"/>
     <use xlink:href="#DejaVuSans-Bold-20" transform="translate(880.957031 0)"/>
     <use xlink:href="#DejaVuSans-Bold-50" transform="translate(915.771484 0)"/>
     <use xlink:href="#DejaVuSans-Bold-72" transform="translate(989.0625 0)"/>
     <use xlink:href="#DejaVuSans-Bold-6f" transform="translate(1038.378906 0)"/>
     <use xlink:href="#DejaVuSans-Bold-67" transform="translate(1107.080078 0)"/>
     <use xlink:href="#DejaVuSans-Bold-72" transform="translate(1178.662109 0)"/>
     <use xlink:href="#DejaVuSans-Bold-65" transform="translate(1227.978516 0)"/>
     <use xlink:href="#DejaVuSans-Bold-73" transform="translate(1295.800781 0)"/>
     <use xlink:href="#DejaVuSans-Bold-73" transform="translate(1355.322266 0)"/>
    </g>
   </g>
   <g id="legend_1">
    <g id="patch_7">
     <path d="M 55.90125 119.788437 
L 213.771563 119.788437 
Q 215.771563 119.788437 215.771563 117.788437 
L 215.771563 45.397812 
Q 215.771563 43.397812 213.771563 43.397812 
L 55.90125 43.397812 
Q 53.90125 43.397812 53.90125 45.397812 
L 53.90125 117.788437 
Q 53.90125 119.788437 55.90125 119.788437 
z
" style="fill: #161b22; opacity: 0.8; stroke: #30363d; stroke-linejoin: miter"/>
    </g>
    <g id="line2d_42">
     <path d="M 57.90125 51.49625 
L 67.90125 51.49625 
L 77.90125 51.49625 
" style="fill: none; stroke: #3fb950; stroke-width: 2; stroke-linecap: square"/>
    </g>
    <g id="text_27">
     <!-- Solved -->
     <g style="fill: #c9d1d9" transform="translate(85.90125 54.99625) scale(0.1 -0.1)">
      <defs>
       <path id="DejaVuSans-6c" d="M 603 4863 
L 1178 4863 
L 1178 0 
L 603 0 
L 603 4863 
z
" transform="scale(0.015625)"/>
       <path id="DejaVuSans-64" d="M 2906 2969 
L 2906 4863 
L 3481 4863 
L 3481 0 
L 2906 0 
L 2906 525 
Q 2725 213 2448 61 
Q 2172 -91 1784 -91 
Q 1150 -91 751 415 
Q 353 922 353 1747 
Q 353 2572 751 3078 
Q 1150 3584 1784 3584 
Q 2172 3584 2448 3432 
Q 2725 3281 2906 2969 
z
M 947 1747 
Q 947 1113 1208 752 
Q 1469 391 1925 391 
Q 2381 391 2643 752 
Q 2906 1113 2906 1747 
Q 2906 2381 2643 2742 
Q 2381 3103 1925 3103 
Q 1469 3103 1208 2742 
Q 947 2381 947 1747 
z
" transform="scale(0.015625)"/>
      </defs>
      <use xlink:href="#DejaVuSans-53"/>
      <use xlink:href="#DejaVuSans-6f" transform="translate(63.476562 0)"/>
      <use xlink:href="#DejaVuSans-6c" transform="translate(124.658203 0)"/>
      <use xlink:href="#DejaVuSans-76" transform="translate(152.441406 0)"/>
      <use xlink:href="#DejaVuSans-65" transform="translate(211.621094 0)"/>
      <use xlink:href="#DejaVuSans-64" transform="translate(273.144531 0)"/>
     </g>
    </g>
    <g id="line2d_43">
     <path d="M 57.90125 66.174375 
L 67.90125 66.174375 
L 77.90125 66.174375 
" style="fill: none; stroke: #58a6ff; stroke-width: 2; stroke-linecap: square"/>
    </g>
    <g id="text_28">
     <!-- Lean Formalized Problem -->
     <g style="fill: #c9d1d9" transform="translate(85.90125 69.674375) scale(0.1 -0.1)">
      <defs>
       <path id="DejaVuSans-4c" d="M 628 4666 
L 1259 4666 
L 1259 531 
L 3531 531 
L 3531 0 
L 628 0 
L 628 4666 
z
" transform="scale(0.015625)"/>
       <path id="DejaVuSans-20" transform="scale(0.015625)"/>
       <path id="DejaVuSans-6d" d="M 3328 2828 
Q 3544 3216 3844 3400 
Q 4144 3584 4550 3584 
Q 5097 3584 5394 3201 
Q 5691 2819 5691 2113 
L 5691 0 
L 5113 0 
L 5113 2094 
Q 5113 2597 4934 2840 
Q 4756 3084 4391 3084 
Q 3944 3084 3684 2787 
Q 3425 2491 3425 1978 
L 3425 0 
L 2847 0 
L 2847 2094 
Q 2847 2600 2669 2842 
Q 2491 3084 2119 3084 
Q 1678 3084 1418 2786 
Q 1159 2488 1159 1978 
L 1159 0 
L 581 0 
L 581 3500 
L 1159 3500 
L 1159 2956 
Q 1356 3278 1631 3431 
Q 1906 3584 2284 3584 
Q 2666 3584 2933 3390 
Q 3200 3197 3328 2828 
z
" transform="scale(0.015625)"/>
       <path id="DejaVuSans-69" d="M 603 3500 
L 1178 3500 
L 1178 0 
L 603 0 
L 603 3500 
z
M 603 4863 
L 1178 4863 
L 1178 4134 
L 603 4134 
L 603 4863 
z
" transform="scale(0.015625)"/>
       <path id="DejaVuSans-7a" d="M 353 3500 
L 3084 3500 
L 3084 2975 
L 922 459 
L 3084 459 
L 3084 0 
L 275 0 
L 275 525 
L 2438 3041 
L 353 3041 
L 353 3500 
z
" transform="scale(0.015625)"/>
       <path id="DejaVuSans-50" d="M 1259 4147 
L 1259 2394 
L 2053 2394 
Q 2494 2394 2734 2622 
Q 2975 2850 2975 3272 
Q 2975 3691 2734 3919 
Q 2494 4147 2053 4147 
L 1259 4147 
z
M 628 4666 
L 2053 4666 
Q 2838 4666 3239 4311 
Q 3641 3956 3641 3272 
Q 3641 2581 3239 2228 
Q 2838 1875 2053 1875 
L 1259 1875 
L 1259 0 
L 628 0 
L 628 4666 
z
" transform="scale(0.015625)"/>
      </defs>
      <use xlink:href="#DejaVuSans-4c"/>
      <use xlink:href="#DejaVuSans-65" transform="translate(53.962891 0)"/>
      <use xlink:href="#DejaVuSans-61" transform="translate(115.486328 0)"/>
      <use xlink:href="#DejaVuSans-6e" transform="translate(176.765625 0)"/>
      <use xlink:href="#DejaVuSans-20" transform="translate(240.144531 0)"/>
      <use xlink:href="#DejaVuSans-46" transform="translate(271.931641 0)"/>
      <use xlink:href="#DejaVuSans-6f" transform="translate(325.826172 0)"/>
      <use xlink:href="#DejaVuSans-72" transform="translate(387.007812 0)"/>
      <use xlink:href="#DejaVuSans-6d" transform="translate(426.371094 0)"/>
      <use xlink:href="#DejaVuSans-61" transform="translate(523.783203 0)"/>
      <use xlink:href="#DejaVuSans-6c" transform="translate(585.0625 0)"/>
      <use xlink:href="#DejaVuSans-69" transform="translate(612.845703 0)"/>
      <use xlink:href="#DejaVuSans-7a" transform="translate(640.628906 0)"/>
      <use xlink:href="#DejaVuSans-65" transform="translate(693.119141 0)"/>
      <use xlink:href="#DejaVuSans-64" transform="translate(754.642578 0)"/>
      <use xlink:href="#DejaVuSans-20" transform="translate(818.119141 0)"/>
      <use xlink:href="#DejaVuSans-50" transform="translate(849.90625 0)"/>
      <use xlink:href="#DejaVuSans-72" transform="translate(908.458984 0)"/>
      <use xlink:href="#DejaVuSans-6f" transform="translate(947.322266 0)"/>
      <use xlink:href="#DejaVuSans-62" transform="translate(1008.503906 0)"/>
      <use xlink:href="#DejaVuSans-6c" transform="translate(1071.980469 0)"/>
      <use xlink:href="#DejaVuSans-65" transform="translate(1099.763672 0)"/>
      <use xlink:href="#DejaVuSans-6d" transform="translate(1161.287109 0)"/>
     </g>
    </g>
    <g id="line2d_44">
     <path d="M 57.90125 80.8525 
L 67.90125 80.8525 
L 77.90125 80.8525 
" style="fill: none; stroke: #d29922; stroke-width: 2; stroke-linecap: square"/>
    </g>
    <g id="text_29">
     <!-- Lean Formalized Solution -->
     <g style="fill: #c9d1d9" transform="translate(85.90125 84.3525) scale(0.1 -0.1)">
      <use xlink:href="#DejaVuSans-4c"/>
      <use xlink:href="#DejaVuSans-65" transform="translate(53.962891 0)"/>
      <use xlink:href="#DejaVuSans-61" transform="translate(115.486328 0)"/>
      <use xlink:href="#DejaVuSans-6e" transform="translate(176.765625 0)"/>
      <use xlink:href="#DejaVuSans-20" transform="translate(240.144531 0)"/>
      <use xlink:href="#DejaVuSans-46" transform="translate(271.931641 0)"/>
      <use xlink:href="#DejaVuSans-6f" transform="translate(325.826172 0)"/>
      <use xlink:href="#DejaVuSans-72" transform="translate(387.007812 0)"/>
      <use xlink:href="#DejaVuSans-6d" transform="translate(426.371094 0)"/>
      <use xlink:href="#DejaVuSans-61" transform="translate(523.783203 0)"/>
      <use xlink:href="#DejaVuSans-6c" transform="translate(585.0625 0)"/>
      <use xlink:href="#DejaVuSans-69" transform="translate(612.845703 0)"/>
      <use xlink:href="#DejaVuSans-7a" transform="translate(640.628906 0)"/>
      <use xlink:href="#DejaVuSans-65" transform="translate(693.119141 0)"/>
      <use xlink:href="#DejaVuSans-64" transform="translate(754.642578 0)"/>
      <use xlink:href="#DejaVuSans-20" transform="translate(818.119141 0)"/>
      <use xlink:href="#DejaVuSans-53" transform="translate(849.90625 0)"/>
      <use xlink:href="#DejaVuSans-6f" transform="translate(913.382812 0)"/>
      <use xlink:href="#DejaVuSans-6c" transform="translate(974.564453 0)"/>
      <use xlink:href="#DejaVuSans-75" transform="translate(1002.347656 0)"/>
      <use xlink:href="#DejaVuSans-74" transform="translate(1065.726562 0)"/>
      <use xlink:href="#DejaVuSans-69" transform="translate(1104.935547 0)"/>
      <use xlink:href="#DejaVuSans-6f" transform="translate(1132.71875 0)"/>
      <use xlink:href="#DejaVuSans-6e" transform="translate(1193.900391 0)"/>
     </g>
    </g>
    <g id="line2d_45">
     <path d="M 57.90125 95.530625 
L 67.90125 95.530625 
L 77.90125 95.530625 
" style="fill: none; stroke: #f85149; stroke-width: 2; stroke-linecap: square"/>
    </g>
    <g id="text_30">
     <!-- OEIS Linked -->
     <g style="fill: #c9d1d9" transform="translate(85.90125 99.030625) scale(0.1 -0.1)">
      <defs>
       <path id="DejaVuSans-45" d="M 628 4666 
L 3578 4666 
L 3578 4134 
L 1259 4134 
L 1259 2753 
L 3481 2753 
L 3481 2222 
L 1259 2222 
L 1259 531 
L 3634 531 
L 3634 0 
L 628 0 
L 628 4666 
z
" transform="scale(0.015625)"/>
       <path id="DejaVuSans-49" d="M 628 4666 
L 1259 4666 
L 1259 0 
L 628 0 
L 628 4666 
z
" transform="scale(0.015625)"/>
       <path id="DejaVuSans-6b" d="M 581 4863 
L 1159 4863 
L 1159 1991 
L 2875 3500 
L 3609 3500 
L 1753 1863 
L 3688 0 
L 2938 0 
L 1159 1709 
L 1159 0 
L 581 0 
L 581 4863 
z
" transform="scale(0.015625)"/>
      </defs>
      <use xlink:href="#DejaVuSans-4f"/>
      <use xlink:href="#DejaVuSans-45" transform="translate(78.710938 0)"/>
      <use xlink:href="#DejaVuSans-49" transform="translate(141.894531 0)"/>
      <use xlink:href="#DejaVuSans-53" transform="translate(171.386719 0)"/>
      <use xlink:href="#DejaVuSans-20" transform="translate(234.863281 0)"/>
      <use xlink:href="#DejaVuSans-4c" transform="translate(266.650391 0)"/>
      <use xlink:href="#DejaVuSans-69" transform="translate(322.363281 0)"/>
      <use xlink:href="#DejaVuSans-6e" transform="translate(350.146484 0)"/>
      <use xlink:href="#DejaVuSans-6b" transform="translate(413.525391 0)"/>
      <use xlink:href="#DejaVuSans-65" transform="translate(467.810547 0)"/>
      <use xlink:href="#DejaVuSans-64" transform="translate(529.333984 0)"/>
     </g>
    </g>
    <g id="line2d_46">
     <path d="M 57.90125 110.20875 
L 67.90125 110.20875 
L 77.90125 110.20875 
" style="fill: none; stroke: #9467bd; stroke-width: 2; stroke-linecap: square"/>
    </g>
    <g id="text_31">
     <!-- Open Problems -->
     <g style="fill: #c9d1d9" transform="translate(85.90125 113.70875) scale(0.1 -0.1)">
      <defs>
       <path id="DejaVuSans-73" d="M 2834 3397 
L 2834 2853 
Q 2591 2978 2328 3040 
Q 2066 3103 1784 3103 
Q 1356 3103 1142 2972 
Q 928 2841 928 2578 
Q 928 2378 1081 2264 
Q 1234 2150 1697 2047 
L 1894 2003 
Q 2506 1872 2764 1633 
Q 3022 1394 3022 966 
Q 3022 478 2636 193 
Q 2250 -91 1575 -91 
Q 1294 -91 989 -36 
Q 684 19 347 128 
L 347 722 
Q 666 556 975 473 
Q 1284 391 1588 391 
Q 1994 391 2212 530 
Q 2431 669 2431 922 
Q 2431 1156 2273 1281 
Q 2116 1406 1581 1522 
L 1381 1569 
Q 847 1681 609 1914 
Q 372 2147 372 2553 
Q 372 3047 722 3315 
Q 1072 3584 1716 3584 
Q 2034 3584 2315 3537 
Q 2597 3491 2834 3397 
z
" transform="scale(0.015625)"/>
      </defs>
      <use xlink:href="#DejaVuSans-4f"/>
      <use xlink:href="#DejaVuSans-70" transform="translate(78.710938 0)"/>
      <use xlink:href="#DejaVuSans-65" transform="translate(142.1875 0)"/>
      <use xlink:href="#DejaVuSans-6e" transform="translate(203.710938 0)"/>
      <use xlink:href="#DejaVuSans-20" transform="translate(267.089844 0)"/>
      <use xlink:href="#DejaVuSans-50" transform="translate(298.876953 0)"/>
      <use xlink:href="#DejaVuSans-72" transform="translate(357.429688 0)"/>
      <use xlink:href="#DejaVuSans-6f" transform="translate(396.292969 0)"/>
      <use xlink:href="#DejaVuSans-62" transform="translate(457.474609 0)"/>
      <use xlink:href="#DejaVuSans-6c" transform="translate(520.951172 0)"/>
      <use xlink:href="#DejaVuSans-65" transform="translate(548.734375 0)"/>
      <use xlink:href="#DejaVuSans-6d" transform="translate(610.257812 0)"/>
      <use xlink:href="#DejaVuSans-73" transform="translate(707.669922 0)"/>
     </g>
    </g>
   </g>
  </g>
 </g>
 <defs>
  <clipPath id="p3c27c10c62">
   <rect x="48.90125" y="38.397812" width="799.45" height="416.84"/>
  </clipPath>
 </defs>
</svg>
