<?xml version="1.0" encoding="utf-8" standalone="no"?>
<!DOCTYPE svg PUBLIC "-//W3C//DTD SVG 1.1//EN"
  "http://www.w3.org/Graphics/SVG/1.1/DTD/svg11.dtd">
<svg xmlns:xlink="http://www.w3.org/1999/xlink" width="855.55125pt" height="494.729687pt" viewBox="0 0 855.55125 494.729687" xmlns="http://www.w3.org/2000/svg" version="1.1">
 <metadata>
  <rdf:RDF xmlns:dc="http://purl.org/dc/elements/1.1/" xmlns:cc="http://creativecommons.org/ns#" xmlns:rdf="http://www.w3.org/1999/02/22-rdf-syntax-ns#">
   <cc:Work>
    <dc:type rdf:resource="http://purl.org/dc/dcmitype/StillImage"/>
    <dc:date>2026-07-22T13:02:00.082200</dc:date>
    <dc:format>image/svg+xml</dc:format>
    <dc:creator>
     <cc:Agent>
      <dc:title>Matplotlib v3.10.7, https://matplotlib.org/</dc:title>
     </cc:Agent>
    </dc:creator>
   </cc:Work>
  </rdf:RDF>
 </metadata>
 <defs>
  <style type="text/css">*{stroke-linejoin: round; stroke-linecap: butt}</style>
 </defs>
 <g id="figure_1">
  <g id="patch_1">
   <path d="M 0 494.729687 
L 855.55125 494.729687 
L 855.55125 0 
L 0 0 
z
" style="fill: #ffffff"/>
  </g>
  <g id="axes_1">
   <g id="patch_2">
    <path d="M 48.90125 455.237812 
L 848.35125 455.237812 
L 848.35125 38.397812 
L 48.90125 38.397812 
z
" style="fill: #ffffff"/>
   </g>
   <g id="matplotlib.axis_1">
    <g id="xtick_1">
     <g id="line2d_1">
      <path d="M 85.893951 455.237812 
L 85.893951 38.397812 
" clip-path="url(#pff5082b7d9)" style="fill: none; stroke: #d0d7de; stroke-opacity: 0.25; stroke-width: 0.5; stroke-linecap: square"/>
     </g>
     <g id="line2d_2">
      <defs>
       <path id="m90d96c476f" d="M 0 0 
L 0 3.5 
" style="stroke: #24292f; stroke-width: 0.8"/>
      </defs>
      <g>
       <use xlink:href="#m90d96c476f" x="85.893951" y="455.237812" style="fill: #24292f; stroke: #24292f; stroke-width: 0.8"/>
      </g>
     </g>
     <g id="text_1">
      <!-- Sep -->
      <g style="fill: #24292f" transform="translate(76.468951 469.83625) scale(0.1 -0.1)">
       <defs>
        <path id="DejaVuSans-53" d="M 3425 4513 
L 3425 3897 
Q 3066 4069 2747 4153 
Q 2428 4238 2131 4238 
Q 1616 4238 1336 4038 
Q 1056 3838 1056 3469 
Q 1056 3159 1242 3001 
Q 1428 2844 1947 2747 
L 2328 2669 
Q 3034 2534 3370 2195 
Q 3706 1856 3706 1288 
Q 3706 609 3251 259 
Q 2797 -91 1919 -91 
Q 1588 -91 1214 -16 
Q 841 59 441 206 
L 441 856 
Q 825 641 1194 531 
Q 1563 422 1919 422 
Q 2459 422 2753 634 
Q 3047 847 3047 1241 
Q 3047 1584 2836 1778 
Q 2625 1972 2144 2069 
L 1759 2144 
Q 1053 2284 737 2584 
Q 422 2884 422 3419 
Q 422 4038 858 4394 
Q 1294 4750 2059 4750 
Q 2388 4750 2728 4690 
Q 3069 4631 3425 4513 
z
" transform="scale(0.015625)"/>
        <path id="DejaVuSans-65" d="M 3597 1894 
L 3597 1613 
L 953 1613 
Q 991 1019 1311 708 
Q 1631 397 2203 397 
Q 2534 397 2845 478 
Q 3156 559 3463 722 
L 3463 178 
Q 3153 47 2828 -22 
Q 2503 -91 2169 -91 
Q 1331 -91 842 396 
Q 353 884 353 1716 
Q 353 2575 817 3079 
Q 1281 3584 2069 3584 
Q 2775 3584 3186 3129 
Q 3597 2675 3597 1894 
z
M 3022 2063 
Q 3016 2534 2758 2815 
Q 2500 3097 2075 3097 
Q 1594 3097 1305 2825 
Q 1016 2553 972 2059 
L 3022 2063 
z
" transform="scale(0.015625)"/>
        <path id="DejaVuSans-70" d="M 1159 525 
L 1159 -1331 
L 581 -1331 
L 581 3500 
L 1159 3500 
L 1159 2969 
Q 1341 3281 1617 3432 
Q 1894 3584 2278 3584 
Q 2916 3584 3314 3078 
Q 3713 2572 3713 1747 
Q 3713 922 3314 415 
Q 2916 -91 2278 -91 
Q 1894 -91 1617 61 
Q 1341 213 1159 525 
z
M 3116 1747 
Q 3116 2381 2855 2742 
Q 2594 3103 2138 3103 
Q 1681 3103 1420 2742 
Q 1159 2381 1159 1747 
Q 1159 1113 1420 752 
Q 1681 391 2138 391 
Q 2594 391 2855 752 
Q 3116 1113 3116 1747 
z
" transform="scale(0.015625)"/>
       </defs>
       <use xlink:href="#DejaVuSans-53"/>
       <use xlink:href="#DejaVuSans-65" transform="translate(63.476562 0)"/>
       <use xlink:href="#DejaVuSans-70" transform="translate(125 0)"/>
      </g>
     </g>
    </g>
    <g id="xtick_2">
     <g id="line2d_3">
      <path d="M 222.37273 455.237812 
L 222.37273 38.397812 
" clip-path="url(#pff5082b7d9)" style="fill: none; stroke: #d0d7de; stroke-opacity: 0.25; stroke-width: 0.5; stroke-linecap: square"/>
     </g>
     <g id="line2d_4">
      <g>
       <use xlink:href="#m90d96c476f" x="222.37273" y="455.237812" style="fill: #24292f; stroke: #24292f; stroke-width: 0.8"/>
      </g>
     </g>
     <g id="text_2">
      <!-- Nov -->
      <g style="fill: #24292f" transform="translate(212.613355 469.83625) scale(0.1 -0.1)">
       <defs>
        <path id="DejaVuSans-4e" d="M 628 4666 
L 1478 4666 
L 3547 763 
L 3547 4666 
L 4159 4666 
L 4159 0 
L 3309 0 
L 1241 3903 
L 1241 0 
L 628 0 
L 628 4666 
z
" transform="scale(0.015625)"/>
        <path id="DejaVuSans-6f" d="M 1959 3097 
Q 1497 3097 1228 2736 
Q 959 2375 959 1747 
Q 959 1119 1226 758 
Q 1494 397 1959 397 
Q 2419 397 2687 759 
Q 2956 1122 2956 1747 
Q 2956 2369 2687 2733 
Q 2419 3097 1959 3097 
z
M 1959 3584 
Q 2709 3584 3137 3096 
Q 3566 2609 3566 1747 
Q 3566 888 3137 398 
Q 2709 -91 1959 -91 
Q 1206 -91 779 398 
Q 353 888 353 1747 
Q 353 2609 779 3096 
Q 1206 3584 1959 3584 
z
" transform="scale(0.015625)"/>
        <path id="DejaVuSans-76" d="M 191 3500 
L 800 3500 
L 1894 563 
L 2988 3500 
L 3597 3500 
L 2284 0 
L 1503 0 
L 191 3500 
z
" transform="scale(0.015625)"/>
       </defs>
       <use xlink:href="#DejaVuSans-4e"/>
       <use xlink:href="#DejaVuSans-6f" transform="translate(74.804688 0)"/>
       <use xlink:href="#DejaVuSans-76" transform="translate(135.986328 0)"/>
      </g>
     </g>
    </g>
    <g id="xtick_3">
     <g id="line2d_5">
      <path d="M 358.851509 455.237812 
L 358.851509 38.397812 
" clip-path="url(#pff5082b7d9)" style="fill: none; stroke: #d0d7de; stroke-opacity: 0.25; stroke-width: 0.5; stroke-linecap: square"/>
     </g>
     <g id="line2d_6">
      <g>
       <use xlink:href="#m90d96c476f" x="358.851509" y="455.237812" style="fill: #24292f; stroke: #24292f; stroke-width: 0.8"/>
      </g>
     </g>
     <g id="text_3">
      <!-- 2026 -->
      <g style="fill: #24292f" transform="translate(346.126509 469.83625) scale(0.1 -0.1)">
       <defs>
        <path id="DejaVuSans-32" d="M 1228 531 
L 3431 531 
L 3431 0 
L 469 0 
L 469 531 
Q 828 903 1448 1529 
Q 2069 2156 2228 2338 
Q 2531 2678 2651 2914 
Q 2772 3150 2772 3378 
Q 2772 3750 2511 3984 
Q 2250 4219 1831 4219 
Q 1534 4219 1204 4116 
Q 875 4013 500 3803 
L 500 4441 
Q 881 4594 1212 4672 
Q 1544 4750 1819 4750 
Q 2544 4750 2975 4387 
Q 3406 4025 3406 3419 
Q 3406 3131 3298 2873 
Q 3191 2616 2906 2266 
Q 2828 2175 2409 1742 
Q 1991 1309 1228 531 
z
" transform="scale(0.015625)"/>
        <path id="DejaVuSans-30" d="M 2034 4250 
Q 1547 4250 1301 3770 
Q 1056 3291 1056 2328 
Q 1056 1369 1301 889 
Q 1547 409 2034 409 
Q 2525 409 2770 889 
Q 3016 1369 3016 2328 
Q 3016 3291 2770 3770 
Q 2525 4250 2034 4250 
z
M 2034 4750 
Q 2819 4750 3233 4129 
Q 3647 3509 3647 2328 
Q 3647 1150 3233 529 
Q 2819 -91 2034 -91 
Q 1250 -91 836 529 
Q 422 1150 422 2328 
Q 422 3509 836 4129 
Q 1250 4750 2034 4750 
z
" transform="scale(0.015625)"/>
        <path id="DejaVuSans-36" d="M 2113 2584 
Q 1688 2584 1439 2293 
Q 1191 2003 1191 1497 
Q 1191 994 1439 701 
Q 1688 409 2113 409 
Q 2538 409 2786 701 
Q 3034 994 3034 1497 
Q 3034 2003 2786 2293 
Q 2538 2584 2113 2584 
z
M 3366 4563 
L 3366 3988 
Q 3128 4100 2886 4159 
Q 2644 4219 2406 4219 
Q 1781 4219 1451 3797 
Q 1122 3375 1075 2522 
Q 1259 2794 1537 2939 
Q 1816 3084 2150 3084 
Q 2853 3084 3261 2657 
Q 3669 2231 3669 1497 
Q 3669 778 3244 343 
Q 2819 -91 2113 -91 
Q 1303 -91 875 529 
Q 447 1150 447 2328 
Q 447 3434 972 4092 
Q 1497 4750 2381 4750 
Q 2619 4750 2861 4703 
Q 3103 4656 3366 4563 
z
" transform="scale(0.015625)"/>
       </defs>
       <use xlink:href="#DejaVuSans-32"/>
       <use xlink:href="#DejaVuSans-30" transform="translate(63.623047 0)"/>
       <use xlink:href="#DejaVuSans-32" transform="translate(127.246094 0)"/>
       <use xlink:href="#DejaVuSans-36" transform="translate(190.869141 0)"/>
      </g>
     </g>
    </g>
    <g id="xtick_4">
     <g id="line2d_7">
      <path d="M 490.855574 455.237812 
L 490.855574 38.397812 
" clip-path="url(#pff5082b7d9)" style="fill: none; stroke: #d0d7de; stroke-opacity: 0.25; stroke-width: 0.5; stroke-linecap: square"/>
     </g>
     <g id="line2d_8">
      <g>
       <use xlink:href="#m90d96c476f" x="490.855574" y="455.237812" style="fill: #24292f; stroke: #24292f; stroke-width: 0.8"/>
      </g>
     </g>
     <g id="text_4">
      <!-- Mar -->
      <g style="fill: #24292f" transform="translate(481.42198 469.83625) scale(0.1 -0.1)">
       <defs>
        <path id="DejaVuSans-4d" d="M 628 4666 
L 1569 4666 
L 2759 1491 
L 3956 4666 
L 4897 4666 
L 4897 0 
L 4281 0 
L 4281 4097 
L 3078 897 
L 2444 897 
L 1241 4097 
L 1241 0 
L 628 0 
L 628 4666 
z
" transform="scale(0.015625)"/>
        <path id="DejaVuSans-61" d="M 2194 1759 
Q 1497 1759 1228 1600 
Q 959 1441 959 1056 
Q 959 750 1161 570 
Q 1363 391 1709 391 
Q 2188 391 2477 730 
Q 2766 1069 2766 1631 
L 2766 1759 
L 2194 1759 
z
M 3341 1997 
L 3341 0 
L 2766 0 
L 2766 531 
Q 2569 213 2275 61 
Q 1981 -91 1556 -91 
Q 1019 -91 701 211 
Q 384 513 384 1019 
Q 384 1609 779 1909 
Q 1175 2209 1959 2209 
L 2766 2209 
L 2766 2266 
Q 2766 2663 2505 2880 
Q 2244 3097 1772 3097 
Q 1472 3097 1187 3025 
Q 903 2953 641 2809 
L 641 3341 
Q 956 3463 1253 3523 
Q 1550 3584 1831 3584 
Q 2591 3584 2966 3190 
Q 3341 2797 3341 1997 
z
" transform="scale(0.015625)"/>
        <path id="DejaVuSans-72" d="M 2631 2963 
Q 2534 3019 2420 3045 
Q 2306 3072 2169 3072 
Q 1681 3072 1420 2755 
Q 1159 2438 1159 1844 
L 1159 0 
L 581 0 
L 581 3500 
L 1159 3500 
L 1159 2956 
Q 1341 3275 1631 3429 
Q 1922 3584 2338 3584 
Q 2397 3584 2469 3576 
Q 2541 3569 2628 3553 
L 2631 2963 
z
" transform="scale(0.015625)"/>
       </defs>
       <use xlink:href="#DejaVuSans-4d"/>
       <use xlink:href="#DejaVuSans-61" transform="translate(86.279297 0)"/>
       <use xlink:href="#DejaVuSans-72" transform="translate(147.558594 0)"/>
      </g>
     </g>
    </g>
    <g id="xtick_5">
     <g id="line2d_9">
      <path d="M 627.334353 455.237812 
L 627.334353 38.397812 
" clip-path="url(#pff5082b7d9)" style="fill: none; stroke: #d0d7de; stroke-opacity: 0.25; stroke-width: 0.5; stroke-linecap: square"/>
     </g>
     <g id="line2d_10">
      <g>
       <use xlink:href="#m90d96c476f" x="627.334353" y="455.237812" style="fill: #24292f; stroke: #24292f; stroke-width: 0.8"/>
      </g>
     </g>
     <g id="text_5">
      <!-- May -->
      <g style="fill: #24292f" transform="translate(616.996853 469.83625) scale(0.1 -0.1)">
       <defs>
        <path id="DejaVuSans-79" d="M 2059 -325 
Q 1816 -950 1584 -1140 
Q 1353 -1331 966 -1331 
L 506 -1331 
L 506 -850 
L 844 -850 
Q 1081 -850 1212 -737 
Q 1344 -625 1503 -206 
L 1606 56 
L 191 3500 
L 800 3500 
L 1894 763 
L 2988 3500 
L 3597 3500 
L 2059 -325 
z
" transform="scale(0.015625)"/>
       </defs>
       <use xlink:href="#DejaVuSans-4d"/>
       <use xlink:href="#DejaVuSans-61" transform="translate(86.279297 0)"/>
       <use xlink:href="#DejaVuSans-79" transform="translate(147.558594 0)"/>
      </g>
     </g>
    </g>
    <g id="xtick_6">
     <g id="line2d_11">
      <path d="M 763.813133 455.237812 
L 763.813133 38.397812 
" clip-path="url(#pff5082b7d9)" style="fill: none; stroke: #d0d7de; stroke-opacity: 0.25; stroke-width: 0.5; stroke-linecap: square"/>
     </g>
     <g id="line2d_12">
      <g>
       <use xlink:href="#m90d96c476f" x="763.813133" y="455.237812" style="fill: #24292f; stroke: #24292f; stroke-width: 0.8"/>
      </g>
     </g>
     <g id="text_6">
      <!-- Jul -->
      <g style="fill: #24292f" transform="translate(757.78032 469.83625) scale(0.1 -0.1)">
       <defs>
        <path id="DejaVuSans-4a" d="M 628 4666 
L 1259 4666 
L 1259 325 
Q 1259 -519 939 -900 
Q 619 -1281 -91 -1281 
L -331 -1281 
L -331 -750 
L -134 -750 
Q 284 -750 456 -515 
Q 628 -281 628 325 
L 628 4666 
z
" transform="scale(0.015625)"/>
        <path id="DejaVuSans-75" d="M 544 1381 
L 544 3500 
L 1119 3500 
L 1119 1403 
Q 1119 906 1312 657 
Q 1506 409 1894 409 
Q 2359 409 2629 706 
Q 2900 1003 2900 1516 
L 2900 3500 
L 3475 3500 
L 3475 0 
L 2900 0 
L 2900 538 
Q 2691 219 2414 64 
Q 2138 -91 1772 -91 
Q 1169 -91 856 284 
Q 544 659 544 1381 
z
M 1991 3584 
L 1991 3584 
z
" transform="scale(0.015625)"/>
        <path id="DejaVuSans-6c" d="M 603 4863 
L 1178 4863 
L 1178 0 
L 603 0 
L 603 4863 
z
" transform="scale(0.015625)"/>
       </defs>
       <use xlink:href="#DejaVuSans-4a"/>
       <use xlink:href="#DejaVuSans-75" transform="translate(29.492188 0)"/>
       <use xlink:href="#DejaVuSans-6c" transform="translate(92.871094 0)"/>
      </g>
     </g>
    </g>
    <g id="text_7">
     <!-- Date -->
     <g style="fill: #24292f" transform="translate(434.285313 485.034062) scale(0.12 -0.12)">
      <defs>
       <path id="DejaVuSans-44" d="M 1259 4147 
L 1259 519 
L 2022 519 
Q 2988 519 3436 956 
Q 3884 1394 3884 2338 
Q 3884 3275 3436 3711 
Q 2988 4147 2022 4147 
L 1259 4147 
z
M 628 4666 
L 1925 4666 
Q 3281 4666 3915 4102 
Q 4550 3538 4550 2338 
Q 4550 1131 3912 565 
Q 3275 0 1925 0 
L 628 0 
L 628 4666 
z
" transform="scale(0.015625)"/>
       <path id="DejaVuSans-74" d="M 1172 4494 
L 1172 3500 
L 2356 3500 
L 2356 3053 
L 1172 3053 
L 1172 1153 
Q 1172 725 1289 603 
Q 1406 481 1766 481 
L 2356 481 
L 2356 0 
L 1766 0 
Q 1100 0 847 248 
Q 594 497 594 1153 
L 594 3053 
L 172 3053 
L 172 3500 
L 594 3500 
L 594 4494 
L 1172 4494 
z
" transform="scale(0.015625)"/>
      </defs>
      <use xlink:href="#DejaVuSans-44"/>
      <use xlink:href="#DejaVuSans-61" transform="translate(77.001953 0)"/>
      <use xlink:href="#DejaVuSans-74" transform="translate(138.28125 0)"/>
      <use xlink:href="#DejaVuSans-65" transform="translate(177.490234 0)"/>
     </g>
    </g>
   </g>
   <g id="matplotlib.axis_2">
    <g id="ytick_1">
     <g id="line2d_13">
      <path d="M 48.90125 455.237812 
L 848.35125 455.237812 
" clip-path="url(#pff5082b7d9)" style="fill: none; stroke: #d0d7de; stroke-opacity: 0.25; stroke-width: 0.5; stroke-linecap: square"/>
     </g>
     <g id="line2d_14">
      <defs>
       <path id="m728e249ccf" d="M 0 0 
L -3.5 0 
" style="stroke: #24292f; stroke-width: 0.8"/>
      </defs>
      <g>
       <use xlink:href="#m728e249ccf" x="48.90125" y="455.237812" style="fill: #24292f; stroke: #24292f; stroke-width: 0.8"/>
      </g>
     </g>
     <g id="text_8">
      <!-- 0 -->
      <g style="fill: #24292f" transform="translate(35.53875 459.037031) scale(0.1 -0.1)">
       <use xlink:href="#DejaVuSans-30"/>
      </g>
     </g>
    </g>
    <g id="ytick_2">
     <g id="line2d_15">
      <path d="M 48.90125 399.659146 
L 848.35125 399.659146 
" clip-path="url(#pff5082b7d9)" style="fill: none; stroke: #d0d7de; stroke-opacity: 0.25; stroke-width: 0.5; stroke-linecap: square"/>
     </g>
     <g id="line2d_16">
      <g>
       <use xlink:href="#m728e249ccf" x="48.90125" y="399.659146" style="fill: #24292f; stroke: #24292f; stroke-width: 0.8"/>
      </g>
     </g>
     <g id="text_9">
      <!-- 100 -->
      <g style="fill: #24292f" transform="translate(22.81375 403.458365) scale(0.1 -0.1)">
       <defs>
        <path id="DejaVuSans-31" d="M 794 531 
L 1825 531 
L 1825 4091 
L 703 3866 
L 703 4441 
L 1819 4666 
L 2450 4666 
L 2450 531 
L 3481 531 
L 3481 0 
L 794 0 
L 794 531 
z
" transform="scale(0.015625)"/>
       </defs>
       <use xlink:href="#DejaVuSans-31"/>
       <use xlink:href="#DejaVuSans-30" transform="translate(63.623047 0)"/>
       <use xlink:href="#DejaVuSans-30" transform="translate(127.246094 0)"/>
      </g>
     </g>
    </g>
    <g id="ytick_3">
     <g id="line2d_17">
      <path d="M 48.90125 344.080479 
L 848.35125 344.080479 
" clip-path="url(#pff5082b7d9)" style="fill: none; stroke: #d0d7de; stroke-opacity: 0.25; stroke-width: 0.5; stroke-linecap: square"/>
     </g>
     <g id="line2d_18">
      <g>
       <use xlink:href="#m728e249ccf" x="48.90125" y="344.080479" style="fill: #24292f; stroke: #24292f; stroke-width: 0.8"/>
      </g>
     </g>
     <g id="text_10">
      <!-- 200 -->
      <g style="fill: #24292f" transform="translate(22.81375 347.879698) scale(0.1 -0.1)">
       <use xlink:href="#DejaVuSans-32"/>
       <use xlink:href="#DejaVuSans-30" transform="translate(63.623047 0)"/>
       <use xlink:href="#DejaVuSans-30" transform="translate(127.246094 0)"/>
      </g>
     </g>
    </g>
    <g id="ytick_4">
     <g id="line2d_19">
      <path d="M 48.90125 288.501812 
L 848.35125 288.501812 
" clip-path="url(#pff5082b7d9)" style="fill: none; stroke: #d0d7de; stroke-opacity: 0.25; stroke-width: 0.5; stroke-linecap: square"/>
     </g>
     <g id="line2d_20">
      <g>
       <use xlink:href="#m728e249ccf" x="48.90125" y="288.501812" style="fill: #24292f; stroke: #24292f; stroke-width: 0.8"/>
      </g>
     </g>
     <g id="text_11">
      <!-- 300 -->
      <g style="fill: #24292f" transform="translate(22.81375 292.301031) scale(0.1 -0.1)">
       <defs>
        <path id="DejaVuSans-33" d="M 2597 2516 
Q 3050 2419 3304 2112 
Q 3559 1806 3559 1356 
Q 3559 666 3084 287 
Q 2609 -91 1734 -91 
Q 1441 -91 1130 -33 
Q 819 25 488 141 
L 488 750 
Q 750 597 1062 519 
Q 1375 441 1716 441 
Q 2309 441 2620 675 
Q 2931 909 2931 1356 
Q 2931 1769 2642 2001 
Q 2353 2234 1838 2234 
L 1294 2234 
L 1294 2753 
L 1863 2753 
Q 2328 2753 2575 2939 
Q 2822 3125 2822 3475 
Q 2822 3834 2567 4026 
Q 2313 4219 1838 4219 
Q 1578 4219 1281 4162 
Q 984 4106 628 3988 
L 628 4550 
Q 988 4650 1302 4700 
Q 1616 4750 1894 4750 
Q 2613 4750 3031 4423 
Q 3450 4097 3450 3541 
Q 3450 3153 3228 2886 
Q 3006 2619 2597 2516 
z
" transform="scale(0.015625)"/>
       </defs>
       <use xlink:href="#DejaVuSans-33"/>
       <use xlink:href="#DejaVuSans-30" transform="translate(63.623047 0)"/>
       <use xlink:href="#DejaVuSans-30" transform="translate(127.246094 0)"/>
      </g>
     </g>
    </g>
    <g id="ytick_5">
     <g id="line2d_21">
      <path d="M 48.90125 232.923146 
L 848.35125 232.923146 
" clip-path="url(#pff5082b7d9)" style="fill: none; stroke: #d0d7de; stroke-opacity: 0.25; stroke-width: 0.5; stroke-linecap: square"/>
     </g>
     <g id="line2d_22">
      <g>
       <use xlink:href="#m728e249ccf" x="48.90125" y="232.923146" style="fill: #24292f; stroke: #24292f; stroke-width: 0.8"/>
      </g>
     </g>
     <g id="text_12">
      <!-- 400 -->
      <g style="fill: #24292f" transform="translate(22.81375 236.722365) scale(0.1 -0.1)">
       <defs>
        <path id="DejaVuSans-34" d="M 2419 4116 
L 825 1625 
L 2419 1625 
L 2419 4116 
z
M 2253 4666 
L 3047 4666 
L 3047 1625 
L 3713 1625 
L 3713 1100 
L 3047 1100 
L 3047 0 
L 2419 0 
L 2419 1100 
L 313 1100 
L 313 1709 
L 2253 4666 
z
" transform="scale(0.015625)"/>
       </defs>
       <use xlink:href="#DejaVuSans-34"/>
       <use xlink:href="#DejaVuSans-30" transform="translate(63.623047 0)"/>
       <use xlink:href="#DejaVuSans-30" transform="translate(127.246094 0)"/>
      </g>
     </g>
    </g>
    <g id="ytick_6">
     <g id="line2d_23">
      <path d="M 48.90125 177.344479 
L 848.35125 177.344479 
" clip-path="url(#pff5082b7d9)" style="fill: none; stroke: #d0d7de; stroke-opacity: 0.25; stroke-width: 0.5; stroke-linecap: square"/>
     </g>
     <g id="line2d_24">
      <g>
       <use xlink:href="#m728e249ccf" x="48.90125" y="177.344479" style="fill: #24292f; stroke: #24292f; stroke-width: 0.8"/>
      </g>
     </g>
     <g id="text_13">
      <!-- 500 -->
      <g style="fill: #24292f" transform="translate(22.81375 181.143698) scale(0.1 -0.1)">
       <defs>
        <path id="DejaVuSans-35" d="M 691 4666 
L 3169 4666 
L 3169 4134 
L 1269 4134 
L 1269 2991 
Q 1406 3038 1543 3061 
Q 1681 3084 1819 3084 
Q 2600 3084 3056 2656 
Q 3513 2228 3513 1497 
Q 3513 744 3044 326 
Q 2575 -91 1722 -91 
Q 1428 -91 1123 -41 
Q 819 9 494 109 
L 494 744 
Q 775 591 1075 516 
Q 1375 441 1709 441 
Q 2250 441 2565 725 
Q 2881 1009 2881 1497 
Q 2881 1984 2565 2268 
Q 2250 2553 1709 2553 
Q 1456 2553 1204 2497 
Q 953 2441 691 2322 
L 691 4666 
z
" transform="scale(0.015625)"/>
       </defs>
       <use xlink:href="#DejaVuSans-35"/>
       <use xlink:href="#DejaVuSans-30" transform="translate(63.623047 0)"/>
       <use xlink:href="#DejaVuSans-30" transform="translate(127.246094 0)"/>
      </g>
     </g>
    </g>
    <g id="ytick_7">
     <g id="line2d_25">
      <path d="M 48.90125 121.765812 
L 848.35125 121.765812 
" clip-path="url(#pff5082b7d9)" style="fill: none; stroke: #d0d7de; stroke-opacity: 0.25; stroke-width: 0.5; stroke-linecap: square"/>
     </g>
     <g id="line2d_26">
      <g>
       <use xlink:href="#m728e249ccf" x="48.90125" y="121.765812" style="fill: #24292f; stroke: #24292f; stroke-width: 0.8"/>
      </g>
     </g>
     <g id="text_14">
      <!-- 600 -->
      <g style="fill: #24292f" transform="translate(22.81375 125.565031) scale(0.1 -0.1)">
       <use xlink:href="#DejaVuSans-36"/>
       <use xlink:href="#DejaVuSans-30" transform="translate(63.623047 0)"/>
       <use xlink:href="#DejaVuSans-30" transform="translate(127.246094 0)"/>
      </g>
     </g>
    </g>
    <g id="ytick_8">
     <g id="line2d_27">
      <path d="M 48.90125 66.187146 
L 848.35125 66.187146 
" clip-path="url(#pff5082b7d9)" style="fill: none; stroke: #d0d7de; stroke-opacity: 0.25; stroke-width: 0.5; stroke-linecap: square"/>
     </g>
     <g id="line2d_28">
      <g>
       <use xlink:href="#m728e249ccf" x="48.90125" y="66.187146" style="fill: #24292f; stroke: #24292f; stroke-width: 0.8"/>
      </g>
     </g>
     <g id="text_15">
      <!-- 700 -->
      <g style="fill: #24292f" transform="translate(22.81375 69.986365) scale(0.1 -0.1)">
       <defs>
        <path id="DejaVuSans-37" d="M 525 4666 
L 3525 4666 
L 3525 4397 
L 1831 0 
L 1172 0 
L 2766 4134 
L 525 4134 
L 525 4666 
z
" transform="scale(0.015625)"/>
       </defs>
       <use xlink:href="#DejaVuSans-37"/>
       <use xlink:href="#DejaVuSans-30" transform="translate(63.623047 0)"/>
       <use xlink:href="#DejaVuSans-30" transform="translate(127.246094 0)"/>
      </g>
     </g>
    </g>
    <g id="text_16">
     <!-- Count -->
     <g style="fill: #24292f" transform="translate(16.318125 264.635937) rotate(-90) scale(0.12 -0.12)">
      <defs>
       <path id="DejaVuSans-43" d="M 4122 4306 
L 4122 3641 
Q 3803 3938 3442 4084 
Q 3081 4231 2675 4231 
Q 1875 4231 1450 3742 
Q 1025 3253 1025 2328 
Q 1025 1406 1450 917 
Q 1875 428 2675 428 
Q 3081 428 3442 575 
Q 3803 722 4122 1019 
L 4122 359 
Q 3791 134 3420 21 
Q 3050 -91 2638 -91 
Q 1578 -91 968 557 
Q 359 1206 359 2328 
Q 359 3453 968 4101 
Q 1578 4750 2638 4750 
Q 3056 4750 3426 4639 
Q 3797 4528 4122 4306 
z
" transform="scale(0.015625)"/>
       <path id="DejaVuSans-6e" d="M 3513 2113 
L 3513 0 
L 2938 0 
L 2938 2094 
Q 2938 2591 2744 2837 
Q 2550 3084 2163 3084 
Q 1697 3084 1428 2787 
Q 1159 2491 1159 1978 
L 1159 0 
L 581 0 
L 581 3500 
L 1159 3500 
L 1159 2956 
Q 1366 3272 1645 3428 
Q 1925 3584 2291 3584 
Q 2894 3584 3203 3211 
Q 3513 2838 3513 2113 
z
" transform="scale(0.015625)"/>
      </defs>
      <use xlink:href="#DejaVuSans-43"/>
      <use xlink:href="#DejaVuSans-6f" transform="translate(69.824219 0)"/>
      <use xlink:href="#DejaVuSans-75" transform="translate(131.005859 0)"/>
      <use xlink:href="#DejaVuSans-6e" transform="translate(194.384766 0)"/>
      <use xlink:href="#DejaVuSans-74" transform="translate(257.763672 0)"/>
     </g>
    </g>
   </g>
   <g id="line2d_29">
    <path d="M 85.239886 454.682026 
L 85.282743 454.682026 
L 85.386143 454.126239 
L 85.444408 454.126239 
L 85.587687 257.933546 
L 87.390028 257.933546 
L 87.398263 261.268266 
L 89.578754 261.268266 
L 89.734592 260.712479 
L 89.986993 260.712479 
L 90.232326 260.156692 
L 91.752512 259.600906 
L 91.782524 260.156692 
L 91.855394 259.600906 
L 96.562959 259.600906 
L 99.402952 260.712479 
L 99.825512 259.600906 
L 100.134055 259.600906 
L 100.911692 259.045119 
L 101.237041 256.821972 
L 101.870544 256.821972 
L 102.793713 260.712479 
L 102.853609 256.821972 
L 103.562002 256.266186 
L 105.40562 256.266186 
L 105.891909 255.710399 
L 106.614233 255.710399 
L 106.851305 254.598826 
L 111.31012 254.598826 
L 111.638498 253.487252 
L 111.65533 252.375679 
L 113.073074 252.375679 
L 115.163604 251.264106 
L 116.260246 251.264106 
L 116.276845 250.708319 
L 118.795322 250.708319 
L 119.420073 247.929386 
L 121.397259 247.929386 
L 121.410984 247.373599 
L 132.484218 247.373599 
L 134.554084 246.817812 
L 134.624752 247.373599 
L 136.771476 246.817812 
L 144.241892 246.817812 
L 147.862707 246.262026 
L 147.93265 245.706239 
L 148.104647 245.150452 
L 150.147271 245.150452 
L 151.016629 244.594666 
L 154.601761 244.594666 
L 154.737867 247.373599 
L 154.744548 245.150452 
L 154.918849 245.150452 
L 155.888759 242.927306 
L 160.022043 242.927306 
L 163.269811 242.371519 
L 166.879491 242.371519 
L 167.037893 241.815732 
L 176.417624 241.815732 
L 176.81794 241.259946 
L 179.09546 241.259946 
L 179.111515 240.148372 
L 183.451004 240.148372 
L 183.539022 236.257866 
L 191.393259 236.257866 
L 191.395615 235.702079 
L 191.62308 235.702079 
L 192.613007 235.146292 
L 193.619015 235.146292 
L 193.938978 234.590506 
L 193.970984 235.146292 
L 194.703667 234.590506 
L 194.707007 234.034719 
L 194.724124 234.590506 
L 195.147358 234.034719 
L 199.002733 234.034719 
L 200.201402 233.478932 
L 201.623729 233.478932 
L 204.039531 232.923146 
L 206.32653 232.923146 
L 208.093472 231.811572 
L 211.960319 231.811572 
L 214.209691 230.699999 
L 214.843454 231.255786 
L 217.982978 231.255786 
L 221.524502 229.032639 
L 226.806245 229.032639 
L 228.444306 228.476852 
L 257.636507 228.476852 
L 257.872258 227.921066 
L 268.517986 227.921066 
L 268.695861 227.365279 
L 286.810607 227.365279 
L 290.799421 226.809492 
L 290.822493 227.365279 
L 293.677894 225.697919 
L 297.868355 225.697919 
L 300.156493 225.142132 
L 300.160248 224.586346 
L 304.934467 224.586346 
L 306.647988 225.142132 
L 307.26396 224.586346 
L 315.253862 224.586346 
L 315.593894 225.142132 
L 316.21678 224.586346 
L 316.430831 222.363199 
L 320.092354 222.363199 
L 320.095513 221.807412 
L 331.2997 221.807412 
L 331.952159 221.251626 
L 334.105408 221.251626 
L 334.315471 220.695839 
L 344.815434 220.695839 
L 344.829703 220.140052 
L 347.455904 220.140052 
L 347.459814 219.584266 
L 348.097072 219.584266 
L 348.130348 219.028479 
L 349.119938 219.028479 
L 349.275414 218.472692 
L 351.393445 218.472692 
L 351.715402 217.361119 
L 352.881391 215.137972 
L 355.700953 215.137972 
L 356.012267 212.359039 
L 356.85459 212.359039 
L 357.318609 211.247466 
L 359.709681 211.247466 
L 360.494257 210.691679 
L 362.740108 210.691679 
L 363.041116 210.135892 
L 369.141047 210.135892 
L 369.291343 209.580106 
L 369.855525 209.580106 
L 370.731435 209.024319 
L 380.597661 209.024319 
L 380.686301 208.468532 
L 381.002639 208.468532 
L 381.663021 207.356959 
L 382.588883 207.356959 
L 382.811505 206.801172 
L 383.025997 206.801172 
L 383.107386 206.245386 
L 385.583394 206.245386 
L 386.004918 205.689599 
L 388.160084 205.689599 
L 388.298261 205.133812 
L 389.478778 205.133812 
L 389.619363 204.578026 
L 393.223191 204.578026 
L 393.302069 204.022239 
L 395.441748 204.022239 
L 396.156408 201.799092 
L 396.948753 201.799092 
L 396.949582 201.243306 
L 400.166819 201.243306 
L 400.756637 200.687519 
L 403.220034 200.687519 
L 403.705235 200.131732 
L 403.887745 200.131732 
L 404.361837 199.575946 
L 405.572858 199.575946 
L 405.712823 199.020159 
L 408.750061 199.020159 
L 409.532955 198.464372 
L 409.589976 197.908586 
L 409.84344 197.908586 
L 410.64345 195.685439 
L 413.124508 195.685439 
L 413.142376 195.129652 
L 415.503616 195.129652 
L 415.728621 194.573866 
L 415.997052 194.573866 
L 416.267063 194.018079 
L 416.323385 194.573866 
L 416.525576 194.018079 
L 417.423885 194.018079 
L 417.432482 193.462292 
L 417.67103 193.462292 
L 417.775492 192.906506 
L 418.497298 192.350719 
L 423.519336 192.350719 
L 424.304276 191.794932 
L 424.829718 191.794932 
L 425.256007 191.239146 
L 425.687242 191.794932 
L 427.462808 191.794932 
L 427.53938 190.683359 
L 430.088336 190.683359 
L 431.07733 189.015999 
L 441.812164 189.015999 
L 442.436061 188.460212 
L 459.005865 188.460212 
L 459.107659 187.904426 
L 483.455257 187.904426 
L 483.570206 186.792852 
L 483.577845 187.348639 
L 487.126465 187.348639 
L 487.927692 186.792852 
L 501.90804 186.792852 
L 504.784883 186.237066 
L 504.81285 185.681279 
L 505.051009 185.681279 
L 505.797002 185.125492 
L 528.234534 185.125492 
L 528.452313 184.569706 
L 548.405343 184.569706 
L 550.966444 184.013919 
L 552.533034 184.013919 
L 552.703037 183.458132 
L 553.791884 182.902346 
L 556.845384 182.902346 
L 558.131398 182.346559 
L 559.477075 182.346559 
L 559.581874 181.790772 
L 561.795252 181.790772 
L 562.059643 181.234986 
L 562.111978 180.679199 
L 566.052704 180.679199 
L 566.067982 180.123412 
L 569.423319 180.123412 
L 569.430725 179.567626 
L 570.567582 179.011839 
L 572.585812 179.011839 
L 574.038178 178.456052 
L 575.337943 178.456052 
L 577.253628 175.121332 
L 579.490156 175.121332 
L 579.500515 172.342399 
L 590.745849 172.342399 
L 590.747014 171.786612 
L 590.941514 171.230826 
L 592.018605 171.230826 
L 592.25288 170.675039 
L 595.785807 170.675039 
L 596.60252 170.119252 
L 596.73689 170.675039 
L 603.055922 170.675039 
L 603.057346 170.119252 
L 605.608684 170.119252 
L 606.652396 167.340319 
L 613.050849 167.340319 
L 613.119186 166.228746 
L 614.565855 164.561386 
L 616.017444 164.561386 
L 616.172065 164.005599 
L 622.274146 164.005599 
L 622.38635 163.449812 
L 628.513523 163.449812 
L 628.646988 162.894026 
L 630.335675 161.226666 
L 630.466524 160.670879 
L 647.101869 160.670879 
L 648.676849 157.891946 
L 652.434936 157.891946 
L 652.679724 157.336159 
L 655.503145 157.336159 
L 656.554029 156.224586 
L 671.435794 156.224586 
L 671.624467 155.668799 
L 673.80299 155.668799 
L 674.036359 155.113012 
L 688.387477 155.113012 
L 688.394831 153.445652 
L 688.840567 153.445652 
L 689.018157 152.889866 
L 691.474278 152.889866 
L 691.834431 152.334079 
L 691.83658 152.889866 
L 698.319115 152.889866 
L 699.88296 152.334079 
L 729.058769 152.334079 
L 729.061643 151.778292 
L 740.679198 151.778292 
L 742.133324 151.222506 
L 767.263168 151.222506 
L 767.423201 150.110932 
L 774.094073 150.110932 
L 775.604574 148.999359 
L 782.966799 148.999359 
L 794.426884 148.443572 
L 795.953854 147.887786 
L 798.187948 146.776212 
L 799.563379 146.776212 
L 800.752545 146.220426 
L 801.207396 146.220426 
L 804.714816 145.664639 
L 812.012614 145.664639 
L 812.012614 145.664639 
" clip-path="url(#pff5082b7d9)" style="fill: none; stroke: #1a7f37; stroke-width: 2; stroke-linecap: square"/>
   </g>
   <g id="line2d_30">
    <path d="M 85.239886 455.237812 
L 85.309933 453.570452 
L 85.386143 453.570452 
L 85.505236 372.981386 
L 86.500912 372.981386 
L 86.522638 370.758239 
L 87.611718 370.758239 
L 87.89232 369.090879 
L 88.274121 370.758239 
L 88.276943 369.090879 
L 88.592866 369.090879 
L 88.714963 367.979306 
L 91.834859 367.979306 
L 91.837837 367.423519 
L 91.855394 367.979306 
L 92.008953 367.423519 
L 92.053985 367.979306 
L 92.262624 367.423519 
L 93.268917 367.423519 
L 93.482216 366.311946 
L 94.71833 366.311946 
L 96.125017 365.756159 
L 96.174529 365.200372 
L 96.554724 364.644586 
L 96.562959 364.088799 
L 99.402952 367.979306 
L 99.825512 366.311946 
L 100.134055 363.533012 
L 101.870544 363.533012 
L 102.793713 367.979306 
L 102.853609 363.533012 
L 119.722893 363.533012 
L 120.24054 362.977226 
L 121.410984 362.977226 
L 124.607659 362.421439 
L 125.386332 361.865652 
L 136.481189 361.865652 
L 136.771476 361.309866 
L 138.262892 360.754079 
L 139.210816 360.754079 
L 140.261545 360.198292 
L 140.289849 359.086719 
L 141.012122 358.530932 
L 141.497556 357.975146 
L 148.185026 357.975146 
L 149.518118 357.419359 
L 149.921127 357.419359 
L 150.147271 356.863572 
L 151.016629 356.863572 
L 151.880317 356.307786 
L 154.601761 356.307786 
L 154.737867 358.530932 
L 154.744548 356.307786 
L 155.784375 356.307786 
L 155.888759 355.751999 
L 157.360598 355.751999 
L 158.808691 355.196212 
L 158.843831 354.640426 
L 163.269811 354.640426 
L 165.136631 354.084639 
L 165.141344 353.528852 
L 171.353532 353.528852 
L 173.944878 352.973066 
L 175.889048 352.973066 
L 176.417624 352.417279 
L 179.385255 352.417279 
L 181.077878 351.861492 
L 181.170661 351.305706 
L 182.820893 351.305706 
L 183.012415 350.749919 
L 183.539022 350.194132 
L 184.714593 350.194132 
L 185.456805 349.638346 
L 186.817631 349.638346 
L 187.705789 349.082559 
L 189.600499 349.082559 
L 190.245992 347.970986 
L 195.147358 347.970986 
L 196.54322 347.415199 
L 198.180012 347.415199 
L 198.549124 346.859412 
L 198.662002 346.303626 
L 199.002733 345.747839 
L 204.639215 345.747839 
L 205.671196 345.192052 
L 206.32653 344.636266 
L 222.354526 344.636266 
L 225.952424 344.080479 
L 225.99541 343.524692 
L 228.444306 343.524692 
L 230.537426 342.968906 
L 234.236989 342.968906 
L 234.549597 342.413119 
L 240.850114 342.413119 
L 245.782191 341.857332 
L 245.829528 341.301546 
L 246.474322 341.301546 
L 247.780716 340.745759 
L 247.853585 339.078399 
L 247.911073 338.522612 
L 250.639898 337.966826 
L 250.803297 337.411039 
L 250.868424 336.299466 
L 251.115569 335.743679 
L 259.995442 335.743679 
L 262.518062 335.187892 
L 264.123884 334.632106 
L 265.381879 334.632106 
L 268.298652 334.076319 
L 268.517986 331.853172 
L 268.695861 331.853172 
L 269.115236 330.741599 
L 274.647748 330.185812 
L 274.823837 329.630026 
L 274.875783 329.074239 
L 276.044621 329.074239 
L 277.148357 328.518452 
L 277.289591 327.406879 
L 277.361372 326.851092 
L 278.091958 326.295306 
L 278.145587 325.739519 
L 279.478575 325.183732 
L 281.230757 324.627946 
L 281.355366 324.072159 
L 281.358007 323.516372 
L 281.710442 322.960586 
L 281.772695 322.404799 
L 284.3144 321.849012 
L 284.770054 321.293226 
L 295.470188 321.293226 
L 297.24464 320.737439 
L 297.406123 320.181652 
L 304.658164 320.181652 
L 304.934467 319.070079 
L 307.956013 319.070079 
L 308.868254 318.514292 
L 308.91282 317.402719 
L 309.147069 316.846932 
L 310.698174 316.291146 
L 310.733106 315.735359 
L 310.92033 315.179572 
L 311.112188 312.956426 
L 311.325902 312.956426 
L 311.333775 312.400639 
L 312.628671 311.844852 
L 313.137747 311.289066 
L 313.260931 310.733279 
L 315.593894 310.177492 
L 317.313189 310.177492 
L 317.910206 309.621706 
L 324.374329 309.621706 
L 326.515848 309.065919 
L 326.524367 308.510132 
L 326.909509 307.954346 
L 331.952159 307.954346 
L 333.367028 307.398559 
L 333.949881 306.842772 
L 334.105408 305.731199 
L 338.18439 305.731199 
L 338.462298 305.175412 
L 340.702193 305.175412 
L 341.774545 304.619626 
L 344.829703 304.619626 
L 346.676687 304.063839 
L 350.512279 304.063839 
L 350.983703 303.508052 
L 352.881391 303.508052 
L 353.397925 302.952266 
L 353.621998 302.396479 
L 353.732364 301.840692 
L 355.294448 301.840692 
L 355.338859 300.729119 
L 355.909126 300.729119 
L 356.283546 299.061759 
L 357.642352 299.061759 
L 357.811112 298.505972 
L 357.942117 298.505972 
L 358.592504 297.950186 
L 359.671796 297.950186 
L 359.709681 297.394399 
L 360.494257 297.394399 
L 360.684821 296.838612 
L 361.422243 296.838612 
L 362.551305 295.727039 
L 363.041116 295.727039 
L 364.935489 294.615466 
L 364.938337 294.059679 
L 365.300018 293.503892 
L 366.222824 292.948106 
L 366.36631 292.392319 
L 367.286371 291.836532 
L 368.790372 291.836532 
L 369.291343 290.724959 
L 371.125614 290.724959 
L 371.177689 290.169172 
L 371.700257 290.169172 
L 371.740369 289.613386 
L 372.027134 289.057599 
L 373.024933 289.057599 
L 373.100832 288.501812 
L 373.271767 288.501812 
L 373.385474 287.390239 
L 374.788587 287.390239 
L 375.066444 286.834452 
L 375.29976 286.834452 
L 375.439207 286.278666 
L 375.79532 286.278666 
L 376.061938 285.722879 
L 376.118157 285.167092 
L 376.194367 285.167092 
L 377.534632 284.611306 
L 378.537584 284.611306 
L 378.613509 284.055519 
L 382.569902 284.055519 
L 382.588883 283.499732 
L 382.811505 283.499732 
L 383.335368 282.388159 
L 384.671593 282.388159 
L 384.795503 280.720799 
L 384.831652 279.609226 
L 385.065202 279.053439 
L 386.004918 279.053439 
L 386.448117 278.497652 
L 386.877695 278.497652 
L 387.016209 277.941866 
L 387.682107 277.386079 
L 388.298261 277.386079 
L 389.536964 276.830292 
L 389.619363 276.274506 
L 389.932956 276.274506 
L 389.9957 275.718719 
L 391.096848 275.718719 
L 391.12743 275.162932 
L 396.467592 275.162932 
L 396.587125 274.607146 
L 396.708963 274.607146 
L 396.779398 273.495572 
L 397.467023 273.495572 
L 397.613357 272.939786 
L 398.089624 272.383999 
L 398.209338 271.828212 
L 398.428076 271.828212 
L 398.613176 271.272426 
L 398.673512 270.716639 
L 401.356813 270.716639 
L 402.034105 270.160852 
L 402.167881 269.049279 
L 402.33273 268.493492 
L 402.60792 268.493492 
L 402.775644 267.937706 
L 406.626488 267.937706 
L 406.880702 266.270346 
L 407.40687 266.270346 
L 407.484116 265.714559 
L 409.540179 265.714559 
L 409.589976 264.602986 
L 412.059407 264.602986 
L 412.084992 264.047199 
L 413.274572 264.047199 
L 413.282573 263.491412 
L 413.861852 263.491412 
L 413.957924 262.935626 
L 415.640913 262.935626 
L 415.840359 262.379839 
L 415.997052 261.824052 
L 416.315124 261.824052 
L 416.323385 261.268266 
L 416.525576 261.268266 
L 416.911287 260.712479 
L 420.026703 260.712479 
L 420.253132 260.156692 
L 421.177517 260.156692 
L 421.179227 259.600906 
L 428.246737 259.600906 
L 429.446287 259.045119 
L 429.481064 258.489332 
L 430.088336 257.933546 
L 431.011737 257.933546 
L 431.298943 256.266186 
L 433.766276 256.266186 
L 434.209138 255.710399 
L 438.451131 255.710399 
L 438.464182 255.154612 
L 439.84966 255.154612 
L 440.441757 254.598826 
L 446.962824 254.598826 
L 447.044213 253.487252 
L 449.608836 253.487252 
L 450.118948 252.931466 
L 450.66521 252.931466 
L 451.332999 252.375679 
L 455.747092 252.375679 
L 456.169782 251.819892 
L 456.536045 251.819892 
L 456.715629 251.264106 
L 458.121798 250.708319 
L 458.810148 250.708319 
L 459.107659 250.152532 
L 461.083188 249.596746 
L 464.720525 249.596746 
L 465.005167 249.040959 
L 479.044297 249.040959 
L 479.557258 248.485172 
L 482.803834 248.485172 
L 482.921166 247.929386 
L 483.132057 247.929386 
L 483.19563 247.373599 
L 501.326379 247.373599 
L 501.90804 246.817812 
L 506.237041 246.817812 
L 507.17743 246.262026 
L 507.24046 245.706239 
L 509.49281 245.706239 
L 509.586266 245.150452 
L 516.881863 245.150452 
L 516.896805 244.594666 
L 523.055492 244.594666 
L 523.121784 244.038879 
L 523.52179 243.483092 
L 525.033093 243.483092 
L 525.036563 242.927306 
L 525.468239 242.371519 
L 527.612813 242.371519 
L 528.362483 241.815732 
L 533.201078 241.815732 
L 533.235156 240.704159 
L 563.906032 240.704159 
L 566.067982 240.148372 
L 568.787977 240.148372 
L 568.878351 239.592586 
L 580.937369 239.592586 
L 580.957619 239.036799 
L 593.550806 239.036799 
L 593.680619 238.481012 
L 594.429849 238.481012 
L 594.449374 237.925226 
L 594.618704 237.369439 
L 595.277403 236.257866 
L 595.374226 235.146292 
L 595.430186 234.034719 
L 595.598894 233.478932 
L 595.785807 232.367359 
L 596.73689 232.367359 
L 596.860696 231.255786 
L 597.217353 230.699999 
L 603.057346 230.699999 
L 603.68681 229.588426 
L 622.107069 229.588426 
L 622.264798 229.032639 
L 633.46756 229.032639 
L 633.733842 227.921066 
L 634.939555 227.921066 
L 635.101064 227.365279 
L 642.264568 227.365279 
L 642.443583 226.809492 
L 645.259286 226.809492 
L 646.011287 226.253706 
L 646.082007 225.697919 
L 650.30665 225.697919 
L 650.43825 224.586346 
L 650.983269 224.030559 
L 651.493071 224.030559 
L 652.434936 223.474772 
L 655.142552 223.474772 
L 655.183829 222.918986 
L 655.503145 222.363199 
L 657.712457 222.363199 
L 660.053628 221.807412 
L 671.624467 221.807412 
L 672.992155 221.251626 
L 673.498513 220.695839 
L 673.80299 219.584266 
L 675.431237 219.584266 
L 682.065441 218.472692 
L 683.730123 218.472692 
L 683.913513 217.361119 
L 684.138725 217.361119 
L 684.252975 216.805332 
L 693.576203 216.805332 
L 693.587131 216.249546 
L 709.166619 216.249546 
L 711.237366 215.693759 
L 711.361275 214.582186 
L 711.439841 214.582186 
L 711.527393 213.470612 
L 711.649852 213.470612 
L 711.666477 212.914826 
L 713.066535 212.914826 
L 713.20567 212.359039 
L 713.284496 211.803252 
L 713.590009 211.247466 
L 713.815169 211.247466 
L 714.270202 210.691679 
L 724.350375 210.691679 
L 724.37886 210.135892 
L 728.91852 210.135892 
L 728.989292 209.580106 
L 729.061643 209.580106 
L 729.744944 209.024319 
L 732.118096 209.024319 
L 733.677901 208.468532 
L 740.670704 208.468532 
L 740.679198 207.356959 
L 742.66045 207.356959 
L 742.719413 206.801172 
L 743.401911 206.245386 
L 743.456058 205.689599 
L 744.356827 205.689599 
L 744.387358 205.133812 
L 746.866137 205.133812 
L 746.975519 204.022239 
L 749.044997 204.022239 
L 749.078117 202.354879 
L 749.192885 201.799092 
L 749.479158 201.799092 
L 749.533331 201.243306 
L 751.117737 201.243306 
L 751.12838 200.687519 
L 751.554436 200.687519 
L 753.377001 194.573866 
L 754.62078 194.573866 
L 754.637612 194.018079 
L 760.925388 194.018079 
L 761.173854 192.350719 
L 766.129833 192.350719 
L 766.94551 191.239146 
L 767.133951 185.681279 
L 767.263168 185.125492 
L 775.604574 185.125492 
L 776.201824 182.902346 
L 776.204051 179.567626 
L 798.971645 179.567626 
L 799.236761 179.011839 
L 812.012614 179.011839 
L 812.012614 179.011839 
" clip-path="url(#pff5082b7d9)" style="fill: none; stroke: #0969da; stroke-width: 2; stroke-linecap: square"/>
   </g>
   <g id="line2d_31">
    <path d="M 85.239886 455.237812 
L 87.390028 455.237812 
L 87.398263 454.126239 
L 89.173336 454.126239 
L 89.578754 453.570452 
L 199.002733 453.570452 
L 200.201402 453.014666 
L 230.537426 453.014666 
L 231.379309 452.458879 
L 259.995442 452.458879 
L 262.518062 451.903092 
L 269.115236 451.903092 
L 274.875783 450.235732 
L 276.044621 449.124159 
L 278.145587 449.124159 
L 279.478575 448.568372 
L 281.358007 448.012586 
L 281.772695 448.012586 
L 284.3144 447.456799 
L 284.770054 446.901012 
L 286.810607 446.345226 
L 290.799421 445.789439 
L 290.822493 446.345226 
L 297.406123 446.345226 
L 297.868355 445.789439 
L 307.26396 445.789439 
L 307.956013 445.233652 
L 311.112188 445.233652 
L 311.333775 444.677866 
L 315.253862 444.677866 
L 315.593894 444.122079 
L 329.954541 444.122079 
L 331.2997 443.566292 
L 331.865047 443.566292 
L 331.952159 443.010506 
L 335.784902 443.010506 
L 335.788553 442.454719 
L 344.815434 442.454719 
L 344.829703 441.898932 
L 347.459814 441.898932 
L 348.130348 441.343146 
L 349.118203 440.787359 
L 349.119938 440.231572 
L 349.275414 440.231572 
L 350.512279 438.564212 
L 351.345487 438.564212 
L 351.393445 436.896852 
L 351.715402 436.896852 
L 352.881391 437.452639 
L 353.719934 437.452639 
L 353.732364 435.229492 
L 356.85459 435.229492 
L 357.318609 434.673706 
L 357.811112 434.673706 
L 357.942117 434.117919 
L 369.141047 434.117919 
L 369.291343 433.562132 
L 369.855525 433.562132 
L 370.731435 433.006346 
L 374.595822 433.006346 
L 374.788587 432.450559 
L 376.118157 432.450559 
L 376.194367 431.894772 
L 380.597661 431.894772 
L 380.686301 431.338986 
L 381.002639 431.338986 
L 381.323482 430.783199 
L 381.644014 430.783199 
L 381.663021 430.227412 
L 383.025997 430.227412 
L 383.107386 429.671626 
L 389.434885 429.671626 
L 389.554418 429.115839 
L 389.719863 428.560052 
L 389.9957 428.560052 
L 390.784628 428.004266 
L 393.868995 428.004266 
L 393.871714 427.448479 
L 394.461066 427.448479 
L 394.483492 426.892692 
L 396.156408 426.892692 
L 396.566279 426.336906 
L 398.737215 426.336906 
L 399.383821 425.781119 
L 400.641325 425.781119 
L 400.752597 424.669546 
L 400.756637 424.669546 
L 400.884974 424.113759 
L 402.907892 424.113759 
L 403.220034 423.557972 
L 403.705235 423.557972 
L 403.887745 423.002186 
L 405.072043 423.002186 
L 405.23741 422.446399 
L 405.239534 421.890612 
L 405.572858 421.890612 
L 405.712823 421.334826 
L 418.470212 421.334826 
L 418.497298 420.223252 
L 420.253132 420.223252 
L 420.758479 419.667466 
L 421.179227 419.667466 
L 423.152995 419.111679 
L 423.519336 419.111679 
L 424.304276 418.555892 
L 424.829718 418.555892 
L 425.256007 418.000106 
L 425.687242 418.555892 
L 427.075465 418.555892 
L 427.452967 418.000106 
L 427.53938 416.888532 
L 428.241998 416.332746 
L 428.246737 415.221172 
L 431.313884 415.221172 
L 431.984651 414.665386 
L 432.052626 412.998026 
L 432.723057 412.442239 
L 433.093826 411.886452 
L 436.264917 411.886452 
L 436.399469 410.219092 
L 436.561212 410.219092 
L 436.681133 409.663306 
L 437.456128 409.107519 
L 438.676032 409.107519 
L 438.927346 408.551732 
L 438.984523 407.995946 
L 439.112757 407.995946 
L 439.84966 406.884372 
L 440.639183 406.884372 
L 440.898421 406.328586 
L 441.80916 406.328586 
L 441.812164 405.217012 
L 442.436061 405.217012 
L 443.264323 404.661226 
L 445.458668 403.549652 
L 445.753072 402.993866 
L 450.118948 402.993866 
L 450.66521 401.882292 
L 459.005865 401.882292 
L 459.107659 400.770719 
L 463.1674 400.770719 
L 463.787697 400.214932 
L 465.670055 400.214932 
L 465.775708 399.659146 
L 477.35618 399.659146 
L 477.541021 399.103359 
L 478.688081 399.103359 
L 479.044297 398.547572 
L 481.185065 398.547572 
L 481.587685 397.991786 
L 481.590327 397.435999 
L 482.050797 396.880212 
L 483.455257 396.880212 
L 483.562515 396.324426 
L 483.570206 395.212852 
L 483.577845 395.768639 
L 484.521627 395.212852 
L 487.927692 395.212852 
L 488.599547 394.101279 
L 494.745157 394.101279 
L 495.220311 393.545492 
L 496.711183 393.545492 
L 496.830535 392.989706 
L 496.846952 392.433919 
L 501.90804 392.433919 
L 505.051009 391.322346 
L 505.797002 391.322346 
L 506.237041 390.766559 
L 512.747336 390.766559 
L 513.547554 390.210772 
L 514.539112 390.210772 
L 515.499441 389.654986 
L 523.52179 389.654986 
L 523.741952 389.099199 
L 523.743143 388.543412 
L 528.234534 388.543412 
L 528.452313 387.987626 
L 548.405343 387.987626 
L 550.966444 387.431839 
L 556.845384 387.431839 
L 558.131398 386.876052 
L 559.262921 386.876052 
L 559.581874 386.320266 
L 562.111978 386.320266 
L 562.557067 385.764479 
L 563.144088 385.764479 
L 563.906032 385.208692 
L 565.732405 385.208692 
L 566.067982 384.652906 
L 566.29278 384.652906 
L 567.111176 384.097119 
L 575.017825 384.097119 
L 575.039939 382.429759 
L 581.938923 382.429759 
L 584.864449 381.873972 
L 584.866831 381.318186 
L 588.297341 381.318186 
L 588.441345 380.762399 
L 588.551763 380.206612 
L 590.048125 380.206612 
L 590.747014 379.650826 
L 591.246976 379.650826 
L 592.018605 379.095039 
L 592.84666 379.095039 
L 592.989758 377.983466 
L 593.680619 377.983466 
L 593.818305 377.427679 
L 595.37288 377.427679 
L 595.430186 376.871892 
L 597.880506 376.871892 
L 599.655657 376.316106 
L 600.237914 376.316106 
L 600.809502 375.760319 
L 601.990251 375.204532 
L 601.995301 374.648746 
L 602.320909 372.981386 
L 602.618446 372.425599 
L 603.057346 371.869812 
L 604.233564 371.869812 
L 604.946877 370.202452 
L 606.652396 370.202452 
L 607.114187 368.535092 
L 608.990874 368.535092 
L 609.189595 367.979306 
L 610.549799 367.979306 
L 610.845395 366.867732 
L 611.357578 366.311946 
L 613.119186 366.311946 
L 616.172065 365.200372 
L 618.129416 364.644586 
L 618.262389 364.088799 
L 620.113776 364.088799 
L 620.232221 363.533012 
L 622.264798 363.533012 
L 622.274146 362.977226 
L 622.65517 362.977226 
L 622.738682 362.421439 
L 628.513523 362.421439 
L 628.646988 361.865652 
L 630.466524 361.309866 
L 633.458989 361.309866 
L 633.46756 360.754079 
L 644.446043 360.754079 
L 645.259286 358.530932 
L 649.764609 358.530932 
L 649.771264 357.419359 
L 655.503145 357.419359 
L 656.551802 355.751999 
L 656.554029 355.196212 
L 660.605769 355.196212 
L 661.969029 354.084639 
L 662.030038 353.528852 
L 687.502219 353.528852 
L 688.51786 352.973066 
L 691.195075 352.973066 
L 691.474278 351.861492 
L 718.516985 351.861492 
L 719.018759 349.638346 
L 740.679198 349.638346 
L 742.133324 349.082559 
L 751.553063 349.082559 
L 751.554436 344.636266 
L 767.263168 344.636266 
L 767.423201 344.080479 
L 782.966799 344.080479 
L 794.426884 343.524692 
L 795.953854 342.968906 
L 799.563379 342.968906 
L 800.752545 342.413119 
L 801.207396 341.857332 
L 812.012614 341.857332 
L 812.012614 341.857332 
" clip-path="url(#pff5082b7d9)" style="fill: none; stroke: #bf8700; stroke-width: 2; stroke-linecap: square"/>
   </g>
   <g id="line2d_32">
    <path d="M 85.239886 454.682026 
L 85.423795 454.682026 
L 85.505236 432.450559 
L 85.930852 426.892692 
L 86.174061 425.781119 
L 86.297452 426.336906 
L 86.522638 425.781119 
L 86.90348 425.225332 
L 87.398263 423.002186 
L 87.611718 421.334826 
L 87.89232 421.334826 
L 88.274121 420.779039 
L 88.276943 420.223252 
L 88.584347 419.667466 
L 88.669102 419.111679 
L 88.714963 419.111679 
L 89.500834 418.000106 
L 89.578754 411.886452 
L 89.632642 412.442239 
L 89.895298 404.661226 
L 89.986993 402.993866 
L 91.837837 402.993866 
L 92.008953 399.659146 
L 92.053985 402.438079 
L 92.262624 397.991786 
L 92.365946 397.435999 
L 93.135737 396.880212 
L 93.268917 395.768639 
L 93.482216 395.768639 
L 93.878648 395.212852 
L 94.09042 394.657066 
L 94.447413 391.878132 
L 94.646393 392.433919 
L 94.71833 390.766559 
L 96.562959 390.766559 
L 99.402952 402.993866 
L 99.825512 390.210772 
L 100.134055 389.654986 
L 101.237041 389.654986 
L 101.438792 389.099199 
L 101.870544 388.543412 
L 102.793713 402.993866 
L 102.853609 387.987626 
L 103.562002 387.431839 
L 105.076905 386.876052 
L 105.18494 387.431839 
L 105.40562 385.764479 
L 105.891909 385.764479 
L 106.039668 385.208692 
L 106.318742 384.652906 
L 106.341892 383.541332 
L 106.599318 382.429759 
L 106.614233 382.985546 
L 106.767353 382.985546 
L 107.143715 378.539252 
L 107.475279 376.871892 
L 107.637332 377.983466 
L 108.783149 374.648746 
L 109.084856 375.760319 
L 110.326485 373.537172 
L 111.31012 377.427679 
L 111.65533 373.537172 
L 113.073074 371.869812 
L 115.163604 371.869812 
L 115.439701 371.314026 
L 115.659422 369.646666 
L 116.276845 371.314026 
L 118.795322 371.869812 
L 119.420073 369.646666 
L 119.722893 367.979306 
L 120.24054 369.646666 
L 121.410984 367.979306 
L 125.386332 367.979306 
L 129.566435 367.423519 
L 129.845198 366.867732 
L 132.484218 366.311946 
L 134.229253 366.311946 
L 134.554084 365.756159 
L 134.624752 366.311946 
L 136.481189 364.644586 
L 138.222469 364.644586 
L 138.262892 364.088799 
L 139.210816 363.533012 
L 141.497556 363.533012 
L 142.506283 359.642506 
L 143.257066 359.086719 
L 144.223143 358.530932 
L 144.241892 357.975146 
L 147.862707 357.975146 
L 147.93265 354.084639 
L 148.066659 354.084639 
L 148.185026 352.973066 
L 149.518118 352.973066 
L 149.921127 352.417279 
L 151.880317 352.417279 
L 154.601761 351.861492 
L 154.737867 363.533012 
L 154.744548 352.417279 
L 154.918849 351.861492 
L 155.888759 351.861492 
L 157.360598 351.305706 
L 158.843831 351.305706 
L 160.022043 350.749919 
L 163.269811 349.638346 
L 165.141344 349.638346 
L 166.645449 349.082559 
L 166.879491 346.303626 
L 167.037893 346.303626 
L 167.318184 345.747839 
L 168.780209 345.192052 
L 169.118169 342.968906 
L 171.138808 341.857332 
L 171.163149 342.413119 
L 171.353532 341.857332 
L 173.944878 340.745759 
L 175.889048 340.189972 
L 176.81794 340.189972 
L 177.641256 339.634186 
L 178.35475 338.522612 
L 179.111515 337.966826 
L 179.385255 337.411039 
L 181.170661 337.966826 
L 182.820893 336.855252 
L 183.012415 337.411039 
L 183.451004 337.411039 
L 183.539022 336.855252 
L 184.714593 336.299466 
L 185.456805 336.855252 
L 186.817631 335.743679 
L 187.705789 335.743679 
L 189.600499 335.187892 
L 189.914687 335.743679 
L 190.245992 334.076319 
L 191.395615 334.076319 
L 191.62308 333.520532 
L 192.613007 331.297386 
L 192.892703 330.185812 
L 193.619015 330.741599 
L 193.938978 329.630026 
L 193.970984 329.074239 
L 196.54322 329.074239 
L 197.845988 328.518452 
L 198.180012 327.962666 
L 200.201402 327.962666 
L 201.623729 327.406879 
L 204.039531 327.406879 
L 204.639215 326.851092 
L 211.28225 326.851092 
L 211.663766 326.295306 
L 211.701987 325.739519 
L 211.960319 325.183732 
L 214.843454 325.183732 
L 215.023142 324.627946 
L 215.756679 324.072159 
L 215.883721 323.516372 
L 217.099041 322.960586 
L 217.982978 322.404799 
L 221.524502 322.404799 
L 222.354526 321.293226 
L 225.99541 321.293226 
L 226.806245 320.737439 
L 230.199414 320.737439 
L 230.537426 320.181652 
L 231.379309 319.625866 
L 231.629924 319.070079 
L 231.715016 318.514292 
L 234.236989 317.958506 
L 234.549597 318.514292 
L 237.869613 317.402719 
L 240.494597 316.291146 
L 240.850114 315.735359 
L 245.829528 315.735359 
L 246.474322 315.179572 
L 251.115569 315.179572 
L 255.48753 314.623786 
L 256.037444 314.067999 
L 257.872258 313.512212 
L 259.712251 312.956426 
L 259.995442 312.400639 
L 264.123884 312.400639 
L 265.381879 311.844852 
L 274.875783 311.844852 
L 276.044621 311.289066 
L 283.886842 311.289066 
L 284.3144 310.733279 
L 284.770054 311.289066 
L 286.810607 310.733279 
L 293.677894 310.733279 
L 294.598163 310.177492 
L 309.125628 310.177492 
L 309.147069 309.621706 
L 318.119233 309.621706 
L 320.090464 309.065919 
L 320.095513 308.510132 
L 329.950165 308.510132 
L 329.954541 307.398559 
L 335.788553 307.398559 
L 338.462298 306.842772 
L 341.774545 306.842772 
L 344.829703 305.731199 
L 350.983703 305.731199 
L 351.345487 305.175412 
L 351.393445 304.619626 
L 353.719934 304.619626 
L 353.732364 304.063839 
L 353.973941 304.063839 
L 354.359031 303.508052 
L 357.811112 303.508052 
L 357.942117 302.952266 
L 362.551305 302.952266 
L 362.740108 302.396479 
L 373.9965 302.396479 
L 374.594967 300.729119 
L 374.595822 300.173332 
L 376.19056 300.173332 
L 376.194367 299.617546 
L 380.89828 299.617546 
L 381.002639 299.061759 
L 383.254471 299.061759 
L 383.335368 298.505972 
L 391.700805 298.505972 
L 391.971359 297.950186 
L 393.803402 297.950186 
L 393.871714 297.394399 
L 394.483492 296.838612 
L 409.84344 296.838612 
L 410.64345 295.727039 
L 411.840954 295.727039 
L 412.084992 295.171252 
L 413.282573 295.171252 
L 413.46006 294.615466 
L 416.289566 294.615466 
L 416.323385 294.059679 
L 431.98333 294.059679 
L 432.052626 292.948106 
L 451.626937 292.948106 
L 452.135314 292.392319 
L 485.556249 292.392319 
L 487.126465 291.836532 
L 501.250402 291.836532 
L 501.326379 291.280746 
L 507.649632 291.280746 
L 507.956984 290.724959 
L 633.106139 290.724959 
L 633.46756 290.169172 
L 649.357482 290.169172 
L 649.771264 289.613386 
L 655.503145 289.613386 
L 656.541677 289.057599 
L 656.554029 285.167092 
L 661.965999 285.167092 
L 662.030038 282.388159 
L 729.744944 282.388159 
L 730.182497 281.832372 
L 762.491046 281.832372 
L 766.129833 281.276586 
L 779.209671 281.276586 
L 779.214876 280.720799 
L 800.752545 280.720799 
L 801.207396 279.053439 
L 812.012614 279.053439 
L 812.012614 279.053439 
" clip-path="url(#pff5082b7d9)" style="fill: none; stroke: #cf222e; stroke-width: 2; stroke-linecap: square"/>
   </g>
   <g id="line2d_33">
    <path d="M 85.239886 454.682026 
L 85.254517 454.126239 
L 85.36987 -1 
M 85.473549 -1 
L 85.587687 101.201706 
L 87.390028 101.201706 
L 87.398263 97.866986 
L 89.578754 97.866986 
L 89.734592 98.422772 
L 89.986993 98.422772 
L 90.232326 98.978559 
L 91.752512 99.534346 
L 91.782524 98.978559 
L 91.855394 99.534346 
L 96.562959 99.534346 
L 99.402952 98.422772 
L 99.825512 99.534346 
L 100.134055 98.978559 
L 100.911692 99.534346 
L 101.237041 96.755412 
L 101.870544 96.755412 
L 102.793713 98.422772 
L 102.853609 95.643839 
L 103.562002 96.199626 
L 105.40562 96.199626 
L 105.891909 95.088052 
L 106.614233 95.088052 
L 106.851305 91.197546 
L 111.31012 91.197546 
L 111.65533 86.751252 
L 113.073074 86.751252 
L 115.163604 82.860746 
L 116.260246 82.860746 
L 116.276845 83.416532 
L 118.795322 83.416532 
L 119.420073 80.081812 
L 121.397259 80.081812 
L 121.410984 80.637599 
L 132.484218 80.637599 
L 134.554084 81.193386 
L 134.624752 80.637599 
L 136.771476 81.193386 
L 144.241892 81.193386 
L 147.862707 81.749172 
L 147.93265 74.523946 
L 148.104647 75.079732 
L 150.147271 75.079732 
L 151.016629 75.635519 
L 154.601761 75.635519 
L 154.737867 80.637599 
L 154.744548 71.745012 
L 154.918849 71.745012 
L 155.888759 73.968159 
L 160.022043 73.968159 
L 163.269811 70.077652 
L 166.879491 70.077652 
L 167.037893 68.410292 
L 176.417624 68.410292 
L 176.81794 68.966079 
L 179.09546 68.966079 
L 179.111515 70.077652 
L 183.451004 70.077652 
L 183.539022 73.412372 
L 190.245992 73.412372 
L 190.406181 68.410292 
L 191.393259 67.298719 
L 191.395615 67.854506 
L 191.62308 67.854506 
L 192.433501 65.075572 
L 193.619015 65.075572 
L 193.938978 65.631359 
L 193.970984 65.075572 
L 194.703667 65.631359 
L 194.707007 66.187146 
L 194.724124 65.631359 
L 195.147358 63.408212 
L 199.002733 63.408212 
L 200.201402 63.963999 
L 201.623729 63.963999 
L 204.039531 64.519786 
L 206.32653 64.519786 
L 208.093472 65.631359 
L 211.701987 65.075572 
L 211.960319 65.075572 
L 214.209691 66.187146 
L 214.843454 65.631359 
L 217.982978 65.631359 
L 221.522586 67.854506 
L 221.524502 67.298719 
L 226.806245 67.298719 
L 228.444306 67.854506 
L 257.636507 67.854506 
L 257.872258 68.410292 
L 259.699122 68.410292 
L 259.712251 66.742932 
L 268.517986 66.742932 
L 268.695861 67.298719 
L 286.810607 67.298719 
L 290.799421 67.854506 
L 290.822493 67.298719 
L 293.677894 68.966079 
L 294.598163 68.966079 
L 295.470188 68.410292 
L 297.868355 68.410292 
L 300.156493 68.966079 
L 300.160248 69.521866 
L 306.647988 67.854506 
L 307.26396 68.410292 
L 315.253862 68.410292 
L 315.593894 67.854506 
L 316.21678 68.410292 
L 316.430831 70.633439 
L 320.092354 70.633439 
L 320.095513 71.189226 
L 331.2997 71.189226 
L 331.952159 71.745012 
L 334.105408 71.745012 
L 334.315471 72.300799 
L 344.815434 72.300799 
L 344.829703 72.856586 
L 346.676687 72.856586 
L 347.455904 73.412372 
L 347.459814 73.968159 
L 348.097072 73.412372 
L 348.130348 73.968159 
L 349.119938 73.968159 
L 349.275414 74.523946 
L 351.345487 74.523946 
L 351.393445 73.412372 
L 351.715402 74.523946 
L 352.881391 72.856586 
L 355.700953 72.856586 
L 356.012267 71.189226 
L 356.85459 71.189226 
L 357.318609 72.300799 
L 359.709681 72.300799 
L 360.494257 72.856586 
L 360.684821 72.856586 
L 361.422243 70.077652 
L 362.740108 70.077652 
L 363.041116 70.633439 
L 369.141047 70.633439 
L 369.291343 71.189226 
L 369.855525 71.189226 
L 370.731435 71.745012 
L 380.597661 71.745012 
L 380.686301 72.300799 
L 381.002639 72.300799 
L 381.663021 73.412372 
L 382.588883 73.412372 
L 382.811505 72.856586 
L 383.025997 72.856586 
L 383.107386 73.412372 
L 385.583394 73.412372 
L 386.004918 73.968159 
L 388.160084 73.968159 
L 388.298261 74.523946 
L 389.478778 74.523946 
L 389.619363 75.079732 
L 393.223191 75.079732 
L 393.302069 75.635519 
L 395.441748 75.635519 
L 396.156408 77.858666 
L 396.948753 77.858666 
L 396.949582 78.414452 
L 400.166819 78.414452 
L 400.756637 78.970239 
L 403.220034 78.970239 
L 403.705235 79.526026 
L 405.572858 79.526026 
L 405.712823 80.081812 
L 408.750061 80.081812 
L 409.532955 80.637599 
L 409.589976 81.193386 
L 409.84344 81.193386 
L 410.64345 60.629279 
L 413.124508 60.629279 
L 413.142376 61.185066 
L 413.282573 61.185066 
L 413.46006 60.629279 
L 415.503616 60.629279 
L 415.728621 61.185066 
L 415.997052 61.185066 
L 416.267063 61.740852 
L 416.323385 61.185066 
L 417.423885 61.185066 
L 417.432482 61.740852 
L 417.67103 61.740852 
L 417.775492 62.296639 
L 418.497298 62.852426 
L 423.519336 62.852426 
L 424.304276 63.408212 
L 424.829718 63.408212 
L 425.256007 63.963999 
L 425.687242 63.408212 
L 427.462808 63.408212 
L 427.53938 64.519786 
L 430.088336 64.519786 
L 431.07733 66.187146 
L 441.812164 66.187146 
L 442.436061 66.742932 
L 459.005865 66.742932 
L 459.107659 67.298719 
L 483.455257 67.298719 
L 483.570206 68.410292 
L 483.577845 67.854506 
L 487.126465 67.854506 
L 487.927692 68.410292 
L 501.90804 68.410292 
L 505.051009 68.966079 
L 505.790813 69.521866 
L 505.797002 67.854506 
L 528.234534 67.854506 
L 528.452313 68.410292 
L 548.405343 68.410292 
L 550.966444 68.966079 
L 552.533034 68.966079 
L 552.703037 69.521866 
L 553.791884 70.077652 
L 556.845384 70.077652 
L 558.131398 70.633439 
L 559.477075 70.633439 
L 559.581874 71.189226 
L 561.795252 71.189226 
L 562.059643 71.745012 
L 562.111978 72.300799 
L 566.052704 72.300799 
L 566.067982 72.856586 
L 568.878351 72.856586 
L 569.423319 72.300799 
L 569.430725 72.856586 
L 570.567582 73.412372 
L 572.585812 73.412372 
L 574.038178 73.968159 
L 575.337943 73.968159 
L 577.253628 61.740852 
L 579.490156 61.740852 
L 579.500515 64.519786 
L 590.745849 64.519786 
L 590.747014 65.075572 
L 590.941514 65.631359 
L 592.018605 65.631359 
L 592.25288 66.187146 
L 595.785807 66.187146 
L 596.60252 66.742932 
L 596.73689 66.187146 
L 603.055922 66.187146 
L 603.057346 66.742932 
L 613.050849 66.742932 
L 613.119186 67.854506 
L 614.565855 69.521866 
L 616.017444 69.521866 
L 616.172065 70.077652 
L 622.274146 70.077652 
L 622.38635 70.633439 
L 628.513523 70.633439 
L 628.646988 71.189226 
L 630.335675 72.856586 
L 630.466524 73.412372 
L 647.101869 73.412372 
L 648.676849 76.191306 
L 652.434936 76.191306 
L 652.679724 76.747092 
L 655.503145 76.747092 
L 656.554029 77.858666 
L 671.435794 77.858666 
L 671.624467 78.414452 
L 673.80299 78.414452 
L 674.036359 78.970239 
L 688.387477 78.970239 
L 688.394831 80.637599 
L 688.840567 80.637599 
L 689.018157 81.193386 
L 691.474278 81.193386 
L 691.834431 81.749172 
L 691.83658 81.193386 
L 698.319115 81.193386 
L 699.88296 81.749172 
L 729.058769 81.749172 
L 729.061643 82.304959 
L 740.679198 82.304959 
L 742.133324 82.860746 
L 767.263168 82.860746 
L 767.423201 83.972319 
L 774.094073 83.972319 
L 775.604574 85.083892 
L 782.966799 85.083892 
L 794.426884 85.639679 
L 795.953854 86.195466 
L 798.187948 87.307039 
L 799.563379 87.307039 
L 800.752545 87.862826 
L 801.207396 87.862826 
L 804.714816 88.418612 
L 812.012614 88.418612 
L 812.012614 88.418612 
" clip-path="url(#pff5082b7d9)" style="fill: none; stroke: #9467bd; stroke-width: 2; stroke-linecap: square"/>
   </g>
   <g id="patch_3">
    <path d="M 48.90125 455.237812 
L 48.90125 38.397812 
" style="fill: none; stroke: #d0d7de; stroke-width: 0.8; stroke-linejoin: miter; stroke-linecap: square"/>
   </g>
   <g id="patch_4">
    <path d="M 848.35125 455.237812 
L 848.35125 38.397812 
" style="fill: none; stroke: #d0d7de; stroke-width: 0.8; stroke-linejoin: miter; stroke-linecap: square"/>
   </g>
   <g id="patch_5">
    <path d="M 48.90125 455.237812 
L 848.35125 455.237812 
" style="fill: none; stroke: #d0d7de; stroke-width: 0.8; stroke-linejoin: miter; stroke-linecap: square"/>
   </g>
   <g id="patch_6">
    <path d="M 48.90125 38.397812 
L 848.35125 38.397812 
" style="fill: none; stroke: #d0d7de; stroke-width: 0.8; stroke-linejoin: miter; stroke-linecap: square"/>
   </g>
   <g id="text_17">
    <!-- 557 -->
    <g style="fill: #1a7f37" transform="translate(817.012614 148.148077) scale(0.09 -0.09)">
     <defs>
      <path id="DejaVuSans-Bold-35" d="M 678 4666 
L 3669 4666 
L 3669 3781 
L 1638 3781 
L 1638 3059 
Q 1775 3097 1914 3117 
Q 2053 3138 2203 3138 
Q 3056 3138 3531 2711 
Q 4006 2284 4006 1522 
Q 4006 766 3489 337 
Q 2972 -91 2053 -91 
Q 1656 -91 1267 -14 
Q 878 63 494 219 
L 494 1166 
Q 875 947 1217 837 
Q 1559 728 1863 728 
Q 2300 728 2551 942 
Q 2803 1156 2803 1522 
Q 2803 1891 2551 2103 
Q 2300 2316 1863 2316 
Q 1603 2316 1309 2248 
Q 1016 2181 678 2041 
L 678 4666 
z
" transform="scale(0.015625)"/>
      <path id="DejaVuSans-Bold-37" d="M 428 4666 
L 3944 4666 
L 3944 3988 
L 2125 0 
L 953 0 
L 2675 3781 
L 428 3781 
L 428 4666 
z
" transform="scale(0.015625)"/>
     </defs>
     <use xlink:href="#DejaVuSans-Bold-35"/>
     <use xlink:href="#DejaVuSans-Bold-35" transform="translate(69.580078 0)"/>
     <use xlink:href="#DejaVuSans-Bold-37" transform="translate(139.160156 0)"/>
    </g>
   </g>
   <g id="text_18">
    <!-- 497 -->
    <g style="fill: #0969da" transform="translate(817.012614 181.495277) scale(0.09 -0.09)">
     <defs>
      <path id="DejaVuSans-Bold-34" d="M 2356 3675 
L 1038 1722 
L 2356 1722 
L 2356 3675 
z
M 2156 4666 
L 3494 4666 
L 3494 1722 
L 4159 1722 
L 4159 850 
L 3494 850 
L 3494 0 
L 2356 0 
L 2356 850 
L 288 850 
L 288 1881 
L 2156 4666 
z
" transform="scale(0.015625)"/>
      <path id="DejaVuSans-Bold-39" d="M 641 103 
L 641 966 
Q 928 831 1190 764 
Q 1453 697 1709 697 
Q 2247 697 2547 995 
Q 2847 1294 2900 1881 
Q 2688 1725 2447 1647 
Q 2206 1569 1925 1569 
Q 1209 1569 770 1986 
Q 331 2403 331 3084 
Q 331 3838 820 4291 
Q 1309 4744 2131 4744 
Q 3044 4744 3544 4128 
Q 4044 3513 4044 2388 
Q 4044 1231 3459 570 
Q 2875 -91 1856 -91 
Q 1528 -91 1228 -42 
Q 928 6 641 103 
z
M 2125 2350 
Q 2441 2350 2600 2554 
Q 2759 2759 2759 3169 
Q 2759 3575 2600 3781 
Q 2441 3988 2125 3988 
Q 1809 3988 1650 3781 
Q 1491 3575 1491 3169 
Q 1491 2759 1650 2554 
Q 1809 2350 2125 2350 
z
" transform="scale(0.015625)"/>
     </defs>
     <use xlink:href="#DejaVuSans-Bold-34"/>
     <use xlink:href="#DejaVuSans-Bold-39" transform="translate(69.580078 0)"/>
     <use xlink:href="#DejaVuSans-Bold-37" transform="translate(139.160156 0)"/>
    </g>
   </g>
   <g id="text_19">
    <!-- 204 -->
    <g style="fill: #bf8700" transform="translate(817.012614 344.34077) scale(0.09 -0.09)">
     <defs>
      <path id="DejaVuSans-Bold-32" d="M 1844 884 
L 3897 884 
L 3897 0 
L 506 0 
L 506 884 
L 2209 2388 
Q 2438 2594 2547 2791 
Q 2656 2988 2656 3200 
Q 2656 3528 2436 3728 
Q 2216 3928 1850 3928 
Q 1569 3928 1234 3808 
Q 900 3688 519 3450 
L 519 4475 
Q 925 4609 1322 4679 
Q 1719 4750 2100 4750 
Q 2938 4750 3402 4381 
Q 3866 4013 3866 3353 
Q 3866 2972 3669 2642 
Q 3472 2313 2841 1759 
L 1844 884 
z
" transform="scale(0.015625)"/>
      <path id="DejaVuSans-Bold-30" d="M 2944 2338 
Q 2944 3213 2780 3570 
Q 2616 3928 2228 3928 
Q 1841 3928 1675 3570 
Q 1509 3213 1509 2338 
Q 1509 1453 1675 1090 
Q 1841 728 2228 728 
Q 2613 728 2778 1090 
Q 2944 1453 2944 2338 
z
M 4147 2328 
Q 4147 1169 3647 539 
Q 3147 -91 2228 -91 
Q 1306 -91 806 539 
Q 306 1169 306 2328 
Q 306 3491 806 4120 
Q 1306 4750 2228 4750 
Q 3147 4750 3647 4120 
Q 4147 3491 4147 2328 
z
" transform="scale(0.015625)"/>
     </defs>
     <use xlink:href="#DejaVuSans-Bold-32"/>
     <use xlink:href="#DejaVuSans-Bold-30" transform="translate(69.580078 0)"/>
     <use xlink:href="#DejaVuSans-Bold-34" transform="translate(139.160156 0)"/>
    </g>
   </g>
   <g id="text_20">
    <!-- 317 -->
    <g style="fill: #cf222e" transform="translate(817.012614 281.536877) scale(0.09 -0.09)">
     <defs>
      <path id="DejaVuSans-Bold-33" d="M 2981 2516 
Q 3453 2394 3698 2092 
Q 3944 1791 3944 1325 
Q 3944 631 3412 270 
Q 2881 -91 1863 -91 
Q 1503 -91 1142 -33 
Q 781 25 428 141 
L 428 1069 
Q 766 900 1098 814 
Q 1431 728 1753 728 
Q 2231 728 2486 893 
Q 2741 1059 2741 1369 
Q 2741 1688 2480 1852 
Q 2219 2016 1709 2016 
L 1228 2016 
L 1228 2791 
L 1734 2791 
Q 2188 2791 2409 2933 
Q 2631 3075 2631 3366 
Q 2631 3634 2415 3781 
Q 2200 3928 1806 3928 
Q 1516 3928 1219 3862 
Q 922 3797 628 3669 
L 628 4550 
Q 984 4650 1334 4700 
Q 1684 4750 2022 4750 
Q 2931 4750 3382 4451 
Q 3834 4153 3834 3553 
Q 3834 3144 3618 2883 
Q 3403 2622 2981 2516 
z
" transform="scale(0.015625)"/>
      <path id="DejaVuSans-Bold-31" d="M 750 831 
L 1813 831 
L 1813 3847 
L 722 3622 
L 722 4441 
L 1806 4666 
L 2950 4666 
L 2950 831 
L 4013 831 
L 4013 0 
L 750 0 
L 750 831 
z
" transform="scale(0.015625)"/>
     </defs>
     <use xlink:href="#DejaVuSans-Bold-33"/>
     <use xlink:href="#DejaVuSans-Bold-31" transform="translate(69.580078 0)"/>
     <use xlink:href="#DejaVuSans-Bold-37" transform="translate(139.160156 0)"/>
    </g>
   </g>
   <g id="text_21">
    <!-- 660 -->
    <g style="fill: #9467bd" transform="translate(817.012614 90.90205) scale(0.09 -0.09)">
     <defs>
      <path id="DejaVuSans-Bold-36" d="M 2316 2303 
Q 2000 2303 1842 2098 
Q 1684 1894 1684 1484 
Q 1684 1075 1842 870 
Q 2000 666 2316 666 
Q 2634 666 2792 870 
Q 2950 1075 2950 1484 
Q 2950 1894 2792 2098 
Q 2634 2303 2316 2303 
z
M 3803 4544 
L 3803 3681 
Q 3506 3822 3243 3889 
Q 2981 3956 2731 3956 
Q 2194 3956 1894 3657 
Q 1594 3359 1544 2772 
Q 1750 2925 1990 3001 
Q 2231 3078 2516 3078 
Q 3231 3078 3670 2659 
Q 4109 2241 4109 1563 
Q 4109 813 3618 361 
Q 3128 -91 2303 -91 
Q 1394 -91 895 523 
Q 397 1138 397 2266 
Q 397 3422 980 4083 
Q 1563 4744 2578 4744 
Q 2900 4744 3203 4694 
Q 3506 4644 3803 4544 
z
" transform="scale(0.015625)"/>
     </defs>
     <use xlink:href="#DejaVuSans-Bold-36"/>
     <use xlink:href="#DejaVuSans-Bold-36" transform="translate(69.580078 0)"/>
     <use xlink:href="#DejaVuSans-Bold-30" transform="translate(139.160156 0)"/>
    </g>
   </g>
   <g id="text_22">
    <!-- Erdős Problems Progress -->
    <g style="fill: #24292f" transform="translate(349.588281 18.397812) scale(0.14 -0.14)">
     <defs>
      <path id="DejaVuSans-Bold-45" d="M 588 4666 
L 3834 4666 
L 3834 3756 
L 1791 3756 
L 1791 2888 
L 3713 2888 
L 3713 1978 
L 1791 1978 
L 1791 909 
L 3903 909 
L 3903 0 
L 588 0 
L 588 4666 
z
" transform="scale(0.015625)"/>
      <path id="DejaVuSans-Bold-72" d="M 3138 2547 
Q 2991 2616 2845 2648 
Q 2700 2681 2553 2681 
Q 2122 2681 1889 2404 
Q 1656 2128 1656 1613 
L 1656 0 
L 538 0 
L 538 3500 
L 1656 3500 
L 1656 2925 
Q 1872 3269 2151 3426 
Q 2431 3584 2822 3584 
Q 2878 3584 2943 3579 
Q 3009 3575 3134 3559 
L 3138 2547 
z
" transform="scale(0.015625)"/>
      <path id="DejaVuSans-Bold-64" d="M 2919 2988 
L 2919 4863 
L 4044 4863 
L 4044 0 
L 2919 0 
L 2919 506 
Q 2688 197 2409 53 
Q 2131 -91 1766 -91 
Q 1119 -91 703 423 
Q 288 938 288 1747 
Q 288 2556 703 3070 
Q 1119 3584 1766 3584 
Q 2128 3584 2408 3439 
Q 2688 3294 2919 2988 
z
M 2181 722 
Q 2541 722 2730 984 
Q 2919 1247 2919 1747 
Q 2919 2247 2730 2509 
Q 2541 2772 2181 2772 
Q 1825 2772 1636 2509 
Q 1447 2247 1447 1747 
Q 1447 1247 1636 984 
Q 1825 722 2181 722 
z
" transform="scale(0.015625)"/>
      <path id="DejaVuSans-Bold-151" d="M 1881 5119 
L 2560 5119 
L 1785 3944 
L 1275 3944 
L 1881 5119 
z
M 3016 5119 
L 3738 5119 
L 2888 3944 
L 2344 3944 
L 3016 5119 
z
M 2203 2784 
Q 1831 2784 1636 2517 
Q 1441 2250 1441 1747 
Q 1441 1244 1636 976 
Q 1831 709 2203 709 
Q 2569 709 2762 976 
Q 2956 1244 2956 1747 
Q 2956 2250 2762 2517 
Q 2569 2784 2203 2784 
z
M 2203 3584 
Q 3106 3584 3614 3096 
Q 4122 2609 4122 1747 
Q 4122 884 3614 396 
Q 3106 -91 2203 -91 
Q 1297 -91 786 396 
Q 275 884 275 1747 
Q 275 2609 786 3096 
Q 1297 3584 2203 3584 
z
" transform="scale(0.015625)"/>
      <path id="DejaVuSans-Bold-73" d="M 3272 3391 
L 3272 2541 
Q 2913 2691 2578 2766 
Q 2244 2841 1947 2841 
Q 1628 2841 1473 2761 
Q 1319 2681 1319 2516 
Q 1319 2381 1436 2309 
Q 1553 2238 1856 2203 
L 2053 2175 
Q 2913 2066 3209 1816 
Q 3506 1566 3506 1031 
Q 3506 472 3093 190 
Q 2681 -91 1863 -91 
Q 1516 -91 1145 -36 
Q 775 19 384 128 
L 384 978 
Q 719 816 1070 734 
Q 1422 653 1784 653 
Q 2113 653 2278 743 
Q 2444 834 2444 1013 
Q 2444 1163 2330 1236 
Q 2216 1309 1875 1350 
L 1678 1375 
Q 931 1469 631 1722 
Q 331 1975 331 2491 
Q 331 3047 712 3315 
Q 1094 3584 1881 3584 
Q 2191 3584 2531 3537 
Q 2872 3491 3272 3391 
z
" transform="scale(0.015625)"/>
      <path id="DejaVuSans-Bold-20" transform="scale(0.015625)"/>
      <path id="DejaVuSans-Bold-50" d="M 588 4666 
L 2584 4666 
Q 3475 4666 3951 4270 
Q 4428 3875 4428 3144 
Q 4428 2409 3951 2014 
Q 3475 1619 2584 1619 
L 1791 1619 
L 1791 0 
L 588 0 
L 588 4666 
z
M 1791 3794 
L 1791 2491 
L 2456 2491 
Q 2806 2491 2997 2661 
Q 3188 2831 3188 3144 
Q 3188 3456 2997 3625 
Q 2806 3794 2456 3794 
L 1791 3794 
z
" transform="scale(0.015625)"/>
      <path id="DejaVuSans-Bold-6f" d="M 2203 2784 
Q 1831 2784 1636 2517 
Q 1441 2250 1441 1747 
Q 1441 1244 1636 976 
Q 1831 709 2203 709 
Q 2569 709 2762 976 
Q 2956 1244 2956 1747 
Q 2956 2250 2762 2517 
Q 2569 2784 2203 2784 
z
M 2203 3584 
Q 3106 3584 3614 3096 
Q 4122 2609 4122 1747 
Q 4122 884 3614 396 
Q 3106 -91 2203 -91 
Q 1297 -91 786 396 
Q 275 884 275 1747 
Q 275 2609 786 3096 
Q 1297 3584 2203 3584 
z
" transform="scale(0.015625)"/>
      <path id="DejaVuSans-Bold-62" d="M 2400 722 
Q 2759 722 2948 984 
Q 3138 1247 3138 1747 
Q 3138 2247 2948 2509 
Q 2759 2772 2400 2772 
Q 2041 2772 1848 2508 
Q 1656 2244 1656 1747 
Q 1656 1250 1848 986 
Q 2041 722 2400 722 
z
M 1656 2988 
Q 1888 3294 2169 3439 
Q 2450 3584 2816 3584 
Q 3463 3584 3878 3070 
Q 4294 2556 4294 1747 
Q 4294 938 3878 423 
Q 3463 -91 2816 -91 
Q 2450 -91 2169 54 
Q 1888 200 1656 506 
L 1656 0 
L 538 0 
L 538 4863 
L 1656 4863 
L 1656 2988 
z
" transform="scale(0.015625)"/>
      <path id="DejaVuSans-Bold-6c" d="M 538 4863 
L 1656 4863 
L 1656 0 
L 538 0 
L 538 4863 
z
" transform="scale(0.015625)"/>
      <path id="DejaVuSans-Bold-65" d="M 4031 1759 
L 4031 1441 
L 1416 1441 
Q 1456 1047 1700 850 
Q 1944 653 2381 653 
Q 2734 653 3104 758 
Q 3475 863 3866 1075 
L 3866 213 
Q 3469 63 3072 -14 
Q 2675 -91 2278 -91 
Q 1328 -91 801 392 
Q 275 875 275 1747 
Q 275 2603 792 3093 
Q 1309 3584 2216 3584 
Q 3041 3584 3536 3087 
Q 4031 2591 4031 1759 
z
M 2881 2131 
Q 2881 2450 2695 2645 
Q 2509 2841 2209 2841 
Q 1884 2841 1681 2658 
Q 1478 2475 1428 2131 
L 2881 2131 
z
" transform="scale(0.015625)"/>
      <path id="DejaVuSans-Bold-6d" d="M 3781 2919 
Q 3994 3244 4286 3414 
Q 4578 3584 4928 3584 
Q 5531 3584 5847 3212 
Q 6163 2841 6163 2131 
L 6163 0 
L 5038 0 
L 5038 1825 
Q 5041 1866 5042 1909 
Q 5044 1953 5044 2034 
Q 5044 2406 4934 2573 
Q 4825 2741 4581 2741 
Q 4263 2741 4089 2478 
Q 3916 2216 3909 1719 
L 3909 0 
L 2784 0 
L 2784 1825 
Q 2784 2406 2684 2573 
Q 2584 2741 2328 2741 
Q 2006 2741 1831 2477 
Q 1656 2213 1656 1722 
L 1656 0 
L 531 0 
L 531 3500 
L 1656 3500 
L 1656 2988 
Q 1863 3284 2130 3434 
Q 2397 3584 2719 3584 
Q 3081 3584 3359 3409 
Q 3638 3234 3781 2919 
z
" transform="scale(0.015625)"/>
      <path id="DejaVuSans-Bold-67" d="M 2919 594 
Q 2688 288 2409 144 
Q 2131 0 1766 0 
Q 1125 0 706 504 
Q 288 1009 288 1791 
Q 288 2575 706 3076 
Q 1125 3578 1766 3578 
Q 2131 3578 2409 3434 
Q 2688 3291 2919 2981 
L 2919 3500 
L 4044 3500 
L 4044 353 
Q 4044 -491 3511 -936 
Q 2978 -1381 1966 -1381 
Q 1638 -1381 1331 -1331 
Q 1025 -1281 716 -1178 
L 716 -306 
Q 1009 -475 1290 -558 
Q 1572 -641 1856 -641 
Q 2406 -641 2662 -400 
Q 2919 -159 2919 353 
L 2919 594 
z
M 2181 2772 
Q 1834 2772 1640 2515 
Q 1447 2259 1447 1791 
Q 1447 1309 1634 1061 
Q 1822 813 2181 813 
Q 2531 813 2725 1069 
Q 2919 1325 2919 1791 
Q 2919 2259 2725 2515 
Q 2531 2772 2181 2772 
z
" transform="scale(0.015625)"/>
     </defs>
     <use xlink:href="#DejaVuSans-Bold-45"/>
     <use xlink:href="#DejaVuSans-Bold-72" transform="translate(68.310547 0)"/>
     <use xlink:href="#DejaVuSans-Bold-64" transform="translate(117.626953 0)"/>
     <use xlink:href="#DejaVuSans-Bold-151" transform="translate(189.208984 0)"/>
     <use xlink:href="#DejaVuSans-Bold-73" transform="translate(257.910156 0)"/>
     <use xlink:href="#DejaVuSans-Bold-20" transform="translate(317.431641 0)"/>
     <use xlink:href="#DejaVuSans-Bold-50" transform="translate(352.246094 0)"/>
     <use xlink:href="#DejaVuSans-Bold-72" transform="translate(425.537109 0)"/>
     <use xlink:href="#DejaVuSans-Bold-6f" transform="translate(474.853516 0)"/>
     <use xlink:href="#DejaVuSans-Bold-62" transform="translate(543.554688 0)"/>
     <use xlink:href="#DejaVuSans-Bold-6c" transform="translate(615.136719 0)"/>
     <use xlink:href="#DejaVuSans-Bold-65" transform="translate(649.414062 0)"/>
     <use xlink:href="#DejaVuSans-Bold-6d" transform="translate(717.236328 0)"/>
     <use xlink:href="#DejaVuSans-Bold-73" transform="translate(821.435547 0)"/>
     <use xlink:href="#DejaVuSans-Bold-20" transform="translate(880.957031 0)"/>
     <use xlink:href="#DejaVuSans-Bold-50" transform="translate(915.771484 0)"/>
     <use xlink:href="#DejaVuSans-Bold-72" transform="translate(989.0625 0)"/>
     <use xlink:href="#DejaVuSans-Bold-6f" transform="translate(1038.378906 0)"/>
     <use xlink:href="#DejaVuSans-Bold-67" transform="translate(1107.080078 0)"/>
     <use xlink:href="#DejaVuSans-Bold-72" transform="translate(1178.662109 0)"/>
     <use xlink:href="#DejaVuSans-Bold-65" transform="translate(1227.978516 0)"/>
     <use xlink:href="#DejaVuSans-Bold-73" transform="translate(1295.800781 0)"/>
     <use xlink:href="#DejaVuSans-Bold-73" transform="translate(1355.322266 0)"/>
    </g>
   </g>
   <g id="legend_1">
    <g id="patch_7">
     <path d="M 55.90125 119.788437 
L 213.771563 119.788437 
Q 215.771563 119.788437 215.771563 117.788437 
L 215.771563 45.397812 
Q 215.771563 43.397812 213.771563 43.397812 
L 55.90125 43.397812 
Q 53.90125 43.397812 53.90125 45.397812 
L 53.90125 117.788437 
Q 53.90125 119.788437 55.90125 119.788437 
z
" style="fill: #f6f8fa; opacity: 0.8; stroke: #d0d7de; stroke-linejoin: miter"/>
    </g>
    <g id="line2d_34">
     <path d="M 57.90125 51.49625 
L 67.90125 51.49625 
L 77.90125 51.49625 
" style="fill: none; stroke: #1a7f37; stroke-width: 2; stroke-linecap: square"/>
    </g>
    <g id="text_23">
     <!-- Solved -->
     <g style="fill: #24292f" transform="translate(85.90125 54.99625) scale(0.1 -0.1)">
      <defs>
       <path id="DejaVuSans-64" d="M 2906 2969 
L 2906 4863 
L 3481 4863 
L 3481 0 
L 2906 0 
L 2906 525 
Q 2725 213 2448 61 
Q 2172 -91 1784 -91 
Q 1150 -91 751 415 
Q 353 922 353 1747 
Q 353 2572 751 3078 
Q 1150 3584 1784 3584 
Q 2172 3584 2448 3432 
Q 2725 3281 2906 2969 
z
M 947 1747 
Q 947 1113 1208 752 
Q 1469 391 1925 391 
Q 2381 391 2643 752 
Q 2906 1113 2906 1747 
Q 2906 2381 2643 2742 
Q 2381 3103 1925 3103 
Q 1469 3103 1208 2742 
Q 947 2381 947 1747 
z
" transform="scale(0.015625)"/>
      </defs>
      <use xlink:href="#DejaVuSans-53"/>
      <use xlink:href="#DejaVuSans-6f" transform="translate(63.476562 0)"/>
      <use xlink:href="#DejaVuSans-6c" transform="translate(124.658203 0)"/>
      <use xlink:href="#DejaVuSans-76" transform="translate(152.441406 0)"/>
      <use xlink:href="#DejaVuSans-65" transform="translate(211.621094 0)"/>
      <use xlink:href="#DejaVuSans-64" transform="translate(273.144531 0)"/>
     </g>
    </g>
    <g id="line2d_35">
     <path d="M 57.90125 66.174375 
L 67.90125 66.174375 
L 77.90125 66.174375 
" style="fill: none; stroke: #0969da; stroke-width: 2; stroke-linecap: square"/>
    </g>
    <g id="text_24">
     <!-- Lean Formalized Problem -->
     <g style="fill: #24292f" transform="translate(85.90125 69.674375) scale(0.1 -0.1)">
      <defs>
       <path id="DejaVuSans-4c" d="M 628 4666 
L 1259 4666 
L 1259 531 
L 3531 531 
L 3531 0 
L 628 0 
L 628 4666 
z
" transform="scale(0.015625)"/>
       <path id="DejaVuSans-20" transform="scale(0.015625)"/>
       <path id="DejaVuSans-46" d="M 628 4666 
L 3309 4666 
L 3309 4134 
L 1259 4134 
L 1259 2759 
L 3109 2759 
L 3109 2228 
L 1259 2228 
L 1259 0 
L 628 0 
L 628 4666 
z
" transform="scale(0.015625)"/>
       <path id="DejaVuSans-6d" d="M 3328 2828 
Q 3544 3216 3844 3400 
Q 4144 3584 4550 3584 
Q 5097 3584 5394 3201 
Q 5691 2819 5691 2113 
L 5691 0 
L 5113 0 
L 5113 2094 
Q 5113 2597 4934 2840 
Q 4756 3084 4391 3084 
Q 3944 3084 3684 2787 
Q 3425 2491 3425 1978 
L 3425 0 
L 2847 0 
L 2847 2094 
Q 2847 2600 2669 2842 
Q 2491 3084 2119 3084 
Q 1678 3084 1418 2786 
Q 1159 2488 1159 1978 
L 1159 0 
L 581 0 
L 581 3500 
L 1159 3500 
L 1159 2956 
Q 1356 3278 1631 3431 
Q 1906 3584 2284 3584 
Q 2666 3584 2933 3390 
Q 3200 3197 3328 2828 
z
" transform="scale(0.015625)"/>
       <path id="DejaVuSans-69" d="M 603 3500 
L 1178 3500 
L 1178 0 
L 603 0 
L 603 3500 
z
M 603 4863 
L 1178 4863 
L 1178 4134 
L 603 4134 
L 603 4863 
z
" transform="scale(0.015625)"/>
       <path id="DejaVuSans-7a" d="M 353 3500 
L 3084 3500 
L 3084 2975 
L 922 459 
L 3084 459 
L 3084 0 
L 275 0 
L 275 525 
L 2438 3041 
L 353 3041 
L 353 3500 
z
" transform="scale(0.015625)"/>
       <path id="DejaVuSans-50" d="M 1259 4147 
L 1259 2394 
L 2053 2394 
Q 2494 2394 2734 2622 
Q 2975 2850 2975 3272 
Q 2975 3691 2734 3919 
Q 2494 4147 2053 4147 
L 1259 4147 
z
M 628 4666 
L 2053 4666 
Q 2838 4666 3239 4311 
Q 3641 3956 3641 3272 
Q 3641 2581 3239 2228 
Q 2838 1875 2053 1875 
L 1259 1875 
L 1259 0 
L 628 0 
L 628 4666 
z
" transform="scale(0.015625)"/>
       <path id="DejaVuSans-62" d="M 3116 1747 
Q 3116 2381 2855 2742 
Q 2594 3103 2138 3103 
Q 1681 3103 1420 2742 
Q 1159 2381 1159 1747 
Q 1159 1113 1420 752 
Q 1681 391 2138 391 
Q 2594 391 2855 752 
Q 3116 1113 3116 1747 
z
M 1159 2969 
Q 1341 3281 1617 3432 
Q 1894 3584 2278 3584 
Q 2916 3584 3314 3078 
Q 3713 2572 3713 1747 
Q 3713 922 3314 415 
Q 2916 -91 2278 -91 
Q 1894 -91 1617 61 
Q 1341 213 1159 525 
L 1159 0 
L 581 0 
L 581 4863 
L 1159 4863 
L 1159 2969 
z
" transform="scale(0.015625)"/>
      </defs>
      <use xlink:href="#DejaVuSans-4c"/>
      <use xlink:href="#DejaVuSans-65" transform="translate(53.962891 0)"/>
      <use xlink:href="#DejaVuSans-61" transform="translate(115.486328 0)"/>
      <use xlink:href="#DejaVuSans-6e" transform="translate(176.765625 0)"/>
      <use xlink:href="#DejaVuSans-20" transform="translate(240.144531 0)"/>
      <use xlink:href="#DejaVuSans-46" transform="translate(271.931641 0)"/>
      <use xlink:href="#DejaVuSans-6f" transform="translate(325.826172 0)"/>
      <use xlink:href="#DejaVuSans-72" transform="translate(387.007812 0)"/>
      <use xlink:href="#DejaVuSans-6d" transform="translate(426.371094 0)"/>
      <use xlink:href="#DejaVuSans-61" transform="translate(523.783203 0)"/>
      <use xlink:href="#DejaVuSans-6c" transform="translate(585.0625 0)"/>
      <use xlink:href="#DejaVuSans-69" transform="translate(612.845703 0)"/>
      <use xlink:href="#DejaVuSans-7a" transform="translate(640.628906 0)"/>
      <use xlink:href="#DejaVuSans-65" transform="translate(693.119141 0)"/>
      <use xlink:href="#DejaVuSans-64" transform="translate(754.642578 0)"/>
      <use xlink:href="#DejaVuSans-20" transform="translate(818.119141 0)"/>
      <use xlink:href="#DejaVuSans-50" transform="translate(849.90625 0)"/>
      <use xlink:href="#DejaVuSans-72" transform="translate(908.458984 0)"/>
      <use xlink:href="#DejaVuSans-6f" transform="translate(947.322266 0)"/>
      <use xlink:href="#DejaVuSans-62" transform="translate(1008.503906 0)"/>
      <use xlink:href="#DejaVuSans-6c" transform="translate(1071.980469 0)"/>
      <use xlink:href="#DejaVuSans-65" transform="translate(1099.763672 0)"/>
      <use xlink:href="#DejaVuSans-6d" transform="translate(1161.287109 0)"/>
     </g>
    </g>
    <g id="line2d_36">
     <path d="M 57.90125 80.8525 
L 67.90125 80.8525 
L 77.90125 80.8525 
" style="fill: none; stroke: #bf8700; stroke-width: 2; stroke-linecap: square"/>
    </g>
    <g id="text_25">
     <!-- Lean Formalized Solution -->
     <g style="fill: #24292f" transform="translate(85.90125 84.3525) scale(0.1 -0.1)">
      <use xlink:href="#DejaVuSans-4c"/>
      <use xlink:href="#DejaVuSans-65" transform="translate(53.962891 0)"/>
      <use xlink:href="#DejaVuSans-61" transform="translate(115.486328 0)"/>
      <use xlink:href="#DejaVuSans-6e" transform="translate(176.765625 0)"/>
      <use xlink:href="#DejaVuSans-20" transform="translate(240.144531 0)"/>
      <use xlink:href="#DejaVuSans-46" transform="translate(271.931641 0)"/>
      <use xlink:href="#DejaVuSans-6f" transform="translate(325.826172 0)"/>
      <use xlink:href="#DejaVuSans-72" transform="translate(387.007812 0)"/>
      <use xlink:href="#DejaVuSans-6d" transform="translate(426.371094 0)"/>
      <use xlink:href="#DejaVuSans-61" transform="translate(523.783203 0)"/>
      <use xlink:href="#DejaVuSans-6c" transform="translate(585.0625 0)"/>
      <use xlink:href="#DejaVuSans-69" transform="translate(612.845703 0)"/>
      <use xlink:href="#DejaVuSans-7a" transform="translate(640.628906 0)"/>
      <use xlink:href="#DejaVuSans-65" transform="translate(693.119141 0)"/>
      <use xlink:href="#DejaVuSans-64" transform="translate(754.642578 0)"/>
      <use xlink:href="#DejaVuSans-20" transform="translate(818.119141 0)"/>
      <use xlink:href="#DejaVuSans-53" transform="translate(849.90625 0)"/>
      <use xlink:href="#DejaVuSans-6f" transform="translate(913.382812 0)"/>
      <use xlink:href="#DejaVuSans-6c" transform="translate(974.564453 0)"/>
      <use xlink:href="#DejaVuSans-75" transform="translate(1002.347656 0)"/>
      <use xlink:href="#DejaVuSans-74" transform="translate(1065.726562 0)"/>
      <use xlink:href="#DejaVuSans-69" transform="translate(1104.935547 0)"/>
      <use xlink:href="#DejaVuSans-6f" transform="translate(1132.71875 0)"/>
      <use xlink:href="#DejaVuSans-6e" transform="translate(1193.900391 0)"/>
     </g>
    </g>
    <g id="line2d_37">
     <path d="M 57.90125 95.530625 
L 67.90125 95.530625 
L 77.90125 95.530625 
" style="fill: none; stroke: #cf222e; stroke-width: 2; stroke-linecap: square"/>
    </g>
    <g id="text_26">
     <!-- OEIS Linked -->
     <g style="fill: #24292f" transform="translate(85.90125 99.030625) scale(0.1 -0.1)">
      <defs>
       <path id="DejaVuSans-4f" d="M 2522 4238 
Q 1834 4238 1429 3725 
Q 1025 3213 1025 2328 
Q 1025 1447 1429 934 
Q 1834 422 2522 422 
Q 3209 422 3611 934 
Q 4013 1447 4013 2328 
Q 4013 3213 3611 3725 
Q 3209 4238 2522 4238 
z
M 2522 4750 
Q 3503 4750 4090 4092 
Q 4678 3434 4678 2328 
Q 4678 1225 4090 567 
Q 3503 -91 2522 -91 
Q 1538 -91 948 565 
Q 359 1222 359 2328 
Q 359 3434 948 4092 
Q 1538 4750 2522 4750 
z
" transform="scale(0.015625)"/>
       <path id="DejaVuSans-45" d="M 628 4666 
L 3578 4666 
L 3578 4134 
L 1259 4134 
L 1259 2753 
L 3481 2753 
L 3481 2222 
L 1259 2222 
L 1259 531 
L 3634 531 
L 3634 0 
L 628 0 
L 628 4666 
z
" transform="scale(0.015625)"/>
       <path id="DejaVuSans-49" d="M 628 4666 
L 1259 4666 
L 1259 0 
L 628 0 
L 628 4666 
z
" transform="scale(0.015625)"/>
       <path id="DejaVuSans-6b" d="M 581 4863 
L 1159 4863 
L 1159 1991 
L 2875 3500 
L 3609 3500 
L 1753 1863 
L 3688 0 
L 2938 0 
L 1159 1709 
L 1159 0 
L 581 0 
L 581 4863 
z
" transform="scale(0.015625)"/>
      </defs>
      <use xlink:href="#DejaVuSans-4f"/>
      <use xlink:href="#DejaVuSans-45" transform="translate(78.710938 0)"/>
      <use xlink:href="#DejaVuSans-49" transform="translate(141.894531 0)"/>
      <use xlink:href="#DejaVuSans-53" transform="translate(171.386719 0)"/>
      <use xlink:href="#DejaVuSans-20" transform="translate(234.863281 0)"/>
      <use xlink:href="#DejaVuSans-4c" transform="translate(266.650391 0)"/>
      <use xlink:href="#DejaVuSans-69" transform="translate(322.363281 0)"/>
      <use xlink:href="#DejaVuSans-6e" transform="translate(350.146484 0)"/>
      <use xlink:href="#DejaVuSans-6b" transform="translate(413.525391 0)"/>
      <use xlink:href="#DejaVuSans-65" transform="translate(467.810547 0)"/>
      <use xlink:href="#DejaVuSans-64" transform="translate(529.333984 0)"/>
     </g>
    </g>
    <g id="line2d_38">
     <path d="M 57.90125 110.20875 
L 67.90125 110.20875 
L 77.90125 110.20875 
" style="fill: none; stroke: #9467bd; stroke-width: 2; stroke-linecap: square"/>
    </g>
    <g id="text_27">
     <!-- Open Problems -->
     <g style="fill: #24292f" transform="translate(85.90125 113.70875) scale(0.1 -0.1)">
      <defs>
       <path id="DejaVuSans-73" d="M 2834 3397 
L 2834 2853 
Q 2591 2978 2328 3040 
Q 2066 3103 1784 3103 
Q 1356 3103 1142 2972 
Q 928 2841 928 2578 
Q 928 2378 1081 2264 
Q 1234 2150 1697 2047 
L 1894 2003 
Q 2506 1872 2764 1633 
Q 3022 1394 3022 966 
Q 3022 478 2636 193 
Q 2250 -91 1575 -91 
Q 1294 -91 989 -36 
Q 684 19 347 128 
L 347 722 
Q 666 556 975 473 
Q 1284 391 1588 391 
Q 1994 391 2212 530 
Q 2431 669 2431 922 
Q 2431 1156 2273 1281 
Q 2116 1406 1581 1522 
L 1381 1569 
Q 847 1681 609 1914 
Q 372 2147 372 2553 
Q 372 3047 722 3315 
Q 1072 3584 1716 3584 
Q 2034 3584 2315 3537 
Q 2597 3491 2834 3397 
z
" transform="scale(0.015625)"/>
      </defs>
      <use xlink:href="#DejaVuSans-4f"/>
      <use xlink:href="#DejaVuSans-70" transform="translate(78.710938 0)"/>
      <use xlink:href="#DejaVuSans-65" transform="translate(142.1875 0)"/>
      <use xlink:href="#DejaVuSans-6e" transform="translate(203.710938 0)"/>
      <use xlink:href="#DejaVuSans-20" transform="translate(267.089844 0)"/>
      <use xlink:href="#DejaVuSans-50" transform="translate(298.876953 0)"/>
      <use xlink:href="#DejaVuSans-72" transform="translate(357.429688 0)"/>
      <use xlink:href="#DejaVuSans-6f" transform="translate(396.292969 0)"/>
      <use xlink:href="#DejaVuSans-62" transform="translate(457.474609 0)"/>
      <use xlink:href="#DejaVuSans-6c" transform="translate(520.951172 0)"/>
      <use xlink:href="#DejaVuSans-65" transform="translate(548.734375 0)"/>
      <use xlink:href="#DejaVuSans-6d" transform="translate(610.257812 0)"/>
      <use xlink:href="#DejaVuSans-73" transform="translate(707.669922 0)"/>
     </g>
    </g>
   </g>
  </g>
 </g>
 <defs>
  <clipPath id="pff5082b7d9">
   <rect x="48.90125" y="38.397812" width="799.45" height="416.84"/>
  </clipPath>
 </defs>
</svg>
