<?xml version="1.0" encoding="utf-8" standalone="no"?>
<!DOCTYPE svg PUBLIC "-//W3C//DTD SVG 1.1//EN"
  "http://www.w3.org/Graphics/SVG/1.1/DTD/svg11.dtd">
<svg xmlns:xlink="http://www.w3.org/1999/xlink" width="855.55125pt" height="494.729687pt" viewBox="0 0 855.55125 494.729687" xmlns="http://www.w3.org/2000/svg" version="1.1">
 <metadata>
  <rdf:RDF xmlns:dc="http://purl.org/dc/elements/1.1/" xmlns:cc="http://creativecommons.org/ns#" xmlns:rdf="http://www.w3.org/1999/02/22-rdf-syntax-ns#">
   <cc:Work>
    <dc:type rdf:resource="http://purl.org/dc/dcmitype/StillImage"/>
    <dc:date>2026-06-07T23:10:02.760267</dc:date>
    <dc:format>image/svg+xml</dc:format>
    <dc:creator>
     <cc:Agent>
      <dc:title>Matplotlib v3.10.7, https://matplotlib.org/</dc:title>
     </cc:Agent>
    </dc:creator>
   </cc:Work>
  </rdf:RDF>
 </metadata>
 <defs>
  <style type="text/css">*{stroke-linejoin: round; stroke-linecap: butt}</style>
 </defs>
 <g id="figure_1">
  <g id="patch_1">
   <path d="M 0 494.729687 
L 855.55125 494.729687 
L 855.55125 0 
L 0 0 
z
" style="fill: #0d1117"/>
  </g>
  <g id="axes_1">
   <g id="patch_2">
    <path d="M 48.90125 455.237812 
L 848.35125 455.237812 
L 848.35125 38.397812 
L 48.90125 38.397812 
z
" style="fill: #0d1117"/>
   </g>
   <g id="matplotlib.axis_1">
    <g id="xtick_1">
     <g id="line2d_1">
      <path d="M 85.997986 455.237812 
L 85.997986 38.397812 
" clip-path="url(#p514d73947b)" style="fill: none; stroke: #30363d; stroke-opacity: 0.25; stroke-width: 0.5; stroke-linecap: square"/>
     </g>
     <g id="line2d_2">
      <defs>
       <path id="m017e4db153" d="M 0 0 
L 0 3.5 
" style="stroke: #c9d1d9; stroke-width: 0.8"/>
      </defs>
      <g>
       <use xlink:href="#m017e4db153" x="85.997986" y="455.237812" style="fill: #c9d1d9; stroke: #c9d1d9; stroke-width: 0.8"/>
      </g>
     </g>
     <g id="text_1">
      <!-- Sep -->
      <g style="fill: #c9d1d9" transform="translate(76.572986 469.83625) scale(0.1 -0.1)">
       <defs>
        <path id="DejaVuSans-53" d="M 3425 4513 
L 3425 3897 
Q 3066 4069 2747 4153 
Q 2428 4238 2131 4238 
Q 1616 4238 1336 4038 
Q 1056 3838 1056 3469 
Q 1056 3159 1242 3001 
Q 1428 2844 1947 2747 
L 2328 2669 
Q 3034 2534 3370 2195 
Q 3706 1856 3706 1288 
Q 3706 609 3251 259 
Q 2797 -91 1919 -91 
Q 1588 -91 1214 -16 
Q 841 59 441 206 
L 441 856 
Q 825 641 1194 531 
Q 1563 422 1919 422 
Q 2459 422 2753 634 
Q 3047 847 3047 1241 
Q 3047 1584 2836 1778 
Q 2625 1972 2144 2069 
L 1759 2144 
Q 1053 2284 737 2584 
Q 422 2884 422 3419 
Q 422 4038 858 4394 
Q 1294 4750 2059 4750 
Q 2388 4750 2728 4690 
Q 3069 4631 3425 4513 
z
" transform="scale(0.015625)"/>
        <path id="DejaVuSans-65" d="M 3597 1894 
L 3597 1613 
L 953 1613 
Q 991 1019 1311 708 
Q 1631 397 2203 397 
Q 2534 397 2845 478 
Q 3156 559 3463 722 
L 3463 178 
Q 3153 47 2828 -22 
Q 2503 -91 2169 -91 
Q 1331 -91 842 396 
Q 353 884 353 1716 
Q 353 2575 817 3079 
Q 1281 3584 2069 3584 
Q 2775 3584 3186 3129 
Q 3597 2675 3597 1894 
z
M 3022 2063 
Q 3016 2534 2758 2815 
Q 2500 3097 2075 3097 
Q 1594 3097 1305 2825 
Q 1016 2553 972 2059 
L 3022 2063 
z
" transform="scale(0.015625)"/>
        <path id="DejaVuSans-70" d="M 1159 525 
L 1159 -1331 
L 581 -1331 
L 581 3500 
L 1159 3500 
L 1159 2969 
Q 1341 3281 1617 3432 
Q 1894 3584 2278 3584 
Q 2916 3584 3314 3078 
Q 3713 2572 3713 1747 
Q 3713 922 3314 415 
Q 2916 -91 2278 -91 
Q 1894 -91 1617 61 
Q 1341 213 1159 525 
z
M 3116 1747 
Q 3116 2381 2855 2742 
Q 2594 3103 2138 3103 
Q 1681 3103 1420 2742 
Q 1159 2381 1159 1747 
Q 1159 1113 1420 752 
Q 1681 391 2138 391 
Q 2594 391 2855 752 
Q 3116 1113 3116 1747 
z
" transform="scale(0.015625)"/>
       </defs>
       <use xlink:href="#DejaVuSans-53"/>
       <use xlink:href="#DejaVuSans-65" transform="translate(63.476562 0)"/>
       <use xlink:href="#DejaVuSans-70" transform="translate(125 0)"/>
      </g>
     </g>
    </g>
    <g id="xtick_2">
     <g id="line2d_3">
      <path d="M 244.185062 455.237812 
L 244.185062 38.397812 
" clip-path="url(#p514d73947b)" style="fill: none; stroke: #30363d; stroke-opacity: 0.25; stroke-width: 0.5; stroke-linecap: square"/>
     </g>
     <g id="line2d_4">
      <g>
       <use xlink:href="#m017e4db153" x="244.185062" y="455.237812" style="fill: #c9d1d9; stroke: #c9d1d9; stroke-width: 0.8"/>
      </g>
     </g>
     <g id="text_2">
      <!-- Nov -->
      <g style="fill: #c9d1d9" transform="translate(234.425687 469.83625) scale(0.1 -0.1)">
       <defs>
        <path id="DejaVuSans-4e" d="M 628 4666 
L 1478 4666 
L 3547 763 
L 3547 4666 
L 4159 4666 
L 4159 0 
L 3309 0 
L 1241 3903 
L 1241 0 
L 628 0 
L 628 4666 
z
" transform="scale(0.015625)"/>
        <path id="DejaVuSans-6f" d="M 1959 3097 
Q 1497 3097 1228 2736 
Q 959 2375 959 1747 
Q 959 1119 1226 758 
Q 1494 397 1959 397 
Q 2419 397 2687 759 
Q 2956 1122 2956 1747 
Q 2956 2369 2687 2733 
Q 2419 3097 1959 3097 
z
M 1959 3584 
Q 2709 3584 3137 3096 
Q 3566 2609 3566 1747 
Q 3566 888 3137 398 
Q 2709 -91 1959 -91 
Q 1206 -91 779 398 
Q 353 888 353 1747 
Q 353 2609 779 3096 
Q 1206 3584 1959 3584 
z
" transform="scale(0.015625)"/>
        <path id="DejaVuSans-76" d="M 191 3500 
L 800 3500 
L 1894 563 
L 2988 3500 
L 3597 3500 
L 2284 0 
L 1503 0 
L 191 3500 
z
" transform="scale(0.015625)"/>
       </defs>
       <use xlink:href="#DejaVuSans-4e"/>
       <use xlink:href="#DejaVuSans-6f" transform="translate(74.804688 0)"/>
       <use xlink:href="#DejaVuSans-76" transform="translate(135.986328 0)"/>
      </g>
     </g>
    </g>
    <g id="xtick_3">
     <g id="line2d_5">
      <path d="M 402.372138 455.237812 
L 402.372138 38.397812 
" clip-path="url(#p514d73947b)" style="fill: none; stroke: #30363d; stroke-opacity: 0.25; stroke-width: 0.5; stroke-linecap: square"/>
     </g>
     <g id="line2d_6">
      <g>
       <use xlink:href="#m017e4db153" x="402.372138" y="455.237812" style="fill: #c9d1d9; stroke: #c9d1d9; stroke-width: 0.8"/>
      </g>
     </g>
     <g id="text_3">
      <!-- 2026 -->
      <g style="fill: #c9d1d9" transform="translate(389.647138 469.83625) scale(0.1 -0.1)">
       <defs>
        <path id="DejaVuSans-32" d="M 1228 531 
L 3431 531 
L 3431 0 
L 469 0 
L 469 531 
Q 828 903 1448 1529 
Q 2069 2156 2228 2338 
Q 2531 2678 2651 2914 
Q 2772 3150 2772 3378 
Q 2772 3750 2511 3984 
Q 2250 4219 1831 4219 
Q 1534 4219 1204 4116 
Q 875 4013 500 3803 
L 500 4441 
Q 881 4594 1212 4672 
Q 1544 4750 1819 4750 
Q 2544 4750 2975 4387 
Q 3406 4025 3406 3419 
Q 3406 3131 3298 2873 
Q 3191 2616 2906 2266 
Q 2828 2175 2409 1742 
Q 1991 1309 1228 531 
z
" transform="scale(0.015625)"/>
        <path id="DejaVuSans-30" d="M 2034 4250 
Q 1547 4250 1301 3770 
Q 1056 3291 1056 2328 
Q 1056 1369 1301 889 
Q 1547 409 2034 409 
Q 2525 409 2770 889 
Q 3016 1369 3016 2328 
Q 3016 3291 2770 3770 
Q 2525 4250 2034 4250 
z
M 2034 4750 
Q 2819 4750 3233 4129 
Q 3647 3509 3647 2328 
Q 3647 1150 3233 529 
Q 2819 -91 2034 -91 
Q 1250 -91 836 529 
Q 422 1150 422 2328 
Q 422 3509 836 4129 
Q 1250 4750 2034 4750 
z
" transform="scale(0.015625)"/>
        <path id="DejaVuSans-36" d="M 2113 2584 
Q 1688 2584 1439 2293 
Q 1191 2003 1191 1497 
Q 1191 994 1439 701 
Q 1688 409 2113 409 
Q 2538 409 2786 701 
Q 3034 994 3034 1497 
Q 3034 2003 2786 2293 
Q 2538 2584 2113 2584 
z
M 3366 4563 
L 3366 3988 
Q 3128 4100 2886 4159 
Q 2644 4219 2406 4219 
Q 1781 4219 1451 3797 
Q 1122 3375 1075 2522 
Q 1259 2794 1537 2939 
Q 1816 3084 2150 3084 
Q 2853 3084 3261 2657 
Q 3669 2231 3669 1497 
Q 3669 778 3244 343 
Q 2819 -91 2113 -91 
Q 1303 -91 875 529 
Q 447 1150 447 2328 
Q 447 3434 972 4092 
Q 1497 4750 2381 4750 
Q 2619 4750 2861 4703 
Q 3103 4656 3366 4563 
z
" transform="scale(0.015625)"/>
       </defs>
       <use xlink:href="#DejaVuSans-32"/>
       <use xlink:href="#DejaVuSans-30" transform="translate(63.623047 0)"/>
       <use xlink:href="#DejaVuSans-32" transform="translate(127.246094 0)"/>
       <use xlink:href="#DejaVuSans-36" transform="translate(190.869141 0)"/>
      </g>
     </g>
    </g>
    <g id="xtick_4">
     <g id="line2d_7">
      <path d="M 555.372752 455.237812 
L 555.372752 38.397812 
" clip-path="url(#p514d73947b)" style="fill: none; stroke: #30363d; stroke-opacity: 0.25; stroke-width: 0.5; stroke-linecap: square"/>
     </g>
     <g id="line2d_8">
      <g>
       <use xlink:href="#m017e4db153" x="555.372752" y="455.237812" style="fill: #c9d1d9; stroke: #c9d1d9; stroke-width: 0.8"/>
      </g>
     </g>
     <g id="text_4">
      <!-- Mar -->
      <g style="fill: #c9d1d9" transform="translate(545.939158 469.83625) scale(0.1 -0.1)">
       <defs>
        <path id="DejaVuSans-4d" d="M 628 4666 
L 1569 4666 
L 2759 1491 
L 3956 4666 
L 4897 4666 
L 4897 0 
L 4281 0 
L 4281 4097 
L 3078 897 
L 2444 897 
L 1241 4097 
L 1241 0 
L 628 0 
L 628 4666 
z
" transform="scale(0.015625)"/>
        <path id="DejaVuSans-61" d="M 2194 1759 
Q 1497 1759 1228 1600 
Q 959 1441 959 1056 
Q 959 750 1161 570 
Q 1363 391 1709 391 
Q 2188 391 2477 730 
Q 2766 1069 2766 1631 
L 2766 1759 
L 2194 1759 
z
M 3341 1997 
L 3341 0 
L 2766 0 
L 2766 531 
Q 2569 213 2275 61 
Q 1981 -91 1556 -91 
Q 1019 -91 701 211 
Q 384 513 384 1019 
Q 384 1609 779 1909 
Q 1175 2209 1959 2209 
L 2766 2209 
L 2766 2266 
Q 2766 2663 2505 2880 
Q 2244 3097 1772 3097 
Q 1472 3097 1187 3025 
Q 903 2953 641 2809 
L 641 3341 
Q 956 3463 1253 3523 
Q 1550 3584 1831 3584 
Q 2591 3584 2966 3190 
Q 3341 2797 3341 1997 
z
" transform="scale(0.015625)"/>
        <path id="DejaVuSans-72" d="M 2631 2963 
Q 2534 3019 2420 3045 
Q 2306 3072 2169 3072 
Q 1681 3072 1420 2755 
Q 1159 2438 1159 1844 
L 1159 0 
L 581 0 
L 581 3500 
L 1159 3500 
L 1159 2956 
Q 1341 3275 1631 3429 
Q 1922 3584 2338 3584 
Q 2397 3584 2469 3576 
Q 2541 3569 2628 3553 
L 2631 2963 
z
" transform="scale(0.015625)"/>
       </defs>
       <use xlink:href="#DejaVuSans-4d"/>
       <use xlink:href="#DejaVuSans-61" transform="translate(86.279297 0)"/>
       <use xlink:href="#DejaVuSans-72" transform="translate(147.558594 0)"/>
      </g>
     </g>
    </g>
    <g id="xtick_5">
     <g id="line2d_9">
      <path d="M 713.559828 455.237812 
L 713.559828 38.397812 
" clip-path="url(#p514d73947b)" style="fill: none; stroke: #30363d; stroke-opacity: 0.25; stroke-width: 0.5; stroke-linecap: square"/>
     </g>
     <g id="line2d_10">
      <g>
       <use xlink:href="#m017e4db153" x="713.559828" y="455.237812" style="fill: #c9d1d9; stroke: #c9d1d9; stroke-width: 0.8"/>
      </g>
     </g>
     <g id="text_5">
      <!-- May -->
      <g style="fill: #c9d1d9" transform="translate(703.222328 469.83625) scale(0.1 -0.1)">
       <defs>
        <path id="DejaVuSans-79" d="M 2059 -325 
Q 1816 -950 1584 -1140 
Q 1353 -1331 966 -1331 
L 506 -1331 
L 506 -850 
L 844 -850 
Q 1081 -850 1212 -737 
Q 1344 -625 1503 -206 
L 1606 56 
L 191 3500 
L 800 3500 
L 1894 763 
L 2988 3500 
L 3597 3500 
L 2059 -325 
z
" transform="scale(0.015625)"/>
       </defs>
       <use xlink:href="#DejaVuSans-4d"/>
       <use xlink:href="#DejaVuSans-61" transform="translate(86.279297 0)"/>
       <use xlink:href="#DejaVuSans-79" transform="translate(147.558594 0)"/>
      </g>
     </g>
    </g>
    <g id="text_6">
     <!-- Date -->
     <g style="fill: #c9d1d9" transform="translate(434.285313 485.034062) scale(0.12 -0.12)">
      <defs>
       <path id="DejaVuSans-44" d="M 1259 4147 
L 1259 519 
L 2022 519 
Q 2988 519 3436 956 
Q 3884 1394 3884 2338 
Q 3884 3275 3436 3711 
Q 2988 4147 2022 4147 
L 1259 4147 
z
M 628 4666 
L 1925 4666 
Q 3281 4666 3915 4102 
Q 4550 3538 4550 2338 
Q 4550 1131 3912 565 
Q 3275 0 1925 0 
L 628 0 
L 628 4666 
z
" transform="scale(0.015625)"/>
       <path id="DejaVuSans-74" d="M 1172 4494 
L 1172 3500 
L 2356 3500 
L 2356 3053 
L 1172 3053 
L 1172 1153 
Q 1172 725 1289 603 
Q 1406 481 1766 481 
L 2356 481 
L 2356 0 
L 1766 0 
Q 1100 0 847 248 
Q 594 497 594 1153 
L 594 3053 
L 172 3053 
L 172 3500 
L 594 3500 
L 594 4494 
L 1172 4494 
z
" transform="scale(0.015625)"/>
      </defs>
      <use xlink:href="#DejaVuSans-44"/>
      <use xlink:href="#DejaVuSans-61" transform="translate(77.001953 0)"/>
      <use xlink:href="#DejaVuSans-74" transform="translate(138.28125 0)"/>
      <use xlink:href="#DejaVuSans-65" transform="translate(177.490234 0)"/>
     </g>
    </g>
   </g>
   <g id="matplotlib.axis_2">
    <g id="ytick_1">
     <g id="line2d_11">
      <path d="M 48.90125 455.237812 
L 848.35125 455.237812 
" clip-path="url(#p514d73947b)" style="fill: none; stroke: #30363d; stroke-opacity: 0.25; stroke-width: 0.5; stroke-linecap: square"/>
     </g>
     <g id="line2d_12">
      <defs>
       <path id="mf5a138c97e" d="M 0 0 
L -3.5 0 
" style="stroke: #c9d1d9; stroke-width: 0.8"/>
      </defs>
      <g>
       <use xlink:href="#mf5a138c97e" x="48.90125" y="455.237812" style="fill: #c9d1d9; stroke: #c9d1d9; stroke-width: 0.8"/>
      </g>
     </g>
     <g id="text_7">
      <!-- 0 -->
      <g style="fill: #c9d1d9" transform="translate(35.53875 459.037031) scale(0.1 -0.1)">
       <use xlink:href="#DejaVuSans-30"/>
      </g>
     </g>
    </g>
    <g id="ytick_2">
     <g id="line2d_13">
      <path d="M 48.90125 399.659146 
L 848.35125 399.659146 
" clip-path="url(#p514d73947b)" style="fill: none; stroke: #30363d; stroke-opacity: 0.25; stroke-width: 0.5; stroke-linecap: square"/>
     </g>
     <g id="line2d_14">
      <g>
       <use xlink:href="#mf5a138c97e" x="48.90125" y="399.659146" style="fill: #c9d1d9; stroke: #c9d1d9; stroke-width: 0.8"/>
      </g>
     </g>
     <g id="text_8">
      <!-- 100 -->
      <g style="fill: #c9d1d9" transform="translate(22.81375 403.458365) scale(0.1 -0.1)">
       <defs>
        <path id="DejaVuSans-31" d="M 794 531 
L 1825 531 
L 1825 4091 
L 703 3866 
L 703 4441 
L 1819 4666 
L 2450 4666 
L 2450 531 
L 3481 531 
L 3481 0 
L 794 0 
L 794 531 
z
" transform="scale(0.015625)"/>
       </defs>
       <use xlink:href="#DejaVuSans-31"/>
       <use xlink:href="#DejaVuSans-30" transform="translate(63.623047 0)"/>
       <use xlink:href="#DejaVuSans-30" transform="translate(127.246094 0)"/>
      </g>
     </g>
    </g>
    <g id="ytick_3">
     <g id="line2d_15">
      <path d="M 48.90125 344.080479 
L 848.35125 344.080479 
" clip-path="url(#p514d73947b)" style="fill: none; stroke: #30363d; stroke-opacity: 0.25; stroke-width: 0.5; stroke-linecap: square"/>
     </g>
     <g id="line2d_16">
      <g>
       <use xlink:href="#mf5a138c97e" x="48.90125" y="344.080479" style="fill: #c9d1d9; stroke: #c9d1d9; stroke-width: 0.8"/>
      </g>
     </g>
     <g id="text_9">
      <!-- 200 -->
      <g style="fill: #c9d1d9" transform="translate(22.81375 347.879698) scale(0.1 -0.1)">
       <use xlink:href="#DejaVuSans-32"/>
       <use xlink:href="#DejaVuSans-30" transform="translate(63.623047 0)"/>
       <use xlink:href="#DejaVuSans-30" transform="translate(127.246094 0)"/>
      </g>
     </g>
    </g>
    <g id="ytick_4">
     <g id="line2d_17">
      <path d="M 48.90125 288.501812 
L 848.35125 288.501812 
" clip-path="url(#p514d73947b)" style="fill: none; stroke: #30363d; stroke-opacity: 0.25; stroke-width: 0.5; stroke-linecap: square"/>
     </g>
     <g id="line2d_18">
      <g>
       <use xlink:href="#mf5a138c97e" x="48.90125" y="288.501812" style="fill: #c9d1d9; stroke: #c9d1d9; stroke-width: 0.8"/>
      </g>
     </g>
     <g id="text_10">
      <!-- 300 -->
      <g style="fill: #c9d1d9" transform="translate(22.81375 292.301031) scale(0.1 -0.1)">
       <defs>
        <path id="DejaVuSans-33" d="M 2597 2516 
Q 3050 2419 3304 2112 
Q 3559 1806 3559 1356 
Q 3559 666 3084 287 
Q 2609 -91 1734 -91 
Q 1441 -91 1130 -33 
Q 819 25 488 141 
L 488 750 
Q 750 597 1062 519 
Q 1375 441 1716 441 
Q 2309 441 2620 675 
Q 2931 909 2931 1356 
Q 2931 1769 2642 2001 
Q 2353 2234 1838 2234 
L 1294 2234 
L 1294 2753 
L 1863 2753 
Q 2328 2753 2575 2939 
Q 2822 3125 2822 3475 
Q 2822 3834 2567 4026 
Q 2313 4219 1838 4219 
Q 1578 4219 1281 4162 
Q 984 4106 628 3988 
L 628 4550 
Q 988 4650 1302 4700 
Q 1616 4750 1894 4750 
Q 2613 4750 3031 4423 
Q 3450 4097 3450 3541 
Q 3450 3153 3228 2886 
Q 3006 2619 2597 2516 
z
" transform="scale(0.015625)"/>
       </defs>
       <use xlink:href="#DejaVuSans-33"/>
       <use xlink:href="#DejaVuSans-30" transform="translate(63.623047 0)"/>
       <use xlink:href="#DejaVuSans-30" transform="translate(127.246094 0)"/>
      </g>
     </g>
    </g>
    <g id="ytick_5">
     <g id="line2d_19">
      <path d="M 48.90125 232.923146 
L 848.35125 232.923146 
" clip-path="url(#p514d73947b)" style="fill: none; stroke: #30363d; stroke-opacity: 0.25; stroke-width: 0.5; stroke-linecap: square"/>
     </g>
     <g id="line2d_20">
      <g>
       <use xlink:href="#mf5a138c97e" x="48.90125" y="232.923146" style="fill: #c9d1d9; stroke: #c9d1d9; stroke-width: 0.8"/>
      </g>
     </g>
     <g id="text_11">
      <!-- 400 -->
      <g style="fill: #c9d1d9" transform="translate(22.81375 236.722365) scale(0.1 -0.1)">
       <defs>
        <path id="DejaVuSans-34" d="M 2419 4116 
L 825 1625 
L 2419 1625 
L 2419 4116 
z
M 2253 4666 
L 3047 4666 
L 3047 1625 
L 3713 1625 
L 3713 1100 
L 3047 1100 
L 3047 0 
L 2419 0 
L 2419 1100 
L 313 1100 
L 313 1709 
L 2253 4666 
z
" transform="scale(0.015625)"/>
       </defs>
       <use xlink:href="#DejaVuSans-34"/>
       <use xlink:href="#DejaVuSans-30" transform="translate(63.623047 0)"/>
       <use xlink:href="#DejaVuSans-30" transform="translate(127.246094 0)"/>
      </g>
     </g>
    </g>
    <g id="ytick_6">
     <g id="line2d_21">
      <path d="M 48.90125 177.344479 
L 848.35125 177.344479 
" clip-path="url(#p514d73947b)" style="fill: none; stroke: #30363d; stroke-opacity: 0.25; stroke-width: 0.5; stroke-linecap: square"/>
     </g>
     <g id="line2d_22">
      <g>
       <use xlink:href="#mf5a138c97e" x="48.90125" y="177.344479" style="fill: #c9d1d9; stroke: #c9d1d9; stroke-width: 0.8"/>
      </g>
     </g>
     <g id="text_12">
      <!-- 500 -->
      <g style="fill: #c9d1d9" transform="translate(22.81375 181.143698) scale(0.1 -0.1)">
       <defs>
        <path id="DejaVuSans-35" d="M 691 4666 
L 3169 4666 
L 3169 4134 
L 1269 4134 
L 1269 2991 
Q 1406 3038 1543 3061 
Q 1681 3084 1819 3084 
Q 2600 3084 3056 2656 
Q 3513 2228 3513 1497 
Q 3513 744 3044 326 
Q 2575 -91 1722 -91 
Q 1428 -91 1123 -41 
Q 819 9 494 109 
L 494 744 
Q 775 591 1075 516 
Q 1375 441 1709 441 
Q 2250 441 2565 725 
Q 2881 1009 2881 1497 
Q 2881 1984 2565 2268 
Q 2250 2553 1709 2553 
Q 1456 2553 1204 2497 
Q 953 2441 691 2322 
L 691 4666 
z
" transform="scale(0.015625)"/>
       </defs>
       <use xlink:href="#DejaVuSans-35"/>
       <use xlink:href="#DejaVuSans-30" transform="translate(63.623047 0)"/>
       <use xlink:href="#DejaVuSans-30" transform="translate(127.246094 0)"/>
      </g>
     </g>
    </g>
    <g id="ytick_7">
     <g id="line2d_23">
      <path d="M 48.90125 121.765812 
L 848.35125 121.765812 
" clip-path="url(#p514d73947b)" style="fill: none; stroke: #30363d; stroke-opacity: 0.25; stroke-width: 0.5; stroke-linecap: square"/>
     </g>
     <g id="line2d_24">
      <g>
       <use xlink:href="#mf5a138c97e" x="48.90125" y="121.765812" style="fill: #c9d1d9; stroke: #c9d1d9; stroke-width: 0.8"/>
      </g>
     </g>
     <g id="text_13">
      <!-- 600 -->
      <g style="fill: #c9d1d9" transform="translate(22.81375 125.565031) scale(0.1 -0.1)">
       <use xlink:href="#DejaVuSans-36"/>
       <use xlink:href="#DejaVuSans-30" transform="translate(63.623047 0)"/>
       <use xlink:href="#DejaVuSans-30" transform="translate(127.246094 0)"/>
      </g>
     </g>
    </g>
    <g id="ytick_8">
     <g id="line2d_25">
      <path d="M 48.90125 66.187146 
L 848.35125 66.187146 
" clip-path="url(#p514d73947b)" style="fill: none; stroke: #30363d; stroke-opacity: 0.25; stroke-width: 0.5; stroke-linecap: square"/>
     </g>
     <g id="line2d_26">
      <g>
       <use xlink:href="#mf5a138c97e" x="48.90125" y="66.187146" style="fill: #c9d1d9; stroke: #c9d1d9; stroke-width: 0.8"/>
      </g>
     </g>
     <g id="text_14">
      <!-- 700 -->
      <g style="fill: #c9d1d9" transform="translate(22.81375 69.986365) scale(0.1 -0.1)">
       <defs>
        <path id="DejaVuSans-37" d="M 525 4666 
L 3525 4666 
L 3525 4397 
L 1831 0 
L 1172 0 
L 2766 4134 
L 525 4134 
L 525 4666 
z
" transform="scale(0.015625)"/>
       </defs>
       <use xlink:href="#DejaVuSans-37"/>
       <use xlink:href="#DejaVuSans-30" transform="translate(63.623047 0)"/>
       <use xlink:href="#DejaVuSans-30" transform="translate(127.246094 0)"/>
      </g>
     </g>
    </g>
    <g id="text_15">
     <!-- Count -->
     <g style="fill: #c9d1d9" transform="translate(16.318125 264.635937) rotate(-90) scale(0.12 -0.12)">
      <defs>
       <path id="DejaVuSans-43" d="M 4122 4306 
L 4122 3641 
Q 3803 3938 3442 4084 
Q 3081 4231 2675 4231 
Q 1875 4231 1450 3742 
Q 1025 3253 1025 2328 
Q 1025 1406 1450 917 
Q 1875 428 2675 428 
Q 3081 428 3442 575 
Q 3803 722 4122 1019 
L 4122 359 
Q 3791 134 3420 21 
Q 3050 -91 2638 -91 
Q 1578 -91 968 557 
Q 359 1206 359 2328 
Q 359 3453 968 4101 
Q 1578 4750 2638 4750 
Q 3056 4750 3426 4639 
Q 3797 4528 4122 4306 
z
" transform="scale(0.015625)"/>
       <path id="DejaVuSans-75" d="M 544 1381 
L 544 3500 
L 1119 3500 
L 1119 1403 
Q 1119 906 1312 657 
Q 1506 409 1894 409 
Q 2359 409 2629 706 
Q 2900 1003 2900 1516 
L 2900 3500 
L 3475 3500 
L 3475 0 
L 2900 0 
L 2900 538 
Q 2691 219 2414 64 
Q 2138 -91 1772 -91 
Q 1169 -91 856 284 
Q 544 659 544 1381 
z
M 1991 3584 
L 1991 3584 
z
" transform="scale(0.015625)"/>
       <path id="DejaVuSans-6e" d="M 3513 2113 
L 3513 0 
L 2938 0 
L 2938 2094 
Q 2938 2591 2744 2837 
Q 2550 3084 2163 3084 
Q 1697 3084 1428 2787 
Q 1159 2491 1159 1978 
L 1159 0 
L 581 0 
L 581 3500 
L 1159 3500 
L 1159 2956 
Q 1366 3272 1645 3428 
Q 1925 3584 2291 3584 
Q 2894 3584 3203 3211 
Q 3513 2838 3513 2113 
z
" transform="scale(0.015625)"/>
      </defs>
      <use xlink:href="#DejaVuSans-43"/>
      <use xlink:href="#DejaVuSans-6f" transform="translate(69.824219 0)"/>
      <use xlink:href="#DejaVuSans-75" transform="translate(131.005859 0)"/>
      <use xlink:href="#DejaVuSans-6e" transform="translate(194.384766 0)"/>
      <use xlink:href="#DejaVuSans-74" transform="translate(257.763672 0)"/>
     </g>
    </g>
   </g>
   <g id="line2d_27">
    <path d="M 85.239886 454.682026 
L 85.28956 454.682026 
L 85.409407 454.126239 
L 85.476939 454.126239 
L 85.643008 257.933546 
L 87.732029 257.933546 
L 87.741574 261.268266 
L 90.268893 261.268266 
L 90.432531 260.712479 
L 90.742068 260.712479 
L 91.026423 260.156692 
L 92.788409 259.600906 
L 92.823195 260.156692 
L 92.887306 259.600906 
L 98.364005 259.600906 
L 101.655727 260.712479 
L 102.1455 259.600906 
L 102.50312 259.600906 
L 103.404447 259.045119 
L 103.781546 256.821972 
L 104.515815 256.821972 
L 105.585823 260.712479 
L 105.655246 256.821972 
L 106.476315 256.266186 
L 108.613179 256.266186 
L 109.176817 255.710399 
L 110.014034 255.710399 
L 110.288815 254.598826 
L 115.456847 254.598826 
L 115.837458 253.487252 
L 115.856967 252.375679 
L 117.500217 252.375679 
L 119.923267 251.264106 
L 121.19434 251.264106 
L 121.21358 250.708319 
L 124.132645 250.708319 
L 124.856769 247.929386 
L 127.148446 247.929386 
L 127.164354 247.373599 
L 139.998895 247.373599 
L 142.397994 246.817812 
L 142.479903 247.373599 
L 144.968083 246.817812 
L 153.626743 246.817812 
L 157.823485 246.262026 
L 157.904553 245.706239 
L 158.103908 245.150452 
L 160.471431 245.150452 
L 161.47907 244.594666 
L 165.634452 244.594666 
L 165.792207 247.373599 
L 165.79995 245.150452 
L 166.001976 245.150452 
L 167.12616 242.927306 
L 171.916883 242.927306 
L 175.68124 242.371519 
L 179.865076 242.371519 
L 180.048673 241.815732 
L 190.920342 241.815732 
L 191.384333 241.259946 
L 194.024115 241.259946 
L 194.042724 240.148372 
L 199.072451 240.148372 
L 199.17447 236.257866 
L 208.278 236.257866 
L 208.280732 235.702079 
L 208.544377 235.702079 
L 209.691761 235.146292 
L 210.857785 235.146292 
L 211.228641 234.590506 
L 211.265738 235.146292 
L 212.114961 234.590506 
L 212.118833 234.034719 
L 212.138673 234.590506 
L 212.629226 234.034719 
L 217.097836 234.034719 
L 218.487166 233.478932 
L 220.135728 233.478932 
L 222.935787 232.923146 
L 225.586555 232.923146 
L 227.634547 231.811572 
L 232.116454 231.811572 
L 234.723612 230.699999 
L 235.45818 231.255786 
L 239.097077 231.255786 
L 243.201915 229.032639 
L 249.323771 229.032639 
L 251.222382 228.476852 
L 285.05789 228.476852 
L 285.33114 227.921066 
L 297.670176 227.921066 
L 297.876344 227.365279 
L 318.872419 227.365279 
L 323.495693 226.809492 
L 323.522436 227.365279 
L 326.832016 225.697919 
L 331.689011 225.697919 
L 334.3411 225.142132 
L 334.345452 224.586346 
L 339.879058 224.586346 
L 341.865131 225.142132 
L 342.57908 224.586346 
L 351.839855 224.586346 
L 352.233972 225.142132 
L 352.955935 224.586346 
L 353.204032 222.363199 
L 357.447957 222.363199 
L 357.451618 221.807412 
L 370.437942 221.807412 
L 371.194181 221.251626 
L 373.689925 221.251626 
L 373.933401 220.695839 
L 386.103487 220.695839 
L 386.120024 220.140052 
L 389.163949 220.140052 
L 389.168481 219.584266 
L 389.907102 219.584266 
L 389.94567 219.028479 
L 391.092664 219.028479 
L 391.27287 218.472692 
L 393.727795 218.472692 
L 394.100962 217.361119 
L 395.452414 215.137972 
L 398.720455 215.137972 
L 398.961739 212.359039 
L 400.057589 212.359039 
L 400.595415 211.247466 
L 403.36681 211.247466 
L 404.276181 210.691679 
L 406.879257 210.691679 
L 407.228142 210.135892 
L 414.298328 210.135892 
L 414.472531 209.580106 
L 415.126451 209.580106 
L 416.141683 209.024319 
L 427.57723 209.024319 
L 427.679969 208.468532 
L 428.046623 208.468532 
L 428.812046 207.356959 
L 429.885175 207.356959 
L 430.143208 206.801172 
L 430.391816 206.801172 
L 430.486151 206.245386 
L 433.355993 206.245386 
L 433.844565 205.689599 
L 436.34253 205.689599 
L 436.502686 205.133812 
L 437.870976 205.133812 
L 437.958647 204.578026 
L 442.210975 204.578026 
L 442.302399 204.022239 
L 444.782416 204.022239 
L 445.610749 201.799092 
L 446.529125 201.799092 
L 446.530085 201.243306 
L 450.259055 201.243306 
L 450.942689 200.687519 
L 453.797914 200.687519 
L 454.360291 200.131732 
L 454.571832 200.131732 
L 455.121333 199.575946 
L 456.524979 199.575946 
L 456.687206 199.020159 
L 460.207546 199.020159 
L 461.114967 198.464372 
L 461.181059 197.908586 
L 461.474838 197.908586 
L 462.402098 195.685439 
L 465.277793 195.685439 
L 465.298503 195.129652 
L 468.035322 195.129652 
L 468.296115 194.573866 
L 468.607243 194.573866 
L 468.920202 194.018079 
L 468.985483 194.573866 
L 469.219834 194.018079 
L 470.261028 194.018079 
L 470.270993 193.462292 
L 470.547484 193.462292 
L 470.668561 192.906506 
L 471.505178 192.350719 
L 477.326021 192.350719 
L 478.235813 191.794932 
L 478.844832 191.794932 
L 479.338926 191.239146 
L 479.838753 191.794932 
L 481.89674 191.794932 
L 481.985492 190.683359 
L 484.939884 190.683359 
L 486.086189 189.015999 
L 498.528504 189.015999 
L 499.251637 188.460212 
L 518.457032 188.460212 
L 518.575018 187.904426 
L 546.795341 187.904426 
L 546.91966 187.348639 
L 546.928574 186.792852 
L 546.937429 187.348639 
L 551.050491 187.348639 
L 551.979161 186.792852 
L 568.183222 186.792852 
L 571.517654 186.237066 
L 571.55007 185.681279 
L 571.826111 185.681279 
L 572.690761 185.125492 
L 598.697204 185.125492 
L 598.949624 184.569706 
L 622.07638 184.569706 
L 625.044848 184.013919 
L 626.86062 184.013919 
L 627.057664 183.458132 
L 628.319703 182.902346 
L 631.858892 182.902346 
L 633.34946 182.346559 
L 634.90918 182.346559 
L 635.030648 181.790772 
L 637.596085 181.790772 
L 637.902531 181.234986 
L 637.96319 180.679199 
L 642.530727 180.679199 
L 642.548436 180.123412 
L 646.437471 180.123412 
L 646.446056 179.567626 
L 647.763741 179.011839 
L 650.102991 179.011839 
L 651.78637 178.456052 
L 653.292875 178.456052 
L 655.513269 175.121332 
L 658.105539 175.121332 
L 658.117545 172.342399 
L 671.151561 172.342399 
L 671.152911 171.786612 
L 671.378348 171.230826 
L 672.626761 171.230826 
L 672.8983 170.675039 
L 676.993173 170.675039 
L 677.939793 170.119252 
L 678.095536 170.675039 
L 685.419672 170.675039 
L 685.421323 170.119252 
L 688.378477 170.119252 
L 689.588201 167.340319 
L 697.004391 167.340319 
L 697.083598 166.228746 
L 698.760374 164.561386 
L 700.442852 164.561386 
L 700.622068 164.005599 
L 707.694744 164.005599 
L 707.824796 163.449812 
L 714.926556 163.449812 
L 715.08125 162.894026 
L 717.038539 161.226666 
L 717.190201 160.670879 
L 736.471562 160.670879 
L 738.297058 157.891946 
L 742.652905 157.891946 
L 742.93663 157.336159 
L 746.209143 157.336159 
L 747.427181 156.224586 
L 764.676038 156.224586 
L 764.894721 155.668799 
L 767.41976 155.668799 
L 767.690248 155.113012 
L 784.324053 155.113012 
L 784.332577 153.445652 
L 784.849212 153.445652 
L 784.936553 152.889866 
L 787.901841 152.889866 
L 788.319279 152.334079 
L 788.32177 152.889866 
L 795.835416 152.889866 
L 797.648006 152.334079 
L 812.012614 152.334079 
L 812.012614 152.334079 
" clip-path="url(#p514d73947b)" style="fill: none; stroke: #3fb950; stroke-width: 2; stroke-linecap: square"/>
   </g>
   <g id="line2d_28">
    <path d="M 85.239886 455.237812 
L 85.321075 453.570452 
L 85.409407 453.570452 
L 85.547442 372.981386 
L 86.70149 372.981386 
L 86.726672 370.758239 
L 87.988981 370.758239 
L 88.314215 369.090879 
L 88.756745 370.758239 
L 88.760017 369.090879 
L 89.126191 369.090879 
L 89.267708 367.979306 
L 92.883854 367.979306 
L 92.887306 367.423519 
L 92.907655 367.979306 
L 93.08564 367.423519 
L 93.137835 367.979306 
L 93.37966 367.423519 
L 94.546013 367.423519 
L 94.612405 366.867732 
L 94.79324 366.311946 
L 96.22597 366.311946 
L 97.856404 365.756159 
L 97.913791 365.200372 
L 98.354461 364.644586 
L 98.364005 364.088799 
L 101.655727 367.979306 
L 102.1455 366.311946 
L 102.50312 363.533012 
L 104.515815 363.533012 
L 105.585823 367.979306 
L 105.655246 363.533012 
L 125.207755 363.533012 
L 125.80774 362.977226 
L 127.164354 362.977226 
L 130.869492 362.421439 
L 131.772021 361.865652 
L 144.631624 361.865652 
L 144.968083 361.309866 
L 146.696724 360.754079 
L 147.795425 360.754079 
L 149.013283 360.198292 
L 149.046089 359.086719 
L 149.883246 358.530932 
L 150.445893 357.975146 
L 158.197072 357.975146 
L 159.742205 357.419359 
L 160.209317 357.419359 
L 160.471431 356.863572 
L 161.47907 356.863572 
L 162.480135 356.307786 
L 165.634452 356.307786 
L 165.792207 358.530932 
L 165.79995 356.307786 
L 167.005172 356.307786 
L 167.12616 355.751999 
L 168.832109 355.751999 
L 170.510536 355.196212 
L 170.551265 354.640426 
L 175.68124 354.640426 
L 177.844997 354.084639 
L 177.850459 353.528852 
L 185.050757 353.528852 
L 188.054282 352.973066 
L 190.307692 352.973066 
L 190.920342 352.417279 
L 194.360005 352.417279 
L 196.321856 351.861492 
L 196.429397 351.305706 
L 198.342115 351.305706 
L 198.5641 350.749919 
L 199.17447 350.194132 
L 200.537027 350.194132 
L 201.397295 349.638346 
L 202.974573 349.638346 
L 204.004002 349.082559 
L 206.200084 349.082559 
L 206.948249 347.970986 
L 212.629226 347.970986 
L 214.247113 347.415199 
L 216.144254 347.415199 
L 216.572077 346.859412 
L 216.702909 346.303626 
L 217.097836 345.747839 
L 223.630857 345.747839 
L 224.826985 345.192052 
L 225.586555 344.636266 
L 244.163962 344.636266 
L 248.334141 344.080479 
L 248.383965 343.524692 
L 251.222382 343.524692 
L 253.648433 342.968906 
L 257.936448 342.968906 
L 258.29878 342.413119 
L 265.601456 342.413119 
L 271.318029 341.857332 
L 271.372895 341.301546 
L 272.12025 341.301546 
L 273.634439 340.745759 
L 273.718899 339.078399 
L 273.78553 338.522612 
L 276.948401 337.966826 
L 277.137791 337.411039 
L 277.213277 336.299466 
L 277.499733 335.743679 
L 287.792038 335.743679 
L 290.715906 335.187892 
L 292.577149 334.632106 
L 294.035241 334.632106 
L 297.415955 334.076319 
L 297.670176 331.853172 
L 297.876344 331.853172 
L 298.362425 330.741599 
L 304.774938 330.185812 
L 304.979035 329.630026 
L 305.039243 329.074239 
L 306.393996 329.074239 
L 307.673294 328.518452 
L 307.820333 327.962666 
L 307.920191 326.851092 
L 308.766983 326.295306 
L 308.829142 325.739519 
L 310.374155 325.183732 
L 312.405039 324.627946 
L 312.549468 324.072159 
L 312.552529 323.516372 
L 312.961023 322.960586 
L 313.033177 322.404799 
L 315.979166 321.849012 
L 316.507296 321.293226 
L 328.909392 321.293226 
L 330.966088 320.737439 
L 331.153257 320.181652 
L 339.558806 320.181652 
L 339.879058 319.070079 
L 343.381211 319.070079 
L 344.438552 318.514292 
L 344.490207 317.402719 
L 344.761716 316.846932 
L 346.559539 316.291146 
L 346.600028 315.735359 
L 346.817031 315.179572 
L 347.039407 312.956426 
L 347.287114 312.956426 
L 347.296239 312.400639 
L 348.797101 311.844852 
L 349.387151 311.289066 
L 349.529929 310.733279 
L 352.233972 310.177492 
L 354.226738 310.177492 
L 354.918716 309.621706 
L 362.411022 309.621706 
L 364.89317 309.065919 
L 364.903045 308.510132 
L 365.349447 307.954346 
L 371.194181 307.954346 
L 372.834099 307.398559 
L 373.50966 306.842772 
L 373.689925 305.731199 
L 378.417709 305.731199 
L 378.739822 305.175412 
L 381.335994 305.175412 
L 382.578914 304.619626 
L 386.120024 304.619626 
L 388.26079 304.063839 
L 392.70647 304.063839 
L 393.25288 303.508052 
L 395.452414 303.508052 
L 396.051108 302.952266 
L 396.310821 302.396479 
L 396.438742 301.840692 
L 398.249291 301.840692 
L 398.300765 300.729119 
L 398.961739 300.729119 
L 399.395715 299.061759 
L 400.970653 299.061759 
L 401.166255 298.505972 
L 401.318097 298.505972 
L 402.071935 297.950186 
L 403.322899 297.950186 
L 403.36681 297.394399 
L 404.276181 297.394399 
L 404.497056 296.838612 
L 405.351772 296.838612 
L 406.660423 295.727039 
L 407.228142 295.727039 
L 409.423834 294.615466 
L 409.427136 294.059679 
L 409.846345 293.503892 
L 410.915933 292.948106 
L 411.082242 292.392319 
L 412.148648 291.836532 
L 413.891875 291.836532 
L 414.472531 290.724959 
L 416.59856 290.724959 
L 416.658918 290.169172 
L 417.264606 290.169172 
L 417.311098 289.613386 
L 417.643476 289.057599 
L 418.799984 289.057599 
L 418.887956 288.501812 
L 419.08608 288.501812 
L 419.205657 287.946026 
L 419.215171 287.946026 
L 419.309716 287.390239 
L 420.844165 287.390239 
L 421.166217 286.834452 
L 421.436646 286.834452 
L 421.598272 286.278666 
L 422.011028 286.278666 
L 422.320055 285.722879 
L 422.385216 285.167092 
L 422.473548 285.167092 
L 424.026995 284.611306 
L 425.189477 284.611306 
L 425.277479 284.055519 
L 429.863175 284.055519 
L 429.885175 283.499732 
L 430.143208 283.499732 
L 430.750396 282.388159 
L 432.299161 282.388159 
L 432.442779 280.720799 
L 432.484679 279.609226 
L 432.755378 279.053439 
L 433.844565 279.053439 
L 434.358258 278.497652 
L 434.856165 278.497652 
L 435.016711 277.941866 
L 435.788527 277.386079 
L 436.502686 277.386079 
L 437.938418 276.830292 
L 438.033923 276.274506 
L 438.397395 276.274506 
L 438.47012 275.718719 
L 439.746416 275.718719 
L 439.781862 275.162932 
L 445.97143 275.162932 
L 446.085814 274.607146 
L 446.251193 274.607146 
L 446.332832 273.495572 
L 447.12983 273.495572 
L 447.29944 272.939786 
L 447.851462 272.383999 
L 447.990218 271.828212 
L 448.243748 271.828212 
L 448.45829 271.272426 
L 448.528223 270.716639 
L 451.63833 270.716639 
L 452.423352 270.160852 
L 452.578406 269.049279 
L 452.769476 268.493492 
L 453.088438 268.493492 
L 453.28284 267.937706 
L 457.746198 267.937706 
L 458.040848 266.270346 
L 458.650708 266.270346 
L 458.74024 265.714559 
L 461.123341 265.714559 
L 461.181059 264.602986 
L 464.043277 264.602986 
L 464.072931 264.047199 
L 465.451725 264.047199 
L 465.461 263.491412 
L 466.132418 263.491412 
L 466.243771 262.935626 
L 468.194457 262.935626 
L 468.296115 262.379839 
L 468.425627 262.379839 
L 468.607243 261.824052 
L 468.975908 261.824052 
L 468.985483 261.268266 
L 469.219834 261.268266 
L 469.666896 260.712479 
L 473.27785 260.712479 
L 473.540294 260.156692 
L 474.611713 260.156692 
L 474.613694 259.600906 
L 482.805361 259.600906 
L 484.195711 259.045119 
L 484.23602 258.489332 
L 484.939884 257.933546 
L 486.010162 257.933546 
L 486.086189 256.821972 
L 486.27978 256.821972 
L 486.360369 256.266186 
L 489.202838 256.266186 
L 489.716141 255.710399 
L 494.632865 255.710399 
L 494.647992 255.154612 
L 496.253844 255.154612 
L 496.94012 254.598826 
L 504.498427 254.598826 
L 504.592762 253.487252 
L 507.565313 253.487252 
L 508.156563 252.931466 
L 508.789714 252.931466 
L 509.563721 252.375679 
L 514.679919 252.375679 
L 515.169842 251.819892 
L 515.594363 251.819892 
L 515.802512 251.264106 
L 517.432345 250.708319 
L 518.230184 250.708319 
L 518.575018 250.152532 
L 520.864774 249.596746 
L 525.080665 249.596746 
L 525.410582 249.040959 
L 541.682775 249.040959 
L 542.277327 248.485172 
L 546.040303 248.485172 
L 546.176297 247.929386 
L 546.420733 247.929386 
L 546.494418 247.373599 
L 567.509042 247.373599 
L 568.183222 246.817812 
L 573.200793 246.817812 
L 574.290761 246.262026 
L 574.363815 245.706239 
L 576.974424 245.706239 
L 577.082746 245.150452 
L 585.538779 245.150452 
L 585.556097 244.594666 
L 592.694385 244.594666 
L 592.771221 244.038879 
L 593.234851 243.483092 
L 594.986543 243.483092 
L 594.990565 242.927306 
L 595.346534 242.371519 
L 597.976592 242.371519 
L 598.845504 241.815732 
L 604.453726 241.815732 
L 604.493225 240.704159 
L 640.042606 240.704159 
L 642.548436 240.148372 
L 645.701072 240.148372 
L 645.805822 239.592586 
L 659.782945 239.592586 
L 659.806416 239.036799 
L 674.402674 239.036799 
L 674.553135 238.481012 
L 675.421537 238.481012 
L 675.444168 237.925226 
L 675.640431 237.369439 
L 676.403904 236.257866 
L 676.516127 235.146292 
L 676.580988 234.034719 
L 676.77653 233.478932 
L 676.821762 232.923146 
L 676.993173 232.367359 
L 678.095536 232.367359 
L 678.232581 231.811572 
L 678.239035 231.255786 
L 678.652421 230.699999 
L 685.421323 230.699999 
L 686.15091 229.588426 
L 707.501092 229.588426 
L 707.636757 229.032639 
L 720.668582 229.032639 
L 720.977218 227.921066 
L 722.374711 227.921066 
L 722.56191 227.365279 
L 730.864841 227.365279 
L 731.072329 226.809492 
L 734.335898 226.809492 
L 735.207512 226.253706 
L 735.289481 225.697919 
L 740.186095 225.697919 
L 740.338627 224.586346 
L 740.970337 224.030559 
L 741.561227 224.030559 
L 742.652905 223.474772 
L 745.791195 223.474772 
L 745.839038 222.918986 
L 746.209143 222.363199 
L 748.769869 222.363199 
L 751.483426 221.807412 
L 764.894721 221.807412 
L 766.479954 221.251626 
L 767.066852 220.695839 
L 767.41976 219.584266 
L 769.306995 219.584266 
L 776.996435 218.472692 
L 778.925901 218.472692 
L 779.138462 217.361119 
L 779.399495 217.361119 
L 779.531918 216.805332 
L 790.338097 216.805332 
L 790.350763 216.249546 
L 808.408323 216.249546 
L 810.808442 215.693759 
L 810.95206 214.582186 
L 811.043124 214.582186 
L 811.144602 213.470612 
L 811.286539 213.470612 
L 811.305808 212.914826 
L 812.012614 212.914826 
L 812.012614 212.914826 
" clip-path="url(#p514d73947b)" style="fill: none; stroke: #58a6ff; stroke-width: 2; stroke-linecap: square"/>
   </g>
   <g id="line2d_29">
    <path d="M 85.239886 455.237812 
L 87.732029 455.237812 
L 87.741574 454.126239 
L 89.79899 454.126239 
L 90.268893 453.570452 
L 217.097836 453.570452 
L 218.487166 453.014666 
L 253.648433 453.014666 
L 254.624226 452.458879 
L 287.792038 452.458879 
L 290.715906 451.903092 
L 298.362425 451.903092 
L 305.039243 450.235732 
L 306.393996 449.124159 
L 308.829142 449.124159 
L 310.374155 448.568372 
L 312.552529 448.012586 
L 313.033177 448.012586 
L 315.979166 447.456799 
L 316.507296 446.901012 
L 318.872419 446.345226 
L 323.495693 445.789439 
L 323.522436 446.345226 
L 331.153257 446.345226 
L 331.689011 445.789439 
L 342.57908 445.789439 
L 343.381211 445.233652 
L 347.039407 445.233652 
L 347.296239 444.677866 
L 351.839855 444.677866 
L 352.233972 444.122079 
L 368.878822 444.122079 
L 370.437942 443.566292 
L 371.093213 443.566292 
L 371.194181 443.010506 
L 375.636559 443.010506 
L 375.640791 442.454719 
L 386.103487 442.454719 
L 386.120024 441.898932 
L 389.168481 441.898932 
L 389.94567 441.343146 
L 391.090654 440.787359 
L 391.092664 440.231572 
L 391.27287 440.231572 
L 392.70647 438.564212 
L 393.672209 438.564212 
L 393.727795 436.896852 
L 394.100962 436.896852 
L 395.452414 437.452639 
L 396.424335 437.452639 
L 396.438742 435.229492 
L 400.057589 435.229492 
L 400.595415 434.673706 
L 401.166255 434.673706 
L 401.318097 434.117919 
L 414.298328 434.117919 
L 414.472531 433.562132 
L 415.126451 433.562132 
L 416.141683 433.006346 
L 420.620739 433.006346 
L 420.844165 432.450559 
L 422.385216 432.450559 
L 422.473548 431.894772 
L 427.57723 431.894772 
L 427.679969 431.338986 
L 428.046623 431.338986 
L 428.418499 430.783199 
L 428.790016 430.783199 
L 428.812046 430.227412 
L 430.391816 430.227412 
L 430.486151 429.671626 
L 437.820101 429.671626 
L 437.942439 429.115839 
L 437.958647 429.115839 
L 438.033923 428.560052 
L 438.47012 428.560052 
L 439.384534 428.004266 
L 442.959501 428.004266 
L 442.962652 427.448479 
L 443.645746 427.448479 
L 443.671739 426.892692 
L 445.610749 426.892692 
L 446.067055 426.336906 
L 448.602059 426.336906 
L 449.351514 425.781119 
L 450.809036 425.781119 
L 450.824493 424.669546 
L 450.942689 424.669546 
L 451.09144 424.113759 
L 453.436123 424.113759 
L 453.797914 423.557972 
L 454.360291 423.557972 
L 454.571832 423.002186 
L 455.944503 423.002186 
L 456.136174 422.446399 
L 456.138635 421.890612 
L 456.524979 421.890612 
L 456.687206 421.334826 
L 471.473783 421.334826 
L 471.505178 420.223252 
L 473.540294 420.223252 
L 474.126022 419.667466 
L 474.613694 419.667466 
L 476.901409 419.111679 
L 477.326021 419.111679 
L 478.235813 418.555892 
L 478.844832 418.555892 
L 479.338926 418.000106 
L 479.838753 418.555892 
L 481.447787 418.555892 
L 481.885335 418.000106 
L 481.985492 416.888532 
L 482.799869 416.332746 
L 482.805361 415.221172 
L 486.360369 415.221172 
L 487.137828 414.665386 
L 487.216615 412.998026 
L 487.993684 412.442239 
L 488.423428 411.886452 
L 492.098912 411.886452 
L 492.254866 410.219092 
L 492.442335 410.219092 
L 492.581331 409.663306 
L 493.479597 409.107519 
L 494.893539 409.107519 
L 495.184827 408.551732 
L 495.251098 407.995946 
L 495.399729 407.995946 
L 496.253844 406.884372 
L 497.168948 406.884372 
L 497.469421 406.328586 
L 498.525022 406.328586 
L 498.528504 405.217012 
L 499.251637 405.217012 
L 500.211642 404.661226 
L 502.75502 403.549652 
L 503.096252 402.993866 
L 508.156563 402.993866 
L 508.789714 401.882292 
L 518.457032 401.882292 
L 518.575018 400.770719 
L 523.280501 400.770719 
L 523.999462 400.214932 
L 526.181228 400.214932 
L 526.303686 399.659146 
L 539.726146 399.659146 
L 539.940388 399.103359 
L 541.269899 399.103359 
L 541.682775 398.547572 
L 544.164052 398.547572 
L 544.630714 397.991786 
L 544.633775 397.435999 
L 545.167489 396.880212 
L 546.795341 396.880212 
L 546.91966 396.324426 
L 546.928574 395.212852 
L 546.937429 395.768639 
L 548.031328 395.212852 
L 551.979161 395.212852 
L 552.757881 394.101279 
L 559.881012 394.101279 
L 560.431743 393.545492 
L 562.159753 393.545492 
L 562.298089 392.989706 
L 562.317118 392.433919 
L 568.183222 392.433919 
L 571.826111 391.322346 
L 572.690761 391.322346 
L 573.200793 390.766559 
L 580.746614 390.766559 
L 581.674115 390.210772 
L 582.82339 390.210772 
L 583.936468 389.654986 
L 593.234851 389.654986 
L 593.490033 389.099199 
L 593.491413 388.543412 
L 598.697204 388.543412 
L 598.949624 387.987626 
L 622.07638 387.987626 
L 625.044848 387.431839 
L 631.858892 387.431839 
L 633.34946 386.876052 
L 634.660962 386.876052 
L 635.030648 386.320266 
L 637.96319 386.320266 
L 638.479074 385.764479 
L 639.159467 385.764479 
L 640.042606 385.208692 
L 642.159481 385.208692 
L 642.548436 384.652906 
L 642.808989 384.652906 
L 643.75756 384.097119 
L 652.921839 384.097119 
L 652.947471 382.429759 
L 660.943806 382.429759 
L 664.334665 381.873972 
L 664.337427 381.318186 
L 668.313594 381.318186 
L 668.480503 380.762399 
L 668.482964 380.206612 
L 670.342857 380.206612 
L 671.152911 379.650826 
L 671.732396 379.650826 
L 672.626761 379.095039 
L 673.586526 379.095039 
L 673.752385 377.983466 
L 674.553135 377.983466 
L 674.712721 377.427679 
L 676.514566 377.427679 
L 676.580988 376.871892 
L 679.421056 376.871892 
L 681.478562 376.316106 
L 682.153432 376.316106 
L 682.815937 375.760319 
L 684.184496 375.204532 
L 684.190349 374.648746 
L 684.567748 372.981386 
L 684.912612 372.425599 
L 685.421323 371.869812 
L 686.78463 371.869812 
L 687.611403 370.202452 
L 689.588201 370.202452 
L 690.123445 368.535092 
L 692.298637 368.535092 
L 692.528967 367.979306 
L 694.105525 367.979306 
L 694.448137 366.867732 
L 695.041789 366.311946 
L 697.083598 366.311946 
L 700.622068 365.200372 
L 702.890754 364.644586 
L 703.044877 364.088799 
L 705.190746 364.088799 
L 705.328031 363.533012 
L 707.683909 363.533012 
L 707.694744 362.977226 
L 708.136374 362.977226 
L 708.23317 362.421439 
L 714.926556 362.421439 
L 715.08125 361.865652 
L 717.190201 361.309866 
L 720.658647 361.309866 
L 720.668582 360.754079 
L 733.393301 360.754079 
L 734.335898 358.530932 
L 739.557837 358.530932 
L 739.56555 357.419359 
L 746.209143 357.419359 
L 747.4246 355.751999 
L 747.427181 355.196212 
L 752.12339 355.196212 
L 753.70349 354.084639 
L 753.774204 353.528852 
L 783.297986 353.528852 
L 784.475174 352.973066 
L 787.578227 352.973066 
L 787.901841 351.861492 
L 812.012614 351.861492 
L 812.012614 351.861492 
" clip-path="url(#p514d73947b)" style="fill: none; stroke: #d29922; stroke-width: 2; stroke-linecap: square"/>
   </g>
   <g id="line2d_30">
    <path d="M 85.239886 454.682026 
L 85.453048 454.682026 
L 85.547442 432.450559 
L 86.040756 426.892692 
L 86.32265 425.781119 
L 86.465668 426.336906 
L 86.726672 425.781119 
L 87.168091 425.225332 
L 87.741574 423.002186 
L 87.988981 421.334826 
L 88.314215 421.334826 
L 88.756745 420.779039 
L 88.760017 420.223252 
L 89.116316 419.667466 
L 89.214553 419.111679 
L 89.267708 419.111679 
L 90.17858 418.000106 
L 90.268893 411.886452 
L 90.331353 412.442239 
L 90.617689 405.217012 
L 90.742068 402.993866 
L 92.887306 402.993866 
L 93.08564 399.659146 
L 93.137835 402.438079 
L 93.37966 397.991786 
L 93.499416 397.435999 
L 94.39165 396.880212 
L 94.546013 395.768639 
L 94.79324 395.768639 
L 95.252728 395.212852 
L 95.498185 394.657066 
L 95.609358 393.545492 
L 95.67698 392.989706 
L 95.906289 392.433919 
L 95.911961 391.878132 
L 96.142591 392.433919 
L 96.208232 391.878132 
L 96.216306 392.433919 
L 96.22597 390.766559 
L 98.364005 390.766559 
L 101.655727 402.993866 
L 102.1455 390.210772 
L 102.50312 389.654986 
L 103.781546 389.654986 
L 104.015387 389.099199 
L 104.515815 388.543412 
L 105.585823 402.993866 
L 105.655246 387.987626 
L 106.476315 387.431839 
L 108.232179 386.876052 
L 108.357398 387.431839 
L 108.613179 385.764479 
L 109.176817 385.764479 
L 109.348078 385.208692 
L 109.671542 384.652906 
L 109.698374 383.541332 
L 109.996746 382.429759 
L 110.014034 382.985546 
L 110.191508 382.985546 
L 110.288815 381.873972 
L 111.012038 376.871892 
L 111.199867 377.983466 
L 112.527937 374.648746 
L 112.877633 375.760319 
L 114.316756 373.537172 
L 115.456847 377.427679 
L 115.856967 373.537172 
L 117.500217 371.869812 
L 119.923267 371.869812 
L 120.243279 371.314026 
L 120.49795 369.646666 
L 121.21358 371.314026 
L 124.132645 371.869812 
L 124.856769 369.646666 
L 125.207755 367.979306 
L 125.80774 369.646666 
L 127.164354 367.979306 
L 131.772021 367.979306 
L 136.61701 367.423519 
L 136.940113 366.867732 
L 139.998895 366.311946 
L 142.021495 366.311946 
L 142.397994 365.756159 
L 142.479903 366.311946 
L 144.631624 364.644586 
L 146.649872 364.644586 
L 146.696724 364.088799 
L 147.795425 363.533012 
L 150.445893 363.533012 
L 151.615068 359.642506 
L 152.485271 359.086719 
L 153.605013 358.530932 
L 153.626743 357.975146 
L 157.823485 357.975146 
L 157.904553 354.084639 
L 158.059877 354.084639 
L 158.197072 352.973066 
L 159.742205 352.973066 
L 160.209317 352.417279 
L 162.480135 352.417279 
L 165.634452 351.861492 
L 165.792207 363.533012 
L 165.79995 352.417279 
L 166.001976 351.861492 
L 167.12616 351.861492 
L 168.832109 351.305706 
L 170.551265 351.305706 
L 171.916883 350.749919 
L 175.68124 349.638346 
L 177.850459 349.638346 
L 179.593807 349.082559 
L 179.865076 346.303626 
L 180.048673 346.303626 
L 180.373547 345.747839 
L 182.068121 345.192052 
L 182.459837 342.968906 
L 184.801879 341.857332 
L 184.830092 342.413119 
L 185.050757 341.857332 
L 188.054282 340.745759 
L 190.307692 340.189972 
L 191.384333 340.189972 
L 192.338606 339.634186 
L 193.165588 338.522612 
L 194.042724 337.966826 
L 194.360005 337.411039 
L 196.429397 337.966826 
L 198.342115 336.855252 
L 198.5641 337.411039 
L 199.072451 337.411039 
L 199.17447 336.855252 
L 200.537027 336.299466 
L 201.397295 336.855252 
L 202.974573 335.743679 
L 204.004002 335.743679 
L 206.200084 335.187892 
L 206.564247 335.743679 
L 206.948249 334.076319 
L 208.280732 334.076319 
L 208.544377 333.520532 
L 209.691761 331.297386 
L 210.015945 330.185812 
L 210.857785 330.741599 
L 211.228641 329.630026 
L 211.265738 329.074239 
L 214.247113 329.074239 
L 215.7571 328.518452 
L 216.144254 327.962666 
L 218.487166 327.962666 
L 220.135728 327.406879 
L 222.935787 327.406879 
L 223.630857 326.851092 
L 231.330531 326.851092 
L 231.772731 326.295306 
L 231.817032 325.739519 
L 232.116454 325.183732 
L 235.45818 325.183732 
L 235.666449 324.627946 
L 236.516663 324.072159 
L 236.663912 323.516372 
L 238.072541 322.960586 
L 239.097077 322.404799 
L 243.201915 322.404799 
L 244.163962 321.293226 
L 248.383965 321.293226 
L 249.323771 320.737439 
L 253.256657 320.737439 
L 253.648433 320.181652 
L 254.624226 319.625866 
L 254.914704 319.070079 
L 255.013331 318.514292 
L 257.936448 317.958506 
L 258.29878 318.514292 
L 262.146877 317.402719 
L 265.189391 316.291146 
L 265.601456 315.735359 
L 271.372895 315.735359 
L 272.12025 315.179572 
L 277.499733 315.179572 
L 282.567098 314.623786 
L 283.204481 314.067999 
L 285.33114 313.512212 
L 287.463802 312.956426 
L 287.792038 312.400639 
L 292.577149 312.400639 
L 294.035241 311.844852 
L 305.039243 311.844852 
L 306.393996 311.289066 
L 315.4836 311.289066 
L 315.979166 310.733279 
L 316.507296 311.289066 
L 318.872419 310.733279 
L 326.832016 310.733279 
L 327.898663 310.177492 
L 344.736864 310.177492 
L 344.761716 309.621706 
L 355.160991 309.621706 
L 357.445766 309.065919 
L 357.451618 308.510132 
L 368.873749 308.510132 
L 368.878822 307.398559 
L 375.640791 307.398559 
L 378.739822 306.842772 
L 382.578914 306.842772 
L 386.120024 305.731199 
L 393.25288 305.731199 
L 393.672209 305.175412 
L 393.727795 304.619626 
L 396.424335 304.619626 
L 396.438742 304.063839 
L 396.718745 304.063839 
L 397.165086 303.508052 
L 401.166255 303.508052 
L 401.318097 302.952266 
L 406.660423 302.952266 
L 406.879257 302.396479 
L 419.926089 302.396479 
L 420.619748 300.729119 
L 420.620739 300.173332 
L 422.469136 300.173332 
L 422.473548 299.617546 
L 427.925665 299.617546 
L 428.046623 299.061759 
L 430.656632 299.061759 
L 430.750396 298.505972 
L 440.446438 298.505972 
L 440.632886 297.950186 
L 442.883474 297.950186 
L 442.962652 297.394399 
L 443.671739 296.838612 
L 461.474838 296.838612 
L 462.402098 295.727039 
L 463.790077 295.727039 
L 464.072931 295.171252 
L 465.461 295.171252 
L 465.666717 294.615466 
L 468.946284 294.615466 
L 468.985483 294.059679 
L 487.136297 294.059679 
L 487.216615 292.948106 
L 509.904413 292.948106 
L 510.493652 292.392319 
L 549.230517 292.392319 
L 551.050491 291.836532 
L 567.42098 291.836532 
L 567.509042 291.280746 
L 574.83807 291.280746 
L 575.194309 290.724959 
L 720.249673 290.724959 
L 720.668582 290.169172 
L 739.085953 290.169172 
L 739.56555 289.613386 
L 746.209143 289.613386 
L 747.412865 289.057599 
L 747.427181 285.167092 
L 753.699978 285.167092 
L 753.774204 282.388159 
L 812.012614 282.388159 
L 812.012614 282.388159 
" clip-path="url(#p514d73947b)" style="fill: none; stroke: #f85149; stroke-width: 2; stroke-linecap: square"/>
   </g>
   <g id="line2d_31">
    <path d="M 85.239886 454.682026 
L 85.256844 454.126239 
L 85.390546 -1 
M 85.510715 -1 
L 85.643008 101.201706 
L 87.732029 101.201706 
L 87.741574 97.866986 
L 90.268893 97.866986 
L 90.432531 98.422772 
L 90.742068 98.422772 
L 91.026423 98.978559 
L 92.788409 99.534346 
L 92.823195 98.978559 
L 92.887306 99.534346 
L 98.364005 99.534346 
L 101.655727 98.422772 
L 102.1455 99.534346 
L 102.50312 98.978559 
L 103.404447 99.534346 
L 103.781546 96.755412 
L 104.515815 96.755412 
L 105.585823 98.422772 
L 105.655246 95.643839 
L 106.476315 96.199626 
L 108.613179 96.199626 
L 109.176817 95.088052 
L 110.014034 95.088052 
L 110.288815 91.197546 
L 115.456847 91.197546 
L 115.856967 86.751252 
L 117.500217 86.751252 
L 119.923267 82.860746 
L 121.19434 82.860746 
L 121.21358 83.416532 
L 124.132645 83.416532 
L 124.856769 80.081812 
L 127.148446 80.081812 
L 127.164354 80.637599 
L 139.998895 80.637599 
L 142.397994 81.193386 
L 142.479903 80.637599 
L 144.968083 81.193386 
L 153.626743 81.193386 
L 157.823485 81.749172 
L 157.904553 74.523946 
L 158.103908 75.079732 
L 160.471431 75.079732 
L 161.47907 75.635519 
L 165.634452 75.635519 
L 165.792207 80.637599 
L 165.79995 71.745012 
L 166.001976 71.745012 
L 167.12616 73.968159 
L 171.916883 73.968159 
L 175.68124 70.077652 
L 179.865076 70.077652 
L 180.048673 68.410292 
L 190.920342 68.410292 
L 191.384333 68.966079 
L 194.024115 68.966079 
L 194.042724 70.077652 
L 199.072451 70.077652 
L 199.17447 73.412372 
L 206.948249 73.412372 
L 207.133917 68.410292 
L 208.278 67.298719 
L 208.280732 67.854506 
L 208.544377 67.854506 
L 209.483703 65.075572 
L 210.857785 65.075572 
L 211.228641 65.631359 
L 211.265738 65.075572 
L 212.114961 65.631359 
L 212.118833 66.187146 
L 212.138673 65.631359 
L 212.629226 63.408212 
L 217.097836 63.408212 
L 218.487166 63.963999 
L 220.135728 63.963999 
L 222.935787 64.519786 
L 225.586555 64.519786 
L 227.634547 65.631359 
L 231.817032 65.075572 
L 232.116454 65.075572 
L 234.723612 66.187146 
L 235.45818 65.631359 
L 239.097077 65.631359 
L 243.199694 67.854506 
L 243.201915 67.298719 
L 249.323771 67.298719 
L 251.222382 67.854506 
L 285.05789 67.854506 
L 285.33114 68.410292 
L 287.448585 68.410292 
L 287.463802 66.742932 
L 297.670176 66.742932 
L 297.876344 67.298719 
L 318.872419 67.298719 
L 323.495693 67.854506 
L 323.522436 67.298719 
L 326.832016 68.966079 
L 327.898663 68.966079 
L 328.909392 68.410292 
L 331.689011 68.410292 
L 334.3411 68.966079 
L 334.345452 69.521866 
L 341.865131 67.854506 
L 342.57908 68.410292 
L 351.839855 68.410292 
L 352.233972 67.854506 
L 352.955935 68.410292 
L 353.204032 70.633439 
L 357.447957 70.633439 
L 357.451618 71.189226 
L 370.437942 71.189226 
L 371.194181 71.745012 
L 373.689925 71.745012 
L 373.933401 72.300799 
L 386.103487 72.300799 
L 386.120024 72.856586 
L 388.26079 72.856586 
L 389.163949 73.412372 
L 389.168481 73.968159 
L 389.907102 73.412372 
L 389.94567 73.968159 
L 391.092664 73.968159 
L 391.27287 74.523946 
L 393.672209 74.523946 
L 393.727795 73.412372 
L 394.100962 74.523946 
L 395.452414 72.856586 
L 398.720455 72.856586 
L 398.961739 71.189226 
L 400.057589 71.189226 
L 400.595415 72.300799 
L 403.36681 72.300799 
L 404.276181 72.856586 
L 404.497056 72.856586 
L 405.351772 70.077652 
L 406.879257 70.077652 
L 407.228142 70.633439 
L 414.298328 70.633439 
L 414.472531 71.189226 
L 415.126451 71.189226 
L 416.141683 71.745012 
L 427.57723 71.745012 
L 427.679969 72.300799 
L 428.046623 72.300799 
L 428.812046 73.412372 
L 429.885175 73.412372 
L 430.143208 72.856586 
L 430.391816 72.856586 
L 430.486151 73.412372 
L 433.355993 73.412372 
L 433.844565 73.968159 
L 436.34253 73.968159 
L 436.502686 74.523946 
L 437.870976 74.523946 
L 437.958647 75.079732 
L 442.210975 75.079732 
L 442.302399 75.635519 
L 444.782416 75.635519 
L 445.610749 77.858666 
L 446.529125 77.858666 
L 446.530085 78.414452 
L 450.259055 78.414452 
L 450.942689 78.970239 
L 453.797914 78.970239 
L 454.360291 79.526026 
L 456.524979 79.526026 
L 456.687206 80.081812 
L 460.207546 80.081812 
L 461.114967 80.637599 
L 461.181059 81.193386 
L 461.474838 81.193386 
L 462.402098 60.629279 
L 465.277793 60.629279 
L 465.298503 61.185066 
L 465.461 61.185066 
L 465.666717 60.629279 
L 468.035322 60.629279 
L 468.296115 61.185066 
L 468.607243 61.185066 
L 468.920202 61.740852 
L 468.985483 61.185066 
L 470.261028 61.185066 
L 470.270993 61.740852 
L 470.547484 61.740852 
L 470.668561 62.296639 
L 471.505178 62.852426 
L 477.326021 62.852426 
L 478.235813 63.408212 
L 478.844832 63.408212 
L 479.338926 63.963999 
L 479.838753 63.408212 
L 481.89674 63.408212 
L 481.985492 64.519786 
L 484.939884 64.519786 
L 486.086189 66.187146 
L 498.528504 66.187146 
L 499.251637 66.742932 
L 518.457032 66.742932 
L 518.575018 67.298719 
L 546.795341 67.298719 
L 546.91966 67.854506 
L 546.928574 68.410292 
L 546.937429 67.854506 
L 551.050491 67.854506 
L 551.979161 68.410292 
L 568.183222 68.410292 
L 571.826111 68.966079 
L 572.683588 69.521866 
L 572.690761 67.854506 
L 598.697204 67.854506 
L 598.949624 68.410292 
L 622.07638 68.410292 
L 625.044848 68.966079 
L 626.86062 68.966079 
L 627.057664 69.521866 
L 628.319703 70.077652 
L 631.858892 70.077652 
L 633.34946 70.633439 
L 634.90918 70.633439 
L 635.030648 71.189226 
L 637.596085 71.189226 
L 637.902531 71.745012 
L 637.96319 72.300799 
L 642.530727 72.300799 
L 642.548436 72.856586 
L 645.805822 72.856586 
L 646.437471 72.300799 
L 646.446056 72.856586 
L 647.763741 73.412372 
L 650.102991 73.412372 
L 651.78637 73.968159 
L 653.292875 73.968159 
L 655.513269 61.740852 
L 658.105539 61.740852 
L 658.117545 64.519786 
L 671.151561 64.519786 
L 671.152911 65.075572 
L 671.378348 65.631359 
L 672.626761 65.631359 
L 672.8983 66.187146 
L 676.993173 66.187146 
L 677.939793 66.742932 
L 678.095536 66.187146 
L 685.419672 66.187146 
L 685.421323 66.742932 
L 697.004391 66.742932 
L 697.083598 67.854506 
L 698.760374 69.521866 
L 700.442852 69.521866 
L 700.622068 70.077652 
L 707.694744 70.077652 
L 707.824796 70.633439 
L 714.926556 70.633439 
L 715.08125 71.189226 
L 717.038539 72.856586 
L 717.190201 73.412372 
L 736.471562 73.412372 
L 738.297058 76.191306 
L 742.652905 76.191306 
L 742.93663 76.747092 
L 746.209143 76.747092 
L 747.427181 77.858666 
L 764.676038 77.858666 
L 764.894721 78.414452 
L 767.41976 78.414452 
L 767.690248 78.970239 
L 784.324053 78.970239 
L 784.332577 80.637599 
L 784.849212 80.637599 
L 784.936553 81.193386 
L 787.901841 81.193386 
L 788.319279 81.749172 
L 788.32177 81.193386 
L 795.835416 81.193386 
L 797.648006 81.749172 
L 812.012614 81.749172 
L 812.012614 81.749172 
" clip-path="url(#p514d73947b)" style="fill: none; stroke: #9467bd; stroke-width: 2; stroke-linecap: square"/>
   </g>
   <g id="patch_3">
    <path d="M 48.90125 455.237812 
L 48.90125 38.397812 
" style="fill: none; stroke: #30363d; stroke-width: 0.8; stroke-linejoin: miter; stroke-linecap: square"/>
   </g>
   <g id="patch_4">
    <path d="M 848.35125 455.237812 
L 848.35125 38.397812 
" style="fill: none; stroke: #30363d; stroke-width: 0.8; stroke-linejoin: miter; stroke-linecap: square"/>
   </g>
   <g id="patch_5">
    <path d="M 48.90125 455.237812 
L 848.35125 455.237812 
" style="fill: none; stroke: #30363d; stroke-width: 0.8; stroke-linejoin: miter; stroke-linecap: square"/>
   </g>
   <g id="patch_6">
    <path d="M 48.90125 38.397812 
L 848.35125 38.397812 
" style="fill: none; stroke: #30363d; stroke-width: 0.8; stroke-linejoin: miter; stroke-linecap: square"/>
   </g>
   <g id="text_16">
    <!-- 545 -->
    <g style="fill: #3fb950" transform="translate(817.012614 154.817517) scale(0.09 -0.09)">
     <defs>
      <path id="DejaVuSans-Bold-35" d="M 678 4666 
L 3669 4666 
L 3669 3781 
L 1638 3781 
L 1638 3059 
Q 1775 3097 1914 3117 
Q 2053 3138 2203 3138 
Q 3056 3138 3531 2711 
Q 4006 2284 4006 1522 
Q 4006 766 3489 337 
Q 2972 -91 2053 -91 
Q 1656 -91 1267 -14 
Q 878 63 494 219 
L 494 1166 
Q 875 947 1217 837 
Q 1559 728 1863 728 
Q 2300 728 2551 942 
Q 2803 1156 2803 1522 
Q 2803 1891 2551 2103 
Q 2300 2316 1863 2316 
Q 1603 2316 1309 2248 
Q 1016 2181 678 2041 
L 678 4666 
z
" transform="scale(0.015625)"/>
      <path id="DejaVuSans-Bold-34" d="M 2356 3675 
L 1038 1722 
L 2356 1722 
L 2356 3675 
z
M 2156 4666 
L 3494 4666 
L 3494 1722 
L 4159 1722 
L 4159 850 
L 3494 850 
L 3494 0 
L 2356 0 
L 2356 850 
L 288 850 
L 288 1881 
L 2156 4666 
z
" transform="scale(0.015625)"/>
     </defs>
     <use xlink:href="#DejaVuSans-Bold-35"/>
     <use xlink:href="#DejaVuSans-Bold-34" transform="translate(69.580078 0)"/>
     <use xlink:href="#DejaVuSans-Bold-35" transform="translate(139.160156 0)"/>
    </g>
   </g>
   <g id="text_17">
    <!-- 436 -->
    <g style="fill: #58a6ff" transform="translate(817.012614 215.398263) scale(0.09 -0.09)">
     <defs>
      <path id="DejaVuSans-Bold-33" d="M 2981 2516 
Q 3453 2394 3698 2092 
Q 3944 1791 3944 1325 
Q 3944 631 3412 270 
Q 2881 -91 1863 -91 
Q 1503 -91 1142 -33 
Q 781 25 428 141 
L 428 1069 
Q 766 900 1098 814 
Q 1431 728 1753 728 
Q 2231 728 2486 893 
Q 2741 1059 2741 1369 
Q 2741 1688 2480 1852 
Q 2219 2016 1709 2016 
L 1228 2016 
L 1228 2791 
L 1734 2791 
Q 2188 2791 2409 2933 
Q 2631 3075 2631 3366 
Q 2631 3634 2415 3781 
Q 2200 3928 1806 3928 
Q 1516 3928 1219 3862 
Q 922 3797 628 3669 
L 628 4550 
Q 984 4650 1334 4700 
Q 1684 4750 2022 4750 
Q 2931 4750 3382 4451 
Q 3834 4153 3834 3553 
Q 3834 3144 3618 2883 
Q 3403 2622 2981 2516 
z
" transform="scale(0.015625)"/>
      <path id="DejaVuSans-Bold-36" d="M 2316 2303 
Q 2000 2303 1842 2098 
Q 1684 1894 1684 1484 
Q 1684 1075 1842 870 
Q 2000 666 2316 666 
Q 2634 666 2792 870 
Q 2950 1075 2950 1484 
Q 2950 1894 2792 2098 
Q 2634 2303 2316 2303 
z
M 3803 4544 
L 3803 3681 
Q 3506 3822 3243 3889 
Q 2981 3956 2731 3956 
Q 2194 3956 1894 3657 
Q 1594 3359 1544 2772 
Q 1750 2925 1990 3001 
Q 2231 3078 2516 3078 
Q 3231 3078 3670 2659 
Q 4109 2241 4109 1563 
Q 4109 813 3618 361 
Q 3128 -91 2303 -91 
Q 1394 -91 895 523 
Q 397 1138 397 2266 
Q 397 3422 980 4083 
Q 1563 4744 2578 4744 
Q 2900 4744 3203 4694 
Q 3506 4644 3803 4544 
z
" transform="scale(0.015625)"/>
     </defs>
     <use xlink:href="#DejaVuSans-Bold-34"/>
     <use xlink:href="#DejaVuSans-Bold-33" transform="translate(69.580078 0)"/>
     <use xlink:href="#DejaVuSans-Bold-36" transform="translate(139.160156 0)"/>
    </g>
   </g>
   <g id="text_18">
    <!-- 186 -->
    <g style="fill: #d29922" transform="translate(817.012614 354.34493) scale(0.09 -0.09)">
     <defs>
      <path id="DejaVuSans-Bold-31" d="M 750 831 
L 1813 831 
L 1813 3847 
L 722 3622 
L 722 4441 
L 1806 4666 
L 2950 4666 
L 2950 831 
L 4013 831 
L 4013 0 
L 750 0 
L 750 831 
z
" transform="scale(0.015625)"/>
      <path id="DejaVuSans-Bold-38" d="M 2228 2088 
Q 1891 2088 1709 1903 
Q 1528 1719 1528 1375 
Q 1528 1031 1709 848 
Q 1891 666 2228 666 
Q 2563 666 2741 848 
Q 2919 1031 2919 1375 
Q 2919 1722 2741 1905 
Q 2563 2088 2228 2088 
z
M 1350 2484 
Q 925 2613 709 2878 
Q 494 3144 494 3541 
Q 494 4131 934 4440 
Q 1375 4750 2228 4750 
Q 3075 4750 3515 4442 
Q 3956 4134 3956 3541 
Q 3956 3144 3739 2878 
Q 3522 2613 3097 2484 
Q 3572 2353 3814 2058 
Q 4056 1763 4056 1313 
Q 4056 619 3595 264 
Q 3134 -91 2228 -91 
Q 1319 -91 855 264 
Q 391 619 391 1313 
Q 391 1763 633 2058 
Q 875 2353 1350 2484 
z
M 1631 3419 
Q 1631 3141 1786 2991 
Q 1941 2841 2228 2841 
Q 2509 2841 2662 2991 
Q 2816 3141 2816 3419 
Q 2816 3697 2662 3845 
Q 2509 3994 2228 3994 
Q 1941 3994 1786 3844 
Q 1631 3694 1631 3419 
z
" transform="scale(0.015625)"/>
     </defs>
     <use xlink:href="#DejaVuSans-Bold-31"/>
     <use xlink:href="#DejaVuSans-Bold-38" transform="translate(69.580078 0)"/>
     <use xlink:href="#DejaVuSans-Bold-36" transform="translate(139.160156 0)"/>
    </g>
   </g>
   <g id="text_19">
    <!-- 311 -->
    <g style="fill: #f85149" transform="translate(817.012614 284.871597) scale(0.09 -0.09)">
     <use xlink:href="#DejaVuSans-Bold-33"/>
     <use xlink:href="#DejaVuSans-Bold-31" transform="translate(69.580078 0)"/>
     <use xlink:href="#DejaVuSans-Bold-31" transform="translate(139.160156 0)"/>
    </g>
   </g>
   <g id="text_20">
    <!-- 672 -->
    <g style="fill: #9467bd" transform="translate(817.012614 84.23261) scale(0.09 -0.09)">
     <defs>
      <path id="DejaVuSans-Bold-37" d="M 428 4666 
L 3944 4666 
L 3944 3988 
L 2125 0 
L 953 0 
L 2675 3781 
L 428 3781 
L 428 4666 
z
" transform="scale(0.015625)"/>
      <path id="DejaVuSans-Bold-32" d="M 1844 884 
L 3897 884 
L 3897 0 
L 506 0 
L 506 884 
L 2209 2388 
Q 2438 2594 2547 2791 
Q 2656 2988 2656 3200 
Q 2656 3528 2436 3728 
Q 2216 3928 1850 3928 
Q 1569 3928 1234 3808 
Q 900 3688 519 3450 
L 519 4475 
Q 925 4609 1322 4679 
Q 1719 4750 2100 4750 
Q 2938 4750 3402 4381 
Q 3866 4013 3866 3353 
Q 3866 2972 3669 2642 
Q 3472 2313 2841 1759 
L 1844 884 
z
" transform="scale(0.015625)"/>
     </defs>
     <use xlink:href="#DejaVuSans-Bold-36"/>
     <use xlink:href="#DejaVuSans-Bold-37" transform="translate(69.580078 0)"/>
     <use xlink:href="#DejaVuSans-Bold-32" transform="translate(139.160156 0)"/>
    </g>
   </g>
   <g id="text_21">
    <!-- Erdős Problems Progress -->
    <g style="fill: #c9d1d9" transform="translate(349.588281 18.397812) scale(0.14 -0.14)">
     <defs>
      <path id="DejaVuSans-Bold-45" d="M 588 4666 
L 3834 4666 
L 3834 3756 
L 1791 3756 
L 1791 2888 
L 3713 2888 
L 3713 1978 
L 1791 1978 
L 1791 909 
L 3903 909 
L 3903 0 
L 588 0 
L 588 4666 
z
" transform="scale(0.015625)"/>
      <path id="DejaVuSans-Bold-72" d="M 3138 2547 
Q 2991 2616 2845 2648 
Q 2700 2681 2553 2681 
Q 2122 2681 1889 2404 
Q 1656 2128 1656 1613 
L 1656 0 
L 538 0 
L 538 3500 
L 1656 3500 
L 1656 2925 
Q 1872 3269 2151 3426 
Q 2431 3584 2822 3584 
Q 2878 3584 2943 3579 
Q 3009 3575 3134 3559 
L 3138 2547 
z
" transform="scale(0.015625)"/>
      <path id="DejaVuSans-Bold-64" d="M 2919 2988 
L 2919 4863 
L 4044 4863 
L 4044 0 
L 2919 0 
L 2919 506 
Q 2688 197 2409 53 
Q 2131 -91 1766 -91 
Q 1119 -91 703 423 
Q 288 938 288 1747 
Q 288 2556 703 3070 
Q 1119 3584 1766 3584 
Q 2128 3584 2408 3439 
Q 2688 3294 2919 2988 
z
M 2181 722 
Q 2541 722 2730 984 
Q 2919 1247 2919 1747 
Q 2919 2247 2730 2509 
Q 2541 2772 2181 2772 
Q 1825 2772 1636 2509 
Q 1447 2247 1447 1747 
Q 1447 1247 1636 984 
Q 1825 722 2181 722 
z
" transform="scale(0.015625)"/>
      <path id="DejaVuSans-Bold-151" d="M 1881 5119 
L 2560 5119 
L 1785 3944 
L 1275 3944 
L 1881 5119 
z
M 3016 5119 
L 3738 5119 
L 2888 3944 
L 2344 3944 
L 3016 5119 
z
M 2203 2784 
Q 1831 2784 1636 2517 
Q 1441 2250 1441 1747 
Q 1441 1244 1636 976 
Q 1831 709 2203 709 
Q 2569 709 2762 976 
Q 2956 1244 2956 1747 
Q 2956 2250 2762 2517 
Q 2569 2784 2203 2784 
z
M 2203 3584 
Q 3106 3584 3614 3096 
Q 4122 2609 4122 1747 
Q 4122 884 3614 396 
Q 3106 -91 2203 -91 
Q 1297 -91 786 396 
Q 275 884 275 1747 
Q 275 2609 786 3096 
Q 1297 3584 2203 3584 
z
" transform="scale(0.015625)"/>
      <path id="DejaVuSans-Bold-73" d="M 3272 3391 
L 3272 2541 
Q 2913 2691 2578 2766 
Q 2244 2841 1947 2841 
Q 1628 2841 1473 2761 
Q 1319 2681 1319 2516 
Q 1319 2381 1436 2309 
Q 1553 2238 1856 2203 
L 2053 2175 
Q 2913 2066 3209 1816 
Q 3506 1566 3506 1031 
Q 3506 472 3093 190 
Q 2681 -91 1863 -91 
Q 1516 -91 1145 -36 
Q 775 19 384 128 
L 384 978 
Q 719 816 1070 734 
Q 1422 653 1784 653 
Q 2113 653 2278 743 
Q 2444 834 2444 1013 
Q 2444 1163 2330 1236 
Q 2216 1309 1875 1350 
L 1678 1375 
Q 931 1469 631 1722 
Q 331 1975 331 2491 
Q 331 3047 712 3315 
Q 1094 3584 1881 3584 
Q 2191 3584 2531 3537 
Q 2872 3491 3272 3391 
z
" transform="scale(0.015625)"/>
      <path id="DejaVuSans-Bold-20" transform="scale(0.015625)"/>
      <path id="DejaVuSans-Bold-50" d="M 588 4666 
L 2584 4666 
Q 3475 4666 3951 4270 
Q 4428 3875 4428 3144 
Q 4428 2409 3951 2014 
Q 3475 1619 2584 1619 
L 1791 1619 
L 1791 0 
L 588 0 
L 588 4666 
z
M 1791 3794 
L 1791 2491 
L 2456 2491 
Q 2806 2491 2997 2661 
Q 3188 2831 3188 3144 
Q 3188 3456 2997 3625 
Q 2806 3794 2456 3794 
L 1791 3794 
z
" transform="scale(0.015625)"/>
      <path id="DejaVuSans-Bold-6f" d="M 2203 2784 
Q 1831 2784 1636 2517 
Q 1441 2250 1441 1747 
Q 1441 1244 1636 976 
Q 1831 709 2203 709 
Q 2569 709 2762 976 
Q 2956 1244 2956 1747 
Q 2956 2250 2762 2517 
Q 2569 2784 2203 2784 
z
M 2203 3584 
Q 3106 3584 3614 3096 
Q 4122 2609 4122 1747 
Q 4122 884 3614 396 
Q 3106 -91 2203 -91 
Q 1297 -91 786 396 
Q 275 884 275 1747 
Q 275 2609 786 3096 
Q 1297 3584 2203 3584 
z
" transform="scale(0.015625)"/>
      <path id="DejaVuSans-Bold-62" d="M 2400 722 
Q 2759 722 2948 984 
Q 3138 1247 3138 1747 
Q 3138 2247 2948 2509 
Q 2759 2772 2400 2772 
Q 2041 2772 1848 2508 
Q 1656 2244 1656 1747 
Q 1656 1250 1848 986 
Q 2041 722 2400 722 
z
M 1656 2988 
Q 1888 3294 2169 3439 
Q 2450 3584 2816 3584 
Q 3463 3584 3878 3070 
Q 4294 2556 4294 1747 
Q 4294 938 3878 423 
Q 3463 -91 2816 -91 
Q 2450 -91 2169 54 
Q 1888 200 1656 506 
L 1656 0 
L 538 0 
L 538 4863 
L 1656 4863 
L 1656 2988 
z
" transform="scale(0.015625)"/>
      <path id="DejaVuSans-Bold-6c" d="M 538 4863 
L 1656 4863 
L 1656 0 
L 538 0 
L 538 4863 
z
" transform="scale(0.015625)"/>
      <path id="DejaVuSans-Bold-65" d="M 4031 1759 
L 4031 1441 
L 1416 1441 
Q 1456 1047 1700 850 
Q 1944 653 2381 653 
Q 2734 653 3104 758 
Q 3475 863 3866 1075 
L 3866 213 
Q 3469 63 3072 -14 
Q 2675 -91 2278 -91 
Q 1328 -91 801 392 
Q 275 875 275 1747 
Q 275 2603 792 3093 
Q 1309 3584 2216 3584 
Q 3041 3584 3536 3087 
Q 4031 2591 4031 1759 
z
M 2881 2131 
Q 2881 2450 2695 2645 
Q 2509 2841 2209 2841 
Q 1884 2841 1681 2658 
Q 1478 2475 1428 2131 
L 2881 2131 
z
" transform="scale(0.015625)"/>
      <path id="DejaVuSans-Bold-6d" d="M 3781 2919 
Q 3994 3244 4286 3414 
Q 4578 3584 4928 3584 
Q 5531 3584 5847 3212 
Q 6163 2841 6163 2131 
L 6163 0 
L 5038 0 
L 5038 1825 
Q 5041 1866 5042 1909 
Q 5044 1953 5044 2034 
Q 5044 2406 4934 2573 
Q 4825 2741 4581 2741 
Q 4263 2741 4089 2478 
Q 3916 2216 3909 1719 
L 3909 0 
L 2784 0 
L 2784 1825 
Q 2784 2406 2684 2573 
Q 2584 2741 2328 2741 
Q 2006 2741 1831 2477 
Q 1656 2213 1656 1722 
L 1656 0 
L 531 0 
L 531 3500 
L 1656 3500 
L 1656 2988 
Q 1863 3284 2130 3434 
Q 2397 3584 2719 3584 
Q 3081 3584 3359 3409 
Q 3638 3234 3781 2919 
z
" transform="scale(0.015625)"/>
      <path id="DejaVuSans-Bold-67" d="M 2919 594 
Q 2688 288 2409 144 
Q 2131 0 1766 0 
Q 1125 0 706 504 
Q 288 1009 288 1791 
Q 288 2575 706 3076 
Q 1125 3578 1766 3578 
Q 2131 3578 2409 3434 
Q 2688 3291 2919 2981 
L 2919 3500 
L 4044 3500 
L 4044 353 
Q 4044 -491 3511 -936 
Q 2978 -1381 1966 -1381 
Q 1638 -1381 1331 -1331 
Q 1025 -1281 716 -1178 
L 716 -306 
Q 1009 -475 1290 -558 
Q 1572 -641 1856 -641 
Q 2406 -641 2662 -400 
Q 2919 -159 2919 353 
L 2919 594 
z
M 2181 2772 
Q 1834 2772 1640 2515 
Q 1447 2259 1447 1791 
Q 1447 1309 1634 1061 
Q 1822 813 2181 813 
Q 2531 813 2725 1069 
Q 2919 1325 2919 1791 
Q 2919 2259 2725 2515 
Q 2531 2772 2181 2772 
z
" transform="scale(0.015625)"/>
     </defs>
     <use xlink:href="#DejaVuSans-Bold-45"/>
     <use xlink:href="#DejaVuSans-Bold-72" transform="translate(68.310547 0)"/>
     <use xlink:href="#DejaVuSans-Bold-64" transform="translate(117.626953 0)"/>
     <use xlink:href="#DejaVuSans-Bold-151" transform="translate(189.208984 0)"/>
     <use xlink:href="#DejaVuSans-Bold-73" transform="translate(257.910156 0)"/>
     <use xlink:href="#DejaVuSans-Bold-20" transform="translate(317.431641 0)"/>
     <use xlink:href="#DejaVuSans-Bold-50" transform="translate(352.246094 0)"/>
     <use xlink:href="#DejaVuSans-Bold-72" transform="translate(425.537109 0)"/>
     <use xlink:href="#DejaVuSans-Bold-6f" transform="translate(474.853516 0)"/>
     <use xlink:href="#DejaVuSans-Bold-62" transform="translate(543.554688 0)"/>
     <use xlink:href="#DejaVuSans-Bold-6c" transform="translate(615.136719 0)"/>
     <use xlink:href="#DejaVuSans-Bold-65" transform="translate(649.414062 0)"/>
     <use xlink:href="#DejaVuSans-Bold-6d" transform="translate(717.236328 0)"/>
     <use xlink:href="#DejaVuSans-Bold-73" transform="translate(821.435547 0)"/>
     <use xlink:href="#DejaVuSans-Bold-20" transform="translate(880.957031 0)"/>
     <use xlink:href="#DejaVuSans-Bold-50" transform="translate(915.771484 0)"/>
     <use xlink:href="#DejaVuSans-Bold-72" transform="translate(989.0625 0)"/>
     <use xlink:href="#DejaVuSans-Bold-6f" transform="translate(1038.378906 0)"/>
     <use xlink:href="#DejaVuSans-Bold-67" transform="translate(1107.080078 0)"/>
     <use xlink:href="#DejaVuSans-Bold-72" transform="translate(1178.662109 0)"/>
     <use xlink:href="#DejaVuSans-Bold-65" transform="translate(1227.978516 0)"/>
     <use xlink:href="#DejaVuSans-Bold-73" transform="translate(1295.800781 0)"/>
     <use xlink:href="#DejaVuSans-Bold-73" transform="translate(1355.322266 0)"/>
    </g>
   </g>
   <g id="legend_1">
    <g id="patch_7">
     <path d="M 55.90125 119.788437 
L 213.771563 119.788437 
Q 215.771563 119.788437 215.771563 117.788437 
L 215.771563 45.397812 
Q 215.771563 43.397812 213.771563 43.397812 
L 55.90125 43.397812 
Q 53.90125 43.397812 53.90125 45.397812 
L 53.90125 117.788437 
Q 53.90125 119.788437 55.90125 119.788437 
z
" style="fill: #161b22; opacity: 0.8; stroke: #30363d; stroke-linejoin: miter"/>
    </g>
    <g id="line2d_32">
     <path d="M 57.90125 51.49625 
L 67.90125 51.49625 
L 77.90125 51.49625 
" style="fill: none; stroke: #3fb950; stroke-width: 2; stroke-linecap: square"/>
    </g>
    <g id="text_22">
     <!-- Solved -->
     <g style="fill: #c9d1d9" transform="translate(85.90125 54.99625) scale(0.1 -0.1)">
      <defs>
       <path id="DejaVuSans-6c" d="M 603 4863 
L 1178 4863 
L 1178 0 
L 603 0 
L 603 4863 
z
" transform="scale(0.015625)"/>
       <path id="DejaVuSans-64" d="M 2906 2969 
L 2906 4863 
L 3481 4863 
L 3481 0 
L 2906 0 
L 2906 525 
Q 2725 213 2448 61 
Q 2172 -91 1784 -91 
Q 1150 -91 751 415 
Q 353 922 353 1747 
Q 353 2572 751 3078 
Q 1150 3584 1784 3584 
Q 2172 3584 2448 3432 
Q 2725 3281 2906 2969 
z
M 947 1747 
Q 947 1113 1208 752 
Q 1469 391 1925 391 
Q 2381 391 2643 752 
Q 2906 1113 2906 1747 
Q 2906 2381 2643 2742 
Q 2381 3103 1925 3103 
Q 1469 3103 1208 2742 
Q 947 2381 947 1747 
z
" transform="scale(0.015625)"/>
      </defs>
      <use xlink:href="#DejaVuSans-53"/>
      <use xlink:href="#DejaVuSans-6f" transform="translate(63.476562 0)"/>
      <use xlink:href="#DejaVuSans-6c" transform="translate(124.658203 0)"/>
      <use xlink:href="#DejaVuSans-76" transform="translate(152.441406 0)"/>
      <use xlink:href="#DejaVuSans-65" transform="translate(211.621094 0)"/>
      <use xlink:href="#DejaVuSans-64" transform="translate(273.144531 0)"/>
     </g>
    </g>
    <g id="line2d_33">
     <path d="M 57.90125 66.174375 
L 67.90125 66.174375 
L 77.90125 66.174375 
" style="fill: none; stroke: #58a6ff; stroke-width: 2; stroke-linecap: square"/>
    </g>
    <g id="text_23">
     <!-- Lean Formalized Problem -->
     <g style="fill: #c9d1d9" transform="translate(85.90125 69.674375) scale(0.1 -0.1)">
      <defs>
       <path id="DejaVuSans-4c" d="M 628 4666 
L 1259 4666 
L 1259 531 
L 3531 531 
L 3531 0 
L 628 0 
L 628 4666 
z
" transform="scale(0.015625)"/>
       <path id="DejaVuSans-20" transform="scale(0.015625)"/>
       <path id="DejaVuSans-46" d="M 628 4666 
L 3309 4666 
L 3309 4134 
L 1259 4134 
L 1259 2759 
L 3109 2759 
L 3109 2228 
L 1259 2228 
L 1259 0 
L 628 0 
L 628 4666 
z
" transform="scale(0.015625)"/>
       <path id="DejaVuSans-6d" d="M 3328 2828 
Q 3544 3216 3844 3400 
Q 4144 3584 4550 3584 
Q 5097 3584 5394 3201 
Q 5691 2819 5691 2113 
L 5691 0 
L 5113 0 
L 5113 2094 
Q 5113 2597 4934 2840 
Q 4756 3084 4391 3084 
Q 3944 3084 3684 2787 
Q 3425 2491 3425 1978 
L 3425 0 
L 2847 0 
L 2847 2094 
Q 2847 2600 2669 2842 
Q 2491 3084 2119 3084 
Q 1678 3084 1418 2786 
Q 1159 2488 1159 1978 
L 1159 0 
L 581 0 
L 581 3500 
L 1159 3500 
L 1159 2956 
Q 1356 3278 1631 3431 
Q 1906 3584 2284 3584 
Q 2666 3584 2933 3390 
Q 3200 3197 3328 2828 
z
" transform="scale(0.015625)"/>
       <path id="DejaVuSans-69" d="M 603 3500 
L 1178 3500 
L 1178 0 
L 603 0 
L 603 3500 
z
M 603 4863 
L 1178 4863 
L 1178 4134 
L 603 4134 
L 603 4863 
z
" transform="scale(0.015625)"/>
       <path id="DejaVuSans-7a" d="M 353 3500 
L 3084 3500 
L 3084 2975 
L 922 459 
L 3084 459 
L 3084 0 
L 275 0 
L 275 525 
L 2438 3041 
L 353 3041 
L 353 3500 
z
" transform="scale(0.015625)"/>
       <path id="DejaVuSans-50" d="M 1259 4147 
L 1259 2394 
L 2053 2394 
Q 2494 2394 2734 2622 
Q 2975 2850 2975 3272 
Q 2975 3691 2734 3919 
Q 2494 4147 2053 4147 
L 1259 4147 
z
M 628 4666 
L 2053 4666 
Q 2838 4666 3239 4311 
Q 3641 3956 3641 3272 
Q 3641 2581 3239 2228 
Q 2838 1875 2053 1875 
L 1259 1875 
L 1259 0 
L 628 0 
L 628 4666 
z
" transform="scale(0.015625)"/>
       <path id="DejaVuSans-62" d="M 3116 1747 
Q 3116 2381 2855 2742 
Q 2594 3103 2138 3103 
Q 1681 3103 1420 2742 
Q 1159 2381 1159 1747 
Q 1159 1113 1420 752 
Q 1681 391 2138 391 
Q 2594 391 2855 752 
Q 3116 1113 3116 1747 
z
M 1159 2969 
Q 1341 3281 1617 3432 
Q 1894 3584 2278 3584 
Q 2916 3584 3314 3078 
Q 3713 2572 3713 1747 
Q 3713 922 3314 415 
Q 2916 -91 2278 -91 
Q 1894 -91 1617 61 
Q 1341 213 1159 525 
L 1159 0 
L 581 0 
L 581 4863 
L 1159 4863 
L 1159 2969 
z
" transform="scale(0.015625)"/>
      </defs>
      <use xlink:href="#DejaVuSans-4c"/>
      <use xlink:href="#DejaVuSans-65" transform="translate(53.962891 0)"/>
      <use xlink:href="#DejaVuSans-61" transform="translate(115.486328 0)"/>
      <use xlink:href="#DejaVuSans-6e" transform="translate(176.765625 0)"/>
      <use xlink:href="#DejaVuSans-20" transform="translate(240.144531 0)"/>
      <use xlink:href="#DejaVuSans-46" transform="translate(271.931641 0)"/>
      <use xlink:href="#DejaVuSans-6f" transform="translate(325.826172 0)"/>
      <use xlink:href="#DejaVuSans-72" transform="translate(387.007812 0)"/>
      <use xlink:href="#DejaVuSans-6d" transform="translate(426.371094 0)"/>
      <use xlink:href="#DejaVuSans-61" transform="translate(523.783203 0)"/>
      <use xlink:href="#DejaVuSans-6c" transform="translate(585.0625 0)"/>
      <use xlink:href="#DejaVuSans-69" transform="translate(612.845703 0)"/>
      <use xlink:href="#DejaVuSans-7a" transform="translate(640.628906 0)"/>
      <use xlink:href="#DejaVuSans-65" transform="translate(693.119141 0)"/>
      <use xlink:href="#DejaVuSans-64" transform="translate(754.642578 0)"/>
      <use xlink:href="#DejaVuSans-20" transform="translate(818.119141 0)"/>
      <use xlink:href="#DejaVuSans-50" transform="translate(849.90625 0)"/>
      <use xlink:href="#DejaVuSans-72" transform="translate(908.458984 0)"/>
      <use xlink:href="#DejaVuSans-6f" transform="translate(947.322266 0)"/>
      <use xlink:href="#DejaVuSans-62" transform="translate(1008.503906 0)"/>
      <use xlink:href="#DejaVuSans-6c" transform="translate(1071.980469 0)"/>
      <use xlink:href="#DejaVuSans-65" transform="translate(1099.763672 0)"/>
      <use xlink:href="#DejaVuSans-6d" transform="translate(1161.287109 0)"/>
     </g>
    </g>
    <g id="line2d_34">
     <path d="M 57.90125 80.8525 
L 67.90125 80.8525 
L 77.90125 80.8525 
" style="fill: none; stroke: #d29922; stroke-width: 2; stroke-linecap: square"/>
    </g>
    <g id="text_24">
     <!-- Lean Formalized Solution -->
     <g style="fill: #c9d1d9" transform="translate(85.90125 84.3525) scale(0.1 -0.1)">
      <use xlink:href="#DejaVuSans-4c"/>
      <use xlink:href="#DejaVuSans-65" transform="translate(53.962891 0)"/>
      <use xlink:href="#DejaVuSans-61" transform="translate(115.486328 0)"/>
      <use xlink:href="#DejaVuSans-6e" transform="translate(176.765625 0)"/>
      <use xlink:href="#DejaVuSans-20" transform="translate(240.144531 0)"/>
      <use xlink:href="#DejaVuSans-46" transform="translate(271.931641 0)"/>
      <use xlink:href="#DejaVuSans-6f" transform="translate(325.826172 0)"/>
      <use xlink:href="#DejaVuSans-72" transform="translate(387.007812 0)"/>
      <use xlink:href="#DejaVuSans-6d" transform="translate(426.371094 0)"/>
      <use xlink:href="#DejaVuSans-61" transform="translate(523.783203 0)"/>
      <use xlink:href="#DejaVuSans-6c" transform="translate(585.0625 0)"/>
      <use xlink:href="#DejaVuSans-69" transform="translate(612.845703 0)"/>
      <use xlink:href="#DejaVuSans-7a" transform="translate(640.628906 0)"/>
      <use xlink:href="#DejaVuSans-65" transform="translate(693.119141 0)"/>
      <use xlink:href="#DejaVuSans-64" transform="translate(754.642578 0)"/>
      <use xlink:href="#DejaVuSans-20" transform="translate(818.119141 0)"/>
      <use xlink:href="#DejaVuSans-53" transform="translate(849.90625 0)"/>
      <use xlink:href="#DejaVuSans-6f" transform="translate(913.382812 0)"/>
      <use xlink:href="#DejaVuSans-6c" transform="translate(974.564453 0)"/>
      <use xlink:href="#DejaVuSans-75" transform="translate(1002.347656 0)"/>
      <use xlink:href="#DejaVuSans-74" transform="translate(1065.726562 0)"/>
      <use xlink:href="#DejaVuSans-69" transform="translate(1104.935547 0)"/>
      <use xlink:href="#DejaVuSans-6f" transform="translate(1132.71875 0)"/>
      <use xlink:href="#DejaVuSans-6e" transform="translate(1193.900391 0)"/>
     </g>
    </g>
    <g id="line2d_35">
     <path d="M 57.90125 95.530625 
L 67.90125 95.530625 
L 77.90125 95.530625 
" style="fill: none; stroke: #f85149; stroke-width: 2; stroke-linecap: square"/>
    </g>
    <g id="text_25">
     <!-- OEIS Linked -->
     <g style="fill: #c9d1d9" transform="translate(85.90125 99.030625) scale(0.1 -0.1)">
      <defs>
       <path id="DejaVuSans-4f" d="M 2522 4238 
Q 1834 4238 1429 3725 
Q 1025 3213 1025 2328 
Q 1025 1447 1429 934 
Q 1834 422 2522 422 
Q 3209 422 3611 934 
Q 4013 1447 4013 2328 
Q 4013 3213 3611 3725 
Q 3209 4238 2522 4238 
z
M 2522 4750 
Q 3503 4750 4090 4092 
Q 4678 3434 4678 2328 
Q 4678 1225 4090 567 
Q 3503 -91 2522 -91 
Q 1538 -91 948 565 
Q 359 1222 359 2328 
Q 359 3434 948 4092 
Q 1538 4750 2522 4750 
z
" transform="scale(0.015625)"/>
       <path id="DejaVuSans-45" d="M 628 4666 
L 3578 4666 
L 3578 4134 
L 1259 4134 
L 1259 2753 
L 3481 2753 
L 3481 2222 
L 1259 2222 
L 1259 531 
L 3634 531 
L 3634 0 
L 628 0 
L 628 4666 
z
" transform="scale(0.015625)"/>
       <path id="DejaVuSans-49" d="M 628 4666 
L 1259 4666 
L 1259 0 
L 628 0 
L 628 4666 
z
" transform="scale(0.015625)"/>
       <path id="DejaVuSans-6b" d="M 581 4863 
L 1159 4863 
L 1159 1991 
L 2875 3500 
L 3609 3500 
L 1753 1863 
L 3688 0 
L 2938 0 
L 1159 1709 
L 1159 0 
L 581 0 
L 581 4863 
z
" transform="scale(0.015625)"/>
      </defs>
      <use xlink:href="#DejaVuSans-4f"/>
      <use xlink:href="#DejaVuSans-45" transform="translate(78.710938 0)"/>
      <use xlink:href="#DejaVuSans-49" transform="translate(141.894531 0)"/>
      <use xlink:href="#DejaVuSans-53" transform="translate(171.386719 0)"/>
      <use xlink:href="#DejaVuSans-20" transform="translate(234.863281 0)"/>
      <use xlink:href="#DejaVuSans-4c" transform="translate(266.650391 0)"/>
      <use xlink:href="#DejaVuSans-69" transform="translate(322.363281 0)"/>
      <use xlink:href="#DejaVuSans-6e" transform="translate(350.146484 0)"/>
      <use xlink:href="#DejaVuSans-6b" transform="translate(413.525391 0)"/>
      <use xlink:href="#DejaVuSans-65" transform="translate(467.810547 0)"/>
      <use xlink:href="#DejaVuSans-64" transform="translate(529.333984 0)"/>
     </g>
    </g>
    <g id="line2d_36">
     <path d="M 57.90125 110.20875 
L 67.90125 110.20875 
L 77.90125 110.20875 
" style="fill: none; stroke: #9467bd; stroke-width: 2; stroke-linecap: square"/>
    </g>
    <g id="text_26">
     <!-- Open Problems -->
     <g style="fill: #c9d1d9" transform="translate(85.90125 113.70875) scale(0.1 -0.1)">
      <defs>
       <path id="DejaVuSans-73" d="M 2834 3397 
L 2834 2853 
Q 2591 2978 2328 3040 
Q 2066 3103 1784 3103 
Q 1356 3103 1142 2972 
Q 928 2841 928 2578 
Q 928 2378 1081 2264 
Q 1234 2150 1697 2047 
L 1894 2003 
Q 2506 1872 2764 1633 
Q 3022 1394 3022 966 
Q 3022 478 2636 193 
Q 2250 -91 1575 -91 
Q 1294 -91 989 -36 
Q 684 19 347 128 
L 347 722 
Q 666 556 975 473 
Q 1284 391 1588 391 
Q 1994 391 2212 530 
Q 2431 669 2431 922 
Q 2431 1156 2273 1281 
Q 2116 1406 1581 1522 
L 1381 1569 
Q 847 1681 609 1914 
Q 372 2147 372 2553 
Q 372 3047 722 3315 
Q 1072 3584 1716 3584 
Q 2034 3584 2315 3537 
Q 2597 3491 2834 3397 
z
" transform="scale(0.015625)"/>
      </defs>
      <use xlink:href="#DejaVuSans-4f"/>
      <use xlink:href="#DejaVuSans-70" transform="translate(78.710938 0)"/>
      <use xlink:href="#DejaVuSans-65" transform="translate(142.1875 0)"/>
      <use xlink:href="#DejaVuSans-6e" transform="translate(203.710938 0)"/>
      <use xlink:href="#DejaVuSans-20" transform="translate(267.089844 0)"/>
      <use xlink:href="#DejaVuSans-50" transform="translate(298.876953 0)"/>
      <use xlink:href="#DejaVuSans-72" transform="translate(357.429688 0)"/>
      <use xlink:href="#DejaVuSans-6f" transform="translate(396.292969 0)"/>
      <use xlink:href="#DejaVuSans-62" transform="translate(457.474609 0)"/>
      <use xlink:href="#DejaVuSans-6c" transform="translate(520.951172 0)"/>
      <use xlink:href="#DejaVuSans-65" transform="translate(548.734375 0)"/>
      <use xlink:href="#DejaVuSans-6d" transform="translate(610.257812 0)"/>
      <use xlink:href="#DejaVuSans-73" transform="translate(707.669922 0)"/>
     </g>
    </g>
   </g>
  </g>
 </g>
 <defs>
  <clipPath id="p514d73947b">
   <rect x="48.90125" y="38.397812" width="799.45" height="416.84"/>
  </clipPath>
 </defs>
</svg>
