<?xml version="1.0" encoding="utf-8" standalone="no"?>
<!DOCTYPE svg PUBLIC "-//W3C//DTD SVG 1.1//EN"
  "http://www.w3.org/Graphics/SVG/1.1/DTD/svg11.dtd">
<svg xmlns:xlink="http://www.w3.org/1999/xlink" width="855.55125pt" height="494.729687pt" viewBox="0 0 855.55125 494.729687" xmlns="http://www.w3.org/2000/svg" version="1.1">
 <metadata>
  <rdf:RDF xmlns:dc="http://purl.org/dc/elements/1.1/" xmlns:cc="http://creativecommons.org/ns#" xmlns:rdf="http://www.w3.org/1999/02/22-rdf-syntax-ns#">
   <cc:Work>
    <dc:type rdf:resource="http://purl.org/dc/dcmitype/StillImage"/>
    <dc:date>2026-07-17T17:07:34.967090</dc:date>
    <dc:format>image/svg+xml</dc:format>
    <dc:creator>
     <cc:Agent>
      <dc:title>Matplotlib v3.10.7, https://matplotlib.org/</dc:title>
     </cc:Agent>
    </dc:creator>
   </cc:Work>
  </rdf:RDF>
 </metadata>
 <defs>
  <style type="text/css">*{stroke-linejoin: round; stroke-linecap: butt}</style>
 </defs>
 <g id="figure_1">
  <g id="patch_1">
   <path d="M 0 494.729687 
L 855.55125 494.729687 
L 855.55125 0 
L 0 0 
z
" style="fill: #ffffff"/>
  </g>
  <g id="axes_1">
   <g id="patch_2">
    <path d="M 48.90125 455.237812 
L 848.35125 455.237812 
L 848.35125 38.397812 
L 48.90125 38.397812 
z
" style="fill: #ffffff"/>
   </g>
   <g id="matplotlib.axis_1">
    <g id="xtick_1">
     <g id="line2d_1">
      <path d="M 85.903822 455.237812 
L 85.903822 38.397812 
" clip-path="url(#p49df5cc80c)" style="fill: none; stroke: #d0d7de; stroke-opacity: 0.25; stroke-width: 0.5; stroke-linecap: square"/>
     </g>
     <g id="line2d_2">
      <defs>
       <path id="m7d407597c6" d="M 0 0 
L 0 3.5 
" style="stroke: #24292f; stroke-width: 0.8"/>
      </defs>
      <g>
       <use xlink:href="#m7d407597c6" x="85.903822" y="455.237812" style="fill: #24292f; stroke: #24292f; stroke-width: 0.8"/>
      </g>
     </g>
     <g id="text_1">
      <!-- Sep -->
      <g style="fill: #24292f" transform="translate(76.478822 469.83625) scale(0.1 -0.1)">
       <defs>
        <path id="DejaVuSans-53" d="M 3425 4513 
L 3425 3897 
Q 3066 4069 2747 4153 
Q 2428 4238 2131 4238 
Q 1616 4238 1336 4038 
Q 1056 3838 1056 3469 
Q 1056 3159 1242 3001 
Q 1428 2844 1947 2747 
L 2328 2669 
Q 3034 2534 3370 2195 
Q 3706 1856 3706 1288 
Q 3706 609 3251 259 
Q 2797 -91 1919 -91 
Q 1588 -91 1214 -16 
Q 841 59 441 206 
L 441 856 
Q 825 641 1194 531 
Q 1563 422 1919 422 
Q 2459 422 2753 634 
Q 3047 847 3047 1241 
Q 3047 1584 2836 1778 
Q 2625 1972 2144 2069 
L 1759 2144 
Q 1053 2284 737 2584 
Q 422 2884 422 3419 
Q 422 4038 858 4394 
Q 1294 4750 2059 4750 
Q 2388 4750 2728 4690 
Q 3069 4631 3425 4513 
z
" transform="scale(0.015625)"/>
        <path id="DejaVuSans-65" d="M 3597 1894 
L 3597 1613 
L 953 1613 
Q 991 1019 1311 708 
Q 1631 397 2203 397 
Q 2534 397 2845 478 
Q 3156 559 3463 722 
L 3463 178 
Q 3153 47 2828 -22 
Q 2503 -91 2169 -91 
Q 1331 -91 842 396 
Q 353 884 353 1716 
Q 353 2575 817 3079 
Q 1281 3584 2069 3584 
Q 2775 3584 3186 3129 
Q 3597 2675 3597 1894 
z
M 3022 2063 
Q 3016 2534 2758 2815 
Q 2500 3097 2075 3097 
Q 1594 3097 1305 2825 
Q 1016 2553 972 2059 
L 3022 2063 
z
" transform="scale(0.015625)"/>
        <path id="DejaVuSans-70" d="M 1159 525 
L 1159 -1331 
L 581 -1331 
L 581 3500 
L 1159 3500 
L 1159 2969 
Q 1341 3281 1617 3432 
Q 1894 3584 2278 3584 
Q 2916 3584 3314 3078 
Q 3713 2572 3713 1747 
Q 3713 922 3314 415 
Q 2916 -91 2278 -91 
Q 1894 -91 1617 61 
Q 1341 213 1159 525 
z
M 3116 1747 
Q 3116 2381 2855 2742 
Q 2594 3103 2138 3103 
Q 1681 3103 1420 2742 
Q 1159 2381 1159 1747 
Q 1159 1113 1420 752 
Q 1681 391 2138 391 
Q 2594 391 2855 752 
Q 3116 1113 3116 1747 
z
" transform="scale(0.015625)"/>
       </defs>
       <use xlink:href="#DejaVuSans-53"/>
       <use xlink:href="#DejaVuSans-65" transform="translate(63.476562 0)"/>
       <use xlink:href="#DejaVuSans-70" transform="translate(125 0)"/>
      </g>
     </g>
    </g>
    <g id="xtick_2">
     <g id="line2d_3">
      <path d="M 224.442307 455.237812 
L 224.442307 38.397812 
" clip-path="url(#p49df5cc80c)" style="fill: none; stroke: #d0d7de; stroke-opacity: 0.25; stroke-width: 0.5; stroke-linecap: square"/>
     </g>
     <g id="line2d_4">
      <g>
       <use xlink:href="#m7d407597c6" x="224.442307" y="455.237812" style="fill: #24292f; stroke: #24292f; stroke-width: 0.8"/>
      </g>
     </g>
     <g id="text_2">
      <!-- Nov -->
      <g style="fill: #24292f" transform="translate(214.682932 469.83625) scale(0.1 -0.1)">
       <defs>
        <path id="DejaVuSans-4e" d="M 628 4666 
L 1478 4666 
L 3547 763 
L 3547 4666 
L 4159 4666 
L 4159 0 
L 3309 0 
L 1241 3903 
L 1241 0 
L 628 0 
L 628 4666 
z
" transform="scale(0.015625)"/>
        <path id="DejaVuSans-6f" d="M 1959 3097 
Q 1497 3097 1228 2736 
Q 959 2375 959 1747 
Q 959 1119 1226 758 
Q 1494 397 1959 397 
Q 2419 397 2687 759 
Q 2956 1122 2956 1747 
Q 2956 2369 2687 2733 
Q 2419 3097 1959 3097 
z
M 1959 3584 
Q 2709 3584 3137 3096 
Q 3566 2609 3566 1747 
Q 3566 888 3137 398 
Q 2709 -91 1959 -91 
Q 1206 -91 779 398 
Q 353 888 353 1747 
Q 353 2609 779 3096 
Q 1206 3584 1959 3584 
z
" transform="scale(0.015625)"/>
        <path id="DejaVuSans-76" d="M 191 3500 
L 800 3500 
L 1894 563 
L 2988 3500 
L 3597 3500 
L 2284 0 
L 1503 0 
L 191 3500 
z
" transform="scale(0.015625)"/>
       </defs>
       <use xlink:href="#DejaVuSans-4e"/>
       <use xlink:href="#DejaVuSans-6f" transform="translate(74.804688 0)"/>
       <use xlink:href="#DejaVuSans-76" transform="translate(135.986328 0)"/>
      </g>
     </g>
    </g>
    <g id="xtick_3">
     <g id="line2d_5">
      <path d="M 362.980793 455.237812 
L 362.980793 38.397812 
" clip-path="url(#p49df5cc80c)" style="fill: none; stroke: #d0d7de; stroke-opacity: 0.25; stroke-width: 0.5; stroke-linecap: square"/>
     </g>
     <g id="line2d_6">
      <g>
       <use xlink:href="#m7d407597c6" x="362.980793" y="455.237812" style="fill: #24292f; stroke: #24292f; stroke-width: 0.8"/>
      </g>
     </g>
     <g id="text_3">
      <!-- 2026 -->
      <g style="fill: #24292f" transform="translate(350.255793 469.83625) scale(0.1 -0.1)">
       <defs>
        <path id="DejaVuSans-32" d="M 1228 531 
L 3431 531 
L 3431 0 
L 469 0 
L 469 531 
Q 828 903 1448 1529 
Q 2069 2156 2228 2338 
Q 2531 2678 2651 2914 
Q 2772 3150 2772 3378 
Q 2772 3750 2511 3984 
Q 2250 4219 1831 4219 
Q 1534 4219 1204 4116 
Q 875 4013 500 3803 
L 500 4441 
Q 881 4594 1212 4672 
Q 1544 4750 1819 4750 
Q 2544 4750 2975 4387 
Q 3406 4025 3406 3419 
Q 3406 3131 3298 2873 
Q 3191 2616 2906 2266 
Q 2828 2175 2409 1742 
Q 1991 1309 1228 531 
z
" transform="scale(0.015625)"/>
        <path id="DejaVuSans-30" d="M 2034 4250 
Q 1547 4250 1301 3770 
Q 1056 3291 1056 2328 
Q 1056 1369 1301 889 
Q 1547 409 2034 409 
Q 2525 409 2770 889 
Q 3016 1369 3016 2328 
Q 3016 3291 2770 3770 
Q 2525 4250 2034 4250 
z
M 2034 4750 
Q 2819 4750 3233 4129 
Q 3647 3509 3647 2328 
Q 3647 1150 3233 529 
Q 2819 -91 2034 -91 
Q 1250 -91 836 529 
Q 422 1150 422 2328 
Q 422 3509 836 4129 
Q 1250 4750 2034 4750 
z
" transform="scale(0.015625)"/>
        <path id="DejaVuSans-36" d="M 2113 2584 
Q 1688 2584 1439 2293 
Q 1191 2003 1191 1497 
Q 1191 994 1439 701 
Q 1688 409 2113 409 
Q 2538 409 2786 701 
Q 3034 994 3034 1497 
Q 3034 2003 2786 2293 
Q 2538 2584 2113 2584 
z
M 3366 4563 
L 3366 3988 
Q 3128 4100 2886 4159 
Q 2644 4219 2406 4219 
Q 1781 4219 1451 3797 
Q 1122 3375 1075 2522 
Q 1259 2794 1537 2939 
Q 1816 3084 2150 3084 
Q 2853 3084 3261 2657 
Q 3669 2231 3669 1497 
Q 3669 778 3244 343 
Q 2819 -91 2113 -91 
Q 1303 -91 875 529 
Q 447 1150 447 2328 
Q 447 3434 972 4092 
Q 1497 4750 2381 4750 
Q 2619 4750 2861 4703 
Q 3103 4656 3366 4563 
z
" transform="scale(0.015625)"/>
       </defs>
       <use xlink:href="#DejaVuSans-32"/>
       <use xlink:href="#DejaVuSans-30" transform="translate(63.623047 0)"/>
       <use xlink:href="#DejaVuSans-32" transform="translate(127.246094 0)"/>
       <use xlink:href="#DejaVuSans-36" transform="translate(190.869141 0)"/>
      </g>
     </g>
    </g>
    <g id="xtick_4">
     <g id="line2d_7">
      <path d="M 496.977033 455.237812 
L 496.977033 38.397812 
" clip-path="url(#p49df5cc80c)" style="fill: none; stroke: #d0d7de; stroke-opacity: 0.25; stroke-width: 0.5; stroke-linecap: square"/>
     </g>
     <g id="line2d_8">
      <g>
       <use xlink:href="#m7d407597c6" x="496.977033" y="455.237812" style="fill: #24292f; stroke: #24292f; stroke-width: 0.8"/>
      </g>
     </g>
     <g id="text_4">
      <!-- Mar -->
      <g style="fill: #24292f" transform="translate(487.543439 469.83625) scale(0.1 -0.1)">
       <defs>
        <path id="DejaVuSans-4d" d="M 628 4666 
L 1569 4666 
L 2759 1491 
L 3956 4666 
L 4897 4666 
L 4897 0 
L 4281 0 
L 4281 4097 
L 3078 897 
L 2444 897 
L 1241 4097 
L 1241 0 
L 628 0 
L 628 4666 
z
" transform="scale(0.015625)"/>
        <path id="DejaVuSans-61" d="M 2194 1759 
Q 1497 1759 1228 1600 
Q 959 1441 959 1056 
Q 959 750 1161 570 
Q 1363 391 1709 391 
Q 2188 391 2477 730 
Q 2766 1069 2766 1631 
L 2766 1759 
L 2194 1759 
z
M 3341 1997 
L 3341 0 
L 2766 0 
L 2766 531 
Q 2569 213 2275 61 
Q 1981 -91 1556 -91 
Q 1019 -91 701 211 
Q 384 513 384 1019 
Q 384 1609 779 1909 
Q 1175 2209 1959 2209 
L 2766 2209 
L 2766 2266 
Q 2766 2663 2505 2880 
Q 2244 3097 1772 3097 
Q 1472 3097 1187 3025 
Q 903 2953 641 2809 
L 641 3341 
Q 956 3463 1253 3523 
Q 1550 3584 1831 3584 
Q 2591 3584 2966 3190 
Q 3341 2797 3341 1997 
z
" transform="scale(0.015625)"/>
        <path id="DejaVuSans-72" d="M 2631 2963 
Q 2534 3019 2420 3045 
Q 2306 3072 2169 3072 
Q 1681 3072 1420 2755 
Q 1159 2438 1159 1844 
L 1159 0 
L 581 0 
L 581 3500 
L 1159 3500 
L 1159 2956 
Q 1341 3275 1631 3429 
Q 1922 3584 2338 3584 
Q 2397 3584 2469 3576 
Q 2541 3569 2628 3553 
L 2631 2963 
z
" transform="scale(0.015625)"/>
       </defs>
       <use xlink:href="#DejaVuSans-4d"/>
       <use xlink:href="#DejaVuSans-61" transform="translate(86.279297 0)"/>
       <use xlink:href="#DejaVuSans-72" transform="translate(147.558594 0)"/>
      </g>
     </g>
    </g>
    <g id="xtick_5">
     <g id="line2d_9">
      <path d="M 635.515519 455.237812 
L 635.515519 38.397812 
" clip-path="url(#p49df5cc80c)" style="fill: none; stroke: #d0d7de; stroke-opacity: 0.25; stroke-width: 0.5; stroke-linecap: square"/>
     </g>
     <g id="line2d_10">
      <g>
       <use xlink:href="#m7d407597c6" x="635.515519" y="455.237812" style="fill: #24292f; stroke: #24292f; stroke-width: 0.8"/>
      </g>
     </g>
     <g id="text_5">
      <!-- May -->
      <g style="fill: #24292f" transform="translate(625.178019 469.83625) scale(0.1 -0.1)">
       <defs>
        <path id="DejaVuSans-79" d="M 2059 -325 
Q 1816 -950 1584 -1140 
Q 1353 -1331 966 -1331 
L 506 -1331 
L 506 -850 
L 844 -850 
Q 1081 -850 1212 -737 
Q 1344 -625 1503 -206 
L 1606 56 
L 191 3500 
L 800 3500 
L 1894 763 
L 2988 3500 
L 3597 3500 
L 2059 -325 
z
" transform="scale(0.015625)"/>
       </defs>
       <use xlink:href="#DejaVuSans-4d"/>
       <use xlink:href="#DejaVuSans-61" transform="translate(86.279297 0)"/>
       <use xlink:href="#DejaVuSans-79" transform="translate(147.558594 0)"/>
      </g>
     </g>
    </g>
    <g id="xtick_6">
     <g id="line2d_11">
      <path d="M 774.054004 455.237812 
L 774.054004 38.397812 
" clip-path="url(#p49df5cc80c)" style="fill: none; stroke: #d0d7de; stroke-opacity: 0.25; stroke-width: 0.5; stroke-linecap: square"/>
     </g>
     <g id="line2d_12">
      <g>
       <use xlink:href="#m7d407597c6" x="774.054004" y="455.237812" style="fill: #24292f; stroke: #24292f; stroke-width: 0.8"/>
      </g>
     </g>
     <g id="text_6">
      <!-- Jul -->
      <g style="fill: #24292f" transform="translate(768.021192 469.83625) scale(0.1 -0.1)">
       <defs>
        <path id="DejaVuSans-4a" d="M 628 4666 
L 1259 4666 
L 1259 325 
Q 1259 -519 939 -900 
Q 619 -1281 -91 -1281 
L -331 -1281 
L -331 -750 
L -134 -750 
Q 284 -750 456 -515 
Q 628 -281 628 325 
L 628 4666 
z
" transform="scale(0.015625)"/>
        <path id="DejaVuSans-75" d="M 544 1381 
L 544 3500 
L 1119 3500 
L 1119 1403 
Q 1119 906 1312 657 
Q 1506 409 1894 409 
Q 2359 409 2629 706 
Q 2900 1003 2900 1516 
L 2900 3500 
L 3475 3500 
L 3475 0 
L 2900 0 
L 2900 538 
Q 2691 219 2414 64 
Q 2138 -91 1772 -91 
Q 1169 -91 856 284 
Q 544 659 544 1381 
z
M 1991 3584 
L 1991 3584 
z
" transform="scale(0.015625)"/>
        <path id="DejaVuSans-6c" d="M 603 4863 
L 1178 4863 
L 1178 0 
L 603 0 
L 603 4863 
z
" transform="scale(0.015625)"/>
       </defs>
       <use xlink:href="#DejaVuSans-4a"/>
       <use xlink:href="#DejaVuSans-75" transform="translate(29.492188 0)"/>
       <use xlink:href="#DejaVuSans-6c" transform="translate(92.871094 0)"/>
      </g>
     </g>
    </g>
    <g id="text_7">
     <!-- Date -->
     <g style="fill: #24292f" transform="translate(434.285313 485.034062) scale(0.12 -0.12)">
      <defs>
       <path id="DejaVuSans-44" d="M 1259 4147 
L 1259 519 
L 2022 519 
Q 2988 519 3436 956 
Q 3884 1394 3884 2338 
Q 3884 3275 3436 3711 
Q 2988 4147 2022 4147 
L 1259 4147 
z
M 628 4666 
L 1925 4666 
Q 3281 4666 3915 4102 
Q 4550 3538 4550 2338 
Q 4550 1131 3912 565 
Q 3275 0 1925 0 
L 628 0 
L 628 4666 
z
" transform="scale(0.015625)"/>
       <path id="DejaVuSans-74" d="M 1172 4494 
L 1172 3500 
L 2356 3500 
L 2356 3053 
L 1172 3053 
L 1172 1153 
Q 1172 725 1289 603 
Q 1406 481 1766 481 
L 2356 481 
L 2356 0 
L 1766 0 
Q 1100 0 847 248 
Q 594 497 594 1153 
L 594 3053 
L 172 3053 
L 172 3500 
L 594 3500 
L 594 4494 
L 1172 4494 
z
" transform="scale(0.015625)"/>
      </defs>
      <use xlink:href="#DejaVuSans-44"/>
      <use xlink:href="#DejaVuSans-61" transform="translate(77.001953 0)"/>
      <use xlink:href="#DejaVuSans-74" transform="translate(138.28125 0)"/>
      <use xlink:href="#DejaVuSans-65" transform="translate(177.490234 0)"/>
     </g>
    </g>
   </g>
   <g id="matplotlib.axis_2">
    <g id="ytick_1">
     <g id="line2d_13">
      <path d="M 48.90125 455.237812 
L 848.35125 455.237812 
" clip-path="url(#p49df5cc80c)" style="fill: none; stroke: #d0d7de; stroke-opacity: 0.25; stroke-width: 0.5; stroke-linecap: square"/>
     </g>
     <g id="line2d_14">
      <defs>
       <path id="m630975d014" d="M 0 0 
L -3.5 0 
" style="stroke: #24292f; stroke-width: 0.8"/>
      </defs>
      <g>
       <use xlink:href="#m630975d014" x="48.90125" y="455.237812" style="fill: #24292f; stroke: #24292f; stroke-width: 0.8"/>
      </g>
     </g>
     <g id="text_8">
      <!-- 0 -->
      <g style="fill: #24292f" transform="translate(35.53875 459.037031) scale(0.1 -0.1)">
       <use xlink:href="#DejaVuSans-30"/>
      </g>
     </g>
    </g>
    <g id="ytick_2">
     <g id="line2d_15">
      <path d="M 48.90125 399.659146 
L 848.35125 399.659146 
" clip-path="url(#p49df5cc80c)" style="fill: none; stroke: #d0d7de; stroke-opacity: 0.25; stroke-width: 0.5; stroke-linecap: square"/>
     </g>
     <g id="line2d_16">
      <g>
       <use xlink:href="#m630975d014" x="48.90125" y="399.659146" style="fill: #24292f; stroke: #24292f; stroke-width: 0.8"/>
      </g>
     </g>
     <g id="text_9">
      <!-- 100 -->
      <g style="fill: #24292f" transform="translate(22.81375 403.458365) scale(0.1 -0.1)">
       <defs>
        <path id="DejaVuSans-31" d="M 794 531 
L 1825 531 
L 1825 4091 
L 703 3866 
L 703 4441 
L 1819 4666 
L 2450 4666 
L 2450 531 
L 3481 531 
L 3481 0 
L 794 0 
L 794 531 
z
" transform="scale(0.015625)"/>
       </defs>
       <use xlink:href="#DejaVuSans-31"/>
       <use xlink:href="#DejaVuSans-30" transform="translate(63.623047 0)"/>
       <use xlink:href="#DejaVuSans-30" transform="translate(127.246094 0)"/>
      </g>
     </g>
    </g>
    <g id="ytick_3">
     <g id="line2d_17">
      <path d="M 48.90125 344.080479 
L 848.35125 344.080479 
" clip-path="url(#p49df5cc80c)" style="fill: none; stroke: #d0d7de; stroke-opacity: 0.25; stroke-width: 0.5; stroke-linecap: square"/>
     </g>
     <g id="line2d_18">
      <g>
       <use xlink:href="#m630975d014" x="48.90125" y="344.080479" style="fill: #24292f; stroke: #24292f; stroke-width: 0.8"/>
      </g>
     </g>
     <g id="text_10">
      <!-- 200 -->
      <g style="fill: #24292f" transform="translate(22.81375 347.879698) scale(0.1 -0.1)">
       <use xlink:href="#DejaVuSans-32"/>
       <use xlink:href="#DejaVuSans-30" transform="translate(63.623047 0)"/>
       <use xlink:href="#DejaVuSans-30" transform="translate(127.246094 0)"/>
      </g>
     </g>
    </g>
    <g id="ytick_4">
     <g id="line2d_19">
      <path d="M 48.90125 288.501812 
L 848.35125 288.501812 
" clip-path="url(#p49df5cc80c)" style="fill: none; stroke: #d0d7de; stroke-opacity: 0.25; stroke-width: 0.5; stroke-linecap: square"/>
     </g>
     <g id="line2d_20">
      <g>
       <use xlink:href="#m630975d014" x="48.90125" y="288.501812" style="fill: #24292f; stroke: #24292f; stroke-width: 0.8"/>
      </g>
     </g>
     <g id="text_11">
      <!-- 300 -->
      <g style="fill: #24292f" transform="translate(22.81375 292.301031) scale(0.1 -0.1)">
       <defs>
        <path id="DejaVuSans-33" d="M 2597 2516 
Q 3050 2419 3304 2112 
Q 3559 1806 3559 1356 
Q 3559 666 3084 287 
Q 2609 -91 1734 -91 
Q 1441 -91 1130 -33 
Q 819 25 488 141 
L 488 750 
Q 750 597 1062 519 
Q 1375 441 1716 441 
Q 2309 441 2620 675 
Q 2931 909 2931 1356 
Q 2931 1769 2642 2001 
Q 2353 2234 1838 2234 
L 1294 2234 
L 1294 2753 
L 1863 2753 
Q 2328 2753 2575 2939 
Q 2822 3125 2822 3475 
Q 2822 3834 2567 4026 
Q 2313 4219 1838 4219 
Q 1578 4219 1281 4162 
Q 984 4106 628 3988 
L 628 4550 
Q 988 4650 1302 4700 
Q 1616 4750 1894 4750 
Q 2613 4750 3031 4423 
Q 3450 4097 3450 3541 
Q 3450 3153 3228 2886 
Q 3006 2619 2597 2516 
z
" transform="scale(0.015625)"/>
       </defs>
       <use xlink:href="#DejaVuSans-33"/>
       <use xlink:href="#DejaVuSans-30" transform="translate(63.623047 0)"/>
       <use xlink:href="#DejaVuSans-30" transform="translate(127.246094 0)"/>
      </g>
     </g>
    </g>
    <g id="ytick_5">
     <g id="line2d_21">
      <path d="M 48.90125 232.923146 
L 848.35125 232.923146 
" clip-path="url(#p49df5cc80c)" style="fill: none; stroke: #d0d7de; stroke-opacity: 0.25; stroke-width: 0.5; stroke-linecap: square"/>
     </g>
     <g id="line2d_22">
      <g>
       <use xlink:href="#m630975d014" x="48.90125" y="232.923146" style="fill: #24292f; stroke: #24292f; stroke-width: 0.8"/>
      </g>
     </g>
     <g id="text_12">
      <!-- 400 -->
      <g style="fill: #24292f" transform="translate(22.81375 236.722365) scale(0.1 -0.1)">
       <defs>
        <path id="DejaVuSans-34" d="M 2419 4116 
L 825 1625 
L 2419 1625 
L 2419 4116 
z
M 2253 4666 
L 3047 4666 
L 3047 1625 
L 3713 1625 
L 3713 1100 
L 3047 1100 
L 3047 0 
L 2419 0 
L 2419 1100 
L 313 1100 
L 313 1709 
L 2253 4666 
z
" transform="scale(0.015625)"/>
       </defs>
       <use xlink:href="#DejaVuSans-34"/>
       <use xlink:href="#DejaVuSans-30" transform="translate(63.623047 0)"/>
       <use xlink:href="#DejaVuSans-30" transform="translate(127.246094 0)"/>
      </g>
     </g>
    </g>
    <g id="ytick_6">
     <g id="line2d_23">
      <path d="M 48.90125 177.344479 
L 848.35125 177.344479 
" clip-path="url(#p49df5cc80c)" style="fill: none; stroke: #d0d7de; stroke-opacity: 0.25; stroke-width: 0.5; stroke-linecap: square"/>
     </g>
     <g id="line2d_24">
      <g>
       <use xlink:href="#m630975d014" x="48.90125" y="177.344479" style="fill: #24292f; stroke: #24292f; stroke-width: 0.8"/>
      </g>
     </g>
     <g id="text_13">
      <!-- 500 -->
      <g style="fill: #24292f" transform="translate(22.81375 181.143698) scale(0.1 -0.1)">
       <defs>
        <path id="DejaVuSans-35" d="M 691 4666 
L 3169 4666 
L 3169 4134 
L 1269 4134 
L 1269 2991 
Q 1406 3038 1543 3061 
Q 1681 3084 1819 3084 
Q 2600 3084 3056 2656 
Q 3513 2228 3513 1497 
Q 3513 744 3044 326 
Q 2575 -91 1722 -91 
Q 1428 -91 1123 -41 
Q 819 9 494 109 
L 494 744 
Q 775 591 1075 516 
Q 1375 441 1709 441 
Q 2250 441 2565 725 
Q 2881 1009 2881 1497 
Q 2881 1984 2565 2268 
Q 2250 2553 1709 2553 
Q 1456 2553 1204 2497 
Q 953 2441 691 2322 
L 691 4666 
z
" transform="scale(0.015625)"/>
       </defs>
       <use xlink:href="#DejaVuSans-35"/>
       <use xlink:href="#DejaVuSans-30" transform="translate(63.623047 0)"/>
       <use xlink:href="#DejaVuSans-30" transform="translate(127.246094 0)"/>
      </g>
     </g>
    </g>
    <g id="ytick_7">
     <g id="line2d_25">
      <path d="M 48.90125 121.765812 
L 848.35125 121.765812 
" clip-path="url(#p49df5cc80c)" style="fill: none; stroke: #d0d7de; stroke-opacity: 0.25; stroke-width: 0.5; stroke-linecap: square"/>
     </g>
     <g id="line2d_26">
      <g>
       <use xlink:href="#m630975d014" x="48.90125" y="121.765812" style="fill: #24292f; stroke: #24292f; stroke-width: 0.8"/>
      </g>
     </g>
     <g id="text_14">
      <!-- 600 -->
      <g style="fill: #24292f" transform="translate(22.81375 125.565031) scale(0.1 -0.1)">
       <use xlink:href="#DejaVuSans-36"/>
       <use xlink:href="#DejaVuSans-30" transform="translate(63.623047 0)"/>
       <use xlink:href="#DejaVuSans-30" transform="translate(127.246094 0)"/>
      </g>
     </g>
    </g>
    <g id="ytick_8">
     <g id="line2d_27">
      <path d="M 48.90125 66.187146 
L 848.35125 66.187146 
" clip-path="url(#p49df5cc80c)" style="fill: none; stroke: #d0d7de; stroke-opacity: 0.25; stroke-width: 0.5; stroke-linecap: square"/>
     </g>
     <g id="line2d_28">
      <g>
       <use xlink:href="#m630975d014" x="48.90125" y="66.187146" style="fill: #24292f; stroke: #24292f; stroke-width: 0.8"/>
      </g>
     </g>
     <g id="text_15">
      <!-- 700 -->
      <g style="fill: #24292f" transform="translate(22.81375 69.986365) scale(0.1 -0.1)">
       <defs>
        <path id="DejaVuSans-37" d="M 525 4666 
L 3525 4666 
L 3525 4397 
L 1831 0 
L 1172 0 
L 2766 4134 
L 525 4134 
L 525 4666 
z
" transform="scale(0.015625)"/>
       </defs>
       <use xlink:href="#DejaVuSans-37"/>
       <use xlink:href="#DejaVuSans-30" transform="translate(63.623047 0)"/>
       <use xlink:href="#DejaVuSans-30" transform="translate(127.246094 0)"/>
      </g>
     </g>
    </g>
    <g id="text_16">
     <!-- Count -->
     <g style="fill: #24292f" transform="translate(16.318125 264.635937) rotate(-90) scale(0.12 -0.12)">
      <defs>
       <path id="DejaVuSans-43" d="M 4122 4306 
L 4122 3641 
Q 3803 3938 3442 4084 
Q 3081 4231 2675 4231 
Q 1875 4231 1450 3742 
Q 1025 3253 1025 2328 
Q 1025 1406 1450 917 
Q 1875 428 2675 428 
Q 3081 428 3442 575 
Q 3803 722 4122 1019 
L 4122 359 
Q 3791 134 3420 21 
Q 3050 -91 2638 -91 
Q 1578 -91 968 557 
Q 359 1206 359 2328 
Q 359 3453 968 4101 
Q 1578 4750 2638 4750 
Q 3056 4750 3426 4639 
Q 3797 4528 4122 4306 
z
" transform="scale(0.015625)"/>
       <path id="DejaVuSans-6e" d="M 3513 2113 
L 3513 0 
L 2938 0 
L 2938 2094 
Q 2938 2591 2744 2837 
Q 2550 3084 2163 3084 
Q 1697 3084 1428 2787 
Q 1159 2491 1159 1978 
L 1159 0 
L 581 0 
L 581 3500 
L 1159 3500 
L 1159 2956 
Q 1366 3272 1645 3428 
Q 1925 3584 2291 3584 
Q 2894 3584 3203 3211 
Q 3513 2838 3513 2113 
z
" transform="scale(0.015625)"/>
      </defs>
      <use xlink:href="#DejaVuSans-43"/>
      <use xlink:href="#DejaVuSans-6f" transform="translate(69.824219 0)"/>
      <use xlink:href="#DejaVuSans-75" transform="translate(131.005859 0)"/>
      <use xlink:href="#DejaVuSans-6e" transform="translate(194.384766 0)"/>
      <use xlink:href="#DejaVuSans-74" transform="translate(257.763672 0)"/>
     </g>
    </g>
   </g>
   <g id="line2d_29">
    <path d="M 85.239886 454.682026 
L 85.28339 454.682026 
L 85.38835 454.126239 
L 85.447494 454.126239 
L 85.592936 257.933546 
L 87.422477 257.933546 
L 87.430836 261.268266 
L 89.644235 261.268266 
L 89.802425 260.712479 
L 90.058636 260.712479 
L 90.307671 260.156692 
L 91.850799 259.600906 
L 91.881264 260.156692 
L 91.955233 259.600906 
L 96.733844 259.600906 
L 99.616698 260.712479 
L 100.045635 259.600906 
L 100.358834 259.600906 
L 101.148207 259.045119 
L 101.478466 256.821972 
L 102.121531 256.821972 
L 103.058632 260.712479 
L 103.119431 256.821972 
L 103.838515 256.266186 
L 105.709957 256.266186 
L 106.203584 255.710399 
L 106.93681 255.710399 
L 107.17746 254.598826 
L 111.703566 254.598826 
L 112.0369 253.487252 
L 112.053986 252.375679 
L 113.493126 252.375679 
L 115.615206 251.264106 
L 116.728398 251.264106 
L 116.745248 250.708319 
L 119.301733 250.708319 
L 119.935912 247.929386 
L 121.942938 247.929386 
L 121.95687 247.373599 
L 133.197219 247.373599 
L 135.298322 246.817812 
L 135.370057 247.373599 
L 137.549179 246.817812 
L 145.132336 246.817812 
L 148.807796 246.262026 
L 148.878795 245.706239 
L 149.053388 245.150452 
L 151.126839 245.150452 
L 152.009317 244.594666 
L 155.648555 244.594666 
L 155.786715 247.373599 
L 155.793496 245.150452 
L 155.970428 245.150452 
L 156.954976 242.927306 
L 161.150639 242.927306 
L 164.44742 242.371519 
L 168.111577 242.371519 
L 168.272369 241.815732 
L 177.793657 241.815732 
L 178.200015 241.259946 
L 180.511907 241.259946 
L 180.528204 240.148372 
L 184.933184 240.148372 
L 185.02253 236.257866 
L 192.995301 236.257866 
L 192.997693 235.702079 
L 193.228591 235.702079 
L 194.233457 235.146292 
L 195.254648 235.146292 
L 195.579439 234.590506 
L 195.611929 235.146292 
L 196.355669 234.590506 
L 196.35906 234.034719 
L 196.376435 234.590506 
L 196.806056 234.034719 
L 200.719616 234.034719 
L 201.936375 233.478932 
L 203.380168 233.478932 
L 205.832428 232.923146 
L 208.153941 232.923146 
L 209.94755 231.811572 
L 213.872755 231.811572 
L 216.156074 230.699999 
L 216.799401 231.255786 
L 219.986307 231.255786 
L 223.581278 229.032639 
L 228.942732 229.032639 
L 230.605514 228.476852 
L 260.238277 228.476852 
L 260.477586 227.921066 
L 271.283977 227.921066 
L 271.464536 227.365279 
L 289.852666 227.365279 
L 293.901678 226.809492 
L 293.925099 227.365279 
L 296.823593 225.697919 
L 301.077295 225.697919 
L 303.399965 225.142132 
L 303.403777 224.586346 
L 308.250048 224.586346 
L 309.989428 225.142132 
L 310.614696 224.586346 
L 318.725181 224.586346 
L 319.070344 225.142132 
L 319.702631 224.586346 
L 319.919912 222.363199 
L 323.636694 222.363199 
L 323.639901 221.807412 
L 335.013178 221.807412 
L 335.675484 221.251626 
L 337.861229 221.251626 
L 338.074463 220.695839 
L 348.732889 220.695839 
L 348.747373 220.140052 
L 351.413208 220.140052 
L 351.417177 219.584266 
L 352.064053 219.584266 
L 352.097831 219.028479 
L 353.102355 219.028479 
L 353.260177 218.472692 
L 355.410174 218.472692 
L 355.736989 217.361119 
L 356.920575 215.137972 
L 359.782689 215.137972 
L 360.098701 212.359039 
L 360.953737 212.359039 
L 361.424758 211.247466 
L 363.851916 211.247466 
L 364.648333 210.691679 
L 366.928078 210.691679 
L 367.233628 210.135892 
L 373.425618 210.135892 
L 373.578183 209.580106 
L 374.150879 209.580106 
L 375.040008 209.024319 
L 385.055133 209.024319 
L 385.145111 208.468532 
L 385.466222 208.468532 
L 386.136571 207.356959 
L 387.076406 207.356959 
L 387.302388 206.801172 
L 387.520116 206.801172 
L 387.602734 206.245386 
L 390.116109 206.245386 
L 390.543995 205.689599 
L 392.731686 205.689599 
L 392.871949 205.133812 
L 394.070281 205.133812 
L 394.212989 204.578026 
L 397.871205 204.578026 
L 397.951272 204.022239 
L 400.123244 204.022239 
L 400.848689 201.799092 
L 401.652992 201.799092 
L 401.653833 201.243306 
L 404.919624 201.243306 
L 405.518343 200.687519 
L 408.018918 200.687519 
L 408.511441 200.131732 
L 408.696706 200.131732 
L 409.177952 199.575946 
L 410.40725 199.575946 
L 410.549327 199.020159 
L 413.632402 199.020159 
L 414.427111 198.464372 
L 414.484993 197.908586 
L 414.742282 197.908586 
L 415.554366 195.685439 
L 418.072868 195.685439 
L 418.091005 195.129652 
L 420.487881 195.129652 
L 420.716281 194.573866 
L 420.988763 194.573866 
L 421.262849 194.018079 
L 421.320021 194.573866 
L 421.525263 194.018079 
L 422.43713 194.018079 
L 422.445857 193.462292 
L 422.688005 193.462292 
L 422.794043 192.906506 
L 423.526743 192.350719 
L 428.624572 192.350719 
L 429.421358 191.794932 
L 429.95473 191.794932 
L 430.387452 191.239146 
L 430.825195 191.794932 
L 432.627557 191.794932 
L 432.705285 190.683359 
L 435.292709 190.683359 
L 436.29663 189.015999 
L 447.193471 189.015999 
L 447.826783 188.460212 
L 464.646655 188.460212 
L 464.749986 187.904426 
L 489.465032 187.904426 
L 489.581716 186.792852 
L 489.589471 187.348639 
L 493.191645 187.348639 
L 494.004964 186.792852 
L 508.196301 186.792852 
L 511.11656 186.237066 
L 511.144949 185.681279 
L 511.386702 185.681279 
L 512.143953 185.125492 
L 534.920107 185.125492 
L 535.141174 184.569706 
L 555.39533 184.569706 
L 557.995082 184.013919 
L 559.585315 184.013919 
L 559.757883 183.458132 
L 560.863163 182.902346 
L 563.962746 182.902346 
L 565.268169 182.346559 
L 566.634154 182.346559 
L 566.740534 181.790772 
L 568.987316 181.790772 
L 569.255698 181.234986 
L 569.308822 180.679199 
L 573.309021 180.679199 
L 573.32453 180.123412 
L 576.730504 180.123412 
L 576.738022 179.567626 
L 577.892036 179.011839 
L 579.940725 179.011839 
L 581.41501 178.456052 
L 582.73439 178.456052 
L 584.678987 175.121332 
L 586.949268 175.121332 
L 586.959783 172.342399 
L 598.374829 172.342399 
L 598.376012 171.786612 
L 598.573447 171.230826 
L 599.666793 171.230826 
L 599.904604 170.675039 
L 603.490848 170.675039 
L 604.319887 170.119252 
L 604.456286 170.675039 
L 610.870683 170.675039 
L 610.872129 170.119252 
L 613.461971 170.119252 
L 614.521434 167.340319 
L 621.016451 167.340319 
L 621.08582 166.228746 
L 622.554321 164.561386 
L 624.027817 164.561386 
L 624.184772 164.005599 
L 630.378944 164.005599 
L 630.492842 163.449812 
L 636.712485 163.449812 
L 636.847963 162.894026 
L 638.562135 161.226666 
L 638.694959 160.670879 
L 655.581361 160.670879 
L 657.180111 157.891946 
L 660.994913 157.891946 
L 661.243396 157.336159 
L 664.109427 157.336159 
L 665.176171 156.224586 
L 680.282528 156.224586 
L 680.474049 155.668799 
L 682.68545 155.668799 
L 682.92234 155.113012 
L 697.490042 155.113012 
L 697.497507 153.445652 
L 697.94997 153.445652 
L 698.130241 152.889866 
L 700.623429 152.889866 
L 700.989016 152.334079 
L 700.991198 152.889866 
L 707.571566 152.889866 
L 709.159012 152.334079 
L 738.775136 152.334079 
L 738.778054 151.778292 
L 750.570937 151.778292 
L 752.047009 151.222506 
L 777.556107 151.222506 
L 777.718555 150.110932 
L 784.490102 150.110932 
L 786.023399 148.999359 
L 793.496734 148.999359 
L 805.129771 148.443572 
L 806.679786 147.887786 
L 808.947597 146.776212 
L 810.343785 146.776212 
L 811.550898 146.220426 
L 812.012614 146.220426 
L 812.012614 146.220426 
" clip-path="url(#p49df5cc80c)" style="fill: none; stroke: #1a7f37; stroke-width: 2; stroke-linecap: square"/>
   </g>
   <g id="line2d_30">
    <path d="M 85.239886 455.237812 
L 85.31099 453.570452 
L 85.38835 453.570452 
L 85.50924 372.981386 
L 86.519943 372.981386 
L 86.541997 370.758239 
L 87.647513 370.758239 
L 87.93235 369.090879 
L 88.319913 370.758239 
L 88.322778 369.090879 
L 88.643469 369.090879 
L 88.767408 367.979306 
L 91.934389 367.979306 
L 91.937411 367.423519 
L 91.955233 367.979306 
L 92.11111 367.423519 
L 92.156822 367.979306 
L 92.368609 367.423519 
L 93.390089 367.423519 
L 93.606608 366.311946 
L 94.861377 366.311946 
L 96.289293 365.756159 
L 96.339552 365.200372 
L 96.725485 364.644586 
L 96.733844 364.088799 
L 99.616698 367.979306 
L 100.045635 366.311946 
L 100.358834 363.533012 
L 102.121531 363.533012 
L 103.058632 367.979306 
L 103.119431 363.533012 
L 120.243302 363.533012 
L 120.768762 362.977226 
L 121.95687 362.977226 
L 125.201789 362.421439 
L 125.992213 361.865652 
L 137.254511 361.865652 
L 137.549179 361.309866 
L 139.063103 360.754079 
L 140.025333 360.754079 
L 141.09192 360.198292 
L 141.12065 359.086719 
L 141.853824 358.530932 
L 142.346584 357.975146 
L 149.13498 357.975146 
L 150.488191 357.419359 
L 150.897282 357.419359 
L 151.126839 356.863572 
L 152.009317 356.863572 
L 152.886039 356.307786 
L 155.648555 356.307786 
L 155.786715 358.530932 
L 155.793496 356.307786 
L 156.849016 356.307786 
L 156.954976 355.751999 
L 158.449028 355.751999 
L 159.918975 355.196212 
L 159.954645 354.640426 
L 164.44742 354.640426 
L 166.342415 354.084639 
L 166.347199 353.528852 
L 172.653139 353.528852 
L 175.283593 352.973066 
L 177.257104 352.973066 
L 177.793657 352.417279 
L 180.806075 352.417279 
L 182.524243 351.861492 
L 182.618426 351.305706 
L 184.293563 351.305706 
L 184.487975 350.749919 
L 185.02253 350.194132 
L 186.215842 350.194132 
L 186.969256 349.638346 
L 188.350619 349.638346 
L 189.252181 349.082559 
L 191.175485 349.082559 
L 191.83072 347.970986 
L 196.806056 347.970986 
L 198.222984 347.415199 
L 199.884479 347.415199 
L 200.259161 346.859412 
L 200.373743 346.303626 
L 200.719616 345.747839 
L 206.441163 345.747839 
L 207.488718 345.192052 
L 208.153941 344.636266 
L 224.423828 344.636266 
L 228.076025 344.080479 
L 228.11966 343.524692 
L 230.605514 343.524692 
L 232.730223 342.968906 
L 236.485619 342.968906 
L 236.802945 342.413119 
L 243.198548 342.413119 
L 248.205059 341.857332 
L 248.25311 341.301546 
L 248.907635 341.301546 
L 250.233745 340.745759 
L 250.307714 339.078399 
L 250.366069 338.522612 
L 253.136077 337.966826 
L 253.301942 337.411039 
L 253.368052 336.299466 
L 253.618927 335.743679 
L 262.632813 335.743679 
L 265.193504 335.187892 
L 266.82356 334.632106 
L 268.100541 334.632106 
L 271.061333 334.076319 
L 271.283977 331.853172 
L 271.464536 331.853172 
L 271.89024 330.741599 
L 277.506248 330.185812 
L 277.684994 329.630026 
L 277.737724 329.074239 
L 278.924202 329.074239 
L 280.044596 328.518452 
L 280.173372 327.962666 
L 280.260826 326.851092 
L 281.002437 326.295306 
L 281.056875 325.739519 
L 282.409981 325.183732 
L 284.188606 324.627946 
L 284.315095 324.072159 
L 284.317777 323.516372 
L 284.675531 322.960586 
L 284.738723 322.404799 
L 287.318787 321.849012 
L 287.781318 321.293226 
L 298.642936 321.293226 
L 300.444167 320.737439 
L 300.608088 320.181652 
L 307.969574 320.181652 
L 308.250048 319.070079 
L 311.317194 319.070079 
L 312.243202 318.514292 
L 312.28844 317.402719 
L 312.526225 316.846932 
L 314.100738 316.291146 
L 314.136198 315.735359 
L 314.326247 315.179572 
L 314.521001 312.956426 
L 314.737941 312.956426 
L 314.745932 312.400639 
L 316.06037 311.844852 
L 316.57713 311.289066 
L 316.702173 310.733279 
L 319.070344 310.177492 
L 320.815586 310.177492 
L 321.421613 309.621706 
L 327.983291 309.621706 
L 330.157129 309.065919 
L 330.165777 308.510132 
L 330.556731 307.954346 
L 335.675484 307.954346 
L 337.111706 307.398559 
L 337.703355 306.842772 
L 337.861229 305.731199 
L 342.00177 305.731199 
L 342.283873 305.175412 
L 344.557572 305.175412 
L 345.646107 304.619626 
L 348.747373 304.619626 
L 350.622232 304.063839 
L 354.515709 304.063839 
L 354.994248 303.508052 
L 356.920575 303.508052 
L 357.444905 302.952266 
L 357.672359 302.396479 
L 357.784391 301.840692 
L 359.37005 301.840692 
L 359.41513 300.729119 
L 359.994004 300.729119 
L 360.374075 299.061759 
L 361.753388 299.061759 
L 361.924695 298.505972 
L 362.057676 298.505972 
L 362.717879 297.950186 
L 363.813459 297.950186 
L 363.851916 297.394399 
L 364.648333 297.394399 
L 364.841773 296.838612 
L 365.590323 296.838612 
L 366.736426 295.727039 
L 367.233628 295.727039 
L 369.156591 294.615466 
L 369.159482 294.059679 
L 369.526621 293.503892 
L 370.463354 292.948106 
L 370.609005 292.392319 
L 371.542952 291.836532 
L 373.069651 291.836532 
L 373.578183 290.724959 
L 375.440135 290.724959 
L 375.492997 290.169172 
L 376.023451 290.169172 
L 376.064168 289.613386 
L 376.355261 289.057599 
L 377.368119 289.057599 
L 377.445163 288.501812 
L 377.618678 288.501812 
L 377.734101 287.390239 
L 379.158389 287.390239 
L 379.440439 286.834452 
L 379.677278 286.834452 
L 379.818828 286.278666 
L 380.180315 286.278666 
L 380.450958 285.722879 
L 380.508025 285.167092 
L 380.585385 285.167092 
L 381.945877 284.611306 
L 382.963965 284.611306 
L 383.041036 284.055519 
L 387.057138 284.055519 
L 387.076406 283.499732 
L 387.302388 283.499732 
L 387.834157 282.388159 
L 389.190548 282.388159 
L 389.316327 280.720799 
L 389.353023 279.609226 
L 389.590097 279.053439 
L 390.543995 279.053439 
L 390.993882 278.497652 
L 391.429943 278.497652 
L 391.570548 277.941866 
L 392.246496 277.386079 
L 392.871949 277.386079 
L 394.129346 276.830292 
L 394.212989 276.274506 
L 394.531314 276.274506 
L 394.595005 275.718719 
L 395.712771 275.718719 
L 395.743815 275.162932 
L 401.164569 275.162932 
L 401.285906 274.607146 
L 401.409582 274.607146 
L 401.481081 273.495572 
L 402.179083 273.495572 
L 402.327626 272.939786 
L 402.811081 272.383999 
L 402.932602 271.828212 
L 403.154641 271.828212 
L 403.342534 271.272426 
L 403.403781 270.716639 
L 406.127577 270.716639 
L 406.815091 270.160852 
L 406.950885 269.049279 
L 407.118223 268.493492 
L 407.397566 268.493492 
L 407.567821 267.937706 
L 411.476781 267.937706 
L 411.734832 266.270346 
L 412.26894 266.270346 
L 412.347352 265.714559 
L 414.434445 265.714559 
L 414.484993 264.602986 
L 416.991692 264.602986 
L 417.017663 264.047199 
L 418.225196 264.047199 
L 418.233318 263.491412 
L 418.821339 263.491412 
L 418.918861 262.935626 
L 420.62725 262.935626 
L 420.716281 262.379839 
L 420.829706 262.379839 
L 420.988763 261.824052 
L 421.311636 261.824052 
L 421.320021 261.268266 
L 421.525263 261.268266 
L 421.916795 260.712479 
L 425.079229 260.712479 
L 425.309075 260.156692 
L 426.247411 260.156692 
L 426.249146 259.600906 
L 433.423318 259.600906 
L 434.640971 259.045119 
L 434.676273 258.489332 
L 435.292709 257.933546 
L 436.230047 257.933546 
L 436.521587 256.266186 
L 439.026156 256.266186 
L 439.475702 255.710399 
L 443.781714 255.710399 
L 443.794962 255.154612 
L 445.20135 255.154612 
L 445.802382 254.598826 
L 452.421864 254.598826 
L 452.504481 253.487252 
L 455.107808 253.487252 
L 455.625619 252.931466 
L 456.180125 252.931466 
L 456.857992 252.375679 
L 461.338702 252.375679 
L 461.76777 251.819892 
L 462.139562 251.819892 
L 462.321856 251.264106 
L 463.749246 250.708319 
L 464.447984 250.708319 
L 464.749986 250.152532 
L 466.755329 249.596746 
L 470.44756 249.596746 
L 470.736497 249.040959 
L 484.987503 249.040959 
L 485.508205 248.485172 
L 488.803778 248.485172 
L 488.92288 247.929386 
L 489.136955 247.929386 
L 489.201487 247.373599 
L 507.605861 247.373599 
L 508.196301 246.817812 
L 512.590634 246.817812 
L 513.545215 246.262026 
L 513.609196 245.706239 
L 515.895538 245.706239 
L 515.990405 245.150452 
L 523.396105 245.150452 
L 523.411272 244.594666 
L 529.662905 244.594666 
L 529.730198 244.038879 
L 530.13624 243.483092 
L 531.670352 243.483092 
L 531.673874 242.927306 
L 532.112064 242.371519 
L 534.289003 242.371519 
L 535.049987 241.815732 
L 539.961605 241.815732 
L 539.996198 240.704159 
L 571.129952 240.704159 
L 573.32453 240.148372 
L 576.085573 240.148372 
L 576.177312 239.592586 
L 588.418322 239.592586 
L 588.438878 239.036799 
L 601.222118 239.036799 
L 601.35389 238.481012 
L 602.114427 238.481012 
L 602.134247 237.925226 
L 602.306132 237.369439 
L 602.974773 236.257866 
L 603.073056 235.146292 
L 603.129861 234.034719 
L 603.301115 233.478932 
L 603.490848 232.367359 
L 604.456286 232.367359 
L 604.576308 231.811572 
L 604.58196 231.255786 
L 604.943999 230.699999 
L 610.872129 230.699999 
L 611.511092 229.588426 
L 630.209345 229.588426 
L 630.369454 229.032639 
L 641.741286 229.032639 
L 642.011587 227.921066 
L 643.235496 227.921066 
L 643.399443 227.365279 
L 650.671057 227.365279 
L 650.852773 226.809492 
L 653.710971 226.809492 
L 654.47432 226.253706 
L 654.546108 225.697919 
L 658.834508 225.697919 
L 658.968094 224.586346 
L 659.521338 224.030559 
L 660.038834 224.030559 
L 660.994913 223.474772 
L 663.743392 223.474772 
L 663.785292 222.918986 
L 664.109427 222.363199 
L 666.352082 222.363199 
L 668.728586 221.807412 
L 680.474049 221.807412 
L 681.862378 221.251626 
L 682.376377 220.695839 
L 682.68545 219.584266 
L 684.33827 219.584266 
L 691.072595 218.472692 
L 692.7624 218.472692 
L 692.948558 217.361119 
L 693.177169 217.361119 
L 693.293143 216.805332 
L 702.757075 216.805332 
L 702.768168 216.249546 
L 718.582778 216.249546 
L 720.684776 215.693759 
L 720.810555 214.582186 
L 720.890307 214.582186 
L 720.979181 213.470612 
L 721.103488 213.470612 
L 721.120364 212.914826 
L 722.54155 212.914826 
L 722.682786 212.359039 
L 722.762801 211.803252 
L 723.072925 211.247466 
L 723.301483 211.247466 
L 723.763383 210.691679 
L 733.995684 210.691679 
L 734.024599 210.135892 
L 738.63277 210.135892 
L 738.70461 209.580106 
L 738.778054 209.580106 
L 739.471666 209.024319 
L 741.880633 209.024319 
L 743.463979 208.468532 
L 750.562315 208.468532 
L 750.570937 207.356959 
L 752.58209 207.356959 
L 752.641944 206.801172 
L 753.334741 206.245386 
L 753.389705 205.689599 
L 754.304069 205.689599 
L 754.33506 205.133812 
L 756.851249 205.133812 
L 756.962281 204.022239 
L 759.062991 204.022239 
L 759.096611 202.354879 
L 759.213111 201.799092 
L 759.503704 201.799092 
L 759.558695 201.243306 
L 761.167013 201.243306 
L 761.177816 200.687519 
L 761.610302 200.687519 
L 763.460373 194.573866 
L 764.722923 194.573866 
L 764.740009 194.018079 
L 771.122679 194.018079 
L 771.374894 192.350719 
L 776.405668 192.350719 
L 777.233655 191.239146 
L 777.424939 185.681279 
L 777.556107 185.125492 
L 786.023399 185.125492 
L 786.629663 182.902346 
L 786.631924 179.567626 
L 809.743121 179.567626 
L 810.012238 179.011839 
L 812.012614 179.011839 
L 812.012614 179.011839 
" clip-path="url(#p49df5cc80c)" style="fill: none; stroke: #0969da; stroke-width: 2; stroke-linecap: square"/>
   </g>
   <g id="line2d_31">
    <path d="M 85.239886 455.237812 
L 87.422477 455.237812 
L 87.430836 454.126239 
L 89.232699 454.126239 
L 89.644235 453.570452 
L 200.719616 453.570452 
L 201.936375 453.014666 
L 232.730223 453.014666 
L 233.584812 452.458879 
L 262.632813 452.458879 
L 265.193504 451.903092 
L 271.89024 451.903092 
L 277.737724 450.235732 
L 278.924202 449.124159 
L 281.056875 449.124159 
L 282.409981 448.568372 
L 284.317777 448.012586 
L 284.738723 448.012586 
L 287.318787 447.456799 
L 287.781318 446.901012 
L 289.852666 446.345226 
L 293.901678 445.789439 
L 293.925099 446.345226 
L 300.608088 446.345226 
L 301.077295 445.789439 
L 310.614696 445.789439 
L 311.317194 445.233652 
L 314.521001 445.233652 
L 314.745932 444.677866 
L 318.725181 444.677866 
L 319.070344 444.122079 
L 333.647719 444.122079 
L 335.013178 443.566292 
L 335.587058 443.566292 
L 335.675484 443.010506 
L 339.56607 443.010506 
L 339.569776 442.454719 
L 348.732889 442.454719 
L 348.747373 441.898932 
L 351.417177 441.898932 
L 352.097831 441.343146 
L 353.100594 440.787359 
L 353.102355 440.231572 
L 353.260177 440.231572 
L 354.515709 438.564212 
L 355.361492 438.564212 
L 355.410174 436.896852 
L 355.736989 436.896852 
L 356.920575 437.452639 
L 357.771773 437.452639 
L 357.784391 435.229492 
L 360.953737 435.229492 
L 361.424758 434.673706 
L 361.924695 434.673706 
L 362.057676 434.117919 
L 373.425618 434.117919 
L 373.578183 433.562132 
L 374.150879 433.562132 
L 375.040008 433.006346 
L 378.962715 433.006346 
L 379.158389 432.450559 
L 380.508025 432.450559 
L 380.585385 431.894772 
L 385.055133 431.894772 
L 385.145111 431.338986 
L 385.466222 431.338986 
L 385.791907 430.783199 
L 386.117277 430.783199 
L 386.136571 430.227412 
L 387.520116 430.227412 
L 387.602734 429.671626 
L 394.025726 429.671626 
L 394.147063 429.115839 
L 394.315005 428.560052 
L 394.595005 428.560052 
L 395.395839 428.004266 
L 398.526755 428.004266 
L 398.529515 427.448479 
L 399.127761 427.448479 
L 399.150525 426.892692 
L 400.848689 426.892692 
L 401.264746 426.336906 
L 403.468445 426.336906 
L 404.12481 425.781119 
L 405.401291 425.781119 
L 405.414828 424.669546 
L 405.518343 424.669546 
L 405.648617 424.113759 
L 407.702064 424.113759 
L 408.018918 423.557972 
L 408.511441 423.557972 
L 408.696706 423.002186 
L 409.898876 423.002186 
L 410.06674 422.446399 
L 410.068895 421.890612 
L 410.40725 421.890612 
L 410.549327 421.334826 
L 423.499247 421.334826 
L 423.526743 420.223252 
L 425.309075 420.223252 
L 425.822049 419.667466 
L 426.249146 419.667466 
L 428.252702 419.111679 
L 428.624572 419.111679 
L 429.421358 418.555892 
L 429.95473 418.555892 
L 430.387452 418.000106 
L 430.825195 418.555892 
L 432.234369 418.555892 
L 432.617569 418.000106 
L 432.705285 416.888532 
L 433.418507 416.332746 
L 433.423318 415.221172 
L 436.536754 415.221172 
L 437.217644 414.665386 
L 437.286645 412.998026 
L 437.967193 412.442239 
L 438.343558 411.886452 
L 441.562506 411.886452 
L 441.699089 410.219092 
L 441.863272 410.219092 
L 441.985004 409.663306 
L 442.771695 409.107519 
L 444.010009 409.107519 
L 444.265116 408.551732 
L 444.323156 407.995946 
L 444.453325 407.995946 
L 445.20135 406.884372 
L 446.002788 406.884372 
L 446.265938 406.328586 
L 447.190422 406.328586 
L 447.193471 405.217012 
L 447.826783 405.217012 
L 448.667546 404.661226 
L 450.895007 403.549652 
L 451.193854 402.993866 
L 455.625619 402.993866 
L 456.180125 401.882292 
L 464.646655 401.882292 
L 464.749986 400.770719 
L 468.870996 400.770719 
L 469.500654 400.214932 
L 471.41142 400.214932 
L 471.518668 399.659146 
L 483.273909 399.659146 
L 483.46154 399.103359 
L 484.625911 399.103359 
L 484.987503 398.547572 
L 487.160578 398.547572 
L 487.569275 397.991786 
L 487.571956 397.435999 
L 488.039377 396.880212 
L 489.465032 396.880212 
L 489.573909 396.324426 
L 489.581716 395.212852 
L 489.589471 395.768639 
L 490.547495 395.212852 
L 494.004964 395.212852 
L 494.686958 394.101279 
L 500.925317 394.101279 
L 501.407641 393.545492 
L 502.921013 393.545492 
L 503.042166 392.989706 
L 503.058832 392.433919 
L 508.196301 392.433919 
L 511.386702 391.322346 
L 512.143953 391.322346 
L 512.590634 390.766559 
L 519.19918 390.766559 
L 520.011475 390.210772 
L 521.017997 390.210772 
L 521.992819 389.654986 
L 530.13624 389.654986 
L 530.359724 389.099199 
L 530.360934 388.543412 
L 534.920107 388.543412 
L 535.141174 387.987626 
L 555.39533 387.987626 
L 557.995082 387.431839 
L 563.962746 387.431839 
L 565.268169 386.876052 
L 566.416768 386.876052 
L 566.740534 386.320266 
L 569.308822 386.320266 
L 569.760628 385.764479 
L 570.356509 385.764479 
L 571.129952 385.208692 
L 572.983887 385.208692 
L 573.32453 384.652906 
L 573.55272 384.652906 
L 574.383467 384.097119 
L 582.409441 384.097119 
L 582.431889 382.429759 
L 589.434991 382.429759 
L 592.404668 381.873972 
L 592.407086 381.318186 
L 595.889369 381.318186 
L 596.035546 380.762399 
L 596.147631 380.206612 
L 597.666575 380.206612 
L 598.376012 379.650826 
L 598.883519 379.650826 
L 599.666793 379.095039 
L 600.507345 379.095039 
L 600.652602 377.983466 
L 601.35389 377.983466 
L 601.493654 377.427679 
L 603.07169 377.427679 
L 603.129861 376.871892 
L 605.617161 376.871892 
L 607.419102 376.316106 
L 608.010146 376.316106 
L 608.59036 375.760319 
L 609.788929 375.204532 
L 609.794055 374.648746 
L 610.124577 372.981386 
L 610.426605 372.425599 
L 610.872129 371.869812 
L 612.066098 371.869812 
L 612.790176 370.202452 
L 614.521434 370.202452 
L 614.990195 368.535092 
L 616.895204 368.535092 
L 617.096924 367.979306 
L 618.477656 367.979306 
L 618.777712 366.867732 
L 619.297626 366.311946 
L 621.08582 366.311946 
L 624.184772 365.200372 
L 626.171663 364.644586 
L 626.306642 364.088799 
L 628.18597 364.088799 
L 628.306202 363.533012 
L 630.369454 363.533012 
L 630.378944 362.977226 
L 630.765718 362.977226 
L 630.850491 362.421439 
L 636.712485 362.421439 
L 636.847963 361.865652 
L 638.694959 361.309866 
L 641.732586 361.309866 
L 641.741286 360.754079 
L 652.885454 360.754079 
L 653.710971 358.530932 
L 658.284286 358.530932 
L 658.291042 357.419359 
L 664.109427 357.419359 
L 665.173911 355.751999 
L 665.176171 355.196212 
L 669.289059 355.196212 
L 670.672893 354.084639 
L 670.734823 353.528852 
L 696.591424 353.528852 
L 697.622392 352.973066 
L 700.340011 352.973066 
L 700.623429 351.861492 
L 728.074258 351.861492 
L 728.583604 349.638346 
L 750.570937 349.638346 
L 752.047009 349.082559 
L 761.608909 349.082559 
L 761.610302 344.636266 
L 777.556107 344.636266 
L 777.718555 344.080479 
L 793.496734 344.080479 
L 805.129771 343.524692 
L 806.679786 342.968906 
L 810.343785 342.968906 
L 811.550898 342.413119 
L 812.012614 341.857332 
L 812.012614 341.857332 
" clip-path="url(#p49df5cc80c)" style="fill: none; stroke: #bf8700; stroke-width: 2; stroke-linecap: square"/>
   </g>
   <g id="line2d_32">
    <path d="M 85.239886 454.682026 
L 85.426571 454.682026 
L 85.50924 432.450559 
L 85.94128 426.892692 
L 86.188159 425.781119 
L 86.313412 426.336906 
L 86.541997 425.781119 
L 86.928587 425.225332 
L 87.430836 423.002186 
L 87.647513 421.334826 
L 87.93235 421.334826 
L 88.319913 420.779039 
L 88.322778 420.223252 
L 88.634821 419.667466 
L 88.720855 419.111679 
L 88.767408 419.111679 
L 89.56514 418.000106 
L 89.644235 411.886452 
L 89.698936 412.442239 
L 89.965556 404.661226 
L 90.058636 402.993866 
L 91.937411 402.993866 
L 92.11111 399.659146 
L 92.156822 402.438079 
L 92.368609 397.991786 
L 92.473491 397.435999 
L 93.254899 396.880212 
L 93.390089 395.768639 
L 93.606608 395.768639 
L 94.009022 395.212852 
L 94.22399 394.657066 
L 94.586371 391.878132 
L 94.788354 392.433919 
L 94.861377 390.766559 
L 96.733844 390.766559 
L 99.616698 402.993866 
L 100.045635 390.210772 
L 100.358834 389.654986 
L 101.478466 389.654986 
L 101.683262 389.099199 
L 102.121531 388.543412 
L 103.058632 402.993866 
L 103.119431 387.987626 
L 103.838515 387.431839 
L 105.376281 386.876052 
L 105.485946 387.431839 
L 105.709957 385.764479 
L 106.203584 385.764479 
L 106.353573 385.208692 
L 106.636859 384.652906 
L 106.660359 383.541332 
L 106.921669 382.429759 
L 106.93681 382.985546 
L 107.09224 382.985546 
L 107.474283 378.539252 
L 107.810851 376.871892 
L 107.975349 377.983466 
L 109.138459 374.648746 
L 109.444718 375.760319 
L 110.705086 373.537172 
L 111.703566 377.427679 
L 112.053986 373.537172 
L 113.493126 371.869812 
L 115.615206 371.869812 
L 115.895469 371.314026 
L 116.118507 369.646666 
L 116.745248 371.314026 
L 119.301733 371.869812 
L 119.935912 369.646666 
L 120.243302 367.979306 
L 120.768762 369.646666 
L 121.95687 367.979306 
L 125.992213 367.979306 
L 130.235401 367.423519 
L 130.518371 366.867732 
L 133.197219 366.311946 
L 134.968589 366.311946 
L 135.298322 365.756159 
L 135.370057 366.311946 
L 137.254511 364.644586 
L 139.02207 364.644586 
L 139.063103 364.088799 
L 140.025333 363.533012 
L 142.346584 363.533012 
L 143.370534 359.642506 
L 144.132648 359.086719 
L 145.113305 358.530932 
L 145.132336 357.975146 
L 148.807796 357.975146 
L 148.878795 354.084639 
L 149.014826 354.084639 
L 149.13498 352.973066 
L 150.488191 352.973066 
L 150.897282 352.417279 
L 152.886039 352.417279 
L 155.648555 351.861492 
L 155.786715 363.533012 
L 155.793496 352.417279 
L 155.970428 351.861492 
L 156.954976 351.861492 
L 158.449028 351.305706 
L 159.954645 351.305706 
L 161.150639 350.749919 
L 164.44742 349.638346 
L 166.347199 349.638346 
L 167.874003 349.082559 
L 168.111577 346.303626 
L 168.272369 346.303626 
L 168.556891 345.747839 
L 170.04098 345.192052 
L 170.38404 342.968906 
L 172.435174 341.857332 
L 172.459883 342.413119 
L 172.653139 341.857332 
L 175.283593 340.745759 
L 177.257104 340.189972 
L 178.200015 340.189972 
L 179.035756 339.634186 
L 179.760018 338.522612 
L 180.528204 337.966826 
L 180.806075 337.411039 
L 182.618426 337.966826 
L 184.293563 336.855252 
L 184.487975 337.411039 
L 184.933184 337.411039 
L 185.02253 336.855252 
L 186.215842 336.299466 
L 186.969256 336.855252 
L 188.350619 335.743679 
L 189.252181 335.743679 
L 191.175485 335.187892 
L 191.494415 335.743679 
L 191.83072 334.076319 
L 192.997693 334.076319 
L 193.228591 333.520532 
L 194.233457 331.297386 
L 194.517374 330.185812 
L 195.254648 330.741599 
L 195.579439 329.630026 
L 195.611929 329.074239 
L 198.222984 329.074239 
L 199.545414 328.518452 
L 199.884479 327.962666 
L 201.936375 327.962666 
L 203.380168 327.406879 
L 205.832428 327.406879 
L 206.441163 326.851092 
L 213.184452 326.851092 
L 213.571726 326.295306 
L 213.610524 325.739519 
L 213.872755 325.183732 
L 216.799401 325.183732 
L 216.981801 324.627946 
L 217.726408 324.072159 
L 217.855368 323.516372 
L 219.089029 322.960586 
L 219.986307 322.404799 
L 223.581278 322.404799 
L 224.423828 321.293226 
L 228.11966 321.293226 
L 228.942732 320.737439 
L 232.38711 320.737439 
L 232.730223 320.181652 
L 233.584812 319.625866 
L 233.839209 319.070079 
L 233.925585 318.514292 
L 236.485619 317.958506 
L 236.802945 318.514292 
L 240.173065 317.402719 
L 242.837665 316.291146 
L 243.198548 315.735359 
L 248.25311 315.735359 
L 248.907635 315.179572 
L 253.618927 315.179572 
L 258.056869 314.623786 
L 258.615081 314.067999 
L 260.477586 313.512212 
L 262.345348 312.956426 
L 262.632813 312.400639 
L 266.82356 312.400639 
L 268.100541 311.844852 
L 277.737724 311.844852 
L 278.924202 311.289066 
L 286.884776 311.289066 
L 287.318787 310.733279 
L 287.781318 311.289066 
L 289.852666 310.733279 
L 296.823593 310.733279 
L 297.75775 310.177492 
L 312.50446 310.177492 
L 312.526225 309.621706 
L 321.633795 309.621706 
L 323.634775 309.065919 
L 323.639901 308.510132 
L 333.643276 308.510132 
L 333.647719 307.398559 
L 339.569776 307.398559 
L 342.283873 306.842772 
L 345.646107 306.842772 
L 348.747373 305.731199 
L 354.994248 305.731199 
L 355.361492 305.175412 
L 355.410174 304.619626 
L 357.771773 304.619626 
L 357.784391 304.063839 
L 358.029614 304.063839 
L 358.420515 303.508052 
L 361.924695 303.508052 
L 362.057676 302.952266 
L 366.736426 302.952266 
L 366.928078 302.396479 
L 378.354349 302.396479 
L 378.961848 300.729119 
L 378.962715 300.173332 
L 380.581521 300.173332 
L 380.585385 299.617546 
L 385.360289 299.617546 
L 385.466222 299.061759 
L 387.752039 299.061759 
L 387.834157 298.505972 
L 396.325843 298.505972 
L 396.60048 297.950186 
L 398.460172 297.950186 
L 398.529515 297.394399 
L 399.150525 296.838612 
L 414.742282 296.838612 
L 415.554366 295.727039 
L 416.769942 295.727039 
L 417.017663 295.171252 
L 418.233318 295.171252 
L 418.413483 294.615466 
L 421.285691 294.615466 
L 421.320021 294.059679 
L 437.216303 294.059679 
L 437.286645 292.948106 
L 457.156366 292.948106 
L 457.672416 292.392319 
L 491.597732 292.392319 
L 493.191645 291.836532 
L 507.528738 291.836532 
L 507.605861 291.280746 
L 514.024543 291.280746 
L 514.336533 290.724959 
L 641.374411 290.724959 
L 641.741286 290.169172 
L 657.871016 290.169172 
L 658.291042 289.613386 
L 664.109427 289.613386 
L 665.163633 289.057599 
L 665.176171 285.167092 
L 670.669817 285.167092 
L 670.734823 282.388159 
L 739.471666 282.388159 
L 739.915823 281.832372 
L 772.711965 281.832372 
L 776.405668 281.276586 
L 789.682904 281.276586 
L 789.688187 280.720799 
L 811.550898 280.720799 
L 812.012614 279.053439 
L 812.012614 279.053439 
" clip-path="url(#p49df5cc80c)" style="fill: none; stroke: #cf222e; stroke-width: 2; stroke-linecap: square"/>
   </g>
   <g id="line2d_33">
    <path d="M 85.239886 454.682026 
L 85.254738 454.126239 
L 85.371832 -1 
M 85.477075 -1 
L 85.592936 101.201706 
L 87.422477 101.201706 
L 87.430836 97.866986 
L 89.644235 97.866986 
L 89.802425 98.422772 
L 90.058636 98.422772 
L 90.307671 98.978559 
L 91.850799 99.534346 
L 91.881264 98.978559 
L 91.955233 99.534346 
L 96.733844 99.534346 
L 99.616698 98.422772 
L 100.045635 99.534346 
L 100.358834 98.978559 
L 101.148207 99.534346 
L 101.478466 96.755412 
L 102.121531 96.755412 
L 103.058632 98.422772 
L 103.119431 95.643839 
L 103.838515 96.199626 
L 105.709957 96.199626 
L 106.203584 95.088052 
L 106.93681 95.088052 
L 107.17746 91.197546 
L 111.703566 91.197546 
L 112.053986 86.751252 
L 113.493126 86.751252 
L 115.615206 82.860746 
L 116.728398 82.860746 
L 116.745248 83.416532 
L 119.301733 83.416532 
L 119.935912 80.081812 
L 121.942938 80.081812 
L 121.95687 80.637599 
L 133.197219 80.637599 
L 135.298322 81.193386 
L 135.370057 80.637599 
L 137.549179 81.193386 
L 145.132336 81.193386 
L 148.807796 81.749172 
L 148.878795 74.523946 
L 149.053388 75.079732 
L 151.126839 75.079732 
L 152.009317 75.635519 
L 155.648555 75.635519 
L 155.786715 80.637599 
L 155.793496 71.745012 
L 155.970428 71.745012 
L 156.954976 73.968159 
L 161.150639 73.968159 
L 164.44742 70.077652 
L 168.111577 70.077652 
L 168.272369 68.410292 
L 177.793657 68.410292 
L 178.200015 68.966079 
L 180.511907 68.966079 
L 180.528204 70.077652 
L 184.933184 70.077652 
L 185.02253 73.412372 
L 191.83072 73.412372 
L 191.993326 68.410292 
L 192.995301 67.298719 
L 192.997693 67.854506 
L 193.228591 67.854506 
L 194.051242 65.075572 
L 195.254648 65.075572 
L 195.579439 65.631359 
L 195.611929 65.075572 
L 196.355669 65.631359 
L 196.35906 66.187146 
L 196.376435 65.631359 
L 196.806056 63.408212 
L 200.719616 63.408212 
L 201.936375 63.963999 
L 203.380168 63.963999 
L 205.832428 64.519786 
L 208.153941 64.519786 
L 209.94755 65.631359 
L 213.610524 65.075572 
L 213.872755 65.075572 
L 216.156074 66.187146 
L 216.799401 65.631359 
L 219.986307 65.631359 
L 223.579333 67.854506 
L 223.581278 67.298719 
L 228.942732 67.298719 
L 230.605514 67.854506 
L 260.238277 67.854506 
L 260.477586 68.410292 
L 262.332021 68.410292 
L 262.345348 66.742932 
L 271.283977 66.742932 
L 271.464536 67.298719 
L 289.852666 67.298719 
L 293.901678 67.854506 
L 293.925099 67.298719 
L 296.823593 68.966079 
L 297.75775 68.966079 
L 298.642936 68.410292 
L 301.077295 68.410292 
L 303.399965 68.966079 
L 303.403777 69.521866 
L 309.989428 67.854506 
L 310.614696 68.410292 
L 318.725181 68.410292 
L 319.070344 67.854506 
L 319.702631 68.410292 
L 319.919912 70.633439 
L 323.636694 70.633439 
L 323.639901 71.189226 
L 335.013178 71.189226 
L 335.675484 71.745012 
L 337.861229 71.745012 
L 338.074463 72.300799 
L 348.732889 72.300799 
L 348.747373 72.856586 
L 350.622232 72.856586 
L 351.413208 73.412372 
L 351.417177 73.968159 
L 352.064053 73.412372 
L 352.097831 73.968159 
L 353.102355 73.968159 
L 353.260177 74.523946 
L 355.361492 74.523946 
L 355.410174 73.412372 
L 355.736989 74.523946 
L 356.920575 72.856586 
L 359.782689 72.856586 
L 360.098701 71.189226 
L 360.953737 71.189226 
L 361.424758 72.300799 
L 363.851916 72.300799 
L 364.648333 72.856586 
L 364.841773 72.856586 
L 365.590323 70.077652 
L 366.928078 70.077652 
L 367.233628 70.633439 
L 373.425618 70.633439 
L 373.578183 71.189226 
L 374.150879 71.189226 
L 375.040008 71.745012 
L 385.055133 71.745012 
L 385.145111 72.300799 
L 385.466222 72.300799 
L 386.136571 73.412372 
L 387.076406 73.412372 
L 387.302388 72.856586 
L 387.520116 72.856586 
L 387.602734 73.412372 
L 390.116109 73.412372 
L 390.543995 73.968159 
L 392.731686 73.968159 
L 392.871949 74.523946 
L 394.070281 74.523946 
L 394.212989 75.079732 
L 397.871205 75.079732 
L 397.951272 75.635519 
L 400.123244 75.635519 
L 400.848689 77.858666 
L 401.652992 77.858666 
L 401.653833 78.414452 
L 404.919624 78.414452 
L 405.518343 78.970239 
L 408.018918 78.970239 
L 408.511441 79.526026 
L 410.40725 79.526026 
L 410.549327 80.081812 
L 413.632402 80.081812 
L 414.427111 80.637599 
L 414.484993 81.193386 
L 414.742282 81.193386 
L 415.554366 60.629279 
L 418.072868 60.629279 
L 418.091005 61.185066 
L 418.233318 61.185066 
L 418.413483 60.629279 
L 420.487881 60.629279 
L 420.716281 61.185066 
L 420.988763 61.185066 
L 421.262849 61.740852 
L 421.320021 61.185066 
L 422.43713 61.185066 
L 422.445857 61.740852 
L 422.688005 61.740852 
L 422.794043 62.296639 
L 423.526743 62.852426 
L 428.624572 62.852426 
L 429.421358 63.408212 
L 429.95473 63.408212 
L 430.387452 63.963999 
L 430.825195 63.408212 
L 432.627557 63.408212 
L 432.705285 64.519786 
L 435.292709 64.519786 
L 436.29663 66.187146 
L 447.193471 66.187146 
L 447.826783 66.742932 
L 464.646655 66.742932 
L 464.749986 67.298719 
L 489.465032 67.298719 
L 489.581716 68.410292 
L 489.589471 67.854506 
L 493.191645 67.854506 
L 494.004964 68.410292 
L 508.196301 68.410292 
L 511.386702 68.966079 
L 512.137671 69.521866 
L 512.143953 67.854506 
L 534.920107 67.854506 
L 535.141174 68.410292 
L 555.39533 68.410292 
L 557.995082 68.966079 
L 559.585315 68.966079 
L 559.757883 69.521866 
L 560.863163 70.077652 
L 563.962746 70.077652 
L 565.268169 70.633439 
L 566.634154 70.633439 
L 566.740534 71.189226 
L 568.987316 71.189226 
L 569.255698 71.745012 
L 569.308822 72.300799 
L 573.309021 72.300799 
L 573.32453 72.856586 
L 576.177312 72.856586 
L 576.730504 72.300799 
L 576.738022 72.856586 
L 577.892036 73.412372 
L 579.940725 73.412372 
L 581.41501 73.968159 
L 582.73439 73.968159 
L 584.678987 61.740852 
L 586.949268 61.740852 
L 586.959783 64.519786 
L 598.374829 64.519786 
L 598.376012 65.075572 
L 598.573447 65.631359 
L 599.666793 65.631359 
L 599.904604 66.187146 
L 603.490848 66.187146 
L 604.319887 66.742932 
L 604.456286 66.187146 
L 610.870683 66.187146 
L 610.872129 66.742932 
L 621.016451 66.742932 
L 621.08582 67.854506 
L 622.554321 69.521866 
L 624.027817 69.521866 
L 624.184772 70.077652 
L 630.378944 70.077652 
L 630.492842 70.633439 
L 636.712485 70.633439 
L 636.847963 71.189226 
L 638.562135 72.856586 
L 638.694959 73.412372 
L 655.581361 73.412372 
L 657.180111 76.191306 
L 660.994913 76.191306 
L 661.243396 76.747092 
L 664.109427 76.747092 
L 665.176171 77.858666 
L 680.282528 77.858666 
L 680.474049 78.414452 
L 682.68545 78.414452 
L 682.92234 78.970239 
L 697.490042 78.970239 
L 697.497507 80.637599 
L 697.94997 80.637599 
L 698.130241 81.193386 
L 700.623429 81.193386 
L 700.989016 81.749172 
L 700.991198 81.193386 
L 707.571566 81.193386 
L 709.159012 81.749172 
L 738.775136 81.749172 
L 738.778054 82.304959 
L 750.570937 82.304959 
L 752.047009 82.860746 
L 777.556107 82.860746 
L 777.718555 83.972319 
L 784.490102 83.972319 
L 786.023399 85.083892 
L 793.496734 85.083892 
L 805.129771 85.639679 
L 806.679786 86.195466 
L 808.947597 87.307039 
L 810.343785 87.307039 
L 811.550898 87.862826 
L 812.012614 87.862826 
L 812.012614 87.862826 
" clip-path="url(#p49df5cc80c)" style="fill: none; stroke: #9467bd; stroke-width: 2; stroke-linecap: square"/>
   </g>
   <g id="patch_3">
    <path d="M 48.90125 455.237812 
L 48.90125 38.397812 
" style="fill: none; stroke: #d0d7de; stroke-width: 0.8; stroke-linejoin: miter; stroke-linecap: square"/>
   </g>
   <g id="patch_4">
    <path d="M 848.35125 455.237812 
L 848.35125 38.397812 
" style="fill: none; stroke: #d0d7de; stroke-width: 0.8; stroke-linejoin: miter; stroke-linecap: square"/>
   </g>
   <g id="patch_5">
    <path d="M 48.90125 455.237812 
L 848.35125 455.237812 
" style="fill: none; stroke: #d0d7de; stroke-width: 0.8; stroke-linejoin: miter; stroke-linecap: square"/>
   </g>
   <g id="patch_6">
    <path d="M 48.90125 38.397812 
L 848.35125 38.397812 
" style="fill: none; stroke: #d0d7de; stroke-width: 0.8; stroke-linejoin: miter; stroke-linecap: square"/>
   </g>
   <g id="text_17">
    <!-- 556 -->
    <g style="fill: #1a7f37" transform="translate(817.012614 148.703863) scale(0.09 -0.09)">
     <defs>
      <path id="DejaVuSans-Bold-35" d="M 678 4666 
L 3669 4666 
L 3669 3781 
L 1638 3781 
L 1638 3059 
Q 1775 3097 1914 3117 
Q 2053 3138 2203 3138 
Q 3056 3138 3531 2711 
Q 4006 2284 4006 1522 
Q 4006 766 3489 337 
Q 2972 -91 2053 -91 
Q 1656 -91 1267 -14 
Q 878 63 494 219 
L 494 1166 
Q 875 947 1217 837 
Q 1559 728 1863 728 
Q 2300 728 2551 942 
Q 2803 1156 2803 1522 
Q 2803 1891 2551 2103 
Q 2300 2316 1863 2316 
Q 1603 2316 1309 2248 
Q 1016 2181 678 2041 
L 678 4666 
z
" transform="scale(0.015625)"/>
      <path id="DejaVuSans-Bold-36" d="M 2316 2303 
Q 2000 2303 1842 2098 
Q 1684 1894 1684 1484 
Q 1684 1075 1842 870 
Q 2000 666 2316 666 
Q 2634 666 2792 870 
Q 2950 1075 2950 1484 
Q 2950 1894 2792 2098 
Q 2634 2303 2316 2303 
z
M 3803 4544 
L 3803 3681 
Q 3506 3822 3243 3889 
Q 2981 3956 2731 3956 
Q 2194 3956 1894 3657 
Q 1594 3359 1544 2772 
Q 1750 2925 1990 3001 
Q 2231 3078 2516 3078 
Q 3231 3078 3670 2659 
Q 4109 2241 4109 1563 
Q 4109 813 3618 361 
Q 3128 -91 2303 -91 
Q 1394 -91 895 523 
Q 397 1138 397 2266 
Q 397 3422 980 4083 
Q 1563 4744 2578 4744 
Q 2900 4744 3203 4694 
Q 3506 4644 3803 4544 
z
" transform="scale(0.015625)"/>
     </defs>
     <use xlink:href="#DejaVuSans-Bold-35"/>
     <use xlink:href="#DejaVuSans-Bold-35" transform="translate(69.580078 0)"/>
     <use xlink:href="#DejaVuSans-Bold-36" transform="translate(139.160156 0)"/>
    </g>
   </g>
   <g id="text_18">
    <!-- 497 -->
    <g style="fill: #0969da" transform="translate(817.012614 181.495277) scale(0.09 -0.09)">
     <defs>
      <path id="DejaVuSans-Bold-34" d="M 2356 3675 
L 1038 1722 
L 2356 1722 
L 2356 3675 
z
M 2156 4666 
L 3494 4666 
L 3494 1722 
L 4159 1722 
L 4159 850 
L 3494 850 
L 3494 0 
L 2356 0 
L 2356 850 
L 288 850 
L 288 1881 
L 2156 4666 
z
" transform="scale(0.015625)"/>
      <path id="DejaVuSans-Bold-39" d="M 641 103 
L 641 966 
Q 928 831 1190 764 
Q 1453 697 1709 697 
Q 2247 697 2547 995 
Q 2847 1294 2900 1881 
Q 2688 1725 2447 1647 
Q 2206 1569 1925 1569 
Q 1209 1569 770 1986 
Q 331 2403 331 3084 
Q 331 3838 820 4291 
Q 1309 4744 2131 4744 
Q 3044 4744 3544 4128 
Q 4044 3513 4044 2388 
Q 4044 1231 3459 570 
Q 2875 -91 1856 -91 
Q 1528 -91 1228 -42 
Q 928 6 641 103 
z
M 2125 2350 
Q 2441 2350 2600 2554 
Q 2759 2759 2759 3169 
Q 2759 3575 2600 3781 
Q 2441 3988 2125 3988 
Q 1809 3988 1650 3781 
Q 1491 3575 1491 3169 
Q 1491 2759 1650 2554 
Q 1809 2350 2125 2350 
z
" transform="scale(0.015625)"/>
      <path id="DejaVuSans-Bold-37" d="M 428 4666 
L 3944 4666 
L 3944 3988 
L 2125 0 
L 953 0 
L 2675 3781 
L 428 3781 
L 428 4666 
z
" transform="scale(0.015625)"/>
     </defs>
     <use xlink:href="#DejaVuSans-Bold-34"/>
     <use xlink:href="#DejaVuSans-Bold-39" transform="translate(69.580078 0)"/>
     <use xlink:href="#DejaVuSans-Bold-37" transform="translate(139.160156 0)"/>
    </g>
   </g>
   <g id="text_19">
    <!-- 204 -->
    <g style="fill: #bf8700" transform="translate(817.012614 344.34077) scale(0.09 -0.09)">
     <defs>
      <path id="DejaVuSans-Bold-32" d="M 1844 884 
L 3897 884 
L 3897 0 
L 506 0 
L 506 884 
L 2209 2388 
Q 2438 2594 2547 2791 
Q 2656 2988 2656 3200 
Q 2656 3528 2436 3728 
Q 2216 3928 1850 3928 
Q 1569 3928 1234 3808 
Q 900 3688 519 3450 
L 519 4475 
Q 925 4609 1322 4679 
Q 1719 4750 2100 4750 
Q 2938 4750 3402 4381 
Q 3866 4013 3866 3353 
Q 3866 2972 3669 2642 
Q 3472 2313 2841 1759 
L 1844 884 
z
" transform="scale(0.015625)"/>
      <path id="DejaVuSans-Bold-30" d="M 2944 2338 
Q 2944 3213 2780 3570 
Q 2616 3928 2228 3928 
Q 1841 3928 1675 3570 
Q 1509 3213 1509 2338 
Q 1509 1453 1675 1090 
Q 1841 728 2228 728 
Q 2613 728 2778 1090 
Q 2944 1453 2944 2338 
z
M 4147 2328 
Q 4147 1169 3647 539 
Q 3147 -91 2228 -91 
Q 1306 -91 806 539 
Q 306 1169 306 2328 
Q 306 3491 806 4120 
Q 1306 4750 2228 4750 
Q 3147 4750 3647 4120 
Q 4147 3491 4147 2328 
z
" transform="scale(0.015625)"/>
     </defs>
     <use xlink:href="#DejaVuSans-Bold-32"/>
     <use xlink:href="#DejaVuSans-Bold-30" transform="translate(69.580078 0)"/>
     <use xlink:href="#DejaVuSans-Bold-34" transform="translate(139.160156 0)"/>
    </g>
   </g>
   <g id="text_20">
    <!-- 317 -->
    <g style="fill: #cf222e" transform="translate(817.012614 281.536877) scale(0.09 -0.09)">
     <defs>
      <path id="DejaVuSans-Bold-33" d="M 2981 2516 
Q 3453 2394 3698 2092 
Q 3944 1791 3944 1325 
Q 3944 631 3412 270 
Q 2881 -91 1863 -91 
Q 1503 -91 1142 -33 
Q 781 25 428 141 
L 428 1069 
Q 766 900 1098 814 
Q 1431 728 1753 728 
Q 2231 728 2486 893 
Q 2741 1059 2741 1369 
Q 2741 1688 2480 1852 
Q 2219 2016 1709 2016 
L 1228 2016 
L 1228 2791 
L 1734 2791 
Q 2188 2791 2409 2933 
Q 2631 3075 2631 3366 
Q 2631 3634 2415 3781 
Q 2200 3928 1806 3928 
Q 1516 3928 1219 3862 
Q 922 3797 628 3669 
L 628 4550 
Q 984 4650 1334 4700 
Q 1684 4750 2022 4750 
Q 2931 4750 3382 4451 
Q 3834 4153 3834 3553 
Q 3834 3144 3618 2883 
Q 3403 2622 2981 2516 
z
" transform="scale(0.015625)"/>
      <path id="DejaVuSans-Bold-31" d="M 750 831 
L 1813 831 
L 1813 3847 
L 722 3622 
L 722 4441 
L 1806 4666 
L 2950 4666 
L 2950 831 
L 4013 831 
L 4013 0 
L 750 0 
L 750 831 
z
" transform="scale(0.015625)"/>
     </defs>
     <use xlink:href="#DejaVuSans-Bold-33"/>
     <use xlink:href="#DejaVuSans-Bold-31" transform="translate(69.580078 0)"/>
     <use xlink:href="#DejaVuSans-Bold-37" transform="translate(139.160156 0)"/>
    </g>
   </g>
   <g id="text_21">
    <!-- 661 -->
    <g style="fill: #9467bd" transform="translate(817.012614 90.346263) scale(0.09 -0.09)">
     <use xlink:href="#DejaVuSans-Bold-36"/>
     <use xlink:href="#DejaVuSans-Bold-36" transform="translate(69.580078 0)"/>
     <use xlink:href="#DejaVuSans-Bold-31" transform="translate(139.160156 0)"/>
    </g>
   </g>
   <g id="text_22">
    <!-- Erdős Problems Progress -->
    <g style="fill: #24292f" transform="translate(349.588281 18.397812) scale(0.14 -0.14)">
     <defs>
      <path id="DejaVuSans-Bold-45" d="M 588 4666 
L 3834 4666 
L 3834 3756 
L 1791 3756 
L 1791 2888 
L 3713 2888 
L 3713 1978 
L 1791 1978 
L 1791 909 
L 3903 909 
L 3903 0 
L 588 0 
L 588 4666 
z
" transform="scale(0.015625)"/>
      <path id="DejaVuSans-Bold-72" d="M 3138 2547 
Q 2991 2616 2845 2648 
Q 2700 2681 2553 2681 
Q 2122 2681 1889 2404 
Q 1656 2128 1656 1613 
L 1656 0 
L 538 0 
L 538 3500 
L 1656 3500 
L 1656 2925 
Q 1872 3269 2151 3426 
Q 2431 3584 2822 3584 
Q 2878 3584 2943 3579 
Q 3009 3575 3134 3559 
L 3138 2547 
z
" transform="scale(0.015625)"/>
      <path id="DejaVuSans-Bold-64" d="M 2919 2988 
L 2919 4863 
L 4044 4863 
L 4044 0 
L 2919 0 
L 2919 506 
Q 2688 197 2409 53 
Q 2131 -91 1766 -91 
Q 1119 -91 703 423 
Q 288 938 288 1747 
Q 288 2556 703 3070 
Q 1119 3584 1766 3584 
Q 2128 3584 2408 3439 
Q 2688 3294 2919 2988 
z
M 2181 722 
Q 2541 722 2730 984 
Q 2919 1247 2919 1747 
Q 2919 2247 2730 2509 
Q 2541 2772 2181 2772 
Q 1825 2772 1636 2509 
Q 1447 2247 1447 1747 
Q 1447 1247 1636 984 
Q 1825 722 2181 722 
z
" transform="scale(0.015625)"/>
      <path id="DejaVuSans-Bold-151" d="M 1881 5119 
L 2560 5119 
L 1785 3944 
L 1275 3944 
L 1881 5119 
z
M 3016 5119 
L 3738 5119 
L 2888 3944 
L 2344 3944 
L 3016 5119 
z
M 2203 2784 
Q 1831 2784 1636 2517 
Q 1441 2250 1441 1747 
Q 1441 1244 1636 976 
Q 1831 709 2203 709 
Q 2569 709 2762 976 
Q 2956 1244 2956 1747 
Q 2956 2250 2762 2517 
Q 2569 2784 2203 2784 
z
M 2203 3584 
Q 3106 3584 3614 3096 
Q 4122 2609 4122 1747 
Q 4122 884 3614 396 
Q 3106 -91 2203 -91 
Q 1297 -91 786 396 
Q 275 884 275 1747 
Q 275 2609 786 3096 
Q 1297 3584 2203 3584 
z
" transform="scale(0.015625)"/>
      <path id="DejaVuSans-Bold-73" d="M 3272 3391 
L 3272 2541 
Q 2913 2691 2578 2766 
Q 2244 2841 1947 2841 
Q 1628 2841 1473 2761 
Q 1319 2681 1319 2516 
Q 1319 2381 1436 2309 
Q 1553 2238 1856 2203 
L 2053 2175 
Q 2913 2066 3209 1816 
Q 3506 1566 3506 1031 
Q 3506 472 3093 190 
Q 2681 -91 1863 -91 
Q 1516 -91 1145 -36 
Q 775 19 384 128 
L 384 978 
Q 719 816 1070 734 
Q 1422 653 1784 653 
Q 2113 653 2278 743 
Q 2444 834 2444 1013 
Q 2444 1163 2330 1236 
Q 2216 1309 1875 1350 
L 1678 1375 
Q 931 1469 631 1722 
Q 331 1975 331 2491 
Q 331 3047 712 3315 
Q 1094 3584 1881 3584 
Q 2191 3584 2531 3537 
Q 2872 3491 3272 3391 
z
" transform="scale(0.015625)"/>
      <path id="DejaVuSans-Bold-20" transform="scale(0.015625)"/>
      <path id="DejaVuSans-Bold-50" d="M 588 4666 
L 2584 4666 
Q 3475 4666 3951 4270 
Q 4428 3875 4428 3144 
Q 4428 2409 3951 2014 
Q 3475 1619 2584 1619 
L 1791 1619 
L 1791 0 
L 588 0 
L 588 4666 
z
M 1791 3794 
L 1791 2491 
L 2456 2491 
Q 2806 2491 2997 2661 
Q 3188 2831 3188 3144 
Q 3188 3456 2997 3625 
Q 2806 3794 2456 3794 
L 1791 3794 
z
" transform="scale(0.015625)"/>
      <path id="DejaVuSans-Bold-6f" d="M 2203 2784 
Q 1831 2784 1636 2517 
Q 1441 2250 1441 1747 
Q 1441 1244 1636 976 
Q 1831 709 2203 709 
Q 2569 709 2762 976 
Q 2956 1244 2956 1747 
Q 2956 2250 2762 2517 
Q 2569 2784 2203 2784 
z
M 2203 3584 
Q 3106 3584 3614 3096 
Q 4122 2609 4122 1747 
Q 4122 884 3614 396 
Q 3106 -91 2203 -91 
Q 1297 -91 786 396 
Q 275 884 275 1747 
Q 275 2609 786 3096 
Q 1297 3584 2203 3584 
z
" transform="scale(0.015625)"/>
      <path id="DejaVuSans-Bold-62" d="M 2400 722 
Q 2759 722 2948 984 
Q 3138 1247 3138 1747 
Q 3138 2247 2948 2509 
Q 2759 2772 2400 2772 
Q 2041 2772 1848 2508 
Q 1656 2244 1656 1747 
Q 1656 1250 1848 986 
Q 2041 722 2400 722 
z
M 1656 2988 
Q 1888 3294 2169 3439 
Q 2450 3584 2816 3584 
Q 3463 3584 3878 3070 
Q 4294 2556 4294 1747 
Q 4294 938 3878 423 
Q 3463 -91 2816 -91 
Q 2450 -91 2169 54 
Q 1888 200 1656 506 
L 1656 0 
L 538 0 
L 538 4863 
L 1656 4863 
L 1656 2988 
z
" transform="scale(0.015625)"/>
      <path id="DejaVuSans-Bold-6c" d="M 538 4863 
L 1656 4863 
L 1656 0 
L 538 0 
L 538 4863 
z
" transform="scale(0.015625)"/>
      <path id="DejaVuSans-Bold-65" d="M 4031 1759 
L 4031 1441 
L 1416 1441 
Q 1456 1047 1700 850 
Q 1944 653 2381 653 
Q 2734 653 3104 758 
Q 3475 863 3866 1075 
L 3866 213 
Q 3469 63 3072 -14 
Q 2675 -91 2278 -91 
Q 1328 -91 801 392 
Q 275 875 275 1747 
Q 275 2603 792 3093 
Q 1309 3584 2216 3584 
Q 3041 3584 3536 3087 
Q 4031 2591 4031 1759 
z
M 2881 2131 
Q 2881 2450 2695 2645 
Q 2509 2841 2209 2841 
Q 1884 2841 1681 2658 
Q 1478 2475 1428 2131 
L 2881 2131 
z
" transform="scale(0.015625)"/>
      <path id="DejaVuSans-Bold-6d" d="M 3781 2919 
Q 3994 3244 4286 3414 
Q 4578 3584 4928 3584 
Q 5531 3584 5847 3212 
Q 6163 2841 6163 2131 
L 6163 0 
L 5038 0 
L 5038 1825 
Q 5041 1866 5042 1909 
Q 5044 1953 5044 2034 
Q 5044 2406 4934 2573 
Q 4825 2741 4581 2741 
Q 4263 2741 4089 2478 
Q 3916 2216 3909 1719 
L 3909 0 
L 2784 0 
L 2784 1825 
Q 2784 2406 2684 2573 
Q 2584 2741 2328 2741 
Q 2006 2741 1831 2477 
Q 1656 2213 1656 1722 
L 1656 0 
L 531 0 
L 531 3500 
L 1656 3500 
L 1656 2988 
Q 1863 3284 2130 3434 
Q 2397 3584 2719 3584 
Q 3081 3584 3359 3409 
Q 3638 3234 3781 2919 
z
" transform="scale(0.015625)"/>
      <path id="DejaVuSans-Bold-67" d="M 2919 594 
Q 2688 288 2409 144 
Q 2131 0 1766 0 
Q 1125 0 706 504 
Q 288 1009 288 1791 
Q 288 2575 706 3076 
Q 1125 3578 1766 3578 
Q 2131 3578 2409 3434 
Q 2688 3291 2919 2981 
L 2919 3500 
L 4044 3500 
L 4044 353 
Q 4044 -491 3511 -936 
Q 2978 -1381 1966 -1381 
Q 1638 -1381 1331 -1331 
Q 1025 -1281 716 -1178 
L 716 -306 
Q 1009 -475 1290 -558 
Q 1572 -641 1856 -641 
Q 2406 -641 2662 -400 
Q 2919 -159 2919 353 
L 2919 594 
z
M 2181 2772 
Q 1834 2772 1640 2515 
Q 1447 2259 1447 1791 
Q 1447 1309 1634 1061 
Q 1822 813 2181 813 
Q 2531 813 2725 1069 
Q 2919 1325 2919 1791 
Q 2919 2259 2725 2515 
Q 2531 2772 2181 2772 
z
" transform="scale(0.015625)"/>
     </defs>
     <use xlink:href="#DejaVuSans-Bold-45"/>
     <use xlink:href="#DejaVuSans-Bold-72" transform="translate(68.310547 0)"/>
     <use xlink:href="#DejaVuSans-Bold-64" transform="translate(117.626953 0)"/>
     <use xlink:href="#DejaVuSans-Bold-151" transform="translate(189.208984 0)"/>
     <use xlink:href="#DejaVuSans-Bold-73" transform="translate(257.910156 0)"/>
     <use xlink:href="#DejaVuSans-Bold-20" transform="translate(317.431641 0)"/>
     <use xlink:href="#DejaVuSans-Bold-50" transform="translate(352.246094 0)"/>
     <use xlink:href="#DejaVuSans-Bold-72" transform="translate(425.537109 0)"/>
     <use xlink:href="#DejaVuSans-Bold-6f" transform="translate(474.853516 0)"/>
     <use xlink:href="#DejaVuSans-Bold-62" transform="translate(543.554688 0)"/>
     <use xlink:href="#DejaVuSans-Bold-6c" transform="translate(615.136719 0)"/>
     <use xlink:href="#DejaVuSans-Bold-65" transform="translate(649.414062 0)"/>
     <use xlink:href="#DejaVuSans-Bold-6d" transform="translate(717.236328 0)"/>
     <use xlink:href="#DejaVuSans-Bold-73" transform="translate(821.435547 0)"/>
     <use xlink:href="#DejaVuSans-Bold-20" transform="translate(880.957031 0)"/>
     <use xlink:href="#DejaVuSans-Bold-50" transform="translate(915.771484 0)"/>
     <use xlink:href="#DejaVuSans-Bold-72" transform="translate(989.0625 0)"/>
     <use xlink:href="#DejaVuSans-Bold-6f" transform="translate(1038.378906 0)"/>
     <use xlink:href="#DejaVuSans-Bold-67" transform="translate(1107.080078 0)"/>
     <use xlink:href="#DejaVuSans-Bold-72" transform="translate(1178.662109 0)"/>
     <use xlink:href="#DejaVuSans-Bold-65" transform="translate(1227.978516 0)"/>
     <use xlink:href="#DejaVuSans-Bold-73" transform="translate(1295.800781 0)"/>
     <use xlink:href="#DejaVuSans-Bold-73" transform="translate(1355.322266 0)"/>
    </g>
   </g>
   <g id="legend_1">
    <g id="patch_7">
     <path d="M 55.90125 119.788437 
L 213.771563 119.788437 
Q 215.771563 119.788437 215.771563 117.788437 
L 215.771563 45.397812 
Q 215.771563 43.397812 213.771563 43.397812 
L 55.90125 43.397812 
Q 53.90125 43.397812 53.90125 45.397812 
L 53.90125 117.788437 
Q 53.90125 119.788437 55.90125 119.788437 
z
" style="fill: #f6f8fa; opacity: 0.8; stroke: #d0d7de; stroke-linejoin: miter"/>
    </g>
    <g id="line2d_34">
     <path d="M 57.90125 51.49625 
L 67.90125 51.49625 
L 77.90125 51.49625 
" style="fill: none; stroke: #1a7f37; stroke-width: 2; stroke-linecap: square"/>
    </g>
    <g id="text_23">
     <!-- Solved -->
     <g style="fill: #24292f" transform="translate(85.90125 54.99625) scale(0.1 -0.1)">
      <defs>
       <path id="DejaVuSans-64" d="M 2906 2969 
L 2906 4863 
L 3481 4863 
L 3481 0 
L 2906 0 
L 2906 525 
Q 2725 213 2448 61 
Q 2172 -91 1784 -91 
Q 1150 -91 751 415 
Q 353 922 353 1747 
Q 353 2572 751 3078 
Q 1150 3584 1784 3584 
Q 2172 3584 2448 3432 
Q 2725 3281 2906 2969 
z
M 947 1747 
Q 947 1113 1208 752 
Q 1469 391 1925 391 
Q 2381 391 2643 752 
Q 2906 1113 2906 1747 
Q 2906 2381 2643 2742 
Q 2381 3103 1925 3103 
Q 1469 3103 1208 2742 
Q 947 2381 947 1747 
z
" transform="scale(0.015625)"/>
      </defs>
      <use xlink:href="#DejaVuSans-53"/>
      <use xlink:href="#DejaVuSans-6f" transform="translate(63.476562 0)"/>
      <use xlink:href="#DejaVuSans-6c" transform="translate(124.658203 0)"/>
      <use xlink:href="#DejaVuSans-76" transform="translate(152.441406 0)"/>
      <use xlink:href="#DejaVuSans-65" transform="translate(211.621094 0)"/>
      <use xlink:href="#DejaVuSans-64" transform="translate(273.144531 0)"/>
     </g>
    </g>
    <g id="line2d_35">
     <path d="M 57.90125 66.174375 
L 67.90125 66.174375 
L 77.90125 66.174375 
" style="fill: none; stroke: #0969da; stroke-width: 2; stroke-linecap: square"/>
    </g>
    <g id="text_24">
     <!-- Lean Formalized Problem -->
     <g style="fill: #24292f" transform="translate(85.90125 69.674375) scale(0.1 -0.1)">
      <defs>
       <path id="DejaVuSans-4c" d="M 628 4666 
L 1259 4666 
L 1259 531 
L 3531 531 
L 3531 0 
L 628 0 
L 628 4666 
z
" transform="scale(0.015625)"/>
       <path id="DejaVuSans-20" transform="scale(0.015625)"/>
       <path id="DejaVuSans-46" d="M 628 4666 
L 3309 4666 
L 3309 4134 
L 1259 4134 
L 1259 2759 
L 3109 2759 
L 3109 2228 
L 1259 2228 
L 1259 0 
L 628 0 
L 628 4666 
z
" transform="scale(0.015625)"/>
       <path id="DejaVuSans-6d" d="M 3328 2828 
Q 3544 3216 3844 3400 
Q 4144 3584 4550 3584 
Q 5097 3584 5394 3201 
Q 5691 2819 5691 2113 
L 5691 0 
L 5113 0 
L 5113 2094 
Q 5113 2597 4934 2840 
Q 4756 3084 4391 3084 
Q 3944 3084 3684 2787 
Q 3425 2491 3425 1978 
L 3425 0 
L 2847 0 
L 2847 2094 
Q 2847 2600 2669 2842 
Q 2491 3084 2119 3084 
Q 1678 3084 1418 2786 
Q 1159 2488 1159 1978 
L 1159 0 
L 581 0 
L 581 3500 
L 1159 3500 
L 1159 2956 
Q 1356 3278 1631 3431 
Q 1906 3584 2284 3584 
Q 2666 3584 2933 3390 
Q 3200 3197 3328 2828 
z
" transform="scale(0.015625)"/>
       <path id="DejaVuSans-69" d="M 603 3500 
L 1178 3500 
L 1178 0 
L 603 0 
L 603 3500 
z
M 603 4863 
L 1178 4863 
L 1178 4134 
L 603 4134 
L 603 4863 
z
" transform="scale(0.015625)"/>
       <path id="DejaVuSans-7a" d="M 353 3500 
L 3084 3500 
L 3084 2975 
L 922 459 
L 3084 459 
L 3084 0 
L 275 0 
L 275 525 
L 2438 3041 
L 353 3041 
L 353 3500 
z
" transform="scale(0.015625)"/>
       <path id="DejaVuSans-50" d="M 1259 4147 
L 1259 2394 
L 2053 2394 
Q 2494 2394 2734 2622 
Q 2975 2850 2975 3272 
Q 2975 3691 2734 3919 
Q 2494 4147 2053 4147 
L 1259 4147 
z
M 628 4666 
L 2053 4666 
Q 2838 4666 3239 4311 
Q 3641 3956 3641 3272 
Q 3641 2581 3239 2228 
Q 2838 1875 2053 1875 
L 1259 1875 
L 1259 0 
L 628 0 
L 628 4666 
z
" transform="scale(0.015625)"/>
       <path id="DejaVuSans-62" d="M 3116 1747 
Q 3116 2381 2855 2742 
Q 2594 3103 2138 3103 
Q 1681 3103 1420 2742 
Q 1159 2381 1159 1747 
Q 1159 1113 1420 752 
Q 1681 391 2138 391 
Q 2594 391 2855 752 
Q 3116 1113 3116 1747 
z
M 1159 2969 
Q 1341 3281 1617 3432 
Q 1894 3584 2278 3584 
Q 2916 3584 3314 3078 
Q 3713 2572 3713 1747 
Q 3713 922 3314 415 
Q 2916 -91 2278 -91 
Q 1894 -91 1617 61 
Q 1341 213 1159 525 
L 1159 0 
L 581 0 
L 581 4863 
L 1159 4863 
L 1159 2969 
z
" transform="scale(0.015625)"/>
      </defs>
      <use xlink:href="#DejaVuSans-4c"/>
      <use xlink:href="#DejaVuSans-65" transform="translate(53.962891 0)"/>
      <use xlink:href="#DejaVuSans-61" transform="translate(115.486328 0)"/>
      <use xlink:href="#DejaVuSans-6e" transform="translate(176.765625 0)"/>
      <use xlink:href="#DejaVuSans-20" transform="translate(240.144531 0)"/>
      <use xlink:href="#DejaVuSans-46" transform="translate(271.931641 0)"/>
      <use xlink:href="#DejaVuSans-6f" transform="translate(325.826172 0)"/>
      <use xlink:href="#DejaVuSans-72" transform="translate(387.007812 0)"/>
      <use xlink:href="#DejaVuSans-6d" transform="translate(426.371094 0)"/>
      <use xlink:href="#DejaVuSans-61" transform="translate(523.783203 0)"/>
      <use xlink:href="#DejaVuSans-6c" transform="translate(585.0625 0)"/>
      <use xlink:href="#DejaVuSans-69" transform="translate(612.845703 0)"/>
      <use xlink:href="#DejaVuSans-7a" transform="translate(640.628906 0)"/>
      <use xlink:href="#DejaVuSans-65" transform="translate(693.119141 0)"/>
      <use xlink:href="#DejaVuSans-64" transform="translate(754.642578 0)"/>
      <use xlink:href="#DejaVuSans-20" transform="translate(818.119141 0)"/>
      <use xlink:href="#DejaVuSans-50" transform="translate(849.90625 0)"/>
      <use xlink:href="#DejaVuSans-72" transform="translate(908.458984 0)"/>
      <use xlink:href="#DejaVuSans-6f" transform="translate(947.322266 0)"/>
      <use xlink:href="#DejaVuSans-62" transform="translate(1008.503906 0)"/>
      <use xlink:href="#DejaVuSans-6c" transform="translate(1071.980469 0)"/>
      <use xlink:href="#DejaVuSans-65" transform="translate(1099.763672 0)"/>
      <use xlink:href="#DejaVuSans-6d" transform="translate(1161.287109 0)"/>
     </g>
    </g>
    <g id="line2d_36">
     <path d="M 57.90125 80.8525 
L 67.90125 80.8525 
L 77.90125 80.8525 
" style="fill: none; stroke: #bf8700; stroke-width: 2; stroke-linecap: square"/>
    </g>
    <g id="text_25">
     <!-- Lean Formalized Solution -->
     <g style="fill: #24292f" transform="translate(85.90125 84.3525) scale(0.1 -0.1)">
      <use xlink:href="#DejaVuSans-4c"/>
      <use xlink:href="#DejaVuSans-65" transform="translate(53.962891 0)"/>
      <use xlink:href="#DejaVuSans-61" transform="translate(115.486328 0)"/>
      <use xlink:href="#DejaVuSans-6e" transform="translate(176.765625 0)"/>
      <use xlink:href="#DejaVuSans-20" transform="translate(240.144531 0)"/>
      <use xlink:href="#DejaVuSans-46" transform="translate(271.931641 0)"/>
      <use xlink:href="#DejaVuSans-6f" transform="translate(325.826172 0)"/>
      <use xlink:href="#DejaVuSans-72" transform="translate(387.007812 0)"/>
      <use xlink:href="#DejaVuSans-6d" transform="translate(426.371094 0)"/>
      <use xlink:href="#DejaVuSans-61" transform="translate(523.783203 0)"/>
      <use xlink:href="#DejaVuSans-6c" transform="translate(585.0625 0)"/>
      <use xlink:href="#DejaVuSans-69" transform="translate(612.845703 0)"/>
      <use xlink:href="#DejaVuSans-7a" transform="translate(640.628906 0)"/>
      <use xlink:href="#DejaVuSans-65" transform="translate(693.119141 0)"/>
      <use xlink:href="#DejaVuSans-64" transform="translate(754.642578 0)"/>
      <use xlink:href="#DejaVuSans-20" transform="translate(818.119141 0)"/>
      <use xlink:href="#DejaVuSans-53" transform="translate(849.90625 0)"/>
      <use xlink:href="#DejaVuSans-6f" transform="translate(913.382812 0)"/>
      <use xlink:href="#DejaVuSans-6c" transform="translate(974.564453 0)"/>
      <use xlink:href="#DejaVuSans-75" transform="translate(1002.347656 0)"/>
      <use xlink:href="#DejaVuSans-74" transform="translate(1065.726562 0)"/>
      <use xlink:href="#DejaVuSans-69" transform="translate(1104.935547 0)"/>
      <use xlink:href="#DejaVuSans-6f" transform="translate(1132.71875 0)"/>
      <use xlink:href="#DejaVuSans-6e" transform="translate(1193.900391 0)"/>
     </g>
    </g>
    <g id="line2d_37">
     <path d="M 57.90125 95.530625 
L 67.90125 95.530625 
L 77.90125 95.530625 
" style="fill: none; stroke: #cf222e; stroke-width: 2; stroke-linecap: square"/>
    </g>
    <g id="text_26">
     <!-- OEIS Linked -->
     <g style="fill: #24292f" transform="translate(85.90125 99.030625) scale(0.1 -0.1)">
      <defs>
       <path id="DejaVuSans-4f" d="M 2522 4238 
Q 1834 4238 1429 3725 
Q 1025 3213 1025 2328 
Q 1025 1447 1429 934 
Q 1834 422 2522 422 
Q 3209 422 3611 934 
Q 4013 1447 4013 2328 
Q 4013 3213 3611 3725 
Q 3209 4238 2522 4238 
z
M 2522 4750 
Q 3503 4750 4090 4092 
Q 4678 3434 4678 2328 
Q 4678 1225 4090 567 
Q 3503 -91 2522 -91 
Q 1538 -91 948 565 
Q 359 1222 359 2328 
Q 359 3434 948 4092 
Q 1538 4750 2522 4750 
z
" transform="scale(0.015625)"/>
       <path id="DejaVuSans-45" d="M 628 4666 
L 3578 4666 
L 3578 4134 
L 1259 4134 
L 1259 2753 
L 3481 2753 
L 3481 2222 
L 1259 2222 
L 1259 531 
L 3634 531 
L 3634 0 
L 628 0 
L 628 4666 
z
" transform="scale(0.015625)"/>
       <path id="DejaVuSans-49" d="M 628 4666 
L 1259 4666 
L 1259 0 
L 628 0 
L 628 4666 
z
" transform="scale(0.015625)"/>
       <path id="DejaVuSans-6b" d="M 581 4863 
L 1159 4863 
L 1159 1991 
L 2875 3500 
L 3609 3500 
L 1753 1863 
L 3688 0 
L 2938 0 
L 1159 1709 
L 1159 0 
L 581 0 
L 581 4863 
z
" transform="scale(0.015625)"/>
      </defs>
      <use xlink:href="#DejaVuSans-4f"/>
      <use xlink:href="#DejaVuSans-45" transform="translate(78.710938 0)"/>
      <use xlink:href="#DejaVuSans-49" transform="translate(141.894531 0)"/>
      <use xlink:href="#DejaVuSans-53" transform="translate(171.386719 0)"/>
      <use xlink:href="#DejaVuSans-20" transform="translate(234.863281 0)"/>
      <use xlink:href="#DejaVuSans-4c" transform="translate(266.650391 0)"/>
      <use xlink:href="#DejaVuSans-69" transform="translate(322.363281 0)"/>
      <use xlink:href="#DejaVuSans-6e" transform="translate(350.146484 0)"/>
      <use xlink:href="#DejaVuSans-6b" transform="translate(413.525391 0)"/>
      <use xlink:href="#DejaVuSans-65" transform="translate(467.810547 0)"/>
      <use xlink:href="#DejaVuSans-64" transform="translate(529.333984 0)"/>
     </g>
    </g>
    <g id="line2d_38">
     <path d="M 57.90125 110.20875 
L 67.90125 110.20875 
L 77.90125 110.20875 
" style="fill: none; stroke: #9467bd; stroke-width: 2; stroke-linecap: square"/>
    </g>
    <g id="text_27">
     <!-- Open Problems -->
     <g style="fill: #24292f" transform="translate(85.90125 113.70875) scale(0.1 -0.1)">
      <defs>
       <path id="DejaVuSans-73" d="M 2834 3397 
L 2834 2853 
Q 2591 2978 2328 3040 
Q 2066 3103 1784 3103 
Q 1356 3103 1142 2972 
Q 928 2841 928 2578 
Q 928 2378 1081 2264 
Q 1234 2150 1697 2047 
L 1894 2003 
Q 2506 1872 2764 1633 
Q 3022 1394 3022 966 
Q 3022 478 2636 193 
Q 2250 -91 1575 -91 
Q 1294 -91 989 -36 
Q 684 19 347 128 
L 347 722 
Q 666 556 975 473 
Q 1284 391 1588 391 
Q 1994 391 2212 530 
Q 2431 669 2431 922 
Q 2431 1156 2273 1281 
Q 2116 1406 1581 1522 
L 1381 1569 
Q 847 1681 609 1914 
Q 372 2147 372 2553 
Q 372 3047 722 3315 
Q 1072 3584 1716 3584 
Q 2034 3584 2315 3537 
Q 2597 3491 2834 3397 
z
" transform="scale(0.015625)"/>
      </defs>
      <use xlink:href="#DejaVuSans-4f"/>
      <use xlink:href="#DejaVuSans-70" transform="translate(78.710938 0)"/>
      <use xlink:href="#DejaVuSans-65" transform="translate(142.1875 0)"/>
      <use xlink:href="#DejaVuSans-6e" transform="translate(203.710938 0)"/>
      <use xlink:href="#DejaVuSans-20" transform="translate(267.089844 0)"/>
      <use xlink:href="#DejaVuSans-50" transform="translate(298.876953 0)"/>
      <use xlink:href="#DejaVuSans-72" transform="translate(357.429688 0)"/>
      <use xlink:href="#DejaVuSans-6f" transform="translate(396.292969 0)"/>
      <use xlink:href="#DejaVuSans-62" transform="translate(457.474609 0)"/>
      <use xlink:href="#DejaVuSans-6c" transform="translate(520.951172 0)"/>
      <use xlink:href="#DejaVuSans-65" transform="translate(548.734375 0)"/>
      <use xlink:href="#DejaVuSans-6d" transform="translate(610.257812 0)"/>
      <use xlink:href="#DejaVuSans-73" transform="translate(707.669922 0)"/>
     </g>
    </g>
   </g>
  </g>
 </g>
 <defs>
  <clipPath id="p49df5cc80c">
   <rect x="48.90125" y="38.397812" width="799.45" height="416.84"/>
  </clipPath>
 </defs>
</svg>
