<?xml version="1.0" encoding="utf-8" standalone="no"?>
<!DOCTYPE svg PUBLIC "-//W3C//DTD SVG 1.1//EN"
  "http://www.w3.org/Graphics/SVG/1.1/DTD/svg11.dtd">
<svg xmlns:xlink="http://www.w3.org/1999/xlink" width="855.55125pt" height="494.729687pt" viewBox="0 0 855.55125 494.729687" xmlns="http://www.w3.org/2000/svg" version="1.1">
 <metadata>
  <rdf:RDF xmlns:dc="http://purl.org/dc/elements/1.1/" xmlns:cc="http://creativecommons.org/ns#" xmlns:rdf="http://www.w3.org/1999/02/22-rdf-syntax-ns#">
   <cc:Work>
    <dc:type rdf:resource="http://purl.org/dc/dcmitype/StillImage"/>
    <dc:date>2026-06-02T19:42:25.750410</dc:date>
    <dc:format>image/svg+xml</dc:format>
    <dc:creator>
     <cc:Agent>
      <dc:title>Matplotlib v3.10.7, https://matplotlib.org/</dc:title>
     </cc:Agent>
    </dc:creator>
   </cc:Work>
  </rdf:RDF>
 </metadata>
 <defs>
  <style type="text/css">*{stroke-linejoin: round; stroke-linecap: butt}</style>
 </defs>
 <g id="figure_1">
  <g id="patch_1">
   <path d="M 0 494.729687 
L 855.55125 494.729687 
L 855.55125 0 
L 0 0 
z
" style="fill: #ffffff"/>
  </g>
  <g id="axes_1">
   <g id="patch_2">
    <path d="M 48.90125 455.237812 
L 848.35125 455.237812 
L 848.35125 38.397812 
L 48.90125 38.397812 
z
" style="fill: #ffffff"/>
   </g>
   <g id="matplotlib.axis_1">
    <g id="xtick_1">
     <g id="line2d_1">
      <path d="M 86.012161 455.237812 
L 86.012161 38.397812 
" clip-path="url(#p09f82b6031)" style="fill: none; stroke: #d0d7de; stroke-opacity: 0.25; stroke-width: 0.5; stroke-linecap: square"/>
     </g>
     <g id="line2d_2">
      <defs>
       <path id="m1bc2388274" d="M 0 0 
L 0 3.5 
" style="stroke: #24292f; stroke-width: 0.8"/>
      </defs>
      <g>
       <use xlink:href="#m1bc2388274" x="86.012161" y="455.237812" style="fill: #24292f; stroke: #24292f; stroke-width: 0.8"/>
      </g>
     </g>
     <g id="text_1">
      <!-- Sep -->
      <g style="fill: #24292f" transform="translate(76.587161 469.83625) scale(0.1 -0.1)">
       <defs>
        <path id="DejaVuSans-53" d="M 3425 4513 
L 3425 3897 
Q 3066 4069 2747 4153 
Q 2428 4238 2131 4238 
Q 1616 4238 1336 4038 
Q 1056 3838 1056 3469 
Q 1056 3159 1242 3001 
Q 1428 2844 1947 2747 
L 2328 2669 
Q 3034 2534 3370 2195 
Q 3706 1856 3706 1288 
Q 3706 609 3251 259 
Q 2797 -91 1919 -91 
Q 1588 -91 1214 -16 
Q 841 59 441 206 
L 441 856 
Q 825 641 1194 531 
Q 1563 422 1919 422 
Q 2459 422 2753 634 
Q 3047 847 3047 1241 
Q 3047 1584 2836 1778 
Q 2625 1972 2144 2069 
L 1759 2144 
Q 1053 2284 737 2584 
Q 422 2884 422 3419 
Q 422 4038 858 4394 
Q 1294 4750 2059 4750 
Q 2388 4750 2728 4690 
Q 3069 4631 3425 4513 
z
" transform="scale(0.015625)"/>
        <path id="DejaVuSans-65" d="M 3597 1894 
L 3597 1613 
L 953 1613 
Q 991 1019 1311 708 
Q 1631 397 2203 397 
Q 2534 397 2845 478 
Q 3156 559 3463 722 
L 3463 178 
Q 3153 47 2828 -22 
Q 2503 -91 2169 -91 
Q 1331 -91 842 396 
Q 353 884 353 1716 
Q 353 2575 817 3079 
Q 1281 3584 2069 3584 
Q 2775 3584 3186 3129 
Q 3597 2675 3597 1894 
z
M 3022 2063 
Q 3016 2534 2758 2815 
Q 2500 3097 2075 3097 
Q 1594 3097 1305 2825 
Q 1016 2553 972 2059 
L 3022 2063 
z
" transform="scale(0.015625)"/>
        <path id="DejaVuSans-70" d="M 1159 525 
L 1159 -1331 
L 581 -1331 
L 581 3500 
L 1159 3500 
L 1159 2969 
Q 1341 3281 1617 3432 
Q 1894 3584 2278 3584 
Q 2916 3584 3314 3078 
Q 3713 2572 3713 1747 
Q 3713 922 3314 415 
Q 2916 -91 2278 -91 
Q 1894 -91 1617 61 
Q 1341 213 1159 525 
z
M 3116 1747 
Q 3116 2381 2855 2742 
Q 2594 3103 2138 3103 
Q 1681 3103 1420 2742 
Q 1159 2381 1159 1747 
Q 1159 1113 1420 752 
Q 1681 391 2138 391 
Q 2594 391 2855 752 
Q 3116 1113 3116 1747 
z
" transform="scale(0.015625)"/>
       </defs>
       <use xlink:href="#DejaVuSans-53"/>
       <use xlink:href="#DejaVuSans-65" transform="translate(63.476562 0)"/>
       <use xlink:href="#DejaVuSans-70" transform="translate(125 0)"/>
      </g>
     </g>
    </g>
    <g id="xtick_2">
     <g id="line2d_3">
      <path d="M 165.263761 455.237812 
L 165.263761 38.397812 
" clip-path="url(#p09f82b6031)" style="fill: none; stroke: #d0d7de; stroke-opacity: 0.25; stroke-width: 0.5; stroke-linecap: square"/>
     </g>
     <g id="line2d_4">
      <g>
       <use xlink:href="#m1bc2388274" x="165.263761" y="455.237812" style="fill: #24292f; stroke: #24292f; stroke-width: 0.8"/>
      </g>
     </g>
     <g id="text_2">
      <!-- Oct -->
      <g style="fill: #24292f" transform="translate(156.618448 469.83625) scale(0.1 -0.1)">
       <defs>
        <path id="DejaVuSans-4f" d="M 2522 4238 
Q 1834 4238 1429 3725 
Q 1025 3213 1025 2328 
Q 1025 1447 1429 934 
Q 1834 422 2522 422 
Q 3209 422 3611 934 
Q 4013 1447 4013 2328 
Q 4013 3213 3611 3725 
Q 3209 4238 2522 4238 
z
M 2522 4750 
Q 3503 4750 4090 4092 
Q 4678 3434 4678 2328 
Q 4678 1225 4090 567 
Q 3503 -91 2522 -91 
Q 1538 -91 948 565 
Q 359 1222 359 2328 
Q 359 3434 948 4092 
Q 1538 4750 2522 4750 
z
" transform="scale(0.015625)"/>
        <path id="DejaVuSans-63" d="M 3122 3366 
L 3122 2828 
Q 2878 2963 2633 3030 
Q 2388 3097 2138 3097 
Q 1578 3097 1268 2742 
Q 959 2388 959 1747 
Q 959 1106 1268 751 
Q 1578 397 2138 397 
Q 2388 397 2633 464 
Q 2878 531 3122 666 
L 3122 134 
Q 2881 22 2623 -34 
Q 2366 -91 2075 -91 
Q 1284 -91 818 406 
Q 353 903 353 1747 
Q 353 2603 823 3093 
Q 1294 3584 2113 3584 
Q 2378 3584 2631 3529 
Q 2884 3475 3122 3366 
z
" transform="scale(0.015625)"/>
        <path id="DejaVuSans-74" d="M 1172 4494 
L 1172 3500 
L 2356 3500 
L 2356 3053 
L 1172 3053 
L 1172 1153 
Q 1172 725 1289 603 
Q 1406 481 1766 481 
L 2356 481 
L 2356 0 
L 1766 0 
Q 1100 0 847 248 
Q 594 497 594 1153 
L 594 3053 
L 172 3053 
L 172 3500 
L 594 3500 
L 594 4494 
L 1172 4494 
z
" transform="scale(0.015625)"/>
       </defs>
       <use xlink:href="#DejaVuSans-4f"/>
       <use xlink:href="#DejaVuSans-63" transform="translate(78.710938 0)"/>
       <use xlink:href="#DejaVuSans-74" transform="translate(133.691406 0)"/>
      </g>
     </g>
    </g>
    <g id="xtick_3">
     <g id="line2d_5">
      <path d="M 247.157081 455.237812 
L 247.157081 38.397812 
" clip-path="url(#p09f82b6031)" style="fill: none; stroke: #d0d7de; stroke-opacity: 0.25; stroke-width: 0.5; stroke-linecap: square"/>
     </g>
     <g id="line2d_6">
      <g>
       <use xlink:href="#m1bc2388274" x="247.157081" y="455.237812" style="fill: #24292f; stroke: #24292f; stroke-width: 0.8"/>
      </g>
     </g>
     <g id="text_3">
      <!-- Nov -->
      <g style="fill: #24292f" transform="translate(237.397706 469.83625) scale(0.1 -0.1)">
       <defs>
        <path id="DejaVuSans-4e" d="M 628 4666 
L 1478 4666 
L 3547 763 
L 3547 4666 
L 4159 4666 
L 4159 0 
L 3309 0 
L 1241 3903 
L 1241 0 
L 628 0 
L 628 4666 
z
" transform="scale(0.015625)"/>
        <path id="DejaVuSans-6f" d="M 1959 3097 
Q 1497 3097 1228 2736 
Q 959 2375 959 1747 
Q 959 1119 1226 758 
Q 1494 397 1959 397 
Q 2419 397 2687 759 
Q 2956 1122 2956 1747 
Q 2956 2369 2687 2733 
Q 2419 3097 1959 3097 
z
M 1959 3584 
Q 2709 3584 3137 3096 
Q 3566 2609 3566 1747 
Q 3566 888 3137 398 
Q 2709 -91 1959 -91 
Q 1206 -91 779 398 
Q 353 888 353 1747 
Q 353 2609 779 3096 
Q 1206 3584 1959 3584 
z
" transform="scale(0.015625)"/>
        <path id="DejaVuSans-76" d="M 191 3500 
L 800 3500 
L 1894 563 
L 2988 3500 
L 3597 3500 
L 2284 0 
L 1503 0 
L 191 3500 
z
" transform="scale(0.015625)"/>
       </defs>
       <use xlink:href="#DejaVuSans-4e"/>
       <use xlink:href="#DejaVuSans-6f" transform="translate(74.804688 0)"/>
       <use xlink:href="#DejaVuSans-76" transform="translate(135.986328 0)"/>
      </g>
     </g>
    </g>
    <g id="xtick_4">
     <g id="line2d_7">
      <path d="M 326.40868 455.237812 
L 326.40868 38.397812 
" clip-path="url(#p09f82b6031)" style="fill: none; stroke: #d0d7de; stroke-opacity: 0.25; stroke-width: 0.5; stroke-linecap: square"/>
     </g>
     <g id="line2d_8">
      <g>
       <use xlink:href="#m1bc2388274" x="326.40868" y="455.237812" style="fill: #24292f; stroke: #24292f; stroke-width: 0.8"/>
      </g>
     </g>
     <g id="text_4">
      <!-- Dec -->
      <g style="fill: #24292f" transform="translate(316.732899 469.83625) scale(0.1 -0.1)">
       <defs>
        <path id="DejaVuSans-44" d="M 1259 4147 
L 1259 519 
L 2022 519 
Q 2988 519 3436 956 
Q 3884 1394 3884 2338 
Q 3884 3275 3436 3711 
Q 2988 4147 2022 4147 
L 1259 4147 
z
M 628 4666 
L 1925 4666 
Q 3281 4666 3915 4102 
Q 4550 3538 4550 2338 
Q 4550 1131 3912 565 
Q 3275 0 1925 0 
L 628 0 
L 628 4666 
z
" transform="scale(0.015625)"/>
       </defs>
       <use xlink:href="#DejaVuSans-44"/>
       <use xlink:href="#DejaVuSans-65" transform="translate(77.001953 0)"/>
       <use xlink:href="#DejaVuSans-63" transform="translate(138.525391 0)"/>
      </g>
     </g>
    </g>
    <g id="xtick_5">
     <g id="line2d_9">
      <path d="M 408.302 455.237812 
L 408.302 38.397812 
" clip-path="url(#p09f82b6031)" style="fill: none; stroke: #d0d7de; stroke-opacity: 0.25; stroke-width: 0.5; stroke-linecap: square"/>
     </g>
     <g id="line2d_10">
      <g>
       <use xlink:href="#m1bc2388274" x="408.302" y="455.237812" style="fill: #24292f; stroke: #24292f; stroke-width: 0.8"/>
      </g>
     </g>
     <g id="text_5">
      <!-- 2026 -->
      <g style="fill: #24292f" transform="translate(395.577 469.83625) scale(0.1 -0.1)">
       <defs>
        <path id="DejaVuSans-32" d="M 1228 531 
L 3431 531 
L 3431 0 
L 469 0 
L 469 531 
Q 828 903 1448 1529 
Q 2069 2156 2228 2338 
Q 2531 2678 2651 2914 
Q 2772 3150 2772 3378 
Q 2772 3750 2511 3984 
Q 2250 4219 1831 4219 
Q 1534 4219 1204 4116 
Q 875 4013 500 3803 
L 500 4441 
Q 881 4594 1212 4672 
Q 1544 4750 1819 4750 
Q 2544 4750 2975 4387 
Q 3406 4025 3406 3419 
Q 3406 3131 3298 2873 
Q 3191 2616 2906 2266 
Q 2828 2175 2409 1742 
Q 1991 1309 1228 531 
z
" transform="scale(0.015625)"/>
        <path id="DejaVuSans-30" d="M 2034 4250 
Q 1547 4250 1301 3770 
Q 1056 3291 1056 2328 
Q 1056 1369 1301 889 
Q 1547 409 2034 409 
Q 2525 409 2770 889 
Q 3016 1369 3016 2328 
Q 3016 3291 2770 3770 
Q 2525 4250 2034 4250 
z
M 2034 4750 
Q 2819 4750 3233 4129 
Q 3647 3509 3647 2328 
Q 3647 1150 3233 529 
Q 2819 -91 2034 -91 
Q 1250 -91 836 529 
Q 422 1150 422 2328 
Q 422 3509 836 4129 
Q 1250 4750 2034 4750 
z
" transform="scale(0.015625)"/>
        <path id="DejaVuSans-36" d="M 2113 2584 
Q 1688 2584 1439 2293 
Q 1191 2003 1191 1497 
Q 1191 994 1439 701 
Q 1688 409 2113 409 
Q 2538 409 2786 701 
Q 3034 994 3034 1497 
Q 3034 2003 2786 2293 
Q 2538 2584 2113 2584 
z
M 3366 4563 
L 3366 3988 
Q 3128 4100 2886 4159 
Q 2644 4219 2406 4219 
Q 1781 4219 1451 3797 
Q 1122 3375 1075 2522 
Q 1259 2794 1537 2939 
Q 1816 3084 2150 3084 
Q 2853 3084 3261 2657 
Q 3669 2231 3669 1497 
Q 3669 778 3244 343 
Q 2819 -91 2113 -91 
Q 1303 -91 875 529 
Q 447 1150 447 2328 
Q 447 3434 972 4092 
Q 1497 4750 2381 4750 
Q 2619 4750 2861 4703 
Q 3103 4656 3366 4563 
z
" transform="scale(0.015625)"/>
       </defs>
       <use xlink:href="#DejaVuSans-32"/>
       <use xlink:href="#DejaVuSans-30" transform="translate(63.623047 0)"/>
       <use xlink:href="#DejaVuSans-32" transform="translate(127.246094 0)"/>
       <use xlink:href="#DejaVuSans-36" transform="translate(190.869141 0)"/>
      </g>
     </g>
    </g>
    <g id="xtick_6">
     <g id="line2d_11">
      <path d="M 490.195319 455.237812 
L 490.195319 38.397812 
" clip-path="url(#p09f82b6031)" style="fill: none; stroke: #d0d7de; stroke-opacity: 0.25; stroke-width: 0.5; stroke-linecap: square"/>
     </g>
     <g id="line2d_12">
      <g>
       <use xlink:href="#m1bc2388274" x="490.195319" y="455.237812" style="fill: #24292f; stroke: #24292f; stroke-width: 0.8"/>
      </g>
     </g>
     <g id="text_6">
      <!-- Feb -->
      <g style="fill: #24292f" transform="translate(481.343757 469.83625) scale(0.1 -0.1)">
       <defs>
        <path id="DejaVuSans-46" d="M 628 4666 
L 3309 4666 
L 3309 4134 
L 1259 4134 
L 1259 2759 
L 3109 2759 
L 3109 2228 
L 1259 2228 
L 1259 0 
L 628 0 
L 628 4666 
z
" transform="scale(0.015625)"/>
        <path id="DejaVuSans-62" d="M 3116 1747 
Q 3116 2381 2855 2742 
Q 2594 3103 2138 3103 
Q 1681 3103 1420 2742 
Q 1159 2381 1159 1747 
Q 1159 1113 1420 752 
Q 1681 391 2138 391 
Q 2594 391 2855 752 
Q 3116 1113 3116 1747 
z
M 1159 2969 
Q 1341 3281 1617 3432 
Q 1894 3584 2278 3584 
Q 2916 3584 3314 3078 
Q 3713 2572 3713 1747 
Q 3713 922 3314 415 
Q 2916 -91 2278 -91 
Q 1894 -91 1617 61 
Q 1341 213 1159 525 
L 1159 0 
L 581 0 
L 581 4863 
L 1159 4863 
L 1159 2969 
z
" transform="scale(0.015625)"/>
       </defs>
       <use xlink:href="#DejaVuSans-46"/>
       <use xlink:href="#DejaVuSans-65" transform="translate(52.019531 0)"/>
       <use xlink:href="#DejaVuSans-62" transform="translate(113.542969 0)"/>
      </g>
     </g>
    </g>
    <g id="xtick_7">
     <g id="line2d_13">
      <path d="M 564.163479 455.237812 
L 564.163479 38.397812 
" clip-path="url(#p09f82b6031)" style="fill: none; stroke: #d0d7de; stroke-opacity: 0.25; stroke-width: 0.5; stroke-linecap: square"/>
     </g>
     <g id="line2d_14">
      <g>
       <use xlink:href="#m1bc2388274" x="564.163479" y="455.237812" style="fill: #24292f; stroke: #24292f; stroke-width: 0.8"/>
      </g>
     </g>
     <g id="text_7">
      <!-- Mar -->
      <g style="fill: #24292f" transform="translate(554.729885 469.83625) scale(0.1 -0.1)">
       <defs>
        <path id="DejaVuSans-4d" d="M 628 4666 
L 1569 4666 
L 2759 1491 
L 3956 4666 
L 4897 4666 
L 4897 0 
L 4281 0 
L 4281 4097 
L 3078 897 
L 2444 897 
L 1241 4097 
L 1241 0 
L 628 0 
L 628 4666 
z
" transform="scale(0.015625)"/>
        <path id="DejaVuSans-61" d="M 2194 1759 
Q 1497 1759 1228 1600 
Q 959 1441 959 1056 
Q 959 750 1161 570 
Q 1363 391 1709 391 
Q 2188 391 2477 730 
Q 2766 1069 2766 1631 
L 2766 1759 
L 2194 1759 
z
M 3341 1997 
L 3341 0 
L 2766 0 
L 2766 531 
Q 2569 213 2275 61 
Q 1981 -91 1556 -91 
Q 1019 -91 701 211 
Q 384 513 384 1019 
Q 384 1609 779 1909 
Q 1175 2209 1959 2209 
L 2766 2209 
L 2766 2266 
Q 2766 2663 2505 2880 
Q 2244 3097 1772 3097 
Q 1472 3097 1187 3025 
Q 903 2953 641 2809 
L 641 3341 
Q 956 3463 1253 3523 
Q 1550 3584 1831 3584 
Q 2591 3584 2966 3190 
Q 3341 2797 3341 1997 
z
" transform="scale(0.015625)"/>
        <path id="DejaVuSans-72" d="M 2631 2963 
Q 2534 3019 2420 3045 
Q 2306 3072 2169 3072 
Q 1681 3072 1420 2755 
Q 1159 2438 1159 1844 
L 1159 0 
L 581 0 
L 581 3500 
L 1159 3500 
L 1159 2956 
Q 1341 3275 1631 3429 
Q 1922 3584 2338 3584 
Q 2397 3584 2469 3576 
Q 2541 3569 2628 3553 
L 2631 2963 
z
" transform="scale(0.015625)"/>
       </defs>
       <use xlink:href="#DejaVuSans-4d"/>
       <use xlink:href="#DejaVuSans-61" transform="translate(86.279297 0)"/>
       <use xlink:href="#DejaVuSans-72" transform="translate(147.558594 0)"/>
      </g>
     </g>
    </g>
    <g id="xtick_8">
     <g id="line2d_15">
      <path d="M 646.056798 455.237812 
L 646.056798 38.397812 
" clip-path="url(#p09f82b6031)" style="fill: none; stroke: #d0d7de; stroke-opacity: 0.25; stroke-width: 0.5; stroke-linecap: square"/>
     </g>
     <g id="line2d_16">
      <g>
       <use xlink:href="#m1bc2388274" x="646.056798" y="455.237812" style="fill: #24292f; stroke: #24292f; stroke-width: 0.8"/>
      </g>
     </g>
     <g id="text_8">
      <!-- Apr -->
      <g style="fill: #24292f" transform="translate(637.406798 469.83625) scale(0.1 -0.1)">
       <defs>
        <path id="DejaVuSans-41" d="M 2188 4044 
L 1331 1722 
L 3047 1722 
L 2188 4044 
z
M 1831 4666 
L 2547 4666 
L 4325 0 
L 3669 0 
L 3244 1197 
L 1141 1197 
L 716 0 
L 50 0 
L 1831 4666 
z
" transform="scale(0.015625)"/>
       </defs>
       <use xlink:href="#DejaVuSans-41"/>
       <use xlink:href="#DejaVuSans-70" transform="translate(68.408203 0)"/>
       <use xlink:href="#DejaVuSans-72" transform="translate(131.884766 0)"/>
      </g>
     </g>
    </g>
    <g id="xtick_9">
     <g id="line2d_17">
      <path d="M 725.308398 455.237812 
L 725.308398 38.397812 
" clip-path="url(#p09f82b6031)" style="fill: none; stroke: #d0d7de; stroke-opacity: 0.25; stroke-width: 0.5; stroke-linecap: square"/>
     </g>
     <g id="line2d_18">
      <g>
       <use xlink:href="#m1bc2388274" x="725.308398" y="455.237812" style="fill: #24292f; stroke: #24292f; stroke-width: 0.8"/>
      </g>
     </g>
     <g id="text_9">
      <!-- May -->
      <g style="fill: #24292f" transform="translate(714.970898 469.83625) scale(0.1 -0.1)">
       <defs>
        <path id="DejaVuSans-79" d="M 2059 -325 
Q 1816 -950 1584 -1140 
Q 1353 -1331 966 -1331 
L 506 -1331 
L 506 -850 
L 844 -850 
Q 1081 -850 1212 -737 
Q 1344 -625 1503 -206 
L 1606 56 
L 191 3500 
L 800 3500 
L 1894 763 
L 2988 3500 
L 3597 3500 
L 2059 -325 
z
" transform="scale(0.015625)"/>
       </defs>
       <use xlink:href="#DejaVuSans-4d"/>
       <use xlink:href="#DejaVuSans-61" transform="translate(86.279297 0)"/>
       <use xlink:href="#DejaVuSans-79" transform="translate(147.558594 0)"/>
      </g>
     </g>
    </g>
    <g id="xtick_10">
     <g id="line2d_19">
      <path d="M 807.201717 455.237812 
L 807.201717 38.397812 
" clip-path="url(#p09f82b6031)" style="fill: none; stroke: #d0d7de; stroke-opacity: 0.25; stroke-width: 0.5; stroke-linecap: square"/>
     </g>
     <g id="line2d_20">
      <g>
       <use xlink:href="#m1bc2388274" x="807.201717" y="455.237812" style="fill: #24292f; stroke: #24292f; stroke-width: 0.8"/>
      </g>
     </g>
     <g id="text_10">
      <!-- Jun -->
      <g style="fill: #24292f" transform="translate(799.389217 469.83625) scale(0.1 -0.1)">
       <defs>
        <path id="DejaVuSans-4a" d="M 628 4666 
L 1259 4666 
L 1259 325 
Q 1259 -519 939 -900 
Q 619 -1281 -91 -1281 
L -331 -1281 
L -331 -750 
L -134 -750 
Q 284 -750 456 -515 
Q 628 -281 628 325 
L 628 4666 
z
" transform="scale(0.015625)"/>
        <path id="DejaVuSans-75" d="M 544 1381 
L 544 3500 
L 1119 3500 
L 1119 1403 
Q 1119 906 1312 657 
Q 1506 409 1894 409 
Q 2359 409 2629 706 
Q 2900 1003 2900 1516 
L 2900 3500 
L 3475 3500 
L 3475 0 
L 2900 0 
L 2900 538 
Q 2691 219 2414 64 
Q 2138 -91 1772 -91 
Q 1169 -91 856 284 
Q 544 659 544 1381 
z
M 1991 3584 
L 1991 3584 
z
" transform="scale(0.015625)"/>
        <path id="DejaVuSans-6e" d="M 3513 2113 
L 3513 0 
L 2938 0 
L 2938 2094 
Q 2938 2591 2744 2837 
Q 2550 3084 2163 3084 
Q 1697 3084 1428 2787 
Q 1159 2491 1159 1978 
L 1159 0 
L 581 0 
L 581 3500 
L 1159 3500 
L 1159 2956 
Q 1366 3272 1645 3428 
Q 1925 3584 2291 3584 
Q 2894 3584 3203 3211 
Q 3513 2838 3513 2113 
z
" transform="scale(0.015625)"/>
       </defs>
       <use xlink:href="#DejaVuSans-4a"/>
       <use xlink:href="#DejaVuSans-75" transform="translate(29.492188 0)"/>
       <use xlink:href="#DejaVuSans-6e" transform="translate(92.871094 0)"/>
      </g>
     </g>
    </g>
    <g id="text_11">
     <!-- Date -->
     <g style="fill: #24292f" transform="translate(434.285313 485.034062) scale(0.12 -0.12)">
      <use xlink:href="#DejaVuSans-44"/>
      <use xlink:href="#DejaVuSans-61" transform="translate(77.001953 0)"/>
      <use xlink:href="#DejaVuSans-74" transform="translate(138.28125 0)"/>
      <use xlink:href="#DejaVuSans-65" transform="translate(177.490234 0)"/>
     </g>
    </g>
   </g>
   <g id="matplotlib.axis_2">
    <g id="ytick_1">
     <g id="line2d_21">
      <path d="M 48.90125 455.237812 
L 848.35125 455.237812 
" clip-path="url(#p09f82b6031)" style="fill: none; stroke: #d0d7de; stroke-opacity: 0.25; stroke-width: 0.5; stroke-linecap: square"/>
     </g>
     <g id="line2d_22">
      <defs>
       <path id="m961ed5b9f1" d="M 0 0 
L -3.5 0 
" style="stroke: #24292f; stroke-width: 0.8"/>
      </defs>
      <g>
       <use xlink:href="#m961ed5b9f1" x="48.90125" y="455.237812" style="fill: #24292f; stroke: #24292f; stroke-width: 0.8"/>
      </g>
     </g>
     <g id="text_12">
      <!-- 0 -->
      <g style="fill: #24292f" transform="translate(35.53875 459.037031) scale(0.1 -0.1)">
       <use xlink:href="#DejaVuSans-30"/>
      </g>
     </g>
    </g>
    <g id="ytick_2">
     <g id="line2d_23">
      <path d="M 48.90125 399.659146 
L 848.35125 399.659146 
" clip-path="url(#p09f82b6031)" style="fill: none; stroke: #d0d7de; stroke-opacity: 0.25; stroke-width: 0.5; stroke-linecap: square"/>
     </g>
     <g id="line2d_24">
      <g>
       <use xlink:href="#m961ed5b9f1" x="48.90125" y="399.659146" style="fill: #24292f; stroke: #24292f; stroke-width: 0.8"/>
      </g>
     </g>
     <g id="text_13">
      <!-- 100 -->
      <g style="fill: #24292f" transform="translate(22.81375 403.458365) scale(0.1 -0.1)">
       <defs>
        <path id="DejaVuSans-31" d="M 794 531 
L 1825 531 
L 1825 4091 
L 703 3866 
L 703 4441 
L 1819 4666 
L 2450 4666 
L 2450 531 
L 3481 531 
L 3481 0 
L 794 0 
L 794 531 
z
" transform="scale(0.015625)"/>
       </defs>
       <use xlink:href="#DejaVuSans-31"/>
       <use xlink:href="#DejaVuSans-30" transform="translate(63.623047 0)"/>
       <use xlink:href="#DejaVuSans-30" transform="translate(127.246094 0)"/>
      </g>
     </g>
    </g>
    <g id="ytick_3">
     <g id="line2d_25">
      <path d="M 48.90125 344.080479 
L 848.35125 344.080479 
" clip-path="url(#p09f82b6031)" style="fill: none; stroke: #d0d7de; stroke-opacity: 0.25; stroke-width: 0.5; stroke-linecap: square"/>
     </g>
     <g id="line2d_26">
      <g>
       <use xlink:href="#m961ed5b9f1" x="48.90125" y="344.080479" style="fill: #24292f; stroke: #24292f; stroke-width: 0.8"/>
      </g>
     </g>
     <g id="text_14">
      <!-- 200 -->
      <g style="fill: #24292f" transform="translate(22.81375 347.879698) scale(0.1 -0.1)">
       <use xlink:href="#DejaVuSans-32"/>
       <use xlink:href="#DejaVuSans-30" transform="translate(63.623047 0)"/>
       <use xlink:href="#DejaVuSans-30" transform="translate(127.246094 0)"/>
      </g>
     </g>
    </g>
    <g id="ytick_4">
     <g id="line2d_27">
      <path d="M 48.90125 288.501812 
L 848.35125 288.501812 
" clip-path="url(#p09f82b6031)" style="fill: none; stroke: #d0d7de; stroke-opacity: 0.25; stroke-width: 0.5; stroke-linecap: square"/>
     </g>
     <g id="line2d_28">
      <g>
       <use xlink:href="#m961ed5b9f1" x="48.90125" y="288.501812" style="fill: #24292f; stroke: #24292f; stroke-width: 0.8"/>
      </g>
     </g>
     <g id="text_15">
      <!-- 300 -->
      <g style="fill: #24292f" transform="translate(22.81375 292.301031) scale(0.1 -0.1)">
       <defs>
        <path id="DejaVuSans-33" d="M 2597 2516 
Q 3050 2419 3304 2112 
Q 3559 1806 3559 1356 
Q 3559 666 3084 287 
Q 2609 -91 1734 -91 
Q 1441 -91 1130 -33 
Q 819 25 488 141 
L 488 750 
Q 750 597 1062 519 
Q 1375 441 1716 441 
Q 2309 441 2620 675 
Q 2931 909 2931 1356 
Q 2931 1769 2642 2001 
Q 2353 2234 1838 2234 
L 1294 2234 
L 1294 2753 
L 1863 2753 
Q 2328 2753 2575 2939 
Q 2822 3125 2822 3475 
Q 2822 3834 2567 4026 
Q 2313 4219 1838 4219 
Q 1578 4219 1281 4162 
Q 984 4106 628 3988 
L 628 4550 
Q 988 4650 1302 4700 
Q 1616 4750 1894 4750 
Q 2613 4750 3031 4423 
Q 3450 4097 3450 3541 
Q 3450 3153 3228 2886 
Q 3006 2619 2597 2516 
z
" transform="scale(0.015625)"/>
       </defs>
       <use xlink:href="#DejaVuSans-33"/>
       <use xlink:href="#DejaVuSans-30" transform="translate(63.623047 0)"/>
       <use xlink:href="#DejaVuSans-30" transform="translate(127.246094 0)"/>
      </g>
     </g>
    </g>
    <g id="ytick_5">
     <g id="line2d_29">
      <path d="M 48.90125 232.923146 
L 848.35125 232.923146 
" clip-path="url(#p09f82b6031)" style="fill: none; stroke: #d0d7de; stroke-opacity: 0.25; stroke-width: 0.5; stroke-linecap: square"/>
     </g>
     <g id="line2d_30">
      <g>
       <use xlink:href="#m961ed5b9f1" x="48.90125" y="232.923146" style="fill: #24292f; stroke: #24292f; stroke-width: 0.8"/>
      </g>
     </g>
     <g id="text_16">
      <!-- 400 -->
      <g style="fill: #24292f" transform="translate(22.81375 236.722365) scale(0.1 -0.1)">
       <defs>
        <path id="DejaVuSans-34" d="M 2419 4116 
L 825 1625 
L 2419 1625 
L 2419 4116 
z
M 2253 4666 
L 3047 4666 
L 3047 1625 
L 3713 1625 
L 3713 1100 
L 3047 1100 
L 3047 0 
L 2419 0 
L 2419 1100 
L 313 1100 
L 313 1709 
L 2253 4666 
z
" transform="scale(0.015625)"/>
       </defs>
       <use xlink:href="#DejaVuSans-34"/>
       <use xlink:href="#DejaVuSans-30" transform="translate(63.623047 0)"/>
       <use xlink:href="#DejaVuSans-30" transform="translate(127.246094 0)"/>
      </g>
     </g>
    </g>
    <g id="ytick_6">
     <g id="line2d_31">
      <path d="M 48.90125 177.344479 
L 848.35125 177.344479 
" clip-path="url(#p09f82b6031)" style="fill: none; stroke: #d0d7de; stroke-opacity: 0.25; stroke-width: 0.5; stroke-linecap: square"/>
     </g>
     <g id="line2d_32">
      <g>
       <use xlink:href="#m961ed5b9f1" x="48.90125" y="177.344479" style="fill: #24292f; stroke: #24292f; stroke-width: 0.8"/>
      </g>
     </g>
     <g id="text_17">
      <!-- 500 -->
      <g style="fill: #24292f" transform="translate(22.81375 181.143698) scale(0.1 -0.1)">
       <defs>
        <path id="DejaVuSans-35" d="M 691 4666 
L 3169 4666 
L 3169 4134 
L 1269 4134 
L 1269 2991 
Q 1406 3038 1543 3061 
Q 1681 3084 1819 3084 
Q 2600 3084 3056 2656 
Q 3513 2228 3513 1497 
Q 3513 744 3044 326 
Q 2575 -91 1722 -91 
Q 1428 -91 1123 -41 
Q 819 9 494 109 
L 494 744 
Q 775 591 1075 516 
Q 1375 441 1709 441 
Q 2250 441 2565 725 
Q 2881 1009 2881 1497 
Q 2881 1984 2565 2268 
Q 2250 2553 1709 2553 
Q 1456 2553 1204 2497 
Q 953 2441 691 2322 
L 691 4666 
z
" transform="scale(0.015625)"/>
       </defs>
       <use xlink:href="#DejaVuSans-35"/>
       <use xlink:href="#DejaVuSans-30" transform="translate(63.623047 0)"/>
       <use xlink:href="#DejaVuSans-30" transform="translate(127.246094 0)"/>
      </g>
     </g>
    </g>
    <g id="ytick_7">
     <g id="line2d_33">
      <path d="M 48.90125 121.765812 
L 848.35125 121.765812 
" clip-path="url(#p09f82b6031)" style="fill: none; stroke: #d0d7de; stroke-opacity: 0.25; stroke-width: 0.5; stroke-linecap: square"/>
     </g>
     <g id="line2d_34">
      <g>
       <use xlink:href="#m961ed5b9f1" x="48.90125" y="121.765812" style="fill: #24292f; stroke: #24292f; stroke-width: 0.8"/>
      </g>
     </g>
     <g id="text_18">
      <!-- 600 -->
      <g style="fill: #24292f" transform="translate(22.81375 125.565031) scale(0.1 -0.1)">
       <use xlink:href="#DejaVuSans-36"/>
       <use xlink:href="#DejaVuSans-30" transform="translate(63.623047 0)"/>
       <use xlink:href="#DejaVuSans-30" transform="translate(127.246094 0)"/>
      </g>
     </g>
    </g>
    <g id="ytick_8">
     <g id="line2d_35">
      <path d="M 48.90125 66.187146 
L 848.35125 66.187146 
" clip-path="url(#p09f82b6031)" style="fill: none; stroke: #d0d7de; stroke-opacity: 0.25; stroke-width: 0.5; stroke-linecap: square"/>
     </g>
     <g id="line2d_36">
      <g>
       <use xlink:href="#m961ed5b9f1" x="48.90125" y="66.187146" style="fill: #24292f; stroke: #24292f; stroke-width: 0.8"/>
      </g>
     </g>
     <g id="text_19">
      <!-- 700 -->
      <g style="fill: #24292f" transform="translate(22.81375 69.986365) scale(0.1 -0.1)">
       <defs>
        <path id="DejaVuSans-37" d="M 525 4666 
L 3525 4666 
L 3525 4397 
L 1831 0 
L 1172 0 
L 2766 4134 
L 525 4134 
L 525 4666 
z
" transform="scale(0.015625)"/>
       </defs>
       <use xlink:href="#DejaVuSans-37"/>
       <use xlink:href="#DejaVuSans-30" transform="translate(63.623047 0)"/>
       <use xlink:href="#DejaVuSans-30" transform="translate(127.246094 0)"/>
      </g>
     </g>
    </g>
    <g id="text_20">
     <!-- Count -->
     <g style="fill: #24292f" transform="translate(16.318125 264.635937) rotate(-90) scale(0.12 -0.12)">
      <defs>
       <path id="DejaVuSans-43" d="M 4122 4306 
L 4122 3641 
Q 3803 3938 3442 4084 
Q 3081 4231 2675 4231 
Q 1875 4231 1450 3742 
Q 1025 3253 1025 2328 
Q 1025 1406 1450 917 
Q 1875 428 2675 428 
Q 3081 428 3442 575 
Q 3803 722 4122 1019 
L 4122 359 
Q 3791 134 3420 21 
Q 3050 -91 2638 -91 
Q 1578 -91 968 557 
Q 359 1206 359 2328 
Q 359 3453 968 4101 
Q 1578 4750 2638 4750 
Q 3056 4750 3426 4639 
Q 3797 4528 4122 4306 
z
" transform="scale(0.015625)"/>
      </defs>
      <use xlink:href="#DejaVuSans-43"/>
      <use xlink:href="#DejaVuSans-6f" transform="translate(69.824219 0)"/>
      <use xlink:href="#DejaVuSans-75" transform="translate(131.005859 0)"/>
      <use xlink:href="#DejaVuSans-6e" transform="translate(194.384766 0)"/>
      <use xlink:href="#DejaVuSans-74" transform="translate(257.763672 0)"/>
     </g>
    </g>
   </g>
   <g id="line2d_37">
    <path d="M 85.239886 454.682026 
L 85.290489 454.682026 
L 85.412577 454.126239 
L 85.481371 454.126239 
L 85.650545 257.933546 
L 87.778628 257.933546 
L 87.788351 261.268266 
L 90.362927 261.268266 
L 90.529625 260.712479 
L 90.84495 260.712479 
L 91.134622 260.156692 
L 92.929554 259.600906 
L 92.964991 260.156692 
L 93.0303 259.600906 
L 98.609405 259.600906 
L 101.962677 260.712479 
L 102.461608 259.600906 
L 102.825914 259.600906 
L 103.744095 259.045119 
L 104.128245 256.821972 
L 104.876244 256.821972 
L 105.966259 260.712479 
L 106.03698 256.821972 
L 106.873402 256.266186 
L 109.050222 256.266186 
L 109.624399 255.710399 
L 110.477271 255.710399 
L 110.757189 254.598826 
L 116.021856 254.598826 
L 116.409583 253.487252 
L 116.429457 252.375679 
L 118.103433 252.375679 
L 120.57179 251.264106 
L 121.866631 251.264106 
L 121.88623 250.708319 
L 124.859877 250.708319 
L 125.59754 247.929386 
L 127.932069 247.929386 
L 127.948274 247.373599 
L 141.0228 247.373599 
L 143.466758 246.817812 
L 143.550199 247.373599 
L 146.084904 246.817812 
L 154.905467 246.817812 
L 159.180681 246.262026 
L 159.263265 245.706239 
L 159.466347 245.150452 
L 161.87814 245.150452 
L 162.904619 244.594666 
L 167.137701 244.594666 
L 167.298405 247.373599 
L 167.306294 245.150452 
L 167.512097 245.150452 
L 168.534051 242.927306 
L 173.537604 242.927306 
L 177.372347 242.371519 
L 181.634414 242.371519 
L 181.821444 241.815732 
L 192.896397 241.815732 
L 193.369063 241.259946 
L 196.058205 241.259946 
L 196.077162 240.148372 
L 201.200937 240.148372 
L 201.304863 236.257866 
L 210.578615 236.257866 
L 210.581397 235.702079 
L 210.849972 235.702079 
L 212.018811 235.146292 
L 213.206637 235.146292 
L 213.584427 234.590506 
L 213.622219 235.146292 
L 214.487321 234.590506 
L 214.491265 234.034719 
L 214.511475 234.590506 
L 215.011201 234.034719 
L 219.563367 234.034719 
L 220.978675 233.478932 
L 222.658063 233.478932 
L 225.510478 232.923146 
L 228.210812 232.923146 
L 230.297098 231.811572 
L 234.862809 231.811572 
L 237.518716 230.699999 
L 238.26702 231.255786 
L 241.973959 231.255786 
L 246.155551 229.032639 
L 252.391875 229.032639 
L 254.325987 228.476852 
L 288.794165 228.476852 
L 289.072524 227.921066 
L 301.64228 227.921066 
L 301.852303 227.365279 
L 323.24097 227.365279 
L 327.950692 226.809492 
L 327.977935 227.365279 
L 331.3494 225.697919 
L 336.297213 225.697919 
L 338.998891 225.142132 
L 339.003325 224.586346 
L 344.6404 224.586346 
L 346.663609 225.142132 
L 347.390908 224.586346 
L 356.824845 224.586346 
L 357.226331 225.142132 
L 357.961793 224.586346 
L 358.21453 222.363199 
L 362.537809 222.363199 
L 362.541539 221.807412 
L 375.770686 221.807412 
L 376.541065 221.251626 
L 379.083476 221.251626 
L 379.331504 220.695839 
L 391.729151 220.695839 
L 391.745998 220.140052 
L 394.846839 220.140052 
L 394.851456 219.584266 
L 395.603888 219.584266 
L 395.643177 219.028479 
L 396.811618 219.028479 
L 396.995193 218.472692 
L 399.496022 218.472692 
L 399.876166 217.361119 
L 401.252888 215.137972 
L 404.582036 215.137972 
L 404.827832 212.359039 
L 405.944173 212.359039 
L 406.492055 211.247466 
L 409.31527 211.247466 
L 410.241646 210.691679 
L 412.893395 210.691679 
L 413.248804 210.135892 
L 420.45119 210.135892 
L 420.62865 209.580106 
L 421.294798 209.580106 
L 422.329013 209.024319 
L 433.978387 209.024319 
L 434.083046 208.468532 
L 434.456556 208.468532 
L 435.236292 207.356959 
L 436.329487 207.356959 
L 436.592344 206.801172 
L 436.845601 206.801172 
L 436.941699 206.245386 
L 439.865203 206.245386 
L 440.36291 205.689599 
L 442.907584 205.689599 
L 443.070734 205.133812 
L 444.464608 205.133812 
L 444.553919 204.578026 
L 448.885759 204.578026 
L 448.978892 204.022239 
L 451.505281 204.022239 
L 452.349103 201.799092 
L 453.284651 201.799092 
L 453.285629 201.243306 
L 457.084325 201.243306 
L 457.780742 200.687519 
L 460.689356 200.687519 
L 461.262248 200.131732 
L 461.477744 200.131732 
L 462.037519 199.575946 
L 463.467411 199.575946 
L 463.632672 199.020159 
L 467.218837 199.020159 
L 468.143225 198.464372 
L 468.210552 197.908586 
L 468.509825 197.908586 
L 469.454423 195.685439 
L 472.383889 195.685439 
L 472.404986 195.129652 
L 475.192979 195.129652 
L 475.458649 194.573866 
L 475.775595 194.573866 
L 476.094405 194.018079 
L 476.160907 194.573866 
L 476.39964 194.018079 
L 477.460303 194.018079 
L 477.470454 193.462292 
L 477.752115 193.462292 
L 477.875456 192.906506 
L 478.727717 192.350719 
L 484.6574 192.350719 
L 485.584203 191.794932 
L 486.20461 191.794932 
L 486.707943 191.239146 
L 487.217116 191.794932 
L 489.313584 191.794932 
L 489.403996 190.683359 
L 492.41363 190.683359 
L 493.581368 189.015999 
L 506.256335 189.015999 
L 506.992989 188.460212 
L 526.557494 188.460212 
L 526.677686 187.904426 
L 555.425684 187.904426 
L 555.552328 187.348639 
L 555.561409 186.792852 
L 555.570428 187.348639 
L 559.760398 187.348639 
L 560.706434 186.792852 
L 577.213484 186.792852 
L 580.610265 186.237066 
L 580.643286 185.681279 
L 580.924489 185.681279 
L 581.805307 185.125492 
L 608.298028 185.125492 
L 608.555168 184.569706 
L 632.114357 184.569706 
L 635.138331 184.013919 
L 636.988055 184.013919 
L 637.188783 183.458132 
L 638.47442 182.902346 
L 642.079787 182.902346 
L 643.598225 182.346559 
L 645.18711 182.346559 
L 645.310849 181.790772 
L 647.924256 181.790772 
L 648.236431 181.234986 
L 648.298224 180.679199 
L 652.951168 180.679199 
L 652.969207 180.123412 
L 656.930962 180.123412 
L 656.939706 179.567626 
L 658.28203 179.011839 
L 660.665021 179.011839 
L 662.379876 178.456052 
L 663.91455 178.456052 
L 666.176462 175.121332 
L 668.817203 175.121332 
L 668.829434 172.342399 
L 682.107165 172.342399 
L 682.108541 171.786612 
L 682.338193 171.230826 
L 683.609949 171.230826 
L 683.886565 170.675039 
L 688.058006 170.675039 
L 689.022325 170.119252 
L 689.180981 170.675039 
L 696.642067 170.675039 
L 696.643749 170.119252 
L 699.656196 170.119252 
L 700.88854 167.340319 
L 708.443401 167.340319 
L 708.524089 166.228746 
L 710.232218 164.561386 
L 711.946156 164.561386 
L 712.128722 164.005599 
L 719.333647 164.005599 
L 719.46613 163.449812 
L 726.700682 163.449812 
L 726.858268 162.894026 
L 728.852155 161.226666 
L 729.006653 160.670879 
L 748.648544 160.670879 
L 750.508175 157.891946 
L 754.945469 157.891946 
L 755.234499 157.336159 
L 758.568203 157.336159 
L 759.809016 156.224586 
L 777.380398 156.224586 
L 777.603171 155.668799 
L 780.175424 155.668799 
L 780.45097 155.113012 
L 797.3958 155.113012 
L 797.404483 153.445652 
L 797.930778 153.445652 
L 798.019753 152.889866 
L 801.040487 152.889866 
L 801.46573 152.334079 
L 801.468268 152.889866 
L 809.122407 152.889866 
L 810.96889 152.334079 
L 812.012614 152.334079 
L 812.012614 152.334079 
" clip-path="url(#p09f82b6031)" style="fill: none; stroke: #1a7f37; stroke-width: 2; stroke-linecap: square"/>
   </g>
   <g id="line2d_38">
    <path d="M 85.239886 455.237812 
L 85.322593 453.570452 
L 85.412577 453.570452 
L 85.553193 372.981386 
L 86.72882 372.981386 
L 86.754472 370.758239 
L 88.040385 370.758239 
L 88.3717 369.090879 
L 88.822505 370.758239 
L 88.825838 369.090879 
L 89.198858 369.090879 
L 89.343022 367.979306 
L 93.026784 367.979306 
L 93.0303 367.423519 
L 93.05103 367.979306 
L 93.232343 367.423519 
L 93.285514 367.979306 
L 93.53186 367.423519 
L 94.720023 367.423519 
L 94.787656 366.867732 
L 94.971873 366.311946 
L 96.431392 366.311946 
L 98.092313 365.756159 
L 98.150773 365.200372 
L 98.599682 364.644586 
L 98.609405 364.088799 
L 101.962677 367.979306 
L 102.461608 366.311946 
L 102.825914 363.533012 
L 104.876244 363.533012 
L 105.966259 367.979306 
L 106.03698 363.533012 
L 125.95509 363.533012 
L 126.566293 362.977226 
L 127.948274 362.977226 
L 131.722692 362.421439 
L 132.642096 361.865652 
L 145.742154 361.865652 
L 146.084904 361.309866 
L 147.845868 360.754079 
L 148.965113 360.754079 
L 150.205743 360.198292 
L 150.239162 359.086719 
L 151.091973 358.530932 
L 151.66514 357.975146 
L 159.561254 357.975146 
L 161.135279 357.419359 
L 161.611124 357.419359 
L 161.87814 356.863572 
L 162.904619 356.863572 
L 163.924403 356.307786 
L 167.137701 356.307786 
L 167.298405 358.530932 
L 167.306294 356.307786 
L 168.534051 356.307786 
L 168.657301 355.751999 
L 170.395149 355.751999 
L 172.10496 355.196212 
L 172.146451 354.640426 
L 177.372347 354.640426 
L 179.576563 354.084639 
L 179.582128 353.528852 
L 186.917059 353.528852 
L 189.976746 352.973066 
L 192.27229 352.973066 
L 192.896397 352.417279 
L 196.400375 352.417279 
L 198.39891 351.861492 
L 198.508462 351.305706 
L 200.456944 351.305706 
L 200.68308 350.749919 
L 201.304863 350.194132 
L 202.692897 350.194132 
L 203.569251 349.638346 
L 205.176022 349.638346 
L 206.224699 349.082559 
L 208.461845 349.082559 
L 209.224 347.970986 
L 215.011201 347.970986 
L 216.659341 347.415199 
L 218.591954 347.415199 
L 219.027777 346.859412 
L 219.161055 346.303626 
L 219.563367 345.747839 
L 226.218545 345.747839 
L 227.437038 345.192052 
L 228.210812 344.636266 
L 247.135586 344.636266 
L 251.383741 344.080479 
L 251.434496 343.524692 
L 254.325987 343.524692 
L 256.797402 342.968906 
L 261.165596 342.968906 
L 261.534703 342.413119 
L 268.973927 342.413119 
L 274.797391 341.857332 
L 274.853283 341.301546 
L 275.614612 341.301546 
L 277.157113 340.745759 
L 277.243152 339.078399 
L 277.31103 338.522612 
L 280.533042 337.966826 
L 280.725973 337.411039 
L 280.80287 336.299466 
L 281.094682 335.743679 
L 291.579437 335.743679 
L 294.557976 335.187892 
L 296.454021 334.632106 
L 297.939377 334.632106 
L 301.383306 334.076319 
L 301.64228 331.853172 
L 301.852303 331.853172 
L 302.347473 330.741599 
L 308.87989 330.185812 
L 309.087803 329.630026 
L 309.149137 329.074239 
L 310.529222 329.074239 
L 311.83244 328.518452 
L 311.982229 327.962666 
L 312.083953 326.851092 
L 312.946579 326.295306 
L 313.009901 325.739519 
L 314.583803 325.183732 
L 316.652661 324.627946 
L 316.799791 324.072159 
L 316.802909 323.516372 
L 317.219041 322.960586 
L 317.292545 322.404799 
L 320.293618 321.849012 
L 320.831624 321.293226 
L 333.465619 321.293226 
L 335.560772 320.737439 
L 335.751441 320.181652 
L 344.31416 320.181652 
L 344.6404 319.070079 
L 348.208037 319.070079 
L 349.28515 318.514292 
L 349.33777 317.402719 
L 349.614356 316.846932 
L 351.445795 316.291146 
L 351.487042 315.735359 
L 351.708102 315.179572 
L 351.934636 312.956426 
L 352.186975 312.956426 
L 352.19627 312.400639 
L 353.725196 311.844852 
L 354.326279 311.289066 
L 354.471727 310.733279 
L 357.226331 310.177492 
L 359.256358 310.177492 
L 359.961276 309.621706 
L 367.593676 309.621706 
L 370.122236 309.065919 
L 370.132295 308.510132 
L 370.587044 307.954346 
L 376.541065 307.954346 
L 378.211647 307.398559 
L 378.89984 306.842772 
L 379.083476 305.731199 
L 383.899662 305.731199 
L 384.227797 305.175412 
L 386.872514 305.175412 
L 388.138674 304.619626 
L 391.745998 304.619626 
L 393.926793 304.063839 
L 398.4556 304.063839 
L 399.012226 303.508052 
L 401.252888 303.508052 
L 401.862777 302.952266 
L 402.127346 302.396479 
L 402.257659 301.840692 
L 404.102062 301.840692 
L 404.154499 300.729119 
L 404.827832 300.729119 
L 405.269923 299.061759 
L 406.874309 299.061759 
L 407.073569 298.505972 
L 407.228251 298.505972 
L 407.996184 297.950186 
L 409.270539 297.950186 
L 409.31527 297.394399 
L 410.241646 297.394399 
L 410.466651 296.838612 
L 411.337348 296.838612 
L 412.670469 295.727039 
L 413.248804 295.727039 
L 415.485552 294.615466 
L 415.488915 294.059679 
L 415.915963 293.503892 
L 417.00555 292.948106 
L 417.174968 292.392319 
L 418.261315 291.836532 
L 420.037137 291.836532 
L 420.62865 290.724959 
L 422.794433 290.724959 
L 422.85592 290.169172 
L 423.472933 290.169172 
L 423.520294 289.613386 
L 423.858887 289.057599 
L 425.037021 289.057599 
L 425.126637 288.501812 
L 425.328466 288.501812 
L 425.450279 287.946026 
L 425.459971 287.946026 
L 425.556284 287.390239 
L 427.119424 287.390239 
L 427.447498 286.834452 
L 427.722983 286.834452 
L 427.887632 286.278666 
L 428.308106 286.278666 
L 428.622911 285.722879 
L 428.68929 285.167092 
L 428.779274 285.167092 
L 430.361768 284.611306 
L 431.545986 284.611306 
L 431.635633 284.055519 
L 436.307075 284.055519 
L 436.329487 283.499732 
L 436.592344 283.499732 
L 437.210886 282.388159 
L 438.78861 282.388159 
L 438.934914 280.720799 
L 438.977597 279.609226 
L 439.253357 279.053439 
L 440.36291 279.053439 
L 440.886209 278.497652 
L 441.393426 278.497652 
L 441.556974 277.941866 
L 442.343222 277.386079 
L 443.070734 277.386079 
L 444.533312 276.830292 
L 444.630603 276.274506 
L 445.000872 276.274506 
L 445.074956 275.718719 
L 446.375116 275.718719 
L 446.411226 275.162932 
L 452.716528 275.162932 
L 452.833051 274.607146 
L 453.001522 274.607146 
L 453.084688 273.495572 
L 453.896588 273.495572 
L 454.06937 272.939786 
L 454.631714 272.383999 
L 454.773065 271.828212 
L 455.031336 271.828212 
L 455.249889 271.272426 
L 455.32113 270.716639 
L 458.48939 270.716639 
L 459.289091 270.160852 
L 459.447044 269.049279 
L 459.641687 268.493492 
L 459.966613 268.493492 
L 460.16465 267.937706 
L 464.711466 267.937706 
L 465.011625 266.270346 
L 465.632888 266.270346 
L 465.724095 265.714559 
L 468.151756 265.714559 
L 468.210552 264.602986 
L 471.12629 264.602986 
L 471.156498 264.047199 
L 472.561074 264.047199 
L 472.570522 263.491412 
L 473.254495 263.491412 
L 473.36793 262.935626 
L 475.35509 262.935626 
L 475.458649 262.379839 
L 475.590582 262.379839 
L 475.775595 261.824052 
L 476.151153 261.824052 
L 476.160907 261.268266 
L 476.39964 261.268266 
L 476.855061 260.712479 
L 480.533534 260.712479 
L 480.800886 260.156692 
L 481.892338 260.156692 
L 481.894356 259.600906 
L 490.239195 259.600906 
L 491.655542 259.045119 
L 491.696605 258.489332 
L 492.41363 257.933546 
L 493.503921 257.933546 
L 493.581368 256.821972 
L 493.77858 256.821972 
L 493.860675 256.266186 
L 496.756294 256.266186 
L 497.279195 255.710399 
L 502.287854 255.710399 
L 502.303264 255.154612 
L 503.939143 255.154612 
L 504.638251 254.598826 
L 512.337886 254.598826 
L 512.433985 253.487252 
L 515.462117 253.487252 
L 516.064423 252.931466 
L 516.709413 252.931466 
L 517.497893 252.375679 
L 522.709756 252.375679 
L 523.208839 251.819892 
L 523.641298 251.819892 
L 523.853339 251.264106 
L 525.513648 250.708319 
L 526.326405 250.708319 
L 526.677686 250.152532 
L 529.010258 249.596746 
L 533.304979 249.596746 
L 533.641064 249.040959 
L 550.217521 249.040959 
L 550.82319 248.485172 
L 554.656528 248.485172 
L 554.795065 247.929386 
L 555.044072 247.929386 
L 555.119135 247.373599 
L 576.526698 247.373599 
L 577.213484 246.817812 
L 582.324876 246.817812 
L 583.435224 246.262026 
L 583.509644 245.706239 
L 586.169067 245.706239 
L 586.279414 245.150452 
L 594.893562 245.150452 
L 594.911204 244.594666 
L 602.182966 244.594666 
L 602.261239 244.038879 
L 602.733538 243.483092 
L 604.517984 243.483092 
L 604.522081 242.927306 
L 604.884706 242.371519 
L 607.563942 242.371519 
L 608.449101 241.815732 
L 614.162188 241.815732 
L 614.202425 240.704159 
L 650.416523 240.704159 
L 652.969207 240.148372 
L 656.180793 240.148372 
L 656.287501 239.592586 
L 670.525974 239.592586 
L 670.549884 239.036799 
L 685.419068 239.036799 
L 685.572343 238.481012 
L 686.456983 238.481012 
L 686.480037 237.925226 
L 686.67997 237.369439 
L 687.457718 236.257866 
L 687.572039 235.146292 
L 687.638113 234.034719 
L 687.837312 233.478932 
L 687.883389 232.923146 
L 688.058006 232.367359 
L 689.180981 232.367359 
L 689.320589 231.811572 
L 689.327163 231.255786 
L 689.748279 230.699999 
L 696.643749 230.699999 
L 697.386977 229.588426 
L 719.136374 229.588426 
L 719.274575 229.032639 
L 732.550074 229.032639 
L 732.864481 227.921066 
L 734.288106 227.921066 
L 734.478805 227.365279 
L 742.936987 227.365279 
L 743.148355 226.809492 
L 746.472947 226.809492 
L 747.360859 226.253706 
L 747.44436 225.697919 
L 752.432533 225.697919 
L 752.587918 224.586346 
L 753.231439 224.030559 
L 753.833378 224.030559 
L 754.945469 223.474772 
L 758.14244 223.474772 
L 758.191177 222.918986 
L 758.568203 222.363199 
L 761.17681 222.363199 
L 763.941107 221.807412 
L 777.603171 221.807412 
L 779.218045 221.251626 
L 779.815918 220.695839 
L 780.175424 219.584266 
L 782.097948 219.584266 
L 789.931167 218.472692 
L 791.896711 218.472692 
L 792.113246 217.361119 
L 792.379161 217.361119 
L 792.51406 216.805332 
L 803.522297 216.805332 
L 803.5352 216.249546 
L 812.012614 216.249546 
L 812.012614 216.249546 
" clip-path="url(#p09f82b6031)" style="fill: none; stroke: #0969da; stroke-width: 2; stroke-linecap: square"/>
   </g>
   <g id="line2d_39">
    <path d="M 85.239886 455.237812 
L 87.778628 455.237812 
L 87.788351 454.126239 
L 89.884238 454.126239 
L 90.362927 453.570452 
L 219.563367 453.570452 
L 220.978675 453.014666 
L 256.797402 453.014666 
L 257.791441 452.458879 
L 291.579437 452.458879 
L 294.557976 451.903092 
L 302.347473 451.903092 
L 309.149137 450.235732 
L 310.529222 449.124159 
L 313.009901 449.124159 
L 314.583803 448.568372 
L 316.802909 448.012586 
L 317.292545 448.012586 
L 320.293618 447.456799 
L 320.831624 446.901012 
L 323.24097 446.345226 
L 327.950692 445.789439 
L 327.977935 446.345226 
L 335.751441 446.345226 
L 336.297213 445.789439 
L 347.390908 445.789439 
L 348.208037 445.233652 
L 351.934636 445.233652 
L 352.19627 444.677866 
L 356.824845 444.677866 
L 357.226331 444.122079 
L 374.182413 444.122079 
L 375.770686 443.566292 
L 376.438209 443.566292 
L 376.541065 443.010506 
L 381.066509 443.010506 
L 381.07082 442.454719 
L 391.729151 442.454719 
L 391.745998 441.898932 
L 394.851456 441.898932 
L 395.643177 441.343146 
L 396.80957 440.787359 
L 396.811618 440.231572 
L 396.995193 440.231572 
L 398.4556 438.564212 
L 399.439396 438.564212 
L 399.496022 436.896852 
L 399.876166 436.896852 
L 401.252888 437.452639 
L 402.242982 437.452639 
L 402.257659 435.229492 
L 405.944173 435.229492 
L 406.492055 434.673706 
L 407.073569 434.673706 
L 407.228251 434.117919 
L 420.45119 434.117919 
L 420.62865 433.562132 
L 421.294798 433.562132 
L 422.329013 433.006346 
L 426.89182 433.006346 
L 427.119424 432.450559 
L 428.68929 432.450559 
L 428.779274 431.894772 
L 433.978387 431.894772 
L 434.083046 431.338986 
L 434.456556 431.338986 
L 434.835386 430.783199 
L 435.213849 430.783199 
L 435.236292 430.227412 
L 436.845601 430.227412 
L 436.941699 429.671626 
L 444.412783 429.671626 
L 444.533312 429.115839 
L 444.553919 429.115839 
L 444.630603 428.560052 
L 445.074956 428.560052 
L 446.006468 428.004266 
L 449.648281 428.004266 
L 449.651491 427.448479 
L 450.347358 427.448479 
L 450.373836 426.892692 
L 452.349103 426.892692 
L 452.813942 426.336906 
L 455.396345 426.336906 
L 456.159815 425.781119 
L 457.64459 425.781119 
L 457.660336 424.669546 
L 457.780742 424.669546 
L 457.932274 424.113759 
L 460.320799 424.113759 
L 460.689356 423.557972 
L 461.262248 423.557972 
L 461.477744 423.002186 
L 462.876082 423.002186 
L 463.071337 422.446399 
L 463.073844 421.890612 
L 463.467411 421.890612 
L 463.632672 421.334826 
L 478.695735 421.334826 
L 478.727717 420.223252 
L 480.800886 420.223252 
L 481.397566 419.667466 
L 481.894356 419.667466 
L 484.224849 419.111679 
L 484.6574 419.111679 
L 485.584203 418.555892 
L 486.20461 418.555892 
L 486.707943 418.000106 
L 487.217116 418.555892 
L 488.856236 418.555892 
L 489.301965 418.000106 
L 489.403996 416.888532 
L 490.2336 416.332746 
L 490.239195 415.221172 
L 493.860675 415.221172 
L 494.652671 414.665386 
L 494.732932 412.998026 
L 495.524531 412.442239 
L 495.96231 411.886452 
L 499.70652 411.886452 
L 499.86539 410.219092 
L 500.056365 410.219092 
L 500.19796 409.663306 
L 501.113022 409.107519 
L 502.553401 409.107519 
L 502.850136 408.551732 
L 502.917647 407.995946 
L 503.069057 407.995946 
L 503.939143 406.884372 
L 504.871358 406.884372 
L 505.177449 406.328586 
L 506.252788 406.328586 
L 506.256335 405.217012 
L 506.992989 405.217012 
L 507.970945 404.661226 
L 510.56188 403.549652 
L 510.909492 402.993866 
L 516.064423 402.993866 
L 516.709413 401.882292 
L 526.557494 401.882292 
L 526.677686 400.770719 
L 531.471154 400.770719 
L 532.203559 400.214932 
L 534.42612 400.214932 
L 534.550868 399.659146 
L 548.224307 399.659146 
L 548.442554 399.103359 
L 549.796925 399.103359 
L 550.217521 398.547572 
L 552.745194 398.547572 
L 553.220582 397.991786 
L 553.2237 397.435999 
L 553.767393 396.880212 
L 555.425684 396.880212 
L 555.552328 396.324426 
L 555.561409 395.212852 
L 555.570428 395.768639 
L 556.684782 395.212852 
L 560.706434 395.212852 
L 561.499714 394.101279 
L 568.756036 394.101279 
L 569.317065 393.545492 
L 571.077386 393.545492 
L 571.218308 392.989706 
L 571.237693 392.433919 
L 577.213484 392.433919 
L 580.924489 391.322346 
L 581.805307 391.322346 
L 582.324876 390.766559 
L 590.011792 390.766559 
L 590.956635 390.210772 
L 592.1274 390.210772 
L 593.261291 389.654986 
L 602.733538 389.654986 
L 602.993491 389.099199 
L 602.994897 388.543412 
L 608.298028 388.543412 
L 608.555168 387.987626 
L 632.114357 387.987626 
L 635.138331 387.431839 
L 642.079787 387.431839 
L 643.598225 386.876052 
L 644.934251 386.876052 
L 645.18711 386.320266 
L 648.298224 386.320266 
L 648.823755 385.764479 
L 649.516871 385.764479 
L 650.416523 385.208692 
L 652.57298 385.208692 
L 652.969207 384.652906 
L 653.234633 384.652906 
L 654.20094 384.097119 
L 663.536576 384.097119 
L 663.562688 382.429759 
L 671.708541 382.429759 
L 675.162804 381.873972 
L 675.165617 381.318186 
L 679.216132 381.318186 
L 679.386162 380.762399 
L 679.38867 380.206612 
L 681.283339 380.206612 
L 682.108541 379.650826 
L 682.698861 379.650826 
L 683.609949 379.095039 
L 684.58766 379.095039 
L 684.75662 377.983466 
L 685.572343 377.983466 
L 685.734913 377.427679 
L 687.570449 377.427679 
L 687.638113 376.871892 
L 690.531286 376.871892 
L 692.627264 376.316106 
L 693.314753 376.316106 
L 693.989646 375.760319 
L 695.383795 375.204532 
L 695.389757 374.648746 
L 695.774213 372.981386 
L 696.125525 372.425599 
L 696.643749 371.869812 
L 698.032547 371.869812 
L 698.874779 370.202452 
L 700.88854 370.202452 
L 701.433792 368.535092 
L 703.649657 368.535092 
L 703.884293 367.979306 
L 705.490331 367.979306 
L 705.83935 366.867732 
L 706.444102 366.311946 
L 708.524089 366.311946 
L 712.128722 365.200372 
L 714.43983 364.644586 
L 714.596835 364.088799 
L 716.782828 364.088799 
L 716.92268 363.533012 
L 719.322609 363.533012 
L 719.333647 362.977226 
L 719.783534 362.977226 
L 719.88214 362.421439 
L 726.700682 362.421439 
L 726.858268 361.865652 
L 729.006653 361.309866 
L 732.539953 361.309866 
L 732.550074 360.754079 
L 745.512725 360.754079 
L 746.472947 358.530932 
L 751.792527 358.530932 
L 751.800385 357.419359 
L 758.568203 357.419359 
L 759.806387 355.751999 
L 759.809016 355.196212 
L 764.593037 355.196212 
L 766.202682 354.084639 
L 766.274718 353.528852 
L 796.350547 353.528852 
L 797.549747 352.973066 
L 800.710822 352.973066 
L 801.040487 351.861492 
L 812.012614 351.861492 
L 812.012614 351.861492 
" clip-path="url(#p09f82b6031)" style="fill: none; stroke: #bf8700; stroke-width: 2; stroke-linecap: square"/>
   </g>
   <g id="line2d_40">
    <path d="M 85.239886 454.682026 
L 85.457033 454.682026 
L 85.553193 432.450559 
L 86.055731 426.892692 
L 86.342896 425.781119 
L 86.488588 426.336906 
L 86.754472 425.781119 
L 87.204146 425.225332 
L 87.788351 423.002186 
L 88.040385 421.334826 
L 88.3717 421.334826 
L 88.822505 420.779039 
L 88.825838 420.223252 
L 89.188799 419.667466 
L 89.288873 419.111679 
L 89.343022 419.111679 
L 90.270926 418.000106 
L 90.362927 411.886452 
L 90.426555 412.442239 
L 90.718245 405.217012 
L 90.84495 402.993866 
L 93.0303 402.993866 
L 93.232343 399.659146 
L 93.285514 402.438079 
L 93.53186 397.991786 
L 93.653856 397.435999 
L 94.562773 396.880212 
L 94.720023 395.768639 
L 94.971873 395.768639 
L 95.439952 395.212852 
L 95.689999 394.657066 
L 95.80325 393.545492 
L 95.872137 392.989706 
L 96.105733 392.433919 
L 96.111512 391.878132 
L 96.346454 392.433919 
L 96.413322 391.878132 
L 96.421547 392.433919 
L 96.431392 390.766559 
L 98.609405 390.766559 
L 101.962677 402.993866 
L 102.461608 390.210772 
L 102.825914 389.654986 
L 104.128245 389.654986 
L 104.366459 389.099199 
L 104.876244 388.543412 
L 105.966259 402.993866 
L 106.03698 387.987626 
L 106.873402 387.431839 
L 108.662097 386.876052 
L 108.789658 387.431839 
L 109.050222 385.764479 
L 109.624399 385.764479 
L 109.798862 385.208692 
L 110.128374 384.652906 
L 110.155709 383.541332 
L 110.459659 382.429759 
L 110.477271 382.985546 
L 110.658064 382.985546 
L 110.757189 381.873972 
L 111.062332 379.650826 
L 111.102447 378.539252 
L 111.493936 376.871892 
L 111.685277 377.983466 
L 113.03818 374.648746 
L 113.394415 375.760319 
L 114.860447 373.537172 
L 116.021856 377.427679 
L 116.429457 373.537172 
L 118.103433 371.869812 
L 120.57179 371.869812 
L 120.897786 371.314026 
L 121.157219 369.646666 
L 121.88623 371.314026 
L 124.859877 371.869812 
L 125.59754 369.646666 
L 125.95509 367.979306 
L 126.566293 369.646666 
L 127.948274 367.979306 
L 132.642096 367.979306 
L 137.577679 367.423519 
L 137.906824 366.867732 
L 141.0228 366.311946 
L 143.08322 366.311946 
L 143.466758 365.756159 
L 143.550199 366.311946 
L 145.742154 364.644586 
L 147.798139 364.644586 
L 147.845868 364.088799 
L 148.965113 363.533012 
L 151.66514 363.533012 
L 152.856177 359.642506 
L 153.742651 359.086719 
L 154.88333 358.530932 
L 154.905467 357.975146 
L 159.180681 357.975146 
L 159.263265 354.084639 
L 159.421493 354.084639 
L 159.561254 352.973066 
L 161.135279 352.973066 
L 161.611124 352.417279 
L 163.924403 352.417279 
L 167.137701 351.861492 
L 167.298405 363.533012 
L 167.306294 352.417279 
L 167.512097 351.861492 
L 168.657301 351.861492 
L 170.395149 351.305706 
L 172.146451 351.305706 
L 173.537604 350.749919 
L 177.372347 349.638346 
L 179.582128 349.638346 
L 181.358073 349.082559 
L 181.634414 346.303626 
L 181.821444 346.303626 
L 182.152393 345.747839 
L 183.878653 345.192052 
L 184.277693 342.968906 
L 186.663527 341.857332 
L 186.692268 342.413119 
L 186.917059 341.857332 
L 189.976746 340.745759 
L 192.27229 340.189972 
L 193.369063 340.189972 
L 194.341179 339.634186 
L 195.183625 338.522612 
L 196.077162 337.966826 
L 196.400375 337.411039 
L 198.508462 337.966826 
L 200.456944 336.855252 
L 200.68308 337.411039 
L 201.200937 337.411039 
L 201.304863 336.855252 
L 202.692897 336.299466 
L 203.569251 336.855252 
L 205.176022 335.743679 
L 206.224699 335.743679 
L 208.461845 335.187892 
L 208.832817 335.743679 
L 209.224 334.076319 
L 210.581397 334.076319 
L 210.849972 333.520532 
L 212.018811 331.297386 
L 212.349056 330.185812 
L 213.206637 330.741599 
L 213.584427 329.630026 
L 213.622219 329.074239 
L 216.659341 329.074239 
L 218.197562 328.518452 
L 218.591954 327.962666 
L 220.978675 327.962666 
L 222.658063 327.406879 
L 225.510478 327.406879 
L 226.218545 326.851092 
L 234.062191 326.851092 
L 234.512659 326.295306 
L 234.557788 325.739519 
L 234.862809 325.183732 
L 238.26702 325.183732 
L 238.479183 324.627946 
L 239.345294 324.072159 
L 239.495298 323.516372 
L 240.930265 322.960586 
L 241.973959 322.404799 
L 246.155551 322.404799 
L 247.135586 321.293226 
L 251.434496 321.293226 
L 252.391875 320.737439 
L 256.3983 320.737439 
L 256.797402 320.181652 
L 257.791441 319.625866 
L 258.08735 319.070079 
L 258.187821 318.514292 
L 261.165596 317.958506 
L 261.534703 318.514292 
L 265.454752 317.402719 
L 268.554156 316.291146 
L 268.973927 315.735359 
L 274.853283 315.735359 
L 275.614612 315.179572 
L 281.094682 315.179572 
L 286.256799 314.623786 
L 286.906099 314.067999 
L 289.072524 313.512212 
L 291.245063 312.956426 
L 291.579437 312.400639 
L 296.454021 312.400639 
L 297.939377 311.844852 
L 309.149137 311.844852 
L 310.529222 311.289066 
L 319.788787 311.289066 
L 320.293618 310.733279 
L 320.831624 311.289066 
L 323.24097 310.733279 
L 331.3494 310.733279 
L 332.43599 310.177492 
L 349.589039 310.177492 
L 349.614356 309.621706 
L 360.208081 309.621706 
L 362.535577 309.065919 
L 362.541539 308.510132 
L 374.177245 308.510132 
L 374.182413 307.398559 
L 381.07082 307.398559 
L 384.227797 306.842772 
L 388.138674 306.842772 
L 391.745998 305.731199 
L 399.012226 305.731199 
L 399.439396 305.175412 
L 399.496022 304.619626 
L 402.242982 304.619626 
L 402.257659 304.063839 
L 402.542897 304.063839 
L 402.997585 303.508052 
L 407.073569 303.508052 
L 407.228251 302.952266 
L 412.670469 302.952266 
L 412.893395 302.396479 
L 426.184181 302.396479 
L 426.890811 300.729119 
L 426.89182 300.173332 
L 428.774779 300.173332 
L 428.779274 299.617546 
L 434.333337 299.617546 
L 434.456556 299.061759 
L 437.115368 299.061759 
L 437.210886 298.505972 
L 447.088228 298.505972 
L 447.278163 297.950186 
L 449.570833 297.950186 
L 449.651491 297.394399 
L 450.373836 296.838612 
L 468.509825 296.838612 
L 469.454423 295.727039 
L 470.868355 295.727039 
L 471.156498 295.171252 
L 472.570522 295.171252 
L 472.780086 294.615466 
L 476.120975 294.615466 
L 476.160907 294.059679 
L 494.651112 294.059679 
L 494.732932 292.948106 
L 517.844955 292.948106 
L 518.445212 292.392319 
L 557.906394 292.392319 
L 559.760398 291.836532 
L 576.436989 291.836532 
L 576.526698 291.280746 
L 583.992767 291.280746 
L 584.355667 290.724959 
L 732.123332 290.724959 
L 732.550074 290.169172 
L 751.31182 290.169172 
L 751.800385 289.613386 
L 758.568203 289.613386 
L 759.794432 289.057599 
L 759.809016 285.167092 
L 766.199105 285.167092 
L 766.274718 282.388159 
L 812.012614 282.388159 
L 812.012614 282.388159 
" clip-path="url(#p09f82b6031)" style="fill: none; stroke: #cf222e; stroke-width: 2; stroke-linecap: square"/>
   </g>
   <g id="line2d_41">
    <path d="M 85.239886 454.682026 
L 85.257162 454.126239 
L 85.393363 -1 
M 85.515779 -1 
L 85.650545 101.201706 
L 87.778628 101.201706 
L 87.788351 97.866986 
L 90.362927 97.866986 
L 90.529625 98.422772 
L 90.84495 98.422772 
L 91.134622 98.978559 
L 92.929554 99.534346 
L 92.964991 98.978559 
L 93.0303 99.534346 
L 98.609405 99.534346 
L 101.962677 98.422772 
L 102.461608 99.534346 
L 102.825914 98.978559 
L 103.744095 99.534346 
L 104.128245 96.755412 
L 104.876244 96.755412 
L 105.966259 98.422772 
L 106.03698 95.643839 
L 106.873402 96.199626 
L 109.050222 96.199626 
L 109.624399 95.088052 
L 110.477271 95.088052 
L 110.757189 91.197546 
L 116.021856 91.197546 
L 116.429457 86.751252 
L 118.103433 86.751252 
L 120.57179 82.860746 
L 121.866631 82.860746 
L 121.88623 83.416532 
L 124.859877 83.416532 
L 125.59754 80.081812 
L 127.932069 80.081812 
L 127.948274 80.637599 
L 141.0228 80.637599 
L 143.466758 81.193386 
L 143.550199 80.637599 
L 146.084904 81.193386 
L 154.905467 81.193386 
L 159.180681 81.749172 
L 159.263265 74.523946 
L 159.466347 75.079732 
L 161.87814 75.079732 
L 162.904619 75.635519 
L 167.137701 75.635519 
L 167.298405 80.637599 
L 167.306294 71.745012 
L 167.512097 71.745012 
L 168.534051 73.968159 
L 173.537604 73.968159 
L 177.372347 70.077652 
L 181.634414 70.077652 
L 181.821444 68.410292 
L 192.896397 68.410292 
L 193.369063 68.966079 
L 196.058205 68.966079 
L 196.077162 70.077652 
L 201.200937 70.077652 
L 201.304863 73.412372 
L 209.224 73.412372 
L 209.413139 68.410292 
L 210.578615 67.298719 
L 210.581397 67.854506 
L 210.849972 67.854506 
L 211.806862 65.075572 
L 213.206637 65.075572 
L 213.584427 65.631359 
L 213.622219 65.075572 
L 214.487321 65.631359 
L 214.491265 66.187146 
L 214.511475 65.631359 
L 215.011201 63.408212 
L 219.563367 63.408212 
L 220.978675 63.963999 
L 222.658063 63.963999 
L 225.510478 64.519786 
L 228.210812 64.519786 
L 230.297098 65.631359 
L 234.557788 65.075572 
L 234.862809 65.075572 
L 237.518716 66.187146 
L 238.26702 65.631359 
L 241.973959 65.631359 
L 246.153288 67.854506 
L 246.155551 67.298719 
L 252.391875 67.298719 
L 254.325987 67.854506 
L 288.794165 67.854506 
L 289.072524 68.410292 
L 291.229562 68.410292 
L 291.245063 66.742932 
L 301.64228 66.742932 
L 301.852303 67.298719 
L 323.24097 67.298719 
L 327.950692 67.854506 
L 327.977935 67.298719 
L 331.3494 68.966079 
L 332.43599 68.966079 
L 333.465619 68.410292 
L 336.297213 68.410292 
L 338.998891 68.966079 
L 339.003325 69.521866 
L 346.663609 67.854506 
L 347.390908 68.410292 
L 356.824845 68.410292 
L 357.226331 67.854506 
L 357.961793 68.410292 
L 358.21453 70.633439 
L 362.537809 70.633439 
L 362.541539 71.189226 
L 375.770686 71.189226 
L 376.541065 71.745012 
L 379.083476 71.745012 
L 379.331504 72.300799 
L 391.729151 72.300799 
L 391.745998 72.856586 
L 393.926793 72.856586 
L 394.846839 73.412372 
L 394.851456 73.968159 
L 395.603888 73.412372 
L 395.643177 73.968159 
L 396.811618 73.968159 
L 396.995193 74.523946 
L 399.439396 74.523946 
L 399.496022 73.412372 
L 399.876166 74.523946 
L 401.252888 72.856586 
L 404.582036 72.856586 
L 404.827832 71.189226 
L 405.944173 71.189226 
L 406.492055 72.300799 
L 409.31527 72.300799 
L 410.241646 72.856586 
L 410.466651 72.856586 
L 411.337348 70.077652 
L 412.893395 70.077652 
L 413.248804 70.633439 
L 420.45119 70.633439 
L 420.62865 71.189226 
L 421.294798 71.189226 
L 422.329013 71.745012 
L 433.978387 71.745012 
L 434.083046 72.300799 
L 434.456556 72.300799 
L 435.236292 73.412372 
L 436.329487 73.412372 
L 436.592344 72.856586 
L 436.845601 72.856586 
L 436.941699 73.412372 
L 439.865203 73.412372 
L 440.36291 73.968159 
L 442.907584 73.968159 
L 443.070734 74.523946 
L 444.464608 74.523946 
L 444.553919 75.079732 
L 448.885759 75.079732 
L 448.978892 75.635519 
L 451.505281 75.635519 
L 452.349103 77.858666 
L 453.284651 77.858666 
L 453.285629 78.414452 
L 457.084325 78.414452 
L 457.780742 78.970239 
L 460.689356 78.970239 
L 461.262248 79.526026 
L 463.467411 79.526026 
L 463.632672 80.081812 
L 467.218837 80.081812 
L 468.143225 80.637599 
L 468.210552 81.193386 
L 468.509825 81.193386 
L 469.454423 60.629279 
L 472.383889 60.629279 
L 472.404986 61.185066 
L 472.570522 61.185066 
L 472.780086 60.629279 
L 475.192979 60.629279 
L 475.458649 61.185066 
L 475.775595 61.185066 
L 476.094405 61.740852 
L 476.160907 61.185066 
L 477.460303 61.185066 
L 477.470454 61.740852 
L 477.752115 61.740852 
L 477.875456 62.296639 
L 478.727717 62.852426 
L 484.6574 62.852426 
L 485.584203 63.408212 
L 486.20461 63.408212 
L 486.707943 63.963999 
L 487.217116 63.408212 
L 489.313584 63.408212 
L 489.403996 64.519786 
L 492.41363 64.519786 
L 493.581368 66.187146 
L 506.256335 66.187146 
L 506.992989 66.742932 
L 526.557494 66.742932 
L 526.677686 67.298719 
L 555.425684 67.298719 
L 555.552328 67.854506 
L 555.561409 68.410292 
L 555.570428 67.854506 
L 559.760398 67.854506 
L 560.706434 68.410292 
L 577.213484 68.410292 
L 580.924489 68.966079 
L 581.797999 69.521866 
L 581.805307 67.854506 
L 608.298028 67.854506 
L 608.555168 68.410292 
L 632.114357 68.410292 
L 635.138331 68.966079 
L 636.988055 68.966079 
L 637.188783 69.521866 
L 638.47442 70.077652 
L 642.079787 70.077652 
L 643.598225 70.633439 
L 645.18711 70.633439 
L 645.310849 71.189226 
L 647.924256 71.189226 
L 648.236431 71.745012 
L 648.298224 72.300799 
L 652.951168 72.300799 
L 652.969207 72.856586 
L 656.287501 72.856586 
L 656.930962 72.300799 
L 656.939706 72.856586 
L 658.28203 73.412372 
L 660.665021 73.412372 
L 662.379876 73.968159 
L 663.91455 73.968159 
L 666.176462 61.740852 
L 668.817203 61.740852 
L 668.829434 64.519786 
L 682.107165 64.519786 
L 682.108541 65.075572 
L 682.338193 65.631359 
L 683.609949 65.631359 
L 683.886565 66.187146 
L 688.058006 66.187146 
L 689.022325 66.742932 
L 689.180981 66.187146 
L 696.642067 66.187146 
L 696.643749 66.742932 
L 708.443401 66.742932 
L 708.524089 67.854506 
L 710.232218 69.521866 
L 711.946156 69.521866 
L 712.128722 70.077652 
L 719.333647 70.077652 
L 719.46613 70.633439 
L 726.700682 70.633439 
L 726.858268 71.189226 
L 728.852155 72.856586 
L 729.006653 73.412372 
L 748.648544 73.412372 
L 750.508175 76.191306 
L 754.945469 76.191306 
L 755.234499 76.747092 
L 758.568203 76.747092 
L 759.809016 77.858666 
L 777.380398 77.858666 
L 777.603171 78.414452 
L 780.175424 78.414452 
L 780.45097 78.970239 
L 797.3958 78.970239 
L 797.404483 80.637599 
L 797.930778 80.637599 
L 798.019753 81.193386 
L 801.040487 81.193386 
L 801.46573 81.749172 
L 801.468268 81.193386 
L 809.122407 81.193386 
L 810.96889 81.749172 
L 812.012614 81.749172 
L 812.012614 81.749172 
" clip-path="url(#p09f82b6031)" style="fill: none; stroke: #9467bd; stroke-width: 2; stroke-linecap: square"/>
   </g>
   <g id="patch_3">
    <path d="M 48.90125 455.237812 
L 48.90125 38.397812 
" style="fill: none; stroke: #d0d7de; stroke-width: 0.8; stroke-linejoin: miter; stroke-linecap: square"/>
   </g>
   <g id="patch_4">
    <path d="M 848.35125 455.237812 
L 848.35125 38.397812 
" style="fill: none; stroke: #d0d7de; stroke-width: 0.8; stroke-linejoin: miter; stroke-linecap: square"/>
   </g>
   <g id="patch_5">
    <path d="M 48.90125 455.237812 
L 848.35125 455.237812 
" style="fill: none; stroke: #d0d7de; stroke-width: 0.8; stroke-linejoin: miter; stroke-linecap: square"/>
   </g>
   <g id="patch_6">
    <path d="M 48.90125 38.397812 
L 848.35125 38.397812 
" style="fill: none; stroke: #d0d7de; stroke-width: 0.8; stroke-linejoin: miter; stroke-linecap: square"/>
   </g>
   <g id="text_21">
    <!-- 545 -->
    <g style="fill: #1a7f37" transform="translate(817.012614 154.817517) scale(0.09 -0.09)">
     <defs>
      <path id="DejaVuSans-Bold-35" d="M 678 4666 
L 3669 4666 
L 3669 3781 
L 1638 3781 
L 1638 3059 
Q 1775 3097 1914 3117 
Q 2053 3138 2203 3138 
Q 3056 3138 3531 2711 
Q 4006 2284 4006 1522 
Q 4006 766 3489 337 
Q 2972 -91 2053 -91 
Q 1656 -91 1267 -14 
Q 878 63 494 219 
L 494 1166 
Q 875 947 1217 837 
Q 1559 728 1863 728 
Q 2300 728 2551 942 
Q 2803 1156 2803 1522 
Q 2803 1891 2551 2103 
Q 2300 2316 1863 2316 
Q 1603 2316 1309 2248 
Q 1016 2181 678 2041 
L 678 4666 
z
" transform="scale(0.015625)"/>
      <path id="DejaVuSans-Bold-34" d="M 2356 3675 
L 1038 1722 
L 2356 1722 
L 2356 3675 
z
M 2156 4666 
L 3494 4666 
L 3494 1722 
L 4159 1722 
L 4159 850 
L 3494 850 
L 3494 0 
L 2356 0 
L 2356 850 
L 288 850 
L 288 1881 
L 2156 4666 
z
" transform="scale(0.015625)"/>
     </defs>
     <use xlink:href="#DejaVuSans-Bold-35"/>
     <use xlink:href="#DejaVuSans-Bold-34" transform="translate(69.580078 0)"/>
     <use xlink:href="#DejaVuSans-Bold-35" transform="translate(139.160156 0)"/>
    </g>
   </g>
   <g id="text_22">
    <!-- 430 -->
    <g style="fill: #0969da" transform="translate(817.012614 218.732983) scale(0.09 -0.09)">
     <defs>
      <path id="DejaVuSans-Bold-33" d="M 2981 2516 
Q 3453 2394 3698 2092 
Q 3944 1791 3944 1325 
Q 3944 631 3412 270 
Q 2881 -91 1863 -91 
Q 1503 -91 1142 -33 
Q 781 25 428 141 
L 428 1069 
Q 766 900 1098 814 
Q 1431 728 1753 728 
Q 2231 728 2486 893 
Q 2741 1059 2741 1369 
Q 2741 1688 2480 1852 
Q 2219 2016 1709 2016 
L 1228 2016 
L 1228 2791 
L 1734 2791 
Q 2188 2791 2409 2933 
Q 2631 3075 2631 3366 
Q 2631 3634 2415 3781 
Q 2200 3928 1806 3928 
Q 1516 3928 1219 3862 
Q 922 3797 628 3669 
L 628 4550 
Q 984 4650 1334 4700 
Q 1684 4750 2022 4750 
Q 2931 4750 3382 4451 
Q 3834 4153 3834 3553 
Q 3834 3144 3618 2883 
Q 3403 2622 2981 2516 
z
" transform="scale(0.015625)"/>
      <path id="DejaVuSans-Bold-30" d="M 2944 2338 
Q 2944 3213 2780 3570 
Q 2616 3928 2228 3928 
Q 1841 3928 1675 3570 
Q 1509 3213 1509 2338 
Q 1509 1453 1675 1090 
Q 1841 728 2228 728 
Q 2613 728 2778 1090 
Q 2944 1453 2944 2338 
z
M 4147 2328 
Q 4147 1169 3647 539 
Q 3147 -91 2228 -91 
Q 1306 -91 806 539 
Q 306 1169 306 2328 
Q 306 3491 806 4120 
Q 1306 4750 2228 4750 
Q 3147 4750 3647 4120 
Q 4147 3491 4147 2328 
z
" transform="scale(0.015625)"/>
     </defs>
     <use xlink:href="#DejaVuSans-Bold-34"/>
     <use xlink:href="#DejaVuSans-Bold-33" transform="translate(69.580078 0)"/>
     <use xlink:href="#DejaVuSans-Bold-30" transform="translate(139.160156 0)"/>
    </g>
   </g>
   <g id="text_23">
    <!-- 186 -->
    <g style="fill: #bf8700" transform="translate(817.012614 354.34493) scale(0.09 -0.09)">
     <defs>
      <path id="DejaVuSans-Bold-31" d="M 750 831 
L 1813 831 
L 1813 3847 
L 722 3622 
L 722 4441 
L 1806 4666 
L 2950 4666 
L 2950 831 
L 4013 831 
L 4013 0 
L 750 0 
L 750 831 
z
" transform="scale(0.015625)"/>
      <path id="DejaVuSans-Bold-38" d="M 2228 2088 
Q 1891 2088 1709 1903 
Q 1528 1719 1528 1375 
Q 1528 1031 1709 848 
Q 1891 666 2228 666 
Q 2563 666 2741 848 
Q 2919 1031 2919 1375 
Q 2919 1722 2741 1905 
Q 2563 2088 2228 2088 
z
M 1350 2484 
Q 925 2613 709 2878 
Q 494 3144 494 3541 
Q 494 4131 934 4440 
Q 1375 4750 2228 4750 
Q 3075 4750 3515 4442 
Q 3956 4134 3956 3541 
Q 3956 3144 3739 2878 
Q 3522 2613 3097 2484 
Q 3572 2353 3814 2058 
Q 4056 1763 4056 1313 
Q 4056 619 3595 264 
Q 3134 -91 2228 -91 
Q 1319 -91 855 264 
Q 391 619 391 1313 
Q 391 1763 633 2058 
Q 875 2353 1350 2484 
z
M 1631 3419 
Q 1631 3141 1786 2991 
Q 1941 2841 2228 2841 
Q 2509 2841 2662 2991 
Q 2816 3141 2816 3419 
Q 2816 3697 2662 3845 
Q 2509 3994 2228 3994 
Q 1941 3994 1786 3844 
Q 1631 3694 1631 3419 
z
" transform="scale(0.015625)"/>
      <path id="DejaVuSans-Bold-36" d="M 2316 2303 
Q 2000 2303 1842 2098 
Q 1684 1894 1684 1484 
Q 1684 1075 1842 870 
Q 2000 666 2316 666 
Q 2634 666 2792 870 
Q 2950 1075 2950 1484 
Q 2950 1894 2792 2098 
Q 2634 2303 2316 2303 
z
M 3803 4544 
L 3803 3681 
Q 3506 3822 3243 3889 
Q 2981 3956 2731 3956 
Q 2194 3956 1894 3657 
Q 1594 3359 1544 2772 
Q 1750 2925 1990 3001 
Q 2231 3078 2516 3078 
Q 3231 3078 3670 2659 
Q 4109 2241 4109 1563 
Q 4109 813 3618 361 
Q 3128 -91 2303 -91 
Q 1394 -91 895 523 
Q 397 1138 397 2266 
Q 397 3422 980 4083 
Q 1563 4744 2578 4744 
Q 2900 4744 3203 4694 
Q 3506 4644 3803 4544 
z
" transform="scale(0.015625)"/>
     </defs>
     <use xlink:href="#DejaVuSans-Bold-31"/>
     <use xlink:href="#DejaVuSans-Bold-38" transform="translate(69.580078 0)"/>
     <use xlink:href="#DejaVuSans-Bold-36" transform="translate(139.160156 0)"/>
    </g>
   </g>
   <g id="text_24">
    <!-- 311 -->
    <g style="fill: #cf222e" transform="translate(817.012614 284.871597) scale(0.09 -0.09)">
     <use xlink:href="#DejaVuSans-Bold-33"/>
     <use xlink:href="#DejaVuSans-Bold-31" transform="translate(69.580078 0)"/>
     <use xlink:href="#DejaVuSans-Bold-31" transform="translate(139.160156 0)"/>
    </g>
   </g>
   <g id="text_25">
    <!-- 672 -->
    <g style="fill: #9467bd" transform="translate(817.012614 84.23261) scale(0.09 -0.09)">
     <defs>
      <path id="DejaVuSans-Bold-37" d="M 428 4666 
L 3944 4666 
L 3944 3988 
L 2125 0 
L 953 0 
L 2675 3781 
L 428 3781 
L 428 4666 
z
" transform="scale(0.015625)"/>
      <path id="DejaVuSans-Bold-32" d="M 1844 884 
L 3897 884 
L 3897 0 
L 506 0 
L 506 884 
L 2209 2388 
Q 2438 2594 2547 2791 
Q 2656 2988 2656 3200 
Q 2656 3528 2436 3728 
Q 2216 3928 1850 3928 
Q 1569 3928 1234 3808 
Q 900 3688 519 3450 
L 519 4475 
Q 925 4609 1322 4679 
Q 1719 4750 2100 4750 
Q 2938 4750 3402 4381 
Q 3866 4013 3866 3353 
Q 3866 2972 3669 2642 
Q 3472 2313 2841 1759 
L 1844 884 
z
" transform="scale(0.015625)"/>
     </defs>
     <use xlink:href="#DejaVuSans-Bold-36"/>
     <use xlink:href="#DejaVuSans-Bold-37" transform="translate(69.580078 0)"/>
     <use xlink:href="#DejaVuSans-Bold-32" transform="translate(139.160156 0)"/>
    </g>
   </g>
   <g id="text_26">
    <!-- Erdős Problems Progress -->
    <g style="fill: #24292f" transform="translate(349.588281 18.397812) scale(0.14 -0.14)">
     <defs>
      <path id="DejaVuSans-Bold-45" d="M 588 4666 
L 3834 4666 
L 3834 3756 
L 1791 3756 
L 1791 2888 
L 3713 2888 
L 3713 1978 
L 1791 1978 
L 1791 909 
L 3903 909 
L 3903 0 
L 588 0 
L 588 4666 
z
" transform="scale(0.015625)"/>
      <path id="DejaVuSans-Bold-72" d="M 3138 2547 
Q 2991 2616 2845 2648 
Q 2700 2681 2553 2681 
Q 2122 2681 1889 2404 
Q 1656 2128 1656 1613 
L 1656 0 
L 538 0 
L 538 3500 
L 1656 3500 
L 1656 2925 
Q 1872 3269 2151 3426 
Q 2431 3584 2822 3584 
Q 2878 3584 2943 3579 
Q 3009 3575 3134 3559 
L 3138 2547 
z
" transform="scale(0.015625)"/>
      <path id="DejaVuSans-Bold-64" d="M 2919 2988 
L 2919 4863 
L 4044 4863 
L 4044 0 
L 2919 0 
L 2919 506 
Q 2688 197 2409 53 
Q 2131 -91 1766 -91 
Q 1119 -91 703 423 
Q 288 938 288 1747 
Q 288 2556 703 3070 
Q 1119 3584 1766 3584 
Q 2128 3584 2408 3439 
Q 2688 3294 2919 2988 
z
M 2181 722 
Q 2541 722 2730 984 
Q 2919 1247 2919 1747 
Q 2919 2247 2730 2509 
Q 2541 2772 2181 2772 
Q 1825 2772 1636 2509 
Q 1447 2247 1447 1747 
Q 1447 1247 1636 984 
Q 1825 722 2181 722 
z
" transform="scale(0.015625)"/>
      <path id="DejaVuSans-Bold-151" d="M 1881 5119 
L 2560 5119 
L 1785 3944 
L 1275 3944 
L 1881 5119 
z
M 3016 5119 
L 3738 5119 
L 2888 3944 
L 2344 3944 
L 3016 5119 
z
M 2203 2784 
Q 1831 2784 1636 2517 
Q 1441 2250 1441 1747 
Q 1441 1244 1636 976 
Q 1831 709 2203 709 
Q 2569 709 2762 976 
Q 2956 1244 2956 1747 
Q 2956 2250 2762 2517 
Q 2569 2784 2203 2784 
z
M 2203 3584 
Q 3106 3584 3614 3096 
Q 4122 2609 4122 1747 
Q 4122 884 3614 396 
Q 3106 -91 2203 -91 
Q 1297 -91 786 396 
Q 275 884 275 1747 
Q 275 2609 786 3096 
Q 1297 3584 2203 3584 
z
" transform="scale(0.015625)"/>
      <path id="DejaVuSans-Bold-73" d="M 3272 3391 
L 3272 2541 
Q 2913 2691 2578 2766 
Q 2244 2841 1947 2841 
Q 1628 2841 1473 2761 
Q 1319 2681 1319 2516 
Q 1319 2381 1436 2309 
Q 1553 2238 1856 2203 
L 2053 2175 
Q 2913 2066 3209 1816 
Q 3506 1566 3506 1031 
Q 3506 472 3093 190 
Q 2681 -91 1863 -91 
Q 1516 -91 1145 -36 
Q 775 19 384 128 
L 384 978 
Q 719 816 1070 734 
Q 1422 653 1784 653 
Q 2113 653 2278 743 
Q 2444 834 2444 1013 
Q 2444 1163 2330 1236 
Q 2216 1309 1875 1350 
L 1678 1375 
Q 931 1469 631 1722 
Q 331 1975 331 2491 
Q 331 3047 712 3315 
Q 1094 3584 1881 3584 
Q 2191 3584 2531 3537 
Q 2872 3491 3272 3391 
z
" transform="scale(0.015625)"/>
      <path id="DejaVuSans-Bold-20" transform="scale(0.015625)"/>
      <path id="DejaVuSans-Bold-50" d="M 588 4666 
L 2584 4666 
Q 3475 4666 3951 4270 
Q 4428 3875 4428 3144 
Q 4428 2409 3951 2014 
Q 3475 1619 2584 1619 
L 1791 1619 
L 1791 0 
L 588 0 
L 588 4666 
z
M 1791 3794 
L 1791 2491 
L 2456 2491 
Q 2806 2491 2997 2661 
Q 3188 2831 3188 3144 
Q 3188 3456 2997 3625 
Q 2806 3794 2456 3794 
L 1791 3794 
z
" transform="scale(0.015625)"/>
      <path id="DejaVuSans-Bold-6f" d="M 2203 2784 
Q 1831 2784 1636 2517 
Q 1441 2250 1441 1747 
Q 1441 1244 1636 976 
Q 1831 709 2203 709 
Q 2569 709 2762 976 
Q 2956 1244 2956 1747 
Q 2956 2250 2762 2517 
Q 2569 2784 2203 2784 
z
M 2203 3584 
Q 3106 3584 3614 3096 
Q 4122 2609 4122 1747 
Q 4122 884 3614 396 
Q 3106 -91 2203 -91 
Q 1297 -91 786 396 
Q 275 884 275 1747 
Q 275 2609 786 3096 
Q 1297 3584 2203 3584 
z
" transform="scale(0.015625)"/>
      <path id="DejaVuSans-Bold-62" d="M 2400 722 
Q 2759 722 2948 984 
Q 3138 1247 3138 1747 
Q 3138 2247 2948 2509 
Q 2759 2772 2400 2772 
Q 2041 2772 1848 2508 
Q 1656 2244 1656 1747 
Q 1656 1250 1848 986 
Q 2041 722 2400 722 
z
M 1656 2988 
Q 1888 3294 2169 3439 
Q 2450 3584 2816 3584 
Q 3463 3584 3878 3070 
Q 4294 2556 4294 1747 
Q 4294 938 3878 423 
Q 3463 -91 2816 -91 
Q 2450 -91 2169 54 
Q 1888 200 1656 506 
L 1656 0 
L 538 0 
L 538 4863 
L 1656 4863 
L 1656 2988 
z
" transform="scale(0.015625)"/>
      <path id="DejaVuSans-Bold-6c" d="M 538 4863 
L 1656 4863 
L 1656 0 
L 538 0 
L 538 4863 
z
" transform="scale(0.015625)"/>
      <path id="DejaVuSans-Bold-65" d="M 4031 1759 
L 4031 1441 
L 1416 1441 
Q 1456 1047 1700 850 
Q 1944 653 2381 653 
Q 2734 653 3104 758 
Q 3475 863 3866 1075 
L 3866 213 
Q 3469 63 3072 -14 
Q 2675 -91 2278 -91 
Q 1328 -91 801 392 
Q 275 875 275 1747 
Q 275 2603 792 3093 
Q 1309 3584 2216 3584 
Q 3041 3584 3536 3087 
Q 4031 2591 4031 1759 
z
M 2881 2131 
Q 2881 2450 2695 2645 
Q 2509 2841 2209 2841 
Q 1884 2841 1681 2658 
Q 1478 2475 1428 2131 
L 2881 2131 
z
" transform="scale(0.015625)"/>
      <path id="DejaVuSans-Bold-6d" d="M 3781 2919 
Q 3994 3244 4286 3414 
Q 4578 3584 4928 3584 
Q 5531 3584 5847 3212 
Q 6163 2841 6163 2131 
L 6163 0 
L 5038 0 
L 5038 1825 
Q 5041 1866 5042 1909 
Q 5044 1953 5044 2034 
Q 5044 2406 4934 2573 
Q 4825 2741 4581 2741 
Q 4263 2741 4089 2478 
Q 3916 2216 3909 1719 
L 3909 0 
L 2784 0 
L 2784 1825 
Q 2784 2406 2684 2573 
Q 2584 2741 2328 2741 
Q 2006 2741 1831 2477 
Q 1656 2213 1656 1722 
L 1656 0 
L 531 0 
L 531 3500 
L 1656 3500 
L 1656 2988 
Q 1863 3284 2130 3434 
Q 2397 3584 2719 3584 
Q 3081 3584 3359 3409 
Q 3638 3234 3781 2919 
z
" transform="scale(0.015625)"/>
      <path id="DejaVuSans-Bold-67" d="M 2919 594 
Q 2688 288 2409 144 
Q 2131 0 1766 0 
Q 1125 0 706 504 
Q 288 1009 288 1791 
Q 288 2575 706 3076 
Q 1125 3578 1766 3578 
Q 2131 3578 2409 3434 
Q 2688 3291 2919 2981 
L 2919 3500 
L 4044 3500 
L 4044 353 
Q 4044 -491 3511 -936 
Q 2978 -1381 1966 -1381 
Q 1638 -1381 1331 -1331 
Q 1025 -1281 716 -1178 
L 716 -306 
Q 1009 -475 1290 -558 
Q 1572 -641 1856 -641 
Q 2406 -641 2662 -400 
Q 2919 -159 2919 353 
L 2919 594 
z
M 2181 2772 
Q 1834 2772 1640 2515 
Q 1447 2259 1447 1791 
Q 1447 1309 1634 1061 
Q 1822 813 2181 813 
Q 2531 813 2725 1069 
Q 2919 1325 2919 1791 
Q 2919 2259 2725 2515 
Q 2531 2772 2181 2772 
z
" transform="scale(0.015625)"/>
     </defs>
     <use xlink:href="#DejaVuSans-Bold-45"/>
     <use xlink:href="#DejaVuSans-Bold-72" transform="translate(68.310547 0)"/>
     <use xlink:href="#DejaVuSans-Bold-64" transform="translate(117.626953 0)"/>
     <use xlink:href="#DejaVuSans-Bold-151" transform="translate(189.208984 0)"/>
     <use xlink:href="#DejaVuSans-Bold-73" transform="translate(257.910156 0)"/>
     <use xlink:href="#DejaVuSans-Bold-20" transform="translate(317.431641 0)"/>
     <use xlink:href="#DejaVuSans-Bold-50" transform="translate(352.246094 0)"/>
     <use xlink:href="#DejaVuSans-Bold-72" transform="translate(425.537109 0)"/>
     <use xlink:href="#DejaVuSans-Bold-6f" transform="translate(474.853516 0)"/>
     <use xlink:href="#DejaVuSans-Bold-62" transform="translate(543.554688 0)"/>
     <use xlink:href="#DejaVuSans-Bold-6c" transform="translate(615.136719 0)"/>
     <use xlink:href="#DejaVuSans-Bold-65" transform="translate(649.414062 0)"/>
     <use xlink:href="#DejaVuSans-Bold-6d" transform="translate(717.236328 0)"/>
     <use xlink:href="#DejaVuSans-Bold-73" transform="translate(821.435547 0)"/>
     <use xlink:href="#DejaVuSans-Bold-20" transform="translate(880.957031 0)"/>
     <use xlink:href="#DejaVuSans-Bold-50" transform="translate(915.771484 0)"/>
     <use xlink:href="#DejaVuSans-Bold-72" transform="translate(989.0625 0)"/>
     <use xlink:href="#DejaVuSans-Bold-6f" transform="translate(1038.378906 0)"/>
     <use xlink:href="#DejaVuSans-Bold-67" transform="translate(1107.080078 0)"/>
     <use xlink:href="#DejaVuSans-Bold-72" transform="translate(1178.662109 0)"/>
     <use xlink:href="#DejaVuSans-Bold-65" transform="translate(1227.978516 0)"/>
     <use xlink:href="#DejaVuSans-Bold-73" transform="translate(1295.800781 0)"/>
     <use xlink:href="#DejaVuSans-Bold-73" transform="translate(1355.322266 0)"/>
    </g>
   </g>
   <g id="legend_1">
    <g id="patch_7">
     <path d="M 55.90125 119.788437 
L 213.771563 119.788437 
Q 215.771563 119.788437 215.771563 117.788437 
L 215.771563 45.397812 
Q 215.771563 43.397812 213.771563 43.397812 
L 55.90125 43.397812 
Q 53.90125 43.397812 53.90125 45.397812 
L 53.90125 117.788437 
Q 53.90125 119.788437 55.90125 119.788437 
z
" style="fill: #f6f8fa; opacity: 0.8; stroke: #d0d7de; stroke-linejoin: miter"/>
    </g>
    <g id="line2d_42">
     <path d="M 57.90125 51.49625 
L 67.90125 51.49625 
L 77.90125 51.49625 
" style="fill: none; stroke: #1a7f37; stroke-width: 2; stroke-linecap: square"/>
    </g>
    <g id="text_27">
     <!-- Solved -->
     <g style="fill: #24292f" transform="translate(85.90125 54.99625) scale(0.1 -0.1)">
      <defs>
       <path id="DejaVuSans-6c" d="M 603 4863 
L 1178 4863 
L 1178 0 
L 603 0 
L 603 4863 
z
" transform="scale(0.015625)"/>
       <path id="DejaVuSans-64" d="M 2906 2969 
L 2906 4863 
L 3481 4863 
L 3481 0 
L 2906 0 
L 2906 525 
Q 2725 213 2448 61 
Q 2172 -91 1784 -91 
Q 1150 -91 751 415 
Q 353 922 353 1747 
Q 353 2572 751 3078 
Q 1150 3584 1784 3584 
Q 2172 3584 2448 3432 
Q 2725 3281 2906 2969 
z
M 947 1747 
Q 947 1113 1208 752 
Q 1469 391 1925 391 
Q 2381 391 2643 752 
Q 2906 1113 2906 1747 
Q 2906 2381 2643 2742 
Q 2381 3103 1925 3103 
Q 1469 3103 1208 2742 
Q 947 2381 947 1747 
z
" transform="scale(0.015625)"/>
      </defs>
      <use xlink:href="#DejaVuSans-53"/>
      <use xlink:href="#DejaVuSans-6f" transform="translate(63.476562 0)"/>
      <use xlink:href="#DejaVuSans-6c" transform="translate(124.658203 0)"/>
      <use xlink:href="#DejaVuSans-76" transform="translate(152.441406 0)"/>
      <use xlink:href="#DejaVuSans-65" transform="translate(211.621094 0)"/>
      <use xlink:href="#DejaVuSans-64" transform="translate(273.144531 0)"/>
     </g>
    </g>
    <g id="line2d_43">
     <path d="M 57.90125 66.174375 
L 67.90125 66.174375 
L 77.90125 66.174375 
" style="fill: none; stroke: #0969da; stroke-width: 2; stroke-linecap: square"/>
    </g>
    <g id="text_28">
     <!-- Lean Formalized Problem -->
     <g style="fill: #24292f" transform="translate(85.90125 69.674375) scale(0.1 -0.1)">
      <defs>
       <path id="DejaVuSans-4c" d="M 628 4666 
L 1259 4666 
L 1259 531 
L 3531 531 
L 3531 0 
L 628 0 
L 628 4666 
z
" transform="scale(0.015625)"/>
       <path id="DejaVuSans-20" transform="scale(0.015625)"/>
       <path id="DejaVuSans-6d" d="M 3328 2828 
Q 3544 3216 3844 3400 
Q 4144 3584 4550 3584 
Q 5097 3584 5394 3201 
Q 5691 2819 5691 2113 
L 5691 0 
L 5113 0 
L 5113 2094 
Q 5113 2597 4934 2840 
Q 4756 3084 4391 3084 
Q 3944 3084 3684 2787 
Q 3425 2491 3425 1978 
L 3425 0 
L 2847 0 
L 2847 2094 
Q 2847 2600 2669 2842 
Q 2491 3084 2119 3084 
Q 1678 3084 1418 2786 
Q 1159 2488 1159 1978 
L 1159 0 
L 581 0 
L 581 3500 
L 1159 3500 
L 1159 2956 
Q 1356 3278 1631 3431 
Q 1906 3584 2284 3584 
Q 2666 3584 2933 3390 
Q 3200 3197 3328 2828 
z
" transform="scale(0.015625)"/>
       <path id="DejaVuSans-69" d="M 603 3500 
L 1178 3500 
L 1178 0 
L 603 0 
L 603 3500 
z
M 603 4863 
L 1178 4863 
L 1178 4134 
L 603 4134 
L 603 4863 
z
" transform="scale(0.015625)"/>
       <path id="DejaVuSans-7a" d="M 353 3500 
L 3084 3500 
L 3084 2975 
L 922 459 
L 3084 459 
L 3084 0 
L 275 0 
L 275 525 
L 2438 3041 
L 353 3041 
L 353 3500 
z
" transform="scale(0.015625)"/>
       <path id="DejaVuSans-50" d="M 1259 4147 
L 1259 2394 
L 2053 2394 
Q 2494 2394 2734 2622 
Q 2975 2850 2975 3272 
Q 2975 3691 2734 3919 
Q 2494 4147 2053 4147 
L 1259 4147 
z
M 628 4666 
L 2053 4666 
Q 2838 4666 3239 4311 
Q 3641 3956 3641 3272 
Q 3641 2581 3239 2228 
Q 2838 1875 2053 1875 
L 1259 1875 
L 1259 0 
L 628 0 
L 628 4666 
z
" transform="scale(0.015625)"/>
      </defs>
      <use xlink:href="#DejaVuSans-4c"/>
      <use xlink:href="#DejaVuSans-65" transform="translate(53.962891 0)"/>
      <use xlink:href="#DejaVuSans-61" transform="translate(115.486328 0)"/>
      <use xlink:href="#DejaVuSans-6e" transform="translate(176.765625 0)"/>
      <use xlink:href="#DejaVuSans-20" transform="translate(240.144531 0)"/>
      <use xlink:href="#DejaVuSans-46" transform="translate(271.931641 0)"/>
      <use xlink:href="#DejaVuSans-6f" transform="translate(325.826172 0)"/>
      <use xlink:href="#DejaVuSans-72" transform="translate(387.007812 0)"/>
      <use xlink:href="#DejaVuSans-6d" transform="translate(426.371094 0)"/>
      <use xlink:href="#DejaVuSans-61" transform="translate(523.783203 0)"/>
      <use xlink:href="#DejaVuSans-6c" transform="translate(585.0625 0)"/>
      <use xlink:href="#DejaVuSans-69" transform="translate(612.845703 0)"/>
      <use xlink:href="#DejaVuSans-7a" transform="translate(640.628906 0)"/>
      <use xlink:href="#DejaVuSans-65" transform="translate(693.119141 0)"/>
      <use xlink:href="#DejaVuSans-64" transform="translate(754.642578 0)"/>
      <use xlink:href="#DejaVuSans-20" transform="translate(818.119141 0)"/>
      <use xlink:href="#DejaVuSans-50" transform="translate(849.90625 0)"/>
      <use xlink:href="#DejaVuSans-72" transform="translate(908.458984 0)"/>
      <use xlink:href="#DejaVuSans-6f" transform="translate(947.322266 0)"/>
      <use xlink:href="#DejaVuSans-62" transform="translate(1008.503906 0)"/>
      <use xlink:href="#DejaVuSans-6c" transform="translate(1071.980469 0)"/>
      <use xlink:href="#DejaVuSans-65" transform="translate(1099.763672 0)"/>
      <use xlink:href="#DejaVuSans-6d" transform="translate(1161.287109 0)"/>
     </g>
    </g>
    <g id="line2d_44">
     <path d="M 57.90125 80.8525 
L 67.90125 80.8525 
L 77.90125 80.8525 
" style="fill: none; stroke: #bf8700; stroke-width: 2; stroke-linecap: square"/>
    </g>
    <g id="text_29">
     <!-- Lean Formalized Solution -->
     <g style="fill: #24292f" transform="translate(85.90125 84.3525) scale(0.1 -0.1)">
      <use xlink:href="#DejaVuSans-4c"/>
      <use xlink:href="#DejaVuSans-65" transform="translate(53.962891 0)"/>
      <use xlink:href="#DejaVuSans-61" transform="translate(115.486328 0)"/>
      <use xlink:href="#DejaVuSans-6e" transform="translate(176.765625 0)"/>
      <use xlink:href="#DejaVuSans-20" transform="translate(240.144531 0)"/>
      <use xlink:href="#DejaVuSans-46" transform="translate(271.931641 0)"/>
      <use xlink:href="#DejaVuSans-6f" transform="translate(325.826172 0)"/>
      <use xlink:href="#DejaVuSans-72" transform="translate(387.007812 0)"/>
      <use xlink:href="#DejaVuSans-6d" transform="translate(426.371094 0)"/>
      <use xlink:href="#DejaVuSans-61" transform="translate(523.783203 0)"/>
      <use xlink:href="#DejaVuSans-6c" transform="translate(585.0625 0)"/>
      <use xlink:href="#DejaVuSans-69" transform="translate(612.845703 0)"/>
      <use xlink:href="#DejaVuSans-7a" transform="translate(640.628906 0)"/>
      <use xlink:href="#DejaVuSans-65" transform="translate(693.119141 0)"/>
      <use xlink:href="#DejaVuSans-64" transform="translate(754.642578 0)"/>
      <use xlink:href="#DejaVuSans-20" transform="translate(818.119141 0)"/>
      <use xlink:href="#DejaVuSans-53" transform="translate(849.90625 0)"/>
      <use xlink:href="#DejaVuSans-6f" transform="translate(913.382812 0)"/>
      <use xlink:href="#DejaVuSans-6c" transform="translate(974.564453 0)"/>
      <use xlink:href="#DejaVuSans-75" transform="translate(1002.347656 0)"/>
      <use xlink:href="#DejaVuSans-74" transform="translate(1065.726562 0)"/>
      <use xlink:href="#DejaVuSans-69" transform="translate(1104.935547 0)"/>
      <use xlink:href="#DejaVuSans-6f" transform="translate(1132.71875 0)"/>
      <use xlink:href="#DejaVuSans-6e" transform="translate(1193.900391 0)"/>
     </g>
    </g>
    <g id="line2d_45">
     <path d="M 57.90125 95.530625 
L 67.90125 95.530625 
L 77.90125 95.530625 
" style="fill: none; stroke: #cf222e; stroke-width: 2; stroke-linecap: square"/>
    </g>
    <g id="text_30">
     <!-- OEIS Linked -->
     <g style="fill: #24292f" transform="translate(85.90125 99.030625) scale(0.1 -0.1)">
      <defs>
       <path id="DejaVuSans-45" d="M 628 4666 
L 3578 4666 
L 3578 4134 
L 1259 4134 
L 1259 2753 
L 3481 2753 
L 3481 2222 
L 1259 2222 
L 1259 531 
L 3634 531 
L 3634 0 
L 628 0 
L 628 4666 
z
" transform="scale(0.015625)"/>
       <path id="DejaVuSans-49" d="M 628 4666 
L 1259 4666 
L 1259 0 
L 628 0 
L 628 4666 
z
" transform="scale(0.015625)"/>
       <path id="DejaVuSans-6b" d="M 581 4863 
L 1159 4863 
L 1159 1991 
L 2875 3500 
L 3609 3500 
L 1753 1863 
L 3688 0 
L 2938 0 
L 1159 1709 
L 1159 0 
L 581 0 
L 581 4863 
z
" transform="scale(0.015625)"/>
      </defs>
      <use xlink:href="#DejaVuSans-4f"/>
      <use xlink:href="#DejaVuSans-45" transform="translate(78.710938 0)"/>
      <use xlink:href="#DejaVuSans-49" transform="translate(141.894531 0)"/>
      <use xlink:href="#DejaVuSans-53" transform="translate(171.386719 0)"/>
      <use xlink:href="#DejaVuSans-20" transform="translate(234.863281 0)"/>
      <use xlink:href="#DejaVuSans-4c" transform="translate(266.650391 0)"/>
      <use xlink:href="#DejaVuSans-69" transform="translate(322.363281 0)"/>
      <use xlink:href="#DejaVuSans-6e" transform="translate(350.146484 0)"/>
      <use xlink:href="#DejaVuSans-6b" transform="translate(413.525391 0)"/>
      <use xlink:href="#DejaVuSans-65" transform="translate(467.810547 0)"/>
      <use xlink:href="#DejaVuSans-64" transform="translate(529.333984 0)"/>
     </g>
    </g>
    <g id="line2d_46">
     <path d="M 57.90125 110.20875 
L 67.90125 110.20875 
L 77.90125 110.20875 
" style="fill: none; stroke: #9467bd; stroke-width: 2; stroke-linecap: square"/>
    </g>
    <g id="text_31">
     <!-- Open Problems -->
     <g style="fill: #24292f" transform="translate(85.90125 113.70875) scale(0.1 -0.1)">
      <defs>
       <path id="DejaVuSans-73" d="M 2834 3397 
L 2834 2853 
Q 2591 2978 2328 3040 
Q 2066 3103 1784 3103 
Q 1356 3103 1142 2972 
Q 928 2841 928 2578 
Q 928 2378 1081 2264 
Q 1234 2150 1697 2047 
L 1894 2003 
Q 2506 1872 2764 1633 
Q 3022 1394 3022 966 
Q 3022 478 2636 193 
Q 2250 -91 1575 -91 
Q 1294 -91 989 -36 
Q 684 19 347 128 
L 347 722 
Q 666 556 975 473 
Q 1284 391 1588 391 
Q 1994 391 2212 530 
Q 2431 669 2431 922 
Q 2431 1156 2273 1281 
Q 2116 1406 1581 1522 
L 1381 1569 
Q 847 1681 609 1914 
Q 372 2147 372 2553 
Q 372 3047 722 3315 
Q 1072 3584 1716 3584 
Q 2034 3584 2315 3537 
Q 2597 3491 2834 3397 
z
" transform="scale(0.015625)"/>
      </defs>
      <use xlink:href="#DejaVuSans-4f"/>
      <use xlink:href="#DejaVuSans-70" transform="translate(78.710938 0)"/>
      <use xlink:href="#DejaVuSans-65" transform="translate(142.1875 0)"/>
      <use xlink:href="#DejaVuSans-6e" transform="translate(203.710938 0)"/>
      <use xlink:href="#DejaVuSans-20" transform="translate(267.089844 0)"/>
      <use xlink:href="#DejaVuSans-50" transform="translate(298.876953 0)"/>
      <use xlink:href="#DejaVuSans-72" transform="translate(357.429688 0)"/>
      <use xlink:href="#DejaVuSans-6f" transform="translate(396.292969 0)"/>
      <use xlink:href="#DejaVuSans-62" transform="translate(457.474609 0)"/>
      <use xlink:href="#DejaVuSans-6c" transform="translate(520.951172 0)"/>
      <use xlink:href="#DejaVuSans-65" transform="translate(548.734375 0)"/>
      <use xlink:href="#DejaVuSans-6d" transform="translate(610.257812 0)"/>
      <use xlink:href="#DejaVuSans-73" transform="translate(707.669922 0)"/>
     </g>
    </g>
   </g>
  </g>
 </g>
 <defs>
  <clipPath id="p09f82b6031">
   <rect x="48.90125" y="38.397812" width="799.45" height="416.84"/>
  </clipPath>
 </defs>
</svg>
