<?xml version="1.0" encoding="utf-8" standalone="no"?>
<!DOCTYPE svg PUBLIC "-//W3C//DTD SVG 1.1//EN"
  "http://www.w3.org/Graphics/SVG/1.1/DTD/svg11.dtd">
<svg xmlns:xlink="http://www.w3.org/1999/xlink" width="855.55125pt" height="494.729687pt" viewBox="0 0 855.55125 494.729687" xmlns="http://www.w3.org/2000/svg" version="1.1">
 <metadata>
  <rdf:RDF xmlns:dc="http://purl.org/dc/elements/1.1/" xmlns:cc="http://creativecommons.org/ns#" xmlns:rdf="http://www.w3.org/1999/02/22-rdf-syntax-ns#">
   <cc:Work>
    <dc:type rdf:resource="http://purl.org/dc/dcmitype/StillImage"/>
    <dc:date>2026-04-13T08:16:01.396273</dc:date>
    <dc:format>image/svg+xml</dc:format>
    <dc:creator>
     <cc:Agent>
      <dc:title>Matplotlib v3.10.7, https://matplotlib.org/</dc:title>
     </cc:Agent>
    </dc:creator>
   </cc:Work>
  </rdf:RDF>
 </metadata>
 <defs>
  <style type="text/css">*{stroke-linejoin: round; stroke-linecap: butt}</style>
 </defs>
 <g id="figure_1">
  <g id="patch_1">
   <path d="M 0 494.729687 
L 855.55125 494.729687 
L 855.55125 0 
L 0 0 
z
" style="fill: #0d1117"/>
  </g>
  <g id="axes_1">
   <g id="patch_2">
    <path d="M 48.90125 455.237812 
L 848.35125 455.237812 
L 848.35125 38.397812 
L 48.90125 38.397812 
z
" style="fill: #0d1117"/>
   </g>
   <g id="matplotlib.axis_1">
    <g id="xtick_1">
     <g id="line2d_1">
      <path d="M 86.185694 455.237812 
L 86.185694 38.397812 
" clip-path="url(#p9f4bc9ce1c)" style="fill: none; stroke: #30363d; stroke-opacity: 0.25; stroke-width: 0.5; stroke-linecap: square"/>
     </g>
     <g id="line2d_2">
      <defs>
       <path id="m75045dc0d7" d="M 0 0 
L 0 3.5 
" style="stroke: #c9d1d9; stroke-width: 0.8"/>
      </defs>
      <g>
       <use xlink:href="#m75045dc0d7" x="86.185694" y="455.237812" style="fill: #c9d1d9; stroke: #c9d1d9; stroke-width: 0.8"/>
      </g>
     </g>
     <g id="text_1">
      <!-- Sep -->
      <g style="fill: #c9d1d9" transform="translate(76.760694 469.83625) scale(0.1 -0.1)">
       <defs>
        <path id="DejaVuSans-53" d="M 3425 4513 
L 3425 3897 
Q 3066 4069 2747 4153 
Q 2428 4238 2131 4238 
Q 1616 4238 1336 4038 
Q 1056 3838 1056 3469 
Q 1056 3159 1242 3001 
Q 1428 2844 1947 2747 
L 2328 2669 
Q 3034 2534 3370 2195 
Q 3706 1856 3706 1288 
Q 3706 609 3251 259 
Q 2797 -91 1919 -91 
Q 1588 -91 1214 -16 
Q 841 59 441 206 
L 441 856 
Q 825 641 1194 531 
Q 1563 422 1919 422 
Q 2459 422 2753 634 
Q 3047 847 3047 1241 
Q 3047 1584 2836 1778 
Q 2625 1972 2144 2069 
L 1759 2144 
Q 1053 2284 737 2584 
Q 422 2884 422 3419 
Q 422 4038 858 4394 
Q 1294 4750 2059 4750 
Q 2388 4750 2728 4690 
Q 3069 4631 3425 4513 
z
" transform="scale(0.015625)"/>
        <path id="DejaVuSans-65" d="M 3597 1894 
L 3597 1613 
L 953 1613 
Q 991 1019 1311 708 
Q 1631 397 2203 397 
Q 2534 397 2845 478 
Q 3156 559 3463 722 
L 3463 178 
Q 3153 47 2828 -22 
Q 2503 -91 2169 -91 
Q 1331 -91 842 396 
Q 353 884 353 1716 
Q 353 2575 817 3079 
Q 1281 3584 2069 3584 
Q 2775 3584 3186 3129 
Q 3597 2675 3597 1894 
z
M 3022 2063 
Q 3016 2534 2758 2815 
Q 2500 3097 2075 3097 
Q 1594 3097 1305 2825 
Q 1016 2553 972 2059 
L 3022 2063 
z
" transform="scale(0.015625)"/>
        <path id="DejaVuSans-70" d="M 1159 525 
L 1159 -1331 
L 581 -1331 
L 581 3500 
L 1159 3500 
L 1159 2969 
Q 1341 3281 1617 3432 
Q 1894 3584 2278 3584 
Q 2916 3584 3314 3078 
Q 3713 2572 3713 1747 
Q 3713 922 3314 415 
Q 2916 -91 2278 -91 
Q 1894 -91 1617 61 
Q 1341 213 1159 525 
z
M 3116 1747 
Q 3116 2381 2855 2742 
Q 2594 3103 2138 3103 
Q 1681 3103 1420 2742 
Q 1159 2381 1159 1747 
Q 1159 1113 1420 752 
Q 1681 391 2138 391 
Q 2594 391 2855 752 
Q 3116 1113 3116 1747 
z
" transform="scale(0.015625)"/>
       </defs>
       <use xlink:href="#DejaVuSans-53"/>
       <use xlink:href="#DejaVuSans-65" transform="translate(63.476562 0)"/>
       <use xlink:href="#DejaVuSans-70" transform="translate(125 0)"/>
      </g>
     </g>
    </g>
    <g id="xtick_2">
     <g id="line2d_3">
      <path d="M 183.245403 455.237812 
L 183.245403 38.397812 
" clip-path="url(#p9f4bc9ce1c)" style="fill: none; stroke: #30363d; stroke-opacity: 0.25; stroke-width: 0.5; stroke-linecap: square"/>
     </g>
     <g id="line2d_4">
      <g>
       <use xlink:href="#m75045dc0d7" x="183.245403" y="455.237812" style="fill: #c9d1d9; stroke: #c9d1d9; stroke-width: 0.8"/>
      </g>
     </g>
     <g id="text_2">
      <!-- Oct -->
      <g style="fill: #c9d1d9" transform="translate(174.600091 469.83625) scale(0.1 -0.1)">
       <defs>
        <path id="DejaVuSans-4f" d="M 2522 4238 
Q 1834 4238 1429 3725 
Q 1025 3213 1025 2328 
Q 1025 1447 1429 934 
Q 1834 422 2522 422 
Q 3209 422 3611 934 
Q 4013 1447 4013 2328 
Q 4013 3213 3611 3725 
Q 3209 4238 2522 4238 
z
M 2522 4750 
Q 3503 4750 4090 4092 
Q 4678 3434 4678 2328 
Q 4678 1225 4090 567 
Q 3503 -91 2522 -91 
Q 1538 -91 948 565 
Q 359 1222 359 2328 
Q 359 3434 948 4092 
Q 1538 4750 2522 4750 
z
" transform="scale(0.015625)"/>
        <path id="DejaVuSans-63" d="M 3122 3366 
L 3122 2828 
Q 2878 2963 2633 3030 
Q 2388 3097 2138 3097 
Q 1578 3097 1268 2742 
Q 959 2388 959 1747 
Q 959 1106 1268 751 
Q 1578 397 2138 397 
Q 2388 397 2633 464 
Q 2878 531 3122 666 
L 3122 134 
Q 2881 22 2623 -34 
Q 2366 -91 2075 -91 
Q 1284 -91 818 406 
Q 353 903 353 1747 
Q 353 2603 823 3093 
Q 1294 3584 2113 3584 
Q 2378 3584 2631 3529 
Q 2884 3475 3122 3366 
z
" transform="scale(0.015625)"/>
        <path id="DejaVuSans-74" d="M 1172 4494 
L 1172 3500 
L 2356 3500 
L 2356 3053 
L 1172 3053 
L 1172 1153 
Q 1172 725 1289 603 
Q 1406 481 1766 481 
L 2356 481 
L 2356 0 
L 1766 0 
Q 1100 0 847 248 
Q 594 497 594 1153 
L 594 3053 
L 172 3053 
L 172 3500 
L 594 3500 
L 594 4494 
L 1172 4494 
z
" transform="scale(0.015625)"/>
       </defs>
       <use xlink:href="#DejaVuSans-4f"/>
       <use xlink:href="#DejaVuSans-63" transform="translate(78.710938 0)"/>
       <use xlink:href="#DejaVuSans-74" transform="translate(133.691406 0)"/>
      </g>
     </g>
    </g>
    <g id="xtick_3">
     <g id="line2d_5">
      <path d="M 283.540436 455.237812 
L 283.540436 38.397812 
" clip-path="url(#p9f4bc9ce1c)" style="fill: none; stroke: #30363d; stroke-opacity: 0.25; stroke-width: 0.5; stroke-linecap: square"/>
     </g>
     <g id="line2d_6">
      <g>
       <use xlink:href="#m75045dc0d7" x="283.540436" y="455.237812" style="fill: #c9d1d9; stroke: #c9d1d9; stroke-width: 0.8"/>
      </g>
     </g>
     <g id="text_3">
      <!-- Nov -->
      <g style="fill: #c9d1d9" transform="translate(273.781061 469.83625) scale(0.1 -0.1)">
       <defs>
        <path id="DejaVuSans-4e" d="M 628 4666 
L 1478 4666 
L 3547 763 
L 3547 4666 
L 4159 4666 
L 4159 0 
L 3309 0 
L 1241 3903 
L 1241 0 
L 628 0 
L 628 4666 
z
" transform="scale(0.015625)"/>
        <path id="DejaVuSans-6f" d="M 1959 3097 
Q 1497 3097 1228 2736 
Q 959 2375 959 1747 
Q 959 1119 1226 758 
Q 1494 397 1959 397 
Q 2419 397 2687 759 
Q 2956 1122 2956 1747 
Q 2956 2369 2687 2733 
Q 2419 3097 1959 3097 
z
M 1959 3584 
Q 2709 3584 3137 3096 
Q 3566 2609 3566 1747 
Q 3566 888 3137 398 
Q 2709 -91 1959 -91 
Q 1206 -91 779 398 
Q 353 888 353 1747 
Q 353 2609 779 3096 
Q 1206 3584 1959 3584 
z
" transform="scale(0.015625)"/>
        <path id="DejaVuSans-76" d="M 191 3500 
L 800 3500 
L 1894 563 
L 2988 3500 
L 3597 3500 
L 2284 0 
L 1503 0 
L 191 3500 
z
" transform="scale(0.015625)"/>
       </defs>
       <use xlink:href="#DejaVuSans-4e"/>
       <use xlink:href="#DejaVuSans-6f" transform="translate(74.804688 0)"/>
       <use xlink:href="#DejaVuSans-76" transform="translate(135.986328 0)"/>
      </g>
     </g>
    </g>
    <g id="xtick_4">
     <g id="line2d_7">
      <path d="M 380.600144 455.237812 
L 380.600144 38.397812 
" clip-path="url(#p9f4bc9ce1c)" style="fill: none; stroke: #30363d; stroke-opacity: 0.25; stroke-width: 0.5; stroke-linecap: square"/>
     </g>
     <g id="line2d_8">
      <g>
       <use xlink:href="#m75045dc0d7" x="380.600144" y="455.237812" style="fill: #c9d1d9; stroke: #c9d1d9; stroke-width: 0.8"/>
      </g>
     </g>
     <g id="text_4">
      <!-- Dec -->
      <g style="fill: #c9d1d9" transform="translate(370.924363 469.83625) scale(0.1 -0.1)">
       <defs>
        <path id="DejaVuSans-44" d="M 1259 4147 
L 1259 519 
L 2022 519 
Q 2988 519 3436 956 
Q 3884 1394 3884 2338 
Q 3884 3275 3436 3711 
Q 2988 4147 2022 4147 
L 1259 4147 
z
M 628 4666 
L 1925 4666 
Q 3281 4666 3915 4102 
Q 4550 3538 4550 2338 
Q 4550 1131 3912 565 
Q 3275 0 1925 0 
L 628 0 
L 628 4666 
z
" transform="scale(0.015625)"/>
       </defs>
       <use xlink:href="#DejaVuSans-44"/>
       <use xlink:href="#DejaVuSans-65" transform="translate(77.001953 0)"/>
       <use xlink:href="#DejaVuSans-63" transform="translate(138.525391 0)"/>
      </g>
     </g>
    </g>
    <g id="xtick_5">
     <g id="line2d_9">
      <path d="M 480.895177 455.237812 
L 480.895177 38.397812 
" clip-path="url(#p9f4bc9ce1c)" style="fill: none; stroke: #30363d; stroke-opacity: 0.25; stroke-width: 0.5; stroke-linecap: square"/>
     </g>
     <g id="line2d_10">
      <g>
       <use xlink:href="#m75045dc0d7" x="480.895177" y="455.237812" style="fill: #c9d1d9; stroke: #c9d1d9; stroke-width: 0.8"/>
      </g>
     </g>
     <g id="text_5">
      <!-- 2026 -->
      <g style="fill: #c9d1d9" transform="translate(468.170177 469.83625) scale(0.1 -0.1)">
       <defs>
        <path id="DejaVuSans-32" d="M 1228 531 
L 3431 531 
L 3431 0 
L 469 0 
L 469 531 
Q 828 903 1448 1529 
Q 2069 2156 2228 2338 
Q 2531 2678 2651 2914 
Q 2772 3150 2772 3378 
Q 2772 3750 2511 3984 
Q 2250 4219 1831 4219 
Q 1534 4219 1204 4116 
Q 875 4013 500 3803 
L 500 4441 
Q 881 4594 1212 4672 
Q 1544 4750 1819 4750 
Q 2544 4750 2975 4387 
Q 3406 4025 3406 3419 
Q 3406 3131 3298 2873 
Q 3191 2616 2906 2266 
Q 2828 2175 2409 1742 
Q 1991 1309 1228 531 
z
" transform="scale(0.015625)"/>
        <path id="DejaVuSans-30" d="M 2034 4250 
Q 1547 4250 1301 3770 
Q 1056 3291 1056 2328 
Q 1056 1369 1301 889 
Q 1547 409 2034 409 
Q 2525 409 2770 889 
Q 3016 1369 3016 2328 
Q 3016 3291 2770 3770 
Q 2525 4250 2034 4250 
z
M 2034 4750 
Q 2819 4750 3233 4129 
Q 3647 3509 3647 2328 
Q 3647 1150 3233 529 
Q 2819 -91 2034 -91 
Q 1250 -91 836 529 
Q 422 1150 422 2328 
Q 422 3509 836 4129 
Q 1250 4750 2034 4750 
z
" transform="scale(0.015625)"/>
        <path id="DejaVuSans-36" d="M 2113 2584 
Q 1688 2584 1439 2293 
Q 1191 2003 1191 1497 
Q 1191 994 1439 701 
Q 1688 409 2113 409 
Q 2538 409 2786 701 
Q 3034 994 3034 1497 
Q 3034 2003 2786 2293 
Q 2538 2584 2113 2584 
z
M 3366 4563 
L 3366 3988 
Q 3128 4100 2886 4159 
Q 2644 4219 2406 4219 
Q 1781 4219 1451 3797 
Q 1122 3375 1075 2522 
Q 1259 2794 1537 2939 
Q 1816 3084 2150 3084 
Q 2853 3084 3261 2657 
Q 3669 2231 3669 1497 
Q 3669 778 3244 343 
Q 2819 -91 2113 -91 
Q 1303 -91 875 529 
Q 447 1150 447 2328 
Q 447 3434 972 4092 
Q 1497 4750 2381 4750 
Q 2619 4750 2861 4703 
Q 3103 4656 3366 4563 
z
" transform="scale(0.015625)"/>
       </defs>
       <use xlink:href="#DejaVuSans-32"/>
       <use xlink:href="#DejaVuSans-30" transform="translate(63.623047 0)"/>
       <use xlink:href="#DejaVuSans-32" transform="translate(127.246094 0)"/>
       <use xlink:href="#DejaVuSans-36" transform="translate(190.869141 0)"/>
      </g>
     </g>
    </g>
    <g id="xtick_6">
     <g id="line2d_11">
      <path d="M 581.190209 455.237812 
L 581.190209 38.397812 
" clip-path="url(#p9f4bc9ce1c)" style="fill: none; stroke: #30363d; stroke-opacity: 0.25; stroke-width: 0.5; stroke-linecap: square"/>
     </g>
     <g id="line2d_12">
      <g>
       <use xlink:href="#m75045dc0d7" x="581.190209" y="455.237812" style="fill: #c9d1d9; stroke: #c9d1d9; stroke-width: 0.8"/>
      </g>
     </g>
     <g id="text_6">
      <!-- Feb -->
      <g style="fill: #c9d1d9" transform="translate(572.338647 469.83625) scale(0.1 -0.1)">
       <defs>
        <path id="DejaVuSans-46" d="M 628 4666 
L 3309 4666 
L 3309 4134 
L 1259 4134 
L 1259 2759 
L 3109 2759 
L 3109 2228 
L 1259 2228 
L 1259 0 
L 628 0 
L 628 4666 
z
" transform="scale(0.015625)"/>
        <path id="DejaVuSans-62" d="M 3116 1747 
Q 3116 2381 2855 2742 
Q 2594 3103 2138 3103 
Q 1681 3103 1420 2742 
Q 1159 2381 1159 1747 
Q 1159 1113 1420 752 
Q 1681 391 2138 391 
Q 2594 391 2855 752 
Q 3116 1113 3116 1747 
z
M 1159 2969 
Q 1341 3281 1617 3432 
Q 1894 3584 2278 3584 
Q 2916 3584 3314 3078 
Q 3713 2572 3713 1747 
Q 3713 922 3314 415 
Q 2916 -91 2278 -91 
Q 1894 -91 1617 61 
Q 1341 213 1159 525 
L 1159 0 
L 581 0 
L 581 4863 
L 1159 4863 
L 1159 2969 
z
" transform="scale(0.015625)"/>
       </defs>
       <use xlink:href="#DejaVuSans-46"/>
       <use xlink:href="#DejaVuSans-65" transform="translate(52.019531 0)"/>
       <use xlink:href="#DejaVuSans-62" transform="translate(113.542969 0)"/>
      </g>
     </g>
    </g>
    <g id="xtick_7">
     <g id="line2d_13">
      <path d="M 671.779271 455.237812 
L 671.779271 38.397812 
" clip-path="url(#p9f4bc9ce1c)" style="fill: none; stroke: #30363d; stroke-opacity: 0.25; stroke-width: 0.5; stroke-linecap: square"/>
     </g>
     <g id="line2d_14">
      <g>
       <use xlink:href="#m75045dc0d7" x="671.779271" y="455.237812" style="fill: #c9d1d9; stroke: #c9d1d9; stroke-width: 0.8"/>
      </g>
     </g>
     <g id="text_7">
      <!-- Mar -->
      <g style="fill: #c9d1d9" transform="translate(662.345677 469.83625) scale(0.1 -0.1)">
       <defs>
        <path id="DejaVuSans-4d" d="M 628 4666 
L 1569 4666 
L 2759 1491 
L 3956 4666 
L 4897 4666 
L 4897 0 
L 4281 0 
L 4281 4097 
L 3078 897 
L 2444 897 
L 1241 4097 
L 1241 0 
L 628 0 
L 628 4666 
z
" transform="scale(0.015625)"/>
        <path id="DejaVuSans-61" d="M 2194 1759 
Q 1497 1759 1228 1600 
Q 959 1441 959 1056 
Q 959 750 1161 570 
Q 1363 391 1709 391 
Q 2188 391 2477 730 
Q 2766 1069 2766 1631 
L 2766 1759 
L 2194 1759 
z
M 3341 1997 
L 3341 0 
L 2766 0 
L 2766 531 
Q 2569 213 2275 61 
Q 1981 -91 1556 -91 
Q 1019 -91 701 211 
Q 384 513 384 1019 
Q 384 1609 779 1909 
Q 1175 2209 1959 2209 
L 2766 2209 
L 2766 2266 
Q 2766 2663 2505 2880 
Q 2244 3097 1772 3097 
Q 1472 3097 1187 3025 
Q 903 2953 641 2809 
L 641 3341 
Q 956 3463 1253 3523 
Q 1550 3584 1831 3584 
Q 2591 3584 2966 3190 
Q 3341 2797 3341 1997 
z
" transform="scale(0.015625)"/>
        <path id="DejaVuSans-72" d="M 2631 2963 
Q 2534 3019 2420 3045 
Q 2306 3072 2169 3072 
Q 1681 3072 1420 2755 
Q 1159 2438 1159 1844 
L 1159 0 
L 581 0 
L 581 3500 
L 1159 3500 
L 1159 2956 
Q 1341 3275 1631 3429 
Q 1922 3584 2338 3584 
Q 2397 3584 2469 3576 
Q 2541 3569 2628 3553 
L 2631 2963 
z
" transform="scale(0.015625)"/>
       </defs>
       <use xlink:href="#DejaVuSans-4d"/>
       <use xlink:href="#DejaVuSans-61" transform="translate(86.279297 0)"/>
       <use xlink:href="#DejaVuSans-72" transform="translate(147.558594 0)"/>
      </g>
     </g>
    </g>
    <g id="xtick_8">
     <g id="line2d_15">
      <path d="M 772.074303 455.237812 
L 772.074303 38.397812 
" clip-path="url(#p9f4bc9ce1c)" style="fill: none; stroke: #30363d; stroke-opacity: 0.25; stroke-width: 0.5; stroke-linecap: square"/>
     </g>
     <g id="line2d_16">
      <g>
       <use xlink:href="#m75045dc0d7" x="772.074303" y="455.237812" style="fill: #c9d1d9; stroke: #c9d1d9; stroke-width: 0.8"/>
      </g>
     </g>
     <g id="text_8">
      <!-- Apr -->
      <g style="fill: #c9d1d9" transform="translate(763.424303 469.83625) scale(0.1 -0.1)">
       <defs>
        <path id="DejaVuSans-41" d="M 2188 4044 
L 1331 1722 
L 3047 1722 
L 2188 4044 
z
M 1831 4666 
L 2547 4666 
L 4325 0 
L 3669 0 
L 3244 1197 
L 1141 1197 
L 716 0 
L 50 0 
L 1831 4666 
z
" transform="scale(0.015625)"/>
       </defs>
       <use xlink:href="#DejaVuSans-41"/>
       <use xlink:href="#DejaVuSans-70" transform="translate(68.408203 0)"/>
       <use xlink:href="#DejaVuSans-72" transform="translate(131.884766 0)"/>
      </g>
     </g>
    </g>
    <g id="text_9">
     <!-- Date -->
     <g style="fill: #c9d1d9" transform="translate(434.285313 485.034062) scale(0.12 -0.12)">
      <use xlink:href="#DejaVuSans-44"/>
      <use xlink:href="#DejaVuSans-61" transform="translate(77.001953 0)"/>
      <use xlink:href="#DejaVuSans-74" transform="translate(138.28125 0)"/>
      <use xlink:href="#DejaVuSans-65" transform="translate(177.490234 0)"/>
     </g>
    </g>
   </g>
   <g id="matplotlib.axis_2">
    <g id="ytick_1">
     <g id="line2d_17">
      <path d="M 48.90125 455.237812 
L 848.35125 455.237812 
" clip-path="url(#p9f4bc9ce1c)" style="fill: none; stroke: #30363d; stroke-opacity: 0.25; stroke-width: 0.5; stroke-linecap: square"/>
     </g>
     <g id="line2d_18">
      <defs>
       <path id="m4b2e420f34" d="M 0 0 
L -3.5 0 
" style="stroke: #c9d1d9; stroke-width: 0.8"/>
      </defs>
      <g>
       <use xlink:href="#m4b2e420f34" x="48.90125" y="455.237812" style="fill: #c9d1d9; stroke: #c9d1d9; stroke-width: 0.8"/>
      </g>
     </g>
     <g id="text_10">
      <!-- 0 -->
      <g style="fill: #c9d1d9" transform="translate(35.53875 459.037031) scale(0.1 -0.1)">
       <use xlink:href="#DejaVuSans-30"/>
      </g>
     </g>
    </g>
    <g id="ytick_2">
     <g id="line2d_19">
      <path d="M 48.90125 399.659146 
L 848.35125 399.659146 
" clip-path="url(#p9f4bc9ce1c)" style="fill: none; stroke: #30363d; stroke-opacity: 0.25; stroke-width: 0.5; stroke-linecap: square"/>
     </g>
     <g id="line2d_20">
      <g>
       <use xlink:href="#m4b2e420f34" x="48.90125" y="399.659146" style="fill: #c9d1d9; stroke: #c9d1d9; stroke-width: 0.8"/>
      </g>
     </g>
     <g id="text_11">
      <!-- 100 -->
      <g style="fill: #c9d1d9" transform="translate(22.81375 403.458365) scale(0.1 -0.1)">
       <defs>
        <path id="DejaVuSans-31" d="M 794 531 
L 1825 531 
L 1825 4091 
L 703 3866 
L 703 4441 
L 1819 4666 
L 2450 4666 
L 2450 531 
L 3481 531 
L 3481 0 
L 794 0 
L 794 531 
z
" transform="scale(0.015625)"/>
       </defs>
       <use xlink:href="#DejaVuSans-31"/>
       <use xlink:href="#DejaVuSans-30" transform="translate(63.623047 0)"/>
       <use xlink:href="#DejaVuSans-30" transform="translate(127.246094 0)"/>
      </g>
     </g>
    </g>
    <g id="ytick_3">
     <g id="line2d_21">
      <path d="M 48.90125 344.080479 
L 848.35125 344.080479 
" clip-path="url(#p9f4bc9ce1c)" style="fill: none; stroke: #30363d; stroke-opacity: 0.25; stroke-width: 0.5; stroke-linecap: square"/>
     </g>
     <g id="line2d_22">
      <g>
       <use xlink:href="#m4b2e420f34" x="48.90125" y="344.080479" style="fill: #c9d1d9; stroke: #c9d1d9; stroke-width: 0.8"/>
      </g>
     </g>
     <g id="text_12">
      <!-- 200 -->
      <g style="fill: #c9d1d9" transform="translate(22.81375 347.879698) scale(0.1 -0.1)">
       <use xlink:href="#DejaVuSans-32"/>
       <use xlink:href="#DejaVuSans-30" transform="translate(63.623047 0)"/>
       <use xlink:href="#DejaVuSans-30" transform="translate(127.246094 0)"/>
      </g>
     </g>
    </g>
    <g id="ytick_4">
     <g id="line2d_23">
      <path d="M 48.90125 288.501812 
L 848.35125 288.501812 
" clip-path="url(#p9f4bc9ce1c)" style="fill: none; stroke: #30363d; stroke-opacity: 0.25; stroke-width: 0.5; stroke-linecap: square"/>
     </g>
     <g id="line2d_24">
      <g>
       <use xlink:href="#m4b2e420f34" x="48.90125" y="288.501812" style="fill: #c9d1d9; stroke: #c9d1d9; stroke-width: 0.8"/>
      </g>
     </g>
     <g id="text_13">
      <!-- 300 -->
      <g style="fill: #c9d1d9" transform="translate(22.81375 292.301031) scale(0.1 -0.1)">
       <defs>
        <path id="DejaVuSans-33" d="M 2597 2516 
Q 3050 2419 3304 2112 
Q 3559 1806 3559 1356 
Q 3559 666 3084 287 
Q 2609 -91 1734 -91 
Q 1441 -91 1130 -33 
Q 819 25 488 141 
L 488 750 
Q 750 597 1062 519 
Q 1375 441 1716 441 
Q 2309 441 2620 675 
Q 2931 909 2931 1356 
Q 2931 1769 2642 2001 
Q 2353 2234 1838 2234 
L 1294 2234 
L 1294 2753 
L 1863 2753 
Q 2328 2753 2575 2939 
Q 2822 3125 2822 3475 
Q 2822 3834 2567 4026 
Q 2313 4219 1838 4219 
Q 1578 4219 1281 4162 
Q 984 4106 628 3988 
L 628 4550 
Q 988 4650 1302 4700 
Q 1616 4750 1894 4750 
Q 2613 4750 3031 4423 
Q 3450 4097 3450 3541 
Q 3450 3153 3228 2886 
Q 3006 2619 2597 2516 
z
" transform="scale(0.015625)"/>
       </defs>
       <use xlink:href="#DejaVuSans-33"/>
       <use xlink:href="#DejaVuSans-30" transform="translate(63.623047 0)"/>
       <use xlink:href="#DejaVuSans-30" transform="translate(127.246094 0)"/>
      </g>
     </g>
    </g>
    <g id="ytick_5">
     <g id="line2d_25">
      <path d="M 48.90125 232.923146 
L 848.35125 232.923146 
" clip-path="url(#p9f4bc9ce1c)" style="fill: none; stroke: #30363d; stroke-opacity: 0.25; stroke-width: 0.5; stroke-linecap: square"/>
     </g>
     <g id="line2d_26">
      <g>
       <use xlink:href="#m4b2e420f34" x="48.90125" y="232.923146" style="fill: #c9d1d9; stroke: #c9d1d9; stroke-width: 0.8"/>
      </g>
     </g>
     <g id="text_14">
      <!-- 400 -->
      <g style="fill: #c9d1d9" transform="translate(22.81375 236.722365) scale(0.1 -0.1)">
       <defs>
        <path id="DejaVuSans-34" d="M 2419 4116 
L 825 1625 
L 2419 1625 
L 2419 4116 
z
M 2253 4666 
L 3047 4666 
L 3047 1625 
L 3713 1625 
L 3713 1100 
L 3047 1100 
L 3047 0 
L 2419 0 
L 2419 1100 
L 313 1100 
L 313 1709 
L 2253 4666 
z
" transform="scale(0.015625)"/>
       </defs>
       <use xlink:href="#DejaVuSans-34"/>
       <use xlink:href="#DejaVuSans-30" transform="translate(63.623047 0)"/>
       <use xlink:href="#DejaVuSans-30" transform="translate(127.246094 0)"/>
      </g>
     </g>
    </g>
    <g id="ytick_6">
     <g id="line2d_27">
      <path d="M 48.90125 177.344479 
L 848.35125 177.344479 
" clip-path="url(#p9f4bc9ce1c)" style="fill: none; stroke: #30363d; stroke-opacity: 0.25; stroke-width: 0.5; stroke-linecap: square"/>
     </g>
     <g id="line2d_28">
      <g>
       <use xlink:href="#m4b2e420f34" x="48.90125" y="177.344479" style="fill: #c9d1d9; stroke: #c9d1d9; stroke-width: 0.8"/>
      </g>
     </g>
     <g id="text_15">
      <!-- 500 -->
      <g style="fill: #c9d1d9" transform="translate(22.81375 181.143698) scale(0.1 -0.1)">
       <defs>
        <path id="DejaVuSans-35" d="M 691 4666 
L 3169 4666 
L 3169 4134 
L 1269 4134 
L 1269 2991 
Q 1406 3038 1543 3061 
Q 1681 3084 1819 3084 
Q 2600 3084 3056 2656 
Q 3513 2228 3513 1497 
Q 3513 744 3044 326 
Q 2575 -91 1722 -91 
Q 1428 -91 1123 -41 
Q 819 9 494 109 
L 494 744 
Q 775 591 1075 516 
Q 1375 441 1709 441 
Q 2250 441 2565 725 
Q 2881 1009 2881 1497 
Q 2881 1984 2565 2268 
Q 2250 2553 1709 2553 
Q 1456 2553 1204 2497 
Q 953 2441 691 2322 
L 691 4666 
z
" transform="scale(0.015625)"/>
       </defs>
       <use xlink:href="#DejaVuSans-35"/>
       <use xlink:href="#DejaVuSans-30" transform="translate(63.623047 0)"/>
       <use xlink:href="#DejaVuSans-30" transform="translate(127.246094 0)"/>
      </g>
     </g>
    </g>
    <g id="ytick_7">
     <g id="line2d_29">
      <path d="M 48.90125 121.765812 
L 848.35125 121.765812 
" clip-path="url(#p9f4bc9ce1c)" style="fill: none; stroke: #30363d; stroke-opacity: 0.25; stroke-width: 0.5; stroke-linecap: square"/>
     </g>
     <g id="line2d_30">
      <g>
       <use xlink:href="#m4b2e420f34" x="48.90125" y="121.765812" style="fill: #c9d1d9; stroke: #c9d1d9; stroke-width: 0.8"/>
      </g>
     </g>
     <g id="text_16">
      <!-- 600 -->
      <g style="fill: #c9d1d9" transform="translate(22.81375 125.565031) scale(0.1 -0.1)">
       <use xlink:href="#DejaVuSans-36"/>
       <use xlink:href="#DejaVuSans-30" transform="translate(63.623047 0)"/>
       <use xlink:href="#DejaVuSans-30" transform="translate(127.246094 0)"/>
      </g>
     </g>
    </g>
    <g id="ytick_8">
     <g id="line2d_31">
      <path d="M 48.90125 66.187146 
L 848.35125 66.187146 
" clip-path="url(#p9f4bc9ce1c)" style="fill: none; stroke: #30363d; stroke-opacity: 0.25; stroke-width: 0.5; stroke-linecap: square"/>
     </g>
     <g id="line2d_32">
      <g>
       <use xlink:href="#m4b2e420f34" x="48.90125" y="66.187146" style="fill: #c9d1d9; stroke: #c9d1d9; stroke-width: 0.8"/>
      </g>
     </g>
     <g id="text_17">
      <!-- 700 -->
      <g style="fill: #c9d1d9" transform="translate(22.81375 69.986365) scale(0.1 -0.1)">
       <defs>
        <path id="DejaVuSans-37" d="M 525 4666 
L 3525 4666 
L 3525 4397 
L 1831 0 
L 1172 0 
L 2766 4134 
L 525 4134 
L 525 4666 
z
" transform="scale(0.015625)"/>
       </defs>
       <use xlink:href="#DejaVuSans-37"/>
       <use xlink:href="#DejaVuSans-30" transform="translate(63.623047 0)"/>
       <use xlink:href="#DejaVuSans-30" transform="translate(127.246094 0)"/>
      </g>
     </g>
    </g>
    <g id="text_18">
     <!-- Count -->
     <g style="fill: #c9d1d9" transform="translate(16.318125 264.635937) rotate(-90) scale(0.12 -0.12)">
      <defs>
       <path id="DejaVuSans-43" d="M 4122 4306 
L 4122 3641 
Q 3803 3938 3442 4084 
Q 3081 4231 2675 4231 
Q 1875 4231 1450 3742 
Q 1025 3253 1025 2328 
Q 1025 1406 1450 917 
Q 1875 428 2675 428 
Q 3081 428 3442 575 
Q 3803 722 4122 1019 
L 4122 359 
Q 3791 134 3420 21 
Q 3050 -91 2638 -91 
Q 1578 -91 968 557 
Q 359 1206 359 2328 
Q 359 3453 968 4101 
Q 1578 4750 2638 4750 
Q 3056 4750 3426 4639 
Q 3797 4528 4122 4306 
z
" transform="scale(0.015625)"/>
       <path id="DejaVuSans-75" d="M 544 1381 
L 544 3500 
L 1119 3500 
L 1119 1403 
Q 1119 906 1312 657 
Q 1506 409 1894 409 
Q 2359 409 2629 706 
Q 2900 1003 2900 1516 
L 2900 3500 
L 3475 3500 
L 3475 0 
L 2900 0 
L 2900 538 
Q 2691 219 2414 64 
Q 2138 -91 1772 -91 
Q 1169 -91 856 284 
Q 544 659 544 1381 
z
M 1991 3584 
L 1991 3584 
z
" transform="scale(0.015625)"/>
       <path id="DejaVuSans-6e" d="M 3513 2113 
L 3513 0 
L 2938 0 
L 2938 2094 
Q 2938 2591 2744 2837 
Q 2550 3084 2163 3084 
Q 1697 3084 1428 2787 
Q 1159 2491 1159 1978 
L 1159 0 
L 581 0 
L 581 3500 
L 1159 3500 
L 1159 2956 
Q 1366 3272 1645 3428 
Q 1925 3584 2291 3584 
Q 2894 3584 3203 3211 
Q 3513 2838 3513 2113 
z
" transform="scale(0.015625)"/>
      </defs>
      <use xlink:href="#DejaVuSans-43"/>
      <use xlink:href="#DejaVuSans-6f" transform="translate(69.824219 0)"/>
      <use xlink:href="#DejaVuSans-75" transform="translate(131.005859 0)"/>
      <use xlink:href="#DejaVuSans-6e" transform="translate(194.384766 0)"/>
      <use xlink:href="#DejaVuSans-74" transform="translate(257.763672 0)"/>
     </g>
    </g>
   </g>
   <g id="line2d_33">
    <path d="M 85.239886 454.682026 
L 85.301859 454.682026 
L 85.451381 454.126239 
L 85.535634 454.126239 
L 85.623594 257.933546 
L 88.349092 257.933546 
L 88.361 261.268266 
L 91.514093 261.268266 
L 91.666684 260.712479 
L 92.104427 260.712479 
L 92.459189 260.156692 
L 94.657449 259.600906 
L 94.700849 260.156692 
L 94.806222 259.600906 
L 101.613582 259.600906 
L 105.720346 260.712479 
L 106.331388 259.600906 
L 106.777556 259.600906 
L 107.902055 259.045119 
L 108.372525 256.821972 
L 109.288601 256.821972 
L 110.623547 260.712479 
L 110.710159 256.821972 
L 111.734528 256.266186 
L 114.400487 256.266186 
L 115.103683 255.710399 
L 116.148199 255.710399 
L 116.428181 254.598826 
L 122.938671 254.598826 
L 123.413522 253.487252 
L 123.437862 252.375679 
L 125.487986 252.375679 
L 128.510992 251.264106 
L 130.096787 251.264106 
L 130.12079 250.708319 
L 133.762626 250.708319 
L 134.666045 247.929386 
L 137.52515 247.929386 
L 137.544996 247.373599 
L 153.557414 247.373599 
L 156.550538 246.817812 
L 156.652728 247.373599 
L 159.756991 246.817812 
L 170.559564 246.817812 
L 175.795434 246.262026 
L 175.896575 245.706239 
L 176.145291 245.150452 
L 179.099021 245.150452 
L 180.356154 244.594666 
L 185.540423 244.594666 
L 185.737239 247.373599 
L 185.7469 245.150452 
L 185.998948 245.150452 
L 187.250539 242.927306 
L 193.378407 242.927306 
L 198.074831 242.371519 
L 203.294599 242.371519 
L 203.523655 241.815732 
L 217.087188 241.815732 
L 217.666064 241.259946 
L 220.959466 241.259946 
L 220.982682 240.148372 
L 227.257787 240.148372 
L 227.385066 236.257866 
L 238.742662 236.257866 
L 238.746069 235.702079 
L 239.074994 235.702079 
L 240.2469 235.146292 
L 241.96121 235.146292 
L 242.423891 234.590506 
L 242.470174 235.146292 
L 243.529668 234.590506 
L 243.534498 234.034719 
L 243.55925 234.590506 
L 244.171265 234.034719 
L 249.746319 234.034719 
L 251.479652 233.478932 
L 253.536404 233.478932 
L 257.029767 232.923146 
L 260.336874 232.923146 
L 262.891956 231.811572 
L 268.483599 231.811572 
L 271.736297 230.699999 
L 272.652748 231.255786 
L 277.192648 231.255786 
L 282.313858 229.032639 
L 289.951506 229.032639 
L 292.32022 228.476852 
L 334.533517 228.476852 
L 334.874424 227.921066 
L 350.268648 227.921066 
L 350.525864 227.365279 
L 376.720639 227.365279 
L 382.488652 226.809492 
L 382.522017 227.365279 
L 386.651061 225.697919 
L 392.710665 225.697919 
L 396.01942 225.142132 
L 396.024849 224.586346 
L 402.928596 224.586346 
L 405.406427 225.142132 
L 406.297152 224.586346 
L 417.850927 224.586346 
L 418.342629 225.142132 
L 419.243352 224.586346 
L 419.552879 222.363199 
L 424.847614 222.363199 
L 424.852182 221.807412 
L 441.053964 221.807412 
L 441.99745 221.251626 
L 445.11115 221.251626 
L 445.41491 220.695839 
L 460.598352 220.695839 
L 460.618984 220.140052 
L 464.416595 220.140052 
L 464.42225 219.584266 
L 465.343755 219.584266 
L 465.391873 219.028479 
L 466.822867 219.028479 
L 467.047692 218.472692 
L 470.110465 218.472692 
L 470.57603 217.361119 
L 472.262105 215.137972 
L 476.339324 215.137972 
L 476.640352 212.359039 
L 478.007538 212.359039 
L 478.678531 211.247466 
L 482.136133 211.247466 
L 483.270668 210.691679 
L 486.518274 210.691679 
L 486.953545 210.135892 
L 495.774333 210.135892 
L 495.991669 209.580106 
L 496.807502 209.580106 
L 498.074109 209.024319 
L 512.341137 209.024319 
L 512.469314 208.468532 
L 512.926753 208.468532 
L 513.881698 207.356959 
L 515.220538 207.356959 
L 515.54246 206.801172 
L 515.852624 206.801172 
L 515.970316 206.245386 
L 519.550741 206.245386 
L 520.160285 205.689599 
L 523.276756 205.689599 
L 523.476567 205.133812 
L 525.183649 205.133812 
L 525.293029 204.578026 
L 530.598248 204.578026 
L 530.712308 204.022239 
L 533.806386 204.022239 
L 534.839817 201.799092 
L 535.985586 201.799092 
L 535.986784 201.243306 
L 540.63906 201.243306 
L 541.491965 200.687519 
L 545.054153 200.687519 
L 545.755777 200.131732 
L 546.019695 200.131732 
L 546.705254 199.575946 
L 548.456448 199.575946 
L 548.658843 199.020159 
L 553.050832 199.020159 
L 554.182933 198.464372 
L 554.265389 197.908586 
L 554.63191 197.908586 
L 555.788762 195.685439 
L 559.376489 195.685439 
L 559.402327 195.129652 
L 562.816791 195.129652 
L 563.01533 194.573866 
L 563.530323 194.573866 
L 563.920771 194.018079 
L 564.002216 194.573866 
L 564.294593 194.018079 
L 565.59359 194.018079 
L 565.606022 193.462292 
L 565.950974 193.462292 
L 566.10203 192.906506 
L 567.145797 192.350719 
L 574.4079 192.350719 
L 575.542959 191.794932 
L 576.302774 191.794932 
L 576.919208 191.239146 
L 577.542794 191.794932 
L 580.110345 191.794932 
L 580.221073 190.683359 
L 583.906983 190.683359 
L 585.337115 189.015999 
L 600.860191 189.015999 
L 601.762374 188.460212 
L 625.723091 188.460212 
L 625.870291 187.904426 
L 661.078064 187.904426 
L 661.233164 187.348639 
L 661.244286 186.792852 
L 661.255332 187.348639 
L 666.386803 187.348639 
L 667.545416 186.792852 
L 687.761657 186.792852 
L 691.921707 186.237066 
L 691.962148 185.681279 
L 692.306538 185.681279 
L 693.385279 185.125492 
L 725.831006 185.125492 
L 726.016027 184.569706 
L 754.998947 184.569706 
L 758.702419 184.013919 
L 760.967782 184.013919 
L 761.213614 183.458132 
L 762.788138 182.902346 
L 767.203644 182.902346 
L 769.063281 182.346559 
L 771.009193 182.346559 
L 771.160736 181.790772 
L 774.361385 181.790772 
L 774.743708 181.234986 
L 774.819386 180.679199 
L 780.517861 180.679199 
L 780.539955 180.123412 
L 785.391929 180.123412 
L 785.402638 179.567626 
L 787.046587 179.011839 
L 789.965044 179.011839 
L 792.065233 178.456052 
L 793.944754 178.456052 
L 796.714925 175.121332 
L 799.94905 175.121332 
L 799.964029 172.342399 
L 812.012614 172.342399 
L 812.012614 172.342399 
" clip-path="url(#p9f4bc9ce1c)" style="fill: none; stroke: #3fb950; stroke-width: 2; stroke-linecap: square"/>
   </g>
   <g id="line2d_34">
    <path d="M 85.239886 455.237812 
L 85.341177 453.570452 
L 85.451381 453.570452 
L 85.535634 372.981386 
L 87.063388 372.981386 
L 87.094805 370.758239 
L 88.669666 370.758239 
L 89.07543 369.090879 
L 89.627532 370.758239 
L 89.631614 369.090879 
L 90.088453 369.090879 
L 90.26501 367.979306 
L 94.776527 367.979306 
L 94.780833 367.423519 
L 94.806222 367.979306 
L 95.028276 367.423519 
L 95.093394 367.979306 
L 95.267068 367.423519 
L 96.850242 367.423519 
L 96.933072 366.867732 
L 97.158684 366.311946 
L 98.946163 366.311946 
L 100.980298 365.756159 
L 101.051894 365.200372 
L 101.601674 364.644586 
L 101.613582 364.088799 
L 105.720346 367.979306 
L 106.331388 366.311946 
L 106.777556 363.533012 
L 109.288601 363.533012 
L 110.623547 367.979306 
L 110.710159 363.533012 
L 135.103937 363.533012 
L 135.85248 362.977226 
L 137.544996 362.977226 
L 142.16754 362.421439 
L 143.293537 361.865652 
L 159.337223 361.865652 
L 159.756991 361.309866 
L 161.913649 360.754079 
L 163.284392 360.754079 
L 164.803796 360.198292 
L 164.844725 359.086719 
L 165.889165 358.530932 
L 166.591125 357.975146 
L 176.261523 357.975146 
L 178.189236 357.419359 
L 178.772007 357.419359 
L 179.099021 356.863572 
L 180.356154 356.863572 
L 181.605087 356.307786 
L 185.540423 356.307786 
L 185.737239 358.530932 
L 185.7469 356.307786 
L 187.250539 356.307786 
L 187.401483 355.751999 
L 189.529832 355.751999 
L 191.623843 355.196212 
L 191.674657 354.640426 
L 198.074831 354.640426 
L 200.774342 354.084639 
L 200.781157 353.528852 
L 209.764272 353.528852 
L 213.511481 352.973066 
L 216.322843 352.973066 
L 217.087188 352.417279 
L 221.378523 352.417279 
L 223.826135 351.861492 
L 223.960303 351.305706 
L 226.346617 351.305706 
L 226.623566 350.749919 
L 227.385066 350.194132 
L 229.084996 350.194132 
L 230.15827 349.638346 
L 232.126088 349.638346 
L 233.410407 349.082559 
L 236.150246 349.082559 
L 237.08366 347.970986 
L 244.171265 347.970986 
L 246.189748 347.415199 
L 248.556627 347.415199 
L 249.09038 346.859412 
L 249.253607 346.303626 
L 249.746319 345.747839 
L 257.896938 345.747839 
L 259.389232 345.192052 
L 260.336874 344.636266 
L 283.514111 344.636266 
L 288.716841 344.080479 
L 288.779001 343.524692 
L 292.32022 343.524692 
L 295.34697 342.968906 
L 300.696713 342.968906 
L 301.148759 342.413119 
L 310.259603 342.413119 
L 317.391619 341.857332 
L 317.46007 341.301546 
L 318.392473 341.301546 
L 320.28158 340.745759 
L 320.386952 339.078399 
L 320.470082 338.522612 
L 324.416091 337.966826 
L 324.652374 337.411039 
L 324.746551 336.299466 
L 325.103934 335.743679 
L 337.944649 335.743679 
L 341.592477 335.187892 
L 343.91457 334.632106 
L 345.733691 334.632106 
L 349.951482 334.076319 
L 350.268648 331.853172 
L 350.525864 331.853172 
L 351.1323 330.741599 
L 359.132574 330.185812 
L 359.387206 329.630026 
L 359.462322 329.074239 
L 361.152517 329.074239 
L 362.748572 328.518452 
L 362.93202 327.962666 
L 363.056602 326.851092 
L 364.113063 326.295306 
L 364.190613 325.739519 
L 366.118177 325.183732 
L 368.651915 324.627946 
L 368.832104 324.072159 
L 368.835924 323.516372 
L 369.345562 322.960586 
L 369.435582 322.404799 
L 373.111007 321.849012 
L 373.769904 321.293226 
L 389.242802 321.293226 
L 391.808743 320.737439 
L 392.042256 320.181652 
L 402.529048 320.181652 
L 402.928596 319.070079 
L 407.297893 319.070079 
L 408.617036 318.514292 
L 408.68148 317.402719 
L 409.020216 316.846932 
L 411.263186 316.291146 
L 411.313701 315.735359 
L 411.584434 315.179572 
L 411.633451 313.512212 
L 411.861871 312.956426 
L 412.170912 312.956426 
L 412.182295 312.400639 
L 414.054776 311.844852 
L 414.790925 311.289066 
L 414.969055 310.733279 
L 418.342629 310.177492 
L 420.82881 310.177492 
L 421.692125 309.621706 
L 431.039551 309.621706 
L 434.136288 309.065919 
L 434.148607 308.510132 
L 434.70554 307.954346 
L 441.99745 307.954346 
L 444.043418 307.398559 
L 444.88625 306.842772 
L 445.11115 305.731199 
L 451.009549 305.731199 
L 451.411418 305.175412 
L 454.650411 305.175412 
L 456.201083 304.619626 
L 460.618984 304.619626 
L 463.289811 304.063839 
L 468.836257 304.063839 
L 469.517959 303.508052 
L 472.262105 303.508052 
L 473.009038 302.952266 
L 473.333057 302.396479 
L 473.492652 301.840692 
L 475.751499 301.840692 
L 475.815719 300.729119 
L 476.640352 300.729119 
L 477.181782 299.061759 
L 479.146679 299.061759 
L 479.390714 298.505972 
L 479.580153 298.505972 
L 480.520643 297.950186 
L 482.08135 297.950186 
L 482.136133 297.394399 
L 483.270668 297.394399 
L 483.546233 296.838612 
L 484.612579 296.838612 
L 486.245256 295.727039 
L 486.953545 295.727039 
L 489.692898 294.615466 
L 489.697017 294.059679 
L 490.220024 293.503892 
L 491.554445 292.948106 
L 491.761932 292.392319 
L 493.092384 291.836532 
L 495.267241 291.836532 
L 495.588002 291.280746 
L 495.774333 290.724959 
L 498.64411 290.724959 
L 498.719414 290.169172 
L 499.475071 290.169172 
L 499.533075 289.613386 
L 499.947751 289.057599 
L 501.390615 289.057599 
L 501.500369 288.501812 
L 501.747549 288.501812 
L 501.80896 287.946026 
L 501.908604 287.946026 
L 501.911974 287.390239 
L 503.940941 287.390239 
L 504.342736 286.834452 
L 504.680123 286.834452 
L 504.881769 286.278666 
L 505.396725 286.278666 
L 505.782267 285.722879 
L 505.863562 285.167092 
L 505.973766 285.167092 
L 507.911852 284.611306 
L 509.362168 284.611306 
L 509.471959 284.055519 
L 515.19309 284.055519 
L 515.220538 283.499732 
L 515.54246 283.499732 
L 516.183009 282.388159 
L 518.232235 282.388159 
L 518.411413 280.720799 
L 518.463687 279.609226 
L 518.801412 279.053439 
L 520.160285 279.053439 
L 520.801171 278.497652 
L 521.422361 278.497652 
L 521.622659 277.941866 
L 522.58558 277.386079 
L 523.476567 277.386079 
L 525.26779 276.830292 
L 525.293029 276.274506 
L 525.840413 276.274506 
L 525.931144 275.718719 
L 527.523455 275.718719 
L 527.567678 275.162932 
L 535.289804 275.162932 
L 535.409107 274.607146 
L 535.638837 274.607146 
L 535.74069 273.495572 
L 536.735028 273.495572 
L 536.815237 272.939786 
L 536.946635 272.939786 
L 537.635339 272.383999 
L 537.808451 271.828212 
L 538.124757 271.828212 
L 538.39242 271.272426 
L 538.479669 270.716639 
L 542.359848 270.716639 
L 543.339245 270.160852 
L 543.53269 269.049279 
L 543.77107 268.493492 
L 544.169008 268.493492 
L 544.411545 267.937706 
L 549.980046 267.937706 
L 550.347652 266.270346 
L 551.108515 266.270346 
L 551.220216 265.714559 
L 554.193381 265.714559 
L 554.265389 264.602986 
L 557.836303 264.602986 
L 557.873299 264.047199 
L 559.593488 264.047199 
L 559.605059 263.491412 
L 560.442723 263.491412 
L 560.465378 262.935626 
L 563.01533 262.935626 
L 563.142159 262.379839 
L 563.303738 262.379839 
L 563.530323 261.824052 
L 563.99027 261.824052 
L 564.002216 261.268266 
L 564.294593 261.268266 
L 564.852349 260.712479 
L 569.357388 260.712479 
L 569.684814 260.156692 
L 571.02152 260.156692 
L 571.023991 259.600906 
L 581.243944 259.600906 
L 582.978549 259.045119 
L 583.028839 258.489332 
L 583.906983 257.933546 
L 585.242265 257.933546 
L 585.337115 256.821972 
L 585.578641 256.821972 
L 585.679183 256.266186 
L 589.225458 256.266186 
L 589.865857 255.710399 
L 595.999978 255.710399 
L 596.018851 255.154612 
L 598.022318 255.154612 
L 598.878517 254.598826 
L 608.308288 254.598826 
L 608.42598 253.487252 
L 612.134545 253.487252 
L 612.872191 252.931466 
L 613.662112 252.931466 
L 614.627766 252.375679 
L 621.010752 252.375679 
L 621.621981 251.819892 
L 622.151616 251.819892 
L 622.411303 251.264106 
L 624.444689 250.708319 
L 625.440075 250.708319 
L 625.764656 250.152532 
L 625.870291 250.152532 
L 628.726999 249.596746 
L 633.986759 249.596746 
L 634.398364 249.040959 
L 654.699608 249.040959 
L 655.441373 248.485172 
L 660.136075 248.485172 
L 660.305742 247.929386 
L 660.610702 247.929386 
L 660.702631 247.373599 
L 686.920548 247.373599 
L 687.761657 246.817812 
L 694.021597 246.817812 
L 695.381444 246.262026 
L 695.472587 245.706239 
L 698.729592 245.706239 
L 698.864734 245.150452 
L 709.41451 245.150452 
L 709.436116 244.594666 
L 718.341869 244.594666 
L 718.43773 244.038879 
L 719.016157 243.483092 
L 721.201573 243.483092 
L 721.206591 242.927306 
L 721.650699 242.371519 
L 724.931968 242.371519 
L 726.016027 241.815732 
L 733.012863 241.815732 
L 733.062142 240.704159 
L 777.413673 240.704159 
L 780.539955 240.148372 
L 784.473194 240.148372 
L 784.603881 239.592586 
L 802.041788 239.592586 
L 802.071071 239.036799 
L 812.012614 239.036799 
L 812.012614 239.036799 
" clip-path="url(#p9f4bc9ce1c)" style="fill: none; stroke: #58a6ff; stroke-width: 2; stroke-linecap: square"/>
   </g>
   <g id="line2d_35">
    <path d="M 85.239886 455.237812 
L 88.349092 455.237812 
L 88.361 454.126239 
L 90.92784 454.126239 
L 91.514093 453.570452 
L 249.746319 453.570452 
L 251.479652 453.014666 
L 295.34697 453.014666 
L 296.564373 452.458879 
L 337.944649 452.458879 
L 341.592477 451.903092 
L 351.1323 451.903092 
L 359.462322 450.235732 
L 361.152517 449.124159 
L 364.190613 449.124159 
L 366.118177 448.568372 
L 368.835924 448.012586 
L 369.435582 448.012586 
L 373.111007 447.456799 
L 373.769904 446.901012 
L 376.720639 446.345226 
L 382.488652 445.789439 
L 382.522017 446.345226 
L 392.042256 446.345226 
L 392.710665 445.789439 
L 406.297152 445.789439 
L 407.297893 445.233652 
L 411.861871 445.233652 
L 412.182295 444.677866 
L 417.850927 444.677866 
L 418.342629 444.122079 
L 439.1088 444.122079 
L 441.053964 443.566292 
L 441.871482 443.566292 
L 441.99745 443.010506 
L 447.539777 443.010506 
L 447.545057 442.454719 
L 460.598352 442.454719 
L 460.618984 441.898932 
L 464.42225 441.898932 
L 465.391873 441.343146 
L 466.820358 440.787359 
L 466.822867 440.231572 
L 467.047692 440.231572 
L 468.836257 438.564212 
L 470.041115 438.564212 
L 470.110465 436.896852 
L 470.57603 436.896852 
L 472.262105 437.452639 
L 473.474678 437.452639 
L 473.492652 435.229492 
L 478.007538 435.229492 
L 478.678531 434.673706 
L 479.390714 434.673706 
L 479.580153 434.117919 
L 495.774333 434.117919 
L 495.991669 433.562132 
L 496.807502 433.562132 
L 498.074109 433.006346 
L 503.662194 433.006346 
L 503.940941 432.450559 
L 505.863562 432.450559 
L 505.973766 431.894772 
L 512.341137 431.894772 
L 512.469314 431.338986 
L 512.926753 431.338986 
L 513.390707 430.783199 
L 513.854213 430.783199 
L 513.881698 430.227412 
L 515.852624 430.227412 
L 515.970316 429.671626 
L 525.120179 429.671626 
L 525.244911 429.115839 
L 525.293029 429.115839 
L 525.386943 428.560052 
L 525.931144 428.560052 
L 527.07197 428.004266 
L 531.532111 428.004266 
L 531.536043 427.448479 
L 532.388273 427.448479 
L 532.420701 426.892692 
L 534.839817 426.892692 
L 535.347958 426.336906 
L 538.571785 426.336906 
L 539.506809 425.781119 
L 541.325218 425.781119 
L 541.344503 424.669546 
L 541.491965 424.669546 
L 541.677546 424.113759 
L 544.602781 424.113759 
L 545.054153 423.557972 
L 545.755777 423.557972 
L 546.019695 423.002186 
L 547.732245 423.002186 
L 547.971374 422.446399 
L 547.974445 421.890612 
L 548.456448 421.890612 
L 548.658843 421.334826 
L 567.106628 421.334826 
L 567.145797 420.223252 
L 569.684814 420.223252 
L 570.415571 419.667466 
L 571.023991 419.667466 
L 573.878153 419.111679 
L 574.4079 419.111679 
L 575.542959 418.555892 
L 576.302774 418.555892 
L 576.919208 418.000106 
L 577.542794 418.555892 
L 579.55023 418.555892 
L 580.096116 418.000106 
L 580.221073 416.888532 
L 581.237092 416.332746 
L 581.243944 415.221172 
L 585.679183 415.221172 
L 586.649144 414.665386 
L 586.747439 412.998026 
L 587.716913 412.442239 
L 588.253063 411.886452 
L 592.83861 411.886452 
L 593.033179 410.219092 
L 593.267066 410.219092 
L 593.440478 409.663306 
L 594.561158 409.107519 
L 596.325196 409.107519 
L 596.688608 408.551732 
L 596.771288 407.995946 
L 596.95672 407.995946 
L 598.022318 406.884372 
L 599.164005 406.884372 
L 599.538875 406.328586 
L 600.855847 406.328586 
L 600.860191 405.217012 
L 601.762374 405.217012 
L 602.96008 404.661226 
L 606.133206 403.549652 
L 606.416485 402.993866 
L 612.872191 402.993866 
L 613.662112 401.882292 
L 625.723091 401.882292 
L 625.870291 400.770719 
L 631.740868 400.770719 
L 632.637846 400.214932 
L 635.359825 400.214932 
L 635.512604 399.659146 
L 652.258511 399.659146 
L 652.5258 399.103359 
L 654.184503 399.103359 
L 654.699608 398.547572 
L 657.795259 398.547572 
L 658.377467 397.991786 
L 658.381287 397.435999 
L 659.047149 396.880212 
L 661.078064 396.880212 
L 661.233164 396.324426 
L 661.244286 395.212852 
L 661.255332 395.768639 
L 662.620085 395.212852 
L 667.545416 395.212852 
L 668.516949 394.101279 
L 677.403791 394.101279 
L 678.090886 393.545492 
L 680.246757 393.545492 
L 680.419345 392.989706 
L 680.443086 392.433919 
L 687.761657 392.433919 
L 692.306538 391.322346 
L 693.385279 391.322346 
L 694.021597 390.766559 
L 703.435789 390.766559 
L 704.592942 390.210772 
L 706.026782 390.210772 
L 707.415462 389.654986 
L 719.016157 389.654986 
L 719.334522 389.099199 
L 719.336244 388.543412 
L 725.831006 388.543412 
L 726.016027 387.987626 
L 754.998947 387.987626 
L 758.702419 387.431839 
L 767.203644 387.431839 
L 769.063281 386.876052 
L 770.699516 386.876052 
L 771.009193 386.320266 
L 774.819386 386.320266 
L 775.463005 385.764479 
L 776.311866 385.764479 
L 777.413673 385.208692 
L 780.054693 385.208692 
L 780.539955 384.652906 
L 780.865022 384.652906 
L 782.048462 384.097119 
L 793.481848 384.097119 
L 793.513827 382.429759 
L 803.490082 382.429759 
L 807.72053 381.873972 
L 807.723975 381.318186 
L 812.012614 381.318186 
L 812.012614 381.318186 
" clip-path="url(#p9f4bc9ce1c)" style="fill: none; stroke: #d29922; stroke-width: 2; stroke-linecap: square"/>
   </g>
   <g id="line2d_36">
    <path d="M 85.239886 454.682026 
L 85.505827 454.682026 
L 85.623594 432.450559 
L 86.239055 426.892692 
L 86.590746 425.781119 
L 86.769176 426.336906 
L 87.094805 425.781119 
L 87.645522 425.225332 
L 88.027619 424.113759 
L 88.349092 423.557972 
L 88.361 423.002186 
L 88.669666 421.334826 
L 89.07543 421.334826 
L 89.627532 420.779039 
L 89.631614 420.223252 
L 90.076133 419.667466 
L 90.198694 419.111679 
L 90.26501 419.111679 
L 90.92784 418.555892 
L 91.401418 418.000106 
L 91.514093 411.886452 
L 91.592017 412.442239 
L 91.782542 408.551732 
L 92.104427 402.993866 
L 94.780833 402.993866 
L 94.806222 402.438079 
L 95.028276 399.659146 
L 95.093394 402.438079 
L 95.395095 397.991786 
L 95.544504 397.435999 
L 96.657658 396.880212 
L 96.691247 396.324426 
L 96.933072 395.768639 
L 97.158684 395.768639 
L 97.731943 395.212852 
L 98.038175 394.657066 
L 98.176875 393.545492 
L 98.26124 392.989706 
L 98.547327 392.433919 
L 98.554404 391.878132 
L 98.842138 392.433919 
L 98.924032 391.878132 
L 98.934105 392.433919 
L 98.946163 390.766559 
L 101.613582 390.766559 
L 105.720346 402.993866 
L 106.331388 390.210772 
L 106.777556 389.654986 
L 108.372525 389.654986 
L 108.664266 389.099199 
L 109.288601 388.543412 
L 110.623547 402.993866 
L 110.710159 387.987626 
L 111.734528 387.431839 
L 113.925149 386.876052 
L 114.081374 387.431839 
L 114.400487 385.764479 
L 115.103683 385.764479 
L 115.31735 385.208692 
L 115.720904 384.652906 
L 115.75438 383.541332 
L 116.12663 382.429759 
L 116.148199 382.985546 
L 116.369616 382.985546 
L 116.491016 381.873972 
L 116.864725 379.650826 
L 116.913854 378.539252 
L 117.393311 376.871892 
L 117.627648 377.983466 
L 119.284553 374.648746 
L 119.720835 375.760319 
L 121.51629 373.537172 
L 122.938671 377.427679 
L 123.437862 373.537172 
L 125.487986 371.869812 
L 128.510992 371.869812 
L 128.91024 371.314026 
L 129.227968 369.646666 
L 130.12079 371.314026 
L 133.762626 371.869812 
L 134.666045 369.646666 
L 135.103937 367.979306 
L 135.85248 369.646666 
L 137.544996 367.979306 
L 143.293537 367.979306 
L 149.338163 367.423519 
L 149.741268 366.867732 
L 153.557414 366.311946 
L 156.080817 366.311946 
L 156.550538 365.756159 
L 156.652728 366.311946 
L 159.337223 364.644586 
L 161.855196 364.644586 
L 161.913649 364.088799 
L 163.284392 363.533012 
L 166.591125 363.533012 
L 168.049792 359.642506 
L 169.13546 359.086719 
L 170.532454 358.530932 
L 170.559564 357.975146 
L 175.795434 357.975146 
L 175.896575 354.084639 
L 176.090358 354.084639 
L 176.261523 352.973066 
L 178.189236 352.973066 
L 178.772007 352.417279 
L 181.605087 352.417279 
L 185.540423 351.861492 
L 185.737239 363.533012 
L 185.7469 352.417279 
L 185.998948 351.861492 
L 187.401483 351.861492 
L 189.529832 351.305706 
L 191.674657 351.305706 
L 193.378407 350.749919 
L 198.074831 349.638346 
L 200.781157 349.638346 
L 202.956163 349.082559 
L 203.294599 346.303626 
L 203.523655 346.303626 
L 203.928969 345.747839 
L 206.043126 345.192052 
L 206.531832 342.968906 
L 209.453771 341.857332 
L 209.48897 342.413119 
L 209.764272 341.857332 
L 213.511481 340.745759 
L 216.322843 340.189972 
L 217.666064 340.189972 
L 218.856618 339.634186 
L 219.888364 338.522612 
L 220.982682 337.966826 
L 221.378523 337.411039 
L 223.960303 337.966826 
L 226.346617 336.855252 
L 226.623566 337.411039 
L 227.257787 337.411039 
L 227.385066 336.855252 
L 229.084996 336.299466 
L 230.15827 336.855252 
L 232.126088 335.743679 
L 233.410407 335.743679 
L 236.150246 335.187892 
L 236.604577 335.743679 
L 237.08366 334.076319 
L 238.746069 334.076319 
L 239.074994 333.520532 
L 240.506475 331.297386 
L 240.910928 330.185812 
L 241.96121 330.741599 
L 242.423891 329.630026 
L 242.470174 329.074239 
L 246.189748 329.074239 
L 248.073612 328.518452 
L 248.556627 327.962666 
L 251.479652 327.962666 
L 253.536404 327.406879 
L 257.029767 327.406879 
L 257.896938 326.851092 
L 267.503079 326.851092 
L 268.054769 326.295306 
L 268.110039 325.739519 
L 268.483599 325.183732 
L 272.652748 325.183732 
L 272.912585 324.627946 
L 273.973314 324.072159 
L 274.157023 323.516372 
L 275.914433 322.960586 
L 277.192648 322.404799 
L 282.313858 322.404799 
L 283.514111 321.293226 
L 288.779001 321.293226 
L 289.951506 320.737439 
L 294.858189 320.737439 
L 295.34697 320.181652 
L 296.564373 319.625866 
L 296.926774 319.070079 
L 297.049821 318.514292 
L 300.696713 317.958506 
L 301.148759 318.514292 
L 305.949658 317.402719 
L 309.745508 316.291146 
L 310.259603 315.735359 
L 317.46007 315.735359 
L 318.392473 315.179572 
L 325.103934 315.179572 
L 331.425996 314.623786 
L 332.221197 314.067999 
L 334.874424 313.512212 
L 337.535141 312.956426 
L 337.944649 312.400639 
L 343.91457 312.400639 
L 345.733691 311.844852 
L 359.462322 311.844852 
L 361.152517 311.289066 
L 372.492738 311.289066 
L 373.111007 310.733279 
L 373.769904 311.289066 
L 376.720639 310.733279 
L 386.651061 310.733279 
L 387.981812 310.177492 
L 408.989211 310.177492 
L 409.020216 309.621706 
L 421.994388 309.621706 
L 424.84488 309.065919 
L 424.852182 308.510132 
L 439.102472 308.510132 
L 439.1088 307.398559 
L 447.545057 307.398559 
L 451.411418 306.842772 
L 456.201083 306.842772 
L 460.618984 305.731199 
L 469.517959 305.731199 
L 470.041115 305.175412 
L 470.110465 304.619626 
L 473.474678 304.619626 
L 473.492652 304.063839 
L 473.841984 304.063839 
L 474.398842 303.508052 
L 479.390714 303.508052 
L 479.580153 302.952266 
L 486.245256 302.952266 
L 486.518274 302.396479 
L 502.795547 302.396479 
L 503.660958 300.729119 
L 503.662194 300.173332 
L 505.968261 300.173332 
L 505.973766 299.617546 
L 512.775846 299.617546 
L 512.926753 299.061759 
L 516.183009 299.061759 
L 516.29999 298.505972 
L 528.396805 298.505972 
L 528.629419 297.950186 
L 531.43726 297.950186 
L 531.536043 297.394399 
L 532.420701 296.838612 
L 554.63191 296.838612 
L 555.788762 295.727039 
L 557.520409 295.727039 
L 557.873299 295.171252 
L 559.605059 295.171252 
L 559.861713 294.615466 
L 563.953311 294.615466 
L 564.002216 294.059679 
L 586.647234 294.059679 
L 586.747439 292.948106 
L 615.052814 292.948106 
L 615.787951 292.392319 
L 664.116197 292.392319 
L 666.386803 291.836532 
L 686.810682 291.836532 
L 686.920548 291.280746 
L 696.064269 291.280746 
L 696.508714 290.724959 
L 812.012614 290.724959 
L 812.012614 290.724959 
" clip-path="url(#p9f4bc9ce1c)" style="fill: none; stroke: #f85149; stroke-width: 2; stroke-linecap: square"/>
   </g>
   <g id="line2d_37">
    <path d="M 85.239886 454.682026 
L 85.261043 454.126239 
L 85.427849 -1 
M 85.577773 -1 
L 85.623594 101.201706 
L 88.349092 101.201706 
L 88.361 97.866986 
L 91.514093 97.866986 
L 91.666684 98.422772 
L 92.104427 98.422772 
L 92.459189 98.978559 
L 94.657449 99.534346 
L 94.700849 98.978559 
L 94.806222 99.534346 
L 101.613582 99.534346 
L 105.720346 98.422772 
L 106.331388 99.534346 
L 106.777556 98.978559 
L 107.902055 99.534346 
L 108.372525 96.755412 
L 109.288601 96.755412 
L 110.623547 98.422772 
L 110.710159 95.643839 
L 111.734528 96.199626 
L 114.400487 96.199626 
L 115.103683 95.088052 
L 116.148199 95.088052 
L 116.428181 91.197546 
L 122.938671 91.197546 
L 123.413522 87.862826 
L 123.437862 86.751252 
L 125.487986 86.751252 
L 128.510992 82.860746 
L 130.096787 82.860746 
L 130.12079 83.416532 
L 133.762626 83.416532 
L 134.666045 80.081812 
L 137.52515 80.081812 
L 137.544996 80.637599 
L 153.557414 80.637599 
L 156.550538 81.193386 
L 156.652728 80.637599 
L 159.756991 81.193386 
L 170.559564 81.193386 
L 175.795434 81.749172 
L 175.896575 74.523946 
L 176.145291 75.079732 
L 179.099021 75.079732 
L 180.356154 75.635519 
L 185.540423 75.635519 
L 185.737239 80.637599 
L 185.7469 71.745012 
L 185.998948 71.745012 
L 187.250539 73.968159 
L 193.378407 73.968159 
L 198.074831 70.077652 
L 203.294599 70.077652 
L 203.523655 68.410292 
L 217.087188 68.410292 
L 217.666064 68.966079 
L 220.959466 68.966079 
L 220.982682 70.077652 
L 227.257787 70.077652 
L 227.385066 73.412372 
L 237.08366 73.412372 
L 237.3153 68.410292 
L 238.742662 67.298719 
L 238.746069 67.854506 
L 239.074994 67.854506 
L 240.2469 65.075572 
L 241.96121 65.075572 
L 242.423891 65.631359 
L 242.470174 65.075572 
L 243.529668 65.631359 
L 243.534498 66.187146 
L 243.55925 65.631359 
L 244.171265 63.408212 
L 249.746319 63.408212 
L 251.479652 63.963999 
L 253.536404 63.963999 
L 257.029767 64.519786 
L 260.336874 64.519786 
L 262.891956 65.631359 
L 268.110039 65.075572 
L 268.483599 65.075572 
L 271.736297 66.187146 
L 272.652748 65.631359 
L 277.192648 65.631359 
L 282.311087 67.854506 
L 282.313858 67.298719 
L 289.951506 67.298719 
L 292.32022 67.854506 
L 334.533517 67.854506 
L 334.874424 68.410292 
L 337.516156 68.410292 
L 337.535141 66.742932 
L 350.268648 66.742932 
L 350.525864 67.298719 
L 376.720639 67.298719 
L 382.488652 67.854506 
L 382.522017 67.298719 
L 386.651061 68.966079 
L 387.981812 68.966079 
L 389.242802 68.410292 
L 392.710665 68.410292 
L 396.01942 68.966079 
L 396.024849 69.521866 
L 405.406427 67.854506 
L 406.297152 68.410292 
L 417.850927 68.410292 
L 418.342629 67.854506 
L 419.243352 68.410292 
L 419.552879 70.633439 
L 424.847614 70.633439 
L 424.852182 71.189226 
L 441.053964 71.189226 
L 441.99745 71.745012 
L 445.11115 71.745012 
L 445.41491 72.300799 
L 460.598352 72.300799 
L 460.618984 72.856586 
L 463.289811 72.856586 
L 464.416595 73.412372 
L 464.42225 73.968159 
L 465.343755 73.412372 
L 465.391873 73.968159 
L 466.822867 73.968159 
L 467.047692 74.523946 
L 470.041115 74.523946 
L 470.110465 73.412372 
L 470.57603 74.523946 
L 472.262105 72.856586 
L 476.339324 72.856586 
L 476.640352 71.189226 
L 478.007538 71.189226 
L 478.678531 72.300799 
L 482.136133 72.300799 
L 483.270668 72.856586 
L 483.546233 72.856586 
L 484.612579 70.077652 
L 486.518274 70.077652 
L 486.953545 70.633439 
L 495.774333 70.633439 
L 495.991669 71.189226 
L 496.807502 71.189226 
L 498.074109 71.745012 
L 512.341137 71.745012 
L 512.469314 72.300799 
L 512.926753 72.300799 
L 513.881698 73.412372 
L 515.220538 73.412372 
L 515.54246 72.856586 
L 515.852624 72.856586 
L 515.970316 73.412372 
L 519.550741 73.412372 
L 520.160285 73.968159 
L 523.276756 73.968159 
L 523.476567 74.523946 
L 525.183649 74.523946 
L 525.293029 75.079732 
L 530.598248 75.079732 
L 530.712308 75.635519 
L 533.806386 75.635519 
L 534.839817 77.858666 
L 535.985586 77.858666 
L 535.986784 78.414452 
L 540.63906 78.414452 
L 541.491965 78.970239 
L 545.054153 78.970239 
L 545.755777 79.526026 
L 548.456448 79.526026 
L 548.658843 80.081812 
L 553.050832 80.081812 
L 554.182933 80.637599 
L 554.265389 81.193386 
L 554.63191 81.193386 
L 555.788762 60.629279 
L 559.376489 60.629279 
L 559.402327 61.185066 
L 559.605059 61.185066 
L 559.861713 60.629279 
L 562.816791 60.629279 
L 563.01533 61.185066 
L 563.530323 61.185066 
L 563.920771 61.740852 
L 564.002216 61.185066 
L 565.59359 61.185066 
L 565.606022 61.740852 
L 565.950974 61.740852 
L 566.10203 62.296639 
L 567.145797 62.852426 
L 574.4079 62.852426 
L 575.542959 63.408212 
L 576.302774 63.408212 
L 576.919208 63.963999 
L 577.542794 63.408212 
L 580.110345 63.408212 
L 580.221073 64.519786 
L 583.906983 64.519786 
L 585.337115 66.187146 
L 600.860191 66.187146 
L 601.762374 66.742932 
L 625.723091 66.742932 
L 625.870291 67.298719 
L 661.078064 67.298719 
L 661.233164 67.854506 
L 661.244286 68.410292 
L 661.255332 67.854506 
L 666.386803 67.854506 
L 667.545416 68.410292 
L 687.761657 68.410292 
L 692.306538 68.966079 
L 693.376329 69.521866 
L 693.385279 67.854506 
L 725.831006 67.854506 
L 726.016027 68.410292 
L 754.998947 68.410292 
L 758.702419 68.966079 
L 760.967782 68.966079 
L 761.213614 69.521866 
L 762.788138 70.077652 
L 767.203644 70.077652 
L 769.063281 70.633439 
L 771.009193 70.633439 
L 771.160736 71.189226 
L 774.361385 71.189226 
L 774.743708 71.745012 
L 774.819386 72.300799 
L 780.517861 72.300799 
L 780.539955 72.856586 
L 784.603881 72.856586 
L 785.391929 72.300799 
L 785.402638 72.856586 
L 787.046587 73.412372 
L 789.965044 73.412372 
L 792.065233 73.968159 
L 793.944754 73.968159 
L 796.714925 61.740852 
L 799.94905 61.740852 
L 799.964029 64.519786 
L 812.012614 64.519786 
L 812.012614 64.519786 
" clip-path="url(#p9f4bc9ce1c)" style="fill: none; stroke: #9467bd; stroke-width: 2; stroke-linecap: square"/>
   </g>
   <g id="patch_3">
    <path d="M 48.90125 455.237812 
L 48.90125 38.397812 
" style="fill: none; stroke: #30363d; stroke-width: 0.8; stroke-linejoin: miter; stroke-linecap: square"/>
   </g>
   <g id="patch_4">
    <path d="M 848.35125 455.237812 
L 848.35125 38.397812 
" style="fill: none; stroke: #30363d; stroke-width: 0.8; stroke-linejoin: miter; stroke-linecap: square"/>
   </g>
   <g id="patch_5">
    <path d="M 48.90125 455.237812 
L 848.35125 455.237812 
" style="fill: none; stroke: #30363d; stroke-width: 0.8; stroke-linejoin: miter; stroke-linecap: square"/>
   </g>
   <g id="patch_6">
    <path d="M 48.90125 38.397812 
L 848.35125 38.397812 
" style="fill: none; stroke: #30363d; stroke-width: 0.8; stroke-linejoin: miter; stroke-linecap: square"/>
   </g>
   <g id="text_19">
    <!-- 509 -->
    <g style="fill: #3fb950" transform="translate(817.012614 174.825837) scale(0.09 -0.09)">
     <defs>
      <path id="DejaVuSans-Bold-35" d="M 678 4666 
L 3669 4666 
L 3669 3781 
L 1638 3781 
L 1638 3059 
Q 1775 3097 1914 3117 
Q 2053 3138 2203 3138 
Q 3056 3138 3531 2711 
Q 4006 2284 4006 1522 
Q 4006 766 3489 337 
Q 2972 -91 2053 -91 
Q 1656 -91 1267 -14 
Q 878 63 494 219 
L 494 1166 
Q 875 947 1217 837 
Q 1559 728 1863 728 
Q 2300 728 2551 942 
Q 2803 1156 2803 1522 
Q 2803 1891 2551 2103 
Q 2300 2316 1863 2316 
Q 1603 2316 1309 2248 
Q 1016 2181 678 2041 
L 678 4666 
z
" transform="scale(0.015625)"/>
      <path id="DejaVuSans-Bold-30" d="M 2944 2338 
Q 2944 3213 2780 3570 
Q 2616 3928 2228 3928 
Q 1841 3928 1675 3570 
Q 1509 3213 1509 2338 
Q 1509 1453 1675 1090 
Q 1841 728 2228 728 
Q 2613 728 2778 1090 
Q 2944 1453 2944 2338 
z
M 4147 2328 
Q 4147 1169 3647 539 
Q 3147 -91 2228 -91 
Q 1306 -91 806 539 
Q 306 1169 306 2328 
Q 306 3491 806 4120 
Q 1306 4750 2228 4750 
Q 3147 4750 3647 4120 
Q 4147 3491 4147 2328 
z
" transform="scale(0.015625)"/>
      <path id="DejaVuSans-Bold-39" d="M 641 103 
L 641 966 
Q 928 831 1190 764 
Q 1453 697 1709 697 
Q 2247 697 2547 995 
Q 2847 1294 2900 1881 
Q 2688 1725 2447 1647 
Q 2206 1569 1925 1569 
Q 1209 1569 770 1986 
Q 331 2403 331 3084 
Q 331 3838 820 4291 
Q 1309 4744 2131 4744 
Q 3044 4744 3544 4128 
Q 4044 3513 4044 2388 
Q 4044 1231 3459 570 
Q 2875 -91 1856 -91 
Q 1528 -91 1228 -42 
Q 928 6 641 103 
z
M 2125 2350 
Q 2441 2350 2600 2554 
Q 2759 2759 2759 3169 
Q 2759 3575 2600 3781 
Q 2441 3988 2125 3988 
Q 1809 3988 1650 3781 
Q 1491 3575 1491 3169 
Q 1491 2759 1650 2554 
Q 1809 2350 2125 2350 
z
" transform="scale(0.015625)"/>
     </defs>
     <use xlink:href="#DejaVuSans-Bold-35"/>
     <use xlink:href="#DejaVuSans-Bold-30" transform="translate(69.580078 0)"/>
     <use xlink:href="#DejaVuSans-Bold-39" transform="translate(139.160156 0)"/>
    </g>
   </g>
   <g id="text_20">
    <!-- 389 -->
    <g style="fill: #58a6ff" transform="translate(817.012614 241.520237) scale(0.09 -0.09)">
     <defs>
      <path id="DejaVuSans-Bold-33" d="M 2981 2516 
Q 3453 2394 3698 2092 
Q 3944 1791 3944 1325 
Q 3944 631 3412 270 
Q 2881 -91 1863 -91 
Q 1503 -91 1142 -33 
Q 781 25 428 141 
L 428 1069 
Q 766 900 1098 814 
Q 1431 728 1753 728 
Q 2231 728 2486 893 
Q 2741 1059 2741 1369 
Q 2741 1688 2480 1852 
Q 2219 2016 1709 2016 
L 1228 2016 
L 1228 2791 
L 1734 2791 
Q 2188 2791 2409 2933 
Q 2631 3075 2631 3366 
Q 2631 3634 2415 3781 
Q 2200 3928 1806 3928 
Q 1516 3928 1219 3862 
Q 922 3797 628 3669 
L 628 4550 
Q 984 4650 1334 4700 
Q 1684 4750 2022 4750 
Q 2931 4750 3382 4451 
Q 3834 4153 3834 3553 
Q 3834 3144 3618 2883 
Q 3403 2622 2981 2516 
z
" transform="scale(0.015625)"/>
      <path id="DejaVuSans-Bold-38" d="M 2228 2088 
Q 1891 2088 1709 1903 
Q 1528 1719 1528 1375 
Q 1528 1031 1709 848 
Q 1891 666 2228 666 
Q 2563 666 2741 848 
Q 2919 1031 2919 1375 
Q 2919 1722 2741 1905 
Q 2563 2088 2228 2088 
z
M 1350 2484 
Q 925 2613 709 2878 
Q 494 3144 494 3541 
Q 494 4131 934 4440 
Q 1375 4750 2228 4750 
Q 3075 4750 3515 4442 
Q 3956 4134 3956 3541 
Q 3956 3144 3739 2878 
Q 3522 2613 3097 2484 
Q 3572 2353 3814 2058 
Q 4056 1763 4056 1313 
Q 4056 619 3595 264 
Q 3134 -91 2228 -91 
Q 1319 -91 855 264 
Q 391 619 391 1313 
Q 391 1763 633 2058 
Q 875 2353 1350 2484 
z
M 1631 3419 
Q 1631 3141 1786 2991 
Q 1941 2841 2228 2841 
Q 2509 2841 2662 2991 
Q 2816 3141 2816 3419 
Q 2816 3697 2662 3845 
Q 2509 3994 2228 3994 
Q 1941 3994 1786 3844 
Q 1631 3694 1631 3419 
z
" transform="scale(0.015625)"/>
     </defs>
     <use xlink:href="#DejaVuSans-Bold-33"/>
     <use xlink:href="#DejaVuSans-Bold-38" transform="translate(69.580078 0)"/>
     <use xlink:href="#DejaVuSans-Bold-39" transform="translate(139.160156 0)"/>
    </g>
   </g>
   <g id="text_21">
    <!-- 133 -->
    <g style="fill: #d29922" transform="translate(817.012614 383.801623) scale(0.09 -0.09)">
     <defs>
      <path id="DejaVuSans-Bold-31" d="M 750 831 
L 1813 831 
L 1813 3847 
L 722 3622 
L 722 4441 
L 1806 4666 
L 2950 4666 
L 2950 831 
L 4013 831 
L 4013 0 
L 750 0 
L 750 831 
z
" transform="scale(0.015625)"/>
     </defs>
     <use xlink:href="#DejaVuSans-Bold-31"/>
     <use xlink:href="#DejaVuSans-Bold-33" transform="translate(69.580078 0)"/>
     <use xlink:href="#DejaVuSans-Bold-33" transform="translate(139.160156 0)"/>
    </g>
   </g>
   <g id="text_22">
    <!-- 296 -->
    <g style="fill: #f85149" transform="translate(817.012614 293.208397) scale(0.09 -0.09)">
     <defs>
      <path id="DejaVuSans-Bold-32" d="M 1844 884 
L 3897 884 
L 3897 0 
L 506 0 
L 506 884 
L 2209 2388 
Q 2438 2594 2547 2791 
Q 2656 2988 2656 3200 
Q 2656 3528 2436 3728 
Q 2216 3928 1850 3928 
Q 1569 3928 1234 3808 
Q 900 3688 519 3450 
L 519 4475 
Q 925 4609 1322 4679 
Q 1719 4750 2100 4750 
Q 2938 4750 3402 4381 
Q 3866 4013 3866 3353 
Q 3866 2972 3669 2642 
Q 3472 2313 2841 1759 
L 1844 884 
z
" transform="scale(0.015625)"/>
      <path id="DejaVuSans-Bold-36" d="M 2316 2303 
Q 2000 2303 1842 2098 
Q 1684 1894 1684 1484 
Q 1684 1075 1842 870 
Q 2000 666 2316 666 
Q 2634 666 2792 870 
Q 2950 1075 2950 1484 
Q 2950 1894 2792 2098 
Q 2634 2303 2316 2303 
z
M 3803 4544 
L 3803 3681 
Q 3506 3822 3243 3889 
Q 2981 3956 2731 3956 
Q 2194 3956 1894 3657 
Q 1594 3359 1544 2772 
Q 1750 2925 1990 3001 
Q 2231 3078 2516 3078 
Q 3231 3078 3670 2659 
Q 4109 2241 4109 1563 
Q 4109 813 3618 361 
Q 3128 -91 2303 -91 
Q 1394 -91 895 523 
Q 397 1138 397 2266 
Q 397 3422 980 4083 
Q 1563 4744 2578 4744 
Q 2900 4744 3203 4694 
Q 3506 4644 3803 4544 
z
" transform="scale(0.015625)"/>
     </defs>
     <use xlink:href="#DejaVuSans-Bold-32"/>
     <use xlink:href="#DejaVuSans-Bold-39" transform="translate(69.580078 0)"/>
     <use xlink:href="#DejaVuSans-Bold-36" transform="translate(139.160156 0)"/>
    </g>
   </g>
   <g id="text_23">
    <!-- 703 -->
    <g style="fill: #9467bd" transform="translate(817.012614 67.003223) scale(0.09 -0.09)">
     <defs>
      <path id="DejaVuSans-Bold-37" d="M 428 4666 
L 3944 4666 
L 3944 3988 
L 2125 0 
L 953 0 
L 2675 3781 
L 428 3781 
L 428 4666 
z
" transform="scale(0.015625)"/>
     </defs>
     <use xlink:href="#DejaVuSans-Bold-37"/>
     <use xlink:href="#DejaVuSans-Bold-30" transform="translate(69.580078 0)"/>
     <use xlink:href="#DejaVuSans-Bold-33" transform="translate(139.160156 0)"/>
    </g>
   </g>
   <g id="text_24">
    <!-- Erdős Problems Progress -->
    <g style="fill: #c9d1d9" transform="translate(349.588281 18.397812) scale(0.14 -0.14)">
     <defs>
      <path id="DejaVuSans-Bold-45" d="M 588 4666 
L 3834 4666 
L 3834 3756 
L 1791 3756 
L 1791 2888 
L 3713 2888 
L 3713 1978 
L 1791 1978 
L 1791 909 
L 3903 909 
L 3903 0 
L 588 0 
L 588 4666 
z
" transform="scale(0.015625)"/>
      <path id="DejaVuSans-Bold-72" d="M 3138 2547 
Q 2991 2616 2845 2648 
Q 2700 2681 2553 2681 
Q 2122 2681 1889 2404 
Q 1656 2128 1656 1613 
L 1656 0 
L 538 0 
L 538 3500 
L 1656 3500 
L 1656 2925 
Q 1872 3269 2151 3426 
Q 2431 3584 2822 3584 
Q 2878 3584 2943 3579 
Q 3009 3575 3134 3559 
L 3138 2547 
z
" transform="scale(0.015625)"/>
      <path id="DejaVuSans-Bold-64" d="M 2919 2988 
L 2919 4863 
L 4044 4863 
L 4044 0 
L 2919 0 
L 2919 506 
Q 2688 197 2409 53 
Q 2131 -91 1766 -91 
Q 1119 -91 703 423 
Q 288 938 288 1747 
Q 288 2556 703 3070 
Q 1119 3584 1766 3584 
Q 2128 3584 2408 3439 
Q 2688 3294 2919 2988 
z
M 2181 722 
Q 2541 722 2730 984 
Q 2919 1247 2919 1747 
Q 2919 2247 2730 2509 
Q 2541 2772 2181 2772 
Q 1825 2772 1636 2509 
Q 1447 2247 1447 1747 
Q 1447 1247 1636 984 
Q 1825 722 2181 722 
z
" transform="scale(0.015625)"/>
      <path id="DejaVuSans-Bold-151" d="M 1881 5119 
L 2560 5119 
L 1785 3944 
L 1275 3944 
L 1881 5119 
z
M 3016 5119 
L 3738 5119 
L 2888 3944 
L 2344 3944 
L 3016 5119 
z
M 2203 2784 
Q 1831 2784 1636 2517 
Q 1441 2250 1441 1747 
Q 1441 1244 1636 976 
Q 1831 709 2203 709 
Q 2569 709 2762 976 
Q 2956 1244 2956 1747 
Q 2956 2250 2762 2517 
Q 2569 2784 2203 2784 
z
M 2203 3584 
Q 3106 3584 3614 3096 
Q 4122 2609 4122 1747 
Q 4122 884 3614 396 
Q 3106 -91 2203 -91 
Q 1297 -91 786 396 
Q 275 884 275 1747 
Q 275 2609 786 3096 
Q 1297 3584 2203 3584 
z
" transform="scale(0.015625)"/>
      <path id="DejaVuSans-Bold-73" d="M 3272 3391 
L 3272 2541 
Q 2913 2691 2578 2766 
Q 2244 2841 1947 2841 
Q 1628 2841 1473 2761 
Q 1319 2681 1319 2516 
Q 1319 2381 1436 2309 
Q 1553 2238 1856 2203 
L 2053 2175 
Q 2913 2066 3209 1816 
Q 3506 1566 3506 1031 
Q 3506 472 3093 190 
Q 2681 -91 1863 -91 
Q 1516 -91 1145 -36 
Q 775 19 384 128 
L 384 978 
Q 719 816 1070 734 
Q 1422 653 1784 653 
Q 2113 653 2278 743 
Q 2444 834 2444 1013 
Q 2444 1163 2330 1236 
Q 2216 1309 1875 1350 
L 1678 1375 
Q 931 1469 631 1722 
Q 331 1975 331 2491 
Q 331 3047 712 3315 
Q 1094 3584 1881 3584 
Q 2191 3584 2531 3537 
Q 2872 3491 3272 3391 
z
" transform="scale(0.015625)"/>
      <path id="DejaVuSans-Bold-20" transform="scale(0.015625)"/>
      <path id="DejaVuSans-Bold-50" d="M 588 4666 
L 2584 4666 
Q 3475 4666 3951 4270 
Q 4428 3875 4428 3144 
Q 4428 2409 3951 2014 
Q 3475 1619 2584 1619 
L 1791 1619 
L 1791 0 
L 588 0 
L 588 4666 
z
M 1791 3794 
L 1791 2491 
L 2456 2491 
Q 2806 2491 2997 2661 
Q 3188 2831 3188 3144 
Q 3188 3456 2997 3625 
Q 2806 3794 2456 3794 
L 1791 3794 
z
" transform="scale(0.015625)"/>
      <path id="DejaVuSans-Bold-6f" d="M 2203 2784 
Q 1831 2784 1636 2517 
Q 1441 2250 1441 1747 
Q 1441 1244 1636 976 
Q 1831 709 2203 709 
Q 2569 709 2762 976 
Q 2956 1244 2956 1747 
Q 2956 2250 2762 2517 
Q 2569 2784 2203 2784 
z
M 2203 3584 
Q 3106 3584 3614 3096 
Q 4122 2609 4122 1747 
Q 4122 884 3614 396 
Q 3106 -91 2203 -91 
Q 1297 -91 786 396 
Q 275 884 275 1747 
Q 275 2609 786 3096 
Q 1297 3584 2203 3584 
z
" transform="scale(0.015625)"/>
      <path id="DejaVuSans-Bold-62" d="M 2400 722 
Q 2759 722 2948 984 
Q 3138 1247 3138 1747 
Q 3138 2247 2948 2509 
Q 2759 2772 2400 2772 
Q 2041 2772 1848 2508 
Q 1656 2244 1656 1747 
Q 1656 1250 1848 986 
Q 2041 722 2400 722 
z
M 1656 2988 
Q 1888 3294 2169 3439 
Q 2450 3584 2816 3584 
Q 3463 3584 3878 3070 
Q 4294 2556 4294 1747 
Q 4294 938 3878 423 
Q 3463 -91 2816 -91 
Q 2450 -91 2169 54 
Q 1888 200 1656 506 
L 1656 0 
L 538 0 
L 538 4863 
L 1656 4863 
L 1656 2988 
z
" transform="scale(0.015625)"/>
      <path id="DejaVuSans-Bold-6c" d="M 538 4863 
L 1656 4863 
L 1656 0 
L 538 0 
L 538 4863 
z
" transform="scale(0.015625)"/>
      <path id="DejaVuSans-Bold-65" d="M 4031 1759 
L 4031 1441 
L 1416 1441 
Q 1456 1047 1700 850 
Q 1944 653 2381 653 
Q 2734 653 3104 758 
Q 3475 863 3866 1075 
L 3866 213 
Q 3469 63 3072 -14 
Q 2675 -91 2278 -91 
Q 1328 -91 801 392 
Q 275 875 275 1747 
Q 275 2603 792 3093 
Q 1309 3584 2216 3584 
Q 3041 3584 3536 3087 
Q 4031 2591 4031 1759 
z
M 2881 2131 
Q 2881 2450 2695 2645 
Q 2509 2841 2209 2841 
Q 1884 2841 1681 2658 
Q 1478 2475 1428 2131 
L 2881 2131 
z
" transform="scale(0.015625)"/>
      <path id="DejaVuSans-Bold-6d" d="M 3781 2919 
Q 3994 3244 4286 3414 
Q 4578 3584 4928 3584 
Q 5531 3584 5847 3212 
Q 6163 2841 6163 2131 
L 6163 0 
L 5038 0 
L 5038 1825 
Q 5041 1866 5042 1909 
Q 5044 1953 5044 2034 
Q 5044 2406 4934 2573 
Q 4825 2741 4581 2741 
Q 4263 2741 4089 2478 
Q 3916 2216 3909 1719 
L 3909 0 
L 2784 0 
L 2784 1825 
Q 2784 2406 2684 2573 
Q 2584 2741 2328 2741 
Q 2006 2741 1831 2477 
Q 1656 2213 1656 1722 
L 1656 0 
L 531 0 
L 531 3500 
L 1656 3500 
L 1656 2988 
Q 1863 3284 2130 3434 
Q 2397 3584 2719 3584 
Q 3081 3584 3359 3409 
Q 3638 3234 3781 2919 
z
" transform="scale(0.015625)"/>
      <path id="DejaVuSans-Bold-67" d="M 2919 594 
Q 2688 288 2409 144 
Q 2131 0 1766 0 
Q 1125 0 706 504 
Q 288 1009 288 1791 
Q 288 2575 706 3076 
Q 1125 3578 1766 3578 
Q 2131 3578 2409 3434 
Q 2688 3291 2919 2981 
L 2919 3500 
L 4044 3500 
L 4044 353 
Q 4044 -491 3511 -936 
Q 2978 -1381 1966 -1381 
Q 1638 -1381 1331 -1331 
Q 1025 -1281 716 -1178 
L 716 -306 
Q 1009 -475 1290 -558 
Q 1572 -641 1856 -641 
Q 2406 -641 2662 -400 
Q 2919 -159 2919 353 
L 2919 594 
z
M 2181 2772 
Q 1834 2772 1640 2515 
Q 1447 2259 1447 1791 
Q 1447 1309 1634 1061 
Q 1822 813 2181 813 
Q 2531 813 2725 1069 
Q 2919 1325 2919 1791 
Q 2919 2259 2725 2515 
Q 2531 2772 2181 2772 
z
" transform="scale(0.015625)"/>
     </defs>
     <use xlink:href="#DejaVuSans-Bold-45"/>
     <use xlink:href="#DejaVuSans-Bold-72" transform="translate(68.310547 0)"/>
     <use xlink:href="#DejaVuSans-Bold-64" transform="translate(117.626953 0)"/>
     <use xlink:href="#DejaVuSans-Bold-151" transform="translate(189.208984 0)"/>
     <use xlink:href="#DejaVuSans-Bold-73" transform="translate(257.910156 0)"/>
     <use xlink:href="#DejaVuSans-Bold-20" transform="translate(317.431641 0)"/>
     <use xlink:href="#DejaVuSans-Bold-50" transform="translate(352.246094 0)"/>
     <use xlink:href="#DejaVuSans-Bold-72" transform="translate(425.537109 0)"/>
     <use xlink:href="#DejaVuSans-Bold-6f" transform="translate(474.853516 0)"/>
     <use xlink:href="#DejaVuSans-Bold-62" transform="translate(543.554688 0)"/>
     <use xlink:href="#DejaVuSans-Bold-6c" transform="translate(615.136719 0)"/>
     <use xlink:href="#DejaVuSans-Bold-65" transform="translate(649.414062 0)"/>
     <use xlink:href="#DejaVuSans-Bold-6d" transform="translate(717.236328 0)"/>
     <use xlink:href="#DejaVuSans-Bold-73" transform="translate(821.435547 0)"/>
     <use xlink:href="#DejaVuSans-Bold-20" transform="translate(880.957031 0)"/>
     <use xlink:href="#DejaVuSans-Bold-50" transform="translate(915.771484 0)"/>
     <use xlink:href="#DejaVuSans-Bold-72" transform="translate(989.0625 0)"/>
     <use xlink:href="#DejaVuSans-Bold-6f" transform="translate(1038.378906 0)"/>
     <use xlink:href="#DejaVuSans-Bold-67" transform="translate(1107.080078 0)"/>
     <use xlink:href="#DejaVuSans-Bold-72" transform="translate(1178.662109 0)"/>
     <use xlink:href="#DejaVuSans-Bold-65" transform="translate(1227.978516 0)"/>
     <use xlink:href="#DejaVuSans-Bold-73" transform="translate(1295.800781 0)"/>
     <use xlink:href="#DejaVuSans-Bold-73" transform="translate(1355.322266 0)"/>
    </g>
   </g>
   <g id="legend_1">
    <g id="patch_7">
     <path d="M 55.90125 119.788437 
L 213.771563 119.788437 
Q 215.771563 119.788437 215.771563 117.788437 
L 215.771563 45.397812 
Q 215.771563 43.397812 213.771563 43.397812 
L 55.90125 43.397812 
Q 53.90125 43.397812 53.90125 45.397812 
L 53.90125 117.788437 
Q 53.90125 119.788437 55.90125 119.788437 
z
" style="fill: #161b22; opacity: 0.8; stroke: #30363d; stroke-linejoin: miter"/>
    </g>
    <g id="line2d_38">
     <path d="M 57.90125 51.49625 
L 67.90125 51.49625 
L 77.90125 51.49625 
" style="fill: none; stroke: #3fb950; stroke-width: 2; stroke-linecap: square"/>
    </g>
    <g id="text_25">
     <!-- Solved -->
     <g style="fill: #c9d1d9" transform="translate(85.90125 54.99625) scale(0.1 -0.1)">
      <defs>
       <path id="DejaVuSans-6c" d="M 603 4863 
L 1178 4863 
L 1178 0 
L 603 0 
L 603 4863 
z
" transform="scale(0.015625)"/>
       <path id="DejaVuSans-64" d="M 2906 2969 
L 2906 4863 
L 3481 4863 
L 3481 0 
L 2906 0 
L 2906 525 
Q 2725 213 2448 61 
Q 2172 -91 1784 -91 
Q 1150 -91 751 415 
Q 353 922 353 1747 
Q 353 2572 751 3078 
Q 1150 3584 1784 3584 
Q 2172 3584 2448 3432 
Q 2725 3281 2906 2969 
z
M 947 1747 
Q 947 1113 1208 752 
Q 1469 391 1925 391 
Q 2381 391 2643 752 
Q 2906 1113 2906 1747 
Q 2906 2381 2643 2742 
Q 2381 3103 1925 3103 
Q 1469 3103 1208 2742 
Q 947 2381 947 1747 
z
" transform="scale(0.015625)"/>
      </defs>
      <use xlink:href="#DejaVuSans-53"/>
      <use xlink:href="#DejaVuSans-6f" transform="translate(63.476562 0)"/>
      <use xlink:href="#DejaVuSans-6c" transform="translate(124.658203 0)"/>
      <use xlink:href="#DejaVuSans-76" transform="translate(152.441406 0)"/>
      <use xlink:href="#DejaVuSans-65" transform="translate(211.621094 0)"/>
      <use xlink:href="#DejaVuSans-64" transform="translate(273.144531 0)"/>
     </g>
    </g>
    <g id="line2d_39">
     <path d="M 57.90125 66.174375 
L 67.90125 66.174375 
L 77.90125 66.174375 
" style="fill: none; stroke: #58a6ff; stroke-width: 2; stroke-linecap: square"/>
    </g>
    <g id="text_26">
     <!-- Lean Formalized Problem -->
     <g style="fill: #c9d1d9" transform="translate(85.90125 69.674375) scale(0.1 -0.1)">
      <defs>
       <path id="DejaVuSans-4c" d="M 628 4666 
L 1259 4666 
L 1259 531 
L 3531 531 
L 3531 0 
L 628 0 
L 628 4666 
z
" transform="scale(0.015625)"/>
       <path id="DejaVuSans-20" transform="scale(0.015625)"/>
       <path id="DejaVuSans-6d" d="M 3328 2828 
Q 3544 3216 3844 3400 
Q 4144 3584 4550 3584 
Q 5097 3584 5394 3201 
Q 5691 2819 5691 2113 
L 5691 0 
L 5113 0 
L 5113 2094 
Q 5113 2597 4934 2840 
Q 4756 3084 4391 3084 
Q 3944 3084 3684 2787 
Q 3425 2491 3425 1978 
L 3425 0 
L 2847 0 
L 2847 2094 
Q 2847 2600 2669 2842 
Q 2491 3084 2119 3084 
Q 1678 3084 1418 2786 
Q 1159 2488 1159 1978 
L 1159 0 
L 581 0 
L 581 3500 
L 1159 3500 
L 1159 2956 
Q 1356 3278 1631 3431 
Q 1906 3584 2284 3584 
Q 2666 3584 2933 3390 
Q 3200 3197 3328 2828 
z
" transform="scale(0.015625)"/>
       <path id="DejaVuSans-69" d="M 603 3500 
L 1178 3500 
L 1178 0 
L 603 0 
L 603 3500 
z
M 603 4863 
L 1178 4863 
L 1178 4134 
L 603 4134 
L 603 4863 
z
" transform="scale(0.015625)"/>
       <path id="DejaVuSans-7a" d="M 353 3500 
L 3084 3500 
L 3084 2975 
L 922 459 
L 3084 459 
L 3084 0 
L 275 0 
L 275 525 
L 2438 3041 
L 353 3041 
L 353 3500 
z
" transform="scale(0.015625)"/>
       <path id="DejaVuSans-50" d="M 1259 4147 
L 1259 2394 
L 2053 2394 
Q 2494 2394 2734 2622 
Q 2975 2850 2975 3272 
Q 2975 3691 2734 3919 
Q 2494 4147 2053 4147 
L 1259 4147 
z
M 628 4666 
L 2053 4666 
Q 2838 4666 3239 4311 
Q 3641 3956 3641 3272 
Q 3641 2581 3239 2228 
Q 2838 1875 2053 1875 
L 1259 1875 
L 1259 0 
L 628 0 
L 628 4666 
z
" transform="scale(0.015625)"/>
      </defs>
      <use xlink:href="#DejaVuSans-4c"/>
      <use xlink:href="#DejaVuSans-65" transform="translate(53.962891 0)"/>
      <use xlink:href="#DejaVuSans-61" transform="translate(115.486328 0)"/>
      <use xlink:href="#DejaVuSans-6e" transform="translate(176.765625 0)"/>
      <use xlink:href="#DejaVuSans-20" transform="translate(240.144531 0)"/>
      <use xlink:href="#DejaVuSans-46" transform="translate(271.931641 0)"/>
      <use xlink:href="#DejaVuSans-6f" transform="translate(325.826172 0)"/>
      <use xlink:href="#DejaVuSans-72" transform="translate(387.007812 0)"/>
      <use xlink:href="#DejaVuSans-6d" transform="translate(426.371094 0)"/>
      <use xlink:href="#DejaVuSans-61" transform="translate(523.783203 0)"/>
      <use xlink:href="#DejaVuSans-6c" transform="translate(585.0625 0)"/>
      <use xlink:href="#DejaVuSans-69" transform="translate(612.845703 0)"/>
      <use xlink:href="#DejaVuSans-7a" transform="translate(640.628906 0)"/>
      <use xlink:href="#DejaVuSans-65" transform="translate(693.119141 0)"/>
      <use xlink:href="#DejaVuSans-64" transform="translate(754.642578 0)"/>
      <use xlink:href="#DejaVuSans-20" transform="translate(818.119141 0)"/>
      <use xlink:href="#DejaVuSans-50" transform="translate(849.90625 0)"/>
      <use xlink:href="#DejaVuSans-72" transform="translate(908.458984 0)"/>
      <use xlink:href="#DejaVuSans-6f" transform="translate(947.322266 0)"/>
      <use xlink:href="#DejaVuSans-62" transform="translate(1008.503906 0)"/>
      <use xlink:href="#DejaVuSans-6c" transform="translate(1071.980469 0)"/>
      <use xlink:href="#DejaVuSans-65" transform="translate(1099.763672 0)"/>
      <use xlink:href="#DejaVuSans-6d" transform="translate(1161.287109 0)"/>
     </g>
    </g>
    <g id="line2d_40">
     <path d="M 57.90125 80.8525 
L 67.90125 80.8525 
L 77.90125 80.8525 
" style="fill: none; stroke: #d29922; stroke-width: 2; stroke-linecap: square"/>
    </g>
    <g id="text_27">
     <!-- Lean Formalized Solution -->
     <g style="fill: #c9d1d9" transform="translate(85.90125 84.3525) scale(0.1 -0.1)">
      <use xlink:href="#DejaVuSans-4c"/>
      <use xlink:href="#DejaVuSans-65" transform="translate(53.962891 0)"/>
      <use xlink:href="#DejaVuSans-61" transform="translate(115.486328 0)"/>
      <use xlink:href="#DejaVuSans-6e" transform="translate(176.765625 0)"/>
      <use xlink:href="#DejaVuSans-20" transform="translate(240.144531 0)"/>
      <use xlink:href="#DejaVuSans-46" transform="translate(271.931641 0)"/>
      <use xlink:href="#DejaVuSans-6f" transform="translate(325.826172 0)"/>
      <use xlink:href="#DejaVuSans-72" transform="translate(387.007812 0)"/>
      <use xlink:href="#DejaVuSans-6d" transform="translate(426.371094 0)"/>
      <use xlink:href="#DejaVuSans-61" transform="translate(523.783203 0)"/>
      <use xlink:href="#DejaVuSans-6c" transform="translate(585.0625 0)"/>
      <use xlink:href="#DejaVuSans-69" transform="translate(612.845703 0)"/>
      <use xlink:href="#DejaVuSans-7a" transform="translate(640.628906 0)"/>
      <use xlink:href="#DejaVuSans-65" transform="translate(693.119141 0)"/>
      <use xlink:href="#DejaVuSans-64" transform="translate(754.642578 0)"/>
      <use xlink:href="#DejaVuSans-20" transform="translate(818.119141 0)"/>
      <use xlink:href="#DejaVuSans-53" transform="translate(849.90625 0)"/>
      <use xlink:href="#DejaVuSans-6f" transform="translate(913.382812 0)"/>
      <use xlink:href="#DejaVuSans-6c" transform="translate(974.564453 0)"/>
      <use xlink:href="#DejaVuSans-75" transform="translate(1002.347656 0)"/>
      <use xlink:href="#DejaVuSans-74" transform="translate(1065.726562 0)"/>
      <use xlink:href="#DejaVuSans-69" transform="translate(1104.935547 0)"/>
      <use xlink:href="#DejaVuSans-6f" transform="translate(1132.71875 0)"/>
      <use xlink:href="#DejaVuSans-6e" transform="translate(1193.900391 0)"/>
     </g>
    </g>
    <g id="line2d_41">
     <path d="M 57.90125 95.530625 
L 67.90125 95.530625 
L 77.90125 95.530625 
" style="fill: none; stroke: #f85149; stroke-width: 2; stroke-linecap: square"/>
    </g>
    <g id="text_28">
     <!-- OEIS Linked -->
     <g style="fill: #c9d1d9" transform="translate(85.90125 99.030625) scale(0.1 -0.1)">
      <defs>
       <path id="DejaVuSans-45" d="M 628 4666 
L 3578 4666 
L 3578 4134 
L 1259 4134 
L 1259 2753 
L 3481 2753 
L 3481 2222 
L 1259 2222 
L 1259 531 
L 3634 531 
L 3634 0 
L 628 0 
L 628 4666 
z
" transform="scale(0.015625)"/>
       <path id="DejaVuSans-49" d="M 628 4666 
L 1259 4666 
L 1259 0 
L 628 0 
L 628 4666 
z
" transform="scale(0.015625)"/>
       <path id="DejaVuSans-6b" d="M 581 4863 
L 1159 4863 
L 1159 1991 
L 2875 3500 
L 3609 3500 
L 1753 1863 
L 3688 0 
L 2938 0 
L 1159 1709 
L 1159 0 
L 581 0 
L 581 4863 
z
" transform="scale(0.015625)"/>
      </defs>
      <use xlink:href="#DejaVuSans-4f"/>
      <use xlink:href="#DejaVuSans-45" transform="translate(78.710938 0)"/>
      <use xlink:href="#DejaVuSans-49" transform="translate(141.894531 0)"/>
      <use xlink:href="#DejaVuSans-53" transform="translate(171.386719 0)"/>
      <use xlink:href="#DejaVuSans-20" transform="translate(234.863281 0)"/>
      <use xlink:href="#DejaVuSans-4c" transform="translate(266.650391 0)"/>
      <use xlink:href="#DejaVuSans-69" transform="translate(322.363281 0)"/>
      <use xlink:href="#DejaVuSans-6e" transform="translate(350.146484 0)"/>
      <use xlink:href="#DejaVuSans-6b" transform="translate(413.525391 0)"/>
      <use xlink:href="#DejaVuSans-65" transform="translate(467.810547 0)"/>
      <use xlink:href="#DejaVuSans-64" transform="translate(529.333984 0)"/>
     </g>
    </g>
    <g id="line2d_42">
     <path d="M 57.90125 110.20875 
L 67.90125 110.20875 
L 77.90125 110.20875 
" style="fill: none; stroke: #9467bd; stroke-width: 2; stroke-linecap: square"/>
    </g>
    <g id="text_29">
     <!-- Open Problems -->
     <g style="fill: #c9d1d9" transform="translate(85.90125 113.70875) scale(0.1 -0.1)">
      <defs>
       <path id="DejaVuSans-73" d="M 2834 3397 
L 2834 2853 
Q 2591 2978 2328 3040 
Q 2066 3103 1784 3103 
Q 1356 3103 1142 2972 
Q 928 2841 928 2578 
Q 928 2378 1081 2264 
Q 1234 2150 1697 2047 
L 1894 2003 
Q 2506 1872 2764 1633 
Q 3022 1394 3022 966 
Q 3022 478 2636 193 
Q 2250 -91 1575 -91 
Q 1294 -91 989 -36 
Q 684 19 347 128 
L 347 722 
Q 666 556 975 473 
Q 1284 391 1588 391 
Q 1994 391 2212 530 
Q 2431 669 2431 922 
Q 2431 1156 2273 1281 
Q 2116 1406 1581 1522 
L 1381 1569 
Q 847 1681 609 1914 
Q 372 2147 372 2553 
Q 372 3047 722 3315 
Q 1072 3584 1716 3584 
Q 2034 3584 2315 3537 
Q 2597 3491 2834 3397 
z
" transform="scale(0.015625)"/>
      </defs>
      <use xlink:href="#DejaVuSans-4f"/>
      <use xlink:href="#DejaVuSans-70" transform="translate(78.710938 0)"/>
      <use xlink:href="#DejaVuSans-65" transform="translate(142.1875 0)"/>
      <use xlink:href="#DejaVuSans-6e" transform="translate(203.710938 0)"/>
      <use xlink:href="#DejaVuSans-20" transform="translate(267.089844 0)"/>
      <use xlink:href="#DejaVuSans-50" transform="translate(298.876953 0)"/>
      <use xlink:href="#DejaVuSans-72" transform="translate(357.429688 0)"/>
      <use xlink:href="#DejaVuSans-6f" transform="translate(396.292969 0)"/>
      <use xlink:href="#DejaVuSans-62" transform="translate(457.474609 0)"/>
      <use xlink:href="#DejaVuSans-6c" transform="translate(520.951172 0)"/>
      <use xlink:href="#DejaVuSans-65" transform="translate(548.734375 0)"/>
      <use xlink:href="#DejaVuSans-6d" transform="translate(610.257812 0)"/>
      <use xlink:href="#DejaVuSans-73" transform="translate(707.669922 0)"/>
     </g>
    </g>
   </g>
  </g>
 </g>
 <defs>
  <clipPath id="p9f4bc9ce1c">
   <rect x="48.90125" y="38.397812" width="799.45" height="416.84"/>
  </clipPath>
 </defs>
</svg>
