<?xml version="1.0" encoding="utf-8" standalone="no"?>
<!DOCTYPE svg PUBLIC "-//W3C//DTD SVG 1.1//EN"
  "http://www.w3.org/Graphics/SVG/1.1/DTD/svg11.dtd">
<svg xmlns:xlink="http://www.w3.org/1999/xlink" width="855.55125pt" height="494.729687pt" viewBox="0 0 855.55125 494.729687" xmlns="http://www.w3.org/2000/svg" version="1.1">
 <metadata>
  <rdf:RDF xmlns:dc="http://purl.org/dc/elements/1.1/" xmlns:cc="http://creativecommons.org/ns#" xmlns:rdf="http://www.w3.org/1999/02/22-rdf-syntax-ns#">
   <cc:Work>
    <dc:type rdf:resource="http://purl.org/dc/dcmitype/StillImage"/>
    <dc:date>2026-06-26T07:54:43.605095</dc:date>
    <dc:format>image/svg+xml</dc:format>
    <dc:creator>
     <cc:Agent>
      <dc:title>Matplotlib v3.10.7, https://matplotlib.org/</dc:title>
     </cc:Agent>
    </dc:creator>
   </cc:Work>
  </rdf:RDF>
 </metadata>
 <defs>
  <style type="text/css">*{stroke-linejoin: round; stroke-linecap: butt}</style>
 </defs>
 <g id="figure_1">
  <g id="patch_1">
   <path d="M 0 494.729687 
L 855.55125 494.729687 
L 855.55125 0 
L 0 0 
z
" style="fill: #0d1117"/>
  </g>
  <g id="axes_1">
   <g id="patch_2">
    <path d="M 48.90125 455.237812 
L 848.35125 455.237812 
L 848.35125 38.397812 
L 48.90125 38.397812 
z
" style="fill: #0d1117"/>
   </g>
   <g id="matplotlib.axis_1">
    <g id="xtick_1">
     <g id="line2d_1">
      <path d="M 85.951365 455.237812 
L 85.951365 38.397812 
" clip-path="url(#pf7192884f9)" style="fill: none; stroke: #30363d; stroke-opacity: 0.25; stroke-width: 0.5; stroke-linecap: square"/>
     </g>
     <g id="line2d_2">
      <defs>
       <path id="mfd501f7ea3" d="M 0 0 
L 0 3.5 
" style="stroke: #c9d1d9; stroke-width: 0.8"/>
      </defs>
      <g>
       <use xlink:href="#mfd501f7ea3" x="85.951365" y="455.237812" style="fill: #c9d1d9; stroke: #c9d1d9; stroke-width: 0.8"/>
      </g>
     </g>
     <g id="text_1">
      <!-- Sep -->
      <g style="fill: #c9d1d9" transform="translate(76.526365 469.83625) scale(0.1 -0.1)">
       <defs>
        <path id="DejaVuSans-53" d="M 3425 4513 
L 3425 3897 
Q 3066 4069 2747 4153 
Q 2428 4238 2131 4238 
Q 1616 4238 1336 4038 
Q 1056 3838 1056 3469 
Q 1056 3159 1242 3001 
Q 1428 2844 1947 2747 
L 2328 2669 
Q 3034 2534 3370 2195 
Q 3706 1856 3706 1288 
Q 3706 609 3251 259 
Q 2797 -91 1919 -91 
Q 1588 -91 1214 -16 
Q 841 59 441 206 
L 441 856 
Q 825 641 1194 531 
Q 1563 422 1919 422 
Q 2459 422 2753 634 
Q 3047 847 3047 1241 
Q 3047 1584 2836 1778 
Q 2625 1972 2144 2069 
L 1759 2144 
Q 1053 2284 737 2584 
Q 422 2884 422 3419 
Q 422 4038 858 4394 
Q 1294 4750 2059 4750 
Q 2388 4750 2728 4690 
Q 3069 4631 3425 4513 
z
" transform="scale(0.015625)"/>
        <path id="DejaVuSans-65" d="M 3597 1894 
L 3597 1613 
L 953 1613 
Q 991 1019 1311 708 
Q 1631 397 2203 397 
Q 2534 397 2845 478 
Q 3156 559 3463 722 
L 3463 178 
Q 3153 47 2828 -22 
Q 2503 -91 2169 -91 
Q 1331 -91 842 396 
Q 353 884 353 1716 
Q 353 2575 817 3079 
Q 1281 3584 2069 3584 
Q 2775 3584 3186 3129 
Q 3597 2675 3597 1894 
z
M 3022 2063 
Q 3016 2534 2758 2815 
Q 2500 3097 2075 3097 
Q 1594 3097 1305 2825 
Q 1016 2553 972 2059 
L 3022 2063 
z
" transform="scale(0.015625)"/>
        <path id="DejaVuSans-70" d="M 1159 525 
L 1159 -1331 
L 581 -1331 
L 581 3500 
L 1159 3500 
L 1159 2969 
Q 1341 3281 1617 3432 
Q 1894 3584 2278 3584 
Q 2916 3584 3314 3078 
Q 3713 2572 3713 1747 
Q 3713 922 3314 415 
Q 2916 -91 2278 -91 
Q 1894 -91 1617 61 
Q 1341 213 1159 525 
z
M 3116 1747 
Q 3116 2381 2855 2742 
Q 2594 3103 2138 3103 
Q 1681 3103 1420 2742 
Q 1159 2381 1159 1747 
Q 1159 1113 1420 752 
Q 1681 391 2138 391 
Q 2594 391 2855 752 
Q 3116 1113 3116 1747 
z
" transform="scale(0.015625)"/>
       </defs>
       <use xlink:href="#DejaVuSans-53"/>
       <use xlink:href="#DejaVuSans-65" transform="translate(63.476562 0)"/>
       <use xlink:href="#DejaVuSans-70" transform="translate(125 0)"/>
      </g>
     </g>
    </g>
    <g id="xtick_2">
     <g id="line2d_3">
      <path d="M 234.410407 455.237812 
L 234.410407 38.397812 
" clip-path="url(#pf7192884f9)" style="fill: none; stroke: #30363d; stroke-opacity: 0.25; stroke-width: 0.5; stroke-linecap: square"/>
     </g>
     <g id="line2d_4">
      <g>
       <use xlink:href="#mfd501f7ea3" x="234.410407" y="455.237812" style="fill: #c9d1d9; stroke: #c9d1d9; stroke-width: 0.8"/>
      </g>
     </g>
     <g id="text_2">
      <!-- Nov -->
      <g style="fill: #c9d1d9" transform="translate(224.651032 469.83625) scale(0.1 -0.1)">
       <defs>
        <path id="DejaVuSans-4e" d="M 628 4666 
L 1478 4666 
L 3547 763 
L 3547 4666 
L 4159 4666 
L 4159 0 
L 3309 0 
L 1241 3903 
L 1241 0 
L 628 0 
L 628 4666 
z
" transform="scale(0.015625)"/>
        <path id="DejaVuSans-6f" d="M 1959 3097 
Q 1497 3097 1228 2736 
Q 959 2375 959 1747 
Q 959 1119 1226 758 
Q 1494 397 1959 397 
Q 2419 397 2687 759 
Q 2956 1122 2956 1747 
Q 2956 2369 2687 2733 
Q 2419 3097 1959 3097 
z
M 1959 3584 
Q 2709 3584 3137 3096 
Q 3566 2609 3566 1747 
Q 3566 888 3137 398 
Q 2709 -91 1959 -91 
Q 1206 -91 779 398 
Q 353 888 353 1747 
Q 353 2609 779 3096 
Q 1206 3584 1959 3584 
z
" transform="scale(0.015625)"/>
        <path id="DejaVuSans-76" d="M 191 3500 
L 800 3500 
L 1894 563 
L 2988 3500 
L 3597 3500 
L 2284 0 
L 1503 0 
L 191 3500 
z
" transform="scale(0.015625)"/>
       </defs>
       <use xlink:href="#DejaVuSans-4e"/>
       <use xlink:href="#DejaVuSans-6f" transform="translate(74.804688 0)"/>
       <use xlink:href="#DejaVuSans-76" transform="translate(135.986328 0)"/>
      </g>
     </g>
    </g>
    <g id="xtick_3">
     <g id="line2d_5">
      <path d="M 382.869449 455.237812 
L 382.869449 38.397812 
" clip-path="url(#pf7192884f9)" style="fill: none; stroke: #30363d; stroke-opacity: 0.25; stroke-width: 0.5; stroke-linecap: square"/>
     </g>
     <g id="line2d_6">
      <g>
       <use xlink:href="#mfd501f7ea3" x="382.869449" y="455.237812" style="fill: #c9d1d9; stroke: #c9d1d9; stroke-width: 0.8"/>
      </g>
     </g>
     <g id="text_3">
      <!-- 2026 -->
      <g style="fill: #c9d1d9" transform="translate(370.144449 469.83625) scale(0.1 -0.1)">
       <defs>
        <path id="DejaVuSans-32" d="M 1228 531 
L 3431 531 
L 3431 0 
L 469 0 
L 469 531 
Q 828 903 1448 1529 
Q 2069 2156 2228 2338 
Q 2531 2678 2651 2914 
Q 2772 3150 2772 3378 
Q 2772 3750 2511 3984 
Q 2250 4219 1831 4219 
Q 1534 4219 1204 4116 
Q 875 4013 500 3803 
L 500 4441 
Q 881 4594 1212 4672 
Q 1544 4750 1819 4750 
Q 2544 4750 2975 4387 
Q 3406 4025 3406 3419 
Q 3406 3131 3298 2873 
Q 3191 2616 2906 2266 
Q 2828 2175 2409 1742 
Q 1991 1309 1228 531 
z
" transform="scale(0.015625)"/>
        <path id="DejaVuSans-30" d="M 2034 4250 
Q 1547 4250 1301 3770 
Q 1056 3291 1056 2328 
Q 1056 1369 1301 889 
Q 1547 409 2034 409 
Q 2525 409 2770 889 
Q 3016 1369 3016 2328 
Q 3016 3291 2770 3770 
Q 2525 4250 2034 4250 
z
M 2034 4750 
Q 2819 4750 3233 4129 
Q 3647 3509 3647 2328 
Q 3647 1150 3233 529 
Q 2819 -91 2034 -91 
Q 1250 -91 836 529 
Q 422 1150 422 2328 
Q 422 3509 836 4129 
Q 1250 4750 2034 4750 
z
" transform="scale(0.015625)"/>
        <path id="DejaVuSans-36" d="M 2113 2584 
Q 1688 2584 1439 2293 
Q 1191 2003 1191 1497 
Q 1191 994 1439 701 
Q 1688 409 2113 409 
Q 2538 409 2786 701 
Q 3034 994 3034 1497 
Q 3034 2003 2786 2293 
Q 2538 2584 2113 2584 
z
M 3366 4563 
L 3366 3988 
Q 3128 4100 2886 4159 
Q 2644 4219 2406 4219 
Q 1781 4219 1451 3797 
Q 1122 3375 1075 2522 
Q 1259 2794 1537 2939 
Q 1816 3084 2150 3084 
Q 2853 3084 3261 2657 
Q 3669 2231 3669 1497 
Q 3669 778 3244 343 
Q 2819 -91 2113 -91 
Q 1303 -91 875 529 
Q 447 1150 447 2328 
Q 447 3434 972 4092 
Q 1497 4750 2381 4750 
Q 2619 4750 2861 4703 
Q 3103 4656 3366 4563 
z
" transform="scale(0.015625)"/>
       </defs>
       <use xlink:href="#DejaVuSans-32"/>
       <use xlink:href="#DejaVuSans-30" transform="translate(63.623047 0)"/>
       <use xlink:href="#DejaVuSans-32" transform="translate(127.246094 0)"/>
       <use xlink:href="#DejaVuSans-36" transform="translate(190.869141 0)"/>
      </g>
     </g>
    </g>
    <g id="xtick_4">
     <g id="line2d_7">
      <path d="M 526.460982 455.237812 
L 526.460982 38.397812 
" clip-path="url(#pf7192884f9)" style="fill: none; stroke: #30363d; stroke-opacity: 0.25; stroke-width: 0.5; stroke-linecap: square"/>
     </g>
     <g id="line2d_8">
      <g>
       <use xlink:href="#mfd501f7ea3" x="526.460982" y="455.237812" style="fill: #c9d1d9; stroke: #c9d1d9; stroke-width: 0.8"/>
      </g>
     </g>
     <g id="text_4">
      <!-- Mar -->
      <g style="fill: #c9d1d9" transform="translate(517.027388 469.83625) scale(0.1 -0.1)">
       <defs>
        <path id="DejaVuSans-4d" d="M 628 4666 
L 1569 4666 
L 2759 1491 
L 3956 4666 
L 4897 4666 
L 4897 0 
L 4281 0 
L 4281 4097 
L 3078 897 
L 2444 897 
L 1241 4097 
L 1241 0 
L 628 0 
L 628 4666 
z
" transform="scale(0.015625)"/>
        <path id="DejaVuSans-61" d="M 2194 1759 
Q 1497 1759 1228 1600 
Q 959 1441 959 1056 
Q 959 750 1161 570 
Q 1363 391 1709 391 
Q 2188 391 2477 730 
Q 2766 1069 2766 1631 
L 2766 1759 
L 2194 1759 
z
M 3341 1997 
L 3341 0 
L 2766 0 
L 2766 531 
Q 2569 213 2275 61 
Q 1981 -91 1556 -91 
Q 1019 -91 701 211 
Q 384 513 384 1019 
Q 384 1609 779 1909 
Q 1175 2209 1959 2209 
L 2766 2209 
L 2766 2266 
Q 2766 2663 2505 2880 
Q 2244 3097 1772 3097 
Q 1472 3097 1187 3025 
Q 903 2953 641 2809 
L 641 3341 
Q 956 3463 1253 3523 
Q 1550 3584 1831 3584 
Q 2591 3584 2966 3190 
Q 3341 2797 3341 1997 
z
" transform="scale(0.015625)"/>
        <path id="DejaVuSans-72" d="M 2631 2963 
Q 2534 3019 2420 3045 
Q 2306 3072 2169 3072 
Q 1681 3072 1420 2755 
Q 1159 2438 1159 1844 
L 1159 0 
L 581 0 
L 581 3500 
L 1159 3500 
L 1159 2956 
Q 1341 3275 1631 3429 
Q 1922 3584 2338 3584 
Q 2397 3584 2469 3576 
Q 2541 3569 2628 3553 
L 2631 2963 
z
" transform="scale(0.015625)"/>
       </defs>
       <use xlink:href="#DejaVuSans-4d"/>
       <use xlink:href="#DejaVuSans-61" transform="translate(86.279297 0)"/>
       <use xlink:href="#DejaVuSans-72" transform="translate(147.558594 0)"/>
      </g>
     </g>
    </g>
    <g id="xtick_5">
     <g id="line2d_9">
      <path d="M 674.920023 455.237812 
L 674.920023 38.397812 
" clip-path="url(#pf7192884f9)" style="fill: none; stroke: #30363d; stroke-opacity: 0.25; stroke-width: 0.5; stroke-linecap: square"/>
     </g>
     <g id="line2d_10">
      <g>
       <use xlink:href="#mfd501f7ea3" x="674.920023" y="455.237812" style="fill: #c9d1d9; stroke: #c9d1d9; stroke-width: 0.8"/>
      </g>
     </g>
     <g id="text_5">
      <!-- May -->
      <g style="fill: #c9d1d9" transform="translate(664.582523 469.83625) scale(0.1 -0.1)">
       <defs>
        <path id="DejaVuSans-79" d="M 2059 -325 
Q 1816 -950 1584 -1140 
Q 1353 -1331 966 -1331 
L 506 -1331 
L 506 -850 
L 844 -850 
Q 1081 -850 1212 -737 
Q 1344 -625 1503 -206 
L 1606 56 
L 191 3500 
L 800 3500 
L 1894 763 
L 2988 3500 
L 3597 3500 
L 2059 -325 
z
" transform="scale(0.015625)"/>
       </defs>
       <use xlink:href="#DejaVuSans-4d"/>
       <use xlink:href="#DejaVuSans-61" transform="translate(86.279297 0)"/>
       <use xlink:href="#DejaVuSans-79" transform="translate(147.558594 0)"/>
      </g>
     </g>
    </g>
    <g id="xtick_6">
     <g id="line2d_11">
      <path d="M 823.379065 455.237812 
L 823.379065 38.397812 
" clip-path="url(#pf7192884f9)" style="fill: none; stroke: #30363d; stroke-opacity: 0.25; stroke-width: 0.5; stroke-linecap: square"/>
     </g>
     <g id="line2d_12">
      <g>
       <use xlink:href="#mfd501f7ea3" x="823.379065" y="455.237812" style="fill: #c9d1d9; stroke: #c9d1d9; stroke-width: 0.8"/>
      </g>
     </g>
     <g id="text_6">
      <!-- Jul -->
      <g style="fill: #c9d1d9" transform="translate(817.346253 469.83625) scale(0.1 -0.1)">
       <defs>
        <path id="DejaVuSans-4a" d="M 628 4666 
L 1259 4666 
L 1259 325 
Q 1259 -519 939 -900 
Q 619 -1281 -91 -1281 
L -331 -1281 
L -331 -750 
L -134 -750 
Q 284 -750 456 -515 
Q 628 -281 628 325 
L 628 4666 
z
" transform="scale(0.015625)"/>
        <path id="DejaVuSans-75" d="M 544 1381 
L 544 3500 
L 1119 3500 
L 1119 1403 
Q 1119 906 1312 657 
Q 1506 409 1894 409 
Q 2359 409 2629 706 
Q 2900 1003 2900 1516 
L 2900 3500 
L 3475 3500 
L 3475 0 
L 2900 0 
L 2900 538 
Q 2691 219 2414 64 
Q 2138 -91 1772 -91 
Q 1169 -91 856 284 
Q 544 659 544 1381 
z
M 1991 3584 
L 1991 3584 
z
" transform="scale(0.015625)"/>
        <path id="DejaVuSans-6c" d="M 603 4863 
L 1178 4863 
L 1178 0 
L 603 0 
L 603 4863 
z
" transform="scale(0.015625)"/>
       </defs>
       <use xlink:href="#DejaVuSans-4a"/>
       <use xlink:href="#DejaVuSans-75" transform="translate(29.492188 0)"/>
       <use xlink:href="#DejaVuSans-6c" transform="translate(92.871094 0)"/>
      </g>
     </g>
    </g>
    <g id="text_7">
     <!-- Date -->
     <g style="fill: #c9d1d9" transform="translate(434.285312 485.034062) scale(0.12 -0.12)">
      <defs>
       <path id="DejaVuSans-44" d="M 1259 4147 
L 1259 519 
L 2022 519 
Q 2988 519 3436 956 
Q 3884 1394 3884 2338 
Q 3884 3275 3436 3711 
Q 2988 4147 2022 4147 
L 1259 4147 
z
M 628 4666 
L 1925 4666 
Q 3281 4666 3915 4102 
Q 4550 3538 4550 2338 
Q 4550 1131 3912 565 
Q 3275 0 1925 0 
L 628 0 
L 628 4666 
z
" transform="scale(0.015625)"/>
       <path id="DejaVuSans-74" d="M 1172 4494 
L 1172 3500 
L 2356 3500 
L 2356 3053 
L 1172 3053 
L 1172 1153 
Q 1172 725 1289 603 
Q 1406 481 1766 481 
L 2356 481 
L 2356 0 
L 1766 0 
Q 1100 0 847 248 
Q 594 497 594 1153 
L 594 3053 
L 172 3053 
L 172 3500 
L 594 3500 
L 594 4494 
L 1172 4494 
z
" transform="scale(0.015625)"/>
      </defs>
      <use xlink:href="#DejaVuSans-44"/>
      <use xlink:href="#DejaVuSans-61" transform="translate(77.001953 0)"/>
      <use xlink:href="#DejaVuSans-74" transform="translate(138.28125 0)"/>
      <use xlink:href="#DejaVuSans-65" transform="translate(177.490234 0)"/>
     </g>
    </g>
   </g>
   <g id="matplotlib.axis_2">
    <g id="ytick_1">
     <g id="line2d_13">
      <path d="M 48.90125 455.237812 
L 848.35125 455.237812 
" clip-path="url(#pf7192884f9)" style="fill: none; stroke: #30363d; stroke-opacity: 0.25; stroke-width: 0.5; stroke-linecap: square"/>
     </g>
     <g id="line2d_14">
      <defs>
       <path id="m4da975ca03" d="M 0 0 
L -3.5 0 
" style="stroke: #c9d1d9; stroke-width: 0.8"/>
      </defs>
      <g>
       <use xlink:href="#m4da975ca03" x="48.90125" y="455.237812" style="fill: #c9d1d9; stroke: #c9d1d9; stroke-width: 0.8"/>
      </g>
     </g>
     <g id="text_8">
      <!-- 0 -->
      <g style="fill: #c9d1d9" transform="translate(35.53875 459.037031) scale(0.1 -0.1)">
       <use xlink:href="#DejaVuSans-30"/>
      </g>
     </g>
    </g>
    <g id="ytick_2">
     <g id="line2d_15">
      <path d="M 48.90125 399.659146 
L 848.35125 399.659146 
" clip-path="url(#pf7192884f9)" style="fill: none; stroke: #30363d; stroke-opacity: 0.25; stroke-width: 0.5; stroke-linecap: square"/>
     </g>
     <g id="line2d_16">
      <g>
       <use xlink:href="#m4da975ca03" x="48.90125" y="399.659146" style="fill: #c9d1d9; stroke: #c9d1d9; stroke-width: 0.8"/>
      </g>
     </g>
     <g id="text_9">
      <!-- 100 -->
      <g style="fill: #c9d1d9" transform="translate(22.81375 403.458365) scale(0.1 -0.1)">
       <defs>
        <path id="DejaVuSans-31" d="M 794 531 
L 1825 531 
L 1825 4091 
L 703 3866 
L 703 4441 
L 1819 4666 
L 2450 4666 
L 2450 531 
L 3481 531 
L 3481 0 
L 794 0 
L 794 531 
z
" transform="scale(0.015625)"/>
       </defs>
       <use xlink:href="#DejaVuSans-31"/>
       <use xlink:href="#DejaVuSans-30" transform="translate(63.623047 0)"/>
       <use xlink:href="#DejaVuSans-30" transform="translate(127.246094 0)"/>
      </g>
     </g>
    </g>
    <g id="ytick_3">
     <g id="line2d_17">
      <path d="M 48.90125 344.080479 
L 848.35125 344.080479 
" clip-path="url(#pf7192884f9)" style="fill: none; stroke: #30363d; stroke-opacity: 0.25; stroke-width: 0.5; stroke-linecap: square"/>
     </g>
     <g id="line2d_18">
      <g>
       <use xlink:href="#m4da975ca03" x="48.90125" y="344.080479" style="fill: #c9d1d9; stroke: #c9d1d9; stroke-width: 0.8"/>
      </g>
     </g>
     <g id="text_10">
      <!-- 200 -->
      <g style="fill: #c9d1d9" transform="translate(22.81375 347.879698) scale(0.1 -0.1)">
       <use xlink:href="#DejaVuSans-32"/>
       <use xlink:href="#DejaVuSans-30" transform="translate(63.623047 0)"/>
       <use xlink:href="#DejaVuSans-30" transform="translate(127.246094 0)"/>
      </g>
     </g>
    </g>
    <g id="ytick_4">
     <g id="line2d_19">
      <path d="M 48.90125 288.501812 
L 848.35125 288.501812 
" clip-path="url(#pf7192884f9)" style="fill: none; stroke: #30363d; stroke-opacity: 0.25; stroke-width: 0.5; stroke-linecap: square"/>
     </g>
     <g id="line2d_20">
      <g>
       <use xlink:href="#m4da975ca03" x="48.90125" y="288.501812" style="fill: #c9d1d9; stroke: #c9d1d9; stroke-width: 0.8"/>
      </g>
     </g>
     <g id="text_11">
      <!-- 300 -->
      <g style="fill: #c9d1d9" transform="translate(22.81375 292.301031) scale(0.1 -0.1)">
       <defs>
        <path id="DejaVuSans-33" d="M 2597 2516 
Q 3050 2419 3304 2112 
Q 3559 1806 3559 1356 
Q 3559 666 3084 287 
Q 2609 -91 1734 -91 
Q 1441 -91 1130 -33 
Q 819 25 488 141 
L 488 750 
Q 750 597 1062 519 
Q 1375 441 1716 441 
Q 2309 441 2620 675 
Q 2931 909 2931 1356 
Q 2931 1769 2642 2001 
Q 2353 2234 1838 2234 
L 1294 2234 
L 1294 2753 
L 1863 2753 
Q 2328 2753 2575 2939 
Q 2822 3125 2822 3475 
Q 2822 3834 2567 4026 
Q 2313 4219 1838 4219 
Q 1578 4219 1281 4162 
Q 984 4106 628 3988 
L 628 4550 
Q 988 4650 1302 4700 
Q 1616 4750 1894 4750 
Q 2613 4750 3031 4423 
Q 3450 4097 3450 3541 
Q 3450 3153 3228 2886 
Q 3006 2619 2597 2516 
z
" transform="scale(0.015625)"/>
       </defs>
       <use xlink:href="#DejaVuSans-33"/>
       <use xlink:href="#DejaVuSans-30" transform="translate(63.623047 0)"/>
       <use xlink:href="#DejaVuSans-30" transform="translate(127.246094 0)"/>
      </g>
     </g>
    </g>
    <g id="ytick_5">
     <g id="line2d_21">
      <path d="M 48.90125 232.923146 
L 848.35125 232.923146 
" clip-path="url(#pf7192884f9)" style="fill: none; stroke: #30363d; stroke-opacity: 0.25; stroke-width: 0.5; stroke-linecap: square"/>
     </g>
     <g id="line2d_22">
      <g>
       <use xlink:href="#m4da975ca03" x="48.90125" y="232.923146" style="fill: #c9d1d9; stroke: #c9d1d9; stroke-width: 0.8"/>
      </g>
     </g>
     <g id="text_12">
      <!-- 400 -->
      <g style="fill: #c9d1d9" transform="translate(22.81375 236.722365) scale(0.1 -0.1)">
       <defs>
        <path id="DejaVuSans-34" d="M 2419 4116 
L 825 1625 
L 2419 1625 
L 2419 4116 
z
M 2253 4666 
L 3047 4666 
L 3047 1625 
L 3713 1625 
L 3713 1100 
L 3047 1100 
L 3047 0 
L 2419 0 
L 2419 1100 
L 313 1100 
L 313 1709 
L 2253 4666 
z
" transform="scale(0.015625)"/>
       </defs>
       <use xlink:href="#DejaVuSans-34"/>
       <use xlink:href="#DejaVuSans-30" transform="translate(63.623047 0)"/>
       <use xlink:href="#DejaVuSans-30" transform="translate(127.246094 0)"/>
      </g>
     </g>
    </g>
    <g id="ytick_6">
     <g id="line2d_23">
      <path d="M 48.90125 177.344479 
L 848.35125 177.344479 
" clip-path="url(#pf7192884f9)" style="fill: none; stroke: #30363d; stroke-opacity: 0.25; stroke-width: 0.5; stroke-linecap: square"/>
     </g>
     <g id="line2d_24">
      <g>
       <use xlink:href="#m4da975ca03" x="48.90125" y="177.344479" style="fill: #c9d1d9; stroke: #c9d1d9; stroke-width: 0.8"/>
      </g>
     </g>
     <g id="text_13">
      <!-- 500 -->
      <g style="fill: #c9d1d9" transform="translate(22.81375 181.143698) scale(0.1 -0.1)">
       <defs>
        <path id="DejaVuSans-35" d="M 691 4666 
L 3169 4666 
L 3169 4134 
L 1269 4134 
L 1269 2991 
Q 1406 3038 1543 3061 
Q 1681 3084 1819 3084 
Q 2600 3084 3056 2656 
Q 3513 2228 3513 1497 
Q 3513 744 3044 326 
Q 2575 -91 1722 -91 
Q 1428 -91 1123 -41 
Q 819 9 494 109 
L 494 744 
Q 775 591 1075 516 
Q 1375 441 1709 441 
Q 2250 441 2565 725 
Q 2881 1009 2881 1497 
Q 2881 1984 2565 2268 
Q 2250 2553 1709 2553 
Q 1456 2553 1204 2497 
Q 953 2441 691 2322 
L 691 4666 
z
" transform="scale(0.015625)"/>
       </defs>
       <use xlink:href="#DejaVuSans-35"/>
       <use xlink:href="#DejaVuSans-30" transform="translate(63.623047 0)"/>
       <use xlink:href="#DejaVuSans-30" transform="translate(127.246094 0)"/>
      </g>
     </g>
    </g>
    <g id="ytick_7">
     <g id="line2d_25">
      <path d="M 48.90125 121.765812 
L 848.35125 121.765812 
" clip-path="url(#pf7192884f9)" style="fill: none; stroke: #30363d; stroke-opacity: 0.25; stroke-width: 0.5; stroke-linecap: square"/>
     </g>
     <g id="line2d_26">
      <g>
       <use xlink:href="#m4da975ca03" x="48.90125" y="121.765812" style="fill: #c9d1d9; stroke: #c9d1d9; stroke-width: 0.8"/>
      </g>
     </g>
     <g id="text_14">
      <!-- 600 -->
      <g style="fill: #c9d1d9" transform="translate(22.81375 125.565031) scale(0.1 -0.1)">
       <use xlink:href="#DejaVuSans-36"/>
       <use xlink:href="#DejaVuSans-30" transform="translate(63.623047 0)"/>
       <use xlink:href="#DejaVuSans-30" transform="translate(127.246094 0)"/>
      </g>
     </g>
    </g>
    <g id="ytick_8">
     <g id="line2d_27">
      <path d="M 48.90125 66.187146 
L 848.35125 66.187146 
" clip-path="url(#pf7192884f9)" style="fill: none; stroke: #30363d; stroke-opacity: 0.25; stroke-width: 0.5; stroke-linecap: square"/>
     </g>
     <g id="line2d_28">
      <g>
       <use xlink:href="#m4da975ca03" x="48.90125" y="66.187146" style="fill: #c9d1d9; stroke: #c9d1d9; stroke-width: 0.8"/>
      </g>
     </g>
     <g id="text_15">
      <!-- 700 -->
      <g style="fill: #c9d1d9" transform="translate(22.81375 69.986365) scale(0.1 -0.1)">
       <defs>
        <path id="DejaVuSans-37" d="M 525 4666 
L 3525 4666 
L 3525 4397 
L 1831 0 
L 1172 0 
L 2766 4134 
L 525 4134 
L 525 4666 
z
" transform="scale(0.015625)"/>
       </defs>
       <use xlink:href="#DejaVuSans-37"/>
       <use xlink:href="#DejaVuSans-30" transform="translate(63.623047 0)"/>
       <use xlink:href="#DejaVuSans-30" transform="translate(127.246094 0)"/>
      </g>
     </g>
    </g>
    <g id="text_16">
     <!-- Count -->
     <g style="fill: #c9d1d9" transform="translate(16.318125 264.635937) rotate(-90) scale(0.12 -0.12)">
      <defs>
       <path id="DejaVuSans-43" d="M 4122 4306 
L 4122 3641 
Q 3803 3938 3442 4084 
Q 3081 4231 2675 4231 
Q 1875 4231 1450 3742 
Q 1025 3253 1025 2328 
Q 1025 1406 1450 917 
Q 1875 428 2675 428 
Q 3081 428 3442 575 
Q 3803 722 4122 1019 
L 4122 359 
Q 3791 134 3420 21 
Q 3050 -91 2638 -91 
Q 1578 -91 968 557 
Q 359 1206 359 2328 
Q 359 3453 968 4101 
Q 1578 4750 2638 4750 
Q 3056 4750 3426 4639 
Q 3797 4528 4122 4306 
z
" transform="scale(0.015625)"/>
       <path id="DejaVuSans-6e" d="M 3513 2113 
L 3513 0 
L 2938 0 
L 2938 2094 
Q 2938 2591 2744 2837 
Q 2550 3084 2163 3084 
Q 1697 3084 1428 2787 
Q 1159 2491 1159 1978 
L 1159 0 
L 581 0 
L 581 3500 
L 1159 3500 
L 1159 2956 
Q 1366 3272 1645 3428 
Q 1925 3584 2291 3584 
Q 2894 3584 3203 3211 
Q 3513 2838 3513 2113 
z
" transform="scale(0.015625)"/>
      </defs>
      <use xlink:href="#DejaVuSans-43"/>
      <use xlink:href="#DejaVuSans-6f" transform="translate(69.824219 0)"/>
      <use xlink:href="#DejaVuSans-75" transform="translate(131.005859 0)"/>
      <use xlink:href="#DejaVuSans-6e" transform="translate(194.384766 0)"/>
      <use xlink:href="#DejaVuSans-74" transform="translate(257.763672 0)"/>
     </g>
    </g>
   </g>
   <g id="line2d_29">
    <path d="M 85.239886 454.682026 
L 85.286505 454.682026 
L 85.398982 454.126239 
L 85.462361 454.126239 
L 85.618217 257.933546 
L 87.57877 257.933546 
L 87.587727 261.268266 
L 89.959624 261.268266 
L 90.129142 260.712479 
L 90.4037 260.712479 
L 90.670568 260.156692 
L 92.324197 259.600906 
L 92.356844 260.156692 
L 92.417012 259.600906 
L 97.556911 259.600906 
L 100.646202 260.712479 
L 101.105855 259.600906 
L 101.441482 259.600906 
L 102.287381 259.045119 
L 102.641289 256.821972 
L 103.330403 256.821972 
L 104.334608 260.712479 
L 104.399762 256.821972 
L 105.170338 256.266186 
L 107.175791 256.266186 
L 107.704767 255.710399 
L 108.490498 255.710399 
L 108.74838 254.598826 
L 113.598594 254.598826 
L 113.955799 253.487252 
L 113.974108 252.375679 
L 115.516303 252.375679 
L 117.790343 251.264106 
L 118.983249 251.264106 
L 119.001305 250.708319 
L 121.740856 250.708319 
L 122.420448 247.929386 
L 124.571195 247.929386 
L 124.586124 247.373599 
L 136.631379 247.373599 
L 138.88294 246.817812 
L 138.959812 247.373599 
L 141.294977 246.817812 
L 149.421155 246.817812 
L 153.35981 246.262026 
L 153.435893 245.706239 
L 153.622988 245.150452 
L 155.844915 245.150452 
L 156.790587 244.594666 
L 160.690425 244.594666 
L 160.838479 247.373599 
L 160.845746 245.150452 
L 161.035348 245.150452 
L 162.090398 242.927306 
L 166.586506 242.927306 
L 170.119366 242.371519 
L 174.045908 242.371519 
L 174.218215 241.815732 
L 184.421309 241.815732 
L 184.856765 241.259946 
L 187.33421 241.259946 
L 187.351674 240.148372 
L 192.072088 240.148372 
L 192.167832 236.257866 
L 200.711523 236.257866 
L 200.714086 235.702079 
L 200.961518 235.702079 
L 202.038342 235.146292 
L 203.132658 235.146292 
L 203.480708 234.590506 
L 203.515524 235.146292 
L 204.312522 234.590506 
L 204.316156 234.034719 
L 204.334775 234.590506 
L 204.795161 234.034719 
L 208.988965 234.034719 
L 210.292855 233.478932 
L 211.840036 233.478932 
L 214.467899 232.923146 
L 216.955653 232.923146 
L 218.8777 231.811572 
L 223.083983 231.811572 
L 225.530808 230.699999 
L 226.220203 231.255786 
L 229.635318 231.255786 
L 233.487721 229.032639 
L 239.233101 229.032639 
L 241.014953 228.476852 
L 272.769678 228.476852 
L 273.026124 227.921066 
L 284.606346 227.921066 
L 284.799835 227.365279 
L 304.504714 227.365279 
L 308.843671 226.809492 
L 308.868769 227.365279 
L 311.97482 225.697919 
L 316.533125 225.697919 
L 319.022118 225.142132 
L 319.026202 224.586346 
L 324.219508 224.586346 
L 326.083443 225.142132 
L 326.753486 224.586346 
L 335.444751 224.586346 
L 335.814631 225.142132 
L 336.492195 224.586346 
L 336.725036 222.363199 
L 340.707971 222.363199 
L 340.711408 221.807412 
L 352.899111 221.807412 
L 353.608844 221.251626 
L 355.951107 221.251626 
L 356.17961 220.695839 
L 367.601272 220.695839 
L 367.616792 220.140052 
L 370.473525 220.140052 
L 370.477778 219.584266 
L 371.170976 219.584266 
L 371.207172 219.028479 
L 372.28363 219.028479 
L 372.452753 218.472692 
L 374.756708 218.472692 
L 375.106926 217.361119 
L 376.375267 215.137972 
L 379.442334 215.137972 
L 379.66878 212.359039 
L 380.697238 212.359039 
L 381.201989 211.247466 
L 383.802952 211.247466 
L 384.6564 210.691679 
L 387.099394 210.691679 
L 387.426824 210.135892 
L 394.062214 210.135892 
L 394.225704 209.580106 
L 394.83941 209.580106 
L 395.792208 209.024319 
L 406.524503 209.024319 
L 406.620924 208.468532 
L 406.96503 208.468532 
L 407.683382 207.356959 
L 408.690517 207.356959 
L 408.932681 206.801172 
L 409.166001 206.801172 
L 409.254534 206.245386 
L 411.947889 206.245386 
L 412.406416 205.689599 
L 414.750764 205.689599 
L 414.901071 205.133812 
L 416.185214 205.133812 
L 416.338141 204.578026 
L 420.258317 204.578026 
L 420.344118 204.022239 
L 422.671621 204.022239 
L 423.449014 201.799092 
L 424.310913 201.799092 
L 424.311814 201.243306 
L 427.811464 201.243306 
L 428.453057 200.687519 
L 431.132694 200.687519 
L 431.660486 200.131732 
L 431.859018 200.131732 
L 432.374726 199.575946 
L 433.692052 199.575946 
L 433.844302 199.020159 
L 437.148153 199.020159 
L 437.99977 198.464372 
L 438.061797 197.908586 
L 438.337509 197.908586 
L 439.207746 195.685439 
L 441.906594 195.685439 
L 441.92603 195.129652 
L 444.494543 195.129652 
L 444.739299 194.573866 
L 445.031293 194.573866 
L 445.325005 194.018079 
L 445.386272 194.573866 
L 445.606211 194.018079 
L 446.583375 194.018079 
L 446.592727 193.462292 
L 446.852215 193.462292 
L 446.965846 192.906506 
L 447.751014 192.350719 
L 453.213892 192.350719 
L 454.067734 191.794932 
L 454.6393 191.794932 
L 455.10301 191.239146 
L 455.572099 191.794932 
L 457.503526 191.794932 
L 457.58682 190.683359 
L 460.359525 190.683359 
L 461.435335 189.015999 
L 473.112485 189.015999 
L 473.791148 188.460212 
L 491.815468 188.460212 
L 491.926198 187.904426 
L 518.411056 187.904426 
L 518.536096 186.792852 
L 518.544405 187.348639 
L 522.404526 187.348639 
L 523.276087 186.792852 
L 538.483646 186.792852 
L 541.613021 186.237066 
L 541.643442 185.681279 
L 541.902508 185.681279 
L 542.713985 185.125492 
L 567.121109 185.125492 
L 567.358005 184.569706 
L 589.062535 184.569706 
L 591.848452 184.013919 
L 593.552559 184.013919 
L 593.737485 183.458132 
L 594.921912 182.902346 
L 598.243452 182.902346 
L 599.642354 182.346559 
L 601.106156 182.346559 
L 601.220154 181.790772 
L 603.627825 181.790772 
L 603.915425 181.234986 
L 603.972353 180.679199 
L 608.259001 180.679199 
L 608.27562 180.123412 
L 611.925492 180.123412 
L 611.933548 179.567626 
L 613.1702 179.011839 
L 615.365593 179.011839 
L 616.945449 178.456052 
L 618.359309 178.456052 
L 620.443155 175.121332 
L 622.876008 175.121332 
L 622.887276 172.342399 
L 635.119738 172.342399 
L 635.121006 171.786612 
L 635.332579 171.230826 
L 636.504218 171.230826 
L 636.759058 170.675039 
L 640.602109 170.675039 
L 641.490514 170.119252 
L 641.63668 170.675039 
L 648.510404 170.675039 
L 648.511953 170.119252 
L 651.28725 170.119252 
L 652.42258 167.340319 
L 659.382696 167.340319 
L 659.457033 166.228746 
L 661.030692 164.561386 
L 662.609703 164.561386 
L 662.777897 164.005599 
L 669.415625 164.005599 
L 669.537679 163.449812 
L 676.202702 163.449812 
L 676.347883 162.894026 
L 678.184804 161.226666 
L 678.327139 160.670879 
L 696.422754 160.670879 
L 698.135988 157.891946 
L 702.223963 157.891946 
L 702.49024 157.336159 
L 705.561503 157.336159 
L 706.704636 156.224586 
L 722.892739 156.224586 
L 723.097974 155.668799 
L 725.46773 155.668799 
L 725.721584 155.113012 
L 741.332459 155.113012 
L 741.340459 153.445652 
L 741.825323 153.445652 
L 742.018502 152.889866 
L 744.690224 152.889866 
L 745.081991 152.334079 
L 745.084329 152.889866 
L 752.135908 152.889866 
L 753.837029 152.334079 
L 785.573924 152.334079 
L 785.577051 151.778292 
L 798.214407 151.778292 
L 799.796179 151.222506 
L 812.012614 151.222506 
L 812.012614 151.222506 
" clip-path="url(#pf7192884f9)" style="fill: none; stroke: #3fb950; stroke-width: 2; stroke-linecap: square"/>
   </g>
   <g id="line2d_30">
    <path d="M 85.239886 455.237812 
L 85.316082 453.570452 
L 85.398982 453.570452 
L 85.528529 372.981386 
L 86.611606 372.981386 
L 86.635239 370.758239 
L 87.81992 370.758239 
L 88.125153 369.090879 
L 88.540469 370.758239 
L 88.543539 369.090879 
L 88.887195 369.090879 
L 89.020009 367.979306 
L 92.413773 367.979306 
L 92.417012 367.423519 
L 92.436111 367.979306 
L 92.603149 367.423519 
L 92.652134 367.979306 
L 92.879088 367.423519 
L 93.973714 367.423519 
L 94.205738 366.311946 
L 95.550359 366.311946 
L 97.080526 365.756159 
L 97.134384 365.200372 
L 97.547953 364.644586 
L 97.556911 364.088799 
L 100.646202 367.979306 
L 101.105855 366.311946 
L 101.441482 363.533012 
L 103.330403 363.533012 
L 104.334608 367.979306 
L 104.399762 363.533012 
L 122.74985 363.533012 
L 123.312938 362.977226 
L 124.586124 362.977226 
L 128.063407 362.421439 
L 128.910433 361.865652 
L 140.979209 361.865652 
L 141.294977 361.309866 
L 142.917311 360.754079 
L 143.948446 360.754079 
L 145.091409 360.198292 
L 145.122198 359.086719 
L 145.907872 358.530932 
L 146.435918 357.975146 
L 153.710422 357.975146 
L 155.160535 357.419359 
L 155.59892 357.419359 
L 155.844915 356.863572 
L 156.790587 356.863572 
L 157.73009 356.307786 
L 160.690425 356.307786 
L 160.838479 358.530932 
L 160.845746 356.307786 
L 161.976851 356.307786 
L 162.090398 355.751999 
L 163.691437 355.751999 
L 165.266645 355.196212 
L 165.30487 354.640426 
L 170.119366 354.640426 
L 172.150058 354.084639 
L 172.155185 353.528852 
L 178.912686 353.528852 
L 181.731503 352.973066 
L 183.846335 352.973066 
L 184.421309 352.417279 
L 187.649443 352.417279 
L 189.490646 351.861492 
L 189.591573 351.305706 
L 191.386665 351.305706 
L 191.594999 350.749919 
L 192.167832 350.194132 
L 193.446596 350.194132 
L 194.25396 349.638346 
L 195.734241 349.638346 
L 196.700363 349.082559 
L 198.761392 349.082559 
L 199.463548 347.970986 
L 204.795161 347.970986 
L 206.313553 347.415199 
L 208.094025 347.415199 
L 208.495538 346.859412 
L 208.618325 346.303626 
L 208.988965 345.747839 
L 215.120225 345.747839 
L 216.242794 345.192052 
L 216.955653 344.636266 
L 234.390605 344.636266 
L 238.30433 344.080479 
L 238.35109 343.524692 
L 241.014953 343.524692 
L 243.291809 342.968906 
L 247.316124 342.968906 
L 247.656174 342.413119 
L 254.509757 342.413119 
L 259.874778 341.857332 
L 259.92627 341.301546 
L 260.627664 341.301546 
L 262.048735 340.745759 
L 262.128001 339.078399 
L 262.190535 338.522612 
L 265.158899 337.966826 
L 265.336642 337.411039 
L 265.407486 336.299466 
L 265.676325 335.743679 
L 275.335684 335.743679 
L 278.079743 335.187892 
L 279.826525 334.632106 
L 281.194949 334.632106 
L 284.367759 334.076319 
L 284.606346 331.853172 
L 284.799835 331.853172 
L 285.256023 330.741599 
L 291.274186 330.185812 
L 291.465732 329.630026 
L 291.522238 329.074239 
L 292.793678 329.074239 
L 293.994302 328.518452 
L 294.132299 327.962666 
L 294.226015 326.851092 
L 295.020732 326.295306 
L 295.079069 325.739519 
L 296.529069 325.183732 
L 298.435059 324.627946 
L 298.570606 324.072159 
L 298.573479 323.516372 
L 298.956852 322.960586 
L 299.024569 322.404799 
L 301.789387 321.849012 
L 302.28504 321.293226 
L 313.924444 321.293226 
L 315.854659 320.737439 
L 316.030318 320.181652 
L 323.918951 320.181652 
L 324.219508 319.070079 
L 327.506288 319.070079 
L 328.498607 318.514292 
L 328.547085 317.402719 
L 328.801896 316.846932 
L 330.489159 316.291146 
L 330.527158 315.735359 
L 330.730816 315.179572 
L 330.939516 312.956426 
L 331.171991 312.956426 
L 331.180554 312.400639 
L 332.589118 311.844852 
L 333.142881 311.289066 
L 333.276879 310.733279 
L 335.814631 310.177492 
L 337.684848 310.177492 
L 338.334272 309.621706 
L 345.365823 309.621706 
L 347.695326 309.065919 
L 347.704594 308.510132 
L 348.123543 307.954346 
L 353.608844 307.954346 
L 355.147912 307.398559 
L 355.781927 306.842772 
L 355.951107 305.731199 
L 360.388146 305.731199 
L 360.69045 305.175412 
L 363.126966 305.175412 
L 364.29345 304.619626 
L 367.616792 304.619626 
L 369.625908 304.063839 
L 373.798192 304.063839 
L 374.310998 303.508052 
L 376.375267 303.508052 
L 376.937144 302.952266 
L 377.180885 302.396479 
L 377.300939 301.840692 
L 379.000145 301.840692 
L 379.048454 300.729119 
L 379.66878 300.729119 
L 380.076068 299.061759 
L 381.554151 299.061759 
L 381.737725 298.505972 
L 381.880229 298.505972 
L 382.587708 297.950186 
L 383.761741 297.950186 
L 383.802952 297.394399 
L 384.6564 297.394399 
L 384.863691 296.838612 
L 385.665845 296.838612 
L 386.894018 295.727039 
L 387.426824 295.727039 
L 389.487488 294.615466 
L 389.490586 294.059679 
L 389.884015 293.503892 
L 390.887826 292.948106 
L 391.043908 292.392319 
L 392.044733 291.836532 
L 393.680757 291.836532 
L 394.225704 290.724959 
L 396.220988 290.724959 
L 396.277635 290.169172 
L 396.846075 290.169172 
L 396.889708 289.613386 
L 397.201645 289.057599 
L 398.287032 289.057599 
L 398.369594 288.501812 
L 398.555534 288.501812 
L 398.679222 287.390239 
L 400.205501 287.390239 
L 400.507749 286.834452 
L 400.761547 286.834452 
L 400.913234 286.278666 
L 401.300607 286.278666 
L 401.590629 285.722879 
L 401.651783 285.167092 
L 401.734682 285.167092 
L 403.192597 284.611306 
L 404.28359 284.611306 
L 404.36618 284.055519 
L 408.66987 284.055519 
L 408.690517 283.499732 
L 408.932681 283.499732 
L 409.502529 282.388159 
L 410.95605 282.388159 
L 411.090836 280.720799 
L 411.130159 279.609226 
L 411.38421 279.053439 
L 412.406416 279.053439 
L 412.888519 278.497652 
L 413.355805 278.497652 
L 413.506478 277.941866 
L 414.23083 277.386079 
L 414.901071 277.386079 
L 416.248509 276.830292 
L 416.338141 276.274506 
L 416.679261 276.274506 
L 416.747513 275.718719 
L 417.94532 275.718719 
L 417.978587 275.162932 
L 423.787515 275.162932 
L 423.894865 274.607146 
L 424.050073 274.607146 
L 424.126691 273.495572 
L 424.874676 273.495572 
L 425.033856 272.939786 
L 425.551931 272.383999 
L 425.682154 271.828212 
L 425.920092 271.828212 
L 426.121441 271.272426 
L 426.187073 270.716639 
L 429.105917 270.716639 
L 429.842663 270.160852 
L 429.988181 269.049279 
L 430.167502 268.493492 
L 430.466848 268.493492 
L 430.649295 267.937706 
L 434.83817 267.937706 
L 435.1147 266.270346 
L 435.687055 266.270346 
L 435.771081 265.714559 
L 438.007629 265.714559 
L 438.061797 264.602986 
L 440.747997 264.602986 
L 440.775827 264.047199 
L 442.06983 264.047199 
L 442.078534 263.491412 
L 442.708663 263.491412 
L 442.813168 262.935626 
L 444.643892 262.935626 
L 444.739299 262.379839 
L 444.860845 262.379839 
L 445.031293 261.824052 
L 445.377286 261.824052 
L 445.386272 261.268266 
L 445.606211 261.268266 
L 446.02578 260.712479 
L 449.414671 260.712479 
L 449.660976 260.156692 
L 450.666506 260.156692 
L 450.668365 259.600906 
L 458.356269 259.600906 
L 459.661117 259.045119 
L 459.698947 258.489332 
L 460.359525 257.933546 
L 461.363985 257.933546 
L 461.435335 256.821972 
L 461.617022 256.821972 
L 461.692654 256.266186 
L 464.36032 256.266186 
L 464.842057 255.710399 
L 469.456416 255.710399 
L 469.470613 255.154612 
L 470.97771 255.154612 
L 471.621782 254.598826 
L 478.715276 254.598826 
L 478.803809 253.487252 
L 481.593557 253.487252 
L 482.148448 252.931466 
L 482.742661 252.931466 
L 483.469069 252.375679 
L 488.270637 252.375679 
L 488.73043 251.819892 
L 489.128845 251.819892 
L 489.324193 251.264106 
L 490.853797 250.708319 
L 491.602571 250.708319 
L 491.926198 250.152532 
L 494.075142 249.596746 
L 498.031768 249.596746 
L 498.341396 249.040959 
L 513.612897 249.040959 
L 514.170886 248.485172 
L 517.70245 248.485172 
L 517.830081 247.929386 
L 518.059485 247.929386 
L 518.128639 247.373599 
L 537.850926 247.373599 
L 538.483646 246.817812 
L 543.192651 246.817812 
L 544.215589 246.262026 
L 544.284151 245.706239 
L 546.734215 245.706239 
L 546.835875 245.150452 
L 554.771888 245.150452 
L 554.788141 244.594666 
L 561.487445 244.594666 
L 561.559556 244.038879 
L 561.994675 243.483092 
L 563.638642 243.483092 
L 563.642417 242.927306 
L 563.976495 242.371519 
L 566.444812 242.371519 
L 567.260289 241.815732 
L 572.523622 241.815732 
L 572.560691 240.704159 
L 605.923892 240.704159 
L 608.27562 240.148372 
L 611.234379 240.148372 
L 611.332687 239.592586 
L 624.450259 239.592586 
L 624.472287 239.036799 
L 638.170918 239.036799 
L 638.312126 238.481012 
L 639.127124 238.481012 
L 639.148363 237.925226 
L 639.332557 237.369439 
L 640.049078 236.257866 
L 640.1544 235.146292 
L 640.215272 234.034719 
L 640.398789 233.478932 
L 640.441239 232.923146 
L 640.602109 232.367359 
L 641.63668 232.367359 
L 641.765297 231.811572 
L 641.771354 231.255786 
L 642.159318 230.699999 
L 648.511953 230.699999 
L 649.196672 229.588426 
L 669.233882 229.588426 
L 669.361204 229.032639 
L 681.59161 229.032639 
L 681.881266 227.921066 
L 683.192818 227.921066 
L 683.368505 227.365279 
L 691.16083 227.365279 
L 691.355558 226.809492 
L 694.418427 226.809492 
L 695.236439 226.253706 
L 695.313367 225.697919 
L 699.908854 225.697919 
L 700.052006 224.586346 
L 700.644868 224.030559 
L 701.19942 224.030559 
L 702.223963 223.474772 
L 705.169257 223.474772 
L 705.214158 222.918986 
L 705.561503 222.363199 
L 707.964752 222.363199 
L 710.511434 221.807412 
L 723.097974 221.807412 
L 724.585719 221.251626 
L 725.136525 220.695839 
L 725.46773 219.584266 
L 727.238906 219.584266 
L 734.455468 218.472692 
L 736.266278 218.472692 
L 736.465767 217.361119 
L 736.710748 217.361119 
L 736.835027 216.805332 
L 746.976658 216.805332 
L 746.988545 216.249546 
L 763.935619 216.249546 
L 766.188138 215.693759 
L 766.322924 214.582186 
L 766.408387 214.582186 
L 766.503624 213.470612 
L 766.636833 213.470612 
L 766.654917 212.914826 
L 768.177873 212.914826 
L 768.329222 212.359039 
L 768.414967 211.803252 
L 768.747298 211.247466 
L 768.992223 211.247466 
L 769.487199 210.691679 
L 780.452222 210.691679 
L 780.483208 210.135892 
L 785.421364 210.135892 
L 785.498348 209.580106 
L 785.577051 209.580106 
L 786.320332 209.024319 
L 788.901802 209.024319 
L 790.598529 208.468532 
L 798.205168 208.468532 
L 798.214407 207.356959 
L 800.369576 207.356959 
L 800.433715 206.801172 
L 801.176123 206.245386 
L 801.235024 205.689599 
L 802.214863 205.689599 
L 802.248074 205.133812 
L 804.944443 205.133812 
L 804.947091 204.578026 
L 805.063427 204.022239 
L 807.314566 204.022239 
L 807.350593 202.354879 
L 807.475436 201.799092 
L 807.786838 201.799092 
L 807.845766 201.243306 
L 809.569253 201.243306 
L 809.580831 200.687519 
L 810.044286 200.687519 
L 812.012614 194.573866 
L 812.012614 194.573866 
" clip-path="url(#pf7192884f9)" style="fill: none; stroke: #58a6ff; stroke-width: 2; stroke-linecap: square"/>
   </g>
   <g id="line2d_31">
    <path d="M 85.239886 455.237812 
L 87.57877 455.237812 
L 87.587727 454.126239 
L 89.518619 454.126239 
L 89.959624 453.570452 
L 208.988965 453.570452 
L 210.292855 453.014666 
L 243.291809 453.014666 
L 244.207594 452.458879 
L 275.335684 452.458879 
L 278.079743 451.903092 
L 285.256023 451.903092 
L 291.522238 450.235732 
L 292.793678 449.124159 
L 295.079069 449.124159 
L 296.529069 448.568372 
L 298.573479 448.012586 
L 299.024569 448.012586 
L 301.789387 447.456799 
L 302.28504 446.901012 
L 304.504714 446.345226 
L 308.843671 445.789439 
L 308.868769 446.345226 
L 316.030318 446.345226 
L 316.533125 445.789439 
L 326.753486 445.789439 
L 327.506288 445.233652 
L 330.939516 445.233652 
L 331.180554 444.677866 
L 335.444751 444.677866 
L 335.814631 444.122079 
L 351.435872 444.122079 
L 352.899111 443.566292 
L 353.514085 443.566292 
L 353.608844 443.010506 
L 357.778029 443.010506 
L 357.782001 442.454719 
L 367.601272 442.454719 
L 367.616792 441.898932 
L 370.477778 441.898932 
L 371.207172 441.343146 
L 372.281743 440.787359 
L 372.28363 440.231572 
L 372.452753 440.231572 
L 373.798192 438.564212 
L 374.70454 438.564212 
L 374.756708 436.896852 
L 375.106926 436.896852 
L 376.375267 437.452639 
L 377.287418 437.452639 
L 377.300939 435.229492 
L 380.697238 435.229492 
L 381.201989 434.673706 
L 381.737725 434.673706 
L 381.880229 434.117919 
L 394.062214 434.117919 
L 394.225704 433.562132 
L 394.83941 433.562132 
L 395.792208 433.006346 
L 399.995815 433.006346 
L 400.205501 432.450559 
L 401.651783 432.450559 
L 401.734682 431.894772 
L 406.524503 431.894772 
L 406.620924 431.338986 
L 406.96503 431.338986 
L 407.314037 430.783199 
L 407.662706 430.783199 
L 407.683382 430.227412 
L 409.166001 430.227412 
L 409.254534 429.671626 
L 416.137469 429.671626 
L 416.252283 429.115839 
L 416.267494 429.115839 
L 416.447463 428.560052 
L 416.747513 428.560052 
L 417.605693 428.004266 
L 420.96081 428.004266 
L 420.963768 427.448479 
L 421.604854 427.448479 
L 421.629248 426.892692 
L 423.449014 426.892692 
L 423.894865 426.336906 
L 426.256368 426.336906 
L 426.959734 425.781119 
L 428.327622 425.781119 
L 428.342129 424.669546 
L 428.453057 424.669546 
L 428.592659 424.113759 
L 430.793151 424.113759 
L 431.132694 423.557972 
L 431.660486 423.557972 
L 431.859018 423.002186 
L 433.147274 423.002186 
L 433.327158 422.446399 
L 433.329467 421.890612 
L 433.692052 421.890612 
L 433.844302 421.334826 
L 447.72155 421.334826 
L 447.751014 420.223252 
L 449.660976 420.223252 
L 450.210684 419.667466 
L 450.668365 419.667466 
L 452.815393 419.111679 
L 453.213892 419.111679 
L 454.067734 418.555892 
L 454.6393 418.555892 
L 455.10301 418.000106 
L 455.572099 418.555892 
L 457.082182 418.555892 
L 457.492821 418.000106 
L 457.58682 416.888532 
L 458.351114 416.332746 
L 458.356269 415.221172 
L 461.692654 415.221172 
L 462.422302 414.665386 
L 462.496244 412.998026 
L 463.225525 412.442239 
L 463.628841 411.886452 
L 467.078294 411.886452 
L 467.224658 410.219092 
L 467.400598 410.219092 
L 467.531046 409.663306 
L 468.374072 409.107519 
L 469.701059 409.107519 
L 469.974434 408.551732 
L 470.03663 407.995946 
L 470.17612 407.995946 
L 470.97771 406.884372 
L 471.836538 406.884372 
L 472.118533 406.328586 
L 473.109218 406.328586 
L 473.112485 405.217012 
L 473.791148 405.217012 
L 474.692116 404.661226 
L 477.079083 403.549652 
L 477.39933 402.993866 
L 482.148448 402.993866 
L 482.742661 401.882292 
L 491.815468 401.882292 
L 491.926198 400.770719 
L 496.342308 400.770719 
L 497.017056 400.214932 
L 499.064649 400.214932 
L 499.179576 399.659146 
L 511.776595 399.659146 
L 511.977662 399.103359 
L 513.225412 399.103359 
L 513.612897 398.547572 
L 515.941583 398.547572 
L 516.379547 397.991786 
L 516.38242 397.435999 
L 516.883311 396.880212 
L 518.411056 396.880212 
L 518.52773 396.324426 
L 518.536096 395.212852 
L 518.544405 395.768639 
L 519.571033 395.212852 
L 523.276087 395.212852 
L 524.006917 394.101279 
L 530.691997 394.101279 
L 531.20886 393.545492 
L 532.830602 393.545492 
L 532.960431 392.989706 
L 532.97829 392.433919 
L 538.483646 392.433919 
L 541.902508 391.322346 
L 542.713985 391.322346 
L 543.192651 390.766559 
L 550.274427 390.766559 
L 551.144889 390.210772 
L 552.223487 390.210772 
L 553.268114 389.654986 
L 561.994675 389.654986 
L 562.234163 389.099199 
L 562.235459 388.543412 
L 567.121109 388.543412 
L 567.358005 387.987626 
L 589.062535 387.987626 
L 591.848452 387.431839 
L 598.243452 387.431839 
L 599.642354 386.876052 
L 600.873203 386.876052 
L 601.220154 386.320266 
L 603.972353 386.320266 
L 604.456513 385.764479 
L 605.095063 385.764479 
L 605.923892 385.208692 
L 607.910585 385.208692 
L 608.27562 384.652906 
L 608.520151 384.652906 
L 609.410387 384.097119 
L 618.01109 384.097119 
L 618.035146 382.429759 
L 625.53973 382.429759 
L 628.722062 381.873972 
L 628.724653 381.318186 
L 632.456298 381.318186 
L 632.612943 380.762399 
L 632.721279 380.206612 
L 634.360768 380.206612 
L 635.121006 379.650826 
L 635.664854 379.650826 
L 636.504218 379.095039 
L 637.404961 379.095039 
L 637.56062 377.983466 
L 638.312126 377.983466 
L 638.461898 377.427679 
L 640.152935 377.427679 
L 640.215272 376.871892 
L 642.880684 376.871892 
L 644.81166 376.316106 
L 645.445028 376.316106 
L 646.06679 375.760319 
L 647.351187 375.204532 
L 647.35668 374.648746 
L 647.71087 372.981386 
L 648.034526 372.425599 
L 648.511953 371.869812 
L 649.791421 371.869812 
L 650.567349 370.202452 
L 652.42258 370.202452 
L 652.924908 368.535092 
L 654.966333 368.535092 
L 655.182497 367.979306 
L 656.662102 367.979306 
L 656.983645 366.867732 
L 657.540789 366.311946 
L 659.457033 366.311946 
L 662.777897 365.200372 
L 664.907066 364.644586 
L 665.051711 364.088799 
L 667.065615 364.088799 
L 667.194458 363.533012 
L 669.405456 363.533012 
L 669.415625 362.977226 
L 669.830096 362.977226 
L 669.920939 362.421439 
L 676.202702 362.421439 
L 676.347883 361.865652 
L 678.327139 361.309866 
L 681.582286 361.309866 
L 681.59161 360.754079 
L 693.533797 360.754079 
L 694.418427 358.530932 
L 699.319232 358.530932 
L 699.326471 357.419359 
L 705.561503 357.419359 
L 706.702213 355.751999 
L 706.704636 355.196212 
L 711.112042 355.196212 
L 712.59497 354.084639 
L 712.661335 353.528852 
L 740.369492 353.528852 
L 741.474287 352.973066 
L 744.386512 352.973066 
L 744.690224 351.861492 
L 774.10677 351.861492 
L 774.65259 349.638346 
L 798.214407 349.638346 
L 799.796179 349.082559 
L 810.042793 349.082559 
L 810.044286 344.636266 
L 812.012614 344.636266 
L 812.012614 344.636266 
" clip-path="url(#pf7192884f9)" style="fill: none; stroke: #d29922; stroke-width: 2; stroke-linecap: square"/>
   </g>
   <g id="line2d_32">
    <path d="M 85.239886 454.682026 
L 85.439939 454.682026 
L 85.528529 432.450559 
L 85.991505 426.892692 
L 86.256063 425.781119 
L 86.390286 426.336906 
L 86.635239 425.781119 
L 87.049513 425.225332 
L 87.587727 423.002186 
L 87.81992 421.334826 
L 88.125153 421.334826 
L 88.540469 420.779039 
L 88.543539 420.223252 
L 88.877927 419.667466 
L 88.970123 419.111679 
L 89.020009 419.111679 
L 89.874865 418.000106 
L 89.959624 411.886452 
L 90.018243 412.442239 
L 90.303955 404.661226 
L 90.4037 402.993866 
L 92.417012 402.993866 
L 92.603149 399.659146 
L 92.652134 402.438079 
L 92.879088 397.991786 
L 92.99148 397.435999 
L 93.828844 396.880212 
L 93.973714 395.768639 
L 94.205738 395.768639 
L 94.636969 395.212852 
L 94.86733 394.657066 
L 94.971666 393.545492 
L 95.03513 392.989706 
L 95.250337 392.433919 
L 95.255661 391.878132 
L 95.472107 392.433919 
L 95.550359 390.766559 
L 97.556911 390.766559 
L 100.646202 402.993866 
L 101.105855 390.210772 
L 101.441482 389.654986 
L 102.641289 389.654986 
L 102.86075 389.099199 
L 103.330403 388.543412 
L 104.334608 402.993866 
L 104.399762 387.987626 
L 105.170338 387.431839 
L 106.818221 386.876052 
L 106.93574 387.431839 
L 107.175791 385.764479 
L 107.704767 385.764479 
L 107.865496 385.208692 
L 108.169068 384.652906 
L 108.19425 383.541332 
L 108.474273 382.429759 
L 108.490498 382.985546 
L 108.657058 382.985546 
L 109.066458 378.539252 
L 109.427127 376.871892 
L 109.603406 377.983466 
L 110.849803 374.648746 
L 111.177994 375.760319 
L 112.528615 373.537172 
L 113.598594 377.427679 
L 113.974108 373.537172 
L 115.516303 371.869812 
L 117.790343 371.869812 
L 118.090675 371.314026 
L 118.329684 369.646666 
L 119.001305 371.314026 
L 121.740856 371.869812 
L 122.420448 369.646666 
L 122.74985 367.979306 
L 123.312938 369.646666 
L 124.586124 367.979306 
L 128.910433 367.979306 
L 133.45747 367.423519 
L 133.760703 366.867732 
L 136.631379 366.311946 
L 138.529595 366.311946 
L 138.88294 365.756159 
L 138.959812 366.311946 
L 140.979209 364.644586 
L 142.87334 364.644586 
L 142.917311 364.088799 
L 143.948446 363.533012 
L 146.435918 363.533012 
L 147.533192 359.642506 
L 148.34988 359.086719 
L 149.400761 358.530932 
L 149.421155 357.975146 
L 153.35981 357.975146 
L 153.435893 354.084639 
L 153.581664 354.084639 
L 153.710422 352.973066 
L 155.160535 352.973066 
L 155.59892 352.417279 
L 157.73009 352.417279 
L 160.690425 351.861492 
L 160.838479 363.533012 
L 160.845746 352.417279 
L 161.035348 351.861492 
L 162.090398 351.861492 
L 163.691437 351.305706 
L 165.30487 351.305706 
L 166.586506 350.749919 
L 170.119366 349.638346 
L 172.155185 349.638346 
L 173.791322 349.082559 
L 174.045908 346.303626 
L 174.218215 346.303626 
L 174.52311 345.747839 
L 176.113473 345.192052 
L 176.4811 342.968906 
L 178.679113 341.857332 
L 178.705591 342.413119 
L 178.912686 341.857332 
L 181.731503 340.745759 
L 183.846335 340.189972 
L 184.856765 340.189972 
L 185.752353 339.634186 
L 186.528479 338.522612 
L 187.351674 337.966826 
L 187.649443 337.411039 
L 189.591573 337.966826 
L 191.386665 336.855252 
L 191.594999 337.411039 
L 192.072088 337.411039 
L 192.167832 336.855252 
L 193.446596 336.299466 
L 194.25396 336.855252 
L 195.734241 335.743679 
L 196.700363 335.743679 
L 198.761392 335.187892 
L 199.10316 335.743679 
L 199.463548 334.076319 
L 200.714086 334.076319 
L 200.961518 333.520532 
L 202.038342 331.297386 
L 202.342589 330.185812 
L 203.132658 330.741599 
L 203.480708 329.630026 
L 203.515524 329.074239 
L 206.313553 329.074239 
L 207.73068 328.518452 
L 208.094025 327.962666 
L 210.292855 327.962666 
L 211.840036 327.406879 
L 214.467899 327.406879 
L 215.120225 326.851092 
L 222.346392 326.851092 
L 222.761398 326.295306 
L 222.802974 325.739519 
L 223.083983 325.183732 
L 226.220203 325.183732 
L 226.415664 324.627946 
L 227.213591 324.072159 
L 227.351786 323.516372 
L 228.673788 322.960586 
L 229.635318 322.404799 
L 233.487721 322.404799 
L 234.390605 321.293226 
L 238.35109 321.293226 
L 239.233101 320.737439 
L 242.924127 320.737439 
L 243.291809 320.181652 
L 244.207594 319.625866 
L 244.480208 319.070079 
L 244.57277 318.514292 
L 247.316124 317.958506 
L 247.656174 318.514292 
L 251.267624 317.402719 
L 254.123032 316.291146 
L 254.509757 315.735359 
L 259.92627 315.735359 
L 260.627664 315.179572 
L 265.676325 315.179572 
L 270.432063 314.623786 
L 271.030248 314.067999 
L 273.026124 313.512212 
L 275.027634 312.956426 
L 275.335684 312.400639 
L 279.826525 312.400639 
L 281.194949 311.844852 
L 291.522238 311.844852 
L 292.793678 311.289066 
L 301.324298 311.289066 
L 301.789387 310.733279 
L 302.28504 311.289066 
L 304.504714 310.733279 
L 311.97482 310.733279 
L 312.975871 310.177492 
L 328.778573 310.177492 
L 328.801896 309.621706 
L 338.561648 309.621706 
L 340.705915 309.065919 
L 340.711408 308.510132 
L 351.431112 308.510132 
L 351.435872 307.398559 
L 357.782001 307.398559 
L 360.69045 306.842772 
L 364.29345 306.842772 
L 367.616792 305.731199 
L 374.310998 305.731199 
L 374.70454 305.175412 
L 374.756708 304.619626 
L 377.287418 304.619626 
L 377.300939 304.063839 
L 377.563723 304.063839 
L 377.982616 303.508052 
L 381.737725 303.508052 
L 381.880229 302.952266 
L 386.894018 302.952266 
L 387.099394 302.396479 
L 399.343885 302.396479 
L 399.994886 300.729119 
L 399.995815 300.173332 
L 401.730542 300.173332 
L 401.734682 299.617546 
L 406.851511 299.617546 
L 406.96503 299.061759 
L 409.414531 299.061759 
L 409.502529 298.505972 
L 418.602293 298.505972 
L 418.89209 297.950186 
L 420.889459 297.950186 
L 420.963768 297.394399 
L 421.629248 296.838612 
L 438.337509 296.838612 
L 439.207746 295.727039 
L 440.510368 295.727039 
L 440.775827 295.171252 
L 442.078534 295.171252 
L 442.271601 294.615466 
L 445.349484 294.615466 
L 445.386272 294.059679 
L 462.420865 294.059679 
L 462.496244 292.948106 
L 483.78881 292.948106 
L 484.341813 292.392319 
L 520.696476 292.392319 
L 522.404526 291.836532 
L 537.768279 291.836532 
L 537.850926 291.280746 
L 544.729241 291.280746 
L 545.063572 290.724959 
L 681.198463 290.724959 
L 681.59161 290.169172 
L 698.876368 290.169172 
L 699.326471 289.613386 
L 705.561503 289.613386 
L 706.691199 289.057599 
L 706.704636 285.167092 
L 712.591674 285.167092 
L 712.661335 282.388159 
L 786.320332 282.388159 
L 786.796294 281.832372 
L 812.012614 281.832372 
L 812.012614 281.832372 
" clip-path="url(#pf7192884f9)" style="fill: none; stroke: #f85149; stroke-width: 2; stroke-linecap: square"/>
   </g>
   <g id="line2d_33">
    <path d="M 85.239886 454.682026 
L 85.255802 454.126239 
L 85.38128 -1 
M 85.49406 -1 
L 85.618217 101.201706 
L 87.57877 101.201706 
L 87.587727 97.866986 
L 89.959624 97.866986 
L 90.129142 98.422772 
L 90.4037 98.422772 
L 90.670568 98.978559 
L 92.324197 99.534346 
L 92.356844 98.978559 
L 92.417012 99.534346 
L 97.556911 99.534346 
L 100.646202 98.422772 
L 101.105855 99.534346 
L 101.441482 98.978559 
L 102.287381 99.534346 
L 102.641289 96.755412 
L 103.330403 96.755412 
L 104.334608 98.422772 
L 104.399762 95.643839 
L 105.170338 96.199626 
L 107.175791 96.199626 
L 107.704767 95.088052 
L 108.490498 95.088052 
L 108.74838 91.197546 
L 113.598594 91.197546 
L 113.974108 86.751252 
L 115.516303 86.751252 
L 117.790343 82.860746 
L 118.983249 82.860746 
L 119.001305 83.416532 
L 121.740856 83.416532 
L 122.420448 80.081812 
L 124.571195 80.081812 
L 124.586124 80.637599 
L 136.631379 80.637599 
L 138.88294 81.193386 
L 138.959812 80.637599 
L 141.294977 81.193386 
L 149.421155 81.193386 
L 153.35981 81.749172 
L 153.435893 74.523946 
L 153.622988 75.079732 
L 155.844915 75.079732 
L 156.790587 75.635519 
L 160.690425 75.635519 
L 160.838479 80.637599 
L 160.845746 71.745012 
L 161.035348 71.745012 
L 162.090398 73.968159 
L 166.586506 73.968159 
L 170.119366 70.077652 
L 174.045908 70.077652 
L 174.218215 68.410292 
L 184.421309 68.410292 
L 184.856765 68.966079 
L 187.33421 68.966079 
L 187.351674 70.077652 
L 192.072088 70.077652 
L 192.167832 73.412372 
L 199.463548 73.412372 
L 199.637798 68.410292 
L 200.711523 67.298719 
L 200.714086 67.854506 
L 200.961518 67.854506 
L 201.843078 65.075572 
L 203.132658 65.075572 
L 203.480708 65.631359 
L 203.515524 65.075572 
L 204.312522 65.631359 
L 204.316156 66.187146 
L 204.334775 65.631359 
L 204.795161 63.408212 
L 208.988965 63.408212 
L 210.292855 63.963999 
L 211.840036 63.963999 
L 214.467899 64.519786 
L 216.955653 64.519786 
L 218.8777 65.631359 
L 222.802974 65.075572 
L 223.083983 65.075572 
L 225.530808 66.187146 
L 226.220203 65.631359 
L 229.635318 65.631359 
L 233.485637 67.854506 
L 233.487721 67.298719 
L 239.233101 67.298719 
L 241.014953 67.854506 
L 272.769678 67.854506 
L 273.026124 68.410292 
L 275.013352 68.410292 
L 275.027634 66.742932 
L 284.606346 66.742932 
L 284.799835 67.298719 
L 304.504714 67.298719 
L 308.843671 67.854506 
L 308.868769 67.298719 
L 311.97482 68.966079 
L 312.975871 68.966079 
L 313.924444 68.410292 
L 316.533125 68.410292 
L 319.022118 68.966079 
L 319.026202 69.521866 
L 326.083443 67.854506 
L 326.753486 68.410292 
L 335.444751 68.410292 
L 335.814631 67.854506 
L 336.492195 68.410292 
L 336.725036 70.633439 
L 340.707971 70.633439 
L 340.711408 71.189226 
L 352.899111 71.189226 
L 353.608844 71.745012 
L 355.951107 71.745012 
L 356.17961 72.300799 
L 367.601272 72.300799 
L 367.616792 72.856586 
L 369.625908 72.856586 
L 370.473525 73.412372 
L 370.477778 73.968159 
L 371.170976 73.412372 
L 371.207172 73.968159 
L 372.28363 73.968159 
L 372.452753 74.523946 
L 374.70454 74.523946 
L 374.756708 73.412372 
L 375.106926 74.523946 
L 376.375267 72.856586 
L 379.442334 72.856586 
L 379.66878 71.189226 
L 380.697238 71.189226 
L 381.201989 72.300799 
L 383.802952 72.300799 
L 384.6564 72.856586 
L 384.863691 72.856586 
L 385.665845 70.077652 
L 387.099394 70.077652 
L 387.426824 70.633439 
L 394.062214 70.633439 
L 394.225704 71.189226 
L 394.83941 71.189226 
L 395.792208 71.745012 
L 406.524503 71.745012 
L 406.620924 72.300799 
L 406.96503 72.300799 
L 407.683382 73.412372 
L 408.690517 73.412372 
L 408.932681 72.856586 
L 409.166001 72.856586 
L 409.254534 73.412372 
L 411.947889 73.412372 
L 412.406416 73.968159 
L 414.750764 73.968159 
L 414.901071 74.523946 
L 416.185214 74.523946 
L 416.338141 75.079732 
L 420.258317 75.079732 
L 420.344118 75.635519 
L 422.671621 75.635519 
L 423.449014 77.858666 
L 424.310913 77.858666 
L 424.311814 78.414452 
L 427.811464 78.414452 
L 428.453057 78.970239 
L 431.132694 78.970239 
L 431.660486 79.526026 
L 433.692052 79.526026 
L 433.844302 80.081812 
L 437.148153 80.081812 
L 437.99977 80.637599 
L 438.061797 81.193386 
L 438.337509 81.193386 
L 439.207746 60.629279 
L 441.906594 60.629279 
L 441.92603 61.185066 
L 442.078534 61.185066 
L 442.271601 60.629279 
L 444.494543 60.629279 
L 444.739299 61.185066 
L 445.031293 61.185066 
L 445.325005 61.740852 
L 445.386272 61.185066 
L 446.583375 61.185066 
L 446.592727 61.740852 
L 446.852215 61.740852 
L 446.965846 62.296639 
L 447.751014 62.852426 
L 453.213892 62.852426 
L 454.067734 63.408212 
L 454.6393 63.408212 
L 455.10301 63.963999 
L 455.572099 63.408212 
L 457.503526 63.408212 
L 457.58682 64.519786 
L 460.359525 64.519786 
L 461.435335 66.187146 
L 473.112485 66.187146 
L 473.791148 66.742932 
L 491.815468 66.742932 
L 491.926198 67.298719 
L 518.411056 67.298719 
L 518.536096 68.410292 
L 518.544405 67.854506 
L 522.404526 67.854506 
L 523.276087 68.410292 
L 538.483646 68.410292 
L 541.902508 68.966079 
L 542.707252 69.521866 
L 542.713985 67.854506 
L 567.121109 67.854506 
L 567.358005 68.410292 
L 589.062535 68.410292 
L 591.848452 68.966079 
L 593.552559 68.966079 
L 593.737485 69.521866 
L 594.921912 70.077652 
L 598.243452 70.077652 
L 599.642354 70.633439 
L 601.106156 70.633439 
L 601.220154 71.189226 
L 603.627825 71.189226 
L 603.915425 71.745012 
L 603.972353 72.300799 
L 608.259001 72.300799 
L 608.27562 72.856586 
L 611.332687 72.856586 
L 611.925492 72.300799 
L 611.933548 72.856586 
L 613.1702 73.412372 
L 615.365593 73.412372 
L 616.945449 73.968159 
L 618.359309 73.968159 
L 620.443155 61.740852 
L 622.876008 61.740852 
L 622.887276 64.519786 
L 635.119738 64.519786 
L 635.121006 65.075572 
L 635.332579 65.631359 
L 636.504218 65.631359 
L 636.759058 66.187146 
L 640.602109 66.187146 
L 641.490514 66.742932 
L 641.63668 66.187146 
L 648.510404 66.187146 
L 648.511953 66.742932 
L 659.382696 66.742932 
L 659.457033 67.854506 
L 661.030692 69.521866 
L 662.609703 69.521866 
L 662.777897 70.077652 
L 669.415625 70.077652 
L 669.537679 70.633439 
L 676.202702 70.633439 
L 676.347883 71.189226 
L 678.184804 72.856586 
L 678.327139 73.412372 
L 696.422754 73.412372 
L 698.135988 76.191306 
L 702.223963 76.191306 
L 702.49024 76.747092 
L 705.561503 76.747092 
L 706.704636 77.858666 
L 722.892739 77.858666 
L 723.097974 78.414452 
L 725.46773 78.414452 
L 725.721584 78.970239 
L 741.332459 78.970239 
L 741.340459 80.637599 
L 741.825323 80.637599 
L 742.018502 81.193386 
L 744.690224 81.193386 
L 745.081991 81.749172 
L 745.084329 81.193386 
L 752.135908 81.193386 
L 753.837029 81.749172 
L 785.573924 81.749172 
L 785.577051 82.304959 
L 798.214407 82.304959 
L 799.796179 82.860746 
L 812.012614 82.860746 
L 812.012614 82.860746 
" clip-path="url(#pf7192884f9)" style="fill: none; stroke: #9467bd; stroke-width: 2; stroke-linecap: square"/>
   </g>
   <g id="patch_3">
    <path d="M 48.90125 455.237812 
L 48.90125 38.397812 
" style="fill: none; stroke: #30363d; stroke-width: 0.8; stroke-linejoin: miter; stroke-linecap: square"/>
   </g>
   <g id="patch_4">
    <path d="M 848.35125 455.237812 
L 848.35125 38.397812 
" style="fill: none; stroke: #30363d; stroke-width: 0.8; stroke-linejoin: miter; stroke-linecap: square"/>
   </g>
   <g id="patch_5">
    <path d="M 48.90125 455.237812 
L 848.35125 455.237812 
" style="fill: none; stroke: #30363d; stroke-width: 0.8; stroke-linejoin: miter; stroke-linecap: square"/>
   </g>
   <g id="patch_6">
    <path d="M 48.90125 38.397812 
L 848.35125 38.397812 
" style="fill: none; stroke: #30363d; stroke-width: 0.8; stroke-linejoin: miter; stroke-linecap: square"/>
   </g>
   <g id="text_17">
    <!-- 547 -->
    <g style="fill: #3fb950" transform="translate(817.012614 153.705943) scale(0.09 -0.09)">
     <defs>
      <path id="DejaVuSans-Bold-35" d="M 678 4666 
L 3669 4666 
L 3669 3781 
L 1638 3781 
L 1638 3059 
Q 1775 3097 1914 3117 
Q 2053 3138 2203 3138 
Q 3056 3138 3531 2711 
Q 4006 2284 4006 1522 
Q 4006 766 3489 337 
Q 2972 -91 2053 -91 
Q 1656 -91 1267 -14 
Q 878 63 494 219 
L 494 1166 
Q 875 947 1217 837 
Q 1559 728 1863 728 
Q 2300 728 2551 942 
Q 2803 1156 2803 1522 
Q 2803 1891 2551 2103 
Q 2300 2316 1863 2316 
Q 1603 2316 1309 2248 
Q 1016 2181 678 2041 
L 678 4666 
z
" transform="scale(0.015625)"/>
      <path id="DejaVuSans-Bold-34" d="M 2356 3675 
L 1038 1722 
L 2356 1722 
L 2356 3675 
z
M 2156 4666 
L 3494 4666 
L 3494 1722 
L 4159 1722 
L 4159 850 
L 3494 850 
L 3494 0 
L 2356 0 
L 2356 850 
L 288 850 
L 288 1881 
L 2156 4666 
z
" transform="scale(0.015625)"/>
      <path id="DejaVuSans-Bold-37" d="M 428 4666 
L 3944 4666 
L 3944 3988 
L 2125 0 
L 953 0 
L 2675 3781 
L 428 3781 
L 428 4666 
z
" transform="scale(0.015625)"/>
     </defs>
     <use xlink:href="#DejaVuSans-Bold-35"/>
     <use xlink:href="#DejaVuSans-Bold-34" transform="translate(69.580078 0)"/>
     <use xlink:href="#DejaVuSans-Bold-37" transform="translate(139.160156 0)"/>
    </g>
   </g>
   <g id="text_18">
    <!-- 469 -->
    <g style="fill: #58a6ff" transform="translate(817.012614 197.057303) scale(0.09 -0.09)">
     <defs>
      <path id="DejaVuSans-Bold-36" d="M 2316 2303 
Q 2000 2303 1842 2098 
Q 1684 1894 1684 1484 
Q 1684 1075 1842 870 
Q 2000 666 2316 666 
Q 2634 666 2792 870 
Q 2950 1075 2950 1484 
Q 2950 1894 2792 2098 
Q 2634 2303 2316 2303 
z
M 3803 4544 
L 3803 3681 
Q 3506 3822 3243 3889 
Q 2981 3956 2731 3956 
Q 2194 3956 1894 3657 
Q 1594 3359 1544 2772 
Q 1750 2925 1990 3001 
Q 2231 3078 2516 3078 
Q 3231 3078 3670 2659 
Q 4109 2241 4109 1563 
Q 4109 813 3618 361 
Q 3128 -91 2303 -91 
Q 1394 -91 895 523 
Q 397 1138 397 2266 
Q 397 3422 980 4083 
Q 1563 4744 2578 4744 
Q 2900 4744 3203 4694 
Q 3506 4644 3803 4544 
z
" transform="scale(0.015625)"/>
      <path id="DejaVuSans-Bold-39" d="M 641 103 
L 641 966 
Q 928 831 1190 764 
Q 1453 697 1709 697 
Q 2247 697 2547 995 
Q 2847 1294 2900 1881 
Q 2688 1725 2447 1647 
Q 2206 1569 1925 1569 
Q 1209 1569 770 1986 
Q 331 2403 331 3084 
Q 331 3838 820 4291 
Q 1309 4744 2131 4744 
Q 3044 4744 3544 4128 
Q 4044 3513 4044 2388 
Q 4044 1231 3459 570 
Q 2875 -91 1856 -91 
Q 1528 -91 1228 -42 
Q 928 6 641 103 
z
M 2125 2350 
Q 2441 2350 2600 2554 
Q 2759 2759 2759 3169 
Q 2759 3575 2600 3781 
Q 2441 3988 2125 3988 
Q 1809 3988 1650 3781 
Q 1491 3575 1491 3169 
Q 1491 2759 1650 2554 
Q 1809 2350 2125 2350 
z
" transform="scale(0.015625)"/>
     </defs>
     <use xlink:href="#DejaVuSans-Bold-34"/>
     <use xlink:href="#DejaVuSans-Bold-36" transform="translate(69.580078 0)"/>
     <use xlink:href="#DejaVuSans-Bold-39" transform="translate(139.160156 0)"/>
    </g>
   </g>
   <g id="text_19">
    <!-- 199 -->
    <g style="fill: #d29922" transform="translate(817.012614 347.119703) scale(0.09 -0.09)">
     <defs>
      <path id="DejaVuSans-Bold-31" d="M 750 831 
L 1813 831 
L 1813 3847 
L 722 3622 
L 722 4441 
L 1806 4666 
L 2950 4666 
L 2950 831 
L 4013 831 
L 4013 0 
L 750 0 
L 750 831 
z
" transform="scale(0.015625)"/>
     </defs>
     <use xlink:href="#DejaVuSans-Bold-31"/>
     <use xlink:href="#DejaVuSans-Bold-39" transform="translate(69.580078 0)"/>
     <use xlink:href="#DejaVuSans-Bold-39" transform="translate(139.160156 0)"/>
    </g>
   </g>
   <g id="text_20">
    <!-- 312 -->
    <g style="fill: #f85149" transform="translate(817.012614 284.31581) scale(0.09 -0.09)">
     <defs>
      <path id="DejaVuSans-Bold-33" d="M 2981 2516 
Q 3453 2394 3698 2092 
Q 3944 1791 3944 1325 
Q 3944 631 3412 270 
Q 2881 -91 1863 -91 
Q 1503 -91 1142 -33 
Q 781 25 428 141 
L 428 1069 
Q 766 900 1098 814 
Q 1431 728 1753 728 
Q 2231 728 2486 893 
Q 2741 1059 2741 1369 
Q 2741 1688 2480 1852 
Q 2219 2016 1709 2016 
L 1228 2016 
L 1228 2791 
L 1734 2791 
Q 2188 2791 2409 2933 
Q 2631 3075 2631 3366 
Q 2631 3634 2415 3781 
Q 2200 3928 1806 3928 
Q 1516 3928 1219 3862 
Q 922 3797 628 3669 
L 628 4550 
Q 984 4650 1334 4700 
Q 1684 4750 2022 4750 
Q 2931 4750 3382 4451 
Q 3834 4153 3834 3553 
Q 3834 3144 3618 2883 
Q 3403 2622 2981 2516 
z
" transform="scale(0.015625)"/>
      <path id="DejaVuSans-Bold-32" d="M 1844 884 
L 3897 884 
L 3897 0 
L 506 0 
L 506 884 
L 2209 2388 
Q 2438 2594 2547 2791 
Q 2656 2988 2656 3200 
Q 2656 3528 2436 3728 
Q 2216 3928 1850 3928 
Q 1569 3928 1234 3808 
Q 900 3688 519 3450 
L 519 4475 
Q 925 4609 1322 4679 
Q 1719 4750 2100 4750 
Q 2938 4750 3402 4381 
Q 3866 4013 3866 3353 
Q 3866 2972 3669 2642 
Q 3472 2313 2841 1759 
L 1844 884 
z
" transform="scale(0.015625)"/>
     </defs>
     <use xlink:href="#DejaVuSans-Bold-33"/>
     <use xlink:href="#DejaVuSans-Bold-31" transform="translate(69.580078 0)"/>
     <use xlink:href="#DejaVuSans-Bold-32" transform="translate(139.160156 0)"/>
    </g>
   </g>
   <g id="text_21">
    <!-- 670 -->
    <g style="fill: #9467bd" transform="translate(817.012614 85.344183) scale(0.09 -0.09)">
     <defs>
      <path id="DejaVuSans-Bold-30" d="M 2944 2338 
Q 2944 3213 2780 3570 
Q 2616 3928 2228 3928 
Q 1841 3928 1675 3570 
Q 1509 3213 1509 2338 
Q 1509 1453 1675 1090 
Q 1841 728 2228 728 
Q 2613 728 2778 1090 
Q 2944 1453 2944 2338 
z
M 4147 2328 
Q 4147 1169 3647 539 
Q 3147 -91 2228 -91 
Q 1306 -91 806 539 
Q 306 1169 306 2328 
Q 306 3491 806 4120 
Q 1306 4750 2228 4750 
Q 3147 4750 3647 4120 
Q 4147 3491 4147 2328 
z
" transform="scale(0.015625)"/>
     </defs>
     <use xlink:href="#DejaVuSans-Bold-36"/>
     <use xlink:href="#DejaVuSans-Bold-37" transform="translate(69.580078 0)"/>
     <use xlink:href="#DejaVuSans-Bold-30" transform="translate(139.160156 0)"/>
    </g>
   </g>
   <g id="text_22">
    <!-- Erdős Problems Progress -->
    <g style="fill: #c9d1d9" transform="translate(349.588281 18.397812) scale(0.14 -0.14)">
     <defs>
      <path id="DejaVuSans-Bold-45" d="M 588 4666 
L 3834 4666 
L 3834 3756 
L 1791 3756 
L 1791 2888 
L 3713 2888 
L 3713 1978 
L 1791 1978 
L 1791 909 
L 3903 909 
L 3903 0 
L 588 0 
L 588 4666 
z
" transform="scale(0.015625)"/>
      <path id="DejaVuSans-Bold-72" d="M 3138 2547 
Q 2991 2616 2845 2648 
Q 2700 2681 2553 2681 
Q 2122 2681 1889 2404 
Q 1656 2128 1656 1613 
L 1656 0 
L 538 0 
L 538 3500 
L 1656 3500 
L 1656 2925 
Q 1872 3269 2151 3426 
Q 2431 3584 2822 3584 
Q 2878 3584 2943 3579 
Q 3009 3575 3134 3559 
L 3138 2547 
z
" transform="scale(0.015625)"/>
      <path id="DejaVuSans-Bold-64" d="M 2919 2988 
L 2919 4863 
L 4044 4863 
L 4044 0 
L 2919 0 
L 2919 506 
Q 2688 197 2409 53 
Q 2131 -91 1766 -91 
Q 1119 -91 703 423 
Q 288 938 288 1747 
Q 288 2556 703 3070 
Q 1119 3584 1766 3584 
Q 2128 3584 2408 3439 
Q 2688 3294 2919 2988 
z
M 2181 722 
Q 2541 722 2730 984 
Q 2919 1247 2919 1747 
Q 2919 2247 2730 2509 
Q 2541 2772 2181 2772 
Q 1825 2772 1636 2509 
Q 1447 2247 1447 1747 
Q 1447 1247 1636 984 
Q 1825 722 2181 722 
z
" transform="scale(0.015625)"/>
      <path id="DejaVuSans-Bold-151" d="M 1881 5119 
L 2560 5119 
L 1785 3944 
L 1275 3944 
L 1881 5119 
z
M 3016 5119 
L 3738 5119 
L 2888 3944 
L 2344 3944 
L 3016 5119 
z
M 2203 2784 
Q 1831 2784 1636 2517 
Q 1441 2250 1441 1747 
Q 1441 1244 1636 976 
Q 1831 709 2203 709 
Q 2569 709 2762 976 
Q 2956 1244 2956 1747 
Q 2956 2250 2762 2517 
Q 2569 2784 2203 2784 
z
M 2203 3584 
Q 3106 3584 3614 3096 
Q 4122 2609 4122 1747 
Q 4122 884 3614 396 
Q 3106 -91 2203 -91 
Q 1297 -91 786 396 
Q 275 884 275 1747 
Q 275 2609 786 3096 
Q 1297 3584 2203 3584 
z
" transform="scale(0.015625)"/>
      <path id="DejaVuSans-Bold-73" d="M 3272 3391 
L 3272 2541 
Q 2913 2691 2578 2766 
Q 2244 2841 1947 2841 
Q 1628 2841 1473 2761 
Q 1319 2681 1319 2516 
Q 1319 2381 1436 2309 
Q 1553 2238 1856 2203 
L 2053 2175 
Q 2913 2066 3209 1816 
Q 3506 1566 3506 1031 
Q 3506 472 3093 190 
Q 2681 -91 1863 -91 
Q 1516 -91 1145 -36 
Q 775 19 384 128 
L 384 978 
Q 719 816 1070 734 
Q 1422 653 1784 653 
Q 2113 653 2278 743 
Q 2444 834 2444 1013 
Q 2444 1163 2330 1236 
Q 2216 1309 1875 1350 
L 1678 1375 
Q 931 1469 631 1722 
Q 331 1975 331 2491 
Q 331 3047 712 3315 
Q 1094 3584 1881 3584 
Q 2191 3584 2531 3537 
Q 2872 3491 3272 3391 
z
" transform="scale(0.015625)"/>
      <path id="DejaVuSans-Bold-20" transform="scale(0.015625)"/>
      <path id="DejaVuSans-Bold-50" d="M 588 4666 
L 2584 4666 
Q 3475 4666 3951 4270 
Q 4428 3875 4428 3144 
Q 4428 2409 3951 2014 
Q 3475 1619 2584 1619 
L 1791 1619 
L 1791 0 
L 588 0 
L 588 4666 
z
M 1791 3794 
L 1791 2491 
L 2456 2491 
Q 2806 2491 2997 2661 
Q 3188 2831 3188 3144 
Q 3188 3456 2997 3625 
Q 2806 3794 2456 3794 
L 1791 3794 
z
" transform="scale(0.015625)"/>
      <path id="DejaVuSans-Bold-6f" d="M 2203 2784 
Q 1831 2784 1636 2517 
Q 1441 2250 1441 1747 
Q 1441 1244 1636 976 
Q 1831 709 2203 709 
Q 2569 709 2762 976 
Q 2956 1244 2956 1747 
Q 2956 2250 2762 2517 
Q 2569 2784 2203 2784 
z
M 2203 3584 
Q 3106 3584 3614 3096 
Q 4122 2609 4122 1747 
Q 4122 884 3614 396 
Q 3106 -91 2203 -91 
Q 1297 -91 786 396 
Q 275 884 275 1747 
Q 275 2609 786 3096 
Q 1297 3584 2203 3584 
z
" transform="scale(0.015625)"/>
      <path id="DejaVuSans-Bold-62" d="M 2400 722 
Q 2759 722 2948 984 
Q 3138 1247 3138 1747 
Q 3138 2247 2948 2509 
Q 2759 2772 2400 2772 
Q 2041 2772 1848 2508 
Q 1656 2244 1656 1747 
Q 1656 1250 1848 986 
Q 2041 722 2400 722 
z
M 1656 2988 
Q 1888 3294 2169 3439 
Q 2450 3584 2816 3584 
Q 3463 3584 3878 3070 
Q 4294 2556 4294 1747 
Q 4294 938 3878 423 
Q 3463 -91 2816 -91 
Q 2450 -91 2169 54 
Q 1888 200 1656 506 
L 1656 0 
L 538 0 
L 538 4863 
L 1656 4863 
L 1656 2988 
z
" transform="scale(0.015625)"/>
      <path id="DejaVuSans-Bold-6c" d="M 538 4863 
L 1656 4863 
L 1656 0 
L 538 0 
L 538 4863 
z
" transform="scale(0.015625)"/>
      <path id="DejaVuSans-Bold-65" d="M 4031 1759 
L 4031 1441 
L 1416 1441 
Q 1456 1047 1700 850 
Q 1944 653 2381 653 
Q 2734 653 3104 758 
Q 3475 863 3866 1075 
L 3866 213 
Q 3469 63 3072 -14 
Q 2675 -91 2278 -91 
Q 1328 -91 801 392 
Q 275 875 275 1747 
Q 275 2603 792 3093 
Q 1309 3584 2216 3584 
Q 3041 3584 3536 3087 
Q 4031 2591 4031 1759 
z
M 2881 2131 
Q 2881 2450 2695 2645 
Q 2509 2841 2209 2841 
Q 1884 2841 1681 2658 
Q 1478 2475 1428 2131 
L 2881 2131 
z
" transform="scale(0.015625)"/>
      <path id="DejaVuSans-Bold-6d" d="M 3781 2919 
Q 3994 3244 4286 3414 
Q 4578 3584 4928 3584 
Q 5531 3584 5847 3212 
Q 6163 2841 6163 2131 
L 6163 0 
L 5038 0 
L 5038 1825 
Q 5041 1866 5042 1909 
Q 5044 1953 5044 2034 
Q 5044 2406 4934 2573 
Q 4825 2741 4581 2741 
Q 4263 2741 4089 2478 
Q 3916 2216 3909 1719 
L 3909 0 
L 2784 0 
L 2784 1825 
Q 2784 2406 2684 2573 
Q 2584 2741 2328 2741 
Q 2006 2741 1831 2477 
Q 1656 2213 1656 1722 
L 1656 0 
L 531 0 
L 531 3500 
L 1656 3500 
L 1656 2988 
Q 1863 3284 2130 3434 
Q 2397 3584 2719 3584 
Q 3081 3584 3359 3409 
Q 3638 3234 3781 2919 
z
" transform="scale(0.015625)"/>
      <path id="DejaVuSans-Bold-67" d="M 2919 594 
Q 2688 288 2409 144 
Q 2131 0 1766 0 
Q 1125 0 706 504 
Q 288 1009 288 1791 
Q 288 2575 706 3076 
Q 1125 3578 1766 3578 
Q 2131 3578 2409 3434 
Q 2688 3291 2919 2981 
L 2919 3500 
L 4044 3500 
L 4044 353 
Q 4044 -491 3511 -936 
Q 2978 -1381 1966 -1381 
Q 1638 -1381 1331 -1331 
Q 1025 -1281 716 -1178 
L 716 -306 
Q 1009 -475 1290 -558 
Q 1572 -641 1856 -641 
Q 2406 -641 2662 -400 
Q 2919 -159 2919 353 
L 2919 594 
z
M 2181 2772 
Q 1834 2772 1640 2515 
Q 1447 2259 1447 1791 
Q 1447 1309 1634 1061 
Q 1822 813 2181 813 
Q 2531 813 2725 1069 
Q 2919 1325 2919 1791 
Q 2919 2259 2725 2515 
Q 2531 2772 2181 2772 
z
" transform="scale(0.015625)"/>
     </defs>
     <use xlink:href="#DejaVuSans-Bold-45"/>
     <use xlink:href="#DejaVuSans-Bold-72" transform="translate(68.310547 0)"/>
     <use xlink:href="#DejaVuSans-Bold-64" transform="translate(117.626953 0)"/>
     <use xlink:href="#DejaVuSans-Bold-151" transform="translate(189.208984 0)"/>
     <use xlink:href="#DejaVuSans-Bold-73" transform="translate(257.910156 0)"/>
     <use xlink:href="#DejaVuSans-Bold-20" transform="translate(317.431641 0)"/>
     <use xlink:href="#DejaVuSans-Bold-50" transform="translate(352.246094 0)"/>
     <use xlink:href="#DejaVuSans-Bold-72" transform="translate(425.537109 0)"/>
     <use xlink:href="#DejaVuSans-Bold-6f" transform="translate(474.853516 0)"/>
     <use xlink:href="#DejaVuSans-Bold-62" transform="translate(543.554688 0)"/>
     <use xlink:href="#DejaVuSans-Bold-6c" transform="translate(615.136719 0)"/>
     <use xlink:href="#DejaVuSans-Bold-65" transform="translate(649.414062 0)"/>
     <use xlink:href="#DejaVuSans-Bold-6d" transform="translate(717.236328 0)"/>
     <use xlink:href="#DejaVuSans-Bold-73" transform="translate(821.435547 0)"/>
     <use xlink:href="#DejaVuSans-Bold-20" transform="translate(880.957031 0)"/>
     <use xlink:href="#DejaVuSans-Bold-50" transform="translate(915.771484 0)"/>
     <use xlink:href="#DejaVuSans-Bold-72" transform="translate(989.0625 0)"/>
     <use xlink:href="#DejaVuSans-Bold-6f" transform="translate(1038.378906 0)"/>
     <use xlink:href="#DejaVuSans-Bold-67" transform="translate(1107.080078 0)"/>
     <use xlink:href="#DejaVuSans-Bold-72" transform="translate(1178.662109 0)"/>
     <use xlink:href="#DejaVuSans-Bold-65" transform="translate(1227.978516 0)"/>
     <use xlink:href="#DejaVuSans-Bold-73" transform="translate(1295.800781 0)"/>
     <use xlink:href="#DejaVuSans-Bold-73" transform="translate(1355.322266 0)"/>
    </g>
   </g>
   <g id="legend_1">
    <g id="patch_7">
     <path d="M 55.90125 119.788437 
L 213.771563 119.788437 
Q 215.771563 119.788437 215.771563 117.788437 
L 215.771563 45.397812 
Q 215.771563 43.397812 213.771563 43.397812 
L 55.90125 43.397812 
Q 53.90125 43.397812 53.90125 45.397812 
L 53.90125 117.788437 
Q 53.90125 119.788437 55.90125 119.788437 
z
" style="fill: #161b22; opacity: 0.8; stroke: #30363d; stroke-linejoin: miter"/>
    </g>
    <g id="line2d_34">
     <path d="M 57.90125 51.49625 
L 67.90125 51.49625 
L 77.90125 51.49625 
" style="fill: none; stroke: #3fb950; stroke-width: 2; stroke-linecap: square"/>
    </g>
    <g id="text_23">
     <!-- Solved -->
     <g style="fill: #c9d1d9" transform="translate(85.90125 54.99625) scale(0.1 -0.1)">
      <defs>
       <path id="DejaVuSans-64" d="M 2906 2969 
L 2906 4863 
L 3481 4863 
L 3481 0 
L 2906 0 
L 2906 525 
Q 2725 213 2448 61 
Q 2172 -91 1784 -91 
Q 1150 -91 751 415 
Q 353 922 353 1747 
Q 353 2572 751 3078 
Q 1150 3584 1784 3584 
Q 2172 3584 2448 3432 
Q 2725 3281 2906 2969 
z
M 947 1747 
Q 947 1113 1208 752 
Q 1469 391 1925 391 
Q 2381 391 2643 752 
Q 2906 1113 2906 1747 
Q 2906 2381 2643 2742 
Q 2381 3103 1925 3103 
Q 1469 3103 1208 2742 
Q 947 2381 947 1747 
z
" transform="scale(0.015625)"/>
      </defs>
      <use xlink:href="#DejaVuSans-53"/>
      <use xlink:href="#DejaVuSans-6f" transform="translate(63.476562 0)"/>
      <use xlink:href="#DejaVuSans-6c" transform="translate(124.658203 0)"/>
      <use xlink:href="#DejaVuSans-76" transform="translate(152.441406 0)"/>
      <use xlink:href="#DejaVuSans-65" transform="translate(211.621094 0)"/>
      <use xlink:href="#DejaVuSans-64" transform="translate(273.144531 0)"/>
     </g>
    </g>
    <g id="line2d_35">
     <path d="M 57.90125 66.174375 
L 67.90125 66.174375 
L 77.90125 66.174375 
" style="fill: none; stroke: #58a6ff; stroke-width: 2; stroke-linecap: square"/>
    </g>
    <g id="text_24">
     <!-- Lean Formalized Problem -->
     <g style="fill: #c9d1d9" transform="translate(85.90125 69.674375) scale(0.1 -0.1)">
      <defs>
       <path id="DejaVuSans-4c" d="M 628 4666 
L 1259 4666 
L 1259 531 
L 3531 531 
L 3531 0 
L 628 0 
L 628 4666 
z
" transform="scale(0.015625)"/>
       <path id="DejaVuSans-20" transform="scale(0.015625)"/>
       <path id="DejaVuSans-46" d="M 628 4666 
L 3309 4666 
L 3309 4134 
L 1259 4134 
L 1259 2759 
L 3109 2759 
L 3109 2228 
L 1259 2228 
L 1259 0 
L 628 0 
L 628 4666 
z
" transform="scale(0.015625)"/>
       <path id="DejaVuSans-6d" d="M 3328 2828 
Q 3544 3216 3844 3400 
Q 4144 3584 4550 3584 
Q 5097 3584 5394 3201 
Q 5691 2819 5691 2113 
L 5691 0 
L 5113 0 
L 5113 2094 
Q 5113 2597 4934 2840 
Q 4756 3084 4391 3084 
Q 3944 3084 3684 2787 
Q 3425 2491 3425 1978 
L 3425 0 
L 2847 0 
L 2847 2094 
Q 2847 2600 2669 2842 
Q 2491 3084 2119 3084 
Q 1678 3084 1418 2786 
Q 1159 2488 1159 1978 
L 1159 0 
L 581 0 
L 581 3500 
L 1159 3500 
L 1159 2956 
Q 1356 3278 1631 3431 
Q 1906 3584 2284 3584 
Q 2666 3584 2933 3390 
Q 3200 3197 3328 2828 
z
" transform="scale(0.015625)"/>
       <path id="DejaVuSans-69" d="M 603 3500 
L 1178 3500 
L 1178 0 
L 603 0 
L 603 3500 
z
M 603 4863 
L 1178 4863 
L 1178 4134 
L 603 4134 
L 603 4863 
z
" transform="scale(0.015625)"/>
       <path id="DejaVuSans-7a" d="M 353 3500 
L 3084 3500 
L 3084 2975 
L 922 459 
L 3084 459 
L 3084 0 
L 275 0 
L 275 525 
L 2438 3041 
L 353 3041 
L 353 3500 
z
" transform="scale(0.015625)"/>
       <path id="DejaVuSans-50" d="M 1259 4147 
L 1259 2394 
L 2053 2394 
Q 2494 2394 2734 2622 
Q 2975 2850 2975 3272 
Q 2975 3691 2734 3919 
Q 2494 4147 2053 4147 
L 1259 4147 
z
M 628 4666 
L 2053 4666 
Q 2838 4666 3239 4311 
Q 3641 3956 3641 3272 
Q 3641 2581 3239 2228 
Q 2838 1875 2053 1875 
L 1259 1875 
L 1259 0 
L 628 0 
L 628 4666 
z
" transform="scale(0.015625)"/>
       <path id="DejaVuSans-62" d="M 3116 1747 
Q 3116 2381 2855 2742 
Q 2594 3103 2138 3103 
Q 1681 3103 1420 2742 
Q 1159 2381 1159 1747 
Q 1159 1113 1420 752 
Q 1681 391 2138 391 
Q 2594 391 2855 752 
Q 3116 1113 3116 1747 
z
M 1159 2969 
Q 1341 3281 1617 3432 
Q 1894 3584 2278 3584 
Q 2916 3584 3314 3078 
Q 3713 2572 3713 1747 
Q 3713 922 3314 415 
Q 2916 -91 2278 -91 
Q 1894 -91 1617 61 
Q 1341 213 1159 525 
L 1159 0 
L 581 0 
L 581 4863 
L 1159 4863 
L 1159 2969 
z
" transform="scale(0.015625)"/>
      </defs>
      <use xlink:href="#DejaVuSans-4c"/>
      <use xlink:href="#DejaVuSans-65" transform="translate(53.962891 0)"/>
      <use xlink:href="#DejaVuSans-61" transform="translate(115.486328 0)"/>
      <use xlink:href="#DejaVuSans-6e" transform="translate(176.765625 0)"/>
      <use xlink:href="#DejaVuSans-20" transform="translate(240.144531 0)"/>
      <use xlink:href="#DejaVuSans-46" transform="translate(271.931641 0)"/>
      <use xlink:href="#DejaVuSans-6f" transform="translate(325.826172 0)"/>
      <use xlink:href="#DejaVuSans-72" transform="translate(387.007812 0)"/>
      <use xlink:href="#DejaVuSans-6d" transform="translate(426.371094 0)"/>
      <use xlink:href="#DejaVuSans-61" transform="translate(523.783203 0)"/>
      <use xlink:href="#DejaVuSans-6c" transform="translate(585.0625 0)"/>
      <use xlink:href="#DejaVuSans-69" transform="translate(612.845703 0)"/>
      <use xlink:href="#DejaVuSans-7a" transform="translate(640.628906 0)"/>
      <use xlink:href="#DejaVuSans-65" transform="translate(693.119141 0)"/>
      <use xlink:href="#DejaVuSans-64" transform="translate(754.642578 0)"/>
      <use xlink:href="#DejaVuSans-20" transform="translate(818.119141 0)"/>
      <use xlink:href="#DejaVuSans-50" transform="translate(849.90625 0)"/>
      <use xlink:href="#DejaVuSans-72" transform="translate(908.458984 0)"/>
      <use xlink:href="#DejaVuSans-6f" transform="translate(947.322266 0)"/>
      <use xlink:href="#DejaVuSans-62" transform="translate(1008.503906 0)"/>
      <use xlink:href="#DejaVuSans-6c" transform="translate(1071.980469 0)"/>
      <use xlink:href="#DejaVuSans-65" transform="translate(1099.763672 0)"/>
      <use xlink:href="#DejaVuSans-6d" transform="translate(1161.287109 0)"/>
     </g>
    </g>
    <g id="line2d_36">
     <path d="M 57.90125 80.8525 
L 67.90125 80.8525 
L 77.90125 80.8525 
" style="fill: none; stroke: #d29922; stroke-width: 2; stroke-linecap: square"/>
    </g>
    <g id="text_25">
     <!-- Lean Formalized Solution -->
     <g style="fill: #c9d1d9" transform="translate(85.90125 84.3525) scale(0.1 -0.1)">
      <use xlink:href="#DejaVuSans-4c"/>
      <use xlink:href="#DejaVuSans-65" transform="translate(53.962891 0)"/>
      <use xlink:href="#DejaVuSans-61" transform="translate(115.486328 0)"/>
      <use xlink:href="#DejaVuSans-6e" transform="translate(176.765625 0)"/>
      <use xlink:href="#DejaVuSans-20" transform="translate(240.144531 0)"/>
      <use xlink:href="#DejaVuSans-46" transform="translate(271.931641 0)"/>
      <use xlink:href="#DejaVuSans-6f" transform="translate(325.826172 0)"/>
      <use xlink:href="#DejaVuSans-72" transform="translate(387.007812 0)"/>
      <use xlink:href="#DejaVuSans-6d" transform="translate(426.371094 0)"/>
      <use xlink:href="#DejaVuSans-61" transform="translate(523.783203 0)"/>
      <use xlink:href="#DejaVuSans-6c" transform="translate(585.0625 0)"/>
      <use xlink:href="#DejaVuSans-69" transform="translate(612.845703 0)"/>
      <use xlink:href="#DejaVuSans-7a" transform="translate(640.628906 0)"/>
      <use xlink:href="#DejaVuSans-65" transform="translate(693.119141 0)"/>
      <use xlink:href="#DejaVuSans-64" transform="translate(754.642578 0)"/>
      <use xlink:href="#DejaVuSans-20" transform="translate(818.119141 0)"/>
      <use xlink:href="#DejaVuSans-53" transform="translate(849.90625 0)"/>
      <use xlink:href="#DejaVuSans-6f" transform="translate(913.382812 0)"/>
      <use xlink:href="#DejaVuSans-6c" transform="translate(974.564453 0)"/>
      <use xlink:href="#DejaVuSans-75" transform="translate(1002.347656 0)"/>
      <use xlink:href="#DejaVuSans-74" transform="translate(1065.726562 0)"/>
      <use xlink:href="#DejaVuSans-69" transform="translate(1104.935547 0)"/>
      <use xlink:href="#DejaVuSans-6f" transform="translate(1132.71875 0)"/>
      <use xlink:href="#DejaVuSans-6e" transform="translate(1193.900391 0)"/>
     </g>
    </g>
    <g id="line2d_37">
     <path d="M 57.90125 95.530625 
L 67.90125 95.530625 
L 77.90125 95.530625 
" style="fill: none; stroke: #f85149; stroke-width: 2; stroke-linecap: square"/>
    </g>
    <g id="text_26">
     <!-- OEIS Linked -->
     <g style="fill: #c9d1d9" transform="translate(85.90125 99.030625) scale(0.1 -0.1)">
      <defs>
       <path id="DejaVuSans-4f" d="M 2522 4238 
Q 1834 4238 1429 3725 
Q 1025 3213 1025 2328 
Q 1025 1447 1429 934 
Q 1834 422 2522 422 
Q 3209 422 3611 934 
Q 4013 1447 4013 2328 
Q 4013 3213 3611 3725 
Q 3209 4238 2522 4238 
z
M 2522 4750 
Q 3503 4750 4090 4092 
Q 4678 3434 4678 2328 
Q 4678 1225 4090 567 
Q 3503 -91 2522 -91 
Q 1538 -91 948 565 
Q 359 1222 359 2328 
Q 359 3434 948 4092 
Q 1538 4750 2522 4750 
z
" transform="scale(0.015625)"/>
       <path id="DejaVuSans-45" d="M 628 4666 
L 3578 4666 
L 3578 4134 
L 1259 4134 
L 1259 2753 
L 3481 2753 
L 3481 2222 
L 1259 2222 
L 1259 531 
L 3634 531 
L 3634 0 
L 628 0 
L 628 4666 
z
" transform="scale(0.015625)"/>
       <path id="DejaVuSans-49" d="M 628 4666 
L 1259 4666 
L 1259 0 
L 628 0 
L 628 4666 
z
" transform="scale(0.015625)"/>
       <path id="DejaVuSans-6b" d="M 581 4863 
L 1159 4863 
L 1159 1991 
L 2875 3500 
L 3609 3500 
L 1753 1863 
L 3688 0 
L 2938 0 
L 1159 1709 
L 1159 0 
L 581 0 
L 581 4863 
z
" transform="scale(0.015625)"/>
      </defs>
      <use xlink:href="#DejaVuSans-4f"/>
      <use xlink:href="#DejaVuSans-45" transform="translate(78.710938 0)"/>
      <use xlink:href="#DejaVuSans-49" transform="translate(141.894531 0)"/>
      <use xlink:href="#DejaVuSans-53" transform="translate(171.386719 0)"/>
      <use xlink:href="#DejaVuSans-20" transform="translate(234.863281 0)"/>
      <use xlink:href="#DejaVuSans-4c" transform="translate(266.650391 0)"/>
      <use xlink:href="#DejaVuSans-69" transform="translate(322.363281 0)"/>
      <use xlink:href="#DejaVuSans-6e" transform="translate(350.146484 0)"/>
      <use xlink:href="#DejaVuSans-6b" transform="translate(413.525391 0)"/>
      <use xlink:href="#DejaVuSans-65" transform="translate(467.810547 0)"/>
      <use xlink:href="#DejaVuSans-64" transform="translate(529.333984 0)"/>
     </g>
    </g>
    <g id="line2d_38">
     <path d="M 57.90125 110.20875 
L 67.90125 110.20875 
L 77.90125 110.20875 
" style="fill: none; stroke: #9467bd; stroke-width: 2; stroke-linecap: square"/>
    </g>
    <g id="text_27">
     <!-- Open Problems -->
     <g style="fill: #c9d1d9" transform="translate(85.90125 113.70875) scale(0.1 -0.1)">
      <defs>
       <path id="DejaVuSans-73" d="M 2834 3397 
L 2834 2853 
Q 2591 2978 2328 3040 
Q 2066 3103 1784 3103 
Q 1356 3103 1142 2972 
Q 928 2841 928 2578 
Q 928 2378 1081 2264 
Q 1234 2150 1697 2047 
L 1894 2003 
Q 2506 1872 2764 1633 
Q 3022 1394 3022 966 
Q 3022 478 2636 193 
Q 2250 -91 1575 -91 
Q 1294 -91 989 -36 
Q 684 19 347 128 
L 347 722 
Q 666 556 975 473 
Q 1284 391 1588 391 
Q 1994 391 2212 530 
Q 2431 669 2431 922 
Q 2431 1156 2273 1281 
Q 2116 1406 1581 1522 
L 1381 1569 
Q 847 1681 609 1914 
Q 372 2147 372 2553 
Q 372 3047 722 3315 
Q 1072 3584 1716 3584 
Q 2034 3584 2315 3537 
Q 2597 3491 2834 3397 
z
" transform="scale(0.015625)"/>
      </defs>
      <use xlink:href="#DejaVuSans-4f"/>
      <use xlink:href="#DejaVuSans-70" transform="translate(78.710938 0)"/>
      <use xlink:href="#DejaVuSans-65" transform="translate(142.1875 0)"/>
      <use xlink:href="#DejaVuSans-6e" transform="translate(203.710938 0)"/>
      <use xlink:href="#DejaVuSans-20" transform="translate(267.089844 0)"/>
      <use xlink:href="#DejaVuSans-50" transform="translate(298.876953 0)"/>
      <use xlink:href="#DejaVuSans-72" transform="translate(357.429688 0)"/>
      <use xlink:href="#DejaVuSans-6f" transform="translate(396.292969 0)"/>
      <use xlink:href="#DejaVuSans-62" transform="translate(457.474609 0)"/>
      <use xlink:href="#DejaVuSans-6c" transform="translate(520.951172 0)"/>
      <use xlink:href="#DejaVuSans-65" transform="translate(548.734375 0)"/>
      <use xlink:href="#DejaVuSans-6d" transform="translate(610.257812 0)"/>
      <use xlink:href="#DejaVuSans-73" transform="translate(707.669922 0)"/>
     </g>
    </g>
   </g>
  </g>
 </g>
 <defs>
  <clipPath id="pf7192884f9">
   <rect x="48.90125" y="38.397812" width="799.45" height="416.84"/>
  </clipPath>
 </defs>
</svg>
